<svg width="124" height="124" viewBox="0 0 124 124" fill="none" xmlns="http://www.w3.org/2000/svg">
<circle cx="62" cy="62" r="60" fill="white" stroke="#978050" stroke-width="4"/>
<rect x="41" y="83" width="42" height="42" rx="21" transform="rotate(-90 41 83)" fill="#FFBE2E"/>
<g clip-path="url(#clip0_129_16433)">
<path d="M55 44.5C54.7679 44.5 54.5454 44.4078 54.3813 44.2437C54.2172 44.0796 54.125 43.8571 54.125 43.625C54.125 43.3929 54.2172 43.1704 54.3813 43.0063C54.5454 42.8422 54.7679 42.75 55 42.75C54.1347 42.75 53.2888 42.4934 52.5694 42.0127C51.8499 41.5319 51.2892 40.8487 50.958 40.0492C50.6269 39.2498 50.5403 38.3701 50.7091 37.5215C50.8779 36.6728 51.2946 35.8933 51.9064 35.2814C52.5183 34.6696 53.2978 34.2529 54.1465 34.0841C54.9951 33.9153 55.8748 34.0019 56.6742 34.333C57.4737 34.6642 58.157 35.2249 58.6377 35.9444C59.1184 36.6638 59.375 37.5097 59.375 38.375C59.375 38.6071 59.2828 38.8296 59.1187 38.9937C58.9546 39.1578 58.7321 39.25 58.5 39.25C58.2679 39.25 58.0454 39.1578 57.8813 38.9937C57.7172 38.8296 57.625 38.6071 57.625 38.375C57.625 37.8558 57.4711 37.3483 57.1826 36.9166C56.8942 36.485 56.4842 36.1485 56.0045 35.9498C55.5249 35.7511 54.9971 35.6992 54.4879 35.8004C53.9787 35.9017 53.511 36.1517 53.1438 36.5188C52.7767 36.886 52.5267 37.3537 52.4254 37.8629C52.3242 38.3721 52.3761 38.8999 52.5748 39.3795C52.7735 39.8592 53.11 40.2692 53.5416 40.5576C53.9733 40.846 54.4808 41 55 41C55.4641 41 55.9093 41.1844 56.2374 41.5126C56.5656 41.8408 56.75 42.2859 56.75 42.75C56.75 43.2141 56.5656 43.6592 56.2374 43.9874C55.9093 44.3156 55.4641 44.5 55 44.5Z" fill="black"/>
<path d="M47.9997 48.8749C47.8024 48.8753 47.6107 48.8089 47.4558 48.6866C47.3009 48.5643 47.1919 48.3932 47.1465 48.2012C47.1011 48.0091 47.122 47.8074 47.2057 47.6287C47.2894 47.4499 47.4311 47.3048 47.6077 47.2168L54.6077 43.7168C54.8154 43.613 55.0558 43.596 55.2761 43.6696C55.4963 43.7431 55.6783 43.9011 55.782 44.1088C55.8857 44.3165 55.9027 44.5568 55.8292 44.7771C55.7557 44.9973 55.5977 45.1793 55.39 45.283L48.39 48.783C48.2688 48.8434 48.1352 48.8749 47.9997 48.8749Z" fill="black"/>
<path d="M61.9995 48.8749C61.864 48.8749 61.7305 48.8434 61.6092 48.783L54.6092 45.283C54.4015 45.1793 54.2436 44.9973 54.17 44.7771C54.0965 44.5568 54.1135 44.3165 54.2172 44.1088C54.321 43.9011 54.503 43.7431 54.7232 43.6696C54.9434 43.596 55.1838 43.613 55.3915 43.7168L62.3915 47.2168C62.5681 47.3048 62.7098 47.4499 62.7935 47.6287C62.8773 47.8074 62.8981 48.0091 62.8527 48.2012C62.8073 48.3932 62.6983 48.5643 62.5434 48.6866C62.3885 48.8089 62.1968 48.8753 61.9995 48.8749Z" fill="black"/>
<path d="M55 49.75C51.1001 49.75 44.5 49.0124 44.5 46.25C44.5 46.018 44.5922 45.7954 44.7563 45.6313C44.9204 45.4672 45.1429 45.375 45.375 45.375C45.6071 45.375 45.8296 45.4672 45.9937 45.6313C46.1578 45.7954 46.25 46.018 46.25 46.25C46.4889 46.8371 49.7115 48 55 48C60.2885 48 63.5111 46.8371 63.7553 46.2133C63.7552 46.0992 63.778 45.9863 63.8222 45.8812C63.8664 45.776 63.9311 45.6807 64.0126 45.601C64.0941 45.5212 64.1907 45.4585 64.2968 45.4165C64.4028 45.3745 64.5162 45.3542 64.6303 45.3566C64.8635 45.3615 65.0855 45.4579 65.2482 45.625C65.411 45.7922 65.5014 46.0167 65.5 46.25C65.5 49.0124 58.8999 49.75 55 49.75Z" fill="black"/>
<path d="M41.875 65.5H34.875C34.6429 65.5 34.4204 65.4078 34.2563 65.2437C34.0922 65.0796 34 64.8571 34 64.625V55.875C34 50.0851 39.103 45.375 45.375 45.375C45.6071 45.375 45.8296 45.4672 45.9937 45.6313C46.1578 45.7954 46.25 46.0179 46.25 46.25C46.25 46.4821 46.1578 46.7046 45.9937 46.8687C45.8296 47.0328 45.6071 47.125 45.375 47.125C40.0681 47.125 35.75 51.0503 35.75 55.875V63.75H41.875C42.1071 63.75 42.3296 63.8422 42.4937 64.0063C42.6578 64.1704 42.75 64.3929 42.75 64.625C42.75 64.8571 42.6578 65.0796 42.4937 65.2437C42.3296 65.4078 42.1071 65.5 41.875 65.5Z" fill="black"/>
<path d="M41.875 75.125C41.6429 75.125 41.4204 75.0328 41.2563 74.8687C41.0922 74.7046 41 74.4821 41 74.25V57.625C41 57.3929 41.0922 57.1704 41.2563 57.0063C41.4204 56.8422 41.6429 56.75 41.875 56.75C42.1071 56.75 42.3296 56.8422 42.4937 57.0063C42.6578 57.1704 42.75 57.3929 42.75 57.625V74.25C42.75 74.4821 42.6578 74.7046 42.4937 74.8687C42.3296 75.0328 42.1071 75.125 41.875 75.125Z" fill="black"/>
<path d="M75.125 60.25C74.8929 60.25 74.6704 60.1578 74.5063 59.9937C74.3422 59.8296 74.25 59.6071 74.25 59.375V55.875C74.25 51.0503 69.9319 47.125 64.625 47.125C64.3929 47.125 64.1704 47.0328 64.0063 46.8687C63.8422 46.7046 63.75 46.4821 63.75 46.25C63.75 46.0179 63.8422 45.7954 64.0063 45.6313C64.1704 45.4672 64.3929 45.375 64.625 45.375C70.897 45.375 76 50.0851 76 55.875V59.375C76 59.6071 75.9078 59.8296 75.7437 59.9937C75.5796 60.1578 75.3571 60.25 75.125 60.25Z" fill="black"/>
<path d="M68.125 60.25C67.8929 60.25 67.6704 60.1578 67.5063 59.9937C67.3422 59.8296 67.25 59.6071 67.25 59.375V57.625C67.25 57.3929 67.3422 57.1704 67.5063 57.0063C67.6704 56.8422 67.8929 56.75 68.125 56.75C68.3571 56.75 68.5796 56.8422 68.7437 57.0063C68.9078 57.1704 69 57.3929 69 57.625V59.375C69 59.6071 68.9078 59.8296 68.7437 59.9937C68.5796 60.1578 68.3571 60.25 68.125 60.25Z" fill="black"/>
<path d="M65.5 88.25H60.25C60.0179 88.25 59.7954 88.1578 59.6313 87.9937C59.4672 87.8296 59.375 87.6071 59.375 87.375C59.375 87.1429 59.4672 86.9204 59.6313 86.7563C59.7954 86.5922 60.0179 86.5 60.25 86.5H65.5C65.7321 86.5 65.9546 86.5922 66.1187 86.7563C66.2828 86.9204 66.375 87.1429 66.375 87.375C66.375 87.6071 66.2828 87.8296 66.1187 87.9937C65.9546 88.1578 65.7321 88.25 65.5 88.25Z" fill="black"/>
<path d="M77.75 63.75H64.625C64.3929 63.75 64.1704 63.6578 64.0063 63.4937C63.8422 63.3296 63.75 63.1071 63.75 62.875V61.125C63.75 60.4288 64.0266 59.7611 64.5188 59.2688C65.0111 58.7766 65.6788 58.5 66.375 58.5H76C76.6962 58.5 77.3639 58.7766 77.8562 59.2688C78.3484 59.7611 78.625 60.4288 78.625 61.125V62.875C78.625 63.1071 78.5328 63.3296 78.3687 63.4937C78.2046 63.6578 77.9821 63.75 77.75 63.75ZM65.5 62H76.875V61.125C76.875 60.8929 76.7828 60.6704 76.6187 60.5063C76.4546 60.3422 76.2321 60.25 76 60.25H66.375C66.1429 60.25 65.9204 60.3422 65.7563 60.5063C65.5922 60.6704 65.5 60.8929 65.5 61.125V62Z" fill="black"/>
<path d="M89.1253 86.5H65.5003C65.2682 86.5 65.0456 86.4078 64.8815 86.2437C64.7174 86.0796 64.6253 85.8571 64.6253 85.625V81.25C64.6661 79.7836 64.852 78.3249 65.18 76.8951L65.278 76.4051C65.4514 75.7192 65.5269 75.0122 65.502 74.3051C65.4661 73.7801 65.4084 73.1974 65.3506 72.6181C65.2946 72.0546 65.2386 71.4938 65.2019 70.9801L64.6253 62.9371C64.6088 62.7051 64.6852 62.476 64.8376 62.3002C64.99 62.1245 65.2061 62.0165 65.4381 62C65.6702 61.9835 65.8993 62.0599 66.075 62.2124C66.2508 62.3648 66.3588 62.5808 66.3753 62.8129L66.9492 70.8629C66.9851 71.3608 67.0368 71.9059 67.0936 72.4519C67.1531 73.0504 67.2135 73.6506 67.2503 74.1958C67.2873 75.0564 67.2012 75.9179 66.9948 76.7543L66.8994 77.2373C66.5934 78.5544 66.4178 79.8985 66.3753 81.25V84.75H88.2503V82.125C88.2503 80.6944 86.7181 79.528 84.8194 79.5L79.6446 80.3619C79.5969 80.3702 79.5487 80.3745 79.5003 80.375C78.9198 80.397 78.3411 80.2989 77.8004 80.0868C77.2596 79.8747 76.7685 79.5532 76.3578 79.1425C75.947 78.7318 75.6256 78.2407 75.4135 77.6999C75.2014 77.1592 75.1033 76.5804 75.1253 76L76.0003 62.8173C76.0078 62.7023 76.038 62.5901 76.089 62.4868C76.1399 62.3835 76.2108 62.2913 76.2974 62.2155C76.384 62.1396 76.4847 62.0815 76.5938 62.0445C76.7028 62.0075 76.8181 61.9924 76.933 62C77.0479 62.0076 77.1602 62.0377 77.2635 62.0887C77.3667 62.1397 77.4589 62.2105 77.5348 62.2971C77.6107 62.3837 77.6688 62.4845 77.7057 62.5935C77.7427 62.7026 77.7578 62.8179 77.7503 62.9328L76.8753 76.0578C76.8635 76.3971 76.9215 76.7352 77.0456 77.0513C77.1697 77.3673 77.3574 77.6545 77.5969 77.8952C77.8365 78.1358 78.1229 78.3247 78.4384 78.4503C78.7539 78.5758 79.0917 78.6353 79.4311 78.625L84.6059 77.7631C84.6536 77.7549 84.7019 77.7505 84.7503 77.75C87.6456 77.75 90.0003 79.7126 90.0003 82.125V85.625C90.0003 85.8571 89.9081 86.0796 89.744 86.2437C89.5799 86.4078 89.3573 86.5 89.1253 86.5Z" fill="black"/>
<path d="M81.25 90H80.375C80.1429 90 79.9204 89.9078 79.7563 89.7437C79.5922 89.5796 79.5 89.3571 79.5 89.125C79.5 88.768 78.8184 88.25 77.75 88.25C76.6816 88.25 76 88.768 76 89.125C76 89.3571 75.9078 89.5796 75.7437 89.7437C75.5796 89.9078 75.3571 90 75.125 90H68.125C67.4288 90 66.7611 89.7234 66.2688 89.2312C65.7766 88.7389 65.5 88.0712 65.5 87.375V85.625C65.5 85.3929 65.5922 85.1704 65.7563 85.0063C65.9204 84.8422 66.1429 84.75 66.375 84.75C66.6071 84.75 66.8296 84.8422 66.9937 85.0063C67.1578 85.1704 67.25 85.3929 67.25 85.625V87.375C67.25 87.6071 67.3422 87.8296 67.5063 87.9937C67.6704 88.1578 67.8929 88.25 68.125 88.25H74.4416C74.7744 87.6782 75.2607 87.2111 75.8455 86.9018C76.4303 86.5925 77.0901 86.4533 77.75 86.5C78.4099 86.4533 79.0697 86.5925 79.6545 86.9018C80.2393 87.2111 80.7256 87.6782 81.0584 88.25H81.25C83.8645 88.25 88.25 87.9087 88.25 85.625C88.25 85.3929 88.3422 85.1704 88.5063 85.0063C88.6704 84.8422 88.8929 84.75 89.125 84.75C89.3571 84.75 89.5796 84.8422 89.7437 85.0063C89.9078 85.1704 90 85.3929 90 85.625C90 87.6209 88.4819 90 81.25 90Z" fill="black"/>
<path d="M76 68.125H75.125C74.8929 68.125 74.6704 68.0328 74.5063 67.8687C74.3422 67.7046 74.25 67.4821 74.25 67.25C74.25 67.0179 74.3422 66.7954 74.5063 66.6313C74.6704 66.4672 74.8929 66.375 75.125 66.375H76C76.2321 66.375 76.4546 66.4672 76.6187 66.6313C76.7828 66.7954 76.875 67.0179 76.875 67.25C76.875 67.4821 76.7828 67.7046 76.6187 67.8687C76.4546 68.0328 76.2321 68.125 76 68.125Z" fill="black"/>
<path d="M76 71.625H75.125C74.8929 71.625 74.6704 71.5328 74.5063 71.3687C74.3422 71.2046 74.25 70.9821 74.25 70.75C74.25 70.5179 74.3422 70.2954 74.5063 70.1313C74.6704 69.9672 74.8929 69.875 75.125 69.875H76C76.2321 69.875 76.4546 69.9672 76.6187 70.1313C76.7828 70.2954 76.875 70.5179 76.875 70.75C76.875 70.9821 76.7828 71.2046 76.6187 71.3687C76.4546 71.5328 76.2321 71.625 76 71.625Z" fill="black"/>
<path d="M76 75.125H75.125C74.8929 75.125 74.6704 75.0328 74.5063 74.8687C74.3422 74.7046 74.25 74.4821 74.25 74.25C74.25 74.0179 74.3422 73.7954 74.5063 73.6313C74.6704 73.4672 74.8929 73.375 75.125 73.375H76C76.2321 73.375 76.4546 73.4672 76.6187 73.6313C76.7828 73.7954 76.875 74.0179 76.875 74.25C76.875 74.4821 76.7828 74.7046 76.6187 74.8687C76.4546 75.0328 76.2321 75.125 76 75.125Z" fill="black"/>
<path d="M79.5 81.25C79.2679 81.25 79.0454 81.1578 78.8813 80.9937C78.7172 80.8296 78.625 80.6071 78.625 80.375V79.5C78.625 79.2679 78.7172 79.0454 78.8813 78.8813C79.0454 78.7172 79.2679 78.625 79.5 78.625C79.7321 78.625 79.9546 78.7172 80.1187 78.8813C80.2828 79.0454 80.375 79.2679 80.375 79.5V80.375C80.375 80.6071 80.2828 80.8296 80.1187 80.9937C79.9546 81.1578 79.7321 81.25 79.5 81.25Z" fill="black"/>
<path d="M83 81.25C82.7679 81.25 82.5454 81.1578 82.3813 80.9937C82.2172 80.8296 82.125 80.6071 82.125 80.375V79.5C82.125 79.2679 82.2172 79.0454 82.3813 78.8813C82.5454 78.7172 82.7679 78.625 83 78.625C83.2321 78.625 83.4546 78.7172 83.6187 78.8813C83.7828 79.0454 83.875 79.2679 83.875 79.5V80.375C83.875 80.6071 83.7828 80.8296 83.6187 80.9937C83.4546 81.1578 83.2321 81.25 83 81.25Z" fill="black"/>
<path d="M61.125 78.625H34.875C34.6429 78.625 34.4204 78.5328 34.2563 78.3687C34.0922 78.2046 34 77.9821 34 77.75V76C34 75.3038 34.2766 74.6361 34.7688 74.1438C35.2611 73.6516 35.9288 73.375 36.625 73.375H59.375C60.0712 73.375 60.7389 73.6516 61.2312 74.1438C61.7234 74.6361 62 75.3038 62 76V77.75C62 77.9821 61.9078 78.2046 61.7437 78.3687C61.5796 78.5328 61.3571 78.625 61.125 78.625ZM35.75 76.875H60.25V76C60.25 75.7679 60.1578 75.5454 59.9937 75.3813C59.8296 75.2172 59.6071 75.125 59.375 75.125H36.625C36.3929 75.125 36.1704 75.2172 36.0063 75.3813C35.8422 75.5454 35.75 75.7679 35.75 76V76.875Z" fill="black"/>
<path d="M60.25 90H35.75C35.5179 90 35.2954 89.9078 35.1313 89.7437C34.9672 89.5796 34.875 89.3571 34.875 89.125V77.75C34.875 77.5179 34.9672 77.2954 35.1313 77.1313C35.2954 76.9672 35.5179 76.875 35.75 76.875H60.25C60.4821 76.875 60.7046 76.9672 60.8687 77.1313C61.0328 77.2954 61.125 77.5179 61.125 77.75V89.125C61.125 89.3571 61.0328 89.5796 60.8687 89.7437C60.7046 89.9078 60.4821 90 60.25 90ZM36.625 88.25H59.375V78.625H36.625V88.25Z" fill="black"/>
<path d="M46.25 90C46.0179 90 45.7954 89.9078 45.6313 89.7437C45.4672 89.5796 45.375 89.3571 45.375 89.125V74.25C45.375 74.0179 45.4672 73.7954 45.6313 73.6313C45.7954 73.4672 46.0179 73.375 46.25 73.375C46.4821 73.375 46.7046 73.4672 46.8687 73.6313C47.0328 73.7954 47.125 74.0179 47.125 74.25V89.125C47.125 89.3571 47.0328 89.5796 46.8687 89.7437C46.7046 89.9078 46.4821 90 46.25 90Z" fill="black"/>
<path d="M49.75 90C49.5179 90 49.2954 89.9078 49.1313 89.7437C48.9672 89.5796 48.875 89.3571 48.875 89.125V74.25C48.875 74.0179 48.9672 73.7954 49.1313 73.6313C49.2954 73.4672 49.5179 73.375 49.75 73.375C49.9821 73.375 50.2046 73.4672 50.3687 73.6313C50.5328 73.7954 50.625 74.0179 50.625 74.25V89.125C50.625 89.3571 50.5328 89.5796 50.3687 89.7437C50.2046 89.9078 49.9821 90 49.75 90Z" fill="black"/>
</g>
<defs>
<clipPath id="clip0_129_16433">
<rect width="56" height="56" fill="white" transform="translate(34 34)"/>
</clipPath>
</defs>
</svg>
