<svg width="250" height="208" viewBox="0 0 250 208" fill="none" xmlns="http://www.w3.org/2000/svg">
<g clip-path="url(#clip0_5226_82832)">
<path d="M191.137 101.976C191.07 101.976 191.005 101.942 190.969 101.879C190.915 101.787 190.946 101.667 191.039 101.613L204.39 93.8065C204.747 93.5993 204.968 93.2151 204.968 92.8034V70.0949C204.968 69.9871 205.055 69.8999 205.163 69.8999C205.27 69.8999 205.358 69.9871 205.358 70.0949V92.8035C205.358 93.3538 205.062 93.867 204.587 94.1436L191.235 101.95C191.205 101.967 191.171 101.976 191.137 101.976Z" fill="#FFBE2E"/>
<path d="M35.0542 195.206C34.9872 195.206 34.9216 195.171 34.8851 195.109C34.8318 195.015 34.863 194.896 34.9567 194.843L63.8068 178.167C64.4877 177.774 64.8632 177.263 64.8639 176.729C64.8647 176.199 64.4953 175.692 63.8235 175.302L32.7655 157.253C32.6726 157.199 32.6414 157.08 32.6955 156.987C32.7488 156.893 32.8683 156.862 32.9621 156.916L64.0201 174.965C64.8167 175.428 65.2546 176.055 65.2539 176.729C65.2524 177.408 64.8084 178.039 64.0018 178.504L35.1518 195.18C35.1212 195.198 35.0877 195.206 35.0542 195.206Z" fill="#FFBE2E"/>
<path d="M30.7288 194.168C29.1904 195.056 29.1816 196.497 30.7101 197.385C32.2385 198.274 34.7262 198.273 36.2647 197.385C37.8031 196.497 37.8106 195.057 36.2821 194.168C34.7536 193.28 32.2672 193.28 30.7288 194.168Z" fill="#FFBE2E"/>
<path d="M33.483 198.242C32.4419 198.242 31.4022 198.013 30.6117 197.554C29.8128 197.09 29.3733 196.461 29.374 195.782C29.3748 195.1 29.8211 194.467 30.6307 193.999C32.221 193.082 34.8006 193.082 36.3803 194C37.1792 194.465 37.6195 195.094 37.618 195.772C37.6172 196.454 37.1709 197.087 36.3621 197.553C35.5668 198.013 34.5242 198.242 33.483 198.242ZM30.8257 194.337C30.1418 194.732 29.7648 195.245 29.764 195.783C29.7632 196.316 30.1341 196.825 30.8082 197.216C32.2797 198.073 34.6833 198.072 36.1671 197.216C36.8503 196.822 37.2273 196.308 37.228 195.771C37.2288 195.238 36.8579 194.729 36.1838 194.337C34.7123 193.481 32.3079 193.481 30.8257 194.337Z" fill="#FFBE2E"/>
<path d="M33.4841 196.791C34.0839 196.791 34.6643 196.655 35.0766 196.416C35.4077 196.225 35.5979 195.991 35.5981 195.772C35.5984 195.557 35.4121 195.325 35.0869 195.136C34.678 194.898 34.0999 194.762 33.5009 194.762C32.9017 194.762 32.3217 194.898 31.9096 195.136C31.5782 195.327 31.388 195.562 31.3877 195.781C31.3875 195.997 31.5736 196.229 31.8984 196.417C32.3071 196.655 32.885 196.791 33.4841 196.791Z" fill="white"/>
<path d="M69.2036 201.368C69.1366 201.368 69.0711 201.334 69.0353 201.271C68.9812 201.178 69.0125 201.059 69.1053 201.004L100.111 182.986C100.204 182.931 100.323 182.962 100.377 183.056C100.431 183.149 100.4 183.269 100.307 183.323L69.3019 201.342C69.2707 201.36 69.2372 201.368 69.2036 201.368Z" fill="#FFBE2E"/>
<path d="M70.756 203.204C72.153 202.397 72.161 201.089 70.7731 200.282C69.3851 199.475 67.1261 199.476 65.7291 200.282C64.332 201.089 64.3252 202.397 65.7133 203.203C67.1011 204.01 69.359 204.01 70.756 203.204Z" fill="#FFBE2E"/>
<path d="M68.2297 204C67.2807 204 66.3332 203.791 65.6128 203.372C64.8816 202.947 64.4787 202.37 64.4795 201.748C64.481 201.122 64.8893 200.541 65.6296 200.114C67.0782 199.277 69.4286 199.278 70.8697 200.114C71.6009 200.539 72.0029 201.116 72.0023 201.738C72.0014 202.365 71.5925 202.945 70.8514 203.373C70.1277 203.791 69.1779 204 68.2297 204ZM68.2533 199.871C67.3745 199.871 66.4955 200.064 65.8245 200.451C65.2098 200.807 64.8701 201.267 64.8693 201.748C64.8693 202.226 65.2029 202.683 65.8091 203.035C67.142 203.81 69.3172 203.809 70.6561 203.035C71.2715 202.68 71.6113 202.219 71.612 201.738C71.6128 201.26 71.2791 200.803 70.6729 200.451C70.0073 200.064 69.1307 199.871 68.2533 199.871Z" fill="#FFBE2E"/>
<path d="M68.2488 200.822C67.7042 200.822 67.1771 200.946 66.8027 201.162C66.502 201.336 66.3294 201.549 66.3291 201.747C66.3289 201.943 66.498 202.154 66.7934 202.325C67.1647 202.541 67.6897 202.665 68.2336 202.665C68.7777 202.665 69.3045 202.541 69.6786 202.325C69.9796 202.151 70.1523 201.938 70.1526 201.739C70.1528 201.543 69.9838 201.333 69.6888 201.161C69.3176 200.945 68.7928 200.822 68.2488 200.822Z" fill="white"/>
<path d="M80.5471 193.563C79.9622 193.563 79.3961 193.697 78.994 193.929C78.6711 194.115 78.4857 194.344 78.4854 194.557C78.4851 194.767 78.6668 194.994 78.9839 195.178C79.3827 195.41 79.9464 195.543 80.5306 195.543C81.115 195.543 81.6806 195.41 82.0824 195.178C82.4056 194.991 82.5911 194.762 82.5915 194.549C82.5917 194.338 82.4102 194.112 82.0933 193.928C81.695 193.696 81.1313 193.563 80.5471 193.563Z" fill="#373B42"/>
<g opacity="0.1">
<path d="M101.754 143.419L39.511 179.344L24.8027 170.795L87.0254 134.861L101.754 143.419Z" fill="black"/>
</g>
<path d="M91.4433 4.54213C90.5101 4.00335 89.2034 4.08146 87.7719 4.91131L34.2433 35.823C33.381 36.3207 32.5693 37.0278 31.8596 37.871C31.3943 38.4091 30.9686 39.013 30.6045 39.6438C30.2404 40.2745 29.9313 40.9285 29.6878 41.6032C29.3013 42.6589 29.0837 43.7347 29.0931 44.7442L29.4292 162.963C29.4276 164.601 30.0015 165.748 30.9282 166.283L41.7139 172.544C40.7807 172.005 40.2003 170.855 40.2047 169.227L39.8622 51.0041C39.8539 49.978 40.0752 48.8957 40.4754 47.831C40.719 47.1564 41.0345 46.5061 41.3987 45.8753C41.7629 45.2446 42.1848 44.6471 42.6538 44.1026C43.3597 43.2658 44.1678 42.5652 45.0199 42.0702L98.5409 11.1712C99.9893 10.3424 101.279 10.2634 102.232 10.8133L91.4433 4.54213Z" fill="#3C2C0B"/>
<path d="M42.6544 44.1022L31.8603 37.8706C31.395 38.4087 30.9693 39.0125 30.6052 39.6434C30.2411 40.2741 29.932 40.9281 29.6885 41.6028L40.476 47.8305C40.7196 47.156 41.035 46.5056 41.3993 45.8749C41.7635 45.2442 42.1854 44.6467 42.6544 44.1022Z" fill="#3C2C0B"/>
<path d="M41.7092 172.74C41.6756 172.74 41.6422 172.732 41.6117 172.714C41.6117 172.714 41.6117 172.714 41.6109 172.714C41.6079 172.711 41.6041 172.709 41.6003 172.707L30.83 166.451C29.7987 165.856 29.2305 164.617 29.2305 162.964L28.8917 44.7456C28.8833 43.1165 29.4317 41.2695 30.4348 39.5456C31.4234 37.8468 32.7402 36.4636 34.1424 35.6513L87.6709 4.7418C89.1188 3.90099 90.4936 3.76958 91.5424 4.37504L102.327 10.6395C102.328 10.6398 102.329 10.6403 102.329 10.641H102.33C102.423 10.6951 102.454 10.8143 102.401 10.9076C102.346 11.0005 102.225 11.0314 102.134 10.9788C101.217 10.4487 99.9745 10.5763 98.64 11.3391L45.1161 42.2421C43.7748 43.0163 42.5136 44.3408 41.5638 45.9722C40.5852 47.654 40.0504 49.4407 40.0574 51.0036L40.3963 169.223C40.391 170.723 40.8884 171.839 41.797 172.37L41.8076 172.376C41.9005 172.43 41.9318 172.55 41.8785 172.643C41.8418 172.705 41.7762 172.74 41.7092 172.74ZM90.0891 4.39038C89.4105 4.39038 88.6541 4.62193 87.8666 5.07926L34.3374 35.9887C32.9938 36.768 31.7272 38.1008 30.7714 39.7421C29.8026 41.4066 29.274 43.1832 29.2816 44.7441L29.6206 162.964C29.6206 164.472 30.1195 165.591 31.0258 166.114L40.5698 171.657C40.1974 171.018 40.0024 170.191 40.0063 169.223L39.6673 51.005C39.6597 49.3744 40.2133 47.517 41.2271 45.776C42.2096 44.0871 43.5219 42.7124 44.921 41.905L98.4456 11.0013C99.3124 10.5054 100.149 10.2609 100.909 10.2671L91.3464 4.71284C90.9741 4.49745 90.5499 4.39038 90.0891 4.39038Z" fill="#373B42"/>
<path d="M95.1831 13.3051C95.1497 13.3051 95.1161 13.2967 95.0856 13.2788L84.2781 7.03905C84.1852 6.9854 84.1531 6.86611 84.2064 6.77289C84.2612 6.67921 84.3809 6.6476 84.473 6.70171L95.2806 12.9414C95.3735 12.9951 95.4055 13.1144 95.3521 13.2076C95.3157 13.27 95.2502 13.3051 95.1831 13.3051Z" fill="#C4C4C4"/>
<path d="M34.7166 65.1845C34.2619 64.9311 33.8498 64.8993 33.5542 65.0695L32.458 65.6979C32.7603 65.5317 33.1657 65.5595 33.6201 65.8128C34.5282 66.3371 35.2623 67.6128 35.2655 68.664L35.2649 77.8487C35.2606 78.3843 35.0749 78.7524 34.7755 78.9293L35.8718 78.3009C36.1713 78.1241 36.3569 77.756 36.3612 77.2203L36.3618 68.0355C36.3589 66.9845 35.6246 65.7087 34.7166 65.1845Z" fill="#FFBE2E"/>
<path d="M34.7753 79.1241C34.7082 79.1241 34.6427 79.0895 34.607 79.027C34.5528 78.9345 34.5841 78.8156 34.6763 78.7612C34.9261 78.6139 35.0655 78.289 35.0692 77.8472L35.07 68.6638C35.067 67.6761 34.3731 66.4726 33.5224 65.9817C33.1476 65.7727 32.8019 65.7308 32.5513 65.869C32.4599 65.9205 32.3411 65.8873 32.2878 65.7936C32.2352 65.7002 32.268 65.5822 32.3609 65.5289L33.4569 64.9006C33.8211 64.6904 34.3016 64.73 34.8112 65.0145C34.812 65.0148 34.8127 65.0153 34.8135 65.016C35.7876 65.5781 36.553 66.9041 36.5561 68.0351V77.2204C36.5508 77.8062 36.3428 78.2486 35.9704 78.4687L34.8721 79.0982C34.8415 79.1158 34.808 79.1241 34.7753 79.1241ZM33.2718 65.4559C33.4158 65.4966 33.5642 65.5591 33.715 65.6429C34.6914 66.2065 35.4569 67.5325 35.46 68.6635L35.4592 77.8489C35.4577 78.0294 35.437 78.1966 35.3983 78.3474L35.7745 78.1319C36.0221 77.9852 36.1621 77.6608 36.1659 77.219V68.0357C36.1629 67.0486 35.4698 65.846 34.6199 65.3544C34.236 65.1412 33.8918 65.0996 33.6511 65.239L33.2718 65.4559Z" fill="#FFBE2E"/>
<path d="M35.2635 68.6645C35.2635 67.611 34.527 66.3354 33.6175 65.8139C32.7081 65.2923 31.9717 65.7229 31.9717 66.7765L31.9728 75.9637C31.9728 77.0172 32.7094 78.2928 33.6188 78.8143C34.5283 79.3359 35.2647 78.9053 35.2647 77.8517L35.2635 68.6645Z" fill="#FFBE2E"/>
<path d="M34.3492 79.2324C34.091 79.2324 33.81 79.1494 33.5221 78.9842C32.5435 78.4239 31.7772 77.0976 31.7772 75.9647L31.7764 66.7775C31.7764 66.1937 31.9828 65.7523 32.3583 65.5349C32.733 65.3194 33.2136 65.3581 33.714 65.6457C34.692 66.2063 35.4581 67.5327 35.4581 68.6652L35.4596 77.8524C35.4596 78.4361 35.2533 78.8775 34.8777 79.095C34.7186 79.1866 34.5404 79.2324 34.3492 79.2324ZM32.8884 65.7876C32.7643 65.7876 32.6516 65.8154 32.5541 65.8722C32.3043 66.0169 32.1664 66.3383 32.1664 66.7774L32.1672 75.9646C32.1672 76.954 32.8619 78.1566 33.7156 78.6459C34.0926 78.8611 34.4354 78.9006 34.6822 78.7574C34.9319 78.6128 35.0698 78.2914 35.0698 77.8523L35.0683 68.6651C35.0683 67.6761 34.3737 66.473 33.5206 65.9838C33.2928 65.8535 33.0781 65.7876 32.8884 65.7876Z" fill="white"/>
<path d="M36.433 117.081C36.433 115.938 35.6345 114.556 34.6486 113.99C33.6626 113.425 32.8643 113.892 32.8643 115.034L32.8669 137.218C32.8669 138.36 33.6654 139.743 34.6513 140.308C35.6373 140.874 36.4356 140.407 36.4356 139.265L36.433 117.081Z" fill="#FFBE2E"/>
<path d="M35.4392 116.531C35.4392 117.026 35.0892 117.225 34.6615 116.979C34.2281 116.731 33.8838 116.134 33.8838 115.639C33.8838 115.13 34.2281 114.929 34.6615 115.177C35.0892 115.423 35.4392 116.023 35.4392 116.531Z" fill="white"/>
<path d="M45.3907 172.181C42.5317 173.831 40.2103 172.509 40.2009 169.223L39.8623 51.0054C39.8529 47.7203 42.1591 43.7255 45.0181 42.0747L98.5443 11.1691C101.403 9.51832 103.725 10.8413 103.734 14.1264L104.073 132.344C104.082 135.63 101.776 139.624 98.917 141.275L45.3907 172.181Z" fill="#FFEECC"/>
<path d="M43.0671 173.088C42.5408 173.088 42.0526 172.965 41.6207 172.717C40.5841 172.12 40.0106 170.88 40.006 169.223L39.667 51.0053C39.6579 47.666 42.0143 43.5836 44.9208 41.9057L98.4471 11C99.8973 10.1622 101.27 10.0319 102.315 10.6326C103.351 11.2292 103.925 12.4696 103.929 14.1258L104.267 132.344C104.277 135.683 101.921 139.766 99.0145 141.443L45.4882 172.349C44.6376 172.84 43.8135 173.088 43.0671 173.088ZM100.867 10.6512C100.19 10.6512 99.4319 10.8816 98.642 11.3375L45.1159 42.243C42.3176 43.8588 40.048 47.7893 40.0571 51.0045L40.396 169.222C40.4006 170.733 40.904 171.854 41.8158 172.378C42.7312 172.906 43.9674 172.777 45.2933 172.012L98.8196 141.106C101.619 139.49 103.888 135.56 103.878 132.345L103.539 14.1263C103.535 12.6155 103.031 11.4945 102.12 10.9705C101.75 10.757 101.327 10.6512 100.867 10.6512Z" fill="#FFEECC"/>
<path d="M101.722 11.6673C102.362 12.0366 102.734 12.9352 102.737 14.1277L103.076 132.347C103.08 133.763 102.595 135.388 101.707 136.926C100.822 138.459 99.6542 139.698 98.4189 140.413L44.8936 171.317C43.8437 171.925 42.8668 172.06 42.2157 171.684C41.5761 171.315 41.2038 170.416 41.2007 169.223L40.8623 51.0046C40.8578 49.5884 41.3427 47.9632 42.231 46.4246C43.1158 44.8919 44.2841 43.6536 45.5193 42.9378L99.0447 12.0342C100.095 11.4266 101.071 11.2915 101.722 11.6673Z" fill="#FFBE2E"/>
<path d="M43.0654 172.087C42.7113 172.087 42.3898 172.01 42.1179 171.853C41.4142 171.447 41.0082 170.488 41.0052 169.224L40.667 51.005C40.6624 49.5548 41.1576 47.8937 42.0616 46.3275C42.9633 44.7661 44.1561 43.5026 45.4212 42.7695L98.9466 11.8658C100.06 11.2211 101.107 11.0866 101.82 11.4987C102.523 11.905 102.929 12.8631 102.932 14.1275L103.27 132.347C103.275 133.797 102.78 135.458 101.876 137.024C100.973 138.586 99.7806 139.85 98.5163 140.582L44.9908 171.486C44.303 171.884 43.6396 172.087 43.0654 172.087ZM100.869 11.652C100.367 11.652 99.7715 11.8386 99.1416 12.203L45.6161 43.1068C44.4097 43.806 43.2672 45.019 42.3998 46.5224C41.5292 48.03 41.0524 49.6214 41.057 51.0038L41.3951 169.223C41.3981 170.345 41.7326 171.18 42.3129 171.515C42.9016 171.855 43.8065 171.721 44.7959 171.148L98.3213 140.245C99.527 139.546 100.669 138.333 101.538 136.829C102.408 135.321 102.885 133.73 102.88 132.348L102.542 14.1282C102.539 13.0067 102.205 12.1712 101.625 11.836C101.41 11.7126 101.155 11.652 100.869 11.652Z" fill="#FFEECC"/>
<path d="M59.7415 40.9555C60.5363 40.5026 80.7042 28.9306 81.6397 28.394C83.1346 27.5352 84.3506 25.429 84.3525 23.7034L84.3493 20.5586C83.4137 21.0953 58.0969 35.6215 57.0307 36.2331L57.0303 39.3758C57.032 41.1034 58.2465 41.8142 59.7415 40.9555Z" fill="#FFEECC"/>
<path d="M58.5409 41.5167C58.2477 41.5167 57.975 41.447 57.7329 41.3072C57.1548 40.9732 56.8365 40.2873 56.835 39.376L56.8358 36.2331C56.8358 36.1631 56.873 36.0987 56.9341 36.064L84.2523 20.3896C84.3118 20.3553 84.3872 20.3549 84.4465 20.3899C84.5066 20.4245 84.544 20.4889 84.544 20.5582L84.547 23.7034C84.5455 25.4936 83.2842 27.6739 81.7366 28.563L80.4647 29.2926C67.2365 36.8826 60.2965 40.8633 59.838 41.125C59.3848 41.3853 58.9431 41.5167 58.5409 41.5167ZM57.2256 36.3463L57.2248 39.3756C57.2256 40.1418 57.4754 40.7082 57.9277 40.9694C58.3786 41.2295 58.988 41.1643 59.6437 40.7866C59.6445 40.7866 59.6445 40.7863 59.6445 40.7863C60.103 40.5251 67.0423 36.5444 80.2704 28.9542L81.5423 28.225C82.9826 27.3974 84.1555 25.3692 84.157 23.7035L84.154 20.8954L57.2256 36.3463Z" fill="#FFEECC"/>
<path d="M77.9864 28.0667C78.2963 27.53 78.4672 26.9595 78.4673 26.4615C78.4673 26.0131 78.3312 25.687 78.0838 25.5436C77.8398 25.4028 77.4965 25.445 77.1164 25.6626L60.1485 35.3964C59.7176 35.6438 59.3091 36.0764 58.9978 36.6155C58.6861 37.1556 58.5144 37.7294 58.5146 38.2308C58.5144 38.674 58.6499 38.9965 58.8958 39.1384C59.1408 39.2804 59.4858 39.238 59.8679 39.019L76.8355 29.2855C77.267 29.0379 77.6755 28.6053 77.9864 28.0667Z" fill="#FFBE2E"/>
<path d="M82.3849 25.5427C82.6948 25.006 82.8654 24.436 82.8654 23.938C82.8656 23.4897 82.7292 23.1641 82.4822 23.0209C82.2382 22.8795 81.8935 22.9222 81.512 23.1408C81.0811 23.3881 80.6726 23.8208 80.3613 24.3599C80.0496 24.8999 79.8777 25.4737 79.8779 25.9751C79.878 26.4179 80.0134 26.7402 80.2591 26.8827C80.504 27.0247 80.8493 26.9824 81.2314 26.7635C81.6642 26.5151 82.0736 26.0817 82.3849 25.5427Z" fill="#FFBE2E"/>
<path d="M81.9757 25.3028C82.1599 24.9837 82.2614 24.6449 82.2614 24.3488C82.2615 24.0823 82.1804 23.8888 82.0335 23.8036C81.8885 23.7195 81.6836 23.7449 81.4568 23.8749C81.2005 24.022 80.9578 24.2792 80.7727 24.5997C80.5875 24.9207 80.4852 25.2618 80.4854 25.5599C80.4854 25.823 80.5659 26.0148 80.7119 26.0995C80.8575 26.1839 81.0629 26.1588 81.2901 26.0286C81.5472 25.881 81.7906 25.6233 81.9757 25.3028Z" fill="white"/>
<path d="M84.2599 15.7529C85.358 15.1189 85.3494 14.0896 84.2587 13.4558C83.1533 12.8135 81.391 12.8137 80.293 13.4477C79.1664 14.0982 79.1605 15.119 80.2658 15.7612C81.3565 16.3951 83.1335 16.4034 84.2599 15.7529Z" fill="#FFBE2E"/>
<path d="M39.8855 58.8734C39.8519 58.8734 39.8185 58.865 39.788 58.8471L29.0124 52.626C28.9195 52.5724 28.8875 52.4531 28.9409 52.3599C28.995 52.2659 29.116 52.2346 29.2075 52.2887L39.9831 58.5097C40.076 58.5634 40.108 58.6827 40.0547 58.7759C40.0181 58.8384 39.9525 58.8734 39.8855 58.8734Z" fill="#C4C4C4"/>
<path d="M40.1816 162.481C40.1481 162.481 40.1146 162.472 40.0841 162.455L29.3093 156.234C29.2164 156.18 29.1844 156.061 29.2377 155.968C29.2918 155.874 29.4128 155.842 29.5043 155.897L40.2792 162.117C40.3721 162.171 40.4041 162.29 40.3507 162.383C40.3142 162.446 40.2486 162.481 40.1816 162.481Z" fill="#C4C4C4"/>
<path d="M72.3877 144.817C72.3958 147.424 74.2424 148.478 76.5107 147.166C78.781 145.856 80.6155 142.679 80.6074 140.072C80.5994 137.463 78.7548 136.411 76.4845 137.723C74.2141 139.033 72.3817 142.209 72.3877 144.817Z" fill="#FFEECC"/>
<path d="M49.3291 146.174C48.8675 146.174 48.4394 146.066 48.0609 145.848C47.1523 145.325 46.6504 144.242 46.6458 142.797L46.4151 61.2896C46.4066 58.3843 48.457 54.8328 50.9856 53.3731L94.488 28.2567C95.7547 27.5266 96.955 27.4136 97.8681 27.9394C98.7768 28.4619 99.2786 29.5457 99.2824 30.9909L99.514 112.498C99.5216 115.403 97.4713 118.955 94.9434 120.414L51.4411 145.53C50.7 145.958 49.981 146.174 49.3291 146.174ZM51.1806 53.7106C48.7594 55.1082 46.7966 58.5078 46.805 61.2885L47.0358 142.796C47.0396 144.096 47.4729 145.06 48.2551 145.51C49.0441 145.963 50.1052 145.852 51.246 145.193L94.7484 120.077C97.1689 118.68 99.1317 115.28 99.124 112.499L98.8925 30.9919C98.8887 29.6918 98.4561 28.7279 97.6739 28.2773C96.884 27.823 95.8231 27.9365 94.6829 28.5941L51.1806 53.7106Z" fill="#373B42"/>
<path d="M99.0128 30.0981L76.4678 72.9598L76.53 94.9142L99.2302 81.8083L99.0861 30.9912C99.0852 30.6721 99.0591 30.3735 99.0128 30.0981Z" fill="white"/>
<path d="M46.71 95.7633L46.8433 142.793C46.8514 145.647 48.8619 146.792 51.3405 145.361L68.0842 135.694L67.9363 83.5083L46.71 95.7633Z" fill="white"/>
<path d="M76.529 95.1088C76.4956 95.1088 76.462 95.1 76.4316 95.0829C76.3715 95.0483 76.3341 94.9839 76.3341 94.9142L76.2725 72.9601C76.2725 72.9284 76.2801 72.8972 76.2946 72.869L98.8397 30.0073C98.8786 29.9334 98.9539 29.8896 99.0438 29.9056C99.1261 29.919 99.1916 29.9833 99.2053 30.066C99.2548 30.3641 99.28 30.6753 99.2808 30.9906L99.4248 81.8076C99.4248 81.8773 99.3875 81.942 99.3273 81.9767L76.6268 95.0826C76.5961 95.1 76.5626 95.1088 76.529 95.1088ZM76.6624 73.0076L76.7233 94.5767L99.0347 81.6955L98.8907 30.9911C98.8907 30.9135 98.8884 30.8357 98.8854 30.7584L76.6624 73.0076Z" fill="#373B42"/>
<path d="M76.5576 104.74L76.6313 130.76L94.844 120.245C97.3225 118.814 99.3251 115.352 99.317 112.498L99.2578 91.6338L76.5576 104.74Z" fill="white"/>
<path d="M51.0802 53.5412C48.6016 54.9722 46.6043 58.4378 46.6123 61.2857L46.6822 85.9373L68.0347 73.6095L71.5818 67.4598L90.928 30.5352L51.0802 53.5412Z" fill="#FFBE2E"/>
<path d="M51.0802 53.5412C48.6016 54.9722 46.6043 58.4378 46.6123 61.2857L46.6822 85.9373L68.0347 73.6095L71.5818 67.4598L90.928 30.5352L51.0802 53.5412Z" fill="white"/>
<path d="M76.6312 130.955C76.5978 130.955 76.5642 130.947 76.5338 130.93C76.4736 130.895 76.4363 130.831 76.4363 130.761L76.3623 104.74C76.3623 104.671 76.3997 104.606 76.4598 104.571L99.1603 91.4651C99.2212 91.4301 99.2944 91.4305 99.3553 91.4648C99.4154 91.4994 99.4528 91.5638 99.4528 91.6335L99.5114 112.497C99.5198 115.403 97.4695 118.954 94.9408 120.414L76.7286 130.929C76.6983 130.947 76.6647 130.955 76.6312 130.955ZM76.7524 104.852L76.8255 130.423L94.746 120.077C97.1673 118.679 99.1301 115.28 99.1217 112.498L99.0637 91.9709L76.7524 104.852Z" fill="#373B42"/>
<path d="M68.0842 135.889C68.0506 135.889 68.0172 135.88 67.9867 135.863C67.9266 135.829 67.8892 135.764 67.8892 135.695L67.7422 83.8451L46.8079 95.9319C46.747 95.967 46.6739 95.9665 46.6129 95.9323C46.5527 95.8976 46.5155 95.8333 46.5155 95.7636L46.4873 85.9377C46.4873 85.868 46.5246 85.8033 46.5848 85.7686L67.8923 73.4666L71.4126 67.3621L90.7551 30.4445C90.7726 30.4118 90.7984 30.3848 90.8305 30.3664L94.4856 28.2563C95.6601 27.5769 96.798 27.4314 97.686 27.845C98.4743 28.211 99.0127 28.999 99.2039 30.0633C99.2115 30.106 99.2047 30.1498 99.1849 30.1883L76.6618 73.0074L76.7227 94.5764L99.1316 81.6389C99.1925 81.6039 99.2656 81.6043 99.3265 81.6386C99.3866 81.6732 99.424 81.7376 99.424 81.8073L99.4522 91.6331C99.4522 91.7028 99.4149 91.7675 99.3547 91.8023L76.7517 104.852L76.8255 130.76C76.8255 130.83 76.7882 130.894 76.728 130.929L68.1817 135.863C68.1512 135.88 68.1177 135.889 68.0842 135.889ZM67.9364 83.3131C67.9699 83.3131 68.0034 83.3218 68.0339 83.3389C68.0941 83.3735 68.1314 83.4379 68.1314 83.5076L68.2784 135.357L76.4354 130.648L76.3615 104.74C76.3615 104.67 76.3988 104.606 76.459 104.571L99.062 91.5211L99.0345 82.1446L76.6257 95.0821C76.5648 95.1172 76.4916 95.1167 76.4307 95.0825C76.3706 95.0478 76.3332 94.9835 76.3332 94.9138L76.2718 72.9598C76.2718 72.9282 76.2794 72.8969 76.294 72.8688L98.8079 30.0668C98.629 29.152 98.1856 28.507 97.5223 28.1989C96.7515 27.8409 95.7415 27.9814 94.6806 28.5938L91.0743 30.6757L71.7547 67.5503L68.2039 73.707C68.1864 73.7367 68.1621 73.7611 68.1324 73.7781L46.8773 86.0496L46.9047 95.4261L67.839 83.3394C67.8694 83.3218 67.9029 83.3131 67.9364 83.3131Z" fill="#373B42"/>
<path d="M76.5572 100.191C76.4902 100.191 76.4247 100.156 76.3881 100.094C76.3348 100.001 76.3667 99.8814 76.4597 99.8278L82.9504 96.0805C83.0418 96.0268 83.1614 96.0576 83.217 96.1517C83.2703 96.245 83.2384 96.3642 83.1455 96.4178L76.6548 100.165C76.6242 100.183 76.5907 100.191 76.5572 100.191ZM91.1524 91.7647C91.0853 91.7647 91.0198 91.7297 90.9832 91.6672C90.9299 91.5739 90.9619 91.4547 91.0549 91.4011L99.1601 86.7216C99.2508 86.6679 99.3718 86.6988 99.4267 86.7928C99.48 86.8861 99.4481 87.0053 99.3552 87.0589L91.2499 91.7384C91.2194 91.7563 91.1859 91.7647 91.1524 91.7647Z" fill="#373B42"/>
<path d="M76.5572 100.191C76.4902 100.191 76.4247 100.156 76.3881 100.094C76.3348 100.001 76.3667 99.8814 76.4597 99.8278L82.9504 96.0805C83.0418 96.0268 83.1614 96.0576 83.217 96.1517C83.2703 96.245 83.2384 96.3642 83.1455 96.4178L76.6548 100.165C76.6242 100.183 76.5907 100.191 76.5572 100.191ZM91.1524 91.7647C91.0853 91.7647 91.0198 91.7297 90.9832 91.6672C90.9299 91.5739 90.9619 91.4547 91.0549 91.4011L99.1601 86.7216C99.2508 86.6679 99.3718 86.6988 99.4267 86.7928C99.48 86.8861 99.4481 87.0053 99.3552 87.0589L91.2499 91.7384C91.2194 91.7563 91.1859 91.7647 91.1524 91.7647Z" fill="#373B42"/>
<path d="M76.5572 100.191C76.4902 100.191 76.4247 100.156 76.3881 100.094C76.3348 100.001 76.3667 99.8814 76.4597 99.8278L84.565 95.1483C84.6557 95.0946 84.7759 95.1254 84.8316 95.2195C84.8849 95.3128 84.853 95.432 84.76 95.4856L76.6547 100.165C76.6242 100.183 76.5907 100.191 76.5572 100.191ZM92.7671 90.8324C92.7 90.8324 92.6345 90.7974 92.5979 90.7349C92.5446 90.6416 92.5766 90.5224 92.6696 90.4688L99.1602 86.7216C99.2509 86.6679 99.3719 86.6988 99.4269 86.7928C99.4802 86.8861 99.4482 87.0053 99.3553 87.0589L92.8647 90.8062C92.8341 90.8241 92.8006 90.8324 92.7671 90.8324Z" fill="#373B42"/>
<path d="M72.0046 75.1799C71.9741 75.1799 71.9428 75.1727 71.9139 75.1574C71.8187 75.1071 71.7821 74.9895 71.8316 74.8939L95.6769 29.6033C95.7272 29.5085 95.8461 29.4719 95.9404 29.5219C96.0356 29.5722 96.0722 29.6899 96.0227 29.7854L72.1774 75.076C72.1423 75.1423 72.0746 75.1799 72.0046 75.1799Z" fill="#373B42"/>
<path d="M72.0046 126.944C71.8971 126.944 71.8096 126.857 71.8096 126.749V117.39C71.8096 117.283 71.8971 117.195 72.0046 117.195C72.112 117.195 72.1995 117.283 72.1995 117.39V126.749C72.1994 126.857 72.1118 126.944 72.0046 126.944ZM72.0046 108.226C71.8971 108.226 71.8096 108.139 71.8096 108.031V98.6725C71.8096 98.5647 71.8971 98.4775 72.0046 98.4775C72.112 98.4775 72.1995 98.5647 72.1995 98.6725V108.031C72.1994 108.139 72.1118 108.226 72.0046 108.226ZM72.0046 89.5081C71.8971 89.5081 71.8096 89.4209 71.8096 89.3131V79.9546C71.8096 79.8469 71.8971 79.7596 72.0046 79.7596C72.112 79.7596 72.1995 79.8469 72.1995 79.9546V89.3133C72.1994 89.4209 72.1118 89.5081 72.0046 89.5081ZM74.0495 71.2959C74.019 71.2959 73.9877 71.2887 73.9588 71.2734C73.8636 71.2231 73.827 71.1054 73.8765 71.0099L78.2369 62.7287C78.2879 62.6339 78.4052 62.5973 78.5004 62.6473C78.5956 62.6976 78.6322 62.8153 78.5827 62.9108L74.2223 71.1921C74.1873 71.2582 74.1196 71.2959 74.0495 71.2959ZM82.7694 54.7331C82.739 54.7331 82.7077 54.7258 82.6787 54.7106C82.5836 54.6603 82.547 54.5426 82.5965 54.4471L86.9569 46.1657C87.0072 46.0709 87.1252 46.0348 87.2204 46.0843C87.3155 46.1346 87.3521 46.2523 87.3026 46.3478L82.9423 54.629C82.9073 54.6953 82.8396 54.7331 82.7694 54.7331ZM91.4894 38.1705C91.4589 38.1705 91.4277 38.1633 91.3987 38.148C91.3035 38.0977 91.2669 37.9801 91.3164 37.8845L95.6768 29.6033C95.7271 29.5085 95.8459 29.4719 95.9403 29.5219C96.0355 29.5722 96.0721 29.6899 96.0226 29.7854L91.6622 38.0666C91.6272 38.1328 91.5595 38.1705 91.4894 38.1705Z" fill="#373B42"/>
<path d="M49.3278 146.175C48.867 146.175 48.4405 146.067 48.0627 145.849C47.1555 145.327 46.6537 144.242 46.6498 142.793L46.5166 95.7639C46.5166 95.6942 46.5539 95.6295 46.6141 95.5947L67.8401 83.3397C67.901 83.3046 67.9741 83.305 68.035 83.3393C68.0953 83.3739 68.1325 83.4383 68.1325 83.508L68.2803 135.694C68.2803 135.764 68.2429 135.829 68.1828 135.863L51.4391 145.53C50.6979 145.958 49.9789 146.175 49.3278 146.175ZM46.9065 95.8758L47.0398 142.793C47.0436 144.096 47.4754 145.061 48.2576 145.511C49.0436 145.964 50.1046 145.85 51.244 145.193L67.8903 135.582L67.7433 83.8453L46.9065 95.8758Z" fill="#373B42"/>
<path d="M46.7115 91.215C46.6445 91.215 46.579 91.1799 46.5424 91.1175C46.4891 91.0242 46.521 90.905 46.614 90.8513L51.6302 87.9552C51.7208 87.9011 51.8419 87.9327 51.8968 88.0264C51.9501 88.1197 51.9181 88.2389 51.8251 88.2926L46.809 91.1887C46.7785 91.2067 46.745 91.215 46.7115 91.215ZM59.8322 83.6394C59.7652 83.6394 59.6997 83.6043 59.6631 83.5419C59.6098 83.4486 59.6418 83.3294 59.7347 83.2757L67.84 78.5962C67.9307 78.5421 68.051 78.5737 68.1066 78.6674C68.1599 78.7608 68.128 78.8799 68.035 78.9336L59.9297 83.6131C59.8993 83.6311 59.8657 83.6394 59.8322 83.6394Z" fill="#373B42"/>
<path d="M46.682 86.1326C46.6486 86.1326 46.615 86.1238 46.5845 86.1067C46.5244 86.0721 46.487 86.0077 46.487 85.9381L46.417 61.2865C46.4094 58.381 48.4574 54.8306 50.983 53.3728L90.8302 30.3668C90.9057 30.3229 90.9994 30.3345 91.0626 30.3949C91.125 30.4547 91.1411 30.5492 91.1007 30.6261L71.7544 67.5506L68.2037 73.7073C68.1861 73.7371 68.1618 73.7614 68.1322 73.7785L46.7795 86.1064C46.749 86.1239 46.7155 86.1326 46.682 86.1326ZM51.178 53.7102C48.7605 55.106 46.7993 58.5044 46.807 61.2858L46.8763 85.6007L67.8921 73.4671L71.4123 67.3626L90.4433 31.0405L51.178 53.7102Z" fill="#373B42"/>
<path d="M46.682 86.1326C46.6486 86.1326 46.615 86.1238 46.5845 86.1067C46.5244 86.0721 46.487 86.0077 46.487 85.9381L46.417 61.2865C46.4094 58.381 48.4574 54.8306 50.983 53.3728L90.8302 30.3668C90.9057 30.3229 90.9994 30.3345 91.0626 30.3949C91.125 30.4547 91.1411 30.5492 91.1007 30.6261L71.7544 67.5506L68.2037 73.7073C68.1861 73.7371 68.1618 73.7614 68.1322 73.7785L46.7795 86.1064C46.749 86.1239 46.7155 86.1326 46.682 86.1326ZM51.178 53.7102C48.7605 55.106 46.7993 58.5044 46.807 61.2858L46.8763 85.6007L67.8921 73.4671L71.4123 67.3626L90.4433 31.0405L51.178 53.7102Z" fill="#373B42"/>
<path d="M189.518 155.625L173.292 146.368L191.407 137.187L190.419 149.512L189.518 155.625Z" fill="#FFBE2E"/>
<path d="M189.149 156.066L172.098 146.342L192.052 136.226L190.982 149.556L190.094 155.599C190.031 156.047 189.537 156.287 189.149 156.066ZM174.487 146.399L189.087 154.727L189.862 149.43L190.769 138.152L174.494 146.405L174.487 146.399Z" fill="#16110D"/>
<path d="M180.44 149.505V149.524C179.045 148.936 177.306 149.322 175.586 150.85C172.314 153.761 170.363 159.614 171.226 163.927C171.576 165.689 172.358 166.888 173.371 167.533L173.359 167.558L178.97 170.608L186.101 152.599L180.44 149.505Z" fill="black"/>
<path d="M179.861 169.907C179.542 170.709 178.603 171.056 177.847 170.645L172.655 167.823L172.686 167.741C171.692 166.945 171.003 165.676 170.678 164.047C169.784 159.564 171.817 153.458 175.213 150.433C176.827 148.993 178.591 148.425 180.13 148.829L180.174 148.741L180.711 149.012L186.166 151.993C186.535 152.195 186.698 152.643 186.541 153.034L179.861 169.907ZM173.993 167.255L178.685 169.806L185.397 152.858L180.217 150.048C178.96 149.517 177.446 149.953 175.958 151.279C172.83 154.064 170.953 159.69 171.779 163.813C172.086 165.335 172.736 166.459 173.668 167.053L173.993 167.255Z" fill="#16110D"/>
<path d="M180.237 171.119C181.444 171.119 182.733 170.539 183.965 169.446C187.287 166.491 189.276 160.518 188.406 156.129C187.975 153.951 186.905 152.473 185.404 151.961C185.035 151.835 184.647 151.778 184.253 151.778C183.039 151.778 181.751 152.359 180.519 153.452C177.197 156.413 175.202 162.387 176.084 166.769C176.515 168.947 177.585 170.425 179.086 170.936C179.455 171.063 179.849 171.126 180.243 171.126L180.237 171.119Z" fill="white"/>
<path d="M184.254 152.088C183.122 152.088 181.902 152.637 180.726 153.685C177.48 156.577 175.528 162.418 176.385 166.699C176.798 168.758 177.786 170.153 179.175 170.627C179.513 170.74 179.869 170.797 180.238 170.797C181.364 170.797 182.584 170.248 183.76 169.2C187.006 166.308 188.952 160.467 188.101 156.179C187.688 154.121 186.7 152.725 185.311 152.252C184.973 152.138 184.617 152.081 184.254 152.081M184.254 151.456C184.686 151.456 185.105 151.526 185.505 151.658C187.119 152.207 188.257 153.767 188.714 156.059C189.608 160.543 187.575 166.649 184.173 169.673C182.872 170.829 181.514 171.429 180.238 171.429C179.807 171.429 179.387 171.359 178.981 171.227C177.367 170.677 176.229 169.118 175.772 166.825C174.877 162.342 176.91 156.236 180.313 153.211C181.614 152.056 182.978 151.456 184.254 151.456Z" fill="black"/>
<path d="M139.577 185.991L123.351 176.734L141.466 167.553L140.478 179.879L139.577 185.991Z" fill="#FFBE2E"/>
<path d="M138.666 186.117L122.158 176.702L142.112 166.586L141.043 179.923L140.248 185.34C140.136 186.092 139.316 186.496 138.666 186.123V186.117ZM124.548 176.765L139.147 185.094L139.923 179.796L140.83 168.512L124.554 176.765H124.548Z" fill="#16110D"/>
<path d="M129.367 178.028V178.047C127.973 177.459 126.234 177.845 124.513 179.373C121.242 182.284 119.29 188.137 120.154 192.45C120.504 194.212 121.286 195.411 122.299 196.055L122.287 196.081L127.897 199.131L135.028 181.122L129.367 178.028Z" fill="black"/>
<path d="M128.722 198.6C128.44 199.308 127.608 199.617 126.945 199.251L121.591 196.334C120.596 195.538 119.94 194.187 119.614 192.558C118.72 188.074 120.753 181.968 124.156 178.944C125.763 177.516 127.508 176.942 129.047 177.333L129.085 177.239L129.648 177.523L134.708 180.288C135.302 180.617 135.565 181.337 135.315 181.974L128.734 198.6H128.722ZM122.923 195.778L127.615 198.329L134.326 181.381L129.147 178.571C127.884 178.041 126.376 178.476 124.887 179.802C121.76 182.587 119.883 188.213 120.709 192.336C121.016 193.858 121.672 194.982 122.598 195.576L122.923 195.784V195.778Z" fill="#16110D"/>
<path d="M129.173 199.641C130.38 199.641 131.668 199.061 132.901 197.968C136.222 195.013 138.211 189.039 137.342 184.651C136.904 182.472 135.841 180.995 134.339 180.483C133.97 180.357 133.582 180.294 133.182 180.294C131.975 180.294 130.686 180.875 129.454 181.974C126.133 184.929 124.143 190.902 125.019 195.291C125.451 197.469 126.52 198.947 128.022 199.458C128.391 199.585 128.778 199.648 129.179 199.648L129.173 199.641Z" fill="white"/>
<path d="M133.183 180.61C132.057 180.61 130.838 181.166 129.662 182.208C126.415 185.1 124.47 190.941 125.327 195.222C125.74 197.281 126.728 198.676 128.117 199.15C128.454 199.263 128.811 199.32 129.18 199.32C130.306 199.32 131.526 198.771 132.702 197.723C135.948 194.831 137.893 188.996 137.043 184.709C136.63 182.644 135.635 181.248 134.247 180.781C133.909 180.667 133.552 180.61 133.19 180.61M133.183 179.979C133.615 179.979 134.034 180.048 134.441 180.187C136.054 180.737 137.193 182.296 137.649 184.589C138.544 189.072 136.511 195.178 133.108 198.203C131.807 199.358 130.45 199.958 129.174 199.958C128.742 199.958 128.323 199.888 127.916 199.756C126.303 199.207 125.164 197.647 124.707 195.355C123.813 190.871 125.846 184.765 129.242 181.741C130.544 180.585 131.901 179.985 133.177 179.985L133.183 179.979Z" fill="black"/>
<path d="M157.661 130.65L198.22 94.0832L162.947 73.4728L161.952 72.8982C160.082 71.8437 159.338 71.49 157.83 72.3109L93.4833 110.229C92.6514 110.715 91.9132 111.764 91.6505 112.831L87.2719 137.059L76.5631 148.286C75.8312 149.234 77.4826 150.869 77.4826 151.867L78.571 163.921L79.6218 167.874L78.277 169.112L78.4521 170.823L83.5439 169.036L83.5939 165.519C83.9817 162.766 84.8762 157.543 88.9733 154.955C96.2856 150.339 96.6546 161.736 96.8673 163.99C96.9361 164.698 97.4678 164.957 98.1121 164.578L106.569 159.791L107.545 160.915L125.916 159.564L154.978 133.081L157.63 131.566L157.642 130.65H157.661Z" fill="#FFBE2E"/>
<path d="M157.884 133.195L196.778 97.5749L161.505 76.9645L160.511 76.3899C158.641 75.3353 157.896 74.9817 156.389 75.8026L96.3704 111.239C95.5385 111.726 94.8004 112.774 94.5376 113.841L90.159 138.069L76.7855 150.825C76.0536 151.772 77.7051 153.407 77.7051 154.405L78.7934 166.459L79.8443 170.412L78.4994 171.65L78.6746 173.361L83.7663 171.574L83.8163 168.057C84.2041 165.304 85.0987 160.082 89.1958 157.493C96.5081 152.877 96.8771 164.274 97.0898 166.529C97.1586 167.236 97.6903 167.495 98.3346 167.116L106.792 162.323L107.767 163.447L126.139 162.096L155.2 135.613L157.852 134.098L157.865 133.182L157.884 133.195Z" fill="white"/>
<path d="M77.9031 171.719L77.6091 168.859L78.9039 167.665L77.9531 164.098L76.846 151.93C76.846 151.639 76.5958 151.159 76.3956 150.774C75.9327 149.89 75.3572 148.791 76.0641 147.882L86.6791 136.743L91.0202 112.711C91.3392 111.416 92.1774 110.235 93.1657 109.654L157.506 71.7424C159.327 70.7447 160.34 71.2309 162.273 72.3233L163.274 72.9043L199.31 93.963L158.313 130.947L158.301 131.957L155.323 133.656L126.205 160.208L107.29 161.597L106.445 160.625L98.4451 165.152C97.9321 165.449 97.4067 165.493 96.9751 165.266C96.5498 165.045 96.2933 164.615 96.237 164.053L96.187 163.491C96.0243 161.446 95.599 156.009 93.1657 154.771C92.1899 154.279 90.8951 154.525 89.3313 155.51C85.7784 157.752 84.7463 162.083 84.2459 165.613L84.202 169.509L77.9031 171.713V171.719ZM78.9665 169.377L79.0228 169.932L82.9135 168.568L82.9573 165.512C83.2825 163.195 84.127 157.253 88.6433 154.399C90.6199 153.155 92.3338 152.883 93.7474 153.603C96.8312 155.169 97.2879 160.934 97.4818 163.39L97.5256 163.927C97.5381 164.066 97.5756 164.104 97.5756 164.104C97.5756 164.098 97.6631 164.091 97.8008 164.009L106.727 158.958L107.84 160.233L125.668 158.926L154.566 132.595L157.012 131.187L157.025 130.366L197.139 94.2093L161.635 73.4662C159.827 72.4433 159.352 72.2349 158.144 72.8917L93.8162 110.797C93.1344 111.195 92.5089 112.092 92.29 112.988L87.8863 137.369L77.0462 148.735C76.9023 148.924 77.2776 149.638 77.5466 150.155C77.8531 150.749 78.1471 151.305 78.1471 151.86L79.2355 163.858L80.3676 168.088L78.9727 169.37L78.9665 169.377Z" fill="#16110D"/>
<path d="M75.3983 173.412L114.055 195.917L126.04 159.407L116.601 154.02L87.3769 136.902L76.6681 148.129C75.9362 149.076 75.4858 150.263 75.4858 151.267L75.392 173.412H75.3983Z" fill="#FFBE2E"/>
<path d="M77.3338 174.763L113.995 196.093L124.116 161.446L87.4547 140.116L78.6099 149.48C77.878 150.427 77.4277 151.614 77.4277 152.618L77.3338 174.763Z" fill="white"/>
<path d="M113.639 196.428L74.7506 173.791L74.8507 151.267C74.8507 150.118 75.3448 148.798 76.1705 147.731L87.2734 136.087L116.935 153.464L126.831 159.109L113.639 196.434V196.428ZM76.0579 173.033L113.701 194.944L125.267 159.709L116.297 154.588L87.5111 137.722L77.1588 148.577C76.5583 149.36 76.158 150.408 76.158 151.261L76.0641 173.026L76.0579 173.033Z" fill="#16110D"/>
<path d="M126.123 122.903L108.24 112.478C107.301 111.928 107.42 110.975 108.502 110.343L114.958 106.58C116.04 105.949 117.685 105.879 118.623 106.429L136.507 116.854C137.445 117.403 137.326 118.357 136.244 118.988L129.789 122.751C128.706 123.383 127.061 123.452 126.123 122.903Z" fill="#FFBE2E"/>
<path d="M121.154 117.251C120.917 117.251 120.685 117.194 120.497 117.087L116.306 114.643C116.031 114.485 115.875 114.226 115.875 113.936C115.875 113.627 116.056 113.342 116.363 113.159L117.877 112.275C118.302 112.029 118.902 112.01 119.296 112.237L123.487 114.681C123.756 114.839 123.919 115.104 123.919 115.388C123.919 115.698 123.738 115.982 123.431 116.165L121.911 117.049C121.686 117.182 121.417 117.251 121.148 117.251H121.154ZM121.06 116.102C121.117 116.127 121.273 116.121 121.361 116.07L122.493 115.414L118.746 113.229C118.696 113.21 118.54 113.21 118.452 113.267L117.32 113.923L121.067 116.102H121.06Z" fill="#16110D"/>
<path d="M110.348 176.234L107.471 174.554C107.233 174.415 106.996 174.403 106.802 174.516C106.583 174.642 106.451 174.92 106.451 175.268V180.818C106.451 181.399 106.795 182.049 107.233 182.308L110.111 183.988C110.242 184.064 110.367 184.102 110.492 184.102C110.592 184.102 110.692 184.076 110.78 184.026C110.999 183.899 111.124 183.622 111.124 183.274V177.724C111.124 177.143 110.78 176.493 110.342 176.234H110.348Z" fill="#FFEECC"/>
<path d="M110.493 184.67C110.268 184.67 110.043 184.601 109.83 184.481L106.952 182.801C106.333 182.441 105.883 181.608 105.883 180.818V175.268C105.883 174.712 106.114 174.264 106.515 174.024C106.89 173.809 107.334 173.822 107.747 174.055L110.631 175.735C111.25 176.095 111.7 176.929 111.7 177.718V183.268C111.7 183.824 111.469 184.279 111.068 184.512C110.893 184.613 110.699 184.664 110.499 184.664L110.493 184.67ZM107.14 175.047C107.04 175.047 107.009 175.129 107.009 175.274V180.825C107.009 181.241 107.271 181.683 107.509 181.822L110.393 183.502C110.512 183.521 110.568 183.445 110.568 183.281V177.73C110.568 177.314 110.305 176.872 110.068 176.733L107.19 175.053C107.19 175.053 107.159 175.053 107.153 175.053L107.14 175.047Z" fill="#16110D"/>
<path d="M110.631 187.089L107.185 185.081C107.022 184.986 106.841 184.979 106.703 185.062C106.547 185.156 106.453 185.339 106.453 185.579V186.268C106.453 186.64 106.666 187.044 106.953 187.215L110.4 189.223C110.488 189.273 110.581 189.299 110.669 189.299C110.744 189.299 110.819 189.28 110.882 189.242C111.038 189.147 111.132 188.958 111.132 188.724V188.036C111.132 187.663 110.919 187.259 110.631 187.089Z" fill="#FFEECC"/>
<path d="M110.664 189.867C110.477 189.867 110.283 189.81 110.107 189.709L106.667 187.701C106.204 187.436 105.885 186.842 105.885 186.261V185.573C105.885 185.131 106.085 184.758 106.417 184.562C106.73 184.379 107.124 184.386 107.462 184.581L110.914 186.589C111.377 186.855 111.696 187.448 111.696 188.023V188.711C111.696 189.153 111.496 189.526 111.165 189.721C111.021 189.81 110.846 189.854 110.67 189.854L110.664 189.867ZM106.899 185.573L107.011 186.267C107.011 186.45 107.13 186.665 107.23 186.722L110.677 188.73L110.57 188.035C110.57 187.859 110.451 187.644 110.351 187.581L106.905 185.573H106.899Z" fill="#16110D"/>
<path d="M81.6062 159.684L78.7288 158.005C78.4911 157.866 78.2534 157.853 78.0595 157.967C77.8406 158.093 77.7092 158.371 77.7092 158.718V164.269C77.7092 164.85 78.0532 165.5 78.4911 165.759L81.3685 167.439C81.4999 167.514 81.625 167.552 81.7501 167.552C81.8501 167.552 81.9502 167.527 82.0378 167.476C82.2567 167.35 82.3818 167.072 82.3818 166.725V161.175C82.3818 160.594 82.0378 159.943 81.5999 159.684H81.6062Z" fill="#FFEECC"/>
<path d="M81.7575 168.121C81.5323 168.121 81.3071 168.057 81.0944 167.931L78.2108 166.251C77.5915 165.891 77.1474 165.052 77.1474 164.269V158.718C77.1474 158.163 77.3789 157.708 77.7792 157.474C78.1545 157.26 78.6049 157.272 79.0114 157.512L81.8888 159.192C82.5081 159.552 82.9521 160.385 82.9521 161.175V166.725C82.9521 167.281 82.7207 167.735 82.3204 167.969C82.1452 168.07 81.9514 168.121 81.7512 168.121H81.7575ZM78.3984 158.491C78.3109 158.491 78.2733 158.567 78.2733 158.718V164.269C78.2733 164.685 78.536 165.127 78.7737 165.266L81.6511 166.946C81.7762 166.971 81.8263 166.889 81.8263 166.725V161.175C81.8263 160.758 81.5635 160.316 81.3258 160.177L78.4485 158.497C78.4485 158.497 78.4172 158.491 78.3984 158.491Z" fill="#16110D"/>
<path d="M81.8931 170.538L78.4465 168.53C78.2839 168.435 78.1025 168.429 77.9648 168.511C77.8085 168.606 77.7146 168.789 77.7146 169.029V169.717C77.7146 170.089 77.9273 170.494 78.2151 170.664L81.6617 172.672C81.7492 172.723 81.843 172.748 81.9306 172.748C82.0057 172.748 82.0808 172.729 82.1433 172.691C82.2997 172.596 82.3936 172.407 82.3936 172.173V171.485C82.3936 171.112 82.1808 170.708 81.8931 170.538Z" fill="#FFEECC"/>
<path d="M81.9326 173.316C81.7449 173.316 81.5572 173.266 81.3821 173.165L77.9293 171.15C77.4664 170.885 77.1474 170.292 77.1474 169.717V169.029C77.1474 168.593 77.3476 168.214 77.6791 168.018C77.9981 167.835 78.3859 167.842 78.7237 168.037L82.1703 170.045C82.6331 170.317 82.9521 170.904 82.9521 171.479V172.167C82.9521 172.603 82.752 172.982 82.4205 173.177C82.2704 173.266 82.0953 173.31 81.9264 173.31L81.9326 173.316ZM78.167 169.023L78.2796 169.717C78.2796 169.894 78.3984 170.109 78.4985 170.172L81.9451 172.18L81.8325 171.485C81.8325 171.308 81.7137 171.094 81.6136 171.031L78.167 169.023Z" fill="#16110D"/>
<path d="M103.179 171.675L86.0149 161.673C85.7084 161.497 85.3956 161.478 85.1454 161.623C84.8576 161.787 84.695 162.147 84.695 162.602V172.547C84.695 173.317 85.1517 174.189 85.7397 174.53L102.904 184.532C103.073 184.633 103.242 184.677 103.404 184.677C103.536 184.677 103.661 184.645 103.773 184.576C104.061 184.412 104.224 184.052 104.224 183.597V173.652C104.224 172.881 103.767 172.01 103.179 171.669V171.675Z" fill="#FFBE2E"/>
<path d="M97.1731 176.431L93.2574 174.151C93.1886 174.113 93.1197 174.107 93.0572 174.138C92.9946 174.176 92.9571 174.258 92.9571 174.359V176.626C92.9571 176.803 93.0634 176.999 93.1948 177.081L97.1105 179.36C97.148 179.386 97.1856 179.392 97.2231 179.392C97.2544 179.392 97.2794 179.386 97.3107 179.367C97.3795 179.329 97.417 179.247 97.417 179.146V176.879C97.417 176.702 97.3107 176.506 97.1793 176.424L97.1731 176.431Z" fill="#FFEECC"/>
<path d="M96.1453 178.136C96.0077 178.136 95.8701 178.098 95.745 178.022L91.8292 175.743C91.5227 175.559 91.3101 175.174 91.3101 174.795V172.528C91.3101 172.225 91.4539 171.96 91.6854 171.815C91.9356 171.676 92.2171 171.682 92.4548 171.821L96.3705 174.101C96.677 174.278 96.8896 174.669 96.8896 175.048V177.315C96.8896 177.624 96.7458 177.896 96.5018 178.035L96.3705 178.11L96.1391 178.136H96.1453ZM92.4422 173.122V174.795L95.77 176.721V175.061L92.4422 173.116V173.122Z" fill="#16110D"/>
<path d="M103.398 185.251C103.135 185.251 102.872 185.176 102.616 185.024L85.4518 175.022C84.6949 174.586 84.1257 173.519 84.1257 172.547V162.608C84.1257 161.945 84.3947 161.408 84.8576 161.136C85.2829 160.884 85.8084 160.903 86.2901 161.181L103.454 171.189C104.211 171.625 104.78 172.692 104.78 173.664V183.603C104.78 184.266 104.511 184.803 104.048 185.075C103.848 185.195 103.629 185.251 103.398 185.251ZM85.5207 162.09C85.4894 162.09 85.4581 162.096 85.4268 162.115C85.3268 162.178 85.2579 162.368 85.2579 162.601V172.54C85.2579 173.109 85.6082 173.791 86.0148 174.037L103.179 184.039C103.26 184.09 103.335 184.108 103.398 184.108C103.592 184.026 103.661 183.831 103.661 183.597V173.658C103.661 173.09 103.31 172.408 102.904 172.162L85.7396 162.159C85.677 162.128 85.6019 162.09 85.5269 162.09H85.5207Z" fill="#16110D"/>
<path d="M198.489 93.6289C197.966 93.3195 197.295 93.3637 196.642 93.7489L131.819 132.172C130.837 132.747 130.003 133.934 129.686 135.222L125.371 159.255L114.819 170.387C113.998 171.455 113.507 172.781 113.507 173.93L113.414 196.296L114.185 196.75L114.514 196.574L122.641 192.28C123.213 191.951 123.58 191.333 123.587 190.733L123.922 188.182C124.302 185.517 125.956 180.358 129.792 177.921C131.807 176.639 133.548 176.424 134.953 177.283C137.328 178.723 138.398 183.029 138.28 184.885V185.214C138.28 185.757 138.56 186.249 139.026 186.527C139.486 186.805 140.052 186.805 140.518 186.527L173.424 167.098C173.841 166.858 174.108 166.422 174.139 165.936L174.257 164.142C174.257 163.997 174.257 163.871 174.27 163.745C174.282 163.587 174.288 163.416 174.288 163.202C174.232 159.293 175.457 151.905 180.413 149.032C182.365 147.902 183.945 147.618 185.114 148.192C187.191 149.215 187.719 152.751 187.974 154.45C188.024 154.759 188.061 155.012 188.092 155.189C188.198 155.694 188.478 156.073 188.882 156.256C189.317 156.451 189.84 156.401 190.343 156.104L197.195 152.088C198.383 151.394 199.31 149.758 199.31 148.369V95.2959C199.31 94.5319 199.011 93.9194 198.489 93.6163V93.6289Z" fill="#3C2C0B"/>
<path d="M107.608 126.136L95.6923 119.221C95.3483 119.019 94.9355 119 94.5727 119.171C94.2099 119.341 93.9596 119.67 93.8845 120.067L91.6327 132.494C91.4763 133.359 91.8767 134.231 92.6273 134.673L104.118 141.41C104.331 141.537 104.562 141.6 104.794 141.6C104.981 141.6 105.169 141.562 105.35 141.48C105.751 141.297 106.032 140.943 106.113 140.507L108.522 128.15C108.678 127.354 108.315 126.546 107.615 126.136H107.608Z" fill="#FFEECC"/>
<path d="M104.791 142.168C104.46 142.168 104.128 142.073 103.834 141.903L92.3499 135.165C91.3929 134.603 90.8862 133.486 91.0864 132.387L93.3383 119.96C93.4446 119.379 93.8137 118.899 94.3454 118.653C94.8771 118.407 95.4776 118.432 95.9842 118.729L107.9 125.649C108.807 126.18 109.283 127.228 109.076 128.263L106.668 140.621C106.543 141.24 106.149 141.745 105.58 141.997C105.329 142.111 105.067 142.174 104.791 142.174V142.168ZM95.0834 119.619C94.9896 119.619 94.8958 119.638 94.8083 119.682C94.6081 119.777 94.4767 119.947 94.4391 120.168L92.1873 132.595C92.0747 133.22 92.3625 133.864 92.9129 134.186L104.404 140.924C104.629 141.057 104.885 141.069 105.117 140.962C105.354 140.855 105.511 140.652 105.561 140.394L107.969 128.036C108.082 127.474 107.825 126.912 107.337 126.622L95.4213 119.707C95.3149 119.651 95.2023 119.619 95.0897 119.619H95.0834Z" fill="#16110D"/>
<path d="M125.257 136.516L113.341 129.602C112.997 129.4 112.584 129.381 112.221 129.551C111.859 129.722 111.608 130.05 111.533 130.448L109.282 142.875C109.125 143.74 109.525 144.617 110.276 145.053L121.767 151.791C121.98 151.917 122.211 151.98 122.442 151.98C122.63 151.98 122.818 151.942 122.993 151.86C123.393 151.677 123.675 151.323 123.756 150.888L126.164 138.53C126.321 137.735 125.958 136.927 125.257 136.516Z" fill="#FFEECC"/>
<path d="M122.44 152.549C122.109 152.549 121.777 152.461 121.483 152.284L109.993 145.547C109.042 144.985 108.529 143.867 108.729 142.768L110.981 130.335C111.087 129.748 111.456 129.274 111.988 129.028C112.52 128.782 113.12 128.807 113.627 129.104L125.543 136.018C126.45 136.548 126.925 137.597 126.719 138.632L124.311 150.99C124.192 151.608 123.798 152.107 123.222 152.366C122.972 152.48 122.709 152.543 122.44 152.543V152.549ZM112.732 130C112.638 130 112.545 130.019 112.457 130.063C112.257 130.158 112.126 130.329 112.082 130.543L109.83 142.977C109.717 143.602 110.005 144.246 110.555 144.568L122.04 151.305C122.265 151.438 122.522 151.451 122.753 151.343C122.991 151.236 123.147 151.034 123.197 150.781L125.605 138.424C125.718 137.868 125.462 137.3 124.974 137.016L113.057 130.101C112.957 130.038 112.845 130.007 112.732 130.007V130Z" fill="#16110D"/>
<path d="M132.186 157.14C131.873 157.14 131.585 157.045 131.342 156.855C130.766 156.413 130.572 155.555 130.829 154.557L133.912 138.203C134.225 136.971 135.051 135.816 136.02 135.247L138.21 133.877C138.766 133.555 139.336 133.517 139.773 133.77C140.211 134.029 140.468 134.54 140.468 135.172V149.531C140.468 151.242 139.317 153.25 137.853 154.102L133.206 156.824C132.855 157.026 132.511 157.127 132.186 157.127V157.14ZM135.013 138.48L131.929 154.816C131.773 155.441 131.873 155.839 132.023 155.959C132.142 156.047 132.374 156.016 132.643 155.858L137.29 153.136C138.404 152.486 139.342 150.844 139.342 149.543V135.184C139.342 134.944 139.279 134.799 139.217 134.767C139.148 134.73 138.998 134.748 138.791 134.862L136.602 136.232C135.895 136.643 135.245 137.565 135.007 138.474L135.013 138.48Z" fill="#FFBE2E"/>
<path d="M145.065 177.623C144.74 177.623 144.414 177.535 144.12 177.364C143.532 177.023 143.176 176.405 143.176 175.716V133.555C143.176 132.5 143.739 131.521 144.646 131.004L154.335 125.447C154.823 125.169 155.398 125.169 155.88 125.453C156.362 125.737 156.649 126.242 156.649 126.804V169.377C156.649 170.469 156.068 171.492 155.129 172.041L146.003 177.364C145.709 177.535 145.384 177.623 145.059 177.623H145.065ZM155.104 126.381C155.042 126.381 154.967 126.394 154.892 126.438L145.202 131.995C144.646 132.317 144.302 132.917 144.302 133.561V175.723C144.302 176.007 144.439 176.247 144.683 176.386C144.921 176.524 145.202 176.524 145.446 176.386L154.573 171.062C155.167 170.715 155.536 170.071 155.536 169.383V126.811C155.536 126.59 155.386 126.476 155.33 126.438C155.292 126.413 155.211 126.381 155.111 126.381H155.104Z" fill="#FFBE2E"/>
<path d="M146.486 158.212C146.317 158.212 146.148 158.168 146.004 158.08C145.654 157.878 145.454 157.461 145.454 156.943V155.377C145.454 154.588 145.917 153.717 146.523 153.363L150.527 151.033C150.889 150.818 151.283 150.806 151.602 150.989C151.953 151.191 152.159 151.607 152.159 152.125V153.691C152.159 154.481 151.696 155.352 151.09 155.699L147.086 158.029C146.892 158.143 146.686 158.2 146.492 158.2L146.486 158.212ZM151.021 152.062L147.08 154.354C146.849 154.493 146.573 154.967 146.573 155.384V156.95C146.573 157.063 146.598 157.12 146.605 157.133L150.52 154.727C150.752 154.588 151.027 154.114 151.027 153.698V152.132C151.027 152.132 151.027 152.081 151.027 152.062H151.021Z" fill="#FFBE2E"/>
<path d="M130.026 195.936C129.75 195.936 129.481 195.891 129.225 195.803C128.218 195.462 127.505 194.496 127.23 193.1C126.692 190.41 127.868 186.887 129.907 185.068C130.97 184.121 132.109 183.787 133.116 184.134C134.123 184.475 134.83 185.435 135.111 186.836C135.649 189.526 134.473 193.056 132.434 194.868C131.646 195.569 130.808 195.936 130.019 195.936H130.026Z" fill="black"/>
<path d="M183.496 156.615C182.983 156.615 182.407 156.88 181.826 157.398C180.093 158.945 179.048 162.065 179.505 164.35C179.705 165.342 180.149 165.999 180.756 166.207C181.369 166.409 182.113 166.163 182.864 165.493C184.597 163.946 185.641 160.827 185.185 158.541C184.985 157.55 184.54 156.893 183.927 156.685C183.79 156.641 183.64 156.615 183.49 156.615H183.496Z" fill="black"/>
<path d="M179.05 47.4607C179.016 47.4607 178.983 47.4523 178.952 47.4344L152.091 31.8247C150.757 31.0486 149.095 31.0478 147.756 31.8247L131.439 41.3075C131.345 41.3608 131.225 41.33 131.172 41.2366C131.118 41.1438 131.149 41.0241 131.242 40.97L147.559 31.4872C149.019 30.64 150.83 30.6407 152.288 31.4872L179.148 47.0969C179.241 47.151 179.272 47.2706 179.218 47.3636C179.183 47.4261 179.117 47.4607 179.05 47.4607Z" fill="#FFBE2E"/>
<path d="M196.311 52.2522C196.244 52.2522 196.179 52.2176 196.143 52.155C196.089 52.0622 196.12 51.9425 196.213 51.8884L220.568 37.7346C220.661 37.6805 220.78 37.7114 220.834 37.8054C220.888 37.8983 220.857 38.0179 220.764 38.072L196.409 52.2259C196.378 52.2438 196.345 52.2522 196.311 52.2522Z" fill="#FFBE2E"/>
<g opacity="0.1">
<path d="M174.214 50.9316C173.014 51.6248 173.007 52.7506 174.2 53.4439L211.126 74.903C212.323 75.5982 214.263 75.5963 215.463 74.903L223.555 70.2315C224.755 69.5384 224.765 68.4146 223.569 67.7192L186.643 46.2601C185.45 45.5669 183.506 45.5669 182.306 46.2601L174.214 50.9316Z" fill="black"/>
</g>
<path d="M171.72 46.1973L171.731 49.9126C171.731 50.3683 172.027 50.8185 172.62 51.1606L209.545 72.6204C210.742 73.3156 212.685 73.3156 213.882 72.6204L221.973 67.9478C222.577 67.6003 222.885 67.1444 222.879 66.6828L222.868 62.9789C222.868 63.429 222.566 63.8905 221.962 64.2325L213.876 68.905C212.674 69.6003 210.731 69.6003 209.534 68.905L172.609 47.4452C172.016 47.1033 171.72 46.6474 171.72 46.1973Z" fill="#FFBE2E"/>
<path d="M211.714 73.3334C210.893 73.3334 210.072 73.1522 209.447 72.7892L172.521 51.3294C171.886 50.9626 171.536 50.4593 171.536 49.9128L171.524 46.2043C171.524 46.202 171.524 46.2002 171.524 46.1982C171.524 46.1979 171.524 46.1979 171.524 46.1974C171.524 46.09 171.611 46.0024 171.719 46.0024C171.827 46.0024 171.914 46.0893 171.914 46.1966V46.2027C171.917 46.5965 172.205 46.9876 172.706 47.2766L209.632 68.7364C210.772 69.3994 212.632 69.3986 213.778 68.7364L221.864 64.0637C222.379 63.7724 222.673 63.3772 222.673 62.9788C222.673 62.8714 222.76 62.7838 222.868 62.7838C222.975 62.7838 223.063 62.8707 223.063 62.978L223.074 66.6818C223.08 67.2302 222.724 67.7401 222.07 68.1168L213.979 72.789C213.354 73.1522 212.534 73.3334 211.714 73.3334ZM171.917 47.1427L171.926 49.9121C171.926 50.3143 172.207 50.6973 172.717 50.992L209.644 72.4519C210.786 73.1161 212.644 73.1152 213.783 72.4519L221.875 67.7792C222.402 67.4761 222.689 67.0877 222.684 66.6851L222.676 63.9147C222.515 64.0959 222.307 64.2612 222.057 64.4024L213.973 69.074C212.72 69.7994 210.685 69.7987 209.435 69.074L172.51 47.6141C172.272 47.4767 172.073 47.3172 171.917 47.1427Z" fill="#373B42"/>
<path d="M172.624 44.9335C171.424 45.6266 171.417 46.7525 172.61 47.4457L209.536 68.9049C210.733 69.6002 212.673 69.5981 213.874 68.9049L221.965 64.2333C223.165 63.5402 223.175 62.4164 221.979 61.7211L185.053 40.262C183.86 39.5689 181.916 39.5689 180.716 40.262L172.624 44.9335Z" fill="white"/>
<path d="M211.702 69.6168C210.88 69.6168 210.061 69.4359 209.437 69.0738L172.512 47.6146C171.874 47.2441 171.524 46.7396 171.524 46.1942C171.525 45.645 171.881 45.1378 172.526 44.765L180.618 40.0935C181.87 39.3699 183.903 39.3699 185.151 40.0935L222.076 61.5526C222.715 61.9239 223.066 62.4285 223.065 62.9735C223.064 63.5219 222.708 64.0295 222.062 64.4024L213.97 69.0742C213.343 69.4359 212.522 69.6168 211.702 69.6168ZM172.721 45.1025C172.202 45.4029 171.914 45.7906 171.914 46.1947C171.914 46.5952 172.195 46.9799 172.708 47.2773L209.634 68.7363C210.773 69.399 212.631 69.3978 213.775 68.7367L221.867 64.0648C222.388 63.7639 222.674 63.3763 222.675 62.9726C222.676 62.5727 222.393 62.1881 221.88 61.89L184.954 40.4309C183.816 39.7699 181.958 39.7702 180.813 40.4309L172.721 45.1025Z" fill="#373B42"/>
<path d="M191.653 51.0586C189.554 52.2705 189.546 54.2304 191.632 55.4424C193.714 56.6523 197.097 56.6544 199.197 55.4424C201.292 54.2325 201.307 52.2686 199.225 51.0586C197.139 49.8466 193.749 49.8487 191.653 51.0586Z" fill="#373B42"/>
<path d="M189.394 26.5245C189.387 29.4405 191.437 32.984 193.97 34.449C195.246 35.1815 196.397 35.2512 197.234 34.7698L201.657 32.1958C200.827 32.6841 199.669 32.6143 198.392 31.875C195.86 30.417 193.809 26.8665 193.816 23.9574C193.823 22.5066 194.332 21.495 195.155 21.0137L190.733 23.5877C189.91 24.0622 189.401 25.0807 189.394 26.5245Z" fill="#373B42"/>
<path d="M196.035 35.2729C195.368 35.2729 194.634 35.0531 193.876 34.6183C191.291 33.1228 189.195 29.4921 189.202 26.5244C189.202 26.5241 189.202 26.5241 189.202 26.5241C189.209 25.0515 189.719 23.949 190.639 23.4189L195.059 20.8465C195.06 20.8462 195.06 20.8462 195.061 20.8457V20.8454C195.153 20.7913 195.273 20.8225 195.327 20.9159C195.381 21.0087 195.35 21.128 195.257 21.1825C194.462 21.6474 194.02 22.6334 194.014 23.9586C194.007 26.8052 196.017 30.281 198.493 31.7063C199.66 32.3826 200.743 32.4988 201.546 32.0377L201.561 32.0286L201.562 32.0278C201.655 31.9736 201.773 32.0049 201.829 32.0978C201.883 32.1907 201.852 32.3099 201.759 32.3644C201.752 32.3682 201.746 32.372 201.74 32.3755L197.336 34.9391C196.947 35.162 196.509 35.2729 196.035 35.2729ZM189.592 26.5255C189.585 29.3691 191.594 32.8475 194.071 34.2805C195.241 34.9519 196.333 35.0665 197.14 34.6011L200.398 32.705C199.749 32.6924 199.035 32.4708 198.298 32.0439C195.714 30.5565 193.617 26.9288 193.624 23.9572C193.628 23.129 193.792 22.4168 194.099 21.8567L190.834 23.7566C190.039 24.2146 189.598 25.1979 189.592 26.5255Z" fill="#373B42"/>
<path d="M205.922 36.0609C205.894 46.1756 194.517 54.2466 193.917 54.6721L198.339 52.0981C198.94 51.6725 210.317 43.6087 210.345 33.4868C210.366 25.9182 205.036 16.6963 198.451 12.8944C195.131 10.9832 192.124 10.8017 189.955 12.0643L185.532 14.6315C187.702 13.3758 190.708 13.5503 194.029 15.4685C200.614 19.2703 205.943 28.4921 205.922 36.0609Z" fill="white"/>
<path d="M193.917 54.867C193.853 54.867 193.79 54.8351 193.753 54.7775C193.697 54.6899 193.719 54.5731 193.805 54.5125C195.022 53.6488 205.699 45.791 205.727 36.0603C205.748 28.5662 200.456 19.4045 193.93 15.6371C190.784 13.8203 187.835 13.522 185.63 14.8001C185.629 14.8001 185.629 14.8001 185.629 14.8001C185.538 14.8537 185.417 14.8229 185.363 14.7293C185.309 14.6359 185.341 14.5167 185.433 14.4626L189.856 11.8952C192.181 10.543 195.267 10.8373 198.548 12.7251C205.18 16.555 210.56 25.8686 210.539 33.4869C210.512 43.4229 199.686 51.382 198.451 52.257L194.015 54.8405C193.984 54.8583 193.95 54.867 193.917 54.867ZM206.117 36.0611C206.095 43.6493 199.765 50.0932 196.232 53.0989L198.24 51.9294C199.444 51.0755 210.122 43.2265 210.149 33.486C210.17 25.9918 204.878 16.8301 198.353 13.0627C195.199 11.2474 192.249 10.9538 190.052 12.2326L187.476 13.728C189.446 13.3895 191.737 13.9191 194.125 15.2996C200.758 19.1292 206.138 28.4429 206.117 36.0611Z" fill="white"/>
<path d="M195.427 11.5971C193.318 11.0102 191.438 11.1983 189.953 12.0647L185.528 14.6321C187.018 13.7702 188.898 13.5822 191.007 14.169" fill="white"/>
<path d="M185.528 14.8274C185.461 14.8274 185.396 14.7928 185.359 14.7302C185.306 14.6369 185.337 14.5177 185.431 14.4636L189.855 11.8965C191.411 10.9879 193.356 10.8189 195.479 11.4098C195.582 11.4387 195.643 11.5462 195.614 11.6496C195.585 11.7536 195.475 11.8138 195.374 11.7852C193.355 11.2238 191.514 11.3785 190.051 12.2334L187.461 13.7361C188.567 13.5453 189.782 13.6264 191.06 13.9817C191.163 14.0107 191.224 14.1181 191.195 14.2217C191.166 14.3256 191.056 14.3854 190.955 14.3572C188.939 13.7967 187.096 13.9501 185.626 14.8008C185.595 14.819 185.562 14.8274 185.528 14.8274Z" fill="white"/>
<path d="M205.92 36.0613C205.891 46.1791 194.514 54.2445 193.916 54.669C193.321 53.5555 182.023 32.399 182.052 22.2813C182.073 14.7122 187.435 11.6617 194.027 15.4673C200.614 19.2704 205.941 28.4922 205.92 36.0613ZM193.973 34.449C196.503 35.9095 198.567 34.7383 198.575 31.8263C198.583 28.9142 196.532 25.3671 194.003 23.9065C191.468 22.4434 189.404 23.6146 189.396 26.5267C189.388 29.4387 191.439 32.9858 193.973 34.449Z" fill="#FFBE2E"/>
<path d="M193.915 54.8635C193.901 54.8635 193.886 54.862 193.871 54.8585C193.816 54.8456 193.77 54.8102 193.743 54.7607C192.524 52.4776 181.829 32.1702 181.856 22.2808C181.867 18.5621 183.144 15.7821 185.455 14.4534C187.781 13.1141 190.861 13.4138 194.124 15.2985C200.757 19.1276 206.136 28.4421 206.115 36.0614C206.086 45.9893 195.263 53.9522 194.029 54.8274C193.995 54.8509 193.956 54.8635 193.915 54.8635ZM188.669 14.0193C187.564 14.0193 186.545 14.2752 185.649 14.7912C183.465 16.048 182.256 18.7079 182.246 22.2816C182.22 31.8385 192.362 51.3288 193.982 54.3803C195.82 53.0444 205.698 45.422 205.725 36.0607C205.746 28.5654 200.454 19.403 193.929 15.636C192.069 14.5619 190.278 14.0193 188.669 14.0193ZM196.03 35.2742C195.364 35.2742 194.631 35.0541 193.875 34.6173C191.289 33.1246 189.193 29.4946 189.201 26.5261C189.206 25.0516 189.718 23.9457 190.645 23.4126C191.579 22.8752 192.807 22.9906 194.101 23.7374C196.684 25.229 198.779 28.8583 198.77 31.8264C198.765 33.3013 198.253 34.4076 197.326 34.9412C196.938 35.1638 196.501 35.2742 196.03 35.2742ZM194.07 34.2799C195.235 34.952 196.323 35.0682 197.131 34.6028C197.933 34.1417 198.376 33.1553 198.38 31.8255C198.389 28.9815 196.381 25.5047 193.906 24.0748C192.736 23.3996 191.647 23.2861 190.839 23.7503C190.038 24.2115 189.595 25.1974 189.591 26.5268C189.583 29.3708 191.593 32.8488 194.07 34.2799Z" fill="#373B42"/>
<path d="M217.88 39.0078C216.369 38.1352 216.36 36.7193 217.862 35.8467C219.364 34.974 221.808 34.9744 223.319 35.8471C224.831 36.7199 224.838 38.1349 223.336 39.0076C221.835 39.8801 219.392 39.8805 217.88 39.0078Z" fill="#FFBE2E"/>
<path d="M220.613 39.8528C219.59 39.8528 218.566 39.6274 217.785 39.176C216.988 38.7164 216.549 38.093 216.548 37.4208C216.547 36.7536 216.98 36.1345 217.766 35.6775C219.32 34.7749 221.854 34.7746 223.419 35.6778C224.214 36.1371 224.653 36.7601 224.655 37.4315C224.656 38.0991 224.223 38.7184 223.436 39.1757C222.659 39.6269 221.636 39.8528 220.613 39.8528ZM220.588 35.3847C219.635 35.3847 218.684 35.5949 217.962 36.0149C217.301 36.3988 216.937 36.8981 216.938 37.4205C216.939 37.9475 217.309 38.4509 217.98 38.8386C219.434 39.6779 221.794 39.6791 223.24 38.8382C223.902 38.4539 224.265 37.9544 224.265 37.4319C224.264 36.9056 223.894 36.4026 223.224 36.0153C222.495 35.5949 221.541 35.3847 220.588 35.3847Z" fill="#FFBE2E"/>
<path d="M220.592 36.4297C221.181 36.4297 221.752 36.5639 222.157 36.7977C222.482 36.9855 222.669 37.2163 222.669 37.4306C222.669 37.6424 222.486 37.8705 222.167 38.0562C221.765 38.2896 221.197 38.4235 220.608 38.4235C220.02 38.4235 219.45 38.2894 219.045 38.0557C218.719 37.8678 218.533 37.6368 218.532 37.4221C218.532 37.2103 218.715 36.9823 219.034 36.7968C219.436 36.5635 220.004 36.4297 220.592 36.4297Z" fill="white"/>
<path d="M49.8381 185.321C49.2532 185.321 48.6871 185.454 48.285 185.686C47.9621 185.873 47.7767 186.102 47.7764 186.314C47.7761 186.525 47.9578 186.751 48.2749 186.935C48.6737 187.167 49.2374 187.3 49.8216 187.3C50.406 187.3 50.9716 187.167 51.3735 186.935C51.6966 186.748 51.8821 186.519 51.8825 186.306C51.8828 186.096 51.7012 185.869 51.3843 185.685C50.9861 185.454 50.4224 185.321 49.8381 185.321Z" fill="#373B42"/>
<path d="M212.744 41.3813C212.159 41.3813 211.593 41.5145 211.191 41.7467C210.868 41.9332 210.683 42.1622 210.683 42.375C210.682 42.5853 210.864 42.8116 211.181 42.9959C211.58 43.2277 212.144 43.3606 212.728 43.3606C213.312 43.3606 213.878 43.2275 214.28 42.9956C214.603 42.809 214.788 42.5797 214.789 42.3666C214.789 42.1563 214.608 41.93 214.291 41.7459C213.892 41.5141 213.329 41.3813 212.744 41.3813Z" fill="#373B42"/>
<path d="M174.257 192.21C173.225 192.21 172.193 191.982 171.406 191.527L151.929 180.283C151.837 180.229 151.804 180.11 151.858 180.017C151.912 179.923 152.033 179.891 152.124 179.945L171.601 191.19C173.069 192.037 175.449 192.037 176.903 191.19L205.964 174.414C206.055 174.36 206.176 174.391 206.231 174.485C206.284 174.578 206.252 174.697 206.159 174.751L177.099 191.527C176.317 191.982 175.287 192.21 174.257 192.21Z" fill="#FFBE2E"/>
<path d="M205.16 172.136C203.763 172.942 203.755 174.251 205.143 175.057C206.531 175.864 208.79 175.863 210.187 175.057C211.584 174.25 211.591 172.942 210.203 172.136C208.815 171.329 206.557 171.329 205.16 172.136Z" fill="#FFBE2E"/>
<path d="M207.661 175.854C206.712 175.854 205.764 175.645 205.045 175.226C204.313 174.801 203.911 174.224 203.912 173.602C203.913 172.975 204.321 172.395 205.062 171.967C206.512 171.13 208.861 171.131 210.301 171.967C211.033 172.393 211.436 172.97 211.435 173.592C211.433 174.218 211.025 174.799 210.285 175.226C209.56 175.645 208.61 175.854 207.661 175.854ZM205.257 172.304C204.642 172.66 204.303 173.121 204.302 173.603C204.301 174.08 204.635 174.537 205.241 174.889C206.573 175.663 208.748 175.663 210.09 174.889C210.704 174.533 211.044 174.073 211.045 173.592C211.045 173.114 210.711 172.657 210.105 172.305C208.773 171.531 206.597 171.531 205.257 172.304Z" fill="#FFBE2E"/>
<path d="M207.662 174.518C208.206 174.518 208.733 174.394 209.108 174.177C209.408 174.004 209.581 173.791 209.581 173.592C209.581 173.397 209.412 173.186 209.117 173.014C208.746 172.799 208.221 172.675 207.677 172.675C207.133 172.675 206.606 172.799 206.232 173.015C205.931 173.189 205.758 173.402 205.758 173.601C205.758 173.796 205.927 174.007 206.222 174.178C206.593 174.394 207.118 174.518 207.662 174.518Z" fill="white"/>
<path d="M195.365 181.518C195.95 181.518 196.516 181.385 196.918 181.152C197.241 180.966 197.426 180.737 197.426 180.524C197.427 180.314 197.245 180.088 196.928 179.903C196.529 179.671 195.965 179.539 195.381 179.539C194.797 179.539 194.231 179.672 193.829 179.904C193.506 180.09 193.321 180.32 193.32 180.533C193.32 180.743 193.502 180.969 193.818 181.153C194.217 181.385 194.781 181.518 195.365 181.518Z" fill="#373B42"/>
<path d="M127.697 40.7918C126.3 41.5984 126.292 42.907 127.68 43.7136C129.068 44.5201 131.327 44.5198 132.724 43.7132C134.122 42.9067 134.128 41.5987 132.74 40.7922C131.352 39.9855 129.094 39.9852 127.697 40.7918Z" fill="#FFBE2E"/>
<path d="M130.198 44.5103C129.249 44.5103 128.302 44.3009 127.582 43.8827C126.851 43.4577 126.449 42.8807 126.449 42.2581C126.45 41.6316 126.858 41.0509 127.599 40.6232C129.048 39.7862 131.397 39.7865 132.838 40.6235C133.57 41.0489 133.972 41.6262 133.971 42.2489C133.97 42.875 133.561 43.4549 132.821 43.8821C132.097 44.3009 131.146 44.5103 130.198 44.5103ZM130.221 40.3803C129.343 40.3803 128.464 40.5738 127.794 40.9608C127.179 41.3164 126.839 41.7772 126.839 42.259C126.838 42.7365 127.172 43.1935 127.778 43.5454C129.11 44.3192 131.284 44.3196 132.626 43.545C133.241 43.1897 133.58 42.7294 133.581 42.2484C133.582 41.7709 133.248 41.3134 132.641 40.9612C131.976 40.5738 131.099 40.3803 130.221 40.3803Z" fill="#FFBE2E"/>
<path d="M130.203 43.174C130.747 43.174 131.274 43.0499 131.649 42.8337C131.949 42.6601 132.122 42.4469 132.122 42.2487C132.123 42.0529 131.953 41.8421 131.658 41.6706C131.287 41.4548 130.762 41.3311 130.218 41.3311C129.674 41.3311 129.147 41.455 128.773 41.6709C128.472 41.8447 128.299 42.0581 128.299 42.2567C128.299 42.4524 128.468 42.6631 128.763 42.8346C129.134 43.0503 129.659 43.174 130.203 43.174Z" fill="white"/>
</g>
<defs>
<clipPath id="clip0_5226_82832">
<rect width="249.6" height="208" fill="white"/>
</clipPath>
</defs>
</svg>
