<svg width="400" height="207" viewBox="0 0 400 207" fill="none" xmlns="http://www.w3.org/2000/svg">
<path opacity="0.21" d="M258.818 73.1626C259.287 72.8923 259.288 72.2158 258.82 71.9445L227.554 53.7766C226.906 53.4004 226.1 53.3993 225.452 53.7735L191.733 73.2417C191.264 73.5123 191.263 74.1881 191.731 74.4598L222.996 92.6283C223.644 93.0046 224.449 93.0056 225.098 92.6315L258.818 73.1626Z" fill="black"/>
<path d="M223.946 53.663L192.699 35.5049L192.807 73.459L224.053 91.6181L223.946 53.663Z" fill="#FFBE2E"/>
<path d="M216.671 75.9401C214.894 74.9142 213.449 75.7344 213.443 77.7757L216.384 79.4733L216.374 83.6196C216.372 84.3037 216.855 85.1414 217.451 85.4862C218.046 85.829 218.533 85.5528 218.535 84.868V84.7365C218.537 84.5621 218.412 84.348 218.261 84.2608C218.106 84.1712 217.985 84.2441 217.985 84.4188L217.984 84.5485C217.983 84.8868 217.742 85.0197 217.453 84.8523C217.161 84.6835 216.924 84.2758 216.925 83.9379L216.936 79.7927L219.879 81.4906C219.885 79.4492 218.447 76.965 216.671 75.9401Z" fill="black"/>
<path d="M205.749 68.8247L205.74 71.4673C205.736 72.814 206.616 74.4359 207.755 75.2502L207.746 78.4413L206.481 77.709C206.33 77.6225 206.204 77.6936 206.204 77.8673C206.204 78.0455 206.328 78.2561 206.478 78.3433L209.559 80.1221C209.711 80.2096 209.837 80.142 209.837 79.9648C209.837 79.7926 209.714 79.576 209.563 79.4888L208.297 78.76L208.306 75.5679C209.447 76.07 210.333 75.4692 210.336 74.1203L210.343 71.4798L205.749 68.8247Z" fill="black"/>
<path d="M196.577 63.5728L195.047 64.2161L195.845 64.6761L195.825 71.6529L195.303 71.3523C195.151 71.2665 195.026 71.3317 195.025 71.5089C195.025 71.6836 195.149 71.8991 195.302 71.9863L201.658 75.6572C201.809 75.7437 201.934 75.6722 201.935 75.4992C201.937 75.3221 201.811 75.1111 201.66 75.0232L201.152 74.73L201.173 67.7542L201.957 68.2062L200.435 65.7986L198.909 66.4455L199.707 66.9068L199.685 73.8826L197.296 72.5034L197.317 65.5266L198.095 65.9768L196.577 63.5728Z" fill="black"/>
<path d="M257.496 34.2921L226.248 16.1348L192.699 35.5046L223.946 53.6627L257.496 34.2921Z" fill="#FFF7E4"/>
<path d="M223.945 53.6626L224.052 91.6177L257.601 72.2489L257.495 34.292L223.945 53.6626Z" fill="#212121"/>
<path d="M228.76 76.4921L228.781 83.6799L229.626 83.192L229.607 76.0039L228.76 76.4921Z" fill="#2B3C4D"/>
<path d="M231.846 74.7143L231.867 81.9017L232.139 81.7434L232.118 74.5566L231.846 74.7143Z" fill="#2B3C4D"/>
<path d="M232.752 74.1884L232.774 81.3759L233.317 81.0637L233.296 73.876L232.752 74.1884Z" fill="#2B3C4D"/>
<path d="M234.299 73.2975L234.32 80.4832L235.093 80.0375L235.072 72.8501L234.299 73.2975Z" fill="#2B3C4D"/>
<path d="M236.475 72.0415L236.496 79.2275L237.051 78.9074L237.031 71.7217L236.475 72.0415Z" fill="#2B3C4D"/>
<path d="M237.654 71.3603L237.673 78.5481L237.958 78.3842L237.937 71.1968L237.654 71.3603Z" fill="#2B3C4D"/>
<path d="M238.381 70.9405L238.401 78.1265L238.961 77.8033L238.94 70.6162L238.381 70.9405Z" fill="#2B3C4D"/>
<path d="M228.061 76.898L228.079 84.0847L228.434 83.88L228.414 76.6943L228.061 76.898Z" fill="#2B3C4D"/>
<path d="M227.334 77.3174L227.353 84.5058L227.709 84.2994L227.69 77.1123L227.334 77.3174Z" fill="#2B3C4D"/>
<path d="M240.1 69.9489L240.121 77.1349L240.31 77.0251L240.291 69.8384L240.1 69.9489Z" fill="#2B3C4D"/>
<path d="M241.25 77.8899L226.384 86.4732L226.357 77.0979L241.225 68.5132L241.25 77.8899ZM230.414 82.7381L231.41 82.1627L231.39 74.976L230.393 75.55L230.414 82.7381ZM228.782 83.68L229.628 83.1925L229.608 76.0043L228.761 76.4925L228.782 83.68ZM234.319 80.4829L235.092 80.0376L235.071 72.8502L234.297 73.2976L234.319 80.4829ZM238.4 78.1266L238.961 77.8034L238.939 70.6163L238.381 70.941L238.4 78.1266ZM236.493 79.2272L237.048 78.9071L237.028 71.7214L236.471 72.0412L236.493 79.2272ZM232.771 81.376L233.314 81.0635L233.293 73.8761L232.749 74.1886L232.771 81.376ZM227.353 84.5054L227.709 84.2989L227.69 77.1119L227.334 77.3169L227.353 84.5054ZM228.079 84.0848L228.434 83.8801L228.414 76.6948L228.06 76.8984L228.079 84.0848ZM237.671 78.5479L237.955 78.384L237.934 71.1966L237.651 71.3601L237.671 78.5479ZM231.864 81.9015L232.136 81.7432L232.115 74.5565L231.843 74.7141L231.864 81.9015ZM240.117 77.1349L240.307 77.025L240.288 69.8387L240.096 69.9489L240.117 77.1349ZM239.414 77.5415L239.583 77.4425L239.563 70.2561L239.393 70.3548L239.414 77.5415Z" fill="#E4E8E9"/>
<path d="M239.396 70.355L239.417 77.5418L239.586 77.4427L239.566 70.2563L239.396 70.355Z" fill="#2B3C4D"/>
<path d="M230.396 75.5496L230.418 82.738L231.414 82.1623L231.393 74.9756L230.396 75.5496Z" fill="#2B3C4D"/>
<path d="M241.159 43.7133L209.912 25.5549L210.132 25.4346L241.377 43.5923L241.159 43.7133Z" fill="#6F6F6F"/>
<path opacity="0.21" d="M323.846 80.0952C324.314 79.8249 324.315 79.1484 323.847 78.8771L292.582 60.7093C291.933 60.333 291.128 60.3319 290.479 60.7061L256.76 80.1743C256.292 80.4449 256.291 81.1208 256.759 81.3924L288.023 99.5609C288.671 99.9372 289.477 99.9383 290.126 99.5641L323.846 80.0952Z" fill="black"/>
<path d="M288.956 60.5951L257.709 42.437L257.816 80.3911L289.063 98.5502L288.956 60.5951Z" fill="#FFBE2E"/>
<path d="M281.686 82.8727C279.91 81.8468 278.464 82.667 278.459 84.7084L281.4 86.4059L281.389 90.5522C281.387 91.2364 281.871 92.074 282.467 92.4189C283.062 92.7617 283.549 92.4855 283.551 91.8006V91.6691C283.553 91.4948 283.427 91.2806 283.277 91.1935C283.122 91.1038 283 91.1767 283 91.3514L282.999 91.4812C282.998 91.8194 282.758 91.9523 282.469 91.7849C282.177 91.6161 281.94 91.2085 281.941 90.8706L281.952 86.7253L284.895 88.4233C284.9 86.3819 283.463 83.8976 281.686 82.8727Z" fill="black"/>
<path d="M270.764 75.7568L270.756 78.3994C270.751 79.7462 271.632 81.3681 272.771 82.1823L272.761 85.3734L271.497 84.6411C271.346 84.5546 271.219 84.6258 271.219 84.7994C271.219 84.9776 271.344 85.1883 271.494 85.2754L274.574 87.0542C274.727 87.1418 274.853 87.0741 274.853 86.897C274.853 86.7247 274.73 86.5081 274.579 86.421L273.313 85.6922L273.322 82.5C274.463 83.0021 275.349 82.4013 275.351 81.0525L275.359 78.412L270.764 75.7568Z" fill="black"/>
<path d="M261.593 70.5049L260.062 71.1483L260.861 71.6082L260.84 78.585L260.318 78.2844C260.166 78.1986 260.042 78.2638 260.041 78.441C260.041 78.6157 260.164 78.8312 260.317 78.9184L266.674 82.5893C266.825 82.6758 266.95 82.6043 266.951 82.4314C266.952 82.2542 266.827 82.0433 266.676 81.9554L266.168 81.6621L266.189 74.6864L266.972 75.1383L265.451 72.7307L263.925 73.3776L264.722 73.839L264.701 80.8147L262.311 79.4355L262.332 72.4587L263.11 72.9089L261.593 70.5049Z" fill="black"/>
<path d="M322.506 41.2243L291.257 23.0669L257.709 42.4368L288.956 60.5948L322.506 41.2243Z" fill="#FFF7E4"/>
<path d="M288.957 60.5952L289.064 98.5503L322.613 79.1815L322.507 41.2246L288.957 60.5952Z" fill="#212121"/>
<path d="M293.771 83.4247L293.793 90.6125L294.638 90.1246L294.619 82.9365L293.771 83.4247Z" fill="#2B3C4D"/>
<path d="M296.854 81.6464L296.875 88.8338L297.146 88.6755L297.126 81.4888L296.854 81.6464Z" fill="#2B3C4D"/>
<path d="M297.756 81.121L297.777 88.3085L298.321 87.9964L298.3 80.8086L297.756 81.121Z" fill="#2B3C4D"/>
<path d="M299.307 80.2296L299.328 87.4153L300.101 86.9696L300.08 79.7822L299.307 80.2296Z" fill="#2B3C4D"/>
<path d="M301.482 78.9736L301.503 86.1596L302.059 85.8395L302.039 78.6538L301.482 78.9736Z" fill="#2B3C4D"/>
<path d="M302.662 78.2925L302.681 85.4802L302.966 85.3163L302.945 78.1289L302.662 78.2925Z" fill="#2B3C4D"/>
<path d="M303.393 77.8731L303.412 85.0592L303.973 84.7359L303.951 77.5488L303.393 77.8731Z" fill="#2B3C4D"/>
<path d="M293.072 83.8306L293.091 91.0173L293.446 90.8126L293.426 83.627L293.072 83.8306Z" fill="#2B3C4D"/>
<path d="M292.342 84.2495L292.361 91.438L292.717 91.2315L292.697 84.0444L292.342 84.2495Z" fill="#2B3C4D"/>
<path d="M305.102 76.881L305.123 84.0671L305.312 83.9572L305.293 76.7705L305.102 76.881Z" fill="#2B3C4D"/>
<path d="M306.256 84.8225L291.39 93.4058L291.363 84.0305L306.231 75.4458L306.256 84.8225ZM295.42 89.6707L296.416 89.0953L296.396 81.9086L295.399 82.4826L295.42 89.6707ZM293.788 90.6126L294.634 90.1251L294.614 82.937L293.767 83.4252L293.788 90.6126ZM299.325 87.4155L300.098 86.9702L300.077 79.7828L299.303 80.2302L299.325 87.4155ZM303.406 85.0592L303.967 84.736L303.945 77.5489L303.386 77.8736L303.406 85.0592ZM301.498 86.1598L302.054 85.8397L302.034 78.654L301.477 78.9738L301.498 86.1598ZM297.777 88.3086L298.32 87.9961L298.299 80.8087L297.755 81.1212L297.777 88.3086ZM292.359 91.438L292.715 91.2316L292.696 84.0445L292.34 84.2495L292.359 91.438ZM293.085 91.0174L293.44 90.8127L293.42 83.6274L293.066 83.8311L293.085 91.0174ZM302.676 85.4805L302.961 85.3166L302.94 78.1292L302.657 78.2927L302.676 85.4805ZM296.87 88.8341L297.142 88.6758L297.121 81.4891L296.849 81.6467L296.87 88.8341ZM305.123 84.0675L305.313 83.9576L305.294 76.7713L305.102 76.8815L305.123 84.0675ZM304.42 84.4741L304.588 84.3751L304.569 77.1887L304.399 77.2874L304.42 84.4741Z" fill="#E4E8E9"/>
<path d="M304.402 77.2872L304.423 84.4739L304.592 84.3749L304.572 77.1885L304.402 77.2872Z" fill="#2B3C4D"/>
<path d="M295.402 82.4822L295.424 89.6707L296.42 89.0949L296.399 81.9082L295.402 82.4822Z" fill="#2B3C4D"/>
<path d="M306.185 50.6459L274.938 32.4875L275.157 32.3672L306.402 50.5249L306.185 50.6459Z" fill="#6F6F6F"/>
<path opacity="0.21" d="M282.635 115.506C283.103 115.236 283.104 114.56 282.636 114.288L251.371 96.1204C250.722 95.7441 249.917 95.7431 249.268 96.1172L215.549 115.585C215.081 115.856 215.08 116.532 215.548 116.804L246.812 134.972C247.46 135.348 248.266 135.349 248.915 134.975L282.635 115.506Z" fill="black"/>
<path d="M247.755 96.0067L216.508 77.8486L216.615 115.803L247.862 133.962L247.755 96.0067Z" fill="#FFBE2E"/>
<path d="M240.483 118.284C238.707 117.258 237.261 118.079 237.256 120.12L240.197 121.818L240.186 125.964C240.184 126.648 240.668 127.486 241.264 127.83C241.859 128.173 242.345 127.897 242.347 127.212V127.081C242.35 126.906 242.224 126.692 242.073 126.605C241.919 126.515 241.797 126.588 241.797 126.763L241.796 126.893C241.795 127.231 241.555 127.364 241.266 127.197C240.974 127.028 240.737 126.62 240.737 126.282L240.749 122.137L243.692 123.835C243.697 121.793 242.26 119.309 240.483 118.284Z" fill="black"/>
<path d="M229.553 111.168L229.545 113.811C229.54 115.158 230.421 116.78 231.56 117.594L231.55 120.785L230.286 120.053C230.135 119.966 230.008 120.037 230.008 120.211C230.008 120.389 230.133 120.6 230.283 120.687L233.363 122.466C233.516 122.553 233.642 122.486 233.642 122.309C233.642 122.136 233.519 121.92 233.368 121.833L232.102 121.104L232.111 117.912C233.252 118.414 234.138 117.813 234.14 116.464L234.148 113.824L229.553 111.168Z" fill="black"/>
<path d="M220.382 105.917L218.851 106.56L219.65 107.02L219.629 113.997L219.107 113.696C218.955 113.61 218.831 113.675 218.83 113.853C218.83 114.027 218.954 114.243 219.106 114.33L225.463 118.001C225.614 118.087 225.739 118.016 225.74 117.843C225.741 117.666 225.616 117.455 225.465 117.367L224.957 117.074L224.978 110.098L225.762 110.55L224.24 108.142L222.714 108.789L223.511 109.251L223.49 116.226L221.1 114.847L221.121 107.87L221.899 108.321L220.382 105.917Z" fill="black"/>
<path d="M281.305 76.6359L250.056 58.4785L216.508 77.8484L247.755 96.0065L281.305 76.6359Z" fill="#FFF7E4"/>
<path d="M247.756 96.0063L247.863 133.961L281.412 114.593L281.306 76.6357L247.756 96.0063Z" fill="#212121"/>
<path d="M252.574 118.836L252.596 126.024L253.441 125.536L253.421 118.348L252.574 118.836Z" fill="#2B3C4D"/>
<path d="M255.652 117.058L255.674 124.245L255.945 124.087L255.925 116.9L255.652 117.058Z" fill="#2B3C4D"/>
<path d="M256.559 116.533L256.58 123.72L257.124 123.408L257.102 116.22L256.559 116.533Z" fill="#2B3C4D"/>
<path d="M258.105 115.641L258.127 122.827L258.9 122.381L258.879 115.194L258.105 115.641Z" fill="#2B3C4D"/>
<path d="M260.281 114.385L260.302 121.571L260.858 121.251L260.837 114.065L260.281 114.385Z" fill="#2B3C4D"/>
<path d="M261.461 113.704L261.48 120.892L261.765 120.728L261.744 113.541L261.461 113.704Z" fill="#2B3C4D"/>
<path d="M262.188 113.285L262.207 120.471L262.768 120.148L262.746 112.96L262.188 113.285Z" fill="#2B3C4D"/>
<path d="M251.867 119.242L251.886 126.429L252.241 126.224L252.221 119.039L251.867 119.242Z" fill="#2B3C4D"/>
<path d="M251.145 119.661L251.163 126.85L251.519 126.643L251.5 119.456L251.145 119.661Z" fill="#2B3C4D"/>
<path d="M263.906 112.293L263.928 119.479L264.117 119.369L264.098 112.182L263.906 112.293Z" fill="#2B3C4D"/>
<path d="M265.061 120.234L250.195 128.817L250.168 119.442L265.035 110.857L265.061 120.234ZM254.225 125.082L255.221 124.506L255.201 117.32L254.204 117.894L254.225 125.082ZM252.593 126.024L253.438 125.536L253.419 118.348L252.572 118.836L252.593 126.024ZM258.129 122.827L258.902 122.381L258.881 115.194L258.108 115.641L258.129 122.827ZM262.211 120.47L262.772 120.147L262.75 112.96L262.191 113.285L262.211 120.47ZM260.303 121.571L260.859 121.251L260.838 114.065L260.282 114.385L260.303 121.571ZM256.582 123.72L257.125 123.407L257.104 116.22L256.56 116.532L256.582 123.72ZM251.164 126.849L251.52 126.643L251.5 119.456L251.145 119.661L251.164 126.849ZM251.89 126.429L252.245 126.224L252.224 119.039L251.87 119.242L251.89 126.429ZM261.481 120.892L261.765 120.728L261.744 113.54L261.462 113.704L261.481 120.892ZM255.675 124.245L255.947 124.087L255.926 116.9L255.654 117.058L255.675 124.245ZM263.928 119.479L264.117 119.369L264.099 112.182L263.907 112.293L263.928 119.479ZM263.225 119.885L263.393 119.786L263.373 112.6L263.204 112.699L263.225 119.885Z" fill="#E4E8E9"/>
<path d="M263.203 112.699L263.224 119.886L263.392 119.786L263.373 112.6L263.203 112.699Z" fill="#2B3C4D"/>
<path d="M254.203 117.894L254.224 125.082L255.22 124.507L255.2 117.32L254.203 117.894Z" fill="#2B3C4D"/>
<path d="M264.974 86.0575L233.727 67.8991L233.946 67.7788L265.191 85.9365L264.974 86.0575Z" fill="#6F6F6F"/>
<path opacity="0.21" d="M341.599 126.482C342.068 126.212 342.069 125.535 341.601 125.264L310.336 107.096C309.687 106.72 308.882 106.719 308.233 107.093L274.514 126.561C274.046 126.832 274.045 127.507 274.512 127.779L305.777 145.948C306.425 146.324 307.231 146.325 307.88 145.951L341.599 126.482Z" fill="black"/>
<path d="M306.712 106.982L275.465 88.8237L275.572 126.778L306.819 144.937L306.712 106.982Z" fill="#FFBE2E"/>
<path d="M299.44 129.259C297.664 128.234 296.218 129.054 296.213 131.095L299.154 132.793L299.143 136.939C299.141 137.623 299.625 138.461 300.221 138.806C300.816 139.148 301.302 138.872 301.305 138.187V138.056C301.307 137.881 301.181 137.667 301.03 137.58C300.876 137.491 300.754 137.563 300.754 137.738L300.753 137.868C300.752 138.206 300.512 138.339 300.223 138.172C299.931 138.003 299.694 137.595 299.694 137.257L299.706 133.112L302.649 134.81C302.654 132.769 301.217 130.284 299.44 129.259Z" fill="black"/>
<path d="M288.514 122.144L288.506 124.787C288.501 126.133 289.382 127.755 290.521 128.57L290.511 131.761L289.247 131.028C289.096 130.942 288.969 131.013 288.969 131.187C288.969 131.365 289.094 131.575 289.244 131.663L292.324 133.441C292.477 133.529 292.603 133.461 292.603 133.284C292.603 133.112 292.48 132.895 292.329 132.808L291.063 132.079L291.072 128.887C292.213 129.389 293.099 128.789 293.101 127.44L293.109 124.799L288.514 122.144Z" fill="black"/>
<path d="M279.343 116.892L277.812 117.535L278.611 117.995L278.59 124.972L278.068 124.671C277.916 124.585 277.792 124.651 277.791 124.828C277.791 125.002 277.914 125.218 278.067 125.305L284.424 128.976C284.575 129.063 284.7 128.991 284.701 128.818C284.702 128.641 284.577 128.43 284.426 128.342L283.918 128.049L283.939 121.073L284.722 121.525L283.201 119.117L281.675 119.764L282.472 120.226L282.451 127.201L280.061 125.822L280.082 118.845L280.86 119.296L279.343 116.892Z" fill="black"/>
<path d="M340.262 87.6115L309.013 69.4541L275.465 88.824L306.712 106.982L340.262 87.6115Z" fill="#FFF7E4"/>
<path d="M306.713 106.982L306.82 144.937L340.369 125.568L340.263 87.6113L306.713 106.982Z" fill="#212121"/>
<path d="M311.531 129.811L311.553 136.999L312.398 136.511L312.378 129.323L311.531 129.811Z" fill="#2B3C4D"/>
<path d="M314.609 128.033L314.631 135.221L314.902 135.062L314.882 127.875L314.609 128.033Z" fill="#2B3C4D"/>
<path d="M315.516 127.508L315.537 134.695L316.081 134.383L316.059 127.195L315.516 127.508Z" fill="#2B3C4D"/>
<path d="M317.066 126.616L317.088 133.802L317.861 133.356L317.84 126.169L317.066 126.616Z" fill="#2B3C4D"/>
<path d="M319.238 125.36L319.259 132.546L319.815 132.226L319.794 125.041L319.238 125.36Z" fill="#2B3C4D"/>
<path d="M320.418 124.679L320.437 131.867L320.722 131.703L320.701 124.516L320.418 124.679Z" fill="#2B3C4D"/>
<path d="M321.148 124.26L321.168 131.446L321.729 131.123L321.707 123.936L321.148 124.26Z" fill="#2B3C4D"/>
<path d="M310.832 130.217L310.851 137.404L311.206 137.199L311.186 130.014L310.832 130.217Z" fill="#2B3C4D"/>
<path d="M310.105 130.636L310.124 137.825L310.48 137.618L310.461 130.431L310.105 130.636Z" fill="#2B3C4D"/>
<path d="M322.865 123.268L322.887 130.454L323.076 130.344L323.057 123.157L322.865 123.268Z" fill="#2B3C4D"/>
<path d="M324.024 131.209L309.158 139.793L309.131 130.417L323.998 121.833L324.024 131.209ZM313.188 136.057L314.184 135.482L314.164 128.295L313.167 128.869L313.188 136.057ZM311.556 136.999L312.401 136.512L312.382 129.324L311.535 129.812L311.556 136.999ZM317.092 133.802L317.865 133.357L317.844 126.17L317.071 126.617L317.092 133.802ZM321.174 131.446L321.735 131.123L321.713 123.936L321.154 124.26L321.174 131.446ZM319.266 132.547L319.822 132.226L319.801 125.041L319.245 125.36L319.266 132.547ZM315.544 134.695L316.088 134.383L316.067 127.195L315.523 127.508L315.544 134.695ZM310.126 137.825L310.483 137.618L310.463 130.431L310.108 130.636L310.126 137.825ZM310.852 137.404L311.207 137.199L311.187 130.014L310.833 130.218L310.852 137.404ZM320.444 131.867L320.728 131.703L320.707 124.516L320.425 124.679L320.444 131.867ZM314.638 135.221L314.909 135.063L314.889 127.876L314.617 128.033L314.638 135.221ZM322.891 130.454L323.08 130.344L323.061 123.158L322.87 123.268L322.891 130.454ZM322.188 130.861L322.356 130.762L322.336 123.575L322.167 123.674L322.188 130.861Z" fill="#E4E8E9"/>
<path d="M322.162 123.674L322.183 130.861L322.351 130.762L322.332 123.575L322.162 123.674Z" fill="#2B3C4D"/>
<path d="M313.162 128.869L313.183 136.057L314.179 135.482L314.159 128.295L313.162 128.869Z" fill="#2B3C4D"/>
<path d="M323.941 97.0326L292.693 78.8742L292.913 78.7539L324.158 96.9116L323.941 97.0326Z" fill="#6F6F6F"/>
<path opacity="0.21" d="M291.959 62.5281C292.427 62.2575 292.428 61.5817 291.961 61.3097L260.695 43.1418C260.047 42.7656 259.241 42.7645 258.592 43.139L224.874 62.6072C224.405 62.8779 224.404 63.5537 224.872 63.8257L256.136 81.9942C256.784 82.3705 257.59 82.3715 258.239 81.997L291.959 62.5281Z" fill="black"/>
<path d="M257.071 43.0281L225.824 24.8696L225.931 62.8237L257.177 80.9828L257.071 43.0281Z" fill="#AD302D"/>
<path d="M249.795 65.3053C248.019 64.2793 246.574 65.0999 246.568 67.1406L249.509 68.8385L249.499 72.9844C249.497 73.6686 249.98 74.5065 250.576 74.8511C251.171 75.1939 251.658 74.9177 251.66 74.2325V74.101C251.662 73.927 251.537 73.7125 251.386 73.6253C251.231 73.5357 251.109 73.6086 251.109 73.7833L251.108 73.9134C251.107 74.2516 250.867 74.3845 250.578 74.2171C250.286 74.0483 250.049 73.6403 250.05 73.3028L250.061 69.1576L253.004 70.8555C253.01 68.8141 251.572 66.3302 249.795 65.3053Z" fill="white"/>
<path d="M238.873 58.1899L238.865 60.8325C238.861 62.1793 239.741 63.8012 240.88 64.6154L240.87 67.8065L239.606 67.0746C239.455 66.9881 239.328 67.0592 239.328 67.2329C239.328 67.4111 239.453 67.6217 239.603 67.7089L242.684 69.4877C242.836 69.5749 242.962 69.5072 242.962 69.3304C242.962 69.1582 242.839 68.9416 242.688 68.8541L241.422 68.1253L241.431 64.9331C242.572 65.4356 243.458 64.8344 243.461 63.4856L243.468 60.8451L238.873 58.1899Z" fill="white"/>
<path d="M229.703 52.938L228.172 53.5814L228.97 54.0413L228.95 61.0181L228.428 60.7175C228.276 60.6314 228.151 60.697 228.15 60.8741C228.15 61.0488 228.273 61.2647 228.427 61.3519L234.783 65.0228C234.934 65.1093 235.059 65.0381 235.06 64.8648C235.061 64.688 234.936 64.4764 234.785 64.3885L234.277 64.0952L234.298 57.1198L235.081 57.5714L233.56 55.1642L232.034 55.8111L232.831 56.2721L232.81 63.2478L230.421 61.8683L230.441 54.8915L231.22 55.3421L229.703 52.938Z" fill="white"/>
<path d="M290.621 23.6574L259.373 5.5L225.824 24.8699L257.071 43.0283L290.621 23.6574Z" fill="#E84C3D"/>
<path d="M257.072 43.0281L257.179 80.9829L290.728 61.6145L290.622 23.6572L257.072 43.0281Z" fill="#C93C35"/>
<path d="M261.891 65.8572L261.912 73.0446L262.757 72.5571L262.738 65.3687L261.891 65.8572Z" fill="#2B3C4D"/>
<path d="M264.969 64.079L264.99 71.2668L265.262 71.1081L265.241 63.9214L264.969 64.079Z" fill="#2B3C4D"/>
<path d="M265.875 63.5537L265.897 70.7411L266.44 70.4286L266.419 63.2412L265.875 63.5537Z" fill="#2B3C4D"/>
<path d="M267.426 62.6623L267.446 69.8476L268.22 69.4023L268.199 62.2148L267.426 62.6623Z" fill="#2B3C4D"/>
<path d="M269.598 61.4065L269.619 68.5926L270.174 68.2724L270.154 61.0864L269.598 61.4065Z" fill="#2B3C4D"/>
<path d="M270.781 60.7247L270.8 67.9128L271.084 67.7489L271.064 60.5615L270.781 60.7247Z" fill="#2B3C4D"/>
<path d="M271.508 60.3056L271.527 67.4916L272.088 67.1684L272.066 59.981L271.508 60.3056Z" fill="#2B3C4D"/>
<path d="M261.191 66.2636L261.21 73.4496L261.565 73.2452L261.545 66.0596L261.191 66.2636Z" fill="#2B3C4D"/>
<path d="M260.465 66.6821L260.483 73.8702L260.839 73.6641L260.82 66.4771L260.465 66.6821Z" fill="#2B3C4D"/>
<path d="M273.225 59.3133L273.245 66.4997L273.435 66.3895L273.416 59.2031L273.225 59.3133Z" fill="#2B3C4D"/>
<path d="M274.383 67.2551L259.517 75.8388L259.49 66.4632L274.357 57.8784L274.383 67.2551ZM263.547 72.103L264.543 71.5276L264.523 64.3405L263.526 64.9148L263.547 72.103ZM261.916 73.0448L262.76 72.5573L262.741 65.3689L261.894 65.8574L261.916 73.0448ZM267.451 69.8478L268.225 69.4025L268.204 62.2151L267.431 62.6625L267.451 69.8478ZM271.534 67.4919L272.094 67.1686L272.072 59.9815L271.513 60.3062L271.534 67.4919ZM269.626 68.5924L270.181 68.2723L270.161 61.0863L269.604 61.4061L269.626 68.5924ZM265.904 70.7412L266.448 70.4288L266.426 63.2414L265.882 63.5538L265.904 70.7412ZM260.486 73.8703L260.842 73.6642L260.823 66.4771L260.468 66.6821L260.486 73.8703ZM261.212 73.4497L261.567 73.2454L261.547 66.0597L261.193 66.2637L261.212 73.4497ZM270.804 67.9131L271.088 67.7492L271.067 60.5618L270.785 60.725L270.804 67.9131ZM264.998 71.2667L265.269 71.1081L265.248 63.9214L264.976 64.079L264.998 71.2667ZM273.25 66.5001L273.44 66.3899L273.421 59.2036L273.229 59.3137L273.25 66.5001ZM272.548 66.9071L272.716 66.8077L272.696 59.6213L272.526 59.72L272.548 66.9071Z" fill="#E4E8E9"/>
<path d="M272.521 59.7198L272.543 66.9069L272.711 66.8071L272.691 59.6211L272.521 59.7198Z" fill="#2B3C4D"/>
<path d="M263.521 64.9147L263.542 72.1028L264.538 71.5274L264.519 64.3403L263.521 64.9147Z" fill="#2B3C4D"/>
<path d="M274.299 33.0785L243.053 14.9205L243.272 14.7998L274.517 32.9575L274.299 33.0785Z" fill="#6F6F6F"/>
<path d="M136.299 105.211C136.299 105.211 136.135 104.707 136.383 104.549C136.631 104.39 137.209 104.105 138.581 104.411C139.07 104.521 139.507 104.816 139.627 104.899C139.8 105.017 140.16 105.365 140.073 105.609C140.011 105.788 139.863 105.957 139.388 106.12C138.384 106.466 137.116 106.093 136.896 105.883C136.675 105.672 136.299 105.211 136.299 105.211Z" fill="#CADEE0"/>
<path d="M138.79 106.665L138.937 104.484L136.41 104.476L136.352 105.66L138.79 106.665Z" fill="#E8C5AC"/>
<path d="M136.243 104.891C136.243 104.891 136.351 105.676 137.923 105.984C138.758 106.148 139.13 106.1 139.566 105.951C139.898 105.839 140.076 105.599 140.076 105.599L139.961 106.282C139.961 106.282 139.554 106.821 138.338 106.742C136.538 106.628 136.207 105.473 136.207 105.473L136.243 104.891Z" fill="#F5F5F5"/>
<path d="M137.765 104.022C137.98 103.324 137.293 102.552 136.735 102.342C136.54 102.266 136.755 100.45 135.935 100.209C135.935 100.209 135.796 100.664 135.578 101.472C135.561 101.537 135.264 102.184 135.482 102.803C136.059 104.438 136.095 104.722 136.652 104.931C137.21 105.143 137.549 104.72 137.765 104.022Z" fill="#E8C5AC"/>
<path d="M136.566 103.023C136.566 103.023 136.488 101.902 137.712 100.404C138.937 98.9058 139.687 96.6628 140.806 98.9867C141.927 101.311 140.196 104.879 137.464 105.381C136.097 105.632 136.566 103.023 136.566 103.023Z" fill="#E8C5AC"/>
<mask id="mask0_32_670209" style="mask-type:luminance" maskUnits="userSpaceOnUse" x="149" y="126" width="23" height="14">
<path d="M160.281 126.529C163.773 130.029 167.709 132.879 171.772 134.651L164.941 139.725C159.233 137.237 153.776 132.619 149.449 127.064C149.762 127.384 150.051 127.672 150.482 128.086C150.471 128.116 150.464 128.147 150.451 128.176C150.768 127.94 151.085 127.704 151.403 127.469C152.049 128.083 152.638 128.62 153.507 129.383C153.859 129.121 154.213 128.857 154.566 128.595C155.075 129.029 155.475 129.358 155.947 129.733C157.389 128.662 158.838 127.6 160.281 126.529Z" fill="white"/>
</mask>
<g mask="url(#mask0_32_670209)">
<path d="M145.703 121.533L152.534 116.458C155.051 120.767 158.286 124.79 161.92 128.092L155.089 133.166C151.455 129.864 148.22 125.842 145.703 121.533Z" fill="#978050"/>
<path d="M155.088 133.166L161.92 128.092C164.984 130.877 168.333 133.151 171.773 134.651L164.943 139.726C161.503 138.225 158.153 135.952 155.088 133.166Z" fill="#978050"/>
</g>
<mask id="mask1_32_670209" style="mask-type:luminance" maskUnits="userSpaceOnUse" x="164" y="134" width="23" height="8">
<path d="M171.772 134.651C177.869 137.308 183.088 137.03 186.587 134.433L179.757 139.508C176.258 142.105 171.038 142.383 164.941 139.725C166.99 138.203 169.723 136.173 171.772 134.651Z" fill="white"/>
</mask>
<g mask="url(#mask1_32_670209)">
<path d="M164.941 139.726L171.772 134.651C177.87 137.309 183.091 137.03 186.591 134.431L179.76 139.506C176.26 142.105 171.039 142.384 164.941 139.726Z" fill="#978050"/>
</g>
<mask id="mask2_32_670209" style="mask-type:luminance" maskUnits="userSpaceOnUse" x="140" y="87" width="21" height="43">
<path d="M150.451 128.176C150.464 128.147 150.471 128.116 150.482 128.086C150.052 127.672 149.762 127.385 149.449 127.064C144.59 120.824 141.156 113.402 140.395 106.484C139.679 99.9868 141.457 95.1585 144.913 92.5923L151.744 87.5181C148.288 90.0836 146.51 94.9119 147.226 101.41C148.182 110.101 153.358 119.591 160.281 126.529C158.838 127.599 157.389 128.662 155.947 129.733C155.475 129.358 155.075 129.028 154.566 128.595C154.213 128.857 153.859 129.121 153.506 129.383C152.637 128.619 152.048 128.083 151.403 127.469C151.085 127.705 150.769 127.94 150.451 128.176Z" fill="white"/>
</mask>
<g mask="url(#mask2_32_670209)">
<path d="M144.91 92.5944L151.741 87.5195C148.287 90.0857 146.51 94.9134 147.226 101.41C147.772 106.374 149.695 111.598 152.532 116.458L145.701 121.533C142.863 116.673 140.941 111.448 140.395 106.485C139.679 99.989 141.455 95.1603 144.91 92.5944Z" fill="#978050"/>
<path d="M145.701 121.533L152.532 116.458C155.049 120.767 158.284 124.79 161.918 128.092L155.087 133.166C151.453 129.864 148.218 125.842 145.701 121.533Z" fill="#978050"/>
</g>
<mask id="mask3_32_670209" style="mask-type:luminance" maskUnits="userSpaceOnUse" x="144" y="85" width="23" height="8">
<path d="M144.918 92.5946L151.749 87.52C155.248 84.92 160.469 84.6414 166.567 87.3L159.736 92.3742C153.638 89.7163 148.417 89.9952 144.918 92.5946Z" fill="white"/>
</mask>
<g mask="url(#mask3_32_670209)">
<path d="M144.918 92.5946L151.749 87.52C155.248 84.92 160.469 84.6414 166.567 87.3L159.736 92.3742C153.638 89.7163 148.417 89.9952 144.918 92.5946Z" fill="#B0CEEA"/>
</g>
<mask id="mask4_32_670209" style="mask-type:luminance" maskUnits="userSpaceOnUse" x="139" y="77" width="27" height="9">
<path d="M139.82 85.7433L146.651 80.6694C151.173 77.3102 157.919 76.95 165.799 80.3849L158.968 85.4594C151.089 82.0245 144.342 82.3844 139.82 85.7433Z" fill="white"/>
</mask>
<g mask="url(#mask4_32_670209)">
<path d="M139.82 85.7433L146.651 80.6694C151.173 77.3102 157.919 76.95 165.799 80.3849L158.968 85.4594C151.089 82.0245 144.342 82.3844 139.82 85.7433Z" fill="#E3A419"/>
</g>
<mask id="mask5_32_670209" style="mask-type:luminance" maskUnits="userSpaceOnUse" x="159" y="87" width="33" height="53">
<path d="M186.585 134.431C184.308 136.123 182.031 137.814 179.754 139.506C183.208 136.94 184.985 132.111 184.27 125.615C182.83 112.539 171.841 97.6579 159.723 92.3745L166.554 87.3003C178.672 92.583 189.661 107.465 191.101 120.54C191.816 127.037 190.039 131.865 186.585 134.431Z" fill="white"/>
</mask>
<g mask="url(#mask5_32_670209)">
<path d="M159.723 92.3745L166.554 87.3003C169.993 88.7991 173.343 91.0731 176.409 93.8586L169.577 98.9335C166.511 96.1476 163.162 93.8743 159.723 92.3745Z" fill="#B0CEEA"/>
<path d="M169.578 98.9333L176.41 93.8584C180.043 97.1608 183.278 101.184 185.794 105.492L178.962 110.567C176.447 106.258 173.211 102.236 169.578 98.9333Z" fill="#DFEBF7"/>
<path d="M178.963 110.567L185.795 105.492C188.633 110.352 190.555 115.577 191.102 120.54C191.817 127.037 190.04 131.865 186.586 134.431L179.756 139.506C183.209 136.94 184.986 132.111 184.271 125.615C183.724 120.651 181.801 115.427 178.963 110.567Z" fill="#B0CEEA"/>
</g>
<mask id="mask6_32_670209" style="mask-type:luminance" maskUnits="userSpaceOnUse" x="158" y="80" width="40" height="67">
<path d="M191.675 141.283L184.845 146.358C189.308 143.041 191.604 136.803 190.68 128.409C188.82 111.515 174.618 92.2851 158.961 85.4593L165.792 80.3848C181.449 87.2102 195.651 106.44 197.511 123.335C198.435 131.728 196.139 137.967 191.675 141.283Z" fill="white"/>
</mask>
<g mask="url(#mask6_32_670209)">
<path d="M158.961 85.4593L165.792 80.3848C170.237 82.3226 174.564 85.2598 178.525 88.8593L171.695 93.9335C167.733 90.3347 163.406 87.3978 158.961 85.4593Z" fill="#E3A419"/>
<path d="M171.695 93.9336L178.526 88.8594C183.222 93.127 187.403 98.3246 190.654 103.892L183.823 108.967C180.572 103.4 176.391 98.2019 171.695 93.9336Z" fill="#E3A419"/>
<path d="M183.824 108.967L190.655 103.892C194.322 110.172 196.807 116.922 197.512 123.335C198.436 131.728 196.141 137.967 191.677 141.283L184.846 146.358C189.31 143.041 191.605 136.804 190.681 128.41C189.975 121.996 187.491 115.246 183.824 108.967Z" fill="#E3A419"/>
</g>
<g opacity="0.71">
<path d="M162.295 88.6389C174.413 93.922 185.402 108.804 186.842 121.88C188.282 134.955 179.626 141.273 167.508 135.99C155.39 130.707 144.401 115.826 142.961 102.749C141.522 89.6736 150.177 83.3562 162.295 88.6389Z" fill="#FFF7E4"/>
</g>
<path d="M158.97 85.459C174.628 92.2848 188.829 111.514 190.689 128.409C192.549 145.303 181.364 153.468 165.706 146.642C150.05 139.816 135.847 120.584 133.987 103.689C132.127 86.7942 143.314 78.6335 158.97 85.459ZM164.945 139.725C177.063 145.008 185.718 138.69 184.279 125.615C182.839 112.539 171.85 97.6575 159.732 92.3741C147.614 87.091 138.959 93.4084 140.398 106.485C141.838 119.561 152.826 134.442 164.945 139.725Z" fill="#FFBE2E"/>
<path opacity="0.43" d="M168.414 131.278C157.852 126.674 148.273 113.703 147.019 102.307C146.765 100.001 146.877 97.9411 147.296 96.1528C144.605 98.4701 143.254 102.521 143.843 107.871C145.098 119.268 154.676 132.239 165.238 136.843C173.663 140.516 180.162 137.751 181.812 130.699C178.771 133.318 174.017 133.722 168.414 131.278Z" fill="#FFBE2E"/>
<path d="M198.004 127.445L212.402 137.125C211.782 136.708 210.576 137.203 209.187 138.579L194.789 128.899C196.178 127.523 197.384 127.027 198.004 127.445Z" fill="#C48D14"/>
<mask id="mask7_32_670209" style="mask-type:luminance" maskUnits="userSpaceOnUse" x="194" y="127" width="19" height="12">
<path d="M198.008 127.445L212.406 137.125C211.786 136.708 210.58 137.203 209.191 138.579L194.793 128.899C196.182 127.523 197.388 127.027 198.008 127.445Z" fill="white"/>
</mask>
<g mask="url(#mask7_32_670209)">
<path d="M209.191 138.579L194.793 128.899C196.181 127.524 197.387 127.027 198.008 127.445L212.406 137.125C211.786 136.707 210.579 137.203 209.191 138.579Z" fill="#C48D14"/>
</g>
<mask id="mask8_32_670209" style="mask-type:luminance" maskUnits="userSpaceOnUse" x="191" y="128" width="19" height="19">
<path d="M205.941 146.717C201.141 143.49 196.342 140.263 191.542 137.037C191.257 136.845 191.095 136.459 191.098 135.877C191.103 134.032 192.752 130.907 194.78 128.898L209.178 138.578C207.151 140.587 205.502 143.711 205.496 145.557C205.493 146.139 205.655 146.525 205.941 146.717Z" fill="white"/>
</mask>
<g mask="url(#mask8_32_670209)">
<path d="M205.943 146.717L192.38 137.601C192.094 137.409 192.081 137.004 191.935 136.441C191.575 135.05 191.941 131.678 194.782 128.898L209.181 138.578C207.153 140.587 205.504 143.711 205.498 145.557C205.496 146.139 205.657 146.525 205.943 146.717Z" fill="#C48D14"/>
</g>
<path d="M209.182 138.579C211.21 136.57 212.849 136.437 212.842 138.283C212.835 140.13 211.188 143.254 209.159 145.263C207.132 147.271 205.493 147.404 205.5 145.557C205.506 143.711 207.155 140.587 209.182 138.579Z" fill="#C48D14"/>
<path d="M211.96 130.714C210.821 129.948 208.605 130.858 206.055 133.386C202.33 137.075 199.302 142.813 199.291 146.203C199.286 147.272 199.584 147.982 200.108 148.334L246.557 178.955L246.624 178.871C246.1 178.518 245.642 178.011 245.717 176.945C245.939 173.818 248.591 167.866 252.315 164.178C254.864 161.651 257.081 160.741 258.219 161.507L211.96 130.714Z" fill="#E3A419"/>
<path d="M252.313 164.178C256.037 160.49 258.031 160.258 259.562 163.282C261.475 167.061 261.946 171.838 259.388 175.63C255.998 180.655 245.252 180.978 245.549 176.995C245.803 173.616 248.589 167.866 252.313 164.178Z" fill="#FFBE2E"/>
<path d="M247.964 170.029C249.597 167.203 250.441 166.534 250.441 166.534L204 135.677C204 135.677 202.046 138.387 201.356 139.727C201.167 140.093 247.964 170.029 247.964 170.029Z" fill="#FFBE2E"/>
<g opacity="0.17">
<path d="M239.98 196.432C243.341 197.443 244.009 200.211 241.472 202.612C238.935 205.013 234.15 206.14 230.788 205.129L151.387 180.956C148.026 179.945 147.358 177.177 149.895 174.776C152.432 172.375 157.217 171.248 160.579 172.26L239.98 196.432Z" fill="black"/>
</g>
<rect x="0.0669186" y="0.115906" width="26.3004" height="8.51578" rx="1.31361" transform="matrix(0.866025 0.5 0 1 228.931 30.1662)" fill="#660907"/>
<rect x="0.0669186" y="0.115906" width="26.3004" height="8.51578" rx="1.31361" transform="matrix(0.866025 0.5 0 1 228.931 30.1662)" stroke="black" stroke-width="0.154542"/>
<path d="M230.254 36.8042V33.7622L230.764 34.0565V37.0985L230.254 36.8042ZM230.629 37.0206V36.5013L232.087 37.3429V37.8622L230.629 37.0206ZM230.629 35.7181V35.2161L231.956 35.9821V36.484L230.629 35.7181ZM230.629 34.4978V33.9786L232.068 34.8094V35.3287L230.629 34.4978ZM233.588 38.7289L233.112 37.606L233.011 37.461L232.306 35.8989L232.887 36.2342L233.325 37.2533L233.419 37.3896L234.165 39.0621L233.588 38.7289ZM232.269 37.9673L233.007 37.1992L233.288 37.7466L232.823 38.2875L232.269 37.9673ZM233.438 37.7033L233.149 37.1559L233.58 36.6345L234.131 36.9526L233.438 37.7033ZM235.422 39.8311C235.292 39.7561 235.175 39.658 235.07 39.5368C234.965 39.4128 234.881 39.2794 234.819 39.1366C234.756 38.9938 234.722 38.8517 234.717 38.7103V37.9704C234.722 37.8348 234.756 37.7317 234.819 37.661C234.884 37.5889 234.967 37.5507 235.07 37.5463C235.175 37.5434 235.292 37.5795 235.422 37.6545C235.589 37.7511 235.739 37.8853 235.872 38.0569C236.004 38.2286 236.108 38.4183 236.183 38.626C236.26 38.8351 236.299 39.0435 236.299 39.2512C236.299 39.4561 236.26 39.6183 236.183 39.738C236.108 39.8592 236.004 39.9292 235.872 39.9479C235.739 39.9667 235.589 39.9277 235.422 39.8311ZM234.418 40.082V37.1179L234.909 37.4014V37.9509L234.826 38.4096L234.905 38.9613V40.3633L234.418 40.082ZM235.336 39.2577C235.426 39.3096 235.506 39.3327 235.576 39.327C235.646 39.3183 235.699 39.283 235.737 39.2209C235.777 39.1575 235.797 39.0695 235.797 38.957C235.797 38.8474 235.777 38.7392 235.737 38.6324C235.699 38.5243 235.646 38.4269 235.576 38.3404C235.506 38.2509 235.426 38.1803 235.336 38.1283C235.248 38.0778 235.17 38.0569 235.1 38.0656C235.03 38.0714 234.975 38.106 234.935 38.1694C234.897 38.2315 234.879 38.3173 234.879 38.4269C234.879 38.5394 234.897 38.6498 234.935 38.7579C234.975 38.8647 235.028 38.962 235.096 39.05C235.166 39.1366 235.246 39.2058 235.336 39.2577ZM236.621 40.4799V38.3899L237.115 38.6755V40.7655L236.621 40.4799ZM236.868 38.1952C236.788 38.149 236.722 38.0805 236.669 37.9896C236.617 37.8959 236.591 37.8028 236.591 37.7105C236.591 37.6211 236.617 37.5598 236.669 37.5266C236.722 37.4934 236.788 37.4999 236.868 37.5461C236.95 37.5937 237.017 37.6636 237.067 37.756C237.119 37.8497 237.145 37.9413 237.145 38.0307C237.145 38.123 237.119 38.1858 237.067 38.219C237.017 38.2507 236.95 38.2428 236.868 38.1952ZM237.55 41.0166V38.9266L238.041 39.21V41.3L237.55 41.0166ZM238.041 40.1447L237.85 39.8872C237.873 39.6434 237.937 39.479 238.045 39.3939C238.152 39.3059 238.307 39.3203 238.51 39.4372C238.597 39.4876 238.676 39.5504 238.746 39.6254C238.816 39.6975 238.879 39.7877 238.937 39.8958L238.629 40.1252C238.602 40.0747 238.568 40.0293 238.528 39.9889C238.491 39.9499 238.447 39.916 238.397 39.8872C238.292 39.8266 238.206 39.8158 238.139 39.8547C238.074 39.8922 238.041 39.9889 238.041 40.1447ZM239.924 42.4301C239.734 42.3205 239.565 42.177 239.418 41.9996C239.27 41.8193 239.153 41.6217 239.065 41.4068C238.981 41.1933 238.938 40.9813 238.938 40.7707C238.938 40.563 238.979 40.4021 239.062 40.2882C239.147 40.1728 239.262 40.1093 239.406 40.0978C239.551 40.0834 239.713 40.1274 239.89 40.2298C240.065 40.3307 240.218 40.4656 240.351 40.6344C240.486 40.8017 240.591 40.9863 240.666 41.1882C240.743 41.3887 240.782 41.5885 240.782 41.7876C240.782 41.8251 240.779 41.8626 240.774 41.9001C240.772 41.9361 240.766 41.9758 240.756 42.0191L239.234 41.145V40.7209L240.527 41.463L240.328 41.5258C240.323 41.3988 240.303 41.2834 240.268 41.1796C240.236 41.0772 240.187 40.9856 240.122 40.9048C240.06 40.8226 239.982 40.7548 239.89 40.7014C239.792 40.6452 239.708 40.6221 239.635 40.6322C239.563 40.6394 239.506 40.6776 239.466 40.7469C239.429 40.8147 239.41 40.9106 239.41 41.0346C239.41 41.1616 239.43 41.2842 239.47 41.4024C239.513 41.5193 239.573 41.626 239.65 41.7227C239.728 41.8164 239.817 41.8929 239.92 41.952C240.012 42.0054 240.096 42.0364 240.171 42.045C240.246 42.0508 240.311 42.0335 240.366 41.9931L240.654 42.4929C240.567 42.5607 240.46 42.5881 240.332 42.5751C240.207 42.5636 240.071 42.5152 239.924 42.4301ZM242.634 43.9951C242.422 43.8725 242.24 43.7254 242.087 43.5538C241.937 43.3836 241.801 43.1795 241.679 42.9415L242.016 42.7467C242.093 42.9097 242.183 43.054 242.286 43.1795C242.388 43.3021 242.513 43.4059 242.661 43.491C242.793 43.5675 242.898 43.5978 242.975 43.5819C243.055 43.5675 243.095 43.5069 243.095 43.4001C243.095 43.3078 243.073 43.2198 243.028 43.1362C242.983 43.0525 242.923 42.9689 242.848 42.8852C242.775 42.803 242.694 42.7201 242.604 42.6364C242.517 42.5513 242.428 42.4611 242.338 42.3659C242.251 42.2722 242.17 42.1719 242.095 42.0652C242.022 41.957 241.963 41.8395 241.919 41.7125C241.874 41.5827 241.851 41.4399 241.851 41.2842C241.851 41.0995 241.89 40.9647 241.967 40.8796C242.045 40.7945 242.151 40.7562 242.286 40.7649C242.421 40.7736 242.573 40.8269 242.743 40.925C242.923 41.0289 243.085 41.1616 243.23 41.3231C243.375 41.4846 243.494 41.6541 243.586 41.8315L243.249 42.0263C243.171 41.8835 243.091 41.7652 243.009 41.6714C242.929 41.5791 242.838 41.5034 242.735 41.4443C242.618 41.3765 242.526 41.3491 242.458 41.362C242.391 41.375 242.357 41.4306 242.357 41.5286C242.357 41.6123 242.379 41.6931 242.424 41.771C242.469 41.8489 242.528 41.9275 242.601 42.0068C242.675 42.0876 242.757 42.1705 242.844 42.2556C242.934 42.3422 243.023 42.4323 243.11 42.5261C243.2 42.6213 243.281 42.7244 243.354 42.8354C243.429 42.948 243.489 43.072 243.534 43.2076C243.579 43.3403 243.601 43.486 243.601 43.6446C243.601 43.9273 243.515 44.0997 243.343 44.1617C243.17 44.2237 242.934 44.1682 242.634 43.9951ZM244.787 45.238C244.605 45.1327 244.44 44.9899 244.292 44.8096C244.147 44.6278 244.031 44.4295 243.944 44.2146C243.859 43.9982 243.816 43.7876 243.816 43.5828C243.816 43.378 243.859 43.2193 243.944 43.1068C244.029 42.9914 244.145 42.9287 244.292 42.9186C244.44 42.9056 244.603 42.951 244.783 43.0549C244.968 43.1616 245.133 43.3059 245.278 43.4876C245.425 43.6679 245.541 43.8648 245.626 44.0783C245.711 44.2889 245.754 44.4966 245.754 44.7014C245.754 44.9062 245.711 45.0678 245.626 45.186C245.541 45.3014 245.425 45.3656 245.278 45.3786C245.133 45.3901 244.969 45.3433 244.787 45.238ZM244.783 44.7079C244.876 44.7612 244.957 44.785 245.027 44.7793C245.099 44.7721 245.154 44.7374 245.192 44.6754C245.232 44.612 245.252 44.5254 245.252 44.4158C245.252 44.3062 245.232 44.198 245.192 44.0913C245.152 43.9845 245.097 43.8879 245.027 43.8013C244.957 43.7119 244.876 43.6405 244.783 43.5871C244.693 43.5352 244.613 43.5136 244.543 43.5222C244.473 43.528 244.418 43.5612 244.378 43.6218C244.338 43.6823 244.318 43.7674 244.318 43.8771C244.318 43.9867 244.338 44.0963 244.378 44.2059C244.418 44.3127 244.473 44.4107 244.543 44.5002C244.613 44.5867 244.693 44.656 244.783 44.7079ZM246.92 46.4698C246.738 46.3645 246.573 46.2217 246.426 46.0414C246.281 45.8596 246.165 45.6613 246.077 45.4464C245.992 45.23 245.95 45.0194 245.95 44.8146C245.95 44.6098 245.992 44.4511 246.077 44.3386C246.162 44.2232 246.278 44.1605 246.426 44.1504C246.573 44.1374 246.737 44.1829 246.917 44.2867C247.102 44.3934 247.266 44.5377 247.411 44.7194C247.559 44.8997 247.675 45.0966 247.76 45.3101C247.845 45.5207 247.887 45.7284 247.887 45.9332C247.887 46.138 247.845 46.2996 247.76 46.4178C247.675 46.5332 247.559 46.5974 247.411 46.6104C247.266 46.6219 247.103 46.5751 246.92 46.4698ZM246.917 45.9397C247.009 45.9931 247.09 46.0169 247.16 46.0111C247.233 46.0039 247.288 45.9693 247.325 45.9072C247.365 45.8438 247.385 45.7572 247.385 45.6476C247.385 45.538 247.365 45.4298 247.325 45.3231C247.285 45.2163 247.23 45.1197 247.16 45.0331C247.09 44.9437 247.009 44.8723 246.917 44.8189C246.827 44.767 246.747 44.7454 246.677 44.754C246.607 44.7598 246.552 44.793 246.512 44.8536C246.472 44.9141 246.452 44.9992 246.452 45.1089C246.452 45.2185 246.472 45.3281 246.512 45.4377C246.552 45.5445 246.607 45.6426 246.677 45.732C246.747 45.8185 246.827 45.8878 246.917 45.9397ZM249.421 47.8703V46.6717C249.421 46.5477 249.388 46.4272 249.32 46.3104C249.253 46.1936 249.165 46.1041 249.058 46.0421C248.988 46.0017 248.925 45.983 248.87 45.9858C248.815 45.9887 248.772 46.0125 248.739 46.0572C248.709 46.1034 248.694 46.1683 248.694 46.252L248.503 46.0291C248.503 45.8647 248.533 45.7392 248.593 45.6527C248.656 45.5647 248.74 45.5171 248.848 45.5099C248.958 45.5041 249.081 45.5409 249.219 45.6202C249.351 45.6966 249.47 45.8041 249.575 45.9426C249.68 46.0782 249.762 46.2253 249.822 46.3839C249.882 46.5397 249.912 46.6883 249.912 46.8296V48.1538L249.421 47.8703ZM248.203 47.1672V45.0771L248.694 45.3606V47.4506L248.203 47.1672Z" fill="white"/>
</svg>
