<svg width="44" height="44" viewBox="0 0 44 44" fill="none" xmlns="http://www.w3.org/2000/svg">
<g clip-path="url(#clip0_1040_17881)">
<path d="M43.3125 38.1565H0.687509C0.563068 38.1565 0.440958 38.1227 0.334203 38.0588C0.227447 37.9948 0.140051 37.9031 0.0813351 37.7934C0.0226192 37.6837 -0.00521382 37.5601 0.000804606 37.4358C0.00682303 37.3115 0.0464672 37.1911 0.115509 37.0876L6.99051 26.7751C7.04016 26.699 7.10441 26.6335 7.17952 26.5824C7.25463 26.5313 7.33913 26.4956 7.42812 26.4774C7.51712 26.4591 7.60885 26.4587 7.69801 26.4761C7.78718 26.4935 7.872 26.5285 7.94759 26.5789C8.02318 26.6292 8.08803 26.6941 8.1384 26.7697C8.18876 26.8453 8.22365 26.9302 8.24103 27.0194C8.25841 27.1085 8.25794 27.2002 8.23966 27.2892C8.22138 27.3782 8.18564 27.4627 8.13451 27.5378L1.97187 36.7815H42.0281L35.8655 27.5378C35.7665 27.3861 35.7313 27.2014 35.7677 27.0239C35.8041 26.8464 35.9091 26.6905 36.0599 26.59C36.2106 26.4895 36.3949 26.4526 36.5728 26.4872C36.7506 26.5219 36.9075 26.6253 37.0095 26.7751L43.8845 37.0876C43.9535 37.1911 43.9932 37.3115 43.9992 37.4358C44.0052 37.5601 43.9774 37.6837 43.9187 37.7934C43.86 37.9031 43.7726 37.9948 43.6658 38.0588C43.5591 38.1227 43.4369 38.1565 43.3125 38.1565Z" fill="white"/>
<path d="M43.3125 40.9062H0.6875C0.597202 40.9063 0.507779 40.8886 0.424344 40.854C0.34091 40.8195 0.2651 40.7689 0.201249 40.705C0.137399 40.6412 0.0867599 40.5653 0.052228 40.4819C0.0176962 40.3985 -5.14023e-05 40.309 1.11822e-07 40.2188V37.4688C-5.14023e-05 37.3785 0.0176962 37.289 0.052228 37.2056C0.0867599 37.1222 0.137399 37.0463 0.201249 36.9825C0.2651 36.9186 0.34091 36.868 0.424344 36.8335C0.507779 36.7989 0.597202 36.7812 0.6875 36.7813H43.3125C43.4028 36.7812 43.4922 36.7989 43.5757 36.8335C43.6591 36.868 43.7349 36.9186 43.7988 36.9825C43.8626 37.0463 43.9132 37.1222 43.9478 37.2056C43.9823 37.289 44.0001 37.3785 44 37.4688V40.2188C44.0001 40.309 43.9823 40.3985 43.9478 40.4819C43.9132 40.5653 43.8626 40.6412 43.7988 40.705C43.7349 40.7689 43.6591 40.8195 43.5757 40.854C43.4922 40.8886 43.4028 40.9063 43.3125 40.9062ZM1.375 39.5312H42.625V38.1563H1.375V39.5312Z" fill="white"/>
<path d="M6.77259 38.1566C6.65655 38.1565 6.54244 38.127 6.44088 38.0708C6.33933 38.0147 6.25363 37.9338 6.19177 37.8356C6.12992 37.7374 6.09391 37.6252 6.08712 37.5093C6.08032 37.3935 6.10295 37.2778 6.1529 37.1731L9.75758 29.6106C9.83637 29.4465 9.97703 29.3203 10.1487 29.2598C10.3204 29.1993 10.509 29.2093 10.6733 29.2877C10.8376 29.3661 10.9641 29.5065 11.025 29.678C11.0859 29.8496 11.0763 30.0383 10.9983 30.2027L7.39362 37.7652C7.33775 37.8825 7.24973 37.9816 7.1398 38.0509C7.02987 38.1202 6.90253 38.1568 6.77259 38.1566Z" fill="white"/>
<path d="M13.844 34.7189C13.7375 34.7188 13.6325 34.6941 13.5373 34.6466C13.442 34.5991 13.3591 34.5301 13.295 34.4452C13.2309 34.3602 13.1874 34.2615 13.1679 34.1568C13.1484 34.0522 13.1534 33.9444 13.1827 33.8421L14.1682 30.4046C14.193 30.3176 14.2346 30.2364 14.2907 30.1656C14.3468 30.0948 14.4164 30.0357 14.4954 29.9918C14.5744 29.9479 14.6612 29.92 14.751 29.9097C14.8408 29.8995 14.9317 29.907 15.0186 29.9319C15.1055 29.9568 15.1866 29.9986 15.2573 30.0548C15.328 30.1111 15.3869 30.1808 15.4307 30.2599C15.4744 30.339 15.5021 30.4259 15.5122 30.5157C15.5223 30.6055 15.5146 30.6964 15.4895 30.7832L14.5039 34.2207C14.463 34.3642 14.3765 34.4905 14.2574 34.5804C14.1383 34.6703 13.9932 34.7189 13.844 34.7189Z" fill="white"/>
<path d="M37.2268 38.1562C37.0969 38.1564 36.9696 38.1198 36.8596 38.0505C36.7497 37.9812 36.6617 37.8821 36.6058 37.7648L35.2939 35.0135C35.2549 34.932 35.2324 34.8436 35.2275 34.7534C35.2227 34.6632 35.2357 34.5729 35.2658 34.4877C35.2959 34.4026 35.3425 34.3242 35.4029 34.257C35.4633 34.1898 35.5364 34.1352 35.6179 34.0963C35.6994 34.0574 35.7878 34.035 35.878 34.0302C35.9682 34.0255 36.0585 34.0386 36.1436 34.0688C36.2288 34.099 36.3071 34.1456 36.3742 34.2061C36.4413 34.2666 36.4958 34.3397 36.5346 34.4213L37.8465 37.1727C37.8965 37.2774 37.9191 37.3931 37.9123 37.5089C37.9055 37.6248 37.8695 37.737 37.8077 37.8352C37.7458 37.9334 37.6601 38.0143 37.5586 38.0704C37.457 38.1266 37.3429 38.1561 37.2268 38.1562Z" fill="white"/>
<path d="M34.6052 32.6528C34.4752 32.653 34.3479 32.6163 34.238 32.547C34.128 32.4777 34.04 32.3787 33.9842 32.2614L31.692 27.4522C31.6532 27.3708 31.6307 27.2824 31.626 27.1923C31.6212 27.1021 31.6343 27.0119 31.6644 26.9268C31.6945 26.8417 31.7411 26.7634 31.8015 26.6963C31.8618 26.6292 31.9348 26.5747 32.0163 26.5358C32.0978 26.4969 32.1861 26.4744 32.2763 26.4697C32.3664 26.465 32.4566 26.478 32.5417 26.5081C32.6268 26.5382 32.7051 26.5848 32.7722 26.6452C32.8393 26.7056 32.8939 26.7786 32.9327 26.8601L35.2249 31.6692C35.2748 31.7739 35.2975 31.8896 35.2907 32.0055C35.2839 32.1213 35.2479 32.2335 35.186 32.3317C35.1241 32.4299 35.0385 32.5108 34.9369 32.567C34.8353 32.6231 34.7212 32.6526 34.6052 32.6528Z" fill="white"/>
<path d="M30.1609 34.7189C30.0117 34.7188 29.8666 34.6702 29.7475 34.5803C29.6284 34.4904 29.5418 34.3642 29.5009 34.2207L28.5153 30.7832C28.4902 30.6964 28.4825 30.6055 28.4926 30.5157C28.5027 30.4259 28.5304 30.339 28.5741 30.2599C28.6179 30.1808 28.6768 30.1111 28.7475 30.0548C28.8182 29.9986 28.8993 29.9568 28.9862 29.9319C29.0731 29.907 29.164 29.8995 29.2538 29.9097C29.3436 29.92 29.4304 29.9479 29.5094 29.9918C29.5884 30.0357 29.658 30.0948 29.7141 30.1656C29.7702 30.2364 29.8118 30.3176 29.8366 30.4046L30.8222 33.8421C30.8514 33.9444 30.8564 34.0522 30.8369 34.1568C30.8174 34.2615 30.7739 34.3602 30.7098 34.4451C30.6457 34.5301 30.5628 34.5991 30.4676 34.6466C30.3723 34.6941 30.2673 34.7188 30.1609 34.7189Z" fill="white"/>
<path d="M10.3785 30.5938H5.73047C5.54813 30.5938 5.37326 30.5213 5.24433 30.3924C5.1154 30.2635 5.04297 30.0886 5.04297 29.9062C5.04297 29.7239 5.1154 29.549 5.24433 29.4201C5.37326 29.2912 5.54813 29.2188 5.73047 29.2188H10.3785C10.5608 29.2188 10.7357 29.2912 10.8646 29.4201C10.9935 29.549 11.066 29.7239 11.066 29.9062C11.066 30.0886 10.9935 30.2635 10.8646 30.3924C10.7357 30.5213 10.5608 30.5938 10.3785 30.5938Z" fill="white"/>
<path d="M41.4752 35.4062H35.9141C35.7317 35.4062 35.5569 35.3338 35.4279 35.2049C35.299 35.076 35.2266 34.9011 35.2266 34.7188C35.2266 34.5364 35.299 34.3615 35.4279 34.2326C35.5569 34.1037 35.7317 34.0312 35.9141 34.0312H41.4752C41.6575 34.0312 41.8324 34.1037 41.9613 34.2326C42.0902 34.3615 42.1627 34.5364 42.1627 34.7188C42.1627 34.9011 42.0902 35.076 41.9613 35.2049C41.8324 35.3338 41.6575 35.4062 41.4752 35.4062Z" fill="white"/>
<path d="M39.6449 32.6562H34.6055C34.4231 32.6562 34.2483 32.5838 34.1193 32.4549C33.9904 32.326 33.918 32.1511 33.918 31.9688C33.918 31.7864 33.9904 31.6115 34.1193 31.4826C34.2483 31.3537 34.4231 31.2812 34.6055 31.2812H39.6449C39.8272 31.2812 40.0021 31.3537 40.131 31.4826C40.26 31.6115 40.3324 31.7864 40.3324 31.9688C40.3324 32.1511 40.26 32.326 40.131 32.4549C40.0021 32.5838 39.8272 32.6562 39.6449 32.6562Z" fill="white"/>
<path d="M20.6223 31.2812H14.8242C14.6419 31.2812 14.467 31.2088 14.3381 31.0799C14.2092 30.951 14.1367 30.7761 14.1367 30.5938C14.1367 30.4114 14.2092 30.2365 14.3381 30.1076C14.467 29.9787 14.6419 29.9062 14.8242 29.9062H20.6223C20.8046 29.9062 20.9795 29.9787 21.1084 30.1076C21.2374 30.2365 21.3098 30.4114 21.3098 30.5938C21.3098 30.7761 21.2374 30.951 21.1084 31.0799C20.9795 31.2088 20.8046 31.2812 20.6223 31.2812Z" fill="white"/>
<path d="M29.1718 31.2812H23.4375C23.2552 31.2812 23.0803 31.2088 22.9514 31.0799C22.8224 30.951 22.75 30.7761 22.75 30.5938C22.75 30.4114 22.8224 30.2365 22.9514 30.1076C23.0803 29.9787 23.2552 29.9062 23.4375 29.9062H29.1718C29.3542 29.9062 29.529 29.9787 29.658 30.1076C29.7869 30.2365 29.8593 30.4114 29.8593 30.5938C29.8593 30.7761 29.7869 30.951 29.658 31.0799C29.529 31.2088 29.3542 31.2812 29.1718 31.2812Z" fill="white"/>
<path d="M30.1611 34.7188H13.8438C13.6614 34.7188 13.4865 34.6463 13.3576 34.5174C13.2287 34.3885 13.1562 34.2136 13.1562 34.0312C13.1562 33.8489 13.2287 33.674 13.3576 33.5451C13.4865 33.4162 13.6614 33.3438 13.8438 33.3438H30.1611C30.3435 33.3438 30.5183 33.4162 30.6473 33.5451C30.7762 33.674 30.8486 33.8489 30.8486 34.0312C30.8486 34.2136 30.7762 34.3885 30.6473 34.5174C30.5183 34.6463 30.3435 34.7188 30.1611 34.7188Z" fill="white"/>
<path d="M22 32.6562C21.8332 32.6563 21.6722 32.5957 21.5468 32.4857C21.1165 32.1084 11 23.1407 11 14.0938C11 11.1764 12.1589 8.37848 14.2218 6.31558C16.2847 4.25268 19.0826 3.09375 22 3.09375C24.9174 3.09375 27.7153 4.25268 29.7782 6.31558C31.8411 8.37848 33 11.1764 33 14.0938C33 23.1407 22.8835 32.1084 22.4532 32.4857C22.3278 32.5957 22.1668 32.6563 22 32.6562ZM22 4.46875C19.4482 4.47161 17.0017 5.48659 15.1973 7.29101C13.3928 9.09542 12.3779 11.5419 12.375 14.0938C12.375 21.4736 20.0362 29.1805 22 31.0342C23.9638 29.1805 31.625 21.4736 31.625 14.0938C31.6221 11.5419 30.6072 9.09542 28.8027 7.29101C26.9983 5.48659 24.5518 4.47161 22 4.46875Z" fill="white"/>
<path d="M17.4809 27.8438H7.5625C7.38016 27.8438 7.2053 27.7713 7.07636 27.6424C6.94743 27.5135 6.875 27.3386 6.875 27.1562C6.875 26.9739 6.94743 26.799 7.07636 26.6701C7.2053 26.5412 7.38016 26.4688 7.5625 26.4688H17.4809C17.6632 26.4688 17.8381 26.5412 17.967 26.6701C18.096 26.799 18.1684 26.9739 18.1684 27.1562C18.1684 27.3386 18.096 27.5135 17.967 27.6424C17.8381 27.7713 17.6632 27.8438 17.4809 27.8438Z" fill="white"/>
<path d="M36.4386 27.8438H26.5195C26.3372 27.8438 26.1623 27.7713 26.0334 27.6424C25.9045 27.5135 25.832 27.3386 25.832 27.1562C25.832 26.9739 25.9045 26.799 26.0334 26.6701C26.1623 26.5412 26.3372 26.4688 26.5195 26.4688H36.4386C36.6209 26.4688 36.7958 26.5412 36.9247 26.6701C37.0537 26.799 37.1261 26.9739 37.1261 27.1562C37.1261 27.3386 37.0537 27.5135 36.9247 27.6424C36.7958 27.7713 36.6209 27.8438 36.4386 27.8438Z" fill="white"/>
<path d="M19.2491 23.031C19.0817 23.0307 18.9201 22.9694 18.7946 22.8586C18.6692 22.7477 18.5885 22.5949 18.5677 22.4287L17.1927 11.4287C17.1704 11.248 17.2208 11.0658 17.3327 10.9221C17.4446 10.7785 17.609 10.6851 17.7897 10.6625C17.9704 10.64 18.1527 10.69 18.2965 10.8017C18.4404 10.9134 18.534 11.0776 18.5569 11.2582L19.9319 22.2582C19.9545 22.4391 19.9043 22.6216 19.7924 22.7655C19.6805 22.9094 19.516 23.003 19.3351 23.0256C19.3065 23.0291 19.2778 23.0309 19.2491 23.031Z" fill="white"/>
<path d="M24.7506 23.031C24.7219 23.0309 24.6932 23.0291 24.6647 23.0256C24.4838 23.003 24.3193 22.9094 24.2073 22.7655C24.0954 22.6216 24.0452 22.4391 24.0678 22.2582L25.4428 11.2582C25.4657 11.0776 25.5593 10.9134 25.7032 10.8017C25.847 10.69 26.0293 10.64 26.21 10.6625C26.3907 10.6851 26.5551 10.7785 26.667 10.9221C26.779 11.0658 26.8293 11.248 26.8071 11.4287L25.4321 22.4287C25.4112 22.5949 25.3305 22.7477 25.2051 22.8586C25.0796 22.9694 24.918 23.0308 24.7506 23.031Z" fill="white"/>
<path d="M25.4375 23.0312H18.5625C18.3802 23.0312 18.2053 22.9588 18.0764 22.8299C17.9474 22.701 17.875 22.5261 17.875 22.3438C17.875 22.1614 17.9474 21.9865 18.0764 21.8576C18.2053 21.7287 18.3802 21.6562 18.5625 21.6562H25.4375C25.6198 21.6562 25.7947 21.7287 25.9236 21.8576C26.0526 21.9865 26.125 22.1614 26.125 22.3438C26.125 22.5261 26.0526 22.701 25.9236 22.8299C25.7947 22.9588 25.6198 23.0312 25.4375 23.0312Z" fill="white"/>
<path d="M26.125 12.0312H17.875C17.6927 12.0312 17.5178 11.9588 17.3889 11.8299C17.2599 11.701 17.1875 11.5261 17.1875 11.3438C17.1875 11.1614 17.2599 10.9865 17.3889 10.8576C17.5178 10.7287 17.6927 10.6562 17.875 10.6562H26.125C26.3073 10.6562 26.4822 10.7287 26.6111 10.8576C26.7401 10.9865 26.8125 11.1614 26.8125 11.3438C26.8125 11.5261 26.7401 11.701 26.6111 11.8299C26.4822 11.9588 26.3073 12.0312 26.125 12.0312Z" fill="white"/>
<path d="M17.875 12.0312C17.7847 12.0313 17.6953 12.0136 17.6118 11.979C17.5284 11.9445 17.4526 11.8939 17.3887 11.83C17.3249 11.7661 17.2743 11.6903 17.2397 11.6069C17.2052 11.5235 17.1874 11.434 17.1875 11.3438C17.1882 10.6146 17.4782 9.91558 17.9938 9.40001C18.5093 8.88444 19.2084 8.59448 19.9375 8.59375C20.1198 8.59375 20.2947 8.66618 20.4236 8.79511C20.5526 8.92405 20.625 9.09891 20.625 9.28125C20.625 9.46359 20.5526 9.63845 20.4236 9.76739C20.2947 9.89632 20.1198 9.96875 19.9375 9.96875C19.573 9.96922 19.2235 10.1142 18.9658 10.372C18.708 10.6298 18.563 10.9792 18.5625 11.3438C18.5626 11.434 18.5448 11.5235 18.5103 11.6069C18.4757 11.6903 18.4251 11.7661 18.3613 11.83C18.2974 11.8939 18.2216 11.9445 18.1382 11.979C18.0547 12.0136 17.9653 12.0313 17.875 12.0312Z" fill="white"/>
<path d="M26.125 12.0312C26.0347 12.0313 25.9453 12.0136 25.8618 11.979C25.7784 11.9445 25.7026 11.8939 25.6387 11.83C25.5749 11.7661 25.5243 11.6903 25.4897 11.6069C25.4552 11.5235 25.4374 11.434 25.4375 11.3438C25.437 10.9792 25.292 10.6298 25.0342 10.372C24.7765 10.1142 24.427 9.96922 24.0625 9.96875C23.8802 9.96875 23.7053 9.89632 23.5764 9.76739C23.4474 9.63845 23.375 9.46359 23.375 9.28125C23.375 9.09891 23.4474 8.92405 23.5764 8.79511C23.7053 8.66618 23.8802 8.59375 24.0625 8.59375C24.7916 8.59448 25.4907 8.88444 26.0062 9.40001C26.5218 9.91558 26.8118 10.6146 26.8125 11.3438C26.8126 11.434 26.7948 11.5235 26.7603 11.6069C26.7257 11.6903 26.6751 11.7661 26.6113 11.83C26.5474 11.8939 26.4716 11.9445 26.3882 11.979C26.3047 12.0136 26.2153 12.0313 26.125 12.0312Z" fill="white"/>
<path d="M24.0625 9.96875H19.9375C19.7552 9.96875 19.5803 9.89632 19.4514 9.76739C19.3224 9.63845 19.25 9.46359 19.25 9.28125C19.25 9.09891 19.3224 8.92405 19.4514 8.79511C19.5803 8.66618 19.7552 8.59375 19.9375 8.59375H24.0625C24.2448 8.59375 24.4197 8.66618 24.5486 8.79511C24.6776 8.92405 24.75 9.09891 24.75 9.28125C24.75 9.46359 24.6776 9.63845 24.5486 9.76739C24.4197 9.89632 24.2448 9.96875 24.0625 9.96875Z" fill="white"/>
<path d="M22 18.2188C21.5921 18.2188 21.1933 18.0978 20.8541 17.8712C20.515 17.6445 20.2506 17.3224 20.0945 16.9455C19.9384 16.5687 19.8975 16.154 19.9771 15.7539C20.0567 15.3538 20.2531 14.9863 20.5416 14.6978C20.83 14.4094 21.1975 14.213 21.5976 14.1334C21.9977 14.0538 22.4124 14.0946 22.7893 14.2507C23.1662 14.4069 23.4883 14.6712 23.7149 15.0104C23.9415 15.3496 24.0625 15.7483 24.0625 16.1563C24.0619 16.7031 23.8444 17.2273 23.4577 17.614C23.0711 18.0007 22.5468 18.2182 22 18.2188ZM22 15.4688C21.864 15.4688 21.7311 15.5091 21.618 15.5846C21.505 15.6602 21.4169 15.7675 21.3648 15.8932C21.3128 16.0188 21.2992 16.157 21.3257 16.2904C21.3522 16.4237 21.4177 16.5462 21.5139 16.6424C21.61 16.7385 21.7325 16.804 21.8659 16.8305C21.9992 16.8571 22.1375 16.8435 22.2631 16.7914C22.3887 16.7394 22.4961 16.6513 22.5716 16.5382C22.6472 16.4251 22.6875 16.2922 22.6875 16.1563C22.6874 15.974 22.6149 15.7992 22.486 15.6702C22.3571 15.5413 22.1823 15.4689 22 15.4688Z" fill="white"/>
</g>
<defs>
<clipPath id="clip0_1040_17881">
<rect width="44" height="44" fill="white"/>
</clipPath>
</defs>
</svg>
