<svg width="42" height="42" viewBox="0 0 42 42" fill="none" xmlns="http://www.w3.org/2000/svg">
<path d="M39.5371 33.9656L32.1871 26.6156C32.1262 26.5546 32.0538 26.5062 31.9742 26.4732C31.8945 26.4402 31.8091 26.4232 31.7228 26.4232C31.6366 26.4232 31.5512 26.4402 31.4715 26.4732C31.3919 26.5062 31.3195 26.5546 31.2585 26.6156L30.7946 27.0796L28.7694 25.0537C30.9367 21.9618 31.8659 18.1696 31.3736 14.4259C30.8813 10.6823 29.0032 7.25923 26.1102 4.83273C23.2172 2.40622 19.5196 1.15262 15.7473 1.31943C11.9751 1.48624 8.40255 3.06135 5.73502 5.73375C3.06047 8.40074 1.4835 11.9739 1.31569 15.7472C1.14788 19.5205 2.40143 23.2195 4.82867 26.1134C7.25591 29.0073 10.6803 30.8856 14.4252 31.3771C18.1701 31.8686 21.9632 30.9376 25.055 28.7681L27.0809 30.7933L26.6169 31.2573C26.5559 31.3182 26.5075 31.3906 26.4744 31.4703C26.4414 31.5499 26.4244 31.6353 26.4244 31.7216C26.4244 31.8078 26.4414 31.8932 26.4744 31.9729C26.5075 32.0525 26.5559 32.1249 26.6169 32.1859L33.9669 39.5359C34.7054 40.2744 35.707 40.6892 36.7514 40.6892C37.7957 40.6892 38.7973 40.2744 39.5358 39.5359C40.2743 38.7974 40.6892 37.7958 40.6892 36.7514C40.6892 35.707 40.2743 34.7054 39.5358 33.9669L39.5371 33.9656ZM6.66427 26.151C5.3845 24.8712 4.36933 23.3519 3.67672 21.6798C2.98411 20.0077 2.62763 18.2156 2.62763 16.4057C2.62763 14.5958 2.98411 12.8037 3.67672 11.1316C4.36933 9.45946 5.3845 7.94015 6.66427 6.66037C7.94404 5.3806 9.46335 4.36543 11.1355 3.67282C12.8076 2.98021 14.5997 2.62373 16.4096 2.62373C18.2195 2.62373 20.0116 2.98021 21.6837 3.67282C23.3558 4.36543 24.8751 5.3806 26.1549 6.66037C27.4347 7.94015 28.4498 9.45946 29.1424 11.1316C29.8351 12.8037 30.1915 14.5958 30.1915 16.4057C30.1915 18.2156 29.8351 20.0077 29.1424 21.6798C28.4498 23.3519 27.4347 24.8712 26.1549 26.151C24.8751 27.4308 23.3558 28.4459 21.6837 29.1385C20.0116 29.8312 18.2195 30.1876 16.4096 30.1876C14.5997 30.1876 12.8076 29.8312 11.1355 29.1385C9.46335 28.4459 7.94404 27.4308 6.66427 26.151ZM26.1083 27.9622C26.4417 27.6814 26.7698 27.3913 27.0815 27.0789C27.3932 26.7666 27.684 26.4391 27.9648 26.1057L29.868 28.0088L28.0121 29.8647L26.1083 27.9622ZM38.6092 38.6066C38.1163 39.098 37.4487 39.3739 36.7527 39.3739C36.0567 39.3739 35.3891 39.098 34.8961 38.6066L28.0101 31.7193L31.7219 28.0075L38.6092 34.8936C39.1006 35.3865 39.3765 36.0541 39.3765 36.7501C39.3765 37.4461 39.1006 38.1137 38.6092 38.6066Z" fill="white"/>
<path d="M23.9741 10.1443C23.3584 9.53145 22.525 9.18742 21.6563 9.1875H19.0313C18.8572 9.1875 18.6903 9.25664 18.5672 9.37971C18.4441 9.50278 18.375 9.6697 18.375 9.84375C18.375 10.3659 18.1676 10.8667 17.7984 11.2359C17.4292 11.6051 16.9284 11.8125 16.4063 11.8125C15.8841 11.8125 15.3833 11.6051 15.0141 11.2359C14.6449 10.8667 14.4375 10.3659 14.4375 9.84375C14.4375 9.6697 14.3684 9.50278 14.2453 9.37971C14.1222 9.25664 13.9553 9.1875 13.7813 9.1875H11.1563C10.7252 9.18707 10.2984 9.27165 9.90006 9.43639C9.50177 9.60114 9.13987 9.84282 8.83509 10.1476C8.53032 10.4524 8.28864 10.8143 8.12389 11.2126C7.95915 11.6109 7.87457 12.0377 7.875 12.4688V15.0938C7.875 15.2678 7.94414 15.4347 8.06721 15.5578C8.19028 15.6809 8.3572 15.75 8.53125 15.75H10.5V22.9688C10.5 23.1428 10.5691 23.3097 10.6922 23.4328C10.8153 23.5559 10.9822 23.625 11.1563 23.625H21.6563C21.8303 23.625 21.9972 23.5559 22.1203 23.4328C22.2434 23.3097 22.3125 23.1428 22.3125 22.9688V15.75H24.2813C24.4553 15.75 24.6222 15.6809 24.7453 15.5578C24.8684 15.4347 24.9375 15.2678 24.9375 15.0938V12.4688C24.937 11.5969 24.5905 10.7609 23.9741 10.1443ZM23.625 14.4375H22.3125V13.7813C22.3125 13.6072 22.2434 13.4403 22.1203 13.3172C21.9972 13.1941 21.8303 13.125 21.6563 13.125C21.4822 13.125 21.3153 13.1941 21.1922 13.3172C21.0691 13.4403 21 13.6072 21 13.7813V22.3125H11.8125V13.7813C11.8125 13.6072 11.7434 13.4403 11.6203 13.3172C11.4972 13.1941 11.3303 13.125 11.1563 13.125C10.9822 13.125 10.8153 13.1941 10.6922 13.3172C10.5691 13.4403 10.5 13.6072 10.5 13.7813V14.4375H9.1875V12.4688C9.18698 12.2101 9.23755 11.9538 9.33631 11.7147C9.43506 11.4756 9.58006 11.2584 9.76298 11.0755C9.9459 10.8926 10.1631 10.7476 10.4022 10.6488C10.6413 10.5501 10.8976 10.4995 11.1563 10.5H13.1906C13.3412 11.2418 13.7437 11.9086 14.3297 12.3876C14.9157 12.8666 15.6494 13.1283 16.4063 13.1283C17.1631 13.1283 17.8968 12.8666 18.4828 12.3876C19.0688 11.9086 19.4713 11.2418 19.6219 10.5H21.6563C21.9149 10.4995 22.1712 10.5501 22.4103 10.6488C22.6494 10.7476 22.8666 10.8926 23.0495 11.0755C23.2324 11.2584 23.3774 11.4756 23.4762 11.7147C23.575 11.9538 23.6255 12.2101 23.625 12.4688V14.4375Z" fill="white"/>
</svg>
