<svg width="110" height="110" viewBox="0 0 110 110" fill="none" xmlns="http://www.w3.org/2000/svg">
<circle cx="55" cy="55" r="55" fill="#FFBE2E"/>
<g clip-path="url(#clip0_3197_24077)">
<circle cx="55" cy="58" r="26" fill="white"/>
<path d="M73.4219 43.3426V35.7198L68.4755 34.5694C68.3431 34.2099 68.1961 33.8575 68.0364 33.5121L70.7213 29.2L65.3312 23.8098L61.019 26.4948C60.6737 26.335 60.3212 26.188 59.9618 26.0557L58.8114 21.1094H51.1885L50.0382 26.0557C49.6786 26.1882 49.3262 26.3351 48.981 26.4948L44.6688 23.8098L39.2787 29.2L41.9636 33.5121C41.8039 33.8575 41.6569 34.2099 41.5245 34.5694L36.5781 35.7199V43.3428L41.5245 44.4931C41.6569 44.8526 41.8039 45.205 41.9636 45.5504L39.2787 49.8625L44.6688 55.2527L48.981 52.5677C49.3263 52.7275 49.6788 52.8745 50.0382 53.0068L51.1885 57.9531H58.8114L59.9617 53.0068C60.3212 52.8743 60.6737 52.7274 61.0189 52.5677L65.331 55.2527L70.7212 49.8625L68.0362 45.5504C68.196 45.205 68.3429 44.8526 68.4754 44.4931L73.4219 43.3426Z" stroke="black" stroke-width="4" strokeMiterlimit="10" stroke-linecap="round" stroke-linejoin="round"/>
<path d="M55 45.2969C58.1843 45.2969 60.7656 42.7155 60.7656 39.5312C60.7656 36.347 58.1843 33.7656 55 33.7656C51.8157 33.7656 49.2344 36.347 49.2344 39.5312C49.2344 42.7155 51.8157 45.2969 55 45.2969Z" stroke="black" stroke-width="4" strokeMiterlimit="10" stroke-linecap="round" stroke-linejoin="round"/>
<path d="M80.4531 88.8906H29.5469C24.887 88.8906 21.1094 85.113 21.1094 80.4531C21.1094 75.7932 24.887 72.0156 29.5469 72.0156H80.4531C85.113 72.0156 88.8906 75.7932 88.8906 80.4531C88.8906 85.113 85.113 88.8906 80.4531 88.8906Z" stroke="black" stroke-width="4" strokeMiterlimit="10" stroke-linecap="round" stroke-linejoin="round"/>
<circle cx="59.4717" cy="80.4531" r="2.10938" fill="black"/>
<circle cx="50.5283" cy="80.4531" r="2.10938" fill="black"/>
<circle cx="41.584" cy="80.4531" r="2.10938" fill="black"/>
<circle cx="32.6406" cy="80.4531" r="2.10938" fill="black"/>
<circle cx="68.416" cy="80.4531" r="2.10938" fill="black"/>
<circle cx="77.3594" cy="80.4531" r="2.10938" fill="black"/>
<path d="M28.1406 39.5312H24.9916C22.8475 39.5312 21.1094 41.2694 21.1094 43.4135V54.0156L32.6406 72.0156" stroke="black" stroke-width="4" strokeMiterlimit="10" stroke-linecap="round" stroke-linejoin="round"/>
<path d="M77.3594 72.0156L88.8906 54.0156V43.4135C88.8906 41.2694 87.1525 39.5312 85.0084 39.5312H81.8594" stroke="black" stroke-width="4" strokeMiterlimit="10" stroke-linecap="round" stroke-linejoin="round"/>
</g>
<defs>
<clipPath id="clip0_3197_24077">
<rect width="72" height="72" fill="white" transform="translate(19 19)"/>
</clipPath>
</defs>
</svg>
