<svg width="42" height="42" viewBox="0 0 42 42" fill="none" xmlns="http://www.w3.org/2000/svg">
<path d="M29.1692 25.4275V40.4239H6.05078V33.1892" stroke="white" stroke-width="1.23047" stroke-miterlimit="10" stroke-linecap="round" stroke-linejoin="round"/>
<path d="M25.2044 30.696H2.08594L6.04755 25.1934H29.1659L25.2044 30.696Z" stroke="white" stroke-width="1.23047" stroke-miterlimit="10" stroke-linecap="round" stroke-linejoin="round"/>
<path d="M32.0102 30.696H39.5475L36.7013 25.1934H29.1641L32.0102 30.696Z" stroke="white" stroke-width="1.23047" stroke-miterlimit="10" stroke-linecap="round" stroke-linejoin="round"/>
<path d="M36.6207 33.1895V40.4241H29.1641" stroke="white" stroke-width="1.23047" stroke-miterlimit="10" stroke-linecap="round" stroke-linejoin="round"/>
<path d="M20.034 7.05573C20.034 7.05573 21.3609 17.7516 21.9124 20.8322C13.0476 23.2736 6.72656 20.8322 6.72656 20.8322C7.27814 17.7515 8.6753 6.92383 8.6753 6.92383" stroke="white" stroke-width="1.23047" stroke-miterlimit="10" stroke-linecap="round" stroke-linejoin="round"/>
<path d="M7.85329 11.9122C5.68176 11.5884 3.0625 9.66145 3.0625 9.66145L7.14011 2.04608L10.9528 1.15137L11.9088 2.49627C13.0748 4.13657 15.5195 4.10933 16.6487 2.44352L17.5245 1.15137L21.4245 2.04608L25.5021 9.66145C25.5021 9.66145 22.8266 11.5884 20.6551 11.9122" stroke="white" stroke-width="1.23047" stroke-miterlimit="10" stroke-linecap="round" stroke-linejoin="round"/>
<path d="M24.4844 21.9177H32.0745C32.979 21.9177 33.7122 22.651 33.7122 23.5555C33.7122 24.46 32.979 25.1932 32.0745 25.1932" stroke="white" stroke-width="1.23047" stroke-miterlimit="10" stroke-linecap="round" stroke-linejoin="round"/>
<path d="M24.4844 18.6421H32.0745C32.979 18.6421 33.7122 19.3754 33.7122 20.2798C33.7122 21.1844 32.979 21.9176 32.0745 21.9176" stroke="white" stroke-width="1.23047" stroke-miterlimit="10" stroke-linecap="round" stroke-linejoin="round"/>
<path d="M24.2344 15.3662H32.0784C32.9829 15.3662 33.7161 16.0995 33.7161 17.004C33.7161 17.9085 32.9828 18.6417 32.0784 18.6417" stroke="white" stroke-width="1.23047" stroke-miterlimit="10" stroke-linecap="round" stroke-linejoin="round"/>
</svg>
