<svg width="120" height="40" viewBox="0 0 120 40" fill="none" xmlns="http://www.w3.org/2000/svg">
<g clip-path="url(#clip0_7067_15349)">
<path d="M5.83645 21.2099C4.68055 21.2099 3.66304 20.9574 2.78391 20.4524C1.90478 19.9312 1.22101 19.2144 0.732605 18.302C0.244199 17.3736 0 16.3066 0 15.101C0 13.6512 0.358164 12.3805 1.0745 11.2892C1.8071 10.1977 2.84088 9.35871 4.17586 8.77223C5.52712 8.1859 7.1063 7.89266 8.9134 7.89266C9.74369 7.89266 10.4193 7.94963 10.9403 8.06371V7.55057C10.9403 6.31247 10.7124 5.39206 10.2565 4.78933C9.80068 4.1703 9.10877 3.86078 8.18078 3.86078C6.68301 3.86078 5.72248 4.65086 5.29921 6.231C5.16896 6.68714 4.90034 6.88263 4.49333 6.81746L1.17218 6.231C0.927963 6.18214 0.757027 6.07626 0.659346 5.91336C0.577948 5.75045 0.569804 5.53054 0.634939 5.2536C1.05822 3.59199 1.95364 2.30506 3.32116 1.39281C4.70499 0.464271 6.43883 0 8.52269 0C10.9973 0 12.8776 0.667899 14.1638 2.0037C15.4662 3.3395 16.1174 5.28617 16.1174 7.84381V20.1348C16.1174 20.314 16.0523 20.4686 15.9221 20.5989C15.8081 20.713 15.6615 20.77 15.4824 20.77H12.3078C11.9171 20.77 11.6729 20.5582 11.5752 20.1348L11.0868 17.8379H10.8915C10.4519 18.913 9.79255 19.7437 8.91342 20.3302C8.05057 20.9167 7.0249 21.2099 5.83645 21.2099ZM5.32361 14.5145C5.32361 15.378 5.5434 16.0703 5.98296 16.5916C6.43882 17.0966 7.04931 17.3491 7.81448 17.3491C8.82386 17.3491 9.59717 16.9011 10.1344 16.0051C10.6717 15.0929 10.9403 13.7896 10.9403 12.0956V10.8004C10.4844 10.719 10.053 10.6782 9.64601 10.6782C8.31103 10.6782 7.25282 11.0284 6.47137 11.729C5.7062 12.4132 5.32361 13.3417 5.32361 14.5145ZM19.1454 1.07514C19.1454 0.895954 19.2025 0.74935 19.3164 0.635315C19.4466 0.504987 19.6013 0.439831 19.7804 0.439831H23.0039C23.1829 0.439831 23.3295 0.49684 23.4434 0.610875C23.5738 0.724909 23.655 0.879661 23.6876 1.07514L24.1761 3.46981H24.3714C24.8111 2.34579 25.4377 1.49055 26.2519 0.904101C27.0821 0.301357 28.0589 0 29.1822 0C30.387 0 31.4207 0.31765 32.2835 0.952979C33.1627 1.58829 33.8384 2.49241 34.3105 3.6653H34.5059C35.2222 2.42724 36.0281 1.50684 36.9235 0.904101C37.8189 0.301357 38.8201 0 39.9271 0C41.132 0 42.1738 0.325796 43.053 0.977404C43.9484 1.62903 44.6321 2.55756 45.1043 3.76304C45.5764 4.96852 45.8125 6.39392 45.8125 8.03921V20.1348C45.8125 20.314 45.7473 20.4686 45.6171 20.5989C45.5031 20.713 45.3566 20.77 45.1776 20.77H41.2703C41.0912 20.77 40.9365 20.713 40.8063 20.5989C40.6923 20.4686 40.6354 20.314 40.6354 20.1348V8.43014C40.6354 7.24095 40.4075 6.32875 39.9516 5.69343C39.4957 5.05812 38.8364 4.74046 37.9735 4.74046C37.0293 4.74046 36.3048 5.11513 35.8001 5.86448C35.3118 6.61383 35.0675 7.69712 35.0675 9.11432V20.1348C35.0675 20.314 35.0023 20.4686 34.8721 20.5989C34.7583 20.713 34.6116 20.77 34.4326 20.77H30.5253C30.3463 20.77 30.1916 20.713 30.0613 20.5989C29.9473 20.4686 29.8904 20.314 29.8904 20.1348V8.43014C29.8904 7.24095 29.6625 6.32875 29.2066 5.69343C28.7508 5.05812 28.0915 4.74046 27.2287 4.74046C26.2843 4.74046 25.5599 5.11513 25.0551 5.86448C24.5668 6.61383 24.3226 7.69712 24.3226 9.11432V20.1348C24.3226 20.314 24.2575 20.4686 24.1273 20.5989C24.0133 20.713 23.8667 20.77 23.6876 20.77H19.7804C19.6013 20.77 19.4466 20.713 19.3164 20.5989C19.2025 20.4686 19.1454 20.314 19.1454 20.1348V1.07514ZM48.3521 15.101C48.3521 13.6512 48.7103 12.3805 49.4267 11.2892C50.1593 10.1977 51.193 9.35871 52.5281 8.77223C53.8792 8.1859 55.4585 7.89266 57.2655 7.89266C58.0959 7.89266 58.7715 7.94963 59.2925 8.06371V7.55057C59.2925 6.31247 59.0645 5.39206 58.6087 4.78933C58.1528 4.1703 57.461 3.86078 56.533 3.86078C55.0352 3.86078 54.0746 4.65086 53.6513 6.231C53.5211 6.68714 53.2525 6.88263 52.8455 6.81746L49.5243 6.231C49.2801 6.18214 49.1091 6.07626 49.0115 5.91336C48.9301 5.75045 48.922 5.53054 48.987 5.2536C49.4103 3.59199 50.3057 2.30506 51.6734 1.39281C53.0571 0.464271 54.791 0 56.8748 0C59.3494 0 61.2297 0.667899 62.516 2.0037C63.8183 3.3395 64.4696 5.28617 64.4696 7.84381V20.1348C64.4696 20.314 64.4044 20.4686 64.2742 20.5989C64.1602 20.713 64.0137 20.77 63.8347 20.77H60.66C60.2693 20.77 60.025 20.5582 59.9274 20.1348L59.4389 17.8379H59.2436C58.804 18.913 58.1447 19.7437 57.2655 20.3302C56.4027 20.9167 55.3771 21.2099 54.1886 21.2099C53.0002 21.2099 52.0153 20.9574 51.1361 20.4524C50.2569 19.9312 49.5731 19.2144 49.0848 18.302C48.5963 17.3736 48.3521 16.3066 48.3521 15.101ZM53.6758 14.5145C53.6758 15.378 53.8956 16.0703 54.3351 16.5916C54.791 17.0966 55.4014 17.3491 56.1666 17.3491C57.176 17.3491 57.9493 16.9011 58.4866 16.0051C59.0237 15.0929 59.2925 13.7896 59.2925 12.0956V10.8004C58.8366 10.719 58.4052 10.6782 57.9981 10.6782C56.6632 10.6782 55.605 11.0284 54.8236 11.729C54.0584 12.4132 53.6758 13.3417 53.6758 14.5145ZM67.107 17.1781C67.107 16.8197 67.2046 16.5101 67.4 16.2495L75.7517 4.54497H67.9372C67.7581 4.54497 67.6034 4.48796 67.4732 4.37393C67.3593 4.2436 67.3023 4.08885 67.3023 3.90966V1.07514C67.3023 0.895954 67.3593 0.74935 67.4732 0.635315C67.6034 0.504987 67.7581 0.439831 67.9372 0.439831H80.7822C80.9614 0.439831 81.1079 0.504987 81.2219 0.635315C81.3521 0.74935 81.4172 0.895954 81.4172 1.07514V4.03182C81.4172 4.39022 81.3195 4.69972 81.1241 4.96038L73.5538 15.3698C74.0097 15.2885 74.4737 15.2477 74.9458 15.2477C76.1181 15.2477 77.1925 15.3535 78.1693 15.5653C79.1624 15.7609 80.188 16.0866 81.2462 16.5427C81.6207 16.7057 81.8079 16.9825 81.8079 17.3736V20.1837C81.8079 20.4443 81.7266 20.6234 81.5638 20.7211C81.401 20.8026 81.1974 20.7945 80.9532 20.6968C79.7323 20.2406 78.6496 19.923 77.7053 19.7437C76.7773 19.5483 75.7598 19.4505 74.6528 19.4505C73.5457 19.4505 72.4875 19.5483 71.4293 19.7437C70.3874 19.9393 69.2316 20.2568 67.9617 20.6968C67.7174 20.7782 67.5139 20.7782 67.3511 20.6968C67.1884 20.5989 67.107 20.4279 67.107 20.1837V17.1781ZM82.8825 10.6049C82.8825 8.61757 83.2651 6.81746 84.0302 5.20473C84.7954 3.5757 85.8454 2.30506 87.1804 1.39281C88.5317 0.464271 90.0295 0 91.6736 0C93.318 0 94.8321 0.464271 96.167 1.39281C97.5183 2.30506 98.5765 3.5757 99.3417 5.20473C100.123 6.81746 100.514 8.61757 100.514 10.6049C100.514 12.5923 100.123 14.4006 99.3417 16.0296C98.5765 17.6423 97.5183 18.913 96.167 19.8416C94.8321 20.7538 93.3344 21.2099 91.6736 21.2099C90.0131 21.2099 88.5317 20.7538 87.1804 19.8416C85.8454 18.913 84.7954 17.6423 84.0302 16.0296C83.2651 14.4006 82.8825 12.5923 82.8825 10.6049ZM88.2549 10.6049C88.2549 12.6738 88.5479 14.2703 89.1341 15.3943C89.7202 16.502 90.5666 17.0559 91.6736 17.0559C92.7808 17.0559 93.6355 16.502 94.2379 15.3943C94.8402 14.2703 95.1414 12.6738 95.1414 10.6049C95.1414 8.53611 94.8402 6.94778 94.2379 5.84006C93.6355 4.71602 92.7808 4.154 91.6736 4.154C90.5666 4.154 89.7202 4.71602 89.1341 5.84006C88.5479 6.94778 88.2549 8.53611 88.2549 10.6049ZM103.151 1.07514C103.151 0.895954 103.208 0.74935 103.322 0.635315C103.453 0.504987 103.607 0.439831 103.786 0.439831H107.01C107.189 0.439831 107.335 0.49684 107.449 0.610875C107.58 0.724909 107.661 0.879661 107.693 1.07514L108.182 3.46981H108.377C108.817 2.36208 109.46 1.50684 110.306 0.904101C111.169 0.301357 112.179 0 113.335 0C114.572 0 115.638 0.325796 116.534 0.977404C117.445 1.62903 118.145 2.55756 118.634 3.76304C119.122 4.96852 119.366 6.39392 119.366 8.03921V20.1348C119.366 20.314 119.301 20.4686 119.171 20.5989C119.057 20.713 118.91 20.77 118.731 20.77H114.824C114.645 20.77 114.49 20.713 114.36 20.5989C114.246 20.4686 114.189 20.314 114.189 20.1348V8.43014C114.189 7.24095 113.945 6.32875 113.457 5.69343C112.968 5.05812 112.276 4.74046 111.381 4.74046C110.388 4.74046 109.631 5.11513 109.11 5.86448C108.589 6.61383 108.328 7.69712 108.328 9.11432V20.1348C108.328 20.314 108.263 20.4686 108.133 20.5989C108.019 20.713 107.873 20.77 107.693 20.77H103.786C103.607 20.77 103.453 20.713 103.322 20.5989C103.208 20.4686 103.151 20.314 103.151 20.1348V1.07514Z" fill="#171D27"/>
<path d="M13.579 23.5795C13.2697 23.8239 13.2046 24.231 13.3837 24.8013C13.5465 25.3063 13.929 25.9333 14.5314 26.6828C16.9571 29.6802 19.8468 32.1726 23.2006 34.16C26.5543 36.1475 30.1442 37.6135 33.97 38.5583C37.8121 39.5195 41.7356 40 45.7405 40C50.8688 40 55.7528 39.2508 60.3927 37.7519C65.0325 36.2695 68.9072 34.1844 72.0168 31.4965C73.1075 30.5355 73.6529 29.7698 73.6529 29.1996C73.6529 28.9878 73.5634 28.776 73.3843 28.5642C73.1401 28.32 72.847 28.2385 72.5051 28.32C72.1633 28.4013 71.683 28.605 71.0643 28.9308C68.0851 30.4947 64.4547 31.7409 60.1729 32.6695C55.9076 33.6143 51.4549 34.0867 46.8151 34.0867C41.0682 34.0867 35.5166 33.3048 30.1604 31.7409C24.8042 30.177 20.0585 27.7335 15.9234 24.4103C15.321 23.9379 14.8325 23.6364 14.4581 23.5061C14.1 23.3758 13.8069 23.4003 13.579 23.5795Z" fill="#FF6201"/>
<path d="M67.8396 24.8025C67.4977 25.1283 67.4082 25.4704 67.571 25.8289C67.685 26.0895 67.9048 26.236 68.2304 26.2687C68.5559 26.3175 69.0199 26.2849 69.6222 26.171C70.5991 25.9592 71.6166 25.8125 72.6748 25.731C73.733 25.666 74.6529 25.6822 75.4343 25.7799C76.2159 25.894 76.7042 26.0895 76.8996 26.3664C77.1927 26.8063 77.0868 27.7347 76.5821 29.1521C76.0937 30.5693 75.4262 31.9457 74.5796 33.2816C74.254 33.8191 74.0587 34.2427 73.9935 34.5523C73.9285 34.8618 74.0099 35.1224 74.2378 35.3342C74.3842 35.4807 74.547 35.5541 74.7261 35.5541C75.1983 35.5541 75.8821 35.1386 76.7775 34.3079C78.3892 32.9069 79.5206 31.2453 80.1719 29.3231C80.53 28.3293 80.7498 27.2868 80.8312 26.1953C80.9126 25.104 80.7905 24.3219 80.4648 23.8495C80.1556 23.3934 79.4718 23.0187 78.4136 22.7256C77.3717 22.4323 76.3216 22.2856 75.2634 22.2856C73.1957 22.2856 71.234 22.7744 69.3782 23.7518C68.6944 24.1266 68.1816 24.4768 67.8396 24.8025Z" fill="#FF6201"/>
</g>
<defs>
<clipPath id="clip0_7067_15349">
<rect width="119.366" height="40" fill="white"/>
</clipPath>
</defs>
</svg>
