<svg width="1158" height="395" viewBox="0 0 1158 395" fill="none" xmlns="http://www.w3.org/2000/svg">
<g filter="url(#filter0_d_1306_65707)">
<path d="M288.676 15.5H338.32C343.39 15.5 347.5 19.6099 347.5 24.6797V81.0629C347.5 87.6903 342.127 93.0629 335.5 93.0629H299.11C294.571 93.0629 290.892 96.7424 290.892 101.281C290.892 105.82 287.212 109.5 282.673 109.5H27.5C20.8726 109.5 15.5 104.127 15.5 97.5V49.5874C15.5 42.96 20.8726 37.5874 27.5 37.5874H266.588C272.688 37.5874 277.632 32.643 277.632 26.5437C277.632 20.4444 282.577 15.5 288.676 15.5Z" fill="#FFBE2E"/>
<path d="M288.676 15.5H338.32C343.39 15.5 347.5 19.6099 347.5 24.6797V81.0629C347.5 87.6903 342.127 93.0629 335.5 93.0629H299.11C294.571 93.0629 290.892 96.7424 290.892 101.281C290.892 105.82 287.212 109.5 282.673 109.5H27.5C20.8726 109.5 15.5 104.127 15.5 97.5V49.5874C15.5 42.96 20.8726 37.5874 27.5 37.5874H266.588C272.688 37.5874 277.632 32.643 277.632 26.5437C277.632 20.4444 282.577 15.5 288.676 15.5Z" stroke="#212121"/>
</g>
<circle cx="347.5" cy="59.5" r="4" fill="#3C2C0B"/>
<path d="M348.5 59.5H439.465C447.594 59.5 455.162 63.6292 459.648 70.4083C474.489 92.8319 484.388 106.405 501 132" stroke="#3C2C0B" stroke-linecap="round" stroke-linejoin="round" stroke-dasharray="4 4"/>
<g filter="url(#filter1_d_1306_65707)">
<path d="M867.324 15.5H817.68C812.61 15.5 808.5 19.6099 808.5 24.6797V81.0629C808.5 87.6903 813.873 93.0629 820.5 93.0629H856.89C861.429 93.0629 865.108 96.7424 865.108 101.281C865.108 105.82 868.788 109.5 873.327 109.5H1128.5C1135.13 109.5 1140.5 104.127 1140.5 97.5V49.5874C1140.5 42.96 1135.13 37.5874 1128.5 37.5874H889.412C883.312 37.5874 878.368 32.643 878.368 26.5437C878.368 20.4444 873.423 15.5 867.324 15.5Z" fill="#FFBE2E"/>
<path d="M867.324 15.5H817.68C812.61 15.5 808.5 19.6099 808.5 24.6797V81.0629C808.5 87.6903 813.873 93.0629 820.5 93.0629H856.89C861.429 93.0629 865.108 96.7424 865.108 101.281C865.108 105.82 868.788 109.5 873.327 109.5H1128.5C1135.13 109.5 1140.5 104.127 1140.5 97.5V49.5874C1140.5 42.96 1135.13 37.5874 1128.5 37.5874H889.412C883.312 37.5874 878.368 32.643 878.368 26.5437C878.368 20.4444 873.423 15.5 867.324 15.5Z" stroke="#212121"/>
</g>
<path d="M808 56.5H717.035C708.906 56.5 701.267 60.5924 697.079 67.5598C684.074 89.1948 680.537 100.52 664 126" stroke="#3C2C0B" stroke-linecap="round" stroke-linejoin="round" stroke-dasharray="4 4"/>
<circle cx="808.5" cy="56.5" r="4" fill="#3C2C0B"/>
<g filter="url(#filter2_d_1306_65707)">
<path d="M817.324 150.5H767.68C762.61 150.5 758.5 154.61 758.5 159.68V216.063C758.5 222.69 763.873 228.063 770.5 228.063H806.89C811.429 228.063 815.108 231.742 815.108 236.281C815.108 240.82 818.788 244.5 823.327 244.5H1078.5C1085.13 244.5 1090.5 239.127 1090.5 232.5V184.587C1090.5 177.96 1085.13 172.587 1078.5 172.587H839.412C833.312 172.587 828.368 167.643 828.368 161.544C828.368 155.444 823.423 150.5 817.324 150.5Z" fill="#FFBE2E"/>
<path d="M817.324 150.5H767.68C762.61 150.5 758.5 154.61 758.5 159.68V216.063C758.5 222.69 763.873 228.063 770.5 228.063H806.89C811.429 228.063 815.108 231.742 815.108 236.281C815.108 240.82 818.788 244.5 823.327 244.5H1078.5C1085.13 244.5 1090.5 239.127 1090.5 232.5V184.587C1090.5 177.96 1085.13 172.587 1078.5 172.587H839.412C833.312 172.587 828.368 167.643 828.368 161.544C828.368 155.444 823.423 150.5 817.324 150.5Z" stroke="#212121"/>
</g>
<line x1="694" y1="192" x2="758" y2="192" stroke="#3C2C0B" stroke-linecap="round" stroke-linejoin="round" stroke-dasharray="4 4"/>
<circle cx="758.5" cy="191.5" r="4" fill="#3C2C0B"/>
<g filter="url(#filter3_d_1306_65707)">
<path d="M869.324 285.5H819.68C814.61 285.5 810.5 289.61 810.5 294.68V351.063C810.5 357.69 815.873 363.063 822.5 363.063H858.89C863.429 363.063 867.108 366.742 867.108 371.281C867.108 375.82 870.788 379.5 875.327 379.5H1130.5C1137.13 379.5 1142.5 374.127 1142.5 367.5V319.587C1142.5 312.96 1137.13 307.587 1130.5 307.587H891.412C885.312 307.587 880.368 302.643 880.368 296.544C880.368 290.444 875.423 285.5 869.324 285.5Z" fill="#FFBE2E"/>
<path d="M869.324 285.5H819.68C814.61 285.5 810.5 289.61 810.5 294.68V351.063C810.5 357.69 815.873 363.063 822.5 363.063H858.89C863.429 363.063 867.108 366.742 867.108 371.281C867.108 375.82 870.788 379.5 875.327 379.5H1130.5C1137.13 379.5 1142.5 374.127 1142.5 367.5V319.587C1142.5 312.96 1137.13 307.587 1130.5 307.587H891.412C885.312 307.587 880.368 302.643 880.368 296.544C880.368 290.444 875.423 285.5 869.324 285.5Z" stroke="#212121"/>
</g>
<path d="M810.5 329.5H718.183C710.623 329.5 703.504 325.937 698.972 319.885L657.5 264.5" stroke="#3C2C0B" stroke-linecap="round" stroke-linejoin="round" stroke-dasharray="4 4"/>
<circle cx="810.5" cy="329.5" r="4" fill="#3C2C0B"/>
<g filter="url(#filter4_d_1306_65707)">
<path d="M288.676 285.5H338.32C343.39 285.5 347.5 289.61 347.5 294.68V351.063C347.5 357.69 342.127 363.063 335.5 363.063H299.11C294.571 363.063 290.892 366.742 290.892 371.281C290.892 375.82 287.212 379.5 282.673 379.5H27.5C20.8726 379.5 15.5 374.127 15.5 367.5V319.587C15.5 312.96 20.8726 307.587 27.5 307.587H266.588C272.688 307.587 277.632 302.643 277.632 296.544C277.632 290.444 282.577 285.5 288.676 285.5Z" fill="#FFBE2E"/>
<path d="M288.676 285.5H338.32C343.39 285.5 347.5 289.61 347.5 294.68V351.063C347.5 357.69 342.127 363.063 335.5 363.063H299.11C294.571 363.063 290.892 366.742 290.892 371.281C290.892 375.82 287.212 379.5 282.673 379.5H27.5C20.8726 379.5 15.5 374.127 15.5 367.5V319.587C15.5 312.96 20.8726 307.587 27.5 307.587H266.588C272.688 307.587 277.632 302.643 277.632 296.544C277.632 290.444 282.577 285.5 288.676 285.5Z" stroke="#212121"/>
</g>
<path d="M348.5 325.5H441.274C448.576 325.5 455.48 322.176 460.034 316.469L501.5 264.5" stroke="#3C2C0B" stroke-linecap="round" stroke-linejoin="round" stroke-dasharray="4 4"/>
<circle cx="347.5" cy="325.5" r="4" fill="#3C2C0B"/>
<g filter="url(#filter5_d_1306_65707)">
<path d="M340.676 150.5H390.32C395.39 150.5 399.5 154.61 399.5 159.68V216.063C399.5 222.69 394.127 228.063 387.5 228.063H351.11C346.571 228.063 342.892 231.742 342.892 236.281C342.892 240.82 339.212 244.5 334.673 244.5H79.5C72.8726 244.5 67.5 239.127 67.5 232.5V184.587C67.5 177.96 72.8726 172.587 79.5 172.587H318.588C324.688 172.587 329.632 167.643 329.632 161.544C329.632 155.444 334.577 150.5 340.676 150.5Z" fill="#FFBE2E"/>
<path d="M340.676 150.5H390.32C395.39 150.5 399.5 154.61 399.5 159.68V216.063C399.5 222.69 394.127 228.063 387.5 228.063H351.11C346.571 228.063 342.892 231.742 342.892 236.281C342.892 240.82 339.212 244.5 334.673 244.5H79.5C72.8726 244.5 67.5 239.127 67.5 232.5V184.587C67.5 177.96 72.8726 172.587 79.5 172.587H318.588C324.688 172.587 329.632 167.643 329.632 161.544C329.632 155.444 334.577 150.5 340.676 150.5Z" stroke="#212121"/>
</g>
<line x1="400" y1="192" x2="466" y2="192" stroke="#3C2C0B" stroke-linecap="round" stroke-linejoin="round" stroke-dasharray="4 4"/>
<circle cx="399.5" cy="191.5" r="4" fill="#3C2C0B"/>
<rect x="0.0173683" y="0.0176742" width="125.252" height="37.6514" transform="matrix(0.999848 0.0174524 0 1 517.506 174.982)" stroke="#FFBE2E" stroke-width="0.034742"/>
<g filter="url(#filter6_f_1306_65707)">
<circle cx="578.883" cy="191.883" r="100.517" fill="#FFBE2E"/>
<circle cx="578.883" cy="191.883" r="99.9" stroke="#FFBE2E" stroke-width="1.23333"/>
</g>
<circle cx="579.5" cy="192.5" r="111" fill="#3C2C0B"/>
<path d="M545.625 184.718V196.38C545.625 196.569 545.55 196.749 545.417 196.88C545.283 197.011 545.102 197.083 544.913 197.08L541.232 197.016C541.043 197.012 540.862 196.934 540.728 196.798C540.595 196.662 540.519 196.479 540.519 196.29V177.322C540.519 177.133 540.594 176.953 540.728 176.821C540.862 176.69 541.043 176.618 541.232 176.621L544.638 176.681C544.827 176.684 545.008 176.762 545.142 176.898C545.276 177.034 545.351 177.217 545.351 177.406V180.077C545.351 180.077 546.568 176.288 550.182 176.351C550.182 176.351 553.756 175.981 555.21 179.974C555.21 179.974 556.427 176.46 560.119 176.525C560.119 176.525 565.61 176.294 565.61 181.976L565.652 185.106V196.768C565.652 196.957 565.577 197.137 565.443 197.269C565.309 197.4 565.128 197.472 564.939 197.469L561.258 197.404C561.069 197.401 560.888 197.323 560.754 197.187C560.62 197.051 560.545 196.868 560.545 196.679L560.512 183.956C560.616 181.077 558.286 181.246 558.286 181.246C555.353 181.247 555.636 184.932 555.636 184.932V196.594C555.636 196.783 555.561 196.963 555.427 197.094C555.293 197.225 555.112 197.297 554.923 197.294L551.242 197.23C551.053 197.226 550.872 197.148 550.738 197.012C550.605 196.876 550.53 196.693 550.53 196.504V184.07C550.53 184.07 550.745 181.088 548.126 181.042C548.126 181.042 545.534 180.657 545.625 184.718ZM640.506 186.339V198C640.506 198.189 640.431 198.369 640.297 198.501C640.164 198.632 639.982 198.704 639.793 198.701L635.965 198.708C635.776 198.705 635.595 198.626 635.461 198.49C635.328 198.354 635.253 198.172 635.253 197.983V185.549C635.253 185.549 635.468 182.567 632.849 182.521C632.849 182.521 630.348 182.354 630.348 187.035V197.858C630.348 198.047 630.273 198.227 630.14 198.358C630.006 198.49 629.825 198.562 629.636 198.558L625.955 198.494C625.766 198.491 625.585 198.412 625.451 198.276C625.317 198.14 625.242 197.958 625.242 197.769V178.801C625.242 178.612 625.317 178.432 625.451 178.3C625.585 178.169 625.766 178.097 625.955 178.1L629.361 178.16C629.55 178.163 629.731 178.241 629.865 178.377C629.998 178.513 630.074 178.696 630.074 178.885V181.556C630.074 181.556 631.291 177.767 634.905 177.83C634.905 177.83 638.776 177.31 640.079 181.382C640.08 181.382 640.506 182.224 640.506 186.339ZM613.929 177.385C609.222 177.303 605.406 181.204 605.406 187.882C605.406 193.762 608.352 198.58 613.929 198.677C619.192 198.769 622.452 194.06 622.452 188.18C622.452 181.62 618.637 177.468 613.929 177.385ZM616.9 188.319C616.9 190.833 616.586 192.163 616.586 192.163C616.139 194.813 614.21 194.783 613.925 194.764C613.618 194.771 611.673 194.709 611.271 192.07C611.271 192.07 610.956 190.729 610.956 188.215V187.796C610.956 185.282 611.271 183.952 611.271 183.952C611.673 181.327 613.619 181.333 613.925 181.35C614.21 181.341 616.139 181.378 616.586 184.045C616.586 184.045 616.9 185.386 616.9 187.9V188.319ZM603.27 181.062V178.34C603.269 178.151 603.194 177.969 603.061 177.833C602.927 177.697 602.746 177.619 602.557 177.615L590.39 177.403C590.201 177.4 590.02 177.471 589.886 177.603C589.753 177.734 589.678 177.914 589.678 178.103V180.804C589.678 180.993 589.753 181.175 589.886 181.311C590.02 181.447 590.201 181.525 590.39 181.529L596.737 181.64L589.225 192.407C589.225 192.407 588.929 192.844 588.939 193.332V196.647C588.939 196.647 588.89 197.783 590.179 197.146C590.179 197.146 592.468 195.803 596.307 195.87C596.307 195.87 600.098 195.889 602.625 197.483C602.625 197.483 603.675 197.978 603.675 196.929V194.043C603.675 194.043 603.77 193.281 602.768 192.787C602.768 192.787 599.859 191.139 596.044 191.334L603.27 181.062ZM537.679 193.561L536.526 191.787C536.16 191.126 536.186 190.393 536.186 190.393V182.301C536.343 175.311 528.592 175.778 528.592 175.778C521.702 175.658 520.684 181.003 520.684 181.003C520.397 182.076 521.232 182.117 521.232 182.117L524.599 182.517C524.599 182.517 525.173 182.659 525.382 181.979C525.382 181.979 525.825 179.647 528.305 179.69C531.003 179.737 530.975 182.052 530.975 182.052V183.991C525.589 184.077 523.093 185.529 523.093 185.529C519.768 187.356 519.977 191.105 519.977 191.105C519.977 197.207 525.79 197.046 525.79 197.046C529.508 197.111 531.708 194.426 531.708 194.426C532.363 195.59 533.567 196.711 533.567 196.711C534.17 197.375 534.798 196.837 534.798 196.837L537.521 194.554C538.123 194.119 537.679 193.561 537.679 193.561ZM527.605 193.31C525.856 193.28 525.206 191.53 525.496 189.827C525.787 188.123 527.296 186.807 530.975 186.911V187.949C531.106 192.489 529.061 193.335 527.605 193.31ZM586.592 194.415L585.44 192.641C585.073 191.979 585.099 191.246 585.099 191.246V183.154C585.257 176.165 577.506 176.632 577.506 176.632C570.615 176.511 569.598 181.857 569.598 181.857C569.31 182.93 570.146 182.971 570.146 182.971L573.513 183.371C573.513 183.371 574.087 183.512 574.296 182.832C574.296 182.832 574.739 180.5 577.218 180.544C579.916 180.591 579.888 182.906 579.888 182.906V184.845C574.503 184.931 572.007 186.383 572.007 186.383C568.681 188.21 568.891 191.959 568.891 191.959C568.891 198.061 574.704 197.9 574.704 197.9C578.422 197.965 580.621 195.28 580.621 195.28C581.276 196.444 582.48 197.565 582.48 197.565C583.083 198.229 583.712 197.691 583.712 197.691L586.435 195.408C587.037 194.973 586.592 194.415 586.592 194.415ZM576.518 194.164C574.769 194.133 574.119 192.384 574.41 190.68C574.7 188.977 576.21 187.661 579.888 187.764V188.803C580.019 193.343 577.974 194.189 576.518 194.164Z" fill="#FFBE2E"/>
<path d="M595.868 209.899C595.868 209.899 595.56 210.429 595.939 210.556C595.939 210.556 596.366 210.73 596.899 210.245C596.899 210.245 600.788 206.915 600.881 200.732C600.881 200.732 600.91 199.96 600.6 199.743C600.6 199.743 599.382 198.644 595.001 198.896C595.001 198.896 591.183 199.087 589.099 200.901C589.099 200.901 588.911 201.062 588.911 201.272C588.911 201.272 588.866 201.727 590.012 201.549C590.012 201.549 593.83 201.077 596.102 201.398C596.102 201.398 597.274 201.559 597.602 201.963C597.602 201.963 598.141 202.418 597.859 203.889C597.859 203.889 597.086 207.624 595.868 209.899Z" fill="#FFBE2E"/>
<path d="M595.094 203.949C595.094 203.949 595.664 204.698 594.745 205.319C594.745 205.319 584.92 213.007 568.423 212.719C568.423 212.719 551.442 213.26 537.263 200.128C537.263 200.128 536.766 199.683 537.075 199.282C537.075 199.282 537.35 198.914 538.065 199.332C538.065 199.332 551.403 207.878 568.921 208.184C568.921 208.184 581.097 208.868 593.587 203.743C593.587 203.743 594.582 203.245 595.094 203.949Z" fill="#FFBE2E"/>
<circle cx="578.883" cy="191.883" r="99.9" stroke="#FFBE2E" stroke-width="1.23333"/>
<defs>
<filter id="filter0_d_1306_65707" x="0" y="0" width="363" height="125" filterUnits="userSpaceOnUse" color-interpolation-filters="sRGB">
<feFlood flood-opacity="0" result="BackgroundImageFix"/>
<feColorMatrix in="SourceAlpha" type="matrix" values="0 0 0 0 0 0 0 0 0 0 0 0 0 0 0 0 0 0 127 0" result="hardAlpha"/>
<feOffset/>
<feGaussianBlur stdDeviation="7.5"/>
<feComposite in2="hardAlpha" operator="out"/>
<feColorMatrix type="matrix" values="0 0 0 0 0 0 0 0 0 0 0 0 0 0 0 0 0 0 0.1 0"/>
<feBlend mode="normal" in2="BackgroundImageFix" result="effect1_dropShadow_1306_65707"/>
<feBlend mode="normal" in="SourceGraphic" in2="effect1_dropShadow_1306_65707" result="shape"/>
</filter>
<filter id="filter1_d_1306_65707" x="793" y="0" width="363" height="125" filterUnits="userSpaceOnUse" color-interpolation-filters="sRGB">
<feFlood flood-opacity="0" result="BackgroundImageFix"/>
<feColorMatrix in="SourceAlpha" type="matrix" values="0 0 0 0 0 0 0 0 0 0 0 0 0 0 0 0 0 0 127 0" result="hardAlpha"/>
<feOffset/>
<feGaussianBlur stdDeviation="7.5"/>
<feComposite in2="hardAlpha" operator="out"/>
<feColorMatrix type="matrix" values="0 0 0 0 0 0 0 0 0 0 0 0 0 0 0 0 0 0 0.1 0"/>
<feBlend mode="normal" in2="BackgroundImageFix" result="effect1_dropShadow_1306_65707"/>
<feBlend mode="normal" in="SourceGraphic" in2="effect1_dropShadow_1306_65707" result="shape"/>
</filter>
<filter id="filter2_d_1306_65707" x="743" y="135" width="363" height="125" filterUnits="userSpaceOnUse" color-interpolation-filters="sRGB">
<feFlood flood-opacity="0" result="BackgroundImageFix"/>
<feColorMatrix in="SourceAlpha" type="matrix" values="0 0 0 0 0 0 0 0 0 0 0 0 0 0 0 0 0 0 127 0" result="hardAlpha"/>
<feOffset/>
<feGaussianBlur stdDeviation="7.5"/>
<feComposite in2="hardAlpha" operator="out"/>
<feColorMatrix type="matrix" values="0 0 0 0 0 0 0 0 0 0 0 0 0 0 0 0 0 0 0.1 0"/>
<feBlend mode="normal" in2="BackgroundImageFix" result="effect1_dropShadow_1306_65707"/>
<feBlend mode="normal" in="SourceGraphic" in2="effect1_dropShadow_1306_65707" result="shape"/>
</filter>
<filter id="filter3_d_1306_65707" x="795" y="270" width="363" height="125" filterUnits="userSpaceOnUse" color-interpolation-filters="sRGB">
<feFlood flood-opacity="0" result="BackgroundImageFix"/>
<feColorMatrix in="SourceAlpha" type="matrix" values="0 0 0 0 0 0 0 0 0 0 0 0 0 0 0 0 0 0 127 0" result="hardAlpha"/>
<feOffset/>
<feGaussianBlur stdDeviation="7.5"/>
<feComposite in2="hardAlpha" operator="out"/>
<feColorMatrix type="matrix" values="0 0 0 0 0 0 0 0 0 0 0 0 0 0 0 0 0 0 0.1 0"/>
<feBlend mode="normal" in2="BackgroundImageFix" result="effect1_dropShadow_1306_65707"/>
<feBlend mode="normal" in="SourceGraphic" in2="effect1_dropShadow_1306_65707" result="shape"/>
</filter>
<filter id="filter4_d_1306_65707" x="0" y="270" width="363" height="125" filterUnits="userSpaceOnUse" color-interpolation-filters="sRGB">
<feFlood flood-opacity="0" result="BackgroundImageFix"/>
<feColorMatrix in="SourceAlpha" type="matrix" values="0 0 0 0 0 0 0 0 0 0 0 0 0 0 0 0 0 0 127 0" result="hardAlpha"/>
<feOffset/>
<feGaussianBlur stdDeviation="7.5"/>
<feComposite in2="hardAlpha" operator="out"/>
<feColorMatrix type="matrix" values="0 0 0 0 0 0 0 0 0 0 0 0 0 0 0 0 0 0 0.1 0"/>
<feBlend mode="normal" in2="BackgroundImageFix" result="effect1_dropShadow_1306_65707"/>
<feBlend mode="normal" in="SourceGraphic" in2="effect1_dropShadow_1306_65707" result="shape"/>
</filter>
<filter id="filter5_d_1306_65707" x="52" y="135" width="363" height="125" filterUnits="userSpaceOnUse" color-interpolation-filters="sRGB">
<feFlood flood-opacity="0" result="BackgroundImageFix"/>
<feColorMatrix in="SourceAlpha" type="matrix" values="0 0 0 0 0 0 0 0 0 0 0 0 0 0 0 0 0 0 127 0" result="hardAlpha"/>
<feOffset/>
<feGaussianBlur stdDeviation="7.5"/>
<feComposite in2="hardAlpha" operator="out"/>
<feColorMatrix type="matrix" values="0 0 0 0 0 0 0 0 0 0 0 0 0 0 0 0 0 0 0.1 0"/>
<feBlend mode="normal" in2="BackgroundImageFix" result="effect1_dropShadow_1306_65707"/>
<feBlend mode="normal" in="SourceGraphic" in2="effect1_dropShadow_1306_65707" result="shape"/>
</filter>
<filter id="filter6_f_1306_65707" x="416.7" y="29.7" width="324.367" height="324.367" filterUnits="userSpaceOnUse" color-interpolation-filters="sRGB">
<feFlood flood-opacity="0" result="BackgroundImageFix"/>
<feBlend mode="normal" in="SourceGraphic" in2="BackgroundImageFix" result="shape"/>
<feGaussianBlur stdDeviation="30.8333" result="effect1_foregroundBlur_1306_65707"/>
</filter>
</defs>
</svg>
