<svg width="100" height="100" viewBox="0 0 100 100" fill="none" xmlns="http://www.w3.org/2000/svg">
<path d="M23.8296 97.1332C23.7961 97.1332 23.7633 97.1157 23.7454 97.0848C23.7184 97.038 23.734 96.9785 23.7805 96.9514L35.7449 89.9984C36.1645 89.7545 36.3951 89.4359 36.3947 89.1013C36.3943 88.764 36.1596 88.4431 35.7343 88.1977L23.6913 81.2446C23.6448 81.2176 23.6288 81.1578 23.6555 81.1112C23.6829 81.064 23.7427 81.0491 23.7888 81.0754L35.8319 88.0285C36.3201 88.3105 36.5891 88.6912 36.5899 89.1009C36.5906 89.5079 36.3254 89.8867 35.8433 90.1668L23.8789 97.1199C23.8632 97.129 23.8464 97.1332 23.8296 97.1332Z" fill="#DBDEE4"/>
<g opacity="0.1">
<path d="M68.217 53.6925C68.9645 54.1241 68.9644 54.8254 68.2217 55.257L10.0798 89.0457C9.33715 89.4773 8.13032 89.4774 7.38279 89.0457L1.32691 85.5494C0.579368 85.1178 0.575429 84.4188 1.31816 83.9872L59.4599 50.1984C60.2026 49.7668 61.4135 49.7645 62.161 50.1961L68.217 53.6925Z" fill="#010101"/>
</g>
<path d="M1.02623 81.6507C0.456671 81.3219 0.0991459 80.6076 0.100825 79.5978L0.0996095 41.8749C0.0994936 41.2673 0.225404 40.6225 0.454409 39.9901C0.59677 39.58 0.785987 39.1707 1.00816 38.7858C1.23033 38.4008 1.48169 38.0379 1.76392 37.7033C2.2038 37.1769 2.70594 36.7336 3.24226 36.4304L65.8204 0.527073C66.6856 0.0262629 67.4666 -0.0204769 68.0323 0.30606L74.6329 4.09512C74.0634 3.76633 73.2784 3.81075 72.4193 4.31L9.83723 40.211C9.29246 40.5197 8.788 40.967 8.34743 41.5035C8.06531 41.8381 7.81789 42.2033 7.59572 42.5882C7.37349 42.9732 7.18659 43.3786 7.04197 43.7926C6.81523 44.421 6.69158 45.0619 6.69007 45.6633L6.69574 83.3783C6.6998 84.3966 7.0517 85.1025 7.63308 85.4381L1.02623 81.6507Z" fill="#212121"/>
<path d="M7.0427 43.7925L0.455078 39.9901C0.597439 39.5799 0.786653 39.1706 1.00882 38.7857C1.23099 38.4007 1.48236 38.0378 1.76459 37.7032L8.34815 41.5034C8.06604 41.8381 7.81861 42.2033 7.59644 42.5882C7.37427 42.9732 7.18732 43.3786 7.0427 43.7925Z" fill="#212121"/>
<path d="M7.63187 85.5375C7.61548 85.5375 7.59874 85.5333 7.58345 85.5245H7.58305L7.58264 85.5241L0.980192 81.7364C0.347214 81.3709 1.18775e-06 80.611 0.00266538 79.5965L0 41.8746C0.00191127 40.8891 0.330013 39.7751 0.92378 38.7374C1.5267 37.6844 2.33267 36.8342 3.19321 36.343L65.7721 0.44118C66.6383 -0.0591671 67.4584 -0.136545 68.0815 0.222426L74.6741 4.00442C74.6767 4.00593 74.6791 4.00709 74.6817 4.00859C74.7282 4.03564 74.7442 4.09512 74.7176 4.14197C74.6909 4.18848 74.631 4.20487 74.5845 4.17777L74.5765 4.17319C74.0117 3.85233 73.2633 3.93005 72.4664 4.39386L9.88682 40.2965C9.05565 40.7717 8.27174 41.6025 7.67953 42.6361C7.10563 43.6391 6.7897 44.7138 6.7897 45.6624L6.79427 83.3813C6.79844 84.326 7.11328 85.0272 7.67994 85.355L7.68035 85.3554C7.68075 85.3554 7.68075 85.3554 7.68075 85.3554C7.72726 85.3824 7.74324 85.4419 7.7166 85.4887C7.69853 85.52 7.6654 85.5375 7.63187 85.5375ZM67.2165 0.195436C66.8053 0.195436 66.3468 0.334554 65.8693 0.610472L3.29004 36.5123C2.45928 36.9867 1.67914 37.8114 1.09301 38.8343C0.516043 39.843 0.197034 40.9231 0.195181 41.8746L0.197846 79.597C0.195182 80.5387 0.507704 81.2384 1.07744 81.5672L7.00422 84.9674C6.74238 84.565 6.60216 84.0245 6.59909 83.3817L6.59451 45.6624C6.59451 44.6803 6.9196 43.5713 7.5103 42.5393C8.11965 41.4761 8.9291 40.6193 9.79004 40.1273L72.3689 4.22514C72.9074 3.91187 73.4299 3.75984 73.9001 3.78538L67.9844 0.391718C67.7568 0.260594 67.4977 0.195436 67.2165 0.195436Z" fill="#383C43"/>
<path d="M6.6958 81.1106C6.67906 81.1106 6.66227 81.1064 6.64704 81.0976L0.0506703 77.29C0.00416278 77.263 -0.0118213 77.2032 0.0148786 77.1567C0.0423313 77.1094 0.102159 77.0945 0.148261 77.1208L6.74463 80.9283C6.79114 80.9554 6.80712 81.0152 6.78042 81.0617C6.76212 81.0931 6.72934 81.1106 6.6958 81.1106Z" fill="#383C43"/>
<path d="M54.6563 11.0149C54.3835 10.8519 54.241 10.6438 54.2408 10.4357L54.2383 9.66458C54.2426 9.87505 54.381 10.0808 54.6537 10.2437C55.2079 10.5636 56.1062 10.5622 56.6626 10.2431L61.5163 7.43951C61.7979 7.27375 61.9358 7.06334 61.938 6.85107L61.9405 7.62218C61.9384 7.83445 61.8005 8.04486 61.5188 8.21056L56.6651 11.0141C56.1087 11.3333 55.2104 11.3347 54.6563 11.0149Z" fill="#383C43"/>
<path d="M55.6582 11.3499C55.2767 11.3499 54.8964 11.2664 54.6072 11.0995C54.6067 11.0991 54.6064 11.0987 54.606 11.0987C54.3079 10.9208 54.1433 10.6853 54.1429 10.436L54.1406 9.66506C54.1406 9.61131 54.1837 9.56787 54.2371 9.56712C54.2375 9.56712 54.2378 9.56712 54.2382 9.56712C54.2912 9.56712 54.3346 9.6094 54.3358 9.66274C54.3392 9.84414 54.4699 10.021 54.7036 10.1601C55.2276 10.4627 56.0854 10.4627 56.614 10.1586L61.4672 7.35526C61.7054 7.21504 61.8384 7.0355 61.8403 6.85034C61.8411 6.797 61.8845 6.75391 61.9379 6.75391H61.9383C61.992 6.75431 62.0354 6.79775 62.0354 6.85109L62.0378 7.62203C62.0354 7.87964 61.8685 8.1178 61.5682 8.29502L56.7134 11.0991C56.422 11.2664 56.0397 11.3499 55.6582 11.3499ZM54.7055 10.9307C55.2303 11.2336 56.0869 11.2329 56.6163 10.9299L61.4699 8.1262C61.7085 7.98598 61.8411 7.80644 61.8426 7.62162L61.8419 7.30534C61.7687 7.38538 61.6761 7.45893 61.5656 7.52409L56.7112 10.3278C56.1289 10.6624 55.1841 10.6631 54.6048 10.3286C54.4981 10.2649 54.4082 10.1933 54.3373 10.1163L54.3381 10.4356C54.3385 10.6136 54.4688 10.7893 54.7055 10.9307Z" fill="#383C43"/>
<path d="M56.6622 10.2418C56.1054 10.5633 55.2065 10.5634 54.6533 10.2419C54.1001 9.9205 54.1029 9.39988 54.6597 9.07833L59.5152 6.2749C60.072 5.95335 60.9709 5.95329 61.5241 6.27473C62.0773 6.59617 62.0745 7.11679 61.5177 7.43834L56.6622 10.2418Z" fill="#FFF7E4"/>
<path d="M55.656 10.5785C55.2749 10.5785 54.8938 10.4943 54.6041 10.3262C54.3061 10.1532 54.1422 9.9169 54.1426 9.66195C54.143 9.40509 54.3095 9.16803 54.611 8.99387L59.4665 6.19016C60.0496 5.85407 60.9947 5.85366 61.5732 6.19057C61.8712 6.36356 62.0351 6.59946 62.0347 6.85441C62.0343 7.11128 61.8682 7.34868 61.5663 7.52284L56.7107 10.3261C56.4196 10.4942 56.0374 10.5785 55.656 10.5785ZM60.5214 6.13033C60.1754 6.13033 59.8286 6.20655 59.5641 6.35939L54.7085 9.16311C54.4696 9.30066 54.3381 9.47789 54.3378 9.66236C54.3374 9.84491 54.467 10.021 54.7025 10.1578C55.2273 10.4627 56.0847 10.4622 56.6133 10.157L61.4688 7.35372C61.7077 7.21616 61.8393 7.03853 61.8396 6.85447C61.84 6.67157 61.7104 6.49585 61.4749 6.35905C61.2127 6.20655 60.8674 6.13033 60.5214 6.13033Z" fill="#383C43"/>
<path d="M75.5626 6.14982C75.5624 4.13511 74.1549 3.31199 72.4158 4.30973L9.83747 40.2115C8.09851 41.2092 6.69123 43.6471 6.69141 45.6618L6.69517 83.3815C6.69534 85.3962 8.10297 86.2193 9.84199 85.2216L72.4203 49.3198C74.1594 48.3221 75.5666 45.8842 75.5664 43.8695L75.5626 6.14982Z" fill="#383C43"/>
<path d="M8.44589 85.7446C8.12769 85.7446 7.83347 85.6696 7.57319 85.5191C6.94438 85.1547 6.59798 84.396 6.59757 83.3818L6.59375 45.6618C6.59375 43.6203 8.02703 41.1374 9.78922 40.1272L72.3673 4.22533C73.2366 3.72649 74.0598 3.65178 74.6848 4.01266C75.3136 4.37696 75.66 5.13614 75.66 6.14986L75.6638 43.8695C75.6642 45.9106 74.2309 48.3935 72.4687 49.4045L9.89028 85.3064C9.38304 85.5975 8.89144 85.7446 8.44589 85.7446ZM73.8114 3.9826C73.4002 3.9826 72.9414 4.12096 72.4642 4.39457L9.88605 40.2964C8.17836 41.2758 6.78887 43.6828 6.78887 45.6619L6.7927 83.3819C6.7927 84.3232 7.10481 85.0225 7.67113 85.3503C8.23286 85.6757 8.98706 85.5995 9.79344 85.1373L72.372 49.2354C74.0797 48.2552 75.4691 45.8482 75.4687 43.8696L75.4649 6.14998C75.4649 5.20865 75.1532 4.50976 74.5872 4.1816C74.3575 4.04851 74.0956 3.9826 73.8114 3.9826Z" fill="#383C43"/>
<path d="M74.3312 4.62278C73.9408 4.39743 73.3523 4.47498 72.7212 4.83737L10.1424 40.7394C9.39263 41.1693 8.68176 41.9216 8.13983 42.8605C7.59992 43.7959 7.302 44.7912 7.30078 45.6625L7.3053 83.3811C7.30455 84.1214 7.53135 84.6789 7.92866 84.9083C8.31902 85.1336 8.90758 85.0561 9.5387 84.6937L72.1174 48.7916C72.8672 48.3618 73.5781 47.6095 74.12 46.6705C74.66 45.7352 74.9579 44.7398 74.9591 43.8685L74.9546 6.14989C74.9553 5.40965 74.7286 4.85219 74.3312 4.62278Z" fill="#FFF7E4"/>
<path d="M8.4451 85.1324C8.23318 85.1324 8.04188 85.0863 7.87994 84.9929C7.45199 84.7456 7.20695 84.1583 7.2077 83.3812L7.20312 45.6627C7.20463 44.7736 7.50725 43.761 8.05526 42.8117C8.60478 41.8594 9.32886 41.0934 10.0941 40.6547L72.673 4.75292C73.3346 4.37333 73.9569 4.29445 74.3799 4.5384C74.8079 4.7857 75.0529 5.37298 75.0522 6.15006L75.0567 43.8686C75.0556 44.7569 74.753 45.7695 74.2046 46.7196C73.6547 47.6723 72.9306 48.4383 72.1657 48.8766L9.58723 84.7783C9.17909 85.0127 8.78577 85.1324 8.4451 85.1324ZM73.8132 4.59284C73.5087 4.59284 73.1494 4.7041 72.7698 4.9221L10.1909 40.8239C9.45541 41.2458 8.75681 41.9863 8.22444 42.9093C7.69322 43.8297 7.39976 44.8076 7.39825 45.6628L7.40282 83.3813C7.40207 84.0867 7.61167 84.6126 7.97753 84.8237C8.33882 85.0329 8.8895 84.9545 9.49051 84.6092L72.069 48.7073C72.8045 48.2859 73.5027 47.545 74.0355 46.622C74.5671 45.7009 74.8606 44.723 74.8617 43.8686L74.8572 6.15006C74.8579 5.44463 74.6483 4.91874 74.2825 4.70763C74.1494 4.63095 73.9908 4.59284 73.8132 4.59284Z" fill="#383C43"/>
<path d="M71.6681 35.7472C71.6648 35.1889 71.625 20.9989 71.6231 20.3407C71.6206 19.2886 72.3626 18.0031 73.274 17.4755L74.9369 16.5175C74.9388 17.1756 74.9889 34.9884 74.9911 35.7384L73.3304 36.6978C72.4168 37.2242 71.6705 36.7993 71.6681 35.7472Z" fill="#383C43"/>
<path d="M72.589 37.0218C72.4137 37.0218 72.2506 36.9806 72.1062 36.8972C71.762 36.699 71.5719 36.2905 71.5707 35.7474C71.5688 35.4197 71.5544 30.5131 71.5277 21.164L71.5254 20.3409C71.5231 19.2581 72.2853 17.9346 73.2251 17.3908L74.8882 16.4327C74.9187 16.4152 74.9553 16.4152 74.9857 16.4327C75.0158 16.4503 75.0345 16.4822 75.0345 16.5169C75.0364 17.1751 75.0867 34.9878 75.0886 35.7379C75.0886 35.7729 75.0699 35.8053 75.0398 35.8228L73.379 36.7821C73.1024 36.9414 72.8337 37.0218 72.589 37.0218ZM74.8398 16.6858L73.3227 17.56C72.437 18.0726 71.7183 19.3199 71.7206 20.3401L71.7229 21.1636C71.7496 30.5157 71.7641 35.4223 71.7659 35.7463C71.7659 35.7467 71.7659 35.7467 71.7659 35.7467C71.7671 36.2177 71.9225 36.566 72.2038 36.7284C72.4874 36.8915 72.8696 36.8511 73.2816 36.6129L74.8936 35.6819C74.8901 34.4128 74.8451 18.589 74.8398 16.6858Z" fill="#383C43"/>
<path d="M72.9102 22.1716C73.0993 21.8441 73.3486 21.5796 73.6117 21.4276C73.8487 21.2907 74.0626 21.2631 74.2139 21.3501C74.3628 21.436 74.4453 21.6304 74.4463 21.8976L74.4809 33.8355C74.4817 34.1388 74.3776 34.4867 74.1877 34.8157C73.9975 35.1453 73.7466 35.4112 73.4815 35.564C73.2474 35.6994 73.0356 35.7262 72.8856 35.6396C72.7357 35.5535 72.6529 35.3582 72.6519 35.0894L72.6172 23.1518C72.6165 22.8482 72.7205 22.5003 72.9102 22.1716Z" fill="white"/>
<path d="M72.9004 19.076C73.0895 18.7484 73.3386 18.4843 73.6018 18.3323C73.8386 18.1953 74.0523 18.1681 74.2035 18.2549C74.3527 18.3407 74.4353 18.5358 74.4362 18.8042C74.437 19.1074 74.3331 19.4553 74.1432 19.7844C73.9529 20.114 73.7022 20.3799 73.4372 20.5328C73.2032 20.6678 72.9914 20.6947 72.8412 20.6084C72.6914 20.5223 72.6084 20.3268 72.6074 20.0581C72.6065 19.7536 72.7105 19.405 72.9004 19.076Z" fill="white"/>
<path d="M73.1528 19.2199C73.2652 19.0252 73.4133 18.8681 73.5697 18.7778C73.7105 18.6963 73.8376 18.6801 73.9274 18.7318C74.0162 18.7828 74.0653 18.8988 74.0658 19.0583C74.0663 19.2386 74.0045 19.4454 73.8916 19.641C73.7785 19.837 73.6295 19.9951 73.4719 20.0859C73.3327 20.1663 73.2069 20.1822 73.1175 20.1309C73.0284 20.0797 72.9791 19.9635 72.9785 19.8038C72.9781 19.6228 73.0399 19.4156 73.1528 19.2199Z" fill="#FFBE2E"/>
<path d="M3.71807 47.5712C3.71813 47.9866 3.42466 48.1528 3.06615 47.9472C2.70284 47.7389 2.41412 47.2389 2.41406 46.8234C2.414 46.3973 2.70266 46.2283 3.06598 46.4366C3.42454 46.6423 3.71807 47.145 3.71807 47.5712Z" fill="#91969E"/>
<path d="M3.71807 50.6801C3.71813 51.0955 3.42466 51.2617 3.06615 51.0561C2.70284 50.8477 2.41412 50.3477 2.41406 49.9323C2.414 49.5061 2.70266 49.3372 3.06598 49.5455C3.42454 49.7511 3.71801 50.2539 3.71807 50.6801Z" fill="#91969E"/>
<path d="M3.71801 53.789C3.71807 54.2044 3.4246 54.3706 3.06609 54.165C2.70278 53.9566 2.41406 53.4566 2.41406 53.0412C2.414 52.615 2.70266 52.4461 3.06598 52.6544C3.42449 52.8601 3.71795 53.3628 3.71801 53.789Z" fill="#91969E"/>
<path d="M3.72002 73.28C3.72008 73.6954 3.42661 73.8616 3.0681 73.656C2.70479 73.4477 2.41607 72.9477 2.41602 72.5322C2.41596 72.1061 2.70462 71.9371 3.06793 72.1454C3.42644 72.3511 3.71996 72.8538 3.72002 73.28Z" fill="#91969E"/>
<path d="M3.72002 76.3881C3.72008 76.8035 3.42662 76.9697 3.06811 76.7641C2.70479 76.5557 2.41607 76.0557 2.41602 75.6403C2.41596 75.2142 2.70462 75.0452 3.06793 75.2535C3.42644 75.4591 3.71996 75.9619 3.72002 76.3881Z" fill="#91969E"/>
<path d="M2.40321 66.891C2.40327 67.3163 2.7016 67.833 3.06874 68.0435C3.43588 68.254 3.73415 68.0795 3.73415 67.6542L3.73328 59.419C3.73323 58.9937 3.43489 58.4782 3.06776 58.2676C2.70062 58.0571 2.40234 58.2304 2.40234 58.6557L2.40321 66.891Z" fill="#91969E"/>
<path d="M13.9002 37.979C13.8835 37.979 13.8667 37.9748 13.8515 37.966L7.2753 34.1703C7.22879 34.1432 7.21281 34.0834 7.23945 34.0369C7.26649 33.9896 7.32673 33.9744 7.37283 34.001L13.949 37.7967C13.9955 37.8238 14.0115 37.8836 13.9848 37.9301C13.9665 37.9615 13.9338 37.979 13.9002 37.979Z" fill="#383C43"/>
<path d="M68.7436 6.51382C68.7268 6.51382 68.7101 6.50965 68.6949 6.50085L62.119 2.70513C62.0725 2.67808 62.0566 2.61825 62.0832 2.57174C62.1106 2.52489 62.1705 2.50925 62.2166 2.53595L68.7924 6.33167C68.8389 6.35872 68.8549 6.41855 68.8282 6.46505C68.8099 6.49627 68.7772 6.51382 68.7436 6.51382Z" fill="#383C43"/>
<path d="M30.7949 24.6625C31.4483 25.0397 31.4489 25.652 30.7998 26.0292L18.7539 33.0163C18.102 33.3952 17.0476 33.3952 16.3943 33.018C15.7409 32.6408 15.7375 32.0301 16.3894 31.6512L28.4353 24.6642C29.0844 24.2869 30.1416 24.2852 30.7949 24.6625Z" fill="#FFF7E4"/>
<path d="M29.2485 25.064C28.9458 25.064 28.6529 25.1329 28.4448 25.253C28.2777 25.3495 28.1818 25.468 28.1816 25.5781C28.1815 25.6869 28.2755 25.804 28.4396 25.8994C28.646 26.0193 28.9376 26.0881 29.24 26.0881C29.5423 26.0881 29.8351 26.0192 30.043 25.8991C30.2102 25.8026 30.3062 25.684 30.3064 25.5737C30.3065 25.4649 30.2126 25.3478 30.0486 25.2525C29.8424 25.1327 29.5508 25.064 29.2485 25.064Z" fill="#383C43"/>
<path d="M27.373 44.0562C27.5731 43.9404 27.7427 43.9143 27.8584 43.9526L27.9053 43.9731C28.0141 44.038 28.0956 44.2076 28.0957 44.4653V44.4663L28.1016 46.6157L28.1729 60.9351C28.1728 61.2003 28.0934 61.5046 27.9434 61.8032L27.874 61.9312C27.6795 62.2663 27.4246 62.5355 27.1602 62.6899L15.1045 69.6489C14.904 69.765 14.7328 69.7919 14.6182 69.7534L14.5732 69.7329C14.4626 69.6687 14.3818 69.4993 14.3818 69.2417L14.3105 54.0103L14.3047 52.771C14.303 52.4681 14.4088 52.1132 14.6035 51.7759C14.7981 51.4389 15.0531 51.1695 15.3174 51.0171L27.373 44.0562Z" fill="#FFF3D8" stroke="black" stroke-width="0.144793"/>
<path d="M23.3867 48.5106C23.384 48.5087 23.3962 48.5158 23.3936 48.5535L23.0488 53.4617L23.0479 53.4764L23.0527 53.491L25.6191 60.8123H25.6201C25.6294 60.8386 25.6255 60.8875 25.5996 60.9442C25.5744 60.9992 25.5349 61.0465 25.4941 61.0701L16.9131 66.0242C16.8935 66.0355 16.8805 66.038 16.874 66.0379C16.8688 66.0377 16.8668 66.0356 16.8652 66.034C16.8603 66.029 16.8447 66.0025 16.8594 65.9422L19.3779 55.6863L19.3809 55.6746L19.3799 55.6629L19.0078 51.1678C19.0054 51.1385 19.0149 51.0973 19.0371 51.0565C19.0591 51.016 19.0894 50.9842 19.1182 50.9676L20.2139 50.3348C20.2576 50.3095 20.2897 50.3068 20.3086 50.3113C20.3246 50.3153 20.3408 50.3267 20.3516 50.3563L21.1396 52.532L21.2207 52.7537L21.2783 52.5242L22.0508 49.4481C22.0819 49.3248 22.1685 49.2063 22.2588 49.1541L23.3545 48.5213C23.3829 48.5049 23.3904 48.5129 23.3867 48.5106Z" fill="#FFBE2E" stroke="black" stroke-width="0.144793"/>
<path d="M23.3447 53.3392C23.3448 53.3705 23.3335 53.4106 23.3115 53.4485C23.3006 53.4673 23.2886 53.4843 23.2754 53.4984L23.2344 53.5316L19.1689 55.8265C19.1418 55.8421 19.1329 55.8357 19.1357 55.8372C19.1394 55.8393 19.1291 55.8365 19.1289 55.805C19.1288 55.7741 19.1401 55.7338 19.1621 55.6956C19.184 55.6578 19.2123 55.6273 19.2393 55.6116L23.3047 53.3177H23.3057C23.3331 53.3019 23.3412 53.3088 23.3379 53.3069C23.3353 53.3053 23.3445 53.3092 23.3447 53.3392Z" fill="white" stroke="black" stroke-width="0.144793"/>
<path d="M47.1191 31.981C47.3192 31.8652 47.4888 31.8391 47.6045 31.8774L47.6514 31.8979C47.7602 31.9628 47.8417 32.1324 47.8418 32.3901V32.3911L47.8477 34.5405L47.9189 48.8599C47.9189 49.1251 47.8394 49.4294 47.6895 49.728L47.6201 49.856C47.4256 50.1911 47.1707 50.4603 46.9062 50.6147L34.8506 57.5737C34.6501 57.6899 34.4789 57.7167 34.3643 57.6782L34.3193 57.6577C34.2087 57.5935 34.1279 57.424 34.1279 57.1665L34.0566 41.9351L34.0508 40.6958C34.0491 40.3929 34.1549 40.038 34.3496 39.7007C34.5442 39.3637 34.7992 39.0943 35.0635 38.9419L47.1191 31.981Z" fill="#FFF3D8" stroke="black" stroke-width="0.144793"/>
<path d="M66.8672 19.9058C67.0672 19.79 67.2368 19.7639 67.3525 19.8022L67.3994 19.8228C67.5082 19.8876 67.5897 20.0572 67.5898 20.3149V20.3159L67.5957 22.4653L67.667 36.7847C67.6669 37.0499 67.5875 37.3542 67.4375 37.6528L67.3682 37.7808C67.1736 38.1159 66.9188 38.3851 66.6543 38.5396L54.5986 45.4985C54.3981 45.6147 54.227 45.6415 54.1123 45.603L54.0674 45.5825C53.9567 45.5183 53.876 45.3489 53.876 45.0913L53.8047 29.8599L53.7988 28.6206C53.7971 28.3177 53.9029 27.9628 54.0977 27.6255C54.2923 27.2886 54.5472 27.0191 54.8115 26.8667L66.8672 19.9058Z" fill="#FFF3D8" stroke="black" stroke-width="0.144793"/>
<path d="M43.3877 38.0347C44.0623 37.6416 44.7198 37.4692 45.2959 37.5151L47.1562 37.6782L46.1582 40.2554L44.4102 40.106L44.332 40.0991V40.1782L44.3545 49.1118L37.667 52.9771L37.6436 44.1206V43.9155L37.5146 44.0757L35.7842 46.231L34.8066 44.8608L36.7168 42.4771L36.7178 42.478C37.3082 41.7518 37.968 41.163 38.6426 40.7759L39.0557 40.5376C39.0826 41.0824 39.2905 41.4825 39.6328 41.6782C39.9998 41.8878 40.4933 41.8472 41.0205 41.5425C41.5516 41.2372 42.0238 40.7158 42.3672 40.1313L42.3682 40.1304C42.6976 39.5537 42.9071 38.9045 42.9111 38.311L43.3877 38.0347Z" fill="#FFBE2E" stroke="black" stroke-width="0.144793"/>
<path d="M64.123 26.0635C64.2119 26.0912 64.2854 26.165 64.3193 26.2979L65.6855 31.6104L55.7949 37.3203L57.1104 30.5371H57.1113C57.1837 30.1622 57.4432 29.7815 57.7363 29.6123L63.7617 26.1338C63.9063 26.0504 64.0313 26.0348 64.123 26.0635Z" fill="#FFBE2E" stroke="black" stroke-width="0.144793"/>
<path d="M66.1035 31.501C66.2971 31.3893 66.4558 31.3876 66.5615 31.4482C66.6672 31.5089 66.7455 31.6468 66.7461 31.8691C66.7467 32.0911 66.6684 32.343 66.5381 32.5693C66.4078 32.7955 66.2293 32.99 66.0361 33.1016L55.3652 39.2617C55.1717 39.3734 55.0125 39.375 54.9062 39.3145C54.8002 39.2539 54.7213 39.1166 54.7207 38.8945C54.7202 38.6727 54.7989 38.4209 54.9297 38.1943C55.0606 37.9677 55.2403 37.7728 55.4336 37.6611L66.1035 31.501Z" fill="white" stroke="black" stroke-width="0.144793"/>
<path d="M62.2357 97.6263C61.7217 97.6263 61.2068 97.5127 60.8143 97.2864L47.8593 89.8234C47.8128 89.7963 47.7968 89.7369 47.8234 89.69C47.8505 89.6428 47.9107 89.6275 47.9568 89.6542L60.9117 97.1171C61.6431 97.5394 62.8294 97.539 63.5562 97.1175L68.0162 94.5029C68.0615 94.4751 68.1217 94.4911 68.1495 94.5379C68.1766 94.584 68.161 94.6438 68.1145 94.6713L63.6545 97.286C63.2643 97.5127 62.7502 97.6263 62.2357 97.6263Z" fill="#DBDEE4"/>
<g opacity="0.1">
<path d="M70.0254 84.0568L91.2081 96.4132H91.211L100.001 91.319L78.818 78.9625H78.8151L70.0254 84.0568Z" fill="#010101"/>
</g>
<path d="M94.5098 62.9014L94.5841 89.2154L98.9894 89.739L97.2556 62.665L94.5098 62.9014Z" fill="#F7CA60"/>
<path d="M98.991 89.8361C98.9871 89.8361 98.9833 89.8357 98.9796 89.8353L94.5745 89.3117C94.5253 89.306 94.4884 89.2645 94.4884 89.2153L94.4141 62.9014C94.4141 62.8507 94.4526 62.808 94.5033 62.8039L97.2491 62.5672C97.2734 62.5638 97.3009 62.5733 97.3211 62.5904C97.3409 62.6076 97.3531 62.632 97.3546 62.6583L99.0882 89.7324C99.0901 89.7614 99.0791 89.7896 99.0581 89.8094C99.0397 89.8265 99.0158 89.8361 98.991 89.8361ZM94.6831 89.1284L98.8862 89.6277L97.1663 62.7703L94.6096 62.9906L94.6831 89.1284Z" fill="#383C43"/>
<path d="M91.7722 65.8426L70.5889 53.4871L69.0156 82.4775L90.1989 94.833L91.7722 65.8426Z" fill="#FFF7E4"/>
<path d="M90.1989 94.9305C90.1817 94.9305 90.1649 94.926 90.1497 94.9172L68.9665 82.5617C68.9349 82.5434 68.9162 82.5088 68.9181 82.4722L70.4912 53.4819C70.4932 53.448 70.5126 53.4175 70.5427 53.4015C70.5728 53.3851 70.6086 53.3863 70.638 53.403L91.8215 65.7585C91.8531 65.7768 91.8719 65.8115 91.87 65.848L90.2964 94.8383C90.2945 94.8723 90.275 94.9027 90.245 94.9187C90.2309 94.9267 90.2149 94.9305 90.1989 94.9305ZM69.1163 82.4234L90.1101 94.6684L91.6718 65.8968L70.6777 53.6518L69.1163 82.4234Z" fill="#383C43"/>
<path d="M94.5106 62.901L91.7725 65.8424L90.1992 94.8327L94.585 89.215L94.5106 62.901Z" fill="#F7CA60"/>
<path d="M90.1992 94.9306C90.1878 94.9306 90.1764 94.9286 90.165 94.9245C90.1249 94.9092 90.0994 94.8704 90.1017 94.8277L91.6753 65.8374C91.6768 65.8145 91.6859 65.7928 91.7016 65.7764L94.4397 62.8351C94.4664 62.8062 94.5087 62.7955 94.5464 62.8108C94.5838 62.8252 94.6086 62.8611 94.6086 62.9011L94.6829 89.2149C94.6829 89.2371 94.6757 89.258 94.6624 89.2755L90.2763 94.8933C90.2572 94.9172 90.2286 94.9306 90.1992 94.9306ZM91.8684 65.8834L90.3136 94.5281L94.4877 89.1817L94.4142 63.1487L91.8684 65.8834Z" fill="#383C43"/>
<path d="M90.1992 94.834L98.989 89.7393L94.5841 89.2164L90.1992 94.834Z" fill="#383C43"/>
<path d="M90.1992 94.9319C90.1717 94.9319 90.1447 94.9205 90.1256 94.8984C90.0947 94.8633 90.0936 94.8111 90.1222 94.7741L94.5067 89.1564C94.5277 89.1297 94.5608 89.1164 94.5951 89.1198L99.0002 89.6427C99.0421 89.6476 99.0756 89.6785 99.0844 89.7196C99.0928 89.7608 99.0741 89.8027 99.0375 89.8237L90.2479 94.9185C90.2327 94.9277 90.2159 94.9319 90.1992 94.9319ZM94.6267 89.3199L90.5859 94.4975L98.6865 89.802L94.6267 89.3199Z" fill="#383C43"/>
<path d="M97.2556 62.6639L94.5105 62.9019L91.772 65.8414L76.0762 56.6869V50.3092L97.2556 62.6639Z" fill="#C48B07"/>
<path d="M91.7719 65.9385C91.7552 65.9385 91.738 65.9343 91.7227 65.9252L76.0269 56.7709C75.9968 56.7533 75.9785 56.7213 75.9785 56.6867V50.3086C75.9785 50.2736 75.9972 50.2416 76.0273 50.224C76.0582 50.2065 76.0951 50.2069 76.1252 50.2244L97.3046 62.5792C97.3412 62.6005 97.3598 62.6432 97.3507 62.6847C97.3411 62.7263 97.3061 62.7568 97.2638 62.7606L94.5561 62.9957L91.8431 65.9077C91.8245 65.9278 91.7982 65.9385 91.7719 65.9385ZM76.1737 56.6307L91.7537 65.7175L94.4392 62.8349C94.4556 62.8173 94.4781 62.8062 94.5021 62.8044L96.9407 62.5929L76.1737 50.4786V56.6307Z" fill="#383C43"/>
<path d="M70.5898 53.4867L74.5005 55.7658V52.5782L70.5898 53.4867Z" fill="#C48B07"/>
<path d="M74.5002 55.863C74.483 55.863 74.4662 55.8584 74.451 55.8497L70.5406 53.5703C70.5059 53.5501 70.4872 53.5113 70.4933 53.4716C70.4994 53.432 70.5288 53.4 70.5676 53.3912L74.478 52.4831C74.507 52.4755 74.5379 52.4827 74.5607 52.5018C74.584 52.5201 74.5977 52.5483 74.5977 52.578V55.7655C74.5977 55.8005 74.579 55.8325 74.5489 55.8501C74.5337 55.8588 74.517 55.863 74.5002 55.863ZM70.8511 53.5257L74.4026 55.5955V52.7006L70.8511 53.5257Z" fill="#383C43"/>
<path d="M76.0763 50.3092V56.6869L74.5 55.7676V52.5783L76.0763 50.3092Z" fill="#8C6200"/>
<path d="M76.0765 56.7842C76.0593 56.7842 76.0426 56.7796 76.0273 56.7709L74.4508 55.8513C74.4206 55.8337 74.4023 55.8018 74.4023 55.7671V52.5781C74.4023 52.5583 74.4084 52.5388 74.4199 52.5224L75.9965 50.253C76.0212 50.218 76.0654 50.2038 76.1059 50.2156C76.1463 50.2282 76.1741 50.266 76.1741 50.3086V56.6866C76.1741 56.7217 76.1554 56.7537 76.1253 56.7712C76.1101 56.78 76.0933 56.7842 76.0765 56.7842ZM74.5975 55.7111L75.979 56.5167V50.62L74.5975 52.6086V55.7111Z" fill="#8C6200"/>
<path d="M74.52 59.5127C74.0109 59.2178 73.5175 59.4921 73.4194 60.1247C73.3213 60.7572 73.6557 61.5085 74.1647 61.8034C74.6737 62.0984 75.1647 61.8254 75.2628 61.1929C75.3609 60.5604 75.029 59.8077 74.52 59.5127Z" fill="white"/>
<path d="M74.5702 62.0199C74.422 62.0199 74.2669 61.9757 74.1156 61.8877C73.5748 61.5748 73.2193 60.7772 73.3225 60.1099C73.3774 59.7577 73.5538 59.4868 73.8065 59.3656C74.0383 59.2551 74.3088 59.278 74.5683 59.4285C75.1079 59.7414 75.4627 60.5394 75.3587 61.2078C75.3042 61.56 75.1286 61.8309 74.8763 61.9514C74.7798 61.9971 74.6769 62.0199 74.5702 62.0199ZM74.1133 59.4921C74.0351 59.4921 73.9601 59.5085 73.8907 59.5417C73.6967 59.6346 73.5599 59.8523 73.5153 60.1396C73.4231 60.7341 73.7363 61.443 74.2131 61.7189C74.4155 61.8366 74.6209 61.8561 74.792 61.7753C74.9852 61.6831 75.1213 61.4651 75.1659 61.1781C75.2585 60.5821 74.9467 59.8732 74.4707 59.5977C74.35 59.5276 74.2284 59.4921 74.1133 59.4921Z" fill="#383C43"/>
<path d="M86.3599 66.3238C85.8509 66.0289 85.3574 66.3032 85.2593 66.9358C85.1612 67.5683 85.4955 68.3196 86.0045 68.6145C86.5135 68.9095 87.0046 68.6365 87.1027 68.004C87.2008 67.3714 86.8689 66.6188 86.3599 66.3238Z" fill="white"/>
<path d="M86.4102 68.8311C86.2615 68.8311 86.1068 68.7869 85.9552 68.6992C85.4144 68.386 85.0588 67.588 85.1625 66.9211C85.217 66.5689 85.3934 66.2976 85.6465 66.1768C85.8778 66.0663 86.1484 66.0887 86.4083 66.2393V66.2397C86.9476 66.5522 87.3024 67.3506 87.1987 68.019C87.1438 68.3711 86.9681 68.6421 86.7158 68.7625C86.6198 68.8082 86.5164 68.8311 86.4102 68.8311ZM85.9536 66.3033C85.8751 66.3033 85.8 66.3197 85.7307 66.3528C85.5367 66.4455 85.3999 66.6635 85.3553 66.9508C85.2631 67.5453 85.576 68.2537 86.0528 68.5301C86.2566 68.6478 86.462 68.6673 86.6316 68.5865C86.8248 68.4943 86.9613 68.2767 87.0059 67.9893C87.0981 67.3933 86.7864 66.6841 86.3108 66.4082C86.1898 66.3384 86.0683 66.3033 85.9536 66.3033Z" fill="#383C43"/>
<path d="M82.2793 75.3535C81.4104 75.3535 80.4684 75.0737 79.5122 74.5192C76.1803 72.5909 73.6186 67.8177 73.8023 63.8794L74.0515 61.3242C74.0671 61.1637 74.21 61.046 74.3712 61.0616C74.5321 61.0772 74.6498 61.2205 74.6338 61.3813L74.3857 63.9217C74.2127 67.6488 76.6433 72.1823 79.8057 74.0127C81.2588 74.8557 82.6509 74.9975 83.7241 74.4117C84.8373 73.8042 85.4962 72.4879 85.5793 70.7044L85.8281 68.1488C85.8434 67.9884 85.9832 67.8722 86.1479 67.8862C86.3087 67.9019 86.4265 68.0448 86.4105 68.206L86.1628 70.7468C86.0709 72.7273 85.3042 74.2167 84.0046 74.9255C83.4805 75.2113 82.8982 75.3535 82.2793 75.3535Z" fill="#383C43"/>
<g opacity="0.1">
<path d="M77.4061 99.9997L80.888 97.9688L63.9994 88.1825L60.5176 90.2134L77.4061 99.9997Z" fill="#010101"/>
</g>
<path d="M77.1797 98.8947L80.6616 96.8639L80.7166 76.6782L77.2347 78.709L77.1797 98.8947Z" fill="#212121"/>
<path d="M77.1796 98.9924C77.1628 98.9924 77.146 98.9883 77.1308 98.9794C77.1007 98.9619 77.082 98.9295 77.082 98.8945L77.1369 78.7086C77.1369 78.674 77.1556 78.6423 77.1854 78.6248L80.6674 76.5939C80.6975 76.5768 80.7345 76.5756 80.7653 76.5935C80.7954 76.6111 80.8141 76.6434 80.8141 76.6785L80.7592 96.864C80.7592 96.8982 80.7405 96.9303 80.7108 96.9478L77.2287 98.979C77.2134 98.9878 77.1967 98.9924 77.1796 98.9924ZM77.3319 78.7651L77.2774 98.7249L80.564 96.8076L80.6185 76.8481L77.3319 78.7651Z" fill="#383C43"/>
<path d="M77.2343 78.709L80.7162 76.6781L63.8276 66.8918L60.3457 68.9227L77.2343 78.709Z" fill="#FFF7E4"/>
<path d="M77.2338 78.8068C77.217 78.8068 77.1999 78.8026 77.1851 78.7934L60.2968 69.0073C60.2667 68.9897 60.248 68.9578 60.248 68.9227C60.248 68.888 60.2663 68.8559 60.2965 68.8384L63.7782 66.8076C63.8083 66.79 63.846 66.7893 63.8761 66.8076L80.7647 76.5941C80.7948 76.6112 80.8135 76.6433 80.8135 76.6783C80.8135 76.713 80.7952 76.745 80.765 76.7625L77.283 78.7934C77.2678 78.8022 77.251 78.8068 77.2338 78.8068ZM60.5396 68.9223L77.2338 78.5964L80.5219 76.6787L63.8273 67.0046L60.5396 68.9223Z" fill="#383C43"/>
<path d="M60.346 68.923L60.291 89.1086L77.1796 98.895L77.2346 78.7092L60.346 68.923Z" fill="#FFBE2E"/>
<path d="M77.1795 98.9925C77.1627 98.9925 77.1456 98.988 77.1307 98.9792L60.2421 89.193C60.2117 89.1755 60.1934 89.1431 60.1934 89.1081L60.2486 68.9223C60.2486 68.8876 60.2673 68.8555 60.2974 68.838C60.3278 68.8205 60.3652 68.8209 60.3949 68.8384L77.2832 78.6249C77.3136 78.642 77.3319 78.6744 77.3319 78.7095L77.277 98.8953C77.277 98.93 77.2584 98.962 77.2283 98.9796C77.213 98.9884 77.1962 98.9925 77.1795 98.9925ZM60.3884 89.0524L77.0823 98.7258L77.1368 78.7651L60.4433 69.0918L60.3884 89.0524Z" fill="#383C43"/>
<path d="M67.5977 93.3437L70.5231 95.0367L70.5301 74.8241L67.6047 73.1312L67.5977 93.3437Z" fill="#212121"/>
<path d="M70.5248 95.1347C70.508 95.1347 70.4908 95.1305 70.476 95.1217L67.5507 93.4289C67.5206 93.4114 67.502 93.379 67.502 93.3443L67.5092 73.1318C67.5092 73.0967 67.5278 73.0647 67.558 73.0472C67.5884 73.0296 67.6258 73.0296 67.6555 73.0472L70.5808 74.74C70.6109 74.7575 70.6295 74.7899 70.6295 74.8246L70.6223 95.0371C70.6223 95.0722 70.6037 95.1042 70.5735 95.1217C70.5583 95.1305 70.5416 95.1347 70.5248 95.1347ZM67.6971 93.288L70.4272 94.868L70.4345 74.8811L67.7043 73.3011L67.6971 93.288Z" fill="#383C43"/>
<path d="M67.6016 73.1315L70.5266 74.8254L74.0216 72.794L71.0966 71.1L67.6016 73.1315Z" fill="#212121"/>
<path d="M70.5263 74.9232C70.5095 74.9232 70.4924 74.919 70.4776 74.9102L67.5527 73.2163C67.5226 73.1987 67.5039 73.1663 67.5039 73.1316C67.5039 73.097 67.5222 73.065 67.5523 73.0474L71.0473 71.0158C71.0778 70.9983 71.1156 70.9979 71.1453 71.0155L74.0706 72.7094C74.1007 72.727 74.1193 72.7594 74.1193 72.794C74.1193 72.8287 74.101 72.8607 74.0709 72.8783L70.5755 74.9099C70.5603 74.9186 70.5431 74.9232 70.5263 74.9232ZM67.7958 73.1316L70.5264 74.7128L73.8274 72.794L71.0965 71.2129L67.7958 73.1316Z" fill="#383C43"/>
<path d="M61.3438 87.3853L66.3085 90.2617L66.3245 86.2108L61.3597 83.3344L61.3438 87.3853Z" fill="#FFBE2E"/>
<path d="M66.3086 90.328C66.2972 90.328 66.2853 90.3254 66.275 90.3193L61.3105 87.4428C61.2899 87.4305 61.2769 87.4085 61.2774 87.3844L61.293 83.3338C61.293 83.3101 61.3056 83.288 61.3265 83.2762C61.3471 83.264 61.3726 83.264 61.3932 83.2762L66.3581 86.1523C66.3786 86.1645 66.3916 86.1866 66.3913 86.2106L66.3753 90.2617C66.3753 90.2853 66.3627 90.3074 66.3418 90.3192C66.3314 90.3254 66.32 90.328 66.3086 90.328ZM61.4111 87.3463L66.2423 90.1455L66.2575 86.2487L61.426 83.45L61.4111 87.3463Z" fill="#383C43"/>
<path d="M65.7986 87.0978C65.7872 87.0978 65.7757 87.0952 65.7651 87.0891L61.9435 84.8749C61.9114 84.8563 61.9008 84.8155 61.9191 84.7835C61.9377 84.7511 61.9782 84.7408 62.0105 84.7591L65.8321 86.9732C65.8642 86.9919 65.8748 87.0327 65.8565 87.0647C65.844 87.0861 65.8215 87.0978 65.7986 87.0978Z" fill="#383C43"/>
<path d="M65.7986 88.0725C65.7872 88.0725 65.7757 88.0699 65.7651 88.0638L61.9435 85.8496C61.9114 85.8309 61.9008 85.7902 61.9191 85.7582C61.9377 85.7261 61.9782 85.7151 62.0105 85.7338L65.8321 87.948C65.8642 87.9666 65.8748 88.0074 65.8565 88.0394C65.844 88.0607 65.8215 88.0725 65.7986 88.0725Z" fill="#383C43"/>
<path d="M65.7986 89.0481C65.7872 89.0481 65.7757 89.0455 65.7651 89.0394L61.9435 86.8252C61.9114 86.8066 61.9008 86.7658 61.9191 86.7338C61.9377 86.7014 61.9782 86.6907 62.0105 86.7094L65.8321 88.9236C65.8642 88.9422 65.8748 88.983 65.8565 89.015C65.844 89.0363 65.8215 89.0481 65.7986 89.0481Z" fill="#383C43"/>
<path d="M50.3417 89.5818C51.0473 89.9891 51.0513 90.6499 50.3503 91.0573C49.6493 91.4647 48.5085 91.4645 47.8029 91.0572C47.0974 90.6498 47.094 89.9893 47.7949 89.582C48.4959 89.1746 49.6362 89.1744 50.3417 89.5818Z" fill="white"/>
<path d="M49.0805 91.4586C48.6015 91.4586 48.1217 91.353 47.7558 91.1419C47.3824 90.9258 47.1762 90.6332 47.1758 90.3176C47.1754 90.0036 47.3781 89.7124 47.7474 89.4978C48.4746 89.0745 49.6613 89.0756 50.3922 89.4974C50.7661 89.7135 50.9723 90.0062 50.973 90.3225C50.9734 90.6361 50.7702 90.9273 50.4014 91.1419C50.0378 91.353 49.5595 91.4586 49.0805 91.4586ZM49.0683 89.3733C48.6251 89.3733 48.1823 89.4708 47.8458 89.6663C47.539 89.8446 47.3706 90.0756 47.371 90.3172C47.3713 90.5604 47.5425 90.7932 47.8534 90.9728C48.531 91.3642 49.6301 91.3642 50.3031 90.9735C50.6095 90.7952 50.7783 90.5642 50.7779 90.3226C50.7776 90.079 50.6057 89.8462 50.2947 89.6667C49.9559 89.4708 49.5119 89.3733 49.0683 89.3733Z" fill="#DBDEE4"/>
<path d="M49.077 90.7852C48.8019 90.7852 48.5357 90.7226 48.3466 90.6134C48.1948 90.5257 48.1076 90.418 48.1074 90.3179C48.1073 90.2191 48.1927 90.1126 48.3419 90.026C48.5294 89.917 48.7945 89.8545 49.0692 89.8545C49.3441 89.8545 49.61 89.9171 49.799 90.0262C49.951 90.1139 50.0382 90.2217 50.0384 90.3219C50.0385 90.4209 49.9531 90.5272 49.8041 90.6138C49.6167 90.7227 49.3517 90.7852 49.077 90.7852Z" fill="#FFBE2E"/>
<path d="M55.2893 94.3204C54.9938 94.3204 54.708 94.2532 54.5049 94.1359C54.3418 94.0417 54.2482 93.926 54.248 93.8185C54.2479 93.7123 54.3397 93.598 54.4998 93.505C54.7012 93.3879 54.9859 93.3208 55.2809 93.3208C55.5761 93.3208 55.8617 93.388 56.0647 93.5052C56.2279 93.5994 56.3216 93.7152 56.3218 93.8229C56.3219 93.9291 56.2302 94.0434 56.0702 94.1363C55.869 94.2533 55.5843 94.3204 55.2893 94.3204Z" fill="#383C43"/>
<path d="M26.1992 97.0871C26.9047 96.6798 26.9087 96.019 26.2077 95.6116C25.5068 95.2042 24.3659 95.2044 23.6604 95.6117C22.9548 96.0191 22.9514 96.6796 23.6524 97.0869C24.3533 97.4943 25.4936 97.4945 26.1992 97.0871Z" fill="white"/>
<path d="M24.9242 97.4882C24.4455 97.4882 23.9668 97.3826 23.6033 97.1715C23.234 96.9569 23.0309 96.6657 23.0313 96.3517C23.0317 96.0362 23.2378 95.7435 23.6116 95.5274C24.3434 95.1052 25.5297 95.1044 26.2568 95.5274C26.6257 95.742 26.8289 96.0332 26.8285 96.3468C26.8277 96.6631 26.6215 96.9558 26.2477 97.1719C25.8822 97.383 25.4029 97.4882 24.9242 97.4882ZM24.9364 95.4028C24.4928 95.4028 24.0485 95.5007 23.7092 95.6966C23.3983 95.8761 23.2268 96.109 23.2264 96.3521C23.226 96.5938 23.3948 96.8247 23.7016 97.003C24.3746 97.3933 25.4733 97.3937 26.1501 97.0026C26.4611 96.8232 26.6329 96.5903 26.6333 96.3468C26.6337 96.1052 26.4649 95.8742 26.1584 95.6959C25.8224 95.5003 25.3796 95.4028 24.9364 95.4028Z" fill="#DBDEE4"/>
<path d="M24.9344 95.8843C24.6593 95.8843 24.3931 95.9469 24.204 96.0561C24.0522 96.1438 23.965 96.2514 23.9648 96.3515C23.9647 96.4504 24.0502 96.5568 24.1993 96.6435C24.3868 96.7525 24.6519 96.8149 24.9267 96.8149C25.2015 96.8149 25.4674 96.7524 25.6564 96.6433C25.8084 96.5555 25.8956 96.4478 25.8958 96.3475C25.8959 96.2486 25.8106 96.1422 25.6616 96.0557C25.4742 95.9467 25.2091 95.8842 24.9344 95.8843Z" fill="#FFBE2E"/>
<path d="M31.1447 92.349C30.8494 92.349 30.5635 92.4162 30.3604 92.5335C30.1973 92.6277 30.1037 92.7434 30.1035 92.8508C30.1034 92.957 30.1951 93.0713 30.3553 93.1644C30.5567 93.2814 30.8414 93.3485 31.1365 93.3485C31.4316 93.3485 31.7173 93.2813 31.9202 93.1642C32.0834 93.0699 32.1771 92.9542 32.1773 92.8465C32.1774 92.7403 32.0857 92.6261 31.9257 92.5331C31.7244 92.4161 31.4398 92.349 31.1447 92.349Z" fill="#383C43"/>
<path d="M43.4946 76.2463C42.9775 76.2463 42.4596 76.1323 42.0643 75.904L36.6425 72.7737C36.596 72.7467 36.58 72.6868 36.6066 72.6403C36.6337 72.5935 36.6939 72.5778 36.74 72.6045L42.1619 75.7348C42.8985 76.1605 44.0929 76.1593 44.8235 75.7352L54.5346 70.0919C54.5811 70.0644 54.6409 70.0805 54.6679 70.1269C54.695 70.1738 54.6794 70.2332 54.6329 70.2603L44.9219 75.9036C44.5289 76.1319 44.0121 76.2463 43.4946 76.2463Z" fill="#DBDEE4"/>
<path d="M53.9966 69.0576C53.291 69.4649 53.287 70.1258 53.988 70.5332C54.689 70.9405 55.8298 70.9403 56.5354 70.533C57.2409 70.1256 57.2444 69.4651 56.5434 69.0578C55.8424 68.6504 54.7021 68.6502 53.9966 69.0576Z" fill="white"/>
<path d="M55.2601 70.9339C54.7811 70.9339 54.3024 70.8284 53.9388 70.6169C53.5699 70.4027 53.3668 70.1115 53.3672 69.7975C53.3676 69.4816 53.5737 69.1885 53.9476 68.9724C54.6793 68.5501 55.8652 68.5505 56.5924 68.9732C56.9616 69.1877 57.1644 69.4789 57.164 69.7929C57.1636 70.1084 56.9575 70.4012 56.584 70.6173C56.2182 70.8284 55.7388 70.9339 55.2601 70.9339ZM55.2708 68.8482C54.8276 68.8482 54.384 68.9462 54.0452 69.1417C53.7343 69.3212 53.5628 69.5544 53.5624 69.798C53.562 70.0392 53.7305 70.2702 54.0372 70.4485C54.7106 70.8395 55.8093 70.8399 56.4866 70.4481C56.7975 70.2686 56.9687 70.0358 56.969 69.7926C56.9694 69.551 56.8009 69.3201 56.4941 69.1417C56.1576 68.9462 55.7144 68.8482 55.2708 68.8482Z" fill="#DBDEE4"/>
<path d="M55.2622 70.2605C55.5373 70.2605 55.8034 70.1978 55.9925 70.0887C56.1444 70.001 56.2316 69.8933 56.2317 69.7932C56.2319 69.6943 56.1464 69.5879 55.9973 69.5013C55.8098 69.3923 55.5447 69.3298 55.2699 69.3298C54.9951 69.3298 54.7291 69.3924 54.5402 69.5014C54.3882 69.5892 54.301 69.697 54.3008 69.7972C54.3007 69.8961 54.386 70.0025 54.5351 70.0891C54.7224 70.198 54.9875 70.2605 55.2622 70.2605Z" fill="#FFBE2E"/>
<path d="M49.052 73.7956C49.3474 73.7956 49.6333 73.7283 49.8364 73.611C49.9995 73.5169 50.0931 73.4012 50.0933 73.2938C50.0934 73.1875 50.0016 73.0733 49.8415 72.9802C49.6401 72.8631 49.3554 72.796 49.0604 72.7961C48.7652 72.7961 48.4796 72.8633 48.2766 72.9804C48.1134 73.0747 48.0197 73.1904 48.0195 73.2981C48.0194 73.4043 48.1111 73.5185 48.2711 73.6116C48.4723 73.7285 48.757 73.7956 49.052 73.7956Z" fill="#383C43"/>
</svg>
