<svg width="161" height="45" viewBox="0 0 161 45" fill="none" xmlns="http://www.w3.org/2000/svg">
<path d="M19.2548 3.49892C18.1904 2.33261 16.9326 1.55508 15.6747 0.971922C14.4169 0.388769 12.9655 0.0971922 11.5141 0.0971922C8.32115 0.0971922 5.61194 1.36069 3.38651 3.7905C1.16109 6.31749 0 9.42765 0 13.3153C0 17.0086 1.16109 20.1188 3.48327 22.6458C5.80545 25.1728 8.51466 26.4363 11.7077 26.4363C13.159 26.4363 14.4169 26.1447 15.6747 25.6587C16.8358 25.1728 18.0937 24.2981 19.2548 23.1318V25.7559H25.4472V0.777538H19.2548V3.49892ZM17.6099 18.5637C16.352 19.9244 14.7071 20.6048 12.772 20.6048C10.9336 20.6048 9.28872 19.9244 8.03088 18.4665C6.77303 17.1058 6.09573 15.2592 6.09573 13.121C6.09573 10.9827 6.77303 9.23326 8.03088 7.87257C9.28872 6.51188 10.8368 5.83153 12.772 5.83153C14.7071 5.83153 16.352 6.51188 17.6099 7.87257C18.8677 9.23326 19.2548 10.7883 19.2548 12.9266C19.3515 15.162 18.9645 17.203 17.6099 18.5637ZM60.9573 3.49892C59.8929 2.33261 58.6351 1.55508 57.3772 0.971922C56.1194 0.388769 54.668 0.0971922 53.2167 0.0971922C50.0237 0.0971922 47.3144 1.36069 45.089 3.7905C42.8636 6.2203 41.7025 9.42765 41.7025 13.2181C41.7025 16.9114 42.8636 20.0216 45.1858 22.5486C47.508 25.0756 50.2172 26.3391 53.4102 26.3391C54.8615 26.3391 56.1194 26.0475 57.3772 25.5616C58.5383 25.0756 59.7962 24.2009 60.9573 23.0346V25.6587H67.1497V0.777538H60.9573V3.49892ZM59.3124 18.5637C58.0545 19.9244 56.4096 20.6048 54.4745 20.6048C52.6361 20.6048 50.9912 19.9244 49.7334 18.4665C48.4755 17.1058 47.7982 15.2592 47.7982 13.121C47.7982 10.9827 48.4755 9.23326 49.7334 7.87257C50.9912 6.51188 52.5393 5.83153 54.4745 5.83153C56.4096 5.83153 58.0545 6.51188 59.3124 7.87257C60.5702 9.23326 60.9573 10.7883 60.9573 12.9266C61.054 15.162 60.667 17.203 59.3124 18.5637ZM104.401 1.36069C103.047 0.485961 101.499 0.0971922 99.757 0.0971922C98.0154 0.0971922 96.4673 0.485961 95.1127 1.2635C93.6613 2.04104 92.5002 3.11015 91.5326 4.66523C90.7586 3.20734 89.791 2.04104 88.5332 1.2635C87.2753 0.485961 85.9207 0.0971922 84.3726 0.0971922C82.8245 0.0971922 81.4699 0.388769 80.1153 0.971922C78.8574 1.55508 77.6963 2.42981 76.632 3.59611V0.680346H70.4395V25.6587H76.632V14.5788C76.632 12.149 76.8255 10.3996 77.2125 9.33045C77.5996 8.26134 78.2769 7.38661 79.1477 6.70626C80.0185 6.12311 80.8893 5.73434 81.9536 5.73434C82.9212 5.73434 83.6953 6.02592 84.2758 6.51188C84.9531 6.99784 85.4369 7.77538 85.7272 8.7473C86.0175 9.71922 86.211 11.3715 86.211 13.6069V25.6587H92.4035V14.3844C92.4035 12.0518 92.597 10.3024 92.984 9.23326C93.371 8.16415 94.0483 7.28942 94.8224 6.70626C95.6932 6.12311 96.6608 5.83153 97.7251 5.83153C99.0797 5.83153 100.144 6.31749 100.821 7.28942C101.499 8.26134 101.886 10.2052 101.886 13.0238V25.6587H108.078V11.0799C108.078 8.06695 107.788 5.92873 107.207 4.56803C106.724 3.30454 105.756 2.23542 104.401 1.36069ZM129.752 18.3693C128.107 20.0216 126.075 20.8963 123.85 20.8963C121.915 20.8963 120.366 20.3132 119.109 19.3413C117.851 18.2721 117.077 16.8143 116.786 15.0648H136.622V13.8985C136.622 9.81642 135.364 6.51188 132.945 3.98488C130.526 1.45788 127.333 0.194384 123.463 0.194384C119.786 0.194384 116.786 1.45788 114.367 3.98488C111.948 6.51188 110.691 9.62203 110.691 13.5097C110.691 17.203 111.948 20.3132 114.367 22.8402C116.786 25.27 119.979 26.5335 123.753 26.5335C126.269 26.5335 128.397 26.0475 130.236 25.1728C132.074 24.2981 133.622 22.9374 134.88 20.9935L129.752 18.3693ZM119.399 6.90065C120.657 5.92873 122.205 5.44276 123.946 5.44276C125.495 5.44276 126.946 5.83153 128.107 6.70626C129.268 7.58099 130.139 8.65011 130.526 10.0108H117.077C117.754 8.55292 118.528 7.4838 119.399 6.90065ZM151.329 12.5378L159.747 0.777538H152.683L147.846 7.58099L143.008 0.777538H135.848L144.266 12.635L134.88 25.7559H141.943L147.749 17.5918L153.554 25.7559H160.714L151.329 12.5378ZM40.3479 0C39.1868 0 38.2192 0.194384 37.3484 0.680346C36.4776 1.06911 35.6068 1.84665 34.5424 3.01296V0.87473H28.6402V25.8531H34.8327V12.8294C34.8327 8.06695 36.0906 5.73434 39.2836 5.73434C39.8641 5.73434 40.3479 5.83153 40.9284 6.02592C41.896 4.27646 43.1539 2.72138 44.4117 1.2635C43.0571 0.388769 41.7025 0 40.3479 0Z" fill="#DC291E"/>
<path d="M8.90221 41.9868H8.32167L8.03139 41.4037C7.45085 41.8897 6.77354 42.1812 6.09624 42.1812C5.22542 42.1812 4.45136 41.8897 3.96758 41.4037C3.29027 40.8205 3 39.8486 3 38.5851C3 36.1553 3.96758 34.989 5.99948 34.989C6.67679 34.989 7.35409 35.1834 8.03139 35.6694C7.93464 35.475 7.93463 35.2806 7.93463 35.0862V32.0732H8.90221V41.9868ZM7.83788 40.6262V36.4469C7.35409 36.1553 6.96706 36.0581 6.8703 36.0581C6.48327 35.9609 6.193 35.8637 5.90273 35.8637C5.22542 35.8637 4.74164 36.0581 4.35461 36.5441C4.06433 37.03 3.87082 37.7104 3.87082 38.6823C3.87082 40.529 4.54812 41.5009 5.99948 41.5009C6.58003 41.4037 7.16057 41.1121 7.83788 40.6262Z" fill="#DC291E"/>
<path d="M16.3496 38.8769H11.3182C11.3182 39.7517 11.5118 40.3348 11.802 40.7236C12.0923 41.1124 12.6728 41.3068 13.4469 41.3068C14.4145 41.3068 14.995 41.0152 15.3821 40.3348L16.2529 40.7236C15.7691 41.6955 14.8983 42.1815 13.4469 42.1815C12.3826 42.1815 11.5118 41.8899 11.028 41.3068C10.5442 40.7236 10.2539 39.8489 10.2539 38.5854C10.2539 37.4191 10.4474 36.5443 10.9312 35.9612C11.415 35.378 12.2858 34.9893 13.4469 34.9893C14.608 34.9893 15.3821 35.378 15.8658 36.0584C16.1561 36.5443 16.3496 37.4191 16.3496 38.5854V38.8769ZM15.3821 38.0022C15.3821 37.2247 15.2853 36.7387 14.995 36.35C14.7048 35.9612 14.221 35.7668 13.5437 35.7668C12.8664 35.7668 12.3826 35.9612 11.9955 36.2528C11.6085 36.6415 11.415 37.2247 11.415 38.0022H15.3821Z" fill="#DC291E"/>
<path d="M20.2212 42.084H19.7375C18.7699 42.084 18.1893 41.5009 18.1893 40.4318V32.948H17.125V32.0732H19.1569V40.4318C19.1569 40.9177 19.3504 41.2093 19.7375 41.2093H20.2212V42.084Z" fill="#DC291E"/>
<path d="M23.8003 42.084H23.3165C22.3489 42.084 21.8651 41.5009 21.8651 40.4317V36.4469C21.8651 36.3497 21.8651 36.1553 21.9619 35.9609H20.8008V35.0862H22.8327V40.3346C22.8327 40.8205 23.0262 41.1121 23.3165 41.1121H23.8003V42.084ZM22.8327 33.2395C22.8327 33.3367 22.8327 33.3367 22.8327 33.2395L21.6716 33.3367C21.5748 33.3367 21.5748 33.3367 21.5748 33.2395V32.2676C21.5748 32.1704 21.5748 32.1704 21.6716 32.1704H22.7359C22.8327 32.1704 22.8327 32.1704 22.8327 32.2676V33.2395Z" fill="#DC291E"/>
<path d="M30.4776 35.1831L27.9619 41.9866H26.8009L24.2852 35.1831H25.3495L27.1879 40.2371C27.2846 40.4315 27.3814 40.8203 27.3814 41.3062C27.3814 41.1118 27.4782 40.7231 27.6717 40.2371L29.5101 35.1831H30.4776Z" fill="#DC291E"/>
<path d="M37.1543 38.8769H32.1229C32.1229 39.7517 32.3164 40.3348 32.6067 40.7236C32.897 41.1124 33.4775 41.3068 34.2516 41.3068C35.2192 41.3068 35.7997 41.0152 36.1867 40.3348L37.0576 40.7236C36.5738 41.6955 35.703 42.1815 34.2516 42.1815C33.1873 42.1815 32.3164 41.8899 31.8327 41.3068C31.3489 40.7236 31.0586 39.8489 31.0586 38.5854C31.0586 37.4191 31.2521 36.5443 31.7359 35.9612C32.2197 35.378 33.0905 34.9893 34.2516 34.9893C35.4127 34.9893 36.1867 35.378 36.6705 36.0584C36.9608 36.5443 37.1543 37.4191 37.1543 38.5854V38.8769ZM36.09 38.0022C36.09 37.2247 35.9932 36.7387 35.703 36.35C35.4127 35.9612 34.9289 35.7668 34.2516 35.7668C33.5743 35.7668 33.0905 35.9612 32.7035 36.2528C32.3164 36.6415 32.1229 37.2247 32.1229 38.0022H36.09Z" fill="#DC291E"/>
<path d="M41.992 35.9607C41.7985 35.9607 41.605 35.8635 41.4114 35.8635C40.8309 35.8635 40.3471 36.0579 39.9601 36.4467L39.573 36.7383V41.8894H38.6055V35.086H39.3795L39.573 35.7663L40.1536 35.2804C40.5406 34.9888 40.9276 34.8916 41.4114 34.8916C41.605 34.8916 41.7985 34.8916 41.992 34.9888V35.9607Z" fill="#DC291E"/>
<path d="M48.9581 35.1831L45.7651 43.736C45.5716 44.222 45.3781 44.5136 45.0878 44.708C44.7975 44.9024 44.3137 44.9995 43.7332 44.9995H42.8624V44.1248H43.7332C44.1202 44.1248 44.4105 44.0276 44.5073 43.9304C44.604 43.8332 44.7975 43.6389 44.8943 43.2501L45.3781 42.0838L42.7656 35.0859H43.83L45.6684 40.1399C45.6684 40.2371 45.7651 40.5287 45.8619 41.0147C45.9586 40.6259 46.0554 40.3343 46.0554 40.1399L47.8938 35.0859L48.9581 35.1831Z" fill="#DC291E"/>
<path d="M58.8268 41.987H58.0527L57.8592 41.2095L57.3754 41.5011C56.6981 41.987 56.1176 42.1814 55.6338 42.1814C54.8597 42.1814 54.2792 41.987 53.8921 41.5983C53.4084 41.1123 53.2148 40.432 53.2148 39.5572V35.1836H54.1824V39.5572C54.1824 40.8207 54.6662 41.4039 55.6338 41.4039C56.1176 41.4039 56.6014 41.2095 57.1819 40.8207L57.8592 40.3348V35.1836H58.8268V41.987Z" fill="#DC291E"/>
<path d="M66.2799 41.9871H65.3123V37.6134C65.3123 36.4471 64.8285 35.7668 63.861 35.7668C63.3772 35.7668 62.8934 35.9612 62.3128 36.35L61.6355 36.8359V41.9871H60.668V35.1836H61.442L61.6355 35.9612L62.1193 35.6696C62.7966 35.1836 63.3772 34.9893 63.861 34.9893C64.635 34.9893 65.1188 35.1836 65.6026 35.5724C66.0864 36.0584 66.2799 36.6415 66.2799 37.6134V41.9871Z" fill="#DC291E"/>
<path d="M70.2447 42.084H69.7609C68.7933 42.084 68.2128 41.5009 68.2128 40.4318V32.948H67.1484V32.0732H69.1803V40.4318C69.1803 40.9177 69.3739 41.2093 69.7609 41.2093H70.2447V42.084Z" fill="#DC291E"/>
<path d="M73.9214 42.084H73.4376C72.47 42.084 71.9862 41.5009 71.9862 40.4317V36.4469C71.9862 36.3497 71.9862 36.1553 72.083 35.9609H70.9219V35.0862H72.9538V40.3346C72.9538 40.8205 73.1473 41.1121 73.4376 41.1121H73.9214V42.084ZM72.857 33.2395C72.857 33.3367 72.857 33.3367 72.857 33.2395L71.6959 33.3367C71.5992 33.3367 71.5992 33.3367 71.5992 33.2395V32.2676C71.5992 32.1704 71.5992 32.1704 71.6959 32.1704H72.7603C72.857 32.1704 72.857 32.1704 72.857 32.2676V33.2395Z" fill="#DC291E"/>
<path d="M84.4684 41.9871H83.5008V37.6134C83.5008 36.3499 83.1138 35.7668 82.4365 35.7668C81.9527 35.7668 81.4689 35.9612 80.7916 36.4471L80.3078 36.7387C80.3078 36.9331 80.4046 37.2247 80.4046 37.6134V41.9871H79.437V37.6134C79.437 36.3499 79.05 35.7668 78.2759 35.7668C77.8889 35.7668 77.3084 35.9612 76.7278 36.4471L76.1473 36.8359V41.9871H75.1797V35.1836H75.9538L76.1473 35.9612L76.6311 35.6696C77.3084 35.1836 77.8889 34.9893 78.2759 34.9893C79.1468 34.9893 79.7273 35.378 80.1143 36.0584L80.5981 35.6696C80.9851 35.378 81.2754 35.1836 81.4689 35.1836C81.7592 35.0865 82.1462 34.9893 82.5333 34.9893C83.8879 34.9893 84.6619 35.864 84.6619 37.7106V41.9871H84.4684Z" fill="#DC291E"/>
<path d="M88.6284 42.084H88.1446C87.177 42.084 86.6932 41.5009 86.6932 40.4317V36.4469C86.6932 36.3497 86.6932 36.1553 86.79 35.9609H85.6289V35.0862H87.6608V40.3346C87.6608 40.8205 87.8543 41.1121 88.1446 41.1121H88.6284V42.084ZM87.6608 33.2395C87.6608 33.3367 87.6608 33.3367 87.6608 33.2395L86.4997 33.3367C86.403 33.3367 86.403 33.3367 86.403 33.2395V32.2676C86.403 32.1704 86.403 32.1704 86.4997 32.1704H87.5641C87.6608 32.1704 87.6608 32.1704 87.6608 32.2676V33.2395Z" fill="#DC291E"/>
<path d="M94.2432 41.598C93.7594 41.9867 93.0821 42.1811 92.2113 42.1811C91.0502 42.1811 90.4697 41.598 90.4697 40.3345V36.544C90.4697 36.4468 90.4697 36.2524 90.5664 36.058H89.3086V35.1833H90.4697V32.8507L91.4373 32.5591V35.1833H93.8562L93.5659 36.058H91.4373V40.3345C91.4373 40.7232 91.534 41.0148 91.7275 41.2092C91.921 41.4036 92.2113 41.4036 92.5983 41.4036C92.9854 41.4036 93.2757 41.3064 93.6627 41.0148L94.2432 41.598Z" fill="#DC291E"/>
<path d="M101.014 38.8769H95.9823C95.9823 39.7517 96.1758 40.3348 96.4661 40.7236C96.7564 41.1124 97.3369 41.3068 98.111 41.3068C99.0785 41.3068 99.6591 41.0152 100.046 40.3348L100.917 40.7236C100.433 41.6955 99.5623 42.1815 98.111 42.1815C97.0466 42.1815 96.1758 41.8899 95.692 41.3068C95.2082 40.7236 94.918 39.8489 94.918 38.5854C94.918 37.4191 95.1115 36.5443 95.5953 35.9612C96.0791 35.378 96.9499 34.9893 98.111 34.9893C99.2721 34.9893 100.046 35.378 100.53 36.0584C100.82 36.5443 101.014 37.4191 101.014 38.5854V38.8769ZM99.9494 38.0022C99.9494 37.2247 99.8526 36.7387 99.5623 36.35C99.2721 35.9612 98.7883 35.7668 98.111 35.7668C97.4337 35.7668 96.9499 35.9612 96.5629 36.2528C96.1758 36.6415 95.9823 37.2247 95.9823 38.0022H99.9494Z" fill="#DC291E"/>
<path d="M108.172 41.9868H107.591L107.301 41.4037C106.72 41.8897 106.043 42.1812 105.366 42.1812C104.495 42.1812 103.721 41.8897 103.237 41.4037C102.56 40.8205 102.27 39.8486 102.27 38.5851C102.27 36.1553 103.237 34.989 105.269 34.989C105.946 34.989 106.624 35.1834 107.301 35.6694C107.204 35.475 107.204 35.2806 107.204 35.0862V32.0732H108.172V41.9868ZM107.204 40.6262V36.4469C106.72 36.1553 106.333 36.0581 106.237 36.0581C105.85 35.9609 105.559 35.8637 105.269 35.8637C104.592 35.8637 104.108 36.0581 103.721 36.5441C103.431 37.03 103.237 37.7104 103.237 38.6823C103.237 40.529 103.914 41.5009 105.366 41.5009C105.85 41.4037 106.43 41.1121 107.204 40.6262Z" fill="#DC291E"/>
</svg>
