<svg width="56" height="56" viewBox="0 0 56 56" fill="none" xmlns="http://www.w3.org/2000/svg">
<g clip-path="url(#clip0_3521_3963)">
<mask id="mask0_3521_3963" style="mask-type:luminance" maskUnits="userSpaceOnUse" x="0" y="0" width="56" height="56">
<path d="M0 3.8147e-06H56V56H0V3.8147e-06Z" fill="white"/>
</mask>
<g mask="url(#mask0_3521_3963)">
<path d="M39.1838 41.9524C37.4316 41.9524 36.0097 40.5317 36.0097 38.7783C36.0097 37.025 37.4316 35.6043 39.1838 35.6043C40.9371 35.6043 42.3578 37.025 42.3578 38.7783C42.3578 40.5317 40.9371 41.9524 39.1838 41.9524ZM46.9188 39.8567C46.3303 39.2586 46.3303 38.2981 46.9188 37.7L48.3297 36.2661C48.8143 35.7727 48.9105 35.0169 48.5649 34.4187L47.6505 32.8339C47.3049 32.2355 46.6016 31.9414 45.9322 32.1142L43.9853 32.6194C43.1727 32.8294 42.3414 32.3492 42.1172 31.5411L41.5813 29.6017C41.3964 28.9356 40.7904 28.4742 40.0993 28.4742H38.2694C37.5782 28.4742 36.9711 28.9356 36.7874 29.6017L36.2503 31.5411C36.0272 32.3492 35.1949 32.8294 34.3822 32.6194L32.4353 32.1142C31.766 31.9414 31.0638 32.2355 30.7182 32.8339L29.8027 34.4187C29.4571 35.0169 29.5533 35.7727 30.0389 36.2661L31.4488 37.7C32.0383 38.2981 32.0383 39.2586 31.4488 39.8567L30.0389 41.2906C29.5533 41.784 29.4571 42.5398 29.8027 43.138L30.7182 44.7228C31.0638 45.3212 31.766 45.6153 32.4353 45.4425L34.3822 44.9373C35.1949 44.7273 36.0272 45.2075 36.2503 46.0156L36.7874 47.955C36.9711 48.6211 37.5782 49.0825 38.2694 49.0825H40.0993C40.7904 49.0825 41.3964 48.6211 41.5813 47.955L42.1172 46.0156C42.3414 45.2075 43.1727 44.7273 43.9853 44.9373L45.9322 45.4425C46.6016 45.6153 47.3049 45.3212 47.6505 44.7228L48.5649 43.138C48.9105 42.5398 48.8143 41.784 48.3297 41.2906L46.9188 39.8567Z" stroke="black" stroke-width="2" stroke-miterlimit="10" stroke-linecap="round" stroke-linejoin="round"/>
<path d="M23.853 42.252C23.2358 39.5435 23.3301 36.6375 24.2718 33.8108C27.0156 25.5748 35.9162 21.1226 44.1523 23.8663C46.9789 24.8081 49.3609 26.4754 51.1585 28.5925" stroke="black" stroke-width="2" stroke-miterlimit="10" stroke-linecap="round" stroke-linejoin="round"/>
<path d="M54.5151 35.3058C55.1323 38.0143 55.0379 40.9202 54.0963 43.7469C51.3529 51.982 42.4518 56.4353 34.2158 53.6915C31.3892 52.7498 29.0071 51.0824 27.21 48.9642" stroke="black" stroke-width="2" stroke-miterlimit="10" stroke-linecap="round" stroke-linejoin="round"/>
<path d="M47.4229 28.5898L51.1588 28.5923L51.1649 24.8551" stroke="black" stroke-width="2" stroke-miterlimit="10" stroke-linecap="round" stroke-linejoin="round"/>
<path d="M30.9463 48.9665L27.2102 48.9639L27.2041 52.7012" stroke="black" stroke-width="2" stroke-miterlimit="10" stroke-linecap="round" stroke-linejoin="round"/>
<path d="M1.09375 25.0563V35.3622C1.09375 37.3144 2.60531 38.896 4.46687 38.896H23.4631C23.45 37.2117 23.7092 35.4978 24.2714 33.8113C26.4655 27.2258 32.5948 23.0596 39.1737 23.0564V5.03251C39.1737 3.08006 37.6622 1.4985 35.8006 1.4985H4.46687C2.60531 1.4985 1.09375 3.08006 1.09375 5.03251V15.4401" stroke="black" stroke-width="2" stroke-miterlimit="10" stroke-linecap="round" stroke-linejoin="round"/>
<path d="M25.0222 1.49843H15.2461V9.97412H25.0222V1.49843Z" stroke="black" stroke-width="2" stroke-miterlimit="10" stroke-linecap="round" stroke-linejoin="round"/>
<path d="M6.30566 33.3438H12.7267" stroke="black" stroke-width="2" stroke-miterlimit="10" stroke-linecap="round" stroke-linejoin="round"/>
</g>
</g>
<defs>
<clipPath id="clip0_3521_3963">
<rect width="56" height="56" fill="white"/>
</clipPath>
</defs>
</svg>
