<svg width="123" height="123" viewBox="0 0 123 123" fill="none" xmlns="http://www.w3.org/2000/svg">
<circle cx="61.5" cy="61.5" r="61.0845" fill="#FFBE2E" stroke="#FFBE2E" stroke-width="0.831081"/>
<rect x="29" y="23" width="42" height="53" rx="2" fill="white"/>
<path fill-rule="evenodd" clip-rule="evenodd" d="M60.1892 54.9584L65.4422 57.9918L60.1892 61.0259V54.9584ZM63.0023 27H61.0048C60.8511 27.0049 60.6974 27.0105 60.5435 27.0177C52.8193 27.3793 45.5514 30.5922 40.0794 36.0659C34.6068 41.5401 31.3944 48.8108 31.0341 56.5381C30.6761 64.2134 33.1491 71.6997 37.997 77.6181C38.1707 77.8302 38.4231 77.9395 38.6773 77.9395C38.8733 77.9395 39.0702 77.8745 39.2336 77.741C39.609 77.4332 39.6638 76.8792 39.3563 76.5041C29.8003 64.8384 30.6454 47.9879 41.322 37.3088C51.5263 27.1016 67.3687 25.8782 78.9327 34.1371L75.2153 34.7804C74.7374 34.8631 74.417 35.318 74.4995 35.7959C74.5822 36.2743 75.0365 36.5946 75.5151 36.5118L81.211 35.5265C81.4405 35.4869 81.645 35.3575 81.7792 35.1667C81.9134 34.9765 81.9665 34.7402 81.9268 34.5104L80.9412 28.8134C80.8586 28.335 80.4044 28.0136 79.9257 28.0968C79.4476 28.1796 79.1273 28.6344 79.2098 29.1129L79.8146 32.6106C74.8823 29.1392 69.0481 27.1932 63.0023 27ZM58.9967 63.0916C59.1707 63.1927 59.3659 63.2429 59.5611 63.2429C59.7565 63.2429 59.9521 63.192 60.1265 63.0916L67.2619 58.9707C67.6102 58.7693 67.8266 58.3947 67.8266 57.9918C67.8266 57.5895 67.6102 57.2144 67.2619 57.0136L60.1262 52.8927C59.7777 52.6918 59.3449 52.6913 58.9967 52.8927C58.6485 53.0936 58.4321 53.4687 58.4321 53.8715V62.1133C58.4321 62.5156 58.6485 62.8908 58.9967 63.0916ZM92.966 59.4462C93.3238 51.7715 90.8511 44.2846 86.0027 38.3661C85.6952 37.9909 85.1414 37.936 84.7662 38.2438C84.3912 38.551 84.336 39.1045 84.6434 39.4802C94.1997 51.1458 93.3545 67.9963 82.678 78.6755C72.4845 88.8714 56.6291 90.1002 45.0678 81.8472L48.7845 81.2038C49.2627 81.121 49.5831 80.6662 49.5005 80.1883C49.4177 79.7099 48.9635 79.389 48.4851 79.4723L42.7891 80.4577C42.5596 80.4972 42.355 80.6267 42.221 80.8174C42.0864 81.0076 42.0334 81.2438 42.0731 81.473L43.0589 87.1711C43.1414 87.6491 43.5954 87.9692 44.0741 87.8871C44.5522 87.8044 44.8727 87.3495 44.7901 86.871L44.185 83.3733C49.389 87.0358 55.5961 89 61.9944 89C62.4948 89 62.997 88.9882 63.4992 88.964C71.207 88.593 78.4597 85.3806 83.9207 79.9181C89.3931 74.4441 92.6056 67.1735 92.966 59.4462ZM61.9999 48.5608C56.8008 48.5608 52.5714 52.7916 52.5714 57.9918C52.5714 63.1927 56.8008 67.4233 61.9999 67.4233C67.1987 67.4233 71.4285 63.1926 71.4285 57.9918C71.4285 52.7916 67.1988 48.5608 61.9999 48.5608ZM61.9999 69.1808C68.1676 69.1808 73.1856 64.1613 73.1856 57.9918C73.1856 51.8228 68.1676 46.8034 61.9999 46.8034C55.8319 46.8034 50.8142 51.8228 50.8142 57.9918C50.8142 64.1615 55.832 69.1808 61.9999 69.1808ZM41.4265 60.1379C41.4265 60.4303 41.6646 60.6685 41.9572 60.6685C44.2735 60.6685 46.2639 62.0006 47.1516 64.1443C48.0393 66.2875 47.5733 68.6373 45.9353 70.276C45.7285 70.4827 45.7286 70.8194 45.9356 71.0262L48.9692 74.0607C49.0694 74.1612 49.2026 74.2161 49.3444 74.2161C49.486 74.2161 49.6194 74.1612 49.7196 74.0607C50.8098 72.9703 52.214 72.3983 53.6621 72.3983C54.3922 72.3983 55.133 72.5437 55.8511 72.8409C57.9932 73.7288 59.3241 75.7212 59.3241 78.0404C59.3241 78.3328 59.5622 78.571 59.8547 78.571H64.1451C64.4377 78.571 64.6755 78.3329 64.6755 78.0404C64.6755 75.723 66.0068 73.7323 68.1501 72.8444C70.2933 71.9566 72.6421 72.4226 74.2802 74.0607C74.3804 74.1612 74.5138 74.2161 74.6553 74.2161C74.7972 74.2161 74.9303 74.1612 75.0307 74.0607L78.0646 71.0262C78.1647 70.9264 78.2198 70.7928 78.2198 70.6511C78.2198 70.5093 78.1647 70.3758 78.0646 70.276C76.4265 68.6373 75.9605 66.288 76.8483 64.1443C77.736 62.0006 79.7264 60.6685 82.0427 60.6685C82.335 60.6685 82.5731 60.4304 82.5731 60.1379V55.8463C82.5731 55.5539 82.335 55.3157 82.0427 55.3157C79.7264 55.3157 77.736 53.9836 76.8483 51.8399C75.9604 49.6962 76.4263 47.3469 78.0646 45.7087C78.2713 45.5015 78.2713 45.1646 78.0643 44.958L75.0307 41.9228C74.8239 41.7161 74.4869 41.7161 74.2803 41.9235C72.6422 43.5615 70.2934 44.0276 68.1503 43.1398C66.0069 42.252 64.6757 40.2606 64.6757 37.9437C64.6757 37.6514 64.4377 37.4132 64.1453 37.4132H59.8549C59.5623 37.4132 59.3242 37.6512 59.3242 37.9437C59.3242 40.2606 57.9929 42.2519 55.8497 43.1398C53.7066 44.0276 51.3575 43.5616 49.7197 41.923C49.5127 41.7162 49.1761 41.7162 48.9693 41.923L45.9353 44.9581C45.7286 45.1649 45.7286 45.5016 45.9356 45.7088C47.5733 47.3469 48.0393 49.6962 47.1516 51.84C46.2639 53.9838 44.2735 55.3158 41.9572 55.3158C41.6646 55.3158 41.4265 55.5539 41.4265 55.8464V60.1379ZM45.5282 64.8165C46.0069 65.972 46.0386 67.6869 44.6931 69.0331C43.801 69.9251 43.801 71.3772 44.6931 72.2691L47.7267 75.3037C48.1588 75.7362 48.7331 75.9736 49.3445 75.9736C49.9556 75.9736 50.5301 75.7362 50.9622 75.3037C52.3099 73.9556 54.0239 73.9864 55.1787 74.4648C56.3333 74.9433 57.5673 76.1336 57.5673 78.0404C57.5673 79.3022 58.5934 80.3284 59.8549 80.3284H64.1453C65.4067 80.3284 66.4329 79.3024 66.4329 78.0404C66.4329 76.1365 67.6672 74.9468 68.8227 74.4683C69.9778 73.9893 71.692 73.9574 73.0378 75.3037C73.9299 76.1956 75.3811 76.1956 76.2732 75.3037L79.3068 72.2691C79.7388 71.8373 79.9767 71.2626 79.9767 70.6512C79.9767 70.0397 79.7388 69.465 79.3068 69.0331C77.9612 67.6869 77.993 65.972 78.4717 64.8165C78.9503 63.6611 80.1396 62.4259 82.0428 62.4259C83.304 62.4259 84.3304 61.3992 84.3304 60.1381V55.8464C84.3304 54.5846 83.304 53.5584 82.0428 53.5584C80.1397 53.5584 78.9503 52.3232 78.4717 51.1678C77.993 50.0117 77.9613 48.2975 79.3068 46.9512C80.1989 46.0592 80.1989 44.6077 79.3068 43.7152L76.2732 40.6806C75.3811 39.788 73.9297 39.788 73.0378 40.6806C71.692 42.0269 69.9778 41.995 68.8227 41.5158C67.6672 41.0374 66.4329 39.8477 66.4329 37.9437C66.4329 36.682 65.4067 35.6558 64.1453 35.6558H59.8549C58.5934 35.6558 57.5673 36.6818 57.5673 37.9437C57.5673 39.8477 56.3329 41.0374 55.1774 41.5158C54.0219 41.9949 52.3079 42.0269 50.9623 40.6806C50.0702 39.788 48.6189 39.788 47.7268 40.6806L44.6928 43.7152C43.8012 44.6077 43.8012 46.0591 44.6931 46.9512C46.0386 48.2975 46.0069 50.0117 45.5282 51.1678C45.0497 52.3232 43.8603 53.5584 41.957 53.5584C40.6956 53.5584 39.6693 54.5845 39.6693 55.8464V60.1381C39.6693 61.3992 40.6957 62.4259 41.957 62.4259C43.8603 62.4259 45.0497 63.6611 45.5282 64.8165Z" fill="black"/>
</svg>
