<svg width="520" height="280" viewBox="0 0 520 280" fill="none" xmlns="http://www.w3.org/2000/svg">
<mask id="mask0_5541_19235" style="mask-type:alpha" maskUnits="userSpaceOnUse" x="0" y="0" width="520" height="280">
<rect width="520" height="280" rx="23" transform="matrix(-1 0 0 1 520 0)" fill="white"/>
</mask>
<g mask="url(#mask0_5541_19235)">
<path d="M215.803 235.728C215.885 235.728 215.959 235.684 216.004 235.61C216.071 235.498 216.034 235.349 215.922 235.283L169.443 207.738C168.84 207.389 168.513 206.936 168.513 206.475C168.513 206.007 168.848 205.554 169.458 205.197L187.518 194.772C187.63 194.705 187.667 194.564 187.608 194.445C187.541 194.334 187.392 194.297 187.28 194.356L169.22 204.781C168.461 205.219 168.037 205.821 168.037 206.468C168.037 207.114 168.454 207.709 169.205 208.147L215.684 235.684C215.721 235.706 215.766 235.714 215.803 235.714V235.728Z" fill="#DBDEE4"/>
<path d="M266.252 263.809C264.921 263.809 263.583 263.512 262.564 262.925L237.32 248.361C237.209 248.295 237.172 248.153 237.231 248.035C237.298 247.923 237.447 247.886 237.558 247.945L262.802 262.509C264.705 263.609 267.799 263.609 269.687 262.509L294.767 247.945C294.879 247.879 295.027 247.916 295.094 248.035C295.161 248.146 295.124 248.295 295.013 248.361L269.933 262.925C268.921 263.512 267.59 263.809 266.252 263.809Z" fill="#DBDEE4"/>
<path d="M154.838 80.4731L89.0039 118.702L89.0857 89.1146" fill="white"/>
<path d="M89.0055 118.94C88.9683 118.94 88.9237 118.933 88.8865 118.91C88.8122 118.866 88.7676 118.791 88.7676 118.702L88.8494 89.1072C88.8494 88.9734 88.9535 88.8694 89.0873 88.8694C89.2211 88.8694 89.3252 88.9734 89.3252 89.1072L89.2434 118.286L154.72 80.2576C154.832 80.1908 154.981 80.2279 155.048 80.3468C155.115 80.4582 155.077 80.6069 154.966 80.6737L89.1245 118.91C89.1245 118.91 89.0427 118.94 89.0055 118.94Z" fill="#373B42"/>
<path d="M89.0861 89.1146L89.0043 118.702L82.5801 115.002L82.6693 85.3994" fill="#F9DD9A"/>
<path d="M89.0044 118.94C88.9672 118.94 88.9226 118.933 88.8854 118.91L82.4686 115.21C82.3942 115.165 82.3496 115.091 82.3496 115.002L82.4314 85.407C82.4314 85.2732 82.5355 85.1692 82.6693 85.1692C82.8032 85.1692 82.9073 85.2732 82.9073 85.407L82.8255 114.868L88.7739 118.301L88.8557 89.1221C88.8557 88.9884 88.9598 88.8844 89.0936 88.8844C89.2274 88.8844 89.3315 88.9884 89.3315 89.1221L89.2498 118.717C89.2498 118.799 89.2051 118.881 89.1308 118.925C89.0936 118.948 89.0564 118.955 89.0118 118.955L89.0044 118.94Z" fill="#373B42"/>
<g opacity="0.1">
<path d="M130.325 209.776C128.934 210.578 128.927 211.871 130.31 212.674L154.178 226.554C155.553 227.356 157.799 227.356 159.182 226.554L197.029 204.716C198.419 203.913 198.427 202.62 197.044 201.818L173.176 187.938C171.8 187.136 169.555 187.136 168.172 187.938L130.325 209.776Z" fill="black"/>
</g>
<path d="M198.079 198.029C198.079 198.913 197.767 199.537 197.261 199.827L160.039 221.442C160.552 221.152 160.849 220.528 160.857 219.651C160.857 217.868 159.6 215.691 158.054 214.806L137.532 202.955C137.323 202.829 137.145 202.68 137.004 202.524C136.691 202.167 136.535 201.759 136.446 201.499C136.334 201.149 136.23 200.562 136.58 200.265L173.869 178.598C173.452 178.888 173.564 179.505 173.683 179.884C173.757 180.136 173.906 180.545 174.233 180.902C174.374 181.073 174.553 181.221 174.769 181.348L195.283 193.184C196.837 194.068 198.094 196.26 198.086 198.029H198.079Z" fill="#F6E5CC"/>
<path d="M160.032 221.687C159.95 221.687 159.868 221.643 159.824 221.568C159.757 221.457 159.794 221.308 159.913 221.241H159.928C160.367 220.974 160.612 220.417 160.619 219.651C160.619 217.942 159.415 215.862 157.935 215.015L137.413 203.163C137.19 203.03 136.989 202.866 136.826 202.68C136.566 202.376 136.357 202.004 136.224 201.566C136.015 200.912 136.09 200.369 136.424 200.08L173.751 178.391C173.862 178.324 174.003 178.361 174.07 178.465C174.137 178.569 174.115 178.717 174.011 178.784C173.736 178.978 173.803 179.446 173.914 179.802C174.026 180.174 174.189 180.486 174.412 180.731C174.546 180.887 174.702 181.021 174.888 181.125L195.403 192.969C197.024 193.89 198.332 196.156 198.325 198.021C198.325 198.965 197.99 199.678 197.381 200.028L160.173 221.635C160.173 221.635 160.166 221.635 160.158 221.643C160.121 221.665 160.084 221.672 160.04 221.672L160.032 221.687ZM173.342 179.178L136.699 200.466C136.462 200.682 136.618 201.254 136.677 201.425C136.796 201.804 136.967 202.123 137.19 202.368C137.317 202.517 137.48 202.651 137.659 202.755L158.181 214.599C159.794 215.52 161.103 217.786 161.103 219.651C161.103 220.023 161.043 220.357 160.947 220.647L197.15 199.626C197.604 199.366 197.856 198.802 197.856 198.029C197.864 196.342 196.637 194.217 195.172 193.385L174.658 181.548C174.427 181.415 174.219 181.251 174.055 181.051C173.795 180.761 173.594 180.382 173.461 179.951C173.371 179.646 173.334 179.386 173.349 179.186L173.342 179.178Z" fill="#373B42"/>
<path d="M195.273 193.184C196.827 194.068 198.083 196.26 198.076 198.028C198.076 198.913 197.764 199.537 197.258 199.827L160.036 221.441C160.549 221.152 160.847 220.527 160.854 219.651C160.854 217.867 159.597 215.69 158.051 214.806" fill="#FFBE2E"/>
<path d="M160.03 221.687C159.948 221.687 159.866 221.642 159.822 221.568C159.755 221.456 159.792 221.308 159.911 221.241H159.926C160.365 220.973 160.61 220.416 160.617 219.651C160.617 217.942 159.413 215.861 157.933 215.014C157.822 214.947 157.777 214.806 157.844 214.687C157.911 214.568 158.052 214.531 158.171 214.598C159.785 215.52 161.093 217.786 161.093 219.651C161.093 220.022 161.034 220.357 160.937 220.646L197.141 199.626C197.594 199.366 197.847 198.801 197.847 198.028C197.854 196.342 196.627 194.217 195.163 193.385C195.051 193.318 195.007 193.176 195.073 193.058C195.14 192.946 195.282 192.902 195.401 192.968C197.022 193.89 198.33 196.156 198.323 198.021C198.323 198.965 197.988 199.678 197.378 200.027L160.171 221.635C160.171 221.635 160.164 221.635 160.156 221.642C160.119 221.664 160.082 221.672 160.037 221.672L160.03 221.687Z" fill="#373B42"/>
<path d="M139.315 173.873C140.869 174.772 142.118 176.941 142.118 178.725L142.081 192.062C142.074 195.316 140.958 197.746 138.951 198.883L136.705 200.169C136.214 200.451 136.326 201.12 136.445 201.506C136.556 201.885 136.846 202.576 137.53 202.977L158.045 214.814C159.592 215.705 160.848 217.89 160.848 219.666C160.848 221.456 159.577 222.162 158.03 221.271L137.516 209.434C134.757 207.844 132.288 204.523 131.24 200.978C130.192 197.442 130.786 194.432 132.735 193.31L134.988 192.04C135.932 191.497 136.46 190.36 136.46 188.822L136.497 175.485C136.497 173.702 137.768 172.988 139.315 173.88V173.873Z" fill="#373B42"/>
<path d="M159.294 221.88C158.863 221.88 158.395 221.739 157.919 221.464L137.404 209.627C134.586 208 132.081 204.627 131.017 201.03C129.939 197.389 130.571 194.269 132.623 193.087L134.876 191.817C135.746 191.326 136.222 190.256 136.23 188.807L136.267 175.47C136.267 174.526 136.601 173.813 137.211 173.464C137.821 173.115 138.616 173.181 139.442 173.657C141.055 174.586 142.364 176.859 142.364 178.71L142.327 192.047C142.319 195.398 141.159 197.895 139.07 199.076L136.824 200.362C136.453 200.57 136.594 201.172 136.676 201.424C136.78 201.773 137.04 202.405 137.657 202.762L158.172 214.598C159.785 215.527 161.094 217.801 161.094 219.651C161.094 220.594 160.759 221.308 160.15 221.657C159.897 221.806 159.607 221.88 159.294 221.88ZM138.059 173.724C137.828 173.724 137.62 173.776 137.442 173.88C136.988 174.14 136.735 174.705 136.735 175.477L136.698 188.815C136.698 190.442 136.125 191.653 135.107 192.24L132.854 193.511C130.995 194.581 130.452 197.486 131.471 200.904C132.504 204.389 134.921 207.658 137.635 209.226L158.149 221.063C158.826 221.449 159.451 221.523 159.912 221.263C160.365 221.003 160.611 220.438 160.618 219.666C160.618 217.964 159.421 215.876 157.934 215.022L137.419 203.185C136.661 202.747 136.341 201.989 136.222 201.58C135.984 200.83 136.118 200.235 136.594 199.968L138.839 198.682C140.773 197.583 141.843 195.235 141.851 192.062L141.888 178.724C141.888 177.023 140.691 174.935 139.204 174.081C138.795 173.843 138.408 173.731 138.066 173.731L138.059 173.724Z" fill="#373B42"/>
<path d="M176.182 177.253C178.189 176.109 179.304 173.679 179.319 170.425L179.356 157.095C179.356 155.311 178.115 153.142 176.553 152.25C175.773 151.789 175.066 151.76 174.553 152.057L137.324 173.672C137.837 173.374 138.55 173.419 139.324 173.865C140.885 174.764 142.134 176.934 142.127 178.709L142.09 192.047C142.082 195.079 141.116 197.397 139.354 198.608C139.346 198.623 139.339 198.638 139.324 198.638L136.706 200.153C136.662 200.183 136.617 200.205 136.58 200.257L173.862 178.598L176.174 177.253H176.182Z" fill="#F6E5CC"/>
<path d="M136.58 200.503C136.513 200.503 136.453 200.48 136.409 200.428C136.334 200.347 136.32 200.228 136.386 200.131C136.453 200.035 136.528 199.99 136.58 199.953L139.175 198.452C139.175 198.452 139.197 198.43 139.212 198.422C140.9 197.256 141.837 194.997 141.844 192.054L141.881 178.717C141.889 177.015 140.692 174.935 139.197 174.073C138.535 173.687 137.896 173.612 137.442 173.872H137.435C137.323 173.939 137.175 173.902 137.108 173.791C137.041 173.679 137.078 173.531 137.19 173.464L174.412 151.849C175.021 151.492 175.817 151.559 176.65 152.042C178.286 152.986 179.564 155.2 179.564 157.095L179.527 170.425C179.52 173.768 178.36 176.265 176.27 177.454L136.669 200.458C136.669 200.458 136.587 200.488 136.55 200.488L136.58 200.503ZM138.461 173.285C138.773 173.345 139.108 173.471 139.435 173.664C141.056 174.593 142.365 176.867 142.357 178.717L142.32 192.054C142.32 194.313 141.777 196.208 140.781 197.553L176.062 177.053C177.996 175.953 179.066 173.597 179.074 170.432L179.111 157.102C179.111 155.393 177.906 153.313 176.427 152.458C175.75 152.064 175.125 151.997 174.664 152.265L138.454 173.285H138.461Z" fill="#373B42"/>
<path d="M228.253 25.3846C228.238 21.179 225.263 19.4849 221.598 21.5951L92.577 96.0397C88.9113 98.1499 85.952 103.277 85.9669 107.482L86.2122 194.492L228.498 112.401L228.253 25.392V25.3846Z" fill="#373B42"/>
<path d="M86.2119 194.729C86.1747 194.729 86.1301 194.722 86.0929 194.7C86.0186 194.655 85.9739 194.581 85.9739 194.492L85.7286 107.482C85.7137 103.21 88.7325 97.9864 92.4577 95.839L221.486 21.387C223.337 20.317 225.1 20.1536 226.43 20.9189C227.754 21.6842 228.49 23.2669 228.498 25.3845L228.743 112.394C228.743 112.476 228.698 112.557 228.624 112.602L86.3308 194.692C86.3308 194.692 86.2565 194.722 86.2119 194.722V194.729ZM224.579 20.9189C223.709 20.9189 222.735 21.2161 221.724 21.7957L92.6956 96.2402C89.1043 98.3133 86.1896 103.351 86.2044 107.475L86.4498 194.076L228.267 112.253L228.022 25.3771C228.022 23.4378 227.367 21.9963 226.193 21.3275C225.717 21.0526 225.166 20.9189 224.579 20.9189Z" fill="#373B42"/>
<path d="M88.9473 107.467C88.9398 104.332 91.3266 100.193 94.0629 98.6179L223.091 24.1733C223.887 23.7127 224.392 23.6606 224.578 23.6606C225.218 23.6606 225.27 24.9832 225.27 25.3845L225.515 114.11L89.1852 192.783L88.9547 107.467H88.9473Z" fill="white"/>
<path d="M89.1774 193.021C89.1328 193.021 89.0956 193.013 89.0585 192.991C88.9841 192.946 88.9395 192.872 88.9395 192.783L88.709 107.468C88.7016 104.258 91.1478 100.022 93.9436 98.41L222.972 23.9728C223.819 23.4824 224.377 23.4304 224.57 23.4304C225.411 23.4304 225.5 24.805 225.5 25.392L225.745 114.118C225.745 114.199 225.701 114.281 225.626 114.326L89.2964 192.991C89.2964 192.991 89.222 193.021 89.1774 193.021ZM89.1849 107.468L89.4154 192.374L225.277 113.984L225.031 25.392C225.031 24.649 224.875 23.906 224.578 23.906C224.451 23.906 223.983 23.9431 223.217 24.3815L94.189 98.8261C91.5196 100.364 89.1849 104.406 89.1923 107.468H89.1849Z" fill="#373B42"/>
<path d="M86.2109 194.492L86.2481 207.368C86.263 211.574 89.2372 213.268 92.9029 211.158L221.931 136.713C225.597 134.603 228.549 129.476 228.541 125.271L228.504 112.394L86.2109 194.492Z" fill="#F6E5CC"/>
<path d="M89.9283 212.302C89.2517 212.302 88.6346 212.146 88.0769 211.827C86.7534 211.061 86.0173 209.479 86.0098 207.361L85.9727 194.484C85.9727 194.403 86.0173 194.321 86.0916 194.276L228.377 112.186C228.452 112.141 228.541 112.141 228.615 112.186C228.69 112.23 228.734 112.305 228.734 112.394L228.771 125.263C228.786 129.536 225.767 134.759 222.042 136.907L93.0215 211.359C91.9359 211.983 90.8801 212.302 89.9283 212.302ZM86.4485 194.625L86.4857 207.361C86.4857 209.3 87.14 210.742 88.3148 211.411C89.4971 212.087 91.0808 211.923 92.7836 210.942L221.812 136.498C225.403 134.425 228.318 129.387 228.303 125.263L228.266 112.802L86.4485 194.625Z" fill="#373B42"/>
<path d="M226.325 21.1269C225.121 20.421 223.448 20.5325 221.604 21.595L92.5756 96.0396C91.5049 96.6563 90.4936 97.548 89.6088 98.5808C88.9768 99.2941 88.4191 100.074 87.9433 100.906C87.3484 101.932 86.8651 103.009 86.5305 104.102C86.1662 105.246 85.9654 106.39 85.9729 107.475L86.248 207.368C86.2554 209.449 86.999 210.928 88.1812 211.619L80.5226 207.168C79.333 206.477 78.5968 204.998 78.5894 202.918L78.3069 103.024C78.2994 101.947 78.4853 100.817 78.8422 99.6805C79.1842 98.5882 79.6676 97.5108 80.255 96.5003C80.7457 95.6681 81.3034 94.8656 81.9354 94.1523C82.8202 93.1046 83.8389 92.2204 84.917 91.6037L213.938 17.1443C215.789 16.0743 217.455 15.9926 218.659 16.6836L226.318 21.1269H226.325Z" fill="#FFBE2E"/>
<path d="M88.1809 211.856C88.1437 211.856 88.0991 211.849 88.0619 211.827L80.4033 207.376C79.0872 206.61 78.3586 205.028 78.3511 202.925L78.0686 103.024C78.0611 101.954 78.2396 100.802 78.6114 99.6136C78.9534 98.5139 79.4367 97.4291 80.039 96.3814C80.5818 95.4674 81.1543 94.665 81.7417 93.9962C82.6637 92.9114 83.7121 92.0049 84.7828 91.3956L213.826 16.9436C215.677 15.8736 217.44 15.7102 218.785 16.4829L226.429 20.9114C226.429 20.9114 226.444 20.9188 226.451 20.9263C226.563 20.9931 226.6 21.1343 226.533 21.2532C226.466 21.3721 226.318 21.4018 226.206 21.3424C225.031 20.6588 223.44 20.8297 221.73 21.8179L92.6942 96.2402C91.683 96.8272 90.6792 97.6891 89.7869 98.7294C89.1698 99.4278 88.6196 100.201 88.1437 101.018C87.5414 102.043 87.073 103.106 86.7532 104.161C86.3815 105.335 86.1956 106.442 86.2105 107.467L86.4856 207.361C86.493 209.293 87.1399 210.727 88.2998 211.403C88.4114 211.47 88.4485 211.611 88.3816 211.73C88.337 211.804 88.2552 211.849 88.1734 211.849L88.1809 211.856ZM216.912 16.4755C216.042 16.4755 215.068 16.7727 214.064 17.3523L85.0282 91.7969C84.0095 92.3839 82.9983 93.2458 82.1061 94.2935C81.5261 94.9473 80.9759 95.7275 80.4479 96.6117C79.8605 97.6297 79.3921 98.6848 79.0575 99.7473C78.7006 100.892 78.5221 101.991 78.537 103.017L78.8121 202.91C78.8196 204.842 79.4665 206.276 80.6264 206.952L86.7607 210.519C86.2699 209.694 86.0023 208.624 85.9948 207.361L85.7197 107.467C85.7048 106.397 85.8982 105.238 86.2848 104.02C86.6194 102.928 87.0953 101.835 87.7199 100.78C88.2106 99.9257 88.7831 99.1306 89.4152 98.4173C90.3446 97.3325 91.393 96.4408 92.4414 95.8241L221.484 21.3944C222.607 20.7479 223.715 20.4136 224.667 20.4433L218.547 16.8916C218.064 16.6092 217.514 16.4755 216.912 16.4755Z" fill="#373B42"/>
<path d="M89.601 98.5808C88.9689 99.2941 88.4113 100.074 87.9354 100.907C87.3406 101.932 86.8573 103.009 86.5227 104.102L78.8418 99.6805C79.1838 98.5883 79.6671 97.5109 80.2545 96.5003C80.7453 95.6681 81.3029 94.8657 81.935 94.1523L89.6084 98.5808H89.601Z" fill="#FFBE2E"/>
<path d="M88.1809 211.856C88.1437 211.856 88.0991 211.849 88.0619 211.827L80.3959 207.376C79.0873 206.61 78.3586 205.028 78.3437 202.925L78.0686 103.024C78.0537 100.944 78.7601 98.5882 80.0464 96.3814C81.3179 94.1969 82.9983 92.4284 84.7903 91.3956L213.818 16.9436C215.67 15.8736 217.432 15.7102 218.778 16.4829L226.444 20.9263C226.555 20.9931 226.593 21.1343 226.526 21.2532C226.459 21.3647 226.31 21.4018 226.199 21.3424H226.184C225.009 20.6588 223.418 20.8297 221.715 21.8105L92.6942 96.2402C90.9692 97.2359 89.3557 98.9374 88.1437 101.025C86.8871 103.188 86.203 105.476 86.2105 107.475L86.4856 207.368C86.493 209.293 87.1399 210.734 88.2998 211.41C88.4114 211.477 88.4485 211.626 88.3816 211.737C88.337 211.812 88.2552 211.856 88.1734 211.856H88.1809ZM216.904 16.4755C216.034 16.4755 215.06 16.7727 214.056 17.3523L85.0282 91.7969C83.3106 92.7851 81.6822 94.5015 80.4554 96.6117C79.2137 98.7442 78.537 101.018 78.5445 103.017L78.8196 202.91C78.827 204.842 79.4739 206.276 80.6338 206.952L86.7681 210.519C86.2774 209.694 86.0097 208.624 86.0023 207.361L85.7272 107.467C85.7123 105.387 86.4261 103.017 87.7273 100.78C88.9839 98.6253 90.6569 96.8643 92.4488 95.8241L221.484 21.3944C222.607 20.7479 223.685 20.4284 224.667 20.4433L218.54 16.8916C218.057 16.6092 217.506 16.4755 216.904 16.4755Z" fill="#373B42"/>
<path d="M150.006 168.01C150.006 169.243 149.143 170.744 148.065 171.361C146.995 171.978 146.125 171.487 146.117 170.254C146.11 169.02 146.98 167.52 148.05 166.903C149.121 166.286 149.999 166.777 149.999 168.01H150.006Z" fill="#373B42"/>
<path d="M159.197 162.712C159.197 163.946 158.335 165.446 157.257 166.063C156.186 166.68 155.316 166.19 155.309 164.956C155.301 163.723 156.171 162.222 157.242 161.605C158.313 160.988 159.19 161.479 159.19 162.712H159.197Z" fill="#373B42"/>
<path d="M168.381 157.414C168.381 158.648 167.518 160.149 166.44 160.765C165.37 161.382 164.5 160.892 164.492 159.658C164.485 158.425 165.355 156.924 166.425 156.307C167.496 155.69 168.374 156.181 168.374 157.414H168.381Z" fill="#373B42"/>
<path d="M89.0853 89.3523C89.0035 89.3523 88.9217 89.3077 88.8771 89.2334C88.8102 89.1219 88.8473 88.9733 88.9589 88.9064L154.8 50.6699C154.875 50.6253 154.964 50.6253 155.038 50.6699C155.112 50.7145 155.157 50.7888 155.157 50.878L155.075 80.473C155.075 80.6068 154.971 80.7108 154.837 80.7108C154.704 80.7108 154.599 80.6068 154.599 80.473L154.681 51.2941L89.2042 89.3151C89.1671 89.3374 89.1224 89.3448 89.0853 89.3448V89.3523Z" fill="#373B42"/>
<path d="M90.4615 86.0905L156.303 47.854C155.455 48.3444 154.927 49.3921 154.927 50.8782L89.0859 89.1147C89.0859 87.6286 89.6139 86.5884 90.4615 86.0905Z" fill="white"/>
<path d="M89.0856 89.3526C89.0484 89.3526 89.0038 89.3452 88.9666 89.3229C88.8923 89.2783 88.8477 89.204 88.8477 89.1148C88.8477 87.5916 89.383 86.4473 90.3422 85.8901L156.176 47.661C156.288 47.5941 156.436 47.6312 156.503 47.7501C156.57 47.8616 156.533 48.0102 156.421 48.0771C155.611 48.5452 155.165 49.5483 155.165 50.8932C155.165 50.9749 155.12 51.0566 155.046 51.1012L89.2046 89.3154C89.2046 89.3154 89.1228 89.3452 89.0856 89.3452V89.3526ZM155.113 48.8201L90.5801 86.2987C89.8589 86.7148 89.4276 87.5619 89.3384 88.6913L154.689 50.7445C154.704 50.0015 154.853 49.3551 155.113 48.8275V48.8201Z" fill="#373B42"/>
<path d="M170.794 60.0248L170.496 161.248L104.662 199.477L104.945 98.2539C104.975 91.1877 99.993 82.5833 93.8438 79.0316C90.7432 77.2484 87.94 77.0775 85.9102 78.2514L151.759 40.0223C153.781 38.8484 156.585 39.0044 159.685 40.7951C165.834 44.3468 170.816 52.9586 170.794 60.0248Z" fill="#FFF7E4"/>
<path d="M104.664 199.723C104.627 199.723 104.582 199.715 104.545 199.693C104.47 199.648 104.426 199.574 104.426 199.485L104.708 98.2612C104.738 91.2915 99.8084 82.7615 93.7261 79.247C90.804 77.5603 88.0677 77.2854 86.0304 78.4668C85.9189 78.5337 85.7702 78.4965 85.7032 78.3776C85.6363 78.2662 85.6735 78.1176 85.785 78.0507L151.626 39.8216C153.82 38.5436 156.72 38.8185 159.791 40.5869C165.999 44.1758 171.04 52.8915 171.018 60.0247L170.721 161.248C170.721 161.33 170.676 161.412 170.602 161.456L104.768 199.685C104.768 199.685 104.686 199.715 104.649 199.715L104.664 199.723ZM88.841 77.2705C90.4174 77.2705 92.1647 77.798 93.9641 78.8383C100.18 82.4272 105.214 91.1429 105.184 98.2686L104.902 199.076L170.26 161.122L170.557 60.0321C170.572 53.055 165.642 44.5176 159.567 41.0104C156.645 39.3312 153.916 39.0563 151.879 40.2377L88.0083 77.3225C88.2834 77.2854 88.5585 77.2705 88.841 77.2705Z" fill="#373B42"/>
<path d="M82.6699 85.3992C82.6922 78.333 87.6963 75.4797 93.8455 79.0314C100.002 82.5831 104.969 91.1875 104.954 98.2537L104.664 199.477L98.2324 195.77L98.5224 94.5534C98.5298 91.5664 96.4256 87.9181 93.8232 86.4172C91.2207 84.9163 89.1016 86.1274 89.0942 89.1144" fill="#F9DD9A"/>
<path d="M104.663 199.715C104.618 199.715 104.581 199.708 104.544 199.685L98.1123 195.978C98.038 195.933 97.9934 195.859 97.9934 195.769L98.2834 94.5534C98.2908 91.6407 96.2386 88.0815 93.7031 86.6178C92.5134 85.9342 91.413 85.8153 90.5951 86.2834C89.7846 86.7515 89.331 87.7546 89.331 89.1069C89.331 89.2407 89.2269 89.3447 89.0931 89.3447C88.9593 89.3447 88.8552 89.2407 88.8552 89.1069C88.8552 87.5763 89.3905 86.432 90.3571 85.8747C91.3312 85.3175 92.6026 85.4363 93.941 86.2091C96.6104 87.7472 98.7741 91.4921 98.7592 94.5534L98.4693 195.628L104.425 199.061L104.708 98.2462C104.73 91.2692 99.8002 82.7391 93.718 79.232C90.8107 77.5527 88.0819 77.2704 86.0445 78.4444C84.0221 79.611 82.9068 82.0778 82.8919 85.3918C82.8919 85.5255 82.7878 85.6295 82.654 85.6295C82.5201 85.6295 82.416 85.5255 82.416 85.3918C82.4235 81.8995 83.628 79.284 85.8066 78.0357C88.0001 76.78 90.8925 77.0549 93.9559 78.8233C100.165 82.4048 105.198 91.1205 105.184 98.2537L104.894 199.477C104.894 199.559 104.849 199.641 104.775 199.685C104.737 199.708 104.7 199.715 104.656 199.715H104.663Z" fill="#373B42"/>
<path d="M103.841 81.4911C103.759 81.4911 103.678 81.4465 103.633 81.3722C103.566 81.2607 103.603 81.1121 103.715 81.0453L160.306 48.1883C160.418 48.1214 160.567 48.1586 160.633 48.2775C160.7 48.3889 160.663 48.5375 160.552 48.6044L103.96 81.4614C103.923 81.4837 103.878 81.4911 103.841 81.4911Z" fill="#373B42"/>
<path d="M387.378 224.125C389.659 225.435 389.669 227.575 387.408 228.885C385.146 230.205 381.453 230.195 379.172 228.885C376.89 227.565 376.88 225.435 379.142 224.125C381.403 222.805 385.096 222.805 387.368 224.125H387.378Z" fill="white"/>
<path d="M393.511 189.775C393.401 189.775 393.301 189.715 393.241 189.615C393.151 189.465 393.201 189.275 393.351 189.185L422.701 171.965C422.921 171.835 423.052 171.605 423.052 171.355C423.052 171.105 422.921 170.875 422.701 170.745L375.258 143.185C375.108 143.095 375.058 142.905 375.148 142.755C375.238 142.605 375.429 142.555 375.579 142.645L423.022 170.205C423.442 170.445 423.682 170.875 423.692 171.355C423.692 171.835 423.452 172.265 423.032 172.515L393.681 189.735C393.631 189.765 393.571 189.775 393.521 189.775H393.511Z" fill="#DBDEE4"/>
<path d="M397.023 191.615C399.295 190.305 399.305 188.185 397.053 186.875C394.802 185.565 391.139 185.565 388.867 186.875C386.596 188.185 386.586 190.305 388.837 191.615C391.089 192.925 394.752 192.925 397.023 191.615Z" fill="white"/>
<path d="M392.92 192.905C391.379 192.905 389.838 192.565 388.677 191.885C387.486 191.195 386.836 190.255 386.836 189.245C386.836 188.225 387.496 187.285 388.697 186.595C391.049 185.235 394.861 185.235 397.203 186.595C398.394 187.285 399.044 188.225 399.044 189.235C399.044 190.255 398.384 191.195 397.173 191.885C396.002 192.565 394.461 192.905 392.92 192.905ZM392.96 186.195C391.539 186.195 390.108 186.505 389.017 187.135C388.017 187.715 387.466 188.465 387.466 189.245C387.466 190.025 388.007 190.765 388.987 191.335C391.149 192.595 394.681 192.595 396.853 191.335C397.854 190.755 398.404 190.005 398.404 189.225C398.404 188.445 397.864 187.705 396.883 187.135C395.802 186.505 394.381 186.195 392.95 186.195H392.96Z" fill="#DBDEE4"/>
<path d="M392.95 187.745C392.07 187.745 391.209 187.945 390.599 188.295C390.108 188.575 389.828 188.925 389.828 189.245C389.828 189.565 390.098 189.905 390.579 190.185C391.179 190.535 392.03 190.735 392.92 190.735C393.811 190.735 394.661 190.535 395.262 190.185C395.752 189.905 396.032 189.555 396.032 189.235C396.032 188.915 395.762 188.575 395.282 188.295C394.682 187.945 393.831 187.745 392.94 187.745H392.95Z" fill="#FFBE2E"/>
<path d="M407.26 179.595C406.31 179.595 405.389 179.815 404.739 180.185C404.218 180.485 403.918 180.855 403.918 181.205C403.918 181.545 404.208 181.915 404.729 182.215C405.379 182.595 406.29 182.805 407.24 182.805C408.191 182.805 409.112 182.585 409.762 182.215C410.282 181.915 410.583 181.535 410.593 181.195C410.593 180.855 410.302 180.485 409.782 180.185C409.132 179.805 408.221 179.595 407.27 179.595H407.26Z" fill="#373B42"/>
<path d="M250.654 202.986C250.506 202.986 250.372 202.914 250.291 202.77C250.17 202.554 250.237 202.28 250.439 202.15L350.661 137.065C350.863 136.935 351.119 137.007 351.24 137.223C351.361 137.439 351.294 137.713 351.092 137.842L250.87 202.928C250.803 202.971 250.722 203 250.654 203V202.986Z" fill="#DBDEE4"/>
<path d="M315.936 169.68C315.936 169.32 315.646 168.94 315.126 168.62C314.475 168.22 313.564 168 312.614 168C311.663 168 310.742 168.23 310.092 168.62C309.572 168.94 309.271 169.33 309.271 169.69C309.271 170.05 309.562 170.43 310.082 170.75C310.732 171.15 311.643 171.37 312.594 171.37C313.544 171.37 314.465 171.14 315.116 170.75C315.636 170.43 315.936 170.04 315.946 169.68" fill="#373B42"/>
<path d="M129.743 82.1746C129.661 82.1746 129.58 82.1301 129.535 82.0558C129.468 81.9443 129.505 81.7957 129.624 81.7288L163.56 62.1053C163.671 62.0384 163.82 62.0756 163.887 62.1945C163.954 62.3059 163.917 62.4545 163.798 62.5214L129.862 82.1449C129.862 82.1449 129.788 82.1746 129.743 82.1746Z" fill="#373B42"/>
<path d="M129.743 93.7736C129.661 93.7736 129.58 93.729 129.535 93.6547C129.468 93.5432 129.505 93.3946 129.624 93.3278L154.533 78.9129C154.645 78.846 154.793 78.8832 154.86 79.0021C154.927 79.1135 154.89 79.2621 154.771 79.329L129.862 93.7439C129.862 93.7439 129.788 93.7736 129.743 93.7736Z" fill="#373B42"/>
<path d="M122.211 82.9773C123.267 82.368 124.129 82.851 124.129 84.0621L124.159 95.2002C124.159 96.4113 123.311 97.8825 122.255 98.4918L112.559 104.087C111.504 104.696 110.641 104.206 110.641 103.002L110.611 91.864C110.611 90.6528 111.459 89.1816 112.515 88.5723L122.211 82.9773Z" fill="#FFBE2E"/>
<path d="M111.699 104.592C111.475 104.592 111.267 104.54 111.081 104.429C110.643 104.176 110.405 103.671 110.405 103.002L110.375 91.8639C110.375 90.5561 111.26 89.018 112.397 88.3642L122.093 82.7691C122.681 82.4273 123.253 82.3827 123.692 82.628C124.123 82.8806 124.369 83.3858 124.369 84.0546L124.398 95.1927C124.398 96.5004 123.514 98.0385 122.376 98.6923L112.68 104.287C112.338 104.481 112.003 104.585 111.699 104.585V104.592ZM122.331 83.1778L112.635 88.7728C111.646 89.345 110.843 90.727 110.851 91.8639L110.881 103.002C110.881 103.492 111.037 103.856 111.319 104.02C111.609 104.183 112.003 104.139 112.442 103.886L122.138 98.2911C123.127 97.719 123.93 96.3369 123.922 95.2001L123.893 84.062C123.893 83.5642 123.737 83.2075 123.454 83.0441C123.164 82.8806 122.77 82.9252 122.331 83.1778Z" fill="#373B42"/>
<path d="M119.638 89.1517C119.78 89.07 119.928 89.0477 120.04 89.1145C120.263 89.2409 120.263 89.6495 120.04 90.0359L115.727 97.5034C115.616 97.6966 115.474 97.8452 115.326 97.9269C115.184 98.0087 115.036 98.031 114.932 97.9641L113.482 97.1467C113.259 97.0204 113.259 96.6118 113.482 96.2254C113.593 96.0322 113.735 95.891 113.883 95.8093C114.025 95.7276 114.173 95.7053 114.285 95.7721L115.333 96.3666L119.252 89.5827C119.363 89.3895 119.505 89.2483 119.653 89.1666L119.638 89.1517Z" fill="black"/>
<path d="M129.743 108.047C129.661 108.047 129.58 108.002 129.535 107.928C129.468 107.817 129.505 107.668 129.624 107.601L163.56 87.9776C163.671 87.9107 163.82 87.9479 163.887 88.0668C163.954 88.1782 163.917 88.3268 163.798 88.3937L129.862 108.017C129.862 108.017 129.788 108.047 129.743 108.047Z" fill="#373B42"/>
<path d="M129.743 119.638C129.661 119.638 129.58 119.594 129.535 119.519C129.468 119.408 129.505 119.259 129.624 119.193L154.533 104.778C154.645 104.711 154.793 104.748 154.86 104.867C154.927 104.978 154.89 105.127 154.771 105.194L129.862 119.609C129.862 119.609 129.788 119.638 129.743 119.638Z" fill="#373B42"/>
<path d="M122.211 108.849C123.267 108.24 124.129 108.723 124.129 109.934L124.159 121.072C124.159 122.283 123.311 123.755 122.255 124.364L112.559 129.959C111.504 130.568 110.641 130.078 110.641 128.874L110.611 117.736C110.611 116.525 111.459 115.054 112.515 114.444L122.211 108.849Z" fill="#FFBE2E"/>
<path d="M111.699 130.464C111.475 130.464 111.267 130.412 111.081 130.308C110.643 130.056 110.405 129.55 110.405 128.882L110.375 117.743C110.375 116.436 111.26 114.898 112.397 114.244L122.093 108.649C122.681 108.307 123.253 108.255 123.692 108.515C124.123 108.768 124.369 109.273 124.369 109.942L124.398 121.08C124.398 122.387 123.514 123.926 122.376 124.579L112.68 130.174C112.338 130.375 112.003 130.472 111.699 130.472V130.464ZM122.331 109.05L112.635 114.645C111.646 115.217 110.843 116.599 110.851 117.736L110.881 128.874C110.881 129.365 111.037 129.729 111.319 129.892C111.609 130.056 112.003 130.011 112.442 129.758L122.138 124.163C123.127 123.591 123.93 122.209 123.922 121.072L123.893 109.934C123.893 109.436 123.737 109.08 123.454 108.916C123.164 108.753 122.77 108.797 122.331 109.05Z" fill="#373B42"/>
<path d="M119.638 115.024C119.78 114.942 119.928 114.92 120.04 114.987C120.263 115.113 120.263 115.522 120.04 115.908L115.727 123.376C115.616 123.569 115.474 123.718 115.326 123.799C115.184 123.881 115.036 123.903 114.932 123.836L113.482 123.019C113.259 122.893 113.259 122.484 113.482 122.098C113.593 121.905 113.735 121.763 113.883 121.682C114.025 121.6 114.173 121.578 114.285 121.644L115.333 122.239L119.252 115.455C119.363 115.262 119.505 115.121 119.653 115.039L119.638 115.024Z" fill="black"/>
<path d="M129.743 133.912C129.661 133.912 129.58 133.867 129.535 133.793C129.468 133.682 129.505 133.533 129.624 133.466L163.56 113.843C163.671 113.776 163.82 113.813 163.887 113.932C163.954 114.043 163.917 114.192 163.798 114.259L129.862 133.882C129.862 133.882 129.788 133.912 129.743 133.912Z" fill="#373B42"/>
<path d="M129.743 145.511C129.661 145.511 129.58 145.466 129.535 145.392C129.468 145.281 129.505 145.132 129.624 145.065L154.533 130.65C154.645 130.583 154.793 130.62 154.86 130.739C154.927 130.851 154.89 130.999 154.771 131.066L129.862 145.481C129.862 145.481 129.788 145.511 129.743 145.511Z" fill="#373B42"/>
<path d="M122.211 134.722C123.267 134.113 124.129 134.596 124.129 135.807L124.159 146.945C124.159 148.156 123.311 149.627 122.255 150.236L112.559 155.832C111.504 156.441 110.641 155.95 110.641 154.747L110.611 143.609C110.611 142.397 111.459 140.926 112.515 140.317L122.211 134.722Z" fill="#FFBE2E"/>
<path d="M111.699 156.337C111.475 156.337 111.267 156.285 111.081 156.181C110.643 155.928 110.405 155.423 110.405 154.754L110.375 143.616C110.375 142.308 111.26 140.77 112.397 140.116L122.093 134.521C122.681 134.18 123.253 134.128 123.692 134.388C124.123 134.64 124.369 135.145 124.369 135.814L124.398 146.952C124.398 148.238 123.491 149.806 122.376 150.452L112.68 156.047C112.338 156.248 112.003 156.344 111.699 156.344V156.337ZM122.331 134.923L112.635 140.518C111.646 141.09 110.843 142.472 110.851 143.609L110.881 154.747C110.881 155.237 111.037 155.601 111.319 155.765C111.609 155.928 112.003 155.884 112.442 155.631L122.138 150.036C123.127 149.464 123.93 148.082 123.922 146.945L123.893 135.807C123.893 135.309 123.737 134.952 123.454 134.789C123.164 134.625 122.77 134.67 122.331 134.923Z" fill="#373B42"/>
<path d="M119.638 140.889C119.78 140.808 119.928 140.785 120.04 140.852C120.263 140.978 120.263 141.387 120.04 141.773L115.727 149.241C115.616 149.434 115.474 149.583 115.326 149.664C115.184 149.746 115.036 149.769 114.932 149.702L113.482 148.884C113.259 148.758 113.259 148.349 113.482 147.963C113.593 147.777 113.735 147.629 113.883 147.547C114.032 147.465 114.173 147.443 114.285 147.51L115.333 148.104L119.252 141.32C119.363 141.134 119.505 140.986 119.653 140.904L119.638 140.889Z" fill="black"/>
<path d="M129.743 159.784C129.661 159.784 129.58 159.74 129.535 159.666C129.468 159.554 129.505 159.406 129.624 159.339L163.56 139.715C163.671 139.648 163.82 139.685 163.887 139.804C163.954 139.916 163.917 140.064 163.798 140.131L129.862 159.755C129.862 159.755 129.788 159.784 129.743 159.784Z" fill="#373B42"/>
<path d="M129.743 171.383C129.661 171.383 129.58 171.339 129.535 171.265C129.468 171.153 129.505 171.005 129.624 170.938L154.533 156.523C154.645 156.456 154.793 156.493 154.86 156.612C154.927 156.723 154.89 156.872 154.771 156.939L129.862 171.354C129.862 171.354 129.788 171.383 129.743 171.383Z" fill="#373B42"/>
<path d="M122.211 160.587C123.267 159.978 124.129 160.461 124.129 161.672L124.159 172.81C124.159 174.021 123.311 175.492 122.255 176.102L112.559 181.697C111.504 182.306 110.641 181.816 110.641 180.612L110.611 169.474C110.611 168.263 111.459 166.791 112.515 166.182L122.211 160.587Z" fill="#FFBE2E"/>
<path d="M111.699 182.209C111.475 182.209 111.267 182.157 111.081 182.053C110.643 181.801 110.405 181.295 110.405 180.627L110.375 169.489C110.375 168.181 111.26 166.643 112.397 165.989L122.093 160.394C122.681 160.052 123.253 160.008 123.692 160.253C124.131 160.505 124.369 161.011 124.369 161.679L124.398 172.817C124.398 174.103 123.491 175.671 122.376 176.317L112.68 181.912C112.338 182.113 112.003 182.209 111.699 182.209ZM122.331 160.795L112.635 166.39C111.646 166.962 110.843 168.344 110.851 169.481L110.881 180.619C110.881 181.11 111.037 181.474 111.319 181.637C111.609 181.801 112.003 181.756 112.442 181.503L122.138 175.908C123.127 175.336 123.93 173.954 123.922 172.817L123.893 161.679C123.893 161.181 123.737 160.825 123.454 160.661C123.164 160.498 122.77 160.542 122.331 160.795Z" fill="#373B42"/>
<path d="M119.638 166.762C119.78 166.68 119.928 166.658 120.04 166.724C120.263 166.851 120.263 167.259 120.04 167.646L115.727 175.113C115.616 175.306 115.474 175.455 115.326 175.537C115.184 175.619 115.036 175.641 114.932 175.574L113.482 174.757C113.259 174.63 113.259 174.222 113.482 173.835C113.593 173.642 113.735 173.501 113.883 173.419C114.025 173.337 114.173 173.315 114.285 173.382L115.333 173.976L119.252 167.193C119.363 166.999 119.505 166.858 119.653 166.776L119.638 166.762Z" fill="black"/>
<path d="M264.474 216.946C264.392 216.946 264.31 216.901 264.266 216.827C264.199 216.716 264.236 216.567 264.348 216.5L266.816 215.066C266.928 214.999 267.076 215.036 267.143 215.155C267.21 215.267 267.173 215.415 267.061 215.482L264.593 216.916C264.556 216.938 264.511 216.946 264.474 216.946ZM269.404 214.078C269.322 214.078 269.24 214.033 269.195 213.959C269.129 213.847 269.166 213.699 269.277 213.632L271.738 212.198C271.85 212.131 271.999 212.168 272.066 212.287C272.133 212.399 272.095 212.547 271.984 212.614L269.515 214.048C269.478 214.07 269.433 214.078 269.396 214.078H269.404ZM274.333 211.217C274.252 211.217 274.17 211.173 274.125 211.098C274.058 210.987 274.095 210.838 274.207 210.771L276.668 209.337C276.78 209.27 276.928 209.308 276.995 209.426C277.062 209.538 277.025 209.686 276.914 209.753L274.452 211.187C274.415 211.21 274.371 211.217 274.333 211.217ZM279.263 208.356C279.181 208.356 279.1 208.312 279.055 208.238C278.988 208.126 279.025 207.978 279.137 207.911L281.598 206.477C281.709 206.41 281.858 206.447 281.925 206.566C281.992 206.677 281.955 206.826 281.843 206.893L279.382 208.327C279.345 208.349 279.3 208.356 279.263 208.356ZM284.193 205.488C284.111 205.488 284.029 205.444 283.985 205.369C283.918 205.258 283.955 205.109 284.066 205.043L285.777 204.047V203.452C285.777 203.319 285.881 203.215 286.015 203.215C286.148 203.215 286.253 203.319 286.253 203.452V204.188C286.253 204.27 286.208 204.352 286.134 204.396L284.304 205.459C284.267 205.481 284.223 205.488 284.185 205.488H284.193ZM286.022 200.844C285.888 200.844 285.784 200.74 285.784 200.607V197.761C285.784 197.627 285.888 197.523 286.022 197.523C286.156 197.523 286.26 197.627 286.26 197.761V200.607C286.26 200.74 286.156 200.844 286.022 200.844ZM286.022 195.145C285.888 195.145 285.784 195.041 285.784 194.908V192.062C285.784 191.928 285.888 191.824 286.022 191.824C286.156 191.824 286.26 191.928 286.26 192.062V194.908C286.26 195.041 286.156 195.145 286.022 195.145ZM286.022 189.454C285.888 189.454 285.784 189.35 285.784 189.216V186.37C285.784 186.236 285.888 186.132 286.022 186.132C286.156 186.132 286.26 186.236 286.26 186.37V189.216C286.26 189.35 286.156 189.454 286.022 189.454ZM286.022 183.755C285.888 183.755 285.784 183.651 285.784 183.517V180.671C285.784 180.537 285.888 180.433 286.022 180.433C286.156 180.433 286.26 180.537 286.26 180.671V183.517C286.26 183.651 286.156 183.755 286.022 183.755ZM286.022 178.056C285.888 178.056 285.784 177.951 285.784 177.818V174.972C285.784 174.838 285.888 174.734 286.022 174.734C286.156 174.734 286.26 174.838 286.26 174.972V177.818C286.26 177.951 286.156 178.056 286.022 178.056ZM286.022 172.356C285.888 172.356 285.784 172.252 285.784 172.119V169.273C285.784 169.139 285.888 169.035 286.022 169.035C286.156 169.035 286.26 169.139 286.26 169.273V172.119C286.26 172.252 286.156 172.356 286.022 172.356ZM286.022 166.657C285.888 166.657 285.784 166.553 285.784 166.42V163.574C285.784 163.44 285.888 163.336 286.022 163.336C286.156 163.336 286.26 163.44 286.26 163.574V166.42C286.26 166.553 286.156 166.657 286.022 166.657ZM286.022 160.958C285.888 160.958 285.784 160.854 285.784 160.721V157.875C285.784 157.741 285.888 157.637 286.022 157.637C286.156 157.637 286.26 157.741 286.26 157.875V160.721C286.26 160.854 286.156 160.958 286.022 160.958ZM286.022 155.267C285.888 155.267 285.784 155.163 285.784 155.029V152.183C285.784 152.049 285.888 151.945 286.022 151.945C286.156 151.945 286.26 152.049 286.26 152.183V155.029C286.26 155.163 286.156 155.267 286.022 155.267ZM286.022 149.568C285.888 149.568 285.784 149.464 285.784 149.33V146.484C285.784 146.35 285.888 146.246 286.022 146.246C286.156 146.246 286.26 146.35 286.26 146.484V149.33C286.26 149.464 286.156 149.568 286.022 149.568ZM286.022 143.869C285.888 143.869 285.784 143.765 285.784 143.631V140.785C285.784 140.651 285.888 140.547 286.022 140.547C286.156 140.547 286.26 140.651 286.26 140.785V143.631C286.26 143.765 286.156 143.869 286.022 143.869ZM286.022 138.169C285.888 138.169 285.784 138.065 285.784 137.932V135.086C285.784 134.952 285.888 134.848 286.022 134.848C286.156 134.848 286.26 134.952 286.26 135.086V137.932C286.26 138.065 286.156 138.169 286.022 138.169ZM286.022 132.47C285.888 132.47 285.784 132.366 285.784 132.233V129.387C285.784 129.253 285.888 129.149 286.022 129.149C286.156 129.149 286.26 129.253 286.26 129.387V132.233C286.26 132.366 286.156 132.47 286.022 132.47ZM286.022 126.771C285.888 126.771 285.784 126.667 285.784 126.534V123.688C285.784 123.554 285.888 123.45 286.022 123.45C286.156 123.45 286.26 123.554 286.26 123.688V126.534C286.26 126.667 286.156 126.771 286.022 126.771Z" fill="#373B42"/>
<path d="M288.862 111.435L285.992 113.085L286.029 123.695L297.294 111.435H288.862Z" fill="white"/>
<path d="M286.022 123.933C286.022 123.933 285.962 123.933 285.932 123.918C285.843 123.881 285.784 123.792 285.784 123.695L285.754 113.092C285.754 113.01 285.799 112.929 285.873 112.884L288.736 111.235C288.736 111.235 288.81 111.205 288.854 111.205H297.294C297.39 111.205 297.472 111.257 297.509 111.346C297.547 111.435 297.532 111.532 297.465 111.599L286.193 123.859C286.148 123.911 286.081 123.933 286.014 123.933H286.022ZM286.23 113.226L286.26 123.086L296.751 111.673H288.921L286.23 113.226Z" fill="#373B42"/>
<path d="M306.752 103.663L295.294 121.013L276.816 110.35L306.752 103.663Z" fill="white"/>
<path d="M295.294 121.251C295.257 121.251 295.212 121.243 295.175 121.221L276.698 110.558C276.616 110.506 276.564 110.417 276.579 110.321C276.594 110.224 276.668 110.142 276.765 110.128L306.7 103.44C306.797 103.418 306.893 103.455 306.945 103.537C306.997 103.619 306.997 103.723 306.945 103.804L295.487 121.154C295.443 121.221 295.368 121.258 295.286 121.258L295.294 121.251ZM277.456 110.447L295.212 120.693L306.224 104.02L277.456 110.447Z" fill="#373B42"/>
<path d="M306.743 103.663L288.378 117.023L286.028 123.695L283.73 114.348L306.743 103.663Z" fill="#373B42"/>
<path d="M286.02 123.933C286.02 123.933 286.013 123.933 286.005 123.933C285.901 123.933 285.812 123.851 285.79 123.755L283.492 114.407C283.462 114.296 283.522 114.184 283.626 114.132L306.646 103.448C306.758 103.396 306.892 103.44 306.951 103.544C307.01 103.648 306.981 103.782 306.884 103.856L288.57 117.171L286.243 123.77C286.213 123.866 286.117 123.926 286.02 123.926V123.933ZM284.005 114.482L286.065 122.863L288.154 116.949C288.169 116.904 288.199 116.867 288.236 116.837L304.639 104.911L284.005 114.489V114.482Z" fill="#373B42"/>
<g opacity="0.1">
<path d="M234.903 265.83L201.682 246.541L234.844 227.408L268.066 246.697L234.903 265.83Z" fill="black"/>
</g>
<path d="M236.286 260.131L203.065 240.835L202.953 202.754L236.175 222.043L236.286 260.131Z" fill="#FFBE2E"/>
<path d="M236.286 260.369C236.249 260.369 236.205 260.362 236.168 260.339L202.953 241.05C202.879 241.006 202.834 240.931 202.834 240.842L202.723 202.754C202.723 202.672 202.767 202.591 202.842 202.546C202.916 202.502 203.005 202.502 203.08 202.546L236.301 221.835C236.376 221.88 236.42 221.954 236.42 222.043L236.524 260.131C236.524 260.213 236.48 260.295 236.405 260.339C236.368 260.362 236.331 260.369 236.286 260.369ZM203.303 240.701L236.041 259.715L235.937 222.177L203.191 203.163L203.295 240.701H203.303Z" fill="#373B42"/>
<path d="M236.175 222.043L202.953 202.754L236.115 183.621L269.337 202.91L236.175 222.043Z" fill="#FFBE2E"/>
<path d="M236.175 222.281C236.137 222.281 236.093 222.274 236.056 222.251L202.834 202.962C202.759 202.917 202.715 202.843 202.715 202.754C202.715 202.665 202.759 202.591 202.834 202.546L235.996 183.413C236.07 183.368 236.16 183.368 236.234 183.413L269.448 202.702C269.523 202.747 269.567 202.821 269.567 202.91C269.567 202.999 269.523 203.074 269.448 203.118L236.286 222.251C236.249 222.274 236.212 222.281 236.167 222.281H236.175ZM203.429 202.754L236.175 221.768L268.861 202.91L236.115 183.896L203.429 202.754Z" fill="#373B42"/>
<path d="M256.668 210.222L248.942 214.68L215.721 195.391L223.446 190.932L256.668 210.222Z" fill="black"/>
<path d="M248.942 214.918C248.905 214.918 248.86 214.91 248.823 214.888L215.601 195.599C215.527 195.554 215.482 195.48 215.482 195.391C215.482 195.301 215.527 195.227 215.601 195.183L223.327 190.724C223.401 190.68 223.49 190.68 223.565 190.724L256.787 210.014C256.861 210.058 256.906 210.132 256.906 210.222C256.906 210.311 256.861 210.385 256.787 210.43L249.061 214.888C249.024 214.91 248.987 214.918 248.942 214.918ZM216.196 195.391L248.942 214.405L256.192 210.222L223.446 191.207L216.196 195.391Z" fill="#373B42"/>
<path d="M269.45 240.998L236.28 260.131L236.176 222.043L248.943 214.68L256.668 210.222L269.338 202.91L269.45 240.998Z" fill="#FFF7E4"/>
<path d="M236.28 260.369C236.242 260.369 236.198 260.362 236.161 260.339C236.086 260.295 236.042 260.22 236.042 260.131L235.938 222.043C235.938 221.962 235.982 221.88 236.056 221.835L269.219 202.702C269.293 202.658 269.382 202.658 269.457 202.702C269.531 202.747 269.576 202.821 269.576 202.91L269.68 240.998C269.68 241.08 269.635 241.162 269.561 241.206L236.398 260.339C236.361 260.362 236.324 260.369 236.28 260.369ZM236.413 222.177L236.517 259.715L269.211 240.857L269.107 203.319L236.413 222.177Z" fill="#373B42"/>
<path d="M256.689 220.067L248.964 224.533L248.941 214.68L256.667 210.222L256.689 220.067Z" fill="black"/>
<path d="M248.962 224.763C248.925 224.763 248.88 224.755 248.843 224.733C248.768 224.688 248.724 224.614 248.724 224.525L248.709 214.672C248.709 214.591 248.754 214.509 248.828 214.464L256.553 210.006C256.628 209.962 256.717 209.962 256.791 210.006C256.866 210.051 256.91 210.125 256.91 210.214L256.925 220.052C256.925 220.134 256.881 220.215 256.806 220.26L249.081 224.726C249.081 224.726 249.006 224.755 248.962 224.755V224.763ZM249.177 214.814L249.192 224.116L256.442 219.926L256.427 210.63L249.177 214.814Z" fill="#373B42"/>
<path d="M248.168 237.491C248.086 237.535 248.005 237.617 247.945 237.729L245.774 241.696C245.603 242.016 245.737 242.291 245.99 242.142L246.919 241.607L246.941 249.84C246.941 249.981 247.045 250.041 247.164 249.966L249.224 248.777C249.35 248.703 249.447 248.532 249.447 248.399L249.425 240.166L250.354 239.631C250.614 239.482 250.741 239.051 250.57 238.932L248.384 237.476C248.324 237.439 248.25 237.446 248.168 237.491Z" fill="#373B42"/>
<path d="M241.78 241.176C241.698 241.221 241.624 241.303 241.564 241.414L239.393 245.389C239.222 245.709 239.356 245.984 239.616 245.835L240.545 245.3L240.568 253.533C240.568 253.674 240.664 253.734 240.791 253.659L242.85 252.47C242.969 252.404 243.073 252.225 243.073 252.092L243.051 243.859L243.981 243.324C244.241 243.175 244.367 242.744 244.189 242.633L242.003 241.176C241.943 241.139 241.861 241.147 241.787 241.191L241.78 241.176Z" fill="#373B42"/>
<path d="M236.347 214.68L209.527 199.098L209.438 168.344L236.265 183.918L236.347 214.68Z" fill="#FFBE2E"/>
<path d="M236.346 214.918C236.309 214.918 236.264 214.91 236.227 214.888L209.4 199.306C209.325 199.262 209.281 199.188 209.281 199.098L209.191 168.344C209.191 168.263 209.236 168.181 209.31 168.136C209.385 168.092 209.474 168.092 209.548 168.136L236.376 183.718C236.45 183.762 236.495 183.837 236.495 183.926L236.584 214.68C236.584 214.762 236.539 214.843 236.465 214.888C236.428 214.91 236.39 214.918 236.346 214.918ZM209.764 198.965L236.115 214.264L236.026 184.059L209.675 168.76L209.764 198.965Z" fill="#373B42"/>
<path d="M236.265 183.918L209.438 168.344L236.213 152.889L263.04 168.471L236.265 183.918Z" fill="#FFBE2E"/>
<path d="M236.264 184.156C236.227 184.156 236.183 184.149 236.145 184.126L209.318 168.545C209.244 168.5 209.199 168.426 209.199 168.337C209.199 168.248 209.244 168.173 209.318 168.129L236.101 152.681C236.175 152.637 236.264 152.637 236.339 152.681L263.166 168.263C263.24 168.307 263.285 168.381 263.285 168.471C263.285 168.56 263.24 168.634 263.166 168.679L236.383 184.126C236.383 184.126 236.309 184.156 236.264 184.156ZM209.913 168.344L236.264 183.651L262.571 168.478L236.22 153.172L209.913 168.352V168.344Z" fill="#373B42"/>
<path d="M252.808 174.378L246.569 177.974L219.742 162.4L225.981 158.804L252.808 174.378Z" fill="black"/>
<path d="M246.571 178.212C246.534 178.212 246.489 178.204 246.452 178.182L219.625 162.608C219.55 162.563 219.506 162.489 219.506 162.4C219.506 162.311 219.55 162.237 219.625 162.192L225.863 158.596C225.938 158.551 226.027 158.551 226.101 158.596L252.928 174.17C253.003 174.214 253.047 174.289 253.047 174.378C253.047 174.467 253.003 174.541 252.928 174.586L246.69 178.182C246.69 178.182 246.616 178.212 246.571 178.212ZM220.22 162.4L246.571 177.699L252.334 174.378L225.982 159.079L220.22 162.4Z" fill="#373B42"/>
<path d="M263.13 199.232L236.347 214.68L236.266 183.926L246.571 177.974L252.81 174.378L263.048 168.47L263.13 199.232Z" fill="#FFF7E4"/>
<path d="M236.347 214.918C236.31 214.918 236.265 214.91 236.228 214.888C236.153 214.843 236.109 214.769 236.109 214.68L236.02 183.926C236.02 183.844 236.064 183.762 236.139 183.718L262.921 168.27C262.996 168.225 263.085 168.225 263.159 168.27C263.233 168.315 263.278 168.389 263.278 168.478L263.36 199.232C263.36 199.314 263.315 199.396 263.241 199.44L236.458 214.888C236.458 214.888 236.384 214.918 236.339 214.918H236.347ZM236.495 184.059L236.577 214.271L262.884 199.098L262.802 168.887L236.495 184.059Z" fill="#373B42"/>
<path d="M252.822 182.328L246.583 185.932L246.568 177.974L252.807 174.378L252.822 182.328Z" fill="black"/>
<path d="M246.585 186.17C246.548 186.17 246.503 186.162 246.466 186.14C246.392 186.095 246.347 186.021 246.347 185.932L246.332 177.981C246.332 177.9 246.377 177.818 246.451 177.773L252.689 174.177C252.764 174.132 252.853 174.132 252.927 174.177C253.002 174.222 253.046 174.296 253.046 174.385L253.061 182.328C253.061 182.41 253.017 182.492 252.942 182.536L246.704 186.14C246.704 186.14 246.629 186.17 246.585 186.17ZM246.808 178.115L246.823 185.523L252.585 182.194L252.57 174.794L246.808 178.115Z" fill="#373B42"/>
<path d="M245.946 196.401C245.879 196.438 245.819 196.505 245.767 196.594L244.012 199.804C243.871 200.057 243.983 200.287 244.191 200.161L244.942 199.73L244.964 206.373C244.964 206.484 245.046 206.529 245.143 206.477L246.801 205.518C246.905 205.459 246.979 205.325 246.979 205.206L246.957 198.563L247.708 198.133C247.916 198.014 248.02 197.664 247.886 197.568L246.117 196.394C246.072 196.364 246.005 196.372 245.938 196.409L245.946 196.401Z" fill="#373B42"/>
<path d="M240.794 199.373C240.727 199.41 240.667 199.477 240.623 199.567L238.868 202.776C238.727 203.029 238.838 203.252 239.046 203.133L239.797 202.702L239.82 209.345C239.82 209.456 239.901 209.508 239.998 209.449L241.656 208.49C241.753 208.431 241.835 208.297 241.835 208.178L241.812 201.536L242.563 201.105C242.771 200.986 242.876 200.636 242.734 200.547L240.972 199.373C240.927 199.344 240.861 199.351 240.794 199.388V199.373Z" fill="#373B42"/>
<path d="M294.24 245.174C292.537 246.155 292.53 247.752 294.217 248.733C295.905 249.714 298.664 249.714 300.367 248.733C302.069 247.752 302.077 246.155 300.389 245.174C298.701 244.193 295.95 244.193 294.247 245.174H294.24Z" fill="white"/>
<path d="M297.288 249.707C296.128 249.707 294.975 249.454 294.098 248.941C293.206 248.421 292.715 247.723 292.715 246.965C292.715 246.199 293.213 245.494 294.113 244.973C295.882 243.955 298.745 243.955 300.492 244.973C301.385 245.494 301.875 246.192 301.875 246.95C301.875 247.715 301.377 248.421 300.478 248.941C299.593 249.454 298.44 249.707 297.28 249.707H297.288ZM294.358 245.382C293.607 245.813 293.198 246.378 293.191 246.965C293.191 247.544 293.6 248.102 294.336 248.533C295.957 249.476 298.611 249.476 300.247 248.533C300.998 248.102 301.407 247.537 301.407 246.957C301.407 246.378 300.998 245.82 300.262 245.39C298.641 244.446 295.986 244.446 294.358 245.39V245.382Z" fill="#DBDEE4"/>
<path d="M297.296 248.079C297.958 248.079 298.605 247.931 299.059 247.663C299.423 247.455 299.639 247.195 299.639 246.95C299.639 246.712 299.43 246.452 299.074 246.244C298.62 245.984 297.98 245.828 297.319 245.828C296.657 245.828 296.018 245.976 295.557 246.244C295.192 246.452 294.977 246.712 294.977 246.957C294.977 247.195 295.185 247.455 295.542 247.663C295.995 247.923 296.635 248.079 297.296 248.079Z" fill="#FFBE2E"/>
<path d="M282.306 256.602C283.02 256.602 283.711 256.438 284.202 256.156C284.596 255.926 284.819 255.651 284.819 255.391C284.819 255.138 284.596 254.856 284.209 254.633C283.726 254.35 283.034 254.187 282.328 254.187C281.614 254.187 280.93 254.35 280.439 254.633C280.045 254.863 279.822 255.138 279.822 255.398C279.822 255.651 280.045 255.933 280.432 256.156C280.915 256.438 281.607 256.602 282.313 256.602H282.306Z" fill="#373B42"/>
<path d="M177.959 78.7232L178.074 109.627C178.081 110.714 178.464 111.48 179.084 111.838L182.208 113.661C182.135 113.612 182.062 113.563 181.995 113.503L181.989 113.497C181.941 113.46 181.898 113.418 181.856 113.369L181.849 113.363C181.795 113.302 181.746 113.241 181.698 113.169L181.691 113.162C181.637 113.09 181.588 113.011 181.552 112.926C181.515 112.865 181.485 112.798 181.46 112.725C181.43 112.658 181.406 112.585 181.381 112.507C181.357 112.434 181.339 112.349 181.321 112.27C181.308 112.221 181.302 112.172 181.296 112.124C181.296 112.118 181.29 112.106 181.29 112.099C181.284 112.057 181.278 112.008 181.272 111.966C181.266 111.905 181.26 111.844 181.254 111.784C181.248 111.68 181.242 111.577 181.242 111.474L181.126 80.57C181.12 78.3832 182.652 75.7224 184.561 74.6229L214.931 57.1231C215.594 56.7404 216.214 56.6007 216.736 56.6675C216.809 56.6736 216.882 56.6919 216.949 56.71C216.955 56.71 216.961 56.71 216.961 56.71C217.028 56.7283 217.095 56.7526 217.162 56.777C217.174 56.783 217.18 56.783 217.192 56.7891C217.253 56.8135 217.308 56.8438 217.363 56.8741L214.22 55.0395C213.594 54.6751 212.724 54.7237 211.764 55.2765L181.394 72.7762C179.491 73.8756 177.953 76.5364 177.959 78.7232Z" fill="#F0F2F5"/>
<path d="M182.209 113.827C182.18 113.827 182.151 113.819 182.125 113.804L179.001 111.981C178.303 111.579 177.915 110.743 177.908 109.628L177.793 78.7239C177.793 78.7239 177.793 78.7239 177.793 78.7236C177.787 76.4892 179.365 73.7566 181.311 72.6326L211.681 55.1323C212.664 54.5669 213.595 54.4836 214.304 54.896L217.447 56.7307C217.525 56.7764 217.552 56.8769 217.507 56.9561C217.462 57.0349 217.364 57.064 217.282 57.019C217.233 56.9921 217.185 56.9648 217.131 56.9434C217.126 56.9411 217.091 56.9262 217.085 56.9236C217.047 56.9109 216.991 56.8908 216.934 56.8743C216.923 56.8733 216.913 56.872 216.906 56.8701C216.849 56.8545 216.786 56.838 216.723 56.8328C216.214 56.7689 215.62 56.9174 215.014 57.2666L184.644 74.7669C182.79 75.8345 181.287 78.4377 181.292 80.5697L181.408 111.473C181.408 111.565 181.413 111.655 181.418 111.745L181.455 112.077C181.461 112.095 181.463 112.105 181.463 112.124C181.467 112.145 181.471 112.187 181.482 112.228C181.505 112.327 181.519 112.395 181.54 112.453C181.562 112.53 181.584 112.596 181.612 112.656C181.639 112.734 181.664 112.79 181.695 112.84C181.733 112.927 181.773 112.995 181.824 113.062C181.88 113.142 181.924 113.197 181.973 113.252C182.02 113.305 182.054 113.337 182.089 113.364C182.168 113.435 182.234 113.478 182.301 113.522C182.375 113.572 182.397 113.672 182.349 113.748C182.318 113.799 182.264 113.827 182.209 113.827ZM178.125 78.7226L178.241 109.626C178.246 110.618 178.575 111.353 179.167 111.695L181.402 112.998C181.401 112.996 181.4 112.993 181.399 112.991C181.366 112.939 181.331 112.86 181.303 112.777C181.277 112.721 181.25 112.641 181.223 112.555C181.202 112.491 181.183 112.412 181.166 112.336C181.146 112.255 181.139 112.199 181.132 112.144C181.126 112.126 181.124 112.118 181.124 112.099L181.089 111.8C181.081 111.667 181.076 111.571 181.076 111.474L180.96 80.5707C180.954 78.3326 182.533 75.6002 184.478 74.479L214.848 56.979C215.373 56.6765 215.893 56.5099 216.372 56.4878L214.136 55.1825C213.535 54.8323 212.722 54.917 211.847 55.4202L181.477 72.9201C179.623 73.991 178.12 76.5942 178.125 78.7226Z" fill="#373B42"/>
<path d="M182.209 113.827C182.18 113.827 182.151 113.819 182.125 113.804L179.001 111.981C178.303 111.579 177.915 110.743 177.908 109.628L177.793 78.7239C177.793 78.7239 177.793 78.7239 177.793 78.7236C177.787 76.4892 179.365 73.7566 181.311 72.6326L211.681 55.1323C212.664 54.5669 213.595 54.4836 214.304 54.896L217.447 56.7307C217.525 56.7764 217.552 56.8769 217.507 56.9561C217.462 57.0349 217.364 57.064 217.282 57.019C217.233 56.9921 217.185 56.9648 217.131 56.9434C217.126 56.9411 217.091 56.9262 217.085 56.9236C217.047 56.9109 216.991 56.8908 216.934 56.8743C216.923 56.8733 216.913 56.872 216.906 56.8701C216.849 56.8545 216.786 56.838 216.723 56.8328C216.214 56.7689 215.62 56.9174 215.014 57.2666L184.644 74.7669C182.79 75.8345 181.287 78.4377 181.292 80.5697L181.408 111.473C181.408 111.565 181.413 111.655 181.418 111.745L181.455 112.077C181.461 112.095 181.463 112.105 181.463 112.124C181.467 112.145 181.471 112.187 181.482 112.228C181.505 112.327 181.519 112.395 181.54 112.453C181.562 112.53 181.584 112.596 181.612 112.656C181.639 112.734 181.664 112.79 181.695 112.84C181.733 112.927 181.773 112.995 181.824 113.062C181.88 113.142 181.924 113.197 181.973 113.252C182.02 113.305 182.054 113.337 182.089 113.364C182.168 113.435 182.234 113.478 182.301 113.522C182.375 113.572 182.397 113.672 182.349 113.748C182.318 113.799 182.264 113.827 182.209 113.827ZM178.125 78.7226L178.241 109.626C178.246 110.618 178.575 111.353 179.167 111.695L181.402 112.998C181.401 112.996 181.4 112.993 181.399 112.991C181.366 112.939 181.331 112.86 181.303 112.777C181.277 112.721 181.25 112.641 181.223 112.555C181.202 112.491 181.183 112.412 181.166 112.336C181.146 112.255 181.139 112.199 181.132 112.144C181.126 112.126 181.124 112.118 181.124 112.099L181.089 111.8C181.081 111.667 181.076 111.571 181.076 111.474L180.96 80.5707C180.954 78.3326 182.533 75.6002 184.478 74.479L214.848 56.979C215.373 56.6765 215.893 56.5099 216.372 56.4878L214.136 55.1825C213.535 54.8323 212.722 54.917 211.847 55.4202L181.477 72.9201C179.623 73.991 178.12 76.5942 178.125 78.7226Z" fill="#373B42"/>
<path d="M181.127 80.57L181.242 111.474C181.242 111.577 181.249 111.68 181.255 111.784C181.261 111.844 181.267 111.905 181.273 111.966C181.279 112.008 181.285 112.057 181.291 112.099C181.291 112.106 181.297 112.118 181.297 112.124C181.303 112.172 181.309 112.221 181.322 112.27C181.34 112.349 181.358 112.434 181.382 112.507C181.407 112.585 181.431 112.658 181.461 112.725C181.486 112.798 181.516 112.865 181.553 112.926C181.595 113.011 181.644 113.09 181.692 113.162L181.698 113.169C181.747 113.241 181.796 113.302 181.85 113.363L181.856 113.369C181.899 113.418 181.942 113.46 181.99 113.497L181.996 113.503C182.063 113.564 182.136 113.612 182.209 113.661L182.215 113.667C182.841 114.049 183.723 114.007 184.695 113.442L215.066 95.9483C216.974 94.8488 218.512 92.182 218.506 89.995L218.391 59.0974C218.385 57.9979 217.996 57.2324 217.364 56.874C217.309 56.8437 217.254 56.8134 217.193 56.789C217.181 56.7829 217.175 56.7829 217.163 56.7769C217.096 56.7525 217.029 56.7282 216.962 56.7099C216.962 56.7099 216.956 56.7099 216.95 56.7099C216.883 56.6918 216.81 56.6735 216.737 56.6674C216.215 56.6006 215.595 56.7404 214.932 57.123L184.562 74.6228C182.653 75.7224 181.121 78.3831 181.127 80.57Z" fill="white"/>
<path d="M183.146 114.08C182.771 114.08 182.426 113.99 182.128 113.808C182.116 113.801 182.105 113.792 182.094 113.781C182.037 113.745 181.958 113.692 181.884 113.625C181.837 113.59 181.787 113.542 181.732 113.479C181.667 113.407 181.614 113.341 181.56 113.26C181.503 113.176 181.45 113.092 181.404 113C181.367 112.939 181.331 112.86 181.304 112.777C181.277 112.721 181.25 112.641 181.224 112.555C181.202 112.491 181.184 112.412 181.167 112.336C181.146 112.255 181.139 112.199 181.133 112.143C181.126 112.126 181.125 112.118 181.125 112.099L181.089 111.799C181.082 111.667 181.076 111.571 181.076 111.474L180.961 80.5706C180.961 80.5706 180.961 80.5706 180.961 80.5703C180.955 78.3325 182.533 75.6001 184.479 74.479L214.849 56.979C215.518 56.5935 216.18 56.4291 216.759 56.5027C216.829 56.5082 216.906 56.5261 216.978 56.5452C216.988 56.5462 216.999 56.5478 217.006 56.5497C217.077 56.5692 217.149 56.5948 217.221 56.6208C217.228 56.6234 217.264 56.6387 217.271 56.6422C217.322 56.6616 217.383 56.6947 217.444 56.7285C218.157 57.1324 218.551 57.9731 218.557 59.0962L218.673 89.9943C218.679 92.2337 217.098 94.9691 215.149 96.0922L184.779 113.586C184.213 113.914 183.653 114.08 183.146 114.08ZM182.315 113.533C182.91 113.887 183.746 113.802 184.612 113.298L214.983 95.8044C216.84 94.7345 218.346 92.1288 218.341 89.9954L218.225 59.0979C218.22 58.0987 217.885 57.36 217.282 57.0184C217.234 56.9921 217.186 56.9649 217.132 56.9435C217.126 56.9412 217.091 56.9263 217.086 56.9237C217.048 56.911 216.991 56.8909 216.934 56.8744C216.924 56.8734 216.914 56.8721 216.907 56.8702C216.849 56.8546 216.787 56.8381 216.724 56.8329C216.215 56.769 215.621 56.9175 215.015 57.2667L184.645 74.7669C182.791 75.8345 181.288 78.4377 181.293 80.5694L181.409 111.473C181.409 111.565 181.414 111.655 181.419 111.745L181.456 112.077C181.462 112.095 181.464 112.105 181.464 112.124C181.468 112.146 181.472 112.187 181.483 112.228C181.505 112.327 181.52 112.395 181.54 112.453C181.563 112.53 181.585 112.596 181.613 112.656C181.64 112.734 181.665 112.79 181.695 112.84C181.741 112.93 181.786 113.003 181.831 113.071C181.881 113.142 181.925 113.197 181.974 113.252C182.021 113.305 182.055 113.338 182.09 113.364C182.169 113.435 182.235 113.478 182.302 113.522C182.305 113.525 182.311 113.529 182.315 113.533Z" fill="#373B42"/>
<path d="M204.452 75.5306C204.311 75.6116 204.172 75.757 204.069 75.9458L200.224 82.9754C199.916 83.5366 200.158 84.023 200.614 83.7598L202.262 82.8092L202.303 95.6145C202.304 95.8622 202.476 95.9662 202.696 95.8388L206.335 93.7396C206.551 93.6151 206.727 93.3104 206.726 93.0626L206.685 80.2573L208.332 79.3067C208.788 79.0436 209.022 78.2828 208.707 78.0809L204.839 75.5016C204.733 75.4331 204.592 75.4496 204.452 75.5306Z" fill="#FFBE2E"/>
<path d="M195.251 102.465C195.392 102.384 195.531 102.238 195.634 102.05L199.479 95.0201C199.787 94.4589 199.545 93.9725 199.089 94.2356L197.441 95.1862L197.4 82.3809C197.399 82.1332 197.227 82.0293 197.007 82.1567L193.368 84.2559C193.152 84.3803 192.976 84.6851 192.977 84.9328L193.018 97.7381L191.371 98.6887C190.915 98.9518 190.681 99.7126 190.996 99.9145L194.864 102.494C194.97 102.562 195.111 102.546 195.251 102.465Z" fill="#FFBE2E"/>
<path d="M186.03 79.2441C186.675 78.8722 187.195 79.1784 187.197 79.9184C187.2 80.6684 186.682 81.5635 186.038 81.9355C185.376 82.3171 184.856 82.0207 184.854 81.2708C184.851 80.5308 185.369 79.6257 186.03 79.2441Z" fill="#373B42"/>
<path d="M185.497 82.2687C185.357 82.2687 185.227 82.2357 185.111 82.1692C184.839 82.0126 184.689 81.6939 184.688 81.2715C184.686 80.4629 185.238 79.5094 185.947 79.1008C186.31 78.8907 186.663 78.8625 186.935 79.0195C187.21 79.1777 187.362 79.497 187.364 79.9186C187.365 80.7269 186.82 81.6761 186.121 82.0795C185.903 82.2052 185.691 82.2687 185.497 82.2687ZM186.548 79.2516C186.419 79.2516 186.27 79.2976 186.113 79.3881C185.508 79.737 185.018 80.5815 185.02 81.2708C185.02 81.5694 185.112 81.7866 185.277 81.8817C185.446 81.9782 185.687 81.9465 185.955 81.7921C186.55 81.4484 187.033 80.6084 187.031 79.9192C187.03 79.6212 186.938 79.404 186.77 79.3073C186.705 79.27 186.63 79.2516 186.548 79.2516Z" fill="#373B42"/>
<path d="M190.321 79.4853C190.181 79.4853 190.051 79.4522 189.935 79.3858C189.664 79.2291 189.513 78.9104 189.512 78.488C189.51 77.6797 190.063 76.7262 190.771 76.3174C191.135 76.1072 191.485 76.0784 191.76 76.2363C192.035 76.3942 192.186 76.7136 192.188 77.135C192.19 77.9432 191.644 78.8926 190.945 79.296C190.727 79.4217 190.515 79.4853 190.321 79.4853ZM190.937 76.6046C190.332 76.9538 189.842 77.7981 189.844 78.4873C189.845 78.7859 189.936 79.0032 190.101 79.0982C190.271 79.1945 190.512 79.1634 190.779 79.0087C191.375 78.665 191.857 77.825 191.855 77.1357C191.855 76.8377 191.762 76.6205 191.594 76.5239C191.425 76.4273 191.193 76.4571 190.937 76.6046Z" fill="#373B42"/>
<path d="M195.144 76.7018C195.004 76.7018 194.874 76.6688 194.758 76.6023C194.486 76.4457 194.335 76.127 194.334 75.7046C194.332 74.8963 194.885 73.9428 195.593 73.5339C195.957 73.3238 196.307 73.2949 196.582 73.4529C196.857 73.6108 197.009 73.9301 197.01 74.3516C197.012 75.1602 196.466 76.1094 195.767 76.5128C195.549 76.6385 195.337 76.7018 195.144 76.7018ZM195.76 73.8211C195.155 74.1703 194.664 75.0145 194.666 75.7038C194.667 76.0024 194.758 76.2196 194.924 76.3146C195.093 76.4119 195.333 76.3801 195.601 76.2255C196.197 75.8818 196.68 75.0415 196.678 74.3522C196.677 74.0543 196.584 73.8371 196.416 73.7404C196.248 73.6437 196.015 73.6736 195.76 73.8211Z" fill="#373B42"/>
<g opacity="0.1">
<path d="M313.52 131.566L369.039 163.806H369.047L392.082 150.513L336.562 118.273H336.555L313.52 131.566Z" fill="black"/>
</g>
<path d="M380.34 75.0998L380.539 143.767L392.083 145.135L387.534 74.481L380.34 75.0998Z" fill="#8D6A1E"/>
<path d="M392.082 145.372C392.082 145.372 392.066 145.372 392.051 145.372L380.507 144.004C380.384 143.989 380.293 143.889 380.293 143.767L380.102 75.0998C380.102 74.9776 380.193 74.8706 380.323 74.863L387.517 74.2441C387.579 74.2441 387.647 74.2594 387.693 74.3053C387.739 74.3511 387.77 74.4046 387.777 74.4733L392.319 145.127C392.319 145.196 392.296 145.265 392.242 145.318C392.196 145.364 392.135 145.387 392.074 145.387L392.082 145.372ZM380.774 143.553L391.822 144.86L387.311 74.7407L380.583 75.3214L380.774 143.553Z" fill="#373B42"/>
<path d="M373.16 82.778L317.64 50.53L313.52 126.18L369.039 158.428L373.16 82.778Z" fill="#FFBE2E"/>
<path d="M369.039 158.665C369.001 158.665 368.955 158.657 368.917 158.634L313.398 126.394C313.321 126.348 313.275 126.264 313.275 126.172L317.396 50.5222C317.396 50.4382 317.45 50.3618 317.518 50.3236C317.595 50.2854 317.679 50.2854 317.755 50.3236L373.275 82.5639C373.351 82.6098 373.397 82.6938 373.397 82.7855L369.276 158.436C369.276 158.52 369.223 158.596 369.154 158.634C369.116 158.657 369.078 158.665 369.039 158.665ZM313.772 126.05L368.825 158.023L372.923 82.9154L317.863 50.9348L313.765 126.043L313.772 126.05Z" fill="#373B42"/>
<path d="M380.339 75.0999L373.16 82.7779L369.039 158.428L380.537 143.767L380.339 75.0999Z" fill="#8D6A1E"/>
<path d="M369.038 158.665C369.038 158.665 368.977 158.665 368.954 158.65C368.855 158.611 368.794 158.52 368.801 158.413L372.922 82.7625C372.922 82.709 372.945 82.6555 372.983 82.6097L380.162 74.9316C380.231 74.8628 380.33 74.8399 380.43 74.8705C380.522 74.9087 380.583 74.9927 380.583 75.092L380.774 143.759C380.774 143.813 380.759 143.866 380.72 143.905L369.23 158.566C369.184 158.627 369.115 158.657 369.038 158.657V158.665ZM373.396 82.8771L369.321 157.679L380.292 143.683L380.101 75.7108L373.396 82.8771Z" fill="#373B42"/>
<path d="M369.039 158.428L392.082 145.135L380.537 143.767L369.039 158.428Z" fill="#373B42"/>
<path d="M369.039 158.673C368.97 158.673 368.901 158.642 368.855 158.589C368.779 158.505 368.779 158.375 368.848 158.283L380.338 143.622C380.392 143.553 380.476 143.515 380.56 143.53L392.104 144.898C392.211 144.913 392.288 144.99 392.311 145.089C392.334 145.188 392.288 145.295 392.196 145.349L369.161 158.642C369.161 158.642 369.085 158.673 369.039 158.673ZM380.636 144.027L369.994 157.603L391.324 145.295L380.636 144.035V144.027Z" fill="#373B42"/>
<path d="M387.533 74.4808L380.339 75.0997L373.168 82.7701L332.029 58.8802V42.2405L387.533 74.4808Z" fill="#BEC4CD"/>
<path d="M373.169 83.0148C373.13 83.0148 373.085 83.0071 373.046 82.9842L331.907 59.0943C331.831 59.0484 331.785 58.972 331.785 58.888V42.2407C331.785 42.1566 331.831 42.0726 331.907 42.0344C331.984 41.9885 332.076 41.9885 332.152 42.0344L387.664 74.2747C387.756 74.3282 387.802 74.4352 387.779 74.5345C387.756 74.6338 387.672 74.7102 387.565 74.7179L380.462 75.329L373.344 82.9307C373.299 82.9842 373.23 83.0071 373.169 83.0071V83.0148ZM332.267 58.7428L373.115 82.4647L380.164 74.9318C380.202 74.8859 380.263 74.863 380.317 74.8554L386.754 74.2977L332.267 42.6609V58.7505V58.7428Z" fill="#373B42"/>
<path d="M317.646 50.53L327.891 56.4815V48.1616L317.646 50.53Z" fill="#DBDEE4"/>
<path d="M327.893 56.7184C327.854 56.7184 327.808 56.7107 327.77 56.6878L317.518 50.744C317.434 50.6905 317.388 50.5988 317.403 50.4995C317.419 50.4002 317.487 50.3238 317.587 50.3009L327.839 47.9325C327.908 47.9172 327.984 47.9325 328.045 47.9783C328.107 48.0242 328.137 48.0929 328.137 48.1693V56.4892C328.137 56.5732 328.091 56.6572 328.015 56.6954C327.977 56.7184 327.938 56.726 327.893 56.726V56.7184ZM318.29 50.6294L327.648 56.0613V48.4673L318.29 50.6294Z" fill="#373B42"/>
<path d="M332.029 42.2405V58.8802L327.893 56.4812V48.1614L332.029 42.2405Z" fill="#373B42"/>
<path d="M332.029 59.1247C331.991 59.1247 331.945 59.1171 331.907 59.0942L327.779 56.6952C327.702 56.6494 327.656 56.573 327.656 56.489V48.1691C327.656 48.1233 327.672 48.0698 327.702 48.0316L331.831 42.1107C331.892 42.0266 331.999 41.9884 332.098 42.019C332.197 42.0496 332.266 42.1412 332.266 42.2482V58.8879C332.266 58.9719 332.22 59.056 332.144 59.0942C332.106 59.1171 332.068 59.1247 332.022 59.1247H332.029ZM328.138 56.3438L331.785 58.4601V43.0045L328.138 48.2379V56.3438Z" fill="#373B42"/>
<path d="M327.943 66.2604C326.605 65.4888 325.313 66.2069 325.061 67.8571C324.809 69.5074 325.68 71.4708 327.011 72.2348C328.341 73.0064 329.633 72.2959 329.885 70.6381C330.137 68.9802 329.274 67.0244 327.936 66.2528L327.943 66.2604Z" fill="white"/>
<path d="M328.082 72.7848C327.692 72.7848 327.295 72.6702 326.897 72.441C325.483 71.6235 324.558 69.5531 324.825 67.8112C324.971 66.902 325.429 66.1992 326.079 65.8783C326.683 65.588 327.387 65.6491 328.067 66.0387C329.474 66.8486 330.406 68.9266 330.131 70.6685C329.986 71.5777 329.535 72.2805 328.877 72.5938C328.625 72.716 328.357 72.7695 328.082 72.7695V72.7848ZM326.882 66.1915C326.676 66.1915 326.477 66.2374 326.286 66.3214C325.773 66.5659 325.414 67.1389 325.299 67.8876C325.055 69.4461 325.88 71.3026 327.134 72.0208C327.669 72.3264 328.212 72.3798 328.671 72.1659C329.183 71.9215 329.542 71.3485 329.657 70.5998C329.902 69.0412 329.076 67.1847 327.83 66.4589C327.509 66.2756 327.188 66.1839 326.89 66.1839L326.882 66.1915Z" fill="#373B42"/>
<path d="M358.977 84.0307C357.646 83.259 356.347 83.9772 356.094 85.6274C355.834 87.2776 356.714 89.2411 358.044 90.0051C359.374 90.7767 360.666 90.0586 360.919 88.4083C361.171 86.7581 360.307 84.7947 358.969 84.023L358.977 84.0307Z" fill="white"/>
<path d="M359.108 90.5552C358.718 90.5552 358.32 90.4406 357.923 90.2114C356.508 89.3939 355.583 87.3235 355.851 85.5893C355.996 84.6801 356.455 83.9696 357.112 83.6564C357.716 83.3661 358.42 83.4272 359.1 83.8168C360.507 84.6266 361.439 86.7047 361.164 88.4466C361.019 89.3557 360.568 90.0586 359.91 90.3718C359.658 90.4941 359.39 90.5552 359.115 90.5552H359.108ZM357.915 83.962C357.709 83.962 357.51 84.0078 357.319 84.0918C356.806 84.3363 356.447 84.9093 356.332 85.6657C356.088 87.2242 356.913 89.0807 358.167 89.7988C358.702 90.1044 359.245 90.1656 359.704 89.944C360.216 89.6995 360.575 89.1265 360.69 88.3778C360.935 86.8193 360.109 84.9628 358.863 84.237C358.542 84.0536 358.221 83.962 357.923 83.962H357.915Z" fill="#373B42"/>
<path d="M348.281 113.154C345.972 113.154 343.472 112.413 340.934 110.954C332.142 105.889 325.383 93.3515 325.873 83.0071L326.522 69.2018C326.545 68.667 327.012 68.2545 327.532 68.285C328.067 68.308 328.472 68.7587 328.449 69.2935L327.799 83.0988C327.341 92.7938 333.671 104.544 341.905 109.288C345.658 111.458 349.244 111.825 351.996 110.32C354.84 108.769 356.53 105.392 356.744 100.816L357.394 87.0104C357.417 86.4756 357.875 86.0784 358.403 86.0936C358.938 86.1166 359.343 86.5673 359.32 87.1021L358.671 100.907C358.426 106.179 356.385 110.121 352.921 112.008C351.515 112.78 349.947 113.162 348.288 113.162L348.281 113.154Z" fill="#373B42"/>
</g>
</svg>
