<svg width="350" height="238" viewBox="0 0 350 238" fill="none" xmlns="http://www.w3.org/2000/svg">
<g clip-path="url(#clip0_7714_145033)">
<rect width="350" height="238" rx="12" fill="white"/>
<rect width="350" height="238" rx="12" fill="url(#paint0_linear_7714_145033)"/>
<circle cx="6.5" cy="-0.5" r="43.5" fill="#978050"/>
<ellipse cx="186.781" cy="190.086" rx="60.7805" ry="9.08575" fill="#E3D0A2"/>
<path d="M170.562 43.8109L172.899 56.729L200.211 66.5328L197.874 53.6147L170.562 43.8109Z" fill="#FFBE2E"/>
<path d="M214.514 39.3927L197.874 53.6147L170.562 43.8109L187.201 29.5889L214.514 39.3927Z" fill="#FFBE2E"/>
<path d="M215.32 43.8543L198.681 58.0769L171.369 48.2731L188.009 34.0505L215.32 43.8543Z" fill="#FFF7E4"/>
<path d="M187.096 28.9998L170 43.6091L172.443 57.1155L200.318 67.1217L217.414 52.5125L214.971 39.006L187.096 28.9998ZM199.542 65.7413L173.357 56.3423L171.233 44.6022L197.419 54.0019L199.542 65.7413ZM171.583 43.6266L187.309 30.1772L213.494 39.5769L197.769 53.0263L171.583 43.6266Z" fill="#212121"/>
<path d="M200.211 66.5329L201.603 73.6035L175.65 64.2877L174.379 57.2598L200.211 66.5329Z" fill="#FFBE2E"/>
<path d="M200.105 65.9437L173.71 56.4689L175.194 64.6736L201.71 74.1917L216.595 61.4547L215.088 53.1234L200.105 65.9437ZM176.108 63.9004L175.05 58.051L199.76 66.9206L200.919 72.8063L176.108 63.9004Z" fill="#212121"/>
<path d="M199.993 66.7835L199.784 65.628L214.766 52.8077L214.987 53.9795L199.993 66.7835Z" fill="#FFBE2E"/>
<path d="M203.954 47.7885L177.496 38.2798L177.846 37.3042L204.872 47.0115L203.954 47.7885Z" fill="#212121"/>
<path d="M207.192 69.5504L206.139 70.4421L206.222 60.2366L203.955 47.796L204.871 46.9984L207.249 60.1476L207.192 69.5504Z" fill="#FFBE2E"/>
<path d="M202.82 38.7952C202.491 38.1661 201.781 37.4154 200.259 37.4116C198.27 37.4022 196.815 39.6229 195.959 41.4351C195.894 40.9519 195.801 40.4438 195.663 39.9462C195.258 38.4969 192.75 36.5519 190.942 36.6591C190.34 36.6967 189.288 36.9956 189.039 38.6034C188.546 41.8022 193.332 43.647 194.93 44.1708L194.86 44.4014L195.525 44.3525L196.07 44.5035L196.077 44.308C196.786 44.246 197.838 44.1326 198.902 43.9402C200.465 43.6576 202.039 43.2058 202.529 42.4997C203.153 41.5992 203.432 39.9676 202.82 38.7952ZM190.064 38.762C190.186 37.9775 190.543 37.7682 190.854 37.7118C190.906 37.7024 190.956 37.6967 191.004 37.6942C192.371 37.6128 194.403 39.2852 194.664 40.2245C194.955 41.2678 195.037 42.4151 195.057 43.1238C193.11 42.4614 189.741 40.8567 190.064 38.762ZM201.677 41.9081C201.291 42.4652 198.744 43.0009 196.326 43.2428C197 41.4394 198.497 38.4574 200.256 38.4474C201.062 38.4493 201.616 38.7275 201.901 39.2739C202.313 40.0634 202.118 41.2734 201.677 41.9081Z" fill="#212121"/>
<path d="M197.935 47.6814C197.531 47.7548 197.08 47.746 196.585 47.6125C195.155 47.2297 195.347 46.0322 195.448 45.3881C195.498 45.0773 195.555 44.7251 195.456 44.5929C195.392 44.5052 195.204 44.4356 194.942 44.4006C193.936 44.2658 193.141 44.4325 192.579 44.8943C191.742 45.583 191.66 46.7372 191.66 46.7484L190.626 46.6908C190.63 46.6256 190.725 45.0867 191.911 44.1029C192.704 43.445 193.77 43.2006 195.079 43.3735C195.648 43.4494 196.043 43.6461 196.287 43.9745C196.647 44.4569 196.555 45.0391 196.473 45.5522C196.344 46.3593 196.39 46.4884 196.853 46.6125C198.426 47.031 199.197 45.6074 199.229 45.546L200.15 46.0216C199.855 46.5949 199.088 47.4722 197.935 47.6814Z" fill="#212121"/>
<path d="M164.246 54.9676C164.246 54.9676 161.378 52.7332 159.378 52.2093C157.379 51.6855 154.115 51.5282 154.115 51.5282L145.164 50.7424L144.84 50.7142L135.93 49.9316C135.93 49.9316 132.851 49.5318 130.402 49.6647C127.951 49.7975 122.484 51.3007 122.484 51.3007L131.962 71.4623L150.866 74.0621L173.724 75.1298L164.246 54.9676Z" fill="#FFBE2E"/>
<path d="M162.032 57.0332C162.032 57.0332 159.164 54.7988 157.164 54.2749C155.164 53.7511 151.901 53.5938 151.901 53.5938L142.95 52.808L142.627 52.7798L133.716 51.9972C133.716 51.9972 130.637 51.5974 128.187 51.7303C125.737 51.8631 125.912 52.1175 125.912 52.1175L129.707 60.1907C133.214 67.6504 140.493 72.6206 148.718 73.1708L170.186 74.3782L162.032 57.0332Z" fill="#FFF7E4"/>
<path d="M131.482 71.2403L122.004 51.0787L122.395 50.9716C122.62 50.9095 127.925 49.4577 130.384 49.3236C132.837 49.1901 135.849 49.5761 135.976 49.5924L154.146 51.1877C154.267 51.1934 157.454 51.3513 159.466 51.8783C161.511 52.4134 164.336 54.6034 164.456 54.698L164.521 54.7481L164.555 54.822L174.154 75.238L150.851 74.4028L131.482 71.2403ZM122.968 51.5249L132.193 71.1494L150.913 73.7235L173.174 74.7618L163.973 55.188C163.541 54.8615 161.04 52.9974 159.292 52.5393C157.35 52.0312 154.131 51.8707 154.099 51.8689L135.901 50.271C135.857 50.266 132.81 49.8756 130.42 50.006C128.412 50.115 124.26 51.1821 122.968 51.5249Z" fill="#212121"/>
<path d="M173.934 74.8604C173.814 74.7664 170.988 72.5751 168.943 72.04C166.932 71.513 163.745 71.3551 163.623 71.3495L145.453 69.7535C145.326 69.7373 142.314 69.3513 139.861 69.4847C137.403 69.6182 132.097 71.07 131.872 71.1327L131.481 71.2398L131.929 71.7831C131.964 71.8094 132.057 71.9629 132.466 72.2499C133.461 72.9467 135.3 74.1373 136.742 74.512C138.747 75.032 141.92 75.1906 142.04 75.1962L160.212 76.7922C160.339 76.8091 163.364 77.1938 165.822 77.0666C168.286 76.9388 173.589 75.5195 173.813 75.4594L174.152 75.2376L173.934 74.8604Z" fill="#212121"/>
<path d="M129.028 65.2966L128.818 64.6468C129.047 64.5722 134.463 62.8391 137.515 62.8779C140.528 62.9161 148.254 63.7633 148.581 63.799L164.269 65.2277C164.352 65.2258 167.085 65.2496 170.901 68.3757L170.467 68.9039C166.85 65.9401 164.265 65.9094 164.24 65.9088L148.513 64.4782C148.427 64.4688 140.486 63.5985 137.506 63.5603C134.567 63.5227 129.083 65.279 129.028 65.2966Z" fill="#212121"/>
<path d="M143.483 61.5506L139.009 61.1577C138.086 61.0769 136.973 60.2253 136.521 59.2566L134.843 55.6555C134.392 54.6861 134.773 53.9668 135.695 54.0476L140.17 54.4405C141.092 54.5214 142.206 55.3729 142.657 56.3416L144.335 59.9433C144.786 60.9114 144.405 61.6314 143.483 61.5506Z" fill="#FFBE2E"/>
<path d="M143.456 61.7499L139.231 61.3789C138.114 61.2812 136.82 60.3745 136.346 59.3575L134.554 55.5127C134.081 54.4957 134.605 53.7488 135.721 53.8471L139.947 54.2181C141.064 54.3165 142.358 55.2232 142.832 56.2395L144.623 60.0844C145.097 61.1013 144.573 61.8482 143.456 61.7499ZM135.918 54.2688C135.056 54.193 134.652 54.7695 135.018 55.554L136.809 59.3988C137.174 60.1827 138.172 60.8826 139.035 60.9585L143.26 61.3294C144.122 61.4052 144.526 60.8288 144.16 60.0449L142.369 56.2C142.004 55.4162 141.005 54.7162 140.143 54.641L135.918 54.2688Z" fill="#212121"/>
<path d="M142.26 58.0574L139.379 55.9388C139.189 55.7991 138.966 55.7797 138.896 55.8962L137.827 57.6676C137.784 57.7409 137.906 57.8763 138.027 57.8869L138.925 57.9659C139.051 57.9772 139.196 58.0787 139.249 58.1933L140.26 60.3633C140.311 60.4736 140.451 60.5713 140.572 60.582L142.113 60.7173C142.234 60.728 142.29 60.6471 142.239 60.5368L141.228 58.3669C141.175 58.2522 141.234 58.1683 141.36 58.1796L142.258 58.2585C142.377 58.2698 142.379 58.1451 142.26 58.0574Z" fill="#FFF7E4"/>
<path d="M141.582 60.4909L140.041 60.3556C139.793 60.3337 139.505 60.1319 139.4 59.9063L138.389 57.7364L137.496 57.6612C137.349 57.648 137.18 57.5578 137.064 57.43C136.948 57.3022 136.908 57.1624 136.962 57.0728L138.031 55.3014C138.088 55.2062 138.21 55.1598 138.366 55.1736H138.367C138.522 55.1874 138.7 55.2601 138.855 55.3735L141.736 57.492C141.881 57.5992 141.974 57.7439 141.972 57.8611C141.97 57.9776 141.874 58.0453 141.728 58.0322L140.83 57.9532L141.842 60.12C141.947 60.3462 141.831 60.5129 141.582 60.4909ZM137.514 57.2583L138.198 57.3185C138.451 57.3404 138.745 57.5465 138.852 57.7771L139.863 59.9471L141.385 60.0699L140.368 57.9106C140.261 57.68 140.379 57.5108 140.632 57.5328L141.315 57.5929L138.647 55.6304C138.61 55.6034 138.578 55.5972 138.562 55.5959C138.546 55.5947 138.517 55.5953 138.503 55.6179L137.514 57.2583Z" fill="#212121"/>
<path d="M153.718 61.4251C152.538 60.5987 151.541 59.5134 151.006 58.3661C150.46 57.1937 150.459 56.1209 151.002 55.3446C151.546 54.5689 152.555 54.2035 153.843 54.317C156.365 54.5388 159.286 56.5853 160.356 58.8805C160.902 60.0523 160.903 61.125 160.359 61.9014C159.815 62.6777 158.807 63.043 157.518 62.9296C156.258 62.8187 154.897 62.251 153.718 61.4251ZM157.299 56.3146C156.21 55.552 154.954 55.0282 153.79 54.926C152.729 54.8327 151.916 55.1065 151.503 55.6961C151.09 56.2857 151.11 57.1423 151.56 58.1085C152.547 60.2271 155.244 62.1163 157.572 62.3212C158.633 62.4146 159.445 62.1407 159.858 61.5511C160.272 60.9608 160.252 60.1049 159.801 59.1387C159.308 58.0791 158.387 57.0771 157.299 56.3146Z" fill="#212121"/>
<path d="M154.26 60.6513C153.424 60.0655 152.717 59.2966 152.338 58.4827C151.943 57.6343 151.945 56.8529 152.343 56.2839C152.742 55.7143 153.475 55.4462 154.408 55.5282C156.196 55.6843 158.267 57.1355 159.025 58.7634C159.42 59.6118 159.418 60.3926 159.019 60.9621C158.621 61.5311 157.887 61.7999 156.954 61.7178C156.061 61.6395 155.096 61.2372 154.26 60.6513ZM156.757 57.0879C156.011 56.5659 155.152 56.2075 154.355 56.1373C153.649 56.0753 153.112 56.252 152.844 56.6354C152.576 57.0183 152.593 57.5829 152.892 58.2251C153.567 59.6751 155.415 60.969 157.008 61.1094C157.714 61.1714 158.251 60.9941 158.519 60.6119C158.787 60.229 158.77 59.6638 158.471 59.0216C158.133 58.2966 157.503 57.6104 156.757 57.0879Z" fill="#212121"/>
<path d="M155.731 69.674L155.784 69.0649L157.228 69.1915C157.456 69.2116 157.629 69.1621 157.703 69.0568C157.778 68.9509 157.765 68.7717 157.668 68.5636L157.588 68.3907C157.331 67.8405 156.603 67.3305 155.999 67.2779L155.847 67.2647C155.025 67.1926 154.106 66.5491 153.758 65.801L153.677 65.6286C153.483 65.2107 153.489 64.8197 153.695 64.5258C153.901 64.2319 154.267 64.0922 154.725 64.1323L154.877 64.1455C155.104 64.1655 155.278 64.1166 155.352 64.0107C155.426 63.9049 155.413 63.725 155.317 63.5176L155.268 63.4142C155.012 62.8641 154.284 62.354 153.68 62.3014L153.528 62.2882C152.705 62.2162 151.787 61.5726 151.439 60.8245C151.244 60.4078 151.251 60.0155 151.456 59.7223C151.662 59.429 152.028 59.2893 152.486 59.3294L152.639 59.3426C152.867 59.3626 153.04 59.3137 153.114 59.2072C153.188 59.1013 153.176 58.9221 153.078 58.7141L153.014 58.5756C152.758 58.0248 152.031 57.5154 151.425 57.4627L149.982 57.3362L150.036 56.7271L151.479 56.8537C152.301 56.9257 153.219 57.5686 153.568 58.3174L153.632 58.4559C153.827 58.8726 153.82 59.2642 153.614 59.5575C153.409 59.8514 153.043 59.9911 152.585 59.951L152.432 59.9378C152.204 59.9178 152.031 59.9673 151.957 60.0725C151.883 60.1784 151.895 60.3583 151.993 60.5657C152.249 61.1165 152.976 61.6259 153.581 61.6785L153.733 61.6917C154.556 61.7637 155.473 62.4066 155.822 63.1554L155.871 63.2594C156.065 63.6761 156.058 64.0678 155.852 64.3616C155.647 64.6549 155.281 64.7953 154.823 64.7545L154.671 64.7414C154.443 64.7213 154.27 64.7708 154.196 64.8761C154.122 64.982 154.135 65.1618 154.231 65.3692L154.312 65.5415C154.569 66.0923 155.297 66.6011 155.901 66.655L156.053 66.6682C156.875 66.7409 157.793 67.3831 158.142 68.1319L158.222 68.3049C158.416 68.7215 158.41 69.1132 158.204 69.4071C157.999 69.7003 157.633 69.8407 157.175 69.7999L155.731 69.674Z" fill="#212121"/>
<path d="M133.532 72.2625L133.406 71.8239C133.569 71.7769 137.418 70.6898 140.548 71.025C143.631 71.3559 167.096 73.2476 167.333 73.2664C167.447 73.2801 169.906 73.6003 171.422 74.4231C172.303 74.9018 172.478 74.9851 172.49 74.9908L172.299 75.4056C172.293 75.4025 172.126 75.3254 171.204 74.8254C169.762 74.0421 167.31 73.7232 167.285 73.7207C167.059 73.7031 143.588 71.8108 140.499 71.4793C137.459 71.1528 133.57 72.2513 133.532 72.2625Z" fill="#FFBE2E"/>
<path d="M247.447 106.829L223.786 76.5062L252.344 72.5104L276.005 102.834L247.447 106.829Z" fill="#FFBE2E"/>
<path d="M223.786 76.5061L214.152 100.308L237.814 130.631L247.447 106.829L223.786 76.5061Z" fill="#FFBE2E"/>
<path d="M247.165 106.46L223.505 76.137L252.062 72.1411L275.723 102.464L247.165 106.46Z" fill="#FFF7E4"/>
<path d="M252.553 72.3462L252.459 72.2246L223.596 76.2624L213.846 100.351L237.696 130.917L266.406 126.9L266.559 126.879L276.309 102.79L252.553 72.3462ZM237.738 130.102L214.457 100.265L223.859 77.035L235.308 91.707L247.141 106.871L237.738 130.102ZM224.281 76.7067L252.228 72.7967L275.508 102.633L247.562 106.543L224.281 76.7067Z" fill="#212121"/>
<path d="M220.091 105.232L217.773 102.261C217.295 101.649 217.181 100.479 217.517 99.6476L218.767 96.5585C219.104 95.7276 219.764 95.5496 220.242 96.1618L222.56 99.1325C223.037 99.7447 223.152 100.915 222.815 101.746L221.565 104.835C221.228 105.667 220.568 105.844 220.091 105.232Z" fill="#FFF7E4"/>
<path d="M219.757 104.248L217.568 101.443C216.99 100.702 216.806 99.389 217.159 98.5167L218.494 95.2183C218.847 94.3461 219.605 94.2402 220.183 94.9821L222.372 97.7874C222.95 98.5293 223.134 99.8414 222.781 100.714L221.446 104.012C221.094 104.884 220.336 104.99 219.757 104.248ZM220.037 95.3436C219.59 94.7715 219.006 94.8536 218.734 95.526L217.399 98.8238C217.127 99.4961 217.269 100.509 217.715 101.081L219.904 103.887C220.35 104.459 220.935 104.377 221.207 103.704L222.542 100.406C222.814 99.7336 222.673 98.721 222.226 98.1483L220.037 95.3436Z" fill="#212121"/>
<path d="M221.212 100.975C221.28 101.063 221.374 101.035 221.395 100.911C221.541 100.028 221.317 98.9596 220.804 98.3023C220.291 97.645 219.651 97.6055 219.227 98.1325C219.167 98.2064 219.182 98.3744 219.25 98.4621L221.212 100.975Z" fill="#FFBE2E"/>
<path d="M221.077 100.559L219.117 98.0462C219.045 97.9541 218.997 97.8137 218.989 97.6715C218.982 97.533 219.012 97.4114 219.072 97.3369C219.55 96.7435 220.267 96.8205 220.817 97.5248C221.366 98.2291 221.634 99.4153 221.47 100.41C221.449 100.534 221.394 100.623 221.317 100.655C221.239 100.687 221.149 100.651 221.077 100.559ZM219.281 97.7084L221.213 100.184C221.329 99.4072 221.112 98.4528 220.67 97.8858C220.234 97.3275 219.667 97.2573 219.281 97.7084Z" fill="#212121"/>
<path d="M218.861 101.369C218.65 101.098 218.583 100.62 218.712 100.302L218.794 100.098L219.034 100.406L218.952 100.61C218.903 100.728 218.929 100.907 219.007 101.007C219.086 101.108 219.189 101.094 219.237 100.975L220.05 98.9684L220.29 99.2761L219.477 101.283C219.348 101.601 219.072 101.639 218.861 101.369Z" fill="#212121"/>
<path d="M225.211 111.795L222.893 108.825C222.415 108.212 222.301 107.043 222.638 106.211L223.888 103.122C224.225 102.29 224.885 102.113 225.363 102.725L227.68 105.696C228.158 106.308 228.273 107.478 227.936 108.31L226.685 111.399C226.349 112.23 225.689 112.408 225.211 111.795Z" fill="#FFF7E4"/>
<path d="M224.878 110.812L222.69 108.006C222.111 107.265 221.927 105.952 222.28 105.08L223.614 101.782C223.967 100.91 224.725 100.804 225.304 101.546L227.493 104.351C228.071 105.093 228.255 106.405 227.902 107.278L226.568 110.575C226.215 111.447 225.457 111.553 224.878 110.812ZM225.158 101.907C224.712 101.335 224.127 101.417 223.854 102.089L222.52 105.387C222.248 106.06 222.389 107.072 222.836 107.645L225.024 110.45C225.471 111.022 226.056 110.94 226.328 110.268L227.663 106.969C227.935 106.297 227.793 105.284 227.347 104.712L225.158 101.907Z" fill="#212121"/>
<path d="M226.461 107.966L226.113 104.986C226.091 104.789 225.975 104.642 225.862 104.665L224.164 105.023C224.094 105.038 224.082 105.191 224.144 105.271L224.609 105.867C224.674 105.95 224.695 106.097 224.654 106.196L223.901 108.057C223.863 108.151 223.883 108.293 223.946 108.373L224.744 109.396C224.807 109.476 224.889 109.465 224.927 109.37L225.68 107.509C225.72 107.411 225.805 107.399 225.87 107.483L226.335 108.079C226.398 108.159 226.475 108.089 226.461 107.966Z" fill="#FFBE2E"/>
<path d="M224.58 108.941L223.781 107.919C223.653 107.754 223.612 107.462 223.691 107.268L224.444 105.407L223.979 104.816C223.904 104.719 223.862 104.563 223.874 104.419C223.886 104.275 223.949 104.171 224.035 104.153L225.733 103.795C225.825 103.776 225.923 103.825 226.003 103.928C226.084 104.031 226.141 104.182 226.159 104.341L226.507 107.321C226.524 107.472 226.488 107.611 226.416 107.677C226.343 107.743 226.247 107.722 226.171 107.625L225.705 107.029L224.955 108.889C224.877 109.083 224.709 109.106 224.58 108.941ZM224.237 104.596L224.591 105.051C224.722 105.219 224.764 105.517 224.684 105.714L223.93 107.575L224.726 108.58L225.469 106.721C225.55 106.523 225.721 106.499 225.852 106.667L226.206 107.12L225.884 104.36C225.88 104.322 225.865 104.299 225.857 104.288C225.849 104.277 225.832 104.261 225.81 104.264L224.237 104.596Z" fill="#212121"/>
<path d="M246.78 79.8226L241.075 80.6209L245.283 86.014L250.989 85.2157L246.78 79.8226ZM245.765 84.6411L243.394 81.6015L246.297 81.1955L248.669 84.2351L245.765 84.6411Z" fill="#FFBE2E"/>
<path d="M245.651 84.9215L242.908 81.4057L246.41 80.9156L249.154 84.4315L245.651 84.9215ZM243.878 81.7979L245.878 84.3613L248.184 84.0386L246.184 81.4752L243.878 81.7979Z" fill="#212121"/>
<path d="M245.169 86.2937L240.59 80.4249L246.892 79.5427L251.472 85.4114L245.169 86.2937ZM241.559 80.8172L245.396 85.7341L250.503 85.0198L246.666 80.1028L241.559 80.8172Z" fill="#212121"/>
<path d="M236.71 82.9802C235.568 82.5178 234.528 81.8054 233.862 80.9519C233.181 80.0797 232.974 79.1855 233.279 78.4342C233.582 77.6829 234.353 77.1848 235.448 77.0313C237.593 76.7318 240.421 77.8759 241.754 79.5834C242.434 80.455 242.642 81.3492 242.337 82.1011C242.033 82.8524 241.263 83.3506 240.167 83.5041C239.095 83.6532 237.851 83.4421 236.71 82.9802ZM238.712 78.032C237.658 77.6052 236.511 77.4104 235.52 77.5489C234.618 77.6748 233.994 78.0589 233.763 78.6297C233.532 79.2006 233.713 79.9105 234.274 80.6292C235.504 82.2051 238.115 83.2622 240.095 82.9853C240.998 82.8587 241.621 82.4752 241.852 81.9044C242.084 81.3335 241.902 80.6236 241.342 79.9049C240.727 79.1172 239.766 78.4587 238.712 78.032Z" fill="#212121"/>
<path d="M237.013 82.2314C236.203 81.9037 235.466 81.3986 234.994 80.7933C234.501 80.1623 234.353 79.5107 234.576 78.9599C234.799 78.4085 235.358 78.0438 236.152 77.9329C237.672 77.7198 239.677 78.5313 240.621 79.7419C241.114 80.3729 241.262 81.0246 241.039 81.576C240.816 82.1267 240.257 82.4914 239.464 82.603C238.703 82.7082 237.822 82.5585 237.013 82.2314ZM238.409 78.7807C237.688 78.4887 236.902 78.3552 236.224 78.4498C235.624 78.5338 235.211 78.7844 235.061 79.1554C234.911 79.5257 235.034 79.9932 235.407 80.4713C236.248 81.5503 238.037 82.2734 239.392 82.0841C239.992 82.0002 240.405 81.7495 240.555 81.3792C240.706 81.0083 240.583 80.5408 240.21 80.0633C239.788 79.5238 239.131 79.0733 238.409 78.7807Z" fill="#212121"/>
<path d="M267.641 91.6192L239.714 95.4565L234.783 89.1372L262.71 85.2999L267.641 91.6192Z" fill="#FFBE2E"/>
<path d="M238.624 95.8794L233.312 89.0733L262.448 85.0674L267.759 91.8742L238.624 95.8794ZM234.305 89.4762L238.856 95.3086L266.767 91.4713L262.216 85.6388L234.305 89.4762Z" fill="#212121"/>
<path d="M234.795 91.0696L230.968 100.526L235.835 107.003L239.726 97.3889L234.795 91.0696Z" fill="#FFBE2E"/>
<path d="M234.919 105.747L229.678 98.7713L233.736 88.7456L239.046 95.5518L234.919 105.747ZM230.286 98.691L234.778 104.669L238.434 95.6364L233.883 89.8033L230.286 98.691Z" fill="#212121"/>
<path d="M235.547 117.444L230.668 111.192L234.633 101.396L239.512 107.649L235.547 117.444Z" fill="#FFBE2E"/>
<path d="M235.606 117.865L230.425 111.226L234.574 100.975L239.754 107.614L235.606 117.865ZM230.911 111.158L235.488 117.023L239.269 107.682L234.691 101.816L230.911 111.158Z" fill="#212121"/>
<path d="M235.414 115.897L232.206 111.786L235.04 104.785L238.248 108.896L235.414 115.897Z" fill="#FFF7E4"/>
<path d="M235.336 115.397L231.826 110.899L234.844 103.443L238.354 107.941L235.336 115.397ZM232.312 110.831L235.218 114.556L237.867 108.01L234.961 104.284L232.312 110.831Z" fill="#212121"/>
<path d="M235.109 119.404C233.82 117.752 233.41 114.828 234.197 112.886C234.983 110.944 236.671 110.707 237.96 112.359C239.249 114.011 239.659 116.935 238.873 118.878C238.086 120.82 236.398 121.056 235.109 119.404ZM237.8 112.753C236.656 111.286 235.156 111.496 234.458 113.221C233.76 114.946 234.124 117.544 235.268 119.01C236.414 120.478 237.913 120.268 238.611 118.543C239.309 116.818 238.946 114.221 237.8 112.753Z" fill="#212121"/>
<path d="M235.469 118.516C234.516 117.296 234.213 115.134 234.794 113.699C235.375 112.264 236.623 112.089 237.576 113.31C238.529 114.531 238.831 116.693 238.25 118.128C237.669 119.563 236.421 119.737 235.469 118.516ZM237.417 113.703C236.608 112.667 235.549 112.815 235.056 114.033C234.562 115.252 234.819 117.086 235.628 118.122C236.437 119.159 237.496 119.011 237.989 117.792C238.482 116.574 238.226 114.74 237.417 113.703Z" fill="#212121"/>
<path d="M262.016 104.654L238.478 74.3148L238.993 74.1086L262.621 104.569L262.016 104.654Z" fill="#212121"/>
<path d="M252.822 128.626L252.214 128.703L261.971 104.596L262.58 104.515L252.822 128.626Z" fill="#FFBE2E"/>
<path d="M117.097 62.3461C117.097 62.3461 113.469 62.5892 111.629 63.5303C109.789 64.4715 107.25 66.5286 107.25 66.5286L100.051 71.9043L99.79 72.0991L92.6229 77.4503C92.6229 77.4503 90.0601 79.2029 88.3213 80.9342C86.5825 82.6649 83.5059 87.4277 83.5059 87.4277L104.005 96.1526L119.836 85.4997L137.595 71.0715L117.097 62.3461Z" fill="#FFBE2E"/>
<path d="M117.053 62.8367C117.053 62.8367 113.426 63.0798 111.585 64.0209C109.745 64.9621 107.206 67.0192 107.206 67.0192L100.007 72.3949L99.7463 72.5898L92.5792 77.9409C92.5792 77.9409 90.0164 79.6942 88.2775 81.4249C86.5387 83.1555 83.6855 87.2742 83.6855 87.2742L92.5792 91.0338C101.23 94.7934 105.303 98.5531 107.81 92.9136L134.688 70.3434L117.053 62.8367Z" fill="#FFF7E4"/>
<path d="M103.499 96.3074L83 87.5826L83.2199 87.2423C83.3465 87.0462 86.3367 82.4294 88.0811 80.6918C89.8218 78.958 92.3251 77.2399 92.431 77.1678L107.046 66.2549C107.141 66.1778 109.623 64.1733 111.474 63.2259C113.355 62.2628 116.922 62.014 117.075 62.0053L117.156 61.9996L117.231 62.0316L137.989 70.8661L120.053 85.7642L103.499 96.3074ZM84.0163 87.273L103.969 95.766L119.646 85.2165L136.942 71.1637L117.04 62.6927C116.501 62.7371 113.393 63.0116 111.786 63.8343C109.998 64.7492 107.49 66.7737 107.465 66.7938L92.8276 77.723C92.7913 77.7487 90.2586 79.4875 88.563 81.1756C87.1368 82.5961 84.7514 86.1571 84.0163 87.273Z" fill="#212121"/>
<path d="M137.573 70.731C137.421 70.741 133.854 70.9891 131.972 71.9516C130.121 72.8984 127.639 74.9035 127.545 74.9806L112.929 85.8935C112.824 85.9656 110.321 87.6837 108.579 89.4175C106.835 91.1538 103.844 95.7713 103.718 95.9674L103.498 96.3076L104.194 96.4154C104.237 96.4117 104.409 96.4643 104.906 96.4054C106.112 96.2625 108.277 95.926 109.601 95.2449C111.443 94.2975 113.915 92.3024 114.009 92.226L128.625 81.3124C128.732 81.2403 131.245 79.5122 132.993 77.7802C134.746 76.0439 137.754 71.4534 137.882 71.2586L137.988 70.8669L137.573 70.731Z" fill="#212121"/>
<path d="M97.7091 93.5091L97.1201 93.1638C97.2411 92.9558 100.127 88.0558 102.428 86.0512C104.701 84.0724 111.028 79.5584 111.296 79.3666L123.948 69.9826C124.01 69.9256 126.064 68.1235 130.992 67.913L131.02 68.596C126.347 68.7946 124.399 70.4939 124.38 70.5102L111.697 79.9187C111.627 79.9694 105.124 84.6094 102.876 86.5663C100.659 88.4969 97.7386 93.459 97.7091 93.5091Z" fill="#212121"/>
<path d="M105.995 81.0865L102.396 83.774C101.654 84.3279 100.257 84.4351 99.2745 84.0127L95.6239 82.4443C94.6414 82.022 94.4471 81.2312 95.1884 80.6773L98.7876 77.9898C99.5295 77.4359 100.927 77.3287 101.909 77.7511L105.56 79.3195C106.542 79.7412 106.737 80.5326 105.995 81.0865Z" fill="#FFBE2E"/>
<path d="M106.109 81.2528L102.71 83.7906C101.811 84.4617 100.242 84.6472 99.2117 84.2048L95.3143 82.5299C94.2841 82.0875 94.177 81.1814 95.0755 80.5103L98.4742 77.9726C99.3728 77.3015 100.942 77.116 101.973 77.5584L105.87 79.2333C106.9 79.6763 107.007 80.5824 106.109 81.2528ZM95.5029 80.6939C94.8098 81.2115 94.8926 81.9101 95.6871 82.2523L99.5839 83.9266C100.378 84.2681 101.589 84.1252 102.283 83.607L105.681 81.0692C106.374 80.5517 106.292 79.853 105.497 79.5115L101.6 77.8366C100.806 77.4951 99.5952 77.638 98.9015 78.1562L95.5029 80.6939Z" fill="#212121"/>
<path d="M102.756 79.2957L99.1962 79.6347C98.9612 79.6573 98.782 79.7907 98.807 79.9248L99.1899 81.9582C99.2055 82.0421 99.3879 82.0609 99.4844 81.9889L100.207 81.4494C100.308 81.3742 100.484 81.3529 100.6 81.403L102.8 82.3479C102.911 82.3961 103.081 82.3761 103.178 82.3034L104.418 81.3779C104.515 81.3052 104.503 81.2075 104.392 81.1592L102.193 80.2143C102.077 80.1642 102.065 80.0627 102.166 79.9869L102.888 79.4474C102.984 79.3759 102.903 79.2813 102.756 79.2957Z" fill="#FFF7E4"/>
<path d="M103.871 81.562L102.631 82.4875C102.431 82.6366 102.082 82.678 101.854 82.5796L99.6544 81.6347L98.9382 82.1736C98.8203 82.2613 98.6336 82.307 98.4619 82.2889C98.2909 82.2707 98.1681 82.193 98.148 82.0902L97.7645 80.0575C97.7445 79.9485 97.8046 79.832 97.93 79.7386C98.0553 79.6452 98.2364 79.5807 98.4269 79.5625L101.987 79.2235C102.166 79.2066 102.332 79.253 102.409 79.342C102.485 79.4303 102.458 79.5444 102.341 79.6321L101.618 80.1716L103.817 81.1127C104.047 81.2111 104.071 81.4129 103.871 81.562ZM98.6838 81.8609L99.2339 81.4505C99.4376 81.2982 99.7935 81.2562 100.027 81.3565L102.227 82.3014L103.444 81.3784L101.247 80.446C101.013 80.3458 100.988 80.1403 101.192 79.988L101.742 79.5776L98.4438 79.8915C98.398 79.8959 98.3705 79.9128 98.3573 79.9222C98.3441 79.9322 98.3235 79.9517 98.3278 79.978L98.6838 81.8609Z" fill="#212121"/>
<path d="M113.545 74.1757C112.115 74.3448 110.648 74.1995 109.485 73.7001C108.297 73.1894 107.582 72.3898 107.47 71.4493C107.359 70.5082 107.868 69.5639 108.904 68.7906C110.933 67.2761 114.476 66.8569 116.802 67.8564C117.99 68.3664 118.705 69.166 118.816 70.1078C118.928 71.0489 118.418 71.9932 117.382 72.7664C116.369 73.5234 114.975 74.0065 113.545 74.1757ZM112.812 67.9786C111.492 68.1346 110.207 68.5813 109.27 69.28C108.416 69.9173 107.993 70.6623 108.077 71.3773C108.162 72.0922 108.748 72.7176 109.727 73.1386C111.874 74.061 115.144 73.6744 117.016 72.2764C117.871 71.6385 118.293 70.8941 118.209 70.1792C118.124 69.4636 117.539 68.8383 116.56 68.4178C115.487 67.9566 114.132 67.8225 112.812 67.9786Z" fill="#212121"/>
<path d="M113.435 73.2381C112.421 73.3577 111.381 73.255 110.557 72.9009C109.697 72.5312 109.178 71.9473 109.096 71.2574C109.015 70.5668 109.382 69.8782 110.132 69.318C111.57 68.244 114.081 67.947 115.731 68.6557C116.591 69.0254 117.11 69.6088 117.192 70.2993C117.273 70.9892 116.905 71.6778 116.155 72.238C115.436 72.775 114.449 73.1178 113.435 73.2381ZM112.923 68.9164C112.019 69.0235 111.139 69.3293 110.498 69.8074C109.931 70.231 109.648 70.721 109.703 71.1853C109.758 71.649 110.147 72.0594 110.798 72.3389C112.267 72.9711 114.507 72.7054 115.789 71.7486C116.357 71.325 116.64 70.835 116.585 70.3714C116.529 69.907 116.141 69.4966 115.49 69.2171C114.755 68.9013 113.828 68.8092 112.923 68.9164Z" fill="#212121"/>
<path d="M105.708 95.7048L105.322 95.4611C105.412 95.3182 107.559 91.9427 110.117 90.1086C112.637 88.3015 131.399 74.0826 131.589 73.9392C131.683 73.8734 133.731 72.4742 135.41 72.0781C136.386 71.8482 136.572 71.7943 136.584 71.7905L136.718 72.2273C136.711 72.2291 136.535 72.2824 135.515 72.5237C133.917 72.9002 131.876 74.2957 131.855 74.3101C131.675 74.4473 112.907 88.67 110.383 90.4802C107.898 92.261 105.73 95.6704 105.708 95.7048Z" fill="#FFBE2E"/>
<path d="M228.478 170.478C256.732 142.223 256.732 96.4137 228.478 68.1593C200.223 39.9048 154.414 39.9048 126.159 68.1593C97.9048 96.4137 97.9048 142.223 126.159 170.478C154.414 198.732 200.223 198.732 228.478 170.478Z" fill="#FFBE2E"/>
<path d="M232.163 104.541C230.451 102.378 234.066 96.6216 236.348 94.5287C238.631 92.4358 237.49 91.4847 236.348 88.0603C235.207 84.6359 233.875 82.3532 230.641 80.8312C227.407 79.3091 224.173 80.0705 221.13 79.6895C218.085 79.3091 215.422 75.5038 212.378 74.3627C209.334 73.2211 207.242 79.499 206.291 78.5478C205.34 77.5966 206.481 74.7431 204.769 72.8094C203.056 70.8757 194.496 71.3187 188.598 70.3675C182.701 69.4163 183.081 66.1824 184.793 64.4699C186.505 62.758 186.505 60.8557 182.261 58.9527C178.017 57.0503 168.939 57.7809 166.15 58.2239C160.632 59.0999 162.155 55.3378 159.292 55.9086C156.429 56.4795 152.453 60.2842 149.979 59.7134C149.097 59.5097 148.434 58.5303 147.832 57.5033C146.347 58.2114 144.898 58.9802 143.474 59.7886C143.98 61.5982 145.423 63.2581 146.745 64.4699C149.028 66.5628 150.55 63.1447 154.925 65.517C159.301 67.8893 159.681 79.1186 156.638 79.6895C153.594 80.2603 151.691 77.0258 151.882 74.1722C152.072 71.3187 151.311 69.4163 147.886 69.7967C144.462 70.177 142.369 77.2163 145.223 80.6407C148.077 84.0651 142.941 86.3478 138.755 86.3478C134.57 86.3478 132.58 80.9126 132.857 77.6568C133.32 72.2285 137.423 71.1288 138.565 68.0848C139.085 66.6969 139.09 64.5269 138.942 62.5744C120.406 75.0514 108.21 96.2262 108.21 120.251C108.21 128.912 109.808 137.197 112.703 144.843C113.597 143.812 114.196 142.689 114.214 141.709C114.269 138.754 112.121 135.811 114.214 136.192C116.307 136.572 117.068 135.431 117.356 128.962C117.644 122.494 121.633 124.777 127.266 124.016C132.898 123.255 133.264 123.248 130.642 120.251C128.021 117.255 126.415 111.295 126.688 104.835C126.993 97.6047 132.668 89.7728 134.57 90.1531C136.472 90.5335 135.015 92.9603 132.645 97.8885C130.05 103.285 130.364 114.835 134.549 118.069C138.734 121.303 149.599 116.977 148.648 113.743C147.697 110.51 143.512 111.841 142.56 105.499C141.609 99.1574 146.935 96.2412 146.175 100.997C145.413 105.753 150.17 110.89 153.404 112.221C156.638 113.553 157.428 118.315 156.217 121.415C154.325 126.261 161.964 124.587 159.292 127.441C156.619 130.295 155.116 145.134 157.399 149.128C159.682 153.124 163.677 152.933 163.268 149.699C162.86 146.465 165.389 141.139 169.574 137.757C173.76 134.377 182.321 134.099 186.126 137.757C189.93 141.416 183.082 144.562 183.843 146.084C184.604 147.606 188.028 145.704 189.17 146.275C190.311 146.846 191.072 149.128 191.643 151.411C192.214 153.694 193.257 157.571 196.239 158.488C199.972 159.637 204.579 156.928 204.77 153.884C204.96 150.84 200.965 147.796 203.628 145.514C206.291 143.231 215.423 145.133 219.799 142.28C224.175 139.426 222.842 129.724 221.32 127.251C219.798 124.777 221.32 122.114 225.315 124.968C229.31 127.821 224.726 130.99 228.169 131.436C230.464 131.733 231.593 128.392 231.593 126.49C231.593 124.587 228.549 121.924 231.784 121.163C235.018 120.402 235.588 119.261 236.73 112.412C237.87 105.563 233.875 106.704 232.163 104.541ZM161.671 88.3047C159.679 88.6111 161.364 92.9014 159.365 94.4341C157.365 95.9661 153.537 95.0851 154.469 92.2886C155.542 89.071 156.921 87.3854 158.606 84.9335C160.292 82.4816 164.276 83.248 164.889 85.8527C165.502 88.4575 163.662 87.9976 161.671 88.3047Z" fill="#FFF7E4"/>
<path d="M197.909 159.502C197.235 159.502 196.573 159.409 195.951 159.218C192.693 158.214 191.623 153.937 191.11 151.881C190.844 150.819 190.036 147.587 188.827 146.982C188.471 146.805 187.611 146.989 186.85 147.151C185.474 147.447 183.912 147.778 183.338 146.629C182.956 145.865 183.7 145.059 184.642 144.039C186.484 142.042 187.731 140.361 185.694 138.401C182.134 134.98 173.874 134.991 169.624 138.422C165.34 141.883 163.084 147.144 163.449 150.036C163.62 151.384 163.095 152.399 162.046 152.75C160.626 153.228 158.408 152.324 156.903 149.691C154.644 145.736 155.97 130.647 158.847 127.575C159.324 127.065 159.335 126.828 159.318 126.751C159.26 126.495 158.639 126.252 158.091 126.036C156.675 125.481 154.537 124.643 155.699 121.665C156.889 118.618 156.007 114.142 153.085 112.939C149.608 111.508 144.864 106.144 145.636 101.322C145.817 100.192 145.614 99.6138 145.364 99.4503C145.104 99.2811 144.721 99.4891 144.567 99.5875C143.553 100.237 142.231 102.435 142.74 105.827C143.281 109.439 144.91 110.44 146.347 111.324C147.399 111.971 148.393 112.581 148.816 114.023C149.136 115.109 148.411 116.322 146.776 117.441C143.604 119.607 137.265 121.148 134.147 118.739C129.662 115.274 129.622 103.345 132.138 98.1137C132.412 97.5435 132.674 97.0065 132.921 96.5027C134.229 93.8215 135.175 91.8846 134.836 91.1998C134.787 91.1026 134.681 90.9642 134.319 90.8921C134.236 90.8764 133.913 90.8614 133.241 91.389C130.742 93.3509 127.11 99.5662 126.871 105.233C126.609 111.459 128.126 117.411 130.736 120.394C132.015 121.856 132.59 122.618 132.34 123.286C132.035 124.097 130.757 124.269 127.343 124.731L127.135 124.759C125.651 124.959 124.282 124.95 123.074 124.946C119.635 124.92 117.737 124.918 117.539 129.361C117.338 133.862 116.903 135.823 115.93 136.598C115.307 137.096 114.555 137.038 113.969 136.931C113.671 136.878 113.546 136.915 113.521 136.942C113.369 137.109 113.621 138.009 113.805 138.666C114.079 139.644 114.42 140.862 114.397 142.097C114.379 143.099 113.811 144.294 112.797 145.463L112.398 145.924L112.183 145.353C109.186 137.438 107.666 129.121 107.666 120.633C107.666 97.3499 119.215 75.6757 138.559 62.6555L139.078 62.3065L139.125 62.9293C139.317 65.4689 139.183 67.3744 138.725 68.5944C138.262 69.8282 137.363 70.7399 136.411 71.7055C134.889 73.2482 133.315 74.8435 133.04 78.0699C132.872 80.0375 133.579 82.985 135.256 84.8109C136.204 85.8429 137.321 86.3668 138.575 86.3668C141.28 86.3668 144.549 85.3611 145.337 83.6774C145.681 82.9411 145.488 82.1259 144.764 81.2562C142.926 79.0512 143.072 75.6581 144.032 73.2745C144.837 71.2744 146.196 69.9824 147.666 69.8188C149.215 69.6465 150.325 69.9078 151.065 70.6165C151.875 71.3922 152.192 72.6511 152.064 74.5797C151.953 76.2377 152.609 77.9991 153.695 78.9635C154.459 79.6415 155.388 79.9021 156.39 79.7154C157.104 79.5813 157.681 78.5411 157.934 76.9326C158.472 73.512 157.452 67.7811 154.572 66.2196C152.364 65.0234 150.961 65.3731 149.722 65.6832C148.594 65.9652 147.53 66.2315 146.319 65.1212C144.517 63.4688 143.381 61.8365 142.943 60.2694L142.867 59.9956L143.114 59.8552C144.668 58.9742 146.101 58.2229 147.495 57.5587L147.796 57.4152L147.965 57.7028C148.527 58.6628 149.149 59.5739 149.88 59.7424C151.164 60.04 153.05 58.9379 154.876 57.8733C156.296 57.0455 157.764 56.1896 159.039 55.9358C160.465 55.6526 161.008 56.3287 161.534 56.9835C162.19 57.7981 162.931 58.7198 165.912 58.2486C168.056 57.9083 177.698 56.9734 182.229 59.0043C184.547 60.0432 185.783 61.1473 186.011 62.3792C186.175 63.2696 185.791 64.1882 184.869 65.1093C184.215 65.7641 183.635 66.8331 183.971 67.8707C184.249 68.7342 185.258 69.8727 188.475 70.3915C190.563 70.7286 192.992 70.8891 195.341 71.0445C199.804 71.3402 203.66 71.5959 204.86 72.9506C205.927 74.1562 205.975 75.6638 206.014 76.8756C206.04 77.6764 206.062 78.3682 206.367 78.6734C206.533 78.6276 207.072 77.897 207.466 77.3631C208.631 75.7822 210.225 73.6198 212.325 74.4049C213.729 74.9313 215.044 75.9934 216.315 77.0197C217.902 78.3011 219.402 79.5124 220.993 79.711C223.979 80.0838 227.276 79.3125 230.615 80.884C233.989 82.4718 235.373 84.9093 236.513 88.3274C236.738 89.0035 236.963 89.5819 237.161 90.0919C237.975 92.1829 238.424 93.3346 236.413 95.1787C234.155 97.2484 230.779 102.816 232.267 104.697C232.724 105.275 233.379 105.6 234.073 105.943C235.799 106.798 237.754 107.767 236.906 112.853C235.789 119.551 235.217 121.066 231.685 121.898C231.072 122.042 230.691 122.263 230.551 122.554C230.312 123.046 230.699 123.868 231.072 124.663C231.418 125.398 231.775 126.158 231.775 126.872C231.775 128.394 231.151 130.483 229.96 131.529C229.361 132.056 228.684 132.272 227.94 132.178C227.214 132.084 226.753 131.87 226.487 131.505C226.117 130.997 226.239 130.339 226.369 129.642C226.597 128.416 226.855 127.026 224.922 125.645C223.306 124.49 221.95 124.165 221.295 124.778C220.748 125.289 220.812 126.409 221.448 127.443C222.982 129.936 224.486 139.921 219.815 142.966C217.435 144.518 213.712 144.711 210.429 144.88C207.561 145.029 204.852 145.168 203.682 146.172C202.363 147.301 202.878 148.555 203.828 150.507C204.42 151.721 205.031 152.977 204.949 154.289C204.863 155.655 203.966 157.025 202.486 158.047C201.115 158.998 199.477 159.502 197.909 159.502ZM188.397 146.184C188.683 146.184 188.94 146.226 189.151 146.332C190.195 146.854 191.016 148.511 191.814 151.706C192.296 153.633 193.298 157.642 196.165 158.524C198.024 159.095 200.29 158.684 202.075 157.451C203.37 156.555 204.154 155.387 204.226 154.244C204.296 153.123 203.727 151.956 203.177 150.825C202.302 149.03 201.398 147.174 203.21 145.62C204.568 144.456 207.267 144.317 210.393 144.155C213.585 143.99 217.202 143.804 219.419 142.358C223.659 139.593 222.23 130.101 220.829 127.824C220 126.476 219.987 125.005 220.799 124.248C221.244 123.831 222.577 123.078 225.345 125.055C227.655 126.706 227.312 128.553 227.085 129.777C226.979 130.338 226.889 130.824 227.075 131.079C227.213 131.267 227.535 131.394 228.034 131.459C228.557 131.53 229.045 131.368 229.481 130.985C230.462 130.122 231.048 128.217 231.048 126.874C231.048 126.321 230.726 125.636 230.414 124.974C229.969 124.024 229.507 123.044 229.896 122.239C230.14 121.734 230.671 121.392 231.519 121.193C234.532 120.483 235.056 119.534 236.189 112.735C236.948 108.181 235.395 107.411 233.751 106.596C233.016 106.231 232.255 105.855 231.698 105.15C229.721 102.653 233.813 96.5773 235.922 94.6436C237.567 93.136 237.272 92.379 236.484 90.3564C236.281 89.8369 236.052 89.2473 235.822 88.5586C234.716 85.2389 233.458 83.027 230.305 81.5432C227.171 80.0682 223.995 80.8201 220.903 80.4335C219.106 80.2085 217.455 78.8757 215.858 77.5862C214.632 76.5962 213.363 75.5717 212.069 75.0867C210.489 74.4952 209.135 76.323 208.05 77.7955C207.36 78.7329 206.903 79.352 206.379 79.3914C206.183 79.4065 206 79.3363 205.852 79.1884C205.344 78.6802 205.318 77.8556 205.287 76.9001C205.25 75.7477 205.208 74.4419 204.315 73.4337C203.312 72.302 199.235 72.032 195.292 71.7707C192.926 71.614 190.479 71.4517 188.357 71.1096C184.778 70.5319 183.619 69.1515 183.278 68.095C182.912 66.9659 183.325 65.625 184.353 64.5961C185.106 63.8435 185.413 63.1618 185.294 62.5114C185.116 61.5451 183.984 60.589 181.93 59.6678C177.953 57.8864 169.342 58.4403 166.023 58.9667C162.629 59.5074 161.667 58.3113 160.966 57.4396C160.47 56.8237 160.172 56.4527 159.179 56.6495C158.023 56.8801 156.608 57.7047 155.24 58.5024C153.201 59.6904 151.275 60.8145 149.714 60.4524C148.762 60.2324 148.074 59.2963 147.507 58.3595C146.299 58.9441 145.055 59.5964 143.725 60.3458C144.177 61.6868 145.237 63.1467 146.807 64.5867C147.731 65.4332 148.453 65.2528 149.543 64.9796C150.841 64.6537 152.46 64.2496 154.915 65.5824C158.198 67.3625 159.207 73.4913 158.65 77.0473C158.338 79.0305 157.582 80.233 156.521 80.4316C155.293 80.6622 154.148 80.342 153.209 79.5086C151.944 78.3857 151.209 76.4326 151.335 74.5334C151.449 72.8359 151.202 71.7588 150.559 71.1435C149.984 70.592 149.058 70.3965 147.744 70.5432C146.543 70.676 145.407 71.7995 144.703 73.5477C143.852 75.66 143.683 78.8287 145.319 80.7925C146.467 82.1698 146.318 83.2908 145.992 83.9882C145.046 86.0071 141.462 87.0961 138.571 87.0961C137.125 87.0961 135.793 86.4771 134.717 85.3053C132.899 83.3246 132.13 80.1365 132.312 78.011C132.61 74.5227 134.352 72.7563 135.889 71.198C136.786 70.2894 137.632 69.4309 138.041 68.3425C138.418 67.3368 138.554 65.7114 138.438 63.6173C119.61 76.5391 108.389 97.8061 108.389 120.636C108.389 128.824 109.818 136.85 112.636 144.505C113.292 143.633 113.653 142.789 113.666 142.087C113.688 140.96 113.362 139.799 113.101 138.865C112.785 137.737 112.557 136.921 112.98 136.456C113.323 136.079 113.903 136.184 114.095 136.219C114.75 136.338 115.161 136.283 115.473 136.034C116.237 135.425 116.623 133.482 116.809 129.332C117.037 124.191 119.694 124.194 123.073 124.222C124.255 124.226 125.598 124.235 127.033 124.042L127.241 124.014C129.715 123.679 131.503 123.438 131.654 123.034C131.78 122.7 130.82 121.603 130.184 120.876C127.457 117.76 125.87 111.609 126.14 105.205C126.388 99.3318 130.179 92.8684 132.787 90.8207C133.441 90.3069 134.003 90.0926 134.456 90.1828C134.957 90.2831 135.302 90.518 135.482 90.8808C135.979 91.8853 135.123 93.6398 133.568 96.8248C133.322 97.3273 133.061 97.8631 132.787 98.432C130.189 103.835 130.691 115.157 134.586 118.167C137.403 120.345 143.443 118.837 146.36 116.843C147.695 115.931 148.333 114.979 148.113 114.231C147.768 113.058 146.97 112.568 145.96 111.947C144.466 111.027 142.606 109.884 142.015 105.939C141.514 102.598 142.719 99.9083 144.169 98.9791C144.743 98.61 145.323 98.5611 145.757 98.8462C146.172 99.1182 146.612 99.7892 146.348 101.441C145.631 105.922 150.091 110.927 153.357 112.272C156.703 113.65 157.708 118.509 156.371 121.933C155.472 124.236 156.935 124.809 158.351 125.364C159.17 125.686 159.878 125.963 160.021 126.594C160.119 127.028 159.913 127.498 159.373 128.075C156.918 130.695 155.247 145.34 157.53 149.334C158.826 151.601 160.7 152.433 161.811 152.064C162.516 151.828 162.848 151.123 162.723 150.13C162.268 146.534 165.097 141.144 169.161 137.86C173.654 134.232 182.408 134.242 186.193 137.881C188.905 140.49 186.657 142.925 185.171 144.535C184.54 145.219 183.825 145.992 183.983 146.308C184.306 146.954 185.575 146.683 186.693 146.444C187.309 146.31 187.899 146.184 188.397 146.184ZM156.847 95.9281C156.071 95.9281 155.317 95.7257 154.738 95.3141C153.858 94.6868 153.568 93.6811 153.943 92.5557C154.879 89.7492 156.058 88.0674 157.422 86.1205C157.65 85.7947 157.885 85.4601 158.126 85.1098C158.999 83.8403 160.53 83.2375 162.124 83.5377C163.622 83.819 164.748 84.8209 165.062 86.1519C165.277 87.0679 165.226 87.7027 164.901 88.1495C164.443 88.7798 163.593 88.8506 162.609 88.9321C162.269 88.9603 161.91 88.9897 161.546 89.0461C160.866 89.1508 160.781 89.9886 160.701 91.3464C160.62 92.7043 160.529 94.2438 159.405 95.1048C158.694 95.6499 157.757 95.9281 156.847 95.9281ZM161.34 84.1925C160.431 84.1925 159.402 84.5377 158.725 85.5221C158.484 85.8743 158.247 86.2108 158.018 86.5385C156.632 88.5167 155.537 90.0794 154.634 92.7863C154.359 93.6109 154.542 94.2808 155.161 94.7225C156.158 95.4325 157.899 95.3441 158.965 94.5283C159.824 93.8697 159.902 92.5651 159.976 91.3038C160.058 89.939 160.142 88.5273 161.436 88.3287C161.818 88.2698 162.194 88.2378 162.55 88.209C163.355 88.1419 164.052 88.0843 164.313 87.7234C164.5 87.4671 164.513 86.9946 164.355 86.3192C164.109 85.2721 163.202 84.4801 161.991 84.2532C161.786 84.2138 161.567 84.1925 161.34 84.1925Z" fill="#212121"/>
<path d="M118.212 139.731C117.306 142.155 117.06 146.609 120.104 148.701C123.148 150.794 121.055 139.57 124.479 138.809C127.903 138.048 125.196 134.572 122.767 134.813C120.456 135.044 118.897 137.901 118.212 139.731Z" fill="#FFF7E4"/>
<path d="M120.606 149.563C120.334 149.563 120.041 149.455 119.727 149.24C116.494 147.017 116.744 142.402 117.701 139.842C118.126 138.705 119.732 134.972 122.56 134.691C124.311 134.509 126.055 135.983 126.267 137.304C126.345 137.792 126.319 138.973 124.387 139.403C122.92 139.728 122.596 142.732 122.335 145.146C122.098 147.333 121.912 149.062 121.011 149.475C120.881 149.534 120.747 149.563 120.606 149.563ZM122.841 135.404C122.771 135.404 122.701 135.407 122.632 135.414C120.717 135.605 119.18 137.958 118.381 140.096C117.538 142.353 117.269 146.667 120.138 148.64C120.311 148.76 120.551 148.887 120.707 148.814C121.233 148.573 121.434 146.711 121.612 145.068C121.913 142.285 122.254 139.132 124.229 138.693C124.901 138.544 125.674 138.201 125.549 137.419C125.399 136.485 124.097 135.404 122.841 135.404Z" fill="#212121"/>
<path d="M179.676 190.501L180.017 189.927C180.379 189.318 180.721 188.719 181.052 188.14C182.858 184.98 184.419 182.251 187.105 181.568C188.55 181.201 190.028 181.035 191.592 180.86C194.803 180.5 198.123 180.128 201.879 177.99C203.012 177.345 204.235 176.524 205.529 175.655C209.359 173.083 213.316 170.423 216.269 171.343C217.518 171.731 218.474 172.748 219.113 174.367C219.349 174.963 219.513 175.586 219.615 176.27L219.647 176.484L219.473 176.615C208.109 185.135 194.579 189.927 180.344 190.475L179.676 190.501ZM215.007 171.887C212.441 171.887 209.008 174.193 205.934 176.258C204.628 177.135 203.395 177.964 202.238 178.622C198.352 180.833 194.803 181.231 191.672 181.582C190.134 181.755 188.681 181.917 187.284 182.272C184.896 182.878 183.479 185.359 181.683 188.501C181.456 188.898 181.222 189.306 180.982 189.72C194.752 189.061 207.831 184.382 218.862 176.164C218.767 175.618 218.627 175.116 218.437 174.634C217.875 173.211 217.095 172.362 216.053 172.037C215.725 171.935 215.374 171.887 215.007 171.887Z" fill="#212121"/>
<path d="M180.085 162.267C173.851 159.993 178.084 172.92 183.778 175.222C188.754 177.233 194.629 176.276 194.439 174.374C194.25 172.471 191.192 174.042 186.863 170.618C182.534 167.193 183.052 163.349 180.085 162.267Z" fill="#FFF7E4"/>
<path d="M189.854 176.342C187.993 176.342 185.862 175.996 183.886 175.197C179.543 173.441 175.891 165.754 177.11 162.583C177.392 161.849 178.201 160.743 180.454 161.564C182.047 162.144 182.718 163.45 183.494 164.962C184.291 166.518 185.196 168.28 187.333 169.97C189.6 171.763 191.463 172.137 192.824 172.41C194.002 172.645 194.932 172.832 195.046 173.975C195.081 174.321 194.99 174.831 194.359 175.304C193.49 175.955 191.821 176.342 189.854 176.342ZM179.023 162C178.113 162 177.88 162.604 177.788 162.844C176.812 165.382 180.026 172.852 184.159 174.523C188.195 176.156 192.566 175.738 193.922 174.722C194.21 174.506 194.345 174.279 194.322 174.048C194.267 173.499 193.942 173.375 192.681 173.123C191.329 172.852 189.286 172.443 186.882 170.542C184.621 168.753 183.637 166.835 182.847 165.295C182.112 163.862 181.531 162.73 180.206 162.247C179.719 162.069 179.332 162 179.023 162Z" fill="#212121"/>
<path d="M211.107 164.283C207.45 161.029 213.749 155.68 217.041 156.015C220.334 156.35 220.005 159.549 217.995 162.73C215.984 165.912 213.15 166.1 211.107 164.283Z" fill="#FFF7E4"/>
<path d="M214.027 165.689C212.955 165.689 211.888 165.257 210.971 164.441V164.442C209.716 163.325 209.412 161.833 210.114 160.238C211.242 157.669 214.809 155.301 217.184 155.541C218.73 155.698 219.402 156.446 219.694 157.046C220.346 158.385 219.877 160.487 218.407 162.812C217.364 164.463 216.041 165.445 214.583 165.65C214.399 165.677 214.213 165.689 214.027 165.689ZM216.825 156.251C214.75 156.251 211.738 158.349 210.778 160.531C210.198 161.851 210.426 162.983 211.453 163.898V163.899C212.366 164.71 213.442 165.079 214.482 164.93C215.722 164.755 216.867 163.889 217.793 162.424C219.105 160.347 219.572 158.456 219.041 157.365C218.734 156.734 218.085 156.363 217.111 156.264C217.018 156.255 216.922 156.251 216.825 156.251Z" fill="#212121"/>
<path d="M232.321 134.156C231.895 132.248 234.769 130.506 236.279 130.47C238.287 130.423 237.542 126.509 238.979 126.66C240.417 126.81 241.316 133.496 238.044 135.59C235.39 137.289 232.957 137.006 232.321 134.156Z" fill="#FFF7E4"/>
<path d="M235.046 136.454C234.618 136.454 234.219 136.38 233.855 136.23C232.91 135.84 232.259 134.961 231.975 133.686C231.819 132.988 232.021 132.256 232.558 131.569C233.506 130.358 235.227 129.582 236.279 129.557C237.026 129.54 237.268 128.785 237.554 127.636C237.785 126.702 238.062 125.64 239.026 125.748C239.636 125.811 240.131 126.519 240.421 127.74C240.916 129.826 240.764 133.736 238.25 135.346C237.107 136.078 236.007 136.454 235.046 136.454ZM232.685 133.527C232.918 134.575 233.405 135.259 234.132 135.558C235.088 135.954 236.412 135.659 237.858 134.734C239.939 133.402 240.196 129.94 239.714 127.907C239.473 126.894 239.119 126.489 238.951 126.471C238.639 126.451 238.471 126.954 238.26 127.81C237.99 128.898 237.654 130.252 236.296 130.284C235.425 130.304 233.91 131.021 233.131 132.017C232.727 132.534 232.576 133.042 232.685 133.527Z" fill="#212121"/>
<path d="M72.0347 92.229L66.4473 106.375L85.5555 130.443L91.143 116.297L72.0347 92.229Z" fill="#FFBE2E"/>
<path d="M73.2254 111.129L70.36 107.52C69.7691 106.776 69.6174 105.346 70.0203 104.326L71.5179 100.535C71.9208 99.515 72.726 99.2913 73.3169 100.035L76.1824 103.644C76.7732 104.388 76.9249 105.818 76.522 106.838L75.0244 110.629C74.6215 111.649 73.8163 111.874 73.2254 111.129Z" fill="#FFBE2E"/>
<path d="M73.4715 110.954L70.6061 107.345C70.0152 106.601 69.8635 105.171 70.2664 104.151L71.764 100.36C72.1669 99.3401 72.9721 99.1164 73.563 99.8602L76.4284 103.469C77.0193 104.213 77.1716 105.643 76.7681 106.663L75.2705 110.454C74.8676 111.474 74.0618 111.698 73.4715 110.954Z" fill="#FFF7E4"/>
<path d="M73.0576 111.251L70.3513 107.843C69.6364 106.941 69.3976 105.338 69.8206 104.268L71.4191 100.221C71.842 99.1503 72.7675 99.013 73.4831 99.9141L76.1888 103.322C76.9044 104.223 77.1425 105.827 76.7195 106.897L75.121 110.944C74.6987 112.014 73.7732 112.152 73.0576 111.251ZM73.3083 100.357C72.7562 99.6616 72.0425 99.7681 71.7161 100.593L70.1176 104.641C69.7918 105.466 69.9754 106.703 70.5274 107.398L73.2331 110.806C73.7851 111.502 74.4994 111.395 74.8253 110.57L76.4237 106.522C76.7496 105.697 76.566 104.46 76.0139 103.765L73.3083 100.357Z" fill="#212121"/>
<path d="M75.0489 106.461C75.1335 106.567 75.2481 106.533 75.2719 106.381C75.4417 105.299 75.1573 103.995 74.5231 103.196C73.889 102.398 73.1051 102.356 72.5919 103.004C72.5199 103.095 72.5399 103.3 72.6245 103.407L75.0489 106.461Z" fill="#FFBE2E"/>
<path d="M74.6342 106.725L72.2105 103.672C72.1215 103.56 72.0613 103.389 72.0507 103.215C72.04 103.046 72.0757 102.897 72.1484 102.805C72.7262 102.074 73.6047 102.162 74.2839 103.017C74.9631 103.873 75.304 105.321 75.1123 106.539C75.0884 106.692 75.0214 106.802 74.9287 106.84C74.8334 106.88 74.7231 106.837 74.6342 106.725ZM72.4085 103.258L74.7964 106.266C74.9305 105.314 74.6555 104.15 74.1084 103.461C73.5696 102.782 72.8759 102.701 72.4085 103.258Z" fill="#212121"/>
<path d="M71.9339 107.739C71.6733 107.41 71.5862 106.825 71.7403 106.435L71.8393 106.185L72.1357 106.559L72.0367 106.809C71.979 106.954 72.0116 107.172 72.1094 107.295C72.2065 107.418 72.3324 107.399 72.3901 107.254L73.3632 104.79L73.6596 105.164L72.6865 107.627C72.5317 108.017 72.1946 108.067 71.9339 107.739Z" fill="#212121"/>
<path d="M109.377 113.49L91.1444 116.297L72.0361 92.2292L90.269 89.4226L109.377 113.49Z" fill="#FFBE2E"/>
<path d="M109.261 113.464L91.0282 116.271L71.9199 92.2029L90.1535 89.3958L109.261 113.464Z" fill="#FFF7E4"/>
<path d="M90.4344 89L71.7535 91.8755L66 106.442L85.3902 130.865L104.072 127.989L109.825 113.423L90.4344 89ZM85.441 129.667L66.8967 106.308L72.1514 93.0052L77.8534 100.187L90.6957 116.363L85.441 129.667ZM78.6474 99.9255L72.7629 92.5134L90.1029 89.8447L108.649 113.205L91.3091 115.874L78.6474 99.9255Z" fill="#212121"/>
<path d="M96.9856 115.087L78.1875 90.8627L83.9366 90.0225L102.938 114.147L96.9856 115.087Z" fill="#FFBE2E"/>
<path d="M97.3554 115.769L77.6719 91.0259L84.3201 90.0541L104.003 114.798L97.3554 115.769ZM79.1356 91.6049L97.6894 114.926L102.54 114.218L83.9868 90.8956L79.1356 91.6049Z" fill="#212121"/>
<path d="M94.0049 122.121L96.7807 115.093L97.6674 114.985L95.2512 121.102L100.122 120.35L102.53 114.253L103.416 114.145L100.691 121.046L94.0049 122.121Z" fill="#FFBE2E"/>
<path d="M83.3468 114.959C82.3792 117.341 80.2659 117.647 78.6272 115.64C76.9885 113.634 76.4454 110.077 77.413 107.694C78.3806 105.312 80.4939 105.007 82.1326 107.013C83.7714 109.019 84.3144 112.576 83.3468 114.959Z" fill="#FFF7E4"/>
<path d="M78.472 115.6C76.7902 113.482 76.2306 109.713 77.2244 107.198C78.2182 104.682 80.3944 104.358 82.0756 106.477C83.7574 108.595 84.3176 112.365 83.3238 114.88C82.3306 117.396 80.1538 117.719 78.472 115.6ZM81.8744 106.987C80.3806 105.106 78.4475 105.394 77.5653 107.627C76.683 109.861 77.1799 113.21 78.6737 115.091C80.1676 116.973 82.1006 116.686 82.9829 114.452C83.8652 112.217 83.3683 108.869 81.8744 106.987Z" fill="#212121"/>
<path d="M78.9264 114.45C77.6838 112.885 77.2696 110.098 78.004 108.24C78.7384 106.381 80.3469 106.142 81.5894 107.707C82.8326 109.273 83.2462 112.06 82.5124 113.918C81.7781 115.777 80.1689 116.015 78.9264 114.45ZM81.3877 108.217C80.3325 106.888 78.9677 107.091 78.3443 108.668C77.7208 110.246 78.0723 112.611 79.1269 113.939C80.1821 115.269 81.5475 115.066 82.1703 113.488C82.7944 111.911 82.4435 109.546 81.3877 108.217Z" fill="#212121"/>
<path d="M228.883 151.676V161.188L247.092 171.7V162.188L228.883 151.676Z" fill="#FFBE2E"/>
<path d="M283.625 141.096L247.092 162.188L228.883 151.676L265.416 130.583L283.625 141.096Z" fill="#FFBE2E"/>
<path d="M283.26 140.928L246.727 162.02L228.518 151.508L265.05 130.415L283.26 140.928Z" fill="#FFF7E4"/>
<path d="M265.416 130.15L228.508 151.459V161.404L247.092 172.134L284 150.825V140.879L265.416 130.15ZM246.717 171.05L229.259 160.97V152.326L246.717 162.405V171.05ZM229.634 151.676L265.417 131.017L282.874 141.096L247.092 161.755L229.634 151.676Z" fill="#212121"/>
<path d="M247.092 171.7L247.172 176.921L229.87 166.932V161.757L247.092 171.7Z" fill="#FFBE2E"/>
<path d="M247.093 171.266L229.495 161.106V167.148L247.173 177.354L282.263 157.095V150.961L247.093 171.266ZM230.246 166.715V162.407L246.72 171.919L246.787 176.265L230.246 166.715Z" fill="#212121"/>
<path d="M246.903 171.851V171L282.074 150.694L282.08 151.558L246.903 171.851Z" fill="#FFBE2E"/>
<path d="M241.634 174.161L240.695 168.28L240.69 158.428L277.408 137.29L277.782 137.941L241.441 158.862V168.221L242.375 174.043L241.634 174.161Z" fill="#212121"/>
<path d="M252.178 158.818L234.54 148.626L234.915 147.976L252.933 158.383L252.178 158.818Z" fill="#212121"/>
<path d="M251.679 174.753L250.813 175.252L252.188 167.986L252.177 158.824L252.932 158.374V168.056L251.679 174.753Z" fill="#FFBE2E"/>
<path d="M252.53 152.522C252.376 152.031 251.966 151.404 250.882 151.205C249.465 150.942 248.141 152.337 247.297 153.519C247.312 153.166 247.312 152.792 247.277 152.42C247.176 151.334 245.638 149.624 244.336 149.467C243.902 149.416 243.113 149.493 242.729 150.607C241.964 152.824 245.139 154.757 246.211 155.336L246.131 155.492L246.611 155.543L246.981 155.721L247.011 155.582C247.524 155.629 248.289 155.684 249.073 155.684C250.223 155.684 251.404 155.565 251.844 155.125C252.405 154.564 252.815 153.437 252.53 152.522ZM243.438 150.852C243.626 150.309 243.908 150.206 244.137 150.206C244.175 150.206 244.211 150.208 244.246 150.213C245.231 150.331 246.463 151.785 246.529 152.489C246.601 153.27 246.512 154.099 246.435 154.607C245.133 153.883 242.938 152.304 243.438 150.852ZM251.313 154.594C250.966 154.942 249.08 154.995 247.325 154.855C248.039 153.656 249.491 151.723 250.746 151.943C251.321 152.049 251.68 152.319 251.812 152.745C252.004 153.36 251.709 154.198 251.313 154.594Z" fill="#212121"/>
<path d="M267.472 140.626L263.514 142.912C262.698 143.383 261.273 143.323 260.331 142.779L256.829 140.758C255.887 140.214 255.785 139.391 256.6 138.92L260.559 136.635C261.375 136.164 262.799 136.223 263.742 136.767L267.243 138.788C268.186 139.332 268.288 140.155 267.472 140.626Z" fill="#FFBE2E"/>
<path d="M267.568 140.808L263.83 142.966C262.841 143.536 261.234 143.537 260.245 142.966L256.508 140.808C255.52 140.237 255.52 139.309 256.508 138.739L260.245 136.58C261.234 136.01 262.841 136.01 263.83 136.58L267.568 138.739C268.556 139.309 268.555 140.238 267.568 140.808ZM256.917 138.975C256.154 139.415 256.154 140.132 256.917 140.572L260.655 142.73C261.417 143.17 262.657 143.17 263.42 142.73L267.157 140.572C267.92 140.132 267.919 139.416 267.157 138.975L263.42 136.817C262.657 136.377 261.417 136.377 260.655 136.817L256.917 138.975Z" fill="#212121"/>
<path d="M263.88 138.511C263.997 138.443 263.979 138.325 263.833 138.28C262.797 137.956 261.476 138.045 260.6 138.551C259.724 139.057 259.569 139.819 260.131 140.418C260.21 140.502 260.413 140.512 260.53 140.444L263.88 138.511Z" fill="#FFF7E4"/>
<path d="M263.357 138.602L260.009 140.535C259.886 140.606 259.709 140.64 259.537 140.626C259.37 140.612 259.229 140.555 259.15 140.47C258.517 139.797 258.73 138.948 259.668 138.406C260.606 137.865 262.077 137.741 263.244 138.107C263.39 138.152 263.489 138.234 263.513 138.33C263.539 138.429 263.48 138.531 263.357 138.602ZM259.631 140.28L262.931 138.376C262.016 138.105 260.834 138.206 260.078 138.642C259.334 139.072 259.154 139.741 259.631 140.28Z" fill="#212121"/>
<path d="M261.479 139.45L263.754 140.763C264.001 140.906 264.001 141.138 263.754 141.282C263.506 141.425 263.105 141.425 262.856 141.282L262.626 141.148L261.479 139.45Z" fill="#FFBE2E"/>
<path d="M263.958 141.4C263.598 141.608 263.012 141.608 262.651 141.4L262.421 141.267L262.831 141.03L263.061 141.164C263.195 141.242 263.415 141.242 263.549 141.164C263.683 141.086 263.683 140.96 263.549 140.883L261.273 139.569L261.683 139.332L263.958 140.646C264.319 140.854 264.319 141.192 263.958 141.4Z" fill="#212121"/>
<path d="M258.762 147.539C257.434 147.539 256.105 147.247 255.094 146.663C254.061 146.067 253.492 145.257 253.492 144.383C253.492 143.508 254.061 142.698 255.094 142.102C257.116 140.935 260.407 140.935 262.43 142.102C263.463 142.698 264.032 143.508 264.032 144.383C264.032 145.257 263.463 146.068 262.43 146.663C261.419 147.247 260.09 147.539 258.762 147.539ZM258.762 141.782C257.536 141.782 256.309 142.051 255.376 142.59C254.525 143.081 254.056 143.718 254.056 144.382C254.056 145.046 254.525 145.683 255.376 146.175C257.243 147.252 260.281 147.252 262.148 146.175C263 145.683 263.468 145.047 263.468 144.383C263.468 143.718 262.999 143.082 262.148 142.59C261.214 142.052 259.988 141.782 258.762 141.782Z" fill="#212121"/>
<path d="M258.763 146.667C257.821 146.667 256.88 146.46 256.163 146.046C255.415 145.615 255.003 145.024 255.003 144.383C255.003 143.741 255.415 143.15 256.163 142.718C257.596 141.89 259.929 141.89 261.364 142.718C262.111 143.15 262.523 143.741 262.523 144.383C262.523 145.024 262.112 145.615 261.364 146.046C260.646 146.46 259.704 146.667 258.763 146.667ZM258.763 142.653C257.923 142.653 257.083 142.838 256.445 143.207C255.878 143.533 255.567 143.951 255.567 144.383C255.567 144.814 255.878 145.232 256.445 145.558C257.722 146.296 259.803 146.296 261.081 145.558C261.647 145.232 261.959 144.814 261.959 144.383C261.959 143.952 261.647 143.534 261.081 143.207C260.442 142.838 259.603 142.653 258.763 142.653Z" fill="#212121"/>
<path d="M129.562 129.811L131.9 142.729L159.211 152.533L156.875 139.615L129.562 129.811Z" fill="#FFBE2E"/>
<path d="M173.514 125.393L156.875 139.615L129.562 129.811L146.202 115.589L173.514 125.393Z" fill="#FFBE2E"/>
<path d="M173.624 125.404L156.985 139.627L129.673 129.823L146.312 115.6L173.624 125.404Z" fill="#FFF7E4"/>
<path d="M146.096 115L129 129.609L131.443 143.116L159.318 153.122L176.414 138.513L173.971 125.006L146.096 115ZM158.542 151.742L132.357 142.342L130.233 130.602L156.419 140.001L158.542 151.742ZM130.583 129.627L146.309 116.177L172.495 125.577L156.769 139.026L130.583 129.627Z" fill="#212121"/>
<path d="M159.211 152.533L160.604 159.604L134.65 150.288L133.379 143.26L159.211 152.533Z" fill="#FFBE2E"/>
<path d="M159.105 151.944L132.71 142.469L134.194 150.674L160.71 160.192L175.595 147.455L174.088 139.124L159.105 151.944ZM135.107 149.901L134.049 144.052L158.76 152.921L159.918 158.807L135.107 149.901Z" fill="#212121"/>
<path d="M158.994 152.784L158.785 151.628L173.767 138.808L173.987 139.98L158.994 152.784Z" fill="#FFBE2E"/>
<path d="M162.954 133.789L136.496 124.28L136.846 123.305L163.872 133.012L162.954 133.789Z" fill="#212121"/>
<path d="M166.193 155.551L165.14 156.442L165.222 146.237L162.955 133.796L163.871 132.999L166.25 146.148L166.193 155.551Z" fill="#FFBE2E"/>
<path d="M161.82 124.795C161.491 124.166 160.781 123.415 159.259 123.412C157.27 123.402 155.815 125.623 154.959 127.435C154.894 126.953 154.801 126.444 154.663 125.946C154.258 124.497 151.75 122.552 149.942 122.659C149.34 122.697 148.288 122.996 148.039 124.603C147.546 127.802 152.332 129.647 153.93 130.171L153.859 130.401L154.524 130.352L155.069 130.502L155.077 130.307C155.785 130.245 156.838 130.133 157.902 129.94C159.464 129.657 161.038 129.205 161.528 128.499C162.153 127.599 162.433 125.968 161.82 124.795ZM149.064 124.762C149.186 123.977 149.543 123.768 149.854 123.712C149.906 123.702 149.956 123.697 150.004 123.694C151.371 123.613 153.403 125.285 153.664 126.224C153.955 127.268 154.037 128.415 154.057 129.124C152.11 128.461 148.741 126.857 149.064 124.762ZM160.677 127.908C160.291 128.466 157.744 129.001 155.326 129.243C156 127.439 157.497 124.457 159.256 124.447C160.063 124.449 160.616 124.727 160.901 125.274C161.313 126.063 161.118 127.273 160.677 127.908Z" fill="#212121"/>
<path d="M156.935 133.681C156.531 133.755 156.08 133.746 155.585 133.613C154.155 133.23 154.346 132.032 154.448 131.388C154.497 131.077 154.554 130.725 154.455 130.594C154.391 130.506 154.204 130.436 153.942 130.401C152.935 130.266 152.14 130.433 151.579 130.895C150.742 131.584 150.66 132.738 150.66 132.749L149.625 132.691C149.629 132.626 149.724 131.087 150.91 130.103C151.703 129.445 152.769 129.201 154.078 129.374C154.647 129.449 155.042 129.646 155.286 129.974C155.646 130.457 155.554 131.039 155.472 131.552C155.343 132.359 155.389 132.488 155.852 132.612C157.426 133.031 158.196 131.607 158.228 131.546L159.149 132.022C158.854 132.595 158.089 133.472 156.935 133.681Z" fill="#212121"/>
<path d="M86.7505 45.8075L84.4189 55.1213L99.6724 69.8791L102.004 60.5653L86.7505 45.8075Z" fill="#FFBE2E"/>
<path d="M117.376 56.0952L102.003 60.5653L86.75 45.8076L102.123 41.3374L117.376 56.0952Z" fill="#FFBE2E"/>
<path d="M116.905 56.1954L101.533 60.6656L86.2793 45.9078L101.652 41.4376L116.905 56.1954Z" fill="#FFF7E4"/>
<path d="M102.231 40.9126L86.4371 45.5031L83.999 55.2411L99.5664 70.3034L115.361 65.7129L117.799 55.9749L102.231 40.9126ZM99.4648 69.1505L84.8406 55.0011L86.9597 46.5364L101.584 60.6857L99.4648 69.1505ZM87.4873 45.9918L102.019 41.7616L116.643 55.911L102.111 60.1412L87.4873 45.9918Z" fill="#212121"/>
<path d="M99.6727 69.8791L98.4715 75.0116L83.9775 60.9882L85.2458 55.9208L99.6727 69.8791Z" fill="#FFBE2E"/>
<path d="M99.7791 69.4549L85.0383 55.1921L83.5576 61.1079L98.3661 75.4358L112.122 71.4274L113.626 65.4202L99.7791 69.4549ZM84.3985 60.8679L85.4543 56.6502L99.2547 70.0019L98.2552 74.2741L84.3985 60.8679Z" fill="#212121"/>
<path d="M99.4521 69.9807L99.6608 69.148L113.507 65.1139L113.301 65.9604L99.4521 69.9807Z" fill="#FFBE2E"/>
<path d="M107.811 58.5123L93.0371 44.2082L93.5641 43.6631L108.656 58.2705L107.811 58.5123Z" fill="#212121"/>
<path d="M103.417 73.9926L102.447 74.2696L105.574 67.4916L107.809 58.5174L108.659 58.2611L106.286 67.7422L103.417 73.9926Z" fill="#FFBE2E"/>
<path d="M109.763 52.1763C109.733 51.6581 109.486 50.9438 108.472 50.4832C107.15 49.8779 105.511 50.9199 104.395 51.8705C104.497 51.529 104.588 51.1618 104.646 50.789C104.813 49.7012 103.726 47.6497 102.49 47.1772C102.077 47.0212 101.285 46.9034 100.636 47.9003C99.3441 49.8835 101.979 52.5548 102.886 53.385L102.77 53.5172L103.228 53.6845L103.546 53.9489L103.61 53.8211C104.101 53.9928 104.836 54.2347 105.603 54.4264C106.73 54.7084 107.915 54.8813 108.454 54.558C109.14 54.1457 109.818 53.1425 109.763 52.1763ZM101.27 48.3133C101.587 47.827 101.889 47.7951 102.113 47.8515C102.151 47.8609 102.186 47.8721 102.218 47.8853C103.154 48.2425 104.004 49.9688 103.896 50.6737C103.775 51.4563 103.485 52.2458 103.285 52.7246C102.186 51.6963 100.424 49.6122 101.27 48.3133ZM108.064 53.907C107.639 54.1626 105.779 53.7522 104.095 53.1851C105.088 52.1863 106.984 50.6493 108.158 51.1725C108.695 51.4168 108.981 51.769 109.006 52.2189C109.043 52.8687 108.548 53.6168 108.064 53.907Z" fill="#212121"/>
<path d="M103.83 56.629C103.539 56.5563 103.24 56.414 102.95 56.1766C102.113 55.4911 102.601 54.7504 102.862 54.3519C102.989 54.1595 103.133 53.9421 103.106 53.8243C103.09 53.7466 102.986 53.6432 102.822 53.5411C102.192 53.1482 101.612 53.0197 101.099 53.1588C100.334 53.3662 99.932 54.1106 99.9282 54.1182L99.2559 53.7685C99.2778 53.7265 99.8048 52.729 100.891 52.4301C101.618 52.2302 102.403 52.3887 103.223 52.8975C103.579 53.1194 103.783 53.3694 103.847 53.6614C103.942 54.0912 103.705 54.4515 103.495 54.7692C103.166 55.2686 103.158 55.3682 103.43 55.5901C104.352 56.3426 105.295 55.6258 105.335 55.5944L105.805 56.1891C105.437 56.4823 104.662 56.8364 103.83 56.629Z" fill="#212121"/>
<path d="M203.244 179.751L182.656 159.132L209.402 151.95L229.99 172.57L203.244 179.751Z" fill="#FFBE2E"/>
<path d="M182.655 159.132L176.285 182.955L196.873 203.575L203.243 179.751L182.655 159.132Z" fill="#FFBE2E"/>
<path d="M202.678 179.924L182.091 159.304L208.836 152.122L229.424 172.743L202.678 179.924Z" fill="#FFF7E4"/>
<path d="M209.583 151.769L209.479 151.664L182.447 158.922L176 183.032L196.798 203.861L223.686 196.641L223.829 196.602L230.276 172.493L209.583 151.769ZM196.741 203.079L176.573 182.878L182.79 159.628L198.014 174.767L202.958 179.829L196.741 203.079ZM183.153 159.264L209.326 152.236L229.494 172.437L203.321 179.465L183.153 159.264Z" fill="#212121"/>
<path d="M216.873 175.958L196.4 155.308L196.867 155.05L217.44 175.805L216.873 175.958Z" fill="#212121"/>
<path d="M210.941 199.891L210.371 200.036L216.823 175.908L217.393 175.759L210.941 199.891Z" fill="#FFBE2E"/>
<path d="M203.561 169.786L198.237 171.216L202.869 175.842L208.192 174.413L203.561 169.786ZM203.165 174.482L200.555 171.875L203.265 171.147L205.874 173.755L203.165 174.482Z" fill="#FFBE2E"/>
<path d="M203.09 174.761L200.071 171.745L203.339 170.868L206.358 173.884L203.09 174.761ZM201.038 172.004L203.239 174.203L205.391 173.626L203.19 171.427L201.038 172.004Z" fill="#212121"/>
<path d="M202.792 176.121L197.752 171.087L203.633 169.507L208.673 174.542L202.792 176.121ZM198.719 171.345L202.941 175.563L207.707 174.283L203.484 170.066L198.719 171.345Z" fill="#212121"/>
<path d="M186.569 193.071L186.07 192.937L192.418 169.199L192.564 169.161L219.627 162.128L219.756 162.627L192.839 169.623L186.569 193.071Z" fill="#212121"/>
<path d="M225.477 166.253C225.417 164.252 224.691 162.832 223.317 162.031C219.321 159.708 210.992 163.31 208.001 164.746C208.62 163.757 209.446 161.902 209.958 158.581C210.512 154.983 208.239 151.634 205.722 150.475C203.749 149.571 201.827 149.969 200.448 151.575C197.082 155.493 204.935 163.798 206.566 165.446C205.756 166.152 205.056 165.886 204.179 165.54C203.505 165.273 202.739 164.968 201.894 165.216C200.003 165.768 198.974 167.511 198.931 167.585L199.377 167.844C199.387 167.828 200.35 166.205 202.039 165.711C202.715 165.515 203.333 165.759 203.989 166.02C204.877 166.371 205.876 166.765 206.939 165.815L207.004 165.878L207.065 165.834C207.077 165.839 207.09 165.843 207.103 165.848C207.275 165.941 207.544 166.085 207.907 166.273C208.476 166.669 209.05 167.326 209.011 168.377C208.969 169.499 209.385 170.486 210.182 171.158C210.558 171.475 210.994 171.699 211.46 171.823C211.979 171.962 212.536 171.977 213.092 171.861L212.985 171.355C212.087 171.546 211.185 171.329 210.514 170.764C209.841 170.196 209.49 169.356 209.525 168.396C209.547 167.803 209.406 167.314 209.181 166.911C211.141 167.865 214.09 169.17 216.949 169.935C219.631 170.652 222.227 170.89 223.837 169.911C224.976 169.219 225.528 167.988 225.477 166.253ZM200.839 151.911C201.876 150.705 203.262 150.269 204.728 150.662C204.985 150.731 205.245 150.825 205.506 150.945C207.85 152.024 209.965 155.146 209.447 158.503C208.755 162.989 207.478 164.704 207.031 165.183C205.731 163.869 197.738 155.522 200.839 151.911ZM223.569 169.47C220.06 171.607 211.015 167.287 208.088 165.782C207.922 165.674 207.761 165.584 207.614 165.513C209.774 164.442 219.013 160.123 223.057 162.477C224.267 163.181 224.907 164.457 224.96 166.268C225.007 167.826 224.552 168.873 223.569 169.47Z" fill="#212121"/>
<path d="M184.527 186.749L180.695 183.669C180.195 182.169 179.526 181.749 179.646 180.854L180.857 176.828C181.183 175.744 181.923 174.482 182.695 175.169L186.527 179.249C187.299 179.935 186.815 180.775 186.695 182.669L185.695 186.669C185.026 186.749 185.3 187.436 184.527 186.749Z" fill="#FFF7E4"/>
<path d="M183.848 186.899L180.675 183.729C179.837 182.891 179.403 181.277 179.71 180.131L180.868 175.798C181.175 174.653 182.106 174.403 182.945 175.241L186.118 178.411C186.957 179.248 187.39 180.862 187.084 182.008L185.925 186.341C185.619 187.487 184.687 187.737 183.848 186.899ZM182.818 175.717C182.171 175.07 181.452 175.263 181.216 176.147L180.057 180.48C179.821 181.363 180.155 182.608 180.802 183.255L183.976 186.425C184.623 187.071 185.342 186.878 185.578 185.995L186.736 181.662C186.973 180.778 186.639 179.534 185.991 178.887L182.818 175.717Z" fill="#212121"/>
<path d="M185.188 182.611L184.396 179.03C184.344 178.793 184.195 178.631 184.075 178.676L182.248 179.369C182.173 179.398 182.179 179.586 182.259 179.674L182.855 180.331C182.938 180.423 182.981 180.6 182.95 180.726L182.373 183.11C182.344 183.231 182.385 183.4 182.466 183.489L183.487 184.616C183.567 184.705 183.656 184.678 183.686 184.558L184.263 182.174C184.293 182.048 184.386 182.02 184.469 182.113L185.065 182.769C185.144 182.856 185.22 182.759 185.188 182.611Z" fill="#FFBE2E"/>
<path d="M183.184 184.606L182.027 183.45C181.841 183.264 181.745 182.905 181.813 182.65L182.466 180.205L181.793 179.538C181.683 179.428 181.607 179.239 181.6 179.057C181.593 178.875 181.656 178.734 181.76 178.699L183.828 177.988C183.94 177.95 184.07 177.995 184.187 178.113L184.187 178.113C184.304 178.23 184.399 178.41 184.447 178.606L185.344 182.28C185.389 182.466 185.366 182.646 185.285 182.74C185.204 182.833 185.08 182.822 184.971 182.713L184.296 182.039L183.647 184.483C183.578 184.736 183.371 184.792 183.184 184.606ZM182.081 179.224L182.595 179.737C182.784 179.927 182.883 180.293 182.814 180.553L182.16 182.998L183.311 184.131L183.952 181.69C184.022 181.431 184.233 181.374 184.424 181.563L184.937 182.076L184.106 178.673C184.094 178.626 184.073 178.6 184.061 178.588C184.048 178.575 184.024 178.557 183.998 178.566L182.081 179.224Z" fill="#212121"/>
<path d="M119.547 159.957L86.7266 140.217L111.846 126.307L144.667 146.046L119.547 159.957Z" fill="#FFBE2E"/>
<path d="M86.726 140.217L86.2686 165.783L119.09 185.523L119.547 159.957L86.726 140.217Z" fill="#FFBE2E"/>
<path d="M119.602 160.131L86.7803 140.391L111.9 126.48L144.721 146.22L119.602 160.131Z" fill="#FFF7E4"/>
<path d="M111.983 126.079L111.851 126L86.4624 140.059L86 165.932L119.085 185.83L144.339 171.844L144.473 171.77L144.936 145.897L111.983 126.079ZM118.832 185.057L86.5376 165.634L86.9838 140.683L102.864 150.234L119.278 160.105L118.832 185.057ZM87.2582 140.227L111.84 126.614L144.135 146.037L119.553 159.65L87.2582 140.227Z" fill="#212121"/>
<path d="M93.5477 168.24L90.3326 166.306C89.6696 165.908 89.1458 164.861 89.1615 163.968L89.221 160.65C89.2373 159.757 89.7868 159.357 90.4498 159.756L93.6649 161.689C94.3272 162.088 94.8517 163.135 94.836 164.028L94.7765 167.346C94.7602 168.238 94.2106 168.638 93.5477 168.24Z" fill="#FFF7E4"/>
<path d="M92.8862 167.444L89.8497 165.618C89.047 165.136 88.4078 163.981 88.4241 163.044L88.4874 159.501C88.5043 158.565 89.1711 158.196 89.9737 158.679L93.0102 160.505C93.8129 160.987 94.4521 162.142 94.4358 163.079L94.3725 166.621C94.3556 167.558 93.6889 167.927 92.8862 167.444ZM89.9675 159.067C89.3484 158.695 88.8339 158.979 88.8208 159.702L88.7575 163.245C88.7443 163.967 89.2375 164.858 89.8572 165.23L92.8937 167.056C93.5128 167.429 94.0272 167.144 94.0398 166.422L94.103 162.879C94.1162 162.157 93.6231 161.267 93.0034 160.894L89.9675 159.067Z" fill="#212121"/>
<path d="M93.0692 163.882C93.1645 163.939 93.2416 163.879 93.2165 163.757C93.0373 162.884 92.4477 161.971 91.7365 161.543C91.0253 161.115 90.4156 161.308 90.2094 161.949C90.1806 162.039 90.2546 162.189 90.3492 162.246L93.0692 163.882Z" fill="#FFBE2E"/>
<path d="M92.7961 163.543L90.0767 161.907C89.977 161.847 89.8824 161.733 89.8248 161.604C89.7684 161.478 89.7527 161.354 89.7822 161.264C90.014 160.541 90.7083 160.357 91.4708 160.816C92.2328 161.274 92.9064 162.281 93.1082 163.265C93.1332 163.387 93.1138 163.491 93.0543 163.547C92.9929 163.605 92.8957 163.603 92.7961 163.543ZM90.1092 161.535L92.7892 163.146C92.6194 162.382 92.0774 161.573 91.4633 161.204C90.8586 160.84 90.3072 160.978 90.1092 161.535Z" fill="#212121"/>
<path d="M91.0251 165.087C90.7325 164.911 90.4987 164.49 90.505 164.149L90.5088 163.931L90.8415 164.131L90.8377 164.35C90.8352 164.477 90.923 164.634 91.032 164.7C91.141 164.766 91.2319 164.716 91.2337 164.588L91.2726 162.432L91.6053 162.632L91.5671 164.788C91.5608 165.129 91.3177 165.263 91.0251 165.087Z" fill="#212121"/>
<path d="M100.652 172.513L97.4371 170.579C96.7748 170.18 96.2503 169.133 96.266 168.24L96.3255 164.923C96.3412 164.03 96.8913 163.629 97.5543 164.028L100.769 165.961C101.432 166.36 101.956 167.407 101.94 168.3L101.881 171.618C101.865 172.511 101.315 172.911 100.652 172.513Z" fill="#FFF7E4"/>
<path d="M99.9907 171.717L96.9541 169.891C96.1515 169.409 95.5123 168.254 95.5286 167.317L95.5919 163.774C95.6088 162.837 96.2755 162.468 97.0782 162.951L100.115 164.777C100.917 165.26 101.557 166.415 101.54 167.351L101.477 170.894C101.46 171.83 100.793 172.2 99.9907 171.717ZM97.072 163.34C96.4529 162.968 95.9384 163.252 95.9253 163.975L95.862 167.517C95.8488 168.239 96.3419 169.13 96.9617 169.503L99.9982 171.329C100.617 171.701 101.132 171.416 101.145 170.694L101.208 167.151C101.221 166.429 100.728 165.538 100.108 165.165L97.072 163.34Z" fill="#212121"/>
<path d="M100.445 168.507L99.0587 165.861C98.9673 165.687 98.8069 165.591 98.7116 165.653L97.2604 166.591C97.2002 166.63 97.2435 166.777 97.3293 166.829L97.9747 167.217C98.065 167.271 98.137 167.401 98.1351 167.506L98.0994 169.505C98.0975 169.606 98.1665 169.731 98.2536 169.784L99.3608 170.45C99.4479 170.502 99.5199 170.462 99.5218 170.361L99.5575 168.362C99.5594 168.257 99.634 168.215 99.7248 168.269L100.37 168.657C100.456 168.709 100.503 168.616 100.445 168.507Z" fill="#FFBE2E"/>
<path d="M99.0453 170.085L97.9381 169.419C97.7595 169.312 97.6173 169.055 97.621 168.846L97.6568 166.847L97.0139 166.464C96.9086 166.401 96.8146 166.27 96.7739 166.132C96.7338 165.994 96.7551 165.875 96.8284 165.827L98.279 164.889C98.3573 164.838 98.4657 164.849 98.5779 164.916C98.6894 164.983 98.7959 165.103 98.8705 165.244L100.258 167.89C100.327 168.024 100.344 168.166 100.3 168.253C100.255 168.341 100.159 168.356 100.054 168.292L99.4081 167.904L99.3749 169.902C99.3724 170.11 99.2239 170.192 99.0453 170.085ZM97.1749 166.169L97.6662 166.465C97.8479 166.574 97.9933 166.836 97.9895 167.049L97.9538 169.047L99.0522 169.697L99.0792 167.703C99.0829 167.491 99.2339 167.407 99.4163 167.517L99.9075 167.812L98.623 165.361C98.6048 165.327 98.5835 165.311 98.5722 165.304C98.5603 165.297 98.5384 165.287 98.5196 165.299L97.1749 166.169Z" fill="#212121"/>
<path d="M109.284 135.091L104.266 137.87L110.103 141.381L115.121 138.602L109.284 135.091ZM110.062 139.933L106.771 137.954L109.325 136.54L112.616 138.518L110.062 139.933Z" fill="#FFBE2E"/>
<path d="M110.056 140.233L106.251 137.945L109.331 136.239L113.137 138.528L110.056 140.233ZM107.292 137.963L110.067 139.632L112.095 138.508L109.321 136.84L107.292 137.963Z" fill="#212121"/>
<path d="M110.099 141.682L103.746 137.861L109.29 134.791L115.643 138.611L110.099 141.682ZM104.788 137.879L110.109 141.08L114.601 138.592L109.279 135.392L104.788 137.879Z" fill="#212121"/>
<path d="M101.051 141.621C99.8252 141.6 98.604 141.308 97.6804 140.752C96.7367 140.185 96.2248 139.428 96.2386 138.621C96.253 137.814 96.7919 137.075 97.7549 136.542C99.6416 135.498 102.679 135.552 104.527 136.663C105.471 137.231 105.983 137.988 105.968 138.795C105.954 139.602 105.416 140.34 104.452 140.873C103.51 141.396 102.278 141.643 101.051 141.621ZM101.147 136.307C100.014 136.287 98.8784 136.515 98.0075 136.997C97.2136 137.436 96.7706 138.017 96.7593 138.629C96.748 139.243 97.1703 139.838 97.9486 140.306C99.6542 141.331 102.459 141.381 104.2 140.417C104.994 139.977 105.437 139.398 105.448 138.785C105.459 138.171 105.037 137.576 104.26 137.108C103.406 136.596 102.278 136.327 101.147 136.307Z" fill="#212121"/>
<path d="M101.065 140.817C100.196 140.801 99.3302 140.595 98.6754 140.201C97.9924 139.79 97.6214 139.238 97.6321 138.646C97.6427 138.054 98.0325 137.515 98.7305 137.129C100.067 136.388 102.221 136.426 103.532 137.215C104.215 137.626 104.585 138.178 104.575 138.77C104.564 139.361 104.174 139.9 103.476 140.287C102.807 140.657 101.934 140.833 101.065 140.817ZM101.132 137.111C100.357 137.097 99.5789 137.254 98.9824 137.584C98.4542 137.876 98.1597 138.257 98.1528 138.655C98.1459 139.053 98.4266 139.444 98.9436 139.755C100.111 140.458 102.031 140.491 103.224 139.831C103.752 139.539 104.047 139.158 104.053 138.76C104.06 138.362 103.78 137.971 103.263 137.66C102.679 137.309 101.907 137.125 101.132 137.111Z" fill="#212121"/>
<path d="M131.995 138.739L107.405 152.278L100.565 148.164L125.155 134.626L131.995 138.739Z" fill="#FFBE2E"/>
<path d="M107.435 152.929L100.068 148.498L125.722 134.371L133.089 138.802L107.435 152.929ZM101.135 148.518L107.448 152.315L132.023 138.782L125.71 134.985L101.135 148.518Z" fill="#212121"/>
<path d="M102.161 149.824L101.979 159.981L108.816 164.264L109.001 153.938L102.161 149.824Z" fill="#FFBE2E"/>
<path d="M107.516 163.423L100.152 158.811L100.345 148.042L107.711 152.473L107.516 163.423ZM100.69 158.519L107.001 162.472L107.174 152.771L100.86 148.973L100.69 158.519Z" fill="#212121"/>
<path d="M112.275 174.073L105.508 170.003L105.696 159.481L112.463 163.552L112.275 174.073Z" fill="#FFBE2E"/>
<path d="M112.48 174.443L105.294 170.121L105.491 159.111L112.677 163.433L112.48 174.443ZM105.721 169.884L112.071 173.703L112.25 163.67L105.901 159.852L105.721 169.884Z" fill="#212121"/>
<path d="M111.601 172.682L107.15 170.006L107.284 162.486L111.735 165.163L111.601 172.682Z" fill="#FFF7E4"/>
<path d="M111.349 172.245L106.48 169.318L106.623 161.309L111.492 164.237L111.349 172.245ZM106.908 169.081L110.939 171.505L111.065 164.474L107.034 162.049L106.908 169.081Z" fill="#212121"/>
<path d="M112.568 176.052C110.78 174.977 109.356 172.405 109.393 170.318C109.431 168.232 110.915 167.41 112.704 168.485C114.492 169.56 115.916 172.132 115.879 174.219C115.842 176.305 114.357 177.127 112.568 176.052ZM112.696 168.908C111.108 167.953 109.789 168.684 109.756 170.536C109.723 172.389 110.988 174.674 112.576 175.629C114.164 176.584 115.483 175.854 115.516 174.001C115.55 172.148 114.285 169.863 112.696 168.908Z" fill="#212121"/>
<path d="M112.584 175.097C111.263 174.303 110.21 172.401 110.238 170.86C110.265 169.318 111.363 168.71 112.685 169.505C114.006 170.3 115.06 172.201 115.032 173.743C115.004 175.285 113.907 175.893 112.584 175.097ZM112.677 169.928C111.556 169.254 110.624 169.769 110.601 171.078C110.577 172.386 111.471 174 112.593 174.674C113.715 175.349 114.646 174.834 114.67 173.525C114.692 172.216 113.799 170.603 112.677 169.928Z" fill="#212121"/>
<path d="M132.315 152.733L99.6016 132.935L100.007 132.559L132.847 152.438L132.315 152.733Z" fill="#212121"/>
<path d="M132.326 178.3L131.788 178.588L132.251 152.695L132.788 152.403L132.326 178.3Z" fill="#FFBE2E"/>
</g>
<defs>
<linearGradient id="paint0_linear_7714_145033" x1="43.8559" y1="119.146" x2="288.099" y2="203.703" gradientUnits="userSpaceOnUse">
<stop stop-color="#FFBE2E" stop-opacity="0.75"/>
<stop offset="0.72593" stop-color="#FFF7E4" stop-opacity="0.5"/>
<stop offset="1" stop-color="#FFF7E4" stop-opacity="0"/>
</linearGradient>
<clipPath id="clip0_7714_145033">
<rect width="350" height="238" rx="12" fill="white"/>
</clipPath>
</defs>
</svg>
