<svg width="400" height="207" viewBox="0 0 400 207" fill="none" xmlns="http://www.w3.org/2000/svg">
<path opacity="0.21" d="M188.171 91.8691C187.57 91.5222 187.569 90.6545 188.169 90.3053L228.309 66.9813C229.141 66.4978 230.176 66.4964 231.009 66.9777L274.298 91.9712C274.9 92.3186 274.901 93.1863 274.3 93.5355L234.162 116.86C233.33 117.344 232.295 117.345 231.462 116.864L188.171 91.8691Z" fill="black"/>
<path d="M232.955 66.8344L273.07 43.5225L272.933 92.2488L232.818 115.563L232.955 66.8344Z" fill="#FFBE2E"/>
<path d="M242.288 95.4352C244.569 94.1181 246.424 95.1711 246.432 97.7914L242.656 99.9713L242.669 105.294C242.672 106.172 242.051 107.248 241.286 107.69C240.522 108.131 239.897 107.776 239.894 106.897V106.727C239.892 106.504 240.052 106.229 240.246 106.117C240.445 106.002 240.601 106.096 240.601 106.32L240.603 106.487C240.604 106.921 240.912 107.091 241.284 106.877C241.658 106.66 241.963 106.136 241.961 105.703L241.947 100.381L238.169 102.561C238.162 99.9399 240.008 96.7505 242.288 95.4352Z" fill="#11303F"/>
<path d="M256.315 86.2993L256.326 89.692C256.332 91.4214 255.202 93.5032 253.739 94.5481L253.751 98.645L255.375 97.7053C255.569 97.5947 255.731 97.686 255.731 97.9085C255.731 98.1373 255.571 98.4081 255.378 98.5201L251.423 100.804C251.227 100.916 251.066 100.829 251.066 100.602C251.066 100.381 251.225 100.103 251.418 99.9908L253.044 99.0546L253.032 94.9564C251.567 95.6015 250.43 94.8293 250.426 93.0976L250.416 89.7076L256.315 86.2993Z" fill="#11303F"/>
<path d="M268.084 79.5571L270.049 80.3831L269.025 80.9741L269.05 89.9311L269.72 89.5448C269.915 89.4346 270.075 89.5188 270.076 89.7458C270.076 89.9701 269.918 90.2468 269.722 90.3587L261.561 95.0716C261.367 95.1822 261.207 95.0908 261.205 94.8688C261.204 94.6414 261.364 94.37 261.558 94.2577L262.211 93.8812L262.184 84.9259L261.178 85.5057L263.132 82.4152L265.091 83.2457L264.067 83.8376L264.094 92.7933L267.162 91.0226L267.135 82.0656L266.136 82.6431L268.084 79.5571Z" fill="#11303F"/>
<path d="M189.882 41.9654L230 18.6548L273.07 43.5225L232.955 66.8345L189.882 41.9654Z" fill="#FFF7E4"/>
<path d="M232.949 66.8344L232.812 115.562L189.739 90.6961L189.876 41.9653L232.949 66.8344Z" fill="#212121"/>
<path d="M226.77 96.1429L226.742 105.37L225.657 104.744L225.682 95.5161L226.77 96.1429Z" fill="#2B3C4D"/>
<path d="M222.812 93.8601L222.785 103.088L222.437 102.885L222.463 93.6577L222.812 93.8601Z" fill="#2B3C4D"/>
<path d="M221.652 93.1863L221.624 102.414L220.927 102.013L220.954 92.7852L221.652 93.1863Z" fill="#2B3C4D"/>
<path d="M219.656 92.0412L219.629 101.266L218.637 100.694L218.664 91.4668L219.656 92.0412Z" fill="#2B3C4D"/>
<path d="M216.871 90.4286L216.844 99.6547L216.131 99.2442L216.157 90.0181L216.871 90.4286Z" fill="#2B3C4D"/>
<path d="M215.355 89.5543L215.332 98.7831L214.966 98.5722L214.993 89.3447L215.355 89.5543Z" fill="#2B3C4D"/>
<path d="M214.422 89.0164L214.397 98.242L213.677 97.8266L213.705 88.5991L214.422 89.0164Z" fill="#2B3C4D"/>
<path d="M227.672 96.6647L227.647 105.89L227.192 105.629L227.217 96.4028L227.672 96.6647Z" fill="#2B3C4D"/>
<path d="M228.598 97.2027L228.573 106.431L228.117 106.167L228.141 96.9395L228.598 97.2027Z" fill="#2B3C4D"/>
<path d="M212.219 87.7425L212.192 96.9682L211.948 96.8267L211.973 87.6011L212.219 87.7425Z" fill="#2B3C4D"/>
<path d="M210.731 97.938L229.817 108.958L229.852 96.9213L210.764 85.8999L210.731 97.938ZM224.643 104.162L223.364 103.423L223.39 94.1962L224.67 94.9335L224.643 104.162ZM226.738 105.371L225.653 104.745L225.678 95.5164L226.766 96.1436L226.738 105.371ZM219.63 101.266L218.638 100.694L218.665 91.467L219.658 92.0418L219.63 101.266ZM214.39 98.242L213.67 97.8265L213.699 88.5995L214.416 89.0163L214.39 98.242ZM216.839 99.6545L216.126 99.2439L216.152 90.0183L216.867 90.4288L216.839 99.6545ZM221.617 102.414L220.92 102.012L220.947 92.785L221.645 93.1861L221.617 102.414ZM228.572 106.43L228.116 106.166L228.14 96.9387L228.597 97.202L228.572 106.43ZM227.64 105.89L227.185 105.629L227.211 96.4028L227.665 96.6648L227.64 105.89ZM215.327 98.7828L214.963 98.5719L214.989 89.3445L215.352 89.554L215.327 98.7828ZM222.781 103.088L222.433 102.884L222.459 93.6576L222.809 93.8599L222.781 103.088ZM212.186 96.9683L211.942 96.8268L211.967 87.6012L212.213 87.7426L212.186 96.9683ZM213.088 97.4903L212.872 97.3627L212.897 88.137L213.115 88.2637L213.088 97.4903Z" fill="#E4E8E9"/>
<path d="M213.117 88.2639L213.089 97.4905L212.874 97.3633L212.899 88.1372L213.117 88.2639Z" fill="#2B3C4D"/>
<path d="M224.672 94.9336L224.645 104.162L223.366 103.423L223.392 94.1963L224.672 94.9336Z" fill="#2B3C4D"/>
<path d="M210.841 54.0607L250.957 30.7487L250.675 30.5942L210.562 53.9053L210.841 54.0607Z" fill="#6F6F6F"/>
<path opacity="0.21" d="M104.689 100.769C104.088 100.422 104.086 99.5539 104.687 99.2047L144.827 75.8807C145.659 75.3972 146.693 75.3958 147.526 75.8771L190.815 100.871C191.417 101.218 191.419 102.086 190.817 102.435L150.679 125.76C149.847 126.243 148.813 126.245 147.98 125.763L104.689 100.769Z" fill="black"/>
<path d="M149.465 75.7338L189.58 52.4219L189.443 101.148L149.327 124.462L149.465 75.7338Z" fill="#FFBE2E"/>
<path d="M158.801 104.335C161.082 103.017 162.938 104.07 162.945 106.691L159.169 108.871L159.183 114.193C159.186 115.071 158.565 116.148 157.799 116.59C157.035 117.03 156.411 116.675 156.408 115.796V115.627C156.406 115.403 156.566 115.129 156.76 115.017C156.959 114.901 157.115 114.995 157.115 115.219L157.116 115.386C157.117 115.82 157.426 115.991 157.797 115.776C158.172 115.56 158.476 115.035 158.475 114.602L158.46 109.28L154.682 111.46C154.676 108.839 156.521 105.65 158.801 104.335Z" fill="#11303F"/>
<path d="M172.825 95.1992L172.836 98.5919C172.841 100.321 171.711 102.403 170.249 103.448L170.261 107.545L171.885 106.605C172.078 106.495 172.24 106.586 172.24 106.808C172.24 107.037 172.081 107.308 171.888 107.42L167.933 109.704C167.737 109.816 167.576 109.729 167.576 109.502C167.576 109.281 167.734 109.003 167.928 108.891L169.553 107.955L169.541 103.856C168.077 104.501 166.94 103.729 166.936 101.997L166.926 98.6075L172.825 95.1992Z" fill="#11303F"/>
<path d="M184.598 88.457L186.563 89.283L185.538 89.874L185.564 98.831L186.234 98.4447C186.429 98.3345 186.589 98.4187 186.59 98.6457C186.59 98.87 186.432 99.1467 186.235 99.2586L178.075 103.971C177.881 104.082 177.721 103.991 177.719 103.769C177.717 103.541 177.878 103.27 178.072 103.158L178.725 102.781L178.698 93.8258L177.692 94.4056L179.645 91.3151L181.604 92.1456L180.581 92.7375L180.608 101.693L183.676 99.9225L183.649 90.9655L182.65 91.543L184.598 88.457Z" fill="#11303F"/>
<path d="M106.392 50.8653L146.51 27.5547L189.58 52.4224L149.465 75.7344L106.392 50.8653Z" fill="#FFF7E4"/>
<path d="M149.461 75.7343L149.324 124.462L106.251 99.596L106.388 50.8652L149.461 75.7343Z" fill="#212121"/>
<path d="M143.279 105.043L143.252 114.27L142.167 113.644L142.192 104.416L143.279 105.043Z" fill="#2B3C4D"/>
<path d="M139.318 102.76L139.291 111.988L138.943 111.785L138.969 102.558L139.318 102.76Z" fill="#2B3C4D"/>
<path d="M138.158 102.086L138.13 111.313L137.433 110.912L137.46 101.685L138.158 102.086Z" fill="#2B3C4D"/>
<path d="M136.17 100.941L136.143 110.166L135.151 109.594L135.178 100.367L136.17 100.941Z" fill="#2B3C4D"/>
<path d="M133.377 99.328L133.35 108.554L132.637 108.144L132.662 98.9175L133.377 99.328Z" fill="#2B3C4D"/>
<path d="M131.861 98.4542L131.838 107.683L131.472 107.472L131.499 98.2446L131.861 98.4542Z" fill="#2B3C4D"/>
<path d="M130.928 97.9163L130.903 107.142L130.183 106.726L130.211 97.499L130.928 97.9163Z" fill="#2B3C4D"/>
<path d="M144.178 105.565L144.153 114.79L143.698 114.528L143.723 105.303L144.178 105.565Z" fill="#2B3C4D"/>
<path d="M145.111 106.102L145.087 115.33L144.631 115.066L144.655 105.839L145.111 106.102Z" fill="#2B3C4D"/>
<path d="M128.723 96.6424L128.696 105.868L128.452 105.727L128.477 96.501L128.723 96.6424Z" fill="#2B3C4D"/>
<path d="M127.235 106.838L146.321 117.857L146.355 105.821L127.268 94.7998L127.235 106.838ZM141.147 113.062L139.868 112.323L139.894 103.096L141.174 103.833L141.147 113.062ZM143.242 114.271L142.157 113.645L142.182 104.416L143.269 105.044L143.242 114.271ZM136.134 110.166L135.142 109.594L135.169 100.367L136.161 100.942L136.134 110.166ZM130.894 107.142L130.174 106.726L130.203 97.4994L130.92 97.9162L130.894 107.142ZM133.343 108.554L132.63 108.144L132.656 98.9182L133.371 99.3287L133.343 108.554ZM138.121 111.314L137.423 110.912L137.451 101.685L138.149 102.086L138.121 111.314ZM145.076 115.33L144.62 115.066L144.644 105.839L145.101 106.102L145.076 115.33ZM144.144 114.79L143.689 114.528L143.715 105.303L144.169 105.565L144.144 114.79ZM131.831 107.683L131.466 107.472L131.493 98.2444L131.855 98.4539L131.831 107.683ZM139.285 111.988L138.937 111.784L138.963 102.557L139.313 102.76L139.285 111.988ZM128.69 105.868L128.446 105.727L128.471 96.5011L128.717 96.6425L128.69 105.868ZM129.591 106.39L129.376 106.263L129.401 97.0369L129.619 97.1636L129.591 106.39Z" fill="#E4E8E9"/>
<path d="M129.621 97.1633L129.593 106.39L129.378 106.263L129.403 97.0366L129.621 97.1633Z" fill="#2B3C4D"/>
<path d="M141.184 103.833L141.157 113.061L139.878 112.323L139.904 103.096L141.184 103.833Z" fill="#2B3C4D"/>
<path d="M127.361 62.9606L167.477 39.6486L167.195 39.4941L127.081 62.8052L127.361 62.9606Z" fill="#6F6F6F"/>
<path opacity="0.21" d="M157.593 146.231C156.992 145.884 156.991 145.017 157.591 144.668L197.731 121.344C198.563 120.86 199.598 120.859 200.43 121.34L243.719 146.333C244.322 146.681 244.323 147.549 243.722 147.898L203.584 171.223C202.752 171.706 201.717 171.708 200.884 171.226L157.593 146.231Z" fill="black"/>
<path d="M202.377 121.197L242.492 97.8853L242.355 146.612L202.239 169.925L202.377 121.197Z" fill="#FFBE2E"/>
<path d="M211.71 149.798C213.991 148.481 215.846 149.534 215.854 152.154L212.078 154.334L212.091 159.657C212.094 160.535 211.473 161.611 210.708 162.053C209.943 162.493 209.319 162.139 209.316 161.259V161.09C209.314 160.867 209.474 160.592 209.668 160.48C209.867 160.365 210.023 160.459 210.023 160.683L210.025 160.849C210.025 161.284 210.334 161.454 210.705 161.239C211.08 161.023 211.385 160.499 211.383 160.065L211.368 154.744L207.59 156.924C207.584 154.303 209.43 151.113 211.71 149.798Z" fill="#11303F"/>
<path d="M225.733 140.662L225.744 144.055C225.749 145.784 224.62 147.866 223.157 148.911L223.169 153.008L224.793 152.068C224.987 151.957 225.149 152.049 225.149 152.271C225.149 152.5 224.989 152.771 224.796 152.883L220.841 155.167C220.645 155.279 220.484 155.192 220.484 154.965C220.484 154.743 220.643 154.465 220.836 154.354L222.462 153.417L222.45 149.319C220.985 149.964 219.848 149.192 219.844 147.46L219.834 144.07L225.733 140.662Z" fill="#11303F"/>
<path d="M237.506 133.92L239.471 134.746L238.446 135.337L238.472 144.294L239.142 143.908C239.337 143.797 239.497 143.882 239.498 144.109C239.498 144.333 239.34 144.61 239.143 144.721L230.983 149.434C230.789 149.545 230.629 149.454 230.627 149.232C230.626 149.004 230.786 148.733 230.98 148.62L231.633 148.244L231.606 139.289L230.6 139.868L232.553 136.778L234.512 137.608L233.489 138.2L233.516 147.156L236.584 145.385L236.557 136.428L235.558 137.006L237.506 133.92Z" fill="#11303F"/>
<path d="M159.304 96.3282L199.422 73.0176L242.492 97.8853L202.377 121.197L159.304 96.3282Z" fill="#FFF7E4"/>
<path d="M202.371 121.197L202.234 169.925L159.161 145.059L159.298 96.3281L202.371 121.197Z" fill="#212121"/>
<path d="M196.191 150.506L196.164 159.733L195.079 159.107L195.104 149.879L196.191 150.506Z" fill="#2B3C4D"/>
<path d="M192.234 148.223L192.207 157.451L191.859 157.248L191.885 148.021L192.234 148.223Z" fill="#2B3C4D"/>
<path d="M191.074 147.549L191.046 156.776L190.349 156.375L190.376 147.147L191.074 147.549Z" fill="#2B3C4D"/>
<path d="M189.078 146.404L189.051 155.629L188.059 155.057L188.086 145.83L189.078 146.404Z" fill="#2B3C4D"/>
<path d="M186.293 144.791L186.266 154.017L185.553 153.606L185.578 144.38L186.293 144.791Z" fill="#2B3C4D"/>
<path d="M184.777 143.917L184.754 153.146L184.388 152.935L184.415 143.708L184.777 143.917Z" fill="#2B3C4D"/>
<path d="M183.844 143.379L183.819 152.605L183.099 152.189L183.127 142.962L183.844 143.379Z" fill="#2B3C4D"/>
<path d="M197.094 151.028L197.069 160.253L196.614 159.991L196.639 150.766L197.094 151.028Z" fill="#2B3C4D"/>
<path d="M198.02 151.565L197.995 160.793L197.539 160.529L197.563 151.302L198.02 151.565Z" fill="#2B3C4D"/>
<path d="M181.641 142.105L181.614 151.331L181.37 151.19L181.395 141.964L181.641 142.105Z" fill="#2B3C4D"/>
<path d="M180.153 152.301L199.239 163.32L199.273 151.284L180.186 140.263L180.153 152.301ZM194.065 158.525L192.786 157.786L192.812 148.559L194.092 149.296L194.065 158.525ZM196.16 159.733L195.075 159.108L195.1 149.879L196.187 150.506L196.16 159.733ZM189.052 155.629L188.06 155.057L188.087 145.83L189.079 146.405L189.052 155.629ZM183.812 152.605L183.092 152.189L183.121 142.962L183.838 143.379L183.812 152.605ZM186.261 154.017L185.548 153.607L185.574 144.381L186.288 144.792L186.261 154.017ZM191.039 156.776L190.341 156.375L190.369 147.148L191.067 147.549L191.039 156.776ZM197.994 160.793L197.538 160.529L197.562 151.302L198.019 151.565L197.994 160.793ZM197.062 160.253L196.607 159.991L196.632 150.766L197.087 151.028L197.062 160.253ZM184.749 153.146L184.384 152.935L184.411 143.707L184.773 143.917L184.749 153.146ZM192.203 157.451L191.855 157.247L191.881 148.02L192.231 148.223L192.203 157.451ZM181.608 151.331L181.364 151.19L181.389 141.964L181.635 142.105L181.608 151.331ZM182.509 151.853L182.294 151.726L182.319 142.5L182.537 142.627L182.509 151.853Z" fill="#E4E8E9"/>
<path d="M182.539 142.626L182.511 151.853L182.296 151.726L182.321 142.5L182.539 142.626Z" fill="#2B3C4D"/>
<path d="M194.094 149.296L194.067 158.525L192.788 157.786L192.814 148.559L194.094 149.296Z" fill="#2B3C4D"/>
<path d="M180.263 108.423L220.379 85.1115L220.097 84.957L179.984 108.268L180.263 108.423Z" fill="#6F6F6F"/>
<path opacity="0.21" d="M81.89 160.321C81.2887 159.974 81.2874 159.107 81.8877 158.757L122.028 135.433C122.86 134.95 123.895 134.949 124.727 135.43L168.016 160.423C168.619 160.771 168.62 161.638 168.019 161.988L127.88 185.313C127.049 185.796 126.014 185.797 125.181 185.316L81.89 160.321Z" fill="black"/>
<path d="M126.682 135.287L166.797 111.975L166.66 160.701L126.544 184.015L126.682 135.287Z" fill="#FFBE2E"/>
<path d="M136.018 163.887C138.299 162.57 140.155 163.623 140.162 166.244L136.386 168.423L136.4 173.746C136.402 174.624 135.781 175.7 135.016 176.143C134.252 176.583 133.628 176.228 133.625 175.349V175.18C133.623 174.956 133.783 174.681 133.977 174.569C134.176 174.454 134.331 174.548 134.331 174.772L134.333 174.939C134.334 175.373 134.643 175.544 135.014 175.329C135.388 175.112 135.693 174.588 135.692 174.155L135.677 168.833L131.899 171.013C131.893 168.392 133.738 165.203 136.018 163.887Z" fill="#11303F"/>
<path d="M150.038 154.752L150.049 158.145C150.054 159.874 148.924 161.956 147.462 163.001L147.474 167.098L149.097 166.158C149.291 166.047 149.453 166.139 149.453 166.361C149.453 166.59 149.294 166.861 149.101 166.973L145.146 169.256C144.95 169.369 144.789 169.281 144.789 169.055C144.789 168.833 144.947 168.555 145.141 168.443L146.766 167.507L146.754 163.409C145.29 164.054 144.153 163.282 144.149 161.55L144.139 158.16L150.038 154.752Z" fill="#11303F"/>
<path d="M161.814 148.009L163.78 148.835L162.755 149.426L162.781 158.383L163.451 157.997C163.645 157.887 163.806 157.971 163.807 158.198C163.807 158.422 163.649 158.699 163.452 158.811L155.291 163.524C155.098 163.634 154.937 163.543 154.936 163.321C154.934 163.094 155.095 162.822 155.289 162.71L155.942 162.333L155.915 153.378L154.909 153.958L156.862 150.867L158.821 151.698L157.798 152.29L157.825 161.245L160.893 159.475L160.866 150.518L159.866 151.095L161.814 148.009Z" fill="#11303F"/>
<path d="M83.6087 110.418L123.726 87.1074L166.797 111.975L126.682 135.287L83.6087 110.418Z" fill="#FFF7E4"/>
<path d="M126.676 135.287L126.538 184.015L83.466 159.149L83.603 110.418L126.676 135.287Z" fill="#212121"/>
<path d="M120.496 164.596L120.469 173.823L119.384 173.197L119.409 163.969L120.496 164.596Z" fill="#2B3C4D"/>
<path d="M116.535 162.313L116.508 171.541L116.16 171.337L116.186 162.11L116.535 162.313Z" fill="#2B3C4D"/>
<path d="M115.375 161.638L115.347 170.866L114.65 170.465L114.677 161.237L115.375 161.638Z" fill="#2B3C4D"/>
<path d="M113.383 160.494L113.356 169.719L112.363 169.147L112.391 159.919L113.383 160.494Z" fill="#2B3C4D"/>
<path d="M110.594 158.881L110.566 168.107L109.854 167.696L109.879 158.47L110.594 158.881Z" fill="#2B3C4D"/>
<path d="M109.082 158.007L109.058 167.236L108.693 167.025L108.72 157.797L109.082 158.007Z" fill="#2B3C4D"/>
<path d="M108.145 157.469L108.119 166.695L107.4 166.279L107.428 157.052L108.145 157.469Z" fill="#2B3C4D"/>
<path d="M121.395 165.117L121.37 174.343L120.915 174.081L120.94 164.855L121.395 165.117Z" fill="#2B3C4D"/>
<path d="M122.324 165.655L122.3 174.883L121.844 174.619L121.868 165.392L122.324 165.655Z" fill="#2B3C4D"/>
<path d="M105.939 156.195L105.913 165.421L105.669 165.279L105.694 156.054L105.939 156.195Z" fill="#2B3C4D"/>
<path d="M104.452 166.391L123.538 177.41L123.572 165.374L104.485 154.353L104.452 166.391ZM118.364 172.615L117.085 171.876L117.111 162.649L118.391 163.386L118.364 172.615ZM120.459 173.823L119.374 173.197L119.398 163.969L120.486 164.596L120.459 173.823ZM113.351 169.719L112.358 169.147L112.386 159.92L113.378 160.494L113.351 169.719ZM108.111 166.695L107.391 166.279L107.419 157.052L108.137 157.469L108.111 166.695ZM110.56 168.107L109.847 167.697L109.873 158.471L110.587 158.881L110.56 168.107ZM115.338 170.866L114.64 170.465L114.668 161.238L115.366 161.639L115.338 170.866ZM122.293 174.883L121.837 174.619L121.861 165.391L122.317 165.655L122.293 174.883ZM121.361 174.343L120.906 174.081L120.931 164.855L121.386 165.117L121.361 174.343ZM109.048 167.235L108.683 167.025L108.71 157.797L109.072 158.007L109.048 167.235ZM116.502 171.54L116.153 171.337L116.18 162.11L116.53 162.313L116.502 171.54ZM105.907 165.421L105.663 165.279L105.688 156.054L105.933 156.195L105.907 165.421ZM106.808 165.943L106.593 165.815L106.618 156.59L106.836 156.716L106.808 165.943Z" fill="#E4E8E9"/>
<path d="M106.842 156.716L106.814 165.943L106.598 165.815L106.624 156.589L106.842 156.716Z" fill="#2B3C4D"/>
<path d="M118.396 163.386L118.37 172.614L117.091 171.875L117.117 162.648L118.396 163.386Z" fill="#2B3C4D"/>
<path d="M104.562 122.513L144.678 99.2013L144.396 99.0469L104.283 122.358L104.562 122.513Z" fill="#6F6F6F"/>
<path opacity="0.21" d="M145.625 78.2164C145.023 77.8689 145.022 77.0013 145.622 76.6521L185.763 53.3276C186.594 52.8445 187.629 52.8432 188.462 53.324L231.751 78.318C232.353 78.6654 232.354 79.533 231.753 79.8822L191.615 103.208C190.783 103.691 189.749 103.692 188.916 103.211L145.625 78.2164Z" fill="black"/>
<path d="M190.406 53.1811L230.521 29.8687L230.384 78.5954L190.269 101.909L190.406 53.1811Z" fill="#FFBE2E"/>
<path d="M147.333 28.3125L187.451 5.00146L230.521 29.8692L190.406 53.1816L147.333 28.3125Z" fill="#FFF7E4"/>
<path d="M190.404 53.1811L190.268 101.909L147.195 77.0428L147.332 28.312L190.404 53.1811Z" fill="#212121"/>
<path d="M184.225 82.4905L184.197 91.718L183.113 91.0921L183.137 81.8633L184.225 82.4905Z" fill="#2B3C4D"/>
<path d="M180.268 80.2068L180.24 89.4347L179.892 89.231L179.918 80.0044L180.268 80.2068Z" fill="#2B3C4D"/>
<path d="M179.107 79.533L179.079 88.7604L178.382 88.3593L178.409 79.1318L179.107 79.533Z" fill="#2B3C4D"/>
<path d="M177.111 78.3884L177.085 87.6131L176.092 87.0414L176.119 77.814L177.111 78.3884Z" fill="#2B3C4D"/>
<path d="M174.318 76.7757L174.291 86.0014L173.578 85.5904L173.604 76.3647L174.318 76.7757Z" fill="#2B3C4D"/>
<path d="M172.807 75.9009L172.782 85.1293L172.418 84.9189L172.444 75.6914L172.807 75.9009Z" fill="#2B3C4D"/>
<path d="M171.869 75.3631L171.844 84.5888L171.124 84.1737L171.152 74.9463L171.869 75.3631Z" fill="#2B3C4D"/>
<path d="M185.119 83.0119L185.095 92.2376L184.64 91.9752L184.665 82.75L185.119 83.0119Z" fill="#2B3C4D"/>
<path d="M186.053 83.5494L186.029 92.7777L185.572 92.5131L185.597 83.2861L186.053 83.5494Z" fill="#2B3C4D"/>
<path d="M169.674 74.0892L169.647 83.3153L169.404 83.1739L169.429 73.9478L169.674 74.0892Z" fill="#2B3C4D"/>
<path d="M168.186 84.2847L187.272 95.3047L187.307 83.268L168.22 72.2466L168.186 84.2847ZM182.098 90.5085L180.82 89.7699L180.845 80.5428L182.125 81.2802L182.098 90.5085ZM184.193 91.7178L183.108 91.0919L183.133 81.8631L184.221 82.4903L184.193 91.7178ZM177.086 87.6133L176.093 87.0416L176.12 77.8141L177.113 78.3885L177.086 87.6133ZM171.845 84.5887L171.126 84.1737L171.154 74.9466L171.871 75.3634L171.845 84.5887ZM174.294 86.0016L173.581 85.5906L173.607 76.3649L174.322 76.7755L174.294 86.0016ZM179.072 88.7603L178.374 88.3592L178.402 79.1317L179.1 79.5328L179.072 88.7603ZM186.028 92.7775L185.571 92.5129L185.595 83.2859L186.052 83.5491L186.028 92.7775ZM185.096 92.2376L184.64 91.9752L184.666 82.75L185.12 83.0119L185.096 92.2376ZM172.782 85.1295L172.417 84.9191L172.444 75.6916L172.806 75.9011L172.782 85.1295ZM180.236 89.435L179.887 89.2313L179.914 80.0047L180.264 80.2071L180.236 89.435ZM169.641 83.3154L169.397 83.174L169.422 73.9478L169.668 74.0893L169.641 83.3154ZM170.543 83.8379L170.327 83.7103L170.352 74.4842L170.57 74.6109L170.543 83.8379Z" fill="#E4E8E9"/>
<path d="M170.572 74.6111L170.545 83.8381L170.329 83.71L170.354 74.4844L170.572 74.6111Z" fill="#2B3C4D"/>
<path d="M182.127 81.2808L182.1 90.5092L180.821 89.7705L180.847 80.5435L182.127 81.2808Z" fill="#2B3C4D"/>
<path d="M168.297 40.4078L208.412 17.0958L208.131 16.9409L168.017 40.2524L168.297 40.4078Z" fill="#6F6F6F"/>
<path d="M196.496 58.8018L206.784 52.8623L206.818 64.6838L196.53 70.6232L196.496 58.8018ZM204.772 63.518L204.752 56.3817L198.542 59.9676L198.562 67.1039L204.772 63.518Z" fill="#FFF7E4"/>
<path d="M202.671 59.9834L202.678 62.326L200.639 63.5028L200.633 61.1602L202.671 59.9834Z" fill="#FFF7E4"/>
<path d="M221.051 49.3735L221.057 51.7161L219.018 52.8929L219.012 50.5503L221.051 49.3735Z" fill="#FFF7E4"/>
<path d="M214.869 48.1924L225.157 42.2529L225.19 54.0744L214.903 60.0139L214.869 48.1924ZM223.145 52.9086L223.125 45.7723L216.915 49.3576L216.935 56.4938L223.145 52.9086Z" fill="#FFF7E4"/>
<path d="M214.987 71.6636L214.994 74.0062L212.952 75.1855L212.945 72.8429L214.987 71.6636Z" fill="#FFF7E4"/>
<path d="M217.031 75.1719L219.07 73.9951L219.082 78.6835L218.063 79.2726L217.044 79.861L210.925 83.3939L210.918 81.0474L217.038 77.5145L217.031 75.1719Z" fill="#FFF7E4"/>
<path d="M212.95 77.5279L210.911 78.7047L210.918 81.0473L208.879 82.2247L208.859 75.1963L210.898 74.0195L210.905 76.3621L212.943 75.1853L212.95 77.5279Z" fill="#FFF7E4"/>
<path d="M212.93 70.5L212.936 72.8426L210.897 74.0194L210.891 71.6768L212.93 70.5Z" fill="#FFF7E4"/>
<path d="M204.694 68.2162L204.7 70.5588L210.886 66.9878L210.892 69.3343L210.899 71.6768L208.86 72.8536L208.853 70.511L202.668 74.0821L202.662 71.7363L200.62 72.915L200.613 70.5724L202.655 69.3937L204.694 68.2162Z" fill="#FFF7E4"/>
<path d="M196.562 79.8501L206.851 73.9106L206.884 85.736L196.596 91.6755L196.562 79.8501ZM204.839 84.5663L204.819 77.43L198.608 81.0159L198.628 88.1522L204.839 84.5663Z" fill="#FFF7E4"/>
<path d="M202.73 81.0303L202.737 83.3729L200.698 84.5503L200.691 82.2071L202.73 81.0303Z" fill="#FFF7E4"/>
<path d="M200.622 72.915L200.629 75.2615L198.59 76.4383L198.584 74.0918L200.622 72.915Z" fill="#FFF7E4"/>
<path d="M212.878 49.3438L212.885 51.6863L210.846 52.8638L210.853 55.2606L212.892 54.0832L212.911 61.0315L210.873 62.209L210.879 64.6452L208.841 65.8226L208.827 61.0431L210.866 59.8664L210.859 57.6032L208.821 58.78L208.801 51.698L210.839 50.5212L212.878 49.3438Z" fill="#FFF7E4"/>
<path d="M212.918 63.4688L212.924 65.8113L210.886 66.9881L210.879 64.6455L212.918 63.4688Z" fill="#FFF7E4"/>
<path d="M214.972 66.9785L214.978 69.3211L212.937 70.5005L212.93 68.1579L214.972 66.9785Z" fill="#FFF7E4"/>
<path d="M217.033 72.8291L217.039 75.1717L215.001 76.3485L214.994 74.0059L217.033 72.8291Z" fill="#FFF7E4"/>
<path d="M225.15 56.4048L225.163 61.079L223.172 62.2286L223.179 64.5861L223.185 66.9287L221.099 68.1326L221.106 70.4752L223.144 69.2984L223.151 71.641L219.074 73.9952L219.068 71.6526L219.06 69.31L214.983 71.6636L214.977 69.321L221.14 65.7629L221.127 61.0887L223.118 59.9384L223.111 57.5816L225.15 56.4048Z" fill="#FFF7E4"/>
<path d="M219.042 59.9355L219.049 62.2781L219.056 64.6246L217.017 65.8014L217.01 63.4549L214.971 64.6324L214.965 62.2898L217.004 61.1123L219.042 59.9355Z" fill="#FFF7E4"/>
<path d="M225.232 65.751L225.239 68.0936L223.2 69.271L223.193 66.9284L225.232 65.751Z" fill="#FFF7E4"/>
<path d="M225.197 70.4634L225.204 72.8066L223.165 73.9834L223.158 71.6408L225.197 70.4634Z" fill="#FFF7E4"/>
<path d="M223.165 73.9834L223.172 76.3299L221.133 77.5067L221.127 75.1602L223.165 73.9834Z" fill="#FFF7E4"/>
<path d="M198.58 71.749L198.586 74.0916L196.547 75.269L196.541 72.9265L198.58 71.749Z" fill="#FFF7E4"/>
<path d="M194.195 68.8183C194.082 68.8183 193.989 68.7266 193.989 68.6122L193.957 57.4483C193.957 57.3746 193.996 57.3062 194.06 57.2694L203.775 51.6606C203.871 51.6037 203.998 51.6367 204.057 51.7362C204.113 51.835 204.08 51.9609 203.982 52.0178L194.37 57.5671L194.402 68.6116C194.402 68.7253 194.31 68.8183 194.197 68.8183C194.195 68.8183 194.195 68.8183 194.195 68.8183Z" fill="#FFF7E4"/>
<path d="M217.855 82.2924C217.784 82.2924 217.714 82.2556 217.676 82.1891C217.619 82.0903 217.653 81.9643 217.751 81.9075L227.36 76.3601L227.328 65.3195C227.328 65.2058 227.42 65.1128 227.534 65.1128H227.534C227.648 65.1128 227.741 65.2045 227.741 65.3188L227.773 76.4789C227.773 76.5525 227.733 76.621 227.669 76.6578L217.958 82.2653C217.926 82.2834 217.89 82.2924 217.855 82.2924Z" fill="#FFF7E4"/>
<path d="M227.482 49.6009C227.368 49.6009 227.275 49.5091 227.275 49.3948L227.244 38.588L217.841 44.0173C217.744 44.0741 217.616 44.0405 217.558 43.9417C217.502 43.8429 217.536 43.7169 217.634 43.6601L227.346 38.0526C227.411 38.0158 227.488 38.0158 227.553 38.0519C227.617 38.0888 227.656 38.1566 227.656 38.2309L227.688 49.3942C227.688 49.5078 227.596 49.6009 227.482 49.6009H227.482Z" fill="#FFF7E4"/>
<path d="M194.275 95.9029C194.24 95.9029 194.204 95.8938 194.172 95.8757C194.108 95.8389 194.069 95.7711 194.069 95.6968L194.037 84.5368C194.037 84.4231 194.129 84.3301 194.242 84.3301C194.356 84.3301 194.45 84.4218 194.45 84.5361L194.48 95.3397L203.887 89.9085C203.982 89.851 204.11 89.8846 204.169 89.9841C204.225 90.0829 204.192 90.2088 204.093 90.2657L194.378 95.8751C194.346 95.8938 194.311 95.9029 194.275 95.9029Z" fill="#FFF7E4"/>
<path d="M227.058 58.675C227.53 58.4025 227.911 58.6234 227.913 59.162C227.914 59.7039 227.536 60.3595 227.064 60.632L194.656 79.3424C194.187 79.613 193.806 79.396 193.805 78.8535C193.803 78.3148 194.182 77.656 194.65 77.3854L227.058 58.675Z" fill="#212121"/>
<path d="M262.644 58.5551L227.441 37.3872L193.178 57.1691L193.289 96.5397L262.644 58.5551Z" fill="url(#paint0_linear_32_669717)"/>
<path opacity="0.1" d="M325.664 158.113L314.463 151.605C313.492 151.04 312.292 151.039 311.32 151.6L243.845 190.568C241.758 191.773 241.754 194.783 243.837 195.994L253.812 201.791C255.529 202.788 257.647 202.792 259.367 201.799L325.656 163.54C327.744 162.335 327.748 159.324 325.664 158.113Z" fill="black"/>
<path d="M312.626 6.88677C311.585 6.2861 310.128 6.37265 308.532 7.29884L248.827 41.777C247.865 42.3318 246.96 43.121 246.168 44.0614C245.649 44.6615 245.174 45.3351 244.768 46.0385C244.362 46.7418 244.017 47.4717 243.746 48.2241C243.315 49.4015 243.072 50.6016 243.082 51.7273L243.458 183.586C243.456 185.413 244.096 186.692 245.13 187.289L257.16 194.272C256.119 193.671 255.472 192.388 255.477 190.573L255.094 58.7099C255.085 57.5654 255.332 56.3583 255.778 55.1705C256.05 54.418 256.402 53.6927 256.808 52.9894C257.214 52.286 257.685 51.6195 258.208 51.0124C258.995 50.0791 259.897 49.2975 260.847 48.7453L320.544 14.2814C322.159 13.3572 323.598 13.2687 324.66 13.8822L312.626 6.88677Z" fill="#212121"/>
<path d="M258.208 51.0108L246.168 44.0605C245.649 44.6606 245.174 45.3342 244.769 46.0376C244.362 46.7409 244.017 47.4708 243.746 48.2232L255.778 55.1696C256.05 54.4172 256.402 53.6918 256.808 52.9885C257.215 52.2845 257.685 51.6186 258.208 51.0108Z" fill="#212121"/>
<path d="M257.156 194.479C257.121 194.479 257.085 194.47 257.053 194.451C257.047 194.449 257.042 194.445 257.037 194.442L245.027 187.467C243.881 186.804 243.248 185.426 243.248 183.586L242.871 51.7282C242.862 49.912 243.472 47.8542 244.591 45.934C245.691 44.0423 247.159 42.5012 248.722 41.5944L308.426 7.11883C310.036 6.18231 311.568 6.03699 312.733 6.70999L324.762 13.6971C324.762 13.6971 324.763 13.6977 324.764 13.6984H324.765C324.863 13.7558 324.896 13.8818 324.84 13.9806C324.781 14.0788 324.654 14.1124 324.558 14.0555H324.557L324.554 14.0536C323.529 13.4633 322.14 13.606 320.65 14.4579L260.951 48.9264C259.454 49.7905 258.045 51.269 256.984 53.091C255.891 54.9692 255.295 56.9643 255.303 58.7082L255.68 190.568C255.674 192.244 256.231 193.493 257.248 194.088L257.261 194.095C257.359 194.152 257.392 194.278 257.336 194.377C257.296 194.442 257.227 194.479 257.156 194.479ZM311.117 6.70611C310.358 6.70611 309.513 6.96446 308.633 7.476L248.928 41.9516C247.426 42.8228 246.013 44.3109 244.946 46.142C243.865 47.9995 243.275 49.9824 243.284 51.7269L243.661 183.586C243.661 185.273 244.22 186.523 245.234 187.11L255.916 193.314C255.488 192.597 255.263 191.664 255.267 190.568L254.89 58.7101C254.881 56.8939 255.497 54.8245 256.627 52.8836C257.724 51.0003 259.185 49.4683 260.743 48.5698L320.444 14.1001C321.395 13.5569 322.315 13.2824 323.146 13.2824C323.174 13.2824 323.201 13.2831 323.227 13.2831L312.526 7.06716C312.108 6.82625 311.632 6.70611 311.117 6.70611Z" fill="#373B42"/>
<path d="M316.8 16.6489C316.765 16.6489 316.729 16.6398 316.697 16.6211L304.642 9.6618C304.544 9.60496 304.51 9.47901 304.567 9.3802C304.625 9.28073 304.751 9.24779 304.849 9.30463L316.903 16.2639C317.002 16.3208 317.036 16.4467 316.979 16.5455C316.94 16.6114 316.871 16.6489 316.8 16.6489Z" fill="#373B42"/>
<path d="M249.369 74.5252C248.862 74.2423 248.402 74.2068 248.072 74.3967L246.85 75.0975C247.187 74.9121 247.639 74.9431 248.146 75.226C249.159 75.8105 249.978 77.2334 249.981 78.4056L249.98 88.6499C249.975 89.2473 249.768 89.6581 249.434 89.8551L250.657 89.1543C250.991 88.9573 251.198 88.5465 251.203 87.9491L251.203 77.7049C251.2 76.5333 250.381 75.1104 249.369 74.5252Z" fill="#373B42"/>
<path d="M249.434 90.0623C249.363 90.0623 249.294 90.0255 249.256 89.9596C249.198 89.8615 249.231 89.7355 249.33 89.678C249.612 89.5114 249.77 89.1458 249.774 88.6491L249.775 78.4062C249.771 77.3011 248.994 75.9538 248.042 75.4048C247.62 75.1697 247.23 75.1239 246.948 75.2795C246.851 75.3338 246.725 75.2989 246.669 75.1994C246.614 75.1006 246.648 74.976 246.747 74.9191L247.969 74.2177C248.372 73.9845 248.905 74.0304 249.469 74.3449C249.469 74.3449 249.471 74.3456 249.472 74.3469C250.555 74.9721 251.407 76.4473 251.41 77.7054L251.409 87.9497C251.403 88.5988 251.173 89.0896 250.761 89.3331L249.537 90.0352C249.504 90.0533 249.468 90.0623 249.434 90.0623ZM247.728 74.8319C247.897 74.8765 248.07 74.9482 248.246 75.0457C249.331 75.6729 250.183 77.148 250.187 78.4056L250.187 88.6511C250.185 88.8616 250.159 89.0554 250.112 89.2298L250.554 88.9766C250.834 88.8106 250.992 88.445 250.996 87.9484L250.997 77.7061C250.993 76.6016 250.217 75.255 249.266 74.7053C248.833 74.4644 248.447 74.4211 248.175 74.5768L247.728 74.8319Z" fill="#373B42"/>
<path d="M249.984 78.4064C249.984 77.2315 249.163 75.8086 248.148 75.2267C247.134 74.6448 246.312 75.1253 246.312 76.3001L246.314 86.5476C246.314 87.7225 247.135 89.1453 248.15 89.7273C249.164 90.3092 249.986 89.8287 249.986 88.6538L249.984 78.4064Z" fill="#FFEECC"/>
<path d="M248.963 90.1823C248.677 90.1823 248.366 90.0899 248.047 89.9071C246.959 89.2832 246.107 87.8081 246.107 86.5486L246.105 76.3011C246.105 75.654 246.333 75.1657 246.749 74.9254C247.161 74.6871 247.694 74.7297 248.25 75.0488C249.337 75.672 250.19 77.1472 250.191 78.4073L250.191 88.6548C250.191 89.3013 249.962 89.7902 249.548 90.0305C249.372 90.1319 249.175 90.1823 248.963 90.1823ZM247.335 75.1863C247.195 75.1863 247.067 75.218 246.956 75.2826C246.674 75.446 246.518 75.8077 246.518 76.3011L246.52 86.5486C246.52 87.6556 247.296 89.0016 248.251 89.5487C248.675 89.7915 249.06 89.8348 249.341 89.6727C249.623 89.5093 249.779 89.1476 249.779 88.6541L249.778 78.4067C249.777 77.2997 249 75.9536 248.046 75.4066C247.79 75.26 247.548 75.1863 247.335 75.1863Z" fill="#373B42"/>
<path d="M251.289 132.408C251.289 131.135 250.398 129.592 249.299 128.961C248.199 128.33 247.309 128.852 247.309 130.125L247.311 154.869C247.311 156.143 248.202 157.685 249.302 158.316C250.402 158.947 251.292 158.426 251.292 157.152L251.289 132.408Z" fill="#FFEECC"/>
<path d="M250.174 131.796C250.174 132.349 249.784 132.57 249.307 132.296C248.824 132.019 248.439 131.353 248.439 130.801C248.439 130.233 248.824 130.009 249.307 130.286C249.783 130.56 250.174 131.229 250.174 131.796Z" fill="#373B42"/>
<path d="M261.268 193.866C258.079 195.707 255.49 194.232 255.479 190.567L255.102 58.7099C255.091 55.0458 257.663 50.5899 260.852 48.7486L320.555 14.2775C323.743 12.4361 326.333 13.9119 326.343 17.576L326.721 149.433C326.731 153.098 324.159 157.553 320.97 159.395L261.268 193.866Z" fill="#373B42"/>
<path d="M258.677 194.868C258.092 194.868 257.548 194.731 257.069 194.454C255.917 193.791 255.28 192.411 255.274 190.568L254.897 58.7101C254.886 54.9886 257.512 50.4391 260.751 48.5699L320.452 14.0982C322.066 13.1662 323.594 13.0209 324.755 13.6881C325.908 14.3521 326.545 15.7316 326.551 17.575L326.929 149.432C326.939 153.154 324.313 157.703 321.075 159.573L261.373 194.044C260.425 194.591 259.508 194.868 258.677 194.868ZM323.146 13.6894C322.387 13.6894 321.54 13.9471 320.658 14.456L260.957 48.9277C257.832 50.7316 255.299 55.1197 255.309 58.7095L255.686 190.567C255.692 192.256 256.255 193.51 257.276 194.096C258.303 194.688 259.685 194.542 261.165 193.687L320.868 159.216C323.992 157.412 326.525 153.024 326.515 149.434L326.137 17.5763C326.131 15.8873 325.568 14.6337 324.548 14.0466C324.132 13.8082 323.659 13.6894 323.146 13.6894Z" fill="#373B42"/>
<path d="M324.094 14.834C324.808 15.2461 325.223 16.2485 325.227 17.5784L325.605 149.437C325.61 151.017 325.068 152.829 324.078 154.545C323.091 156.255 321.787 157.636 320.41 158.434L260.709 192.903C259.538 193.581 258.448 193.732 257.722 193.313C257.009 192.901 256.594 191.898 256.59 190.568L256.213 58.7097C256.208 57.1299 256.749 55.3175 257.739 53.6014C258.726 51.8918 260.029 50.5109 261.407 49.7126L321.108 15.2435C322.278 14.5654 323.368 14.4149 324.094 14.834Z" fill="#FFEECC"/>
<path d="M258.67 193.752C258.277 193.752 257.92 193.665 257.619 193.492C256.837 193.041 256.386 191.976 256.383 190.569L256.006 58.7103C256.001 57.093 256.552 55.2419 257.56 53.4987C258.565 51.7587 259.894 50.3507 261.304 49.5343L321.005 15.0646C322.244 14.3476 323.407 14.1984 324.198 14.6557C324.98 15.1072 325.43 16.1722 325.434 17.5783L325.811 149.437C325.816 151.054 325.264 152.905 324.257 154.649C323.252 156.389 321.923 157.797 320.513 158.614L260.812 193.083C260.046 193.525 259.309 193.752 258.67 193.752ZM323.142 14.8056C322.581 14.8056 321.915 15.0142 321.211 15.4217L261.51 49.8915C260.163 50.6723 258.887 52.0267 257.918 53.7054C256.946 55.3872 256.414 57.164 256.419 58.7096L256.796 190.568C256.799 191.824 257.174 192.759 257.825 193.134C258.485 193.515 259.498 193.366 260.605 192.725L320.306 158.256C321.653 157.475 322.93 156.121 323.898 154.442C324.87 152.76 325.402 150.983 325.397 149.438L325.02 17.579C325.017 16.324 324.642 15.3888 323.991 15.0129C323.751 14.874 323.464 14.8056 323.142 14.8056Z" fill="#373B42"/>
<path d="M277.282 47.5003C278.169 46.9953 300.663 34.0881 301.707 33.4893C303.375 32.5315 304.731 30.1825 304.733 28.2578L304.729 24.75C303.686 25.3487 275.448 41.5505 274.258 42.2332L274.258 45.7384C274.26 47.6657 275.615 48.4582 277.282 47.5003Z" fill="#373B42"/>
<path d="M275.942 48.115C275.617 48.115 275.315 48.0382 275.046 47.8825C274.405 47.5118 274.052 46.7509 274.051 45.7382V42.2324C274.051 42.1587 274.09 42.0903 274.155 42.0535C275.344 41.3714 303.582 25.169 304.626 24.5703C304.689 24.5341 304.769 24.5334 304.831 24.5709C304.895 24.6077 304.935 24.6755 304.935 24.7498L304.938 28.2576C304.936 30.2507 303.532 32.6779 301.809 33.6681C301.575 33.8018 278.298 47.1578 277.384 47.679C276.88 47.969 276.389 48.115 275.942 48.115ZM274.463 42.3525V45.7382C274.464 46.5966 274.744 47.2315 275.253 47.5247C275.755 47.816 276.441 47.7443 277.177 47.3206L277.178 47.3199C278.081 46.8052 301.369 33.4433 301.603 33.3096C303.213 32.3854 304.523 30.1183 304.524 28.2569L304.521 25.105C301.327 26.9393 276.566 41.1467 274.463 42.3525Z" fill="#373B42"/>
<path d="M297.626 33.1244C297.972 32.5256 298.162 31.8894 298.162 31.334C298.162 30.8341 298.011 30.4705 297.735 30.3103C297.463 30.1533 297.08 30.2005 296.656 30.4427L277.73 41.2999C277.25 41.5756 276.794 42.0581 276.447 42.6594C276.099 43.262 275.908 43.9021 275.908 44.4614C275.908 44.9555 276.059 45.3153 276.333 45.4735C276.606 45.6317 276.991 45.5846 277.418 45.3404L296.343 34.4839C296.824 34.2081 297.28 33.725 297.626 33.1244Z" fill="#FFEECC"/>
<path d="M302.538 30.3095C302.884 29.7108 303.074 29.0752 303.074 28.5198C303.074 28.0199 302.922 27.6569 302.647 27.4967C302.375 27.3391 301.99 27.3863 301.565 27.6304C301.084 27.9062 300.628 28.3886 300.281 28.99C299.934 29.5926 299.742 30.232 299.742 30.7913C299.742 31.2854 299.893 31.6445 300.167 31.8034C300.44 31.9616 300.825 31.9145 301.252 31.6703C301.734 31.3939 302.191 30.9108 302.538 30.3095Z" fill="#FFEECC"/>
<path d="M302.08 30.0423C302.285 29.6864 302.398 29.3086 302.398 28.9786C302.398 28.6815 302.308 28.4657 302.144 28.3701C301.983 28.2765 301.754 28.3049 301.501 28.4496C301.215 28.6136 300.944 28.9004 300.738 29.2582C300.532 29.616 300.418 29.9964 300.418 30.3291C300.418 30.6223 300.508 30.8361 300.671 30.931C300.833 31.0253 301.062 30.9969 301.315 30.8522C301.602 30.6875 301.873 30.4001 302.08 30.0423Z" fill="#FFBE2E"/>
<path d="M307.539 147.85C307.544 148.745 306.913 149.834 306.137 150.282L283.907 163.099C283.514 163.323 283.161 163.343 282.902 163.194C282.878 163.179 282.853 163.159 282.823 163.144C282.793 163.119 282.758 163.089 282.733 163.055C282.708 163.03 282.689 163.005 282.674 162.975C282.649 162.94 282.624 162.901 282.604 162.856C282.584 162.811 282.564 162.761 282.549 162.712C282.529 162.647 282.52 162.582 282.51 162.508C282.505 162.473 282.5 162.443 282.5 162.403C282.495 162.368 282.495 162.334 282.495 162.294L282.465 153.632C282.465 152.737 283.091 151.648 283.872 151.195L306.097 138.383C306.326 138.248 306.545 138.188 306.739 138.188C306.783 138.188 306.823 138.193 306.863 138.198C306.883 138.203 306.903 138.203 306.923 138.213C306.928 138.213 306.928 138.213 306.928 138.213C306.972 138.223 307.012 138.238 307.047 138.258C307.33 138.388 307.509 138.716 307.514 139.188L307.539 147.85Z" fill="#FFBE2E"/>
<path d="M283.278 163.431C283.117 163.431 282.967 163.392 282.834 163.316C282.831 163.314 282.8 163.293 282.797 163.292C282.785 163.284 282.774 163.276 282.761 163.269C282.698 163.222 282.655 163.184 282.621 163.136C282.598 163.116 282.571 163.079 282.55 163.037C282.527 163.01 282.499 162.962 282.477 162.913C282.455 162.864 282.433 162.807 282.417 162.752C282.395 162.681 282.383 162.609 282.372 162.526C282.365 162.481 282.361 162.447 282.361 162.403C282.356 162.382 282.356 162.341 282.356 162.294L282.326 153.632C282.326 152.677 282.975 151.554 283.804 151.074L306.029 138.261C306.316 138.092 306.629 138.03 306.876 138.058C306.911 138.064 306.935 138.069 306.958 138.076C306.959 138.076 306.96 138.076 306.96 138.077C307.019 138.09 307.072 138.11 307.119 138.137C307.451 138.287 307.651 138.672 307.656 139.187L307.681 147.85C307.686 148.786 307.025 149.932 306.209 150.403L283.978 163.221C283.734 163.36 283.496 163.431 283.278 163.431ZM282.914 163.035C282.917 163.035 282.936 163.047 282.954 163.059C283.198 163.202 283.505 163.168 283.838 162.978L306.068 150.16C306.807 149.734 307.405 148.698 307.4 147.851C307.4 147.851 307.4 147.851 307.4 147.851L307.375 139.188C307.371 138.789 307.231 138.496 306.99 138.386C306.957 138.367 306.929 138.358 306.898 138.35C306.876 138.35 306.88 138.348 306.861 138.339C306.809 138.333 306.776 138.329 306.74 138.329C306.561 138.329 306.364 138.389 306.17 138.503L283.944 151.317C283.206 151.744 282.607 152.783 282.607 153.632L282.636 162.293C282.636 162.327 282.636 162.355 282.64 162.383C282.641 162.432 282.645 162.454 282.648 162.478C282.659 162.556 282.668 162.613 282.685 162.671C282.698 162.715 282.716 162.759 282.733 162.798C282.748 162.83 282.766 162.861 282.789 162.892C282.808 162.926 282.818 162.939 282.834 162.955C282.866 162.997 282.898 163.023 282.913 163.036C282.913 163.035 282.913 163.035 282.914 163.035Z" fill="#383C43"/>
<path d="M285.313 158.674V154.134L286.074 153.695V158.235L285.313 158.674ZM285.872 158.351V157.57L287.875 156.414V157.195L285.872 158.351ZM290.004 156.037C289.717 156.202 289.449 156.297 289.199 156.321C288.953 156.342 288.737 156.301 288.55 156.198C288.367 156.088 288.224 155.921 288.119 155.697C288.015 155.469 287.963 155.192 287.963 154.864C287.963 154.537 288.013 154.204 288.114 153.866C288.218 153.522 288.362 153.191 288.545 152.875C288.731 152.552 288.947 152.261 289.193 152.003C289.44 151.74 289.706 151.526 289.993 151.36C290.284 151.193 290.553 151.098 290.799 151.076C291.045 151.05 291.259 151.092 291.442 151.202C291.628 151.306 291.774 151.469 291.878 151.693C291.983 151.917 292.035 152.193 292.035 152.52C292.035 152.847 291.983 153.183 291.878 153.527C291.774 153.872 291.628 154.206 291.442 154.528C291.259 154.845 291.045 155.135 290.799 155.397C290.556 155.658 290.292 155.871 290.004 156.037ZM289.993 155.223C290.247 155.076 290.467 154.885 290.653 154.648C290.84 154.411 290.985 154.148 291.09 153.86C291.198 153.569 291.252 153.271 291.252 152.965C291.252 152.742 291.222 152.554 291.162 152.404C291.103 152.253 291.017 152.143 290.905 152.074C290.793 152.001 290.661 151.972 290.508 151.987C290.355 152.002 290.183 152.064 289.993 152.174C289.747 152.316 289.529 152.507 289.339 152.746C289.152 152.978 289.005 153.24 288.897 153.531C288.793 153.819 288.74 154.114 288.74 154.415C288.74 154.644 288.77 154.835 288.83 154.99C288.893 155.143 288.979 155.255 289.087 155.326C289.199 155.395 289.331 155.422 289.484 155.407C289.641 155.39 289.811 155.328 289.993 155.223ZM293.382 154.016V149.572L294.148 149.13V153.573L293.382 154.016ZM292.129 150.98V150.199L295.401 148.309V149.091L292.129 150.98ZM297.491 151.643V150.926L298.514 150.335C298.697 150.23 298.839 150.084 298.939 149.896C299.044 149.707 299.096 149.524 299.096 149.347C299.096 149.227 299.074 149.13 299.029 149.057C298.984 148.983 298.917 148.945 298.827 148.94C298.742 148.93 298.637 148.96 298.514 149.031L297.491 149.622V148.911L298.43 148.369C298.587 148.278 298.712 148.161 298.805 148.017C298.902 147.87 298.951 147.707 298.951 147.526C298.951 147.341 298.902 147.231 298.805 147.197C298.712 147.16 298.587 147.187 298.43 147.277L297.491 147.82V147.103L298.52 146.509C298.781 146.358 298.999 146.288 299.174 146.299C299.353 146.303 299.488 146.37 299.577 146.499C299.667 146.624 299.711 146.792 299.711 147.003C299.711 147.261 299.642 147.525 299.504 147.794C299.37 148.057 299.172 148.309 298.911 148.55L298.945 148.246C299.236 148.173 299.46 148.201 299.616 148.33C299.777 148.453 299.857 148.667 299.857 148.973C299.857 149.214 299.804 149.464 299.7 149.722C299.599 149.974 299.45 150.217 299.253 150.452C299.059 150.68 298.822 150.875 298.542 151.036L297.491 151.643ZM296.931 151.966V147.426L297.686 146.99V151.53L296.931 151.966ZM300.958 149.642V145.101L301.707 144.668V149.209L300.958 149.642ZM300.186 146.309V145.547L301.651 144.701V145.463L300.186 146.309ZM302.257 148.388L303.739 145.743C303.843 145.554 303.927 145.391 303.99 145.256C304.058 145.113 304.106 144.989 304.136 144.881C304.166 144.769 304.181 144.666 304.181 144.571C304.181 144.381 304.127 144.264 304.018 144.219C303.914 144.172 303.778 144.196 303.61 144.293C303.439 144.392 303.286 144.532 303.151 144.713C303.021 144.892 302.898 145.126 302.782 145.417L302.262 145.207C302.419 144.811 302.613 144.469 302.844 144.18C303.079 143.885 303.347 143.651 303.649 143.476C303.907 143.328 304.13 143.257 304.321 143.263C304.514 143.267 304.664 143.343 304.768 143.489C304.872 143.635 304.925 143.846 304.925 144.122C304.925 144.307 304.904 144.487 304.863 144.661C304.826 144.834 304.761 145.022 304.667 145.226C304.578 145.425 304.453 145.662 304.293 145.94L303.213 147.836L302.257 148.388ZM302.257 148.892V148.388L302.905 147.755L305.009 146.541V147.303L302.257 148.892Z" fill="black"/>
<path d="M304.611 19.3911C305.836 18.6838 305.826 17.5361 304.61 16.8289C303.377 16.1126 301.412 16.1126 300.187 16.8198C298.931 17.5451 298.924 18.6838 300.157 19.4001C301.373 20.1073 303.354 20.1164 304.611 19.3911Z" fill="#373B42"/>
<path d="M255.123 67.4742C255.088 67.4742 255.052 67.4652 255.02 67.4465L243.001 60.5085C242.903 60.4516 242.869 60.3257 242.926 60.2269C242.983 60.1274 243.111 60.0945 243.208 60.1513L255.227 67.0893C255.325 67.1461 255.359 67.2721 255.302 67.3709C255.263 67.4374 255.194 67.4742 255.123 67.4742Z" fill="#373B42"/>
<path d="M255.451 183.036C255.415 183.036 255.38 183.027 255.347 183.008L243.33 176.07C243.231 176.014 243.197 175.888 243.254 175.789C243.312 175.689 243.439 175.656 243.536 175.713L255.554 182.651C255.652 182.708 255.687 182.834 255.63 182.933C255.592 182.999 255.522 183.036 255.451 183.036Z" fill="#373B42"/>
<path d="M267.871 88.7662L284.696 79.0522L284.751 98.3852L267.926 108.099L267.871 88.7662ZM281.406 96.4793L281.373 84.8083L271.217 90.6722L271.25 102.343L281.406 96.4793Z" fill="#FFBE2E"/>
<path d="M277.971 90.6973L277.982 94.5286L274.648 96.4533L274.637 92.6226L277.971 90.6973Z" fill="#FFBE2E"/>
<path d="M308.02 73.3462L308.031 77.1769L304.697 79.1022L304.686 75.2709L308.02 73.3462Z" fill="#FFBE2E"/>
<path d="M297.928 71.4146L314.752 61.7007L314.807 81.0337L297.983 90.7476L297.928 71.4146ZM311.462 79.1277L311.429 67.4567L301.273 73.3206L301.306 84.9916L311.462 79.1277Z" fill="#FFBE2E"/>
<path d="M298.109 109.8L298.12 113.63L294.781 115.558L294.77 111.728L298.109 109.8Z" fill="#FFBE2E"/>
<path d="M301.46 115.537L304.794 113.612L304.816 121.28L303.149 122.243L301.482 123.205L291.474 128.983L291.463 125.146L301.471 119.368L301.46 115.537Z" fill="#FFBE2E"/>
<path d="M294.792 119.39L291.458 121.314L291.468 125.146L288.134 127.071L288.102 115.577L291.436 113.652L291.447 117.484L294.781 115.558L294.792 119.39Z" fill="#FFBE2E"/>
<path d="M294.754 107.896L294.765 111.727L291.431 113.652L291.42 109.821L294.754 107.896Z" fill="#FFBE2E"/>
<path d="M281.273 104.162L281.284 107.993L291.4 102.153L291.41 105.99L291.421 109.821L288.087 111.746L288.076 107.915L277.961 113.755L277.95 109.918L274.611 111.846L274.6 108.015L277.939 106.087L281.273 104.162Z" fill="#FFBE2E"/>
<path d="M267.969 123.187L284.794 113.473L284.849 132.811L268.024 142.525L267.969 123.187ZM281.504 130.9L281.471 119.229L271.314 125.093L271.347 136.764L281.504 130.9Z" fill="#FFBE2E"/>
<path d="M278.068 125.118L278.079 128.949L274.745 130.874L274.734 127.043L278.068 125.118Z" fill="#FFBE2E"/>
<path d="M274.615 111.847L274.626 115.683L271.292 117.609L271.281 113.771L274.615 111.847Z" fill="#FFBE2E"/>
<path d="M294.666 73.2979L294.677 77.1292L291.343 79.0539L291.354 82.9737L294.688 81.049L294.72 92.4119L291.386 94.3373L291.398 98.3217L288.064 100.247L288.041 92.4313L291.375 90.5059L291.365 86.8051L288.031 88.7298L287.998 77.1479L291.332 75.2232L294.666 73.2979Z" fill="#FFBE2E"/>
<path d="M294.729 96.397L294.74 100.228L291.406 102.153L291.395 98.3217L294.729 96.397Z" fill="#FFBE2E"/>
<path d="M298.092 102.138L298.102 105.968L294.763 107.896L294.752 104.066L298.092 102.138Z" fill="#FFBE2E"/>
<path d="M301.463 111.706L301.474 115.537L298.14 117.462L298.129 113.63L301.463 111.706Z" fill="#FFBE2E"/>
<path d="M314.735 84.8442L314.757 92.4888L311.5 94.3696L311.511 98.2242L311.522 102.055L308.111 104.025L308.122 107.856L311.456 105.931L311.467 109.762L304.799 113.612L304.788 109.781L304.777 105.95L298.109 109.8L298.098 105.968L308.177 100.149L308.156 92.5043L311.412 90.6242L311.401 86.7696L314.735 84.8442Z" fill="#FFBE2E"/>
<path d="M304.742 90.6191L304.753 94.4505L304.764 98.2876L301.43 100.212L301.419 96.3752L298.085 98.3005L298.074 94.4692L301.408 92.5445L304.742 90.6191Z" fill="#FFBE2E"/>
<path d="M314.852 100.13L314.863 103.962L311.529 105.886L311.518 102.055L314.852 100.13Z" fill="#FFBE2E"/>
<path d="M314.797 107.837L314.808 111.668L311.474 113.593L311.463 109.762L314.797 107.837Z" fill="#FFBE2E"/>
<path d="M311.479 113.593L311.489 117.43L308.155 119.355L308.145 115.518L311.479 113.593Z" fill="#FFBE2E"/>
<path d="M271.266 109.94L271.277 113.771L267.943 115.696L267.932 111.865L271.266 109.94Z" fill="#FFBE2E"/>
<path d="M264.114 105.016C264 105.016 263.907 104.924 263.907 104.81L263.855 86.5527C263.855 86.4791 263.895 86.4106 263.959 86.3738L279.847 77.2004C279.944 77.1429 280.07 77.1765 280.129 77.276C280.185 77.3748 280.152 77.5008 280.053 77.5576L264.268 86.6715L264.32 104.809C264.32 104.923 264.228 105.016 264.114 105.016Z" fill="#373B42"/>
<path d="M302.79 127.051C302.719 127.051 302.65 127.014 302.611 126.947C302.555 126.849 302.589 126.723 302.687 126.666L318.467 117.555L318.415 99.4235C318.415 99.3098 318.507 99.2168 318.621 99.2168C318.734 99.2168 318.828 99.3085 318.828 99.4228L318.88 117.674C318.88 117.748 318.84 117.816 318.776 117.853L302.893 127.023C302.861 127.042 302.826 127.051 302.79 127.051Z" fill="#373B42"/>
<path d="M318.552 73.5866C318.438 73.5866 318.345 73.4949 318.345 73.3806L318.294 55.4801L302.72 64.472C302.622 64.5282 302.495 64.4959 302.437 64.3964C302.381 64.2976 302.415 64.1717 302.513 64.1148L318.396 54.9447C318.461 54.9079 318.538 54.9079 318.603 54.944C318.667 54.9809 318.706 55.0487 318.706 55.1229L318.758 73.3799C318.758 73.4936 318.666 73.5866 318.553 73.5866H318.552Z" fill="#373B42"/>
<path d="M264.245 149.31C264.209 149.31 264.174 149.301 264.141 149.283C264.077 149.246 264.038 149.178 264.038 149.104L263.986 130.853C263.986 130.739 264.078 130.646 264.192 130.646C264.305 130.646 264.399 130.738 264.399 130.852L264.45 148.747L280.029 139.752C280.125 139.694 280.253 139.728 280.311 139.827C280.368 139.926 280.334 140.052 280.236 140.109L264.348 149.282C264.316 149.301 264.28 149.31 264.245 149.31Z" fill="#373B42"/>
<path d="M283.758 54.1769C284.45 53.7777 285.01 54.0968 285.011 54.8912C285.014 55.6863 284.458 56.6557 283.766 57.0549L265.724 67.4716C265.033 67.8707 264.467 67.5491 264.465 66.754C264.463 65.9589 265.024 64.9927 265.716 64.5936L283.758 54.1769Z" fill="#212121"/>
<path d="M294.092 56.5153C294.784 56.1161 295.344 56.4352 295.345 57.2296C295.348 58.0247 294.792 58.9941 294.1 59.3933L265.724 75.898C265.033 76.2971 264.467 75.9755 264.465 75.1804C264.463 74.3853 265.024 73.4191 265.716 73.02L294.092 56.5153Z" fill="#212121"/>
<defs>
<linearGradient id="paint0_linear_32_669717" x1="250.989" y1="61.1925" x2="213.528" y2="60.5466" gradientUnits="userSpaceOnUse">
<stop offset="0.0334"/>
<stop offset="1" stop-opacity="0"/>
</linearGradient>
</defs>
</svg>
