<svg width="82" height="82" viewBox="0 0 82 82" fill="none" xmlns="http://www.w3.org/2000/svg">
<circle cx="40.9728" cy="40.9728" r="40.9728" fill="#FFBE2E"/>
<rect x="19.2812" y="19.2812" width="43.383" height="43.383" rx="2.75407" fill="white"/>
<path d="M40.9488 27.8826C42.7856 27.894 44.5841 27.3582 46.1153 26.3436C47.6465 25.329 48.8409 23.8815 49.5464 22.1855C50.2519 20.4896 50.4365 18.622 50.0766 16.8208C49.7168 15.0195 48.8289 13.3662 47.5259 12.0715C46.223 10.7768 44.5641 9.89925 42.7606 9.55079C40.9572 9.20233 39.0908 9.3987 37.3993 10.1149C35.7079 10.831 34.2679 12.0346 33.263 13.5721C32.2581 15.1097 31.7337 16.9116 31.7566 18.7483C31.7868 21.1714 32.7668 23.486 34.4858 25.1942C36.2048 26.9023 38.5254 27.8677 40.9488 27.8826ZM40.9488 11.8108C42.307 11.8108 43.6348 12.2129 44.7648 12.9663C45.8949 13.7197 46.7767 14.7908 47.2991 16.0445C47.8214 17.2983 47.961 18.6786 47.7002 20.0115C47.4394 21.3444 46.7899 22.5703 45.8335 23.5347C44.8771 24.4991 43.6567 25.1589 42.326 25.4308C40.9953 25.7028 39.6139 25.5748 38.3558 25.0629C37.0978 24.551 36.0194 23.6783 35.2565 22.5545C34.4937 21.4308 34.0805 20.1064 34.0691 18.7483C34.069 16.9183 34.792 15.1624 36.0805 13.863C37.3691 12.5637 39.1189 11.826 40.9488 11.8108Z" fill="black"/>
<path d="M24.877 47.3308H57.0207C57.3274 47.3308 57.6215 47.209 57.8383 46.9922C58.0551 46.7753 58.177 46.4812 58.177 46.1746V40.7171C58.1597 37.6375 56.942 34.6862 54.7829 32.4903C52.6237 30.2944 49.6933 29.0272 46.6145 28.958H46.5451C46.3397 28.9588 46.1389 29.019 45.967 29.1314C44.3833 29.9074 42.643 30.3108 40.8795 30.3108C39.1159 30.3108 37.3757 29.9074 35.792 29.1314C35.616 29.0443 35.4217 29.0007 35.2254 29.0043C32.1637 29.0851 29.253 30.3514 27.1068 32.5365C24.9606 34.7215 23.7466 37.6544 23.7207 40.7171V46.1861C23.7237 46.4908 23.8469 46.7819 24.0634 46.9963C24.2799 47.2106 24.5723 47.3308 24.877 47.3308ZM26.0332 40.7055C26.0448 38.2798 26.9846 35.9505 28.6596 34.1959C30.3346 32.4414 32.6178 31.3946 35.0404 31.2705C36.8886 32.1404 38.9061 32.5914 40.9488 32.5914C42.9915 32.5914 45.009 32.1404 46.8573 31.2705C49.2818 31.3947 51.5667 32.4431 53.242 34.2001C54.9173 35.9572 55.8558 38.2893 55.8645 40.7171V45.0299H26.0332V40.7055Z" fill="black"/>
<path d="M51.7011 55.8757C51.6217 55.6745 51.4876 55.4996 51.3139 55.3708C51.1401 55.2421 50.9338 55.1646 50.7182 55.1472L45.2839 54.731L41.9076 49.6666C41.8019 49.5092 41.659 49.3803 41.4916 49.2911C41.3243 49.2019 41.1376 49.1553 40.9479 49.1553C40.7583 49.1553 40.5716 49.2019 40.4042 49.2911C40.2369 49.3803 40.094 49.5092 39.9882 49.6666L36.612 54.731L31.1776 55.1472C30.9621 55.1644 30.7556 55.2417 30.5818 55.3703C30.408 55.499 30.2737 55.6737 30.1942 55.8748C30.1147 56.076 30.0932 56.2953 30.1322 56.508C30.1711 56.7207 30.2689 56.9183 30.4145 57.0782L34.5886 61.7032C34.4382 62.2697 33.0276 67.6 32.912 68.0047C32.8533 68.2229 32.8599 68.4534 32.9308 68.6678C33.0017 68.8823 33.1338 69.0713 33.3109 69.2115C33.488 69.3517 33.7023 69.4369 33.9273 69.4567C34.1523 69.4765 34.3781 69.43 34.577 69.3229L40.9479 65.9119L47.3189 69.3113C47.5186 69.4376 47.7523 69.4997 47.9884 69.4891C48.2245 69.4786 48.4517 69.3959 48.6394 69.2523C48.8271 69.1087 48.9663 68.911 49.0382 68.6859C49.1101 68.4608 49.1114 68.219 49.0417 67.9932C48.9145 67.6232 47.527 62.2119 47.3651 61.6916L51.5392 57.0666C51.6727 56.902 51.7585 56.7039 51.787 56.4938C51.8156 56.2838 51.7858 56.0699 51.7011 55.8757ZM45.1682 60.6047C45.0393 60.7462 44.9476 60.9174 44.9012 61.1031C44.8547 61.2887 44.8551 61.483 44.9023 61.6685L46.0586 66.016L41.4336 63.5879C41.2663 63.4988 41.0796 63.4522 40.8901 63.4522C40.7006 63.4522 40.514 63.4988 40.3467 63.5879L35.7217 66.016L36.8779 61.6685C36.9251 61.483 36.9255 61.2887 36.8791 61.1031C36.8327 60.9174 36.7409 60.7462 36.612 60.6047L33.5942 57.2747L37.2364 56.9857C37.4099 56.9716 37.578 56.9186 37.7282 56.8305C37.8783 56.7424 38.0066 56.6215 38.1036 56.4769L40.9479 52.3954L43.6767 56.4769C43.7736 56.6215 43.9019 56.7424 44.0521 56.8305C44.2022 56.9186 44.3703 56.9716 44.5439 56.9857L48.1861 57.2747L45.1682 60.6047Z" fill="black"/>
<path d="M67.5417 62.8129L63.5989 62.5123L60.9973 58.7545C60.8915 58.5971 60.7487 58.4681 60.5813 58.379C60.414 58.2898 60.2272 58.2432 60.0376 58.2432C59.848 58.2432 59.6613 58.2898 59.4939 58.379C59.3266 58.4681 59.1837 58.5971 59.0779 58.7545C58.4998 59.5986 57.1586 61.6336 56.5689 62.5007L52.5682 62.8129C52.3527 62.8301 52.1463 62.9074 51.9724 63.036C51.7986 63.1647 51.6643 63.3394 51.5848 63.5406C51.5054 63.7417 51.4839 63.961 51.5228 64.1737C51.5617 64.3864 51.6595 64.584 51.8051 64.7439L54.8923 68.1317L53.6436 72.7567C53.5849 72.9748 53.5914 73.2053 53.6623 73.4198C53.7332 73.6342 53.8654 73.8232 54.0425 73.9634C54.2196 74.1036 54.4338 74.1889 54.6588 74.2087C54.8838 74.2285 55.1097 74.1819 55.3086 74.0748L60.0376 71.5542L64.7667 74.0748C64.961 74.165 65.1766 74.1993 65.3894 74.1741C65.6021 74.1489 65.8037 74.065 65.9716 73.9319C66.1394 73.7988 66.267 73.6217 66.3401 73.4203C66.4132 73.2189 66.4289 73.0012 66.3854 72.7914L65.1482 68.1664L68.2354 64.7786C68.3892 64.6243 68.4963 64.4297 68.5443 64.2172C68.5923 64.0047 68.5793 63.783 68.5068 63.5776C68.4343 63.3721 68.3052 63.1914 68.1345 63.0561C67.9637 62.9208 67.7582 62.8365 67.5417 62.8129ZM63.1017 67.0332C62.9709 67.1759 62.878 67.3491 62.8316 67.537C62.7851 67.7249 62.7865 67.9214 62.8357 68.1086L63.5064 70.7795C63.1132 70.6292 60.4192 68.9873 60.0376 69.0798C59.6561 68.9757 56.9389 70.6292 56.5689 70.7679C56.6961 70.2476 57.147 68.6173 57.2857 68.0623C57.3349 67.8751 57.3364 67.6786 57.2899 67.4907C57.2435 67.3029 57.1506 67.1297 57.0198 66.987L55.112 64.9982L57.3089 64.8248C57.4824 64.8108 57.6505 64.7577 57.8007 64.6696C57.9508 64.5815 58.0791 64.4607 58.1761 64.3161L60.0376 61.5295L61.8876 64.3045C62.2923 65.0561 63.9226 64.8248 64.9632 64.9867L63.1017 67.0332Z" fill="black"/>
<path d="M29.3877 62.8129L25.387 62.5007C24.7858 61.6336 23.4561 59.6101 22.878 58.7545C22.7722 58.5971 22.6293 58.4681 22.462 58.379C22.2946 58.2898 22.1079 58.2432 21.9183 58.2432C21.7287 58.2432 21.5419 58.2898 21.3746 58.379C21.2072 58.4681 21.0644 58.5971 20.9586 58.7545L18.4495 62.5123L14.3564 62.8129C14.1399 62.8282 13.932 62.904 13.7566 63.0319C13.5811 63.1597 13.4452 63.3343 13.3644 63.5358C13.2836 63.7373 13.2611 63.9574 13.2995 64.1711C13.338 64.3847 13.4358 64.5832 13.5817 64.7439L16.6689 68.1317L15.4317 72.7567C15.375 72.9733 15.3823 73.2018 15.4529 73.4143C15.5235 73.6268 15.6543 73.8143 15.8295 73.9539C16.0046 74.0935 16.2164 74.1792 16.4394 74.2007C16.6623 74.2221 16.8866 74.1784 17.0852 74.0748L21.8142 71.5542L26.5433 74.0748C26.7398 74.1849 26.9642 74.2351 27.1889 74.2194C27.4135 74.2037 27.6287 74.1227 27.808 73.9864C27.9873 73.8501 28.1229 73.6644 28.1981 73.4521C28.2733 73.2398 28.2849 73.0102 28.2314 72.7914L26.9827 68.1664L30.0698 64.7786C30.2233 64.625 30.3304 64.4314 30.379 64.2198C30.4275 64.0082 30.4155 63.7872 30.3444 63.5821C30.2732 63.377 30.1457 63.1961 29.9765 63.0601C29.8073 62.9241 29.6033 62.8384 29.3877 62.8129ZM24.8783 67.0332C24.1845 67.7039 24.9592 69.1029 25.1095 70.0048L25.3292 70.8142L22.4502 69.2648C22.2829 69.1757 22.0963 69.1291 21.9067 69.1291C21.7172 69.1291 21.5306 69.1757 21.3633 69.2648L18.3917 70.7795L19.1086 68.0623C19.1578 67.8751 19.1592 67.6786 19.1128 67.4907C19.0663 67.3029 18.9734 67.1297 18.8427 66.987L16.9348 64.9982L19.1433 64.8248C19.3168 64.8108 19.4849 64.7577 19.6351 64.6696C19.7852 64.5815 19.9136 64.4607 20.0105 64.3161C20.0105 64.3161 21.8605 61.5179 21.8605 61.5411L23.722 64.3161C24.1152 65.0676 25.757 64.8364 26.7861 64.9982L24.8783 67.0332Z" fill="black"/>
<path d="M14.715 59.9339C14.9315 59.9346 15.1438 59.8745 15.3278 59.7605C15.4571 59.6802 15.5692 59.5752 15.6578 59.4515C15.7464 59.3277 15.8097 59.1877 15.8441 59.0395C15.8785 58.8913 15.8832 58.7377 15.8581 58.5876C15.833 58.4375 15.7786 58.2939 15.6978 58.1649C12.7923 53.4941 11.2541 48.1025 11.2578 42.6018C11.2708 36.9171 12.9109 31.355 15.9843 26.5727C19.0577 21.7905 23.436 17.9881 28.6016 15.6149C28.7398 15.5519 28.8642 15.4622 28.9677 15.3512C29.0713 15.2401 29.1519 15.1097 29.2051 14.9674C29.2582 14.8251 29.2828 14.6738 29.2775 14.522C29.2721 14.3703 29.2369 14.221 29.1739 14.0828C29.1109 13.9447 29.0213 13.8203 28.9102 13.7167C28.7991 13.6132 28.6687 13.5325 28.5264 13.4794C28.3842 13.4262 28.2328 13.4016 28.0811 13.407C27.9293 13.4123 27.7801 13.4475 27.6419 13.5105C22.0736 16.0689 17.354 20.1679 14.0409 25.323C10.7278 30.4781 8.95964 36.4738 8.94533 42.6018C8.93838 48.5357 10.5969 54.3525 13.7322 59.3905C13.8364 59.5571 13.9812 59.6945 14.1532 59.7896C14.3252 59.8846 14.5185 59.9343 14.715 59.9339Z" fill="black"/>
<path d="M53.3094 15.6149C58.475 17.9881 62.8533 21.7905 65.9267 26.5727C69.0001 31.355 70.6402 36.9171 70.6532 42.6018C70.6569 48.1025 69.1187 53.4941 66.2132 58.1649C66.1324 58.2939 66.0779 58.4375 66.0528 58.5876C66.0277 58.7377 66.0325 58.8913 66.0669 59.0395C66.1013 59.1877 66.1646 59.3277 66.2532 59.4515C66.3418 59.5752 66.4539 59.6802 66.5832 59.7605C66.7672 59.8745 66.9795 59.9346 67.196 59.9339C67.3925 59.9343 67.5858 59.8846 67.7578 59.7896C67.9297 59.6945 68.0746 59.5571 68.1788 59.3905C71.3141 54.3525 72.9726 48.5357 72.9657 42.6018C72.9513 36.4738 71.1832 30.4781 67.8701 25.323C64.557 20.1679 59.8374 16.0689 54.2691 13.5105C54.1309 13.4475 53.9817 13.4123 53.8299 13.407C53.6781 13.4016 53.5268 13.4262 53.3845 13.4794C53.2423 13.5325 53.1119 13.6132 53.0008 13.7167C52.8897 13.8203 52.8001 13.9447 52.7371 14.0828C52.674 14.221 52.6389 14.3703 52.6335 14.522C52.6282 14.6738 52.6528 14.8251 52.7059 14.9674C52.7591 15.1097 52.8397 15.2401 52.9433 15.3512C53.0468 15.4622 53.1712 15.5519 53.3094 15.6149Z" fill="black"/>
<path d="M62.8142 56.1302C62.987 56.2282 63.1821 56.2799 63.3808 56.2805C63.5845 56.2813 63.7848 56.2283 63.9615 56.1268C64.1381 56.0253 64.2848 55.8789 64.3867 55.7024C66.6524 51.7075 67.8473 47.1948 67.8554 42.6021C67.8495 37.8901 66.6078 33.2621 64.2543 29.18C61.9008 25.0979 58.5178 21.7044 54.4429 19.3384C54.3117 19.2614 54.1665 19.2112 54.0158 19.1905C53.865 19.1697 53.7117 19.179 53.5645 19.2177C53.4173 19.2563 53.2793 19.3237 53.1582 19.4158C53.0371 19.5079 52.9354 19.6231 52.8589 19.7546C52.7824 19.8866 52.7328 20.0324 52.713 20.1836C52.6931 20.3348 52.7034 20.4884 52.7431 20.6357C52.7829 20.7829 52.8514 20.9208 52.9447 21.0415C53.038 21.1621 53.1542 21.2631 53.2867 21.3387C57.0103 23.502 60.1016 26.6039 62.2522 30.3349C64.4028 34.0659 65.5374 38.2957 65.5429 42.6021C65.5426 46.8057 64.451 50.9373 62.3748 54.5924C62.2358 54.856 62.2039 55.163 62.2857 55.4495C62.3676 55.7361 62.5569 55.9799 62.8142 56.1302Z" fill="black"/>
<path d="M28.6586 21.3387C28.7911 21.2631 28.9073 21.1621 29.0006 21.0415C29.0939 20.9208 29.1624 20.7829 29.2022 20.6357C29.2419 20.4884 29.2522 20.3348 29.2323 20.1836C29.2124 20.0324 29.1629 19.8866 29.0864 19.7546C29.0099 19.6231 28.9082 19.5079 28.7871 19.4158C28.666 19.3237 28.5279 19.2563 28.3808 19.2177C28.2336 19.179 28.0803 19.1697 27.9295 19.1905C27.7788 19.2112 27.6336 19.2614 27.5023 19.3384C23.4275 21.7044 20.0445 25.0979 17.691 29.18C15.3375 33.2621 14.0958 37.8901 14.0898 42.6021C14.098 47.1948 15.2929 51.7075 17.5586 55.7024C17.6605 55.8789 17.8072 56.0253 17.9838 56.1268C18.1604 56.2283 18.3608 56.2813 18.5645 56.2805C18.7632 56.2799 18.9583 56.2282 19.1311 56.1302C19.3805 55.9725 19.5601 55.7253 19.6332 55.4394C19.7063 55.1535 19.6673 54.8505 19.5242 54.5924C17.47 50.9431 16.3946 46.8245 16.4023 42.6368C16.4018 38.3245 17.5336 34.0876 19.6844 30.35C21.8353 26.6123 24.9299 23.5049 28.6586 21.3387Z" fill="black"/>
</svg>
