<svg width="83" height="83" viewBox="0 0 83 83" fill="none" xmlns="http://www.w3.org/2000/svg">
<circle cx="41.5" cy="41.5" r="41.5" fill="#FFBE2E"/>
<rect x="19.5293" y="19.5293" width="43.9412" height="43.9412" rx="2.75407" fill="white"/>
<path d="M66.1297 65.782C65.6496 65.782 65.2607 65.3929 65.2607 64.913V8.00851H23.8974C19.9485 8.00851 16.736 11.221 16.736 15.1699V64.913C16.736 65.3929 16.3471 65.782 15.867 65.782C15.387 65.782 14.998 65.3929 14.998 64.913V15.1699C14.998 10.2628 18.9903 6.27051 23.8974 6.27051H66.1297C66.6098 6.27051 66.9987 6.65962 66.9987 7.13951V64.913C66.9987 65.3929 66.6098 65.782 66.1297 65.782Z" fill="black"/>
<path d="M66.1303 73.8118H35.8625C35.3824 73.8118 34.9935 73.4227 34.9935 72.9428C34.9935 72.4629 35.3824 72.0738 35.8625 72.0738H65.2613V57.7527H23.8968C21.9838 57.7527 20.1855 58.4973 18.8329 59.8495C17.4807 61.2017 16.736 63 16.736 64.9132C16.736 68.8616 19.9483 72.0738 23.8968 72.0738H24.4448C24.9249 72.0738 25.3138 72.4629 25.3138 72.9428C25.3138 73.4227 24.9249 73.8118 24.4448 73.8118H23.8968C18.9901 73.8118 14.998 69.8199 14.998 64.9132C14.998 62.536 15.9235 60.3012 17.604 58.6206C19.2846 56.9401 21.5192 56.0146 23.8966 56.0146H66.1301C66.6102 56.0146 66.9991 56.4038 66.9991 56.8836V72.9428C66.9993 73.4227 66.6104 73.8118 66.1303 73.8118Z" fill="black"/>
<path d="M35.8653 77.7296C35.743 77.7296 35.6206 77.7038 35.5056 77.6517L30.1571 75.2205L24.8087 77.6517C24.5397 77.774 24.2268 77.7511 23.9786 77.5912C23.7302 77.4313 23.5801 77.1561 23.5801 76.8606V64.9129C23.5801 64.4331 23.969 64.0439 24.4491 64.0439H35.8653C36.3454 64.0439 36.7343 64.4331 36.7343 64.9129V76.8606C36.7343 77.1561 36.5842 77.4313 36.3358 77.5912C36.1933 77.683 36.0297 77.7296 35.8653 77.7296ZM30.1571 73.3971C30.2798 73.3971 30.4025 73.423 30.5168 73.475L34.9963 75.5111V65.7819H25.3181V75.5111L29.7974 73.475C29.9117 73.423 30.0344 73.3971 30.1571 73.3971Z" fill="black"/>
<path d="M59.9973 73.8129C59.6643 73.8129 59.3463 73.6203 59.2026 73.2962C56.6481 67.5389 56.6512 61.891 59.2122 56.5095C59.4185 56.0762 59.9364 55.8918 60.3703 56.0983C60.8036 56.3044 60.988 56.823 60.7817 57.2564C58.4158 62.2284 58.4188 67.2444 60.7913 72.5913C60.986 73.0301 60.788 73.5434 60.3494 73.738C60.2349 73.7889 60.1153 73.8129 59.9973 73.8129Z" fill="black"/>
<path d="M23.9022 57.7509C23.4221 57.7509 23.0332 57.3618 23.0332 56.8819V14.2801C23.0332 13.8002 23.4221 13.4111 23.9022 13.4111C24.3823 13.4111 24.7712 13.8002 24.7712 14.2801V56.8819C24.7712 57.3618 24.3823 57.7509 23.9022 57.7509Z" fill="black"/>
<path d="M45.0151 47.2743C36.5989 47.2743 29.752 40.4272 29.752 32.0112C29.752 23.5952 36.5989 16.748 45.0151 16.748C53.4313 16.748 60.2782 23.5952 60.2782 32.0112C60.2782 40.4272 53.4313 47.2743 45.0151 47.2743ZM45.0151 18.486C37.5572 18.486 31.49 24.5535 31.49 32.0112C31.49 39.4689 37.5574 45.5363 45.0151 45.5363C52.4728 45.5363 58.5402 39.4689 58.5402 32.0112C58.5402 24.5535 52.4728 18.486 45.0151 18.486Z" fill="black"/>
<path d="M45.1405 41.6285C44.6604 41.6285 44.2715 41.2393 44.2715 40.7594V23.2645C44.2715 22.7846 44.6604 22.3955 45.1405 22.3955C45.6206 22.3955 46.0095 22.7846 46.0095 23.2645V40.7594C46.0095 41.2393 45.6206 41.6285 45.1405 41.6285Z" fill="black"/>
<path d="M54.8702 33.93C54.5023 33.93 54.1607 33.6946 54.0427 33.3253L52.0798 27.1857L50.1168 33.3253C49.9707 33.7825 49.4822 34.0342 49.0246 33.8885C48.5674 33.7423 48.3153 33.2532 48.4614 32.7962L51.2519 24.0673C51.367 23.7072 51.7015 23.4629 52.0796 23.4629C52.4576 23.4629 52.7921 23.7072 52.9073 24.0673L55.6977 32.7962C55.8439 33.2532 55.5918 33.7423 55.1346 33.8885C55.047 33.9167 54.9579 33.93 54.8702 33.93Z" fill="black"/>
<path d="M52.0789 36.8329C50.0824 36.8329 48.2696 35.5204 47.3478 33.4078C47.2307 33.1393 47.2569 32.8296 47.4174 32.5844C47.5779 32.3392 47.8513 32.1914 48.1445 32.1914H56.0135C56.3067 32.1914 56.5801 32.3392 56.7406 32.5844C56.9011 32.8298 56.9273 33.1393 56.8101 33.408C55.8882 35.5206 54.0753 36.8329 52.0789 36.8329ZM49.7034 33.9292C50.3523 34.6684 51.1941 35.0949 52.0789 35.0949C52.9636 35.0949 53.8054 34.6686 54.4544 33.9292H49.7034Z" fill="black"/>
<path d="M50.2355 41.6267H40.0428C39.5627 41.6267 39.1738 41.2376 39.1738 40.7577C39.1738 40.2778 39.5627 39.8887 40.0428 39.8887H50.2355C50.7156 39.8887 51.1045 40.2778 51.1045 40.7577C51.1045 41.2376 50.7156 41.6267 50.2355 41.6267Z" fill="black"/>
<path d="M53.236 25.2009H36.7928C36.3127 25.2009 35.9238 24.8118 35.9238 24.3319C35.9238 23.852 36.3127 23.4629 36.7928 23.4629H53.236C53.7161 23.4629 54.105 23.852 54.105 24.3319C54.105 24.8118 53.7159 25.2009 53.236 25.2009Z" fill="black"/>
<path d="M40.7432 33.93C40.3754 33.93 40.0337 33.6946 39.9157 33.3253L37.9528 27.1857L35.9899 33.3253C35.8437 33.7825 35.3552 34.0342 34.8976 33.8885C34.4404 33.7423 34.1883 33.2532 34.3345 32.7962L37.1249 24.0673C37.24 23.7072 37.5745 23.4629 37.9526 23.4629C38.3307 23.4629 38.6652 23.7072 38.7803 24.0673L41.5707 32.7962C41.7169 33.2532 41.4648 33.7423 41.0076 33.8885C40.9203 33.9167 40.8309 33.93 40.7432 33.93Z" fill="black"/>
<path d="M37.9502 36.8331C35.9537 36.8331 34.1409 35.5208 33.2189 33.408C33.1018 33.1393 33.1279 32.8298 33.2885 32.5844C33.449 32.3392 33.7223 32.1914 34.0156 32.1914H41.8848C42.178 32.1914 42.4514 32.3392 42.6119 32.5844C42.7724 32.8298 42.7986 33.1393 42.6814 33.408C41.7595 35.5208 39.9466 36.8331 37.9502 36.8331ZM35.5746 33.9294C36.2236 34.6686 37.0654 35.0951 37.9502 35.0951C38.8349 35.0951 39.6767 34.6688 40.3257 33.9294H35.5746Z" fill="black"/>
</svg>
