<svg width="83" height="83" viewBox="0 0 83 83" fill="none" xmlns="http://www.w3.org/2000/svg">
<circle cx="41.5" cy="41.5" r="41.5" fill="#FFBE2E"/>
<rect x="19.5293" y="19.5293" width="43.9412" height="43.9412" rx="2.75407" fill="white"/>
<g clip-path="url(#clip0_18_240803)">
<path fill-rule="evenodd" clip-rule="evenodd" d="M14.4981 39.1623C14.4981 39.9439 13.8634 40.5786 13.0818 40.5786C12.3002 40.5786 11.6655 39.9439 11.6655 39.1623C11.6655 21.9616 25.63 7.99707 42.8307 7.99707C60.0314 7.99707 73.9959 21.9616 73.9959 39.1623C73.9959 56.363 60.0314 70.3275 42.8307 70.3275C42.0491 70.3275 41.4144 69.6929 41.4144 68.9112C41.4144 68.1296 42.0491 67.4949 42.8307 67.4949C58.4682 67.4949 71.1634 54.7997 71.1634 39.1623C71.1634 23.5248 58.4682 10.8296 42.8307 10.8296C27.1933 10.8296 14.4981 23.5248 14.4981 39.1623ZM23.7074 40.5786C33.4791 40.5786 41.4144 48.5139 41.4144 58.2856C41.4144 68.0596 33.4791 75.995 23.7074 75.995C13.9334 75.995 5.99805 68.0596 5.99805 58.2856C5.99805 48.5139 13.9334 40.5786 23.7074 40.5786ZM33.1734 46.8177C30.5998 44.6898 27.3006 43.4111 23.7074 43.4111C15.4967 43.4111 8.83295 50.0772 8.83295 58.2856C8.83295 61.8811 10.1092 65.1804 12.2372 67.7539L33.1734 46.8177ZM14.2391 69.7559C16.8127 71.8838 20.1119 73.1601 23.7074 73.1601C31.9158 73.1601 38.5819 66.4963 38.5819 58.2856C38.5819 54.6924 37.3033 51.3932 35.1753 48.8196L14.2391 69.7559ZM54.4573 48.7846C55.0103 49.3376 55.0103 50.2359 54.4573 50.7889C53.9043 51.3419 53.006 51.3419 52.453 50.7889L41.8298 40.1632C41.5638 39.8973 41.4144 39.5379 41.4144 39.1623V17.2041C41.4144 16.4224 42.0491 15.7878 42.8307 15.7878C43.6124 15.7878 44.247 16.4224 44.247 17.2041V38.5766L54.4573 48.7846Z" fill="black"/>
</g>
<defs>
<clipPath id="clip0_18_240803">
<rect width="68" height="68" fill="white" transform="translate(6 8)"/>
</clipPath>
</defs>
</svg>
