<svg width="83" height="83" viewBox="0 0 83 83" fill="none" xmlns="http://www.w3.org/2000/svg">
<circle cx="41.4544" cy="41.4544" r="41.4544" fill="#FFBE2E"/>
<rect x="19.5078" y="19.5078" width="43.8929" height="43.8929" rx="2.75407" fill="white"/>
<g clip-path="url(#clip0_18_240816)">
<path d="M38.9248 25.1641C38.9248 24.8958 39.0314 24.6385 39.2211 24.4487C39.4109 24.259 39.6682 24.1524 39.9365 24.1524H53.3172C53.5855 24.1524 53.8429 24.259 54.0326 24.4487C54.2224 24.6385 54.3289 24.8958 54.3289 25.1641C54.3289 25.4325 54.2224 25.6898 54.0326 25.8795C53.8429 26.0693 53.5855 26.1758 53.3172 26.1758H39.9365C39.6682 26.1758 39.4109 26.0693 39.2211 25.8795C39.0314 25.6898 38.9248 25.4325 38.9248 25.1641ZM39.9365 31.1008H61.069C61.3373 31.1008 61.5947 30.9942 61.7844 30.8044C61.9741 30.6147 62.0807 30.3574 62.0807 30.089C62.0807 29.8207 61.9741 29.5634 61.7844 29.3736C61.5947 29.1839 61.3373 29.0773 61.069 29.0773H39.9368C39.6685 29.0773 39.4112 29.1839 39.2214 29.3736C39.0317 29.5634 38.9251 29.8207 38.9251 30.089C38.9251 30.3574 39.0317 30.6147 39.2214 30.8044C39.4112 30.9942 39.6685 31.1008 39.9368 31.1008H39.9365ZM61.0687 33.9972H39.9368C39.6685 33.9972 39.4112 34.1038 39.2214 34.2935C39.0317 34.4832 38.9251 34.7406 38.9251 35.0089C38.9251 35.2772 39.0317 35.5345 39.2214 35.7243C39.4112 35.914 39.6685 36.0206 39.9368 36.0206H61.069C61.3373 36.0206 61.5947 35.914 61.7844 35.7243C61.9741 35.5345 62.0807 35.2772 62.0807 35.0089C62.0807 34.7406 61.9741 34.4832 61.7844 34.2935C61.5947 34.1038 61.3373 33.9972 61.069 33.9972H61.0687ZM61.0687 38.9176H39.9368C39.6685 38.9176 39.4112 39.0242 39.2214 39.2139C39.0317 39.4036 38.9251 39.661 38.9251 39.9293C38.9251 40.1976 39.0317 40.455 39.2214 40.6447C39.4112 40.8344 39.6685 40.941 39.9368 40.941H61.069C61.3373 40.941 61.5947 40.8344 61.7844 40.6447C61.9741 40.455 62.0807 40.1976 62.0807 39.9293C62.0807 39.661 61.9741 39.4036 61.7844 39.2139C61.5947 39.0242 61.3373 38.9176 61.069 38.9176H61.0687ZM71.6267 59.6308V69.0051C71.6251 70.4812 71.0379 71.8965 69.9941 72.9403C68.9503 73.9841 67.5351 74.5713 66.059 74.573H23.8357C22.3596 74.5713 20.9444 73.9841 19.9006 72.9403C18.8568 71.8965 18.2696 70.4812 18.268 69.0051V44.7269L4.34426 32.6854C4.24371 32.5985 4.16127 32.4926 4.10165 32.3738C4.04203 32.2551 4.0064 32.1257 3.99679 31.9931C3.98718 31.8606 4.00378 31.7274 4.04564 31.6013C4.08751 31.4752 4.15381 31.3585 4.24077 31.258L24.5575 7.76604C24.6445 7.66549 24.7504 7.58306 24.8692 7.52345C24.988 7.46384 25.1173 7.42823 25.2499 7.41865C25.3825 7.40907 25.5156 7.4257 25.6418 7.4676C25.7679 7.5095 25.8846 7.57584 25.9851 7.66284L33.2635 13.9593L46.3754 7.9824C46.4963 7.92725 46.6269 7.89646 46.7597 7.8918C46.8925 7.88714 47.025 7.90869 47.1495 7.95522C47.274 8.00176 47.3881 8.07236 47.4852 8.163C47.5824 8.25364 47.6608 8.36255 47.7159 8.48349L51.6905 17.2036H57.9594C58.2278 17.2037 58.4852 17.3104 58.675 17.5001L66.7461 25.5711C66.9358 25.7609 67.0424 26.0183 67.0425 26.2867V41.0217C69.402 40.6953 71.7988 41.2546 73.7702 42.5915C75.7416 43.9285 77.1479 45.9483 77.7177 48.2611C78.2874 50.574 77.9803 53.0159 76.8554 55.1155C75.7306 57.2152 73.8679 58.8238 71.6267 59.6308ZM65.0183 41.528V27.2987H59.7705C59.0222 27.2978 58.3047 27.0001 57.7755 26.471C57.2463 25.9418 56.9486 25.2243 56.9477 24.4759V19.2277H35.9875V39.567L39.7921 43.2865C40.6544 44.1301 41.3346 44.727 42.2392 44.727H60.7023C61.8103 43.2748 63.3066 42.1657 65.0183 41.528ZM58.9713 24.4759C58.9715 24.6877 59.0558 24.8907 59.2055 25.0405C59.3553 25.1902 59.5583 25.2745 59.7701 25.2747H63.587L58.9713 20.6594V24.4759ZM46.294 10.2439L33.567 16.0454C33.5289 16.0659 33.4894 16.0839 33.4489 16.0993L19.8786 22.2852L26.326 36.4308H30.9767C32.235 36.4308 33.1983 37.0036 33.9633 37.6391V18.2156C33.9633 17.9473 34.0699 17.69 34.2597 17.5003C34.4494 17.3105 34.7067 17.2039 34.9751 17.2039H49.4658L46.294 10.2439ZM18.268 42.0512V41.1828C18.27 39.9223 18.7719 38.714 19.6636 37.8231C20.5554 36.9321 21.7641 36.4313 23.0246 36.4305H24.102L17.6177 22.2038C17.5626 22.0829 17.5318 21.9523 17.5272 21.8195C17.5225 21.6867 17.5441 21.5543 17.5906 21.4299C17.6371 21.3054 17.7077 21.1913 17.7984 21.0941C17.889 20.9969 17.9979 20.9186 18.1188 20.8635L31.2381 14.8829L25.4263 9.85538L6.4336 31.8172L18.268 42.0512ZM69.6029 60.1187C68.2438 60.2979 66.8621 60.1846 65.5503 59.7862C64.2386 59.3879 63.0272 58.7139 61.9972 57.8093C60.9672 56.9046 60.1424 55.7903 59.5781 54.5409C59.0139 53.2916 58.7232 51.9361 58.7254 50.5652C58.7244 49.2532 58.9928 47.955 59.5141 46.751H42.2389C40.4389 46.751 39.2471 45.5848 38.3767 44.7335L34.2942 40.742C34.2757 40.7251 34.2577 40.7077 34.2405 40.6895L33.4281 39.8946C32.5352 39.025 31.8817 38.4541 30.9769 38.4541H23.0246C22.3006 38.4543 21.6063 38.7418 21.094 39.2534C20.5817 39.7649 20.2933 40.4588 20.292 41.1828V69.0051C20.293 69.9446 20.6667 70.8454 21.3311 71.5098C21.9954 72.1742 22.8962 72.5479 23.8357 72.549H66.059C66.9985 72.548 67.8993 72.1743 68.5637 71.5099C69.2281 70.8455 69.6018 69.9447 69.6029 69.0051V60.1187ZM75.9737 50.5652C75.9737 49.0597 75.5273 47.5879 74.6908 46.3361C73.8544 45.0842 72.6656 44.1085 71.2746 43.5324C69.8837 42.9562 68.3531 42.8054 66.8765 43.0991C65.3999 43.3928 64.0435 44.1178 62.9789 45.1824C61.9143 46.247 61.1893 47.6033 60.8956 49.0799C60.6019 50.5566 60.7526 52.0871 61.3287 53.4781C61.9049 54.869 62.8806 56.0579 64.1324 56.8943C65.3842 57.7308 66.8559 58.1772 68.3615 58.1772C70.3796 58.1749 72.3145 57.3722 73.7415 55.9452C75.1686 54.5182 75.9713 52.5834 75.9737 50.5652ZM73.514 46.74C73.4201 46.6461 73.3085 46.5716 73.1858 46.5207C73.063 46.4699 72.9315 46.4437 72.7986 46.4437C72.6657 46.4437 72.5342 46.4699 72.4114 46.5207C72.2886 46.5716 72.1771 46.6461 72.0832 46.74L66.5794 52.2438L64.6401 50.3045C64.4504 50.1147 64.193 50.0081 63.9247 50.0081C63.6563 50.0081 63.399 50.1147 63.2092 50.3045C63.0195 50.4942 62.9129 50.7516 62.9129 51.0199C62.9129 51.2882 63.0195 51.5456 63.2092 51.7353L65.8641 54.3901C65.9581 54.484 66.0696 54.5586 66.1924 54.6094C66.3151 54.6603 66.4467 54.6864 66.5796 54.6864C66.7124 54.6864 66.844 54.6603 66.9667 54.6094C67.0895 54.5586 67.201 54.484 67.295 54.3901L73.514 48.1709C73.608 48.077 73.6825 47.9654 73.7334 47.8427C73.7842 47.7199 73.8104 47.5883 73.8104 47.4555C73.8104 47.3226 73.7842 47.191 73.7334 47.0683C73.6825 46.9455 73.608 46.834 73.514 46.74ZM64.1867 66.232H25.708C25.4397 66.232 25.1823 66.3386 24.9926 66.5283C24.8029 66.718 24.6963 66.9754 24.6963 67.2437C24.6963 67.512 24.8029 67.7693 24.9926 67.9591C25.1823 68.1488 25.4397 68.2554 25.708 68.2554H64.1867C64.455 68.2554 64.7124 68.1488 64.9021 67.9591C65.0918 67.7693 65.1984 67.512 65.1984 67.2437C65.1984 66.9754 65.0918 66.718 64.9021 66.5283C64.7124 66.3386 64.455 66.232 64.1867 66.232ZM25.708 61.3449H35.5777C35.8461 61.3449 36.1034 61.2383 36.2931 61.0486C36.4829 60.8589 36.5895 60.6015 36.5895 60.3332C36.5895 60.0649 36.4829 59.8075 36.2931 59.6178C36.1034 59.4281 35.8461 59.3215 35.5777 59.3215H25.708C25.4397 59.3215 25.1823 59.4281 24.9926 59.6178C24.8029 59.8075 24.6963 60.0649 24.6963 60.3332C24.6963 60.6015 24.8029 60.8589 24.9926 61.0486C25.1823 61.2383 25.4397 61.3449 25.708 61.3449Z" fill="black"/>
</g>
<defs>
<clipPath id="clip0_18_240816">
<rect width="74" height="74" fill="white" transform="translate(3.99609 3.99512)"/>
</clipPath>
</defs>
</svg>
