<svg width="66" height="64" viewBox="0 0 66 64" fill="none" xmlns="http://www.w3.org/2000/svg">
<circle cx="46" cy="38" r="20" fill="#FFBE2E"/>
<mask id="mask0_4756_41388" style="mask-type:luminance" maskUnits="userSpaceOnUse" x="0" y="0" width="64" height="64">
<path d="M0 3.8147e-06H64V64H0V3.8147e-06Z" fill="white"/>
</mask>
<g mask="url(#mask0_4756_41388)">
<path d="M63.0621 36.888C63.0621 48.8216 53.3879 58.4956 41.4544 58.4956C29.5208 58.4956 19.8467 48.8216 19.8467 36.888C19.8467 24.9544 29.5208 15.2804 41.4544 15.2804C53.3879 15.2804 63.0621 24.9544 63.0621 36.888Z" stroke="#212121" stroke-width="1.5" stroke-miterlimit="10" stroke-linecap="round" stroke-linejoin="round"/>
<path d="M52.2084 50.2492C49.2671 52.6195 45.5267 54.0385 41.4551 54.0385C31.9831 54.0385 24.3047 46.36 24.3047 36.888C24.3047 32.8276 25.7156 29.0968 28.0741 26.1592" stroke="#212121" stroke-width="1.5" stroke-miterlimit="10" stroke-linecap="round" stroke-linejoin="round"/>
<path d="M47.6212 52.9291C51.3823 51.5945 54.2816 48.4635 55.2612 47.0649C57.3632 44.2181 58.6055 40.6981 58.6055 36.888C58.6055 27.416 50.927 19.7375 41.4552 19.7375C37.6353 19.7375 34.1072 20.9863 31.2567 23.0979C29.3308 24.4982 25.3273 28.4514 24.7207 33.0618" stroke="#212121" stroke-width="1.5" stroke-miterlimit="10" stroke-linecap="round" stroke-linejoin="round"/>
<path d="M52.1995 35.6422C52.1974 35.0569 51.7204 34.5848 51.1353 34.5887H51.1348C51.1282 34.5887 51.1213 34.5887 51.1145 34.5885C50.9115 34.5853 50.7362 34.4464 50.6813 34.2509C50.4454 33.4098 50.0939 32.5943 49.6278 31.8293C49.6808 31.7085 49.756 31.5962 49.8538 31.4997C50.2649 31.0942 50.2507 30.4143 49.841 30.0074L48.132 28.3103C47.7194 27.9005 47.0453 27.8908 46.6398 28.3077C46.6287 28.3193 46.6172 28.3305 46.6054 28.3415C46.462 28.4759 46.2454 28.4947 46.0742 28.3984C45.3757 28.006 44.6395 27.7063 43.8832 27.4998C43.6869 27.4463 43.5467 27.2717 43.542 27.0685C43.5419 27.0618 43.5418 27.0552 43.5418 27.0485V27.0482C43.538 26.4619 43.0607 25.9893 42.4743 25.9913L40.0588 25.9998C39.4745 26.0018 39.0042 26.4803 39.0123 27.0644C39.0123 27.0712 39.0123 27.0778 39.0122 27.0845C39.009 27.2877 38.8699 27.463 38.6743 27.5179C37.9193 27.7298 37.185 28.0347 36.4893 28.4319C36.3188 28.5294 36.1022 28.5122 35.9578 28.3789C35.9462 28.368 35.9345 28.3568 35.9232 28.3453C35.5148 27.9312 34.8408 27.9457 34.431 28.3583L32.7339 30.0672C32.3272 30.4769 32.3175 31.1569 32.7315 31.5595C32.736 31.564 32.7407 31.5685 32.7452 31.573C32.892 31.7213 32.9209 31.949 32.8188 32.1309C32.4279 32.8275 32.1293 33.5618 31.9234 34.3162C31.8685 34.5173 31.6848 34.6563 31.4763 34.6574H31.4723H31.4718C30.8855 34.6613 30.4129 35.1388 30.415 35.725L30.4233 38.1302C30.4254 38.7159 30.9019 39.189 31.4877 39.187H31.488C31.4947 39.1869 31.5013 39.187 31.5079 39.1872C31.7112 39.1903 31.8868 39.3294 31.9417 39.525C32.1533 40.2793 32.4575 41.0127 32.8543 41.7077C32.9565 41.8867 32.929 42.1112 32.7857 42.2592C32.7802 42.2648 32.7745 42.2705 32.7689 42.2762C32.3578 42.6814 32.3723 43.3614 32.7818 43.7683L34.4908 45.4653C34.9035 45.875 35.5775 45.8847 35.9832 45.4678C35.9943 45.4563 36.0058 45.4449 36.0175 45.4339C36.1608 45.2997 36.3773 45.2809 36.5487 45.3772C37.2472 45.7697 37.9834 46.0693 38.7399 46.2759C38.936 46.3294 39.0762 46.5039 39.0808 46.707C39.0809 46.7137 39.081 46.7203 39.081 46.727V46.7275C39.081 47.3127 39.5564 47.7864 40.1417 47.7844L42.5432 47.7759C43.1307 47.7739 43.6069 47.299 43.6107 46.7117V46.7112C43.6105 46.7047 43.6107 46.6982 43.6108 46.6917C43.6138 46.4883 43.7533 46.3124 43.9492 46.2575C44.7038 46.0458 45.4377 45.741 46.133 45.3439C46.304 45.2463 46.521 45.2635 46.6655 45.3973C46.677 45.4079 46.6883 45.4188 46.6994 45.4302C47.108 45.8442 47.782 45.83 48.1918 45.4174L49.889 43.7084C50.2958 43.2987 50.3053 42.6187 49.8914 42.216C49.7928 42.1203 49.7168 42.0084 49.6629 41.888C50.1238 41.1198 50.4694 40.3019 50.6995 39.4592C50.753 39.2633 50.9274 39.1232 51.1304 39.1185C51.1372 39.1184 51.144 39.1183 51.1507 39.1183H51.151C51.7369 39.1162 52.21 38.6397 52.2079 38.0539L52.1995 35.6422Z" stroke="#212121" stroke-width="1.5" stroke-miterlimit="10" stroke-linecap="round" stroke-linejoin="round"/>
<path d="M46.2817 36.8879C46.2817 39.5888 44.0922 41.7783 41.3914 41.7783C38.6906 41.7783 36.501 39.5888 36.501 36.8879C36.501 34.1871 38.6906 31.9976 41.3914 31.9976C44.0922 31.9976 46.2817 34.1871 46.2817 36.8879Z" stroke="#212121" stroke-width="1.5" stroke-miterlimit="10" stroke-linecap="round" stroke-linejoin="round"/>
<path d="M46.5837 11.4651H36.3268C34.6809 11.4651 33.3467 10.1308 33.3467 8.48484C33.3467 6.83896 34.6809 5.50459 36.3268 5.50459H46.5837C48.2296 5.50459 49.5639 6.83896 49.5639 8.48484C49.5639 10.1308 48.2296 11.4651 46.5837 11.4651Z" stroke="#212121" stroke-width="1.5" stroke-miterlimit="10" stroke-linecap="round" stroke-linejoin="round"/>
<path d="M28.3109 19.7386L25.6321 17.2114C24.9379 16.5564 23.8442 16.5882 23.1891 17.2825L21.7241 18.8355C21.0691 19.5297 21.1009 20.6235 21.7952 21.2785L24.3489 23.6876" stroke="#212121" stroke-width="1.5" stroke-miterlimit="10" stroke-linecap="round" stroke-linejoin="round"/>
<path d="M58.4399 23.5308L60.8274 21.2785C61.5216 20.6235 61.5534 19.5298 60.8986 18.8355L59.4333 17.2825C58.7784 16.5883 57.6847 16.5565 56.9904 17.2114L54.4404 19.6171" stroke="#212121" stroke-width="1.5" stroke-miterlimit="10" stroke-linecap="round" stroke-linejoin="round"/>
<path d="M45.2197 15.6078V11.465" stroke="#212121" stroke-width="1.5" stroke-miterlimit="10" stroke-linecap="round" stroke-linejoin="round"/>
<path d="M37.6895 11.465V15.6078" stroke="#212121" stroke-width="1.5" stroke-miterlimit="10" stroke-linecap="round" stroke-linejoin="round"/>
<path d="M10.2705 36.8187H19.8476" stroke="#212121" stroke-width="1.5" stroke-miterlimit="10" stroke-linecap="round" stroke-linejoin="round"/>
<path d="M20.368 32.1571H3.26825C1.981 32.1571 0.9375 33.2007 0.9375 34.4879C0.9375 35.7752 1.981 36.8187 3.26825 36.8187H5.87863H11.2227" stroke="#212121" stroke-width="1.5" stroke-miterlimit="10" stroke-linecap="round" stroke-linejoin="round"/>
<path d="M20.248 41.0438H9.32209C8.03484 41.0438 6.99121 42.0873 6.99121 43.3746C6.99121 44.6619 8.03484 45.7054 9.32209 45.7054H21.7231" stroke="#212121" stroke-width="1.5" stroke-miterlimit="10" stroke-linecap="round" stroke-linejoin="round"/>
<path d="M24.2276 49.9307H14.4352C13.148 49.9307 12.1045 50.9742 12.1045 52.2614C12.1045 53.5487 13.148 54.5922 14.4352 54.5922H29.0664" stroke="#212121" stroke-width="1.5" stroke-miterlimit="10" stroke-linecap="round" stroke-linejoin="round"/>
</g>
</svg>
