<svg width="64" height="64" viewBox="0 0 64 64" fill="none" xmlns="http://www.w3.org/2000/svg">
<g clip-path="url(#clip0_4756_41427)">
<circle cx="28" cy="35" r="23" fill="#FFBE2E"/>
<mask id="mask0_4756_41427" style="mask-type:luminance" maskUnits="userSpaceOnUse" x="0" y="0" width="64" height="64">
<path d="M0 7.62939e-06H64V64H0V7.62939e-06Z" fill="white"/>
</mask>
<g mask="url(#mask0_4756_41427)">
<path d="M52.4539 55.3781C46.9897 60.1628 39.8335 63.0625 31.9999 63.0625C14.8446 63.0625 0.9375 49.1553 0.9375 32" stroke="black" stroke-width="1.5" strokeMiterlimit="10" stroke-linecap="round" stroke-linejoin="round"/>
<path d="M11.457 8.70013C16.9324 3.86888 24.1239 0.937504 32.0002 0.937504C49.1555 0.937504 63.0627 14.8446 63.0627 32" stroke="black" stroke-width="1.5" strokeMiterlimit="10" stroke-linecap="round" stroke-linejoin="round"/>
<path d="M12.4728 11.3812C12.5844 13.2802 11.1354 14.91 9.23638 15.0217C7.33738 15.1333 5.70738 13.6842 5.59588 11.7852C5.48426 9.88617 6.93326 8.25617 8.83226 8.14467C10.7313 8.03317 12.3611 9.48217 12.4728 11.3812Z" stroke="black" stroke-width="1.5" strokeMiterlimit="10" stroke-linecap="round" stroke-linejoin="round"/>
<path d="M58.4045 52.2148C58.5161 54.1138 57.0671 55.7438 55.168 55.8553C53.269 55.9669 51.6391 54.5179 51.5275 52.6188C51.416 50.7199 52.865 49.0899 54.764 48.9783C56.663 48.8668 58.2929 50.3158 58.4045 52.2148Z" stroke="black" stroke-width="1.5" strokeMiterlimit="10" stroke-linecap="round" stroke-linejoin="round"/>
<path d="M8.98702 43.6639C8.1084 41.875 7.49902 39.9415 7.49902 38.0195C7.49902 33.6998 11.0008 30.1979 15.3205 30.1979C19.6403 30.1979 23.142 33.6998 23.142 38.0195C23.142 43.5606 18.0773 49.1971 16.099 51.1873C15.6699 51.6189 14.9711 51.6189 14.542 51.1873C13.6829 50.3229 12.2416 48.7709 10.8859 46.8376" stroke="black" stroke-width="1.5" strokeMiterlimit="10" stroke-linecap="round" stroke-linejoin="round"/>
<path d="M18.871 37.9455C18.871 39.9062 17.2814 41.4957 15.3208 41.4957C13.36 41.4957 11.7705 39.9062 11.7705 37.9455C11.7705 35.9847 13.36 34.3952 15.3208 34.3952C17.2814 34.3952 18.871 35.9847 18.871 37.9455Z" stroke="black" stroke-width="1.5" strokeMiterlimit="10" stroke-linecap="round" stroke-linejoin="round"/>
<path d="M9.09726 32.8178C9.08776 32.5464 9.08301 32.2737 9.08301 32.0001C9.08301 19.3164 19.3651 9.03432 32.0486 9.03432C44.7323 9.03432 55.0144 19.3164 55.0144 32.0001C55.0144 44.6836 44.7323 54.9657 32.0486 54.9657C26.659 54.9657 21.7031 53.1092 17.7854 50.0007" stroke="black" stroke-width="1.5" strokeMiterlimit="10" stroke-linecap="round" stroke-linejoin="round"/>
<path d="M20.0544 31.1738C21.0112 29.5098 21.5583 27.5805 21.5583 25.5232C21.5583 24.0085 20.3304 22.7806 18.8157 22.7806H11.457" stroke="black" stroke-width="1.5" strokeMiterlimit="10" stroke-linecap="round" stroke-linejoin="round"/>
<path d="M37.215 10.1313V15.9896C37.215 17.5428 35.9559 18.8021 34.4025 18.8021H34.3043C32.7895 18.8021 31.5615 20.0301 31.5615 21.5448V25.0459C31.5615 26.5608 32.7895 27.7887 34.3043 27.7887H37.8055C39.3203 27.7887 40.5481 26.5608 40.5481 25.0459C40.5481 23.4927 41.8074 22.2334 43.3606 22.2334H48.5671C49.8353 22.2334 50.8985 21.1598 51.2124 19.9909" stroke="black" stroke-width="1.5" strokeMiterlimit="10" stroke-linecap="round" stroke-linejoin="round"/>
<path d="M45.0128 38.4591V36.3611C45.0128 34.8463 43.785 33.6183 42.2702 33.6183H33.6608C32.1458 33.6183 30.918 34.8463 30.918 36.3611V45.7802C30.918 49.4197 32.631 52.659 35.2946 54.7363C38.8635 54.2315 42.1685 52.9068 45.0128 50.958V42.2091" stroke="black" stroke-width="1.5" strokeMiterlimit="10" stroke-linecap="round" stroke-linejoin="round"/>
</g>
</g>
<defs>
<clipPath id="clip0_4756_41427">
<rect width="64" height="64" fill="white"/>
</clipPath>
</defs>
</svg>
