<svg width="200" height="80" viewBox="0 0 200 80" fill="none" xmlns="http://www.w3.org/2000/svg">
<rect width="200" height="80" rx="12" fill="white"/>
<mask id="mask0_3197_24319" style="mask-type:alpha" maskUnits="userSpaceOnUse" x="16" y="16" width="168" height="48">
<rect x="16" y="16" width="168" height="48" fill="#D9D9D9"/>
</mask>
<g mask="url(#mask0_3197_24319)">
</g>
<g clip-path="url(#clip0_3197_24319)">
<path d="M61.9177 38.4515C64.4592 38.4515 66.1651 39.6004 67.2096 41.0278V20.6955C67.2096 20.3126 66.757 20.0689 66.4437 20.3126L41.3417 38.6603H42.0032C44.6143 38.6603 45.9373 40.3315 45.9373 42.1419C45.9373 43.9523 45.2062 44.6138 44.1966 45.0664C44.0225 45.136 44.0225 45.3797 44.1966 45.4494C45.3455 45.9368 46.181 47.1553 46.181 48.6176C46.181 50.7065 44.8232 52.3428 42.2121 52.3428H35.0749C34.9356 52.3428 34.7964 52.2384 34.7964 52.0643V43.4301L16.1004 57.1126C15.7871 57.3911 15.9264 57.8785 16.3441 57.8785H66.757C67.0007 57.8785 67.1748 57.7044 67.1748 57.4607V50.5324C65.817 51.7858 64.0414 52.5866 61.8828 52.5866C57.8442 52.5866 54.5716 49.8013 54.5716 45.519C54.6064 41.2019 57.9139 38.4515 61.9177 38.4515ZM51.9256 52.0991C51.9256 52.2384 51.8212 52.3428 51.6819 52.3428H49.2796C49.1404 52.3428 49.0359 52.2384 49.0359 52.0991V38.9041C49.0359 38.7648 49.1404 38.6603 49.2796 38.6603H51.6819C51.8212 38.6603 51.9256 38.7648 51.9256 38.9041V52.0991Z" fill="black"/>
<path d="M38.0002 44.0935H41.3773C42.3521 44.0935 42.9788 43.5365 42.9788 42.6661C42.9788 41.7957 42.3521 41.2387 41.3773 41.2387H37.861C37.7913 41.2387 37.7217 41.3083 37.7217 41.3779V43.8498C37.7217 43.9891 37.8609 44.0935 38.0002 44.0935ZM38.0002 49.8033H41.5166C42.5959 49.8033 43.2573 49.2114 43.2573 48.2366C43.2573 47.2617 42.6307 46.6699 41.5166 46.6699H38.0002C37.8609 46.6699 37.7217 46.7743 37.7217 46.9484V49.5248C37.7217 49.664 37.8609 49.8033 38.0002 49.8033ZM65.017 42.5965C64.3555 41.7261 63.2415 41.0298 61.9185 41.0298C59.4118 41.0298 57.6014 42.9446 57.6014 45.521C57.6014 48.0973 59.4118 50.0122 61.9185 50.0122C64.4252 50.0122 64.1467 49.5247 64.7385 49.0373C64.7734 49.0025 64.8082 48.9329 64.8082 48.8633V47.5403C64.8082 47.4358 64.7037 47.3314 64.5993 47.3314H61.5007C61.3266 47.3314 61.2222 47.1921 61.2222 47.0528V45.1032C61.2222 44.9291 61.3614 44.8247 61.5007 44.8247H67.2452V41.7261L65.4 42.7357C65.2608 42.7705 65.0867 42.7009 65.017 42.5965ZM69.369 45.521C69.369 41.3083 72.3979 38.4534 76.2973 38.4534C80.1966 38.4534 80.4752 39.7416 81.45 41.3083C81.5196 41.4127 81.4848 41.5868 81.3455 41.6216L79.7788 42.4572C79.6744 42.5268 79.5351 42.492 79.5003 42.3876C78.8388 41.3431 77.6203 40.5772 76.2973 40.5772C73.6861 40.5772 71.7364 42.6313 71.7364 45.521C71.7364 48.4107 73.6861 50.4648 76.2973 50.4648C78.9084 50.4648 78.8388 49.6988 79.5003 48.6544C79.57 48.5499 79.6744 48.5151 79.7788 48.5847L81.3455 49.3855C81.4848 49.4551 81.5196 49.5944 81.45 49.7336C80.4403 51.3003 78.804 52.6233 76.2973 52.6233C72.3979 52.5885 69.369 49.6988 69.369 45.521ZM82.8078 45.521C82.8078 42.109 84.7575 39.4631 87.682 38.6971C92.6606 37.3741 97.2214 42.0394 96.1421 47.2269C95.4806 50.43 92.9391 52.6233 89.562 52.6233C85.593 52.5885 82.8078 49.5944 82.8078 45.521ZM93.9139 45.521C93.9139 42.7009 92.1731 40.5772 89.5272 40.5772C86.8812 40.5772 85.1404 42.7009 85.1404 45.521C85.1404 48.341 86.8464 50.4648 89.5272 50.4648C92.208 50.4648 93.9139 48.3062 93.9139 45.521ZM110.486 52.1707V41.7609L106.343 52.2404C106.343 52.2752 106.273 52.31 106.239 52.31H105.368C105.333 52.31 105.264 52.2752 105.264 52.2404L101.086 41.7609V52.1707C101.086 52.2752 101.016 52.3448 100.912 52.3448H98.8229C98.7185 52.3448 98.6489 52.2752 98.6489 52.1707V38.8016C98.6489 38.6971 98.7185 38.6275 98.8229 38.6275H101.817C101.956 38.6275 102.061 38.6971 102.13 38.8364L105.786 48.2366L109.407 38.8364C109.442 38.6971 109.581 38.6275 109.72 38.6275H112.714C112.819 38.6275 112.888 38.6971 112.888 38.8016V52.1707C112.888 52.2752 112.819 52.3448 112.714 52.3448H110.625C110.591 52.3448 110.486 52.2752 110.486 52.1707ZM134.161 52.1011V38.906C134.161 38.7668 134.265 38.6623 134.404 38.6623H143.282C143.422 38.6623 143.526 38.7668 143.526 38.906V40.5075C143.526 40.6468 143.422 40.7512 143.282 40.7512H136.807C136.667 40.7512 136.563 40.8557 136.563 40.995V44.0239C136.563 44.1632 136.667 44.2676 136.807 44.2676H143.143C143.282 44.2676 143.387 44.3721 143.387 44.5113V46.1128C143.387 46.2521 143.282 46.3565 143.143 46.3565H136.807C136.667 46.3565 136.563 46.461 136.563 46.6002V49.9077C136.563 50.047 136.667 50.1514 136.807 50.1514H143.282C143.422 50.1514 143.526 50.2559 143.526 50.3951V51.9967C143.526 52.1359 143.422 52.2404 143.282 52.2404H134.404C134.265 52.3448 134.161 52.2404 134.161 52.1011ZM154.667 52.2055L151.777 47.3314C151.743 47.2617 151.638 47.2269 151.568 47.2269H149.549C149.41 47.2269 149.305 47.3314 149.305 47.4706V52.1011C149.305 52.2404 149.201 52.3448 149.062 52.3448H147.182C147.042 52.3448 146.938 52.2404 146.938 52.1011V38.906C146.938 38.7668 147.042 38.6623 147.182 38.6623H152.961C155.677 38.6623 157.452 40.4031 157.452 42.9446C157.452 45.4862 156.06 46.4958 154.528 46.8788C154.354 46.9136 154.284 47.0877 154.354 47.2617C154.911 48.1669 156.652 50.9522 157.313 51.9618C157.417 52.1359 157.313 52.3448 157.104 52.3448H154.911C154.806 52.3448 154.737 52.31 154.667 52.2055ZM154.98 42.9098C154.98 41.5868 154.006 40.7512 152.648 40.7512H149.584C149.445 40.7512 149.34 40.8557 149.34 40.995V44.8595C149.34 44.9987 149.445 45.1032 149.584 45.1032H152.648C154.006 45.1032 154.98 44.2676 154.98 42.9098ZM173.676 52.1011V38.906C173.676 38.7668 173.781 38.6623 173.92 38.6623H182.833C182.972 38.6623 183.076 38.7668 183.076 38.906V40.5423C183.076 40.6816 182.972 40.7861 182.833 40.7861H176.322C176.183 40.7861 176.079 40.8905 176.079 41.0298V44.0935C176.079 44.2328 176.183 44.3372 176.322 44.3372H182.659C182.798 44.3372 182.902 44.4417 182.902 44.581V46.2173C182.902 46.3565 182.798 46.461 182.659 46.461H176.322C176.183 46.461 176.079 46.5654 176.079 46.7047V50.047C176.079 50.1862 176.183 50.2907 176.322 50.2907H182.833C182.972 50.2907 183.076 50.3951 183.076 50.5344V52.1707C183.076 52.31 182.972 52.4144 182.833 52.4144H173.92C173.781 52.3448 173.676 52.2404 173.676 52.1011ZM159.193 45.4513C159.193 41.2387 162.222 38.3838 166.121 38.3838C170.021 38.3838 170.299 39.672 171.274 41.2387C171.344 41.3431 171.274 41.5172 171.17 41.552L169.603 42.3876C169.498 42.4572 169.359 42.4224 169.324 42.3179C168.663 41.2735 167.444 40.5075 166.121 40.5075C163.51 40.5075 161.56 42.5617 161.56 45.4513C161.56 48.341 163.51 50.3951 166.121 50.3951C168.732 50.3951 168.663 49.6292 169.324 48.5847C169.394 48.4803 169.498 48.4455 169.603 48.5151L171.17 49.3159C171.309 49.3855 171.344 49.5248 171.274 49.664C170.264 51.2307 168.628 52.5537 166.121 52.5537C162.222 52.5189 159.193 49.664 159.193 45.4513ZM128.242 52.1707V41.7609L124.099 52.2404C124.099 52.2752 124.029 52.31 123.995 52.31H123.124C123.089 52.31 123.02 52.2752 123.02 52.2404L118.842 41.7609V52.1707C118.842 52.2752 118.772 52.3448 118.668 52.3448H116.579C116.474 52.3448 116.405 52.2752 116.405 52.1707V38.8016C116.405 38.6971 116.474 38.6275 116.579 38.6275H119.573C119.712 38.6275 119.817 38.6971 119.886 38.8364L123.542 48.2366L127.163 38.8364C127.198 38.6971 127.337 38.6275 127.476 38.6275H130.47C130.575 38.6275 130.644 38.6971 130.644 38.8016V52.1707C130.644 52.2752 130.575 52.3448 130.47 52.3448H128.381C128.312 52.3448 128.242 52.2752 128.242 52.1707Z" fill="black"/>
</g>
<defs>
<clipPath id="clip0_3197_24319">
<rect width="167.463" height="37.9489" fill="white" transform="translate(15.8574 20)"/>
</clipPath>
</defs>
</svg>
