<svg width="124" height="124" viewBox="0 0 124 124" fill="none" xmlns="http://www.w3.org/2000/svg">
<circle cx="62" cy="62" r="60" fill="white" stroke="#978050" stroke-width="4"/>
<rect x="39" y="87" width="39" height="17" rx="2" transform="rotate(-90 39 87)" fill="#FFBE2E"/>
<path d="M57.6914 83.4735C58.2955 83.4735 58.7852 82.9838 58.7852 82.3798C58.7852 81.7757 58.2955 81.286 57.6914 81.286C57.0873 81.286 56.5977 81.7757 56.5977 82.3798C56.5977 82.9838 57.0873 83.4735 57.6914 83.4735Z" fill="black"/>
<path d="M68.1348 83.4735C68.7388 83.4735 69.2285 82.9838 69.2285 82.3798C69.2285 81.7757 68.7388 81.286 68.1348 81.286C67.5307 81.286 67.041 81.7757 67.041 82.3798C67.041 82.9838 67.5307 83.4735 68.1348 83.4735Z" fill="black"/>
<path d="M71.4805 83.4735C72.0845 83.4735 72.5742 82.9838 72.5742 82.3798C72.5742 81.7757 72.0845 81.286 71.4805 81.286C70.8764 81.286 70.3867 81.7757 70.3867 82.3798C70.3867 82.9838 70.8764 83.4735 71.4805 83.4735Z" fill="black"/>
<path d="M54.3438 83.4735C54.9478 83.4735 55.4375 82.9838 55.4375 82.3798C55.4375 81.7757 54.9478 81.286 54.3438 81.286C53.7397 81.286 53.25 81.7757 53.25 82.3798C53.25 82.9838 53.7397 83.4735 54.3438 83.4735Z" fill="black"/>
<path d="M65.0216 81.6144H61.207C61.004 81.6144 60.8092 81.695 60.6657 81.8386C60.5221 81.9822 60.4414 82.1769 60.4414 82.38C60.4414 82.5831 60.5221 82.7778 60.6657 82.9214C60.8092 83.065 61.004 83.1456 61.207 83.1456H65.0216C65.2247 83.1456 65.4194 83.065 65.563 82.9214C65.7066 82.7778 65.7872 82.5831 65.7872 82.38C65.7872 82.1769 65.7066 81.9822 65.563 81.8386C65.4194 81.695 65.2247 81.6144 65.0216 81.6144Z" fill="black"/>
<path d="M41.8499 89.0156H80.6749C81.2536 89.0085 81.8071 88.7776 82.2193 88.3713C82.6316 87.9651 82.8705 87.415 82.886 86.8364L84.3893 52.249C84.4098 51.6559 84.2386 51.072 83.901 50.5838C83.5635 50.0957 83.0776 49.7294 82.5155 49.5391L85.578 39.2448C85.629 39.0729 85.618 38.8887 85.5469 38.7241C85.4817 38.5714 83.8805 34.9844 78.7101 34.9844C73.5397 34.9844 71.9389 38.5719 71.8733 38.7241C71.8026 38.8888 71.7917 39.073 71.8427 39.2448L74.9052 49.5391C74.3429 49.7292 73.8569 50.0955 73.5193 50.5836C73.1818 51.0718 73.0107 51.6558 73.0314 52.249L73.4802 62.5797C72.36 61.5354 71.067 60.6937 69.6587 60.0921C69.5638 60.0525 69.4619 60.0325 69.3591 60.0332C69.2562 60.0339 69.1546 60.0553 69.0603 60.0962C68.9659 60.137 68.8807 60.1964 68.8098 60.2709C68.7389 60.3453 68.6838 60.4333 68.6476 60.5296C68.6345 60.565 67.2629 64.0816 62.6237 64.0816C61.5941 64.0816 60.6295 64.1226 59.73 64.2046V50.3187C59.7289 49.4694 59.391 48.6553 58.7904 48.0547C58.1898 47.4542 57.3755 47.1164 56.5262 47.1154H53.7337V43.485H59.6093C59.9427 43.4894 60.2737 43.4275 60.583 43.303C60.8923 43.1784 61.1737 42.9937 61.4111 42.7595C61.6484 42.5252 61.8368 42.2462 61.9655 41.9386C62.0941 41.631 62.1603 41.3008 62.1603 40.9674C62.1603 40.634 62.0941 40.3039 61.9655 39.9962C61.8368 39.6886 61.6484 39.4096 61.4111 39.1753C61.1737 38.9411 60.8923 38.7564 60.583 38.6318C60.2737 38.5073 59.9427 38.4454 59.6093 38.4498H45.4124C44.812 38.45 44.2314 38.6647 43.7754 39.0552C43.3194 39.4458 43.018 39.9865 42.9256 40.5797C42.8332 41.173 42.9559 41.7797 43.2715 42.2905C43.5871 42.8012 44.0749 43.1824 44.6468 43.3651V47.1132H41.8499C41.0002 47.1141 40.1856 47.4522 39.585 48.0532C38.9844 48.6543 38.6468 49.4691 38.6465 50.3187V85.8144C38.648 86.6634 38.986 87.4771 39.5865 88.0771C40.187 88.6772 41.0009 89.0147 41.8499 89.0156ZM40.1777 85.8123V77.2753H46.3745C46.1346 77.7094 46.009 78.1973 46.0096 78.6932V86.0664C46.0092 86.5623 46.1346 87.0502 46.374 87.4844H41.8499C41.4065 87.4839 40.9815 87.3076 40.668 86.9941C40.3545 86.6806 40.1782 86.2556 40.1777 85.8123ZM74.8715 59.3667H82.5474L82.1401 68.7441H76.432C76.4176 67.2198 75.9524 65.734 75.095 64.4736L74.8715 59.3667ZM75.0837 72.4125C75.4595 72.4131 75.8197 72.5627 76.0854 72.8285C76.351 73.0943 76.5004 73.4546 76.5007 73.8304V75.7449H49.7244V73.8296C49.725 73.4538 49.8746 73.0935 50.1404 72.8279C50.4062 72.5622 50.7666 72.4128 51.1424 72.4125H75.0837ZM78.6878 86.0673C78.6873 86.4432 78.5378 86.8036 78.272 87.0694C78.0062 87.3353 77.6458 87.4848 77.2699 87.4852H48.9588C48.5828 87.4849 48.2224 87.3354 47.9565 87.0696C47.6907 86.8037 47.5412 86.4433 47.5409 86.0673V78.6932C47.5412 78.3173 47.6907 77.9568 47.9565 77.691C48.2224 77.4252 48.5828 77.2757 48.9588 77.2753H77.2681C77.644 77.2758 78.0044 77.4253 78.2702 77.6911C78.536 77.9569 78.6856 78.3173 78.6861 78.6932L78.6878 86.0673ZM50.4122 70.9757C49.7337 71.1501 49.1393 71.5597 48.7348 72.1316C47.9785 72.0521 47.2567 71.7738 46.6428 71.325C46.0289 70.8762 45.5447 70.2729 45.2395 69.5764C44.9343 68.8799 44.8188 68.115 44.9049 67.3594C44.991 66.6039 45.2756 65.8845 45.7297 65.2746C46.1838 64.6646 46.7913 64.1857 47.4904 63.8865C48.1896 63.5873 48.9555 63.4786 49.7102 63.5712C50.465 63.6639 51.1819 63.9547 51.7879 64.4141C52.3939 64.8735 52.8675 65.4852 53.1605 66.1869C52.3583 66.7129 51.6914 67.4207 51.2139 68.2528C50.7364 69.0848 50.4617 70.0177 50.4122 70.9757ZM80.6749 87.4844H79.8524C80.0922 87.0503 80.2178 86.5624 80.2173 86.0664V78.6932C80.2158 78.0453 80.0012 77.4159 79.6066 76.902C79.212 76.3881 78.6593 76.0183 78.0337 75.8495V73.8296C78.0327 73.2244 77.8456 72.6342 77.4979 72.1389C77.1502 71.6437 76.6587 71.2672 76.0899 71.0606C76.1674 70.7951 76.2343 70.5326 76.2846 70.2753H82.0732L81.3561 86.7691C81.3586 86.9537 81.2887 87.1319 81.1614 87.2656C81.0341 87.3994 80.8594 87.4779 80.6749 87.4844ZM78.7101 36.5156C82.1887 36.5156 83.6263 38.4362 84.0214 39.1052L80.9689 49.3663H76.4517L73.3993 39.1056C73.7979 38.4314 75.2364 36.5156 78.7101 36.5156ZM75.8804 50.8976H81.5399C81.7115 50.8929 81.8823 50.9228 82.0423 50.9853C82.2022 51.0478 82.348 51.1417 82.471 51.2614C82.5941 51.3812 82.6919 51.5244 82.7586 51.6826C82.8254 51.8408 82.8598 52.0108 82.8598 52.1825L82.6139 57.8354H74.8063L74.5609 52.1829C74.5609 52.0112 74.5952 51.8413 74.662 51.6831C74.7287 51.5249 74.8265 51.3817 74.9495 51.2619C75.0724 51.1421 75.2182 51.0481 75.3781 50.9856C75.5379 50.923 75.7087 50.8931 75.8804 50.8976ZM69.7147 61.8123C73.38 63.7115 75.8427 66.9276 74.5473 70.8813H51.9544C52.3818 67.3375 55.8831 65.6138 62.6254 65.6138C66.9409 65.6138 68.9587 63.1047 69.7147 61.8123ZM54.505 65.4374C54.0899 64.5196 53.4444 63.7249 52.6312 63.1305C51.818 62.536 50.8648 62.1621 49.8643 62.0452C48.8638 61.9282 47.8501 62.0721 46.9217 62.4629C45.9934 62.8538 45.1819 63.4782 44.5663 64.2755C43.9507 65.0728 43.5519 66.0158 43.4087 67.0128C43.2655 68.0099 43.3827 69.0271 43.749 69.9654C44.1153 70.9037 44.7181 71.7313 45.499 72.3676C46.2798 73.004 47.212 73.4274 48.205 73.5968C48.1993 73.6738 48.1936 73.7508 48.1936 73.8296V75.7441H40.1777V58.0292H58.2027V64.3984C56.9296 64.5795 55.6861 64.9289 54.505 65.4374ZM45.4124 39.9811H59.6093C59.7406 39.9783 59.8711 40.0018 59.9932 40.0501C60.1153 40.0984 60.2265 40.1706 60.3203 40.2625C60.4141 40.3544 60.4886 40.464 60.5395 40.5851C60.5904 40.7061 60.6166 40.8361 60.6166 40.9674C60.6166 41.0987 60.5904 41.2287 60.5395 41.3497C60.4886 41.4708 60.4141 41.5805 60.3203 41.6723C60.2265 41.7642 60.1153 41.8364 59.9932 41.8847C59.8711 41.933 59.7406 41.9565 59.6093 41.9538H45.4124C45.1544 41.9483 44.9088 41.842 44.7283 41.6576C44.5477 41.4732 44.4466 41.2255 44.4466 40.9674C44.4466 40.7094 44.5477 40.4616 44.7283 40.2772C44.9088 40.0928 45.1544 39.9865 45.4124 39.9811ZM46.178 43.485H52.2024V47.1132H46.178V43.485ZM41.8499 48.6444H56.528C56.9717 48.6449 57.3972 48.8215 57.7108 49.1355C58.0244 49.4494 58.2005 49.875 58.2005 50.3187V56.498H40.1777V50.3187C40.1776 49.875 40.3537 49.4494 40.6672 49.1355C40.9808 48.8215 41.4061 48.6449 41.8499 48.6444Z" fill="black"/>
<path d="M78.709 41.4812C78.8095 41.4813 78.9091 41.4615 79.002 41.4231C79.095 41.3846 79.1794 41.3282 79.2505 41.2571C79.3216 41.186 79.378 41.1016 79.4164 41.0087C79.4549 40.9158 79.4747 40.8162 79.4746 40.7156V38.7294C79.4746 38.5263 79.3939 38.3316 79.2504 38.188C79.1068 38.0444 78.912 37.9637 78.709 37.9637C78.5059 37.9637 78.3112 38.0444 78.1676 38.188C78.024 38.3316 77.9434 38.5263 77.9434 38.7294V40.7134C77.9431 40.8142 77.9627 40.914 78.001 41.0071C78.0394 41.1002 78.0957 41.1849 78.1668 41.2562C78.238 41.3276 78.3225 41.3841 78.4155 41.4228C78.5085 41.4614 78.6083 41.4812 78.709 41.4812Z" fill="black"/>
<path d="M76.9553 41.7288L76.5956 39.8624C76.5572 39.663 76.4412 39.4871 76.273 39.3732C76.1049 39.2594 75.8984 39.217 75.699 39.2554C75.4996 39.2938 75.3236 39.4099 75.2098 39.578C75.0959 39.7462 75.0535 39.9527 75.0919 40.1521L75.4511 42.0167C75.4933 42.2124 75.6105 42.3839 75.7775 42.4944C75.9446 42.6048 76.1482 42.6455 76.3449 42.6076C76.5415 42.5697 76.7155 42.4564 76.8296 42.2918C76.9437 42.1272 76.9888 41.9245 76.9553 41.7271V41.7288Z" fill="black"/>
<path d="M81.0682 42.6252C81.2676 42.6636 81.4741 42.6212 81.6423 42.5074C81.8104 42.3936 81.9265 42.2177 81.9651 42.0184L82.3243 40.1538C82.3433 40.055 82.3427 39.9535 82.3225 39.855C82.3023 39.7565 82.2628 39.663 82.2065 39.5797C82.1501 39.4965 82.0779 39.4251 81.9939 39.3698C81.91 39.3144 81.816 39.2761 81.7173 39.2571C81.6185 39.2381 81.517 39.2387 81.4185 39.2589C81.32 39.2791 81.2265 39.3185 81.1432 39.3749C81.0599 39.4313 80.9886 39.5035 80.9332 39.5874C80.8779 39.6714 80.8396 39.7654 80.8206 39.8641L80.461 41.7288C80.4227 41.9281 80.4652 42.1346 80.5791 42.3026C80.6929 42.4707 80.8689 42.5867 81.0682 42.6252Z" fill="black"/>
<path d="M78.709 65.8247C78.912 65.8247 79.1068 65.744 79.2504 65.6004C79.3939 65.4568 79.4746 65.2621 79.4746 65.059V62.2455C79.4746 62.0424 79.3939 61.8477 79.2504 61.7041C79.1068 61.5605 78.912 61.4799 78.709 61.4799C78.5059 61.4799 78.3112 61.5605 78.1676 61.7041C78.024 61.8477 77.9434 62.0424 77.9434 62.2455V65.059C77.9435 65.2621 78.0242 65.4567 78.1677 65.6003C78.3113 65.7439 78.506 65.8246 78.709 65.8247Z" fill="black"/>
</svg>
