<svg width="123" height="123" viewBox="0 0 123 123" fill="none" xmlns="http://www.w3.org/2000/svg">
<circle cx="61.5" cy="61.5" r="61.0845" fill="#FFBE2E" stroke="#FFBE2E" stroke-width="0.831081"/>
<g clip-path="url(#clip0_3521_7332)">
<circle cx="61" cy="65" r="28" fill="white"/>
<path d="M74.6152 36.0634L77.8444 38.9697L82.2038 33.9106" stroke="black" stroke-width="2" stroke-miterlimit="10" stroke-linecap="round" stroke-linejoin="round"/>
<path d="M85.6758 30.6196V42.2561C85.6758 43.0598 85.0243 43.7107 84.2227 43.7107H81.0898C80.9604 43.7107 80.84 43.7775 80.7715 43.8875L78.7426 47.1444C78.5891 47.3906 78.2311 47.3907 78.0776 47.1446L76.0476 43.8875C75.9791 43.7775 75.8587 43.7107 75.7293 43.7107H72.5977C71.7952 43.7107 71.1445 43.0595 71.1445 42.2561V30.6196C71.1445 29.8171 71.7948 29.165 72.5977 29.165H84.2227C85.0251 29.165 85.6758 29.8163 85.6758 30.6196Z" stroke="black" stroke-width="2" stroke-miterlimit="10" stroke-linecap="round" stroke-linejoin="round"/>
<path d="M32.9189 84.6865H29.8411C29.4678 84.6865 29.165 84.3838 29.165 84.0105V80.0346C29.165 79.6611 29.4678 79.3584 29.8411 79.3584H88.6724C89.0459 79.3584 89.3485 79.6611 89.3485 80.0345V84.0103C89.3485 84.3838 89.0458 84.6864 88.6724 84.6864H85.7377" stroke="black" stroke-width="2" stroke-miterlimit="10" stroke-linecap="round" stroke-linejoin="round"/>
<path d="M67.7939 84.6865H40.1846" stroke="black" stroke-width="2" stroke-miterlimit="10" stroke-linecap="round" stroke-linejoin="round"/>
<path d="M78.3291 84.6865H72.1735H66.4619" stroke="black" stroke-width="2" stroke-miterlimit="10" stroke-linecap="round" stroke-linejoin="round"/>
<path d="M57.2891 79.3584H34.2207C33.5018 79.3584 32.9189 78.7756 32.9189 78.0566V60.3164C32.9189 59.5975 33.5018 59.0146 34.2207 59.0146H57.2891C58.008 59.0146 58.5908 59.5975 58.5908 60.3164V78.0566C58.5908 78.7756 58.008 79.3584 57.2891 79.3584Z" stroke="black" stroke-width="2" stroke-miterlimit="10" stroke-linecap="round" stroke-linejoin="round"/>
<path d="M50.4709 74.528H41.039C40.7678 74.528 40.5479 74.308 40.5479 74.0368V70.6596C40.5479 70.3884 40.7678 70.1685 41.039 70.1685H50.4709C50.7421 70.1685 50.962 70.3884 50.962 70.6596V74.0368C50.962 74.308 50.7421 74.528 50.4709 74.528Z" stroke="black" stroke-width="2" stroke-miterlimit="10" stroke-linecap="round" stroke-linejoin="round"/>
<path d="M48.9438 65.3115H42.5661C42.3209 65.3115 42.1221 65.1127 42.1221 64.8675V59.0146H49.3877V64.8675C49.3878 65.1127 49.189 65.3115 48.9438 65.3115Z" stroke="black" stroke-width="2" stroke-miterlimit="10" stroke-linecap="round" stroke-linejoin="round"/>
<path d="M82.9609 79.3584H59.8926C59.1736 79.3584 58.5908 78.7756 58.5908 78.0566V60.3164C58.5908 59.5975 59.1736 59.0146 59.8926 59.0146H82.9609C83.6799 59.0146 84.2627 59.5975 84.2627 60.3164V78.0566C84.2627 78.7756 83.6799 79.3584 82.9609 79.3584Z" stroke="black" stroke-width="2" stroke-miterlimit="10" stroke-linecap="round" stroke-linejoin="round"/>
<path d="M76.1428 74.528H66.7109C66.4396 74.528 66.2197 74.308 66.2197 74.0368V70.6596C66.2197 70.3884 66.4396 70.1685 66.7109 70.1685H76.1428C76.414 70.1685 76.6339 70.3884 76.6339 70.6596V74.0368C76.6339 74.308 76.414 74.528 76.1428 74.528Z" stroke="black" stroke-width="2" stroke-miterlimit="10" stroke-linecap="round" stroke-linejoin="round"/>
<path d="M74.6156 65.3115H68.238C67.9928 65.3115 67.7939 65.1127 67.7939 64.8675V59.0146H75.0596V64.8675C75.0597 65.1127 74.8609 65.3115 74.6156 65.3115Z" stroke="black" stroke-width="2" stroke-miterlimit="10" stroke-linecap="round" stroke-linejoin="round"/>
<path d="M39.9219 43.9856V39.9727C39.9219 39.2537 40.5047 38.6709 41.2236 38.6709H64.292C65.0109 38.6709 65.5938 39.2537 65.5938 39.9727V57.7129C65.5938 58.4318 65.0109 59.0146 64.292 59.0146H41.2236C40.5047 59.0146 39.9219 58.4318 39.9219 57.7129V48.5064" stroke="black" stroke-width="2" stroke-miterlimit="10" stroke-linecap="round" stroke-linejoin="round"/>
<path d="M57.4738 54.1842H48.0419C47.7707 54.1842 47.5508 53.9643 47.5508 53.693V50.3159C47.5508 50.0446 47.7707 49.8247 48.0419 49.8247H57.4738C57.7451 49.8247 57.965 50.0446 57.965 50.3159V53.693C57.9648 53.9643 57.7451 54.1842 57.4738 54.1842Z" stroke="black" stroke-width="2" stroke-miterlimit="10" stroke-linecap="round" stroke-linejoin="round"/>
<path d="M55.9467 44.9678H49.5691C49.3238 44.9678 49.125 44.7689 49.125 44.5237V38.6709H56.3906V44.5237C56.3906 44.7689 56.1919 44.9678 55.9467 44.9678Z" stroke="black" stroke-width="2" stroke-miterlimit="10" stroke-linecap="round" stroke-linejoin="round"/>
<path d="M36.5518 89.3486C38.5581 89.3486 40.1846 87.7222 40.1846 85.7158C40.1846 83.7095 38.5581 82.083 36.5518 82.083C34.5454 82.083 32.9189 83.7095 32.9189 85.7158C32.9189 87.7222 34.5454 89.3486 36.5518 89.3486Z" stroke="black" stroke-width="2" stroke-miterlimit="10" stroke-linecap="round" stroke-linejoin="round"/>
<path d="M81.9619 89.3486C83.9683 89.3486 85.5947 87.7222 85.5947 85.7158C85.5947 83.7095 83.9683 82.083 81.9619 82.083C79.9556 82.083 78.3291 83.7095 78.3291 85.7158C78.3291 87.7222 79.9556 89.3486 81.9619 89.3486Z" stroke="black" stroke-width="2" stroke-miterlimit="10" stroke-linecap="round" stroke-linejoin="round"/>
<path d="M81.7949 85.7158H82.1784" stroke="black" stroke-width="2" stroke-miterlimit="10" stroke-linecap="round" stroke-linejoin="round"/>
<path d="M36.3604 85.7158H36.7437" stroke="black" stroke-width="2" stroke-miterlimit="10" stroke-linecap="round" stroke-linejoin="round"/>
</g>
<defs>
<clipPath id="clip0_3521_7332">
<rect width="62" height="63" fill="white" transform="translate(28 28)"/>
</clipPath>
</defs>
</svg>
