<svg width="83" height="83" viewBox="0 0 83 83" fill="none" xmlns="http://www.w3.org/2000/svg">
<path d="M78.3359 70.423C78.3467 70.4196 78.3575 70.4125 78.3683 70.4055C78.3719 70.4055 78.3719 70.402 78.3755 70.402C78.4006 70.3845 78.4257 70.3671 78.4473 70.3496C78.4114 70.3776 78.3755 70.402 78.3359 70.423Z" fill="white"/>
<path d="M78.3358 70.5057C78.3041 70.5057 78.2744 70.4872 78.2614 70.4567C78.245 70.4183 78.2605 70.3737 78.2972 70.3536C78.3323 70.3344 78.3642 70.3118 78.3966 70.2861C78.4313 70.2587 78.482 70.2639 78.5101 70.2983C78.538 70.3328 78.5329 70.3835 78.4987 70.4118C78.4769 70.4298 78.4522 70.4477 78.4272 70.4656C78.4241 70.468 78.4206 70.4702 78.4168 70.4722C78.4143 70.4738 78.4117 70.4754 78.4092 70.4768C78.3956 70.4858 78.3801 70.4956 78.3608 70.5018C78.3525 70.5045 78.344 70.5057 78.3358 70.5057Z" fill="#373B42"/>
<path d="M78.4473 70.3496C78.4114 70.3776 78.3755 70.402 78.3359 70.423C78.3467 70.4196 78.3575 70.4125 78.3683 70.4055C78.3719 70.4055 78.3719 70.402 78.3755 70.402C78.4006 70.3845 78.4257 70.3671 78.4473 70.3496Z" fill="white"/>
<path d="M78.3358 70.5057C78.3041 70.5057 78.2744 70.4872 78.2614 70.4567C78.245 70.4183 78.2605 70.3737 78.2972 70.3536C78.3323 70.3344 78.3642 70.3118 78.3966 70.2861C78.4313 70.2587 78.482 70.2639 78.5101 70.2983C78.538 70.3328 78.5329 70.3835 78.4987 70.4118C78.4769 70.4298 78.4522 70.4477 78.4272 70.4656C78.4241 70.468 78.4206 70.4702 78.4168 70.4722C78.4143 70.4738 78.4117 70.4754 78.4092 70.4768C78.3956 70.4858 78.3801 70.4956 78.3608 70.5018C78.3525 70.5045 78.344 70.5057 78.3358 70.5057Z" fill="#373B42"/>
<path d="M78.3359 70.423C78.3467 70.4196 78.3575 70.4125 78.3683 70.4055C78.3719 70.4055 78.3719 70.402 78.3755 70.402C78.4006 70.3845 78.4257 70.3671 78.4473 70.3496C78.4114 70.3776 78.3755 70.402 78.3359 70.423Z" fill="white"/>
<path d="M78.3358 70.5057C78.3041 70.5057 78.2744 70.4872 78.2614 70.4567C78.245 70.4183 78.2605 70.3737 78.2972 70.3536C78.3323 70.3344 78.3642 70.3118 78.3966 70.2861C78.4313 70.2587 78.482 70.2639 78.5101 70.2983C78.538 70.3328 78.5329 70.3835 78.4987 70.4118C78.4769 70.4298 78.4522 70.4477 78.4272 70.4656C78.4241 70.468 78.4206 70.4702 78.4168 70.4722C78.4143 70.4738 78.4117 70.4754 78.4092 70.4768C78.3956 70.4858 78.3801 70.4956 78.3608 70.5018C78.3525 70.5045 78.344 70.5057 78.3358 70.5057Z" fill="#373B42"/>
<path d="M78.7255 68.582C78.6935 68.582 78.6631 68.563 78.6505 68.5316C78.6337 68.4901 78.6536 68.4429 78.6951 68.4261L82.7658 66.7728C82.8063 66.7556 82.8544 66.7756 82.8711 66.8172C82.8879 66.8587 82.868 66.9059 82.8265 66.9227L78.7558 68.576C78.746 68.5801 78.7356 68.582 78.7255 68.582Z" fill="#373B42"/>
<path d="M66.8904 81.5405C66.8765 81.5405 66.8625 81.537 66.8499 81.5296L56.4417 75.5227C56.0209 75.28 55.7887 74.952 55.7881 74.5994C55.7878 74.249 56.0162 73.9229 56.4319 73.6813L66.7721 67.6745C66.811 67.6522 66.8603 67.665 66.8828 67.7039C66.9052 67.7425 66.8923 67.7921 66.8537 67.8146L56.5135 73.8215C56.1496 74.0327 55.9497 74.3089 55.9501 74.5991C55.9507 74.8916 56.1538 75.1698 56.5227 75.3826L66.9309 81.3895C66.9695 81.4118 66.9828 81.4612 66.9606 81.5C66.9454 81.5259 66.9183 81.5405 66.8904 81.5405Z" fill="#DBDEE4"/>
<path d="M19.2195 51.0172C19.2059 51.0172 19.1924 51.0139 19.1797 51.0065L2.04515 41.2824C1.85408 41.1723 1.74936 41.0207 1.74902 40.8553C1.74869 40.69 1.85341 40.5383 2.04323 40.4279L7.74169 37.1176C7.78027 37.0949 7.82995 37.1079 7.85239 37.147C7.87484 37.1855 7.86187 37.2352 7.82329 37.2576L2.12484 40.568C1.9869 40.648 1.91099 40.75 1.91099 40.8551C1.91133 40.9603 1.98723 41.0621 2.12551 41.142L19.2594 50.8658C19.2983 50.8878 19.3119 50.9373 19.2901 50.9762C19.2749 51.0025 19.2477 51.0172 19.2195 51.0172Z" fill="#DBDEE4"/>
<path d="M42.3604 2.78448C42.3875 2.76888 42.4148 2.75721 42.4421 2.74563C42.4731 2.73003 42.5081 2.71448 42.5393 2.70668C42.5509 2.69888 42.5587 2.69889 42.5703 2.69501C42.6053 2.68334 42.6364 2.67554 42.6752 2.66774C42.7141 2.65616 42.7569 2.65214 42.7997 2.64836C43.1185 2.61329 43.4956 2.70668 43.8961 2.93638L76.5694 21.821C76.7677 21.9339 76.9543 22.0741 77.1371 22.2414C77.8174 22.8447 78.3656 23.7516 78.5989 24.6468C78.6805 24.9542 78.7233 25.2617 78.7233 25.5536L78.5833 74.871C78.5833 74.9334 78.5794 74.9995 78.5755 75.0579C78.5716 75.0968 78.5677 75.1358 78.5638 75.1746C78.56 75.2058 78.556 75.237 78.5521 75.268C78.5483 75.2758 78.5483 75.2875 78.5483 75.2953C78.5405 75.3187 78.5366 75.342 78.5327 75.3692C78.5172 75.4431 78.5017 75.5094 78.4744 75.5755V75.5794C78.4589 75.6262 78.4433 75.6728 78.42 75.7157C78.3733 75.8246 78.315 75.9181 78.2489 75.9998C78.2295 76.027 78.2063 76.0504 78.1829 76.0737C78.1479 76.1127 78.1129 76.1438 78.074 76.1749C78.0506 76.1944 78.0235 76.2138 77.9963 76.2332L82.1483 73.7772C82.5371 73.5516 82.7782 73.0728 82.7782 72.3917L82.9181 23.0742C82.9181 22.7823 82.8754 22.4749 82.7937 22.1674C82.5604 21.2722 82.0122 20.3653 81.3318 19.7621C81.1491 19.5946 80.9624 19.4546 80.7642 19.3417L48.0908 0.457008C47.4921 0.106742 46.9478 0.0755965 46.5551 0.305152L42.3604 2.78448Z" fill="#212121"/>
<path d="M77.1768 22.093C77.8526 22.6922 78.397 23.5931 78.6288 24.4823L82.7955 22.0196C82.5638 21.1303 82.0192 20.2295 81.3434 19.6304" fill="#FFBE2E"/>
<path d="M77.9551 76.2543C77.9668 76.2506 77.9784 76.243 77.9901 76.2354C77.994 76.2354 77.994 76.2316 77.9979 76.2316C78.0251 76.2126 78.0523 76.1938 78.0756 76.1748C78.0368 76.2051 77.9979 76.2316 77.9551 76.2543Z" fill="#BEC4CD"/>
<path d="M78.0756 76.1748C78.0368 76.2051 77.9979 76.2316 77.9551 76.2543C77.9668 76.2506 77.9784 76.243 77.9901 76.2354C77.994 76.2354 77.994 76.2316 77.9979 76.2316C78.0251 76.2126 78.0523 76.1938 78.0756 76.1748Z" fill="#BEC4CD"/>
<path d="M77.9551 76.2543C77.9668 76.2506 77.9784 76.243 77.9901 76.2354C77.994 76.2354 77.994 76.2316 77.9979 76.2316C78.0251 76.2126 78.0523 76.1938 78.0756 76.1748C78.0368 76.2051 77.9979 76.2316 77.9551 76.2543Z" fill="#BEC4CD"/>
<path d="M41.5928 53.4914C41.5889 54.8615 42.5531 56.5312 43.7466 57.224L76.42 76.1087C77.0188 76.4551 77.563 76.4863 77.9557 76.2566C77.9674 76.2527 77.979 76.2449 77.9907 76.2371C77.9946 76.2371 77.9946 76.2332 77.9985 76.2332C78.0257 76.2137 78.0529 76.1943 78.0762 76.1749C78.1152 76.1437 78.1501 76.1126 78.1851 76.0737C78.2085 76.0503 78.2318 76.0269 78.2512 75.9997C78.3173 75.918 78.3756 75.8245 78.4222 75.7157C78.4456 75.6728 78.4611 75.6261 78.4767 75.5794V75.5755C78.5 75.5093 78.5195 75.4431 78.535 75.3692C78.5388 75.342 78.5428 75.3186 78.5505 75.2952C78.5505 75.2874 78.5505 75.2758 78.5544 75.268C78.5583 75.2369 78.5622 75.2057 78.5661 75.1746C78.57 75.1357 78.5739 75.0967 78.5777 75.0579C78.5816 74.9995 78.5856 74.9333 78.5856 74.871L78.7255 25.5535C78.7293 24.1835 77.7651 22.5098 76.5716 21.8209L43.8983 2.93629C43.4978 2.70664 43.1207 2.6132 42.8019 2.64827C42.7591 2.65205 42.7163 2.65607 42.6774 2.66765C42.6386 2.67545 42.6075 2.68325 42.5725 2.69492C42.5608 2.6988 42.553 2.6988 42.5415 2.70659C42.5103 2.71439 42.4753 2.72999 42.4443 2.74554C42.0088 2.94792 41.7367 3.44607 41.7327 4.17392L41.5928 53.4914Z" fill="#DBDEE4"/>
<path d="M75.6147 25.5452C75.6022 25.2664 75.2544 24.6677 75.0148 24.5172L44.8339 7.07324L44.7021 53.5008C44.7147 53.7811 45.0659 54.3819 45.3081 54.5322L75.483 71.9726L75.6147 25.5452Z" fill="#BEC4CD"/>
<path d="M41.5928 53.4914C41.5889 54.8615 42.5531 56.5312 43.7466 57.224L76.42 76.1087C77.0188 76.4551 77.563 76.4863 77.9557 76.2566C77.9674 76.2527 77.979 76.2449 77.9907 76.2371C77.9946 76.2371 77.9946 76.2332 77.9985 76.2332C78.0257 76.2137 78.0529 76.1943 78.0762 76.1749C78.1152 76.1437 78.1501 76.1126 78.1851 76.0737C78.2085 76.0503 78.2318 76.0269 78.2512 75.9997C78.3173 75.918 78.3756 75.8245 78.4222 75.7157C78.4456 75.6728 78.4611 75.6261 78.4767 75.5794V75.5755C78.5 75.5093 78.5195 75.4431 78.535 75.3692C78.5388 75.342 78.5428 75.3186 78.5505 75.2952C78.5505 75.2874 78.5505 75.2758 78.5544 75.268C78.5583 75.2369 78.5622 75.2057 78.5661 75.1746C78.57 75.1357 78.5739 75.0967 78.5777 75.0579C78.5816 74.9995 78.5856 74.9333 78.5856 74.871L78.7255 25.5535C78.7293 24.1835 77.7651 22.5098 76.5716 21.8209L43.8983 2.93629C43.4978 2.70664 43.1207 2.6132 42.8019 2.64827C42.7591 2.65205 42.7163 2.65607 42.6774 2.66765C42.6386 2.67545 42.6075 2.68325 42.5725 2.69492C42.5608 2.6988 42.553 2.6988 42.5415 2.70659C42.5103 2.71439 42.4753 2.72999 42.4443 2.74554C42.0088 2.94792 41.7367 3.44607 41.7327 4.17392L41.5928 53.4914Z" fill="#373B42"/>
<path d="M77.3882 76.4874C77.0791 76.4874 76.7346 76.3843 76.3793 76.1786L43.7057 57.2939C42.4918 56.589 41.5076 54.883 41.5117 53.4908L41.6516 4.17357C41.6554 3.44132 41.9319 2.89417 42.4099 2.67203C42.4466 2.65338 42.4801 2.6396 42.5099 2.63094C42.5238 2.62395 42.5352 2.62098 42.5428 2.61907C42.5849 2.60515 42.6191 2.59644 42.6615 2.58807C42.7016 2.57572 42.751 2.57132 42.7943 2.5675C43.1386 2.53032 43.5328 2.63295 43.9383 2.86585L76.6119 21.7507C77.8261 22.4512 78.8104 24.1572 78.8063 25.5536L78.6664 74.8708C78.6664 74.9351 78.6626 75.0032 78.6582 75.0633L78.6348 75.2775C78.6335 75.2873 78.6307 75.2969 78.6259 75.3056C78.6212 75.339 78.618 75.358 78.6152 75.3801C78.5993 75.4557 78.5807 75.5221 78.556 75.5933C78.5554 75.5974 78.5544 75.6014 78.5535 75.6045C78.5357 75.6583 78.5187 75.7067 78.4933 75.7538C78.4494 75.8569 78.388 75.9589 78.314 76.0504C78.295 76.0773 78.2687 76.1044 78.2418 76.1308C78.207 76.17 78.1691 76.2038 78.1267 76.2378C78.1042 76.2564 78.077 76.2762 78.0495 76.2958C78.0463 76.298 78.0432 76.2999 78.0397 76.3019C78.0371 76.3036 78.0346 76.305 78.0321 76.3064C78.0175 76.3163 78.0007 76.3267 77.9805 76.3333C77.8064 76.4362 77.6062 76.4874 77.3882 76.4874ZM42.935 2.72208C42.8926 2.72208 42.8512 2.72428 42.8104 2.72873C42.7715 2.73222 42.7341 2.73504 42.7003 2.74519C42.6576 2.75404 42.6297 2.76117 42.5978 2.77174C42.5902 2.77667 42.5699 2.78265 42.5611 2.78485C42.5468 2.78849 42.5212 2.79719 42.4804 2.81777C42.0593 3.01354 41.817 3.50749 41.8135 4.17434L41.6736 53.4916C41.6695 54.832 42.6176 56.4751 43.7869 57.1539L76.4602 76.0386C77.0145 76.3591 77.5305 76.4118 77.9146 76.1866L77.9443 76.1705C77.9474 76.1686 77.9503 76.1667 77.9535 76.1652C77.9541 76.1648 77.9547 76.1647 77.955 76.1644C77.9816 76.1455 78.0041 76.1292 78.024 76.1128C78.0607 76.0833 78.0924 76.0551 78.1246 76.0195C78.1477 75.9961 78.1683 75.9764 78.1847 75.953C78.2537 75.8678 78.3059 75.7809 78.3476 75.6837C78.3701 75.6413 78.3837 75.6015 78.397 75.562C78.3976 75.5571 78.3986 75.5525 78.4002 75.5485C78.4239 75.481 78.4416 75.4187 78.4552 75.3526C78.4584 75.3297 78.4625 75.3061 78.4694 75.2825C78.4698 75.2729 78.471 75.2611 78.4751 75.2485L78.4963 75.055C78.5004 74.9955 78.5042 74.9315 78.5042 74.8709L78.6441 25.5534C78.6482 24.2087 77.7 22.566 76.5307 21.8911L43.8575 3.00622C43.531 2.81901 43.215 2.72208 42.935 2.72208Z" fill="#373B42"/>
<path d="M77.3855 75.9181C77.1732 75.9181 76.9236 75.8386 76.6639 75.6882L43.99 56.8035C42.951 56.2001 42.0756 54.6838 42.0791 53.4927L42.219 4.17531C42.2215 3.67295 42.3784 3.31197 42.6492 3.18609L42.679 3.17202L42.7584 3.15178L42.7666 3.14513C42.7688 3.1448 42.7945 3.13958 42.7945 3.13958L42.8159 3.13327C42.8163 3.1336 42.8352 3.13293 42.8451 3.13217C42.8814 3.1282 42.908 3.12695 42.9356 3.12695C43.1444 3.12695 43.3936 3.20666 43.6569 3.35751L76.3286 22.2414C77.3681 22.8415 78.2432 24.3575 78.2397 25.5521L78.0999 74.8695C78.0999 74.922 78.0964 74.9761 78.0933 75.0236L78.0835 75.1198L78.0689 75.147L78.0667 75.2279C78.0629 75.2455 78.0597 75.2635 78.0569 75.2825C78.0465 75.329 78.0338 75.3713 78.019 75.4137L77.9889 75.4975L77.9763 75.5238C77.9494 75.5866 77.9155 75.6424 77.8737 75.6944L77.8254 75.7474H77.7912L77.6959 75.8455C77.6073 75.8938 77.5029 75.9181 77.3855 75.9181Z" fill="#FFBE2E"/>
<path d="M77.3855 75.999C77.159 75.999 76.8955 75.9157 76.6234 75.7582L43.9494 56.8735C42.888 56.2571 41.9946 54.7088 41.9981 53.4923L42.1379 4.17506C42.1407 3.6395 42.3144 3.25225 42.615 3.11264L42.6441 3.09872L42.7254 3.07676C42.7352 3.07106 42.7466 3.06618 42.7551 3.06489L42.7931 3.05556C42.8017 3.05303 42.8133 3.05193 42.8184 3.05226L42.8384 3.05145C42.876 3.04733 42.9054 3.0459 42.9355 3.0459C43.1582 3.0459 43.4218 3.12939 43.697 3.28718L76.369 22.1712C77.4304 22.7838 78.3241 24.3321 78.3207 25.5521L78.1808 74.8695C78.1808 74.9237 78.1773 74.9795 78.1738 75.0289L78.164 75.1279C78.1627 75.1383 78.1595 75.1486 78.1548 75.1578L78.1491 75.1682L78.1475 75.23C78.1421 75.2608 78.1393 75.2771 78.1368 75.2944C78.1244 75.3497 78.1112 75.3951 78.0953 75.4403L78.0491 75.5587C78.021 75.6243 77.9839 75.6862 77.9368 75.7449L77.8849 75.8018C77.8697 75.8185 77.8479 75.8282 77.8251 75.8282L77.754 75.9017C77.7483 75.9076 77.7416 75.9127 77.7343 75.9166C77.6342 75.9714 77.5169 75.999 77.3855 75.999ZM42.7982 3.22115C42.7912 3.22527 42.784 3.22876 42.7783 3.23014L42.684 3.25923C42.4419 3.37167 42.3021 3.70548 42.2999 4.17573L42.1601 53.4928C42.1566 54.6587 43.0133 56.1426 44.0308 56.7334L76.7043 75.6181C77.0758 75.8328 77.4241 75.8934 77.6465 75.7798L77.7329 75.691C77.7477 75.6756 77.7683 75.6668 77.7895 75.6663L77.8138 75.6397C77.8483 75.5966 77.8781 75.5469 77.9018 75.4917L77.9426 75.3863C77.9562 75.3474 77.9682 75.308 77.9778 75.2646C77.98 75.2496 77.9835 75.2299 77.9876 75.2107L77.9879 75.1447C77.9883 75.1322 77.9917 75.1198 77.9974 75.1088L78.0043 75.0957L78.0126 75.0153C78.0154 74.9723 78.0189 74.92 78.0189 74.8694L78.1587 25.5518C78.1622 24.3827 77.3055 22.8988 76.288 22.3114L43.6164 3.4275C43.3658 3.28392 43.1301 3.20785 42.9355 3.20785C42.9105 3.20785 42.8868 3.20895 42.8539 3.21259C42.8447 3.2134 42.8359 3.21402 42.8274 3.21431L42.7982 3.22115Z" fill="#373B42"/>
<path d="M75.6147 25.5452C75.6022 25.2664 75.2544 24.6677 75.0148 24.5172L44.8339 7.07324L44.7021 53.5008C44.7147 53.7811 45.0659 54.3819 45.3081 54.5322L75.483 71.9726L75.6147 25.5452Z" fill="#FFF7E4"/>
<path d="M75.4829 72.0536C75.469 72.0536 75.4547 72.0499 75.4424 72.0427L45.2678 54.6023C45.0023 54.4378 44.635 53.8126 44.6211 53.5044L44.753 7.07294C44.753 7.044 44.7685 7.0173 44.7935 7.0029C44.8188 6.98869 44.8498 6.9885 44.8745 7.00304L75.0551 24.4471C75.318 24.612 75.6818 25.235 75.6957 25.5415C75.6957 25.5427 75.6957 25.544 75.6957 25.5452L75.5638 71.9727C75.5638 72.0017 75.5483 72.0284 75.5233 72.0427C75.5107 72.0499 75.4968 72.0536 75.4829 72.0536ZM44.9147 7.21322L44.7831 53.5009C44.7945 53.7509 45.1342 54.3289 45.3509 54.4635L75.4022 71.8325L75.5338 25.5469C75.5208 25.2935 75.1855 24.72 74.9716 24.5858L44.9147 7.21322Z" fill="#373B42"/>
<path d="M73.1478 34.4298C73.1339 34.4298 73.12 34.4263 73.1073 34.4189L69.0151 32.0535C68.9762 32.0312 68.9633 31.9817 68.9854 31.9429C69.0078 31.9041 69.0578 31.8908 69.0961 31.9134L73.1883 34.2788C73.2272 34.3011 73.2402 34.3507 73.2181 34.3893C73.2029 34.4152 73.1757 34.4298 73.1478 34.4298Z" fill="#373B42"/>
<path d="M65.5077 30.0147C65.4938 30.0147 65.4799 30.0112 65.4672 30.0038L54.1352 23.4543C54.0963 23.432 54.0834 23.3825 54.1055 23.3438C54.128 23.3047 54.178 23.2918 54.2162 23.3142L65.5482 29.8637C65.5871 29.886 65.6001 29.9355 65.578 29.9742C65.5628 30.0002 65.5356 30.0147 65.5077 30.0147Z" fill="#373B42"/>
<path d="M50.1705 21.1502C50.1565 21.1502 50.1426 21.1467 50.13 21.1393L47.0005 19.3303C46.9616 19.308 46.9486 19.2584 46.9708 19.2198C46.9935 19.1809 47.0432 19.1676 47.0815 19.1902L50.211 20.9992C50.2499 21.0215 50.2629 21.0711 50.2407 21.1097C50.2255 21.1356 50.1983 21.1502 50.1705 21.1502Z" fill="#373B42"/>
<path d="M73.1481 37.7138C73.1341 37.7138 73.1202 37.7103 73.1076 37.7029L64.9263 32.9743C64.8873 32.952 64.8744 32.9025 64.8965 32.8638C64.919 32.8248 64.9693 32.8118 65.0073 32.8342L73.1886 37.5628C73.2275 37.5851 73.2405 37.6346 73.2183 37.6733C73.2031 37.6992 73.1759 37.7138 73.1481 37.7138Z" fill="#373B42"/>
<path d="M61.0153 30.7007C61.0014 30.7007 60.9875 30.6972 60.9748 30.6898L54.3735 26.8743C54.3346 26.852 54.3216 26.8025 54.3438 26.7638C54.3662 26.7249 54.4163 26.7116 54.4546 26.7342L61.0559 30.5497C61.0948 30.572 61.1078 30.6215 61.0856 30.6603C61.0704 30.6862 61.0432 30.7007 61.0153 30.7007Z" fill="#373B42"/>
<path d="M51.6476 25.2865C51.6337 25.2865 51.6197 25.283 51.6071 25.2756L47.0005 22.6129C46.9616 22.5906 46.9486 22.5411 46.9708 22.5024C46.9935 22.4634 47.0432 22.4505 47.0815 22.4728L51.6881 25.1355C51.727 25.1578 51.74 25.2073 51.7179 25.246C51.7026 25.2719 51.6754 25.2865 51.6476 25.2865Z" fill="#373B42"/>
<path d="M73.1483 40.9975C73.1344 40.9975 73.1205 40.9941 73.1078 40.9866L71.2827 39.9318C71.2438 39.9095 71.2308 39.86 71.253 39.8213C71.2754 39.7822 71.3257 39.7694 71.3637 39.7917L73.1888 40.8466C73.2277 40.8688 73.2407 40.9183 73.2185 40.9571C73.2034 40.983 73.1762 40.9975 73.1483 40.9975Z" fill="#373B42"/>
<path d="M67.4664 37.7136C67.4525 37.7136 67.4386 37.7102 67.4259 37.7027L57.5005 31.966C57.4616 31.9437 57.4486 31.8942 57.4708 31.8554C57.4932 31.8164 57.5435 31.8036 57.5815 31.8259L67.5069 37.5627C67.5458 37.5849 67.5588 37.6344 67.5366 37.6732C67.5214 37.6991 67.4943 37.7136 67.4664 37.7136Z" fill="#373B42"/>
<path d="M54.4133 30.1687C54.3994 30.1687 54.3854 30.1652 54.3728 30.1578L47.0005 25.8967C46.9616 25.8744 46.9486 25.8249 46.9708 25.7862C46.9935 25.7471 47.0432 25.7342 47.0815 25.7566L54.4538 30.0177C54.4928 30.04 54.5057 30.0895 54.4836 30.1282C54.4683 30.1542 54.4412 30.1687 54.4133 30.1687Z" fill="#373B42"/>
<path d="M73.1483 44.28C73.1344 44.28 73.1204 44.2766 73.1078 44.2691L64.4741 39.2791C64.4352 39.2568 64.4222 39.2073 64.4444 39.1685C64.4668 39.1296 64.5169 39.1163 64.5551 39.139L73.1888 44.1291C73.2277 44.1513 73.2407 44.2008 73.2185 44.2396C73.2033 44.2655 73.1761 44.28 73.1483 44.28Z" fill="#373B42"/>
<path d="M61.0153 37.2673C61.0014 37.2673 60.9874 37.2638 60.9748 37.2564L51.9731 32.0535C51.9342 32.0312 51.9212 31.9815 51.9434 31.9429C51.9659 31.9041 52.0159 31.8908 52.0541 31.9134L61.0558 37.1163C61.0947 37.1386 61.1076 37.1883 61.0855 37.2268C61.0704 37.2528 61.0431 37.2673 61.0153 37.2673Z" fill="#373B42"/>
<path d="M48.7326 30.1682C48.7187 30.1682 48.7047 30.1647 48.6921 30.1573L47.0005 29.1794C46.9616 29.1572 46.9486 29.1075 46.9708 29.0689C46.9935 29.03 47.0432 29.0167 47.0815 29.0394L48.7731 30.0172C48.8121 30.0395 48.825 30.0892 48.8029 30.1277C48.7876 30.1536 48.7604 30.1682 48.7326 30.1682Z" fill="#373B42"/>
<path d="M73.1469 47.5634C73.133 47.5634 73.119 47.5599 73.1064 47.5525L67.8667 44.5241C67.8278 44.5018 67.8148 44.4523 67.837 44.4136C67.8594 44.3746 67.9094 44.3616 67.9477 44.384L73.1874 47.4124C73.2263 47.4347 73.2393 47.4842 73.2171 47.5229C73.2019 47.5488 73.1747 47.5634 73.1469 47.5634Z" fill="#373B42"/>
<path d="M64.9672 42.8346C64.9532 42.8346 64.9393 42.8311 64.9267 42.8236L55.8276 37.5646C55.7887 37.5423 55.7757 37.4928 55.7979 37.4541C55.8203 37.415 55.8706 37.4022 55.9086 37.4245L65.0077 42.6836C65.0466 42.7059 65.0596 42.7553 65.0374 42.7941C65.0222 42.82 64.995 42.8346 64.9672 42.8346Z" fill="#373B42"/>
<path d="M53.6002 36.2651C53.5863 36.2651 53.5724 36.2616 53.5597 36.2542L47.0005 32.463C46.9616 32.4407 46.9486 32.3913 46.9708 32.3525C46.9935 32.3135 47.0432 32.3006 47.0815 32.3229L53.6408 36.1141C53.6797 36.1364 53.6926 36.1859 53.6705 36.2247C53.6553 36.2506 53.6281 36.2651 53.6002 36.2651Z" fill="#373B42"/>
<path d="M73.1481 50.8467C73.1342 50.8467 73.1203 50.8432 73.1076 50.8358L70.4878 49.3215C70.4489 49.2992 70.4359 49.2498 70.4581 49.211C70.4808 49.1721 70.5305 49.1588 70.5688 49.1814L73.1886 50.6957C73.2275 50.718 73.2405 50.7674 73.2184 50.8062C73.2032 50.8321 73.176 50.8467 73.1481 50.8467Z" fill="#373B42"/>
<path d="M67.6559 47.6728C67.642 47.6728 67.628 47.6693 67.6154 47.6619L52.5141 38.9337C52.4752 38.9114 52.4623 38.8619 52.4844 38.8232C52.5072 38.7842 52.5569 38.7713 52.5951 38.7936L67.6964 47.5218C67.7353 47.5441 67.7482 47.5936 67.7261 47.6323C67.7109 47.6583 67.6837 47.6728 67.6559 47.6728Z" fill="#373B42"/>
<path d="M49.7975 37.3506C49.7836 37.3506 49.7696 37.3471 49.757 37.3397L47.0005 35.7463C46.9616 35.724 46.9486 35.6743 46.9708 35.6358C46.9935 35.5967 47.0432 35.5838 47.0815 35.6062L49.838 37.1996C49.8769 37.2219 49.8899 37.2716 49.8678 37.3101C49.8525 37.3361 49.8253 37.3506 49.7975 37.3506Z" fill="#373B42"/>
<path d="M73.1478 54.1298C73.1339 54.1298 73.1199 54.1263 73.1073 54.1189L66.6284 50.3741C66.5895 50.3519 66.5765 50.3024 66.5987 50.2636C66.6215 50.2246 66.6711 50.2118 66.7094 50.2341L73.1883 53.9788C73.2272 54.0011 73.2402 54.0505 73.2181 54.0893C73.2028 54.1152 73.1756 54.1298 73.1478 54.1298Z" fill="#373B42"/>
<path d="M63.5749 48.5976C63.5609 48.5976 63.547 48.5941 63.5344 48.5867L54.5669 43.4035C54.528 43.3812 54.515 43.3317 54.5372 43.293C54.5596 43.254 54.6096 43.241 54.6479 43.2634L63.6154 48.4466C63.6543 48.4689 63.6673 48.5184 63.6451 48.5571C63.6299 48.5831 63.6027 48.5976 63.5749 48.5976Z" fill="#373B42"/>
<path d="M51.7884 41.785C51.7745 41.785 51.7605 41.7815 51.7479 41.7741L47.0005 39.03C46.9616 39.0077 46.9486 38.9583 46.9708 38.9195C46.9935 38.8806 47.0432 38.8673 47.0815 38.8899L51.8289 41.634C51.8679 41.6563 51.8808 41.7058 51.8587 41.7446C51.8434 41.7705 51.8162 41.785 51.7884 41.785Z" fill="#373B42"/>
<path d="M73.1471 57.4132C73.1332 57.4132 73.1193 57.4097 73.1066 57.4023L62.4634 51.2507C62.4245 51.2284 62.4115 51.179 62.4336 51.1402C62.4561 51.1013 62.5064 51.088 62.5443 51.1106L73.1876 57.2622C73.2265 57.2845 73.2395 57.334 73.2173 57.3727C73.2022 57.3986 73.175 57.4132 73.1471 57.4132Z" fill="#373B42"/>
<path d="M58.8036 49.1229C58.7897 49.1229 58.7757 49.1194 58.7631 49.112L50.6479 44.4216C50.609 44.3993 50.5961 44.3498 50.6182 44.3111C50.641 44.272 50.6907 44.2591 50.7289 44.2815L58.8441 48.9719C58.883 48.9942 58.896 49.0437 58.8738 49.0825C58.8586 49.1084 58.8314 49.1229 58.8036 49.1229Z" fill="#373B42"/>
<path d="M48.9272 43.4142C48.9132 43.4142 48.8993 43.4107 48.8867 43.4033L47.0005 42.3132C46.9616 42.2909 46.9486 42.2414 46.9708 42.2027C46.9935 42.1636 47.0432 42.1507 47.0815 42.1731L48.9677 43.2632C49.0066 43.2855 49.0196 43.335 48.9974 43.3737C48.9822 43.3997 48.955 43.4142 48.9272 43.4142Z" fill="#373B42"/>
<path d="M73.1479 60.6965C73.1339 60.6965 73.12 60.693 73.1074 60.6856L70.7153 59.3029C70.6764 59.2806 70.6634 59.2312 70.6856 59.1924C70.7083 59.1534 70.758 59.1404 70.7963 59.1628L73.1884 60.5455C73.2273 60.5678 73.2403 60.6173 73.2181 60.656C73.2029 60.6819 73.1757 60.6965 73.1479 60.6965Z" fill="#373B42"/>
<path d="M68.1075 57.7834C68.0935 57.7834 68.0796 57.7799 68.067 57.7725L55.4438 50.4768C55.4049 50.4545 55.392 50.405 55.4141 50.3662C55.4366 50.3272 55.4869 50.3142 55.5249 50.3367L68.1479 57.6324C68.1869 57.6547 68.1998 57.7042 68.1777 57.7429C68.1625 57.7689 68.1353 57.7834 68.1075 57.7834Z" fill="#373B42"/>
<path d="M52.0633 48.5107C52.0494 48.5107 52.0355 48.5072 52.0228 48.4998L47.0005 45.5969C46.9616 45.5746 46.9486 45.5252 46.9708 45.4864C46.9935 45.4475 47.0432 45.4342 47.0815 45.4568L52.1039 48.3597C52.1428 48.382 52.1557 48.4314 52.1336 48.4702C52.1184 48.4961 52.0912 48.5107 52.0633 48.5107Z" fill="#373B42"/>
<path d="M73.1481 63.9788C73.1342 63.9788 73.1203 63.9753 73.1076 63.9679L66.9897 60.4318C66.9508 60.4095 66.9379 60.36 66.96 60.3212C66.9825 60.2822 67.0328 60.2694 67.0708 60.2917L73.1887 63.8278C73.2276 63.8501 73.2406 63.8996 73.2184 63.9384C73.2032 63.9643 73.176 63.9788 73.1481 63.9788Z" fill="#373B42"/>
<path d="M63.5753 58.4475C63.5614 58.4475 63.5474 58.444 63.5348 58.4366L57.3179 54.8434C57.2789 54.8211 57.266 54.7716 57.2881 54.7329C57.3106 54.6938 57.3606 54.681 57.3989 54.7033L63.6158 58.2965C63.6547 58.3188 63.6677 58.3683 63.6456 58.4071C63.6303 58.433 63.6031 58.4475 63.5753 58.4475Z" fill="#373B42"/>
<path d="M54.3953 53.1411C54.3813 53.1411 54.3674 53.1376 54.3548 53.1302L47.0005 48.8795C46.9616 48.8572 46.9486 48.8078 46.9708 48.769C46.9935 48.73 47.0432 48.7171 47.0815 48.7394L54.4358 52.9901C54.4747 53.0124 54.4877 53.0619 54.4655 53.1007C54.4503 53.1265 54.4231 53.1411 54.3953 53.1411Z" fill="#373B42"/>
<path d="M73.1473 67.2631C73.1333 67.2631 73.1194 67.2596 73.1068 67.2522L69.0161 64.8879C68.9772 64.8656 68.9642 64.8162 68.9864 64.7774C69.0088 64.7385 69.0591 64.7252 69.0971 64.7479L73.1878 67.1122C73.2267 67.1345 73.2396 67.1839 73.2175 67.2227C73.2023 67.2486 73.1751 67.2631 73.1473 67.2631Z" fill="#373B42"/>
<path d="M66.1673 63.2286C66.1534 63.2286 66.1395 63.2251 66.1268 63.2177L59.6147 59.4539C59.5758 59.4316 59.5629 59.382 59.585 59.3433C59.6075 59.3044 59.6575 59.2911 59.6957 59.3138L66.2079 63.0776C66.2468 63.0999 66.2598 63.1494 66.2376 63.1881C66.2224 63.2141 66.1951 63.2286 66.1673 63.2286Z" fill="#373B42"/>
<path d="M56.514 57.6494C56.5 57.6494 56.4861 57.6459 56.4735 57.6385L47.0005 52.1633C46.9616 52.141 46.9486 52.0915 46.9708 52.0528C46.9935 52.0137 47.0432 52.0008 47.0815 52.0232L56.5546 57.4984C56.5935 57.5207 56.6064 57.5702 56.5843 57.6089C56.5691 57.6349 56.5418 57.6494 56.514 57.6494Z" fill="#373B42"/>
<path d="M77.996 76.3144C77.9695 76.3144 77.9435 76.3014 77.9283 76.2777C77.9046 76.2413 77.9138 76.1928 77.9489 76.1676C77.9771 76.1474 78.0011 76.1303 78.022 76.1131C78.0587 76.0835 78.0903 76.0554 78.1226 76.0198C78.1457 75.9964 78.1663 75.9766 78.1827 75.9533C78.2517 75.868 78.3039 75.7812 78.3456 75.684C78.3681 75.6414 78.3817 75.6016 78.395 75.5617C78.3959 75.5557 78.3975 75.5499 78.3994 75.5451C78.425 75.4827 78.4396 75.4185 78.4532 75.3529C78.4564 75.3299 78.4605 75.3064 78.4674 75.2828C78.4678 75.2731 78.469 75.2613 78.4731 75.2488L78.4943 75.0553C78.4985 74.9958 78.5022 74.9318 78.5022 74.8712L78.6421 25.5537C78.6421 25.2699 78.6013 24.9716 78.5206 24.6677C78.2891 23.7793 77.7519 22.8951 77.0834 22.3021C76.898 22.1326 76.717 21.9985 76.5291 21.8916L43.8555 3.00664C43.4796 2.79096 43.1186 2.69594 42.8083 2.72915C42.7694 2.73264 42.7321 2.73546 42.6982 2.7456C42.6555 2.75445 42.6277 2.76158 42.5957 2.77216C42.5881 2.77708 42.5678 2.78306 42.559 2.78527C42.5448 2.7889 42.5191 2.79761 42.4783 2.81818C42.4492 2.83067 42.4248 2.84096 42.4008 2.85502C42.3616 2.8767 42.3125 2.86435 42.2904 2.8256C42.2679 2.78718 42.2806 2.73785 42.3192 2.71508L46.5139 0.235705C46.9521 -0.0205955 47.5263 0.0333247 48.1315 0.387371L80.8044 19.2719C81.0028 19.3847 81.1933 19.5257 81.3866 19.7026C82.0772 20.3152 82.6327 21.2293 82.8719 22.1472C82.9564 22.4641 82.9991 22.7761 82.9991 23.0745L82.8589 72.3922C82.8589 73.0799 82.621 73.5967 82.1889 73.8475L78.0372 76.3032C78.0245 76.3107 78.0103 76.3144 77.996 76.3144ZM78.5534 75.5962C78.5528 75.5993 78.5522 75.6024 78.5513 75.605C78.5335 75.6588 78.5165 75.7072 78.4911 75.7543C78.4725 75.7984 78.4503 75.8423 78.4257 75.8853L82.1069 73.7077C82.4875 73.4868 82.697 73.0196 82.697 72.392L82.8371 23.0743C82.8371 22.7901 82.796 22.4921 82.7153 22.1885C82.4837 21.3 81.9465 20.4157 81.278 19.8229C81.093 19.6533 80.912 19.5193 80.7238 19.4123L48.0502 0.527267C47.4972 0.203746 46.9812 0.150303 46.5958 0.375313L42.8981 2.56093C43.217 2.55255 43.5717 2.65704 43.9361 2.86641L76.6097 21.7513C76.8077 21.864 76.9982 22.0049 77.1918 22.1819C77.8824 22.7946 78.438 23.7089 78.6771 24.6266C78.7613 24.9437 78.804 25.2558 78.804 25.5539L78.6642 74.8715C78.6642 74.9357 78.6604 75.0038 78.6559 75.0639L78.6325 75.2781C78.6312 75.2879 78.6284 75.2975 78.6237 75.3063C78.6189 75.3396 78.6158 75.3586 78.6129 75.3807C78.5978 75.4529 78.5816 75.5245 78.5534 75.5962Z" fill="#373B42"/>
<path d="M68.9652 18.9742L68.9685 20.2922L68.625 20.4898L66.7298 21.5843C66.4707 21.7365 66.2342 21.7462 66.069 21.6459C66.0657 21.6426 66.0657 21.6394 66.0625 21.6394C66.0593 21.6394 66.0593 21.6362 66.056 21.6362C66.0431 21.6265 66.0301 21.6168 66.0204 21.6071C66.0074 21.5974 65.9945 21.5844 65.9847 21.5714C65.9718 21.5617 65.962 21.552 65.9556 21.5423C65.9167 21.4969 65.8875 21.4452 65.8649 21.3804C65.8616 21.3675 65.8552 21.3513 65.8519 21.335C65.826 21.2573 65.8131 21.1634 65.8131 21.0598L65.8033 18.848L65.7969 17.6627C65.7969 17.5008 65.8131 17.3324 65.8455 17.1608C66.0302 16.1407 66.7429 15.0429 67.5949 14.5474L73.1573 11.3252L73.1671 14.9522L68.9588 17.394L68.9652 18.9742Z" fill="#FFBE2E"/>
<path d="M66.3163 21.7925C66.2103 21.7925 66.1123 21.7669 66.0268 21.7148C66.023 21.7126 66.0192 21.7096 66.0154 21.7061C66.0126 21.7045 66.0101 21.703 66.0075 21.701C65.9914 21.689 65.9756 21.6767 65.9633 21.6647C65.9538 21.6582 65.9395 21.6443 65.9269 21.6289C65.9104 21.6154 65.8975 21.6013 65.8876 21.5861C65.8481 21.5411 65.8146 21.4815 65.7883 21.4071C65.7883 21.4063 65.7829 21.3883 65.7826 21.3877C65.7788 21.3758 65.775 21.363 65.7724 21.3503C65.7465 21.2749 65.732 21.1737 65.732 21.0597L65.7158 17.663C65.7158 17.4952 65.7326 17.3213 65.7655 17.1456C65.9598 16.0743 66.695 14.9768 67.5539 14.4771L73.1166 11.255C73.1413 11.2405 73.1723 11.2406 73.1976 11.2549C73.2226 11.2693 73.2381 11.296 73.2381 11.3249L73.2479 14.9518C73.2479 14.9808 73.2327 15.0075 73.2077 15.022L69.0399 17.4402L69.0462 18.9737C69.0462 18.9737 69.0462 18.9737 69.0462 18.9738L69.0494 20.292C69.0494 20.3209 69.0339 20.3478 69.0089 20.3624L66.7703 21.6543C66.6143 21.746 66.4584 21.7925 66.3163 21.7925ZM66.1205 21.5822C66.2673 21.6652 66.4739 21.6409 66.6887 21.5145L68.8874 20.2454L68.8776 17.3941C68.8776 17.3652 68.8928 17.3383 68.9178 17.3237L73.086 14.9056L73.0765 11.4654L67.6352 14.6173C66.8276 15.087 66.1081 16.1628 65.9249 17.1751C65.8936 17.3414 65.8778 17.5053 65.8778 17.6626L65.8939 21.0594C65.8939 21.1549 65.9059 21.2413 65.9287 21.3092L65.9366 21.3381C65.9372 21.34 65.9429 21.3592 65.9436 21.3611C65.9607 21.4084 65.9847 21.4517 66.017 21.4895C66.0236 21.4943 66.0451 21.5169 66.0502 21.5235C66.0546 21.5299 66.0622 21.5373 66.0688 21.5425C66.0818 21.5543 66.0907 21.5612 66.0992 21.5674C66.0999 21.5677 66.1005 21.5681 66.1012 21.5685C66.1081 21.5722 66.1148 21.5768 66.1205 21.5822Z" fill="#373B42"/>
<g opacity="0.1">
<path d="M36.7172 82.9313L54.6225 72.5144L36.748 62.1831L18.8428 72.6L36.7172 82.9313Z" fill="black"/>
</g>
<path d="M36.6864 79.9528L54.4521 69.617L36.7169 59.3662L18.9512 69.702L36.6864 79.9528Z" fill="white"/>
<path d="M36.6864 80.034C36.6725 80.034 36.6586 80.0304 36.6459 80.0231L18.9106 69.7723C18.8856 69.7579 18.8701 69.7312 18.8701 69.7024C18.8701 69.6735 18.8853 69.6468 18.9103 69.6322L36.6763 59.2966C36.7016 59.282 36.7323 59.282 36.7576 59.2966L54.4926 69.5473C54.5176 69.5617 54.5331 69.5884 54.5331 69.6172C54.5331 69.6462 54.5179 69.6729 54.4929 69.6874L36.7273 80.0231C36.7146 80.0304 36.7004 80.034 36.6864 80.034ZM19.1124 69.7022L36.6864 79.8594L54.2907 69.6175L36.7171 59.4602L19.1124 69.7022Z" fill="#373B42"/>
<path d="M36.6855 79.9521L54.4513 69.6163L54.509 49.2104L36.7434 59.5462L36.6855 79.9521Z" fill="#212121"/>
<path d="M36.6855 80.0329C36.6715 80.0329 36.6576 80.0292 36.645 80.022C36.62 80.0076 36.6045 79.9807 36.6045 79.9517L36.6624 59.5459C36.6624 59.5171 36.6779 59.4905 36.7026 59.476L54.4682 49.1403C54.4936 49.1258 54.5242 49.1258 54.5496 49.1403C54.5745 49.1547 54.59 49.1816 54.59 49.2105L54.5321 69.6164C54.5321 69.6452 54.5166 69.6717 54.492 69.6863L36.7263 80.022C36.7136 80.0292 36.6994 80.0329 36.6855 80.0329ZM36.8244 59.5927L36.7668 79.8109L54.3702 69.5696L54.4277 49.3514L36.8244 59.5927Z" fill="#373B42"/>
<path d="M36.7441 59.5465L54.5097 49.2108L36.7745 38.96L19.0088 49.2957L36.7441 59.5465Z" fill="#FFF7E4"/>
<path d="M36.7441 59.6274C36.7301 59.6274 36.7162 59.6238 36.7036 59.6165L18.9682 49.3657C18.9432 49.3513 18.9277 49.3246 18.9277 49.2958C18.9277 49.2669 18.9429 49.2402 18.9679 49.2257L36.7336 38.8898C36.7589 38.8753 36.7896 38.8753 36.8149 38.8898L54.5502 49.1407C54.5752 49.1551 54.5907 49.1818 54.5907 49.2106C54.5907 49.2396 54.5755 49.2663 54.5506 49.2808L36.7849 59.6165C36.7722 59.6238 36.7579 59.6274 36.7441 59.6274ZM19.1701 49.2956L36.7441 59.4528L54.3484 49.211L36.7744 39.0535L19.1701 49.2956Z" fill="#373B42"/>
<path d="M25.7832 53.2149L29.9148 55.6016L47.6815 45.2666L43.5497 42.8799L25.7832 53.2149Z" fill="#212121"/>
<path d="M29.9149 55.6833C29.901 55.6833 29.8871 55.6797 29.8744 55.6724L25.7426 53.2857C25.7177 53.2713 25.7021 53.2446 25.7021 53.2158C25.7021 53.1868 25.7173 53.1601 25.7423 53.1456L43.5089 42.8107C43.5343 42.7962 43.5649 42.7962 43.5903 42.8107L47.722 45.1973C47.747 45.2117 47.7625 45.2384 47.7625 45.2672C47.7625 45.2962 47.7474 45.3229 47.7224 45.3374L29.9557 55.6724C29.9431 55.6797 29.9288 55.6833 29.9149 55.6833ZM25.9445 53.2154L29.915 55.5088L47.5203 45.2677L43.5498 42.9744L25.9445 53.2154Z" fill="#373B42"/>
<path d="M18.9492 69.7025L36.687 79.9529L36.7439 59.5473L29.9148 55.6012L25.7832 53.2145L19.0062 49.2969L18.9492 69.7025Z" fill="#FFBE2E"/>
<path d="M36.686 80.0341C36.6721 80.0341 36.6582 80.0305 36.6455 80.0232L18.9077 69.7728C18.8827 69.7584 18.8672 69.7315 18.8672 69.7026L18.9241 49.2971C18.9241 49.2681 18.9397 49.2414 18.9646 49.227C18.99 49.2128 19.021 49.2126 19.0456 49.2272L36.7835 59.4775C36.8085 59.4919 36.824 59.5187 36.824 59.5476L36.767 79.9533C36.767 79.9823 36.7515 80.009 36.7265 80.0234C36.7139 80.0305 36.7 80.0341 36.686 80.0341ZM19.0292 69.6561L36.6054 79.8131L36.662 59.5942L19.0858 49.4373L19.0292 69.6561Z" fill="#373B42"/>
<path d="M30.3314 67.8249C30.374 67.8495 30.4169 67.894 30.4494 67.952L31.6104 70.0798C31.7034 70.2498 31.6317 70.3979 31.4939 70.3182L30.9958 70.0304L30.9833 74.4397C30.9832 74.5147 30.9296 74.5453 30.8644 74.5076L29.7646 73.8719C29.6979 73.8333 29.6462 73.742 29.6464 73.6669L29.6589 69.2576L29.1609 68.9697C29.023 68.89 28.9524 68.6596 29.0446 68.5968L30.2153 67.8166C30.2465 67.7954 30.2888 67.8003 30.3314 67.8249Z" fill="white"/>
<path d="M33.7439 69.7976C33.7864 69.8222 33.8286 69.8662 33.8596 69.9234L35.022 72.052C35.115 72.222 35.0419 72.3693 34.9041 72.2896L34.406 72.0017L34.3935 76.4111C34.3933 76.4861 34.3413 76.5175 34.2746 76.479L33.1748 75.8433C33.1095 75.8056 33.0564 75.7133 33.0566 75.6383L33.0691 71.229L32.571 70.9411C32.4332 70.8614 32.3625 70.631 32.4577 70.5699L33.6269 69.7889C33.6588 69.7681 33.7015 69.7731 33.7439 69.7976Z" fill="white"/>
<path d="M29.9073 55.584L29.9071 61.0204L27.8451 57.6498L25.7832 58.6522L25.7834 53.2158L29.9073 55.584Z" fill="#212121"/>
<path d="M29.907 61.1007C29.8791 61.1007 29.8529 61.0865 29.838 61.0619L27.8142 57.7542L25.8185 58.7244C25.7936 58.7366 25.7638 58.735 25.7401 58.7203C25.7164 58.7054 25.7021 58.6795 25.7021 58.6517L25.7025 53.2152C25.7025 53.1862 25.718 53.1596 25.743 53.1452C25.7677 53.1306 25.7986 53.1307 25.824 53.145L29.9478 55.5132C29.9728 55.5276 29.9883 55.5545 29.9883 55.5834L29.988 61.0198C29.988 61.056 29.9639 61.0879 29.9288 61.0977C29.9215 61.0998 29.9142 61.1007 29.907 61.1007ZM27.8449 57.5682C27.8721 57.5682 27.8987 57.5822 27.9139 57.607L29.826 60.7323L29.8263 55.6303L25.8644 53.3552L25.8641 58.5224L27.8095 57.5765C27.8208 57.5709 27.8329 57.5682 27.8449 57.5682Z" fill="#373B42"/>
<path d="M17.2637 80.6421C16.8356 80.6421 16.4076 80.5479 16.0808 80.3592L5.9187 74.3603C5.88012 74.3375 5.86744 74.2879 5.89022 74.2495C5.91238 74.2107 5.96201 74.1979 6.00097 74.2209L16.1624 80.2195C16.7708 80.5704 17.7582 80.5704 18.3622 80.2192L26.391 75.5551C26.4295 75.5325 26.4792 75.5455 26.5017 75.5846C26.5241 75.6231 26.5112 75.6728 26.4726 75.6952L18.4438 80.3592C18.1188 80.5479 17.6914 80.6421 17.2637 80.6421Z" fill="#DBDEE4"/>
<path d="M6.46841 73.3118C7.04778 73.6461 7.05108 74.1886 6.47549 74.523C5.8999 74.8573 4.96305 74.8572 4.38368 74.5228C3.80431 74.1884 3.80148 73.6463 4.37712 73.3119C4.95271 72.9775 5.88904 72.9774 6.46841 73.3118Z" fill="white"/>
<path d="M5.43096 74.8528C5.0374 74.8528 4.64354 74.7661 4.34297 74.5925C4.03579 74.4152 3.8665 74.1747 3.86621 73.9151C3.86588 73.657 4.03263 73.4179 4.33602 73.2415C4.93334 72.895 5.90839 72.8946 6.50887 73.2413C6.81604 73.4186 6.98562 73.6594 6.98596 73.9192C6.98629 74.1773 6.81925 74.4164 6.51614 74.5927C6.21748 74.7661 5.8242 74.8528 5.43096 74.8528ZM5.42149 73.1409C5.05735 73.1409 4.69384 73.2211 4.41763 73.3816C4.16611 73.5277 4.02789 73.7171 4.02818 73.9149C4.02851 74.1141 4.16894 74.3052 4.42395 74.4524C4.98011 74.7734 5.88211 74.7736 6.43449 74.4525C6.686 74.3066 6.82428 74.1173 6.82394 73.9194C6.82361 73.7198 6.68284 73.5288 6.42784 73.3814C6.14976 73.2212 5.78529 73.1409 5.42149 73.1409Z" fill="#DBDEE4"/>
<path d="M5.42988 74.2986C5.20402 74.2986 4.98543 74.2473 4.83017 74.1576C4.70549 74.0856 4.63388 73.9972 4.63379 73.9151C4.63369 73.8339 4.70386 73.7465 4.82629 73.6754C4.98026 73.586 5.19799 73.5347 5.42356 73.5347C5.64923 73.5347 5.86762 73.586 6.02279 73.6756C6.14762 73.7476 6.21922 73.8361 6.21937 73.9184C6.21946 73.9996 6.14939 74.0869 6.02701 74.158C5.87308 74.2474 5.65545 74.2986 5.42988 74.2986Z" fill="#FFBE2E"/>
<path d="M10.5298 77.2008C10.2872 77.2008 10.0525 77.1456 9.88573 77.0494C9.75181 76.9721 9.67495 76.8771 9.6748 76.7889C9.67471 76.7017 9.75004 76.6079 9.88157 76.5315C10.0469 76.4354 10.2807 76.3804 10.523 76.3804C10.7653 76.3804 10.9999 76.4355 11.1666 76.5317C11.3006 76.6091 11.3775 76.7041 11.3777 76.7924C11.3778 76.8796 11.3025 76.9734 11.1711 77.0498C11.0058 77.1458 10.7721 77.2008 10.5298 77.2008Z" fill="#373B42"/>
<path d="M66.8995 82.6699C66.3202 82.3356 66.3169 81.7931 66.8925 81.4587C67.4681 81.1243 68.4049 81.1245 68.9842 81.4589C69.5636 81.7932 69.5664 82.3354 68.9908 82.6698C68.4152 83.0042 67.4789 83.0043 66.8995 82.6699Z" fill="white"/>
<path d="M67.9463 83.0004C67.5531 83.0004 67.1592 82.9138 66.8589 82.7403C66.5517 82.563 66.3822 82.3222 66.3818 82.0626C66.3815 81.8045 66.5483 81.5653 66.8517 81.3891C67.4493 81.042 68.4237 81.0422 69.0245 81.3893C69.3317 81.5664 69.5012 81.8071 69.5016 82.0665C69.5019 82.3246 69.3349 82.5638 69.0314 82.7403C68.7328 82.9138 68.3395 83.0004 67.9463 83.0004ZM67.9365 81.2886C67.5727 81.2886 67.2092 81.3688 66.9333 81.5292C66.6818 81.6752 66.5436 81.8645 66.5438 82.0623C66.5442 82.2618 66.6847 82.4528 66.94 82.6002C67.4961 82.9209 68.3974 82.9211 68.9498 82.6002C69.2017 82.4541 69.3399 82.2647 69.3396 82.0669C69.3393 81.8674 69.1985 81.6766 68.9435 81.5294C68.6654 81.3689 68.3006 81.2886 67.9365 81.2886Z" fill="#DBDEE4"/>
<path d="M67.9388 81.6816C68.1647 81.6816 68.3833 81.733 68.5386 81.8227C68.6633 81.8946 68.7349 81.9831 68.735 82.0652C68.7351 82.1464 68.6649 82.2337 68.5425 82.3049C68.3885 82.3943 68.1708 82.4456 67.9452 82.4456C67.7196 82.4456 67.5012 82.3942 67.346 82.3047C67.2212 82.2327 67.1496 82.1442 67.1494 82.0619C67.1493 81.9807 67.2194 81.8934 67.3418 81.8223C67.4957 81.7329 67.7133 81.6816 67.9388 81.6816Z" fill="#FFBE2E"/>
<path d="M62.8381 78.7803C63.0807 78.7803 63.3154 78.8355 63.4822 78.9317C63.6161 79.009 63.693 79.104 63.6931 79.1922C63.6932 79.2794 63.6179 79.3732 63.4864 79.4496C63.321 79.5457 63.0872 79.6008 62.8449 79.6007C62.6026 79.6007 62.368 79.5456 62.2013 79.4494C62.0673 79.3721 61.9904 79.277 61.9902 79.1887C61.9901 79.1015 62.0654 79.0077 62.1968 78.9314C62.3621 78.8353 62.5958 78.7803 62.8381 78.7803Z" fill="#373B42"/>
<g opacity="0.1">
<path d="M16.8249 37.7874C14.3151 39.2333 10.2407 39.2215 7.72413 37.7587C5.20759 36.2942 5.20424 33.9338 7.7123 32.4879C10.2221 31.042 14.2965 31.0538 16.813 32.5183C19.3296 33.9811 19.3329 36.3415 16.8249 37.7874Z" fill="black"/>
</g>
<path d="M17.4843 12.7622C17.4901 15.1837 15.7864 18.1263 13.6829 19.3428C12.6223 19.9511 11.6662 20.0089 10.9708 19.6093L7.29688 17.4718C7.98642 17.8773 8.94836 17.8193 10.0088 17.2054C12.1124 15.9946 13.8161 13.0462 13.8103 10.6305C13.8045 9.42572 13.3815 8.58568 12.6977 8.18604L16.3716 10.3235C17.0554 10.7175 17.4785 11.5632 17.4843 12.7622Z" fill="#212121"/>
<path d="M11.9699 19.9457C11.5906 19.9457 11.2397 19.8574 10.93 19.6794L7.27115 17.5506C7.26608 17.5476 7.26072 17.5446 7.25565 17.5416C7.21736 17.519 7.20439 17.4695 7.22684 17.4309C7.24928 17.3924 7.29834 17.3795 7.33754 17.4018L7.35271 17.4107C8.04461 17.8087 8.97284 17.7114 9.96813 17.1354C12.0476 15.9384 13.7348 13.0205 13.7291 10.6307C13.7238 9.50048 13.3428 8.65704 12.6566 8.25587C12.6181 8.23324 12.6051 8.18377 12.6275 8.14516C12.6497 8.1064 12.699 8.09363 12.7383 8.11592V8.11607C12.7386 8.11621 12.7389 8.1164 12.7392 8.11669L16.4123 10.2534C17.1501 10.6786 17.5594 11.5695 17.5651 12.7619C17.5651 12.7619 17.5651 12.7619 17.5651 12.7621C17.5708 15.2008 15.8473 18.1845 13.7231 19.4128C13.1059 19.7669 12.5093 19.9457 11.9699 19.9457ZM8.01618 17.7968L11.0112 19.5392C11.7088 19.9402 12.6434 19.8453 13.6425 19.2726C15.7213 18.0703 17.4085 15.1499 17.4031 12.7626C17.3978 11.6305 17.0168 10.7891 16.331 10.3938L13.329 8.64699C13.6915 9.13103 13.8874 9.80998 13.8911 10.6304C13.8968 13.072 12.1733 16.0529 10.0492 17.2757C9.32152 17.6967 8.62297 17.8719 8.01618 17.7968Z" fill="#373B42"/>
<path d="M3.75607 20.6809C3.77928 29.0804 13.2308 35.7826 13.7291 36.1359L10.0552 33.9984C9.55676 33.645 0.105247 26.9487 0.0820819 18.5433C0.0647559 12.2583 4.49199 4.60032 9.96234 1.44319C12.7207 -0.143892 15.2184 -0.294649 17.0206 0.753901L20.6945 2.88574C18.8923 1.84302 16.3947 1.98785 13.6363 3.58081C8.16603 6.7378 3.73865 14.3958 3.75607 20.6809Z" fill="#212121"/>
<path d="M13.7279 36.217C13.714 36.217 13.7 36.2135 13.6871 36.2061L10.0134 34.0686C8.9849 33.3399 0.0224983 26.7509 5.09767e-05 18.5436C-0.0173708 12.243 4.43299 4.54035 9.92075 1.37327C12.6197 -0.179843 15.1548 -0.424135 17.0606 0.684029L20.7342 2.81586C20.7729 2.8383 20.7858 2.88782 20.7633 2.92657C20.7409 2.96533 20.6906 2.9781 20.6529 2.956L20.6517 2.95538C18.792 1.87965 16.3143 2.1271 13.6757 3.65112C8.2329 6.79228 3.81863 14.4319 3.836 20.681C3.85845 28.8058 12.7598 35.3506 13.7747 36.07C13.8102 36.0952 13.8194 36.1436 13.796 36.1799C13.7804 36.2039 13.7545 36.217 13.7279 36.217ZM14.4138 0.162051C13.0639 0.162051 11.5624 0.615565 10.0017 1.51355C4.55891 4.65465 0.144593 12.2943 0.162015 18.5432C0.184462 26.6693 9.08551 33.2128 10.1004 33.9321L12.6219 35.3988C9.97517 33.2866 3.69304 27.55 3.67404 20.6812C3.65661 14.3804 8.10697 6.67783 13.5947 3.51089C15.7723 2.25303 17.847 1.85104 19.5735 2.32953L16.9789 0.82402C16.2187 0.381798 15.3531 0.162051 14.4138 0.162051Z" fill="#373B42"/>
<path d="M12.4727 0.366279C14.2246 -0.12106 15.7861 0.0351015 17.0201 0.754628L20.6954 2.88665C19.4576 2.17086 17.8961 2.01479 16.1442 2.50213" fill="#FFBE2E"/>
<path d="M20.6954 2.96716C20.6815 2.96716 20.6676 2.96366 20.655 2.95625C19.4129 2.23835 17.8605 2.10807 16.166 2.57976C16.1239 2.59225 16.0784 2.5668 16.066 2.52345C16.054 2.48044 16.0793 2.43585 16.1224 2.42384C17.3717 2.07644 18.5467 2.04874 19.5844 2.33528L16.9797 0.824221C15.7427 0.10302 14.1919 -0.0284076 12.4946 0.443765C12.4528 0.456587 12.4069 0.430799 12.3946 0.387453C12.3826 0.344441 12.4079 0.29985 12.4509 0.287841C14.1909 -0.19634 15.7854 -0.0594102 17.061 0.684278L20.736 2.81611C20.7749 2.83855 20.7879 2.88807 20.7657 2.92678C20.7505 2.95275 20.7233 2.96716 20.6954 2.96716Z" fill="#373B42"/>
<path d="M13.6366 3.5801C19.1123 0.419859 23.5666 2.95301 23.5845 9.23852C23.6083 17.6404 14.2229 35.209 13.7289 36.1337C13.2315 35.7811 3.78072 29.0835 3.75689 20.6817C3.73908 14.3962 8.16446 6.73824 13.6366 3.5801ZM13.6813 19.3428C15.7865 18.1278 17.4902 15.1821 17.4834 12.764C17.4765 10.3458 15.7616 9.37315 13.6565 10.5881C11.5549 11.8009 9.85116 14.7466 9.85806 17.1648C9.86485 19.583 11.5797 20.5556 13.6813 19.3428Z" fill="#FFBE2E"/>
<path d="M13.7287 36.2147C13.712 36.2147 13.6958 36.2097 13.6819 36.1999C12.6604 35.4758 3.69924 28.8886 3.67583 20.682C3.65812 14.3805 8.10848 6.67735 13.5962 3.51008C16.2815 1.96012 18.8096 1.71157 20.7176 2.80849C22.6098 3.89704 23.6567 6.18049 23.6656 9.23849C23.6887 17.4303 14.8123 34.2779 13.8002 36.1719C13.7892 36.1925 13.7698 36.2073 13.7474 36.2125C13.7411 36.2139 13.735 36.2147 13.7287 36.2147ZM13.6366 3.58012L13.6771 3.65017C8.23402 6.79161 3.82004 14.4319 3.83775 20.6816C3.86053 28.635 12.3879 35.0708 13.7005 36.0142C14.8964 33.7693 23.5263 17.2851 23.5035 9.23878C23.495 6.24121 22.477 4.00737 20.6366 2.94892C18.7814 1.88142 16.3093 2.13107 13.6771 3.65021L13.6366 3.58012ZM11.9726 19.9473C11.5948 19.9473 11.2453 19.8591 10.9362 19.6814C10.1921 19.2533 9.78049 18.3596 9.777 17.165C9.77006 14.7257 11.492 11.7438 13.6158 10.5182C14.6652 9.91243 15.6564 9.81688 16.4056 10.2482C17.1493 10.6761 17.5609 11.5696 17.5644 12.7638C17.5713 15.2031 15.8478 18.1859 13.7218 19.4128C13.1064 19.768 12.511 19.9473 11.9726 19.9473ZM15.3685 10.1444C14.8576 10.1444 14.2884 10.3169 13.6968 10.6583C11.618 11.8583 9.93202 14.7769 9.93896 17.1646C9.94212 18.299 10.3249 19.1429 11.0172 19.5409C11.7138 19.942 12.6458 19.8468 13.6408 19.2728C15.7219 18.0715 17.4094 15.1519 17.4024 12.7642C17.3993 11.6302 17.0165 10.7865 16.3249 10.3887C16.041 10.2255 15.7184 10.1444 15.3685 10.1444Z" fill="#373B42"/>
<path d="M9.65892 45.8265C9.90416 45.8265 10.1415 45.7707 10.3101 45.6734C10.4455 45.5953 10.5232 45.4993 10.5233 45.4101C10.5234 45.322 10.4473 45.2271 10.3143 45.1499C10.1471 45.0528 9.91077 44.9971 9.66581 44.9971C9.4208 44.9971 9.18365 45.0529 9.01517 45.1501C8.87968 45.2283 8.8019 45.3244 8.80176 45.4137C8.80161 45.5018 8.87776 45.5966 9.01058 45.6738C9.17771 45.7708 9.41401 45.8265 9.65892 45.8265Z" fill="#373B42"/>
<path d="M69.0376 19.2294L68.8392 19.1129L67.713 18.4198C67.2334 18.141 66.6319 18.4869 66.6319 19.0415C66.6319 19.2975 66.7681 19.5343 66.9894 19.6631L68.5086 20.586L68.8707 20.7969C69.2328 21.0046 69.5225 21.5082 69.5225 21.9237L69.5131 27.0761C69.5099 27.4916 69.2202 27.6584 68.8581 27.4507L49.6165 16.2487C49.2543 16.0378 48.9647 15.5342 48.9647 15.1188L48.9741 9.96633C48.9741 9.55085 49.267 9.38718 49.6291 9.59487L51.4869 10.6895L51.4837 9.56894C51.4837 9.4021 51.4995 9.229 51.5341 9.05586L49.4716 7.84488C48.5112 7.28778 47.7335 7.73469 47.7304 8.8363L47.7178 14.8134C47.7146 15.9182 48.4892 17.2591 49.4496 17.8162L69.0155 29.2007C69.9727 29.7547 70.7536 29.3109 70.7568 28.2061L70.7693 22.2322C70.7725 21.1274 69.998 19.7834 69.0376 19.2294Z" fill="#212121"/>
<path d="M73.1575 11.325L67.5951 14.5472C66.7431 15.0426 66.0304 16.1404 65.8457 17.1606C65.8133 17.3322 65.7971 17.5006 65.7971 17.6625L65.8035 18.8477L65.8133 21.0596C65.8133 21.1632 65.8262 21.2571 65.8521 21.3348C65.8554 21.351 65.8618 21.3672 65.8651 21.3802C65.8878 21.4449 65.9169 21.4968 65.9558 21.5421C65.9622 21.5518 65.972 21.5615 65.9849 21.5712C65.9947 21.5842 66.0076 21.5971 66.0206 21.6068C66.0303 21.6166 66.0433 21.6263 66.0563 21.636L50.694 12.7239C50.5288 12.6301 50.4251 12.426 50.4251 12.1345L50.4154 9.89032L50.4121 8.73747C50.4121 8.5658 50.4283 8.38768 50.4639 8.20955C50.6551 7.19273 51.3646 6.11432 52.2101 5.6221L57.7725 2.3999L73.1575 11.325Z" fill="#212121"/>
<path d="M66.0562 21.7172C66.0423 21.7172 66.0283 21.7137 66.0154 21.7063L50.6531 12.7943C50.4541 12.6809 50.344 12.4467 50.344 12.1349L50.3311 8.7379C50.3311 8.5537 50.3491 8.37075 50.3845 8.19396C50.5835 7.13498 51.3175 6.04835 52.1692 5.55249L57.7319 2.33024C57.7566 2.3157 57.7882 2.3157 57.8129 2.33024L73.1979 11.2553C73.2229 11.2698 73.2384 11.2966 73.2384 11.3253C73.2384 11.3543 73.2229 11.3808 73.1979 11.3954L67.6355 14.6174C66.8278 15.0872 66.1084 16.1629 65.9252 17.1752C65.8939 17.3416 65.878 17.5054 65.878 17.6627L65.8942 21.0596C65.8942 21.1551 65.9062 21.2414 65.929 21.3094L65.9369 21.3382C65.9375 21.3401 65.9432 21.3594 65.9439 21.3613C65.9609 21.4085 65.985 21.4517 66.0172 21.4897C66.0239 21.4944 66.0454 21.517 66.0504 21.5237C66.0549 21.53 66.0625 21.5374 66.0691 21.5427C66.0846 21.5568 66.0948 21.564 66.1045 21.5713C66.139 21.5969 66.1472 21.645 66.1238 21.6809C66.1084 21.7043 66.0825 21.7172 66.0562 21.7172ZM57.7724 2.49382L52.2505 5.69239C51.4368 6.16628 50.7348 7.20771 50.5437 8.22492C50.5099 8.39204 50.4931 8.56428 50.4931 8.73771L50.5061 12.1345C50.5061 12.386 50.5871 12.5702 50.7342 12.6538L65.7813 21.3833C65.7782 21.3727 65.775 21.3616 65.7728 21.3505C65.7468 21.2751 65.7323 21.1739 65.7323 21.0599L65.7162 17.6632C65.7162 17.4954 65.7329 17.3215 65.7659 17.1458C65.9601 16.0745 66.6953 14.977 67.5543 14.4773L72.9961 11.3253L57.7724 2.49382Z" fill="#373B42"/>
</svg>
