<svg width="130" height="99" viewBox="0 0 130 99" fill="none" xmlns="http://www.w3.org/2000/svg">
<circle cx="98" cy="75" r="23.5" fill="#3C2C0B" stroke="#FFBE2E"/>
<g clip-path="url(#clip0_4278_396)">
<path d="M97.5969 68.1941C97.2554 65.0896 99.4923 62.2962 102.592 61.9552C105.707 61.6126 108.485 63.8697 108.825 66.959C109.166 70.0635 106.929 72.8569 103.829 73.1979C103.801 73.201 103.773 73.2041 103.745 73.2065" stroke="#FFBE2E" stroke-width="1.2" strokeMiterlimit="10" stroke-linecap="round" stroke-linejoin="round"/>
<path d="M99.4733 67.9882C99.2462 65.9242 100.732 64.0614 102.799 63.834C104.863 63.6069 106.721 65.0984 106.948 67.1659C107.196 69.4191 105.414 71.3763 103.151 71.3417" stroke="#FFBE2E" stroke-width="1.2" strokeMiterlimit="10" stroke-linecap="round" stroke-linejoin="round"/>
<path d="M102.799 63.834L103.211 67.5766" stroke="#FFBE2E" stroke-width="0.8" strokeMiterlimit="10" stroke-linecap="round" stroke-linejoin="round"/>
<path d="M105.563 64.6395L103.211 67.5765" stroke="#FFBE2E" stroke-width="0.8" strokeMiterlimit="10" stroke-linecap="round" stroke-linejoin="round"/>
<path d="M106.145 69.932L104.1 68.2896" stroke="#FFBE2E" stroke-width="0.8" strokeMiterlimit="10" stroke-linecap="round" stroke-linejoin="round"/>
<path d="M100.277 65.2212C100.416 65.3326 99.5179 64.6116 103.361 67.6981" stroke="#FFBE2E" stroke-width="0.8" strokeMiterlimit="10" stroke-linecap="round" stroke-linejoin="round"/>
<path d="M106.949 67.1655L103.211 67.5767" stroke="#FFBE2E" stroke-width="0.8" strokeMiterlimit="10" stroke-linecap="round" stroke-linejoin="round"/>
<path d="M105.821 78.3863L106.176 81.6129C106.39 83.5553 106.592 85.3929 106.646 85.8857C106.917 88.349 105.14 90.5653 102.677 90.8362L98.7949 91.2632L94.8824 91.6619" stroke="#FFBE2E" stroke-width="1.2" strokeMiterlimit="10" stroke-linecap="round" stroke-linejoin="round"/>
<path d="M103.052 70.4351C103.118 71.0338 103.164 71.4599 103.23 72.0587C103.277 72.4828 103.455 72.8818 103.738 73.1992C103.802 73.2711 103.79 73.2545 104.326 73.7936C105.045 74.5144 105.498 75.4589 105.61 76.4718C105.663 76.9578 105.789 78.0986 105.935 79.4297" stroke="#FFBE2E" stroke-width="1.2" strokeMiterlimit="10" stroke-linecap="round" stroke-linejoin="round"/>
<path d="M89.0168 71.9787L89.1954 73.6024C89.2463 74.0652 89.138 74.5323 88.8883 74.9259C88.09 76.1855 87.749 77.6712 87.9109 79.1427L88.8677 87.841C89.1387 90.3043 91.355 92.0813 93.8182 91.8103L96.6108 91.5031" stroke="#FFBE2E" stroke-width="1.2" strokeMiterlimit="10" stroke-linecap="round" stroke-linejoin="round"/>
<path d="M102.743 67.628C98.7834 68.0635 94.0599 68.5831 88.7082 69.1718C87.9328 69.2571 87.3738 69.9543 87.4591 70.7296C87.5443 71.504 88.241 72.0641 89.0169 71.9787C90.4449 71.8216 101.624 70.592 103.052 70.4349C103.827 70.3496 104.386 69.6524 104.301 68.877C104.215 68.101 103.517 67.5428 102.743 67.628Z" stroke="#FFBE2E" stroke-width="1.2" strokeMiterlimit="10" stroke-linecap="round" stroke-linejoin="round"/>
<path d="M93.6266 68.6307L93.0012 67.0202C92.4595 65.5854 91.3234 64.4573 89.8848 63.9255L87.5112 63.0483C87.0235 62.8678 86.7746 62.3264 86.9546 61.8394C87.1348 61.3498 87.6786 61.1025 88.1636 61.2828L90.5373 62.16C92.4878 62.881 94.0278 64.4098 94.7626 66.3549L95.564 68.4176" stroke="#FFBE2E" stroke-width="1.2" strokeMiterlimit="10" stroke-linecap="round" stroke-linejoin="round"/>
<path d="M96.6224 71.1425C96.6249 71.1491 100.008 79.8607 100.012 79.8693C100.236 80.4456 99.8522 81.0775 99.2378 81.1451C98.8093 81.1922 98.4094 80.9438 98.2576 80.5503C98.253 80.5386 94.6889 71.3639 94.6855 71.3555" stroke="#FFBE2E" stroke-width="1.2" strokeMiterlimit="10" stroke-linecap="round" stroke-linejoin="round"/>
<path d="M87.922 77.6248C90.7162 77.3666 90.9066 78.5578 93.8095 78.2385C96.7693 77.9129 96.6397 76.6646 99.5981 76.3391C102.561 76.0132 102.698 77.2608 105.661 76.9348" stroke="#FFBE2E" stroke-width="1.2" strokeMiterlimit="10" stroke-linecap="round" stroke-linejoin="round"/>
<path d="M92.0528 80.6437C91.2997 80.6779 90.7395 81.3765 90.8698 82.1191C91.1155 83.5161 92.3604 84.5128 93.7757 84.4491C94.5292 84.4143 95.0885 83.717 94.9587 82.9737C94.713 81.5767 93.4681 80.5799 92.0528 80.6437Z" stroke="#FFBE2E" stroke-width="1.2" strokeMiterlimit="10" stroke-linecap="round" stroke-linejoin="round"/>
<path d="M92.9141 82.5464C93.4799 83 95.0386 84.2499 95.5278 84.6421" stroke="#FFBE2E" stroke-width="1.2" strokeMiterlimit="10" stroke-linecap="round" stroke-linejoin="round"/>
<path d="M100.762 83.6494C101.505 83.5185 102.204 84.0793 102.238 84.8325C102.302 86.2595 101.293 87.4955 99.9079 87.7377C99.1694 87.868 98.4662 87.3095 98.4324 86.5547C98.4027 85.8939 98.6038 85.2202 99.0501 84.6629C99.4964 84.1062 100.111 83.7634 100.762 83.6494Z" stroke="#FFBE2E" stroke-width="1.2" strokeMiterlimit="10" stroke-linecap="round" stroke-linejoin="round"/>
<path d="M100.335 85.6941C99.8908 86.2484 98.6819 87.756 98.2395 88.3078" stroke="#FFBE2E" stroke-width="1.2" strokeMiterlimit="10" stroke-linecap="round" stroke-linejoin="round"/>
<path d="M93.6234 89.4646C94.3985 89.3793 94.9577 88.6818 94.8725 87.9067C94.7872 87.1316 94.0897 86.5724 93.3146 86.6576C92.5395 86.7429 91.9803 87.4404 92.0655 88.2155C92.1508 88.9906 92.8483 89.5498 93.6234 89.4646Z" stroke="#FFBE2E" stroke-width="1.2" strokeMiterlimit="10" stroke-linecap="round" stroke-linejoin="round"/>
<path d="M102.884 81.8172C103.4 81.7604 103.773 81.2954 103.716 80.7786C103.66 80.2619 103.195 79.8891 102.678 79.9459C102.161 80.0027 101.788 80.4677 101.845 80.9845C101.902 81.5013 102.367 81.8741 102.884 81.8172Z" stroke="#FFBE2E" stroke-width="1.2" strokeMiterlimit="10" stroke-linecap="round" stroke-linejoin="round"/>
</g>
<circle cx="32" cy="75" r="23.5" fill="#3C2C0B" stroke="#FFBE2E"/>
<g clip-path="url(#clip1_4278_396)">
<path d="M34.6026 65.635L25.8564 67.7573L25.0311 64.356L33.7773 62.2337L34.6026 65.635Z" stroke="#FFBE2E" stroke-width="1.25" strokeMiterlimit="10" stroke-linecap="round" stroke-linejoin="round"/>
<mask id="mask0_4278_396" style="mask-type:luminance" maskUnits="userSpaceOnUse" x="13" y="55" width="39" height="40">
<path d="M13 63.5455L44.0976 55.9996L51.6435 87.0972L20.5459 94.6431L13 63.5455Z" fill="white"/>
</mask>
<g mask="url(#mask0_4278_396)">
<path d="M30.618 62.9998L28.1885 63.5894L27.481 60.674L29.9105 60.0844L30.618 62.9998Z" stroke="#FFBE2E" stroke-width="1.2" strokeMiterlimit="10" stroke-linecap="round" stroke-linejoin="round"/>
<path d="M25.8514 67.7585C24.5832 68.0662 23.8045 69.3438 24.1123 70.6121L24.4904 72.1704C24.6532 72.8413 25.1011 73.4073 25.7166 73.7199C26.6073 74.1724 27.2556 74.9917 27.4912 75.9624C27.6646 76.6774 27.5724 77.4309 27.2315 78.0828L27.2315 78.0828C26.8501 78.8123 26.7467 79.6556 26.9409 80.4556L29.1756 89.6653C29.4591 90.8337 30.6363 91.5511 31.8047 91.2676L35.9477 90.2623" stroke="#FFBE2E" stroke-width="1.2" strokeMiterlimit="10" stroke-linecap="round" stroke-linejoin="round"/>
<path d="M41.3719 85.3061L41.6926 86.6279C41.9761 87.7963 41.2587 88.9734 40.0903 89.2569L35.9473 90.2622" stroke="#FFBE2E" stroke-width="1.2" strokeMiterlimit="10" stroke-linecap="round" stroke-linejoin="round"/>
<path d="M34.6068 65.6331C35.875 65.3254 37.1526 66.104 37.4604 67.3723L37.8385 68.9306C38.0013 69.6015 37.8626 70.3099 37.4588 70.8698C36.8745 71.6802 36.6739 72.7055 36.9094 73.6762C37.0829 74.3912 37.5103 75.0186 38.112 75.4417C38.7854 75.9153 39.2637 76.6175 39.4578 77.4175L40.0454 79.8391L41.4101 85.4631" stroke="#FFBE2E" stroke-width="1.2" strokeMiterlimit="10" stroke-linecap="round" stroke-linejoin="round"/>
<path d="M26.3457 60.9497L31.0464 59.8091" stroke="#FFBE2E" stroke-width="1.25" strokeMiterlimit="10" stroke-linecap="round" stroke-linejoin="round"/>
<path d="M32.9184 75.1763L30.4764 82.2444L33.2093 81.5813L34.2026 85.6748L36.6446 78.6066L33.9117 79.2697L32.9184 75.1763Z" stroke="#FFBE2E" stroke-width="1.2" strokeMiterlimit="10" stroke-linecap="round" stroke-linejoin="round"/>
<path d="M27.9951 70.7729L34.0831 69.2957" stroke="#FFBE2E" stroke-width="1.2" strokeMiterlimit="10" stroke-linecap="round" stroke-linejoin="round"/>
</g>
</g>
<circle cx="65" cy="24" r="23.5" fill="#3C2C0B" stroke="#FFBE2E"/>
<g clip-path="url(#clip2_4278_396)">
<mask id="mask1_4278_396" style="mask-type:luminance" maskUnits="userSpaceOnUse" x="47" y="6" width="36" height="36">
<path d="M51.0103 6.21589L82.7847 10.0094L78.9911 41.7838L47.2168 37.9902L51.0103 6.21589Z" fill="white"/>
</mask>
<g mask="url(#mask1_4278_396)">
<path d="M62.7648 19.0747L56.6028 18.339C56.0601 18.2742 55.6726 17.7817 55.7374 17.2391L55.9177 15.7289C55.9825 15.1863 56.475 14.7989 57.0177 14.8637L74.9114 17C75.4541 17.0648 75.8415 17.5573 75.7767 18.0999L75.5964 19.6101C75.5316 20.1527 75.0391 20.5401 74.4965 20.4753L68.3501 19.7415" stroke="#FFBE2E" stroke-width="1.2" strokeMiterlimit="10" stroke-linecap="round" stroke-linejoin="round"/>
<path d="M68.7709 16.2666L70.3616 11.9246L73.5016 12.2995L73.8276 9.56889L69.6076 9.06506C68.9746 8.98949 68.3728 9.35887 68.1534 9.9574L65.9648 15.9316L68.7709 16.2666Z" stroke="#FFBE2E" stroke-width="1.2" strokeMiterlimit="10" stroke-linecap="round" stroke-linejoin="round"/>
<path d="M57.3378 18.4267L56.4946 36.1295C56.4322 37.4396 57.3929 38.5753 58.6954 38.7308L67.6633 39.8015C68.9656 39.957 70.1668 39.0794 70.4146 37.7914L73.7628 20.3877" stroke="#FFBE2E" stroke-width="1.2" strokeMiterlimit="10" stroke-linecap="round" stroke-linejoin="round"/>
<path d="M67.79 29.1121C68.011 27.2613 66.6897 25.5818 64.8389 25.3608C62.9881 25.1398 61.3086 26.4611 61.0876 28.3119C60.8666 30.1627 62.1879 31.8422 64.0387 32.0632C65.8895 32.2842 67.569 30.9629 67.79 29.1121Z" stroke="#FFBE2E" stroke-width="1.2" strokeMiterlimit="10" stroke-linecap="round" stroke-linejoin="round"/>
<path d="M61.1041 28.1717C58.7073 29.2306 56.9152 31.4913 56.582 34.2817" stroke="#FFBE2E" stroke-width="1.2" strokeMiterlimit="10" stroke-linecap="round" stroke-linejoin="round"/>
<path d="M73.6312 20.8697C73.2302 24.2279 70.7161 26.8188 67.5781 27.4712" stroke="#FFBE2E" stroke-width="1.2" strokeMiterlimit="10" stroke-linecap="round" stroke-linejoin="round"/>
</g>
</g>
<g opacity="0.5">
<circle cx="70.5" cy="91.5" r="2.5" fill="#978050"/>
<circle cx="31.5" cy="34.5" r="2.5" fill="#212121"/>
<circle cx="63.5" cy="61.5" r="1.5" fill="#978050"/>
<rect x="97.0244" y="25" width="2.37135" height="2.37135" transform="rotate(25.5971 97.0244 25)" fill="#CBC0A8"/>
<circle cx="99.5" cy="43.5" r="1.5" fill="#FFBE2E"/>
<rect x="124" y="80.4785" width="3.6884" height="3.6884" transform="rotate(-42.2204 124 80.4785)" fill="#FFBE2E"/>
<rect y="77.4785" width="3.6884" height="3.6884" transform="rotate(-42.2204 0 77.4785)" fill="#FFBE2E"/>
</g>
<defs>
<clipPath id="clip0_4278_396">
<rect width="32" height="32" fill="white" transform="translate(81 61.499) rotate(-6.27739)"/>
</clipPath>
<clipPath id="clip1_4278_396">
<rect width="32" height="32" fill="white" transform="translate(13 63.5459) rotate(-13.6393)"/>
</clipPath>
<clipPath id="clip2_4278_396">
<rect width="32" height="32" fill="white" transform="translate(51.0098 6.21582) rotate(6.80831)"/>
</clipPath>
</defs>
</svg>
