<svg width="140" height="140" viewBox="0 0 140 140" fill="none" xmlns="http://www.w3.org/2000/svg">
<mask id="mask0_7278_16489" style="mask-type:alpha" maskUnits="userSpaceOnUse" x="0" y="0" width="140" height="140">
<rect width="140" height="140" rx="12" fill="white"/>
</mask>
<g mask="url(#mask0_7278_16489)">
<path d="M121.725 121.754C121.703 121.754 121.68 121.748 121.659 121.736L79.802 97.4105C79.7388 97.3738 79.7176 97.2925 79.7544 97.2293C79.7907 97.1653 79.8714 97.1444 79.9356 97.1812L121.792 121.507C121.855 121.543 121.877 121.625 121.84 121.688C121.815 121.73 121.771 121.754 121.725 121.754Z" fill="#DBDEE4"/>
<path d="M96.7561 107.746C97.1575 107.746 97.5458 107.655 97.8217 107.495C98.0433 107.367 98.1704 107.21 98.1706 107.064C98.1709 106.92 98.0462 106.765 97.8286 106.638C97.5551 106.479 97.1683 106.388 96.7675 106.388C96.3665 106.388 95.9785 106.479 95.7028 106.639C95.481 106.767 95.3538 106.924 95.3535 107.07C95.3533 107.215 95.4779 107.37 95.6953 107.496C95.9687 107.655 96.3554 107.746 96.7561 107.746Z" fill="#212121"/>
<path d="M92.6891 62.2317C92.6435 62.2317 92.599 62.2082 92.5746 62.1657C92.5379 62.1025 92.5592 62.0212 92.6223 61.9844L107.496 53.3386C108.695 52.6426 110.651 52.6421 111.856 53.3386L126.828 61.9842C126.891 62.0207 126.913 62.1018 126.876 62.1652C126.839 62.2286 126.757 62.2499 126.695 62.2136L111.724 53.568C110.59 52.9145 108.754 52.914 107.63 53.568L92.7558 62.2138C92.7346 62.2259 92.7118 62.2317 92.6891 62.2317Z" fill="#DBDEE4"/>
<path d="M105.164 137.505C104.686 137.505 104.208 137.381 103.782 137.134L89.8059 129.01C89.7427 128.974 89.7215 128.892 89.7583 128.829C89.7946 128.765 89.8753 128.744 89.9395 128.781L103.916 136.905C104.686 137.352 105.643 137.352 106.412 136.904L121.997 127.845C122.061 127.808 122.142 127.829 122.179 127.893C122.215 127.956 122.194 128.037 122.131 128.074L106.546 137.134C106.119 137.381 105.642 137.505 105.164 137.505Z" fill="#DBDEE4"/>
<path d="M90.9989 127.422C92.0131 128.008 92.0188 128.958 91.0113 129.543C90.0038 130.129 88.364 130.129 87.3498 129.543C86.3357 128.958 86.3308 128.008 87.3383 127.422C88.3459 126.837 89.9849 126.836 90.9989 127.422Z" fill="white"/>
<path d="M89.183 130.113C88.496 130.113 87.808 129.961 87.283 129.658C86.7482 129.35 86.4536 128.931 86.4531 128.48C86.4521 128.032 86.743 127.615 87.2711 127.308C88.3143 126.703 90.0155 126.702 91.0648 127.308C91.5997 127.616 91.8947 128.035 91.8952 128.487C91.8963 128.935 91.6059 129.351 91.0778 129.658C90.5565 129.961 89.87 130.113 89.183 130.113ZM89.1664 127.115C88.5275 127.115 87.8892 127.256 87.4046 127.538C86.9614 127.795 86.7176 128.13 86.7181 128.48C86.7186 128.832 86.9661 129.169 87.4155 129.429C88.3919 129.993 89.975 129.993 90.9441 129.429C91.3873 129.172 91.6307 128.837 91.6301 128.487C91.6296 128.134 91.3816 127.797 90.9323 127.537C90.4446 127.256 89.8048 127.115 89.1664 127.115Z" fill="#DBDEE4"/>
<path d="M89.1807 129.151C88.7853 129.151 88.4027 129.061 88.1309 128.905C87.9127 128.778 87.7873 128.624 87.7871 128.48C87.787 128.338 87.9097 128.185 88.1241 128.06C88.3936 127.903 88.7746 127.813 89.1696 127.813C89.5646 127.813 89.9469 127.903 90.2185 128.06C90.437 128.186 90.5623 128.341 90.5625 128.485C90.5627 128.628 90.44 128.781 90.2258 128.905C89.9566 129.062 89.5756 129.151 89.1807 129.151Z" fill="#FFBE2E"/>
<path d="M60.7237 124.677C60.6782 124.677 60.6336 124.653 60.6088 124.611C60.5725 124.547 60.5943 124.466 60.6574 124.43L74.929 116.188C75.3918 115.921 75.647 115.574 75.6476 115.211C75.6481 114.85 75.397 114.506 74.9404 114.241L53.8293 101.97C53.7662 101.933 53.7449 101.852 53.7817 101.789C53.818 101.725 53.8987 101.704 53.9629 101.741L75.074 114.011C75.6155 114.326 75.9132 114.752 75.9127 115.211C75.9116 115.673 75.6098 116.102 75.0615 116.418L60.79 124.659C60.7693 124.671 60.7464 124.677 60.7237 124.677Z" fill="#DBDEE4"/>
<path d="M57.7823 123.972C56.7365 124.576 56.7306 125.555 57.7695 126.159C58.8084 126.763 60.4994 126.763 61.5451 126.159C62.5909 125.555 62.5959 124.576 61.557 123.972C60.518 123.368 58.8279 123.368 57.7823 123.972Z" fill="white"/>
<path d="M59.6544 126.742C58.9467 126.742 58.24 126.586 57.7026 126.274C57.1595 125.958 56.8609 125.53 56.8613 125.069C56.8619 124.605 57.1653 124.175 57.7156 123.857C58.7966 123.233 60.55 123.233 61.6238 123.857C62.1669 124.173 62.4661 124.601 62.465 125.062C62.4645 125.526 62.1611 125.956 61.6113 126.274C61.0708 126.586 60.3621 126.742 59.6544 126.742ZM57.8481 124.086C57.3832 124.355 57.1269 124.704 57.1264 125.07C57.1258 125.432 57.378 125.778 57.8362 126.044C58.8364 126.626 60.4713 126.626 61.4788 126.044C61.9432 125.776 62.1994 125.427 62.1999 125.062C62.2005 124.699 61.9483 124.353 61.4901 124.087C60.4899 123.505 58.8555 123.505 57.8481 124.086Z" fill="#DBDEE4"/>
<path d="M59.6574 125.756C60.0651 125.756 60.4596 125.663 60.7399 125.501C60.965 125.372 61.0942 125.212 61.0944 125.063C61.0945 124.917 60.968 124.759 60.7469 124.631C60.4689 124.469 60.076 124.376 59.6688 124.376C59.2615 124.376 58.8673 124.469 58.5872 124.631C58.3619 124.761 58.2327 124.921 58.2324 125.069C58.2323 125.216 58.3588 125.374 58.5796 125.502C58.8574 125.663 59.2502 125.756 59.6574 125.756Z" fill="#FFBE2E"/>
<g opacity="0.1">
<path d="M94.8645 91.8464L100.067 94.8496L77.0521 108.229L71.8443 105.225L56.6043 114.087L1.91602 82.5062L53.4297 52.5625L108.118 84.1434L94.8645 91.8464Z" fill="#212121"/>
</g>
<path d="M108.116 74.665L108.098 80.8359L56.584 110.779L56.6011 104.608L108.116 74.665Z" fill="#BEC4CD"/>
<path d="M56.5837 110.911C56.5608 110.911 56.5381 110.905 56.5174 110.894C56.4765 110.87 56.4512 110.826 56.4512 110.779L56.4682 104.608C56.4682 104.56 56.4937 104.517 56.534 104.493L108.048 74.5501C108.09 74.5263 108.14 74.5263 108.181 74.5501C108.222 74.5736 108.248 74.6177 108.248 74.6651L108.231 80.8361C108.231 80.8832 108.205 80.9268 108.165 80.9505L56.6505 110.894C56.6298 110.905 56.6065 110.911 56.5837 110.911ZM56.7333 104.684L56.7168 110.548L107.966 80.7595L107.982 74.8955L56.7333 104.684Z" fill="#212121"/>
<path d="M56.6016 104.608L56.5844 110.779L1.89844 79.1992L1.91567 73.0283L56.6016 104.608Z" fill="#BEC4CD"/>
<path d="M56.584 110.911C56.5612 110.911 56.5385 110.905 56.5178 110.893L1.83187 79.3138C1.79096 79.2902 1.76562 79.2462 1.76562 79.1988L1.7827 73.0278C1.7827 72.9804 1.80803 72.9366 1.84894 72.913C1.89033 72.8897 1.94005 72.8895 1.98151 72.9133L56.6674 104.493C56.7083 104.516 56.7337 104.56 56.7337 104.608L56.7166 110.779C56.7166 110.826 56.6912 110.87 56.6503 110.893C56.6296 110.905 56.6068 110.911 56.584 110.911ZM2.03068 79.1227L56.452 110.549L56.4686 104.684L2.04728 73.2572L2.03068 79.1227Z" fill="#212121"/>
<path d="M108.116 74.6634L56.6019 104.606L1.91602 73.0271L53.4304 43.084L108.116 74.6634Z" fill="white"/>
<path d="M56.6016 104.739C56.5788 104.739 56.556 104.733 56.5353 104.721L1.84945 73.1419C1.80853 73.1184 1.7832 73.0746 1.7832 73.0275C1.7832 72.9801 1.80806 72.9364 1.84898 72.9125L53.3634 42.9695C53.4048 42.9457 53.455 42.9457 53.4964 42.9695L108.182 74.5488C108.223 74.5724 108.249 74.6161 108.249 74.6633C108.249 74.7106 108.224 74.7544 108.183 74.7782L56.6684 104.721C56.6476 104.733 56.6243 104.739 56.6016 104.739ZM2.1802 73.027L56.6015 104.453L107.851 74.6637L53.43 43.2375L2.1802 73.027Z" fill="#212121"/>
<path d="M101.969 36.0138L101.831 74.663L95.9467 78.083L96.0369 46.9368L62.628 66.3541L62.5326 97.5004L56.5898 100.958L56.7277 62.3084C65.6815 34.4549 80.5782 25.1228 101.969 36.0138Z" fill="#FFBE2E"/>
<path d="M56.5895 101.09C56.5667 101.09 56.544 101.084 56.5233 101.072C56.4819 101.049 56.457 101.005 56.457 100.957L56.5947 62.3081C56.5947 62.2947 56.5968 62.2809 56.6009 62.268C61.6475 46.571 68.6496 36.7618 77.4127 33.1136C84.4043 30.203 92.6866 31.139 102.029 35.8959C102.073 35.9184 102.101 35.9645 102.101 36.0144L101.963 74.6637C101.963 74.7108 101.938 74.754 101.898 74.7778L96.0134 78.198C95.972 78.2218 95.9217 78.2218 95.8803 78.198C95.8394 78.1745 95.8141 78.1304 95.8141 78.083L95.9036 47.1676L62.7601 66.4307L62.6648 97.5013C62.6648 97.5481 62.6395 97.5916 62.599 97.6154L56.6563 101.072C56.6356 101.084 56.6123 101.09 56.5895 101.09ZM56.8598 62.3296L56.7231 100.727L62.3998 97.4243L62.495 66.3537C62.495 66.3068 62.5204 66.2634 62.5608 66.2395L95.97 46.8221C96.0113 46.7983 96.0616 46.7983 96.103 46.8221C96.1439 46.8456 96.1692 46.8897 96.1692 46.9371L96.0797 77.8525L101.699 74.5867L101.836 36.0952C92.5961 31.4077 84.4137 30.486 77.5143 33.3585C68.8296 36.9739 61.8805 46.7215 56.8598 62.3296Z" fill="#212121"/>
<path d="M96.0345 46.936L95.9458 74.3134L62.543 93.7233L62.625 66.3528L96.0345 46.936Z" fill="#DBDEE4"/>
<path d="M62.5426 93.8555C62.5198 93.8555 62.4971 93.8495 62.4764 93.8376C62.4355 93.8141 62.4102 93.77 62.4102 93.7224L62.4925 66.3519C62.4925 66.305 62.5179 66.2616 62.5582 66.2377L95.9674 46.8211C96.0088 46.7973 96.059 46.7973 96.1004 46.8211C96.1413 46.8446 96.1667 46.8887 96.1667 46.9363L96.0781 74.3136C96.0781 74.3604 96.0527 74.4039 96.0124 74.4278L62.6094 93.8377C62.5887 93.8495 62.5655 93.8555 62.5426 93.8555ZM62.7575 66.4288L62.6757 93.4923L95.8131 74.2366L95.9011 47.1665L62.7575 66.4288Z" fill="#212121"/>
<path d="M92.7158 69.3951L75.0078 59.1605L92.7777 48.8291L92.7158 69.3951Z" fill="#212121"/>
<path d="M92.7157 69.5278C92.6929 69.5278 92.6701 69.5219 92.6494 69.51L74.9412 59.2754C74.9003 59.2519 74.875 59.208 74.875 59.161C74.875 59.1136 74.8999 59.0699 74.9408 59.046L92.7106 48.7147C92.752 48.6908 92.8022 48.6908 92.8436 48.7147C92.8845 48.7382 92.9098 48.7823 92.9098 48.8299L92.8482 69.3958C92.8482 69.4429 92.8228 69.4867 92.782 69.5102C92.7612 69.5218 92.7384 69.5278 92.7157 69.5278ZM75.2721 59.1604L92.5837 69.1658L92.6442 49.06L75.2721 59.1604Z" fill="#212121"/>
<path d="M96.0355 46.936L95.9469 78.0841L92.6992 76.2071L92.7774 48.8286L96.0355 46.936Z" fill="#BEC4CD"/>
<path d="M95.9464 78.2163C95.9237 78.2163 95.9009 78.2103 95.8802 78.1984L92.6327 76.3216C92.5917 76.2981 92.5664 76.254 92.5664 76.2067L92.6446 48.8281C92.6446 48.781 92.6699 48.7375 92.7104 48.7137L95.9683 46.8211C96.0097 46.7973 96.06 46.7973 96.1014 46.8211C96.1423 46.8446 96.1676 46.8887 96.1676 46.9361L96.0791 78.084C96.0791 78.1314 96.0537 78.1751 96.0129 78.1987C95.992 78.2103 95.9693 78.2163 95.9464 78.2163ZM92.8315 76.1306L95.8145 77.8544L95.902 47.1665L92.9097 48.9048L92.8315 76.1306Z" fill="#212121"/>
<path d="M56.7248 62.3083L56.5907 100.959L7.94727 72.8691L8.08141 34.2183L56.7248 62.3083Z" fill="white"/>
<path d="M56.5907 101.091C56.5678 101.091 56.5451 101.085 56.5244 101.073L7.8807 72.9834C7.83978 72.9599 7.81445 72.9158 7.81445 72.8682L7.94851 34.2174C7.94851 34.1703 7.97385 34.1265 8.01476 34.103C8.05614 34.0797 8.10586 34.0794 8.14732 34.1032L56.791 62.1932C56.832 62.2167 56.8573 62.2608 56.8573 62.3084L56.7232 100.959C56.7232 101.006 56.6978 101.05 56.657 101.074C56.6363 101.085 56.6135 101.091 56.5907 101.091ZM8.08006 72.7923L56.4592 100.73L56.5918 62.3843L8.21255 34.447L8.08006 72.7923Z" fill="#212121"/>
<path d="M31.0781 4.73291L17.5558 17.2948C17.3862 17.4509 17.2303 17.6409 17.0879 17.8511L64.8773 45.6338C65.0197 45.4235 65.1824 45.2336 65.3519 45.0776L78.8742 32.5158L31.0781 4.73291Z" fill="#F1F2F5"/>
<path d="M64.8766 45.7664C64.8538 45.7664 64.8311 45.7608 64.8098 45.7486L17.0208 17.9659C16.9893 17.9472 16.9665 17.9165 16.9582 17.8808C16.9504 17.845 16.9572 17.8073 16.9779 17.777C17.1337 17.5468 17.2979 17.3521 17.4656 17.1976L30.9876 4.63593C31.0295 4.59635 31.0942 4.58934 31.1444 4.6183L78.9407 32.4012C78.977 32.4225 79.0007 32.4595 79.0054 32.5012C79.0101 32.5431 78.995 32.5845 78.964 32.613L65.4415 45.1749C65.278 45.326 65.1205 45.5104 64.9865 45.7082C64.9611 45.746 64.9191 45.7664 64.8766 45.7664ZM17.2792 17.8092L64.8383 45.4581C64.9667 45.2823 65.1116 45.1187 65.2613 44.9804L78.6528 32.5405L31.0957 4.89679L17.6452 17.3922C17.521 17.5066 17.3983 17.6466 17.2792 17.8092Z" fill="#212121"/>
<path d="M17.0877 17.8516L6.3457 33.8185L54.1419 61.6013L64.8771 45.6343L17.0877 17.8516Z" fill="#F1F2F5"/>
<path d="M54.1415 61.7339C54.1187 61.7339 54.096 61.7282 54.0747 61.716L6.27849 33.9331C6.24694 33.9147 6.22412 33.8839 6.21634 33.8482C6.20807 33.8124 6.21476 33.7749 6.23545 33.7444L16.9779 17.7774C17.0162 17.7192 17.0933 17.7018 17.1545 17.7367L64.9435 45.5194C64.975 45.538 64.9978 45.5686 65.0056 45.6043C65.0139 45.64 65.0072 45.6776 64.9864 45.7081L54.2513 61.6753C54.2259 61.7132 54.184 61.7339 54.1415 61.7339ZM6.53426 33.7749L54.1006 61.4243L64.6877 45.6776L17.1286 18.0286L6.53426 33.7749Z" fill="#212121"/>
<path d="M103.694 32.9914L55.8978 5.20874L45.1016 1.6748L92.8978 29.4576L103.694 32.9914Z" fill="#DBDEE4"/>
<path d="M103.694 33.1241C103.68 33.1241 103.666 33.1221 103.652 33.1177L92.8562 29.5839L45.0346 1.78954C44.9761 1.75539 44.9528 1.6826 44.9802 1.62075C45.0081 1.55858 45.076 1.52726 45.1428 1.54875L55.939 5.08284L103.761 32.8769C103.819 32.9111 103.842 32.9839 103.815 33.0457C103.793 33.0946 103.745 33.1241 103.694 33.1241ZM46.2532 2.19102L92.9643 29.343L102.542 32.4755L55.8308 5.32356L46.2532 2.19102Z" fill="#212121"/>
<path d="M92.4305 29.4435C92.5933 29.4028 92.7561 29.4028 92.8985 29.4571H92.8986L45.1024 1.67429L45.1023 1.67421C44.9666 1.62676 44.7971 1.62676 44.6343 1.66068L31.0781 4.73333L78.8742 32.5161L92.4305 29.4435Z" fill="#F1F2F5"/>
<path d="M78.8741 32.6491C78.8508 32.6491 78.828 32.6429 78.8073 32.6312L31.0111 4.84824C30.9639 4.82077 30.9386 4.7675 30.9469 4.7136C30.9551 4.65977 30.9956 4.61626 31.0483 4.60437L44.6045 1.53196C44.8033 1.49057 44.9948 1.49678 45.1454 1.54958L92.965 29.3429C93.0245 29.3776 93.0472 29.4524 93.0177 29.5148C92.9877 29.5767 92.9152 29.606 92.851 29.5813C92.7407 29.5394 92.6072 29.5363 92.4622 29.5725C92.4612 29.5728 92.4602 29.5728 92.4596 29.5731L78.9035 32.6457C78.8937 32.648 78.8839 32.6491 78.8741 32.6491ZM31.4361 4.78843L78.8959 32.3757L92.392 29.3167L45.0353 1.78928C44.9546 1.76315 44.809 1.76 44.6609 1.79085L31.4361 4.78843Z" fill="#212121"/>
<path d="M55.9392 63.1793L8.14326 35.3977L6.34766 33.8228L54.1436 61.6043L55.9392 63.1793Z" fill="#212121"/>
<path d="M55.9391 63.3123C55.9163 63.3123 55.8936 63.3066 55.8723 63.2944L8.07609 35.5127L6.25995 33.9231C6.20874 33.878 6.19992 33.8014 6.23973 33.746C6.28009 33.6909 6.35515 33.6746 6.41415 33.7087L54.2098 61.4902L56.0264 63.0801C56.0777 63.1252 56.0865 63.2018 56.0467 63.2572C56.0209 63.2929 55.9806 63.3123 55.9391 63.3123ZM7.46164 34.6242L8.23045 35.2985L54.8245 62.3787L54.0557 61.7045L7.46164 34.6242Z" fill="#212121"/>
<path d="M78.8777 32.5172L92.4304 29.4411C92.595 29.4059 92.7598 29.4054 92.8987 29.4548L103.695 32.99L101.914 36.6302L91.335 33.164L78.8875 35.9857L66.4647 47.5258L55.9401 63.1784L54.1445 61.6034L64.8807 45.6343C65.0232 45.4223 65.1831 45.2353 65.3519 45.078L78.8777 32.5172Z" fill="#212121"/>
<path d="M55.9401 63.3114C55.908 63.3114 55.877 63.2997 55.8526 63.2785L54.0567 61.7035C54.0065 61.6595 53.9972 61.5852 54.0345 61.5298L64.7707 45.5608C64.9162 45.3448 65.0808 45.1499 65.261 44.9816L78.7876 32.4205C78.8047 32.4045 78.8254 32.3936 78.8482 32.3884L92.4007 29.3124C92.6015 29.2694 92.7885 29.2756 92.9432 29.3305L103.736 32.8643C103.772 32.8765 103.802 32.9034 103.817 32.9389C103.832 32.974 103.831 33.0142 103.814 33.0486L102.033 36.6889C102.004 36.7481 101.937 36.7766 101.872 36.7567L91.3285 33.3019L78.9517 36.1076L66.5547 47.6233L56.05 63.2529C56.0287 63.2844 55.995 63.3055 55.9573 63.3103C55.9515 63.3111 55.9459 63.3114 55.9401 63.3114ZM54.3192 61.5811L55.9142 62.9797L66.3548 47.452L78.7974 35.889C78.8144 35.8729 78.8351 35.8621 78.858 35.8569L91.3051 33.0351C91.3294 33.0294 91.3538 33.0312 91.376 33.0382L101.845 36.4687L103.508 33.0688L92.8572 29.5813C92.7464 29.542 92.6087 29.5389 92.458 29.5713L78.9417 32.639L65.4415 45.1756C65.2763 45.3301 65.1247 45.5095 64.99 45.7089L54.3192 61.5811Z" fill="#212121"/>
<path d="M79.2653 43.1798C81.2732 42.0202 82.8798 42.9651 82.8863 45.2437C82.8928 47.5367 81.2968 50.331 79.2888 51.4905C77.2936 52.6426 75.6745 51.7051 75.668 49.412C75.6615 47.1334 77.2701 44.3319 79.2653 43.1798Z" fill="white"/>
<path d="M77.6748 52.1173C77.3077 52.1173 76.9671 52.0314 76.6658 51.8579C75.94 51.4397 75.5382 50.5711 75.5352 49.412C75.5284 47.0829 77.1716 44.2355 79.1984 43.0647C80.2095 42.4803 81.1667 42.3894 81.8921 42.8073C82.6153 43.2233 83.015 44.0884 83.0186 45.2429C83.0248 47.5805 81.3816 50.4344 79.3548 51.605C78.7651 51.9454 78.1936 52.1173 77.6748 52.1173ZM79.331 43.2941C77.3778 44.4227 75.7935 47.1668 75.8002 49.4113C75.8033 50.472 76.1574 51.2594 76.7984 51.628C77.4398 51.9972 78.3002 51.9076 79.2223 51.3756C81.1756 50.2472 82.7598 47.4967 82.7535 45.2437C82.7505 44.1879 82.3974 43.4041 81.76 43.037C81.1186 42.668 80.2562 42.7599 79.331 43.2941Z" fill="#212121"/>
<path d="M79.2771 51.6188C79.2041 51.6188 79.1445 51.5596 79.1445 51.4862V43.179C79.1445 43.1057 79.2041 43.0464 79.2771 43.0464C79.3501 43.0464 79.4097 43.1056 79.4097 43.179V51.4862C79.4096 51.5595 79.3501 51.6188 79.2771 51.6188Z" fill="#212121"/>
<path d="M75.6657 49.5479C75.6201 49.5479 75.5756 49.524 75.5507 49.4816C75.5145 49.4182 75.5363 49.3371 75.5994 49.3004L82.8224 45.1333C82.8841 45.0973 82.9663 45.118 83.0036 45.182C83.0399 45.2454 83.0181 45.3265 82.9549 45.3632L75.7319 49.5303C75.7112 49.5422 75.6884 49.5479 75.6657 49.5479Z" fill="#212121"/>
<path d="M22.3205 49.4487L22.2967 56.2539L22.2907 57.5454L12.4336 51.8535L12.4634 43.7568L13.5812 44.4026L22.3205 49.4487Z" fill="#212121"/>
<path d="M22.2904 57.6781C22.2677 57.6781 22.2448 57.6721 22.2241 57.6602L12.367 51.9684C12.3261 51.9449 12.3008 51.9008 12.3008 51.8532L12.3303 43.7565C12.3303 43.7093 12.3556 43.6656 12.3965 43.642C12.4379 43.6187 12.4876 43.6185 12.5291 43.6423L22.3862 49.3341C22.4271 49.3576 22.4525 49.4017 22.4525 49.4493L22.423 57.5461C22.423 57.5934 22.3976 57.6369 22.3567 57.6605C22.3359 57.6721 22.3131 57.6781 22.2904 57.6781ZM12.5663 51.7774L22.1589 57.3164L22.1869 49.5251L12.5942 43.9861L12.5663 51.7774Z" fill="#212121"/>
<path d="M36.6605 57.7276L36.6306 64.5268L36.6247 65.8243L26.7734 60.1383L26.8093 52.0356L27.9212 52.6755L36.6605 57.7276Z" fill="#212121"/>
<path d="M36.6246 65.9568C36.6018 65.9568 36.579 65.9509 36.5583 65.939L26.7069 60.2532C26.6655 60.2296 26.6406 60.1853 26.6406 60.138L26.6769 52.0352C26.6769 51.9878 26.7022 51.9443 26.7431 51.9208C26.7845 51.8975 26.8342 51.8975 26.8757 51.9208L27.9872 52.5605L36.7266 57.6131C36.768 57.6369 36.7929 57.6809 36.7929 57.7283L36.7571 65.8248C36.7571 65.8722 36.7317 65.9157 36.6909 65.9392C36.6701 65.9509 36.6474 65.9568 36.6246 65.9568ZM26.9062 60.0621L36.493 65.5954L36.5272 57.8041L26.9408 52.2644L26.9062 60.0621Z" fill="#212121"/>
<path d="M22.32 49.4446L22.2961 56.2498L13.5508 51.1977L13.5807 44.3984L22.32 49.4446Z" fill="#FFBE2E"/>
<path d="M22.2956 56.3826C22.2729 56.3826 22.25 56.3766 22.2293 56.3647L13.4842 51.3127C13.4428 51.2888 13.418 51.2448 13.418 51.1974L13.4475 44.3981C13.4475 44.3507 13.4729 44.3072 13.5137 44.2836C13.5551 44.2603 13.6048 44.2601 13.6463 44.2839L22.3857 49.3299C22.4266 49.3535 22.4519 49.3975 22.4519 49.4451L22.4281 56.2505C22.4281 56.2977 22.4027 56.3414 22.3618 56.3649C22.3411 56.3766 22.3183 56.3826 22.2956 56.3826ZM13.6835 51.1216L22.164 56.0209L22.1863 49.5211L13.7114 44.6278L13.6835 51.1216Z" fill="#212121"/>
<path d="M36.6597 57.726L36.6299 64.5252L27.8965 59.485L27.9205 52.6738L36.6597 57.726Z" fill="#FFBE2E"/>
<path d="M36.6293 64.6574C36.6065 64.6574 36.5838 64.6514 36.5631 64.6395L27.8299 59.5994C27.789 59.5759 27.7637 59.5318 27.7637 59.4842L27.7875 52.673C27.7875 52.6258 27.8128 52.5821 27.8538 52.5585C27.8952 52.5353 27.9449 52.535 27.9863 52.5588L36.7257 57.6111C36.7671 57.6349 36.792 57.6789 36.792 57.7263L36.7619 64.5254C36.7619 64.5728 36.7365 64.6163 36.6957 64.6398C36.6749 64.6515 36.6522 64.6574 36.6293 64.6574ZM28.0292 59.4084L36.4979 64.296L36.5264 57.8021L28.0515 52.9028L28.0292 59.4084Z" fill="#212121"/>
<path d="M74.332 100.574L97.3501 87.1943L100.067 88.7631L77.0487 102.142L74.332 100.574Z" fill="white"/>
<path d="M77.0486 102.275C77.0259 102.275 77.003 102.269 76.9824 102.257L74.2655 100.688C74.2245 100.665 74.1992 100.621 74.1992 100.574C74.1992 100.526 74.2241 100.483 74.265 100.459L97.2833 87.0794C97.3247 87.0556 97.3749 87.0556 97.4163 87.0794L100.133 88.6483C100.174 88.6719 100.199 88.7156 100.199 88.7628C100.199 88.8101 100.175 88.8539 100.134 88.8777L77.1154 102.257C77.0947 102.269 77.0714 102.275 77.0486 102.275ZM74.5962 100.573L77.0486 101.989L99.8023 88.7633L97.3499 87.3474L74.5962 100.573Z" fill="#212121"/>
<path d="M77.0499 102.141L100.068 88.7617L100.059 91.8909L77.041 105.27L77.0499 102.141Z" fill="white"/>
<path d="M77.0407 105.403C77.0179 105.403 76.9951 105.397 76.9744 105.385C76.9335 105.362 76.9082 105.317 76.9082 105.27L76.917 102.141C76.917 102.094 76.9424 102.05 76.9828 102.026L100.001 88.6473C100.042 88.6234 100.093 88.6234 100.134 88.6473C100.175 88.6708 100.2 88.7149 100.2 88.7625L100.191 91.8916C100.191 91.9385 100.166 91.982 100.125 92.0058L77.1076 105.385C77.0868 105.397 77.0635 105.403 77.0407 105.403ZM77.1821 102.218L77.1738 105.04L99.9259 91.8148L99.9348 88.9927L77.1821 102.218Z" fill="#212121"/>
<path d="M74.3408 97.4482L97.359 84.0688L97.3501 87.1946L74.332 100.574L74.3408 97.4482Z" fill="white"/>
<path d="M74.3317 100.706C74.3089 100.706 74.2861 100.7 74.2655 100.689C74.2245 100.665 74.1992 100.621 74.1992 100.574L74.208 97.4478C74.208 97.4007 74.2334 97.3571 74.2738 97.3334L97.2921 83.9539C97.3335 83.9301 97.3838 83.9301 97.4251 83.9539C97.466 83.9774 97.4914 84.0215 97.4914 84.0689L97.4826 87.1947C97.4826 87.2418 97.4572 87.2853 97.4168 87.3091L74.3985 100.689C74.3777 100.7 74.3544 100.706 74.3317 100.706ZM74.473 97.5244L74.4647 100.343L97.2174 87.118L97.2257 84.2993L74.473 97.5244Z" fill="#212121"/>
<path d="M71.625 95.8779L94.6431 82.4985L97.3598 84.0673L74.3417 97.4467L71.625 95.8779Z" fill="white"/>
<path d="M74.3411 97.579C74.3184 97.579 74.2955 97.573 74.2748 97.5612L71.5584 95.9924C71.5175 95.9689 71.4922 95.9252 71.4922 95.878C71.4922 95.8307 71.517 95.7869 71.558 95.7631L94.5763 82.3836C94.6176 82.3598 94.6679 82.3598 94.7093 82.3836L97.4257 83.9523C97.4666 83.9758 97.4919 84.0196 97.4919 84.0667C97.4919 84.1141 97.4671 84.1579 97.4262 84.1817L74.4079 97.5612C74.3872 97.573 74.3639 97.579 74.3411 97.579ZM71.8893 95.8775L74.3411 97.2932L97.0948 84.0673L94.643 82.6516L71.8893 95.8775Z" fill="#212121"/>
<path d="M74.3418 97.4487L74.333 100.574L77.0496 102.143L77.0407 105.272L71.6074 102.135L71.6251 95.8799L74.3418 97.4487Z" fill="#212121"/>
<path d="M77.0404 105.405C77.0176 105.405 76.9948 105.399 76.9742 105.387L71.5409 102.25C71.4999 102.226 71.4746 102.182 71.4746 102.135L71.4922 95.8798C71.4922 95.8324 71.5176 95.7887 71.5585 95.7651C71.5999 95.7418 71.6496 95.7416 71.691 95.7653L74.4075 97.334C74.4484 97.3576 74.4737 97.4016 74.4737 97.449L74.4649 100.498L77.1155 102.029C77.1564 102.052 77.1818 102.096 77.1818 102.143L77.173 105.273C77.173 105.32 77.1476 105.364 77.1067 105.387C77.086 105.399 77.0632 105.405 77.0404 105.405ZM71.7396 102.059L76.9084 105.043L76.9166 102.22L74.266 100.689C74.2251 100.666 74.1998 100.622 74.1998 100.574L74.2086 97.5253L71.7567 96.1093L71.7396 102.059Z" fill="#212121"/>
<g opacity="0.1">
<path d="M21.459 137.482L3.12695 126.826L21.4276 116.258L39.7596 126.914L21.459 137.482Z" fill="#212121"/>
</g>
<path d="M21.5186 133.899L3.18659 123.243L3.12695 102.206L21.459 112.862L21.5186 133.899Z" fill="white"/>
<path d="M21.5183 134.032C21.4955 134.032 21.4722 134.026 21.4515 134.014L3.11947 123.358C3.07911 123.335 3.0537 123.291 3.0537 123.244L2.99414 102.207C2.99414 102.159 3.01955 102.115 3.06038 102.092C3.10177 102.068 3.15204 102.068 3.19343 102.092L21.5254 112.747C21.5658 112.771 21.5912 112.815 21.5912 112.862L21.6508 133.899C21.6508 133.946 21.6253 133.99 21.5845 134.014C21.5638 134.026 21.541 134.032 21.5183 134.032ZM3.31875 123.167L21.3852 133.669L21.3261 112.939L3.25975 102.437L3.31875 123.167Z" fill="#212121"/>
<path d="M21.459 112.861L3.12695 102.206L21.4276 91.6377L39.7596 102.293L21.459 112.861Z" fill="white"/>
<path d="M21.4587 112.994C21.4359 112.994 21.4126 112.988 21.3919 112.976L3.05991 102.32C3.019 102.296 2.99414 102.253 2.99414 102.205C2.99414 102.158 3.01955 102.114 3.06038 102.091L21.3608 91.5228C21.4021 91.4989 21.4524 91.4989 21.4938 91.5228L39.8258 102.179C39.8667 102.202 39.8916 102.246 39.8916 102.294C39.8916 102.341 39.8663 102.384 39.8253 102.408L21.525 112.976C21.5043 112.988 21.4815 112.994 21.4587 112.994ZM3.39129 102.206L21.4587 112.708L39.4946 102.293L21.4272 91.7908L3.39129 102.206Z" fill="#212121"/>
<path d="M32.7682 106.334L28.5049 108.795L10.1719 98.1402L14.4354 95.6797L32.7682 106.334Z" fill="#FFBE2E"/>
<path d="M28.5047 108.927C28.4818 108.927 28.4586 108.921 28.4379 108.91L10.1048 98.2548C10.0639 98.231 10.0391 98.1872 10.0391 98.1398C10.0391 98.0927 10.0644 98.049 10.1053 98.0254L14.3691 95.5648C14.4105 95.5409 14.4608 95.5409 14.5021 95.5648L32.8352 106.22C32.8761 106.243 32.901 106.287 32.901 106.335C32.901 106.382 32.8755 106.425 32.8347 106.449L28.5709 108.91C28.5502 108.921 28.5275 108.927 28.5047 108.927ZM10.4362 98.1406L28.5047 108.642L32.504 106.334L14.4355 95.8328L10.4362 98.1406Z" fill="#212121"/>
<path d="M39.821 123.332L21.5178 133.899L21.459 112.862L28.5058 108.794L32.7692 106.333L39.7621 102.294L39.821 123.332Z" fill="white"/>
<path d="M21.5172 134.032C21.4944 134.032 21.4716 134.026 21.451 134.014C21.41 133.991 21.3847 133.947 21.3847 133.9L21.3262 112.863C21.3262 112.815 21.3516 112.771 21.3924 112.748L39.6954 102.18C39.7368 102.156 39.7865 102.156 39.828 102.18C39.8689 102.203 39.8942 102.247 39.8942 102.294L39.9532 123.332C39.9532 123.379 39.9279 123.423 39.887 123.446L21.5834 134.014C21.5627 134.026 21.54 134.032 21.5172 134.032ZM21.5912 112.939L21.6492 133.67L39.6882 123.255L39.6296 102.524L21.5912 112.939Z" fill="#212121"/>
<path d="M32.7771 111.768L28.5137 114.234L28.5039 108.793L32.7672 106.333L32.7771 111.768Z" fill="#FFBE2E"/>
<path d="M28.5134 114.366C28.4906 114.366 28.4679 114.36 28.4472 114.348C28.4063 114.324 28.3809 114.281 28.3809 114.234L28.3711 108.793C28.3711 108.746 28.3965 108.702 28.4373 108.678L32.7011 106.218C32.7426 106.194 32.7922 106.194 32.8337 106.217C32.8746 106.241 32.8999 106.285 32.8999 106.332L32.9092 111.768C32.9092 111.815 32.8839 111.859 32.843 111.883L28.5797 114.348C28.559 114.36 28.5362 114.366 28.5134 114.366ZM28.6362 108.869L28.6454 114.004L32.6442 111.692L32.6354 106.562L28.6362 108.869Z" fill="#212121"/>
<path d="M28.074 121.395C28.03 121.421 27.9857 121.467 27.9522 121.526L26.7542 123.72C26.6583 123.895 26.7322 124.048 26.8745 123.966L27.3884 123.669L27.4013 128.215C27.4015 128.292 27.4567 128.324 27.524 128.285L28.6589 127.63C28.7277 127.59 28.7811 127.496 28.7808 127.418L28.7679 122.873L29.2818 122.576C29.4241 122.494 29.4969 122.256 29.4018 122.191L28.1938 121.387C28.1617 121.365 28.118 121.37 28.074 121.395Z" fill="#212121"/>
<path d="M24.5532 123.429C24.5094 123.454 24.4659 123.5 24.4339 123.559L23.2344 125.753C23.1383 125.929 23.2139 126.08 23.3561 125.998L23.87 125.702L23.8829 130.247C23.8832 130.325 23.9368 130.357 24.0056 130.317L25.1405 129.662C25.2078 129.623 25.2627 129.528 25.2625 129.451L25.2496 124.905L25.7635 124.608C25.9057 124.526 25.9786 124.288 25.8804 124.225L24.674 123.42C24.641 123.399 24.597 123.404 24.5532 123.429Z" fill="#212121"/>
<path d="M21.5552 108.794L6.75127 100.189L6.70312 83.2002L21.507 91.8051L21.5552 108.794Z" fill="white"/>
<path d="M21.5549 108.926C21.532 108.926 21.5087 108.92 21.4881 108.908L6.68423 100.303C6.64387 100.279 6.61846 100.236 6.61846 100.189L6.57031 83.2002C6.57031 83.1529 6.59572 83.1089 6.63656 83.0853C6.67794 83.0614 6.72821 83.0614 6.76959 83.0853L21.5734 91.69C21.6138 91.7138 21.6392 91.7573 21.6392 91.8044L21.6873 108.793C21.6873 108.84 21.6619 108.884 21.6211 108.908C21.6004 108.92 21.5777 108.926 21.5549 108.926ZM6.8836 100.112L21.4218 108.563L21.3742 91.8811L6.83592 83.4306L6.8836 100.112Z" fill="#212121"/>
<path d="M21.507 91.8049L6.70312 83.2001L21.4816 74.666L36.2855 83.2708L21.507 91.8049Z" fill="white"/>
<path d="M21.5067 91.9373C21.4839 91.9373 21.4606 91.9314 21.4399 91.9195L6.63608 83.3148C6.59517 83.2909 6.57031 83.2472 6.57031 83.1998C6.57031 83.1527 6.59572 83.1089 6.63656 83.0854L21.415 74.5511C21.4564 74.5272 21.5066 74.5272 21.548 74.5511L36.3523 83.1561C36.3932 83.18 36.4181 83.2237 36.4181 83.2711C36.4181 83.3182 36.3927 83.362 36.3518 83.3855L21.5729 91.9196C21.5523 91.9314 21.5295 91.9373 21.5067 91.9373ZM6.96746 83.2003L21.5068 91.6515L36.0212 83.2704L21.4814 74.8189L6.96746 83.2003Z" fill="#212121"/>
<path d="M30.6401 86.5334L27.1973 88.5204L12.3926 79.9162L15.8355 77.9292L30.6401 86.5334Z" fill="#FFBE2E"/>
<path d="M27.1967 88.6531C27.174 88.6531 27.1506 88.6471 27.1299 88.6353L12.3255 80.031C12.2846 80.0072 12.2598 79.9634 12.2598 79.916C12.2598 79.8689 12.2852 79.8252 12.326 79.8016L15.7688 77.8148C15.8101 77.7909 15.8604 77.7909 15.9018 77.8148L30.7066 86.419C30.7476 86.4428 30.7724 86.4866 30.7724 86.534C30.7724 86.5811 30.7471 86.6249 30.7062 86.6484L27.2629 88.6353C27.2423 88.6471 27.2195 88.6531 27.1967 88.6531ZM12.6569 79.9168L27.1967 88.3672L30.3754 86.5332L15.8351 78.0828L12.6569 79.9168Z" fill="#212121"/>
<path d="M36.3339 100.26L21.5534 108.794L21.5059 91.8057L27.1965 88.5205L30.6393 86.5336L36.2865 83.272L36.3339 100.26Z" fill="white"/>
<path d="M21.5531 108.927C21.5303 108.927 21.5076 108.921 21.4869 108.909C21.446 108.886 21.4206 108.842 21.4206 108.795L21.373 91.8062C21.373 91.7589 21.3984 91.7149 21.4393 91.6913L36.2198 83.1574C36.2612 83.1336 36.3109 83.1339 36.3523 83.1572C36.3932 83.1807 36.4186 83.2245 36.4186 83.2719L36.4662 100.26C36.4662 100.308 36.4407 100.352 36.3999 100.375L21.6194 108.909C21.5987 108.921 21.576 108.927 21.5531 108.927ZM21.638 91.8824L21.6851 108.565L36.2011 100.184L36.154 83.5016L21.638 91.8824Z" fill="#212121"/>
<path d="M30.648 90.9232L27.2052 92.9141L27.1973 88.5206L30.6401 86.5337L30.648 90.9232Z" fill="#FFBE2E"/>
<path d="M27.2052 93.047C27.1824 93.047 27.1597 93.041 27.139 93.0294C27.098 93.0058 27.0727 92.9621 27.0727 92.9146L27.0645 88.521C27.0645 88.4736 27.0898 88.4296 27.1307 88.406L30.574 86.4192C30.6154 86.3953 30.6651 86.3956 30.7066 86.4189C30.7475 86.4428 30.7728 86.4862 30.7728 86.5337L30.7806 90.9231C30.7806 90.9705 30.7552 91.0145 30.7143 91.0381L27.2716 93.0291C27.2513 93.041 27.2279 93.047 27.2052 93.047ZM27.3294 88.5972L27.3372 92.685L30.5154 90.847L30.5081 86.7633L27.3294 88.5972Z" fill="#212121"/>
<path d="M26.8507 98.6977C26.8152 98.7181 26.7794 98.7552 26.7523 98.8035L25.785 100.575C25.7075 100.716 25.7672 100.84 25.882 100.773L26.2971 100.534L26.3074 104.205C26.3076 104.267 26.3522 104.293 26.4066 104.261L27.3231 103.732C27.3787 103.7 27.4217 103.624 27.4216 103.561L27.4112 99.8905L27.8262 99.6508C27.941 99.5844 27.9999 99.3927 27.923 99.3404L26.9475 98.6908C26.9214 98.6732 26.8863 98.6772 26.8507 98.6977Z" fill="#212121"/>
<path d="M24.006 100.339C23.9706 100.359 23.9355 100.396 23.9096 100.444L22.941 102.216C22.8634 102.357 22.9244 102.48 23.0392 102.414L23.4542 102.174L23.4646 105.845C23.4648 105.907 23.5081 105.933 23.5638 105.901L24.4803 105.372C24.5346 105.341 24.5789 105.264 24.5788 105.202L24.5684 101.531L24.9834 101.291C25.0982 101.225 25.1571 101.033 25.0778 100.982L24.1036 100.332C24.0769 100.314 24.0413 100.319 24.006 100.339Z" fill="#212121"/>
<path d="M81.106 82.8945L71.0776 77.0655L71.0449 65.5571L81.0733 71.3862L81.106 82.8945Z" fill="white"/>
<path d="M81.1053 83.0268C81.0825 83.0268 81.0592 83.0208 81.0385 83.0089L71.0105 77.1799C70.9702 77.1561 70.9448 77.1126 70.9448 77.0655L70.9121 65.5572C70.9121 65.5098 70.9374 65.4658 70.9783 65.4422C71.0197 65.4184 71.07 65.4184 71.1114 65.4422L81.1394 71.2712C81.1798 71.2951 81.2052 71.3385 81.2052 71.3857L81.2378 82.894C81.2378 82.9414 81.2124 82.9854 81.1716 83.009C81.1509 83.0208 81.1281 83.0268 81.1053 83.0268ZM71.2099 76.9888L80.9723 82.6635L80.9402 71.4622L71.1778 65.7875L71.2099 76.9888Z" fill="#212121"/>
<path d="M81.0733 71.386L71.0449 65.557L81.0561 59.7759L91.0845 65.6049L81.0733 71.386Z" fill="white"/>
<path d="M81.0727 71.5183C81.0499 71.5183 81.0266 71.5123 81.0059 71.5004L70.9779 65.6715C70.937 65.6476 70.9121 65.6039 70.9121 65.5565C70.9121 65.5094 70.9374 65.4656 70.9783 65.4421L80.9892 59.6609C81.0306 59.6371 81.0809 59.6371 81.1223 59.6609L91.1507 65.49C91.1916 65.5138 91.2165 65.5576 91.2165 65.605C91.2165 65.6521 91.1911 65.6959 91.1503 65.7194L81.1388 71.5005C81.1182 71.5123 81.0955 71.5183 81.0727 71.5183ZM71.3093 65.557L81.0727 71.2325L90.8196 65.6044L81.0556 59.9288L71.3093 65.557Z" fill="#212121"/>
<path d="M87.2596 67.8164L84.9273 69.1625L74.8984 63.3338L77.2307 61.9878L87.2596 67.8164Z" fill="#FFBE2E"/>
<path d="M84.9272 69.2949C84.9044 69.2949 84.8811 69.2889 84.8604 69.2771L74.8314 63.4483C74.7905 63.4245 74.7656 63.3807 74.7656 63.3334C74.7656 63.2862 74.791 63.2425 74.8319 63.219L77.1641 61.8729C77.2055 61.849 77.2558 61.849 77.2972 61.8729L87.3262 67.7016C87.3671 67.7254 87.392 67.7692 87.392 67.8166C87.392 67.8637 87.3666 67.9075 87.3257 67.931L84.9935 69.277C84.9728 69.289 84.95 69.2949 84.9272 69.2949ZM75.1628 63.3342L84.9272 69.0091L86.995 67.8159L77.2305 62.1409L75.1628 63.3342Z" fill="#212121"/>
<path d="M91.117 77.1141L81.1044 82.895L81.0723 71.3868L84.9272 69.1615L87.2594 67.8154L91.0849 65.606L91.117 77.1141Z" fill="white"/>
<path d="M81.104 83.0273C81.0812 83.0273 81.0585 83.0213 81.0378 83.0096C80.9969 82.9861 80.9716 82.9423 80.9716 82.8949L80.9395 71.3868C80.9395 71.3394 80.9648 71.2954 81.0057 71.2718L91.0181 65.4909C91.0595 65.4671 91.1092 65.4674 91.1507 65.4907C91.1916 65.5142 91.2169 65.558 91.2169 65.6054L91.249 77.1135C91.249 77.1609 91.2237 77.2049 91.1828 77.2285L81.1704 83.0094C81.1496 83.0213 81.1269 83.0273 81.104 83.0273ZM81.2045 71.463L81.2361 82.6656L90.984 77.0375L90.9524 65.8349L81.2045 71.463Z" fill="#212121"/>
<path d="M87.2653 70.7909L84.9331 72.1396L84.9277 69.1634L87.26 67.8174L87.2653 70.7909Z" fill="#FFBE2E"/>
<path d="M84.9326 72.2724C84.9098 72.2724 84.887 72.2664 84.8664 72.2547C84.8254 72.2309 84.8001 72.1874 84.8001 72.14L84.7949 69.1639C84.7949 69.1165 84.8202 69.0725 84.8612 69.0489L87.1934 67.7029C87.2348 67.679 87.2845 67.6793 87.3259 67.7026C87.3668 67.7265 87.3921 67.7699 87.3921 67.8173L87.3973 70.7908C87.3973 70.8382 87.372 70.8822 87.3311 70.9058L84.9988 72.2544C84.9781 72.2664 84.9554 72.2724 84.9326 72.2724ZM85.06 69.2401L85.0646 71.9102L87.1324 70.7148L87.1277 68.047L85.06 69.2401Z" fill="#212121"/>
<path d="M84.6929 76.0581C84.6689 76.072 84.6446 76.0971 84.6263 76.1298L83.9709 77.3298C83.9185 77.4257 83.9589 77.5093 84.0367 77.4643L84.3178 77.302L84.3249 79.7887C84.325 79.831 84.3552 79.8483 84.392 79.827L85.0128 79.4685C85.0505 79.4468 85.0796 79.3953 85.0795 79.3529L85.0725 76.8662L85.3536 76.7039C85.4314 76.6589 85.4713 76.529 85.4192 76.4935L84.7584 76.0535C84.7408 76.0415 84.7169 76.0442 84.6929 76.0581Z" fill="#212121"/>
<path d="M82.7665 77.1695C82.7425 77.1833 82.7187 77.2081 82.7012 77.2404L82.045 78.4409C81.9925 78.5368 82.0338 78.6199 82.1116 78.5749L82.3927 78.4126L82.3998 80.8993C82.3998 80.9416 82.4293 80.9593 82.4669 80.9376L83.0877 80.5791C83.1245 80.5579 83.1545 80.5059 83.1544 80.4635L83.1473 77.9768L83.4284 77.8145C83.5062 77.7695 83.5461 77.6396 83.4924 77.6051L82.8325 77.1646C82.8145 77.1528 82.7904 77.1556 82.7665 77.1695Z" fill="#212121"/>
<path d="M126.864 63.9015C125.915 63.3531 125.909 62.4635 126.853 61.9151C127.796 61.3667 129.332 61.3669 130.281 61.9153C131.231 62.4637 131.235 63.3529 130.292 63.9013C129.349 64.4497 127.814 64.4498 126.864 63.9015Z" fill="white"/>
<path d="M128.579 64.4425C127.935 64.4425 127.29 64.3004 126.797 64.016C126.294 63.7253 126.016 63.3305 126.016 62.9045C126.015 62.4813 126.288 62.0892 126.785 61.8C127.764 61.2315 129.362 61.2312 130.347 61.8003C130.85 62.0908 131.128 62.4854 131.128 62.911C131.129 63.3343 130.856 63.7266 130.358 64.0157C129.868 64.3001 129.224 64.4425 128.579 64.4425ZM126.93 63.7867C127.84 64.3125 129.319 64.3133 130.224 63.7864C130.637 63.547 130.864 63.2362 130.863 62.9116C130.863 62.5843 130.632 62.2713 130.215 62.0298C129.303 61.5032 127.824 61.5034 126.919 62.0296C126.507 62.269 126.28 62.5798 126.281 62.9041C126.281 63.2315 126.512 63.5449 126.93 63.7867Z" fill="#DBDEE4"/>
<path d="M128.567 62.2817C128.938 62.2817 129.296 62.366 129.55 62.513C129.755 62.6311 129.872 62.776 129.872 62.9107C129.872 63.0439 129.758 63.1871 129.557 63.3038C129.304 63.4505 128.948 63.5346 128.578 63.5346C128.208 63.5346 127.85 63.4503 127.596 63.3035C127.391 63.1853 127.274 63.0402 127.273 62.9053C127.273 62.7721 127.388 62.6289 127.589 62.5124C127.841 62.3658 128.198 62.2817 128.567 62.2817Z" fill="#FFBE2E"/>
<path d="M120.206 57.5234C120.604 57.5234 120.989 57.614 121.262 57.7718C121.481 57.8986 121.607 58.0542 121.608 58.1989C121.608 58.3419 121.484 58.4957 121.269 58.6211C120.998 58.7786 120.614 58.869 120.217 58.869C119.82 58.869 119.436 58.7785 119.162 58.6208C118.943 58.4939 118.817 58.338 118.816 58.1932C118.816 58.0502 118.94 57.8964 119.155 57.7712C119.426 57.6137 119.809 57.5234 120.206 57.5234Z" fill="#212121"/>
<path d="M95.836 131.755C95.5057 131.755 95.1861 131.83 94.959 131.961C94.7768 132.066 94.672 132.196 94.6719 132.316C94.6717 132.435 94.7743 132.563 94.9534 132.667C95.1785 132.798 95.4968 132.873 95.8267 132.873C96.1566 132.873 96.476 132.797 96.7028 132.666C96.8852 132.561 96.99 132.432 96.9902 132.311C96.9904 132.192 96.8878 132.065 96.7089 131.961C96.4841 131.83 96.1658 131.755 95.836 131.755Z" fill="#212121"/>
<path d="M68.162 119.703C67.8318 119.703 67.5122 119.778 67.2852 119.909C67.1028 120.015 66.9982 120.144 66.998 120.264C66.9979 120.383 67.1005 120.511 67.2795 120.615C67.5047 120.746 67.823 120.821 68.1528 120.821C68.4828 120.821 68.8021 120.746 69.029 120.615C69.2114 120.509 69.3162 120.38 69.3164 120.259C69.3165 120.141 69.214 120.013 69.0351 119.909C68.8101 119.778 68.4919 119.703 68.162 119.703Z" fill="#212121"/>
<g opacity="0.1">
<path d="M112.109 125.772C107.513 128.427 107.489 132.732 112.057 135.387C116.626 138.043 124.055 138.042 128.651 135.387C133.249 132.732 133.278 128.427 128.709 125.771C124.141 123.116 116.708 123.117 112.109 125.772Z" fill="#212121"/>
</g>
<path d="M132.126 128.717C132.13 130.468 130.975 132.223 128.658 133.558C126.865 134.594 124.644 135.225 122.327 135.45C121.043 135.58 119.728 135.58 118.443 135.458C116.103 135.236 113.863 134.601 112.066 133.558C109.795 132.238 108.66 130.514 108.656 128.785L108.648 124.529C108.652 126.262 109.788 127.986 112.059 129.305C113.859 130.353 116.103 130.988 118.443 131.206C119.728 131.328 121.043 131.328 122.327 131.198C124.64 130.973 126.862 130.338 128.651 129.305C130.964 127.975 132.118 126.223 132.118 124.468L132.126 128.717Z" fill="#BEC4CD"/>
<path d="M122.328 131.197V135.449C121.043 135.579 119.728 135.579 118.443 135.457V131.205C119.728 131.327 121.043 131.327 122.328 131.197Z" fill="#DBDEE4"/>
<path d="M120.351 135.677C117.322 135.677 114.297 135.009 111.998 133.673C109.762 132.373 108.527 130.636 108.521 128.784L108.514 124.531V124.531C108.514 124.457 108.573 124.398 108.646 124.398C108.646 124.398 108.646 124.398 108.646 124.398C108.719 124.398 108.779 124.457 108.779 124.53V124.533C108.786 126.287 109.973 127.941 112.124 129.191C116.647 131.82 124.031 131.82 128.585 129.191C130.779 127.924 131.987 126.248 131.985 124.47V124.462C131.985 124.462 131.985 124.462 131.985 124.462V124.462C131.985 124.389 132.044 124.329 132.117 124.329C132.118 124.329 132.118 124.329 132.118 124.329C132.191 124.329 132.25 124.388 132.25 124.461C132.25 124.465 132.25 124.468 132.25 124.471L132.258 128.714C132.264 130.593 131.009 132.355 128.725 133.673C126.412 135.009 123.379 135.677 120.351 135.677ZM108.781 125.997L108.787 128.783C108.792 130.538 109.98 132.193 112.132 133.443C116.656 136.073 124.04 136.072 128.593 133.443C130.791 132.174 131.998 130.495 131.993 128.715L131.988 125.94C131.51 127.252 130.389 128.455 128.717 129.42C124.09 132.092 116.587 132.092 111.991 129.42C110.357 128.47 109.257 127.288 108.781 125.997Z" fill="#212121"/>
<path d="M112.109 119.69C107.513 122.344 107.489 126.649 112.057 129.305C116.626 131.96 124.055 131.959 128.651 129.305C133.249 126.649 133.278 122.344 128.709 119.689C124.141 117.033 116.708 117.035 112.109 119.69Z" fill="white"/>
<path d="M120.343 131.424C117.314 131.424 114.289 130.756 111.991 129.42C109.746 128.115 108.511 126.372 108.514 124.513C108.516 122.641 109.77 120.888 112.043 119.575C116.672 116.902 124.178 116.902 128.776 119.574C131.019 120.878 132.253 122.62 132.25 124.478C132.247 126.351 130.993 128.106 128.717 129.42C126.404 130.756 123.371 131.424 120.343 131.424ZM120.422 117.831C117.439 117.831 114.453 118.489 112.175 119.805C109.988 121.068 108.781 122.74 108.779 124.513C108.776 126.274 109.964 127.935 112.124 129.19C116.647 131.82 124.031 131.819 128.585 129.19C130.775 127.925 131.982 126.252 131.985 124.478C131.988 122.718 130.801 121.058 128.643 119.804C126.381 118.489 123.403 117.831 120.422 117.831Z" fill="#212121"/>
<path d="M112.109 119.69C107.513 122.344 107.489 126.649 112.057 129.305C116.626 131.96 124.055 131.959 128.651 129.305C133.249 126.649 133.278 122.344 128.709 119.689C124.141 117.033 116.708 117.035 112.109 119.69Z" fill="white"/>
<path d="M120.343 131.424C117.314 131.424 114.289 130.756 111.991 129.42C109.746 128.115 108.511 126.372 108.514 124.513C108.516 122.641 109.77 120.888 112.043 119.575C116.672 116.902 124.178 116.902 128.776 119.574C131.019 120.878 132.253 122.62 132.25 124.478C132.247 126.351 130.993 128.106 128.717 129.42C126.404 130.756 123.371 131.424 120.343 131.424ZM120.422 117.831C117.439 117.831 114.453 118.489 112.175 119.805C109.988 121.068 108.781 122.74 108.779 124.513C108.776 126.274 109.964 127.935 112.124 129.19C116.647 131.82 124.031 131.819 128.585 129.19C130.775 127.925 131.982 126.252 131.985 124.478C131.988 122.718 130.801 121.058 128.643 119.804C126.381 118.489 123.403 117.831 120.422 117.831Z" fill="#212121"/>
<path d="M112.109 119.69C107.513 122.344 107.489 126.649 112.057 129.305C116.626 131.96 124.055 131.959 128.651 129.305C133.249 126.649 133.278 122.344 128.709 119.689C124.141 117.033 116.708 117.035 112.109 119.69Z" fill="white"/>
<path d="M120.343 131.424C117.314 131.424 114.289 130.756 111.991 129.42C109.746 128.115 108.511 126.372 108.514 124.513C108.516 122.641 109.77 120.888 112.043 119.575C116.672 116.902 124.178 116.902 128.776 119.574C131.019 120.878 132.253 122.62 132.25 124.478C132.247 126.351 130.993 128.106 128.717 129.42C126.404 130.756 123.371 131.424 120.343 131.424ZM120.422 117.831C117.439 117.831 114.453 118.489 112.175 119.805C109.988 121.068 108.781 122.74 108.779 124.513C108.776 126.274 109.964 127.935 112.124 129.19C116.647 131.82 124.031 131.819 128.585 129.19C130.775 127.925 131.982 126.252 131.985 124.478C131.988 122.718 130.801 121.058 128.643 119.804C126.381 118.489 123.403 117.831 120.422 117.831Z" fill="#212121"/>
<g opacity="0.1">
<path d="M125.137 122.07C127.521 123.446 127.53 125.68 125.162 127.056C122.793 128.433 118.942 128.433 116.558 127.056C114.173 125.68 114.158 123.446 116.527 122.07C118.895 120.693 122.753 120.693 125.137 122.07Z" fill="#212121"/>
</g>
<path d="M105.836 88.15L110.574 85.3962C110.752 85.2926 110.991 85.2896 111.26 85.4002C112.796 86.0271 114.17 85.9873 115.213 85.3812L110.475 88.135C109.433 88.7411 108.059 88.7808 106.522 88.154C106.254 88.0434 106.014 88.0464 105.836 88.15Z" fill="#212121"/>
<path d="M108.635 88.7364C107.954 88.7364 107.222 88.5834 106.471 88.2769C106.249 88.1849 106.046 88.1805 105.902 88.2647C105.838 88.3009 105.757 88.2799 105.721 88.2165C105.684 88.1533 105.706 88.072 105.769 88.0353C105.77 88.035 105.77 88.0345 105.771 88.0342L110.506 85.2815C110.725 85.1555 111.01 85.1541 111.31 85.2779C112.777 85.876 114.103 85.8724 115.145 85.2668C115.209 85.2301 115.29 85.251 115.327 85.315C115.363 85.3782 115.342 85.4595 115.279 85.4962C115.278 85.4965 115.278 85.4968 115.277 85.497L110.541 88.2499C109.983 88.5741 109.336 88.7364 108.635 88.7364ZM106.401 87.9742C106.457 87.9887 106.514 88.0079 106.572 88.0314C108.039 88.63 109.365 88.6261 110.408 88.0205L113.99 85.9387C113.146 86.0619 112.193 85.9247 111.209 85.5231C110.986 85.4312 110.784 85.4268 110.64 85.5109L106.401 87.9742Z" fill="#212121"/>
<path d="M129.646 88.0713L118.292 81.519C117.98 81.3418 117.705 81.3234 117.504 81.4396L112.762 84.1961C112.963 84.0739 113.244 84.0922 113.55 84.2695L124.904 90.8278C125.158 90.9739 125.387 91.2062 125.573 91.4781L130.312 88.7231C130.126 88.4508 129.897 88.2174 129.646 88.0713Z" fill="#212121"/>
<path d="M125.573 91.6109C125.53 91.6109 125.489 91.5905 125.463 91.5532C125.279 91.2831 125.062 91.0721 124.838 90.9431L113.484 84.3846C113.238 84.2419 113.004 84.2124 112.843 84.3025L112.828 84.3111C112.766 84.3473 112.685 84.3269 112.648 84.2639C112.61 84.2013 112.631 84.1205 112.693 84.0829C112.699 84.0793 112.705 84.0757 112.711 84.0721L117.437 81.3254C117.688 81.1811 118.015 81.2091 118.357 81.404L129.712 87.957C129.969 88.1059 130.214 88.3448 130.422 88.6487C130.442 88.679 130.45 88.7168 130.442 88.7529C130.434 88.7888 130.411 88.8197 130.379 88.8383L125.64 91.5931C125.618 91.6052 125.595 91.6109 125.573 91.6109ZM113.319 84.0257C113.416 84.054 113.516 84.0972 113.617 84.1552L124.97 90.7135C125.199 90.8453 125.419 91.0478 125.61 91.3031L130.119 88.6827C129.954 88.4665 129.769 88.2964 129.58 88.1864L118.226 81.634C117.969 81.4879 117.735 81.4594 117.57 81.5547L113.319 84.0257Z" fill="#212121"/>
<path d="M136.63 100.052C134.98 98.823 133.532 97.0506 132.475 95.0884C131.564 93.4076 130.953 91.5923 130.758 89.8625C130.713 89.4739 130.547 89.067 130.312 88.7236L125.572 91.4786C125.807 91.8209 125.971 92.2274 126.016 92.6192C126.217 94.3489 126.828 96.1581 127.739 97.845C128.796 99.801 130.244 101.573 131.888 102.802C132.206 103.035 132.477 103.38 132.658 103.754L137.395 101C137.214 100.629 136.944 100.284 136.63 100.052Z" fill="#212121"/>
<path d="M132.658 103.886C132.645 103.886 132.632 103.884 132.619 103.88C132.584 103.87 132.555 103.845 132.539 103.811C132.361 103.444 132.102 103.123 131.81 102.909C130.203 101.708 128.716 99.9322 127.622 97.9078C126.684 96.171 126.083 94.3475 125.884 92.6343C125.843 92.2742 125.694 91.8902 125.463 91.5531C125.442 91.5228 125.435 91.4851 125.442 91.449C125.451 91.4131 125.474 91.3822 125.505 91.3636L130.245 88.6088C130.305 88.5739 130.381 88.5912 130.421 88.6487C130.678 89.0236 130.844 89.4492 130.889 89.8472C131.079 91.5309 131.668 93.3215 132.591 95.0251C133.666 97.0212 135.129 98.7685 136.709 99.9451C137.031 100.184 137.317 100.538 137.514 100.942C137.544 101.005 137.522 101.08 137.462 101.115L132.725 103.868C132.704 103.88 132.682 103.886 132.658 103.886ZM125.759 91.5228C125.969 91.8654 126.106 92.2444 126.147 92.604C126.343 94.2839 126.933 96.0742 127.855 97.7819C128.931 99.7729 130.392 101.518 131.967 102.696C132.258 102.909 132.519 103.216 132.712 103.569L137.219 100.949C137.045 100.629 136.811 100.351 136.551 100.158C134.94 98.9584 133.451 97.1805 132.358 95.1512C131.419 93.4181 130.82 91.5944 130.626 89.8773C130.589 89.557 130.464 89.2145 130.269 88.9015L125.759 91.5228Z" fill="#212121"/>
<path d="M132.66 103.754C132.806 104.056 132.894 104.375 132.892 104.673L132.879 109.086C132.867 114.165 131.651 118.352 129.476 121.328C128.638 122.465 127.49 123.431 126.176 124.195L130.912 121.438C132.232 120.674 133.381 119.715 134.212 118.572C136.387 115.595 137.603 111.408 137.621 106.335L137.634 101.916C137.634 101.621 137.543 101.302 137.396 101.001L132.66 103.754Z" fill="#212121"/>
<path d="M126.175 124.327C126.13 124.327 126.085 124.304 126.061 124.261C126.024 124.198 126.045 124.117 126.109 124.08C127.472 123.287 128.569 122.335 129.369 121.249C131.567 118.242 132.735 114.036 132.747 109.086L132.759 104.672C132.761 104.409 132.686 104.112 132.541 103.812C132.51 103.749 132.533 103.674 132.593 103.639L137.329 100.886C137.362 100.868 137.4 100.863 137.435 100.874C137.47 100.885 137.499 100.909 137.515 100.943C137.679 101.279 137.766 101.615 137.766 101.916L137.754 106.335C137.736 111.341 136.548 115.599 134.318 118.65C133.511 119.761 132.387 120.738 130.978 121.553L126.247 124.306C126.247 124.307 126.246 124.307 126.246 124.307L126.242 124.309C126.221 124.322 126.198 124.327 126.175 124.327ZM132.831 103.808C132.96 104.107 133.027 104.405 133.024 104.674L133.012 109.086C133 114.093 131.814 118.353 129.583 121.406C129.226 121.891 128.811 122.35 128.342 122.78L130.845 121.323C132.222 120.527 133.318 119.575 134.104 118.494C136.301 115.489 137.471 111.284 137.489 106.335L137.501 101.916C137.501 101.693 137.444 101.444 137.336 101.189L132.831 103.808Z" fill="#212121"/>
<path d="M124.906 90.8269C125.476 91.1558 125.939 91.9173 126.019 92.6147C126.217 94.3461 126.83 96.1595 127.739 97.8436C128.797 99.8017 130.245 101.573 131.891 102.801C132.46 103.224 132.896 104.006 132.894 104.67L132.882 109.086C132.867 114.162 131.648 118.35 129.474 121.325C127.422 124.129 123.482 125.851 119.796 126.229C119.589 126.25 119.354 126.186 119.12 126.051C118.886 125.916 118.652 125.71 118.446 125.449C114.774 120.822 110.856 114.563 108.827 109.402C106.674 103.928 105.486 98.3506 105.5 93.2746L105.513 88.8577C105.515 88.1941 105.953 87.9173 106.523 88.152C108.166 88.8226 109.624 88.7303 110.689 87.9979C111.602 87.3659 112.226 86.2668 112.434 84.7697C112.517 84.1668 112.979 83.9394 113.553 84.2706L124.906 90.8269Z" fill="white"/>
<path d="M119.715 126.365C119.509 126.365 119.282 126.297 119.053 126.166C118.8 126.019 118.554 125.8 118.342 125.531C114.29 120.426 110.596 114.264 108.703 109.451C106.507 103.867 105.353 98.2733 105.367 93.2744L105.38 88.8577C105.381 88.4921 105.507 88.2073 105.734 88.0556C105.956 87.9072 106.254 87.8984 106.573 88.0297C108.125 88.663 109.56 88.6133 110.614 87.8888C111.521 87.2602 112.105 86.1754 112.301 84.7516C112.348 84.4185 112.503 84.1717 112.739 84.0565C112.986 83.9356 113.298 83.9706 113.618 84.1559L124.972 90.7124C125.569 91.0565 126.064 91.8503 126.15 92.5996C126.343 94.2812 126.932 96.0725 127.855 97.7808C128.93 99.771 130.391 101.516 131.97 102.695C132.584 103.151 133.028 103.982 133.026 104.67L133.013 109.087C132.999 114.089 131.813 118.348 129.581 121.404C127.65 124.042 123.906 125.941 119.809 126.36C119.778 126.364 119.747 126.365 119.715 126.365ZM106.144 88.2026C106.044 88.2026 105.955 88.227 105.881 88.2759C105.73 88.3771 105.646 88.584 105.645 88.8584L105.632 93.2749C105.618 98.241 106.766 103.801 108.95 109.354C110.834 114.144 114.512 120.28 118.55 125.367C118.741 125.61 118.961 125.807 119.186 125.936C119.401 126.06 119.607 126.116 119.781 126.097C123.807 125.685 127.48 123.827 129.367 121.247C131.565 118.237 132.735 114.032 132.748 109.086L132.761 104.67C132.763 104.059 132.363 103.318 131.811 102.908C130.202 101.706 128.715 99.9304 127.623 97.9068C126.683 96.1693 126.083 94.3447 125.887 92.63C125.811 91.9685 125.361 91.2427 124.84 90.9419L113.486 84.3853C113.245 84.246 113.021 84.2137 112.855 84.2947C112.702 84.3698 112.598 84.5451 112.565 84.7882C112.357 86.2872 111.735 87.4349 110.764 88.1071C109.635 88.8836 108.111 88.9434 106.472 88.2749C106.355 88.2267 106.244 88.2026 106.144 88.2026Z" fill="#212121"/>
<path d="M107.887 93.2818C107.871 97.9663 108.964 103.239 111.048 108.528C112.805 112.998 116.371 118.959 120.165 123.779C123.127 123.346 125.838 121.99 127.313 120.216L127.317 120.212C127.397 120.117 127.476 120.017 127.548 119.918C129.464 117.293 130.482 113.547 130.498 109.081L130.51 104.778C130.494 104.751 130.474 104.723 130.462 104.715C128.57 103.299 126.904 101.319 125.639 98.9764C124.566 96.988 123.878 94.8844 123.655 92.9159C123.647 92.896 123.632 92.8643 123.616 92.8364L114.467 87.5514L114.161 87.3765C113.93 87.8855 113.648 88.3507 113.314 88.7683C113.263 88.8398 113.203 88.9114 113.135 88.9791C113.092 89.0347 113.04 89.0943 112.988 89.1461C112.805 89.3449 112.607 89.5278 112.396 89.6988C112.28 89.7943 112.161 89.8818 112.042 89.9653C111.943 90.0329 111.839 90.1006 111.732 90.1602C111.632 90.2237 111.529 90.2795 111.426 90.3312C111.378 90.359 111.326 90.3829 111.271 90.4067C111.251 90.4187 111.227 90.4306 111.203 90.4386C111.135 90.4704 111.068 90.5022 110.996 90.53C110.952 90.5499 110.909 90.5698 110.861 90.5856C110.758 90.6255 110.646 90.6653 110.539 90.6971C110.436 90.7328 110.332 90.7647 110.225 90.7885C110.193 90.8004 110.157 90.8083 110.122 90.8163C110.01 90.8441 109.895 90.8681 109.784 90.888C109.764 90.8918 109.74 90.8959 109.716 90.8999C109.589 90.9237 109.461 90.9397 109.33 90.9556C109.31 90.9556 109.29 90.9596 109.271 90.9596C109.139 90.9755 109.004 90.9833 108.873 90.9874H108.857C108.785 90.9913 108.71 90.9913 108.638 90.9913C108.392 90.9913 108.141 90.9794 107.891 90.9516L107.887 93.2818Z" fill="#212121"/>
<path d="M120.164 123.912C120.124 123.912 120.085 123.893 120.06 123.861C116.264 119.037 112.678 113.038 110.924 108.577C108.834 103.271 107.738 97.9822 107.754 93.2812L107.758 90.9511C107.758 90.9136 107.774 90.8776 107.802 90.8525C107.831 90.8276 107.869 90.8152 107.905 90.8196C108.138 90.8455 108.384 90.8587 108.638 90.8587C108.707 90.8611 108.781 90.859 108.85 90.8551C108.996 90.8509 109.127 90.8435 109.254 90.8279C109.301 90.8243 109.315 90.823 109.33 90.823C109.442 90.8082 109.567 90.7929 109.691 90.7696L109.757 90.758C109.868 90.7381 109.98 90.715 110.089 90.6876C110.125 90.6795 110.153 90.6736 110.179 90.6643C110.298 90.6363 110.396 90.606 110.495 90.5718C110.605 90.5392 110.713 90.5006 110.813 90.4618C110.861 90.446 110.899 90.4287 110.936 90.4113C111.014 90.3807 111.076 90.3515 111.138 90.3222C111.173 90.3087 111.188 90.3015 111.203 90.2925C111.268 90.2632 111.315 90.2419 111.358 90.2166C111.466 90.163 111.565 90.1094 111.66 90.0483C111.771 89.9867 111.87 89.9209 111.967 89.8556C112.082 89.7751 112.198 89.6897 112.311 89.5967C112.53 89.4194 112.718 89.2428 112.89 89.0561C112.942 89.0044 112.99 88.949 113.03 88.8974C113.104 88.8226 113.159 88.7563 113.207 88.6905C113.534 88.2804 113.813 87.8216 114.04 87.3215C114.056 87.2876 114.085 87.2617 114.12 87.2503C114.156 87.2384 114.194 87.2428 114.226 87.2614L114.532 87.4364L123.681 92.7216C123.702 92.7333 123.719 92.7501 123.73 92.7704C123.75 92.8045 123.769 92.8434 123.779 92.8677C123.783 92.8783 123.785 92.8894 123.786 92.9008C124.008 94.8579 124.689 96.9372 125.755 98.9134C127.009 101.235 128.664 103.204 130.541 104.609C130.574 104.63 130.605 104.678 130.625 104.714C130.636 104.734 130.642 104.756 130.642 104.779L130.63 109.081C130.614 113.578 129.585 117.352 127.655 119.996C127.581 120.097 127.5 120.199 127.418 120.297C125.925 122.092 123.153 123.476 120.183 123.91C120.177 123.911 120.17 123.912 120.164 123.912ZM108.023 91.0977L108.019 93.2821C108.019 93.2821 108.019 93.2821 108.019 93.2823C108.003 97.9499 109.093 103.205 111.17 108.48C112.909 112.9 116.457 118.842 120.22 123.637C123.1 123.199 125.773 121.86 127.211 120.131C127.293 120.034 127.37 119.937 127.44 119.84C129.338 117.241 130.349 113.521 130.365 109.081L130.377 104.817C130.376 104.815 130.375 104.814 130.374 104.814C128.475 103.394 126.794 101.395 125.522 99.0394C124.443 97.0401 123.753 94.9352 123.525 92.9504C123.523 92.945 123.52 92.939 123.517 92.9328L114.22 87.5631C113.996 88.0322 113.726 88.4649 113.417 88.8512C113.361 88.9288 113.296 89.0052 113.228 89.0731C113.192 89.1204 113.137 89.1841 113.081 89.2398C112.905 89.4322 112.706 89.6173 112.479 89.8019C112.362 89.899 112.239 89.9885 112.117 90.074C112.013 90.1447 111.906 90.2146 111.795 90.2762C111.699 90.3379 111.592 90.3961 111.484 90.4497C111.44 90.4761 111.383 90.5025 111.322 90.5284C111.306 90.5395 111.275 90.554 111.245 90.5641C111.183 90.5942 111.115 90.6257 111.044 90.6534C110.999 90.6739 110.953 90.6948 110.902 90.7116C110.802 90.7502 110.687 90.7914 110.576 90.8243C110.474 90.8597 110.365 90.8931 110.253 90.918C110.235 90.926 110.195 90.9353 110.155 90.9444C110.039 90.9734 109.92 90.998 109.806 91.0185L109.737 91.0307C109.61 91.0545 109.48 91.0708 109.346 91.0871C109.345 91.0873 109.314 91.0894 109.313 91.0894C109.298 91.0907 109.284 91.092 109.27 91.092C109.151 91.1075 109.012 91.1156 108.877 91.12C108.543 91.1352 108.291 91.1212 108.023 91.0977Z" fill="#212121"/>
<path d="M108.854 92.3154C108.838 97 109.931 102.273 112.015 107.562C113.772 112.032 117.338 117.993 121.131 122.813C123.529 122.463 125.767 121.508 127.314 120.216L127.318 120.212C127.397 120.117 127.477 120.017 127.548 119.918C129.465 117.293 130.483 113.547 130.499 109.081L130.51 104.778C130.495 104.751 130.475 104.723 130.463 104.715C128.57 103.299 126.904 101.319 125.64 98.9764C124.567 96.988 123.879 94.8844 123.656 92.9159C123.648 92.896 123.632 92.8643 123.616 92.8364L114.468 87.5514L114.162 87.3765C113.931 87.8855 113.649 88.3507 113.315 88.7683C113.259 88.8398 113.2 88.9114 113.136 88.9791C113.092 89.0347 113.04 89.0943 112.989 89.1461C112.806 89.3449 112.607 89.5278 112.396 89.6988C112.281 89.7943 112.166 89.8818 112.042 89.9653C111.943 90.0329 111.84 90.1006 111.732 90.1602C111.633 90.2237 111.53 90.2795 111.426 90.3312C111.379 90.359 111.323 90.3829 111.271 90.4067C111.251 90.4187 111.227 90.4306 111.204 90.4386C111.136 90.4704 111.068 90.5022 110.997 90.53C110.953 90.5499 110.909 90.5698 110.862 90.5856C110.758 90.6255 110.651 90.6653 110.54 90.6971C110.436 90.7328 110.333 90.7607 110.225 90.7885C110.194 90.8004 110.158 90.8083 110.122 90.8163C110.011 90.8441 109.899 90.8681 109.784 90.888C109.764 90.8918 109.74 90.8959 109.717 90.8999C109.589 90.9198 109.462 90.9397 109.331 90.9556C109.311 90.9556 109.291 90.9596 109.271 90.9596C109.14 90.9715 109.009 90.9833 108.874 90.9874H108.858L108.854 92.3154Z" fill="#FFBE2E"/>
<path d="M121.131 122.945C121.091 122.945 121.053 122.927 121.027 122.895C117.231 118.071 113.645 112.072 111.891 107.611C109.801 102.305 108.705 97.0163 108.721 92.3151L108.725 90.9869C108.725 90.9139 108.785 90.8549 108.858 90.8549C109.001 90.851 109.129 90.8394 109.257 90.8277C109.302 90.8243 109.316 90.8231 109.331 90.8231C109.437 90.8091 109.556 90.7907 109.675 90.7723L109.758 90.7581C109.873 90.7382 109.982 90.7148 110.09 90.6876C110.126 90.6796 110.154 90.6736 110.179 90.6644C110.296 90.6333 110.396 90.6066 110.496 90.5719C110.611 90.539 110.714 90.5004 110.813 90.4619C110.862 90.4461 110.899 90.4287 110.937 90.4114C111.015 90.3808 111.076 90.3516 111.139 90.3223C111.173 90.3088 111.189 90.3016 111.204 90.2925L111.249 90.2711C111.287 90.254 111.325 90.2366 111.359 90.2167C111.466 90.1631 111.565 90.1095 111.66 90.0484C111.772 89.9867 111.871 89.921 111.967 89.8557C112.088 89.7744 112.199 89.6895 112.312 89.5968C112.53 89.4195 112.719 89.2429 112.891 89.0562C112.943 89.0042 112.99 88.949 113.031 88.8975C113.1 88.8235 113.157 88.7548 113.21 88.6865C113.535 88.2805 113.814 87.8217 114.041 87.3215C114.056 87.2876 114.085 87.2617 114.121 87.2503C114.157 87.2384 114.195 87.2428 114.227 87.2614L114.533 87.4364L123.682 92.7216C123.702 92.7333 123.719 92.7501 123.731 92.7704C123.75 92.8045 123.77 92.8434 123.779 92.8677C123.784 92.8783 123.786 92.8894 123.787 92.9008C124.009 94.8579 124.69 96.9372 125.756 98.9134C127.01 101.235 128.665 103.204 130.542 104.609C130.574 104.63 130.606 104.678 130.626 104.714C130.637 104.734 130.643 104.756 130.643 104.779L130.631 109.081C130.615 113.578 129.586 117.352 127.656 119.996C127.582 120.097 127.501 120.199 127.419 120.297C125.819 121.638 123.542 122.595 121.151 122.944C121.144 122.945 121.138 122.945 121.131 122.945ZM108.99 91.1149L108.986 92.3162C108.971 96.984 110.06 102.239 112.138 107.514C113.876 111.934 117.424 117.876 121.188 122.671C123.504 122.319 125.702 121.39 127.229 120.114C127.294 120.034 127.371 119.937 127.441 119.84C129.339 117.241 130.35 113.521 130.366 109.081L130.378 104.817C130.377 104.815 130.376 104.814 130.375 104.814C128.476 103.394 126.795 101.395 125.523 99.0394C124.444 97.0401 123.754 94.9351 123.526 92.9504C123.524 92.945 123.521 92.939 123.517 92.9328L114.221 87.5631C113.996 88.0322 113.727 88.4649 113.418 88.8512C113.361 88.9246 113.298 88.9995 113.232 89.0699C113.193 89.1204 113.137 89.1843 113.082 89.2397C112.905 89.4321 112.707 89.6172 112.479 89.8018C112.362 89.8992 112.243 89.9893 112.116 90.075C112.014 90.1446 111.907 90.2145 111.796 90.2762C111.7 90.3378 111.593 90.396 111.485 90.4496C111.452 90.4695 111.405 90.4913 111.359 90.512L111.327 90.5268C111.307 90.5395 111.276 90.554 111.246 90.5641C111.184 90.5942 111.116 90.6257 111.045 90.6534C111 90.6739 110.954 90.6948 110.902 90.7116C110.802 90.7505 110.691 90.7917 110.575 90.8245C110.476 90.8592 110.369 90.8879 110.259 90.9166C110.236 90.9259 110.196 90.9353 110.156 90.9443C110.039 90.9736 109.925 90.9979 109.806 91.0186L109.738 91.0305C109.594 91.0528 109.472 91.0717 109.347 91.0869C109.346 91.0872 109.315 91.0893 109.314 91.0893C109.299 91.0909 109.285 91.0919 109.271 91.0919C109.182 91.1006 109.087 91.1092 108.99 91.1149Z" fill="#212121"/>
<path d="M120.018 99.3912C117.277 97.8087 115.046 99.0736 115.037 102.23C115.028 105.38 117.245 109.219 119.985 110.802C122.726 112.384 124.957 111.113 124.966 107.963C124.975 104.807 122.758 100.974 120.018 99.3912Z" fill="white"/>
<path d="M118.247 106.813C118.213 106.813 118.18 106.809 118.146 106.801C118.031 106.774 117.931 106.7 117.871 106.598L116.828 104.826C116.753 104.7 116.796 104.537 116.922 104.463C117.047 104.389 117.21 104.43 117.284 104.557L118.279 106.246L122.162 103.774C122.286 103.697 122.449 103.732 122.528 103.856C122.607 103.979 122.57 104.143 122.447 104.222L118.483 106.744C118.412 106.789 118.33 106.813 118.247 106.813Z" fill="#212121"/>
</g>
</svg>
