<svg width="140" height="140" viewBox="0 0 140 140" fill="none" xmlns="http://www.w3.org/2000/svg">
<mask id="mask0_7278_9891" style="mask-type:alpha" maskUnits="userSpaceOnUse" x="0" y="0" width="140" height="140">
<rect width="140" height="140" rx="12" fill="white"/>
</mask>
<g mask="url(#mask0_7278_9891)">
<path d="M102.723 67.8873C102.687 67.8873 102.652 67.8691 102.633 67.8364C102.604 67.7876 102.621 67.7249 102.671 67.6965L114.317 61.0224C115.256 60.4848 116.787 60.4848 117.73 61.0222L129.453 67.6962C129.503 67.7245 129.52 67.787 129.491 67.836C129.462 67.8854 129.398 67.9013 129.349 67.8735L117.627 61.1995C116.741 60.6946 115.302 60.6946 114.422 61.1993L102.775 67.8735C102.758 67.8828 102.741 67.8873 102.723 67.8873Z" fill="#FFF7E4"/>
<path d="M108.953 125.998C108.579 125.998 108.205 125.902 107.872 125.711L96.9283 119.44C96.8789 119.412 96.8623 119.349 96.8911 119.3C96.9194 119.251 96.9827 119.234 97.033 119.263L107.976 125.534C108.579 125.879 109.328 125.879 109.93 125.534L122.134 118.54C122.184 118.512 122.247 118.528 122.276 118.577C122.305 118.626 122.288 118.689 122.239 118.717L110.035 125.711C109.701 125.902 109.327 125.998 108.953 125.998Z" fill="#FFF7E4"/>
<path d="M97.8616 118.215C98.6557 118.667 98.6601 119.4 97.8713 119.852C97.0824 120.305 95.7984 120.304 95.0044 119.852C94.2103 119.4 94.2065 118.667 94.9954 118.215C95.7842 117.763 97.0675 117.763 97.8616 118.215Z" fill="white"/>
<path d="M96.4406 120.292C95.9023 120.292 95.364 120.175 94.9529 119.941C94.5342 119.702 94.3032 119.379 94.3027 119.031C94.3023 118.685 94.5301 118.364 94.9436 118.126C95.7604 117.659 97.092 117.658 97.9137 118.126C98.3324 118.365 98.5635 118.688 98.5639 119.036C98.5647 119.383 98.3373 119.704 97.9238 119.941C97.5157 120.175 96.9781 120.292 96.4406 120.292ZM96.4277 117.977C95.9275 117.977 95.4276 118.086 95.0482 118.304C94.7008 118.502 94.5099 118.761 94.5103 119.031C94.5107 119.303 94.7049 119.563 95.0568 119.764C95.8209 120.199 97.0601 120.199 97.8193 119.764C98.1663 119.565 98.3568 119.307 98.3564 119.037C98.356 118.764 98.1623 118.504 97.81 118.303C97.4281 118.086 96.9275 117.977 96.4277 117.977Z" fill="#FFF7E4"/>
<path d="M96.4388 119.55C96.1292 119.55 95.8297 119.481 95.6168 119.36C95.4459 119.263 95.3478 119.143 95.3477 119.032C95.3475 118.922 95.4437 118.804 95.6115 118.708C95.8226 118.587 96.1209 118.518 96.4301 118.518C96.7394 118.518 97.0388 118.587 97.2514 118.708C97.4225 118.805 97.5206 118.925 97.5208 119.036C97.5209 119.146 97.4249 119.264 97.2572 119.36C97.0463 119.481 96.748 119.55 96.4388 119.55Z" fill="#FFBE2E"/>
<path d="M43.4222 103.431C43.4043 103.431 43.3865 103.426 43.3703 103.417L32.1957 97.0553C31.7664 96.8109 31.5297 96.48 31.5293 96.1236C31.5289 95.7694 31.762 95.4405 32.1856 95.1977L48.7153 85.7252C48.7648 85.6971 48.8284 85.7133 48.8572 85.7622C48.886 85.811 48.8694 85.8737 48.82 85.9021L32.2902 95.3746C31.933 95.5793 31.7364 95.8451 31.7369 96.1233C31.7373 96.4037 31.9372 96.6717 32.2995 96.878L43.4741 103.24C43.5235 103.268 43.5405 103.331 43.5121 103.38C43.4927 103.412 43.4579 103.431 43.4222 103.431Z" fill="#FFF7E4"/>
<path d="M75.6447 117.041C75.609 117.041 75.5742 117.023 75.5551 116.99C75.5264 116.942 75.543 116.879 75.5924 116.851L92.1356 107.37C92.1855 107.342 92.2487 107.358 92.2775 107.407C92.3063 107.456 92.2896 107.519 92.2402 107.547L75.697 117.028C75.6803 117.037 75.6625 117.041 75.6447 117.041Z" fill="#FFF7E4"/>
<path d="M91.3074 106.32C90.5134 106.773 90.5089 107.506 91.2977 107.958C92.0866 108.41 93.3707 108.41 94.1647 107.958C94.9587 107.506 94.9626 106.773 94.1737 106.321C93.3848 105.868 92.1015 105.868 91.3074 106.32Z" fill="white"/>
<path d="M92.7288 108.397C92.1909 108.397 91.6538 108.28 91.2456 108.046C90.8321 107.809 90.6047 107.488 90.6055 107.141C90.6059 106.793 90.8369 106.47 91.2557 106.231C92.0761 105.764 93.409 105.763 94.2262 106.231C94.6397 106.468 94.8671 106.79 94.8666 107.136C94.8662 107.484 94.6352 107.807 94.2164 108.046C93.8054 108.28 93.2667 108.397 92.7288 108.397ZM92.7422 106.082C92.2419 106.082 91.7413 106.191 91.3594 106.408C91.0072 106.609 90.8134 106.869 90.813 107.142C90.8126 107.412 91.0031 107.67 91.3501 107.869C92.1089 108.304 93.3489 108.303 94.1127 107.868C94.4645 107.668 94.6587 107.408 94.6591 107.135C94.6595 106.865 94.4686 106.607 94.1216 106.408C93.7422 106.191 93.2424 106.082 92.7422 106.082Z" fill="#FFF7E4"/>
<path d="M92.7305 107.656C93.04 107.656 93.3396 107.587 93.5525 107.466C93.7234 107.368 93.8215 107.249 93.8216 107.138C93.8217 107.028 93.7256 106.91 93.5577 106.814C93.3467 106.693 93.0483 106.624 92.7391 106.624C92.4299 106.624 92.1305 106.693 91.9178 106.814C91.7468 106.911 91.6486 107.031 91.6484 107.142C91.6483 107.252 91.7443 107.37 91.9121 107.466C92.123 107.587 92.4213 107.656 92.7305 107.656Z" fill="#FFBE2E"/>
<path d="M100.328 110.894C100.293 110.894 100.258 110.876 100.238 110.843C100.21 110.794 100.227 110.731 100.277 110.703L111.451 104.341C111.814 104.135 112.013 103.867 112.014 103.586C112.014 103.308 111.818 103.042 111.46 102.838L94.9303 93.3651C94.8809 93.3368 94.8642 93.2741 94.893 93.2252C94.9214 93.1762 94.985 93.1598 95.0349 93.1883L111.565 102.661C111.989 102.904 112.222 103.233 112.221 103.587C112.221 103.943 111.984 104.274 111.555 104.518L100.38 110.88C100.364 110.89 100.346 110.894 100.328 110.894Z" fill="#FFF7E4"/>
<path d="M98.0233 110.351C97.2046 110.817 97.1999 111.573 98.0134 112.04C98.8268 112.506 100.151 112.506 100.97 112.039C101.788 111.573 101.792 110.817 100.979 110.351C100.165 109.885 98.8421 109.885 98.0233 110.351Z" fill="white"/>
<path d="M99.4897 112.489C98.9356 112.489 98.3823 112.369 97.9615 112.128C97.5362 111.884 97.3024 111.554 97.3027 111.198C97.3032 110.84 97.5407 110.507 97.9716 110.262C98.818 109.78 100.191 109.78 101.032 110.262C101.457 110.506 101.691 110.837 101.69 111.192C101.69 111.55 101.452 111.883 101.022 112.128C100.599 112.369 100.044 112.489 99.4897 112.489ZM98.0754 110.439C97.7114 110.646 97.5107 110.916 97.5103 111.198C97.5099 111.478 97.7073 111.745 98.0661 111.951C98.8492 112.4 100.129 112.4 100.918 111.95C101.282 111.743 101.482 111.474 101.483 111.192C101.483 110.912 101.286 110.645 100.927 110.439C100.144 109.99 98.8642 109.99 98.0754 110.439Z" fill="#FFF7E4"/>
<path d="M99.4927 111.727C99.8119 111.727 100.121 111.655 100.34 111.53C100.517 111.43 100.618 111.307 100.618 111.192C100.618 111.079 100.519 110.957 100.346 110.858C100.128 110.733 99.8204 110.662 99.5016 110.662C99.1827 110.662 98.874 110.733 98.6547 110.858C98.4784 110.959 98.3771 111.082 98.377 111.197C98.3768 111.31 98.4759 111.431 98.6488 111.531C98.8663 111.655 99.1739 111.727 99.4927 111.727Z" fill="#FFBE2E"/>
<g opacity="0.1">
<path d="M104.425 90.746L108.498 93.0643L90.4775 103.392L86.3999 101.074L74.4671 107.915L31.6465 83.5359L71.9814 60.4209L114.802 84.7997L104.425 90.746Z" fill="#212121"/>
</g>
<path d="M114.8 77.481L114.787 82.2446L74.4512 105.359L74.4646 100.595L114.8 77.481Z" fill="#FFF7E4"/>
<path d="M74.4514 105.462C74.4336 105.462 74.4157 105.457 74.3995 105.448C74.3675 105.43 74.3477 105.396 74.3477 105.359L74.361 100.595C74.361 100.559 74.3809 100.525 74.4125 100.507L114.748 77.3928C114.78 77.3742 114.82 77.3744 114.852 77.3926C114.884 77.411 114.904 77.4449 114.904 77.4816L114.891 82.2453C114.891 82.2816 114.871 82.3153 114.839 82.3334L74.5037 105.448C74.4875 105.457 74.4693 105.462 74.4514 105.462ZM74.5685 100.655L74.5555 105.181L114.683 82.186L114.696 77.6593L74.5685 100.655Z" fill="#212121"/>
<path d="M74.465 100.596L74.4516 105.36L31.6328 80.9819L31.6463 76.2183L74.465 100.596Z" fill="#FFF7E4"/>
<path d="M74.4517 105.461C74.4338 105.461 74.416 105.457 74.3998 105.448L31.5812 81.0699C31.5492 81.0515 31.5293 81.0176 31.5293 80.9809L31.5427 76.2173C31.5427 76.1808 31.5625 76.1471 31.5945 76.1288C31.627 76.1106 31.6659 76.1107 31.6983 76.1289L74.5169 100.507C74.5489 100.525 74.5688 100.559 74.5688 100.596L74.5554 105.359C74.5554 105.396 74.5356 105.429 74.5036 105.448C74.4874 105.457 74.4695 105.461 74.4517 105.461ZM31.7368 80.9223L74.3483 105.182L74.3613 100.654L31.7498 76.3946L31.7368 80.9223Z" fill="#212121"/>
<path d="M114.801 77.4816L74.4652 100.596L31.6465 76.2185L71.9819 53.104L114.801 77.4816Z" fill="white"/>
<path d="M74.4654 100.698C74.4476 100.698 74.4297 100.693 74.4135 100.684L31.5948 76.3064C31.5628 76.2882 31.543 76.2545 31.543 76.2179C31.543 76.1814 31.5624 76.1476 31.5944 76.1294L71.9299 53.0149C71.9623 52.9963 72.0016 52.9965 72.0341 53.0147L114.853 77.3922C114.885 77.4105 114.905 77.4442 114.905 77.4808C114.905 77.5172 114.885 77.551 114.853 77.5693L74.5177 100.684C74.5015 100.693 74.4833 100.698 74.4654 100.698ZM31.8539 76.2174L74.4654 100.477L114.594 77.4811L71.9821 53.2215L31.8539 76.2174Z" fill="#212121"/>
<path d="M109.987 47.6416L109.879 77.4768L105.271 80.1169L105.342 56.0736L79.183 71.0628L79.1083 95.1061L74.4551 97.7749L74.563 67.9397C81.574 46.4383 93.2379 39.2342 109.987 47.6416Z" fill="#FFBE2E"/>
<path d="M74.4553 97.8778C74.4375 97.8778 74.4196 97.8732 74.4034 97.8642C74.371 97.8458 74.3516 97.8118 74.3516 97.7752L74.4594 67.94C74.4594 67.9296 74.461 67.9192 74.4642 67.9092C78.4153 55.7919 83.8978 48.22 90.7593 45.4036C96.2329 43.1569 102.718 43.8792 110.034 47.5511C110.069 47.5687 110.09 47.6041 110.09 47.6427L109.983 77.4779C109.983 77.5142 109.963 77.5477 109.931 77.5659L105.324 80.206C105.291 80.2246 105.252 80.2244 105.22 80.2062C105.188 80.1878 105.168 80.154 105.168 80.1173L105.238 56.2523L79.2867 71.1225L79.2122 95.1071C79.2122 95.1435 79.1923 95.1769 79.1607 95.1952L74.5076 97.8639C74.4914 97.8732 74.4732 97.8778 74.4553 97.8778ZM74.6669 67.9566L74.5599 97.5973L79.0046 95.0479L79.0792 71.0633C79.0792 71.0269 79.0991 70.9934 79.1307 70.9752L105.29 55.9859C105.322 55.9673 105.362 55.9675 105.394 55.9857C105.426 56.0041 105.446 56.0379 105.446 56.0746L105.376 79.9396L109.776 77.4185L109.883 47.7051C102.647 44.0864 96.2401 43.3759 90.8391 45.5925C84.0388 48.3835 78.5981 55.9081 74.6669 67.9566Z" fill="#212121"/>
<path d="M105.341 56.0742L105.271 77.2081L79.1172 92.1916L79.1815 71.063L105.341 56.0742Z" fill="#FFF7E4"/>
<path d="M79.1174 92.2942C79.0996 92.2942 79.0817 92.2896 79.0656 92.2805C79.0335 92.2621 79.0137 92.2283 79.0137 92.1916L79.0781 71.063C79.0781 71.0266 79.098 70.993 79.1296 70.9748L105.289 55.986C105.321 55.9675 105.36 55.9677 105.393 55.9859C105.425 56.0042 105.445 56.0381 105.445 56.0748L105.376 77.2087C105.376 77.2451 105.356 77.2787 105.324 77.2969L79.1697 92.2804C79.1535 92.2896 79.1353 92.2942 79.1174 92.2942ZM79.2856 71.1222L79.2216 92.0138L105.168 77.1494L105.237 56.2527L79.2856 71.1222Z" fill="#212121"/>
<path d="M102.742 73.412L88.877 65.5114L102.791 57.5361L102.742 73.412Z" fill="#212121"/>
<path d="M102.742 73.5146C102.724 73.5146 102.706 73.51 102.69 73.5009L88.8253 65.6003C88.7933 65.5821 88.7734 65.5484 88.7734 65.5118C88.7734 65.4753 88.7929 65.4415 88.8249 65.4233L102.738 57.448C102.771 57.4294 102.81 57.4296 102.843 57.4478C102.875 57.4662 102.895 57.5 102.895 57.5367L102.846 73.4126C102.846 73.449 102.826 73.4828 102.794 73.501C102.778 73.5101 102.76 73.5146 102.742 73.5146ZM89.0843 65.5114L102.639 73.2353L102.687 57.7146L89.0843 65.5114Z" fill="#212121"/>
<path d="M105.341 56.0742L105.271 80.1189L102.729 78.67L102.79 57.5353L105.341 56.0742Z" fill="white"/>
<path d="M105.272 80.2216C105.254 80.2216 105.236 80.217 105.22 80.2079L102.677 78.759C102.645 78.7406 102.625 78.7067 102.625 78.67L102.686 57.5353C102.686 57.4989 102.706 57.4653 102.738 57.4471L105.289 55.986C105.321 55.9675 105.36 55.9677 105.393 55.9859C105.425 56.0042 105.445 56.0381 105.445 56.0748L105.375 80.1196C105.375 80.1561 105.356 80.1897 105.324 80.208C105.307 80.2171 105.289 80.2216 105.272 80.2216ZM102.833 78.6114L105.168 79.9422L105.237 56.2526L102.894 57.5946L102.833 78.6114Z" fill="#212121"/>
<path d="M74.5616 67.9423L74.4566 97.7788L36.3691 76.0947L36.4741 46.2583L74.5616 67.9423Z" fill="white"/>
<path d="M74.457 97.8818C74.4392 97.8818 74.4214 97.8772 74.4052 97.8681L36.3175 76.1841C36.2855 76.1657 36.2656 76.1318 36.2656 76.0951L36.3706 46.2587C36.3706 46.2222 36.3905 46.1885 36.4225 46.1703C36.4549 46.1521 36.4938 46.1522 36.5262 46.1705L74.6139 67.8545C74.6459 67.8729 74.6658 67.9067 74.6658 67.9435L74.5608 97.7799C74.5608 97.8163 74.5409 97.85 74.5089 97.8682C74.4927 97.8773 74.4749 97.8818 74.457 97.8818ZM36.4736 76.0365L74.3541 97.6026L74.4579 68.002L36.5773 46.4359L36.4736 76.0365Z" fill="#212121"/>
<path d="M54.4796 23.498L43.8917 33.1951C43.759 33.3156 43.6369 33.4622 43.5254 33.6245L80.9441 55.0713C81.0556 54.909 81.1831 54.7624 81.3158 54.642L91.9037 44.9449L54.4796 23.498Z" fill="#FFF7E4"/>
<path d="M80.9445 55.173C80.9267 55.173 80.9088 55.1685 80.8922 55.1591L43.4734 33.7123C43.4487 33.6981 43.4308 33.6743 43.4243 33.6466C43.4182 33.6189 43.4235 33.59 43.4397 33.5665C43.5609 33.3898 43.6894 33.2394 43.822 33.1192L54.4096 23.4224C54.4429 23.3917 54.4931 23.3863 54.5325 23.4089L91.9565 44.8557C91.9849 44.872 92.0036 44.9006 92.0072 44.9329C92.0108 44.9651 91.9991 44.9971 91.9748 45.0191L81.3867 54.7164C81.2586 54.8329 81.1354 54.9751 81.0304 55.1281C81.0106 55.1571 80.9777 55.173 80.9445 55.173ZM43.6756 33.5915L80.9145 54.9351C81.0154 54.799 81.1285 54.6726 81.2461 54.5661L91.7312 44.9633L54.4943 23.6239L43.9627 33.2694C43.8646 33.3586 43.7685 33.4665 43.6756 33.5915Z" fill="#212121"/>
<path d="M43.5261 33.6235L35.1152 45.9492L72.5393 67.3961L80.9449 55.0703L43.5261 33.6235Z" fill="#FFF7E4"/>
<path d="M72.5395 67.4992C72.5216 67.4992 72.5038 67.4947 72.4871 67.4853L35.0631 46.0384C35.0383 46.0242 35.0205 46.0005 35.0144 45.9729C35.0079 45.9452 35.0132 45.9163 35.0295 45.8928L43.4403 33.5671C43.4707 33.5221 43.5307 33.5089 43.5785 33.5359L80.9973 54.9827C81.022 54.9969 81.0399 55.0205 81.046 55.0481C81.0525 55.0757 81.0472 55.1046 81.0309 55.1282L72.6254 67.454C72.6056 67.4832 72.5727 67.4992 72.5395 67.4992ZM35.2633 45.9163L72.5074 67.2602L80.797 55.1046L43.5582 33.7609L35.2633 45.9163Z" fill="#212121"/>
<path d="M111.338 45.3105L73.9143 23.8637L65.4609 21.1357L102.885 42.5826L111.338 45.3105Z" fill="#FFF7E4"/>
<path d="M111.339 45.4133C111.328 45.4133 111.317 45.4117 111.306 45.4082L102.853 42.6803L65.4089 21.2246C65.3631 21.1983 65.3449 21.142 65.3664 21.0943C65.3883 21.0466 65.441 21.0222 65.4937 21.0389L73.9471 23.7669L111.391 45.2225C111.437 45.2488 111.455 45.3051 111.434 45.3528C111.416 45.3905 111.378 45.4133 111.339 45.4133ZM66.3631 21.5346L102.938 42.4946L110.437 44.9125L73.8623 23.9525L66.3631 21.5346Z" fill="#212121"/>
<path d="M102.519 42.5728C102.646 42.5415 102.774 42.5415 102.885 42.5833L65.4614 21.1364L65.4613 21.1364C65.3551 21.0997 65.2223 21.0997 65.0949 21.1259L54.4805 23.4979L91.9045 44.9447L102.519 42.5728Z" fill="#FFF7E4"/>
<path d="M91.9048 45.0457C91.8866 45.0457 91.8688 45.041 91.8525 45.0318L54.4284 23.585C54.3915 23.5639 54.3717 23.5227 54.3782 23.4811C54.3847 23.4395 54.4162 23.406 54.4576 23.3967L65.072 21.0248C65.2281 20.9928 65.3776 20.9978 65.4956 21.0384L102.938 42.4936C102.985 42.5204 103.002 42.578 102.979 42.6261C102.956 42.674 102.899 42.6966 102.849 42.6776C102.763 42.6455 102.658 42.6429 102.544 42.6708C102.544 42.6709 102.543 42.6712 102.542 42.6714L91.928 45.0432C91.9202 45.0449 91.9126 45.0457 91.9048 45.0457ZM54.7612 23.5389L91.9219 44.8347L102.489 42.4733L65.4093 21.2236C65.3452 21.2034 65.2321 21.2009 65.1162 21.2248L54.7612 23.5389Z" fill="#212121"/>
<path d="M73.947 68.6143L36.5231 47.1683L35.1172 45.9526L72.541 67.3986L73.947 68.6143Z" fill="#212121"/>
<path d="M73.9475 68.7158C73.9296 68.7158 73.9118 68.7113 73.8952 68.7019L36.471 47.2561L35.049 46.0288C35.0089 45.9941 35.002 45.9349 35.0332 45.8921C35.0648 45.8495 35.1231 45.837 35.1698 45.8635L72.5935 67.3093L74.0159 68.5366C74.056 68.5714 74.063 68.6304 74.0317 68.6733C74.0115 68.7008 73.9799 68.7158 73.9475 68.7158ZM35.9895 46.5698L36.5918 47.0906L73.0747 67.9951L72.4727 67.4747L35.9895 46.5698Z" fill="#212121"/>
<path d="M91.9069 44.9467L102.519 42.5721C102.647 42.5449 102.777 42.5445 102.885 42.5826L111.338 45.3116L109.944 48.1216L101.661 45.4459L91.9146 47.6241L82.1876 56.5324L73.947 68.6155L72.541 67.3997L80.9474 55.0723C81.059 54.9087 81.1842 54.7643 81.3163 54.6429L91.9069 44.9467Z" fill="#212121"/>
<path d="M73.9474 68.718C73.9223 68.718 73.8979 68.7091 73.8789 68.6926L72.4727 67.4768C72.4334 67.4429 72.4261 67.3855 72.4553 67.3428L80.8617 55.0155C80.9764 54.8473 81.1057 54.6969 81.2456 54.5683L91.8368 44.8719C91.8502 44.8596 91.8664 44.851 91.8842 44.847L102.496 42.4724C102.653 42.4394 102.799 42.444 102.921 42.4864L111.371 45.2147C111.399 45.2239 111.423 45.2448 111.434 45.2721C111.446 45.2994 111.445 45.3303 111.432 45.3568L110.037 48.1668C110.015 48.2124 109.962 48.2351 109.912 48.219L101.656 45.5521L91.9653 47.7181L82.2585 56.6075L74.0333 68.6727C74.0167 68.6972 73.9903 68.7133 73.9607 68.7171C73.9563 68.7177 73.9518 68.718 73.9474 68.718ZM72.6782 67.3823L73.9271 68.4621L82.1021 56.4756L91.8445 47.5494C91.8579 47.5371 91.8741 47.5286 91.8919 47.5246L101.638 45.3464C101.657 45.3425 101.676 45.3433 101.694 45.349L109.891 47.9968L111.193 45.3726L102.853 42.6801C102.767 42.6498 102.659 42.6475 102.541 42.6723L91.9577 45.0406L81.387 54.7181C81.2585 54.8361 81.1397 54.9746 81.0335 55.1298L72.6782 67.3823Z" fill="#212121"/>
<path d="M92.2112 53.1773C93.7834 52.2823 95.0414 53.0116 95.0464 54.7706C95.0515 56.5407 93.8018 58.6977 92.2296 59.5928C90.6674 60.4822 89.3996 59.7584 89.3945 57.9883C89.3894 56.2293 90.649 54.0667 92.2112 53.1773Z" fill="white"/>
<path d="M90.9664 60.0772C90.679 60.0772 90.4123 60.0107 90.1763 59.8769C89.6081 59.5542 89.2935 58.8838 89.291 57.989C89.2858 56.1906 90.5724 53.9925 92.1594 53.0891C92.9515 52.6382 93.701 52.5678 94.2684 52.8904C94.8347 53.2116 95.1477 53.8793 95.1505 54.7706C95.1554 56.5751 93.8687 58.7782 92.2818 59.6817C91.8201 59.9445 91.3726 60.0772 90.9664 60.0772ZM92.2631 53.2663C90.7337 54.1371 89.4933 56.2553 89.4985 57.9884C89.501 58.8071 89.7782 59.4148 90.2801 59.6995C90.7823 59.9845 91.4565 59.9156 92.178 59.5044C93.7075 58.6337 94.9478 56.5103 94.943 54.7712C94.9405 53.9559 94.6641 53.3511 94.1651 53.0678C93.6624 52.7828 92.9875 52.8536 92.2631 53.2663Z" fill="#212121"/>
<path d="M92.2209 59.6911C92.1638 59.6911 92.1172 59.6453 92.1172 59.5888V53.176C92.1172 53.1195 92.1638 53.0737 92.2209 53.0737C92.278 53.0737 92.3246 53.1195 92.3246 53.176V59.5888C92.3246 59.6453 92.278 59.6911 92.2209 59.6911Z" fill="#212121"/>
<path d="M89.3928 58.0937C89.3571 58.0937 89.3222 58.0753 89.3028 58.0426C89.2744 57.9936 89.2915 57.931 89.3409 57.9027L94.9965 54.686C95.0451 54.6581 95.1087 54.6743 95.1384 54.7235C95.1668 54.7724 95.1497 54.835 95.1003 54.8633L89.4447 58.08C89.4285 58.0893 89.4106 58.0937 89.3928 58.0937Z" fill="#212121"/>
<path d="M47.6223 58.0164L47.6036 63.2697L47.5989 64.2666L39.8809 59.8728L39.9042 53.6226L40.7795 54.121L47.6223 58.0164Z" fill="#212121"/>
<path d="M47.5996 64.3696C47.5818 64.3696 47.5639 64.365 47.5477 64.3559L39.8292 59.9621C39.7972 59.9437 39.7773 59.9097 39.7773 59.8731L39.8008 53.6229C39.8008 53.5865 39.8207 53.5528 39.8527 53.5346C39.8852 53.5164 39.924 53.5165 39.9565 53.5347L47.6745 57.9285C47.7065 57.9469 47.7264 57.9808 47.7264 58.0176L47.7033 64.2678C47.7033 64.3043 47.6834 64.3379 47.6514 64.3561C47.6353 64.3651 47.6174 64.3696 47.5996 64.3696ZM39.9853 59.8144L47.4966 64.0905L47.5185 58.076L40.0076 53.8001L39.9853 59.8144Z" fill="#212121"/>
<path d="M58.8508 64.408L58.8274 69.6567L58.8228 70.6582L51.1094 66.269L51.1374 60.0142L52.008 60.508L58.8508 64.408Z" fill="#212121"/>
<path d="M58.8232 70.7598C58.8054 70.7598 58.7875 70.7552 58.7713 70.7461L51.0577 66.3569C51.0253 66.3385 51.0059 66.3046 51.0059 66.2678L51.0338 60.0129C51.0338 59.9765 51.0537 59.9428 51.0857 59.9247C51.1181 59.9067 51.157 59.9065 51.1895 59.9247L52.0602 60.4186L58.903 64.3187C58.9355 64.337 58.9549 64.371 58.9549 64.4078L58.927 70.6579C58.927 70.6943 58.9071 70.728 58.8751 70.7462C58.8589 70.7553 58.8411 70.7598 58.8232 70.7598ZM51.2138 66.2093L58.7202 70.4807L58.747 64.4661L51.2405 60.1899L51.2138 66.2093Z" fill="#212121"/>
<path d="M47.6241 58.0155L47.6055 63.2688L40.7578 59.3688L40.7813 54.1201L47.6241 58.0155Z" fill="#FFBE2E"/>
<path d="M47.6054 63.3714C47.5875 63.3714 47.5697 63.3668 47.5535 63.3577L40.7062 59.4577C40.6737 59.4393 40.6543 59.4053 40.6543 59.3687L40.6774 54.12C40.6774 54.0835 40.6973 54.0499 40.7293 54.0317C40.7617 54.0135 40.8006 54.0136 40.8331 54.0318L47.6759 57.9272C47.7079 57.9456 47.7278 57.9795 47.7278 58.0162L47.7092 63.2695C47.7092 63.3059 47.6893 63.3396 47.6573 63.3578C47.6411 63.3669 47.6232 63.3714 47.6054 63.3714ZM40.8622 59.3101L47.5024 63.0921L47.5198 58.0747L40.8841 54.2971L40.8622 59.3101Z" fill="#212121"/>
<path d="M58.8517 64.4063L58.8284 69.655L51.9902 65.7643L52.0089 60.5063L58.8517 64.4063Z" fill="#FFBE2E"/>
<path d="M58.8285 69.7566C58.8107 69.7566 58.7928 69.752 58.7766 69.743L51.9386 65.8522C51.9066 65.8338 51.8867 65.8 51.8867 65.7632L51.9054 60.5053C51.9054 60.4688 51.9252 60.4351 51.9572 60.4169C51.9897 60.3987 52.0286 60.3988 52.061 60.417L58.9039 64.317C58.9363 64.3354 58.9557 64.3694 58.9557 64.4061L58.9323 69.6548C58.9323 69.6913 58.9124 69.7248 58.8804 69.743C58.8642 69.7522 58.8463 69.7566 58.8285 69.7566ZM52.0947 65.7046L58.7255 69.4775L58.7479 64.4644L52.1121 60.6826L52.0947 65.7046Z" fill="#212121"/>
<path d="M88.3496 97.4869L106.373 87.1587L108.5 88.3697L90.4767 98.6979L88.3496 97.4869Z" fill="white"/>
<path d="M90.4772 98.7995C90.4594 98.7995 90.4415 98.7949 90.4253 98.7858L88.298 97.5748C88.266 97.5565 88.2461 97.5228 88.2461 97.4862C88.2461 97.4498 88.2655 97.416 88.2975 97.3977L106.321 87.0695C106.353 87.051 106.392 87.0512 106.425 87.0694L108.552 88.2804C108.584 88.2987 108.604 88.3323 108.604 88.3689C108.604 88.4054 108.584 88.4392 108.552 88.4575L90.5295 98.7856C90.5133 98.7949 90.4951 98.7995 90.4772 98.7995ZM88.557 97.4858L90.4772 98.5789L108.293 88.3693L106.373 87.2762L88.557 97.4858Z" fill="#212121"/>
<path d="M90.4757 98.6963L108.499 88.3682L108.492 90.7837L90.4688 101.112L90.4757 98.6963Z" fill="white"/>
<path d="M90.469 101.214C90.4511 101.214 90.4333 101.209 90.4171 101.2C90.3851 101.181 90.3652 101.148 90.3652 101.111L90.3721 98.6953C90.3721 98.6589 90.392 98.6254 90.4236 98.6072L108.446 88.279C108.479 88.2604 108.518 88.2606 108.551 88.2788C108.583 88.2972 108.602 88.3311 108.602 88.3678L108.596 90.7833C108.596 90.8197 108.576 90.8533 108.544 90.8715L90.5214 101.2C90.5051 101.209 90.4868 101.214 90.469 101.214ZM90.5797 98.7546L90.5732 100.933L108.388 90.7241L108.394 88.5456L90.5797 98.7546Z" fill="#212121"/>
<path d="M88.3565 95.0723L106.38 84.7441L106.373 87.157L88.3496 97.4852L88.3565 95.0723Z" fill="white"/>
<path d="M88.3499 97.5879C88.332 97.5879 88.3142 97.5833 88.298 97.5742C88.266 97.5558 88.2461 97.522 88.2461 97.4852L88.253 95.0723C88.253 95.036 88.2728 95.0023 88.3044 94.9841L106.328 84.656C106.36 84.6374 106.399 84.6376 106.432 84.6558C106.464 84.6742 106.484 84.708 106.484 84.7447L106.477 87.1577C106.477 87.1941 106.457 87.2277 106.425 87.2459L88.4022 97.574C88.386 97.5833 88.3677 97.5879 88.3499 97.5879ZM88.4605 95.1316L88.454 97.3075L106.269 87.0984L106.276 84.9225L88.4605 95.1316Z" fill="#212121"/>
<path d="M86.2285 93.8623L104.252 83.5342L106.379 84.7452L88.3557 95.0734L86.2285 93.8623Z" fill="white"/>
<path d="M88.3557 95.1764C88.3378 95.1764 88.32 95.1718 88.3038 95.1627L86.1769 93.9517C86.1449 93.9334 86.125 93.8998 86.125 93.8632C86.125 93.8267 86.1444 93.7929 86.1764 93.7747L104.199 83.4465C104.232 83.4279 104.271 83.4281 104.303 83.4463L106.431 84.6573C106.463 84.6756 106.483 84.7092 106.483 84.7458C106.483 84.7823 106.463 84.8161 106.431 84.8343L88.408 95.1625C88.3918 95.1718 88.3735 95.1764 88.3557 95.1764ZM86.4359 93.8628L88.3557 94.9559L106.172 84.7462L104.251 83.6532L86.4359 93.8628Z" fill="#212121"/>
<path d="M88.3559 95.0729L88.349 97.4857L90.4761 98.6968L90.4691 101.112L86.2148 98.6903L86.2287 93.8618L88.3559 95.0729Z" fill="#212121"/>
<path d="M90.4694 101.215C90.4515 101.215 90.4337 101.211 90.4175 101.202L86.1632 98.7797C86.1312 98.7613 86.1113 98.7275 86.1113 98.6908L86.1251 93.8623C86.1251 93.8259 86.145 93.7922 86.177 93.7738C86.2094 93.7556 86.2483 93.7558 86.2808 93.774L88.4077 94.9849C88.4397 95.0033 88.4596 95.0372 88.4596 95.0739L88.4527 97.4276L90.5281 98.609C90.5601 98.6274 90.58 98.6612 90.58 98.698L90.5731 101.114C90.5731 101.15 90.5533 101.184 90.5213 101.202C90.5051 101.211 90.4872 101.215 90.4694 101.215ZM86.3189 98.6321L90.366 100.936L90.3725 98.7565L88.2971 97.5751C88.2651 97.5567 88.2452 97.5228 88.2452 97.4861L88.2521 95.1324L86.3323 94.0395L86.3189 98.6321Z" fill="#212121"/>
<path d="M80.9113 116.736L64.9291 125.895L31.6328 106.938L47.615 97.7798L80.9113 116.736Z" fill="white"/>
<path d="M64.9294 125.997C64.9115 125.997 64.8937 125.993 64.8775 125.984L31.5812 107.027C31.5492 107.009 31.5293 106.975 31.5293 106.939C31.5293 106.902 31.5487 106.869 31.5808 106.85L47.563 97.6916C47.5954 97.673 47.6347 97.6732 47.6671 97.6914L80.9635 116.648C80.9955 116.666 81.0153 116.7 81.0153 116.736C81.0153 116.773 80.9959 116.807 80.9639 116.825L64.9816 125.984C64.9654 125.993 64.9472 125.997 64.9294 125.997ZM31.8401 106.938L64.9293 125.777L80.7043 116.737L47.6151 97.8982L31.8401 106.938Z" fill="#212121"/>
<path d="M64.9299 125.998C64.8942 125.998 64.8593 125.98 64.8403 125.947C64.8115 125.899 64.8281 125.836 64.8776 125.807L80.8597 116.649C80.9096 116.62 80.9728 116.636 81.0016 116.686C81.0304 116.735 81.0137 116.797 80.9643 116.826L64.9821 125.984C64.9655 125.994 64.9477 125.998 64.9299 125.998Z" fill="#212121"/>
<path d="M42.2617 108.265L49.9692 103.849L70.2829 115.414L62.5754 119.83L42.2617 108.265Z" fill="#212121"/>
<g opacity="0.1">
<path d="M124.86 125.896L112.979 119.087L124.839 112.334L136.721 119.143L124.86 125.896Z" fill="#212121"/>
</g>
<path d="M126.033 123.548L114.152 116.74L114.113 103.297L125.995 110.106L126.033 123.548Z" fill="white"/>
<path d="M126.034 123.651C126.016 123.651 125.998 123.647 125.981 123.638L114.1 116.829C114.069 116.811 114.049 116.777 114.049 116.741L114.01 103.298C114.01 103.262 114.03 103.228 114.062 103.209C114.094 103.191 114.133 103.191 114.166 103.21L126.047 110.018C126.079 110.036 126.099 110.07 126.099 110.106L126.137 123.549C126.137 123.585 126.118 123.619 126.086 123.638C126.069 123.647 126.051 123.651 126.034 123.651ZM114.256 116.681L125.929 123.371L125.891 110.166L114.218 103.476L114.256 116.681Z" fill="#212121"/>
<path d="M125.995 110.107L114.113 103.298L125.974 96.5454L137.855 103.354L125.995 110.107Z" fill="white"/>
<path d="M125.995 110.208C125.977 110.208 125.959 110.204 125.943 110.194L114.061 103.386C114.029 103.367 114.01 103.334 114.01 103.297C114.01 103.261 114.03 103.227 114.062 103.209L125.923 96.4561C125.955 96.4379 125.994 96.4377 126.027 96.4563L137.908 103.265C137.94 103.283 137.96 103.317 137.96 103.353C137.96 103.39 137.94 103.424 137.908 103.442L126.047 110.195C126.031 110.204 126.013 110.208 125.995 110.208ZM114.321 103.298L125.995 109.988L137.649 103.353L125.974 96.6629L114.321 103.298Z" fill="#212121"/>
<path d="M133.325 105.936L130.562 107.508L118.68 100.7L121.443 99.1274L133.325 105.936Z" fill="#FFBE2E"/>
<path d="M130.561 107.61C130.544 107.61 130.525 107.606 130.509 107.597L118.628 100.788C118.596 100.77 118.576 100.736 118.576 100.7C118.576 100.663 118.596 100.63 118.628 100.611L121.391 99.0391C121.423 99.0209 121.463 99.0207 121.495 99.0393L133.377 105.847C133.409 105.866 133.429 105.899 133.429 105.936C133.429 105.973 133.409 106.006 133.377 106.025L130.613 107.597C130.597 107.606 130.579 107.61 130.561 107.61ZM118.887 100.7L130.561 107.39L133.118 105.936L121.443 99.246L118.887 100.7Z" fill="#212121"/>
<path d="M137.895 116.798L126.032 123.55L125.994 110.108L130.561 107.509L133.324 105.937L137.857 103.356L137.895 116.798Z" fill="white"/>
<path d="M126.032 123.652C126.015 123.652 125.997 123.647 125.981 123.638C125.949 123.62 125.929 123.586 125.929 123.549L125.891 110.107C125.891 110.071 125.91 110.037 125.943 110.019L137.805 103.266C137.837 103.248 137.876 103.248 137.909 103.266C137.941 103.284 137.961 103.318 137.961 103.354L137.999 116.797C137.999 116.833 137.979 116.867 137.947 116.885L126.084 123.638C126.068 123.647 126.05 123.652 126.032 123.652ZM126.098 110.166L126.136 123.372L137.791 116.738L137.753 103.532L126.098 110.166Z" fill="#212121"/>
<path d="M133.33 109.409L130.567 110.984L130.561 107.508L133.324 105.936L133.33 109.409Z" fill="#FFBE2E"/>
<path d="M130.567 111.087C130.549 111.087 130.532 111.083 130.515 111.074C130.483 111.055 130.464 111.022 130.464 110.985L130.457 107.509C130.457 107.472 130.477 107.438 130.509 107.42L133.272 105.848C133.305 105.829 133.344 105.829 133.376 105.848C133.408 105.866 133.428 105.9 133.428 105.936L133.434 109.409C133.434 109.446 133.415 109.48 133.383 109.498L130.619 111.073C130.603 111.083 130.585 111.087 130.567 111.087ZM130.665 107.568L130.671 110.808L133.227 109.351L133.221 106.113L130.665 107.568Z" fill="#212121"/>
<path d="M130.282 115.559C130.253 115.575 130.225 115.605 130.203 115.643L129.427 117.045C129.364 117.157 129.412 117.254 129.504 117.202L129.837 117.012L129.846 119.917C129.846 119.966 129.882 119.986 129.925 119.961L130.661 119.543C130.705 119.517 130.74 119.457 130.74 119.408L130.732 116.503L131.065 116.313C131.157 116.261 131.204 116.109 131.142 116.068L130.359 115.554C130.339 115.54 130.31 115.543 130.282 115.559Z" fill="#212121"/>
<path d="M128 116.858C127.971 116.874 127.943 116.903 127.922 116.941L127.145 118.343C127.083 118.455 127.132 118.552 127.224 118.5L127.557 118.31L127.565 121.215C127.565 121.264 127.6 121.285 127.645 121.259L128.38 120.841C128.424 120.816 128.46 120.755 128.459 120.706L128.451 117.801L128.784 117.611C128.876 117.559 128.923 117.407 128.86 117.367L128.078 116.852C128.057 116.839 128.028 116.842 128 116.858Z" fill="#212121"/>
<path d="M126.057 107.508L116.463 102.01L116.432 91.1548L126.026 96.6531L126.057 107.508Z" fill="white"/>
<path d="M126.058 107.61C126.04 107.61 126.022 107.605 126.005 107.596L116.411 102.098C116.379 102.079 116.359 102.046 116.359 102.01L116.328 91.1544C116.328 91.1178 116.348 91.0838 116.38 91.0655C116.412 91.0473 116.452 91.0471 116.484 91.0656L126.079 96.5638C126.11 96.5821 126.13 96.6156 126.13 96.652L126.161 107.507C126.161 107.544 126.142 107.578 126.11 107.596C126.093 107.605 126.075 107.61 126.058 107.61ZM116.567 101.95L125.954 107.33L125.923 96.7114L116.536 91.3323L116.567 101.95Z" fill="#212121"/>
<path d="M126.026 96.651L116.432 91.1527L126.01 85.6997L135.604 91.1979L126.026 96.651Z" fill="white"/>
<path d="M126.026 96.7542C126.009 96.7542 125.99 96.7496 125.974 96.7403L116.38 91.2421C116.348 91.2238 116.328 91.19 116.328 91.1535C116.328 91.1169 116.348 91.0833 116.38 91.065L125.958 85.6118C125.99 85.5936 126.03 85.5935 126.062 85.612L135.657 91.1104C135.689 91.1286 135.708 91.1624 135.708 91.1989C135.708 91.2355 135.689 91.2691 135.657 91.2874L126.078 96.7404C126.062 96.7496 126.044 96.7542 126.026 96.7542ZM116.639 91.1539L126.026 96.5336L135.397 91.1985L126.01 85.8187L116.639 91.1539Z" fill="#212121"/>
<path d="M131.946 93.285L129.714 94.5546L120.119 89.0568L122.351 87.7871L131.946 93.285Z" fill="#FFBE2E"/>
<path d="M129.715 94.6564C129.697 94.6564 129.679 94.6518 129.662 94.6424L120.067 89.1445C120.035 89.1263 120.016 89.0925 120.016 89.0559C120.016 89.0194 120.035 88.9857 120.068 88.9674L122.299 87.6978C122.331 87.6796 122.371 87.6794 122.403 87.698L131.998 93.1959C132.03 93.2141 132.05 93.2479 132.05 93.2845C132.05 93.321 132.03 93.3547 131.998 93.3729L129.767 94.6426C129.75 94.6518 129.733 94.6564 129.715 94.6564ZM120.327 89.0564L129.715 94.4358L131.739 93.284L122.351 87.9047L120.327 89.0564Z" fill="#212121"/>
<path d="M135.636 102.054L126.056 107.507L126.025 96.652L129.714 94.5529L131.945 93.2833L135.605 91.1992L135.636 102.054Z" fill="white"/>
<path d="M126.056 107.61C126.039 107.61 126.021 107.605 126.005 107.596C125.973 107.578 125.953 107.544 125.953 107.508L125.922 96.6527C125.922 96.616 125.942 96.5821 125.974 96.5637L135.553 91.1109C135.586 91.0927 135.625 91.0926 135.657 91.1107C135.689 91.129 135.709 91.1627 135.709 91.1992L135.74 102.054C135.74 102.091 135.72 102.125 135.688 102.143L126.108 107.596C126.092 107.605 126.074 107.61 126.056 107.61ZM126.129 96.7113L126.16 107.33L135.532 101.996L135.502 91.3764L126.129 96.7113Z" fill="#212121"/>
<path d="M131.951 96.088L129.72 97.3601L129.715 94.5528L131.946 93.2832L131.951 96.088Z" fill="#FFBE2E"/>
<path d="M129.72 97.4622C129.702 97.4622 129.684 97.4576 129.668 97.4485C129.636 97.4303 129.616 97.3966 129.616 97.3601L129.611 94.5528C129.611 94.5161 129.631 94.4822 129.663 94.464L131.894 93.1943C131.927 93.1761 131.966 93.1761 131.998 93.1943C132.03 93.2125 132.05 93.2463 132.05 93.2827L132.055 96.0875C132.055 96.124 132.035 96.1579 132.003 96.1763L129.772 97.4484C129.756 97.4576 129.738 97.4622 129.72 97.4622ZM129.819 94.6117L129.823 97.1827L131.848 96.0288L131.843 93.46L129.819 94.6117Z" fill="#212121"/>
<path d="M129.488 101.053C129.465 101.066 129.442 101.09 129.425 101.121L128.798 102.253C128.748 102.343 128.787 102.422 128.861 102.379L129.13 102.226L129.136 104.572C129.137 104.612 129.165 104.628 129.201 104.608L129.794 104.27C129.83 104.249 129.858 104.201 129.858 104.161L129.851 101.815L130.12 101.662C130.195 101.62 130.233 101.497 130.183 101.464L129.551 101.049C129.534 101.037 129.511 101.04 129.488 101.053Z" fill="#212121"/>
<path d="M127.646 102.104C127.623 102.117 127.6 102.141 127.583 102.171L126.956 103.304C126.906 103.394 126.945 103.472 127.02 103.43L127.289 103.277L127.295 105.623C127.295 105.662 127.324 105.679 127.36 105.659L127.953 105.32C127.988 105.3 128.017 105.251 128.017 105.211L128.01 102.866L128.279 102.713C128.353 102.67 128.392 102.548 128.34 102.515L127.709 102.1C127.692 102.089 127.669 102.091 127.646 102.104Z" fill="#212121"/>
<path d="M93.6511 83.8395L85.7989 79.3398L85.7734 70.4561L93.6256 74.9558L93.6511 83.8395Z" fill="white"/>
<path d="M93.651 83.9413C93.6332 83.9413 93.6149 83.9367 93.5987 83.9274L85.7469 79.4276C85.7152 79.4094 85.6954 79.3758 85.6954 79.3394L85.6699 70.4557C85.6699 70.419 85.6898 70.3851 85.7218 70.3667C85.7542 70.3485 85.7935 70.3483 85.826 70.3669L93.6778 74.8666C93.7094 74.8848 93.7292 74.9183 93.7292 74.9547L93.7548 83.8386C93.7548 83.8753 93.735 83.9092 93.7029 83.9276C93.6867 83.9367 93.6688 83.9413 93.651 83.9413ZM85.9029 79.2802L93.5468 83.6609L93.5217 75.0141L85.8778 70.6335L85.9029 79.2802Z" fill="#212121"/>
<path d="M93.6256 74.9557L85.7734 70.4559L93.6121 65.9932L101.464 70.4929L93.6256 74.9557Z" fill="white"/>
<path d="M93.6255 75.0582C93.6076 75.0582 93.5894 75.0536 93.5732 75.0442L85.7214 70.5446C85.6894 70.5263 85.6699 70.4925 85.6699 70.4561C85.6699 70.4195 85.6898 70.3858 85.7218 70.3675L93.5602 65.9048C93.5927 65.8866 93.632 65.8864 93.6644 65.905L101.517 70.4047C101.549 70.4229 101.568 70.4567 101.568 70.4932C101.568 70.5298 101.548 70.5634 101.516 70.5817L93.6774 75.0444C93.6612 75.0536 93.6433 75.0582 93.6255 75.0582ZM85.9808 70.4565L93.6255 74.8377L101.257 70.4929L93.6121 66.1117L85.9808 70.4565Z" fill="#212121"/>
<path d="M98.4697 72.2006L96.6436 73.2397L88.791 68.7402L90.6172 67.7012L98.4697 72.2006Z" fill="#FFBE2E"/>
<path d="M96.6439 73.3413C96.6261 73.3413 96.6079 73.3367 96.5916 73.3274L88.7389 68.828C88.7069 68.8098 88.6875 68.776 88.6875 68.7394C88.6875 68.7029 88.7074 68.6692 88.7394 68.6509L90.5655 67.6118C90.598 67.5936 90.6373 67.5935 90.6697 67.612L98.5224 72.1114C98.5544 72.1297 98.5739 72.1635 98.5739 72.2001C98.5739 72.2366 98.554 72.2702 98.522 72.2885L96.6959 73.3276C96.6796 73.3367 96.6618 73.3413 96.6439 73.3413ZM88.9985 68.7399L96.644 73.1208L98.263 72.1996L90.6175 67.8187L88.9985 68.7399Z" fill="#212121"/>
<path d="M101.49 79.3779L93.6502 83.8404L93.625 74.9567L96.6434 73.2388L98.4695 72.1998L101.465 70.4941L101.49 79.3779Z" fill="white"/>
<path d="M93.6504 83.9435C93.6325 83.9435 93.6147 83.9391 93.5985 83.9299C93.5665 83.9117 93.5466 83.878 93.5466 83.8415L93.5215 74.9578C93.5215 74.9212 93.5414 74.8872 93.5734 74.8689L101.413 70.4063C101.445 70.3881 101.484 70.388 101.517 70.4061C101.549 70.4244 101.569 70.4581 101.569 70.4946L101.594 79.3784C101.594 79.415 101.574 79.449 101.542 79.4673L93.7023 83.9299C93.6861 83.9389 93.6682 83.9435 93.6504 83.9435ZM93.7291 75.0165L93.7538 83.6642L101.386 79.3197L101.362 70.6719L93.7291 75.0165Z" fill="#212121"/>
<path d="M98.4729 74.4946L96.6467 75.5357L96.6426 73.2383L98.4687 72.1992L98.4729 74.4946Z" fill="#FFBE2E"/>
<path d="M96.6469 75.6378C96.629 75.6378 96.6112 75.6332 96.595 75.6241C96.563 75.6059 96.5431 75.5721 96.5431 75.5356L96.5391 73.2382C96.5391 73.2016 96.5589 73.1677 96.5909 73.1494L98.4171 72.1103C98.4495 72.0921 98.4884 72.0921 98.5208 72.1103C98.5528 72.1285 98.5727 72.1623 98.5727 72.1988L98.5768 74.4942C98.5768 74.5308 98.5569 74.5646 98.5249 74.583L96.6987 75.6241C96.6826 75.6332 96.6647 75.6378 96.6469 75.6378ZM96.7466 73.2971L96.7503 75.3583L98.3693 74.4355L98.3657 72.376L96.7466 73.2971Z" fill="#212121"/>
<path d="M96.4585 78.5578C96.4397 78.5685 96.4208 78.5879 96.4064 78.6131L95.8936 79.5395C95.8524 79.6134 95.8841 79.678 95.945 79.6433L96.165 79.5179L96.1705 81.4375C96.1706 81.4702 96.1942 81.4835 96.223 81.4671L96.7089 81.1903C96.7384 81.1736 96.7612 81.1337 96.7611 81.1011L96.7556 79.1814L96.9756 79.0561C97.0365 79.0214 97.0677 78.9211 97.027 78.8937L96.5099 78.5541C96.496 78.545 96.4773 78.547 96.4585 78.5578Z" fill="#212121"/>
<path d="M94.9501 79.4191C94.9314 79.4298 94.9127 79.449 94.8991 79.4739L94.3856 80.4006C94.3445 80.4746 94.3768 80.5387 94.4377 80.504L94.6577 80.3787L94.6632 82.2984C94.6633 82.331 94.6863 82.3447 94.7158 82.3279L95.2016 82.0512C95.2304 82.0348 95.2539 81.9946 95.2538 81.9619L95.2483 80.0423L95.4683 79.917C95.5292 79.8823 95.5604 79.782 95.5183 79.7554L95.0019 79.4154C94.9878 79.4062 94.9689 79.4085 94.9501 79.4191Z" fill="#212121"/>
<path d="M129.48 69.1769C128.737 68.7536 128.733 68.0668 129.471 67.6435C130.21 67.2203 131.412 67.2204 132.156 67.6437C132.899 68.0671 132.903 68.7534 132.164 69.1768C131.426 69.6001 130.224 69.6003 129.48 69.1769Z" fill="white"/>
<path d="M130.824 69.5945C130.319 69.5945 129.814 69.4848 129.428 69.2654C129.034 69.0409 128.817 68.7362 128.816 68.4075C128.816 68.0807 129.03 67.778 129.419 67.5549C130.185 67.1158 131.437 67.1158 132.208 67.5549C132.602 67.7794 132.819 68.0839 132.82 68.4125C132.82 68.7391 132.606 69.0419 132.217 69.265C131.833 69.4847 131.329 69.5945 130.824 69.5945ZM129.532 69.0882C130.245 69.4941 131.403 69.4945 132.112 69.0882C132.435 68.9032 132.613 68.6634 132.612 68.4128C132.612 68.1603 132.431 67.9186 132.104 67.7323C131.389 67.3256 130.232 67.326 129.524 67.7318C129.201 67.9167 129.024 68.1566 129.024 68.4073C129.024 68.6599 129.205 68.9017 129.532 69.0882Z" fill="#FFF7E4"/>
<path d="M130.814 67.9268C131.104 67.9268 131.384 67.9918 131.584 68.1053C131.744 68.1964 131.836 68.3083 131.836 68.4123C131.836 68.515 131.746 68.6256 131.589 68.7157C131.391 68.829 131.112 68.8939 130.822 68.8939C130.532 68.8939 130.252 68.8289 130.053 68.7155C129.893 68.6243 129.801 68.5123 129.801 68.4082C129.801 68.3054 129.891 68.1948 130.048 68.1048C130.245 67.9916 130.525 67.9268 130.814 67.9268Z" fill="#FFBE2E"/>
<path d="M124.268 64.2529C124.579 64.2529 124.88 64.3228 125.094 64.4447C125.266 64.5425 125.365 64.6627 125.365 64.7744C125.365 64.8848 125.269 65.0035 125.1 65.1003C124.888 65.2219 124.587 65.2917 124.277 65.2917C123.966 65.2917 123.665 65.2218 123.451 65.1001C123.279 65.0021 123.18 64.8818 123.18 64.77C123.18 64.6596 123.276 64.5408 123.445 64.4442C123.657 64.3226 123.957 64.2529 124.268 64.2529Z" fill="#212121"/>
<path d="M37.5227 91.7441C37.2641 91.7441 37.0139 91.8022 36.8361 91.9034C36.6934 91.9847 36.6115 92.0845 36.6113 92.1773C36.6112 92.269 36.6915 92.3676 36.8317 92.448C37.008 92.549 37.2572 92.6069 37.5155 92.6069C37.7738 92.6069 38.0238 92.5489 38.2015 92.4478C38.3444 92.3664 38.4264 92.2665 38.4265 92.1736C38.4266 92.0819 38.3463 91.9833 38.2063 91.9031C38.0302 91.8021 37.781 91.7441 37.5227 91.7441Z" fill="#212121"/>
<path d="M35.7083 98.3276C35.4497 98.3276 35.1995 98.3857 35.0217 98.4869C34.879 98.5682 34.7971 98.668 34.7969 98.7608C34.7968 98.8525 34.8771 98.9511 35.0173 99.0315C35.1936 99.1325 35.4428 99.1904 35.701 99.1904C35.9594 99.1904 36.2094 99.1324 36.387 99.0313C36.5299 98.9499 36.6119 98.85 36.6121 98.7571C36.6122 98.6654 36.532 98.5668 36.3919 98.4865C36.2158 98.3855 35.9666 98.3276 35.7083 98.3276Z" fill="#212121"/>
<path d="M101.648 121.559C101.389 121.559 101.139 121.617 100.961 121.718C100.818 121.8 100.737 121.899 100.736 121.992C100.736 122.084 100.817 122.183 100.957 122.263C101.133 122.364 101.382 122.422 101.64 122.422C101.899 122.422 102.149 122.364 102.326 122.263C102.469 122.181 102.551 122.081 102.551 121.989C102.552 121.897 102.471 121.798 102.331 121.718C102.155 121.617 101.906 121.559 101.648 121.559Z" fill="#212121"/>
<path d="M83.5423 111.94C83.2837 111.94 83.0335 111.998 82.8557 112.099C82.713 112.18 82.631 112.28 82.6309 112.373C82.6307 112.465 82.7111 112.563 82.8513 112.644C83.0276 112.745 83.2768 112.803 83.535 112.803C83.7934 112.803 84.0434 112.745 84.221 112.644C84.3639 112.562 84.4459 112.462 84.446 112.369C84.4461 112.278 84.3659 112.179 84.2258 112.099C84.0498 111.998 83.8006 111.94 83.5423 111.94Z" fill="#212121"/>
<path d="M106.152 99.1284C105.893 99.1284 105.643 99.1865 105.465 99.2877C105.322 99.369 105.24 99.4688 105.24 99.5616C105.24 99.6532 105.32 99.7519 105.461 99.8322C105.637 99.9333 105.886 99.9912 106.144 99.9912C106.403 99.9912 106.653 99.9332 106.83 99.8321C106.973 99.7507 107.055 99.6508 107.055 99.5579C107.056 99.4662 106.975 99.3676 106.835 99.2873C106.659 99.1863 106.41 99.1284 106.152 99.1284Z" fill="#212121"/>
<path d="M2.10353 30.1667L2.18215 50.9227C2.18631 51.6529 2.44692 52.167 2.86895 52.4077L4.99562 53.6318C4.94595 53.5991 4.89635 53.5665 4.85083 53.5257L4.84667 53.5216C4.81356 53.4971 4.78461 53.4686 4.75565 53.4359L4.75156 53.4318C4.71429 53.391 4.68118 53.3502 4.64813 53.3012L4.64397 53.2971C4.60671 53.2482 4.5736 53.1951 4.54879 53.138C4.52399 53.0972 4.50328 53.0523 4.48672 53.0034C4.46601 52.9585 4.44946 52.9096 4.43296 52.8566C4.41641 52.8075 4.404 52.7505 4.3916 52.6974C4.38329 52.6647 4.3792 52.6322 4.37505 52.5995C4.37505 52.5954 4.37089 52.5873 4.37089 52.5832C4.36674 52.5547 4.36265 52.522 4.35849 52.4934C4.35434 52.4527 4.35018 52.4118 4.34609 52.3711C4.34194 52.3017 4.33784 52.2324 4.33784 52.163L4.25922 31.4071C4.25506 29.9384 5.29772 28.1513 6.5969 27.4128L27.2678 15.6595C27.7187 15.4024 28.1408 15.3086 28.4966 15.3535C28.5463 15.3576 28.596 15.3698 28.6415 15.382C28.6456 15.382 28.6497 15.382 28.6497 15.382C28.6952 15.3943 28.7408 15.4106 28.7863 15.427C28.7945 15.4311 28.7987 15.4311 28.807 15.4352C28.8483 15.4515 28.8856 15.4719 28.9228 15.4922L26.7837 14.2601C26.3576 14.0153 25.7659 14.048 25.1121 14.4193L4.44127 26.1725C3.14618 26.9109 2.09937 28.698 2.10353 30.1667Z" fill="#FFF7E4"/>
<path d="M4.99541 53.7334C4.97769 53.7334 4.95955 53.729 4.94342 53.7195L2.81681 52.4955C2.34555 52.2268 2.0831 51.6682 2.07864 50.9232L2.00001 30.1671C2.00001 30.1671 2.00001 30.1671 2.00001 30.1669C1.99598 28.6694 3.06796 26.8379 4.38944 26.0844L25.0603 14.3309C25.7263 13.9532 26.356 13.8968 26.8353 14.1721L28.9744 15.4043C29.0232 15.4323 29.0401 15.4939 29.0119 15.5424C28.9841 15.5909 28.922 15.608 28.8724 15.5812C28.8369 15.5618 28.8047 15.5439 28.7684 15.5297C28.766 15.5285 28.7426 15.5192 28.7402 15.518C28.7071 15.5068 28.67 15.4935 28.6325 15.483C28.6253 15.4824 28.618 15.4814 28.6136 15.48C28.5741 15.4693 28.5306 15.4583 28.4874 15.4548C28.1346 15.4103 27.7319 15.5122 27.3191 15.7476L6.64831 27.501C5.38365 28.2197 4.35804 29.9719 4.36207 31.4068L4.44069 52.1626C4.44069 52.2246 4.4443 52.2862 4.44796 52.3478L4.47295 52.5679C4.47619 52.578 4.4782 52.5887 4.4782 52.5995C4.48101 52.6156 4.48425 52.6439 4.49152 52.6725L4.49837 52.7013C4.50802 52.743 4.51773 52.786 4.53062 52.8237C4.54675 52.8752 4.56165 52.9203 4.58059 52.9615C4.59874 53.0138 4.61609 53.0511 4.63704 53.0857C4.66282 53.1431 4.69025 53.1883 4.72654 53.2362C4.76405 53.2894 4.79386 53.3264 4.82814 53.3634C4.86119 53.4004 4.88459 53.4224 4.90878 53.4402C4.96199 53.4879 5.00757 53.5173 5.05271 53.5471C5.09908 53.5777 5.1124 53.6389 5.08295 53.6856C5.06359 53.7163 5.02968 53.7334 4.99541 53.7334ZM2.2065 30.1663L2.28513 50.9223C2.28916 51.5919 2.51489 52.0883 2.92048 52.3196L4.46898 53.2109C4.46373 53.2 4.45847 53.189 4.45365 53.1779C4.4319 53.1437 4.4077 53.0914 4.38877 53.0353C4.37062 52.997 4.35248 52.9439 4.33433 52.8862C4.32022 52.8453 4.30855 52.7952 4.29725 52.7465L4.2912 52.7204C4.28191 52.6854 4.27709 52.6485 4.27269 52.6117C4.26945 52.6016 4.26787 52.5938 4.26787 52.5831L4.24324 52.3809C4.23799 52.294 4.23438 52.2284 4.23438 52.1628L4.15576 31.4073C4.15173 29.9074 5.22371 28.0757 6.54519 27.3244L27.2161 15.5711C27.5841 15.3615 27.9482 15.2494 28.2828 15.2413L26.7315 14.3476C26.3187 14.1107 25.7619 14.1673 25.1636 14.5072L4.49274 26.2605C3.22845 26.9816 2.20284 28.7337 2.2065 30.1663Z" fill="#212121"/>
<path d="M4.99541 53.7334C4.97769 53.7334 4.95955 53.729 4.94342 53.7195L2.81681 52.4955C2.34555 52.2268 2.0831 51.6682 2.07864 50.9232L2.00001 30.1671C2.00001 30.1671 2.00001 30.1671 2.00001 30.1669C1.99598 28.6694 3.06796 26.8379 4.38944 26.0844L25.0603 14.3309C25.7263 13.9532 26.356 13.8968 26.8353 14.1721L28.9744 15.4043C29.0232 15.4323 29.0401 15.4939 29.0119 15.5424C28.9841 15.5909 28.922 15.608 28.8724 15.5812C28.8369 15.5618 28.8047 15.5439 28.7684 15.5297C28.766 15.5285 28.7426 15.5192 28.7402 15.518C28.7071 15.5068 28.67 15.4935 28.6325 15.483C28.6253 15.4824 28.618 15.4814 28.6136 15.48C28.5741 15.4693 28.5306 15.4583 28.4874 15.4548C28.1346 15.4103 27.7319 15.5122 27.3191 15.7476L6.64831 27.501C5.38365 28.2197 4.35804 29.9719 4.36207 31.4068L4.44069 52.1626C4.44069 52.2246 4.4443 52.2862 4.44796 52.3478L4.47295 52.5679C4.47619 52.578 4.4782 52.5887 4.4782 52.5995C4.48101 52.6156 4.48425 52.6439 4.49152 52.6725L4.49837 52.7013C4.50802 52.743 4.51773 52.786 4.53062 52.8237C4.54675 52.8752 4.56165 52.9203 4.58059 52.9615C4.59874 53.0138 4.61609 53.0511 4.63704 53.0857C4.66282 53.1431 4.69025 53.1883 4.72654 53.2362C4.76405 53.2894 4.79386 53.3264 4.82814 53.3634C4.86119 53.4004 4.88459 53.4224 4.90878 53.4402C4.96199 53.4879 5.00757 53.5173 5.05271 53.5471C5.09908 53.5777 5.1124 53.6389 5.08295 53.6856C5.06359 53.7163 5.02968 53.7334 4.99541 53.7334ZM2.2065 30.1663L2.28513 50.9223C2.28916 51.5919 2.51489 52.0883 2.92048 52.3196L4.46898 53.2109C4.46373 53.2 4.45847 53.189 4.45365 53.1779C4.4319 53.1437 4.4077 53.0914 4.38877 53.0353C4.37062 52.997 4.35248 52.9439 4.33433 52.8862C4.32022 52.8453 4.30855 52.7952 4.29725 52.7465L4.2912 52.7204C4.28191 52.6854 4.27709 52.6485 4.27269 52.6117C4.26945 52.6016 4.26787 52.5938 4.26787 52.5831L4.24324 52.3809C4.23799 52.294 4.23438 52.2284 4.23438 52.1628L4.15576 31.4073C4.15173 29.9074 5.22371 28.0757 6.54519 27.3244L27.2161 15.5711C27.5841 15.3615 27.9482 15.2494 28.2828 15.2413L26.7315 14.3476C26.3187 14.1107 25.7619 14.1673 25.1636 14.5072L4.49274 26.2605C3.22845 26.9816 2.20284 28.7337 2.2065 30.1663Z" fill="#212121"/>
<path d="M4.25978 31.4068L4.33841 52.1626C4.33841 52.232 4.3425 52.3013 4.34665 52.3707C4.35081 52.4115 4.35496 52.4523 4.35905 52.4931C4.36321 52.5216 4.3673 52.5543 4.37145 52.5828C4.37145 52.5869 4.37561 52.595 4.37561 52.5991C4.37977 52.6318 4.38386 52.6644 4.39217 52.697C4.40457 52.7501 4.41697 52.8072 4.43353 52.8562C4.45008 52.9092 4.46664 52.9582 4.48729 53.003C4.50384 53.052 4.52449 53.0969 4.54936 53.1376C4.57831 53.1948 4.61142 53.2478 4.64454 53.2967L4.64869 53.3008C4.6818 53.3499 4.71485 53.3907 4.75212 53.4315L4.75621 53.4356C4.78517 53.4682 4.81413 53.4968 4.84724 53.5212L4.85139 53.5253C4.89691 53.5662 4.94657 53.5987 4.99618 53.6314L5.00033 53.6355C5.42651 53.8926 6.02643 53.864 6.68843 53.4845L27.3594 41.7353C28.6586 40.9968 29.7054 39.2057 29.7013 37.7369L29.6226 16.9851C29.6185 16.2466 29.3537 15.7325 28.9234 15.4918C28.8861 15.4714 28.8489 15.4511 28.8075 15.4348C28.7993 15.4307 28.7951 15.4307 28.7868 15.4266C28.7413 15.4102 28.6958 15.3939 28.6503 15.3816C28.6503 15.3816 28.6462 15.3816 28.642 15.3816C28.5965 15.3694 28.5469 15.3572 28.4972 15.3531C28.1414 15.3082 27.7193 15.4021 27.2683 15.659L6.59746 27.4125C5.29828 28.151 4.25568 29.938 4.25978 31.4068Z" fill="white"/>
<path d="M5.63334 53.9035C5.3806 53.9035 5.14754 53.8435 4.94636 53.7222C4.94031 53.7184 4.9298 53.7099 4.92461 53.7047C4.88472 53.6805 4.83108 53.6447 4.7819 53.6002C4.74964 53.5764 4.7158 53.5445 4.67872 53.5026C4.63479 53.4551 4.5985 53.4106 4.56264 53.3569C4.52312 53.3009 4.48805 53.2442 4.45702 53.1834C4.4324 53.1433 4.4082 53.091 4.38926 53.0349C4.37112 52.9965 4.35298 52.9434 4.33483 52.8858C4.32072 52.8448 4.30905 52.7948 4.29775 52.746L4.2917 52.72C4.28241 52.685 4.27759 52.6481 4.27319 52.6113C4.26995 52.6011 4.26836 52.5934 4.26836 52.5827L4.24375 52.3805C4.23849 52.2936 4.23489 52.228 4.23489 52.1624L4.15626 31.4068C4.15626 31.4068 4.15626 31.4068 4.15626 31.4067C4.15223 29.9069 5.22421 28.0753 6.54569 27.3239L27.2166 15.5706C27.6693 15.313 28.1176 15.2021 28.5099 15.2518C28.5583 15.2558 28.6103 15.2675 28.6586 15.2804C28.6655 15.281 28.6723 15.282 28.6772 15.2832C28.7236 15.2956 28.7699 15.312 28.8163 15.3285L28.8075 15.4345L28.8458 15.3399C28.8901 15.3574 28.93 15.3791 28.97 15.4007C29.4545 15.6715 29.7215 16.2332 29.7258 16.9843L29.8045 37.7363C29.8085 39.2373 28.7349 41.0705 27.411 41.8232L6.74002 53.5726C6.35661 53.7922 5.97686 53.9035 5.63334 53.9035ZM4.36263 31.4061L4.44125 52.162C4.44125 52.224 4.44486 52.2857 4.44852 52.3473L4.47351 52.5674C4.47675 52.5775 4.47876 52.5882 4.47876 52.599C4.48158 52.6151 4.48481 52.6433 4.49208 52.6719L4.49893 52.7007C4.50858 52.7425 4.51829 52.7854 4.53118 52.8231C4.54731 52.8746 4.56221 52.9198 4.58115 52.9609C4.5993 53.0132 4.61665 53.0506 4.6376 53.0851C4.66864 53.1451 4.69967 53.1947 4.73034 53.2402C4.76461 53.2889 4.79442 53.3259 4.8287 53.3629C4.86175 53.3998 4.88515 53.4219 4.90934 53.4396C4.96255 53.4873 5.00813 53.5167 5.05327 53.5465C5.46809 53.7982 6.0305 53.7441 6.63641 53.3963L27.3077 41.6468C28.5744 40.9267 29.602 39.1727 29.598 37.737L29.5194 16.9854C29.5153 16.3104 29.2856 15.8113 28.8723 15.5801C28.8376 15.5613 28.8054 15.5433 28.7691 15.5292C28.7667 15.528 28.7434 15.5187 28.7409 15.5175C28.7079 15.5063 28.6708 15.493 28.6333 15.4825C28.626 15.4819 28.6187 15.4809 28.6143 15.4795C28.5748 15.4688 28.5313 15.4578 28.4881 15.4543C28.1378 15.4101 27.7335 15.5115 27.3198 15.7471L6.64887 27.5005C5.38421 28.2192 4.35902 29.9714 4.36263 31.4061Z" fill="#212121"/>
<path d="M20.1337 28.0219C20.0381 28.0763 19.9431 28.174 19.8733 28.3008L17.2559 33.0221C17.0464 33.399 17.2111 33.7257 17.5215 33.549L18.6429 32.9105L18.671 41.5109C18.6715 41.6773 18.7887 41.7471 18.9389 41.6615L21.4154 40.2516C21.5623 40.168 21.682 39.9633 21.6815 39.797L21.6534 31.1966L22.7749 30.5581C23.0853 30.3814 23.2443 29.8704 23.0299 29.7348L20.3973 28.0025C20.3253 27.9564 20.2292 27.9675 20.1337 28.0219Z" fill="#FFBE2E"/>
<path d="M13.8716 46.1118C13.9671 46.0574 14.0621 45.9598 14.1319 45.833L16.7493 41.1116C16.9588 40.7348 16.7941 40.408 16.4837 40.5848L15.3623 41.2232L15.3342 32.6228C15.3337 32.4564 15.2165 32.3867 15.0663 32.4722L12.5899 33.8821C12.443 33.9657 12.3233 34.1704 12.3237 34.3368L12.3519 42.9372L11.2304 43.5756C10.92 43.7523 10.761 44.2633 10.9753 44.3989L13.6079 46.1313C13.68 46.1774 13.7761 46.1662 13.8716 46.1118Z" fill="#FFBE2E"/>
<path d="M7.59715 30.5175C8.03566 30.2678 8.38986 30.4734 8.39126 30.9704C8.39272 31.4741 8.04086 32.0753 7.60234 32.3251C7.15254 32.5814 6.79834 32.3823 6.79688 31.8786C6.79541 31.3817 7.14729 30.7738 7.59715 30.5175Z" fill="#212121"/>
<path d="M7.2344 32.5383C7.14129 32.5383 7.05417 32.5164 6.9772 32.4728C6.79496 32.3695 6.69422 32.1582 6.69336 31.8783C6.69178 31.3385 7.0659 30.7018 7.5456 30.4287C7.78948 30.2895 8.02535 30.2701 8.20875 30.3742C8.39257 30.4786 8.49417 30.6899 8.49496 30.9694C8.49655 31.509 8.12731 32.1429 7.65397 32.4124C7.50735 32.4961 7.36464 32.5383 7.2344 32.5383ZM7.95002 30.5118C7.8601 30.5118 7.75734 30.5431 7.6489 30.6048C7.23445 30.8409 6.89827 31.4118 6.89986 31.8775C6.90065 32.082 6.96473 32.2307 7.08044 32.2963C7.19817 32.3639 7.36586 32.3419 7.55091 32.2363C7.95931 32.0037 8.29031 31.4356 8.28866 30.9699C8.28823 30.766 8.22335 30.6171 8.10563 30.5505C8.06005 30.5247 8.00763 30.5118 7.95002 30.5118Z" fill="#212121"/>
<path d="M10.5176 30.6689C10.4245 30.6689 10.3374 30.6472 10.2604 30.6035C10.0782 30.5001 9.97736 30.289 9.97657 30.009C9.97498 29.4691 10.3491 28.8324 10.8288 28.5593C11.0739 28.42 11.3098 28.4013 11.492 28.5049C11.6758 28.6095 11.7774 28.8207 11.7782 29.1002C11.7798 29.6399 11.4105 30.2737 10.9372 30.5431C10.7905 30.6267 10.6478 30.6689 10.5176 30.6689ZM10.932 28.7355C10.5175 28.9716 10.1814 29.5425 10.1829 30.0082C10.1837 30.2128 10.2479 30.3614 10.3632 30.427C10.4817 30.4945 10.6494 30.4723 10.8341 30.367C11.2425 30.1344 11.5734 29.5665 11.5718 29.1008C11.5714 28.8969 11.5065 28.748 11.3888 28.6814C11.2715 28.6144 11.1094 28.6343 10.932 28.7355Z" fill="#212121"/>
<path d="M13.8008 28.8018C13.7077 28.8018 13.6206 28.78 13.5436 28.7364C13.3614 28.633 13.2606 28.4218 13.2598 28.1419C13.2582 27.6021 13.6322 26.9654 14.112 26.6923C14.3563 26.5534 14.5913 26.5337 14.7752 26.6378C14.959 26.7422 15.0606 26.9535 15.0614 27.233C15.063 27.7726 14.6937 28.4065 14.2204 28.676C14.0738 28.7597 13.931 28.8018 13.8008 28.8018ZM14.5164 26.7754C14.4265 26.7754 14.3237 26.8068 14.2152 26.8684C13.8008 27.1046 13.4646 27.6754 13.4662 28.1412C13.467 28.3457 13.5311 28.4944 13.6468 28.56C13.7645 28.6276 13.9322 28.6053 14.1173 28.5C14.5257 28.2674 14.8567 27.6994 14.855 27.2336C14.8546 27.0297 14.7897 26.8808 14.672 26.8142C14.6265 26.7883 14.574 26.7754 14.5164 26.7754Z" fill="#212121"/>
</g>
</svg>
