<svg width="20" height="20" viewBox="0 0 20 20" fill="none" xmlns="http://www.w3.org/2000/svg">
<g clip-path="url(#clip0_4756_44748)">
<path d="M7.03223 1H12.9678C13.4655 1 13.9448 1.19754 14.2969 1.54785L18.4512 5.70215V5.70312C18.8017 6.05528 19 6.53426 19 7.03223V12.9678C19 13.4657 18.8018 13.9447 18.4512 14.2969L14.2969 18.4512C13.9447 18.8018 13.4657 19 12.9678 19H7.03223C6.53427 19 6.05431 18.8018 5.70215 18.4512L1.54785 14.2969H1.54883C1.19824 13.9447 1 13.4657 1 12.9678V7.03223C1 6.53426 1.19727 6.05431 1.54785 5.70215L5.70215 1.54785L5.70312 1.54883C6.05528 1.19825 6.53427 1 7.03223 1ZM13.8926 6.46484C13.5287 6.16801 13.0036 6.16807 12.6396 6.46484L12.5645 6.5332L8.81152 10.2842L7.13965 8.61133L7.06445 8.54297C6.70057 8.24613 6.17549 8.24621 5.81152 8.54297L5.73633 8.61133L4.75293 9.59375C4.36532 9.98137 4.36544 10.6103 4.75293 10.998L7.61816 13.8652C8.27742 14.5245 9.34659 14.5245 10.0059 13.8652L14.9512 8.91992C15.3145 8.55656 15.3372 7.9817 15.0195 7.5918L14.9512 7.51562L13.9678 6.5332L13.8926 6.46484Z" fill="#FFBE2E" stroke="black"/>
</g>
<defs>
<clipPath id="clip0_4756_44748">
<rect width="20" height="20" fill="white"/>
</clipPath>
</defs>
</svg>
