<svg width="130" height="100" viewBox="0 0 130 100" fill="none" xmlns="http://www.w3.org/2000/svg">
<circle cx="98" cy="75" r="23.5" fill="#3C2C0B" stroke="#212121"/>
<g clip-path="url(#clip0_4278_8432)">
<mask id="mask0_4278_8432" style="mask-type:luminance" maskUnits="userSpaceOnUse" x="79" y="56" width="38" height="38">
<path d="M116.256 88.2941L111.294 56.7443L79.7445 61.7055L84.7057 93.2553L116.256 88.2941Z" fill="white" stroke="white" stroke-width="0.0625"/>
</mask>
<g mask="url(#mask0_4278_8432)">
<path d="M95.0818 66.9851C94.7768 63.7742 96.4925 60.7741 99.2419 59.34C100.384 58.7445 101.773 59.4628 101.973 60.7349C102.111 61.6112 101.621 62.4624 100.797 62.7914C99.1501 63.4492 98.0585 64.7564 98.1812 66.582" stroke="#FFBE2E" stroke-width="1.2" stroke-miterlimit="10" stroke-linecap="round" stroke-linejoin="round"/>
<path d="M110.282 67.2362C107.164 63.8273 102.057 63.6496 98.6117 66.3479C97.523 67.2005 96.0608 67.4304 94.763 66.9531C90.6555 65.4425 85.8499 67.1791 83.9288 71.3802C82.9593 73.5004 82.581 75.9195 82.9703 78.3952C83.8983 84.2968 88.0687 88.8822 93.381 90.623C95.8594 91.4352 98.5793 90.5546 100.115 88.4463L100.209 88.5105C102.331 89.96 105.147 89.9454 107.223 88.4287C111.725 85.1383 114.273 79.5065 113.347 73.6185C112.958 71.1427 111.855 68.9566 110.282 67.2362Z" stroke="#FFBE2E" stroke-width="1.2" stroke-miterlimit="10" stroke-linecap="round" stroke-linejoin="round"/>
<path d="M89.5014 83.0229C88.6773 81.7438 88.1006 80.2758 87.8493 78.678C87.3579 75.5517 88.2048 72.523 89.9636 70.177C87.4618 71.829 86.017 74.8391 86.5126 77.9915C86.8398 80.0725 87.9524 81.8335 89.5014 83.0229Z" fill="#FFBE2E" stroke="#FFBE2E" stroke-width="1.2"/>
</g>
</g>
<circle cx="32" cy="75" r="23.5" fill="#3C2C0B" stroke="#212121"/>
<g clip-path="url(#clip1_4278_8432)">
<mask id="mask1_4278_8432" style="mask-type:luminance" maskUnits="userSpaceOnUse" x="16" y="61" width="30" height="30">
<path d="M16 61H46V91H16V61Z" fill="white"/>
</mask>
<g mask="url(#mask1_4278_8432)">
<path d="M42.3212 75.043C41.4972 75.6355 40.534 76.4607 39.5619 77.4328L38.4882 78.5679C36.8266 80.43 35.8663 82.0587 36.2632 82.4556C36.7393 82.9316 38.988 81.4548 41.286 79.1569C42.0808 78.362 42.7775 77.573 43.3291 76.8611M30.121 63.6848C29.4139 64.2341 28.6314 64.9258 27.8431 65.714C25.5452 68.012 24.0684 70.2607 24.5444 70.7368C25.0205 71.2129 27.2693 69.736 29.5672 67.4381C30.5362 66.4691 31.3592 65.5088 31.9514 64.6865M37.2409 68.6681C36.2847 69.2379 35.0015 70.2745 33.7025 71.5734C31.4046 73.8713 29.9277 76.1201 30.4038 76.5962C30.8799 77.0723 33.1286 75.5954 35.4266 73.2975C36.7192 72.0049 37.7519 70.7279 38.3235 69.7732M42.5513 90.0694C34.2914 87.9947 22.3148 76.7049 18.1172 67.6958M34.9026 66.6138C40.9855 71.3444 45.5605 78.6085 45.5605 85.3381C45.5605 88.2224 43.2224 90.5605 40.3381 90.5605C33.1572 90.5605 16.4365 73.8399 16.4365 66.6619C16.4365 63.7776 18.7747 61.4395 21.659 61.4395C25.6899 61.4395 29.9121 63.08 33.6668 65.7024L34.9026 66.6138Z" stroke="#FFBE2E" stroke-width="1.125" stroke-miterlimit="10" stroke-linecap="round" stroke-linejoin="round"/>
</g>
</g>
<circle cx="65" cy="24" r="23.5" fill="#3C2C0B" stroke="#212121"/>
<g clip-path="url(#clip2_4278_8432)">
<mask id="mask2_4278_8432" style="mask-type:luminance" maskUnits="userSpaceOnUse" x="45" y="4" width="40" height="40">
<path d="M45.9137 11.8467L77.1534 4.91274L84.0874 36.1525L52.8477 43.0864L45.9137 11.8467Z" fill="white"/>
</mask>
<g mask="url(#mask2_4278_8432)">
<path d="M56.9565 13.7167C58.2329 19.4674 54.572 20.28 55.8485 26.0306L58.6044 38.4472C58.941 39.9636 60.4431 40.92 61.9595 40.5834L74.7727 37.7394C76.2891 37.4028 77.2455 35.9007 76.909 34.3843L74.153 21.9678C72.8766 16.2171 69.2157 17.0297 67.9392 11.279" stroke="#FFBE2E" stroke-width="1.2" stroke-miterlimit="10" stroke-linecap="round" stroke-linejoin="round"/>
<path d="M67.5336 9.44811L67.3305 8.53289C67.2183 8.02744 66.7176 7.70862 66.2121 7.82081L57.0599 9.85224C56.5544 9.96443 56.2356 10.4652 56.3478 10.9706L56.5509 11.8858C56.0455 11.998 55.7267 12.4988 55.8388 13.0042C55.951 13.5097 56.4518 13.8285 56.9572 13.7163L67.9399 11.2786C68.4454 11.1664 68.7642 10.6656 68.652 10.1602C68.5398 9.65475 68.0391 9.33592 67.5336 9.44811ZM67.5336 9.44811L58.3814 11.4796" stroke="#FFBE2E" stroke-width="1.2" stroke-miterlimit="10" stroke-linecap="round" stroke-linejoin="round"/>
<path d="M58.5598 29.5902L60.4355 38.0408C60.5475 38.5455 61.0492 38.8649 61.5539 38.7529L74.3671 35.9089C74.8717 35.7969 75.1912 35.2952 75.0791 34.7905L72.3232 22.374C65.0014 23.9991 65.8816 27.9651 58.5598 29.5902Z" stroke="#FFBE2E" stroke-width="1.2" stroke-miterlimit="10" stroke-linecap="round" stroke-linejoin="round"/>
</g>
</g>
<g opacity="0.5">
<circle cx="70.5" cy="91.5" r="2.5" fill="#978050"/>
<circle cx="31.5" cy="34.5" r="2.5" fill="#212121"/>
<circle cx="63.5" cy="61.5" r="1.5" fill="#978050"/>
<rect x="97.0244" y="25" width="2.37135" height="2.37135" transform="rotate(25.5971 97.0244 25)" fill="#CBC0A8"/>
<circle cx="99.5" cy="43.5" r="1.5" fill="#FFBE2E"/>
<rect x="124" y="80.4785" width="3.6884" height="3.6884" transform="rotate(-42.2204 124 80.4785)" fill="#FFBE2E"/>
<rect y="77.4785" width="3.6884" height="3.6884" transform="rotate(-42.2204 0 77.4785)" fill="#FFBE2E"/>
</g>
<defs>
<clipPath id="clip0_4278_8432">
<rect width="32" height="32" fill="white" transform="translate(79.709 61.6797) rotate(-8.9365)"/>
</clipPath>
<clipPath id="clip1_4278_8432">
<rect width="30" height="30" fill="white" transform="translate(16 61)"/>
</clipPath>
<clipPath id="clip2_4278_8432">
<rect width="32" height="32" fill="white" transform="translate(45.9131 11.8472) rotate(-12.5145)"/>
</clipPath>
</defs>
</svg>
