<svg width="120" height="120" viewBox="0 0 120 120" fill="none" xmlns="http://www.w3.org/2000/svg">
<mask id="mask0_3349_8395" style="mask-type:luminance" maskUnits="userSpaceOnUse" x="0" y="0" width="120" height="121">
<path d="M0 0.000366211H120V120H0V0.000366211Z" fill="white"/>
</mask>
<g mask="url(#mask0_3349_8395)">
<path d="M112.684 59.9996H60.001V7.31635C77.8669 7.33346 95.2828 16.4392 105.153 32.8696C110.266 41.3767 112.694 50.7477 112.684 59.9996Z" stroke="#212121" stroke-width="3.5" stroke-miterlimit="10" stroke-linecap="round" stroke-linejoin="round"/>
<path d="M112.684 59.9997C112.667 77.8659 103.561 95.2818 87.1311 105.152C62.1934 120.137 29.8313 112.067 14.8489 87.1298C-0.135837 62.192 7.93323 29.8302 32.8707 14.8478C41.3781 9.73516 50.7491 7.30657 60.001 7.31641V59.9997H112.684Z" stroke="#212121" stroke-width="3.5" stroke-miterlimit="10" stroke-linecap="round" stroke-linejoin="round"/>
<path d="M12.4746 37.2594L16.5469 37.336C21.2944 37.7077 27.281 41.0358 27.0506 46.4145C26.5552 54.4644 35.362 56.9492 41.6573 54.4205C53.6372 50.1026 51.9649 41.4903 43.9596 33.8862C39.1552 27.6737 46.1304 24.7789 48.4969 19.8589C50.2971 16.7021 50.2891 11.7692 50.5589 8.16779" stroke="#212121" stroke-width="3.5" stroke-miterlimit="10" stroke-linecap="round" stroke-linejoin="round"/>
<path d="M79.0205 109.132C74.9785 104.19 70.261 98.8003 70.5835 92.5428C70.721 89.8749 70.391 87.1946 69.5332 84.6645C69.522 84.6303 69.5103 84.596 69.4983 84.5618C69.0661 83.3088 68.4092 82.1473 67.587 81.1076C65.3166 78.2372 60.4878 70.7611 58.1032 69.6954C53.5573 66.8302 47.3496 68.8807 44.8653 73.5007C42.2766 79.8811 41.8545 89.1082 32.6689 90.1486C30.2025 89.9846 27.4643 89.4755 25.8767 87.3767C22.6892 83.1596 18.571 84.9992 15.0889 87.525" stroke="#212121" stroke-width="3.5" stroke-miterlimit="10" stroke-linecap="round" stroke-linejoin="round"/>
<path d="M87.0015 75.9677C82.8697 75.9993 78.475 72.5341 78.2314 68.2903C78.234 68.2903 78.234 68.2926 78.2366 68.2926C78.1684 66.5795 78.8422 64.9078 80.042 63.6862C81.3268 62.4037 82.2273 61.1774 82.8599 59.9997H99.519C99.5239 60.1481 99.5286 60.2941 99.5286 60.4424C99.7745 66.8568 93.7567 75.6951 87.0015 75.9677Z" stroke="#212121" stroke-width="3.5" stroke-miterlimit="10" stroke-linecap="round" stroke-linejoin="round"/>
<path d="M100.517 59.9996H88.3477C88.265 44.4404 75.5796 31.8062 60.001 31.8062V19.6391C82.2886 19.6391 100.432 37.7314 100.517 59.9996Z" stroke="#212121" stroke-width="3.5" stroke-miterlimit="10" stroke-linecap="round" stroke-linejoin="round"/>
<path d="M88.3477 59.9996H76.1806C76.0976 51.1494 68.8704 43.9733 60.001 43.9733V31.8062C75.5794 31.8062 88.2647 44.4404 88.3477 59.9996Z" stroke="#212121" stroke-width="3.5" stroke-miterlimit="10" stroke-linecap="round" stroke-linejoin="round"/>
<path d="M76.1806 59.9996H60.001V43.9733C68.8707 43.9733 76.0976 51.1494 76.1806 59.9996Z" stroke="#212121" stroke-width="3.51562" stroke-miterlimit="10" stroke-linecap="round" stroke-linejoin="round"/>
<path d="M8.22689 14.9868L6.18432 10.9014C6.13908 10.8107 6.06525 10.7373 5.97479 10.6918L1.88939 8.64903C1.71525 8.56208 1.71525 8.31341 1.88939 8.22645L6.04416 6.14895C6.08986 6.12622 6.12689 6.08919 6.14963 6.04325L8.22689 1.88872C8.31408 1.71458 8.56275 1.71458 8.64994 1.88872L10.7272 6.04325C10.7499 6.08919 10.787 6.12622 10.8327 6.14895L14.9874 8.22645C15.1616 8.31341 15.1616 8.56208 14.9874 8.64903L10.8327 10.7265C10.787 10.7493 10.7499 10.7865 10.7272 10.8322L8.64994 14.9868C8.56275 15.1611 8.31408 15.1611 8.22689 14.9868Z" stroke="#212121" stroke-width="3.5" stroke-miterlimit="10" stroke-linecap="round" stroke-linejoin="round"/>
<path d="M111.352 118.112L109.275 113.957C109.252 113.912 109.215 113.874 109.169 113.852L105.014 111.774C104.84 111.687 104.84 111.438 105.014 111.351L109.169 109.274C109.215 109.251 109.252 109.214 109.275 109.168L111.352 105.014C111.439 104.84 111.688 104.84 111.775 105.014L113.852 109.168C113.875 109.214 113.912 109.251 113.958 109.274L118.112 111.351C118.287 111.438 118.287 111.687 118.112 111.774L113.958 113.852C113.912 113.874 113.875 113.912 113.852 113.957L111.775 118.112C111.688 118.286 111.439 118.286 111.352 118.112Z" stroke="#212121" stroke-width="3.5" stroke-miterlimit="10" stroke-linecap="round" stroke-linejoin="round"/>
<path d="M8.40039 109.668H14.2598" stroke="#212121" stroke-width="3.5" stroke-miterlimit="10" stroke-linecap="round" stroke-linejoin="round"/>
<path d="M11.3301 106.738V112.598" stroke="#212121" stroke-width="3.5" stroke-miterlimit="10" stroke-linecap="round" stroke-linejoin="round"/>
<path d="M104.963 11.2303H110.822" stroke="#212121" stroke-width="3.5" stroke-miterlimit="10" stroke-linecap="round" stroke-linejoin="round"/>
<path d="M107.893 8.30065V14.16" stroke="#212121" stroke-width="3.5" stroke-miterlimit="10" stroke-linecap="round" stroke-linejoin="round"/>
</g>
</svg>
