<svg width="194" height="194" viewBox="0 0 194 194" fill="none" xmlns="http://www.w3.org/2000/svg">
<mask id="mask0_3197_23327" style="mask-type:alpha" maskUnits="userSpaceOnUse" x="0" y="0" width="194" height="194">
<rect width="194" height="194" fill="#D9D9D9"/>
</mask>
<g mask="url(#mask0_3197_23327)">
<path d="M48.4832 124.826C48.451 124.826 48.4182 124.818 48.3889 124.801L28.813 113.322C27.7677 112.715 27.1182 111.586 27.1182 110.376V56.4039C27.1182 56.3001 27.202 56.2163 27.3058 56.2163C27.4089 56.2163 27.4934 56.3001 27.4934 56.4039V110.376C27.4934 111.453 28.0714 112.457 29.0024 112.999L48.5782 124.477C48.6673 124.529 54.2151 127.944 54.1635 128.034C54.1278 128.094 48.5477 124.826 48.4832 124.826Z" fill="#939393"/>
<g opacity="0.1">
<path d="M31.46 159.825L94.5257 123.175L152.085 156.407L89.019 193.056L31.46 159.825Z" fill="black"/>
</g>
<path d="M94.7313 127.206L110.539 118.02L110.517 125.753L94.709 134.94L94.7313 127.206Z" fill="white"/>
<path d="M94.7091 135.127C94.6768 135.127 94.6446 135.119 94.6153 135.102C94.5572 135.069 94.5215 135.006 94.5215 134.94L94.5438 127.206C94.5438 127.139 94.5795 127.078 94.6364 127.044L110.444 117.857C110.503 117.824 110.574 117.824 110.633 117.857C110.691 117.891 110.726 117.953 110.726 118.019L110.705 125.753C110.705 125.82 110.669 125.882 110.611 125.915L94.8035 135.102C94.7742 135.119 94.7413 135.127 94.7091 135.127ZM94.9184 127.314L94.8973 134.614L110.329 125.645L110.351 118.345L94.9184 127.314Z" fill="#373B42"/>
<path d="M114.242 138.47L114.22 146.204L102.325 139.337L102.347 131.603L114.242 138.47Z" fill="white"/>
<path d="M114.22 146.391C114.188 146.391 114.155 146.383 114.126 146.366L102.231 139.499C102.173 139.465 102.138 139.403 102.138 139.336L102.159 131.602C102.159 131.535 102.195 131.473 102.253 131.44C102.312 131.407 102.382 131.406 102.441 131.44L114.335 138.308C114.393 138.341 114.429 138.403 114.429 138.47L114.408 146.204C114.408 146.271 114.372 146.333 114.314 146.366C114.284 146.383 114.252 146.391 114.22 146.391ZM102.513 139.228L114.034 145.88L114.055 138.578L102.535 131.926L102.513 139.228Z" fill="#373B42"/>
<path d="M110.517 125.753L94.7096 134.94L137.052 159.387L152.86 150.2L110.517 125.753ZM94.7318 127.206L103.853 121.906L95.3011 116.968L79.4932 126.155L94.7096 134.94L94.7318 127.206Z" fill="#FFF7E4"/>
<path d="M137.05 159.573C137.018 159.573 136.986 159.565 136.957 159.548L94.6145 135.102C94.6145 135.102 94.6139 135.101 94.6127 135.101L79.3975 126.317C79.3395 126.283 79.3037 126.222 79.3037 126.155C79.3037 126.088 79.3389 126.026 79.3969 125.992L95.2049 116.806C95.2635 116.773 95.3344 116.773 95.393 116.806L103.945 121.743C104.003 121.777 104.039 121.838 104.039 121.905C104.039 121.972 104.003 122.034 103.945 122.067L94.9176 127.314L94.8965 134.614L110.422 125.591C110.48 125.558 110.551 125.558 110.61 125.591L152.952 150.038C153.01 150.071 153.046 150.133 153.046 150.2C153.046 150.267 153.011 150.329 152.953 150.362L137.145 159.549C137.115 159.565 137.083 159.573 137.05 159.573ZM95.0823 134.939L137.05 159.169L152.484 150.2L110.516 125.97L95.0823 134.939ZM79.8659 126.154L94.5219 134.616L94.543 127.205C94.543 127.139 94.5787 127.078 94.6356 127.044L103.477 121.905L95.2992 117.184L79.8659 126.154Z" fill="#373B42"/>
<path d="M82.835 120.337L98.6429 111.151L110.54 118.02L94.7325 127.206L82.835 120.337Z" fill="white"/>
<path d="M94.7307 127.394C94.6984 127.394 94.6662 127.386 94.6369 127.369L82.7393 120.499C82.6813 120.466 82.6455 120.404 82.6455 120.338C82.6455 120.271 82.6807 120.209 82.7387 120.175L98.5467 110.988C98.6053 110.955 98.6762 110.955 98.7348 110.988L110.632 117.858C110.69 117.891 110.726 117.953 110.726 118.019C110.726 118.086 110.69 118.148 110.632 118.182L94.8245 127.369C94.7958 127.385 94.7629 127.394 94.7307 127.394ZM83.2077 120.337L94.7313 126.99L110.165 118.02L98.6416 111.367L83.2077 120.337Z" fill="#373B42"/>
<path d="M94.7318 127.206L94.7095 134.94L82.8125 128.07L82.8342 120.336L94.7318 127.206Z" fill="white"/>
<path d="M94.7082 135.127C94.676 135.127 94.6437 135.119 94.6144 135.102L82.7168 128.232C82.6588 128.199 82.623 128.137 82.623 128.07L82.6447 120.336C82.6447 120.269 82.6805 120.207 82.7385 120.174C82.7972 120.141 82.8675 120.14 82.9261 120.174L94.8237 127.044C94.8817 127.077 94.9175 127.139 94.9175 127.206L94.8952 134.94C94.8952 135.007 94.8595 135.069 94.8014 135.102C94.7727 135.119 94.7405 135.127 94.7082 135.127ZM82.9983 127.963L94.5218 134.616L94.5429 127.314L83.0194 120.661L82.9983 127.963Z" fill="#373B42"/>
<path d="M102.347 131.603L118.155 122.417L130.049 129.283L114.241 138.47L102.347 131.603Z" fill="white"/>
<path d="M114.241 138.658C114.209 138.658 114.176 138.649 114.147 138.632L102.253 131.765C102.195 131.732 102.159 131.67 102.159 131.603C102.159 131.536 102.194 131.474 102.252 131.441L118.06 122.254C118.119 122.221 118.19 122.221 118.249 122.254L130.143 129.122C130.201 129.155 130.236 129.217 130.236 129.283C130.236 129.35 130.201 129.412 130.143 129.446L114.335 138.632C114.306 138.649 114.273 138.658 114.241 138.658ZM102.72 131.603L114.24 138.254L129.674 129.284L118.154 122.633L102.72 131.603Z" fill="#373B42"/>
<path d="M114.242 138.47L130.05 129.283L130.029 137.017L114.221 146.204L114.242 138.47Z" fill="white"/>
<path d="M114.219 146.391C114.187 146.391 114.154 146.383 114.125 146.366C114.067 146.333 114.031 146.271 114.031 146.204L114.053 138.47C114.053 138.403 114.089 138.341 114.146 138.308L129.954 129.121C130.013 129.088 130.084 129.088 130.142 129.121C130.2 129.155 130.236 129.217 130.236 129.284L130.214 137.018C130.214 137.084 130.179 137.146 130.121 137.179L114.313 146.366C114.285 146.383 114.251 146.391 114.219 146.391ZM114.428 138.578L114.407 145.878L129.839 136.909L129.86 129.609L114.428 138.578Z" fill="#373B42"/>
<path d="M137.052 159.386L152.86 150.2L152.851 153.428L137.043 162.614L137.052 159.386Z" fill="#212121"/>
<path d="M137.043 162.802C137.011 162.802 136.979 162.794 136.949 162.777C136.891 162.743 136.855 162.681 136.855 162.614L136.864 159.386C136.864 159.319 136.9 159.258 136.957 159.224L152.766 150.037C152.825 150.004 152.896 150.004 152.954 150.037C153.012 150.071 153.048 150.133 153.048 150.2L153.039 153.429C153.039 153.495 153.003 153.557 152.945 153.59L137.137 162.777C137.108 162.794 137.075 162.802 137.043 162.802ZM137.239 159.494L137.231 162.289L152.663 153.32L152.672 150.526L137.239 159.494Z" fill="#373B42"/>
<path d="M137.051 159.386L137.042 162.615L79.4834 129.383L79.4928 126.155L137.051 159.386Z" fill="#FFBE2E"/>
<path d="M137.043 162.802C137.011 162.802 136.978 162.794 136.949 162.777L79.3907 129.545C79.3326 129.512 79.2969 129.45 79.2969 129.383L79.3057 126.154C79.3057 126.088 79.3414 126.025 79.3995 125.993C79.4581 125.96 79.5285 125.959 79.5871 125.993L137.146 159.225C137.204 159.258 137.239 159.32 137.239 159.387L137.231 162.616C137.231 162.682 137.195 162.745 137.137 162.777C137.107 162.794 137.075 162.802 137.043 162.802ZM79.6715 129.275L136.856 162.291L136.864 159.494L79.6797 126.479L79.6715 129.275Z" fill="#373B42"/>
<path d="M133.752 149.735L149.56 140.548L149.537 148.282L133.729 157.468L133.752 149.735Z" fill="#212121"/>
<path d="M133.729 157.655C133.696 157.655 133.664 157.647 133.635 157.63C133.577 157.596 133.541 157.534 133.541 157.467L133.563 149.733C133.563 149.667 133.599 149.605 133.657 149.572L149.464 140.385C149.523 140.352 149.594 140.352 149.653 140.385C149.711 140.418 149.746 140.48 149.746 140.547L149.725 148.281C149.725 148.348 149.689 148.409 149.632 148.443L133.824 157.63C133.794 157.647 133.761 157.655 133.729 157.655ZM133.938 149.842L133.917 157.141L149.35 148.173L149.371 140.873L133.938 149.842Z" fill="#373B42"/>
<path d="M121.857 142.867L137.665 133.681L149.56 140.548L133.752 149.735L121.857 142.867Z" fill="white"/>
<path d="M133.752 149.921C133.719 149.921 133.687 149.913 133.658 149.896L121.764 143.028C121.706 142.995 121.67 142.933 121.67 142.866C121.67 142.8 121.705 142.737 121.763 142.704L137.571 133.517C137.63 133.484 137.701 133.484 137.759 133.517L149.654 140.385C149.712 140.418 149.748 140.48 149.748 140.547C149.748 140.613 149.713 140.675 149.654 140.709L133.847 149.896C133.817 149.913 133.783 149.921 133.752 149.921ZM122.231 142.866L133.752 149.517L149.185 140.548L137.665 133.897L122.231 142.866Z" fill="#373B42"/>
<path d="M133.751 149.734L133.729 157.468L121.835 150.601L121.857 142.867L133.751 149.734Z" fill="#373B42"/>
<path d="M133.729 157.655C133.697 157.655 133.665 157.647 133.635 157.63L121.741 150.763C121.683 150.729 121.647 150.667 121.647 150.6L121.669 142.866C121.669 142.8 121.705 142.737 121.763 142.704C121.822 142.671 121.892 142.671 121.951 142.705L133.845 149.572C133.903 149.605 133.939 149.668 133.939 149.734L133.917 157.468C133.917 157.535 133.881 157.597 133.823 157.63C133.794 157.647 133.761 157.655 133.729 157.655ZM122.022 150.493L133.543 157.144L133.564 149.842L122.043 143.191L122.022 150.493Z" fill="#373B42"/>
<path d="M137.083 148.424L152.891 139.237L152.882 142.466L137.074 151.652L137.083 148.424Z" fill="#212121"/>
<path d="M137.072 151.84C137.04 151.84 137.008 151.831 136.979 151.814C136.921 151.781 136.885 151.719 136.885 151.651L136.894 148.423C136.894 148.357 136.93 148.295 136.987 148.262L152.795 139.075C152.854 139.041 152.925 139.041 152.983 139.075C153.042 139.108 153.077 139.17 153.077 139.238L153.068 142.466C153.068 142.533 153.032 142.594 152.975 142.628L137.167 151.814C137.137 151.831 137.105 151.84 137.072 151.84ZM137.269 148.532L137.261 151.327L152.693 142.358L152.701 139.564L137.269 148.532Z" fill="#373B42"/>
<path d="M79.5234 115.192L95.3314 106.005L152.89 139.237L137.082 148.424L79.5234 115.192Z" fill="#FFF7E4"/>
<path d="M137.082 148.611C137.049 148.611 137.017 148.603 136.988 148.586L79.4288 115.354C79.3707 115.321 79.335 115.259 79.335 115.193C79.335 115.126 79.3701 115.064 79.4276 115.03L95.2361 105.843C95.2947 105.81 95.3657 105.81 95.4243 105.843L152.983 139.075C153.041 139.108 153.077 139.17 153.077 139.237C153.077 139.304 153.041 139.366 152.983 139.399L137.175 148.586C137.147 148.603 137.114 148.611 137.082 148.611ZM79.8966 115.192L137.082 148.207L152.515 139.237L95.3311 106.222L79.8966 115.192Z" fill="#373B42"/>
<path d="M137.082 148.424L137.074 151.652L133.751 149.734L121.857 142.867L114.241 138.47L102.347 131.603L94.7316 127.206L82.834 120.337L79.5146 118.42L79.524 115.192L137.082 148.424Z" fill="#FFBE2E"/>
<path d="M137.073 151.84C137.041 151.84 137.009 151.832 136.979 151.815L79.421 118.583C79.3629 118.55 79.3271 118.487 79.3271 118.421L79.3359 115.192C79.3359 115.125 79.3717 115.063 79.4297 115.03C79.4884 114.997 79.5587 114.996 79.6173 115.03L137.176 148.262C137.234 148.295 137.27 148.357 137.27 148.425L137.261 151.653C137.261 151.72 137.225 151.782 137.167 151.815C137.138 151.831 137.105 151.84 137.073 151.84ZM79.7024 118.313L136.887 151.328L136.896 148.532L79.7106 115.516L79.7024 118.313Z" fill="#373B42"/>
<path d="M71.841 140.508L87.649 131.321L87.6273 139.055L71.8193 148.242L71.841 140.508Z" fill="white"/>
<path d="M71.8194 148.429C71.7872 148.429 71.7549 148.421 71.7256 148.404C71.6676 148.37 71.6318 148.308 71.6318 148.241L71.6541 140.507C71.6541 140.441 71.6899 140.379 71.7467 140.346L87.5547 131.159C87.6133 131.125 87.6842 131.125 87.7428 131.159C87.8009 131.192 87.8367 131.254 87.8367 131.321L87.815 139.055C87.815 139.122 87.7792 139.184 87.7217 139.217L71.9138 148.404C71.8845 148.421 71.8517 148.429 71.8194 148.429ZM72.0287 140.616L72.0076 147.915L87.4403 138.947L87.4614 131.647L72.0287 140.616Z" fill="#373B42"/>
<path d="M91.3519 151.772L91.3296 159.506L79.4355 152.639L79.4572 144.905L91.3519 151.772Z" fill="white"/>
<path d="M91.3297 159.694C91.2975 159.694 91.2652 159.686 91.2359 159.669L79.3418 152.801C79.2838 152.768 79.248 152.706 79.248 152.639L79.2703 144.905C79.2703 144.838 79.3061 144.776 79.3641 144.743C79.4228 144.71 79.4931 144.709 79.5517 144.743L91.4458 151.611C91.5038 151.644 91.5396 151.706 91.5396 151.773L91.5179 159.507C91.5179 159.574 91.4821 159.636 91.4241 159.669C91.3936 159.686 91.3614 159.694 91.3297 159.694ZM79.6227 152.532L91.1427 159.183L91.1638 151.881L79.6438 145.23L79.6227 152.532Z" fill="#373B42"/>
<path d="M87.6274 139.056L71.8195 148.242L114.162 172.688L129.97 163.501L87.6274 139.056ZM71.8412 140.508L80.9622 135.208L72.4105 130.271L56.6025 139.457L71.8195 148.242L71.8412 140.508Z" fill="#FFF7E4"/>
<path d="M114.162 172.876C114.13 172.876 114.098 172.868 114.068 172.851L56.5098 139.619C56.4518 139.586 56.416 139.524 56.416 139.457C56.416 139.39 56.4512 139.328 56.5092 139.295L72.3172 130.108C72.3758 130.075 72.4467 130.075 72.5053 130.108L81.0571 135.046C81.1152 135.079 81.1509 135.141 81.1509 135.207C81.1509 135.274 81.1157 135.336 81.0583 135.37L72.0299 140.616L72.0088 147.916L87.5341 138.893C87.5928 138.86 87.6637 138.86 87.7223 138.893L130.064 163.339C130.122 163.372 130.158 163.434 130.158 163.501C130.158 163.568 130.123 163.63 130.065 163.663L114.257 172.85C114.227 172.868 114.194 172.876 114.162 172.876ZM72.194 148.242L114.162 172.472L129.596 163.502L87.6279 139.273L72.194 148.242ZM56.9776 139.457L71.6336 147.918L71.6547 140.508C71.6547 140.441 71.6904 140.379 71.7473 140.346L80.5887 135.208L72.411 130.487L56.9776 139.457Z" fill="#373B42"/>
<path d="M59.9443 133.64L75.7523 124.453L87.6492 131.322L71.8413 140.508L59.9443 133.64Z" fill="white"/>
<path d="M71.8401 140.696C71.8078 140.696 71.7756 140.688 71.7462 140.671L59.8487 133.802C59.7906 133.768 59.7549 133.707 59.7549 133.64C59.7549 133.573 59.7901 133.511 59.8481 133.477L75.656 124.291C75.7146 124.257 75.7856 124.257 75.8442 124.291L87.7418 131.16C87.7998 131.193 87.8356 131.255 87.8356 131.322C87.8356 131.389 87.8004 131.451 87.7424 131.484L71.9344 140.671C71.9057 140.687 71.8723 140.696 71.8401 140.696ZM60.3171 133.639L71.8401 140.292L87.2739 131.322L75.751 124.669L60.3171 133.639Z" fill="#373B42"/>
<path d="M71.8411 140.508L71.8194 148.242L59.9219 141.373L59.9442 133.639L71.8411 140.508Z" fill="white"/>
<path d="M71.8195 148.43C71.7873 148.43 71.7551 148.422 71.7257 148.405L59.8282 141.536C59.7701 141.503 59.7344 141.44 59.7344 141.374L59.7561 133.64C59.7561 133.573 59.7918 133.511 59.8499 133.478C59.9085 133.445 59.9788 133.444 60.0375 133.478L71.935 140.348C71.9931 140.381 72.0288 140.443 72.0288 140.51L72.0066 148.244C72.0066 148.311 71.9708 148.373 71.9128 148.406C71.884 148.422 71.8518 148.43 71.8195 148.43ZM60.1096 141.266L71.6331 147.919L71.6542 140.617L60.1307 133.964L60.1096 141.266Z" fill="#373B42"/>
<path d="M79.457 144.905L95.2649 135.719L107.16 142.586L91.3517 151.772L79.457 144.905Z" fill="white"/>
<path d="M91.3512 151.96C91.3189 151.96 91.2867 151.952 91.2574 151.935L79.3633 145.067C79.3053 145.034 79.2695 144.972 79.2695 144.905C79.2695 144.839 79.3047 144.776 79.3622 144.743L95.1701 135.556C95.2287 135.523 95.2996 135.523 95.3583 135.556L107.253 142.424C107.311 142.457 107.347 142.519 107.347 142.586C107.347 142.652 107.312 142.715 107.253 142.748L91.4456 151.935C91.4163 151.952 91.3834 151.96 91.3512 151.96ZM79.8306 144.905L91.3506 151.556L106.784 142.586L95.2639 135.935L79.8306 144.905Z" fill="#373B42"/>
<path d="M91.3514 151.773L107.159 142.586L107.137 150.32L91.3291 159.506L91.3514 151.773Z" fill="white"/>
<path d="M91.3302 159.694C91.2979 159.694 91.2657 159.685 91.2364 159.668C91.1783 159.635 91.1426 159.573 91.1426 159.506L91.1643 151.772C91.1643 151.705 91.2 151.644 91.2575 151.61L107.065 142.424C107.124 142.39 107.195 142.39 107.254 142.424C107.312 142.457 107.347 142.519 107.347 142.586L107.325 150.32C107.325 150.387 107.289 150.448 107.232 150.482L91.424 159.668C91.3953 159.685 91.3618 159.694 91.3302 159.694ZM91.5395 151.88L91.5184 159.18L106.951 150.211L106.972 142.912L91.5395 151.88Z" fill="#373B42"/>
<path d="M114.162 172.688L129.97 163.502L129.96 166.73L114.152 175.917L114.162 172.688Z" fill="#212121"/>
<path d="M114.151 176.105C114.119 176.105 114.087 176.096 114.058 176.079C114 176.046 113.964 175.984 113.964 175.916L113.973 172.688C113.973 172.622 114.009 172.56 114.066 172.527L129.874 163.34C129.933 163.307 130.004 163.307 130.063 163.34C130.121 163.373 130.156 163.436 130.156 163.502L130.148 166.731C130.148 166.798 130.112 166.859 130.054 166.893L114.246 176.079C114.217 176.096 114.184 176.105 114.151 176.105ZM114.348 172.797L114.34 175.592L129.773 166.623L129.781 163.829L114.348 172.797Z" fill="#373B42"/>
<path d="M114.161 172.688L114.151 175.917L56.5928 142.685L56.6016 139.457L114.161 172.688Z" fill="#FFBE2E"/>
<path d="M114.151 176.104C114.119 176.104 114.087 176.096 114.058 176.079L56.4991 142.847C56.441 142.814 56.4053 142.752 56.4053 142.684L56.4147 139.456C56.4147 139.389 56.4504 139.327 56.5085 139.294C56.5671 139.261 56.6374 139.26 56.6961 139.294L114.255 172.526C114.313 172.559 114.348 172.622 114.348 172.689L114.339 175.917C114.339 175.984 114.303 176.046 114.245 176.079C114.215 176.096 114.184 176.104 114.151 176.104ZM56.7799 142.577L113.964 175.592L113.973 172.796L56.7887 139.78L56.7799 142.577Z" fill="#373B42"/>
<path d="M110.861 163.036L126.668 153.85L126.647 161.584L110.839 170.77L110.861 163.036Z" fill="#212121"/>
<path d="M110.839 170.957C110.807 170.957 110.774 170.949 110.745 170.932C110.687 170.899 110.651 170.836 110.651 170.77L110.673 163.036C110.673 162.969 110.709 162.908 110.766 162.874L126.574 153.687C126.633 153.654 126.704 153.654 126.762 153.687C126.82 153.721 126.856 153.783 126.856 153.85L126.834 161.584C126.834 161.65 126.799 161.712 126.741 161.745L110.933 170.932C110.904 170.949 110.871 170.957 110.839 170.957ZM111.048 163.144L111.027 170.444L126.459 161.476L126.48 154.176L111.048 163.144Z" fill="#373B42"/>
<path d="M98.9668 156.17L114.775 146.983L126.669 153.85L110.861 163.037L98.9668 156.17Z" fill="white"/>
<path d="M110.862 163.224C110.829 163.224 110.797 163.216 110.768 163.199L98.8731 156.331C98.8151 156.298 98.7793 156.236 98.7793 156.17C98.7793 156.103 98.8145 156.041 98.8725 156.007L114.68 146.82C114.739 146.787 114.81 146.787 114.869 146.82L126.763 153.688C126.821 153.721 126.857 153.783 126.857 153.85C126.857 153.917 126.822 153.979 126.764 154.012L110.956 163.199C110.927 163.216 110.893 163.224 110.862 163.224ZM99.3409 156.169L110.861 162.82L126.295 153.85L114.774 147.199L99.3409 156.169Z" fill="#373B42"/>
<path d="M110.861 163.037L110.839 170.771L98.9443 163.903L98.9666 156.169L110.861 163.037Z" fill="#373B42"/>
<path d="M110.838 170.958C110.806 170.958 110.774 170.949 110.745 170.932L98.8506 164.065C98.7926 164.031 98.7568 163.969 98.7568 163.902L98.7785 156.169C98.7785 156.102 98.8143 156.04 98.8723 156.007C98.931 155.974 99.0013 155.973 99.0599 156.007L110.954 162.875C111.012 162.908 111.048 162.97 111.048 163.037L111.026 170.771C111.026 170.838 110.99 170.9 110.932 170.933C110.903 170.949 110.871 170.958 110.838 170.958ZM99.1315 163.795L110.651 170.446L110.673 163.144L99.152 156.493L99.1315 163.795Z" fill="#373B42"/>
<path d="M114.192 161.727L130 152.54L129.991 155.769L114.183 164.955L114.192 161.727Z" fill="#212121"/>
<path d="M114.183 165.142C114.15 165.142 114.118 165.134 114.089 165.117C114.031 165.084 113.995 165.021 113.995 164.955L114.004 161.726C114.004 161.659 114.04 161.598 114.097 161.564L129.906 152.378C129.964 152.344 130.035 152.344 130.094 152.378C130.152 152.411 130.188 152.473 130.188 152.541L130.178 155.769C130.178 155.835 130.142 155.897 130.086 155.93L114.278 165.117C114.248 165.134 114.215 165.142 114.183 165.142ZM114.379 161.835L114.371 164.629L129.803 155.661L129.812 152.866L114.379 161.835Z" fill="#373B42"/>
<path d="M56.6328 128.495L72.4407 119.308L130 152.54L114.192 161.726L56.6328 128.495Z" fill="#FFF7E4"/>
<path d="M114.192 161.913C114.16 161.913 114.128 161.905 114.099 161.888L56.5401 128.657C56.482 128.623 56.4463 128.562 56.4463 128.495C56.4463 128.428 56.4815 128.366 56.5395 128.332L72.3474 119.146C72.406 119.112 72.477 119.112 72.5356 119.146L130.095 152.377C130.153 152.411 130.188 152.472 130.188 152.539C130.188 152.606 130.153 152.668 130.095 152.701L114.287 161.888C114.257 161.905 114.225 161.913 114.192 161.913ZM57.0079 128.494L114.192 161.509L129.627 152.54L72.4418 119.524L57.0079 128.494Z" fill="#373B42"/>
<path d="M114.193 161.726L114.183 164.955L110.861 163.036L98.9671 156.169L91.3515 151.772L79.4569 144.905L71.8414 140.508L59.9444 133.64L56.625 131.723L56.6338 128.495L114.193 161.726Z" fill="#FFBE2E"/>
<path d="M114.184 165.141C114.151 165.141 114.119 165.133 114.09 165.116L56.5313 131.884C56.4733 131.851 56.4375 131.788 56.4375 131.722L56.4463 128.494C56.4463 128.427 56.4821 128.365 56.5401 128.332C56.5987 128.299 56.6691 128.298 56.7277 128.332L114.286 161.564C114.344 161.597 114.38 161.66 114.38 161.726L114.371 164.955C114.371 165.022 114.335 165.084 114.277 165.117C114.248 165.133 114.216 165.141 114.184 165.141ZM56.8127 131.614L113.997 164.63L114.005 161.834L56.8209 128.818L56.8127 131.614Z" fill="#373B42"/>
<path d="M48.951 153.811L64.7589 144.624L64.7366 152.358L48.9287 161.545L48.951 153.811Z" fill="#373B42"/>
<path d="M48.9288 161.733C48.8966 161.733 48.8643 161.724 48.835 161.707C48.777 161.674 48.7412 161.612 48.7412 161.545L48.7629 153.811C48.7629 153.744 48.7987 153.683 48.8561 153.649L64.664 144.463C64.7227 144.43 64.7936 144.43 64.8522 144.463C64.9103 144.496 64.946 144.559 64.946 144.625L64.9238 152.359C64.9238 152.426 64.888 152.488 64.8311 152.521L49.0232 161.708C48.9939 161.724 48.9611 161.733 48.9288 161.733ZM49.1381 153.919L49.117 161.219L64.5497 152.25L64.5708 144.951L49.1381 153.919Z" fill="#373B42"/>
<path d="M64.7362 152.358L48.9283 161.545L91.2704 185.991L107.078 176.804L64.7362 152.358ZM48.9506 153.811L58.0716 148.51L49.5198 143.573L33.7119 152.759L48.9283 161.545L48.9506 153.811Z" fill="#FFF7E4"/>
<path d="M91.2705 186.178C91.2382 186.178 91.206 186.17 91.1767 186.153L48.8346 161.707L48.8334 161.706L33.6182 152.922C33.5602 152.888 33.5244 152.827 33.5244 152.76C33.5244 152.693 33.5596 152.631 33.6176 152.597L49.4255 143.411C49.4842 143.378 49.5551 143.378 49.6137 143.411L58.1655 148.348C58.2236 148.382 58.2593 148.443 58.2593 148.51C58.2593 148.577 58.2241 148.639 58.1661 148.672L49.1377 153.919L49.1166 161.219L64.6419 152.196C64.7006 152.163 64.7715 152.163 64.8301 152.196L107.173 176.643C107.231 176.676 107.267 176.738 107.267 176.805C107.267 176.872 107.231 176.934 107.173 176.967L91.3649 186.154C91.3355 186.17 91.3027 186.178 91.2705 186.178ZM49.3024 161.544L91.2705 185.774L106.705 176.805L64.7363 152.575L49.3024 161.544ZM34.086 152.759L48.742 161.221L48.7631 153.81C48.7631 153.743 48.7988 153.682 48.8563 153.648L57.6977 148.51L49.5199 143.789L34.086 152.759Z" fill="#373B42"/>
<path d="M68.4612 165.075L68.4396 172.809L56.5449 165.942L56.5672 158.208L68.4612 165.075Z" fill="#FFF7E4"/>
<path d="M68.4371 172.996C68.4049 172.996 68.3726 172.988 68.3433 172.971L56.4493 166.103C56.3912 166.07 56.3555 166.008 56.3555 165.941L56.3772 158.207C56.3772 158.14 56.4129 158.078 56.471 158.045C56.5296 158.012 56.5999 158.012 56.6586 158.046L68.5526 164.913C68.6107 164.947 68.6464 165.009 68.6464 165.076L68.6247 172.81C68.6247 172.876 68.589 172.939 68.5309 172.971C68.5016 172.987 68.4694 172.996 68.4371 172.996ZM56.7307 165.833L68.2507 172.484L68.2718 165.182L56.7518 158.531L56.7307 165.833Z" fill="#373B42"/>
<path d="M37.0537 146.942L52.8616 137.755L64.7592 144.624L48.9513 153.811L37.0537 146.942Z" fill="white"/>
<path d="M48.9508 153.998C48.9186 153.998 48.8863 153.99 48.857 153.973L36.96 147.104C36.902 147.071 36.8662 147.009 36.8662 146.942C36.8662 146.876 36.9014 146.813 36.9588 146.78L52.7668 137.593C52.8254 137.559 52.8963 137.559 52.955 137.593L64.8519 144.463C64.91 144.496 64.9457 144.558 64.9457 144.624C64.9457 144.691 64.9106 144.753 64.8525 144.787L49.0446 153.973C49.0159 153.989 48.983 153.998 48.9508 153.998ZM37.4279 146.941L48.9514 153.594L64.3853 144.624L52.8617 137.972L37.4279 146.941Z" fill="#373B42"/>
<path d="M48.9515 153.811L48.9292 161.545L37.0322 154.676L37.0539 146.942L48.9515 153.811Z" fill="#FFF7E4"/>
<path d="M48.9283 161.733C48.8961 161.733 48.8638 161.725 48.8345 161.708L36.9376 154.838C36.8795 154.805 36.8438 154.743 36.8438 154.676L36.866 146.942C36.866 146.875 36.9018 146.813 36.9598 146.78C37.0185 146.747 37.0888 146.747 37.1474 146.781L49.0444 153.649C49.1025 153.683 49.1382 153.745 49.1382 153.812L49.1165 161.546C49.1165 161.613 49.0808 161.675 49.0227 161.708C48.9928 161.724 48.9606 161.733 48.9283 161.733ZM37.2184 154.568L48.7413 161.221L48.7624 153.918L37.2389 147.266L37.2184 154.568Z" fill="#373B42"/>
<path d="M56.5674 158.208L72.3753 149.021L84.2694 155.888L68.4614 165.075L56.5674 158.208Z" fill="white"/>
<path d="M68.4606 165.262C68.4283 165.262 68.3961 165.254 68.3668 165.237L56.4727 158.369C56.4147 158.336 56.3789 158.274 56.3789 158.208C56.3789 158.141 56.4141 158.079 56.4721 158.045L72.28 148.859C72.3387 148.825 72.4096 148.825 72.4682 148.859L84.3623 155.726C84.4203 155.759 84.4561 155.821 84.4561 155.888C84.4561 155.955 84.4209 156.017 84.3629 156.05L68.555 165.237C68.5256 165.254 68.4928 165.262 68.4606 165.262ZM56.94 158.207L68.46 164.858L83.8939 155.888L72.3733 149.237L56.94 158.207Z" fill="#373B42"/>
<path d="M68.4621 165.075L84.2701 155.889L84.2484 163.623L68.4404 172.809L68.4621 165.075Z" fill="#373B42"/>
<path d="M68.4386 172.996C68.4063 172.996 68.3741 172.988 68.3448 172.971C68.2867 172.938 68.251 172.876 68.251 172.809L68.2727 165.075C68.2727 165.008 68.3084 164.946 68.3659 164.913L84.1738 155.726C84.2324 155.693 84.3034 155.693 84.362 155.726C84.42 155.76 84.4558 155.822 84.4558 155.889L84.4341 163.623C84.4341 163.689 84.3984 163.75 84.3409 163.784L68.533 172.97C68.5042 172.987 68.4708 172.996 68.4386 172.996ZM68.6479 165.183L68.6268 172.483L84.0595 163.515L84.0806 156.215L68.6479 165.183Z" fill="#373B42"/>
<path d="M91.2715 185.991L107.079 176.805L107.071 180.033L91.2627 189.22L91.2715 185.991Z" fill="#212121"/>
<path d="M91.2628 189.407C91.2306 189.407 91.1983 189.399 91.169 189.382C91.111 189.348 91.0752 189.286 91.0752 189.219L91.0846 185.991C91.0846 185.924 91.1203 185.863 91.1772 185.829L106.985 176.643C107.044 176.609 107.115 176.609 107.173 176.643C107.231 176.676 107.267 176.738 107.267 176.806L107.258 180.034C107.258 180.101 107.222 180.162 107.165 180.195L91.3566 189.382C91.3279 189.399 91.295 189.407 91.2628 189.407ZM91.4598 186.099L91.451 188.893L106.884 179.925L106.892 177.131L91.4598 186.099Z" fill="#373B42"/>
<path d="M91.2719 185.991L91.2632 189.22L33.7041 155.988L33.7135 152.76L91.2719 185.991Z" fill="#FFBE2E"/>
<path d="M91.2617 189.407C91.2294 189.407 91.1972 189.398 91.1679 189.381L33.6094 156.15C33.5514 156.116 33.5156 156.054 33.5156 155.987L33.5244 152.759C33.5244 152.692 33.5602 152.63 33.6182 152.597C33.6768 152.564 33.7472 152.564 33.8058 152.598L91.3649 185.829C91.4229 185.863 91.4587 185.925 91.4587 185.992L91.4493 189.22C91.4493 189.287 91.4135 189.349 91.3555 189.382C91.3262 189.398 91.2939 189.407 91.2617 189.407ZM33.8902 155.88L91.0747 188.895L91.0835 186.098L33.8985 153.082L33.8902 155.88Z" fill="#373B42"/>
<path d="M87.9715 176.339L103.779 167.152L103.757 174.886L87.9492 184.073L87.9715 176.339Z" fill="#212121"/>
<path d="M87.9493 184.26C87.9171 184.26 87.8848 184.252 87.8555 184.235C87.7975 184.201 87.7617 184.139 87.7617 184.072L87.7834 176.338C87.7834 176.272 87.8192 176.211 87.8766 176.177L103.685 166.99C103.743 166.956 103.814 166.956 103.873 166.99C103.931 167.023 103.967 167.085 103.967 167.152L103.944 174.886C103.944 174.953 103.909 175.014 103.852 175.048L88.0437 184.235C88.0144 184.252 87.9816 184.26 87.9493 184.26ZM88.1586 176.447L88.1375 183.746L103.57 174.778L103.591 167.478L88.1586 176.447Z" fill="#373B42"/>
<path d="M76.0771 169.472L91.8851 160.286L103.78 167.153L87.9718 176.339L76.0771 169.472Z" fill="white"/>
<path d="M87.9703 176.527C87.9381 176.527 87.9058 176.519 87.8765 176.502L75.9825 169.634C75.9244 169.601 75.8887 169.539 75.8887 169.472C75.8887 169.405 75.9239 169.343 75.9819 169.31L91.7898 160.123C91.8484 160.09 91.9194 160.09 91.978 160.123L103.873 166.991C103.931 167.024 103.966 167.086 103.966 167.152C103.966 167.219 103.931 167.281 103.873 167.315L88.0653 176.502C88.036 176.518 88.0026 176.527 87.9703 176.527ZM76.4503 169.472L87.9709 176.123L103.405 167.153L91.8848 160.502L76.4503 169.472Z" fill="#373B42"/>
<path d="M87.971 176.339L87.9487 184.073L76.0547 177.206L76.0764 169.472L87.971 176.339Z" fill="#FFF7E4"/>
<path d="M87.9498 184.26C87.9176 184.26 87.8853 184.252 87.856 184.235L75.962 177.367C75.9039 177.334 75.8682 177.272 75.8682 177.205L75.8898 169.471C75.8898 169.404 75.9256 169.342 75.9837 169.308C76.0423 169.276 76.1126 169.275 76.1713 169.309L88.0653 176.177C88.1233 176.21 88.1591 176.272 88.1591 176.339L88.1368 184.073C88.1368 184.14 88.1011 184.202 88.043 184.235C88.0143 184.252 87.9821 184.26 87.9498 184.26ZM76.2428 177.098L87.7634 183.749L87.7845 176.447L76.2639 169.796L76.2428 177.098Z" fill="#373B42"/>
<path d="M91.3027 175.029L107.111 165.842L107.102 169.07L91.2939 178.257L91.3027 175.029Z" fill="#212121"/>
<path d="M91.2931 178.444C91.2608 178.444 91.2286 178.436 91.1993 178.419C91.1412 178.385 91.1055 178.323 91.1055 178.256L91.1149 175.027C91.1149 174.961 91.1506 174.899 91.2075 174.866L107.015 165.679C107.074 165.646 107.145 165.646 107.204 165.679C107.262 165.713 107.297 165.775 107.297 165.842L107.289 169.07C107.289 169.137 107.253 169.199 107.195 169.232L91.3869 178.419C91.3582 178.436 91.3253 178.444 91.2931 178.444ZM91.4901 175.136L91.4813 177.931L106.915 168.962L106.923 166.168L91.4901 175.136Z" fill="#373B42"/>
<path d="M33.7432 141.798L49.5511 132.611L107.11 165.842L91.3016 175.029L33.7432 141.798Z" fill="#FFF7E4"/>
<path d="M91.3007 175.216C91.2685 175.216 91.2363 175.207 91.2069 175.19L33.6485 141.959C33.5905 141.925 33.5547 141.864 33.5547 141.797C33.5547 141.73 33.5899 141.668 33.6479 141.635L49.4558 132.448C49.5145 132.414 49.5854 132.414 49.644 132.448L107.202 165.68C107.261 165.713 107.296 165.774 107.296 165.841C107.296 165.908 107.261 165.97 107.204 166.004L91.3957 175.19C91.3658 175.207 91.333 175.216 91.3007 175.216ZM34.1163 141.796L91.3007 174.812L106.735 165.842L49.5502 132.827L34.1163 141.796Z" fill="#373B42"/>
<path d="M91.3022 175.028L91.2934 178.256L87.9711 176.338L76.0764 169.471L68.4609 165.074L56.5669 158.207L48.9513 153.81L37.0538 146.941L33.7344 145.025L33.7438 141.796L91.3022 175.028Z" fill="#FFBE2E"/>
<path d="M91.2929 178.444C91.2607 178.444 91.2285 178.436 91.1991 178.419L33.6407 145.187C33.5826 145.154 33.5469 145.091 33.5469 145.024L33.5563 141.795C33.5563 141.729 33.592 141.667 33.6501 141.634C33.7087 141.601 33.779 141.6 33.8377 141.634L91.3961 174.866C91.4542 174.899 91.4899 174.961 91.4899 175.029L91.4805 178.257C91.4805 178.324 91.4448 178.386 91.3867 178.419C91.3574 178.436 91.3252 178.444 91.2929 178.444ZM33.9221 144.917L91.1065 177.933L91.1153 175.136L33.9309 142.121L33.9221 144.917Z" fill="#373B42"/>
<path d="M51.8076 92.8407L94.4852 117.642L137.253 93.1759L94.772 68.0352L51.8076 92.8407Z" fill="#978050"/>
<path d="M94.4852 117.816C94.4553 117.816 94.4247 117.808 94.3976 117.793L51.7201 92.9912C51.6664 92.9599 51.6338 92.9025 51.6338 92.8403C51.6338 92.7785 51.667 92.7211 51.7207 92.6902L94.6849 67.8847C94.7399 67.8531 94.8065 67.8538 94.8602 67.8854L137.341 93.0262C137.395 93.0578 137.428 93.1152 137.427 93.1773C137.426 93.2391 137.393 93.2961 137.339 93.3268L94.5714 117.793C94.545 117.808 94.5151 117.816 94.4852 117.816ZM52.1548 92.8411L94.4858 117.441L136.907 93.1736L94.7705 68.2366L52.1548 92.8411Z" fill="#383C43"/>
<path d="M51.8141 92.84L39.2285 80.8219L82.1928 56.0166L94.7784 68.0348L51.8141 92.84Z" fill="#FFF7E4"/>
<path d="M51.8146 93.0141C51.7712 93.0141 51.7277 92.9978 51.6943 92.9659L39.1084 80.9475C39.0689 80.9098 39.0492 80.8555 39.056 80.8011C39.0621 80.7468 39.094 80.6985 39.1416 80.6714L82.1064 55.8662C82.173 55.8278 82.2572 55.837 82.3136 55.891L94.8989 67.9094C94.9384 67.947 94.958 68.0015 94.9513 68.0558C94.9452 68.1101 94.9132 68.1584 94.8657 68.1855L51.9015 92.9907C51.8744 93.0064 51.8444 93.0141 51.8146 93.0141ZM39.5167 80.8565L51.8404 92.6246L94.4907 68.0004L82.1676 56.2323L39.5167 80.8565Z" fill="#383C43"/>
<path d="M137.256 93.1763L149.686 81.3067L107.21 56.1509L94.7803 68.0203L137.256 93.1763Z" fill="#FFF7E4"/>
<path d="M137.254 93.3497C137.224 93.3497 137.193 93.3419 137.166 93.3255L94.6899 68.1695C94.643 68.1416 94.6117 68.0934 94.6056 68.0394C94.5995 67.9854 94.6185 67.9314 94.6579 67.894L107.088 56.0247C107.144 55.9697 107.23 55.9609 107.296 56.0006L149.773 81.1563C149.819 81.1842 149.851 81.2324 149.857 81.2864C149.863 81.3404 149.844 81.3944 149.805 81.4318L137.375 93.3015C137.341 93.3334 137.298 93.3497 137.254 93.3497ZM95.0641 67.9872L137.23 92.9592L149.398 81.3387L107.232 56.3672L95.0641 67.9872Z" fill="#383C43"/>
<path d="M94.7781 68.019L94.4902 117.639L137.254 93.175L94.7781 68.019Z" fill="#978050"/>
<path d="M94.4913 117.815C94.4608 117.815 94.4308 117.807 94.4037 117.791C94.35 117.76 94.3168 117.702 94.3174 117.64L94.6054 68.0194C94.6061 67.9573 94.6394 67.8999 94.6937 67.869C94.748 67.8385 94.8146 67.8395 94.8676 67.8707L137.344 93.0267C137.398 93.0583 137.43 93.116 137.43 93.1779C137.429 93.2397 137.396 93.2967 137.342 93.3274L94.5775 117.792C94.5511 117.807 94.5212 117.815 94.4913 117.815ZM94.9512 68.3244L94.6673 117.34L136.91 93.1737L94.9512 68.3244Z" fill="#383C43"/>
<path d="M93.6788 113.834L88.3872 110.758C88.233 110.671 88.1251 110.51 88.0718 110.282L87.9375 109.691C89.3275 109.731 90.8319 109.496 92.4165 108.979L93.3903 113.371C93.4038 113.431 93.4237 113.491 93.4442 113.538C93.4642 113.579 93.4777 113.612 93.4982 113.646C93.5386 113.706 93.5785 113.753 93.619 113.786C93.6389 113.807 93.6588 113.82 93.6788 113.834Z" fill="#212121"/>
<path d="M93.6775 114.021C93.6459 114.021 93.6136 114.013 93.5837 113.996L88.2922 110.92C88.094 110.808 87.9533 110.601 87.8888 110.324L87.7534 109.732C87.7411 109.675 87.7551 109.616 87.7915 109.571C87.8278 109.527 87.873 109.497 87.9416 109.503C89.3322 109.542 90.8072 109.306 92.3579 108.8C92.4059 108.784 92.4634 108.79 92.5085 108.815C92.5549 108.842 92.5871 108.886 92.5988 108.937L93.5732 113.329C93.5843 113.378 93.6002 113.427 93.6166 113.465L93.6347 113.503C93.643 113.52 93.6494 113.535 93.6588 113.551C93.6893 113.596 93.7198 113.627 93.7385 113.643L93.7819 113.677C93.8657 113.733 93.8909 113.846 93.8376 113.932C93.8012 113.989 93.7403 114.021 93.6775 114.021ZM88.172 109.882L88.254 110.239C88.2945 110.414 88.3707 110.533 88.4786 110.595L93.1892 113.333L92.277 109.219C90.8711 109.659 89.5163 109.881 88.2417 109.881C88.2189 109.882 88.1954 109.882 88.172 109.882Z" fill="#373B42"/>
<path d="M118.036 71.6534C117.889 71.5795 117.7 71.566 117.492 71.6334L113.181 73.01C112.825 71.3649 112.261 69.9409 111.502 68.759L112.173 68.5444C112.395 68.4705 112.597 68.4905 112.751 68.5778L118.036 71.6534Z" fill="#212121"/>
<path d="M113.181 73.1984C113.148 73.1984 113.115 73.1902 113.087 73.1732C113.04 73.1468 113.008 73.1022 112.998 73.0506C112.648 71.4361 112.092 70.0261 111.344 68.8612C111.313 68.812 111.306 68.751 111.326 68.6965C111.346 68.6414 111.39 68.5992 111.445 68.581L112.116 68.3664C112.376 68.2803 112.635 68.2978 112.843 68.4157L118.131 71.4924C118.218 71.5434 118.249 71.6548 118.201 71.7433C118.154 71.833 118.044 71.8676 117.953 71.8219C117.841 71.7667 117.702 71.7638 117.551 71.8125L113.238 73.1896C113.219 73.1955 113.199 73.1984 113.181 73.1984ZM111.788 68.8648C112.465 69.9763 112.979 71.2878 113.319 72.7698L117.362 71.4789L112.656 68.7411C112.544 68.6766 112.391 68.6701 112.233 68.7229L111.788 68.8648Z" fill="#373B42"/>
<path d="M112.926 60.4591L110.723 59.1969L105.397 56.1079L107.606 57.3701L112.926 60.4591Z" fill="white"/>
<path d="M112.925 60.6468C112.893 60.6468 112.861 60.6386 112.831 60.6216L110.629 59.3594L105.303 56.2698C105.213 56.2176 105.182 56.1039 105.234 56.0142C105.286 55.9245 105.399 55.8946 105.49 55.9444L107.699 57.2072L113.019 60.2968C113.108 60.349 113.138 60.4627 113.087 60.5524C113.052 60.6128 112.989 60.6468 112.925 60.6468Z" fill="#373B42"/>
<path d="M79.1735 113.841L73.8549 110.745C73.4522 110.523 73.3783 109.858 73.6802 109.147L76.0376 103.499C75.7691 103.176 75.514 102.827 75.2789 102.458L78.9255 101.29C79.3822 103.452 80.2147 105.232 81.3567 106.588L78.9994 112.236C78.6968 112.948 78.7707 113.619 79.1735 113.841Z" fill="#212121"/>
<path d="M79.1734 114.028C79.1429 114.028 79.1118 114.02 79.0831 114.005C79.072 113.999 79.062 113.994 79.0515 113.987L73.7599 110.906C73.2698 110.637 73.1642 109.883 73.5066 109.073L75.82 103.531C75.5702 103.223 75.3346 102.897 75.1194 102.559C75.0878 102.509 75.0813 102.449 75.1012 102.394C75.1212 102.34 75.1651 102.298 75.2208 102.279L78.8674 101.111C78.9172 101.095 78.9723 101.101 79.0186 101.127C79.0638 101.154 79.0972 101.199 79.1072 101.251C79.5521 103.355 80.3565 105.109 81.4991 106.467C81.5442 106.521 81.5554 106.595 81.5284 106.66L79.1711 112.308C78.9172 112.906 78.9506 113.483 79.2455 113.666L79.2678 113.679C79.3563 113.731 79.3874 113.843 79.3364 113.933C79.3024 113.994 79.2385 114.028 79.1734 114.028ZM75.5697 102.561C75.7608 102.846 75.9654 103.12 76.1817 103.379C76.2263 103.433 76.2374 103.507 76.2104 103.572L73.8531 109.22C73.5963 109.826 73.6356 110.411 73.9451 110.581L78.644 113.316C78.5907 112.986 78.6493 112.582 78.8263 112.163L81.1397 106.621C80.0323 105.273 79.2408 103.563 78.7859 101.532L75.5697 102.561Z" fill="#373B42"/>
<path d="M73.6741 98.2402C73.667 98.2536 73.667 98.2736 73.667 98.2871V98.4817C73.6471 98.4078 73.6266 98.3339 73.6131 98.2536C73.6066 98.2337 73.6066 98.2202 73.5996 98.1997L73.6741 98.2402Z" fill="white"/>
<path d="M73.6663 98.6698C73.583 98.6698 73.5074 98.6135 73.4857 98.5309C73.4617 98.4417 73.4417 98.3661 73.4277 98.2846C73.4042 98.2113 73.4236 98.1187 73.4828 98.0695C73.542 98.0202 73.6217 97.9997 73.6886 98.0361L73.7624 98.0765C73.8398 98.1187 73.8767 98.2084 73.8539 98.2905V98.4828C73.8539 98.5766 73.7841 98.6563 73.6909 98.6686C73.6821 98.6692 73.6745 98.6698 73.6663 98.6698Z" fill="#373B42"/>
<path d="M73.6682 98.2878V98.4825C73.6483 98.4086 73.6277 98.3347 73.6143 98.2544L73.6682 98.2878Z" fill="white"/>
<path d="M73.6668 98.67C73.5835 98.67 73.5079 98.6137 73.4862 98.531C73.4622 98.4419 73.4423 98.3663 73.4282 98.2848C73.4165 98.2121 73.4481 98.1394 73.5097 98.0984C73.5707 98.0579 73.6504 98.0562 73.7125 98.0948L73.7659 98.1283C73.821 98.1623 73.8544 98.2221 73.8544 98.2871V98.4818C73.8544 98.5756 73.7846 98.6553 73.692 98.6676C73.6826 98.6694 73.675 98.67 73.6668 98.67Z" fill="#373B42"/>
<path d="M110.723 59.1972C110.488 59.0694 110.179 59.1099 109.87 59.2846C109.648 59.4124 109.427 59.6135 109.225 59.8691L105.511 64.7444C103.758 64.4425 101.797 64.6166 99.689 65.3289L98.8359 61.5141C99.2991 61.5276 99.7493 61.5816 100.186 61.6554L103.906 56.7801C104.108 56.518 104.329 56.3234 104.551 56.1956C104.86 56.0144 105.169 55.974 105.397 56.1082L110.723 59.1972Z" fill="#373B42"/>
<path d="M99.6887 65.5157C99.6565 65.5157 99.6248 65.5075 99.5967 65.4917C99.5504 65.4659 99.5175 65.4213 99.5058 65.3697L98.6528 61.5555C98.6405 61.4986 98.6545 61.44 98.6915 61.3955C98.7272 61.3509 98.7765 61.3298 98.841 61.3274C99.2379 61.3392 99.6518 61.3802 100.105 61.4529L103.756 56.6667C103.967 56.3929 104.203 56.1801 104.457 56.0341C104.832 55.8137 105.21 55.782 105.492 55.9479L110.815 59.0364C110.904 59.0879 110.936 59.2005 110.885 59.2902C110.835 59.3805 110.724 59.4121 110.632 59.3635C110.464 59.2726 110.22 59.3037 109.961 59.4497C109.763 59.5634 109.558 59.7492 109.371 59.9867L105.66 64.8597C105.618 64.9154 105.551 64.9435 105.478 64.9312C103.713 64.6263 101.784 64.8198 99.7479 65.5081C99.7292 65.5122 99.7092 65.5157 99.6887 65.5157ZM99.0726 61.7115L99.8265 65.0848C101.807 64.4446 103.691 64.2617 105.431 64.5402L109.075 59.7545C109.294 59.4772 109.536 59.2597 109.776 59.1214C109.859 59.0745 109.941 59.0363 110.022 59.007L105.303 56.2692C105.139 56.1742 104.902 56.2047 104.646 56.356C104.436 56.4767 104.231 56.662 104.054 56.893L100.334 61.7683C100.292 61.8234 100.227 61.851 100.154 61.8393C99.7679 61.7742 99.4114 61.732 99.0726 61.7115Z" fill="#212121"/>
<path d="M98.3867 60.4529C98.3398 60.4259 98.2929 60.406 98.2454 60.3925C98.2389 60.3925 98.2389 60.3925 98.2319 60.3925C98.178 60.379 98.1246 60.3726 98.0707 60.3726C97.903 60.3726 97.7213 60.4265 97.5337 60.5338L94.8744 62.0786H94.8609L94.4781 62.3002L94.4241 62.3336C93.8602 62.656 93.37 63.3877 93.2557 64.0795L92.3025 69.5933C90.2007 71.3257 88.2262 73.421 86.4868 75.7244L82.7529 75.1534C82.5582 75.1264 82.3366 75.1868 82.115 75.3146C81.8061 75.4893 81.4971 75.8053 81.269 76.201L79.0799 80.0023C78.6836 80.6941 78.6098 81.4392 78.9187 81.8086L81.296 84.7229C80.168 87.3822 79.342 90.1288 78.8988 92.8015L74.5945 96.4012C74.527 96.4616 74.4602 96.522 74.3998 96.5894C74.3394 96.6562 74.2791 96.7236 74.2187 96.7975C74.1647 96.8714 74.1114 96.9517 74.0645 97.0256C74.0105 97.1059 73.9707 97.1932 73.9302 97.2741C73.8968 97.3345 73.8698 97.3949 73.8499 97.4623C73.83 97.4957 73.8165 97.5362 73.803 97.5696C73.7831 97.63 73.7626 97.6839 73.7491 97.7443C73.7291 97.8246 73.7157 97.8985 73.7022 97.9724C73.6887 98.0597 73.6752 98.1535 73.6752 98.2409L73.6013 98.2004C73.6084 98.2204 73.6084 98.2338 73.6148 98.2544C73.6283 98.3347 73.6482 98.4085 73.6688 98.4824L73.6758 101.86C73.6758 101.928 73.6822 101.995 73.6957 102.055C73.6957 102.069 73.6957 102.082 73.7028 102.096C73.7028 102.122 73.7092 102.142 73.7162 102.163V102.169C73.7162 102.196 73.7233 102.223 73.7432 102.25C73.7432 102.257 73.7502 102.257 73.7502 102.264C73.7502 102.297 73.7637 102.331 73.7907 102.365C73.7907 102.378 73.7977 102.392 73.8106 102.398V102.404C73.8241 102.431 73.844 102.465 73.8646 102.485L73.8845 102.505C73.8845 102.519 73.8909 102.519 73.898 102.519C73.905 102.526 73.905 102.526 73.9115 102.532L73.925 102.546C73.9449 102.573 73.9719 102.593 73.9988 102.606C74.0053 102.62 74.0188 102.626 74.0322 102.633L68.7066 99.5441C68.4915 99.4163 68.3572 99.1478 68.3572 98.765L68.3438 95.1923C68.3438 94.5545 68.733 93.7689 69.2706 93.3122L73.582 89.7125C74.0252 87.0327 74.8512 84.2861 75.9728 81.6339L73.5955 78.7125C73.293 78.3496 73.3604 77.6045 73.7631 76.9127L75.9522 73.1114C76.1803 72.7151 76.4828 72.3997 76.7918 72.2185C77.0134 72.0907 77.235 72.0303 77.4367 72.0573L81.1705 72.6348C82.91 70.3249 84.8775 68.2361 86.9863 66.4966L87.9331 60.9899C88.0538 60.2917 88.5375 59.5659 89.1015 59.237L92.2174 57.4372C92.5463 57.249 92.8489 57.229 93.0705 57.3562L98.3867 60.4529Z" fill="#212121"/>
<path d="M74.0304 102.82C74.0034 102.82 73.9764 102.814 73.9501 102.802C73.9466 102.799 73.9413 102.797 73.9372 102.794L68.6116 99.7055C68.3249 99.5355 68.1678 99.2013 68.1678 98.7645L68.1543 95.193C68.1543 94.4983 68.5629 93.6664 69.1468 93.1687L73.4066 89.613C73.8422 87.0135 74.6319 84.3402 75.754 81.6645L73.4476 78.8305C73.0947 78.4066 73.1563 77.5788 73.6001 76.8179L75.7886 73.0177C76.0301 72.5991 76.352 72.2574 76.6961 72.0569C76.9605 71.9044 77.2261 71.8411 77.4594 71.8716L81.0866 72.4326C82.8307 70.1298 84.7566 68.0996 86.8114 66.3971L87.7459 60.9589C87.8755 60.2068 88.3938 59.4323 89.0046 59.0759L92.1212 57.2761C92.5034 57.0574 92.8716 57.0292 93.1606 57.1946L98.481 60.2912C98.5701 60.3434 98.6 60.4577 98.5484 60.5468C98.4962 60.6365 98.3801 60.6664 98.2928 60.6148C98.2652 60.599 98.2377 60.5867 98.2113 60.5779C98.2019 60.5773 98.1919 60.5755 98.1855 60.5738C98.0061 60.5298 97.8284 60.5802 97.6262 60.6957L94.9681 62.2399C94.9534 62.2481 94.9376 62.2546 94.9212 62.2593L94.5237 62.4914C93.9984 62.7916 93.5458 63.4705 93.4403 64.1095L92.4859 69.6245C92.4782 69.669 92.4554 69.7089 92.4208 69.737C90.3489 71.4448 88.4026 73.4967 86.6356 75.8365C86.5951 75.8916 86.5277 75.9197 86.4579 75.9086L82.724 75.3376C82.5833 75.3176 82.401 75.3651 82.207 75.4759C81.9185 75.6395 81.6359 75.9373 81.4302 76.2938L79.2411 80.0945C78.8852 80.7159 78.8096 81.386 79.0611 81.6874L81.4395 84.6034C81.4835 84.6573 81.4946 84.7312 81.4671 84.7951C80.3204 87.4995 79.5172 90.2034 79.0828 92.8316C79.0757 92.8761 79.0523 92.916 79.0177 92.9447L74.7128 96.5444C74.6559 96.596 74.5938 96.6516 74.5369 96.7144C74.4712 96.7882 74.4156 96.8492 74.3604 96.9161C74.3165 96.9776 74.2655 97.055 74.2192 97.1265C74.1781 97.1887 74.1465 97.2532 74.1166 97.3147C74.1166 97.3153 74.0955 97.3569 74.0955 97.3575C74.0626 97.4173 74.0421 97.4654 74.0274 97.5146C74.0222 97.5305 74.0157 97.5451 74.0075 97.5592C73.997 97.5762 73.9905 97.5961 73.9841 97.6143L73.7906 97.5973L73.9677 97.6583C73.953 97.7011 73.9383 97.7415 73.9284 97.7855C73.9096 97.8646 73.8961 97.9344 73.8838 98.0047C73.8727 98.078 73.8598 98.1619 73.8598 98.2404C73.8598 98.2803 73.8475 98.3184 73.8246 98.35C73.8305 98.3741 73.8369 98.3969 73.8428 98.4192C73.8469 98.4351 73.8527 98.4655 73.8527 98.482L73.8592 101.86C73.8592 101.916 73.8645 101.968 73.8744 102.014C73.8867 102.039 73.8862 102.068 73.8862 102.096C73.8914 102.112 73.8973 102.136 73.8985 102.155C73.919 102.186 73.9319 102.225 73.9331 102.26C73.9618 102.287 73.9811 102.321 73.9893 102.358C73.9964 102.363 74.004 102.368 74.0105 102.373L74.011 102.372C74.0145 102.375 74.0175 102.379 74.0204 102.382C74.0228 102.384 74.0239 102.386 74.0257 102.387C74.0321 102.394 74.0661 102.428 74.072 102.436C74.0896 102.445 74.1078 102.457 74.123 102.472C74.2092 102.523 74.2403 102.633 74.1939 102.721C74.1629 102.783 74.0978 102.82 74.0304 102.82ZM73.9923 102.362C73.994 102.37 73.9952 102.377 73.9952 102.385L74.0087 102.375C74.0034 102.37 73.9981 102.366 73.9923 102.362ZM73.9354 102.262C73.9354 102.263 73.9354 102.263 73.9354 102.263C73.9506 102.283 73.9618 102.3 73.9682 102.318C73.9618 102.297 73.9501 102.278 73.9354 102.262ZM77.3381 72.2374C77.2032 72.2374 77.0473 72.2861 76.8843 72.3799C76.5964 72.5481 76.3227 72.8407 76.1134 73.2042L73.9243 77.0055C73.5702 77.6128 73.4893 78.2947 73.7378 78.5913L76.1163 81.5144C76.1597 81.5683 76.1702 81.6416 76.1433 81.7055C74.9995 84.4123 74.1986 87.1161 73.7654 89.742C73.7584 89.7865 73.7349 89.8264 73.7003 89.8551L69.3884 93.4542C68.8912 93.8775 68.5289 94.6085 68.5289 95.1913L68.5418 98.7628C68.5418 99.0629 68.6333 99.2828 68.8003 99.3819L73.5139 102.116C73.5139 102.114 73.5139 102.113 73.5139 102.111C73.5098 102.089 73.5068 102.068 73.5068 102.055C73.4951 102.025 73.4863 101.943 73.4863 101.859L73.4799 98.5066C73.4588 98.4274 73.4412 98.3582 73.4289 98.2838C73.4054 98.2105 73.4248 98.1179 73.484 98.0686C73.4893 98.064 73.4951 98.0598 73.4998 98.0563C73.5051 98.0176 73.5104 97.9801 73.5156 97.9432C73.5303 97.8611 73.545 97.7831 73.5655 97.6981C73.579 97.6436 73.596 97.5914 73.6153 97.5357C73.6153 97.534 73.6347 97.483 73.6347 97.4812C73.6464 97.4501 73.6593 97.4173 73.6757 97.3868C73.6974 97.3182 73.7279 97.2508 73.766 97.1816C73.8193 97.0726 73.8592 96.994 73.9079 96.9207C73.9553 96.8463 74.011 96.7625 74.0667 96.6862C74.1318 96.6059 74.1904 96.5409 74.2485 96.4764C74.3259 96.3902 74.3968 96.3251 74.4695 96.2606L78.7263 92.7014C79.1631 90.0996 79.9551 87.4263 81.0802 84.7529L78.7744 81.926C78.4156 81.4968 78.4731 80.6854 78.918 79.908L81.1071 76.1067C81.3452 75.6934 81.6793 75.3452 82.0235 75.1506C82.2879 74.9993 82.5499 74.9342 82.7797 74.9671L86.4063 75.5217C88.1569 73.2153 90.0828 71.1874 92.1306 69.492L93.0727 64.0468C93.1964 63.2958 93.7152 62.5231 94.3332 62.1696L94.7688 61.9151C94.7828 61.9069 94.7981 61.9005 94.8139 61.8958L97.4409 60.3703C97.5224 60.324 97.6022 60.2865 97.6819 60.2572L92.9748 57.5176C92.806 57.4209 92.5691 57.4502 92.3094 57.5997L89.1946 59.3983C88.681 59.6979 88.2278 60.3803 88.1165 61.0211L87.1702 66.5278C87.1632 66.5718 87.1398 66.6117 87.1052 66.6404C85.0257 68.3552 83.0787 70.4095 81.3199 72.7463C81.2783 72.802 81.2109 72.8301 81.1411 72.819L77.4067 72.2415C77.3844 72.2386 77.3615 72.2374 77.3381 72.2374Z" fill="#373B42"/>
<path d="M73.6741 98.2402C73.667 98.2536 73.667 98.2736 73.667 98.2871L73.6131 98.2536C73.6066 98.2337 73.6066 98.2202 73.5996 98.1997L73.6741 98.2402Z" fill="white"/>
<path d="M73.655 98.4714C73.6245 98.4714 73.5934 98.4638 73.567 98.4474L73.5137 98.4134C73.4779 98.3911 73.4498 98.3577 73.4363 98.3178C73.4333 98.3096 73.4234 98.2727 73.4216 98.2645C73.3976 98.1912 73.4199 98.1091 73.4797 98.0593C73.5389 98.0094 73.6215 98.0007 73.6884 98.0364L73.7622 98.0769C73.8414 98.1197 73.8771 98.2111 73.8531 98.2944C73.8461 98.3565 73.8091 98.4175 73.7534 98.4468C73.7224 98.462 73.689 98.4714 73.655 98.4714Z" fill="#373B42"/>
<path d="M117.513 77.9058C118.05 77.4427 118.439 76.67 118.439 76.0186L118.426 72.446C118.426 72.0496 118.278 71.7741 118.037 71.6533C117.889 71.5795 117.701 71.566 117.493 71.6334L113.181 73.0099C112.825 71.3649 112.261 69.9409 111.502 68.759C111.267 68.3832 111.012 68.0408 110.744 67.7183L113.101 62.0703C113.396 61.3586 113.329 60.6867 112.926 60.4587L110.724 59.1959C110.489 59.0681 110.18 59.1085 109.871 59.2832C109.649 59.411 109.428 59.6121 109.226 59.8677L105.512 64.7431C103.759 64.4412 101.798 64.6153 99.6897 65.3276L98.8367 61.5128L98.7089 60.9289C98.655 60.7002 98.5412 60.539 98.3865 60.4522C98.3396 60.4253 98.2927 60.4053 98.2452 60.3919C98.2387 60.3919 98.2387 60.3919 98.2317 60.3919C98.1778 60.3784 98.1244 60.3719 98.0705 60.3719C97.9028 60.3719 97.7211 60.4259 97.5335 60.5331L94.8742 62.0779H94.8607L94.4779 62.2995L94.4239 62.333C93.8599 62.6554 93.3698 63.3871 93.2555 64.0788L92.3022 69.5926C90.2005 71.325 88.226 73.4203 86.4865 75.7237L82.7527 75.1527C82.558 75.1257 82.3364 75.1861 82.1148 75.3139C81.8058 75.4886 81.4969 75.8046 81.2688 76.2004L79.0797 80.0017C78.6834 80.6935 78.6096 81.4386 78.9185 81.8079L81.2958 84.7222C80.1678 87.3815 79.3418 90.1282 78.8986 92.8009L74.5943 96.4006C74.5268 96.4609 74.46 96.5213 74.3996 96.5887C74.3392 96.6556 74.2788 96.723 74.2185 96.7969C74.1645 96.8707 74.1112 96.9511 74.0643 97.0249C74.0103 97.1052 73.9705 97.1926 73.93 97.2735C73.8966 97.3339 73.8696 97.3943 73.8497 97.4617C73.8298 97.4951 73.8163 97.5355 73.8028 97.569C73.7829 97.6293 73.7624 97.6833 73.7489 97.7437C73.7289 97.824 73.7155 97.8979 73.702 97.9717C73.6885 98.0591 73.675 98.1529 73.675 98.2402C73.668 98.2537 73.668 98.2737 73.668 98.2871V98.4818L73.675 101.86C73.675 101.927 73.6814 101.994 73.6949 102.054C73.6949 102.068 73.6949 102.081 73.702 102.095C73.702 102.122 73.7084 102.142 73.7155 102.162V102.169C73.7155 102.196 73.7225 102.223 73.7424 102.25C73.7424 102.256 73.7495 102.256 73.7495 102.263C73.7559 102.304 73.7694 102.337 73.7899 102.364C73.7899 102.377 73.7969 102.391 73.8098 102.397V102.404C73.8233 102.431 73.8433 102.464 73.8638 102.485L73.8837 102.505C73.8837 102.518 73.8902 102.518 73.8972 102.518C73.9042 102.525 73.9042 102.525 73.9107 102.532L73.9242 102.545C73.9441 102.572 73.9711 102.592 73.998 102.606C74.1592 102.72 74.3674 102.746 74.6089 102.672L75.2802 102.458L78.9267 101.289C79.3834 103.452 80.2159 105.231 81.3579 106.588L79.0006 112.236C78.6981 112.948 78.7725 113.62 79.1753 113.841L81.3849 115.103C81.6136 115.238 81.9219 115.204 82.2309 115.023C82.4525 114.896 82.6741 114.701 82.8687 114.439L86.5827 109.563C87.0195 109.637 87.4691 109.678 87.9393 109.691C89.3293 109.732 90.8337 109.496 92.4183 108.979L93.3921 113.371C93.4056 113.431 93.4255 113.492 93.446 113.539C93.466 113.579 93.4795 113.613 93.5 113.646C93.5404 113.706 93.5803 113.753 93.6208 113.787C93.6407 113.807 93.6612 113.82 93.6811 113.834L93.6876 113.841C93.6946 113.841 93.7011 113.848 93.7075 113.854C93.9291 113.982 94.2316 113.961 94.567 113.767L97.683 111.974C98.2405 111.652 98.7242 110.92 98.8514 110.221L99.7982 104.721C101.907 102.988 103.868 100.9 105.607 98.5826L109.341 99.1536C109.542 99.187 109.764 99.1267 109.986 98.9994C110.295 98.8183 110.597 98.5023 110.832 98.0995L113.021 94.2982C113.423 93.6135 113.484 92.8678 113.188 92.4984L110.811 89.5841C111.933 86.9178 112.759 84.1852 113.202 81.499L117.513 77.9058Z" fill="#FFBE2E"/>
<path d="M81.6985 115.373C81.5501 115.373 81.41 115.337 81.2869 115.265L79.0802 114.004C78.5866 113.733 78.4805 112.975 78.8252 112.163L81.1386 106.621C80.0311 105.273 79.2397 103.562 78.7848 101.532L74.6633 102.852C74.3661 102.942 74.1 102.91 73.8866 102.759C73.8584 102.747 73.8185 102.716 73.7857 102.676C73.7576 102.659 73.7347 102.634 73.7183 102.606C73.6743 102.555 73.6509 102.512 73.6386 102.487C73.6356 102.481 73.6333 102.475 73.6315 102.469C73.6028 102.429 73.5817 102.382 73.5694 102.332C73.5448 102.29 73.5301 102.243 73.526 102.194C73.5201 102.172 73.5143 102.145 73.5125 102.113C73.5084 102.09 73.5055 102.069 73.5055 102.056C73.4938 102.026 73.485 101.944 73.485 101.86L73.4785 98.2878C73.4785 98.272 73.4785 98.2444 73.4861 98.2122C73.4885 98.1242 73.5014 98.031 73.5149 97.9437C73.5295 97.8616 73.5442 97.7836 73.5647 97.6986C73.5782 97.6441 73.5952 97.5919 73.6145 97.5362C73.6145 97.5344 73.6339 97.4835 73.6339 97.4817C73.6456 97.4506 73.6585 97.4178 73.6749 97.3873C73.6966 97.3187 73.7271 97.2513 73.7652 97.1821C73.8185 97.0731 73.8584 96.9945 73.9071 96.9212C73.9546 96.8468 74.0103 96.7635 74.0659 96.6867C74.131 96.6064 74.1896 96.5413 74.2477 96.4769C74.3251 96.3907 74.396 96.3256 74.4687 96.2611L78.7255 92.7019C79.1623 90.1001 79.9543 87.4267 81.0794 84.7534L78.7736 81.9264C78.4148 81.4973 78.4723 80.6859 78.9173 79.9085L81.1064 76.1072C81.3444 75.6939 81.6785 75.3457 82.0227 75.151C82.2871 74.9998 82.5491 74.9347 82.779 74.9675L86.4056 75.5221C88.1561 73.2158 90.082 71.1879 92.1298 69.4925L93.0719 64.0473C93.1956 63.2963 93.7145 62.5236 94.3324 62.1701L94.768 61.9156C94.782 61.9074 94.7973 61.901 94.8131 61.8963L97.4401 60.3708C97.7315 60.2043 98.0077 60.1416 98.2791 60.2108C98.3582 60.2289 98.4204 60.2553 98.4808 60.2905C98.6848 60.4054 98.8273 60.6118 98.8912 60.8867L99.8274 65.085C101.808 64.4448 103.691 64.2618 105.431 64.5403L109.076 59.7547C109.295 59.4774 109.536 59.2599 109.777 59.1215C110.156 58.9063 110.523 58.8753 110.812 59.0318L113.018 60.2964C113.505 60.5719 113.61 61.3311 113.273 62.1425L110.96 67.6862C111.226 68.0127 111.456 68.3322 111.661 68.66C112.401 69.812 112.959 71.1944 113.32 72.7691L117.436 71.4547C117.684 71.3755 117.921 71.3861 118.12 71.4857C118.434 71.6429 118.613 71.9929 118.613 72.446L118.626 76.0175C118.626 76.7093 118.219 77.5442 117.634 78.0477C117.634 78.0483 117.633 78.0489 117.632 78.0495L113.375 81.5976C112.942 84.1795 112.152 86.8551 111.026 89.5519L113.333 92.3795C113.684 92.8174 113.621 93.6452 113.182 94.3927L110.993 98.1928C110.746 98.6161 110.422 98.9597 110.08 99.1602C109.806 99.3179 109.549 99.3788 109.309 99.3378L105.688 98.7844C103.938 101.102 102.015 103.133 99.9699 104.821L99.0342 110.252C98.8958 111.013 98.3776 111.786 97.7755 112.135L94.6589 113.929C94.2738 114.152 93.9027 114.182 93.613 114.016C93.606 114.012 93.599 114.008 93.5925 114.003C93.5773 113.994 93.5626 113.983 93.5491 113.969C93.5491 113.97 93.5491 113.97 93.5491 113.97C93.5456 113.97 93.5157 113.949 93.4847 113.918C93.443 113.885 93.3903 113.824 93.341 113.75C93.3205 113.715 93.3082 113.69 93.2959 113.662C93.2935 113.658 93.273 113.615 93.2713 113.611C93.2478 113.556 93.2232 113.483 93.2074 113.41L92.2775 109.219C90.7568 109.695 89.3011 109.916 87.9316 109.878C87.4796 109.865 87.0622 109.828 86.6618 109.766L83.0158 114.552C82.8176 114.819 82.5773 115.038 82.3217 115.186C82.11 115.309 81.8966 115.373 81.6985 115.373ZM78.9249 101.102C78.9577 101.102 78.99 101.111 79.0193 101.128C79.0644 101.155 79.0978 101.199 79.1078 101.251C79.5528 103.355 80.3571 105.11 81.4997 106.467C81.5449 106.521 81.556 106.596 81.529 106.66L79.1717 112.308C78.9131 112.918 78.953 113.506 79.2637 113.677L81.4757 114.941C81.6434 115.039 81.882 115.009 82.1335 114.861C82.3463 114.739 82.5468 114.555 82.7168 114.327L86.4314 109.45C86.473 109.394 86.5398 109.366 86.6119 109.378C87.0299 109.449 87.4643 109.49 87.9416 109.504C89.3222 109.543 90.8072 109.307 92.3579 108.801C92.4059 108.785 92.4634 108.791 92.5085 108.816C92.5548 108.843 92.5871 108.887 92.5988 108.938L93.5732 113.33C93.5843 113.379 93.6001 113.428 93.6166 113.466L93.6347 113.504C93.6429 113.521 93.6494 113.536 93.6588 113.552C93.6893 113.597 93.7197 113.628 93.7385 113.644L93.7819 113.678C93.7872 113.681 93.7942 113.687 93.8018 113.694C93.8024 113.694 93.803 113.695 93.8042 113.695C93.973 113.789 94.2099 113.757 94.4707 113.606L97.5879 111.812C98.0938 111.52 98.5476 110.837 98.6654 110.188L99.6128 104.69C99.6199 104.646 99.6433 104.606 99.6779 104.577C101.746 102.878 103.69 100.824 105.456 98.4719C105.498 98.4168 105.567 98.3886 105.634 98.3992L109.369 98.9696C109.517 98.9942 109.699 98.9491 109.891 98.8377C110.177 98.67 110.454 98.3746 110.669 98.0064L112.858 94.2057C113.209 93.6071 113.288 92.9247 113.041 92.6169L110.666 89.7038C110.622 89.6498 110.61 89.5766 110.638 89.5127C111.787 86.783 112.586 84.0769 113.017 81.4692C113.024 81.4246 113.047 81.3842 113.082 81.356L117.391 77.7646C117.898 77.3266 118.252 76.6097 118.252 76.0199L118.239 72.4484C118.239 72.1371 118.137 71.9149 117.953 71.8222C117.842 71.7671 117.702 71.7642 117.551 71.8129L113.239 73.19C113.186 73.2052 113.133 73.2 113.088 73.1736C113.042 73.1472 113.009 73.1026 112.999 73.0511C112.65 71.4365 112.094 70.0265 111.346 68.8616C111.13 68.5175 110.887 68.1833 110.6 67.8398C110.555 67.7858 110.544 67.712 110.571 67.6475L112.929 61.9995C113.182 61.3892 113.141 60.797 112.834 60.6229L110.631 59.3595C110.466 59.2704 110.221 59.3021 109.964 59.4475C109.766 59.5612 109.561 59.747 109.374 59.9845L105.662 64.8575C105.62 64.9132 105.554 64.9413 105.481 64.929C103.716 64.6241 101.787 64.8176 99.7506 65.5059C99.6996 65.5229 99.6445 65.5182 99.5982 65.4918C99.5519 65.466 99.519 65.4215 99.5073 65.3699L98.5265 60.9706C98.4872 60.8029 98.4069 60.6798 98.2949 60.6165C98.2656 60.5995 98.2392 60.5872 98.2123 60.5784C98.2029 60.5778 98.1929 60.576 98.1865 60.5743C98.0071 60.5303 97.8294 60.5807 97.6272 60.6962L94.9691 62.2404C94.9544 62.2486 94.9386 62.2551 94.9222 62.2598L94.5247 62.4919C93.9994 62.7921 93.5468 63.471 93.4413 64.11L92.4868 69.6249C92.4792 69.6695 92.4564 69.7094 92.4218 69.7375C90.3499 71.4453 88.4035 73.4972 86.6365 75.837C86.5961 75.8921 86.5287 75.9202 86.4589 75.9091L82.725 75.3381C82.5843 75.3181 82.402 75.3656 82.2079 75.4764C81.9195 75.64 81.6369 75.9378 81.4311 76.2942L79.242 80.095C78.8862 80.7164 78.8106 81.3865 79.0621 81.6873L81.4405 84.6033C81.4845 84.6573 81.4956 84.7311 81.4681 84.795C80.3214 87.4994 79.5182 90.2033 79.0838 92.8315C79.0767 92.876 79.0533 92.9159 79.0187 92.9446L74.7138 96.5443C74.6569 96.5959 74.5948 96.6516 74.5379 96.7143C74.4722 96.7882 74.4165 96.8491 74.3614 96.916C74.3175 96.9775 74.2664 97.0555 74.2201 97.1264C74.1791 97.1886 74.1474 97.2531 74.1175 97.3146C74.1175 97.3152 74.0964 97.3568 74.0964 97.3574C74.0636 97.4172 74.0431 97.4653 74.0284 97.5145C74.0232 97.5304 74.0167 97.545 74.0085 97.5591C73.9979 97.5761 73.9915 97.596 73.985 97.6142L73.7916 97.5972L73.9686 97.6582C73.954 97.701 73.9393 97.7414 73.9293 97.7854C73.9106 97.8645 73.8971 97.9343 73.8848 98.0046C73.8737 98.0779 73.8608 98.1618 73.8608 98.2403C73.8608 98.269 73.8543 98.2966 73.8414 98.3224L73.8537 98.4819L73.8602 101.859C73.8602 101.916 73.8654 101.968 73.8754 102.013C73.8877 102.039 73.8871 102.067 73.8871 102.096C73.8924 102.111 73.8983 102.135 73.8995 102.154C73.92 102.185 73.9329 102.224 73.934 102.26C73.9628 102.286 73.9821 102.32 73.9903 102.358C73.9974 102.362 74.005 102.367 74.0114 102.372L74.012 102.372C74.0155 102.375 74.0185 102.378 74.0214 102.382C74.0237 102.383 74.0249 102.385 74.0267 102.386C74.0331 102.393 74.0671 102.427 74.073 102.435C74.2196 102.535 74.3702 102.55 74.5514 102.494L78.8668 101.111C78.8862 101.105 78.9055 101.102 78.9249 101.102ZM73.9206 102.4L73.8613 102.485L73.9768 102.399L73.9206 102.4ZM73.9915 102.363C73.9933 102.371 73.9944 102.378 73.9944 102.385L74.0079 102.375C74.0026 102.371 73.9974 102.366 73.9915 102.363Z" fill="#373B42"/>
<path d="M101.321 75.5086C99.8102 75.1393 97.9635 75.4816 95.9691 76.6436C90.9325 79.5849 86.8832 86.6698 86.9301 92.4785C86.9365 93.5795 87.0913 94.5539 87.3733 95.3864C88.5687 98.9725 92.0476 100.047 96.1303 97.6628C101.174 94.7215 105.223 87.6366 105.176 81.8279C105.149 78.3227 103.631 76.0796 101.321 75.5086Z" fill="#212121"/>
<path d="M91.9961 99.1222C91.36 99.1222 90.7579 99.0184 90.2015 98.8091C88.791 98.278 87.7515 97.1148 87.1958 95.4457C86.9015 94.5787 86.749 93.5808 86.7426 92.4799C86.6957 86.6272 90.7925 79.4502 95.8748 76.482C97.851 75.3311 99.7494 74.9307 101.366 75.3265C103.843 75.9385 105.336 78.3686 105.363 81.8263C105.411 87.6819 101.311 94.8583 96.2248 97.8242C94.7544 98.6831 93.3052 99.1222 91.9961 99.1222ZM100.101 75.5533C98.86 75.5533 97.4858 75.9766 96.063 76.8056C91.0838 79.7134 87.0709 86.7439 87.1166 92.4775C87.1231 93.5386 87.269 94.4972 87.5499 95.3267C88.0693 96.8856 89.0319 97.9684 90.3334 98.458C91.9263 99.0583 93.9512 98.7177 96.0348 97.5012C101.017 94.5957 105.034 87.5652 104.988 81.8293C104.962 78.5532 103.575 76.2586 101.276 75.6905C100.901 75.5991 100.508 75.5533 100.101 75.5533Z" fill="#373B42"/>
<path d="M101.321 75.5086C99.8102 75.1393 97.9635 75.4816 95.9691 76.6436C90.9325 79.5849 86.8832 86.6698 86.9301 92.4785C86.9365 93.5795 87.0913 94.5539 87.3733 95.3864C88.8841 95.7557 90.7308 95.4133 92.7188 94.2514C97.7618 91.3101 101.812 84.2251 101.765 78.4165C101.757 77.3155 101.603 76.3417 101.321 75.5086Z" fill="white"/>
<path d="M88.5934 95.7172C88.1566 95.7172 87.734 95.6679 87.3288 95.5689C87.2667 95.5536 87.2169 95.5079 87.1964 95.4469C86.9015 94.5792 86.749 93.5814 86.7426 92.4799C86.6957 86.6272 90.7925 79.4502 95.8748 76.482C97.851 75.3311 99.7494 74.9307 101.366 75.3265C101.428 75.3417 101.478 75.3874 101.499 75.4484C101.793 76.3167 101.945 77.315 101.952 78.4155C101.999 84.2704 97.8991 91.4474 92.8133 94.4133C91.3365 95.2763 89.9014 95.7172 88.5934 95.7172ZM87.5182 95.2282C89.0184 95.5607 90.7819 95.1673 92.6239 94.0903C97.6066 91.1848 101.623 84.1544 101.577 78.4184C101.571 77.3995 101.436 76.4749 101.176 75.6677C99.6761 75.3358 97.9114 75.7292 96.063 76.8056C91.0838 79.7134 87.0709 86.7439 87.1166 92.4775C87.1231 93.497 87.2585 94.4215 87.5182 95.2282Z" fill="#373B42"/>
<path d="M51.8115 92.8389L51.8934 141.323L94.571 166.125L94.4892 117.64L51.8115 92.8389Z" fill="#FFBE2E"/>
<path d="M94.5707 166.299C94.5407 166.299 94.5102 166.291 94.483 166.275L51.8056 141.473C51.7526 141.442 51.7193 141.385 51.7193 141.323L51.6377 92.8392C51.6377 92.777 51.6709 92.7193 51.7246 92.688C51.7789 92.6575 51.8449 92.6572 51.8992 92.6883L94.5767 117.49C94.6296 117.521 94.663 117.578 94.663 117.64L94.7445 166.124C94.7445 166.186 94.7112 166.244 94.6576 166.275C94.6305 166.291 94.6006 166.299 94.5707 166.299ZM52.0672 141.223L94.3961 165.822L94.3153 117.74L51.9862 93.1415L52.0672 141.223Z" fill="#383C43"/>
<path d="M94.4902 117.639L94.5717 166.124L137.336 141.434L137.255 93.1758L94.4902 117.639Z" fill="#212121"/>
<path d="M94.5721 166.298C94.5421 166.298 94.5123 166.29 94.4851 166.275C94.4315 166.244 94.3982 166.187 94.3982 166.125L94.3174 117.64C94.3174 117.577 94.3506 117.519 94.405 117.488L137.169 93.0249C137.222 92.9944 137.29 92.9941 137.343 93.0253C137.396 93.0561 137.43 93.1135 137.43 93.1754L137.51 141.434C137.51 141.496 137.477 141.554 137.423 141.585L94.6591 166.275C94.6318 166.29 94.6019 166.298 94.5721 166.298ZM94.6651 117.74L94.7452 165.823L137.163 141.334L137.082 93.4753L94.6651 117.74Z" fill="#383C43"/>
<path d="M51.8177 92.8398L42.7773 110.486L85.4482 135.287L94.4885 117.641L51.8177 92.8398Z" fill="#FFF7E4"/>
<path d="M85.4471 135.461C85.4166 135.461 85.3866 135.454 85.3595 135.438L42.6888 110.636C42.6093 110.59 42.5795 110.489 42.6216 110.407L51.6617 92.7612C51.6835 92.7184 51.7222 92.6868 51.7677 92.6735C51.8138 92.6593 51.8621 92.6657 51.9043 92.6898L94.5756 117.491C94.6551 117.538 94.685 117.639 94.6428 117.721L85.6021 135.367C85.5803 135.409 85.5416 135.441 85.4962 135.454C85.4798 135.459 85.4635 135.461 85.4471 135.461ZM43.0068 110.418L85.3759 135.045L94.2577 117.709L51.8879 93.0827L43.0068 110.418Z" fill="#383C43"/>
<path d="M137.255 93.166L146.295 110.812L103.531 135.286L94.4902 117.641L137.255 93.166Z" fill="#FFF7E4"/>
<path d="M103.532 135.46C103.516 135.46 103.499 135.458 103.482 135.453C103.437 135.439 103.399 135.408 103.377 135.365L94.3364 117.72C94.2943 117.637 94.3242 117.536 94.4051 117.49L137.169 93.0151C137.211 92.9919 137.26 92.9859 137.305 92.9991C137.351 93.0127 137.389 93.0443 137.411 93.0867L146.451 110.732C146.493 110.815 146.464 110.916 146.383 110.962L103.618 135.437C103.592 135.452 103.562 135.46 103.532 135.46ZM94.7215 117.709L103.604 135.045L146.066 110.743L137.184 93.4073L94.7215 117.709Z" fill="#383C43"/>
<path d="M56.6835 131.215C56.7497 131.253 56.8165 131.322 56.8669 131.413L58.6717 134.717C58.8164 134.981 58.705 135.211 58.4906 135.087L57.7164 134.64L57.697 140.793C57.6967 140.909 57.6134 140.957 57.5121 140.898L55.8023 139.911C55.6986 139.851 55.6182 139.709 55.6185 139.593L55.6379 133.44L54.8636 132.993C54.6493 132.869 54.5396 132.512 54.683 132.414L56.5028 131.202C56.5515 131.17 56.6172 131.177 56.6835 131.215Z" fill="#383C43"/>
<path d="M57.5945 141.097C57.5387 141.097 57.481 141.081 57.4254 141.049L55.715 140.062C55.5567 139.97 55.4432 139.772 55.4446 139.592L55.4636 133.541L54.7769 133.144C54.5676 133.023 54.4515 132.772 54.4446 132.585C54.4399 132.447 54.4894 132.335 54.5852 132.271L56.4064 131.058C56.5091 130.989 56.6415 130.991 56.7698 131.064C56.7706 131.064 56.7706 131.065 56.7712 131.065C56.8663 131.121 56.9546 131.214 57.0184 131.328L58.824 134.634C58.9443 134.853 58.9381 135.086 58.8084 135.212C58.7276 135.291 58.5796 135.339 58.4036 135.238L57.8893 134.941L57.871 140.793C57.8702 140.913 57.8186 141.01 57.729 141.062C57.6882 141.086 57.6421 141.097 57.5945 141.097ZM56.5721 131.356L54.7794 132.559C54.7754 132.591 54.8331 132.775 54.9506 132.843L55.7244 133.29C55.7781 133.321 55.8113 133.379 55.8113 133.441L55.7923 139.593C55.7923 139.648 55.8412 139.733 55.8894 139.761L57.5232 140.704L57.5421 134.64C57.5421 134.578 57.5755 134.52 57.6291 134.49C57.6834 134.459 57.7486 134.459 57.8029 134.49L58.5617 134.928C58.559 134.898 58.5481 134.854 58.5189 134.801L56.714 131.496C56.6821 131.44 56.6379 131.39 56.5965 131.366C56.5803 131.357 56.5721 131.356 56.5721 131.356Z" fill="#383C43"/>
<path d="M61.9886 134.278C62.0546 134.317 62.1201 134.385 62.1683 134.474L63.9754 137.779C64.12 138.043 64.0063 138.272 63.792 138.148L63.0178 137.701L62.9983 143.854C62.998 143.97 62.9171 144.019 62.8133 143.959L61.1035 142.972C61.0022 142.913 60.9195 142.77 60.9198 142.654L60.9392 136.501L60.1649 136.054C59.9506 135.93 59.8408 135.572 59.9888 135.478L61.8064 134.265C61.8563 134.233 61.9226 134.24 61.9886 134.278Z" fill="#383C43"/>
<path d="M62.898 144.158C62.8423 144.158 62.784 144.142 62.7275 144.109L61.0177 143.122C60.8635 143.034 60.7467 142.832 60.7467 142.653L60.7664 136.601L60.079 136.204C59.8677 136.082 59.7522 135.83 59.7482 135.643C59.7448 135.507 59.7992 135.393 59.8962 135.331L61.7106 134.119C61.8186 134.05 61.951 134.054 62.0768 134.128C62.1732 134.184 62.2602 134.277 62.322 134.39L64.1289 137.695C64.2485 137.914 64.2417 138.145 64.1126 138.272C64.0318 138.352 63.8823 138.399 63.7058 138.299L63.1915 138.001L63.1732 143.854C63.1724 143.974 63.1208 144.072 63.0312 144.123C62.9904 144.147 62.9449 144.158 62.898 144.158ZM61.8771 134.418L60.0865 135.622C60.0797 135.655 60.1368 135.836 60.2529 135.903L61.0273 136.35C61.081 136.381 61.1142 136.439 61.1142 136.501L61.0945 142.654C61.0945 142.707 61.1441 142.794 61.1909 142.821L62.8253 143.764L62.8443 137.7C62.8443 137.638 62.8775 137.581 62.9312 137.55C62.9855 137.519 63.0507 137.519 63.1051 137.55L63.866 137.989C63.8633 137.96 63.8531 137.916 63.8239 137.862L62.0163 134.557C61.9857 134.5 61.9429 134.452 61.9022 134.429C61.9022 134.429 61.9016 134.429 61.9016 134.428C61.8852 134.419 61.8771 134.418 61.8771 134.418Z" fill="#383C43"/>
<path d="M53.2399 93.519L44.5381 110.503L85.8922 134.379L94.594 117.394L53.2399 93.519Z" fill="#FFF7E4"/>
<path d="M85.893 134.552C85.8628 134.552 85.8331 134.544 85.8066 134.529L44.4525 110.653C44.3731 110.607 44.3434 110.507 44.385 110.425L53.0862 93.441C53.1079 93.3989 53.1457 93.3675 53.1916 93.354C53.2359 93.34 53.2861 93.3465 53.3266 93.3702L94.6807 117.246C94.7602 117.292 94.7899 117.392 94.7483 117.474L86.047 134.458C86.0254 134.5 85.9876 134.531 85.9417 134.545C85.9265 134.549 85.9093 134.552 85.893 134.552ZM44.768 110.436L85.8228 134.139L94.3663 117.462L53.3115 93.7603L44.768 110.436Z" fill="#373B42"/>
<path d="M135.673 93.5229L144.374 110.507L103.303 134.379L94.6016 117.395L135.673 93.5229Z" fill="#FFF7E4"/>
<path d="M103.303 134.551C103.287 134.551 103.27 134.549 103.254 134.544C103.209 134.531 103.17 134.5 103.149 134.457L94.4475 117.473C94.4059 117.391 94.4356 117.291 94.5145 117.245L135.586 93.3733C135.627 93.349 135.675 93.343 135.722 93.3571C135.767 93.37 135.805 93.4019 135.827 93.4441L144.528 110.428C144.57 110.51 144.54 110.61 144.461 110.656L103.39 134.528C103.363 134.543 103.334 134.551 103.303 134.551ZM94.83 117.461L103.374 134.137L144.146 110.439L135.602 93.7628L94.83 117.461Z" fill="#373B42"/>
<path d="M186.015 61.249L188.884 59.5817L188.897 54.877L186.028 56.5443L186.015 61.249Z" fill="#212121"/>
<path d="M186.015 61.4366C185.982 61.4366 185.95 61.4284 185.921 61.4114C185.863 61.3779 185.827 61.3158 185.827 61.249L185.841 56.5442C185.841 56.4774 185.876 56.4164 185.933 56.3824L188.803 54.7145C188.862 54.6811 188.933 54.6811 188.991 54.7145C189.049 54.7479 189.085 54.8101 189.085 54.8775L189.071 59.5828C189.071 59.6491 189.035 59.7106 188.978 59.744L186.109 61.4114C186.08 61.4278 186.047 61.4366 186.015 61.4366ZM186.215 56.6521L186.203 60.923L188.696 59.4738L188.709 55.2029L186.215 56.6521Z" fill="#373B42"/>
<path d="M148.711 3.05025C149.185 2.77178 149.846 2.80989 150.568 3.23082L187.332 24.4546C188.783 25.2895 189.948 27.3191 189.941 28.9729L189.866 55.7451C189.866 56.5723 189.573 57.1509 189.099 57.4294L191.969 55.7597C192.443 55.4819 192.736 54.9026 192.736 54.076L192.811 27.3109C192.819 25.6494 191.646 23.6192 190.202 22.785L153.438 1.56115C152.716 1.14022 152.054 1.10211 151.581 1.38058L148.711 3.05025Z" fill="#212121"/>
<path d="M189.099 57.6174C189.034 57.6174 188.972 57.5839 188.937 57.5241C188.885 57.435 188.915 57.3207 189.004 57.2685C189.439 57.0129 189.679 56.4724 189.679 55.746L189.754 28.9733C189.762 27.3728 188.633 25.4193 187.239 24.6179L150.475 3.39354C149.847 3.02713 149.241 2.95971 148.813 3.20887L148.807 3.21239L148.807 3.21297L148.806 3.21356C148.715 3.26456 148.603 3.23525 148.55 3.14555C148.498 3.05644 148.528 2.94212 148.617 2.88994L148.617 2.88936H148.618C148.62 2.8876 148.623 2.88584 148.626 2.88408L151.488 1.21969C152.039 0.897246 152.785 0.962906 153.533 1.40026L190.297 22.6241C191.795 23.4894 193.007 25.5929 193 27.313L192.924 54.0769C192.924 54.9411 192.619 55.5965 192.065 55.9219L189.193 57.5921C189.163 57.6091 189.131 57.6174 189.099 57.6174ZM149.675 2.70644C149.992 2.75159 150.327 2.87353 150.662 3.06934L187.426 24.2931C188.924 25.1544 190.136 27.2543 190.128 28.9744L190.053 55.7466C190.053 56.1288 189.993 56.4695 189.879 56.7597L191.875 55.5989C192.31 55.3438 192.549 54.8033 192.549 54.0769L192.625 27.3118C192.632 25.7113 191.503 23.7538 190.109 22.9483L153.345 1.72446C152.714 1.35687 152.106 1.2918 151.677 1.5433L149.675 2.70644Z" fill="#373B42"/>
<path d="M150.571 3.22881C149.126 2.39456 147.951 3.06994 147.947 4.73023L147.871 31.4983C147.866 33.1586 149.034 35.1859 150.479 36.0201L181.3 53.8149L186.015 61.2498L186.028 56.5451L187.243 57.2463C188.688 58.0805 189.863 57.4051 189.868 55.7448L189.944 28.9768C189.949 27.3165 188.782 25.2892 187.336 24.455L150.571 3.22881Z" fill="#FFF7E4"/>
<path d="M186.015 61.4366C185.952 61.4366 185.892 61.405 185.856 61.3493L181.166 53.9536L150.384 36.1817C148.89 35.3193 147.679 33.2176 147.683 31.4969L147.759 4.72942C147.762 3.85706 148.068 3.20162 148.623 2.8827C149.179 2.56201 149.905 2.62767 150.664 3.06678L187.428 24.2923C188.922 25.1547 190.134 27.2565 190.13 28.9772L190.053 55.7452C190.051 56.6164 189.744 57.2724 189.19 57.5919C188.633 57.9126 187.908 57.8475 187.148 57.4084L186.214 56.8691L186.202 61.2502C186.202 61.3334 186.146 61.4067 186.066 61.4302C186.05 61.4337 186.032 61.4366 186.015 61.4366ZM149.4 3.0574C149.183 3.0574 148.984 3.10724 148.809 3.2069C148.376 3.45665 148.135 3.99777 148.133 4.73059L148.057 31.4975C148.052 33.0986 149.18 35.0543 150.571 35.8569L181.392 53.6517C181.418 53.6669 181.44 53.688 181.457 53.7132L185.828 60.6053L185.839 56.5425C185.839 56.4757 185.875 56.4136 185.933 56.3801C185.992 56.3473 186.062 56.3467 186.121 56.3807L187.335 57.0819C187.975 57.4512 188.567 57.5157 189.003 57.2648C189.436 57.0151 189.676 56.4745 189.678 55.7423L189.754 28.9742C189.759 27.3737 188.631 25.418 187.241 24.6148L150.477 3.38923C150.094 3.16938 149.727 3.0574 149.4 3.0574Z" fill="#373B42"/>
<path d="M166.071 24.5197C165.476 24.1761 164.994 24.4505 164.992 25.1346C164.99 25.8188 165.469 26.6531 166.064 26.9966L181.589 35.9599C182.184 36.3035 182.67 36.0262 182.672 35.3426C182.674 34.659 182.191 33.8271 181.596 33.4836L166.071 24.5197Z" fill="#212121"/>
<path d="M175.199 36.3024C174.604 35.9588 174.122 36.2332 174.12 36.9174C174.118 37.6015 174.597 38.4358 175.192 38.7793L181.589 42.4728C182.184 42.8163 182.67 42.539 182.672 41.8554C182.674 41.1713 182.191 40.3399 181.596 39.9964L175.199 36.3024Z" fill="#212121"/>
<path d="M182.074 42.8081C181.892 42.8081 181.696 42.7501 181.496 42.634L175.1 38.9406C174.445 38.5624 173.932 37.6737 173.934 36.9162C173.935 36.5164 174.08 36.2133 174.343 36.0626C174.607 35.9108 174.943 35.9383 175.294 36.14L181.69 39.8334C182.349 40.2139 182.863 41.1015 182.861 41.8554C182.859 42.2547 182.713 42.5584 182.449 42.7102C182.336 42.7759 182.209 42.8081 182.074 42.8081ZM174.717 36.3417C174.647 36.3417 174.584 36.3569 174.529 36.3886C174.388 36.4701 174.309 36.6582 174.308 36.9185C174.306 37.5329 174.755 38.3103 175.287 38.6169L181.683 42.3104C181.908 42.44 182.119 42.4681 182.263 42.386C182.405 42.3039 182.485 42.1146 182.486 41.8549C182.488 41.2446 182.038 40.4678 181.503 40.1588L175.106 36.4654C174.964 36.3833 174.832 36.3417 174.717 36.3417Z" fill="#373B42"/>
<path d="M127.59 14.0731C128.064 13.7946 128.725 13.8327 129.454 14.2536L166.211 35.4774C167.654 36.3117 168.827 38.3343 168.827 39.9957L168.752 66.7679C168.745 67.5951 168.459 68.1737 167.986 68.4446L170.856 66.7749C171.322 66.5047 171.615 65.9254 171.623 65.0982L171.698 38.3261C171.698 36.6646 170.525 34.642 169.081 33.8072L132.324 12.5834C131.595 12.1624 130.934 12.1249 130.46 12.4028L127.59 14.0731Z" fill="#212121"/>
<path d="M167.986 68.6325C167.922 68.6325 167.859 68.5991 167.824 68.5387C167.773 68.449 167.803 68.3347 167.892 68.2831L167.908 68.2737C168.326 68.0257 168.56 67.4916 168.566 66.7664L168.642 39.9954C168.642 38.3979 167.51 36.4439 166.119 35.6395L129.362 14.4157C128.722 14.0464 128.131 13.979 127.697 14.2287L127.686 14.2352C127.596 14.2862 127.482 14.2569 127.43 14.1672C127.378 14.078 127.408 13.9637 127.497 13.9115C127.5 13.9092 127.505 13.9069 127.508 13.9045L130.368 12.2413C130.925 11.9147 131.653 11.9786 132.421 12.4219L169.177 33.6457C170.672 34.5092 171.888 36.6092 171.888 38.3264L171.812 65.0991C171.804 65.9674 171.499 66.6199 170.951 66.937L168.099 68.5962C168.093 68.5997 168.087 68.6038 168.08 68.6073C168.05 68.6243 168.018 68.6325 167.986 68.6325ZM128.56 13.7263C128.875 13.7726 129.208 13.8945 129.549 14.0915L166.306 35.3153C167.8 36.1789 169.016 38.2789 169.016 39.996L168.941 66.7688C168.937 67.1493 168.877 67.4881 168.765 67.7754L170.762 66.6134C171.19 66.3654 171.43 65.8273 171.436 65.0974L171.512 38.3264C171.512 36.7288 170.38 34.7748 168.989 33.9704L132.232 12.7467C131.588 12.375 130.993 12.3099 130.557 12.5655L128.56 13.7263Z" fill="#373B42"/>
<path d="M129.454 14.2549C128.009 13.4207 126.829 14.0878 126.825 15.7481L126.749 42.5215C126.744 44.1817 127.916 46.2067 129.361 47.0409L130.571 47.7392L130.557 52.4439L135.304 50.4717L166.121 68.2636C167.565 69.0978 168.745 68.4307 168.75 66.7704L168.826 39.997C168.83 38.3367 167.658 36.3118 166.213 35.4775L129.454 14.2549Z" fill="#FFF7E4"/>
<path d="M167.297 68.8115C166.903 68.8115 166.471 68.6819 166.026 68.4251L135.29 50.6796L130.629 52.6166C130.572 52.6401 130.505 52.6348 130.453 52.599C130.401 52.5644 130.37 52.5058 130.37 52.4431L130.383 47.8462L129.267 47.2019C127.771 46.3378 126.556 44.2378 126.561 42.52L126.637 15.7467C126.639 14.8784 126.945 14.2253 127.498 13.907C128.055 13.5857 128.784 13.6514 129.548 14.0917L166.307 35.3149C167.804 36.179 169.018 38.2796 169.013 39.9968L168.937 66.7701C168.934 67.6384 168.628 68.292 168.075 68.6104C167.841 68.7446 167.579 68.8115 167.297 68.8115ZM135.303 50.2839C135.336 50.2839 135.369 50.2921 135.397 50.3091L166.214 68.1009C166.857 68.4714 167.451 68.5377 167.888 68.2856C168.321 68.037 168.56 67.4982 168.563 66.7695L168.638 39.9962C168.643 38.3986 167.513 36.444 166.12 35.6397L129.361 14.4165C128.719 14.046 128.124 13.9809 127.685 14.2318C127.252 14.481 127.014 15.0191 127.012 15.7479L126.936 42.5212C126.931 44.1193 128.061 46.0734 129.455 46.8777L130.664 47.5759C130.722 47.6094 130.758 47.6715 130.758 47.7383L130.745 52.1623L135.232 50.298C135.254 50.2886 135.279 50.2839 135.303 50.2839Z" fill="#373B42"/>
<path d="M158.801 41.0543L158.764 54.1496C158.756 55.369 157.896 55.8556 156.833 55.2494L138.694 44.773C137.631 44.1592 136.771 42.6701 136.778 41.4506L136.816 28.3624C136.816 27.15 137.677 26.6564 138.739 27.2696L156.885 37.7461C157.948 38.3605 158.801 39.8419 158.801 41.0543Z" fill="#FFBE2E"/>
<path d="M151.943 38.9043C152.214 39.0603 152.484 39.3364 152.692 39.6952C153.106 40.4128 153.104 41.1866 152.687 41.4188L146.537 44.9287C146.336 45.0436 146.068 45.0155 145.782 44.8496C145.5 44.6866 145.238 44.4087 145.032 44.0599L142.885 40.3401C142.475 39.6254 142.478 38.8568 142.89 38.6106C143.098 38.4945 143.371 38.5338 143.643 38.6909C143.916 38.848 144.187 39.1236 144.395 39.4794L145.79 41.9072L151.197 38.8316C151.402 38.7114 151.672 38.7478 151.943 38.9043Z" fill="#212121"/>
<path d="M143.504 178.988C142.65 178.988 141.798 178.8 141.15 178.423L128.046 170.71C127.957 170.658 127.928 170.543 127.98 170.453C128.032 170.363 128.147 170.334 128.236 170.387L141.34 178.099C142.53 178.79 144.475 178.791 145.673 178.099L176.795 160.45C176.885 160.398 176.999 160.43 177.051 160.52C177.101 160.61 177.069 160.725 176.98 160.776L145.859 178.424C145.21 178.8 144.357 178.988 143.504 178.988Z" fill="#939393"/>
<path d="M180.174 158.701C181.648 159.551 181.657 160.931 180.192 161.783C178.728 162.634 176.344 162.634 174.87 161.783C173.395 160.933 173.388 159.553 174.852 158.702C176.317 157.851 178.699 157.85 180.174 158.701Z" fill="white"/>
<path d="M177.535 162.604C176.537 162.604 175.539 162.384 174.777 161.944C174.001 161.497 173.573 160.89 173.572 160.237C173.572 159.586 173.993 158.984 174.759 158.539C176.273 157.659 178.744 157.658 180.268 158.538C181.045 158.985 181.473 159.592 181.473 160.246C181.474 160.896 181.053 161.498 180.288 161.944C179.53 162.384 178.533 162.604 177.535 162.604ZM177.511 158.248C176.581 158.248 175.653 158.453 174.948 158.863C174.302 159.238 173.946 159.726 173.947 160.236C173.947 160.751 174.309 161.242 174.964 161.62C176.385 162.44 178.69 162.439 180.099 161.62C180.744 161.244 181.099 160.757 181.098 160.247C181.098 159.732 180.736 159.241 180.08 158.862C179.37 158.453 178.44 158.248 177.511 158.248Z" fill="#DBDEE4"/>
<path d="M177.532 161.213C176.957 161.213 176.401 161.083 176.006 160.855C175.689 160.672 175.506 160.447 175.506 160.238C175.505 160.032 175.684 159.809 175.995 159.628C176.387 159.401 176.941 159.27 177.515 159.27C178.089 159.27 178.645 159.401 179.04 159.628C179.358 159.812 179.54 160.037 179.54 160.246C179.541 160.453 179.362 160.675 179.05 160.856C178.66 161.083 178.106 161.213 177.532 161.213Z" fill="#FFBE2E"/>
<path d="M166.987 167.166C167.31 167.166 167.623 167.092 167.845 166.964C168.024 166.861 168.126 166.735 168.127 166.617C168.127 166.501 168.027 166.376 167.851 166.274C167.631 166.146 167.32 166.072 166.997 166.072C166.673 166.072 166.361 166.146 166.139 166.274C165.96 166.377 165.857 166.504 165.857 166.622C165.857 166.738 165.958 166.863 166.132 166.965C166.353 167.092 166.665 167.166 166.987 167.166Z" fill="#373B42"/>
<path d="M166.988 167.353C166.632 167.353 166.287 167.271 166.039 167.127C165.802 166.989 165.671 166.809 165.671 166.622C165.673 166.432 165.806 166.252 166.046 166.112C166.542 165.825 167.448 165.824 167.946 166.112C168.184 166.251 168.315 166.43 168.315 166.618C168.314 166.807 168.181 166.987 167.94 167.126C167.691 167.27 167.343 167.353 166.988 167.353ZM166.998 166.26C166.706 166.26 166.427 166.324 166.234 166.436C166.081 166.525 166.046 166.602 166.046 166.623C166.046 166.646 166.09 166.722 166.228 166.802C166.612 167.027 167.365 167.026 167.753 166.802C167.906 166.714 167.941 166.636 167.941 166.616C167.941 166.598 167.907 166.523 167.758 166.436C167.565 166.324 167.287 166.26 166.998 166.26Z" fill="#373B42"/>
<path d="M28.0093 191.429C27.2818 191.429 26.5548 191.269 26.0026 190.947L5.2249 178.318C5.13638 178.264 5.10824 178.149 5.16217 178.06C5.21552 177.971 5.33043 177.945 5.41954 177.998L26.1943 190.626C27.1903 191.205 28.8248 191.205 29.8326 190.624L57.7017 174.866C57.7902 174.815 57.9057 174.846 57.9573 174.937C58.0077 175.028 57.9766 175.142 57.8863 175.193L30.0184 190.95C29.4633 191.269 28.7357 191.429 28.0093 191.429Z" fill="#939393"/>
<path d="M2.40545 176.235C0.931 177.085 0.922208 178.466 2.38669 179.317C3.85116 180.168 6.2349 180.168 7.70935 179.317C9.18379 178.466 9.19141 177.086 7.72693 176.235C6.26245 175.384 3.87989 175.384 2.40545 176.235Z" fill="white"/>
<path d="M5.04475 180.139C4.04693 180.139 3.05029 179.919 2.29284 179.479C1.52719 179.033 1.10567 178.43 1.10743 177.781C1.10801 177.126 1.53598 176.52 2.31219 176.072C3.83647 175.192 6.30755 175.194 7.82186 176.073C8.58811 176.518 9.00963 177.122 9.00846 177.771C9.00787 178.425 8.57931 179.031 7.80369 179.479C7.04097 179.919 6.04198 180.139 5.04475 180.139ZM2.49862 176.397C1.84377 176.775 1.48205 177.267 1.48146 177.781C1.48088 178.291 1.83556 178.779 2.48103 179.154C3.89157 179.974 6.19499 179.974 7.6155 179.154C8.27036 178.776 8.63208 178.285 8.63266 177.771C8.63325 177.261 8.27856 176.772 7.63192 176.397C6.22372 175.578 3.91972 175.578 2.49862 176.397Z" fill="#DBDEE4"/>
<path d="M5.04798 178.748C5.62252 178.748 6.17888 178.618 6.57402 178.389C6.89118 178.207 7.07351 177.981 7.0741 177.772C7.07469 177.566 6.89587 177.343 6.58457 177.162C6.19295 176.935 5.63893 176.804 5.06499 176.804C4.49104 176.804 3.93468 176.935 3.54012 177.162C3.22237 177.346 3.04004 177.571 3.04004 177.78C3.03945 177.987 3.21826 178.209 3.52957 178.39C3.9206 178.618 4.47404 178.748 5.04798 178.748Z" fill="#FFBE2E"/>
<path d="M15.5922 184.7C15.2692 184.7 14.9561 184.627 14.7339 184.499C14.5557 184.395 14.4531 184.269 14.4531 184.152C14.4531 184.035 14.5534 183.911 14.7287 183.809C14.9491 183.681 15.2604 183.607 15.5834 183.607C15.9065 183.607 16.2189 183.68 16.4411 183.809C16.6199 183.912 16.7225 184.038 16.7225 184.156C16.7225 184.272 16.6223 184.397 16.4476 184.499C16.2266 184.627 15.9153 184.7 15.5922 184.7Z" fill="#373B42"/>
<path d="M15.5923 184.888C15.2376 184.888 14.8906 184.805 14.6402 184.662C14.3987 184.522 14.2656 184.341 14.2656 184.152C14.2656 183.964 14.3969 183.785 14.6338 183.647C15.1327 183.358 16.0361 183.359 16.5345 183.647C16.776 183.786 16.9091 183.967 16.9091 184.157C16.9108 184.344 16.7795 184.523 16.5403 184.662C16.2929 184.805 15.947 184.888 15.5923 184.888ZM15.583 183.794C15.2933 183.794 15.016 183.858 14.822 183.97C14.6854 184.05 14.6402 184.127 14.6402 184.151C14.6402 184.171 14.6748 184.248 14.8278 184.336C15.2165 184.56 15.9687 184.561 16.3521 184.337C16.4905 184.257 16.5345 184.181 16.5345 184.157C16.5345 184.136 16.4999 184.06 16.3468 183.971C16.1528 183.858 15.8743 183.794 15.583 183.794Z" fill="#373B42"/>
<path d="M1.18752 28.1867L1.31767 63.0692C1.32471 64.2962 1.75619 65.1604 2.4556 65.5649L5.9802 67.6221C5.89812 67.567 5.81546 67.5124 5.74042 67.4439L5.73338 67.4368C5.67827 67.3958 5.63079 67.3477 5.58271 67.2932L5.57568 67.2862C5.51412 67.2176 5.45901 67.149 5.40449 67.0669L5.39746 67.0599C5.3359 66.9778 5.28079 66.8887 5.23975 66.7925C5.19871 66.7239 5.16413 66.6483 5.13716 66.5662C5.10315 66.4912 5.0756 66.4085 5.04805 66.3194C5.02049 66.2367 4.99997 66.1412 4.97945 66.0521C4.96597 65.997 4.95893 65.9424 4.9519 65.8873C4.9519 65.8803 4.94486 65.8668 4.94486 65.8598C4.93783 65.8117 4.93138 65.7572 4.92435 65.7091C4.91731 65.6405 4.91086 65.5719 4.90382 65.5033C4.89679 65.3867 4.89034 65.27 4.89034 65.1539L4.76019 30.2714C4.75315 27.8033 6.48145 24.7999 8.6342 23.5587L42.8906 3.80587C43.6381 3.3738 44.3375 3.21609 44.9272 3.29172C45.0093 3.29876 45.092 3.31927 45.167 3.33979C45.1741 3.33979 45.1805 3.33979 45.1805 3.33979C45.2561 3.36031 45.3312 3.38787 45.4068 3.41542C45.4203 3.42246 45.4273 3.42246 45.4408 3.42949C45.5094 3.45705 45.5709 3.49105 45.6331 3.52564L42.088 1.45496C41.3815 1.04341 40.4013 1.09852 39.3179 1.7223L5.06153 21.4752C2.91523 22.7151 1.18049 25.7185 1.18752 28.1867Z" fill="#212121"/>
<path d="M5.9803 67.8093C5.94805 67.8093 5.91522 67.8011 5.88591 67.7835L2.3619 65.7263C1.57514 65.272 1.1372 64.3281 1.13017 63.07L1.00002 28.1875V28.1869C0.993569 25.6648 2.77345 22.5805 4.96841 21.3118L39.2242 1.55838C40.3328 0.919942 41.3828 0.82614 42.1825 1.29163L45.7276 3.36231C45.8161 3.4139 45.846 3.52763 45.7956 3.61674C45.7452 3.70585 45.6338 3.73868 45.5417 3.68768C45.4866 3.65719 45.4327 3.62671 45.3711 3.60208C45.3653 3.59974 45.326 3.58274 45.3201 3.5798C45.2768 3.56573 45.2134 3.54287 45.1489 3.52411C45.1372 3.52294 45.1261 3.52177 45.1185 3.51942C45.0534 3.50183 44.983 3.48307 44.9121 3.47721C44.3376 3.4051 43.668 3.57277 42.9845 3.96674L8.7281 23.7202C6.63691 24.925 4.94144 27.8633 4.94789 30.2699L5.07804 65.1518C5.07804 65.255 5.08391 65.357 5.08977 65.459L5.13139 65.833C5.13784 65.853 5.14019 65.8647 5.14019 65.8864C5.14429 65.911 5.14957 65.9579 5.16129 66.0042C5.18709 66.1162 5.2035 66.1918 5.22637 66.2581C5.25216 66.3443 5.27679 66.4193 5.30844 66.4873C5.33834 66.5747 5.36707 66.638 5.40166 66.6954C5.44504 66.7933 5.49018 66.8701 5.54822 66.9463C5.61095 67.0366 5.66079 67.0988 5.7159 67.1603C5.76925 67.2201 5.80735 67.2565 5.84663 67.2864C5.93574 67.3673 6.00961 67.4159 6.08524 67.4652C6.16966 67.5215 6.19428 67.6346 6.14035 67.7208C6.104 67.7777 6.04244 67.8093 5.9803 67.8093ZM1.37464 28.1857L1.50479 63.0682C1.51124 64.188 1.88234 65.017 2.55009 65.4027L5.07101 66.8742C5.07042 66.8713 5.06866 66.869 5.06808 66.866C5.03056 66.808 4.99069 66.7189 4.95962 66.6251C4.92972 66.5618 4.89865 66.4715 4.86875 66.3742C4.84471 66.302 4.82419 66.2129 4.80426 66.1273C4.7814 66.0359 4.77377 65.9732 4.76615 65.9098C4.75912 65.8899 4.75736 65.8811 4.75736 65.86L4.71691 65.5217C4.70811 65.3722 4.70225 65.2632 4.70225 65.1541L4.5721 30.2728C4.56565 27.7466 6.34554 24.6623 8.53991 23.3966L42.7963 3.64371C43.3884 3.3025 43.9747 3.11431 44.5158 3.08911L41.9937 1.61583C41.316 1.22069 40.3979 1.31625 39.4112 1.88434L5.15543 21.6372C3.06483 22.8449 1.36878 25.7832 1.37464 28.1857Z" fill="#373B42"/>
<path d="M5.9803 67.8093C5.94805 67.8093 5.91522 67.8011 5.88591 67.7835L2.3619 65.7263C1.57514 65.272 1.1372 64.3281 1.13017 63.07L1.00002 28.1875V28.1869C0.993569 25.6648 2.77345 22.5805 4.96841 21.3118L39.2242 1.55838C40.3328 0.919942 41.3828 0.82614 42.1825 1.29163L45.7276 3.36231C45.8161 3.4139 45.846 3.52763 45.7956 3.61674C45.7452 3.70585 45.6338 3.73868 45.5417 3.68768C45.4866 3.65719 45.4327 3.62671 45.3711 3.60208C45.3653 3.59974 45.326 3.58274 45.3201 3.5798C45.2768 3.56573 45.2134 3.54287 45.1489 3.52411C45.1372 3.52294 45.1261 3.52177 45.1185 3.51942C45.0534 3.50183 44.983 3.48307 44.9121 3.47721C44.3376 3.4051 43.668 3.57277 42.9845 3.96674L8.7281 23.7202C6.63691 24.925 4.94144 27.8633 4.94789 30.2699L5.07804 65.1518C5.07804 65.255 5.08391 65.357 5.08977 65.459L5.13139 65.833C5.13784 65.853 5.14019 65.8647 5.14019 65.8864C5.14429 65.911 5.14957 65.9579 5.16129 66.0042C5.18709 66.1162 5.2035 66.1918 5.22637 66.2581C5.25216 66.3443 5.27679 66.4193 5.30844 66.4873C5.33834 66.5747 5.36707 66.638 5.40166 66.6954C5.44504 66.7933 5.49018 66.8701 5.54822 66.9463C5.61095 67.0366 5.66079 67.0988 5.7159 67.1603C5.76925 67.2201 5.80735 67.2565 5.84663 67.2864C5.93574 67.3673 6.00961 67.4159 6.08524 67.4652C6.16966 67.5215 6.19428 67.6346 6.14035 67.7208C6.104 67.7777 6.04244 67.8093 5.9803 67.8093ZM1.37464 28.1857L1.50479 63.0682C1.51124 64.188 1.88234 65.017 2.55009 65.4027L5.07101 66.8742C5.07042 66.8713 5.06866 66.869 5.06808 66.866C5.03056 66.808 4.99069 66.7189 4.95962 66.6251C4.92972 66.5618 4.89865 66.4715 4.86875 66.3742C4.84471 66.302 4.82419 66.2129 4.80426 66.1273C4.7814 66.0359 4.77377 65.9732 4.76615 65.9098C4.75912 65.8899 4.75736 65.8811 4.75736 65.86L4.71691 65.5217C4.70811 65.3722 4.70225 65.2632 4.70225 65.1541L4.5721 30.2728C4.56565 27.7466 6.34554 24.6623 8.53991 23.3966L42.7963 3.64371C43.3884 3.3025 43.9747 3.11431 44.5158 3.08911L41.9937 1.61583C41.316 1.22069 40.3979 1.31625 39.4112 1.88434L5.15543 21.6372C3.06483 22.8449 1.36878 25.7832 1.37464 28.1857Z" fill="#373B42"/>
<path d="M4.75978 30.2711L4.88993 65.1536C4.88993 65.2702 4.89697 65.3869 4.90342 65.503C4.91045 65.5716 4.91691 65.6401 4.92394 65.7087C4.93098 65.7568 4.93742 65.8119 4.94446 65.8594C4.94446 65.8664 4.95149 65.8799 4.95149 65.887C4.95853 65.9421 4.96498 65.9966 4.97905 66.0517C4.99956 66.1408 5.02009 66.237 5.04764 66.319C5.07519 66.4081 5.10275 66.4902 5.13675 66.5659C5.16431 66.6479 5.19831 66.7236 5.23935 66.7922C5.28742 66.8883 5.34194 66.9774 5.39705 67.0595L5.40408 67.0665C5.45919 67.1492 5.51372 67.2172 5.57528 67.2858L5.58231 67.2928C5.63038 67.3479 5.67846 67.3954 5.73298 67.4365L5.74001 67.4435C5.81564 67.5121 5.89772 67.5666 5.97979 67.6217L5.98683 67.6287C6.69327 68.0608 7.68698 68.0127 8.78446 67.3749L43.0408 47.6291C45.1942 46.3879 46.9289 43.3781 46.9219 40.9093L46.7917 6.03388C46.7847 4.79277 46.3462 3.92862 45.6327 3.52411C45.5711 3.4901 45.509 3.45551 45.4404 3.42796C45.4269 3.42092 45.4199 3.42092 45.4064 3.41389C45.3308 3.38633 45.2557 3.35878 45.1801 3.33826C45.1801 3.33826 45.1731 3.33826 45.1666 3.33826C45.091 3.31774 45.0089 3.29722 44.9268 3.29019C44.337 3.21456 43.6376 3.37226 42.8902 3.80434L8.63379 23.5572C6.48105 24.7995 4.75333 27.8023 4.75978 30.2711Z" fill="#FFF7E4"/>
<path d="M7.03595 68.0952C6.61384 68.0952 6.22398 67.9932 5.88805 67.788C5.87398 67.7792 5.86167 67.7693 5.84994 67.757C5.78545 67.7171 5.69575 67.6567 5.61309 67.5811C5.56033 67.5406 5.50346 67.4867 5.44132 67.4158C5.36804 67.3354 5.30824 67.2598 5.24785 67.1695C5.18278 67.0745 5.12357 66.979 5.07139 66.8758C5.02976 66.8072 4.98931 66.7181 4.95883 66.6243C4.92893 66.561 4.89786 66.4707 4.86796 66.3734C4.84392 66.3013 4.8234 66.2122 4.80347 66.1266C4.7806 66.0351 4.77298 65.9724 4.76536 65.9091C4.75832 65.8891 4.75657 65.8803 4.75657 65.8592L4.71611 65.521C4.70732 65.3715 4.70146 65.2624 4.70146 65.1534L4.57131 30.2721V30.2715C4.56486 27.7459 6.34475 24.6615 8.53912 23.3958L42.7955 3.64293C43.55 3.20792 44.2969 3.02208 44.9494 3.10533C45.0286 3.11178 45.1153 3.13171 45.1968 3.1534C45.2085 3.15457 45.2203 3.15633 45.2285 3.15868C45.3088 3.18037 45.3903 3.20968 45.4706 3.239C45.4788 3.24193 45.5198 3.25893 45.5269 3.26303C45.5855 3.28473 45.6535 3.32225 45.7221 3.36035C46.5264 3.81646 46.9714 4.76503 46.9779 6.03311L47.108 40.9092C47.1145 43.4365 45.3316 46.5244 43.1332 47.7919L8.87739 67.5377C8.23954 67.9076 7.60814 68.0952 7.03595 68.0952ZM6.0991 67.4779C6.77037 67.8777 7.71308 67.7816 8.69037 67.2129L42.9467 47.4665C45.0415 46.2588 46.741 43.3175 46.7346 40.9098L46.6044 6.03429C46.5986 4.90632 46.221 4.07266 45.5409 3.6869C45.487 3.65759 45.4325 3.62651 45.3709 3.60248C45.3651 3.60013 45.3258 3.58313 45.3199 3.5802C45.2765 3.56613 45.2132 3.54327 45.1487 3.52451C45.137 3.52333 45.1259 3.52216 45.1182 3.51981C45.0532 3.50223 44.9828 3.48347 44.9119 3.4776C44.3373 3.40549 43.6678 3.57316 42.9843 3.96713L8.72789 23.7206C6.6367 24.9254 4.94183 27.8637 4.94769 30.2703L5.07784 65.1528C5.07784 65.256 5.0837 65.358 5.08956 65.46L5.13119 65.834C5.13764 65.854 5.13998 65.8657 5.13998 65.8874C5.14408 65.912 5.14936 65.9589 5.16109 66.0052C5.18688 66.1172 5.2033 66.1928 5.22616 66.2591C5.25196 66.3452 5.27658 66.4203 5.30824 66.4883C5.33814 66.5756 5.36686 66.639 5.40145 66.6964C5.45246 66.7973 5.50288 66.8799 5.55447 66.9561C5.61075 67.037 5.66058 67.0992 5.71569 67.1613C5.76904 67.2211 5.80715 67.2575 5.84642 67.2874C5.93554 67.3683 6.0094 67.4169 6.08503 67.4662C6.08796 67.4685 6.09383 67.4732 6.0991 67.4779Z" fill="#373B42"/>
<path d="M31.0691 24.5827C30.9108 24.6741 30.7531 24.8383 30.6376 25.0511L26.2999 32.9855C25.9528 33.6187 26.2254 34.168 26.7402 33.8708L28.5986 32.7979L28.6449 47.2516C28.6455 47.5312 28.8402 47.6485 29.0887 47.5049L33.1926 45.1352C33.4359 44.9945 33.6346 44.6509 33.6334 44.3713L33.5871 29.9176L35.4456 28.8448C35.9597 28.5475 36.2235 27.6893 35.8683 27.4612L31.5053 24.5498C31.3869 24.4724 31.2274 24.4912 31.0691 24.5827Z" fill="#212121"/>
<path d="M20.6916 54.9847C20.8499 54.8933 21.0076 54.7291 21.1231 54.5163L25.4608 46.5818C25.8079 45.9481 25.5353 45.3994 25.0205 45.6966L23.1621 46.7694L23.1158 32.3158C23.1152 32.0361 22.9206 31.9189 22.672 32.0625L18.5682 34.4322C18.3249 34.5729 18.1261 34.9164 18.1273 35.1961L18.1736 49.6497L16.3152 50.7226C15.801 51.0198 15.5372 51.8781 15.8925 52.1062L20.2554 55.0175C20.3744 55.0949 20.5333 55.0762 20.6916 54.9847Z" fill="#212121"/>
<path d="M10.2925 28.7745C11.0195 28.3547 11.6069 28.7006 11.6093 29.5354C11.6116 30.382 11.0283 31.3921 10.3013 31.8119C9.55561 32.2428 8.96818 31.908 8.96583 31.0615C8.9629 30.2272 9.54682 29.2054 10.2925 28.7745Z" fill="#FFBE2E"/>
<path d="M9.69016 32.1881C9.53304 32.1881 9.38589 32.1506 9.25515 32.0756C8.94854 31.8991 8.77852 31.5392 8.77735 31.0619C8.77501 30.1491 9.39878 29.0728 10.1979 28.612C10.6077 28.3751 11.0051 28.3429 11.3123 28.5199C11.6225 28.6987 11.7942 29.0587 11.7954 29.5347C11.7978 30.447 11.1822 31.5186 10.3937 31.9736C10.148 32.1166 9.90883 32.1881 9.69016 32.1881ZM10.8756 28.7826C10.7302 28.7826 10.5625 28.8347 10.3855 28.9367C9.70305 29.3307 9.15021 30.284 9.15197 31.0619C9.15256 31.399 9.25574 31.6441 9.44276 31.7514C9.63388 31.8604 9.90531 31.8247 10.2067 31.6505C10.8785 31.2624 11.4231 30.3145 11.4208 29.5365C11.4202 29.2 11.3153 28.9549 11.1259 28.8459C11.0526 28.8037 10.9688 28.7826 10.8756 28.7826Z" fill="#373B42"/>
<path d="M15.1316 29.0463C14.9744 29.0463 14.8273 29.0088 14.6966 28.9337C14.3899 28.7573 14.2199 28.3973 14.2188 27.9207C14.2164 27.0084 14.8402 25.9321 15.6393 25.4707C16.0491 25.2332 16.4442 25.201 16.7549 25.3792C17.0645 25.5574 17.2357 25.918 17.2374 26.3935C17.2398 27.3057 16.6242 28.3774 15.8357 28.8323C15.5894 28.9748 15.3502 29.0463 15.1316 29.0463ZM15.8269 25.7949C15.1445 26.1888 14.5916 27.1421 14.5934 27.9201C14.594 28.2572 14.6971 28.5022 14.8842 28.6095C15.0753 28.718 15.3467 28.6828 15.6481 28.5087C16.3199 28.1206 16.8646 27.1726 16.8622 26.3946C16.8616 26.0581 16.7567 25.813 16.5673 25.704C16.3768 25.595 16.1153 25.6284 15.8269 25.7949Z" fill="#373B42"/>
<path d="M20.5736 25.9041C20.4153 25.9041 20.2693 25.8666 20.138 25.7915C19.8314 25.6151 19.6613 25.2551 19.6602 24.7779C19.6578 23.8657 20.2816 22.7893 21.0807 22.3279C21.4905 22.0911 21.8856 22.0582 22.1963 22.2365C22.5059 22.4147 22.6771 22.7752 22.6788 23.2507C22.6812 24.1635 22.0656 25.2352 21.2771 25.6901C21.0308 25.8332 20.7916 25.9041 20.5736 25.9041ZM21.2683 22.6527C20.5865 23.0467 20.033 23.9999 20.0348 24.7779C20.0354 25.115 20.1386 25.3601 20.3256 25.4673C20.5167 25.577 20.7875 25.5412 21.0895 25.3665C21.7613 24.9784 22.306 24.0298 22.3036 23.2519C22.303 22.9154 22.1981 22.6703 22.0087 22.5612C21.8194 22.4528 21.5561 22.4862 21.2683 22.6527Z" fill="#373B42"/>
</g>
</svg>
