<svg width="194" height="194" viewBox="0 0 194 194" fill="none" xmlns="http://www.w3.org/2000/svg">
<mask id="mask0_3197_23004" style="mask-type:alpha" maskUnits="userSpaceOnUse" x="0" y="0" width="194" height="194">
<rect width="194" height="194" fill="#D9D9D9"/>
</mask>
<g mask="url(#mask0_3197_23004)">
<path d="M128.972 183.34C128.941 183.34 128.911 183.332 128.883 183.315L109.873 172.34C109.094 171.89 108.664 171.281 108.663 170.625C108.662 169.973 109.085 169.368 109.854 168.92L128.741 157.944C128.827 157.895 128.936 157.923 128.986 158.01C129.036 158.095 129.007 158.205 128.922 158.255L110.035 169.231C109.381 169.611 109.021 170.106 109.022 170.624C109.023 171.147 109.389 171.646 110.052 172.029L129.062 183.005C129.147 183.054 129.177 183.164 129.128 183.25C129.094 183.307 129.034 183.34 128.972 183.34Z" fill="#939393"/>
<path d="M127.683 184.84C126.385 184.091 126.378 182.875 127.668 182.125C128.957 181.376 131.057 181.376 132.355 182.126C133.653 182.875 133.659 184.091 132.369 184.84C131.08 185.59 128.982 185.59 127.683 184.84Z" fill="white"/>
<path d="M130.029 185.578C129.147 185.578 128.266 185.384 127.593 184.995C126.905 184.598 126.526 184.059 126.525 183.478C126.525 182.9 126.898 182.364 127.576 181.97C128.914 181.192 131.098 181.193 132.444 181.97C133.131 182.367 133.511 182.906 133.511 183.487C133.512 184.064 133.139 184.6 132.46 184.995C131.79 185.383 130.91 185.578 130.029 185.578ZM127.773 184.685C129.018 185.404 131.041 185.404 132.279 184.684C132.843 184.357 133.153 183.931 133.153 183.487C133.152 183.04 132.837 182.611 132.265 182.281C131.018 181.561 128.994 181.561 127.757 182.28C127.194 182.608 126.884 183.033 126.884 183.477C126.885 183.925 127.201 184.354 127.773 184.685Z" fill="#DBDEE4"/>
<path d="M130.009 182.627C130.515 182.627 131.005 182.742 131.353 182.943C131.632 183.104 131.793 183.302 131.793 183.487C131.793 183.669 131.636 183.864 131.362 184.024C131.017 184.224 130.529 184.339 130.023 184.339C129.518 184.339 129.028 184.224 128.681 184.024C128.401 183.862 128.241 183.664 128.24 183.479C128.24 183.297 128.397 183.102 128.671 182.942C129.016 182.742 129.504 182.627 130.009 182.627Z" fill="#FFBE2E"/>
<path d="M118.583 176.171C119.098 176.171 119.596 176.288 119.95 176.492C120.234 176.656 120.397 176.858 120.397 177.045C120.397 177.23 120.237 177.429 119.958 177.591C119.608 177.795 119.112 177.912 118.598 177.912C118.083 177.912 117.586 177.795 117.232 177.591C116.948 177.427 116.784 177.225 116.784 177.038C116.784 176.853 116.944 176.654 117.222 176.492C117.573 176.288 118.069 176.171 118.583 176.171Z" fill="#383C43"/>
<path d="M64.2191 181.871C63.4891 181.871 62.7585 181.71 62.201 181.388L56.1727 177.908C56.0872 177.858 56.0577 177.748 56.1067 177.663C56.1566 177.576 56.2681 177.548 56.3522 177.597L62.3805 181.077C63.3959 181.663 65.0451 181.664 66.0535 181.077L116.581 151.458C116.665 151.408 116.776 151.436 116.827 151.522C116.877 151.607 116.848 151.718 116.762 151.768L66.2344 181.387C65.6797 181.71 64.9498 181.871 64.2191 181.871Z" fill="#939393"/>
<path d="M92.8428 164.59C93.3574 164.59 93.8555 164.707 94.2094 164.911C94.4935 165.075 94.6566 165.277 94.6568 165.464C94.6571 165.649 94.4972 165.848 94.2182 166.01C93.8673 166.214 93.3713 166.331 92.8573 166.331C92.3431 166.331 91.8454 166.214 91.4919 166.01C91.2074 165.846 91.0443 165.644 91.0439 165.457C91.0437 165.272 91.2035 165.073 91.4823 164.911C91.8328 164.707 92.3287 164.59 92.8428 164.59Z" fill="#383C43"/>
<path d="M93.865 95.3299C93.8348 95.3299 93.804 95.3222 93.776 95.3064L46.0081 68.0827C45.5425 67.8169 45.2507 67.319 45.2458 66.7834L45.0635 44.4768C45.0627 44.3765 45.1441 44.2991 45.243 44.2959C45.3412 44.2959 45.4218 44.3751 45.4226 44.474L45.6049 66.7802C45.6084 67.1887 45.8314 67.5683 46.1862 67.7707L93.9541 94.9944C94.0404 95.0435 94.0698 95.1532 94.0207 95.2394C93.9878 95.2974 93.9275 95.3299 93.865 95.3299Z" fill="#939393"/>
<g opacity="0.1">
<path d="M89.0908 132.864C87.79 133.615 87.7902 134.836 89.0826 135.587L172.786 184.208C174.078 184.959 176.178 184.959 177.479 184.208L188.017 178.124C189.318 177.373 189.324 176.156 188.032 175.405L104.329 126.785C103.036 126.034 100.929 126.029 99.6285 126.78L89.0908 132.864Z" fill="#010101"/>
</g>
<path d="M85.2246 125.901L85.2487 130.63C85.2487 131.12 85.5697 131.601 86.2121 131.979L169.918 180.608C170.118 180.729 170.343 180.825 170.576 180.905C171.62 181.259 172.928 181.259 173.964 180.897C174.197 180.825 174.414 180.721 174.614 180.608L185.156 174.523C185.806 174.145 186.135 173.648 186.135 173.15L186.119 168.429C186.119 168.919 185.798 169.416 185.132 169.794L174.606 175.871C174.406 175.984 174.197 176.08 173.964 176.16C172.928 176.522 171.62 176.53 170.576 176.177C170.335 176.096 170.11 175.992 169.91 175.871L86.2041 127.25C85.5618 126.889 85.2407 126.391 85.2246 125.901Z" fill="#212121"/>
<path d="M170.576 176.177V180.905C171.62 181.259 172.929 181.259 173.964 180.897V176.161C172.928 176.522 171.62 176.53 170.576 176.177Z" fill="#FFBE2E"/>
<path d="M172.266 181.345C171.383 181.345 170.5 181.15 169.828 180.76L86.1229 132.136C85.4441 131.738 85.0703 131.203 85.0703 130.63L85.0479 125.901C85.0472 125.803 85.1264 125.723 85.2245 125.721C85.2259 125.721 85.2266 125.721 85.2273 125.721C85.3247 125.721 85.4047 125.799 85.4068 125.896C85.4174 126.345 85.7392 126.781 86.291 127.095L169.998 175.72C171.231 176.443 173.257 176.444 174.512 175.719L185.04 169.636C185.618 169.308 185.936 168.88 185.936 168.43C185.936 168.331 186.016 168.25 186.115 168.25C186.115 168.25 186.115 168.25 186.115 168.25C186.214 168.25 186.294 168.33 186.295 168.429L186.317 173.147C186.317 173.734 185.935 174.277 185.242 174.677L174.703 180.76C174.031 181.15 173.149 181.345 172.266 181.345ZM85.4112 126.829L85.4294 130.629C85.4294 131.071 85.74 131.495 86.3038 131.826L170.009 180.449C171.253 181.172 173.279 181.172 174.523 180.449L185.062 174.366C185.64 174.033 185.958 173.6 185.958 173.148L185.94 169.361C185.762 169.578 185.519 169.777 185.218 169.947L174.692 176.03C173.336 176.812 171.149 176.811 169.817 176.03L86.1117 127.407C85.8234 127.242 85.5871 127.046 85.4112 126.829Z" fill="#383C43"/>
<path d="M86.2099 124.533C84.9092 125.284 84.9094 126.505 86.2017 127.256L169.905 175.876C171.198 176.628 173.297 176.628 174.598 175.876L185.136 169.793C186.437 169.042 186.444 167.825 185.151 167.074L101.448 118.454C100.156 117.702 98.0485 117.698 96.7477 118.449L86.2099 124.533Z" fill="#FFF7E4"/>
<path d="M172.249 176.616C171.366 176.616 170.485 176.421 169.815 176.032L86.1112 127.411C85.4289 127.014 85.0531 126.476 85.0537 125.895C85.0545 125.313 85.4338 124.775 86.1202 124.378L96.658 118.294C98.0064 117.516 100.196 117.518 101.538 118.298L185.241 166.919C185.921 167.315 186.296 167.851 186.295 168.429C186.294 169.011 185.914 169.55 185.226 169.948L174.688 176.032C174.014 176.421 173.131 176.616 172.249 176.616ZM86.2997 124.688C85.7282 125.018 85.4134 125.447 85.4127 125.896C85.4119 126.343 85.7241 126.771 86.292 127.1L169.996 175.721C171.236 176.442 173.261 176.442 174.508 175.721L185.046 169.637C185.62 169.306 185.935 168.877 185.936 168.429C185.937 167.984 185.626 167.558 185.06 167.23L101.358 118.609C100.113 117.886 98.0849 117.884 96.8375 118.605L86.2997 124.688Z" fill="#383C43"/>
<path d="M93.4082 8.79668C94.3259 8.25837 95.5968 8.33781 96.9999 9.14086L169.887 51.2198C170.531 51.5905 171.14 52.0847 171.705 52.6671C173.125 54.1233 174.237 56.1265 174.687 58.0768C174.838 58.7034 174.917 59.3299 174.917 59.9301L174.758 167.084C174.758 168.681 174.185 169.793 173.284 170.322L178.923 167.057C179.824 166.528 180.388 165.407 180.397 163.809L180.556 56.6473C180.556 56.0561 180.485 55.4383 180.335 54.8117C179.885 52.8615 178.782 50.867 177.353 49.4021C176.797 48.8197 176.17 48.3167 175.526 47.9461L102.639 5.87597C101.236 5.06408 99.965 4.99348 99.0472 5.51422L93.4082 8.79668Z" fill="#212121"/>
<path d="M171.706 52.667C173.127 54.1231 174.239 56.1263 174.689 58.0767L180.337 54.8115C179.887 52.8612 178.784 50.8667 177.354 49.4019L171.706 52.667Z" fill="#FFBE2E"/>
<path d="M173.285 170.502C173.223 170.502 173.163 170.47 173.13 170.413C173.08 170.327 173.109 170.218 173.194 170.168C173.195 170.167 173.195 170.167 173.195 170.167C174.087 169.641 174.579 168.546 174.579 167.084L174.738 59.9297C174.738 59.3497 174.662 58.7404 174.514 58.1188C174.076 56.2185 172.977 54.2282 171.577 52.7928C171.004 52.202 170.406 51.7255 169.797 51.3756L96.9108 9.29634C95.6108 8.55239 94.4019 8.42759 93.5092 8.94609L93.5029 8.94992C93.5015 8.95024 93.5008 8.95099 93.4994 8.95173C93.4124 9.00189 93.3038 8.97282 93.2539 8.8872C93.2041 8.80169 93.2328 8.6919 93.3185 8.64174L93.3227 8.63897C93.3235 8.63865 93.3241 8.63823 93.3249 8.63791L98.9577 5.35907C99.9828 4.7771 101.322 4.90606 102.729 5.7205L175.617 47.7907C176.266 48.1641 176.911 48.6787 177.483 49.2783C178.948 50.7793 180.053 52.7822 180.511 54.7712C180.661 55.3956 180.736 56.0274 180.736 56.6472L180.577 163.81C180.569 165.416 180.014 166.624 179.015 167.212L173.375 170.477C173.347 170.494 173.316 170.502 173.285 170.502ZM94.737 8.2719C95.4607 8.2719 96.2614 8.51097 97.0896 8.98539L169.977 51.0647C170.614 51.4307 171.239 51.9282 171.834 52.5424C173.278 54.0223 174.411 56.0765 174.863 58.0368C175.019 58.6844 175.097 59.3217 175.097 59.9301L174.938 167.084C174.938 168.046 174.737 168.866 174.356 169.495L178.835 166.902C179.719 166.382 180.21 165.283 180.218 163.809L180.377 56.6471C180.377 56.0557 180.304 55.4523 180.161 54.8534C179.723 52.9535 178.626 50.9631 177.225 49.5277C176.675 48.9509 176.057 48.4583 175.437 48.1018L102.55 6.03113C101.258 5.28325 100.046 5.15461 99.1365 5.67002L94.6662 8.27254C94.6894 8.27222 94.7132 8.2719 94.737 8.2719Z" fill="#383C43"/>
<path d="M174.891 70.1331C174.829 70.1331 174.768 70.1012 174.735 70.0437C174.686 69.9578 174.715 69.8481 174.801 69.7982L180.44 66.533C180.523 66.4836 180.635 66.5119 180.685 66.5982C180.734 66.6841 180.706 66.7938 180.619 66.8437L174.98 70.1089C174.952 70.1255 174.921 70.1331 174.891 70.1331Z" fill="#383C43"/>
<path d="M174.767 163.082C174.706 163.082 174.645 163.05 174.612 162.993C174.562 162.907 174.591 162.797 174.677 162.747L180.316 159.473C180.401 159.423 180.512 159.452 180.561 159.538C180.611 159.624 180.582 159.734 180.497 159.784L174.858 163.058C174.829 163.075 174.798 163.082 174.767 163.082Z" fill="#383C43"/>
<path d="M100.733 11.4729C100.671 11.4729 100.611 11.4409 100.578 11.3835C100.528 11.2976 100.557 11.1879 100.643 11.1381L106.273 7.87284C106.357 7.82343 106.468 7.85186 106.518 7.93801C106.568 8.02395 106.539 8.13364 106.453 8.18347L100.823 11.4487C100.795 11.4652 100.764 11.4729 100.733 11.4729Z" fill="#383C43"/>
<path d="M91.9347 12.0278C91.9437 8.82826 94.2164 7.54058 97.0009 9.14826L169.885 51.2189C172.676 52.8303 174.928 56.73 174.919 59.9294L174.89 69.9384L91.9062 22.0368L91.9347 12.0278Z" fill="#FFBE2E"/>
<path d="M174.89 70.1178C174.859 70.1178 174.828 70.1097 174.8 70.0936L91.8163 22.1919C91.761 22.1599 91.7266 22.1004 91.7266 22.0362L91.7553 12.0272C91.7602 10.4206 92.3177 9.21665 93.3253 8.63639C94.3435 8.05122 95.6785 8.17784 97.0908 8.9926L169.975 51.0635C172.81 52.6997 175.108 56.677 175.098 59.9295L175.07 69.9386C175.07 70.0027 175.035 70.062 174.98 70.0939C174.952 70.1098 174.921 70.1178 174.89 70.1178ZM92.0857 21.9331L174.711 69.628L174.739 59.9289C174.749 56.7909 172.531 52.9532 169.796 51.3741L96.9114 9.30323C95.6155 8.55471 94.4038 8.42916 93.5048 8.94766C92.6122 9.46094 92.1186 10.5551 92.1144 12.0277L92.0857 21.9331Z" fill="#383C43"/>
<path d="M174.89 69.9387L174.755 167.087C174.746 170.294 172.48 171.586 169.689 169.974L96.8048 127.904C94.0204 126.296 91.7625 122.393 91.7715 119.186L91.9062 22.0371L174.89 69.9387Z" fill="#FFF7E4"/>
<path d="M171.958 170.849C171.231 170.849 170.428 170.608 169.599 170.129L96.7149 128.059C93.8806 126.423 91.5827 122.441 91.5918 119.185L91.7264 22.0364C91.7264 21.9727 91.7608 21.9133 91.8162 21.8812C91.8723 21.8497 91.9396 21.8492 91.9958 21.8815L174.98 69.7832C175.035 69.8152 175.07 69.8747 175.07 69.9389L174.935 167.087C174.93 168.7 174.373 169.908 173.364 170.488C172.944 170.729 172.47 170.849 171.958 170.849ZM92.0849 22.3474L91.9509 119.186C91.9418 122.328 94.1597 126.169 96.8944 127.748L169.779 169.819C171.076 170.567 172.286 170.695 173.185 170.177C174.078 169.663 174.572 168.566 174.576 167.087L174.71 70.0419L92.0849 22.3474Z" fill="#383C43"/>
<path d="M112.746 24.9094C111.814 24.371 111.064 24.7983 111.061 25.8697C111.058 26.9321 111.803 28.2319 112.735 28.7703C113.668 29.3086 114.418 28.872 114.421 27.8097C114.424 26.7383 113.679 25.4477 112.746 24.9094Z" fill="#212121"/>
<path d="M105.73 20.8595C104.806 20.3257 104.048 20.7484 104.045 21.8199C104.042 22.8824 104.795 24.1868 105.719 24.7205C106.652 25.2588 107.402 24.8223 107.405 23.7598C107.408 22.6884 106.663 21.3978 105.73 20.8595Z" fill="#212121"/>
<path d="M98.7157 16.8044C97.7891 16.2694 97.0373 16.6978 97.0342 17.7717C97.0312 18.8367 97.7781 20.1396 98.7047 20.6747C99.6395 21.2143 100.391 20.7767 100.394 19.7117C100.397 18.6376 99.6505 17.3441 98.7157 16.8044Z" fill="#212121"/>
<path d="M127.394 42.5109L110.42 52.4328L98.5459 45.5772L115.519 35.6553L127.394 42.5109Z" fill="#FFBE2E"/>
<path d="M110.421 52.6122C110.39 52.6122 110.359 52.6041 110.331 52.588L98.457 45.7323C98.4016 45.7003 98.3672 45.6414 98.3672 45.5773C98.3672 45.5135 98.4008 45.4542 98.4562 45.422L115.429 35.5002C115.484 35.4676 115.552 35.4672 115.609 35.4999L127.483 42.3557C127.539 42.3876 127.573 42.4465 127.573 42.5106C127.573 42.5744 127.54 42.6337 127.484 42.6659L110.511 52.5877C110.483 52.6042 110.453 52.6122 110.421 52.6122ZM98.9043 45.5759L110.42 52.2252L127.036 42.512L115.52 35.8627L98.9043 45.5759Z" fill="#383C43"/>
<path d="M163.013 63.0755L146.039 72.9975L134.17 66.1445L151.143 56.2227L163.013 63.0755Z" fill="white"/>
<path d="M146.04 73.1768C146.009 73.1768 145.978 73.1687 145.95 73.1526L134.08 66.2996C134.025 66.2677 133.99 66.2088 133.99 66.1447C133.99 66.0809 134.024 66.0216 134.079 65.9894L151.053 56.0676C151.109 56.035 151.177 56.0346 151.233 56.0673L163.102 62.9203C163.158 62.9522 163.192 63.0111 163.192 63.0752C163.192 63.139 163.159 63.1983 163.103 63.2306L146.13 73.1524C146.102 73.1687 146.071 73.1768 146.04 73.1768ZM134.527 66.1433L146.039 72.7897L162.655 63.0765L151.144 56.4301L134.527 66.1433Z" fill="#383C43"/>
<path d="M174.889 69.9309L157.915 79.8528L146.041 72.9971L163.014 63.0752L174.889 69.9309Z" fill="#FFBE2E"/>
<path d="M157.915 80.0321C157.884 80.0321 157.854 80.024 157.825 80.0079L145.951 73.1522C145.896 73.1202 145.861 73.0613 145.861 72.9972C145.861 72.9334 145.895 72.8741 145.95 72.842L162.923 62.9201C162.978 62.8876 163.047 62.8871 163.103 62.9198L174.978 69.7756C175.033 69.8075 175.067 69.8664 175.067 69.9305C175.067 69.9943 175.034 70.0536 174.978 70.0859L158.006 80.0077C157.978 80.024 157.947 80.0321 157.915 80.0321ZM146.399 72.9957L157.915 79.645L174.53 69.9318L163.014 63.2825L146.399 72.9957Z" fill="#383C43"/>
<path d="M151.144 56.2229L134.171 66.1448L122.297 59.2891L139.27 49.3672L151.144 56.2229Z" fill="#FFBE2E"/>
<path d="M134.17 66.3242C134.139 66.3242 134.108 66.3161 134.08 66.3L122.206 59.4442C122.151 59.4123 122.116 59.3534 122.116 59.2893C122.116 59.2255 122.15 59.1662 122.205 59.1339L139.179 49.2121C139.234 49.1795 139.302 49.1792 139.359 49.2118L151.233 56.0675C151.289 56.0995 151.323 56.1584 151.323 56.2225C151.323 56.2863 151.289 56.3456 151.234 56.3777L134.26 66.2996C134.232 66.3162 134.202 66.3242 134.17 66.3242ZM122.653 59.2879L134.169 65.9372L150.786 56.224L139.27 49.5747L122.653 59.2879Z" fill="#383C43"/>
<path d="M139.267 49.3665L122.294 59.2884L110.42 52.4327L127.393 42.5107L139.267 49.3665Z" fill="white"/>
<path d="M122.294 59.4681C122.263 59.4681 122.232 59.46 122.204 59.4439L110.33 52.5882C110.275 52.5562 110.24 52.4973 110.24 52.4332C110.24 52.3694 110.274 52.3101 110.329 52.278L127.302 42.3561C127.357 42.3236 127.425 42.3232 127.482 42.3558L139.357 49.2116C139.413 49.2435 139.447 49.3024 139.447 49.3665C139.447 49.4303 139.413 49.4896 139.358 49.5219L122.384 59.4436C122.357 59.4601 122.326 59.4681 122.294 59.4681ZM110.777 52.4318L122.293 59.0811L138.91 49.3679L127.393 42.7186L110.777 52.4318Z" fill="#383C43"/>
<path d="M115.519 35.6561L98.5463 45.578L86.6768 38.725L103.65 28.8032L115.519 35.6561Z" fill="white"/>
<path d="M98.5457 45.7572C98.5148 45.7572 98.4841 45.7491 98.4559 45.733L86.5859 38.8805C86.5305 38.8485 86.4961 38.7896 86.4961 38.7255C86.4961 38.6618 86.5298 38.6024 86.5851 38.5703L103.559 28.6481C103.615 28.6155 103.683 28.6152 103.739 28.6478L115.608 35.5008C115.664 35.5327 115.698 35.5916 115.698 35.6557C115.698 35.7195 115.664 35.7788 115.609 35.811L98.6362 45.7328C98.6081 45.7491 98.5772 45.7572 98.5457 45.7572ZM87.0332 38.724L98.545 45.3701L115.161 35.6569L103.65 29.0105L87.0332 38.724Z" fill="#383C43"/>
<path d="M103.649 28.803L86.6762 38.7248L74.8018 31.8692L91.775 21.9473L103.649 28.803Z" fill="#FFBE2E"/>
<path d="M86.6759 38.9041C86.6451 38.9041 86.6143 38.896 86.5862 38.8799L74.7118 32.0242C74.6565 31.9922 74.6221 31.9333 74.6221 31.8692C74.6221 31.8055 74.6557 31.7461 74.7111 31.7139L91.6846 21.7917C91.74 21.7591 91.808 21.7587 91.8648 21.7914L103.739 28.6472C103.794 28.6791 103.829 28.738 103.829 28.8021C103.829 28.8659 103.795 28.9252 103.74 28.9574L86.7663 38.8795C86.7383 38.8961 86.7075 38.9041 86.6759 38.9041ZM75.1592 31.8679L86.6752 38.5171L103.292 28.8036L91.7758 22.1543L75.1592 31.8679Z" fill="#383C43"/>
<path d="M122.309 59.3569L122.297 61.8661C122.286 65.6351 124.935 70.2225 128.215 72.1162C131.495 74.0099 134.161 72.4907 134.171 68.7217L134.184 66.2126L122.309 59.3569Z" fill="#FFBE2E"/>
<path d="M130.88 73.1135C130.031 73.1135 129.094 72.8313 128.125 72.2717C124.801 70.3532 122.107 65.6853 122.117 61.8661L122.13 59.3561C122.13 59.2923 122.164 59.2334 122.22 59.2015C122.275 59.17 122.343 59.1695 122.399 59.2018L134.273 66.0576C134.33 66.0898 134.363 66.1495 134.363 66.2139L134.351 68.7231C134.346 70.6059 133.695 72.0157 132.519 72.6927C132.03 72.974 131.477 73.1135 130.88 73.1135ZM122.487 59.6672L122.476 61.8676C122.466 65.5718 125.081 70.0998 128.305 71.9612C129.838 72.8464 131.272 72.9962 132.339 72.3816C133.4 71.7715 133.987 70.4719 133.992 68.722L134.003 66.3164L122.487 59.6672Z" fill="#383C43"/>
<path d="M134.183 66.2134L134.17 68.7225C134.159 72.4915 136.808 77.0789 140.088 78.9726C143.363 80.8636 146.029 79.3444 146.04 75.5754L146.052 73.0663L134.183 66.2134Z" fill="white"/>
<path d="M142.748 79.9678C141.901 79.9678 140.965 79.6863 139.998 79.1282C136.674 77.2096 133.98 72.5417 133.99 68.7225L134.003 66.2126C134.003 66.1488 134.037 66.0899 134.093 66.0579C134.148 66.0264 134.216 66.026 134.272 66.0583L146.142 72.9111C146.198 72.9434 146.232 73.003 146.232 73.0675L146.219 75.5764C146.214 77.4598 145.563 78.8699 144.386 79.547C143.898 79.8283 143.345 79.9678 142.748 79.9678ZM134.361 66.5235L134.349 68.7239C134.339 72.4281 136.954 76.9562 140.178 78.8175C141.708 79.7011 143.14 79.8504 144.208 79.2358C145.268 78.6254 145.855 77.3254 145.86 75.5748L145.872 73.17L134.361 66.5235Z" fill="#383C43"/>
<path d="M146.054 73.0659L146.041 75.575C146.03 79.3441 148.684 83.9342 151.959 85.8252C155.239 87.7189 157.905 86.1997 157.915 82.4308L157.928 79.9217L146.054 73.0659Z" fill="#FFBE2E"/>
<path d="M154.624 86.8223C153.775 86.8223 152.837 86.5401 151.869 85.9808C148.545 84.0623 145.85 79.3939 145.861 75.5744L145.874 73.0651C145.874 73.0013 145.908 72.9424 145.964 72.9105C146.019 72.879 146.087 72.8785 146.143 72.9108L158.017 79.7665C158.074 79.7988 158.107 79.8584 158.107 79.9229L158.095 82.4318C158.09 84.3145 157.439 85.7244 156.263 86.401C155.774 86.6828 155.221 86.8223 154.624 86.8223ZM146.232 73.3763L146.22 75.5764C146.209 79.2805 148.824 83.8086 152.048 85.6703C153.582 86.5552 155.015 86.7056 156.084 86.0903C157.144 85.4799 157.731 84.1801 157.736 82.4306L157.748 80.0254L146.232 73.3763Z" fill="#383C43"/>
<path d="M110.433 52.5015L110.42 55.0106C110.409 58.7796 113.058 63.367 116.338 65.2607C119.618 67.1544 122.284 65.6353 122.294 61.8662L122.307 59.3571L110.433 52.5015Z" fill="white"/>
<path d="M119.003 66.258C118.154 66.258 117.217 65.9758 116.248 65.4162C112.924 63.4977 110.23 58.8298 110.24 55.0106L110.253 52.5007C110.253 52.4369 110.287 52.378 110.343 52.346C110.398 52.3145 110.466 52.3141 110.522 52.3463L122.396 59.2021C122.452 59.2344 122.486 59.294 122.486 59.3584L122.473 61.8677C122.469 63.7504 121.818 65.1602 120.642 65.8372C120.153 66.1185 119.6 66.258 119.003 66.258ZM110.61 52.8117L110.599 55.0121C110.589 58.7163 113.204 63.2444 116.428 65.1057C117.962 65.991 119.395 66.1404 120.463 65.5261C121.523 64.9161 122.11 63.6164 122.115 61.8665L122.127 59.461L110.61 52.8117Z" fill="#383C43"/>
<path d="M86.6893 38.793L86.6768 41.302C86.6661 45.071 89.3145 49.6584 92.5947 51.5521C95.8699 53.4431 98.5406 51.9267 98.5512 48.1576L98.5638 45.6486L86.6893 38.793Z" fill="white"/>
<path d="M95.2573 52.5484C94.4088 52.5484 93.472 52.2665 92.5043 51.7076C89.1806 49.7891 86.4858 45.1208 86.4971 41.3017L86.509 38.7925C86.509 38.7284 86.5434 38.6694 86.5994 38.6375C86.6542 38.606 86.7221 38.6056 86.7782 38.6378L98.6532 45.4936C98.7093 45.5255 98.743 45.5855 98.743 45.6499L98.7303 48.1592C98.7254 50.0405 98.074 51.4496 96.898 52.1266C96.4087 52.4085 95.8547 52.5484 95.2573 52.5484ZM86.8666 39.103L86.8561 41.3031C86.8449 45.0073 89.4597 49.5353 92.6839 51.397C94.2161 52.2819 95.6507 52.4303 96.7186 51.8156C97.7796 51.2052 98.3664 49.9059 98.3713 48.1578L98.3832 45.7523L86.8666 39.103Z" fill="#383C43"/>
<path d="M98.5644 45.6489L98.5518 48.1579C98.5411 51.927 101.19 56.5144 104.465 58.4053C107.745 60.299 110.411 58.7798 110.421 55.0109L110.434 52.5018L98.5644 45.6489Z" fill="#FFBE2E"/>
<path d="M107.129 59.4022C106.281 59.4022 105.343 59.1196 104.374 58.5604C101.054 56.6433 98.3616 51.9765 98.3721 48.1576L98.3848 45.6476C98.3848 45.5838 98.4192 45.5249 98.4752 45.493C98.5299 45.4615 98.5979 45.4611 98.654 45.4933L110.523 52.3462C110.58 52.3785 110.613 52.4381 110.613 52.5025L110.6 55.0119C110.596 56.8946 109.945 58.3044 108.769 58.9811C108.28 59.2627 107.727 59.4022 107.129 59.4022ZM98.7423 45.9587L98.7311 48.1591C98.7205 51.8629 101.333 56.3899 104.554 58.2499C106.088 59.1356 107.521 59.2846 108.589 58.6703C109.65 58.0599 110.237 56.7602 110.242 55.0107L110.253 52.6052L98.7423 45.9587Z" fill="#383C43"/>
<path d="M74.8144 31.9375L74.8018 34.4466C74.7911 38.2156 77.4396 42.803 80.7197 44.6968C83.9998 46.5905 86.6656 45.0713 86.6762 41.3024L86.6888 38.7934L74.8144 31.9375Z" fill="#FFBE2E"/>
<path d="M83.3851 45.6936C82.5359 45.6936 81.5984 45.4114 80.6301 44.8521C77.3063 42.9333 74.6116 38.2649 74.6221 34.4462L74.6348 31.9362C74.6348 31.8724 74.6692 31.8135 74.7252 31.7816C74.7799 31.7501 74.8479 31.7496 74.904 31.7819L86.7783 38.6376C86.8344 38.6696 86.8681 38.7295 86.8681 38.7936L86.8562 41.3029C86.8505 43.186 86.1999 44.5961 85.0239 45.2727C84.5351 45.5541 83.9818 45.6936 83.3851 45.6936ZM74.9923 32.2472L74.9811 34.4476C74.9705 38.1513 77.5854 42.6798 80.8095 44.5415C82.3437 45.4272 83.7756 45.5761 84.845 44.9615C85.9052 44.3514 86.4921 43.0517 86.4971 41.3015L86.5083 38.8963L74.9923 32.2472Z" fill="#383C43"/>
<path d="M174.885 69.9316L157.925 79.9221L174.917 84.3985L174.885 69.9316Z" fill="#FFBE2E"/>
<path d="M174.918 84.5776C174.903 84.5776 174.887 84.5755 174.873 84.5717L157.88 80.0955C157.81 80.0769 157.758 80.0184 157.748 79.9465C157.738 79.8746 157.772 79.8041 157.835 79.7674L174.795 69.7769C174.85 69.7443 174.918 69.7435 174.975 69.7755C175.03 69.8074 175.065 69.8666 175.065 69.9312L175.098 84.3979C175.098 84.4536 175.072 84.5062 175.028 84.5403C174.996 84.5646 174.957 84.5776 174.918 84.5776ZM158.388 79.8581L174.738 84.1649L174.707 70.2452L158.388 79.8581Z" fill="#383C43"/>
<path d="M124.984 103.13C124.79 104.116 123.951 104.417 122.982 103.858L105.075 93.5205C104.106 92.9611 103.272 91.6933 103.084 90.4864L100.549 75.5254L127.599 91.1416L124.984 103.13ZM106.046 89.5734C106.044 90.4506 106.662 91.5174 107.426 91.9582C108.189 92.399 108.808 92.0464 108.81 91.1692L108.831 83.8683C108.833 82.991 108.219 81.9264 107.455 81.4856C107.073 81.2652 106.728 81.2473 106.474 81.3836C106.227 81.5285 106.068 81.8296 106.067 82.2724L106.046 89.5734ZM119.276 97.2109C119.274 98.0881 119.885 99.1506 120.648 99.5915C121.412 100.032 122.034 99.6818 122.037 98.8045L122.057 91.5036C122.06 90.6264 121.441 89.5597 120.678 89.1189C120.296 88.8985 119.951 88.8807 119.704 89.0212C119.453 89.1639 119.298 89.4671 119.297 89.91L119.276 97.2109ZM112.665 93.3943C112.662 94.2714 113.273 95.334 114.037 95.7749C114.8 96.2156 115.419 95.863 115.422 94.9858L115.442 87.6849C115.445 86.8076 114.83 85.743 114.067 85.3022C113.688 85.0839 113.339 85.064 113.092 85.2045C112.842 85.3472 112.687 85.6504 112.685 86.0933L112.665 93.3943Z" fill="#978050"/>
<path d="M99.919 71.5104C99.3171 71.1628 98.8236 71.4441 98.8216 72.1358L98.8184 73.2535C98.8163 73.9453 99.3067 74.7943 99.9087 75.1418L128.824 91.8345C129.43 92.1841 129.92 91.901 129.922 91.2092L129.925 90.0915C129.927 89.3997 129.44 88.5527 128.834 88.2031L99.919 71.5104Z" fill="#212121"/>
<path d="M109.608 67.0372C109.06 66.7208 108.537 66.7936 108.314 67.2848L104.972 74.5468C104.672 75.1928 105.008 76.3318 105.722 77.0828C105.898 77.2687 106.08 77.4139 106.26 77.5174C106.808 77.8342 107.329 77.7607 107.555 77.2708L110.894 70.0068C111.194 69.3609 110.858 68.2218 110.144 67.4709C109.969 67.2856 109.787 67.1405 109.608 67.0372Z" fill="#978050"/>
<path d="M119.066 72.4982C118.887 72.3949 118.705 72.3297 118.53 72.3128C117.813 72.238 117.472 72.9859 117.767 73.9756L121.057 85.0658C121.277 85.8133 121.797 86.4878 122.345 86.8042C122.524 86.9075 122.706 86.9727 122.882 86.9896C123.598 87.0644 123.94 86.3164 123.644 85.3268L120.354 74.2364C120.134 73.4891 119.614 72.8147 119.066 72.4982Z" fill="#978050"/>
<path d="M105.936 76.1709C105.814 75.9605 105.747 75.737 105.747 75.5417C105.747 75.3659 105.801 75.2383 105.897 75.1821C105.993 75.1266 106.128 75.1433 106.278 75.229C106.447 75.326 106.607 75.4957 106.729 75.7071C106.851 75.9189 106.919 76.1438 106.919 76.3404C106.919 76.5139 106.865 76.6404 106.769 76.6962C106.673 76.7519 106.538 76.7353 106.388 76.6495C106.218 76.5523 106.058 76.3823 105.936 76.1709Z" fill="#383C43"/>
<path d="M121.935 85.3467C121.813 85.1363 121.746 84.9128 121.746 84.7175C121.746 84.5416 121.8 84.4141 121.896 84.3578C121.992 84.3024 122.127 84.3191 122.277 84.4048C122.446 84.5018 122.606 84.6715 122.728 84.8828C122.85 85.0947 122.918 85.3196 122.918 85.5161C122.918 85.6897 122.864 85.8161 122.768 85.872C122.672 85.9277 122.537 85.9111 122.387 85.8253C122.217 85.728 122.057 85.5581 121.935 85.3467Z" fill="#383C43"/>
<path d="M127.394 111.788C127.363 111.788 127.332 111.78 127.303 111.764L96.2676 93.7277C96.1821 93.6779 96.1534 93.5679 96.2031 93.4822C96.2522 93.3957 96.3615 93.3672 96.4485 93.4171L127.484 111.453C127.57 111.503 127.598 111.613 127.549 111.699C127.516 111.756 127.455 111.788 127.394 111.788Z" fill="#383C43"/>
<path d="M127.394 116.543C127.363 116.543 127.332 116.536 127.303 116.519L96.2676 98.4829C96.1821 98.433 96.1534 98.323 96.2031 98.2374C96.2522 98.1511 96.3615 98.1227 96.4485 98.1722L127.484 116.208C127.57 116.258 127.598 116.368 127.549 116.454C127.516 116.511 127.455 116.543 127.394 116.543Z" fill="#383C43"/>
<path d="M127.394 121.298C127.363 121.298 127.332 121.29 127.303 121.273L96.2676 103.237C96.1821 103.188 96.1534 103.078 96.2031 102.992C96.2522 102.905 96.3615 102.877 96.4485 102.927L127.484 120.963C127.57 121.013 127.598 121.123 127.549 121.208C127.516 121.266 127.455 121.298 127.394 121.298Z" fill="#383C43"/>
<path d="M127.394 126.053C127.363 126.053 127.332 126.046 127.303 126.029L96.2676 107.993C96.1821 107.943 96.1534 107.833 96.2031 107.748C96.2522 107.661 96.3615 107.633 96.4485 107.683L127.484 125.719C127.57 125.768 127.598 125.878 127.549 125.964C127.516 126.021 127.455 126.053 127.394 126.053Z" fill="#383C43"/>
<path d="M127.394 130.808C127.363 130.808 127.332 130.8 127.303 130.783L96.2676 112.748C96.1821 112.698 96.1534 112.588 96.2031 112.502C96.2522 112.416 96.3615 112.387 96.4485 112.437L127.484 130.473C127.57 130.523 127.598 130.633 127.549 130.718C127.516 130.776 127.455 130.808 127.394 130.808Z" fill="#383C43"/>
<path d="M127.394 135.562C127.363 135.562 127.332 135.555 127.303 135.538L96.2676 117.502C96.1821 117.452 96.1534 117.342 96.2031 117.257C96.2522 117.17 96.3615 117.142 96.4485 117.191L127.484 135.228C127.57 135.278 127.598 135.388 127.549 135.473C127.516 135.531 127.455 135.562 127.394 135.562Z" fill="#383C43"/>
<path d="M127.394 140.317C127.363 140.317 127.332 140.309 127.303 140.293L96.2676 122.257C96.1821 122.207 96.1534 122.097 96.2031 122.011C96.2522 121.925 96.3615 121.897 96.4485 121.946L127.484 139.982C127.57 140.032 127.598 140.142 127.549 140.227C127.516 140.285 127.455 140.317 127.394 140.317Z" fill="#383C43"/>
<path d="M169.427 108.377C169.396 108.377 169.365 108.37 169.337 108.353L148.518 96.3051C148.431 96.2557 148.403 96.1456 148.452 96.0601C148.501 95.9738 148.613 95.9448 148.697 95.9945L169.517 108.042C169.603 108.092 169.632 108.202 169.583 108.287C169.549 108.345 169.489 108.377 169.427 108.377Z" fill="#383C43"/>
<path d="M158.475 107.965C158.444 107.965 158.413 107.957 158.385 107.941L148.518 102.23C148.431 102.181 148.403 102.071 148.452 101.985C148.501 101.899 148.613 101.87 148.697 101.92L158.565 107.63C158.651 107.679 158.68 107.79 158.63 107.875C158.597 107.933 158.536 107.965 158.475 107.965Z" fill="#383C43"/>
<path d="M138.395 90.0048C137.851 89.6909 137.41 89.9399 137.408 90.5645L137.392 96.2968C137.39 96.919 137.828 97.6784 138.372 97.9923L143.358 100.871C143.902 101.185 144.343 100.934 144.345 100.311L144.361 94.5791C144.363 93.9543 143.925 93.1975 143.381 92.8837L138.395 90.0048Z" fill="#FFBE2E"/>
<path d="M143.8 101.187C143.634 101.187 143.453 101.133 143.268 101.027L138.282 98.148C137.68 97.8002 137.211 96.9872 137.212 96.2968L137.228 90.5644C137.229 90.197 137.363 89.9179 137.606 89.7787C137.85 89.6378 138.163 89.6637 138.484 89.8499L143.471 92.7287C144.073 93.0759 144.542 93.8893 144.541 94.58L144.524 100.312C144.523 100.678 144.389 100.957 144.147 101.097C144.042 101.157 143.925 101.187 143.8 101.187ZM137.951 90.0493C137.889 90.0493 137.832 90.0626 137.785 90.09C137.658 90.1629 137.588 90.3316 137.587 90.5654L137.571 96.2974C137.57 96.8525 137.978 97.5575 138.462 97.8373L143.448 100.716C143.651 100.833 143.841 100.859 143.967 100.786C144.094 100.713 144.164 100.544 144.165 100.311L144.182 94.5791C144.183 94.0143 143.784 93.3236 143.291 93.0393L138.304 90.1604C138.177 90.0869 138.055 90.0493 137.951 90.0493Z" fill="#383C43"/>
<path d="M169.427 122.645C169.396 122.645 169.365 122.638 169.337 122.621L148.518 110.574C148.431 110.524 148.403 110.414 148.452 110.329C148.501 110.242 148.613 110.214 148.697 110.263L169.517 122.31C169.603 122.36 169.632 122.47 169.583 122.555C169.549 122.613 169.489 122.645 169.427 122.645Z" fill="#383C43"/>
<path d="M158.475 122.232C158.444 122.232 158.413 122.225 158.385 122.208L148.518 116.498C148.431 116.448 148.403 116.338 148.452 116.253C148.501 116.166 148.613 116.138 148.697 116.187L158.565 121.898C158.651 121.947 158.68 122.057 158.63 122.143C158.597 122.2 158.536 122.232 158.475 122.232Z" fill="#383C43"/>
<path d="M138.395 104.272C137.851 103.958 137.41 104.207 137.408 104.832L137.392 110.564C137.39 111.187 137.828 111.946 138.372 112.26L143.358 115.139C143.902 115.453 144.343 115.201 144.345 114.579L144.361 108.847C144.363 108.222 143.925 107.465 143.381 107.151L138.395 104.272Z" fill="#FFBE2E"/>
<path d="M143.8 115.454C143.634 115.454 143.453 115.401 143.268 115.294L138.282 112.415C137.68 112.068 137.211 111.255 137.212 110.564L137.228 104.832C137.229 104.465 137.363 104.186 137.606 104.046C137.849 103.906 138.162 103.93 138.484 104.117L143.471 106.996C144.073 107.344 144.542 108.157 144.541 108.847L144.524 114.58C144.523 114.946 144.389 115.225 144.147 115.364C144.042 115.425 143.925 115.454 143.8 115.454ZM137.951 104.317C137.889 104.317 137.832 104.33 137.785 104.358C137.658 104.431 137.588 104.599 137.587 104.833L137.571 110.565C137.57 111.12 137.978 111.825 138.462 112.105L143.448 114.984C143.651 115.101 143.841 115.126 143.967 115.053C144.094 114.98 144.164 114.812 144.165 114.579L144.182 108.847C144.183 108.282 143.784 107.591 143.291 107.307L138.304 104.428C138.177 104.355 138.055 104.317 137.951 104.317Z" fill="#383C43"/>
<path d="M169.427 136.914C169.396 136.914 169.365 136.906 169.337 136.889L148.518 124.842C148.431 124.792 148.403 124.682 148.452 124.597C148.501 124.51 148.613 124.482 148.697 124.531L169.517 136.579C169.603 136.628 169.632 136.738 169.583 136.824C169.549 136.881 169.489 136.914 169.427 136.914Z" fill="#383C43"/>
<path d="M158.475 136.501C158.444 136.501 158.413 136.493 158.385 136.477L148.518 130.767C148.431 130.717 148.403 130.607 148.452 130.522C148.501 130.435 148.613 130.406 148.697 130.456L158.565 136.166C158.651 136.216 158.68 136.326 158.63 136.411C158.597 136.469 158.536 136.501 158.475 136.501Z" fill="#383C43"/>
<path d="M138.395 118.54C137.851 118.227 137.41 118.476 137.408 119.1L137.392 124.832C137.39 125.455 137.828 126.214 138.372 126.528L143.358 129.407C143.902 129.721 144.343 129.469 144.345 128.847L144.361 123.115C144.363 122.49 143.925 121.733 143.381 121.419L138.395 118.54Z" fill="#FFBE2E"/>
<path d="M143.8 129.723C143.634 129.723 143.453 129.669 143.268 129.563L138.282 126.684C137.68 126.336 137.211 125.523 137.212 124.832L137.228 119.1C137.229 118.733 137.363 118.454 137.606 118.314C137.849 118.175 138.162 118.199 138.484 118.385L143.471 121.264C144.073 121.612 144.542 122.425 144.541 123.115L144.524 128.848C144.523 129.214 144.389 129.493 144.147 129.632C144.042 129.693 143.925 129.723 143.8 129.723ZM137.951 118.585C137.889 118.585 137.832 118.598 137.785 118.626C137.658 118.699 137.588 118.867 137.587 119.101L137.571 124.833C137.57 125.388 137.978 126.093 138.462 126.373L143.448 129.252C143.651 129.369 143.841 129.394 143.967 129.321C144.094 129.248 144.164 129.08 144.165 128.847L144.182 123.115C144.183 122.55 143.784 121.859 143.291 121.575L138.304 118.696C138.177 118.623 138.055 118.585 137.951 118.585Z" fill="#383C43"/>
<path d="M139.705 97.1289C139.536 97.1289 139.371 97.0489 139.267 96.9038L138.483 95.8081C138.309 95.5666 138.365 95.2299 138.607 95.0567C138.849 94.8828 139.185 94.94 139.358 95.1812L139.884 95.9147L142.187 94.8506C142.455 94.7248 142.778 94.8433 142.902 95.1135C143.027 95.3835 142.909 95.7036 142.639 95.8281L139.931 97.079C139.858 97.1127 139.781 97.1289 139.705 97.1289Z" fill="#212121"/>
<path d="M139.914 110.869C139.745 110.869 139.581 110.789 139.476 110.644L138.692 109.548C138.52 109.306 138.575 108.97 138.817 108.797C139.059 108.623 139.395 108.68 139.569 108.921L140.093 109.655L142.397 108.591C142.664 108.465 142.986 108.584 143.111 108.854C143.236 109.124 143.118 109.444 142.848 109.568L140.14 110.819C140.067 110.853 139.991 110.869 139.914 110.869Z" fill="#212121"/>
<path d="M139.914 125.505C139.745 125.505 139.581 125.425 139.476 125.28L138.692 124.184C138.52 123.942 138.575 123.606 138.817 123.433C139.059 123.259 139.395 123.316 139.569 123.557L140.093 124.291L142.397 123.227C142.664 123.101 142.986 123.219 143.111 123.49C143.236 123.76 143.118 124.08 142.848 124.204L140.14 125.455C140.067 125.489 139.991 125.505 139.914 125.505Z" fill="#212121"/>
<path d="M165.933 148C167.057 148.649 167.966 150.224 167.962 151.52L167.932 160.709C167.928 162.005 167.013 162.527 165.89 161.878L139.016 146.329C137.888 145.678 136.979 144.103 136.982 142.807L137.013 133.618C137.016 132.322 137.931 131.801 139.059 132.452L165.933 148Z" fill="#FFBE2E"/>
<g opacity="0.1">
<path d="M36.9941 189L65.991 172.149L37.0438 155.436L8.04688 172.287L36.9941 189Z" fill="#010101"/>
</g>
<path d="M34.1299 183.191L63.1268 166.34L63.2212 133.07L34.2242 149.921L34.1299 183.191Z" fill="#212121"/>
<path d="M34.1297 183.37C34.0989 183.37 34.068 183.362 34.04 183.346C33.9846 183.314 33.9502 183.254 33.9502 183.19L34.0441 149.921C34.0441 149.857 34.0785 149.798 34.1331 149.766L63.1303 132.915C63.1864 132.883 63.2544 132.883 63.3105 132.915C63.3658 132.947 63.4002 133.006 63.4002 133.071L63.3056 166.339C63.3056 166.403 63.2712 166.462 63.2165 166.494L34.2201 183.346C34.1921 183.362 34.1606 183.37 34.1297 183.37ZM34.4032 150.025L34.3099 182.878L62.9467 166.236L63.0406 133.383L34.4032 150.025Z" fill="#383C43"/>
<path d="M34.2226 149.922L63.2195 133.071L34.2723 116.358L5.27539 133.209L34.2226 149.922Z" fill="#FFF7E4"/>
<path d="M34.2217 150.101C34.1908 150.101 34.16 150.093 34.1319 150.077L5.1845 133.365C5.12912 133.333 5.09473 133.273 5.09473 133.21C5.09473 133.145 5.12838 133.086 5.18375 133.054L34.1809 116.202C34.237 116.17 34.3051 116.17 34.3611 116.202L63.3085 132.915C63.3638 132.947 63.3982 133.007 63.3982 133.07C63.3982 133.135 63.3646 133.194 63.3092 133.226L34.3121 150.077C34.2841 150.093 34.2526 150.101 34.2217 150.101ZM5.63261 133.209L34.2217 149.714L62.8605 133.071L34.2715 116.565L5.63261 133.209Z" fill="#383C43"/>
<path d="M16.334 139.599L23.0776 143.49L52.076 126.64L45.3323 122.749L16.334 139.599Z" fill="#212121"/>
<path d="M23.0774 143.669C23.0465 143.669 23.0157 143.661 22.9876 143.645L16.2441 139.753C16.1887 139.722 16.1543 139.662 16.1543 139.599C16.1543 139.534 16.1879 139.475 16.2433 139.443L45.2412 122.593C45.2973 122.561 45.3654 122.561 45.4214 122.593L52.1656 126.484C52.221 126.516 52.2554 126.575 52.2554 126.639C52.2554 126.703 52.2218 126.762 52.1664 126.795L23.1679 143.645C23.1398 143.661 23.1082 143.669 23.0774 143.669ZM16.6921 139.597L23.0774 143.282L51.7176 126.64L45.3317 122.956L16.6921 139.597Z" fill="#383C43"/>
<path d="M5.17871 166.48L34.1299 183.192L34.223 149.923L23.0766 143.489L16.3329 139.598L5.27179 133.211L5.17871 166.48Z" fill="#FFBE2E"/>
<path d="M34.1305 183.371C34.0996 183.371 34.0688 183.363 34.0407 183.347L5.08977 166.635C5.03439 166.603 5 166.543 5 166.479L5.09254 133.21C5.09254 133.146 5.12693 133.087 5.18231 133.055C5.23843 133.023 5.30573 133.023 5.36185 133.055L34.3134 149.767C34.3688 149.799 34.4032 149.859 34.4032 149.923L34.3099 183.192C34.3099 183.256 34.2755 183.315 34.2201 183.347C34.1921 183.363 34.1613 183.371 34.1305 183.371ZM5.35908 166.376L33.9517 182.881L34.0442 150.026L5.45099 133.521L5.35908 166.376Z" fill="#383C43"/>
<path d="M16.3184 148.195L23.062 152.094L23.0775 143.49L16.3339 139.599L16.3184 148.195Z" fill="#212121"/>
<path d="M23.0625 152.273C23.0316 152.273 23.0008 152.265 22.9727 152.249L16.2284 148.35C16.1731 148.318 16.1387 148.259 16.1387 148.195L16.1548 139.598C16.1548 139.534 16.1892 139.475 16.2445 139.443C16.3006 139.412 16.3679 139.411 16.4241 139.444L23.1676 143.335C23.2229 143.367 23.2573 143.426 23.2573 143.491L23.2419 152.094C23.2419 152.159 23.2075 152.218 23.1521 152.25C23.1241 152.265 23.0934 152.273 23.0625 152.273ZM16.4978 148.091L22.8837 151.783L22.8984 143.594L16.5131 139.91L16.4978 148.091Z" fill="#383C43"/>
<path d="M23.7562 163.417C23.8257 163.457 23.8958 163.53 23.9488 163.624L25.8437 167.093C25.9956 167.37 25.8785 167.612 25.6536 167.482L24.8407 167.013L24.8203 174.202C24.82 174.324 24.7326 174.374 24.6262 174.313L22.8311 173.276C22.7223 173.213 22.6378 173.064 22.6382 172.942L22.6586 165.753L21.8456 165.284C21.6206 165.154 21.5054 164.778 21.6559 164.676L23.5666 163.404C23.6176 163.369 23.6867 163.377 23.7562 163.417Z" fill="#383C43"/>
<path d="M29.3279 166.634C29.3972 166.674 29.466 166.745 29.5166 166.839L31.4138 170.309C31.5657 170.586 31.4463 170.826 31.2213 170.696L30.4084 170.227L30.3881 177.416C30.3878 177.538 30.3028 177.59 30.194 177.527L28.3989 176.49C28.2924 176.429 28.2056 176.279 28.2059 176.156L28.2262 168.967L27.4134 168.498C27.1884 168.368 27.0732 167.993 27.2285 167.893L29.1368 166.619C29.189 166.585 29.2587 166.594 29.3279 166.634Z" fill="#383C43"/>
<path d="M34.4902 142.305L56.3096 129.625L56.3805 104.591L34.5612 117.271L34.4902 142.305Z" fill="#212121"/>
<path d="M34.4901 142.484C34.4592 142.484 34.4284 142.476 34.4003 142.46C34.3449 142.428 34.3105 142.369 34.3105 142.305L34.3814 117.27C34.3814 117.207 34.4158 117.148 34.4704 117.115L56.29 104.435C56.3461 104.403 56.4141 104.403 56.4701 104.435C56.5255 104.467 56.5599 104.527 56.5599 104.591L56.4891 129.625C56.4891 129.689 56.4547 129.748 56.4001 129.78L34.5805 142.46C34.5525 142.476 34.5209 142.484 34.4901 142.484ZM34.7403 117.374L34.6702 141.992L56.13 129.521L56.2001 104.903L34.7403 117.374Z" fill="#383C43"/>
<path d="M34.5592 117.271L56.3786 104.591L34.5966 92.0151L12.7773 104.695L34.5592 117.271Z" fill="#FFF7E4"/>
<path d="M34.5589 117.451C34.528 117.451 34.4972 117.443 34.4691 117.427L12.6874 104.851C12.6321 104.819 12.5977 104.76 12.5977 104.696C12.5977 104.632 12.6313 104.572 12.6867 104.54L34.5055 91.8601C34.5616 91.8279 34.6297 91.8279 34.6857 91.8601L56.4681 104.436C56.5235 104.468 56.5579 104.527 56.5579 104.591C56.5579 104.655 56.5242 104.714 56.4689 104.747L34.6493 117.427C34.6213 117.443 34.5896 117.451 34.5589 117.451ZM13.1354 104.695L34.5589 117.064L56.0201 104.592L34.596 92.2231L13.1354 104.695Z" fill="#383C43"/>
<path d="M21.0986 109.503L26.173 112.431L47.9934 99.7522L42.919 96.8242L21.0986 109.503Z" fill="#212121"/>
<path d="M26.1732 112.611C26.1423 112.611 26.1115 112.603 26.0834 112.587L21.0087 109.658C20.9533 109.626 20.9189 109.567 20.9189 109.503C20.9189 109.439 20.9526 109.38 21.008 109.348L42.8283 96.6687C42.8844 96.6365 42.9524 96.6365 43.0085 96.6687L48.0832 99.5967C48.1385 99.6286 48.1729 99.6878 48.1729 99.7516C48.1729 99.8158 48.1393 99.8751 48.0839 99.9073L26.2636 112.587C26.2356 112.603 26.2041 112.611 26.1732 112.611ZM21.4568 109.502L26.1732 112.224L47.6352 99.7527L42.9188 97.0316L21.4568 109.502Z" fill="#383C43"/>
<path d="M12.7051 129.731L34.49 142.306L34.5601 117.273L26.1727 112.431L21.0983 109.504L12.775 104.697L12.7051 129.731Z" fill="#FFBE2E"/>
<path d="M34.4895 142.485C34.4586 142.485 34.4277 142.477 34.3997 142.461L12.6152 129.886C12.5598 129.854 12.5254 129.795 12.5254 129.73L12.5956 104.697C12.5956 104.632 12.63 104.573 12.6853 104.541C12.7415 104.51 12.8088 104.509 12.8649 104.542L34.6494 117.117C34.7048 117.149 34.7392 117.208 34.7392 117.272L34.669 142.306C34.669 142.37 34.6346 142.43 34.5792 142.462C34.5511 142.477 34.5203 142.485 34.4895 142.485ZM12.8845 129.627L34.3107 141.996L34.3801 117.376L12.9539 105.007L12.8845 129.627Z" fill="#383C43"/>
<path d="M21.0879 115.972L26.1623 118.906L26.174 112.432L21.0996 109.504L21.0879 115.972Z" fill="#212121"/>
<path d="M26.1617 119.085C26.1308 119.085 26.0993 119.077 26.0719 119.061L20.998 116.127C20.9426 116.095 20.9082 116.036 20.9082 115.972L20.9194 109.503C20.9194 109.439 20.9538 109.38 21.0092 109.348C21.0653 109.316 21.1326 109.316 21.1887 109.348L26.2634 112.277C26.3188 112.309 26.3532 112.368 26.3532 112.432L26.3412 118.906C26.3412 118.97 26.3068 119.03 26.2515 119.061C26.2235 119.077 26.1926 119.085 26.1617 119.085ZM21.2673 115.868L25.9829 118.595L25.9941 112.535L21.2777 109.814L21.2673 115.868Z" fill="#383C43"/>
<path d="M26.6853 127.426C26.7376 127.457 26.7903 127.511 26.8302 127.582L28.256 130.193C28.3703 130.401 28.2822 130.583 28.113 130.485L27.5013 130.132L27.486 135.542C27.4858 135.634 27.42 135.671 27.3399 135.625L25.9892 134.845C25.9073 134.798 25.8437 134.686 25.844 134.594L25.8593 129.184L25.2477 128.831C25.0783 128.733 24.9917 128.451 25.1049 128.374L26.5426 127.416C26.5809 127.39 26.6329 127.396 26.6853 127.426Z" fill="#383C43"/>
<path d="M30.8774 129.847C30.9296 129.877 30.9813 129.931 31.0194 130.001L32.4471 132.613C32.5613 132.821 32.4714 133.002 32.3022 132.904L31.6905 132.551L31.6752 137.96C31.675 138.052 31.611 138.091 31.5291 138.044L30.1784 137.264C30.0983 137.218 30.033 137.104 30.0332 137.012L30.0486 131.603L29.4369 131.25C29.2676 131.152 29.1809 130.869 29.2978 130.794L30.7337 129.836C30.7728 129.811 30.8252 129.817 30.8774 129.847Z" fill="#383C43"/>
<path d="M10.7674 54.5453L8.40843 53.1745L8.39746 49.3066L10.7564 50.6775L10.7674 54.5453Z" fill="#383C43"/>
<path d="M10.7666 54.7248C10.7357 54.7248 10.7042 54.7167 10.6762 54.7006L8.31734 53.3301C8.26261 53.2978 8.22832 53.239 8.22832 53.1752L8.21777 49.3073C8.21777 49.2432 8.25217 49.1836 8.30755 49.1516C8.36367 49.1194 8.43172 49.1194 8.48773 49.1516L10.8466 50.5225C10.9013 50.5548 10.9356 50.6136 10.9356 50.6774L10.9462 54.545C10.9462 54.6092 10.9118 54.6687 10.8564 54.7006C10.8284 54.7167 10.7975 54.7248 10.7666 54.7248ZM8.5873 53.0713L10.5864 54.2329L10.5766 50.7813L8.5775 49.6193L8.5873 53.0713Z" fill="#383C43"/>
<path d="M41.433 6.70065C41.0437 6.47191 40.4997 6.50279 39.9063 6.84899L9.68318 24.2969C8.49038 24.983 7.53229 26.6517 7.53846 28.0115L7.60033 50.0206C7.60033 50.7006 7.84132 51.1765 8.23076 51.4052L5.87093 50.0328C5.4816 49.8042 5.24051 49.3282 5.24051 48.6483L5.17874 26.6453C5.17256 25.2793 6.13673 23.6106 7.32336 22.9246L37.5466 5.47665C38.14 5.13055 38.6838 5.09956 39.0733 5.3283L41.433 6.70065Z" fill="#212121"/>
<path d="M8.23116 51.5845C8.20028 51.5845 8.1695 51.5768 8.14075 51.5603L5.78114 50.1881C5.31695 49.9153 5.06169 49.3687 5.06169 48.6482L5.00003 26.6456C4.99375 25.2243 5.99572 23.4848 7.23409 22.7689L37.4577 5.32098C38.0817 4.957 38.7045 4.90343 39.1644 5.17307L41.5141 6.53977C41.5176 6.5419 41.5211 6.54392 41.5247 6.54605C41.6095 6.59621 41.6383 6.70589 41.5884 6.79151C41.5372 6.87638 41.4292 6.90514 41.343 6.85604L41.3353 6.85114C40.9917 6.65307 40.5044 6.70813 39.9974 7.00406L9.77315 24.4521C8.63434 25.1073 7.71234 26.7037 7.71862 28.0104L7.78028 50.0199C7.78028 50.6083 7.97239 51.0448 8.32232 51.2502C8.40719 51.3004 8.43594 51.41 8.38611 51.4952C8.35245 51.5525 8.29282 51.5845 8.23116 51.5845ZM38.508 5.36209C38.2429 5.36209 37.9435 5.45293 37.6378 5.6314L7.41353 23.0795C6.27472 23.7383 5.35272 25.3375 5.35901 26.6445L5.42067 48.6478C5.42067 49.2362 5.61277 49.6727 5.9627 49.8778L7.5411 50.796C7.46188 50.5698 7.4212 50.309 7.4212 50.0205L7.35954 28.0115C7.35325 26.5902 8.35522 24.8537 9.5936 24.1413L39.8172 6.69375C40.0711 6.54541 40.3242 6.44872 40.5668 6.4041L38.9835 5.48338C38.8454 5.40202 38.684 5.36209 38.508 5.36209Z" fill="#383C43"/>
<path d="M39.9061 6.8473C41.0939 6.1615 42.0599 6.71664 42.0637 8.08142L42.1261 30.0868C42.1299 31.4517 41.1703 33.1185 39.9825 33.8043L14.6444 48.4332L10.7685 54.5451L10.7575 50.6773L9.75919 51.2537C8.57139 51.9395 7.60542 51.3844 7.60148 50.0196L7.53907 28.0142C7.53524 26.6493 8.49493 24.9825 9.68273 24.2967L39.9061 6.8473Z" fill="#FFF7E4"/>
<path d="M10.7679 54.7247C10.7511 54.7247 10.7343 54.7222 10.7182 54.7177C10.6417 54.6956 10.5885 54.6254 10.5885 54.5455L10.5787 50.9878L9.84871 51.4092C9.21626 51.7752 8.61033 51.8289 8.1455 51.5603C7.68131 51.2931 7.42392 50.7462 7.42179 50.0205L7.35938 28.0148C7.35587 26.592 8.35795 24.8544 9.59271 24.1416L39.8163 6.69195C40.4495 6.32594 41.0553 6.27302 41.5195 6.54084C41.9837 6.8076 42.2411 7.35464 42.2431 8.0807L42.3055 30.0864C42.309 31.5091 41.3069 33.2467 40.0722 33.9596L14.7719 48.5667L10.9194 54.6412C10.8858 54.6941 10.8283 54.7247 10.7679 54.7247ZM10.7575 50.4981C10.7884 50.4981 10.8192 50.5062 10.8473 50.5219C10.9026 50.5539 10.937 50.6131 10.937 50.6772L10.9462 53.9294L14.493 48.3373C14.5084 48.3127 14.5294 48.2923 14.5547 48.2781L39.893 33.6491C41.0289 32.9931 41.9504 31.3954 41.9468 30.0873L41.8844 8.08187C41.8823 7.48935 41.6895 7.05253 41.341 6.8519C40.9918 6.65064 40.5128 6.70462 39.996 7.00269L9.77225 24.4523C8.63631 25.1083 7.71485 26.706 7.71837 28.0141L7.78077 50.0195C7.7829 50.612 7.97575 51.0489 8.32419 51.2495C8.67337 51.4494 9.15087 51.3971 9.66916 51.0987L10.6677 50.5223C10.6957 50.5062 10.7266 50.4981 10.7575 50.4981Z" fill="#383C43"/>
<path d="M27.1624 24.3508C27.6517 24.0683 28.0476 24.2939 28.0492 24.8562C28.0508 25.4184 27.6574 26.1042 27.1681 26.3867L14.4054 33.7552C13.9161 34.0377 13.5163 33.8098 13.5147 33.2476C13.5131 32.6854 13.9104 32.0018 14.3997 31.7193L27.1624 24.3508Z" fill="#212121"/>
<path d="M19.6584 34.0368C20.1477 33.7543 20.5437 33.9799 20.5453 34.5422C20.5469 35.1045 20.1535 35.7903 19.6642 36.0727L14.4054 39.1088C13.9161 39.3914 13.5163 39.1636 13.5147 38.6013C13.5131 38.039 13.9104 37.3555 14.3997 37.073L19.6584 34.0368Z" fill="#212121"/>
<path d="M14.0081 39.4107C13.8924 39.4107 13.7837 39.383 13.6863 39.3269C13.4612 39.1975 13.3363 38.9402 13.335 38.6022C13.3336 37.9747 13.7612 37.2349 14.3097 36.918L19.5687 33.8817C19.8625 33.7117 20.1486 33.6878 20.3758 33.8179C20.5995 33.947 20.7236 34.204 20.725 34.542C20.7264 35.1724 20.3001 35.9132 19.7538 36.2284L14.4954 39.2645C14.3271 39.3619 14.1616 39.4107 14.0081 39.4107ZM19.7482 34.1923L14.4892 37.2285C14.0573 37.4784 13.6927 38.1072 13.6941 38.6012C13.6948 38.8024 13.7572 38.9535 13.8652 39.016C13.9739 39.0777 14.1379 39.0563 14.3161 38.9539L19.5745 35.9176C20.005 35.6691 20.3675 35.0397 20.3661 34.5429C20.3655 34.3417 20.3037 34.191 20.1964 34.1292C20.0883 34.0674 19.9256 34.0899 19.7482 34.1923Z" fill="#383C43"/>
<path d="M58.7966 15.7626C58.4072 15.5339 57.8633 15.5648 57.2637 15.911L27.0467 33.3589C25.86 34.0449 24.8959 35.7076 24.8959 37.0735L24.9577 59.0826C24.9639 59.7626 25.1987 60.2385 25.5882 60.4609L23.2283 59.0886C22.8452 58.8661 22.6041 58.3902 22.5979 57.7103L22.5361 35.7012C22.5361 34.3351 23.5003 32.6726 24.687 31.9865L54.9041 14.5385C55.5037 14.1926 56.0475 14.1616 56.4369 14.3904L58.7966 15.7626Z" fill="#212121"/>
<path d="M25.5884 60.6401C25.5583 60.6401 25.5274 60.6324 25.4994 60.6166C25.4938 60.6134 25.4889 60.6103 25.4833 60.6071L23.1385 59.2436C22.6814 58.9778 22.4261 58.4341 22.4191 57.7119L22.3574 35.7013C22.3574 34.2813 23.3623 32.5451 24.5978 31.831L54.8151 14.383C55.4524 14.0142 56.0619 13.9606 56.5288 14.2358L58.8793 15.6025C58.8814 15.6042 58.8842 15.6057 58.8863 15.607L58.8877 15.6074C58.8877 15.6077 58.8877 15.6077 58.8884 15.6081C58.9733 15.6583 59.0021 15.7679 58.9522 15.8536C58.901 15.9384 58.7924 15.9675 58.7068 15.9181L58.6991 15.9132C58.3492 15.7127 57.8724 15.7673 57.3541 16.0664L27.1375 33.5142C26.0008 34.1709 25.0759 35.7675 25.0759 37.0735L25.1376 59.0821C25.1432 59.6676 25.3304 60.0989 25.6655 60.298L25.6789 60.3053C25.7644 60.3552 25.7931 60.4645 25.744 60.5504C25.7105 60.6079 25.6502 60.6401 25.5884 60.6401ZM55.8688 14.4219C55.6051 14.4219 55.3072 14.5131 54.9944 14.6937L24.7772 32.1415C23.6413 32.7989 22.7163 34.3956 22.7163 35.7008L22.778 57.7097C22.7836 58.2987 22.9757 58.7339 23.3192 58.933L24.8998 59.8526C24.8227 59.629 24.7812 59.3706 24.7785 59.0841L24.7168 37.0738C24.7168 35.6531 25.7224 33.9173 26.9579 33.2035L57.1745 15.7557C57.4325 15.6064 57.6856 15.5092 57.9262 15.464L56.347 14.5458C56.2068 14.4629 56.0456 14.4219 55.8688 14.4219Z" fill="#383C43"/>
<path d="M57.2654 15.9117C58.4532 15.2259 59.4231 15.7741 59.4269 17.139L59.4893 39.149C59.4932 40.5139 58.5295 42.1784 57.3417 42.8642L56.3473 43.4383L56.3583 47.3062L52.4565 45.6847L27.1224 60.3114C25.9346 60.9972 24.9647 60.449 24.9609 59.0841L24.8984 37.0741C24.8946 35.7092 25.8582 34.0447 27.046 33.3589L57.2654 15.9117Z" fill="#FFF7E4"/>
<path d="M26.1549 60.7871C25.9186 60.7871 25.6984 60.7314 25.5027 60.6188C25.0399 60.3524 24.7833 59.8076 24.7812 59.0846L24.7188 37.0743C24.7152 35.6544 25.7187 33.9174 26.9563 33.2033L57.1757 15.7561C57.8124 15.3883 58.4189 15.3351 58.8853 15.6039C59.3481 15.8704 59.604 16.4153 59.6061 17.1386L59.6685 39.1486C59.6728 40.5682 58.6693 42.3047 57.4317 43.0193L56.5271 43.5417L56.5377 47.3058C56.5377 47.3658 56.5082 47.4219 56.4577 47.4556C56.4086 47.4886 56.3434 47.4944 56.2895 47.4721L52.4692 45.8845L27.2123 60.4663C26.8428 60.6795 26.4831 60.7871 26.1549 60.7871ZM57.3552 16.0668L27.1359 33.5139C25.9978 34.1713 25.0743 35.768 25.0778 37.0736L25.1402 59.0836C25.1424 59.6729 25.3345 60.1077 25.6815 60.3076C26.0328 60.5099 26.5125 60.4552 27.0328 60.1557L52.3668 45.5291C52.4151 45.5011 52.4755 45.4976 52.5252 45.5186L56.1778 47.0367L56.1681 43.4385C56.1681 43.3744 56.2025 43.3148 56.2578 43.2828L57.2521 42.7085C58.3908 42.0512 59.3137 40.4544 59.3095 39.1495L59.2471 17.1392C59.2457 16.5495 59.0536 16.1148 58.7065 15.9149C58.353 15.7126 57.8749 15.7673 57.3552 16.0668Z" fill="#383C43"/>
<path d="M33.1406 37.9436L33.1714 48.7092C33.1776 49.712 33.885 50.1118 34.7584 49.6135L49.6704 41.001C50.544 40.4966 51.2515 39.2724 51.2453 38.2697L51.2145 27.5102C51.2145 26.5135 50.5071 26.1076 49.6337 26.6119L34.7156 35.2245C33.8419 35.7288 33.1406 36.9468 33.1406 37.9436Z" fill="#FFBE2E"/>
<path d="M40.5559 43.1739C40.361 43.1739 40.1675 43.1209 39.9977 43.0182L37.2875 41.3766C36.7792 41.0684 36.6164 40.4062 36.9243 39.897C37.2328 39.3876 37.8947 39.2267 38.4039 39.5338L40.1688 40.6032L44.3214 33.3326C44.618 32.8158 45.2772 32.6377 45.7912 32.9316C46.3073 33.2268 46.4876 33.8846 46.1923 34.4014L41.4914 42.6312C41.3468 42.8832 41.1071 43.0666 40.8259 43.1396C40.7368 43.1627 40.6464 43.1739 40.5559 43.1739Z" fill="#212121"/>
<path d="M140.764 142.036C140.476 141.863 140.208 141.641 139.959 141.369C139.714 141.099 139.5 140.798 139.317 140.466C139.134 140.134 138.993 139.793 138.891 139.442C138.794 139.088 138.746 138.744 138.746 138.408C138.746 138.073 138.794 137.789 138.891 137.557C138.993 137.323 139.132 137.151 139.311 137.04C139.494 136.932 139.708 136.891 139.953 136.916C140.198 136.94 140.462 137.038 140.746 137.208C141.053 137.393 141.327 137.621 141.568 137.893C141.813 138.167 142.027 138.47 142.21 138.802L141.918 138.967C141.778 138.702 141.609 138.46 141.411 138.241C141.213 138.017 140.991 137.832 140.746 137.685C140.521 137.549 140.313 137.472 140.122 137.453C139.935 137.436 139.77 137.472 139.626 137.563C139.486 137.651 139.377 137.79 139.3 137.979C139.226 138.166 139.189 138.398 139.189 138.675C139.189 138.951 139.228 139.231 139.306 139.514C139.383 139.796 139.492 140.068 139.632 140.329C139.772 140.585 139.937 140.819 140.128 141.028C140.318 141.238 140.526 141.411 140.752 141.546C141.009 141.7 141.236 141.785 141.434 141.8C141.636 141.817 141.808 141.777 141.948 141.679L142.239 142.202C142.06 142.316 141.846 142.365 141.598 142.347C141.349 142.324 141.071 142.221 140.764 142.036ZM144.631 144.36C144.347 144.189 144.082 143.969 143.837 143.699C143.596 143.428 143.384 143.128 143.202 142.8C143.019 142.468 142.875 142.126 142.77 141.772C142.669 141.417 142.618 141.071 142.618 140.735C142.618 140.395 142.669 140.11 142.77 139.881C142.871 139.651 143.013 139.482 143.196 139.374C143.379 139.266 143.59 139.224 143.832 139.246C144.073 139.268 144.335 139.365 144.619 139.535C144.903 139.706 145.165 139.925 145.406 140.192C145.651 140.462 145.865 140.76 146.048 141.088C146.231 141.416 146.372 141.757 146.474 142.113C146.575 142.464 146.625 142.809 146.625 143.15C146.625 143.485 146.575 143.77 146.474 144.004C146.372 144.234 146.231 144.403 146.048 144.51C145.869 144.621 145.659 144.667 145.418 144.649C145.177 144.627 144.914 144.53 144.631 144.36ZM144.619 143.87C144.922 144.052 145.19 144.129 145.424 144.101C145.661 144.076 145.846 143.958 145.978 143.747C146.114 143.539 146.182 143.248 146.182 142.876C146.182 142.6 146.143 142.322 146.065 142.044C145.988 141.762 145.879 141.492 145.739 141.236C145.599 140.975 145.433 140.739 145.243 140.53C145.056 140.322 144.848 140.15 144.619 140.012C144.32 139.832 144.051 139.755 143.814 139.78C143.581 139.803 143.396 139.919 143.26 140.127C143.128 140.338 143.062 140.63 143.062 141.002C143.062 141.278 143.101 141.558 143.178 141.841C143.256 142.123 143.365 142.395 143.505 142.656C143.645 142.912 143.81 143.146 144.001 143.355C144.191 143.565 144.397 143.736 144.619 143.87ZM147.453 145.988V141.306L147.756 141.489L147.879 142.154V146.243L147.453 145.988ZM150.229 147.656L147.692 142.117L147.756 141.489L150.288 147.024L150.229 147.656ZM150.229 147.656L150.101 147.014V142.897L150.532 143.157V147.838L150.229 147.656ZM151.554 148.452V143.77L151.857 143.953L151.98 144.618V148.707L151.554 148.452ZM154.33 150.12L151.793 144.581L151.857 143.953L154.388 149.488L154.33 150.12ZM154.33 150.12L154.202 149.478V145.361L154.633 145.621V150.302L154.33 150.12ZM155.655 150.916V146.234L156.08 146.49V151.171L155.655 150.916ZM155.935 151.084V150.628L158.297 152.047V152.503L155.935 151.084ZM155.935 148.907V148.464L158.11 149.771V150.214L155.935 148.907ZM155.935 146.858V146.403L158.262 147.801V148.257L155.935 146.858ZM160.818 154.086C160.53 153.913 160.262 153.691 160.013 153.419C159.768 153.149 159.554 152.848 159.371 152.516C159.188 152.184 159.047 151.842 158.945 151.491C158.848 151.138 158.8 150.794 158.8 150.458C158.8 150.122 158.848 149.838 158.945 149.607C159.047 149.372 159.187 149.2 159.365 149.09C159.548 148.982 159.762 148.94 160.007 148.965C160.252 148.99 160.516 149.088 160.8 149.258C161.107 149.443 161.381 149.671 161.622 149.943C161.867 150.217 162.081 150.52 162.264 150.852L161.972 151.017C161.832 150.752 161.663 150.509 161.465 150.29C161.267 150.067 161.045 149.882 160.8 149.734C160.575 149.599 160.367 149.521 160.176 149.502C159.989 149.485 159.824 149.522 159.68 149.613C159.54 149.701 159.431 149.84 159.354 150.029C159.28 150.216 159.243 150.448 159.243 150.724C159.243 151.001 159.282 151.281 159.36 151.563C159.437 151.846 159.546 152.118 159.686 152.379C159.826 152.635 159.991 152.868 160.182 153.078C160.372 153.288 160.58 153.46 160.806 153.596C161.063 153.75 161.29 153.834 161.488 153.849C161.69 153.866 161.862 153.826 162.002 153.729L162.293 154.251C162.114 154.366 161.9 154.414 161.652 154.396C161.403 154.374 161.125 154.27 160.818 154.086ZM164.048 155.959V151.407L164.479 151.666V156.218L164.048 155.959ZM162.636 150.885V150.429L165.891 152.385V152.841L162.636 150.885Z" fill="black"/>
</g>
</svg>
