<svg width="161" height="27" viewBox="0 0 161 27" fill="none" xmlns="http://www.w3.org/2000/svg">
<g clip-path="url(#clip0_5870_21039)">
<path d="M77.9314 11.7275C76.9474 11.7275 76.1488 12.5224 76.1488 13.5018C76.1488 14.4811 76.9474 15.276 77.9314 15.276L82.2096 15.276C83.1936 15.276 83.9922 14.4811 83.9922 13.5018C83.9922 12.5224 83.1936 11.7275 82.2096 11.7275L77.9314 11.7275Z" fill="#212121"/>
<path d="M90.7673 11.7275C89.7833 11.7275 88.9847 12.5224 88.9847 13.5018C88.9847 14.4811 89.7833 15.276 90.7673 15.276L95.0455 15.276C96.0295 15.276 96.8281 14.4811 96.8281 13.5018C96.8281 12.5224 96.0295 11.7275 95.0455 11.7275L90.7673 11.7275Z" fill="#212121"/>
<path d="M103.599 11.7275C102.615 11.7275 101.817 12.5224 101.817 13.5018C101.817 14.4811 102.615 15.276 103.599 15.276L107.878 15.276C108.862 15.276 109.66 14.4811 109.66 13.5018C109.66 12.5224 108.862 11.7275 107.878 11.7275L103.599 11.7275Z" fill="#212121"/>
<path d="M159.217 11.7275L154.939 11.7275C153.955 11.7275 153.157 12.5224 153.157 13.5018C153.157 14.4811 153.955 15.276 154.939 15.276L159.217 15.276C160.201 15.276 161 14.4811 161 13.5018C161 12.5224 160.201 11.7275 159.217 11.7275Z" fill="#212121"/>
<path d="M26.5915 11.7275C25.6075 11.7275 24.8089 12.5224 24.8089 13.5018C24.8089 14.4811 25.6075 15.276 26.5915 15.276L30.8698 15.276C31.8537 15.276 32.6523 14.4811 32.6523 13.5018C32.6523 12.5224 31.8537 11.7275 30.8698 11.7275L26.5915 11.7275Z" fill="#212121"/>
<path d="M39.4275 11.7275C38.4435 11.7275 37.6449 12.5224 37.6449 13.5018C37.6449 14.4811 38.4435 15.276 39.4275 15.276L43.7057 15.276C44.6897 15.276 45.4883 14.4811 45.4883 13.5018C45.4883 12.5224 44.6897 11.7275 43.7057 11.7275L39.4275 11.7275Z" fill="#212121"/>
<path d="M65.0954 11.7275C64.1115 11.7275 63.3129 12.5224 63.3129 13.5018C63.3129 14.4811 64.1115 15.276 65.0954 15.276L69.3737 15.276C70.3577 15.276 71.1563 14.4811 71.1563 13.5018C71.1563 12.5224 70.3577 11.7275 69.3737 11.7275L65.0954 11.7275Z" fill="#212121"/>
<path d="M116.435 11.7275C115.451 11.7275 114.653 12.5224 114.653 13.5018C114.653 14.4811 115.451 15.276 116.435 15.276L120.714 15.276C121.697 15.276 122.496 14.4811 122.496 13.5018C122.496 12.5224 121.697 11.7275 120.714 11.7275L116.435 11.7275Z" fill="#212121"/>
<path d="M52.2634 11.7275C51.2794 11.7275 50.4808 12.5224 50.4808 13.5018C50.4808 14.4811 51.2794 15.276 52.2634 15.276L56.5416 15.276C57.5256 15.276 58.3242 14.4811 58.3242 13.5018C58.3242 12.5224 57.5256 11.7275 56.5416 11.7275L52.2634 11.7275Z" fill="#212121"/>
<path d="M129.271 11.7275C128.287 11.7275 127.489 12.5224 127.489 13.5018C127.489 14.4811 128.287 15.276 129.271 15.276L133.549 15.276C134.533 15.276 135.332 14.4811 135.332 13.5018C135.332 12.5224 134.533 11.7275 133.549 11.7275L129.271 11.7275Z" fill="#212121"/>
<path d="M140.321 13.5018C140.321 14.4811 141.119 15.276 142.103 15.276L146.381 15.276C147.365 15.276 148.164 14.4811 148.164 13.5018C148.164 12.5224 147.365 11.7275 146.381 11.7275L142.103 11.7275C141.119 11.7275 140.321 12.5224 140.321 13.5018Z" fill="#212121"/>
<path d="M0.000198954 13.5018C8.10029 16.4896 18.1505 21.5922 24.3789 27L19.6978 14.1263C19.7727 13.9311 19.8155 13.7218 19.8155 13.5018C19.8155 13.2818 19.7691 13.0724 19.6978 12.8773L24.3789 7.03753e-06C18.1505 5.40427 8.10029 10.5105 0.000198954 13.5018Z" fill="#212121"/>
</g>
<defs>
<clipPath id="clip0_5870_21039">
<rect width="27" height="161" fill="white" transform="translate(161 7.03753e-06) rotate(90)"/>
</clipPath>
</defs>
</svg>
