<svg width="352" height="150" viewBox="0 0 352 150" fill="none" xmlns="http://www.w3.org/2000/svg">
<g clip-path="url(#clip0_5870_20951)">
<path d="M198.721 47.9765C198.729 49.0262 198.885 50.13 199.185 51.2527C199.405 52.0789 198.915 52.9255 198.088 53.1452C197.865 53.2035 197.64 53.2114 197.424 53.1736C196.849 53.073 196.355 52.6478 196.196 52.0488C195.83 50.6729 195.638 49.3117 195.629 47.9981C195.622 47.143 196.311 46.4474 197.163 46.4394C198.015 46.4343 198.714 47.1214 198.722 47.9734L198.721 47.9765Z" fill="black"/>
<path d="M204.059 62.4838C203.695 62.7874 203.234 62.8982 202.798 62.8221C202.451 62.7615 202.124 62.582 201.879 62.2944C201.022 61.2752 200.237 60.231 199.546 59.1938C199.074 58.4835 199.264 57.5217 199.974 57.0494C200.684 56.5772 201.646 56.7671 202.118 57.4804C202.747 58.4222 203.463 59.3758 204.244 60.3096C204.792 60.964 204.707 61.9378 204.055 62.4893L204.059 62.4838Z" fill="black"/>
<path d="M200.609 41.8972C200.256 42.4099 199.647 42.6395 199.072 42.5389C198.859 42.5017 198.647 42.4177 198.457 42.2871C197.754 41.8002 197.58 40.8376 198.067 40.1348C198.877 38.9674 199.854 37.9518 200.974 37.1147C201.659 36.6036 202.626 36.7443 203.138 37.43C203.649 38.1156 203.508 39.0829 202.822 39.594C201.971 40.2268 201.226 41.0038 200.606 41.8967L200.609 41.8972Z" fill="black"/>
<path d="M185.73 122.235C185.575 123.068 184.778 123.623 183.943 123.477L183.928 123.474C182.706 123.248 181.461 122.987 180.225 122.695C179.393 122.5 178.88 121.666 179.075 120.837C179.27 120.005 180.109 119.499 180.933 119.687C182.121 119.966 183.317 120.219 184.491 120.434C185.33 120.59 185.886 121.396 185.73 122.235Z" fill="black"/>
<path d="M82.5425 78.5008C82.4785 78.4897 82.412 78.4749 82.3466 78.4541C81.1737 78.0891 79.9876 77.7281 78.8176 77.3824C78.0001 77.1392 77.532 76.279 77.7753 75.4615C78.0185 74.644 78.8762 74.1723 79.6967 74.4161C80.8814 74.7675 82.0828 75.1311 83.2704 75.5018C84.0858 75.7573 84.5401 76.6244 84.2852 77.4368C84.0506 78.1868 83.2984 78.6297 82.5461 78.4983L82.5425 78.5008Z" fill="black"/>
<path d="M71.8444 75.4194C71.8018 75.412 71.7561 75.404 71.7145 75.3905C70.5326 75.0773 69.3308 74.77 68.1426 74.4746C67.3156 74.2673 66.8093 73.4287 67.0165 72.6018C67.2238 71.7748 68.0659 71.2659 68.8893 71.4757C70.0927 71.7738 71.3062 72.0862 72.5034 72.4021C73.3282 72.6215 73.8208 73.4672 73.6013 74.292C73.3955 75.0752 72.6242 75.5557 71.8414 75.4189L71.8444 75.4194Z" fill="black"/>
<path d="M39.1692 68.9765C37.9576 68.8151 36.7266 68.6566 35.5093 68.5098C35.4819 68.505 35.4545 68.5002 35.4271 68.4954C34.623 68.355 34.06 67.6069 34.1589 66.7893C34.2601 65.9407 35.0308 65.3377 35.8794 65.4389C37.1089 65.5878 38.3556 65.7459 39.5794 65.9095C40.4187 66.0279 41.0212 66.8017 40.9078 67.6481C40.7945 68.4946 40.0156 69.0899 39.1692 68.9765Z" fill="black"/>
<path d="M212.342 37.4431C211.16 37.3276 210.01 37.3181 208.929 37.4149C208.789 37.428 208.655 37.4204 208.524 37.3975C207.851 37.2799 207.317 36.7252 207.25 36.0136C207.173 35.162 207.8 34.4116 208.651 34.3343C209.927 34.2182 211.271 34.2302 212.648 34.364C213.506 34.448 214.118 35.2045 214.035 36.0533C213.953 36.9021 213.195 37.5229 212.346 37.4405L212.342 37.4431Z" fill="black"/>
<path d="M212.541 69.6726C212.184 70.169 211.584 70.3906 211.02 70.2921C210.798 70.2533 210.581 70.1652 210.386 70.0244C210.038 69.7721 209.69 69.5198 209.342 69.2644C208.672 68.7707 208.004 68.246 207.351 67.7051C206.693 67.1601 206.603 66.184 207.148 65.5289C207.693 64.8708 208.669 64.7808 209.324 65.3253C209.93 65.8266 210.551 66.3149 211.174 66.7722C211.511 67.0193 211.85 67.267 212.19 67.5116C212.885 68.0096 213.043 68.9756 212.542 69.6696L212.541 69.6726Z" fill="black"/>
<path d="M61.0263 72.8118C61.0049 72.808 60.9836 72.8043 60.9623 72.8006C59.7713 72.5392 58.5574 72.2832 57.3541 72.0384C56.5177 71.8672 55.9761 71.0507 56.1473 70.2143C56.3186 69.3779 57.1285 68.8383 57.9715 69.0075C59.19 69.2549 60.4156 69.5161 61.6223 69.7772C62.4566 69.9606 62.9844 70.7841 62.801 71.6183C62.6243 72.4318 61.8364 72.9533 61.0263 72.8118Z" fill="black"/>
<path d="M93.0938 82.0515C93.0054 82.0361 92.9182 82.0146 92.833 81.9809C91.6814 81.5663 90.5109 81.1515 89.3535 80.7516C88.5454 80.4723 88.1182 79.5941 88.3975 78.786C88.6767 77.978 89.5524 77.5471 90.3635 77.8269C91.5361 78.2295 92.7182 78.6495 93.8846 79.0698C94.6875 79.3607 95.104 80.2464 94.8131 81.0493C94.5528 81.7666 93.8192 82.1751 93.0943 82.0485L93.0938 82.0515Z" fill="black"/>
<path d="M28.1695 67.7202C26.956 67.6055 25.7196 67.4962 24.4944 67.3952C24.4481 67.3902 24.3989 67.3848 24.3532 67.3768C23.5735 67.2406 23.0133 66.5307 23.0816 65.7265C23.1517 64.8756 23.8993 64.2435 24.7502 64.3137C25.9877 64.4169 27.2398 64.5258 28.4655 64.6426C29.3117 64.7214 29.9392 65.4776 29.8599 66.3269C29.7806 67.1762 29.0249 67.8006 28.1756 67.7213L28.1695 67.7202Z" fill="black"/>
<path d="M50.1057 70.6616L50.0021 70.6435C48.8326 70.4392 47.6431 70.2408 46.4678 70.0512C46.4617 70.0501 46.4557 70.049 46.4465 70.0474C45.615 69.9022 45.0523 69.1165 45.1859 68.2798C45.3206 67.4371 46.1145 66.8633 46.9573 66.9979C48.1447 67.1897 49.3494 67.3907 50.5403 67.5988L50.6378 67.6158C51.4784 67.7626 52.0415 68.5641 51.8946 69.4047C51.7478 70.2454 50.9463 70.8084 50.1057 70.6616Z" fill="black"/>
<path d="M152.847 111.686C152.689 111.658 152.534 111.606 152.385 111.526C151.329 110.962 150.256 110.382 149.105 109.748C148.358 109.335 148.086 108.396 148.496 107.649C148.909 106.902 149.848 106.629 150.595 107.039C151.732 107.665 152.792 108.242 153.838 108.798C154.59 109.2 154.875 110.138 154.474 110.89C154.151 111.496 153.484 111.797 152.844 111.685L152.847 111.686Z" fill="black"/>
<path d="M238.133 94.4098C238.474 93.6281 239.387 93.2697 240.169 93.6103C240.951 93.9509 241.309 94.8641 240.968 95.6457C240.461 96.8064 239.897 97.9696 239.292 99.0943C238.967 99.6967 238.303 99.998 237.663 99.8863C237.505 99.8586 237.348 99.8061 237.198 99.7266C236.447 99.3222 236.165 98.3847 236.566 97.6325C237.13 96.5791 237.658 95.4944 238.133 94.4098Z" fill="black"/>
<path d="M173.175 120.692C173.102 120.679 173.027 120.66 172.955 120.638C171.777 120.25 170.58 119.827 169.398 119.385C168.6 119.086 168.194 118.196 168.493 117.397C168.793 116.596 169.686 116.193 170.481 116.492C171.627 116.922 172.783 117.328 173.923 117.703C174.733 117.97 175.174 118.844 174.907 119.654C174.665 120.393 173.918 120.825 173.174 120.695L173.175 120.692Z" fill="black"/>
<path d="M232.718 108.492C232.348 108.908 231.806 109.077 231.295 108.988C231.021 108.94 230.756 108.818 230.534 108.619C229.895 108.053 229.84 107.076 230.406 106.438C231.199 105.547 231.968 104.614 232.686 103.666C233.203 102.987 234.174 102.855 234.853 103.369C235.532 103.887 235.667 104.855 235.149 105.537C234.379 106.548 233.562 107.544 232.715 108.492L232.718 108.492Z" fill="black"/>
<path d="M103.479 86.0646C103.369 86.0455 103.262 86.0141 103.153 85.9701C102.023 85.5058 100.873 85.0414 99.7312 84.5907C98.9386 84.2765 98.5492 83.3798 98.8609 82.5837C99.1751 81.7911 100.072 81.3986 100.868 81.7133C102.025 82.1697 103.189 82.6398 104.331 83.1093C105.121 83.4357 105.497 84.3394 105.171 85.1268C104.889 85.8088 104.177 86.1834 103.476 86.061L103.479 86.0646Z" fill="black"/>
<path d="M191.445 124.455C191.392 124.452 191.343 124.444 191.291 124.435C190.518 124.3 189.959 123.596 190.017 122.797C190.082 121.945 190.821 121.305 191.673 121.369C192.885 121.458 194.099 121.513 195.283 121.529C196.135 121.539 196.819 122.24 196.808 123.095C196.797 123.95 196.097 124.631 195.242 124.62C193.993 124.602 192.715 124.548 191.442 124.452L191.445 124.455Z" fill="black"/>
<path d="M202.863 124.212C202.706 124.232 202.553 124.227 202.407 124.201C201.755 124.087 201.226 123.559 201.139 122.869C201.033 122.022 201.636 121.248 202.482 121.145C203.679 120.996 204.871 120.803 206.029 120.572C206.865 120.404 207.681 120.945 207.848 121.784C208.015 122.623 207.475 123.436 206.636 123.603C205.402 123.852 204.133 124.057 202.859 124.214L202.863 124.212Z" fill="black"/>
<path d="M225.237 111.414C225.897 110.87 226.872 110.968 227.413 111.624C227.954 112.284 227.862 113.259 227.203 113.8C226.217 114.61 225.189 115.391 224.152 116.117C223.802 116.361 223.389 116.442 222.999 116.374C222.609 116.306 222.242 116.088 221.999 115.738C221.509 115.037 221.681 114.075 222.381 113.586C223.354 112.905 224.316 112.175 225.24 111.417L225.237 111.414Z" fill="black"/>
<path d="M213.191 121.573C212.67 121.482 212.212 121.125 212.009 120.597C211.706 119.797 212.109 118.907 212.906 118.604C214.012 118.185 215.118 117.71 216.194 117.195C216.964 116.827 217.887 117.151 218.255 117.919C218.623 118.689 218.298 119.612 217.531 119.98C216.376 120.535 215.189 121.043 214.003 121.492C213.734 121.592 213.454 121.615 213.192 121.57L213.191 121.573Z" fill="black"/>
<path d="M123.675 95.4335C123.522 95.4069 123.374 95.359 123.23 95.2837C122.142 94.7201 121.035 94.1594 119.938 93.61C119.173 93.2284 118.864 92.3018 119.246 91.5368C119.627 90.7717 120.557 90.4632 121.319 90.8443C122.427 91.3989 123.549 91.9683 124.648 92.5371C125.405 92.9298 125.704 93.8609 125.311 94.6208C124.993 95.2369 124.32 95.5463 123.672 95.433L123.675 95.4335Z" fill="black"/>
<path d="M113.675 90.5306C113.544 90.5077 113.416 90.4666 113.288 90.4097C112.179 89.8957 111.048 89.3811 109.93 88.8814C109.15 88.5317 108.8 87.6201 109.147 86.8394C109.497 86.0594 110.412 85.7107 111.189 86.0598C112.321 86.5653 113.464 87.0851 114.587 87.6078C115.363 87.9661 115.698 88.8878 115.34 89.6602C115.038 90.3074 114.344 90.6507 113.671 90.5331L113.675 90.5306Z" fill="black"/>
<path d="M133.454 100.744C133.287 100.715 133.118 100.657 132.961 100.567C131.889 99.9622 130.815 99.3601 129.735 98.7636C128.988 98.3506 128.716 97.4116 129.129 96.6646C129.542 95.9175 130.484 95.6458 131.228 96.0583C132.316 96.6594 133.4 97.2631 134.479 97.8755C135.222 98.294 135.484 99.2375 135.066 99.9804C134.734 100.566 134.078 100.853 133.454 100.744Z" fill="black"/>
<path d="M162.818 116.623C162.693 116.601 162.567 116.564 162.448 116.508C161.343 116.011 160.2 115.475 159.051 114.92C158.28 114.55 157.959 113.624 158.332 112.855C158.702 112.084 159.627 111.763 160.394 112.135C161.52 112.677 162.64 113.202 163.719 113.689C164.496 114.041 164.845 114.956 164.492 115.732C164.195 116.39 163.497 116.739 162.818 116.62L162.818 116.623Z" fill="black"/>
<path d="M222.738 40.8484C222.571 40.8191 222.402 40.7614 222.245 40.6712C221.231 40.0985 220.168 39.5895 219.083 39.149C218.292 38.8287 217.91 37.927 218.23 37.1355C218.55 36.344 219.452 35.9617 220.243 36.282C221.451 36.7692 222.635 37.3402 223.764 37.9767C224.507 38.3953 224.772 39.3393 224.354 40.0822C224.022 40.6678 223.369 40.9555 222.742 40.8459L222.738 40.8484Z" fill="black"/>
<path d="M143.118 106.274C142.947 106.244 142.776 106.183 142.616 106.092C141.54 105.477 140.468 104.86 139.396 104.242C138.657 103.818 138.401 102.873 138.826 102.131C139.25 101.392 140.199 101.137 140.937 101.561C142.007 102.178 143.08 102.792 144.152 103.407C144.894 103.831 145.15 104.774 144.726 105.516C144.392 106.098 143.74 106.379 143.118 106.271L143.118 106.274Z" fill="black"/>
<path d="M221.984 75.5655C221.651 76.1444 220.999 76.426 220.378 76.3175C220.204 76.2871 220.036 76.2263 219.873 76.1351C218.789 75.5126 217.701 74.8611 216.644 74.2057C215.919 73.7558 215.697 72.8035 216.146 72.0786C216.596 71.3537 217.549 71.1308 218.274 71.5808C219.302 72.2186 220.359 72.849 221.414 73.4571C222.153 73.8812 222.408 74.8266 221.984 75.5685L221.984 75.5655Z" fill="black"/>
<path d="M345.307 74.1471C344.969 74.3579 344.585 74.4225 344.222 74.3592C343.805 74.2863 343.42 74.0434 343.177 73.6587C342.722 72.9359 342.942 71.9825 343.665 71.5281C344.698 70.8799 345.729 70.2094 346.732 69.5309C347.44 69.052 348.4 69.2385 348.879 69.9467C349.358 70.655 349.171 71.6143 348.463 72.0932C347.431 72.7917 346.371 73.4824 345.307 74.1471Z" fill="black"/>
<path d="M328.607 82.762C327.459 83.2395 326.283 83.7056 325.112 84.1509C324.844 84.2515 324.564 84.2747 324.302 84.2289C323.781 84.1379 323.322 83.7816 323.119 83.2534C322.816 82.4535 323.22 81.5635 324.017 81.2601C325.156 80.8283 326.3 80.3721 327.42 79.9086C328.208 79.5818 329.113 79.9534 329.44 80.7418C329.767 81.5302 329.395 82.4352 328.607 82.762Z" fill="black"/>
<path d="M273.476 91.8712C272.233 91.7985 270.972 91.7038 269.73 91.5934C269.687 91.589 269.64 91.5841 269.598 91.5766C268.815 91.4399 268.253 90.7233 268.325 89.9167C268.401 89.0669 269.151 88.4383 270.001 88.5146C271.212 88.6227 272.443 88.7121 273.657 88.7861C274.509 88.8344 275.159 89.5695 275.11 90.421C275.059 91.2721 274.327 91.9226 273.475 91.8743L273.476 91.8712Z" fill="black"/>
<path d="M318.007 86.5867C316.819 86.9536 315.605 87.3065 314.399 87.6387C314.171 87.7025 313.94 87.7093 313.724 87.6716C313.155 87.5721 312.663 87.1534 312.5 86.5569C312.274 85.7327 312.758 84.882 313.583 84.6556C314.756 84.3333 315.94 83.9878 317.098 83.6313C317.914 83.3815 318.779 83.8371 319.032 84.6534C319.285 85.4697 318.826 86.3343 318.01 86.5872L318.007 86.5867Z" fill="black"/>
<path d="M262.277 90.7092C261.222 90.5531 260.16 90.3801 259.112 90.1971L258.57 90.1024C257.73 89.9494 257.17 89.1485 257.32 88.3084C257.469 87.4713 258.27 86.9113 259.108 87.0576L259.644 87.1513C260.664 87.3295 261.702 87.4983 262.73 87.6527C263.567 87.7802 264.159 88.5646 264.03 89.4084C263.901 90.2522 263.118 90.8373 262.274 90.7087L262.277 90.7092Z" fill="black"/>
<path d="M284.74 92.0429C283.494 92.0794 282.229 92.097 280.983 92.0959C280.892 92.0957 280.803 92.0894 280.717 92.0745C279.989 91.9473 279.438 91.3142 279.439 90.5518C279.441 89.6983 280.133 89.0063 280.986 89.0079C282.201 89.0097 283.434 88.9899 284.652 88.9577C285.506 88.9344 286.218 89.6048 286.241 90.4595C286.264 91.3141 285.594 92.0256 284.739 92.049L284.74 92.0429Z" fill="black"/>
<path d="M338.795 77.9245C337.694 78.5137 336.57 79.0956 335.453 79.6475C335.147 79.7982 334.814 79.8403 334.503 79.786C334.034 79.7041 333.609 79.407 333.382 78.9467C333.004 78.1807 333.316 77.2529 334.082 76.8751C335.171 76.3372 336.265 75.7718 337.335 75.1992C338.087 74.7938 339.026 75.0772 339.428 75.8316C339.833 76.5835 339.55 77.5227 338.795 77.9245Z" fill="black"/>
<path d="M295.981 91.2222C294.744 91.3671 293.488 91.4961 292.245 91.6053C292.108 91.616 291.974 91.6114 291.843 91.5885C291.17 91.4709 290.633 90.9126 290.569 90.2015C290.495 89.3505 291.125 88.6006 291.973 88.5258C293.184 88.4204 294.412 88.2927 295.617 88.1517C296.466 88.0521 297.233 88.6569 297.332 89.506C297.432 90.3552 296.827 91.1221 295.978 91.2217L295.981 91.2222Z" fill="black"/>
<path d="M307.095 89.4082C305.873 89.6655 304.635 89.9044 303.407 90.1231C303.223 90.1567 303.044 90.1538 302.871 90.1235C302.249 90.0149 301.732 89.529 301.614 88.8713C301.463 88.0319 302.023 87.2291 302.863 87.0775C304.059 86.8627 305.27 86.6287 306.46 86.3782C307.294 86.2037 308.113 86.7393 308.291 87.5738C308.465 88.4078 307.933 89.2282 307.095 89.4051L307.095 89.4082Z" fill="black"/>
<path d="M231.959 80.4945C231.662 81.152 230.964 81.5008 230.285 81.3822C230.16 81.3603 230.035 81.3228 229.913 81.2669C228.775 80.7543 227.629 80.2152 226.511 79.6651C225.745 79.2896 225.429 78.3619 225.805 77.5958C226.181 76.8296 227.106 76.511 227.874 76.8901C228.964 77.4257 230.078 77.9499 231.187 78.448C231.963 78.8003 232.312 79.7149 231.96 80.4914L231.959 80.4945Z" fill="black"/>
<path d="M231.221 47.9741C230.889 47.9161 230.573 47.7479 230.329 47.4761C229.537 46.5814 228.703 45.7138 227.847 44.8989C227.228 44.3105 227.205 43.3303 227.796 42.7147C228.384 42.0956 229.364 42.0722 229.98 42.6631C230.897 43.539 231.796 44.4681 232.645 45.4294C233.211 46.0682 233.15 47.0462 232.511 47.6126C232.144 47.9376 231.668 48.0554 231.22 47.9772L231.221 47.9741Z" fill="black"/>
<path d="M251.317 88.5751C251.283 88.5692 251.25 88.5634 251.217 88.5545C250.003 88.2609 248.778 87.9463 247.58 87.6177C246.756 87.3922 246.27 86.5416 246.499 85.7183C246.725 84.8946 247.572 84.4086 248.398 84.6377C249.57 84.9585 250.762 85.2672 251.945 85.5524C252.776 85.7541 253.286 86.5902 253.085 87.4182C252.892 88.2163 252.114 88.7175 251.319 88.5787L251.317 88.5751Z" fill="black"/>
<path d="M238.489 56.974C238.175 57.1388 237.831 57.1854 237.508 57.129C237.051 57.0492 236.636 56.7663 236.402 56.3238C235.847 55.2632 235.248 54.217 234.617 53.2122C234.162 52.4893 234.379 51.5354 235.102 51.081C235.825 50.6266 236.779 50.8435 237.233 51.5663C237.909 52.6385 238.549 53.7578 239.142 54.8878C239.537 55.6442 239.245 56.5788 238.489 56.974Z" fill="black"/>
<path d="M242.127 67.4741C241.907 67.5298 241.689 67.5357 241.479 67.499C240.897 67.3974 240.402 66.9655 240.247 66.3579C239.953 65.2017 239.609 64.0431 239.226 62.9152C238.953 62.1079 239.385 61.2293 240.193 60.956C241 60.6828 241.879 61.1156 242.152 61.9229C242.56 63.1272 242.925 64.3618 243.24 65.5938C243.45 66.4215 242.948 67.2629 242.124 67.4735L242.127 67.4741Z" fill="black"/>
<path d="M243.44 88.3844C243.245 89.1789 242.468 89.6741 241.676 89.5357C241.639 89.5293 241.603 89.5229 241.57 89.514C240.742 89.3099 240.236 88.4712 240.441 87.6407C240.567 87.1324 240.685 86.6194 240.789 86.1164C240.831 85.9104 240.874 85.7013 240.913 85.4917C240.744 85.4934 240.57 85.4661 240.401 85.4084C239.219 85.0042 238.029 84.5765 236.863 84.1374C236.064 83.8379 235.658 82.9446 235.961 82.1469C236.261 81.3486 237.156 80.9464 237.952 81.2454C239.088 81.6731 240.246 82.0888 241.399 82.4816C241.674 82.5768 241.906 82.7397 242.083 82.9495C242.337 82.8432 242.623 82.8053 242.916 82.8503C242.925 82.8519 242.934 82.8535 242.943 82.8551C243.772 82.9998 244.335 83.7824 244.205 84.6166C244.165 84.8638 244.124 85.1141 244.082 85.3578C244.002 85.8177 243.913 86.2857 243.817 86.746C243.704 87.288 243.58 87.8375 243.443 88.3849L243.44 88.3844Z" fill="black"/>
<path d="M243.219 78.5309C243.122 78.5327 243.026 78.5253 242.934 78.5094C242.216 78.3838 241.665 77.7604 241.656 77.0054C241.643 75.8199 241.581 74.6163 241.468 73.4259C241.391 72.5774 242.015 71.8234 242.864 71.7426C243.713 71.6618 244.467 72.2893 244.547 73.1383C244.664 74.4111 244.734 75.7007 244.748 76.9681C244.759 77.8206 244.074 78.5234 243.219 78.5309Z" fill="black"/>
<path d="M25.2276 77.545C20.0401 72.5992 11.534 67.7673 4.62984 64.8506C11.7622 62.5623 20.6686 58.5093 26.2761 54.0433L21.5008 65.6039L25.2276 77.545Z" fill="black"/>
</g>
<defs>
<clipPath id="clip0_5870_20951">
<rect width="340.419" height="92.7262" fill="white" transform="matrix(-0.985081 -0.17209 -0.17209 0.985081 351.297 58.583)"/>
</clipPath>
</defs>
</svg>
