<svg width="299" height="274" viewBox="0 0 299 274" fill="none" xmlns="http://www.w3.org/2000/svg">
<path d="M289.727 136.079C289.82 136.583 290.12 136.998 290.517 137.254C290.888 137.493 291.349 137.599 291.817 137.508C293.218 137.247 294.647 136.969 296.063 136.684C297.033 136.49 297.664 135.545 297.467 134.574C297.273 133.604 296.328 132.973 295.356 133.17C293.954 133.452 292.541 133.726 291.154 133.984C290.18 134.166 289.542 135.103 289.721 136.075L289.727 136.079Z" fill="#212121"/>
<path d="M264.991 141.012C265.323 141.225 265.727 141.332 266.153 141.287C267.565 141.135 269.01 140.971 270.45 140.795C271.431 140.676 272.135 139.783 272.014 138.8C271.895 137.819 271.002 137.115 270.019 137.237C268.594 137.409 267.163 137.571 265.769 137.721C264.784 137.828 264.074 138.71 264.178 139.694C264.239 140.253 264.549 140.726 264.988 141.01L264.991 141.012Z" fill="#212121"/>
<path d="M181.947 137.999C182.093 137.018 181.419 136.106 180.441 135.962C179.04 135.754 177.619 135.529 176.214 135.301C175.238 135.141 174.315 135.804 174.158 136.782C174.04 137.508 174.377 138.203 174.958 138.577C175.16 138.708 175.39 138.801 175.642 138.839C177.064 139.069 178.5 139.296 179.917 139.506C180.898 139.652 181.811 138.978 181.955 138L181.947 137.999Z" fill="#212121"/>
<path d="M154.423 134.681C155.389 134.903 156.348 134.302 156.57 133.336C156.792 132.37 156.19 131.41 155.224 131.188C153.841 130.873 152.439 130.54 151.062 130.202C150.1 129.966 149.131 130.557 148.895 131.518C148.71 132.282 149.041 133.045 149.665 133.447C149.827 133.552 150.013 133.634 150.213 133.681C151.606 134.021 153.024 134.355 154.422 134.676L154.423 134.681Z" fill="#212121"/>
<path d="M154.411 84.7858C155.223 85.8681 155.984 87.0159 156.676 88.1996C156.821 88.4509 157.02 88.6517 157.249 88.7994C157.8 89.1549 158.525 89.1955 159.128 88.8422C159.982 88.3439 160.269 87.2447 159.767 86.3883C159.008 85.0923 158.17 83.8313 157.28 82.6388C156.683 81.8444 155.562 81.6846 154.769 82.2784C153.977 82.8723 153.815 83.9964 154.409 84.7888L154.411 84.7858Z" fill="#212121"/>
<path d="M137.607 155.823C137.749 156.051 137.937 156.237 138.148 156.372C138.717 156.74 139.468 156.767 140.077 156.384C141.33 155.592 142.56 154.756 143.737 153.889C144.534 153.303 144.706 152.181 144.119 151.385C143.533 150.588 142.411 150.416 141.615 151.002C140.51 151.817 139.347 152.607 138.167 153.352C137.332 153.88 137.079 154.988 137.61 155.825L137.607 155.823Z" fill="#212121"/>
<path d="M148.234 148.359C148.927 148.805 149.861 148.726 150.469 148.12C151.069 147.521 151.664 146.902 152.237 146.278C152.661 145.818 153.084 145.335 153.497 144.847C154.138 144.091 154.044 142.96 153.288 142.319C152.528 141.679 151.401 141.772 150.761 142.528C150.381 142.978 149.987 143.424 149.597 143.85C149.059 144.433 148.503 145.017 147.938 145.575C147.236 146.274 147.235 147.407 147.934 148.11C148.026 148.204 148.127 148.286 148.233 148.354L148.234 148.359Z" fill="#212121"/>
<path d="M163.972 105.983C162.983 106.028 162.22 106.867 162.265 107.856C162.328 109.227 162.336 110.623 162.285 112.006C162.26 112.66 162.592 113.249 163.105 113.579C163.367 113.748 163.676 113.85 164.009 113.864C165 113.901 165.831 113.128 165.867 112.14C165.923 110.657 165.916 109.16 165.844 107.689C165.799 106.701 164.957 105.936 163.972 105.983Z" fill="#212121"/>
<path d="M125.924 161.251C126.066 161.62 126.314 161.916 126.624 162.116C127.088 162.416 127.684 162.497 128.24 162.284C129.617 161.755 130.986 161.18 132.308 160.578C133.21 160.165 133.605 159.102 133.193 158.201C132.78 157.299 131.717 156.904 130.816 157.316C129.563 157.89 128.264 158.435 126.954 158.938C126.03 159.294 125.567 160.33 125.922 161.254L125.924 161.251Z" fill="#212121"/>
<path d="M164.654 98.8596C164.32 97.399 163.916 95.9484 163.451 94.5525C163.14 93.6136 162.125 93.1041 161.186 93.4158C160.247 93.7275 159.737 94.7426 160.049 95.6815C160.477 96.9686 160.849 98.3043 161.159 99.6559C161.267 100.131 161.555 100.517 161.935 100.762C162.314 101.006 162.815 101.116 163.307 101.002C164.273 100.781 164.874 99.8208 164.656 98.8566L164.654 98.8596Z" fill="#212121"/>
<path d="M160.674 133.606C161.094 132.708 160.706 131.643 159.814 131.222C158.916 130.801 157.848 131.187 157.43 132.081C156.842 133.336 156.194 134.573 155.509 135.761C155.03 136.591 155.291 137.647 156.09 138.162C156.114 138.177 156.141 138.195 156.165 138.21C157.024 138.704 158.117 138.411 158.614 137.554C159.35 136.28 160.041 134.951 160.674 133.606Z" fill="#212121"/>
<path d="M194.754 139.594C194.863 138.611 194.154 137.727 193.168 137.616C191.757 137.461 190.326 137.293 188.916 137.118C187.933 136.996 187.039 137.695 186.916 138.678C186.828 139.384 187.165 140.045 187.725 140.407C187.945 140.548 188.199 140.644 188.476 140.678C189.899 140.853 191.346 141.022 192.773 141.179C193.756 141.288 194.645 140.577 194.751 139.592L194.754 139.594Z" fill="#212121"/>
<path d="M137.198 130.099C137.334 130.186 137.484 130.258 137.648 130.308C138.97 130.712 140.336 131.107 141.828 131.519C142.782 131.78 143.769 131.222 144.034 130.267C144.298 129.315 143.739 128.323 142.782 128.061C141.323 127.657 139.987 127.269 138.696 126.876C137.749 126.585 136.747 127.121 136.458 128.065C136.218 128.848 136.544 129.673 137.2 130.096L137.198 130.099Z" fill="#212121"/>
<path d="M161.311 120.258C161.04 121.61 160.712 122.973 160.333 124.302C160.112 125.081 160.44 125.881 161.085 126.297C161.23 126.39 161.391 126.464 161.568 126.514C162.521 126.783 163.511 126.232 163.783 125.281C164.187 123.861 164.54 122.408 164.827 120.964C165.022 119.993 164.39 119.048 163.422 118.855C162.452 118.66 161.507 119.292 161.314 120.26L161.311 120.258Z" fill="#212121"/>
<path d="M162.257 136.259C162.441 136.377 162.646 136.462 162.871 136.51C164.274 136.795 165.703 137.073 167.117 137.341C168.09 137.525 169.028 136.884 169.21 135.914C169.394 134.94 168.756 134.004 167.783 133.82C166.385 133.554 164.972 133.279 163.583 132.998C162.615 132.8 161.667 133.43 161.469 134.398C161.318 135.141 161.652 135.873 162.255 136.262L162.257 136.259Z" fill="#212121"/>
<path d="M220.501 141.305C220.533 140.315 219.761 139.489 218.768 139.454C217.349 139.405 215.91 139.348 214.492 139.286C213.501 139.24 212.663 140.005 212.617 140.995C212.587 141.658 212.917 142.25 213.438 142.586C213.694 142.751 213.999 142.854 214.327 142.869C215.76 142.936 217.214 142.995 218.648 143.041C219.638 143.073 220.466 142.298 220.499 141.308L220.501 141.305Z" fill="#212121"/>
<path d="M125.343 125.666C126.625 126.271 127.987 126.864 129.385 127.428C130.303 127.798 131.347 127.349 131.717 126.432C132.086 125.514 131.641 124.472 130.72 124.1C129.386 123.564 128.092 123.003 126.873 122.426C125.978 122.002 124.912 122.385 124.488 123.281C124.1 124.101 124.39 125.073 125.134 125.553C125.201 125.596 125.269 125.635 125.341 125.669L125.343 125.666Z" fill="#212121"/>
<path d="M34.4314 142.507C33.2075 141.799 31.9663 141.071 30.7479 140.341C29.8989 139.832 28.7994 140.109 28.2903 140.958C27.7929 141.789 28.0461 142.865 28.8535 143.385C28.8716 143.397 28.8866 143.407 28.9047 143.418C30.1411 144.16 31.3974 144.898 32.6364 145.615C33.4932 146.112 34.5885 145.816 35.0855 144.959C35.5825 144.103 35.2803 143.004 34.4295 142.51L34.4314 142.507Z" fill="#212121"/>
<path d="M277.787 139.381C278.14 139.608 278.572 139.712 279.019 139.647C280.427 139.441 281.863 139.219 283.294 138.99C284.272 138.836 284.939 137.914 284.78 136.937C284.626 135.959 283.702 135.295 282.727 135.451C281.313 135.679 279.889 135.895 278.498 136.103C277.517 136.247 276.84 137.158 276.984 138.138C277.063 138.671 277.366 139.114 277.788 139.386L277.787 139.381Z" fill="#212121"/>
<path d="M257.251 138.529C255.831 138.646 254.397 138.753 252.984 138.849C251.997 138.916 251.249 139.773 251.319 140.761C251.36 141.347 251.679 141.851 252.137 142.146C252.45 142.348 252.829 142.456 253.23 142.429C254.659 142.33 256.111 142.221 257.543 142.104C258.529 142.023 259.266 141.159 259.182 140.171C259.101 139.185 258.237 138.448 257.249 138.532L257.251 138.529Z" fill="#212121"/>
<path d="M106.854 83.568C107.31 82.689 106.966 81.6014 106.088 81.1505C105.209 80.6946 104.126 81.0373 103.67 81.9163C103.204 82.8184 102.794 83.7524 102.45 84.6954C102.266 85.1994 102.101 85.72 101.949 86.2404C101.725 87.0174 102.054 87.8228 102.699 88.2385C102.844 88.3318 103.005 88.4059 103.179 88.4539C104.13 88.7258 105.123 88.1766 105.394 87.2208C105.52 86.7814 105.663 86.3406 105.817 85.9107C106.104 85.1148 106.452 84.3239 106.845 83.5622L106.854 83.568Z" fill="#212121"/>
<path d="M233.405 141.419C233.399 140.43 232.593 139.629 231.604 139.635C230.179 139.642 228.739 139.639 227.326 139.628C226.336 139.621 225.525 140.416 225.518 141.406C225.513 142.042 225.84 142.607 226.34 142.93C226.617 143.108 226.943 143.212 227.296 143.213C228.727 143.223 230.183 143.228 231.621 143.221C232.61 143.214 233.411 142.409 233.405 141.419Z" fill="#212121"/>
<path d="M46.4717 151.042C46.9216 150.159 46.5719 149.081 45.689 148.631C44.4363 147.994 43.1642 147.327 41.904 146.655C41.0308 146.19 39.945 146.518 39.4781 147.394C39.0374 148.223 39.3095 149.244 40.0868 149.745C40.129 149.772 40.1712 149.799 40.2173 149.82C41.4956 150.504 42.7896 151.176 44.0604 151.825C44.9433 152.275 46.0218 151.925 46.4717 151.042Z" fill="#212121"/>
<path d="M82.7649 164.207C82.9678 163.238 82.3457 162.291 81.3761 162.088C80.0454 161.81 78.6613 161.489 77.2686 161.128C76.3102 160.882 75.3326 161.458 75.0858 162.417C74.8887 163.185 75.2198 163.962 75.8495 164.368C76.0061 164.469 76.1814 164.548 76.376 164.597C77.8255 164.968 79.2596 165.304 80.6472 165.593C81.6168 165.796 82.5639 165.174 82.7668 164.204L82.7649 164.207Z" fill="#212121"/>
<path d="M93.8977 163.751C92.5052 163.668 91.0894 163.548 89.696 163.4C88.711 163.294 87.8299 164.006 87.7206 164.989C87.6458 165.687 87.9799 166.333 88.5312 166.689C88.7572 166.834 89.0222 166.933 89.3091 166.964C90.7613 167.12 92.2299 167.244 93.683 167.332C94.6703 167.388 95.5219 166.636 95.5784 165.649C95.6349 164.662 94.883 163.81 93.8957 163.754L93.8977 163.751Z" fill="#212121"/>
<path d="M70.275 160.974C70.5938 160.037 70.089 159.02 69.1514 158.702C67.842 158.258 66.4943 157.782 65.1511 157.278C64.223 156.931 63.1922 157.406 62.8454 158.334C62.5445 159.138 62.8593 160.019 63.5522 160.466C63.6577 160.534 63.7769 160.594 63.9009 160.639C65.28 161.153 66.6618 161.643 68.0052 162.1C68.9428 162.419 69.9593 161.914 70.2781 160.976L70.275 160.974Z" fill="#212121"/>
<path d="M58.188 156.452C58.5809 155.545 58.1629 154.487 57.256 154.094C55.9767 153.538 54.6651 152.952 53.3643 152.357C52.466 151.944 51.4021 152.337 50.9862 153.233C50.606 154.055 50.9011 155.013 51.6393 155.489C51.7086 155.533 51.7848 155.574 51.8629 155.611C53.1878 156.223 54.5224 156.819 55.8267 157.382C56.7336 157.775 57.7903 157.36 58.185 156.45L58.188 156.452Z" fill="#212121"/>
<path d="M106.014 105.871C105.155 106.362 104.855 107.457 105.346 108.315C106.088 109.613 106.923 110.885 107.825 112.093C107.959 112.269 108.115 112.417 108.29 112.529C108.901 112.924 109.718 112.921 110.334 112.461C111.126 111.867 111.291 110.745 110.697 109.953C109.883 108.86 109.13 107.714 108.458 106.539C107.967 105.68 106.873 105.38 106.014 105.871Z" fill="#212121"/>
<path d="M119.838 164.942C120.797 164.699 121.379 163.722 121.133 162.762C120.89 161.803 119.916 161.222 118.952 161.467C117.61 161.808 116.23 162.117 114.852 162.388C113.879 162.58 113.247 163.521 113.436 164.491C113.533 164.989 113.829 165.397 114.224 165.652C114.618 165.906 115.066 165.999 115.541 165.904C116.982 165.621 118.428 165.296 119.835 164.94L119.838 164.942Z" fill="#212121"/>
<path d="M113.025 71.9185C111.722 72.7419 110.489 73.6696 109.355 74.6744C108.615 75.3321 108.549 76.4667 109.206 77.2063C109.319 77.3299 109.443 77.4354 109.575 77.5209C110.235 77.9463 111.122 77.8999 111.735 77.3526C112.723 76.4753 113.799 75.6674 114.937 74.9469C115.772 74.4191 116.026 73.3114 115.495 72.4743C114.966 71.6342 113.86 71.3856 113.022 71.9165L113.025 71.9185Z" fill="#212121"/>
<path d="M199.749 140.081C199.692 140.765 200.025 141.394 200.564 141.741C200.802 141.895 201.08 141.993 201.382 142.021C202.793 142.142 204.243 142.254 205.695 142.358C206.682 142.427 207.539 141.687 207.61 140.697C207.68 139.709 206.94 138.853 205.949 138.781C204.514 138.679 203.078 138.564 201.681 138.448C200.695 138.362 199.827 139.095 199.744 140.082L199.749 140.081Z" fill="#212121"/>
<path d="M145.509 76.4307C146.647 77.173 147.755 77.9943 148.799 78.8633C148.856 78.9131 148.915 78.955 148.978 78.9958C149.728 79.4795 150.737 79.3368 151.325 78.6367C151.96 77.8772 151.858 76.7452 151.097 76.1135C149.945 75.1536 148.726 74.2525 147.473 73.4314C146.637 72.8754 145.534 73.124 144.992 73.9517C144.45 74.7793 144.684 75.8904 145.512 76.4326L145.509 76.4307Z" fill="#212121"/>
<path d="M106.532 163.569C105.145 163.695 103.733 163.782 102.328 163.837C101.341 163.874 100.569 164.707 100.609 165.696C100.631 166.304 100.954 166.828 101.43 167.135C101.729 167.327 102.086 167.434 102.472 167.418C103.933 167.362 105.409 167.269 106.854 167.138C107.841 167.05 108.568 166.179 108.48 165.192C108.391 164.205 107.521 163.478 106.534 163.566L106.532 163.569Z" fill="#212121"/>
<path d="M116.328 115.849C115.562 115.219 114.436 115.325 113.804 116.086C113.172 116.847 113.279 117.978 114.041 118.61C115.165 119.539 116.369 120.444 117.618 121.292C117.63 121.3 117.642 121.307 117.654 121.315C118.47 121.842 119.559 121.622 120.108 120.816C120.666 119.998 120.451 118.883 119.633 118.326C118.478 117.543 117.367 116.707 116.328 115.849Z" fill="#212121"/>
<path d="M133.688 71.4634C133.866 71.5781 134.068 71.6615 134.288 71.7098C135.595 71.9851 136.913 72.3568 138.203 72.8093C139.138 73.1391 140.16 72.6462 140.487 71.7144C140.817 70.7796 140.327 69.7599 139.392 69.4301C137.956 68.9261 136.487 68.5121 135.03 68.2042C134.063 67.9983 133.11 68.6165 132.907 69.5861C132.749 70.3333 133.082 71.073 133.688 71.4634Z" fill="#212121"/>
<path d="M120.89 71.5765C121.291 71.8348 121.795 71.9335 122.297 71.8095C123.318 71.5552 124.357 71.3673 125.384 71.2492C125.673 71.2179 125.962 71.1866 126.25 71.1633C127.236 71.0826 127.973 70.2182 127.892 69.232C127.811 68.2458 126.947 67.5093 125.96 67.59C125.632 67.6169 125.304 67.6488 124.973 67.6867C123.79 67.8201 122.597 68.0362 121.428 68.3276C120.469 68.566 119.883 69.5405 120.121 70.5004C120.237 70.963 120.517 71.3356 120.887 71.5745L120.89 71.5765Z" fill="#212121"/>
<path d="M244.437 139.327C243.033 139.387 241.595 139.44 240.16 139.483C239.171 139.515 238.392 140.34 238.424 141.328C238.443 141.942 238.767 142.471 239.246 142.78C239.541 142.97 239.896 143.075 240.27 143.064C241.718 143.021 243.174 142.966 244.592 142.904C245.58 142.859 246.349 142.024 246.304 141.035C246.259 140.046 245.424 139.277 244.436 139.322L244.437 139.327Z" fill="#212121"/>
<path d="M101.137 95.4118C101.272 96.9023 101.535 98.4197 101.917 99.9243C102.031 100.382 102.317 100.753 102.681 100.989C103.085 101.249 103.593 101.346 104.093 101.22C105.052 100.977 105.634 100.001 105.391 99.0418C105.053 97.7195 104.825 96.3865 104.708 95.0867C104.619 94.0996 103.747 93.3752 102.76 93.4639C101.773 93.5525 101.048 94.4248 101.137 95.4118Z" fill="#212121"/>
<path d="M7.78139 127.145C12.7824 134.247 18.1883 144.22 20.2555 152.267L23.834 138.541C23.9015 138.469 23.9649 138.39 24.0193 138.306C24.0679 138.231 24.1025 138.151 24.14 138.073L35.7041 129.789C27.4475 130.74 16.2004 129.264 7.77838 127.143L7.78139 127.145Z" fill="#212121"/>
</svg>
