<svg width="436" height="575" viewBox="0 0 436 575" fill="none" xmlns="http://www.w3.org/2000/svg">
<g clip-path="url(#clip0_5870_20892)">
<path opacity="0.12" d="M291.074 307.316L315.01 295.566L245.337 258.179L247.103 257.503L263.322 223.756L260.619 222.143L246.231 221.86L228.268 211.047L237.206 192.43L234.001 190.533H147.826L42.4882 230.405L23.326 270.278L26.5306 272.174H66.7734L84.9764 282.878L82.3386 289.592L85.0418 291.206H157.963L173.027 289.483L252.335 341.912L0 488.801L142.855 574.366H159.772L276.01 503.407C276.032 503.232 276.01 503.08 276.053 502.927C262.537 501.99 253.752 482.631 267.203 471.448C301.668 442.825 325.038 403.192 361.727 376.705C363.362 375.528 365.085 374.351 366.763 373.174C380.519 353.379 392.88 332.996 405.327 312.352L379.473 296.983L291.03 307.338L291.074 307.316Z" fill="#212121"/>
<path d="M308.039 98.1438L315.32 367.701L339.278 343.764L328.357 74.1855L308.039 98.1438Z" fill="#FFCE63"/>
<path d="M243.465 343.764L267.423 367.701L274.704 98.1438L254.408 74.1855L243.465 343.764Z" fill="#FFBA22"/>
<path d="M271.066 98.1426L267.426 367.7H315.32L311.68 98.1426H271.066Z" fill="#FFC545"/>
<path d="M249.264 67.5801L207.168 113.316L249.264 155.434H333.477L375.573 113.316L333.477 67.5801H249.264Z" fill="#E3A826"/>
<path d="M207.168 117.35L249.264 159.446V155.435L207.168 113.317V117.35Z" fill="#CA9217"/>
<path d="M333.449 155.434H249.258V159.445H333.449V155.434Z" fill="#CA9217"/>
<path d="M333.48 159.446L375.576 117.35V113.317L333.48 155.435V159.446Z" fill="#CA9217"/>
<path d="M327.938 94.1768H254.82V149.505H327.938V94.1768Z" fill="#212121"/>
<path d="M216.905 59.4266L216.578 112.139L251.807 147.368V93.4564C251.807 93.4564 219.063 58.5982 216.905 59.4266Z" fill="#212121"/>
<path d="M253.312 151.008H329.438V92.6709H253.312V151.008ZM256.321 95.6793H326.43V147.999H256.321V95.6793Z" fill="#FFBE2E"/>
<path d="M215.008 58.4242L215.248 112.946L253.31 151.009V92.672L215.03 53.541V58.446L215.008 58.4242ZM218.736 62.5008L250.302 94.2852V143.771L217.885 111.355L218.714 62.5008H218.736Z" fill="#FFBE2E"/>
<path d="M330.926 93.477V147.388L366.155 112.16L365.828 59.4472C363.669 58.6188 330.926 93.477 330.926 93.477Z" fill="#212121"/>
<path d="M329.418 151.008L367.481 112.945L367.721 58.4236V53.5186L329.44 92.6496V150.986L329.418 151.008ZM332.426 94.2628L363.993 62.4784L364.821 111.332L332.405 143.749V94.2628H332.426Z" fill="#FFBE2E"/>
<path d="M241.615 0L191.867 49.7476L241.615 99.4952H341.132L390.879 49.7476L341.132 0H241.615Z" fill="#FFBE2E"/>
<path d="M241.615 99.4966L191.867 49.749V54.5014L241.615 104.249H341.132L390.879 54.5014V49.749L341.132 99.4966H241.615Z" fill="#DCA324"/>
<path d="M240.566 312.025L302.784 346.142L436.003 269.231L374.898 233.959L240.566 312.025Z" fill="#F0B219"/>
<path d="M302.781 471.708L436.001 394.798V269.229L302.781 346.14V471.708Z" fill="#D99E1B"/>
<path d="M308.371 462.989L430.429 392.509V277.95L308.371 348.43V462.989Z" fill="#181818"/>
<path d="M224.734 474.891L430.417 356.125V352.244L224.734 471.011V474.891Z" fill="#F0B219"/>
<path d="M224.734 436.305L430.417 317.539V313.658L224.734 432.425V436.305Z" fill="#F0B219"/>
<path d="M83.0625 379.777L159.755 421.851L323.931 327.065L248.633 283.596L83.0625 379.777Z" fill="#FFBE2E"/>
<path d="M159.75 574.366L323.926 479.579V327.066L159.75 421.853V574.366Z" fill="#E7AA22"/>
<path d="M166.641 563.618L317.061 476.767V337.813L166.641 424.665V563.618Z" fill="#181818"/>
<path d="M272.63 360.616L270.341 361.946V440.143L212.397 473.606V395.409L210.108 396.739V474.935L163.805 501.662V503.777L210.108 477.05V513.456L163.805 540.183V542.297L210.108 515.571V541.36L212.397 540.03V514.241L270.341 480.778V506.567L272.63 505.237V479.448L319.348 452.481V450.367L272.63 477.333V440.927L319.348 413.961V411.846L272.63 438.813V360.616ZM270.319 478.663L212.375 512.126V475.72L270.319 442.257V478.663Z" fill="#E7AA22"/>
<path d="M212.383 537.196L270.327 503.755V443.979L212.383 477.442V537.196Z" fill="#212121"/>
<path d="M240.566 520.933L243.139 519.451V457.975L240.566 459.457V520.933Z" fill="#E7AA22"/>
<path d="M83.0625 532.29L159.755 574.364V421.851L83.0625 379.777V532.29Z" fill="#F0B219"/>
<path d="M89.0977 529.653L153.735 566.975V436.72L89.0977 399.398V529.653Z" fill="#212121"/>
</g>
<defs>
<clipPath id="clip0_5870_20892">
<rect width="436" height="574.365" fill="white"/>
</clipPath>
</defs>
</svg>
