<svg width="142" height="462" viewBox="0 0 142 462" fill="none" xmlns="http://www.w3.org/2000/svg">
<path d="M84.5388 24.4785H84.5418C84.6577 24.4785 84.7676 24.4999 84.8774 24.5456C84.9842 24.5883 85.0787 24.6524 85.1611 24.7348C85.2435 24.8171 85.3075 24.9117 85.3533 25.0215C85.396 25.1283 85.4204 25.2412 85.4204 25.3571C85.4204 25.473 85.396 25.5859 85.3533 25.6927C85.3075 25.7995 85.2435 25.8971 85.1611 25.9795C85.0787 26.0618 84.9842 26.1228 84.8774 26.1686C84.7676 26.2144 84.6577 26.2357 84.5418 26.2357H84.5388C84.4228 26.2357 84.313 26.2144 84.2032 26.1686C84.0964 26.1228 84.0018 26.0618 83.9195 25.9795C83.8371 25.8971 83.773 25.7995 83.7273 25.6927C83.6846 25.5859 83.6602 25.473 83.6602 25.3571C83.6602 25.2412 83.6846 25.1283 83.7273 25.0215C83.773 24.9117 83.8371 24.8171 83.9195 24.7348C84.0018 24.6524 84.0964 24.5883 84.2032 24.5456C84.313 24.4999 84.4228 24.4785 84.5388 24.4785ZM88.0562 24.4785C88.1721 24.4785 88.285 24.4999 88.3918 24.5456C88.4986 24.5883 88.5931 24.6524 88.6755 24.7348C88.7579 24.8171 88.8219 24.9117 88.8677 25.0215C88.9104 25.1283 88.9348 25.2412 88.9348 25.3571C88.9348 25.473 88.9104 25.5859 88.8677 25.6927C88.8219 25.7995 88.7579 25.8971 88.6755 25.9795C88.5931 26.0618 88.4986 26.1228 88.3918 26.1686C88.285 26.2144 88.1721 26.2357 88.0562 26.2357C87.9372 26.2357 87.8274 26.2144 87.7176 26.1686C87.6108 26.1228 87.5162 26.0618 87.4339 25.9795C87.3515 25.8971 87.2874 25.7995 87.2417 25.6927C87.199 25.5859 87.1776 25.473 87.1776 25.3571C87.1776 25.2412 87.199 25.1283 87.2417 25.0215C87.2874 24.9117 87.3515 24.8171 87.4339 24.7348C87.5162 24.6524 87.6108 24.5883 87.7176 24.5456C87.8274 24.4999 87.9372 24.4785 88.0562 24.4785ZM91.5706 24.4785C91.6865 24.4785 91.7994 24.4999 91.9062 24.5456C92.013 24.5883 92.1075 24.6524 92.1899 24.7348C92.2723 24.8171 92.3363 24.9117 92.3821 25.0215C92.4248 25.1283 92.4492 25.2412 92.4492 25.3571C92.4492 25.473 92.4248 25.5859 92.3821 25.6927C92.3363 25.7995 92.2723 25.8971 92.1899 25.9795C92.1075 26.0618 92.013 26.1228 91.9062 26.1686C91.7994 26.2144 91.6865 26.2357 91.5706 26.2357C91.4516 26.2357 91.3418 26.2144 91.232 26.1686C91.1252 26.1228 91.0306 26.0618 90.9483 25.9795C90.8659 25.8971 90.8018 25.7995 90.7591 25.6927C90.7134 25.5859 90.692 25.473 90.692 25.3571C90.692 25.2412 90.7134 25.1283 90.7591 25.0215C90.8018 24.9117 90.8659 24.8171 90.9483 24.7348C91.0306 24.6524 91.1252 24.5883 91.232 24.5456C91.3418 24.4999 91.4516 24.4785 91.5706 24.4785ZM95.085 24.4785C95.2009 24.4785 95.3138 24.4999 95.4206 24.5456C95.5274 24.5883 95.6219 24.6524 95.7043 24.7348C95.7867 24.8171 95.8507 24.9117 95.8965 25.0215C95.9392 25.1283 95.9636 25.2412 95.9636 25.3571C95.9636 25.473 95.9392 25.5859 95.8965 25.6927C95.8507 25.7995 95.7867 25.8971 95.7043 25.9795C95.6219 26.0618 95.5274 26.1228 95.4206 26.1686C95.3138 26.2144 95.2009 26.2357 95.085 26.2357C94.966 26.2357 94.8562 26.2144 94.7464 26.1686C94.6396 26.1228 94.545 26.0618 94.4627 25.9795C94.3803 25.8971 94.3162 25.7995 94.2735 25.6927C94.2278 25.5859 94.2064 25.473 94.2064 25.3571C94.2064 25.2412 94.2278 25.1283 94.2735 25.0215C94.3162 24.9117 94.3803 24.8171 94.4627 24.7348C94.545 24.6524 94.6396 24.5883 94.7464 24.5456C94.8562 24.4999 94.966 24.4785 95.085 24.4785ZM98.5994 24.4785C98.7153 24.4785 98.8282 24.4999 98.935 24.5456C99.0418 24.5883 99.1363 24.6524 99.2187 24.7348C99.3011 24.8171 99.3651 24.9117 99.4109 25.0215C99.4536 25.1283 99.478 25.2412 99.478 25.3571C99.478 25.473 99.4536 25.5859 99.4109 25.6927C99.3651 25.7995 99.3011 25.8971 99.2187 25.9795C99.1363 26.0618 99.0418 26.1228 98.935 26.1686C98.8282 26.2144 98.7153 26.2357 98.5994 26.2357C98.4835 26.2357 98.3706 26.2144 98.2638 26.1686C98.154 26.1228 98.0594 26.0618 97.9771 25.9795C97.8947 25.8971 97.8306 25.7995 97.7879 25.6927C97.7422 25.5859 97.7208 25.473 97.7208 25.3571C97.7208 25.2412 97.7422 25.1283 97.7879 25.0215C97.8306 24.9117 97.8947 24.8171 97.9771 24.7348C98.0594 24.6524 98.154 24.5883 98.2638 24.5456C98.3706 24.4999 98.4835 24.4785 98.5994 24.4785ZM102.114 24.4785C102.23 24.4785 102.343 24.4999 102.449 24.5456C102.556 24.5883 102.651 24.6524 102.733 24.7348C102.815 24.8171 102.88 24.9117 102.925 25.0215C102.971 25.1283 102.992 25.2412 102.992 25.3571C102.992 25.473 102.971 25.5859 102.925 25.6927C102.88 25.7995 102.815 25.8971 102.733 25.9795C102.651 26.0618 102.556 26.1228 102.449 26.1686C102.343 26.2144 102.23 26.2357 102.114 26.2357C101.998 26.2357 101.885 26.2144 101.778 26.1686C101.668 26.1228 101.574 26.0618 101.491 25.9795C101.409 25.8971 101.345 25.7995 101.302 25.6927C101.257 25.5859 101.235 25.473 101.235 25.3571C101.235 25.2412 101.257 25.1283 101.302 25.0215C101.345 24.9117 101.409 24.8171 101.491 24.7348C101.574 24.6524 101.668 24.5883 101.778 24.5456C101.885 24.4999 101.998 24.4785 102.114 24.4785ZM105.628 24.4785C105.744 24.4785 105.857 24.4999 105.964 24.5456C106.071 24.5883 106.168 24.6524 106.251 24.7348C106.333 24.8171 106.394 24.9117 106.44 25.0215C106.485 25.1283 106.507 25.2412 106.507 25.3571C106.507 25.473 106.485 25.5859 106.44 25.6927C106.394 25.7995 106.333 25.8971 106.251 25.9795C106.168 26.0618 106.071 26.1228 105.964 26.1686C105.857 26.2144 105.744 26.2357 105.628 26.2357C105.512 26.2357 105.399 26.2144 105.293 26.1686C105.183 26.1228 105.088 26.0618 105.006 25.9795C104.924 25.8971 104.859 25.7995 104.817 25.6927C104.771 25.5859 104.75 25.473 104.75 25.3571C104.75 25.2412 104.771 25.1283 104.817 25.0215C104.859 24.9117 104.924 24.8171 105.006 24.7348C105.088 24.6524 105.183 24.5883 105.293 24.5456C105.399 24.4999 105.512 24.4785 105.628 24.4785ZM109.143 24.4785C109.259 24.4785 109.371 24.4999 109.478 24.5456C109.585 24.5883 109.683 24.6524 109.765 24.7348C109.847 24.8171 109.908 24.9117 109.954 25.0215C110 25.1283 110.021 25.2412 110.021 25.3571C110.021 25.473 110 25.5859 109.954 25.6927C109.908 25.7995 109.847 25.8971 109.765 25.9795C109.683 26.0618 109.585 26.1228 109.478 26.1686C109.371 26.2144 109.259 26.2357 109.143 26.2357C109.027 26.2357 108.914 26.2144 108.807 26.1686C108.697 26.1228 108.603 26.0618 108.52 25.9795C108.438 25.8971 108.374 25.7995 108.331 25.6927C108.285 25.5859 108.264 25.473 108.264 25.3571C108.264 25.2412 108.285 25.1283 108.331 25.0215C108.374 24.9117 108.438 24.8171 108.52 24.7348C108.603 24.6524 108.697 24.5883 108.807 24.5456C108.914 24.4999 109.027 24.4785 109.143 24.4785ZM112.657 24.4785C112.773 24.4785 112.886 24.4999 112.993 24.5456C113.102 24.5883 113.197 24.6524 113.279 24.7348C113.362 24.8171 113.423 24.9117 113.469 25.0215C113.514 25.1283 113.536 25.2412 113.536 25.3571C113.536 25.473 113.514 25.5859 113.469 25.6927C113.423 25.7995 113.362 25.8971 113.279 25.9795C113.197 26.0618 113.102 26.1228 112.993 26.1686C112.886 26.2144 112.773 26.2357 112.657 26.2357C112.541 26.2357 112.428 26.2144 112.321 26.1686C112.212 26.1228 112.117 26.0618 112.035 25.9795C111.952 25.8971 111.888 25.7995 111.846 25.6927C111.8 25.5859 111.778 25.473 111.778 25.3571C111.778 25.2412 111.8 25.1283 111.846 25.0215C111.888 24.9117 111.952 24.8171 112.035 24.7348C112.117 24.6524 112.212 24.5883 112.321 24.5456C112.428 24.4999 112.541 24.4785 112.657 24.4785ZM116.171 24.4785C116.287 24.4785 116.4 24.4999 116.507 24.5456C116.617 24.5883 116.711 24.6524 116.794 24.7348C116.876 24.8171 116.94 24.9117 116.983 25.0215C117.029 25.1283 117.05 25.2412 117.05 25.3571C117.05 25.473 117.029 25.5859 116.983 25.6927C116.94 25.7995 116.876 25.8971 116.794 25.9795C116.711 26.0618 116.617 26.1228 116.507 26.1686C116.4 26.2144 116.287 26.2357 116.171 26.2357C116.056 26.2357 115.943 26.2144 115.836 26.1686C115.729 26.1228 115.631 26.0618 115.549 25.9795C115.467 25.8971 115.406 25.7995 115.36 25.6927C115.314 25.5859 115.293 25.473 115.293 25.3571C115.293 25.2412 115.314 25.1283 115.36 25.0215C115.406 24.9117 115.467 24.8171 115.549 24.7348C115.631 24.6524 115.729 24.5883 115.836 24.5456C115.943 24.4999 116.056 24.4785 116.171 24.4785ZM119.686 24.4785C119.802 24.4785 119.915 24.4999 120.021 24.5456C120.131 24.5883 120.226 24.6524 120.308 24.7348C120.391 24.8171 120.455 24.9117 120.497 25.0215C120.543 25.1283 120.564 25.2412 120.564 25.3571C120.564 25.473 120.543 25.5859 120.497 25.6927C120.455 25.7995 120.391 25.8971 120.308 25.9795C120.226 26.0618 120.131 26.1228 120.021 26.1686C119.915 26.2144 119.802 26.2357 119.686 26.2357C119.57 26.2357 119.457 26.2144 119.35 26.1686C119.243 26.1228 119.146 26.0618 119.063 25.9795C118.981 25.8971 118.92 25.7995 118.874 25.6927C118.829 25.5859 118.807 25.473 118.807 25.3571C118.807 25.2412 118.829 25.1283 118.874 25.0215C118.92 24.9117 118.981 24.8171 119.063 24.7348C119.146 24.6524 119.243 24.5883 119.35 24.5456C119.457 24.4999 119.57 24.4785 119.686 24.4785ZM123.2 24.4785C123.316 24.4785 123.429 24.4999 123.536 24.5456C123.646 24.5883 123.74 24.6524 123.823 24.7348C123.905 24.8171 123.969 24.9117 124.012 25.0215C124.057 25.1283 124.079 25.2412 124.079 25.3571C124.079 25.473 124.057 25.5859 124.012 25.6927C123.969 25.7995 123.905 25.8971 123.823 25.9795C123.74 26.0618 123.646 26.1228 123.536 26.1686C123.429 26.2144 123.316 26.2357 123.2 26.2357C123.084 26.2357 122.971 26.2144 122.865 26.1686C122.758 26.1228 122.66 26.0618 122.578 25.9795C122.496 25.8971 122.435 25.7995 122.389 25.6927C122.343 25.5859 122.322 25.473 122.322 25.3571C122.322 25.2412 122.343 25.1283 122.389 25.0215C122.435 24.9117 122.496 24.8171 122.578 24.7348C122.66 24.6524 122.758 24.5883 122.865 24.5456C122.971 24.4999 123.084 24.4785 123.2 24.4785ZM126.715 24.4785C126.831 24.4785 126.943 24.4999 127.05 24.5456C127.16 24.5883 127.255 24.6524 127.337 24.7348C127.419 24.8171 127.483 24.9117 127.526 25.0215C127.572 25.1283 127.593 25.2412 127.593 25.3571C127.593 25.473 127.572 25.5859 127.526 25.6927C127.483 25.7995 127.419 25.8971 127.337 25.9795C127.255 26.0618 127.16 26.1228 127.05 26.1686C126.943 26.2144 126.831 26.2357 126.715 26.2357C126.599 26.2357 126.486 26.2144 126.379 26.1686C126.272 26.1228 126.178 26.0618 126.095 25.9795C126.013 25.8971 125.949 25.7995 125.903 25.6927C125.857 25.5859 125.836 25.473 125.836 25.3571C125.836 25.2412 125.857 25.1283 125.903 25.0215C125.949 24.9117 126.013 24.8171 126.095 24.7348C126.178 24.6524 126.272 24.5883 126.379 24.5456C126.486 24.4999 126.599 24.4785 126.715 24.4785ZM130.229 24.4785C130.345 24.4785 130.458 24.4999 130.568 24.5456C130.674 24.5883 130.769 24.6524 130.851 24.7348C130.934 24.8171 130.998 24.9117 131.041 25.0215C131.086 25.1283 131.108 25.2412 131.108 25.3571C131.108 25.473 131.086 25.5859 131.041 25.6927C130.998 25.7995 130.934 25.8971 130.851 25.9795C130.769 26.0618 130.674 26.1228 130.568 26.1686C130.458 26.2144 130.345 26.2357 130.229 26.2357C130.113 26.2357 130 26.2144 129.893 26.1686C129.787 26.1228 129.692 26.0618 129.61 25.9795C129.527 25.8971 129.463 25.7995 129.418 25.6927C129.375 25.5859 129.35 25.473 129.35 25.3571C129.35 25.2412 129.375 25.1283 129.418 25.0215C129.463 24.9117 129.527 24.8171 129.61 24.7348C129.692 24.6524 129.787 24.5883 129.893 24.5456C130 24.4999 130.113 24.4785 130.229 24.4785ZM133.743 24.4785C133.862 24.4785 133.972 24.4999 134.082 24.5456C134.189 24.5883 134.283 24.6524 134.366 24.7348C134.448 24.8171 134.512 24.9117 134.555 25.0215C134.601 25.1283 134.622 25.2412 134.622 25.3571C134.622 25.473 134.601 25.5859 134.555 25.6927C134.512 25.7995 134.448 25.8971 134.366 25.9795C134.283 26.0618 134.189 26.1228 134.082 26.1686C133.972 26.2144 133.862 26.2357 133.743 26.2357C133.628 26.2357 133.515 26.2144 133.408 26.1686C133.301 26.1228 133.207 26.0618 133.124 25.9795C133.042 25.8971 132.978 25.7995 132.932 25.6927C132.889 25.5859 132.865 25.473 132.865 25.3571C132.865 25.2412 132.889 25.1283 132.932 25.0215C132.978 24.9117 133.042 24.8171 133.124 24.7348C133.207 24.6524 133.301 24.5883 133.408 24.5456C133.515 24.4999 133.628 24.4785 133.743 24.4785Z" fill="#F5A64E"/>
<path d="M136.633 22.7217L140.147 25.3575L136.633 27.9933V22.7217Z" fill="#F5A64E" stroke="#F5A64E" stroke-width="1.7572" stroke-linecap="round" stroke-linejoin="round"/>
<mask id="mask0_6291_27445" style="mask-type:luminance" maskUnits="userSpaceOnUse" x="0" y="0" width="83" height="51">
<path d="M0 0H82.2132V50.7148H0V0Z" fill="white"/>
</mask>
<g mask="url(#mask0_6291_27445)">
<mask id="mask1_6291_27445" style="mask-type:luminance" maskUnits="userSpaceOnUse" x="0" y="0" width="83" height="51">
<path d="M41.0776 0L82.1553 25.3574L41.0776 50.7148L0 25.3574L41.0776 0Z" fill="white"/>
</mask>
<g mask="url(#mask1_6291_27445)">
<mask id="mask2_6291_27445" style="mask-type:luminance" maskUnits="userSpaceOnUse" x="-1" y="-1" width="84" height="53">
<path d="M82.8498 -0.5H-0.714844V51.0446H82.8498V-0.5Z" fill="white"/>
</mask>
<g mask="url(#mask2_6291_27445)">
<mask id="mask3_6291_27445" style="mask-type:luminance" maskUnits="userSpaceOnUse" x="0" y="0" width="83" height="51">
<path d="M0 0H82.2132V50.7148H0V0Z" fill="white"/>
</mask>
<g mask="url(#mask3_6291_27445)">
<mask id="mask4_6291_27445" style="mask-type:luminance" maskUnits="userSpaceOnUse" x="0" y="0" width="83" height="51">
<path d="M41.0776 0L82.1553 25.3574L41.0776 50.7148L0 25.3574L41.0776 0Z" fill="white"/>
</mask>
<g mask="url(#mask4_6291_27445)">
<path d="M0 0H82.2132V50.7148H0V0Z" fill="#F7E0AC"/>
</g>
</g>
</g>
</g>
</g>
<path d="M37.6447 31.8014C36.6837 31.8014 35.8173 31.5573 35.0455 31.0692C34.2706 30.575 33.6574 29.8581 33.2029 28.9215C32.7453 27.988 32.5195 26.8836 32.5195 25.6145C32.5195 24.3455 32.7453 23.2442 33.2029 22.3076C33.6574 21.3741 34.2706 20.6602 35.0455 20.1721C35.8173 19.6779 36.6837 19.4277 37.6447 19.4277C38.6026 19.4277 39.469 19.6779 40.2439 20.1721C41.0157 20.6602 41.6259 21.3741 42.0743 22.3076C42.5197 23.2442 42.7455 24.3455 42.7455 25.6145C42.7455 26.8836 42.5197 27.988 42.0743 28.9215C41.6259 29.8581 41.0157 30.575 40.2439 31.0692C39.469 31.5573 38.6026 31.8014 37.6447 31.8014ZM37.6447 29.1412C38.0657 29.1412 38.4562 29.013 38.8162 28.7507C39.1823 28.4822 39.469 28.0887 39.6826 27.567C39.8931 27.0392 39.9998 26.3894 39.9998 25.6145C39.9998 24.8519 39.8931 24.2051 39.6826 23.6743C39.469 23.1465 39.1823 22.753 38.8162 22.4906C38.4562 22.2313 38.0657 22.1001 37.6447 22.1001C37.2207 22.1001 36.8271 22.2313 36.461 22.4906C36.101 22.753 35.8143 23.1465 35.5946 23.6743C35.3811 24.2051 35.2774 24.8519 35.2774 25.6145C35.2774 26.3894 35.3811 27.0392 35.5946 27.567C35.8143 28.0887 36.101 28.4822 36.461 28.7507C36.8271 29.013 37.2207 29.1412 37.6447 29.1412Z" fill="#212121"/>
<path d="M46.3371 31.6296V23.4903H43.9453V20.8545H45.8001C46.1571 20.8545 46.3371 20.6715 46.3371 20.3054V19.5977H49.0827V31.6296H46.3371Z" fill="#212121"/>
<path d="M84.5388 106.439H84.5418C84.6577 106.439 84.7676 106.461 84.8774 106.507C84.9842 106.552 85.0787 106.613 85.1611 106.696C85.2435 106.778 85.3075 106.873 85.3533 106.982C85.396 107.089 85.4204 107.202 85.4204 107.318C85.4204 107.434 85.396 107.547 85.3533 107.654C85.3075 107.76 85.2435 107.858 85.1611 107.94C85.0787 108.023 84.9842 108.084 84.8774 108.13C84.7676 108.175 84.6577 108.197 84.5418 108.197H84.5388C84.4228 108.197 84.313 108.175 84.2032 108.13C84.0964 108.084 84.0018 108.023 83.9195 107.94C83.8371 107.858 83.773 107.76 83.7273 107.654C83.6846 107.547 83.6602 107.434 83.6602 107.318C83.6602 107.202 83.6846 107.089 83.7273 106.982C83.773 106.873 83.8371 106.778 83.9195 106.696C84.0018 106.613 84.0964 106.552 84.2032 106.507C84.313 106.461 84.4228 106.439 84.5388 106.439ZM88.0562 106.439C88.1721 106.439 88.285 106.461 88.3918 106.507C88.4986 106.552 88.5931 106.613 88.6755 106.696C88.7579 106.778 88.8219 106.873 88.8677 106.982C88.9104 107.089 88.9348 107.202 88.9348 107.318C88.9348 107.434 88.9104 107.547 88.8677 107.654C88.8219 107.76 88.7579 107.858 88.6755 107.94C88.5931 108.023 88.4986 108.084 88.3918 108.13C88.285 108.175 88.1721 108.197 88.0562 108.197C87.9372 108.197 87.8274 108.175 87.7176 108.13C87.6108 108.084 87.5162 108.023 87.4339 107.94C87.3515 107.858 87.2874 107.76 87.2417 107.654C87.199 107.547 87.1776 107.434 87.1776 107.318C87.1776 107.202 87.199 107.089 87.2417 106.982C87.2874 106.873 87.3515 106.778 87.4339 106.696C87.5162 106.613 87.6108 106.552 87.7176 106.507C87.8274 106.461 87.9372 106.439 88.0562 106.439ZM91.5706 106.439C91.6865 106.439 91.7994 106.461 91.9062 106.507C92.013 106.552 92.1075 106.613 92.1899 106.696C92.2723 106.778 92.3363 106.873 92.3821 106.982C92.4248 107.089 92.4492 107.202 92.4492 107.318C92.4492 107.434 92.4248 107.547 92.3821 107.654C92.3363 107.76 92.2723 107.858 92.1899 107.94C92.1075 108.023 92.013 108.084 91.9062 108.13C91.7994 108.175 91.6865 108.197 91.5706 108.197C91.4516 108.197 91.3418 108.175 91.232 108.13C91.1252 108.084 91.0306 108.023 90.9483 107.94C90.8659 107.858 90.8018 107.76 90.7591 107.654C90.7134 107.547 90.692 107.434 90.692 107.318C90.692 107.202 90.7134 107.089 90.7591 106.982C90.8018 106.873 90.8659 106.778 90.9483 106.696C91.0306 106.613 91.1252 106.552 91.232 106.507C91.3418 106.461 91.4516 106.439 91.5706 106.439ZM95.085 106.439C95.2009 106.439 95.3138 106.461 95.4206 106.507C95.5274 106.552 95.6219 106.613 95.7043 106.696C95.7867 106.778 95.8507 106.873 95.8965 106.982C95.9392 107.089 95.9636 107.202 95.9636 107.318C95.9636 107.434 95.9392 107.547 95.8965 107.654C95.8507 107.76 95.7867 107.858 95.7043 107.94C95.6219 108.023 95.5274 108.084 95.4206 108.13C95.3138 108.175 95.2009 108.197 95.085 108.197C94.966 108.197 94.8562 108.175 94.7464 108.13C94.6396 108.084 94.545 108.023 94.4627 107.94C94.3803 107.858 94.3162 107.76 94.2735 107.654C94.2278 107.547 94.2064 107.434 94.2064 107.318C94.2064 107.202 94.2278 107.089 94.2735 106.982C94.3162 106.873 94.3803 106.778 94.4627 106.696C94.545 106.613 94.6396 106.552 94.7464 106.507C94.8562 106.461 94.966 106.439 95.085 106.439ZM98.5994 106.439C98.7153 106.439 98.8282 106.461 98.935 106.507C99.0418 106.552 99.1363 106.613 99.2187 106.696C99.3011 106.778 99.3651 106.873 99.4109 106.982C99.4536 107.089 99.478 107.202 99.478 107.318C99.478 107.434 99.4536 107.547 99.4109 107.654C99.3651 107.76 99.3011 107.858 99.2187 107.94C99.1363 108.023 99.0418 108.084 98.935 108.13C98.8282 108.175 98.7153 108.197 98.5994 108.197C98.4835 108.197 98.3706 108.175 98.2638 108.13C98.154 108.084 98.0594 108.023 97.9771 107.94C97.8947 107.858 97.8306 107.76 97.7879 107.654C97.7422 107.547 97.7208 107.434 97.7208 107.318C97.7208 107.202 97.7422 107.089 97.7879 106.982C97.8306 106.873 97.8947 106.778 97.9771 106.696C98.0594 106.613 98.154 106.552 98.2638 106.507C98.3706 106.461 98.4835 106.439 98.5994 106.439ZM102.114 106.439C102.23 106.439 102.343 106.461 102.449 106.507C102.556 106.552 102.651 106.613 102.733 106.696C102.815 106.778 102.88 106.873 102.925 106.982C102.971 107.089 102.992 107.202 102.992 107.318C102.992 107.434 102.971 107.547 102.925 107.654C102.88 107.76 102.815 107.858 102.733 107.94C102.651 108.023 102.556 108.084 102.449 108.13C102.343 108.175 102.23 108.197 102.114 108.197C101.998 108.197 101.885 108.175 101.778 108.13C101.668 108.084 101.574 108.023 101.491 107.94C101.409 107.858 101.345 107.76 101.302 107.654C101.257 107.547 101.235 107.434 101.235 107.318C101.235 107.202 101.257 107.089 101.302 106.982C101.345 106.873 101.409 106.778 101.491 106.696C101.574 106.613 101.668 106.552 101.778 106.507C101.885 106.461 101.998 106.439 102.114 106.439ZM105.628 106.439C105.744 106.439 105.857 106.461 105.964 106.507C106.071 106.552 106.168 106.613 106.251 106.696C106.333 106.778 106.394 106.873 106.44 106.982C106.485 107.089 106.507 107.202 106.507 107.318C106.507 107.434 106.485 107.547 106.44 107.654C106.394 107.76 106.333 107.858 106.251 107.94C106.168 108.023 106.071 108.084 105.964 108.13C105.857 108.175 105.744 108.197 105.628 108.197C105.512 108.197 105.399 108.175 105.293 108.13C105.183 108.084 105.088 108.023 105.006 107.94C104.924 107.858 104.859 107.76 104.817 107.654C104.771 107.547 104.75 107.434 104.75 107.318C104.75 107.202 104.771 107.089 104.817 106.982C104.859 106.873 104.924 106.778 105.006 106.696C105.088 106.613 105.183 106.552 105.293 106.507C105.399 106.461 105.512 106.439 105.628 106.439ZM109.143 106.439C109.259 106.439 109.371 106.461 109.478 106.507C109.585 106.552 109.683 106.613 109.765 106.696C109.847 106.778 109.908 106.873 109.954 106.982C110 107.089 110.021 107.202 110.021 107.318C110.021 107.434 110 107.547 109.954 107.654C109.908 107.76 109.847 107.858 109.765 107.94C109.683 108.023 109.585 108.084 109.478 108.13C109.371 108.175 109.259 108.197 109.143 108.197C109.027 108.197 108.914 108.175 108.807 108.13C108.697 108.084 108.603 108.023 108.52 107.94C108.438 107.858 108.374 107.76 108.331 107.654C108.285 107.547 108.264 107.434 108.264 107.318C108.264 107.202 108.285 107.089 108.331 106.982C108.374 106.873 108.438 106.778 108.52 106.696C108.603 106.613 108.697 106.552 108.807 106.507C108.914 106.461 109.027 106.439 109.143 106.439ZM112.657 106.439C112.773 106.439 112.886 106.461 112.993 106.507C113.102 106.552 113.197 106.613 113.279 106.696C113.362 106.778 113.423 106.873 113.469 106.982C113.514 107.089 113.536 107.202 113.536 107.318C113.536 107.434 113.514 107.547 113.469 107.654C113.423 107.76 113.362 107.858 113.279 107.94C113.197 108.023 113.102 108.084 112.993 108.13C112.886 108.175 112.773 108.197 112.657 108.197C112.541 108.197 112.428 108.175 112.321 108.13C112.212 108.084 112.117 108.023 112.035 107.94C111.952 107.858 111.888 107.76 111.846 107.654C111.8 107.547 111.778 107.434 111.778 107.318C111.778 107.202 111.8 107.089 111.846 106.982C111.888 106.873 111.952 106.778 112.035 106.696C112.117 106.613 112.212 106.552 112.321 106.507C112.428 106.461 112.541 106.439 112.657 106.439ZM116.171 106.439C116.287 106.439 116.4 106.461 116.507 106.507C116.617 106.552 116.711 106.613 116.794 106.696C116.876 106.778 116.94 106.873 116.983 106.982C117.029 107.089 117.05 107.202 117.05 107.318C117.05 107.434 117.029 107.547 116.983 107.654C116.94 107.76 116.876 107.858 116.794 107.94C116.711 108.023 116.617 108.084 116.507 108.13C116.4 108.175 116.287 108.197 116.171 108.197C116.056 108.197 115.943 108.175 115.836 108.13C115.729 108.084 115.631 108.023 115.549 107.94C115.467 107.858 115.406 107.76 115.36 107.654C115.314 107.547 115.293 107.434 115.293 107.318C115.293 107.202 115.314 107.089 115.36 106.982C115.406 106.873 115.467 106.778 115.549 106.696C115.631 106.613 115.729 106.552 115.836 106.507C115.943 106.461 116.056 106.439 116.171 106.439ZM119.686 106.439C119.802 106.439 119.915 106.461 120.021 106.507C120.131 106.552 120.226 106.613 120.308 106.696C120.391 106.778 120.455 106.873 120.497 106.982C120.543 107.089 120.564 107.202 120.564 107.318C120.564 107.434 120.543 107.547 120.497 107.654C120.455 107.76 120.391 107.858 120.308 107.94C120.226 108.023 120.131 108.084 120.021 108.13C119.915 108.175 119.802 108.197 119.686 108.197C119.57 108.197 119.457 108.175 119.35 108.13C119.243 108.084 119.146 108.023 119.063 107.94C118.981 107.858 118.92 107.76 118.874 107.654C118.829 107.547 118.807 107.434 118.807 107.318C118.807 107.202 118.829 107.089 118.874 106.982C118.92 106.873 118.981 106.778 119.063 106.696C119.146 106.613 119.243 106.552 119.35 106.507C119.457 106.461 119.57 106.439 119.686 106.439ZM123.2 106.439C123.316 106.439 123.429 106.461 123.536 106.507C123.646 106.552 123.74 106.613 123.823 106.696C123.905 106.778 123.969 106.873 124.012 106.982C124.057 107.089 124.079 107.202 124.079 107.318C124.079 107.434 124.057 107.547 124.012 107.654C123.969 107.76 123.905 107.858 123.823 107.94C123.74 108.023 123.646 108.084 123.536 108.13C123.429 108.175 123.316 108.197 123.2 108.197C123.084 108.197 122.971 108.175 122.865 108.13C122.758 108.084 122.66 108.023 122.578 107.94C122.496 107.858 122.435 107.76 122.389 107.654C122.343 107.547 122.322 107.434 122.322 107.318C122.322 107.202 122.343 107.089 122.389 106.982C122.435 106.873 122.496 106.778 122.578 106.696C122.66 106.613 122.758 106.552 122.865 106.507C122.971 106.461 123.084 106.439 123.2 106.439ZM126.715 106.439C126.831 106.439 126.943 106.461 127.05 106.507C127.16 106.552 127.255 106.613 127.337 106.696C127.419 106.778 127.483 106.873 127.526 106.982C127.572 107.089 127.593 107.202 127.593 107.318C127.593 107.434 127.572 107.547 127.526 107.654C127.483 107.76 127.419 107.858 127.337 107.94C127.255 108.023 127.16 108.084 127.05 108.13C126.943 108.175 126.831 108.197 126.715 108.197C126.599 108.197 126.486 108.175 126.379 108.13C126.272 108.084 126.178 108.023 126.095 107.94C126.013 107.858 125.949 107.76 125.903 107.654C125.857 107.547 125.836 107.434 125.836 107.318C125.836 107.202 125.857 107.089 125.903 106.982C125.949 106.873 126.013 106.778 126.095 106.696C126.178 106.613 126.272 106.552 126.379 106.507C126.486 106.461 126.599 106.439 126.715 106.439ZM130.229 106.439C130.345 106.439 130.458 106.461 130.568 106.507C130.674 106.552 130.769 106.613 130.851 106.696C130.934 106.778 130.998 106.873 131.041 106.982C131.086 107.089 131.108 107.202 131.108 107.318C131.108 107.434 131.086 107.547 131.041 107.654C130.998 107.76 130.934 107.858 130.851 107.94C130.769 108.023 130.674 108.084 130.568 108.13C130.458 108.175 130.345 108.197 130.229 108.197C130.113 108.197 130 108.175 129.893 108.13C129.787 108.084 129.692 108.023 129.61 107.94C129.527 107.858 129.463 107.76 129.418 107.654C129.375 107.547 129.35 107.434 129.35 107.318C129.35 107.202 129.375 107.089 129.418 106.982C129.463 106.873 129.527 106.778 129.61 106.696C129.692 106.613 129.787 106.552 129.893 106.507C130 106.461 130.113 106.439 130.229 106.439ZM133.743 106.439C133.862 106.439 133.972 106.461 134.082 106.507C134.189 106.552 134.283 106.613 134.366 106.696C134.448 106.778 134.512 106.873 134.555 106.982C134.601 107.089 134.622 107.202 134.622 107.318C134.622 107.434 134.601 107.547 134.555 107.654C134.512 107.76 134.448 107.858 134.366 107.94C134.283 108.023 134.189 108.084 134.082 108.13C133.972 108.175 133.862 108.197 133.743 108.197C133.628 108.197 133.515 108.175 133.408 108.13C133.301 108.084 133.207 108.023 133.124 107.94C133.042 107.858 132.978 107.76 132.932 107.654C132.889 107.547 132.865 107.434 132.865 107.318C132.865 107.202 132.889 107.089 132.932 106.982C132.978 106.873 133.042 106.778 133.124 106.696C133.207 106.613 133.301 106.552 133.408 106.507C133.515 106.461 133.628 106.439 133.743 106.439Z" fill="#F5A64E"/>
<path d="M136.633 104.682L140.147 107.317L136.633 109.953V104.682Z" fill="#F5A64E" stroke="#F5A64E" stroke-width="1.7572" stroke-linecap="round" stroke-linejoin="round"/>
<mask id="mask5_6291_27445" style="mask-type:luminance" maskUnits="userSpaceOnUse" x="0" y="81" width="83" height="52">
<path d="M0 81.9609H82.2132V132.676H0V81.9609Z" fill="white"/>
</mask>
<g mask="url(#mask5_6291_27445)">
<mask id="mask6_6291_27445" style="mask-type:luminance" maskUnits="userSpaceOnUse" x="0" y="81" width="83" height="52">
<path d="M41.0776 81.9609L82.1553 107.318L41.0776 132.676L0 107.318L41.0776 81.9609Z" fill="white"/>
</mask>
<g mask="url(#mask6_6291_27445)">
<mask id="mask7_6291_27445" style="mask-type:luminance" maskUnits="userSpaceOnUse" x="-1" y="81" width="84" height="53">
<path d="M82.8498 81.5029H-0.714844V133.047H82.8498V81.5029Z" fill="white"/>
</mask>
<g mask="url(#mask7_6291_27445)">
<mask id="mask8_6291_27445" style="mask-type:luminance" maskUnits="userSpaceOnUse" x="0" y="81" width="83" height="52">
<path d="M0 81.9609H82.2132V132.676H0V81.9609Z" fill="white"/>
</mask>
<g mask="url(#mask8_6291_27445)">
<mask id="mask9_6291_27445" style="mask-type:luminance" maskUnits="userSpaceOnUse" x="0" y="81" width="83" height="52">
<path d="M41.0776 81.9609L82.1553 107.318L41.0776 132.676L0 107.318L41.0776 81.9609Z" fill="white"/>
</mask>
<g mask="url(#mask9_6291_27445)">
<path d="M0 81.9609H82.2132V132.676H0V81.9609Z" fill="#F7D487"/>
</g>
</g>
</g>
</g>
</g>
<path d="M36.2541 113.76C35.2931 113.76 34.4267 113.516 33.6549 113.028C32.88 112.534 32.2668 111.817 31.8123 110.88C31.3547 109.947 31.1289 108.843 31.1289 107.574C31.1289 106.304 31.3547 105.203 31.8123 104.267C32.2668 103.333 32.88 102.619 33.6549 102.131C34.4267 101.637 35.2931 101.387 36.2541 101.387C37.212 101.387 38.0784 101.637 38.8533 102.131C39.6251 102.619 40.2352 103.333 40.6837 104.267C41.1291 105.203 41.3548 106.304 41.3548 107.574C41.3548 108.843 41.1291 109.947 40.6837 110.88C40.2352 111.817 39.6251 112.534 38.8533 113.028C38.0784 113.516 37.212 113.76 36.2541 113.76ZM36.2541 111.1C36.6751 111.1 37.0656 110.972 37.4255 110.71C37.7916 110.441 38.0784 110.048 38.2919 109.526C38.5024 108.998 38.6092 108.348 38.6092 107.574C38.6092 106.811 38.5024 106.164 38.2919 105.633C38.0784 105.106 37.7916 104.712 37.4255 104.45C37.0656 104.19 36.6751 104.059 36.2541 104.059C35.83 104.059 35.4365 104.19 35.0704 104.45C34.7104 104.712 34.4237 105.106 34.204 105.633C33.9905 106.164 33.8867 106.811 33.8867 107.574C33.8867 108.348 33.9905 108.998 34.204 109.526C34.4237 110.048 34.7104 110.441 35.0704 110.71C35.4365 110.972 35.83 111.1 36.2541 111.1Z" fill="#212121"/>
<path d="M42.5537 113.59V111.161L47.4714 106.732C47.691 106.536 47.8527 106.347 47.9595 106.158C48.0724 105.972 48.1303 105.725 48.1303 105.414C48.1303 105.032 47.99 104.712 47.7154 104.45C47.447 104.19 47.1083 104.059 46.7026 104.059C46.2541 104.059 45.8789 104.218 45.5799 104.535C45.2871 104.846 45.1406 105.24 45.1406 105.719H42.3828C42.3828 104.874 42.5598 104.12 42.9197 103.461C43.2858 102.802 43.7922 102.296 44.4451 101.936C45.104 101.57 45.8545 101.387 46.7026 101.387C47.5476 101.387 48.289 101.564 48.9235 101.911C49.5581 102.253 50.0492 102.726 50.4 103.327C50.7478 103.931 50.9248 104.608 50.9248 105.365C50.9248 106.042 50.76 106.622 50.4367 107.11C50.1102 107.592 49.613 108.135 48.9479 108.745L46.5928 110.905V110.99H50.998V113.59H42.5537Z" fill="#212121"/>
<path d="M84.5388 188.398H84.5418C84.6577 188.398 84.7676 188.42 84.8774 188.466C84.9842 188.511 85.0787 188.572 85.1611 188.655C85.2435 188.737 85.3075 188.835 85.3533 188.941C85.396 189.048 85.4204 189.161 85.4204 189.277C85.4204 189.393 85.396 189.506 85.3533 189.613C85.3075 189.719 85.2435 189.817 85.1611 189.899C85.0787 189.982 84.9842 190.043 84.8774 190.089C84.7676 190.134 84.6577 190.156 84.5418 190.156H84.5388C84.4228 190.156 84.313 190.134 84.2032 190.089C84.0964 190.043 84.0018 189.982 83.9195 189.899C83.8371 189.817 83.773 189.719 83.7273 189.613C83.6846 189.506 83.6602 189.393 83.6602 189.277C83.6602 189.161 83.6846 189.048 83.7273 188.941C83.773 188.835 83.8371 188.737 83.9195 188.655C84.0018 188.572 84.0964 188.511 84.2032 188.466C84.313 188.42 84.4228 188.398 84.5388 188.398ZM88.0562 188.398C88.1721 188.398 88.285 188.42 88.3918 188.466C88.4986 188.511 88.5931 188.572 88.6755 188.655C88.7579 188.737 88.8219 188.835 88.8677 188.941C88.9104 189.048 88.9348 189.161 88.9348 189.277C88.9348 189.393 88.9104 189.506 88.8677 189.613C88.8219 189.719 88.7579 189.817 88.6755 189.899C88.5931 189.982 88.4986 190.043 88.3918 190.089C88.285 190.134 88.1721 190.156 88.0562 190.156C87.9372 190.156 87.8274 190.134 87.7176 190.089C87.6108 190.043 87.5162 189.982 87.4339 189.899C87.3515 189.817 87.2874 189.719 87.2417 189.613C87.199 189.506 87.1776 189.393 87.1776 189.277C87.1776 189.161 87.199 189.048 87.2417 188.941C87.2874 188.835 87.3515 188.737 87.4339 188.655C87.5162 188.572 87.6108 188.511 87.7176 188.466C87.8274 188.42 87.9372 188.398 88.0562 188.398ZM91.5706 188.398C91.6865 188.398 91.7994 188.42 91.9062 188.466C92.013 188.511 92.1075 188.572 92.1899 188.655C92.2723 188.737 92.3363 188.835 92.3821 188.941C92.4248 189.048 92.4492 189.161 92.4492 189.277C92.4492 189.393 92.4248 189.506 92.3821 189.613C92.3363 189.719 92.2723 189.817 92.1899 189.899C92.1075 189.982 92.013 190.043 91.9062 190.089C91.7994 190.134 91.6865 190.156 91.5706 190.156C91.4516 190.156 91.3418 190.134 91.232 190.089C91.1252 190.043 91.0306 189.982 90.9483 189.899C90.8659 189.817 90.8018 189.719 90.7591 189.613C90.7134 189.506 90.692 189.393 90.692 189.277C90.692 189.161 90.7134 189.048 90.7591 188.941C90.8018 188.835 90.8659 188.737 90.9483 188.655C91.0306 188.572 91.1252 188.511 91.232 188.466C91.3418 188.42 91.4516 188.398 91.5706 188.398ZM95.085 188.398C95.2009 188.398 95.3138 188.42 95.4206 188.466C95.5274 188.511 95.6219 188.572 95.7043 188.655C95.7867 188.737 95.8507 188.835 95.8965 188.941C95.9392 189.048 95.9636 189.161 95.9636 189.277C95.9636 189.393 95.9392 189.506 95.8965 189.613C95.8507 189.719 95.7867 189.817 95.7043 189.899C95.6219 189.982 95.5274 190.043 95.4206 190.089C95.3138 190.134 95.2009 190.156 95.085 190.156C94.966 190.156 94.8562 190.134 94.7464 190.089C94.6396 190.043 94.545 189.982 94.4627 189.899C94.3803 189.817 94.3162 189.719 94.2735 189.613C94.2278 189.506 94.2064 189.393 94.2064 189.277C94.2064 189.161 94.2278 189.048 94.2735 188.941C94.3162 188.835 94.3803 188.737 94.4627 188.655C94.545 188.572 94.6396 188.511 94.7464 188.466C94.8562 188.42 94.966 188.398 95.085 188.398ZM98.5994 188.398C98.7153 188.398 98.8282 188.42 98.935 188.466C99.0418 188.511 99.1363 188.572 99.2187 188.655C99.3011 188.737 99.3651 188.835 99.4109 188.941C99.4536 189.048 99.478 189.161 99.478 189.277C99.478 189.393 99.4536 189.506 99.4109 189.613C99.3651 189.719 99.3011 189.817 99.2187 189.899C99.1363 189.982 99.0418 190.043 98.935 190.089C98.8282 190.134 98.7153 190.156 98.5994 190.156C98.4835 190.156 98.3706 190.134 98.2638 190.089C98.154 190.043 98.0594 189.982 97.9771 189.899C97.8947 189.817 97.8306 189.719 97.7879 189.613C97.7422 189.506 97.7208 189.393 97.7208 189.277C97.7208 189.161 97.7422 189.048 97.7879 188.941C97.8306 188.835 97.8947 188.737 97.9771 188.655C98.0594 188.572 98.154 188.511 98.2638 188.466C98.3706 188.42 98.4835 188.398 98.5994 188.398ZM102.114 188.398C102.23 188.398 102.343 188.42 102.449 188.466C102.556 188.511 102.651 188.572 102.733 188.655C102.815 188.737 102.88 188.835 102.925 188.941C102.971 189.048 102.992 189.161 102.992 189.277C102.992 189.393 102.971 189.506 102.925 189.613C102.88 189.719 102.815 189.817 102.733 189.899C102.651 189.982 102.556 190.043 102.449 190.089C102.343 190.134 102.23 190.156 102.114 190.156C101.998 190.156 101.885 190.134 101.778 190.089C101.668 190.043 101.574 189.982 101.491 189.899C101.409 189.817 101.345 189.719 101.302 189.613C101.257 189.506 101.235 189.393 101.235 189.277C101.235 189.161 101.257 189.048 101.302 188.941C101.345 188.835 101.409 188.737 101.491 188.655C101.574 188.572 101.668 188.511 101.778 188.466C101.885 188.42 101.998 188.398 102.114 188.398ZM105.628 188.398C105.744 188.398 105.857 188.42 105.964 188.466C106.071 188.511 106.168 188.572 106.251 188.655C106.333 188.737 106.394 188.835 106.44 188.941C106.485 189.048 106.507 189.161 106.507 189.277C106.507 189.393 106.485 189.506 106.44 189.613C106.394 189.719 106.333 189.817 106.251 189.899C106.168 189.982 106.071 190.043 105.964 190.089C105.857 190.134 105.744 190.156 105.628 190.156C105.512 190.156 105.399 190.134 105.293 190.089C105.183 190.043 105.088 189.982 105.006 189.899C104.924 189.817 104.859 189.719 104.817 189.613C104.771 189.506 104.75 189.393 104.75 189.277C104.75 189.161 104.771 189.048 104.817 188.941C104.859 188.835 104.924 188.737 105.006 188.655C105.088 188.572 105.183 188.511 105.293 188.466C105.399 188.42 105.512 188.398 105.628 188.398ZM109.143 188.398C109.259 188.398 109.371 188.42 109.478 188.466C109.585 188.511 109.683 188.572 109.765 188.655C109.847 188.737 109.908 188.835 109.954 188.941C110 189.048 110.021 189.161 110.021 189.277C110.021 189.393 110 189.506 109.954 189.613C109.908 189.719 109.847 189.817 109.765 189.899C109.683 189.982 109.585 190.043 109.478 190.089C109.371 190.134 109.259 190.156 109.143 190.156C109.027 190.156 108.914 190.134 108.807 190.089C108.697 190.043 108.603 189.982 108.52 189.899C108.438 189.817 108.374 189.719 108.331 189.613C108.285 189.506 108.264 189.393 108.264 189.277C108.264 189.161 108.285 189.048 108.331 188.941C108.374 188.835 108.438 188.737 108.52 188.655C108.603 188.572 108.697 188.511 108.807 188.466C108.914 188.42 109.027 188.398 109.143 188.398ZM112.657 188.398C112.773 188.398 112.886 188.42 112.993 188.466C113.102 188.511 113.197 188.572 113.279 188.655C113.362 188.737 113.423 188.835 113.469 188.941C113.514 189.048 113.536 189.161 113.536 189.277C113.536 189.393 113.514 189.506 113.469 189.613C113.423 189.719 113.362 189.817 113.279 189.899C113.197 189.982 113.102 190.043 112.993 190.089C112.886 190.134 112.773 190.156 112.657 190.156C112.541 190.156 112.428 190.134 112.321 190.089C112.212 190.043 112.117 189.982 112.035 189.899C111.952 189.817 111.888 189.719 111.846 189.613C111.8 189.506 111.778 189.393 111.778 189.277C111.778 189.161 111.8 189.048 111.846 188.941C111.888 188.835 111.952 188.737 112.035 188.655C112.117 188.572 112.212 188.511 112.321 188.466C112.428 188.42 112.541 188.398 112.657 188.398ZM116.171 188.398C116.287 188.398 116.4 188.42 116.507 188.466C116.617 188.511 116.711 188.572 116.794 188.655C116.876 188.737 116.94 188.835 116.983 188.941C117.029 189.048 117.05 189.161 117.05 189.277C117.05 189.393 117.029 189.506 116.983 189.613C116.94 189.719 116.876 189.817 116.794 189.899C116.711 189.982 116.617 190.043 116.507 190.089C116.4 190.134 116.287 190.156 116.171 190.156C116.056 190.156 115.943 190.134 115.836 190.089C115.729 190.043 115.631 189.982 115.549 189.899C115.467 189.817 115.406 189.719 115.36 189.613C115.314 189.506 115.293 189.393 115.293 189.277C115.293 189.161 115.314 189.048 115.36 188.941C115.406 188.835 115.467 188.737 115.549 188.655C115.631 188.572 115.729 188.511 115.836 188.466C115.943 188.42 116.056 188.398 116.171 188.398ZM119.686 188.398C119.802 188.398 119.915 188.42 120.021 188.466C120.131 188.511 120.226 188.572 120.308 188.655C120.391 188.737 120.455 188.835 120.497 188.941C120.543 189.048 120.564 189.161 120.564 189.277C120.564 189.393 120.543 189.506 120.497 189.613C120.455 189.719 120.391 189.817 120.308 189.899C120.226 189.982 120.131 190.043 120.021 190.089C119.915 190.134 119.802 190.156 119.686 190.156C119.57 190.156 119.457 190.134 119.35 190.089C119.243 190.043 119.146 189.982 119.063 189.899C118.981 189.817 118.92 189.719 118.874 189.613C118.829 189.506 118.807 189.393 118.807 189.277C118.807 189.161 118.829 189.048 118.874 188.941C118.92 188.835 118.981 188.737 119.063 188.655C119.146 188.572 119.243 188.511 119.35 188.466C119.457 188.42 119.57 188.398 119.686 188.398ZM123.2 188.398C123.316 188.398 123.429 188.42 123.536 188.466C123.646 188.511 123.74 188.572 123.823 188.655C123.905 188.737 123.969 188.835 124.012 188.941C124.057 189.048 124.079 189.161 124.079 189.277C124.079 189.393 124.057 189.506 124.012 189.613C123.969 189.719 123.905 189.817 123.823 189.899C123.74 189.982 123.646 190.043 123.536 190.089C123.429 190.134 123.316 190.156 123.2 190.156C123.084 190.156 122.971 190.134 122.865 190.089C122.758 190.043 122.66 189.982 122.578 189.899C122.496 189.817 122.435 189.719 122.389 189.613C122.343 189.506 122.322 189.393 122.322 189.277C122.322 189.161 122.343 189.048 122.389 188.941C122.435 188.835 122.496 188.737 122.578 188.655C122.66 188.572 122.758 188.511 122.865 188.466C122.971 188.42 123.084 188.398 123.2 188.398ZM126.715 188.398C126.831 188.398 126.943 188.42 127.05 188.466C127.16 188.511 127.255 188.572 127.337 188.655C127.419 188.737 127.483 188.835 127.526 188.941C127.572 189.048 127.593 189.161 127.593 189.277C127.593 189.393 127.572 189.506 127.526 189.613C127.483 189.719 127.419 189.817 127.337 189.899C127.255 189.982 127.16 190.043 127.05 190.089C126.943 190.134 126.831 190.156 126.715 190.156C126.599 190.156 126.486 190.134 126.379 190.089C126.272 190.043 126.178 189.982 126.095 189.899C126.013 189.817 125.949 189.719 125.903 189.613C125.857 189.506 125.836 189.393 125.836 189.277C125.836 189.161 125.857 189.048 125.903 188.941C125.949 188.835 126.013 188.737 126.095 188.655C126.178 188.572 126.272 188.511 126.379 188.466C126.486 188.42 126.599 188.398 126.715 188.398ZM130.229 188.398C130.345 188.398 130.458 188.42 130.568 188.466C130.674 188.511 130.769 188.572 130.851 188.655C130.934 188.737 130.998 188.835 131.041 188.941C131.086 189.048 131.108 189.161 131.108 189.277C131.108 189.393 131.086 189.506 131.041 189.613C130.998 189.719 130.934 189.817 130.851 189.899C130.769 189.982 130.674 190.043 130.568 190.089C130.458 190.134 130.345 190.156 130.229 190.156C130.113 190.156 130 190.134 129.893 190.089C129.787 190.043 129.692 189.982 129.61 189.899C129.527 189.817 129.463 189.719 129.418 189.613C129.375 189.506 129.35 189.393 129.35 189.277C129.35 189.161 129.375 189.048 129.418 188.941C129.463 188.835 129.527 188.737 129.61 188.655C129.692 188.572 129.787 188.511 129.893 188.466C130 188.42 130.113 188.398 130.229 188.398ZM133.743 188.398C133.862 188.398 133.972 188.42 134.082 188.466C134.189 188.511 134.283 188.572 134.366 188.655C134.448 188.737 134.512 188.835 134.555 188.941C134.601 189.048 134.622 189.161 134.622 189.277C134.622 189.393 134.601 189.506 134.555 189.613C134.512 189.719 134.448 189.817 134.366 189.899C134.283 189.982 134.189 190.043 134.082 190.089C133.972 190.134 133.862 190.156 133.743 190.156C133.628 190.156 133.515 190.134 133.408 190.089C133.301 190.043 133.207 189.982 133.124 189.899C133.042 189.817 132.978 189.719 132.932 189.613C132.889 189.506 132.865 189.393 132.865 189.277C132.865 189.161 132.889 189.048 132.932 188.941C132.978 188.835 133.042 188.737 133.124 188.655C133.207 188.572 133.301 188.511 133.408 188.466C133.515 188.42 133.628 188.398 133.743 188.398Z" fill="#F5A64E"/>
<path d="M136.633 186.642L140.147 189.277L136.633 191.913V186.642Z" fill="#F5A64E" stroke="#F5A64E" stroke-width="1.7572" stroke-linecap="round" stroke-linejoin="round"/>
<mask id="mask10_6291_27445" style="mask-type:luminance" maskUnits="userSpaceOnUse" x="0" y="163" width="83" height="52">
<path d="M0 163.92H82.2132V214.635H0V163.92Z" fill="white"/>
</mask>
<g mask="url(#mask10_6291_27445)">
<mask id="mask11_6291_27445" style="mask-type:luminance" maskUnits="userSpaceOnUse" x="0" y="163" width="83" height="52">
<path d="M41.0776 163.92L82.1553 189.277L41.0776 214.635L0 189.277L41.0776 163.92Z" fill="white"/>
</mask>
<g mask="url(#mask11_6291_27445)">
<mask id="mask12_6291_27445" style="mask-type:luminance" maskUnits="userSpaceOnUse" x="-1" y="163" width="84" height="53">
<path d="M82.8498 163.505H-0.714844V215.049H82.8498V163.505Z" fill="white"/>
</mask>
<g mask="url(#mask12_6291_27445)">
<mask id="mask13_6291_27445" style="mask-type:luminance" maskUnits="userSpaceOnUse" x="0" y="163" width="83" height="52">
<path d="M0 163.921H82.2132V214.636H0V163.921Z" fill="white"/>
</mask>
<g mask="url(#mask13_6291_27445)">
<mask id="mask14_6291_27445" style="mask-type:luminance" maskUnits="userSpaceOnUse" x="0" y="163" width="83" height="52">
<path d="M41.0776 163.921L82.1553 189.278L41.0776 214.636L0 189.278L41.0776 163.921Z" fill="white"/>
</mask>
<g mask="url(#mask14_6291_27445)">
<path d="M0 163.921H82.2132V214.636H0V163.921Z" fill="#F7CF74"/>
</g>
</g>
</g>
</g>
</g>
<path d="M36.0314 195.721C35.0704 195.721 34.2041 195.477 33.4322 194.989C32.6573 194.495 32.0442 193.778 31.5896 192.841C31.132 191.908 30.9062 190.804 30.9062 189.534C30.9062 188.265 31.132 187.164 31.5896 186.228C32.0442 185.294 32.6573 184.58 33.4322 184.092C34.2041 183.598 35.0704 183.348 36.0314 183.348C36.9893 183.348 37.8557 183.598 38.6306 184.092C39.4024 184.58 40.0126 185.294 40.461 186.228C40.9064 187.164 41.1322 188.265 41.1322 189.534C41.1322 190.804 40.9064 191.908 40.461 192.841C40.0126 193.778 39.4024 194.495 38.6306 194.989C37.8557 195.477 36.9893 195.721 36.0314 195.721ZM36.0314 193.061C36.4524 193.061 36.8429 192.933 37.2029 192.671C37.569 192.402 37.8557 192.009 38.0693 191.487C38.2798 190.959 38.3866 190.309 38.3866 189.534C38.3866 188.772 38.2798 188.125 38.0693 187.594C37.8557 187.066 37.569 186.673 37.2029 186.411C36.8429 186.151 36.4524 186.02 36.0314 186.02C35.6074 186.02 35.2138 186.151 34.8477 186.411C34.4878 186.673 34.201 187.066 33.9814 187.594C33.7678 188.125 33.6641 188.772 33.6641 189.534C33.6641 190.309 33.7678 190.959 33.9814 191.487C34.201 192.009 34.4878 192.402 34.8477 192.671C35.2138 192.933 35.6074 193.061 36.0314 193.061Z" fill="#212121"/>
<path d="M46.8061 195.721C45.9031 195.721 45.1129 195.55 44.4387 195.209C43.7615 194.867 43.2428 194.391 42.8768 193.781C42.5168 193.171 42.3398 192.484 42.3398 191.719H45.0977C45.0977 192.109 45.2502 192.445 45.5614 192.719C45.8787 192.988 46.2935 193.122 46.8061 193.122C47.3003 193.122 47.6877 193.006 47.9653 192.768C48.249 192.524 48.3924 192.228 48.3924 191.877C48.3924 191.472 48.246 191.142 47.9531 190.889C47.6603 190.639 47.2484 190.511 46.7206 190.511H45.9153V188.265H46.7206C47.1996 188.265 47.5687 188.149 47.8311 187.911C48.0904 187.677 48.2216 187.384 48.2216 187.033C48.2216 186.734 48.0904 186.478 47.8311 186.264C47.5687 186.054 47.221 185.947 46.7817 185.947C46.318 185.947 45.9458 186.063 45.6712 186.289C45.4027 186.508 45.2685 186.795 45.2685 187.143H42.5107C42.5107 186.453 42.6876 185.819 43.0476 185.239C43.4137 184.653 43.9262 184.196 44.5852 183.86C45.2441 183.518 46.0037 183.348 46.8671 183.348C47.6786 183.348 48.3955 183.512 49.0148 183.836C49.631 184.153 50.113 184.586 50.4547 185.129C50.7964 185.666 50.9672 186.261 50.9672 186.911C50.9672 187.53 50.8025 188.058 50.4791 188.497C50.1618 188.93 49.8018 189.217 49.4053 189.364V189.449C49.8354 189.595 50.2289 189.91 50.5889 190.389C50.955 190.862 51.1381 191.444 51.1381 192.134C51.1381 192.777 50.9581 193.375 50.6011 193.927C50.2503 194.474 49.7469 194.91 49.088 195.233C48.429 195.557 47.6664 195.721 46.8061 195.721Z" fill="#212121"/>
<path d="M84.5388 270.359H84.5418C84.6577 270.359 84.7676 270.381 84.8774 270.426C84.9842 270.472 85.0787 270.533 85.1611 270.616C85.2435 270.698 85.3075 270.796 85.3533 270.902C85.396 271.009 85.4204 271.122 85.4204 271.238C85.4204 271.354 85.396 271.467 85.3533 271.574C85.3075 271.683 85.2435 271.778 85.1611 271.86C85.0787 271.943 84.9842 272.007 84.8774 272.049C84.7676 272.095 84.6577 272.117 84.5418 272.117H84.5388C84.4228 272.117 84.313 272.095 84.2032 272.049C84.0964 272.007 84.0018 271.943 83.9195 271.86C83.8371 271.778 83.773 271.683 83.7273 271.574C83.6846 271.467 83.6602 271.354 83.6602 271.238C83.6602 271.122 83.6846 271.009 83.7273 270.902C83.773 270.796 83.8371 270.698 83.9195 270.616C84.0018 270.533 84.0964 270.472 84.2032 270.426C84.313 270.381 84.4228 270.359 84.5388 270.359ZM88.0562 270.359C88.1721 270.359 88.285 270.381 88.3918 270.426C88.4986 270.472 88.5931 270.533 88.6755 270.616C88.7579 270.698 88.8219 270.796 88.8677 270.902C88.9104 271.009 88.9348 271.122 88.9348 271.238C88.9348 271.354 88.9104 271.467 88.8677 271.574C88.8219 271.683 88.7579 271.778 88.6755 271.86C88.5931 271.943 88.4986 272.007 88.3918 272.049C88.285 272.095 88.1721 272.117 88.0562 272.117C87.9372 272.117 87.8274 272.095 87.7176 272.049C87.6108 272.007 87.5162 271.943 87.4339 271.86C87.3515 271.778 87.2874 271.683 87.2417 271.574C87.199 271.467 87.1776 271.354 87.1776 271.238C87.1776 271.122 87.199 271.009 87.2417 270.902C87.2874 270.796 87.3515 270.698 87.4339 270.616C87.5162 270.533 87.6108 270.472 87.7176 270.426C87.8274 270.381 87.9372 270.359 88.0562 270.359ZM91.5706 270.359C91.6865 270.359 91.7994 270.381 91.9062 270.426C92.013 270.472 92.1075 270.533 92.1899 270.616C92.2723 270.698 92.3363 270.796 92.3821 270.902C92.4248 271.009 92.4492 271.122 92.4492 271.238C92.4492 271.354 92.4248 271.467 92.3821 271.574C92.3363 271.683 92.2723 271.778 92.1899 271.86C92.1075 271.943 92.013 272.007 91.9062 272.049C91.7994 272.095 91.6865 272.117 91.5706 272.117C91.4516 272.117 91.3418 272.095 91.232 272.049C91.1252 272.007 91.0306 271.943 90.9483 271.86C90.8659 271.778 90.8018 271.683 90.7591 271.574C90.7134 271.467 90.692 271.354 90.692 271.238C90.692 271.122 90.7134 271.009 90.7591 270.902C90.8018 270.796 90.8659 270.698 90.9483 270.616C91.0306 270.533 91.1252 270.472 91.232 270.426C91.3418 270.381 91.4516 270.359 91.5706 270.359ZM95.085 270.359C95.2009 270.359 95.3138 270.381 95.4206 270.426C95.5274 270.472 95.6219 270.533 95.7043 270.616C95.7867 270.698 95.8507 270.796 95.8965 270.902C95.9392 271.009 95.9636 271.122 95.9636 271.238C95.9636 271.354 95.9392 271.467 95.8965 271.574C95.8507 271.683 95.7867 271.778 95.7043 271.86C95.6219 271.943 95.5274 272.007 95.4206 272.049C95.3138 272.095 95.2009 272.117 95.085 272.117C94.966 272.117 94.8562 272.095 94.7464 272.049C94.6396 272.007 94.545 271.943 94.4627 271.86C94.3803 271.778 94.3162 271.683 94.2735 271.574C94.2278 271.467 94.2064 271.354 94.2064 271.238C94.2064 271.122 94.2278 271.009 94.2735 270.902C94.3162 270.796 94.3803 270.698 94.4627 270.616C94.545 270.533 94.6396 270.472 94.7464 270.426C94.8562 270.381 94.966 270.359 95.085 270.359ZM98.5994 270.359C98.7153 270.359 98.8282 270.381 98.935 270.426C99.0418 270.472 99.1363 270.533 99.2187 270.616C99.3011 270.698 99.3651 270.796 99.4109 270.902C99.4536 271.009 99.478 271.122 99.478 271.238C99.478 271.354 99.4536 271.467 99.4109 271.574C99.3651 271.683 99.3011 271.778 99.2187 271.86C99.1363 271.943 99.0418 272.007 98.935 272.049C98.8282 272.095 98.7153 272.117 98.5994 272.117C98.4835 272.117 98.3706 272.095 98.2638 272.049C98.154 272.007 98.0594 271.943 97.9771 271.86C97.8947 271.778 97.8306 271.683 97.7879 271.574C97.7422 271.467 97.7208 271.354 97.7208 271.238C97.7208 271.122 97.7422 271.009 97.7879 270.902C97.8306 270.796 97.8947 270.698 97.9771 270.616C98.0594 270.533 98.154 270.472 98.2638 270.426C98.3706 270.381 98.4835 270.359 98.5994 270.359ZM102.114 270.359C102.23 270.359 102.343 270.381 102.449 270.426C102.556 270.472 102.651 270.533 102.733 270.616C102.815 270.698 102.88 270.796 102.925 270.902C102.971 271.009 102.992 271.122 102.992 271.238C102.992 271.354 102.971 271.467 102.925 271.574C102.88 271.683 102.815 271.778 102.733 271.86C102.651 271.943 102.556 272.007 102.449 272.049C102.343 272.095 102.23 272.117 102.114 272.117C101.998 272.117 101.885 272.095 101.778 272.049C101.668 272.007 101.574 271.943 101.491 271.86C101.409 271.778 101.345 271.683 101.302 271.574C101.257 271.467 101.235 271.354 101.235 271.238C101.235 271.122 101.257 271.009 101.302 270.902C101.345 270.796 101.409 270.698 101.491 270.616C101.574 270.533 101.668 270.472 101.778 270.426C101.885 270.381 101.998 270.359 102.114 270.359ZM105.628 270.359C105.744 270.359 105.857 270.381 105.964 270.426C106.071 270.472 106.168 270.533 106.251 270.616C106.333 270.698 106.394 270.796 106.44 270.902C106.485 271.009 106.507 271.122 106.507 271.238C106.507 271.354 106.485 271.467 106.44 271.574C106.394 271.683 106.333 271.778 106.251 271.86C106.168 271.943 106.071 272.007 105.964 272.049C105.857 272.095 105.744 272.117 105.628 272.117C105.512 272.117 105.399 272.095 105.293 272.049C105.183 272.007 105.088 271.943 105.006 271.86C104.924 271.778 104.859 271.683 104.817 271.574C104.771 271.467 104.75 271.354 104.75 271.238C104.75 271.122 104.771 271.009 104.817 270.902C104.859 270.796 104.924 270.698 105.006 270.616C105.088 270.533 105.183 270.472 105.293 270.426C105.399 270.381 105.512 270.359 105.628 270.359ZM109.143 270.359C109.259 270.359 109.371 270.381 109.478 270.426C109.585 270.472 109.683 270.533 109.765 270.616C109.847 270.698 109.908 270.796 109.954 270.902C110 271.009 110.021 271.122 110.021 271.238C110.021 271.354 110 271.467 109.954 271.574C109.908 271.683 109.847 271.778 109.765 271.86C109.683 271.943 109.585 272.007 109.478 272.049C109.371 272.095 109.259 272.117 109.143 272.117C109.027 272.117 108.914 272.095 108.807 272.049C108.697 272.007 108.603 271.943 108.52 271.86C108.438 271.778 108.374 271.683 108.331 271.574C108.285 271.467 108.264 271.354 108.264 271.238C108.264 271.122 108.285 271.009 108.331 270.902C108.374 270.796 108.438 270.698 108.52 270.616C108.603 270.533 108.697 270.472 108.807 270.426C108.914 270.381 109.027 270.359 109.143 270.359ZM112.657 270.359C112.773 270.359 112.886 270.381 112.993 270.426C113.102 270.472 113.197 270.533 113.279 270.616C113.362 270.698 113.423 270.796 113.469 270.902C113.514 271.009 113.536 271.122 113.536 271.238C113.536 271.354 113.514 271.467 113.469 271.574C113.423 271.683 113.362 271.778 113.279 271.86C113.197 271.943 113.102 272.007 112.993 272.049C112.886 272.095 112.773 272.117 112.657 272.117C112.541 272.117 112.428 272.095 112.321 272.049C112.212 272.007 112.117 271.943 112.035 271.86C111.952 271.778 111.888 271.683 111.846 271.574C111.8 271.467 111.778 271.354 111.778 271.238C111.778 271.122 111.8 271.009 111.846 270.902C111.888 270.796 111.952 270.698 112.035 270.616C112.117 270.533 112.212 270.472 112.321 270.426C112.428 270.381 112.541 270.359 112.657 270.359ZM116.171 270.359C116.287 270.359 116.4 270.381 116.507 270.426C116.617 270.472 116.711 270.533 116.794 270.616C116.876 270.698 116.94 270.796 116.983 270.902C117.029 271.009 117.05 271.122 117.05 271.238C117.05 271.354 117.029 271.467 116.983 271.574C116.94 271.683 116.876 271.778 116.794 271.86C116.711 271.943 116.617 272.007 116.507 272.049C116.4 272.095 116.287 272.117 116.171 272.117C116.056 272.117 115.943 272.095 115.836 272.049C115.729 272.007 115.631 271.943 115.549 271.86C115.467 271.778 115.406 271.683 115.36 271.574C115.314 271.467 115.293 271.354 115.293 271.238C115.293 271.122 115.314 271.009 115.36 270.902C115.406 270.796 115.467 270.698 115.549 270.616C115.631 270.533 115.729 270.472 115.836 270.426C115.943 270.381 116.056 270.359 116.171 270.359ZM119.686 270.359C119.802 270.359 119.915 270.381 120.021 270.426C120.131 270.472 120.226 270.533 120.308 270.616C120.391 270.698 120.455 270.796 120.497 270.902C120.543 271.009 120.564 271.122 120.564 271.238C120.564 271.354 120.543 271.467 120.497 271.574C120.455 271.683 120.391 271.778 120.308 271.86C120.226 271.943 120.131 272.007 120.021 272.049C119.915 272.095 119.802 272.117 119.686 272.117C119.57 272.117 119.457 272.095 119.35 272.049C119.243 272.007 119.146 271.943 119.063 271.86C118.981 271.778 118.92 271.683 118.874 271.574C118.829 271.467 118.807 271.354 118.807 271.238C118.807 271.122 118.829 271.009 118.874 270.902C118.92 270.796 118.981 270.698 119.063 270.616C119.146 270.533 119.243 270.472 119.35 270.426C119.457 270.381 119.57 270.359 119.686 270.359ZM123.2 270.359C123.316 270.359 123.429 270.381 123.536 270.426C123.646 270.472 123.74 270.533 123.823 270.616C123.905 270.698 123.969 270.796 124.012 270.902C124.057 271.009 124.079 271.122 124.079 271.238C124.079 271.354 124.057 271.467 124.012 271.574C123.969 271.683 123.905 271.778 123.823 271.86C123.74 271.943 123.646 272.007 123.536 272.049C123.429 272.095 123.316 272.117 123.2 272.117C123.084 272.117 122.971 272.095 122.865 272.049C122.758 272.007 122.66 271.943 122.578 271.86C122.496 271.778 122.435 271.683 122.389 271.574C122.343 271.467 122.322 271.354 122.322 271.238C122.322 271.122 122.343 271.009 122.389 270.902C122.435 270.796 122.496 270.698 122.578 270.616C122.66 270.533 122.758 270.472 122.865 270.426C122.971 270.381 123.084 270.359 123.2 270.359ZM126.715 270.359C126.831 270.359 126.943 270.381 127.05 270.426C127.16 270.472 127.255 270.533 127.337 270.616C127.419 270.698 127.483 270.796 127.526 270.902C127.572 271.009 127.593 271.122 127.593 271.238C127.593 271.354 127.572 271.467 127.526 271.574C127.483 271.683 127.419 271.778 127.337 271.86C127.255 271.943 127.16 272.007 127.05 272.049C126.943 272.095 126.831 272.117 126.715 272.117C126.599 272.117 126.486 272.095 126.379 272.049C126.272 272.007 126.178 271.943 126.095 271.86C126.013 271.778 125.949 271.683 125.903 271.574C125.857 271.467 125.836 271.354 125.836 271.238C125.836 271.122 125.857 271.009 125.903 270.902C125.949 270.796 126.013 270.698 126.095 270.616C126.178 270.533 126.272 270.472 126.379 270.426C126.486 270.381 126.599 270.359 126.715 270.359ZM130.229 270.359C130.345 270.359 130.458 270.381 130.568 270.426C130.674 270.472 130.769 270.533 130.851 270.616C130.934 270.698 130.998 270.796 131.041 270.902C131.086 271.009 131.108 271.122 131.108 271.238C131.108 271.354 131.086 271.467 131.041 271.574C130.998 271.683 130.934 271.778 130.851 271.86C130.769 271.943 130.674 272.007 130.568 272.049C130.458 272.095 130.345 272.117 130.229 272.117C130.113 272.117 130 272.095 129.893 272.049C129.787 272.007 129.692 271.943 129.61 271.86C129.527 271.778 129.463 271.683 129.418 271.574C129.375 271.467 129.35 271.354 129.35 271.238C129.35 271.122 129.375 271.009 129.418 270.902C129.463 270.796 129.527 270.698 129.61 270.616C129.692 270.533 129.787 270.472 129.893 270.426C130 270.381 130.113 270.359 130.229 270.359ZM133.743 270.359C133.862 270.359 133.972 270.381 134.082 270.426C134.189 270.472 134.283 270.533 134.366 270.616C134.448 270.698 134.512 270.796 134.555 270.902C134.601 271.009 134.622 271.122 134.622 271.238C134.622 271.354 134.601 271.467 134.555 271.574C134.512 271.683 134.448 271.778 134.366 271.86C134.283 271.943 134.189 272.007 134.082 272.049C133.972 272.095 133.862 272.117 133.743 272.117C133.628 272.117 133.515 272.095 133.408 272.049C133.301 272.007 133.207 271.943 133.124 271.86C133.042 271.778 132.978 271.683 132.932 271.574C132.889 271.467 132.865 271.354 132.865 271.238C132.865 271.122 132.889 271.009 132.932 270.902C132.978 270.796 133.042 270.698 133.124 270.616C133.207 270.533 133.301 270.472 133.408 270.426C133.515 270.381 133.628 270.359 133.743 270.359Z" fill="#F5A64E"/>
<path d="M136.633 268.602L140.147 271.237L136.633 273.873V268.602Z" fill="#F5A64E" stroke="#F5A64E" stroke-width="1.7572" stroke-linecap="round" stroke-linejoin="round"/>
<mask id="mask15_6291_27445" style="mask-type:luminance" maskUnits="userSpaceOnUse" x="0" y="245" width="83" height="52">
<path d="M0 245.88H82.2132V296.595H0V245.88Z" fill="white"/>
</mask>
<g mask="url(#mask15_6291_27445)">
<mask id="mask16_6291_27445" style="mask-type:luminance" maskUnits="userSpaceOnUse" x="0" y="245" width="83" height="52">
<path d="M41.0776 245.88L82.1553 271.237L41.0776 296.595L0 271.237L41.0776 245.88Z" fill="white"/>
</mask>
<g mask="url(#mask16_6291_27445)">
<mask id="mask17_6291_27445" style="mask-type:luminance" maskUnits="userSpaceOnUse" x="-1" y="245" width="84" height="53">
<path d="M82.8498 245.508H-0.714844V297.052H82.8498V245.508Z" fill="white"/>
</mask>
<g mask="url(#mask17_6291_27445)">
<mask id="mask18_6291_27445" style="mask-type:luminance" maskUnits="userSpaceOnUse" x="0" y="245" width="83" height="52">
<path d="M0 245.88H82.2132V296.595H0V245.88Z" fill="white"/>
</mask>
<g mask="url(#mask18_6291_27445)">
<mask id="mask19_6291_27445" style="mask-type:luminance" maskUnits="userSpaceOnUse" x="0" y="245" width="83" height="52">
<path d="M41.0776 245.88L82.1553 271.237L41.0776 296.595L0 271.237L41.0776 245.88Z" fill="white"/>
</mask>
<g mask="url(#mask19_6291_27445)">
<path d="M0 245.88H82.2132V296.595H0V245.88Z" fill="#F7C961"/>
</g>
</g>
</g>
</g>
</g>
<path d="M36.0431 277.681C35.0822 277.681 34.2158 277.437 33.4439 276.949C32.6691 276.455 32.0559 275.738 31.6013 274.801C31.1437 273.868 30.918 272.764 30.918 271.494C30.918 270.225 31.1437 269.124 31.6013 268.187C32.0559 267.254 32.6691 266.54 33.4439 266.052C34.2158 265.558 35.0822 265.308 36.0431 265.308C37.0011 265.308 37.8675 265.558 38.6423 266.052C39.4142 266.54 40.0243 267.254 40.4727 268.187C40.9182 269.124 41.1439 270.225 41.1439 271.494C41.1439 272.764 40.9182 273.868 40.4727 274.801C40.0243 275.738 39.4142 276.455 38.6423 276.949C37.8675 277.437 37.0011 277.681 36.0431 277.681ZM36.0431 275.021C36.4641 275.021 36.8546 274.893 37.2146 274.631C37.5807 274.362 37.8675 273.969 38.081 273.447C38.2915 272.919 38.3983 272.269 38.3983 271.494C38.3983 270.732 38.2915 270.085 38.081 269.554C37.8675 269.026 37.5807 268.633 37.2146 268.371C36.8546 268.111 36.4641 267.98 36.0431 267.98C35.6191 267.98 35.2256 268.111 34.8595 268.371C34.4995 268.633 34.2127 269.026 33.9931 269.554C33.7795 270.085 33.6758 270.732 33.6758 271.494C33.6758 272.269 33.7795 272.919 33.9931 273.447C34.2127 273.969 34.4995 274.362 34.8595 274.631C35.2256 274.893 35.6191 275.021 36.0431 275.021Z" fill="#212121"/>
<path d="M50.2657 277.509H47.5201V275.289H42.0898V272.885L46.1656 265.478H50.2657V272.787H51.5592V275.289H50.2657V277.509ZM45.0307 272.702V272.787H47.5201V268.76H47.1784L45.0307 272.702Z" fill="#212121"/>
<path d="M84.5388 352.318H84.5418C84.6577 352.318 84.7676 352.34 84.8774 352.385C84.9842 352.431 85.0787 352.492 85.1611 352.575C85.2435 352.657 85.3075 352.755 85.3533 352.861C85.396 352.968 85.4204 353.081 85.4204 353.197C85.4204 353.313 85.396 353.426 85.3533 353.533C85.3075 353.642 85.2435 353.737 85.1611 353.819C85.0787 353.902 84.9842 353.966 84.8774 354.008C84.7676 354.054 84.6577 354.076 84.5418 354.076H84.5388C84.4228 354.076 84.313 354.054 84.2032 354.008C84.0964 353.966 84.0018 353.902 83.9195 353.819C83.8371 353.737 83.773 353.642 83.7273 353.533C83.6846 353.426 83.6602 353.313 83.6602 353.197C83.6602 353.081 83.6846 352.968 83.7273 352.861C83.773 352.755 83.8371 352.657 83.9195 352.575C84.0018 352.492 84.0964 352.431 84.2032 352.385C84.313 352.34 84.4228 352.318 84.5388 352.318ZM88.0562 352.318C88.1721 352.318 88.285 352.34 88.3918 352.385C88.4986 352.431 88.5931 352.492 88.6755 352.575C88.7579 352.657 88.8219 352.755 88.8677 352.861C88.9104 352.968 88.9348 353.081 88.9348 353.197C88.9348 353.313 88.9104 353.426 88.8677 353.533C88.8219 353.642 88.7579 353.737 88.6755 353.819C88.5931 353.902 88.4986 353.966 88.3918 354.008C88.285 354.054 88.1721 354.076 88.0562 354.076C87.9372 354.076 87.8274 354.054 87.7176 354.008C87.6108 353.966 87.5162 353.902 87.4339 353.819C87.3515 353.737 87.2874 353.642 87.2417 353.533C87.199 353.426 87.1776 353.313 87.1776 353.197C87.1776 353.081 87.199 352.968 87.2417 352.861C87.2874 352.755 87.3515 352.657 87.4339 352.575C87.5162 352.492 87.6108 352.431 87.7176 352.385C87.8274 352.34 87.9372 352.318 88.0562 352.318ZM91.5706 352.318C91.6865 352.318 91.7994 352.34 91.9062 352.385C92.013 352.431 92.1075 352.492 92.1899 352.575C92.2723 352.657 92.3363 352.755 92.3821 352.861C92.4248 352.968 92.4492 353.081 92.4492 353.197C92.4492 353.313 92.4248 353.426 92.3821 353.533C92.3363 353.642 92.2723 353.737 92.1899 353.819C92.1075 353.902 92.013 353.966 91.9062 354.008C91.7994 354.054 91.6865 354.076 91.5706 354.076C91.4516 354.076 91.3418 354.054 91.232 354.008C91.1252 353.966 91.0306 353.902 90.9483 353.819C90.8659 353.737 90.8018 353.642 90.7591 353.533C90.7134 353.426 90.692 353.313 90.692 353.197C90.692 353.081 90.7134 352.968 90.7591 352.861C90.8018 352.755 90.8659 352.657 90.9483 352.575C91.0306 352.492 91.1252 352.431 91.232 352.385C91.3418 352.34 91.4516 352.318 91.5706 352.318ZM95.085 352.318C95.2009 352.318 95.3138 352.34 95.4206 352.385C95.5274 352.431 95.6219 352.492 95.7043 352.575C95.7867 352.657 95.8507 352.755 95.8965 352.861C95.9392 352.968 95.9636 353.081 95.9636 353.197C95.9636 353.313 95.9392 353.426 95.8965 353.533C95.8507 353.642 95.7867 353.737 95.7043 353.819C95.6219 353.902 95.5274 353.966 95.4206 354.008C95.3138 354.054 95.2009 354.076 95.085 354.076C94.966 354.076 94.8562 354.054 94.7464 354.008C94.6396 353.966 94.545 353.902 94.4627 353.819C94.3803 353.737 94.3162 353.642 94.2735 353.533C94.2278 353.426 94.2064 353.313 94.2064 353.197C94.2064 353.081 94.2278 352.968 94.2735 352.861C94.3162 352.755 94.3803 352.657 94.4627 352.575C94.545 352.492 94.6396 352.431 94.7464 352.385C94.8562 352.34 94.966 352.318 95.085 352.318ZM98.5994 352.318C98.7153 352.318 98.8282 352.34 98.935 352.385C99.0418 352.431 99.1363 352.492 99.2187 352.575C99.3011 352.657 99.3651 352.755 99.4109 352.861C99.4536 352.968 99.478 353.081 99.478 353.197C99.478 353.313 99.4536 353.426 99.4109 353.533C99.3651 353.642 99.3011 353.737 99.2187 353.819C99.1363 353.902 99.0418 353.966 98.935 354.008C98.8282 354.054 98.7153 354.076 98.5994 354.076C98.4835 354.076 98.3706 354.054 98.2638 354.008C98.154 353.966 98.0594 353.902 97.9771 353.819C97.8947 353.737 97.8306 353.642 97.7879 353.533C97.7422 353.426 97.7208 353.313 97.7208 353.197C97.7208 353.081 97.7422 352.968 97.7879 352.861C97.8306 352.755 97.8947 352.657 97.9771 352.575C98.0594 352.492 98.154 352.431 98.2638 352.385C98.3706 352.34 98.4835 352.318 98.5994 352.318ZM102.114 352.318C102.23 352.318 102.343 352.34 102.449 352.385C102.556 352.431 102.651 352.492 102.733 352.575C102.815 352.657 102.88 352.755 102.925 352.861C102.971 352.968 102.992 353.081 102.992 353.197C102.992 353.313 102.971 353.426 102.925 353.533C102.88 353.642 102.815 353.737 102.733 353.819C102.651 353.902 102.556 353.966 102.449 354.008C102.343 354.054 102.23 354.076 102.114 354.076C101.998 354.076 101.885 354.054 101.778 354.008C101.668 353.966 101.574 353.902 101.491 353.819C101.409 353.737 101.345 353.642 101.302 353.533C101.257 353.426 101.235 353.313 101.235 353.197C101.235 353.081 101.257 352.968 101.302 352.861C101.345 352.755 101.409 352.657 101.491 352.575C101.574 352.492 101.668 352.431 101.778 352.385C101.885 352.34 101.998 352.318 102.114 352.318ZM105.628 352.318C105.744 352.318 105.857 352.34 105.964 352.385C106.071 352.431 106.168 352.492 106.251 352.575C106.333 352.657 106.394 352.755 106.44 352.861C106.485 352.968 106.507 353.081 106.507 353.197C106.507 353.313 106.485 353.426 106.44 353.533C106.394 353.642 106.333 353.737 106.251 353.819C106.168 353.902 106.071 353.966 105.964 354.008C105.857 354.054 105.744 354.076 105.628 354.076C105.512 354.076 105.399 354.054 105.293 354.008C105.183 353.966 105.088 353.902 105.006 353.819C104.924 353.737 104.859 353.642 104.817 353.533C104.771 353.426 104.75 353.313 104.75 353.197C104.75 353.081 104.771 352.968 104.817 352.861C104.859 352.755 104.924 352.657 105.006 352.575C105.088 352.492 105.183 352.431 105.293 352.385C105.399 352.34 105.512 352.318 105.628 352.318ZM109.143 352.318C109.259 352.318 109.371 352.34 109.478 352.385C109.585 352.431 109.683 352.492 109.765 352.575C109.847 352.657 109.908 352.755 109.954 352.861C110 352.968 110.021 353.081 110.021 353.197C110.021 353.313 110 353.426 109.954 353.533C109.908 353.642 109.847 353.737 109.765 353.819C109.683 353.902 109.585 353.966 109.478 354.008C109.371 354.054 109.259 354.076 109.143 354.076C109.027 354.076 108.914 354.054 108.807 354.008C108.697 353.966 108.603 353.902 108.52 353.819C108.438 353.737 108.374 353.642 108.331 353.533C108.285 353.426 108.264 353.313 108.264 353.197C108.264 353.081 108.285 352.968 108.331 352.861C108.374 352.755 108.438 352.657 108.52 352.575C108.603 352.492 108.697 352.431 108.807 352.385C108.914 352.34 109.027 352.318 109.143 352.318ZM112.657 352.318C112.773 352.318 112.886 352.34 112.993 352.385C113.102 352.431 113.197 352.492 113.279 352.575C113.362 352.657 113.423 352.755 113.469 352.861C113.514 352.968 113.536 353.081 113.536 353.197C113.536 353.313 113.514 353.426 113.469 353.533C113.423 353.642 113.362 353.737 113.279 353.819C113.197 353.902 113.102 353.966 112.993 354.008C112.886 354.054 112.773 354.076 112.657 354.076C112.541 354.076 112.428 354.054 112.321 354.008C112.212 353.966 112.117 353.902 112.035 353.819C111.952 353.737 111.888 353.642 111.846 353.533C111.8 353.426 111.778 353.313 111.778 353.197C111.778 353.081 111.8 352.968 111.846 352.861C111.888 352.755 111.952 352.657 112.035 352.575C112.117 352.492 112.212 352.431 112.321 352.385C112.428 352.34 112.541 352.318 112.657 352.318ZM116.171 352.318C116.287 352.318 116.4 352.34 116.507 352.385C116.617 352.431 116.711 352.492 116.794 352.575C116.876 352.657 116.94 352.755 116.983 352.861C117.029 352.968 117.05 353.081 117.05 353.197C117.05 353.313 117.029 353.426 116.983 353.533C116.94 353.642 116.876 353.737 116.794 353.819C116.711 353.902 116.617 353.966 116.507 354.008C116.4 354.054 116.287 354.076 116.171 354.076C116.056 354.076 115.943 354.054 115.836 354.008C115.729 353.966 115.631 353.902 115.549 353.819C115.467 353.737 115.406 353.642 115.36 353.533C115.314 353.426 115.293 353.313 115.293 353.197C115.293 353.081 115.314 352.968 115.36 352.861C115.406 352.755 115.467 352.657 115.549 352.575C115.631 352.492 115.729 352.431 115.836 352.385C115.943 352.34 116.056 352.318 116.171 352.318ZM119.686 352.318C119.802 352.318 119.915 352.34 120.021 352.385C120.131 352.431 120.226 352.492 120.308 352.575C120.391 352.657 120.455 352.755 120.497 352.861C120.543 352.968 120.564 353.081 120.564 353.197C120.564 353.313 120.543 353.426 120.497 353.533C120.455 353.642 120.391 353.737 120.308 353.819C120.226 353.902 120.131 353.966 120.021 354.008C119.915 354.054 119.802 354.076 119.686 354.076C119.57 354.076 119.457 354.054 119.35 354.008C119.243 353.966 119.146 353.902 119.063 353.819C118.981 353.737 118.92 353.642 118.874 353.533C118.829 353.426 118.807 353.313 118.807 353.197C118.807 353.081 118.829 352.968 118.874 352.861C118.92 352.755 118.981 352.657 119.063 352.575C119.146 352.492 119.243 352.431 119.35 352.385C119.457 352.34 119.57 352.318 119.686 352.318ZM123.2 352.318C123.316 352.318 123.429 352.34 123.536 352.385C123.646 352.431 123.74 352.492 123.823 352.575C123.905 352.657 123.969 352.755 124.012 352.861C124.057 352.968 124.079 353.081 124.079 353.197C124.079 353.313 124.057 353.426 124.012 353.533C123.969 353.642 123.905 353.737 123.823 353.819C123.74 353.902 123.646 353.966 123.536 354.008C123.429 354.054 123.316 354.076 123.2 354.076C123.084 354.076 122.971 354.054 122.865 354.008C122.758 353.966 122.66 353.902 122.578 353.819C122.496 353.737 122.435 353.642 122.389 353.533C122.343 353.426 122.322 353.313 122.322 353.197C122.322 353.081 122.343 352.968 122.389 352.861C122.435 352.755 122.496 352.657 122.578 352.575C122.66 352.492 122.758 352.431 122.865 352.385C122.971 352.34 123.084 352.318 123.2 352.318ZM126.715 352.318C126.831 352.318 126.943 352.34 127.05 352.385C127.16 352.431 127.255 352.492 127.337 352.575C127.419 352.657 127.483 352.755 127.526 352.861C127.572 352.968 127.593 353.081 127.593 353.197C127.593 353.313 127.572 353.426 127.526 353.533C127.483 353.642 127.419 353.737 127.337 353.819C127.255 353.902 127.16 353.966 127.05 354.008C126.943 354.054 126.831 354.076 126.715 354.076C126.599 354.076 126.486 354.054 126.379 354.008C126.272 353.966 126.178 353.902 126.095 353.819C126.013 353.737 125.949 353.642 125.903 353.533C125.857 353.426 125.836 353.313 125.836 353.197C125.836 353.081 125.857 352.968 125.903 352.861C125.949 352.755 126.013 352.657 126.095 352.575C126.178 352.492 126.272 352.431 126.379 352.385C126.486 352.34 126.599 352.318 126.715 352.318ZM130.229 352.318C130.345 352.318 130.458 352.34 130.568 352.385C130.674 352.431 130.769 352.492 130.851 352.575C130.934 352.657 130.998 352.755 131.041 352.861C131.086 352.968 131.108 353.081 131.108 353.197C131.108 353.313 131.086 353.426 131.041 353.533C130.998 353.642 130.934 353.737 130.851 353.819C130.769 353.902 130.674 353.966 130.568 354.008C130.458 354.054 130.345 354.076 130.229 354.076C130.113 354.076 130 354.054 129.893 354.008C129.787 353.966 129.692 353.902 129.61 353.819C129.527 353.737 129.463 353.642 129.418 353.533C129.375 353.426 129.35 353.313 129.35 353.197C129.35 353.081 129.375 352.968 129.418 352.861C129.463 352.755 129.527 352.657 129.61 352.575C129.692 352.492 129.787 352.431 129.893 352.385C130 352.34 130.113 352.318 130.229 352.318ZM133.743 352.318C133.862 352.318 133.972 352.34 134.082 352.385C134.189 352.431 134.283 352.492 134.366 352.575C134.448 352.657 134.512 352.755 134.555 352.861C134.601 352.968 134.622 353.081 134.622 353.197C134.622 353.313 134.601 353.426 134.555 353.533C134.512 353.642 134.448 353.737 134.366 353.819C134.283 353.902 134.189 353.966 134.082 354.008C133.972 354.054 133.862 354.076 133.743 354.076C133.628 354.076 133.515 354.054 133.408 354.008C133.301 353.966 133.207 353.902 133.124 353.819C133.042 353.737 132.978 353.642 132.932 353.533C132.889 353.426 132.865 353.313 132.865 353.197C132.865 353.081 132.889 352.968 132.932 352.861C132.978 352.755 133.042 352.657 133.124 352.575C133.207 352.492 133.301 352.431 133.408 352.385C133.515 352.34 133.628 352.318 133.743 352.318Z" fill="#F5A64E"/>
<path d="M136.633 350.562L140.147 353.197L136.633 355.833V350.562Z" fill="#F5A64E" stroke="#F5A64E" stroke-width="1.7572" stroke-linecap="round" stroke-linejoin="round"/>
<mask id="mask20_6291_27445" style="mask-type:luminance" maskUnits="userSpaceOnUse" x="0" y="327" width="83" height="52">
<path d="M0 327.84H82.2132V378.555H0V327.84Z" fill="white"/>
</mask>
<g mask="url(#mask20_6291_27445)">
<mask id="mask21_6291_27445" style="mask-type:luminance" maskUnits="userSpaceOnUse" x="0" y="327" width="83" height="52">
<path d="M41.0776 327.84L82.1553 353.197L41.0776 378.555L0 353.197L41.0776 327.84Z" fill="white"/>
</mask>
<g mask="url(#mask21_6291_27445)">
<mask id="mask22_6291_27445" style="mask-type:luminance" maskUnits="userSpaceOnUse" x="-1" y="327" width="84" height="53">
<path d="M82.8498 327.511H-0.714844V379.055H82.8498V327.511Z" fill="white"/>
</mask>
<g mask="url(#mask22_6291_27445)">
<mask id="mask23_6291_27445" style="mask-type:luminance" maskUnits="userSpaceOnUse" x="0" y="327" width="83" height="52">
<path d="M0 327.84H82.2132V378.555H0V327.84Z" fill="white"/>
</mask>
<g mask="url(#mask23_6291_27445)">
<mask id="mask24_6291_27445" style="mask-type:luminance" maskUnits="userSpaceOnUse" x="0" y="327" width="83" height="52">
<path d="M41.0776 327.84L82.1553 353.197L41.0776 378.555L0 353.197L41.0776 327.84Z" fill="white"/>
</mask>
<g mask="url(#mask24_6291_27445)">
<path d="M0 327.84H82.2132V378.555H0V327.84Z" fill="#F7BD3B"/>
</g>
</g>
</g>
</g>
</g>
<path d="M35.9611 359.641C35.0001 359.641 34.1337 359.397 33.3619 358.909C32.587 358.415 31.9738 357.698 31.5193 356.761C31.0617 355.828 30.8359 354.723 30.8359 353.454C30.8359 352.185 31.0617 351.084 31.5193 350.147C31.9738 349.214 32.587 348.5 33.3619 348.012C34.1337 347.518 35.0001 347.268 35.9611 347.268C36.919 347.268 37.7854 347.518 38.5603 348.012C39.3321 348.5 39.9423 349.214 40.3907 350.147C40.8361 351.084 41.0619 352.185 41.0619 353.454C41.0619 354.723 40.8361 355.828 40.3907 356.761C39.9423 357.698 39.3321 358.415 38.5603 358.909C37.7854 359.397 36.919 359.641 35.9611 359.641ZM35.9611 356.981C36.3821 356.981 36.7726 356.853 37.1326 356.591C37.4987 356.322 37.7854 355.929 37.999 355.407C38.2095 354.879 38.3162 354.229 38.3162 353.454C38.3162 352.692 38.2095 352.045 37.999 351.514C37.7854 350.986 37.4987 350.593 37.1326 350.33C36.7726 350.071 36.3821 349.94 35.9611 349.94C35.5371 349.94 35.1435 350.071 34.7774 350.33C34.4175 350.593 34.1307 350.986 33.911 351.514C33.6975 352.045 33.5938 352.692 33.5938 353.454C33.5938 354.229 33.6975 354.879 33.911 355.407C34.1307 355.929 34.4175 356.322 34.7774 356.591C35.1435 356.853 35.5371 356.981 35.9611 356.981Z" fill="#212121"/>
<path d="M46.9574 359.641C46.0056 359.641 45.2033 359.464 44.5535 359.104C43.9098 358.738 43.4217 358.275 43.0892 357.713C42.7627 357.152 42.5705 356.56 42.5156 355.932H45.2735C45.3284 356.209 45.4992 356.465 45.786 356.7C46.0697 356.929 46.4602 357.042 46.9574 357.042C47.4608 357.042 47.8635 356.902 48.1655 356.615C48.4645 356.322 48.617 355.944 48.617 355.48C48.617 355.026 48.4645 354.65 48.1655 354.357C47.8635 354.058 47.4608 353.906 46.9574 353.906C46.5669 353.906 46.2436 353.976 45.9934 354.113C45.7402 354.254 45.5572 354.406 45.4443 354.577H42.6865L43.382 347.438H50.6793V350.001H45.786L45.5785 351.807H45.6639C46.1032 351.587 46.631 351.478 47.2503 351.478C48.0374 351.478 48.7421 351.655 49.3614 352.002C49.9868 352.353 50.4749 352.832 50.8257 353.442C51.1827 354.046 51.3626 354.724 51.3626 355.48C51.3626 356.285 51.1796 357.005 50.8135 357.64C50.4474 358.268 49.9288 358.76 49.2638 359.117C48.5957 359.467 47.8269 359.641 46.9574 359.641Z" fill="#212121"/>
<path d="M84.5388 435.318H84.5418C84.6577 435.318 84.7676 435.34 84.8774 435.385C84.9842 435.431 85.0787 435.492 85.1611 435.575C85.2435 435.657 85.3075 435.755 85.3533 435.861C85.396 435.968 85.4204 436.081 85.4204 436.197C85.4204 436.313 85.396 436.426 85.3533 436.533C85.3075 436.642 85.2435 436.737 85.1611 436.819C85.0787 436.902 84.9842 436.966 84.8774 437.008C84.7676 437.054 84.6577 437.076 84.5418 437.076H84.5388C84.4228 437.076 84.313 437.054 84.2032 437.008C84.0964 436.966 84.0018 436.902 83.9195 436.819C83.8371 436.737 83.773 436.642 83.7273 436.533C83.6846 436.426 83.6602 436.313 83.6602 436.197C83.6602 436.081 83.6846 435.968 83.7273 435.861C83.773 435.755 83.8371 435.657 83.9195 435.575C84.0018 435.492 84.0964 435.431 84.2032 435.385C84.313 435.34 84.4228 435.318 84.5388 435.318ZM88.0562 435.318C88.1721 435.318 88.285 435.34 88.3918 435.385C88.4986 435.431 88.5931 435.492 88.6755 435.575C88.7579 435.657 88.8219 435.755 88.8677 435.861C88.9104 435.968 88.9348 436.081 88.9348 436.197C88.9348 436.313 88.9104 436.426 88.8677 436.533C88.8219 436.642 88.7579 436.737 88.6755 436.819C88.5931 436.902 88.4986 436.966 88.3918 437.008C88.285 437.054 88.1721 437.076 88.0562 437.076C87.9372 437.076 87.8274 437.054 87.7176 437.008C87.6108 436.966 87.5162 436.902 87.4339 436.819C87.3515 436.737 87.2874 436.642 87.2417 436.533C87.199 436.426 87.1776 436.313 87.1776 436.197C87.1776 436.081 87.199 435.968 87.2417 435.861C87.2874 435.755 87.3515 435.657 87.4339 435.575C87.5162 435.492 87.6108 435.431 87.7176 435.385C87.8274 435.34 87.9372 435.318 88.0562 435.318ZM91.5706 435.318C91.6865 435.318 91.7994 435.34 91.9062 435.385C92.013 435.431 92.1075 435.492 92.1899 435.575C92.2723 435.657 92.3363 435.755 92.3821 435.861C92.4248 435.968 92.4492 436.081 92.4492 436.197C92.4492 436.313 92.4248 436.426 92.3821 436.533C92.3363 436.642 92.2723 436.737 92.1899 436.819C92.1075 436.902 92.013 436.966 91.9062 437.008C91.7994 437.054 91.6865 437.076 91.5706 437.076C91.4516 437.076 91.3418 437.054 91.232 437.008C91.1252 436.966 91.0306 436.902 90.9483 436.819C90.8659 436.737 90.8018 436.642 90.7591 436.533C90.7134 436.426 90.692 436.313 90.692 436.197C90.692 436.081 90.7134 435.968 90.7591 435.861C90.8018 435.755 90.8659 435.657 90.9483 435.575C91.0306 435.492 91.1252 435.431 91.232 435.385C91.3418 435.34 91.4516 435.318 91.5706 435.318ZM95.085 435.318C95.2009 435.318 95.3138 435.34 95.4206 435.385C95.5274 435.431 95.6219 435.492 95.7043 435.575C95.7867 435.657 95.8507 435.755 95.8965 435.861C95.9392 435.968 95.9636 436.081 95.9636 436.197C95.9636 436.313 95.9392 436.426 95.8965 436.533C95.8507 436.642 95.7867 436.737 95.7043 436.819C95.6219 436.902 95.5274 436.966 95.4206 437.008C95.3138 437.054 95.2009 437.076 95.085 437.076C94.966 437.076 94.8562 437.054 94.7464 437.008C94.6396 436.966 94.545 436.902 94.4627 436.819C94.3803 436.737 94.3162 436.642 94.2735 436.533C94.2278 436.426 94.2064 436.313 94.2064 436.197C94.2064 436.081 94.2278 435.968 94.2735 435.861C94.3162 435.755 94.3803 435.657 94.4627 435.575C94.545 435.492 94.6396 435.431 94.7464 435.385C94.8562 435.34 94.966 435.318 95.085 435.318ZM98.5994 435.318C98.7153 435.318 98.8282 435.34 98.935 435.385C99.0418 435.431 99.1363 435.492 99.2187 435.575C99.3011 435.657 99.3651 435.755 99.4109 435.861C99.4536 435.968 99.478 436.081 99.478 436.197C99.478 436.313 99.4536 436.426 99.4109 436.533C99.3651 436.642 99.3011 436.737 99.2187 436.819C99.1363 436.902 99.0418 436.966 98.935 437.008C98.8282 437.054 98.7153 437.076 98.5994 437.076C98.4835 437.076 98.3706 437.054 98.2638 437.008C98.154 436.966 98.0594 436.902 97.9771 436.819C97.8947 436.737 97.8306 436.642 97.7879 436.533C97.7422 436.426 97.7208 436.313 97.7208 436.197C97.7208 436.081 97.7422 435.968 97.7879 435.861C97.8306 435.755 97.8947 435.657 97.9771 435.575C98.0594 435.492 98.154 435.431 98.2638 435.385C98.3706 435.34 98.4835 435.318 98.5994 435.318ZM102.114 435.318C102.23 435.318 102.343 435.34 102.449 435.385C102.556 435.431 102.651 435.492 102.733 435.575C102.815 435.657 102.88 435.755 102.925 435.861C102.971 435.968 102.992 436.081 102.992 436.197C102.992 436.313 102.971 436.426 102.925 436.533C102.88 436.642 102.815 436.737 102.733 436.819C102.651 436.902 102.556 436.966 102.449 437.008C102.343 437.054 102.23 437.076 102.114 437.076C101.998 437.076 101.885 437.054 101.778 437.008C101.668 436.966 101.574 436.902 101.491 436.819C101.409 436.737 101.345 436.642 101.302 436.533C101.257 436.426 101.235 436.313 101.235 436.197C101.235 436.081 101.257 435.968 101.302 435.861C101.345 435.755 101.409 435.657 101.491 435.575C101.574 435.492 101.668 435.431 101.778 435.385C101.885 435.34 101.998 435.318 102.114 435.318ZM105.628 435.318C105.744 435.318 105.857 435.34 105.964 435.385C106.071 435.431 106.168 435.492 106.251 435.575C106.333 435.657 106.394 435.755 106.44 435.861C106.485 435.968 106.507 436.081 106.507 436.197C106.507 436.313 106.485 436.426 106.44 436.533C106.394 436.642 106.333 436.737 106.251 436.819C106.168 436.902 106.071 436.966 105.964 437.008C105.857 437.054 105.744 437.076 105.628 437.076C105.512 437.076 105.399 437.054 105.293 437.008C105.183 436.966 105.088 436.902 105.006 436.819C104.924 436.737 104.859 436.642 104.817 436.533C104.771 436.426 104.75 436.313 104.75 436.197C104.75 436.081 104.771 435.968 104.817 435.861C104.859 435.755 104.924 435.657 105.006 435.575C105.088 435.492 105.183 435.431 105.293 435.385C105.399 435.34 105.512 435.318 105.628 435.318ZM109.143 435.318C109.259 435.318 109.371 435.34 109.478 435.385C109.585 435.431 109.683 435.492 109.765 435.575C109.847 435.657 109.908 435.755 109.954 435.861C110 435.968 110.021 436.081 110.021 436.197C110.021 436.313 110 436.426 109.954 436.533C109.908 436.642 109.847 436.737 109.765 436.819C109.683 436.902 109.585 436.966 109.478 437.008C109.371 437.054 109.259 437.076 109.143 437.076C109.027 437.076 108.914 437.054 108.807 437.008C108.697 436.966 108.603 436.902 108.52 436.819C108.438 436.737 108.374 436.642 108.331 436.533C108.285 436.426 108.264 436.313 108.264 436.197C108.264 436.081 108.285 435.968 108.331 435.861C108.374 435.755 108.438 435.657 108.52 435.575C108.603 435.492 108.697 435.431 108.807 435.385C108.914 435.34 109.027 435.318 109.143 435.318ZM112.657 435.318C112.773 435.318 112.886 435.34 112.993 435.385C113.102 435.431 113.197 435.492 113.279 435.575C113.362 435.657 113.423 435.755 113.469 435.861C113.514 435.968 113.536 436.081 113.536 436.197C113.536 436.313 113.514 436.426 113.469 436.533C113.423 436.642 113.362 436.737 113.279 436.819C113.197 436.902 113.102 436.966 112.993 437.008C112.886 437.054 112.773 437.076 112.657 437.076C112.541 437.076 112.428 437.054 112.321 437.008C112.212 436.966 112.117 436.902 112.035 436.819C111.952 436.737 111.888 436.642 111.846 436.533C111.8 436.426 111.778 436.313 111.778 436.197C111.778 436.081 111.8 435.968 111.846 435.861C111.888 435.755 111.952 435.657 112.035 435.575C112.117 435.492 112.212 435.431 112.321 435.385C112.428 435.34 112.541 435.318 112.657 435.318ZM116.171 435.318C116.287 435.318 116.4 435.34 116.507 435.385C116.617 435.431 116.711 435.492 116.794 435.575C116.876 435.657 116.94 435.755 116.983 435.861C117.029 435.968 117.05 436.081 117.05 436.197C117.05 436.313 117.029 436.426 116.983 436.533C116.94 436.642 116.876 436.737 116.794 436.819C116.711 436.902 116.617 436.966 116.507 437.008C116.4 437.054 116.287 437.076 116.171 437.076C116.056 437.076 115.943 437.054 115.836 437.008C115.729 436.966 115.631 436.902 115.549 436.819C115.467 436.737 115.406 436.642 115.36 436.533C115.314 436.426 115.293 436.313 115.293 436.197C115.293 436.081 115.314 435.968 115.36 435.861C115.406 435.755 115.467 435.657 115.549 435.575C115.631 435.492 115.729 435.431 115.836 435.385C115.943 435.34 116.056 435.318 116.171 435.318ZM119.686 435.318C119.802 435.318 119.915 435.34 120.021 435.385C120.131 435.431 120.226 435.492 120.308 435.575C120.391 435.657 120.455 435.755 120.497 435.861C120.543 435.968 120.564 436.081 120.564 436.197C120.564 436.313 120.543 436.426 120.497 436.533C120.455 436.642 120.391 436.737 120.308 436.819C120.226 436.902 120.131 436.966 120.021 437.008C119.915 437.054 119.802 437.076 119.686 437.076C119.57 437.076 119.457 437.054 119.35 437.008C119.243 436.966 119.146 436.902 119.063 436.819C118.981 436.737 118.92 436.642 118.874 436.533C118.829 436.426 118.807 436.313 118.807 436.197C118.807 436.081 118.829 435.968 118.874 435.861C118.92 435.755 118.981 435.657 119.063 435.575C119.146 435.492 119.243 435.431 119.35 435.385C119.457 435.34 119.57 435.318 119.686 435.318ZM123.2 435.318C123.316 435.318 123.429 435.34 123.536 435.385C123.646 435.431 123.74 435.492 123.823 435.575C123.905 435.657 123.969 435.755 124.012 435.861C124.057 435.968 124.079 436.081 124.079 436.197C124.079 436.313 124.057 436.426 124.012 436.533C123.969 436.642 123.905 436.737 123.823 436.819C123.74 436.902 123.646 436.966 123.536 437.008C123.429 437.054 123.316 437.076 123.2 437.076C123.084 437.076 122.971 437.054 122.865 437.008C122.758 436.966 122.66 436.902 122.578 436.819C122.496 436.737 122.435 436.642 122.389 436.533C122.343 436.426 122.322 436.313 122.322 436.197C122.322 436.081 122.343 435.968 122.389 435.861C122.435 435.755 122.496 435.657 122.578 435.575C122.66 435.492 122.758 435.431 122.865 435.385C122.971 435.34 123.084 435.318 123.2 435.318ZM126.715 435.318C126.831 435.318 126.943 435.34 127.05 435.385C127.16 435.431 127.255 435.492 127.337 435.575C127.419 435.657 127.483 435.755 127.526 435.861C127.572 435.968 127.593 436.081 127.593 436.197C127.593 436.313 127.572 436.426 127.526 436.533C127.483 436.642 127.419 436.737 127.337 436.819C127.255 436.902 127.16 436.966 127.05 437.008C126.943 437.054 126.831 437.076 126.715 437.076C126.599 437.076 126.486 437.054 126.379 437.008C126.272 436.966 126.178 436.902 126.095 436.819C126.013 436.737 125.949 436.642 125.903 436.533C125.857 436.426 125.836 436.313 125.836 436.197C125.836 436.081 125.857 435.968 125.903 435.861C125.949 435.755 126.013 435.657 126.095 435.575C126.178 435.492 126.272 435.431 126.379 435.385C126.486 435.34 126.599 435.318 126.715 435.318ZM130.229 435.318C130.345 435.318 130.458 435.34 130.568 435.385C130.674 435.431 130.769 435.492 130.851 435.575C130.934 435.657 130.998 435.755 131.041 435.861C131.086 435.968 131.108 436.081 131.108 436.197C131.108 436.313 131.086 436.426 131.041 436.533C130.998 436.642 130.934 436.737 130.851 436.819C130.769 436.902 130.674 436.966 130.568 437.008C130.458 437.054 130.345 437.076 130.229 437.076C130.113 437.076 130 437.054 129.893 437.008C129.787 436.966 129.692 436.902 129.61 436.819C129.527 436.737 129.463 436.642 129.418 436.533C129.375 436.426 129.35 436.313 129.35 436.197C129.35 436.081 129.375 435.968 129.418 435.861C129.463 435.755 129.527 435.657 129.61 435.575C129.692 435.492 129.787 435.431 129.893 435.385C130 435.34 130.113 435.318 130.229 435.318ZM133.743 435.318C133.862 435.318 133.972 435.34 134.082 435.385C134.189 435.431 134.283 435.492 134.366 435.575C134.448 435.657 134.512 435.755 134.555 435.861C134.601 435.968 134.622 436.081 134.622 436.197C134.622 436.313 134.601 436.426 134.555 436.533C134.512 436.642 134.448 436.737 134.366 436.819C134.283 436.902 134.189 436.966 134.082 437.008C133.972 437.054 133.862 437.076 133.743 437.076C133.628 437.076 133.515 437.054 133.408 437.008C133.301 436.966 133.207 436.902 133.124 436.819C133.042 436.737 132.978 436.642 132.932 436.533C132.889 436.426 132.865 436.313 132.865 436.197C132.865 436.081 132.889 435.968 132.932 435.861C132.978 435.755 133.042 435.657 133.124 435.575C133.207 435.492 133.301 435.431 133.408 435.385C133.515 435.34 133.628 435.318 133.743 435.318Z" fill="#F5A64E"/>
<path d="M136.633 433.562L140.147 436.197L136.633 438.833V433.562Z" fill="#F5A64E" stroke="#F5A64E" stroke-width="1.7572" stroke-linecap="round" stroke-linejoin="round"/>
<mask id="mask25_6291_27445" style="mask-type:luminance" maskUnits="userSpaceOnUse" x="0" y="410" width="83" height="52">
<path d="M0 410.84H82.2132V461.555H0V410.84Z" fill="white"/>
</mask>
<g mask="url(#mask25_6291_27445)">
<mask id="mask26_6291_27445" style="mask-type:luminance" maskUnits="userSpaceOnUse" x="0" y="410" width="83" height="52">
<path d="M41.0776 410.84L82.1553 436.197L41.0776 461.555L0 436.197L41.0776 410.84Z" fill="white"/>
</mask>
<g mask="url(#mask26_6291_27445)">
<mask id="mask27_6291_27445" style="mask-type:luminance" maskUnits="userSpaceOnUse" x="-1" y="410" width="84" height="53">
<path d="M82.8498 410.511H-0.714844V462.055H82.8498V410.511Z" fill="white"/>
</mask>
<g mask="url(#mask27_6291_27445)">
<mask id="mask28_6291_27445" style="mask-type:luminance" maskUnits="userSpaceOnUse" x="0" y="410" width="83" height="52">
<path d="M0 410.84H82.2132V461.555H0V410.84Z" fill="white"/>
</mask>
<g mask="url(#mask28_6291_27445)">
<mask id="mask29_6291_27445" style="mask-type:luminance" maskUnits="userSpaceOnUse" x="0" y="410" width="83" height="52">
<path d="M41.0776 410.84L82.1553 436.197L41.0776 461.555L0 436.197L41.0776 410.84Z" fill="white"/>
</mask>
<g mask="url(#mask29_6291_27445)">
<path d="M0 410.84H82.2132V461.555H0V410.84Z" fill="#F7BD3B"/>
</g>
</g>
</g>
</g>
<path d="M46.6474 442.888C45.786 442.888 45.0097 442.707 44.3184 442.344C43.6384 441.97 43.0944 441.466 42.6864 440.831C42.2897 440.185 42.0914 439.466 42.0914 438.672C42.0914 437.686 42.4314 436.695 43.1114 435.697L46.5624 430.648H49.9624L46.0354 436.071L44.9134 435.969C45.0834 435.697 45.2534 435.465 45.4234 435.272C45.6047 435.068 45.8257 434.91 46.0864 434.796C46.347 434.683 46.6927 434.626 47.1234 434.626C47.8827 434.626 48.5684 434.808 49.1804 435.17C49.8037 435.522 50.2967 436.003 50.6594 436.615C51.0334 437.216 51.2204 437.896 51.2204 438.655C51.2204 439.46 51.0164 440.18 50.6084 440.814C50.2117 441.449 49.6677 441.953 48.9764 442.327C48.2964 442.701 47.52 442.888 46.6474 442.888ZM46.6474 440.321C46.976 440.321 47.265 440.248 47.5144 440.1C47.7637 439.953 47.9564 439.749 48.0924 439.488C48.2397 439.216 48.3134 438.916 48.3134 438.587C48.3134 438.259 48.2397 437.964 48.0924 437.703C47.9564 437.431 47.7637 437.222 47.5144 437.074C47.265 436.927 46.976 436.853 46.6474 436.853C46.33 436.853 46.0467 436.933 45.7974 437.091C45.548 437.239 45.3497 437.443 45.2024 437.703C45.0664 437.964 44.9984 438.259 44.9984 438.587C44.9984 438.916 45.0664 439.216 45.2024 439.488C45.3497 439.749 45.548 439.953 45.7974 440.1C46.0467 440.248 46.33 440.321 46.6474 440.321Z" fill="#212121"/>
</g>
<path d="M35.9611 442.641C35.0001 442.641 34.1337 442.397 33.3619 441.909C32.587 441.415 31.9738 440.698 31.5193 439.761C31.0617 438.828 30.8359 437.723 30.8359 436.454C30.8359 435.185 31.0617 434.084 31.5193 433.147C31.9738 432.214 32.587 431.5 33.3619 431.012C34.1337 430.518 35.0001 430.268 35.9611 430.268C36.919 430.268 37.7854 430.518 38.5603 431.012C39.3321 431.5 39.9423 432.214 40.3907 433.147C40.8361 434.084 41.0619 435.185 41.0619 436.454C41.0619 437.723 40.8361 438.828 40.3907 439.761C39.9423 440.698 39.3321 441.415 38.5603 441.909C37.7854 442.397 36.919 442.641 35.9611 442.641ZM35.9611 439.981C36.3821 439.981 36.7726 439.853 37.1326 439.591C37.4987 439.322 37.7854 438.929 37.999 438.407C38.2095 437.879 38.3162 437.229 38.3162 436.454C38.3162 435.692 38.2095 435.045 37.999 434.514C37.7854 433.986 37.4987 433.593 37.1326 433.33C36.7726 433.071 36.3821 432.94 35.9611 432.94C35.5371 432.94 35.1435 433.071 34.7774 433.33C34.4175 433.593 34.1307 433.986 33.911 434.514C33.6975 435.045 33.5938 435.692 33.5938 436.454C33.5938 437.229 33.6975 437.879 33.911 438.407C34.1307 438.929 34.4175 439.322 34.7774 439.591C35.1435 439.853 35.5371 439.981 35.9611 439.981Z" fill="#212121"/>
</svg>
