<svg width="62" height="70" viewBox="0 0 62 70" fill="none" xmlns="http://www.w3.org/2000/svg">
<rect x="16" y="15.9087" width="42" height="53" rx="2" fill="white"/>
<path d="M7.80317 22.5089H38.9614C39.4316 22.5089 39.8122 22.8895 39.8122 23.3597C39.8122 23.8299 39.4316 24.2105 38.9614 24.2105L7.80317 24.2142C7.33299 24.2142 6.95238 23.8336 6.95238 23.3634C6.94865 22.8895 7.333 22.5089 7.80317 22.5089ZM38.9614 40.7079H7.80317C7.33299 40.7079 6.95238 41.0885 6.95238 41.5587C6.95238 42.0289 7.333 42.4095 7.80317 42.4095H38.9614C39.4316 42.4095 39.8122 42.0288 39.8122 41.5587C39.8122 41.0922 39.4316 40.7079 38.9614 40.7079ZM7.37425 18.5426C6.90407 18.5426 6.52346 18.162 6.52346 17.6918V10.0048C6.52346 9.53464 6.90408 9.15402 7.37425 9.15402L21.4646 9.15029C21.9347 9.15029 22.3154 9.53091 22.3154 10.0011V17.6881C22.3154 18.1583 21.9347 18.5389 21.4646 18.5389L7.37425 18.5426ZM8.22503 16.8411H20.614V10.8557H8.22503V16.8411ZM19.0091 12.9939H9.82579C9.35561 12.9939 8.97499 13.3745 8.97499 13.8447C8.97499 14.3149 9.35561 14.6955 9.82579 14.6955H19.0091C19.4793 14.6955 19.8599 14.3149 19.8599 13.8447C19.8637 13.3782 19.483 12.9939 19.0091 12.9939ZM8.93767 39.0213C8.46749 39.0213 8.08688 38.6407 8.08688 38.1705V26.8114C8.08688 26.3412 8.4675 25.9606 8.93767 25.9606H38.2713C38.7415 25.9606 39.1221 26.3412 39.1221 26.8114V38.1667C39.1221 38.6369 38.7415 39.0175 38.2713 39.0175L8.93767 39.0213ZM9.78846 37.316H27.1697L27.0913 33.3418H9.78843L9.78846 37.316ZM37.4208 37.316V33.3418H28.8009L28.8793 37.316H37.4208ZM37.4208 27.6658H28.6852L28.7636 31.6399H37.4171L37.4208 27.6658ZM9.78846 27.6658V31.6399H27.0618L26.9834 27.6658H9.78846ZM62 55.5885C62 63.4322 55.16 69.8173 46.7528 69.8173C39.2823 69.8173 33.0618 64.7723 31.7665 58.141L0.850901 58.1372C0.623278 58.1372 0.40685 58.0477 0.246392 57.8835C0.0859349 57.7231 -0.00362279 57.5029 0.000112337 57.2753L0.544916 0.843326C0.548647 0.376884 0.929263 0 1.3957 0H34.1511C34.2593 0 34.3675 0.0223899 34.4682 0.0634372C34.513 0.0820947 34.5466 0.111947 34.5839 0.138067C34.6324 0.16792 34.6847 0.190309 34.7257 0.227624L46.4947 11.1913C46.4984 11.1951 46.4984 11.1988 46.5022 11.2025C46.5805 11.2771 46.644 11.3667 46.6887 11.4675C46.6925 11.4712 46.6925 11.4749 46.6962 11.4786C46.741 11.5794 46.7634 11.6913 46.7634 11.8108V11.8257L46.476 41.3724C46.5693 41.3686 46.6589 41.3612 46.7485 41.3612C55.1594 41.3612 61.9994 47.7421 61.9994 55.59L62 55.5885ZM43.7638 10.9743L35.0095 2.81707L35.0469 11.0115L43.7638 10.9743ZM31.5544 56.4358C31.5358 56.1522 31.5096 55.8724 31.5096 55.5888C31.5096 52.8349 32.3679 50.2676 33.8269 48.0883L7.80332 48.0846C7.33315 48.0846 6.95254 47.704 6.95254 47.2338C6.95254 46.7636 7.33316 46.383 7.80332 46.383H35.1519C37.5475 43.7597 40.9395 41.9611 44.7792 41.4947L45.059 12.6721L34.2042 12.7206H34.2005C33.7303 12.7206 33.3535 12.34 33.3497 11.8736L33.3049 1.70846L2.23939 1.70473L1.7095 56.4353L31.5544 56.4358ZM60.2948 55.5888C60.2948 48.6816 54.2199 43.0622 46.7528 43.0622C39.286 43.0622 33.2109 48.6819 33.2109 55.5888C33.2109 62.4959 39.2858 68.1153 46.7528 68.1153C54.2197 68.1116 60.2948 62.4919 60.2948 55.5888Z" fill="black"/>
<path d="M51.228 52.9113L50.7933 54.3942H42.5092L42.9439 52.9113H51.228ZM47.3416 62.9084L42.6626 57.1812L42.6371 56.1073H44.9638C45.5689 56.1073 46.0845 56.0221 46.5106 55.8516C46.9368 55.6769 47.2628 55.417 47.4886 55.0718C47.7145 54.7224 47.8274 54.2834 47.8274 53.755C47.8274 52.9752 47.593 52.3637 47.1243 51.9205C46.6555 51.4731 45.9354 51.2494 44.9638 51.2494H42.5092L42.9439 49.8175H44.9638C46.0035 49.8175 46.8558 49.9901 47.5206 50.3353C48.1896 50.6762 48.6839 51.145 49.0035 51.7415C49.3274 52.3339 49.4893 53.005 49.4893 53.755C49.4893 54.4326 49.3402 55.0569 49.0419 55.6279C48.7479 56.1947 48.2749 56.6506 47.6229 56.9958C46.9751 57.341 46.1186 57.5136 45.0533 57.5136H45.0149L49.3359 62.8062V62.9084H47.3416ZM51.228 49.8175L50.7933 51.3005L44.2734 51.2494L44.7081 49.8175H51.228Z" fill="black"/>
</svg>
