<svg width="65" height="72" viewBox="0 0 65 72" fill="none" xmlns="http://www.w3.org/2000/svg">
<rect x="20.7422" y="15.135" width="44" height="56" rx="2" fill="white"/>
<path d="M1.07911 0.00541165C0.973488 0.00541165 0.867861 0.0225401 0.765084 0.0539431C0.739391 0.0653624 0.713698 0.073927 0.690861 0.0882008C0.616638 0.113894 0.545265 0.151007 0.479607 0.193828C0.451059 0.213811 0.425366 0.233795 0.399669 0.256634C0.345428 0.302311 0.2969 0.350845 0.251223 0.40508C0.22553 0.433628 0.202691 0.465031 0.179853 0.496434C0.145595 0.55353 0.114192 0.613483 0.0884993 0.673433C0.0742254 0.710546 0.0570961 0.744804 0.0456769 0.781918C0.0171292 0.878979 0 0.981756 0 1.08452V61.1924C0 65.3832 3.40866 68.7835 7.59917 68.7835H54.4008C58.5917 68.7835 61.9999 65.3806 61.9999 61.1924V30.746C62.0028 30.4605 61.8886 30.1864 61.6888 29.9837C61.4861 29.781 61.212 29.6668 60.9265 29.6668H48.9475V1.08482H48.9503C48.9503 1.05342 48.9475 1.02202 48.9446 0.990613C48.9446 0.962065 48.9389 0.930663 48.9361 0.89926C48.9332 0.890695 48.9332 0.882131 48.9304 0.876421C48.9275 0.850728 48.9218 0.82789 48.9132 0.805051C48.9075 0.773648 48.8961 0.745101 48.8875 0.716555C48.8818 0.699427 48.8761 0.685152 48.8704 0.670878C48.8676 0.665168 48.8647 0.659459 48.859 0.650894C48.8476 0.625201 48.8362 0.602363 48.8247 0.576671L48.8219 0.573816C48.8047 0.542414 48.7876 0.513865 48.7705 0.48532C48.7648 0.47961 48.7619 0.471046 48.7562 0.465336C48.702 0.388255 48.6392 0.31689 48.5649 0.256933C48.5421 0.236949 48.5164 0.21982 48.4936 0.199837C48.485 0.194127 48.4793 0.188417 48.4707 0.185562C48.465 0.179853 48.4593 0.176998 48.4536 0.171288C48.4308 0.157014 48.4051 0.142741 48.3822 0.128467C48.3651 0.119902 48.3451 0.111338 48.328 0.102773C48.3137 0.0970637 48.2994 0.0884991 48.2852 0.0827898C48.2709 0.0770799 48.2566 0.0713699 48.2395 0.0656607C48.2224 0.0599514 48.2052 0.0542415 48.1853 0.0456769C48.1824 0.0456769 48.1767 0.0428222 48.171 0.0428222C48.1424 0.0342576 48.1139 0.0285484 48.0825 0.0228384C48.0768 0.0199838 48.0682 0.0199838 48.0597 0.0171292H48.0397C48.0168 0.0114192 47.9911 0.00570981 47.9654 0.00285446C47.934 -1.65775e-07 47.9026 0 47.8712 0L1.07911 0.00541165ZM2.14963 2.15507H46.8019V61.1893C46.8019 63.3219 47.6868 65.2489 49.1057 66.6306H7.59965C4.55925 66.6306 2.14985 64.2268 2.14985 61.1893L2.14963 2.15507ZM24.1176 8.73824C17.2661 8.73824 11.6848 14.2765 11.6848 21.0907C11.6848 27.9049 17.2659 33.4432 24.1176 33.4432C30.9694 33.4432 36.5564 27.9049 36.5564 21.0907C36.5564 14.2765 30.9695 8.73824 24.1176 8.73824ZM24.1176 10.8908C29.8159 10.8908 34.4063 15.447 34.4063 21.0909C34.4063 26.7349 29.8158 31.2941 24.1176 31.2941C18.4195 31.2941 13.8349 26.7349 13.8349 21.0909C13.8349 15.447 18.4197 10.8908 24.1176 10.8908ZM48.9542 31.8162H59.8538V61.1919C59.8538 64.2265 57.4443 66.6331 54.404 66.6331C51.3636 66.6331 48.9542 64.2293 48.9542 61.1919V31.8162ZM11.4304 39.0816C11.1421 39.0816 10.868 39.193 10.6653 39.3957C10.4626 39.5984 10.3485 39.8753 10.3513 40.1608C10.3513 40.4463 10.4655 40.7175 10.6682 40.9202C10.8709 41.12 11.1449 41.2314 11.4304 41.2314H15.096H15.0931C15.6841 41.2285 16.1637 40.7517 16.1637 40.1608C16.1665 39.8754 16.0523 39.6013 15.8525 39.3986C15.6526 39.1959 15.3786 39.0817 15.0931 39.0817L11.4304 39.0816ZM19.4893 39.0816C19.201 39.0816 18.9269 39.193 18.7242 39.3957C18.5215 39.5984 18.4102 39.8753 18.4102 40.1608C18.4102 40.4463 18.5244 40.7175 18.727 40.9202C18.9297 41.12 19.2038 41.2314 19.4893 41.2314H37.5291C38.12 41.2285 38.5968 40.7517 38.5996 40.1608C38.5996 39.8754 38.4883 39.6013 38.2885 39.3986C38.0858 39.1959 37.8146 39.0817 37.529 39.0817L19.4893 39.0816ZM11.4304 46.9834C11.145 46.9834 10.8709 47.0947 10.6682 47.2945C10.4655 47.4972 10.3513 47.7684 10.3513 48.054C10.3485 48.3394 10.4626 48.6163 10.6653 48.8191C10.868 49.0217 11.1421 49.1331 11.4304 49.1331H15.096H15.0931C15.3786 49.1331 15.6527 49.0189 15.8525 48.8162C16.0524 48.6135 16.1666 48.3395 16.1637 48.054C16.1637 47.463 15.6841 46.9863 15.0932 46.9834L11.4304 46.9834ZM19.4893 46.9834C19.2038 46.9834 18.9298 47.0947 18.727 47.2945C18.5244 47.4972 18.4102 47.7684 18.4102 48.054C18.4102 48.3394 18.5215 48.6163 18.7242 48.8191C18.9269 49.0217 19.2009 49.1331 19.4893 49.1331H37.5291C37.8146 49.1331 38.0858 49.0189 38.2885 48.8162C38.4883 48.6135 38.5997 48.3395 38.5997 48.054C38.5968 47.463 38.1201 46.9863 37.5292 46.9834L19.4893 46.9834ZM11.4304 54.8741C11.1421 54.8741 10.868 54.9883 10.6653 55.191C10.4626 55.3937 10.3485 55.6678 10.3513 55.9533C10.3513 56.2388 10.4655 56.5128 10.6682 56.7127C10.8709 56.9125 11.1449 57.0267 11.4304 57.0239H15.096H15.0931C15.6841 57.021 16.1637 56.5442 16.1637 55.9533C16.1665 55.6679 16.0523 55.3938 15.8525 55.1939C15.6526 54.9912 15.3786 54.8771 15.0931 54.8742L11.4304 54.8741ZM19.4893 54.8741C19.201 54.8741 18.9269 54.9883 18.7242 55.191C18.5215 55.3937 18.4102 55.6678 18.4102 55.9533C18.4102 56.2388 18.5244 56.5128 18.727 56.7127C18.9297 56.9125 19.2038 57.0267 19.4893 57.0239H37.5291C38.12 57.021 38.5968 56.5442 38.5996 55.9533C38.5996 55.6679 38.4883 55.3938 38.2885 55.1939C38.0858 54.9912 37.8146 54.8771 37.529 54.8742L19.4893 54.8741Z" fill="black"/>
<path d="M27.6922 19.0604L27.33 20.2962H20.4266L20.7888 19.0604H27.6922ZM24.4536 27.3914L20.5544 22.6186L20.5331 21.7237H22.472C22.9763 21.7237 23.406 21.6527 23.7611 21.5107C24.1162 21.3651 24.3879 21.1485 24.5761 20.8608C24.7643 20.5696 24.8584 20.2039 24.8584 19.7635C24.8584 19.1137 24.6631 18.6041 24.2724 18.2348C23.8818 17.8619 23.2817 17.6754 22.472 17.6754H20.4266L20.7888 16.4823H22.472C23.3385 16.4823 24.0487 16.6261 24.6027 16.9137C25.1602 17.1978 25.5722 17.5884 25.8385 18.0856C26.1084 18.5792 26.2433 19.1385 26.2433 19.7635C26.2433 20.3281 26.119 20.8484 25.8705 21.3242C25.6254 21.7965 25.2313 22.1765 24.6879 22.4642C24.1482 22.7518 23.4344 22.8956 22.5466 22.8956H22.5146L26.1155 27.3061V27.3914H24.4536ZM27.6922 16.4823L27.33 17.7181L21.8967 17.6754L22.2589 16.4823H27.6922Z" fill="black"/>
</svg>
