<svg width="62" height="57" viewBox="0 0 62 57" fill="none" xmlns="http://www.w3.org/2000/svg">
<circle cx="31" cy="28" r="28" fill="white"/>
<path fill-rule="evenodd" clip-rule="evenodd" d="M40.9694 15.7266H21.0293C20.4945 15.7266 20.0605 15.2927 20.0605 14.7579V3.96875C20.0605 3.43392 20.4945 3 21.0293 3H40.9694C41.5042 3 41.9382 3.43392 41.9382 3.96875V14.7562C41.9382 15.2927 41.5042 15.7266 40.9694 15.7266ZM21.998 13.7891H40.0007V4.9375H21.998V13.7891Z" fill="black"/>
<path fill-rule="evenodd" clip-rule="evenodd" d="M19.7725 31.9449H9.80078C9.26595 31.9449 8.83203 31.511 8.83203 30.9762V21.0061C8.83203 20.4713 9.26595 20.0374 9.80078 20.0374H19.7708C20.3057 20.0374 20.7396 20.4713 20.7396 21.0061V30.9762C20.7413 31.511 20.3073 31.9449 19.7725 31.9449ZM10.7712 30.0074H18.8038V21.9749H10.7712V30.0074Z" fill="black"/>
<path fill-rule="evenodd" clip-rule="evenodd" d="M52.1986 31.9449H42.2285C41.6937 31.9449 41.2598 31.511 41.2598 30.9762V21.0061C41.2598 20.4713 41.6937 20.0374 42.2285 20.0374H52.1986C52.7334 20.0374 53.1673 20.4713 53.1673 21.0061V30.9762C53.1656 31.511 52.7334 31.9449 52.1986 31.9449ZM43.1956 30.0074H51.2281V21.9749H43.1956V30.0074Z" fill="black"/>
<path fill-rule="evenodd" clip-rule="evenodd" d="M5.95378 53.0118C2.67079 53.0118 0 50.341 0 47.058C0 43.775 2.67079 41.1042 5.95378 41.1042C9.23676 41.1042 11.9076 43.775 11.9076 47.058C11.9076 50.341 9.23676 53.0118 5.95378 53.0118ZM5.95378 43.0401C3.73877 43.0401 1.9375 44.8413 1.9375 47.0563C1.9375 49.2714 3.73877 51.0726 5.95378 51.0726C8.16878 51.0726 9.97005 49.2714 9.97005 47.0563C9.97005 44.843 8.16878 43.0401 5.95378 43.0401Z" fill="black"/>
<path fill-rule="evenodd" clip-rule="evenodd" d="M39.3483 53.0118C36.0653 53.0118 33.3945 50.341 33.3945 47.058C33.3945 43.775 36.0653 41.1042 39.3483 41.1042C42.6313 41.1042 45.3021 43.775 45.3021 47.058C45.3021 50.341 42.6313 53.0118 39.3483 53.0118ZM39.3483 43.0401C37.1333 43.0401 35.332 44.8413 35.332 47.0563C35.332 49.2714 37.1333 51.0726 39.3483 51.0726C41.5633 51.0726 43.3646 49.2714 43.3646 47.0563C43.3646 44.843 41.5633 43.0401 39.3483 43.0401Z" fill="black"/>
<path fill-rule="evenodd" clip-rule="evenodd" d="M22.651 53.0118C19.3681 53.0118 16.6973 50.341 16.6973 47.058C16.6973 43.775 19.3681 41.1042 22.651 41.1042C25.934 41.1042 28.6048 43.775 28.6048 47.058C28.6048 50.341 25.934 53.0118 22.651 53.0118ZM22.651 43.0401C20.436 43.0401 18.6348 44.8413 18.6348 47.0563C18.6348 49.2714 20.436 51.0726 22.651 51.0726C24.866 51.0726 26.6673 49.2714 26.6673 47.0563C26.6673 44.843 24.866 43.0401 22.651 43.0401Z" fill="black"/>
<path fill-rule="evenodd" clip-rule="evenodd" d="M56.0456 53.0118C52.7626 53.0118 50.0918 50.341 50.0918 47.058C50.0918 43.775 52.7626 41.1042 56.0456 41.1042C59.3286 41.1042 61.9993 43.775 61.9993 47.058C61.9993 50.341 59.3286 53.0118 56.0456 53.0118ZM56.0456 43.0401C53.8306 43.0401 52.0293 44.8413 52.0293 47.0563C52.0293 49.2714 53.8306 51.0726 56.0456 51.0726C58.2606 51.0726 60.0618 49.2714 60.0618 47.0563C60.0618 44.843 58.2606 43.0401 56.0456 43.0401Z" fill="black"/>
<path fill-rule="evenodd" clip-rule="evenodd" d="M42.08 26.9497H19.9316C19.3968 26.9497 18.9629 26.5158 18.9629 25.981C18.9629 25.4461 19.3968 25.0122 19.9316 25.0122H42.08C42.6149 25.0122 43.0488 25.4461 43.0488 25.981C43.0488 26.5158 42.6149 26.9497 42.08 26.9497Z" fill="black"/>
<path fill-rule="evenodd" clip-rule="evenodd" d="M31 26.8876C30.4652 26.8876 30.0312 26.4587 30.0312 25.9273V14.8102C30.0312 14.2804 30.4652 13.8499 31 13.8499C31.5348 13.8499 31.9688 14.2787 31.9688 14.8102V25.9273C31.9688 26.4571 31.5348 26.8876 31 26.8876Z" fill="black"/>
<path fill-rule="evenodd" clip-rule="evenodd" d="M22.6639 42.9679C22.1291 42.9679 21.6952 42.5339 21.6952 41.9991V37.9559H14.7676C14.2327 37.9559 13.7988 37.522 13.7988 36.9872V31.0906C13.7988 30.5557 14.2327 30.1218 14.7676 30.1218C15.3024 30.1218 15.7363 30.5557 15.7363 31.0906V36.0184H22.6639C23.1987 36.0184 23.6327 36.4523 23.6327 36.9872V41.9974C23.6327 42.5339 23.1987 42.9679 22.6639 42.9679Z" fill="black"/>
<path fill-rule="evenodd" clip-rule="evenodd" d="M5.95312 42.9358C5.41829 42.9358 4.98438 42.5019 4.98438 41.967V36.9871C4.98438 36.4522 5.41829 36.0183 5.95312 36.0183H14.7677C15.3026 36.0183 15.7365 36.4522 15.7365 36.9871C15.7365 37.5219 15.3026 37.9558 14.7677 37.9558H6.92187V41.967C6.92187 42.5019 6.48796 42.9358 5.95312 42.9358Z" fill="black"/>
<path fill-rule="evenodd" clip-rule="evenodd" d="M39.334 42.9256C38.7992 42.9256 38.3652 42.4917 38.3652 41.9569V36.8289C38.3652 36.2941 38.7992 35.8601 39.334 35.8601H46.2229V31.0332C46.2229 30.4984 46.6568 30.0645 47.1916 30.0645C47.7265 30.0645 48.1604 30.4984 48.1604 31.0332V36.8289C48.1604 37.3637 47.7265 37.7976 47.1916 37.7976H40.3027V41.9569C40.3027 42.4917 39.8688 42.9256 39.334 42.9256Z" fill="black"/>
<path fill-rule="evenodd" clip-rule="evenodd" d="M56.0467 42.9626C55.5118 42.9626 55.0779 42.5287 55.0779 41.9938V37.7976H47.1934C46.6585 37.7976 46.2246 37.3637 46.2246 36.8289C46.2246 36.294 46.6585 35.8601 47.1934 35.8601H56.0467C56.5815 35.8601 57.0154 36.294 57.0154 36.8289V41.9938C57.0154 42.5287 56.5815 42.9626 56.0467 42.9626Z" fill="black"/>
</svg>
