<svg width="83" height="83" viewBox="0 0 83 83" fill="none" xmlns="http://www.w3.org/2000/svg">
<circle cx="41.5" cy="41.5" r="41.5" fill="#FFBE2E"/>
<rect x="19.5293" y="19.5293" width="43.9412" height="43.9412" rx="2.75407" fill="white"/>
<path d="M26.1741 34.4537H55.835C57.6562 34.4537 59.3126 35.2032 60.5122 36.4036L60.5215 36.4129C61.7243 37.6164 62.4701 39.2708 62.4701 41.0931V60.1528C62.4701 61.9752 61.7212 63.6327 60.5215 64.8424L60.5122 64.8517C59.3095 66.0459 57.6562 66.7953 55.835 66.7953H46.645L41.9273 72.6138C41.5139 73.1238 40.765 73.2015 40.2552 72.7879C40.1838 72.7319 40.1185 72.6697 40.0719 72.5982L35.3604 66.7953H26.1704C24.3492 66.7953 22.6927 66.0458 21.4931 64.8455L21.4838 64.8361C20.2811 63.6327 19.5352 61.9783 19.5352 60.1559V41.0962C19.5352 39.2738 20.2842 37.6101 21.4838 36.4066L21.4931 36.3973C22.6958 35.1938 24.3586 34.4537 26.1704 34.4537L26.1741 34.4537ZM73.6708 43.8701H72.2318C71.573 43.8701 71.0384 43.3352 71.0384 42.6759V42.6604C70.6096 34.7553 67.0853 27.6306 61.6742 22.4965C56.2791 17.3685 48.9915 14.209 41.0045 14.209C33.0389 14.209 25.7361 17.3623 20.3283 22.5061C14.9114 27.6497 11.3874 34.7837 10.9705 42.7352C10.9394 43.3727 10.4142 43.8672 9.77707 43.8672L8.33814 43.8766C7.80359 43.8766 7.31882 44.0911 6.97066 44.4488C6.61947 44.8002 6.39882 45.2853 6.39882 45.8171V57.5287C6.39882 59.4163 7.16956 61.136 8.41893 62.3862L8.47488 62.4422C9.7149 63.6612 11.418 64.4076 13.2796 64.4076H14.6253L14.6408 44.3154C14.6501 37.054 17.6088 30.4551 22.3886 25.6689C27.1622 20.8923 33.757 17.9224 41.0041 17.9224C48.2609 17.9224 54.846 20.8923 59.6292 25.6689C64.4028 30.4549 67.3708 37.0541 67.3708 44.3154L67.3863 64.4076H68.732C70.6247 64.4076 72.3433 63.6364 73.5927 62.3862C74.842 61.1361 75.6128 59.4163 75.6128 57.5287V45.8171C75.6128 45.2822 75.389 44.7971 75.0409 44.4488L74.9943 44.3928C74.6525 44.0756 74.1832 43.8766 73.6735 43.8766L73.6708 43.8701ZM73.3351 41.4818H73.6708C74.8238 41.4818 75.8742 41.9358 76.6543 42.6853L76.7258 42.7475C77.512 43.5342 78 44.6196 78 45.8138V57.5253C78 60.0722 76.9589 62.3891 75.2775 64.0684C73.5993 65.7477 71.284 66.7926 68.7293 66.7926H66.1995C65.5407 66.7833 65.0061 66.2577 65.0061 65.5984L64.9906 44.312C64.9906 37.713 62.2868 31.7112 57.9327 27.3541C53.588 23.0066 47.5995 20.3073 41.0015 20.3073C34.4067 20.3073 28.4151 23.0066 24.0703 27.3541C19.7193 31.7079 17.0124 37.7131 17.0124 44.312L17.0031 65.5984C17.0031 66.2577 16.4624 66.7926 15.8097 66.7926H13.2706C10.7564 66.7926 8.46591 65.7819 6.79395 64.1338L6.72247 64.0716C5.04423 62.3923 4 60.0755 4 57.5285V45.8169C4 44.6228 4.48482 43.5405 5.27424 42.7506C6.0543 41.9701 7.13579 41.485 8.32919 41.485H8.66483C9.37342 33.3495 13.0966 26.0786 18.6815 20.7766C24.521 15.2286 32.4056 11.8203 40.9989 11.8203C49.6232 11.8203 57.483 15.2349 63.3163 20.767C68.9104 26.0848 72.6336 33.3678 73.333 41.4818H73.3351ZM41.0011 46.5134C42.1323 46.5134 43.1578 46.9737 43.8975 47.7169C44.6465 48.4726 45.1064 49.4988 45.1064 50.6214C45.1064 51.7534 44.6465 52.7796 43.9037 53.5198C43.1485 54.2692 42.1291 54.7294 41.0011 54.7294C39.8698 54.7294 38.8536 54.2692 38.1046 53.526C37.3556 52.7703 36.8957 51.7502 36.8957 50.6214C36.8957 49.4895 37.3556 48.4633 38.1046 47.7231C38.8536 46.9737 39.8792 46.5134 41.0011 46.5134ZM42.2193 49.4024C41.9085 49.0915 41.4796 48.9018 41.0011 48.9018C40.5224 48.9018 40.0936 49.0915 39.7921 49.4024C39.4751 49.7134 39.2825 50.1426 39.2825 50.6214C39.2825 51.1004 39.472 51.5295 39.7828 51.8311C40.0936 52.1483 40.5225 52.3411 41.001 52.3411C41.4796 52.3411 41.9085 52.1514 42.2193 51.8405C42.53 51.5295 42.7196 51.1003 42.7196 50.6215C42.7196 50.1425 42.5301 49.7134 42.2193 49.4024ZM52.5374 46.5134C53.6594 46.5134 54.6849 46.9737 55.4339 47.7169C56.1736 48.4664 56.6366 49.4926 56.6366 50.6214C56.6366 51.7534 56.1767 52.7796 55.4339 53.5198C54.6849 54.2692 53.6593 54.7294 52.5374 54.7294C51.4062 54.7294 50.3806 54.2692 49.641 53.526C48.892 52.7703 48.4321 51.7502 48.4321 50.6214C48.4321 49.4895 48.892 48.4633 49.6348 47.7231C50.3838 46.9737 51.4094 46.5134 52.5374 46.5134ZM53.7464 49.4024C53.4356 49.0915 53.0067 48.9018 52.5374 48.9018C52.0588 48.9018 51.63 49.0915 51.3192 49.4024C51.0085 49.7134 50.8189 50.1426 50.8189 50.6214C50.8189 51.1004 51.0084 51.5295 51.3192 51.8311C51.63 52.1483 52.0589 52.3411 52.5374 52.3411C53.0067 52.3411 53.4356 52.1421 53.7464 51.8405C54.0571 51.5295 54.2467 51.1003 54.2467 50.6215C54.2467 50.1425 54.0571 49.7134 53.7464 49.4024ZM29.4709 46.5134C30.5929 46.5134 31.6184 46.9737 32.3674 47.7169C33.1164 48.4726 33.5701 49.4988 33.5701 50.6214C33.5701 51.7534 33.1164 52.7796 32.3674 53.5198C31.6184 54.2692 30.5928 54.7294 29.4709 54.7294C28.3397 54.7294 27.3141 54.2692 26.5745 53.526C25.8255 52.7765 25.3656 51.7502 25.3656 50.6214C25.3656 49.4895 25.8255 48.4633 26.5683 47.7231C27.3173 46.9737 28.3429 46.5134 29.4709 46.5134ZM30.6799 49.4024C30.3784 49.0915 29.9402 48.9018 29.4709 48.9018C28.9923 48.9018 28.5635 49.0915 28.2527 49.4024C27.942 49.7134 27.7524 50.1426 27.7524 50.6214C27.7524 51.1004 27.9419 51.5295 28.2527 51.8404C28.5635 52.1421 28.9924 52.3411 29.4709 52.3411C29.9402 52.3411 30.3784 52.1514 30.6799 51.8404C30.9906 51.5295 31.1802 51.1003 31.1802 50.6214C31.1802 50.1425 30.9906 49.7134 30.6799 49.4024ZM55.8281 36.839H26.1672C24.9986 36.839 23.9389 37.3179 23.1682 38.0798C22.3974 38.8511 21.9188 39.9177 21.9188 41.0901V60.1498C21.9188 61.3191 22.3975 62.3857 23.1682 63.1507C23.9389 63.9219 24.9987 64.4008 26.1672 64.4008H35.9229C36.2647 64.4102 36.6066 64.5532 36.8459 64.8455L40.998 69.9736L45.0941 64.917C45.3085 64.606 45.6659 64.4008 46.0793 64.4008H55.8254C56.994 64.4008 58.06 63.9219 58.8245 63.16C59.5952 62.3887 60.0738 61.3221 60.0738 60.1497V41.0901C60.0738 39.9207 59.5952 38.8541 58.8338 38.0891C58.063 37.3179 56.997 36.839 55.8254 36.839L55.8281 36.839Z" fill="black"/>
</svg>
