<svg width="182" height="69" viewBox="0 0 182 69" fill="none" xmlns="http://www.w3.org/2000/svg">
<path d="M40.1241 32.2C39.0974 32.2 38.1441 32.02 37.2641 31.66C36.3841 31.2867 35.6107 30.7733 34.9441 30.12C34.2907 29.4533 33.7841 28.68 33.4241 27.8C33.0774 26.92 32.9041 25.9733 32.9041 24.96C32.9041 23.9467 33.0774 23 33.4241 22.12C33.7841 21.24 34.2907 20.4733 34.9441 19.82C35.6107 19.1667 36.3774 18.6533 37.2441 18.28C38.1241 17.9067 39.0841 17.72 40.1241 17.72C41.2441 17.72 42.2307 17.9067 43.0841 18.28C43.9374 18.64 44.6907 19.14 45.3441 19.78L43.5041 21.62C43.1174 21.1933 42.6441 20.86 42.0841 20.62C41.5241 20.38 40.8707 20.26 40.1241 20.26C39.4707 20.26 38.8707 20.3733 38.3241 20.6C37.7907 20.8133 37.3241 21.1333 36.9241 21.56C36.5241 21.9733 36.2174 22.4733 36.0041 23.06C35.7907 23.6333 35.6841 24.2667 35.6841 24.96C35.6841 25.6667 35.7907 26.3067 36.0041 26.88C36.2174 27.4533 36.5241 27.9533 36.9241 28.38C37.3241 28.7933 37.7907 29.1133 38.3241 29.34C38.8707 29.5667 39.4707 29.68 40.1241 29.68C40.9107 29.68 41.5841 29.56 42.1441 29.32C42.7174 29.08 43.1974 28.74 43.5841 28.3L45.4241 30.14C44.7707 30.7933 44.0107 31.3 43.1441 31.66C42.2774 32.02 41.2707 32.2 40.1241 32.2ZM51.155 32.2C50.3017 32.2 49.5417 32.02 48.875 31.66C48.2217 31.3 47.7083 30.8 47.335 30.16C46.9617 29.52 46.775 28.78 46.775 27.94V22.34H49.415V27.88C49.415 28.28 49.4817 28.6267 49.615 28.92C49.7483 29.2 49.9483 29.4133 50.215 29.56C50.4817 29.7067 50.795 29.78 51.155 29.78C51.7017 29.78 52.1283 29.6133 52.435 29.28C52.7417 28.9467 52.895 28.48 52.895 27.88V22.34H55.515V27.94C55.515 28.7933 55.3283 29.54 54.955 30.18C54.595 30.82 54.0817 31.32 53.415 31.68C52.7617 32.0267 52.0083 32.2 51.155 32.2ZM60.9214 32.22C60.3747 32.22 59.8347 32.1467 59.3014 32C58.7814 31.8533 58.3014 31.6533 57.8614 31.4C57.4214 31.1333 57.0414 30.8133 56.7214 30.44L58.2814 28.86C58.6147 29.2333 59.0014 29.5133 59.4414 29.7C59.8814 29.8867 60.3681 29.98 60.9014 29.98C61.3281 29.98 61.6481 29.92 61.8614 29.8C62.0881 29.68 62.2014 29.5 62.2014 29.26C62.2014 28.9933 62.0814 28.7867 61.8414 28.64C61.6147 28.4933 61.3147 28.3733 60.9414 28.28C60.5681 28.1733 60.1747 28.06 59.7614 27.94C59.3614 27.8067 58.9747 27.64 58.6014 27.44C58.2281 27.2267 57.9214 26.94 57.6814 26.58C57.4547 26.2067 57.3414 25.7267 57.3414 25.14C57.3414 24.5267 57.4881 23.9933 57.7814 23.54C58.0881 23.0867 58.5214 22.7333 59.0814 22.48C59.6414 22.2267 60.3014 22.1 61.0614 22.1C61.8614 22.1 62.5814 22.24 63.2214 22.52C63.8747 22.8 64.4147 23.22 64.8414 23.78L63.2614 25.36C62.9681 25 62.6347 24.74 62.2614 24.58C61.9014 24.42 61.5081 24.34 61.0814 24.34C60.6947 24.34 60.3947 24.4 60.1814 24.52C59.9814 24.64 59.8814 24.8067 59.8814 25.02C59.8814 25.26 59.9947 25.4467 60.2214 25.58C60.4614 25.7133 60.7681 25.8333 61.1414 25.94C61.5147 26.0333 61.9014 26.1467 62.3014 26.28C62.7147 26.4 63.1014 26.5733 63.4614 26.8C63.8347 27.0267 64.1347 27.3267 64.3614 27.7C64.6014 28.0733 64.7214 28.5533 64.7214 29.14C64.7214 30.0867 64.3814 30.84 63.7014 31.4C63.0214 31.9467 62.0947 32.22 60.9214 32.22ZM67.9081 32V18.32H70.5281V32H67.9081ZM65.6481 24.64V22.34H72.7881V24.64H65.6481ZM78.5672 32.2C77.5939 32.2 76.7139 31.98 75.9272 31.54C75.1539 31.0867 74.5339 30.48 74.0672 29.72C73.6139 28.9467 73.3872 28.0867 73.3872 27.14C73.3872 26.1933 73.6139 25.3467 74.0672 24.6C74.5205 23.84 75.1405 23.24 75.9272 22.8C76.7139 22.3467 77.5872 22.12 78.5472 22.12C79.5339 22.12 80.4139 22.3467 81.1872 22.8C81.9739 23.24 82.5939 23.84 83.0472 24.6C83.5005 25.3467 83.7272 26.1933 83.7272 27.14C83.7272 28.0867 83.5005 28.9467 83.0472 29.72C82.5939 30.48 81.9739 31.0867 81.1872 31.54C80.4139 31.98 79.5405 32.2 78.5672 32.2ZM78.5472 29.76C79.0405 29.76 79.4739 29.6533 79.8472 29.44C80.2339 29.2133 80.5272 28.9067 80.7272 28.52C80.9405 28.12 81.0472 27.6667 81.0472 27.16C81.0472 26.6533 80.9405 26.2067 80.7272 25.82C80.5139 25.4333 80.2205 25.1333 79.8472 24.92C79.4739 24.6933 79.0405 24.58 78.5472 24.58C78.0672 24.58 77.6405 24.6933 77.2672 24.92C76.8939 25.1333 76.6005 25.4333 76.3872 25.82C76.1739 26.2067 76.0672 26.6533 76.0672 27.16C76.0672 27.6667 76.1739 28.12 76.3872 28.52C76.6005 28.9067 76.8939 29.2133 77.2672 29.44C77.6405 29.6533 78.0672 29.76 78.5472 29.76ZM85.4139 32V22.34H88.0339V32H85.4139ZM91.7139 32V26.3C91.7139 25.74 91.5339 25.3067 91.1739 25C90.8272 24.68 90.3939 24.52 89.8739 24.52C89.5272 24.52 89.2139 24.5933 88.9339 24.74C88.6539 24.8733 88.4339 25.0733 88.2739 25.34C88.1139 25.6067 88.0339 25.9267 88.0339 26.3L87.0139 25.8C87.0139 25.0533 87.1739 24.4067 87.4939 23.86C87.8272 23.3133 88.2739 22.8933 88.8339 22.6C89.3939 22.2933 90.0272 22.14 90.7339 22.14C91.4006 22.14 92.0072 22.2933 92.5539 22.6C93.1006 22.8933 93.5339 23.3133 93.8539 23.86C94.1739 24.3933 94.3339 25.04 94.3339 25.8V32H91.7139ZM98.0139 32V26.3C98.0139 25.74 97.8339 25.3067 97.4739 25C97.1272 24.68 96.6939 24.52 96.1739 24.52C95.8406 24.52 95.5272 24.5933 95.2339 24.74C94.9539 24.8733 94.7339 25.0733 94.5739 25.34C94.4139 25.6067 94.3339 25.9267 94.3339 26.3L92.8339 25.94C92.8872 25.1667 93.0939 24.5 93.4539 23.94C93.8139 23.3667 94.2872 22.9267 94.8739 22.62C95.4606 22.3 96.1139 22.14 96.8339 22.14C97.5539 22.14 98.2006 22.2933 98.7739 22.6C99.3472 22.8933 99.8006 23.32 100.134 23.88C100.467 24.44 100.634 25.1067 100.634 25.88V32H98.0139ZM102.758 28.08V25.7H109.678V28.08H102.758ZM117.356 32.2C116.663 32.2 116.036 32.0533 115.476 31.76C114.916 31.4667 114.469 31.0667 114.136 30.56C113.803 30.0533 113.623 29.4867 113.596 28.86V25.42C113.623 24.7933 113.803 24.2333 114.136 23.74C114.483 23.2333 114.936 22.84 115.496 22.56C116.056 22.28 116.676 22.14 117.356 22.14C118.249 22.14 119.049 22.36 119.756 22.8C120.463 23.24 121.016 23.84 121.416 24.6C121.829 25.36 122.036 26.22 122.036 27.18C122.036 28.1267 121.829 28.98 121.416 29.74C121.016 30.5 120.463 31.1 119.756 31.54C119.049 31.98 118.249 32.2 117.356 32.2ZM111.996 32V17.54H114.616V24.72L114.176 27.04L114.596 29.4V32H111.996ZM116.916 29.78C117.396 29.78 117.816 29.6733 118.176 29.46C118.549 29.2333 118.836 28.9267 119.036 28.54C119.249 28.14 119.356 27.68 119.356 27.16C119.356 26.6533 119.249 26.2067 119.036 25.82C118.836 25.42 118.549 25.1133 118.176 24.9C117.803 24.6733 117.376 24.56 116.896 24.56C116.416 24.56 115.989 24.6733 115.616 24.9C115.256 25.1133 114.969 25.42 114.756 25.82C114.556 26.2067 114.456 26.6533 114.456 27.16C114.456 27.68 114.556 28.14 114.756 28.54C114.969 28.9267 115.263 29.2333 115.636 29.46C116.009 29.6733 116.436 29.78 116.916 29.78ZM127.874 32.2C127.02 32.2 126.26 32.02 125.594 31.66C124.94 31.3 124.427 30.8 124.054 30.16C123.68 29.52 123.494 28.78 123.494 27.94V22.34H126.134V27.88C126.134 28.28 126.2 28.6267 126.334 28.92C126.467 29.2 126.667 29.4133 126.934 29.56C127.2 29.7067 127.514 29.78 127.874 29.78C128.42 29.78 128.847 29.6133 129.154 29.28C129.46 28.9467 129.614 28.48 129.614 27.88V22.34H132.234V27.94C132.234 28.7933 132.047 29.54 131.674 30.18C131.314 30.82 130.8 31.32 130.134 31.68C129.48 32.0267 128.727 32.2 127.874 32.2ZM134.32 32V22.34H136.96V32H134.32ZM135.64 20.78C135.213 20.78 134.86 20.64 134.58 20.36C134.3 20.0667 134.16 19.7067 134.16 19.28C134.16 18.8667 134.3 18.5133 134.58 18.22C134.86 17.9267 135.213 17.78 135.64 17.78C136.08 17.78 136.433 17.9267 136.7 18.22C136.98 18.5133 137.12 18.8667 137.12 19.28C137.12 19.7067 136.98 20.0667 136.7 20.36C136.433 20.64 136.08 20.78 135.64 20.78ZM139.281 32V17.54H141.901V32H139.281ZM145.643 32V18.32H148.263V32H145.643ZM143.383 24.64V22.34H150.523V24.64H143.383ZM49.8298 57L46.2098 47.34H48.8498L51.2098 54.36L50.4098 54.38L52.8298 47.34H54.7298L57.1498 54.38L56.3498 54.36L58.7098 47.34H61.3498L57.7498 57H55.8498L53.4098 50.32H54.1498L51.7098 57H49.8298ZM67.0261 57.2C66.0128 57.2 65.1128 56.9867 64.3261 56.56C63.5394 56.12 62.9128 55.52 62.4461 54.76C61.9928 54 61.7661 53.1333 61.7661 52.16C61.7661 51.2 61.9861 50.3467 62.4261 49.6C62.8794 48.84 63.4928 48.24 64.2661 47.8C65.0394 47.3467 65.8994 47.12 66.8461 47.12C67.7794 47.12 68.5994 47.3333 69.3061 47.76C70.0261 48.1733 70.5861 48.7467 70.9861 49.48C71.3994 50.2 71.6061 51.02 71.6061 51.94C71.6061 52.1133 71.5928 52.2933 71.5661 52.48C71.5528 52.6533 71.5194 52.8533 71.4661 53.08L63.3461 53.1V51.14L70.2461 51.12L69.1861 51.94C69.1594 51.3667 69.0528 50.8867 68.8661 50.5C68.6928 50.1133 68.4328 49.82 68.0861 49.62C67.7528 49.4067 67.3394 49.3 66.8461 49.3C66.3261 49.3 65.8728 49.42 65.4861 49.66C65.0994 49.8867 64.7994 50.2133 64.5861 50.64C64.3861 51.0533 64.2861 51.5467 64.2861 52.12C64.2861 52.7067 64.3928 53.22 64.6061 53.66C64.8328 54.0867 65.1528 54.42 65.5661 54.66C65.9794 54.8867 66.4594 55 67.0061 55C67.4994 55 67.9461 54.92 68.3461 54.76C68.7461 54.5867 69.0928 54.3333 69.3861 54L70.9261 55.54C70.4594 56.0867 69.8861 56.5 69.2061 56.78C68.5394 57.06 67.8128 57.2 67.0261 57.2ZM78.5864 57.2C77.8931 57.2 77.2664 57.0533 76.7064 56.76C76.1464 56.4667 75.6997 56.0667 75.3664 55.56C75.0331 55.0533 74.8531 54.4867 74.8264 53.86V50.42C74.8531 49.7933 75.0331 49.2333 75.3664 48.74C75.7131 48.2333 76.1664 47.84 76.7264 47.56C77.2864 47.28 77.9064 47.14 78.5864 47.14C79.4797 47.14 80.2797 47.36 80.9864 47.8C81.6931 48.24 82.2464 48.84 82.6464 49.6C83.0597 50.36 83.2664 51.22 83.2664 52.18C83.2664 53.1267 83.0597 53.98 82.6464 54.74C82.2464 55.5 81.6931 56.1 80.9864 56.54C80.2797 56.98 79.4797 57.2 78.5864 57.2ZM73.2264 57V42.54H75.8464V49.72L75.4064 52.04L75.8264 54.4V57H73.2264ZM78.1464 54.78C78.6264 54.78 79.0464 54.6733 79.4064 54.46C79.7797 54.2333 80.0664 53.9267 80.2664 53.54C80.4797 53.14 80.5864 52.68 80.5864 52.16C80.5864 51.6533 80.4797 51.2067 80.2664 50.82C80.0664 50.42 79.7797 50.1133 79.4064 49.9C79.0331 49.6733 78.6064 49.56 78.1264 49.56C77.6464 49.56 77.2197 49.6733 76.8464 49.9C76.4864 50.1133 76.1997 50.42 75.9864 50.82C75.7864 51.2067 75.6864 51.6533 75.6864 52.16C75.6864 52.68 75.7864 53.14 75.9864 53.54C76.1997 53.9267 76.4931 54.2333 76.8664 54.46C77.2397 54.6733 77.6664 54.78 78.1464 54.78ZM88.3042 57.22C87.7576 57.22 87.2176 57.1467 86.6842 57C86.1642 56.8533 85.6842 56.6533 85.2442 56.4C84.8042 56.1333 84.4242 55.8133 84.1042 55.44L85.6642 53.86C85.9976 54.2333 86.3842 54.5133 86.8242 54.7C87.2642 54.8867 87.7509 54.98 88.2842 54.98C88.7109 54.98 89.0309 54.92 89.2442 54.8C89.4709 54.68 89.5842 54.5 89.5842 54.26C89.5842 53.9933 89.4642 53.7867 89.2242 53.64C88.9976 53.4933 88.6976 53.3733 88.3242 53.28C87.9509 53.1733 87.5576 53.06 87.1442 52.94C86.7442 52.8067 86.3576 52.64 85.9842 52.44C85.6109 52.2267 85.3042 51.94 85.0642 51.58C84.8376 51.2067 84.7242 50.7267 84.7242 50.14C84.7242 49.5267 84.8709 48.9933 85.1642 48.54C85.4709 48.0867 85.9042 47.7333 86.4642 47.48C87.0242 47.2267 87.6842 47.1 88.4442 47.1C89.2442 47.1 89.9642 47.24 90.6042 47.52C91.2576 47.8 91.7976 48.22 92.2242 48.78L90.6442 50.36C90.3509 50 90.0176 49.74 89.6442 49.58C89.2842 49.42 88.8909 49.34 88.4642 49.34C88.0776 49.34 87.7776 49.4 87.5642 49.52C87.3642 49.64 87.2642 49.8067 87.2642 50.02C87.2642 50.26 87.3776 50.4467 87.6042 50.58C87.8442 50.7133 88.1509 50.8333 88.5242 50.94C88.8976 51.0333 89.2842 51.1467 89.6842 51.28C90.0976 51.4 90.4842 51.5733 90.8442 51.8C91.2176 52.0267 91.5176 52.3267 91.7442 52.7C91.9842 53.0733 92.1042 53.5533 92.1042 54.14C92.1042 55.0867 91.7642 55.84 91.0842 56.4C90.4042 56.9467 89.4776 57.22 88.3042 57.22ZM93.8709 57V47.34H96.5109V57H93.8709ZM95.1909 45.78C94.7643 45.78 94.4109 45.64 94.1309 45.36C93.8509 45.0667 93.7109 44.7067 93.7109 44.28C93.7109 43.8667 93.8509 43.5133 94.1309 43.22C94.4109 42.9267 94.7643 42.78 95.1909 42.78C95.6309 42.78 95.9843 42.9267 96.2509 43.22C96.5309 43.5133 96.6709 43.8667 96.6709 44.28C96.6709 44.7067 96.5309 45.0667 96.2509 45.36C95.9843 45.64 95.6309 45.78 95.1909 45.78ZM100.252 57V43.32H102.872V57H100.252ZM97.9919 49.64V47.34H105.132V49.64H97.9919ZM110.991 57.2C109.978 57.2 109.078 56.9867 108.291 56.56C107.504 56.12 106.878 55.52 106.411 54.76C105.958 54 105.731 53.1333 105.731 52.16C105.731 51.2 105.951 50.3467 106.391 49.6C106.844 48.84 107.458 48.24 108.231 47.8C109.004 47.3467 109.864 47.12 110.811 47.12C111.744 47.12 112.564 47.3333 113.271 47.76C113.991 48.1733 114.551 48.7467 114.951 49.48C115.364 50.2 115.571 51.02 115.571 51.94C115.571 52.1133 115.558 52.2933 115.531 52.48C115.518 52.6533 115.484 52.8533 115.431 53.08L107.311 53.1V51.14L114.211 51.12L113.151 51.94C113.124 51.3667 113.018 50.8867 112.831 50.5C112.658 50.1133 112.398 49.82 112.051 49.62C111.718 49.4067 111.304 49.3 110.811 49.3C110.291 49.3 109.838 49.42 109.451 49.66C109.064 49.8867 108.764 50.2133 108.551 50.64C108.351 51.0533 108.251 51.5467 108.251 52.12C108.251 52.7067 108.358 53.22 108.571 53.66C108.798 54.0867 109.118 54.42 109.531 54.66C109.944 54.8867 110.424 55 110.971 55C111.464 55 111.911 54.92 112.311 54.76C112.711 54.5867 113.058 54.3333 113.351 54L114.891 55.54C114.424 56.0867 113.851 56.5 113.171 56.78C112.504 57.06 111.778 57.2 110.991 57.2ZM120.511 57.22C119.965 57.22 119.425 57.1467 118.891 57C118.371 56.8533 117.891 56.6533 117.451 56.4C117.011 56.1333 116.631 55.8133 116.311 55.44L117.871 53.86C118.205 54.2333 118.591 54.5133 119.031 54.7C119.471 54.8867 119.958 54.98 120.491 54.98C120.918 54.98 121.238 54.92 121.451 54.8C121.678 54.68 121.791 54.5 121.791 54.26C121.791 53.9933 121.671 53.7867 121.431 53.64C121.205 53.4933 120.905 53.3733 120.531 53.28C120.158 53.1733 119.765 53.06 119.351 52.94C118.951 52.8067 118.565 52.64 118.191 52.44C117.818 52.2267 117.511 51.94 117.271 51.58C117.045 51.2067 116.931 50.7267 116.931 50.14C116.931 49.5267 117.078 48.9933 117.371 48.54C117.678 48.0867 118.111 47.7333 118.671 47.48C119.231 47.2267 119.891 47.1 120.651 47.1C121.451 47.1 122.171 47.24 122.811 47.52C123.465 47.8 124.005 48.22 124.431 48.78L122.851 50.36C122.558 50 122.225 49.74 121.851 49.58C121.491 49.42 121.098 49.34 120.671 49.34C120.285 49.34 119.985 49.4 119.771 49.52C119.571 49.64 119.471 49.8067 119.471 50.02C119.471 50.26 119.585 50.4467 119.811 50.58C120.051 50.7133 120.358 50.8333 120.731 50.94C121.105 51.0333 121.491 51.1467 121.891 51.28C122.305 51.4 122.691 51.5733 123.051 51.8C123.425 52.0267 123.725 52.3267 123.951 52.7C124.191 53.0733 124.311 53.5533 124.311 54.14C124.311 55.0867 123.971 55.84 123.291 56.4C122.611 56.9467 121.685 57.22 120.511 57.22Z" fill="#212121"/>
</svg>
