<svg width="74" height="63" viewBox="0 0 74 63" fill="none" xmlns="http://www.w3.org/2000/svg">
<circle cx="37" cy="35" r="28" fill="white"/>
<path fill-rule="evenodd" clip-rule="evenodd" d="M17.6969 22.6971C18.2136 22.7034 18.625 23.1235 18.6154 23.6283C18.6059 24.1361 18.1817 24.5405 17.6682 24.5311L13.5127 24.4528L13.4872 26.7915C13.484 27.0517 13.4234 27.2994 13.3118 27.5189C13.1874 27.7603 13.012 27.9609 12.7856 28.1082C12.5368 28.2713 12.2626 28.3496 11.9787 28.3434C11.6917 28.3402 11.4174 28.2525 11.175 28.0832L0.66668 20.8255C0.443433 20.6719 0.271214 20.4682 0.156407 20.2268C0.05116 20.0073 -0.00305148 19.7596 0.000132618 19.5026C0.00332162 19.2424 0.0639159 18.9947 0.175536 18.7752C0.299912 18.5338 0.475323 18.3332 0.701754 18.1859L11.3636 11.2355C11.6124 11.0756 11.8866 10.9941 12.1705 11.0003C12.4575 11.0035 12.7318 11.0913 12.9741 11.2574C13.1974 11.411 13.3696 11.6148 13.4844 11.8562C13.5897 12.0756 13.6439 12.3202 13.6407 12.5804L13.6152 14.9348L25.1375 15.1041C25.6542 15.1104 26.0656 15.5242 26.0592 16.032C26.0528 16.5399 25.6319 16.9443 25.1153 16.938L12.6581 16.7562C12.1446 16.7499 11.7332 16.3361 11.7364 15.8314L11.7651 13.1729L2.0348 19.5214L11.6279 26.1519L11.6566 23.5028C11.663 22.995 12.0904 22.5905 12.6039 22.5999L17.6969 22.6971ZM18.558 34.2308H25.9123C26.0048 31.0205 26.5884 27.9701 27.5643 25.2051C25.9314 24.6973 24.3911 24.0608 22.9655 23.3178C20.3663 26.2773 18.7366 30.0704 18.558 34.2308ZM27.4719 34.2308C27.5644 31.1648 28.1257 28.2555 29.0633 25.6281C31.3149 26.2018 33.7163 26.5404 36.2167 26.5968V34.2306L27.4719 34.2308ZM37.7827 34.2308H46.441C46.3453 31.1648 45.784 28.2555 44.84 25.6313C44.6838 25.6721 44.5275 25.7097 44.3712 25.7473C42.2855 26.2489 40.0754 26.5436 37.7823 26.5969L37.7827 34.2308ZM48.0045 34.2308C47.9088 31.0174 47.3252 27.967 46.3428 25.2019C47.9948 24.6815 49.5512 24.0295 50.9895 23.2582C53.6175 26.2271 55.2663 30.0424 55.448 34.2309L48.0045 34.2308ZM55.4449 35.767H48.0108C47.9502 38.8487 47.44 41.7863 46.563 44.47C48.2246 45.003 49.7872 45.6739 51.2287 46.4608C53.7163 43.5327 55.2726 39.8236 55.4449 35.767ZM46.4478 35.767H37.7829V43.0184C40.0951 43.0717 42.3243 43.3663 44.426 43.8711C44.6397 43.9212 44.8534 43.9745 45.0639 44.031C45.9026 41.4853 46.3904 38.6984 46.4478 35.767ZM36.2203 35.767H27.4656C27.5262 38.7077 28.0205 41.5041 28.8625 44.0559C28.9358 44.0371 29.0123 44.0152 29.0857 43.9964C31.3309 43.4226 33.726 43.0809 36.2168 43.0214L36.2203 35.767ZM25.903 35.767H18.5582C18.7336 39.8144 20.2804 43.5168 22.7584 46.4387C24.1839 45.6738 25.7307 45.0186 27.3699 44.4919C26.4802 41.802 25.9635 38.8581 25.903 35.767ZM37.7829 17.0351V25.0672C39.9484 25.0108 42.0373 24.7317 44.0083 24.2584C44.0976 24.2364 44.19 24.2145 44.2793 24.1925C43.1025 21.4462 41.5016 19.0605 39.5912 17.1951C38.9948 17.1136 38.392 17.0602 37.7829 17.0351ZM37.7829 44.5479V52.962C38.5196 52.9307 39.2468 52.8585 39.9612 52.7488C41.8524 50.7926 43.4183 48.3159 44.5441 45.4787C44.3846 45.4379 44.2252 45.3972 44.0625 45.3596C42.0756 44.8799 39.9675 44.6012 37.7829 44.5479ZM36.2202 52.962V44.5511C33.8666 44.6107 31.6054 44.9336 29.4782 45.479L29.3889 45.501C30.5115 48.3256 32.0774 50.7897 33.9623 52.7366C34.7022 52.8557 35.4548 52.9307 36.2202 52.962ZM36.2202 25.0664V17.0343C35.5632 17.0625 34.9189 17.1189 34.2843 17.213C32.3899 19.0783 30.7986 21.4547 29.6313 24.1916C31.7107 24.7088 33.924 25.0131 36.2202 25.0664ZM50.1478 47.6225C50.1191 47.6507 50.0872 47.6821 50.0585 47.7103C47.9759 49.7386 45.3991 51.2842 42.516 52.1589C43.9384 50.3438 45.1375 48.237 46.0432 45.9077C47.4975 46.3779 48.8721 46.9517 50.1478 47.6225ZM27.8868 45.9359C28.7926 48.2401 29.9789 50.3343 31.3918 52.1338C28.547 51.2529 26.002 49.7199 23.945 47.7135C23.9099 47.679 23.8748 47.6445 23.8397 47.61C25.1027 46.9548 26.458 46.3936 27.8868 45.9359ZM33.7581 15.7393C29.5292 16.4102 25.7437 18.3759 22.8448 21.2005C22.6439 21.3949 22.4494 21.5955 22.258 21.7993C22.2357 21.8212 22.2134 21.8432 22.191 21.8683C18.954 25.3325 16.9799 29.9413 16.9799 34.9974C16.9799 40.3865 19.2219 45.2647 22.848 48.7976C25.6513 51.5282 29.2806 53.4531 33.3343 54.1867C33.4173 54.2149 33.5066 54.2306 33.5927 54.2306C34.6993 54.4155 35.841 54.5127 37.0019 54.5127C38.1182 54.5127 39.2152 54.4218 40.2836 54.2525C40.3952 54.2588 40.5069 54.24 40.6121 54.1961C44.6911 53.4719 48.3395 51.5407 51.1556 48.7975C54.7817 45.2644 57.0237 40.3866 57.0237 34.9974C57.0237 29.9061 55.0209 25.2727 51.7423 21.796C51.7264 21.7771 51.7104 21.7615 51.6945 21.7427C51.5191 21.5577 51.3405 21.3759 51.1555 21.1972C47.5326 17.6672 42.529 15.482 37.0018 15.482C35.927 15.482 34.8714 15.5635 33.8413 15.7234C33.8126 15.7265 33.7868 15.733 33.7581 15.7393ZM28.1164 23.7681C29.054 21.5297 30.2595 19.5076 31.6819 17.7739C28.7829 18.6204 26.1837 20.144 24.0757 22.1567C25.3418 22.7899 26.694 23.3292 28.1164 23.7681ZM42.1811 17.7364C43.6195 19.4795 44.8409 21.5141 45.7882 23.7713C47.2328 23.323 48.601 22.7618 49.8735 22.1097C47.7431 20.0877 45.1153 18.5671 42.1811 17.7364ZM56.3063 47.2997C55.7897 47.2903 55.3783 46.8734 55.3878 46.3686C55.3974 45.8607 55.8216 45.4563 56.335 45.4657L60.4906 45.5441L60.5161 43.2053C60.5193 42.9451 60.5798 42.6975 60.6915 42.478C60.8127 42.2366 60.9913 42.036 61.2177 41.8886C61.4664 41.7287 61.7407 41.6472 62.0246 41.6535C62.3116 41.6566 62.5858 41.7444 62.8282 41.9137L73.3333 49.1744C73.5566 49.3281 73.7288 49.5318 73.8436 49.7732C73.9488 49.9927 74.003 50.2372 73.9999 50.4974C73.9967 50.7576 73.9361 51.0053 73.8245 51.2247C73.7033 51.4661 73.5247 51.6668 73.2982 51.8141L62.6364 58.7645C62.3876 58.9275 62.1134 59.0059 61.8295 58.9997C61.5425 58.9965 61.2682 58.9087 61.0227 58.7394C60.7994 58.5858 60.6272 58.3821 60.5124 58.1407C60.4071 57.9212 60.3529 57.6767 60.3561 57.4165L60.3816 55.0621L48.8593 54.8928C48.3426 54.8865 47.9312 54.4695 47.9376 53.9648C47.944 53.457 48.3681 53.0526 48.8815 53.0588L61.3387 53.2407C61.8522 53.2469 62.2668 53.6607 62.2604 54.1654L62.2317 56.8239L71.9653 50.4755L62.3721 43.8449L62.3434 46.494C62.3371 47.0019 61.9097 47.4063 61.3962 47.3969L56.3063 47.2997Z" fill="black"/>
</svg>
