<svg width="161" height="175" viewBox="0 0 161 175" fill="none" xmlns="http://www.w3.org/2000/svg">
<path d="M88.0849 0.981324C89.3838 0.233447 90.5516 0.154736 91.4043 0.653296L95.6543 3.13072C94.8146 2.63223 93.6337 2.69784 92.3348 3.44564L9.24358 51.4268C6.67206 52.9094 4.58586 56.5175 4.59896 59.4565L4.78267 124.481C4.78267 125.951 5.30744 126.974 6.13403 127.459L1.88412 124.982C1.04442 124.496 0.532755 123.473 0.532755 122.004L0.335938 56.979C0.335938 54.0401 2.40896 50.432 4.98055 48.9494L88.0849 0.981324Z" fill="#212121"/>
<path d="M6.13438 127.794C6.07666 127.794 6.01833 127.78 5.96514 127.748L1.71507 125.272C0.736515 124.707 0.196741 123.546 0.196741 122.003L0 56.9797C0 53.9207 2.15916 50.1874 4.8128 48.6579L87.9174 0.689898C87.9174 0.689898 87.9174 0.689898 87.9181 0.689898C89.2868 -0.0984336 90.5868 -0.21654 91.5739 0.363308L95.7958 2.82414C95.8056 2.83073 95.8161 2.83596 95.8259 2.84247C95.9853 2.93694 96.0377 3.14156 95.944 3.30156C95.8495 3.46027 95.6436 3.51277 95.4855 3.42096L95.4586 3.4052C94.699 2.97232 93.6241 3.09171 92.5019 3.73709L9.4118 51.7182C6.9306 53.148 4.92234 56.6189 4.93484 59.455L5.11848 124.48C5.11848 125.765 5.53954 126.72 6.30431 127.169C6.46431 127.263 6.5181 127.468 6.42431 127.628C6.36204 127.735 6.24923 127.794 6.13438 127.794ZM88.2532 1.27232L5.14863 49.2404C2.67992 50.6623 0.671665 54.1345 0.671665 56.9784L0.868409 122.002C0.868409 123.295 1.28879 124.25 2.05227 124.691L4.74855 126.262C4.55045 125.752 4.44689 125.153 4.44689 124.481L4.26325 59.4576C4.24946 56.4065 6.40863 52.6732 9.07605 51.1359L92.1668 3.15474C92.7676 2.80974 93.3658 2.59459 93.9299 2.51459L91.2355 0.943157C90.4629 0.493233 89.4043 0.608686 88.2526 1.2724L88.2532 1.27232Z" fill="black"/>
<path d="M92.3399 3.44988C94.9116 1.96511 97.0042 3.15761 97.0126 6.10314L97.1969 71.1248C97.2053 74.0798 95.1262 77.6713 92.5545 79.1561L9.45569 127.133C6.88396 128.618 4.79138 127.435 4.78297 124.48L4.59866 59.4583C4.59032 56.5128 6.66933 52.9118 9.24107 51.427L92.3399 3.44988Z" fill="#FFBE2E"/>
<path d="M7.35946 128.112C6.85772 128.112 6.39136 127.994 5.9775 127.756C4.99432 127.19 4.4506 126.027 4.44606 124.482L4.26174 59.46C4.25386 56.4062 6.41166 52.673 9.07257 51.1356L92.1712 3.15969C93.5302 2.37788 94.8242 2.26114 95.8146 2.83045C96.7991 3.39712 97.3435 4.55931 97.3474 6.10196L97.5317 71.1241C97.5403 74.1765 95.3824 77.9097 92.7215 79.4471L9.62287 127.424C8.8312 127.881 8.0606 128.112 7.35946 128.112ZM94.4281 3.14666C93.8464 3.14666 93.1924 3.34606 92.5071 3.74219L9.4084 51.7181C6.9331 53.1466 4.92553 56.6188 4.93333 59.4574L5.11765 124.48C5.12159 125.775 5.54591 126.732 6.31265 127.174C7.08727 127.619 8.14385 127.503 9.28703 126.842L92.3857 78.8647C94.861 77.4362 96.868 73.9641 96.8601 71.1267L96.6758 6.10461C96.6725 4.81121 96.2475 3.855 95.4801 3.41288C95.1699 3.23454 94.8151 3.14666 94.4281 3.14666Z" fill="black"/>
<path d="M91.498 67.9805C91.499 68.4072 91.2688 69.0572 90.9033 69.6855C90.5381 70.3134 90.0836 70.8403 89.7051 71.0586V71.0596L10.4717 116.804L10.2988 59.4414C10.2977 59.0148 10.5283 58.3651 10.8936 57.7373C11.2585 57.1101 11.7128 56.5826 12.0908 56.3643L91.3252 10.6182L91.498 67.9805Z" fill="#FFF7E4" stroke="black" stroke-width="0.604448"/>
<path d="M158.121 124.819C159.42 124.071 160.062 123.087 160.062 122.116L160.023 114.446C160.023 115.417 159.38 116.401 158.094 117.149L74.9901 165.13C72.4185 166.613 68.2725 166.613 65.7272 165.13L9.50635 132.461C8.2337 131.713 7.60385 130.755 7.59082 129.784L7.63014 137.467C7.63014 138.425 8.25991 139.396 9.53263 140.131L65.7534 172.8C68.2988 174.283 72.4448 174.283 75.0163 172.8L158.121 124.819Z" fill="#212121"/>
<path d="M70.3749 174.241C68.6362 174.241 66.9014 173.858 65.5843 173.091L9.36412 140.421C8.02943 139.651 7.2942 138.602 7.2942 137.468L7.25489 129.786C7.2542 129.601 7.40246 129.45 7.58738 129.449C7.58867 129.449 7.59004 129.449 7.59064 129.449C7.77428 129.449 7.92382 129.596 7.92647 129.781C7.93829 130.667 8.56004 131.515 9.67632 132.171L65.8959 164.841C68.3437 166.265 72.3484 166.266 74.8224 164.84L157.926 116.859C159.062 116.198 159.687 115.341 159.687 114.447C159.687 114.262 159.837 114.111 160.022 114.111H160.023C160.208 114.111 160.358 114.26 160.359 114.445L160.398 122.115C160.398 123.264 159.649 124.328 158.288 125.111L75.1846 173.092C73.8543 173.858 72.113 174.241 70.3749 174.241ZM7.93564 131.577L7.9658 137.466C7.9658 138.352 8.58163 139.194 9.70056 139.839L65.9221 172.511C68.3699 173.934 72.3746 173.936 74.8486 172.51L157.952 124.529C157.952 124.529 157.952 124.529 157.953 124.529C159.097 123.87 159.727 123.014 159.727 122.116L159.696 116.24C159.348 116.683 158.865 117.09 158.263 117.44L75.1582 165.423C72.498 166.956 68.1921 166.956 65.5581 165.421L9.33791 132.751C8.75223 132.407 8.28064 132.011 7.93564 131.577Z" fill="black"/>
<path d="M9.53338 127.088C6.96164 128.573 6.94815 130.972 9.50315 132.457L65.7213 165.127C68.268 166.607 72.4178 166.612 74.9895 165.127L158.088 117.15C160.66 115.665 160.674 113.257 158.127 111.777L101.909 79.1063C99.3538 77.6215 95.2039 77.6263 92.6323 79.1111L9.53338 127.088Z" fill="#FFF7E4"/>
<path d="M70.3496 166.568C68.6102 166.568 66.8728 166.185 65.5526 165.417L9.33431 132.747C7.995 131.969 7.25848 130.916 7.25977 129.781C7.26174 128.64 8.00946 127.58 9.36575 126.797L92.4644 78.8195C95.1246 77.2835 99.4371 77.2822 102.078 78.8156L158.296 111.486C159.631 112.263 160.365 113.315 160.363 114.451C160.361 115.596 159.613 116.658 158.257 117.441L75.1573 165.418C73.829 166.185 72.0883 166.568 70.3496 166.568ZM9.70151 127.379C8.56159 128.038 7.93265 128.89 7.93128 129.782C7.92999 130.666 8.54848 131.514 9.67136 132.167L65.8896 164.837C68.3438 166.263 72.3513 166.262 74.8213 164.836L157.921 116.859C159.061 116.2 159.69 115.345 159.691 114.449C159.693 113.564 159.078 112.716 157.959 112.066L101.74 79.3953C99.2847 77.9707 95.274 77.9707 92.8001 79.4019L9.70151 127.379Z" fill="black"/>
<path d="M107.52 118.907C108.269 118.907 109 119.074 109.54 119.388L125.32 128.559C125.868 128.877 126.073 129.251 126.072 129.562C126.071 129.874 125.864 130.247 125.318 130.562L101.427 144.356C100.882 144.671 100.148 144.837 99.3975 144.836C98.647 144.835 97.9124 144.668 97.3662 144.351L81.5859 135.18C81.0448 134.865 80.842 134.494 80.8438 134.183C80.8455 133.871 81.0535 133.497 81.5996 133.182L105.491 119.388C106.036 119.073 106.77 118.907 107.52 118.907Z" fill="#978050" stroke="black" stroke-width="0.604448"/>
<path d="M72.6472 165.993V173.671C71.0685 174.008 69.3144 173.981 67.7627 173.59V165.926C69.3144 166.317 71.0685 166.344 72.6472 165.993Z" fill="#FFBE2E"/>
<path d="M70.3759 174.242C69.459 174.242 68.5434 174.133 67.6796 173.915C67.4999 173.87 67.3903 173.688 67.4362 173.507C67.4815 173.327 67.6631 173.213 67.8435 173.264C69.2674 173.621 70.8421 173.668 72.3107 173.394V169.915C72.3107 169.731 72.4609 169.58 72.6465 169.58C72.8321 169.58 72.9824 169.73 72.9824 169.915V173.67C72.9824 173.828 72.8715 173.965 72.7168 173.998C71.9572 174.16 71.1662 174.242 70.3759 174.242Z" fill="black"/>
<path d="M67.7616 171.479C67.576 171.479 67.4258 171.328 67.4258 171.143V165.926C67.4258 165.822 67.4737 165.725 67.555 165.661C67.637 165.598 67.7433 165.577 67.8436 165.601C69.3613 165.982 71.041 166.006 72.5737 165.666C72.76 165.627 72.9345 165.741 72.9745 165.922C73.0145 166.103 72.9004 166.281 72.7193 166.322C71.2265 166.653 69.6006 166.662 68.0974 166.347V171.143C68.0974 171.328 67.9473 171.479 67.7616 171.479Z" fill="black"/>
<path d="M16.0125 138.66V141.77L10.6113 138.647V138.633L13.2984 137.092L16.0125 138.66Z" fill="#FFF7E4"/>
<path d="M13.2984 137.092L10.6113 138.633V135.537L13.2984 137.092Z" fill="#FFBE2E"/>
<path d="M23.7644 143.138V146.247L18.3633 143.124V143.111L21.0502 141.569L23.7644 143.138Z" fill="#FFF7E4"/>
<path d="M21.0502 141.569L18.3633 143.111V140.015L21.0502 141.569Z" fill="#FFBE2E"/>
<path d="M28.2562 147.277C28.2562 148.165 27.6203 148.535 26.8512 148.076C26.4666 147.854 26.1265 147.484 25.8604 147.056L27.8422 145.902C28.1085 146.346 28.2562 146.834 28.2562 147.277Z" fill="#FFF7E4"/>
<path d="M27.8432 145.902L25.8613 147.055C25.6246 146.612 25.4619 146.109 25.4619 145.665C25.4619 144.778 26.083 144.423 26.8669 144.866C27.2515 145.088 27.6065 145.473 27.8432 145.902Z" fill="#FFBE2E"/>
<path d="M95.1182 84.4341C96.3934 83.6932 97.9677 83.6909 99.2451 84.4282L124.414 98.9595C125.193 99.4095 125.195 100.534 124.417 100.986L47.6631 145.59C46.3876 146.332 44.8127 146.334 43.5352 145.596L18.3672 131.065C17.588 130.615 17.5862 129.491 18.3643 129.039L95.1182 84.4341Z" fill="#978050" stroke="black" stroke-width="0.604448"/>
<path d="M23.5732 65.0436L78.135 33.543L78.2217 62.3791L23.66 93.8799L23.5732 65.0436Z" fill="#978050"/>
<path d="M31.0319 89.9582C30.9165 89.9582 30.8031 89.8978 30.7414 89.7903C30.6483 89.6303 30.7034 89.4244 30.8641 89.3313L77.8837 62.1846L77.7997 34.1237L23.9085 65.2383L23.9302 72.491C23.9309 72.6773 23.7807 72.8281 23.5957 72.8281C23.595 72.8281 23.5944 72.8281 23.5944 72.8281C23.4095 72.8281 23.2593 72.6786 23.2586 72.4936L23.2363 65.0455C23.2357 64.9249 23.3 64.8133 23.4042 64.753L77.9656 33.2513C78.0693 33.191 78.1972 33.191 78.3008 33.2513C78.405 33.3117 78.4687 33.4219 78.4694 33.5413L78.5559 62.3774C78.5566 62.4981 78.4923 62.6096 78.3881 62.6699L31.1998 89.9136C31.1467 89.9438 31.089 89.9582 31.0319 89.9582Z" fill="black"/>
<path d="M135.817 87.5887C135.803 89.6228 135.084 91.0468 133.932 91.7383L95.162 114.262C95.1891 114.249 95.2163 114.235 95.2295 114.208C95.5009 114.046 95.7314 113.842 95.9483 113.598C96.0568 113.476 96.1655 113.34 96.2605 113.191C96.2605 113.191 96.2605 113.178 96.2737 113.178C96.3687 113.029 96.4502 112.866 96.5313 112.69C96.5995 112.54 96.667 112.378 96.7213 112.215C96.7484 112.161 96.762 112.106 96.7756 112.052C96.8299 111.889 96.8703 111.713 96.9114 111.523C96.9517 111.306 96.9925 111.089 97.0061 110.845C97.0332 110.615 97.0467 110.371 97.0467 110.113C97.0603 107.347 95.7586 104.187 93.8059 101.787C92.8703 100.62 91.7718 99.6305 90.6055 98.9525L83.5404 94.8708L61.2875 82.0289H61.2735L50.1403 75.5876L39.0071 69.1733L27.8738 62.732H27.8603L27.7109 62.6507L27.7249 62.6372L66.6032 40.1943L66.6303 40.2079L72.4072 43.5439L77.7771 46.6358L82.8352 49.5511L111.177 65.9054L122.31 72.3466L129.375 76.4148C132.942 78.476 135.83 83.4662 135.817 87.5887Z" fill="#FFF7E4"/>
<path d="M95.1626 114.598C95.0426 114.598 94.9265 114.534 94.8662 114.421C94.7822 114.262 94.8366 114.067 94.9888 113.975C95.0091 113.954 95.0321 113.936 95.0577 113.92C95.2846 113.785 95.4886 113.612 95.6984 113.375C95.7942 113.267 95.8919 113.146 95.9765 113.012L95.9772 113.013C95.9858 112.999 95.9955 112.986 96.0054 112.974C96.0868 112.844 96.1562 112.702 96.2271 112.549C96.2894 112.413 96.3524 112.262 96.4022 112.11C96.4324 112.043 96.4402 112.011 96.4494 111.974C96.5084 111.793 96.5459 111.629 96.5832 111.452C96.6199 111.258 96.6587 111.055 96.6718 110.827C96.6987 110.589 96.7118 110.357 96.7118 110.113C96.7242 107.522 95.5108 104.414 93.5459 102C92.6125 100.835 91.5382 99.8828 90.4377 99.2427L61.1627 82.3448C61.1424 82.3369 61.1233 82.3291 61.1063 82.3199L27.7499 63.0488C27.7322 63.0423 27.7151 63.0357 27.7 63.0279L27.5512 62.9465C27.3878 62.8573 27.3281 62.6526 27.4174 62.49C27.506 62.3273 27.7125 62.2683 27.8725 62.3562L27.9801 62.4152C28.0031 62.4218 28.0241 62.431 28.0424 62.4414L61.3995 81.7123C61.4198 81.7202 61.4389 81.7281 61.456 81.7372L90.7742 98.6614C91.9462 99.3436 93.0855 100.351 94.068 101.577C96.1255 104.105 97.3965 107.377 97.3834 110.114C97.3834 110.386 97.369 110.642 97.3408 110.884C97.3277 111.123 97.285 111.355 97.2418 111.585C97.1965 111.797 97.1526 111.985 97.0949 112.158C97.085 112.201 97.0653 112.28 97.0208 112.368C96.9834 112.495 96.9099 112.67 96.8378 112.828C96.8221 112.862 96.807 112.895 96.7912 112.928L133.764 91.4481C134.858 90.7909 135.469 89.4189 135.481 87.5863C135.494 83.5947 132.68 78.7123 129.208 76.7066L82.6682 49.842C82.5075 49.7489 82.4525 49.5442 82.5456 49.383C82.6374 49.2216 82.842 49.1665 83.0041 49.2596L129.544 76.1243C133.202 78.2388 136.167 83.3822 136.153 87.5903C136.14 89.6668 135.412 91.2421 134.105 92.0266L95.3902 114.518C95.3581 114.54 95.3286 114.555 95.3096 114.564C95.2623 114.587 95.2125 114.598 95.1626 114.598Z" fill="black"/>
<path d="M72.4074 43.8798C72.3503 43.8798 72.2926 43.8654 72.2395 43.8352L66.4625 40.4994C66.3038 40.4076 66.2343 40.1977 66.3235 40.0377C66.4127 39.8777 66.5996 39.8133 66.7623 39.8973L72.5753 43.2527C72.736 43.3458 72.7911 43.5518 72.698 43.7118C72.6363 43.8195 72.5228 43.8798 72.4074 43.8798Z" fill="black"/>
<path d="M97.0477 110.114C97.0477 110.371 97.0341 110.615 97.007 110.846C96.9934 111.09 96.9527 111.307 96.9123 111.524C96.8712 111.714 96.8308 111.89 96.7765 112.053C96.763 112.107 96.7494 112.161 96.7222 112.215C96.6679 112.378 96.6004 112.541 96.5322 112.69C96.4511 112.866 96.3696 113.029 96.2746 113.178C96.2614 113.178 96.2614 113.192 96.2614 113.192C96.1664 113.341 96.0577 113.477 95.9492 113.599C95.7324 113.843 95.5019 114.046 95.2304 114.209C94.0508 114.941 92.3964 114.86 90.5656 113.802L23.6033 75.1543V73.0117L23.5762 65.038L25.8543 63.7226L27.7119 62.6513L27.7259 62.6377L27.8612 62.7325H27.8748L39.0216 69.1603L50.1413 75.5881L61.2885 82.0294L83.5414 94.8713L90.6065 98.953C91.7728 99.6311 92.8713 100.621 93.8069 101.787C95.7595 104.188 97.0612 107.347 97.0477 110.114Z" fill="white"/>
<path d="M93.4648 115.03C92.5196 115.03 91.4768 114.716 90.3979 114.093L23.435 75.4452C23.3314 75.3848 23.2671 75.2734 23.2671 75.154L23.2402 65.0391C23.2396 64.9184 23.3039 64.8069 23.4081 64.7466L27.5309 62.3684C27.6477 62.2937 27.8064 62.2832 27.9199 62.3632L28.0071 62.4249C28.0195 62.4301 28.0313 62.4353 28.0424 62.4419L90.7742 98.6619C91.9463 99.344 93.0855 100.351 94.068 101.578C96.1255 104.104 97.3966 107.377 97.3835 110.115C97.3835 110.386 97.369 110.643 97.3408 110.885C97.3277 111.125 97.2851 111.356 97.2418 111.585C97.1966 111.798 97.1526 111.985 97.0949 112.159C97.0851 112.202 97.0654 112.28 97.0208 112.368C96.9828 112.496 96.9107 112.671 96.8372 112.83C96.7493 113.022 96.66 113.199 96.5571 113.359C96.5485 113.373 96.5388 113.385 96.5282 113.397C96.4272 113.552 96.3138 113.693 96.2003 113.822C95.9471 114.106 95.6861 114.327 95.4027 114.497C94.8296 114.853 94.1744 115.03 93.4648 115.03ZM23.9388 74.9598L90.7337 113.511C92.3976 114.472 93.9317 114.621 95.0533 113.923C95.2848 113.785 95.4888 113.612 95.6987 113.376C95.7951 113.267 95.8935 113.144 95.9788 113.011H95.9794C95.9873 112.999 95.9958 112.987 96.0044 112.977C96.0863 112.846 96.1566 112.704 96.2274 112.549C96.2904 112.412 96.3533 112.262 96.4026 112.11C96.4327 112.043 96.4406 112.011 96.4497 111.975C96.5088 111.794 96.5462 111.63 96.5835 111.453C96.6203 111.259 96.659 111.057 96.6721 110.827C96.699 110.59 96.7121 110.357 96.7121 110.114V110.112C96.7245 107.522 95.5112 104.414 93.5462 102C92.6129 100.835 91.5385 99.8831 90.438 99.2431L27.7469 63.0467C27.7371 63.044 27.7279 63.0401 27.718 63.0362L23.9127 65.2308L23.9388 74.9598Z" fill="black"/>
<path d="M94.8914 109.49C94.8914 110.385 94.6881 112.446 92.8302 112.446C92.2336 112.446 91.5284 112.229 90.8099 111.809L23.6033 73.0117L23.5762 65.038L25.8543 63.7227L89.7658 100.608C92.559 102.221 94.9053 106.29 94.8914 109.49Z" fill="#978050"/>
<path d="M27.8643 63.0723C27.7489 63.0723 27.6361 63.0119 27.5738 62.9057C27.4807 62.7443 27.5351 62.5397 27.6958 62.4466L66.4671 39.9121C66.6265 39.8163 66.8324 39.8727 66.9262 40.0327C67.0193 40.1941 66.9649 40.3987 66.8043 40.4918L28.0329 63.0264C27.9798 63.0578 27.922 63.0723 27.8643 63.0723Z" fill="black"/>
<path d="M39.001 69.5049C38.8856 69.5049 38.7728 69.4445 38.7105 69.3383C38.6174 69.1769 38.6718 68.9723 38.8325 68.8792L77.6045 46.3447C77.7632 46.2489 77.9698 46.3054 78.0636 46.4654C78.1567 46.6267 78.1023 46.8313 77.9416 46.9245L39.1696 69.459C39.1165 69.4904 39.0588 69.5049 39.001 69.5049Z" fill="black"/>
<path d="M50.0254 75.9921C49.91 75.9921 49.7972 75.9317 49.7349 75.8255C49.6418 75.6641 49.6962 75.4595 49.8569 75.3664L79.8619 57.9267C80.0212 57.831 80.2271 57.8873 80.3209 58.0474C80.414 58.2088 80.3596 58.4134 80.199 58.5065L50.194 75.9462C50.1409 75.9777 50.0832 75.9921 50.0254 75.9921Z" fill="black"/>
<path d="M61.2774 82.3594C61.1619 82.3594 61.0491 82.299 60.9869 82.1928C60.8938 82.0314 60.9482 81.8268 61.1088 81.7337L99.8677 59.1992C100.027 59.1034 100.233 59.1598 100.327 59.3199C100.42 59.4812 100.366 59.6858 100.205 59.779L61.446 82.3135C61.3929 82.3449 61.3351 82.3594 61.2774 82.3594Z" fill="black"/>
<path d="M79.0928 84.8914C78.9774 84.8914 78.8646 84.8311 78.8023 84.7248C78.7092 84.5635 78.7636 84.3589 78.9243 84.2658L111.005 65.6206C111.164 65.5248 111.37 65.5812 111.464 65.7412C111.557 65.9026 111.503 66.1072 111.342 66.2003L79.2614 84.8455C79.2083 84.877 79.1506 84.8914 79.0928 84.8914Z" fill="black"/>
<path d="M83.5391 95.2128C83.4237 95.2128 83.3109 95.1524 83.2486 95.0462C83.1555 94.8848 83.2099 94.6802 83.3706 94.5871L122.143 72.0526C122.302 71.9581 122.508 72.0133 122.602 72.1733C122.695 72.3346 122.64 72.5393 122.48 72.6324L83.7077 95.1669C83.6546 95.1984 83.5968 95.2128 83.5391 95.2128Z" fill="black"/>
<path d="M93.8126 102.127C93.6971 102.127 93.5843 102.067 93.522 101.961C93.4289 101.799 93.4833 101.595 93.644 101.502L125.263 83.1346C125.422 83.0402 125.628 83.0953 125.722 83.2553C125.815 83.4167 125.761 83.6213 125.6 83.7144L93.9811 102.082C93.928 102.113 93.8703 102.127 93.8126 102.127Z" fill="black"/>
<path d="M87.6009 106.692C88.5844 106.12 88.5817 104.28 87.5948 102.582C86.6079 100.884 85.0105 99.971 84.027 100.543C83.0434 101.114 83.0461 102.954 84.0331 104.652C85.02 106.35 86.6173 107.264 87.6009 106.692Z" fill="#3C2C0B"/>
<path d="M73.904 93.848C72.5165 93.0469 71.3776 93.6868 71.3731 95.2902C71.3685 96.8936 72.5001 98.8445 73.8876 99.6455C75.283 100.451 76.4219 99.8111 76.4265 98.2078C76.431 96.6044 75.2995 94.6536 73.904 93.848Z" fill="#3C2C0B"/>
<path d="M61.9988 86.9744C60.6035 86.1688 59.4645 86.8087 59.46 88.4121C59.4554 90.0155 60.587 91.9664 61.9824 92.7721C63.3778 93.5777 64.5088 92.9331 64.5134 91.3297C64.5179 89.7263 63.3943 87.78 61.9988 86.9744Z" fill="#3C2C0B"/>
<path d="M51.8704 86.0669C52.854 85.4952 52.8512 83.6553 51.8643 81.9572C50.8774 80.2591 49.2801 79.346 48.2965 79.9176C47.3129 80.4892 47.3157 82.3292 48.3026 84.0273C49.2895 85.7253 50.8869 86.6385 51.8704 86.0669Z" fill="#3C2C0B"/>
<path d="M38.1834 73.2239C36.788 72.4183 35.6491 73.0583 35.6445 74.6617C35.64 76.265 36.7716 78.2159 38.167 79.0216C39.5545 79.8226 40.6934 79.1826 40.6979 77.5792C40.7025 75.9758 39.5709 74.025 38.1834 73.2239Z" fill="#3C2C0B"/>
<path d="M28.055 72.3178C29.0385 71.7462 29.0358 69.9063 28.0489 68.2082C27.062 66.5101 25.4646 65.5969 24.4811 66.1686C23.4975 66.7402 23.5002 68.5802 24.4872 70.2782C25.4741 71.9763 27.0714 72.8895 28.055 72.3178Z" fill="#3C2C0B"/>
<path d="M23.6588 81.5185C23.4738 81.5185 23.3243 81.3689 23.3229 81.184L23.2363 65.0455C23.2357 64.9248 23.3 64.8133 23.4042 64.753L77.9659 33.2513C78.1259 33.1582 78.3319 33.2133 78.4244 33.3747C78.5175 33.5347 78.4624 33.7406 78.3017 33.8337L23.9094 65.237L23.9946 81.1813C23.9959 81.3663 23.8463 81.5172 23.6607 81.5185C23.6601 81.5185 23.6594 81.5185 23.6588 81.5185Z" fill="black"/>
<path d="M93.4541 68.9434L73.2979 80.6562L73.3516 64.9219L93.5068 53.21L93.4541 68.9434Z" fill="#FFBE2E" stroke="black" stroke-width="0.604448"/>
<path d="M72.748 64.9219L72.6943 80.6602L52.4004 68.9424L52.4541 53.2051L72.748 64.9219Z" fill="#212121" stroke="black" stroke-width="0.604448"/>
<path d="M93.21 52.6841L73.0508 64.3989L52.7578 52.6821L72.916 40.9673L93.21 52.6841Z" fill="#FCF2D7" stroke="black" stroke-width="0.604448"/>
<mask id="path-46-inside-1_2322_39489" fill="white">
<path d="M79.3801 53.8398L85.6209 57.4424L81.2476 59.984L60.3496 47.92L64.7229 45.3784L72.9947 50.1536"/>
</mask>
<path d="M79.3801 53.8398L85.6209 57.4424L81.2476 59.984L60.3496 47.92L64.7229 45.3784L72.9947 50.1536" fill="#212121"/>
<path d="M79.3801 53.8398L79.5312 53.578L73.1458 49.8918L72.9947 50.1536L72.8436 50.4153L79.229 54.1015L79.3801 53.8398ZM82.0112 55.6896L82.1593 55.4262L72.4882 49.9862L72.34 50.2496L72.1918 50.513L81.863 55.953L82.0112 55.6896ZM85.6209 57.4424L85.9246 57.965L86.8269 57.4407L85.9231 56.9189L85.6209 57.4424ZM81.2476 59.984L80.9454 60.5075L81.2486 60.6825L81.5513 60.5066L81.2476 59.984ZM60.3496 47.92L60.0459 47.3974L59.1436 47.9218L60.0474 48.4435L60.3496 47.92ZM64.7229 45.3784L65.0251 44.8549L64.7219 44.6799L64.4192 44.8558L64.7229 45.3784ZM79.3801 53.8398L79.0779 54.3633L85.3187 57.9659L85.6209 57.4424L85.9231 56.9189L79.6823 53.3163L79.3801 53.8398ZM85.6209 57.4424L85.3172 56.9198L80.9439 59.4614L81.2476 59.984L81.5513 60.5066L85.9246 57.965L85.6209 57.4424ZM81.2476 59.984L81.5498 59.4605L60.6518 47.3965L60.3496 47.92L60.0474 48.4435L80.9454 60.5075L81.2476 59.984ZM60.3496 47.92L60.6533 48.4426L65.0266 45.901L64.7229 45.3784L64.4192 44.8558L60.0459 47.3974L60.3496 47.92ZM64.7229 45.3784L64.4207 45.9019L72.6925 50.677L72.9947 50.1536L73.2969 49.6301L65.0251 44.8549L64.7229 45.3784Z" fill="black" mask="url(#path-46-inside-1_2322_39489)"/>
<path d="M81.2488 59.984L85.6222 57.4424L85.6087 65.0364L81.2354 67.578L81.2488 59.984Z" fill="#212121"/>
<path d="M81.2361 67.914C81.1784 67.914 81.1201 67.8996 81.0683 67.8694C80.964 67.809 80.9004 67.6976 80.9004 67.5782L80.9135 59.9845C80.9135 59.8651 80.9771 59.7537 81.0808 59.6946L85.4542 57.1524C85.5571 57.092 85.6864 57.0907 85.7906 57.1511C85.8949 57.2115 85.9585 57.3229 85.9585 57.4423L85.9454 65.036C85.9454 65.1554 85.8817 65.2668 85.7781 65.3259L81.4047 67.8681C81.3529 67.8983 81.2945 67.914 81.2361 67.914ZM81.5844 60.1773L81.5733 66.9945L85.2744 64.8432L85.2855 58.026L81.5844 60.1773Z" fill="black"/>
<path d="M87.3042 125.542L87.2404 144.441L63.3662 158.315L63.4299 139.416L87.3042 125.542Z" fill="#FFBE2E"/>
<path d="M63.368 158.651C63.3103 158.651 63.2519 158.637 63.2001 158.607C63.0959 158.546 63.0316 158.435 63.0322 158.314L63.0959 139.416C63.0966 139.296 63.1601 139.186 63.2631 139.127L87.1377 125.253C87.2406 125.194 87.3699 125.19 87.4741 125.252C87.5783 125.312 87.6427 125.423 87.642 125.544L87.5777 144.443C87.577 144.562 87.5134 144.672 87.4104 144.731L63.5366 158.605C63.4847 158.636 63.4263 158.651 63.368 158.651ZM63.7668 139.611L63.7058 157.731L86.9067 144.247L86.9683 126.128L63.7668 139.611Z" fill="black"/>
<path d="M63.4313 139.418L63.3676 158.316L39.3369 144.442L39.4007 125.544L63.4313 139.418Z" fill="#16110D"/>
<path d="M63.3683 158.652C63.3106 158.652 63.2522 158.638 63.2004 158.607L39.1698 144.733C39.0655 144.673 39.0013 144.561 39.002 144.441L39.0656 125.542C39.0663 125.423 39.1298 125.313 39.2342 125.252C39.3378 125.192 39.4657 125.192 39.5693 125.252L63.5999 139.127C63.7042 139.187 63.7684 139.299 63.7678 139.419L63.7041 158.318C63.7034 158.437 63.6399 158.547 63.5356 158.607C63.4837 158.638 63.426 158.652 63.3683 158.652ZM39.6742 144.248L63.0344 157.735L63.0954 139.612L39.7351 126.125L39.6742 144.248Z" fill="black"/>
<path d="M86.7012 125.542L63.4307 139.067L40.0029 125.542L63.2754 112.018L86.7012 125.542Z" fill="#FFF7E4" stroke="black" stroke-width="0.604448"/>
<path d="M70.7127 126.873L77.8894 131.016L72.8603 133.939L48.8281 120.066L53.8574 117.143L63.3696 122.634" fill="#212121"/>
<path d="M72.8583 133.939L77.8875 131.017L77.872 139.75L72.8428 142.672L72.8583 133.939Z" fill="#212121"/>
</svg>
