<svg width="96" height="96" viewBox="0 0 96 96" fill="none" xmlns="http://www.w3.org/2000/svg">
<mask id="mask0_5541_21465" style="mask-type:alpha" maskUnits="userSpaceOnUse" x="0" y="0" width="96" height="96">
<rect x="-1" y="1" width="94" height="94" rx="47" transform="matrix(-1 0 0 1 94 0)" fill="#FFBE2E" stroke="white" stroke-width="2"/>
</mask>
<g mask="url(#mask0_5541_21465)">
<rect x="30" y="27" width="40" height="40" rx="20" fill="white"/>
<mask id="path-3-outside-1_5541_21465" maskUnits="userSpaceOnUse" x="17.1484" y="27" width="64" height="42" fill="black">
<rect fill="white" x="17.1484" y="27" width="64" height="42"/>
<path d="M68.3871 39.3725C71.2432 39.3725 73.543 35.9222 73.543 33.0662C73.543 29.7419 70.9509 28 68.3871 28C65.826 28 63.2312 29.7393 63.2312 33.0662C63.2312 35.9222 65.5311 39.3725 68.3871 39.3725ZM68.3871 29.0806C69.4633 29.0806 70.4619 29.4357 71.1992 30.0789C72.0219 30.7968 72.4565 31.8285 72.4565 33.0688C72.4565 35.3716 70.5395 38.2945 68.3871 38.2945C66.2322 38.2945 64.3178 35.3716 64.3178 33.0688C64.3178 30.3285 66.4262 29.0806 68.3871 29.0806ZM80.2252 50.8303C79.5862 44.7941 74.4976 40.2427 68.3845 40.2427C62.2714 40.2427 57.1802 44.7968 56.5438 50.8356C56.4946 51.3039 56.6369 51.7361 56.9525 52.086C57.2681 52.4359 57.6872 52.6212 58.1606 52.6212L78.6029 52.6186C79.0763 52.6186 79.4955 52.4334 79.811 52.0834C80.1344 51.7309 80.2744 51.2986 80.2252 50.8303ZM79.0119 51.3603C78.9007 51.4813 78.7739 51.5379 78.6084 51.5379L58.1661 51.5404C58.0005 51.5404 57.8737 51.4838 57.7625 51.3629C57.6513 51.242 57.6099 51.1082 57.6254 50.9461C58.2023 45.458 62.8304 41.3181 68.3873 41.3181C73.9415 41.3181 78.567 45.4555 79.1465 50.9408C79.1646 51.1055 79.1206 51.2394 79.0119 51.3603ZM30.3351 52.6211H45.7071C46.5349 52.6211 47.2075 51.9522 47.2075 51.1288V35.8402C47.2075 35.0168 46.5349 34.3478 45.7071 34.3478H30.3325C29.5046 34.3478 28.832 35.0168 28.832 35.8402V51.1288C28.8346 51.9522 29.5073 52.6211 30.3351 52.6211ZM39.8036 35.4262V39.1699L38.2695 38.3877C38.1919 38.3491 38.1065 38.3286 38.0211 38.3286C37.9358 38.3286 37.8504 38.3491 37.7728 38.3877L36.2387 39.1699V35.4262H39.8036ZM29.9185 35.8405C29.9185 35.6115 30.1048 35.4262 30.335 35.4262H35.1546V40.0524C35.1546 40.2402 35.2529 40.4152 35.4133 40.513C35.5737 40.6108 35.7755 40.6185 35.9436 40.5336L38.021 39.4735L40.0983 40.5336C40.1759 40.5722 40.2613 40.5927 40.3466 40.5927C40.445 40.5927 40.5433 40.567 40.6286 40.513C40.789 40.4152 40.8873 40.2403 40.8873 40.0524V35.4262H45.7069C45.9371 35.4262 46.1234 35.6115 46.1234 35.8405V51.1292C46.1234 51.3581 45.9371 51.5434 45.7069 51.5434H30.3349C30.1047 51.5434 29.9184 51.3581 29.9184 51.1292L29.9185 35.8405ZM44.5143 55.3717L37.9045 58.2818C37.9459 57.7183 37.7829 57.0107 37.3535 56.5322C37.0249 56.1668 36.5851 55.997 36.1143 56.051C34.6061 56.2234 33.085 55.8452 31.6129 55.4773C29.502 54.9498 27.3185 54.4069 25.4636 55.732L22.8999 57.5665C22.6878 57.2012 22.3489 56.9362 21.9402 56.8204C21.5211 56.702 21.0838 56.7509 20.7036 56.9619L18.9858 57.9113C18.2019 58.3436 17.9173 59.3316 18.352 60.1112L22.2894 67.1663C22.4989 67.5446 22.8456 67.8173 23.2647 67.9357C23.4147 67.9794 23.5648 68 23.7148 68C23.9865 68 24.2555 67.9305 24.5013 67.7967L26.2191 66.8473C26.5993 66.6389 26.8736 66.2941 26.9926 65.8773C27.1064 65.481 27.065 65.0668 26.8788 64.7014L27.5281 64.4441C27.9342 64.2846 28.3068 64.2305 28.7414 64.2717L34.8854 64.8481C36.0781 64.9587 37.0973 64.7271 38.0002 64.1405L46.6229 58.5108C47.7741 57.7595 47.7819 56.7638 47.4404 56.1411C46.9929 55.3254 45.7768 54.8134 44.5143 55.3717ZM25.9502 65.5813C25.9114 65.7202 25.8183 65.836 25.6941 65.9055L23.9763 66.8549C23.8495 66.9244 23.7047 66.9398 23.565 66.9012C23.4253 66.8626 23.3089 66.77 23.239 66.6465L19.299 59.5861C19.1542 59.3262 19.2499 58.9969 19.5112 58.8528L21.229 57.9033C21.3092 57.8596 21.3997 57.8365 21.4903 57.8365C21.5394 57.8365 21.5911 57.8442 21.6403 57.857C21.78 57.8956 21.8964 57.9883 21.9663 58.1118L25.9037 65.1669C25.9735 65.2956 25.989 65.4398 25.9502 65.5813ZM46.0276 57.6099L37.4048 63.2396C36.7063 63.695 35.938 63.8648 34.9886 63.7774L28.8445 63.201C28.2392 63.1444 27.6933 63.2216 27.1267 63.4454L26.3506 63.7516L23.4299 58.5182L26.097 56.6091C27.5432 55.5747 29.3075 56.0147 31.3512 56.5242C32.9164 56.9153 34.5358 57.3192 36.2406 57.1237C36.326 57.1134 36.4295 57.1211 36.5485 57.2549C36.7891 57.5225 36.877 58.0319 36.8046 58.3407C36.7477 58.5954 36.595 58.809 36.3933 58.953C36.3752 58.9633 36.3596 58.9762 36.3415 58.9865C36.1397 59.1126 35.894 59.1717 35.6456 59.1357L32.5076 58.6983C32.2101 58.6571 31.9359 58.863 31.8945 59.1563C31.8531 59.4522 32.06 59.7249 32.3549 59.7661L35.493 60.2035C36.0052 60.2755 36.507 60.1546 36.921 59.8947L44.9536 56.3569C45.7142 56.0224 46.3092 56.3312 46.4877 56.6579C46.7257 57.0902 46.2449 57.4659 46.0276 57.6099Z"/>
</mask>
<path d="M68.3871 39.3725C71.2432 39.3725 73.543 35.9222 73.543 33.0662C73.543 29.7419 70.9509 28 68.3871 28C65.826 28 63.2312 29.7393 63.2312 33.0662C63.2312 35.9222 65.5311 39.3725 68.3871 39.3725ZM68.3871 29.0806C69.4633 29.0806 70.4619 29.4357 71.1992 30.0789C72.0219 30.7968 72.4565 31.8285 72.4565 33.0688C72.4565 35.3716 70.5395 38.2945 68.3871 38.2945C66.2322 38.2945 64.3178 35.3716 64.3178 33.0688C64.3178 30.3285 66.4262 29.0806 68.3871 29.0806ZM80.2252 50.8303C79.5862 44.7941 74.4976 40.2427 68.3845 40.2427C62.2714 40.2427 57.1802 44.7968 56.5438 50.8356C56.4946 51.3039 56.6369 51.7361 56.9525 52.086C57.2681 52.4359 57.6872 52.6212 58.1606 52.6212L78.6029 52.6186C79.0763 52.6186 79.4955 52.4334 79.811 52.0834C80.1344 51.7309 80.2744 51.2986 80.2252 50.8303ZM79.0119 51.3603C78.9007 51.4813 78.7739 51.5379 78.6084 51.5379L58.1661 51.5404C58.0005 51.5404 57.8737 51.4838 57.7625 51.3629C57.6513 51.242 57.6099 51.1082 57.6254 50.9461C58.2023 45.458 62.8304 41.3181 68.3873 41.3181C73.9415 41.3181 78.567 45.4555 79.1465 50.9408C79.1646 51.1055 79.1206 51.2394 79.0119 51.3603ZM30.3351 52.6211H45.7071C46.5349 52.6211 47.2075 51.9522 47.2075 51.1288V35.8402C47.2075 35.0168 46.5349 34.3478 45.7071 34.3478H30.3325C29.5046 34.3478 28.832 35.0168 28.832 35.8402V51.1288C28.8346 51.9522 29.5073 52.6211 30.3351 52.6211ZM39.8036 35.4262V39.1699L38.2695 38.3877C38.1919 38.3491 38.1065 38.3286 38.0211 38.3286C37.9358 38.3286 37.8504 38.3491 37.7728 38.3877L36.2387 39.1699V35.4262H39.8036ZM29.9185 35.8405C29.9185 35.6115 30.1048 35.4262 30.335 35.4262H35.1546V40.0524C35.1546 40.2402 35.2529 40.4152 35.4133 40.513C35.5737 40.6108 35.7755 40.6185 35.9436 40.5336L38.021 39.4735L40.0983 40.5336C40.1759 40.5722 40.2613 40.5927 40.3466 40.5927C40.445 40.5927 40.5433 40.567 40.6286 40.513C40.789 40.4152 40.8873 40.2403 40.8873 40.0524V35.4262H45.7069C45.9371 35.4262 46.1234 35.6115 46.1234 35.8405V51.1292C46.1234 51.3581 45.9371 51.5434 45.7069 51.5434H30.3349C30.1047 51.5434 29.9184 51.3581 29.9184 51.1292L29.9185 35.8405ZM44.5143 55.3717L37.9045 58.2818C37.9459 57.7183 37.7829 57.0107 37.3535 56.5322C37.0249 56.1668 36.5851 55.997 36.1143 56.051C34.6061 56.2234 33.085 55.8452 31.6129 55.4773C29.502 54.9498 27.3185 54.4069 25.4636 55.732L22.8999 57.5665C22.6878 57.2012 22.3489 56.9362 21.9402 56.8204C21.5211 56.702 21.0838 56.7509 20.7036 56.9619L18.9858 57.9113C18.2019 58.3436 17.9173 59.3316 18.352 60.1112L22.2894 67.1663C22.4989 67.5446 22.8456 67.8173 23.2647 67.9357C23.4147 67.9794 23.5648 68 23.7148 68C23.9865 68 24.2555 67.9305 24.5013 67.7967L26.2191 66.8473C26.5993 66.6389 26.8736 66.2941 26.9926 65.8773C27.1064 65.481 27.065 65.0668 26.8788 64.7014L27.5281 64.4441C27.9342 64.2846 28.3068 64.2305 28.7414 64.2717L34.8854 64.8481C36.0781 64.9587 37.0973 64.7271 38.0002 64.1405L46.6229 58.5108C47.7741 57.7595 47.7819 56.7638 47.4404 56.1411C46.9929 55.3254 45.7768 54.8134 44.5143 55.3717ZM25.9502 65.5813C25.9114 65.7202 25.8183 65.836 25.6941 65.9055L23.9763 66.8549C23.8495 66.9244 23.7047 66.9398 23.565 66.9012C23.4253 66.8626 23.3089 66.77 23.239 66.6465L19.299 59.5861C19.1542 59.3262 19.2499 58.9969 19.5112 58.8528L21.229 57.9033C21.3092 57.8596 21.3997 57.8365 21.4903 57.8365C21.5394 57.8365 21.5911 57.8442 21.6403 57.857C21.78 57.8956 21.8964 57.9883 21.9663 58.1118L25.9037 65.1669C25.9735 65.2956 25.989 65.4398 25.9502 65.5813ZM46.0276 57.6099L37.4048 63.2396C36.7063 63.695 35.938 63.8648 34.9886 63.7774L28.8445 63.201C28.2392 63.1444 27.6933 63.2216 27.1267 63.4454L26.3506 63.7516L23.4299 58.5182L26.097 56.6091C27.5432 55.5747 29.3075 56.0147 31.3512 56.5242C32.9164 56.9153 34.5358 57.3192 36.2406 57.1237C36.326 57.1134 36.4295 57.1211 36.5485 57.2549C36.7891 57.5225 36.877 58.0319 36.8046 58.3407C36.7477 58.5954 36.595 58.809 36.3933 58.953C36.3752 58.9633 36.3596 58.9762 36.3415 58.9865C36.1397 59.1126 35.894 59.1717 35.6456 59.1357L32.5076 58.6983C32.2101 58.6571 31.9359 58.863 31.8945 59.1563C31.8531 59.4522 32.06 59.7249 32.3549 59.7661L35.493 60.2035C36.0052 60.2755 36.507 60.1546 36.921 59.8947L44.9536 56.3569C45.7142 56.0224 46.3092 56.3312 46.4877 56.6579C46.7257 57.0902 46.2449 57.4659 46.0276 57.6099Z" fill="black"/>
<path d="M68.3871 39.3725C71.2432 39.3725 73.543 35.9222 73.543 33.0662C73.543 29.7419 70.9509 28 68.3871 28C65.826 28 63.2312 29.7393 63.2312 33.0662C63.2312 35.9222 65.5311 39.3725 68.3871 39.3725ZM68.3871 29.0806C69.4633 29.0806 70.4619 29.4357 71.1992 30.0789C72.0219 30.7968 72.4565 31.8285 72.4565 33.0688C72.4565 35.3716 70.5395 38.2945 68.3871 38.2945C66.2322 38.2945 64.3178 35.3716 64.3178 33.0688C64.3178 30.3285 66.4262 29.0806 68.3871 29.0806ZM80.2252 50.8303C79.5862 44.7941 74.4976 40.2427 68.3845 40.2427C62.2714 40.2427 57.1802 44.7968 56.5438 50.8356C56.4946 51.3039 56.6369 51.7361 56.9525 52.086C57.2681 52.4359 57.6872 52.6212 58.1606 52.6212L78.6029 52.6186C79.0763 52.6186 79.4955 52.4334 79.811 52.0834C80.1344 51.7309 80.2744 51.2986 80.2252 50.8303ZM79.0119 51.3603C78.9007 51.4813 78.7739 51.5379 78.6084 51.5379L58.1661 51.5404C58.0005 51.5404 57.8737 51.4838 57.7625 51.3629C57.6513 51.242 57.6099 51.1082 57.6254 50.9461C58.2023 45.458 62.8304 41.3181 68.3873 41.3181C73.9415 41.3181 78.567 45.4555 79.1465 50.9408C79.1646 51.1055 79.1206 51.2394 79.0119 51.3603ZM30.3351 52.6211H45.7071C46.5349 52.6211 47.2075 51.9522 47.2075 51.1288V35.8402C47.2075 35.0168 46.5349 34.3478 45.7071 34.3478H30.3325C29.5046 34.3478 28.832 35.0168 28.832 35.8402V51.1288C28.8346 51.9522 29.5073 52.6211 30.3351 52.6211ZM39.8036 35.4262V39.1699L38.2695 38.3877C38.1919 38.3491 38.1065 38.3286 38.0211 38.3286C37.9358 38.3286 37.8504 38.3491 37.7728 38.3877L36.2387 39.1699V35.4262H39.8036ZM29.9185 35.8405C29.9185 35.6115 30.1048 35.4262 30.335 35.4262H35.1546V40.0524C35.1546 40.2402 35.2529 40.4152 35.4133 40.513C35.5737 40.6108 35.7755 40.6185 35.9436 40.5336L38.021 39.4735L40.0983 40.5336C40.1759 40.5722 40.2613 40.5927 40.3466 40.5927C40.445 40.5927 40.5433 40.567 40.6286 40.513C40.789 40.4152 40.8873 40.2403 40.8873 40.0524V35.4262H45.7069C45.9371 35.4262 46.1234 35.6115 46.1234 35.8405V51.1292C46.1234 51.3581 45.9371 51.5434 45.7069 51.5434H30.3349C30.1047 51.5434 29.9184 51.3581 29.9184 51.1292L29.9185 35.8405ZM44.5143 55.3717L37.9045 58.2818C37.9459 57.7183 37.7829 57.0107 37.3535 56.5322C37.0249 56.1668 36.5851 55.997 36.1143 56.051C34.6061 56.2234 33.085 55.8452 31.6129 55.4773C29.502 54.9498 27.3185 54.4069 25.4636 55.732L22.8999 57.5665C22.6878 57.2012 22.3489 56.9362 21.9402 56.8204C21.5211 56.702 21.0838 56.7509 20.7036 56.9619L18.9858 57.9113C18.2019 58.3436 17.9173 59.3316 18.352 60.1112L22.2894 67.1663C22.4989 67.5446 22.8456 67.8173 23.2647 67.9357C23.4147 67.9794 23.5648 68 23.7148 68C23.9865 68 24.2555 67.9305 24.5013 67.7967L26.2191 66.8473C26.5993 66.6389 26.8736 66.2941 26.9926 65.8773C27.1064 65.481 27.065 65.0668 26.8788 64.7014L27.5281 64.4441C27.9342 64.2846 28.3068 64.2305 28.7414 64.2717L34.8854 64.8481C36.0781 64.9587 37.0973 64.7271 38.0002 64.1405L46.6229 58.5108C47.7741 57.7595 47.7819 56.7638 47.4404 56.1411C46.9929 55.3254 45.7768 54.8134 44.5143 55.3717ZM25.9502 65.5813C25.9114 65.7202 25.8183 65.836 25.6941 65.9055L23.9763 66.8549C23.8495 66.9244 23.7047 66.9398 23.565 66.9012C23.4253 66.8626 23.3089 66.77 23.239 66.6465L19.299 59.5861C19.1542 59.3262 19.2499 58.9969 19.5112 58.8528L21.229 57.9033C21.3092 57.8596 21.3997 57.8365 21.4903 57.8365C21.5394 57.8365 21.5911 57.8442 21.6403 57.857C21.78 57.8956 21.8964 57.9883 21.9663 58.1118L25.9037 65.1669C25.9735 65.2956 25.989 65.4398 25.9502 65.5813ZM46.0276 57.6099L37.4048 63.2396C36.7063 63.695 35.938 63.8648 34.9886 63.7774L28.8445 63.201C28.2392 63.1444 27.6933 63.2216 27.1267 63.4454L26.3506 63.7516L23.4299 58.5182L26.097 56.6091C27.5432 55.5747 29.3075 56.0147 31.3512 56.5242C32.9164 56.9153 34.5358 57.3192 36.2406 57.1237C36.326 57.1134 36.4295 57.1211 36.5485 57.2549C36.7891 57.5225 36.877 58.0319 36.8046 58.3407C36.7477 58.5954 36.595 58.809 36.3933 58.953C36.3752 58.9633 36.3596 58.9762 36.3415 58.9865C36.1397 59.1126 35.894 59.1717 35.6456 59.1357L32.5076 58.6983C32.2101 58.6571 31.9359 58.863 31.8945 59.1563C31.8531 59.4522 32.06 59.7249 32.3549 59.7661L35.493 60.2035C36.0052 60.2755 36.507 60.1546 36.921 59.8947L44.9536 56.3569C45.7142 56.0224 46.3092 56.3312 46.4877 56.6579C46.7257 57.0902 46.2449 57.4659 46.0276 57.6099Z" stroke="black" stroke-width="0.6" mask="url(#path-3-outside-1_5541_21465)"/>
<path d="M42.6593 65.4208L44.6518 70.8396L48.3484 66.4046L42.6593 65.4208ZM66.3888 56.9997L62.5603 61.3214L68.2172 62.4761L66.3888 56.9997ZM46.117 68.3028L45.8638 68.7339C53.2751 73.0869 62.9336 69.4231 65.9555 61.5878L65.489 61.4078L65.0224 61.2279C62.2133 68.5118 53.2273 71.8992 46.3702 67.8717L46.117 68.3028Z" fill="black"/>
<path d="M34.8368 30.3239L34.0825 24.5999L39.4168 26.8086L34.8368 30.3239ZM59.7614 26.7512L54.363 24.7041L58.8351 21.0525L59.7614 26.7512ZM36.5588 26.1651L36.1342 25.901C40.6732 18.6021 50.928 17.3571 57.2454 22.8902L56.9159 23.2664L56.5865 23.6425C50.7138 18.4988 41.183 19.676 36.9834 26.4291L36.5588 26.1651Z" fill="black"/>
</g>
</svg>
