<svg width="55" height="54" viewBox="0 0 55 54" fill="none" xmlns="http://www.w3.org/2000/svg">
<circle cx="25.3388" cy="28.4726" r="25.3388" fill="#FFBE2E"/>
<path d="M42.2336 1.53125H17.3914C15.8285 1.53328 14.3302 2.15504 13.225 3.26019C12.1199 4.36533 11.4981 5.86365 11.4961 7.42656V39.8393C11.4977 41.1843 12.0327 42.4737 12.9837 43.4247C13.9348 44.3757 15.2242 44.9107 16.5691 44.9123H36.1278C37.0431 45.7825 38.0649 46.5331 39.1688 47.1464C39.5521 47.3569 39.9823 47.4672 40.4195 47.4672C40.8567 47.4672 41.2869 47.3569 41.6701 47.1464C44.0251 45.8412 45.9867 43.928 47.3503 41.6064C48.2209 40.1005 48.6747 38.3899 48.6649 36.6505V30.354C48.665 30.193 48.6144 30.0361 48.5203 29.9055C48.4261 29.7749 48.2932 29.6773 48.1404 29.6266L43.0008 27.9269V2.29688C43.0008 2.1962 42.9809 2.09652 42.9424 2.00353C42.9038 1.91054 42.8473 1.82607 42.776 1.75496C42.7048 1.68384 42.6202 1.62748 42.5271 1.58909C42.434 1.55071 42.3343 1.53105 42.2336 1.53125ZM41.468 27.4201L40.6572 27.1521C40.5012 27.1001 40.3324 27.1001 40.1764 27.1521L33.5201 29.3541H24.4329C24.2298 29.3541 24.0351 29.4347 23.8915 29.5783C23.7479 29.7219 23.6672 29.9166 23.6672 30.1197C23.6672 30.3227 23.7479 30.5175 23.8915 30.6611C24.0351 30.8047 24.2298 30.8853 24.4329 30.8853H32.1657V34.7732H18.8438V3.0625H41.468V27.4201ZM17.3141 3.06633V34.7732H16.5684C15.2433 34.7705 13.9707 35.2904 13.0266 36.2202V7.42656C13.0284 6.28325 13.4784 5.18622 14.28 4.371C15.0817 3.55578 16.171 3.08737 17.3141 3.06633ZM13.0266 39.8393C13.0292 38.9014 13.4034 38.0028 14.0673 37.3402C14.7311 36.6777 15.6305 36.3052 16.5684 36.3044H32.1695V36.6497C32.173 37.4671 32.2759 38.2811 32.4757 39.0737H18.7757C18.5726 39.0737 18.3779 39.1543 18.2343 39.2979C18.0907 39.4415 18.01 39.6362 18.01 39.8393C18.01 40.0424 18.0907 40.2371 18.2343 40.3807C18.3779 40.5243 18.5726 40.6049 18.7757 40.6049H32.9887C33.1343 40.9481 33.3002 41.2822 33.4856 41.6056C33.8531 42.2259 34.2642 42.8192 34.716 43.3811H16.5707C15.6312 43.3807 14.7304 43.0075 14.0659 42.3434C13.4014 41.6793 13.0276 40.7787 13.0266 39.8393ZM47.1321 36.6497C47.1417 38.1168 46.7604 39.5599 46.0273 40.8308C44.803 42.9167 43.0409 44.6354 40.9252 45.8073C40.7695 45.8929 40.5948 45.9377 40.4172 45.9377C40.2396 45.9377 40.0649 45.8929 39.9092 45.8073C37.7933 44.6354 36.0309 42.9167 34.8063 40.8308C34.0729 39.56 33.6913 38.1169 33.7007 36.6497V30.9075L40.4168 28.6872L47.1321 30.9075V36.6497Z" fill="black"/>
<path d="M21 13.7046C21.0036 15.9231 21.8156 18.0643 23.2841 19.7273C24.7525 21.3902 26.7768 22.461 28.9778 22.739C28.9939 22.739 29.0077 22.7482 29.0237 22.7482H29.0299C29.7495 22.8431 30.4785 22.8431 31.1981 22.7482H31.2043C31.2195 22.7459 31.2345 22.7429 31.2494 22.739C33.4502 22.4621 35.4742 21.3915 36.9415 19.728C38.4088 18.0646 39.2185 15.9227 39.2185 13.7046C39.2185 11.4865 38.4088 9.34465 36.9415 7.68119C35.4742 6.01774 33.4502 4.94709 31.2494 4.67024C31.2345 4.66637 31.2195 4.6633 31.2043 4.66105H31.1981C30.4785 4.56611 29.7495 4.56611 29.0299 4.66105H29.0237C29.0077 4.66105 28.9939 4.66947 28.9778 4.67024C26.7768 4.94827 24.7525 6.019 23.2841 7.68196C21.8156 9.34492 21.0036 11.4861 21 13.7046ZM22.5695 14.4702H24.8251C24.9388 16.6215 25.6169 18.7049 26.7912 20.511C25.6326 19.9452 24.6371 19.0938 23.8986 18.037C23.16 16.9802 22.7026 15.7527 22.5695 14.4702ZM30.8796 14.4702H33.8717C33.7353 17.0108 32.6705 19.4128 30.8796 21.22V14.4702ZM30.8796 12.939V6.18694C32.6707 7.9949 33.7355 10.3977 33.8717 12.939H30.8796ZM29.3484 12.939H26.3563C26.4925 10.3977 27.5573 7.9949 29.3484 6.18694V12.939ZM29.3484 14.4702V21.22C27.5575 19.4128 26.4927 17.0108 26.3563 14.4702H29.3484ZM33.436 20.511C34.6109 18.7051 35.2893 16.6216 35.4029 14.4702H37.6631C37.5292 15.7528 37.0708 16.98 36.3313 18.0364C35.5917 19.0927 34.5953 19.9433 33.436 20.508V20.511ZM37.6631 12.939H35.4029C35.2885 10.788 34.6102 8.70489 33.436 6.89897C34.5957 7.46381 35.5922 8.31475 36.3318 9.37152C37.0714 10.4283 37.5295 11.6561 37.6631 12.939ZM26.7912 6.89591C25.6168 8.70279 24.9387 10.787 24.8251 12.939H22.5695C22.702 11.656 23.159 10.428 23.8977 9.37067C24.6363 8.31336 25.6321 7.46165 26.7912 6.89591Z" fill="black"/>
<path d="M37.5143 25.3188H22.7109C22.5079 25.3188 22.3131 25.3995 22.1696 25.5431C22.026 25.6867 21.9453 25.8814 21.9453 26.0845C21.9453 26.2875 22.026 26.4823 22.1696 26.6259C22.3131 26.7694 22.5079 26.8501 22.7109 26.8501H37.5143C37.7174 26.8501 37.9121 26.7694 38.0557 26.6259C38.1993 26.4823 38.2799 26.2875 38.2799 26.0845C38.2799 25.8814 38.1993 25.6867 38.0557 25.5431C37.9121 25.3995 37.7174 25.3188 37.5143 25.3188Z" fill="black"/>
<path d="M37.676 35.9498C37.5324 35.806 37.3376 35.725 37.1343 35.7248C36.9311 35.7246 36.7361 35.8051 36.5922 35.9487C36.4483 36.0922 36.3674 36.2871 36.3672 36.4903C36.367 36.6935 36.4475 36.8885 36.5911 37.0324L38.9431 39.3852C39.0866 39.5287 39.2813 39.6093 39.4844 39.6093C39.6874 39.6093 39.8821 39.5287 40.0257 39.3852L45.0642 34.3466C45.1374 34.276 45.1957 34.1915 45.2358 34.0981C45.2759 34.0047 45.2971 33.9042 45.2979 33.8026C45.2988 33.7009 45.2795 33.6001 45.241 33.506C45.2025 33.4119 45.1456 33.3264 45.0737 33.2545C45.0018 33.1826 44.9164 33.1258 44.8223 33.0873C44.7282 33.0488 44.6274 33.0294 44.5257 33.0303C44.424 33.0312 44.3236 33.0523 44.2302 33.0924C44.1368 33.1326 44.0523 33.1909 43.9816 33.264L39.4844 37.7613L37.676 35.9498Z" fill="black"/>
</svg>
