<svg width="55" height="54" viewBox="0 0 55 54" fill="none" xmlns="http://www.w3.org/2000/svg">
<circle cx="25.3388" cy="28.4726" r="25.3388" fill="#FFBE2E"/>
<g clip-path="url(#clip0_5973_21185)">
<path d="M46.0003 34.9906C45.6976 34.9906 45.4524 35.236 45.4524 35.5385V38.1428C45.4524 38.7892 44.9264 39.3154 44.2799 39.3154H8.4247C7.77813 39.3154 7.25215 38.7892 7.25215 38.1428V10.8567C7.25215 10.2104 7.77813 9.68418 8.4247 9.68418H20.7548V18.8531C20.7548 19.4378 21.0733 19.9749 21.5861 20.2554C21.8256 20.3863 22.0894 20.4515 22.3529 20.4515C22.6532 20.4515 22.953 20.3667 23.2152 20.1986L26.3525 18.1878L29.4897 20.1986C29.9816 20.5139 30.6055 20.5357 31.1189 20.2554C31.6317 19.9749 31.9502 19.4378 31.9502 18.8531V9.68418H44.2798C44.9263 9.68418 45.4523 10.2104 45.4523 10.8567V20.6974C45.4523 20.9999 45.6976 21.2453 46.0002 21.2453C46.3029 21.2453 46.5481 20.9999 46.5481 20.6974V10.8567C46.5481 9.60609 45.5306 8.58838 44.2798 8.58838C39.2118 8.58838 13.6451 8.58838 8.42461 8.58838C7.17377 8.58838 6.15625 9.60609 6.15625 10.8567V38.1427C6.15625 39.3934 7.17377 40.4111 8.42461 40.4111H44.2798C45.5306 40.4111 46.5481 39.3934 46.5481 38.1427V35.5384C46.5482 35.236 46.303 34.9906 46.0003 34.9906ZM21.8507 9.68428H30.8545V18.8532C30.8545 19.1221 30.6717 19.251 30.5932 19.2941C30.5149 19.3377 30.3074 19.4215 30.0813 19.2763L26.6483 17.0761C26.4678 16.9605 26.2373 16.9605 26.0569 17.0761L22.6239 19.2763C22.3977 19.4215 22.1904 19.3377 22.112 19.2941C22.0335 19.251 21.8507 19.1221 21.8507 18.8532V9.68428Z" fill="black"/>
<path d="M30.9391 22.8892C30.9391 22.5867 30.6938 22.3413 30.3912 22.3413H10.2237C9.92097 22.3413 9.67578 22.5867 9.67578 22.8892C9.67578 23.1917 9.92107 23.4371 10.2237 23.4371H30.3912C30.6939 23.4371 30.9391 23.1916 30.9391 22.8892Z" fill="black"/>
<path d="M21.3022 27.1446C21.6049 27.1446 21.8501 26.8992 21.8501 26.5967C21.8501 26.2942 21.6048 26.0488 21.3022 26.0488H10.2237C9.92097 26.0488 9.67578 26.2942 9.67578 26.5967C9.67578 26.8992 9.92107 27.1446 10.2237 27.1446H21.3022Z" fill="black"/>
<path d="M9.67578 33.6005C9.67578 34.5083 10.4143 35.2467 11.322 35.2467H22.5702C23.4781 35.2467 24.2166 34.5083 24.2166 33.6005V31.4035C24.2166 30.4957 23.4781 29.7573 22.5702 29.7573H11.3221C10.4144 29.7573 9.67588 30.4957 9.67588 31.4035L9.67578 33.6005ZM10.7717 31.4035C10.7717 31.0999 11.0185 30.8531 11.3221 30.8531H22.5703C22.8739 30.8531 23.1209 31.0999 23.1209 31.4035V33.6005C23.1209 33.904 22.8739 34.1509 22.5703 34.1509H11.3221C11.0185 34.1509 10.7717 33.904 10.7717 33.6005V31.4035Z" fill="black"/>
<path d="M52.0081 22.3413H36.791C35.6892 22.3413 34.793 23.2378 34.793 24.3393V31.8966C34.793 32.9981 35.6892 33.8946 36.791 33.8946H52.0081C53.1099 33.8946 54.0061 32.9981 54.0061 31.8966V24.3393C54.0061 23.2377 53.1099 22.3413 52.0081 22.3413ZM52.9102 31.8965C52.9102 32.3938 52.5055 32.7986 52.0081 32.7986H36.791C36.2935 32.7986 35.8889 32.3938 35.8889 31.8965V24.3392C35.8889 23.8419 36.2936 23.4371 36.791 23.4371H52.0081C52.5056 23.4371 52.9102 23.8419 52.9102 24.3392V31.8965Z" fill="black"/>
<path d="M38.3565 24.769C38.0538 24.769 37.8086 25.0144 37.8086 25.3169V30.9191C37.8086 31.2216 38.0539 31.467 38.3565 31.467C38.6592 31.467 38.9044 31.2216 38.9044 30.9191V25.3169C38.9044 25.0144 38.6591 24.769 38.3565 24.769Z" fill="black"/>
<path d="M41.4112 25.5923C41.1085 25.5923 40.8633 25.8377 40.8633 26.1402V30.0947C40.8633 30.3973 41.1086 30.6426 41.4112 30.6426C41.7139 30.6426 41.9591 30.3973 41.9591 30.0947V26.1402C41.9591 25.8377 41.7139 25.5923 41.4112 25.5923Z" fill="black"/>
<path d="M44.419 24.769C44.1163 24.769 43.8711 25.0144 43.8711 25.3169V30.9191C43.8711 31.2216 44.1164 31.467 44.419 31.467C44.7216 31.467 44.9669 31.2216 44.9669 30.9191V25.3169C44.9669 25.0144 44.7216 24.769 44.419 24.769Z" fill="black"/>
<path d="M50.4463 24.769C50.1436 24.769 49.8984 25.0144 49.8984 25.3169V30.9191C49.8984 31.2216 50.1437 31.467 50.4463 31.467C50.7489 31.467 50.9942 31.2216 50.9942 30.9191V25.3169C50.9942 25.0144 50.749 24.769 50.4463 24.769Z" fill="black"/>
<path d="M47.4737 25.5923C47.171 25.5923 46.9258 25.8377 46.9258 26.1402V30.0947C46.9258 30.3973 47.1711 30.6426 47.4737 30.6426C47.7763 30.6426 48.0216 30.3973 48.0216 30.0947V26.1402C48.0216 25.8377 47.7764 25.5923 47.4737 25.5923Z" fill="black"/>
</g>
<defs>
<clipPath id="clip0_5973_21185">
<rect width="49" height="49" fill="white" transform="translate(5.58203)"/>
</clipPath>
</defs>
</svg>
