<svg width="55" height="55" viewBox="0 0 55 55" fill="none" xmlns="http://www.w3.org/2000/svg">
<circle cx="25.3388" cy="28.7275" r="25.3388" fill="#FFBE2E"/>
<g clip-path="url(#clip0_5973_21121)">
<path d="M19.3551 29.7056H12.7539V31.3559H19.3551V29.7056Z" fill="black"/>
<path d="M54.7475 39.2384L52.2721 34.2875C52.1323 34.0079 51.8465 33.8314 51.534 33.8314H46.5831V31.3559C46.5831 30.9002 46.2136 30.5308 45.7579 30.5308H29.2548C28.7991 30.5308 28.4297 30.9002 28.4297 31.3559V46.2087C28.4297 46.6644 28.7991 47.0338 29.2548 47.0338H32.6726C33.1194 48.792 34.907 49.855 36.6651 49.4082C37.8319 49.1117 38.743 48.2006 39.0395 47.0338H45.0499C45.4967 48.792 47.2843 49.855 49.0424 49.4082C50.2092 49.1117 51.1203 48.2006 51.4168 47.0338H54.0094C54.4651 47.0338 54.8346 46.6644 54.8346 46.2087V39.6074C54.8346 39.4793 54.8048 39.353 54.7475 39.2384ZM35.8561 47.859C34.9446 47.859 34.2058 47.1202 34.2058 46.2087C34.2058 45.2972 34.9446 44.5584 35.8561 44.5584C36.7675 44.5584 37.5064 45.2972 37.5064 46.2087C37.5054 47.1197 36.7671 47.858 35.8561 47.859ZM44.9327 45.3835H39.0395C38.6654 43.93 37.3569 42.9126 35.8561 42.9081C34.3552 42.9126 33.0467 43.93 32.6726 45.3835H30.08V32.1811H44.9327V45.3835ZM49.8837 35.4817H51.0239L52.6743 38.7823H49.8837V35.4817ZM48.2334 47.859C47.3219 47.859 46.5831 47.1202 46.5831 46.2087C46.5831 45.2972 47.3219 44.5584 48.2334 44.5584C49.1448 44.5584 49.8837 45.2972 49.8837 46.2087C49.8827 47.1197 49.1444 47.858 48.2334 47.859ZM53.1843 45.3835H51.4168C51.0427 43.93 49.7342 42.9126 48.2334 42.9081C47.6521 42.9114 47.0825 43.0699 46.5831 43.3673V35.4817H48.2334V39.6074C48.2334 40.0631 48.6028 40.4326 49.0585 40.4326H53.1843V45.3835Z" fill="black"/>
<path d="M25.1299 11.5522H23.4805V13.2026H25.1299V11.5522Z" fill="black"/>
<path d="M28.4307 11.5522H26.7812V13.2026H28.4307V11.5522Z" fill="black"/>
<path d="M31.7315 11.5522H30.082V13.2026H31.7315V11.5522Z" fill="black"/>
<path d="M35.0323 11.5522H33.3828V13.2026H35.0323V11.5522Z" fill="black"/>
<path d="M50.7817 13.7826L48.2253 11.2258C46.3246 9.32753 43.7501 8.25834 41.064 8.25153H34.6643L30.781 2.03833C30.6301 1.79708 30.3658 1.65041 30.0812 1.65031H27.6057C27.1498 1.65051 26.7804 2.02028 26.7806 2.47628C26.7806 2.54353 26.7888 2.61047 26.8051 2.67576L28.1991 8.25153H21.6185L19.3195 0.588231C19.2148 0.239088 18.8935 0 18.529 0H14.4033C13.9476 0 13.5781 0.369462 13.5781 0.825153V9.07668H13.5859C13.5832 9.29452 13.6673 9.50452 13.8199 9.66007L18.9771 14.8173C21.1049 16.959 24.0009 18.1602 27.0199 18.1534H27.2446L25.1943 22.7695C25.0094 23.1859 25.197 23.6734 25.6134 23.8585C25.6376 23.8692 25.6623 23.8788 25.6875 23.8871L28.1613 24.7123C28.5078 24.8277 28.8889 24.7017 29.0984 24.4025L33.4701 18.1534H48.969C50.3825 18.1559 51.5304 17.0123 51.5331 15.5988C51.5343 14.9175 51.2639 14.2639 50.7817 13.7826ZM29.6238 3.30061L32.7182 8.25153H29.9004L28.6625 3.30061H29.6238ZM15.2284 1.65031H17.915L19.8954 8.25153H15.2284V1.65031ZM28.0993 22.9519L27.0714 22.6091L29.7834 16.5031H32.6106L28.0993 22.9519ZM49.8155 15.9374C49.6781 16.2834 49.3412 16.5084 48.969 16.5031H34.6246L34.8709 16.1509C35.132 15.7774 35.041 15.2629 34.6675 15.0017C34.5289 14.9048 34.3639 14.8528 34.1948 14.8528H29.2471C28.9208 14.8528 28.6252 15.0449 28.4929 15.3431L27.9777 16.5031H27.0199C24.4389 16.5087 21.9629 15.4815 20.1439 13.6505L16.3952 9.90184H41.064C42.863 9.90957 44.6133 10.4874 46.0634 11.5521H39.983V13.2024H47.8675L49.6169 14.9519C49.8811 15.2074 49.9603 15.5995 49.8155 15.9374Z" fill="black"/>
<path d="M25.5553 47.2527C25.0358 46.6948 24.3389 46.3341 23.5834 46.2321L26.7342 37.4097C26.8873 36.9799 26.663 36.5075 26.2332 36.3544C26.2282 36.3526 26.2231 36.3509 26.2181 36.3492L24.206 35.6785L22.6431 27.0828C22.5718 26.6903 22.23 26.4051 21.8313 26.4051H18.5307V23.9296C18.5307 23.474 18.1612 23.1045 17.7055 23.1045H14.4049C13.9492 23.1045 13.5797 23.474 13.5797 23.9296V26.4051H10.2791C9.88027 26.4051 9.53856 26.6904 9.46728 27.0828L7.90444 35.6785L5.89231 36.3492C5.45962 36.4939 5.22631 36.962 5.37102 37.3946C5.37267 37.3997 5.37442 37.4046 5.37618 37.4097L8.52702 46.2324C7.77273 46.3351 7.07713 46.6956 6.55831 47.2527C6.25971 47.6288 5.80835 47.8513 5.32821 47.8591V49.5094C6.22237 49.5045 7.07383 49.1262 7.67681 48.4659C7.97541 48.0895 8.42697 47.8668 8.90732 47.8591C9.08163 47.8576 9.2546 47.8899 9.41674 47.9541C9.42365 47.9572 9.42809 47.9638 9.4351 47.9667C9.69389 48.0956 9.92885 48.2675 10.1301 48.4752C10.7393 49.1298 11.5916 49.504 12.4859 49.5094C13.3799 49.5044 14.2311 49.1259 14.8337 48.4655C15.3528 47.7874 16.3233 47.6585 17.0013 48.1775C17.1094 48.2602 17.2062 48.357 17.289 48.4651C17.891 49.1257 18.7418 49.5043 19.6355 49.5094C20.5293 49.504 21.381 49.1296 21.9893 48.4747C22.1888 48.2687 22.4216 48.0975 22.6779 47.9687C22.6853 47.9656 22.6901 47.9586 22.6973 47.9553C22.8598 47.8903 23.0334 47.8577 23.2085 47.8592C23.6877 47.8669 24.1381 48.0895 24.4354 48.4656C25.0376 49.1259 25.8885 49.5043 26.7822 49.5095V47.8592C26.303 47.8513 25.8526 47.6288 25.5553 47.2527ZM15.23 24.7548H16.8804V26.4051H15.23V24.7548ZM15.23 46.3164C14.6535 46.4947 14.1319 46.8169 13.7143 47.2527C13.1939 47.9315 12.2216 48.0598 11.5429 47.5393C11.4352 47.4568 11.3388 47.3604 11.2562 47.2527C11.0001 47.0025 10.7162 46.7824 10.4099 46.5968L7.21379 37.6482L15.23 34.9764V46.3164ZM15.7941 33.0486L9.68997 35.0833L10.9677 28.0554H21.1427L22.4204 35.0833L16.3163 33.0486C16.1468 32.9922 15.9636 32.9922 15.7941 33.0486ZM21.6988 46.6022C21.3962 46.7869 21.1155 47.0053 20.8619 47.2531C20.3438 47.9305 19.3747 48.0595 18.6973 47.5414C18.5889 47.4585 18.492 47.3615 18.4091 47.2531C17.9891 46.8129 17.4625 46.4886 16.8805 46.3117V34.9764L24.8967 37.6482L21.6988 46.6022Z" fill="black"/>
<path d="M38.3331 11.5522H36.6836V13.2026H38.3331V11.5522Z" fill="black"/>
</g>
<defs>
<clipPath id="clip0_5973_21121">
<rect width="49.51" height="49.51" fill="white" transform="translate(5.32812)"/>
</clipPath>
</defs>
</svg>
