<svg width="55" height="54" viewBox="0 0 55 54" fill="none" xmlns="http://www.w3.org/2000/svg">
<circle cx="25.3388" cy="28.4726" r="25.3388" fill="#FFBE2E"/>
<path d="M32.3454 4.80962V11.0371V18.093V18.173C32.6814 17.9802 33.0174 17.7873 33.3535 17.5946C32.3456 17.0346 31.3378 16.4748 30.33 15.9149C29.8468 15.6464 29.3636 15.378 28.8804 15.1095C28.6258 14.968 28.3605 14.918 28.0857 15.0707C27.9425 15.1502 27.7993 15.2298 27.6562 15.3093C26.285 16.071 24.9139 16.8328 23.5427 17.5945C23.8788 17.7873 24.2148 17.9801 24.5508 18.1729C24.5508 16.0971 24.5508 14.0213 24.5508 11.9454C24.5508 9.59348 24.5508 7.24148 24.5508 4.88953C24.5508 4.86288 24.5508 4.83622 24.5508 4.80957C24.3275 5.03289 24.1042 5.25617 23.8809 5.47949H31.0061H33.0153C33.3805 5.47949 33.6852 5.17477 33.6852 4.80957C33.6852 4.44437 33.3805 4.13965 33.0153 4.13965C30.6402 4.13965 28.2651 4.13965 25.8901 4.13965C25.2203 4.13965 24.5506 4.13965 23.8809 4.13965C23.5157 4.13965 23.2109 4.44437 23.2109 4.80957V11.0371V18.093V18.1729C23.2109 18.6892 23.7776 18.9966 24.219 18.7514C25.7414 17.9056 27.2638 17.0598 28.7862 16.214C28.5608 16.214 28.3354 16.214 28.11 16.214C29.6324 17.0598 31.1548 17.9056 32.6772 18.7514C33.1186 18.9966 33.6852 18.6891 33.6852 18.1729C33.6852 16.0971 33.6852 14.0213 33.6852 11.9454C33.6852 9.59348 33.6852 7.24148 33.6852 4.88953C33.6852 4.86288 33.6852 4.83622 33.6852 4.80957C33.6852 4.44437 33.3805 4.13965 33.0153 4.13965C32.6501 4.13965 32.3454 4.44442 32.3454 4.80962Z" fill="black"/>
<path d="M15.3379 28.5693H19.8205C20.1857 28.5693 20.4905 28.2646 20.4905 27.8994C20.4905 27.5342 20.1857 27.2295 19.8205 27.2295C18.3263 27.2295 16.8321 27.2295 15.3379 27.2295C14.9727 27.2295 14.668 27.5342 14.668 27.8994C14.668 28.2646 14.9727 28.5693 15.3379 28.5693Z" fill="black"/>
<path d="M15.3379 33.6445H21.6647H28.2699H28.2783C28.6435 33.6445 28.9482 33.3398 28.9482 32.9746C28.9482 32.6094 28.6435 32.3047 28.2783 32.3047C26.1694 32.3047 24.0604 32.3047 21.9515 32.3047C19.7498 32.3047 17.548 32.3047 15.3463 32.3047C15.3435 32.3047 15.3407 32.3047 15.3379 32.3047C14.9727 32.3047 14.668 32.6094 14.668 32.9746C14.668 33.3398 14.9727 33.6445 15.3379 33.6445Z" fill="black"/>
<path d="M46.8103 9.12266V14.1615V23.3412V27.7892C47.1916 27.6313 47.5727 27.4733 47.9539 27.3155C45.8163 25.5767 43.0624 24.7302 40.3163 25.0928C38.0864 25.3873 36.0167 26.4087 34.4398 28.0176C33.1474 29.3362 32.2356 31.0284 31.8403 32.8309C31.3344 35.1377 31.6782 37.5654 32.7705 39.6551C32.9633 39.3191 33.1562 38.9831 33.349 38.6471C31.7242 38.6471 30.0995 38.6471 28.4748 38.6471C25.3996 38.6471 22.3244 38.6471 19.2493 38.6471C17.4221 38.6471 15.595 38.6471 13.7679 38.6471C13.7569 38.6471 13.7458 38.6471 13.7348 38.6471C13.6673 38.6471 13.5999 38.6451 13.5323 38.6424C13.466 38.6399 13.3997 38.6343 13.3336 38.6288C13.2898 38.6247 13.2461 38.62 13.2025 38.6147C13.2722 38.6239 13.2668 38.6225 13.1862 38.6103C12.9317 38.5692 12.6825 38.4994 12.4398 38.4134C12.431 38.4103 12.2363 38.3333 12.3636 38.3871C12.3053 38.3624 12.2481 38.3352 12.191 38.308C12.0583 38.2449 11.9304 38.172 11.8049 38.0957C11.6978 38.0305 11.5951 37.9583 11.494 37.884C11.6034 37.9644 11.4411 37.8396 11.4335 37.8334C11.3854 37.7935 11.339 37.7515 11.2926 37.7096C11.1999 37.6258 11.1127 37.5361 11.0275 37.4446C10.985 37.3989 10.9444 37.3512 10.9038 37.3037C10.877 37.2718 10.8506 37.2395 10.8247 37.2068C10.8656 37.2599 10.8627 37.2553 10.816 37.1928C10.667 36.9901 10.5404 36.7716 10.429 36.5462C10.401 36.4895 10.3754 36.4316 10.3499 36.3737C10.4055 36.4999 10.327 36.3064 10.3236 36.2975C10.2715 36.1572 10.23 36.0132 10.1929 35.8684C10.1607 35.7425 10.137 35.6146 10.1163 35.4865C10.1391 35.6274 10.1092 35.4137 10.1082 35.4035C10.1016 35.3374 10.0981 35.271 10.0945 35.2048C10.0908 35.134 10.0899 35.0628 10.0899 34.9919C10.0899 34.9491 10.0899 34.9063 10.0899 34.8635C10.0899 34.6464 10.0899 34.4293 10.0899 34.2122C10.0899 32.0337 10.0899 29.8553 10.0899 27.6769C10.0899 24.5625 10.0899 21.4482 10.0899 18.3339C10.0899 15.8306 10.0899 13.3273 10.0899 10.824C10.0899 10.2849 10.0899 9.74578 10.0899 9.20669C10.0899 9.17884 10.0899 9.15103 10.0899 9.12318C10.0899 8.62227 10.1508 8.29435 10.3459 7.76913C10.4183 7.57428 10.292 7.88426 10.3755 7.69462C10.401 7.63677 10.429 7.58007 10.4571 7.52341C10.5129 7.41053 10.5761 7.30143 10.6415 7.19391C10.7067 7.08677 10.779 6.98403 10.8532 6.88306C10.7727 6.9924 10.8976 6.83004 10.9038 6.82253C10.957 6.75836 11.0134 6.69687 11.0702 6.63586C11.1554 6.54437 11.2464 6.45847 11.3391 6.37469C11.3854 6.33277 11.4336 6.29286 11.4817 6.253C11.6394 6.12241 11.3795 6.3265 11.5446 6.20515C11.7643 6.0436 12.0022 5.90809 12.2481 5.79099C12.2571 5.78673 12.4484 5.70634 12.3209 5.75807C12.3799 5.73415 12.44 5.71285 12.5 5.69156C12.621 5.64868 12.7447 5.61399 12.8689 5.58212C12.9948 5.54987 13.1226 5.52623 13.2508 5.50551C13.1098 5.52829 13.3235 5.49843 13.3337 5.49742C13.4219 5.48862 13.5106 5.48455 13.5992 5.4812C13.6619 5.47881 13.7247 5.47914 13.7875 5.47914H14.2568H16.448H24.2688H33.6798H41.0875H42.9171H43.1669C43.3005 5.47914 43.4337 5.48623 43.5668 5.49742C43.5767 5.49829 43.7913 5.52618 43.6497 5.50551C43.7142 5.51494 43.7782 5.52728 43.8421 5.53958C43.9689 5.56403 44.0938 5.597 44.2178 5.6328C44.2793 5.65055 44.3399 5.67103 44.4005 5.69151C44.4227 5.69897 44.6562 5.78951 44.5369 5.73907C45.0644 5.96216 45.3885 6.19654 45.7433 6.54623C46.0994 6.89727 46.3198 7.22898 46.5504 7.75257C46.4948 7.62634 46.5734 7.8199 46.5767 7.8288C46.599 7.88866 46.6185 7.94953 46.638 8.01035C46.6774 8.13299 46.7085 8.25817 46.7367 8.38378C46.7509 8.44723 46.7623 8.51131 46.7736 8.57528C46.8108 8.78578 46.761 8.44336 46.7855 8.65701C46.8032 8.81153 46.8091 8.96719 46.8103 9.12266C46.8131 9.48781 47.1129 9.79258 47.4802 9.79258C47.8433 9.79258 48.153 9.48786 48.1502 9.12266C48.1321 6.75884 46.418 4.63978 44.0702 4.2239C43.5186 4.12619 42.9711 4.13925 42.4151 4.13925C40.3961 4.13925 38.3771 4.13925 36.3581 4.13925C33.3001 4.13925 30.242 4.13925 27.1839 4.13925C24.2845 4.13925 21.3851 4.13925 18.4857 4.13925C16.9429 4.13925 15.4 4.13925 13.8571 4.13925C12.305 4.13925 10.8053 4.78343 9.83872 6.0213C9.14478 6.91005 8.75 7.99063 8.75 9.12371V9.43905V15.0945V24.3001V32.4152V34.6135C8.75 35.7135 8.93978 36.7716 9.55209 37.7143C10.5039 39.1798 12.1311 39.9869 13.8601 39.9869H15.9605H24.5681H32.3056H33.349C33.875 39.9869 34.1595 39.4229 33.9275 38.9789C33.277 37.7347 32.9537 36.369 32.9472 34.979C32.9421 33.8894 33.1135 32.9675 33.5126 31.8917C33.5348 31.8319 33.5582 31.7726 33.5816 31.7132C33.5849 31.7049 33.6657 31.5114 33.6116 31.6382C33.6614 31.5215 33.7148 31.4064 33.7695 31.2918C33.8872 31.0447 34.0184 30.8041 34.1576 30.5684C34.2856 30.3517 34.4244 30.1416 34.5694 29.936C34.7432 29.6897 34.7867 29.6369 35.0062 29.3806C35.346 28.984 35.7227 28.6198 36.1236 28.2855C36.3187 28.1228 36.3821 28.0761 36.6383 27.8979C36.8623 27.7422 37.0945 27.5986 37.3313 27.4632C37.4958 27.369 37.6642 27.2816 37.8342 27.1977C37.91 27.1603 37.9867 27.1247 38.0634 27.0894C38.102 27.0718 38.1406 27.0545 38.1793 27.0375C38.3704 26.9528 38.0599 27.0855 38.2536 27.006C38.6092 26.8598 38.9752 26.7398 39.3461 26.6392C39.5337 26.5883 39.7235 26.5453 39.9139 26.5063C39.999 26.4889 40.0847 26.4735 40.1703 26.4585C40.2133 26.4511 40.2564 26.4441 40.2995 26.4373C40.3088 26.4358 40.5227 26.4054 40.3815 26.4241C40.8062 26.368 41.2348 26.3463 41.663 26.3482C43.5861 26.3568 45.4906 27.0299 47.0065 28.2629C47.1972 28.4181 47.4092 28.5037 47.6582 28.4353C47.9456 28.3562 48.1501 28.0872 48.1501 27.7893C48.1501 26.1096 48.1501 24.43 48.1501 22.7504C48.1501 19.6905 48.1501 16.6306 48.1501 13.5707C48.1501 12.0881 48.1501 10.6054 48.1501 9.12275C48.1501 8.75755 47.8453 8.45283 47.4801 8.45283C47.1149 8.45283 46.8103 8.75746 46.8103 9.12266Z" fill="black"/>
<path d="M50.2073 34.9801C50.2063 35.2481 50.195 35.5154 50.1731 35.7826C50.1624 35.9144 50.1474 36.0457 50.131 36.1769C50.1486 36.0356 50.1192 36.2495 50.1178 36.2589C50.1046 36.3451 50.0891 36.4309 50.0735 36.5166C49.9769 37.0453 49.8287 37.5638 49.6418 38.0673C49.6196 38.1272 49.5962 38.1864 49.5728 38.2458C49.5696 38.2542 49.4887 38.4476 49.5428 38.3208C49.493 38.4375 49.4396 38.5527 49.385 38.6672C49.2672 38.9144 49.1359 39.1549 48.9968 39.3907C48.8689 39.6073 48.73 39.8175 48.585 40.023C48.4112 40.2693 48.3677 40.3222 48.1482 40.5784C46.776 42.1801 45.0143 43.159 42.9195 43.5114C42.8549 43.5222 42.79 43.5317 42.7251 43.5412C42.8662 43.5206 42.6512 43.5498 42.642 43.5508C42.5103 43.5663 42.3782 43.5776 42.246 43.5875C41.9501 43.6097 41.6531 43.6144 41.3565 43.6087C40.7167 43.5964 40.2982 43.5407 39.6904 43.4055C39.4171 43.3447 39.1474 43.2685 38.8809 43.1831C38.7486 43.1408 38.6178 43.094 38.4876 43.0457C38.4227 43.0216 38.3584 42.9961 38.294 42.9706C38.2192 42.9396 38.2088 42.9357 38.2626 42.9589C38.2203 42.9408 38.1782 42.9224 38.1362 42.9037C37.6135 42.6735 37.1156 42.3893 36.6443 42.0674C36.2305 41.7846 35.8347 41.4482 35.4262 41.0368C35.0029 40.6105 34.7192 40.2544 34.4149 39.8022C33.6687 38.6936 33.2064 37.4373 33.0132 36.1172C32.9262 35.523 32.9273 34.861 32.9735 34.2437C32.9834 34.1117 32.9974 33.9801 33.0129 33.8486C33.0382 33.6334 32.993 33.9798 33.0243 33.766C33.0338 33.7012 33.0447 33.6366 33.0555 33.572C33.1022 33.2945 33.1644 33.0198 33.2361 32.7477C33.3017 32.4994 33.3801 32.2546 33.4661 32.0126C33.5089 31.8924 33.5553 31.7736 33.6029 31.6552C33.6812 31.461 33.5511 31.7727 33.6345 31.581C33.6682 31.5034 33.7039 31.4266 33.7397 31.35C33.9626 30.874 34.2308 30.4198 34.5307 29.9884C34.6024 29.8853 34.6773 29.7843 34.7531 29.6843C34.6711 29.7926 34.7975 29.6294 34.8031 29.6224C34.8422 29.5735 34.8824 29.5253 34.9225 29.4771C35.0964 29.2686 35.2814 29.0694 35.4727 28.8768C35.6493 28.699 35.8348 28.5302 36.0251 28.3672C36.1204 28.2856 36.218 28.2069 36.3165 28.1291C36.2099 28.2133 36.3733 28.0871 36.3805 28.0818C36.4476 28.0317 36.5159 27.9832 36.5843 27.9349C37.0139 27.6319 37.4716 27.3699 37.946 27.1439C38.0032 27.1166 38.061 27.0905 38.1188 27.0644C38.1271 27.0607 38.3192 26.9781 38.1922 27.0313C38.3099 26.982 38.4289 26.9364 38.5485 26.8921C38.8092 26.7954 39.0753 26.7132 39.3436 26.6403C39.5942 26.5723 39.8482 26.5176 40.1035 26.4709C40.1679 26.4592 40.2324 26.4488 40.297 26.4384C40.3064 26.4369 40.5202 26.4065 40.379 26.4252C40.532 26.405 40.6857 26.3902 40.8395 26.3776C41.4737 26.3257 42.1126 26.3453 42.7438 26.4215C43.9826 26.5711 45.2198 27.0596 46.2951 27.751C48.364 29.0815 49.6752 31.1871 50.0953 33.5653C50.1413 33.8255 50.152 33.9325 50.176 34.2121C50.1979 34.4674 50.2062 34.7238 50.2073 34.9801C50.2088 35.3452 50.5109 35.65 50.8772 35.65C51.2413 35.65 51.5486 35.3453 51.5471 34.9801C51.5366 32.3966 50.5301 29.9133 48.7438 28.048C46.8245 26.0437 44.0733 24.944 41.3066 25.0128C39.0342 25.0694 36.8651 25.929 35.1257 27.3793C33.4522 28.7745 32.2754 30.7681 31.8244 32.8956C31.2643 35.538 31.8088 38.3597 33.3346 40.5913C34.6894 42.5729 36.739 44.0213 39.0611 44.6313C41.3556 45.2342 43.8064 44.9625 45.9395 43.946C47.8922 43.0153 49.5178 41.3863 50.4863 39.4572C51.1829 38.0695 51.5417 36.532 51.5472 34.9801C51.5485 34.6149 51.2415 34.3101 50.8773 34.3101C50.511 34.3101 50.2086 34.6149 50.2073 34.9801Z" fill="black"/>
<path d="M46.4302 38.1467C44.9707 36.933 43.5112 35.7192 42.0516 34.5056C42.1171 34.6635 42.1824 34.8214 42.2479 34.9793C42.2479 33.5018 42.2479 32.0243 42.2479 30.5469C42.2479 30.1817 41.9432 29.877 41.578 29.877C41.2128 29.877 40.908 30.1817 40.908 30.5469V34.1283C40.908 34.5119 40.7983 35.1986 41.1297 35.4742C41.4816 35.7668 41.8335 36.0594 42.1855 36.3521C43.2846 37.2661 44.3837 38.1801 45.4828 39.0941C45.7633 39.3273 46.1544 39.3699 46.4303 39.0941C46.6706 38.8537 46.7113 38.3804 46.4302 38.1467Z" fill="black"/>
</svg>
