<svg width="55" height="54" viewBox="0 0 55 54" fill="none" xmlns="http://www.w3.org/2000/svg">
<circle cx="25.3388" cy="28.4726" r="25.3388" fill="#FFBE2E"/>
<g clip-path="url(#clip0_5973_21211)">
<path d="M32.5326 15.1083C32.5326 14.3503 32.2314 13.6232 31.6954 13.0872C31.1593 12.5511 30.4323 12.25 29.6742 12.25H19.0576C18.2995 12.25 17.5724 12.5511 17.0364 13.0872C16.5004 13.6232 16.1992 14.3503 16.1992 15.1083C16.1992 15.8664 16.5004 16.5934 17.0364 17.1295C17.5724 17.6655 18.2995 17.9667 19.0576 17.9667H29.6742C30.4323 17.9667 31.1593 17.6655 31.6954 17.1295C32.2314 16.5934 32.5326 15.8664 32.5326 15.1083ZM17.8326 15.1083C17.8326 14.7834 17.9616 14.4719 18.1913 14.2421C18.4211 14.0124 18.7327 13.8833 19.0576 13.8833H29.6742C29.9991 13.8833 30.3107 14.0124 30.5404 14.2421C30.7702 14.4719 30.8992 14.7834 30.8992 15.1083C30.8992 15.4332 30.7702 15.7448 30.5404 15.9745C30.3107 16.2043 29.9991 16.3333 29.6742 16.3333H19.0576C18.7327 16.3333 18.4211 16.2043 18.1913 15.9745C17.9616 15.7448 17.8326 15.4332 17.8326 15.1083Z" fill="black"/>
<path d="M52.132 14.7H41.5154V10.4664C41.9914 10.2981 42.4038 9.98683 42.6962 9.57517C42.9886 9.16351 43.1466 8.67158 43.1487 8.16667V2.45C43.1487 1.80022 42.8906 1.17705 42.4311 0.717588C41.9716 0.258124 41.3485 0 40.6987 0L8.03203 0C7.38225 0 6.75908 0.258124 6.29962 0.717588C5.84016 1.17705 5.58203 1.80022 5.58203 2.45V8.16667C5.58412 8.67158 5.74217 9.16351 6.03454 9.57517C6.32691 9.98683 6.73932 10.2981 7.21536 10.4664V32.6667C7.21536 33.533 7.55953 34.3639 8.17215 34.9765C8.78477 35.5892 9.61566 35.9333 10.482 35.9333H28.4487V46.55C28.4487 47.1998 28.7068 47.8229 29.1663 48.2824C29.6257 48.7419 30.2489 49 30.8987 49H52.132C52.7818 49 53.405 48.7419 53.8644 48.2824C54.3239 47.8229 54.582 47.1998 54.582 46.55V17.15C54.582 16.5002 54.3239 15.8771 53.8644 15.4176C53.405 14.9581 52.7818 14.7 52.132 14.7ZM7.21536 2.45C7.21536 2.23341 7.30141 2.02568 7.45456 1.87253C7.60772 1.71937 7.81544 1.63333 8.03203 1.63333H40.6987C40.9153 1.63333 41.123 1.71937 41.2762 1.87253C41.4293 2.02568 41.5154 2.23341 41.5154 2.45V8.16667C41.5154 8.38326 41.4293 8.59098 41.2762 8.74414C41.123 8.89729 40.9153 8.98333 40.6987 8.98333H8.03203C7.81544 8.98333 7.60772 8.89729 7.45456 8.74414C7.30141 8.59098 7.21536 8.38326 7.21536 8.16667V2.45ZM10.482 34.3C10.0488 34.3 9.6334 34.1279 9.32709 33.8216C9.02078 33.5153 8.8487 33.0999 8.8487 32.6667V10.6167H39.882V14.7H38.448C38.0184 14.6988 37.5928 14.7828 37.196 14.9472C36.7991 15.1117 36.4388 15.3532 36.136 15.658L29.4066 22.3873C29.1019 22.6901 28.8604 23.0504 28.6959 23.4473C28.5315 23.8441 28.4475 24.2697 28.4487 24.6993V34.3H10.482ZM36.6154 17.4881V21.3477C36.6147 21.7503 36.4545 22.1363 36.1697 22.421C35.885 22.7058 35.499 22.866 35.0964 22.8667H31.2368L36.6154 17.4881ZM52.9487 46.55C52.9487 46.7666 52.8627 46.9743 52.7095 47.1275C52.5563 47.2806 52.3486 47.3667 52.132 47.3667H30.8987C30.6821 47.3667 30.4744 47.2806 30.3212 47.1275C30.1681 46.9743 30.082 46.7666 30.082 46.55V24.6993C30.0844 24.6325 30.091 24.566 30.1016 24.5H35.0964C35.9321 24.4991 36.7335 24.1667 37.3244 23.5757C37.9154 22.9848 38.2478 22.1835 38.2487 21.3477V16.3529C38.3147 16.3423 38.3812 16.3357 38.448 16.3333H52.132C52.3486 16.3333 52.5563 16.4194 52.7095 16.5725C52.8627 16.7257 52.9487 16.9334 52.9487 17.15V46.55Z" fill="black"/>
<path d="M17.5934 24.7391C17.4402 24.586 17.2325 24.5 17.016 24.5C16.7994 24.5 16.5917 24.586 16.4386 24.7391L15.6219 25.5558C15.5077 25.67 15.43 25.8155 15.3985 25.9739C15.367 26.1323 15.3832 26.2965 15.445 26.4457C15.5068 26.5949 15.6114 26.7224 15.7457 26.8121C15.8799 26.9019 16.0378 26.9498 16.1993 26.9498V28.5832C16.1993 28.7998 16.2853 29.0075 16.4385 29.1606C16.5917 29.3138 16.7994 29.3998 17.016 29.3998C17.2326 29.3998 17.4403 29.3138 17.5934 29.1606C17.7466 29.0075 17.8326 28.7998 17.8326 28.5832V26.9498C17.9941 26.9498 18.152 26.9019 18.2863 26.8121C18.4205 26.7224 18.5252 26.5949 18.587 26.4457C18.6488 26.2965 18.6649 26.1323 18.6334 25.9739C18.602 25.8155 18.5242 25.67 18.41 25.5558L17.5934 24.7391Z" fill="black"/>
<path d="M11.297 28.5832C11.297 28.7998 11.383 29.0075 11.5362 29.1606C11.6893 29.3138 11.897 29.3998 12.1136 29.3998C12.3302 29.3998 12.5379 29.3138 12.6911 29.1606C12.8443 29.0075 12.9303 28.7998 12.9303 28.5832V26.9498C13.0918 26.9498 13.2497 26.9019 13.3839 26.8121C13.5182 26.7224 13.6228 26.5949 13.6846 26.4457C13.7464 26.2965 13.7626 26.1323 13.7311 25.9739C13.6996 25.8155 13.6219 25.67 13.5077 25.5558L12.691 24.7391C12.5379 24.586 12.3302 24.5 12.1136 24.5C11.8971 24.5 11.6894 24.586 11.5362 24.7391L10.7196 25.5558C10.6054 25.67 10.5276 25.8155 10.4962 25.9739C10.4647 26.1323 10.4808 26.2965 10.5426 26.4457C10.6044 26.5949 10.7091 26.7224 10.8433 26.8121C10.9776 26.9019 11.1355 26.9498 11.297 26.9498V28.5832Z" fill="black"/>
<path d="M17.0135 31.0332H12.1135C11.8969 31.0332 11.6892 31.1192 11.5361 31.2724C11.3829 31.4256 11.2969 31.6333 11.2969 31.8499C11.2969 32.0665 11.3829 32.2742 11.5361 32.4273C11.6892 32.5805 11.8969 32.6665 12.1135 32.6665H17.0135C17.2301 32.6665 17.4379 32.5805 17.591 32.4273C17.7442 32.2742 17.8302 32.0665 17.8302 31.8499C17.8302 31.6333 17.7442 31.4256 17.591 31.2724C17.4379 31.1192 17.2301 31.0332 17.0135 31.0332Z" fill="black"/>
<path d="M48.8643 28.5835H34.1643C33.9477 28.5835 33.74 28.6695 33.5869 28.8227C33.4337 28.9758 33.3477 29.1836 33.3477 29.4002C33.3477 29.6168 33.4337 29.8245 33.5869 29.9776C33.74 30.1308 33.9477 30.2168 34.1643 30.2168H48.8643C49.0809 30.2168 49.2886 30.1308 49.4418 29.9776C49.5949 29.8245 49.681 29.6168 49.681 29.4002C49.681 29.1836 49.5949 28.9758 49.4418 28.8227C49.2886 28.6695 49.0809 28.5835 48.8643 28.5835Z" fill="black"/>
<path d="M48.8664 24.5H39.8831C39.6665 24.5 39.4588 24.586 39.3056 24.7392C39.1524 24.8924 39.0664 25.1001 39.0664 25.3167C39.0664 25.5333 39.1524 25.741 39.3056 25.8941C39.4588 26.0473 39.6665 26.1333 39.8831 26.1333H48.8664C49.083 26.1333 49.2907 26.0473 49.4439 25.8941C49.597 25.741 49.6831 25.5333 49.6831 25.3167C49.6831 25.1001 49.597 24.8924 49.4439 24.7392C49.2907 24.586 49.083 24.5 48.8664 24.5Z" fill="black"/>
<path d="M48.8643 32.6665H34.1643C33.9477 32.6665 33.74 32.7525 33.5869 32.9057C33.4337 33.0589 33.3477 33.2666 33.3477 33.4832C33.3477 33.6998 33.4337 33.9075 33.5869 34.0606C33.74 34.2138 33.9477 34.2998 34.1643 34.2998H48.8643C49.0809 34.2998 49.2886 34.2138 49.4418 34.0606C49.5949 33.9075 49.681 33.6998 49.681 33.4832C49.681 33.2666 49.5949 33.0589 49.4418 32.9057C49.2886 32.7525 49.0809 32.6665 48.8643 32.6665Z" fill="black"/>
<path d="M48.8643 36.75H34.1643C33.9477 36.75 33.74 36.836 33.5869 36.9892C33.4337 37.1424 33.3477 37.3501 33.3477 37.5667C33.3477 37.7833 33.4337 37.991 33.5869 38.1441C33.74 38.2973 33.9477 38.3833 34.1643 38.3833H48.8643C49.0809 38.3833 49.2886 38.2973 49.4418 38.1441C49.5949 37.991 49.681 37.7833 49.681 37.5667C49.681 37.3501 49.5949 37.1424 49.4418 36.9892C49.2886 36.836 49.0809 36.75 48.8643 36.75Z" fill="black"/>
<path d="M48.8643 40.8335H34.1643C33.9477 40.8335 33.74 40.9195 33.5869 41.0727C33.4337 41.2258 33.3477 41.4336 33.3477 41.6502C33.3477 41.8668 33.4337 42.0745 33.5869 42.2276C33.74 42.3808 33.9477 42.4668 34.1643 42.4668H48.8643C49.0809 42.4668 49.2886 42.3808 49.4418 42.2276C49.5949 42.0745 49.681 41.8668 49.681 41.6502C49.681 41.4336 49.5949 41.2258 49.4418 41.0727C49.2886 40.9195 49.0809 40.8335 48.8643 40.8335Z" fill="black"/>
</g>
<defs>
<clipPath id="clip0_5973_21211">
<rect width="49" height="49" fill="white" transform="translate(5.58203)"/>
</clipPath>
</defs>
</svg>
