<svg width="55" height="54" viewBox="0 0 55 54" fill="none" xmlns="http://www.w3.org/2000/svg">
<circle cx="25.3388" cy="28.4726" r="25.3388" fill="#FFBE2E"/>
<path d="M31.7566 16.8819H28.4453C28.0721 16.8819 27.7754 16.5853 27.7754 16.212V11.9437L23.9568 8.1251C23.5166 7.68486 23.2773 7.10107 23.2773 6.479C23.2773 5.85693 23.5166 5.27314 23.9568 4.83291C24.3971 4.39268 24.9809 4.15342 25.6029 4.15342C26.225 4.15342 26.8088 4.39268 27.249 4.83291L27.7754 5.35928V3.44521C27.7754 2.16279 28.8186 1.11963 30.101 1.11963C30.723 1.11963 31.3068 1.35889 31.7471 1.79912C32.1873 2.23936 32.4266 2.82314 32.4266 3.44521V5.35928L32.9529 4.83291C33.8621 3.92373 35.3359 3.92373 36.2451 4.83291C36.6854 5.27314 36.9246 5.85693 36.9246 6.479C36.9246 7.10107 36.6854 7.68486 36.2451 8.1251L32.4266 11.9437V16.212C32.4266 16.5757 32.1299 16.8819 31.7566 16.8819ZM29.1152 15.5421H31.0867V11.6661C31.0867 11.4843 31.1537 11.3216 31.2877 11.1972L35.2977 7.17764C35.4795 6.98623 35.5848 6.74697 35.5848 6.479C35.5848 6.21103 35.4795 5.96221 35.2977 5.78037C34.9148 5.39756 34.2832 5.39756 33.9004 5.78037L32.2352 7.44561C32.0438 7.63701 31.7566 7.69443 31.5078 7.58916C31.259 7.48389 31.0963 7.24463 31.0963 6.96709V3.44521C31.0963 3.17725 30.991 2.93799 30.8092 2.74658C30.6273 2.55518 30.3785 2.45947 30.1105 2.45947C29.565 2.45947 29.1248 2.89971 29.1248 3.44521V6.97666C29.1248 7.24463 28.9621 7.49346 28.7133 7.59873C28.4645 7.704 28.1773 7.64658 27.9859 7.45518L26.3111 5.78037C26.1293 5.58896 25.8805 5.49326 25.6125 5.49326C25.3445 5.49326 25.1053 5.59854 24.9139 5.78037C24.7225 5.96221 24.6268 6.21103 24.6268 6.479C24.6268 6.74697 24.732 6.9958 24.9139 7.17764L28.9238 11.1876C29.0482 11.312 29.1152 11.4843 29.1152 11.6565V15.5421Z" fill="#212121"/>
<path d="M38.1132 22.471C37.8835 22.471 37.6539 22.3465 37.5294 22.136L35.8738 19.2649C35.6919 18.9395 35.7972 18.5376 36.1226 18.3461L39.8168 16.2215L41.2236 11.0057C41.3863 10.4028 41.7691 9.90513 42.3146 9.58931C42.8505 9.28306 43.4822 9.19693 44.0851 9.35962C44.688 9.52232 45.1857 9.90513 45.5015 10.4506C45.8078 10.9866 45.8939 11.6182 45.7312 12.2211L45.5398 12.9389L47.1955 11.9819C47.7314 11.6756 48.363 11.5895 48.966 11.7522C49.5689 11.9149 50.0666 12.2977 50.3824 12.8336C50.6886 13.3696 50.7748 14.0012 50.6121 14.6042C50.4494 15.2071 50.0666 15.7047 49.5306 16.011L47.875 16.968L48.5927 17.1594C49.8369 17.4944 50.5642 18.7768 50.2388 20.0114C50.0761 20.6143 49.6933 21.112 49.1478 21.4278C48.6119 21.734 47.9802 21.8202 47.3773 21.6575L42.1615 20.2506L38.4673 22.3752C38.3429 22.4422 38.2281 22.471 38.1132 22.471ZM37.3763 19.1788L38.3621 20.8919L41.7212 18.9586C41.8744 18.8725 42.0562 18.8438 42.2285 18.8917L47.7123 20.3655C47.9707 20.4325 48.2291 20.4038 48.4587 20.2698C48.6884 20.1358 48.8511 19.9252 48.9181 19.6669C49.0617 19.1405 48.7459 18.595 48.2195 18.4514L45.9418 17.8389C45.6834 17.7719 45.4824 17.5518 45.4537 17.2743C45.4154 17.0063 45.5494 16.7383 45.7791 16.6044L48.8416 14.8434C49.0712 14.7094 49.2339 14.4989 49.3009 14.2405C49.3679 13.9821 49.3392 13.7237 49.2052 13.494C49.0712 13.2643 48.8607 13.1016 48.6023 13.0346C48.3439 12.9676 48.0855 12.9963 47.8558 13.1303L44.7933 14.8913C44.5541 15.0252 44.2669 15.0061 44.0468 14.8434C43.8363 14.6807 43.7406 14.4032 43.8076 14.1352L44.4201 11.8575C44.4871 11.5991 44.4584 11.3407 44.3244 11.111C44.1904 10.8813 43.9798 10.7186 43.7214 10.6516C43.463 10.5846 43.2046 10.6133 42.975 10.7473C42.7453 10.8813 42.5826 11.0919 42.5156 11.3502L41.0418 16.834C40.9939 17.0063 40.8791 17.1499 40.7259 17.236L37.3763 19.1788Z" fill="#212121"/>
<path d="M43.4251 39.7742C43.0231 39.7742 42.6212 39.6689 42.2575 39.4584C41.7215 39.1426 41.3387 38.6449 41.176 38.042L39.7883 32.8262L36.0942 30.6824C35.7784 30.5006 35.6635 30.0891 35.8549 29.7637L37.5202 26.8926C37.6063 26.7395 37.7594 26.6246 37.9317 26.5768C38.104 26.5289 38.2858 26.5576 38.4389 26.6438L42.1331 28.7875L47.3489 27.3998C47.9518 27.2371 48.5739 27.3232 49.1194 27.6391C49.6553 27.9549 50.0381 28.4525 50.2008 29.0555C50.3635 29.6584 50.2774 30.2805 49.9616 30.826C49.6458 31.3619 49.1481 31.7447 48.5452 31.9074L47.8274 32.0988L49.4831 33.0654C50.019 33.3813 50.4018 33.8789 50.5645 34.4818C50.7272 35.0848 50.6411 35.7068 50.3253 36.2428C50.0094 36.7787 49.5118 37.1615 48.9089 37.3242C48.3059 37.4869 47.6839 37.4008 47.1479 37.085L45.4922 36.1279L45.6837 36.8457C46.009 38.0898 45.2721 39.3627 44.028 39.6881C43.827 39.7455 43.626 39.7742 43.4251 39.7742ZM37.3575 29.8498L40.7071 31.7926C40.8602 31.8787 40.9751 32.0318 41.0229 32.2041L42.4776 37.6879C42.5446 37.9463 42.7073 38.1568 42.937 38.2908C43.1667 38.4248 43.4346 38.4631 43.6835 38.3961C44.2098 38.2525 44.5256 37.7166 44.3821 37.1902L43.7792 34.9125C43.7122 34.6541 43.8079 34.3766 44.0184 34.2043C44.2385 34.0416 44.5256 34.0225 44.7649 34.1564L47.8178 35.927C48.0475 36.0609 48.3155 36.0992 48.5643 36.0322C48.8227 35.9652 49.0333 35.8025 49.1672 35.5729C49.3012 35.3432 49.3395 35.0752 49.263 34.8264C49.196 34.568 49.0333 34.3574 48.8036 34.2234L45.7506 32.4434C45.521 32.3094 45.387 32.0414 45.4253 31.7734C45.4635 31.5055 45.6549 31.2854 45.9133 31.2184L48.2006 30.6154C48.459 30.5484 48.6696 30.3857 48.8036 30.1561C48.9376 29.9264 48.9758 29.6584 48.9089 29.4096C48.8419 29.1607 48.6792 28.9406 48.4495 28.8066C48.2198 28.6727 47.9518 28.6344 47.703 28.7014L42.2192 30.1561C42.0469 30.2039 41.8651 30.1752 41.712 30.0891L38.3624 28.1463L37.3575 29.8498Z" fill="#212121"/>
<path d="M30.025 47.8805C30.0154 47.8805 30.0154 47.8805 30.025 47.8805C29.3934 47.8805 28.8096 47.6317 28.3693 47.1914C27.9291 46.7512 27.6898 46.1674 27.6994 45.5453L27.709 43.6313L27.1826 44.1576C26.2734 45.0572 24.79 45.0572 23.8904 44.1481C23.4502 43.7078 23.2109 43.124 23.2109 42.502C23.2109 41.8799 23.4598 41.2961 23.9 40.8559L27.7377 37.0565L27.7568 32.7881C27.7568 32.6063 27.8334 32.4436 27.9578 32.3192C28.0822 32.1947 28.2545 32.1182 28.4363 32.1278L31.7477 32.1373C32.1209 32.1373 32.4176 32.4436 32.4176 32.8072L32.3984 37.0756L36.1979 40.9037C36.6381 41.344 36.8773 41.9278 36.8773 42.5498C36.8773 43.1719 36.6285 43.7557 36.1883 44.1959C35.748 44.6362 35.1643 44.8754 34.5518 44.8754H34.5422C33.9201 44.8754 33.3363 44.6266 32.8961 44.1864L32.3697 43.66L32.3602 45.574C32.341 46.8469 31.2979 47.8805 30.025 47.8805ZM28.3789 41.344C28.465 41.344 28.5512 41.3631 28.6373 41.3918C28.8861 41.4971 29.0488 41.7459 29.0488 42.0139L29.0297 45.5549C29.0297 45.8229 29.135 46.0717 29.3168 46.2535C29.4986 46.4449 29.7475 46.5406 30.0154 46.5502C30.2738 46.5502 30.5227 46.4449 30.7141 46.2631C30.9055 46.0813 31.0012 45.8324 31.0107 45.5645L31.0203 42.033C31.0203 41.7651 31.183 41.5162 31.4318 41.4205C31.6807 41.3153 31.9678 41.3727 32.1592 41.5641L33.8244 43.2389C34.0063 43.4303 34.2551 43.526 34.523 43.5356C34.7814 43.5356 35.0303 43.4303 35.2217 43.2485C35.4131 43.0666 35.5088 42.8178 35.5184 42.5498C35.5184 42.2819 35.4131 42.033 35.2312 41.8512L31.2309 37.8125C31.1064 37.6881 31.0395 37.5158 31.0395 37.334L31.0586 33.458L29.0871 33.4485L29.068 37.3244C29.068 37.5063 28.9914 37.669 28.867 37.7934L24.8379 41.7938C24.6465 41.9756 24.5508 42.2244 24.5412 42.4924C24.5412 42.7604 24.6465 43.0092 24.8283 43.191C25.0102 43.3824 25.259 43.4781 25.527 43.4877C25.7949 43.4877 26.0438 43.3824 26.2256 43.2006L27.9004 41.5354C28.0344 41.411 28.2066 41.344 28.3789 41.344Z" fill="#212121"/>
<path d="M16.6827 39.669C16.4722 39.669 16.2712 39.6403 16.0607 39.5829C15.4577 39.4202 14.9601 39.0278 14.6538 38.4918C14.3476 37.9559 14.271 37.3243 14.4337 36.7213L14.6347 36.0036L12.9694 36.951C12.4335 37.2573 11.8019 37.3338 11.1989 37.1711C10.596 37.0084 10.0983 36.6161 9.7921 36.0801C9.48585 35.5346 9.39972 34.9125 9.57198 34.3096C9.73468 33.7067 10.1271 33.209 10.663 32.9028L12.3282 31.9553L11.6105 31.7543C11.0075 31.5916 10.5099 31.1993 10.2036 30.6633C9.89737 30.1274 9.82081 29.4957 9.9835 28.8928C10.1462 28.2899 10.5386 27.7922 11.0745 27.486C11.6105 27.1797 12.2421 27.1032 12.845 27.2659L18.0513 28.6918L21.755 26.5768C22.0804 26.395 22.4823 26.5098 22.6642 26.8256L24.3103 29.7063C24.3964 29.8594 24.4251 30.0413 24.3773 30.2135C24.3294 30.3858 24.2146 30.5293 24.0614 30.6155L20.3577 32.7305L18.9317 37.9368C18.7691 38.5397 18.3767 39.0373 17.8407 39.3436C17.4771 39.5637 17.0847 39.669 16.6827 39.669ZM15.697 33.9555C15.8405 33.9555 15.9841 34.0034 16.1085 34.0991C16.3191 34.2618 16.4148 34.5393 16.3478 34.8073L15.7257 37.085C15.6587 37.3434 15.6874 37.6018 15.8214 37.8315C15.9554 38.0612 16.1659 38.2239 16.4148 38.2909C16.6636 38.3579 16.9316 38.3291 17.1612 38.1952C17.3909 38.0612 17.5536 37.8506 17.6206 37.6018L19.1232 32.1276C19.171 31.9553 19.2858 31.8118 19.439 31.7256L22.8077 29.802L21.8316 28.0889L18.4628 30.0125C18.3097 30.0987 18.1278 30.1274 17.9556 30.0795L12.4814 28.577C12.223 28.51 11.9646 28.5387 11.7349 28.6727C11.5052 28.8067 11.3425 29.0172 11.2755 29.2661C11.1319 29.7924 11.4382 30.3379 11.9646 30.4815L14.2423 31.1036C14.5007 31.1706 14.6921 31.4002 14.7304 31.6682C14.7687 31.9362 14.6347 32.2041 14.3954 32.3381L11.3233 34.0704C11.0937 34.2043 10.931 34.4149 10.864 34.6637C10.797 34.9221 10.8257 35.1805 10.9597 35.4102C11.0937 35.6399 11.3042 35.8026 11.553 35.8696C11.8114 35.9366 12.0698 35.9079 12.2995 35.7739L15.3716 34.0225C15.4769 33.9842 15.5917 33.9555 15.697 33.9555Z" fill="#212121"/>
<path d="M22.1086 22.4041C21.9937 22.4041 21.8789 22.3754 21.7736 22.3084L18.089 20.1551L12.8636 21.5141C12.2607 21.6672 11.6386 21.581 11.1027 21.2652C10.5668 20.9494 10.1839 20.4422 10.0308 19.8488C9.87769 19.2459 9.96382 18.6238 10.2796 18.0879C10.5955 17.5519 11.1027 17.1691 11.6961 17.016L12.4138 16.8246L10.7582 15.858C9.648 15.2072 9.27476 13.7812 9.92554 12.6711C10.2414 12.1351 10.7486 11.7523 11.3515 11.5992C11.9544 11.4461 12.5765 11.5322 13.1125 11.848L14.7681 12.8146L14.5767 12.0969C14.2513 10.8527 14.9978 9.57987 16.2419 9.25448C16.8449 9.10136 17.4669 9.18749 18.0029 9.50331C18.5388 9.81913 18.9216 10.3264 19.0748 10.9197L20.4337 16.1451L24.1183 18.2984C24.2714 18.3846 24.3863 18.5377 24.4246 18.7099C24.4628 18.8822 24.4437 19.0641 24.3576 19.2172L22.6828 22.0787C22.5679 22.2892 22.3382 22.4041 22.1086 22.4041ZM18.1943 18.7674C18.3091 18.7674 18.4336 18.7961 18.5293 18.8631L21.8693 20.825L22.8646 19.1215L19.5246 17.1596C19.3714 17.0734 19.2566 16.9203 19.2183 16.748L17.7828 11.2547C17.7158 10.9963 17.5531 10.7857 17.3234 10.6517C17.0937 10.5178 16.8257 10.4795 16.5769 10.5465C16.0505 10.6805 15.7347 11.226 15.8687 11.7523L16.4621 14.0396C16.5291 14.298 16.4334 14.5756 16.2228 14.7383C16.0027 14.901 15.7156 14.9201 15.4763 14.7861L12.433 12.9965C12.2033 12.8625 11.9353 12.8242 11.6865 12.8912C11.4281 12.9582 11.2175 13.1209 11.0836 13.3506C10.9496 13.5803 10.9113 13.8482 10.9783 14.0971C11.0453 14.3555 11.208 14.566 11.4377 14.7L14.481 16.4896C14.7107 16.6236 14.8447 16.8916 14.8064 17.1596C14.7681 17.4275 14.5767 17.6476 14.3087 17.7146L12.0214 18.308C11.763 18.375 11.5525 18.5377 11.4185 18.7674C11.2845 18.9971 11.2462 19.265 11.3132 19.5139C11.3802 19.7627 11.5429 19.9828 11.7726 20.1168C12.0023 20.2508 12.2703 20.2891 12.5191 20.2221L18.0125 18.7865C18.0794 18.7769 18.1369 18.7674 18.1943 18.7674Z" fill="#212121"/>
<path d="M33.6993 33.4576H26.512C25.5358 33.4576 24.6266 32.9312 24.1385 32.0891L20.5497 25.8684C20.0616 25.0262 20.0616 23.9734 20.5497 23.1313L24.1385 16.9105C24.6266 16.0684 25.5358 15.542 26.512 15.542H33.6993C34.6754 15.542 35.5846 16.0684 36.0727 16.9105L39.6616 23.1313C40.1497 23.9734 40.1497 25.0262 39.6616 25.8684L36.0727 32.0891C35.575 32.9312 34.6659 33.4576 33.6993 33.4576ZM26.512 16.8818C26.0143 16.8818 25.5549 17.1498 25.3061 17.5805L21.7172 23.8012C21.4684 24.2318 21.4684 24.7678 21.7172 25.1984L25.3061 31.4191C25.5549 31.8498 26.0143 32.1178 26.512 32.1178H33.6993C34.1969 32.1178 34.6563 31.8498 34.9051 31.4191L38.494 25.1984C38.7428 24.7678 38.7428 24.2318 38.494 23.8012L34.9051 17.5805C34.6563 17.1498 34.1969 16.8818 33.6993 16.8818H26.512Z" fill="#212121"/>
<path d="M32.5693 29.4381H27.6406C27.4013 29.4381 27.1812 29.3137 27.0568 29.1031L24.5972 24.8348C24.4728 24.6242 24.4728 24.3754 24.5972 24.1648L27.0568 19.8965C27.1812 19.6859 27.4013 19.5615 27.6406 19.5615H32.5693C32.8085 19.5615 33.0287 19.6859 33.1531 19.8965L35.6126 24.1648C35.7371 24.3754 35.7371 24.6242 35.6126 24.8348L33.1435 29.1031C33.0287 29.3137 32.8085 29.4381 32.5693 29.4381ZM28.0234 28.0982H32.1769L34.2537 24.4998L32.1769 20.9014H28.0234L25.9466 24.4998L28.0234 28.0982Z" fill="#212121"/>
</svg>
