<svg width="55" height="54" viewBox="0 0 55 54" fill="none" xmlns="http://www.w3.org/2000/svg">
<circle cx="25.3388" cy="28.4726" r="25.3388" fill="#FFBE2E"/>
<path d="M26.2539 31.3906V42.875C26.2539 43.2961 25.9094 43.6406 25.4883 43.6406C25.0672 43.6406 24.7227 43.2961 24.7227 42.875V31.3906C24.7227 30.9695 25.0672 30.625 25.4883 30.625C25.9094 30.625 26.2539 30.9695 26.2539 31.3906ZM20.1289 30.625C19.7078 30.625 19.3633 30.9695 19.3633 31.3906V42.875C19.3633 43.2961 19.7078 43.6406 20.1289 43.6406C20.55 43.6406 20.8945 43.2961 20.8945 42.875V31.3906C20.8945 30.9695 20.55 30.625 20.1289 30.625ZM14.7695 30.625C14.3484 30.625 14.0039 30.9695 14.0039 31.3906V42.875C14.0039 43.2961 14.3484 43.6406 14.7695 43.6406C15.1906 43.6406 15.5352 43.2961 15.5352 42.875V31.3906C15.5352 30.9695 15.1906 30.625 14.7695 30.625ZM31.6133 30.625C31.1922 30.625 30.8477 30.9695 30.8477 31.3906V42.875C30.8477 43.2961 31.1922 43.6406 31.6133 43.6406C32.0344 43.6406 32.3789 43.2961 32.3789 42.875V31.3906C32.3789 30.9695 32.0344 30.625 31.6133 30.625ZM36.9727 30.625C36.5516 30.625 36.207 30.9695 36.207 31.3906V42.875C36.207 43.2961 36.5516 43.6406 36.9727 43.6406C37.3937 43.6406 37.7383 43.2961 37.7383 42.875V31.3906C37.7383 30.9695 37.3937 30.625 36.9727 30.625ZM52.2852 5.35938V24.5C52.2852 25.3422 51.5961 26.0312 50.7539 26.0312H43.0977V45.1719C43.0977 46.0141 42.4086 46.7031 41.5664 46.7031H9.41016C8.56797 46.7031 7.87891 46.0141 7.87891 45.1719V26.0312C7.87891 25.1891 8.56797 24.5 9.41016 24.5H11.707V23.7344C11.707 23.3133 12.0516 22.9688 12.4727 22.9688C12.8938 22.9688 13.2383 23.3133 13.2383 23.7344V24.5H17.0664V5.35938C17.0664 4.51719 17.7555 3.82812 18.5977 3.82812H20.8945V3.0625C20.8945 2.64141 21.2391 2.29688 21.6602 2.29688C22.0813 2.29688 22.4258 2.64141 22.4258 3.0625V3.82812H46.9258V3.0625C46.9258 2.64141 47.2703 2.29688 47.6914 2.29688C48.1125 2.29688 48.457 2.64141 48.457 3.0625V3.82812H50.7539C51.5961 3.82812 52.2852 4.51719 52.2852 5.35938ZM18.5977 5.35938V6.89062H50.7539V5.35938H18.5977ZM41.5664 45.1719V29.0938H9.41016V45.1719H41.5664ZM41.5664 26.0312H9.41016V27.5625H41.5664V26.0312ZM50.7539 24.5V8.42188H18.5977V24.5H50.7539ZM34.6758 9.95312C34.2547 9.95312 33.9102 10.2977 33.9102 10.7188V22.2031C33.9102 22.6242 34.2547 22.9688 34.6758 22.9688C35.0969 22.9688 35.4414 22.6242 35.4414 22.2031V10.7188C35.4414 10.2977 35.0969 9.95312 34.6758 9.95312ZM29.3164 9.95312C28.8953 9.95312 28.5508 10.2977 28.5508 10.7188V22.2031C28.5508 22.6242 28.8953 22.9688 29.3164 22.9688C29.7375 22.9688 30.082 22.6242 30.082 22.2031V10.7188C30.082 10.2977 29.7375 9.95312 29.3164 9.95312ZM23.957 9.95312C23.5359 9.95312 23.1914 10.2977 23.1914 10.7188V22.2031C23.1914 22.6242 23.5359 22.9688 23.957 22.9688C24.3781 22.9688 24.7227 22.6242 24.7227 22.2031V10.7188C24.7227 10.2977 24.3781 9.95312 23.957 9.95312ZM40.8008 9.95312C40.3797 9.95312 40.0352 10.2977 40.0352 10.7188V22.2031C40.0352 22.6242 40.3797 22.9688 40.8008 22.9688C41.2219 22.9688 41.5664 22.6242 41.5664 22.2031V10.7188C41.5664 10.2977 41.2219 9.95312 40.8008 9.95312ZM46.1602 9.95312C45.7391 9.95312 45.3945 10.2977 45.3945 10.7188V22.2031C45.3945 22.6242 45.7391 22.9688 46.1602 22.9688C46.5812 22.9688 46.9258 22.6242 46.9258 22.2031V10.7188C46.9258 10.2977 46.5812 9.95312 46.1602 9.95312Z" fill="black"/>
</svg>
