<svg width="55" height="54" viewBox="0 0 55 54" fill="none" xmlns="http://www.w3.org/2000/svg">
<circle cx="25.3388" cy="28.4726" r="25.3388" fill="#FFBE2E"/>
<path d="M7.81641 46.0546H29.0893C29.5119 46.0546 29.8549 45.7116 29.8549 45.289V24.0161C29.8549 23.5935 29.5119 23.2505 29.0893 23.2505H7.81641C7.39378 23.2505 7.05078 23.5935 7.05078 24.0161V45.289C7.05078 45.7116 7.39378 46.0546 7.81641 46.0546ZM20.2639 24.7817V30.5836H16.6425V24.7817H20.2639ZM8.58203 24.7817H15.1105V31.3493C15.1105 31.7719 15.4535 32.1149 15.8761 32.1149H21.0288C21.4514 32.1149 21.7944 31.7719 21.7944 31.3493V24.7817H28.3229V44.5234H8.58203V24.7817Z" fill="black"/>
<path d="M26.2689 38.8774H20.0352C19.6125 38.8774 19.2695 39.2204 19.2695 39.6431C19.2695 40.0657 19.6125 40.4087 20.0352 40.4087H26.2689C26.6915 40.4087 27.0345 40.0657 27.0345 39.6431C27.0345 39.2204 26.6915 38.8774 26.2689 38.8774Z" fill="black"/>
<path d="M26.2689 41.6475H20.0352C19.6125 41.6475 19.2695 41.9905 19.2695 42.4131C19.2695 42.8357 19.6125 43.1787 20.0352 43.1787H26.2689C26.6915 43.1787 27.0345 42.8357 27.0345 42.4131C27.0345 41.9905 26.6915 41.6475 26.2689 41.6475Z" fill="black"/>
<path d="M50.5058 17.6407C50.5218 17.5971 50.5571 17.5534 50.6007 17.5534H52.2851C52.7077 17.5534 53.0507 17.2104 53.0507 16.7878V11.884C53.0507 11.4614 52.7077 11.1184 52.2851 11.1184H50.6007C50.5571 11.1184 50.5218 11.0747 50.5058 11.0311C50.4277 10.8213 50.3435 10.6153 50.2516 10.4125C50.2332 10.3726 50.2271 10.319 50.2546 10.2915L51.4482 9.09788C51.7476 8.79852 51.7476 8.31464 51.4482 8.01528L47.9807 4.54777C47.6814 4.24841 47.1975 4.24841 46.8981 4.54777L45.7045 5.74138C45.6762 5.76894 45.6234 5.76358 45.5843 5.7452C45.3814 5.65333 45.1755 5.56834 44.9649 5.49025C44.9213 5.47417 44.8777 5.43895 44.8777 5.39531V3.71094C44.8777 3.28831 44.5347 2.94531 44.112 2.94531H39.2082C38.7856 2.94531 38.4426 3.28831 38.4426 3.71094V5.39531C38.4426 5.43895 38.3989 5.47417 38.3553 5.49025C38.1455 5.56834 37.9388 5.65256 37.7367 5.7452C37.6984 5.76358 37.644 5.7697 37.6157 5.74138L36.4221 4.54777C36.1227 4.24841 35.6389 4.24841 35.3395 4.54777L31.872 8.01528C31.5726 8.31464 31.5726 8.79852 31.872 9.09788L33.0656 10.2915C33.0932 10.319 33.087 10.3719 33.0687 10.4125C32.9768 10.6146 32.8926 10.8213 32.8152 11.0311C32.7992 11.0747 32.7632 11.1184 32.7195 11.1184H31.0352C30.6125 11.1184 30.2695 11.4614 30.2695 11.884V16.7878C30.2695 17.2104 30.6125 17.5534 31.0352 17.5534H32.7195C32.7632 17.5534 32.7984 17.5971 32.8152 17.6415C32.8926 17.8505 32.9775 18.0565 33.0694 18.2601C33.0878 18.2999 33.0939 18.3535 33.0664 18.3811L31.8728 19.5747C31.5734 19.874 31.5734 20.3579 31.8728 20.6573L35.3403 24.1248C35.6396 24.4242 36.1235 24.4242 36.4229 24.1248L37.6165 22.9312C37.6448 22.9036 37.6969 22.9097 37.7374 22.9281C37.9396 23.02 38.1463 23.1042 38.3561 23.1815C38.3997 23.1976 38.4433 23.2336 38.4433 23.2773V24.9616C38.4433 25.3843 38.7863 25.7273 39.209 25.7273H44.1128C44.5354 25.7273 44.8784 25.3843 44.8784 24.9616V23.2773C44.8784 23.2336 44.9221 23.1984 44.9665 23.1815C45.1755 23.1042 45.3814 23.0192 45.5843 22.9274C45.6241 22.9097 45.6785 22.9036 45.7053 22.9304L46.8989 24.124C47.1983 24.4234 47.6821 24.4234 47.9815 24.124L51.449 20.6565C51.7484 20.3572 51.7484 19.8733 51.449 19.5739L50.2554 18.3803C50.2278 18.3527 50.234 18.2999 50.2523 18.2586C50.3435 18.0565 50.4277 17.8505 50.5058 17.6407ZM49.172 19.4629L49.8244 20.1152L47.4394 22.5001L46.7871 21.8478C46.3071 21.3678 45.5859 21.2445 44.9512 21.5324C44.782 21.6097 44.6089 21.6802 44.4336 21.7452C43.7736 21.9895 43.3464 22.5905 43.3464 23.2765V24.1952H39.9738V23.2765C39.9738 22.5905 39.5474 21.9902 38.8874 21.7452C38.7113 21.6802 38.5383 21.609 38.3698 21.5332C37.7336 21.2445 37.0139 21.3685 36.5339 21.8486L35.8816 22.5009L33.4966 20.116L34.149 19.4637C34.629 18.9836 34.753 18.2624 34.4644 17.6277C34.3871 17.4585 34.3166 17.2855 34.2515 17.1101C34.0073 16.4502 33.4063 16.023 32.7203 16.023H31.8015V12.6504H32.7203C33.4063 12.6504 34.0065 12.2239 34.2515 11.564C34.3166 11.3879 34.3878 11.2148 34.4636 11.0464C34.7523 10.4109 34.629 9.69047 34.149 9.21042L33.4966 8.55811L35.8816 6.17319L36.5339 6.8255C37.0132 7.30478 37.7344 7.42958 38.3706 7.14094C38.5398 7.06437 38.7121 6.99317 38.8874 6.92809C39.5474 6.68386 39.9738 6.08284 39.9738 5.39684V4.47809H43.3464V5.39684C43.3464 6.08284 43.7736 6.68386 44.4328 6.92809C44.6082 6.99317 44.7812 7.06361 44.9504 7.14094C45.5866 7.42958 46.3071 7.30555 46.7864 6.8255L47.4387 6.17319L49.8236 8.55811L49.1713 9.21042C48.692 9.6897 48.568 10.4102 48.8558 11.0456C48.9324 11.2148 49.0036 11.3879 49.0687 11.564C49.3129 12.2239 49.9139 12.6504 50.5999 12.6504H51.5187V16.023H50.5999C49.9139 16.023 49.3129 16.4502 49.0687 17.1094C49.0036 17.2847 48.9324 17.4585 48.8558 17.6269C48.568 18.2632 48.692 18.9836 49.172 19.4629Z" fill="black"/>
<path d="M41.6615 9.19336C38.8264 9.19336 36.5195 11.5002 36.5195 14.3353C36.5195 17.1704 38.8264 19.4772 41.6615 19.4772C44.4966 19.4772 46.8034 17.1704 46.8034 14.3353C46.8034 11.5002 44.4966 9.19336 41.6615 9.19336ZM41.6615 17.946C39.6708 17.946 38.0508 16.3259 38.0508 14.3353C38.0508 12.3447 39.6708 10.7246 41.6615 10.7246C43.6521 10.7246 45.2722 12.3447 45.2722 14.3353C45.2722 16.3259 43.6521 17.946 41.6615 17.946Z" fill="black"/>
<path d="M46.2185 39.991V29.312C46.2185 28.8894 45.8755 28.5464 45.4529 28.5464C45.0302 28.5464 44.6872 28.8894 44.6872 29.312V39.2253H35.2188C34.7961 39.2253 34.4531 39.5683 34.4531 39.991C34.4531 40.4136 34.7961 40.7566 35.2188 40.7566H45.4529C45.8755 40.7566 46.2185 40.4136 46.2185 39.991Z" fill="black"/>
<path d="M14.7109 8.87256C14.2883 8.87256 13.9453 9.21556 13.9453 9.63818V19.0332C13.9453 19.4558 14.2883 19.7988 14.7109 19.7988C15.1336 19.7988 15.4766 19.4558 15.4766 19.0332V10.4038H26.2696C26.6922 10.4038 27.0352 10.0608 27.0352 9.63818C27.0352 9.21556 26.6922 8.87256 26.2696 8.87256H14.7109Z" fill="black"/>
</svg>
