<svg width="55" height="54" viewBox="0 0 55 54" fill="none" xmlns="http://www.w3.org/2000/svg">
<circle cx="25.3388" cy="28.4726" r="25.3388" fill="#FFBE2E"/>
<path d="M27.6037 5.64811L27.195 7.78392C27.1462 8.03897 27.2491 8.29918 27.4592 8.45183C27.6692 8.60438 27.9486 8.62189 28.176 8.49671L30.081 7.4479L31.986 8.49671C32.0871 8.55232 32.1982 8.57979 32.309 8.57979C32.4479 8.57979 32.5861 8.53672 32.7028 8.45183C32.9129 8.29918 33.0159 8.03897 32.967 7.78392L32.5583 5.64811L34.1445 4.1605C34.3339 3.98288 34.4035 3.71185 34.3233 3.46484C34.2431 3.21792 34.0273 3.03953 33.7697 3.00718L31.6121 2.73596L30.6874 0.767826C30.577 0.532779 30.3407 0.382812 30.081 0.382812C29.8214 0.382812 29.5851 0.532875 29.4746 0.767826L28.55 2.73596L26.3923 3.00718C26.1347 3.03953 25.919 3.21792 25.8388 3.46484C25.7585 3.71185 25.8283 3.98288 26.0176 4.1605L27.6037 5.64811ZM29.083 4.01924C29.3109 3.99063 29.5081 3.84727 29.6059 3.6394L30.081 2.62791L30.5563 3.6394C30.654 3.84727 30.8512 3.99053 31.0791 4.01924L32.1878 4.15868L31.3726 4.92316C31.2052 5.0803 31.1298 5.31219 31.173 5.53777L31.3831 6.63538L30.4041 6.09639C30.3035 6.04097 30.1922 6.01331 30.081 6.01331C29.9698 6.01331 29.8585 6.04097 29.7579 6.09639L28.779 6.63538L28.989 5.53777C29.0322 5.31219 28.9569 5.0803 28.7894 4.92316L27.9742 4.15868L29.083 4.01924ZM36.7627 10.4748L38.8513 11.0802L39.4568 13.1688C39.5291 13.4182 39.739 13.6034 39.9955 13.644C40.0305 13.6496 40.0655 13.6522 40.1004 13.6522C40.3201 13.6522 40.5287 13.544 40.6546 13.3585L41.8759 11.5591L44.0493 11.6288C44.3117 11.6382 44.5497 11.4947 44.6677 11.2633C44.7855 11.032 44.7591 10.7533 44.5999 10.5482L43.2659 8.83081L44.0038 6.78516C44.0919 6.54093 44.0309 6.26779 43.8473 6.08414C43.6637 5.90058 43.3904 5.83961 43.1463 5.92766L41.1008 6.66553L39.3833 5.33162C39.1782 5.17237 38.8996 5.14596 38.6682 5.26386C38.4368 5.38167 38.2945 5.62275 38.3028 5.8822L38.3724 8.05562L36.5731 9.27689C36.3583 9.42264 36.2471 9.67961 36.2877 9.93599C36.3283 10.1925 36.5134 10.4024 36.7628 10.4746L36.7627 10.4748ZM39.43 8.95733C39.6199 8.82833 39.7308 8.61108 39.7233 8.38158L39.6875 7.26463L40.5702 7.95015C40.7514 8.09093 40.9923 8.12912 41.2084 8.05122L42.2595 7.67204L41.8804 8.72324C41.8025 8.93925 41.8406 9.18013 41.9815 9.36149L42.6669 10.2441L41.5501 10.2083C41.3205 10.2008 41.1033 10.3116 40.9742 10.5016L40.3466 11.4264L40.0355 10.353C39.9715 10.1324 39.799 9.96002 39.5786 9.89609L38.5052 9.58496L39.4299 8.95733H39.43ZM49.1649 19.2439L47.1968 18.3192L46.9254 16.1616C46.893 15.9039 46.7147 15.6882 46.4678 15.608C46.2209 15.5277 45.9496 15.5975 45.7721 15.7869L44.2844 17.373L42.1487 16.9642C41.8937 16.9151 41.6333 17.0183 41.4808 17.2284C41.3282 17.4384 41.3107 17.7178 41.4359 17.9453L42.4846 19.8503L41.4359 21.7552C41.3106 21.9827 41.3281 22.262 41.4808 22.4721C41.6334 22.6821 41.8932 22.7853 42.1487 22.7363L44.2844 22.3275L45.7721 23.9137C45.9008 24.0511 46.0787 24.1253 46.2608 24.1253C46.33 24.1253 46.3997 24.1146 46.4677 24.0925C46.7146 24.0123 46.8929 23.7966 46.9253 23.5389L47.1967 21.3813L49.1648 20.4566C49.3998 20.3463 49.5498 20.11 49.5498 19.8504C49.5498 19.5907 49.3998 19.3544 49.1648 19.2441L49.1649 19.2439ZM46.2931 20.3254C46.0853 20.423 45.9419 20.6204 45.9133 20.8482L45.7738 21.957L45.0094 21.1419C44.8815 21.0055 44.7041 20.9303 44.5208 20.9303C44.4789 20.9303 44.4368 20.9342 44.395 20.9422L43.2973 21.1523L43.8362 20.1734C43.947 19.9722 43.947 19.7283 43.8362 19.5272L43.2973 18.5482L44.395 18.7583C44.6199 18.8015 44.8524 18.7261 45.0095 18.5587L45.7739 17.7436L45.9134 18.8524C45.942 19.0802 46.0854 19.2775 46.2932 19.3751L47.3046 19.8503L46.2932 20.3254H46.2931ZM16.1131 11.6297L18.2866 11.5601L19.5078 13.3594C19.6337 13.5449 19.8423 13.6531 20.0621 13.6531C20.0968 13.6531 20.1318 13.6504 20.1669 13.6449C20.4234 13.6043 20.6333 13.4191 20.7057 13.1697L21.311 11.0811L23.3996 10.4757C23.649 10.4034 23.8342 10.1935 23.8749 9.93705C23.9154 9.68056 23.8042 9.4237 23.5894 9.27794L21.7901 8.05667L21.8597 5.88325C21.8681 5.6238 21.7258 5.38282 21.4943 5.26492C21.263 5.14691 20.9843 5.17342 20.7793 5.33267L19.0618 6.66658L17.0162 5.92881C16.7718 5.84067 16.4987 5.90163 16.3152 6.08528C16.1316 6.26894 16.0707 6.54207 16.1587 6.78631L16.8966 8.83196L15.5627 10.5495C15.4034 10.7545 15.377 11.0331 15.4948 11.2644C15.6127 11.4958 15.8506 11.6394 16.1132 11.6299L16.1131 11.6297ZM18.282 8.72411L17.9028 7.6729L18.9539 8.05208C19.1698 8.12988 19.4108 8.09179 19.5921 7.95102L20.4748 7.26549L20.439 8.38244C20.4317 8.61194 20.5424 8.82919 20.7324 8.9582L21.6569 9.58572L20.5836 9.89685C20.363 9.96078 20.1906 10.1332 20.1266 10.3537L19.8156 11.427L19.188 10.5024C19.063 10.3183 18.8552 10.2087 18.6338 10.2087C18.6266 10.2087 18.6194 10.2087 18.6121 10.2089L17.4953 10.2447L18.1807 9.36216C18.3216 9.1808 18.3597 8.93992 18.2819 8.72391L18.282 8.72411ZM13.9024 24.1265C14.0845 24.1265 14.2624 24.0521 14.3911 23.9149L15.8788 22.3288L18.0145 22.7375C18.2691 22.7862 18.5297 22.6835 18.6824 22.4734C18.835 22.2633 18.8525 21.984 18.7273 21.7565L17.6786 19.8515L18.7273 17.9465C18.8526 17.719 18.835 17.4398 18.6824 17.2297C18.5297 17.0197 18.2693 16.9162 18.0145 16.9655L15.8787 17.3742L14.391 15.7881C14.2134 15.5987 13.9422 15.5291 13.6953 15.6093C13.4484 15.6895 13.27 15.9052 13.2377 16.1628L12.9664 18.3204L10.9983 19.2452C10.7632 19.3557 10.6133 19.592 10.6133 19.8515C10.6133 20.1111 10.7632 20.3474 10.9983 20.4578L12.9664 21.3825L13.2377 23.5401C13.27 23.7977 13.4484 24.0134 13.6953 24.0936C13.7633 24.1158 13.833 24.1265 13.9022 24.1265H13.9024ZM12.8588 19.8515L13.8702 19.3762C14.078 19.2786 14.2214 19.0813 14.25 18.8535L14.3893 17.7448L15.1538 18.5599C15.3109 18.7274 15.5434 18.8029 15.7683 18.7595L16.866 18.5495L16.327 19.5284C16.2163 19.7296 16.2163 19.9734 16.327 20.1746L16.8659 21.1535L15.7683 20.9435C15.5433 20.9001 15.3109 20.9756 15.1538 21.1431L14.3893 21.9582L14.25 20.8495C14.2214 20.6216 14.078 20.4244 13.8702 20.3268L12.8588 19.8516V19.8515ZM21.391 23.005C21.3906 23.0099 21.3903 23.0147 21.39 23.0196C21.2497 25.5665 21.3153 27.9111 21.3978 29.8689C21.4603 31.3464 22.6676 32.5037 24.1463 32.5037H36.0155C37.4942 32.5037 38.7014 31.3463 38.764 29.8689C38.8465 27.9111 38.912 25.5665 38.7717 23.0196C38.7714 23.0147 38.7711 23.0099 38.7708 23.005C38.6546 21.4937 38.2596 20.775 37.2058 20.1572C36.4497 19.7138 35.1948 19.3935 34.0878 19.1109C33.8195 19.0423 33.5603 18.9762 33.3259 18.9129L33.1558 18.8655C32.4879 18.6794 31.7988 18.826 31.2647 19.2675C30.5567 19.8528 29.6051 19.8526 28.8969 19.2675C28.3627 18.8261 27.6736 18.6797 27.006 18.8655L26.8402 18.9116C26.6014 18.9763 26.3422 19.0424 26.0738 19.111C24.9668 19.3936 23.712 19.7139 22.9559 20.1573C21.902 20.7751 21.5071 21.4937 21.3909 23.0052L21.391 23.005ZM30.1923 21.0413L30.7366 26.4847L30.0809 27.4233L29.4252 26.4847L29.9695 21.0413C30.0438 21.044 30.1181 21.044 30.1923 21.0413ZM23.6337 21.313C24.2267 20.9652 25.4346 20.6568 26.4053 20.4091C26.6801 20.3389 26.9457 20.2712 27.195 20.2036L27.3654 20.1561C27.6154 20.0867 27.8436 20.1351 28.0436 20.3003C28.237 20.4601 28.4429 20.5937 28.657 20.702L28.0673 26.5984C28.0513 26.7576 28.0931 26.9175 28.1848 27.0487L29.5318 28.9767C29.6572 29.1561 29.8621 29.263 30.0809 29.263C30.2997 29.263 30.5048 29.156 30.6301 28.9767L31.977 27.0487C32.0687 26.9175 32.1104 26.7576 32.0944 26.5984L31.5048 20.702C31.719 20.5938 31.9248 20.4601 32.1183 20.3003C32.3182 20.1349 32.5461 20.0865 32.7965 20.1561L32.9714 20.2048C33.2163 20.2711 33.4817 20.3388 33.7565 20.4091C34.7272 20.6568 35.9352 20.9653 36.5282 21.313C37.0991 21.6478 37.3414 21.9037 37.4344 23.1006C37.571 25.5874 37.5065 27.8888 37.4253 29.8125C37.3932 30.5703 36.7739 31.1639 36.0156 31.1639H35.6332V26.3957C35.6332 26.0257 35.3333 25.7258 34.9633 25.7258C34.5933 25.7258 34.2934 26.0257 34.2934 26.3957V31.1639H25.8686V26.3957C25.8686 26.0257 25.5686 25.7258 25.1986 25.7258C24.8286 25.7258 24.5287 26.0257 24.5287 26.3957V31.1639H24.1464C23.3878 31.1639 22.7686 30.5703 22.7367 29.8125C22.6554 27.8888 22.591 25.5875 22.7276 23.1006C22.8205 21.9037 23.0628 21.6477 23.6338 21.313H23.6337ZM30.0376 19.1124C30.052 19.1133 30.0665 19.1138 30.0809 19.1138C30.0954 19.1138 30.1098 19.1133 30.1243 19.1124C32.7728 18.9406 34.324 16.1129 34.2423 13.5914C34.1592 11.0269 32.5258 9.36991 30.0809 9.36991C27.6361 9.36991 26.0026 11.0269 25.9196 13.5914C25.8378 16.1129 27.3891 18.9407 30.0376 19.1124ZM27.2586 13.6347C27.2808 12.9486 27.5502 10.7098 30.0809 10.7098C32.6117 10.7098 32.881 12.9486 32.9032 13.6347C32.9645 15.5252 31.8465 17.6249 30.0809 17.7722C28.3154 17.6249 27.1974 15.5252 27.2586 13.6347ZM45.8625 31.4976H39.0126C38.6426 31.4976 38.3427 31.7976 38.3427 32.1675C38.3427 36.7221 34.6373 40.4276 30.0826 40.4276C25.528 40.4276 21.8226 36.7221 21.8226 32.1675C21.8226 31.7976 21.5227 31.4976 21.1527 31.4976H14.3008C13.9308 31.4976 13.6309 31.7976 13.6309 32.1675V34.7936C13.6309 35.1137 13.8572 35.389 14.1712 35.4509L16.9927 36.0071L18.1112 38.704L16.5086 41.0939C16.3304 41.3596 16.3649 41.7143 16.5912 41.9407L20.3071 45.6566C20.5334 45.8829 20.888 45.9174 21.154 45.7392L23.5439 44.1365L26.2406 45.255L26.7969 48.0766C26.8588 48.3905 27.1341 48.6169 27.4542 48.6169H32.709C33.0291 48.6169 33.3044 48.3906 33.3663 48.0766L33.9225 45.255L36.6193 44.1365L39.0092 45.7392C39.2749 45.9174 39.6296 45.8828 39.8561 45.6566L43.572 41.9407C43.7982 41.7144 43.8329 41.3596 43.6546 41.0938L42.0519 38.704L43.1704 36.0071L45.992 35.4509C46.3059 35.389 46.5323 35.1137 46.5323 34.7936V32.1675C46.5323 31.7976 46.2324 31.4976 45.8624 31.4976H45.8625ZM45.1925 34.243L42.5595 34.7621C42.3397 34.8055 42.1561 34.9559 42.0703 35.1629L40.6767 38.5224C40.5908 38.7295 40.6142 38.966 40.7391 39.1522L42.2351 41.3828L39.2981 44.3198L37.0673 42.8238C36.8812 42.6988 36.6446 42.6755 36.4376 42.7614L33.0781 44.155C32.8711 44.2408 32.7208 44.4244 32.6774 44.6442L32.1582 47.2772H28.0048L27.4856 44.6442C27.4423 44.4244 27.2919 44.2408 27.0849 44.155L23.7254 42.7614C23.5183 42.6756 23.2818 42.6989 23.0956 42.8238L20.8649 44.3198L17.9279 41.3828L19.4238 39.1521C19.5488 38.9659 19.5721 38.7295 19.4862 38.5224L18.0926 35.1629C18.0068 34.9559 17.8232 34.8056 17.6034 34.7621L14.9705 34.243V32.8375H20.5056C20.8507 37.8196 25.0142 41.7674 30.0824 41.7674C35.1505 41.7674 39.314 37.8196 39.6591 32.8375H45.1922V34.243H45.1925Z" fill="black"/>
</svg>
