<svg width="223" height="223" viewBox="0 0 223 223" fill="none" xmlns="http://www.w3.org/2000/svg">
<path d="M90.5608 155.799C90.4861 155.799 90.4131 155.761 90.3733 155.691C90.313 155.587 90.3479 155.454 90.4513 155.394L117.429 139.716C119.596 138.458 123.133 138.457 125.313 139.716L152.467 155.394C152.57 155.453 152.606 155.586 152.546 155.69C152.485 155.794 152.351 155.829 152.249 155.77L125.096 140.092C123.035 138.903 119.693 138.902 117.648 140.092L90.6703 155.77C90.6355 155.79 90.5982 155.799 90.5608 155.799Z" fill="#DBDEE4"/>
<path d="M134.417 143.852C135.075 143.852 135.711 144.001 136.164 144.263C136.527 144.472 136.735 144.73 136.736 144.969C136.736 145.206 136.532 145.46 136.175 145.668C135.727 145.928 135.092 146.078 134.435 146.078C133.778 146.078 133.142 145.928 132.69 145.667C132.326 145.457 132.118 145.199 132.117 144.96C132.117 144.723 132.321 144.469 132.678 144.261C133.126 144.001 133.76 143.852 134.417 143.852Z" fill="#383C43"/>
<path d="M111.858 141.801C112.516 141.801 113.153 141.951 113.605 142.212C113.968 142.422 114.177 142.679 114.177 142.919C114.177 143.155 113.973 143.41 113.616 143.617C113.168 143.878 112.534 144.027 111.877 144.027C111.219 144.027 110.583 143.878 110.131 143.617C109.768 143.407 109.559 143.149 109.559 142.909C109.558 142.673 109.763 142.418 110.119 142.211C110.567 141.951 111.201 141.801 111.858 141.801Z" fill="#383C43"/>
<path d="M173.246 137.975C173.209 137.975 173.17 137.965 173.136 137.945L158.257 129.245C157.728 128.938 157.398 128.365 157.398 127.752V85.1851C157.398 85.065 157.496 84.9678 157.616 84.9678C157.735 84.9678 157.833 85.0649 157.833 85.1851V127.752C157.833 128.211 158.079 128.639 158.476 128.87L173.355 137.57C173.459 137.63 173.494 137.763 173.433 137.867C173.393 137.936 173.321 137.975 173.246 137.975Z" fill="#DBDEE4"/>
<g opacity="0.1">
<path d="M189.983 204.113L157.41 185.184L189.927 166.41L222.5 185.339L189.983 204.113Z" fill="#010101"/>
</g>
<path d="M190.042 198.7L157.723 179.918L189.986 161.291L222.306 180.073L190.042 198.7Z" fill="#FFEECC"/>
<path d="M190.04 198.918C190.002 198.918 189.964 198.908 189.93 198.888L157.612 180.106C157.545 180.067 157.504 179.995 157.504 179.918C157.504 179.84 157.546 179.769 157.613 179.73L189.876 161.103C189.944 161.064 190.026 161.064 190.094 161.103L222.413 179.885C222.481 179.924 222.521 179.995 222.521 180.073C222.521 180.15 222.48 180.222 222.413 180.261L190.148 198.888C190.115 198.908 190.077 198.918 190.04 198.918ZM158.155 179.919L190.04 198.449L221.87 180.072L189.985 161.542L158.155 179.919Z" fill="#383C43"/>
<path d="M190.038 198.7L157.718 179.918L157.613 142.837L189.932 161.619L190.038 198.7Z" fill="#FFEECC"/>
<path d="M190.04 198.917C190.002 198.917 189.964 198.908 189.93 198.888L157.612 180.106C157.545 180.067 157.504 179.996 157.504 179.918L157.398 142.837C157.398 142.76 157.44 142.688 157.507 142.649C157.575 142.61 157.657 142.61 157.725 142.649L190.044 161.431C190.11 161.47 190.152 161.541 190.152 161.618L190.257 198.7C190.257 198.777 190.215 198.849 190.148 198.888C190.114 198.908 190.077 198.917 190.04 198.917ZM157.938 179.793L189.822 198.322L189.717 161.744L157.834 143.215L157.938 179.793Z" fill="#383C43"/>
<path d="M189.932 161.619L157.613 142.837L189.877 124.209L222.196 142.991L189.932 161.619Z" fill="#FFF7E4"/>
<path d="M189.934 161.836C189.897 161.836 189.859 161.827 189.825 161.807L157.506 143.025C157.439 142.986 157.398 142.914 157.398 142.837C157.398 142.759 157.44 142.688 157.507 142.649L189.77 124.022C189.838 123.983 189.921 123.983 189.989 124.022L222.308 142.804C222.375 142.843 222.416 142.914 222.416 142.992C222.416 143.069 222.374 143.141 222.307 143.18L190.043 161.807C190.009 161.827 189.972 161.836 189.934 161.836ZM158.05 142.838L189.935 161.368L221.765 142.991L189.879 124.461L158.05 142.838Z" fill="#383C43"/>
<path d="M209.872 150.114L202.356 154.451L170.035 135.67L177.552 131.333L209.872 150.114Z" fill="#212121"/>
<path d="M202.359 154.668C202.321 154.668 202.283 154.658 202.249 154.639L169.928 135.858C169.861 135.819 169.82 135.747 169.82 135.67C169.82 135.593 169.862 135.521 169.929 135.482L177.446 131.145C177.513 131.106 177.596 131.106 177.664 131.145L209.985 149.926C210.052 149.965 210.093 150.037 210.093 150.114C210.093 150.191 210.051 150.263 209.984 150.302L202.467 154.638C202.434 154.658 202.396 154.668 202.359 154.668ZM170.471 135.671L202.359 154.199L209.442 150.113L177.554 131.584L170.471 135.671Z" fill="#383C43"/>
<path d="M222.305 180.075L190.037 198.702L189.934 161.621L202.357 154.451L209.873 150.114L222.202 142.995L222.305 180.075Z" fill="#FFBE2E"/>
<path d="M190.04 198.919C190.002 198.919 189.965 198.909 189.931 198.89C189.864 198.852 189.822 198.78 189.822 198.702L189.719 161.622C189.719 161.544 189.76 161.472 189.827 161.433L222.096 142.807C222.164 142.767 222.245 142.768 222.313 142.806C222.38 142.845 222.422 142.916 222.422 142.994L222.525 180.075C222.525 180.152 222.484 180.225 222.417 180.263L190.148 198.89C190.114 198.909 190.077 198.919 190.04 198.919ZM190.153 161.747L190.256 198.326L222.091 179.95L221.988 143.37L190.153 161.747Z" fill="#383C43"/>
<path d="M201.602 176.661C201.525 176.706 201.447 176.787 201.388 176.892L199.276 180.759C199.106 181.068 199.237 181.337 199.488 181.192L200.394 180.669L200.416 188.682C200.417 188.818 200.514 188.874 200.633 188.805L202.633 187.65C202.755 187.58 202.849 187.414 202.849 187.278L202.826 179.265L203.732 178.742C203.983 178.597 204.111 178.178 203.943 178.064L201.814 176.647C201.757 176.608 201.68 176.617 201.602 176.661Z" fill="#383C43"/>
<path d="M195.389 180.246C195.312 180.291 195.235 180.371 195.179 180.475L193.064 184.343C192.895 184.652 193.028 184.919 193.279 184.774L194.185 184.251L194.207 192.264C194.208 192.4 194.302 192.458 194.424 192.388L196.425 191.232C196.543 191.164 196.64 190.996 196.64 190.86L196.617 182.847L197.523 182.324C197.774 182.179 197.902 181.761 197.729 181.65L195.602 180.23C195.544 180.192 195.466 180.201 195.389 180.246Z" fill="#383C43"/>
<path d="M202.371 154.418L202.372 164.296L206.123 158.172L209.874 159.993L209.873 150.114L202.371 154.418Z" fill="#212121"/>
<path d="M202.37 164.513C202.351 164.513 202.331 164.511 202.312 164.505C202.218 164.479 202.153 164.393 202.153 164.296L202.152 154.417C202.152 154.34 202.194 154.268 202.262 154.229L209.764 149.926C209.83 149.888 209.914 149.887 209.981 149.926C210.048 149.965 210.089 150.036 210.089 150.114L210.09 159.993C210.09 160.068 210.052 160.137 209.988 160.177C209.924 160.218 209.847 160.221 209.778 160.189L206.204 158.453L202.556 164.41C202.516 164.475 202.444 164.513 202.37 164.513ZM202.587 154.543L202.588 163.526L205.936 158.058C205.995 157.961 206.117 157.928 206.216 157.976L209.655 159.646L209.655 150.489L202.587 154.543Z" fill="#383C43"/>
<g opacity="0.1">
<path d="M157.71 222.721L125.137 203.792L157.654 185.018L190.227 203.947L157.71 222.721Z" fill="#010101"/>
</g>
<path d="M157.764 217.308L125.445 198.526L157.709 179.899L190.028 198.681L157.764 217.308Z" fill="#FFEECC"/>
<path d="M157.763 217.525C157.726 217.525 157.688 217.516 157.654 217.496L125.334 198.714C125.267 198.675 125.227 198.603 125.227 198.526C125.227 198.448 125.268 198.377 125.335 198.338L157.599 179.71C157.666 179.671 157.749 179.671 157.817 179.71L190.136 198.492C190.203 198.532 190.244 198.603 190.244 198.681C190.244 198.758 190.202 198.83 190.135 198.868L157.872 217.496C157.838 217.516 157.801 217.525 157.763 217.525ZM125.878 198.526L157.763 217.057L189.593 198.68L157.707 180.15L125.878 198.526Z" fill="#383C43"/>
<path d="M157.764 217.308L125.445 198.526L125.34 161.445L157.659 180.227L157.764 217.308Z" fill="#212121"/>
<path d="M157.763 217.525C157.726 217.525 157.688 217.515 157.654 217.496L125.334 198.714C125.268 198.675 125.226 198.604 125.226 198.526L125.121 161.445C125.121 161.368 125.163 161.296 125.23 161.257C125.298 161.218 125.38 161.218 125.448 161.257L157.767 180.039C157.834 180.078 157.875 180.149 157.875 180.226L157.98 217.307C157.98 217.385 157.939 217.457 157.872 217.496C157.838 217.515 157.801 217.525 157.763 217.525ZM125.661 198.401L157.545 216.93L157.441 180.352L125.557 161.823L125.661 198.401Z" fill="#383C43"/>
<path d="M157.659 180.227L125.34 161.445L157.604 142.818L189.923 161.6L157.659 180.227Z" fill="#FFF7E4"/>
<path d="M157.658 180.444C157.621 180.444 157.582 180.434 157.548 180.415L125.229 161.633C125.162 161.594 125.121 161.522 125.121 161.444C125.121 161.367 125.163 161.295 125.23 161.257L157.494 142.629C157.562 142.59 157.644 142.59 157.712 142.629L190.031 161.411C190.098 161.45 190.138 161.522 190.138 161.6C190.138 161.677 190.097 161.749 190.03 161.787L157.766 180.415C157.733 180.434 157.695 180.444 157.658 180.444ZM125.772 161.445L157.658 179.976L189.488 161.599L157.603 143.069L125.772 161.445Z" fill="#383C43"/>
<path d="M177.595 168.722L170.079 173.059L137.758 154.278L145.274 149.941L177.595 168.722Z" fill="#212121"/>
<path d="M170.082 173.276C170.044 173.276 170.006 173.266 169.972 173.247L137.651 154.466C137.584 154.427 137.543 154.355 137.543 154.278C137.543 154.2 137.584 154.129 137.652 154.09L145.168 149.753C145.236 149.714 145.319 149.714 145.386 149.753L177.707 168.534C177.774 168.573 177.814 168.645 177.814 168.722C177.814 168.799 177.773 168.871 177.706 168.91L170.19 173.247C170.156 173.266 170.119 173.276 170.082 173.276ZM138.194 154.279L170.082 172.808L177.164 168.721L145.277 150.193L138.194 154.279Z" fill="#383C43"/>
<path d="M190.028 198.683L157.76 217.31L157.656 180.229L170.08 173.059L177.596 168.722L189.925 161.603L190.028 198.683Z" fill="#FFBE2E"/>
<path d="M157.762 217.527C157.725 217.527 157.688 217.517 157.654 217.498C157.587 217.46 157.545 217.388 157.545 217.31L157.441 180.23C157.441 180.152 157.483 180.08 157.55 180.041L189.818 161.414C189.886 161.375 189.967 161.376 190.035 161.414C190.102 161.453 190.144 161.524 190.144 161.602L190.247 198.683C190.247 198.76 190.206 198.833 190.139 198.871L157.871 217.498C157.837 217.517 157.799 217.527 157.762 217.527ZM157.876 180.354L157.979 216.934L189.813 198.558L189.71 161.978L157.876 180.354Z" fill="#383C43"/>
<path d="M169.325 195.269C169.247 195.314 169.169 195.395 169.11 195.5L166.998 199.367C166.829 199.676 166.959 199.945 167.21 199.8L168.116 199.277L168.139 207.29C168.139 207.426 168.237 207.482 168.355 207.413L170.356 206.258C170.478 206.188 170.572 206.022 170.571 205.886L170.548 197.873L171.455 197.35C171.705 197.205 171.834 196.786 171.666 196.672L169.536 195.254C169.48 195.216 169.403 195.225 169.325 195.269Z" fill="#383C43"/>
<path d="M163.116 198.854C163.038 198.899 162.962 198.979 162.905 199.082L160.791 202.951C160.621 203.259 160.754 203.527 161.005 203.382L161.911 202.859L161.934 210.872C161.934 211.008 162.029 211.065 162.15 210.995L164.151 209.84C164.27 209.772 164.367 209.604 164.366 209.468L164.343 201.455L165.249 200.932C165.5 200.787 165.629 200.369 165.456 200.258L163.329 198.838C163.27 198.8 163.193 198.809 163.116 198.854Z" fill="#383C43"/>
<path d="M170.094 173.025L170.094 182.904L173.845 176.779L177.596 178.601L177.596 168.722L170.094 173.025Z" fill="#212121"/>
<path d="M170.092 183.121C170.073 183.121 170.053 183.118 170.034 183.113C169.939 183.087 169.875 183.001 169.875 182.904V173.025C169.875 172.947 169.917 172.875 169.985 172.836L177.487 168.533C177.553 168.495 177.637 168.495 177.703 168.534C177.77 168.573 177.812 168.644 177.812 168.722V178.6C177.812 178.675 177.774 178.745 177.71 178.785C177.646 178.824 177.568 178.829 177.5 178.796L173.926 177.06L170.277 183.017C170.237 183.083 170.166 183.121 170.092 183.121ZM170.31 173.151V182.133L173.659 176.666C173.717 176.569 173.84 176.536 173.939 176.583L177.377 178.253V169.097L170.31 173.151Z" fill="#383C43"/>
<g opacity="0.1">
<path d="M97.7565 177.083L18.6851 222.721L0 211.862L79.0462 166.211L97.7565 177.083Z" fill="#010101"/>
</g>
<path d="M84.6619 0.657661C83.4763 -0.0267746 81.8164 0.0724209 79.9979 1.12668L11.9963 40.3963C10.9009 41.0286 9.86968 41.9268 8.96802 42.998C8.37698 43.6815 7.83612 44.4486 7.37355 45.2499C6.91098 46.0512 6.51833 46.8821 6.209 47.7392C5.71806 49.0802 5.44162 50.4469 5.45349 51.7294L5.88046 201.912C5.87839 203.993 6.60733 205.449 7.78478 206.129L21.4866 214.083C20.3011 213.399 19.5639 211.937 19.5694 209.869L19.1342 59.6818C19.1236 58.3783 19.4047 57.0034 19.9132 55.6506C20.2226 54.7937 20.6236 53.9675 21.0861 53.1662C21.5487 52.3649 22.0848 51.6059 22.6806 50.9143C23.5775 49.8512 24.604 48.9612 25.6864 48.3323L93.6783 9.07895C95.5181 8.02611 97.157 7.92563 98.3671 8.62425L84.6619 0.657661Z" fill="#212121"/>
<path d="M22.6786 50.914L8.96605 42.9976C8.37501 43.6811 7.83415 44.4482 7.37158 45.2495C6.90901 46.0508 6.51636 46.8817 6.20703 47.7388L19.9112 55.6503C20.2207 54.7934 20.6216 53.9672 21.0842 53.1659C21.5467 52.3646 22.0828 51.6058 22.6786 50.914Z" fill="#212121"/>
<path d="M21.4837 214.302C21.4464 214.302 21.409 214.293 21.375 214.273C21.3691 214.269 21.3623 214.265 21.3563 214.262L7.67757 206.317C6.37719 205.565 5.6609 204.002 5.6609 201.914L5.23058 51.7314C5.22039 49.6663 5.91475 47.3254 7.18611 45.1412C8.43979 42.9883 10.1084 41.2351 11.8849 40.2047L79.8867 0.938057C81.7184 -0.125875 83.4532 -0.290084 84.7739 0.472521L98.479 8.43227C98.5826 8.49251 98.6174 8.62538 98.558 8.72935C98.4968 8.83293 98.3619 8.86814 98.2609 8.80829C98.2609 8.80829 98.2609 8.80829 98.26 8.80829L98.255 8.80532C97.0802 8.13017 95.4939 8.29348 93.7921 9.2666L25.7955 48.5248C24.087 49.511 22.481 51.198 21.2716 53.2744C20.0264 55.415 19.3457 57.6906 19.3543 59.6817L19.7846 209.864C19.7777 211.788 20.4195 213.219 21.5924 213.896H21.5933C21.6969 213.957 21.7317 214.09 21.6722 214.193C21.6314 214.263 21.5583 214.302 21.4837 214.302ZM82.9432 0.434726C82.0766 0.434726 81.1098 0.730122 80.1048 1.31407L12.1022 40.5807C10.3902 41.5739 8.77749 43.2709 7.56122 45.3598C6.32882 47.4784 5.65574 49.7408 5.66502 51.7298L6.09534 201.913C6.09534 203.84 6.7345 205.27 7.89557 205.941L20.1221 213.043C19.6129 212.222 19.3447 211.14 19.3497 209.864L18.9194 59.6831C18.9101 57.6164 19.612 55.2627 20.8962 53.056C22.1422 50.915 23.805 49.172 25.578 48.1489L93.5755 8.88994C94.718 8.23685 95.8273 7.92237 96.8059 7.9639L84.5556 0.848666C84.0779 0.572235 83.5338 0.434726 82.9432 0.434726Z" fill="#383C43"/>
<path d="M89.4125 11.759C89.3751 11.759 89.3378 11.7497 89.3039 11.7297L75.5734 3.80299C75.4698 3.74313 75.4342 3.61027 75.4935 3.5063C75.5547 3.40143 75.6879 3.36673 75.7906 3.42697L89.5211 11.3536C89.6247 11.4134 89.6603 11.5463 89.601 11.6503C89.5602 11.72 89.4872 11.759 89.4125 11.759Z" fill="#383C43"/>
<path d="M12.5997 77.696C12.0222 77.3739 11.4986 77.3337 11.1231 77.5499L9.73047 78.3482C10.1145 78.1369 10.6294 78.1723 11.2068 78.4942C12.3604 79.1602 13.293 80.7809 13.297 82.1161L13.2962 93.7843C13.2907 94.4646 13.0549 94.9322 12.6745 95.157L14.0671 94.3587C14.4476 94.1341 14.6834 93.6664 14.6888 92.9859L14.6896 81.3178C14.6859 79.9827 13.753 78.3619 12.5997 77.696Z" fill="#383C43"/>
<path d="M12.6733 95.3746C12.5986 95.3746 12.5256 95.3361 12.4857 95.2668C12.4255 95.1632 12.4603 95.0309 12.563 94.9701C12.8906 94.777 13.0732 94.3552 13.0773 93.7831L13.0781 82.1168C13.0738 80.8521 12.1852 79.3112 11.0962 78.6826C10.609 78.4114 10.1592 78.3601 9.83414 78.5388C9.72798 78.5977 9.59822 78.5599 9.53966 78.4552C9.48109 78.3512 9.51759 78.2196 9.62117 78.1603L11.014 77.3621C11.469 77.1002 12.0682 77.1533 12.704 77.5072C12.7048 77.5076 12.7056 77.5081 12.7066 77.5089C13.9356 78.218 14.9015 79.891 14.9057 81.3178L14.905 92.9867C14.8999 93.7193 14.6402 94.2727 14.1759 94.5464L12.7814 95.3459C12.7471 95.3652 12.7098 95.3746 12.6733 95.3746ZM10.6837 78.0521C10.8866 78.1014 11.097 78.1857 11.311 78.305C12.5426 79.0159 13.5085 80.6892 13.5126 82.116L13.5117 93.7849C13.51 94.04 13.4769 94.2734 13.4158 94.481L13.9573 94.1707C14.2823 93.9789 14.4656 93.5571 14.4699 92.9851L14.4708 81.3187C14.4665 80.0548 13.5787 78.5152 12.4906 77.8858C11.9941 77.6091 11.5468 77.5578 11.2302 77.739L10.6837 78.0521Z" fill="#383C43"/>
<path d="M13.2912 82.1172C13.2912 80.7789 12.3555 79.1583 11.2002 78.4958C10.0448 77.8332 9.10925 78.3804 9.10938 79.7188L9.1108 91.3901C9.1108 92.7285 10.0465 94.3489 11.2018 95.0115C12.3572 95.6742 13.2927 95.127 13.2926 93.7886L13.2912 82.1172Z" fill="#FFEECC"/>
<path d="M12.1319 95.5116C11.8094 95.5116 11.4571 95.4072 11.0963 95.2001C9.88262 94.504 8.89544 92.7951 8.89544 91.3904L8.89453 79.7194C8.89453 78.989 9.15175 78.4377 9.61857 78.167C10.0828 77.8975 10.6838 77.9484 11.3102 78.3078C12.5239 79.0033 13.5111 80.7128 13.5111 82.1175L13.512 93.7889C13.512 94.5192 13.2547 95.0706 12.7879 95.3408C12.5911 95.4552 12.3695 95.5116 12.1319 95.5116ZM10.2764 78.4314C10.1143 78.4314 9.96581 78.4683 9.83682 78.543C9.50918 78.7327 9.32924 79.1503 9.32924 79.7194L9.33014 91.3904C9.33014 92.6563 10.2197 94.1964 11.312 94.8233C11.8 95.1025 12.2465 95.153 12.5698 94.965C12.8974 94.7753 13.0774 94.3577 13.0774 93.789L13.0765 82.1176C13.0765 80.8517 12.1869 79.3116 11.0946 78.6847C10.801 78.5167 10.5225 78.4314 10.2764 78.4314Z" fill="#383C43"/>
<path d="M14.7798 143.623C14.7798 142.172 13.7654 140.416 12.5129 139.697C11.2604 138.979 10.2461 139.572 10.2461 141.023L10.2494 169.205C10.2494 170.656 11.2638 172.413 12.5164 173.131C13.7689 173.85 14.7832 173.256 14.7832 171.805L14.7798 143.623Z" fill="#FFF7E4"/>
<path d="M13.515 142.926C13.515 143.556 13.0703 143.807 12.527 143.496C11.9765 143.18 11.5391 142.422 11.5391 141.793C11.5391 141.147 11.9765 140.891 12.527 141.207C13.0702 141.518 13.5148 142.28 13.515 142.926Z" fill="#383C43"/>
<path d="M26.156 213.622C22.5241 215.719 19.5749 214.038 19.5629 209.865L19.1328 59.6835C19.1209 55.5101 22.0507 50.4352 25.6826 48.3382L93.681 9.07655C97.313 6.97951 100.262 8.66003 100.274 12.8333L100.704 163.015C100.716 167.188 97.7863 172.263 94.1544 174.36L26.156 213.622Z" fill="#383C43"/>
<path d="M23.2068 214.745C22.543 214.745 21.9284 214.589 21.3845 214.277C20.0774 213.524 19.3543 211.958 19.3483 209.865L18.918 59.6841C18.9061 55.4514 21.893 50.2772 25.5766 48.1502L93.575 8.88872C95.4075 7.82943 97.1406 7.66483 98.458 8.42189C99.7651 9.17431 100.488 10.7408 100.494 12.8329L100.924 163.014C100.936 167.247 97.9495 172.421 94.2659 174.548L26.2675 213.81C25.1921 214.431 24.1498 214.745 23.2068 214.745ZM96.6338 8.38861C95.7672 8.38861 94.7997 8.68272 93.7921 9.26447L25.7937 48.526C22.2305 50.5838 19.3405 55.589 19.3525 59.6831L19.7828 209.864C19.7878 211.795 20.4338 213.228 21.6017 213.9C22.7755 214.576 24.3576 214.411 26.0501 213.434L94.0485 174.172C97.6117 172.114 100.502 167.109 100.49 163.015L100.059 12.8336C100.054 10.9031 99.4084 9.47035 98.2405 8.79855C97.7653 8.52483 97.2229 8.38861 96.6338 8.38861Z" fill="#383C43"/>
<path d="M97.7175 9.70986C98.53 10.179 99.0031 11.3206 99.0068 12.8355L99.4369 163.018C99.4425 164.817 98.8265 166.882 97.6982 168.836C96.5741 170.783 95.0899 172.356 93.5207 173.266L25.5235 212.525C24.1899 213.297 22.9487 213.468 22.1217 212.991C21.3092 212.522 20.8362 211.38 20.8323 209.865L20.4024 59.6829C20.3967 57.8839 21.0128 55.8192 22.1411 53.8648C23.2651 51.9178 24.7493 50.3445 26.3185 49.4352L94.3157 10.176C95.6494 9.40389 96.8903 9.2322 97.7175 9.70986Z" fill="#FFEECC"/>
<path d="M23.201 213.473C22.7555 213.473 22.3532 213.376 22.0118 213.179C21.1275 212.668 20.6173 211.461 20.6139 209.866L20.1836 59.6836C20.1786 57.8443 20.8067 55.7394 21.9516 53.7562C23.0941 51.7773 24.6058 50.1762 26.209 49.2472L94.2056 9.98822C95.6103 9.17428 96.931 9.00491 97.8247 9.52178C98.7091 10.0323 99.2193 11.2401 99.2226 12.835L99.653 163.018C99.6589 164.854 99.0316 166.959 97.8857 168.945C96.7416 170.925 95.2299 172.526 93.6283 173.454L25.6311 212.713C24.762 213.217 23.9251 213.473 23.201 213.473ZM96.6332 9.66006C95.9898 9.66006 95.2285 9.89857 94.4231 10.3641L26.4264 49.623C24.8884 50.5143 23.4327 52.0595 22.3285 53.9735C21.2209 55.8912 20.6132 57.9186 20.6182 59.6827L21.0485 209.865C21.0519 211.301 21.4822 212.371 22.2292 212.803C22.9872 213.241 24.1482 213.07 25.4138 212.337L93.4112 173.078C94.9475 172.187 96.4031 170.642 97.5091 168.728C98.6177 166.808 99.2244 164.78 99.2185 163.019L98.7882 12.8359C98.7848 11.4002 98.3545 10.3294 97.6075 9.89779C97.3318 9.73862 97.0016 9.66006 96.6332 9.66006Z" fill="#383C43"/>
<path d="M44.3855 46.9162C45.3954 46.3408 71.0161 31.64 72.2045 30.9582C74.1036 29.8672 75.6483 27.1915 75.6508 24.9994L75.6466 21.0044C74.4582 21.6861 42.2962 40.1399 40.9419 40.917L40.9414 44.9093C40.9436 47.1041 42.4865 48.0072 44.3855 46.9162Z" fill="#383C43"/>
<path d="M42.8629 47.5983C42.4954 47.5983 42.1543 47.5114 41.8512 47.3361C41.1264 46.9173 40.7275 46.0553 40.7266 44.9095V40.9169C40.7266 40.8393 40.7682 40.7671 40.8361 40.7284C41.6356 40.2701 53.1704 33.6514 62.7318 28.1649L75.5414 20.8158C75.6076 20.7777 75.6917 20.7773 75.7579 20.8162C75.825 20.8548 75.8665 20.9265 75.8665 21.0042L75.8699 24.9993C75.8682 27.2643 74.2733 30.0219 72.3143 31.1465C71.0463 31.8743 45.4949 46.5351 44.4959 47.1047C43.9256 47.4328 43.3696 47.5983 42.8629 47.5983ZM41.1611 41.0429V44.9095C41.162 45.8937 41.4845 46.6219 42.0685 46.9601C42.6498 47.2953 43.4333 47.2125 44.2803 46.7279V46.7275C45.2699 46.1636 70.8299 31.498 72.0988 30.7698C73.9364 29.7144 75.4336 27.1256 75.4353 24.9995L75.4319 21.3794L62.9483 28.5421C53.6924 33.853 42.5872 40.2247 41.1611 41.0429Z" fill="#383C43"/>
<path d="M67.5645 30.5426C67.9582 29.8607 68.1753 29.136 68.1753 28.5033C68.1753 27.9337 68.0023 27.5195 67.6881 27.3372C67.3781 27.1583 66.9419 27.2118 66.4592 27.4883L44.9036 39.854C44.3562 40.1683 43.8372 40.7179 43.4419 41.4027C43.0459 42.0888 42.8277 42.8178 42.8281 43.4547C42.8279 44.0178 42.9999 44.4275 43.3124 44.6078C43.6235 44.7883 44.0619 44.7343 44.5473 44.4561L66.1025 32.091C66.6506 31.7764 67.1696 31.2267 67.5645 30.5426Z" fill="#FFEECC"/>
<path d="M73.1536 27.3361C73.5471 26.6542 73.764 25.9302 73.764 25.2975C73.7642 24.728 73.591 24.3144 73.277 24.1324C72.9671 23.9527 72.5292 24.007 72.0445 24.2846C71.497 24.5989 70.9781 25.1485 70.5828 25.8333C70.1867 26.5194 69.9684 27.2482 69.9688 27.8852C69.9689 28.4477 70.1408 28.8573 70.453 29.0383C70.7641 29.2187 71.2028 29.1649 71.6882 28.8868C72.238 28.5714 72.7582 28.0209 73.1536 27.3361Z" fill="#FFEECC"/>
<path d="M72.6316 27.0324C72.8656 26.6271 72.9945 26.1966 72.9945 25.8205C72.9946 25.4819 72.8917 25.236 72.705 25.1278C72.5208 25.021 72.2605 25.0532 71.9724 25.2184C71.6469 25.4051 71.3384 25.732 71.1033 26.1391C70.8679 26.547 70.738 26.9803 70.7383 27.359C70.7383 27.6933 70.8406 27.9369 71.0261 28.0445C71.2111 28.1518 71.4719 28.1198 71.7604 27.9544C72.0874 27.7669 72.3966 27.4396 72.6316 27.0324Z" fill="#FFBE2E"/>
<path d="M75.5381 14.9001C76.9331 14.0946 76.9221 12.787 75.5364 11.9819C74.1322 11.1659 71.8935 11.1661 70.4985 11.9715C69.0674 12.7979 69.0598 14.0946 70.464 14.9106C71.8497 15.7158 74.1069 15.7264 75.5381 14.9001Z" fill="#383C43"/>
<path d="M19.1639 69.6477C19.1266 69.6477 19.0892 69.6384 19.0553 69.6184L5.36631 61.7159C5.26273 61.656 5.22713 61.5232 5.2866 61.4192C5.34684 61.3143 5.48176 61.28 5.58367 61.3399L19.2726 69.2424C19.3762 69.3022 19.4118 69.4351 19.3525 69.539C19.3116 69.6086 19.2386 69.6477 19.1639 69.6477Z" fill="#383C43"/>
<path d="M19.538 201.268C19.5007 201.268 19.4633 201.259 19.4294 201.239L5.74131 193.337C5.63773 193.277 5.60213 193.144 5.6616 193.04C5.72184 192.935 5.85676 192.901 5.95867 192.961L19.6467 200.863C19.7503 200.923 19.7859 201.056 19.7264 201.16C19.6857 201.229 19.6127 201.268 19.538 201.268Z" fill="#383C43"/>
<path d="M75.4445 98.6205L38.6137 119.881C37.0782 120.767 35.1584 119.662 35.1535 117.889L35.0352 75.5981C35.0304 73.8714 35.9497 72.2741 37.4451 71.411L51.4661 63.3184L61.4117 57.5796L74.2754 50.1514C75.8109 49.2648 77.731 50.3697 77.736 52.1428L77.8543 94.4335C77.8591 96.1601 76.9399 97.7572 75.4445 98.6205Z" fill="#FFEECC"/>
<path d="M37.4595 120.411C37.0266 120.411 36.5946 120.298 36.1999 120.07C35.4106 119.616 34.9378 118.801 34.9352 117.889L34.8164 75.5983C34.8122 73.7989 35.7772 72.1222 37.3355 71.2229L74.1654 49.9633C74.9556 49.508 75.8985 49.5067 76.6871 49.9613C77.4773 50.4158 77.95 51.2311 77.9526 52.1422L78.0706 94.4329C78.0758 96.2324 77.1107 97.909 75.5523 98.8084L38.7217 120.069C38.3262 120.297 37.8933 120.411 37.4595 120.411ZM75.4284 50.0564C75.0694 50.0564 74.7103 50.1505 74.3826 50.3395L37.5529 71.5989C36.1287 72.421 35.2467 73.953 35.251 75.5974L35.3698 117.889C35.3724 118.643 35.7636 119.317 36.4163 119.693C37.0707 120.07 37.8516 120.07 38.5043 119.692L75.335 98.4322C76.7592 97.6102 77.6411 96.0781 77.6359 94.4341L77.5179 52.1429C77.5153 51.3888 77.1241 50.7141 76.4705 50.3376C76.1439 50.1501 75.7866 50.0564 75.4284 50.0564Z" fill="#383C43"/>
<path d="M50.465 92.7078C50.3624 92.767 50.2591 92.874 50.1808 93.0134L47.3862 98.1298C47.1622 98.5384 47.3348 98.8946 47.6666 98.703L48.8655 98.0108L48.8955 108.613C48.896 108.793 49.0249 108.867 49.1819 108.776L51.8293 107.248C51.9899 107.155 52.1143 106.936 52.1138 106.755L52.0837 96.1528L53.2825 95.4607C53.6144 95.2691 53.7843 94.7151 53.5623 94.564L50.7444 92.6881C50.6693 92.637 50.5675 92.6486 50.465 92.7078Z" fill="#383C43"/>
<path d="M42.2471 97.4508C42.1449 97.5097 42.0434 97.6156 41.9687 97.7531L39.1706 102.872C38.9465 103.28 39.1227 103.634 39.4545 103.443L40.6534 102.751L40.6834 113.353C40.6839 113.533 40.8092 113.609 40.9698 113.516L43.6172 111.988C43.7742 111.897 43.9022 111.675 43.9018 111.495L43.8717 100.893L45.0706 100.2C45.4025 100.009 45.5724 99.4548 45.3433 99.3079L42.5289 97.4297C42.4519 97.3797 42.3492 97.3918 42.2471 97.4508Z" fill="#383C43"/>
<path d="M51.4805 63.3091L51.4811 79.0324L56.4445 70.9278L61.408 73.3381L61.4074 57.5796L51.4805 63.3091Z" fill="#FFBE2E"/>
<path d="M51.4838 79.2497C51.4643 79.2497 51.4448 79.2471 51.4252 79.2416C51.331 79.2153 51.2665 79.1295 51.2665 79.0323L51.2656 63.3093C51.2656 63.2316 51.3072 63.1599 51.3742 63.1212L61.3014 57.3916C61.3692 57.3525 61.4508 57.3525 61.5188 57.3916C61.5858 57.4302 61.6274 57.5019 61.6274 57.5797V73.3383C61.6274 73.413 61.5892 73.4827 61.5255 73.5225C61.4617 73.5629 61.3837 73.5667 61.3149 73.534L56.5296 71.2092L51.6687 79.1456C51.6289 79.2115 51.5577 79.2497 51.4838 79.2497ZM51.7002 63.4349L51.7011 78.2616L56.2624 70.8145C56.321 70.7185 56.4424 70.6855 56.5425 70.7322L61.1929 72.9912V57.9562L51.7002 63.4349Z" fill="#383C43"/>
<path d="M82.5616 67.232C87.0672 64.6307 90.7344 66.7205 90.7492 71.8978C90.7639 77.0803 87.1205 83.3909 82.6149 85.9923L69.3787 93.6797L69.3887 97.2428L61.4102 96.0625L69.356 85.6883L69.366 89.2566L82.6022 81.5691C84.9821 80.1951 86.9074 76.8604 86.8996 74.1203C86.8919 71.3857 84.954 70.2812 82.5741 71.6553L77.861 74.3239L77.8485 69.9006L82.5616 67.232Z" fill="#FFBE2E"/>
<path d="M69.3876 97.4601C69.3774 97.4601 69.3663 97.4592 69.3563 97.4575L61.377 96.2774C61.3007 96.2663 61.2362 96.2155 61.2073 96.1441C61.1784 96.0728 61.1895 95.9918 61.2362 95.9306L69.1824 85.5565C69.2384 85.4826 69.3343 85.4522 69.4242 85.4826C69.5125 85.5123 69.5719 85.5947 69.5719 85.688L69.5812 88.8798L82.4911 81.3809C84.8099 80.0429 86.6891 76.7861 86.6806 74.1209C86.6773 72.8834 86.2664 71.9668 85.5237 71.5394C84.7743 71.1087 83.765 71.2182 82.6812 71.8433L77.9663 74.5131C77.8992 74.5509 77.8169 74.5503 77.7498 74.5118C77.6837 74.4727 77.642 74.4015 77.642 74.3242L77.6301 69.9013C77.6301 69.8228 77.6718 69.7507 77.7404 69.7116L82.4528 67.043C84.707 65.7414 86.8417 65.5356 88.4603 66.4675C90.068 67.3927 90.9574 69.3211 90.965 71.8971C90.9794 77.1404 87.2813 83.5477 82.7217 86.1802L69.5946 93.8043L69.6048 97.2422C69.6048 97.3054 69.5777 97.3657 69.5301 97.407C69.4903 97.4414 69.4393 97.4601 69.3876 97.4601ZM61.8055 95.9017L69.1695 96.9907L69.1602 93.6801C69.1602 93.6028 69.201 93.5307 69.268 93.4916L82.5037 85.8043C86.9446 83.2411 90.545 77.003 90.5305 71.8985C90.5237 69.4842 89.7114 67.6891 88.244 66.8446C86.7646 65.9941 84.7844 66.1982 82.6684 67.42C82.6675 67.4204 82.6675 67.4209 82.6668 67.4213L78.0647 70.0275L78.0757 73.9518L82.4655 71.4661C83.6886 70.7608 84.8523 70.6513 85.7409 71.1631C86.6228 71.6711 87.1108 72.7211 87.1151 74.1198C87.1236 76.9237 85.1477 80.3497 82.7091 81.757L69.4742 89.4447C69.4063 89.4838 69.3231 89.4833 69.2569 89.4451C69.1891 89.4066 69.1474 89.3349 69.1474 89.2572L69.1389 86.3273L61.8055 95.9017Z" fill="#383C43"/>
<path d="M39.9808 127.202C41.1602 126.521 42.1173 127.061 42.1212 128.416L42.1564 140.849C42.1602 142.198 41.2093 143.846 40.0299 144.527L29.2145 150.771C28.0353 151.452 27.0782 150.906 27.0743 149.557L27.0391 137.123C27.0352 135.768 27.9861 134.127 29.1654 133.446L39.9808 127.202Z" fill="#FFBE2E"/>
<path d="M28.2579 151.282C28.0168 151.282 27.7927 151.225 27.5933 151.111C27.1222 150.839 26.8616 150.288 26.8591 149.557L26.8242 137.124C26.82 135.682 27.8011 133.984 29.059 133.258L39.874 127.014C40.5166 126.641 41.1328 126.585 41.609 126.86C42.0792 127.131 42.339 127.683 42.3406 128.415L42.3762 140.848C42.3796 142.267 41.3772 144.001 40.1405 144.714L29.3255 150.959C28.953 151.174 28.5898 151.282 28.2579 151.282ZM40.0914 127.39L29.2764 133.634C28.1602 134.278 27.2547 135.843 27.2588 137.122L27.2936 149.556C27.2953 150.125 27.4786 150.544 27.8097 150.734C28.1424 150.926 28.6033 150.873 29.1083 150.583L39.9233 144.338C41.0395 143.694 41.9451 142.129 41.9417 140.849L41.9061 128.416C41.9044 127.845 41.7219 127.427 41.3925 127.237C41.0573 127.045 40.5964 127.098 40.0914 127.39Z" fill="#383C43"/>
<path d="M33.6178 143.869C33.4965 143.869 33.3734 143.844 33.2563 143.79L30.4681 142.511C30.0318 142.311 29.84 141.795 30.0403 141.358C30.2407 140.922 30.7575 140.731 31.193 140.931L33.2692 141.884L37.6191 134.527C37.8635 134.115 38.3974 133.977 38.809 134.221C39.2223 134.466 39.359 134.999 39.1146 135.412L34.3666 143.442C34.206 143.715 33.9175 143.869 33.6178 143.869Z" fill="#212121"/>
<path d="M46.1312 125.933C46.0566 125.933 45.9828 125.894 45.9428 125.824C45.8833 125.72 45.9191 125.587 46.0234 125.527L92.4367 98.8781C92.5402 98.8192 92.6735 98.8544 92.7328 98.9584C92.7923 99.0623 92.7566 99.1952 92.6522 99.255L46.239 125.904C46.205 125.924 46.1678 125.933 46.1312 125.933Z" fill="#383C43"/>
<path d="M46.1312 133.087C46.0566 133.087 45.9828 133.048 45.9428 132.978C45.8833 132.874 45.9191 132.741 46.0234 132.681L92.4367 106.032C92.5402 105.973 92.6735 106.008 92.7328 106.112C92.7923 106.216 92.7566 106.349 92.6522 106.409L46.239 133.058C46.205 133.077 46.1678 133.087 46.1312 133.087Z" fill="#383C43"/>
<path d="M46.1312 140.241C46.0557 140.241 45.9828 140.201 45.9428 140.131C45.8833 140.027 45.9191 139.894 46.0234 139.835L78.4082 121.285C78.5118 121.225 78.645 121.261 78.7044 121.366C78.7638 121.47 78.7281 121.603 78.6237 121.662L46.239 140.212C46.205 140.231 46.1678 140.241 46.1312 140.241Z" fill="#383C43"/>
<path d="M39.9808 151.373C41.1602 150.692 42.1173 151.232 42.1212 152.588L42.1564 165.021C42.1602 166.37 41.2093 168.017 40.0299 168.698L29.2145 174.943C28.0353 175.624 27.0782 175.078 27.0743 173.728L27.0391 161.295C27.0352 159.94 27.9861 158.299 29.1654 157.618L39.9808 151.373Z" fill="#FFBE2E"/>
<path d="M28.2579 175.454C28.0168 175.454 27.7927 175.397 27.5933 175.283C27.1222 175.011 26.8616 174.46 26.8591 173.729L26.8242 161.296C26.82 159.854 27.8011 158.156 29.059 157.43L39.874 151.186C40.5166 150.813 41.1328 150.757 41.609 151.032C42.0792 151.303 42.339 151.855 42.3406 152.587L42.3762 165.02C42.3796 166.439 41.3772 168.173 40.1405 168.886L29.3255 175.131C28.953 175.346 28.5898 175.454 28.2579 175.454ZM40.0914 151.561L29.2764 157.805C28.1602 158.451 27.2547 160.016 27.2588 161.294L27.2936 173.728C27.2953 174.297 27.4786 174.715 27.8097 174.906C28.1424 175.098 28.6033 175.044 29.1083 174.755L39.9233 168.51C41.0395 167.866 41.9451 166.301 41.9417 165.021L41.9061 152.588C41.9044 152.017 41.7219 151.599 41.3925 151.409C41.0573 151.217 40.5964 151.271 40.0914 151.561Z" fill="#383C43"/>
<path d="M33.6178 168.043C33.4965 168.043 33.3734 168.017 33.2563 167.963L30.4681 166.683C30.0318 166.483 29.84 165.967 30.0403 165.531C30.2407 165.095 30.7575 164.903 31.193 165.104L33.2692 166.057L37.6191 158.7C37.8635 158.287 38.3974 158.151 38.809 158.395C39.2223 158.639 39.359 159.172 39.1146 159.585L34.3666 167.616C34.206 167.888 33.9175 168.043 33.6178 168.043Z" fill="#212121"/>
<path d="M46.1312 150.105C46.0566 150.105 45.9828 150.066 45.9428 149.996C45.8833 149.892 45.9191 149.759 46.0234 149.699L92.4367 123.051C92.5402 122.992 92.6735 123.026 92.7328 123.131C92.7923 123.235 92.7566 123.368 92.6522 123.428L46.239 150.076C46.205 150.096 46.1678 150.105 46.1312 150.105Z" fill="#383C43"/>
<path d="M46.1312 157.259C46.0566 157.259 45.9828 157.22 45.9428 157.149C45.8833 157.045 45.9191 156.913 46.0234 156.853L92.4367 130.204C92.5402 130.145 92.6735 130.18 92.7328 130.284C92.7923 130.388 92.7566 130.521 92.6522 130.581L46.239 157.23C46.205 157.249 46.1678 157.259 46.1312 157.259Z" fill="#383C43"/>
<path d="M46.1312 164.413C46.0557 164.413 45.9828 164.374 45.9428 164.303C45.8833 164.199 45.9191 164.066 46.0234 164.007L78.4082 145.457C78.5118 145.397 78.645 145.433 78.7044 145.538C78.7638 145.642 78.7281 145.775 78.6237 145.834L46.239 164.384C46.205 164.403 46.1678 164.413 46.1312 164.413Z" fill="#383C43"/>
<path d="M80.9785 172.001C80.9863 173.387 80.0085 175.073 78.8073 175.766L44.389 195.611C43.7808 195.957 43.2341 195.988 42.8337 195.757C42.7953 195.734 42.7567 195.703 42.7105 195.68C42.6644 195.642 42.6104 195.595 42.572 195.542C42.5334 195.503 42.5027 195.465 42.4795 195.418C42.4411 195.364 42.4025 195.303 42.3718 195.234C42.341 195.164 42.3101 195.087 42.2871 195.01C42.2562 194.91 42.2409 194.81 42.2255 194.695C42.2178 194.641 42.2102 194.595 42.2102 194.533C42.2024 194.479 42.2024 194.425 42.2024 194.364L42.1562 180.952C42.1562 179.566 43.1263 177.88 44.3351 177.179L78.7458 157.342C79.1 157.134 79.4388 157.042 79.7391 157.042C79.8083 157.042 79.87 157.049 79.9315 157.057C79.9622 157.065 79.993 157.065 80.0239 157.08C80.0316 157.08 80.0316 157.08 80.0316 157.08C80.1009 157.096 80.1624 157.119 80.2163 157.149C80.6552 157.35 80.9322 157.858 80.94 158.589L80.9785 172.001Z" fill="#FFBE2E"/>
<path d="M43.4148 196.123C43.1661 196.123 42.9335 196.064 42.7272 195.945C42.723 195.943 42.6746 195.911 42.6703 195.909C42.6525 195.897 42.6347 195.884 42.6144 195.873C42.5167 195.8 42.4498 195.741 42.3971 195.667C42.3623 195.637 42.3199 195.579 42.2876 195.514C42.2528 195.473 42.2087 195.397 42.1757 195.322C42.1408 195.245 42.1069 195.158 42.0815 195.072C42.0476 194.962 42.0289 194.851 42.0118 194.723C42.0016 194.653 41.9948 194.6 41.9948 194.533C41.988 194.499 41.9872 194.436 41.9872 194.363L41.9414 180.953C41.9414 179.474 42.9464 177.734 44.2288 176.991L78.6397 157.153C79.0845 156.893 79.5691 156.796 79.9519 156.84C80.0055 156.849 80.0437 156.856 80.0793 156.867C80.0802 156.867 80.0809 156.867 80.0809 156.868C80.1734 156.888 80.2557 156.92 80.3271 156.961C80.8414 157.194 81.1512 157.79 81.1597 158.587L81.1979 171.999C81.2055 173.45 80.1827 175.224 78.9181 175.953L44.4996 195.799C44.1209 196.015 43.7525 196.123 43.4148 196.123ZM42.8511 195.51C42.8561 195.51 42.885 195.53 42.913 195.548C43.2907 195.769 43.766 195.716 44.2829 195.422L78.7005 175.577C79.8446 174.917 80.7707 173.313 80.7629 172.002C80.7629 172.002 80.7629 172.002 80.7629 172.001L80.7247 158.589C80.7179 157.971 80.5007 157.517 80.128 157.347C80.0763 157.318 80.0339 157.303 79.9854 157.292C79.9514 157.292 79.9583 157.289 79.9285 157.274C79.8478 157.265 79.7969 157.258 79.7409 157.258C79.4642 157.258 79.1595 157.352 78.8582 157.529L44.4459 177.368C43.3043 178.029 42.3759 179.637 42.3759 180.952L42.4216 194.362C42.4216 194.414 42.4207 194.458 42.4267 194.502C42.4293 194.577 42.4343 194.611 42.4402 194.648C42.4563 194.769 42.4699 194.858 42.4971 194.947C42.5175 195.016 42.5447 195.083 42.5718 195.144C42.5938 195.193 42.6218 195.241 42.6576 195.29C42.6872 195.343 42.7026 195.362 42.7272 195.387C42.7773 195.452 42.8265 195.492 42.8503 195.512C42.8503 195.511 42.8503 195.51 42.8511 195.51Z" fill="#383C43"/>
<path d="M50.7298 185.002L51.6996 186.175L50.7754 186.708L50.0392 185.809C49.823 185.552 49.642 185.362 49.5077 185.233C49.3677 185.113 49.2393 185.046 49.1286 185.03C49.0238 185.004 48.9074 185.017 48.7969 185.048C48.7097 185.078 48.5759 185.148 48.3841 185.259L47.5354 185.749L47.5434 188.574L46.811 188.997L46.793 182.625L49.2517 181.206C49.7457 180.921 50.1237 180.763 50.3797 180.728C50.6358 180.694 50.8457 180.774 50.9976 180.98C51.1496 181.18 51.2319 181.454 51.2328 181.801C51.2341 182.256 51.1073 182.71 50.8524 183.172C50.5975 183.626 50.2028 184.055 49.674 184.441C49.8662 184.437 50.0177 184.456 50.1167 184.506C50.3327 184.609 50.537 184.772 50.7298 185.002ZM49.1086 184.105C49.4458 183.91 49.7072 183.719 49.8988 183.529C50.0847 183.341 50.2296 183.13 50.3279 182.899C50.4263 182.669 50.4779 182.445 50.4774 182.238C50.4765 181.937 50.377 181.747 50.1847 181.664C49.998 181.578 49.6957 181.659 49.2829 181.897L47.5276 182.911L47.5335 185.015L49.1086 184.105Z" fill="#212121"/>
<path d="M56.3974 177.079L56.3994 177.833L53.127 179.723L53.1326 181.673L56.2015 179.901L56.2036 180.649L53.1347 182.421L53.1408 184.592L56.5412 182.629L56.5432 183.377L52.4048 185.766L52.3867 179.394L56.3974 177.079Z" fill="#212121"/>
<path d="M61.5251 174.119L61.5273 174.873L59.6905 175.934L59.7064 181.551L58.974 181.974L58.9581 176.357L57.1272 177.414L57.125 176.659L61.5251 174.119Z" fill="#212121"/>
<path d="M66.6504 171.159L66.6608 174.839C66.6627 175.48 66.6002 176.031 66.4734 176.479C66.3524 176.924 66.1266 177.362 65.796 177.793C65.4652 178.218 65.0354 178.587 64.5007 178.896C63.9835 179.194 63.553 179.336 63.2269 179.324C62.895 179.308 62.6559 179.145 62.5153 178.838C62.3747 178.524 62.2975 178.04 62.2956 177.359L62.2852 173.679L63.0234 173.253L63.0338 176.933C63.0354 177.487 63.0772 177.871 63.171 178.078C63.2589 178.288 63.4164 178.405 63.6318 178.421C63.8531 178.434 64.1207 178.353 64.4346 178.171C64.9752 177.859 65.3584 177.498 65.5843 177.086C65.8161 176.671 65.9308 176.063 65.9284 175.262L65.918 171.582L66.6504 171.159Z" fill="#212121"/>
<path d="M71.8195 172.824L72.7892 173.997L71.8709 174.527L71.1289 173.631C70.9127 173.374 70.7375 173.181 70.5975 173.055C70.4574 172.935 70.335 172.865 70.2243 172.849C70.1136 172.825 70.0029 172.836 69.8867 172.869C69.8053 172.896 69.6716 172.967 69.4797 173.078L68.6311 173.568L68.6391 176.393L67.9009 176.819L67.8828 170.447L70.3415 169.028C70.8414 168.739 71.2135 168.584 71.4696 168.55C71.7316 168.513 71.9355 168.596 72.0933 168.799C72.2452 168.999 72.3217 169.276 72.3227 169.623C72.324 170.077 72.1972 170.532 71.9481 170.99C71.6933 171.445 71.2987 171.874 70.7641 172.262C70.9621 172.255 71.1076 172.278 71.2126 172.325C71.4225 172.431 71.6267 172.594 71.8195 172.824ZM70.2043 171.924C70.5413 171.729 70.8028 171.538 70.9886 171.35C71.1801 171.159 71.3251 170.949 71.4234 170.718C71.5217 170.487 71.5676 170.267 71.5671 170.06C71.5662 169.759 71.4726 169.566 71.2802 169.483C71.0879 169.4 70.7853 169.481 70.3784 169.716L68.6231 170.729L68.629 172.833L70.2043 171.924Z" fill="#212121"/>
<path d="M77.8359 164.702L77.854 171.074L77.0983 171.51L74.172 168.182L74.1862 173.191L73.4829 173.597L73.4648 167.226L74.2147 166.793L77.1467 170.111L77.1325 165.108L77.8359 164.702Z" fill="#212121"/>
<path d="M121.457 38.5221L121.642 96.7014C121.652 98.4426 122.265 99.6682 123.257 100.242L128.257 103.161C128.14 103.083 128.023 103.005 127.916 102.908L127.907 102.898C127.829 102.84 127.761 102.772 127.693 102.694L127.683 102.684C127.595 102.587 127.518 102.489 127.44 102.373L127.43 102.363C127.343 102.246 127.265 102.12 127.206 101.984C127.148 101.886 127.099 101.779 127.06 101.663C127.012 101.556 126.973 101.439 126.934 101.313C126.895 101.196 126.866 101.06 126.837 100.933C126.817 100.855 126.808 100.777 126.798 100.7C126.798 100.69 126.788 100.67 126.788 100.661C126.778 100.593 126.769 100.515 126.759 100.447C126.749 100.349 126.74 100.252 126.73 100.155C126.72 99.9894 126.71 99.8241 126.71 99.6587L126.526 41.4796C126.516 37.9776 128.967 33.7168 132.022 31.9561L180.622 3.93282C181.682 3.31997 182.674 3.0963 183.511 3.20323C183.627 3.21304 183.744 3.24219 183.851 3.27134C183.861 3.27134 183.871 3.27134 183.871 3.27134C183.978 3.30062 184.085 3.33945 184.192 3.37841C184.211 3.38808 184.221 3.38808 184.24 3.39789C184.338 3.43684 184.425 3.48534 184.513 3.53397L179.483 0.596163C178.481 0.0126 177.09 0.0903809 175.553 0.975658L126.954 28.9988C123.908 30.7593 121.447 35.0201 121.457 38.5221Z" fill="#212121"/>
<path d="M128.254 103.378C128.217 103.378 128.18 103.368 128.146 103.348L123.145 100.43C122.045 99.793 121.433 98.4694 121.423 96.7026L121.238 38.5228V38.5225C121.229 34.9597 123.743 30.6026 126.844 28.8103L175.443 0.786924C177 -0.108544 178.472 -0.244375 179.591 0.407941L184.62 3.34601C184.723 3.40586 184.758 3.53744 184.7 3.64089C184.64 3.74524 184.509 3.78046 184.405 3.7237C184.321 3.67701 184.244 3.63366 184.157 3.59896C184.152 3.59677 184.098 3.57471 184.093 3.57226C184.012 3.54466 183.923 3.51241 183.833 3.48648C183.818 3.48519 183.802 3.48313 183.792 3.48055C183.698 3.45462 183.594 3.42831 183.491 3.41941C182.653 3.31415 181.705 3.55691 180.728 4.12048L132.129 32.1443C129.149 33.8618 126.731 38.0492 126.741 41.4786L126.926 99.6575C126.926 99.8197 126.935 99.98 126.945 100.141L127.001 100.628C127.008 100.65 127.013 100.676 127.013 100.699C127.022 100.752 127.029 100.816 127.045 100.88C127.079 101.028 127.105 101.143 127.139 101.244C127.175 101.366 127.211 101.473 127.257 101.572C127.298 101.693 127.34 101.786 127.391 101.872C127.451 102.007 127.517 102.119 127.602 102.232C127.691 102.36 127.763 102.449 127.843 102.539C127.921 102.627 127.978 102.68 128.036 102.724C128.159 102.836 128.267 102.907 128.374 102.978C128.472 103.044 128.5 103.175 128.438 103.275C128.397 103.341 128.326 103.378 128.254 103.378ZM121.673 38.5212L121.858 96.7005C121.866 98.3063 122.401 99.4972 123.364 100.054L127.08 102.223C127.051 102.172 127.027 102.12 127.005 102.069C126.95 101.981 126.895 101.858 126.853 101.73C126.809 101.638 126.766 101.512 126.725 101.375C126.689 101.268 126.658 101.138 126.63 101.014C126.604 100.905 126.593 100.825 126.583 100.744C126.58 100.73 126.569 100.7 126.569 100.661L126.512 100.176C126.501 99.9982 126.491 99.8288 126.491 99.6587L126.306 41.4801C126.297 37.9119 128.811 33.5547 131.911 31.7676L180.511 3.74421C181.406 3.22734 182.291 2.96032 183.098 2.96032L179.372 0.78318C178.394 0.214064 177.075 0.348219 175.66 1.16384L127.061 29.1869C124.081 30.9093 121.664 35.0972 121.673 38.5212Z" fill="#383C43"/>
<path d="M126.527 41.479L126.712 99.6581C126.712 99.8234 126.722 99.9888 126.732 100.154C126.741 100.251 126.751 100.349 126.761 100.446C126.771 100.514 126.78 100.592 126.79 100.66C126.79 100.67 126.8 100.689 126.8 100.699C126.809 100.777 126.819 100.855 126.839 100.932C126.868 101.059 126.897 101.195 126.936 101.312C126.975 101.438 127.014 101.555 127.062 101.662C127.101 101.779 127.15 101.886 127.208 101.983C127.276 102.119 127.354 102.246 127.432 102.362L127.442 102.372C127.519 102.489 127.597 102.586 127.685 102.683L127.694 102.693C127.763 102.771 127.831 102.839 127.909 102.897L127.918 102.907C128.025 103.004 128.142 103.082 128.259 103.16L128.268 103.17C129.27 103.783 130.681 103.715 132.237 102.81L180.837 74.7964C183.892 73.0356 186.353 68.7652 186.343 65.263L186.158 7.09365C186.148 5.33303 185.526 4.10734 184.514 3.53319C184.427 3.48469 184.339 3.43606 184.242 3.39711C184.222 3.3873 184.213 3.3873 184.193 3.37763C184.086 3.33867 183.979 3.29972 183.872 3.27056C183.872 3.27056 183.862 3.27056 183.853 3.27056C183.746 3.24141 183.629 3.21226 183.512 3.20246C182.676 3.09552 181.683 3.31919 180.623 3.93204L132.023 31.9553C128.969 33.7162 126.518 37.977 126.527 41.479Z" fill="#FFEECC"/>
<path d="M129.756 103.784C129.167 103.784 128.623 103.642 128.154 103.355C128.141 103.347 128.118 103.328 128.107 103.317C128.011 103.257 127.886 103.172 127.771 103.068C127.695 103.01 127.617 102.935 127.53 102.836C127.427 102.723 127.343 102.618 127.26 102.492C127.168 102.359 127.085 102.225 127.012 102.081C126.952 101.98 126.897 101.858 126.855 101.73C126.811 101.638 126.769 101.512 126.727 101.375C126.691 101.268 126.661 101.137 126.633 101.014C126.607 100.905 126.596 100.825 126.585 100.744C126.582 100.73 126.572 100.699 126.572 100.66L126.514 100.175C126.503 99.998 126.494 99.8286 126.494 99.6585L126.309 41.4799V41.4795C126.299 37.9117 128.813 33.5546 131.914 31.7675L180.514 3.74412C181.573 3.13179 182.619 2.86825 183.539 2.98744C183.651 2.99673 183.774 3.02472 183.887 3.05529C183.903 3.05658 183.919 3.05865 183.929 3.06123C184.037 3.0909 184.145 3.12959 184.252 3.16855C184.302 3.18674 184.317 3.19228 184.337 3.20286C184.425 3.23679 184.518 3.28812 184.611 3.33946C185.742 3.9812 186.365 5.31241 186.374 7.09277L186.559 65.2624C186.569 68.8336 184.05 73.195 180.945 74.9851L132.345 102.999C131.448 103.52 130.559 103.784 129.756 103.784ZM126.743 41.478L126.928 99.6573C126.928 99.8195 126.938 99.9798 126.948 100.141L127.004 100.628C127.011 100.65 127.016 100.676 127.016 100.699C127.024 100.752 127.032 100.816 127.048 100.88C127.082 101.027 127.107 101.143 127.141 101.243C127.178 101.366 127.213 101.473 127.259 101.571C127.3 101.692 127.343 101.786 127.394 101.872C127.466 102.013 127.538 102.132 127.612 102.241C127.693 102.359 127.765 102.449 127.846 102.538C127.924 102.626 127.98 102.68 128.039 102.724C128.162 102.836 128.27 102.907 128.377 102.978C128.387 102.985 128.409 103.005 128.418 103.013C129.361 103.585 130.694 103.457 132.127 102.622L180.728 74.6081C183.713 72.8876 186.135 68.6956 186.125 65.2636L185.94 7.09483C185.932 5.47661 185.387 4.27905 184.406 3.72219C184.324 3.67678 184.247 3.63344 184.16 3.59874C184.154 3.59655 184.101 3.57449 184.096 3.57204C184.015 3.54443 183.926 3.51218 183.836 3.48626C183.821 3.48497 183.805 3.4829 183.794 3.48032C183.7 3.4544 183.597 3.42808 183.494 3.41918C182.655 3.31392 181.708 3.55669 180.731 4.12026L132.132 32.1441C129.151 33.8616 126.735 38.049 126.743 41.478Z" fill="#383C43"/>
<path d="M134.375 39.3567C135.406 38.7612 136.24 39.2516 136.243 40.4366C136.246 41.6374 135.419 43.0711 134.387 43.6666C133.329 44.2775 132.496 43.803 132.492 42.6022C132.489 41.4171 133.317 39.9676 134.375 39.3567Z" fill="#383C43"/>
<path d="M133.52 44.1508C133.305 44.1508 133.105 44.1004 132.928 43.9981C132.508 43.7566 132.275 43.2609 132.273 42.6023C132.271 41.3228 133.146 39.8145 134.265 39.1686C134.831 38.8419 135.376 38.7956 135.798 39.0383C136.223 39.2828 136.457 39.7789 136.459 40.4358C136.463 41.7141 135.601 43.216 134.495 43.8543C134.154 44.0516 133.822 44.1508 133.52 44.1508ZM135.203 39.3196C134.987 39.3196 134.742 39.3952 134.483 39.5446C133.502 40.1108 132.706 41.482 132.708 42.6015C132.71 43.098 132.864 43.4604 133.144 43.6217C133.43 43.7864 133.833 43.7346 134.277 43.4782C135.244 42.9197 136.028 41.5554 136.024 40.4371C136.023 39.9414 135.866 39.5785 135.582 39.4152C135.471 39.3511 135.343 39.3196 135.203 39.3196Z" fill="#383C43"/>
<path d="M141.243 39.6938C141.028 39.6938 140.828 39.6428 140.65 39.5411C140.23 39.2992 139.998 38.8035 139.996 38.1452C139.993 36.8661 140.867 35.3578 141.987 34.7116C142.553 34.3848 143.098 34.3385 143.52 34.5813C143.945 34.8253 144.18 35.3218 144.182 35.9788C144.185 37.2579 143.323 38.7594 142.217 39.3972C141.876 39.5941 141.545 39.6938 141.243 39.6938ZM142.925 34.8626C142.709 34.8626 142.463 34.9382 142.205 35.0876C141.223 35.6541 140.427 37.0249 140.431 38.1445C140.432 38.641 140.587 39.003 140.867 39.1643C141.153 39.3285 141.556 39.278 142 39.0212C142.967 38.4632 143.75 37.0987 143.747 35.9797C143.745 35.4845 143.588 35.1216 143.304 34.9582C143.193 34.894 143.065 34.8626 142.925 34.8626Z" fill="#383C43"/>
<path d="M148.961 35.237C148.746 35.237 148.546 35.186 148.369 35.0843C147.949 34.8428 147.717 34.3471 147.715 33.6884C147.711 32.4097 148.586 30.901 149.706 30.2543C150.273 29.9266 150.817 29.8812 151.239 30.1244C151.663 30.3684 151.898 30.8649 151.9 31.5219C151.903 32.8006 151.04 34.302 149.935 34.9403C149.594 35.1373 149.263 35.237 148.961 35.237ZM149.923 30.6304C148.942 31.1973 148.146 32.5685 148.149 33.6877C148.151 34.1841 148.306 34.5466 148.586 34.7079C148.872 34.8717 149.273 34.8203 149.718 34.5644C150.685 34.0059 151.469 32.6419 151.466 31.5229C151.464 31.0277 151.307 30.6648 151.022 30.501C150.739 30.3393 150.349 30.3848 149.923 30.6304Z" fill="#383C43"/>
<path d="M147.632 46.1548L134.852 62.9416L147.686 64.9461L147.671 59.8258L173.591 44.8609L173.567 36.3101L147.647 51.275L147.632 46.1548Z" fill="#FFBE2E"/>
<path d="M163.898 60.0288L163.912 65.1492L137.992 80.1141L138.016 88.6648L163.936 73.6998L163.951 78.8138L176.732 62.0269L163.898 60.0288Z" fill="#383C43"/>
<path d="M191.422 222.934C190.182 222.934 188.942 222.661 187.996 222.115L173.413 213.693C173.31 213.633 173.274 213.5 173.333 213.396C173.395 213.291 173.528 213.257 173.63 213.317L188.213 221.739C189.985 222.762 192.86 222.762 194.621 221.739L217.936 208.189C218.04 208.128 218.173 208.163 218.233 208.268C218.294 208.371 218.259 208.505 218.155 208.565L194.84 222.115C193.898 222.661 192.661 222.934 191.422 222.934Z" fill="#DBDEE4"/>
<path d="M215.506 206.622C213.902 207.548 213.893 209.05 215.486 209.976C217.079 210.902 219.673 210.902 221.277 209.976C222.881 209.05 222.888 207.548 221.295 206.622C219.702 205.697 217.109 205.696 215.506 206.622Z" fill="#FFEECC"/>
<path d="M218.376 210.885C217.288 210.885 216.202 210.644 215.376 210.165C214.538 209.678 214.077 209.018 214.078 208.305C214.08 207.589 214.548 206.924 215.396 206.434C217.056 205.475 219.75 205.475 221.404 206.435C222.242 206.922 222.702 207.582 222.702 208.294C222.7 209.011 222.232 209.675 221.384 210.164C220.553 210.644 219.464 210.885 218.376 210.885ZM218.403 206.143C217.393 206.143 216.384 206.366 215.614 206.81C214.905 207.22 214.513 207.751 214.513 208.306C214.513 208.857 214.896 209.383 215.595 209.789C217.124 210.678 219.626 210.679 221.167 209.788C221.876 209.379 222.266 208.849 222.267 208.294C222.268 207.743 221.883 207.217 221.185 206.811C220.419 206.366 219.412 206.143 218.403 206.143Z" fill="#DBDEE4"/>
<path d="M218.381 209.358C219.006 209.358 219.611 209.215 220.041 208.967C220.386 208.768 220.584 208.523 220.585 208.295C220.585 208.07 220.391 207.829 220.052 207.632C219.625 207.384 219.023 207.242 218.398 207.242C217.774 207.242 217.169 207.384 216.739 207.632C216.394 207.831 216.196 208.077 216.195 208.304C216.195 208.529 216.389 208.771 216.728 208.968C217.154 209.216 217.756 209.358 218.381 209.358Z" fill="#FFBE2E"/>
<path d="M204.261 217.394C204.933 217.394 205.582 217.241 206.044 216.974C206.415 216.76 206.628 216.497 206.628 216.253C206.628 216.012 206.42 215.752 206.056 215.54C205.598 215.274 204.951 215.122 204.28 215.122C203.609 215.122 202.96 215.274 202.498 215.541C202.127 215.755 201.914 216.018 201.914 216.263C201.914 216.504 202.122 216.764 202.486 216.975C202.943 217.241 203.59 217.394 204.261 217.394Z" fill="#383C43"/>
<path d="M82.537 213.188C81.3479 213.188 80.1571 212.926 79.2489 212.402L56.7531 199.414C56.6495 199.354 56.6139 199.221 56.6732 199.117C56.7335 199.013 56.8676 198.977 56.9703 199.038L79.4661 212.026C81.1628 213.005 83.9146 213.005 85.5993 212.026L107.949 199.038C108.053 198.977 108.186 199.012 108.246 199.117C108.306 199.22 108.272 199.353 108.168 199.414L85.8184 212.402C84.9153 212.926 83.727 213.188 82.537 213.188Z" fill="#DBDEE4"/>
<path d="M107.067 196.585C105.496 197.493 105.487 198.965 107.048 199.872C108.609 200.779 111.15 200.779 112.721 199.871C114.293 198.964 114.3 197.493 112.739 196.586C111.178 195.679 108.639 195.678 107.067 196.585Z" fill="#FFEECC"/>
<path d="M109.878 200.765C108.811 200.765 107.746 200.53 106.936 200.06C106.115 199.582 105.663 198.934 105.664 198.235C105.665 197.531 106.124 196.879 106.957 196.398C108.585 195.457 111.227 195.457 112.847 196.398C113.669 196.876 114.121 197.525 114.12 198.223C114.119 198.927 113.661 199.579 112.828 200.06C112.014 200.53 110.945 200.765 109.878 200.765ZM109.904 196.121C108.916 196.121 107.929 196.339 107.174 196.774C106.481 197.174 106.099 197.693 106.099 198.236C106.098 198.773 106.473 199.288 107.155 199.684C108.653 200.556 111.101 200.554 112.611 199.684C113.304 199.284 113.685 198.765 113.686 198.223C113.686 197.686 113.311 197.171 112.628 196.774C111.879 196.338 110.892 196.121 109.904 196.121Z" fill="#DBDEE4"/>
<path d="M109.883 199.265C110.496 199.265 111.089 199.126 111.51 198.882C111.848 198.687 112.042 198.447 112.043 198.224C112.043 198.004 111.853 197.767 111.52 197.574C111.103 197.332 110.512 197.192 109.901 197.192C109.289 197.192 108.696 197.332 108.275 197.575C107.937 197.77 107.743 198.01 107.742 198.233C107.742 198.454 107.932 198.691 108.264 198.883C108.681 199.126 109.272 199.265 109.883 199.265Z" fill="#FFBE2E"/>
<path d="M96.0495 207.139C96.7074 207.139 97.3441 206.989 97.7965 206.728C98.1597 206.519 98.3682 206.261 98.3686 206.022C98.369 205.785 98.1645 205.53 97.8078 205.323C97.3593 205.062 96.7252 204.913 96.0681 204.913C95.4108 204.913 94.7746 205.063 94.3226 205.324C93.9591 205.534 93.7504 205.791 93.75 206.031C93.7497 206.268 93.9539 206.522 94.3103 206.729C94.7585 206.99 95.3923 207.139 96.0495 207.139Z" fill="#383C43"/>
</svg>
