<svg width="222" height="222" viewBox="0 0 222 222" fill="none" xmlns="http://www.w3.org/2000/svg">
<path d="M195.912 109.353C195.838 109.353 195.765 109.315 195.725 109.245C195.665 109.142 195.7 109.01 195.803 108.949L220.294 94.7165C220.517 94.5866 220.651 94.3549 220.65 94.0964C220.65 93.8386 220.516 93.6069 220.292 93.4777L183.78 72.396C183.677 72.3364 183.641 72.2038 183.7 72.1007C183.761 71.9963 183.894 71.9614 183.996 72.0217L220.509 93.102C220.868 93.309 221.083 93.6806 221.083 94.0951C221.084 94.5096 220.87 94.8819 220.512 95.0902L196.021 109.323C195.987 109.344 195.949 109.353 195.912 109.353Z" fill="#DBDEE4"/>
<path d="M217.895 216.79C217.857 216.79 217.821 216.781 217.786 216.761L165.608 186.74C165.505 186.68 165.47 186.548 165.528 186.444C165.587 186.339 165.721 186.305 165.824 186.364L218.003 216.385C218.106 216.445 218.141 216.578 218.082 216.681C218.043 216.751 217.97 216.79 217.895 216.79Z" fill="#DBDEE4"/>
<path d="M214.522 214.118C212.953 215.024 212.945 216.493 214.503 217.399C216.061 218.304 218.597 218.304 220.166 217.398C221.734 216.493 221.742 215.024 220.184 214.119C218.625 213.213 216.09 213.213 214.522 214.118Z" fill="#FFEECC"/>
<path d="M217.332 218.287C216.268 218.287 215.206 218.052 214.398 217.583C213.579 217.107 213.128 216.461 213.129 215.765C213.131 215.064 213.588 214.414 214.418 213.935C216.042 212.997 218.676 212.997 220.293 213.935C221.112 214.412 221.563 215.058 221.562 215.754C221.561 216.455 221.103 217.104 220.274 217.583C219.461 218.052 218.396 218.287 217.332 218.287ZM217.358 213.65C216.371 213.65 215.384 213.868 214.63 214.303C213.937 214.703 213.555 215.223 213.554 215.766C213.554 216.304 213.929 216.819 214.612 217.215C216.108 218.085 218.554 218.086 220.061 217.215C220.755 216.815 221.136 216.296 221.137 215.753C221.138 215.215 220.762 214.7 220.079 214.303C219.33 213.868 218.345 213.65 217.358 213.65Z" fill="#DBDEE4"/>
<path d="M217.333 216.793C217.944 216.793 218.536 216.654 218.956 216.411C219.294 216.216 219.487 215.977 219.488 215.754C219.488 215.535 219.298 215.298 218.967 215.105C218.55 214.863 217.96 214.724 217.35 214.724C216.739 214.724 216.147 214.863 215.727 215.106C215.39 215.301 215.196 215.541 215.195 215.763C215.195 215.983 215.385 216.22 215.716 216.412C216.133 216.655 216.722 216.793 217.333 216.793Z" fill="#FFBE2E"/>
<path d="M203.495 206.874C204.154 206.874 204.79 207.023 205.243 207.284C205.607 207.493 205.815 207.75 205.816 207.988C205.816 208.224 205.611 208.478 205.255 208.685C204.806 208.944 204.172 209.094 203.514 209.094C202.857 209.094 202.22 208.944 201.768 208.684C201.404 208.474 201.195 208.217 201.195 207.978C201.195 207.743 201.4 207.489 201.756 207.282C202.204 207.023 202.838 206.874 203.495 206.874Z" fill="#373B42"/>
<path d="M42.1077 193.891C41.3879 193.891 40.668 193.706 40.0265 193.333L16.952 179.97C16.8482 179.91 16.8134 179.778 16.8724 179.674C16.9333 179.571 17.0659 179.536 17.1683 179.595L40.2428 192.958C41.3905 193.623 42.8155 193.623 43.9639 192.964L67.1984 179.595C67.3015 179.537 67.4341 179.571 67.4944 179.675C67.5533 179.779 67.5178 179.912 67.4147 179.971L44.1802 193.339C43.5407 193.707 42.8242 193.891 42.1077 193.891Z" fill="#DBDEE4"/>
<path d="M13.3501 177.048C11.7816 177.953 11.7728 179.422 13.3309 180.328C14.8891 181.233 17.4254 181.233 18.9939 180.327C20.5624 179.422 20.57 177.953 19.0117 177.048C17.4534 176.143 14.9185 176.142 13.3501 177.048Z" fill="#FFEECC"/>
<path d="M16.1565 181.216C15.0924 181.216 14.0299 180.981 13.2223 180.512C12.403 180.036 11.9524 179.391 11.9531 178.694C11.9548 177.993 12.4122 177.343 13.2422 176.864C14.8657 175.926 17.5003 175.926 19.1173 176.865C19.9365 177.341 20.3872 177.987 20.3864 178.683C20.3848 179.384 19.9274 180.033 19.0982 180.512C18.2854 180.981 17.2205 181.216 16.1565 181.216ZM16.1822 176.58C15.1952 176.58 14.2084 176.797 13.4546 177.232C12.7616 177.633 12.3789 178.152 12.3781 178.695C12.3781 179.233 12.7533 179.748 13.4364 180.145C14.9321 181.015 17.3782 181.015 18.8857 180.144C19.5787 179.744 19.9606 179.225 19.9614 178.683C19.9622 178.144 19.5863 177.629 18.9031 177.233C18.1544 176.797 17.169 176.58 16.1822 176.58Z" fill="#DBDEE4"/>
<path d="M16.1606 179.723C16.7721 179.723 17.3638 179.583 17.7843 179.341C18.1218 179.146 18.3156 178.906 18.316 178.684C18.3162 178.464 18.1264 178.227 17.7947 178.035C17.3778 177.792 16.7885 177.653 16.1778 177.653C15.5669 177.653 14.9756 177.792 14.5555 178.035C14.2177 178.23 14.0237 178.47 14.0234 178.693C14.0232 178.913 14.2129 179.149 14.5442 179.342C14.9607 179.584 15.5498 179.723 16.1606 179.723Z" fill="#FFBE2E"/>
<path d="M29.6015 187.829C28.9432 187.829 28.3064 187.68 27.8538 187.419C27.4902 187.21 27.2819 186.953 27.2813 186.715C27.2806 186.479 27.4855 186.225 27.8424 186.019C28.291 185.759 28.9258 185.609 29.5827 185.609C30.2403 185.609 30.8771 185.759 31.3291 186.019C31.6927 186.229 31.9016 186.485 31.9016 186.724C31.9023 186.96 31.6974 187.214 31.3412 187.42C30.8932 187.681 30.2591 187.829 29.6015 187.829Z" fill="#373B42"/>
<path d="M48.103 217.878C48.0286 217.878 47.955 217.839 47.9155 217.769C47.8559 217.665 47.892 217.533 47.9952 217.473L100.173 187.452C100.277 187.393 100.409 187.427 100.469 187.532C100.528 187.636 100.493 187.768 100.39 187.828L48.2114 217.849C48.1766 217.868 48.1405 217.878 48.103 217.878Z" fill="#DBDEE4"/>
<path d="M45.8384 215.206C44.2698 216.112 44.261 217.581 45.8192 218.487C47.3774 219.392 49.9137 219.392 51.4822 218.486C53.0507 217.581 53.0583 216.112 51.5 215.207C49.9417 214.301 47.4067 214.301 45.8384 215.206Z" fill="#FFEECC"/>
<path d="M48.6448 219.375C47.5807 219.375 46.5182 219.14 45.7106 218.671C44.8913 218.195 44.4407 217.549 44.4414 216.853C44.443 216.152 44.9005 215.502 45.7305 215.023C47.354 214.084 49.9886 214.085 51.6056 215.023C52.4248 215.5 52.8755 216.145 52.8747 216.842C52.8731 217.542 52.4157 218.192 51.5865 218.671C50.7737 219.14 49.7088 219.375 48.6448 219.375ZM48.6705 214.738C47.6835 214.738 46.6966 214.956 45.9429 215.391C45.2499 215.791 44.8671 216.31 44.8664 216.854C44.8664 217.392 45.2416 217.907 45.9247 218.303C47.4204 219.173 49.8665 219.174 51.374 218.303C52.067 217.903 52.4488 217.384 52.4497 216.841C52.4505 216.303 52.0746 215.788 51.3914 215.391C50.6427 214.956 49.6573 214.738 48.6705 214.738Z" fill="#DBDEE4"/>
<path d="M48.645 217.881C49.2564 217.881 49.8482 217.742 50.2686 217.499C50.6062 217.304 50.8 217.065 50.8004 216.842C50.8006 216.623 50.6107 216.386 50.2791 216.193C49.8622 215.951 49.2728 215.812 48.6622 215.812C48.0512 215.812 47.46 215.951 47.0399 216.194C46.7021 216.389 46.5081 216.628 46.5078 216.851C46.5076 217.071 46.6973 217.308 47.0286 217.5C47.4451 217.742 48.0342 217.881 48.645 217.881Z" fill="#FFBE2E"/>
<path d="M62.5038 207.961C61.8456 207.961 61.2088 208.111 60.7561 208.371C60.3925 208.58 60.1843 208.837 60.1836 209.076C60.1836 209.312 60.3878 209.566 60.7447 209.773C61.1934 210.033 61.8282 210.182 62.4851 210.182C63.1427 210.182 63.7795 210.033 64.2315 209.772C64.5951 209.562 64.804 209.305 64.804 209.066C64.804 208.831 64.5997 208.577 64.2435 208.37C63.7955 208.111 63.1614 207.961 62.5038 207.961Z" fill="#373B42"/>
<path d="M100.283 102.488C100.208 102.488 100.135 102.45 100.096 102.38C100.036 102.277 100.071 102.144 100.174 102.084L163.646 65.2011C163.749 65.1408 163.881 65.175 163.942 65.2794C164.002 65.3825 163.967 65.5158 163.864 65.5754L100.392 102.459C100.358 102.479 100.32 102.488 100.283 102.488Z" fill="#DBDEE4"/>
<path d="M26.6148 108.693C26.5773 108.693 26.5405 108.683 26.5063 108.663L0.678332 93.6865C0.253123 93.4394 -0.00133398 92.9981 5.26033e-06 92.5066C0.0013445 92.0151 0.2558 91.5745 0.681009 91.3287L85.9285 42.2368C86.029 42.1778 86.1636 42.212 86.2245 42.3164C86.2834 42.4202 86.2479 42.5521 86.1448 42.6124L0.897965 91.705C0.608019 91.8724 0.434587 92.1731 0.433247 92.5086C0.433247 92.8434 0.606011 93.1441 0.895957 93.3128L26.7233 108.29C26.8271 108.35 26.8619 108.482 26.8016 108.586C26.7621 108.655 26.6891 108.693 26.6148 108.693Z" fill="#DBDEE4"/>
<path d="M84.0205 108.693C83.983 108.693 83.9462 108.683 83.9114 108.663L20.4393 71.7805C20.3361 71.7202 20.3013 71.5876 20.3616 71.4845C20.4205 71.38 20.5538 71.3459 20.6576 71.4062L84.1297 108.289C84.2328 108.349 84.2676 108.482 84.2073 108.585C84.1678 108.655 84.0955 108.693 84.0205 108.693Z" fill="#DBDEE4"/>
<g opacity="0.1">
<path d="M39.5484 71.927C46.8339 76.1328 46.8728 82.9556 39.6308 87.1635C32.3888 91.3714 20.6129 91.3694 13.3274 87.1635C6.03857 82.9556 5.99304 76.1328 13.235 71.9249C20.477 67.717 32.2596 67.7191 39.5484 71.927Z" fill="black"/>
</g>
<path d="M7.73439 76.9845C7.72836 79.7601 9.55844 82.541 13.2313 84.6564C16.0732 86.2983 19.5947 87.298 23.2669 87.6556C25.3032 87.8618 27.3878 87.8618 29.4241 87.6677C33.1331 87.3161 36.6841 86.3103 39.5327 84.6557C43.1326 82.5651 44.9325 79.8324 44.9386 77.093L44.9506 70.3486C44.9446 73.094 43.1446 75.8267 39.5448 77.9173C36.6902 79.578 33.1331 80.5837 29.4241 80.9292C27.3878 81.1234 25.3032 81.1234 23.2669 80.9172C19.6008 80.5596 16.0792 79.5538 13.2434 77.9173C9.57719 75.8087 7.74644 73.0331 7.74644 70.2515L7.73439 76.9845Z" fill="#BEC4CD"/>
<path d="M23.2656 80.917V87.6554C25.3019 87.8616 27.3865 87.8616 29.4228 87.6674V80.929C27.3865 81.1232 25.3019 81.1232 23.2656 80.917Z" fill="#F0F2F5"/>
<path d="M26.397 88.0215C21.5938 88.0215 16.7866 86.9628 13.119 84.8454C9.4964 82.7535 7.50628 79.9606 7.51566 76.9807L7.52771 70.2551C7.52771 70.2511 7.52771 70.2464 7.52771 70.2417C7.52771 70.1218 7.6248 70.0254 7.744 70.0254C7.744 70.0254 7.744 70.0254 7.74467 70.0254C7.86386 70.0261 7.96029 70.1225 7.96029 70.2423V70.2598C7.96029 73.0722 9.87339 75.7245 13.3481 77.7307C20.5632 81.8958 32.2662 81.8964 39.4338 77.7307C42.8435 75.7493 44.7258 73.1284 44.7332 70.3508C44.7332 70.231 44.8303 70.1345 44.9495 70.1345C44.9495 70.1345 44.9495 70.1345 44.9502 70.1345C45.0694 70.1352 45.1658 70.2316 45.1658 70.3515L45.1531 77.0906C45.1444 80.0295 43.1871 82.783 39.6394 84.8448C35.996 86.9621 31.1988 88.0215 26.397 88.0215ZM7.95694 72.6202L7.94957 76.9821C7.94087 79.7999 9.85398 82.4596 13.336 84.4705C20.5519 88.6362 32.2542 88.6362 39.4224 84.4698C42.8322 82.4891 44.7138 79.8675 44.7212 77.0899L44.7299 72.7126C43.9678 74.7456 42.2295 76.6078 39.6528 78.1057C32.3633 82.3404 20.4675 82.3411 13.1318 78.1057C10.4948 76.5837 8.72231 74.6886 7.95694 72.6202Z" fill="#373B42"/>
<path d="M39.4625 62.6813C46.748 66.8872 46.7868 73.71 39.5449 77.9179C32.3029 82.1258 20.5269 82.1245 13.2415 77.9179C5.95263 73.71 5.9071 66.8872 13.1491 62.6793C20.3903 58.4714 32.173 58.4734 39.4625 62.6813Z" fill="white"/>
<path d="M26.4132 81.2823C21.6114 81.2823 16.8028 80.2236 13.1353 78.1056C9.52606 76.0217 7.53527 73.2388 7.53126 70.269C7.52724 67.322 9.48388 64.5598 13.0416 62.492C20.3324 58.2553 32.2349 58.2573 39.5733 62.4934C43.1786 64.5746 45.1667 67.3555 45.1707 70.3239C45.1747 73.2729 43.2161 76.0365 39.6564 78.1056C36.0116 80.2229 31.2151 81.2823 26.4132 81.2823ZM26.2874 59.7426C21.5625 59.7426 16.845 60.7838 13.2599 62.867C9.84078 64.8538 7.96049 67.482 7.9645 70.2683C7.96852 73.0774 9.88163 75.7271 13.3523 77.7306C20.5674 81.8956 32.2704 81.8963 39.4381 77.7306C42.8591 75.7432 44.7408 73.1129 44.7374 70.3246C44.7334 67.5169 42.8223 64.8692 39.3564 62.8684C35.7464 60.7845 31.0129 59.7426 26.2874 59.7426Z" fill="#373B42"/>
<g opacity="0.1">
<path d="M19.679 66.9618C15.5394 69.3517 15.5226 73.2288 19.6354 75.6187C23.7482 78.0086 30.4364 78.0086 34.5767 75.6187C38.7163 73.2288 38.7438 69.3524 34.6303 66.9618C30.5168 64.572 23.8186 64.572 19.679 66.9618Z" fill="black"/>
</g>
<path d="M192.53 107.152C190.961 108.057 190.952 109.526 192.511 110.432C194.069 111.337 196.605 111.337 198.174 110.431C199.742 109.526 199.75 108.057 198.191 107.152C196.633 106.247 194.098 106.246 192.53 107.152Z" fill="#FFEECC"/>
<path d="M195.336 111.32C194.272 111.32 193.21 111.085 192.402 110.616C191.583 110.14 191.132 109.495 191.133 108.798C191.134 108.097 191.592 107.447 192.422 106.968C194.045 106.03 196.68 106.03 198.297 106.969C199.116 107.445 199.567 108.091 199.566 108.787C199.564 109.488 199.107 110.137 198.278 110.616C197.465 111.085 196.4 111.32 195.336 111.32ZM195.362 106.684C194.375 106.684 193.388 106.901 192.634 107.336C191.941 107.737 191.559 108.256 191.558 108.799C191.558 109.337 191.933 109.852 192.616 110.249C194.112 111.119 196.558 111.119 198.065 110.248C198.758 109.848 199.14 109.329 199.141 108.787C199.142 108.248 198.766 107.733 198.083 107.337C197.334 106.901 196.349 106.684 195.362 106.684Z" fill="#DBDEE4"/>
<path d="M195.336 109.827C195.948 109.827 196.54 109.687 196.96 109.445C197.298 109.25 197.491 109.01 197.492 108.788C197.492 108.568 197.302 108.331 196.971 108.139C196.554 107.896 195.964 107.757 195.354 107.757C194.743 107.757 194.151 107.896 193.731 108.139C193.393 108.334 193.199 108.574 193.199 108.797C193.199 109.017 193.389 109.253 193.72 109.446C194.137 109.688 194.726 109.827 195.336 109.827Z" fill="#FFBE2E"/>
<path d="M209.147 99.9116C208.492 99.9116 207.857 100.061 207.406 100.321C207.044 100.53 206.837 100.787 206.836 101.026C206.836 101.262 207.039 101.515 207.395 101.722C207.842 101.982 208.474 102.131 209.129 102.131C209.784 102.131 210.419 101.981 210.869 101.722C211.231 101.513 211.44 101.256 211.44 101.016C211.44 100.781 211.237 100.527 210.881 100.321C210.434 100.06 209.802 99.911 209.147 99.9116Z" fill="#373B42"/>
<path d="M23.772 106.551C22.2034 107.457 22.1946 108.926 23.7528 109.831C25.311 110.737 27.8473 110.736 29.4158 109.831C30.9843 108.925 30.9919 107.457 29.4336 106.551C27.8753 105.646 25.3403 105.645 23.772 106.551Z" fill="#FFEECC"/>
<path d="M26.5784 110.72C25.5143 110.72 24.4518 110.485 23.6442 110.016C22.8248 109.54 22.3742 108.894 22.375 108.198C22.3766 107.497 22.834 106.847 23.6641 106.368C25.2876 105.43 27.9222 105.43 29.5391 106.369C30.3583 106.845 30.8091 107.491 30.8083 108.187C30.8067 108.888 30.3492 109.537 29.5201 110.016C28.7073 110.485 27.6424 110.72 26.5784 110.72ZM26.6041 106.084C25.6171 106.084 24.6302 106.301 23.8765 106.736C23.1835 107.136 22.8007 107.656 22.8 108.199C22.8 108.737 23.1752 109.252 23.8582 109.649C25.354 110.518 27.8001 110.519 29.3075 109.648C30.0006 109.248 30.3824 108.729 30.3833 108.187C30.3841 107.648 30.0082 107.133 29.3249 106.736C28.5763 106.301 27.5909 106.084 26.6041 106.084Z" fill="#DBDEE4"/>
<path d="M26.5825 109.226C27.1939 109.226 27.7857 109.087 28.2061 108.844C28.5437 108.65 28.7375 108.41 28.7379 108.188C28.7381 107.968 28.5482 107.731 28.2166 107.538C27.7997 107.296 27.2103 107.157 26.5997 107.157C25.9887 107.157 25.3975 107.296 24.9774 107.539C24.6396 107.734 24.4456 107.974 24.4453 108.197C24.4451 108.416 24.6348 108.653 24.9661 108.845C25.3826 109.088 25.9717 109.226 26.5825 109.226Z" fill="#FFBE2E"/>
<path d="M12.796 99.3105C13.4516 99.3105 14.0864 99.4599 14.537 99.7204C14.8993 99.9293 15.1069 100.186 15.1076 100.425C15.1082 100.661 14.904 100.914 14.5484 101.121C14.1011 101.381 13.469 101.53 12.8141 101.53C12.1592 101.53 11.5251 101.381 11.0744 101.121C10.7122 100.912 10.5039 100.655 10.5039 100.416C10.5039 100.18 10.7075 99.9266 11.0624 99.7204C11.509 99.4599 12.1411 99.3105 12.796 99.3105Z" fill="#373B42"/>
<path d="M82.6587 40.802C81.0902 41.7076 81.0813 43.1767 82.6395 44.0822C84.1977 44.9877 86.734 44.9873 88.3025 44.0818C89.871 43.1762 89.8786 41.7079 88.3203 40.8024C86.762 39.8969 84.2271 39.8964 82.6587 40.802Z" fill="#FFEECC"/>
<path d="M85.469 44.9707C84.4049 44.9707 83.3424 44.7358 82.5348 44.2668C81.7155 43.7907 81.2649 43.145 81.2656 42.4485C81.2673 41.7475 81.7247 41.0976 82.5547 40.6186C84.1782 39.6802 86.8128 39.6807 88.4298 40.619C89.249 41.0954 89.6997 41.7412 89.6989 42.4377C89.6973 43.1381 89.2399 43.7877 88.4107 44.2663C87.5979 44.7358 86.533 44.9707 85.469 44.9707ZM85.4947 40.334C84.5077 40.334 83.5209 40.5515 82.7671 40.9865C82.0741 41.387 81.6914 41.9062 81.6906 42.4494C81.6906 42.9876 82.0658 43.5027 82.7489 43.8991C84.2446 44.769 86.6907 44.7693 88.1982 43.8987C88.8912 43.4985 89.2731 42.9798 89.2739 42.437C89.2747 41.8988 88.8988 41.3837 88.2156 40.987C87.4669 40.5515 86.4815 40.334 85.4947 40.334Z" fill="#DBDEE4"/>
<path d="M85.4692 43.4769C86.0807 43.4769 86.6724 43.3376 87.0929 43.0949C87.4304 42.9 87.6242 42.6606 87.6246 42.4381C87.6248 42.2182 87.435 41.9817 87.1033 41.7889C86.6864 41.5467 86.0971 41.4077 85.4864 41.4077C84.8755 41.4077 84.2842 41.5469 83.8641 41.7894C83.5263 41.9845 83.3323 42.2241 83.332 42.447C83.3318 42.6669 83.5215 42.9034 83.8528 43.0959C84.2693 43.3381 84.8584 43.4769 85.4692 43.4769Z" fill="#FFBE2E"/>
<path d="M71.6827 51.3243C72.3383 51.3243 72.9731 51.175 73.4238 50.9145C73.786 50.7056 73.9936 50.4484 73.9943 50.21C73.9949 49.9743 73.7907 49.7205 73.4351 49.5136C72.9878 49.2538 72.3557 49.1045 71.7008 49.1045C71.0453 49.1045 70.4111 49.2538 69.9611 49.5136C69.5989 49.7226 69.3906 49.9797 69.3906 50.2187C69.3906 50.4545 69.5942 50.7082 69.9491 50.9145C70.3957 51.175 71.0279 51.3243 71.6827 51.3243Z" fill="#373B42"/>
<path d="M50.5968 90.0948C51.2524 90.0948 51.8872 89.9455 52.3378 89.685C52.7001 89.4761 52.9077 89.2189 52.9083 88.9805C52.9083 88.7448 52.7048 88.4911 52.3492 88.2841C51.9019 88.0243 51.2698 87.875 50.6149 87.875C49.96 87.875 49.3259 88.0243 48.8752 88.2841C48.5129 88.4931 48.3047 88.7502 48.3047 88.9893C48.3047 89.225 48.5083 89.4787 48.8632 89.685C49.3098 89.9455 49.9419 90.0948 50.5968 90.0948Z" fill="#373B42"/>
<g opacity="0.1">
<path d="M211.581 175.339L131.281 222L21.1797 158.437L101.472 111.769L211.581 175.339Z" fill="black"/>
</g>
<path d="M212.334 163.777L132.029 210.438L129.481 208.963L35.2523 154.563C33.2582 153.411 31.4804 151.461 30.1699 149.215C28.8742 146.954 28.082 144.449 28.082 142.153C28.0961 139.864 28.903 138.287 30.2054 137.532L110.504 90.8628C109.201 91.6188 108.394 93.2025 108.388 95.4912C108.38 97.7807 109.179 100.292 110.475 102.546C111.778 104.799 113.556 106.742 115.55 107.895L209.778 162.301L212.334 163.777Z" fill="#F7E8CA"/>
<path d="M132.03 210.655C131.993 210.655 131.955 210.645 131.922 210.625L129.373 209.15L35.1453 154.751C33.2047 153.63 31.3713 151.703 29.9845 149.324C28.6192 146.942 27.8672 144.397 27.8672 142.153C27.8812 139.879 28.6741 138.171 30.099 137.345L110.387 90.6809C110.39 90.6789 110.393 90.6775 110.397 90.6755C110.497 90.6152 110.632 90.6501 110.692 90.7545C110.752 90.8577 110.717 90.9902 110.614 91.0505L110.604 91.0565C109.322 91.8058 108.612 93.3808 108.606 95.4921C108.599 97.6516 109.33 100.119 110.665 102.438C111.998 104.746 113.773 106.617 115.661 107.707L212.444 163.59C212.511 163.628 212.553 163.7 212.553 163.777C212.553 163.854 212.512 163.925 212.445 163.965L132.139 210.627C132.106 210.646 132.068 210.655 132.03 210.655ZM109.082 91.9411L30.3167 137.719C29.0297 138.465 28.3138 140.041 28.3004 142.155C28.3004 144.322 29.0317 146.792 30.3595 149.107C31.7081 151.42 33.4853 153.292 35.3623 154.377L132.03 210.188L211.903 163.777L115.444 108.082C113.491 106.955 111.661 105.028 110.289 102.654C108.917 100.269 108.166 97.7253 108.173 95.4908C108.177 94.0558 108.492 92.8464 109.082 91.9411Z" fill="#373B42"/>
<path d="M40.341 135.08L120.641 88.4146L120.625 94.2818L40.3242 140.948L40.341 135.08Z" fill="#978050"/>
<path d="M40.3224 141.164C40.2849 141.164 40.2481 141.154 40.2139 141.134C40.147 141.096 40.1055 141.024 40.1055 140.947L40.1215 135.08C40.1215 135.003 40.1631 134.932 40.2293 134.893L120.53 88.2269C120.597 88.188 120.68 88.188 120.747 88.2269C120.814 88.2657 120.856 88.3374 120.856 88.4151L120.84 94.2823C120.84 94.3593 120.798 94.4303 120.733 94.4691L40.4316 141.135C40.3981 141.154 40.3599 141.164 40.3224 141.164ZM40.5555 135.205L40.54 140.571L120.406 94.1571L120.422 88.7914L40.5555 135.205Z" fill="#373B42"/>
<path d="M120.64 88.4151L40.3338 135.077L35.309 132.176C31.9254 130.226 28.8304 130.031 26.6133 131.305L106.912 84.6358C109.136 83.3615 112.224 83.5557 115.615 85.5136L120.64 88.4151Z" fill="#373B42"/>
<path d="M40.3369 135.294C40.2994 135.294 40.2626 135.285 40.2284 135.265L35.2036 132.364C32.0309 130.536 28.9393 130.22 26.7235 131.494C26.6177 131.553 26.4878 131.517 26.4275 131.414C26.3679 131.311 26.4028 131.179 26.5059 131.118L106.804 84.449C109.199 83.0769 112.369 83.3883 115.725 85.3269L120.75 88.2277C120.817 88.2658 120.858 88.3375 120.858 88.4145C120.858 88.4922 120.817 88.5632 120.751 88.6027L40.4461 135.265C40.4119 135.284 40.3737 135.294 40.3369 135.294ZM29.7897 130.289C31.5307 130.289 33.4646 130.861 35.4199 131.988L40.3362 134.827L120.209 88.4158L115.508 85.7019C112.29 83.843 109.274 83.5323 107.02 84.824L28.6426 130.377C29.0149 130.319 29.3973 130.289 29.7897 130.289Z" fill="#373B42"/>
<path d="M132.036 210.439L212.337 163.774L212.32 169.646L132.02 216.312L132.036 210.439Z" fill="#978050"/>
<path d="M132.018 216.529C131.98 216.529 131.943 216.519 131.909 216.499C131.842 216.46 131.801 216.389 131.801 216.311L131.818 210.439C131.818 210.362 131.859 210.291 131.925 210.252L212.224 163.586C212.292 163.547 212.374 163.547 212.442 163.586C212.509 163.624 212.55 163.696 212.55 163.774L212.534 169.647C212.534 169.724 212.493 169.795 212.427 169.833L132.127 216.499C132.093 216.519 132.055 216.529 132.018 216.529ZM132.251 210.564L132.235 215.935L212.102 169.522L212.117 164.151L132.251 210.564Z" fill="#373B42"/>
<path d="M40.3391 135.08L40.3224 140.948L35.2989 138.048C33.3041 136.901 31.5229 136.793 30.2091 137.531C28.904 138.285 28.0984 139.868 28.0877 142.157C28.0857 144.446 28.8799 146.957 30.1763 149.213C31.482 151.465 33.2579 153.41 35.2527 154.562L129.485 208.966L132.035 210.439L132.018 216.312L35.2353 160.434C31.8477 158.478 28.7641 155.105 26.5556 151.275C24.3432 147.448 22.9698 143.1 22.9805 139.208C22.9912 135.315 24.3847 132.565 26.6119 131.302C28.8344 130.03 31.9273 130.223 35.315 132.179L40.3391 135.08Z" fill="#978050"/>
<path d="M132.016 216.528C131.978 216.528 131.942 216.518 131.907 216.499L35.1243 160.621C31.8064 158.705 28.6953 155.425 26.365 151.383C24.0307 147.346 22.7511 143.02 22.7618 139.208C22.7725 135.351 24.101 132.476 26.503 131.114C28.8982 129.744 32.0648 130.054 35.421 131.992L40.4438 134.892C40.5108 134.931 40.5523 135.002 40.5523 135.08L40.5362 140.947C40.5362 141.025 40.4947 141.096 40.4277 141.135C40.3601 141.173 40.2791 141.173 40.2115 141.134L35.188 138.234C33.3431 137.174 31.6108 136.989 30.3124 137.719C29.0261 138.462 28.3116 140.039 28.3016 142.157C28.2996 144.324 29.0315 146.791 30.362 149.104C31.7019 151.415 33.4771 153.286 35.3587 154.373L132.142 210.25C132.209 210.289 132.25 210.361 132.25 210.439L132.234 216.311C132.234 216.389 132.192 216.46 132.125 216.499C132.09 216.518 132.053 216.528 132.016 216.528ZM29.8022 130.706C28.6739 130.706 27.634 130.966 26.7172 131.49C24.4566 132.773 23.2051 135.515 23.195 139.209C23.185 142.948 24.4439 147.194 26.7407 151.167C29.0335 155.144 32.0876 158.368 35.3406 160.247L131.8 215.937L131.816 210.563L35.1411 154.748C33.1952 153.625 31.3644 151.698 29.9863 149.322C28.6183 146.942 27.8663 144.398 27.8677 142.157C27.8784 139.877 28.6705 138.168 30.0982 137.343C31.5345 136.536 33.4208 136.719 35.4042 137.859L40.1043 140.572L40.1197 135.204L35.2054 132.366C33.2936 131.264 31.4535 130.706 29.8022 130.706Z" fill="#373B42"/>
<g opacity="0.1">
<path d="M177.604 176.475L140.443 198.07C139.055 198.877 136.791 198.877 135.392 198.07L50.0224 148.78C48.6229 147.973 48.6175 146.66 50.0063 145.853L87.1663 124.258C88.5544 123.452 90.8191 123.452 92.2126 124.258L177.587 173.549C178.981 174.355 178.993 175.669 177.604 176.475Z" fill="black"/>
</g>
<path d="M66.728 143.368L83.2144 133.962L64.8086 124.634L65.8128 137.157L66.728 143.368Z" fill="#FFBE2E"/>
<path d="M67.1053 143.816L84.4306 133.936L64.1562 123.658L65.243 137.202L66.1456 143.341C66.2091 143.797 66.7112 144.041 67.1053 143.816ZM82.0027 133.994L67.1688 142.456L66.3807 137.073L65.4591 125.615L81.9964 134L82.0027 133.994Z" fill="#16110D"/>
<path d="M75.9549 137.15V137.169C77.3722 136.573 79.1391 136.964 80.8869 138.517C84.2108 141.474 86.1938 147.422 85.3167 151.804C84.9608 153.594 84.1663 154.813 83.1367 155.467L83.1495 155.493L77.4485 158.592L70.2031 140.294L75.9549 137.15Z" fill="black"/>
<path d="M76.5472 157.879C76.8713 158.694 77.8247 159.047 78.5937 158.63L83.8689 155.762L83.8371 155.678C84.8476 154.87 85.5467 153.58 85.8772 151.925C86.7861 147.37 84.7205 141.166 81.2694 138.093C79.6297 136.63 77.8374 136.052 76.2739 136.463L76.2294 136.373L75.6829 136.649L70.1408 139.677C69.7658 139.883 69.6006 140.338 69.7594 140.736L76.5472 157.879ZM82.5088 155.184L77.7421 157.776L70.9225 140.556L76.1849 137.701C77.4624 137.162 79.0005 137.605 80.5131 138.952C83.6909 141.782 85.5976 147.498 84.7586 151.688C84.4472 153.234 83.7862 154.376 82.8393 154.979L82.5088 155.184Z" fill="#16110D"/>
<path d="M76.1601 159.111C74.9335 159.111 73.6242 158.521 72.3721 157.411C68.9973 154.408 66.9763 148.339 67.8597 143.88C68.2982 141.667 69.385 140.165 70.9104 139.646C71.2853 139.517 71.6794 139.459 72.0798 139.459C73.3128 139.459 74.622 140.05 75.8741 141.16C79.2489 144.169 81.2763 150.238 80.3802 154.691C79.9416 156.904 78.8548 158.405 77.3295 158.925C76.9545 159.053 76.5541 159.118 76.1537 159.118L76.1601 159.111Z" fill="white"/>
<path d="M72.0779 139.774C73.2282 139.774 74.4676 140.333 75.6624 141.398C78.961 144.336 80.9439 150.271 80.0732 154.621C79.6537 156.712 78.6495 158.13 77.2386 158.611C76.8954 158.727 76.5332 158.785 76.1582 158.785C75.0142 158.785 73.7748 158.226 72.58 157.161C69.2814 154.223 67.3048 148.288 68.1692 143.932C68.5887 141.84 69.5928 140.422 71.0038 139.941C71.347 139.826 71.7092 139.768 72.0779 139.768M72.0779 139.133C71.6393 139.133 71.2135 139.203 70.8067 139.338C69.167 139.896 68.0103 141.481 67.5463 143.81C66.6375 148.365 68.7031 154.569 72.1605 157.642C73.4825 158.817 74.8616 159.426 76.1582 159.426C76.5967 159.426 77.0226 159.356 77.4357 159.221C79.0754 158.663 80.2321 157.078 80.696 154.749C81.6049 150.194 79.5394 143.99 76.0819 140.916C74.76 139.742 73.3744 139.133 72.0779 139.133Z" fill="black"/>
<path d="M117.474 174.222L133.96 164.816L115.555 155.487L116.559 168.011L117.474 174.222Z" fill="#FFBE2E"/>
<path d="M118.4 174.35L135.173 164.784L114.898 154.506L115.985 168.056L116.792 173.561C116.907 174.324 117.739 174.735 118.4 174.356V174.35ZM132.745 164.848L117.911 173.311L117.123 167.928L116.201 156.463L132.739 164.848H132.745Z" fill="#16110D"/>
<path d="M127.849 166.131V166.15C129.267 165.553 131.034 165.945 132.781 167.497C136.105 170.455 138.088 176.402 137.211 180.784C136.855 182.574 136.061 183.793 135.031 184.448L135.044 184.474L129.343 187.572L122.098 169.274L127.849 166.131Z" fill="black"/>
<path d="M128.506 187.034C128.792 187.752 129.637 188.067 130.311 187.694L135.751 184.73C136.762 183.922 137.429 182.549 137.759 180.894C138.668 176.338 136.603 170.134 133.145 167.061C131.512 165.611 129.739 165.027 128.175 165.425L128.137 165.329L127.565 165.618L122.423 168.428C121.82 168.761 121.553 169.493 121.807 170.141L128.493 187.034H128.506ZM134.397 184.166L129.631 186.758L122.811 169.538L128.073 166.683C129.357 166.144 130.889 166.586 132.402 167.934C135.579 170.763 137.486 176.48 136.647 180.669C136.336 182.215 135.668 183.357 134.728 183.96L134.397 184.172V184.166Z" fill="#16110D"/>
<path d="M128.043 188.091C126.816 188.091 125.507 187.501 124.255 186.391C120.88 183.388 118.859 177.319 119.742 172.86C120.187 170.647 121.268 169.145 122.793 168.626C123.168 168.497 123.562 168.433 123.969 168.433C125.196 168.433 126.505 169.023 127.757 170.14C131.132 173.142 133.153 179.212 132.263 183.671C131.825 185.884 130.738 187.386 129.212 187.905C128.837 188.034 128.443 188.098 128.037 188.098L128.043 188.091Z" fill="white"/>
<path d="M123.967 168.755C125.111 168.755 126.35 169.319 127.545 170.378C130.844 173.317 132.82 179.251 131.95 183.601C131.53 185.693 130.526 187.111 129.115 187.592C128.772 187.707 128.41 187.765 128.035 187.765C126.891 187.765 125.651 187.207 124.456 186.142C121.158 183.203 119.181 177.275 120.046 172.919C120.465 170.821 121.476 169.403 122.887 168.928C123.23 168.813 123.592 168.755 123.961 168.755M123.967 168.113C123.529 168.113 123.103 168.184 122.69 168.325C121.05 168.883 119.893 170.468 119.429 172.797C118.52 177.352 120.586 183.556 124.043 186.629C125.365 187.804 126.744 188.413 128.041 188.413C128.48 188.413 128.905 188.342 129.318 188.208C130.958 187.65 132.115 186.065 132.579 183.736C133.488 179.181 131.422 172.977 127.971 169.903C126.649 168.729 125.27 168.12 123.973 168.12L123.967 168.113Z" fill="black"/>
<path d="M99.0964 117.993L57.8867 80.8384L93.7259 59.8971L94.7364 59.3133C96.6367 58.2419 97.393 57.8826 98.9247 58.7166L164.305 97.2437C165.15 97.7378 165.9 98.8028 166.167 99.8871L170.616 124.505L181.497 135.912C182.24 136.874 180.562 138.536 180.562 139.55L179.457 151.798L178.389 155.814L179.755 157.071L179.577 158.81L174.404 156.994L174.353 153.421C173.959 150.623 173.05 145.318 168.887 142.687C161.457 137.997 161.082 149.578 160.866 151.868C160.796 152.587 160.256 152.85 159.602 152.465L151.009 147.602L150.017 148.744L131.351 147.371L101.823 120.463L99.1282 118.923L99.1154 117.993H99.0964Z" fill="#FFBE2E"/>
<path d="M98.8745 120.578L59.3555 84.3858L95.1946 63.4445L96.2052 62.8607C98.1055 61.7892 98.8618 61.4299 100.394 62.264L161.375 98.2697C162.221 98.7637 162.971 99.8287 163.238 100.913L167.687 125.531L181.275 138.491C182.018 139.453 180.34 141.115 180.34 142.128L179.235 154.376L178.167 158.392L179.533 159.65L179.355 161.389L174.182 159.573L174.131 155.999C173.737 153.202 172.828 147.896 168.665 145.266C161.236 140.576 160.861 152.156 160.645 154.447C160.575 155.165 160.034 155.428 159.38 155.043L150.787 150.174L149.796 151.316L131.129 149.943L101.601 123.035L98.9063 121.495L98.8936 120.565L98.8745 120.578Z" fill="white"/>
<path d="M180.141 159.721L180.44 156.814L179.124 155.602L180.09 151.977L181.215 139.614C181.215 139.318 181.469 138.831 181.673 138.439C182.143 137.541 182.728 136.425 182.009 135.501L171.224 124.183L166.813 99.7648C166.489 98.4495 165.637 97.2497 164.633 96.6595L99.2595 58.1388C97.4101 57.1251 96.3805 57.6191 94.4166 58.7291L93.3997 59.3193L56.7852 80.7162L98.4397 118.294L98.4524 119.32L101.478 121.046L131.063 148.025L150.282 149.436L151.14 148.448L159.269 153.048C159.79 153.35 160.324 153.395 160.763 153.164C161.195 152.939 161.455 152.503 161.513 151.932L161.563 151.361C161.729 149.282 162.161 143.758 164.633 142.501C165.625 142 166.94 142.25 168.529 143.251C172.139 145.529 173.188 149.93 173.696 153.517L173.741 157.475L180.141 159.714V159.721ZM179.06 157.34L179.003 157.905L175.05 156.519L175.006 153.414C174.675 151.059 173.817 145.022 169.228 142.122C167.22 140.858 165.479 140.582 164.042 141.314C160.909 142.905 160.445 148.763 160.248 151.258L160.203 151.804C160.191 151.945 160.153 151.983 160.153 151.983C160.153 151.977 160.064 151.97 159.924 151.887L150.854 146.754L149.723 148.05L131.61 146.722L102.247 119.968L99.7617 118.538L99.7489 117.703L58.9905 80.9664L95.0649 59.8903C96.9016 58.851 97.3846 58.6393 98.6113 59.3065L163.972 97.8208C164.665 98.225 165.301 99.136 165.523 100.047L169.997 124.819L181.012 136.367C181.158 136.56 180.776 137.285 180.503 137.811C180.192 138.414 179.893 138.978 179.893 139.543L178.787 151.733L177.637 156.032L179.054 157.334L179.06 157.34Z" fill="#16110D"/>
<path d="M182.681 161.441L143.404 184.307L131.227 147.21L140.817 141.738L170.51 124.344L181.391 135.752C182.135 136.714 182.592 137.92 182.592 138.94L182.688 161.441H182.681Z" fill="#FFBE2E"/>
<path d="M180.717 162.814L143.467 184.486L133.184 149.283L170.434 127.61L179.421 137.125C180.164 138.087 180.622 139.293 180.622 140.313L180.717 162.814Z" fill="white"/>
<path d="M143.83 184.826L183.342 161.826L183.241 138.94C183.241 137.773 182.739 136.432 181.9 135.347L170.619 123.517L140.48 141.173L130.426 146.909L143.83 184.833V184.826ZM182.014 161.056L143.766 183.319L132.015 147.518L141.129 142.315L170.377 125.178L180.896 136.207C181.506 137.003 181.912 138.068 181.912 138.934L182.008 161.049L182.014 161.056Z" fill="#16110D"/>
<path d="M131.143 110.121L149.313 99.5286C150.267 98.9704 150.146 98.0016 149.046 97.3601L142.487 93.5362C141.388 92.8946 139.716 92.8241 138.763 93.3822L120.592 103.975C119.639 104.533 119.76 105.502 120.859 106.143L127.418 109.967C128.518 110.609 130.189 110.679 131.143 110.121Z" fill="#FFBE2E"/>
<path d="M136.188 104.378C136.43 104.378 136.665 104.32 136.855 104.211L141.114 101.728C141.393 101.568 141.552 101.305 141.552 101.01C141.552 100.695 141.368 100.407 141.056 100.221L139.518 99.3224C139.086 99.0722 138.476 99.0529 138.076 99.2839L133.817 101.767C133.544 101.927 133.379 102.197 133.379 102.485C133.379 102.8 133.563 103.088 133.875 103.275L135.419 104.173C135.648 104.308 135.921 104.378 136.194 104.378H136.188ZM136.283 103.21C136.226 103.236 136.067 103.23 135.978 103.178L134.828 102.511L138.635 100.291C138.686 100.272 138.845 100.272 138.934 100.33L140.084 100.997L136.277 103.21H136.283Z" fill="#16110D"/>
<path d="M147.167 164.308L150.091 162.601C150.332 162.46 150.574 162.447 150.771 162.563C150.993 162.691 151.127 162.973 151.127 163.326V168.966C151.127 169.556 150.777 170.217 150.332 170.48L147.409 172.187C147.275 172.264 147.148 172.302 147.021 172.302C146.919 172.302 146.817 172.276 146.728 172.225C146.506 172.097 146.379 171.814 146.379 171.462V165.822C146.379 165.232 146.728 164.571 147.173 164.308H147.167Z" fill="#FFEECC"/>
<path d="M147.02 172.88C147.248 172.88 147.477 172.809 147.693 172.687L150.617 170.98C151.246 170.615 151.704 169.768 151.704 168.966V163.326C151.704 162.762 151.469 162.306 151.062 162.062C150.68 161.844 150.229 161.857 149.81 162.094L146.88 163.801C146.251 164.167 145.793 165.014 145.793 165.816V171.455C145.793 172.02 146.028 172.482 146.435 172.719C146.613 172.822 146.81 172.873 147.013 172.873L147.02 172.88ZM150.426 163.102C150.528 163.102 150.56 163.185 150.56 163.333V168.972C150.56 169.396 150.293 169.845 150.051 169.986L147.121 171.693C147.001 171.712 146.943 171.635 146.943 171.468V165.829C146.943 165.405 147.21 164.956 147.452 164.815L150.375 163.108C150.375 163.108 150.407 163.108 150.413 163.108L150.426 163.102Z" fill="#16110D"/>
<path d="M146.88 175.336L150.381 173.296C150.547 173.2 150.731 173.193 150.871 173.277C151.03 173.373 151.125 173.559 151.125 173.803V174.502C151.125 174.881 150.909 175.291 150.617 175.465L147.115 177.505C147.026 177.556 146.93 177.582 146.841 177.582C146.765 177.582 146.689 177.563 146.625 177.524C146.466 177.428 146.371 177.235 146.371 176.998V176.299C146.371 175.92 146.587 175.51 146.88 175.336Z" fill="#FFEECC"/>
<path d="M146.846 178.16C147.036 178.16 147.233 178.102 147.411 178L150.907 175.959C151.377 175.69 151.701 175.087 151.701 174.496V173.797C151.701 173.348 151.498 172.97 151.161 172.771C150.843 172.585 150.443 172.591 150.1 172.79L146.591 174.83C146.121 175.1 145.797 175.703 145.797 176.286V176.986C145.797 177.435 146 177.813 146.337 178.012C146.483 178.102 146.661 178.147 146.839 178.147L146.846 178.16ZM150.672 173.797L150.557 174.503C150.557 174.689 150.436 174.907 150.335 174.965L146.833 177.005L146.941 176.299C146.941 176.12 147.062 175.902 147.163 175.837L150.665 173.797H150.672Z" fill="#16110D"/>
<path d="M176.366 147.493L179.29 145.786C179.531 145.645 179.773 145.632 179.97 145.747C180.192 145.876 180.326 146.158 180.326 146.511V152.15C180.326 152.741 179.976 153.401 179.531 153.665L176.608 155.371C176.474 155.448 176.347 155.487 176.22 155.487C176.118 155.487 176.017 155.461 175.928 155.41C175.705 155.281 175.578 154.999 175.578 154.646V149.007C175.578 148.416 175.928 147.756 176.373 147.493H176.366Z" fill="#FFEECC"/>
<path d="M176.218 156.064C176.447 156.064 176.675 156 176.891 155.872L179.821 154.165C180.451 153.8 180.902 152.946 180.902 152.151V146.511C180.902 145.947 180.667 145.485 180.26 145.247C179.879 145.029 179.421 145.042 179.008 145.286L176.084 146.992C175.455 147.358 175.004 148.205 175.004 149.007V154.646C175.004 155.211 175.239 155.673 175.646 155.91C175.824 156.013 176.021 156.064 176.224 156.064H176.218ZM179.631 146.28C179.72 146.28 179.758 146.357 179.758 146.511V152.151C179.758 152.574 179.491 153.023 179.249 153.164L176.326 154.871C176.199 154.897 176.148 154.813 176.148 154.646V149.007C176.148 148.584 176.415 148.134 176.656 147.993L179.58 146.287C179.58 146.287 179.612 146.28 179.631 146.28Z" fill="#16110D"/>
<path d="M176.083 158.52L179.585 156.48C179.75 156.383 179.934 156.377 180.074 156.46C180.233 156.557 180.328 156.743 180.328 156.987V157.686C180.328 158.064 180.112 158.475 179.82 158.648L176.318 160.688C176.229 160.74 176.134 160.765 176.045 160.765C175.968 160.765 175.892 160.746 175.828 160.708C175.67 160.611 175.574 160.419 175.574 160.182V159.482C175.574 159.104 175.79 158.693 176.083 158.52Z" fill="#FFEECC"/>
<path d="M176.04 161.343C176.231 161.343 176.421 161.292 176.599 161.189L180.107 159.143C180.578 158.873 180.902 158.27 180.902 157.686V156.987C180.902 156.544 180.698 156.159 180.362 155.961C180.037 155.775 179.643 155.781 179.3 155.98L175.798 158.02C175.328 158.296 175.004 158.893 175.004 159.476V160.176C175.004 160.618 175.207 161.003 175.544 161.202C175.697 161.292 175.875 161.337 176.046 161.337L176.04 161.343ZM179.866 156.981L179.752 157.686C179.752 157.866 179.631 158.084 179.529 158.148L176.027 160.189L176.142 159.483C176.142 159.303 176.262 159.085 176.364 159.021L179.866 156.981Z" fill="#16110D"/>
<path d="M154.456 159.676L171.896 149.514C172.207 149.334 172.525 149.315 172.779 149.462C173.071 149.629 173.237 149.995 173.237 150.457V160.562C173.237 161.344 172.773 162.23 172.175 162.576L154.736 172.739C154.564 172.842 154.392 172.886 154.227 172.886C154.094 172.886 153.967 172.854 153.852 172.784C153.56 172.617 153.395 172.251 153.395 171.789V161.684C153.395 160.902 153.858 160.016 154.456 159.67V159.676Z" fill="#FFBE2E"/>
<path d="M160.56 164.508L164.539 162.192C164.609 162.153 164.679 162.147 164.742 162.179C164.806 162.217 164.844 162.301 164.844 162.403V164.707C164.844 164.886 164.736 165.085 164.603 165.169L160.624 167.485C160.586 167.51 160.548 167.517 160.509 167.517C160.478 167.517 160.452 167.51 160.42 167.491C160.351 167.453 160.312 167.369 160.312 167.266V164.963C160.312 164.784 160.421 164.585 160.554 164.501L160.56 164.508Z" fill="#FFEECC"/>
<path d="M161.6 166.241C161.74 166.241 161.88 166.202 162.007 166.125L165.985 163.809C166.297 163.623 166.513 163.232 166.513 162.847V160.544C166.513 160.236 166.367 159.966 166.132 159.819C165.877 159.677 165.591 159.684 165.35 159.825L161.371 162.141C161.06 162.321 160.844 162.718 160.844 163.103V165.407C160.844 165.721 160.99 165.997 161.238 166.138L161.371 166.215L161.606 166.241H161.6ZM165.363 161.147V162.847L161.981 164.804V163.116L165.363 161.14V161.147Z" fill="#16110D"/>
<path d="M154.233 173.471C154.5 173.471 154.767 173.394 155.027 173.24L172.467 163.077C173.236 162.634 173.814 161.55 173.814 160.562V150.463C173.814 149.79 173.541 149.244 173.071 148.968C172.638 148.712 172.105 148.731 171.615 149.013L154.176 159.182C153.406 159.625 152.828 160.709 152.828 161.697V171.796C152.828 172.47 153.101 173.015 153.572 173.291C153.775 173.413 153.998 173.471 154.233 173.471ZM172.397 149.937C172.429 149.937 172.461 149.944 172.492 149.963C172.594 150.027 172.664 150.22 172.664 150.457V160.555C172.664 161.133 172.308 161.826 171.895 162.076L154.455 172.239C154.372 172.29 154.296 172.309 154.233 172.309C154.036 172.226 153.966 172.027 153.966 171.79V161.691C153.966 161.114 154.322 160.421 154.735 160.17L172.175 150.008C172.238 149.976 172.314 149.937 172.391 149.937H172.397Z" fill="#16110D"/>
<path d="M57.6191 80.3768C58.1498 80.0625 58.8321 80.1074 59.4955 80.4987L125.359 119.539C126.357 120.123 127.204 121.329 127.526 122.638L131.911 147.057L142.632 158.368C143.466 159.452 143.965 160.799 143.965 161.967L144.06 184.692L143.277 185.154L142.942 184.974L134.684 180.611C134.103 180.278 133.73 179.649 133.724 179.04L133.383 176.448C132.997 173.74 131.317 168.498 127.419 166.022C125.372 164.719 123.603 164.501 122.175 165.374C119.761 166.837 118.675 171.212 118.795 173.099V173.432C118.795 173.984 118.511 174.484 118.037 174.767C117.569 175.049 116.994 175.049 116.52 174.767L83.0864 155.025C82.6631 154.781 82.3914 154.339 82.3598 153.845L82.2398 152.022C82.2398 151.875 82.2398 151.747 82.2271 151.618C82.2145 151.458 82.2082 151.285 82.2082 151.067C82.2651 147.095 81.0204 139.589 75.9851 136.669C74.0013 135.521 72.3965 135.232 71.2088 135.816C69.0986 136.855 68.5616 140.448 68.3026 142.174C68.252 142.489 68.2141 142.745 68.1825 142.925C68.0751 143.438 67.7908 143.823 67.3802 144.009C66.9379 144.208 66.4072 144.157 65.8955 143.855L58.9332 139.775C57.7265 139.069 56.7852 137.407 56.7852 135.996V82.0706C56.7852 81.2943 57.0884 80.672 57.6191 80.364V80.3768Z" fill="#3C2C0B"/>
<path d="M149.953 113.406L162.06 106.38C162.41 106.175 162.829 106.156 163.198 106.329C163.566 106.502 163.821 106.836 163.897 107.24L166.185 119.866C166.344 120.745 165.937 121.631 165.174 122.08L153.499 128.926C153.283 129.054 153.048 129.118 152.813 129.118C152.622 129.118 152.431 129.08 152.247 128.996C151.84 128.81 151.554 128.451 151.472 128.008L149.025 115.452C148.866 114.644 149.235 113.823 149.946 113.406H149.953Z" fill="#FFEECC"/>
<path d="M152.82 129.695C153.157 129.695 153.494 129.599 153.793 129.426L165.461 122.58C166.434 122.009 166.949 120.873 166.745 119.757L164.457 107.131C164.349 106.54 163.974 106.053 163.434 105.803C162.894 105.552 162.284 105.578 161.769 105.88L149.661 112.911C148.74 113.45 148.257 114.515 148.467 115.567L150.913 128.123C151.041 128.752 151.441 129.265 152.019 129.522C152.273 129.637 152.54 129.702 152.82 129.702V129.695ZM162.684 106.784C162.779 106.784 162.875 106.803 162.964 106.848C163.167 106.945 163.3 107.118 163.339 107.342L165.627 119.969C165.741 120.604 165.449 121.258 164.889 121.586L153.214 128.431C152.985 128.566 152.725 128.579 152.49 128.47C152.248 128.361 152.089 128.155 152.038 127.892L149.591 115.336C149.477 114.765 149.738 114.194 150.233 113.899L162.341 106.874C162.449 106.816 162.563 106.784 162.678 106.784H162.684Z" fill="#16110D"/>
<path d="M132.021 123.953L144.128 116.927C144.478 116.722 144.897 116.703 145.266 116.876C145.634 117.049 145.889 117.383 145.965 117.787L148.253 130.413C148.412 131.292 148.005 132.184 147.242 132.627L135.567 139.472C135.351 139.601 135.116 139.665 134.881 139.665C134.69 139.665 134.499 139.626 134.321 139.543C133.915 139.357 133.629 138.998 133.546 138.555L131.099 125.999C130.94 125.191 131.309 124.37 132.021 123.953Z" fill="#FFEECC"/>
<path d="M134.888 140.244C135.225 140.244 135.562 140.154 135.86 139.974L147.536 133.128C148.502 132.557 149.023 131.422 148.819 130.305L146.531 117.673C146.423 117.076 146.048 116.595 145.508 116.345C144.968 116.094 144.358 116.12 143.843 116.422L131.736 123.447C130.814 123.986 130.331 125.051 130.541 126.103L132.988 138.659C133.108 139.288 133.509 139.794 134.094 140.057C134.348 140.173 134.615 140.237 134.888 140.237V140.244ZM144.752 117.333C144.847 117.333 144.943 117.352 145.032 117.397C145.235 117.493 145.368 117.666 145.413 117.884L147.701 130.517C147.815 131.152 147.523 131.807 146.964 132.134L135.295 138.98C135.066 139.114 134.805 139.127 134.57 139.018C134.329 138.909 134.17 138.704 134.119 138.447L131.672 125.891C131.558 125.327 131.818 124.749 132.314 124.461L144.421 117.435C144.523 117.371 144.637 117.339 144.752 117.339V117.333Z" fill="#16110D"/>
<path d="M124.981 144.907C125.299 144.907 125.591 144.811 125.839 144.618C126.424 144.169 126.621 143.297 126.36 142.283L123.227 125.666C122.909 124.415 122.07 123.241 121.085 122.663L118.861 121.271C118.295 120.944 117.717 120.905 117.272 121.162C116.827 121.425 116.566 121.945 116.566 122.586V137.176C116.566 138.915 117.736 140.955 119.223 141.821L123.945 144.586C124.301 144.792 124.651 144.894 124.981 144.894V144.907ZM122.108 125.948L125.242 142.546C125.401 143.181 125.299 143.585 125.146 143.707C125.026 143.797 124.791 143.765 124.517 143.605L119.795 140.839C118.664 140.179 117.71 138.51 117.71 137.189V122.599C117.71 122.355 117.774 122.208 117.838 122.176C117.907 122.137 118.06 122.156 118.27 122.272L120.494 123.664C121.212 124.081 121.873 125.018 122.115 125.942L122.108 125.948Z" fill="#FFBE2E"/>
<path d="M111.899 165.72C112.23 165.72 112.56 165.63 112.859 165.457C113.457 165.11 113.819 164.481 113.819 163.782V120.944C113.819 119.872 113.247 118.878 112.325 118.351L102.481 112.706C101.985 112.423 101.4 112.423 100.911 112.712C100.421 113.001 100.129 113.514 100.129 114.085V157.341C100.129 158.45 100.72 159.49 101.673 160.048L110.946 165.457C111.245 165.63 111.575 165.72 111.906 165.72H111.899ZM101.699 113.655C101.762 113.655 101.839 113.668 101.915 113.713L111.76 119.359C112.325 119.686 112.675 120.295 112.675 120.95V163.788C112.675 164.077 112.535 164.321 112.287 164.462C112.046 164.603 111.76 164.603 111.512 164.462L102.239 159.054C101.635 158.701 101.26 158.046 101.26 157.347V114.091C101.26 113.867 101.413 113.751 101.47 113.713C101.508 113.687 101.591 113.655 101.692 113.655H101.699Z" fill="#FFBE2E"/>
<path d="M110.456 145.997C110.627 145.997 110.799 145.953 110.945 145.863C111.301 145.657 111.505 145.234 111.505 144.708V143.117C111.505 142.315 111.034 141.429 110.418 141.07L106.35 138.703C105.982 138.484 105.581 138.472 105.257 138.658C104.901 138.863 104.691 139.286 104.691 139.813V141.404C104.691 142.206 105.162 143.091 105.778 143.444L109.846 145.811C110.043 145.927 110.253 145.985 110.45 145.985L110.456 145.997ZM105.848 139.748L109.852 142.077C110.087 142.219 110.367 142.7 110.367 143.123V144.714C110.367 144.83 110.342 144.887 110.335 144.9L106.357 142.456C106.121 142.315 105.842 141.834 105.842 141.41V139.819C105.842 139.819 105.842 139.768 105.842 139.748H105.848Z" fill="#FFBE2E"/>
<path d="M127.178 184.326C127.458 184.326 127.731 184.281 127.992 184.191C129.015 183.845 129.74 182.863 130.019 181.445C130.566 178.712 129.371 175.132 127.299 173.284C126.218 172.322 125.062 171.982 124.039 172.335C123.015 172.681 122.297 173.656 122.011 175.081C121.465 177.814 122.659 181.4 124.731 183.242C125.532 183.954 126.384 184.326 127.185 184.326H127.178Z" fill="black"/>
<path d="M72.8523 144.374C73.3735 144.374 73.9582 144.643 74.5492 145.17C76.3097 146.741 77.3711 149.911 76.9072 152.233C76.7038 153.241 76.2525 153.908 75.6361 154.12C75.0132 154.325 74.2569 154.075 73.4942 153.395C71.7337 151.823 70.6723 148.653 71.1363 146.331C71.3397 145.324 71.7909 144.656 72.4138 144.445C72.5536 144.4 72.7061 144.374 72.8587 144.374H72.8523Z" fill="black"/>
<g opacity="0.1">
<path d="M177.608 90.8038L221.867 65.083L165.541 32.5635L121.281 58.2843L177.608 90.8038Z" fill="black"/>
</g>
<path d="M159.775 38.0784L175.405 28.9956L175.384 36.6427L159.754 45.7254L159.775 38.0784Z" fill="#FFF7E4"/>
<path d="M159.752 45.9418C159.715 45.9418 159.678 45.9325 159.644 45.9124C159.577 45.8742 159.535 45.8019 159.535 45.7249L159.557 38.0785C159.557 38.0015 159.599 37.9305 159.664 37.8917L175.293 28.8089C175.361 28.7701 175.443 28.7701 175.511 28.8089C175.578 28.8478 175.619 28.9194 175.619 28.9971L175.598 36.6435C175.598 36.7205 175.557 36.7915 175.491 36.8303L159.861 45.9131C159.828 45.9325 159.79 45.9418 159.752 45.9418ZM159.991 38.2037L159.969 45.3486L175.165 36.5176L175.185 29.3727L159.991 38.2037Z" fill="#373B42"/>
<path d="M179.067 49.2157L179.046 56.8622L167.285 50.0729L167.307 42.4258L179.067 49.2157Z" fill="#FFF7E4"/>
<path d="M179.043 57.0788C179.006 57.0788 178.969 57.0694 178.935 57.0493L167.175 50.2594C167.108 50.2212 167.066 50.1489 167.066 50.0712L167.088 42.4248C167.088 42.3471 167.129 42.2761 167.196 42.2373C167.264 42.1991 167.345 42.1984 167.413 42.238L179.172 49.0279C179.239 49.0668 179.281 49.1384 179.281 49.2161L179.26 56.8625C179.26 56.9402 179.218 57.0112 179.151 57.05C179.118 57.0687 179.08 57.0788 179.043 57.0788ZM167.5 49.9473L178.827 56.4875L178.847 49.34L167.52 42.7998L167.5 49.9473Z" fill="#373B42"/>
<path d="M175.382 36.643L159.753 45.7258L201.617 69.8958L217.246 60.813L175.382 36.643ZM159.774 38.0787L168.792 32.8376L160.337 27.9561L144.707 37.0388L159.752 45.7251L159.774 38.0787Z" fill="#FFF7E4"/>
<path d="M201.618 70.1119C201.58 70.1119 201.543 70.1025 201.509 70.0824L144.601 37.2261C144.534 37.1879 144.492 37.1163 144.492 37.0393C144.492 36.9616 144.533 36.8906 144.599 36.8511L160.229 27.7684C160.297 27.7295 160.379 27.7295 160.447 27.7684L168.902 32.6499C168.969 32.6881 169.01 32.7597 169.01 32.8368C169.01 32.9144 168.97 32.9854 168.903 33.0249L159.993 38.2031L159.971 45.348L175.274 36.4547C175.342 36.4159 175.424 36.4159 175.492 36.4547L217.355 60.6254C217.422 60.6642 217.464 60.7352 217.464 60.8122C217.464 60.8899 217.423 60.9608 217.356 61.0004L201.727 70.0824C201.693 70.1025 201.655 70.1119 201.618 70.1119ZM160.187 45.725L201.618 69.6452L216.815 60.8135L175.384 36.8933L160.187 45.725ZM145.142 37.0386L159.539 45.3506L159.56 38.0779C159.56 38.0009 159.602 37.9299 159.667 37.8911L168.362 32.8381L160.339 28.2063L145.142 37.0386Z" fill="#373B42"/>
<path d="M148.012 31.2869L163.641 22.2041L175.404 28.9954L159.774 38.0782L148.012 31.2869Z" fill="#FFF7E4"/>
<path d="M159.773 38.2952C159.736 38.2952 159.699 38.2859 159.665 38.2658L147.901 31.4745C147.834 31.4363 147.793 31.3647 147.793 31.2877C147.793 31.21 147.834 31.139 147.901 31.1002L163.53 22.0174C163.598 21.9786 163.68 21.9786 163.748 22.0174L175.511 28.8087C175.578 28.8476 175.619 28.9185 175.619 28.9955C175.619 29.0732 175.578 29.1442 175.512 29.183L159.883 38.2658C159.848 38.2852 159.81 38.2952 159.773 38.2952ZM148.443 31.287L159.773 37.8285L174.97 28.9962L163.64 22.4553L148.443 31.287Z" fill="#373B42"/>
<path d="M159.776 38.0784L159.755 45.7255L147.992 38.9342L148.014 31.2871L159.776 38.0784Z" fill="#FFF7E4"/>
<path d="M159.754 45.9419C159.716 45.9419 159.679 45.9326 159.645 45.9125L147.882 39.1212C147.815 39.083 147.773 39.0107 147.773 38.933L147.796 31.2866C147.796 31.2089 147.837 31.1379 147.904 31.0991C147.972 31.0609 148.053 31.0603 148.12 31.0998L159.884 37.8911C159.95 37.9299 159.992 38.0016 159.992 38.0792L159.97 45.7257C159.97 45.8033 159.928 45.8743 159.861 45.9131C159.828 45.9326 159.791 45.9419 159.754 45.9419ZM148.207 38.8091L159.537 45.3513L159.559 38.2038L148.228 31.6616L148.207 38.8091Z" fill="#373B42"/>
<path d="M167.305 42.4255L182.934 33.3428L194.694 40.1327L179.065 49.2155L167.305 42.4255Z" fill="#FFF7E4"/>
<path d="M179.067 49.4316C179.029 49.4316 178.992 49.4222 178.958 49.4021L167.198 42.6122C167.131 42.574 167.09 42.5023 167.09 42.4253C167.09 42.3477 167.131 42.2767 167.197 42.2378L182.827 33.1551C182.894 33.1163 182.977 33.1163 183.044 33.1551L194.804 39.9444C194.871 39.9826 194.913 40.0542 194.913 40.1312C194.913 40.2089 194.872 40.2799 194.805 40.3187L179.176 49.4015C179.142 49.4222 179.104 49.4316 179.067 49.4316ZM167.739 42.4253L179.067 48.9655L194.264 40.1332L182.936 33.5937L167.739 42.4253Z" fill="#373B42"/>
<path d="M179.064 49.2156L194.694 40.1328L194.672 47.7792L179.043 56.862L179.064 49.2156Z" fill="#FFF7E4"/>
<path d="M179.041 57.0788C179.004 57.0788 178.967 57.0694 178.933 57.0493C178.866 57.0111 178.824 56.9388 178.824 56.8611L178.846 49.2147C178.846 49.1377 178.887 49.0667 178.953 49.0279L194.582 39.9451C194.65 39.9063 194.732 39.9063 194.8 39.9451C194.867 39.9833 194.909 40.0556 194.909 40.1333L194.887 47.7797C194.887 47.8567 194.846 47.9277 194.78 47.9665L179.15 57.0493C179.116 57.0687 179.078 57.0788 179.041 57.0788ZM179.279 49.3399L179.259 56.4848L194.455 47.6538L194.475 40.509L179.279 49.3399Z" fill="#373B42"/>
<path d="M201.619 69.8957L217.248 60.813L217.239 64.0044L201.609 73.0878L201.619 69.8957Z" fill="#978050"/>
<path d="M201.608 73.3036C201.57 73.3036 201.533 73.2942 201.499 73.2742C201.432 73.236 201.391 73.1637 201.391 73.086L201.399 69.8939C201.399 69.8169 201.441 69.7459 201.506 69.7071L217.136 60.6243C217.204 60.5855 217.286 60.5855 217.354 60.6243C217.421 60.6632 217.462 60.7348 217.462 60.8125L217.453 64.0039C217.453 64.0809 217.411 64.1519 217.345 64.1907L201.716 73.2735C201.683 73.2943 201.644 73.3036 201.608 73.3036ZM201.833 70.0198L201.825 72.7103L217.02 63.8794L217.029 61.1895L201.833 70.0198Z" fill="#373B42"/>
<path d="M201.617 69.8954L201.608 73.0875L144.699 40.2311L144.708 37.0391L201.617 69.8954Z" fill="#FFBE2E"/>
<path d="M201.61 73.3038C201.572 73.3038 201.535 73.2945 201.501 73.2744L144.593 40.4181C144.526 40.3799 144.484 40.3076 144.484 40.2299L144.493 37.0378C144.493 36.9601 144.535 36.8892 144.602 36.8503C144.669 36.8122 144.75 36.8121 144.818 36.851L201.726 69.7073C201.793 69.7455 201.835 69.8178 201.835 69.8948L201.826 73.0869C201.826 73.1646 201.785 73.2355 201.718 73.2744C201.684 73.2945 201.647 73.3038 201.61 73.3038ZM144.918 40.106L201.394 72.7126L201.402 70.0194L144.925 37.4128L144.918 40.106Z" fill="#373B42"/>
<path d="M198.354 60.3523L213.983 51.2695L213.962 58.9166L198.332 67.9994L198.354 60.3523Z" fill="#FFBE2E"/>
<path d="M198.334 68.2155C198.297 68.2155 198.26 68.2054 198.226 68.186C198.159 68.1478 198.117 68.0755 198.117 67.9978L198.139 60.3514C198.139 60.2744 198.18 60.2035 198.246 60.1646L213.875 51.0819C213.943 51.043 214.025 51.043 214.093 51.0819C214.16 51.1207 214.201 51.1924 214.201 51.27L214.179 58.9164C214.179 58.9934 214.138 59.0644 214.072 59.1033L198.443 68.186C198.409 68.2061 198.371 68.2155 198.334 68.2155ZM198.572 60.4773L198.552 67.6222L213.747 58.7912L213.768 51.6464L198.572 60.4773Z" fill="#373B42"/>
<path d="M186.594 53.5627L202.223 44.48L213.983 51.2693L198.354 60.352L186.594 53.5627Z" fill="#FFF7E4"/>
<path d="M198.352 60.569C198.314 60.569 198.278 60.5589 198.243 60.5395L186.483 53.7496C186.417 53.7114 186.375 53.6397 186.375 53.5627C186.375 53.4851 186.416 53.4141 186.482 53.3746L202.112 44.2918C202.179 44.253 202.262 44.253 202.329 44.2918L214.089 51.0811C214.156 51.12 214.198 51.1909 214.198 51.2679C214.198 51.3456 214.157 51.4166 214.091 51.4554L198.461 60.5382C198.428 60.5589 198.389 60.569 198.352 60.569ZM187.025 53.5621L198.352 60.1016L213.549 51.2693L202.222 44.7298L187.025 53.5621Z" fill="#373B42"/>
<path d="M198.356 60.3518L198.334 67.9989L186.574 61.2089L186.596 53.5625L198.356 60.3518Z" fill="#978050"/>
<path d="M198.332 68.2153C198.295 68.2153 198.258 68.2053 198.224 68.1859L186.464 61.3959C186.397 61.3577 186.355 61.2854 186.355 61.2084L186.377 53.562C186.377 53.4843 186.418 53.4133 186.485 53.3745C186.553 53.3363 186.634 53.3357 186.702 53.3752L198.462 60.1651C198.529 60.204 198.57 60.2756 198.57 60.3533L198.549 67.9997C198.549 68.0774 198.507 68.1484 198.44 68.1872C198.407 68.2059 198.369 68.2153 198.332 68.2153ZM186.789 61.0838L198.116 67.624L198.136 60.4765L186.809 53.9363L186.789 61.0838Z" fill="#373B42"/>
<path d="M201.65 59.0569L217.279 49.9741L217.27 53.1655L201.641 62.2483L201.65 59.0569Z" fill="#978050"/>
<path d="M201.639 62.4652C201.601 62.4652 201.564 62.4559 201.53 62.4358C201.463 62.3976 201.422 62.3253 201.422 62.2476L201.431 59.0555C201.431 58.9785 201.473 58.9075 201.538 58.8687L217.167 49.786C217.235 49.7471 217.317 49.7471 217.385 49.786C217.452 49.8241 217.493 49.8965 217.493 49.9741L217.485 53.1655C217.485 53.2425 217.443 53.3135 217.378 53.3524L201.748 62.4351C201.714 62.4559 201.676 62.4652 201.639 62.4652ZM201.865 59.1814L201.856 61.872L217.052 53.041L217.06 50.3511L201.865 59.1814Z" fill="#373B42"/>
<path d="M144.742 26.2009L160.372 17.1182L217.28 49.9745L201.651 59.0572L144.742 26.2009Z" fill="#FFF7E4"/>
<path d="M201.649 59.273C201.611 59.273 201.575 59.2637 201.54 59.2436L144.632 26.3873C144.565 26.3491 144.523 26.2774 144.523 26.2004C144.523 26.1228 144.564 26.0518 144.631 26.0123L160.26 16.9295C160.327 16.8907 160.41 16.8907 160.477 16.9295L217.386 49.7858C217.453 49.824 217.494 49.8957 217.494 49.9727C217.494 50.0503 217.453 50.1213 217.387 50.1608L201.758 59.2436C201.725 59.2637 201.686 59.273 201.649 59.273ZM145.173 26.1998L201.65 58.8056L216.846 49.974L160.369 17.3675L145.173 26.1998Z" fill="#373B42"/>
<path d="M201.648 59.057L201.639 62.2484L198.354 60.3521L186.594 53.5628L179.065 49.2156L167.305 42.4256L159.775 38.0784L148.012 31.2871L144.73 29.3928L144.739 26.2007L201.648 59.057Z" fill="#FFBE2E"/>
<path d="M201.641 62.4655C201.604 62.4655 201.567 62.4561 201.533 62.436L144.624 29.5797C144.557 29.5415 144.516 29.4692 144.516 29.3915L144.525 26.1994C144.525 26.1218 144.567 26.0508 144.633 26.0119C144.701 25.9738 144.782 25.9738 144.85 26.0126L201.758 58.8689C201.825 58.9078 201.867 58.9794 201.867 59.0571L201.857 62.2492C201.857 62.3262 201.816 62.3978 201.749 62.436C201.715 62.4561 201.679 62.4655 201.641 62.4655ZM144.949 29.2676L201.425 61.8742L201.434 59.181L144.958 26.5751L144.949 29.2676Z" fill="#373B42"/>
<path d="M137.143 51.2307L152.772 42.1479L152.751 49.795L137.121 58.8778L137.143 51.2307Z" fill="#373B42"/>
<path d="M137.119 59.0939C137.082 59.0939 137.045 59.0845 137.011 59.0644C136.944 59.0263 136.902 58.9539 136.902 58.8763L136.923 51.2299C136.923 51.1528 136.965 51.0819 137.031 51.043L152.661 41.9603C152.728 41.9214 152.811 41.9214 152.878 41.9603C152.945 41.9984 152.987 42.0708 152.987 42.1478L152.965 49.7942C152.965 49.8712 152.923 49.9422 152.857 49.981L137.228 59.0637C137.194 59.0845 137.156 59.0939 137.119 59.0939ZM137.357 51.3557L137.337 58.5006L152.532 49.6696L152.553 42.5248L137.357 51.3557Z" fill="#373B42"/>
<path d="M152.753 49.7947L137.123 58.8775L178.987 83.0475L194.617 73.9647L152.753 49.7947ZM137.145 51.2304L146.163 45.9899L137.708 41.1084L122.078 50.1911L137.123 58.8775L137.145 51.2304Z" fill="#FFF7E4"/>
<path d="M178.985 83.2638C178.947 83.2638 178.91 83.2544 178.876 83.2343L121.968 50.378C121.901 50.3391 121.859 50.2682 121.859 50.1912C121.859 50.1135 121.9 50.0425 121.967 50.003L137.596 40.9202C137.664 40.8814 137.746 40.8814 137.814 40.9202L146.269 45.8018C146.336 45.84 146.378 45.9116 146.378 45.9886C146.378 46.0663 146.337 46.1373 146.27 46.1768L137.359 51.355L137.339 58.4998L152.641 49.6066C152.709 49.5677 152.791 49.5677 152.859 49.6066L194.724 73.7766C194.791 73.8147 194.832 73.8864 194.832 73.9634C194.832 74.0411 194.791 74.112 194.725 74.1509L179.095 83.2336C179.06 83.2544 179.022 83.2638 178.985 83.2638ZM137.553 58.8768L178.985 82.797L194.182 73.9654L152.75 50.0452L137.553 58.8768ZM122.508 50.1905L136.905 58.5025L136.925 51.2297C136.925 51.1527 136.967 51.0818 137.033 51.0429L145.729 45.99L137.706 41.3582L122.508 50.1905Z" fill="#373B42"/>
<path d="M156.434 62.3676L156.412 70.014L144.652 63.2247L144.674 55.5776L156.434 62.3676Z" fill="#978050"/>
<path d="M156.411 70.2309C156.374 70.2309 156.337 70.2215 156.303 70.2014L144.542 63.4115C144.475 63.3726 144.434 63.301 144.434 63.2233L144.456 55.5769C144.456 55.4992 144.497 55.4282 144.564 55.3894C144.632 55.3512 144.713 55.3512 144.78 55.3901L156.54 62.18C156.607 62.2182 156.649 62.2905 156.649 62.3682L156.627 70.0146C156.627 70.0923 156.586 70.1632 156.519 70.2021C156.486 70.2208 156.449 70.2309 156.411 70.2309ZM144.868 63.0994L156.196 69.6396L156.216 62.4921L144.889 55.9519L144.868 63.0994Z" fill="#373B42"/>
<path d="M125.379 44.4397L141.009 35.3569L152.771 42.1482L137.142 51.231L125.379 44.4397Z" fill="#FFF7E4"/>
<path d="M137.14 51.4478C137.102 51.4478 137.065 51.4377 137.031 51.4183L125.269 44.627C125.202 44.5882 125.16 44.5172 125.16 44.4402C125.16 44.3625 125.201 44.2915 125.267 44.252L140.897 35.1693C140.965 35.1304 141.047 35.1304 141.115 35.1693L152.877 41.9606C152.944 41.9987 152.986 42.0704 152.986 42.1474C152.986 42.2251 152.945 42.296 152.878 42.3356L137.249 51.4183C137.215 51.4384 137.177 51.4478 137.14 51.4478ZM125.81 44.4395L137.14 50.981L152.337 42.1487L141.007 35.6079L125.81 44.4395Z" fill="#373B42"/>
<path d="M137.14 51.2308L137.118 58.8778L125.355 52.0865L125.377 44.4395L137.14 51.2308Z" fill="#978050"/>
<path d="M137.121 59.0942C137.083 59.0942 137.046 59.0848 137.012 59.0647L125.249 52.2734C125.182 52.2353 125.141 52.163 125.141 52.0853L125.163 44.4382C125.163 44.3605 125.204 44.2895 125.271 44.2507C125.339 44.2125 125.42 44.2125 125.487 44.2514L137.25 51.0427C137.317 51.0809 137.359 51.1532 137.359 51.2302L137.337 58.8766C137.337 58.9543 137.296 59.0252 137.229 59.0641C137.195 59.0848 137.158 59.0942 137.121 59.0942ZM125.574 51.9621L136.905 58.5036L136.925 51.3561L125.595 44.8139L125.574 51.9621Z" fill="#373B42"/>
<path d="M144.672 55.5779L160.302 46.4951L172.061 53.2851L156.432 62.3678L144.672 55.5779Z" fill="#FFF7E4"/>
<path d="M156.43 62.5846C156.392 62.5846 156.356 62.5752 156.321 62.5551L144.562 55.7652C144.495 55.7263 144.453 55.6554 144.453 55.5783C144.453 55.5007 144.494 55.4297 144.56 55.3902L160.19 46.3074C160.258 46.2686 160.34 46.2686 160.408 46.3074L172.167 53.0967C172.234 53.1349 172.276 53.2066 172.276 53.2836C172.276 53.3612 172.235 53.4322 172.169 53.4717L156.539 62.5545C156.505 62.5746 156.467 62.5846 156.43 62.5846ZM145.103 55.5777L156.43 62.1172L171.627 53.2849L160.3 46.7454L145.103 55.5777Z" fill="#373B42"/>
<path d="M156.432 62.3679L172.061 53.2852L172.04 60.9316L156.41 70.0143L156.432 62.3679Z" fill="#373B42"/>
<path d="M156.412 70.2311C156.375 70.2311 156.338 70.2217 156.304 70.2016C156.237 70.1628 156.195 70.0911 156.195 70.0135L156.217 62.367C156.217 62.29 156.258 62.2191 156.324 62.1802L171.954 53.0975C172.021 53.0586 172.104 53.0586 172.171 53.0975C172.238 53.1357 172.28 53.208 172.28 53.285L172.258 60.9321C172.258 61.0091 172.216 61.08 172.15 61.1189L156.521 70.2016C156.488 70.221 156.45 70.2311 156.412 70.2311ZM156.65 62.4923L156.63 69.6371L171.825 60.8068L171.846 53.6613L156.65 62.4923Z" fill="#373B42"/>
<path d="M178.981 83.0481L194.611 73.9653L194.602 77.1568L178.973 86.2402L178.981 83.0481Z" fill="#978050"/>
<path d="M178.975 86.4563C178.937 86.4563 178.9 86.4469 178.866 86.4268C178.799 86.3886 178.758 86.3163 178.758 86.2386L178.767 83.0472C178.767 82.9702 178.809 82.8992 178.874 82.8604L194.504 73.7777C194.572 73.7388 194.654 73.7388 194.722 73.7777C194.789 73.8158 194.83 73.8882 194.83 73.9658L194.821 77.1572C194.821 77.2342 194.779 77.3052 194.714 77.3441L179.084 86.4268C179.05 86.4469 179.012 86.4563 178.975 86.4563ZM179.2 83.1725L179.192 85.863L194.387 77.032L194.396 74.3422L179.2 83.1725Z" fill="#373B42"/>
<path d="M178.984 83.0477L178.976 86.2398L122.066 53.3835L122.076 50.1914L178.984 83.0477Z" fill="#FFBE2E"/>
<path d="M178.973 86.456C178.936 86.456 178.899 86.4466 178.865 86.4265L121.956 53.5702C121.889 53.5321 121.848 53.4597 121.848 53.3821L121.857 50.19C121.857 50.113 121.899 50.0413 121.966 50.0032C122.033 49.965 122.114 49.965 122.182 50.0038L179.09 82.8601C179.157 82.8983 179.199 82.9706 179.199 83.0483L179.189 86.2404C179.189 86.3181 179.148 86.389 179.081 86.4279C179.047 86.4466 179.011 86.456 178.973 86.456ZM122.281 53.2582L178.757 85.8647L178.766 83.1715L122.29 50.565L122.281 53.2582Z" fill="#373B42"/>
<path d="M175.721 73.5041L191.351 64.4214L191.329 72.0685L175.699 81.1512L175.721 73.5041Z" fill="#FFBE2E"/>
<path d="M175.697 81.3673C175.66 81.3673 175.623 81.3579 175.589 81.3379C175.522 81.299 175.48 81.2274 175.48 81.1497L175.503 73.5033C175.503 73.4263 175.544 73.3553 175.61 73.3165L191.24 64.2337C191.308 64.1949 191.39 64.1949 191.458 64.2337C191.525 64.2719 191.566 64.3442 191.566 64.4212L191.544 72.0683C191.544 72.1453 191.503 72.2163 191.437 72.2551L175.807 81.3379C175.772 81.3579 175.735 81.3673 175.697 81.3673ZM175.936 73.6292L175.914 80.774L191.11 71.9437L191.132 64.7982L175.936 73.6292Z" fill="#373B42"/>
<path d="M163.961 66.7146L179.59 57.6318L191.35 64.4211L175.721 73.5039L163.961 66.7146Z" fill="#FFF7E4"/>
<path d="M175.719 73.7212C175.682 73.7212 175.645 73.7118 175.611 73.6917L163.851 66.9017C163.784 66.8629 163.742 66.7919 163.742 66.7149C163.742 66.6372 163.783 66.5662 163.849 66.5274L179.479 57.4447C179.547 57.4058 179.629 57.4058 179.697 57.4447L191.456 64.234C191.523 64.2721 191.565 64.3438 191.565 64.4208C191.565 64.4984 191.524 64.5694 191.458 64.6089L175.828 73.6917C175.794 73.7118 175.756 73.7212 175.719 73.7212ZM164.391 66.7142L175.718 73.2538L190.915 64.4214L179.588 57.8819L164.391 66.7142Z" fill="#373B42"/>
<path d="M175.719 73.5041L175.697 81.1512L163.938 74.3612L163.96 66.7148L175.719 73.5041Z" fill="#978050"/>
<path d="M175.699 81.3676C175.662 81.3676 175.625 81.3582 175.591 81.3381L163.831 74.5488C163.764 74.5107 163.723 74.4383 163.723 74.3607L163.745 66.7136C163.745 66.6359 163.786 66.5649 163.853 66.5261C163.921 66.4879 164.002 66.4879 164.07 66.5268L175.829 73.3167C175.896 73.3549 175.938 73.4272 175.938 73.5049L175.916 81.1513C175.916 81.229 175.874 81.3 175.807 81.3388C175.774 81.3582 175.737 81.3676 175.699 81.3676ZM164.156 74.2368L175.483 80.7763L175.504 73.6288L164.177 67.0886L164.156 74.2368Z" fill="#373B42"/>
<path d="M179.013 72.2092L194.643 63.1265L194.634 66.3185L179.004 75.4013L179.013 72.2092Z" fill="#978050"/>
<path d="M179.006 75.6174C178.969 75.6174 178.932 75.608 178.898 75.5879C178.831 75.5498 178.789 75.4775 178.789 75.4005L178.798 72.2084C178.798 72.1314 178.839 72.0604 178.905 72.0216L194.535 62.9388C194.602 62.9 194.685 62.9 194.752 62.9388C194.819 62.977 194.861 63.0493 194.861 63.1263L194.851 66.3184C194.851 66.3954 194.81 66.4664 194.744 66.5052L179.115 75.5879C179.081 75.608 179.043 75.6174 179.006 75.6174ZM179.231 72.3336L179.224 75.0241L194.419 66.1938L194.427 63.5033L179.231 72.3336Z" fill="#373B42"/>
<path d="M122.105 39.3528L137.734 30.27L194.644 63.1263L179.014 72.2091L122.105 39.3528Z" fill="#FFF7E4"/>
<path d="M179.012 72.4252C178.975 72.4252 178.938 72.4152 178.904 72.3957L121.995 39.5394C121.928 39.5006 121.887 39.4296 121.887 39.3526C121.887 39.2749 121.928 39.2039 121.995 39.1651L137.624 30.0824C137.692 30.0435 137.774 30.0435 137.842 30.0824L194.75 62.9387C194.817 62.9768 194.859 63.0485 194.859 63.1255C194.859 63.2032 194.818 63.2741 194.752 63.3137L179.122 72.3964C179.088 72.4152 179.05 72.4252 179.012 72.4252ZM122.536 39.3519L179.013 71.9578L194.21 63.1262L137.733 30.5203L122.536 39.3519Z" fill="#373B42"/>
<path d="M179.015 72.2093L179.006 75.4014L175.722 73.5044L163.962 66.7151L156.432 62.3679L144.672 55.578L137.143 51.2308L125.379 44.4395L122.098 42.5451L122.107 39.353L179.015 72.2093Z" fill="#FFBE2E"/>
<path d="M179.004 75.6173C178.967 75.6173 178.93 75.6079 178.896 75.5879L121.987 42.7315C121.92 42.6927 121.879 42.6211 121.879 42.5434L121.888 39.3513C121.888 39.2736 121.929 39.2026 121.996 39.1638C122.064 39.1256 122.145 39.1256 122.212 39.1645L179.121 72.0208C179.188 72.059 179.229 72.1313 179.229 72.209L179.221 75.401C179.221 75.4787 179.179 75.5497 179.112 75.5885C179.079 75.6079 179.041 75.6173 179.004 75.6173ZM122.312 42.4195L178.789 75.0261L178.796 72.3328L122.32 39.7263L122.312 42.4195Z" fill="#373B42"/>
<path d="M134.336 37.6681L156.003 25.0765L156.073 0.216797L134.406 12.8084L134.336 37.6681Z" fill="white"/>
<path d="M134.338 37.8848C134.301 37.8848 134.264 37.8748 134.23 37.8554C134.163 37.8172 134.121 37.7449 134.121 37.6672L134.192 12.8075C134.192 12.7305 134.234 12.6595 134.299 12.6207L155.966 0.0291285C156.034 -0.00970951 156.116 -0.00970951 156.184 0.0291285C156.251 0.0679666 156.292 0.139615 156.292 0.217291L156.222 25.077C156.222 25.154 156.18 25.225 156.115 25.2638L134.447 37.856C134.414 37.8748 134.376 37.8848 134.338 37.8848ZM134.626 12.9327L134.556 37.2909L155.789 24.9511L155.859 0.593621L134.626 12.9327Z" fill="#373B42"/>
<g opacity="0.1">
<path d="M156.175 53.8831L178.012 41.1931L156.212 28.6069L134.375 41.2969L156.175 53.8831Z" fill="black"/>
</g>
<g opacity="0.1">
<path d="M178.007 66.5213L199.845 53.8313L178.045 41.2451L156.207 53.9351L178.007 66.5213Z" fill="black"/>
</g>
<path d="M156.138 50.2543L177.806 37.6628L156.175 25.1743L134.508 37.7659L156.138 50.2543Z" fill="white"/>
<path d="M156.137 50.4704C156.099 50.4704 156.062 50.4611 156.028 50.441L134.398 37.9525C134.331 37.9144 134.289 37.8427 134.289 37.7657C134.289 37.688 134.33 37.617 134.397 37.5782L156.064 24.9866C156.131 24.9478 156.214 24.9478 156.281 24.9866L177.912 37.4751C177.979 37.5139 178.021 37.5849 178.021 37.6619C178.021 37.7396 177.98 37.8106 177.914 37.8501L156.247 50.4416C156.212 50.4611 156.174 50.4704 156.137 50.4704ZM134.939 37.7657L156.137 50.0037L177.371 37.6632L156.173 25.4252L134.939 37.7657Z" fill="#373B42"/>
<path d="M156.137 50.2545L177.804 37.6629L177.875 12.8032L156.207 25.3948L156.137 50.2545Z" fill="white"/>
<path d="M156.139 50.4705C156.101 50.4705 156.065 50.4611 156.03 50.441C155.963 50.4022 155.922 50.3305 155.922 50.2528L155.992 25.3931C155.992 25.3161 156.034 25.2452 156.099 25.2063L177.766 12.6141C177.834 12.5753 177.916 12.5753 177.984 12.6141C178.051 12.6529 178.092 12.7246 178.092 12.8023L178.022 37.662C178.022 37.739 177.981 37.8099 177.915 37.8488L156.248 50.4403C156.214 50.4611 156.176 50.4705 156.139 50.4705ZM156.425 25.5197L156.356 49.8779L177.589 37.5381L177.658 13.1799L156.425 25.5197Z" fill="#373B42"/>
<path d="M156.208 25.3945L177.876 12.8029L156.246 0.314453L134.578 12.906L156.208 25.3945Z" fill="#FFF7E4"/>
<path d="M156.207 25.6115C156.17 25.6115 156.133 25.6015 156.099 25.5821L134.468 13.0936C134.401 13.0555 134.359 12.9838 134.359 12.9068C134.359 12.8291 134.4 12.7582 134.467 12.7193L156.134 0.127761C156.202 0.0889233 156.284 0.0889233 156.352 0.127761L177.981 12.6155C178.048 12.6544 178.09 12.7254 178.09 12.8024C178.09 12.88 178.049 12.951 177.983 12.9899L156.316 25.5821C156.282 25.6015 156.244 25.6115 156.207 25.6115ZM135.009 12.9061L156.207 25.1448L177.441 12.8037L156.244 0.565693L135.009 12.9061Z" fill="#373B42"/>
<path d="M142.84 17.6807L147.879 20.5882L169.548 7.99734L164.508 5.08984L142.84 17.6807Z" fill="#212121"/>
<path d="M147.881 20.8053C147.843 20.8053 147.807 20.7953 147.772 20.7759L142.733 17.8684C142.667 17.8295 142.625 17.7585 142.625 17.6815C142.625 17.6039 142.666 17.5329 142.732 17.494L164.401 4.90315C164.469 4.86431 164.551 4.86431 164.619 4.90315L169.658 7.81065C169.725 7.84949 169.766 7.92047 169.766 7.99747C169.766 8.07515 169.725 8.14613 169.659 8.18497L147.99 20.7759C147.957 20.7953 147.918 20.8053 147.881 20.8053ZM143.275 17.6802L147.881 20.3386L169.117 7.99948L164.51 5.34108L143.275 17.6802Z" fill="#373B42"/>
<path d="M134.508 37.7679L156.141 50.2557L156.211 25.396L147.882 20.5888L142.843 17.6813L134.577 12.9082L134.508 37.7679Z" fill="#FFBE2E"/>
<path d="M156.139 50.4718C156.101 50.4718 156.064 50.4618 156.03 50.4423L134.398 37.9546C134.331 37.9157 134.289 37.8441 134.289 37.7664L134.359 12.9067C134.359 12.829 134.4 12.7581 134.467 12.7192C134.535 12.6811 134.616 12.6804 134.683 12.7199L156.316 25.2077C156.383 25.2458 156.425 25.3182 156.425 25.3958L156.355 50.2555C156.355 50.3332 156.314 50.4042 156.247 50.443C156.214 50.4624 156.176 50.4718 156.139 50.4718ZM134.722 37.6432L155.923 49.8812L155.991 25.521L134.791 13.283L134.722 37.6432Z" fill="#373B42"/>
<path d="M147.873 20.5659V27.1891L145.358 23.083L142.844 24.3044V17.6812L147.873 20.5659Z" fill="#212121"/>
<path d="M147.871 27.4055C147.797 27.4055 147.726 27.3673 147.687 27.3017L145.275 23.363L142.936 24.4987C142.868 24.5301 142.791 24.5268 142.727 24.4873C142.663 24.4478 142.625 24.3781 142.625 24.3038L142.626 17.6806C142.626 17.6029 142.667 17.5319 142.734 17.4931C142.8 17.4542 142.884 17.4542 142.95 17.4924L147.979 20.3778C148.046 20.4166 148.088 20.4883 148.088 20.566V27.1885C148.088 27.2856 148.023 27.3707 147.93 27.3975C147.91 27.4035 147.89 27.4055 147.871 27.4055ZM145.356 22.8661C145.429 22.8661 145.5 22.9036 145.541 22.9699L147.654 26.4205V20.6919L143.058 18.0549L143.058 23.9583L145.261 22.8882C145.292 22.8735 145.324 22.8661 145.356 22.8661Z" fill="#373B42"/>
<path d="M177.935 62.8403L199.602 50.2487L177.972 37.7603L156.305 50.3518L177.935 62.8403Z" fill="white"/>
<path d="M177.938 63.0567C177.9 63.0567 177.863 63.0466 177.829 63.0272L156.198 50.5394C156.131 50.5013 156.09 50.4296 156.09 50.3526C156.09 50.2749 156.131 50.204 156.197 50.1651L177.865 37.5736C177.932 37.5347 178.015 37.5347 178.082 37.5736L199.712 50.0613C199.779 50.0995 199.82 50.1711 199.82 50.2482C199.82 50.3258 199.779 50.3968 199.712 50.4363L178.045 63.0279C178.013 63.0473 177.975 63.0567 177.938 63.0567ZM156.739 50.3519L177.938 62.5899L199.172 50.2495L177.974 38.0115L156.739 50.3519Z" fill="#373B42"/>
<path d="M177.938 62.8404L199.604 50.2489L199.675 25.3892L178.008 37.9807L177.938 62.8404Z" fill="#212121"/>
<path d="M177.94 63.0567C177.902 63.0567 177.865 63.0467 177.831 63.0272C177.764 62.9891 177.723 62.9168 177.723 62.8391L177.793 37.9794C177.793 37.9024 177.834 37.8314 177.9 37.7926L199.567 25.201C199.635 25.1622 199.717 25.1622 199.785 25.201C199.852 25.2398 199.893 25.3115 199.893 25.3892L199.823 50.2489C199.823 50.3259 199.781 50.3968 199.715 50.4357L178.048 63.0272C178.015 63.0473 177.977 63.0567 177.94 63.0567ZM178.227 38.1053L178.157 62.4634L199.39 50.1236L199.46 25.7662L178.227 38.1053Z" fill="#373B42"/>
<path d="M178.005 37.9809L199.673 25.3893L178.043 12.9009L156.375 25.4924L178.005 37.9809Z" fill="#FFF7E4"/>
<path d="M178.007 38.1972C177.969 38.1972 177.932 38.1871 177.898 38.1677L156.269 25.6793C156.202 25.6411 156.16 25.5695 156.16 25.4924C156.16 25.4148 156.201 25.3438 156.267 25.3043L177.934 12.7127C178.002 12.6739 178.084 12.6739 178.152 12.7127L199.781 25.2012C199.848 25.24 199.89 25.311 199.89 25.388C199.89 25.4657 199.849 25.5366 199.783 25.5762L178.116 38.1677C178.082 38.1878 178.044 38.1972 178.007 38.1972ZM156.809 25.4924L178.007 37.7304L199.241 25.39L178.043 13.1513L156.809 25.4924Z" fill="#373B42"/>
<path d="M164.641 30.2672L169.68 33.1747L191.348 20.5838L186.309 17.6763L164.641 30.2672Z" fill="#212121"/>
<path d="M169.678 33.3908C169.64 33.3908 169.603 33.3814 169.569 33.3613L164.53 30.4538C164.463 30.4156 164.422 30.344 164.422 30.267C164.422 30.1893 164.463 30.1183 164.529 30.0795L186.198 17.4886C186.266 17.4498 186.348 17.4498 186.416 17.4886L191.454 20.3961C191.521 20.4343 191.563 20.5059 191.563 20.5829C191.563 20.6606 191.522 20.7316 191.456 20.7711L169.787 33.362C169.753 33.3814 169.715 33.3908 169.678 33.3908ZM165.071 30.2663L169.677 32.924L190.913 20.5849L186.306 17.9272L165.071 30.2663Z" fill="#373B42"/>
<path d="M156.305 50.3542L177.937 62.8419L178.007 37.9822L169.678 33.175L164.639 30.2675L156.374 25.4951L156.305 50.3542Z" fill="#FFBE2E"/>
<path d="M177.94 63.0582C177.902 63.0582 177.865 63.0482 177.831 63.0288L156.198 50.541C156.131 50.5028 156.09 50.4305 156.09 50.3528L156.159 25.4931C156.159 25.4155 156.201 25.3445 156.268 25.3056C156.336 25.2675 156.417 25.2668 156.484 25.3063L178.117 37.7941C178.184 37.8323 178.226 37.9046 178.226 37.9823L178.156 62.8419C178.156 62.9196 178.114 62.9906 178.047 63.0294C178.014 63.0482 177.976 63.0582 177.94 63.0582ZM156.523 50.2296L177.724 62.4676L177.792 38.1075L156.591 25.8695L156.523 50.2296Z" fill="#373B42"/>
<path d="M169.671 33.1523L169.67 39.7755L167.156 35.6694L164.641 36.8901L164.641 30.2676L169.671 33.1523Z" fill="#212121"/>
<path d="M169.672 39.9917C169.598 39.9917 169.527 39.9536 169.487 39.8879L167.075 35.9492L164.737 37.0849C164.668 37.1164 164.592 37.113 164.528 37.0735C164.464 37.034 164.426 36.9644 164.426 36.89L164.426 30.2675C164.426 30.1898 164.468 30.1188 164.535 30.08C164.601 30.0412 164.685 30.0412 164.751 30.0793L169.78 32.9641C169.848 33.0029 169.889 33.0745 169.889 33.1522L169.889 39.7748C169.889 39.8719 169.824 39.9569 169.731 39.983C169.71 39.9897 169.691 39.9917 169.672 39.9917ZM167.157 35.4524C167.23 35.4524 167.301 35.4899 167.341 35.5562L169.455 39.0074L169.455 33.2788L164.859 30.6418L164.858 36.5445L167.062 35.4745C167.093 35.4597 167.125 35.4524 167.157 35.4524Z" fill="#373B42"/>
<path d="M168.904 47.3351C168.971 47.374 169.038 47.443 169.089 47.534L170.909 50.8667C171.055 51.1326 170.942 51.3649 170.726 51.2404L169.945 50.7897L169.926 56.0181C169.925 56.1353 169.841 56.1835 169.739 56.1246L168.015 55.1289C167.91 55.0686 167.829 54.9253 167.829 54.8081L167.849 49.5797L167.068 49.1291C166.852 49.0045 166.741 48.6436 166.886 48.5452L168.721 47.3231C168.771 47.2889 168.838 47.2963 168.904 47.3351Z" fill="#373B42"/>
<path d="M174.257 50.4244C174.323 50.4626 174.389 50.5315 174.438 50.6213L176.261 53.9553C176.407 54.2212 176.292 54.4522 176.076 54.3276L175.295 53.877L175.276 59.1054C175.275 59.2226 175.194 59.2721 175.089 59.2119L173.365 58.2161C173.262 58.1572 173.179 58.0126 173.179 57.8954L173.199 52.667L172.418 52.2163C172.202 52.0918 172.091 51.7308 172.24 51.6351L174.073 50.4117C174.123 50.3782 174.19 50.3862 174.257 50.4244Z" fill="#373B42"/>
<path d="M146.732 34.1989C146.799 34.2371 146.866 34.3067 146.917 34.3978L148.737 37.7305C148.883 37.9963 148.77 38.2287 148.554 38.1042L147.773 37.6535L147.754 42.8819C147.753 42.9991 147.67 43.0473 147.567 42.9884L145.843 41.9926C145.738 41.9324 145.657 41.7891 145.657 41.6719L145.677 36.4435L144.896 35.9928C144.68 35.8683 144.569 35.5074 144.714 35.4089L146.549 34.1869C146.599 34.1527 146.665 34.1601 146.732 34.1989Z" fill="#373B42"/>
<path d="M152.081 37.2882C152.147 37.3263 152.213 37.3953 152.262 37.485L154.085 40.8191C154.231 41.0849 154.117 41.3159 153.9 41.1907L153.119 40.7401L153.1 45.9685C153.1 46.0856 153.018 46.1352 152.913 46.0749L151.189 45.0792C151.087 45.0203 151.003 44.8756 151.003 44.7578L151.023 39.5294L150.242 39.0787C150.026 38.9542 149.915 38.5932 150.065 38.4975L151.897 37.2741C151.948 37.242 152.015 37.2493 152.081 37.2882Z" fill="#373B42"/>
</svg>
