<svg width="40" height="40" viewBox="0 0 40 40" fill="none" xmlns="http://www.w3.org/2000/svg">
<circle cx="18" cy="25" r="15" fill="#FFBE2E"/>
<path d="M25.8333 12.5H14.1667C13.25 12.5 12.5 13.25 12.5 14.1667V25.8333C12.5 26.75 13.25 27.5 14.1667 27.5H25.8333C26.75 27.5 27.5 26.75 27.5 25.8333V14.1667C27.5 13.25 26.75 12.5 25.8333 12.5ZM18.3333 14.1667H21.6667V15.9417L20.4583 15.1417C20.175 14.9583 19.8167 14.9583 19.5333 15.1417L18.3333 15.9417V14.1667ZM14.1667 25.8333V14.1667H16.6667V17.5C16.6667 17.8083 16.8333 18.0917 17.1083 18.2333C17.375 18.375 17.7083 18.3583 17.9667 18.1917L20 16.8333L22.0417 18.1917C22.175 18.2833 22.3417 18.3333 22.5 18.3333C22.6333 18.3333 22.7667 18.3 22.8917 18.2333C23.1667 18.0917 23.3333 17.8083 23.3333 17.5V14.1667H25.8333V25.8333H14.1667Z" fill="black"/>
<path d="M36.6667 19.1667H35.7917C35.3667 11.1 28.9 4.63333 20.8333 4.20833V3.33333C20.8333 2.875 20.4583 2.5 20 2.5C19.5417 2.5 19.1667 2.875 19.1667 3.33333V4.20833C11.1 4.63333 4.63333 11.1 4.20833 19.1667H3.33333C2.875 19.1667 2.5 19.5417 2.5 20C2.5 20.4583 2.875 20.8333 3.33333 20.8333H4.20833C4.63333 28.9 11.1 35.3667 19.1667 35.7917V36.6667C19.1667 37.125 19.5417 37.5 20 37.5C20.4583 37.5 20.8333 37.125 20.8333 36.6667V35.7917C28.9 35.3667 35.3667 28.9 35.7917 20.8333H36.6667C37.125 20.8333 37.5 20.4583 37.5 20C37.5 19.5417 37.125 19.1667 36.6667 19.1667ZM33.3333 20.8333H34.125C33.7083 27.9833 27.9833 33.7083 20.8333 34.125V33.3333C20.8333 32.875 20.4583 32.5 20 32.5C19.5417 32.5 19.1667 32.875 19.1667 33.3333V34.125C12.0167 33.7083 6.29167 27.9833 5.875 20.8333H6.66667C7.125 20.8333 7.5 20.4583 7.5 20C7.5 19.5417 7.125 19.1667 6.66667 19.1667H5.875C6.29167 12.0167 12.0167 6.29167 19.1667 5.875V6.66667C19.1667 7.125 19.5417 7.5 20 7.5C20.4583 7.5 20.8333 7.125 20.8333 6.66667V5.875C27.9833 6.29167 33.7083 12.0167 34.125 19.1667H33.3333C32.875 19.1667 32.5 19.5417 32.5 20C32.5 20.4583 32.875 20.8333 33.3333 20.8333Z" fill="black"/>
</svg>
