<svg width="55" height="54" viewBox="0 0 55 54" fill="none" xmlns="http://www.w3.org/2000/svg">
<circle cx="25.3388" cy="28.4726" r="25.3388" fill="#FFBE2E"/>
<path fill-rule="evenodd" clip-rule="evenodd" d="M14.1252 30.7922C14.5451 31.2124 14.2408 31.9258 13.6557 31.9258C13.4856 31.9258 13.3158 31.8609 13.1859 31.731C6.4864 25.0313 6.4938 14.1787 13.1859 7.49859C13.4454 7.24005 13.8659 7.24005 14.1252 7.49859C14.3846 7.75825 14.3846 8.17837 14.1252 8.43802C7.96238 14.6014 7.96238 24.6294 14.1252 30.7922ZM46.7197 19.5942C46.725 22.7528 45.5026 25.7262 43.2781 27.9666C42.6375 28.6241 41.6684 27.7173 42.3361 27.0306C46.4099 22.9275 46.3979 16.2606 42.3083 12.1715C42.0488 11.9118 42.0488 11.4916 42.3083 11.2321C42.5677 10.9725 42.9882 10.9725 43.2475 11.2321C45.4813 13.4661 46.7145 16.4356 46.7197 19.5942ZM51.9986 19.5953C51.9935 15.0262 50.2114 10.73 46.9803 7.49869C46.721 7.24015 46.3005 7.24015 46.041 7.49869C45.7818 7.75835 45.7818 8.17847 46.041 8.43812C52.1887 14.5863 52.2012 24.6009 46.0683 30.7636C45.7791 31.0576 45.774 31.4643 46.0425 31.7317C46.3042 31.9922 46.7257 31.9886 46.9809 31.7311C50.2242 28.4601 52.0039 24.2045 51.9986 19.5953ZM17.8579 12.1714C18.1174 11.9117 18.1174 11.4915 17.8579 11.232C17.5987 10.9724 17.1782 10.9724 16.9187 11.232C12.282 15.8703 12.2897 23.3799 16.9187 27.9985C17.0485 28.1277 17.2184 28.1926 17.3884 28.1926C17.9754 28.1926 18.2769 27.4782 17.8579 27.0589C13.7447 22.9445 13.7429 16.2857 17.8579 12.1714ZM30.7471 37.961C30.7471 38.907 29.4189 38.9067 29.4189 37.961C29.4189 37.5934 29.7164 37.2968 30.0832 37.2968C30.4499 37.2968 30.7471 37.5934 30.7471 37.961ZM30.7471 30.2757V35.0072C30.7471 35.3743 30.4499 35.6713 30.0831 35.6713C29.7163 35.6713 29.4188 35.3743 29.4188 35.0072V30.2757C29.4188 29.9093 29.7163 29.6121 30.0831 29.6121C30.4499 29.6122 30.7471 29.9093 30.7471 30.2757ZM35.1793 23.9485C34.9404 24.2283 34.5232 24.2617 34.2431 24.0235L29.6529 20.1213C29.5046 19.9948 29.4189 19.8096 29.4189 19.6149V12.3533C29.4189 11.9862 29.7164 11.6885 30.0832 11.6885C30.45 11.6885 30.7473 11.9862 30.7473 12.3533V19.3083L35.1035 23.0113C35.383 23.2496 35.4168 23.6688 35.1793 23.9485ZM33.5564 28.953C37.4583 27.5078 40.0447 23.821 40.0447 19.6149C40.0447 14.122 35.5761 9.65293 30.0832 9.65293C24.5903 9.65293 20.1215 14.122 20.1215 19.6149C20.1215 23.821 22.708 27.5078 26.61 28.953L28.4077 25.8398C29.153 24.5487 31.0133 24.5487 31.7588 25.8398L33.5564 28.953ZM38.0882 40.066C38.2027 39.8674 38.2027 39.6576 38.0882 39.4595L30.6084 26.5039C30.3729 26.0958 29.7934 26.0958 29.5579 26.5039L22.078 39.4595C21.8422 39.8671 22.132 40.3688 22.6032 40.3688H37.5629C37.7921 40.3687 37.9736 40.2641 38.0882 40.066ZM39.1336 26.3646C40.5985 24.4034 41.3729 22.069 41.3729 19.6149C41.3729 13.3901 36.3083 8.32463 30.0831 8.32463C23.8578 8.32463 18.7933 13.3901 18.7933 19.6149C18.7933 24.2733 21.6381 28.4129 25.9377 30.1174L20.9277 38.7953C20.1826 40.0856 21.1136 41.6971 22.6032 41.6971H37.5629C39.0526 41.6971 39.9836 40.0856 39.2383 38.7953L34.2285 30.1174C36.1619 29.3508 37.8825 28.0404 39.1336 26.3646Z" fill="black"/>
</svg>
