<svg width="55" height="54" viewBox="0 0 55 54" fill="none" xmlns="http://www.w3.org/2000/svg">
<circle cx="25.3388" cy="28.4726" r="25.3388" fill="#FFBE2E"/>
<path d="M42.2116 25.5H18.9525C18.7216 25.5 18.5002 25.408 18.337 25.2442C18.1737 25.0804 18.082 24.8583 18.082 24.6267V2.37328C18.082 2.14167 18.1737 1.91955 18.337 1.75578C18.5002 1.59201 18.7216 1.5 18.9525 1.5H42.2116C42.4424 1.5 42.6638 1.59201 42.8271 1.75578C42.9903 1.91955 43.082 2.14167 43.082 2.37328V24.6267C43.082 24.8583 42.9903 25.0804 42.8271 25.2442C42.6638 25.408 42.4424 25.5 42.2116 25.5ZM19.823 23.7534H41.3411V3.24657H19.823V23.7534Z" fill="black"/>
<path d="M33.2172 10.4989C33.1286 10.499 33.0406 10.4846 32.9561 10.4561L30.082 9.48289L27.2101 10.4561C27.0804 10.5005 26.9427 10.5114 26.8082 10.488C26.6738 10.4647 26.5464 10.4077 26.4364 10.3216C26.3265 10.2356 26.2371 10.1231 26.1755 9.99308C26.1139 9.8631 26.0819 9.71939 26.082 9.57367V2.42522C26.082 2.17983 26.1732 1.9445 26.3353 1.77099C26.4975 1.59748 26.7175 1.5 26.9469 1.5C27.1763 1.5 27.3963 1.59748 27.5584 1.77099C27.7206 1.9445 27.8118 2.17983 27.8118 2.42522V8.31017L29.821 7.62956C29.9908 7.57174 30.1733 7.57174 30.3431 7.62956L32.3523 8.31017V2.42522C32.3523 2.17983 32.4434 1.9445 32.6056 1.77099C32.7678 1.59748 32.9878 1.5 33.2172 1.5C33.4465 1.5 33.6665 1.59748 33.8287 1.77099C33.9909 1.9445 34.082 2.17983 34.082 2.42522V9.57367C34.082 9.81906 33.9909 10.0544 33.8287 10.2279C33.6665 10.4014 33.4465 10.4989 33.2172 10.4989Z" fill="black"/>
<path d="M37.2069 15.5H23.9572C23.7251 15.5 23.5025 15.3946 23.3384 15.2071C23.1742 15.0196 23.082 14.7652 23.082 14.5C23.082 14.2348 23.1742 13.9804 23.3384 13.7929C23.5025 13.6054 23.7251 13.5 23.9572 13.5H37.2069C37.439 13.5 37.6616 13.6054 37.8257 13.7929C37.9898 13.9804 38.082 14.2348 38.082 14.5C38.082 14.7652 37.9898 15.0196 37.8257 15.2071C37.6616 15.3946 37.439 15.5 37.2069 15.5Z" fill="black"/>
<path d="M37.2069 20.5H23.9572C23.7251 20.5 23.5025 20.3946 23.3384 20.2071C23.1742 20.0196 23.082 19.7652 23.082 19.5C23.082 19.2348 23.1742 18.9804 23.3384 18.7929C23.5025 18.6054 23.7251 18.5 23.9572 18.5H37.2069C37.439 18.5 37.6616 18.6054 37.8257 18.7929C37.9898 18.9804 38.082 19.2348 38.082 19.5C38.082 19.7652 37.9898 20.0196 37.8257 20.2071C37.6616 20.3946 37.439 20.5 37.2069 20.5Z" fill="black"/>
<path d="M40.6369 43.4989C40.5892 43.499 40.5416 43.4948 40.4946 43.4866L32.8026 42.1507C32.6023 42.1159 32.4202 42.0089 32.2885 41.8484C32.1568 41.6879 32.0839 41.4843 32.0826 41.2735C32.0487 36.9599 33.5303 32.7813 36.2501 29.5197L37.149 28.4411C37.5876 27.92 38.2055 27.5982 38.8702 27.5447C39.5348 27.4913 40.1932 27.7106 40.7038 28.1555C41.2144 28.6003 41.5366 29.2353 41.6012 29.924C41.6658 30.6128 41.4676 31.3003 41.0492 31.839L39.4912 33.8255C39.5442 33.9377 39.6173 34.0383 39.7067 34.122C39.7979 34.2111 39.912 34.2709 40.0352 34.2941C40.1584 34.3172 40.2854 34.3027 40.4009 34.2523L42.1712 32.0007C42.333 31.794 42.4475 31.5518 42.5059 31.2925L42.5248 31.2069C42.5587 31.0553 42.5932 30.8981 42.6325 30.737L44.0995 25.1624C44.3113 23.9877 45.6128 23.4025 46.7736 23.5133C47.4165 23.5743 48.1031 23.9888 48.5661 24.5952C48.9622 25.1138 49.1395 25.7028 49.0656 26.2533C49.0619 26.2829 49.0559 26.3126 49.0495 26.3417L47.4047 33.3478C47.3982 33.3763 47.3912 33.416 47.3837 33.4596V33.4703C47.2048 34.4806 46.5532 35.1922 45.9787 35.8198C45.817 35.9977 45.6618 36.1661 45.5222 36.3362C45.29 36.6159 45.041 36.9191 44.7828 37.2111L41.8366 40.5413C41.7097 40.7289 41.6334 40.9483 41.6156 41.1768L41.4976 42.6777C41.48 42.9016 41.3819 43.1106 41.2227 43.2629C41.0636 43.4153 40.855 43.4999 40.6385 43.5L40.6369 43.4989ZM33.8179 40.5122L39.8539 41.5605L39.8954 41.0302C39.9407 40.4523 40.1425 39.8994 40.4774 39.4353C40.4946 39.4118 40.513 39.3883 40.5313 39.3665L43.5104 35.9994C43.7492 35.7292 43.9863 35.44 44.211 35.1726C44.3803 34.9667 44.5576 34.7732 44.7289 34.5863C45.1779 34.0951 45.602 33.6319 45.6882 33.1447V33.1346C45.699 33.0725 45.7114 33.002 45.7303 32.9237L47.3583 25.987C47.3454 25.7862 46.9272 25.3258 46.6162 25.2956C46.2492 25.2609 45.8736 25.4114 45.7917 25.5126C45.7868 25.5389 45.7815 25.5686 45.7745 25.5921L44.301 31.2069C44.2676 31.3339 44.2385 31.4665 44.2073 31.6074L44.1873 31.6958C44.0694 32.2218 43.8373 32.713 43.5088 33.1318L41.6975 35.4355C41.5346 35.6344 41.3284 35.7903 41.0961 35.8903C40.6703 36.0849 40.1985 36.1443 39.7403 36.061C39.282 35.9777 38.8578 35.7553 38.5211 35.4221C37.6879 34.6031 37.5122 33.5122 38.0932 32.7704L39.71 30.709C39.8447 30.5351 39.9085 30.3133 39.8875 30.0912C39.8665 29.869 39.7625 29.6643 39.5978 29.5208C39.4331 29.3774 39.2208 29.3066 39.0064 29.3238C38.792 29.3409 38.5926 29.4446 38.451 29.6126L37.5543 30.6911C35.2707 33.4295 33.953 36.8931 33.8179 40.5122Z" fill="black"/>
<path d="M39.9435 47.5C39.8465 47.4999 39.7496 47.4923 39.6539 47.4771L31.5303 46.1696C31.0767 46.0966 30.6718 45.8531 30.4047 45.4926C30.1375 45.1322 30.03 44.6843 30.1057 44.2475L30.5148 41.8939C30.591 41.4574 30.8439 41.0679 31.218 40.8108C31.5921 40.5537 32.0568 40.4501 32.5102 40.5226L40.6343 41.8301C41.0878 41.9032 41.4926 42.1468 41.7596 42.5072C42.0266 42.8677 42.1341 43.3155 42.0583 43.7522L41.6498 46.1053C41.5826 46.4945 41.3742 46.8482 41.0619 47.1035C40.7495 47.3588 40.3533 47.4993 39.9435 47.5ZM31.9031 44.4621L39.8757 45.7452L40.2592 43.5376L32.2873 42.254L31.9031 44.4621Z" fill="black"/>
<path d="M19.5272 43.5C19.3107 43.4999 19.1021 43.4153 18.943 43.2629C18.7838 43.1106 18.6857 42.9016 18.6681 42.6776L18.5501 41.1762C18.5322 40.9479 18.4559 40.7287 18.3291 40.5412L15.3828 37.211C15.1247 36.9189 14.8757 36.6185 14.6434 36.336C14.5039 36.1682 14.3497 35.9976 14.187 35.8197C13.6125 35.1914 12.9609 34.4771 12.782 33.4701V33.4595C12.7745 33.4175 12.7675 33.3778 12.761 33.3476L11.1146 26.3419C11.1081 26.3128 11.1022 26.2832 11.0984 26.2535C11.0246 25.7031 11.2019 25.114 11.598 24.5954C12.0609 23.9884 12.7475 23.5745 13.3905 23.5135C14.5502 23.4016 15.8528 23.9895 16.0646 25.1627L17.5272 30.7373C17.5693 30.8984 17.6037 31.0556 17.6377 31.2072L17.6566 31.2928C17.715 31.5522 17.8294 31.7944 17.9912 32.001L19.7616 34.2527C19.877 34.3031 20.0041 34.3176 20.1273 34.2944C20.2505 34.2713 20.3646 34.2115 20.4557 34.1224C20.5451 34.0387 20.6183 33.9381 20.6713 33.8259L19.1133 31.8394C18.6949 31.3006 18.4967 30.6131 18.5613 29.9243C18.6259 29.2356 18.948 28.6006 19.4587 28.1557C19.9693 27.7109 20.6276 27.4916 21.2923 27.545C21.9569 27.5984 22.5749 27.9203 23.0134 28.4414L23.9124 29.52C26.6329 32.7816 28.115 36.9605 28.0815 41.2746C28.0798 41.4851 28.0067 41.6883 27.875 41.8484C27.7434 42.0086 27.5615 42.1154 27.3615 42.1501L19.6694 43.4877C19.6224 43.496 19.5748 43.5001 19.5272 43.5ZM12.8063 25.99L14.4349 32.9269C14.4532 33.0047 14.4656 33.0751 14.4764 33.1372V33.1473C14.5626 33.6346 14.9867 34.0983 15.4357 34.5889C15.607 34.7758 15.7843 34.9693 15.9536 35.1752C16.1756 35.4454 16.4127 35.7318 16.6515 36.002L19.6306 39.3692C19.65 39.391 19.6684 39.4145 19.6845 39.438C20.0194 39.9021 20.2212 40.455 20.2666 41.0329L20.3081 41.5633L26.344 40.5149C26.2099 36.8954 24.893 33.4312 22.6098 30.692L21.7109 29.6129C21.5673 29.4524 21.3699 29.3554 21.1593 29.3419C20.9488 29.3283 20.7413 29.3994 20.5798 29.5403C20.4183 29.6811 20.3152 29.8811 20.2918 30.0987C20.2684 30.3163 20.3265 30.535 20.4541 30.7093L22.0709 32.7714C22.6534 33.5137 22.4778 34.6046 21.6446 35.4236C21.3077 35.7568 20.8834 35.9791 20.4251 36.0624C19.9668 36.1457 19.495 36.0864 19.0691 35.8918C18.837 35.7917 18.631 35.6358 18.4682 35.437L16.6569 33.1333C16.3284 32.7145 16.0963 32.2233 15.9784 31.6973L15.9584 31.6089C15.9272 31.4679 15.8981 31.3353 15.8646 31.2078L14.3902 25.5923C14.3831 25.566 14.3778 25.5391 14.3729 25.5129C14.291 25.4116 13.9159 25.2617 13.5484 25.2958C13.2352 25.326 12.8197 25.7859 12.8063 25.9872V25.99Z" fill="black"/>
<path d="M20.2205 47.5C19.8108 47.4993 19.4146 47.3588 19.1022 47.1035C18.7898 46.8482 18.5815 46.4945 18.5142 46.1053L18.1057 43.7522C18.03 43.3155 18.1374 42.8677 18.4045 42.5073C18.6715 42.1468 19.0763 41.9033 19.5297 41.8301L27.6533 40.5226C28.1068 40.4501 28.5716 40.5537 28.9458 40.8108C29.3199 41.0679 29.573 41.4574 29.6493 41.8939L30.0583 44.2475C30.1341 44.6843 30.0266 45.1322 29.7594 45.4926C29.4923 45.8531 29.0874 46.0966 28.6338 46.1696L20.5102 47.4771C20.4144 47.4923 20.3176 47.4999 20.2205 47.5ZM19.9037 43.5365L20.2873 45.7441L28.2609 44.4621L27.8779 42.254L19.9037 43.5365Z" fill="black"/>
</svg>
