<svg width="55" height="54" viewBox="0 0 55 54" fill="none" xmlns="http://www.w3.org/2000/svg">
<circle cx="25.3388" cy="28.4726" r="25.3388" fill="#FFBE2E"/>
<path d="M40.8008 38.2813C41.4065 38.2813 41.9986 38.1016 42.5022 37.7651C43.0058 37.4286 43.3984 36.9503 43.6302 36.3907C43.862 35.8311 43.9226 35.2154 43.8044 34.6213C43.6863 34.0272 43.3946 33.4815 42.9663 33.0532C42.538 32.6249 41.9923 32.3333 41.3982 32.2151C40.8042 32.0969 40.1884 32.1576 39.6288 32.3894C39.0692 32.6212 38.5909 33.0137 38.2544 33.5173C37.9179 34.0209 37.7383 34.613 37.7383 35.2188C37.7383 36.031 38.0609 36.8099 38.6353 37.3843C39.2096 37.9586 39.9886 38.2813 40.8008 38.2813ZM40.8008 33.6875C41.1036 33.6875 41.3997 33.7773 41.6515 33.9456C41.9033 34.1138 42.0996 34.353 42.2155 34.6328C42.3314 34.9126 42.3617 35.2205 42.3026 35.5175C42.2435 35.8145 42.0977 36.0874 41.8835 36.3015C41.6694 36.5157 41.3965 36.6615 41.0995 36.7206C40.8025 36.7797 40.4946 36.7493 40.2148 36.6334C39.935 36.5175 39.6958 36.3213 39.5276 36.0695C39.3593 35.8177 39.2695 35.5216 39.2695 35.2188C39.2695 34.8126 39.4309 34.4232 39.718 34.136C40.0052 33.8488 40.3947 33.6875 40.8008 33.6875Z" fill="black"/>
<path d="M42.0391 43.2874C43.5407 43.2847 44.9997 42.7874 46.1903 41.8722C47.3809 40.9571 48.2368 39.6752 48.6257 38.2247C49.0145 36.7743 48.9147 35.2361 48.3415 33.8481C47.7684 32.4602 46.7539 31.2997 45.4549 30.5462V13.8255C45.4549 12.9196 45.095 12.0508 44.4544 11.4102C43.8138 10.7696 42.945 10.4097 42.0391 10.4097C41.1331 10.4097 40.2643 10.7696 39.6237 11.4102C38.9831 12.0508 38.6232 12.9196 38.6232 13.8255V30.5633C37.5778 31.1489 36.7092 32.0049 36.1082 33.0416C35.5072 34.0783 35.1961 35.2574 35.2073 36.4556C35.2073 38.2675 35.9271 40.0052 37.2083 41.2864C38.4895 42.5676 40.2272 43.2874 42.0391 43.2874ZM39.8743 31.8143C40.0114 31.7423 40.1264 31.6343 40.2069 31.5019C40.2873 31.3695 40.3303 31.2178 40.3311 31.0628V13.8255C40.3311 13.3726 40.5111 12.9381 40.8314 12.6178C41.1517 12.2975 41.5861 12.1176 42.0391 12.1176C42.492 12.1176 42.9264 12.2975 43.2467 12.6178C43.567 12.9381 43.747 13.3726 43.747 13.8255V31.0628C43.7474 31.2238 43.7934 31.3814 43.8795 31.5173C43.9656 31.6533 44.0884 31.7622 44.2337 31.8314C45.0626 32.2243 45.7708 32.8325 46.2844 33.5925C46.7979 34.3524 47.0981 35.2364 47.1535 36.1519C47.2089 37.0675 47.0175 37.9812 46.5993 38.7975C46.1811 39.6139 45.5514 40.303 44.776 40.793C44.0006 41.2829 43.1078 41.5557 42.191 41.5829C41.2741 41.6101 40.3668 41.3907 39.5637 40.9476C38.7606 40.5044 38.0912 39.8539 37.6253 39.0637C37.1594 38.2736 36.9142 37.3729 36.9153 36.4556C36.9153 34.4702 37.9656 32.822 39.8743 31.8143Z" fill="black"/>
<path d="M51.4312 2.29688H8.73287C8.50639 2.29688 8.28918 2.38685 8.12903 2.547C7.96888 2.70715 7.87891 2.92436 7.87891 3.15084V45.8492C7.87891 46.0756 7.96888 46.2929 8.12903 46.453C8.28918 46.6132 8.50639 46.7031 8.73287 46.7031H51.4312C51.6577 46.7031 51.8749 46.6132 52.035 46.453C52.1952 46.2929 52.2852 46.0756 52.2852 45.8492V3.15084C52.2852 2.92436 52.1952 2.70715 52.035 2.547C51.8749 2.38685 51.6577 2.29688 51.4312 2.29688ZM34.3519 18.9492L33.5491 18.6034C33.4432 18.5581 33.3292 18.5348 33.214 18.5348C33.0987 18.5348 32.9847 18.5581 32.8788 18.6034L31.2221 19.3122L29.5697 18.5906C29.4627 18.5462 29.3481 18.5233 29.2323 18.5233C29.1166 18.5233 29.0019 18.5462 28.895 18.5906L27.2383 19.2993L25.5816 18.5906C25.4747 18.5462 25.3601 18.5233 25.2443 18.5233C25.1285 18.5233 25.0139 18.5462 24.907 18.5906L24.1043 18.9492V4.00481H34.3519V18.9492ZM50.5772 44.9952H9.58684V4.00481H22.3963V20.2302C22.396 20.3461 22.4192 20.4608 22.4647 20.5675C22.5307 20.721 22.6403 20.8518 22.78 20.9437C22.9196 21.0355 23.0832 21.0844 23.2503 21.0841C23.3662 21.0845 23.481 21.0612 23.5876 21.0158L25.2443 20.307L26.901 21.0158C27.0079 21.0602 27.1226 21.0831 27.2383 21.0831C27.3541 21.0831 27.4687 21.0602 27.5756 21.0158L29.2281 20.307L30.8805 21.0158C30.9874 21.0602 31.102 21.0831 31.2178 21.0831C31.3336 21.0831 31.4482 21.0602 31.5551 21.0158L33.2118 20.307L34.8642 21.0158C34.9674 21.0603 35.0783 21.0839 35.1906 21.0854C35.3029 21.0869 35.4144 21.0663 35.5187 21.0246C35.6231 20.983 35.7181 20.9212 35.7985 20.8427C35.8789 20.7643 35.943 20.6707 35.9872 20.5675C36.0341 20.4612 36.0588 20.3464 36.0598 20.2302V4.00481H50.5772V44.9952Z" fill="black"/>
<path d="M29.2293 31.3315H13.8579C13.6314 31.3315 13.4142 31.4215 13.254 31.5817C13.0939 31.7418 13.0039 31.959 13.0039 32.1855V40.7252C13.0039 40.9517 13.0939 41.1689 13.254 41.329C13.4142 41.4892 13.6314 41.5791 13.8579 41.5791H29.2293C29.4558 41.5791 29.673 41.4892 29.8331 41.329C29.9933 41.1689 30.0832 40.9517 30.0832 40.7252V32.1855C30.0832 31.959 29.9933 31.7418 29.8331 31.5817C29.673 31.4215 29.4558 31.3315 29.2293 31.3315ZM28.3753 39.8712H14.7118V33.0395H28.3753V39.8712Z" fill="black"/>
</svg>
