<svg width="40" height="40" viewBox="0 0 40 40" fill="none" xmlns="http://www.w3.org/2000/svg">
<circle cx="20" cy="16" r="15" fill="#FFBE2E"/>
<path d="M17.2972 22.3145H3.3699C2.30929 22.3145 1.44263 23.1811 1.44263 24.2417V36.6781C1.44263 37.7387 2.30929 38.6054 3.3699 38.6054H17.2972C18.3578 38.6054 19.2244 37.7387 19.2244 36.6781V24.2417C19.2244 23.1811 18.3578 22.3145 17.2972 22.3145ZM8.18202 23.169H12.4851V26.266C12.4851 26.2781 12.4851 26.3084 12.4487 26.3266C12.4123 26.3448 12.382 26.3326 12.376 26.3266L10.8366 25.3448C10.5335 25.1508 10.1396 25.1508 9.83657 25.3448L8.29717 26.3326C8.29111 26.3387 8.26081 26.3569 8.22444 26.3326C8.18808 26.3145 8.18808 26.2781 8.18808 26.272V23.169H8.18202ZM18.3638 36.6781C18.3638 37.266 17.8851 37.7508 17.2911 37.7508H3.3699C2.78202 37.7508 2.29717 37.272 2.29717 36.6781V24.2417C2.29717 23.6538 2.77596 23.169 3.3699 23.169H7.32748V26.266C7.32748 26.6054 7.51535 26.9145 7.81232 27.0781C8.10929 27.2417 8.47293 27.2296 8.75778 27.0478L10.2972 26.0599C10.3214 26.0478 10.3517 26.0478 10.376 26.0599L11.9154 27.0417C12.0669 27.1387 12.2426 27.1872 12.4184 27.1872C12.5699 27.1872 12.7214 27.1508 12.8608 27.072C13.1578 26.9084 13.3457 26.5993 13.3457 26.2599V23.1629H17.3032C17.8911 23.1629 18.376 23.6417 18.376 24.2357V36.6781H18.3638Z" fill="black" stroke="black" stroke-width="0.3"/>
<path d="M9.35148 32.3691H5.11511C4.69087 32.3691 4.33936 32.7146 4.33936 33.1449V34.9388C4.33936 35.3631 4.68481 35.7146 5.11511 35.7146H9.34542C9.76966 35.7146 10.1212 35.3691 10.1212 34.9388V33.1449C10.1212 32.7146 9.77572 32.3691 9.35148 32.3691ZM9.26663 34.854H5.19996V33.2237H9.27269V34.854H9.26663Z" fill="black" stroke="black" stroke-width="0.3"/>
<path d="M20.7092 23.8476C20.5092 23.9689 20.4426 24.2295 20.5577 24.4355C20.6365 24.5689 20.782 24.6416 20.9274 24.6416C21.0002 24.6416 21.0789 24.6234 21.1456 24.581C21.8486 24.1628 22.4971 23.6598 23.0789 23.0719C24.9395 21.2113 25.9638 18.7386 25.9698 16.1083C25.9698 13.4779 24.9456 11.0052 23.085 9.14461C21.2244 7.28401 18.7517 6.25977 16.1153 6.25977C13.4789 6.25977 11.0062 7.28401 9.14561 9.14461C6.18803 12.1022 5.41833 16.6234 7.23045 20.387C7.33348 20.5992 7.58803 20.6901 7.80015 20.587C8.01227 20.484 8.10318 20.2295 8.00015 20.0173C6.34561 16.5749 7.04864 12.4476 9.74561 9.75067C11.4426 8.05371 13.7032 7.11431 16.1092 7.11431C18.5153 7.11431 20.7759 8.04764 22.4729 9.75067C24.1698 11.4476 25.1092 13.7083 25.1032 16.1143C25.1032 18.5143 24.1638 20.7749 22.4668 22.4779C21.9456 23.0052 21.3517 23.4719 20.7092 23.8476Z" fill="black" stroke="black" stroke-width="0.3"/>
<path d="M36.9032 28.6592C35.7577 27.5077 32.2305 25.0289 28.9032 23.4108C30.1638 21.2108 30.8426 18.7138 30.8426 16.1077C30.8426 12.1744 29.3153 8.47743 26.5335 5.69561C23.7517 2.92591 20.0547 1.39258 16.1153 1.39258C12.1759 1.39258 8.48502 2.92591 5.7032 5.70167C1.68502 9.71985 0.3335 15.7744 2.26683 21.132C2.34562 21.3562 2.59411 21.4714 2.81229 21.3865C3.03653 21.3077 3.15168 21.0592 3.06683 20.8411C1.24865 15.7986 2.51532 10.0956 6.3032 6.30773C8.92138 3.68955 12.4062 2.24712 16.1093 2.24712C19.8183 2.24712 23.2971 3.68955 25.9153 6.30773C28.5335 8.92591 29.9759 12.4047 29.9759 16.1138C29.9759 19.8168 28.5335 23.3017 25.9153 25.9199C24.3274 27.5077 22.3577 28.7017 20.2183 29.3623C19.9941 29.435 19.8668 29.6714 19.9335 29.8956C19.988 30.0774 20.1577 30.1986 20.3396 30.1986C20.382 30.1986 20.4244 30.1926 20.4668 30.1805C21.4911 29.8653 22.4729 29.4289 23.4002 28.8956C25.0123 32.2229 27.4971 35.7502 28.6487 36.9017C29.7456 37.9986 31.2062 38.6047 32.7577 38.6047H32.7638C34.3214 38.6047 35.782 37.9986 36.879 36.8956C39.1638 34.6229 39.1699 30.9259 36.9032 28.6592ZM36.2911 36.2896C34.3517 38.2289 31.2002 38.2289 29.2668 36.2956C28.1517 35.1805 25.7214 31.7138 24.1517 28.4532C24.1153 28.4774 24.079 28.4895 24.0426 28.5138C24.9335 27.9441 25.7699 27.2774 26.5274 26.5259C27.2608 25.7926 27.9032 24.9986 28.4547 24.1502C31.7153 25.7199 35.182 28.1502 36.2971 29.2653C38.2305 31.1986 38.2244 34.3502 36.2911 36.2896Z" fill="black" stroke="black" stroke-width="0.3"/>
<path d="M16.1152 10.5752C13.2243 10.5752 10.8728 12.9267 10.8728 15.8116C10.8728 18.7025 13.2243 21.054 16.1152 21.054C19.0061 21.054 21.3577 18.7025 21.3577 15.8116C21.3577 12.9267 19.0061 10.5752 16.1152 10.5752ZM16.1152 20.1994C13.697 20.1994 11.7273 18.2297 11.7273 15.8116C11.7273 13.3994 13.697 11.4297 16.1152 11.4297C18.5334 11.4297 20.5031 13.3934 20.5031 15.8116C20.5031 18.2297 18.5334 20.1994 16.1152 20.1994Z" fill="black" stroke="black" stroke-width="0.3"/>
<path d="M16.8909 14.8229L15.7819 15.8956L15.3455 15.4653C15.1758 15.3017 14.9091 15.3017 14.7394 15.4653C14.5758 15.635 14.5758 15.9017 14.7394 16.0713L15.4728 16.7986C15.5576 16.8835 15.6667 16.9198 15.7758 16.9198C15.8849 16.9198 15.9879 16.8774 16.0728 16.7986L17.4788 15.435C17.6485 15.2713 17.6546 14.9986 17.4909 14.8289C17.3273 14.6653 17.0606 14.6592 16.8909 14.8229Z" fill="black" stroke="black" stroke-width="0.3"/>
</svg>
