<svg width="40" height="40" viewBox="0 0 40 40" fill="none" xmlns="http://www.w3.org/2000/svg">
<g clip-path="url(#clip0_7515_23708)">
<path d="M28 13H2C0.895431 13 0 13.8954 0 15V39C0 40.1046 0.89543 41 2 41H28C29.1046 41 30 40.1046 30 39V15C30 13.8954 29.1046 13 28 13Z" fill="#FFBE2E"/>
<path d="M37.2593 11.0394L37.2297 10.9882C37.1887 10.9031 37.1413 10.8217 37.0885 10.7442L31.5237 1.12344C31.1229 0.43047 30.3766 0 29.5761 0H10.4247C9.6229 0 8.87602 0.431485 8.47532 1.12633L2.81984 10.9378C2.7689 11.0262 2.73218 11.1187 2.70625 11.2127C2.62664 11.4276 2.58289 11.6599 2.58289 11.9022V37.2433C2.58289 38.7633 3.81953 39.9999 5.33953 39.9999H34.6602C36.1802 39.9999 37.4169 38.7633 37.4169 37.2433V11.8093C37.4169 11.7753 37.4158 11.7416 37.414 11.708C37.43 11.4824 37.3811 11.2499 37.2593 11.0394ZM21.2123 2.34461H29.5215L33.899 9.91283H21.2123V2.34461ZM10.4793 2.34461H18.8677V9.91283H6.1168L10.4793 2.34461ZM35.0722 37.2434C35.0722 37.4705 34.8874 37.6554 34.6602 37.6554H5.33953C5.11234 37.6554 4.9275 37.4705 4.9275 37.2434V12.2574H35.0722V37.2434Z" fill="black"/>
<path d="M25.3215 21.0962C24.8638 20.6385 24.1215 20.6385 23.6637 21.0962L18.4291 26.3308L16.4163 24.318C15.9586 23.8602 15.2162 23.8602 14.7584 24.318C14.3006 24.7757 14.3006 25.518 14.7584 25.9758L17.6003 28.8176C17.8292 29.0465 18.1293 29.161 18.4292 29.161C18.7291 29.161 19.0293 29.0465 19.2581 28.8176L25.3215 22.7541C25.7794 22.2963 25.7794 21.554 25.3215 21.0962Z" fill="black"/>
</g>
<defs>
<clipPath id="clip0_7515_23708">
<rect width="40" height="40" fill="white"/>
</clipPath>
</defs>
</svg>
