<svg width="55" height="54" viewBox="0 0 55 54" fill="none" xmlns="http://www.w3.org/2000/svg">
<circle cx="25.3388" cy="28.4726" r="25.3388" fill="#FFBE2E"/>
<path d="M31.4473 6.28516H28.75C28.3266 6.28516 27.9844 6.62816 27.9844 7.05078C27.9844 7.47341 28.3266 7.81641 28.75 7.81641H31.4473C31.8707 7.81641 32.2129 7.47341 32.2129 7.05078C32.2129 6.62816 31.8707 6.28516 31.4473 6.28516Z" fill="black"/>
<path d="M25.5195 29.3711H29.4893C29.9127 29.3711 30.2549 29.0281 30.2549 28.6055C30.2549 28.1828 29.9127 27.8398 29.4893 27.8398H25.5195C25.0961 27.8398 24.7539 28.1828 24.7539 28.6055C24.7539 29.0281 25.0961 29.3711 25.5195 29.3711Z" fill="black"/>
<path d="M25.5195 31.7012H29.4893C29.9127 31.7012 30.2549 31.3582 30.2549 30.9355C30.2549 30.5129 29.9127 30.1699 29.4893 30.1699H25.5195C25.0961 30.1699 24.7539 30.5129 24.7539 30.9355C24.7539 31.3582 25.0961 31.7012 25.5195 31.7012Z" fill="black"/>
<path d="M17.5366 30.3456C17.2372 30.0463 16.7534 30.0463 16.454 30.3456L13.6572 33.1424L12.5884 32.0736C12.289 31.7743 11.8051 31.7743 11.5058 32.0736C11.2064 32.3722 11.2064 32.8569 11.5058 33.1562L13.1159 34.7663C13.2598 34.9103 13.4535 34.9907 13.6572 34.9907C13.8608 34.9907 14.0553 34.9103 14.1985 34.7663L17.5366 31.4282C17.836 31.1288 17.836 30.645 17.5366 30.3456Z" fill="black"/>
<path d="M40.3901 26.4775C39.4361 27.4314 38.9102 28.7001 38.9102 30.0499C38.9102 31.3997 39.4361 32.6683 40.3901 33.6223C41.3747 34.6076 42.6694 35.0999 43.9625 35.0999C45.2557 35.0999 46.5503 34.6076 47.5349 33.6223C48.4889 32.6683 49.0149 31.3997 49.0149 30.0499C49.0149 28.7001 48.4889 27.4322 47.5349 26.4775C45.5657 24.5075 42.3593 24.5075 40.3901 26.4775ZM46.4523 32.5389C45.0796 33.9117 42.8455 33.9117 41.4727 32.5389C40.8081 31.8736 40.4414 30.9901 40.4414 30.0491C40.4414 29.1082 40.8081 28.2246 41.4727 27.5601C42.1587 26.8741 43.0606 26.5303 43.9625 26.5303C44.8644 26.5303 45.7656 26.8733 46.4523 27.5601C47.1169 28.2254 47.4836 29.1089 47.4836 30.0491C47.4836 30.9893 47.1169 31.8736 46.4523 32.5389Z" fill="black"/>
<path d="M44.1652 20.9073C43.8412 20.9073 43.5211 20.9252 43.2056 20.9578V7.83234C43.2056 5.49843 41.3076 3.59961 38.9737 3.59961H21.2231C18.8892 3.59961 16.9904 5.49843 16.9904 7.83234V14.6119H13.028C12.5984 14.6119 12.2511 14.9599 12.2511 15.3888V26.1478C9.27309 26.8952 7.10156 29.6152 7.10156 32.7369C7.10156 36.4786 10.1495 39.5234 13.8951 39.5234C14.975 39.5234 16.034 39.2577 16.9896 38.7683V41.1674C16.9896 43.5013 18.8884 45.4002 21.2223 45.4002H38.9729C40.345 45.4002 41.5974 44.7429 42.3805 43.6808C43.044 44.5082 43.4985 45.0397 43.5755 45.129C43.7231 45.3007 43.9391 45.3994 44.1652 45.3994C44.3912 45.3994 44.6065 45.3007 44.7549 45.129C45.1068 44.7188 53.3881 35.0258 53.3881 30.1295C53.3881 25.0437 49.251 20.9073 44.1652 20.9073ZM13.8049 16.1657H19.2489V22.2763C19.2489 22.7052 19.5962 23.0532 20.0258 23.0532H25.4488C25.8785 23.0532 26.2258 22.7052 26.2258 22.2763V16.1657H31.6659V32.841H20.687C20.687 32.8069 20.687 32.7719 20.687 32.7369C20.687 32.3423 20.6497 31.9406 20.5782 31.5482C20.5425 31.3439 20.4982 31.1434 20.4446 30.9469C20.4291 30.8902 20.4081 30.835 20.391 30.7791C20.3498 30.6415 20.3094 30.5032 20.2605 30.3696C20.2278 30.281 20.1882 30.1971 20.1525 30.1109C20.1121 30.0138 20.0748 29.9143 20.0297 29.8188C19.9715 29.6952 19.9054 29.5764 19.8402 29.4575C19.8114 29.4047 19.7858 29.3495 19.7555 29.2982C19.6607 29.1358 19.5589 28.9789 19.4517 28.8259C19.4478 28.8204 19.4447 28.8142 19.4408 28.8088C18.2335 27.0948 16.2624 25.9924 14.0629 25.9512C14.0062 25.9496 13.9502 25.9434 13.8927 25.9434C13.8819 25.9434 13.8718 25.9458 13.8609 25.9458C13.8415 25.9458 13.822 25.9442 13.8026 25.9442V16.1657H13.8049ZM24.6719 16.1657V21.4994H20.8028V16.1657H24.6719ZM8.65543 32.7369C8.65543 30.1536 10.583 27.9246 13.1407 27.5517C13.3862 27.5159 13.6402 27.4973 13.8951 27.4973C16.4434 27.4973 18.611 29.313 19.05 31.8217C19.106 32.1278 19.1339 32.4355 19.1339 32.7362C19.1339 32.9988 19.1161 33.2497 19.0795 33.5045C18.89 34.7678 18.2467 35.9177 17.2693 36.7397C16.3199 37.5322 15.1211 37.968 13.8951 37.968C11.0057 37.968 8.65543 35.6209 8.65543 32.7354V32.7369ZM38.9729 43.8471H21.2231C19.7462 43.8471 18.5442 42.6452 18.5442 41.1682V37.6767C19.4905 36.7863 20.1634 35.6512 20.4819 34.3949H32.4436C32.8732 34.3949 33.2205 34.0468 33.2205 33.618V15.3888C33.2205 14.9599 32.8732 14.6119 32.4436 14.6119H25.4613C25.4574 14.6119 25.4543 14.6095 25.4496 14.6095H20.0266C20.0227 14.6095 20.0196 14.6119 20.015 14.6119H18.5442V7.83234C18.5442 6.35539 19.7462 5.15348 21.2231 5.15348H38.9737C40.4499 5.15348 41.6518 6.35539 41.6518 7.83234V21.2647C37.7858 22.3625 34.9422 25.917 34.9422 30.1303C34.9422 33.4727 38.7997 39.048 41.3612 42.3826C40.9083 43.2721 39.993 43.8471 38.9729 43.8471ZM44.1652 43.4167C41.5772 40.2833 36.496 33.4455 36.496 30.1303C36.496 25.9015 39.9363 22.4612 44.1652 22.4612C48.394 22.4612 51.8343 25.9015 51.8343 30.1303C51.8343 33.4432 46.7523 40.2817 44.1652 43.4167Z" fill="black"/>
</svg>
