<svg width="294" height="333" viewBox="0 0 294 333" fill="none" xmlns="http://www.w3.org/2000/svg">
<path d="M1.38325 202.257C-0.0225613 199.06 -0.318203 175.339 0.321349 170.514C0.466153 169.402 1.43755 169.745 1.55822 169.24C2.80112 164.001 2.89766 157.343 4.26726 151.611C21.1671 80.8313 90.6188 32.3128 163.582 39.8654C194.359 43.0499 194.244 89.7899 163.57 92.7401C144.679 94.5546 132.196 91.7246 113.208 99.067C35.9854 128.959 33.6625 238.854 109.757 271.312C173.561 298.531 237.619 252.614 240.527 185.601C242.802 133.093 237.396 77.9111 240.473 25.7215C242.476 -8.25052 289.882 -8.49086 293.616 24.5258V194.013C288.011 275.092 220.231 335.867 138.235 331.878C74.7568 328.789 18.3133 281.172 4.14659 219.663C3.2476 215.764 2.39084 204.57 1.37721 202.263L1.38325 202.257Z" fill="url(#paint0_linear_5860_20592)"/>
<defs>
<linearGradient id="paint0_linear_5860_20592" x1="193.489" y1="64.2087" x2="121.314" y2="287.41" gradientUnits="userSpaceOnUse">
<stop stop-color="#FFBE2E"/>
<stop offset="0.346154" stop-color="#FEDE98"/>
<stop offset="0.701923" stop-color="#FEDE98"/>
<stop offset="1" stop-color="#FFBE2E"/>
</linearGradient>
</defs>
</svg>
