<svg width="64" height="64" viewBox="0 0 64 64" fill="none" xmlns="http://www.w3.org/2000/svg">
<g clip-path="url(#clip0_4756_46453)">
<circle cx="51.5" cy="51.5" r="11.5" fill="#FFBE2E"/>
<rect x="4" y="5" width="35" height="35" rx="4" fill="#FFBE2E"/>
<path d="M33.5879 56H3.47563C2.2465 56 1.25 55.0036 1.25 53.7744V3.47563C1.25 2.2465 2.2465 1.25 3.47563 1.25C3.47563 1.25 52.5453 1.25 53.7744 1.25C55.0035 1.25 56 2.2465 56 3.47563V33.7966" stroke="#212121" stroke-width="1.5" stroke-miterlimit="10" stroke-linecap="round" stroke-linejoin="round"/>
<path d="M10.9346 36.8652V43.8529" stroke="#212121" stroke-width="1.5" stroke-miterlimit="10" stroke-linecap="round" stroke-linejoin="round"/>
<path d="M8.38672 38.5004L10.935 35.9521L13.4831 38.5004" stroke="#212121" stroke-width="1.5" stroke-miterlimit="10" stroke-linecap="round" stroke-linejoin="round"/>
<path d="M8.38672 48.8838H13.4831" stroke="#212121" stroke-width="1.5" stroke-miterlimit="10" stroke-linecap="round" stroke-linejoin="round"/>
<path d="M21.9121 36.8652V43.8529" stroke="#212121" stroke-width="1.5" stroke-miterlimit="10" stroke-linecap="round" stroke-linejoin="round"/>
<path d="M19.3633 38.5004L21.9115 35.9521L24.4598 38.5004" stroke="#212121" stroke-width="1.5" stroke-miterlimit="10" stroke-linecap="round" stroke-linejoin="round"/>
<path d="M19.3633 48.8838H24.4598" stroke="#212121" stroke-width="1.5" stroke-miterlimit="10" stroke-linecap="round" stroke-linejoin="round"/>
<path d="M46.8316 62.7501C55.6231 62.7501 62.7501 55.6231 62.7501 46.8316C62.7501 38.04 55.6231 30.9131 46.8316 30.9131C38.04 30.9131 30.9131 38.04 30.9131 46.8316C30.9131 55.6231 38.04 62.7501 46.8316 62.7501Z" stroke="#212121" stroke-width="1.5" stroke-miterlimit="10" stroke-linecap="round" stroke-linejoin="round"/>
<path d="M46.832 49.332C48.2127 49.332 49.332 48.2127 49.332 46.832C49.332 45.4513 48.2127 44.332 46.832 44.332C45.4513 44.332 44.332 45.4513 44.332 46.832C44.332 48.2127 45.4513 49.332 46.832 49.332Z" stroke="#212121" stroke-width="1.5" stroke-miterlimit="10" stroke-linecap="round" stroke-linejoin="round"/>
<path d="M44.9554 44.9554L39.2891 39.2891" stroke="#212121" stroke-width="1.5" stroke-miterlimit="10" stroke-linecap="round" stroke-linejoin="round"/>
<path d="M48.6973 44.9652L50.4573 43.2051" stroke="#212121" stroke-width="1.5" stroke-miterlimit="10" stroke-linecap="round" stroke-linejoin="round"/>
<path d="M46.8311 30.9131V32.9131" stroke="#212121" stroke-width="1.5" stroke-miterlimit="10" stroke-linecap="round" stroke-linejoin="round"/>
<path d="M46.8311 62.75V60.75" stroke="#212121" stroke-width="2.5" stroke-miterlimit="10" stroke-linecap="round" stroke-linejoin="round"/>
<path d="M30.9131 46.832H32.9131" stroke="#212121" stroke-width="1.5" stroke-miterlimit="10" stroke-linecap="round" stroke-linejoin="round"/>
<path d="M62.75 46.832H60.75" stroke="#212121" stroke-width="2.5" stroke-miterlimit="10" stroke-linecap="round" stroke-linejoin="round"/>
</g>
<defs>
<clipPath id="clip0_4756_46453">
<rect width="64" height="64" fill="white"/>
</clipPath>
</defs>
</svg>
