<svg width="64" height="64" viewBox="0 0 64 64" fill="none" xmlns="http://www.w3.org/2000/svg">
<rect x="14" y="17" width="35" height="35" rx="4" fill="#FFBE2E"/>
<path d="M63.0625 32.9375H0.9375V23.3125C0.9375 22.4841 1.60913 21.8125 2.4375 21.8125H61.5625C62.3909 21.8125 63.0625 22.4841 63.0625 23.3125V32.9375Z" stroke="#212121" stroke-width="1.5" strokeMiterlimit="10" stroke-linecap="round" stroke-linejoin="round"/>
<path d="M11 42.177H4.6875C2.61637 42.177 0.9375 40.4981 0.9375 38.427V32.9375H63.0625V38.427C63.0625 40.4981 61.3836 42.177 59.3125 42.177H52.9584" stroke="#212121" stroke-width="1.5" strokeMiterlimit="10" stroke-linecap="round" stroke-linejoin="round"/>
<path d="M23.9854 6.8125H51.8309C52.2694 6.8125 52.6249 7.168 52.6249 7.6065V21.8125H11.375V7.6065C11.375 7.168 11.7305 6.8125 12.169 6.8125H19.705" stroke="#212121" stroke-width="1.5" strokeMiterlimit="10" stroke-linecap="round" stroke-linejoin="round"/>
<path d="M10.6076 29.3594H7.25693C6.57305 29.3594 6.01855 28.8049 6.01855 28.121V26.8477C6.01855 26.1639 6.57305 25.6094 7.25693 25.6094H10.6076C11.2914 25.6094 11.8459 26.1639 11.8459 26.8477V28.121C11.8459 28.8049 11.2914 29.3594 10.6076 29.3594Z" stroke="#212121" stroke-width="1.5" strokeMiterlimit="10" stroke-linecap="round" stroke-linejoin="round"/>
<path d="M57.8624 29.3594H54.5118C53.8279 29.3594 53.2734 28.8049 53.2734 28.121V26.8477C53.2734 26.1639 53.8279 25.6094 54.5118 25.6094H57.8624C58.5463 25.6094 59.1008 26.1639 59.1008 26.8477V28.121C59.1008 28.8049 58.5463 29.3594 57.8624 29.3594Z" stroke="#212121" stroke-width="1.5" strokeMiterlimit="10" stroke-linecap="round" stroke-linejoin="round"/>
<path d="M11.1668 36.9347H8.0943C7.8108 36.9347 7.58105 36.705 7.58105 36.4215V32.9375H56.4194V36.4215C56.4194 36.705 56.1897 36.9347 55.9062 36.9347H53.0419" stroke="#212121" stroke-width="1.5" strokeMiterlimit="10" stroke-linecap="round" stroke-linejoin="round"/>
<path d="M52.625 54.0416V56.3934C52.625 56.8319 52.2695 57.1874 51.831 57.1874H12.169C11.7305 57.1874 11.375 56.8319 11.375 56.3934V32.9375H52.625V49.5416" stroke="#212121" stroke-width="1.5" strokeMiterlimit="10" stroke-linecap="round" stroke-linejoin="round"/>
<path d="M33.6615 37.7507L34.7026 39.8602C34.9725 40.4071 35.4942 40.7862 36.0979 40.874L38.4259 41.2122C39.9457 41.4331 40.5526 43.3008 39.4529 44.373L37.7684 46.015C37.3316 46.4407 37.1324 47.0541 37.2355 47.6552L37.6331 49.9738C37.8927 51.4876 36.3039 52.642 34.9445 51.9273L32.8622 50.8327C32.3224 50.549 31.6775 50.549 31.1376 50.8327L29.0554 51.9273C27.6959 52.6421 26.1071 51.4877 26.3667 49.9738L26.7644 47.6552C26.8675 47.0541 26.6681 46.4407 26.2315 46.015L24.547 44.373C23.4471 43.301 24.0541 41.4331 25.574 41.2122L27.902 40.874C28.5055 40.7862 29.0272 40.4072 29.2972 39.8602L30.3384 37.7507C31.0177 36.3735 32.9817 36.3735 33.6615 37.7507Z" stroke="#212121" stroke-width="1.5" strokeMiterlimit="10" stroke-linecap="round" stroke-linejoin="round"/>
<path d="M21.6943 25.875H42.3053" stroke="#212121" stroke-width="1.5" strokeMiterlimit="10" stroke-linecap="round" stroke-linejoin="round"/>
<path d="M21.6943 29.127H42.3053" stroke="#212121" stroke-width="1.5" strokeMiterlimit="10" stroke-linecap="round" stroke-linejoin="round"/>
</svg>
