<svg width="64" height="64" viewBox="0 0 64 64" fill="none" xmlns="http://www.w3.org/2000/svg">
<rect x="14" width="35" height="29" rx="4" fill="#FFBE2E"/>
<rect x="48" y="43" width="14" height="13" rx="4" fill="#FFBE2E"/>
<path d="M8.60356 38.2123L6.41628 37.0749C4.58452 36.1223 2.32287 36.8309 1.36461 38.657C0.406475 40.4834 1.11461 42.7362 2.94625 43.6888L16.0839 50.5209" stroke="#212121" stroke-width="1.5" strokeMiterlimit="10" stroke-linecap="round" stroke-linejoin="round"/>
<path d="M13.375 32.5626V22.3025C13.375 21.7558 13.8183 21.3125 14.365 21.3125H34.6352C35.182 21.3125 35.6252 21.7558 35.6252 22.3025V32.5626H13.375Z" stroke="#212121" stroke-width="1.5" strokeMiterlimit="10" stroke-linecap="round" stroke-linejoin="round"/>
<path d="M14.8751 4.0625H40.2503C41.0787 4.0625 41.7503 4.73413 41.7503 5.56251V31.0628C41.7503 31.8911 41.0787 32.5628 40.2503 32.5628H8.75001C7.92163 32.5628 7.25 31.8911 7.25 31.0628V19.9585" stroke="#212121" stroke-width="1.5" strokeMiterlimit="10" stroke-linecap="round" stroke-linejoin="round"/>
<path d="M7.25 10.0833V5.56251C7.25 4.73413 7.92163 4.0625 8.75001 4.0625H10.4167L16 4" stroke="#212121" stroke-width="1.5" strokeMiterlimit="10" stroke-linecap="round" stroke-linejoin="round"/>
<path d="M15.75 9.68752C15.75 8.65201 16.5895 7.8125 17.625 7.8125H31.3752C32.4107 7.8125 33.2502 8.65201 33.2502 9.68752C33.2502 10.723 32.4107 11.5625 31.3752 11.5625H17.625C16.5895 11.5625 15.75 10.723 15.75 9.68752Z" stroke="#212121" stroke-width="1.5" strokeMiterlimit="10" stroke-linecap="round" stroke-linejoin="round"/>
<path d="M44.3482 57.7908L29.9993 59.8986C29.8171 59.9254 29.6344 59.9385 29.4525 59.9385C28.6188 59.9385 27.803 59.6613 27.1392 59.142L8.40118 44.4869C6.77491 43.215 6.49228 40.8712 7.76992 39.2522C9.04768 37.6333 11.4016 37.3518 13.028 38.6237L27.7377 50.1283C27.7377 50.1283 36.9701 43.875 43.3416 43.3844C49.1081 42.9404 53.4891 45.8568 54.2692 50.8927" stroke="#212121" stroke-width="1.5" strokeMiterlimit="10" stroke-linecap="round" stroke-linejoin="round"/>
<path d="M33.8153 46.5042L33.4139 46.3247L25.4604 42.7674C23.7517 42.0031 22.9897 40.0055 23.7586 38.3055C24.5285 36.6031 26.541 35.8451 28.2505 36.6138L35.5308 39.8875C36.3247 40.2445 37.2399 40.1819 37.9896 39.74C40.1394 38.4731 47.5943 35.1996 51.5251 42.0666L62.3246 42.067C62.7322 42.067 63.0627 42.3975 63.0627 42.8051V56.0409C63.0627 56.4485 62.7322 56.779 62.3246 56.779H51.2351L48.7443 57.1449L43.0005 58" stroke="#212121" stroke-width="1.5" strokeMiterlimit="10" stroke-linecap="round" stroke-linejoin="round"/>
<path d="M9.68192 18.2703L7.3929 19.6097C7.13152 19.7626 6.80802 19.7626 6.54664 19.6097L4.25762 18.2703C3.30511 17.713 2.71973 16.6922 2.71973 15.5887V10.9143C2.71973 10.5614 3.00573 10.2754 3.35861 10.2754H10.5809C10.9338 10.2754 11.2198 10.5614 11.2198 10.9143V15.5887C11.2198 16.6922 10.6344 17.713 9.68192 18.2703Z" stroke="#212121" stroke-width="1.5" strokeMiterlimit="10" stroke-linecap="round" stroke-linejoin="round"/>
<path d="M31.8751 28.8125H17.125" stroke="#212121" stroke-width="1.5" strokeMiterlimit="10" stroke-linecap="round" stroke-linejoin="round"/>
<path d="M17.125 25.0625H24.8751" stroke="#212121" stroke-width="1.5" strokeMiterlimit="10" stroke-linecap="round" stroke-linejoin="round"/>
</svg>
