<svg width="208" height="208" viewBox="0 0 208 208" fill="none" xmlns="http://www.w3.org/2000/svg">
<path d="M30.6464 174.346C30.0485 174.346 29.4514 174.192 28.9185 173.884L3.86009 159.407C3.76348 159.351 3.73015 159.226 3.78558 159.13C3.84186 159.031 3.96768 159 4.06272 159.055L29.1211 173.532C30.0635 174.078 31.2347 174.076 32.1771 173.529L63.5921 155.26C63.6887 155.203 63.8131 155.236 63.8692 155.333C63.9255 155.43 63.893 155.554 63.7964 155.61L32.3814 173.879C31.8461 174.191 31.2458 174.346 30.6464 174.346Z" fill="#DBDEE4"/>
<path d="M8.56876 158.837C9.95011 159.635 9.95796 160.93 8.58567 161.728C7.21326 162.527 4.97961 162.526 3.59814 161.728C2.2168 160.93 2.21003 159.635 3.58244 158.837C4.95485 158.039 7.18742 158.039 8.56876 158.837Z" fill="white"/>
<path d="M6.09557 162.526C5.15559 162.526 4.21477 162.318 3.49735 161.904C2.7617 161.479 2.35619 160.901 2.35547 160.278C2.35462 159.658 2.75385 159.084 3.48081 158.662C4.9078 157.832 7.23685 157.832 8.67024 158.66C9.40674 159.086 9.81212 159.664 9.81297 160.287C9.81381 160.907 9.41459 161.481 8.68847 161.903C7.9748 162.318 7.03555 162.526 6.09557 162.526ZM6.07335 158.439C5.20776 158.439 4.34229 158.63 3.68501 159.012C3.08787 159.359 2.76001 159.809 2.76085 160.277C2.7617 160.749 3.09499 161.202 3.70011 161.552C5.02421 162.317 7.16947 162.317 8.48403 161.552C9.08033 161.205 9.40819 160.757 9.40734 160.288C9.40734 159.815 9.07321 159.362 8.46737 159.012C7.8061 158.63 6.93978 158.439 6.07335 158.439Z" fill="#DBDEE4"/>
<path d="M6.09155 161.194C5.55297 161.194 5.03178 161.072 4.66166 160.858C4.36435 160.686 4.19372 160.475 4.19336 160.279C4.19312 160.085 4.36037 159.876 4.65236 159.707C5.01959 159.493 5.5386 159.371 6.07645 159.371C6.61443 159.371 7.13526 159.493 7.50526 159.707C7.8028 159.879 7.97367 160.09 7.97392 160.287C7.97416 160.48 7.80703 160.689 7.51528 160.859C7.14842 161.072 6.6294 161.194 6.09155 161.194Z" fill="#FFBE2E"/>
<path d="M18.2515 168.123C17.6732 168.123 17.1134 167.991 16.7159 167.761C16.3966 167.577 16.2133 167.35 16.2129 167.14C16.2126 166.931 16.3922 166.707 16.7058 166.525C17.1001 166.296 17.6575 166.164 18.2352 166.164C18.813 166.164 19.3724 166.296 19.7697 166.525C20.0892 166.71 20.2726 166.937 20.273 167.148C20.2732 167.356 20.0938 167.58 19.7804 167.762C19.3865 167.991 18.8292 168.123 18.2515 168.123Z" fill="#212121"/>
<path d="M187.34 117.071C187.305 117.071 187.271 117.062 187.239 117.044L156.758 99.429C156.355 99.1959 156.114 98.7782 156.112 98.3121C156.111 97.8451 156.352 97.4275 156.754 97.1928L187.03 79.5825C187.127 79.5246 187.251 79.5587 187.307 79.6554C187.363 79.753 187.331 79.8766 187.234 79.9328L156.959 97.5431C156.682 97.704 156.518 97.9909 156.518 98.3112C156.518 98.6307 156.684 98.9177 156.961 99.077L187.442 116.692C187.538 116.748 187.571 116.873 187.516 116.969C187.478 117.034 187.41 117.071 187.34 117.071Z" fill="#DBDEE4"/>
<path d="M184.908 118.068C183.527 117.27 183.519 115.975 184.891 115.177C186.263 114.378 188.496 114.379 189.878 115.177C191.259 115.975 191.265 117.27 189.893 118.068C188.521 118.866 186.289 118.867 184.908 118.068Z" fill="white"/>
<path d="M187.404 118.865C186.464 118.865 185.524 118.658 184.807 118.244C184.071 117.818 183.666 117.24 183.665 116.617C183.664 115.997 184.063 115.423 184.79 115.001C186.216 114.172 188.543 114.172 189.979 115.001C190.714 115.426 191.12 116.004 191.121 116.627C191.122 117.246 190.722 117.82 189.996 118.243C189.282 118.658 188.344 118.865 187.404 118.865ZM187.38 114.778C186.514 114.778 185.65 114.969 184.994 115.351C184.398 115.698 184.07 116.147 184.071 116.616C184.071 117.088 184.405 117.542 185.01 117.892C186.331 118.656 188.478 118.656 189.791 117.892C190.388 117.545 190.716 117.096 190.715 116.627C190.715 116.155 190.381 115.702 189.776 115.353C189.114 114.97 188.246 114.778 187.38 114.778Z" fill="#DBDEE4"/>
<path d="M187.385 115.71C187.923 115.71 188.444 115.833 188.814 116.047C189.112 116.219 189.282 116.43 189.283 116.626C189.283 116.82 189.116 117.028 188.824 117.198C188.457 117.412 187.938 117.534 187.4 117.534C186.862 117.534 186.341 117.412 185.971 117.198C185.674 117.026 185.503 116.815 185.503 116.618C185.503 116.425 185.67 116.216 185.961 116.046C186.328 115.833 186.847 115.71 187.385 115.71Z" fill="#FFBE2E"/>
<path d="M175.227 108.782C175.805 108.782 176.365 108.914 176.762 109.144C177.082 109.328 177.265 109.555 177.265 109.766C177.265 109.974 177.086 110.198 176.772 110.38C176.378 110.609 175.821 110.741 175.243 110.741C174.666 110.741 174.107 110.609 173.709 110.38C173.39 110.195 173.206 109.968 173.206 109.757C173.206 109.549 173.385 109.325 173.699 109.143C174.092 108.914 174.65 108.782 175.227 108.782Z" fill="#212121"/>
<path d="M76.896 198.975C76.8263 198.975 76.7582 198.939 76.721 198.875C76.6647 198.777 76.6972 198.653 76.7938 198.597L115.677 175.98C116.158 175.7 116.446 175.2 116.445 174.642C116.444 174.084 116.155 173.585 115.673 173.306L76.5231 150.682C76.4265 150.626 76.3933 150.501 76.4487 150.405C76.5057 150.306 76.6301 150.275 76.7258 150.33L115.875 172.954C116.484 173.307 116.849 173.937 116.85 174.642C116.851 175.346 116.489 175.977 115.881 176.331L76.9983 198.948C76.9657 198.967 76.9308 198.975 76.896 198.975Z" fill="#DBDEE4"/>
<path d="M81.1836 198.61C82.5646 197.811 82.5724 196.516 81.2004 195.718C79.8284 194.92 77.5952 194.92 76.2141 195.719C74.8331 196.517 74.8263 197.811 76.1984 198.609C77.5705 199.408 79.8025 199.408 81.1836 198.61Z" fill="white"/>
<path d="M78.6871 199.406C77.7479 199.406 76.8095 199.199 76.096 198.784C75.3698 198.361 74.97 197.787 74.9707 197.168C74.9723 196.545 75.3778 195.967 76.1126 195.542C77.5491 194.713 79.8757 194.713 81.3027 195.542C82.0281 195.964 82.4281 196.538 82.4272 197.158C82.4257 197.781 82.0202 198.359 81.2845 198.785C80.5671 199.199 79.6271 199.406 78.6871 199.406ZM78.7117 195.32C77.8453 195.32 76.9773 195.511 76.3153 195.894C75.7103 196.243 75.3769 196.696 75.3761 197.168C75.3761 197.637 75.7039 198.086 76.3002 198.433C77.6132 199.197 79.7593 199.197 81.0818 198.432C81.6867 198.083 82.021 197.629 82.0217 197.157C82.0217 196.688 81.6947 196.239 81.0984 195.892C80.442 195.511 79.5772 195.32 78.7117 195.32Z" fill="#DBDEE4"/>
<path d="M78.7064 196.251C78.1681 196.251 77.647 196.374 77.2768 196.588C76.9796 196.759 76.809 196.97 76.8086 197.167C76.8084 197.36 76.9756 197.569 77.2675 197.739C77.6346 197.952 78.1535 198.075 78.6912 198.075C79.2291 198.075 79.7498 197.952 80.1196 197.738C80.4172 197.566 80.5879 197.355 80.5882 197.159C80.5884 196.965 80.4213 196.757 80.1297 196.587C79.7629 196.373 79.2441 196.251 78.7064 196.251Z" fill="#FFBE2E"/>
<path d="M90.8642 189.323C90.286 189.323 89.7264 189.455 89.3289 189.685C89.0096 189.869 88.8264 190.096 88.8262 190.307C88.8259 190.515 89.0055 190.739 89.319 190.921C89.7133 191.15 90.2706 191.282 90.848 191.282C91.4257 191.282 91.9848 191.15 92.3821 190.921C92.7016 190.736 92.885 190.509 92.8853 190.298C92.8856 190.09 92.7061 189.866 92.3929 189.684C91.999 189.455 91.4418 189.323 90.8642 189.323Z" fill="#212121"/>
<path d="M108.223 106.429C108.153 106.429 108.085 106.392 108.048 106.328C107.992 106.231 108.024 106.107 108.121 106.051L165.64 72.5933C165.738 72.5354 165.861 72.5695 165.918 72.6662C165.974 72.7637 165.941 72.8874 165.845 72.9436L108.325 106.401C108.293 106.42 108.258 106.429 108.223 106.429Z" fill="#DBDEE4"/>
<path d="M140.839 86.0039C141.418 86.0039 141.977 86.1357 142.375 86.3654C142.694 86.5499 142.877 86.7767 142.878 86.9872C142.878 87.1954 142.698 87.4194 142.385 87.6018C141.99 87.8311 141.433 87.9627 140.856 87.9627C140.278 87.9627 139.719 87.8309 139.322 87.6014C139.002 87.4167 138.819 87.1898 138.818 86.9789C138.818 86.7707 138.998 86.5469 139.311 86.3646C139.705 86.1353 140.262 86.0039 140.839 86.0039Z" fill="#212121"/>
<path d="M186.863 206.599C186.795 206.599 186.729 206.565 186.69 206.504C186.632 206.408 186.661 206.283 186.756 206.224L204.07 195.504C204.339 195.337 204.496 195.049 204.491 194.734C204.486 194.418 204.32 194.135 204.046 193.978L113.265 141.605C113.169 141.549 113.135 141.425 113.191 141.328C113.248 141.23 113.372 141.198 113.468 141.253L204.249 193.626C204.648 193.855 204.889 194.268 204.896 194.727C204.903 195.187 204.674 195.607 204.284 195.849L186.97 206.569C186.937 206.59 186.899 206.599 186.863 206.599Z" fill="#DBDEE4"/>
<path d="M93.7438 8.83584C93.0416 8.42257 92.071 8.47406 90.9868 9.10455L10.0531 55.8825C10.0427 55.8929 10.0324 55.8929 10.022 55.9031C8.90683 56.5542 7.91553 57.6705 7.22383 58.952C6.59396 60.1097 6.19124 61.3912 6.20162 62.559V63.1482L6.3667 130.934C6.3667 132.143 6.80058 133.001 7.49228 133.404L1.49292 129.921C0.811486 129.518 0.377727 128.66 0.377727 127.441L0.202148 59.8306V59.0658C0.202148 57.8978 0.594606 56.6266 1.22436 55.4692C1.92656 54.1979 2.9076 53.0713 4.00202 52.42C4.02267 52.4099 4.03306 52.3993 4.05359 52.3892L84.9977 5.61088C86.0715 4.99091 87.0422 4.93918 87.7443 5.34242L93.7438 8.83584Z" fill="#212121"/>
<path d="M7.49204 133.607C7.45714 133.607 7.42236 133.599 7.39072 133.58L1.39209 130.097C0.606559 129.633 0.174975 128.69 0.174975 127.441L0 59.066C0 57.9237 0.372168 56.6119 1.04684 55.3722C1.80471 54 2.81679 52.8895 3.89853 52.2458C3.93174 52.226 3.94768 52.2157 3.96906 52.2062L84.8972 5.43553C85.9932 4.80214 87.0409 4.70701 87.8455 5.16682L93.8299 8.65143C93.8355 8.65457 93.841 8.65771 93.8473 8.66097C93.9431 8.71803 93.9755 8.84168 93.9194 8.93838C93.8624 9.03508 93.7389 9.0676 93.6423 9.01127H93.6415C93.6407 9.01043 93.64 9.0097 93.6391 9.0097L93.6328 9.00571C92.9644 8.61806 92.0609 8.71476 91.0892 9.27998L10.1591 56.0554C10.148 56.0633 10.1369 56.0705 10.1282 56.0743C9.07094 56.6942 8.10403 57.7493 7.40159 59.0493C6.74901 60.2486 6.39507 61.4948 6.40461 62.5577V63.1483L6.56933 130.934C6.56933 132.028 6.93365 132.843 7.59407 133.229C7.69068 133.286 7.72317 133.41 7.66689 133.507C7.62982 133.571 7.56171 133.607 7.49204 133.607ZM86.7271 5.28576C86.2305 5.28576 85.677 5.45378 85.0997 5.78752L4.1549 52.566C4.12399 52.5843 4.10817 52.5946 4.08679 52.6041C3.08499 53.2026 2.12521 54.2584 1.40224 55.568C0.759202 56.7483 0.405257 57.9905 0.405257 59.0661V59.831L0.580239 127.441C0.580239 128.541 0.941304 129.36 1.59629 129.747L6.50134 132.595C6.28035 132.139 6.16394 131.577 6.16394 130.935L5.99923 62.5596C5.98897 61.43 6.36114 60.1141 7.04535 58.8562C7.781 57.4935 8.8002 56.3838 9.91527 55.7306C9.92638 55.7226 9.93822 55.7163 9.94691 55.7116L90.8854 8.92908C91.4627 8.59377 92.0241 8.4075 92.5436 8.37184L87.6425 5.51821C87.3717 5.36264 87.0621 5.28576 86.7271 5.28576Z" fill="#212121"/>
<path d="M10.0219 55.9036C8.90671 56.5546 7.91541 57.6709 7.22371 58.9524C6.59384 60.1102 6.19112 61.3917 6.20151 62.5595V63.1486C6.19112 63.1899 6.18085 63.2417 6.17047 63.2831L0.202148 59.8311V59.0663C0.202148 57.8982 0.594613 56.627 1.22436 55.4696C1.92657 54.1984 2.9076 53.0717 4.00203 52.4204L10.0219 55.9036Z" fill="#FFBE2E"/>
<g opacity="0.1">
<path d="M10.2528 146.032C8.12092 147.264 8.10969 149.266 10.2275 150.498L61.4898 180.316C63.6078 181.548 67.0606 181.548 69.1925 180.316L150.137 133.539C152.274 132.304 152.28 130.306 150.162 129.074L98.8998 99.2558C96.7818 98.0238 93.3348 98.0205 91.1971 99.2558L10.2528 146.032Z" fill="#212121"/>
</g>
<path d="M10.242 133.141C8.11017 134.373 8.09894 136.375 10.2168 137.607L61.4791 167.425C63.597 168.657 67.0499 168.657 69.1817 167.425L150.126 120.648C152.264 119.413 152.269 117.415 150.151 116.183L98.889 86.3647C96.7711 85.1327 93.3241 85.1294 91.1864 86.3647L10.242 133.141Z" fill="#FFF7E4"/>
<path d="M65.3248 168.548C63.893 168.548 62.4638 168.231 61.3765 167.6L10.1147 137.781C9.02892 137.15 8.43105 136.297 8.43262 135.381C8.43347 134.458 9.04003 133.601 10.14 132.965L91.0848 86.188C93.2706 84.9245 96.8167 84.9252 98.9912 86.1888L150.253 116.007C151.34 116.639 151.938 117.492 151.937 118.408C151.936 119.329 151.328 120.187 150.227 120.824L69.2828 167.601C68.1899 168.232 66.7565 168.548 65.3248 168.548ZM10.3426 133.317C9.37332 133.876 8.83885 134.61 8.838 135.381C8.83728 136.147 9.36306 136.874 10.3189 137.431L61.5806 167.249C63.6411 168.448 67.0052 168.447 69.08 167.248L150.024 120.471C150.995 119.911 151.53 119.178 151.532 118.407C151.533 117.642 151.006 116.915 150.049 116.357L98.7868 86.539C96.7263 85.3405 93.3622 85.3412 91.2874 86.5398L10.3426 133.317Z" fill="#212121"/>
<path d="M70.0426 106.665C69.551 106.949 69.5527 107.408 70.0368 107.689L74.7649 110.44C75.2532 110.724 76.0407 110.724 76.5323 110.44L82.08 107.234C82.5716 106.95 82.5741 106.493 82.0856 106.209L77.3576 103.459C76.8736 103.177 76.0818 103.175 75.5903 103.459L70.0426 106.665Z" fill="#212121"/>
<path d="M80.1227 100.84C79.6312 101.124 79.6327 101.583 80.1169 101.865L84.8449 104.615C85.3333 104.899 86.1208 104.899 86.6123 104.615L92.16 101.409C92.6516 101.125 92.6541 100.668 92.1657 100.384L87.4377 97.634C86.9537 97.3524 86.1619 97.3499 85.6704 97.634L80.1227 100.84Z" fill="#212121"/>
<path d="M99.3981 100.361C98.9065 100.646 98.9082 101.105 99.3923 101.386L104.12 104.136C104.609 104.42 105.396 104.42 105.888 104.136L111.436 100.93C111.927 100.646 111.93 100.19 111.441 99.9056L106.713 97.1555C106.229 96.8739 105.437 96.8714 104.946 97.1555L99.3981 100.361Z" fill="#212121"/>
<path d="M90.2047 95.0134C89.7131 95.2975 89.7148 95.7566 90.1989 96.0381L94.927 98.7882C95.4153 99.0723 96.2029 99.0723 96.6944 98.7882L102.242 95.5823C102.734 95.2982 102.736 94.8416 102.248 94.5575L97.5199 91.8073C97.0359 91.5258 96.2441 91.5232 95.7525 91.8073L90.2047 95.0134Z" fill="#212121"/>
<path d="M89.3169 106.187C88.8255 106.471 88.8272 106.93 89.3112 107.211L94.0392 109.962C94.5276 110.246 95.3151 110.246 95.8066 109.962L101.354 106.756C101.846 106.472 101.848 106.015 101.36 105.731L96.6319 102.981C96.1479 102.699 95.3563 102.697 94.8647 102.981L89.3169 106.187Z" fill="#212121"/>
<path d="M88.4283 117.361C87.9367 117.645 87.9385 118.104 88.4226 118.385L93.1506 121.135C93.6346 121.417 94.4263 121.419 94.9179 121.135L100.466 117.929C100.957 117.645 100.956 117.186 100.471 116.905L95.7434 114.155C95.2594 113.873 94.4675 113.87 93.9759 114.155L88.4283 117.361Z" fill="#212121"/>
<path d="M79.2369 112.013C78.7453 112.297 78.7471 112.757 79.2311 113.038L83.9591 115.788C84.4476 116.072 85.2349 116.072 85.7266 115.788L91.2743 112.582C91.7659 112.298 91.7684 111.842 91.2799 111.557L86.5519 108.807C86.0679 108.526 85.2762 108.523 84.7846 108.807L79.2369 112.013Z" fill="#212121"/>
<path d="M29.7119 129.972C29.2247 130.254 29.2219 130.716 29.7061 130.997L34.4341 133.747C34.9224 134.031 35.7143 134.029 36.2015 133.747L41.7537 130.539C42.2453 130.255 42.2478 129.798 41.7593 129.514L37.0313 126.764C36.5473 126.482 35.7555 126.48 35.264 126.764L29.7119 129.972Z" fill="#212121"/>
<path d="M19.6288 135.798C19.1417 136.08 19.139 136.541 19.623 136.823L24.351 139.573C24.8394 139.857 25.6313 139.855 26.1184 139.573L31.6706 136.364C32.1622 136.08 32.1648 135.624 31.6763 135.34L26.9483 132.59C26.4643 132.308 25.6725 132.305 25.181 132.59L19.6288 135.798Z" fill="#212121"/>
<path d="M38.9042 135.319C38.4171 135.601 38.4144 136.062 38.8984 136.344L43.6264 139.094C44.1149 139.378 44.9067 139.376 45.3938 139.094L50.946 135.885C51.4376 135.601 51.4402 135.145 50.9517 134.861L46.2237 132.111C45.7397 131.829 44.9479 131.826 44.4564 132.111L38.9042 135.319Z" fill="#212121"/>
<path d="M28.8222 141.146C28.335 141.427 28.3324 141.889 28.8164 142.17L33.5444 144.921C34.0327 145.205 34.8246 145.202 35.3118 144.921L40.864 141.712C41.3556 141.428 41.3581 140.972 40.8697 140.687L36.1416 137.937C35.6576 137.656 34.8658 137.653 34.3743 137.937L28.8222 141.146Z" fill="#212121"/>
<path d="M39.7919 124.146C39.3048 124.428 39.302 124.889 39.7861 125.171L44.5142 127.921C45.0025 128.205 45.7944 128.203 46.2816 127.921L51.8337 124.713C52.3252 124.428 52.3279 123.972 51.8394 123.688L47.1114 120.938C46.6274 120.656 45.8356 120.654 45.3441 120.938L39.7919 124.146Z" fill="#212121"/>
<path d="M38.0155 146.494C37.5283 146.775 37.5258 147.237 38.0099 147.519L42.7379 150.269C43.2219 150.55 44.018 150.55 44.5052 150.269L50.0574 147.06C50.549 146.776 50.5473 146.317 50.0632 146.036L45.3351 143.285C44.8511 143.004 44.0593 143.001 43.5677 143.285L38.0155 146.494Z" fill="#212121"/>
<path d="M48.0975 140.667C47.6104 140.949 47.6078 141.41 48.0918 141.692L52.8198 144.442C53.3038 144.724 54.1001 144.724 54.5871 144.442L60.1393 141.234C60.6309 140.949 60.6292 140.49 60.1451 140.209L55.4171 137.459C54.9331 137.177 54.1412 137.175 53.6497 137.459L48.0975 140.667Z" fill="#212121"/>
<path d="M58.1777 134.841C57.6904 135.123 57.6879 135.584 58.172 135.866L62.9 138.616C63.384 138.898 64.1801 138.898 64.6673 138.616L90.3826 123.755C90.8741 123.471 90.8725 123.012 90.3884 122.731L85.6604 119.981C85.1764 119.699 84.3844 119.697 83.893 119.981L58.1777 134.841Z" fill="#212121"/>
<path d="M59.0663 123.667C58.5792 123.949 58.5765 124.41 59.0605 124.692L63.7885 127.442C64.277 127.726 65.0688 127.724 65.5559 127.442L71.1081 124.234C71.5997 123.95 71.6023 123.493 71.1138 123.209L66.3858 120.459C65.9018 120.177 65.11 120.175 64.6185 120.459L59.0663 123.667Z" fill="#212121"/>
<path d="M48.9862 129.494C48.4991 129.776 48.4964 130.237 48.9804 130.519L53.7084 133.269C54.1969 133.553 54.9887 133.55 55.4758 133.269L61.028 130.06C61.5195 129.776 61.5222 129.32 61.0337 129.036L56.3057 126.285C55.8217 126.004 55.0299 126.001 54.5384 126.285L48.9862 129.494Z" fill="#212121"/>
<path d="M69.1529 117.838C68.6613 118.123 68.6631 118.582 69.1471 118.863L73.8751 121.613C74.3636 121.897 75.1511 121.898 75.6426 121.613L81.1903 118.407C81.6818 118.123 81.6844 117.667 81.196 117.383L76.4679 114.633C75.9839 114.351 75.1921 114.348 74.7007 114.633L69.1529 117.838Z" fill="#212121"/>
<path d="M59.9596 112.492C59.468 112.776 59.4697 113.235 59.9538 113.517L64.6818 116.267C65.1703 116.551 65.9578 116.551 66.4492 116.267L71.997 113.061C72.4884 112.777 72.4911 112.32 72.0026 112.036L67.2746 109.286C66.7906 109.004 65.9988 109.002 65.5073 109.286L59.9596 112.492Z" fill="#212121"/>
<path d="M49.874 118.32C49.3867 118.602 49.3841 119.063 49.8682 119.345L54.5962 122.095C55.0847 122.379 55.8765 122.377 56.3636 122.095L61.9158 118.886C62.4074 118.602 62.41 118.146 61.9215 117.862L57.1935 115.112C56.7095 114.83 55.9177 114.827 55.4262 115.112L49.874 118.32Z" fill="#212121"/>
<path d="M108.592 105.708C108.101 105.992 108.103 106.451 108.587 106.733L113.315 109.483C113.799 109.764 114.59 109.767 115.082 109.483L120.63 106.277C121.121 105.993 121.12 105.534 120.636 105.252L115.908 102.502C115.424 102.221 114.632 102.218 114.14 102.502L108.592 105.708Z" fill="#212121"/>
<path d="M98.5093 111.535C98.0178 111.819 98.0196 112.278 98.5036 112.559L103.232 115.31C103.716 115.591 104.507 115.594 104.999 115.31L110.547 112.104C111.038 111.82 111.037 111.361 110.552 111.079L105.824 108.329C105.34 108.047 104.549 108.045 104.057 108.329L98.5093 111.535Z" fill="#212121"/>
<path d="M10.0486 55.8794C7.91675 57.1113 6.19028 60.1043 6.19729 62.5562L6.36538 130.93C6.37238 133.382 8.11008 134.373 10.2419 133.141L91.1863 86.3643C93.3238 85.1291 95.0445 82.1394 95.0376 79.6875L94.8695 11.3138C94.8626 8.862 93.1306 7.86744 90.9931 9.10279L10.0486 55.8794Z" fill="#212121"/>
<path d="M8.51101 133.875C8.10719 133.875 7.73175 133.78 7.39919 133.589C6.60569 133.132 6.16698 132.188 6.16299 130.93L5.99514 62.5568C5.98801 60.0416 7.7611 56.9668 9.94754 55.7033L90.8924 8.92708C91.9924 8.29055 93.0385 8.19228 93.8367 8.65281C94.6302 9.10936 95.0689 10.0542 95.0729 11.313L95.2407 79.6866C95.2478 82.2018 93.4748 85.2766 91.2883 86.5401L10.3435 133.317C9.70119 133.688 9.07712 133.875 8.51101 133.875ZM10.1502 56.055C8.07531 57.2537 6.3934 60.1699 6.40053 62.555L6.56838 130.929C6.57152 132.035 6.93826 132.855 7.60182 133.237C8.27022 133.622 9.17143 133.525 10.1406 132.965L91.0855 86.188C93.1603 84.9895 94.8422 82.0732 94.8351 79.6881L94.6673 11.3145C94.6641 10.2063 94.2974 9.38592 93.6347 9.00468C92.9663 8.6203 92.0659 8.717 91.095 9.27895L10.1502 56.055Z" fill="#212121"/>
<path d="M21.8818 123.241L82.9908 87.6953C84.5336 88.5868 85.7801 90.7492 85.775 92.525L24.666 128.071C24.6711 126.295 23.4245 124.133 21.8818 123.241Z" fill="#FFF7E4"/>
<path d="M24.6666 128.273C24.6317 128.273 24.5969 128.265 24.5653 128.246C24.5028 128.21 24.464 128.142 24.464 128.07C24.4687 126.361 23.2651 124.274 21.781 123.417C21.7184 123.381 21.6797 123.314 21.6797 123.241C21.6797 123.169 21.7177 123.103 21.7803 123.066L82.8894 87.5199C82.9528 87.4834 83.0296 87.4827 83.0928 87.5192C84.6894 88.4419 85.9833 90.6876 85.9786 92.5257C85.9786 92.5979 85.9398 92.6645 85.878 92.7002L24.7689 128.246C24.7371 128.264 24.7015 128.273 24.6666 128.273ZM22.2727 123.249C23.6372 124.193 24.722 126.075 24.856 127.726L85.5715 92.4092C85.5248 90.7621 84.3947 88.8025 82.9898 87.9305L22.2727 123.249Z" fill="#212121"/>
<path d="M21.8822 123.242C23.425 124.133 24.6715 126.296 24.6664 128.071L21.873 126.457L21.8822 123.242Z" fill="white"/>
<path d="M24.6675 128.273C24.6326 128.273 24.5978 128.265 24.5662 128.246L21.7732 126.633C21.7106 126.596 21.6719 126.529 21.6719 126.456L21.6806 123.241C21.6806 123.168 21.7193 123.102 21.7819 123.065C21.8453 123.029 21.9212 123.029 21.9846 123.065C23.5803 123.987 24.8751 126.233 24.8704 128.071C24.8704 128.143 24.8316 128.21 24.7691 128.246C24.7372 128.265 24.7024 128.273 24.6675 128.273ZM22.0773 126.339L24.4491 127.71C24.3121 126.199 23.3261 124.49 22.0852 123.612L22.0773 126.339Z" fill="#212121"/>
<path d="M8.51126 128.438C8.1403 128.438 8.10975 127.672 8.1089 127.437L7.94044 62.551C7.93537 60.7219 9.32794 58.3096 10.9205 57.3891L91.8651 10.6125C92.3297 10.3443 92.6239 10.3154 92.7286 10.3154C93.1064 10.3154 93.1276 11.1508 93.1285 11.3181L93.2961 76.2046C93.3012 78.0341 91.9086 80.446 90.316 81.366L9.37154 128.142C8.9094 128.409 8.61596 128.438 8.51126 128.438Z" fill="white"/>
<path d="M8.51199 128.641C8.12472 128.641 7.90941 128.213 7.907 127.437L7.73829 62.5514C7.73358 60.6585 9.17326 58.1647 10.8195 57.2127L91.7644 10.4365C92.2523 10.1542 92.5777 10.1123 92.7289 10.1123C93.2673 10.1123 93.3299 10.9549 93.3316 11.3172L93.4994 76.2038C93.5041 78.096 92.0645 80.5897 90.4182 81.5417L9.47334 128.318C8.98633 128.599 8.66246 128.641 8.51199 128.641ZM92.7289 10.5182C92.6592 10.5182 92.3995 10.538 91.967 10.7885L11.0223 57.5647C9.48445 58.4533 8.13897 60.783 8.14368 62.5499L8.31238 127.436C8.31395 127.951 8.4312 128.236 8.51199 128.236C8.58082 128.236 8.839 128.217 9.27059 127.966L90.2154 81.1897C91.7533 80.3012 93.0988 77.9714 93.0941 76.2053L92.9262 11.3186C92.9238 10.8305 92.8081 10.5182 92.7289 10.5182Z" fill="#212121"/>
<path d="M93.2991 76.207C93.2991 78.034 91.9092 80.449 90.3192 81.3626L9.37156 128.144C8.90833 128.407 8.61803 128.441 8.51405 128.441C8.14104 128.441 8.10626 127.673 8.10626 127.438L7.96111 69.0672L7.94046 62.5483C7.93333 60.7213 9.33001 58.3061 10.9204 57.3857L91.8679 10.6116C92.3311 10.3416 92.6214 10.314 92.725 10.314C93.1052 10.314 93.1261 11.1514 93.1261 11.3175L93.1537 19.8363L93.2991 76.207Z" fill="#FFF7E4"/>
<path d="M8.51442 128.644C7.96328 128.644 7.90386 127.8 7.90386 127.437L7.73831 62.5492C7.73118 60.6595 9.17085 58.1641 10.8196 57.2097L91.7675 10.4359C92.2514 10.1529 92.5761 10.1108 92.7257 10.1108C93.2706 10.1108 93.3292 10.9543 93.3292 11.3173L93.3568 19.8354L93.5026 76.2063C93.5026 76.2071 93.5026 76.2071 93.5026 76.2071C93.5026 78.104 92.0629 80.5954 90.4205 81.5387L9.47335 128.32C8.95796 128.612 8.63083 128.644 8.51442 128.644ZM92.7259 10.5167C92.6569 10.5167 92.4004 10.5366 91.9711 10.787L11.0224 57.5617C9.48216 58.4526 8.13668 60.7831 8.14381 62.5477L8.16434 69.0667L8.30925 127.437C8.30925 127.934 8.4288 128.238 8.5143 128.238C8.56103 128.238 8.81837 128.225 9.27217 127.967L90.2186 81.1869C91.7526 80.3055 93.0972 77.9789 93.0972 76.2081L92.9238 11.3183C92.9239 10.8282 92.8067 10.5167 92.7259 10.5167Z" fill="#212121"/>
<path d="M7.49204 133.607C7.45714 133.607 7.42236 133.599 7.39072 133.58L1.39209 130.097C0.606559 129.633 0.174975 128.69 0.174975 127.441L0 59.066C0 57.9237 0.372168 56.6119 1.04684 55.3722C1.80471 54 2.81679 52.8895 3.89853 52.2458C3.93174 52.226 3.94768 52.2157 3.96906 52.2062L84.8972 5.43553C85.9932 4.80214 87.0409 4.70701 87.8455 5.16682L93.8299 8.65143C93.8355 8.65457 93.841 8.65771 93.8473 8.66097C93.9431 8.71803 93.9755 8.84168 93.9194 8.93838C93.8624 9.03508 93.7389 9.0676 93.6423 9.01127H93.6415C93.6407 9.01043 93.64 9.0097 93.6391 9.0097L93.6328 9.00571C92.9644 8.61806 92.0609 8.71476 91.0892 9.27998L10.1591 56.0554C10.148 56.0633 10.1369 56.0705 10.1282 56.0743C9.07094 56.6942 8.10403 57.7493 7.40159 59.0493C6.74901 60.2486 6.39507 61.4948 6.40461 62.5577V63.1483L6.56933 130.934C6.56933 132.028 6.93365 132.843 7.59407 133.229C7.69068 133.286 7.72317 133.41 7.66689 133.507C7.62982 133.571 7.56171 133.607 7.49204 133.607ZM86.7271 5.28576C86.2305 5.28576 85.677 5.45378 85.0997 5.78752L4.1549 52.566C4.12399 52.5843 4.10817 52.5946 4.08679 52.6041C3.08499 53.2026 2.12521 54.2584 1.40224 55.568C0.759202 56.7483 0.405257 57.9905 0.405257 59.0661V59.831L0.580239 127.441C0.580239 128.541 0.941304 129.36 1.59629 129.747L6.50134 132.595C6.28035 132.139 6.16394 131.577 6.16394 130.935L5.99923 62.5596C5.98897 61.43 6.36114 60.1141 7.04535 58.8562C7.781 57.4935 8.8002 56.3838 9.91527 55.7306C9.92638 55.7226 9.93822 55.7163 9.94691 55.7116L90.8854 8.92908C91.4627 8.59377 92.0241 8.4075 92.5436 8.37184L87.6425 5.51821C87.3717 5.36264 87.0621 5.28576 86.7271 5.28576Z" fill="#212121"/>
<path d="M6.21105 72.5154C6.17615 72.5154 6.14137 72.5067 6.10889 72.4878L0.106273 68.9825C0.00966716 68.9262 -0.0228125 68.8018 0.0334605 68.7051C0.0888882 68.6068 0.212421 68.5743 0.310597 68.6322L6.31321 72.1375C6.40982 72.1938 6.4423 72.3182 6.38603 72.4149C6.34884 72.4798 6.28073 72.5154 6.21105 72.5154Z" fill="#212121"/>
<path d="M6.35076 126.354C6.31586 126.354 6.28108 126.345 6.24944 126.326L0.255527 122.847C0.158075 122.792 0.125593 122.667 0.181866 122.57C0.237294 122.472 0.362399 122.439 0.458281 122.497L6.4522 125.976C6.54965 126.031 6.58213 126.156 6.52586 126.252C6.48854 126.317 6.42044 126.354 6.35076 126.354Z" fill="#212121"/>
<path d="M75.7648 138.072C74.3453 138.892 74.3379 140.221 75.7481 141.041L88.4022 148.402C89.8125 149.222 92.104 149.222 93.5235 148.402L117.231 134.702C118.658 133.877 118.665 132.548 117.255 131.728L104.601 124.368C103.191 123.547 100.899 123.547 99.472 124.372L75.7648 138.072Z" fill="#212121"/>
<path d="M151.76 126.021C151.769 126.831 151.237 127.642 150.157 128.261L69.2109 175.041C68.8711 175.242 68.4965 175.399 68.1045 175.53C67.2072 175.835 66.1879 175.974 65.1687 175.957H65.16C64.1844 175.94 63.2261 175.774 62.3898 175.46C62.0761 175.338 61.7801 175.198 61.51 175.042L10.252 145.23C9.19795 144.611 8.66674 143.808 8.66674 142.997L8.63184 135.394C8.64053 136.188 9.17186 136.99 10.2171 137.609L61.4751 167.421C61.7539 167.586 62.0588 167.726 62.3898 167.848C63.2261 168.162 64.1931 168.328 65.16 168.345V168.336C66.1793 168.354 67.2072 168.214 68.1045 167.9C68.4878 167.77 68.8536 167.613 69.1847 167.421L150.131 120.641C151.194 120.03 151.734 119.202 151.734 118.4L151.76 126.021Z" fill="#212121"/>
<path d="M13.1541 147.115C13.0423 147.115 12.9512 147.024 12.9512 146.912V139.317C12.9512 139.205 13.0423 139.114 13.1541 139.114C13.2659 139.114 13.3571 139.205 13.3571 139.317V146.912C13.3569 147.024 13.2658 147.115 13.1541 147.115Z" fill="#212121"/>
<path d="M72.5047 173.344C72.3929 173.344 72.3018 173.253 72.3018 173.141V165.503C72.3018 165.391 72.3929 165.3 72.5047 165.3C72.6165 165.3 72.7076 165.391 72.7076 165.503V173.141C72.7076 173.253 72.6165 173.344 72.5047 173.344Z" fill="#212121"/>
<path d="M145.863 130.949C145.751 130.949 145.66 130.858 145.66 130.746V123.108C145.66 122.996 145.751 122.905 145.863 122.905C145.975 122.905 146.066 122.996 146.066 123.108V130.746C146.066 130.858 145.975 130.949 145.863 130.949Z" fill="#212121"/>
<path d="M68.1044 167.9V175.53C67.207 175.835 66.1877 175.975 65.1685 175.957H65.1598C64.1842 175.94 63.2259 175.774 62.3896 175.46V167.848C63.2259 168.162 64.1929 168.328 65.1598 168.345V168.336C66.1791 168.354 67.2071 168.214 68.1044 167.9Z" fill="#FFBE2E"/>
<path d="M65.3504 176.162C65.2887 176.162 65.2277 176.161 65.1652 176.16C63.7279 176.133 62.3967 175.797 61.4084 175.217L10.1506 145.405C9.06331 144.766 8.46459 143.912 8.46459 142.998L8.42969 135.395C8.42885 135.283 8.51918 135.192 8.63088 135.192C8.63172 135.192 8.63172 135.192 8.63245 135.192C8.7433 135.192 8.83363 135.281 8.8352 135.392C8.84317 136.147 9.37136 136.872 10.3208 137.435L61.5777 167.246C62.513 167.79 63.7657 168.108 65.1096 168.142C65.127 168.136 65.127 168.136 65.1643 168.134C66.6499 168.144 68.0485 167.845 69.0843 167.245L150.03 120.465C150.985 119.917 151.532 119.164 151.532 118.4C151.532 118.288 151.622 118.197 151.735 118.197C151.846 118.197 151.938 118.288 151.938 118.399L151.963 126.02C151.973 126.944 151.367 127.803 150.258 128.438L69.3131 175.218C68.2654 175.829 66.8638 176.162 65.3504 176.162ZM8.84075 136.643L8.8701 142.997C8.8701 143.762 9.39745 144.493 10.3557 145.055L61.6126 174.867C62.5432 175.413 63.8046 175.728 65.1643 175.755C66.6801 175.774 68.0809 175.465 69.1096 174.867L150.056 128.086C151.033 127.526 151.566 126.794 151.558 126.023C151.558 126.022 151.558 126.022 151.558 126.022L151.536 119.652C151.245 120.09 150.803 120.489 150.232 120.817L69.287 167.597C68.2306 168.208 66.8344 168.541 65.3386 168.541C65.2967 168.541 65.2547 168.541 65.2119 168.54C65.1953 168.546 65.1881 168.555 65.1565 168.548C63.7239 168.52 62.3809 168.182 61.3735 167.596L10.1157 137.784C9.55661 137.454 9.12658 137.066 8.84075 136.643Z" fill="#212121"/>
<path d="M18.859 144.48C19.0402 144.585 19.1881 144.841 19.1875 145.053L19.1823 147.314C19.1817 147.526 19.0328 147.608 18.8517 147.503L18.5905 147.352L18.589 147.975C18.5884 148.186 18.4395 148.271 18.2584 148.167L16.6999 147.266C16.5187 147.161 16.3708 146.905 16.3714 146.693L16.3729 146.07L16.1117 145.919C15.9305 145.815 15.7826 145.562 15.7832 145.35L15.7884 143.089C15.789 142.877 15.9379 142.792 16.119 142.897L18.859 144.48Z" fill="#212121"/>
<g opacity="0.1">
<path d="M207.778 179.661C207.778 179.764 207.76 179.866 207.727 179.968C207.694 180.057 207.653 180.145 207.592 180.229C207.555 180.294 207.508 180.355 207.453 180.41C207.369 180.504 207.266 180.597 207.145 180.68C207.09 180.722 207.024 180.76 206.955 180.801L160.681 207.527C159.587 208.155 157.819 208.16 156.73 207.527L134.202 194.429C133.658 194.118 133.388 193.703 133.388 193.294C133.383 192.88 133.662 192.461 134.211 192.144L180.486 165.419C181.584 164.786 183.347 164.786 184.436 165.419L206.969 178.516C207.513 178.833 207.783 179.247 207.778 179.661Z" fill="#212121"/>
</g>
<path d="M207.797 174.947C207.797 175.361 207.522 175.78 206.969 176.102L160.694 202.823C159.601 203.455 157.833 203.455 156.748 202.823L134.216 189.73C133.676 189.413 133.406 189.004 133.402 188.589L133.388 183.279C133.388 183.688 133.658 184.102 134.202 184.414L156.73 197.512C157.819 198.145 159.587 198.14 160.68 197.512L206.955 170.786C207.024 170.744 207.09 170.707 207.145 170.665C207.266 170.581 207.369 170.488 207.453 170.395C207.508 170.339 207.555 170.279 207.592 170.214C207.653 170.13 207.695 170.042 207.727 169.953C207.76 169.851 207.778 169.748 207.778 169.646L207.797 174.947Z" fill="#FFF7E4"/>
<path d="M160.693 202.823C159.6 203.456 157.831 203.456 156.747 202.823L156.729 197.513C157.817 198.146 159.586 198.141 160.679 197.513L160.693 202.823Z" fill="white"/>
<path d="M158.718 203.497C157.967 203.497 157.217 203.331 156.647 202.999L134.114 189.906C133.53 189.562 133.205 189.096 133.2 188.592L133.186 183.284C133.186 183.283 133.186 183.281 133.186 183.28C133.186 183.279 133.186 183.279 133.186 183.279C133.186 183.167 133.276 183.076 133.388 183.076C133.5 183.076 133.591 183.166 133.591 183.278V183.283C133.593 183.632 133.852 183.98 134.303 184.239L156.833 197.337C157.859 197.933 159.54 197.934 160.58 197.336L206.854 170.611C206.938 170.561 206.984 170.534 207.023 170.504C207.131 170.429 207.223 170.349 207.303 170.26C207.353 170.208 207.389 170.162 207.416 170.114C207.471 170.036 207.505 169.971 207.538 169.882C207.562 169.804 207.576 169.724 207.576 169.646C207.576 169.534 207.666 169.443 207.779 169.443C207.89 169.443 207.981 169.534 207.981 169.645L208 174.947V174.948C208 175.458 207.67 175.93 207.071 176.278L160.796 202.999C160.222 203.331 159.47 203.497 158.718 203.497ZM133.593 184.202L133.605 188.589C133.609 188.944 133.863 189.288 134.319 189.555L156.851 202.648C157.877 203.248 159.556 203.248 160.593 202.648L206.868 175.926C207.336 175.655 207.594 175.307 207.594 174.949L207.579 170.558C207.488 170.656 207.38 170.75 207.261 170.832C207.217 170.866 207.158 170.902 207.096 170.939L160.782 197.688C159.63 198.349 157.769 198.35 156.628 197.688L134.1 184.59C133.901 184.476 133.731 184.345 133.593 184.202Z" fill="#212121"/>
<path d="M207.778 169.646C207.778 169.748 207.76 169.851 207.727 169.953C207.694 170.042 207.653 170.13 207.592 170.214C207.555 170.279 207.508 170.339 207.453 170.395C207.369 170.488 207.266 170.581 207.145 170.665C207.09 170.707 207.024 170.744 206.955 170.786L160.681 197.512C159.587 198.14 157.819 198.145 156.73 197.512L134.202 184.414C133.658 184.102 133.388 183.688 133.388 183.279C133.383 182.864 133.662 182.445 134.211 182.129L180.486 155.403C181.584 154.77 183.347 154.77 184.436 155.403L206.969 168.501C207.513 168.818 207.783 169.232 207.778 169.646Z" fill="#FFBE2E"/>
<path d="M158.701 198.185C157.949 198.185 157.199 198.019 156.628 197.688L134.1 184.59C133.52 184.258 133.186 183.779 133.186 183.279C133.18 182.78 133.517 182.296 134.111 181.954L180.385 155.228C181.555 154.555 183.38 154.555 184.539 155.229L207.071 168.327C207.664 168.671 207.987 169.14 207.981 169.648C207.981 169.766 207.961 169.89 207.921 170.015C207.871 170.148 207.82 170.247 207.756 170.334C207.723 170.394 207.665 170.47 207.596 170.539C207.503 170.644 207.388 170.745 207.261 170.832C207.217 170.866 207.158 170.902 207.096 170.939L160.782 197.688C160.206 198.019 159.453 198.185 158.701 198.185ZM182.465 155.131C181.787 155.131 181.106 155.281 180.588 155.58L134.313 182.306C133.85 182.572 133.587 182.926 133.591 183.277C133.591 183.63 133.851 183.98 134.303 184.239L156.833 197.337C157.859 197.933 159.539 197.934 160.58 197.336L206.854 170.611C206.938 170.561 206.984 170.534 207.023 170.504C207.131 170.429 207.223 170.349 207.303 170.26C207.353 170.208 207.389 170.162 207.416 170.114C207.471 170.036 207.505 169.971 207.538 169.882C207.562 169.804 207.576 169.724 207.576 169.646C207.576 169.646 207.576 169.645 207.576 169.644C207.58 169.289 207.328 168.945 206.867 168.677L184.335 155.58C183.821 155.281 183.144 155.131 182.465 155.131Z" fill="#212121"/>
<path d="M197.28 172.065C197.28 172.065 162.876 191.921 162.871 191.916C160.861 190.753 157.61 190.748 155.585 191.906L143.885 185.104C143.989 185.06 144.088 185.005 144.182 184.951C146.206 183.783 146.216 181.887 144.206 180.723C144.187 180.713 144.172 180.703 144.152 180.694L178.259 160.996C178.264 160.996 178.264 161.001 178.269 161.001C180.288 162.164 183.555 162.164 185.564 161.001C185.564 161.001 197.319 167.842 197.314 167.842C195.295 169.006 195.28 170.897 197.28 172.065Z" fill="white"/>
<path d="M155.585 192.109C155.55 192.109 155.515 192.1 155.483 192.082L143.783 185.28C143.717 185.242 143.678 185.169 143.682 185.092C143.687 185.016 143.734 184.948 143.805 184.918C143.901 184.877 143.992 184.826 144.08 184.776C144.998 184.246 145.503 183.554 145.504 182.827C145.505 182.107 145.007 181.422 144.105 180.899C144.042 180.863 143.976 180.781 143.976 180.708C143.976 180.636 143.988 180.554 144.05 180.518L178.157 160.82C178.215 160.787 178.291 160.785 178.351 160.815C178.357 160.818 178.363 160.821 178.37 160.825C180.329 161.955 183.512 161.955 185.463 160.825C185.525 160.788 185.603 160.789 185.666 160.825L195.58 166.597C197.55 167.744 197.55 167.744 197.509 167.895C197.496 167.947 197.462 167.991 197.415 168.018C196.5 168.545 195.994 169.236 195.992 169.961C195.99 170.68 196.483 171.365 197.381 171.89C197.444 171.926 197.482 171.993 197.482 172.066C197.482 172.138 197.443 172.204 197.38 172.241L164.451 191.241C162.963 192.098 162.84 192.174 162.742 192.076C160.793 190.966 157.636 190.967 155.686 192.082C155.655 192.101 155.62 192.109 155.585 192.109ZM159.221 190.844C160.537 190.844 161.851 191.124 162.87 191.683C164.76 190.599 193.654 173.923 196.887 172.057C196.043 171.48 195.584 170.744 195.587 169.96C195.589 169.169 196.06 168.428 196.921 167.848C195.226 166.859 186.595 161.836 185.563 161.234C183.524 162.352 180.304 162.351 178.261 161.229L144.551 180.698C145.43 181.278 145.91 182.026 145.91 182.827C145.909 183.699 145.339 184.511 144.304 185.114L155.587 191.673C156.606 191.12 157.913 190.844 159.221 190.844Z" fill="#212121"/>
<path d="M172.514 179.444C173.318 179.499 173.995 179.394 174.543 179.139L170.555 176.821C169.931 177.069 169.201 177.256 168.363 177.393C167.741 177.492 167.118 177.492 166.507 177.386C165.886 177.287 165.339 177.094 164.837 176.802C163.939 176.28 163.545 175.677 163.624 174.987C163.681 174.534 164.08 174.03 164.834 173.496L164.235 173.148L164.978 172.719L165.577 173.067C166.384 172.688 167.178 172.476 167.962 172.433C168.971 172.383 169.924 172.551 170.823 172.949L169.724 173.819C169.157 173.577 168.622 173.44 168.128 173.427C167.624 173.409 167.13 173.496 166.636 173.682L170.25 175.783C171.045 175.51 171.593 175.342 171.883 175.273C172.442 175.149 172.968 175.081 173.461 175.081C173.955 175.081 174.448 175.143 174.909 175.261C175.38 175.385 175.819 175.553 176.214 175.783C177.081 176.286 177.528 176.871 177.545 177.529C177.585 178.188 177.174 178.785 176.334 179.319L177.596 180.053L176.853 180.482L175.602 179.754C174.892 180.078 174.226 180.289 173.646 180.401C173.044 180.513 172.368 180.519 171.64 180.419C170.9 180.326 170.182 180.109 169.487 179.754L170.522 178.884C171.292 179.22 171.957 179.406 172.514 179.444ZM175.286 178.71C175.706 178.393 175.912 178.039 175.871 177.641C175.82 177.25 175.532 176.895 174.998 176.585C174.548 176.323 174.067 176.168 173.573 176.143C173.069 176.112 172.371 176.23 171.469 176.491L175.286 178.71ZM165.882 174.105C165.462 174.434 165.267 174.77 165.308 175.118C165.338 175.46 165.573 175.758 166.011 176.013C166.439 176.261 166.91 176.398 167.435 176.429C167.961 176.46 168.594 176.355 169.347 176.119L165.882 174.105Z" fill="#FFBE2E"/>
<path d="M183.783 168.358C185.012 169.068 185.019 170.222 183.794 170.933C182.573 171.643 180.582 171.643 179.353 170.933C178.124 170.223 178.117 169.07 179.339 168.36C180.563 167.648 182.554 167.648 183.783 168.358Z" fill="#FFBE2E"/>
<path d="M160.193 181.022C161.422 181.732 161.429 182.886 160.204 183.597C158.983 184.307 156.992 184.307 155.763 183.597C154.534 182.887 154.527 181.734 155.749 181.024C156.973 180.313 158.964 180.313 160.193 181.022Z" fill="#FFBE2E"/>
<path d="M207.797 165.675C207.797 166.09 207.522 166.508 206.969 166.83L160.694 193.551C159.601 194.183 157.833 194.183 156.748 193.551L134.216 180.458C133.676 180.141 133.406 179.732 133.402 179.317L133.388 174.007C133.388 174.416 133.658 174.831 134.202 175.142L156.73 188.24C157.819 188.873 159.587 188.868 160.68 188.24L206.955 161.514C207.024 161.472 207.09 161.435 207.145 161.393C207.266 161.309 207.369 161.216 207.453 161.123C207.508 161.067 207.555 161.007 207.592 160.942C207.653 160.858 207.695 160.77 207.727 160.681C207.76 160.579 207.778 160.476 207.778 160.374L207.797 165.675Z" fill="#FFF7E4"/>
<path d="M160.693 193.551C159.6 194.184 157.831 194.184 156.747 193.551L156.729 188.241C157.817 188.874 159.586 188.869 160.679 188.241L160.693 193.551Z" fill="white"/>
<path d="M158.718 194.226C157.967 194.226 157.217 194.059 156.647 193.726L134.114 180.634C133.53 180.292 133.205 179.825 133.2 179.32L133.186 174.013C133.186 174.012 133.186 174.01 133.186 174.008C133.186 174.008 133.186 174.008 133.186 174.008C133.186 173.896 133.276 173.805 133.388 173.805C133.5 173.805 133.591 173.895 133.591 174.007V174.012C133.593 174.366 133.846 174.704 134.303 174.967L156.833 188.066C157.858 188.663 159.54 188.662 160.58 188.065L206.854 161.339C206.938 161.289 206.984 161.262 207.023 161.232C207.129 161.159 207.22 161.079 207.303 160.988C207.353 160.937 207.389 160.89 207.417 160.842C207.471 160.764 207.505 160.698 207.538 160.61C207.562 160.533 207.576 160.453 207.576 160.375C207.576 160.263 207.666 160.172 207.779 160.172C207.89 160.172 207.98 160.262 207.981 160.374L208 165.675V165.675C208 166.185 207.67 166.658 207.071 167.006L160.796 193.727C160.222 194.059 159.47 194.226 158.718 194.226ZM133.593 174.933L133.605 179.317C133.609 179.672 133.863 180.016 134.319 180.283L156.851 193.376C157.877 193.975 159.556 193.976 160.593 193.375L206.868 166.655C207.336 166.383 207.595 166.035 207.595 165.676L207.579 161.287C207.485 161.387 207.377 161.481 207.261 161.561C207.217 161.594 207.158 161.63 207.096 161.667L160.782 188.417C159.632 189.078 157.769 189.08 156.628 188.416L134.1 175.318C133.9 175.204 133.73 175.074 133.593 174.933Z" fill="#212121"/>
<path d="M207.778 160.374C207.778 160.476 207.76 160.578 207.727 160.681C207.694 160.769 207.653 160.858 207.592 160.941C207.555 161.007 207.508 161.067 207.453 161.123C207.369 161.216 207.266 161.309 207.145 161.393C207.09 161.435 207.024 161.472 206.955 161.514L160.681 188.239C159.587 188.868 157.819 188.872 156.73 188.239L134.202 175.142C133.658 174.83 133.388 174.416 133.388 174.006C133.383 173.592 133.662 173.173 134.211 172.857L180.486 146.131C181.584 145.498 183.347 145.498 184.436 146.131L206.969 159.228C207.513 159.545 207.783 159.959 207.778 160.374Z" fill="#FFBE2E"/>
<path d="M158.7 188.912C157.949 188.912 157.198 188.747 156.628 188.416L134.1 175.318C133.511 174.98 133.186 174.515 133.186 174.007C133.18 173.509 133.517 173.024 134.111 172.681L180.385 145.956C181.555 145.283 183.381 145.284 184.538 145.957L207.071 159.054C207.664 159.398 207.987 159.868 207.981 160.376C207.981 160.495 207.961 160.618 207.921 160.743C207.872 160.875 207.821 160.973 207.757 161.061C207.723 161.122 207.666 161.197 207.597 161.267C207.5 161.374 207.385 161.476 207.261 161.561C207.217 161.594 207.159 161.63 207.096 161.667L160.782 188.417C160.206 188.747 159.452 188.912 158.7 188.912ZM182.465 145.859C181.787 145.859 181.106 146.009 180.588 146.308L134.313 173.033C133.85 173.3 133.587 173.655 133.591 174.005C133.591 174.363 133.844 174.703 134.303 174.967L156.833 188.066C157.858 188.663 159.54 188.662 160.58 188.065L206.854 161.339C206.938 161.289 206.984 161.262 207.023 161.232C207.129 161.159 207.22 161.079 207.303 160.988C207.352 160.937 207.389 160.89 207.417 160.842C207.471 160.764 207.505 160.698 207.538 160.61C207.562 160.533 207.576 160.453 207.576 160.375C207.576 160.374 207.576 160.373 207.576 160.372C207.58 160.017 207.328 159.672 206.867 159.405L184.335 146.307C183.821 146.009 183.144 145.859 182.465 145.859Z" fill="#212121"/>
<path d="M197.28 162.792C197.28 162.792 162.876 182.649 162.871 182.644C160.861 181.48 157.61 181.475 155.585 182.634L143.885 175.832C143.989 175.787 144.088 175.733 144.182 175.679C146.206 174.51 146.216 172.614 144.206 171.451C144.187 171.441 144.172 171.431 144.152 171.421L178.259 151.723C178.264 151.723 178.264 151.728 178.269 151.728C180.288 152.892 183.555 152.892 185.564 151.728C185.564 151.728 197.319 158.57 197.314 158.57C195.295 159.733 195.28 161.624 197.28 162.792Z" fill="white"/>
<path d="M155.585 182.837C155.55 182.837 155.515 182.827 155.483 182.809L143.783 176.007C143.717 175.969 143.678 175.896 143.682 175.819C143.687 175.743 143.734 175.676 143.805 175.646C143.901 175.604 143.992 175.554 144.08 175.504C144.998 174.973 145.503 174.281 145.504 173.554C145.504 172.834 145.007 172.149 144.105 171.628C144.042 171.591 143.976 171.509 143.976 171.437C143.976 171.364 143.988 171.282 144.05 171.246L178.157 151.547C178.218 151.513 178.298 151.513 178.363 151.549C178.365 151.551 178.367 151.551 178.37 151.553C180.329 152.682 183.512 152.682 185.463 151.553C185.526 151.516 185.603 151.517 185.666 151.554L195.58 157.325C197.55 158.472 197.55 158.472 197.509 158.624C197.495 158.675 197.462 158.72 197.415 158.747C196.5 159.274 195.994 159.963 195.992 160.689C195.99 161.408 196.483 162.093 197.381 162.618C197.444 162.655 197.482 162.721 197.482 162.794C197.482 162.866 197.443 162.933 197.38 162.969L168.35 179.72C163.487 182.525 162.917 182.869 162.771 182.817L162.769 182.82C160.822 181.693 157.646 181.689 155.686 182.81C155.655 182.828 155.62 182.837 155.585 182.837ZM159.22 181.572C160.536 181.572 161.852 181.851 162.87 182.411C164.763 181.325 193.654 164.651 196.887 162.785C196.043 162.207 195.584 161.472 195.587 160.688C195.589 159.897 196.06 159.155 196.921 158.576C195.226 157.587 186.595 152.564 185.563 151.963C183.524 153.08 180.305 153.079 178.26 151.956L144.55 171.425C145.43 172.006 145.91 172.754 145.91 173.555C145.909 174.427 145.339 175.238 144.305 175.841L155.588 182.401C156.606 181.848 157.913 181.572 159.22 181.572Z" fill="#212121"/>
<path d="M172.514 170.171C173.318 170.227 173.995 170.121 174.543 169.867L170.555 167.548C169.931 167.797 169.201 167.983 168.363 168.12C167.741 168.22 167.118 168.22 166.507 168.114C165.886 168.014 165.339 167.822 164.837 167.53C163.939 167.008 163.545 166.405 163.624 165.715C163.681 165.261 164.08 164.758 164.834 164.223L164.235 163.875L164.978 163.446L165.577 163.794C166.384 163.415 167.178 163.204 167.962 163.16C168.971 163.111 169.924 163.278 170.823 163.676L169.724 164.547C169.157 164.304 168.622 164.167 168.128 164.155C167.624 164.136 167.13 164.223 166.636 164.41L170.25 166.511C171.045 166.237 171.593 166.069 171.883 166.001C172.442 165.877 172.968 165.808 173.461 165.808C173.955 165.808 174.448 165.87 174.909 165.988C175.38 166.113 175.819 166.281 176.214 166.511C177.081 167.014 177.528 167.598 177.545 168.257C177.585 168.916 177.174 169.512 176.334 170.047L177.596 170.78L176.853 171.209L175.602 170.482C174.892 170.805 174.226 171.016 173.646 171.128C173.044 171.24 172.368 171.246 171.64 171.147C170.9 171.054 170.182 170.836 169.487 170.482L170.522 169.612C171.292 169.947 171.957 170.134 172.514 170.171ZM175.286 169.438C175.706 169.121 175.912 168.767 175.871 168.369C175.82 167.977 175.532 167.623 174.998 167.312C174.548 167.051 174.067 166.896 173.573 166.871C173.069 166.84 172.371 166.958 171.469 167.219L175.286 169.438ZM165.882 164.832C165.462 165.162 165.267 165.497 165.308 165.845C165.338 166.187 165.573 166.486 166.011 166.74C166.439 166.989 166.91 167.126 167.435 167.157C167.961 167.188 168.594 167.082 169.347 166.846L165.882 164.832Z" fill="#FFBE2E"/>
<path d="M183.783 159.086C185.012 159.796 185.019 160.95 183.794 161.661C182.573 162.371 180.582 162.371 179.353 161.661C178.124 160.951 178.117 159.798 179.339 159.088C180.563 158.376 182.554 158.376 183.783 159.086Z" fill="#FFBE2E"/>
<path d="M160.193 171.751C161.422 172.461 161.429 173.614 160.204 174.326C158.983 175.036 156.992 175.036 155.763 174.326C154.534 173.616 154.527 172.463 155.749 171.753C156.973 171.041 158.964 171.041 160.193 171.751Z" fill="#FFBE2E"/>
<path d="M207.797 156.403C207.797 156.817 207.522 157.236 206.969 157.557L160.694 184.278C159.601 184.911 157.833 184.911 156.748 184.278L134.216 171.185C133.676 170.869 133.406 170.459 133.402 170.045L133.388 164.734C133.388 165.144 133.658 165.558 134.202 165.87L156.73 178.967C157.819 179.6 159.587 179.596 160.68 178.967L206.955 152.242C207.024 152.2 207.09 152.163 207.145 152.121C207.266 152.037 207.369 151.944 207.453 151.851C207.508 151.795 207.555 151.734 207.592 151.669C207.653 151.586 207.695 151.497 207.727 151.409C207.76 151.306 207.778 151.204 207.778 151.102L207.797 156.403Z" fill="#FFF7E4"/>
<path d="M160.693 184.278C159.6 184.911 157.831 184.911 156.747 184.278L156.729 178.968C157.817 179.601 159.586 179.596 160.679 178.968L160.693 184.278Z" fill="white"/>
<path d="M158.718 184.953C157.967 184.953 157.217 184.788 156.647 184.455L134.114 171.362C133.53 171.019 133.205 170.552 133.2 170.048L133.186 164.74C133.186 164.739 133.186 164.737 133.186 164.736C133.186 164.735 133.186 164.735 133.186 164.735C133.186 164.623 133.276 164.532 133.388 164.532C133.5 164.532 133.591 164.622 133.591 164.734V164.739C133.593 165.088 133.852 165.436 134.303 165.695L156.833 178.793C157.858 179.39 159.54 179.389 160.58 178.792L206.854 152.067C206.938 152.017 206.984 151.99 207.023 151.96C207.131 151.885 207.223 151.805 207.303 151.716C207.353 151.664 207.389 151.618 207.416 151.57C207.471 151.493 207.505 151.427 207.539 151.338C207.562 151.261 207.576 151.18 207.576 151.102C207.576 150.991 207.666 150.899 207.779 150.899C207.89 150.899 207.981 150.99 207.981 151.102L208 156.403V156.404C208 156.914 207.67 157.386 207.071 157.734L160.796 184.455C160.222 184.787 159.47 184.953 158.718 184.953ZM133.593 165.658L133.605 170.045C133.609 170.4 133.863 170.744 134.319 171.012L156.851 184.104C157.877 184.704 159.556 184.704 160.593 184.104L206.868 157.382C207.336 157.111 207.594 156.763 207.594 156.405L207.579 152.014C207.488 152.112 207.38 152.206 207.261 152.289C207.217 152.323 207.158 152.358 207.096 152.395L160.782 179.145C159.632 179.806 157.768 179.807 156.628 179.144L134.1 166.046C133.901 165.932 133.731 165.801 133.593 165.658Z" fill="#212121"/>
<path d="M207.778 151.101C207.778 151.204 207.76 151.306 207.727 151.409C207.694 151.497 207.653 151.586 207.592 151.669C207.555 151.734 207.508 151.795 207.453 151.851C207.369 151.944 207.266 152.037 207.145 152.121C207.09 152.163 207.024 152.2 206.955 152.242L160.681 178.967C159.587 179.596 157.819 179.6 156.73 178.967L134.202 165.87C133.658 165.558 133.388 165.144 133.388 164.734C133.383 164.32 133.662 163.901 134.211 163.585L180.486 136.859C181.584 136.226 183.347 136.226 184.436 136.859L206.969 149.957C207.513 150.273 207.783 150.687 207.778 151.101Z" fill="#FFBE2E"/>
<path d="M158.701 179.64C157.949 179.64 157.198 179.475 156.628 179.143L134.1 166.046C133.52 165.714 133.186 165.235 133.186 164.735C133.18 164.235 133.517 163.752 134.111 163.409L180.385 136.684C181.555 136.01 183.38 136.01 184.539 136.685L207.071 149.782C207.664 150.126 207.987 150.595 207.981 151.104C207.981 151.222 207.961 151.343 207.921 151.471C207.87 151.605 207.82 151.703 207.756 151.789C207.723 151.849 207.665 151.926 207.596 151.994C207.503 152.099 207.388 152.201 207.261 152.288C207.217 152.322 207.158 152.357 207.096 152.395L160.782 179.144C160.206 179.475 159.452 179.64 158.701 179.64ZM182.465 136.586C181.787 136.586 181.106 136.736 180.588 137.036L134.313 163.761C133.85 164.027 133.587 164.382 133.591 164.732C133.591 165.086 133.851 165.435 134.303 165.694L156.833 178.793C157.859 179.39 159.541 179.39 160.58 178.792L206.854 152.067C206.938 152.017 206.984 151.99 207.023 151.96C207.131 151.884 207.223 151.804 207.303 151.715C207.353 151.664 207.389 151.618 207.416 151.57C207.471 151.493 207.505 151.427 207.539 151.337C207.562 151.26 207.576 151.18 207.576 151.102C207.576 151.101 207.576 151.1 207.576 151.099C207.58 150.744 207.328 150.4 206.867 150.132L184.335 137.035C183.821 136.736 183.144 136.586 182.465 136.586Z" fill="#212121"/>
<path d="M197.28 153.52C197.28 153.52 162.876 173.376 162.871 173.371C160.861 172.208 157.61 172.203 155.585 173.361L143.885 166.559C143.989 166.515 144.088 166.46 144.182 166.406C146.206 165.238 146.216 163.342 144.206 162.178C144.187 162.168 144.172 162.158 144.152 162.149L178.259 142.451C178.264 142.451 178.264 142.456 178.269 142.456C180.288 143.619 183.555 143.619 185.564 142.456C185.564 142.456 197.319 149.297 197.314 149.297C195.295 150.461 195.28 152.352 197.28 153.52Z" fill="white"/>
<path d="M155.585 173.565C155.55 173.565 155.515 173.556 155.483 173.538L143.783 166.736C143.717 166.698 143.678 166.625 143.682 166.548C143.687 166.472 143.734 166.404 143.805 166.374C143.901 166.333 143.993 166.281 144.081 166.232C144.998 165.702 145.503 165.01 145.504 164.282C145.504 163.562 145.007 162.878 144.105 162.355C144.042 162.319 143.976 162.237 143.976 162.164C143.976 162.092 143.988 162.011 144.05 161.974L178.157 142.276C178.215 142.243 178.291 142.241 178.351 142.271C178.357 142.274 178.363 142.277 178.37 142.281C180.329 143.411 183.512 143.411 185.463 142.281C185.525 142.244 185.603 142.245 185.666 142.281L195.58 148.053C197.55 149.2 197.55 149.2 197.509 149.351C197.496 149.403 197.462 149.447 197.415 149.474C196.5 150.001 195.994 150.692 195.992 151.417C195.99 152.136 196.483 152.821 197.381 153.346C197.444 153.382 197.482 153.449 197.482 153.522C197.482 153.594 197.443 153.66 197.38 153.697L164.451 172.697C162.963 173.554 162.84 173.629 162.742 173.532C160.793 172.422 157.636 172.423 155.686 173.538C155.655 173.557 155.62 173.565 155.585 173.565ZM159.221 172.3C160.537 172.3 161.851 172.58 162.87 173.139C164.76 172.055 193.654 155.379 196.887 153.513C196.043 152.936 195.584 152.2 195.587 151.416C195.589 150.625 196.06 149.884 196.921 149.304C195.226 148.315 186.595 143.292 185.563 142.69C183.524 143.809 180.304 143.806 178.261 142.685L144.551 162.154C145.43 162.734 145.91 163.482 145.91 164.283C145.909 165.155 145.339 165.967 144.305 166.57L155.587 173.129C156.606 172.576 157.913 172.3 159.221 172.3Z" fill="#212121"/>
<path d="M184.156 149.984C185.385 150.694 185.392 151.848 184.167 152.559C182.946 153.269 180.955 153.269 179.726 152.559C178.497 151.849 178.49 150.696 179.712 149.986C180.936 149.274 182.927 149.274 184.156 149.984Z" fill="#978050"/>
<path d="M160.192 163.824C161.421 164.534 161.428 165.687 160.203 166.399C158.982 167.108 156.991 167.108 155.762 166.399C154.533 165.689 154.526 164.536 155.748 163.826C156.972 163.114 158.963 163.114 160.192 163.824Z" fill="#978050"/>
<path d="M175.569 154.492C178.635 156.291 178.651 159.214 175.597 161.018C172.551 162.818 167.586 162.818 164.52 161.019C161.454 159.219 161.438 156.296 164.484 154.496C167.538 152.692 172.503 152.692 175.569 154.492Z" fill="#978050"/>
<path d="M187.767 204.234C187.206 204.234 186.662 204.365 186.276 204.592C185.966 204.774 185.788 204.998 185.788 205.206C185.788 205.412 185.962 205.633 186.267 205.813C186.649 206.04 187.191 206.17 187.751 206.17C188.312 206.17 188.855 206.04 189.241 205.813C189.551 205.63 189.729 205.406 189.729 205.198C189.73 204.992 189.555 204.771 189.251 204.591C188.869 204.364 188.328 204.234 187.767 204.234Z" fill="#FFBE2E"/>
<path d="M190.351 206.737C191.791 205.89 191.799 204.515 190.368 203.668C188.937 202.821 186.609 202.822 185.169 203.669C183.729 204.516 183.722 205.89 185.152 206.737C186.583 207.584 188.911 207.584 190.351 206.737Z" fill="white"/>
<path d="M187.747 207.571C186.768 207.571 185.791 207.35 185.048 206.91C184.293 206.464 183.878 205.858 183.88 205.206C183.881 204.55 184.302 203.942 185.065 203.493C186.558 202.614 188.983 202.612 190.47 203.493C191.224 203.939 191.638 204.545 191.637 205.197C191.636 205.854 191.215 206.462 190.452 206.911C189.704 207.35 188.725 207.571 187.747 207.571ZM187.772 203.233C186.867 203.233 185.961 203.437 185.27 203.843C184.636 204.216 184.286 204.7 184.285 205.207C184.284 205.709 184.628 206.191 185.254 206.562C186.626 207.374 188.866 207.374 190.246 206.561C190.881 206.188 191.231 205.703 191.232 205.197C191.233 204.693 190.889 204.213 190.264 203.842C189.578 203.436 188.676 203.233 187.772 203.233Z" fill="#DBDEE4"/>
<path d="M200.446 196.882C199.843 196.882 199.259 197.022 198.845 197.266C198.512 197.461 198.321 197.702 198.32 197.925C198.32 198.146 198.507 198.384 198.834 198.577C199.245 198.821 199.826 198.96 200.429 198.96C201.031 198.96 201.614 198.821 202.028 198.577C202.362 198.381 202.553 198.14 202.553 197.916C202.553 197.696 202.366 197.458 202.04 197.265C201.629 197.021 201.048 196.882 200.446 196.882Z" fill="#212121"/>
<path d="M187.751 204.234C188.313 204.234 188.856 204.365 189.242 204.592C189.552 204.774 189.73 204.998 189.73 205.206C189.73 205.412 189.556 205.633 189.251 205.813C188.869 206.04 188.328 206.17 187.767 206.17C187.206 206.17 186.663 206.04 186.278 205.813C185.967 205.63 185.789 205.406 185.789 205.198C185.789 204.992 185.963 204.771 186.267 204.591C186.649 204.364 187.19 204.234 187.751 204.234Z" fill="#FFBE2E"/>
<path d="M131.106 150.354C130.528 150.354 129.969 150.486 129.571 150.716C129.252 150.9 129.069 151.127 129.068 151.338C129.068 151.546 129.248 151.77 129.561 151.952C129.955 152.182 130.513 152.313 131.09 152.313C131.668 152.313 132.227 152.181 132.624 151.952C132.944 151.767 133.127 151.54 133.128 151.329C133.128 151.121 132.948 150.897 132.635 150.715C132.241 150.486 131.684 150.354 131.106 150.354Z" fill="#212121"/>
<path d="M36.5248 56.801C36.4899 56.801 36.4552 56.7922 36.4235 56.774C36.3269 56.7177 36.2936 56.5933 36.3491 56.4966L39.7829 50.5436C39.8011 50.5126 39.8265 50.4873 39.8574 50.4691L44.8417 47.5885C44.9367 47.533 45.0611 47.5656 45.1188 47.663C45.1742 47.7597 45.141 47.8842 45.0444 47.9404L40.1069 50.7933L36.7009 56.6995C36.6626 56.7646 36.5945 56.801 36.5248 56.801Z" fill="#212121"/>
<path d="M13.6392 90.6939C13.5695 90.6939 13.5014 90.6574 13.4633 90.5925C13.4079 90.4958 13.4411 90.3713 13.5377 90.315L18.4793 87.4606L21.8852 81.5543C21.9415 81.4561 22.0673 81.4243 22.1624 81.4799C22.259 81.5362 22.2923 81.6606 22.2369 81.7573L18.8031 87.7103C18.7849 87.7412 18.7595 87.7666 18.7287 87.7848L13.7405 90.6669C13.7089 90.685 13.6741 90.6939 13.6392 90.6939Z" fill="#212121"/>
<path d="M13.5708 66.0974C13.5011 66.0974 13.433 66.0609 13.395 65.996C13.3396 65.8993 13.3728 65.7748 13.4694 65.7186L18.4576 62.8365C18.521 62.8 18.5963 62.8 18.6595 62.8365L22.1154 64.8078C22.2128 64.8633 22.246 64.987 22.1906 65.0845C22.1352 65.182 22.0101 65.2146 21.9142 65.1598L18.5597 63.2462L13.672 66.0705C13.6405 66.0887 13.6057 66.0974 13.5708 66.0974Z" fill="#212121"/>
<path d="M40.0287 75.4441C39.9938 75.4441 39.9599 75.4354 39.9281 75.4172L36.4721 73.4458C36.3747 73.3903 36.3415 73.2667 36.3969 73.1691C36.4523 73.0709 36.5752 73.0368 36.6733 73.0938L40.0278 75.0074L44.9115 72.1847C45.0057 72.1292 45.1317 72.1618 45.1887 72.2592C45.2441 72.3559 45.2109 72.4804 45.1142 72.5366L40.1299 75.4172C40.0984 75.4354 40.0635 75.4441 40.0287 75.4441Z" fill="#212121"/>
<path d="M24.582 74.8991C25.5142 76.2751 27.2897 76.5537 29.3262 75.3768C31.3124 74.2289 33.044 71.9815 33.9748 69.6025L38.0876 69.9559C36.3394 74.4434 33.0812 78.667 29.3416 80.8281C25.5472 83.0209 22.239 82.5339 20.4893 79.9943L24.582 74.8991Z" fill="#FFBE2E"/>
<path d="M29.2758 57.4844L29.2913 62.9356C26.3095 64.6587 23.8883 68.8566 23.898 72.286C23.9011 73.3731 24.1505 74.2548 24.5823 74.8994L20.4896 79.9948C19.6493 78.7813 19.1642 77.11 19.1583 75.025C19.14 68.581 23.6686 60.7247 29.2758 57.4844Z" fill="#978050"/>
<path d="M29.2764 57.4847C34.8744 54.2496 39.4371 56.8521 39.4554 63.296C39.4614 65.4336 38.9557 67.7247 38.0885 69.9565L33.9758 69.6032C34.448 68.4045 34.719 67.1748 34.7158 66.0351C34.706 62.6057 32.2689 61.2155 29.2918 62.9359L29.2764 57.4847Z" fill="#212121"/>
<path d="M45.005 43.5376L45.0126 46.2369L39.4627 49.4442L39.4551 46.7449L45.005 43.5376Z" fill="#FFBE2E"/>
<path d="M45.7754 73.8008L45.7831 76.5001L40.2332 79.7073L40.2256 77.0081L45.7754 73.8008Z" fill="#FFBE2E"/>
<path d="M19.1202 88.9453L19.1278 91.6445L13.5779 94.8518L13.5703 92.1525L19.1202 88.9453Z" fill="#FFBE2E"/>
<path d="M18.6065 58.5469L18.6141 61.2461L13.0642 64.4533L13.0566 61.7541L18.6065 58.5469Z" fill="#FFBE2E"/>
<path d="M13.5786 102.983C13.5089 102.983 13.4408 102.947 13.4028 102.882C13.3474 102.784 13.3806 102.661 13.4773 102.604L45.681 84.0319C45.7761 83.9764 45.9005 84.0089 45.9582 84.1065C46.0136 84.204 45.9804 84.3277 45.8838 84.3839L13.6801 102.956C13.6483 102.975 13.6134 102.983 13.5786 102.983Z" fill="#212121"/>
<path d="M13.5786 108.564C13.5089 108.564 13.4408 108.527 13.4028 108.462C13.3474 108.365 13.3806 108.241 13.4773 108.185L45.7142 89.5932C45.8093 89.5386 45.9337 89.5694 45.9914 89.6677C46.0468 89.7652 46.0136 89.8889 45.917 89.9451L13.6801 108.537C13.6483 108.555 13.6134 108.564 13.5786 108.564Z" fill="#212121"/>
<path d="M13.5786 114.142C13.5089 114.142 13.4408 114.105 13.4028 114.04C13.3474 113.943 13.3806 113.819 13.4773 113.763L46.5743 94.6759C46.6693 94.6204 46.7937 94.653 46.8514 94.7505C46.9068 94.8481 46.8736 94.9717 46.7769 95.0279L13.6799 114.115C13.6483 114.133 13.6134 114.142 13.5786 114.142Z" fill="#212121"/>
<path d="M13.5786 119.722C13.5089 119.722 13.4408 119.686 13.4028 119.621C13.3474 119.523 13.3806 119.4 13.4773 119.343L46.5743 100.256C46.6693 100.2 46.7937 100.233 46.8514 100.33C46.9068 100.428 46.8736 100.551 46.7769 100.607L13.6799 119.695C13.6483 119.713 13.6134 119.722 13.5786 119.722Z" fill="#212121"/>
<path d="M55.8739 86.4951L55.9018 96.3395L51.9379 98.6332L51.9102 88.7889L55.8739 86.4951Z" fill="#FFBE2E"/>
<path d="M64.0332 78.6318L64.0699 91.6133L60.1062 93.907L60.0693 80.9256L64.0332 78.6318Z" fill="#978050"/>
<path d="M68.2721 89.1805L68.2236 72.0672L72.1875 69.7734L72.2358 86.8868L68.2721 89.1805Z" fill="#FFBE2E"/>
<path d="M80.3407 59.5967L80.4046 82.1607L76.4407 84.4544L76.377 61.8904L80.3407 59.5967Z" fill="#978050"/>
<path d="M88.488 47.6826L88.5721 77.4347L84.6125 79.726L84.5283 49.9739L88.488 47.6826Z" fill="#FFBE2E"/>
<path d="M82.6516 30.2134L84.4183 40.4234L81.7795 40.2933C75.9356 54.1019 65.5347 66.9555 53.8252 73.7315C52.4393 74.5335 51.0354 75.2502 49.6182 75.8736C63.0128 67.6746 72.8662 52.7496 76.6151 40.0367L73.5377 39.8849L82.6516 30.2134Z" fill="#212121"/>
<g opacity="0.1">
<path d="M206.06 90.2851C208.339 91.6018 208.339 93.7413 206.075 95.0579L197.279 100.063C195.015 101.38 191.336 101.38 189.058 100.063L130.819 66.41C128.528 65.0861 128.516 62.9537 130.779 61.637L139.576 56.6317C141.839 55.315 145.53 55.308 147.821 56.6319L206.06 90.2851Z" fill="#212121"/>
</g>
<path d="M207.796 82.7288L207.756 88.5611C207.729 89.4245 207.172 90.2882 206.044 90.9525L197.246 95.9445C196.835 96.1836 196.37 96.3827 195.865 96.5422C194.366 97.0207 192.56 97.0602 190.981 96.6885C190.264 96.5289 189.6 96.2765 189.016 95.9444L130.795 62.2919C129.627 61.6275 129.069 60.7508 129.069 59.887L129.109 54.0415C129.109 54.9182 129.693 55.782 130.835 56.4463L189.082 90.1118C189.64 90.4306 190.29 90.6833 190.981 90.8293C192.547 91.2146 194.339 91.1747 195.865 90.7229C196.383 90.5636 196.874 90.3642 197.299 90.1119L206.084 85.0935C207.225 84.456 207.796 83.5789 207.796 82.7288Z" fill="#FFF7E4"/>
<path d="M195.866 90.7236V96.5428C194.367 97.0213 192.561 97.0608 190.981 96.6891V90.83C192.548 91.2154 194.34 91.1755 195.866 90.7236Z" fill="#212121"/>
<path d="M193.148 97.1389C191.622 97.1389 190.092 96.8012 188.92 96.1259L130.694 62.4647C129.516 61.7965 128.866 60.8785 128.866 59.8813L128.905 54.0408V54.0393C128.906 53.9283 128.996 53.8379 129.108 53.8379H129.109C129.22 53.8379 129.31 53.929 129.31 54.0408C129.31 54.8748 129.888 55.6666 130.936 56.2715L189.181 89.932C191.392 91.2193 194.99 91.2184 197.202 89.9328L205.985 84.9174C206.995 84.3515 207.578 83.5628 207.589 82.7487V82.7257V82.7241C207.59 82.6132 207.68 82.5228 207.792 82.5228H207.793C207.904 82.5228 207.994 82.6139 207.994 82.7257C207.994 82.7266 207.994 82.7266 207.994 82.7273C207.994 82.736 207.994 82.744 207.994 82.7527L207.956 88.5678C207.934 89.5356 207.275 90.4678 206.149 91.1297L197.345 96.1268C196.194 96.8013 194.674 97.1389 193.148 97.1389ZM129.302 55.3353L129.272 59.8829C129.272 60.7263 129.848 61.5182 130.895 62.1119L189.123 95.774C191.353 97.0613 194.951 97.0605 197.143 95.7749L205.946 90.7777C206.947 90.1904 207.532 89.3826 207.55 88.5614L207.58 84.0343C207.271 84.5028 206.798 84.9269 206.184 85.2702L197.404 90.2838C195.082 91.6345 191.303 91.6353 188.977 90.283L130.733 56.6233C130.094 56.2548 129.611 55.8165 129.302 55.3353Z" fill="#212121"/>
<path d="M206.078 80.3276C208.356 81.6443 208.356 83.7838 206.093 85.1003L197.296 90.1056C195.033 91.4223 191.354 91.4223 189.075 90.1056L130.836 56.4525C128.545 55.1286 128.533 52.9961 130.797 51.6794L139.593 46.6742C141.857 45.3575 145.548 45.3505 147.839 46.6743L206.078 80.3276Z" fill="#FFF7E4"/>
<path d="M193.193 91.2923C191.667 91.2923 190.14 90.9554 188.975 90.2824L130.736 56.629C129.557 55.9481 128.908 55.0326 128.906 54.052C128.905 53.081 129.541 52.1765 130.695 51.5051L139.493 46.4986C141.814 45.1486 145.603 45.1502 147.941 46.4994L206.18 80.1528C207.347 80.8274 207.99 81.7382 207.992 82.7163C207.993 83.6929 207.355 84.6021 206.196 85.2767L197.398 90.2832C196.241 90.9554 194.718 91.2923 193.193 91.2923ZM143.711 45.8867C142.255 45.8867 140.801 46.2085 139.696 46.8506L130.898 51.8571C129.874 52.4516 129.31 53.2316 129.312 54.0512C129.313 54.8812 129.891 55.6723 130.938 56.2771L189.178 89.9304C191.395 91.213 194.992 91.2113 197.195 89.9313L205.993 84.9247C207.021 84.327 207.588 83.5422 207.586 82.717C207.586 81.8895 207.014 81.1031 205.977 80.5046L147.738 46.8513C146.626 46.2086 145.167 45.8867 143.711 45.8867Z" fill="#212121"/>
<g opacity="0.1">
<path d="M184.216 80.7031L192.534 85.5461L197.283 82.802L188.965 77.959L184.216 80.7031Z" fill="#212121"/>
</g>
<g opacity="0.1">
<path d="M162.077 67.8647L170.395 72.7077L175.144 69.9636L166.826 65.1206L162.077 67.8647Z" fill="#212121"/>
</g>
<g opacity="0.1">
<path d="M139.772 55.0805L148.091 59.9236L152.84 57.1796L144.521 52.3364L139.772 55.0805Z" fill="#212121"/>
</g>
<path d="M148.181 16.7302L152.047 14.481L151.965 55.7097L148.099 57.9591L148.181 16.7302Z" fill="#212121"/>
<path d="M148.097 58.1621C148.062 58.1621 148.027 58.1534 147.996 58.1351C147.933 58.0986 147.895 58.0313 147.895 57.9584L147.977 16.7294C147.977 16.6572 148.016 16.5906 148.077 16.555L151.944 14.3061C152.008 14.2696 152.085 14.2688 152.148 14.3052C152.21 14.3417 152.249 14.4091 152.249 14.482L152.167 55.7101C152.167 55.7823 152.128 55.8489 152.066 55.8845L148.199 58.1341C148.168 58.1525 148.132 58.1621 148.097 58.1621ZM148.382 16.8475L148.301 57.6064L151.761 55.593L151.843 14.8341L148.382 16.8475Z" fill="#212121"/>
<path d="M156.328 16.731L152.461 18.9826C152.691 18.8453 152.746 18.4335 152.51 17.9667L145.076 3.13366C144.944 2.86459 144.752 2.65596 144.555 2.54597C144.385 2.44709 144.209 2.41965 144.083 2.49665L147.951 0.244977C148.077 0.173661 148.253 0.19566 148.423 0.294415C148.615 0.40973 148.812 0.612803 148.944 0.882114L156.378 15.715C156.614 16.1873 156.559 16.5992 156.328 16.731Z" fill="#212121"/>
<path d="M152.461 19.1858C152.391 19.1858 152.324 19.1502 152.286 19.086C152.23 18.9893 152.262 18.8656 152.357 18.8086C152.467 18.7435 152.532 18.4606 152.33 18.0587L144.895 3.22516C144.786 2.99997 144.626 2.81769 144.457 2.7234C144.348 2.66079 144.245 2.63855 144.194 2.66792L144.186 2.67191C144.089 2.72981 143.967 2.69645 143.909 2.60059C143.852 2.50462 143.883 2.38181 143.978 2.32318C143.983 2.32077 143.989 2.31762 143.993 2.31448L147.849 0.0695768C148.042 -0.0389696 148.287 -0.0191448 148.525 0.1195C148.77 0.266122 148.989 0.511138 149.126 0.792536L156.559 15.6236C156.832 16.169 156.777 16.708 156.429 16.907L152.563 19.1581C152.531 19.177 152.496 19.1858 152.461 19.1858ZM144.681 2.38411C144.909 2.51888 145.119 2.75906 145.259 3.04517L152.692 17.8754C152.802 18.0958 152.859 18.3161 152.864 18.5135L156.227 16.5556C156.228 16.5547 156.228 16.5547 156.228 16.5547C156.34 16.4905 156.391 16.1949 156.197 15.8048L148.763 0.97288C148.658 0.758084 148.497 0.574958 148.319 0.468708C148.216 0.407666 148.109 0.389414 148.05 0.421084L144.681 2.38411Z" fill="#212121"/>
<path d="M144.555 2.54431C144.749 2.65636 144.943 2.86451 145.078 3.13382L152.509 17.9651C152.868 18.6772 152.554 19.2585 151.987 18.9306L148.179 16.7302L148.097 57.9589L140.783 53.7321L140.866 12.5034L137.058 10.303C136.49 9.97502 136.177 9.03134 136.543 8.73834L144.034 2.53053C144.168 2.41618 144.361 2.43225 144.555 2.54431Z" fill="#FFBE2E"/>
<path d="M148.097 58.1625C148.062 58.1625 148.028 58.1538 147.996 58.1356L140.683 53.909C140.62 53.8725 140.581 53.8052 140.581 53.7323L140.663 12.6214L136.957 10.4796C136.493 10.2109 136.219 9.64498 136.187 9.22482C136.166 8.94499 136.247 8.71678 136.417 8.58043L143.905 2.37528C144.096 2.21197 144.378 2.20799 144.657 2.36899C144.657 2.36899 144.657 2.36899 144.657 2.36984C144.896 2.50776 145.115 2.7535 145.259 3.04445L152.69 17.8747C152.932 18.3526 152.92 18.8385 152.662 19.0827C152.469 19.2666 152.18 19.2761 151.886 19.1073L148.382 17.082L148.3 57.9606C148.3 58.0327 148.261 58.0993 148.199 58.1357C148.167 58.1538 148.132 58.1625 148.097 58.1625ZM140.987 53.6157L147.895 57.6084L147.977 16.7299C147.977 16.6577 148.016 16.5911 148.078 16.5547C148.142 16.5182 148.218 16.5182 148.281 16.5547L152.089 18.7553C152.165 18.7996 152.306 18.8631 152.383 18.7878C152.486 18.6902 152.502 18.4017 152.328 18.0577L144.896 3.22576C144.786 3.00383 144.626 2.81986 144.455 2.72086C144.408 2.69391 144.251 2.61304 144.166 2.6852L136.673 8.89507C136.609 8.94584 136.581 9.05438 136.591 9.19472C136.615 9.50549 136.833 9.93907 137.16 10.1278L140.967 12.3282C141.03 12.3647 141.068 12.432 141.068 12.5049L140.987 53.6157Z" fill="#212121"/>
<path d="M170.342 36.2317L174.209 33.9824L174.126 68.5182L170.26 70.7674L170.342 36.2317Z" fill="#212121"/>
<path d="M170.261 70.9704C170.226 70.9704 170.192 70.9617 170.16 70.9434C170.097 70.9069 170.059 70.8396 170.059 70.7667L170.14 36.2304C170.14 36.1582 170.179 36.0916 170.241 36.0559L174.108 33.807C174.171 33.7705 174.248 33.7698 174.311 33.8063C174.374 33.8428 174.413 33.9101 174.413 33.983L174.33 68.5187C174.33 68.5908 174.291 68.6574 174.23 68.6931L170.364 70.9427C170.332 70.9608 170.296 70.9704 170.261 70.9704ZM170.546 36.3483L170.465 70.4139L173.925 68.4013L174.006 34.3349L170.546 36.3483Z" fill="#212121"/>
<path d="M178.493 36.2305L174.625 38.482C174.856 38.3503 174.911 37.9383 174.675 37.4662L167.246 22.6387C167.109 22.3641 166.912 22.1609 166.72 22.0456C166.549 21.9467 166.374 21.9248 166.242 22.0016L170.11 19.7501C170.242 19.6731 170.412 19.6951 170.587 19.7994C170.779 19.9094 170.977 20.1179 171.109 20.3871L178.543 35.2201C178.779 35.6868 178.718 36.0987 178.493 36.2305Z" fill="#212121"/>
<path d="M174.626 38.6849C174.556 38.6849 174.488 38.6484 174.45 38.5835C174.394 38.4868 174.427 38.3632 174.524 38.3068L174.527 38.3044C174.638 38.2394 174.687 37.9446 174.493 37.5578L167.065 22.7298C166.957 22.5119 166.793 22.3255 166.616 22.2201C166.51 22.1582 166.407 22.1417 166.345 22.1765C166.247 22.2328 166.123 22.201 166.068 22.1036C166.011 22.0069 166.044 21.8824 166.14 21.8262L170.008 19.575C170.203 19.4624 170.444 19.4791 170.691 19.6249C170.93 19.762 171.149 20.0077 171.291 20.2987L178.725 35.129C178.995 35.6657 178.941 36.2031 178.596 36.4061C178.596 36.4061 178.595 36.4061 178.595 36.4061L174.733 38.6548C174.731 38.6557 174.729 38.6564 174.728 38.6573C174.727 38.6581 174.726 38.6581 174.726 38.6581C174.695 38.6762 174.66 38.6849 174.626 38.6849ZM166.846 21.8848C167.083 22.0338 167.288 22.2677 167.428 22.5483L174.856 37.3754C174.966 37.5966 175.023 37.8161 175.029 38.0126L178.391 36.0555C178.503 35.9889 178.555 35.6933 178.362 35.3112L170.927 20.4785C170.821 20.2606 170.657 20.0726 170.486 19.9752C170.432 19.942 170.299 19.8769 170.212 19.9253L166.846 21.8848Z" fill="#212121"/>
<path d="M166.721 22.0464C166.915 22.1585 167.109 22.3666 167.245 22.6369L174.676 37.4682C175.032 38.1784 174.718 38.7595 174.151 38.4316L170.343 36.2312L170.261 70.7669L162.947 66.5401L163.029 32.0044L159.225 29.806C158.658 29.4781 158.345 28.5344 158.707 28.2394L166.198 22.0316C166.333 21.9183 166.527 21.9344 166.721 22.0464Z" fill="#FFBE2E"/>
<path d="M170.261 70.9701C170.226 70.9701 170.191 70.9613 170.16 70.9431L162.846 66.7157C162.783 66.6792 162.744 66.6119 162.744 66.539L162.826 32.1216L159.124 29.9821C158.662 29.715 158.386 29.1506 158.352 28.7304C158.33 28.4497 158.41 28.2191 158.578 28.082L166.068 21.8753C166.262 21.7129 166.544 21.7089 166.822 21.8713C167.059 22.0068 167.278 22.2534 167.426 22.5459L174.857 37.377C175.096 37.855 175.084 38.3393 174.825 38.5835C174.631 38.7666 174.341 38.7746 174.049 38.6073L170.545 36.582L170.464 70.7681C170.464 70.8402 170.425 70.9068 170.362 70.9432C170.331 70.9613 170.296 70.9701 170.261 70.9701ZM163.15 66.4223L170.059 70.4158L170.14 36.2298C170.14 36.1576 170.179 36.091 170.241 36.0546C170.304 36.0181 170.38 36.0181 170.444 36.0546L174.251 38.2552C174.328 38.2995 174.47 38.3637 174.547 38.2877C174.65 38.191 174.666 37.9025 174.494 37.5592L167.063 22.7281C166.951 22.5046 166.788 22.3199 166.619 22.2224C166.619 22.2224 166.619 22.2224 166.619 22.2215C166.559 22.1874 166.412 22.1153 166.327 22.1867L158.835 28.395C158.773 28.4458 158.745 28.5559 158.757 28.6978C158.781 29.0086 159.001 29.4429 159.326 29.63L163.13 31.8281C163.192 31.8646 163.231 31.9319 163.231 32.0048L163.15 66.4223Z" fill="#212121"/>
<path d="M192.509 58.572L196.376 56.3228L196.293 81.3273L192.427 83.5766L192.509 58.572Z" fill="#212121"/>
<path d="M192.426 83.7804C192.391 83.7804 192.357 83.7717 192.325 83.7535C192.262 83.717 192.224 83.6496 192.224 83.5767L192.306 58.5724C192.306 58.5002 192.345 58.4336 192.407 58.398L196.273 56.1484C196.337 56.1119 196.414 56.1111 196.477 56.1475C196.539 56.184 196.578 56.2514 196.578 56.3242L196.496 81.3286C196.496 81.4007 196.457 81.4673 196.395 81.503L192.528 83.7526C192.497 83.771 192.461 83.7804 192.426 83.7804ZM192.711 58.6905L192.63 83.224L196.09 81.2106L196.172 56.6771L192.711 58.6905Z" fill="#212121"/>
<path d="M200.659 58.5737L196.791 60.8198C197.016 60.6881 197.071 60.2761 196.841 59.8093L189.407 44.9765C189.27 44.7073 189.078 44.4987 188.885 44.3834C188.71 44.2844 188.54 44.2626 188.408 44.3394L192.271 42.0877C192.402 42.0108 192.578 42.0384 192.748 42.1372C192.945 42.2469 193.137 42.4557 193.274 42.7249L200.703 57.5579C200.939 58.0246 200.884 58.4364 200.659 58.5737Z" fill="#212121"/>
<path d="M196.791 61.0226C196.721 61.0226 196.653 60.9861 196.616 60.922C196.56 60.8253 196.592 60.7007 196.689 60.6445C196.799 60.5804 196.849 60.2854 196.659 59.8995L189.225 45.0675C189.112 44.8448 188.95 44.6593 188.781 44.5578C188.732 44.5301 188.598 44.4627 188.51 44.5142C188.412 44.5712 188.288 44.538 188.233 44.4413C188.176 44.3446 188.209 44.2201 188.305 44.1639L192.168 41.9127C192.358 41.8001 192.606 41.8191 192.849 41.9619C193.085 42.0927 193.302 42.3321 193.454 42.6325L200.884 57.4667C201.154 58.001 201.104 58.5392 200.764 58.7469C200.763 58.7478 200.761 58.7485 200.76 58.7485L196.892 60.995C196.861 61.0139 196.826 61.0226 196.791 61.0226ZM189.01 44.2226C189.241 44.3685 189.443 44.6016 189.587 44.8845L197.021 59.718C197.13 59.9375 197.186 60.1572 197.19 60.353L200.554 58.399C200.665 58.3301 200.716 58.0321 200.522 57.65L193.093 42.8157C192.978 42.5907 192.816 42.4075 192.649 42.3147C192.534 42.2474 192.431 42.2299 192.373 42.2632L189.01 44.2226Z" fill="#212121"/>
<path d="M188.883 44.3853C189.077 44.4973 189.271 44.7055 189.407 44.9758L196.838 59.8071C197.194 60.5172 196.884 61.1005 196.313 60.7705L192.509 58.5721L192.427 83.5767L185.113 79.3499L185.195 54.3453L181.387 52.1449C180.82 51.817 180.507 50.8733 180.869 50.5782L188.36 44.3704C188.495 44.2572 188.689 44.2732 188.883 44.3853Z" fill="#FFBE2E"/>
<path d="M192.426 83.7797C192.391 83.7797 192.356 83.771 192.325 83.7528L185.011 79.5262C184.948 79.4897 184.909 79.4224 184.909 79.3495L184.992 54.4624L181.286 52.3206C180.824 52.0544 180.548 51.4891 180.514 51.069C180.492 50.7884 180.572 50.5577 180.74 50.4206L188.231 44.2147C188.427 44.0483 188.703 44.0474 188.984 44.2092C188.984 44.2092 188.984 44.2092 188.984 44.2099C189.221 44.3471 189.441 44.5928 189.588 44.8845L197.019 59.7156C197.259 60.1944 197.247 60.6794 196.989 60.9236C196.795 61.1075 196.504 61.1154 196.212 60.9466L192.711 58.9236L192.629 83.5776C192.629 83.6498 192.59 83.7164 192.528 83.7528C192.496 83.771 192.461 83.7797 192.426 83.7797ZM185.315 79.233L192.224 83.2258L192.306 58.5717C192.306 58.4996 192.345 58.433 192.407 58.3966C192.471 58.3601 192.547 58.3601 192.61 58.3966L196.414 60.5947C196.476 60.6319 196.63 60.7049 196.711 60.6279C196.814 60.5312 196.829 60.2419 196.657 59.8979L189.225 45.0668C189.114 44.844 188.951 44.6593 188.781 44.561C188.721 44.5262 188.573 44.4541 188.49 44.5262L180.997 50.7345C180.936 50.7853 180.907 50.8947 180.919 51.0366C180.944 51.3481 181.164 51.7817 181.488 51.9688L185.296 54.1693C185.358 54.2058 185.397 54.2731 185.397 54.346L185.315 79.233Z" fill="#212121"/>
</svg>
