<svg width="90" height="79" viewBox="0 0 90 79" fill="none" xmlns="http://www.w3.org/2000/svg">
<path d="M83.2555 0H6.7444C3.02567 0 0 3.02567 0 6.74494V54.883C0 58.6023 3.02567 61.6279 6.7444 61.6279H36.4697L30.5044 76.2206H28.0761C27.4321 76.2206 26.9103 76.7425 26.9103 77.3864C26.9103 78.0303 27.4321 78.5521 28.0761 78.5521H61.9239C62.5678 78.5521 63.0897 78.0303 63.0897 77.3864C63.0897 76.7425 62.5678 76.2206 61.9239 76.2206H59.4955L53.5302 61.6279H83.2555C86.9752 61.6279 90.0008 58.6023 90.0008 54.883C90.0008 45.2548 90.0008 18.0158 90.0008 6.74494C90.0008 3.02567 86.9752 0 83.2555 0ZM6.7444 2.33172H83.2555C85.6891 2.33172 87.6693 4.31133 87.6693 6.74494V48.0189H2.33154V6.74494C2.33154 4.31133 4.31079 2.33172 6.7444 2.33172ZM56.9764 76.2206H33.0236L38.9892 61.6279H51.0107L56.9764 76.2206ZM87.6693 54.883C87.6693 57.3166 85.6893 59.2962 83.2555 59.2962C64.4405 59.2962 21.3792 59.2962 6.7444 59.2962C4.31079 59.2962 2.33154 57.3166 2.33154 54.883V50.3504H87.6691V54.883H87.6693Z" fill="#FFBE2E"/>
<path d="M42.908 55.9888H47.0931C47.737 55.9888 48.2589 55.4669 48.2589 54.823C48.2589 54.1791 47.737 53.6572 47.0931 53.6572H42.908C42.264 53.6572 41.7422 54.1791 41.7422 54.823C41.7422 55.4669 42.264 55.9888 42.908 55.9888Z" fill="#FFBE2E"/>
<path d="M7.43921 8.71649H10.4494C11.1588 8.71649 11.7354 9.29343 11.7354 10.003V32.8034C11.7354 34.7985 13.3584 36.4215 15.3532 36.4215H33.9306C34.5745 36.4215 35.0964 35.8997 35.0964 35.2558C35.0964 34.6118 34.5745 34.09 33.9306 34.09H15.3532C14.6437 34.09 14.0671 33.513 14.0671 32.8034V32.7183H32.8113C34.2732 32.7183 35.5208 31.7228 35.8459 30.2969L38.2113 19.9198C38.4007 19.0896 38.2378 18.207 37.7651 17.499C37.2915 16.7905 36.5392 16.3017 35.6994 16.1588L14.0671 12.4741V10.0029C14.0671 8.00777 12.4441 6.38477 10.4494 6.38477H7.43921C6.7953 6.38477 6.27344 6.90663 6.27344 7.55054C6.27344 8.19463 6.7953 8.71649 7.43921 8.71649ZM35.3077 18.4574C35.5217 18.4938 35.7057 18.6131 35.826 18.7935C35.9462 18.9742 35.9862 19.1897 35.9379 19.4014L33.5725 29.7785C33.4906 30.1363 33.1781 30.3864 32.8111 30.3864H14.0671V14.8391L35.3077 18.4574Z" fill="#FFBE2E"/>
<path d="M17.5561 37C15.3976 37 13.6406 38.7564 13.6406 40.9155C13.6406 43.074 15.3976 44.8306 17.5561 44.8306C19.7147 44.8306 21.4716 43.0742 21.4716 40.9155C21.4716 38.7564 19.7147 37 17.5561 37ZM17.5561 42.4989C16.6827 42.4989 15.9722 41.7885 15.9722 40.9155C15.9722 40.0421 16.6825 39.3315 17.5561 39.3315C18.4297 39.3315 19.14 40.0419 19.14 40.9155C19.14 41.7885 18.4295 42.4989 17.5561 42.4989Z" fill="#FFBE2E"/>
<path d="M30.5112 37C28.3526 37 26.5957 38.7564 26.5957 40.9155C26.5957 43.074 28.3526 44.8306 30.5112 44.8306C32.6697 44.8306 34.4267 43.0742 34.4267 40.9155C34.4267 38.7564 32.6699 37 30.5112 37ZM30.5112 42.4989C29.6378 42.4989 28.9272 41.7885 28.9272 40.9155C28.9272 40.0421 29.6376 39.3315 30.5112 39.3315C31.3848 39.3315 32.0951 40.0419 32.0951 40.9155C32.0951 41.7885 31.3848 42.4989 30.5112 42.4989Z" fill="#FFBE2E"/>
<path d="M47.9548 16.189H79.0548C79.6987 16.189 80.2205 15.6671 80.2205 15.0232C80.2205 14.3793 79.6987 13.8574 79.0548 13.8574H47.9548C47.3109 13.8574 46.7891 14.3793 46.7891 15.0232C46.7891 15.6671 47.3109 16.189 47.9548 16.189Z" fill="#FFBE2E"/>
<path d="M47.9548 23.894H56.2969C56.9408 23.894 57.4626 23.3722 57.4626 22.7283C57.4626 22.0844 56.9408 21.5625 56.2969 21.5625H47.9548C47.3109 21.5625 46.7891 22.0844 46.7891 22.7283C46.7891 23.3722 47.3109 23.894 47.9548 23.894Z" fill="#FFBE2E"/>
<path d="M79.0563 21.5625H61.1365C60.4926 21.5625 59.9707 22.0844 59.9707 22.7283C59.9707 23.3722 60.4926 23.894 61.1365 23.894H79.0563C79.7002 23.894 80.2221 23.3722 80.2221 22.7283C80.2221 22.0844 79.7002 21.5625 79.0563 21.5625Z" fill="#FFBE2E"/>
<path d="M47.9548 39.3052H56.2969C56.9408 39.3052 57.4626 38.7833 57.4626 38.1394C57.4626 37.4955 56.9408 36.9736 56.2969 36.9736H47.9548C47.3109 36.9736 46.7891 37.4955 46.7891 38.1394C46.7891 38.7833 47.3109 39.3052 47.9548 39.3052Z" fill="#FFBE2E"/>
<path d="M79.0563 36.9736H61.1365C60.4926 36.9736 59.9707 37.4955 59.9707 38.1394C59.9707 38.7833 60.4926 39.3052 61.1365 39.3052H79.0563C79.7002 39.3052 80.2221 38.7833 80.2221 38.1394C80.2223 37.4955 79.7002 36.9736 79.0563 36.9736Z" fill="#FFBE2E"/>
<path d="M79.0556 29.2686H70.7126C70.0687 29.2686 69.5469 29.7904 69.5469 30.4343C69.5469 31.0782 70.0687 31.6001 70.7126 31.6001H79.0556C79.6995 31.6001 80.2213 31.0782 80.2213 30.4343C80.2215 29.7904 79.6995 29.2686 79.0556 29.2686Z" fill="#FFBE2E"/>
<path d="M47.9548 31.6001H65.8738C66.5177 31.6001 67.0396 31.0782 67.0396 30.4343C67.0396 29.7904 66.5177 29.2686 65.8738 29.2686H47.9548C47.3109 29.2686 46.7891 29.7904 46.7891 30.4343C46.7891 31.0782 47.3109 31.6001 47.9548 31.6001Z" fill="#FFBE2E"/>
</svg>
