<svg width="271" height="157" viewBox="0 0 271 157" fill="none" xmlns="http://www.w3.org/2000/svg">
<path d="M40.7648 92.1671L1.89127 69.7403C-0.620005 68.2925 -0.620005 64.6645 1.89127 63.2167L40.4467 40.9715C44.509 38.6267 49.5145 38.6267 53.5825 40.9715L92.4561 63.3983C94.9674 64.8461 94.9674 68.4742 92.4561 69.922L53.9007 92.1671C49.8384 94.512 44.8329 94.512 40.7648 92.1671Z" fill="#C8D3E3"/>
<path d="M216.999 92.1671L178.126 69.7403C175.614 68.2925 175.614 64.6645 178.126 63.2167L216.681 40.9715C220.743 38.6267 225.749 38.6267 229.817 40.9715L268.69 63.3983C271.202 64.8461 271.202 68.4742 268.69 69.922L230.135 92.1671C226.073 94.512 221.067 94.512 216.999 92.1671Z" fill="#C8D3E3"/>
<path d="M128.966 154.819L63.4967 117.046C60.9855 115.598 60.9855 111.97 63.4967 110.522L128.477 73.0326C132.54 70.6877 137.545 70.6877 141.613 73.0326L207.082 110.806C209.594 112.254 209.594 115.882 207.082 117.33L142.102 154.819C138.039 157.164 133.034 157.164 128.966 154.819Z" fill="#C8D3E3"/>
<path d="M94.3339 60.4514V49.0053L78.2038 48.9769L53.5797 34.7714C49.5174 32.4265 44.5119 32.4265 40.4438 34.7714L16.0015 48.8747L0.0078125 48.8463V60.2698V60.2925C0.0134941 61.5529 0.638471 62.8134 1.88842 63.5344L40.762 85.9612C44.8243 88.3061 49.8298 88.3061 53.8979 85.9612L92.4533 63.7161C93.7146 62.9894 94.3396 61.7176 94.3396 60.4458L94.3339 60.4514Z" fill="#FFBE2E"/>
<path d="M92.4455 55.2967L53.8901 77.5418C49.8277 79.8867 44.8222 79.8867 40.7542 77.5418L1.88061 55.115C0.630658 54.3939 0.00568161 53.1335 0 51.873V53.8205V53.8432C0.00568161 55.1036 0.630658 56.3641 1.88061 57.0852L40.7542 79.5119C44.8165 81.8568 49.822 81.8568 53.8901 79.5119L92.4455 57.2668C93.7068 56.5401 94.3317 55.2683 94.3317 53.9965V52.0263C94.3317 53.2981 93.7068 54.5699 92.4455 55.2967Z" fill="#F6E3C9"/>
<path d="M40.5264 23.4766C44.5368 21.1617 49.4789 21.1615 53.4951 23.4766L92.3682 45.9033C94.7675 47.2866 94.7675 50.7525 92.3682 52.1357L53.8135 74.3809H53.8125C49.9274 76.6233 45.1686 76.6943 41.2236 74.5918L40.8447 74.3809L1.9707 51.9541C-0.42805 50.5707 -0.428031 47.1051 1.9707 45.7217L40.5264 23.4766Z" fill="#F6E3C9" stroke="black" stroke-width="0.335406"/>
<path d="M73.2482 66.4824L72.1914 68.3115L95.9226 82.0032L96.9794 80.1741L73.2482 66.4824Z" fill="#F6E3C9"/>
<path d="M216.999 85.9669L178.126 63.5401C175.614 62.0923 175.614 58.4643 178.126 57.0165L216.681 34.7714C220.743 32.4265 225.749 32.4265 229.817 34.7714L268.69 57.1981C271.202 58.6459 271.202 62.274 268.69 63.7218L230.135 85.9669C226.073 88.3118 221.067 88.3118 216.999 85.9669Z" fill="#FFBE2E"/>
<path d="M176.25 48.8516V60.2977L270.576 60.451V49.0105L176.25 48.8516Z" fill="#FFBE2E"/>
<path d="M216.765 23.4766C220.775 21.1617 225.717 21.1615 229.733 23.4766L268.606 45.9033C271.006 47.2866 271.006 50.7525 268.606 52.1357L230.052 74.3809H230.051C226.166 76.6233 221.407 76.6943 217.462 74.5918L217.083 74.3809L178.209 51.9541C175.81 50.5707 175.81 47.1051 178.209 45.7217L216.765 23.4766Z" fill="#F6E3C9" stroke="black" stroke-width="0.335406"/>
<path d="M197.49 66.4083L173.184 80.4321L174.24 82.2613L198.547 68.2374L197.49 66.4083Z" fill="#F6E3C9"/>
<path d="M208.97 107.872V99.906L198.896 99.8833L141.62 66.8392C137.558 64.4943 132.552 64.4943 128.484 66.8392L71.6509 99.6278L61.6172 99.605V107.582V107.599C61.6229 108.86 62.2478 110.12 63.4978 110.841L128.967 148.615C133.029 150.96 138.035 150.96 142.103 148.615L207.083 111.125C208.339 110.404 208.964 109.138 208.97 107.866V107.872Z" fill="#FFBE2E"/>
<path d="M207.083 105.487L142.103 142.976C138.041 145.321 133.035 145.321 128.967 142.976L63.4978 105.203C62.2478 104.482 61.6229 103.221 61.6172 101.961V103.908V103.931C61.6229 105.192 62.2478 106.452 63.4978 107.173L128.967 144.947C133.029 147.291 138.035 147.291 142.103 144.947L207.083 107.457C208.339 106.736 208.964 105.47 208.97 104.198V102.228C208.97 103.494 208.339 104.76 207.083 105.487Z" fill="#F6E3C9"/>
<path d="M128.562 59.0244C132.572 56.7096 137.513 56.7094 141.529 59.0244L206.999 96.7979C209.398 98.1812 209.398 101.647 206.999 103.03L142.018 140.521C138.007 142.835 133.066 142.835 129.05 140.521L63.5801 102.747C61.181 101.364 61.1811 97.897 63.5801 96.5137L128.562 59.0244Z" fill="#F6E3C9" stroke="black" stroke-width="0.335406"/>
<path d="M156.975 112.283C145.072 119.147 125.721 119.113 113.744 112.203C101.767 105.294 101.71 94.1256 113.607 87.2613C125.505 80.397 144.862 80.4311 156.839 87.3408C168.816 94.2506 168.872 105.419 156.975 112.283Z" fill="#FFDC90"/>
<path d="M154.7 110.267C144.047 116.416 126.713 116.382 115.991 110.199C105.27 104.01 105.213 94.012 115.872 87.8688C126.525 81.7199 143.86 81.7539 154.581 87.9369C165.302 94.1256 165.359 104.124 154.7 110.267Z" fill="#FFBE2E"/>
<path d="M152.791 108.729C143.183 114.27 127.559 114.242 117.894 108.666C108.23 103.091 108.179 94.0746 117.786 88.5332C127.394 82.9918 143.018 83.0202 152.683 88.5956C162.347 94.1711 162.398 103.187 152.791 108.729Z" fill="#FFBE2E"/>
<path d="M110.613 43.396V98.5091L159.964 98.6795V43.396H110.613Z" fill="url(#paint0_linear_219_98308)"/>
<path d="M117.789 95.4546C127.396 89.9132 143.021 89.9416 152.685 95.517C155.992 97.4247 158.173 99.7355 159.225 102.171C161.259 97.4758 159.077 92.2807 152.685 88.5903C143.021 83.0148 127.396 82.9864 117.789 88.5278C111.471 92.1729 109.329 97.3225 111.357 102.007C112.397 99.6049 114.539 97.3282 117.789 95.4546Z" fill="#ECAD22"/>
<path d="M268.684 55.2967L230.128 77.5418C226.066 79.8867 221.061 79.8867 216.992 77.5418L178.119 55.115C176.869 54.3939 176.244 53.1335 176.238 51.873V53.8205V53.8432C176.244 55.1036 176.869 56.3641 178.119 57.0852L216.992 79.5119C221.055 81.8568 226.06 81.8568 230.128 79.5119L268.684 57.2668C269.945 56.5401 270.57 55.2683 270.57 53.9965V52.0263C270.57 53.2981 269.945 54.5699 268.684 55.2967Z" fill="#F6E3C9"/>
<path d="M120.399 47.5305C120.244 47.0247 120.211 43.9456 120.282 43.3659C120.289 43.3077 120.313 43.2954 120.339 43.2954C120.359 43.2954 120.379 43.302 120.394 43.302C120.406 43.302 120.415 43.298 120.419 43.2839C120.557 42.6909 120.567 41.8387 120.719 41.1905C121.838 36.407 125.038 33.8978 129.158 33.8972C131.932 33.8967 135.123 35.0335 138.377 37.3789C141.384 39.5465 141.73 44.483 139.44 44.4829C139.133 44.4829 138.778 44.394 138.376 44.1975C136.282 43.1745 134.898 41.9789 132.794 41.6625C124.235 40.3795 123.977 54.3984 132.411 63.6478C135.513 67.0498 138.621 68.6403 141.159 68.6407C144.408 68.6412 146.724 66.0377 146.905 61.2946C147.157 54.6739 146.558 35.1695 146.899 28.6432C146.973 27.2275 147.606 26.6304 148.432 26.6304C150.086 26.6303 152.513 29.0201 152.789 32.025V65.912C152.377 72.6019 148.932 76.3185 144.006 76.3192C141.507 76.3195 138.626 75.3634 135.568 73.354C128.532 68.7319 122.276 58.8349 120.706 49.9593C120.606 49.3966 120.511 47.8959 120.399 47.5309L120.399 47.5305Z" fill="#FFBE2E"/>
<path d="M116.054 43.2954C116.027 43.2954 116.003 43.3077 115.996 43.3659H120.283C120.29 43.3077 120.314 43.2954 120.34 43.2954H116.054Z" fill="url(#paint1_linear_219_98308)"/>
<path d="M115.997 43.3662C115.926 43.9459 115.958 47.025 116.114 47.5308H120.401C120.245 47.025 120.212 43.9459 120.283 43.3662H115.997Z" fill="url(#paint2_linear_219_98308)"/>
<path d="M116.106 43.302C116.09 43.302 116.07 43.2954 116.051 43.2954H120.337C120.357 43.2954 120.377 43.302 120.392 43.302H116.106Z" fill="url(#paint3_linear_219_98308)"/>
<path d="M116.114 47.5303L116.113 47.5306H120.4L120.4 47.5303H116.114Z" fill="url(#paint4_linear_219_98308)"/>
<path d="M116.13 43.2837C116.127 43.2978 116.117 43.3018 116.105 43.3018H120.392C120.404 43.3018 120.413 43.2978 120.416 43.2837H116.13Z" fill="url(#paint5_linear_219_98308)"/>
<path d="M116.113 47.5312C116.226 47.8963 116.321 49.397 116.42 49.9597H120.707C120.607 49.397 120.512 47.8963 120.4 47.5312H116.113Z" fill="url(#paint6_linear_219_98308)"/>
<path d="M116.433 41.1904C116.281 41.8386 116.271 42.6908 116.133 43.2838H120.419C120.557 42.6908 120.568 41.8386 120.72 41.1904H116.433Z" fill="url(#paint7_linear_219_98308)"/>
<path d="M124.873 33.897C120.753 33.8976 117.553 36.4068 116.434 41.1903H120.72C121.839 36.4068 125.039 33.8976 129.159 33.897H124.873Z" fill="url(#paint8_linear_219_98308)"/>
<path d="M116.418 49.9595C117.988 58.8351 124.244 68.732 131.28 73.3541H135.566C128.531 68.732 122.275 58.8351 120.704 49.9595H116.418Z" fill="url(#paint9_linear_219_98308)"/>
<path d="M128.125 63.6481C119.691 54.3987 119.948 40.3798 128.507 41.6628H130.745C131.365 41.5554 132.048 41.551 132.794 41.6628H130.745C124.256 42.7875 124.712 55.2049 132.411 63.6481H128.125Z" fill="url(#paint10_linear_219_98308)"/>
<path d="M124.875 33.897C124.876 33.897 124.877 33.897 124.878 33.897H124.875Z" fill="url(#paint11_linear_219_98308)"/>
<path d="M124.875 33.897C124.876 33.897 124.877 33.897 124.878 33.897H129.161C131.935 33.8965 135.126 35.0333 138.38 37.3787H134.094C130.841 35.0342 127.651 33.8974 124.878 33.897H124.875Z" fill="url(#paint12_linear_219_98308)"/>
<path d="M128.508 41.6626C130.612 41.979 131.996 43.1746 134.09 44.1976H138.376C136.282 43.1746 134.899 41.979 132.794 41.6626H128.508Z" fill="url(#paint13_linear_219_98308)"/>
<path d="M136.873 68.6409C134.334 68.6404 131.227 67.05 128.125 63.6479H132.411C135.513 67.05 138.621 68.6404 141.159 68.6409H136.873Z" fill="url(#paint14_linear_219_98308)"/>
<path d="M134.094 44.1973C134.496 44.3939 134.851 44.483 135.158 44.483H139.445C139.137 44.483 138.783 44.3939 138.38 44.1973H134.094Z" fill="url(#paint15_linear_219_98308)"/>
<path d="M135.157 44.4829C137.447 44.483 137.101 39.5465 134.094 37.3789H138.38C141.388 39.5465 141.734 44.483 139.443 44.4829H135.157Z" fill="url(#paint16_linear_219_98308)"/>
<path d="M131.281 73.3545C134.34 75.364 137.22 76.3201 139.72 76.3197H144.003C141.505 76.3194 138.625 75.3633 135.568 73.3545H131.281Z" fill="url(#paint17_linear_219_98308)"/>
<path d="M142.617 61.2949C142.436 66.037 140.121 68.6404 136.873 68.641H141.158C144.406 68.6415 146.723 66.038 146.904 61.2949H142.617Z" fill="url(#paint18_linear_219_98308)"/>
<path d="M142.616 40.6709C142.275 47.1972 142.874 54.6739 142.622 61.2946H146.908C147.16 54.6739 146.561 47.1972 146.902 40.6709H142.616Z" fill="url(#paint19_linear_219_98308)"/>
<path d="M144.146 38.6582C143.32 38.6583 142.687 39.2553 142.613 40.671H146.9C146.974 39.2553 147.607 38.6583 148.433 38.6582H144.146Z" fill="url(#paint20_linear_219_98308)"/>
<path d="M139.723 76.3193C144.649 76.3187 148.094 72.602 148.506 65.9121H152.793C152.38 72.602 148.935 76.3187 144.009 76.3193H139.723Z" fill="url(#paint21_linear_219_98308)"/>
<path d="M148.505 31.8365C148.23 28.8318 145.802 26.442 144.149 26.4419H148.435C150.088 26.4418 152.516 28.8316 152.792 31.8365H148.505Z" fill="url(#paint22_linear_219_98308)"/>
<path d="M148.504 65.9121V31.5625H152.79V65.9121H148.504Z" fill="url(#paint23_linear_219_98308)"/>
<path d="M116.118 47.5304C115.962 47.0246 115.93 43.9455 116 43.3657C116.017 43.232 116.124 43.3408 116.138 43.2838C116.275 42.6907 116.286 41.8385 116.438 41.1904C118.311 33.1862 126.009 31.5498 134.096 37.3788C137.507 39.8373 137.494 45.8579 134.094 44.1973C132 43.1744 130.617 41.9788 128.512 41.6624C119.953 40.3794 119.696 54.3983 128.13 63.6476C135.202 71.4035 142.302 69.7438 142.624 61.2945C142.876 54.6737 142.277 35.1693 142.618 28.643C143.051 23.6658 148.094 27.5181 148.508 32.0249V65.9118C147.887 75.9958 140.374 79.3242 131.286 73.3538C124.251 68.7318 117.995 58.8348 116.424 49.9592C116.325 49.3965 116.23 47.8958 116.117 47.5307L116.118 47.5304Z" fill="#FFBE2E"/>
<path d="M54.4021 1.99288C54.1473 1.84321 53.7963 1.86108 53.4051 2.08895L24.1086 18.9956C24.1086 18.9956 24.1019 19.0001 24.0974 19.0023C23.6928 19.2369 23.3351 19.6412 23.0848 20.1037C22.8567 20.5214 22.7114 20.9861 22.7137 21.4083V21.6205L22.774 47.4988C22.774 47.9366 22.9305 48.2449 23.1809 48.3924L21.0102 47.1347C20.7643 46.9894 20.6056 46.6789 20.6056 46.2388L20.543 20.4231V20.1461C20.543 19.7239 20.686 19.2637 20.9141 18.8459C21.1689 18.3857 21.5244 17.9792 21.92 17.7446C21.9268 17.7401 21.9312 17.7379 21.9379 17.7334L51.2366 0.826754C51.6256 0.603357 51.9766 0.583252 52.2314 0.730693L54.4021 1.99288Z" fill="#2B2B2B"/>
<path d="M23.1821 48.4634C23.1709 48.4634 23.1575 48.4612 23.1463 48.4545L20.9756 47.1968C20.6917 47.0292 20.5375 46.6897 20.5375 46.2384L20.4727 20.1457C20.4727 19.7324 20.6068 19.2588 20.8505 18.812C21.1254 18.316 21.4921 17.9162 21.881 17.6838C21.8922 17.6771 21.8989 17.6727 21.9056 17.6704L51.2021 0.765998C51.6 0.535899 51.9778 0.502389 52.2662 0.667703L54.4324 1.92766C54.4324 1.92766 54.4346 1.92766 54.4369 1.92989C54.4704 1.95 54.4816 1.99245 54.4615 2.02595C54.4413 2.05946 54.3989 2.07063 54.3653 2.05053H54.3609C54.1172 1.90755 53.7908 1.9433 53.4398 2.14659L24.1434 19.0555C23.7499 19.2856 23.4012 19.6676 23.1463 20.1367C22.9094 20.5701 22.7819 21.0214 22.7842 21.4056V21.6201L22.8445 47.4984C22.8445 47.896 22.9764 48.1909 23.2179 48.3294C23.2514 48.3495 23.2626 48.3919 23.2425 48.4255C23.229 48.4478 23.2067 48.4612 23.1821 48.4612V48.4634ZM51.8638 0.70568C51.6849 0.70568 51.4837 0.765998 51.2736 0.886632L21.9727 17.7933C21.9727 17.7933 21.957 17.8022 21.9503 17.8067C21.5859 18.0234 21.2372 18.4054 20.9756 18.879C20.7432 19.3057 20.6135 19.7547 20.6135 20.1457V20.4227L20.6761 46.2384C20.6761 46.636 20.808 46.9332 21.0449 47.0739L22.8289 48.1082C22.7462 47.9429 22.7037 47.7374 22.7037 47.5006L22.6433 21.4079C22.6389 21.0013 22.7752 20.5254 23.0211 20.0697C23.2872 19.5782 23.656 19.1761 24.0584 18.9416C24.0629 18.9393 24.0674 18.9371 24.0696 18.9349L53.3705 2.02819C53.5829 1.90532 53.7886 1.8383 53.9786 1.82713L52.1969 0.790571C52.0985 0.734722 51.9867 0.70568 51.8638 0.70568Z" fill="#373B42"/>
<path d="M24.0958 19.0019C23.6911 19.2364 23.3335 19.6408 23.0831 20.1032C22.8551 20.521 22.7097 20.9856 22.712 21.4078V21.6201C22.7075 21.6357 22.7053 21.6536 22.7008 21.6692L20.5391 20.4227V20.1457C20.5391 19.7234 20.6821 19.2632 20.9102 18.8455C21.165 18.3853 21.5205 17.9787 21.9161 17.7441L24.0958 19.0041V19.0019Z" fill="#2B2B2B"/>
<g opacity="0.1">
<path d="M24.175 52.6103C23.4037 53.0548 23.3993 53.7786 24.1661 54.2232L42.7231 64.9998C43.4899 65.4444 44.7395 65.4444 45.5108 64.9998L74.8117 48.0954C75.5852 47.6486 75.5874 46.9271 74.8206 46.4825L56.2636 35.7058C55.4968 35.2613 54.2494 35.259 53.4759 35.7058L24.175 52.6103Z" fill="black"/>
</g>
<path d="M24.175 48.2978C23.4037 48.7423 23.3993 49.4661 24.1661 49.9107L42.7231 60.6873C43.4899 61.1319 44.7395 61.1319 45.5108 60.6873L74.8117 43.7829C75.5852 43.3361 75.5874 42.6146 74.8206 42.17L56.2636 31.3933C55.4968 30.9488 54.2494 30.9465 53.4759 31.3933L24.175 48.2978Z" fill="#F6E3C9"/>
<path d="M44.1131 61.0922C43.5945 61.0922 43.0781 60.9782 42.6846 60.7504L24.1276 49.9737C23.7364 49.7458 23.5195 49.4398 23.5195 49.1092C23.5195 48.7763 23.7386 48.468 24.1365 48.2379L53.4375 31.3335C54.2288 30.8778 55.5098 30.8778 56.2967 31.3335L74.8537 42.1102C75.2472 42.338 75.4618 42.6463 75.4618 42.9747C75.4618 43.3076 75.2427 43.6158 74.8448 43.8459L45.5438 60.7504C45.1482 60.9782 44.6295 61.0922 44.1131 61.0922ZM24.2081 48.3586C23.8571 48.5618 23.6626 48.8277 23.6626 49.1069C23.6626 49.3839 23.8526 49.6498 24.1991 49.8508L42.7562 60.6275C43.5028 61.0609 44.7212 61.0609 45.4745 60.6275L74.7755 43.7231C75.1287 43.5198 75.3232 43.2539 75.3232 42.9747C75.3232 42.6977 75.1332 42.4341 74.7844 42.2308L56.2274 31.4541C55.4807 31.0207 54.2624 31.0207 53.509 31.4541L24.2081 48.3586Z" fill="#373B42"/>
<path d="M45.8208 38.7302C45.642 38.8329 45.6442 38.9982 45.8208 39.101L47.5332 40.0951C47.7098 40.1979 47.996 40.1979 48.1726 40.0951L50.1801 38.9357C50.3589 38.8329 50.3589 38.6676 50.1801 38.5648L48.4676 37.5707C48.2933 37.468 48.0049 37.468 47.8283 37.5707L45.8208 38.7302Z" fill="#464646"/>
<path d="M49.4731 36.6242C49.2943 36.727 49.2965 36.8923 49.4731 36.995L51.1855 37.9892C51.3622 38.0919 51.6483 38.0919 51.8249 37.9892L53.8324 36.8297C54.0112 36.727 54.0112 36.5616 53.8324 36.4589L52.12 35.4648C51.9456 35.362 51.6572 35.362 51.4806 35.4648L49.4731 36.6242Z" fill="#464646"/>
<path d="M56.4458 36.4518C56.267 36.5546 56.2692 36.7199 56.4458 36.8227L58.1582 37.8168C58.3348 37.9195 58.621 37.9195 58.7976 37.8168L60.8051 36.6574C60.9839 36.5546 60.9839 36.3893 60.8051 36.2865L59.0926 35.2924C58.9183 35.1896 58.6299 35.1896 58.4533 35.2924L56.4458 36.4518Z" fill="#464646"/>
<path d="M53.1216 34.5192C52.9427 34.622 52.945 34.7873 53.1216 34.8901L54.834 35.8842C55.0106 35.9869 55.2967 35.9869 55.4733 35.8842L57.4808 34.7247C57.6597 34.622 57.6597 34.4567 57.4808 34.3539L55.7684 33.3598C55.5941 33.257 55.3057 33.257 55.1291 33.3598L53.1216 34.5192Z" fill="#464646"/>
<path d="M52.7974 38.5558C52.6185 38.6586 52.6208 38.8239 52.7974 38.9267L54.5098 39.9208C54.6864 40.0236 54.9725 40.0236 55.1491 39.9208L57.1566 38.7614C57.3355 38.6586 57.3355 38.4933 57.1566 38.3905L55.4442 37.3964C55.2698 37.2936 54.9815 37.2936 54.8048 37.3964L52.7974 38.5558Z" fill="#464646"/>
<path d="M52.477 42.5954C52.2982 42.6982 52.3004 42.8635 52.477 42.9662L54.1895 43.9603C54.3638 44.0631 54.6522 44.0631 54.8288 43.9603L56.8363 42.8009C57.0151 42.6981 57.0129 42.5328 56.8363 42.4301L55.1239 41.436C54.9495 41.3332 54.6611 41.3332 54.4845 41.436L52.477 42.5954Z" fill="#464646"/>
<path d="M49.1489 40.6628C48.9701 40.7655 48.9723 40.9308 49.1489 41.0336L50.8613 42.0277C51.0379 42.1305 51.3241 42.1305 51.5007 42.0277L53.5082 40.8683C53.687 40.7655 53.687 40.6002 53.5082 40.4975L51.7958 39.5033C51.6214 39.4006 51.333 39.4006 51.1564 39.5033L49.1489 40.6628Z" fill="#464646"/>
<path d="M31.2184 47.153C31.0418 47.2558 31.0418 47.4211 31.2184 47.5238L32.9308 48.518C33.1074 48.6207 33.3935 48.6207 33.5702 48.518L35.5799 47.3585C35.7587 47.2558 35.7587 47.0905 35.5799 46.9877L33.8675 45.9936C33.6931 45.8908 33.4047 45.8908 33.2281 45.9936L31.2184 47.153Z" fill="#464646"/>
<path d="M27.57 49.2599C27.3933 49.3627 27.3933 49.528 27.57 49.6308L29.2824 50.6249C29.459 50.7277 29.7451 50.7277 29.9217 50.6249L31.9314 49.4655C32.1103 49.3627 32.1103 49.1974 31.9314 49.0946L30.219 48.1005C30.0447 47.9977 29.7563 47.9977 29.5797 48.1005L27.57 49.2599Z" fill="#464646"/>
<path d="M34.5465 49.0856C34.3699 49.1884 34.3699 49.3537 34.5465 49.4565L36.2589 50.4506C36.4355 50.5533 36.7217 50.5533 36.8983 50.4506L38.908 49.2911C39.0869 49.1884 39.0869 49.0231 38.908 48.9203L37.1956 47.9262C37.0212 47.8234 36.7329 47.8234 36.5562 47.9262L34.5465 49.0856Z" fill="#464646"/>
<path d="M30.8981 51.1921C30.7215 51.2948 30.7215 51.4601 30.8981 51.5629L32.6105 52.557C32.7871 52.6598 33.0732 52.6598 33.2498 52.557L35.2596 51.3976C35.4384 51.2948 35.4384 51.1295 35.2596 51.0268L33.5472 50.0326C33.3728 49.9299 33.0844 49.9299 32.9078 50.0326L30.8981 51.1921Z" fill="#464646"/>
<path d="M34.8668 45.0475C34.6902 45.1503 34.6902 45.3156 34.8668 45.4184L36.5792 46.4125C36.7558 46.5153 37.042 46.5153 37.2186 46.4125L39.2283 45.2531C39.4072 45.1503 39.4072 44.985 39.2283 44.8822L37.5159 43.8881C37.3415 43.7853 37.0532 43.7853 36.8766 43.8881L34.8668 45.0475Z" fill="#464646"/>
<path d="M34.2223 53.1237C34.0457 53.2265 34.0457 53.3918 34.2223 53.4945L35.9347 54.4887C36.1091 54.5914 36.3975 54.5914 36.5741 54.4887L38.5838 53.3292C38.7626 53.2265 38.7604 53.0612 38.5838 52.9584L36.8714 51.9643C36.697 51.8615 36.4086 51.8615 36.232 51.9643L34.2223 53.1237Z" fill="#464646"/>
<path d="M37.8785 51.0173C37.7019 51.12 37.7019 51.2853 37.8785 51.3881L39.591 52.3822C39.7653 52.485 40.0537 52.485 40.2303 52.3822L42.24 51.2228C42.4189 51.12 42.4166 50.9547 42.24 50.852L40.5276 49.8578C40.3533 49.7551 40.0649 49.7551 39.8883 49.8578L37.8785 51.0173Z" fill="#464646"/>
<path d="M41.527 48.9129C41.3504 49.0156 41.3504 49.1809 41.527 49.2837L43.2394 50.2778C43.4138 50.3806 43.7021 50.3806 43.8787 50.2778L53.1874 44.9074C53.3663 44.8046 53.364 44.6393 53.1874 44.5365L51.475 43.5424C51.3007 43.4396 51.0123 43.4396 50.8357 43.5424L41.527 48.9129Z" fill="#464646"/>
<path d="M41.8434 44.8742C41.6668 44.977 41.6668 45.1423 41.8434 45.245L43.5558 46.2392C43.7324 46.3419 44.0186 46.3419 44.1952 46.2392L46.2049 45.0797C46.3837 44.977 46.3837 44.8116 46.2049 44.7089L44.4925 43.7148C44.3181 43.612 44.0297 43.612 43.8531 43.7148L41.8434 44.8742Z" fill="#464646"/>
<path d="M38.1989 46.9811C38.0223 47.0839 38.0223 47.2492 38.1989 47.352L39.9113 48.3461C40.0879 48.4488 40.374 48.4488 40.5506 48.3461L42.5604 47.1867C42.7392 47.0839 42.7392 46.9186 42.5604 46.8158L40.8479 45.8217C40.6736 45.7189 40.3852 45.7189 40.2086 45.8217L38.1989 46.9811Z" fill="#464646"/>
<path d="M45.4966 42.7673C45.3177 42.87 45.32 43.0353 45.4966 43.1381L47.209 44.1322C47.3856 44.235 47.6717 44.235 47.8483 44.1322L49.8558 42.9728C50.0347 42.87 50.0347 42.7047 49.8558 42.6019L48.1434 41.6078C47.9691 41.5051 47.6807 41.5051 47.5041 41.6078L45.4966 42.7673Z" fill="#464646"/>
<path d="M42.1724 40.8346C41.9935 40.9374 41.9958 41.1027 42.1724 41.2055L43.8848 42.1996C44.0614 42.3024 44.3475 42.3024 44.5241 42.1996L46.5316 41.0402C46.7105 40.9374 46.7105 40.7721 46.5316 40.6693L44.8192 39.6752C44.6448 39.5725 44.3565 39.5725 44.1798 39.6752L42.1724 40.8346Z" fill="#464646"/>
<path d="M38.5231 42.9416C38.3465 43.0443 38.3465 43.2097 38.5231 43.3124L40.2355 44.3065C40.4121 44.4093 40.6982 44.4093 40.8748 44.3065L42.8846 43.1471C43.0634 43.0443 43.0634 42.879 42.8846 42.7763L41.1722 41.7821C40.9978 41.6794 40.7094 41.6794 40.5328 41.7821L38.5231 42.9416Z" fill="#464646"/>
<path d="M59.7739 38.384C59.5951 38.4867 59.5973 38.652 59.7739 38.7548L61.4863 39.7489C61.6607 39.8517 61.9491 39.8517 62.1257 39.7489L64.1332 38.5895C64.312 38.4867 64.3098 38.3214 64.1332 38.2186L62.4208 37.2245C62.2464 37.1218 61.958 37.1218 61.7814 37.2245L59.7739 38.384Z" fill="#464646"/>
<path d="M56.1294 40.4885C55.9505 40.5912 55.9528 40.7565 56.1294 40.8593L57.8418 41.8534C58.0162 41.9562 58.3045 41.9562 58.4812 41.8534L60.4886 40.694C60.6675 40.5912 60.6653 40.4259 60.4886 40.3231L58.7762 39.329C58.6019 39.2263 58.3135 39.2263 58.1369 39.329L56.1294 40.4885Z" fill="#464646"/>
<path d="M24.0981 18.992C23.3268 19.4366 22.7009 20.52 22.7031 21.4047L22.7635 47.4974C22.7657 48.3843 23.3961 48.7417 24.1674 48.2972L53.4683 31.3927C54.2418 30.9459 54.8655 29.8669 54.8633 28.9801L54.8029 2.88732C54.8007 2.00044 54.1725 1.64077 53.399 2.08756L24.0981 18.992Z" fill="#191B1F"/>
<path d="M23.5421 48.558C23.3968 48.558 23.2604 48.5245 23.142 48.4553C22.8558 48.29 22.6971 47.9504 22.6971 47.4969L22.6367 21.4042C22.6345 20.4972 23.2761 19.3869 24.0652 18.9312L53.3639 2.02674C53.7618 1.79664 54.1396 1.76313 54.428 1.92845C54.7142 2.09376 54.8729 2.43332 54.8729 2.88682L54.9332 28.9795C54.9355 29.8865 54.2939 30.9968 53.5047 31.4526L24.2038 48.357C23.9713 48.491 23.7455 48.558 23.5421 48.558ZM24.0988 18.9915L24.1345 19.0518C23.3834 19.4852 22.7731 20.5396 22.7753 21.4042L22.8357 47.4969C22.8357 47.8968 22.9698 48.1939 23.2113 48.3324C23.4549 48.4731 23.7813 48.4374 24.1323 48.2341L53.4332 31.3297C54.1843 30.8963 54.7946 29.8419 54.7924 28.9773L54.732 2.88458C54.732 2.48247 54.5979 2.18535 54.3565 2.04685C54.115 1.90834 53.7864 1.94185 53.4332 2.14514L24.1345 19.054L24.0988 18.9937V18.9915Z" fill="#191B1F"/>
<path d="M28.3867 44.7184L50.5072 31.873C51.066 32.1947 51.5176 32.9766 51.5154 33.6178L29.3949 46.4631C29.3949 45.8219 28.9456 45.04 28.3867 44.7184Z" fill="#F6E3C9"/>
<path d="M29.3923 46.5348C29.3811 46.5348 29.3677 46.5326 29.3565 46.5259C29.3341 46.5125 29.3207 46.4902 29.3207 46.4656C29.3207 45.8468 28.887 45.0917 28.3483 44.7812C28.3259 44.7678 28.3125 44.7454 28.3125 44.7209C28.3125 44.6963 28.3259 44.6717 28.3483 44.6605L50.4687 31.8152C50.4911 31.8018 50.5179 31.8018 50.5402 31.8152C51.117 32.1481 51.5842 32.959 51.5842 33.6225C51.5842 33.6471 51.5708 33.6694 51.5485 33.6828L29.428 46.5281C29.428 46.5281 29.4057 46.5371 29.3923 46.5371V46.5348ZM28.5204 44.7209C29.0167 45.0627 29.4124 45.7462 29.4593 46.3449L51.4434 33.5778C51.4277 32.9814 51.0164 32.2687 50.5067 31.9537L28.5226 44.7209H28.5204Z" fill="#191B1F"/>
<path d="M28.389 44.7183C28.9474 45.04 29.3987 45.8218 29.3965 46.463L28.3867 45.8799V44.7183H28.389Z" fill="#F6E3C9"/>
<path d="M29.3945 46.5347C29.3833 46.5347 29.3699 46.5325 29.3587 46.5258L28.3483 45.9427C28.3259 45.9293 28.3125 45.907 28.3125 45.8824V44.7208C28.3147 44.6962 28.3304 44.6716 28.3505 44.6604C28.3729 44.647 28.3997 44.647 28.422 44.6604C28.9988 44.9933 29.466 45.8042 29.466 46.4677C29.466 46.4923 29.4526 46.5169 29.4303 46.528C29.4191 46.5347 29.4079 46.537 29.3945 46.537V46.5347ZM28.4533 45.84L29.3185 46.3382C29.2715 45.7886 28.9094 45.1631 28.4556 44.8459V45.84H28.4533Z" fill="#191B1F"/>
<path d="M54.2347 27.7206C54.2392 28.3818 53.7339 29.2508 53.1549 29.5859L23.8585 46.4881C23.6886 46.5864 23.5835 46.5976 23.5477 46.5976C23.4136 46.5976 23.4024 46.3183 23.4024 46.2357L23.3398 21.4029C23.3398 20.7416 23.8451 19.8726 24.4196 19.5375L53.7205 2.63534C53.8904 2.53705 53.9933 2.52588 54.0313 2.52588C54.1699 2.52588 54.1766 2.8297 54.1766 2.88778L54.2347 27.7206Z" fill="#F6E3C9"/>
<path d="M23.549 46.6693C23.3545 46.6693 23.3321 46.3677 23.3321 46.2359L23.2695 21.4031C23.2695 20.7217 23.7904 19.8215 24.3828 19.4774L53.6882 2.57522C53.8671 2.47023 53.9811 2.45459 54.0347 2.45459C54.2292 2.45459 54.2516 2.75618 54.2516 2.88798L54.3097 27.7208C54.3142 28.4021 53.7933 29.3024 53.1964 29.6487L23.8955 46.5509C23.7099 46.6581 23.5914 46.6715 23.549 46.6715V46.6693ZM54.0347 2.59533C54.0101 2.59533 53.9207 2.60203 53.7598 2.69586L24.4566 19.5981C23.8999 19.922 23.4126 20.7642 23.4126 21.4031L23.4752 46.2359C23.4752 46.4034 23.5154 46.5285 23.5512 46.5285C23.5691 46.5285 23.663 46.5241 23.8262 46.428L53.1249 29.5258C53.686 29.2019 54.1733 28.3597 54.1688 27.7208L54.1107 2.88575C54.1107 2.72043 54.0705 2.5931 54.0347 2.5931V2.59533Z" fill="#191B1F"/>
<path d="M23.1821 48.4634C23.1709 48.4634 23.1575 48.4612 23.1463 48.4545L20.9756 47.1968C20.6917 47.0292 20.5375 46.6897 20.5375 46.2384L20.4727 20.1457C20.4727 19.7324 20.6068 19.2588 20.8505 18.812C21.1254 18.316 21.4921 17.9162 21.881 17.6838C21.8922 17.6771 21.8989 17.6727 21.9056 17.6704L51.2021 0.765998C51.6 0.535899 51.9778 0.502389 52.2662 0.667703L54.4324 1.92766C54.4324 1.92766 54.4346 1.92766 54.4369 1.92989C54.4704 1.95 54.4816 1.99245 54.4615 2.02595C54.4413 2.05946 54.3989 2.07063 54.3653 2.05053H54.3609C54.1172 1.90755 53.7908 1.9433 53.4398 2.14659L24.1434 19.0555C23.7499 19.2856 23.4012 19.6676 23.1463 20.1367C22.9094 20.5701 22.7819 21.0214 22.7842 21.4056V21.6201L22.8445 47.4984C22.8445 47.896 22.9764 48.1909 23.2179 48.3294C23.2514 48.3495 23.2626 48.3919 23.2425 48.4255C23.229 48.4478 23.2067 48.4612 23.1821 48.4612V48.4634ZM51.8638 0.70568C51.6849 0.70568 51.4837 0.765998 51.2736 0.886632L21.9727 17.7933C21.9727 17.7933 21.957 17.8022 21.9503 17.8067C21.5859 18.0234 21.2372 18.4054 20.9756 18.879C20.7432 19.3057 20.6135 19.7547 20.6135 20.1457V20.4227L20.6761 46.2384C20.6761 46.636 20.808 46.9332 21.0449 47.0739L22.8289 48.1082C22.7462 47.9429 22.7037 47.7374 22.7037 47.5006L22.6433 21.4079C22.6389 21.0013 22.7752 20.5254 23.0211 20.0697C23.2872 19.5782 23.656 19.1761 24.0584 18.9416C24.0629 18.9393 24.0674 18.9371 24.0696 18.9349L53.3705 2.02819C53.5829 1.90532 53.7886 1.8383 53.9786 1.82713L52.1969 0.790571C52.0985 0.734722 51.9867 0.70568 51.8638 0.70568Z" fill="#373B42"/>
<path d="M22.7176 25.0019C22.7065 25.0019 22.693 24.9997 22.6819 24.993L20.5112 23.7264C20.4776 23.7062 20.4665 23.6638 20.4866 23.6303C20.5067 23.5968 20.5492 23.5856 20.5827 23.6057L22.7556 24.8724C22.7892 24.8925 22.8003 24.9349 22.7802 24.9684C22.7668 24.9908 22.7445 25.0042 22.7199 25.0042L22.7176 25.0019Z" fill="#373B42"/>
<path d="M22.7623 45.8431C22.7511 45.8431 22.7377 45.8409 22.7265 45.8342L20.558 44.5764C20.5245 44.5563 20.5133 44.5139 20.5335 44.4804C20.5536 44.4469 20.5961 44.4357 20.6296 44.4558L22.798 45.7135C22.8316 45.7336 22.8427 45.7761 22.8226 45.8096C22.8092 45.8319 22.7869 45.8453 22.7623 45.8453V45.8431Z" fill="#373B42"/>
<path d="M47.8951 50.0789C47.381 50.376 47.3787 50.8563 47.8884 51.1512L52.469 53.8118C52.9787 54.1089 53.8081 54.1089 54.3222 53.8118L62.9044 48.8614C63.4208 48.5642 63.423 48.0839 62.9133 47.7868L58.3328 45.1262C57.8231 44.829 56.9937 44.829 56.475 45.1262L47.8929 50.0766L47.8951 50.0789Z" fill="#464646"/>
<path d="M75.4002 45.7245C75.4024 46.0171 75.2102 46.3098 74.819 46.5354L45.518 63.4421C45.3951 63.5136 45.2587 63.5717 45.1179 63.6186C44.7937 63.728 44.4249 63.7794 44.056 63.7727H44.0538C43.7006 63.766 43.354 63.7057 43.05 63.594C42.936 63.5493 42.8287 63.5002 42.7326 63.4421L24.1778 52.6677C23.7955 52.4443 23.6033 52.1538 23.6033 51.8612L23.5898 49.1134C23.5921 49.3994 23.7843 49.6898 24.1644 49.9132L42.7192 60.6876C42.8198 60.7479 42.9315 60.7971 43.05 60.8417C43.3518 60.9557 43.7028 61.016 44.0538 61.0205C44.4226 61.0227 44.796 60.9735 45.1201 60.8596C45.2587 60.8127 45.3906 60.7546 45.5113 60.6854L74.8122 43.7787C75.1968 43.5575 75.3935 43.2582 75.3935 42.9678L75.4024 45.7223L75.4002 45.7245Z" fill="#2B2B2B"/>
<path d="M25.2199 53.3446C25.1819 53.3446 25.1484 53.3133 25.1484 53.2731V50.5275C25.1484 50.4896 25.1797 50.4561 25.2199 50.4561C25.2601 50.4561 25.2914 50.4873 25.2914 50.5275V53.2731C25.2914 53.3111 25.2601 53.3446 25.2199 53.3446Z" fill="#373B42"/>
<path d="M46.7082 62.8233C46.6702 62.8233 46.6367 62.792 46.6367 62.7518V59.9906C46.6367 59.9527 46.668 59.9214 46.7082 59.9214C46.7484 59.9214 46.7797 59.9527 46.7797 59.9906V62.7518C46.7797 62.7898 46.7484 62.8233 46.7082 62.8233Z" fill="#373B42"/>
<path d="M73.2629 47.5028C73.2249 47.5028 73.1914 47.4715 73.1914 47.4313V44.6701C73.1914 44.6321 73.2227 44.5986 73.2629 44.5986C73.3031 44.5986 73.3344 44.6299 73.3344 44.6701V47.4313C73.3344 47.4693 73.3031 47.5028 73.2629 47.5028Z" fill="#373B42"/>
<path d="M45.1147 60.8597V63.6164C44.7906 63.7258 44.4217 63.7772 44.0529 63.7705H44.0506C43.6974 63.7638 43.3509 63.7035 43.0469 63.5918V60.8418C43.3487 60.9557 43.6996 61.016 44.0506 61.0205C44.4195 61.0227 44.7928 60.9736 45.117 60.8597H45.1147Z" fill="#2B2B2B"/>
<path d="M44.1182 63.8424C44.0958 63.8424 44.0734 63.8424 44.0511 63.8424C43.5324 63.8334 43.0496 63.7106 42.6919 63.5028L24.1371 52.7284C23.7436 52.4983 23.529 52.19 23.529 51.8616L23.5156 49.1138C23.5156 49.0736 23.5469 49.0423 23.5849 49.0423C23.6229 49.0423 23.6542 49.0736 23.6565 49.1116C23.6587 49.3864 23.851 49.6477 24.1952 49.851L42.75 60.6255C43.0898 60.822 43.5436 60.9382 44.031 60.9494C44.0377 60.9494 44.0399 60.9494 44.0511 60.9471C44.5898 60.9583 45.0951 60.8421 45.4706 60.6255L74.7716 43.7188C75.1181 43.52 75.317 43.2474 75.317 42.9704C75.317 42.9324 75.3483 42.8989 75.3886 42.8989C75.4266 42.8989 75.4601 42.9302 75.4601 42.9682L75.469 45.7227C75.4735 46.0555 75.2544 46.366 74.8543 46.5939L45.5534 63.5006C45.1756 63.7217 44.6681 63.8424 44.1204 63.8424H44.1182ZM23.6587 49.5539L23.6699 51.8594C23.6699 52.1364 23.8621 52.4022 24.2086 52.6055L42.7634 63.3799C43.101 63.5788 43.557 63.6927 44.0511 63.7016C44.5966 63.7106 45.1085 63.5966 45.4818 63.3799L74.7827 46.4733C75.1382 46.27 75.3304 46.0041 75.3282 45.7249L75.3193 43.4127C75.2142 43.5736 75.0532 43.721 74.8431 43.8417L45.5422 60.7483C45.1487 60.9762 44.6234 61.1013 44.069 61.0879C44.0623 61.0879 44.0578 61.0901 44.0489 61.0901C43.5302 61.0812 43.0451 60.9583 42.6807 60.7461L24.1259 49.9717C23.9203 49.851 23.7638 49.7081 23.6609 49.5517L23.6587 49.5539Z" fill="#373B42"/>
<path d="M27.2907 52.3952C27.3556 52.4332 27.4092 52.5248 27.4092 52.603V53.4206C27.4092 53.4965 27.3533 53.5256 27.2885 53.4876L27.1946 53.434V53.6596C27.1946 53.7356 27.141 53.7668 27.0739 53.7289L26.5105 53.4027C26.4457 53.3647 26.3921 53.2731 26.3921 53.195V52.9693L26.2982 52.9157C26.2333 52.8777 26.1797 52.7861 26.1797 52.7102V51.8925C26.1797 51.8166 26.2356 51.7853 26.3004 51.8233L27.293 52.3952H27.2907Z" fill="#5D6168"/>
<path d="M51.6105 3.19446C51.5993 3.19446 51.5859 3.19223 51.5747 3.18553L49.4018 1.92557C49.3683 1.90546 49.3571 1.86302 49.3772 1.82951C49.3973 1.796 49.4398 1.78483 49.4733 1.80494L51.6463 3.06489C51.6798 3.085 51.691 3.12744 51.6708 3.16095C51.6574 3.18329 51.6351 3.1967 51.6105 3.1967V3.19446Z" fill="#373B42"/>
<path d="M45.1641 7.40623L50.3281 10.4064L54.7321 7.86419L49.568 4.86621L45.1641 7.40623Z" fill="#1A1919"/>
<path d="M50.3254 10.4758C50.3142 10.4758 50.3008 10.4735 50.2897 10.4668L45.1256 7.46661C45.1033 7.4532 45.0898 7.43086 45.0898 7.40629C45.0898 7.38172 45.1033 7.35714 45.1256 7.34597L49.5296 4.80595C49.5519 4.79255 49.5788 4.79255 49.6011 4.80595L54.7652 7.80617C54.7875 7.81957 54.8009 7.84191 54.8009 7.86649C54.8009 7.89106 54.7875 7.91563 54.7652 7.9268L50.3612 10.4691C50.3612 10.4691 50.3388 10.478 50.3254 10.478V10.4758ZM45.3022 7.40629L50.3277 10.3238L54.5908 7.86425L49.5653 4.94669L45.3022 7.40629Z" fill="#373B42"/>
<path d="M40.7539 9.94802L45.918 12.9482L50.3242 10.406L45.1601 7.40576L40.7539 9.94802Z" fill="#FFBE2E"/>
<path d="M45.9153 13.018C45.9041 13.018 45.8907 13.0158 45.8795 13.0091L40.7155 10.0089C40.6931 9.99548 40.6797 9.97314 40.6797 9.94856C40.6797 9.92399 40.6931 9.89941 40.7155 9.88824L45.1217 7.34599C45.144 7.33259 45.1708 7.33259 45.1932 7.34599L50.3572 10.3462C50.3796 10.3596 50.393 10.382 50.393 10.4065C50.393 10.4311 50.3796 10.4557 50.3572 10.4668L45.951 13.0091C45.951 13.0091 45.9287 13.018 45.9153 13.018ZM40.8921 9.94856L45.9175 12.8661L50.1829 10.4043L45.1574 7.48673L40.8921 9.94856Z" fill="#373B42"/>
<path d="M36.3516 12.491L41.5156 15.489L45.9196 12.9489L40.7555 9.94873L36.3516 12.491Z" fill="#1A1919"/>
<path d="M41.5168 15.5605C41.5057 15.5605 41.4922 15.5583 41.4811 15.5516L36.317 12.5514C36.2947 12.538 36.2812 12.5156 36.2812 12.491C36.2812 12.4665 36.2947 12.4419 36.317 12.4307L40.721 9.88847C40.7433 9.87507 40.7702 9.87507 40.7925 9.88847L45.9566 12.8887C45.9789 12.9021 45.9923 12.9244 45.9923 12.949C45.9923 12.9736 45.9789 12.9982 45.9566 13.0093L41.5526 15.5493C41.5526 15.5493 41.5302 15.5583 41.5168 15.5583V15.5605ZM36.4914 12.491L41.5168 15.4086L45.78 12.949L40.7545 10.0314L36.4914 12.491Z" fill="#373B42"/>
<path d="M31.9414 15.0325L37.1077 18.0305L41.5139 15.4882L36.3498 12.4902L31.9414 15.0325Z" fill="#FFBE2E"/>
<path d="M37.1067 18.102C37.0955 18.102 37.0821 18.0998 37.0709 18.0931L31.9069 15.0929C31.8845 15.0795 31.8711 15.0571 31.8711 15.0325C31.8711 15.008 31.8845 14.9834 31.9069 14.9722L36.3131 12.43C36.3354 12.4166 36.3622 12.4166 36.3846 12.43L41.5486 15.4302C41.571 15.4436 41.5844 15.4659 41.5844 15.4905C41.5844 15.5151 41.571 15.5397 41.5486 15.5508L37.1424 18.0931C37.1424 18.0931 37.1201 18.102 37.1067 18.102ZM32.0812 15.0325L37.1044 17.9501L41.3698 15.4883L36.3444 12.5707L32.079 15.0325H32.0812Z" fill="#373B42"/>
<path d="M27.5352 17.5727L32.7014 20.573L37.1054 18.0307L31.9391 15.0327L27.5352 17.5727Z" fill="#1A1919"/>
<path d="M32.7004 20.6423C32.6892 20.6423 32.6758 20.64 32.6647 20.6333L27.5006 17.6331C27.4783 17.6197 27.4648 17.5974 27.4648 17.5728C27.4648 17.5482 27.4783 17.5236 27.5006 17.5125L31.9046 14.9725C31.9269 14.9591 31.9538 14.9591 31.9761 14.9725L37.1402 17.9727C37.1625 17.9861 37.1759 18.0084 37.1759 18.033C37.1759 18.0576 37.1625 18.0821 37.1402 18.0933L32.7362 20.6333C32.7362 20.6333 32.7138 20.6423 32.7004 20.6423ZM27.675 17.5728L32.7004 20.4904L36.9636 18.0308L31.9403 15.1132L27.6772 17.5728H27.675Z" fill="#373B42"/>
<path d="M23.125 20.116L28.2913 23.1162L32.6975 20.5739L27.5312 17.5737L23.125 20.116Z" fill="#FFBE2E"/>
<path d="M28.2942 23.1855C28.283 23.1855 28.2696 23.1833 28.2584 23.1766L23.0944 20.1764C23.072 20.163 23.0586 20.1406 23.0586 20.116C23.0586 20.0915 23.072 20.0669 23.0944 20.0557L27.5006 17.5135C27.5229 17.5001 27.5497 17.5001 27.5721 17.5135L32.7361 20.5137C32.7585 20.5271 32.7719 20.5494 32.7719 20.574C32.7719 20.5986 32.7585 20.6232 32.7361 20.6343L28.3299 23.1766C28.3299 23.1766 28.3076 23.1855 28.2942 23.1855ZM23.2687 20.116L28.2942 23.0336L32.5595 20.5718L27.5341 17.6542L23.2687 20.116Z" fill="#373B42"/>
<path d="M49.5664 4.86696L54.7305 7.86494L59.1367 5.32269L53.9726 2.32471L49.5664 4.86696Z" fill="#FFBE2E"/>
<path d="M54.7278 7.93649C54.7166 7.93649 54.7032 7.93426 54.692 7.92755L49.528 4.92734C49.5056 4.91393 49.4922 4.89159 49.4922 4.86702C49.4922 4.84244 49.5056 4.81787 49.528 4.8067L53.9342 2.26445C53.9565 2.25104 53.9833 2.25104 54.0057 2.26445L59.1697 5.26466C59.1921 5.27807 59.2055 5.30041 59.2055 5.32498C59.2055 5.34956 59.1921 5.37413 59.1697 5.3853L54.7635 7.92755C54.7635 7.92755 54.7412 7.93649 54.7278 7.93649ZM49.7046 4.86702L54.73 7.78458L58.9954 5.32275L53.9699 2.40519L49.7046 4.86702Z" fill="#373B42"/>
<path d="M32.7064 20.5723L32.7109 21.7607C32.7154 23.157 31.7295 24.8592 30.5134 25.5607C29.2973 26.2622 28.3092 25.6992 28.3047 24.303V23.1145L32.7087 20.5723H32.7064Z" fill="#FFBE2E"/>
<path d="M29.5189 25.9338C29.2976 25.9338 29.092 25.8825 28.9086 25.7775C28.4705 25.525 28.229 25.0023 28.2268 24.303V23.1146C28.2246 23.09 28.238 23.0654 28.2581 23.0543L32.6643 20.512C32.6867 20.4986 32.7135 20.4986 32.7358 20.512C32.7582 20.5254 32.7716 20.5477 32.7716 20.5723V21.7608C32.7783 23.1771 31.7768 24.9107 30.5428 25.6211C30.1829 25.8288 29.8341 25.9338 29.5189 25.9338ZM28.3654 23.1548V24.303C28.3699 24.9509 28.5867 25.4312 28.9802 25.6568C29.3759 25.8847 29.9057 25.8288 30.4735 25.5005C31.6695 24.8102 32.6397 23.1324 32.6352 21.7608V20.693L28.3654 23.1548Z" fill="#373B42"/>
<path d="M50.3203 10.4058L50.3247 11.5942C50.3292 12.9905 49.3456 14.6905 48.1295 15.3942C46.9133 16.0979 45.923 15.5349 45.9185 14.1365L45.9141 12.948L50.3203 10.4058Z" fill="#FFBE2E"/>
<path d="M47.1439 15.7673C46.9204 15.7673 46.7147 15.716 46.5336 15.611C46.0955 15.3585 45.854 14.8358 45.8518 14.1365V12.9481C45.8496 12.9235 45.863 12.8989 45.8831 12.8878L50.2893 10.3455C50.3117 10.3321 50.3385 10.3321 50.3586 10.3455C50.381 10.3589 50.3944 10.3812 50.3944 10.4058V11.5943C50.4011 13.0106 49.4018 14.7419 48.1678 15.4546C47.8079 15.6623 47.4591 15.7673 47.1439 15.7673ZM45.9904 12.9883V14.1365C45.9949 14.7822 46.2117 15.2625 46.6052 15.4881C47.0009 15.716 47.5329 15.6601 48.1007 15.3317C49.2967 14.6414 50.2647 12.9659 50.2602 11.5943V10.5265L45.9904 12.9883Z" fill="#373B42"/>
<path d="M45.9151 12.9473L45.9196 14.1357C45.9241 15.532 44.9404 17.232 43.7243 17.9357C42.5082 18.6394 41.5201 18.0742 41.5156 16.678V15.4895L45.9174 12.9495L45.9151 12.9473Z" fill="#1A1919"/>
<path d="M42.738 18.3095C42.5167 18.3095 42.311 18.2582 42.1277 18.1532C41.6895 17.9007 41.4481 17.378 41.4459 16.6787L41.4414 15.4903C41.4414 15.4657 41.4548 15.4411 41.4772 15.43L45.8811 12.8899C45.9035 12.8765 45.9303 12.8765 45.9504 12.8899C45.9728 12.9033 45.9862 12.9257 45.9862 12.9503V14.1387C45.9929 15.5551 44.9936 17.2864 43.7596 17.999C43.3997 18.2068 43.051 18.3118 42.7358 18.3118L42.738 18.3095ZM41.5822 15.5283L41.5867 16.6765C41.5867 17.3244 41.8058 17.8047 42.197 18.0303C42.5927 18.2582 43.1225 18.2023 43.6903 17.8739C44.8841 17.1836 45.8543 15.5081 45.8498 14.1365V13.0687L41.5822 15.5283Z" fill="#373B42"/>
<path d="M41.5156 15.4888V16.6772C41.5223 18.0735 40.5409 19.7735 39.3248 20.4772C38.1064 21.1809 37.1183 20.618 37.1138 19.2195L37.1094 18.031L41.5156 15.4888Z" fill="#FFBE2E"/>
<path d="M38.3353 20.8508C38.114 20.8508 37.9061 20.7995 37.725 20.6945C37.2869 20.442 37.0454 19.9193 37.0432 19.22V18.0316C37.041 18.007 37.0544 17.9824 37.0745 17.9713L41.4807 15.429C41.5031 15.4156 41.5299 15.4156 41.5522 15.429C41.5746 15.4424 41.588 15.4647 41.588 15.4893L41.5925 16.6778C41.597 18.0941 40.5954 19.8254 39.3614 20.5381C39.0015 20.7458 38.6528 20.8508 38.3353 20.8508ZM37.1796 18.0718V19.22C37.184 19.8679 37.4009 20.3482 37.7943 20.5716C38.19 20.7995 38.7221 20.7436 39.2899 20.4152C40.4837 19.7249 41.4539 18.0494 41.4494 16.6778V15.6099L37.1796 18.0718Z" fill="#373B42"/>
<path d="M37.111 18.0317L37.1155 19.2202C37.1199 20.6164 36.1363 22.3165 34.9202 23.0202C33.7041 23.7217 32.7137 23.1587 32.7115 21.7625L32.707 20.574L37.111 18.034V18.0317Z" fill="#1A1919"/>
<path d="M33.9291 23.3933C33.7078 23.3933 33.5021 23.3419 33.3188 23.2369C32.8806 22.9845 32.6392 22.4618 32.637 21.7625V20.574C32.6347 20.5495 32.6481 20.5249 32.6683 20.5137L37.0722 17.9715C37.0946 17.9581 37.1214 17.9581 37.1438 17.9715C37.1661 17.9849 37.1795 18.0072 37.1795 18.0318V19.2203C37.1862 20.6366 36.187 22.3679 34.953 23.0806C34.593 23.2883 34.2443 23.3933 33.9291 23.3933ZM32.7756 20.6143V21.7625C32.78 22.4104 32.9969 22.8907 33.3903 23.1163C33.786 23.3442 34.3158 23.2883 34.8837 22.9599C36.0797 22.2696 37.0476 20.5942 37.0432 19.2225V18.1547L32.7756 20.6143Z" fill="#373B42"/>
<path d="M59.1328 5.3208L59.1372 6.50927C59.1417 7.9055 58.1581 9.60555 56.942 10.3092C55.7258 11.0107 54.7355 10.45 54.731 9.05153L54.7266 7.86305L59.1328 5.3208Z" fill="#FFBE2E"/>
<path d="M55.9528 10.6824C55.7293 10.6824 55.5236 10.631 55.3426 10.526C54.9044 10.2736 54.663 9.75081 54.6607 9.05158L54.6562 7.86311C54.6562 7.83854 54.6697 7.81397 54.692 7.8028L59.0982 5.26054C59.1206 5.24714 59.1474 5.24714 59.1675 5.26054C59.1899 5.27394 59.2033 5.29628 59.2033 5.32086V6.50933C59.21 7.92566 58.2107 9.65699 56.9767 10.3696C56.6168 10.5774 56.2681 10.6824 55.9528 10.6824ZM54.7993 7.90332L54.8038 9.05158C54.8038 9.6972 55.0229 10.1775 55.4141 10.4031C55.8098 10.631 56.3418 10.5751 56.9096 10.2468C58.1034 9.55646 59.0736 7.88098 59.0692 6.50933V5.44149L54.7993 7.90332Z" fill="#373B42"/>
<path d="M54.7282 7.86377L54.7327 9.05224C54.7371 10.4485 53.7535 12.1485 52.5374 12.8522C51.3213 13.5537 50.3332 12.9907 50.3287 11.5945L50.3242 10.406L54.7282 7.866V7.86377Z" fill="#1A1919"/>
<path d="M51.5541 13.2258C51.3328 13.2258 51.1271 13.1745 50.9438 13.0695C50.5056 12.817 50.2642 12.2943 50.262 11.595V10.4066C50.2597 10.382 50.2731 10.3574 50.2933 10.3463L54.6972 7.804C54.7196 7.79059 54.7464 7.79059 54.7688 7.804C54.7911 7.8174 54.8045 7.83974 54.8045 7.86431L54.809 9.05279C54.8135 10.4691 53.812 12.2004 52.578 12.9131C52.218 13.1208 51.8693 13.2258 51.5541 13.2258ZM50.4006 10.4468V11.595C50.405 12.2429 50.6219 12.7232 51.0153 12.9488C51.411 13.1767 51.9408 13.1208 52.5087 12.7924C53.7024 12.1021 54.6726 10.4267 54.6682 9.05502V7.98718L50.4006 10.4468Z" fill="#373B42"/>
<path d="M23.3125 20.2148V24.8749L28.3066 23.1145L23.3125 20.2148Z" fill="#FFBE2E"/>
<path d="M23.3076 24.9445C23.2942 24.9445 23.2785 24.94 23.2673 24.9311C23.2495 24.9177 23.2383 24.8953 23.2383 24.873V20.2129C23.2383 20.1884 23.2517 20.1638 23.274 20.1526C23.2964 20.1392 23.3232 20.1392 23.3456 20.1526L28.3397 23.0523C28.3643 23.0657 28.3777 23.0925 28.3755 23.1193C28.3733 23.1461 28.3554 23.1707 28.3286 23.1797L23.3344 24.94C23.3344 24.94 23.3188 24.9445 23.3121 24.9445H23.3076ZM23.3791 20.3358V24.7747L28.1341 23.097L23.3791 20.3358Z" fill="#373B42"/>
<path d="M26.5312 35.3296L37.8787 28.8623L37.1433 35.5821C37.0807 36.1473 36.685 36.7705 36.2155 37.0386L28.1587 41.6317C27.6892 41.8997 27.2958 41.7255 27.2377 41.2295L26.5312 35.3296ZM35.2252 35.935L35.2341 32.0368C35.2341 31.867 35.1738 31.7464 35.0754 31.6905C34.977 31.6347 34.8429 31.6414 34.6931 31.7263C34.3958 31.896 34.1521 32.3115 34.1521 32.6533L34.1432 36.5516C34.1432 36.8934 34.3846 37.0342 34.6819 36.8644C34.9815 36.6946 35.2252 36.2791 35.2252 35.935ZM32.7348 37.3558L32.7438 33.4576C32.7438 33.2878 32.6834 33.1672 32.585 33.1113C32.4867 33.0555 32.3525 33.0622 32.205 33.1471C31.9054 33.3168 31.664 33.7324 31.6618 34.0741L31.6528 37.9724C31.6528 38.3142 31.8943 38.455 32.1916 38.2829C32.4889 38.1132 32.7326 37.6976 32.7348 37.3558ZM30.2422 38.7766L30.2512 34.8784C30.2512 34.7086 30.1908 34.588 30.0924 34.5321C29.9963 34.4763 29.8622 34.483 29.7124 34.5679C29.4128 34.7376 29.1714 35.1532 29.1692 35.495L29.1602 39.3932C29.1602 39.735 29.4017 39.8758 29.699 39.7037C29.9963 39.534 30.24 39.1184 30.2422 38.7766Z" fill="white"/>
<path d="M37.9086 27.1644C38.302 26.9366 38.6217 27.1198 38.6239 27.571C38.6239 28.0223 38.3065 28.5718 37.9131 28.7997L25.9866 35.6803C25.5931 35.9082 25.2734 35.725 25.2734 35.2737C25.2734 34.8225 25.5886 34.2707 25.9821 34.045L37.9086 27.1644Z" fill="#FFBE2E"/>
<path d="M34.1011 24.9083C34.4185 24.7252 34.7092 24.7944 34.8075 25.1049L35.8493 28.4827C35.9655 28.8625 35.7464 29.4612 35.3575 29.8186C35.2882 29.8834 35.2166 29.9348 35.1473 29.975C34.8299 30.1582 34.537 30.0911 34.4409 29.7784L33.3992 26.4006C33.2807 26.0209 33.502 25.4222 33.891 25.0647C33.9603 24.9999 34.0318 24.9463 34.1011 24.9061V24.9083Z" fill="white"/>
<path d="M29.1793 27.7475C29.2486 27.7073 29.3201 27.6782 29.3894 27.6603C29.7807 27.5688 30.002 27.9106 29.888 28.4244L28.8686 32.9906C28.7747 33.4128 28.4818 33.8194 28.1644 34.0026C28.0951 34.0428 28.0258 34.0718 27.9542 34.0875C27.563 34.1791 27.3417 33.835 27.4557 33.3235L28.4751 28.755C28.569 28.3328 28.8619 27.9284 29.1771 27.7452L29.1793 27.7475Z" fill="white"/>
<path d="M35.1264 28.775C35.3118 28.6678 35.4615 28.7571 35.4615 28.9693C35.4615 29.1838 35.314 29.4429 35.1286 29.5479C34.9387 29.6574 34.7891 29.5725 34.7891 29.358C34.7891 29.1458 34.9365 28.8844 35.1264 28.775Z" fill="#373B42"/>
<path d="M28.1342 32.7857C28.3196 32.6785 28.4693 32.7679 28.4693 32.9801C28.4693 33.1945 28.3219 33.4537 28.1364 33.5587C27.9466 33.6681 27.7969 33.5833 27.7969 33.3688C27.7969 33.1566 27.9443 32.8952 28.1342 32.7857Z" fill="#373B42"/>
<path d="M40.1485 22.7353C40.1239 22.7353 40.1016 22.7219 40.0881 22.6996C40.068 22.6661 40.0792 22.6236 40.1127 22.6035L52.113 15.6335C52.1465 15.6134 52.189 15.6246 52.2091 15.6581C52.2292 15.6916 52.2181 15.7341 52.1845 15.7542L40.1843 22.7242C40.1731 22.7309 40.1619 22.7331 40.1485 22.7331V22.7353Z" fill="#373B42"/>
<path d="M40.1485 25.5381C40.1239 25.5381 40.1016 25.5247 40.0881 25.5023C40.068 25.4688 40.0792 25.4264 40.1127 25.4063L52.113 18.4363C52.1465 18.4162 52.189 18.4273 52.2091 18.4609C52.2292 18.4944 52.2181 18.5368 52.1845 18.5569L40.1843 25.5269C40.1731 25.5336 40.1619 25.5358 40.1485 25.5358V25.5381Z" fill="#373B42"/>
<path d="M40.1485 28.3442C40.1239 28.3442 40.1016 28.3308 40.0881 28.3085C40.068 28.275 40.0792 28.2325 40.1127 28.2124L52.113 21.2424C52.1465 21.2223 52.189 21.2335 52.2091 21.267C52.2292 21.3005 52.2181 21.343 52.1845 21.3631L40.1843 28.333C40.1731 28.3397 40.1619 28.342 40.1485 28.342V28.3442Z" fill="#373B42"/>
<path d="M52.1487 26.9147L40.1484 33.8825V31.0789L52.1487 24.1089V26.9147Z" fill="#2B2B2B"/>
<g opacity="0.1">
<path d="M251.043 51.7426L227.181 65.6507L195.273 47.1737L219.135 33.2656L251.043 51.7426Z" fill="#010101"/>
</g>
<path d="M248.352 22.4253L248.269 51.3619L226.964 63.7797L227.047 34.8431L248.352 22.4253Z" fill="#3C2C0B"/>
<path d="M226.966 63.8875C226.985 63.8875 227.003 63.8827 227.02 63.8729L248.325 51.4551C248.358 51.436 248.378 51.4007 248.378 51.3625L248.461 22.4256C248.461 22.3872 248.44 22.3515 248.407 22.3321C248.373 22.313 248.332 22.313 248.299 22.3326L226.994 34.7505C226.961 34.7696 226.941 34.8049 226.941 34.8432L226.858 63.7797C226.858 63.8182 226.879 63.8539 226.912 63.8732C226.929 63.8827 226.947 63.8875 226.966 63.8875ZM248.163 51.3003L227.074 63.5923L227.156 34.9053L248.245 22.6131L248.163 51.3003Z" fill="#383C43"/>
<path d="M227.047 34.8442L226.964 63.7807L198.475 47.2837L198.558 18.3472L227.047 34.8442Z" fill="#3C2C0B"/>
<path d="M226.966 63.8875C226.985 63.8875 227.003 63.8827 227.02 63.8732C227.053 63.8541 227.074 63.8186 227.074 63.7802L227.156 34.8436C227.156 34.8051 227.136 34.7696 227.102 34.7503L198.613 18.2532C198.581 18.2339 198.539 18.2341 198.506 18.253C198.473 18.2721 198.452 18.3076 198.452 18.3461L198.369 47.2827C198.369 47.3212 198.389 47.3567 198.423 47.376L226.912 63.8731C226.929 63.8827 226.948 63.8875 226.966 63.8875ZM226.941 34.9054L226.859 63.5935L198.584 47.2209L198.667 18.5327L226.941 34.9054Z" fill="#383C43"/>
<path d="M248.352 22.4252L227.047 34.8431L198.558 18.3461L219.863 5.92822L248.352 22.4252Z" fill="white"/>
<path d="M227.048 34.9493C227.067 34.9493 227.086 34.9444 227.103 34.9346L248.408 22.5167C248.441 22.4973 248.461 22.4621 248.461 22.4236C248.461 22.3853 248.44 22.3498 248.407 22.3307L219.918 5.8339C219.885 5.81435 219.843 5.81455 219.81 5.83409L198.505 18.2518C198.472 18.2712 198.452 18.3064 198.452 18.3449C198.452 18.3832 198.472 18.4187 198.506 18.4378L226.995 34.9348C227.011 34.9444 227.03 34.9493 227.048 34.9493ZM248.139 22.424L227.048 34.7173L198.773 18.3445L219.864 6.05137L248.139 22.424Z" fill="#383C43"/>
<path d="M200.308 48.337L209.643 53.7438L209.649 51.9062L209.696 33.6914L209.699 32.9333L200.361 27.5264L200.308 48.337Z" fill="white"/>
<path d="M209.645 53.8519C209.664 53.8519 209.682 53.847 209.698 53.8376C209.732 53.8185 209.753 53.7832 209.753 53.7447L209.759 51.9072L209.809 32.9343C209.809 32.8958 209.788 32.8601 209.755 32.8408L200.417 27.4339C200.384 27.4145 200.343 27.4148 200.309 27.4337C200.276 27.4528 200.255 27.4883 200.255 27.5267L200.202 48.3372C200.202 48.3756 200.222 48.4111 200.256 48.4305L209.591 53.8374C209.608 53.847 209.627 53.8519 209.645 53.8519ZM209.593 32.9956L209.59 33.6915L209.538 53.5578L200.418 48.2753L200.47 27.7132L209.593 32.9956Z" fill="#383C43"/>
<path d="M201.863 47.3999L209.653 51.9082L209.699 33.6933L201.913 29.1851L201.863 47.3999Z" fill="#FFF7E4"/>
<path d="M209.654 52.0145C209.673 52.0145 209.691 52.0096 209.708 52.0002C209.741 51.9811 209.762 51.9456 209.762 51.9071L209.809 33.6923C209.809 33.6539 209.788 33.6184 209.755 33.599L201.969 29.0906C201.936 29.0713 201.895 29.0715 201.861 29.0904C201.828 29.1095 201.807 29.145 201.807 29.1835L201.757 47.3983C201.757 47.4367 201.778 47.4722 201.811 47.4916L209.6 52C209.617 52.0096 209.636 52.0145 209.654 52.0145ZM209.593 33.7541L209.547 51.7205L201.973 47.3365L202.022 29.3701L209.593 33.7541Z" fill="#383C43"/>
<path d="M200.369 27.5264L201.918 29.1831L201.868 47.3979L200.316 48.337L200.369 27.5264Z" fill="white"/>
<path d="M200.318 48.445C200.337 48.445 200.357 48.4398 200.374 48.4295L201.926 47.4905C201.958 47.4709 201.978 47.4363 201.978 47.3986L202.027 29.1838C202.027 29.1565 202.017 29.1303 201.998 29.1101L200.449 27.4535C200.42 27.4214 200.374 27.4108 200.331 27.4268C200.291 27.4429 200.263 27.4827 200.263 27.5268L200.21 48.3372C200.21 48.3761 200.231 48.412 200.265 48.4312C200.281 48.4404 200.3 48.445 200.318 48.445ZM201.762 47.3377L200.426 48.1463L200.478 27.7989L201.812 29.2259L201.762 47.3377Z" fill="#383C43"/>
<path d="M207.535 40.6819C207.402 40.4504 207.328 40.2045 207.328 39.9896C207.328 39.7962 207.387 39.6558 207.493 39.594C207.598 39.5329 207.746 39.5514 207.91 39.6457C208.096 39.7524 208.272 39.9391 208.405 40.1716C208.539 40.4046 208.613 40.6522 208.613 40.8684C208.613 41.0595 208.555 41.1986 208.449 41.26C208.344 41.3213 208.195 41.303 208.031 41.2086C207.845 41.1015 207.669 40.9146 207.535 40.6819Z" fill="#FFBE2E"/>
<path d="M208.31 41.4036C208.382 41.4036 208.447 41.387 208.505 41.3536C208.645 41.2723 208.722 41.1004 208.723 40.8693C208.723 40.6344 208.644 40.3677 208.5 40.1185C208.357 39.8699 208.168 39.6691 207.966 39.5528C207.766 39.4388 207.58 39.4204 207.44 39.5015C207.3 39.5833 207.222 39.7566 207.222 39.9901C207.222 40.2237 207.3 40.4887 207.443 40.736V40.7362C207.586 40.985 207.777 41.1861 207.979 41.3023C208.096 41.3695 208.209 41.4036 208.31 41.4036ZM207.635 39.6666C207.697 39.6666 207.775 39.6912 207.858 39.7393C208.027 39.8368 208.189 40.0095 208.313 40.2255C208.438 40.4428 208.507 40.6712 208.507 40.8689C208.507 41.0179 208.467 41.1268 208.397 41.1673C208.327 41.2083 208.213 41.189 208.086 41.1157C207.916 41.0181 207.754 40.8452 207.63 40.6286C207.506 40.4134 207.437 40.1867 207.437 39.9901C207.437 39.8388 207.478 39.7285 207.549 39.6875C207.572 39.6736 207.602 39.6666 207.635 39.6666Z" fill="#383C43"/>
<path d="M212.762 49.5418L223.485 55.7505L223.488 54.359L223.516 45.3361L214.103 39.8856L212.793 39.1274L212.762 49.5418Z" fill="white"/>
<path d="M223.486 55.8586C223.505 55.8586 223.523 55.8537 223.54 55.8443C223.573 55.8252 223.594 55.7897 223.594 55.7512L223.625 45.3372C223.625 45.2986 223.605 45.2631 223.571 45.2437L212.849 39.0349C212.816 39.0156 212.775 39.0159 212.741 39.0348C212.708 39.0539 212.687 39.0894 212.687 39.1276L212.656 49.542C212.656 49.5806 212.676 49.6162 212.71 49.6355L223.432 55.844C223.449 55.8537 223.468 55.8586 223.486 55.8586ZM223.41 45.3988L223.379 55.5646L212.871 49.4804L212.902 39.3144L223.41 45.3988Z" fill="#383C43"/>
<path d="M214.075 48.9055L223.488 54.3592L223.516 45.3363L214.103 39.8857L214.075 48.9055Z" fill="#FFBE2E"/>
<path d="M223.49 54.4667C223.508 54.4667 223.527 54.4619 223.543 54.4524C223.577 54.4333 223.597 54.3978 223.597 54.3596L223.625 45.3369C223.625 45.2982 223.605 45.2627 223.571 45.2434L214.158 39.7928C214.125 39.7734 214.084 39.7737 214.051 39.7926C214.017 39.8117 213.997 39.8472 213.997 39.8854L213.969 48.9052C213.969 48.9438 213.989 48.9793 214.022 48.9987L223.436 54.4522C223.452 54.4619 223.471 54.4667 223.49 54.4667ZM223.41 45.3984L223.382 54.1728L214.184 48.8438L214.212 40.0722L223.41 45.3984Z" fill="#383C43"/>
<path d="M212.757 49.5413L214.07 48.9048L214.098 39.8851L212.788 39.127L212.757 49.5413Z" fill="#F1F2F5"/>
<path d="M212.763 49.6494C212.779 49.6494 212.795 49.6459 212.81 49.6387L214.122 49.0023C214.159 48.9842 214.183 48.9468 214.183 48.9058L214.211 39.8861C214.211 39.8474 214.191 39.8119 214.157 39.7926L212.848 39.0345C212.815 39.0151 212.774 39.0154 212.74 39.0343C212.707 39.0534 212.686 39.0889 212.686 39.1271L212.655 49.5415C212.655 49.5787 212.674 49.6134 212.705 49.6331C212.723 49.644 212.743 49.6494 212.763 49.6494ZM213.967 48.838L212.871 49.3698L212.901 39.3139L213.996 39.9476L213.967 48.838Z" fill="#383C43"/>
<path d="M202.906 20.5542L198.873 18.2031C196.725 19.4468 194.991 23.0712 195 26.2992L199.034 28.6503C199.025 25.4224 200.759 21.7979 202.906 20.5542Z" fill="#FFBE2E"/>
<path d="M199.028 28.7579C199.046 28.7579 199.065 28.753 199.082 28.7435C199.115 28.7242 199.136 28.6885 199.136 28.65C199.126 25.4616 200.84 21.8716 202.954 20.6472C202.987 20.6281 203.008 20.5926 203.008 20.5544C203.008 20.5159 202.988 20.4806 202.954 20.4613L198.921 18.11C198.887 18.0904 198.846 18.0902 198.813 18.1098C196.638 19.3689 194.877 23.0427 194.886 26.2993C194.886 26.3376 194.907 26.3728 194.94 26.392L198.974 28.7431C198.99 28.753 199.009 28.7579 199.028 28.7579ZM202.69 20.556C200.629 21.8704 198.977 25.333 198.922 28.4638L195.102 26.2373C195.114 23.0918 196.79 19.5732 198.867 18.3276L202.69 20.556Z" fill="#383C43"/>
<path d="M202.901 20.5527C200.754 21.7964 199.02 25.4209 199.029 28.6488L202.918 26.3969L202.901 20.5527Z" fill="white"/>
<path d="M199.031 28.7566C199.05 28.7566 199.068 28.7517 199.085 28.7421L202.974 26.4902C203.007 26.4708 203.027 26.4353 203.027 26.3969L203.011 20.5527C203.011 20.5142 202.99 20.4787 202.957 20.4595C202.923 20.4406 202.882 20.4404 202.849 20.4597C200.675 21.7186 198.914 25.3924 198.923 28.6491C198.923 28.6875 198.944 28.7231 198.977 28.7422C198.994 28.7517 199.013 28.7566 199.031 28.7566ZM202.812 26.3351L199.14 28.4616C199.195 25.4028 200.797 22.0272 202.796 20.7443L202.812 26.3351Z" fill="#383C43"/>
<path d="M206.941 22.9029L202.908 20.5518C200.76 21.7954 199.026 25.4199 199.035 28.6478L203.069 30.9989C203.06 27.771 204.794 24.1465 206.941 22.9029Z" fill="white"/>
<path d="M203.063 31.1073C203.082 31.1073 203.1 31.1024 203.117 31.093C203.15 31.0736 203.171 31.0379 203.171 30.9995C203.161 27.8111 204.875 24.2211 206.989 22.9967C207.022 22.9776 207.043 22.942 207.043 22.9038C207.043 22.8653 207.023 22.83 206.99 22.8107L202.956 20.4596C202.922 20.44 202.881 20.4398 202.848 20.4594C200.673 21.7182 198.912 25.3921 198.921 28.6487C198.921 28.687 198.942 28.7223 198.975 28.7414L203.009 31.0925C203.026 31.1024 203.044 31.1073 203.063 31.1073ZM206.725 22.9055C204.664 24.2198 203.012 27.6825 202.957 30.8133L199.137 28.5868C199.15 25.4411 200.825 21.9227 202.902 20.6773L206.725 22.9055Z" fill="#383C43"/>
<path d="M206.929 22.9058C204.781 24.1494 203.047 27.7739 203.056 31.0018L206.945 28.7499L206.929 22.9058Z" fill="white"/>
<path d="M203.054 31.1091C203.073 31.1091 203.092 31.1043 203.108 31.0946L206.997 28.8427C207.031 28.8234 207.051 28.7879 207.051 28.7494L207.034 22.9052C207.034 22.8667 207.014 22.8312 206.981 22.8121C206.947 22.7932 206.906 22.793 206.873 22.8123C204.699 24.0711 202.937 27.7449 202.947 31.0016C202.947 31.0401 202.967 31.0756 203.001 31.0947C203.017 31.1043 203.036 31.1091 203.054 31.1091ZM206.835 28.6876L203.163 30.8141C203.218 27.7554 204.821 24.3797 206.819 23.0969L206.835 28.6876Z" fill="#383C43"/>
<path d="M210.98 25.2583L206.947 22.9072C204.799 24.1509 203.065 27.7753 203.074 31.0033L207.108 33.3544C207.099 30.1264 208.833 26.502 210.98 25.2583Z" fill="#FFBE2E"/>
<path d="M207.102 33.4618C207.121 33.4618 207.139 33.4569 207.156 33.4475C207.189 33.4281 207.21 33.3924 207.21 33.354C207.201 30.1653 208.914 26.5754 211.028 25.3511C211.061 25.3321 211.082 25.2965 211.082 25.2583C211.082 25.2198 211.062 25.1845 211.029 25.1652L206.995 22.8141C206.962 22.7945 206.92 22.7943 206.887 22.8139C204.713 24.0727 202.952 27.7465 202.961 31.0032C202.961 31.0415 202.982 31.0768 203.014 31.0959L207.048 33.447C207.065 33.4569 207.083 33.4618 207.102 33.4618ZM210.764 25.26C208.704 26.5743 207.051 30.037 206.996 33.1678L203.176 30.9413C203.189 27.7955 204.865 24.2772 206.942 23.0318L210.764 25.26Z" fill="#383C43"/>
<path d="M210.98 25.2563C208.832 26.5 207.098 30.1245 207.107 33.3524L210.996 31.1005L210.98 25.2563Z" fill="white"/>
<path d="M207.105 33.4611C207.123 33.4611 207.142 33.4563 207.159 33.4466L211.048 31.1947C211.081 31.1754 211.102 31.1398 211.102 31.1014L211.085 25.2572C211.085 25.2188 211.064 25.1833 211.031 25.1641C210.997 25.1452 210.956 25.145 210.923 25.1643C208.749 26.423 206.988 30.0968 206.997 33.3537C206.997 33.3921 207.018 33.4276 207.051 33.4467C207.068 33.4563 207.086 33.4611 207.105 33.4611ZM210.886 31.0396L207.214 33.1661C207.269 30.1071 208.871 26.7315 210.87 25.4489L210.886 31.0396Z" fill="#383C43"/>
<path d="M215 27.6074L210.966 25.2563C208.819 26.5 207.085 30.1245 207.094 33.3524L211.128 35.7035C211.119 32.4756 212.852 28.8511 215 27.6074Z" fill="white"/>
<path d="M211.122 35.8114C211.14 35.8114 211.159 35.8065 211.175 35.7971C211.209 35.7777 211.229 35.742 211.229 35.7036C211.22 32.5152 212.933 28.9252 215.048 27.7008C215.081 27.6817 215.102 27.6462 215.102 27.6079C215.102 27.5694 215.081 27.5341 215.048 27.5148L211.014 25.1637C210.981 25.1441 210.939 25.1439 210.906 25.1635C208.732 26.4221 206.971 30.0959 206.98 33.3528C206.98 33.3911 207.001 33.4264 207.034 33.4455L211.067 35.7966C211.084 35.8065 211.103 35.8114 211.122 35.8114ZM214.784 27.6096C212.723 28.9239 211.07 32.3865 211.015 35.5173L207.196 33.2908C207.209 30.1448 208.884 26.6266 210.961 25.3813L214.784 27.6096Z" fill="#383C43"/>
<path d="M214.995 27.6074C212.848 28.8511 211.114 32.4755 211.123 35.7035L215.012 33.4516L214.995 27.6074Z" fill="white"/>
<path d="M211.125 35.8117C211.143 35.8117 211.162 35.8068 211.179 35.7972L215.067 33.5453C215.101 33.5259 215.121 33.4904 215.121 33.452L215.105 27.6078C215.105 27.5694 215.084 27.5339 215.051 27.5147C215.017 27.4958 214.976 27.4956 214.943 27.5149C212.769 28.7737 211.008 32.4476 211.017 35.7043C211.017 35.7427 211.038 35.7782 211.071 35.7973C211.088 35.8068 211.106 35.8117 211.125 35.8117ZM214.906 33.3902L211.234 35.5167C211.289 32.4579 212.891 29.0823 214.89 27.7995L214.906 33.3902Z" fill="#383C43"/>
<path d="M219.047 29.9585L215.013 27.6074C212.866 28.8511 211.132 32.4755 211.141 35.7035L215.175 38.0546C215.165 34.8267 216.899 31.2022 219.047 29.9585Z" fill="#FFBE2E"/>
<path d="M215.169 38.1619C215.187 38.1619 215.206 38.157 215.222 38.1476C215.256 38.1282 215.276 38.0925 215.276 38.0541C215.267 34.8657 216.98 31.2757 219.095 30.0513C219.128 30.0322 219.148 29.9967 219.148 29.9585C219.148 29.92 219.128 29.8847 219.095 29.8654L215.061 27.5143C215.028 27.4947 214.986 27.4945 214.953 27.5141C212.779 28.7729 211.018 32.4468 211.027 35.7034C211.027 35.7417 211.048 35.7769 211.08 35.7961L215.114 38.1472C215.131 38.1571 215.15 38.1619 215.169 38.1619ZM218.831 29.9601C216.77 31.2745 215.117 34.7371 215.062 37.8679L211.242 35.6414C211.255 32.4956 212.931 28.9773 215.008 27.7319L218.831 29.9601Z" fill="#383C43"/>
<path d="M219.046 29.9575C216.898 31.2011 215.165 34.8256 215.174 38.0536L219.062 35.8017L219.046 29.9575Z" fill="white"/>
<path d="M215.176 38.1613C215.194 38.1613 215.213 38.1565 215.229 38.1468L219.118 35.8949C219.152 35.8755 219.172 35.84 219.172 35.8016L219.155 29.9574C219.155 29.9189 219.135 29.8834 219.102 29.8643C219.068 29.8454 219.027 29.8452 218.994 29.8645C216.82 31.1233 215.059 34.7972 215.068 38.0539C215.068 38.0923 215.088 38.1278 215.122 38.1469C215.139 38.1565 215.157 38.1613 215.176 38.1613ZM218.957 35.7399L215.284 37.8664C215.34 34.8076 216.942 31.432 218.941 30.1492L218.957 35.7399Z" fill="#383C43"/>
<path d="M223.074 32.3086L219.041 29.9575C216.893 31.2011 215.159 34.8256 215.168 38.0536L219.202 40.4047C219.193 37.1767 220.927 33.5522 223.074 32.3086Z" fill="white"/>
<path d="M219.196 40.513C219.214 40.513 219.233 40.5082 219.25 40.4987C219.283 40.4794 219.303 40.4437 219.303 40.4052C219.295 37.2166 221.008 33.6266 223.122 32.4024C223.155 32.3833 223.176 32.3478 223.176 32.3096C223.176 32.2711 223.156 32.2358 223.122 32.2164L219.089 29.8653C219.056 29.8458 219.014 29.8456 218.981 29.8651C216.807 31.124 215.045 34.7978 215.055 38.0545C215.055 38.0928 215.075 38.128 215.108 38.1472L219.142 40.4983C219.158 40.5082 219.177 40.513 219.196 40.513ZM222.858 32.3113C220.798 33.6256 219.145 37.0883 219.09 40.2191L215.27 37.9926C215.283 34.8468 216.959 31.3285 219.035 30.0831L222.858 32.3113Z" fill="#383C43"/>
<path d="M223.069 32.3076C220.922 33.5512 219.188 37.1757 219.197 40.4037L223.086 38.1518L223.069 32.3076Z" fill="white"/>
<path d="M219.199 40.5109C219.217 40.5109 219.236 40.5061 219.252 40.4964L223.141 38.2445C223.175 38.2252 223.195 38.1896 223.195 38.1512L223.178 32.307C223.178 32.2685 223.158 32.233 223.125 32.2139C223.091 32.195 223.05 32.1948 223.017 32.2141C220.843 33.4728 219.082 37.1466 219.091 40.4035C219.091 40.4419 219.111 40.4774 219.145 40.4966C219.162 40.5061 219.18 40.5109 219.199 40.5109ZM222.98 38.0894L219.307 40.2159C219.363 37.1569 220.965 33.7813 222.964 32.4987L222.98 38.0894Z" fill="#383C43"/>
<path d="M227.113 34.6587L223.08 32.3076C220.932 33.5512 219.198 37.1757 219.207 40.4037L223.241 42.7548C223.232 39.5268 224.966 35.9023 227.113 34.6587Z" fill="#FFBE2E"/>
<path d="M223.239 42.8621C223.257 42.8621 223.276 42.8572 223.293 42.8478C223.326 42.8284 223.346 42.7927 223.346 42.7543C223.337 39.5659 225.05 35.9759 227.165 34.7515C227.198 34.7324 227.219 34.6969 227.219 34.6586C227.219 34.6202 227.199 34.5848 227.165 34.5656L223.132 32.2145C223.098 32.1949 223.057 32.1947 223.023 32.2143C220.85 33.4729 219.088 37.1467 219.097 40.4036C219.097 40.4419 219.118 40.4772 219.151 40.4963L223.185 42.8474C223.201 42.8572 223.22 42.8621 223.239 42.8621ZM226.901 34.6603C224.84 35.9746 223.188 39.4372 223.132 42.568L219.313 40.3415C219.326 37.1956 221.002 33.6773 223.078 32.4321L226.901 34.6603Z" fill="#383C43"/>
<path d="M227.112 34.6616C224.965 35.9053 223.231 39.5297 223.24 42.7577L227.129 40.5058L227.112 34.6616Z" fill="white"/>
<path d="M223.242 42.8644C223.26 42.8644 223.279 42.8596 223.296 42.8499L227.184 40.598C227.218 40.5787 227.238 40.5432 227.238 40.5047L227.222 34.6605C227.222 34.6221 227.201 34.5865 227.168 34.5674C227.134 34.5485 227.093 34.5484 227.06 34.5676C224.886 35.8265 223.125 39.5003 223.134 42.757C223.134 42.7955 223.155 42.831 223.188 42.8501C223.205 42.8596 223.223 42.8644 223.242 42.8644ZM227.023 40.443L223.351 42.5694C223.406 39.5107 225.008 36.135 227.007 34.8522L227.023 40.443Z" fill="#383C43"/>
<path d="M250.023 17.8931L250.013 21.4542L227.043 34.8425L227.053 31.2814L250.023 17.8931Z" fill="white"/>
<path d="M227.045 34.9508C227.064 34.9508 227.083 34.9459 227.099 34.9361L250.069 21.5478C250.102 21.5287 250.123 21.4934 250.123 21.4551L250.133 17.8939C250.133 17.8555 250.112 17.8198 250.079 17.8004C250.045 17.7813 250.004 17.7813 249.971 17.8008L227.001 31.1891C226.968 31.2082 226.947 31.2435 226.947 31.2818L226.938 34.843C226.938 34.8814 226.958 34.9171 226.991 34.9365C227.008 34.9459 227.027 34.9508 227.045 34.9508ZM249.907 21.393L227.153 34.6556L227.163 31.344L249.917 18.0814L249.907 21.393Z" fill="#383C43"/>
<path d="M250.023 17.8931L250.013 21.4542L227.043 34.8425L227.053 31.2814L250.023 17.8931Z" fill="#DBDEE4"/>
<path d="M227.045 34.9508C227.064 34.9508 227.083 34.9459 227.099 34.9361L250.069 21.5478C250.102 21.5287 250.123 21.4934 250.123 21.4551L250.133 17.8939C250.133 17.8555 250.112 17.8198 250.079 17.8004C250.045 17.7813 250.004 17.7813 249.971 17.8008L227.001 31.1891C226.968 31.2082 226.947 31.2435 226.947 31.2818L226.938 34.843C226.938 34.8814 226.958 34.9171 226.991 34.9365C227.008 34.9459 227.027 34.9508 227.045 34.9508ZM249.907 21.393L227.153 34.6556L227.163 31.344L249.917 18.0814L249.907 21.393Z" fill="#383C43"/>
<path d="M227.055 31.282L227.045 34.8431L196.329 17.0567L196.339 13.4956L227.055 31.282Z" fill="white"/>
<path d="M227.043 34.9494C227.061 34.9494 227.08 34.9445 227.097 34.9351C227.13 34.916 227.151 34.8805 227.151 34.842L227.16 31.2808C227.16 31.2424 227.14 31.2069 227.106 31.1875L196.391 13.4012C196.358 13.3818 196.317 13.3821 196.283 13.401C196.25 13.4201 196.23 13.4556 196.23 13.494L196.219 17.0552C196.219 17.0937 196.24 17.1292 196.273 17.1485L226.989 34.9349C227.005 34.9445 227.024 34.9494 227.043 34.9494ZM226.945 31.3426L226.936 34.6554L196.435 16.9935L196.444 13.6806L226.945 31.3426Z" fill="#383C43"/>
<path d="M227.055 31.282L227.045 34.8431L196.329 17.0567L196.339 13.4956L227.055 31.282Z" fill="#3C2C0B"/>
<path d="M227.043 34.9494C227.061 34.9494 227.08 34.9445 227.097 34.9351C227.13 34.916 227.151 34.8805 227.151 34.842L227.16 31.2808C227.16 31.2424 227.14 31.2069 227.106 31.1875L196.391 13.4012C196.358 13.3818 196.317 13.3821 196.283 13.401C196.25 13.4201 196.23 13.4556 196.23 13.494L196.219 17.0552C196.219 17.0937 196.24 17.1292 196.273 17.1485L226.989 34.9349C227.005 34.9445 227.024 34.9494 227.043 34.9494ZM226.945 31.3426L226.936 34.6554L196.435 16.9935L196.444 13.6806L226.945 31.3426Z" fill="#383C43"/>
<path d="M250.023 17.8943L227.053 31.2826L196.338 13.4962L219.308 0.10791L250.023 17.8943Z" fill="#F1F2F5"/>
<path d="M227.055 31.3899C227.074 31.3899 227.092 31.385 227.109 31.3752L250.079 17.9868C250.113 17.9675 250.133 17.9322 250.133 17.8938C250.133 17.8555 250.112 17.82 250.079 17.8009L219.363 0.0145625C219.33 -0.00498103 219.288 -0.00479002 219.255 0.0147535L196.285 13.403C196.252 13.4224 196.232 13.4576 196.232 13.4961C196.232 13.5343 196.252 13.5698 196.286 13.5889L227.001 31.3754C227.017 31.385 227.036 31.3899 227.055 31.3899ZM249.811 17.8942L227.055 31.1579L196.554 13.4957L219.309 0.232094L249.811 17.8942Z" fill="#383C43"/>
<path d="M201.303 13.4862L203.198 14.5813L227.051 28.3963L243.164 19.0053L245.059 17.9009L219.311 2.99072L201.303 13.4862Z" fill="#383C43"/>
<path d="M227.053 28.5044C227.072 28.5044 227.09 28.4996 227.107 28.4897L245.115 17.9945C245.148 17.9751 245.168 17.9399 245.168 17.9014C245.168 17.8632 245.147 17.8277 245.114 17.8086L219.367 2.89835C219.334 2.87881 219.292 2.879 219.259 2.89854L201.251 13.3938C201.218 13.4132 201.198 13.4485 201.198 13.4869C201.198 13.5252 201.218 13.5607 201.251 13.5798L203.146 14.6749L226.999 28.4899C227.015 28.4996 227.034 28.5044 227.053 28.5044ZM244.846 17.9019L227.053 28.2724L201.52 13.4862L219.313 3.11576L244.846 17.9019Z" fill="#383C43"/>
<path d="M203.198 14.5819L227.051 28.397L243.164 19.0059L219.311 5.19092L203.198 14.5819Z" fill="#FFF7E4"/>
<path d="M227.056 28.5037C227.075 28.5037 227.094 28.4989 227.111 28.489L243.224 19.0982C243.257 19.0789 243.277 19.0436 243.277 19.0052C243.277 18.9669 243.257 18.9314 243.224 18.9123L219.371 5.09708C219.337 5.07754 219.296 5.07773 219.262 5.09727L203.149 14.4884C203.116 14.5077 203.096 14.543 203.096 14.5814C203.096 14.6197 203.116 14.6552 203.149 14.6743L227.002 28.4893C227.019 28.4989 227.038 28.5037 227.056 28.5037ZM242.956 19.0055L227.056 28.2717L203.417 14.5808L219.317 5.31436L242.956 19.0055Z" fill="#383C43"/>
<g opacity="0.1">
<path d="M214.21 39.9478L217.178 50.7673L218.363 51.4549L215.396 40.6354L214.21 39.9478Z" fill="#978050"/>
</g>
<g opacity="0.1">
<path d="M218.202 42.1953L221.17 53.0148L222.355 53.7025L219.388 42.8829L218.202 42.1953Z" fill="#978050"/>
</g>
<path d="M238.941 35.2243L238.958 39.9049L238.962 40.7931L245.723 36.8783L245.702 31.3096L244.935 31.7537L238.941 35.2243Z" fill="white"/>
<path d="M238.862 40.8598C238.88 40.8598 238.899 40.8549 238.916 40.8453L245.677 36.9307C245.71 36.9113 245.73 36.8756 245.73 36.8372L245.71 31.2682C245.71 31.2298 245.689 31.1945 245.656 31.1754C245.623 31.1565 245.581 31.1563 245.548 31.1756L238.788 35.0904C238.754 35.1097 238.734 35.1452 238.734 35.1839L238.754 40.7526C238.754 40.791 238.775 40.8263 238.808 40.8454C238.825 40.8549 238.843 40.8598 238.862 40.8598ZM245.515 36.7758L238.969 40.566L238.95 35.2453L245.495 31.455L245.515 36.7758Z" fill="#383C43"/>
<path d="M238.95 35.2236L238.967 39.9041L244.965 36.4293L244.944 31.7529L238.95 35.2236Z" fill="#FFBE2E"/>
<path d="M238.968 40.0113C238.987 40.0113 239.005 40.0064 239.022 39.9968L245.02 36.5219C245.054 36.5026 245.074 36.4669 245.074 36.4284L245.054 31.7521C245.054 31.7137 245.033 31.6783 244.999 31.6592C244.967 31.6403 244.925 31.6401 244.892 31.6594L238.898 35.1301C238.865 35.1494 238.844 35.1849 238.844 35.2236L238.86 39.904C238.86 39.9425 238.881 39.9778 238.915 39.9969C238.931 40.0064 238.95 40.0113 238.968 40.0113ZM244.859 36.3671L239.075 39.7174L239.06 35.285L244.839 31.9388L244.859 36.3671Z" fill="#212121"/>
<path d="M229.539 40.3757L229.555 45.0562L229.559 45.9444L236.32 42.0297L236.3 36.4609L235.533 36.9051L229.539 40.3757Z" fill="white"/>
<path d="M229.561 46.0521C229.58 46.0521 229.599 46.0473 229.615 46.0376L236.376 42.1228C236.409 42.1034 236.43 42.0677 236.43 42.0293L236.409 36.4606C236.409 36.4222 236.389 36.3868 236.355 36.3677C236.322 36.3488 236.28 36.3486 236.248 36.3679L229.487 40.2828C229.453 40.3021 229.433 40.3378 229.433 40.3763L229.453 45.945C229.453 45.9834 229.474 46.0187 229.508 46.0378C229.524 46.0473 229.543 46.0521 229.561 46.0521ZM236.214 41.968L229.668 45.7584L229.649 40.4376L236.195 36.6474L236.214 41.968Z" fill="#212121"/>
<path d="M229.54 40.3754L229.556 45.056L235.555 41.5812L235.534 36.9048L229.54 40.3754Z" fill="#FFBE2E"/>
<path d="M229.457 45.1236C229.475 45.1236 229.494 45.1187 229.511 45.1091L235.509 41.6342C235.542 41.6149 235.562 41.5792 235.562 41.5407L235.542 36.8644C235.542 36.826 235.521 36.7906 235.488 36.7716C235.455 36.7526 235.413 36.7525 235.38 36.7717L229.386 40.2424C229.353 40.2617 229.333 40.2974 229.333 40.3359L229.349 45.0164C229.349 45.0549 229.37 45.0902 229.403 45.1093C229.42 45.1187 229.438 45.1236 229.457 45.1236ZM235.347 41.4794L229.564 44.8296L229.548 40.3972L235.327 37.051L235.347 41.4794Z" fill="#212121"/>
<path d="M238.941 44.4651L238.958 49.1456L238.962 50.0339L245.723 46.119L245.702 40.5503L244.935 40.9944L238.941 44.4651Z" fill="white"/>
<path d="M238.862 50.1C238.88 50.1 238.899 50.0951 238.916 50.0855L245.677 46.1706C245.71 46.1513 245.73 46.1156 245.73 46.0771L245.71 40.5085C245.71 40.47 245.689 40.4347 245.656 40.4156C245.623 40.3967 245.581 40.3965 245.548 40.4158L238.788 44.3306C238.754 44.35 238.734 44.3855 238.734 44.4241L238.754 49.9928C238.754 50.0312 238.775 50.0666 238.808 50.0857C238.825 50.0951 238.843 50.1 238.862 50.1ZM245.515 46.0158L238.969 49.8062L238.95 44.4854L245.495 40.6952L245.515 46.0158Z" fill="white"/>
<path d="M238.95 44.4648L238.967 49.1453L244.965 45.6705L244.944 40.9941L238.95 44.4648Z" fill="#FFBE2E"/>
<path d="M238.968 49.253C238.987 49.253 239.005 49.2481 239.022 49.2385L245.02 45.7636C245.054 45.7443 245.074 45.7086 245.074 45.6701L245.054 40.9938C245.054 40.9554 245.033 40.92 244.999 40.9009C244.967 40.882 244.925 40.8818 244.892 40.9011L238.898 44.3718C238.865 44.3911 238.844 44.4266 238.844 44.4653L238.86 49.1457C238.86 49.1842 238.881 49.2195 238.915 49.2386C238.931 49.2481 238.95 49.253 238.968 49.253ZM244.859 45.6088L239.075 48.959L239.06 44.5266L244.839 41.1804L244.859 45.6088Z" fill="#212121"/>
<path d="M229.535 49.6154L229.551 54.296L229.555 55.1842L236.316 51.2694L236.296 45.7007L235.529 46.1448L229.535 49.6154Z" fill="white"/>
<path d="M229.452 55.2508C229.47 55.2508 229.489 55.246 229.506 55.2363L236.266 51.3215C236.3 51.3022 236.32 51.2665 236.32 51.228L236.3 45.6593C236.3 45.6209 236.279 45.5856 236.245 45.5665C236.213 45.5476 236.171 45.5474 236.138 45.5667L229.378 49.4815C229.344 49.5008 229.324 49.5365 229.324 49.575L229.344 55.1437C229.344 55.1821 229.365 55.2174 229.398 55.2365C229.415 55.246 229.433 55.2508 229.452 55.2508ZM236.105 51.1667L229.558 54.9571L229.54 49.6364L236.085 45.8461L236.105 51.1667Z" fill="#383C43"/>
<path d="M229.532 49.6161L229.548 54.2967L235.547 50.8219L235.526 46.1455L229.532 49.6161Z" fill="#FFBE2E"/>
<path d="M229.55 54.4038C229.569 54.4038 229.588 54.3989 229.604 54.3893L235.602 50.9145C235.636 50.8952 235.656 50.8595 235.656 50.821L235.636 46.1447C235.636 46.1062 235.615 46.0709 235.581 46.0518C235.549 46.0329 235.507 46.0327 235.474 46.052L229.48 49.5226C229.447 49.542 229.426 49.5777 229.426 49.6161L229.443 54.2967C229.443 54.3351 229.463 54.3705 229.497 54.3896C229.513 54.399 229.532 54.4038 229.55 54.4038ZM235.441 50.7596L229.657 54.1099L229.642 49.6775L235.421 46.3313L235.441 50.7596Z" fill="#212121"/>
<defs>
<linearGradient id="paint0_linear_219_98308" x1="135.289" y1="43.396" x2="135.289" y2="98.6795" gradientUnits="userSpaceOnUse">
<stop stop-color="#FFBE2E" stop-opacity="0"/>
<stop offset="1" stop-color="#FFBE2E"/>
</linearGradient>
<linearGradient id="paint1_linear_219_98308" x1="118.168" y1="43.2954" x2="118.168" y2="43.3659" gradientUnits="userSpaceOnUse">
<stop stop-color="#3F300D"/>
<stop offset="0.5" stop-color="#6E5713"/>
<stop offset="1" stop-color="#30240A"/>
</linearGradient>
<linearGradient id="paint2_linear_219_98308" x1="118.181" y1="43.3662" x2="118.181" y2="47.5308" gradientUnits="userSpaceOnUse">
<stop stop-color="#3F300D"/>
<stop offset="0.5" stop-color="#2E230A"/>
<stop offset="1" stop-color="#0A0702"/>
</linearGradient>
<linearGradient id="paint3_linear_219_98308" x1="118.222" y1="43.2954" x2="118.222" y2="43.302" gradientUnits="userSpaceOnUse">
<stop stop-color="#30240A"/>
<stop offset="0.5" stop-color="#090602"/>
<stop offset="1" stop-color="#30240A"/>
</linearGradient>
<linearGradient id="paint4_linear_219_98308" x1="118.257" y1="47.5303" x2="118.257" y2="47.5306" gradientUnits="userSpaceOnUse">
<stop stop-color="#735C14"/>
<stop offset="1" stop-color="#735C14"/>
</linearGradient>
<linearGradient id="paint5_linear_219_98308" x1="118.261" y1="43.2837" x2="118.261" y2="43.3018" gradientUnits="userSpaceOnUse">
<stop stop-color="#30240A"/>
<stop offset="0.5" stop-color="#665112"/>
<stop offset="1" stop-color="#4E3C0F"/>
</linearGradient>
<linearGradient id="paint6_linear_219_98308" x1="118.41" y1="47.5312" x2="118.41" y2="49.9597" gradientUnits="userSpaceOnUse">
<stop stop-color="#0A0702"/>
<stop offset="0.5" stop-color="#281E08"/>
<stop offset="1" stop-color="#1A1305"/>
</linearGradient>
<linearGradient id="paint7_linear_219_98308" x1="118.426" y1="41.1904" x2="118.426" y2="43.2838" gradientUnits="userSpaceOnUse">
<stop stop-color="#4D3C0F"/>
<stop offset="0.5" stop-color="#31250A"/>
<stop offset="1" stop-color="#4E3C0F"/>
</linearGradient>
<linearGradient id="paint8_linear_219_98308" x1="122.796" y1="33.897" x2="122.796" y2="41.1903" gradientUnits="userSpaceOnUse">
<stop stop-color="#4E3C0F"/>
<stop offset="0.5" stop-color="#897016"/>
<stop offset="1" stop-color="#30240A"/>
</linearGradient>
<linearGradient id="paint9_linear_219_98308" x1="125.992" y1="49.9595" x2="125.992" y2="73.3541" gradientUnits="userSpaceOnUse">
<stop stop-color="#1A1305"/>
<stop offset="0.5"/>
<stop offset="1"/>
</linearGradient>
<linearGradient id="paint10_linear_219_98308" x1="127.368" y1="41.5806" x2="127.368" y2="63.6481" gradientUnits="userSpaceOnUse">
<stop stop-color="#1D1506"/>
<stop offset="0.5" stop-color="#32260B"/>
<stop offset="1"/>
</linearGradient>
<linearGradient id="paint11_linear_219_98308" x1="131.628" y1="33.897" x2="131.628" y2="37.3787" gradientUnits="userSpaceOnUse">
<stop stop-color="#30240A"/>
<stop offset="0.5" stop-color="#050301"/>
<stop offset="1"/>
</linearGradient>
<linearGradient id="paint12_linear_219_98308" x1="131.628" y1="33.897" x2="131.628" y2="37.3787" gradientUnits="userSpaceOnUse">
<stop stop-color="#30240A"/>
<stop offset="0.5" stop-color="#050301"/>
<stop offset="1"/>
</linearGradient>
<linearGradient id="paint13_linear_219_98308" x1="133.442" y1="41.6626" x2="133.442" y2="44.1976" gradientUnits="userSpaceOnUse">
<stop stop-color="#1D1506"/>
<stop offset="0.5"/>
<stop offset="1"/>
</linearGradient>
<linearGradient id="paint14_linear_219_98308" x1="134.642" y1="63.6479" x2="134.642" y2="68.6409" gradientUnits="userSpaceOnUse">
<stop/>
<stop offset="0.5"/>
<stop offset="1" stop-color="#30240A"/>
</linearGradient>
<linearGradient id="paint15_linear_219_98308" x1="136.769" y1="44.1973" x2="136.769" y2="44.483" gradientUnits="userSpaceOnUse">
<stop/>
<stop offset="0.5" stop-color="#110C03"/>
<stop offset="1" stop-color="#30240A"/>
</linearGradient>
<linearGradient id="paint16_linear_219_98308" x1="137.514" y1="37.3789" x2="137.514" y2="44.4829" gradientUnits="userSpaceOnUse">
<stop/>
<stop offset="0.5" stop-color="#271D08"/>
<stop offset="1" stop-color="#30240A"/>
</linearGradient>
<linearGradient id="paint17_linear_219_98308" x1="137.644" y1="73.3545" x2="137.644" y2="76.3197" gradientUnits="userSpaceOnUse">
<stop/>
<stop offset="0.5" stop-color="#080501"/>
<stop offset="1" stop-color="#30240A"/>
</linearGradient>
<linearGradient id="paint18_linear_219_98308" x1="141.887" y1="61.2949" x2="141.887" y2="68.641" gradientUnits="userSpaceOnUse">
<stop stop-color="#30240A"/>
<stop offset="0.5" stop-color="#927816"/>
<stop offset="1" stop-color="#35280B"/>
</linearGradient>
<linearGradient id="paint19_linear_219_98308" x1="144.74" y1="40.6709" x2="144.74" y2="61.2946" gradientUnits="userSpaceOnUse">
<stop stop-color="#36290B"/>
<stop offset="0.5" stop-color="#261C08"/>
<stop offset="1" stop-color="#35280B"/>
</linearGradient>
<linearGradient id="paint20_linear_219_98308" x1="145.523" y1="38.6582" x2="145.523" y2="40.671" gradientUnits="userSpaceOnUse">
<stop stop-color="#36290B"/>
<stop offset="0.5" stop-color="#967B17"/>
<stop offset="1" stop-color="#30240A"/>
</linearGradient>
<linearGradient id="paint21_linear_219_98308" x1="146.258" y1="65.9121" x2="146.258" y2="76.3193" gradientUnits="userSpaceOnUse">
<stop stop-color="#382A0C"/>
<stop offset="0.5" stop-color="#957A17"/>
<stop offset="1" stop-color="#30240A"/>
</linearGradient>
<linearGradient id="paint22_linear_219_98308" x1="148.47" y1="26.4419" x2="148.47" y2="31.8365" gradientUnits="userSpaceOnUse">
<stop stop-color="#30240A"/>
<stop offset="0.5"/>
<stop offset="1" stop-color="#241B07"/>
</linearGradient>
<linearGradient id="paint23_linear_219_98308" x1="150.647" y1="44.0528" x2="150.647" y2="65.9121" gradientUnits="userSpaceOnUse">
<stop stop-color="#30240A"/>
<stop offset="1" stop-color="#30240A"/>
</linearGradient>
</defs>
</svg>
