<svg width="60" height="60" viewBox="0 0 60 60" fill="none" xmlns="http://www.w3.org/2000/svg">
<rect x="30.2285" y="14" width="29" height="37" rx="4" fill="white"/>
<path d="M4.89773 33.17C4.08132 33.177 3.29706 33.4887 2.6991 34.0439C2.10114 34.599 1.73272 35.3574 1.66625 36.17L0.0109554 56.47C-0.0260667 56.9218 0.0309803 57.3764 0.178505 57.8051C0.32603 58.2338 0.560838 58.6274 0.868144 58.961C1.17091 59.2881 1.53808 59.5493 1.94665 59.7281C2.35521 59.9069 2.79636 59.9994 3.24244 60H53.1116C53.3772 60 53.6319 59.8946 53.8197 59.7071C54.0075 59.5196 54.113 59.2652 54.113 59V38.039C54.113 37.7738 54.0075 37.5194 53.8197 37.3319C53.6319 37.1444 53.3772 37.039 53.1116 37.039H45.5221V25.557C45.6563 25.566 45.7905 25.577 45.9276 25.577C47.4438 25.5751 48.8974 24.9729 49.9695 23.9022C51.0416 22.8316 51.6447 21.3801 51.6466 19.866V14.31C51.6466 14.297 51.6406 14.287 51.6396 14.275C51.6371 14.1578 51.6137 14.042 51.5705 13.933C51.5625 13.914 51.5504 13.899 51.5414 13.881C51.514 13.8194 51.4805 13.7608 51.4413 13.706L45.5201 5.906V4.96C45.5185 3.64536 44.995 2.38499 44.0643 1.45521C43.1336 0.52543 41.8717 0.00211687 40.5552 0H13.5577C12.2409 0.00158783 10.9785 0.524668 10.0474 1.4545C9.11625 2.38434 8.59245 3.64501 8.59086 4.96V5.907L2.66964 13.707C2.63045 13.7618 2.5969 13.8204 2.5695 13.882C2.56049 13.9 2.54848 13.915 2.54046 13.934C2.49722 14.043 2.47382 14.1588 2.47137 14.276C2.47137 14.288 2.46436 14.298 2.46436 14.311V19.867C2.46621 21.3811 3.06934 22.8326 4.14144 23.9032C5.21355 24.9739 6.6671 25.5761 8.18329 25.578C8.32048 25.578 8.45467 25.567 8.58885 25.558V33.17H4.89773ZM13.5577 58H3.24244C3.07256 58 2.90457 57.9644 2.74933 57.8955C2.59409 57.8266 2.45505 57.7259 2.34119 57.6C2.22074 57.47 2.12885 57.3163 2.07142 57.1487C2.01399 56.9811 1.9923 56.8034 2.00773 56.627L3.66302 36.327C3.68789 36.0154 3.82816 35.7241 4.05646 35.5102C4.28476 35.2963 4.5847 35.175 4.89773 35.17H21.0111C21.3254 35.1741 21.6269 35.2955 21.8561 35.5103C22.0854 35.7252 22.2258 36.018 22.2498 36.331L23.9041 56.631C23.9195 56.8076 23.8979 56.9855 23.8404 57.1532C23.783 57.3209 23.6911 57.4748 23.5706 57.605C23.4567 57.7309 23.3177 57.8315 23.1625 57.9004C23.0072 57.9693 22.8393 58.0049 22.6694 58.005L13.5577 58ZM52.1112 58H31.4335V39.039H37.6512V45.69C37.6512 45.9552 37.7567 46.2096 37.9445 46.3971C38.1323 46.5846 38.387 46.69 38.6526 46.69H44.8922C45.1578 46.69 45.4125 46.5846 45.6003 46.3971C45.7881 46.2096 45.8936 45.9552 45.8936 45.69V39.039H52.1102L52.1112 58ZM43.8908 39.039V44.69H39.6539V39.039H43.8908ZM49.6438 19.866C49.6438 20.8502 49.2523 21.7941 48.5554 22.4901C47.8584 23.186 46.9132 23.577 45.9276 23.577C44.9421 23.577 43.9968 23.186 43.2999 22.4901C42.603 21.7941 42.2115 20.8502 42.2115 19.866V15.31H49.6438V19.866ZM40.2087 19.866C40.1927 20.8398 39.7941 21.7683 39.0988 22.4513C38.4036 23.1343 37.4673 23.5171 36.4921 23.5171C35.5168 23.5171 34.5806 23.1343 33.8853 22.4513C33.19 21.7683 32.7914 20.8398 32.7754 19.866V15.31H40.2087V19.866ZM30.7726 19.866C30.7726 20.8502 30.3811 21.7941 29.6842 22.4901C28.9873 23.186 28.0421 23.577 27.0565 23.577C26.0709 23.577 25.1257 23.186 24.4287 22.4901C23.7318 21.7941 23.3403 20.8502 23.3403 19.866V15.31H30.7726V19.866ZM17.2238 7.239H22.399L21.7271 11.666L21.4777 13.31H14.459L16.8273 8.11L17.2238 7.239ZM24.4258 7.239H29.6871L29.9375 8.882L30.6094 13.31H23.4995L24.1715 8.882L24.4258 7.239ZM36.8891 7.239L37.2897 8.11L39.6579 13.31H32.6352L32.3859 11.666L31.7139 7.239H36.8891ZM13.9042 15.31H21.3375V19.866C21.3215 20.8398 20.9229 21.7683 20.2276 22.4513C19.5324 23.1343 18.5962 23.5171 17.6209 23.5171C16.6456 23.5171 15.7094 23.1343 15.0141 22.4513C14.3188 21.7683 13.9202 20.8398 13.9042 19.866V15.31ZM41.854 13.31L41.4534 12.438L39.0852 7.238H44.02L48.6264 13.309L41.854 13.31ZM13.5577 2H40.5552C41.341 2.00106 42.0943 2.31325 42.65 2.86813C43.2056 3.42301 43.5182 4.17528 43.5193 4.96V5.239H10.5936V4.96C10.5947 4.17528 10.9073 3.42301 11.463 2.86813C12.0186 2.31325 12.7719 2.00106 13.5577 2ZM10.0929 7.239H15.0238L12.6555 12.439L12.2549 13.311H5.48355L10.0929 7.239ZM4.46914 19.866V15.31H11.9014V19.866C11.9014 20.8502 11.5099 21.7941 10.813 22.4901C10.1161 23.186 9.17088 23.577 8.18529 23.577C7.19971 23.577 6.25449 23.186 5.55757 22.4901C4.86066 21.7941 4.46914 20.8502 4.46914 19.866ZM10.5936 25.039C11.524 24.6062 12.3213 23.9325 12.9028 23.088C13.4264 23.8558 14.1299 24.4843 14.9522 24.9186C15.7745 25.3529 16.6907 25.5799 17.6209 25.5799C18.5511 25.5799 19.4672 25.3529 20.2895 24.9186C21.1118 24.4843 21.8154 23.8558 22.3389 23.088C22.8625 23.8556 23.566 24.4839 24.3882 24.918C25.2104 25.3522 26.1264 25.5792 27.0565 25.5792C27.9865 25.5792 28.9025 25.3522 29.7247 24.918C30.5469 24.4839 31.2504 23.8556 31.774 23.088C32.2976 23.8558 33.0011 24.4843 33.8234 24.9186C34.6457 25.3529 35.5618 25.5799 36.4921 25.5799C37.4223 25.5799 38.3384 25.3529 39.1607 24.9186C39.983 24.4843 40.6865 23.8558 41.2101 23.088C41.7916 23.9325 42.589 24.6062 43.5193 25.039V37.039H30.4321C30.1666 37.039 29.9119 37.1444 29.7241 37.3319C29.5363 37.5194 29.4308 37.7738 29.4308 38.039V58H25.6375C25.846 57.5172 25.935 56.9914 25.8969 56.467L24.2426 36.167C24.1759 35.3545 23.8074 34.5962 23.2095 34.0411C22.6116 33.486 21.8274 33.1743 21.0111 33.167H10.5936V25.039Z" fill="black"/>
<path d="M17.1016 37.0391C16.836 37.0391 16.5813 37.1444 16.3935 37.332C16.2057 37.5195 16.1002 37.7738 16.1002 38.0391V39.5321C16.1002 40.3654 15.7687 41.1646 15.1786 41.7538C14.5886 42.343 13.7883 42.6741 12.9538 42.6741C12.1194 42.6741 11.3191 42.343 10.729 41.7538C10.139 41.1646 9.80747 40.3654 9.80747 39.5321V38.0391C9.80747 37.7738 9.70196 37.5195 9.51417 37.332C9.32637 37.1444 9.07166 37.0391 8.80608 37.0391C8.54049 37.0391 8.28578 37.1444 8.09799 37.332C7.91019 37.5195 7.80469 37.7738 7.80469 38.0391V39.5321C7.80469 40.8958 8.34719 42.2037 9.31284 43.168C10.2785 44.1323 11.5882 44.6741 12.9538 44.6741C14.3195 44.6741 15.6292 44.1323 16.5948 43.168C17.5605 42.2037 18.103 40.8958 18.103 39.5321V38.0391C18.103 37.9077 18.0771 37.7777 18.0267 37.6564C17.9764 37.5351 17.9027 37.4248 17.8097 37.332C17.7167 37.2391 17.6063 37.1654 17.4848 37.1152C17.3633 37.0649 17.2331 37.0391 17.1016 37.0391Z" fill="black"/>
<path d="M49.7202 55.2109H43.6908C43.4253 55.2109 43.1705 55.3163 42.9828 55.5038C42.795 55.6914 42.6895 55.9457 42.6895 56.2109C42.6895 56.4762 42.795 56.7305 42.9828 56.918C43.1705 57.1056 43.4253 57.2109 43.6908 57.2109H49.7202C49.9858 57.2109 50.2405 57.1056 50.4283 56.918C50.6161 56.7305 50.7216 56.4762 50.7216 56.2109C50.7216 55.9457 50.6161 55.6914 50.4283 55.5038C50.2405 55.3163 49.9858 55.2109 49.7202 55.2109Z" fill="black"/>
<path d="M45.8418 53.4219C45.8418 53.6871 45.9473 53.9414 46.1351 54.129C46.3229 54.3165 46.5776 54.4219 46.8432 54.4219H49.7202C49.9858 54.4219 50.2405 54.3165 50.4283 54.129C50.6161 53.9414 50.7216 53.6871 50.7216 53.4219C50.7216 53.1567 50.6161 52.9023 50.4283 52.7148C50.2405 52.5272 49.9858 52.4219 49.7202 52.4219H46.8432C46.5776 52.4219 46.3229 52.5272 46.1351 52.7148C45.9473 52.9023 45.8418 53.1567 45.8418 53.4219Z" fill="black"/>
<path d="M43.6908 54.4219H44.3918C44.6574 54.4219 44.9121 54.3165 45.0999 54.129C45.2877 53.9414 45.3932 53.6871 45.3932 53.4219C45.3932 53.1567 45.2877 52.9023 45.0999 52.7148C44.9121 52.5272 44.6574 52.4219 44.3918 52.4219H43.6908C43.4253 52.4219 43.1705 52.5272 42.9828 52.7148C42.795 52.9023 42.6895 53.1567 42.6895 53.4219C42.6895 53.6871 42.795 53.9414 42.9828 54.129C43.1705 54.3165 43.4253 54.4219 43.6908 54.4219Z" fill="black"/>
</svg>
