<svg width="124" height="124" viewBox="0 0 124 124" fill="none" xmlns="http://www.w3.org/2000/svg">
<circle cx="62" cy="62" r="61.5" fill="#FFBE2E" stroke="#3C2C0B"/>
<rect x="17" y="38" width="77" height="54" rx="2" fill="white"/>
<path fill-rule="evenodd" clip-rule="evenodd" d="M97.7821 88.5026H26.2179C23.8746 88.5026 22 86.6279 22 84.3315V28.2799C22 25.9835 23.8746 24.062 26.2179 24.062H97.7821C100.079 24.062 101.953 25.9835 101.953 28.2799V84.2846C101.953 86.6279 100.079 88.5026 97.7821 88.5026ZM26.2179 26.2178C25.0463 26.2178 24.1558 27.1552 24.1558 28.2799V84.2846C24.1558 85.4563 25.0463 86.3467 26.2179 86.3467H97.7821C98.9069 86.3467 99.8442 85.4563 99.8442 84.2846V28.2799C99.8442 27.1552 98.9069 26.2178 97.7821 26.2178H26.2179Z" fill="black"/>
<path fill-rule="evenodd" clip-rule="evenodd" d="M100.922 79.5513H23.0779C21.6719 79.5513 21.6719 77.4424 23.0779 77.4424H100.922C102.328 77.4424 102.328 79.5513 100.922 79.5513Z" fill="black"/>
<path fill-rule="evenodd" clip-rule="evenodd" d="M66.7108 84.0035H57.2908C55.8848 84.0035 55.8848 81.8945 57.2908 81.8945H66.664C68.07 81.8945 68.07 84.0035 66.7108 84.0035Z" fill="black"/>
<path fill-rule="evenodd" clip-rule="evenodd" d="M52.6971 99.8909C52.1347 99.8909 51.666 99.4223 51.666 98.8599V87.4246C51.666 86.0186 53.775 86.0186 53.775 87.4246V98.8599C53.775 99.4223 53.3063 99.8909 52.6971 99.8909Z" fill="black"/>
<path fill-rule="evenodd" clip-rule="evenodd" d="M71.2557 99.8909C70.6933 99.8909 70.2246 99.4223 70.2246 98.8599V87.4246C70.2246 86.0186 72.3336 86.0186 72.3336 87.4246V98.8599C72.3336 99.4223 71.8649 99.8909 71.2557 99.8909Z" fill="black"/>
<path fill-rule="evenodd" clip-rule="evenodd" d="M77.2087 99.8909H46.7928C45.3868 99.8909 45.3868 97.782 46.7928 97.782H77.2087C78.6147 97.782 78.6147 99.8909 77.2087 99.8909Z" fill="black"/>
<path fill-rule="evenodd" clip-rule="evenodd" d="M37.7937 60.4298C37.325 60.4298 36.9033 60.1487 36.7627 59.6331C36.2471 57.6648 35.6379 54.1967 37.6531 52.4627C39.1528 51.1973 41.543 51.291 44.9173 52.7907C45.386 52.8844 46.2296 52.7438 47.0731 53.8218C47.823 54.8528 47.9636 56.4462 47.5418 58.6489C47.2606 60.0549 45.1516 59.6331 45.4328 58.2272C45.8546 56.1651 45.6203 54.8997 44.9173 54.9465C43.3707 54.9934 36.5752 50.26 38.8248 59.0239C39.0122 59.8675 38.4498 60.4298 37.7937 60.4298Z" fill="black"/>
<path fill-rule="evenodd" clip-rule="evenodd" d="M42.0586 66.2413C39.9965 66.2413 38.2625 64.8822 37.4189 62.7264C36.8096 62.1171 36.1535 60.8517 36.7159 59.3052C36.4816 58.3678 36.3879 57.2431 37.1377 56.5401C38.45 55.3684 40.6058 56.8681 41.4025 57.0556C43.3709 57.4305 42.9022 56.0714 44.1207 56.3526C44.9643 56.5869 44.73 57.2899 45.058 57.5243C45.9016 58.0398 45.9954 57.1025 46.8858 57.4774C47.9637 57.8992 47.4013 59.1646 47.4013 59.3052C47.9637 60.8517 47.2607 62.1171 46.6515 62.7264C45.8548 64.8822 44.0739 66.2413 42.0586 66.2413ZM38.6843 58.2741C38.7311 58.9302 39.0123 59.3052 38.778 59.8207C38.2625 60.9455 39.1998 61.2267 39.3873 61.7891C40.3246 64.8353 43.6989 64.8822 44.73 61.7891C44.9174 61.2267 45.8548 60.9455 45.3392 59.8207L45.2924 59.7738C44.5894 59.6801 43.9801 59.3989 43.5115 58.9302C41.4025 59.8207 39.9965 58.649 38.6843 58.2741Z" fill="black"/>
<path fill-rule="evenodd" clip-rule="evenodd" d="M49.4637 75.8489H34.6541C34.0448 75.8489 33.5762 75.3802 33.5762 74.8178V69.85C33.5762 67.6005 35.4039 65.7258 37.6066 65.7258C39.2001 65.7258 41.1216 65.3978 41.1216 66.8038C41.1216 68.2097 39.2001 67.8817 37.6066 67.8817C36.5756 67.8817 35.732 68.7721 35.732 69.85V73.7399H48.3858V69.85C48.3858 68.7721 47.5422 67.8817 46.5111 67.8817C44.8708 67.8817 42.9493 68.2097 42.9493 66.8038C42.9493 65.3509 44.8708 65.7727 46.5111 65.7258C48.7138 65.7258 50.4947 67.6005 50.4947 69.85V74.8178C50.4947 75.3802 50.0261 75.8489 49.4637 75.8489Z" fill="black"/>
<path fill-rule="evenodd" clip-rule="evenodd" d="M42.058 69.6626C41.355 69.6626 40.1834 68.3504 39.3398 67.6005C38.8243 67.085 39.0118 65.679 39.0118 64.5542C39.0118 63.1483 41.1207 63.1483 41.1207 64.5542V66.3351L42.058 67.1787L42.9485 66.3351C42.9485 65.1635 42.6673 63.4763 44.0264 63.4763C45.4324 63.4763 45.1043 65.3041 45.1043 66.8038C45.1043 67.1319 44.9637 67.413 44.7294 67.6005C43.9327 68.3504 42.761 69.6626 42.058 69.6626Z" fill="black"/>
<path fill-rule="evenodd" clip-rule="evenodd" d="M89.3458 72.5684H53.7746C52.3687 72.5684 52.3687 70.4126 53.7746 70.4126H88.2679V61.9299H69.2872C68.7248 61.9299 68.2562 61.4612 68.2562 60.8988V53.6346H50.9158C50.3534 53.6346 49.8848 53.166 49.8848 52.6036V43.9334C49.8848 43.3241 50.3534 42.8555 50.9158 42.8555H82.7846C84.1906 42.8555 84.1906 44.9644 82.7846 44.9644H51.9937V51.5257H69.2872C69.8965 51.5257 70.3651 51.9943 70.3651 52.6036V59.8209H89.3458C89.9082 59.8209 90.3769 60.2896 90.3769 60.8988V71.4905C90.3769 72.0998 89.9082 72.5684 89.3458 72.5684Z" fill="black"/>
<path fill-rule="evenodd" clip-rule="evenodd" d="M82.7858 44.9642C82.4109 44.9642 82.036 44.7767 81.8485 44.4486C80.1613 41.5898 76.1777 36.997 76.1777 34.2788C76.1777 30.717 79.1303 27.7644 82.7858 27.7644C86.4414 27.7644 89.3939 30.717 89.3939 34.2788C89.3939 36.997 85.4103 41.5898 83.7231 44.4486C83.4888 44.7767 83.1607 44.9642 82.7858 44.9642ZM82.7858 29.8734C80.3019 29.8734 78.3336 31.8886 78.3336 34.2788C78.3336 35.8253 81.333 39.8558 82.7858 41.9648C84.1918 39.8089 87.2381 35.8253 87.2381 34.3256C87.2381 31.8886 85.2697 29.8734 82.7858 29.8734Z" fill="black"/>
<path fill-rule="evenodd" clip-rule="evenodd" d="M82.7865 37.7002C81.0525 37.7002 79.5996 36.2942 79.5996 34.5133C79.5996 32.7793 81.0525 31.3733 82.7865 31.3733C84.5205 31.3733 85.9734 32.7793 85.9734 34.5133C85.9734 36.2942 84.5205 37.7002 82.7865 37.7002ZM82.7865 33.4823C81.4274 33.4823 81.4274 35.5912 82.7865 35.5912C84.1456 35.5912 84.1456 33.4823 82.7865 33.4823Z" fill="black"/>
</svg>
