<svg width="83" height="83" viewBox="0 0 83 83" fill="none" xmlns="http://www.w3.org/2000/svg">
<circle cx="41.5" cy="41.5" r="41.5" fill="#FFBE2E"/>
<rect x="19.5293" y="19.5295" width="43.9412" height="43.9412" rx="2.75407" fill="white"/>
<path d="M20.3468 62.7573C20.3468 63.0257 20.2402 63.283 20.0505 63.4727C19.8607 63.6625 19.6034 63.7691 19.3351 63.7691C18.6269 63.7691 17.9126 63.752 17.2135 63.7185C17.0808 63.7121 16.9506 63.6797 16.8304 63.623C16.7102 63.5663 16.6024 63.4865 16.513 63.3882C16.4236 63.2899 16.3545 63.1749 16.3096 63.0498C16.2647 62.9248 16.2448 62.7921 16.2512 62.6593C16.2576 62.5266 16.29 62.3964 16.3467 62.2762C16.4033 62.1561 16.4831 62.0482 16.5815 61.9588C16.6798 61.8695 16.7948 61.8004 16.9199 61.7555C17.0449 61.7105 17.1776 61.6907 17.3103 61.6971C17.9772 61.7289 18.6585 61.745 19.3351 61.745C19.468 61.745 19.5996 61.7712 19.7224 61.8221C19.8452 61.873 19.9567 61.9476 20.0507 62.0416C20.1446 62.1356 20.2191 62.2472 20.2699 62.37C20.3207 62.4928 20.3469 62.6244 20.3468 62.7573ZM16.2509 53.5848C16.2445 53.7175 16.2644 53.8502 16.3093 53.9753C16.3542 54.1004 16.4233 54.2154 16.5127 54.3137C16.602 54.4121 16.7099 54.4918 16.8301 54.5485C16.9503 54.6052 17.0805 54.6376 17.2132 54.6439C17.9103 54.6775 18.6241 54.6944 19.3348 54.6944C19.6031 54.6944 19.8604 54.5878 20.0502 54.398C20.2399 54.2083 20.3465 53.951 20.3465 53.6827C20.3465 53.4143 20.2399 53.157 20.0502 52.9673C19.8604 52.7775 19.6031 52.6709 19.3348 52.6709C18.6555 52.6709 17.9749 52.6549 17.31 52.6231C17.1773 52.6164 17.0445 52.636 16.9193 52.6808C16.7942 52.7255 16.6791 52.7946 16.5807 52.8839C16.4823 52.9733 16.4025 53.0812 16.3459 53.2015C16.2893 53.3217 16.257 53.452 16.2509 53.5848ZM19.3348 70.8202C18.6866 70.8202 18.0035 70.8057 17.304 70.7761C17.0358 70.7648 16.7742 70.8606 16.5767 71.0422C16.3791 71.2239 16.2619 71.4766 16.2506 71.7447C16.2394 72.0129 16.3351 72.2745 16.5168 72.472C16.6985 72.6695 16.9511 72.7868 17.2193 72.7981C17.9468 72.8286 18.6585 72.8442 19.3348 72.8442C19.6031 72.8442 19.8604 72.7376 20.0502 72.5478C20.2399 72.3581 20.3465 72.1008 20.3465 71.8325C20.3465 71.5641 20.2399 71.3068 20.0502 71.1171C19.8604 70.9273 19.6031 70.8207 19.3348 70.8207V70.8202ZM59.6545 20.4604C59.6481 20.5931 59.6679 20.7258 59.7128 20.8509C59.7577 20.976 59.8268 21.091 59.9162 21.1894C60.0055 21.2877 60.1134 21.3675 60.2336 21.4242C60.3537 21.4809 60.4839 21.5133 60.6167 21.5197C61.2653 21.5509 61.9594 21.5661 62.7382 21.5661C63.0066 21.5661 63.2639 21.4595 63.4536 21.2698C63.6434 21.08 63.75 20.8227 63.75 20.5544C63.75 20.286 63.6434 20.0287 63.4536 19.839C63.2639 19.6492 63.0066 19.5426 62.7382 19.5426C61.9919 19.5426 61.3298 19.5282 60.7138 19.4993C60.4459 19.4864 60.1838 19.5803 59.9852 19.7606C59.7866 19.9408 59.6676 20.1925 59.6545 20.4604ZM33.5964 45.0828V72.041C33.5964 73.1984 32.7455 74.8342 28.6923 76.0557C25.9029 76.896 22.2114 77.3589 18.2982 77.3589C14.385 77.3589 10.6935 76.8964 7.90409 76.0557C3.85086 74.8342 3 73.1984 3 72.041V45.0828C3 43.9265 3.85086 42.2919 7.90395 41.0698C10.695 40.2284 14.3863 39.7649 18.2982 39.7649C22.2101 39.7649 25.9014 40.2284 28.6925 41.0698C32.7455 42.2919 33.5964 43.9266 33.5964 45.0828ZM31.573 65.759C30.6659 66.2777 29.6988 66.6834 28.693 66.9668C25.902 67.8083 22.2107 68.2719 18.2988 68.2719C14.3869 68.2719 10.6956 67.8083 7.90452 66.9668C6.89839 66.6835 5.93081 66.2778 5.02344 65.759V72.041C5.02344 72.4562 5.94598 73.3519 8.48742 74.1176C11.0927 74.9027 14.5767 75.3349 18.2976 75.3349C22.0186 75.3349 25.5025 74.9027 28.1078 74.1176C30.6493 73.3516 31.5718 72.4555 31.5718 72.041L31.573 65.759ZM31.573 56.6694C30.666 57.1883 29.6987 57.594 28.6929 57.8772C25.9034 58.7177 22.212 59.1806 18.2988 59.1806C14.3856 59.1806 10.6941 58.7181 7.90467 57.8772C6.89844 57.5942 5.93079 57.1886 5.02344 56.6697V62.9539C5.02344 63.3681 5.94598 64.2628 8.48756 65.0291C11.0943 65.815 14.5783 66.2478 18.2976 66.2478C22.017 66.2478 25.5009 65.815 28.1077 65.0291C30.6493 64.2631 31.5718 63.3681 31.5718 62.9539L31.573 56.6694ZM31.573 47.9021C28.7375 49.6041 23.3592 50.4008 18.2988 50.4008C13.2343 50.4008 7.85986 49.6048 5.02459 47.9047V53.8626C5.02459 54.2778 5.94714 55.1735 8.48857 55.9394C11.0939 56.7243 14.578 57.1566 18.2988 57.1566C22.0196 57.1566 25.5037 56.7243 28.109 55.9394C30.6504 55.1733 31.573 54.2773 31.573 53.8626V47.9021ZM31.573 45.0828C31.573 44.6685 30.6504 43.774 28.1088 43.0077C25.5021 42.2216 22.0181 41.7889 18.2988 41.7889C14.5794 41.7889 11.0955 42.2216 8.48872 43.0077C5.94656 43.774 5.02344 44.6685 5.02344 45.0828V45.1093C5.10134 46.2233 9.83474 48.3768 18.2976 48.3768C26.7605 48.3768 31.5034 46.2152 31.5695 45.1047C31.5695 45.0978 31.5712 45.0911 31.5718 45.0843L31.573 45.0828ZM77 11.9587V38.9169C77 40.0742 76.1491 41.7101 72.0959 42.9313C69.3065 43.7719 65.6151 44.2348 61.7018 44.2348C57.7885 44.2348 54.0971 43.7723 51.3075 42.9313C47.2543 41.7101 46.4035 40.0742 46.4035 38.9169V11.9587C46.4035 10.8024 47.2543 9.16761 51.3074 7.9456C54.0984 7.10414 57.7899 6.64062 61.7018 6.64062C65.6137 6.64062 69.305 7.10414 72.0961 7.9456C76.1491 9.16761 77 10.8024 77 11.9587ZM74.9766 32.6341C74.0696 33.153 73.1024 33.5587 72.0966 33.8421C69.3056 34.6836 65.6143 35.1471 61.7024 35.1471C57.7905 35.1471 54.099 34.6836 51.308 33.8421C50.3023 33.5586 49.3351 33.153 48.428 32.6341V38.9169C48.428 39.3321 49.3506 40.2277 51.892 40.9935C54.4975 41.7785 57.9816 42.2108 61.7024 42.2108C65.4232 42.2108 68.9073 41.7785 71.5126 40.9935C74.054 40.2275 74.9766 39.3314 74.9766 38.9169V32.6341ZM74.9766 23.5447C74.0696 24.0636 73.1023 24.4692 72.0965 24.7524C69.307 25.5929 65.6157 26.0558 61.7024 26.0558C57.7891 26.0558 54.0976 25.5933 51.3081 24.7524C50.3023 24.4692 49.335 24.0636 48.428 23.5447V29.8302C48.428 30.2446 49.3506 31.1392 51.8922 31.9054C54.4989 32.6915 57.983 33.1242 61.7024 33.1242C65.4217 33.1242 68.9057 32.6915 71.5124 31.9054C74.0534 31.1387 74.9766 30.244 74.9766 29.8302V23.5447ZM74.9766 14.7786C72.1409 16.4797 66.766 17.276 61.7024 17.276C56.6689 17.276 51.2726 16.4776 48.428 14.7705V20.7392C48.428 21.1545 49.3506 22.0501 51.892 22.8158C54.4974 23.6009 57.9814 24.0331 61.7024 24.0331C65.4233 24.0331 68.9073 23.6009 71.5126 22.8158C74.054 22.0498 74.9766 21.1537 74.9766 20.7392V14.7786ZM74.9766 11.9581C74.9766 11.5437 74.054 10.6491 71.5124 9.88275C68.9057 9.09679 65.4217 8.66406 61.7024 8.66406C57.983 8.66406 54.4989 9.09679 51.8922 9.88275C49.3506 10.6488 48.428 11.5437 48.428 11.9581V11.9851C48.428 11.9886 48.4294 11.9919 48.4298 11.9954C48.5589 13.1318 53.2313 15.2519 61.7024 15.2519C70.1617 15.2519 74.8969 13.0973 74.9766 11.9826V11.9581ZM62.7382 37.6958C62.0902 37.6958 61.407 37.6813 60.7076 37.6524C60.4394 37.6412 60.1778 37.7369 59.9803 37.9186C59.7827 38.1002 59.6655 38.3529 59.6542 38.6211C59.643 38.8892 59.7387 39.1508 59.9204 39.3483C60.1021 39.5459 60.3547 39.6632 60.6229 39.6744C61.3504 39.7049 62.0621 39.7204 62.7382 39.7204C63.0066 39.7204 63.2639 39.6138 63.4536 39.424C63.6434 39.2343 63.75 38.977 63.75 38.7086C63.75 38.4403 63.6434 38.183 63.4536 37.9932C63.2639 37.8035 63.0066 37.6969 62.7382 37.6969V37.6958ZM62.7382 28.6209C62.0598 28.6209 61.3785 28.6049 60.7136 28.5731C60.4456 28.5603 60.1834 28.6544 59.9847 28.8349C59.7861 29.0154 59.6673 29.2674 59.6544 29.5355C59.6416 29.8035 59.7358 30.0657 59.9163 30.2644C60.0967 30.463 60.3487 30.5818 60.6168 30.5947C61.3139 30.628 62.0276 30.6451 62.7382 30.6451C63.0066 30.6451 63.2639 30.5385 63.4536 30.3488C63.6434 30.159 63.75 29.9017 63.75 29.6334C63.75 29.3651 63.6434 29.1077 63.4536 28.918C63.2639 28.7283 63.0066 28.6217 62.7382 28.6217V28.6209ZM62.7112 47.3862C62.9774 51.0648 62.8875 57.8126 59.2961 61.6734C57.6535 63.4392 55.506 64.3346 52.9137 64.3346H47.8293V67.8419C47.8294 68.0342 47.7747 68.2226 47.6716 68.3849C47.5685 68.5472 47.4213 68.6768 47.2472 68.7584C47.0731 68.8401 46.8793 68.8704 46.6886 68.846C46.4979 68.8214 46.3181 68.7431 46.1703 68.6201L37.5214 61.4248C37.4073 61.3298 37.3154 61.2109 37.2524 61.0765C37.1893 60.942 37.1566 60.7954 37.1566 60.6469C37.1566 60.4984 37.1893 60.3517 37.2524 60.2173C37.3154 60.0829 37.4073 59.964 37.5214 59.869L46.1703 52.6744C46.3181 52.5514 46.4979 52.473 46.6886 52.4485C46.8793 52.424 47.0731 52.4544 47.2472 52.5361C47.4213 52.6177 47.5685 52.7473 47.6716 52.9096C47.7747 53.0719 47.8294 53.2603 47.8293 53.4526V56.9595H52.9137C54.9023 56.9595 57.8456 53.246 60.7871 47.0261C60.8825 46.8238 61.0423 46.6588 61.2415 46.557C61.4407 46.4552 61.668 46.4222 61.8879 46.4633C62.1078 46.5044 62.3079 46.6172 62.4569 46.7841C62.6058 46.951 62.6953 47.1626 62.7112 47.3857V47.3862ZM60.7342 51.5566C57.9556 56.4889 55.3319 58.9839 52.9137 58.9839H46.8172C46.5489 58.9839 46.2916 58.8773 46.1019 58.6876C45.9121 58.4979 45.8055 58.2405 45.8055 57.9722V55.6104L39.7507 60.6473L45.8055 65.6842V63.3226C45.8055 63.0543 45.9121 62.7969 46.1019 62.6072C46.2916 62.4175 46.5489 62.3109 46.8172 62.3109H52.9137C54.9496 62.3109 56.5526 61.6515 57.8143 60.2951C59.5009 58.4818 60.5123 55.4 60.7342 51.5566ZM42.4783 24.1305L33.8298 31.3245C33.682 31.4476 33.5023 31.526 33.3115 31.5506C33.1208 31.5752 32.927 31.5448 32.7529 31.4632C32.5787 31.3816 32.4315 31.252 32.3284 31.0897C32.2252 30.9273 32.1705 30.739 32.1706 30.5467V27.0438H27.0861C25.0974 27.0438 22.1541 30.7573 19.2131 36.9773C19.1177 37.1797 18.9578 37.3447 18.7586 37.4466C18.5594 37.5485 18.332 37.5815 18.1121 37.5403C17.8921 37.4992 17.692 37.3864 17.543 37.2194C17.3941 37.0524 17.3047 36.8408 17.2888 36.6176C17.0745 33.6547 16.9782 26.332 20.7049 22.326C22.3474 20.5603 24.4944 19.6651 27.0861 19.6651H32.1706V16.1576C32.1705 15.9653 32.2252 15.7769 32.3284 15.6146C32.4315 15.4522 32.5787 15.3227 32.7529 15.241C32.927 15.1594 33.1208 15.1291 33.3115 15.1537C33.5023 15.1782 33.682 15.2566 33.8298 15.3797L42.4783 22.5748C42.5925 22.6697 42.6845 22.7886 42.7476 22.9231C42.8107 23.0576 42.8434 23.2044 42.8434 23.3529C42.8434 23.5015 42.8107 23.6482 42.7476 23.7827C42.6845 23.9172 42.5925 24.0361 42.4783 24.1311V24.1305ZM40.2484 23.3523L34.1946 18.3169V20.6771C34.1946 20.9454 34.088 21.2027 33.8983 21.3925C33.7086 21.5822 33.4512 21.6888 33.1829 21.6888H27.0861C25.051 21.6888 23.4483 22.3481 22.1865 23.7043C20.4994 25.518 19.4877 28.6017 19.2658 32.4467C22.0443 27.5144 24.6678 25.0195 27.0861 25.0195H33.1826C33.4509 25.0195 33.7083 25.1261 33.898 25.3158C34.0877 25.5056 34.1943 25.7629 34.1943 26.0312V28.3871L40.2484 23.3523Z" fill="black"/>
</svg>
