<svg width="80" height="110" viewBox="0 0 80 110" fill="none" xmlns="http://www.w3.org/2000/svg">
<rect width="80" height="68" fill="url(#paint0_linear_219_96537)"/>
<path d="M72 104.5H8C5.79086 104.5 4 102.71 4 100.5V81.4236C4 79.2144 5.79086 77.4236 8 77.4236H11.1385C12.4979 77.4236 13.6 76.3215 13.6 74.962C13.6 73.6026 14.7021 72.5005 16.0615 72.5005H63.9385C65.2979 72.5005 66.4 73.6026 66.4 74.962C66.4 76.3215 67.5021 77.4236 68.8615 77.4236H72C74.2091 77.4236 76 79.2144 76 81.4236V100.5C76 102.71 74.2091 104.5 72 104.5Z" fill="#FFBE2E"/>
<g clip-path="url(#clip0_219_96537)">
<path d="M70.3166 71.5859C68.756 78.184 64.965 84.1663 59.6418 88.4289C54.2377 92.7576 47.4387 95.143 40.4997 95.143C32.4488 95.143 24.8439 92.0447 19.0854 86.4196C13.7541 81.2109 10.552 74.3702 9.95908 67.0039L7.84191 69.1211C7.63167 69.3313 7.35541 69.4378 7.07914 69.4378C6.80287 69.4378 6.5266 69.3326 6.31636 69.1211C5.89455 68.6992 5.89455 68.016 6.31636 67.5955L10.1747 63.7372C10.5965 63.3154 11.2798 63.3154 11.7016 63.7372L15.5599 67.5955C15.9818 68.0173 15.9818 68.7006 15.5599 69.1211C15.1381 69.5429 14.4549 69.5429 14.033 69.1211L12.1477 67.2357C13.5398 81.6084 25.8547 92.9854 40.501 92.9854C53.77 92.9854 65.1658 83.9817 68.2169 71.09C68.3544 70.5105 68.9352 70.1507 69.516 70.2881C70.0955 70.4256 70.454 71.0064 70.3166 71.5859ZM74.687 59.8788C74.2652 59.457 73.5819 59.457 73.1601 59.8788L71.0402 61.9987C70.4473 54.6297 67.2453 47.7877 61.9112 42.5776C56.154 36.9538 48.5506 33.8569 40.501 33.8569C33.5619 33.8569 26.7644 36.2409 21.3589 40.571C16.037 44.8336 12.2447 50.8158 10.6814 57.414C10.544 57.9935 10.9024 58.5756 11.4833 58.7131C12.0641 58.8506 12.645 58.4921 12.7824 57.9113C15.8362 45.0182 27.2347 36.0145 40.501 36.0145C55.1433 36.0145 67.4568 47.3901 68.8503 61.7588L66.969 59.8775C66.5472 59.4557 65.8639 59.4557 65.4421 59.8775C65.0203 60.2993 65.0203 60.9826 65.4421 61.403L69.3004 65.2614C69.5107 65.4716 69.7869 65.5781 70.0632 65.5781C70.3395 65.5781 70.6157 65.4729 70.826 65.2614L74.6843 61.403C75.1075 60.9839 75.1075 60.3006 74.687 59.8788ZM61.321 74.575H50.6489C50.6529 74.6882 50.6569 74.8028 50.6569 74.9173C50.6569 80.5195 46.1005 85.0773 40.501 85.0773C34.9015 85.0773 30.3451 80.5195 30.3451 74.9173C30.3451 74.8028 30.3505 74.6896 30.3532 74.575H19.677C19.0814 74.575 18.5976 74.0926 18.5976 73.4955V52.677C18.5976 52.0813 19.08 51.5975 19.677 51.5975H40.501H61.321C61.9166 51.5975 62.4004 52.0799 62.4004 52.677V73.4969C62.4004 74.0926 61.9166 74.575 61.321 74.575ZM48.75 58.5662L50.2688 57.4436C50.6502 57.162 51.1718 57.162 51.5531 57.4436L53.0679 58.5649V53.7564H48.7514V58.5662H48.75ZM27.9314 58.5649L29.4462 57.4436C29.8276 57.1606 30.3491 57.1606 30.7305 57.4436L32.2493 58.5662V53.7551H27.9328V58.5649H27.9314ZM30.6577 72.4174C31.6887 68.361 35.167 65.2708 39.4215 64.8193V53.7551H34.4056V60.7063C34.4056 61.1133 34.1765 61.4866 33.8126 61.6699C33.4487 61.8531 33.0134 61.8168 32.6846 61.5742L30.0877 59.6538L27.4934 61.5742C27.3034 61.7143 27.0784 61.7858 26.8506 61.7858C26.6848 61.7858 26.5191 61.748 26.3654 61.6699C26.0016 61.4866 25.7725 61.1133 25.7725 60.7063V53.7551H20.7565V72.4161H30.6577V72.4174ZM48.498 74.9173C48.498 70.5078 44.9105 66.9203 40.501 66.9203C36.0915 66.9203 32.504 70.5078 32.504 74.9173C32.504 79.3296 36.0915 82.9184 40.501 82.9184C44.9105 82.9184 48.498 79.3296 48.498 74.9173ZM60.2415 53.7564H55.2255V60.7076C55.2255 61.1146 54.9964 61.4879 54.6325 61.6712C54.2687 61.8545 53.832 61.8168 53.5045 61.5755L50.9103 59.6551L48.3134 61.5755C48.1247 61.7157 47.8983 61.7871 47.6719 61.7871C47.5061 61.7871 47.3404 61.7494 47.1867 61.6712C46.8229 61.4879 46.5938 61.1146 46.5938 60.7076V53.7564H41.5818V64.8207C45.8364 65.2722 49.316 68.3623 50.3456 72.4188H60.2428V53.7564H60.2415ZM45.8243 74.9173C45.8243 77.7514 43.9497 80.3295 40.9323 81.6448C40.7948 81.7041 40.6479 81.7351 40.501 81.7351C40.3541 81.7351 40.2072 81.7055 40.0711 81.6448C37.051 80.3309 35.1751 77.7528 35.1751 74.9173C35.1751 72.0845 37.051 69.5078 40.0711 68.1939C40.346 68.0739 40.6573 68.0739 40.9323 68.1939C43.9497 69.5092 45.8243 72.0845 45.8243 74.9173ZM43.6667 74.9173C43.6667 73.0872 42.4659 71.3811 40.501 70.3757C38.5348 71.3797 37.3327 73.0859 37.3327 74.9173C37.3327 76.3849 38.1049 77.7717 39.4229 78.7824V74.9173C39.4229 74.3217 39.9053 73.8379 40.5024 73.8379C41.0994 73.8379 41.5818 74.3203 41.5818 74.9173V78.7797C42.8944 77.7703 43.6667 76.3836 43.6667 74.9173Z" fill="black"/>
</g>
<defs>
<linearGradient id="paint0_linear_219_96537" x1="40" y1="-28.5" x2="15.8932" y2="58.5406" gradientUnits="userSpaceOnUse">
<stop stop-color="#FFBE2E" stop-opacity="0.75"/>
<stop offset="1" stop-color="#FFF7E4"/>
</linearGradient>
<clipPath id="clip0_219_96537">
<rect width="69" height="69" fill="white" transform="translate(6 30)"/>
</clipPath>
</defs>
</svg>
