<svg width="80" height="110" viewBox="0 0 80 110" fill="none" xmlns="http://www.w3.org/2000/svg">
<rect width="80" height="68" fill="url(#paint0_linear_824_58407)"/>
<path d="M72 104.5H8C5.79086 104.5 4 102.71 4 100.5V81.4236C4 79.2144 5.79086 77.4236 8 77.4236H11.1385C12.4979 77.4236 13.6 76.3215 13.6 74.962C13.6 73.6026 14.7021 72.5005 16.0615 72.5005H63.9385C65.2979 72.5005 66.4 73.6026 66.4 74.962C66.4 76.3215 67.5021 77.4236 68.8615 77.4236H72C74.2091 77.4236 76 79.2144 76 81.4236V100.5C76 102.71 74.2091 104.5 72 104.5Z" fill="#FFBE2E"/>
<g clip-path="url(#clip0_824_58407)">
<path d="M10.1641 56.4207V42.5223C10.1641 37.9147 13.9132 34.1655 18.5209 34.1655H37.8921L35.566 31.8395C35.1442 31.4177 35.1442 30.7344 35.566 30.3139C35.9878 29.8921 36.6711 29.8921 37.0929 30.3139L41.2612 34.4822C41.683 34.904 41.683 35.5873 41.2612 36.0078L37.0929 40.1761C36.8827 40.3863 36.6064 40.4928 36.3302 40.4928C36.0539 40.4928 35.7776 40.3877 35.5674 40.1761C35.1456 39.7543 35.1456 39.071 35.5674 38.6505L37.8934 36.3245H18.5209C15.1032 36.3245 12.323 39.1047 12.323 42.5223V56.4194C12.323 57.015 11.8405 57.4988 11.2435 57.4988C10.6465 57.4988 10.1641 57.0164 10.1641 56.4207ZM32.4233 92.6713H18.5209C15.1032 92.6713 12.323 89.8925 12.323 86.4775V67.1049L14.6491 69.4296C14.8593 69.6399 15.1356 69.7463 15.4118 69.7463C15.6881 69.7463 15.9644 69.6412 16.1746 69.4296C16.5964 69.0078 16.5964 68.3246 16.1746 67.9041L12.0063 63.7358C11.5845 63.314 10.9012 63.314 10.4794 63.7358L6.31246 67.9041C5.89064 68.3259 5.89064 69.0092 6.31246 69.4296C6.73427 69.8515 7.41753 69.8515 7.83935 69.4296L10.1654 67.1049V86.4761C10.1654 91.0824 13.9146 94.8289 18.5222 94.8289H32.4233C33.019 94.8289 33.5028 94.3465 33.5028 93.7494C33.5028 93.1524 33.019 92.6713 32.4233 92.6713ZM69.7534 71.4969C69.1577 71.4969 68.6739 71.9794 68.6739 72.5764V86.4775C68.6739 89.8925 65.8937 92.6713 62.476 92.6713H43.1035L45.4295 90.3453C45.8513 89.9235 45.8513 89.2402 45.4295 88.8197C45.0077 88.3979 44.3244 88.3979 43.9026 88.8197L39.7343 92.988C39.3125 93.4098 39.3125 94.0918 39.7343 94.5136L43.9026 98.6846C44.1129 98.8961 44.3891 99.0013 44.6668 99.0013C44.943 99.0013 45.2193 98.8961 45.4295 98.6859C45.8513 98.2641 45.8513 97.5808 45.4309 97.159L43.1035 94.8289H62.4774C67.085 94.8289 70.8342 91.0824 70.8342 86.4761V72.5751C70.8315 71.9794 70.349 71.4969 69.7534 71.4969ZM52.5505 43.1625C55.165 43.1625 57.2929 45.2877 57.2929 47.9008V72.0064C57.2929 74.6208 55.165 76.7488 52.5505 76.7488H51.781C50.649 81.9359 46.0211 85.8333 40.4985 85.8333C34.9771 85.8333 30.3506 81.9359 29.2186 76.7488H28.445C25.8319 76.7488 23.7067 74.6208 23.7067 72.0064V47.9008C23.7067 45.2877 25.8319 43.1625 28.445 43.1625H52.5505ZM41.7895 54.4478L43.6129 56.3641V45.3201H37.3827V56.3641L39.2087 54.4451C39.5457 54.0893 40.0052 53.8925 40.4985 53.8925C40.9917 53.8925 41.4512 54.0906 41.7895 54.4478ZM49.8903 74.2866C49.8903 69.1076 45.6775 64.8948 40.4985 64.8948C35.3221 64.8948 31.1107 69.1076 31.1107 74.2866C31.1107 79.4629 35.3221 83.6744 40.4985 83.6744C45.6775 83.6744 49.8903 79.4629 49.8903 74.2866ZM52.5505 45.3214H45.7718V57.3142C45.7718 58.05 45.3311 58.6983 44.6492 58.9678C44.435 59.0554 44.2112 59.0972 43.9902 59.0972C43.5159 59.0972 43.0482 58.9031 42.7019 58.5365L40.4985 56.2213L38.2923 58.5392C37.7991 59.0716 37.0282 59.2427 36.3396 58.9637C35.6644 58.6983 35.2237 58.0487 35.2237 57.3129V45.3201H28.445C27.0219 45.3201 25.8643 46.4777 25.8643 47.9008V72.0064C25.8643 73.4308 27.0219 74.5912 28.445 74.5912H28.9585C28.9558 74.4901 28.9504 74.389 28.9504 74.2879C28.9504 67.9189 34.1294 62.7372 40.4971 62.7372C46.8661 62.7372 52.0479 67.9189 52.0479 74.2879C52.0479 74.3904 52.0425 74.4901 52.0398 74.5912H52.5492C53.9737 74.5912 55.134 73.4322 55.134 72.0064V47.9008C55.1353 46.4791 53.9764 45.3214 52.5505 45.3214ZM47.7637 73.2085H41.5766V67.0214C41.5766 66.4257 41.0941 65.9419 40.4971 65.9419C39.9001 65.9419 39.4176 66.4244 39.4176 67.0214V74.2879C39.4176 74.8836 39.9001 75.3674 40.4971 75.3674H47.7637C48.3593 75.3674 48.8431 74.885 48.8431 74.2879C48.8431 73.6909 48.3607 73.2085 47.7637 73.2085ZM74.6844 59.5688C74.2626 59.147 73.5794 59.147 73.1576 59.5688L70.8315 61.8949V42.5223C70.8315 37.9147 67.0823 34.1655 62.4747 34.1655H48.5777C47.982 34.1655 47.4982 34.648 47.4982 35.245C47.4982 35.842 47.9806 36.3245 48.5777 36.3245H62.4747C65.8923 36.3245 68.6726 39.1047 68.6726 42.5223V61.8936L66.3465 59.5688C65.9247 59.147 65.2414 59.147 64.8196 59.5688C64.3978 59.9907 64.3978 60.6739 64.8196 61.0944L68.9879 65.2627C69.1981 65.4729 69.4744 65.5794 69.7507 65.5794C70.0269 65.5794 70.3032 65.4743 70.5135 65.2627L74.6817 61.0944C75.1049 60.6739 75.1049 59.9907 74.6844 59.5688Z" fill="black"/>
</g>
<defs>
<linearGradient id="paint0_linear_824_58407" x1="40" y1="-28.5" x2="15.8932" y2="58.5406" gradientUnits="userSpaceOnUse">
<stop stop-color="#FFBE2E" stop-opacity="0.75"/>
<stop offset="1" stop-color="#FFF7E4"/>
</linearGradient>
<clipPath id="clip0_824_58407">
<rect width="69" height="69" fill="white" transform="translate(6 30)"/>
</clipPath>
</defs>
</svg>
