<svg width="350" height="238" viewBox="0 0 350 238" fill="none" xmlns="http://www.w3.org/2000/svg">
<g clip-path="url(#clip0_7393_290877)">
<rect width="350" height="238" rx="12" fill="white"/>
<rect width="350" height="238" rx="12" fill="url(#paint0_linear_7393_290877)"/>
<circle cx="6.5" cy="-0.5" r="43.5" fill="#978050"/>
<path d="M224.656 125.079C224.656 126.191 226.206 127.094 228.118 127.094C230.029 127.094 231.579 126.191 231.579 125.079C231.579 123.966 230.029 123.063 228.118 123.063C226.205 123.063 224.656 123.966 224.656 125.079Z" fill="#FFBE2E"/>
<path opacity="0.2" d="M155.057 204.755L164.868 199.235C167.421 197.761 167.101 195.186 164.153 193.484L110.953 163.163C108.005 161.461 103.545 161.276 100.992 162.75L91.1805 168.271C88.6275 169.745 88.9478 172.319 91.896 174.021L145.096 204.342C148.043 206.045 152.504 206.229 155.057 204.755Z" fill="#92B4D1"/>
<path d="M149.801 201.603L100.768 173.293C95.2376 170.1 90.7535 161.533 90.7535 154.159V23.5795C90.7535 19.8294 87.671 19.0005 89.538 17.6529C89.609 17.602 93.9155 15.6455 93.9966 15.6146C96.0063 14.8444 98.1573 14.5017 100.768 16.009L149.801 44.3181C155.331 47.5117 159.815 56.0786 159.815 63.453V194.031C159.815 197.95 158.549 200.743 156.533 202.022C156.413 202.097 151.225 204.565 151.092 204.609C149.305 205.205 152.219 202.999 149.801 201.603Z" fill="#3C2C0B"/>
<path d="M145.992 203.344L96.96 175.035C91.4294 171.841 86.9453 163.274 86.9453 155.9V25.3206C86.9453 17.9462 91.4286 14.5565 96.96 17.7494L145.992 46.0585C151.523 49.2521 156.007 57.8189 156.007 65.1933V195.773C156.007 203.148 151.523 206.537 145.992 203.344Z" fill="white"/>
<path d="M145.121 203.815L96.0889 175.506C90.5583 172.313 86.0742 163.746 86.0742 156.371V25.7922C86.0742 18.4178 90.5583 15.0281 96.0889 18.2218L145.121 46.5308C150.652 49.7237 155.136 58.2913 155.136 65.6657V196.246C155.135 203.619 150.652 207.009 145.121 203.815Z" fill="black"/>
<path d="M148.474 202.402C147.519 202.402 146.484 202.085 145.401 201.459L96.6286 173.3C92.0157 170.637 88.2617 163.432 88.2617 157.24V26.5C88.2617 22.3292 90.0168 19.6342 92.7311 19.6342C93.6866 19.6342 94.7208 19.9514 95.8044 20.5773L144.577 48.7359C149.19 51.3993 152.944 58.6039 152.944 64.7967V195.537C152.944 199.707 151.189 202.402 148.474 202.402Z" fill="#FFBE2E"/>
<path d="M89.3906 158.036V27.9577C89.3906 22.5468 92.6807 20.0593 96.7388 22.4024L144.471 49.9606C148.529 52.3037 151.819 58.5899 151.819 64.0009V194.079C151.819 199.49 148.529 201.978 144.471 199.634L96.7388 172.076C92.6807 169.733 89.3906 163.447 89.3906 158.036Z" fill="#FFF0D0"/>
<path d="M90.3633 157.318L150.842 192.235V81.0914L90.3633 46.175V157.318Z" fill="#FFEBBA"/>
<path d="M140.207 57.0171L146.261 60.5125C146.492 60.646 146.679 60.5395 146.679 60.2748C146.679 60.0101 146.492 59.6874 146.261 59.5547L140.207 56.0593C139.976 55.9258 139.789 56.0331 139.789 56.297C139.789 56.5617 139.976 56.8836 140.207 57.0171ZM146.262 61.7103L140.207 58.2149C139.977 58.0814 139.79 58.1879 139.79 58.4526C139.79 58.7173 139.977 59.0399 140.207 59.1727L146.262 62.6681C146.493 62.8016 146.68 62.6951 146.68 62.4304C146.68 62.1664 146.492 61.8438 146.262 61.7103ZM146.262 63.8667L140.207 60.3713C139.977 60.2377 139.79 60.345 139.79 60.6097C139.79 60.8745 139.977 61.1971 140.207 61.3298L146.262 64.8252C146.493 64.9588 146.68 64.8522 146.68 64.5875C146.68 64.3228 146.492 64.0002 146.262 63.8667Z" fill="black"/>
<path d="M103.11 36.1055C103.11 36.7445 102.658 37.0015 102.102 36.6805C101.545 36.3586 101.094 35.5807 101.094 34.9416C101.094 34.3026 101.545 34.0456 102.102 34.3667C102.658 34.6877 103.11 35.4665 103.11 36.1055Z" fill="black"/>
<path d="M100.067 34.3382C100.067 34.9772 99.6152 35.2342 99.0587 34.9131C98.5023 34.5913 98.0508 33.8133 98.0508 33.1743C98.0508 32.5353 98.5023 32.2783 99.0587 32.5993C99.616 32.9204 100.067 33.6991 100.067 34.3382Z" fill="black"/>
<path d="M97.0237 32.5708C97.0237 33.2099 96.5722 33.4669 96.0158 33.1458C95.4593 32.824 95.0078 32.046 95.0078 31.407C95.0078 30.7679 95.4593 30.5109 96.0158 30.832C96.5722 31.1531 97.0237 31.9318 97.0237 32.5708Z" fill="black"/>
<mask id="mask0_7393_290877" style="mask-type:luminance" maskUnits="userSpaceOnUse" x="90" y="46" width="61" height="147">
<path d="M90.3633 157.318L150.842 192.235V81.0914L90.3633 46.175V157.318Z" fill="white"/>
</mask>
<g mask="url(#mask0_7393_290877)">
<g opacity="0.8">
<path d="M139.003 92.7623L155.012 102.124V100.449L139.003 91.0868V66.1743L137.553 65.3369V90.2502L132.757 87.4818L128.262 75.8155L86.4492 51.6748V53.3503L95.5887 58.627V74.7874L86.4492 69.5108V71.1863L95.5887 76.463V91.3901L86.4492 86.0987V87.7743L97.0397 93.9061V77.2988L128.347 95.374V109.521L124.454 107.273L110.98 111.34L86.4492 97.1762V98.8517L102.963 108.386V130.171L86.4492 137.522V139.109L103.527 131.507L118.64 157.314L104.362 168.374L105.719 169.157L129.901 150.424L137.552 154.805V186.675H139.002V155.635L154.892 164.893L155.011 164.685V163.289L139.002 153.963V132.582L155.011 141.94V140.266L139.002 130.907V117.348L155.011 126.71V125.035L139.002 115.673V101.527L155.011 110.888V109.213L139.002 99.8512V92.7623H139.003ZM104.413 109.224L110.527 112.754L110.799 112.911L124.273 108.844L128.347 111.196V124.76L122.587 121.436L104.413 129.527V109.224ZM137.553 153.134L129.783 148.686L119.797 156.421L104.861 130.915L122.502 123.062L128.347 126.434V126.479H128.426L137.552 131.745L137.553 153.134ZM137.553 130.07L129.798 125.596V112.033L137.553 116.51V130.07ZM137.553 114.835L129.798 110.358V96.2114L137.553 100.689V114.835ZM137.553 99.0138L97.0404 75.6241V59.4637L127.095 76.8149L131.589 88.4812L137.554 91.9249V99.0138H137.553Z" fill="#978050"/>
<path d="M121.711 140.688V123.009L114.854 110.756V78.3346L111.953 76.6598V111.484L118.81 123.737V141.36L121.711 140.688Z" fill="#FFCC00"/>
</g>
</g>
<mask id="mask1_7393_290877" style="mask-type:luminance" maskUnits="userSpaceOnUse" x="90" y="46" width="61" height="147">
<path d="M90.3633 157.318L150.842 192.235V81.0914L90.3633 46.175V157.318Z" fill="white"/>
</mask>
<g mask="url(#mask1_7393_290877)">
<path d="M116.533 78.1238C116.533 80.3141 114.986 81.1963 113.077 80.0942C111.169 78.9921 109.621 76.3232 109.621 74.1337C109.621 71.9434 111.169 71.0612 113.077 72.1633C114.986 73.2654 116.533 75.9343 116.533 78.1238Z" fill="#FFCC00"/>
</g>
<mask id="mask2_7393_290877" style="mask-type:luminance" maskUnits="userSpaceOnUse" x="90" y="46" width="61" height="147">
<path d="M90.3633 157.318L150.842 192.235V81.0914L90.3633 46.175V157.318Z" fill="white"/>
</mask>
<g mask="url(#mask2_7393_290877)">
<path d="M123.498 142.532C123.498 144.722 121.951 145.604 120.042 144.502C118.133 143.4 116.586 140.731 116.586 138.542C116.586 136.351 118.133 135.469 120.042 136.571C121.951 137.673 123.498 140.341 123.498 142.532Z" fill="#FFCC00"/>
</g>
<path opacity="0.3" d="M120.76 131.957C120.76 138.669 113.312 144.834 113.312 144.834C113.312 144.834 105.863 130.068 105.863 123.356C105.863 118.636 109.198 116.734 113.312 119.109C117.425 121.484 120.76 127.236 120.76 131.957Z" fill="#3C2C0B"/>
<path d="M235.039 53.74V111.196L248.313 103.563V46.1078L235.039 53.74Z" fill="#FFBE2E"/>
<path d="M247.053 48.3615L245.777 49.144V50.6189L247.053 49.8348V48.3615ZM244.725 49.7028L243.449 50.4854V51.9603L244.725 51.1761V49.7028ZM242.397 51.0449L241.121 51.8275V53.3024L242.397 52.5183V51.0449ZM236.465 54.511V55.9859L237.741 55.2018V53.7284L236.465 54.511ZM240.069 52.3863L238.793 53.1689V54.6438L240.069 53.8596V52.3863Z" fill="#333333"/>
<path d="M247.053 51.1367L245.777 51.9193V53.3942L247.053 52.6101V51.1367ZM244.725 52.4781L243.449 53.2607V54.7355L244.725 53.9514V52.4781ZM242.397 53.8202L241.121 54.6028V56.0777L242.397 55.2936V53.8202ZM236.465 57.2863V58.7612L237.741 57.9771V56.5037L236.465 57.2863ZM240.069 55.1616L238.793 55.9449V57.4198L240.069 56.6357V55.1616Z" fill="#333333"/>
<path d="M247.053 53.9121L245.777 54.6947V56.1696L247.053 55.3855V53.9121ZM244.725 55.2535L243.449 56.0361V57.511L244.725 56.7268V55.2535ZM242.397 56.5948L241.121 57.3782V58.8531L242.397 58.0689V56.5948ZM236.465 60.0617V61.5366L237.741 60.7524V59.2791L236.465 60.0617ZM240.069 57.937L238.793 58.7196V60.1945L240.069 59.4103V57.937Z" fill="#333333"/>
<path d="M247.053 56.6866L245.777 57.4692V58.9441L247.053 58.16V56.6866ZM244.725 58.0288L243.449 58.8114V60.2863L244.725 59.5021V58.0288ZM242.397 59.3701L241.121 60.1527V61.6276L242.397 60.8435V59.3701ZM236.465 62.837V64.3119L237.741 63.5278V62.0544L236.465 62.837ZM240.069 60.7123L238.793 61.4949V62.9698L240.069 62.1856V60.7123Z" fill="#333333"/>
<path d="M247.053 59.462L245.777 60.2446V61.7195L247.053 60.9354V59.462ZM244.725 60.8042L243.449 61.5875V63.0624L244.725 62.2783V60.8042ZM242.397 62.1455L241.121 62.9281V64.403L242.397 63.6189V62.1455ZM236.465 65.6124V67.0873L237.741 66.3031V64.8298L236.465 65.6124ZM240.069 63.4877L238.793 64.2703V65.7451L240.069 64.961V63.4877Z" fill="#333333"/>
<path d="M247.053 62.2374L245.777 63.0208V64.4957L247.053 63.7115V62.2374ZM244.725 63.5796L243.449 64.3622V65.837L244.725 65.0529V63.5796ZM242.397 64.9209L241.121 65.7035V67.1784L242.397 66.3943V64.9209ZM236.465 68.3878V69.8627L237.741 69.0785V67.6052L236.465 68.3878ZM240.069 66.2631L238.793 67.0457V68.5205L240.069 67.7364V66.2631Z" fill="#333333"/>
<path d="M247.053 65.0127L245.777 65.7953V67.2702L247.053 66.486V65.0127ZM244.725 66.3541L243.449 67.1366V68.6115L244.725 67.8274V66.3541ZM242.397 67.6962L241.121 68.4788V69.9537L242.397 69.1695V67.6962ZM236.465 71.1623V72.6372L237.741 71.853V70.3797L236.465 71.1623ZM240.069 69.0383L238.793 69.8209V71.2958L240.069 70.5117V69.0383Z" fill="#333333"/>
<path d="M247.053 67.7881L245.777 68.5707V70.0456L247.053 69.2614V67.7881ZM244.725 69.1295L243.449 69.912V71.3869L244.725 70.6028V69.1295ZM242.397 70.4716L241.121 71.2542V72.7291L242.397 71.9449V70.4716ZM236.465 73.9377V75.4125L237.741 74.6284V73.1551L236.465 73.9377ZM240.069 71.8129L238.793 72.5955V74.0704L240.069 73.2863V71.8129Z" fill="#333333"/>
<path d="M247.053 70.5634L245.777 71.3467V72.8216L247.053 72.0375V70.5634ZM244.725 71.9047L243.449 72.6873V74.1622L244.725 73.378V71.9047ZM242.397 73.2468L241.121 74.0294V75.5043L242.397 74.7202V73.2468ZM236.465 76.7129V78.1878L237.741 77.4037V75.9303L236.465 76.7129ZM240.069 74.5882L238.793 75.3708V76.8457L240.069 76.0615V74.5882Z" fill="#333333"/>
<path d="M247.053 73.338L245.777 74.1206V75.5955L247.053 74.8113V73.338ZM244.725 74.6801L243.449 75.4627V76.9376L244.725 76.1535V74.6801ZM242.397 76.0215L241.121 76.8041V78.279L242.397 77.4948V76.0215ZM236.465 79.4884V80.9632L237.741 80.1791V78.7058L236.465 79.4884ZM240.069 77.3636L238.793 78.1462V79.6211L240.069 78.837V77.3636Z" fill="#333333"/>
<path d="M247.053 76.1133L245.777 76.8959V78.3708L247.053 77.5866V76.1133ZM244.725 77.4554L243.449 78.238V79.7129L244.725 78.9287V77.4554ZM242.397 78.7968L241.121 79.5794V81.0543L242.397 80.2701V78.7968ZM236.465 82.2636V83.7385L237.741 82.9544V81.481L236.465 82.2636ZM240.069 80.1389L238.793 80.9223V82.3972L240.069 81.613V80.1389Z" fill="#333333"/>
<path d="M247.053 78.8887L245.777 79.6713V81.1461L247.053 80.362V78.8887ZM244.725 80.2308L243.449 81.0134V82.4883L244.725 81.7041V80.2308ZM242.397 81.5722L241.121 82.3555V83.8304L242.397 83.0463V81.5722ZM236.465 85.039V86.5139L237.741 85.7298V84.2564L236.465 85.039ZM240.069 82.9143L238.793 83.6969V85.1718L240.069 84.3876V82.9143Z" fill="#333333"/>
<path d="M247.053 81.6641L245.777 82.4466V83.9215L247.053 83.1374V81.6641ZM244.725 83.0062L243.449 83.7888V85.2637L244.725 84.4795V83.0062ZM242.397 84.3476L241.121 85.1301V86.605L242.397 85.8209V84.3476ZM236.465 87.8144V89.2893L237.741 88.5052V87.0318L236.465 87.8144ZM240.069 85.6897L238.793 86.4723V87.9472L240.069 87.163V85.6897Z" fill="#333333"/>
<path d="M247.053 84.4393L245.777 85.2219V86.6968L247.053 85.9127V84.4393ZM244.725 85.7807L243.449 86.5633V88.0382L244.725 87.254V85.7807ZM242.397 87.1228L241.121 87.9054V89.3803L242.397 88.5962V87.1228ZM236.465 90.5889V92.0638L237.741 91.2797V89.8063L236.465 90.5889ZM240.069 88.4642L238.793 89.2468V90.7217L240.069 89.9375V88.4642Z" fill="#333333"/>
<path d="M247.053 87.2147L245.777 87.9973V89.4722L247.053 88.6881V87.2147ZM244.725 88.5561L243.449 89.3387V90.8136L244.725 90.0294V88.5561ZM242.397 89.8982L241.121 90.6816V92.1565L242.397 91.3723V89.8982ZM236.465 93.3643V94.8392L237.741 94.055V92.5817L236.465 93.3643ZM240.069 91.2396L238.793 92.0222V93.4971L240.069 92.7129V91.2396Z" fill="#333333"/>
<path d="M247.053 89.99L245.777 90.7726V92.2475L247.053 91.4633V89.99ZM244.725 91.3314L243.449 92.1147V93.5896L244.725 92.8055V91.3314ZM242.397 92.6735L241.121 93.4561V94.931L242.397 94.1468V92.6735ZM236.465 96.1396V97.6145L237.741 96.8303V95.357L236.465 96.1396ZM240.069 94.0149L238.793 94.7974V96.2723L240.069 95.4882V94.0149Z" fill="#333333"/>
<path d="M247.053 92.7645L245.777 93.5471V95.022L247.053 94.2379V92.7645ZM244.725 94.1067L243.449 94.8893V96.3641L244.725 95.58V94.1067ZM242.397 95.4488L241.121 96.2314V97.7063L242.397 96.9221V95.4488ZM236.465 98.9149V100.39L237.741 99.6056V98.1323L236.465 98.9149ZM240.069 96.7902L238.793 97.5728V99.0476L240.069 98.2635V96.7902Z" fill="#333333"/>
<path d="M247.053 95.5399L245.777 96.3233V97.7982L247.053 97.014V95.5399ZM244.725 96.8821L243.449 97.6646V99.1395L244.725 98.3554V96.8821ZM242.397 98.2234L241.121 99.006V100.481L242.397 99.6968V98.2234ZM236.465 101.69V103.165L237.741 102.381V100.908L236.465 101.69ZM240.069 99.5655L238.793 100.348V101.823L240.069 101.039V99.5655Z" fill="#333333"/>
<path d="M247.053 98.3152L245.777 99.0978V100.573L247.053 99.7885V98.3152ZM244.725 99.6573L243.449 100.44V101.915L244.725 101.131V99.6573ZM242.397 100.999L241.121 101.781V103.256L242.397 102.472V100.999ZM236.465 104.466V105.94L237.741 105.156V103.683L236.465 104.466ZM240.069 102.341L238.793 103.123V104.598L240.069 103.814V102.341Z" fill="#333333"/>
<path d="M247.053 101.091L245.777 101.873V103.348L247.053 102.564V101.091ZM244.725 102.433L243.449 103.215V104.69L244.725 103.906V102.433ZM242.397 103.774L241.121 104.557V106.032L242.397 105.247V103.774ZM236.465 107.241V108.716L237.741 107.932V106.458L236.465 107.241ZM240.069 105.116L238.793 105.899V107.374L240.069 106.59V105.116Z" fill="#333333"/>
<path d="M221.961 46.1178L235.05 53.74L248.317 46.1078L235.214 38.4772L221.961 46.1178Z" fill="#D0991E"/>
<path d="M235.05 53.7401V111.196L221.961 103.566V46.1179L235.05 53.7401Z" fill="#C58C0D"/>
<path d="M232.473 53.7284V55.2018L233.748 55.9859V54.511L232.473 53.7284ZM230.145 53.8596L231.421 54.6438V53.1689L230.145 52.3863V53.8596ZM223.16 49.8348L224.436 50.6189V49.144L223.16 48.3615V49.8348ZM225.488 51.1761L226.764 51.9603V50.4854L225.488 49.7028V51.1761ZM227.816 52.5183L229.092 53.3024V51.8275L227.816 51.0449V52.5183Z" fill="#212121"/>
<path d="M232.473 56.5037V57.9771L233.748 58.7612V57.2863L232.473 56.5037ZM230.145 56.6349L231.421 57.419V55.9442L230.145 55.1608V56.6349ZM223.16 52.6101L224.436 53.3942V51.9193L223.16 51.1367V52.6101ZM225.488 53.9514L226.764 54.7355V53.2607L225.488 52.4781V53.9514ZM227.816 55.2936L229.092 56.0777V54.6028L227.816 53.8202V55.2936Z" fill="#212121"/>
<path d="M232.473 59.2791V60.7524L233.748 61.5366V60.0617L232.473 59.2791ZM230.145 59.4103L231.421 60.1945V58.7196L230.145 57.937V59.4103ZM223.16 55.3855L224.436 56.1696V54.6947L223.16 53.9121V55.3855ZM225.488 56.7268L226.764 57.511V56.0361L225.488 55.2535V56.7268ZM227.816 58.0689L229.092 58.8531V57.3782L227.816 56.5948V58.0689Z" fill="#212121"/>
<path d="M232.473 62.0536V63.527L233.748 64.3111V62.8362L232.473 62.0536ZM230.145 62.1856L231.421 62.9698V61.4949L230.145 60.7123V62.1856ZM223.16 58.16L224.436 58.9441V57.4692L223.16 56.6866V58.16ZM225.488 59.5021L226.764 60.2863V58.8114L225.488 58.0288V59.5021ZM227.816 60.8435L229.092 61.6276V60.1527L227.816 59.3701V60.8435Z" fill="#212121"/>
<path d="M232.473 64.829V66.3024L233.748 67.0865V65.6116L232.473 64.829ZM230.145 64.961L231.421 65.7451V64.2703L230.145 63.4877V64.961ZM223.16 60.9354L224.436 61.7195V60.2446L223.16 59.462V60.9354ZM225.488 62.2775L226.764 63.0616V61.5868L225.488 60.8034V62.2775ZM227.816 63.6189L229.092 64.403V62.9281L227.816 62.1455V63.6189Z" fill="#212121"/>
<path d="M232.473 67.6043V69.0777L233.748 69.8618V68.3869L232.473 67.6043ZM230.145 67.7363L231.421 68.5204V67.0456L230.145 66.263V67.7363ZM223.16 63.7107L224.436 64.4948V63.0199L223.16 62.2366V63.7107ZM225.488 65.0528L226.764 65.8369V64.3621L225.488 63.5795V65.0528ZM227.816 66.3942L229.092 67.1783V65.7034L227.816 64.9208V66.3942Z" fill="#212121"/>
<path d="M232.473 70.3797V71.853L233.748 72.6372V71.1623L232.473 70.3797ZM230.145 70.5109L231.421 71.295V69.8201L230.145 69.0376V70.5109ZM223.16 66.486L224.436 67.2702V65.7953L223.16 65.0127V66.486ZM225.488 67.8274L226.764 68.6115V67.1366L225.488 66.3541V67.8274ZM227.816 69.1695L229.092 69.9537V68.4788L227.816 67.6962V69.1695Z" fill="#212121"/>
<path d="M232.473 73.1551V74.6284L233.748 75.4125V73.9377L232.473 73.1551ZM230.145 73.2863L231.421 74.0704V72.5955L230.145 71.8129V73.2863ZM223.16 69.2614L224.436 70.0456V68.5707L223.16 67.7881V69.2614ZM225.488 70.6028L226.764 71.3869V69.912L225.488 69.1295V70.6028ZM227.816 71.9449L229.092 72.7291V71.2542L227.816 70.4716V71.9449Z" fill="#212121"/>
<path d="M232.473 75.9304V77.4037L233.748 78.1879V76.713L232.473 75.9304ZM230.145 76.0616L231.421 76.8457V75.3708L230.145 74.5883V76.0616ZM223.16 72.0367L224.436 72.8209V71.346L223.16 70.5626V72.0367ZM225.488 73.3781L226.764 74.1622V72.6874L225.488 71.9048V73.3781ZM227.816 74.7202L229.092 75.5044V74.0295L227.816 73.2469V74.7202Z" fill="#212121"/>
<path d="M232.473 78.7057V80.1791L233.748 80.9632V79.4883L232.473 78.7057ZM230.145 78.8369L231.421 79.6211V78.1462L230.145 77.3636V78.8369ZM223.16 74.8121L224.436 75.5962V74.1213L223.16 73.3387V74.8121ZM225.488 76.1534L226.764 76.9376V75.4627L225.488 74.6801V76.1534ZM227.816 77.4948L229.092 78.2789V76.8041L227.816 76.0215V77.4948Z" fill="#212121"/>
<path d="M232.473 81.4803V82.9536L233.748 83.7377V82.2629L232.473 81.4803ZM230.145 81.6123L231.421 82.3964V80.9215L230.145 80.1381V81.6123ZM223.16 77.5866L224.436 78.3708V76.8959L223.16 76.1133V77.5866ZM225.488 78.9287L226.764 79.7129V78.238L225.488 77.4554V78.9287ZM227.816 80.2701L229.092 81.0543V79.5794L227.816 78.7968V80.2701Z" fill="#212121"/>
<path d="M232.473 84.2557V85.729L233.748 86.5131V85.0382L232.473 84.2557ZM230.145 84.3876L231.421 85.1718V83.6969L230.145 82.9143V84.3876ZM223.16 80.362L224.436 81.1461V79.6713L223.16 78.8887V80.362ZM225.488 81.7041L226.764 82.4883V81.0134L225.488 80.2308V81.7041ZM227.816 83.0455L229.092 83.8296V82.3548L227.816 81.5714V83.0455Z" fill="#212121"/>
<path d="M232.473 87.0311V88.5044L233.748 89.2885V87.8136L232.473 87.0311ZM230.145 87.163L231.421 87.9472V86.4723L230.145 85.6897V87.163ZM223.16 83.1374L224.436 83.9215V82.4466L223.16 81.6641V83.1374ZM225.488 84.4795L226.764 85.2637V83.7888L225.488 83.0062V84.4795ZM227.816 85.8209L229.092 86.605V85.1301L227.816 84.3476V85.8209Z" fill="#212121"/>
<path d="M232.473 89.8063V91.2797L233.748 92.0638V90.5889L232.473 89.8063ZM230.145 89.9383L231.421 90.7224V89.2476L230.145 88.465V89.9383ZM223.16 85.9127L224.436 86.6968V85.2219L223.16 84.4393V85.9127ZM225.488 87.254L226.764 88.0382V86.5633L225.488 85.7807V87.254ZM227.816 88.5962L229.092 89.3803V87.9054L227.816 87.1228V88.5962Z" fill="#212121"/>
<path d="M232.473 92.5817V94.055L233.748 94.8392V93.3643L232.473 92.5817ZM230.145 92.7129L231.421 93.4971V92.0222L230.145 91.2396V92.7129ZM223.16 88.6881L224.436 89.4722V87.9973L223.16 87.2147V88.6881ZM225.488 90.0294L226.764 90.8136V89.3387L225.488 88.5561V90.0294ZM227.816 91.3716L229.092 92.1557V90.6808L227.816 89.8974V91.3716Z" fill="#212121"/>
<path d="M232.473 95.357V96.8303L233.748 97.6145V96.1396L232.473 95.357ZM230.145 95.4882L231.421 96.2723V94.7974L230.145 94.0149V95.4882ZM223.16 91.4633L224.436 92.2475V90.7726L223.16 89.99V91.4633ZM225.488 92.8047L226.764 93.5888V92.1139L225.488 91.3306V92.8047ZM227.816 94.1468L229.092 94.931V93.4561L227.816 92.6735V94.1468Z" fill="#212121"/>
<path d="M232.473 98.1323V99.6056L233.748 100.39V98.9149L232.473 98.1323ZM230.145 98.2635L231.421 99.0476V97.5728L230.145 96.7902V98.2635ZM223.16 94.2379L224.436 95.022V93.5471L223.16 92.7645V94.2379ZM225.488 95.58L226.764 96.3641V94.8893L225.488 94.1067V95.58ZM227.816 96.9221L229.092 97.7063V96.2314L227.816 95.4488V96.9221Z" fill="#212121"/>
<path d="M232.473 100.907V102.38L233.748 103.164V101.689L232.473 100.907ZM230.145 101.039L231.421 101.823V100.348L230.145 99.5655V101.039ZM223.16 97.0132L224.436 97.7973V96.3224L223.16 95.5391V97.0132ZM225.488 98.3553L226.764 99.1394V97.6646L225.488 96.882V98.3553ZM227.816 99.6967L229.092 100.481V99.0059L227.816 98.2233V99.6967Z" fill="#212121"/>
<path d="M232.473 103.682V105.156L233.748 105.94V104.465L232.473 103.682ZM230.145 103.814L231.421 104.598V103.123L230.145 102.341V103.814ZM223.16 99.7885L224.436 100.573V99.0978L223.16 98.3152V99.7885ZM225.488 101.131L226.764 101.915V100.44L225.488 99.6573V101.131ZM227.816 102.472L229.092 103.256V101.781L227.816 100.999V102.472Z" fill="#212121"/>
<path d="M232.473 106.458V107.931L233.748 108.715V107.24L232.473 106.458ZM230.145 106.59L231.421 107.374V105.899L230.145 105.116V106.59ZM223.16 102.564L224.436 103.348V101.873L223.16 101.091V102.564ZM225.488 103.905L226.764 104.689V103.215L225.488 102.432V103.905ZM227.816 105.247L229.092 106.032V104.557L227.816 103.774V105.247Z" fill="#212121"/>
<path d="M235.059 49.6805V51.1839L243.751 46.1858V44.6824L235.059 49.6805Z" fill="#FFBE2E"/>
<path d="M235.063 49.6805V51.1839L226.492 46.1874V44.6893L235.063 49.6805Z" fill="#C58C0D"/>
<path d="M235.059 49.6805V50.0532L243.751 45.0551V44.6824L235.059 49.6805Z" fill="#FFBE2E"/>
<path d="M235.063 49.6805V50.0532L226.492 45.0559V44.6893L235.063 49.6805Z" fill="#D39918"/>
<path d="M226.492 44.6893L235.063 49.6804L243.751 44.6823L235.17 39.6858L226.492 44.6893Z" fill="#D0991E"/>
<path d="M235.09 44.4507V47.1767L239.392 44.7031V41.9772L235.09 44.4507Z" fill="#FFBE2E"/>
<path d="M235.093 44.4508V47.1768L230.852 44.704V41.9803L235.093 44.4508Z" fill="#C58C0D"/>
<path d="M235.09 44.7919V45.813L239.392 43.3394V42.3184L235.09 44.7919Z" fill="#FFBE2E"/>
<path d="M230.852 41.9803L235.093 44.4508L239.393 41.9772L235.147 39.5044L230.852 41.9803Z" fill="#BD8B1C"/>
<path d="M215.012 44.0395V123.19L229.371 114.934V35.7837L215.012 44.0395Z" fill="#D89D19"/>
<path d="M215.022 44.0395V123.19L200.863 114.936V35.7946L215.022 44.0395Z" fill="#E4A417"/>
<path d="M215.012 44.0395V47.3937L229.371 39.1379V35.7837L215.012 44.0395Z" fill="#D0991E"/>
<path d="M215.022 44.0395V47.3937L200.863 39.1402V35.7946L215.022 44.0395Z" fill="#C38D15"/>
<path d="M200.863 35.7945L215.022 44.0394L229.374 35.7837L215.199 27.5294L200.863 35.7945Z" fill="#E4A417"/>
<path d="M226.184 43.713L227.729 42.8124V114.369L226.184 115.271V43.713Z" fill="#313539"/>
<path d="M227.069 43.1975V114.121L226.184 114.637V115.271L227.729 114.369V42.8124L227.069 43.1975Z" fill="#070708"/>
<path d="M222.988 45.3925L224.535 44.4918V116.049L222.988 116.95V45.3925Z" fill="#313539"/>
<path d="M223.874 44.8769V115.801L222.988 116.317V116.95L224.535 116.049V44.4918L223.874 44.8769Z" fill="#070708"/>
<path d="M219.797 47.0719L221.343 46.172V117.728L219.797 118.63V47.0719Z" fill="#313539"/>
<path d="M220.682 46.5563V117.48L219.797 117.997V118.63L221.343 117.728V46.172L220.682 46.5563Z" fill="#070708"/>
<path d="M216.602 48.752L218.148 47.8513V119.407L216.602 120.309V48.752Z" fill="#313539"/>
<path d="M217.487 48.2364V119.16L216.602 119.676V120.309L218.148 119.407V47.8513L217.487 48.2364Z" fill="#070708"/>
<path d="M204.051 43.713L202.504 42.8124V114.369L204.051 115.271V43.713Z" fill="#333333"/>
<path d="M203.165 43.1975V114.121L204.051 114.637V115.271L202.504 114.369V42.8124L203.165 43.1975Z" fill="#010101"/>
<path d="M207.245 45.3925L205.699 44.4918V116.049L207.245 116.95V45.3925Z" fill="#333333"/>
<path d="M206.36 44.8769V115.801L207.245 116.317V116.95L205.699 116.049V44.4918L206.36 44.8769Z" fill="#010101"/>
<path d="M210.441 47.0719L208.895 46.172V117.728L210.441 118.63V47.0719Z" fill="#333333"/>
<path d="M209.556 46.5563V117.48L210.441 117.997V118.63L208.895 117.728V46.172L209.556 46.5563Z" fill="#010101"/>
<path d="M213.636 48.7521L212.09 47.8514V119.408L213.636 120.309V48.7521Z" fill="#333333"/>
<path d="M212.75 48.2366V119.16L213.636 119.676V120.309L212.09 119.408V47.8514L212.75 48.2366Z" fill="#010101"/>
<path d="M215.051 34.8854V41.3653L223.999 36.2206V29.7399L215.051 34.8854Z" fill="#D0991E"/>
<path d="M215.057 34.8852V41.3652L206.234 36.2212V29.7467L215.057 34.8852Z" fill="#C38C13"/>
<path d="M208.724 32.4056L207.512 31.6879V35.8895L208.724 36.6072V32.4056Z" fill="black"/>
<path d="M211.138 33.818L209.938 33.1141V37.315L211.138 38.0196V33.818Z" fill="black"/>
<path d="M213.551 35.2304L212.363 34.5404V38.7412L213.551 39.432V35.2304Z" fill="black"/>
<path d="M221.457 32.3392L222.627 31.6878V35.8894L221.457 36.54V32.3392Z" fill="black"/>
<path d="M219.023 33.7848L220.212 33.1141V37.3149L219.023 37.9864V33.7848Z" fill="black"/>
<path d="M216.59 35.2303L217.795 34.5403V38.7411L216.59 39.4319V35.2303Z" fill="black"/>
<path d="M206.234 29.7468L215.057 34.8853L224.001 29.7399L215.168 24.5967L206.234 29.7468Z" fill="#E4A417"/>
<path d="M215.082 30.5926V32.4842L219.714 29.8216V27.9299L215.082 30.5926Z" fill="#FFBE2E"/>
<path d="M215.086 30.5927V32.4843L210.52 29.8224V27.9331L215.086 30.5927Z" fill="#C38C13"/>
<path d="M210.52 27.9331L215.086 30.5926L219.715 27.93L215.143 25.2673L210.52 27.9331Z" fill="#D0991E"/>
<path d="M215.102 22.5175V29.1378L217.159 27.9547L215.102 22.5175Z" fill="#FFBE2E"/>
<path d="M215.103 22.5175V29.1378L213.074 27.9555L215.103 22.5175Z" fill="#BB8818"/>
<path d="M191.047 85.2018V136.9L204.901 128.933V77.2362L191.047 85.2018Z" fill="#FFBE2E"/>
<path d="M191.052 85.2019V136.9L177.391 128.936V77.2463L191.052 85.2019Z" fill="#E4A417"/>
<path d="M177.391 77.2463L191.052 85.2019L204.899 77.2363L191.223 69.2722L177.391 77.2463Z" fill="#978050"/>
<path d="M178.645 89.9691L179.976 90.788V88.3306L178.645 87.5133V89.9691ZM181.074 91.3691L182.405 92.188V89.7306L181.074 88.9133V91.3691ZM183.504 92.7699L184.836 93.5888V91.1314L183.504 90.3141V92.7699Z" fill="#474747"/>
<path d="M178.645 86.1635L179.976 86.9823V84.525L178.645 83.7076V86.1635ZM181.074 87.5635L182.405 88.3823V85.925L181.074 85.1077V87.5635ZM183.504 88.9643L184.836 89.7831V87.3258L183.504 86.5084V88.9643Z" fill="#474747"/>
<path d="M178.645 82.357L179.976 83.1751V80.7177L178.645 79.9004V82.357ZM181.074 83.7578L182.405 84.5759V82.1185L181.074 81.3012V83.7578ZM183.504 85.1578L184.836 85.9759V83.5185L183.504 82.7012V85.1578Z" fill="#474747"/>
<path d="M178.645 94.897L179.976 95.7159V91.9897L178.645 91.1724V94.897ZM181.074 96.2978L182.405 97.1159V93.3897L181.074 92.5724V96.2978ZM183.504 97.6978L184.836 98.5167V94.7905L183.504 93.9732V97.6978Z" fill="#474747"/>
<path d="M178.645 101.094L179.976 101.913V96.9175L178.645 96.1002V101.094ZM181.074 102.494L182.405 103.313V98.3176L181.074 97.5002V102.494ZM183.504 103.895L184.836 104.713V99.7184L183.504 98.901V103.895Z" fill="#474747"/>
<path d="M178.645 108.771L179.976 109.589V103.326L178.645 102.508V108.771ZM181.074 110.171L182.405 110.989V104.726L181.074 103.908V110.171ZM183.504 111.572L184.836 112.39V106.126L183.504 105.309V111.572Z" fill="#474747"/>
<path d="M186.676 84.1199V134.275L188.598 135.457V85.2992L186.676 84.1199Z" fill="#474747"/>
<path d="M178.645 128.034L179.976 128.852V111.214L178.645 110.398V128.034Z" fill="#474747"/>
<path d="M181.074 129.434L182.406 130.252V112.615L181.074 111.797V129.434Z" fill="#474747"/>
<path d="M183.504 130.834L184.835 131.653V114.015L183.504 113.198V130.834Z" fill="#474747"/>
<path d="M182.406 84.3512L181.312 83.6782V81.447L181.074 81.3011V83.7577L182.406 84.5758V84.3512Z" fill="#020202"/>
<path d="M182.406 91.9626L181.312 91.2904V89.0584L181.074 88.9133V91.3691L182.406 92.188V91.9626Z" fill="#020202"/>
<path d="M182.406 88.157L181.312 87.4848V85.2528L181.074 85.1077V87.5635L182.406 88.3816V88.157Z" fill="#020202"/>
<path d="M184.835 112.166L183.741 111.493V105.455L183.504 105.31V111.572L184.835 112.39V112.166Z" fill="#020202"/>
<path d="M182.406 96.8913L181.312 96.2183V92.7182L181.074 92.5731V96.2978L182.406 97.1158V96.8913Z" fill="#020202"/>
<path d="M184.835 98.2913L183.741 97.6191V94.119L183.504 93.9731V97.6978L184.835 98.5166V98.2913Z" fill="#020202"/>
<path d="M184.835 93.3634L183.741 92.6905V90.4592L183.504 90.3134V92.7699L184.835 93.588V93.3634Z" fill="#020202"/>
<path d="M184.835 89.5578L183.741 88.8848V86.6536L183.504 86.5077V88.9643L184.835 89.7824V89.5578Z" fill="#020202"/>
<path d="M184.835 104.489L183.741 103.816V99.0469L183.504 98.9019V103.895L184.835 104.713V104.489Z" fill="#020202"/>
<path d="M182.406 103.088L181.312 102.416V97.6468L181.074 97.501V102.494L182.406 103.313V103.088Z" fill="#020202"/>
<path d="M184.835 85.7514L183.741 85.0791V82.8471L183.504 82.702V85.1578L184.835 85.9767V85.7514Z" fill="#020202"/>
<path d="M181.312 129.355V111.943L181.074 111.797V129.434L182.406 130.252V130.028L181.312 129.355Z" fill="#020202"/>
<path d="M179.976 109.365L178.881 108.692V102.654L178.645 102.509V108.771L179.976 109.589V109.365Z" fill="#020202"/>
<path d="M182.406 110.765L181.312 110.093V104.055L181.074 103.909V110.171L182.406 110.99V110.765Z" fill="#020202"/>
<path d="M183.741 130.756V113.343L183.504 113.198V130.834L184.835 131.652V131.428L183.741 130.756Z" fill="#020202"/>
<path d="M186.914 134.196V84.265L186.676 84.1199V134.275L188.598 135.457V135.231L186.914 134.196Z" fill="#020202"/>
<path d="M178.881 127.955V110.543L178.645 110.398V128.034L179.976 128.853V128.627L178.881 127.955Z" fill="#020202"/>
<path d="M179.976 101.688L178.881 101.015V96.2461L178.645 96.101V101.094L179.976 101.912V101.688Z" fill="#020202"/>
<path d="M179.976 86.757L178.881 86.084V83.8528L178.645 83.7069V86.1635L179.976 86.9816V86.757Z" fill="#020202"/>
<path d="M179.976 82.9506L178.881 82.2783V80.0463L178.645 79.9012V82.3571L179.976 83.1759V82.9506Z" fill="#020202"/>
<path d="M179.976 95.4905L178.881 94.8183V91.3182L178.645 91.1724V94.897L179.976 95.7159V95.4905Z" fill="#020202"/>
<path d="M179.976 90.5627L178.881 89.8897V87.6584L178.645 87.5126V89.9692L179.976 90.7873V90.5627Z" fill="#020202"/>
<path d="M203.582 87.5126L202.251 88.3299V90.7873L203.582 89.9684V87.5126ZM201.153 88.9134L199.821 89.7307V92.188L201.153 91.3692V88.9134ZM198.723 90.3134L197.392 91.1307V93.5881L198.723 92.7692V90.3134ZM192.531 93.9315V96.3889L193.863 95.57V93.1134L192.531 93.9315ZM196.293 91.7142L194.962 92.5315V94.9889L196.293 94.1708V91.7142Z" fill="#474747"/>
<path d="M203.582 83.7069L202.251 84.5242V86.9816L203.582 86.1627V83.7069ZM201.153 85.1077L199.821 85.925V88.3824L201.153 87.5635V85.1077ZM198.723 86.5077L197.392 87.325V89.7824L198.723 88.9635V86.5077ZM192.531 90.1258V92.5832L193.863 91.7643V89.3085L192.531 90.1258ZM196.293 87.9085L194.962 88.7258V91.1832L196.293 90.3643V87.9085Z" fill="#474747"/>
<path d="M203.582 79.9012L202.251 80.7186V83.1759L203.582 82.3578V79.9012ZM201.153 81.3013L199.821 82.1186V84.5759L201.153 83.7579V81.3013ZM198.723 82.7021L197.392 83.5194V85.9767L198.723 85.1586V82.7021ZM192.531 86.3202V88.7775L193.863 87.9594V85.5029L192.531 86.3202ZM196.293 84.1021L194.962 84.9194V87.3767L196.293 86.5587V84.1021Z" fill="#474747"/>
<path d="M203.582 91.1724L202.251 91.9897V95.7159L203.582 94.897V91.1724ZM201.153 92.5732L199.821 93.3905V97.1167L201.153 96.2986V92.5732ZM198.723 93.9732L197.392 94.7905V98.5167L198.723 97.6978V93.9732ZM192.531 97.5913V101.317L193.863 100.499V96.774L192.531 97.5913ZM196.293 95.374L194.962 96.1913V99.9175L196.293 99.0986V95.374Z" fill="#474747"/>
<path d="M203.582 96.101L202.251 96.9183V101.913L203.582 101.095V96.101ZM201.153 97.501L199.821 98.3183V103.313L201.153 102.495V97.501ZM198.723 98.9018L197.392 99.7191V104.714L198.723 103.896V98.9018ZM192.531 102.519V107.514L193.863 106.696V101.703L192.531 102.519ZM196.293 100.302L194.962 101.119V106.114L196.293 105.296V100.302Z" fill="#474747"/>
<path d="M203.582 102.509L202.251 103.326V109.59L203.582 108.772V102.509ZM201.153 103.909L199.821 104.726V110.99L201.153 110.172V103.909ZM198.723 105.31L197.392 106.127V112.391L198.723 111.573V105.31ZM192.531 108.928V115.192L193.863 114.374V108.111L192.531 108.928ZM196.293 106.71L194.962 107.527V113.791L196.293 112.973V106.71Z" fill="#474747"/>
<path d="M203.582 110.398L202.251 111.215V128.853L203.582 128.034V110.398ZM201.153 111.798L199.821 112.615V130.253L201.153 129.434V111.798ZM198.723 113.198L197.392 114.016V131.653L198.723 130.835V113.198ZM192.531 116.816V134.453L193.863 133.635V115.999L192.531 116.816ZM196.293 114.598L194.962 115.416V133.053L196.293 132.235V114.598Z" fill="#474747"/>
<path d="M196.016 94.1306L194.961 94.7789V94.9888L196.292 94.1699V91.7141L196.016 91.8839V94.1306Z" fill="#020202"/>
<path d="M196.016 112.933L194.961 113.581V113.791L196.292 112.972V106.71L196.016 106.88V112.933Z" fill="#020202"/>
<path d="M196.016 90.3249L194.961 90.9732V91.1831L196.292 90.3643V87.9084L196.016 88.0782V90.3249Z" fill="#020202"/>
<path d="M196.016 99.0592L194.961 99.7075V99.9166L196.292 99.0985V95.3739L196.016 95.5437V99.0592Z" fill="#020202"/>
<path d="M196.016 105.256L194.961 105.904V106.114L196.292 105.295V100.302L196.016 100.472V105.256Z" fill="#020202"/>
<path d="M196.016 86.5185L194.961 87.1676V87.3767L196.292 86.5586V84.1021L196.016 84.2718V86.5185Z" fill="#020202"/>
<path d="M198.446 111.533L197.391 112.18V112.39L198.723 111.572V105.31L198.446 105.48V111.533Z" fill="#020202"/>
<path d="M198.446 130.795L197.391 131.443V131.652L198.723 130.834V113.198L198.446 113.368V130.795Z" fill="#020202"/>
<path d="M193.586 100.459L192.531 101.108V101.318L193.863 100.499V96.774L193.586 96.9438V100.459Z" fill="#020202"/>
<path d="M193.586 106.656L192.531 107.304V107.514L193.863 106.696V101.703L193.586 101.872V106.656Z" fill="#020202"/>
<path d="M193.586 114.333L192.531 114.981V115.191L193.863 114.373V108.111L193.586 108.281V114.333Z" fill="#020202"/>
<path d="M196.016 132.195L194.961 132.843V133.053L196.292 132.235V114.598L196.016 114.768V132.195Z" fill="#020202"/>
<path d="M193.586 133.596L192.531 134.244V134.453L193.863 133.635V115.999L193.586 116.169V133.596Z" fill="#020202"/>
<path d="M198.446 103.855L197.391 104.504V104.713L198.723 103.895V98.9019L198.446 99.0716V103.855Z" fill="#020202"/>
<path d="M193.586 87.9193L192.531 88.5676V88.7775L193.863 87.9586V85.5028L193.586 85.6726V87.9193Z" fill="#020202"/>
<path d="M193.586 91.7249L192.531 92.3732V92.5832L193.863 91.7651V89.3085L193.586 89.4783V91.7249Z" fill="#020202"/>
<path d="M193.586 95.5314L192.531 96.1797V96.3888L193.863 95.5707V93.1141L193.586 93.2847V95.5314Z" fill="#020202"/>
<path d="M203.305 94.8576L202.25 95.5059V95.7159L203.581 94.897V91.1724L203.305 91.3422V94.8576Z" fill="#020202"/>
<path d="M203.305 101.054L202.25 101.703V101.912L203.581 101.094V96.101L203.305 96.2707V101.054Z" fill="#020202"/>
<path d="M198.446 97.6584L197.391 98.3067V98.5166L198.723 97.6978V93.9731L198.446 94.1429V97.6584Z" fill="#020202"/>
<path d="M203.305 108.731L202.25 109.379V109.589L203.581 108.771V102.509L203.305 102.679V108.731Z" fill="#020202"/>
<path d="M200.875 83.7176L199.82 84.3667V84.5758L201.152 83.7577V81.3011L200.875 81.4709V83.7176Z" fill="#020202"/>
<path d="M203.305 80.071V82.3177L202.25 82.966V83.1759L203.581 82.3571V79.9012L203.305 80.071Z" fill="#020202"/>
<path d="M200.875 87.5241L199.82 88.1724V88.3816L201.152 87.5635V85.1077L200.875 85.2775V87.5241Z" fill="#020202"/>
<path d="M203.305 89.9298L202.25 90.5781V90.7873L203.581 89.9692V87.5126L203.305 87.6824V89.9298Z" fill="#020202"/>
<path d="M203.305 86.1234L202.25 86.7717V86.9816L203.581 86.1635V83.7069L203.305 83.8767V86.1234Z" fill="#020202"/>
<path d="M203.305 127.994L202.25 128.643V128.853L203.581 128.034V110.398L203.305 110.567V127.994Z" fill="#020202"/>
<path d="M198.446 88.9241L197.391 89.5724V89.7824L198.723 88.9643V86.5077L198.446 86.6775V88.9241Z" fill="#020202"/>
<path d="M200.875 129.394L199.82 130.042V130.252L201.152 129.434V111.797L200.875 111.967V129.394Z" fill="#020202"/>
<path d="M200.875 91.3298L199.82 91.9781V92.188L201.152 91.3691V88.9133L200.875 89.0831V91.3298Z" fill="#020202"/>
<path d="M198.446 92.7306L197.391 93.3789V93.588L198.723 92.7699V90.3134L198.446 90.4831V92.7306Z" fill="#020202"/>
<path d="M198.446 85.1185L197.391 85.7668V85.9767L198.723 85.1578V82.702L198.446 82.8718V85.1185Z" fill="#020202"/>
<path d="M200.875 96.2584L199.82 96.9067V97.1158L201.152 96.2978V92.5731L200.875 92.7429V96.2584Z" fill="#020202"/>
<path d="M200.875 102.455L199.82 103.103V103.313L201.152 102.494V97.501L200.875 97.6708V102.455Z" fill="#020202"/>
<path d="M200.875 110.132L199.82 110.78V110.99L201.152 110.171V103.909L200.875 104.079V110.132Z" fill="#020202"/>
<path d="M191.055 81.4633V83.2963L201.651 77.203V75.3701L191.055 81.4633Z" fill="#FFBE2E"/>
<path d="M191.058 81.4633V83.2963L180.609 77.2046V75.3785L191.058 81.4633Z" fill="#E4A417"/>
<path d="M180.609 75.3786L191.058 81.4633L201.649 75.3701L191.188 69.2792L180.609 75.3786Z" fill="#978050"/>
<path d="M199.389 75.4518L191.027 70.5826L182.656 75.4032L191.026 80.2778L199.389 75.4518Z" fill="#695833"/>
<path d="M191.032 72.022V70.5857L191.027 70.5826L182.656 75.4032L183.9 76.1279L191.032 72.022Z" fill="#695833"/>
<path d="M191.027 72.0221L198.147 76.1681L199.389 75.4519L191.027 70.5827V72.0221Z" fill="#FFBE2E"/>
<path d="M183.953 76.0963L190.973 80.1845L198.089 76.091L191.061 71.9982L183.953 76.0963Z" fill="#E4A417"/>
<path d="M280.412 114.67L259.066 127.08V79.006L280.412 66.6628V114.67Z" fill="#B88516"/>
<path d="M243.008 69.7979L259.07 79.006V127.08L243.008 117.865V69.7979Z" fill="#E4A417"/>
<path opacity="0.5" d="M243.008 116.644L259.07 125.853V127.08L243.008 117.865V116.644Z" fill="#FFBE2E"/>
<path d="M264.357 57.4824L280.411 66.6628L259.065 79.006L243.008 69.8009L264.357 57.4824Z" fill="#FFBE2E"/>
<path d="M279.328 119.901L277.934 120.827V68.4387L279.328 67.609V119.901Z" fill="#FFBE2E"/>
<path d="M273.903 118.473V70.4654L262.938 64.0557V59.6766L277.943 68.4387V120.827L273.895 118.478L273.903 118.473Z" fill="black"/>
<path d="M276.354 119.962L264.574 126.8V75.4419L276.354 68.6833V119.962Z" fill="#3C2C0B"/>
<path d="M264.394 61.6909L276.354 68.6833L262.435 76.6991L250.473 69.6773L264.394 61.6909Z" fill="#B88516"/>
<path d="M252.852 67.325V67.3196L264.546 60.585V61.8029L253.954 67.9625L252.852 67.325Z" fill="#FFBE2E"/>
<path d="M274.762 69.6535L274.944 69.557V120.818L274.762 120.914V69.6535Z" fill="#FFBE2E"/>
<path d="M273.168 70.565L273.35 70.4685V121.729L273.168 121.825V70.565Z" fill="#FFBE2E"/>
<path d="M271.578 71.4756L271.76 71.3792V122.64L271.578 122.736V71.4756Z" fill="#FFBE2E"/>
<path d="M269.988 72.3864L270.17 72.2906V123.551L269.988 123.648V72.3864Z" fill="#FFBE2E"/>
<path d="M268.395 73.2979L268.577 73.2014V124.462L268.395 124.558V73.2979Z" fill="#FFBE2E"/>
<path d="M266.805 74.2085L266.988 74.1128V125.373L266.805 125.469V74.2085Z" fill="#FFBE2E"/>
<path d="M265.211 75.12L265.394 75.0236V126.284L265.211 126.38V75.12Z" fill="#FFBE2E"/>
<path d="M274.761 69.601L274.943 69.5046L263.312 62.5292L263.129 62.6256L274.761 69.601Z" fill="#E4A417"/>
<path d="M273.171 70.5118L273.354 70.4161L261.722 63.4399L261.539 63.5364L273.171 70.5118Z" fill="#E4A417"/>
<path d="M271.578 71.4232L271.76 71.3267L260.128 64.3513L259.945 64.4478L271.578 71.4232Z" fill="#E4A417"/>
<path d="M269.988 72.3339L270.17 72.2375L258.538 65.2621L258.355 65.3586L269.988 72.3339Z" fill="#E4A417"/>
<path d="M268.398 73.2454L268.58 73.149L256.949 66.1736L256.766 66.2693L268.398 73.2454Z" fill="#E4A417"/>
<path d="M266.804 74.1561L266.987 74.0596L255.355 67.0842L255.172 67.1807L266.804 74.1561Z" fill="#E4A417"/>
<path d="M265.214 75.0668L265.397 74.9711L253.765 67.9957L253.582 68.0914L265.214 75.0668Z" fill="#E4A417"/>
<path d="M276.363 113.532V113.918L263.949 121.016V120.629L276.363 113.532Z" fill="#FFBE2E"/>
<path d="M266.216 127.415L264.703 128.409V76.0207L266.216 75.11V127.415Z" fill="#FFBE2E"/>
<path d="M260.669 126.055V78.0473L249.703 71.6384V67.2585L264.708 76.0206V128.409L260.66 126.06L260.669 126.055Z" fill="black"/>
<path d="M249.703 67.2625L264.335 58.8685L279.328 67.5966L277.933 68.4387L264.514 60.595L252.839 67.318L266.214 75.11L264.701 76.0207L249.703 67.2625Z" fill="#3F3F3F"/>
<path d="M264.626 150.294L240.547 136.49V101.844L264.626 115.648V150.294Z" fill="#C59223"/>
<path d="M276.737 143.228L264.617 150.294V115.648L276.737 108.591V143.228Z" fill="#FFBE2E"/>
<path d="M276.738 108.591L264.619 115.648L240.547 101.844L252.679 94.7781L276.738 108.591Z" fill="#978050"/>
<path d="M267.019 116.419L264.7 117.753L240.547 103.775V105.017L264.7 118.994L267.019 117.661V116.419Z" fill="#6E5520"/>
<path d="M267.019 119.574L264.7 120.908L240.547 106.929V108.171L264.7 122.149L267.019 120.816V119.574Z" fill="#6E5520"/>
<path d="M267.019 122.728L264.7 124.063L240.547 110.084V111.326L264.7 125.304L267.019 123.97V122.728Z" fill="#6E5520"/>
<path d="M267.019 125.883L264.7 127.217L240.547 113.239V114.48L264.7 128.459L267.019 127.125V125.883Z" fill="#6E5520"/>
<path d="M267.019 129.038L264.7 130.372L240.547 116.393V117.635L264.7 131.614L267.019 130.279V129.038Z" fill="#6E5520"/>
<path d="M267.019 132.193L264.7 133.526L240.547 119.549V120.79L264.7 134.768L267.019 133.435V132.193Z" fill="#6E5520"/>
<path d="M267.019 135.348L264.7 136.681L240.547 122.703V123.945L264.7 137.923L267.019 136.589V135.348Z" fill="#6E5520"/>
<path d="M267.019 138.502L264.7 139.836L240.547 125.858V127.1L264.7 141.078L267.019 139.744V138.502Z" fill="#6E5520"/>
<path d="M267.019 141.657L264.7 142.991L240.547 129.012V130.254L264.7 144.233L267.019 142.899V141.657Z" fill="#6E5520"/>
<path d="M267.019 144.811L264.7 146.145L240.547 132.167V133.409L264.7 147.387L267.019 146.053V144.811Z" fill="#6E5520"/>
<path d="M267.019 117.233L264.7 118.567L240.547 104.589V105.017L264.7 118.994L267.019 117.661V117.233Z" fill="#978050"/>
<path d="M267.019 120.388L264.7 121.722L240.547 107.743V108.171L264.7 122.15L267.019 120.816V120.388Z" fill="#978050"/>
<path d="M267.019 123.543L264.7 124.876L240.547 110.898V111.326L264.7 125.304L267.019 123.97V123.543Z" fill="#978050"/>
<path d="M267.019 126.698L264.7 128.031L240.547 114.053V114.48L264.7 128.459L267.019 127.125V126.698Z" fill="#978050"/>
<path d="M267.019 129.852L264.7 131.186L240.547 117.208V117.635L264.7 131.614L267.019 130.279V129.852Z" fill="#978050"/>
<path d="M267.019 133.007L264.7 134.341L240.547 120.362V120.79L264.7 134.768L267.019 133.435V133.007Z" fill="#978050"/>
<path d="M267.019 136.161L264.7 137.496L240.547 123.517V123.945L264.7 137.923L267.019 136.589V136.161Z" fill="#978050"/>
<path d="M267.019 139.316L264.7 140.65L240.547 126.672V127.1L264.7 141.078L267.019 139.744V139.316Z" fill="#978050"/>
<path d="M267.019 142.471L264.7 143.805L240.547 129.826V130.254L264.7 144.233L267.019 142.899V142.471Z" fill="#978050"/>
<path d="M267.019 145.626L264.7 146.959L240.547 132.981V133.409L264.7 147.387L267.019 146.053V145.626Z" fill="#978050"/>
<path d="M243.277 101.727L252.695 96.2299L273.825 108.323L264.4 113.824L243.277 101.727Z" fill="url(#paint1_linear_7393_290877)"/>
<path d="M252.691 97.332V96.2322L252.695 96.2299L273.825 108.323L272.874 108.877L252.691 97.332Z" fill="#FFBE2E"/>
<path d="M252.695 97.332L244.228 102.275L243.277 101.727L252.695 96.2299V97.332Z" fill="#FFBE2E"/>
<path d="M272.833 108.853L264.442 113.753L244.273 102.217L252.67 97.3135L272.833 108.853Z" fill="#FFD16C"/>
<path d="M197.078 160.865C197.013 160.865 196.947 160.848 196.886 160.814L195.548 160.044C195.364 159.938 195.3 159.702 195.405 159.517C195.512 159.332 195.748 159.269 195.932 159.374L197.271 160.144C197.455 160.25 197.519 160.486 197.413 160.671C197.342 160.795 197.212 160.865 197.078 160.865ZM193.733 158.942C193.667 158.942 193.601 158.926 193.541 158.891L192.202 158.122C192.018 158.015 191.954 157.78 192.06 157.595C192.166 157.409 192.403 157.347 192.587 157.452L193.925 158.221C194.109 158.328 194.173 158.563 194.068 158.748C193.996 158.873 193.866 158.942 193.733 158.942ZM190.387 157.019C190.322 157.019 190.255 157.003 190.195 156.968L188.857 156.199C188.672 156.093 188.608 155.857 188.715 155.672C188.821 155.487 189.057 155.424 189.242 155.529L190.58 156.298C190.765 156.404 190.829 156.64 190.723 156.825C190.65 156.949 190.521 157.019 190.387 157.019ZM187.045 155.089C186.971 155.089 186.897 155.069 186.831 155.024C186.341 154.696 185.952 154.269 185.676 153.756C185.575 153.569 185.645 153.334 185.833 153.233C186.023 153.133 186.254 153.203 186.356 153.39C186.571 153.791 186.876 154.125 187.261 154.382C187.438 154.5 187.485 154.741 187.366 154.917C187.292 155.029 187.17 155.089 187.045 155.089ZM185.718 151.714C185.69 151.714 185.661 151.71 185.632 151.704C185.424 151.656 185.294 151.449 185.342 151.241C185.472 150.676 185.739 150.146 186.115 149.711C186.255 149.549 186.499 149.532 186.659 149.671C186.821 149.811 186.838 150.054 186.699 150.216C186.405 150.555 186.196 150.97 186.094 151.413C186.054 151.592 185.895 151.714 185.718 151.714ZM188.305 149.045C188.172 149.045 188.043 148.977 187.971 148.854C187.863 148.67 187.926 148.433 188.11 148.326L189.445 147.549C189.628 147.439 189.865 147.503 189.973 147.688C190.081 147.872 190.018 148.109 189.834 148.216L188.499 148.993C188.438 149.029 188.371 149.045 188.305 149.045ZM191.639 147.102C191.506 147.102 191.377 147.033 191.306 146.911C191.198 146.727 191.26 146.49 191.444 146.383L192.778 145.606C192.96 145.496 193.198 145.559 193.306 145.745C193.414 145.928 193.352 146.165 193.167 146.272L191.833 147.05C191.772 147.086 191.705 147.102 191.639 147.102ZM194.973 145.159C194.84 145.159 194.711 145.09 194.64 144.967C194.532 144.784 194.594 144.547 194.779 144.439L196.112 143.662C196.295 143.553 196.532 143.617 196.64 143.801C196.748 143.985 196.686 144.222 196.501 144.329L195.168 145.106C195.107 145.143 195.039 145.159 194.973 145.159ZM198.307 143.217C198.174 143.217 198.046 143.148 197.974 143.026C197.866 142.841 197.928 142.605 198.113 142.498L199.446 141.72C199.628 141.612 199.866 141.674 199.974 141.859C200.082 142.044 200.02 142.28 199.835 142.387L198.501 143.165C198.441 143.2 198.374 143.217 198.307 143.217ZM201.641 141.274C201.509 141.274 201.38 141.205 201.308 141.082C201.2 140.898 201.262 140.662 201.447 140.554L202.781 139.777C202.963 139.668 203.201 139.731 203.309 139.916C203.417 140.101 203.355 140.337 203.17 140.444L201.836 141.221C201.775 141.257 201.708 141.274 201.641 141.274ZM204.975 139.331C204.843 139.331 204.714 139.262 204.642 139.14C204.534 138.956 204.596 138.719 204.781 138.612L206.115 137.835C206.297 137.725 206.534 137.788 206.642 137.973C206.751 138.157 206.688 138.394 206.504 138.501L205.17 139.279C205.109 139.314 205.042 139.331 204.975 139.331ZM208.31 137.388C208.178 137.388 208.049 137.32 207.977 137.197C207.869 137.013 207.931 136.776 208.116 136.669L209.449 135.891C209.632 135.782 209.869 135.845 209.977 136.03C210.085 136.214 210.023 136.451 209.838 136.558L208.505 137.336C208.444 137.372 208.377 137.388 208.31 137.388ZM211.644 135.446C211.511 135.446 211.382 135.377 211.31 135.254C211.202 135.07 211.265 134.834 211.449 134.727L212.783 133.949C212.966 133.841 213.203 133.903 213.311 134.088C213.419 134.273 213.356 134.509 213.172 134.616L211.837 135.393C211.777 135.429 211.71 135.446 211.644 135.446ZM214.978 133.503C214.845 133.503 214.716 133.434 214.644 133.311C214.536 133.127 214.599 132.891 214.783 132.783L216.118 132.006C216.3 131.896 216.538 131.961 216.646 132.145C216.754 132.329 216.691 132.566 216.507 132.673L215.173 133.45C215.111 133.486 215.044 133.503 214.978 133.503ZM218.313 131.559C218.18 131.559 218.051 131.49 217.979 131.368C217.871 131.183 217.934 130.947 218.118 130.84L219.452 130.063C219.634 129.953 219.872 130.016 219.98 130.202C220.088 130.386 220.025 130.622 219.841 130.73L218.506 131.507C218.446 131.543 218.379 131.559 218.313 131.559ZM221.647 129.617C221.514 129.617 221.385 129.549 221.313 129.426C221.205 129.242 221.268 129.005 221.452 128.898L222.786 128.12C222.968 128.011 223.206 128.074 223.314 128.259C223.422 128.443 223.359 128.68 223.175 128.787L221.841 129.565C221.78 129.6 221.713 129.617 221.647 129.617ZM224.981 127.674C224.848 127.674 224.719 127.605 224.647 127.483C224.539 127.299 224.602 127.062 224.786 126.955L226.12 126.178C226.302 126.069 226.54 126.131 226.648 126.316C226.756 126.5 226.693 126.737 226.509 126.844L225.175 127.622C225.114 127.658 225.047 127.674 224.981 127.674ZM228.315 125.731C228.182 125.731 228.053 125.663 227.981 125.539C227.874 125.356 227.936 125.119 228.121 125.011L228.352 124.877C228.534 124.77 228.77 124.832 228.88 125.018C228.987 125.201 228.925 125.437 228.739 125.545L228.509 125.68C228.448 125.714 228.381 125.731 228.315 125.731Z" fill="#FFBE2E"/>
<path d="M150.227 221.042C150.223 221.042 150.218 221.042 150.214 221.042C149.678 221.024 149.142 220.96 148.62 220.853C148.411 220.81 148.276 220.607 148.318 220.398C148.361 220.188 148.568 220.054 148.773 220.096C149.254 220.195 149.748 220.253 150.241 220.271C150.454 220.278 150.62 220.457 150.613 220.67C150.606 220.878 150.435 221.042 150.227 221.042ZM152.527 220.832C152.35 220.832 152.191 220.71 152.151 220.53C152.104 220.321 152.236 220.116 152.445 220.07C152.927 219.963 153.402 219.817 153.856 219.634C154.052 219.555 154.278 219.65 154.358 219.847C154.438 220.045 154.343 220.27 154.145 220.349C153.65 220.548 153.135 220.708 152.611 220.823C152.583 220.829 152.555 220.832 152.527 220.832ZM146.511 220.118C146.454 220.118 146.397 220.106 146.342 220.08C146.159 219.991 145.977 219.896 145.799 219.795L144.969 219.322C144.784 219.216 144.719 218.981 144.825 218.795C144.931 218.61 145.167 218.547 145.352 218.651L146.181 219.123C146.345 219.215 146.511 219.303 146.679 219.384C146.871 219.478 146.951 219.709 146.859 219.9C146.791 220.039 146.653 220.118 146.511 220.118ZM156.048 219.3C155.914 219.3 155.784 219.231 155.713 219.107C155.606 218.923 155.669 218.687 155.855 218.58L157.191 217.809C157.376 217.7 157.613 217.764 157.718 217.95C157.826 218.134 157.762 218.37 157.577 218.477L156.24 219.249C156.179 219.283 156.113 219.3 156.048 219.3ZM143.148 218.226C143.083 218.226 143.017 218.209 142.957 218.176L141.616 217.412C141.431 217.306 141.366 217.071 141.471 216.885C141.577 216.7 141.812 216.637 141.997 216.74L143.339 217.504C143.524 217.61 143.589 217.846 143.484 218.031C143.412 218.157 143.282 218.226 143.148 218.226ZM159.389 217.37C159.257 217.37 159.126 217.301 159.055 217.177C158.948 216.993 159.011 216.757 159.196 216.65L160.532 215.878C160.717 215.77 160.953 215.834 161.059 216.02C161.167 216.204 161.103 216.44 160.918 216.547L159.582 217.318C159.521 217.353 159.455 217.37 159.389 217.37ZM139.794 216.316C139.73 216.316 139.664 216.3 139.604 216.266L138.263 215.502C138.078 215.397 138.013 215.161 138.118 214.976C138.223 214.791 138.459 214.727 138.645 214.831L139.985 215.594C140.17 215.7 140.235 215.935 140.13 216.121C140.059 216.246 139.929 216.316 139.794 216.316ZM162.731 215.441C162.598 215.441 162.468 215.371 162.397 215.248C162.29 215.063 162.353 214.827 162.538 214.721L163.875 213.949C164.059 213.841 164.296 213.904 164.402 214.09C164.509 214.275 164.446 214.511 164.261 214.617L162.924 215.389C162.863 215.424 162.797 215.441 162.731 215.441ZM136.443 214.406C136.378 214.406 136.312 214.389 136.252 214.356L134.911 213.591C134.725 213.486 134.661 213.25 134.766 213.065C134.872 212.879 135.105 212.816 135.292 212.92L136.633 213.684C136.818 213.79 136.883 214.025 136.778 214.21C136.706 214.335 136.577 214.406 136.443 214.406ZM166.072 213.51C165.939 213.51 165.809 213.441 165.738 213.318C165.631 213.133 165.694 212.897 165.879 212.79L167.217 212.019C167.401 211.911 167.638 211.975 167.744 212.16C167.851 212.344 167.788 212.58 167.603 212.687L166.265 213.459C166.204 213.494 166.138 213.51 166.072 213.51ZM133.089 212.496C133.024 212.496 132.958 212.479 132.898 212.445L131.557 211.681C131.373 211.576 131.308 211.34 131.413 211.154C131.519 210.97 131.755 210.906 131.94 211.01L133.281 211.774C133.465 211.88 133.53 212.115 133.424 212.301C133.353 212.425 133.223 212.496 133.089 212.496ZM169.414 211.58C169.281 211.58 169.151 211.511 169.08 211.387C168.973 211.203 169.036 210.967 169.221 210.86L170.558 210.088C170.741 209.981 170.978 210.044 171.085 210.23C171.192 210.414 171.129 210.65 170.944 210.757L169.607 211.529C169.546 211.564 169.48 211.58 169.414 211.58ZM129.737 210.585C129.672 210.585 129.606 210.568 129.546 210.534L128.205 209.77C128.019 209.665 127.955 209.429 128.059 209.244C128.167 209.058 128.401 208.996 128.586 209.099L129.927 209.863C130.112 209.969 130.177 210.204 130.072 210.389C130.001 210.514 129.871 210.585 129.737 210.585ZM172.757 209.651C172.624 209.651 172.494 209.581 172.422 209.458C172.315 209.273 172.378 209.037 172.564 208.931L173.9 208.158C174.081 208.05 174.32 208.114 174.427 208.299C174.534 208.484 174.471 208.72 174.286 208.826L172.95 209.599C172.889 209.635 172.821 209.651 172.757 209.651ZM126.383 208.674C126.318 208.674 126.252 208.657 126.192 208.624L124.851 207.859C124.667 207.754 124.602 207.518 124.708 207.332C124.814 207.147 125.05 207.085 125.235 207.188L126.575 207.952C126.76 208.058 126.825 208.293 126.719 208.479C126.647 208.604 126.517 208.674 126.383 208.674ZM176.098 207.721C175.964 207.721 175.835 207.651 175.764 207.528C175.656 207.343 175.72 207.107 175.905 207L177.241 206.229C177.424 206.121 177.662 206.184 177.769 206.37C177.876 206.554 177.813 206.791 177.627 206.897L176.291 207.669C176.23 207.704 176.163 207.721 176.098 207.721ZM123.031 206.764C122.966 206.764 122.901 206.747 122.841 206.714L121.499 205.95C121.314 205.844 121.249 205.609 121.354 205.424C121.46 205.238 121.695 205.175 121.881 205.279L123.222 206.043C123.407 206.148 123.472 206.384 123.367 206.569C123.295 206.694 123.166 206.764 123.031 206.764ZM179.44 205.79C179.307 205.79 179.176 205.721 179.105 205.597C178.998 205.413 179.061 205.177 179.247 205.07L180.583 204.298C180.766 204.19 181.003 204.254 181.11 204.44C181.217 204.624 181.154 204.86 180.968 204.967L179.632 205.739C179.572 205.774 179.505 205.79 179.44 205.79ZM119.678 204.853C119.613 204.853 119.547 204.837 119.486 204.803L118.146 204.039C117.961 203.933 117.897 203.698 118.002 203.512C118.109 203.328 118.344 203.264 118.529 203.368L119.87 204.132C120.055 204.237 120.119 204.473 120.014 204.659C119.942 204.783 119.811 204.853 119.678 204.853ZM182.781 203.861C182.649 203.861 182.519 203.791 182.447 203.669C182.34 203.484 182.403 203.248 182.588 203.141L182.974 202.917C183.157 202.81 183.394 202.872 183.502 203.057C183.609 203.242 183.546 203.478 183.362 203.585L182.975 203.809C182.914 203.845 182.848 203.861 182.781 203.861ZM116.325 202.943C116.26 202.943 116.195 202.927 116.135 202.893L114.793 202.129C114.608 202.023 114.543 201.788 114.648 201.603C114.755 201.417 114.989 201.353 115.175 201.457L116.516 202.222C116.701 202.327 116.766 202.563 116.661 202.748C116.589 202.873 116.46 202.943 116.325 202.943ZM112.973 201.032C112.908 201.032 112.841 201.016 112.781 200.982L111.441 200.218C111.256 200.112 111.191 199.877 111.296 199.691C111.403 199.506 111.639 199.444 111.823 199.547L113.164 200.311C113.348 200.417 113.413 200.653 113.308 200.839C113.236 200.962 113.105 201.032 112.973 201.032ZM109.62 199.121C109.555 199.121 109.49 199.105 109.429 199.071L108.91 198.776C108.586 198.592 108.308 198.353 108.083 198.069C107.951 197.901 107.98 197.659 108.147 197.527C108.314 197.394 108.557 197.423 108.689 197.591C108.852 197.797 109.054 197.97 109.291 198.105L109.811 198.4C109.996 198.506 110.061 198.741 109.956 198.927C109.885 199.052 109.754 199.121 109.62 199.121ZM107.972 196.025C107.936 196.025 107.899 196.019 107.863 196.009C107.658 195.948 107.542 195.733 107.602 195.529C107.774 194.947 108.123 194.448 108.611 194.085C108.779 193.959 109.021 193.993 109.15 194.164C109.277 194.335 109.241 194.577 109.071 194.704C108.719 194.966 108.467 195.327 108.343 195.748C108.293 195.916 108.139 196.025 107.972 196.025ZM110.836 193.608C110.704 193.608 110.574 193.539 110.502 193.415C110.395 193.231 110.458 192.995 110.643 192.888L111.979 192.116C112.16 192.008 112.398 192.072 112.506 192.257C112.614 192.441 112.55 192.678 112.365 192.784L111.029 193.557C110.969 193.591 110.902 193.608 110.836 193.608ZM114.177 191.677C114.044 191.677 113.914 191.607 113.842 191.484C113.735 191.299 113.798 191.063 113.984 190.957L115.32 190.184C115.502 190.075 115.739 190.14 115.847 190.325C115.954 190.51 115.891 190.746 115.706 190.852L114.37 191.625C114.309 191.66 114.242 191.677 114.177 191.677Z" fill="#FFBE2E"/>
<path d="M185.092 178.229L184.934 180.681C184.91 181.048 184.505 181.258 184.191 181.066L182.639 180.114C182.476 180.013 182.386 179.826 182.41 179.635L182.725 177.194C182.771 176.834 183.181 176.648 183.482 176.852L184.877 177.795C185.022 177.89 185.104 178.056 185.092 178.229Z" fill="#FFE6AD"/>
<path opacity="0.7" d="M184.671 181.024L184.829 178.572C184.84 178.399 184.759 178.233 184.615 178.136L183.22 177.193C183.066 177.09 182.886 177.088 182.738 177.158C182.807 176.822 183.196 176.655 183.486 176.851L184.882 177.793C185.025 177.89 185.107 178.056 185.095 178.229L184.937 180.681C184.925 180.872 184.809 181.017 184.658 181.089C184.662 181.068 184.669 181.047 184.671 181.024Z" fill="#FFBE2E"/>
<path opacity="0.2" d="M252.078 177.506L206.882 203.609C200.94 207 193.644 206.983 187.718 203.563L179.591 198.873C178.767 198.397 178.766 197.208 179.589 196.73L233.515 165.265C233.899 165.042 234.374 165.043 234.758 165.267L252.088 175.362C252.911 175.843 252.906 177.033 252.078 177.506Z" fill="#92B4D1"/>
<path d="M208.919 197.349L202.543 193.643L209.216 192.43L208.919 197.349Z" fill="#B2841F"/>
<path d="M244.97 177.009L238.594 173.303L245.266 172.09L244.97 177.009Z" fill="#B2841F"/>
<path d="M234.793 179.917C234.793 181.107 235.204 181.95 235.871 182.358C235.891 182.37 237.98 183.58 238.001 183.591C238.696 183.98 238.252 183.098 239.306 182.489C241.43 181.263 243.151 178.295 243.151 175.858C243.151 174.653 244.265 174.643 243.583 174.241C243.564 174.23 241.341 172.999 241.321 172.989C240.628 172.614 239.681 172.683 238.638 173.286C236.514 174.511 234.793 177.48 234.793 179.917Z" fill="black"/>
<path d="M237.02 181.181C237.02 183.618 238.741 184.599 240.865 183.373C242.988 182.147 244.71 179.178 244.71 176.742C244.71 174.305 242.989 173.324 240.865 174.55C238.741 175.776 237.02 178.745 237.02 181.181Z" fill="black"/>
<path d="M240.681 174.457C241.699 173.87 242.624 173.79 243.311 174.135C242.67 173.956 241.875 174.089 241.013 174.587C238.89 175.813 237.168 178.782 237.168 181.218C237.168 182.487 237.635 183.36 238.382 183.733C237.443 183.471 236.836 182.537 236.836 181.089C236.836 178.652 238.557 175.683 240.681 174.457Z" fill="black"/>
<path d="M237.773 180.734C237.773 182.61 239.099 183.366 240.734 182.422C242.369 181.478 243.695 179.191 243.695 177.315C243.695 175.439 242.369 174.683 240.734 175.627C239.099 176.571 237.773 178.857 237.773 180.734ZM239.728 179.55C239.727 179.569 239.727 179.587 239.727 179.606C239.727 179.624 239.727 179.643 239.728 179.66C239.732 179.762 239.682 179.888 239.603 179.986L238.685 181.125C238.548 181.295 238.369 181.317 238.328 181.166C238.27 180.959 238.24 180.724 238.24 180.463C238.24 180.203 238.271 179.933 238.328 179.661C238.369 179.461 238.547 179.277 238.685 179.289L239.603 179.367C239.682 179.374 239.732 179.443 239.728 179.55ZM238.964 178.031C239.271 177.498 239.66 177.01 240.095 176.628C240.25 176.491 240.403 176.536 240.403 176.721V177.935C240.403 178.041 240.354 178.169 240.272 178.265C240.244 178.298 240.216 178.332 240.19 178.367C240.113 178.468 240.015 178.524 239.936 178.518L239.018 178.44C238.879 178.427 238.852 178.226 238.964 178.031ZM241.373 175.89C241.808 175.771 242.197 175.809 242.504 175.988C242.616 176.053 242.588 176.286 242.45 176.457L241.532 177.595C241.453 177.693 241.355 177.75 241.278 177.738C241.252 177.734 241.224 177.731 241.196 177.731C241.114 177.73 241.065 177.659 241.065 177.552V176.338C241.066 176.154 241.218 175.932 241.373 175.89ZM243.14 176.883C243.198 177.09 243.228 177.324 243.228 177.585C243.228 177.846 243.198 178.116 243.14 178.388C243.099 178.588 242.92 178.772 242.783 178.76L241.865 178.682C241.786 178.675 241.736 178.606 241.74 178.499C241.741 178.481 241.742 178.462 241.742 178.444C241.742 178.425 241.741 178.407 241.74 178.39C241.736 178.288 241.786 178.161 241.865 178.063L242.783 176.924C242.921 176.753 243.099 176.731 243.14 176.883ZM242.504 180.017C242.197 180.551 241.808 181.038 241.374 181.421C241.219 181.558 241.066 181.512 241.066 181.328V180.114C241.066 180.008 241.115 179.88 241.197 179.783C241.225 179.75 241.253 179.716 241.279 179.681C241.355 179.58 241.454 179.525 241.533 179.531L242.451 179.609C242.589 179.622 242.616 179.824 242.504 180.017ZM240.095 182.16C239.66 182.279 239.271 182.24 238.964 182.062C238.852 181.997 238.88 181.764 239.018 181.592L239.936 180.454C240.015 180.356 240.113 180.299 240.19 180.311C240.216 180.316 240.244 180.318 240.272 180.318C240.354 180.32 240.403 180.391 240.403 180.496V181.711C240.402 181.895 240.25 182.117 240.095 182.16Z" fill="black"/>
<path d="M237.961 180.807C237.961 182.684 239.287 183.439 240.922 182.495C242.557 181.551 243.882 179.265 243.882 177.388C243.882 175.512 242.556 174.757 240.922 175.701C239.286 176.645 237.961 178.931 237.961 180.807ZM239.915 179.624C239.914 179.643 239.914 179.661 239.914 179.68C239.914 179.698 239.914 179.716 239.915 179.734C239.92 179.836 239.87 179.962 239.791 180.06L238.872 181.199C238.735 181.369 238.557 181.391 238.515 181.24C238.458 181.033 238.428 180.798 238.428 180.537C238.428 180.276 238.458 180.007 238.515 179.735C238.557 179.535 238.734 179.351 238.872 179.363L239.791 179.441C239.87 179.448 239.92 179.517 239.915 179.624ZM239.152 178.105C239.459 177.572 239.848 177.084 240.282 176.702C240.438 176.565 240.59 176.61 240.59 176.795V178.009C240.59 178.115 240.541 178.243 240.459 178.339C240.431 178.372 240.404 178.406 240.377 178.441C240.301 178.541 240.202 178.598 240.123 178.592L239.205 178.514C239.067 178.501 239.039 178.3 239.152 178.105ZM241.561 175.963C241.997 175.844 242.385 175.883 242.692 176.061C242.804 176.126 242.776 176.359 242.639 176.53L241.72 177.669C241.642 177.767 241.543 177.824 241.466 177.811C241.44 177.808 241.412 177.804 241.385 177.804C241.303 177.803 241.253 177.732 241.253 177.625V176.411C241.253 176.228 241.405 176.005 241.561 175.963ZM243.328 176.956C243.385 177.163 243.415 177.398 243.415 177.659C243.415 177.919 243.384 178.189 243.328 178.461C243.286 178.661 243.109 178.845 242.971 178.833L242.052 178.755C241.973 178.748 241.923 178.68 241.928 178.572C241.929 178.554 241.929 178.535 241.929 178.517C241.929 178.498 241.929 178.481 241.928 178.463C241.923 178.361 241.973 178.234 242.052 178.136L242.971 176.997C243.109 176.827 243.286 176.805 243.328 176.956ZM242.692 180.091C242.385 180.625 241.997 181.112 241.561 181.495C241.406 181.632 241.253 181.586 241.253 181.402V180.188C241.253 180.082 241.303 179.954 241.385 179.857C241.412 179.824 241.44 179.791 241.466 179.756C241.543 179.655 241.642 179.599 241.72 179.605L242.639 179.683C242.776 179.695 242.804 179.897 242.692 180.091ZM240.282 182.234C239.847 182.353 239.459 182.314 239.152 182.136C239.04 182.071 239.068 181.838 239.205 181.666L240.123 180.528C240.202 180.43 240.301 180.373 240.377 180.385C240.404 180.39 240.431 180.392 240.459 180.392C240.541 180.394 240.59 180.465 240.59 180.571V181.785C240.59 181.969 240.438 182.19 240.282 182.234Z" fill="white"/>
<path d="M198.32 200.829C198.32 202.019 198.731 202.862 199.398 203.27C199.419 203.283 201.508 204.492 201.529 204.503C202.223 204.891 201.779 204.01 202.834 203.401C204.957 202.175 206.679 199.206 206.679 196.77C206.679 195.565 207.792 195.555 207.11 195.153C207.091 195.142 204.868 193.912 204.849 193.901C204.156 193.526 203.209 193.594 202.165 194.197C200.041 195.424 198.32 198.393 198.32 200.829Z" fill="#030303"/>
<path d="M200.547 202.093C200.547 204.53 202.268 205.512 204.392 204.285C206.515 203.06 208.237 200.091 208.237 197.654C208.237 195.217 206.516 194.236 204.392 195.462C202.268 196.688 200.547 199.657 200.547 202.093Z" fill="black"/>
<path d="M204.204 195.369C205.222 194.782 206.147 194.703 206.835 195.047C206.193 194.868 205.398 195.001 204.536 195.499C202.413 196.725 200.692 199.694 200.692 202.13C200.692 203.399 201.159 204.272 201.906 204.646C200.968 204.383 200.359 203.449 200.359 202.001C200.36 199.564 202.081 196.595 204.204 195.369Z" fill="black"/>
<path d="M201.301 201.646C201.301 203.523 202.626 204.279 204.261 203.334C205.897 202.39 207.222 200.104 207.222 198.227C207.222 196.351 205.896 195.595 204.261 196.54C202.626 197.483 201.301 199.769 201.301 201.646ZM203.255 200.462C203.254 200.481 203.254 200.5 203.254 200.518C203.254 200.537 203.254 200.554 203.255 200.572C203.26 200.674 203.209 200.801 203.131 200.899L202.212 202.038C202.075 202.208 201.897 202.23 201.855 202.079C201.798 201.872 201.768 201.637 201.768 201.376C201.768 201.115 201.799 200.846 201.855 200.574C201.897 200.374 202.075 200.19 202.212 200.202L203.131 200.28C203.209 200.287 203.26 200.355 203.255 200.462ZM202.491 198.944C202.798 198.41 203.187 197.923 203.622 197.54C203.777 197.403 203.929 197.449 203.929 197.633V198.847C203.929 198.953 203.88 199.081 203.798 199.177C203.77 199.211 203.743 199.245 203.716 199.279C203.64 199.38 203.541 199.436 203.463 199.43L202.544 199.352C202.407 199.34 202.379 199.138 202.491 198.944ZM204.9 196.801C205.336 196.682 205.724 196.721 206.031 196.899C206.143 196.964 206.115 197.197 205.978 197.368L205.059 198.507C204.981 198.605 204.882 198.662 204.805 198.65C204.779 198.645 204.751 198.643 204.724 198.643C204.642 198.641 204.592 198.57 204.592 198.464V197.25C204.593 197.066 204.745 196.844 204.9 196.801ZM206.668 197.795C206.725 198.002 206.755 198.237 206.755 198.497C206.755 198.758 206.724 199.027 206.668 199.299C206.626 199.499 206.449 199.683 206.31 199.671L205.392 199.593C205.313 199.587 205.263 199.518 205.268 199.411C205.269 199.392 205.269 199.374 205.269 199.355C205.269 199.336 205.269 199.318 205.268 199.3C205.263 199.198 205.313 199.072 205.392 198.974L206.31 197.835C206.448 197.665 206.626 197.643 206.668 197.795ZM206.031 200.929C205.724 201.463 205.336 201.95 204.9 202.333C204.745 202.47 204.592 202.424 204.592 202.24V201.026C204.592 200.92 204.642 200.792 204.724 200.696C204.751 200.662 204.779 200.628 204.805 200.594C204.882 200.493 204.981 200.437 205.059 200.443L205.978 200.521C206.116 200.534 206.144 200.736 206.031 200.929ZM203.622 203.072C203.186 203.191 202.798 203.152 202.491 202.974C202.379 202.909 202.407 202.676 202.544 202.505L203.463 201.366C203.541 201.268 203.64 201.211 203.716 201.223C203.743 201.228 203.77 201.23 203.798 201.23C203.88 201.232 203.929 201.303 203.929 201.409V202.623C203.929 202.807 203.777 203.029 203.622 203.072Z" fill="black"/>
<path d="M201.488 201.72C201.488 203.596 202.814 204.352 204.449 203.408C206.084 202.464 207.409 200.177 207.409 198.301C207.409 196.425 206.083 195.669 204.449 196.613C202.813 197.557 201.488 199.844 201.488 201.72ZM203.442 200.537C203.442 200.555 203.442 200.574 203.442 200.592C203.442 200.611 203.442 200.628 203.442 200.646C203.447 200.748 203.397 200.875 203.318 200.973L202.4 202.112C202.262 202.282 202.084 202.304 202.042 202.153C201.985 201.946 201.955 201.711 201.955 201.45C201.955 201.19 201.986 200.92 202.042 200.648C202.084 200.448 202.262 200.264 202.4 200.276L203.318 200.354C203.397 200.361 203.447 200.429 203.442 200.537ZM202.678 199.018C202.986 198.484 203.375 197.997 203.809 197.614C203.964 197.477 204.117 197.523 204.117 197.707V198.921C204.117 199.027 204.068 199.155 203.986 199.252C203.958 199.285 203.93 199.319 203.904 199.354C203.828 199.454 203.729 199.51 203.65 199.504L202.732 199.426C202.594 199.413 202.566 199.212 202.678 199.018ZM205.088 196.875C205.523 196.756 205.911 196.795 206.219 196.973C206.33 197.038 206.303 197.271 206.165 197.443L205.247 198.581C205.168 198.679 205.069 198.736 204.993 198.724C204.967 198.719 204.939 198.717 204.911 198.717C204.829 198.715 204.78 198.644 204.78 198.538V197.324C204.781 197.14 204.933 196.918 205.088 196.875ZM206.855 197.869C206.912 198.075 206.942 198.31 206.942 198.571C206.942 198.832 206.912 199.101 206.855 199.374C206.814 199.573 206.635 199.757 206.498 199.746L205.58 199.668C205.501 199.661 205.451 199.592 205.455 199.485C205.456 199.466 205.456 199.448 205.456 199.429C205.456 199.411 205.455 199.393 205.455 199.375C205.451 199.273 205.501 199.147 205.58 199.049L206.498 197.91C206.635 197.739 206.814 197.717 206.855 197.869ZM206.219 201.004C205.911 201.537 205.522 202.025 205.088 202.407C204.933 202.544 204.78 202.499 204.78 202.314V201.1C204.78 200.994 204.829 200.866 204.911 200.77C204.939 200.737 204.967 200.703 204.993 200.668C205.069 200.568 205.168 200.511 205.247 200.517L206.165 200.595C206.303 200.608 206.331 200.809 206.219 201.004ZM203.809 203.145C203.374 203.264 202.986 203.226 202.678 203.047C202.566 202.982 202.594 202.749 202.732 202.578L203.65 201.44C203.729 201.342 203.828 201.285 203.904 201.297C203.93 201.301 203.958 201.304 203.986 201.304C204.068 201.305 204.117 201.376 204.117 201.483V202.697C204.117 202.881 203.965 203.103 203.809 203.145Z" fill="white"/>
<path d="M179.436 188.503L194.256 165.585C194.471 165.255 194.76 164.981 195.101 164.784L234.62 142.031C235.372 141.599 236.295 141.588 237.056 142.005L248.2 148.106C248.712 148.386 249.109 148.837 249.322 149.38L252.726 156.629C252.834 156.904 252.892 157.196 252.897 157.49L253.154 170.855C253.172 171.768 252.688 172.618 251.893 173.068L244.921 177.019C244.985 176.641 245.021 176.266 245.021 175.903C245.021 173.145 243.073 172.035 240.671 173.422C238.268 174.809 236.32 178.17 236.32 180.926C236.32 181.257 236.349 181.564 236.403 181.846L208.922 197.348C208.939 197.16 208.949 196.973 208.949 196.79C208.949 194.032 207.001 192.921 204.598 194.309C202.196 195.697 200.248 199.056 200.248 201.813C200.248 201.965 200.255 202.11 200.266 202.252L198.638 203.175C197.92 203.581 197.048 203.606 196.308 203.241L180.421 195.393C179.572 194.974 179.035 194.108 179.035 193.161V189.857C179.034 189.377 179.173 188.907 179.436 188.503Z" fill="#FFBE2E"/>
<path d="M197.413 196.408L199.583 189.763L208.547 172.769C208.886 172.073 209.427 171.495 210.1 171.111L248.961 148.753C249.11 148.942 249.233 149.152 249.322 149.38L252.726 156.629C252.835 156.904 252.892 157.195 252.898 157.49L253.155 170.855C253.173 171.768 252.689 172.618 251.894 173.068L244.921 177.019C244.985 176.641 245.022 176.266 245.022 175.903C245.022 173.145 243.074 172.035 240.671 173.422C238.269 174.809 236.321 178.17 236.321 180.926C236.321 181.257 236.349 181.564 236.403 181.846L208.922 197.348C208.939 197.16 208.949 196.973 208.949 196.79C208.949 194.032 207.001 192.921 204.599 194.309C202.196 195.697 200.248 199.056 200.248 201.813C200.248 201.965 200.255 202.11 200.267 202.252L198.638 203.175C198.128 203.464 197.54 203.556 196.977 203.456V198.259C196.975 197.618 197.125 196.983 197.413 196.408Z" fill="#FFBE2E"/>
<path d="M196.914 196.352L199.084 189.708L208.049 172.714C208.388 172.018 208.929 171.44 209.602 171.055L248.462 148.697C248.595 148.866 248.379 148.977 248.465 149.176L209.991 171.311C209.319 171.695 208.778 172.273 208.438 172.969L199.474 189.963L197.304 196.607C197.016 197.183 196.866 197.818 196.866 198.462V203.349C196.628 203.375 196.714 203.445 196.477 203.403V198.207C196.477 197.563 196.626 196.928 196.914 196.352Z" fill="white"/>
<path d="M202.585 179.186L198.797 177.813C196.325 176.917 193.997 175.664 191.888 174.093L190.886 173.347C190.443 173.017 189.815 173.127 189.51 173.586L184.294 181.44C184 181.882 184.119 182.477 184.559 182.772L187.219 184.555C189.279 185.935 191.501 187.056 193.835 187.893L198.001 189.386C198.468 189.553 198.986 189.338 199.197 188.889L203.128 180.499C203.368 179.986 203.117 179.379 202.585 179.186Z" fill="#090909"/>
<path d="M202.046 179.387L198.437 178.078C196.081 177.225 193.863 176.03 191.854 174.534L190.899 173.823C190.477 173.509 189.879 173.613 189.588 174.05L184.618 181.534C184.339 181.955 184.452 182.522 184.871 182.803L187.405 184.501C189.368 185.816 191.485 186.884 193.708 187.682L197.679 189.104C198.124 189.264 198.617 189.059 198.818 188.63L202.564 180.636C202.792 180.149 202.553 179.57 202.046 179.387Z" fill="#2B2B2B"/>
<path d="M210.914 177.019L210.693 184.391C210.687 184.577 210.586 184.746 210.424 184.839L201.566 189.91V188.66L206.088 178.734L210.123 176.533C210.485 176.336 210.926 176.606 210.914 177.019Z" fill="black"/>
<path d="M210.443 176.823L210.219 184.293L203.781 188.018L203.956 184.322L206.229 179.121L210.443 176.823Z" fill="#2B2B2B"/>
<path d="M200.664 199.176L197.424 200.912C196.24 201.481 194.872 201.526 193.653 201.038L191.188 200.051C187.348 198.514 183.793 196.124 180.444 193.956L178.885 192.705L178.387 192.739L178.458 196.046L178.956 196.537C183.338 200.019 188.321 202.665 193.66 204.347C194.877 204.731 196.199 204.6 197.318 203.987L200.443 202.154L200.664 199.176Z" fill="#CB9114"/>
<path d="M197.662 197.641C196.819 198.157 195.773 198.214 194.878 197.793C194.114 197.432 193.209 197.838 192.968 198.648L192.531 200.12L194.795 201.014C195.55 201.313 196.397 201.285 197.131 200.936L197.762 200.637L197.662 197.641Z" fill="#B2841F"/>
<path d="M197.663 197.641C197.563 197.702 197.453 197.735 197.348 197.783L197.431 200.23L196.798 200.53C196.064 200.878 195.218 200.906 194.462 200.608L192.605 199.874L192.531 200.12L194.795 201.014C195.55 201.313 196.397 201.284 197.131 200.936L197.762 200.637L197.663 197.641Z" fill="#B2841F"/>
<path d="M196.665 198.024C196.068 198.134 195.442 198.059 194.878 197.793C194.114 197.433 193.209 197.839 192.968 198.648L192.531 200.12L195.15 199.998C197.714 199.464 197.013 197.959 196.665 198.024Z" fill="#B2841F"/>
<path d="M180.553 191.725L180.754 193.873C180.754 193.873 178.915 192.733 178.805 192.292C178.695 191.851 178.877 189.146 178.877 189.146L179.408 189.789C180.06 190.23 180.48 190.941 180.553 191.725Z" fill="#B2841F"/>
<path d="M180.551 191.725L180.751 193.873C180.751 193.873 179.294 192.387 179.184 191.947C179.073 191.505 178.875 189.146 178.875 189.146L179.405 189.789C180.057 190.23 180.477 190.941 180.551 191.725Z" fill="#B2841F"/>
<path d="M184.293 181.44L184.817 180.652C184.858 180.946 185.016 181.223 185.282 181.403L188.273 183.407C190.589 184.959 193.087 186.22 195.711 187.16L199.389 188.478L199.197 188.888C198.986 189.337 198.468 189.553 198.001 189.385L193.834 187.892C191.5 187.055 189.278 185.934 187.218 184.554L184.559 182.771C184.119 182.477 184.001 181.882 184.293 181.44Z" fill="#2B2B2B"/>
<path opacity="0.5" d="M185.617 180.035L189.592 174.05C189.883 173.613 190.481 173.509 190.902 173.823L191.857 174.534C193.867 176.031 196.084 177.225 198.44 178.078L202.049 179.387C202.515 179.556 202.75 180.06 202.606 180.52C200.388 181.113 197.74 181.459 194.894 181.459C191.343 181.459 188.1 180.921 185.617 180.035Z" fill="black"/>
<path opacity="0.7" d="M207.67 171.314L196.145 164.752L235.628 142.198L247.153 148.649L207.67 171.314Z" fill="#FFF7E4"/>
<path d="M207.054 187.121L206.807 190.045C206.77 190.492 206.304 190.77 205.893 190.591L202.714 189.632C202.443 189.514 202.285 189.229 202.327 188.938L203.375 186.201C203.434 185.799 203.839 185.547 204.226 185.672L206.604 186.443C206.893 186.536 207.08 186.817 207.054 187.121Z" fill="#FFE6AD"/>
<path opacity="0.7" d="M206.192 190.399L206.439 187.475C206.465 187.172 206.278 186.891 205.988 186.797L203.61 186.026C203.556 186.008 203.5 185.999 203.445 185.996C203.587 185.721 203.911 185.569 204.226 185.671L206.604 186.442C206.894 186.537 207.08 186.817 207.055 187.121L206.808 190.045C206.777 190.411 206.459 190.659 206.12 190.64C206.156 190.568 206.184 190.488 206.192 190.399Z" fill="#FFBE2E"/>
<path opacity="0.3" d="M207.457 193.892L237.636 176.588C236.823 177.964 236.317 179.523 236.317 180.926C236.317 181.258 236.346 181.564 236.4 181.846L208.919 197.348C208.936 197.16 208.946 196.973 208.946 196.79C208.945 195.292 208.369 194.281 207.457 193.892Z" fill="#72B5E8"/>
<path opacity="0.3" d="M245.02 175.904C245.02 174.507 244.52 173.534 243.715 173.093L253.093 167.698L253.154 170.855C253.172 171.768 252.688 172.618 251.893 173.068L244.92 177.019C244.984 176.641 245.02 176.267 245.02 175.904Z" fill="#72B5E8"/>
<path d="M237.31 177.22C237.416 177.008 237.515 176.794 237.636 176.589L207.457 193.892C207.594 193.951 207.722 194.028 207.843 194.115L237.31 177.22Z" fill="#C49E49"/>
<path d="M253.093 168.142L253.146 170.919C253.146 170.897 253.154 170.877 253.154 170.856L253.093 167.699L243.715 173.094C243.835 173.159 243.934 173.261 244.041 173.35L253.093 168.142Z" fill="#C49E49"/>
<path d="M200.584 199.507L197.343 201.243C196.16 201.812 194.792 201.857 193.573 201.369L191.108 200.382C187.268 198.845 183.653 196.794 180.363 194.287L178.379 192.684V195.657C178.379 196.113 178.587 196.544 178.942 196.83L179.205 197.04C183.849 200.101 188.151 202.651 193.579 204.679C194.797 205.062 196.118 204.932 197.237 204.319L200.362 202.485L200.584 199.507Z" fill="#EDAA17"/>
<path d="M193.379 198.715L194.163 200.374C194.163 200.374 196.551 198.897 196.314 198.387C196.076 197.877 193.379 198.715 193.379 198.715Z" fill="#FFCC00"/>
<path d="M194.417 199.892C194.417 200.311 194.122 200.479 193.758 200.268C193.393 200.057 193.098 199.548 193.098 199.131C193.098 198.712 193.393 198.544 193.758 198.755C194.122 198.965 194.417 199.475 194.417 199.892Z" fill="#FFDE17"/>
<path d="M195.004 199.046L195.627 200.365C195.627 200.365 197.525 199.191 197.337 198.786C197.149 198.38 195.004 199.046 195.004 199.046Z" fill="#FFCC00"/>
<path d="M195.831 199.983C195.831 200.315 195.596 200.449 195.306 200.282C195.017 200.115 194.781 199.709 194.781 199.377C194.781 199.044 195.016 198.911 195.306 199.077C195.596 199.245 195.831 199.65 195.831 199.983Z" fill="#FFDE17"/>
<path d="M179.238 191.45L179.774 192.583C179.774 192.583 180.687 191.889 180.525 191.541C180.363 191.192 179.238 191.45 179.238 191.45Z" fill="#FFCC00"/>
<path d="M179.944 192.255C179.944 192.54 179.743 192.655 179.494 192.512C179.244 192.368 179.043 192.02 179.043 191.734C179.043 191.449 179.244 191.334 179.494 191.477C179.743 191.621 179.944 191.969 179.944 192.255Z" fill="#FFDE17"/>
<path d="M179.016 190.516L179.406 191.342C179.406 191.342 180.073 190.835 179.955 190.581C179.837 190.327 179.016 190.516 179.016 190.516Z" fill="#FFCC00"/>
<path d="M179.536 191.102C179.536 191.311 179.389 191.395 179.208 191.29C179.026 191.185 178.879 190.931 178.879 190.723C178.879 190.514 179.026 190.43 179.208 190.535C179.389 190.64 179.536 190.894 179.536 191.102Z" fill="#FFDE17"/>
<path d="M196.183 198.105C196.605 198.085 197.013 197.98 197.386 197.799L197.473 200.517L196.946 200.767C196.624 200.92 196.278 201.007 195.918 201.025L196.183 198.105Z" fill="#FFBE2E"/>
<path d="M192.226 197.262L191.907 198.112C191.651 198.795 190.861 199.107 190.207 198.784C189.031 198.202 187.214 197.274 185.697 196.373C184.006 195.37 182.615 194.461 181.905 193.987C181.583 193.773 181.383 193.42 181.36 193.034L181.27 191.472C181.254 191.187 181.569 191.004 181.807 191.162C182.797 191.82 184.885 193.185 186.662 194.194C188.645 195.321 191.18 196.447 192.04 196.821C192.21 196.895 192.29 197.088 192.226 197.262Z" fill="#2B2B2B"/>
<path d="M181.585 191.109C181.557 191.161 181.542 191.222 181.546 191.289L181.636 192.851C181.658 193.237 181.859 193.59 182.181 193.804C182.89 194.277 184.282 195.186 185.973 196.19C187.49 197.091 189.307 198.018 190.483 198.6C190.84 198.777 191.239 198.763 191.567 198.603C191.205 198.922 190.673 199.015 190.207 198.785C189.031 198.203 187.214 197.274 185.697 196.374C184.006 195.37 182.615 194.462 181.905 193.988C181.584 193.774 181.383 193.421 181.36 193.035L181.27 191.473C181.259 191.272 181.411 191.125 181.585 191.109Z" fill="black"/>
<path opacity="0.7" d="M183.377 183.3C183.377 183.3 180.361 187.717 180.582 188.673C180.803 189.628 185.506 192.577 188.006 193.716C190.505 194.856 195.064 196.929 196.129 196.193C197.195 195.458 198.113 190.13 198.113 190.13C198.113 190.13 193.767 188.995 189.43 187.01C185.091 185.026 183.377 183.3 183.377 183.3Z" fill="#F0F8FF"/>
<path d="M184.665 184.391L184.692 184.35C184.811 184.17 185.055 184.159 185.214 184.304C185.238 184.327 185.265 184.347 185.293 184.366L187.195 185.641C188.667 186.628 190.256 187.429 191.924 188.028L193.991 188.768C194.137 188.821 194.206 188.987 194.14 189.127C194.006 189.412 193.677 189.55 193.38 189.443L190.73 188.494C189.246 187.962 187.833 187.249 186.523 186.371L184.832 185.238C184.554 185.05 184.479 184.672 184.665 184.391Z" fill="#272727"/>
<path d="M253.405 167.977L251.625 168.908V173.4C252.777 172.885 253.505 171.728 253.472 170.468L253.405 167.977Z" fill="#C49E49"/>
<path opacity="0.5" d="M206.832 176.398L250.065 151.528L250.23 151.815L221.969 168.072V185.38L221.638 185.557V168.262L211.933 173.846V191.225L211.602 191.403V174.036L206.997 176.685L206.832 176.398Z" fill="#72B5E8"/>
<path opacity="0.7" d="M208.625 187.978C208.625 188.531 209.016 188.754 209.497 188.475C209.979 188.197 210.369 187.524 210.369 186.971C210.369 186.418 209.979 186.195 209.497 186.474C209.016 186.752 208.625 187.426 208.625 187.978Z" fill="#AF7F14"/>
<path d="M208.638 187.94C208.448 188.325 208.794 188.387 209.411 188.078C210.027 187.768 210.682 187.205 210.872 186.82C211.061 186.435 210.716 186.373 210.099 186.682C209.482 186.992 208.829 187.555 208.638 187.94Z" fill="#AF7F14"/>
<path opacity="0.7" d="M212.926 185.66C212.926 186.212 213.316 186.435 213.798 186.157C214.279 185.879 214.67 185.205 214.67 184.653C214.67 184.1 214.279 183.877 213.798 184.156C213.316 184.433 212.926 185.106 212.926 185.66Z" fill="#8D6408"/>
<path d="M212.939 185.621C212.749 186.006 213.095 186.068 213.711 185.759C214.328 185.449 214.982 184.886 215.172 184.501C215.362 184.115 215.016 184.054 214.4 184.363C213.783 184.673 213.129 185.236 212.939 185.621Z" fill="#8D6408"/>
<path d="M208.638 187.792C208.448 188.177 208.794 188.239 209.411 187.93C210.027 187.62 210.682 187.057 210.872 186.672C211.061 186.286 210.716 186.225 210.099 186.534C209.482 186.844 208.829 187.407 208.638 187.792Z" fill="#473815"/>
<path d="M212.939 185.474C212.749 185.859 213.095 185.921 213.711 185.611C214.328 185.302 214.982 184.738 215.172 184.353C215.362 183.968 215.016 183.906 214.4 184.216C213.783 184.525 213.129 185.088 212.939 185.474Z" fill="#473815"/>
<path d="M248.801 163.236V164.119L247.129 165.112V164.211L248.801 163.236Z" fill="black"/>
<path d="M246.24 164.685V165.567L244.566 166.56V165.659L246.24 164.685Z" fill="black"/>
<path d="M243.68 166.133V167.015L242.008 168.007V167.107L243.68 166.133Z" fill="black"/>
<path d="M241.119 167.581V168.463L239.445 169.456V168.555L241.119 167.581Z" fill="black"/>
<path d="M238.559 169.029V169.911L236.887 170.904V170.003L238.559 169.029Z" fill="black"/>
<path d="M235.997 170.477V171.359L234.324 172.352V171.451L235.997 170.477Z" fill="black"/>
<path d="M233.434 171.925V172.807L231.762 173.8V172.899L233.434 171.925Z" fill="black"/>
<path d="M230.872 173.373V174.255L229.199 175.248V174.347L230.872 173.373Z" fill="black"/>
<path d="M228.309 174.821V175.704L226.637 176.696V175.796L228.309 174.821Z" fill="black"/>
<path d="M225.751 176.269V177.152L224.078 178.144V177.243L225.751 176.269Z" fill="black"/>
<path d="M223.77 168.894L225.312 168.004C225.814 167.713 226.191 167.651 226.442 167.815C226.693 167.98 226.819 168.36 226.819 168.957V172.688C226.819 173.286 226.693 173.811 226.442 174.265C226.191 174.719 225.815 175.091 225.312 175.381L223.77 176.272V168.894ZM225.295 174.338C225.46 174.242 225.587 174.113 225.676 173.949C225.765 173.785 225.809 173.577 225.809 173.323V169.488C225.809 169.235 225.765 169.078 225.676 169.016C225.587 168.955 225.46 168.972 225.295 169.068L224.78 169.365V174.635L225.295 174.338Z" fill="black"/>
<path d="M227.496 166.742L230.251 165.151V166.204L228.506 167.212V169.162L229.893 168.361V169.415L228.506 170.216V172.482L230.251 171.475V172.529L227.496 174.12V166.742Z" fill="black"/>
<path d="M230.832 164.817L231.842 164.233V170.557L233.505 169.597V170.651L230.832 172.194V164.817Z" fill="black"/>
<path d="M233.992 162.993L235.002 162.41V169.787L233.992 170.371V162.993Z" fill="black"/>
<path d="M235.488 162.129L236.508 161.54L237.169 166.881L237.188 166.87L237.849 160.765L238.777 160.229L237.804 168.169L236.463 168.943L235.488 162.129Z" fill="black"/>
<path d="M239.262 159.949L242.017 158.359V159.413L240.272 160.42V162.369L241.659 161.569V162.623L240.272 163.423V165.689L242.017 164.682V165.736L239.262 167.327V159.949Z" fill="black"/>
<path d="M242.594 158.025L244.091 157.16C244.611 156.86 244.991 156.78 245.23 156.919C245.469 157.058 245.588 157.416 245.588 157.992V158.445C245.588 159.211 245.368 159.823 244.927 160.281V160.302C245.172 160.245 245.345 160.318 245.446 160.519C245.547 160.72 245.597 161.039 245.597 161.474V162.771C245.597 162.982 245.603 163.149 245.615 163.272C245.628 163.395 245.658 163.505 245.707 163.604L244.678 164.198C244.641 164.1 244.617 164.001 244.605 163.903C244.593 163.805 244.586 163.618 244.586 163.344V161.995C244.586 161.658 244.539 161.45 244.444 161.372C244.35 161.293 244.186 161.321 243.953 161.455L243.604 161.657V164.819L242.594 165.402V158.025ZM243.971 160.391C244.174 160.274 244.325 160.127 244.426 159.949C244.527 159.772 244.577 159.543 244.577 159.261V158.692C244.577 158.425 244.536 158.256 244.453 158.184C244.37 158.112 244.24 158.128 244.062 158.231L243.603 158.496V160.604L243.971 160.391Z" fill="black"/>
<path d="M247.077 159.674L245.855 156.142L246.93 155.521L247.619 157.832L247.638 157.821L248.326 154.715L249.308 154.148L248.087 159.089V162.23L247.076 162.813L247.077 159.674Z" fill="black"/>
<path d="M213.302 183.319C212.963 183.319 212.688 183.043 212.688 182.705V176.192C212.688 175.627 212.992 175.1 213.482 174.818L219.876 171.146C219.97 171.092 220.076 171.064 220.182 171.064C220.521 171.064 220.797 171.339 220.797 171.678V178.19C220.797 178.756 220.493 179.283 220.002 179.565L213.608 183.236C213.513 183.29 213.408 183.319 213.302 183.319ZM220.182 171.404C220.135 171.404 220.089 171.417 220.046 171.441L213.652 175.113C213.267 175.334 213.028 175.748 213.028 176.192V182.704C213.028 182.934 213.276 183.033 213.437 182.94L219.831 179.269C220.216 179.047 220.456 178.634 220.456 178.19V171.677C220.456 171.509 220.314 171.404 220.182 171.404Z" fill="#C49E49"/>
<path opacity="0.7" d="M213.303 183.319C213.198 183.319 213.092 183.291 212.996 183.236L213.167 182.941C213.252 182.99 213.355 182.99 213.44 182.941L219.834 179.269C220.219 179.048 220.458 178.634 220.458 178.19V171.678C220.458 171.542 220.369 171.457 220.286 171.424L220.412 171.108C220.647 171.202 220.799 171.426 220.799 171.678V178.19C220.799 178.756 220.495 179.283 220.005 179.565L213.61 183.236C213.514 183.292 213.409 183.319 213.303 183.319Z" fill="#C49E49"/>
<path d="M111.047 190.587L114.754 193.195L117.432 189.35L111.047 190.587Z" fill="#FFBE2E"/>
<path d="M96.4816 96.4522C91.9959 93.8621 87.9765 93.7849 85.1942 95.7252L81.9705 97.2294L82.3664 99.2985C81.6733 100.895 81.2812 102.839 81.2812 105.119C81.2812 111.717 84.8091 122.124 88.465 131.145L92.2769 151.048L96.4808 148.946C96.4808 148.946 111.68 136.366 111.68 122.669C111.681 113.036 104.876 101.298 96.4816 96.4522Z" fill="#3C2C0B"/>
<path d="M107.481 124.771C107.481 138.468 92.2816 151.048 92.2816 151.048C92.2816 151.048 77.082 120.917 77.082 107.22C77.082 97.5874 83.8869 93.7077 92.2816 98.5537C100.676 103.401 107.481 115.139 107.481 124.771Z" fill="#FFBE2E"/>
<path opacity="0.5" d="M93.2428 98.0282C88.8583 95.4968 84.9191 95.3655 82.1445 97.1715C84.835 95.9552 88.3798 96.3025 92.2796 98.5538C100.674 103.401 107.479 115.138 107.479 124.771C107.479 136.507 96.3269 147.416 93.1324 150.3C93.198 150.433 93.2436 150.522 93.2436 150.522C93.2436 150.522 108.443 137.942 108.443 124.245C108.442 114.613 101.638 102.875 93.2428 98.0282Z" fill="white"/>
<path d="M96.2169 122.726C98.3644 121.471 98.3423 117.437 96.1676 113.717C93.9929 109.997 90.4891 108 88.3415 109.255C86.194 110.511 86.2161 114.544 88.3908 118.264C90.5655 121.984 94.0693 123.981 96.2169 122.726Z" fill="white"/>
<path d="M93.9878 121.558C90.9315 119.793 88.4541 115.52 88.4541 112.012C88.4541 110.624 88.8469 109.57 89.506 108.905C87.8575 109.052 86.7461 110.455 86.7461 112.8C86.7461 116.307 89.2235 120.581 92.2798 122.346C94.1259 123.411 95.7559 123.311 96.7615 122.298C95.945 122.371 94.9996 122.142 93.9878 121.558Z" fill="#3C2C0B"/>
<path d="M71.596 111.159C71.4123 111.159 71.2502 111.028 71.2162 110.841C71.1699 110.584 71.1267 110.327 71.0866 110.071C71.0542 109.86 71.1985 109.664 71.4092 109.631C71.6199 109.6 71.8174 109.744 71.8499 109.954C71.8885 110.204 71.9309 110.455 71.9764 110.706C72.0143 110.915 71.8746 111.116 71.6646 111.154C71.6415 111.157 71.6191 111.159 71.596 111.159Z" fill="#FFBE2E"/>
<path d="M71.1858 108.005C70.9859 108.005 70.8169 107.851 70.8015 107.648C70.7606 107.101 70.7351 106.559 70.7266 106.022C70.7235 105.809 70.8933 105.633 71.1063 105.63C71.2908 105.609 71.4945 105.796 71.4984 106.009C71.5069 106.532 71.5308 107.059 71.5709 107.591C71.5864 107.803 71.4274 107.988 71.2151 108.004C71.2051 108.004 71.1959 108.005 71.1858 108.005ZM71.1951 103.995C71.1843 103.995 71.1727 103.994 71.1619 103.993C70.9496 103.975 70.7922 103.788 70.8107 103.576C70.8586 103.02 70.9273 102.474 71.0152 101.952C71.0507 101.742 71.2452 101.6 71.4598 101.636C71.6697 101.671 71.8117 101.87 71.7762 102.08C71.6921 102.581 71.6257 103.107 71.5794 103.641C71.5617 103.844 71.3927 103.995 71.1951 103.995ZM71.9576 100.063C71.9182 100.063 71.8789 100.056 71.8395 100.044C71.6365 99.9793 71.5254 99.7616 71.5902 99.5587C71.7623 99.0246 71.9615 98.5067 72.1837 98.0197C72.2725 97.826 72.5009 97.7396 72.6954 97.8283C72.8891 97.9171 72.9748 98.1455 72.8868 98.34C72.6769 98.7992 72.4878 99.2885 72.3257 99.7948C72.2725 99.9592 72.1212 100.063 71.9576 100.063ZM73.7481 96.4908C73.6679 96.4908 73.5876 96.4661 73.5189 96.4152C73.3476 96.2878 73.3121 96.047 73.4386 95.8749C73.7751 95.4219 74.1433 94.9997 74.5346 94.62C74.6874 94.4718 74.9321 94.4749 75.0802 94.6285C75.2284 94.7821 75.2253 95.026 75.0717 95.1741C74.7105 95.5245 74.3694 95.9143 74.0584 96.3341C73.9828 96.4375 73.8662 96.4908 73.7481 96.4908ZM76.7311 93.8536C76.5953 93.8536 76.4633 93.7818 76.393 93.6545C76.2904 93.4677 76.3583 93.2331 76.5443 93.1297C77.0282 92.8626 77.543 92.6365 78.074 92.4559C78.277 92.3888 78.4946 92.496 78.5633 92.6975C78.6312 92.8997 78.5232 93.1181 78.3217 93.1868C77.834 93.3519 77.3609 93.5596 76.9171 93.805C76.8584 93.8382 76.7936 93.8536 76.7311 93.8536Z" fill="#FFBE2E"/>
<path d="M80.5731 92.7245C80.374 92.7245 80.205 92.5717 80.1887 92.3703C80.1718 92.158 80.33 91.9712 80.5422 91.9535C80.8031 91.9327 81.0693 91.9195 81.3379 91.9164C81.5347 91.9126 81.7254 92.0847 81.7285 92.2977C81.7308 92.5107 81.561 92.6859 81.3472 92.6882C81.0963 92.6913 80.8486 92.7029 80.6055 92.723C80.5939 92.7245 80.5831 92.7245 80.5731 92.7245Z" fill="#FFBE2E"/>
<path d="M68.3857 96.3665C68.337 96.3665 68.2869 96.3573 68.239 96.3372C68.0422 96.2562 67.948 96.0308 68.0291 95.8332C68.1302 95.5878 68.2359 95.3462 68.3447 95.1101C68.4343 94.9164 68.6635 94.8315 68.8572 94.9218C69.0509 95.0113 69.1351 95.2405 69.0455 95.4342C68.9406 95.6604 68.8402 95.8911 68.743 96.1273C68.6813 96.277 68.5369 96.3665 68.3857 96.3665Z" fill="#FFBE2E"/>
<path d="M69.5691 94.0233C69.5004 94.0233 69.4309 94.0048 69.3684 93.967C69.1863 93.8551 69.1292 93.6182 69.2403 93.436C69.4634 93.0717 69.7003 92.7175 69.9457 92.3841C70.0715 92.2127 70.3139 92.1757 70.4852 92.3015C70.6573 92.4281 70.6944 92.6696 70.5678 92.841C70.3355 93.1574 70.1109 93.4931 69.8994 93.8381C69.8253 93.9577 69.6988 94.0233 69.5691 94.0233ZM71.4492 91.5853C71.3519 91.5853 71.2554 91.549 71.1806 91.4764C71.0278 91.3283 71.0239 91.0836 71.1721 90.9308C71.4685 90.6259 71.781 90.3342 72.1013 90.0625C72.2642 89.9244 72.508 89.946 72.6454 90.1081C72.7828 90.2709 72.7627 90.514 72.5999 90.6522C72.2989 90.9069 72.0048 91.1816 71.7262 91.468C71.6506 91.5459 71.5495 91.5853 71.4492 91.5853Z" fill="#FFBE2E"/>
<path d="M73.8476 89.6589C73.7179 89.6589 73.5914 89.5933 73.518 89.4745C73.4061 89.2931 73.464 89.0554 73.6454 88.9435C73.8715 88.8046 74.1007 88.6741 74.3354 88.5506C74.5229 88.4495 74.7575 88.5229 74.8563 88.7112C74.9559 88.8995 74.8841 89.1326 74.6958 89.2321C74.4766 89.3479 74.2605 89.4714 74.049 89.601C73.9858 89.6404 73.9163 89.6589 73.8476 89.6589Z" fill="#FFBE2E"/>
<path d="M285.161 73.5024C284.948 73.5024 284.775 73.3295 284.775 73.1165V72.5353C284.775 72.3223 284.948 72.1494 285.161 72.1494C285.374 72.1494 285.547 72.3223 285.547 72.5353V73.1165C285.547 73.3303 285.374 73.5024 285.161 73.5024ZM285.161 70.6058C284.948 70.6058 284.775 70.433 284.775 70.22V68.6764C284.775 68.4634 284.948 68.2905 285.161 68.2905C285.374 68.2905 285.547 68.4634 285.547 68.6764V70.22C285.547 70.4337 285.374 70.6058 285.161 70.6058ZM285.116 66.7492C284.923 66.7492 284.757 66.6049 284.734 66.4089C284.677 65.9311 284.56 65.4604 284.386 65.0089C284.31 64.8097 284.409 64.5867 284.608 64.5103C284.807 64.4331 285.03 64.5327 285.106 64.731C285.303 65.2427 285.436 65.7768 285.5 66.3186C285.525 66.5301 285.374 66.7222 285.162 66.7469C285.147 66.7485 285.132 66.7492 285.116 66.7492ZM283.536 63.2986C283.431 63.2986 283.327 63.2561 283.251 63.1728C282.926 62.817 282.556 62.5021 282.152 62.2366C281.974 62.1201 281.924 61.8808 282.042 61.7025C282.158 61.5235 282.397 61.4749 282.576 61.5914C283.033 61.8916 283.452 62.249 283.821 62.6518C283.964 62.8093 283.953 63.0532 283.796 63.1975C283.722 63.2646 283.628 63.2986 283.536 63.2986ZM280.377 61.1098C280.309 61.1098 280.241 61.0928 280.179 61.0558L278.853 60.2662C278.67 60.1574 278.609 59.9205 278.718 59.7368C278.828 59.5523 279.066 59.4929 279.247 59.6025L280.574 60.392C280.757 60.5009 280.817 60.7378 280.708 60.9207C280.636 61.0427 280.508 61.1098 280.377 61.1098Z" fill="#FFBE2E"/>
</g>
<defs>
<linearGradient id="paint0_linear_7393_290877" x1="43.8559" y1="119.146" x2="288.099" y2="203.703" gradientUnits="userSpaceOnUse">
<stop stop-color="#FFBE2E" stop-opacity="0.75"/>
<stop offset="0.72593" stop-color="#FFF7E4" stop-opacity="0.5"/>
<stop offset="1" stop-color="#FFF7E4" stop-opacity="0"/>
</linearGradient>
<linearGradient id="paint1_linear_7393_290877" x1="279.785" y1="145.491" x2="256.943" y2="101.961" gradientUnits="userSpaceOnUse">
<stop stop-color="#AFB6E5"/>
<stop offset="0.1449" stop-color="#B6BCE8"/>
<stop offset="0.3485" stop-color="#C8CDF1"/>
<stop offset="0.5808" stop-color="#E5E9FF"/>
<stop offset="0.9546" stop-color="#F5F4FC"/>
<stop offset="1" stop-color="#F7F6FB"/>
</linearGradient>
<clipPath id="clip0_7393_290877">
<rect width="350" height="238" rx="12" fill="white"/>
</clipPath>
</defs>
</svg>
