<svg width="51" height="52" viewBox="0 0 51 52" fill="none" xmlns="http://www.w3.org/2000/svg">
<rect y="18" width="38" height="34" rx="4" fill="white"/>
<path d="M47.8 0H6.2C5.35131 0 4.53737 0.337142 3.93726 0.937258C3.33714 1.53737 3 2.35131 3 3.2L3 44.8C3 45.6487 3.33714 46.4626 3.93726 47.0627C4.53737 47.6629 5.35131 48 6.2 48H47.8C48.6487 48 49.4626 47.6629 50.0627 47.0627C50.6629 46.4626 51 45.6487 51 44.8V3.2C51 2.35131 50.6629 1.53737 50.0627 0.937258C49.4626 0.337142 48.6487 0 47.8 0ZM6.2 1.6H47.8C48.2243 1.6 48.6313 1.76857 48.9314 2.06863C49.2314 2.36869 49.4 2.77565 49.4 3.2V6.4H4.6V3.2C4.6 2.77565 4.76857 2.36869 5.06863 2.06863C5.36869 1.76857 5.77565 1.6 6.2 1.6ZM15.8 8V19.2C15.8 19.4122 15.7157 19.6157 15.5657 19.7657C15.4157 19.9157 15.2122 20 15 20H4.6V8H15.8ZM47.8 46.4H6.2C5.77565 46.4 5.36869 46.2314 5.06863 45.9314C4.76857 45.6313 4.6 45.2243 4.6 44.8V21.6H15C15.6365 21.6 16.247 21.3471 16.6971 20.8971C17.1471 20.447 17.4 19.8365 17.4 19.2V8H49.4V44.8C49.4 45.2243 49.2314 45.6313 48.9314 45.9314C48.6313 46.2314 48.2243 46.4 47.8 46.4Z" fill="#212121"/>
<path d="M23.8002 28.8003H7.8002C7.37585 28.8003 6.96888 28.9689 6.66882 29.2689C6.36877 29.569 6.2002 29.9759 6.2002 30.4003V43.2003C6.2002 43.6246 6.36877 44.0316 6.66882 44.3317C6.96888 44.6317 7.37585 44.8003 7.8002 44.8003H23.8002C24.2245 44.8003 24.6315 44.6317 24.9316 44.3317C25.2316 44.0316 25.4002 43.6246 25.4002 43.2003V30.4003C25.4002 29.9759 25.2316 29.569 24.9316 29.2689C24.6315 28.9689 24.2245 28.8003 23.8002 28.8003ZM7.8002 43.2003V30.4003H23.8002V43.2003H7.8002Z" fill="#212121"/>
<path d="M46.1996 28.8003H30.1996C29.7753 28.8003 29.3683 28.9689 29.0682 29.2689C28.7682 29.569 28.5996 29.9759 28.5996 30.4003V43.2003C28.5996 43.6246 28.7682 44.0316 29.0682 44.3317C29.3683 44.6317 29.7753 44.8003 30.1996 44.8003H46.1996C46.624 44.8003 47.0309 44.6317 47.331 44.3317C47.631 44.0316 47.7996 43.6246 47.7996 43.2003V30.4003C47.7996 29.9759 47.631 29.569 47.331 29.2689C47.0309 28.9689 46.624 28.8003 46.1996 28.8003ZM30.1996 43.2003V30.4003H46.1996V43.2003H30.1996Z" fill="#212121"/>
<path d="M46.2 10.3999H20.6C20.1757 10.3999 19.7687 10.5685 19.4686 10.8685C19.1686 11.1686 19 11.5756 19 11.9999V24.7999C19 25.2242 19.1686 25.6312 19.4686 25.9313C19.7687 26.2313 20.1757 26.3999 20.6 26.3999H46.2C46.6243 26.3999 47.0313 26.2313 47.3314 25.9313C47.6314 25.6312 47.8 25.2242 47.8 24.7999V11.9999C47.8 11.5756 47.6314 11.1686 47.3314 10.8685C47.0313 10.5685 46.6243 10.3999 46.2 10.3999ZM20.6 24.7999V11.9999H46.2V24.7999H20.6Z" fill="#212121"/>
<path d="M38.2004 32C37.251 32 36.323 32.2815 35.5337 32.8089C34.7443 33.3364 34.1291 34.086 33.7658 34.9631C33.4025 35.8402 33.3074 36.8053 33.4926 37.7364C33.6778 38.6675 34.135 39.5228 34.8063 40.1941C35.4776 40.8654 36.3328 41.3226 37.264 41.5078C38.1951 41.693 39.1602 41.5979 40.0373 41.2346C40.9144 40.8713 41.664 40.2561 42.1914 39.4667C42.7189 38.6774 43.0004 37.7494 43.0004 36.8C42.9991 35.5274 42.493 34.3072 41.5931 33.4073C40.6932 32.5074 39.473 32.0013 38.2004 32ZM41.2868 36H39.0004V33.7136C39.5505 33.8567 40.0525 34.144 40.4544 34.546C40.8564 34.9479 41.1437 35.4499 41.2868 36ZM38.2004 40C37.4225 40.001 36.6711 39.718 36.087 39.2042C35.503 38.6905 35.1266 37.9812 35.0284 37.2096C34.9302 36.4379 35.117 35.657 35.5537 35.0133C35.9904 34.3696 36.6471 33.9075 37.4004 33.7136V36.8C37.4004 37.0122 37.4847 37.2157 37.6347 37.3657C37.7847 37.5157 37.9882 37.6 38.2004 37.6H41.2868C41.11 38.2849 40.7112 38.8919 40.1527 39.3262C39.5943 39.7604 38.9078 39.9973 38.2004 40Z" fill="#212121"/>
<path d="M7.0002 4.8002H7.8002C8.01237 4.8002 8.21585 4.71591 8.36588 4.56588C8.51591 4.41585 8.6002 4.21237 8.6002 4.0002C8.6002 3.78802 8.51591 3.58454 8.36588 3.43451C8.21585 3.28448 8.01237 3.2002 7.8002 3.2002H7.0002C6.78802 3.2002 6.58454 3.28448 6.43451 3.43451C6.28448 3.58454 6.2002 3.78802 6.2002 4.0002C6.2002 4.21237 6.28448 4.41585 6.43451 4.56588C6.58454 4.71591 6.78802 4.8002 7.0002 4.8002Z" fill="#212121"/>
<path d="M11.0002 4.8002H11.8002C12.0124 4.8002 12.2159 4.71591 12.3659 4.56588C12.5159 4.41585 12.6002 4.21237 12.6002 4.0002C12.6002 3.78802 12.5159 3.58454 12.3659 3.43451C12.2159 3.28448 12.0124 3.2002 11.8002 3.2002H11.0002C10.788 3.2002 10.5845 3.28448 10.4345 3.43451C10.2845 3.58454 10.2002 3.78802 10.2002 4.0002C10.2002 4.21237 10.2845 4.41585 10.4345 4.56588C10.5845 4.71591 10.788 4.8002 11.0002 4.8002Z" fill="#212121"/>
<path d="M15.0002 4.8002H15.8002C16.0124 4.8002 16.2159 4.71591 16.3659 4.56588C16.5159 4.41585 16.6002 4.21237 16.6002 4.0002C16.6002 3.78802 16.5159 3.58454 16.3659 3.43451C16.2159 3.28448 16.0124 3.2002 15.8002 3.2002H15.0002C14.788 3.2002 14.5845 3.28448 14.4345 3.43451C14.2845 3.58454 14.2002 3.78802 14.2002 4.0002C14.2002 4.21237 14.2845 4.41585 14.4345 4.56588C14.5845 4.71591 14.788 4.8002 15.0002 4.8002Z" fill="#212121"/>
<path d="M39.0002 4.8002H47.0002C47.2124 4.8002 47.4159 4.71591 47.5659 4.56588C47.7159 4.41585 47.8002 4.21237 47.8002 4.0002C47.8002 3.78802 47.7159 3.58454 47.5659 3.43451C47.4159 3.28448 47.2124 3.2002 47.0002 3.2002H39.0002C38.788 3.2002 38.5845 3.28448 38.4345 3.43451C38.2845 3.58454 38.2002 3.78802 38.2002 4.0002C38.2002 4.21237 38.2845 4.41585 38.4345 4.56588C38.5845 4.71591 38.788 4.8002 39.0002 4.8002Z" fill="#212121"/>
<path d="M7.0002 18.4001H13.4002C13.6124 18.4001 13.8159 18.3158 13.9659 18.1658C14.1159 18.0158 14.2002 17.8123 14.2002 17.6001C14.2002 17.3879 14.1159 17.1844 13.9659 17.0344C13.8159 16.8844 13.6124 16.8001 13.4002 16.8001V16.0001C13.399 15.5025 13.2812 15.0121 13.0563 14.5682C12.8314 14.1243 12.5056 13.7393 12.105 13.4441C12.4243 13.0303 12.5983 12.5228 12.6002 12.0001C12.6002 11.3636 12.3473 10.7531 11.8973 10.303C11.4472 9.85295 10.8367 9.6001 10.2002 9.6001C9.56368 9.6001 8.95323 9.85295 8.50314 10.303C8.05305 10.7531 7.8002 11.3636 7.8002 12.0001C7.80293 12.5214 7.97692 13.0274 8.2954 13.4401C7.89429 13.7357 7.56815 14.1214 7.3432 14.566C7.11825 15.0106 7.00077 15.5018 7.0002 16.0001V16.8001C6.78802 16.8001 6.58454 16.8844 6.43451 17.0344C6.28448 17.1844 6.2002 17.3879 6.2002 17.6001C6.2002 17.8123 6.28448 18.0158 6.43451 18.1658C6.58454 18.3158 6.78802 18.4001 7.0002 18.4001ZM9.4002 12.0001C9.4002 11.8419 9.44711 11.6872 9.53502 11.5556C9.62292 11.4241 9.74787 11.3215 9.89405 11.261C10.0402 11.2004 10.2011 11.1846 10.3563 11.2155C10.5115 11.2463 10.654 11.3225 10.7659 11.4344C10.8778 11.5463 10.954 11.6888 10.9848 11.844C11.0157 11.9992 10.9998 12.1601 10.9393 12.3062C10.8787 12.4524 10.7762 12.5774 10.6447 12.6653C10.5131 12.7532 10.3584 12.8001 10.2002 12.8001C9.98802 12.8001 9.78454 12.7158 9.63451 12.5658C9.48448 12.4158 9.4002 12.2123 9.4002 12.0001ZM8.6002 16.0001C8.6002 15.5758 8.76877 15.1688 9.06882 14.8687C9.36888 14.5687 9.77585 14.4001 10.2002 14.4001C10.6245 14.4001 11.0315 14.5687 11.3316 14.8687C11.6316 15.1688 11.8002 15.5758 11.8002 16.0001V16.8001H8.6002V16.0001Z" fill="#212121"/>
<path d="M43.0001 13.6001H39.8001C39.5879 13.6001 39.3844 13.6844 39.2344 13.8344C39.0844 13.9844 39.0001 14.1879 39.0001 14.4001C39.0001 14.6123 39.0844 14.8158 39.2344 14.9658C39.3844 15.1158 39.5879 15.2001 39.8001 15.2001H41.0689L36.6001 19.6689L33.9657 17.0345C33.8156 16.8845 33.6122 16.8003 33.4001 16.8003C33.1879 16.8003 32.9845 16.8845 32.8345 17.0345L29.4001 20.4689L27.5657 18.6345C27.4156 18.4845 27.2122 18.4003 27.0001 18.4003C26.7879 18.4003 26.5845 18.4845 26.4345 18.6345L23.2345 21.8345C23.1581 21.9083 23.0971 21.9966 23.0552 22.0942C23.0133 22.1918 22.9912 22.2968 22.9903 22.403C22.9893 22.5092 23.0096 22.6145 23.0498 22.7129C23.09 22.8112 23.1494 22.9005 23.2245 22.9756C23.2997 23.0507 23.389 23.1101 23.4873 23.1504C23.5856 23.1906 23.691 23.2108 23.7972 23.2099C23.9034 23.209 24.0084 23.1869 24.106 23.145C24.2036 23.1031 24.2919 23.0421 24.3657 22.9657L27.0001 20.3313L28.8345 22.1657C28.9845 22.3157 29.1879 22.3999 29.4001 22.3999C29.6122 22.3999 29.8156 22.3157 29.9657 22.1657L33.4001 18.7313L36.0345 21.3657C36.1845 21.5157 36.3879 21.5999 36.6001 21.5999C36.8122 21.5999 37.0156 21.5157 37.1657 21.3657L42.2001 16.3313V17.6001C42.2001 17.8123 42.2844 18.0158 42.4344 18.1658C42.5844 18.3158 42.7879 18.4001 43.0001 18.4001C43.2122 18.4001 43.4157 18.3158 43.5658 18.1658C43.7158 18.0158 43.8001 17.8123 43.8001 17.6001V14.4001C43.8001 14.1879 43.7158 13.9844 43.5658 13.8344C43.4157 13.6844 43.2122 13.6001 43.0001 13.6001Z" fill="#212121"/>
<path d="M21.4004 40H20.6004V35.2C20.6004 34.9878 20.5161 34.7843 20.3661 34.6343C20.216 34.4843 20.0126 34.4 19.8004 34.4C19.5882 34.4 19.3847 34.4843 19.2347 34.6343C19.0847 34.7843 19.0004 34.9878 19.0004 35.2V40H17.4004V35.2C17.4004 34.9878 17.3161 34.7843 17.1661 34.6343C17.016 34.4843 16.8126 34.4 16.6004 34.4C16.3882 34.4 16.1847 34.4843 16.0347 34.6343C15.8847 34.7843 15.8004 34.9878 15.8004 35.2V40H14.2004V35.2C14.2004 34.9878 14.1161 34.7843 13.9661 34.6343C13.816 34.4843 13.6126 34.4 13.4004 34.4C13.1882 34.4 12.9847 34.4843 12.8347 34.6343C12.6847 34.7843 12.6004 34.9878 12.6004 35.2V40H11.0004V32.8C11.0004 32.5878 10.9161 32.3843 10.7661 32.2343C10.616 32.0843 10.4126 32 10.2004 32C9.98822 32 9.78473 32.0843 9.63471 32.2343C9.48468 32.3843 9.40039 32.5878 9.40039 32.8V40C9.40039 40.4243 9.56896 40.8313 9.86902 41.1314C10.1691 41.4314 10.576 41.6 11.0004 41.6H21.4004C21.6126 41.6 21.816 41.5157 21.9661 41.3657C22.1161 41.2157 22.2004 41.0122 22.2004 40.8C22.2004 40.5878 22.1161 40.3843 21.9661 40.2343C21.816 40.0843 21.6126 40 21.4004 40Z" fill="#212121"/>
</svg>
