<svg width="124" height="124" viewBox="0 0 124 124" fill="none" xmlns="http://www.w3.org/2000/svg">
<circle cx="62" cy="62" r="60" fill="white" stroke="#978050" stroke-width="4"/>
<rect x="49" y="87" width="44" height="30" rx="3" transform="rotate(-90 49 87)" fill="#FFBE2E"/>
<path fill-rule="evenodd" clip-rule="evenodd" d="M87.8987 45.2064C87.8578 45.2064 87.8166 45.2025 87.7744 45.1945C87.4316 45.126 87.2085 44.7936 87.2771 44.4506C87.8987 41.3152 86.644 38.3922 84.4227 37.7973C83.1881 37.4662 81.8057 37.8936 80.6278 38.9699C79.8671 39.6664 78.7191 39.6664 77.9567 38.9699C76.7805 37.8936 75.3977 37.4662 74.1631 37.7973C72.0016 38.3763 70.7533 41.1226 71.2599 44.1829C71.3166 44.5284 71.083 44.8542 70.7388 44.911C70.3936 44.969 70.0674 44.7355 70.0107 44.3899C69.3976 40.6834 71.0409 37.3225 73.8359 36.5746C75.4954 36.1287 77.3091 36.6616 78.8114 38.0347C79.0859 38.2867 79.5 38.2854 79.7743 38.0347C81.2756 36.6616 83.0904 36.1287 84.7499 36.5746C87.6625 37.3541 89.2821 40.8457 88.5183 44.696C88.4591 44.998 88.1951 45.2064 87.8987 45.2064Z" fill="black"/>
<path fill-rule="evenodd" clip-rule="evenodd" d="M79.3026 39.4897C78.9607 39.4897 78.6795 39.218 78.669 38.8751C78.6098 36.9373 79.0792 35.0168 80.025 33.3245C80.1965 33.0198 80.5817 32.9103 80.8863 33.0805C81.1925 33.2519 81.3005 33.6371 81.1303 33.9431C80.2968 35.4349 79.8825 37.1273 79.9353 38.8368C79.946 39.1863 79.6714 39.4792 79.3219 39.4897C79.3156 39.4897 79.3087 39.4897 79.3026 39.4897Z" fill="black"/>
<path fill-rule="evenodd" clip-rule="evenodd" d="M51.7487 89.7338H59.6516V68.2794C59.6516 66.3602 58.9231 64.7905 58.1119 63.2196L55.6996 58.5501L53.2884 63.2195C52.477 64.7905 51.7487 66.3602 51.7487 68.2794V89.7338ZM60.2843 91.0001H51.1159C50.7663 91.0001 50.4824 90.7165 50.4824 90.367L50.4826 68.2794C50.4826 66.0779 51.3135 64.2853 52.1629 62.6391L55.1374 56.8801C55.2461 56.6691 55.4632 56.5372 55.6993 56.5372C55.937 56.5372 56.1544 56.6691 56.2625 56.8801L59.2373 62.6391C60.0866 64.2853 60.9175 66.0779 60.9175 68.2794L60.9177 90.367C60.9177 90.7165 60.6338 91.0001 60.2843 91.0001Z" fill="black"/>
<path fill-rule="evenodd" clip-rule="evenodd" d="M51.1141 91.0002H34.6139C34.2643 91.0002 33.9805 90.7166 33.9805 90.367L33.9805 68.2794C33.9805 66.0779 34.8103 64.2854 35.661 62.6392L38.636 56.8801C38.744 56.6691 38.9613 56.5373 39.1974 56.5373L55.6977 56.5372C56.0485 56.5372 56.3306 56.8208 56.3306 57.1704C56.3311 57.5199 56.0483 57.8035 55.6975 57.8035H39.5839L36.7864 63.2196C35.975 64.7905 35.2468 66.3602 35.2468 68.2794L35.2473 89.7339H51.1141C51.4637 89.7339 51.7469 90.0161 51.7469 90.367C51.7469 90.7166 51.4633 91.0002 51.1141 91.0002Z" fill="black"/>
<path fill-rule="evenodd" clip-rule="evenodd" d="M51.1141 68.9126H34.6139C34.2643 68.9126 33.9805 68.6291 33.9805 68.2795C33.9805 67.9299 34.2641 67.6464 34.6136 67.6464H51.1141C51.4637 67.6464 51.7469 67.9299 51.7469 68.2795C51.7469 68.6291 51.4633 68.9126 51.1141 68.9126Z" fill="black"/>
<path fill-rule="evenodd" clip-rule="evenodd" d="M51.1141 86.742H34.6139C34.2643 86.742 33.9805 86.4597 33.9805 86.1089C33.9805 85.7593 34.2641 85.4757 34.6136 85.4757L51.1141 85.4757C51.4637 85.4757 51.7469 85.7593 51.7469 86.1089C51.7469 86.4597 51.4633 86.742 51.1141 86.742Z" fill="black"/>
<path fill-rule="evenodd" clip-rule="evenodd" d="M55.6979 57.8034C55.3483 57.8034 55.0645 57.5198 55.0645 57.1703L55.0646 53.8871H39.8311V57.1703C39.8311 57.5198 39.5472 57.8034 39.1976 57.8034C38.8481 57.8034 38.5645 57.5198 38.5645 57.1703L38.565 53.254C38.565 52.9044 38.848 52.6208 39.1976 52.6208H55.6979C56.0487 52.6208 56.3308 52.9045 56.3308 53.254L56.3313 57.1703C56.3313 57.5198 56.0485 57.8034 55.6979 57.8034Z" fill="black"/>
<path fill-rule="evenodd" clip-rule="evenodd" d="M89.3877 91.0001H60.2835C59.9345 91.0001 59.6504 90.7165 59.6504 90.367C59.6508 90.0161 59.934 89.7338 60.2835 89.7338H88.7543V44.8793L84.7471 46.7103C84.5809 46.7868 84.388 46.7868 84.2205 46.7103L79.5818 44.5892L74.9413 46.7103C74.7751 46.7868 74.5821 46.7868 74.4146 46.7103L69.776 44.5892L65.1355 46.7103C64.9681 46.7868 64.7762 46.7868 64.6088 46.7103L59.9684 44.5892L55.3296 46.7103C55.1622 46.7868 54.9704 46.7868 54.8029 46.7103L50.7959 44.8793V53.2541C50.7959 53.6036 50.512 53.8872 50.1624 53.8872C49.8129 53.8872 49.5293 53.6036 49.5293 53.2541L49.5298 43.8927C49.5298 43.6777 49.6388 43.4772 49.8208 43.3611C50.0017 43.2438 50.2298 43.2279 50.4263 43.3176L55.0654 45.4387L59.706 43.3176C59.8722 43.2411 60.0646 43.2412 60.2321 43.3176L64.8731 45.4387L69.5118 43.3176C69.6793 43.2411 69.8705 43.2412 70.038 43.3176L74.6789 45.4387L79.3177 43.3176C79.4851 43.2411 79.6776 43.2412 79.8439 43.3176L84.4848 45.4387L89.1236 43.3176C89.32 43.2279 89.5481 43.2438 89.7288 43.3611C89.9112 43.4772 90.0203 43.6777 90.0203 43.8928L90.0204 90.3671C90.0204 90.7166 89.7367 91.0001 89.3877 91.0001Z" fill="black"/>
<path fill-rule="evenodd" clip-rule="evenodd" d="M79.5828 91.0001C79.2332 91.0001 78.9492 90.7165 78.9492 90.367L78.9495 43.8927C78.9495 43.5431 79.2328 43.2595 79.5824 43.2595C79.9325 43.2595 80.2155 43.5431 80.2155 43.8927L80.2156 90.367C80.2156 90.7166 79.9319 91.0001 79.5828 91.0001Z" fill="black"/>
<path fill-rule="evenodd" clip-rule="evenodd" d="M79.5811 90.9998C79.444 90.9998 79.3054 90.955 79.1892 90.8627C78.9151 90.645 78.8689 90.2467 79.0865 89.9723L83.9895 83.7859C84.1095 83.6343 84.2914 83.5459 84.4853 83.5459C84.6782 83.5459 84.8612 83.6343 84.9812 83.786L89.8844 89.9723C90.1022 90.2467 90.0556 90.645 89.7813 90.8627C89.5075 91.079 89.1086 91.0328 88.8922 90.7598L84.4858 85.1987L80.0785 90.7598C79.9533 90.9167 79.7683 90.9998 79.5811 90.9998Z" fill="black"/>
<path fill-rule="evenodd" clip-rule="evenodd" d="M84.4853 84.8123C84.1357 84.8123 83.8516 84.53 83.8516 84.1791L83.8519 46.1337C83.8519 45.7842 84.1352 45.5006 84.4847 45.5006C84.8344 45.5006 85.1179 45.7842 85.1179 46.1337L85.118 84.1791C85.118 84.53 84.8344 84.8123 84.4853 84.8123Z" fill="black"/>
<path fill-rule="evenodd" clip-rule="evenodd" d="M57.5726 34.2663C57.3827 34.2663 57.2214 34.4272 57.2214 34.6172L57.2218 36.4573C57.2218 36.6472 57.3823 36.8082 57.5723 36.8082L63.7576 36.8081C63.9476 36.8081 64.1082 36.6472 64.1082 36.4573L64.1085 34.6172C64.1085 34.4272 63.9473 34.2663 63.7574 34.2663L57.5726 34.2663ZM63.7576 38.0744H57.5726C56.6811 38.0744 55.9551 37.3489 55.9551 36.4573L55.9552 34.6172C55.9552 33.7255 56.6805 33 57.5723 33H63.7576C64.6492 33 65.3745 33.7255 65.3745 34.6172L65.3746 36.4573C65.3746 37.3489 64.649 38.0744 63.7576 38.0744Z" fill="black"/>
<path fill-rule="evenodd" clip-rule="evenodd" d="M67.9871 45.3438C67.6375 45.3438 67.3538 45.0602 67.3538 44.7107L67.3543 42.3482C67.3543 41.388 66.5729 40.6071 65.6126 40.6071L63.2385 40.607C62.8889 40.607 62.6052 40.3235 62.6052 39.9739L62.6057 37.4414C62.6057 37.0917 62.8888 36.8082 63.2383 36.8082C63.5881 36.8082 63.8715 37.0918 63.8715 37.4414L63.8718 39.3408H65.6128C67.2712 39.3408 68.6201 40.6902 68.6201 42.3482L68.6204 44.7106C68.6204 45.0602 68.3365 45.3438 67.9871 45.3438ZM53.1863 45.9083C52.8367 45.9083 52.5527 45.6248 52.5527 45.2752L52.553 42.3482C52.553 40.6902 53.9021 39.3408 55.5601 39.3408H57.3016V37.4414C57.3016 37.0917 57.5849 36.8082 57.9344 36.8082C58.2857 36.8082 58.5676 37.0918 58.5676 37.4414V39.9739C58.5676 40.3234 58.2853 40.6071 57.9344 40.6071L55.5606 40.607C54.6002 40.607 53.819 41.388 53.819 42.3482V45.2752C53.819 45.6248 53.5354 45.9083 53.1863 45.9083Z" fill="black"/>
<path fill-rule="evenodd" clip-rule="evenodd" d="M70.8349 54.2499H58.907C58.5574 54.2499 58.2734 53.9663 58.2734 53.6167C58.2737 53.2672 58.557 52.9836 58.9065 52.9836L70.8349 52.9835C71.1844 52.9835 71.4679 53.2672 71.4679 53.6167C71.4682 53.9662 71.1843 54.2499 70.8349 54.2499Z" fill="black"/>
<path fill-rule="evenodd" clip-rule="evenodd" d="M70.8361 79.0231H60.2835C59.9345 79.0231 59.6504 78.7395 59.6504 78.39C59.6508 78.0404 59.934 77.7568 60.2835 77.7568H70.8361C71.1857 77.7568 71.4691 78.0404 71.4691 78.39C71.4694 78.7395 71.1855 79.0231 70.8361 79.0231Z" fill="black"/>
<path fill-rule="evenodd" clip-rule="evenodd" d="M64.8719 74.1042C63.0419 74.1042 61.3191 73.504 59.8881 72.3683C59.6152 72.152 59.5688 71.7537 59.7865 71.4793C60.0046 71.2049 60.4025 71.1601 60.6755 71.3777C61.8803 72.3327 63.3307 72.8379 64.8714 72.8379C68.5954 72.8379 71.6263 69.8067 71.6263 66.0817C71.6268 62.358 68.5951 59.3268 64.8714 59.3268C62.4353 59.3268 60.1782 60.6472 58.9818 62.7709C58.8103 63.0756 58.4239 63.1837 58.1192 63.0123C57.8149 62.8408 57.7063 62.4543 57.8792 62.1496C59.3 59.6276 61.9787 58.0605 64.8714 58.0605C69.2947 58.0605 72.8925 61.6589 72.8925 66.0817C72.8928 70.5058 69.2942 74.1042 64.8719 74.1042Z" fill="black"/>
</svg>
