<svg width="100" height="100" viewBox="0 0 100 100" fill="none" xmlns="http://www.w3.org/2000/svg">
<circle cx="50" cy="50" r="50" fill="#3C2C0B"/>
<g clip-path="url(#clip0_4756_46901)">
<circle cx="68" cy="67" r="14" fill="#978050"/>
<rect x="22" y="23" width="34" height="34" rx="2" fill="#978050"/>
<mask id="mask0_4756_46901" style="mask-type:luminance" maskUnits="userSpaceOnUse" x="18" y="18" width="64" height="64">
<path d="M81.9375 81.9375V18.0625H18.0625V81.9375H81.9375Z" fill="white" stroke="white" stroke-width="0.125"/>
</mask>
<g mask="url(#mask0_4756_46901)">
<path d="M62.7809 65.946C60.7784 65.946 59.1534 64.3224 59.1534 62.3185C59.1534 60.3147 60.7784 58.6911 62.7809 58.6911C64.7847 58.6911 66.4084 60.3147 66.4084 62.3185C66.4084 64.3224 64.7847 65.946 62.7809 65.946ZM71.6209 63.551C70.9484 62.8674 70.9484 61.7697 71.6209 61.0861L73.2334 59.4474C73.7872 58.8835 73.8972 58.0197 73.5022 57.3361L72.4572 55.5249C72.0622 54.841 71.2584 54.5049 70.4934 54.7024L68.2684 55.2797C67.3397 55.5197 66.3897 54.971 66.1334 54.0474L65.5209 51.831C65.3097 51.0697 64.617 50.5424 63.8272 50.5424H61.7359C60.9459 50.5424 60.2522 51.0697 60.0422 51.831L59.4284 54.0474C59.1734 54.971 58.2222 55.5197 57.2934 55.2797L55.0684 54.7024C54.3034 54.5049 53.5009 54.841 53.1059 55.5249L52.0597 57.3361C51.6647 58.0197 51.7747 58.8835 52.3297 59.4474L53.9409 61.0861C54.6147 61.7697 54.6147 62.8674 53.9409 63.551L52.3297 65.1897C51.7747 65.7536 51.6647 66.6174 52.0597 67.301L53.1059 69.1122C53.5009 69.7961 54.3034 70.1322 55.0684 69.9347L57.2934 69.3574C58.2222 69.1174 59.1734 69.6661 59.4284 70.5897L60.0422 72.8061C60.2522 73.5674 60.9459 74.0947 61.7359 74.0947H63.8272C64.617 74.0947 65.3097 73.5674 65.5209 72.8061L66.1334 70.5897C66.3897 69.6661 67.3397 69.1174 68.2684 69.3574L70.4934 69.9347C71.2584 70.1322 72.0622 69.7961 72.4572 69.1122L73.5022 67.301C73.8972 66.6174 73.7872 65.7536 73.2334 65.1897L71.6209 63.551Z" stroke="white" stroke-width="1.5" stroke-miterlimit="10" stroke-linecap="round" stroke-linejoin="round"/>
<path d="M45.2605 66.2881C44.5551 63.1927 44.6628 59.8716 45.7391 56.6411C48.8748 47.2285 59.047 42.1402 68.4596 45.276C71.6901 46.3522 74.4123 48.2577 76.4667 50.6773" stroke="white" stroke-width="1.5" stroke-miterlimit="10" stroke-linecap="round" stroke-linejoin="round"/>
<path d="M80.3035 58.3502C81.0089 61.4456 80.901 64.7667 79.8249 67.9972C76.6895 77.4087 66.5169 82.4982 57.1043 79.3624C53.8739 78.2862 51.1515 76.3806 49.0977 73.9598" stroke="white" stroke-width="1.5" stroke-miterlimit="10" stroke-linecap="round" stroke-linejoin="round"/>
<path d="M72.1963 50.6749L76.4659 50.6777L76.4729 46.4066" stroke="white" stroke-width="1.5" stroke-miterlimit="10" stroke-linecap="round" stroke-linejoin="round"/>
<path d="M53.3666 73.9622L49.0968 73.9593L49.0898 78.2305" stroke="white" stroke-width="1.5" stroke-miterlimit="10" stroke-linecap="round" stroke-linejoin="round"/>
<path d="M19.25 46.6364V58.4145C19.25 60.6456 20.9775 62.4531 23.105 62.4531H44.815C44.8 60.5282 45.0962 58.5695 45.7387 56.642C48.2462 49.1158 55.2512 44.3544 62.77 44.3507V23.752C62.77 21.5206 61.0425 19.7131 58.915 19.7131H23.105C20.9775 19.7131 19.25 21.5206 19.25 23.752V35.6464" stroke="white" stroke-width="1.5" stroke-miterlimit="10" stroke-linecap="round" stroke-linejoin="round"/>
<path d="M46.5966 19.7129H35.4238V29.3994H46.5966V19.7129Z" stroke="white" stroke-width="1.5" stroke-miterlimit="10" stroke-linecap="round" stroke-linejoin="round"/>
<path d="M25.2061 56.1084H32.5444" stroke="white" stroke-width="1.5" stroke-miterlimit="10" stroke-linecap="round" stroke-linejoin="round"/>
</g>
</g>
<defs>
<clipPath id="clip0_4756_46901">
<rect width="64" height="64" fill="white" transform="translate(18 18)"/>
</clipPath>
</defs>
</svg>
