<svg width="160" height="160" viewBox="0 0 160 160" fill="none" xmlns="http://www.w3.org/2000/svg">
<path d="M152.494 75C154.28 78.094 154.28 81.906 152.494 85L120.577 140.282C118.791 143.376 115.49 145.282 111.917 145.282L48.083 145.282C44.5104 145.282 41.2092 143.376 39.4228 140.282L7.50586 85C5.7753 82.0026 5.72124 78.3315 7.34375 75.292L7.50586 75L39.4229 19.7178C41.2092 16.6239 44.5104 14.7178 48.083 14.7178L111.917 14.7178C115.49 14.7178 118.791 16.6239 120.577 19.7178L152.494 75Z" stroke="#3C2C0B" stroke-width="8"/>
<path d="M135.525 73.25C137.862 77.2964 137.934 82.2522 135.744 86.3555L135.525 86.75L113.608 124.712C111.197 128.889 106.74 131.462 101.917 131.462L58.083 131.462C53.26 131.462 48.8032 128.889 46.3916 124.712L24.4746 86.75C22.0631 82.5731 22.0631 77.4269 24.4746 73.25L46.3916 35.2881C48.8032 31.1113 53.26 28.5381 58.083 28.5381L101.917 28.5381C106.74 28.5381 111.197 31.1114 113.608 35.2881L135.525 73.25Z" fill="#FFBE2E" stroke="#212121"/>
<rect x="63" y="56" width="49" height="35" rx="2" fill="white"/>
<mask id="mask0_4756_46725" style="mask-type:luminance" maskUnits="userSpaceOnUse" x="48" y="49" width="63" height="62">
<path d="M48.999 49H110.999V111H48.999V49Z" fill="white"/>
</mask>
<g mask="url(#mask0_4756_46725)">
<path d="M77.6111 104.954H96.1457C96.6858 104.954 97.1242 105.393 97.1242 105.933V107.891C97.1242 108.431 96.6858 108.869 96.1457 108.869H63.8525C63.3124 108.869 62.874 108.431 62.874 107.891V105.933C62.874 105.393 63.3124 104.954 63.8525 104.954H73.3728" stroke="#212121" stroke-width="1.5" strokeMiterlimit="10" stroke-linecap="round" stroke-linejoin="round"/>
<path d="M72.6595 95.1691L72.1627 97.6536C71.6891 100.022 70.5251 102.197 68.8173 103.904L67.7666 104.955" stroke="#212121" stroke-width="1.5" strokeMiterlimit="10" stroke-linecap="round" stroke-linejoin="round"/>
<path d="M92.2309 104.955L91.1801 103.904C89.4724 102.197 88.3083 100.022 87.8347 97.6536L87.3379 95.1691" stroke="#212121" stroke-width="1.5" strokeMiterlimit="10" stroke-linecap="round" stroke-linejoin="round"/>
<path d="M63.741 51.132H106.666C108.558 51.132 110.091 52.6663 110.091 54.5577V91.7444C110.091 93.6359 108.558 95.1689 106.666 95.1689H53.3318C51.4403 95.1689 49.9072 93.6359 49.9072 91.7444V54.5577C49.9072 52.6663 51.4403 51.132 53.3318 51.132H59.5027" stroke="#212121" stroke-width="1.5" strokeMiterlimit="10" stroke-linecap="round" stroke-linejoin="round"/>
<path d="M97.8156 91.2529H106.176V55.0459H53.8223V91.2529H93.5773" stroke="#212121" stroke-width="1.5" strokeMiterlimit="10" stroke-linecap="round" stroke-linejoin="round"/>
<path d="M80.7306 77.7988C81.1276 77.7988 81.4836 77.5585 81.6367 77.1923C82.1572 75.9472 82.446 74.5822 82.446 73.1505C82.446 67.3499 77.7268 62.6306 71.9261 62.6306C66.1255 62.6306 61.4062 67.3499 61.4062 73.1505C61.4062 74.5822 61.6951 75.9472 62.2156 77.1923C62.3688 77.5585 62.7247 77.7988 63.1217 77.7988H80.7306Z" stroke="#212121" stroke-width="1.5" strokeMiterlimit="10" stroke-linecap="round" stroke-linejoin="round"/>
<path d="M71.9258 62.6302V63.8535" stroke="#212121" stroke-width="1.5" strokeMiterlimit="10" stroke-linecap="round" stroke-linejoin="round"/>
<path d="M66.666 64.0392L67.2777 65.0986" stroke="#212121" stroke-width="1.5" strokeMiterlimit="10" stroke-linecap="round" stroke-linejoin="round"/>
<path d="M62.8154 67.8903L63.8748 68.502" stroke="#212121" stroke-width="1.5" strokeMiterlimit="10" stroke-linecap="round" stroke-linejoin="round"/>
<path d="M61.4062 73.1504H62.6295" stroke="#212121" stroke-width="1.5" strokeMiterlimit="10" stroke-linecap="round" stroke-linejoin="round"/>
<path d="M77.1859 64.0392L76.5742 65.0986" stroke="#212121" stroke-width="1.5" strokeMiterlimit="10" stroke-linecap="round" stroke-linejoin="round"/>
<path d="M81.036 67.8903L79.9766 68.502" stroke="#212121" stroke-width="1.5" strokeMiterlimit="10" stroke-linecap="round" stroke-linejoin="round"/>
<path d="M82.4459 73.1504H81.2227" stroke="#212121" stroke-width="1.5" strokeMiterlimit="10" stroke-linecap="round" stroke-linejoin="round"/>
<path d="M71.9258 67.7681V73.1504" stroke="#212121" stroke-width="1.5" strokeMiterlimit="10" stroke-linecap="round" stroke-linejoin="round"/>
<path d="M73.3938 73.1503C73.3938 73.961 72.7366 74.6182 71.9259 74.6182C71.1152 74.6182 70.458 73.961 70.458 73.1503C70.458 72.3397 71.1152 71.6824 71.9259 71.6824C72.7366 71.6824 73.3938 72.3397 73.3938 73.1503Z" fill="#212121"/>
<path d="M86.1155 73.1502C86.1155 80.9869 79.7627 87.3398 71.9258 87.3398C64.0891 87.3398 57.7363 80.9869 57.7363 73.1502C57.7363 65.3135 64.0891 58.9606 71.9258 58.9606C79.7627 58.9606 86.1155 65.3135 86.1155 73.1502Z" stroke="#212121" stroke-width="1.5" strokeMiterlimit="10" stroke-linecap="round" stroke-linejoin="round"/>
<path d="M68.0117 81.957H75.8404" stroke="#212121" stroke-width="1.5" strokeMiterlimit="10" stroke-linecap="round" stroke-linejoin="round"/>
<path d="M99.8156 62.875H97.8584" stroke="#212121" stroke-width="1.5" strokeMiterlimit="10" stroke-linecap="round" stroke-linejoin="round"/>
<path d="M102.262 58.9609H97.8584" stroke="#212121" stroke-width="1.5" strokeMiterlimit="10" stroke-linecap="round" stroke-linejoin="round"/>
<path d="M99.8156 71.0293H97.8584" stroke="#212121" stroke-width="1.5" strokeMiterlimit="10" stroke-linecap="round" stroke-linejoin="round"/>
<path d="M102.262 67.1162H97.8584" stroke="#212121" stroke-width="1.5" strokeMiterlimit="10" stroke-linecap="round" stroke-linejoin="round"/>
<path d="M99.8156 79.1846H97.8584" stroke="#212121" stroke-width="1.5" strokeMiterlimit="10" stroke-linecap="round" stroke-linejoin="round"/>
<path d="M102.262 75.2705H97.8584" stroke="#212121" stroke-width="1.5" strokeMiterlimit="10" stroke-linecap="round" stroke-linejoin="round"/>
<path d="M99.8156 87.3398H97.8584" stroke="#212121" stroke-width="1.5" strokeMiterlimit="10" stroke-linecap="round" stroke-linejoin="round"/>
<path d="M102.262 83.4268H97.8584" stroke="#212121" stroke-width="1.5" strokeMiterlimit="10" stroke-linecap="round" stroke-linejoin="round"/>
<path d="M93.9437 60.9178C93.9437 61.9986 93.0674 62.875 91.9865 62.875C90.9055 62.875 90.0293 61.9986 90.0293 60.9178C90.0293 59.8369 90.9055 58.9605 91.9865 58.9605C93.0674 58.9605 93.9437 59.8369 93.9437 60.9178Z" stroke="#212121" stroke-width="1.5" strokeMiterlimit="10" stroke-linecap="round" stroke-linejoin="round"/>
<path d="M93.9437 69.0721C93.9437 70.1529 93.0674 71.0293 91.9865 71.0293C90.9055 71.0293 90.0293 70.1529 90.0293 69.0721C90.0293 67.9912 90.9055 67.1148 91.9865 67.1148C93.0674 67.1148 93.9437 67.9912 93.9437 69.0721Z" stroke="#212121" stroke-width="1.5" strokeMiterlimit="10" stroke-linecap="round" stroke-linejoin="round"/>
<path d="M93.9437 77.2273C93.9437 78.3082 93.0674 79.1846 91.9865 79.1846C90.9055 79.1846 90.0293 78.3082 90.0293 77.2273C90.0293 76.1464 90.9055 75.2701 91.9865 75.2701C93.0674 75.2701 93.9437 76.1464 93.9437 77.2273Z" stroke="#212121" stroke-width="1.5" strokeMiterlimit="10" stroke-linecap="round" stroke-linejoin="round"/>
<path d="M93.9437 85.3826C93.9437 86.4635 93.0674 87.3398 91.9865 87.3398C90.9055 87.3398 90.0293 86.4635 90.0293 85.3826C90.0293 84.3017 90.9055 83.4254 91.9865 83.4254C93.0674 83.4254 93.9437 84.3017 93.9437 85.3826Z" stroke="#212121" stroke-width="1.5" strokeMiterlimit="10" stroke-linecap="round" stroke-linejoin="round"/>
</g>
</svg>
