<svg width="3" height="109" viewBox="0 0 3 109" fill="none" xmlns="http://www.w3.org/2000/svg">
<path d="M1.58301 0.25C1.58301 0.111929 1.47108 -6.03528e-09 1.33301 0C1.19494 6.03528e-09 1.08301 0.111929 1.08301 0.25L1.33301 0.25L1.58301 0.25ZM1.33301 105.917C0.596633 105.917 -0.000320916 106.514 -0.000320883 107.25C-0.000320851 107.986 0.596633 108.583 1.33301 108.583C2.06939 108.583 2.66635 107.986 2.66635 107.25C2.66635 106.514 2.06939 105.917 1.33301 105.917ZM1.08301 2.30769C1.08301 2.44576 1.19494 2.55769 1.33301 2.55769C1.47108 2.55769 1.58301 2.44576 1.58301 2.30769L1.33301 2.30769L1.08301 2.30769ZM1.58301 6.42308C1.58301 6.28501 1.47108 6.17308 1.33301 6.17308C1.19494 6.17308 1.08301 6.28501 1.08301 6.42308L1.33301 6.42308L1.58301 6.42308ZM1.08301 10.5385C1.08301 10.6765 1.19494 10.7885 1.33301 10.7885C1.47108 10.7885 1.58301 10.6765 1.58301 10.5385L1.33301 10.5385L1.08301 10.5385ZM1.58301 14.6538C1.58301 14.5158 1.47108 14.4038 1.33301 14.4038C1.19494 14.4038 1.08301 14.5158 1.08301 14.6538L1.33301 14.6538L1.58301 14.6538ZM1.08301 18.7692C1.08301 18.9073 1.19494 19.0192 1.33301 19.0192C1.47108 19.0192 1.58301 18.9073 1.58301 18.7692L1.33301 18.7692L1.08301 18.7692ZM1.58301 22.8846C1.58301 22.7465 1.47108 22.6346 1.33301 22.6346C1.19494 22.6346 1.08301 22.7465 1.08301 22.8846L1.33301 22.8846L1.58301 22.8846ZM1.08301 27C1.08301 27.1381 1.19494 27.25 1.33301 27.25C1.47108 27.25 1.58301 27.1381 1.58301 27L1.33301 27L1.08301 27ZM1.58301 31.1154C1.58301 30.9773 1.47108 30.8654 1.33301 30.8654C1.19494 30.8654 1.08301 30.9773 1.08301 31.1154L1.33301 31.1154L1.58301 31.1154ZM1.08301 35.2308C1.08301 35.3688 1.19494 35.4808 1.33301 35.4808C1.47108 35.4808 1.58301 35.3688 1.58301 35.2308L1.33301 35.2308L1.08301 35.2308ZM1.58301 39.3462C1.58301 39.2081 1.47108 39.0962 1.33301 39.0962C1.19494 39.0962 1.08301 39.2081 1.08301 39.3462L1.33301 39.3462L1.58301 39.3462ZM1.08301 43.4615C1.08301 43.5996 1.19494 43.7115 1.33301 43.7115C1.47108 43.7115 1.58301 43.5996 1.58301 43.4615L1.33301 43.4615L1.08301 43.4615ZM1.58301 47.5769C1.58301 47.4388 1.47108 47.3269 1.33301 47.3269C1.19494 47.3269 1.08301 47.4388 1.08301 47.5769L1.33301 47.5769L1.58301 47.5769ZM1.08301 51.6923C1.08301 51.8304 1.19494 51.9423 1.33301 51.9423C1.47108 51.9423 1.58301 51.8304 1.58301 51.6923L1.33301 51.6923L1.08301 51.6923ZM1.58301 55.8077C1.58301 55.6696 1.47108 55.5577 1.33301 55.5577C1.19494 55.5577 1.08301 55.6696 1.08301 55.8077L1.33301 55.8077L1.58301 55.8077ZM1.08301 59.9231C1.08301 60.0611 1.19494 60.1731 1.33301 60.1731C1.47108 60.1731 1.58301 60.0611 1.58301 59.9231L1.33301 59.9231L1.08301 59.9231ZM1.58301 64.0384C1.58301 63.9004 1.47108 63.7884 1.33301 63.7884C1.19494 63.7884 1.08301 63.9004 1.08301 64.0384L1.33301 64.0384L1.58301 64.0384ZM1.08301 68.1538C1.08301 68.2919 1.19494 68.4038 1.33301 68.4038C1.47108 68.4038 1.58301 68.2919 1.58301 68.1538L1.33301 68.1538L1.08301 68.1538ZM1.58301 72.2692C1.58301 72.1311 1.47108 72.0192 1.33301 72.0192C1.19494 72.0192 1.08301 72.1311 1.08301 72.2692L1.33301 72.2692L1.58301 72.2692ZM1.08301 76.3846C1.08301 76.5227 1.19494 76.6346 1.33301 76.6346C1.47108 76.6346 1.58301 76.5227 1.58301 76.3846L1.33301 76.3846L1.08301 76.3846ZM1.58301 80.5C1.58301 80.3619 1.47108 80.25 1.33301 80.25C1.19494 80.25 1.08301 80.3619 1.08301 80.5L1.33301 80.5L1.58301 80.5ZM1.08301 84.6154C1.08301 84.7535 1.19494 84.8654 1.33301 84.8654C1.47108 84.8654 1.58301 84.7535 1.58301 84.6154L1.33301 84.6154L1.08301 84.6154ZM1.58301 88.7308C1.58301 88.5927 1.47108 88.4808 1.33301 88.4808C1.19494 88.4808 1.08301 88.5927 1.08301 88.7308L1.33301 88.7308L1.58301 88.7308ZM1.08301 92.8462C1.08301 92.9842 1.19494 93.0962 1.33301 93.0962C1.47108 93.0962 1.58301 92.9842 1.58301 92.8462L1.33301 92.8462L1.08301 92.8462ZM1.58301 96.9615C1.58301 96.8235 1.47108 96.7115 1.33301 96.7115C1.19494 96.7115 1.08301 96.8235 1.08301 96.9615L1.33301 96.9615L1.58301 96.9615ZM1.08301 101.077C1.08301 101.215 1.19494 101.327 1.33301 101.327C1.47108 101.327 1.58301 101.215 1.58301 101.077L1.33301 101.077L1.08301 101.077ZM1.58301 105.192C1.58301 105.054 1.47108 104.942 1.33301 104.942C1.19494 104.942 1.08301 105.054 1.08301 105.192L1.33301 105.192L1.58301 105.192ZM1.33301 0.25L1.08301 0.25L1.08301 2.30769L1.33301 2.30769L1.58301 2.30769L1.58301 0.25L1.33301 0.25ZM1.33301 6.42308L1.08301 6.42308L1.08301 10.5385L1.33301 10.5385L1.58301 10.5385L1.58301 6.42308L1.33301 6.42308ZM1.33301 14.6538L1.08301 14.6538L1.08301 18.7692L1.33301 18.7692L1.58301 18.7692L1.58301 14.6538L1.33301 14.6538ZM1.33301 22.8846L1.08301 22.8846L1.08301 27L1.33301 27L1.58301 27L1.58301 22.8846L1.33301 22.8846ZM1.33301 31.1154L1.08301 31.1154L1.08301 35.2308L1.33301 35.2308L1.58301 35.2308L1.58301 31.1154L1.33301 31.1154ZM1.33301 39.3462L1.08301 39.3462L1.08301 43.4615L1.33301 43.4615L1.58301 43.4615L1.58301 39.3462L1.33301 39.3462ZM1.33301 47.5769L1.08301 47.5769L1.08301 51.6923L1.33301 51.6923L1.58301 51.6923L1.58301 47.5769L1.33301 47.5769ZM1.33301 55.8077L1.08301 55.8077L1.08301 59.9231L1.33301 59.9231L1.58301 59.9231L1.58301 55.8077L1.33301 55.8077ZM1.33301 64.0384L1.08301 64.0384L1.08301 68.1538L1.33301 68.1538L1.58301 68.1538L1.58301 64.0384L1.33301 64.0384ZM1.33301 72.2692L1.08301 72.2692L1.08301 76.3846L1.33301 76.3846L1.58301 76.3846L1.58301 72.2692L1.33301 72.2692ZM1.33301 80.5L1.08301 80.5L1.08301 84.6154L1.33301 84.6154L1.58301 84.6154L1.58301 80.5L1.33301 80.5ZM1.33301 88.7308L1.08301 88.7308L1.08301 92.8462L1.33301 92.8462L1.58301 92.8462L1.58301 88.7308L1.33301 88.7308ZM1.33301 96.9615L1.08301 96.9615L1.08301 101.077L1.33301 101.077L1.58301 101.077L1.58301 96.9615L1.33301 96.9615ZM1.33301 105.192L1.08301 105.192L1.08301 107.25L1.33301 107.25L1.58301 107.25L1.58301 105.192L1.33301 105.192Z" fill="#3C2C0B"/>
</svg>
