<svg width="160" height="160" viewBox="0 0 160 160" fill="none" xmlns="http://www.w3.org/2000/svg">
<circle cx="80" cy="80" r="79.5" fill="#978050" stroke="black"/>
<circle cx="80" cy="80" r="59.5" fill="white" stroke="#212121"/>
<path d="M132.698 80C136.731 80 140.046 83.2812 139.556 87.284C137.939 100.513 131.948 112.905 122.426 122.426C111.174 133.679 95.913 140 80 140C64.087 140 48.8258 133.679 37.5736 122.426C28.0521 112.905 22.0612 100.513 20.4436 87.284C19.9541 83.2812 23.2691 80 27.3017 80C31.3344 80 34.5434 83.2901 35.1893 87.2707C36.7055 96.6157 41.1195 105.32 47.8998 112.1C56.4133 120.614 67.9601 125.397 80 125.397C92.0399 125.397 103.587 120.614 112.1 112.1C118.88 105.32 123.294 96.6157 124.811 87.2707C125.457 83.2901 128.666 80 132.698 80Z" fill="#FFBE2E"/>
<rect x="66" y="65" width="41" height="43" rx="4" fill="#FFBE2E"/>
<path d="M74.4447 65.9844V70.1844C74.4447 71.4844 73.3908 72.5381 72.091 72.5381H69.4963C68.1963 72.5381 67.1426 71.4843 67.1426 70.1844V65.9844" stroke="#212121" stroke-width="1.5" stroke-miterlimit="10" stroke-linecap="round" stroke-linejoin="round"/>
<path d="M97.4068 71.3634H91.1192C89.6338 71.3634 88.4297 70.1593 88.4297 68.6739C88.4297 67.1885 89.6338 65.9844 91.1192 65.9844H97.4068C98.8922 65.9844 100.096 67.1885 100.096 68.6739C100.096 70.1593 98.8922 71.3634 97.4068 71.3634Z" stroke="#212121" stroke-width="1.5" stroke-miterlimit="10" stroke-linecap="round" stroke-linejoin="round"/>
<path d="M97.4068 81.7716H91.1192C89.6338 81.7716 88.4297 80.5675 88.4297 79.0821C88.4297 77.5967 89.6338 76.3926 91.1192 76.3926H97.4068C98.8922 76.3926 100.096 77.5967 100.096 79.0821C100.096 80.5675 98.8922 81.7716 97.4068 81.7716Z" stroke="#212121" stroke-width="1.5" stroke-miterlimit="10" stroke-linecap="round" stroke-linejoin="round"/>
<path d="M97.4068 92.1788H62.5938C61.1084 92.1788 59.9043 90.9747 59.9043 89.4893C59.9043 88.0039 61.1084 86.7998 62.5938 86.7998H97.4069C98.8923 86.7998 100.096 88.0039 100.096 89.4893C100.096 90.9747 98.8922 92.1788 97.4068 92.1788Z" stroke="#212121" stroke-width="1.5" stroke-miterlimit="10" stroke-linecap="round" stroke-linejoin="round"/>
<path d="M97.4068 102.587H62.5938C61.1084 102.587 59.9043 101.383 59.9043 99.8975C59.9043 98.4121 61.1084 97.208 62.5938 97.208H97.4069C98.8923 97.208 100.096 98.4121 100.096 99.8975C100.096 101.383 98.8922 102.587 97.4068 102.587Z" stroke="#212121" stroke-width="1.5" stroke-miterlimit="10" stroke-linecap="round" stroke-linejoin="round"/>
<path d="M59.9044 75.6402V78.5516C59.9044 80.1365 61.1892 81.4212 62.774 81.4212H78.8144C80.3993 81.4212 81.684 80.1365 81.684 78.5516V68.854C81.684 67.2691 80.3993 65.9844 78.8144 65.9844H62.7739C61.189 65.9844 59.9043 67.2691 59.9043 68.854V71.2654" stroke="#212121" stroke-width="1.5" stroke-miterlimit="10" stroke-linecap="round" stroke-linejoin="round"/>
<path d="M84.0374 48.9375H69.2119C67.6872 48.9375 66.4512 50.1735 66.4512 51.6983V55.3095C66.4512 56.8343 67.6872 58.0702 69.2119 58.0702H90.7892C92.3139 58.0702 93.5499 56.8343 93.5499 55.3095V51.6983C93.5499 50.1735 92.3139 48.9375 90.7892 48.9375H88.4124" stroke="#212121" stroke-width="1.5" stroke-miterlimit="10" stroke-linecap="round" stroke-linejoin="round"/>
<path d="M66.4508 53.504H61.1998C56.7413 53.504 53.127 57.1184 53.127 61.5769V102.99C53.127 107.448 56.7413 111.063 61.1998 111.063H98.8006C103.259 111.063 106.873 107.448 106.873 102.99V61.5768C106.873 57.1183 103.259 53.5039 98.8006 53.5039H93.5496" stroke="#212121" stroke-width="1.5" stroke-miterlimit="10" stroke-linecap="round" stroke-linejoin="round"/>
</svg>
