<svg width="3" height="58" viewBox="0 0 3 58" fill="none" xmlns="http://www.w3.org/2000/svg">
<path d="M1.58301 0.25C1.58301 0.111929 1.47108 -3.1007e-09 1.33301 0C1.19494 3.1007e-09 1.08301 0.111929 1.08301 0.25L1.33301 0.25L1.58301 0.25ZM1.33301 54.9167C0.596633 54.9167 -0.000320859 55.5136 -0.000320796 56.25C-0.000320733 56.9864 0.596633 57.5833 1.33301 57.5833C2.06939 57.5833 2.66635 56.9864 2.66635 56.25C2.66635 55.5136 2.06939 54.9167 1.33301 54.9167ZM1.08301 2.25C1.08301 2.38807 1.19494 2.5 1.33301 2.5C1.47108 2.5 1.58301 2.38807 1.58301 2.25L1.33301 2.25L1.08301 2.25ZM1.58301 6.25C1.58301 6.11193 1.47108 6 1.33301 6C1.19494 6 1.08301 6.11193 1.08301 6.25L1.33301 6.25L1.58301 6.25ZM1.08301 10.25C1.08301 10.3881 1.19494 10.5 1.33301 10.5C1.47108 10.5 1.58301 10.3881 1.58301 10.25L1.33301 10.25L1.08301 10.25ZM1.58301 14.25C1.58301 14.1119 1.47108 14 1.33301 14C1.19494 14 1.08301 14.1119 1.08301 14.25L1.33301 14.25L1.58301 14.25ZM1.08301 18.25C1.08301 18.3881 1.19494 18.5 1.33301 18.5C1.47108 18.5 1.58301 18.3881 1.58301 18.25L1.33301 18.25L1.08301 18.25ZM1.58301 22.25C1.58301 22.1119 1.47108 22 1.33301 22C1.19494 22 1.08301 22.1119 1.08301 22.25L1.33301 22.25L1.58301 22.25ZM1.08301 26.25C1.08301 26.3881 1.19494 26.5 1.33301 26.5C1.47108 26.5 1.58301 26.3881 1.58301 26.25L1.33301 26.25L1.08301 26.25ZM1.58301 30.25C1.58301 30.1119 1.47108 30 1.33301 30C1.19494 30 1.08301 30.1119 1.08301 30.25L1.33301 30.25L1.58301 30.25ZM1.08301 34.25C1.08301 34.3881 1.19494 34.5 1.33301 34.5C1.47108 34.5 1.58301 34.3881 1.58301 34.25L1.33301 34.25L1.08301 34.25ZM1.58301 38.25C1.58301 38.1119 1.47108 38 1.33301 38C1.19494 38 1.08301 38.1119 1.08301 38.25L1.33301 38.25L1.58301 38.25ZM1.08301 42.25C1.08301 42.3881 1.19494 42.5 1.33301 42.5C1.47108 42.5 1.58301 42.3881 1.58301 42.25L1.33301 42.25L1.08301 42.25ZM1.58301 46.25C1.58301 46.1119 1.47108 46 1.33301 46C1.19494 46 1.08301 46.1119 1.08301 46.25L1.33301 46.25L1.58301 46.25ZM1.08301 50.25C1.08301 50.3881 1.19494 50.5 1.33301 50.5C1.47108 50.5 1.58301 50.3881 1.58301 50.25L1.33301 50.25L1.08301 50.25ZM1.58301 54.25C1.58301 54.1119 1.47108 54 1.33301 54C1.19494 54 1.08301 54.1119 1.08301 54.25L1.33301 54.25L1.58301 54.25ZM1.33301 0.25L1.08301 0.25L1.08301 2.25L1.33301 2.25L1.58301 2.25L1.58301 0.25L1.33301 0.25ZM1.33301 6.25L1.08301 6.25L1.08301 10.25L1.33301 10.25L1.58301 10.25L1.58301 6.25L1.33301 6.25ZM1.33301 14.25L1.08301 14.25L1.08301 18.25L1.33301 18.25L1.58301 18.25L1.58301 14.25L1.33301 14.25ZM1.33301 22.25L1.08301 22.25L1.08301 26.25L1.33301 26.25L1.58301 26.25L1.58301 22.25L1.33301 22.25ZM1.33301 30.25L1.08301 30.25L1.08301 34.25L1.33301 34.25L1.58301 34.25L1.58301 30.25L1.33301 30.25ZM1.33301 38.25L1.08301 38.25L1.08301 42.25L1.33301 42.25L1.58301 42.25L1.58301 38.25L1.33301 38.25ZM1.33301 46.25L1.08301 46.25L1.08301 50.25L1.33301 50.25L1.58301 50.25L1.58301 46.25L1.33301 46.25ZM1.33301 54.25L1.08301 54.25L1.08301 56.25L1.33301 56.25L1.58301 56.25L1.58301 54.25L1.33301 54.25Z" fill="#3C2C0B"/>
</svg>
