<svg width="160" height="160" viewBox="0 0 160 160" fill="none" xmlns="http://www.w3.org/2000/svg">
<path d="M152.494 75C154.28 78.094 154.28 81.906 152.494 85L120.577 140.282C118.791 143.376 115.49 145.282 111.917 145.282L48.083 145.282C44.5104 145.282 41.2092 143.376 39.4228 140.282L7.50586 85C5.7753 82.0026 5.72124 78.3315 7.34375 75.292L7.50586 75L39.4229 19.7178C41.2092 16.6239 44.5104 14.7178 48.083 14.7178L111.917 14.7178C115.49 14.7178 118.791 16.6239 120.577 19.7178L152.494 75Z" stroke="#3C2C0B" stroke-width="8"/>
<path d="M135.525 73.25C137.862 77.2964 137.934 82.2522 135.744 86.3555L135.525 86.75L113.608 124.712C111.197 128.889 106.74 131.462 101.917 131.462L58.083 131.462C53.26 131.462 48.8032 128.889 46.3916 124.712L24.4746 86.75C22.0631 82.5731 22.0631 77.4269 24.4746 73.25L46.3916 35.2881C48.8032 31.1113 53.26 28.5381 58.083 28.5381L101.917 28.5381C106.74 28.5381 111.197 31.1114 113.608 35.2881L135.525 73.25Z" fill="#FFBE2E" stroke="#212121"/>
<rect x="48" y="59" width="46" height="46" rx="2" fill="white"/>
<path d="M108.999 101.023V106.328C108.999 107.803 107.803 109 106.328 109H53.6717C52.1962 109 51 107.803 51 106.328V80V72.998" stroke="#212121" stroke-width="1.5" strokeMiterlimit="10" stroke-linecap="round" stroke-linejoin="round"/>
<path d="M51 75.9152V53.6717C51 52.1962 52.1962 51 53.6717 51H106.328C107.803 51 108.999 52.1962 108.999 53.6717V96.9385V102.873" stroke="#212121" stroke-width="1.5" strokeMiterlimit="10" stroke-linecap="round" stroke-linejoin="round"/>
<path d="M84.7042 73.8951H75.2944C74.5235 73.8951 73.8984 73.2702 73.8984 72.4992V51H86.1001V72.4992C86.1 73.2701 85.4751 73.8951 84.7042 73.8951Z" stroke="#212121" stroke-width="1.5" strokeMiterlimit="10" stroke-linecap="round" stroke-linejoin="round"/>
<path d="M90.9756 94.5205H100.79" stroke="#212121" stroke-width="1.5" strokeMiterlimit="10" stroke-linecap="round" stroke-linejoin="round"/>
<path d="M90.9756 98.3369H100.79" stroke="#212121" stroke-width="1.5" strokeMiterlimit="10" stroke-linecap="round" stroke-linejoin="round"/>
<path d="M97.8613 102.157H100.79" stroke="#212121" stroke-width="1.5" strokeMiterlimit="10" stroke-linecap="round" stroke-linejoin="round"/>
<path d="M67.3924 62.4473H57.5781" stroke="#212121" stroke-width="1.5" strokeMiterlimit="10" stroke-linecap="round" stroke-linejoin="round"/>
<path d="M60.5069 58.5479H57.5781" stroke="#212121" stroke-width="1.5" strokeMiterlimit="10" stroke-linecap="round" stroke-linejoin="round"/>
<path d="M76.6616 91.6353L80.6655 87.6314C81.3135 86.9835 81.3135 85.9329 80.6655 85.285L79.7112 84.3307C79.0633 83.6827 78.0127 83.6827 77.3648 84.3307L73.3609 88.3346L69.357 84.3307C68.709 83.6827 67.6585 83.6827 67.0106 84.3307L66.0562 85.285C65.4083 85.9329 65.4083 86.9835 66.0562 87.6314L70.0602 91.6353L66.0562 95.6394C65.4083 96.2873 65.4083 97.3378 66.0562 97.9857L67.0106 98.9401C67.6585 99.588 68.709 99.588 69.357 98.9401L73.3609 94.9361L77.3648 98.9401C78.0127 99.588 79.0633 99.588 79.7112 98.9401L80.6655 97.9857C81.3135 97.3378 81.3135 96.2873 80.6655 95.6394L76.6616 91.6353Z" stroke="#212121" stroke-width="1.5" strokeMiterlimit="10" stroke-linecap="round" stroke-linejoin="round"/>
<path d="M95.3314 58.2459C95.5958 58.9111 95.1058 59.6334 94.3899 59.6334H92.3609C91.4931 59.6334 91.0269 60.653 91.5945 61.3093L99.4558 70.399C100.164 71.2183 101.474 70.4106 101.059 69.4097L99.4223 65.4536C98.9873 64.4024 99.8622 63.2774 100.988 63.4401L102.224 63.6188C103.298 63.7741 104.163 62.7502 103.831 61.7172L100.384 51H92.4518L95.3314 58.2459Z" stroke="#212121" stroke-width="1.5" strokeMiterlimit="10" stroke-linecap="round" stroke-linejoin="round"/>
<path d="M59.415 98.5344C59.8549 98.209 59.9736 97.6017 59.6887 97.1345L57.5696 93.6592C57.3965 93.3754 57.367 93.0266 57.4901 92.7178L58.714 89.6456C58.9038 89.1692 58.7243 88.6255 58.2883 88.3556L51 83.8447V104.762L59.415 98.5344Z" stroke="#212121" stroke-width="1.5" strokeMiterlimit="10" stroke-linecap="round" stroke-linejoin="round"/>
</svg>
