<svg width="160" height="160" viewBox="0 0 160 160" fill="none" xmlns="http://www.w3.org/2000/svg">
<path d="M152.494 75C154.28 78.094 154.28 81.906 152.494 85L120.577 140.282C118.791 143.376 115.49 145.282 111.917 145.282L48.083 145.282C44.5104 145.282 41.2092 143.376 39.4228 140.282L7.50586 85C5.7753 82.0026 5.72124 78.3315 7.34375 75.292L7.50586 75L39.4229 19.7178C41.2092 16.6239 44.5104 14.7178 48.083 14.7178L111.917 14.7178C115.49 14.7178 118.791 16.6239 120.577 19.7178L152.494 75Z" stroke="#3C2C0B" stroke-width="8"/>
<path d="M133.525 73.25C135.862 77.2964 135.934 82.2522 133.744 86.3555L133.525 86.75L111.608 124.712C109.197 128.889 104.74 131.462 99.917 131.462L56.083 131.462C51.26 131.462 46.8032 128.889 44.3916 124.712L22.4746 86.75C20.0631 82.5731 20.0631 77.4269 22.4746 73.25L44.3916 35.2881C46.8032 31.1113 51.26 28.5381 56.083 28.5381L99.917 28.5381C104.74 28.5381 109.197 31.1114 111.608 35.2881L133.525 73.25Z" fill="#FFBE2E" stroke="#212121"/>
<g clip-path="url(#clip0_4756_46794)">
<circle cx="78" cy="83" r="24" fill="#FFF7E4"/>
<path d="M49.002 78.0368C50.0149 61.7983 63.5059 48.9414 79.9997 48.9414" stroke="#212121" stroke-width="1.5" stroke-miterlimit="10"/>
<path d="M78.1179 111.003C61.841 110.03 48.9414 96.5213 48.9414 80" stroke="#212121" stroke-width="1.5" stroke-miterlimit="10"/>
<path d="M111.003 81.8828C110.03 98.1596 96.5213 111.059 80 111.059" stroke="#212121" stroke-width="1.5" stroke-miterlimit="10"/>
<path d="M81.959 49.002C98.1993 50.013 111.058 63.5049 111.058 79.9999" stroke="#212121" stroke-width="1.5" stroke-miterlimit="10"/>
<path d="M56.5439 78.1235C57.5001 66.006 67.6363 56.4707 79.9996 56.4707" stroke="#212121" stroke-width="1.5" stroke-miterlimit="10"/>
<path d="M78.1178 103.455C66.0029 102.496 56.4707 92.3613 56.4707 80" stroke="#212121" stroke-width="1.5" stroke-miterlimit="10"/>
<path d="M103.455 81.8828C102.496 93.9976 92.3613 103.53 80 103.53" stroke="#212121" stroke-width="1.5" stroke-miterlimit="10"/>
<path d="M81.8818 56.5449C93.9967 57.5039 103.529 67.6389 103.529 80.0002" stroke="#212121" stroke-width="1.5" stroke-miterlimit="10"/>
<path d="M78.202 48.9453L81.963 52.7063L78.0361 56.6331" stroke="#212121" stroke-width="1.5" stroke-miterlimit="10"/>
<path d="M111.217 78.203L107.456 81.9639L103.529 78.0371" stroke="#212121" stroke-width="1.5" stroke-miterlimit="10"/>
<path d="M48.8789 81.7981L52.6398 78.0371L56.5666 81.9639" stroke="#212121" stroke-width="1.5" stroke-miterlimit="10"/>
<path d="M81.7971 111.217L78.0361 107.456L81.963 103.529" stroke="#212121" stroke-width="1.5" stroke-miterlimit="10"/>
<path d="M92.2349 67.8037H86.5879V90.4014H92.2349V67.8037Z" stroke="#212121" stroke-width="1.5" stroke-miterlimit="10"/>
<path d="M82.8228 75.3652H77.1758V90.4013H82.8228V75.3652Z" stroke="#212121" stroke-width="1.5" stroke-miterlimit="10"/>
<path d="M73.4117 82.8838H67.7646V90.4019H73.4117V82.8838Z" stroke="#212121" stroke-width="1.5" stroke-miterlimit="10"/>
<path d="M63.0586 90.4014H96.9409" stroke="#212121" stroke-width="1.5" stroke-miterlimit="10"/>
</g>
<defs>
<clipPath id="clip0_4756_46794">
<rect width="64" height="64" fill="white" transform="translate(48 48)"/>
</clipPath>
</defs>
</svg>
