<svg width="100" height="100" viewBox="0 0 100 100" fill="none" xmlns="http://www.w3.org/2000/svg">
<circle cx="50" cy="50" r="50" fill="#3C2C0B"/>
<rect x="19" y="36" width="16" height="16" rx="2" fill="#978050"/>
<rect x="43" y="47" width="32" height="22" rx="2" fill="#978050"/>
<path d="M42.235 42.2354V26.7041H18.9375V50.0004H25.6325H30" stroke="white" stroke-width="1.5" strokeMiterlimit="10" stroke-linecap="round" stroke-linejoin="round"/>
<path d="M34.3715 50H29.7178" stroke="white" stroke-width="1.5" strokeMiterlimit="10" stroke-linecap="round" stroke-linejoin="round"/>
<path d="M33.4971 26.7051H27.6748V34.4687L30.5864 32.5273L33.4971 34.4687V26.7051Z" stroke="white" stroke-width="1.5" strokeMiterlimit="10" stroke-linecap="round" stroke-linejoin="round"/>
<path d="M22.8203 40.293H27.6748" stroke="white" stroke-width="1.5" strokeMiterlimit="10" stroke-linecap="round" stroke-linejoin="round"/>
<path d="M22.8203 44.1758H27.6748" stroke="white" stroke-width="1.5" strokeMiterlimit="10" stroke-linecap="round" stroke-linejoin="round"/>
<path d="M73.248 46.1172H77.0338V49.9999" stroke="white" stroke-width="1.5" strokeMiterlimit="10" stroke-linecap="round" stroke-linejoin="round"/>
<path d="M73.248 69.414H77.0338V65.5312" stroke="white" stroke-width="1.5" strokeMiterlimit="10" stroke-linecap="round" stroke-linejoin="round"/>
<path d="M42.0885 46.1172H38.3027V49.9999" stroke="white" stroke-width="1.5" strokeMiterlimit="10" stroke-linecap="round" stroke-linejoin="round"/>
<path d="M42.0885 69.414H38.3027V65.5312" stroke="white" stroke-width="1.5" strokeMiterlimit="10" stroke-linecap="round" stroke-linejoin="round"/>
<path d="M46.0204 50H42.1377V65.5311H46.0204V50Z" stroke="white" stroke-width="1.5" strokeMiterlimit="10" stroke-linecap="round" stroke-linejoin="round"/>
<path d="M49.9033 50V61.6484" stroke="white" stroke-width="1.5" strokeMiterlimit="10" stroke-linecap="round" stroke-linejoin="round"/>
<path d="M53.7861 50V61.6484" stroke="white" stroke-width="1.5" strokeMiterlimit="10" stroke-linecap="round" stroke-linejoin="round"/>
<path d="M65.4346 50V61.6484" stroke="white" stroke-width="1.5" strokeMiterlimit="10" stroke-linecap="round" stroke-linejoin="round"/>
<path d="M61.5517 50H57.6689V62.4249H61.5517V50Z" stroke="white" stroke-width="1.5" strokeMiterlimit="10" stroke-linecap="round" stroke-linejoin="round"/>
<path d="M73.1992 50H69.3164V65.5311H73.1992V50Z" stroke="white" stroke-width="1.5" strokeMiterlimit="10" stroke-linecap="round" stroke-linejoin="round"/>
<path d="M49.9033 65.5312V64.8398" stroke="white" stroke-width="1.5" strokeMiterlimit="10" stroke-linecap="round" stroke-linejoin="round"/>
<path d="M53.7861 65.5312V64.8398" stroke="white" stroke-width="1.5" strokeMiterlimit="10" stroke-linecap="round" stroke-linejoin="round"/>
<path d="M61.5518 65.5312V64.8398" stroke="white" stroke-width="1.5" strokeMiterlimit="10" stroke-linecap="round" stroke-linejoin="round"/>
<path d="M57.6689 65.5312V64.8398" stroke="white" stroke-width="1.5" strokeMiterlimit="10" stroke-linecap="round" stroke-linejoin="round"/>
<path d="M65.4346 65.5312V64.8398" stroke="white" stroke-width="1.5" strokeMiterlimit="10" stroke-linecap="round" stroke-linejoin="round"/>
<path d="M57.5673 42.2354H34.3711V73.2966H47.8598H52.9999" stroke="white" stroke-width="1.5" strokeMiterlimit="10" stroke-linecap="round" stroke-linejoin="round"/>
<path d="M51.9463 73.2966H81.0625V42.2354H61.6525H55.1431" stroke="white" stroke-width="1.5" strokeMiterlimit="10" stroke-linecap="round" stroke-linejoin="round"/>
</svg>
