<svg width="100" height="100" viewBox="0 0 100 100" fill="none" xmlns="http://www.w3.org/2000/svg">
<circle cx="50" cy="50" r="50" fill="#3C2C0B"/>
<rect x="26" y="23" width="38" height="38" rx="2" fill="#978050"/>
<path d="M37.95 68.075H60.0416V54.0166H19.875V64.0582C19.875 65.1236 20.2978 66.1459 21.0519 66.899C21.805 67.6521 22.8262 68.0749 23.8916 68.0749C24.9982 68.0749 25.9 68.0749 25.9 68.0749" stroke="white" stroke-width="1.5" strokeMiterlimit="10" stroke-linecap="round" stroke-linejoin="round"/>
<path d="M60.0416 54.017V29.917C60.0416 28.8526 59.6189 27.8304 58.8647 27.0773C58.1116 26.3241 57.0904 25.9004 56.025 25.9004C48.3291 25.9004 31.5876 25.9004 23.8916 25.9004C22.8262 25.9004 21.805 26.3241 21.0519 27.0773C20.2978 27.8304 19.875 28.8526 19.875 29.917C19.875 37.6873 19.875 54.017 19.875 54.017H60.0416Z" stroke="white" stroke-width="1.5" strokeMiterlimit="10" stroke-linecap="round" stroke-linejoin="round"/>
<path d="M72.092 68.0751H76.1086C77.174 68.0751 78.1952 67.6523 78.9484 66.8992C79.7025 66.1461 80.1252 65.1238 80.1252 64.0584C80.1252 59.9734 80.1252 53.4806 80.1252 47.9918C80.1252 42.4468 75.6296 37.9502 70.0836 37.9502H60.042V68.0752" stroke="white" stroke-width="1.5" strokeMiterlimit="10" stroke-linecap="round" stroke-linejoin="round"/>
<path d="M31.9254 74.0998C35.2529 74.0998 37.9504 71.4023 37.9504 68.0748C37.9504 64.7473 35.2529 62.0498 31.9254 62.0498C28.5979 62.0498 25.9004 64.7473 25.9004 68.0748C25.9004 71.4023 28.5979 74.0998 31.9254 74.0998Z" stroke="white" stroke-width="1.5" strokeMiterlimit="10" stroke-linecap="round" stroke-linejoin="round"/>
<path d="M66.067 74.0998C69.3945 74.0998 72.092 71.4023 72.092 68.0748C72.092 64.7473 69.3945 62.0498 66.067 62.0498C62.7395 62.0498 60.042 64.7473 60.042 68.0748C60.042 71.4023 62.7395 74.0998 66.067 74.0998Z" stroke="white" stroke-width="1.5" strokeMiterlimit="10" stroke-linecap="round" stroke-linejoin="round"/>
<path d="M70.083 37.9502V54.0168H80.1246" stroke="white" stroke-width="1.5" strokeMiterlimit="10" stroke-linecap="round" stroke-linejoin="round"/>
</svg>
