<svg width="145" height="40" viewBox="0 0 145 40" fill="none" xmlns="http://www.w3.org/2000/svg">
<path d="M135.465 34.0902C135.465 31.3531 137.644 29.4868 140.134 29.4868C142.624 29.4868 144.803 31.3531 144.803 34.0902C144.803 36.8274 142.624 38.6937 140.134 38.6937C137.706 38.6937 135.465 36.8274 135.465 34.0902ZM140.196 33.5926C141.005 33.5926 141.192 33.1571 141.192 32.7839C141.192 32.3484 140.943 31.9752 140.196 31.9752H139.2V33.5926H140.196ZM139.138 34.2769V36.8274H138.329V31.2909H140.383C141.566 31.2909 142.126 31.7885 142.126 32.8461C142.126 33.4682 141.69 33.9658 141.13 34.028C141.628 34.0902 141.753 34.5257 141.877 35.2722C141.939 35.7699 142.064 36.6408 142.251 36.8274H141.254C141.005 36.3297 141.068 35.5832 140.881 34.9612C140.756 34.4635 140.507 34.3391 139.947 34.3391L139.138 34.2769ZM143.931 34.0902C143.931 31.8507 142.375 30.2333 140.196 30.2333C138.017 30.2333 136.461 31.8507 136.461 34.0902C136.461 36.3297 138.017 37.9472 140.196 37.9472C142.313 37.9472 143.931 36.3297 143.931 34.0902Z" fill="#FF6200"/>
<path d="M119.339 38.6934L113.986 32.6592L108.694 38.6934H97.4883L108.445 26.3761L97.4883 14.1211H109.068L114.484 20.0931L119.651 14.1211H130.794L119.9 26.3761L130.981 38.6934H119.339Z" fill="#FF6200"/>
<path d="M76.0117 38.6936V0H97.4894V8.64697H85.1008V14.1213H97.4894V22.395H85.1008V30.0467H97.4894V38.6936H76.0117Z" fill="#FF6200"/>
<path d="M61.4448 32.7838C58.0831 32.7838 56.0287 29.6734 56.0287 26.4386C56.0287 22.9549 57.8341 19.6579 61.4448 19.6579C65.1801 19.6579 66.6742 23.0171 66.6742 26.4386C66.6742 29.7356 65.1178 32.7838 61.4448 32.7838ZM29.2594 22.5194C29.8197 20.0933 31.7496 18.4759 34.1153 18.4759C36.7299 18.4759 38.5353 20.0311 39.0334 22.5194H29.2594ZM66.9232 0V15.8009H66.7987C64.8066 13.4992 62.2542 12.6905 59.3905 12.6905C53.4141 12.6905 48.9318 16.7341 47.3754 22.084C45.57 16.1742 40.9632 12.5661 34.053 12.5661C28.4501 12.5661 24.0924 15.0544 21.789 19.1602V14.1213H10.2719V8.64697H22.8473V0H0V38.6936H10.2719V22.395H20.5439C20.2326 23.577 20.0458 24.8834 20.0458 26.1897C20.0458 34.2768 26.209 39.9378 34.1153 39.9378C40.7142 39.9378 45.072 36.8274 47.4377 31.1664H38.5976C37.4147 32.846 36.4809 33.3437 34.1153 33.3437C31.3761 33.3437 28.9482 30.9176 28.9482 28.056H46.8774C47.6244 34.4635 52.667 40 59.515 40C62.4409 40 65.1801 38.5692 66.861 36.0809H66.9855V38.5692H76.0746V0H66.9232Z" fill="#4D148C"/>
</svg>
