<svg width="56" height="56" viewBox="0 0 56 56" fill="none" xmlns="http://www.w3.org/2000/svg">
<rect x="9" y="11" width="40" height="40" fill="#FFBE2E"/>
<path d="M16.9089 33.2501H14.4939C13.8377 33.2501 13.2427 32.8878 12.9382 32.3068C12.6354 31.7276 12.6792 31.0346 13.0519 30.4991L20.8482 19.2501C21.1229 18.8528 21.6672 18.7531 22.0662 19.0296C22.4634 19.3043 22.5632 19.8503 22.2867 20.2476L14.4904 31.5001H16.9089L32.1112 19.4426C32.4909 19.1416 33.0404 19.2063 33.3414 19.5843C33.6424 19.9623 33.5794 20.5136 33.1997 20.8146L18.0184 32.8668C17.6894 33.1188 17.3097 33.2501 16.9089 33.2501Z" fill="#212121"/>
<path d="M33.0311 13.2422C32.8491 13.2422 32.6671 13.1862 32.5113 13.0707L19.5876 3.50525L17.1113 3.5L20.7076 8.7745C20.9806 9.1735 20.8773 9.71775 20.4783 9.99075C20.0811 10.262 19.5368 10.1623 19.2621 9.7615L15.6658 4.494C15.3001 3.94275 15.2668 3.248 15.5731 2.67225C15.8776 2.1035 16.4673 1.75 17.1113 1.75H19.5788C19.9498 1.75 20.3331 1.87775 20.6306 2.1L33.5508 11.6637C33.9393 11.9508 34.0216 12.5002 33.7328 12.887C33.5631 13.1198 33.2988 13.2422 33.0311 13.2422Z" fill="#212121"/>
<path d="M51.076 21H32.6555C32.1725 21 31.7805 20.608 31.7805 20.125C31.7805 19.642 32.1725 19.25 32.6555 19.25H51.076C51.8705 19.25 52.4935 18.6305 52.4935 17.8412C52.4935 17.3635 52.2572 16.9243 51.846 16.639L48.626 14.0122C47.6792 13.3857 46.4945 13.027 45.2677 13.027L11.211 13.9457C9.70773 13.9457 8.34098 13.2108 7.53073 11.9823L5.32048 8.75875L3.50223 8.75L5.37998 13.9685C6.50523 17.0782 9.69023 19.25 13.1255 19.25H16.7025C17.1855 19.25 17.5775 19.642 17.5775 20.125C17.5775 20.608 17.1872 21 16.7025 21H13.1255C8.96748 21 5.10523 18.3522 3.73498 14.5635L1.85023 9.35375C1.65423 8.81475 1.73298 8.21275 2.06023 7.7455C2.38748 7.27825 2.92648 7 3.50223 7H5.29948C5.90673 7 6.45798 7.29575 6.77648 7.791L8.98148 11.0058C9.47673 11.7548 10.2975 12.1957 11.1865 12.1957L45.2432 11.2788C46.841 11.2788 48.3635 11.739 49.6655 12.607L52.8995 15.2425C53.7202 15.8095 54.2435 16.7965 54.2435 17.8412C54.2435 19.5842 52.8225 21 51.076 21Z" fill="#212121"/>
<path d="M11.3558 3.5H4.375C3.892 3.5 3.5 3.108 3.5 2.625C3.5 2.142 3.892 1.75 4.375 1.75H11.3558C11.8387 1.75 12.2308 2.142 12.2308 2.625C12.2308 3.108 11.8405 3.5 11.3558 3.5Z" fill="#212121"/>
<path d="M11.347 29.75H6.125C5.642 29.75 5.25 29.358 5.25 28.875C5.25 28.392 5.642 28 6.125 28H11.347C11.83 28 12.222 28.392 12.222 28.875C12.222 29.358 11.83 29.75 11.347 29.75Z" fill="#212121"/>
<path d="M9.597 33.25H2.625C2.142 33.25 1.75 32.858 1.75 32.375C1.75 31.892 2.142 31.5 2.625 31.5H9.597C10.08 31.5 10.472 31.892 10.472 32.375C10.472 32.858 10.08 33.25 9.597 33.25Z" fill="#212121"/>
<path d="M47.056 16.7772C46.5853 16.7772 46.1968 16.4027 46.181 15.9285C46.167 15.4455 46.5468 15.043 47.0298 15.0272L51.5203 14.896C51.9578 14.8995 52.4058 15.2617 52.4215 15.7447C52.4355 16.2277 52.0558 16.6302 51.5728 16.646L47.0823 16.7772C47.0735 16.7772 47.0665 16.7772 47.056 16.7772Z" fill="#212121"/>
<path d="M39.375 54.25H25.375C24.892 54.25 24.5 53.858 24.5 53.375V39.375C24.5 38.892 24.892 38.5 25.375 38.5H39.375C39.858 38.5 40.25 38.892 40.25 39.375V53.375C40.25 53.858 39.858 54.25 39.375 54.25ZM26.25 52.5H38.5V40.25H26.25V52.5Z" fill="#212121"/>
<path d="M44.625 40.25H34.125C33.642 40.25 33.25 39.858 33.25 39.375V28.875C33.25 28.392 33.642 28 34.125 28H44.625C45.108 28 45.5 28.392 45.5 28.875V39.375C45.5 39.858 45.108 40.25 44.625 40.25ZM35 38.5H43.75V29.75H35V38.5Z" fill="#212121"/>
<path d="M53.375 54.25H39.375C38.892 54.25 38.5 53.858 38.5 53.375V39.375C38.5 38.892 38.892 38.5 39.375 38.5H53.375C53.858 38.5 54.25 38.892 54.25 39.375V53.375C54.25 53.858 53.858 54.25 53.375 54.25ZM40.25 52.5H52.5V40.25H40.25V52.5Z" fill="#212121"/>
<path d="M2.6252 54.25H2.4502C1.9672 54.25 1.5752 53.858 1.5752 53.375C1.5752 52.892 1.9672 52.5 2.4502 52.5H2.6252C3.1082 52.5 3.5002 52.892 3.5002 53.375C3.5002 53.858 3.1082 54.25 2.6252 54.25Z" fill="#212121"/>
<path d="M28.875 54.25H6.125C5.642 54.25 5.25 53.858 5.25 53.375C5.25 52.892 5.642 52.5 6.125 52.5H28.875C29.358 52.5 29.75 52.892 29.75 53.375C29.75 53.858 29.358 54.25 28.875 54.25Z" fill="#212121"/>
<path d="M32.375 43.75C31.892 43.75 31.5 43.358 31.5 42.875V39.375C31.5 38.892 31.892 38.5 32.375 38.5C32.858 38.5 33.25 38.892 33.25 39.375V42.875C33.25 43.358 32.858 43.75 32.375 43.75Z" fill="#212121"/>
<path d="M39.375 33.25C38.892 33.25 38.5 32.858 38.5 32.375V28.875C38.5 28.392 38.892 28 39.375 28C39.858 28 40.25 28.392 40.25 28.875V32.375C40.25 32.858 39.858 33.25 39.375 33.25Z" fill="#212121"/>
<path d="M46.375 43.75C45.892 43.75 45.5 43.358 45.5 42.875V39.375C45.5 38.892 45.892 38.5 46.375 38.5C46.858 38.5 47.25 38.892 47.25 39.375V42.875C47.25 43.358 46.858 43.75 46.375 43.75Z" fill="#212121"/>
</svg>
