<svg width="56" height="56" viewBox="0 0 56 56" fill="none" xmlns="http://www.w3.org/2000/svg">
<g clip-path="url(#clip0_6704_6878)">
<path d="M16.9079 33.2501H14.4929C13.8367 33.2501 13.2417 32.8878 12.9372 32.3068C12.6344 31.7276 12.6782 31.0346 13.0509 30.4991L20.8472 19.2501C21.1219 18.8528 21.6662 18.7531 22.0652 19.0296C22.4624 19.3043 22.5622 19.8503 22.2857 20.2476L14.4894 31.5001H16.9079L32.1102 19.4426C32.4899 19.1416 33.0394 19.2063 33.3404 19.5843C33.6414 19.9623 33.5784 20.5136 33.1987 20.8146L18.0174 32.8668C17.6884 33.1188 17.3087 33.2501 16.9079 33.2501Z" fill="#212121"/>
<path d="M33.0301 13.2422C32.8481 13.2422 32.6661 13.1862 32.5103 13.0707L19.5866 3.50525L17.1103 3.5L20.7066 8.7745C20.9796 9.1735 20.8763 9.71775 20.4773 9.99075C20.0801 10.262 19.5358 10.1623 19.2611 9.7615L15.6648 4.494C15.2991 3.94275 15.2658 3.248 15.5721 2.67225C15.8766 2.1035 16.4663 1.75 17.1103 1.75H19.5778C19.9488 1.75 20.3321 1.87775 20.6296 2.1L33.5499 11.6637C33.9384 11.9508 34.0206 12.5002 33.7318 12.887C33.5621 13.1198 33.2978 13.2422 33.0301 13.2422Z" fill="#212121"/>
<path d="M51.075 21H32.6545C32.1715 21 31.7795 20.608 31.7795 20.125C31.7795 19.642 32.1715 19.25 32.6545 19.25H51.075C51.8695 19.25 52.4925 18.6305 52.4925 17.8412C52.4925 17.3635 52.2563 16.9243 51.845 16.639L48.625 14.0122C47.6783 13.3857 46.4935 13.027 45.2668 13.027L11.21 13.9457C9.70675 13.9457 8.34 13.2108 7.52975 11.9823L5.3195 8.75875L3.50125 8.75L5.379 13.9685C6.50425 17.0782 9.68925 19.25 13.1245 19.25H16.7015C17.1845 19.25 17.5765 19.642 17.5765 20.125C17.5765 20.608 17.1863 21 16.7015 21H13.1245C8.9665 21 5.10425 18.3522 3.734 14.5635L1.84925 9.35375C1.65325 8.81475 1.732 8.21275 2.05925 7.7455C2.3865 7.27825 2.9255 7 3.50125 7H5.2985C5.90575 7 6.457 7.29575 6.7755 7.791L8.9805 11.0058C9.47575 11.7548 10.2965 12.1957 11.1855 12.1957L45.2423 11.2788C46.84 11.2788 48.3625 11.739 49.6645 12.607L52.8985 15.2425C53.7193 15.8095 54.2425 16.7965 54.2425 17.8412C54.2425 19.5842 52.8215 21 51.075 21Z" fill="#212121"/>
<path d="M11.3548 3.5H4.37402C3.89102 3.5 3.49902 3.108 3.49902 2.625C3.49902 2.142 3.89102 1.75 4.37402 1.75H11.3548C11.8378 1.75 12.2298 2.142 12.2298 2.625C12.2298 3.108 11.8395 3.5 11.3548 3.5Z" fill="#212121"/>
<path d="M11.346 29.75H6.12402C5.64102 29.75 5.24902 29.358 5.24902 28.875C5.24902 28.392 5.64102 28 6.12402 28H11.346C11.829 28 12.221 28.392 12.221 28.875C12.221 29.358 11.829 29.75 11.346 29.75Z" fill="#212121"/>
<path d="M9.59602 33.25H2.62402C2.14102 33.25 1.74902 32.858 1.74902 32.375C1.74902 31.892 2.14102 31.5 2.62402 31.5H9.59602C10.079 31.5 10.471 31.892 10.471 32.375C10.471 32.858 10.079 33.25 9.59602 33.25Z" fill="#212121"/>
<path d="M47.0551 16.7772C46.5843 16.7772 46.1958 16.4027 46.1801 15.9285C46.1661 15.4455 46.5458 15.043 47.0288 15.0272L51.5193 14.896C51.9568 14.8995 52.4048 15.2617 52.4206 15.7447C52.4346 16.2277 52.0548 16.6302 51.5718 16.646L47.0813 16.7772C47.0726 16.7772 47.0656 16.7772 47.0551 16.7772Z" fill="#212121"/>
<path d="M39.374 54.25H25.374C24.891 54.25 24.499 53.858 24.499 53.375V39.375C24.499 38.892 24.891 38.5 25.374 38.5H39.374C39.857 38.5 40.249 38.892 40.249 39.375V53.375C40.249 53.858 39.857 54.25 39.374 54.25ZM26.249 52.5H38.499V40.25H26.249V52.5Z" fill="#212121"/>
<path d="M44.624 40.25H34.124C33.641 40.25 33.249 39.858 33.249 39.375V28.875C33.249 28.392 33.641 28 34.124 28H44.624C45.107 28 45.499 28.392 45.499 28.875V39.375C45.499 39.858 45.107 40.25 44.624 40.25ZM34.999 38.5H43.749V29.75H34.999V38.5Z" fill="#212121"/>
<path d="M53.374 54.25H39.374C38.891 54.25 38.499 53.858 38.499 53.375V39.375C38.499 38.892 38.891 38.5 39.374 38.5H53.374C53.857 38.5 54.249 38.892 54.249 39.375V53.375C54.249 53.858 53.857 54.25 53.374 54.25ZM40.249 52.5H52.499V40.25H40.249V52.5Z" fill="#212121"/>
<path d="M2.62422 54.25H2.44922C1.96622 54.25 1.57422 53.858 1.57422 53.375C1.57422 52.892 1.96622 52.5 2.44922 52.5H2.62422C3.10722 52.5 3.49922 52.892 3.49922 53.375C3.49922 53.858 3.10722 54.25 2.62422 54.25Z" fill="#212121"/>
<path d="M28.874 54.25H6.12402C5.64102 54.25 5.24902 53.858 5.24902 53.375C5.24902 52.892 5.64102 52.5 6.12402 52.5H28.874C29.357 52.5 29.749 52.892 29.749 53.375C29.749 53.858 29.357 54.25 28.874 54.25Z" fill="#212121"/>
<path d="M32.374 43.75C31.891 43.75 31.499 43.358 31.499 42.875V39.375C31.499 38.892 31.891 38.5 32.374 38.5C32.857 38.5 33.249 38.892 33.249 39.375V42.875C33.249 43.358 32.857 43.75 32.374 43.75Z" fill="#212121"/>
<path d="M39.374 33.25C38.891 33.25 38.499 32.858 38.499 32.375V28.875C38.499 28.392 38.891 28 39.374 28C39.857 28 40.249 28.392 40.249 28.875V32.375C40.249 32.858 39.857 33.25 39.374 33.25Z" fill="#212121"/>
<path d="M46.374 43.75C45.891 43.75 45.499 43.358 45.499 42.875V39.375C45.499 38.892 45.891 38.5 46.374 38.5C46.857 38.5 47.249 38.892 47.249 39.375V42.875C47.249 43.358 46.857 43.75 46.374 43.75Z" fill="#212121"/>
</g>
<defs>
<clipPath id="clip0_6704_6878">
<rect width="56" height="56" fill="white"/>
</clipPath>
</defs>
</svg>
