<svg width="56" height="56" viewBox="0 0 56 56" fill="none" xmlns="http://www.w3.org/2000/svg">
<rect x="9" y="9" width="40" height="40" fill="#FFBE2E"/>
<mask id="mask0_6704_6930" style="mask-type:luminance" maskUnits="userSpaceOnUse" x="0" y="0" width="56" height="56">
<path d="M0 3.8147e-06H56V56H0V3.8147e-06Z" fill="white"/>
</mask>
<g mask="url(#mask0_6704_6930)">
<path d="M32.9444 48.1106H54.9062V41.9694H1.09375V48.1106H23.0556" stroke="#212121" stroke-width="2.1875" stroke-miterlimit="10" stroke-linecap="round" stroke-linejoin="round"/>
</g>
<path d="M39.8686 7.8894H29.0957V19.0088H44.2462L39.8686 7.8894Z" stroke="#212121" stroke-width="2.1875" stroke-miterlimit="10" stroke-linecap="round" stroke-linejoin="round"/>
<mask id="mask1_6704_6930" style="mask-type:luminance" maskUnits="userSpaceOnUse" x="0" y="0" width="56" height="56">
<path d="M0 3.8147e-06H56V56H0V3.8147e-06Z" fill="white"/>
</mask>
<g mask="url(#mask1_6704_6930)">
<path d="M48.3331 19.0087H29.0938V30.9331H51.746V22.4215C51.746 20.5367 50.2179 19.0087 48.3331 19.0087Z" stroke="#212121" stroke-width="2.1875" stroke-miterlimit="10" stroke-linecap="round" stroke-linejoin="round"/>
<path d="M47.1581 36.4513C47.1581 39.4988 44.6876 41.9692 41.6401 41.9692C38.5926 41.9692 36.1221 39.4988 36.1221 36.4513C36.1221 33.4038 38.5926 30.9332 41.6401 30.9332C44.6876 30.9332 47.1581 33.4038 47.1581 36.4513Z" stroke="#212121" stroke-width="2.1875" stroke-miterlimit="10" stroke-linecap="round" stroke-linejoin="round"/>
<path d="M19.578 36.4513C19.578 39.4988 17.1076 41.9692 14.0601 41.9692C11.0126 41.9692 8.54199 39.4988 8.54199 36.4513C8.54199 33.4038 11.0126 30.9332 14.0601 30.9332C17.1076 30.9332 19.578 33.4038 19.578 36.4513Z" stroke="#212121" stroke-width="2.1875" stroke-miterlimit="10" stroke-linecap="round" stroke-linejoin="round"/>
<path d="M47.3743 36.384H52.8383V30.9332H3.15625V36.384H8.32214" stroke="#212121" stroke-width="2.1875" stroke-miterlimit="10" stroke-linecap="round" stroke-linejoin="round"/>
<path d="M19.7969 36.384H35.903" stroke="#212121" stroke-width="2.1875" stroke-miterlimit="10" stroke-linecap="round" stroke-linejoin="round"/>
<path d="M4.25195 30.9331H23.0767V15.4106H4.25195V30.9331Z" stroke="#212121" stroke-width="2.1875" stroke-miterlimit="10" stroke-linecap="round" stroke-linejoin="round"/>
<path d="M29.0934 15.4106H23.0771V30.9331H29.0934V15.4106Z" stroke="#212121" stroke-width="2.1875" stroke-miterlimit="10" stroke-linecap="round" stroke-linejoin="round"/>
</g>
</svg>
