<svg width="99" height="96" viewBox="0 0 99 96" fill="none" xmlns="http://www.w3.org/2000/svg">
<rect x="9.72949" width="28.5405" height="28.5405" rx="1.2973" fill="#978050"/>
<rect x="3.24316" y="70.7026" width="95.3513" height="25.2973" rx="12.6486" fill="#978050"/>
<path d="M80.6589 89.9424H15.3411C7.90406 89.9424 1.875 83.9134 1.875 76.4764V76.4636C1.875 69.0264 7.90406 62.9976 15.3411 62.9976H80.6588C88.096 62.9976 94.1248 69.0266 94.1248 76.4636V76.4764C94.125 83.9134 88.096 89.9424 80.6589 89.9424Z" stroke="white" stroke-width="2.59459" stroke-miterlimit="10" stroke-linecap="round" stroke-linejoin="round"/>
<path d="M19.7008 81.2984C17.0368 81.2984 14.877 79.1388 14.877 76.4746V76.4654C14.877 73.8014 17.0366 71.6416 19.7008 71.6416C22.3648 71.6416 24.5246 73.8012 24.5246 76.4654V76.4746C24.5244 79.1388 22.3648 81.2984 19.7008 81.2984Z" stroke="white" stroke-width="2.59459" stroke-miterlimit="10" stroke-linecap="round" stroke-linejoin="round"/>
<path d="M38.566 81.2984C35.902 81.2984 33.7422 79.1388 33.7422 76.4746V76.4654C33.7422 73.8014 35.9018 71.6416 38.566 71.6416C41.23 71.6416 43.3898 73.8012 43.3898 76.4654V76.4746C43.3898 79.1388 41.2302 81.2984 38.566 81.2984Z" stroke="white" stroke-width="2.59459" stroke-miterlimit="10" stroke-linecap="round" stroke-linejoin="round"/>
<path d="M57.4332 81.2984C54.7692 81.2984 52.6094 79.1388 52.6094 76.4746V76.4654C52.6094 73.8014 54.769 71.6416 57.4332 71.6416C60.0972 71.6416 62.257 73.8012 62.257 76.4654V76.4746C62.2568 79.1388 60.0972 81.2984 57.4332 81.2984Z" stroke="white" stroke-width="2.59459" stroke-miterlimit="10" stroke-linecap="round" stroke-linejoin="round"/>
<path d="M76.2984 81.2984C73.6344 81.2984 71.4746 79.1388 71.4746 76.4746V76.4654C71.4746 73.8014 73.6342 71.6416 76.2984 71.6416C78.9624 71.6416 81.1222 73.8012 81.1222 76.4654V76.4746C81.1222 79.1388 78.9626 81.2984 76.2984 81.2984Z" stroke="white" stroke-width="2.59459" stroke-miterlimit="10" stroke-linecap="round" stroke-linejoin="round"/>
<path d="M75.4152 54.1058L88.4714 43.7736L75.4152 33.4414V39.0758H63.6826V48.4714H75.4152V54.1058Z" stroke="white" stroke-width="2.59459" stroke-miterlimit="10" stroke-linecap="round" stroke-linejoin="round"/>
<path d="M49.3796 6.05811H19.6387V32.8303H49.3796V6.05811Z" stroke="white" stroke-width="2.59459" stroke-miterlimit="10" stroke-linecap="round" stroke-linejoin="round"/>
<path d="M40.9422 48.1573L34.5093 45.3309L28.0762 48.1573V32.8311H40.9422V48.1573Z" stroke="white" stroke-width="2.59459" stroke-miterlimit="10" stroke-linecap="round" stroke-linejoin="round"/>
<path d="M54.4334 32.8311H14.584V62.9976H54.4334V32.8311Z" stroke="white" stroke-width="2.59459" stroke-miterlimit="10" stroke-linecap="round" stroke-linejoin="round"/>
<path d="M29.3193 22.4419H39.6988" stroke="white" stroke-width="2.59459" stroke-miterlimit="10" stroke-linecap="round" stroke-linejoin="round"/>
</svg>
