<svg width="96" height="96" viewBox="0 0 96 96" fill="none" xmlns="http://www.w3.org/2000/svg">
<circle cx="47.6848" cy="47.6839" r="29.3684" fill="#978050"/>
<path d="M79.8047 25.4157L53.082 9.9873" stroke="white" stroke-width="2.52632" stroke-miterlimit="10" stroke-linecap="round" stroke-linejoin="round"/>
<path d="M79.7875 70.5957L53.082 86.0127" stroke="white" stroke-width="2.52632" stroke-miterlimit="10" stroke-linecap="round" stroke-linejoin="round"/>
<path d="M11.3145 62.1367V33.9043" stroke="white" stroke-width="2.52632" stroke-miterlimit="10" stroke-linecap="round" stroke-linejoin="round"/>
<path d="M42.9178 9.9873L16.1953 25.4157" stroke="white" stroke-width="2.52632" stroke-miterlimit="10" stroke-linecap="round" stroke-linejoin="round"/>
<path d="M42.9166 86.0127L16.2129 70.5957" stroke="white" stroke-width="2.52632" stroke-miterlimit="10" stroke-linecap="round" stroke-linejoin="round"/>
<path d="M84.6855 62.1349V33.9043" stroke="white" stroke-width="2.52632" stroke-miterlimit="10" stroke-linecap="round" stroke-linejoin="round"/>
<path d="M55.5316 59.296H40.4703C38.3907 59.296 36.7051 57.6102 36.7051 55.5306V40.4695C36.7051 38.3899 38.3907 36.7041 40.4703 36.7041H55.5316C57.611 36.7041 59.2968 38.3899 59.2968 40.4695V55.5306C59.2968 57.6102 57.611 59.296 55.5316 59.296Z" stroke="white" stroke-width="2.52632" stroke-miterlimit="10" stroke-linecap="round" stroke-linejoin="round"/>
<path d="M51.7651 36.7041V46.1174L47.9998 44.2347L44.2344 46.1174V36.7041" stroke="white" stroke-width="2.52632" stroke-miterlimit="10" stroke-linecap="round" stroke-linejoin="round"/>
<path d="M47.9999 71.533C60.9969 71.533 71.533 60.9969 71.533 47.9999C71.533 35.0029 60.9969 24.4668 47.9999 24.4668C35.0029 24.4668 24.4668 35.0029 24.4668 47.9999C24.4668 60.9969 35.0029 71.533 47.9999 71.533Z" stroke="white" stroke-width="2.52632" stroke-miterlimit="10" stroke-linecap="round" stroke-linejoin="round"/>
<path d="M42.3516 7.52306C42.3516 4.40363 44.8802 1.875 47.9994 1.875C51.1189 1.875 53.6475 4.40363 53.6475 7.52306C53.6475 10.6421 51.1189 13.1709 47.9994 13.1709C44.8802 13.1709 42.3516 10.6421 42.3516 7.52306Z" stroke="white" stroke-width="2.52632" stroke-miterlimit="10" stroke-linecap="round" stroke-linejoin="round"/>
<path d="M5.66797 28.2565C5.66797 25.137 8.19659 22.6084 11.316 22.6084C14.4353 22.6084 16.9639 25.137 16.9639 28.2565C16.9639 31.3757 14.4353 33.9043 11.316 33.9043C8.19659 33.9043 5.66797 31.3757 5.66797 28.2565Z" stroke="white" stroke-width="2.52632" stroke-miterlimit="10" stroke-linecap="round" stroke-linejoin="round"/>
<path d="M42.3516 88.4772C42.3516 85.3577 44.8802 82.8291 47.9994 82.8291C51.1189 82.8291 53.6475 85.3577 53.6475 88.4772C53.6475 91.5964 51.1189 94.125 47.9994 94.125C44.8802 94.125 42.3516 91.5964 42.3516 88.4772Z" stroke="white" stroke-width="2.52632" stroke-miterlimit="10" stroke-linecap="round" stroke-linejoin="round"/>
<path d="M5.66797 67.7856C5.66797 64.6663 8.19659 62.1377 11.316 62.1377C14.4353 62.1377 16.9639 64.6663 16.9639 67.7856C16.9639 70.9048 14.4353 73.4336 11.316 73.4336C8.19659 73.4338 5.66797 70.9048 5.66797 67.7856Z" stroke="white" stroke-width="2.52632" stroke-miterlimit="10" stroke-linecap="round" stroke-linejoin="round"/>
<path d="M79.0371 67.7836C79.0371 64.6644 81.5657 62.1357 84.6848 62.1357C87.8042 62.1357 90.3329 64.6644 90.3329 67.7836C90.3329 70.9031 87.8042 73.4317 84.6848 73.4317C81.5659 73.4317 79.0371 70.9029 79.0371 67.7836Z" stroke="white" stroke-width="2.52632" stroke-miterlimit="10" stroke-linecap="round" stroke-linejoin="round"/>
<path d="M79.0371 28.2565C79.0371 25.137 81.5657 22.6084 84.6848 22.6084C87.8042 22.6084 90.3329 25.137 90.3329 28.2565C90.3329 31.3757 87.8042 33.9043 84.6848 33.9043C81.5659 33.9043 79.0371 31.3757 79.0371 28.2565Z" stroke="white" stroke-width="2.52632" stroke-miterlimit="10" stroke-linecap="round" stroke-linejoin="round"/>
</svg>
