<svg width="96" height="96" viewBox="0 0 96 96" fill="none" xmlns="http://www.w3.org/2000/svg">
<circle cx="59.0267" cy="31.1351" r="31.1351" fill="#FFBE2E"/>
<mask id="mask0_3197_20888" style="mask-type:luminance" maskUnits="userSpaceOnUse" x="0" y="0" width="96" height="96">
<path d="M0 7.62939e-06H96V96H0V7.62939e-06Z" fill="white"/>
</mask>
<g mask="url(#mask0_3197_20888)">
<path d="M84.5964 33.9011C83.3661 17.9342 70.6879 4.77077 54.7693 3.02289C34.4188 0.788266 17.1992 16.6643 17.1992 36.5625L11.5288 52.1559C10.6395 54.6017 12.4508 57.1875 15.0531 57.1875H17.1992C19.2703 57.1875 20.9492 58.8664 20.9492 60.9375V72.1875C20.9492 75.294 23.4675 77.8125 26.5742 77.8125H32.1992C35.3059 77.8125 37.8242 80.3308 37.8242 83.4375V93.1875H73.4492V74.9169C73.4492 67.7888 75.4459 60.7868 79.3181 54.8021C83.1632 48.8595 85.1927 41.6383 84.5964 33.9011Z" stroke="#3C2C0B" stroke-width="2.59459" strokeMiterlimit="10" stroke-linecap="round" stroke-linejoin="round"/>
<path d="M43.4492 60.9375C43.4492 64.044 40.9307 66.5625 37.8242 66.5625C34.7175 66.5625 32.1992 64.044 32.1992 60.9375C32.1992 57.831 34.7175 55.3125 37.8242 55.3125C40.9307 55.3125 43.4492 57.831 43.4492 60.9375Z" stroke="#3C2C0B" stroke-width="2.59459" strokeMiterlimit="10" stroke-linecap="round" stroke-linejoin="round"/>
<path d="M54.7703 3.02253C54.115 2.95053 53.4734 2.94903 52.8252 2.91415V26.8296C54.4812 25.8702 56.3986 25.3122 58.4502 25.3122C60.5016 25.3122 62.419 25.8702 64.0752 26.8296V5.48778C61.1532 4.24278 58.036 3.38103 54.7703 3.02253Z" stroke="#3C2C0B" stroke-width="2.59459" strokeMiterlimit="10" stroke-linecap="round" stroke-linejoin="round"/>
<path d="M58.3206 47.8059C57.3988 55.2062 51.0992 60.9375 43.4492 60.9375" stroke="#3C2C0B" stroke-width="2.59459" strokeMiterlimit="10" stroke-linecap="round" stroke-linejoin="round"/>
<path d="M69.7002 36.5625C69.7002 42.7757 64.6634 47.8125 58.4502 47.8125C52.237 47.8125 47.2002 42.7757 47.2002 36.5625C47.2002 30.3493 52.237 25.3125 58.4502 25.3125C64.6634 25.3125 69.7002 30.3493 69.7002 36.5625Z" stroke="#3C2C0B" stroke-width="2.59459" strokeMiterlimit="10" stroke-linecap="round" stroke-linejoin="round"/>
</g>
</svg>
