<svg width="96" height="96" viewBox="0 0 96 96" fill="none" xmlns="http://www.w3.org/2000/svg">
<path d="M8.11265 53.7465C7.3659 53.7465 6.75828 53.1409 6.78217 52.3946C6.94503 47.3068 8.02607 42.2865 9.97689 37.5768C12.1003 32.4503 15.2127 27.7923 19.1363 23.8687C23.0599 19.9451 27.7179 16.8328 32.8443 14.7093C37.9708 12.5859 43.4652 11.493 49.0141 11.493C54.5629 11.493 60.0573 12.5859 65.1838 14.7093C70.3102 16.8328 74.9682 19.9451 78.8918 23.8687C82.8154 27.7923 85.9278 32.4503 88.0512 37.5768C90.002 42.2865 91.0831 47.3068 91.2459 52.3946C91.2698 53.1409 90.6622 53.7465 89.9155 53.7465L49.0141 53.7465H8.11265Z" fill="#FFBE2E"/>
<path d="M48 24.2124C62.0402 24.2124 73.4218 35.5943 73.4218 49.6343C73.4218 51.2383 73.2716 52.8069 72.9876 54.3285L93.1875 54.3223C93.1875 44.6979 92.8526 41.4883 92.2153 38.3893L85.0843 37.2484C84.2889 34.4957 83.1829 31.8139 81.7633 29.2592L85.9481 23.3852C84.2218 20.7789 82.2105 18.3058 79.9144 16.0097C77.5896 13.6849 75.0834 11.6522 72.4412 9.91144L66.585 14.1521C64.0502 12.7588 61.3922 11.6721 58.6648 10.8909L57.4676 3.76125C54.4041 3.13913 51.2331 2.8125 47.9857 2.8125C44.6979 2.8125 41.4885 3.14738 38.3895 3.78469L37.2486 10.9155C34.5077 11.7075 31.8373 12.8076 29.2926 14.2185L23.4338 10.0444C20.8275 11.7707 18.3544 13.782 16.0581 16.0781C13.7332 18.4029 11.7006 20.9091 9.95981 23.5513L14.175 29.3724C12.7704 31.92 11.6764 34.5924 10.8907 37.335L3.76088 38.5322C3.13913 41.5959 2.8125 44.7668 2.8125 54.3508L23.0154 54.3444C22.7295 52.818 22.5782 51.2439 22.5782 49.6344C22.5782 35.5942 33.9598 24.2124 48 24.2124Z" stroke="#3C2C0B" stroke-width="2.70423" strokeMiterlimit="10" stroke-linecap="round" stroke-linejoin="round"/>
<path d="M23.0156 54.3444L72.9878 54.3286" stroke="#3C2C0B" stroke-width="2.70423" strokeMiterlimit="10" stroke-linecap="round" stroke-linejoin="round"/>
<path d="M34.0392 54.3453C33.8795 53.4922 33.7949 50.5501 33.7949 49.6506C33.7949 41.8047 40.1553 35.4443 48.0012 35.4443C55.8472 35.4443 62.2075 41.8047 62.2075 49.6506C62.2075 50.5471 62.1235 53.4861 61.9649 54.3365" stroke="#3C2C0B" stroke-width="2.70423" strokeMiterlimit="10" stroke-linecap="round" stroke-linejoin="round"/>
<path d="M10.3112 93.1873C14.4526 93.1873 17.8099 89.83 17.8099 85.6886C17.8099 81.5472 14.4526 78.1899 10.3112 78.1899C6.16978 78.1899 2.8125 81.5472 2.8125 85.6886C2.8125 89.83 6.16978 93.1873 10.3112 93.1873Z" stroke="#3C2C0B" stroke-width="2.70423" strokeMiterlimit="10" stroke-linecap="round" stroke-linejoin="round"/>
<path d="M17.8096 85.6886H27.9301V54.3223" stroke="#3C2C0B" stroke-width="2.70423" strokeMiterlimit="10" stroke-linecap="round" stroke-linejoin="round"/>
<path d="M47.9997 88.3455C52.1411 88.3455 55.4984 84.9882 55.4984 80.8468C55.4984 76.7054 52.1411 73.3481 47.9997 73.3481C43.8583 73.3481 40.501 76.7054 40.501 80.8468C40.501 84.9882 43.8583 88.3455 47.9997 88.3455Z" stroke="#3C2C0B" stroke-width="2.70423" strokeMiterlimit="10" stroke-linecap="round" stroke-linejoin="round"/>
<path d="M48 73.3483V54.3223" stroke="#3C2C0B" stroke-width="2.70423" strokeMiterlimit="10" stroke-linecap="round" stroke-linejoin="round"/>
<path d="M85.6891 93.1873C89.8305 93.1873 93.1878 89.83 93.1878 85.6886C93.1878 81.5472 89.8305 78.1899 85.6891 78.1899C81.5477 78.1899 78.1904 81.5472 78.1904 85.6886C78.1904 89.83 81.5477 93.1873 85.6891 93.1873Z" stroke="#3C2C0B" stroke-width="2.70423" strokeMiterlimit="10" stroke-linecap="round" stroke-linejoin="round"/>
<path d="M78.1908 85.6886H68.0703V54.3223" stroke="#3C2C0B" stroke-width="2.70423" strokeMiterlimit="10" stroke-linecap="round" stroke-linejoin="round"/>
</svg>
