<svg width="64" height="64" viewBox="0 0 64 64" fill="none" xmlns="http://www.w3.org/2000/svg">
<g clip-path="url(#clip0_219_93311)">
<rect x="4" y="17" width="45" height="46" rx="4" fill="#FFBE2E"/>
<path d="M57 1H47C46.447 1 46 1.448 46 2V3.988C45.031 3.254 43.793 2.869 42.468 3.033C41.77 1.802 40.45 1 39 1C37.55 1 36.23 1.802 35.532 3.033C32.948 2.71 30.684 4.481 30.131 6.872C28.71 5.914 27.053 5.285 25.268 5.079C25.545 4.194 26.032 3.382 26.707 2.707L25.293 1.293C24.247 2.34 23.541 3.633 23.213 5.039C21.334 5.171 19.553 5.769 18 6.785V2C18 1.448 17.553 1 17 1H7C6.447 1 6 1.448 6 2V62C6 62.553 6.447 63 7 63H57C57.553 63 58 62.553 58 62V2C58 1.448 57.553 1 57 1ZM56 3V7H48V3H56ZM17 23H23C23.334 23 23.646 22.833 23.832 22.555L25.535 20H38.465L40.168 22.555C40.354 22.833 40.666 23 41 23H47C47.553 23 48 22.552 48 22V9H56V56H8V9H16V22C16 22.552 16.447 23 17 23ZM33.892 11.22C34.242 11.08 34.613 11 35 11C35.253 11 35.521 11.044 35.845 11.14C36.102 11.215 36.376 11.185 36.611 11.057C36.844 10.929 37.017 10.711 37.09 10.455C37.334 9.598 38.119 9 39 9C39.881 9 40.666 9.598 40.91 10.455C40.983 10.711 41.156 10.929 41.389 11.057C41.623 11.186 41.9 11.216 42.155 11.14C42.479 11.044 42.747 11 43 11C44.654 11 46 12.346 46 14V21H43.148C44.35 19.245 45 17.173 45 15C45 14.448 44.553 14 44 14C41.153 14 38.478 15.108 36.465 17.122L35.586 18H34.811C34.932 17.343 35 16.675 35 16C35 14.286 34.594 12.668 33.892 11.22ZM41.12 20.378L39.832 18.446C39.646 18.167 39.334 18 39 18H38.469C39.748 16.933 41.288 16.265 42.936 16.064C42.743 17.648 42.115 19.129 41.12 20.378ZM35 5C35.253 5 35.521 5.044 35.845 5.14C36.102 5.216 36.376 5.186 36.611 5.057C36.844 4.929 37.017 4.711 37.09 4.455C37.334 3.598 38.119 3 39 3C39.881 3 40.666 3.598 40.91 4.455C40.983 4.711 41.156 4.929 41.389 5.057C41.623 5.186 41.9 5.217 42.155 5.14C42.479 5.044 42.747 5 43 5C44.654 5 46 6.346 46 8V9.99C45.031 9.256 43.793 8.871 42.468 9.033C41.77 7.802 40.45 7 39 7C37.55 7 36.23 7.802 35.532 9.033C34.583 8.916 33.668 9.091 32.847 9.49C32.605 9.162 32.346 8.848 32.069 8.549C32.036 8.369 32 8.187 32 8C32 6.346 33.346 5 35 5ZM23 7.059V9H25V7.059C29.493 7.559 33 11.376 33 16C33 16.68 32.899 17.346 32.75 18H25C24.666 18 24.354 18.167 24.168 18.445L22.465 21H18V9.305C19.404 8.043 21.135 7.263 23 7.059ZM16 3V7H8V3H16ZM8 61V58H56V61H8Z" fill="black"/>
<path d="M24 14C25.654 14 27 12.654 27 11V10H25V11C25 11.551 24.552 12 24 12C23.448 12 23 11.551 23 11V10H21V11C21 12.654 22.346 14 24 14Z" fill="black"/>
<path d="M26 39H38V41H26V39Z" fill="black"/>
<path d="M26 43H34V45H26V43Z" fill="black"/>
<path d="M26 35H38V37H26V35Z" fill="black"/>
<path d="M36 43H38V45H36V43Z" fill="black"/>
<path d="M32 52C38.617 52 44 46.617 44 40C44 33.383 38.617 28 32 28C25.383 28 20 33.383 20 40C20 46.617 25.383 52 32 52ZM32 30C37.514 30 42 34.486 42 40C42 45.514 37.514 50 32 50C26.486 50 22 45.514 22 40C22 34.486 26.486 30 32 30Z" fill="black"/>
</g>
<defs>
<clipPath id="clip0_219_93311">
<rect width="64" height="64" fill="white"/>
</clipPath>
</defs>
</svg>
