<svg width="60" height="110" viewBox="0 0 60 110" fill="none" xmlns="http://www.w3.org/2000/svg">
<g clip-path="url(#clip0_354_1551)">
<path d="M44.6585 110L-0.00390625 84.2134V8.74365L44.6585 34.5301V110Z" fill="#EBB12A"/>
<path d="M27.5849 30.8858L17.0664 24.8113V21.4282L27.5849 27.5027V30.8858Z" fill="#D9DDFD"/>
<path d="M13.2493 33.2151C13.154 34.4154 12.7751 35.1805 12.1176 35.5031C11.46 35.8283 10.5947 35.6791 9.52157 35.0607C8.29446 34.3518 7.32157 33.3227 6.6029 31.9709C5.88423 30.6191 5.52734 29.1476 5.52734 27.5538C5.52734 26.0627 5.88668 25.0287 6.61023 24.4543C7.33379 23.8798 8.33112 23.958 9.60712 24.6963C10.5189 25.2218 11.3207 25.9698 12.0149 26.9403C12.7091 27.9083 13.0953 28.9203 13.1785 29.9738L12.0418 29.3163C11.9122 28.5878 11.6311 27.9156 11.1936 27.2947C10.7585 26.6763 10.2207 26.1825 9.58512 25.8134C8.62445 25.2585 7.9009 25.2316 7.41201 25.7327C6.92557 26.2338 6.68112 27.0576 6.68112 28.2016C6.68112 29.4703 6.94023 30.6143 7.45601 31.6409C7.97423 32.6651 8.68068 33.4376 9.57534 33.9558C10.3087 34.3787 10.8953 34.4716 11.3305 34.2345C11.7656 33.9974 12.0271 33.4376 12.1176 32.5576L13.2542 33.2151H13.2493Z" fill="#3E4950"/>
<path d="M19.8435 38.5051C19.5281 40.0011 18.6212 40.3164 17.1204 39.4486C16.2012 38.9182 15.4801 38.1702 14.9595 37.2071C14.4388 36.2464 14.1797 35.1782 14.1797 34.0048C14.1797 32.8315 14.4486 32.0517 14.9839 31.6386C15.5217 31.2279 16.2208 31.2695 17.0837 31.7682C18.0444 32.3231 18.7557 33.1077 19.2201 34.1271C19.6846 35.1464 19.9168 36.2268 19.9168 37.3733V37.5395L15.221 34.8286L15.2088 34.9068C15.2088 35.672 15.3824 36.3711 15.7295 37.0115C16.0766 37.6495 16.5508 38.1433 17.157 38.4928C17.6092 38.7544 17.9661 38.8375 18.2277 38.7471C18.4892 38.6566 18.6946 38.3828 18.8388 37.9257L19.8435 38.5051ZM18.8535 35.9628C18.8046 35.2466 18.6237 34.6013 18.3084 34.0342C17.993 33.4646 17.5775 33.032 17.0617 32.7337C16.5606 32.4453 16.145 32.4013 15.815 32.6017C15.485 32.8022 15.287 33.2251 15.221 33.8655L18.8535 35.9628Z" fill="#3E4950"/>
<path d="M24.2653 35.9553V37.1848C24.192 37.1335 24.104 37.0773 23.9989 37.0186C23.6689 36.8279 23.3804 36.7204 23.1384 36.6984C22.8964 36.6739 22.7058 36.7155 22.564 36.8206C22.4222 36.9257 22.3073 37.0919 22.2193 37.3193C22.1313 37.5491 22.0727 37.7935 22.0433 38.0575C22.014 38.3191 22.0018 38.6295 22.0018 38.9839V42.0322L20.9727 41.4382V34.2246L21.9529 34.7893V36.3415C22.3635 35.4346 23.136 35.3051 24.2653 35.9577V35.9553Z" fill="#3E4950"/>
<path d="M30.3747 44.5842C30.0594 46.0802 29.1525 46.3955 27.6516 45.5277C26.7325 44.9973 26.0114 44.2493 25.4907 43.2862C24.97 42.3255 24.7109 41.2573 24.7109 40.0839C24.7109 38.9106 24.9798 38.1308 25.5152 37.7177C26.0529 37.3071 26.752 37.3486 27.6149 37.8473C28.5756 38.4022 29.2869 39.1868 29.7514 40.2062C30.2158 41.2255 30.448 42.3059 30.448 43.4524V43.6186L25.7523 40.9077L25.74 40.9859C25.74 41.751 25.9136 42.4502 26.2607 43.0906C26.6078 43.7286 27.082 44.2224 27.6883 44.5719C28.1405 44.8335 28.4974 44.9166 28.7589 44.8262C29.0205 44.7357 29.2258 44.4619 29.37 44.0048L30.3747 44.5842ZM29.3847 42.0419C29.3358 41.3257 29.1549 40.6804 28.8396 40.1133C28.5243 39.5437 28.1087 39.1111 27.5929 38.8128C27.0918 38.5244 26.6763 38.4804 26.3463 38.6808C26.0163 38.8813 25.8183 39.3042 25.7523 39.9446L29.3847 42.0419Z" fill="#3E4950"/>
<path d="M37.0722 49.7787V50.7002C36.862 50.6734 36.6273 50.5829 36.3707 50.4338C35.7816 50.094 35.4785 49.566 35.4638 48.8474C34.8747 49.2727 34.1193 49.2189 33.2002 48.686C32.5867 48.3316 32.1002 47.8696 31.7409 47.3C31.3816 46.728 31.2031 46.1267 31.2031 45.4936C31.2031 44.2078 31.9413 43.8851 33.4178 44.5231C34.2905 44.9045 34.794 45.1074 34.9309 45.1294C35.2218 45.1856 35.3782 45.0438 35.4027 44.704C35.41 44.6527 35.4149 44.594 35.4149 44.5305C35.4149 43.7385 34.9431 43.0711 33.9996 42.526C33.5156 42.2474 33.1489 42.1496 32.8971 42.2327C32.6478 42.3158 32.4962 42.6042 32.4498 43.098L31.4451 42.5187C31.4598 41.7536 31.6993 41.2916 32.1589 41.1278C32.6185 40.964 33.2516 41.1156 34.0582 41.58C34.9382 42.0885 35.5909 42.6996 36.0187 43.4109C36.1556 43.6382 36.2582 43.8925 36.3218 44.1736C36.3878 44.4523 36.422 44.6722 36.4318 44.8311C36.4391 44.99 36.444 45.2222 36.444 45.5302C36.444 45.8945 36.4367 46.4274 36.4196 47.1314C36.4049 47.8354 36.3951 48.3634 36.3951 48.7178C36.3951 48.9794 36.4245 49.1798 36.4856 49.3216C36.5467 49.4634 36.6567 49.5807 36.818 49.6736C36.8816 49.7103 36.9671 49.7469 37.0722 49.7787ZM35.4149 46.0265C35.3416 46.0485 35.2658 46.0607 35.1851 46.0607C35.1045 46.0607 35.0018 46.0387 34.8771 45.9947C34.7525 45.9507 34.6669 45.9214 34.6229 45.9116C34.5789 45.8994 34.4713 45.8578 34.3027 45.782C34.134 45.7087 34.0436 45.6671 34.0362 45.6647C33.7869 45.5571 33.6231 45.4887 33.5449 45.4569C33.4691 45.4276 33.3225 45.3836 33.1098 45.3249C32.8971 45.2662 32.7431 45.254 32.6551 45.2858C32.5671 45.3176 32.4791 45.3934 32.396 45.5058C32.3105 45.6207 32.2689 45.7894 32.2689 46.0118C32.2689 46.3858 32.3789 46.7427 32.6013 47.0849C32.8238 47.4271 33.1269 47.7107 33.5156 47.9331C34.0069 48.2167 34.4493 48.3022 34.8356 48.1922C35.2218 48.0798 35.4173 47.7962 35.4173 47.3391V46.0265H35.4149Z" fill="#3E4950"/>
<path d="M39.1273 41.9636V51.915L38.0859 51.3136V41.3623L39.1273 41.9636Z" fill="#3E4950"/>
<path d="M13.0676 39.2382V40.2404L10.7723 38.9156V40.1793L12.7669 41.3307V42.2816L10.7723 41.1302V43.3669L9.73828 42.7704V37.3193L13.0676 39.2407V39.2382Z" fill="#3E4950"/>
<path d="M17.0173 45.941V46.9677L13.6758 45.039V39.5879L14.7098 40.1843V44.6088L17.0173 45.941Z" fill="#3E4950"/>
<path d="M19.9508 43.2054L21.7475 49.7027L20.6597 49.0745L20.2882 47.642L18.5306 46.6276L18.1468 47.6225L17.0859 47.0089L18.8826 42.5869L19.9508 43.2029V43.2054ZM20.0388 46.6227L19.4155 44.2345L18.7848 45.8991L20.0388 46.6227Z" fill="#3E4950"/>
<path d="M26.3436 46.9039L24.4931 47.9868L26.5147 52.4552L25.2142 51.7048L23.7818 48.4268L23.178 48.7665V50.5265L22.1562 49.9374V44.4863L23.178 45.0754V47.3414L25.0334 46.1461L26.3387 46.9014L26.3436 46.9039Z" fill="#3E4950"/>
<path d="M30.4795 49.2872V50.2674L27.9666 48.8154V50.001L30.2742 51.3332V52.2743L27.9666 50.9421V52.2817L30.5259 53.7605V54.7628L26.9375 52.6923V47.2412L30.4795 49.2848V49.2872Z" fill="#3E4950"/>
<path d="M34.7293 53.3645L33.7467 52.7974C33.7076 52.2327 33.4093 51.7903 32.852 51.4676C32.6124 51.3307 32.4267 51.277 32.2922 51.3087C32.1578 51.3405 32.0893 51.453 32.0893 51.6485C32.0893 51.7145 32.0991 51.7781 32.1162 51.8392C32.1333 51.9003 32.1676 51.9663 32.2164 52.0396C32.2653 52.1105 32.3142 52.1741 32.3631 52.2303C32.412 52.2865 32.4829 52.3574 32.5782 52.4454C32.6736 52.5334 32.7591 52.6141 32.8373 52.6825C32.9156 52.7534 33.0231 52.8487 33.1649 52.971C33.3067 53.0932 33.4289 53.2032 33.5364 53.301C34.0009 53.7214 34.3456 54.1125 34.5753 54.4743C34.8027 54.8361 34.9176 55.2296 34.9176 55.6599C34.9176 55.9703 34.8613 56.2099 34.7513 56.381C34.6413 56.5496 34.4922 56.6474 34.304 56.6743C34.1158 56.7012 33.9104 56.6816 33.688 56.6156C33.4656 56.5496 33.226 56.4445 32.9742 56.3003C32.3338 55.9312 31.8327 55.4716 31.4733 54.9241C31.114 54.3765 30.9307 53.7923 30.9258 53.1714L31.9549 53.7654C31.972 54.4596 32.3289 55.0072 33.0231 55.4081C33.292 55.5645 33.5071 55.6232 33.6636 55.5816C33.82 55.5425 33.8982 55.4105 33.8982 55.1856C33.8982 54.9974 33.8273 54.8165 33.6831 54.6479C33.5389 54.4792 33.2382 54.1834 32.7787 53.7654C32.7029 53.7019 32.6467 53.6505 32.6051 53.6114C32.4462 53.4672 32.3362 53.367 32.2727 53.3083C32.2116 53.2496 32.1113 53.1543 31.9769 53.0199C31.8424 52.8854 31.7447 52.7779 31.6811 52.6972C31.62 52.6165 31.5418 52.509 31.4513 52.3745C31.3609 52.2401 31.2949 52.1179 31.2558 52.0054C31.2167 51.893 31.18 51.7634 31.1458 51.6143C31.114 51.4652 31.0969 51.3136 31.0969 51.1596C31.0969 50.6634 31.2631 50.3652 31.5931 50.2601C31.9256 50.155 32.3656 50.2601 32.9131 50.5779C33.4436 50.8834 33.8762 51.2794 34.2136 51.761C34.5509 52.2425 34.722 52.7779 34.7318 53.3645H34.7293Z" fill="#3E4950"/>
<path d="M40.1845 82.3313C40.1845 93.7151 32.1863 98.3326 22.3254 92.642C12.467 86.9488 4.46875 73.0962 4.46875 61.7124L40.1845 82.3337V82.3313Z" fill="#D9DDFD"/>
<path d="M40.1811 82.3289C40.1811 83.0207 39.4698 83.2676 38.2255 83.1307C35.2751 82.7763 29.2618 80.2512 22.3195 76.2423C14.5878 71.7787 7.99266 66.8043 5.5311 63.7609V63.7438C4.85155 62.9152 4.47266 62.2234 4.47266 61.7125C4.47266 59.3805 12.4562 62.0963 22.3195 67.7894C32.1829 73.4825 40.1811 79.9969 40.1811 82.3289Z" fill="white"/>
<path d="M38.2257 83.1308C37.1208 83.0037 35.5906 82.5563 33.7597 81.8817C30.6675 80.6961 26.6757 78.7577 22.3197 76.2423C17.5701 73.4997 13.2313 70.5566 10.0437 68.007C8.03925 66.3937 6.47725 64.927 5.53125 63.761V63.7439C5.57769 62.9152 9.63303 65.037 16.3088 66.7237C18.9586 67.3788 22.305 70.4417 24.9866 72.1528C26.0279 72.8079 26.9739 73.5559 28.8537 75.0592C32.2295 77.7383 36.3655 81.053 38.2281 83.1308H38.2257Z" fill="#E3AB51"/>
<path d="M33.7629 81.8817C30.6707 80.6962 26.6789 78.7577 22.3229 76.2424C17.5733 73.4997 13.2344 70.5566 10.0469 68.0071C11.8607 67.8702 15.3342 68.782 18.6147 70.7131C21.9122 72.654 22.56 74.1573 27.8302 77.4011C29.5193 78.4302 30.6242 78.9948 32.3109 80.4982C32.768 80.9088 33.274 81.3806 33.7629 81.8817Z" fill="#D5932E"/>
<path d="M18.7543 67.7941C18.8643 69.3463 18.0136 71.4803 16.74 70.8717C15.4665 70.263 14.2418 67.1341 14.1318 65.5819C14.1147 65.335 14.1318 65.1248 14.1611 64.9194C14.518 66.5352 15.5643 68.8452 16.6325 69.3585C17.7007 69.8694 18.4805 68.4321 18.6247 67.0559C18.6883 67.3052 18.7347 67.5472 18.7543 67.7941Z" fill="#D40909"/>
<path d="M18.6237 67.0563C18.4795 68.4325 17.6997 69.8698 16.6315 69.3589C15.5633 68.848 14.517 66.538 14.1602 64.9198C14.3264 63.8467 15.177 63.4116 16.2453 63.9249C17.3135 64.4358 18.2888 65.7436 18.6237 67.0563Z" fill="#DD5555"/>
<path d="M18.2916 66.6404C18.2916 66.6404 17.2136 66.1466 16.3434 65.3033C15.5343 65.3424 14.4538 64.8021 14.4538 64.8021C14.4538 64.8021 14.3536 64.0224 14.9501 63.7413C14.273 62.8515 14.2656 62.1328 14.2656 62.1328C14.2656 62.1328 15.3314 62.6119 16.2041 63.4553C17.0132 63.4161 18.1058 63.9686 18.1058 63.9686C18.1058 63.9686 18.1938 64.7361 17.5974 65.0148C18.2745 65.9046 18.2941 66.6379 18.2941 66.6379L18.2916 66.6404Z" fill="#99E871"/>
<path d="M30.6051 79.1414C29.3365 78.7063 26.98 76.6725 26.7258 75.0812C26.4716 73.4874 28.4125 72.9252 29.6811 73.3603C29.8816 73.4287 30.0747 73.5314 30.2678 73.6536C29.0969 73.5509 27.7476 74.167 27.9627 75.5041C28.1778 76.8412 29.8889 78.5058 31.1625 79.2392C30.9865 79.2343 30.808 79.2098 30.6051 79.1414Z" fill="#D40909"/>
<path d="M31.1601 79.2391C29.889 78.5058 28.1754 76.8411 27.9603 75.504C27.7452 74.1669 29.0945 73.5484 30.2654 73.6535C31.2896 74.3013 32.1843 75.6873 32.397 77.0244C32.6121 78.3615 32.0816 79.2587 31.1576 79.2415L31.1601 79.2391Z" fill="#DD5555"/>
<path d="M31.3144 78.9215C31.3144 78.9215 31.0798 77.5648 31.2729 76.6359C30.7424 75.4602 30.5469 74.1182 30.5469 74.1182C30.5469 74.1182 31.158 74.2722 31.7618 75.2328C32.1113 74.5997 32.7273 74.8637 32.7273 74.8637C32.7273 74.8637 32.9669 76.2082 32.7738 77.1371C33.3042 78.3128 33.4949 79.6671 33.4949 79.6671C33.4949 79.6671 32.8887 79.5008 32.2849 78.5402C31.9353 79.1733 31.3144 78.9215 31.3144 78.9215Z" fill="#99E871"/>
<path d="M24.0978 69.8181C24.8433 71.2017 25.4447 73.8588 24.6282 74.2377C23.8118 74.6166 21.8831 72.5804 21.1376 71.1968C21.0202 70.9768 20.9298 70.7666 20.8516 70.549C21.7316 71.8079 23.2153 73.2061 23.9022 72.8883C24.5867 72.5681 24.2713 70.6272 23.7116 69.2168C23.8509 69.405 23.9805 69.5981 24.0978 69.8181Z" fill="#D40909"/>
<path d="M23.7088 69.2169C24.2661 70.6249 24.5839 72.5682 23.8995 72.8884C23.215 73.2087 21.7288 71.808 20.8488 70.5491C20.4357 69.41 20.6019 68.3613 21.2863 68.0435C21.9708 67.7258 22.973 68.2293 23.7088 69.2169Z" fill="#DD5555"/>
<path d="M23.3831 69.0728C23.3831 69.0728 22.7035 69.415 21.9531 69.2732C21.628 69.9186 20.924 70.2192 20.924 70.2192C20.924 70.2192 20.5304 69.5568 20.6575 68.8455C19.9682 68.5155 19.6406 67.8383 19.6406 67.8383C19.6406 67.8383 20.3104 67.4912 21.0608 67.6355C21.386 66.9901 22.0997 66.6919 22.0997 66.6919C22.0997 66.6919 22.4811 67.3495 22.3564 68.0608C23.0457 68.3908 23.3831 69.0703 23.3831 69.0703V69.0728Z" fill="#99E871"/>
<path d="M28.3142 58.8766L16.3438 51.9637V51.2842L28.3142 58.1946V58.8766Z" fill="#E58D21"/>
<path d="M28.3142 60.5783L16.3438 53.6654V52.9858L28.3142 59.8987V60.5783Z" fill="#E58D21"/>
<path d="M26.1124 61.0082L18.5469 56.6376V55.958L26.1124 60.3287V61.0082Z" fill="#E58D21"/>
<path d="M10.4912 87.9464L2.66406 83.4266V81.1802L10.4912 85.7V87.9464Z" fill="#3E4950"/>
<path d="M59.8514 101.232L44.6641 110V34.5304L59.8514 25.7622V101.232Z" fill="#E58D21"/>
<path d="M56.0201 35.0264L48.4961 39.3702V35.4102L56.0201 31.0664V35.0264Z" fill="#8A8DBD"/>
<path d="M54.9848 34.5276L49.5312 37.676V35.9087L54.9848 32.7603V34.5276Z" fill="#A90000"/>
<path d="M56.9286 44.4351L47.5859 49.83V47.0775L56.9286 41.6826V44.4351Z" fill="#2E353A"/>
<path d="M53.4355 50.6807L47.5859 54.0589V51.304L53.4355 47.9282V50.6807Z" fill="#2E353A"/>
<path d="M56.9286 52.2722L47.5859 57.667V56.7308L56.9286 51.3384V52.2722Z" fill="#2E353A"/>
<path d="M56.9286 54.6921L47.5859 60.0845V59.1507L56.9286 53.7559V54.6921Z" fill="#2E353A"/>
<path d="M56.9286 57.1096L47.5859 62.5044V61.5682L56.9286 56.1758V57.1096Z" fill="#2E353A"/>
<path d="M56.9286 59.5295L47.5859 64.9219V63.9881L56.9286 58.5933V59.5295Z" fill="#2E353A"/>
<path d="M56.9286 61.947L47.5859 67.3418V66.4056L56.9286 61.0132V61.947Z" fill="#2E353A"/>
<path d="M56.9286 64.3674L47.5859 69.7598V68.826L56.9286 63.4312V64.3674Z" fill="#2E353A"/>
<path d="M56.9286 66.7848L47.5859 72.1797V71.2435L56.9286 65.8511V66.7848Z" fill="#2E353A"/>
<path d="M54.3008 70.7204L47.5859 74.5973V73.6635L54.3008 69.7866V70.7204Z" fill="#2E353A"/>
<path d="M56.9286 74.0886L47.5859 79.4835V78.5497L56.9286 73.1548V74.0886Z" fill="#2E353A"/>
<path d="M56.9286 76.5085L47.5859 81.9034V80.9672L56.9286 75.5747V76.5085Z" fill="#2E353A"/>
<path d="M56.9286 78.9289L47.5859 84.3213V83.3876L56.9286 77.9927V78.9289Z" fill="#2E353A"/>
<path d="M56.9286 81.3464L47.5859 86.7413V85.805L56.9286 80.4126V81.3464Z" fill="#2E353A"/>
<path d="M54.3008 85.2819L47.5859 89.1588V88.225L54.3008 84.3457V85.2819Z" fill="#2E353A"/>
<path d="M56.9286 89.9627L47.5859 95.3552V93.5365L56.9286 88.1416V89.9627Z" fill="#2E353A"/>
<path d="M-0.00390625 8.76822L15.1834 0L59.8459 25.7864L44.6585 34.5547L-0.00390625 8.76822Z" fill="#F3D35A"/>
<path d="M6.59766 4.95748L8.58255 3.81104L53.245 29.5975L51.2601 30.7439L6.59766 4.95748Z" fill="#EBB12A"/>
<path d="M36.9988 23.8799L46.9183 29.6072L43.5719 31.5408L33.6523 25.8134L36.9988 23.8799Z" fill="#D9DDFD"/>
<path d="M9.15493 10.2031L19.3043 16.0649L18.0087 16.8105L7.85938 10.9511L9.15493 10.2031Z" fill="#61727F"/>
<path d="M11.2604 8.98828L21.4097 14.8476L20.1142 15.5956L9.96484 9.73628L11.2604 8.98828Z" fill="#61727F"/>
<path d="M15.9404 1.95557L22.9022 5.97668L21.7313 6.65134L14.7695 2.63268L15.9404 1.95557Z" fill="#61727F"/>
</g>
<defs>
<clipPath id="clip0_354_1551">
<rect width="59.8498" height="110" fill="white"/>
</clipPath>
</defs>
</svg>
