<svg width="64" height="64" viewBox="0 0 64 64" fill="none" xmlns="http://www.w3.org/2000/svg">
<g clip-path="url(#clip0_219_93261)">
<rect x="10" y="29" width="35" height="35" rx="4" fill="#FFBE2E"/>
<path d="M48.7773 30.5076C48.5301 30.5076 48.2884 30.5809 48.0829 30.7182C47.8773 30.8556 47.7171 31.0508 47.6225 31.2792C47.5279 31.5076 47.5031 31.759 47.5514 32.0014C47.5996 32.2439 47.7186 32.4666 47.8935 32.6415C48.0683 32.8163 48.291 32.9353 48.5335 32.9836C48.776 33.0318 49.0273 33.007 49.2557 32.9124C49.4841 32.8178 49.6793 32.6576 49.8167 32.452C49.954 32.2465 50.0273 32.0048 50.0273 31.7576C50.0273 31.426 49.8956 31.1081 49.6612 30.8737C49.4268 30.6393 49.1089 30.5076 48.7773 30.5076Z" fill="black"/>
<path d="M48.7773 35.2755C48.5301 35.2755 48.2884 35.3488 48.0829 35.4862C47.8773 35.6235 47.7171 35.8187 47.6225 36.0472C47.5279 36.2756 47.5031 36.5269 47.5514 36.7694C47.5996 37.0119 47.7186 37.2346 47.8935 37.4094C48.0683 37.5842 48.291 37.7033 48.5335 37.7515C48.776 37.7997 49.0273 37.775 49.2557 37.6804C49.4841 37.5858 49.6793 37.4255 49.8167 37.22C49.954 37.0144 50.0273 36.7727 50.0273 36.5255C50.0273 36.194 49.8956 35.876 49.6612 35.6416C49.4268 35.4072 49.1089 35.2755 48.7773 35.2755Z" fill="black"/>
<path d="M35.2461 47.806C34.9989 47.806 34.7572 47.8793 34.5516 48.0167C34.3461 48.154 34.1859 48.3493 34.0912 48.5777C33.9966 48.8061 33.9719 49.0574 34.0201 49.2999C34.0683 49.5424 34.1874 49.7651 34.3622 49.9399C34.537 50.1147 34.7598 50.2338 35.0022 50.282C35.2447 50.3302 35.496 50.3055 35.7244 50.2109C35.9529 50.1163 36.1481 49.9561 36.2854 49.7505C36.4228 49.5449 36.4961 49.3033 36.4961 49.056C36.4961 48.7245 36.3644 48.4066 36.13 48.1721C35.8956 47.9377 35.5776 47.806 35.2461 47.806Z" fill="black"/>
<path d="M35.2461 52.5745C34.9989 52.5745 34.7572 52.6478 34.5516 52.7851C34.3461 52.9225 34.1859 53.1177 34.0912 53.3461C33.9966 53.5745 33.9719 53.8258 34.0201 54.0683C34.0683 54.3108 34.1874 54.5335 34.3622 54.7083C34.537 54.8832 34.7598 55.0022 35.0022 55.0504C35.2447 55.0987 35.496 55.0739 35.7244 54.9793C35.9529 54.8847 36.1481 54.7245 36.2854 54.5189C36.4228 54.3134 36.4961 54.0717 36.4961 53.8245C36.4961 53.4929 36.3644 53.175 36.13 52.9406C35.8956 52.7062 35.5776 52.5745 35.2461 52.5745Z" fill="black"/>
<path d="M8.55859 21.8525V59.286C8.58036 60.2314 8.96574 61.132 9.63458 61.8004C10.3034 62.4689 11.2042 62.8538 12.1496 62.875H51.5996C52.1373 62.877 52.6621 62.7101 53.0999 62.3978C53.5376 62.0855 53.8663 61.6436 54.0394 61.1346C54.2125 60.6255 54.2214 60.0749 54.0648 59.5604C53.9082 59.046 53.594 58.5938 53.1666 58.2675C53.8742 57.6654 54.4446 56.9186 54.8393 56.0775C55.2341 55.2365 55.444 54.3205 55.4551 53.3915V32.4915C55.4573 31.6708 55.2968 30.8578 54.9827 30.0995C54.6687 29.3413 54.2074 28.6528 53.6256 28.074L53.1666 27.615C53.594 27.2887 53.9082 26.8365 54.0648 26.3221C54.2214 25.8076 54.2125 25.257 54.0394 24.7479C53.8663 24.2389 53.5376 23.797 53.0999 23.4847C52.6621 23.1724 52.1373 23.0055 51.5996 23.0075H36.3066V21.8525C36.2993 19.4693 35.3847 17.1784 33.7488 15.4454C32.1129 13.7125 29.8784 12.6675 27.4996 12.523V9.556C28.1414 9.50696 28.7411 9.21788 29.1792 8.74639C29.6173 8.2749 29.8617 7.65563 29.8636 7.012V3.6895C29.8628 3.00968 29.5924 2.35793 29.1118 1.87718C28.6311 1.39643 27.9794 1.12593 27.2996 1.125H17.5641C16.8842 1.12579 16.2324 1.39624 15.7516 1.877C15.2708 2.35777 15.0004 3.0096 14.9996 3.6895V7.012C15.0015 7.65563 15.2459 8.2749 15.684 8.74639C16.1221 9.21788 16.7218 9.50696 17.3636 9.556V12.523C14.9839 12.6646 12.748 13.7087 11.1118 15.4424C9.47555 17.1761 8.56241 19.4686 8.55859 21.8525ZM53.7086 48.613C51.9386 48.7005 50.0586 47.93 48.1086 46.313C42.0301 41.27 36.4841 40.837 30.3136 44.988V32.5245C35.2136 32.198 39.8551 36.08 45.1901 40.558C47.6971 42.6625 50.1431 44.8775 53.7061 45.096L53.7086 48.613ZM28.5636 40.2735C28.0673 38.8158 27.0696 37.5817 25.7483 36.791C24.427 36.0002 22.8679 35.7043 21.3487 35.9558C19.8295 36.2073 18.449 36.99 17.4531 38.1644C16.4571 39.3388 15.9105 40.8287 15.9105 42.3685C15.9105 43.9083 16.4571 45.3982 17.4531 46.5726C18.449 47.747 19.8295 48.5297 21.3487 48.7812C22.8679 49.0327 24.427 48.7368 25.7483 47.946C27.0696 47.1553 28.0673 45.9212 28.5636 44.4635V51.991H10.3086V32.596H28.5636V40.2735ZM27.1666 42.3685C27.1666 43.308 26.888 44.2263 26.3661 45.0075C25.8441 45.7886 25.1023 46.3974 24.2343 46.7569C23.3664 47.1164 22.4113 47.2105 21.4899 47.0272C20.5685 46.8439 19.7221 46.3916 19.0578 45.7273C18.3935 45.063 17.9411 44.2166 17.7579 43.2952C17.5746 42.3738 17.6686 41.4187 18.0282 40.5508C18.3877 39.6828 18.9965 38.941 19.7776 38.419C20.5588 37.8971 21.4771 37.6185 22.4166 37.6185C23.6758 37.6203 24.8829 38.1214 25.7733 39.0118C26.6637 39.9022 27.1647 41.1093 27.1666 42.3685ZM10.3531 21.0395C11.9891 20.6688 13.685 20.6489 15.3292 20.9809C16.9734 21.313 18.5287 21.9895 19.8926 22.966C16.8861 24.7025 13.6636 26.0346 10.3086 26.928V21.8525C10.309 21.5809 10.3239 21.3095 10.3531 21.0395ZM10.3086 59.25V53.74H28.5816C28.7496 56.4675 30.7956 58.186 30.8526 58.2665C30.5397 58.5048 30.2858 58.812 30.1107 59.1642C29.9355 59.5164 29.8438 59.9042 29.8426 60.2975C29.8463 60.5794 29.897 60.8588 29.9926 61.124H12.1496C11.6618 61.1046 11.1998 60.9 10.8578 60.5518C10.5157 60.2036 10.3193 59.738 10.3086 59.25ZM51.5996 61.125H32.4191C32.1999 61.125 31.9897 61.0379 31.8347 60.8829C31.6797 60.7279 31.5926 60.5177 31.5926 60.2985C31.5926 60.0793 31.6797 59.8691 31.8347 59.7141C31.9897 59.5591 32.1999 59.472 32.4191 59.472H51.5996C51.8188 59.472 52.029 59.5591 52.184 59.7141C52.339 59.8691 52.4261 60.0793 52.4261 60.2985C52.4261 60.5177 52.339 60.7279 52.184 60.8829C52.029 61.0379 51.8188 61.125 51.5996 61.125ZM51.2376 57.722H32.7811C32.2736 57.1255 30.3136 55.7945 30.3136 53.3915V47.1415C36.2231 42.726 41.2321 42.882 46.9886 47.6585C48.9196 49.2585 51.1886 50.4585 53.7061 50.361V53.392C53.7061 55.9685 51.8166 56.989 51.2386 57.722H51.2376ZM53.7051 32.4925V43.35C50.7136 43.117 48.4381 41 46.3141 39.217C40.8406 34.623 36.0581 30.612 30.6641 30.7465C30.8898 30.2101 31.2179 29.7228 31.6301 29.312L32.7801 28.162H51.2371L52.3871 29.312C52.8064 29.7285 53.1389 30.2241 53.3653 30.7701C53.5917 31.316 53.7075 31.9015 53.7061 32.4925H53.7051ZM52.4271 25.585C52.427 25.8042 52.3398 26.0143 52.1849 26.1693C52.0299 26.3242 51.8198 26.4114 51.6006 26.4115H32.4191C32.1999 26.4115 31.9897 26.3244 31.8347 26.1694C31.6797 26.0144 31.5926 25.8042 31.5926 25.585C31.5926 25.3658 31.6797 25.1556 31.8347 25.0006C31.9897 24.8456 32.1999 24.7585 32.4191 24.7585H51.5996C51.8189 24.7585 52.0292 24.8455 52.1844 25.0005C52.3395 25.1555 52.4268 25.3657 52.4271 25.585ZM32.4191 23.0085C31.8813 23.0063 31.3563 23.1731 30.9184 23.4854C30.4805 23.7977 30.1518 24.2396 29.9787 24.7488C29.8056 25.258 29.7968 25.8088 29.9536 26.3232C30.1104 26.8377 30.4249 27.2899 30.8526 27.616L30.3936 28.075C29.6253 28.8423 29.0717 29.7978 28.7881 30.846H10.3086V28.732C23.2401 25.4635 25.9381 18.35 34.4376 20.5545C34.5144 20.9836 34.5542 21.4186 34.5566 21.8545V23.0105L32.4191 23.0085ZM33.8291 18.6265C28.9291 17.699 25.7911 19.5535 21.5561 22.014C20.0523 20.8328 18.3233 19.971 16.4748 19.4814C14.6264 18.9918 12.6974 18.8846 10.8061 19.1665C11.3519 17.7218 12.3242 16.4774 13.5939 15.5983C14.8637 14.7193 16.3708 14.2473 17.9151 14.245C18.2531 14.245 26.7476 14.2565 26.8036 14.245C26.8536 14.2605 31.6431 13.9845 33.8291 18.6265ZM25.7496 12.495H19.1136V9.5765H25.7496V12.495ZM16.7496 7.012V3.6895C16.7499 3.47356 16.8358 3.26654 16.9884 3.11385C17.1411 2.96116 17.3482 2.87526 17.5641 2.875H27.2996C27.5155 2.87526 27.7225 2.96116 27.8752 3.11385C28.0279 3.26654 28.1138 3.47356 28.1141 3.6895V7.012C28.1138 7.22794 28.0279 7.43496 27.8752 7.58765C27.7225 7.74034 27.5155 7.82624 27.2996 7.8265H17.5641C17.3482 7.82624 17.1411 7.74034 16.9884 7.58765C16.8358 7.43496 16.7499 7.22794 16.7496 7.012Z" fill="black"/>
</g>
<defs>
<clipPath id="clip0_219_93261">
<rect width="64" height="64" fill="white"/>
</clipPath>
</defs>
</svg>
