<svg width="64" height="64" viewBox="0 0 64 64" fill="none" xmlns="http://www.w3.org/2000/svg">
<g clip-path="url(#clip0_219_93329)">
<rect x="4" y="30" width="24" height="35" rx="4" fill="#FFBE2E"/>
<rect x="37" y="20" width="24" height="19" rx="4" fill="#FFBE2E"/>
<path d="M18.5304 19.638C23.6261 19.638 27.7716 15.4925 27.7716 10.3966C27.7716 5.30102 23.6261 1.15552 18.5304 1.15552C13.4346 1.15552 9.28906 5.30102 9.28906 10.3966C9.28894 15.4925 13.4346 19.638 18.5304 19.638ZM18.5304 2.36502C22.9589 2.36502 26.5619 5.96814 26.5619 10.3965C26.5619 14.8253 22.9588 18.4284 18.5304 18.4284C14.1017 18.4284 10.4986 14.8253 10.4986 10.3965C10.4986 5.96814 14.1017 2.36502 18.5304 2.36502Z" fill="black"/>
<path d="M7.528 62.8432H29.5259C30.5303 62.8432 31.4156 62.3582 31.987 61.6192C32.5159 62.3582 33.3764 62.8447 34.3524 62.8447H56.6772C58.2835 62.8447 59.5901 61.5379 59.5901 59.9318V40.7167C59.5901 39.7729 59.1317 38.9412 58.4339 38.4085C59.1317 37.8759 59.5901 37.0442 59.5901 36.1004V16.8855C59.5901 15.2793 58.2834 13.9727 56.6772 13.9727C48.1956 13.9727 41.5251 13.9727 34.3524 13.9727C32.7461 13.9727 31.4395 15.2794 31.4395 16.8855V22.5704C30.9092 22.1549 30.2502 21.8967 29.5259 21.8967C22.1575 21.8967 15.6213 21.8967 7.528 21.8967C5.80662 21.8967 4.40625 23.297 4.40625 25.0184V59.7214C4.40625 61.4428 5.80662 62.8432 7.528 62.8432ZM58.3806 40.7167V59.9315C58.3806 60.8707 57.6164 61.6349 56.6772 61.6349H34.3525C33.4134 61.6349 32.6491 60.8707 32.6491 59.9315V40.7167C32.6491 39.7775 33.4134 39.0133 34.3525 39.0133H41.398V47.3204C41.398 47.5558 41.5344 47.7695 41.7476 47.8688C41.9611 47.9677 42.2125 47.9347 42.3923 47.7829L45.5149 45.1525L48.6375 47.7829C48.817 47.9348 49.0686 47.9679 49.2821 47.8688C49.4954 47.7695 49.6317 47.5558 49.6317 47.3204V39.0133H56.6772C57.6164 39.0134 58.3806 39.7777 58.3806 40.7167ZM42.6075 39.0134H48.4221V46.0203L45.9042 43.8994C45.7917 43.8047 45.6532 43.757 45.5147 43.757C45.3762 43.757 45.2377 43.8045 45.1252 43.8994L42.6074 46.0203V39.0134H42.6075ZM48.4222 15.1822V22.189L45.9044 20.0682C45.7919 19.9734 45.6534 19.9258 45.5149 19.9258C45.3764 19.9258 45.2379 19.9733 45.1254 20.0682L42.6075 22.189V15.1822H48.4222ZM32.6491 16.8855C32.6491 15.9464 33.4134 15.1822 34.3525 15.1822H41.398V23.4893C41.398 23.7247 41.5344 23.9384 41.7476 24.0377C41.9611 24.1363 42.2125 24.1038 42.3923 23.9518L45.5149 21.3214L48.6375 23.9518C48.817 24.1037 49.0686 24.1368 49.2821 24.0377C49.4954 23.9384 49.6317 23.7247 49.6317 23.4893V15.1822H56.6772C57.6164 15.1822 58.3806 15.9464 58.3806 16.8855V36.1004C58.3806 37.0395 57.6164 37.8038 56.6772 37.8038C49.716 37.8038 42.9196 37.8038 34.3524 37.8038C33.4132 37.8038 32.649 37.0395 32.649 36.1004V16.8855H32.6491ZM21.4344 23.1062V30.113L18.9165 27.9922C18.804 27.8974 18.6655 27.8498 18.527 27.8498C18.3885 27.8498 18.25 27.8973 18.1375 27.9922L15.6196 30.113V23.1062H21.4344ZM5.61588 25.0183C5.61588 23.964 6.47375 23.1062 7.528 23.1062H14.4102V31.4133C14.4102 31.6487 14.5466 31.8624 14.7599 31.9617C14.9734 32.0609 15.2247 32.0282 15.4045 31.8758L18.5271 29.2454L21.6497 31.8758C21.8293 32.0277 22.0809 32.0608 22.2944 31.9617C22.5076 31.8624 22.644 31.6487 22.644 31.4133V23.1062H29.5259C30.5801 23.1062 31.438 23.964 31.438 25.0183V59.7213C31.438 60.7755 30.5801 61.6334 29.5259 61.6334H7.528C6.47375 61.6334 5.61588 60.7755 5.61588 59.7213V25.0183Z" fill="black"/>
<path d="M13.7319 55.0063H8.65162C8.31762 55.0063 8.04688 55.2771 8.04688 55.6111C8.04688 55.9451 8.31762 56.2158 8.65162 56.2158H13.7319C14.0659 56.2158 14.3366 55.9451 14.3366 55.6111C14.3366 55.2771 14.0659 55.0063 13.7319 55.0063Z" fill="black"/>
<path d="M13.7319 57.7644H8.65162C8.31762 57.7644 8.04688 58.0352 8.04688 58.3692C8.04688 58.7032 8.31762 58.9739 8.65162 58.9739H13.7319C14.0659 58.9739 14.3366 58.7032 14.3366 58.3692C14.3366 58.0352 14.0659 57.7644 13.7319 57.7644Z" fill="black"/>
<path d="M35.9758 56.216H41.0561C41.3901 56.216 41.6608 55.9452 41.6608 55.6112C41.6608 55.2772 41.3901 55.0065 41.0561 55.0065H35.9758C35.6418 55.0065 35.3711 55.2772 35.3711 55.6112C35.3711 55.9452 35.6418 56.216 35.9758 56.216Z" fill="black"/>
<path d="M38.7881 57.7644H35.9758C35.6418 57.7644 35.3711 58.0352 35.3711 58.3692C35.3711 58.7032 35.6418 58.9739 35.9758 58.9739H38.7881C39.1221 58.9739 39.3928 58.7032 39.3928 58.3692C39.3928 58.0352 39.1221 57.7644 38.7881 57.7644Z" fill="black"/>
<path d="M35.9758 32.6048H41.0561C41.3901 32.6048 41.6608 32.334 41.6608 32C41.6608 31.666 41.3901 31.3953 41.0561 31.3953H35.9758C35.6418 31.3953 35.3711 31.666 35.3711 32C35.3711 32.334 35.6418 32.6048 35.9758 32.6048Z" fill="black"/>
<path d="M35.9758 35.3628H38.7881C39.1221 35.3628 39.3928 35.0921 39.3928 34.7581C39.3928 34.4241 39.1221 34.1533 38.7881 34.1533H35.9758C35.6418 34.1533 35.3711 34.4241 35.3711 34.7581C35.3711 35.0921 35.6418 35.3628 35.9758 35.3628Z" fill="black"/>
<path d="M14.5905 8.23666L16.3244 9.97054C16.4425 10.0887 16.5973 10.1477 16.752 10.1477C16.9068 10.1477 17.0615 10.0887 17.1797 9.97054C17.4159 9.73429 17.4159 9.35154 17.1797 9.11529L16.478 8.41366H22.0423C22.3763 8.41366 22.647 8.14291 22.647 7.80891C22.647 7.47491 22.3763 7.20416 22.0423 7.20416H16.4779L17.1797 6.50216C17.4159 6.26591 17.4159 5.88291 17.1797 5.64691C16.9434 5.41066 16.5607 5.41066 16.3244 5.64691L14.5905 7.38104C14.5347 7.43679 14.4905 7.50366 14.4599 7.57766C14.3988 7.72554 14.3988 7.89204 14.4599 8.03991C14.4905 8.11391 14.5348 8.18091 14.5905 8.23666Z" fill="black"/>
<path d="M19.8811 14.2912C19.6448 14.5272 19.6448 14.9102 19.8811 15.1464C19.9992 15.2646 20.1539 15.3236 20.3087 15.3236C20.4634 15.3236 20.6182 15.2646 20.7363 15.1464L22.4704 13.4126C22.5258 13.3572 22.5701 13.2911 22.6008 13.2176C22.6314 13.1444 22.6478 13.0654 22.6478 12.9847C22.6478 12.9039 22.6313 12.8249 22.6008 12.7518C22.5702 12.6784 22.5259 12.6122 22.4704 12.5568L20.7363 10.8229C20.5001 10.5867 20.1173 10.5867 19.8811 10.8229C19.6448 11.0592 19.6448 11.4422 19.8811 11.6782L20.5827 12.3798H15.0188C14.6848 12.3798 14.4141 12.6506 14.4141 12.9846C14.4141 13.3186 14.6848 13.5893 15.0188 13.5893H20.5827L19.8811 14.2912Z" fill="black"/>
</g>
<defs>
<clipPath id="clip0_219_93329">
<rect width="64" height="64" fill="white"/>
</clipPath>
</defs>
</svg>
