<svg width="64" height="64" viewBox="0 0 64 64" fill="none" xmlns="http://www.w3.org/2000/svg">
<rect x="1" y="20" width="35" height="44" rx="3" fill="#FFBE2E"/>
<path d="M60.2071 42.3454L56.8941 38.4811C56.7828 38.3503 56.7187 38.1804 56.7187 38.0078V36.3652H57.4454C57.8463 36.3652 58.172 36.0395 58.172 35.6386V32.7293C58.172 31.5266 57.192 30.5466 55.9893 30.5466H47.9904V17.456C47.9904 17.3196 47.9514 17.186 47.879 17.0718L40.7183 5.61268V2.91211C40.7183 1.30849 39.4126 0.00278475 37.809 0.00278475L12.357 0C10.7534 0 9.4477 1.3057 9.4477 2.90933V5.62936L2.997 17.0999C2.94689 17.214 2.90512 17.3365 2.90234 17.4618V60.3641C2.90234 60.765 3.22808 61.0907 3.62896 61.0907C7.14802 61.1241 35.0942 61.0656 37.8118 61.0907C37.8118 62.6943 39.1175 64 40.7211 64H58.1742C59.7778 64 61.0835 62.6943 61.0835 61.0907C61.0808 59.2253 61.0835 48.6459 61.0835 46.5469C61.0919 45.1939 61.2506 43.4065 60.2065 42.3485L60.2071 42.3454ZM55.7916 39.4277L59.1046 43.292C59.7311 43.9267 59.6364 45.0041 59.6308 45.8171H39.2684C39.2656 44.9959 39.1682 43.9296 39.7946 43.292L43.1076 39.4277C43.8314 38.7205 43.6004 37.2673 43.6338 36.3652H55.2711C55.3017 37.27 55.0734 38.7205 55.7973 39.4277H55.7916ZM59.6308 57.4545H39.2684V47.2733H59.6308V57.4545ZM56.7215 32.7267V34.9094H42.1777V32.7267C42.1777 32.3258 42.5035 32.0001 42.9043 32.0001H55.9949C56.3958 32.0001 56.7215 32.3258 56.7215 32.7267ZM10.9014 2.90928C10.9014 2.10746 11.5529 1.45597 12.3547 1.45597H37.8095C38.6113 1.45597 39.2628 2.10744 39.2628 2.90928V5.09198H10.9015L10.9014 2.90928ZM10.6007 6.54529H38.6805L32.3161 16.7265H4.87349L10.6007 6.54529ZM4.35606 18.1826H31.9932V59.6373H4.35606V18.1826ZM33.4465 59.6373V17.6616L39.9918 7.18817L46.5372 17.6616V30.5433H42.9012C41.6984 30.5433 40.7184 31.5233 40.7184 32.726V35.6354C40.7184 36.0363 41.0442 36.362 41.4451 36.362H42.1717V38.0046C42.1717 38.1772 42.1104 38.347 41.9963 38.4779L38.6833 42.345C38.1181 43.0048 37.8091 43.8456 37.8091 44.7114V59.6344H33.4464L33.4465 59.6373ZM58.1743 62.5439H40.7212C39.9194 62.5439 39.2679 61.8924 39.2679 61.0905V58.9078H59.6304V61.0905C59.6304 61.8924 58.9789 62.5439 58.177 62.5439H58.1743Z" fill="black"/>
<path d="M44.3562 55.2714C48.201 55.1489 48.201 49.5752 44.3562 49.4526C40.5115 49.5751 40.5115 55.1488 44.3562 55.2714ZM44.3562 50.9087C46.2745 50.9588 46.2745 53.7679 44.3562 53.8181C42.438 53.7679 42.438 50.9588 44.3562 50.9087Z" fill="black"/>
<path d="M49.4477 51.6358H56.7196C57.6745 51.6191 57.6774 50.1965 56.7196 50.1825H49.4477C48.4928 50.1992 48.49 51.6218 49.4477 51.6358Z" fill="black"/>
<path d="M49.4477 54.5451H54.5398C55.4947 54.5284 55.4975 53.1058 54.5398 53.0918H49.4477C48.4928 53.1085 48.49 54.5311 49.4477 54.5451Z" fill="black"/>
<path d="M26.1757 24.0007H10.1758C9.77493 24.0007 9.44922 24.3265 9.44922 24.7274V32.7262C9.44922 33.1271 9.77495 33.4528 10.1758 33.4528H26.1757C26.5766 33.4528 26.9023 33.1271 26.9023 32.7262V24.7274C26.9023 24.3264 26.5766 24.0007 26.1757 24.0007ZM25.4491 31.9996H10.9053V25.4543H25.4491V31.9996Z" fill="black"/>
<path d="M17.4507 54.5451H8.72271C8.32181 54.5451 7.99609 54.8709 7.99609 55.2717C7.99609 55.6726 8.32183 55.9984 8.72271 55.9984H17.4507C18.4028 55.9844 18.4084 54.5591 17.4507 54.5451Z" fill="black"/>
<path d="M21.0883 51.6357H8.72402C7.77189 51.6497 7.76626 53.0751 8.72402 53.0891H21.0883C22.0404 53.0751 22.0461 51.6497 21.0883 51.6357Z" fill="black"/>
<path d="M24.3578 34.9089H11.9935C11.0414 34.9229 11.0358 36.3483 11.9935 36.3622H24.3578C25.31 36.3483 25.3156 34.9229 24.3578 34.9089Z" fill="black"/>
</svg>
