<svg width="400" height="207" viewBox="0 0 400 207" fill="none" xmlns="http://www.w3.org/2000/svg">
<g clip-path="url(#clip0_5226_83164)">
<path d="M152.019 192.577C151.983 192.577 151.946 192.568 151.912 192.549L92.045 158.169C90.86 157.486 90.2077 156.564 90.207 155.573C90.205 154.589 90.8486 153.673 92.017 152.993L121.218 136.024C121.319 135.964 121.45 135.998 121.51 136.101C121.569 136.203 121.535 136.334 121.433 136.393L92.2319 153.363C91.1998 153.962 90.6323 154.746 90.6337 155.572C90.6343 156.404 91.2111 157.195 92.258 157.8L152.125 192.179C152.228 192.237 152.262 192.368 152.204 192.47C152.165 192.539 152.092 192.577 152.019 192.577Z" fill="#DBDEE4"/>
<path d="M246.217 137.976C246.145 137.976 246.074 137.939 246.034 137.872C245.974 137.77 246.007 137.639 246.109 137.579L307.445 101.237C308.172 100.814 308.571 100.265 308.57 99.691C308.57 99.1122 308.164 98.5594 307.427 98.1341L286.212 85.8813C286.11 85.8225 286.075 85.6924 286.134 85.5902C286.194 85.4874 286.325 85.4534 286.425 85.5121L307.641 97.7649C308.514 98.269 308.997 98.9533 308.998 99.6903C308.998 100.423 308.524 101.103 307.662 101.605L246.326 137.946C246.293 137.967 246.255 137.976 246.217 137.976Z" fill="#3C2C0B"/>
<path d="M220.678 89.0786C220.605 89.0786 220.533 89.0406 220.494 88.9725C220.435 88.871 220.469 88.7402 220.571 88.6807L254.94 68.7015C255.041 68.6421 255.172 68.6762 255.232 68.779C255.291 68.8805 255.256 69.0113 255.155 69.0707L220.786 89.0499C220.752 89.0693 220.715 89.0786 220.678 89.0786Z" fill="#DBDEE4"/>
<path d="M222.372 91.0862C223.9 90.2036 223.908 88.7722 222.39 87.8896C220.872 87.0071 218.401 87.0077 216.874 87.8903C215.346 88.7729 215.338 90.2036 216.856 91.0862C218.375 91.9688 220.843 91.9688 222.372 91.0862Z" fill="#FFF7E4"/>
<path d="M219.612 91.9571C218.574 91.9571 217.538 91.7281 216.75 91.2708C215.95 90.8054 215.509 90.1738 215.51 89.4935C215.511 88.8086 215.958 88.1737 216.768 87.7063C218.353 86.7917 220.925 86.791 222.499 87.7057C223.299 88.1703 223.739 88.8019 223.738 89.4829C223.736 90.1685 223.29 90.8034 222.479 91.2714C221.687 91.7281 220.649 91.9571 219.612 91.9571ZM219.637 87.4393C218.676 87.4393 217.715 87.6509 216.981 88.0749C216.308 88.4634 215.936 88.9675 215.936 89.4935C215.936 90.0163 216.301 90.5157 216.964 90.9016C218.421 91.7488 220.799 91.7488 222.265 90.9023C222.938 90.513 223.31 90.0089 223.31 89.4815C223.31 88.9594 222.946 88.4594 222.283 88.0749C221.556 87.6509 220.597 87.4393 219.637 87.4393Z" fill="#DBDEE4"/>
<path d="M219.633 88.481C219.037 88.481 218.461 88.6165 218.051 88.8528C217.722 89.0424 217.534 89.2761 217.533 89.4931C217.533 89.7074 217.718 89.9377 218.041 90.1253C218.447 90.3616 219.021 90.4965 219.616 90.4965C220.21 90.4965 220.787 90.361 221.196 90.1247C221.525 89.9344 221.714 89.7007 221.714 89.4837C221.714 89.2694 221.529 89.0391 221.206 88.8515C220.802 88.6159 220.228 88.481 219.633 88.481Z" fill="#FFBE2E"/>
<path d="M233.085 80.8213C232.445 80.8213 231.826 80.9668 231.386 81.2212C231.033 81.4248 230.83 81.6759 230.83 81.9089C230.83 82.1392 231.028 82.3869 231.376 82.5878C231.811 82.8415 232.428 82.9871 233.067 82.9871C233.706 82.9871 234.325 82.8415 234.764 82.5878C235.118 82.3835 235.32 82.1332 235.321 81.8995C235.321 81.6692 235.123 81.4222 234.776 81.2205C234.34 80.9668 233.724 80.8213 233.085 80.8213Z" fill="#212121"/>
<g opacity="0.1">
<path d="M156.754 160.713C155.554 161.406 155.548 162.528 156.74 163.222L219.931 199.679C221.124 200.372 223.06 200.372 224.26 199.679L256.322 181.559C257.522 180.866 257.528 179.744 256.336 179.05L193.145 142.593C191.952 141.9 190.016 141.9 188.816 142.593L156.754 160.713Z" fill="black"/>
</g>
<path d="M135.866 154.229C135.829 154.229 135.793 154.219 135.759 154.2L95.5137 130.805C95.4123 130.746 95.3782 130.616 95.437 130.513C95.495 130.411 95.6252 130.376 95.7287 130.436L135.973 153.831C136.075 153.89 136.109 154.02 136.05 154.122C136.011 154.19 135.939 154.229 135.866 154.229Z" fill="#212121"/>
<path d="M199.667 52.6685L199.861 128.73L192.699 132.88L192.547 78.1575" fill="#978050"/>
<path d="M192.7 133.092C192.663 133.092 192.626 133.083 192.593 133.064C192.527 133.026 192.486 132.956 192.486 132.88L192.334 78.1581C192.334 78.0406 192.429 77.9444 192.546 77.9444C192.664 77.9444 192.761 78.0392 192.761 78.1574L192.912 132.51L199.649 128.608L199.454 52.6697C199.454 52.5522 199.549 52.4561 199.666 52.4561C199.667 52.4561 199.667 52.4561 199.667 52.4561C199.785 52.4561 199.88 52.5508 199.88 52.669L200.075 128.731C200.075 128.807 200.035 128.878 199.968 128.916L192.805 133.065C192.774 133.083 192.737 133.092 192.7 133.092Z" fill="#212121"/>
<path d="M192.698 132.896L147.932 103.977L192.546 78.1572L192.698 132.896Z" fill="#212121"/>
<path d="M192.699 133.11C192.659 133.11 192.618 133.099 192.583 133.076L147.816 104.157C147.753 104.117 147.717 104.047 147.719 103.973C147.721 103.899 147.761 103.831 147.826 103.794L192.441 77.9739C192.505 77.9359 192.587 77.9359 192.654 77.9733C192.72 78.0113 192.76 78.0814 192.76 78.1575L192.913 132.896C192.913 132.974 192.87 133.047 192.802 133.084C192.769 133.101 192.734 133.11 192.699 133.11ZM148.34 103.988L192.485 132.504L192.334 78.5274L148.34 103.988Z" fill="#212121"/>
<path d="M192.698 132.896L148.084 158.716L147.932 103.978L192.698 132.896Z" fill="#212121"/>
<path d="M148.085 158.93C148.048 158.93 148.011 158.92 147.978 158.902C147.912 158.863 147.871 158.793 147.871 158.717L147.719 103.979C147.719 103.901 147.761 103.829 147.83 103.792C147.899 103.754 147.982 103.756 148.048 103.8L192.815 132.718C192.878 132.759 192.914 132.828 192.913 132.902C192.911 132.977 192.87 133.045 192.806 133.081L148.191 158.901C148.159 158.92 148.121 158.93 148.085 158.93ZM148.146 104.37L148.297 158.347L192.291 132.887L148.146 104.37Z" fill="#212121"/>
<path d="M140.768 86.7996L90.3496 57.4904L149.249 23.3584L199.668 52.6676L140.768 86.7996Z" fill="#3C2C0B"/>
<path d="M140.769 87.013C140.732 87.013 140.695 87.0036 140.662 86.9842L90.2422 57.6751C90.1761 57.637 90.1367 57.5662 90.1367 57.4908C90.1367 57.4147 90.1775 57.3446 90.2436 57.3066L149.143 23.1745C149.208 23.1365 149.291 23.1365 149.357 23.1745L199.777 52.4837C199.843 52.5217 199.883 52.5925 199.883 52.6679C199.883 52.744 199.842 52.8141 199.776 52.8522L140.876 86.9842C140.843 87.0029 140.806 87.013 140.769 87.013ZM90.7743 57.4908L140.768 86.553L199.242 52.6673L149.248 23.6051L90.7743 57.4908Z" fill="#212121"/>
<path d="M103.846 57.4998L149.246 31.1909L186.175 52.6582L140.775 78.9671L103.846 57.4998Z" fill="#FFF7E4"/>
<path d="M140.774 79.18C140.737 79.18 140.7 79.1706 140.666 79.1512L103.737 57.684C103.671 57.6459 103.631 57.5751 103.631 57.4997C103.631 57.4236 103.672 57.3535 103.738 57.3154L149.138 31.0066C149.203 30.9685 149.285 30.9685 149.352 31.0066L186.281 52.4745C186.347 52.5126 186.387 52.5833 186.387 52.6588C186.387 52.7349 186.346 52.805 186.28 52.843L140.881 79.1512C140.848 79.1706 140.811 79.18 140.774 79.18ZM104.269 57.4997L140.774 78.72L185.749 52.6581L149.245 31.4372L104.269 57.4997Z" fill="#212121"/>
<path d="M117.34 57.5085L149.239 39.0234L172.68 52.6495L140.779 71.1346L117.34 57.5085Z" fill="#3C2C0B"/>
<path d="M140.778 71.3476C140.741 71.3476 140.704 71.3383 140.671 71.319L117.231 57.6928C117.165 57.6548 117.125 57.584 117.125 57.5086C117.125 57.4324 117.166 57.3623 117.232 57.3243L149.132 38.8386C149.197 38.8005 149.28 38.8005 149.346 38.8386L172.786 52.4647C172.852 52.5028 172.892 52.5735 172.892 52.649C172.892 52.7251 172.851 52.7952 172.785 52.8332L140.886 71.3183C140.853 71.3376 140.815 71.3476 140.778 71.3476ZM117.764 57.5086L140.779 70.8877L172.254 52.649L149.239 39.2699L117.764 57.5086Z" fill="#212121"/>
<path d="M222.404 175.551L255.497 156.314L255.59 174.142L222.497 193.379L222.404 175.551Z" fill="#FFF7E4"/>
<path d="M222.5 193.593C222.464 193.593 222.427 193.583 222.394 193.565C222.328 193.527 222.287 193.456 222.287 193.381L222.193 175.553C222.193 175.477 222.233 175.407 222.3 175.368L255.392 156.13C255.459 156.092 255.54 156.092 255.606 156.13C255.672 156.167 255.713 156.238 255.713 156.313L255.807 174.141C255.807 174.218 255.767 174.288 255.7 174.326L222.608 193.563C222.575 193.583 222.537 193.593 222.5 193.593ZM222.621 175.674L222.712 193.01L255.379 174.02L255.288 156.685L222.621 175.674Z" fill="#212121"/>
<path d="M130.779 122.983L163.872 103.747L262.53 160.379L229.437 179.616L130.779 122.983Z" fill="#FFF7E4"/>
<path d="M229.437 179.829C229.4 179.829 229.363 179.82 229.331 179.801L130.672 123.169C130.605 123.131 130.564 123.061 130.564 122.985C130.564 122.908 130.605 122.838 130.671 122.8L163.763 103.563C163.83 103.525 163.911 103.525 163.977 103.562L262.636 160.194C262.702 160.232 262.743 160.302 262.743 160.379C262.743 160.455 262.703 160.525 262.637 160.563L229.544 179.8C229.511 179.82 229.474 179.829 229.437 179.829ZM131.205 122.983L229.436 179.37L262.103 160.381L163.872 103.993L131.205 122.983Z" fill="#212121"/>
<path d="M229.471 167.366C232.417 169.067 234.792 173.183 234.783 176.567C234.774 179.898 232.459 181.271 229.58 179.695L130.929 123.072C127.91 121.234 125.608 117.197 125.617 113.87C125.627 110.484 128.025 109.126 130.964 110.823L229.471 167.366Z" fill="#3C2C0B"/>
<path d="M231.834 180.562C231.105 180.562 230.305 180.334 229.479 179.882L130.825 123.257C127.775 121.401 125.397 117.278 125.406 113.87C125.412 112.16 126.004 110.879 127.077 110.262C128.157 109.639 129.576 109.774 131.073 110.638L229.58 167.181L229.581 167.182C232.579 168.913 235.009 173.123 234.999 176.569C234.993 178.263 234.411 179.54 233.356 180.163C232.904 180.429 232.39 180.562 231.834 180.562ZM128.576 110.304C128.105 110.304 127.67 110.413 127.289 110.632C126.354 111.17 125.836 112.32 125.832 113.87C125.823 117.145 128.111 121.107 131.041 122.89L229.687 179.51C231.004 180.23 232.23 180.332 233.138 179.795C234.058 179.251 234.567 178.105 234.571 176.567C234.581 173.258 232.247 169.213 229.368 167.55L130.86 111.007C130.05 110.54 129.272 110.304 128.576 110.304Z" fill="#212121"/>
<path d="M136.977 126.541L222.405 175.551L222.498 193.379L136.928 144.289L136.977 126.541Z" fill="#978050"/>
<path d="M222.499 193.593C222.463 193.593 222.426 193.583 222.393 193.565L136.822 144.475C136.756 144.437 136.715 144.366 136.715 144.289L136.764 126.541C136.764 126.465 136.805 126.395 136.871 126.357C136.938 126.319 137.019 126.319 137.083 126.356L222.511 175.367C222.578 175.405 222.619 175.475 222.619 175.55L222.712 193.378C222.712 193.454 222.672 193.525 222.606 193.563C222.573 193.583 222.537 193.593 222.499 193.593ZM137.142 144.166L222.284 193.009L222.194 175.675L137.19 126.909L137.142 144.166Z" fill="#212121"/>
<path d="M267.88 157.33C267.871 159.01 267.284 160.192 266.327 160.752L233.227 179.984C234.184 179.433 234.779 178.25 234.789 176.571C234.798 173.185 232.415 169.068 229.473 167.361L130.965 110.819C129.484 109.97 128.14 109.889 127.174 110.448C137.103 104.679 150.336 96.9864 160.264 91.2168C161.23 90.648 162.575 90.7294 164.056 91.5867L262.563 148.129C265.515 149.826 267.889 153.944 267.88 157.33Z" fill="#FFF7E4"/>
<path d="M233.227 180.197C233.154 180.197 233.082 180.159 233.042 180.09C232.984 179.989 233.018 179.858 233.119 179.799L233.137 179.789C234.056 179.25 234.567 178.107 234.575 176.569C234.584 173.265 232.246 169.217 229.364 167.546L130.858 111.003C129.494 110.22 128.222 110.087 127.282 110.63L127.28 110.632C127.18 110.69 127.047 110.657 126.988 110.555C126.929 110.453 126.963 110.323 127.065 110.263C127.065 110.262 127.067 110.262 127.068 110.262L160.156 91.031C161.234 90.3974 162.655 90.5289 164.16 91.4008L262.668 147.944C265.668 149.669 268.101 153.879 268.091 157.33C268.091 157.33 268.091 157.33 268.091 157.33C268.082 159.035 267.493 160.315 266.433 160.935L233.352 180.157C233.345 180.161 233.338 180.164 233.332 180.168C233.299 180.188 233.264 180.197 233.227 180.197ZM128.584 109.875C129.35 109.877 130.197 110.132 131.07 110.633L229.577 167.176C232.578 168.915 235.011 173.13 235.002 176.57C234.997 177.548 234.8 178.384 234.433 179.036L266.219 160.567C267.143 160.026 267.657 158.876 267.666 157.328C267.675 154.015 265.338 149.971 262.457 148.314L163.949 91.7714C162.58 90.9783 161.312 90.8474 160.373 91.4002L128.584 109.875Z" fill="#212121"/>
<path d="M185.112 142.157C185.038 142.157 184.967 142.119 184.927 142.05C184.868 141.949 184.903 141.818 185.004 141.759L218.097 122.527C218.2 122.468 218.329 122.502 218.389 122.605C218.448 122.706 218.414 122.837 218.312 122.896L185.219 142.128C185.185 142.147 185.148 142.157 185.112 142.157Z" fill="#212121"/>
<path d="M175.76 136.735C175.687 136.735 175.615 136.697 175.576 136.629C175.517 136.528 175.551 136.397 175.653 136.337L208.745 117.106C208.848 117.046 208.978 117.08 209.037 117.183C209.096 117.285 209.062 117.416 208.96 117.475L175.868 136.706C175.834 136.727 175.797 136.735 175.76 136.735Z" fill="#212121"/>
<path d="M166.413 131.314C166.339 131.314 166.268 131.276 166.228 131.208C166.169 131.106 166.204 130.975 166.305 130.916L199.398 111.685C199.5 111.626 199.63 111.659 199.689 111.762C199.749 111.864 199.714 111.994 199.613 112.054L166.52 131.285C166.485 131.305 166.449 131.314 166.413 131.314Z" fill="#212121"/>
<path d="M194.555 147.533C194.482 147.533 194.41 147.495 194.371 147.426C194.311 147.325 194.346 147.194 194.448 147.135L227.357 128.023C227.459 127.965 227.589 127.999 227.648 128.101C227.708 128.202 227.674 128.333 227.572 128.393L194.663 147.504C194.628 147.524 194.592 147.533 194.555 147.533Z" fill="#212121"/>
<path d="M203.954 152.933C203.88 152.933 203.809 152.895 203.769 152.827C203.71 152.725 203.744 152.594 203.846 152.535L236.73 133.438C236.832 133.379 236.963 133.413 237.022 133.516C237.082 133.617 237.047 133.748 236.945 133.808L204.061 152.904C204.027 152.924 203.99 152.933 203.954 152.933Z" fill="#212121"/>
<path d="M213.366 158.33C213.292 158.33 213.221 158.292 213.181 158.224C213.122 158.122 213.157 157.991 213.258 157.932L246.109 138.854C246.211 138.794 246.341 138.828 246.401 138.931C246.46 139.033 246.426 139.164 246.324 139.223L213.473 158.301C213.438 158.32 213.402 158.33 213.366 158.33Z" fill="#212121"/>
<path d="M222.766 163.73C222.693 163.73 222.621 163.692 222.582 163.624C222.522 163.522 222.557 163.392 222.659 163.332L255.483 144.27C255.586 144.211 255.716 144.244 255.775 144.347C255.835 144.449 255.8 144.579 255.698 144.639L222.874 163.701C222.839 163.721 222.803 163.73 222.766 163.73Z" fill="#212121"/>
<path d="M231.867 169.306C231.794 169.306 231.722 169.268 231.682 169.199C231.624 169.097 231.659 168.967 231.761 168.908L264.791 149.906C264.892 149.848 265.023 149.881 265.083 149.984C265.141 150.086 265.106 150.217 265.005 150.275L231.974 169.278C231.94 169.297 231.904 169.306 231.867 169.306Z" fill="#212121"/>
<path d="M156.862 125.99C156.788 125.99 156.717 125.952 156.677 125.884C156.618 125.782 156.653 125.652 156.754 125.592L189.855 106.361C189.956 106.302 190.087 106.336 190.147 106.438C190.206 106.54 190.171 106.671 190.07 106.73L156.969 125.961C156.935 125.981 156.898 125.99 156.862 125.99Z" fill="#212121"/>
<path d="M147.489 120.579C147.415 120.579 147.344 120.541 147.304 120.473C147.245 120.372 147.28 120.241 147.381 120.182L180.474 100.95C180.577 100.891 180.706 100.925 180.766 101.028C180.825 101.129 180.79 101.26 180.689 101.319L147.596 120.551C147.562 120.571 147.525 120.579 147.489 120.579Z" fill="#212121"/>
<path d="M138.116 115.168C138.042 115.168 137.971 115.13 137.931 115.062C137.872 114.96 137.907 114.829 138.008 114.77L171.101 95.5385C171.203 95.479 171.334 95.5131 171.393 95.6159C171.453 95.7174 171.418 95.8482 171.316 95.9076L138.223 115.139C138.189 115.158 138.152 115.168 138.116 115.168Z" fill="#212121"/>
<path d="M145.56 122.303C144.08 121.448 142.874 122.136 142.869 123.836C142.864 125.526 144.062 127.602 145.542 128.456C147.012 129.306 148.217 128.618 148.223 126.928C148.227 125.228 147.03 123.152 145.56 122.303Z" fill="#FFF7E4"/>
<path d="M158.948 130.037C157.469 129.182 156.263 129.87 156.258 131.57C156.253 133.26 157.451 135.336 158.93 136.19C160.4 137.039 161.606 136.352 161.611 134.662C161.617 132.962 160.418 130.885 158.948 130.037Z" fill="#FFF7E4"/>
<path d="M172.341 137.771C170.861 136.917 169.656 137.604 169.65 139.305C169.646 140.994 170.843 143.071 172.324 143.925C173.794 144.774 174.999 144.086 175.005 142.396C175.009 140.696 173.811 138.62 172.341 137.771Z" fill="#FFF7E4"/>
<path d="M185.733 145.505C184.253 144.651 183.048 145.339 183.043 147.039C183.038 148.729 184.236 150.805 185.715 151.659C187.186 152.508 188.391 151.82 188.397 150.131C188.401 148.43 187.203 146.355 185.733 145.505Z" fill="#FFF7E4"/>
<path d="M132.163 114.568C130.684 113.714 129.478 114.402 129.473 116.102C129.468 117.792 130.666 119.868 132.145 120.722C133.615 121.571 134.822 120.883 134.826 119.194C134.832 117.493 133.633 115.418 132.163 114.568Z" fill="#FFF7E4"/>
<path d="M145.55 124.168C144.968 123.832 144.494 124.103 144.492 124.772C144.49 125.437 144.961 126.253 145.544 126.59C146.122 126.923 146.597 126.653 146.599 125.988C146.6 125.319 146.129 124.502 145.55 124.168Z" fill="#212121"/>
<path d="M158.939 131.903C158.357 131.567 157.883 131.837 157.881 132.506C157.879 133.171 158.35 133.988 158.932 134.324C159.511 134.658 159.985 134.387 159.987 133.723C159.989 133.053 159.517 132.236 158.939 131.903Z" fill="#212121"/>
<path d="M172.332 139.636C171.749 139.3 171.275 139.571 171.273 140.24C171.271 140.904 171.743 141.721 172.325 142.057C172.903 142.391 173.378 142.121 173.38 141.456C173.381 140.787 172.91 139.97 172.332 139.636Z" fill="#212121"/>
<path d="M185.726 147.37C185.144 147.034 184.669 147.304 184.668 147.974C184.666 148.639 185.137 149.455 185.719 149.792C186.298 150.126 186.772 149.855 186.774 149.19C186.776 148.521 186.304 147.705 185.726 147.37Z" fill="#212121"/>
<path d="M132.158 116.434C131.576 116.098 131.102 116.368 131.1 117.037C131.098 117.702 131.569 118.519 132.151 118.855C132.729 119.189 133.204 118.919 133.206 118.254C133.207 117.585 132.736 116.768 132.158 116.434Z" fill="#212121"/>
<path d="M199.301 153.239C197.822 152.385 196.616 153.072 196.611 154.773C196.607 156.463 197.804 158.539 199.284 159.393C200.754 160.242 201.96 159.554 201.965 157.865C201.97 156.164 200.771 154.089 199.301 153.239Z" fill="#FFF7E4"/>
<path d="M212.69 160.974C211.211 160.119 210.005 160.807 210 162.507C209.995 164.197 211.193 166.273 212.672 167.127C214.143 167.976 215.348 167.289 215.354 165.599C215.359 163.899 214.161 161.822 212.69 160.974Z" fill="#FFF7E4"/>
<path d="M226.083 168.708C224.604 167.853 223.398 168.541 223.393 170.241C223.388 171.931 224.586 174.007 226.065 174.861C227.535 175.71 228.741 175.023 228.746 173.333C228.752 171.633 227.553 169.557 226.083 168.708Z" fill="#FFF7E4"/>
<path d="M199.291 155.105C198.708 154.769 198.234 155.04 198.232 155.709C198.23 156.374 198.702 157.19 199.284 157.527C199.862 157.86 200.337 157.59 200.339 156.925C200.341 156.256 199.869 155.439 199.291 155.105Z" fill="#212121"/>
<path d="M212.685 162.84C212.103 162.504 211.628 162.774 211.627 163.443C211.625 164.108 212.096 164.925 212.678 165.261C213.257 165.595 213.731 165.324 213.733 164.66C213.735 163.99 213.263 163.173 212.685 162.84Z" fill="#212121"/>
<path d="M226.076 170.573C225.494 170.238 225.02 170.508 225.018 171.177C225.016 171.842 225.487 172.658 226.069 172.995C226.647 173.329 227.122 173.058 227.124 172.393C227.126 171.724 226.655 170.908 226.076 170.573Z" fill="#212121"/>
<path d="M148.039 101.126L148.04 115.596L166.234 126.241L166.233 111.771L148.039 101.126Z" fill="#3C2C0B"/>
<path d="M166.236 126.454C166.198 126.454 166.162 126.445 166.128 126.425L147.935 115.781C147.869 115.743 147.829 115.673 147.829 115.597L147.828 101.127C147.828 101.051 147.869 100.98 147.936 100.942C148.002 100.904 148.083 100.904 148.149 100.943L166.342 111.587C166.408 111.625 166.447 111.695 166.447 111.772L166.448 126.241C166.448 126.318 166.407 126.388 166.341 126.426C166.309 126.445 166.272 126.454 166.236 126.454ZM148.255 115.475L166.022 125.87L166.021 111.894L148.255 101.499L148.255 115.475Z" fill="#212121"/>
<path d="M166.234 111.771L166.235 126.241L184.608 115.699L184.607 101.229L166.234 111.771Z" fill="#FFBE2E"/>
<path d="M173.582 107.55V114.011L175.413 111.023L177.243 111.911V105.449L173.582 107.55Z" fill="#3C2C0B"/>
<path d="M166.236 126.454C166.199 126.454 166.162 126.445 166.129 126.425C166.063 126.387 166.022 126.317 166.022 126.241L166.021 111.771C166.021 111.695 166.062 111.624 166.129 111.586L184.502 101.044C184.567 101.007 184.649 101.006 184.714 101.045C184.78 101.083 184.821 101.153 184.821 101.23L184.822 115.699C184.822 115.775 184.781 115.846 184.714 115.884L166.341 126.426C166.309 126.445 166.272 126.454 166.236 126.454ZM166.448 111.894L166.449 125.872L184.395 115.575L184.394 101.598L166.448 111.894Z" fill="#212121"/>
<path d="M148.037 101.124L166.235 111.774L173.582 107.551L177.261 105.449L184.609 101.226L166.41 90.5859L159.063 94.7986L155.395 96.9003L148.037 101.124Z" fill="#FFF7E4"/>
<path d="M155.396 96.9L173.584 107.551L177.262 105.449L159.064 94.7983L155.396 96.9Z" fill="#3C2C0B"/>
<path d="M166.236 111.986C166.198 111.986 166.162 111.977 166.128 111.957L147.93 101.306C147.864 101.268 147.824 101.197 147.824 101.122C147.824 101.045 147.865 100.975 147.932 100.937L166.305 90.3995C166.371 90.3615 166.453 90.3615 166.519 90.4002L184.718 101.04C184.784 101.078 184.824 101.149 184.824 101.225C184.824 101.301 184.783 101.371 184.717 101.409L166.343 111.958C166.309 111.977 166.273 111.986 166.236 111.986ZM148.462 101.124L166.237 111.527L184.185 101.224L166.41 90.8315L148.462 101.124Z" fill="#212121"/>
<path d="M179.156 118.092L179.157 132.562L197.351 143.206L197.35 128.736L179.156 118.092Z" fill="#3C2C0B"/>
<path d="M197.351 143.419C197.314 143.419 197.277 143.41 197.243 143.39L179.05 132.746C178.984 132.708 178.944 132.638 178.944 132.562L178.943 118.092C178.943 118.016 178.984 117.945 179.051 117.907C179.117 117.869 179.198 117.869 179.264 117.908L197.458 128.551C197.524 128.589 197.564 128.66 197.564 128.736L197.565 143.206C197.565 143.282 197.524 143.353 197.457 143.391C197.424 143.41 197.388 143.419 197.351 143.419ZM179.371 132.44L197.137 142.834L197.137 128.859L179.37 118.464L179.371 132.44Z" fill="#212121"/>
<path d="M197.348 128.736L197.348 143.206L215.721 132.664L215.721 118.194L197.348 128.736Z" fill="#FFBE2E"/>
<path d="M204.697 124.514V130.976L206.528 127.987L208.358 128.875V122.414L204.697 124.514Z" fill="#3C2C0B"/>
<path d="M197.349 143.419C197.312 143.419 197.275 143.41 197.242 143.391C197.176 143.352 197.135 143.282 197.135 143.206L197.135 128.736C197.135 128.66 197.175 128.589 197.242 128.551L215.615 118.01C215.68 117.972 215.763 117.972 215.827 118.01C215.894 118.048 215.934 118.118 215.934 118.195L215.935 132.665C215.935 132.741 215.894 132.811 215.827 132.849L197.455 143.391C197.423 143.41 197.386 143.419 197.349 143.419ZM197.561 128.86L197.562 142.838L215.508 132.54L215.508 118.563L197.561 128.86Z" fill="#212121"/>
<path d="M179.154 118.088L197.352 128.739L204.699 124.516L208.378 122.414L215.726 118.191L197.527 107.551L190.18 111.763L186.512 113.865L179.154 118.088Z" fill="#FFF7E4"/>
<path d="M186.512 113.865L204.699 124.516L208.378 122.414L190.18 111.764L186.512 113.865Z" fill="#3C2C0B"/>
<path d="M197.351 128.953C197.314 128.953 197.277 128.943 197.244 128.923L179.045 118.273C178.979 118.235 178.939 118.164 178.939 118.088C178.939 118.012 178.98 117.942 179.047 117.904L197.42 107.366C197.487 107.328 197.568 107.328 197.634 107.367L215.833 118.006C215.899 118.044 215.939 118.115 215.939 118.191C215.939 118.267 215.898 118.338 215.832 118.376L197.459 128.925C197.424 128.943 197.388 128.953 197.351 128.953ZM179.578 118.09L197.352 128.493L215.299 118.189L197.525 107.797L179.578 118.09Z" fill="#212121"/>
<path d="M210.271 135.058L210.272 149.527L228.466 160.171L228.465 145.701L210.271 135.058Z" fill="#3C2C0B"/>
<path d="M228.466 160.385C228.429 160.385 228.392 160.375 228.359 160.355L210.165 149.711C210.099 149.673 210.059 149.603 210.059 149.526L210.059 135.057C210.059 134.981 210.099 134.91 210.166 134.872C210.232 134.834 210.314 134.834 210.38 134.873L228.574 145.517C228.64 145.555 228.68 145.625 228.68 145.701V160.171C228.68 160.247 228.64 160.318 228.573 160.356C228.54 160.375 228.503 160.385 228.466 160.385ZM210.486 149.404L228.253 159.799V145.824L210.485 135.429L210.486 149.404Z" fill="#212121"/>
<path d="M228.467 145.701L228.467 160.171L246.84 149.63L246.84 135.16L228.467 145.701Z" fill="#FFBE2E"/>
<path d="M235.812 141.48V147.942L237.643 144.952L239.473 145.841V139.379L235.812 141.48Z" fill="#3C2C0B"/>
<path d="M228.468 160.384C228.431 160.384 228.393 160.375 228.361 160.355C228.295 160.317 228.254 160.247 228.254 160.171V145.701C228.254 145.625 228.295 145.554 228.361 145.516L246.733 134.975C246.798 134.937 246.88 134.936 246.945 134.975C247.011 135.013 247.052 135.083 247.052 135.159L247.053 149.629C247.053 149.706 247.012 149.776 246.945 149.814L228.572 160.357C228.541 160.374 228.504 160.384 228.468 160.384ZM228.681 145.824V159.802L246.627 149.505L246.626 135.527L228.681 145.824Z" fill="#212121"/>
<path d="M210.27 135.053L228.468 145.704L235.815 141.481L239.493 139.379L246.841 135.155L228.643 124.516L221.295 128.728L217.627 130.83L210.27 135.053Z" fill="#FFF7E4"/>
<path d="M217.623 130.83L235.81 141.481L239.489 139.38L221.291 128.729L217.623 130.83Z" fill="#3C2C0B"/>
<path d="M228.467 145.918C228.43 145.918 228.393 145.908 228.359 145.888L210.161 135.238C210.095 135.2 210.055 135.128 210.055 135.053C210.055 134.977 210.095 134.906 210.162 134.868L228.536 124.331C228.602 124.293 228.684 124.293 228.749 124.331L246.947 134.972C247.013 135.01 247.053 135.081 247.053 135.157C247.053 135.233 247.013 135.303 246.947 135.341L228.573 145.889C228.54 145.908 228.504 145.918 228.467 145.918ZM210.694 135.055L228.468 145.458L246.415 135.154L228.642 124.762L210.694 135.055Z" fill="#212121"/>
<path d="M192.546 78.1575L147.932 103.978L148.084 158.733L140.964 162.857L140.77 86.7952L199.666 52.6685" fill="#978050"/>
<path d="M140.965 163.07C140.929 163.07 140.892 163.061 140.858 163.042C140.792 163.004 140.752 162.934 140.752 162.858L140.557 86.7959C140.557 86.7198 140.597 86.649 140.663 86.611L199.56 52.4843C199.659 52.4248 199.792 52.4589 199.851 52.5617C199.911 52.6638 199.876 52.794 199.774 52.8534L140.984 86.9187L141.178 162.488L147.872 158.611L147.72 103.979C147.72 103.903 147.76 103.832 147.826 103.794L192.441 77.974C192.54 77.9145 192.673 77.9493 192.733 78.0521C192.791 78.1536 192.757 78.2844 192.655 78.3431L148.147 104.101L148.299 158.733C148.299 158.809 148.259 158.88 148.192 158.918L141.073 163.042C141.039 163.061 141.002 163.07 140.965 163.07Z" fill="#212121"/>
<path d="M140.966 162.857L90.5472 133.549L90.3516 57.4902L140.77 86.7994L140.966 162.857Z" fill="#FFBE2E"/>
<path d="M140.965 163.071C140.929 163.071 140.891 163.062 140.858 163.042L90.4385 133.733C90.3737 133.695 90.3323 133.625 90.3323 133.549L90.1367 57.4903C90.1367 57.4142 90.1774 57.3435 90.2435 57.3054C90.3103 57.2673 90.3911 57.2673 90.4579 57.3054L140.877 86.6146C140.942 86.6526 140.983 86.7227 140.983 86.7988L141.179 162.857C141.179 162.933 141.138 163.004 141.072 163.042C141.039 163.062 141.002 163.071 140.965 163.071ZM90.7596 133.426L140.752 162.487L140.557 86.9223L90.5647 57.8615L90.7596 133.426Z" fill="#212121"/>
<path d="M95.62 130.621L95.4551 66.333L135.699 89.7277L135.865 154.015L95.62 130.621Z" fill="#978050"/>
<path d="M135.866 154.229C135.829 154.229 135.791 154.219 135.758 154.2L95.5132 130.805C95.4485 130.767 95.4071 130.697 95.4071 130.621L95.2422 66.3331C95.2422 66.257 95.2829 66.1862 95.349 66.1482C95.4158 66.1101 95.4966 66.1101 95.5633 66.1482L135.807 89.5429C135.872 89.5809 135.914 89.651 135.914 89.7272L136.079 154.015C136.079 154.091 136.038 154.162 135.972 154.2C135.939 154.219 135.902 154.229 135.866 154.229ZM95.8337 130.498L135.651 153.644L135.486 89.8507L95.6695 66.7043L95.8337 130.498Z" fill="#212121"/>
<path d="M135.866 130.674C135.829 130.674 135.793 130.665 135.759 130.646L95.5137 107.251C95.4123 107.192 95.3782 107.061 95.437 106.959C95.495 106.856 95.6252 106.822 95.7287 106.882L135.973 130.276C136.075 130.336 136.109 130.467 136.05 130.568C136.011 130.636 135.939 130.674 135.866 130.674Z" fill="#212121"/>
<path d="M135.866 122.823C135.829 122.823 135.793 122.813 135.759 122.794L95.5137 99.3994C95.4123 99.34 95.3782 99.2091 95.437 99.1076C95.495 99.0048 95.6252 98.9707 95.7287 99.0301L135.973 122.425C136.075 122.484 136.109 122.615 136.05 122.717C136.011 122.785 135.939 122.823 135.866 122.823Z" fill="#212121"/>
<path d="M135.866 114.971C135.829 114.971 135.793 114.962 135.759 114.943L95.5137 91.548C95.4123 91.4885 95.3782 91.3584 95.437 91.2562C95.495 91.1534 95.6252 91.12 95.7287 91.1788L135.973 114.573C136.075 114.633 136.109 114.764 136.05 114.865C136.011 114.934 135.939 114.971 135.866 114.971Z" fill="#212121"/>
<path d="M135.866 107.12C135.829 107.12 135.793 107.11 135.759 107.091L95.5137 83.6962C95.4123 83.6368 95.3782 83.506 95.437 83.4045C95.495 83.3017 95.6252 83.2676 95.7287 83.327L135.973 106.722C136.075 106.781 136.109 106.912 136.05 107.014C136.011 107.082 135.939 107.12 135.866 107.12Z" fill="#212121"/>
<path d="M135.866 99.2681C135.829 99.2681 135.793 99.2588 135.759 99.2394L95.5137 75.8447C95.4123 75.7853 95.3782 75.6551 95.437 75.5529C95.495 75.4501 95.6252 75.416 95.7287 75.4755L135.973 98.8702C136.075 98.9296 136.109 99.0605 136.05 99.1619C136.011 99.23 135.939 99.2681 135.866 99.2681Z" fill="#212121"/>
<path d="M174.134 79.6353C174.109 79.6266 174.092 79.6186 174.067 79.6099C174.016 79.5845 173.957 79.5678 173.899 79.5511C173.857 79.5424 173.815 79.5344 173.781 79.5264C173.747 79.5178 173.705 79.5098 173.671 79.5098C173.242 79.4677 172.754 79.5939 172.224 79.897C170.65 80.7976 169.388 82.9947 169.396 84.7966C169.396 84.9061 169.404 85.0156 169.412 85.1164C169.421 85.2172 169.429 85.31 169.454 85.4028C169.48 85.5544 169.522 85.7059 169.572 85.8321C169.597 85.8828 169.623 85.9329 169.639 85.9836C169.648 85.9836 169.648 85.9836 169.648 85.9923C169.699 86.0931 169.765 86.1859 169.833 86.2787C169.934 86.4049 170.052 86.5144 170.186 86.5905L167.846 85.2353C167.341 84.9408 167.022 84.3093 167.022 83.4167C167.013 81.6154 168.275 79.4263 169.85 78.517C170.641 78.0624 171.356 78.0203 171.869 78.3147L174.134 79.6353Z" fill="#212121"/>
<path d="M170.187 86.802C170.151 86.802 170.115 86.7933 170.083 86.7746C170.073 86.7699 170.065 86.7653 170.057 86.7599L167.74 85.418C167.148 85.0728 166.809 84.3425 166.809 83.4151C166.8 81.5511 168.117 79.2706 169.743 78.3312C170.575 77.8519 171.369 77.7804 171.976 78.1289L174.242 79.4515C174.336 79.5062 174.373 79.623 174.329 79.7225C174.285 79.822 174.174 79.8727 174.068 79.8387C174.064 79.8374 174.022 79.8213 174.017 79.8193C173.933 79.782 173.887 79.7699 173.841 79.7566L173.732 79.7339C173.694 79.7239 173.676 79.7219 173.671 79.7219C173.256 79.6811 172.815 79.8033 172.33 80.081C170.822 80.9443 169.601 83.0586 169.609 84.7944C169.609 84.8979 169.618 85.0007 169.626 85.0962C169.633 85.185 169.639 85.2658 169.661 85.3459C169.687 85.4988 169.725 85.6356 169.771 85.7525C169.789 85.7872 169.812 85.8332 169.83 85.8813C169.834 85.8866 169.836 85.8907 169.839 85.896C169.884 85.9861 169.946 86.0689 170.007 86.1517C170.087 86.2525 170.179 86.3353 170.274 86.3927L170.294 86.4047C170.396 86.4635 170.431 86.593 170.372 86.6952C170.332 86.7633 170.261 86.802 170.187 86.802ZM171.128 78.3372C170.775 78.3372 170.375 78.4587 169.956 78.7004C168.448 79.5716 167.227 81.686 167.235 83.4145C167.235 84.1869 167.498 84.7824 167.954 85.0495L169.356 85.8613C169.304 85.7198 169.267 85.5756 169.243 85.4367C169.219 85.3532 169.209 85.2477 169.199 85.1336C169.189 85.0281 169.181 84.9126 169.181 84.7964C169.173 82.9237 170.489 80.6432 172.116 79.7125C172.48 79.5035 172.831 79.372 173.164 79.3173L171.762 78.4988C171.576 78.3906 171.362 78.3372 171.128 78.3372Z" fill="#212121"/>
<path d="M175.066 81.5121C175.075 83.314 173.804 85.5111 172.239 86.4117C171.431 86.8751 170.707 86.9084 170.185 86.5887C170.05 86.5125 169.933 86.4037 169.832 86.2768C169.764 86.1927 169.706 86.0999 169.647 85.9904C169.647 85.9817 169.647 85.9817 169.638 85.9817C169.622 85.931 169.596 85.8809 169.571 85.8302C169.52 85.704 169.478 85.5525 169.453 85.4009C169.428 85.3081 169.42 85.2154 169.411 85.1145C169.403 85.0137 169.395 84.9042 169.395 84.7948C169.386 82.9935 170.648 80.7957 172.223 79.8951C172.753 79.592 173.241 79.4658 173.67 79.5079C173.703 79.5079 173.745 79.5159 173.78 79.5245C173.814 79.5325 173.856 79.5413 173.898 79.5493C173.956 79.566 174.007 79.5833 174.066 79.608C174.091 79.6167 174.108 79.6247 174.133 79.6334C174.704 79.9038 175.058 80.5607 175.066 81.5121Z" fill="#3C2C0B"/>
<path d="M170.966 87.0138C170.64 87.0138 170.34 86.933 170.075 86.7708C169.931 86.6907 169.792 86.5679 169.666 86.4103C169.596 86.3235 169.534 86.2267 169.471 86.1145C169.457 86.0952 169.444 86.0731 169.437 86.0498C169.423 86.009 169.403 85.9683 169.382 85.9276C169.316 85.7654 169.27 85.5971 169.244 85.4362C169.22 85.3528 169.21 85.2473 169.2 85.1331C169.19 85.0277 169.182 84.9121 169.182 84.796C169.174 82.9233 170.49 80.6427 172.117 79.7121C172.681 79.3896 173.213 79.2521 173.691 79.2968C173.717 79.2948 173.773 79.3042 173.834 79.3202L173.939 79.3422C174.024 79.3649 174.082 79.3849 174.15 79.4136C174.153 79.415 174.223 79.4417 174.225 79.443C174.887 79.7548 175.272 80.5085 175.282 81.512V81.5127C175.29 83.3807 173.973 85.6619 172.347 86.5979C171.862 86.8743 171.393 87.0138 170.966 87.0138ZM169.835 85.8895C169.887 85.9864 169.939 86.0691 169.999 86.1432C170.09 86.2581 170.189 86.3455 170.291 86.4029C170.774 86.6974 171.424 86.6333 172.134 86.2273C173.642 85.3594 174.863 83.2451 174.854 81.5133C174.847 80.6694 174.559 80.0713 174.043 79.8282C174.039 79.8269 173.987 79.8082 173.983 79.8068C173.932 79.7855 173.89 79.7708 173.84 79.7568L173.731 79.7341C173.693 79.7241 173.675 79.7221 173.67 79.7221C173.255 79.6814 172.813 79.8035 172.329 80.0812C170.821 80.9445 169.6 83.0588 169.608 84.7946C169.608 84.8981 169.617 85.001 169.625 85.0964C169.632 85.1852 169.638 85.266 169.66 85.3461C169.686 85.499 169.724 85.6358 169.77 85.7527C169.788 85.7874 169.811 85.8334 169.829 85.8815C169.831 85.8842 169.833 85.8876 169.835 85.8909V85.8895Z" fill="#212121"/>
<path d="M185.086 73.4298C185.051 73.4131 185.018 73.3878 184.976 73.3797C184.934 73.3544 184.883 73.3377 184.833 73.321C184.782 73.3043 184.732 73.2876 184.682 73.2789C184.631 73.2702 184.572 73.2622 184.513 73.2535C184.084 73.2115 183.596 73.3297 183.066 73.6328C181.5 74.5421 180.238 76.7305 180.238 78.5324C180.238 78.8522 180.28 79.1386 180.356 79.383C180.373 79.4417 180.389 79.5005 180.424 79.5599C180.44 79.6187 180.466 79.6781 180.499 79.7282C180.625 79.9805 180.802 80.1828 181.021 80.3177L178.698 78.9704C178.185 78.676 177.874 78.0444 177.865 77.1518C177.865 75.3499 179.128 73.1614 180.693 72.2521C181.484 71.7975 182.199 71.7554 182.713 72.0585L185.086 73.4298Z" fill="#212121"/>
<path d="M181.021 80.5307C180.984 80.5307 180.947 80.5214 180.914 80.502L178.59 79.1548C177.993 78.8116 177.66 78.1013 177.65 77.1539C177.65 75.2886 178.967 73.0073 180.585 72.068C181.422 71.5866 182.216 71.5179 182.82 71.875L185.192 73.2463C185.291 73.3038 185.327 73.4299 185.273 73.5314C185.219 73.6322 185.094 73.6716 184.992 73.6229C184.988 73.6209 184.953 73.6029 184.95 73.6009C184.927 73.5955 184.887 73.5761 184.868 73.5648C184.845 73.5508 184.802 73.5368 184.765 73.5247C184.725 73.5107 184.686 73.4973 184.647 73.4907L184.483 73.466C184.093 73.4279 183.648 73.5461 183.172 73.8191C181.671 74.6897 180.451 76.8048 180.451 78.5332C180.451 78.823 180.488 79.088 180.559 79.3204C180.576 79.3771 180.587 79.4185 180.609 79.4558C180.64 79.5433 180.657 79.5814 180.677 79.6114C180.8 79.8544 180.949 80.024 181.133 80.1368C181.233 80.1983 181.264 80.3278 181.204 80.4279C181.164 80.4934 181.093 80.5307 181.021 80.5307ZM181.963 72.0767C181.611 72.0767 181.215 72.1982 180.8 72.4379C179.299 73.3084 178.078 75.4241 178.078 77.1519C178.086 77.9397 178.343 78.5205 178.805 78.7856L180.205 79.5974C180.184 79.5574 180.167 79.4959 180.151 79.4412C180.068 79.1728 180.024 78.8657 180.024 78.5325C180.024 76.6685 181.341 74.388 182.959 73.4486C183.323 73.2397 183.677 73.1095 184.014 73.0581L182.606 72.2436C182.417 72.1321 182.2 72.0767 181.963 72.0767Z" fill="#212121"/>
<path d="M185.911 75.2573C185.92 77.0506 184.649 79.2477 183.083 80.157C182.275 80.6197 181.543 80.6537 181.021 80.3172C180.802 80.1824 180.626 79.9801 180.499 79.7277C180.466 79.6776 180.441 79.6182 180.424 79.5595C180.398 79.5094 180.373 79.442 180.356 79.3826C180.28 79.1382 180.238 78.8525 180.238 78.532C180.238 76.7308 181.501 74.5416 183.066 73.6323C183.596 73.3293 184.084 73.2118 184.514 73.2531C184.572 73.2618 184.623 73.2699 184.682 73.2785C184.733 73.2872 184.783 73.3039 184.834 73.3206C184.884 73.3373 184.934 73.354 184.976 73.3793C185.549 73.6491 185.911 74.2973 185.911 75.2573Z" fill="#3C2C0B"/>
<path d="M181.817 80.7569C181.482 80.7569 181.174 80.6701 180.905 80.4965C180.656 80.3436 180.455 80.1166 180.307 79.8236C180.277 79.7808 180.243 79.7041 180.218 79.6199C180.2 79.5932 180.17 79.5118 180.15 79.441C180.067 79.1726 180.023 78.8655 180.023 78.5324C180.023 76.6684 181.34 74.3878 182.958 73.4485C183.514 73.13 184.045 72.9945 184.533 73.0412L184.711 73.0679C184.778 73.0786 184.838 73.098 184.9 73.1187C184.954 73.1367 185.021 73.1587 185.084 73.1954C185.738 73.5032 186.123 74.2576 186.123 75.2564C186.131 77.1157 184.814 79.3963 183.189 80.3403C182.707 80.618 182.242 80.7569 181.817 80.7569ZM184.338 73.4578C183.984 73.4578 183.59 73.578 183.172 73.8177C181.672 74.6882 180.451 76.8032 180.451 78.5317C180.451 78.8215 180.488 79.0865 180.56 79.3188C180.574 79.3703 180.594 79.4243 180.614 79.4644C180.64 79.5418 180.657 79.5805 180.677 79.6099C180.801 79.8529 180.949 80.0225 181.133 80.1353C181.606 80.4404 182.259 80.3823 182.977 79.9718C184.484 79.0958 185.706 76.9815 185.698 75.2584C185.698 74.4185 185.409 73.8203 184.886 73.5733C184.845 73.5506 184.802 73.5359 184.766 73.5239C184.725 73.5099 184.687 73.4965 184.647 73.4899L184.483 73.4652C184.436 73.4605 184.388 73.4578 184.338 73.4578Z" fill="#212121"/>
<path d="M195.815 67.1166C195.705 67.0665 195.579 67.0244 195.453 67.0071C195.42 66.9984 195.386 66.9904 195.344 66.9904C194.923 66.9483 194.426 67.0665 193.904 67.369C192.339 68.2783 191.068 70.4667 191.076 72.2686C191.076 72.5884 191.118 72.8748 191.194 73.1191C191.211 73.1866 191.236 73.2453 191.262 73.3041C191.304 73.4222 191.355 73.5231 191.421 73.6159C191.455 73.6659 191.489 73.708 191.523 73.7507C191.548 73.7928 191.582 73.8268 191.616 73.8515C191.683 73.9356 191.776 74.0117 191.877 74.0705L189.529 72.7153C189.024 72.4122 188.704 71.7893 188.704 70.8967C188.695 69.0867 189.967 66.8976 191.532 65.997C192.323 65.5336 193.038 65.4916 193.552 65.7947L195.815 67.1166Z" fill="#212121"/>
<path d="M191.875 74.2834C191.838 74.2834 191.801 74.274 191.768 74.2547L189.421 72.8994C188.819 72.5383 188.489 71.8272 188.489 70.8966C188.481 69.0299 189.797 66.748 191.423 65.812C192.257 65.3253 193.052 65.2525 193.658 65.611L195.921 66.9322C196.019 66.9896 196.055 67.1138 196.003 67.2153C195.951 67.3161 195.824 67.3575 195.724 67.3101C195.621 67.2627 195.517 67.2307 195.423 67.218C195.374 67.2073 195.358 67.2033 195.342 67.2033C194.924 67.1646 194.474 67.2841 194.011 67.5531C192.502 68.4291 191.28 70.5434 191.288 72.2672C191.288 72.5569 191.325 72.822 191.396 73.0556C191.413 73.1204 191.434 73.1705 191.456 73.2199C191.498 73.336 191.54 73.4182 191.592 73.4889C191.623 73.537 191.651 73.5704 191.677 73.6038C191.714 73.6572 191.729 73.6712 191.741 73.6792C191.755 73.6899 191.768 73.7032 191.779 73.7173C191.827 73.778 191.898 73.8374 191.98 73.8842C191.98 73.8842 191.98 73.8848 191.98 73.8855C192.082 73.9449 192.116 74.0751 192.057 74.1766C192.02 74.246 191.948 74.2834 191.875 74.2834ZM192.804 65.8133C192.452 65.8133 192.054 65.9368 191.636 66.1812C190.128 67.0497 188.907 69.1647 188.915 70.8959C188.915 71.6717 189.171 72.2525 189.637 72.5322L191.047 73.346C191.026 73.2953 191.003 73.2373 190.986 73.1725C190.905 72.9068 190.862 72.6003 190.862 72.2685C190.853 70.4099 192.169 68.1286 193.796 67.1846C194.149 66.9797 194.503 66.8488 194.84 66.7954L193.442 65.9795C193.255 65.8687 193.039 65.8133 192.804 65.8133Z" fill="#212121"/>
<path d="M196.75 68.9942C196.758 70.7961 195.496 72.9845 193.922 73.8938C193.13 74.3485 192.415 74.3906 191.902 74.0875C191.893 74.0788 191.885 74.0788 191.877 74.0708C191.776 74.012 191.683 73.9359 191.616 73.8518C191.574 73.8184 191.548 73.793 191.523 73.751C191.489 73.7089 191.455 73.6669 191.421 73.6161C191.363 73.5233 191.304 73.4138 191.262 73.3043C191.236 73.2456 191.211 73.1862 191.194 73.1194C191.119 72.8751 191.076 72.5893 191.076 72.2689C191.068 70.467 192.339 68.2785 193.904 67.3692C194.426 67.0661 194.922 66.9486 195.344 66.9907C195.386 66.9907 195.419 66.9993 195.453 67.0073C195.579 67.024 195.706 67.0661 195.815 67.1168C196.388 67.3866 196.75 68.0348 196.75 68.9942Z" fill="#3C2C0B"/>
<path d="M192.649 74.4962C192.337 74.4962 192.048 74.4214 191.793 74.2705C191.787 74.2672 191.782 74.2632 191.777 74.2598C191.761 74.2498 191.743 74.2371 191.733 74.2284C191.641 74.1804 191.53 74.0869 191.448 73.9841C191.428 73.9748 191.383 73.932 191.341 73.8619C191.311 73.8279 191.277 73.7838 191.243 73.7331C191.192 73.6516 191.119 73.5268 191.062 73.3812C191.036 73.3198 191.008 73.251 190.987 73.1729C190.906 72.9072 190.863 72.6008 190.863 72.269C190.855 70.4103 192.17 68.1291 193.797 67.1851C194.339 66.8706 194.886 66.7297 195.365 66.7785C195.426 66.7698 195.469 66.7911 195.505 66.7998C195.654 66.8192 195.807 66.878 195.904 66.9227C196.577 67.2391 196.963 67.9929 196.963 68.9923C196.972 70.8569 195.656 73.1382 194.028 74.0775C193.544 74.3559 193.075 74.4962 192.649 74.4962ZM192.01 73.9033C192.475 74.1784 193.117 74.1096 193.816 73.709C195.324 72.8378 196.545 70.7228 196.536 68.9956C196.536 68.995 196.536 68.995 196.536 68.9943C196.536 68.1545 196.248 67.5563 195.724 67.3099C195.623 67.2632 195.519 67.2318 195.425 67.2184C195.376 67.2077 195.36 67.2038 195.344 67.2038C194.926 67.165 194.476 67.2845 194.012 67.5536C192.504 68.4295 191.282 70.5438 191.29 72.2676C191.29 72.5574 191.327 72.8224 191.398 73.0561C191.415 73.1209 191.436 73.1709 191.458 73.2203C191.498 73.3231 191.549 73.4193 191.602 73.5001C191.626 73.5368 191.653 73.5708 191.679 73.6042C191.713 73.6536 191.72 73.661 191.749 73.6837C191.83 73.7785 191.902 73.8379 191.984 73.8853C191.989 73.8893 191.999 73.896 192.01 73.9033Z" fill="#212121"/>
<path d="M272.62 208.227C271.753 208.227 270.884 208.036 270.222 207.653L239.909 190.471C239.806 190.413 239.771 190.283 239.828 190.18C239.886 190.077 240.017 190.041 240.119 190.099L270.433 207.283C271.642 207.98 273.6 207.981 274.799 207.284L290.908 197.919C291.01 197.86 291.141 197.894 291.2 197.997C291.26 198.098 291.225 198.229 291.123 198.289L275.014 207.653C274.355 208.036 273.488 208.227 272.62 208.227Z" fill="#DBDEE4"/>
<path d="M288.265 199.537C286.737 198.655 286.728 197.223 288.246 196.341C289.764 195.458 292.235 195.459 293.763 196.341C295.291 197.224 295.298 198.655 293.78 199.537C292.262 200.419 289.793 200.42 288.265 199.537Z" fill="#FFF7E4"/>
<path d="M291.024 200.407C289.987 200.407 288.949 200.178 288.157 199.721C287.346 199.253 286.9 198.618 286.898 197.933C286.898 197.252 287.338 196.621 288.138 196.155C289.712 195.241 292.283 195.24 293.868 196.156C294.678 196.623 295.124 197.258 295.126 197.943C295.127 198.624 294.686 199.255 293.886 199.72C293.099 200.178 292.061 200.407 291.024 200.407ZM290.999 195.89C290.039 195.89 289.081 196.101 288.352 196.525C287.689 196.91 287.324 197.41 287.325 197.933C287.326 198.46 287.697 198.964 288.37 199.353C289.837 200.199 292.215 200.2 293.671 199.352C294.334 198.967 294.699 198.467 294.699 197.944C294.698 197.418 294.326 196.914 293.654 196.525C292.92 196.102 291.959 195.89 290.999 195.89Z" fill="#DBDEE4"/>
<path d="M291.005 196.931C291.6 196.931 292.177 197.066 292.586 197.303C292.916 197.492 293.104 197.726 293.104 197.943C293.104 198.157 292.92 198.387 292.597 198.575C292.191 198.811 291.617 198.946 291.022 198.946C290.427 198.946 289.851 198.811 289.442 198.574C289.113 198.384 288.924 198.15 288.924 197.933C288.924 197.719 289.108 197.489 289.431 197.301C289.836 197.066 290.409 196.931 291.005 196.931Z" fill="#FFBE2E"/>
<path d="M282.252 202.026C282.892 202.026 283.511 202.171 283.951 202.426C284.304 202.629 284.507 202.88 284.507 203.113C284.507 203.344 284.308 203.591 283.961 203.792C283.525 204.046 282.908 204.192 282.269 204.192C281.631 204.192 281.012 204.046 280.572 203.792C280.219 203.588 280.016 203.338 280.016 203.104C280.016 202.874 280.214 202.627 280.56 202.425C280.996 202.171 281.613 202.026 282.252 202.026Z" fill="#212121"/>
<path d="M291.501 109.623C290.861 109.623 290.242 109.796 289.802 110.098C289.449 110.34 289.246 110.637 289.246 110.914C289.245 111.187 289.444 111.482 289.792 111.721C290.228 112.022 290.844 112.195 291.483 112.195C292.122 112.195 292.741 112.022 293.18 111.72C293.534 111.478 293.736 111.18 293.737 110.903C293.737 110.63 293.539 110.336 293.192 110.096C292.756 109.796 292.14 109.623 291.501 109.623Z" fill="#212121"/>
<path d="M135.866 146.377C135.829 146.377 135.793 146.368 135.759 146.349L95.5137 122.954C95.4123 122.895 95.3782 122.764 95.437 122.662C95.495 122.559 95.6252 122.525 95.7287 122.585L135.973 145.98C136.075 146.039 136.109 146.17 136.05 146.271C136.011 146.339 135.939 146.377 135.866 146.377Z" fill="#212121"/>
<path d="M135.866 138.525C135.829 138.525 135.793 138.516 135.759 138.496L95.5137 115.102C95.4123 115.042 95.3782 114.911 95.437 114.81C95.495 114.707 95.6252 114.674 95.7287 114.732L135.973 138.127C136.075 138.187 136.109 138.317 136.05 138.419C136.011 138.488 135.939 138.525 135.866 138.525Z" fill="#212121"/>
<path d="M151.058 194.691C149.53 193.809 149.521 192.377 151.039 191.495C152.558 190.612 155.029 190.613 156.558 191.495C158.086 192.378 158.093 193.809 156.575 194.691C155.056 195.573 152.586 195.573 151.058 194.691Z" fill="#FFF7E4"/>
<path d="M153.818 195.562C152.781 195.562 151.742 195.333 150.95 194.875C150.139 194.407 149.693 193.773 149.691 193.087C149.691 192.406 150.131 191.775 150.931 191.31C152.505 190.395 155.077 190.394 156.663 191.31C157.473 191.778 157.92 192.413 157.92 193.098C157.921 193.779 157.481 194.41 156.681 194.875C155.893 195.333 154.856 195.562 153.818 195.562ZM151.164 194.506C152.63 195.353 155.01 195.353 156.466 194.506C157.131 194.12 157.495 193.62 157.495 193.098C157.495 192.571 157.123 192.067 156.45 191.679C154.982 190.832 152.602 190.832 151.146 191.678C150.483 192.063 150.118 192.563 150.119 193.086C150.119 193.613 150.49 194.117 151.164 194.506Z" fill="#DBDEE4"/>
<path d="M153.796 192.084C154.392 192.084 154.968 192.22 155.378 192.457C155.707 192.647 155.896 192.88 155.896 193.097C155.896 193.312 155.711 193.542 155.388 193.729C154.982 193.966 154.407 194.101 153.813 194.101C153.217 194.101 152.641 193.965 152.232 193.729C151.902 193.539 151.714 193.305 151.713 193.088C151.713 192.874 151.898 192.643 152.22 192.456C152.626 192.219 153.2 192.084 153.796 192.084Z" fill="#FFBE2E"/>
<path d="M140.343 184.426C140.982 184.426 141.602 184.571 142.042 184.826C142.395 185.03 142.598 185.28 142.598 185.513C142.599 185.744 142.4 185.991 142.052 186.193C141.616 186.447 141 186.592 140.36 186.592C139.72 186.592 139.102 186.447 138.662 186.193C138.308 185.989 138.105 185.738 138.105 185.505C138.105 185.274 138.304 185.027 138.65 184.826C139.087 184.571 139.703 184.426 140.343 184.426Z" fill="#212121"/>
<g opacity="0.1">
<path d="M268.522 86.3143L250.095 96.9529L225.711 82.7826L250.053 68.7285L274.437 82.8988L268.522 86.3143Z" fill="black"/>
</g>
<path d="M250.22 95.4105L224.438 80.4276L250.176 65.5679L275.958 80.5508L250.22 95.4105Z" fill="white"/>
<path d="M250.219 95.5292C250.199 95.5292 250.178 95.524 250.159 95.5133L224.377 80.5303C224.341 80.5093 224.318 80.47 224.318 80.4279C224.318 80.3857 224.341 80.3468 224.378 80.3257L250.116 65.466C250.153 65.4449 250.197 65.4449 250.234 65.466L276.017 80.4489C276.053 80.47 276.076 80.5093 276.076 80.5514C276.076 80.5936 276.053 80.6325 276.016 80.6536L250.278 95.5136C250.26 95.524 250.239 95.5292 250.219 95.5292ZM224.672 80.4282L250.219 95.2742L275.721 80.5507L250.175 65.7051L224.672 80.4282Z" fill="#373B42"/>
<path d="M250.221 95.4102L224.439 80.4273L224.355 50.8467L250.138 65.8296L250.221 95.4102Z" fill="#FFBE2E"/>
<path d="M250.219 95.5294C250.198 95.5294 250.178 95.5242 250.159 95.5135L224.377 80.5306C224.341 80.5095 224.318 80.4706 224.318 80.4284L224.234 50.8478C224.234 50.8056 224.257 50.7664 224.294 50.7453C224.331 50.7242 224.375 50.7242 224.412 50.7453L250.194 65.7282C250.23 65.7493 250.253 65.7882 250.253 65.8304L250.337 95.4114C250.337 95.4536 250.314 95.4928 250.278 95.5139C250.259 95.5242 250.239 95.5294 250.219 95.5294ZM224.554 80.36L250.1 95.2053L250.016 65.8981L224.471 51.0532L224.554 80.36Z" fill="#373B42"/>
<path d="M250.138 65.8298L224.355 50.8469L250.093 35.9868L275.875 50.9701L250.138 65.8298Z" fill="#373B42"/>
<path d="M250.135 65.9485C250.114 65.9485 250.094 65.9433 250.075 65.9326L224.293 50.9497C224.257 50.9286 224.234 50.8893 224.234 50.8472C224.234 50.805 224.257 50.7661 224.294 50.745L250.031 35.885C250.068 35.8639 250.113 35.8639 250.15 35.885L275.932 50.8679C275.969 50.889 275.991 50.9282 275.991 50.9704C275.991 51.0126 275.968 51.0514 275.932 51.0725L250.193 65.9322C250.175 65.9433 250.155 65.9485 250.135 65.9485ZM224.589 50.8479L250.135 65.6935L275.637 50.9704L250.091 36.1244L224.589 50.8479Z" fill="#373B42"/>
<path d="M275.959 80.5533L250.218 95.4123L250.135 65.832L260.046 60.1115L266.042 56.6517L275.877 50.9727L275.959 80.5533Z" fill="#3C2C0B"/>
<path d="M250.217 95.5299C250.196 95.5299 250.176 95.5247 250.157 95.5144C250.121 95.4933 250.098 95.4544 250.098 95.4119L250.016 65.8312C250.016 65.789 250.038 65.7498 250.075 65.7287L275.817 50.8694C275.854 50.8483 275.898 50.8483 275.935 50.869C275.972 50.8901 275.994 50.929 275.994 50.9715L276.077 80.5521C276.077 80.5943 276.054 80.6336 276.018 80.6547L250.276 95.514C250.257 95.5243 250.237 95.5299 250.217 95.5299ZM250.252 65.8993L250.335 95.2072L275.84 80.4844L275.758 51.1765L250.252 65.8993Z" fill="#373B42"/>
<path d="M250.155 62.5432L224.373 47.5603L250.111 32.7002L275.893 47.6831L250.155 62.5432Z" fill="white"/>
<path d="M250.155 62.661C250.134 62.661 250.113 62.6558 250.095 62.6451L224.313 47.6622C224.276 47.6411 224.254 47.6019 224.254 47.5597C224.254 47.5175 224.276 47.4786 224.313 47.4576L250.051 32.5979C250.088 32.5768 250.133 32.5768 250.17 32.5979L275.952 47.5808C275.989 47.6019 276.011 47.6411 276.011 47.6833C276.011 47.7255 275.988 47.7643 275.952 47.7854L250.214 62.6451C250.195 62.6558 250.175 62.661 250.155 62.661ZM224.608 47.5601L250.155 62.4061L275.657 47.6825L250.11 32.8369L224.608 47.5601Z" fill="#373B42"/>
<path d="M250.157 62.5424L224.375 47.5595L224.291 17.9785L250.073 32.9614L250.157 62.5424Z" fill="#FFBE2E"/>
<path d="M250.158 62.6596C250.138 62.6596 250.117 62.6544 250.098 62.6437L224.316 47.6607C224.28 47.6397 224.257 47.6008 224.257 47.5586L224.174 17.978C224.174 17.9358 224.196 17.8966 224.233 17.8755C224.27 17.854 224.315 17.854 224.352 17.8755L250.134 32.8584C250.17 32.8795 250.192 32.9183 250.192 32.9605L250.276 62.5415C250.276 62.5837 250.254 62.623 250.217 62.644C250.199 62.6544 250.178 62.6596 250.158 62.6596ZM224.494 47.4902L250.039 62.3354L249.956 33.0282L224.411 18.1833L224.494 47.4902Z" fill="#373B42"/>
<path d="M250.071 32.9608L224.289 17.9779L250.027 3.11816L275.809 18.1011L250.071 32.9608Z" fill="#FFF7E4"/>
<path d="M250.072 33.0796C250.052 33.0796 250.031 33.0745 250.013 33.0637L224.231 18.0808C224.194 18.0597 224.172 18.0205 224.172 17.9783C224.172 17.9361 224.194 17.8973 224.231 17.8762L249.969 3.0161C250.006 2.99463 250.051 2.99463 250.088 3.0161L275.87 17.999C275.906 18.0201 275.929 18.0593 275.929 18.1015C275.929 18.1437 275.906 18.1826 275.869 18.2037L250.131 33.0634C250.113 33.0745 250.092 33.0796 250.072 33.0796ZM224.526 17.979L250.072 32.8247L275.574 18.1015L250.028 3.25551L224.526 17.979Z" fill="#373B42"/>
<path d="M275.899 47.6846L250.157 62.544L250.074 32.9633L259.985 27.2433L265.981 23.7834L275.816 18.104L275.899 47.6846Z" fill="#3C2C0B"/>
<path d="M250.154 62.6622C250.134 62.6622 250.113 62.657 250.095 62.6463C250.058 62.6252 250.036 62.5864 250.036 62.5442L249.953 32.9635C249.953 32.9214 249.976 32.8821 250.012 32.861L275.754 18.0017C275.791 17.9806 275.836 17.9806 275.873 18.0013C275.909 18.0224 275.932 18.0613 275.932 18.1035L276.015 47.6841C276.015 47.7263 275.992 47.7655 275.955 47.7866L250.214 62.6456C250.195 62.657 250.174 62.6622 250.154 62.6622ZM250.19 33.0316L250.272 62.3395L275.778 47.6168L275.696 18.3085L250.19 33.0316Z" fill="#373B42"/>
<path d="M254.75 35.6485L260.644 32.2456L260.664 39.0185L254.769 42.4213L254.75 35.6485ZM259.492 38.3505L259.48 34.262L255.922 36.3164L255.933 40.405L259.492 38.3505Z" fill="#373B42"/>
<path d="M258.289 36.3257L258.293 37.6678L257.125 38.342L257.121 36.9999L258.289 36.3257Z" fill="#373B42"/>
<path d="M268.819 30.2461L268.822 31.5882L267.654 32.2624L267.65 30.9203L268.819 30.2461Z" fill="#373B42"/>
<path d="M265.277 29.5679L271.171 26.165L271.191 32.9379L265.297 36.3408L265.277 29.5679ZM270.019 32.27L270.008 28.1814L266.45 30.2355L266.461 34.3241L270.019 32.27Z" fill="#373B42"/>
<path d="M265.345 43.0161L265.35 44.3582L264.179 45.0339L264.176 43.6918L265.345 43.0161Z" fill="#373B42"/>
<path d="M266.52 45.0267L267.688 44.3525L267.695 47.0387L267.111 47.3761L266.527 47.7132L263.022 49.7374L263.018 48.393L266.524 46.3689L266.52 45.0267Z" fill="#373B42"/>
<path d="M264.182 46.3768L263.014 47.051L263.017 48.3931L261.849 49.0677L261.838 45.0409L263.006 44.3667L263.01 45.7088L264.178 45.0346L264.182 46.3768Z" fill="#373B42"/>
<path d="M264.168 42.3516L264.172 43.6937L263.004 44.3679L263 43.0258L264.168 42.3516Z" fill="#373B42"/>
<path d="M259.447 41.0412L259.451 42.3834L262.995 40.3374L262.999 41.6818L263.002 43.0239L261.834 43.6981L261.83 42.356L258.287 44.4019L258.283 43.0579L257.113 43.7333L257.109 42.3911L258.279 41.7158L259.447 41.0412Z" fill="#373B42"/>
<path d="M254.785 47.7061L260.68 44.3032L260.699 51.0783L254.804 54.4812L254.785 47.7061ZM259.527 50.4081L259.515 46.3196L255.957 48.374L255.969 52.4626L259.527 50.4081Z" fill="#373B42"/>
<path d="M258.324 48.3838L258.328 49.7259L257.16 50.4005L257.156 49.058L258.324 48.3838Z" fill="#373B42"/>
<path d="M257.115 43.7349L257.119 45.0792L255.951 45.7534L255.947 44.4091L257.115 43.7349Z" fill="#373B42"/>
<path d="M264.135 30.229L264.139 31.5711L262.971 32.2457L262.974 33.6189L264.143 32.9444L264.154 36.9253L262.986 37.5998L262.99 38.9956L261.822 39.6702L261.814 36.9319L262.982 36.2577L262.978 34.9611L261.81 35.6353L261.799 31.5778L262.967 30.9036L264.135 30.229Z" fill="#373B42"/>
<path d="M264.16 38.3213L264.164 39.6634L262.996 40.3376L262.992 38.9955L264.16 38.3213Z" fill="#373B42"/>
<path d="M265.336 40.3315L265.34 41.6737L264.17 42.3494L264.166 41.0072L265.336 40.3315Z" fill="#373B42"/>
<path d="M266.517 43.6836L266.521 45.0257L265.353 45.6999L265.35 44.3578L266.517 43.6836Z" fill="#373B42"/>
<path d="M271.171 34.2744L271.178 36.9524L270.037 37.6111L270.041 38.9617L270.045 40.3038L268.85 40.9936L268.853 42.3357L270.021 41.6615L270.025 43.0037L267.689 44.3525L267.686 43.0103L267.682 41.6682L265.346 43.0166L265.342 41.6745L268.873 39.6359L268.865 36.9579L270.006 36.2989L270.002 34.9486L271.171 34.2744Z" fill="#373B42"/>
<path d="M267.664 36.2983L267.668 37.6405L267.672 38.9848L266.504 39.659L266.5 38.3147L265.332 38.9893L265.328 37.6471L266.496 36.9726L267.664 36.2983Z" fill="#373B42"/>
<path d="M271.211 39.6284L271.215 40.9706L270.047 41.6451L270.043 40.303L271.211 39.6284Z" fill="#373B42"/>
<path d="M271.191 42.3286L271.195 43.6711L270.027 44.3453L270.023 43.0032L271.191 42.3286Z" fill="#373B42"/>
<path d="M270.029 44.3457L270.033 45.6901L268.865 46.3643L268.861 45.0199L270.029 44.3457Z" fill="#373B42"/>
<path d="M255.94 43.0645L255.943 44.4066L254.775 45.0812L254.771 43.739L255.94 43.0645Z" fill="#373B42"/>
<path d="M253.435 41.387C253.37 41.387 253.317 41.3345 253.317 41.269L253.299 34.8729C253.299 34.8307 253.321 34.7914 253.358 34.7704L258.924 31.5569C258.979 31.5244 259.052 31.5432 259.086 31.6002C259.118 31.6568 259.098 31.729 259.042 31.7616L253.536 34.9409L253.554 41.2686C253.554 41.3338 253.501 41.387 253.436 41.387C253.435 41.387 253.435 41.387 253.435 41.387Z" fill="#373B42"/>
<path d="M266.985 49.1054C266.945 49.1054 266.905 49.0843 266.883 49.0462C266.851 48.9896 266.87 48.9174 266.926 48.8848L272.431 45.7066L272.413 39.3811C272.413 39.316 272.466 39.2627 272.531 39.2627H272.531C272.596 39.2627 272.649 39.3152 272.649 39.3807L272.668 45.7747C272.668 45.8168 272.645 45.8561 272.608 45.8772L267.044 49.0898C267.026 49.1002 267.006 49.1054 266.985 49.1054Z" fill="#373B42"/>
<path d="M272.508 30.3758C272.442 30.3758 272.389 30.3233 272.389 30.2578L272.371 24.0663L266.984 27.1768C266.928 27.2094 266.855 27.1902 266.822 27.1335C266.79 27.0769 266.809 27.0048 266.866 26.9722L272.43 23.7595C272.467 23.7384 272.511 23.7384 272.548 23.7591C272.585 23.7802 272.607 23.8191 272.607 23.8617L272.626 30.2574C272.626 30.3225 272.573 30.3758 272.508 30.3758H272.508Z" fill="#373B42"/>
<path d="M253.476 56.9033C253.456 56.9033 253.436 56.8981 253.417 56.8878C253.381 56.8667 253.358 56.8278 253.358 56.7853L253.34 50.3914C253.34 50.3262 253.392 50.2729 253.458 50.2729C253.523 50.2729 253.576 50.3255 253.576 50.391L253.594 56.5806L258.983 53.469C259.038 53.436 259.111 53.4553 259.145 53.5123C259.177 53.5689 259.158 53.6411 259.101 53.6736L253.535 56.8874C253.517 56.8981 253.497 56.9033 253.476 56.9033Z" fill="#373B42"/>
<path d="M272.259 35.5758C272.529 35.4196 272.747 35.5462 272.748 35.8548C272.749 36.1652 272.532 36.5408 272.262 36.697L253.695 47.4167C253.426 47.5717 253.208 47.4474 253.207 47.1366C253.206 46.8279 253.423 46.4505 253.691 46.2955L272.259 35.5758Z" fill="#FFBE2E"/>
<path d="M292.649 35.5066L272.48 23.3789L252.85 34.7125L252.914 57.269L292.649 35.5066Z" fill="url(#paint0_linear_5226_83164)"/>
<path opacity="0.1" d="M328.753 92.5458L322.336 88.8169C321.779 88.4935 321.092 88.4927 320.535 88.8143L281.877 111.14C280.681 111.83 280.679 113.555 281.872 114.249L287.587 117.57C288.571 118.141 289.784 118.143 290.77 117.575L328.748 95.6549C329.945 94.9647 329.947 93.2396 328.753 92.5458Z" fill="black"/>
<path d="M321.287 5.90483C320.691 5.56069 319.856 5.61028 318.941 6.14091L284.735 25.8944C284.184 26.2123 283.665 26.6644 283.211 27.2032C282.914 27.547 282.642 27.9329 282.409 28.3359C282.177 28.7389 281.979 29.157 281.824 29.5881C281.577 30.2627 281.438 30.9503 281.444 31.5952L281.659 107.141C281.657 108.188 282.024 108.92 282.617 109.262L289.509 113.263C288.912 112.919 288.542 112.184 288.545 111.143L288.326 35.5957C288.32 34.94 288.462 34.2484 288.717 33.5679C288.873 33.1368 289.075 32.7213 289.307 32.3183C289.54 31.9153 289.81 31.5334 290.11 31.1856C290.561 30.6509 291.077 30.2031 291.621 29.8868L325.823 10.1414C326.749 9.61189 327.573 9.56119 328.182 9.91273L321.287 5.90483Z" fill="#3C2C0B"/>
<path d="M290.108 31.1846L283.21 27.2026C282.913 27.5464 282.64 27.9324 282.408 28.3353C282.175 28.7383 281.978 29.1564 281.822 29.5875L288.716 33.5673C288.872 33.1362 289.073 32.7207 289.306 32.3177C289.539 31.9144 289.808 31.5328 290.108 31.1846Z" fill="#FFBE2E"/>
<path d="M289.507 113.381C289.486 113.381 289.466 113.376 289.447 113.365C289.444 113.364 289.441 113.362 289.438 113.36L282.558 109.363C281.901 108.984 281.538 108.194 281.538 107.14L281.322 31.5951C281.317 30.5545 281.666 29.3756 282.307 28.2754C282.938 27.1916 283.779 26.3087 284.674 25.7891L318.881 6.03712C319.803 5.50056 320.681 5.41731 321.348 5.80289L328.24 9.80598C328.24 9.80598 328.24 9.80635 328.241 9.80672H328.242C328.298 9.83966 328.317 9.91181 328.284 9.96843C328.251 10.0247 328.178 10.0439 328.123 10.0114H328.122L328.121 10.0102C327.533 9.67203 326.738 9.75381 325.884 10.2419L291.68 29.9898C290.823 30.4849 290.016 31.332 289.408 32.3758C288.782 33.4519 288.44 34.595 288.445 35.5941L288.661 111.14C288.658 112.101 288.977 112.816 289.559 113.157L289.566 113.161C289.623 113.194 289.642 113.266 289.609 113.322C289.587 113.36 289.547 113.381 289.507 113.381ZM320.422 5.80067C319.987 5.80067 319.503 5.94868 318.999 6.24176L284.792 25.9938C283.932 26.4929 283.122 27.3455 282.511 28.3946C281.892 29.4588 281.554 30.5948 281.559 31.5943L281.775 107.14C281.775 108.106 282.095 108.823 282.676 109.159L288.796 112.713C288.551 112.303 288.422 111.768 288.424 111.14L288.208 35.5952C288.203 34.5546 288.556 33.369 289.203 32.2571C289.832 31.178 290.669 30.3003 291.562 29.7856L325.766 10.0369C326.311 9.72568 326.838 9.56842 327.314 9.56842C327.33 9.56842 327.345 9.56878 327.361 9.56878L321.229 6.00752C320.99 5.8695 320.718 5.80067 320.422 5.80067Z" fill="#373B42"/>
<path d="M323.677 11.4961C323.657 11.4961 323.636 11.4909 323.618 11.4802L316.711 7.49301C316.655 7.46044 316.636 7.38828 316.668 7.33167C316.701 7.27468 316.774 7.25581 316.83 7.28837L323.736 11.2756C323.792 11.3081 323.812 11.3803 323.78 11.4369C323.757 11.4746 323.717 11.4961 323.677 11.4961Z" fill="#373B42"/>
<path d="M285.035 44.6566C284.744 44.4945 284.481 44.4742 284.292 44.583L283.592 44.9845C283.785 44.8783 284.044 44.896 284.334 45.0581C284.915 45.393 285.384 46.2082 285.386 46.8798L285.385 52.749C285.382 53.0913 285.264 53.3266 285.073 53.4395L285.773 53.038C285.965 52.9251 286.083 52.6898 286.086 52.3475L286.086 46.4783C286.084 45.807 285.615 44.9919 285.035 44.6566Z" fill="#373B42"/>
<path d="M285.072 53.5575C285.031 53.5575 284.992 53.5364 284.97 53.4987C284.937 53.4424 284.956 53.3702 285.012 53.3373C285.174 53.2418 285.264 53.0324 285.267 52.7478L285.267 46.8794C285.265 46.2462 284.82 45.4743 284.275 45.1598C284.033 45.0251 283.809 44.9988 283.648 45.088C283.592 45.1191 283.52 45.0991 283.488 45.0421C283.456 44.9855 283.476 44.9141 283.532 44.8815L284.233 44.4797C284.463 44.3461 284.769 44.3724 285.092 44.5526C285.092 44.5526 285.093 44.5529 285.093 44.5537C285.714 44.9119 286.202 45.757 286.204 46.4779L286.204 52.3471C286.2 52.719 286.069 53.0002 285.832 53.1397L285.131 53.5419C285.112 53.5523 285.092 53.5575 285.072 53.5575ZM284.095 44.8316C284.191 44.8571 284.291 44.8982 284.392 44.9541C285.013 45.3134 285.501 46.1585 285.503 46.879L285.503 52.749C285.502 52.8696 285.488 52.9806 285.46 53.0805L285.714 52.9355C285.874 52.8404 285.965 52.6309 285.967 52.3463L285.967 46.4783C285.965 45.8455 285.521 45.0739 284.975 44.759C284.728 44.621 284.506 44.5962 284.35 44.6854L284.095 44.8316Z" fill="#373B42"/>
<path d="M285.387 46.8803C285.387 46.2072 284.916 45.392 284.335 45.0586C283.754 44.7252 283.283 45.0005 283.283 45.6736L283.284 51.5447C283.284 52.2178 283.755 53.033 284.336 53.3664C284.917 53.6998 285.388 53.4245 285.388 52.7514L285.387 46.8803Z" fill="#FFBE2E"/>
<path d="M284.801 53.6265C284.638 53.6265 284.459 53.5736 284.276 53.4689C283.653 53.1114 283.165 52.2662 283.165 51.5447L283.164 45.6736C283.164 45.3028 283.295 45.0231 283.533 44.8854C283.769 44.7489 284.074 44.7733 284.393 44.9561C285.016 45.3132 285.504 46.1584 285.505 46.8803L285.505 52.7514C285.505 53.1218 285.374 53.4019 285.136 53.5395C285.036 53.5976 284.922 53.6265 284.801 53.6265ZM283.868 45.0349C283.788 45.0349 283.715 45.053 283.651 45.09C283.49 45.1837 283.401 45.3909 283.401 45.6736L283.402 51.5447C283.402 52.1789 283.846 52.9501 284.393 53.2635C284.636 53.4026 284.857 53.4274 285.018 53.3345C285.179 53.2409 285.268 53.0337 285.268 52.751L285.268 46.8799C285.268 46.2457 284.822 45.4745 284.276 45.1611C284.129 45.0771 283.991 45.0349 283.868 45.0349Z" fill="#373B42"/>
<path d="M286.134 77.8194C286.134 77.0897 285.624 76.206 284.994 75.8445C284.363 75.483 283.854 75.7816 283.854 76.5113L283.855 90.6875C283.855 91.4176 284.365 92.3013 284.995 92.6624C285.626 93.024 286.136 92.7253 286.136 91.9956L286.134 77.8194Z" fill="#FFBE2E"/>
<path d="M285.498 77.4691C285.498 77.7858 285.274 77.9124 285.001 77.7555C284.724 77.5967 284.504 77.2156 284.504 76.8989C284.504 76.574 284.724 76.4452 285.001 76.6039C285.274 76.7608 285.498 77.1442 285.498 77.4691Z" fill="#373B42"/>
<path d="M291.857 113.03C290.03 114.085 288.547 113.24 288.541 111.141L288.324 35.5957C288.318 33.4965 289.792 30.9436 291.619 29.8886L325.824 10.1392C327.651 9.08421 329.134 9.92975 329.14 12.029L329.357 87.5738C329.363 89.6734 327.889 92.2259 326.062 93.2809L291.857 113.03Z" fill="#373B42"/>
<path d="M290.373 113.604C290.038 113.604 289.726 113.525 289.452 113.367C288.792 112.987 288.426 112.196 288.423 111.14L288.207 35.5953C288.201 33.4631 289.706 30.8566 291.561 29.7857L325.766 10.0359C326.69 9.50191 327.566 9.41865 328.231 9.8009C328.891 10.1813 329.256 10.9717 329.26 12.0278L329.477 87.5726C329.482 89.7048 327.978 92.311 326.122 93.3822L291.917 113.132C291.375 113.445 290.849 113.604 290.373 113.604ZM327.309 9.80164C326.874 9.80164 326.389 9.94929 325.884 10.2409L291.679 29.9907C289.889 31.0242 288.438 33.5382 288.443 35.5949L288.66 111.14C288.663 112.107 288.986 112.826 289.57 113.162C290.159 113.501 290.951 113.417 291.799 112.927L326.004 93.1776C327.794 92.1441 329.245 89.63 329.239 87.5734L329.022 12.0285C329.02 11.0609 328.696 10.3426 328.113 10.0063C327.874 9.86973 327.603 9.80164 327.309 9.80164Z" fill="#373B42"/>
<path d="M327.856 10.458C328.265 10.6941 328.503 11.2684 328.505 12.0303L328.721 87.5758C328.724 88.4809 328.414 89.5193 327.846 90.5025C327.281 91.482 326.534 92.2731 325.745 92.7305L291.541 112.479C290.87 112.867 290.246 112.954 289.83 112.713C289.421 112.477 289.183 111.903 289.181 111.141L288.965 35.5955C288.962 34.6904 289.272 33.6521 289.839 32.6689C290.405 31.6894 291.151 30.8983 291.941 30.4409L326.145 10.6926C326.816 10.304 327.44 10.2178 327.856 10.458Z" fill="#FFF7E4"/>
<path d="M290.372 112.965C290.147 112.965 289.943 112.915 289.77 112.816C289.322 112.558 289.064 111.947 289.062 111.142L288.846 35.596C288.843 34.6694 289.159 33.6089 289.736 32.6101C290.312 31.6132 291.073 30.8065 291.881 30.3388L326.085 10.5901C326.795 10.1794 327.462 10.0939 327.915 10.3559C328.363 10.6146 328.621 11.2248 328.623 12.0303L328.839 87.5759C328.842 88.5025 328.526 89.563 327.949 90.5617C327.373 91.559 326.611 92.3657 325.803 92.8334L291.599 112.582C291.16 112.835 290.738 112.965 290.372 112.965ZM327.31 10.4418C326.988 10.4418 326.607 10.5613 326.203 10.7948L291.999 30.5434C291.227 30.9908 290.496 31.7668 289.941 32.7285C289.384 33.6921 289.08 34.7101 289.082 35.5956L289.298 111.141C289.3 111.861 289.515 112.396 289.888 112.611C290.266 112.829 290.847 112.744 291.481 112.377L325.685 92.6284C326.457 92.181 327.189 91.4051 327.743 90.4433C328.3 89.4797 328.605 88.4618 328.602 87.5762L328.386 12.0307C328.384 11.3117 328.17 10.7759 327.797 10.5605C327.659 10.481 327.494 10.4418 327.31 10.4418Z" fill="#373B42"/>
<path d="M301.028 29.1744C301.536 28.8851 314.424 21.4902 315.022 21.1472C315.978 20.5984 316.755 19.2525 316.756 18.1498L316.754 16.1401C316.156 16.4832 299.978 25.7656 299.296 26.1568L299.296 28.165C299.297 29.2692 300.073 29.7232 301.028 29.1744Z" fill="#373B42"/>
<path d="M300.26 29.5271C300.074 29.5271 299.901 29.483 299.747 29.3938C299.38 29.1814 299.177 28.7455 299.177 28.1653V26.1567C299.177 26.1145 299.199 26.0753 299.236 26.0542C299.918 25.6635 316.096 16.3806 316.694 16.0376C316.73 16.0169 316.776 16.0165 316.812 16.038C316.848 16.0591 316.871 16.0979 316.871 16.1405L316.873 18.1502C316.872 19.2921 316.068 20.6827 315.08 21.25C314.946 21.3266 301.61 28.9787 301.087 29.2773C300.798 29.4434 300.516 29.5271 300.26 29.5271ZM299.413 26.2256V28.1653C299.414 28.6571 299.574 29.0208 299.865 29.1888C300.153 29.3557 300.546 29.3146 300.968 29.0719L300.968 29.0715C301.486 28.7766 314.828 21.1212 314.962 21.0446C315.884 20.5151 316.635 19.2163 316.636 18.1498L316.634 16.344C314.804 17.3949 300.618 25.5347 299.413 26.2256Z" fill="#373B42"/>
<path d="M312.685 20.9374C312.883 20.5943 312.992 20.2299 312.992 19.9116C312.992 19.6252 312.905 19.4169 312.747 19.3251C312.592 19.2352 312.372 19.2622 312.129 19.401L301.286 25.6213C301.011 25.7793 300.75 26.0558 300.551 26.4003C300.352 26.7455 300.242 27.1122 300.242 27.4327C300.242 27.7158 300.328 27.9219 300.486 28.0125C300.642 28.1032 300.863 28.0762 301.107 27.9363L311.95 21.7163C312.226 21.5583 312.486 21.2815 312.685 20.9374Z" fill="white"/>
<path d="M315.498 19.3231C315.696 18.9801 315.806 18.6159 315.806 18.2977C315.806 18.0113 315.719 17.8033 315.561 17.7116C315.405 17.6213 315.185 17.6483 314.941 17.7882C314.665 17.9462 314.404 18.2226 314.205 18.5671C314.006 18.9123 313.896 19.2787 313.896 19.5991C313.896 19.8822 313.983 20.088 314.14 20.179C314.296 20.2696 314.517 20.2426 314.761 20.1028C315.038 19.9444 315.299 19.6676 315.498 19.3231Z" fill="white"/>
<path d="M315.235 19.1712C315.353 18.9673 315.418 18.7509 315.418 18.5618C315.418 18.3916 315.366 18.268 315.272 18.2132C315.18 18.1595 315.049 18.1758 314.904 18.2587C314.74 18.3527 314.585 18.517 314.467 18.722C314.348 18.927 314.283 19.1449 314.283 19.3355C314.283 19.5035 314.335 19.626 314.428 19.6804C314.521 19.7344 314.652 19.7181 314.797 19.6353C314.961 19.5409 315.117 19.3762 315.235 19.1712Z" fill="#FFBE2E"/>
<path d="M316.695 13.0689C317.397 12.6637 317.392 12.0061 316.695 11.6009C315.988 11.1905 314.862 11.1905 314.161 11.5957C313.441 12.0113 313.437 12.6637 314.143 13.074C314.84 13.4792 315.975 13.4844 316.695 13.0689Z" fill="#FFBE2E"/>
<path d="M288.338 40.6167C288.318 40.6167 288.297 40.6115 288.279 40.6008L281.393 36.6258C281.337 36.5933 281.317 36.5211 281.35 36.4645C281.383 36.4075 281.456 36.3886 281.511 36.4212L288.397 40.3962C288.453 40.4287 288.473 40.5009 288.44 40.5575C288.418 40.5956 288.378 40.6167 288.338 40.6167Z" fill="#373B42"/>
<path d="M288.529 106.825C288.509 106.825 288.488 106.82 288.47 106.809L281.584 102.834C281.528 102.802 281.509 102.73 281.541 102.673C281.574 102.616 281.647 102.597 281.703 102.63L288.588 106.605C288.644 106.637 288.664 106.709 288.631 106.766C288.61 106.804 288.57 106.825 288.529 106.825Z" fill="#373B42"/>
<path d="M295.645 52.8164L305.284 47.251L305.316 58.3274L295.676 63.8928L295.645 52.8164ZM303.399 57.2354L303.38 50.5488L297.561 53.9084L297.58 60.595L303.399 57.2354Z" fill="#212121"/>
<path d="M301.434 53.9229L301.44 56.1179L299.53 57.2206L299.523 55.0259L301.434 53.9229Z" fill="#212121"/>
<path d="M318.65 43.9819L318.657 46.1766L316.747 47.2797L316.74 45.0847L318.65 43.9819Z" fill="#212121"/>
<path d="M312.861 42.8759L322.501 37.3105L322.532 48.387L312.893 53.9524L312.861 42.8759ZM320.616 47.295L320.597 40.6083L314.778 43.9679L314.797 50.6546L320.616 47.295Z" fill="#212121"/>
<path d="M312.972 64.8672L312.978 67.0619L311.065 68.1665L311.059 65.9718L312.972 64.8672Z" fill="#212121"/>
<path d="M314.892 68.1548L316.802 67.0518L316.814 71.4452L315.859 71.9966L314.904 72.548L309.17 75.8583L309.164 73.6599L314.898 70.3496L314.892 68.1548Z" fill="#212121"/>
<path d="M311.071 70.3613L309.161 71.464L309.167 73.6591L307.257 74.7622L307.238 68.1769L309.148 67.0742L309.155 69.2693L311.065 68.1662L311.071 70.3613Z" fill="#212121"/>
<path d="M311.051 63.7764L311.057 65.9714L309.147 67.0742L309.141 64.8795L311.051 63.7764Z" fill="#212121"/>
<path d="M303.325 61.637L303.331 63.8317L309.127 60.4858L309.133 62.6843L309.139 64.8793L307.229 65.982L307.223 63.787L301.428 67.1329L301.421 64.9348L299.508 66.0394L299.502 63.8443L301.415 62.7398L303.325 61.637Z" fill="#212121"/>
<path d="M295.703 72.5371L305.343 66.9717L305.374 78.0514L295.735 83.6168L295.703 72.5371ZM303.458 76.9561L303.439 70.2695L297.62 73.6291L297.639 80.3157L303.458 76.9561Z" fill="#212121"/>
<path d="M301.488 73.6436L301.495 75.8386L299.584 76.9417L299.578 74.7466L301.488 73.6436Z" fill="#212121"/>
<path d="M299.51 66.0405L299.516 68.2386L297.606 69.3417L297.6 67.1433L299.51 66.0405Z" fill="#212121"/>
<path d="M310.992 43.9536L310.998 46.1487L309.088 47.2514L309.095 49.4972L311.005 48.3945L311.023 54.9046L309.113 56.0077L309.12 58.2904L307.21 59.3935L307.197 54.9157L309.107 53.8126L309.101 51.6923L307.191 52.795L307.172 46.1594L309.082 45.0567L310.992 43.9536Z" fill="#212121"/>
<path d="M311.031 57.188L311.038 59.3831L309.127 60.4858L309.121 58.2907L311.031 57.188Z" fill="#212121"/>
<path d="M312.958 60.4766L312.964 62.6713L311.051 63.7758L311.045 61.5811L312.958 60.4766Z" fill="#212121"/>
<path d="M314.885 65.958L314.891 68.1531L312.981 69.2558L312.975 67.0607L314.885 65.958Z" fill="#212121"/>
<path d="M322.497 50.5684L322.51 54.9482L320.644 56.0257L320.65 58.2341L320.656 60.4288L318.702 61.5574L318.708 63.7522L320.618 62.6494L320.624 64.8445L316.804 67.0499L316.798 64.8552L316.792 62.6602L312.971 64.866L312.965 62.6709L318.74 59.3368L318.727 54.957L320.593 53.8799L320.587 51.6715L322.497 50.5684Z" fill="#212121"/>
<path d="M316.766 53.8774L316.772 56.0725L316.778 58.2709L314.868 59.3736L314.862 57.1752L312.952 58.2783L312.945 56.0833L314.855 54.9805L316.766 53.8774Z" fill="#212121"/>
<path d="M322.564 59.3262L322.571 61.5213L320.661 62.624L320.654 60.4289L322.564 59.3262Z" fill="#212121"/>
<path d="M322.532 63.7417L322.539 65.9368L320.628 67.0395L320.622 64.8448L322.532 63.7417Z" fill="#212121"/>
<path d="M320.629 67.0391L320.635 69.2375L318.725 70.3406L318.719 68.1421L320.629 67.0391Z" fill="#212121"/>
<path d="M297.592 64.9473L297.598 67.1423L295.688 68.2451L295.682 66.0504L297.592 64.9473Z" fill="#212121"/>
<path d="M293.494 62.1261C293.429 62.1261 293.375 62.0735 293.375 62.008L293.346 51.5481C293.346 51.5059 293.368 51.4667 293.405 51.4456L302.508 46.1899C302.563 46.157 302.636 46.1762 302.669 46.2332C302.701 46.2898 302.682 46.362 302.626 46.3945L293.582 51.6162L293.612 62.0076C293.612 62.0728 293.559 62.1261 293.494 62.1261Z" fill="#373B42"/>
<path d="M315.653 74.7516C315.613 74.7516 315.573 74.7305 315.551 74.6924C315.519 74.6357 315.538 74.5636 315.594 74.531L324.635 69.3112L324.605 58.9231C324.605 58.858 324.658 58.8047 324.723 58.8047C324.788 58.8047 324.842 58.8572 324.842 58.9227L324.871 69.3793C324.871 69.4215 324.849 69.4607 324.812 69.4818L315.712 74.7356C315.694 74.7464 315.674 74.7516 315.653 74.7516Z" fill="#373B42"/>
<path d="M324.681 44.1207C324.616 44.1207 324.562 44.0681 324.562 44.0026L324.533 33.7469L315.61 38.8986C315.554 38.9308 315.482 38.9123 315.448 38.8553C315.416 38.7987 315.435 38.7266 315.491 38.694L324.592 33.4402C324.629 33.4191 324.673 33.4191 324.71 33.4398C324.747 33.4609 324.769 33.4998 324.769 33.5423L324.799 44.0022C324.799 44.0674 324.746 44.1207 324.681 44.1207H324.681Z" fill="#373B42"/>
<path d="M293.566 87.5031C293.546 87.5031 293.525 87.4979 293.507 87.4876C293.47 87.4665 293.448 87.4276 293.448 87.3851L293.418 76.9285C293.418 76.8633 293.471 76.8101 293.536 76.8101C293.601 76.8101 293.654 76.8626 293.654 76.9281L293.684 87.1804L302.609 82.0269C302.665 81.9939 302.738 82.0132 302.771 82.0702C302.803 82.1268 302.784 82.199 302.728 82.2315L293.625 87.4872C293.607 87.4979 293.586 87.5031 293.566 87.5031Z" fill="#373B42"/>
<path d="M304.745 32.997C305.141 32.7683 305.462 32.9511 305.463 33.4062C305.465 33.8618 305.146 34.4172 304.75 34.6459L294.413 40.6139C294.017 40.8426 293.693 40.6583 293.691 40.2028C293.69 39.7472 294.012 39.1937 294.408 38.965L304.745 32.997Z" fill="#3C2C0B"/>
<path d="M310.666 34.3397C311.062 34.1111 311.383 34.2939 311.384 34.749C311.385 35.2045 311.067 35.76 310.67 35.9886L294.413 45.4447C294.017 45.6733 293.693 45.4891 293.691 45.0335C293.69 44.578 294.012 44.0244 294.408 43.7958L310.666 34.3397Z" fill="#3C2C0B"/>
<path d="M293.69 92.6986C293.65 92.6986 293.61 92.6775 293.588 92.6394C293.556 92.5828 293.575 92.5106 293.631 92.478L300.831 88.3217C300.886 88.2888 300.959 88.3081 300.993 88.365C301.025 88.4217 301.006 88.4938 300.949 88.5264L293.75 92.6827C293.731 92.6938 293.711 92.6986 293.69 92.6986Z" fill="#373B42"/>
<path d="M304.809 86.2807C304.769 86.2807 304.729 86.2596 304.707 86.2215C304.675 86.1649 304.694 86.0927 304.75 86.0601L317.241 78.8499C317.296 78.8173 317.37 78.8362 317.403 78.8932C317.435 78.9498 317.416 79.022 317.36 79.0545L304.869 86.2648C304.85 86.2755 304.83 86.2807 304.809 86.2807Z" fill="#373B42"/>
<path d="M320.808 77.0457C320.767 77.0457 320.727 77.0246 320.705 76.9865C320.673 76.9299 320.692 76.8577 320.748 76.8252L324.693 74.5483C324.748 74.5154 324.821 74.5346 324.854 74.5916C324.886 74.6482 324.867 74.7204 324.811 74.7529L320.867 77.0298C320.848 77.0405 320.828 77.0457 320.808 77.0457Z" fill="#373B42"/>
<path d="M293.69 97.2669C293.65 97.2669 293.61 97.2458 293.588 97.2076C293.556 97.151 293.575 97.0789 293.631 97.0463L306.056 89.8738C306.111 89.8413 306.184 89.8601 306.218 89.9171C306.25 89.9737 306.231 90.0459 306.174 90.0785L293.75 97.2506C293.731 97.2617 293.711 97.2669 293.69 97.2669Z" fill="#373B42"/>
<path d="M310.608 87.5032C310.568 87.5032 310.528 87.4821 310.506 87.444C310.474 87.3874 310.493 87.3152 310.549 87.2826L315.973 84.1517C316.028 84.1192 316.101 84.1377 316.135 84.195C316.167 84.2516 316.147 84.3238 316.091 84.3564L310.668 87.4873C310.649 87.498 310.629 87.5032 310.608 87.5032Z" fill="#373B42"/>
<path d="M319.665 82.2743C319.624 82.2743 319.585 82.2532 319.562 82.2151C319.53 82.1585 319.55 82.0864 319.606 82.0538L324.693 79.1172C324.748 79.0842 324.821 79.1035 324.855 79.1604C324.887 79.2171 324.868 79.2892 324.812 79.3218L319.724 82.2584C319.706 82.2692 319.685 82.2743 319.665 82.2743Z" fill="#373B42"/>
<path d="M293.69 101.836C293.65 101.836 293.61 101.815 293.588 101.777C293.556 101.72 293.575 101.648 293.631 101.615L313.97 89.8748C314.025 89.8422 314.098 89.8611 314.132 89.9181C314.164 89.9747 314.145 90.0469 314.088 90.0794L293.75 101.82C293.731 101.831 293.711 101.836 293.69 101.836Z" fill="#373B42"/>
<path d="M233.835 74.3279C233.89 74.3601 233.945 74.4175 233.986 74.4922L235.506 77.2723C235.628 77.4943 235.532 77.6868 235.352 77.5828L234.7 77.2068L234.684 82.9658C234.684 83.0638 234.616 83.1049 234.529 83.0546L233.091 82.2242C233.006 82.175 232.936 82.0544 232.936 81.9563L232.952 76.1974L232.301 75.8214C232.121 75.7174 232.028 75.4166 232.153 75.3366L233.682 74.3164C233.723 74.2891 233.779 74.2957 233.835 74.3279Z" fill="#373B42"/>
<path d="M229.366 71.6389C229.422 71.6711 229.477 71.7285 229.517 71.8032L231.037 74.5834C231.159 74.8054 231.063 74.9978 230.883 74.8938L230.232 74.5179L230.215 80.2768C230.215 80.3748 230.147 80.4159 230.06 80.3656L228.622 79.5352C228.536 79.486 228.467 79.3654 228.467 79.2673L228.483 73.5084L227.832 73.1324C227.652 73.0284 227.559 72.7276 227.684 72.6477L229.213 71.6275C229.255 71.6001 229.311 71.6067 229.366 71.6389Z" fill="#373B42"/>
<path d="M236.095 84.1514C236.073 84.1514 236.052 84.1455 236.032 84.1333L226.841 78.3888C226.785 78.354 226.769 78.2811 226.803 78.226C226.838 78.1701 226.911 78.1542 226.967 78.1882L236.158 83.9327C236.213 83.9675 236.23 84.0404 236.195 84.0956C236.173 84.1318 236.134 84.1514 236.095 84.1514Z" fill="#373B42"/>
<path d="M233.924 23.5895L239.853 27.0105L265.498 12.1094L259.569 8.68799L233.924 23.5895Z" fill="#212121"/>
<path d="M239.852 27.1287C239.832 27.1287 239.812 27.1235 239.793 27.1128L233.864 23.6918C233.827 23.6707 233.805 23.6318 233.805 23.5897C233.805 23.5475 233.827 23.5083 233.864 23.4872L259.508 8.58564C259.545 8.56455 259.59 8.56455 259.627 8.58564L265.556 12.0067C265.593 12.0278 265.615 12.0666 265.615 12.1088C265.615 12.151 265.593 12.1902 265.556 12.2113L239.912 27.1124C239.893 27.1232 239.873 27.1287 239.852 27.1287ZM234.16 23.5889L239.853 26.8734L265.261 12.1095L259.568 8.82469L234.16 23.5889Z" fill="#373B42"/>
<path d="M239.854 27.0106L239.854 34.8033L236.895 29.9717L233.936 31.4085L233.936 23.6162L239.854 27.0106Z" fill="#212121"/>
<path d="M239.854 34.9217C239.814 34.9217 239.775 34.9009 239.754 34.865L236.851 30.1252L233.989 31.5154C233.951 31.5328 233.909 31.531 233.874 31.5091C233.839 31.4873 233.818 31.4496 233.818 31.4089L233.819 23.6162C233.819 23.574 233.841 23.5348 233.878 23.5141C233.914 23.4926 233.96 23.493 233.996 23.5137L239.914 26.9081C239.951 26.9292 239.973 26.9684 239.973 27.0106L239.973 34.8032C239.973 34.8562 239.938 34.9028 239.886 34.9172C239.876 34.9205 239.865 34.9217 239.854 34.9217ZM236.896 29.8539C236.935 29.8539 236.974 29.8743 236.996 29.9106L239.736 34.384L239.737 27.0794L234.056 23.8204L234.055 31.2198L236.844 29.8654C236.86 29.8577 236.878 29.8539 236.896 29.8539Z" fill="#373B42"/>
</g>
<defs>
<linearGradient id="paint0_linear_5226_83164" x1="292.648" y1="40.324" x2="252.85" y2="40.324" gradientUnits="userSpaceOnUse">
<stop offset="0.0334" stop-color="#FFBE2E"/>
<stop offset="1" stop-color="#212121"/>
</linearGradient>
<clipPath id="clip0_5226_83164">
<rect width="400" height="207" fill="white"/>
</clipPath>
</defs>
</svg>
