<svg width="130" height="100" viewBox="0 0 130 100" fill="none" xmlns="http://www.w3.org/2000/svg">
<circle cx="98" cy="75" r="23.5" fill="#3C2C0B" stroke="#FFBE2E"/>
<g clip-path="url(#clip0_4278_3613)">
<mask id="mask0_4278_3613" style="mask-type:luminance" maskUnits="userSpaceOnUse" x="83" y="60" width="32" height="32">
<path d="M83 60H115V92H83V60Z" fill="white"/>
</mask>
<g mask="url(#mask0_4278_3613)">
<path d="M89.8578 75.0346C88.9025 74.3423 87.9381 73.6338 86.9648 73.0294C86.1496 72.5233 85.7003 71.928 85.7959 71.0116C86.0041 69.0147 86.7488 67.0437 88.3964 65.3961C90.044 63.7485 92.015 63.0039 94.0118 62.7956C94.9282 62.7001 95.5236 63.1494 96.0297 63.9646C98.7493 68.3447 103.578 72.5424 99.5601 76.5599C97.971 78.1491 96.3535 78.3534 94.7078 77.8523" stroke="#FFBE2E" stroke-width="1.2" strokeMiterlimit="22.926" stroke-linecap="round" stroke-linejoin="round"/>
<path d="M86.0428 72.2151C83.94 74.7552 81.9541 79.5469 85.8423 81.4909C87.211 82.1753 92.5637 83.4218 93.6636 82.9574C94.0265 82.8042 94.408 82.602 94.7634 82.2901C95.4694 81.6704 96.31 80.1672 96.4666 78.1888" stroke="#FFBE2E" stroke-width="1.2" strokeMiterlimit="22.926" stroke-linecap="round" stroke-linejoin="round"/>
<path d="M84.52 80.526C84.2844 83.1283 85.276 87.4683 89.0473 87.7725C91.1705 87.9438 92.5354 87.5258 93.2376 86.2491C93.7596 85.3004 94.2158 83.0423 94.2778 82.6784" stroke="#FFBE2E" stroke-width="1.2" strokeMiterlimit="22.926" stroke-linecap="round" stroke-linejoin="round"/>
<path d="M86.2988 86.507C86.6363 88.4713 88.6983 91.8416 91.5417 91.3205C93.3885 90.982 93.4327 87.8771 93.2395 86.2583" stroke="#FFBE2E" stroke-width="1.2" strokeMiterlimit="22.926" stroke-linecap="round" stroke-linejoin="round"/>
<path d="M95.2207 63.0383C97.7621 60.9371 102.549 58.9564 104.491 62.842C105.176 64.2107 106.422 69.5634 105.958 70.6633C105.805 71.0263 105.603 71.4077 105.291 71.7631C104.663 72.4776 103.131 73.33 101.118 73.4717" stroke="#FFBE2E" stroke-width="1.2" strokeMiterlimit="22.926" stroke-linecap="round" stroke-linejoin="round"/>
<path d="M103.509 61.521C106.109 61.2795 110.468 62.2672 110.773 66.0468C110.944 68.17 110.526 69.5349 109.249 70.2372C108.333 70.7411 106.196 71.1838 105.723 71.2695" stroke="#FFBE2E" stroke-width="1.2" strokeMiterlimit="22.926" stroke-linecap="round" stroke-linejoin="round"/>
<path d="M109.502 63.2967C111.465 63.6313 114.843 65.6944 114.321 68.5406C113.982 70.3877 110.876 70.4316 109.258 70.2382" stroke="#FFBE2E" stroke-width="1.2" strokeMiterlimit="22.926" stroke-linecap="round" stroke-linejoin="round"/>
<path d="M101.178 63.8374H101.178" stroke="#FFBE2E" stroke-width="1.2" strokeMiterlimit="22.926" stroke-linecap="round" stroke-linejoin="round"/>
<path d="M95.1777 69.0249H95.1782" stroke="#FFBE2E" stroke-width="1.2" strokeMiterlimit="22.926" stroke-linecap="round" stroke-linejoin="round"/>
<path d="M90.5527 68.2749H90.5532" stroke="#FFBE2E" stroke-width="1.2" strokeMiterlimit="22.926" stroke-linecap="round" stroke-linejoin="round"/>
<path d="M87.709 79.0874H87.7094" stroke="#FFBE2E" stroke-width="1.2" strokeMiterlimit="22.926" stroke-linecap="round" stroke-linejoin="round"/>
<path d="M89.4277 85.1499H89.4282" stroke="#FFBE2E" stroke-width="1.2" strokeMiterlimit="22.926" stroke-linecap="round" stroke-linejoin="round"/>
<path d="M92.1748 76.6299H92.1752" stroke="#FFBE2E" stroke-width="1.2" strokeMiterlimit="2.613" stroke-linecap="round" stroke-linejoin="round"/>
</g>
</g>
<circle cx="32" cy="75" r="23.5" fill="#3C2C0B" stroke="#FFBE2E"/>
<g clip-path="url(#clip1_4278_3613)">
<mask id="mask1_4278_3613" style="mask-type:luminance" maskUnits="userSpaceOnUse" x="13" y="56" width="38" height="38">
<path d="M13.6225 61.7997L45.2007 56.6214L50.379 88.1996L18.8008 93.3779L13.6225 61.7997Z" fill="white"/>
</mask>
<g mask="url(#mask1_4278_3613)">
<path d="M23.4723 68.3998L18.8424 63.2737L21.1386 61.1998L26.287 66.9" stroke="#FFBE2E" stroke-width="1.2" strokeMiterlimit="10" stroke-linecap="round" stroke-linejoin="round"/>
<path d="M38.8789 66.7667C38.8912 66.3694 38.8858 66.0886 38.8191 65.6815C38.2623 62.2862 35.0585 59.985 31.6631 60.5418C28.2677 61.0986 25.9666 64.3024 26.5234 67.6978C26.5295 67.7352 26.5158 67.6492 26.5226 67.6864" stroke="#FFBE2E" stroke-width="1.2" strokeMiterlimit="10" stroke-linecap="round" stroke-linejoin="round"/>
<path d="M44.7184 77.6412L43.9959 87.4171C43.9434 88.127 43.4114 88.7083 42.7091 88.8235L26.2678 91.5196C25.5654 91.6348 24.8756 91.2538 24.5992 90.5979L20.7923 81.5646" stroke="#FFBE2E" stroke-width="1.2" strokeMiterlimit="10" stroke-linecap="round" stroke-linejoin="round"/>
<path d="M35.5338 79.0842L45.4898 77.4516C46.49 77.2876 47.1679 76.3438 47.0039 75.3435C46.8399 74.3432 45.896 73.6654 44.8958 73.8294L19.4076 78.009C18.4073 78.1731 17.7294 79.1168 17.8934 80.1171C18.0575 81.1174 19.0013 81.7953 20.0016 81.6312L29.9575 79.9986" stroke="#FFBE2E" stroke-width="1.2" strokeMiterlimit="10" stroke-linecap="round" stroke-linejoin="round"/>
<path d="M32.7729 75.8172L43.5979 74.042C43.7267 73.3558 43.7403 72.6359 43.6207 71.9071C43.0697 68.5467 39.8989 66.2693 36.5386 66.8203C34.314 67.1851 32.6874 68.678 31.9185 70.634" stroke="#FFBE2E" stroke-width="1.2" strokeMiterlimit="10" stroke-linecap="round" stroke-linejoin="round"/>
<path d="M32.7728 75.817C32.9582 75.0118 32.9932 74.1578 32.8513 73.292C32.2666 69.7268 28.9026 67.3106 25.3374 67.8952C21.7722 68.4799 19.356 71.8439 19.9406 75.4091C20.0826 76.275 20.3885 77.073 20.8215 77.7768L32.7728 75.817Z" stroke="#FFBE2E" stroke-width="1.2" strokeMiterlimit="10" stroke-linecap="round" stroke-linejoin="round"/>
<path d="M23.3291 71.8848L23.7423 71.3094" stroke="#FFBE2E" stroke-width="1.2" strokeMiterlimit="10" stroke-linecap="round" stroke-linejoin="round"/>
<path d="M24.5146 74.019L24.9279 73.4437" stroke="#FFBE2E" stroke-width="1.2" strokeMiterlimit="10" stroke-linecap="round" stroke-linejoin="round"/>
<path d="M26.2168 71.6499L26.63 71.0746" stroke="#FFBE2E" stroke-width="1.2" strokeMiterlimit="10" stroke-linecap="round" stroke-linejoin="round"/>
</g>
</g>
<circle cx="65" cy="24" r="23.5" fill="#3C2C0B" stroke="#FFBE2E"/>
<mask id="mask2_4278_3613" style="mask-type:luminance" maskUnits="userSpaceOnUse" x="49" y="8" width="32" height="32">
<path d="M49 8H81V40H49V8Z" fill="white"/>
</mask>
<g mask="url(#mask2_4278_3613)">
<path d="M72.4864 28.3309C67.9113 28.3309 69.3563 30.7639 65.5452 33.5384C63.8426 34.7777 61.9353 35.4731 60.005 35.4062C54.0008 35.202 49.625 31.079 49.625 25.0494C49.625 17.3824 57.6354 12.5887 64.693 12.5887H72.4864C76.825 12.5887 80.375 16.1307 80.375 20.4597C80.375 24.7888 76.825 28.3309 72.4864 28.3309Z" stroke="#FFBE2E" stroke-width="1.2" strokeMiterlimit="10" stroke-linecap="round" stroke-linejoin="round"/>
<path d="M72.4867 25.7239C75.3821 25.7239 77.7605 23.3491 77.7605 20.4601C77.7605 17.5712 75.3821 15.198 72.4867 15.198H64.6934C59.1814 15.198 52.2402 18.8492 52.2402 25.0497C52.2402 29.7044 55.5361 32.6444 60.0954 32.801C61.5139 32.8486 62.876 32.2535 64.0035 31.4332C64.7075 30.9191 65.2421 30.3787 65.7379 29.6674C66.2743 28.898 66.6836 28.1481 67.3629 27.4739C68.7727 26.0725 70.5635 25.7239 72.4867 25.7239Z" stroke="#FFBE2E" stroke-width="1.2" strokeMiterlimit="10" stroke-linecap="round" stroke-linejoin="round"/>
<path d="M58.8994 27.9844C60.2527 27.9844 61.3554 26.8823 61.3554 25.532C61.3554 24.1835 60.2527 23.0814 58.8994 23.0814C57.5461 23.0814 56.4434 24.1835 56.4434 25.532C56.4434 26.8823 57.5461 27.9844 58.8994 27.9844Z" stroke="#FFBE2E" stroke-width="1.2" strokeMiterlimit="10" stroke-linecap="round" stroke-linejoin="round"/>
<path d="M65.4781 18.6836L63.9219 22.3472" stroke="#FFBE2E" stroke-width="1.2" strokeMiterlimit="10" stroke-linecap="round" stroke-linejoin="round"/>
<path d="M69.9337 17.5919L67.4512 23.4385" stroke="#FFBE2E" stroke-width="1.2" strokeMiterlimit="10" stroke-linecap="round" stroke-linejoin="round"/>
<path d="M73.1659 19.3858L72.2061 21.6445" stroke="#FFBE2E" stroke-width="1.2" strokeMiterlimit="10" stroke-linecap="round" stroke-linejoin="round"/>
</g>
<g opacity="0.5">
<circle cx="70.5" cy="91.5" r="2.5" fill="#978050"/>
<circle cx="31.5" cy="34.5" r="2.5" fill="#212121"/>
<circle cx="63.5" cy="61.5" r="1.5" fill="#978050"/>
<rect x="97.0244" y="25" width="2.37135" height="2.37135" transform="rotate(25.5971 97.0244 25)" fill="#CBC0A8"/>
<circle cx="99.5" cy="43.5" r="1.5" fill="#FFBE2E"/>
<rect x="124" y="80.4785" width="3.6884" height="3.6884" transform="rotate(-42.2204 124 80.4785)" fill="#FFBE2E"/>
<rect y="77.4785" width="3.6884" height="3.6884" transform="rotate(-42.2204 0 77.4785)" fill="#FFBE2E"/>
</g>
<defs>
<clipPath id="clip0_4278_3613">
<rect width="32" height="32" fill="white" transform="translate(83 60)"/>
</clipPath>
<clipPath id="clip1_4278_3613">
<rect width="32" height="32" fill="white" transform="translate(13.6221 61.7998) rotate(-9.31264)"/>
</clipPath>
</defs>
</svg>
