<svg width="100" height="100" viewBox="0 0 100 100" fill="none" xmlns="http://www.w3.org/2000/svg">
<g clip-path="url(#clip0_496_9772)">
<path d="M88.2083 88.4024C88.1923 88.4024 88.1763 88.3992 88.1603 88.3897L57.384 70.5079C57.3361 70.4823 57.3233 70.4216 57.3488 70.3737C57.3744 70.3258 57.4351 70.3098 57.483 70.3385L88.2594 88.2203C88.3073 88.2459 88.3201 88.3066 88.2945 88.3545C88.2754 88.3865 88.2434 88.4024 88.2115 88.4024H88.2083Z" fill="#DBDEE4"/>
<path d="M69.8464 78.1016C70.1403 78.1016 70.4279 78.0345 70.6292 77.9163C70.7921 77.8236 70.8847 77.7054 70.8847 77.6C70.8847 77.4945 70.7921 77.3795 70.6323 77.2869C70.4311 77.1687 70.1467 77.1016 69.8528 77.1016C69.5589 77.1016 69.2713 77.1687 69.07 77.2869C68.9071 77.3795 68.8145 77.4977 68.8145 77.6032C68.8145 77.7086 68.9071 77.8236 69.0668 77.9163C69.2681 78.0345 69.5525 78.1016 69.8464 78.1016Z" fill="#373B42"/>
<path d="M66.8557 44.6447C66.8238 44.6447 66.7886 44.6288 66.7727 44.5968C66.7471 44.5489 66.7599 44.4914 66.8078 44.4626L77.7439 38.108C78.6257 37.5968 80.0634 37.5968 80.9484 38.108L91.958 44.4626C92.0059 44.4882 92.0219 44.5489 91.9931 44.5968C91.9644 44.6447 91.9037 44.6575 91.8589 44.632L80.8493 38.2773C80.0155 37.7981 78.6672 37.7981 77.8398 38.2773L66.9037 44.632C66.9037 44.632 66.8717 44.6447 66.8557 44.6447Z" fill="#DBDEE4"/>
<path d="M76.0314 99.9804C75.68 99.9804 75.3286 99.8909 75.0155 99.7088L64.7375 93.7376C64.6896 93.712 64.6768 93.6513 64.7024 93.6034C64.7279 93.5555 64.7886 93.5395 64.8365 93.5682L75.1145 99.5395C75.68 99.8686 76.3829 99.8686 76.9484 99.5395L88.4084 92.8781C88.4563 92.8526 88.5139 92.8654 88.5426 92.9133C88.5682 92.9612 88.5554 93.0187 88.5075 93.0475L77.0474 99.7088C76.7343 99.8909 76.3829 99.9804 76.0314 99.9804Z" fill="#DBDEE4"/>
<path d="M65.6128 92.5676C66.3572 92.9989 66.3636 93.6954 65.6224 94.1267C64.8812 94.558 63.6767 94.558 62.9291 94.1267C62.1847 93.6954 62.1783 92.9989 62.9195 92.5676C63.6607 92.1363 64.8652 92.1363 65.6128 92.5676Z" fill="white"/>
<path d="M64.2779 94.5456C63.7731 94.5456 63.2683 94.4338 62.8817 94.2102C62.4887 93.9833 62.2715 93.6766 62.2715 93.3444C62.2715 93.0153 62.4855 92.7086 62.8721 92.4817C63.6389 92.0376 64.8913 92.0344 65.6613 92.4817C66.0542 92.7086 66.2715 93.0153 66.2715 93.3475C66.2715 93.6766 66.0574 93.9833 65.6708 94.2102C65.2875 94.4338 64.7827 94.5456 64.2779 94.5456ZM64.2683 92.3412C63.7986 92.3412 63.329 92.4434 62.9744 92.6511C62.6485 92.8396 62.4696 93.0856 62.4696 93.3444C62.4696 93.6031 62.6517 93.8523 62.9839 94.0408C63.7028 94.4562 64.8657 94.4562 65.5782 94.0408C65.9041 93.8523 66.083 93.6063 66.083 93.3475C66.083 93.0888 65.9009 92.8396 65.5686 92.6479C65.2108 92.4402 64.7379 92.338 64.2715 92.338L64.2683 92.3412Z" fill="#DBDEE4"/>
<path d="M64.2775 93.8388C63.9868 93.8388 63.7056 93.7717 63.5044 93.6567C63.3446 93.564 63.252 93.449 63.252 93.3436C63.252 93.2381 63.3414 93.1263 63.5012 93.0337C63.6992 92.9187 63.9804 92.8516 64.2711 92.8516C64.5619 92.8516 64.843 92.9187 65.0411 93.0337C65.2008 93.1263 65.2935 93.2413 65.2935 93.3468C65.2935 93.4522 65.204 93.564 65.0475 93.6567C64.8494 93.7717 64.5682 93.8388 64.2775 93.8388Z" fill="#FFBE2E"/>
<path d="M43.3527 90.5527C43.3208 90.5527 43.2856 90.5367 43.2696 90.5048C43.2441 90.4569 43.2601 90.3994 43.3048 90.3706L53.8 84.3131C54.1418 84.1182 54.3271 83.8626 54.3271 83.5943C54.3271 83.3291 54.1418 83.0767 53.8064 82.8818L38.2824 73.8594C38.2345 73.8339 38.2217 73.7732 38.2473 73.7252C38.2728 73.6773 38.3335 73.6613 38.3815 73.6901L53.9054 82.7125C54.3048 82.9425 54.522 83.2556 54.522 83.5943C54.522 83.9329 54.2984 84.2492 53.8958 84.4824L43.4006 90.5399C43.4006 90.5399 43.3687 90.5527 43.3527 90.5527Z" fill="#DBDEE4"/>
<path d="M41.1893 90.0323C40.4193 90.4764 40.4161 91.1952 41.1797 91.6393C41.9433 92.0834 43.1861 92.0834 43.956 91.6393C44.726 91.1952 44.7292 90.4764 43.9656 90.0323C43.202 89.5882 41.9592 89.5882 41.1893 90.0323Z" fill="white"/>
<path d="M42.566 92.07C42.0453 92.07 41.5245 91.955 41.1315 91.7249C40.7322 91.4917 40.5117 91.1786 40.5117 90.8399C40.5117 90.4981 40.7354 90.1818 41.1411 89.9486C41.9366 89.4885 43.2242 89.4885 44.0133 89.9486C44.4127 90.1818 44.6331 90.4949 44.6331 90.8335C44.6331 91.1754 44.4095 91.4917 44.0069 91.7249C43.6108 91.955 43.0868 92.07 42.5692 92.07H42.566ZM41.237 90.1179C40.8951 90.316 40.7066 90.5716 40.7066 90.8399C40.7066 91.1051 40.8919 91.3607 41.2274 91.5556C41.9622 91.9837 43.1635 91.9837 43.9047 91.5556C44.2465 91.3575 44.435 91.1019 44.435 90.8335C44.435 90.5684 44.2497 90.3128 43.9143 90.1179C43.1794 89.6898 41.9782 89.6898 41.237 90.1179Z" fill="#DBDEE4"/>
<path d="M42.5694 91.3451C42.8697 91.3451 43.1605 91.278 43.3649 91.1566C43.5311 91.0607 43.6269 90.9425 43.6269 90.8339C43.6269 90.7253 43.5343 90.6102 43.3713 90.5144C43.1668 90.3962 42.8793 90.3291 42.579 90.3291C42.2787 90.3291 41.9911 90.3962 41.7835 90.5176C41.6173 90.6134 41.5215 90.7316 41.5215 90.8403C41.5215 90.9489 41.6141 91.0639 41.7771 91.1598C41.9815 91.278 42.2691 91.3451 42.5694 91.3451Z" fill="#FFBE2E"/>
<g opacity="0.1">
<path d="M68.4557 66.4138L72.2799 68.6214L55.3566 78.4585L51.5291 76.2508L40.3215 82.7652L0.107422 59.5479L37.986 37.5352L78.2001 60.7524L68.4557 66.4138Z" fill="black"/>
</g>
<path d="M78.2019 53.7842L78.1891 58.3209L40.3105 80.3337L40.3201 75.797L78.2019 53.7842Z" fill="#BEC4CD"/>
<path d="M40.3107 80.4299C40.2947 80.4299 40.2787 80.4267 40.2628 80.4171C40.234 80.4011 40.2148 80.366 40.2148 80.334L40.2276 75.7973C40.2276 75.7621 40.2468 75.7302 40.2755 75.7142L78.1541 53.7014C78.1861 53.6855 78.2212 53.6855 78.2532 53.7014C78.2819 53.7174 78.3011 53.7526 78.3011 53.7845L78.2883 58.3212C78.2883 58.3564 78.2692 58.3883 78.2404 58.4043L40.3618 80.4171C40.3618 80.4171 40.3299 80.4299 40.3139 80.4299H40.3107ZM40.4193 75.8516L40.4065 80.1615L78.0902 58.2605L78.103 53.9506L40.4193 75.8516Z" fill="#373B42"/>
<path d="M40.3193 75.7964L40.3098 80.3331L0.0957031 57.1158L0.108483 52.5791L40.3193 75.7964Z" fill="#BEC4CD"/>
<path d="M40.3099 80.43C40.2939 80.43 40.278 80.4268 40.262 80.4172L0.0479233 57.2031C0.0191693 57.1872 0 57.152 0 57.1201L0.0127796 52.5833C0.0127796 52.5482 0.0319489 52.5162 0.0607029 52.5003C0.0926517 52.4843 0.127796 52.4843 0.159744 52.5003L40.3706 75.7175C40.3994 75.7335 40.4185 75.7686 40.4185 75.8006L40.4057 80.3373C40.4057 80.3725 40.3866 80.4044 40.3578 80.4204C40.3419 80.43 40.3259 80.4332 40.3099 80.4332V80.43ZM0.194888 57.0626L40.2109 80.1648L40.2236 75.8517L0.207668 52.7495L0.194888 57.0626Z" fill="#373B42"/>
<path d="M78.202 53.7837L40.3202 75.7964L0.109375 52.5792L37.9912 30.5664L78.202 53.7837Z" fill="white"/>
<path d="M40.3204 75.8923C40.3044 75.8923 40.2884 75.8891 40.2725 75.8796L0.0615952 52.6655C0.0328412 52.6495 0.0136719 52.6176 0.0136719 52.5824C0.0136719 52.5473 0.0328412 52.5153 0.0615952 52.4994L37.9402 30.4866C37.9721 30.4706 38.0073 30.4706 38.0392 30.4866L78.2501 53.7038C78.2788 53.7198 78.298 53.7518 78.298 53.7869C78.298 53.8221 78.2788 53.854 78.2501 53.87L40.3715 75.8828C40.3715 75.8828 40.3396 75.8955 40.3236 75.8955L40.3204 75.8923ZM0.304407 52.5792L40.3204 75.6815L78.0041 53.7805L37.9881 30.6783L0.304407 52.5792Z" fill="#373B42"/>
<path d="M73.6819 25.363L73.5796 53.7752L69.2537 56.2896L69.3208 33.3918L44.7553 47.6666L44.6851 70.5643L40.3145 73.1043L40.4167 44.6921C47.0014 24.2161 57.9534 17.3535 73.6819 25.3598V25.363Z" fill="#FFBE2E"/>
<path d="M40.3146 73.2065C40.2986 73.2065 40.2826 73.2033 40.2667 73.1937C40.2347 73.1777 40.2188 73.1426 40.2188 73.1074L40.321 44.6953C40.321 44.6953 40.321 44.6761 40.3242 44.6665C44.0334 33.1266 49.1836 25.9157 55.6277 23.232C60.7683 21.0915 66.8577 21.7815 73.7267 25.2768C73.7587 25.2927 73.781 25.3279 73.781 25.363L73.6788 53.7752C73.6788 53.8103 73.6596 53.8422 73.6309 53.8582L69.305 56.3726C69.2731 56.3886 69.2379 56.3886 69.206 56.3726C69.1772 56.3566 69.158 56.3215 69.158 56.2895L69.2251 33.5611L44.8545 47.724L44.7842 70.5643C44.7842 70.5994 44.7651 70.6314 44.7363 70.6474L40.3657 73.1873C40.3657 73.1873 40.3338 73.2001 40.3178 73.2001L40.3146 73.2065ZM40.5127 44.7113L40.4136 72.9381L44.5862 70.51L44.6565 47.6697C44.6565 47.6346 44.6756 47.6026 44.7044 47.5867L69.2699 33.3119C69.3018 33.2959 69.337 33.2959 69.3689 33.3119C69.3977 33.3279 69.4168 33.363 69.4168 33.395L69.3497 56.1234L73.4807 53.724L73.5798 25.4269C66.7874 21.9796 60.7683 21.3023 55.6948 23.4141C49.3082 26.0723 44.1996 33.2384 40.5063 44.7113H40.5127Z" fill="#373B42"/>
<path d="M69.3176 33.3955L69.2537 53.5201L44.6914 67.7917L44.7521 47.6703L69.3176 33.3955Z" fill="#FFF7E4"/>
<path d="M44.6916 67.8871C44.6756 67.8871 44.6596 67.8839 44.6436 67.8744C44.6149 67.8584 44.5957 67.8232 44.5957 67.7881L44.6564 47.6667C44.6564 47.6315 44.6756 47.5996 44.7043 47.5836L69.2698 33.3089C69.3018 33.2929 69.3369 33.2929 69.3689 33.3089C69.3976 33.3248 69.4168 33.36 69.4168 33.3951L69.3529 53.5229C69.3529 53.5581 69.3337 53.59 69.305 53.606L44.7427 67.8744C44.7427 67.8744 44.7107 67.8871 44.6947 67.8871H44.6916ZM44.8481 47.7242L44.7874 67.6188L69.1548 53.4622L69.2187 33.5613L44.8481 47.721V47.7242Z" fill="#373B42"/>
<path d="M66.8759 49.9066L53.8535 42.3826L66.9206 34.7852L66.8759 49.9066Z" fill="#3C2C0B"/>
<path d="M66.876 50.0025C66.8601 50.0025 66.8441 49.9993 66.8281 49.9897L53.8057 42.4657C53.777 42.4497 53.7578 42.4178 53.7578 42.3827C53.7578 42.3475 53.777 42.3156 53.8057 42.2996L66.8728 34.7053C66.9048 34.6894 66.9399 34.6894 66.9719 34.7053C67.0006 34.7213 67.0198 34.7565 67.0198 34.7916L66.9751 49.9098C66.9751 49.945 66.9559 49.9769 66.9271 49.9929C66.9112 50.0025 66.8952 50.0057 66.8792 50.0057L66.876 50.0025ZM54.0485 42.3827L66.777 49.7373L66.8217 34.9577L54.0485 42.3827Z" fill="#3C2C0B"/>
<path d="M69.317 33.3955L69.2531 56.2933L66.8633 54.9131L66.9208 34.7853L69.317 33.3955Z" fill="#978050"/>
<path d="M69.2539 56.3926C69.2379 56.3926 69.222 56.3894 69.206 56.3799L66.8194 54.9997C66.7907 54.9837 66.7715 54.9485 66.7715 54.9166L66.829 34.7888C66.829 34.7537 66.8482 34.7217 66.8769 34.7057L69.2731 33.3128C69.305 33.2968 69.3402 33.2968 69.3721 33.3128C69.4009 33.3287 69.42 33.3639 69.42 33.3958L69.3561 56.2936C69.3561 56.3287 69.337 56.3607 69.3082 56.3767C69.2922 56.3862 69.2763 56.3894 69.2603 56.3894L69.2539 56.3926ZM66.9632 54.8591L69.1581 56.1275L69.222 33.5684L67.0207 34.8463L66.9632 54.8623V54.8591Z" fill="#373B42"/>
<path d="M40.4127 44.6957L40.3136 73.111L4.54688 52.4593L4.64272 24.0439L40.4127 44.6957Z" fill="#846C3A"/>
<path d="M40.3131 73.207C40.2971 73.207 40.2811 73.2038 40.2652 73.1942L4.49519 52.5424C4.46643 52.5265 4.44727 52.4913 4.44727 52.4562L4.54631 24.0408C4.54631 24.0057 4.56548 23.9738 4.59423 23.9578C4.62618 23.9418 4.66132 23.9418 4.69327 23.9578L40.46 44.6095C40.4888 44.6255 40.508 44.6607 40.508 44.6958L40.4089 73.1111C40.4089 73.1463 40.3898 73.1782 40.361 73.1942C40.345 73.2038 40.3291 73.207 40.3131 73.207ZM4.64215 52.4019L40.2172 72.9386L40.3163 44.7501L4.7412 24.2134L4.64215 52.4019Z" fill="#373B42"/>
<path d="M21.5512 2.36963L11.6087 11.6061C11.4841 11.7211 11.3691 11.8616 11.2637 12.015L46.4043 32.4399C46.5097 32.2866 46.6279 32.146 46.7525 32.031L56.695 22.7945L21.5512 2.36963Z" fill="#3C2C0B"/>
<path d="M46.4056 32.5361C46.3896 32.5361 46.3737 32.5329 46.3577 32.5233L11.2171 12.0984C11.1947 12.0856 11.1756 12.0632 11.1724 12.0345C11.166 12.0089 11.1724 11.9802 11.1883 11.9578C11.3034 11.7885 11.4248 11.6447 11.5462 11.5329L21.4887 2.29967C21.5206 2.27091 21.5685 2.26452 21.6037 2.28689L56.7474 22.7118C56.773 22.7278 56.7922 22.7533 56.7954 22.7853C56.7986 22.8172 56.789 22.846 56.7634 22.8684L46.8209 32.1048C46.6995 32.2166 46.5845 32.3508 46.4855 32.4977C46.4663 32.5265 46.4375 32.5393 46.4056 32.5393V32.5361ZM11.4056 11.9834L46.3768 32.3092C46.4727 32.1815 46.5781 32.06 46.6867 31.9578L56.5334 22.814L21.5653 2.49136L11.674 11.6767C11.5813 11.7597 11.4919 11.8652 11.4056 11.9834Z" fill="#140E00"/>
<path d="M11.265 12.0151L3.36719 23.7532L38.511 44.1781L46.4055 32.4369L11.265 12.0151Z" fill="#3C2C0B"/>
<path d="M38.5124 44.2742C38.4964 44.2742 38.4804 44.271 38.4644 44.2614L3.32067 23.8365C3.29831 23.8237 3.27914 23.8014 3.27594 23.7726C3.26955 23.7471 3.27594 23.7183 3.28872 23.6959L11.1865 11.9579C11.2152 11.9164 11.2727 11.9036 11.3175 11.9292L46.4581 32.3541C46.4804 32.3669 46.4996 32.3892 46.5028 32.418C46.5092 32.4436 46.5028 32.4723 46.49 32.4947L38.5954 44.2327C38.5763 44.2614 38.5475 44.2742 38.5156 44.2742H38.5124ZM3.50598 23.7215L38.4804 44.0474L46.2664 32.4723L11.2983 12.1432L3.50917 23.7183L3.50598 23.7215Z" fill="#140E00"/>
<path d="M74.9483 23.143L39.8045 2.71805L31.8652 0.120605L67.009 20.5455L74.9483 23.143Z" fill="#3C2C0B"/>
<path d="M74.9488 23.2416C74.9488 23.2416 74.9296 23.2416 74.9169 23.2384L66.9776 20.6409L31.8146 0.203226C31.7731 0.177667 31.7539 0.123354 31.7731 0.0786252C31.7923 0.0338968 31.8434 0.00833768 31.8913 0.0243121L39.8306 2.62176L74.9935 23.0563C75.0351 23.0818 75.0542 23.1361 75.0351 23.1809C75.0191 23.216 74.9839 23.2384 74.9456 23.2384L74.9488 23.2416ZM32.7124 0.500351L67.0606 20.462L74.1022 22.7655L39.7539 2.80386L32.7124 0.500351Z" fill="#140E00"/>
<path d="M66.6665 20.5358C66.7847 20.5071 66.9061 20.5071 67.0116 20.5454L31.8678 0.120472C31.7687 0.085328 31.6441 0.0853281 31.5227 0.110887L21.5547 2.36967L56.6985 22.7946L66.6665 20.5358Z" fill="#3C2C0B"/>
<path d="M56.6979 22.89C56.6819 22.89 56.6627 22.8868 56.6499 22.8772L21.5062 2.4523C21.471 2.43313 21.4519 2.39159 21.4582 2.35326C21.4646 2.31492 21.4934 2.28297 21.5317 2.27338L31.4998 0.0145968C31.6467 -0.0173521 31.7873 -0.0109623 31.8991 0.0273763L67.0621 20.4587C67.1068 20.4842 67.1228 20.5386 67.1004 20.5865C67.0781 20.6312 67.0237 20.6536 66.979 20.6344C66.8991 20.6025 66.8001 20.6025 66.6947 20.628L56.7266 22.8868C56.7266 22.8868 56.7106 22.8868 56.7043 22.8868L56.6979 22.89ZM21.8193 2.41076L56.717 22.6919L66.6404 20.4427L31.8161 0.203095C31.7554 0.183926 31.6499 0.180731 31.5413 0.203095L21.8161 2.40757L21.8193 2.41076Z" fill="#140E00"/>
<path d="M39.8336 45.3354L4.68987 24.9136L3.36719 23.7539L38.5142 44.1788L39.8336 45.3354Z" fill="#373B42"/>
<path d="M39.8337 45.4343C39.8178 45.4343 39.8018 45.4311 39.7858 45.4215L4.63884 24.9966L3.30338 23.8272C3.26504 23.7953 3.25865 23.7378 3.2874 23.6963C3.31615 23.6547 3.37366 23.6451 3.4152 23.6675L38.559 44.0924L39.8944 45.2618C39.9328 45.2937 39.9392 45.3512 39.9104 45.3927C39.8912 45.4183 39.8625 45.4343 39.8305 45.4343H39.8337ZM4.18836 24.3448L4.75385 24.84L39.0158 44.7474L38.4503 44.2522L4.18836 24.3448Z" fill="#140E00"/>
<path d="M56.7009 22.7947L66.6658 20.5328C66.7872 20.5072 66.9086 20.5072 67.0108 20.5423L74.9501 23.1398L73.6402 25.8171L65.8607 23.2676L56.7073 25.3411L47.5731 33.8235L39.8351 45.3315L38.5156 44.1749L46.4102 32.4337C46.5156 32.2772 46.6338 32.1398 46.7552 32.0248L56.7009 22.7915V22.7947Z" fill="#978050"/>
<path d="M39.8352 45.4335C39.8128 45.4335 39.7873 45.4239 39.7713 45.4079L38.4518 44.2514C38.4135 44.2194 38.4071 44.1651 38.4358 44.1236L46.3304 32.3824C46.4358 32.2226 46.5572 32.0789 46.6914 31.9575L56.6371 22.7242C56.6371 22.7242 56.6659 22.7051 56.6818 22.7019L66.6467 20.4399C66.7937 20.4079 66.931 20.4143 67.0461 20.4527L74.9822 23.0501C75.0077 23.0597 75.0301 23.0789 75.0429 23.1044C75.0525 23.13 75.0525 23.1587 75.0429 23.1843L73.733 25.8616C73.7106 25.9063 73.6627 25.9255 73.6148 25.9127L65.8608 23.3728L56.7585 25.4367L47.6435 33.9031L39.9183 45.392C39.9023 45.4143 39.8767 45.4303 39.8512 45.4335C39.848 45.4335 39.8416 45.4335 39.8384 45.4335H39.8352ZM38.6435 44.1619L39.816 45.1907L47.4933 33.7754L56.6435 25.2738C56.6435 25.2738 56.6723 25.2546 56.6882 25.2514L65.8416 23.1779C65.8608 23.1747 65.8767 23.1779 65.8927 23.1779L73.5892 25.6987L74.8128 23.2003L66.9822 20.638C66.8991 20.6092 66.8001 20.606 66.6882 20.6316L56.7489 22.8872L46.8224 32.1044C46.701 32.2194 46.5892 32.3504 46.4901 32.4974L38.6435 44.1651V44.1619Z" fill="#978050"/>
<path d="M56.9872 30.6327C58.4632 29.7797 59.6453 30.4762 59.6485 32.1503C59.6517 33.8372 58.4792 35.8915 57.0031 36.7414C55.5367 37.588 54.345 36.8979 54.3418 35.2142C54.3386 33.5401 55.5207 31.4794 56.9872 30.6327Z" fill="white"/>
<path d="M55.818 37.2052C55.5496 37.2052 55.2972 37.1413 55.0768 37.0135C54.5432 36.7068 54.2461 36.0678 54.2461 35.2148C54.2397 33.5024 55.4506 31.4097 56.9394 30.5471C57.6838 30.119 58.3867 30.0519 58.9202 30.3586C59.4506 30.6653 59.7445 31.3011 59.7477 32.1477C59.7509 33.8666 58.5432 35.9656 57.0544 36.825C56.6199 37.0742 56.2014 37.202 55.818 37.202V37.2052ZM57.0353 30.7196C55.5976 31.5503 54.4346 33.5662 54.4378 35.218C54.4378 35.9976 54.6998 36.5758 55.1726 36.8474C55.6455 37.119 56.2781 37.0519 56.9554 36.6621C58.3931 35.8314 59.556 33.8091 59.5528 32.1541C59.5528 31.3778 59.2908 30.8027 58.8212 30.5311C58.3484 30.2595 57.7158 30.3266 57.0353 30.7196Z" fill="#373B42"/>
<path d="M56.9943 36.8377C56.94 36.8377 56.8984 36.793 56.8984 36.7387V30.63C56.8984 30.5757 56.9432 30.5342 56.9943 30.5342C57.0454 30.5342 57.0933 30.5789 57.0933 30.63V36.7387C57.0933 36.793 57.0486 36.8377 56.9943 36.8377Z" fill="#373B42"/>
<path d="M54.3375 35.3165C54.3055 35.3165 54.2704 35.3006 54.2544 35.2686C54.2288 35.2207 54.2448 35.1632 54.2895 35.1344L59.5994 32.0705C59.6442 32.045 59.7049 32.0577 59.7336 32.1057C59.7592 32.1536 59.7432 32.2111 59.6985 32.2398L54.3886 35.3037C54.3886 35.3037 54.3566 35.3165 54.3406 35.3165H54.3375Z" fill="#373B42"/>
<path d="M15.1134 35.2429L15.0942 40.2461L15.091 41.195L7.8418 37.0097L7.86416 31.0576L8.68525 31.5305L15.1134 35.2429Z" fill="#140E00"/>
<path d="M15.0911 41.2914C15.0752 41.2914 15.0592 41.2882 15.0432 41.2787L7.79402 37.0933C7.76526 37.0774 7.74609 37.0422 7.74609 37.0071L7.76846 31.055C7.76846 31.0199 7.78763 30.9879 7.81638 30.9719C7.84833 30.956 7.88347 30.956 7.91223 30.9719L15.1614 35.1572C15.1902 35.1732 15.2094 35.2084 15.2094 35.2435L15.187 41.1956C15.187 41.2307 15.1678 41.2627 15.1391 41.2787C15.1231 41.2882 15.1071 41.2914 15.0911 41.2914ZM7.94098 36.9528L14.9953 41.0263L15.0145 35.2978L7.96015 31.2243L7.94098 36.9528Z" fill="#140E00"/>
<path d="M25.6563 41.3298L25.634 46.3266L25.6308 47.2819L18.3848 43.103L18.4135 37.1445L19.2282 37.6142L25.6563 41.3298Z" fill="#140E00"/>
<path d="M25.6316 47.3771C25.6157 47.3771 25.5997 47.3739 25.5837 47.3643L18.3409 43.1854C18.3089 43.1694 18.293 43.1343 18.293 43.0991L18.3185 37.1439C18.3185 37.1087 18.3377 37.0768 18.3665 37.0608C18.3984 37.0448 18.4335 37.0448 18.4623 37.0608L19.2802 37.5305L25.7051 41.2461C25.7371 41.2621 25.753 41.2972 25.753 41.3324L25.7275 47.2844C25.7275 47.3196 25.7083 47.3515 25.6796 47.3675C25.6636 47.3771 25.6476 47.3803 25.6316 47.3803V47.3771ZM18.4847 43.0448L25.5326 47.1119L25.5581 41.3835L18.5102 37.31L18.4847 43.0416V43.0448Z" fill="#140E00"/>
<path d="M15.1165 35.2427L15.0973 40.2459L8.66602 36.5303L8.68838 31.5303L15.1165 35.2427Z" fill="#FFBE2E"/>
<path d="M15.0975 40.3421C15.0815 40.3421 15.0655 40.3389 15.0495 40.3293L8.61824 36.6169C8.58629 36.6009 8.57031 36.5657 8.57031 36.5306L8.59268 31.5306C8.59268 31.4954 8.61185 31.4635 8.6406 31.4475C8.67255 31.4316 8.70769 31.4316 8.73964 31.4475L15.1646 35.1568C15.1933 35.1728 15.2125 35.2079 15.2125 35.2431L15.1965 40.2463C15.1965 40.2814 15.1773 40.3133 15.1486 40.3293C15.1326 40.3389 15.1166 40.3421 15.1007 40.3421H15.0975ZM8.7652 36.4731L15.0016 40.0737L15.0176 35.2942L8.78437 31.6967L8.7652 36.4699V36.4731Z" fill="#140E00"/>
<path d="M25.6589 41.3289L25.6366 46.3257L19.2148 42.6229L19.2308 37.6133L25.6589 41.3289Z" fill="#FFBE2E"/>
<path d="M25.6367 46.4251C25.6207 46.4251 25.6048 46.4219 25.5888 46.4123L19.1671 42.7063C19.1383 42.6903 19.1191 42.6551 19.1191 42.62L19.1351 37.6136C19.1351 37.5785 19.1543 37.5465 19.183 37.5305C19.215 37.5146 19.2501 37.5146 19.2821 37.5305L25.707 41.2462C25.7389 41.2622 25.7549 41.2973 25.7549 41.3325L25.7326 46.3325C25.7326 46.3676 25.7134 46.3995 25.6846 46.4155C25.6687 46.4251 25.6527 46.4283 25.6367 46.4283V46.4251ZM19.314 42.5657L25.5409 46.1599L25.5632 41.3868L19.33 37.7861L19.314 42.5689V42.5657Z" fill="#140E00"/>
<path d="M53.3555 72.83L70.282 62.9961L72.2788 64.1494L55.3555 73.9833L53.3555 72.83Z" fill="white"/>
<path d="M55.3563 74.0827C55.3404 74.0827 55.3244 74.0795 55.3084 74.0699L53.3116 72.9165C53.2828 72.9006 53.2637 72.8686 53.2637 72.8335C53.2637 72.7983 53.2828 72.7664 53.3116 72.7504L70.2381 62.9133C70.2701 62.8974 70.3052 62.8974 70.3372 62.9133L72.334 64.0667C72.3627 64.0827 72.3819 64.1146 72.3819 64.1498C72.3819 64.1849 72.3627 64.2169 72.334 64.2328L55.4074 74.0699C55.4074 74.0699 55.3755 74.0827 55.3595 74.0827H55.3563ZM53.5512 72.8303L55.3531 73.8718L72.0848 64.1498L70.2828 63.1082L53.5512 72.8303Z" fill="#373B42"/>
<path d="M55.356 73.9833L72.2793 64.1494L72.2729 66.4497L55.3496 76.2836L55.356 73.9833Z" fill="white"/>
<path d="M55.3498 76.383C55.3338 76.383 55.3178 76.3798 55.3018 76.3702C55.2731 76.3542 55.2539 76.3191 55.2539 76.2871L55.2603 73.9868C55.2603 73.9517 55.2795 73.9197 55.3082 73.9037L72.2347 64.0667C72.2667 64.0507 72.3018 64.0507 72.3338 64.0667C72.3625 64.0826 72.3817 64.1178 72.3817 64.1529L72.3753 66.4533C72.3753 66.4884 72.3561 66.5203 72.3274 66.5363L55.4009 76.3734C55.4009 76.3734 55.3689 76.3862 55.3529 76.3862L55.3498 76.383ZM55.452 74.0411L55.4456 76.1146L72.174 66.3925L72.1804 64.3191L55.4488 74.0411H55.452Z" fill="#373B42"/>
<path d="M53.3638 70.5331L70.2903 60.6992L70.2839 62.9963L53.3574 72.8302L53.3638 70.5331Z" fill="white"/>
<path d="M53.3576 72.9286C53.3416 72.9286 53.3256 72.9254 53.3096 72.9158C53.2809 72.8998 53.2617 72.8647 53.2617 72.8328L53.2681 70.5356C53.2681 70.5005 53.2873 70.4685 53.316 70.4526L70.2425 60.6155C70.2745 60.5995 70.3096 60.5995 70.3416 60.6155C70.3703 60.6315 70.3895 60.6666 70.3895 60.6986L70.3831 62.9957C70.3831 63.0308 70.364 63.0628 70.3352 63.0788L53.4087 72.9158C53.4087 72.9158 53.3767 72.9286 53.3608 72.9286H53.3576ZM53.463 70.5899L53.4566 72.6634L70.1882 62.9414L70.1946 60.8679L53.463 70.5899Z" fill="#373B42"/>
<path d="M51.3672 69.3798L68.2937 59.5459L70.2905 60.6993L53.364 70.5331L51.3672 69.3798Z" fill="white"/>
<path d="M53.3641 70.6315C53.3482 70.6315 53.3322 70.6283 53.3162 70.6187L51.3194 69.4654C51.2907 69.4494 51.2715 69.4174 51.2715 69.3823C51.2715 69.3472 51.2907 69.3152 51.3194 69.2992L68.2459 59.4622C68.2779 59.4462 68.313 59.4462 68.345 59.4622L70.3418 60.6155C70.3705 60.6315 70.3897 60.6635 70.3897 60.6986C70.3897 60.7337 70.3705 60.7657 70.3418 60.7817L53.4153 70.6187C53.4153 70.6187 53.3833 70.6315 53.3673 70.6315H53.3641ZM51.5622 69.3791L53.3641 70.4206L70.0958 60.6986L68.2938 59.6571L51.5622 69.3791Z" fill="#373B42"/>
<path d="M53.3631 70.5323L53.3567 72.8294L55.3567 73.9827L55.3503 76.2831L51.3535 73.9764L51.3663 69.3789L53.3631 70.5323Z" fill="#373B42"/>
<path d="M55.3512 76.3822C55.3352 76.3822 55.3192 76.379 55.3033 76.3694L51.3096 74.0627C51.2809 74.0467 51.2617 74.0115 51.2617 73.9796L51.2745 69.3822C51.2745 69.347 51.2937 69.3151 51.3224 69.2991C51.3544 69.2831 51.3895 69.2831 51.4183 69.2991L53.4151 70.4524C53.4438 70.4684 53.463 70.5036 53.463 70.5355L53.4566 72.7783L55.4055 73.9029C55.4342 73.9189 55.4534 73.954 55.4534 73.986L55.447 76.2863C55.447 76.3215 55.4279 76.3534 55.3991 76.3694C55.3831 76.379 55.3672 76.3822 55.3512 76.3822ZM51.4534 73.9221L55.2553 76.117L55.2617 74.0403L53.3128 72.9157C53.2841 72.8997 53.2649 72.8646 53.2649 72.8326L53.2713 70.5898L51.4694 69.5483L51.4566 73.9221H51.4534Z" fill="#373B42"/>
<g opacity="0.1">
<path d="M14.4792 99.9642L1 92.1303L14.4569 84.3604L27.9361 92.1942L14.4792 99.9642Z" fill="black"/>
</g>
<path d="M14.524 97.3284L1.04473 89.4945L1 74.0312L14.4792 81.8651L14.524 97.3284Z" fill="#212121"/>
<path d="M14.5241 97.4277C14.5081 97.4277 14.489 97.4245 14.4762 97.415L0.996949 89.5811C0.968195 89.5651 0.949025 89.5332 0.949025 89.498L0.904297 74.0316C0.904297 73.9964 0.923466 73.9645 0.95222 73.9485C0.984169 73.9325 1.01931 73.9325 1.05126 73.9485L14.5305 81.7824C14.5592 81.7983 14.5784 81.8303 14.5784 81.8654L14.6231 97.3319C14.6231 97.367 14.604 97.399 14.5752 97.415C14.5592 97.4245 14.5433 97.4277 14.5273 97.4277H14.5241ZM1.14072 89.4405L14.4251 97.1594L14.3803 81.9197L1.09919 74.2009L1.14391 89.4405H1.14072Z" fill="#373B42"/>
<path d="M14.4792 81.8646L1 74.0307L14.4569 66.2607L27.9361 74.0946L14.4792 81.8646Z" fill="#FFF7E4"/>
<path d="M14.4794 81.9607C14.4634 81.9607 14.4442 81.9575 14.4315 81.948L0.95222 74.1141C0.923466 74.0981 0.904297 74.063 0.904297 74.031C0.904297 73.9991 0.923466 73.9639 0.95222 73.948L14.4091 66.178C14.441 66.162 14.4762 66.162 14.5081 66.178L27.9874 74.0119C28.0161 74.0278 28.0353 74.063 28.0353 74.0949C28.0353 74.1269 28.0161 74.162 27.9874 74.178L14.5305 81.948C14.5305 81.948 14.4985 81.9607 14.4826 81.9607H14.4794ZM1.19503 74.031L14.4794 81.7531L27.7414 74.0949L14.457 66.3729L1.19503 74.031Z" fill="#373B42"/>
<path d="M22.797 77.0663L19.6628 78.8746L6.18359 71.0407L9.31778 69.2324L22.797 77.0663Z" fill="#212121"/>
<path d="M19.663 78.9698C19.647 78.9698 19.6278 78.9666 19.615 78.957L6.13581 71.1231C6.10706 71.1072 6.08789 71.072 6.08789 71.0401C6.08789 71.0081 6.10706 70.973 6.13581 70.957L9.27 69.1487C9.30195 69.1327 9.33709 69.1327 9.36904 69.1487L22.8483 76.9826C22.877 76.9985 22.8962 77.0337 22.8962 77.0656C22.8962 77.0976 22.877 77.1327 22.8483 77.1487L19.7141 78.957C19.7141 78.957 19.6821 78.9698 19.6662 78.9698H19.663ZM6.37543 71.0401L19.6598 78.7589L22.5991 77.0624L9.31473 69.3436L6.37543 71.0401Z" fill="#373B42"/>
<path d="M27.9801 89.5612L14.5232 97.3311L14.4785 81.8647L19.6606 78.8743L22.7948 77.066L27.9386 74.0947L27.9801 89.5612Z" fill="#FFBE2E"/>
<path d="M14.5241 97.4273C14.5081 97.4273 14.4922 97.4241 14.4762 97.4145C14.4474 97.3986 14.4283 97.3666 14.4283 97.3315L14.3867 81.865C14.3867 81.8299 14.4059 81.7979 14.4346 81.7819L27.8915 74.012C27.9235 73.996 27.9586 73.996 27.9906 74.012C28.0193 74.028 28.0385 74.0599 28.0385 74.095L28.0832 89.5615C28.0832 89.5966 28.064 89.6286 28.0353 89.6446L14.5752 97.4145C14.5752 97.4145 14.5433 97.4273 14.5273 97.4273H14.5241ZM14.5784 81.9193L14.6199 97.1589L27.8851 89.504L27.8436 74.2644L14.5784 81.9225V81.9193Z" fill="#373B42"/>
<path d="M22.8007 81.06L19.6665 82.8747L19.6602 78.8747L22.7943 77.0664L22.8007 81.06Z" fill="#212121"/>
<path d="M19.6667 82.9699C19.6507 82.9699 19.6347 82.9667 19.6188 82.9571C19.59 82.9411 19.5708 82.9092 19.5708 82.8741L19.5645 78.8741C19.5645 78.8389 19.5836 78.807 19.6124 78.791L22.7466 76.9827C22.7785 76.9667 22.8137 76.9667 22.8456 76.9827C22.8744 76.9987 22.8935 77.0306 22.8935 77.0657L22.8999 81.0626C22.8999 81.0977 22.8807 81.1296 22.852 81.1456L19.7178 82.9571C19.7178 82.9571 19.6859 82.9699 19.6699 82.9699H19.6667ZM19.7561 78.9284L19.7625 82.7047L22.7018 81.005L22.6954 77.2351L19.7561 78.9316V78.9284Z" fill="#373B42"/>
<path d="M19.3427 88.1365C19.3108 88.1556 19.2788 88.1876 19.2533 88.2323L18.3715 89.8457C18.3012 89.9735 18.3555 90.0854 18.4609 90.0278L18.8379 89.8106L18.8475 93.1524C18.8475 93.21 18.889 93.2323 18.937 93.2036L19.7708 92.7211C19.822 92.6924 19.8603 92.6221 19.8603 92.5646L19.8507 89.2227L20.2277 89.0055C20.3331 88.9448 20.3875 88.7691 20.3172 88.7243L19.429 88.1333C19.4066 88.1173 19.3747 88.1205 19.3395 88.1397L19.3427 88.1365Z" fill="#373B42"/>
<path d="M16.7555 89.6319C16.7236 89.651 16.6916 89.683 16.6693 89.7277L15.7875 91.3411C15.7172 91.4689 15.7715 91.5807 15.877 91.52L16.2539 91.3028L16.2635 94.6446C16.2635 94.7021 16.3019 94.7245 16.353 94.6958L17.1869 94.2133C17.2348 94.1846 17.2763 94.1143 17.2763 94.0568L17.2667 90.7149L17.6437 90.4977C17.7492 90.437 17.8035 90.2612 17.73 90.2165L16.8418 89.6255C16.8162 89.6095 16.7843 89.6127 16.7523 89.6319H16.7555Z" fill="#373B42"/>
<path d="M14.551 78.8745L3.666 72.5487L3.63086 60.0566L14.5158 66.3825L14.551 78.8745Z" fill="#212121"/>
<path d="M14.5511 78.9704C14.5352 78.9704 14.516 78.9672 14.5032 78.9577L3.61822 72.6318C3.58947 72.6158 3.5703 72.5839 3.5703 72.5487L3.53516 60.0599C3.53516 60.0248 3.55433 59.9928 3.58308 59.9768C3.61503 59.9609 3.65017 59.9609 3.68212 59.9768L14.5671 66.3027C14.5959 66.3187 14.615 66.3506 14.615 66.3858L14.6502 78.8746C14.6502 78.9097 14.631 78.9417 14.6022 78.9577C14.5863 78.9672 14.5703 78.9704 14.5543 78.9704H14.5511ZM3.76519 72.4912L14.4553 78.7053L14.4201 66.4401L3.73004 60.2292L3.76519 72.4912Z" fill="#373B42"/>
<path d="M14.5158 66.3826L3.63086 60.0567L14.4967 53.7852L25.3849 60.111L14.5158 66.3826Z" fill="#FFF7E4"/>
<path d="M14.516 66.482C14.5 66.482 14.4808 66.4788 14.4681 66.4692L3.58308 60.1433C3.55433 60.1273 3.53516 60.0922 3.53516 60.0602C3.53516 60.0283 3.55433 59.9931 3.58308 59.9772L14.4489 53.7024C14.4808 53.6864 14.516 53.6864 14.5479 53.7024L25.4329 60.0283C25.4617 60.0443 25.4808 60.0794 25.4808 60.1114C25.4808 60.1433 25.4617 60.1785 25.4329 60.1944L14.5671 66.4692C14.5671 66.4692 14.5352 66.482 14.5192 66.482H14.516ZM3.82589 60.0602L14.516 66.2743L25.1901 60.1114L14.5 53.8973L3.82909 60.0602H3.82589Z" fill="#373B42"/>
<path d="M21.2317 62.5104L18.7014 63.9705L7.81641 57.6446L10.3468 56.1846L21.2317 62.5104Z" fill="#212121"/>
<path d="M18.7015 64.0657C18.6856 64.0657 18.6664 64.0625 18.6536 64.0529L7.76863 57.727C7.73987 57.7111 7.7207 57.6759 7.7207 57.644C7.7207 57.612 7.73987 57.5769 7.76863 57.5609L10.299 56.1008C10.3309 56.0849 10.3661 56.0849 10.398 56.1008L21.283 62.4267C21.3118 62.4427 21.3309 62.4778 21.3309 62.5098C21.3309 62.5417 21.3118 62.5769 21.283 62.5929L18.7527 64.0529C18.7527 64.0529 18.7207 64.0657 18.7047 64.0657H18.7015ZM8.00824 57.644L18.6983 63.8548L21.037 62.5066L10.3469 56.2957L8.01144 57.644H8.00824Z" fill="#373B42"/>
<path d="M25.4198 72.6002L14.5508 78.8749L14.5156 66.3861L18.7009 63.9708L21.2313 62.5107L25.3846 60.1113L25.4198 72.6002Z" fill="#FFBE2E"/>
<path d="M14.5509 78.9701C14.5349 78.9701 14.519 78.9669 14.503 78.9573C14.4742 78.9413 14.4551 78.9094 14.4551 78.8743L14.4199 66.3854C14.4199 66.3503 14.4391 66.3183 14.4678 66.3024L25.3369 60.0276C25.3688 60.0116 25.4039 60.0116 25.4327 60.0276C25.4615 60.0436 25.4806 60.0755 25.4806 60.1107L25.5158 72.5995C25.5158 72.6346 25.4966 72.6666 25.4678 72.6826L14.5988 78.9573C14.5988 78.9573 14.5669 78.9701 14.5509 78.9701ZM14.6148 66.4397L14.65 78.7049L25.3241 72.542L25.2889 60.2768L14.6148 66.4366V66.4397Z" fill="#373B42"/>
<path d="M21.2379 65.7376L18.7076 67.2008L18.7012 63.9708L21.2315 62.5107L21.2379 65.7376Z" fill="#212121"/>
<path d="M18.7077 67.296C18.6917 67.296 18.6758 67.2928 18.6598 67.2833C18.631 67.2673 18.6119 67.2353 18.6119 67.2002L18.6055 63.9702C18.6055 63.935 18.6246 63.9031 18.6534 63.8871L21.1837 62.427C21.2157 62.411 21.2508 62.411 21.2828 62.427C21.3115 62.443 21.3307 62.4749 21.3307 62.5101L21.3371 65.7369C21.3371 65.7721 21.3179 65.804 21.2892 65.82L18.7588 67.2833C18.7588 67.2833 18.7269 67.296 18.7109 67.296H18.7077ZM18.7972 64.0245L18.8036 67.0309L21.139 65.6794L21.1326 62.6762L18.794 64.0245H18.7972Z" fill="#373B42"/>
<path d="M18.4466 71.4493C18.4211 71.4653 18.3955 71.4908 18.3731 71.526L17.6607 72.8295C17.6032 72.9349 17.6479 73.0244 17.731 72.9764L18.0377 72.8007L18.0441 75.5004C18.0441 75.5451 18.076 75.5643 18.1175 75.5419L18.7917 75.1522C18.8332 75.1298 18.8652 75.0723 18.8652 75.0276L18.8588 72.3279L19.1655 72.1522C19.2485 72.1042 19.2933 71.9637 19.2358 71.9253L18.5169 71.4493C18.4977 71.4365 18.4722 71.4397 18.4466 71.4557V71.4493Z" fill="#373B42"/>
<path d="M16.3535 72.6566C16.3279 72.6726 16.3024 72.6981 16.2832 72.7333L15.5707 74.0368C15.5132 74.1422 15.558 74.2317 15.6442 74.1837L15.9509 74.008L15.9573 76.7077C15.9573 76.7524 15.9893 76.7716 16.0308 76.7492L16.7049 76.3595C16.7465 76.3371 16.7784 76.2796 16.7784 76.2349L16.772 73.5352L17.0787 73.3595C17.1618 73.3115 17.2065 73.171 17.149 73.1326L16.4334 72.6534C16.4142 72.6406 16.3886 72.6438 16.3631 72.6598L16.3535 72.6566Z" fill="#373B42"/>
<path d="M58.3395 59.8365L50.9657 55.5521L50.9434 47.0889L58.3172 51.3764L58.3395 59.8365Z" fill="#212121"/>
<path d="M58.339 59.9333C58.323 59.9333 58.3038 59.9302 58.291 59.9206L50.9172 55.6362C50.8885 55.6203 50.8693 55.5883 50.8693 55.5532L50.8438 47.0931C50.8438 47.0579 50.8629 47.026 50.8917 47.01C50.9236 46.9941 50.9588 46.9941 50.9907 47.01L58.3645 51.2944C58.3933 51.3103 58.4124 51.3423 58.4124 51.3774L58.438 59.8375C58.438 59.8726 58.4188 59.9046 58.3901 59.9206C58.3741 59.9302 58.3581 59.9333 58.3422 59.9333H58.339ZM51.0642 55.4957L58.2431 59.6682L58.2207 51.4349L51.0418 47.2624L51.0642 55.4957Z" fill="#373B42"/>
<path d="M58.3152 51.3766L50.9414 47.089L58.3024 42.8398L65.6762 47.1242L58.3152 51.3766Z" fill="#FFF7E4"/>
<path d="M58.3154 51.4725C58.2994 51.4725 58.2802 51.4693 58.2674 51.4597L50.8936 47.1754C50.8649 47.1594 50.8457 47.1242 50.8457 47.0923C50.8457 47.0603 50.8649 47.0252 50.8936 47.0092L58.2546 42.76C58.2866 42.7441 58.3217 42.7441 58.3537 42.76L65.7275 47.0444C65.7562 47.0603 65.7754 47.0955 65.7754 47.1274C65.7754 47.1594 65.7562 47.1945 65.7275 47.2105L58.3665 51.4597C58.3665 51.4597 58.3345 51.4725 58.3185 51.4725H58.3154ZM51.1364 47.0891L58.3154 51.2616L65.4815 47.1242L58.3026 42.9517L51.1364 47.0891Z" fill="#373B42"/>
<path d="M62.8668 48.7511L61.1511 49.7416L53.7773 45.4572L55.4898 44.4668L62.8668 48.7511Z" fill="#212121"/>
<path d="M61.1513 49.8368C61.1353 49.8368 61.1161 49.8336 61.1034 49.824L53.7296 45.5396C53.7008 45.5236 53.6816 45.4885 53.6816 45.4566C53.6816 45.4246 53.7008 45.3895 53.7296 45.3735L55.4452 44.3831C55.4772 44.3671 55.5123 44.3671 55.5443 44.3831L62.9181 48.6674C62.9468 48.6834 62.966 48.7185 62.966 48.7505C62.966 48.7824 62.9468 48.8176 62.9181 48.8336L61.2024 49.824C61.2024 49.824 61.1705 49.8368 61.1545 49.8368H61.1513ZM53.9724 45.4566L61.1513 49.6291L62.6721 48.7505L55.4931 44.578L53.9724 45.4566Z" fill="#373B42"/>
<path d="M65.6998 55.588L58.3388 59.8372L58.3164 51.3771L61.1503 49.7414L62.8659 48.7509L65.6774 47.1279L65.6998 55.588Z" fill="#FFBE2E"/>
<path d="M58.3389 59.9334C58.3229 59.9334 58.307 59.9302 58.291 59.9206C58.2622 59.9046 58.2431 59.8727 58.2431 59.8375L58.2207 51.3775C58.2207 51.3423 58.2399 51.3104 58.2686 51.2944L65.6296 47.0452C65.6616 47.0292 65.6967 47.0292 65.7255 47.0452C65.7543 47.0612 65.7734 47.0931 65.7734 47.1282L65.7958 55.5883C65.7958 55.6235 65.7766 55.6554 65.7479 55.6714L58.3868 59.9206C58.3868 59.9206 58.3549 59.9334 58.3389 59.9334ZM58.4124 51.4318L58.4348 59.6682L65.6009 55.5308L65.5785 47.2944L58.4092 51.4318H58.4124Z" fill="#373B42"/>
<path d="M62.8712 50.9363L61.1555 51.9299L61.1523 49.7414L62.868 48.751L62.8712 50.9363Z" fill="#212121"/>
<path d="M61.1548 52.0261C61.1388 52.0261 61.1228 52.0229 61.1069 52.0133C61.0781 51.9973 61.0589 51.9654 61.0589 51.9302V49.7417C61.0557 49.7066 61.0749 49.6746 61.1037 49.6586L62.8193 48.6682C62.8513 48.6523 62.8864 48.6523 62.9184 48.6682C62.9471 48.6842 62.9663 48.7162 62.9663 48.7513V50.9366C62.9695 50.9717 62.9503 51.0037 62.9216 51.0197L61.2059 52.0101C61.2059 52.0101 61.174 52.0229 61.158 52.0229L61.1548 52.0261ZM61.2474 49.796V51.7577L62.7714 50.8791V48.9174L61.2474 49.796Z" fill="#373B42"/>
<path d="M60.9755 54.8087C60.9564 54.8183 60.9404 54.8375 60.9276 54.8598L60.4452 55.7416C60.4069 55.8119 60.4356 55.8726 60.4931 55.8407L60.7008 55.7225L60.7072 57.5499C60.7072 57.5819 60.7295 57.5947 60.7551 57.5787L61.212 57.3167C61.2407 57.3007 61.2599 57.2624 61.2599 57.2305L61.2535 55.403L61.4612 55.2848C61.5187 55.2528 61.5474 55.157 61.5091 55.1314L61.0235 54.8087C61.0235 54.8087 60.9915 54.8023 60.9755 54.8119V54.8087Z" fill="#373B42"/>
<path d="M59.5576 55.6261C59.5384 55.6357 59.5224 55.6549 59.5097 55.6772L59.0272 56.559C58.9889 56.6293 59.0176 56.69 59.0751 56.6581L59.2828 56.5398L59.2892 58.3673C59.2892 58.3993 59.3116 58.4121 59.3371 58.3961L59.794 58.1341C59.8196 58.1181 59.8419 58.0798 59.8419 58.0478L59.8355 56.2204L60.0432 56.1022C60.1007 56.0702 60.1295 55.9744 60.0911 55.9488L59.6055 55.6261C59.6055 55.6261 59.5735 55.6197 59.5576 55.6293V55.6261Z" fill="#373B42"/>
<path d="M91.9842 45.8714C91.2845 45.4688 91.2813 44.8138 91.9746 44.4113C92.6679 44.0087 93.7989 44.0087 94.4954 44.4113C95.1951 44.8138 95.1983 45.4688 94.5018 45.8714C93.8085 46.2739 92.6807 46.2739 91.981 45.8714H91.9842Z" fill="white"/>
<path d="M93.2463 46.271C92.7735 46.271 92.2974 46.1656 91.9364 45.9579C91.5658 45.7439 91.3613 45.4531 91.3613 45.14C91.3613 44.8301 91.5626 44.5394 91.9268 44.3285C92.6457 43.91 93.8214 43.91 94.5466 44.3285C94.9172 44.5426 95.1217 44.8333 95.1217 45.1464C95.1217 45.4563 94.9204 45.7471 94.5562 45.9579C94.1952 46.1656 93.7224 46.271 93.2495 46.271H93.2463ZM92.0355 45.7886C92.7064 46.1752 93.7926 46.1752 94.4572 45.7886C94.7607 45.6129 94.9268 45.3829 94.9268 45.1464C94.9268 44.9068 94.7575 44.6768 94.4508 44.4979C93.7799 44.1113 92.6936 44.1113 92.0259 44.4979C91.7224 44.6736 91.5562 44.9036 91.5562 45.14C91.5562 45.3797 91.7255 45.6097 92.0323 45.7886H92.0355Z" fill="#DBDEE4"/>
<path d="M93.2372 44.6797C93.5088 44.6797 93.774 44.7404 93.9593 44.849C94.1094 44.9353 94.1957 45.0439 94.1957 45.1429C94.1957 45.242 94.1126 45.3474 93.9625 45.4305C93.7772 45.5391 93.5152 45.5998 93.2436 45.5998C92.9721 45.5998 92.7069 45.5391 92.5216 45.4305C92.3714 45.3442 92.2852 45.2356 92.2852 45.1366C92.2852 45.0375 92.3682 44.9321 92.5184 44.849C92.7037 44.7404 92.9657 44.6797 93.2372 44.6797Z" fill="#FFBE2E"/>
<path d="M87.0907 41.1816C87.3846 41.1816 87.6658 41.2487 87.8671 41.3638C88.03 41.4564 88.1227 41.5714 88.1227 41.6768C88.1227 41.7823 88.0332 41.8941 87.8735 41.9868C87.6754 42.1018 87.391 42.1689 87.1003 42.1689C86.8096 42.1689 86.5252 42.1018 86.3239 41.9868C86.161 41.8941 86.0684 41.7791 86.0684 41.6737C86.0684 41.5682 86.1578 41.4564 86.3176 41.3638C86.5156 41.2487 86.8 41.1816 87.0907 41.1816Z" fill="#373B42"/>
<path d="M69.1687 95.7539C68.9259 95.7539 68.6895 95.8082 68.5234 95.9041C68.3892 95.9807 68.3125 96.0766 68.3125 96.166C68.3125 96.2523 68.3892 96.3482 68.5202 96.4248C68.6863 96.5207 68.9195 96.575 69.1623 96.575C69.4051 96.575 69.6384 96.5207 69.8077 96.4248C69.9419 96.3482 70.0186 96.2523 70.0186 96.1629C70.0186 96.0766 69.9419 95.9807 69.8109 95.9041C69.6448 95.8082 69.4115 95.7539 69.1687 95.7539Z" fill="#373B42"/>
<path d="M48.8211 86.8945C48.5783 86.8945 48.3418 86.9488 48.1757 87.0447C48.0415 87.1214 47.9648 87.2172 47.9648 87.3067C47.9648 87.3929 48.0415 87.4888 48.1725 87.5654C48.3386 87.6613 48.5719 87.7156 48.8147 87.7156C49.0575 87.7156 49.2907 87.6613 49.46 87.5654C49.5942 87.4888 49.6709 87.3929 49.6709 87.3035C49.6709 87.2172 49.5942 87.1214 49.4632 87.0447C49.2971 86.9488 49.0639 86.8945 48.8211 86.8945Z" fill="#373B42"/>
<g opacity="0.1">
<path d="M81.1358 91.3569C77.7556 93.309 77.7396 96.4719 81.0975 98.424C84.4553 100.376 89.9186 100.376 93.2987 98.424C96.6789 96.4719 96.7013 93.3058 93.3403 91.3537C89.9825 89.4016 84.516 89.4016 81.1326 91.3537L81.1358 91.3569Z" fill="black"/>
</g>
<path d="M95.855 93.5198C95.855 94.8074 95.0084 96.0981 93.3055 97.0789C91.986 97.8393 90.3534 98.3058 88.6505 98.4719C87.7049 98.5678 86.74 98.5678 85.7943 98.4783C84.0723 98.3154 82.4269 97.8489 81.1042 97.0821C79.4333 96.1109 78.5994 94.8457 78.5962 93.5742L78.5898 90.4464C78.5898 91.7211 79.4269 92.9863 81.0978 93.9575C82.4205 94.7275 84.0723 95.194 85.7911 95.3537C86.7368 95.4432 87.7017 95.4432 88.6473 95.3473C90.347 95.1812 91.9828 94.7147 93.2959 93.9543C94.9956 92.9767 95.8454 91.6892 95.8454 90.3984L95.8518 93.523L95.855 93.5198Z" fill="#3C2C0B"/>
<path d="M88.6472 95.3447V98.4693C87.7016 98.5652 86.7367 98.5652 85.791 98.4757V95.3511C86.7367 95.4406 87.7016 95.4406 88.6472 95.3447Z" fill="#3C2C0B"/>
<path d="M87.197 98.6383C84.9702 98.6383 82.7465 98.1463 81.0564 97.1654C79.4111 96.2102 78.5037 94.9322 78.5005 93.5712L78.4941 90.4434C78.4941 90.3891 78.5389 90.3444 78.59 90.3444C78.6443 90.3444 78.689 90.3891 78.689 90.4402C78.6954 91.7309 79.5676 92.9482 81.1491 93.8651C84.475 95.798 89.9031 95.798 93.2513 93.8651C94.8647 92.9322 95.7529 91.7022 95.7529 90.3955V90.3891C95.7529 90.3348 95.7977 90.29 95.8488 90.29C95.9031 90.29 95.9478 90.3348 95.9478 90.3859V90.3923L95.9542 93.5105C95.9574 94.8907 95.0341 96.1878 93.3568 97.1559C91.6571 98.1367 89.427 98.6287 87.2002 98.6287L87.197 98.6383ZM78.689 91.5201V93.568C78.6954 94.8587 79.5708 96.076 81.1523 96.9929C84.4782 98.9258 89.9095 98.9258 93.2545 96.9929C94.8711 96.06 95.7593 94.8268 95.7561 93.5169V91.4753C95.4015 92.4402 94.5772 93.3252 93.3472 94.0344C89.9446 95.9993 84.427 95.9993 81.0469 94.0344C79.8456 93.3348 79.0373 92.4658 78.6858 91.5169L78.689 91.5201Z" fill="#978050"/>
<path d="M81.1358 86.8842C77.7556 88.8363 77.7396 91.9993 81.0975 93.9513C84.4553 95.9034 89.9186 95.9034 93.2987 93.9513C96.6789 91.9993 96.7013 88.8331 93.3403 86.881C89.9825 84.929 84.516 84.929 81.1326 86.881L81.1358 86.8842Z" fill="#FFF7E4"/>
<path d="M87.1906 95.5101C84.9638 95.5101 82.7402 95.018 81.0501 94.0372C79.3983 93.0787 78.491 91.7976 78.4941 90.4302C78.4941 89.0532 79.4175 87.7656 81.0884 86.8008C84.491 84.8359 90.0117 84.8359 93.3919 86.8008C95.0405 87.7593 95.9478 89.0404 95.9478 90.4046C95.9478 91.7816 95.0245 93.0724 93.3504 94.0372C91.6507 95.018 89.4207 95.5101 87.1938 95.5101H87.1906ZM87.2481 85.5164C85.0533 85.5164 82.8584 85.9989 81.1842 86.9669C79.574 87.8966 78.689 89.1235 78.6858 90.427C78.6858 91.7209 79.558 92.9414 81.1459 93.8647C84.4718 95.7976 89.8999 95.7976 93.2481 93.8647C94.8584 92.935 95.7465 91.7049 95.7497 90.4014C95.7497 89.1075 94.8775 87.8871 93.2929 86.9637C91.6283 85.9957 89.4398 85.5133 87.2481 85.5133V85.5164Z" fill="#978050"/>
<path d="M81.1358 86.8842C77.7556 88.8363 77.7396 91.9993 81.0975 93.9513C84.4553 95.9034 89.9186 95.9034 93.2987 93.9513C96.6789 91.9993 96.7013 88.8331 93.3403 86.881C89.9825 84.929 84.516 84.929 81.1326 86.881L81.1358 86.8842Z" fill="#FFF7E4"/>
<path d="M87.1906 95.5101C84.9638 95.5101 82.7402 95.018 81.0501 94.0372C79.3983 93.0787 78.491 91.7976 78.4941 90.4302C78.4941 89.0532 79.4175 87.7656 81.0884 86.8008C84.491 84.8359 90.0117 84.8359 93.3919 86.8008C95.0405 87.7593 95.9478 89.0404 95.9478 90.4046C95.9478 91.7816 95.0245 93.0724 93.3504 94.0372C91.6507 95.018 89.4207 95.5101 87.1938 95.5101H87.1906ZM87.2481 85.5164C85.0533 85.5164 82.8584 85.9989 81.1842 86.9669C79.574 87.8966 78.689 89.1235 78.6858 90.427C78.6858 91.7209 79.558 92.9414 81.1459 93.8647C84.4718 95.7976 89.8999 95.7976 93.2481 93.8647C94.8584 92.935 95.7465 91.7049 95.7497 90.4014C95.7497 89.1075 94.8775 87.8871 93.2929 86.9637C91.6283 85.9957 89.4398 85.5133 87.2481 85.5133V85.5164Z" fill="#978050"/>
<path d="M81.1358 86.8842C77.7556 88.8363 77.7396 91.9993 81.0975 93.9513C84.4553 95.9034 89.9186 95.9034 93.2987 93.9513C96.6789 91.9993 96.7013 88.8331 93.3403 86.881C89.9825 84.929 84.516 84.929 81.1326 86.881L81.1358 86.8842Z" fill="#FFF7E4"/>
<path d="M87.1906 95.5101C84.9638 95.5101 82.7402 95.018 81.0501 94.0372C79.3983 93.0787 78.491 91.7976 78.4941 90.4302C78.4941 89.0532 79.4175 87.7656 81.0884 86.8008C84.491 84.8359 90.0117 84.8359 93.3919 86.8008C95.0405 87.7593 95.9478 89.0404 95.9478 90.4046C95.9478 91.7816 95.0245 93.0724 93.3504 94.0372C91.6507 95.018 89.4207 95.5101 87.1938 95.5101H87.1906ZM87.2481 85.5164C85.0533 85.5164 82.8584 85.9989 81.1842 86.9669C79.574 87.8966 78.689 89.1235 78.6858 90.427C78.6858 91.7209 79.558 92.9414 81.1459 93.8647C84.4718 95.7976 89.8999 95.7976 93.2481 93.8647C94.8584 92.935 95.7465 91.7049 95.7497 90.4014C95.7497 89.1075 94.8775 87.8871 93.2929 86.9637C91.6283 85.9957 89.4398 85.5133 87.2481 85.5133V85.5164Z" fill="#978050"/>
<g opacity="0.1">
<path d="M90.7126 88.6314C92.4666 89.6442 92.473 91.2864 90.7318 92.296C88.9906 93.3056 86.1567 93.3088 84.4059 92.296C82.6519 91.2832 82.6423 89.641 84.3835 88.6314C86.1247 87.6218 88.9618 87.6187 90.7158 88.6314H90.7126Z" fill="black"/>
</g>
<path d="M76.5215 63.6956L80.0039 61.67C80.1349 61.5934 80.3106 61.5902 80.5087 61.67C81.6397 62.1301 82.6493 62.1014 83.4161 61.6573L79.9336 63.6828C79.1668 64.1269 78.1573 64.1589 77.0263 63.6956C76.8282 63.6157 76.6525 63.6157 76.5215 63.6956Z" fill="#978050"/>
<path d="M78.5785 64.127C78.077 64.127 77.5402 64.0152 76.9875 63.7883C76.8246 63.7213 76.6744 63.7181 76.569 63.7788C76.521 63.8043 76.4635 63.7915 76.4348 63.7436C76.4092 63.6957 76.422 63.6382 76.4699 63.6094L79.9523 61.5871C80.1121 61.4944 80.323 61.4944 80.5434 61.5871C81.6233 62.028 82.5977 62.0248 83.3645 61.5775C83.4124 61.5519 83.4699 61.5647 83.4987 61.6126C83.5242 61.6605 83.5115 61.7181 83.4635 61.7468L79.9811 63.7724C79.5722 64.012 79.0961 64.1302 78.5785 64.1302V64.127ZM76.9364 63.5679C76.9779 63.5775 77.0194 63.5935 77.061 63.6094C78.1408 64.0503 79.1153 64.0471 79.8821 63.603L82.5146 62.0727C81.8948 62.1621 81.192 62.0631 80.4699 61.766C80.307 61.6989 80.1568 61.6957 80.0514 61.7564L76.9364 63.5679Z" fill="#978050"/>
<path d="M94.0293 63.6383L85.6811 58.8204C85.4511 58.6894 85.2498 58.6766 85.1028 58.7629L81.6172 60.7884C81.7642 60.699 81.9718 60.7117 82.1955 60.8427L90.5437 65.6638C90.7322 65.7725 90.8983 65.9418 91.0357 66.1431L94.5213 64.1175C94.384 63.9162 94.2178 63.7469 94.0325 63.6383H94.0293Z" fill="#978050"/>
<path d="M91.0329 66.2422C91.001 66.2422 90.9722 66.2263 90.953 66.2007C90.8157 66.0026 90.6591 65.8461 90.493 65.7534L82.1447 60.9323C81.9626 60.8269 81.7933 60.8045 81.6719 60.8716L81.6623 60.878C81.6176 60.9036 81.5569 60.8908 81.5281 60.8429C81.4994 60.7981 81.5153 60.7374 81.5601 60.7087C81.5633 60.7087 81.5697 60.7023 81.5728 60.7023L85.0489 58.6831C85.2342 58.5777 85.4738 58.5969 85.7262 58.7406L94.0744 63.5585C94.2629 63.6671 94.4419 63.8429 94.5952 64.0665C94.6112 64.0889 94.6144 64.1176 94.6112 64.1432C94.6048 64.1687 94.5888 64.1911 94.5665 64.2071L91.0808 66.2326C91.0808 66.2326 91.0489 66.2454 91.0329 66.2454V66.2422ZM82.0233 60.664C82.0936 60.6831 82.1671 60.7151 82.2438 60.7598L90.592 65.5809C90.7613 65.6767 90.9211 65.8269 91.0617 66.0154L94.378 64.0889C94.2566 63.9291 94.1192 63.8045 93.9818 63.7247L85.6336 58.9068C85.4451 58.7981 85.2725 58.779 85.1511 58.8493L82.0265 60.6671L82.0233 60.664Z" fill="#978050"/>
<path d="M99.1642 72.446C97.9501 71.5418 96.8862 70.2383 96.1099 68.7974C95.4389 67.561 94.9917 66.2287 94.8479 64.9572C94.816 64.6728 94.6914 64.3725 94.5188 64.1201L91.0332 66.1457C91.2057 66.3981 91.3271 66.6952 91.3591 66.9827C91.506 68.2543 91.9565 69.5834 92.6274 70.823C93.4038 72.2607 94.4709 73.5642 95.6786 74.4684C95.9118 74.6409 96.1131 74.8933 96.2441 75.168L99.7265 73.1425C99.5923 72.8677 99.3942 72.6153 99.1642 72.446Z" fill="#978050"/>
<path d="M96.2453 75.264C96.2453 75.264 96.2262 75.264 96.2166 75.2608C96.191 75.2512 96.1686 75.2352 96.1591 75.2097C96.0281 74.9381 95.8364 74.7049 95.6223 74.5451C94.4402 73.6633 93.3476 72.3566 92.5424 70.8678C91.8523 69.5898 91.4115 68.2512 91.2645 66.9924C91.2357 66.7272 91.1239 66.4461 90.9546 66.1969C90.9386 66.1745 90.9354 66.1458 90.9386 66.1202C90.945 66.0946 90.961 66.0723 90.9833 66.0563L94.469 64.0307C94.5137 64.0052 94.568 64.018 94.6 64.0595C94.7885 64.3343 94.9099 64.6474 94.945 64.9413C95.0856 66.1777 95.5169 67.494 96.1974 68.7464C96.9865 70.2128 98.0632 71.4972 99.2261 72.363C99.4626 72.5387 99.6734 72.7975 99.8172 73.0946C99.8396 73.1394 99.8236 73.1969 99.7789 73.2224L96.2964 75.248C96.2964 75.248 96.2645 75.2608 96.2485 75.2608L96.2453 75.264ZM91.1718 66.1777C91.3252 66.4301 91.4274 66.7081 91.4562 66.9732C91.6 68.2097 92.0345 69.5227 92.7118 70.7783C93.5041 72.2416 94.5776 73.5259 95.7341 74.3918C95.9482 74.5483 96.1399 74.7751 96.2805 75.0339L99.5936 73.1074C99.4658 72.871 99.2932 72.6665 99.1015 72.5259C97.9162 71.6442 96.8236 70.3374 96.0185 68.8454C95.3284 67.5707 94.8875 66.232 94.7437 64.9668C94.7182 64.7304 94.6255 64.478 94.4817 64.248L91.1654 66.1745L91.1718 66.1777Z" fill="#978050"/>
<path d="M96.2433 75.1684C96.352 75.3889 96.4159 75.6253 96.4127 75.8425L96.4031 79.0853C96.3935 82.8202 95.4989 85.8968 93.9015 88.0853C93.2849 88.9224 92.4414 89.6317 91.4766 90.194L94.959 88.1684C95.9302 87.6061 96.7737 86.9 97.3839 86.0598C98.9846 83.8713 99.8791 80.7946 99.8919 77.063L99.9015 73.8138C99.9015 73.5965 99.8344 73.3633 99.7258 73.1396L96.2433 75.1652V75.1684Z" fill="#978050"/>
<path d="M91.4768 90.2929C91.4449 90.2929 91.4097 90.2769 91.3938 90.245C91.3682 90.197 91.381 90.1395 91.4289 90.1108C92.4321 89.5293 93.2372 88.8264 93.8251 88.0309C95.4417 85.82 96.3011 82.7274 96.3075 79.0884L96.3171 75.8456C96.3171 75.6507 96.2628 75.4335 96.1573 75.213C96.135 75.1683 96.1509 75.1108 96.1957 75.0852L99.6781 73.0597C99.7005 73.0469 99.7292 73.0437 99.7548 73.0501C99.7803 73.0565 99.8027 73.0756 99.8155 73.1012C99.9369 73.3472 100.001 73.5964 100.001 73.8168L99.9912 77.066C99.9784 80.7466 99.103 83.8775 97.464 86.1204C96.8698 86.9383 96.0423 87.6539 95.0072 88.2545L91.5279 90.2801C91.512 90.2897 91.496 90.2929 91.48 90.2929H91.4768ZM96.3714 75.2066C96.4672 75.4271 96.5152 75.6443 96.5152 75.8424L96.5056 79.0852C96.496 82.7657 95.6238 85.8967 93.9848 88.1427C93.7228 88.5006 93.4161 88.836 93.0711 89.1523L94.9113 88.082C95.9241 87.4974 96.7292 86.7977 97.3075 86.0022C98.9241 83.7913 99.7835 80.7018 99.7963 77.0629L99.8059 73.8136C99.8059 73.6507 99.7644 73.4654 99.6845 73.2801L96.3714 75.2066Z" fill="#978050"/>
<path d="M90.5406 65.667C90.9592 65.9098 91.301 66.4689 91.3585 66.9801C91.5055 68.2517 91.956 69.5871 92.6237 70.8236C93.4001 72.2645 94.4672 73.5648 95.678 74.4689C96.0966 74.7788 96.416 75.3539 96.416 75.8427L96.4065 79.0887C96.3969 82.8204 95.4991 85.897 93.9017 88.0855C92.3937 90.1462 89.4959 91.4114 86.7867 91.6894C86.6333 91.7054 86.4608 91.6574 86.2914 91.5584C86.1189 91.4593 85.9464 91.3092 85.7962 91.1175C83.0966 87.7149 80.2148 83.1143 78.7228 79.322C77.1381 75.2964 76.2659 71.1974 76.2755 67.4657L76.2851 64.2197C76.2851 63.7309 76.6077 63.5296 77.0295 63.7022C78.2371 64.1942 79.3106 64.1271 80.0934 63.5903C80.7643 63.1271 81.2244 62.3188 81.3745 61.2165C81.4352 60.7725 81.7771 60.6063 82.1988 60.8491L90.547 65.6702L90.5406 65.667Z" fill="#FFF7E4"/>
<path d="M86.7234 91.7913C86.5733 91.7913 86.4039 91.7402 86.2378 91.6444C86.0525 91.5357 85.8704 91.376 85.7138 91.1779C82.733 87.4239 80.0174 82.8936 78.6276 79.3568C77.011 75.2514 76.1643 71.1396 76.1739 67.4654L76.1835 64.2194C76.1835 63.9511 76.2761 63.7402 76.4455 63.6284C76.6084 63.5198 76.8289 63.5134 77.0621 63.6092C78.2027 64.0757 79.2602 64.0373 80.0333 63.507C80.7011 63.0437 81.1292 62.2482 81.2729 61.2003C81.3081 60.9543 81.4199 60.7754 81.5956 60.6891C81.7777 60.5996 82.0078 60.6252 82.241 60.7626L90.5892 65.5837C91.0269 65.8361 91.3912 66.4207 91.4551 66.9702C91.5956 68.2067 92.0301 69.523 92.7075 70.7785C93.4966 72.2418 94.5733 73.5262 95.733 74.392C96.1835 74.7274 96.5126 75.3377 96.5094 75.8424L96.4998 79.0885C96.4902 82.7658 95.618 85.8968 93.9758 88.1428C92.5573 90.0821 89.8033 91.4782 86.7905 91.7881C86.7682 91.7881 86.7458 91.7913 86.7202 91.7913H86.7234ZM76.7458 63.737C76.6723 63.737 76.6052 63.7562 76.5509 63.7913C76.4391 63.8648 76.3784 64.0182 76.3784 64.2194L76.3688 67.4654C76.3592 71.1172 77.2027 75.2035 78.8097 79.2865C80.1963 82.8073 82.8991 87.3185 85.8672 91.0597C86.0078 91.2386 86.1707 91.3824 86.3336 91.4782C86.4902 91.5677 86.6436 91.6092 86.7713 91.5964C89.7298 91.2929 92.4327 89.9287 93.8193 88.0309C95.4359 85.8169 96.2953 82.7274 96.3049 79.0916L96.3145 75.8456C96.3145 75.3952 96.0206 74.852 95.6148 74.5517C94.4327 73.6699 93.3368 72.3632 92.5349 70.8744C91.8448 69.5964 91.4039 68.2546 91.2602 66.9958C91.2027 66.5102 90.8736 65.9766 90.4902 65.7562L82.142 60.9351C81.963 60.8329 81.8001 60.8105 81.6787 60.868C81.5669 60.9223 81.4902 61.0533 81.4646 61.2322C81.3113 62.3345 80.8544 63.1779 80.142 63.6731C79.3113 64.245 78.1899 64.2865 76.9854 63.7977C76.8991 63.7626 76.8193 63.7434 76.7458 63.7434V63.737Z" fill="#978050"/>
<path d="M78.0279 67.472C78.0151 70.9161 78.8202 74.7915 80.3506 78.6797C81.6413 81.9672 84.2643 86.3474 87.0534 89.8905C89.2323 89.571 91.226 88.5742 92.309 87.2707C92.3665 87.1972 92.4272 87.1238 92.4784 87.0503C93.8873 85.1206 94.6349 82.3666 94.6477 79.0822L94.6573 75.9193C94.6445 75.9001 94.6317 75.8778 94.6221 75.8714C93.2291 74.8298 92.0055 73.3762 91.0758 71.6541C90.2867 70.1909 89.7819 68.6445 89.6157 67.1972C89.6093 67.1813 89.5998 67.1589 89.587 67.1397L82.8585 63.2548L82.6349 63.127C82.4656 63.5008 82.2579 63.8426 82.0119 64.1493C81.9736 64.2004 81.9288 64.2547 81.8809 64.3059C81.849 64.3474 81.8106 64.3921 81.7723 64.4273C81.6381 64.5742 81.4911 64.7084 81.3378 64.833C81.2515 64.9033 81.1653 64.9672 81.079 65.0279C81.0055 65.079 80.9288 65.127 80.8522 65.1717C80.7787 65.2196 80.702 65.2579 80.6285 65.2963C80.5934 65.3155 80.555 65.3346 80.5135 65.3506C80.4975 65.3602 80.4815 65.3666 80.4624 65.373C80.4113 65.3953 80.3633 65.4209 80.309 65.4401C80.2771 65.456 80.2451 65.4688 80.21 65.4816C80.1333 65.5103 80.0534 65.5391 79.9736 65.5647C79.8969 65.5902 79.8202 65.6158 79.7435 65.6317C79.7212 65.6413 79.6924 65.6477 79.6668 65.6509C79.5838 65.6701 79.5007 65.6893 79.4176 65.702C79.4017 65.702 79.3857 65.7084 79.3665 65.7116C79.2739 65.7276 79.178 65.7404 79.0822 65.7532C79.0662 65.7532 79.0534 65.7532 79.0375 65.7532C78.9416 65.7659 78.8426 65.7691 78.7435 65.7723H78.7307C78.6796 65.7723 78.6221 65.7723 78.571 65.7723C78.3889 65.7723 78.2068 65.7627 78.0215 65.7436V67.456L78.0279 67.472Z" fill="#978050"/>
<path d="M87.0556 89.9894C87.0269 89.9894 86.9981 89.9766 86.9789 89.9511C84.1866 86.4048 81.5508 81.9958 80.2601 78.7147C78.7233 74.8137 77.9182 70.9255 77.9278 67.4687V65.7562C77.9278 65.7274 77.9438 65.7019 77.963 65.6827C77.9853 65.6635 78.0109 65.654 78.0396 65.6572C78.209 65.6763 78.3911 65.6859 78.5796 65.6859C78.6307 65.6859 78.685 65.6859 78.7361 65.6859C78.8448 65.6859 78.9406 65.6763 79.0333 65.6667C79.0684 65.6667 79.078 65.6635 79.0876 65.6635C79.1706 65.654 79.2601 65.6412 79.3527 65.6252L79.4007 65.6156C79.4805 65.5997 79.5636 65.5837 79.6435 65.5645C79.669 65.5581 79.6914 65.5549 79.7106 65.5485C79.8 65.5294 79.8703 65.507 79.9438 65.4814C80.0237 65.4591 80.1035 65.4303 80.177 65.4016C80.2122 65.3888 80.2409 65.376 80.2665 65.3632C80.324 65.3409 80.3687 65.3185 80.4134 65.2993C80.439 65.2897 80.4486 65.2834 80.4614 65.277C80.5093 65.2546 80.5444 65.2386 80.5764 65.2227C80.6563 65.1843 80.7297 65.1428 80.7968 65.0981C80.8799 65.0533 80.9502 65.0054 81.0237 64.9575C81.1099 64.8968 81.193 64.8361 81.2761 64.7658C81.4358 64.6348 81.5764 64.507 81.701 64.3696C81.7393 64.3313 81.7745 64.2897 81.8032 64.2514C81.8575 64.1971 81.8991 64.1492 81.9342 64.0981C82.1738 63.7977 82.3815 63.4591 82.5476 63.0917C82.5604 63.0661 82.5796 63.0469 82.6051 63.0405C82.6307 63.031 82.6595 63.0342 82.685 63.0501L82.9086 63.1779L89.6371 67.0629C89.6371 67.0629 89.6658 67.0853 89.6722 67.0981C89.6882 67.1236 89.701 67.1524 89.7074 67.1683C89.7074 67.1747 89.7138 67.1843 89.7138 67.1939C89.8767 68.6316 90.3783 70.162 91.161 71.6156C92.0844 73.3217 93.2984 74.769 94.6786 75.8009C94.701 75.8169 94.7265 75.852 94.7393 75.8776C94.7457 75.8936 94.7521 75.9096 94.7521 75.9255L94.7425 79.0885C94.7297 82.3952 93.9725 85.1683 92.554 87.1108C92.4997 87.1843 92.439 87.261 92.3815 87.3313C91.2825 88.6508 89.2441 89.6667 87.062 89.9862C87.0588 89.9862 87.0524 89.9862 87.0492 89.9862L87.0556 89.9894ZM78.1259 65.8648V67.4719C78.1131 70.9032 78.915 74.7658 80.4422 78.6444C81.7202 81.8936 84.3304 86.261 87.0972 89.7882C89.2154 89.4655 91.1802 88.4814 92.2377 87.2099C92.2984 87.1396 92.3559 87.0661 92.4071 86.9958C93.8032 85.0853 94.5444 82.3504 94.5572 79.0853L94.5668 75.9511C93.1706 74.9064 91.9342 73.4367 90.9981 71.7051C90.2058 70.2354 89.6978 68.6891 89.5285 67.229C89.5285 67.2258 89.5253 67.2195 89.5221 67.2163L82.685 63.2674C82.5189 63.6124 82.3208 63.9319 82.094 64.2131C82.0524 64.2706 82.0045 64.3249 81.9566 64.376C81.931 64.4112 81.8895 64.4591 81.848 64.4974C81.717 64.638 81.5732 64.7754 81.4039 64.9096C81.3176 64.9798 81.2281 65.0469 81.1387 65.1108C81.062 65.162 80.9853 65.2131 80.9023 65.261C80.832 65.3057 80.7521 65.3504 80.6722 65.3888C80.6403 65.408 80.5987 65.4271 80.554 65.4463C80.5412 65.4559 80.5189 65.4655 80.4965 65.4719C80.4518 65.4942 80.4007 65.5166 80.3495 65.5389C80.3176 65.5549 80.2825 65.5709 80.2441 65.5805C80.1706 65.6092 80.0876 65.638 80.0045 65.6635C79.931 65.6891 79.8511 65.7147 79.7681 65.7338C79.7553 65.7402 79.7265 65.7466 79.6946 65.753C79.6083 65.7754 79.5221 65.7913 79.439 65.8073L79.3879 65.8169C79.2952 65.8329 79.1994 65.8457 79.1003 65.8584C79.1003 65.8584 79.078 65.8584 79.0748 65.8584C79.0652 65.8584 79.0524 65.8584 79.0428 65.8584C78.9534 65.8712 78.8543 65.8744 78.7521 65.8776C78.5061 65.8904 78.3208 65.8776 78.1227 65.8616L78.1259 65.8648Z" fill="#978050"/>
<path d="M78.7388 66.7598C78.726 70.2039 79.5311 74.0793 81.0615 77.9675C82.3522 81.255 84.9752 85.6352 87.7644 89.1783C89.5279 88.9196 91.1733 88.2199 92.3107 87.2678C92.3682 87.1943 92.4289 87.1208 92.48 87.0473C93.889 85.1176 94.6366 82.3636 94.6494 79.0793L94.6589 75.9164C94.6462 75.8972 94.6334 75.8748 94.6238 75.8684C93.2308 74.8269 92.0072 73.3732 91.0775 71.6512C90.2883 70.1879 89.7835 68.6416 89.6174 67.1943C89.611 67.1783 89.6014 67.156 89.5887 67.1368L82.8602 63.2518L82.6366 63.124C82.4672 63.4978 82.2596 63.8397 82.0136 64.1464C81.972 64.1975 81.9273 64.2518 81.8826 64.3029C81.8506 64.3445 81.8123 64.3892 81.774 64.4243C81.6398 64.5713 81.4928 64.7055 81.3395 64.8301C81.2532 64.9004 81.1701 64.9643 81.0807 65.025C81.0072 65.0761 80.9305 65.124 80.8538 65.1688C80.7803 65.2167 80.7037 65.255 80.6302 65.2934C80.595 65.3125 80.5535 65.3317 80.5152 65.3477C80.4992 65.3572 80.4832 65.3636 80.4641 65.37C80.4129 65.3924 80.365 65.418 80.3107 65.4371C80.2787 65.4531 80.2468 65.4659 80.2117 65.4787C80.135 65.5074 80.0583 65.5362 79.9752 65.5617C79.8986 65.5873 79.8219 65.6096 79.7452 65.6288C79.7228 65.6384 79.6941 65.6448 79.6685 65.648C79.5855 65.6672 79.5056 65.6863 79.4193 65.6991C79.4033 65.6991 79.3874 65.7055 79.3682 65.7087C79.2755 65.7247 79.1797 65.7374 79.0839 65.7502C79.0679 65.7502 79.0551 65.7502 79.0391 65.7502C78.9433 65.7598 78.8474 65.7662 78.7452 65.7694H78.7324V66.747L78.7388 66.7598Z" fill="#FFBE2E"/>
<path d="M87.7666 89.2765C87.7378 89.2765 87.7091 89.2637 87.6899 89.2382C84.8975 85.6919 82.2618 81.2829 80.971 78.0018C79.4343 74.1008 78.6292 70.2126 78.6388 66.7558V65.7781C78.6388 65.7238 78.6867 65.6823 78.7378 65.6823C78.8432 65.6823 78.9359 65.6695 79.0317 65.6631C79.0637 65.6631 79.0765 65.6599 79.086 65.6599C79.1627 65.6503 79.2522 65.6375 79.3384 65.6216L79.3991 65.612C79.4854 65.596 79.5621 65.58 79.642 65.5609C79.6675 65.5545 79.6899 65.5513 79.709 65.5449C79.7953 65.5225 79.8688 65.5034 79.9423 65.4778C80.0253 65.4522 80.102 65.4267 80.1755 65.3979C80.2106 65.3851 80.2394 65.3724 80.265 65.3596C80.3225 65.3372 80.3672 65.3149 80.4119 65.2957C80.4375 65.2861 80.4471 65.2797 80.4598 65.2733L80.4918 65.2574C80.5205 65.2446 80.5461 65.2318 80.5717 65.2158C80.6515 65.1775 80.725 65.1359 80.7921 65.0912C80.8752 65.0465 80.9455 64.9986 81.019 64.9506C81.1084 64.8899 81.1883 64.8292 81.2713 64.7589C81.4311 64.628 81.5717 64.5002 81.6963 64.3628C81.7346 64.3244 81.7698 64.2829 81.7985 64.2446C81.8496 64.1903 81.8912 64.1391 81.9295 64.088C82.1691 63.7909 82.3736 63.4522 82.5397 63.0848C82.5525 63.0593 82.5717 63.0401 82.5972 63.0337C82.6228 63.0241 82.6515 63.0273 82.6771 63.0433L82.9007 63.1711L89.6292 67.0561C89.6292 67.0561 89.6579 67.0784 89.6643 67.0912C89.6803 67.1168 89.6931 67.1455 89.6995 67.1615C89.6995 67.1679 89.7059 67.1775 89.7059 67.1871C89.8688 68.6248 90.3704 70.1551 91.1531 71.6088C92.0765 73.3149 93.2905 74.7621 94.6707 75.7941C94.6931 75.8101 94.7186 75.8452 94.7314 75.8708C94.7378 75.8867 94.7442 75.9027 94.7442 75.9187L94.7346 79.0816C94.7218 82.3883 93.9646 85.1615 92.5461 87.104C92.4918 87.1775 92.4311 87.2542 92.3736 87.3244C91.1979 88.3085 89.5237 89.0145 87.7634 89.2701C87.7602 89.2701 87.7538 89.2701 87.7506 89.2701L87.7666 89.2765ZM78.84 65.8772V66.759C78.8273 70.1903 79.6292 74.0529 81.1563 77.9315C82.4343 81.1807 85.0445 85.5481 87.8113 89.0752C89.5142 88.8165 91.1308 88.1328 92.2522 87.1966C92.3001 87.1391 92.3576 87.0657 92.4087 86.9954C93.8049 85.0848 94.5461 82.35 94.5589 79.0848L94.5685 75.9506C93.1723 74.9059 91.9359 73.4363 90.9998 71.7046C90.2074 70.235 89.6995 68.6887 89.5301 67.2286C89.5301 67.2254 89.5269 67.219 89.5237 67.2158L82.6867 63.2669C82.5206 63.612 82.3225 63.9315 82.0956 64.2126C82.0541 64.2669 82.0062 64.3213 81.9583 64.3724C81.9295 64.4107 81.888 64.4554 81.8496 64.497C81.7186 64.6375 81.5749 64.7749 81.4055 64.9091C81.3193 64.9794 81.233 65.0465 81.1372 65.1104C81.0637 65.1615 80.9838 65.2126 80.9007 65.2574C80.8305 65.3021 80.7506 65.3468 80.6707 65.3851C80.6451 65.4011 80.6132 65.4171 80.5781 65.4299L80.5557 65.4395C80.5557 65.4395 80.5174 65.4586 80.495 65.4682C80.4503 65.4906 80.3991 65.5129 80.348 65.5353C80.3161 65.5513 80.2809 65.5673 80.2426 65.5768C80.1691 65.6056 80.086 65.6344 80.003 65.6599C79.9295 65.6855 79.8528 65.7078 79.7697 65.727C79.7538 65.7334 79.7218 65.7398 79.6931 65.7462C79.6068 65.7685 79.5237 65.7845 79.4375 65.8005L79.3864 65.8101C79.2809 65.826 79.1915 65.8388 79.0988 65.8516C79.0988 65.8516 79.0765 65.8516 79.0733 65.8516C79.0637 65.8516 79.0509 65.8516 79.0413 65.8516C78.9742 65.858 78.9071 65.8644 78.8336 65.8676L78.84 65.8772Z" fill="#978050"/>
<path d="M86.9524 71.9609C84.9364 70.798 83.2974 71.7277 83.291 74.0472C83.2846 76.3635 84.914 79.1846 86.93 80.3475C88.946 81.5104 90.585 80.5775 90.5913 78.2612C90.5977 75.9417 88.9683 73.1239 86.9524 71.9609Z" fill="white"/>
<path d="M85.652 77.4181C85.6265 77.4181 85.6009 77.4181 85.5785 77.4085C85.4955 77.3893 85.4188 77.335 85.3773 77.2583L84.6105 75.9548C84.5562 75.8622 84.5881 75.744 84.6808 75.6896C84.7734 75.6353 84.8917 75.6641 84.9492 75.7599L85.6808 77.0027L88.537 75.1849C88.6265 75.1273 88.7479 75.1529 88.8054 75.2456C88.8629 75.335 88.8373 75.4564 88.7447 75.5139L85.8309 77.367C85.7798 77.3989 85.7191 77.4181 85.6584 77.4181H85.652Z" fill="#373B42"/>
</g>
<defs>
<clipPath id="clip0_496_9772">
<rect width="100" height="100" fill="white"/>
</clipPath>
</defs>
</svg>
