<svg width="100" height="100" viewBox="0 0 100 100" fill="none" xmlns="http://www.w3.org/2000/svg">
<path d="M48.2766 89.9106C48.2451 89.9106 48.2146 89.8945 48.1974 89.8652C48.1719 89.8215 48.1866 89.7652 48.2303 89.7396L56.8235 84.7007C56.8877 84.6628 56.926 84.5958 56.9257 84.521C56.9257 84.4462 56.8869 84.3793 56.8224 84.3418L42.9322 76.2789C42.8885 76.2534 42.8737 76.1973 42.8992 76.1534C42.9243 76.1091 42.9803 76.0944 43.0247 76.12L56.9146 84.183C57.0361 84.2534 57.109 84.3796 57.1093 84.5204C57.11 84.6612 57.0376 84.7877 56.9164 84.8591L48.3229 89.898C48.3085 89.9065 48.2924 89.9106 48.2766 89.9106Z" fill="#DBDEE4"/>
<path d="M49.3064 90.449C49.9701 90.0658 49.9739 89.444 49.3145 89.0608C48.655 88.6775 47.5817 88.6777 46.918 89.0609C46.2542 89.4442 46.251 90.0656 46.9104 90.4489C47.5699 90.8321 48.6426 90.8322 49.3064 90.449Z" fill="white"/>
<path d="M48.1071 90.8266C47.6563 90.8266 47.2063 90.7273 46.8641 90.5286C46.5166 90.3265 46.3258 90.0527 46.3262 89.7572C46.3265 89.4601 46.5206 89.1847 46.872 88.9817C47.5605 88.5845 48.6766 88.584 49.3608 88.9815C49.7079 89.1834 49.8987 89.4572 49.8983 89.7525C49.8979 90.05 49.7039 90.3256 49.3521 90.5288C49.0083 90.7272 48.5575 90.8266 48.1071 90.8266ZM48.1182 88.8644C47.7008 88.8644 47.2826 88.9566 46.9638 89.1406C46.6712 89.3096 46.5102 89.5286 46.5098 89.7576C46.5095 89.9847 46.668 90.2021 46.9566 90.3697C47.5885 90.7373 48.6228 90.7375 49.2604 90.3699C49.553 90.2008 49.7144 89.9815 49.7148 89.7523C49.7152 89.5252 49.5566 89.3078 49.2683 89.1403C48.952 88.9564 48.5353 88.8644 48.1182 88.8644Z" fill="#DBDEE4"/>
<path d="M48.1152 89.3174C47.8565 89.3174 47.6061 89.3763 47.4281 89.479C47.2852 89.5615 47.2033 89.6628 47.2031 89.7569C47.203 89.85 47.2834 89.9501 47.4237 90.0317C47.6001 90.1342 47.8495 90.193 48.108 90.193C48.3665 90.193 48.6167 90.1341 48.7945 90.0314C48.9375 89.9489 49.0196 89.8475 49.0197 89.7532C49.0198 89.6601 48.9395 89.5601 48.7993 89.4786C48.623 89.3761 48.3737 89.3174 48.1152 89.3174Z" fill="#FFBE2E"/>
<path d="M53.9561 85.9912C53.6782 85.9912 53.4092 86.0545 53.2182 86.1648C53.0648 86.2534 52.9767 86.3622 52.9766 86.4633C52.9765 86.5632 53.0627 86.6708 53.2134 86.7584C53.4029 86.8685 53.6707 86.9316 53.9483 86.9316C54.226 86.9316 54.4947 86.8684 54.6856 86.7582C54.8392 86.6695 54.9273 86.5606 54.9275 86.4593C54.9276 86.3594 54.8413 86.2519 54.6908 86.1644C54.5015 86.0543 54.2337 85.9912 53.9561 85.9912Z" fill="#373B42"/>
<path d="M29.6494 90.8929C29.6337 90.8929 29.6175 90.8888 29.6032 90.8804L21.0101 85.8413C20.8885 85.7701 20.816 85.6437 20.8164 85.503C20.8168 85.3622 20.8896 85.236 21.0111 85.1652L34.9013 77.1022C34.9451 77.0769 35.0014 77.0915 35.0269 77.1356C35.0523 77.1795 35.0376 77.2357 34.9939 77.2611L21.1037 85.324C21.0388 85.3615 21 85.4285 21 85.5033C21 85.5779 21.0384 85.6452 21.1026 85.6828L29.6957 90.7219C29.7394 90.7475 29.7541 90.8038 29.7286 90.8476C29.7114 90.8768 29.681 90.8929 29.6494 90.8929Z" fill="#DBDEE4"/>
<path d="M28.6194 91.4305C27.9556 91.0472 27.9519 90.4255 28.6113 90.0422C29.2708 89.659 30.3441 89.6592 31.0079 90.0424C31.6716 90.4256 31.6749 91.047 31.0154 91.4303C30.3559 91.8136 29.2832 91.8137 28.6194 91.4305Z" fill="white"/>
<path d="M29.8186 91.8082C29.3682 91.8082 28.9174 91.7088 28.5735 91.5102C28.2217 91.3072 28.0277 91.0314 28.0273 90.7341C28.027 90.4386 28.2178 90.1648 28.5649 89.9631C29.2495 89.5656 30.3655 89.5658 31.0537 89.9632C31.4052 90.1662 31.5991 90.4416 31.5995 90.7388C31.5999 91.0341 31.4087 91.3081 31.0616 91.5099C30.7195 91.7086 30.2694 91.8082 29.8186 91.8082ZM29.8075 89.846C29.3904 89.846 28.9737 89.938 28.6574 90.122C28.3691 90.2894 28.2106 90.5067 28.2109 90.7337C28.2113 90.9629 28.3726 91.1822 28.6653 91.3513C29.3025 91.7194 30.3361 91.7192 30.969 91.3511C31.2577 91.1837 31.4162 90.9661 31.4158 90.739C31.4155 90.5102 31.2545 90.2911 30.9618 90.1222C30.6431 89.9382 30.2249 89.846 29.8075 89.846Z" fill="#DBDEE4"/>
<path d="M29.8127 90.2988C30.0715 90.2988 30.3219 90.3577 30.4998 90.4605C30.6426 90.5429 30.7247 90.6443 30.7248 90.7384C30.7249 90.8314 30.6445 90.9316 30.5042 91.0131C30.3278 91.1156 30.0784 91.1744 29.8199 91.1744C29.5614 91.1744 29.3112 91.1155 29.1334 91.0129C28.9904 90.9304 28.9084 90.8289 28.9082 90.7346C28.9081 90.6416 28.9884 90.5415 29.1286 90.46C29.3049 90.3576 29.5542 90.2988 29.8127 90.2988Z" fill="#FFBE2E"/>
<path d="M23.9694 86.9727C24.2473 86.9727 24.5163 87.0359 24.7073 87.1463C24.8608 87.2348 24.9488 87.3437 24.949 87.4448C24.9491 87.5447 24.8628 87.6523 24.7121 87.7398C24.5227 87.8499 24.2548 87.9131 23.9772 87.9131C23.6996 87.9131 23.4308 87.8499 23.2399 87.7396C23.0863 87.6509 22.9982 87.542 22.998 87.4408C22.9979 87.3409 23.0842 87.2333 23.2347 87.1458C23.424 87.0358 23.6918 86.9727 23.9694 86.9727Z" fill="#373B42"/>
<path d="M8.81247 84.6401C8.78091 84.6401 8.75005 84.6236 8.73285 84.5943C8.70775 84.5503 8.72279 84.4942 8.76657 84.4689L27.0563 73.909C27.099 73.8834 27.156 73.8984 27.1818 73.9425C27.2069 73.9864 27.1919 74.0426 27.1481 74.0679L8.85837 84.6278C8.84402 84.6362 8.82824 84.6401 8.81247 84.6401Z" fill="#DBDEE4"/>
<path d="M10.3181 84.9754C10.9818 84.5921 10.9856 83.9704 10.3262 83.5872C9.66675 83.2039 8.59344 83.2041 7.92967 83.5873C7.26591 83.9705 7.26267 84.592 7.92215 84.9752C8.58152 85.3584 9.65431 85.3586 10.3181 84.9754Z" fill="white"/>
<path d="M9.11843 85.3521C8.66802 85.3521 8.21797 85.2528 7.87582 85.0541C7.52832 84.8521 7.33752 84.5782 7.33789 84.2827C7.33826 83.9856 7.53229 83.7102 7.88371 83.5072C8.57188 83.1097 9.68823 83.1095 10.3721 83.5071C10.7192 83.709 10.9104 83.9829 10.91 84.2784C10.9097 84.5755 10.7156 84.8512 10.3639 85.0541C10.02 85.2528 9.56885 85.3521 9.11843 85.3521ZM9.12987 83.39C8.71243 83.39 8.29431 83.4822 7.9755 83.6661C7.68285 83.8352 7.52186 84.0541 7.52149 84.2832C7.52112 84.5103 7.67962 84.7276 7.96831 84.8953C8.60126 85.2634 9.63476 85.2631 10.2721 84.8953C10.5647 84.7264 10.7261 84.5071 10.7264 84.2781C10.7268 84.051 10.5679 83.8334 10.2796 83.666C9.96331 83.482 9.54693 83.39 9.12987 83.39Z" fill="#DBDEE4"/>
<path d="M9.12695 83.8428C8.86818 83.8428 8.61777 83.9017 8.43984 84.0044C8.29695 84.0869 8.215 84.1882 8.21484 84.2823C8.21474 84.3754 8.2951 84.4755 8.43539 84.557C8.61184 84.6596 8.86125 84.7184 9.1197 84.7184C9.37821 84.7184 9.62846 84.6595 9.80623 84.5568C9.94922 84.4743 10.0313 84.3729 10.0314 84.2785C10.0315 84.1855 9.95123 84.0854 9.81105 84.0039C9.63476 83.9015 9.38541 83.8428 9.12695 83.8428Z" fill="#FFBE2E"/>
<path d="M14.9737 80.5176C14.6958 80.5176 14.4268 80.5808 14.2358 80.6912C14.0823 80.7797 13.9942 80.8886 13.9941 80.9897C13.994 81.0896 14.0803 81.1972 14.231 81.2847C14.4205 81.3949 14.6883 81.458 14.9659 81.458C15.2436 81.458 15.5123 81.3947 15.7032 81.2845C15.8568 81.1958 15.9449 81.0869 15.945 80.9856C15.9452 80.8857 15.8589 80.7782 15.7083 80.6907C15.5191 80.5807 15.2513 80.5176 14.9737 80.5176Z" fill="#373B42"/>
<path d="M85.4045 90.6178C85.2596 90.6178 85.1148 90.5807 84.9853 90.5061L53.5947 72.3822C53.551 72.3569 53.5359 72.3008 53.561 72.2569C53.5864 72.2126 53.6431 72.198 53.6865 72.2234L85.0771 90.3471C85.2797 90.4634 85.5315 90.4638 85.7333 90.3459L94.6367 85.1719C94.6804 85.1463 94.7367 85.1609 94.7622 85.2052C94.7877 85.249 94.7729 85.3053 94.7292 85.3307L85.8259 90.5048C85.6961 90.5801 85.5501 90.6178 85.4045 90.6178Z" fill="#DBDEE4"/>
<path d="M53.6457 72.3949C53.63 72.3949 53.6142 72.3909 53.5998 72.3825L38.7041 63.7826C38.6603 63.7573 38.6452 63.7011 38.6703 63.6572C38.6962 63.6129 38.7524 63.5984 38.7959 63.6237L53.6916 72.2237C53.7354 72.2489 53.7504 72.3051 53.7253 72.349C53.7081 72.3784 53.6773 72.3949 53.6457 72.3949Z" fill="#DBDEE4"/>
<path d="M49.6283 13.4341C49.3303 13.2589 48.9183 13.2807 48.4583 13.548L14.1138 33.38C14.1094 33.3844 14.105 33.3844 14.1006 33.3888C13.6274 33.6648 13.2067 34.1381 12.9132 34.6814C12.6459 35.1722 12.475 35.7156 12.4794 36.2107V36.4604L12.5495 66.6621C12.5495 67.1748 12.7336 67.5385 13.0272 67.7094L10.4813 66.2327C10.1922 66.0619 10.0081 65.6981 10.0081 65.1811L9.93359 35.0539V34.7296C9.93359 34.2344 10.1001 33.6955 10.3674 33.2048C10.6654 32.6658 11.0817 32.1882 11.5461 31.9121C11.5549 31.9078 11.5593 31.9033 11.568 31.899L45.917 12.0669C46.3726 11.804 46.7846 11.7821 47.0825 11.953L49.6283 13.4341Z" fill="#978050"/>
<path d="M14.1007 33.3899C13.6275 33.6658 13.2068 34.1391 12.9132 34.6824C12.6459 35.1733 12.475 35.7166 12.4794 36.2117V36.4615C12.475 36.479 12.4707 36.5009 12.4663 36.5185L9.93359 35.0549V34.7306C9.93359 34.2354 10.1001 33.6965 10.3674 33.2058C10.6654 32.6669 11.0817 32.1892 11.5461 31.9131L14.1007 33.3899Z" fill="#978050"/>
<g opacity="0.1">
<path d="M14.1934 72.6583C13.2887 73.1807 13.2839 74.0293 14.1827 74.5516L35.9361 87.1933C36.8348 87.7156 38.3001 87.7156 39.2047 87.1933L73.5538 67.3618C74.4609 66.8381 74.4633 65.9908 73.5645 65.4685L51.8111 52.8268C50.9123 52.3045 49.4496 52.3031 48.5425 52.8268L14.1934 72.6583Z" fill="black"/>
</g>
<path d="M14.1895 67.5988C13.2848 68.1211 13.28 68.9698 14.1788 69.4921L35.9322 82.1338C36.8309 82.6561 38.2962 82.6561 39.2008 82.1338L73.5499 62.3022C74.457 61.7786 74.4594 60.9313 73.5606 60.4089L51.8073 47.7673C50.9085 47.245 49.4457 47.2435 48.5386 47.7673L14.1895 67.5988Z" fill="#FFF7E4"/>
<path d="M37.5644 82.6156C36.9555 82.6156 36.3476 82.4813 35.8857 82.2131L14.1325 69.5715C13.6699 69.3026 13.4153 68.9393 13.416 68.5484C13.4167 68.1552 13.6749 67.7896 14.1436 67.5192L48.4928 47.6878C49.4223 47.1509 50.9296 47.1509 51.8534 47.6878L73.607 60.3295C74.0699 60.5988 74.3249 60.9621 74.3242 61.3525C74.3238 61.7454 74.0649 62.1108 73.5958 62.3817L39.2467 82.2131C38.7819 82.4813 38.1726 82.6155 37.5644 82.6156ZM50.1751 47.4661C49.5999 47.4661 49.0239 47.5929 48.5847 47.8466L14.2354 67.6781C13.8259 67.9146 13.6 68.2237 13.5996 68.5488C13.5992 68.8714 13.8212 69.1781 14.2251 69.4127L35.9782 82.0542C36.8518 82.5616 38.277 82.5611 39.1549 82.0542L73.504 62.2228C73.914 61.9859 74.1402 61.6768 74.1406 61.3522C74.141 61.03 73.9186 60.7232 73.5145 60.4884L51.7609 47.8466C51.3248 47.5929 50.7503 47.4661 50.1751 47.4661Z" fill="#373B42"/>
<path d="M39.5667 56.3749C39.358 56.4953 39.3588 56.69 39.5642 56.8093L41.5705 57.9753C41.7778 58.0957 42.1119 58.0957 42.3205 57.9753L44.6747 56.6161C44.8834 56.4957 44.8844 56.3021 44.6772 56.1817L42.6708 55.0157C42.4654 54.8963 42.1295 54.8953 41.9208 55.0157L39.5667 56.3749Z" fill="white"/>
<path d="M41.9452 58.1565C41.7939 58.1565 41.6426 58.1225 41.5245 58.054L39.5181 56.888C39.3894 56.813 39.3184 56.7079 39.3184 56.5919C39.3187 56.4756 39.3905 56.37 39.521 56.2948L41.8753 54.9355C42.112 54.7988 42.4813 54.7988 42.7173 54.9355L44.7237 56.1015C44.8528 56.1766 44.9242 56.2817 44.9242 56.3974C44.9238 56.5137 44.8518 56.6194 44.7209 56.6948L42.3666 58.054C42.2482 58.1225 42.0969 58.1565 41.9452 58.1565ZM42.2966 55.0169C42.1765 55.0169 42.0567 55.0427 41.9671 55.0943L39.6128 56.4537V56.4538C39.5425 56.4942 39.5023 56.5447 39.502 56.592C39.502 56.6392 39.5414 56.689 39.6103 56.729L41.6171 57.8951C41.7946 57.9986 42.0958 57.9982 42.2748 57.8951L44.6291 56.536C44.6997 56.4951 44.7402 56.4445 44.7406 56.3972C44.7406 56.3504 44.7008 56.3006 44.6312 56.2604L42.6248 55.0944C42.5362 55.0427 42.4164 55.0169 42.2966 55.0169Z" fill="#373B42"/>
<path d="M43.8459 53.9042C43.6374 54.0246 43.638 54.2192 43.8435 54.3386L45.8498 55.5046C46.0571 55.625 46.3912 55.625 46.5998 55.5046L48.954 54.1454C49.1626 54.025 49.1637 53.8314 48.9564 53.711L46.9501 52.545C46.7447 52.4256 46.4087 52.4246 46.2001 52.545L43.8459 53.9042Z" fill="white"/>
<path d="M46.2245 55.6867C46.0728 55.6867 45.9215 55.6526 45.8035 55.5843L43.7974 54.4183C43.6686 54.3433 43.5977 54.2381 43.5977 54.1221C43.598 54.0057 43.6698 53.9001 43.8003 53.825L46.1542 52.4658C46.3913 52.3288 46.761 52.3294 46.9966 52.4658L49.0026 53.6319C49.1318 53.707 49.2031 53.8121 49.2031 53.9279C49.2028 54.0441 49.1307 54.1497 49.0002 54.225L46.6459 55.5844C46.5275 55.6526 46.3758 55.6867 46.2245 55.6867ZM43.8921 53.9838C43.8217 54.0245 43.7816 54.0749 43.7812 54.1224C43.7812 54.1693 43.8207 54.2194 43.8899 54.2594L45.896 55.4255C46.0735 55.5289 46.3751 55.5284 46.5541 55.4253L48.9084 54.0662C48.979 54.0254 49.0192 53.9749 49.0195 53.9276C49.0195 53.8809 48.9797 53.8309 48.9102 53.7908L46.9041 52.6247C46.7266 52.5212 46.425 52.5216 46.246 52.6247L43.8921 53.9838Z" fill="#373B42"/>
<path d="M52.0237 53.7021C51.8151 53.8225 51.8158 54.0172 52.0212 54.1365L54.0275 55.3025C54.2348 55.4229 54.5689 55.4229 54.7775 55.3025L57.1317 53.9432C57.3403 53.8228 57.3414 53.6293 57.1342 53.5088L55.1278 52.3429C54.9224 52.2235 54.5864 52.2224 54.3778 52.3429L52.0237 53.7021Z" fill="white"/>
<path d="M54.4022 55.4837C54.2509 55.4837 54.0996 55.4495 53.9816 55.3812L51.9751 54.2151C51.8464 54.1402 51.7754 54.0351 51.7754 53.9191C51.7758 53.8027 51.8475 53.6971 51.978 53.622L54.3323 52.2626C54.569 52.1262 54.9387 52.1258 55.1739 52.2626L57.1808 53.4286C57.3102 53.504 57.3812 53.609 57.3812 53.7247C57.3809 53.8409 57.3088 53.9465 57.1779 54.022L54.8236 55.3811C54.7053 55.4495 54.5535 55.4837 54.4022 55.4837ZM54.7537 52.3441C54.6335 52.3441 54.5134 52.3699 54.4241 52.4215L52.0698 53.7809V53.781C51.9995 53.8214 51.9594 53.8719 51.959 53.9192C51.959 53.9664 51.9984 54.0162 52.0673 54.0563L54.0741 55.2223C54.2512 55.3255 54.5525 55.3255 54.7318 55.2223L57.0861 53.8631C57.1567 53.8223 57.1973 53.7717 57.1976 53.7245C57.1976 53.6777 57.1578 53.6279 57.0883 53.5875L55.0818 52.4215C54.9932 52.3698 54.8735 52.3441 54.7537 52.3441Z" fill="#373B42"/>
<path d="M48.1252 51.4345C47.9167 51.555 47.9173 51.7496 48.1228 51.869L50.1291 53.0349C50.3364 53.1553 50.6705 53.1553 50.8791 53.0349L53.2333 51.6757C53.4419 51.5552 53.443 51.3617 53.2357 51.2412L51.2294 50.0753C51.024 49.9559 50.688 49.9548 50.4794 50.0753L48.1252 51.4345Z" fill="white"/>
<path d="M50.5038 53.2169C50.3521 53.2169 50.2008 53.1826 50.0828 53.1143L48.0767 51.9485C47.9479 51.8735 47.877 51.7683 47.877 51.6523C47.8773 51.5359 47.9491 51.4305 48.0792 51.3552L50.4335 49.996C50.6706 49.859 51.0403 49.8598 51.2759 49.996L53.282 51.1619C53.4114 51.2372 53.4825 51.3423 53.4825 51.4579C53.4821 51.5741 53.4101 51.6797 53.2791 51.7552L50.9252 53.1144C50.8068 53.1828 50.6551 53.2169 50.5038 53.2169ZM48.171 51.514C48.101 51.5547 48.0605 51.6051 48.0605 51.6526C48.0605 51.6995 48.1 51.7496 48.1692 51.7896L50.1753 52.9555C50.3528 53.0589 50.6544 53.0586 50.8334 52.9555L53.1873 51.5963C53.258 51.5554 53.2985 51.5049 53.2988 51.4577C53.2988 51.4109 53.259 51.361 53.1895 51.3207L51.1834 50.1549C51.0059 50.0514 50.7043 50.0517 50.5253 50.1549L48.171 51.514Z" fill="#373B42"/>
<path d="M47.7502 56.1718C47.5416 56.2922 47.5424 56.4868 47.7477 56.6062L49.7541 57.7722C49.9613 57.8926 50.2955 57.8926 50.5041 57.7722L52.8583 56.413C53.0669 56.2925 53.068 56.099 52.8607 55.9785L50.8544 54.8126C50.649 54.6932 50.313 54.6921 50.1044 54.8126L47.7502 56.1718Z" fill="white"/>
<path d="M50.1288 57.9542C49.9774 57.9542 49.8261 57.9201 49.7081 57.8516L47.7017 56.6858C47.5729 56.6108 47.502 56.5056 47.502 56.3896C47.5023 56.2732 47.5741 56.1676 47.7046 56.0925L50.0589 54.7333C50.2956 54.5967 50.6649 54.5967 50.9009 54.7333L52.9073 55.8992C53.0368 55.9745 53.1078 56.0796 53.1078 56.1952C53.1074 56.3114 53.0354 56.4171 52.9045 56.4925L50.5502 57.8516C50.4318 57.9201 50.2805 57.9542 50.1288 57.9542ZM47.7964 56.2513C47.7261 56.292 47.6859 56.3424 47.6856 56.3899C47.6856 56.4369 47.725 56.4869 47.7942 56.5269L49.8006 57.6928C49.9781 57.7962 50.2794 57.7959 50.4583 57.6928L52.8126 56.3336C52.8833 56.2928 52.9238 56.2422 52.9242 56.195C52.9242 56.1482 52.8843 56.0984 52.8148 56.058L50.8083 54.8922C50.6312 54.7889 50.33 54.7889 50.1507 54.8922L47.7964 56.2513Z" fill="#373B42"/>
<path d="M47.3713 60.9091C47.1627 61.0295 47.1635 61.2242 47.3689 61.3435L49.3752 62.5095C49.5806 62.6289 49.9166 62.6299 50.1252 62.5095L52.4794 61.1503C52.6881 61.0298 52.6873 60.8352 52.4819 60.7159L50.4756 59.5499C50.2702 59.4305 49.9342 59.4295 49.7256 59.5499L47.3713 60.9091Z" fill="white"/>
<path d="M49.7499 62.6906C49.5982 62.6906 49.4469 62.6563 49.3292 62.5878L47.3228 61.4221C47.194 61.3471 47.123 61.2419 47.123 61.1259C47.1234 61.0095 47.1952 60.9039 47.3257 60.8288L49.6796 59.4697C49.917 59.3327 50.2867 59.3334 50.522 59.4697L52.5284 60.6355C52.6572 60.7106 52.7278 60.8157 52.7278 60.9317C52.7274 61.0481 52.6557 61.1535 52.5256 61.2288L50.1712 62.588C50.0529 62.6565 49.9013 62.6906 49.7499 62.6906ZM50.1014 59.5511C49.9812 59.5511 49.8611 59.5769 49.7714 59.6285L47.4175 60.9877C47.3472 61.0284 47.3071 61.0788 47.3067 61.1263C47.3067 61.1732 47.3461 61.2233 47.4153 61.2633L49.4218 62.4291C49.5989 62.5324 49.9001 62.5324 50.0794 62.4291L52.4338 61.07C52.5037 61.0294 52.5442 60.9789 52.5442 60.9314C52.5442 60.8844 52.5048 60.8344 52.4359 60.7942L50.4294 59.6285C50.3409 59.5769 50.2211 59.5511 50.1014 59.5511Z" fill="#373B42"/>
<path d="M43.4709 58.6415C43.2624 58.7619 43.263 58.9566 43.4685 59.0759L45.4748 60.2419C45.682 60.3623 46.0162 60.3623 46.2248 60.2419L48.579 58.8827C48.7876 58.7623 48.7887 58.5687 48.5814 58.4483L46.5751 57.2823C46.3697 57.1629 46.0337 57.1619 45.8251 57.2823L43.4709 58.6415Z" fill="white"/>
<path d="M45.8495 60.424C45.6978 60.424 45.5465 60.39 45.4285 60.3216L43.4224 59.1556C43.2937 59.0806 43.2227 58.9754 43.2227 58.8594C43.223 58.743 43.2948 58.6375 43.4249 58.5623L45.7793 57.2031C46.0166 57.0661 46.3867 57.0666 46.6213 57.2033L48.6277 58.3691C48.7568 58.4443 48.8282 58.5493 48.8282 58.6652C48.8278 58.7814 48.7558 58.887 48.6249 58.9624L46.2709 60.3217C46.1525 60.39 46.0009 60.424 45.8495 60.424ZM43.5167 58.7211C43.4468 58.7618 43.4063 58.8122 43.4063 58.8597C43.4063 58.9067 43.4458 58.9567 43.5149 58.9967L45.521 60.1628C45.6981 60.266 45.9998 60.2659 46.1791 60.1626L48.533 58.8035C48.6036 58.7626 48.6442 58.7122 48.6445 58.6649C48.6445 58.6182 48.6047 58.5682 48.5352 58.5281L46.5287 57.3621C46.3516 57.2588 46.0504 57.2588 45.871 57.3621L43.5167 58.7211Z" fill="#373B42"/>
<path d="M22.4585 66.2559C22.2518 66.3752 22.2507 66.5709 22.456 66.6903L24.4624 67.8563C24.6696 67.9767 25.0057 67.9757 25.2124 67.8563L27.5684 66.496C27.7771 66.3755 27.7781 66.182 27.5709 66.0616L25.5645 64.8956C25.3591 64.7762 25.0232 64.7752 24.8145 64.8956L22.4585 66.2559Z" fill="white"/>
<path d="M24.8371 68.0387C24.6854 68.0387 24.5341 68.0044 24.4164 67.9357L22.41 66.7699C22.2834 66.6964 22.2109 66.5884 22.2109 66.4739C22.2113 66.3588 22.2848 66.2504 22.4129 66.1765L24.769 64.8163C25.0053 64.6799 25.375 64.6795 25.6106 64.8163L27.6174 65.9824C27.7469 66.0577 27.8179 66.1627 27.8179 66.2784C27.8175 66.3946 27.7455 66.5002 27.6146 66.5757L25.2585 67.936C25.1401 68.0044 24.9885 68.0387 24.8371 68.0387ZM25.1903 64.8978C25.0702 64.8978 24.95 64.9236 24.8608 64.9752L22.5047 66.3356V66.3358C22.4347 66.376 22.3945 66.4263 22.3945 66.4742C22.3945 66.5214 22.4336 66.5712 22.5021 66.611L24.5089 67.777C24.6861 67.8807 24.9873 67.8803 25.1666 67.777L27.5227 66.4168C27.5933 66.376 27.6339 66.3254 27.6343 66.2782C27.6343 66.2314 27.5944 66.1816 27.5249 66.1412L25.5184 64.9752C25.4299 64.9236 25.3101 64.8978 25.1903 64.8978Z" fill="#373B42"/>
<path d="M18.1792 68.7256C17.9725 68.845 17.9713 69.0407 18.1767 69.1601L20.1831 70.326C20.3903 70.4465 20.7264 70.4454 20.9331 70.326L23.2891 68.9657C23.4978 68.8453 23.4988 68.6517 23.2916 68.5313L21.2852 67.3653C21.0798 67.2459 20.7439 67.2449 20.5352 67.3653L18.1792 68.7256Z" fill="white"/>
<path d="M20.5578 70.5081C20.4064 70.5081 20.2551 70.4739 20.1371 70.4056L18.1307 69.2397C18.0041 69.166 17.9316 69.0581 17.9316 68.9437C17.932 68.8286 18.0055 68.7203 18.1336 68.6464L20.4897 67.2861C20.7267 67.1491 21.0968 67.1497 21.3317 67.2863L23.3381 68.452C23.4676 68.5273 23.5386 68.6324 23.5386 68.748C23.5382 68.8642 23.4662 68.9698 23.3353 69.0453L20.9792 70.4056C20.8608 70.4741 20.7095 70.5081 20.5578 70.5081ZM20.911 67.3676C20.7912 67.3676 20.6711 67.3934 20.5815 67.4451L18.2254 68.8053C18.1554 68.8457 18.1152 68.8962 18.1152 68.9439C18.1152 68.9912 18.1547 69.0411 18.2232 69.0809L20.2296 70.2468C20.4071 70.3502 20.7084 70.3499 20.8873 70.2468L23.2434 68.8866C23.3141 68.8457 23.3546 68.7951 23.355 68.748C23.355 68.7012 23.3151 68.6513 23.2456 68.611L21.2391 67.4451C21.1506 67.3934 21.0308 67.3676 20.911 67.3676Z" fill="#373B42"/>
<path d="M26.3589 68.5225C26.1522 68.6418 26.151 68.8375 26.3564 68.9569L28.3628 70.1229C28.57 70.2433 28.9061 70.2423 29.1128 70.1229L31.4688 68.7626C31.6774 68.6421 31.6785 68.4486 31.4713 68.3282L29.4649 67.1622C29.2595 67.0428 28.9236 67.0418 28.7149 67.1622L26.3589 68.5225Z" fill="white"/>
<path d="M28.7371 70.3051C28.5858 70.3051 28.4345 70.2709 28.3165 70.2026L26.31 69.0366C26.1838 68.9629 26.1113 68.855 26.1113 68.7406C26.1113 68.6255 26.1849 68.5171 26.3129 68.4432L28.669 67.083C28.906 66.946 29.2761 66.9466 29.511 67.0831L31.5174 68.249C31.6466 68.3241 31.7179 68.4292 31.7179 68.5449C31.7176 68.6612 31.6455 68.7669 31.5146 68.8424L29.1585 70.2026C29.0402 70.2709 28.8888 70.3051 28.7371 70.3051ZM26.4047 68.6021C26.3351 68.6424 26.2949 68.693 26.2949 68.7407C26.2949 68.788 26.334 68.8379 26.4025 68.8778L28.4089 70.0437C28.5864 70.1471 28.8884 70.1468 29.0666 70.0437L31.4227 68.6834C31.4933 68.6426 31.5339 68.592 31.5343 68.5446C31.5343 68.4978 31.4945 68.4479 31.4249 68.4078L29.4185 67.2418C29.2413 67.1385 28.9401 67.1385 28.7608 67.2418L26.4047 68.6021Z" fill="#373B42"/>
<path d="M22.0757 70.9932C21.869 71.1126 21.8678 71.3083 22.0732 71.4276L24.0796 72.5936C24.2868 72.714 24.6228 72.713 24.8296 72.5936L27.1856 71.2333C27.3942 71.1128 27.3953 70.9193 27.1881 70.7989L25.1817 69.6329C24.9763 69.5135 24.6404 69.5125 24.4317 69.6329L22.0757 70.9932Z" fill="white"/>
<path d="M24.4539 72.7746C24.3026 72.7746 24.1513 72.7404 24.0332 72.6721L22.0272 71.5061C21.9006 71.4326 21.8281 71.3246 21.8281 71.21C21.8281 71.0951 21.9017 70.9866 22.0297 70.9129L24.3858 69.5525C24.6228 69.4159 24.9929 69.4163 25.2278 69.5525L27.2342 70.7186C27.3634 70.7939 27.4347 70.899 27.4347 71.0146C27.4343 71.1308 27.3623 71.2365 27.2317 71.312L24.8756 72.6722C24.7573 72.7406 24.6056 72.7746 24.4539 72.7746ZM24.8075 69.6341C24.6874 69.6341 24.5672 69.6599 24.4776 69.7115L22.1215 71.0718C22.0519 71.1121 22.0117 71.1625 22.0117 71.2104C22.0117 71.2575 22.0508 71.3074 22.1193 71.3472L24.1257 72.5132C24.3032 72.6167 24.6048 72.6164 24.7838 72.5132L27.1399 71.153C27.2106 71.1121 27.2507 71.0617 27.2511 71.0144C27.2511 70.9676 27.2113 70.9177 27.1417 70.8774L25.1356 69.7113C25.0471 69.6597 24.9273 69.6341 24.8075 69.6341Z" fill="#373B42"/>
<path d="M26.73 63.7862C26.5233 63.9055 26.5221 64.1012 26.7275 64.2206L28.7339 65.3866C28.9411 65.507 29.2771 65.5059 29.4839 65.3866L31.8399 64.0263C32.0485 63.9058 32.0496 63.7123 31.8424 63.5918L29.836 62.4259C29.6306 62.3065 29.2947 62.3054 29.086 62.4259L26.73 63.7862Z" fill="white"/>
<path d="M29.1082 65.5676C28.9569 65.5676 28.8056 65.5336 28.6875 65.4653L26.6815 64.2992C26.5549 64.2255 26.4824 64.1176 26.4824 64.0032C26.4828 63.8881 26.5563 63.7797 26.6843 63.7058L29.0401 62.3456C29.2771 62.2086 29.6469 62.2094 29.8825 62.3456L31.8889 63.5116C32.018 63.5868 32.089 63.692 32.089 63.8077C32.0886 63.9239 32.0166 64.0295 31.886 64.1048L29.5299 65.4652C29.4116 65.5335 29.2599 65.5676 29.1082 65.5676ZM29.4619 62.4271C29.3417 62.4271 29.2216 62.4529 29.1319 62.5045L26.7762 63.8648C26.7063 63.9051 26.6661 63.9557 26.6661 64.0034C26.6661 64.0507 26.7055 64.1006 26.774 64.1404L28.7801 65.3064C28.9573 65.4098 29.2589 65.4093 29.4382 65.3062L31.7943 63.946C31.865 63.9052 31.9055 63.8548 31.9055 63.8074C31.9055 63.7606 31.8657 63.7108 31.7965 63.6706L29.79 62.5046C29.7014 62.4529 29.5816 62.4271 29.4619 62.4271Z" fill="#373B42"/>
<path d="M25.9761 73.2598C25.7693 73.3792 25.7683 73.5749 25.9736 73.6942L27.98 74.8602C28.1854 74.9796 28.5232 74.9796 28.73 74.8602L31.086 73.4999C31.2946 73.3794 31.2939 73.1848 31.0885 73.0655L29.0822 71.8995C28.8768 71.7801 28.5408 71.7791 28.3322 71.8995L25.9761 73.2598Z" fill="white"/>
<path d="M28.3547 75.0426C28.2033 75.0426 28.052 75.0083 27.934 74.94L25.9276 73.7739C25.801 73.7003 25.7285 73.5923 25.7285 73.4779C25.7289 73.3628 25.8024 73.2545 25.9304 73.1806L28.2865 71.8204C28.5236 71.6834 28.893 71.6838 29.1286 71.8204L31.135 72.9865C31.2637 73.0614 31.3347 73.1665 31.3347 73.2825C31.3344 73.3991 31.2627 73.5045 31.1321 73.5798L28.776 74.9401C28.6577 75.0083 28.506 75.0426 28.3547 75.0426ZM28.7079 71.9018C28.5878 71.9018 28.4676 71.9276 28.3783 71.9793L26.0222 73.3395C25.9523 73.3799 25.9121 73.4304 25.9121 73.4781C25.9121 73.5254 25.9516 73.5753 26.0201 73.6151L28.0265 74.7811C28.2036 74.8844 28.5049 74.8844 28.6842 74.7811L31.0403 73.4207C31.1106 73.3802 31.1507 73.3296 31.1511 73.2823C31.1511 73.2351 31.1117 73.1853 31.0428 73.1453L29.036 71.9792C28.9474 71.9276 28.8276 71.9018 28.7079 71.9018Z" fill="#373B42"/>
<path d="M30.2554 70.7901C30.0486 70.9094 30.0476 71.1052 30.2529 71.2245L32.2593 72.3905C32.4647 72.5099 32.8025 72.5098 33.0093 72.3905L35.3653 71.0302C35.574 70.9097 35.5732 70.7151 35.3678 70.5958L33.3615 69.4298C33.1561 69.3104 32.8201 69.3093 32.6115 69.4298L30.2554 70.7901Z" fill="white"/>
<path d="M32.6356 72.5725C32.4842 72.5725 32.3329 72.5385 32.2153 72.4701L30.2088 71.3041C30.0822 71.2304 30.0098 71.1224 30.0098 71.008C30.0098 70.8929 30.0833 70.7846 30.2113 70.7107L32.5674 69.3505C32.8045 69.2135 33.1742 69.2143 33.4098 69.3505L35.4162 70.5164C35.545 70.5915 35.6156 70.6966 35.6156 70.8126C35.6152 70.9289 35.5435 71.0344 35.4134 71.1097L33.0573 72.4699C32.939 72.5385 32.7872 72.5725 32.6356 72.5725ZM30.3031 70.8697C30.2335 70.91 30.1934 70.9605 30.1934 71.0082C30.1934 71.0556 30.2324 71.1054 30.3013 71.1453L32.3074 72.3113C32.4849 72.4148 32.7865 72.4142 32.9654 72.3112L35.3215 70.951C35.3915 70.9104 35.432 70.8599 35.432 70.8124C35.432 70.7654 35.3925 70.7154 35.3237 70.6752L33.3172 69.5095C33.1397 69.4061 32.8381 69.4064 32.6592 69.5095L30.3031 70.8697Z" fill="#373B42"/>
<path d="M34.5347 68.3199C34.3279 68.4393 34.3268 68.635 34.5322 68.7543L36.5386 69.9203C36.744 70.0397 37.0818 70.0397 37.2886 69.9203L48.201 63.62C48.4096 63.4996 48.4089 63.305 48.2035 63.1856L46.1972 62.0196C45.9918 61.9002 45.6558 61.8992 45.4472 62.0196L34.5347 68.3199Z" fill="white"/>
<path d="M36.9133 70.1025C36.7616 70.1025 36.6102 70.0683 36.4922 70L34.4862 68.8341C34.3596 68.7604 34.2871 68.6525 34.2871 68.5379C34.2875 68.4228 34.3606 68.3145 34.4887 68.2408L45.4013 61.9405C45.6384 61.8035 46.0077 61.8039 46.2433 61.9405L48.2498 63.1065C48.3785 63.1815 48.4495 63.2866 48.4495 63.4026C48.4491 63.5191 48.3774 63.6245 48.2469 63.6999L37.3346 70C37.2163 70.0684 37.0646 70.1025 36.9133 70.1025ZM34.5805 68.3997C34.5109 68.44 34.4707 68.4904 34.4707 68.5383C34.4707 68.5854 34.5098 68.6354 34.5787 68.6753L36.5847 69.8411C36.7622 69.9446 37.0638 69.9444 37.2428 69.8411L48.155 63.5408C48.2254 63.5002 48.2655 63.4497 48.2658 63.4024C48.2658 63.3552 48.2264 63.3054 48.1575 63.2653L46.1507 62.0993C45.9732 61.9958 45.6712 61.9962 45.493 62.0993L34.5805 68.3997Z" fill="#373B42"/>
<path d="M34.9097 63.583C34.703 63.7024 34.7018 63.8981 34.9072 64.0175L36.9135 65.1834C37.1208 65.3039 37.4568 65.3028 37.6636 65.1834L40.0196 63.8231C40.2282 63.7027 40.2293 63.5091 40.022 63.3887L38.0157 62.2227C37.8103 62.1034 37.4743 62.1023 37.2657 62.2227L34.9097 63.583Z" fill="white"/>
<path d="M37.2883 65.3649C37.1366 65.3649 36.9852 65.3307 36.8676 65.262L34.8612 64.0963C34.7346 64.0226 34.6621 63.9147 34.6621 63.8003C34.6625 63.6852 34.736 63.5769 34.864 63.503L37.2201 62.1427C37.4568 62.0057 37.8266 62.0059 38.0618 62.1426L40.0686 63.3086C40.198 63.3839 40.2691 63.489 40.2691 63.6047C40.2687 63.7209 40.1967 63.8265 40.0657 63.902L37.7096 65.2622C37.5913 65.3307 37.4396 65.3649 37.2883 65.3649ZM37.6415 62.2242C37.5218 62.2242 37.4016 62.25 37.312 62.3017L34.9559 63.6619C34.8859 63.7022 34.8458 63.7528 34.8458 63.8005C34.8458 63.8478 34.8852 63.8977 34.9537 63.9375L36.9601 65.1033C37.1373 65.207 37.4385 65.2066 37.6178 65.1033L39.9739 63.7431C40.0446 63.7022 40.0851 63.6516 40.0855 63.6045C40.0855 63.5577 40.0457 63.5078 39.9761 63.4675L37.9697 62.3015C37.8811 62.2498 37.7613 62.2242 37.6415 62.2242Z" fill="#373B42"/>
<path d="M30.6363 66.0528C30.4295 66.1722 30.4284 66.3678 30.6338 66.4872L32.6401 67.6532C32.8474 67.7736 33.1834 67.7725 33.3901 67.6532L35.7462 66.2929C35.9548 66.1724 35.9559 65.9789 35.7486 65.8584L33.7423 64.6925C33.5369 64.5731 33.2009 64.572 32.9923 64.6925L30.6363 66.0528Z" fill="white"/>
<path d="M33.0152 67.8352C32.8635 67.8352 32.7122 67.8011 32.5942 67.7327L30.5877 66.5668C30.4611 66.4931 30.3887 66.3852 30.3887 66.2708C30.389 66.1556 30.4625 66.0474 30.5906 65.9735L32.9467 64.6132C33.1834 64.4766 33.5528 64.4766 33.7887 64.6132L35.7952 65.7791C35.9246 65.8544 35.9956 65.9597 35.9956 66.0753C35.9953 66.1915 35.9232 66.2971 35.7923 66.3726L33.4362 67.7328C33.3179 67.8011 33.1666 67.8352 33.0152 67.8352ZM33.3681 64.6946C33.2482 64.6946 33.1281 64.7205 33.0385 64.7721L30.6824 66.1323C30.6124 66.1726 30.5723 66.2232 30.5723 66.2709C30.5723 66.3182 30.6117 66.3681 30.6802 66.4079L32.6867 67.5738C32.8634 67.6769 33.1654 67.6774 33.3443 67.5739L35.7004 66.2135C35.7711 66.1726 35.8116 66.1222 35.812 66.0749C35.812 66.0281 35.7722 65.9782 35.7026 65.9379L33.6962 64.772C33.6076 64.7205 33.4879 64.6946 33.3681 64.6946Z" fill="#373B42"/>
<path d="M39.1916 61.1122C38.9831 61.2326 38.9838 61.4273 39.1892 61.5466L41.1955 62.7126C41.4028 62.833 41.7369 62.833 41.9456 62.7126L44.2998 61.3534C44.5083 61.233 44.5095 61.0394 44.3022 60.919L42.2959 59.753C42.0904 59.6336 41.7544 59.6326 41.5459 59.753L39.1916 61.1122Z" fill="white"/>
<path d="M41.5702 62.8939C41.4185 62.8939 41.2672 62.8596 41.1492 62.7913L39.1431 61.6253C39.0144 61.5503 38.9434 61.4452 38.9434 61.3292C38.9437 61.2129 39.0155 61.1073 39.146 61.0321L41.4999 59.6728C41.7362 59.5363 42.1067 59.536 42.3423 59.6728L44.3484 60.8389C44.4775 60.914 44.5488 61.0191 44.5488 61.1347C44.5485 61.2511 44.4768 61.3567 44.3459 61.4322L41.9916 62.7913C41.8732 62.8599 41.7216 62.8939 41.5702 62.8939ZM41.9217 59.7543C41.8016 59.7543 41.6814 59.7801 41.5918 59.8319L39.2378 61.1911V61.1912C39.1675 61.2316 39.1274 61.2821 39.127 61.3295C39.127 61.3766 39.1665 61.4264 39.2353 61.4665L41.2418 62.6325C41.4189 62.7358 41.7205 62.7358 41.8998 62.6325L44.2541 61.2733C44.3247 61.2325 44.3653 61.1819 44.3653 61.1346C44.3653 61.0879 44.3255 61.0379 44.2559 60.9978L42.2499 59.8318C42.1612 59.78 42.0414 59.7543 41.9217 59.7543Z" fill="#373B42"/>
<path d="M35.2932 58.8446C35.0846 58.9651 35.0853 59.1597 35.2907 59.2791L37.2971 60.445C37.5043 60.5655 37.8385 60.5655 38.0471 60.445L40.4013 59.0858C40.6099 58.9654 40.611 58.7718 40.4037 58.6514L38.3974 57.4854C38.192 57.3661 37.856 57.365 37.6474 57.4854L35.2932 58.8446Z" fill="white"/>
<path d="M37.6714 60.627C37.52 60.627 37.3687 60.593 37.2507 60.5245L35.2443 59.3586C35.1156 59.2835 35.0446 59.1783 35.0449 59.0622C35.0449 58.9458 35.117 58.8404 35.2472 58.7653L37.6015 57.4061C37.8389 57.2695 38.2086 57.2697 38.4432 57.406L40.45 58.572C40.5794 58.6473 40.6505 58.7523 40.6505 58.868C40.6501 58.9842 40.578 59.0898 40.4471 59.1653L38.0928 60.5245C37.9744 60.5929 37.8231 60.627 37.6714 60.627ZM35.2931 58.8447L35.339 58.9241C35.2687 58.9646 35.2286 59.0152 35.2286 59.0625C35.2286 59.1097 35.268 59.1597 35.3369 59.1999L37.3433 60.3655C37.5208 60.469 37.8221 60.4687 38.001 60.3655L40.3553 59.0064C40.4259 58.9655 40.4665 58.915 40.4669 58.8678C40.4669 58.821 40.4271 58.7712 40.3575 58.7308L38.3511 57.5647C38.1732 57.4614 37.8719 57.4618 37.6934 57.5649L35.3391 58.924L35.2931 58.8447Z" fill="#373B42"/>
<path d="M31.0093 61.3155C30.8026 61.4348 30.8014 61.6305 31.0068 61.7499L33.0132 62.9159C33.2204 63.0363 33.5564 63.0352 33.7632 62.9159L36.1192 61.5556C36.3278 61.4351 36.3289 61.2416 36.1217 61.1211L34.1153 59.9552C33.9099 59.8358 33.574 59.8347 33.3653 59.9552L31.0093 61.3155Z" fill="white"/>
<path d="M33.3879 63.0979C33.2362 63.0979 33.0849 63.0636 32.9668 62.9953L30.9604 61.8295C30.8342 61.7558 30.7617 61.6478 30.7617 61.5334C30.7617 61.4183 30.8353 61.31 30.9633 61.2361L33.3194 59.8759C33.5568 59.7389 33.9265 59.7396 34.1618 59.8759L36.1678 61.0418C36.2973 61.1171 36.3683 61.2223 36.3683 61.338C36.3679 61.4542 36.2959 61.5598 36.165 61.6353L33.8092 62.9955C33.6909 63.0638 33.5392 63.0979 33.3879 63.0979ZM31.0551 61.395C30.9856 61.4353 30.9454 61.4859 30.9454 61.5336C30.9454 61.5809 30.9844 61.6308 31.0529 61.6708L33.0594 62.8364C33.2362 62.9396 33.5378 62.9399 33.7174 62.8364L36.0732 61.4762C36.1438 61.4353 36.1843 61.3849 36.1847 61.3376C36.1847 61.2908 36.1449 61.241 36.0753 61.2006L34.0693 60.0347C33.8918 59.9313 33.5902 59.9317 33.4112 60.0347L31.0551 61.395Z" fill="#373B42"/>
<path d="M55.9299 55.9687C55.7213 56.0891 55.7221 56.2838 55.9275 56.4031L57.9338 57.569C58.1392 57.6884 58.4752 57.6895 58.6838 57.569L61.038 56.2098C61.2466 56.0894 61.2459 55.8948 61.0405 55.7754L59.0342 54.6095C58.8288 54.4901 58.4927 54.489 58.2842 54.6095L55.9299 55.9687Z" fill="white"/>
<path d="M58.3081 57.7513C58.1568 57.7513 58.0055 57.717 57.8875 57.6488L55.881 56.4827C55.7523 56.4078 55.6816 56.3027 55.6816 56.1867C55.6816 56.0703 55.7537 55.9647 55.8839 55.8894L58.2382 54.5303C58.4756 54.3932 58.8457 54.3938 59.0803 54.5304L61.0867 55.6963C61.2154 55.7712 61.2864 55.8763 61.2864 55.9923C61.2861 56.1089 61.2143 56.2143 61.0838 56.2896L58.7295 57.6488C58.6111 57.7171 58.4594 57.7513 58.3081 57.7513ZM55.9757 56.0483C55.9054 56.089 55.8652 56.1394 55.8652 56.1869C55.8652 56.234 55.9047 56.2838 55.9735 56.3239L57.98 57.4899C58.1575 57.5934 58.4587 57.5931 58.6377 57.4899L60.992 56.1306C61.0623 56.0901 61.1024 56.0395 61.1028 55.9921C61.1028 55.945 61.0633 55.8952 60.9945 55.8551L58.9877 54.6891C58.8105 54.5858 58.5093 54.5858 58.33 54.6891L55.9757 56.0483Z" fill="#373B42"/>
<path d="M51.6487 58.4384C51.4401 58.5588 51.4408 58.7535 51.6462 58.8728L53.6526 60.0388C53.858 60.1582 54.1939 60.1592 54.4026 60.0388L56.7568 58.6796C56.9654 58.5591 56.9647 58.3645 56.7593 58.2452L54.7529 57.0792C54.5475 56.9598 54.2115 56.9588 54.0029 57.0792L51.6487 58.4384Z" fill="white"/>
<path d="M54.0272 60.2209C53.8756 60.2209 53.7242 60.1867 53.6062 60.1184L51.6001 58.9524C51.4714 58.8774 51.4004 58.7723 51.4004 58.6563C51.4008 58.5399 51.4725 58.4343 51.6027 58.3592L53.957 56.9999C54.1944 56.8632 54.5645 56.8634 54.799 56.9999L56.8054 58.1659C56.9342 58.2409 57.0052 58.3461 57.0052 58.4621C57.0048 58.5785 56.9331 58.6841 56.8026 58.7592L54.4486 60.1184C54.3303 60.1868 54.1786 60.2209 54.0272 60.2209ZM51.6945 58.518C51.6245 58.5586 51.584 58.6089 51.584 58.6565C51.584 58.7036 51.6235 58.7535 51.6924 58.7935L53.6988 59.9595C53.8759 60.063 54.1775 60.0627 54.3568 59.9595L56.7108 58.6004C56.7811 58.5597 56.8212 58.5093 56.8216 58.4618C56.8216 58.4148 56.7822 58.3648 56.713 58.3248L54.7069 57.1588C54.5294 57.0553 54.2278 57.0559 54.0488 57.1589L51.6945 58.518Z" fill="#373B42"/>
<path d="M14.1089 33.3798C13.2043 33.9022 12.4717 35.1711 12.4746 36.2106L12.5459 66.6616C12.5489 67.7011 13.2863 68.1213 14.1909 67.599L48.5401 47.7675C49.4471 47.2438 50.1774 45.9763 50.1744 44.9368L50.1031 14.4858C50.1001 13.4463 49.3652 13.0247 48.4581 13.5483L14.1089 33.3798Z" fill="#373B42"/>
<path d="M13.4558 67.9161C13.2833 67.9161 13.1234 67.8755 12.9814 67.7938C12.6428 67.5989 12.4556 67.1969 12.4542 66.6618L12.3828 36.2108C12.3796 35.1428 13.1334 33.8371 14.0629 33.3005L48.4121 13.4689C48.8808 13.1978 49.3265 13.1562 49.6676 13.3527C50.0061 13.5474 50.1933 13.9498 50.1948 14.4856L50.2661 44.9367C50.269 46.0048 49.5155 47.3103 48.586 47.847L14.2368 67.6783C13.9633 67.8363 13.6975 67.9161 13.4558 67.9161ZM49.1936 13.4145C48.9841 13.4145 48.7492 13.4861 48.504 13.6277L14.1547 33.4593C13.2758 33.9667 12.5632 35.2009 12.5664 36.2102L12.6378 66.6615C12.6392 67.1282 12.7938 67.4739 13.0732 67.6347C13.3547 67.7965 13.7352 67.7561 14.145 67.5194L48.4942 47.688C49.3728 47.1806 50.0854 45.9464 50.0825 44.9369L50.0112 14.4858C50.0097 14.0184 49.8552 13.6725 49.5762 13.5117C49.4632 13.4468 49.3341 13.4145 49.1936 13.4145Z" fill="#373B42"/>
<path d="M19.1289 63.402L45.0608 48.332C45.7154 48.71 46.2444 49.6268 46.2423 50.3796L20.3104 65.4496C20.3125 64.6967 19.7836 63.7799 19.1289 63.402Z" fill="#FFF7E4"/>
<path d="M20.3121 65.5415C20.2963 65.5415 20.2806 65.5373 20.2662 65.5291C20.2379 65.5128 20.2203 65.4823 20.2203 65.4494C20.2225 64.727 19.7129 63.8441 19.085 63.4814C19.0566 63.4651 19.0391 63.4347 19.0391 63.4021C19.0391 63.3693 19.0563 63.339 19.0846 63.3225L45.0164 48.2526C45.0451 48.2361 45.0798 48.2361 45.1085 48.2526C45.7874 48.6446 46.3379 49.5988 46.3361 50.3798C46.3361 50.4124 46.3185 50.4426 46.2905 50.459L20.3584 65.5291C20.344 65.5373 20.3279 65.5415 20.3121 65.5415ZM19.3073 63.4057C19.8814 63.8073 20.3376 64.5979 20.3975 65.294L46.1517 50.3272C46.1302 49.6326 45.654 48.8074 45.0619 48.4387L19.3073 63.4057Z" fill="#373B42"/>
<path d="M19.1308 63.4014C19.7855 63.7794 20.3145 64.6961 20.3123 65.4489L19.127 64.7646L19.1308 63.4014Z" fill="#FFF7E4"/>
<path d="M20.3122 65.5408C20.2964 65.5408 20.2806 65.5367 20.2663 65.5284L19.0811 64.844C19.0527 64.8277 19.0352 64.7972 19.0352 64.7644L19.0391 63.4011C19.0391 63.3683 19.0567 63.338 19.085 63.3217C19.1137 63.3056 19.1481 63.3054 19.1768 63.3219C19.8557 63.7138 20.4062 64.6683 20.404 65.4492C20.404 65.482 20.3864 65.5123 20.3581 65.5286C20.3437 65.5367 20.328 65.5408 20.3122 65.5408ZM19.2188 64.7117L20.2125 65.2854C20.1516 64.653 19.7406 63.9408 19.2224 63.5695L19.2188 64.7117Z" fill="#373B42"/>
<path d="M13.4591 65.6058C13.3017 65.6058 13.2886 65.2807 13.2883 65.1812L13.2168 36.2088C13.2146 35.4334 13.8056 34.4107 14.4814 34.0204L48.8306 14.189C49.0277 14.0753 49.1527 14.063 49.197 14.063C49.3573 14.063 49.3663 14.4172 49.3667 14.488L49.4378 43.4607C49.44 44.2363 48.849 45.2588 48.1731 45.6489L13.824 65.4803C13.628 65.5935 13.5035 65.6058 13.4591 65.6058Z" fill="#FFF7E4"/>
<path d="M13.4593 65.6971C13.2911 65.6971 13.1979 65.5138 13.1967 65.1811L13.125 36.2084C13.1228 35.4048 13.7354 34.3447 14.4358 33.9403L48.7849 14.1089C48.9933 13.9886 49.1324 13.9707 49.197 13.9707C49.3616 13.9707 49.4569 14.1588 49.4587 14.4869L49.5297 43.4599C49.5319 44.2636 48.9198 45.3235 48.2194 45.7279L13.8702 65.5593C13.6622 65.6792 13.5235 65.6971 13.4593 65.6971ZM49.197 14.1544C49.1679 14.1544 49.0593 14.1626 48.8768 14.2679L14.5276 34.0993C13.8764 34.4754 13.3065 35.4609 13.3087 36.2081L13.3804 65.1806C13.3811 65.4022 13.4313 65.5136 13.4593 65.5136C13.488 65.5136 13.5963 65.5053 13.7784 65.4002L48.1276 45.569C48.7788 45.1928 49.3483 44.2075 49.3462 43.4603L49.2752 14.4877C49.2741 14.2809 49.2239 14.1544 49.197 14.1544Z" fill="#373B42"/>
<path d="M49.4391 43.4603C49.4391 44.2349 48.8493 45.2588 48.1745 45.6461L13.8241 65.4795C13.6275 65.5909 13.5043 65.6057 13.4602 65.6057C13.3019 65.6057 13.2872 65.28 13.2872 65.1802L13.2255 38.9701L13.2168 36.2063C13.2138 35.4317 13.8065 34.4078 14.4813 34.0176L48.8318 14.1872C49.0283 14.0728 49.1515 14.061 49.1955 14.061C49.3568 14.061 49.3657 14.4161 49.3657 14.4865L49.3775 18.0981L49.4391 43.4603Z" fill="#FFF7E4"/>
<path d="M13.4603 65.6974C13.2921 65.6974 13.1957 65.509 13.1957 65.1803L13.125 36.2068C13.1222 35.4037 13.7347 34.3436 14.4358 33.9383L48.786 14.1078C48.993 13.9873 49.1314 13.9692 49.1956 13.9692C49.4323 13.9692 49.4578 14.3311 49.4578 14.4865L49.4696 18.0978L49.5313 43.4603V43.4604C49.5313 44.2664 48.9188 45.3251 48.2202 45.7258L13.8702 65.559C13.65 65.684 13.5102 65.6974 13.4603 65.6974ZM49.1955 14.1528C49.1668 14.1528 49.0593 14.1611 48.8782 14.2665L14.5276 34.0972C13.8756 34.4743 13.3057 35.4598 13.3086 36.206L13.3176 38.9699L13.3792 65.1801C13.3792 65.3838 13.4273 65.5138 13.4603 65.5138C13.48 65.5138 13.5876 65.5082 13.7791 65.3998L48.1286 45.5668C48.7781 45.194 49.3476 44.21 49.3476 43.4607L49.274 14.4869C49.2741 14.2796 49.2232 14.1528 49.1955 14.1528Z" fill="#373B42"/>
<path d="M13.0212 67.8026C13.0054 67.8026 12.9896 67.7987 12.9753 67.7903L12.9749 67.7901C12.9746 67.7899 12.9746 67.7899 12.9742 67.7897L10.4295 66.3135C10.0945 66.1155 9.91053 65.714 9.91053 65.1824L9.83594 34.731C9.83594 34.246 9.99375 33.6889 10.2806 33.1622C10.603 32.5792 11.0337 32.1077 11.4931 31.8344C11.5064 31.8262 11.5129 31.8223 11.5211 31.8181L45.8652 11.9887C46.3332 11.7185 46.7804 11.6783 47.1222 11.8747L49.6619 13.3522C49.6641 13.3535 49.6662 13.3545 49.6684 13.3558L49.6687 13.3559C49.6687 13.3561 49.6687 13.3561 49.6691 13.3563C49.7125 13.3819 49.7272 13.4381 49.7018 13.4818C49.6756 13.5254 49.6203 13.5399 49.5762 13.5148L49.5694 13.5107C49.2882 13.3493 48.9081 13.3907 48.499 13.6287L14.1541 33.4608C13.6947 33.7298 13.2855 34.1761 12.9882 34.7263C12.7117 35.234 12.5615 35.7611 12.5654 36.2111V36.4616L12.6353 66.6633C12.6353 67.1243 12.7881 67.4676 13.0657 67.6304L13.0671 67.6313C13.0675 67.6313 13.0675 67.6315 13.0675 67.6315C13.1113 67.6569 13.1259 67.7131 13.1005 67.7569C13.0836 67.7863 13.0528 67.8026 13.0212 67.8026ZM46.6449 11.9358C46.4355 11.9358 46.2013 12.0068 45.9571 12.1477L11.6079 31.9797C11.596 31.9872 11.5893 31.9917 11.58 31.9962C11.155 32.2491 10.7483 32.6961 10.4417 33.2507C10.1695 33.7502 10.0196 34.2761 10.0196 34.731V35.0552L10.0942 65.1823C10.0942 65.6465 10.2462 65.9918 10.522 66.155L12.5876 67.3531C12.4983 67.162 12.4517 66.9291 12.4517 66.6635L12.3818 36.2119C12.3775 35.7321 12.5356 35.173 12.8268 34.6389C13.1391 34.0606 13.572 33.5896 14.0461 33.3123C14.0511 33.3087 14.0565 33.3055 14.0608 33.3034L48.4067 13.4698C48.6452 13.331 48.878 13.2521 49.0938 13.234L47.0304 12.0338C46.9164 11.9683 46.7862 11.9358 46.6449 11.9358Z" fill="#373B42"/>
<path d="M12.4824 40.4383C12.4666 40.4383 12.4508 40.4344 12.4361 40.4258L9.88922 38.9397C9.84549 38.9142 9.83077 38.858 9.85623 38.8142C9.88133 38.7705 9.93766 38.7554 9.98175 38.7812L12.5287 40.2673C12.5724 40.2928 12.5871 40.349 12.5616 40.3928C12.5448 40.422 12.5139 40.4383 12.4824 40.4383Z" fill="#373B42"/>
<path d="M12.5413 64.7272C12.5255 64.7272 12.5097 64.7232 12.4954 64.7148L9.95207 63.2398C9.90797 63.2144 9.89326 63.1582 9.91872 63.1143C9.94381 63.07 10.0008 63.0553 10.0439 63.0809L12.5872 64.5559C12.6313 64.5814 12.646 64.6375 12.6205 64.6814C12.6036 64.7109 12.5728 64.7272 12.5413 64.7272Z" fill="#373B42"/>
<path d="M41.9988 69.689C41.3964 70.0367 41.3932 70.6 41.9917 70.9478L47.3615 74.0684C47.96 74.4161 48.9324 74.4162 49.5348 74.0684L59.595 68.2601C60.2007 67.9104 60.2038 67.3471 59.6054 66.9993L54.2356 63.8788C53.6371 63.531 52.6647 63.531 52.059 63.8806L41.9988 69.689Z" fill="white"/>
<path d="M48.4469 74.42C48.0366 74.42 47.6271 74.3295 47.3154 74.1485L41.9455 71.0281C41.6278 70.8432 41.4528 70.592 41.4531 70.321C41.4539 70.0485 41.6314 69.796 41.953 69.6103L52.0132 63.802C52.6422 63.4389 53.6593 63.4385 54.2818 63.8002L59.6517 66.9206C59.9695 67.1053 60.1441 67.3562 60.1438 67.6268C60.1434 67.9 59.9648 68.1534 59.641 68.3402L49.5808 74.1485C49.2677 74.3295 48.8571 74.42 48.4469 74.42ZM42.0449 69.7691C41.782 69.9208 41.6371 70.117 41.6368 70.3214C41.6368 70.524 41.7791 70.7187 42.0381 70.8692L47.408 73.9897C47.9796 74.3221 48.913 74.3217 49.489 73.9897L59.5492 68.1814C59.8138 68.0286 59.9598 67.8315 59.9602 67.6266C59.9605 67.4242 59.8182 67.2298 59.5592 67.0795L54.1893 63.9591C53.6181 63.6266 52.6828 63.6275 52.1051 63.9609L42.0449 69.7691Z" fill="#373B42"/>
<path d="M74.241 64.5805C74.2448 64.9243 74.0193 65.268 73.5609 65.5305L39.211 85.3634C39.0668 85.4484 38.9079 85.5149 38.7415 85.5705C38.3607 85.6998 37.9281 85.759 37.4957 85.7516H37.492C37.078 85.7442 36.6713 85.674 36.3164 85.5409C36.1833 85.4891 36.0577 85.4299 35.943 85.3634L14.1915 72.7243C13.7442 72.4618 13.5187 72.1217 13.5187 71.778L13.5039 68.5544C13.5076 68.8908 13.733 69.2309 14.1767 69.4934L35.9282 82.1325C36.0465 82.2027 36.176 82.2619 36.3164 82.3137C36.6712 82.4468 37.0816 82.517 37.4919 82.5244V82.5207C37.9245 82.5281 38.3607 82.469 38.7415 82.3359C38.9041 82.2804 39.0593 82.2139 39.1999 82.1326L73.5498 62.2997C74.0008 62.0409 74.23 61.6896 74.23 61.3496L74.241 64.5805Z" fill="#978050"/>
<path d="M15.4219 73.5294C15.3713 73.5294 15.3301 73.4883 15.3301 73.4376V70.2178C15.3301 70.1671 15.3713 70.126 15.4219 70.126C15.4724 70.126 15.5137 70.1671 15.5137 70.2178V73.4376C15.5137 73.4883 15.4724 73.5294 15.4219 73.5294Z" fill="#373B42"/>
<path d="M40.6094 84.6485C40.5588 84.6485 40.5176 84.6074 40.5176 84.5567V81.3184C40.5176 81.2676 40.5588 81.2266 40.6094 81.2266C40.6599 81.2266 40.7012 81.2676 40.7012 81.3184V84.5567C40.7012 84.6074 40.6599 84.6485 40.6094 84.6485Z" fill="#373B42"/>
<path d="M71.7383 66.6758C71.6877 66.6758 71.6465 66.6347 71.6465 66.584V63.3457C71.6465 63.295 71.6877 63.2539 71.7383 63.2539C71.7888 63.2539 71.8301 63.295 71.8301 63.3457V66.584C71.8301 66.6347 71.7888 66.6758 71.7383 66.6758Z" fill="#373B42"/>
<path d="M38.7415 82.3357V85.5703C38.3607 85.6996 37.9281 85.7588 37.4957 85.7515H37.4919C37.078 85.7441 36.6713 85.6739 36.3164 85.5407V82.3135C36.6713 82.4466 37.0817 82.5168 37.4919 82.5242V82.5205C37.9245 82.5279 38.3607 82.4688 38.7415 82.3357Z" fill="#978050"/>
<path d="M37.5727 85.8441C37.5464 85.8441 37.5203 85.8439 37.4938 85.8434C36.8831 85.8313 36.3172 85.6891 35.8969 85.4428L14.1451 72.8038C13.6822 72.5319 13.4272 72.1678 13.4272 71.778L13.4121 68.5549C13.4117 68.504 13.462 68.4557 13.5039 68.4627C13.5541 68.4627 13.595 68.5031 13.5957 68.5535C13.5993 68.8715 13.8223 69.1773 14.2233 69.4143L35.9747 82.0531C36.3706 82.2834 36.901 82.4175 37.4698 82.432C37.4773 82.4299 37.4744 82.4304 37.4938 82.4288C38.1289 82.443 38.7153 82.307 39.1542 82.0531L73.5037 62.2202C73.9068 61.9889 74.1381 61.6716 74.1381 61.3496C74.1381 61.2991 74.179 61.2578 74.2299 61.2578C74.2805 61.2578 74.3217 61.2987 74.3217 61.3492L74.3328 64.5795C74.3375 64.9734 74.0793 65.3395 73.6063 65.6101L39.2567 85.4429C38.8113 85.7026 38.2156 85.8441 37.5727 85.8441ZM13.5982 69.1029L13.6107 71.7776C13.6107 72.1 13.8335 72.4081 14.238 72.6451L35.9894 85.2841C36.3832 85.515 36.9175 85.6484 37.4938 85.6598C38.1275 85.6736 38.7292 85.5378 39.1646 85.2843L73.5149 65.4511C73.9277 65.2148 74.1529 64.906 74.1493 64.5817C74.1493 64.5815 74.1493 64.5811 74.1493 64.581L74.14 61.8992C74.0159 62.0796 73.8315 62.2439 73.5952 62.3793L39.246 82.2121C38.7841 82.4787 38.1663 82.6144 37.515 82.6128C37.5071 82.6152 37.4992 82.6161 37.4903 82.6162C36.8817 82.6044 36.3108 82.4607 35.8822 82.2121L14.1305 69.5729C13.8994 69.436 13.7201 69.2766 13.5982 69.1029Z" fill="#373B42"/>
<path d="M17.8424 72.4071C17.9192 72.4514 17.982 72.5602 17.9817 72.6499L17.9795 73.6086C17.9793 73.6984 17.9161 73.7329 17.8392 73.6885L17.7284 73.6245L17.7278 73.8886C17.7275 73.9783 17.6644 74.0144 17.5875 73.97L16.9262 73.5882C16.8493 73.5438 16.7865 73.435 16.7868 73.3453L16.7874 73.0812L16.6765 73.0172C16.5996 72.9729 16.5368 72.8656 16.5371 72.7759L16.5393 71.8172C16.5396 71.7274 16.6028 71.6914 16.6796 71.7358L17.8424 72.4071Z" fill="#373B42"/>
<path d="M46.3574 14.8539C46.3416 14.8539 46.3258 14.8499 46.3111 14.8415L43.7642 13.3628C43.7205 13.3373 43.7058 13.281 43.7312 13.2373C43.7563 13.193 43.8123 13.1784 43.8568 13.2039L46.4037 14.6826C46.4474 14.7081 46.4621 14.7644 46.4366 14.8082C46.4198 14.8376 46.3889 14.8539 46.3574 14.8539Z" fill="#373B42"/>
<path d="M66.1192 9.38262C65.9034 9.25461 65.5998 9.27288 65.2632 9.46674L39.5165 24.224C38.8507 24.6081 38.3093 25.5409 38.3129 26.3091L38.3349 34.9934C38.3385 35.3702 38.4702 35.6409 38.6897 35.7653L36.8862 34.719C36.6667 34.591 36.5314 34.324 36.5314 33.9435L36.5059 25.2592C36.5059 24.4909 37.0436 23.5581 37.713 23.1741L63.4597 8.41683C63.7926 8.22296 64.0962 8.20465 64.3158 8.33271L66.1192 9.38262Z" fill="#978050"/>
<path d="M38.6895 35.8572C38.6741 35.8572 38.6586 35.8534 38.6443 35.8451C38.6404 35.8432 38.6368 35.841 38.6332 35.8388L36.8401 34.7985C36.5815 34.6479 36.4395 34.3443 36.4395 33.9436L36.4141 25.2593C36.4141 24.4622 36.9763 23.491 37.6674 23.0944L63.4142 8.33723C63.766 8.1323 64.1027 8.10181 64.362 8.25348L66.1572 9.29847C66.1601 9.30011 66.1626 9.3017 66.1655 9.30313V9.30329C66.1655 9.30329 66.1658 9.30345 66.1662 9.30366C66.2096 9.32928 66.2239 9.3854 66.1985 9.42897C66.1723 9.4727 66.117 9.48726 66.0729 9.46179L66.0654 9.4575C65.87 9.34633 65.6014 9.37719 65.3091 9.54629L39.562 24.3036C38.9201 24.6739 38.4008 25.5733 38.4048 26.3085L38.4266 34.9932C38.4299 35.3237 38.536 35.5675 38.7264 35.6807L38.7354 35.6859C38.7791 35.7114 38.7942 35.7671 38.7691 35.811C38.7523 35.8406 38.7214 35.8572 38.6895 35.8572ZM63.9984 8.34226C63.8492 8.34226 63.6814 8.39388 63.506 8.49611L37.7585 23.2536C37.1183 23.6211 36.5977 24.5208 36.5977 25.2592L36.6231 33.9434C36.6231 34.2762 36.7329 34.5235 36.9322 34.6398L38.3186 35.4442C38.2706 35.3148 38.2447 35.1634 38.243 34.9943L38.2211 26.3092C38.2172 25.5154 38.7777 24.5443 39.4705 24.1444L65.2176 9.38709C65.3697 9.29942 65.5182 9.24384 65.6584 9.2207L64.2695 8.41204C64.1895 8.3654 64.0981 8.34226 63.9984 8.34226Z" fill="#373B42"/>
<path d="M65.2565 9.46604C65.9221 9.08175 66.4633 9.39018 66.4655 10.1578L66.4891 18.8405C66.4912 19.6054 65.9535 20.5422 65.2879 20.9265L39.542 35.6843C38.8741 36.0699 38.3304 35.7574 38.3283 34.9926L38.3047 26.3099C38.3025 25.5423 38.8426 24.6095 39.5106 24.2239L65.2565 9.46604Z" fill="#FFF7E4"/>
<path d="M39.0008 35.9422C38.8692 35.9422 38.7469 35.9111 38.6382 35.8486C38.3804 35.7001 38.2377 35.3962 38.2366 34.9927L38.2129 26.3101C38.2107 25.5158 38.7723 24.5442 39.4648 24.1445L65.2112 9.38638C65.5637 9.18288 65.9001 9.15328 66.1572 9.3012C66.4144 9.44912 66.5564 9.75326 66.5575 10.1576L66.5811 18.8404C66.5833 19.6361 66.0238 20.6076 65.3339 21.0058L39.5879 35.7639C39.3827 35.8824 39.183 35.9422 39.0008 35.9422ZM65.7968 9.39215C65.6473 9.39215 65.4791 9.44361 65.3027 9.54547C65.3027 9.54562 65.3027 9.54563 65.3023 9.54563L39.5563 24.3035C38.9147 24.674 38.3944 25.5739 38.3965 26.3098L38.4202 34.9924C38.4212 35.3275 38.531 35.5752 38.73 35.6896C38.9301 35.8043 39.2023 35.7744 39.4964 35.6049L65.2424 20.8469C65.8811 20.478 66.3996 19.5781 66.3975 18.8408L66.3738 10.158C66.3728 9.82197 66.2634 9.57416 66.0658 9.4605C65.9866 9.4147 65.8958 9.39215 65.7968 9.39215Z" fill="#373B42"/>
<path d="M43.1173 29.2434C44.2162 28.6083 45.1995 28.6219 45.8446 29.1625C45.2046 30.4424 44.2247 31.5908 43.1257 32.2259C42.0268 32.861 41.0435 32.8474 40.3984 32.3101C41.0384 31.0269 42.0183 29.8786 43.1173 29.2434Z" fill="#FFBE2E"/>
<path d="M43.1073 25.8067C43.7899 25.4122 44.3454 25.7275 44.3476 26.5143C44.3499 27.2994 43.7979 28.2564 43.1153 28.6509C42.4328 29.0453 41.8772 28.7284 41.875 27.9433C41.8728 27.1565 42.4247 26.2011 43.1073 25.8067Z" fill="#FFBE2E"/>
<path d="M41.5406 32.8007C41.082 32.8007 40.6699 32.6609 40.3335 32.3805C39.8021 31.9386 39.508 31.1701 39.5059 30.2167C39.4994 27.9603 41.0888 25.203 43.0493 24.0701C44.0201 23.5085 44.9378 23.4199 45.6331 23.8199C46.3249 24.2175 46.7076 25.048 46.7108 26.1586C46.713 27.1002 46.4318 28.1816 45.9193 29.2035C45.2444 30.5518 44.2406 31.6824 43.1652 32.3053C42.5936 32.6353 42.0395 32.8007 41.5406 32.8007ZM44.6717 23.7571C44.2045 23.7571 43.6834 23.9156 43.1412 24.229C41.2316 25.3327 39.6831 28.0185 39.6895 30.2165C39.6917 31.1144 39.9621 31.8329 40.4512 32.2394C41.091 32.7728 42.0467 32.7388 43.0734 32.1466C44.1184 31.5412 45.096 30.4385 45.7552 29.1213C46.2551 28.1245 46.5294 27.0725 46.5272 26.1591C46.5244 25.117 46.1743 24.3427 45.5418 23.9791C45.2839 23.8307 44.9902 23.7571 44.6717 23.7571Z" fill="#373B42"/>
<path d="M48.041 21.4557C48.009 21.4557 47.9782 21.4392 47.9613 21.4096C47.9363 21.3655 47.9513 21.3094 47.9954 21.2843L64.68 11.7204C64.7234 11.6948 64.7796 11.7103 64.8051 11.7543C64.8302 11.7984 64.8152 11.8545 64.771 11.8796L48.0865 21.4435C48.0722 21.4518 48.0564 21.4557 48.041 21.4557Z" fill="#373B42"/>
<path d="M48.041 23.7601C48.009 23.7601 47.9782 23.7436 47.9613 23.7141C47.9363 23.67 47.9513 23.6139 47.9954 23.5888L64.68 14.0249C64.7234 13.9996 64.7796 14.015 64.8051 14.0588C64.8302 14.1029 64.8152 14.159 64.771 14.1841L48.0865 23.748C48.0722 23.7562 48.0564 23.7601 48.041 23.7601Z" fill="#373B42"/>
<path d="M48.041 26.0639C48.009 26.0639 47.9782 26.0474 47.9613 26.0178C47.9363 25.9737 47.9513 25.9176 47.9954 25.8925L64.68 16.3288C64.7234 16.3032 64.7796 16.3187 64.8051 16.3627C64.8302 16.4068 64.8152 16.4629 64.771 16.488L48.0865 26.0517C48.0722 26.0599 48.0564 26.0639 48.041 26.0639Z" fill="#373B42"/>
<path d="M48.041 28.367C48.009 28.367 47.9782 28.3505 47.9613 28.3209C47.9363 28.2768 47.9513 28.2207 47.9954 28.1956L57.9423 22.4939C57.9861 22.4681 58.0424 22.4837 58.0675 22.5278C58.0926 22.5719 58.0776 22.628 58.0334 22.6531L48.0865 28.3548C48.0722 28.363 48.0564 28.367 48.041 28.367Z" fill="#373B42"/>
<path d="M59.31 20.7607L59.5843 21.2348L60.1921 20.986L59.7542 21.732L59.8603 22.3683L59.3145 22.354L58.7721 22.9966L58.8743 22.2401L58.4336 22.0013L59.0409 21.5485L59.31 20.7607Z" fill="#373B42"/>
<path d="M61.7553 19.3472L62.0296 19.8212L62.6374 19.5724L62.1996 20.3185L62.3056 20.9548L61.7599 20.9405L61.2175 21.583L61.3196 20.8265L60.8789 20.5877L61.4862 20.1349L61.7553 19.3472Z" fill="#373B42"/>
<path d="M64.2061 17.9355L64.4787 18.4105L65.0866 18.1617L64.6488 18.9077L64.7548 19.544L64.2106 19.5288L63.6667 20.1723L63.7687 19.4158L63.3281 19.177L63.9354 18.7241L64.2061 17.9355Z" fill="#373B42"/>
<path d="M32.6114 39.5857C32.3955 39.4577 32.092 39.476 31.7553 39.6698L6.00866 54.4271C5.34288 54.8112 4.80146 55.744 4.80511 56.5122L4.82708 65.1965C4.83073 65.5733 4.9624 65.844 5.18189 65.9684L3.37842 64.9221C3.15893 64.7941 3.02362 64.5271 3.02362 64.1466L2.99805 55.4623C2.99805 54.6941 3.53576 53.7612 4.20519 53.3772L29.9519 38.6199C30.2848 38.4261 30.5884 38.4078 30.808 38.5358L32.6114 39.5857Z" fill="#978050"/>
<path d="M5.18168 66.0592C5.16627 66.0592 5.15081 66.0555 5.13652 66.0472C5.13255 66.0453 5.129 66.0431 5.1254 66.0409L3.33231 65.0006C3.07375 64.85 2.93171 64.5464 2.93171 64.1457L2.90625 55.4614C2.90625 54.6642 3.46858 53.6931 4.15961 53.2965L29.9063 38.5393C30.2581 38.3344 30.5945 38.304 30.8542 38.4556L32.6494 39.5006C32.6523 39.5022 32.6548 39.5038 32.6577 39.5052V39.5054C32.6577 39.5054 32.658 39.5055 32.6584 39.5057C32.7018 39.5314 32.7162 39.5875 32.6906 39.6311C32.6648 39.6748 32.6089 39.6894 32.5651 39.6639L32.5576 39.6596C32.3625 39.5485 32.0939 39.5793 31.8013 39.7484L6.05419 54.5057C5.4126 54.8758 4.89336 55.7753 4.89696 56.5108L4.91883 65.1954C4.92206 65.5258 5.0282 65.7696 5.21863 65.8828L5.22758 65.888C5.27136 65.9135 5.28639 65.9692 5.2613 66.0132C5.24441 66.0428 5.2136 66.0592 5.18168 66.0592ZM30.4905 38.5444C30.3414 38.5444 30.1735 38.596 29.9981 38.6982L4.25067 53.4558C3.61057 53.8232 3.08984 54.723 3.08984 55.4613L3.11531 64.1455C3.11531 64.4783 3.22505 64.7256 3.42443 64.842L4.81083 65.6463C4.76276 65.5169 4.73698 65.3656 4.73518 65.1965L4.71331 56.5113C4.70971 55.7173 5.27025 54.746 5.9627 54.3466L31.7098 39.5892C31.8619 39.5016 32.0104 39.446 32.1505 39.4228L30.7616 38.6142C30.6817 38.5675 30.5902 38.5444 30.4905 38.5444Z" fill="#373B42"/>
<path d="M31.7486 39.6672C32.4142 39.2829 32.9555 39.5914 32.9576 40.3589L32.9812 49.0417C32.9834 49.8066 32.4457 50.7433 31.78 51.1276L6.0342 65.8854C5.36626 66.2711 4.82261 65.9586 4.82044 65.1938L4.79688 56.511C4.79471 55.7434 5.33481 54.8107 6.00275 54.425L31.7486 39.6672Z" fill="#FFF7E4"/>
<path d="M5.49257 66.1439C5.36096 66.1439 5.23867 66.1129 5.13004 66.0503C4.87222 65.9018 4.72949 65.5979 4.72838 65.1944L4.70508 56.5119C4.70291 55.7175 5.26413 54.746 5.95665 54.3462L31.703 39.5881C32.0555 39.3844 32.3916 39.355 32.6491 39.5029C32.9062 39.6508 33.0482 39.955 33.0493 40.3593L33.073 49.0421C33.0751 49.8378 32.5156 50.8093 31.8257 51.2076L6.07968 65.9656C5.87448 66.0842 5.67474 66.1439 5.49257 66.1439ZM32.2886 39.5938C32.139 39.5938 31.9708 39.6453 31.7944 39.7471C31.7944 39.7473 31.7944 39.7473 31.7941 39.7473L6.04807 54.5052C5.40686 54.8756 4.88651 55.7756 4.88868 56.5115L4.91198 65.1941C4.91304 65.5292 5.02278 65.7768 5.22183 65.8912C5.42195 66.006 5.69449 65.976 5.9882 65.8065L31.7343 51.0485C32.3729 50.6796 32.8915 49.7797 32.8894 49.0424L32.8657 40.3597C32.8646 40.0237 32.7553 39.7758 32.5576 39.6622C32.4783 39.6164 32.3876 39.5938 32.2886 39.5938Z" fill="#373B42"/>
<path d="M9.61339 59.4475C10.7123 58.8124 11.6956 58.826 12.3407 59.3666C11.7008 60.6465 10.7207 61.7949 9.62181 62.43C8.52287 63.0651 7.53961 63.0515 6.89453 62.5142C7.53447 61.231 8.51445 60.0826 9.61339 59.4475Z" fill="#FFBE2E"/>
<path d="M9.60339 56.0098C10.286 55.6153 10.8415 55.9307 10.8437 56.7174C10.846 57.5025 10.294 58.4595 9.61144 58.854C8.92888 59.2485 8.37332 58.9316 8.3711 58.1465C8.36888 57.3597 8.92088 56.4043 9.60339 56.0098Z" fill="#FFBE2E"/>
<path d="M8.04259 63.0049C7.58392 63.0049 7.17188 62.8651 6.8355 62.5846C6.30403 62.1428 6.00995 61.3743 6.00783 60.4209C6.00137 58.1645 7.59112 55.4069 9.55166 54.2743C10.5217 53.7131 11.4394 53.6237 12.1351 54.024C12.8269 54.4217 13.2095 55.2522 13.2127 56.3629C13.2149 57.3044 12.9337 58.3858 12.4213 59.4077C11.7464 60.7562 10.7426 61.887 9.66712 62.5095C9.09547 62.8394 8.5414 63.0049 8.04259 63.0049ZM11.1736 53.9612C10.7063 53.9612 10.1853 54.1197 9.64346 54.4331C7.73385 55.5366 6.18497 58.2226 6.19143 60.4206C6.1936 61.3186 6.46396 62.0371 6.95313 62.4435C7.59255 62.977 8.54897 62.9429 9.57532 62.3507C10.6203 61.7455 11.5979 60.6429 12.2571 59.3254C12.757 58.3287 13.0313 57.2766 13.0291 56.3632C13.0263 55.3211 12.6762 54.5469 12.0437 54.1832C11.7858 54.0349 11.4921 53.9612 11.1736 53.9612Z" fill="#373B42"/>
<path d="M14.5332 51.6588C14.5012 51.6588 14.4704 51.6423 14.4535 51.6127C14.4284 51.5686 14.4435 51.5125 14.4876 51.4874L31.1725 41.9235C31.2162 41.8979 31.2725 41.9134 31.2976 41.9574C31.3227 42.0015 31.3077 42.0576 31.2636 42.0827L14.5787 51.6466C14.5643 51.6548 14.5486 51.6588 14.5332 51.6588Z" fill="#373B42"/>
<path d="M14.5332 53.9623C14.5012 53.9623 14.4704 53.9458 14.4535 53.9162C14.4284 53.8721 14.4435 53.816 14.4876 53.7909L31.1725 44.2271C31.2162 44.2018 31.2725 44.217 31.2976 44.2609C31.3227 44.305 31.3077 44.3612 31.2636 44.3862L14.5787 53.9501C14.5643 53.9584 14.5486 53.9623 14.5332 53.9623Z" fill="#373B42"/>
<path d="M14.5332 56.2661C14.5012 56.2661 14.4704 56.2495 14.4535 56.22C14.4284 56.1759 14.4435 56.1198 14.4876 56.0947L31.1725 46.5309C31.2162 46.5053 31.2725 46.5209 31.2976 46.5648C31.3227 46.6089 31.3077 46.665 31.2636 46.6902L14.5787 56.2539C14.5643 56.2621 14.5486 56.2661 14.5332 56.2661Z" fill="#373B42"/>
<path d="M14.5332 58.5698C14.5012 58.5698 14.4704 58.5533 14.4535 58.5237C14.4284 58.4796 14.4435 58.4235 14.4876 58.3984L24.4345 52.697C24.4782 52.6714 24.5345 52.6868 24.5596 52.7309C24.5847 52.775 24.5697 52.8311 24.5256 52.8562L14.5787 58.5576C14.5643 58.5658 14.5486 58.5698 14.5332 58.5698Z" fill="#373B42"/>
<path d="M25.8061 50.9629L26.0803 51.437L26.6882 51.1882L26.2503 51.9342L26.3564 52.5705L25.8106 52.5562L25.2682 53.1988L25.3703 52.4423L24.9297 52.2034L25.537 51.7506L25.8061 50.9629Z" fill="#373B42"/>
<path d="M28.2514 49.5508L28.5256 50.0249L29.1335 49.7761L28.6957 50.5221L28.8017 51.1584L28.2559 51.1441L27.7136 51.7867L27.8156 51.0301L27.375 50.7913L27.9823 50.3385L28.2514 49.5508Z" fill="#373B42"/>
<path d="M30.6983 48.1387L30.971 48.6137L31.5789 48.3648L31.141 49.1109L31.2471 49.7472L30.7028 49.732L30.1589 50.3755L30.261 49.6189L29.8203 49.3801L30.4276 48.9273L30.6983 48.1387Z" fill="#373B42"/>
<path d="M92.2482 37.9915L92.2136 53.053C92.2136 53.566 92.0292 53.9293 91.7352 54.1021L89.7982 55.2206C89.9885 55.0649 90.121 54.8171 90.1614 54.4827C90.1728 54.4077 90.1787 54.3213 90.1787 54.2347L90.2132 39.1732C90.219 38.1356 89.4869 36.8674 88.5819 36.3486L67.1488 23.9718C66.8837 23.822 66.6301 23.7471 66.4111 23.7471C66.3534 23.7471 66.3014 23.7528 66.2495 23.7644C66.2266 23.7644 66.2035 23.7701 66.1862 23.7759C66.14 23.7875 66.094 23.8046 66.0478 23.8277C66.0248 23.8335 66.0075 23.845 65.9844 23.8565L68.0193 22.6805C68.3133 22.5076 68.7283 22.5307 69.1838 22.7902L90.6167 35.1668C91.5218 35.6914 92.2482 36.9538 92.2482 37.9915Z" fill="#978050"/>
<path d="M89.7978 55.3124C89.7688 55.3124 89.7401 55.2984 89.7222 55.2728C89.6953 55.2334 89.7028 55.1797 89.7398 55.1496C89.9198 55.0022 90.0342 54.7679 90.0701 54.4715C90.0808 54.3997 90.0866 54.3187 90.0866 54.2346L90.121 39.173C90.1267 38.1637 89.4156 36.9325 88.5359 36.4283L67.1026 24.0513C66.7974 23.8791 66.5123 23.8003 66.2688 23.854C66.2405 23.8562 66.228 23.8587 66.215 23.863C66.1677 23.8752 66.1286 23.8899 66.0885 23.9098C66.0637 23.9182 66.0551 23.9229 66.0444 23.9286C66.0415 23.9302 66.0386 23.9315 66.0358 23.9328L66.0301 23.936L66.0297 23.9351C65.987 23.9494 65.9343 23.9362 65.9124 23.8967C65.888 23.853 65.8949 23.8022 65.9383 23.7771L67.9734 22.6011C68.3048 22.4058 68.7634 22.445 69.2293 22.7104L90.6622 35.0875C91.5874 35.6234 92.3398 36.9262 92.3398 37.9915V37.9917L92.305 53.0531C92.305 53.5821 92.1189 53.9827 91.7814 54.1811L89.8438 55.3C89.8294 55.3084 89.8136 55.3124 89.7978 55.3124ZM66.5083 23.6597C66.7217 23.6785 66.9563 23.7578 67.1936 23.8918L88.6273 36.2692C89.5579 36.8025 90.3103 38.1055 90.3046 39.1737L90.2702 54.2348C90.2702 54.3278 90.2637 54.4184 90.2519 54.4964C90.2333 54.6517 90.1945 54.7933 90.1379 54.9183L91.6889 54.0226C91.9675 53.8587 92.1213 53.5143 92.1213 53.0529L92.1561 37.9913C92.1561 36.9843 91.4447 35.753 90.5704 35.2463L69.1378 22.8696C68.7315 22.6383 68.3406 22.5974 68.0659 22.7595L66.5083 23.6597Z" fill="#373B42"/>
<path d="M90.2124 39.1733L90.178 54.2347C90.178 54.3213 90.172 54.4077 90.1606 54.4827C90.1203 54.8171 89.9877 55.0649 89.7974 55.2206C89.7628 55.2435 89.7341 55.2608 89.7053 55.2781C89.4055 55.4569 88.9905 55.428 88.535 55.1686L79.9687 50.1938L76.7868 51.8944L74.5731 47.0808L67.1079 42.792C66.2029 42.2675 65.4707 41.0049 65.4707 39.9672L65.5053 24.9115C65.5111 24.3582 65.7186 23.9776 66.0472 23.8277C66.0933 23.8046 66.1393 23.7875 66.1855 23.7759C66.2028 23.7702 66.2259 23.7644 66.2488 23.7644C66.3008 23.7528 66.3527 23.7471 66.4104 23.7471C66.6294 23.7471 66.883 23.8221 67.1482 23.9718L88.5811 36.3487C89.486 36.8674 90.2182 38.1356 90.2124 39.1733Z" fill="#FFF7E4"/>
<path d="M89.2688 55.4833C89.0278 55.4833 88.7634 55.4042 88.4895 55.2484L79.9666 50.2988L76.8302 51.9753C76.8079 51.9874 76.7825 51.9897 76.7574 51.9813C76.7337 51.9732 76.714 51.9556 76.7032 51.9327L74.5021 47.1459L67.0619 42.8716C66.1338 42.3336 65.3789 41.0308 65.3789 39.9671L65.4133 24.9114C65.4194 24.3395 65.6364 23.9142 66.009 23.7442C66.0571 23.72 66.1101 23.7002 66.1628 23.687C66.1887 23.678 66.2195 23.6726 66.2486 23.6726C66.2884 23.6617 66.3479 23.6553 66.4103 23.6553C66.6484 23.6553 66.9192 23.7372 67.1931 23.892L88.6268 36.2694C89.5574 36.8026 90.3098 38.1057 90.3041 39.1738L90.2697 54.2349C90.2697 54.3279 90.2632 54.4185 90.2514 54.4965C90.2101 54.8381 90.0731 55.1141 89.8554 55.2917C89.8149 55.3191 89.7869 55.336 89.7597 55.3525C89.6127 55.4401 89.4473 55.4833 89.2688 55.4833ZM79.9684 50.1019C79.9842 50.1019 80.0003 50.1061 80.0147 50.1143L88.5813 55.0892C88.9965 55.3262 89.3792 55.3649 89.6582 55.1993C89.6901 55.1801 89.7159 55.1644 89.7468 55.1441C89.9192 55.0022 90.0336 54.7679 90.0695 54.4715C90.0802 54.3997 90.086 54.3187 90.086 54.2346L90.1204 39.173C90.1204 39.1728 90.1204 39.1728 90.1204 39.1726C90.1261 38.1636 89.415 36.9325 88.5353 36.4283L67.102 24.0513C66.7968 23.8791 66.5117 23.8002 66.2683 23.854C66.2399 23.8562 66.2274 23.8587 66.2145 23.863C66.1671 23.8751 66.1281 23.8899 66.0879 23.9098C65.7802 24.0503 65.6019 24.4154 65.597 24.9124L65.5626 39.9672C65.5626 40.9724 66.2766 42.2041 67.1537 42.7124L74.619 47.0011C74.6355 47.0106 74.6484 47.0249 74.6567 47.0424L76.8295 51.7673L79.9251 50.1126C79.9387 50.1055 79.9537 50.1019 79.9684 50.1019Z" fill="#373B42"/>
<path d="M75.4009 39.5548C77.1908 38.5145 77.1858 35.1662 75.3899 32.0761C73.5939 28.9859 70.687 27.3242 68.8971 28.3645C67.1072 29.4047 67.1122 32.7531 68.9081 35.8432C70.7041 38.9333 73.611 40.5951 75.4009 39.5548Z" fill="#FFBE2E"/>
<path d="M72.758 33.5452C73.2208 33.2762 73.2195 32.4104 72.7551 31.6114C72.2907 30.8123 71.5391 30.3826 71.0763 30.6516C70.6135 30.9206 70.6147 31.7864 71.0791 32.5854C71.5435 33.3845 72.2952 33.8142 72.758 33.5452Z" fill="white"/>
<path d="M69.4395 35.6633C69.4443 33.9434 70.6614 33.2498 72.1582 34.114C73.6549 34.9781 74.8641 37.0725 74.8592 38.7923L69.4395 35.6633Z" fill="white"/>
<path d="M68.8192 39.0382C69.1724 39.2421 69.4574 39.7393 69.4563 40.1451C69.4538 40.9969 68.3677 41.0528 68.3106 41.0558C68.2536 40.987 67.1714 39.6792 67.1738 38.8273C67.175 38.4215 67.4619 38.2546 67.8181 38.4602C68.0194 38.5765 68.1972 38.7866 68.3163 39.02C68.4365 38.9248 68.6148 38.9202 68.8192 39.0382Z" fill="#373B42"/>
<path d="M71.9461 40.8429C72.2964 41.0451 72.5844 41.544 72.5833 41.9498C72.5808 42.8017 71.4948 42.8576 71.4376 42.8605C71.3806 42.7917 70.2984 41.4839 70.3008 40.632C70.302 40.2262 70.5889 40.0593 70.945 40.2649C71.1435 40.3795 71.3241 40.5913 71.4434 40.8247C71.5634 40.7294 71.7418 40.7249 71.9461 40.8429Z" fill="#373B42"/>
<path d="M75.0702 42.6459C75.4233 42.8498 75.7113 43.3487 75.7102 43.7545C75.7078 44.6064 74.6217 44.6623 74.5645 44.6652C74.5076 44.5964 73.4253 43.2886 73.4277 42.4367C73.4289 42.0309 73.7159 41.864 74.072 42.0696C74.2704 42.1842 74.4512 42.396 74.5704 42.6294C74.6904 42.5341 74.8687 42.5296 75.0702 42.6459Z" fill="#373B42"/>
<path d="M88.6611 40.2682C88.6453 40.2682 88.6295 40.2642 88.6148 40.2558L79.0591 34.7064C79.0154 34.6809 79.0007 34.6247 79.0262 34.5809C79.0512 34.5368 79.1072 34.5223 79.1517 34.5475L88.7073 40.0969C88.751 40.1224 88.7657 40.1786 88.7403 40.2224C88.7235 40.2518 88.6926 40.2682 88.6611 40.2682Z" fill="#373B42"/>
<path d="M86.7981 40.987C86.7823 40.987 86.7665 40.983 86.7518 40.9746L79.0591 36.5072C79.0154 36.4817 79.0007 36.4254 79.0262 36.3817C79.0512 36.3376 79.1072 36.3231 79.1517 36.3483L86.8443 40.8157C86.8881 40.8412 86.9028 40.8975 86.8773 40.9413C86.8605 40.9707 86.8297 40.987 86.7981 40.987Z" fill="#FFBE2E"/>
<path d="M88.6611 43.7263C88.6453 43.7263 88.6295 43.7223 88.6148 43.7139L79.0591 38.1645C79.0154 38.1391 79.0007 38.0828 79.0262 38.039C79.0512 37.9948 79.1072 37.9802 79.1517 38.0057L88.7073 43.555C88.751 43.5805 88.7657 43.6368 88.7403 43.6806C88.7235 43.71 88.6926 43.7263 88.6611 43.7263Z" fill="#373B42"/>
<path d="M86.7981 44.4442C86.7823 44.4442 86.7665 44.4403 86.7518 44.4318L79.0591 39.9644C79.0154 39.9389 79.0007 39.8826 79.0262 39.8388C79.0512 39.7945 79.1072 39.78 79.1517 39.8055L86.8443 44.2729C86.8881 44.2984 86.9028 44.3547 86.8773 44.3984C86.8605 44.4279 86.8297 44.4442 86.7981 44.4442Z" fill="#FFBE2E"/>
<path d="M88.6611 47.1842C88.6453 47.1842 88.6295 47.1803 88.6148 47.1718L79.0591 41.6226C79.0154 41.5972 79.0007 41.5409 79.0262 41.4971C79.0512 41.4528 79.1072 41.4381 79.1517 41.4638L88.7073 47.013C88.751 47.0384 88.7657 47.0948 88.7403 47.1385C88.7235 47.1679 88.6926 47.1842 88.6611 47.1842Z" fill="#373B42"/>
<path d="M86.7371 47.8673C86.7213 47.8673 86.7055 47.8633 86.6908 47.8549L79.063 43.4253C79.0193 43.3998 79.0046 43.3435 79.0301 43.2998C79.0552 43.2555 79.1111 43.2409 79.1556 43.2664L86.7833 47.696C86.8271 47.7215 86.8418 47.7778 86.8163 47.8216C86.7994 47.851 86.7686 47.8673 86.7371 47.8673Z" fill="#FFBE2E"/>
<path d="M88.6611 50.6414C88.6453 50.6414 88.6295 50.6375 88.6148 50.629L79.0591 45.0797C79.0154 45.0542 79.0007 44.9979 79.0262 44.9541C79.0512 44.9098 79.1072 44.8952 79.1517 44.9208L88.7073 50.4702C88.751 50.4956 88.7657 50.5519 88.7403 50.5957C88.7235 50.6251 88.6926 50.6414 88.6611 50.6414Z" fill="#373B42"/>
<path d="M86.7981 51.3602C86.7823 51.3602 86.7665 51.3563 86.7518 51.3479L79.0591 46.8804C79.0154 46.855 79.0007 46.7987 79.0262 46.7549C79.0512 46.7107 79.1072 46.6959 79.1517 46.7216L86.8443 51.189C86.8881 51.2144 86.9028 51.2707 86.8773 51.3145C86.8605 51.3439 86.8297 51.3602 86.7981 51.3602Z" fill="#FFBE2E"/>
<g opacity="0.1">
<path d="M96.4018 76.1017C97.1965 76.5606 97.2007 77.3059 96.4111 77.7648L72.4486 91.6156C71.6565 92.0759 70.3722 92.0745 69.5774 91.6157L64.2209 88.5231C63.4261 88.0642 63.4194 87.3202 64.2115 86.86L88.174 73.0092C88.9636 72.5503 90.2504 72.5503 91.0452 73.0092L96.4018 76.1017Z" fill="black"/>
</g>
<path d="M96.7777 72.8857L96.7701 75.3453C96.7701 75.647 96.574 75.945 96.1817 76.1714L72.2199 90.0226C71.4277 90.4828 70.1413 90.4828 69.3491 90.0226L63.9924 86.9294C63.5925 86.6993 63.3888 86.3975 63.3926 86.092L63.4001 83.64C63.4001 83.938 63.6001 84.2435 64 84.4699L69.3529 87.5631C70.1489 88.0233 71.4352 88.0233 72.2274 87.5631L96.1893 73.7119C96.5816 73.4854 96.7777 73.1837 96.7777 72.8857Z" fill="#978050"/>
<path d="M70.7848 90.4579C70.2479 90.4579 69.7118 90.3393 69.303 90.1021L63.9464 87.0088C63.5257 86.7666 63.2962 86.4406 63.3009 86.0906L63.3084 83.6395C63.3084 83.5889 63.3496 83.548 63.4002 83.548C63.4511 83.548 63.492 83.5893 63.492 83.6398C63.492 83.9176 63.6935 84.191 64.0453 84.3899L69.3987 87.4837C70.1675 87.928 71.4166 87.9284 72.1812 87.4837L96.1435 73.6324C96.4866 73.4342 96.6842 73.1638 96.686 72.8895V72.8854C96.686 72.8348 96.7273 72.7939 96.7778 72.7939C96.8288 72.7939 96.8696 72.8352 96.8696 72.8857C96.8696 72.8857 96.8696 72.8859 96.8696 72.8861C96.8696 72.8874 96.8696 72.8888 96.8696 72.89L96.8621 75.3457C96.8621 75.6932 96.6369 76.0147 96.2277 76.2508L72.2658 90.1021C71.8578 90.3394 71.3209 90.4579 70.7848 90.4579ZM63.4905 84.155L63.4844 86.0923C63.4808 86.3735 63.6774 86.6422 64.0382 86.8499L69.3951 89.9433C70.1611 90.3883 71.4077 90.3883 72.1736 89.9433L96.1359 76.092C96.4859 75.8899 96.6785 75.6249 96.6785 75.3454L96.6846 73.4065C96.577 73.5505 96.4254 73.6817 96.2352 73.7915L72.2733 87.6427C71.4578 88.1164 70.1267 88.1167 69.3069 87.6427L63.9542 84.5494C63.757 84.4378 63.6003 84.3032 63.4905 84.155Z" fill="#373B42"/>
<path d="M96.1752 72.049C96.97 72.5079 96.9742 73.2532 96.1845 73.7121L72.222 87.5629C71.43 88.0231 70.1456 88.0218 69.3508 87.5629L63.9943 84.4704C63.1995 84.0115 63.1929 83.2675 63.9849 82.8073L87.9474 68.9565C88.7371 68.4976 90.0238 68.4976 90.8187 68.9565L96.1752 72.049Z" fill="#FFBE2E"/>
<path d="M70.7884 87.9975C70.252 87.9976 69.7148 87.8793 69.3048 87.6426L63.9486 84.5501C63.5326 84.3102 63.3035 83.9856 63.3027 83.6363C63.3024 83.2894 63.5283 82.9668 63.9389 82.7281L87.9016 68.8774C88.7156 68.4043 90.045 68.404 90.8648 68.8774L96.2211 71.9699C96.6363 72.2094 96.8655 72.534 96.8659 72.8835C96.8666 73.2308 96.6406 73.5534 96.2307 73.7918L72.2681 87.6426C71.8611 87.8793 71.3249 87.9975 70.7884 87.9975ZM89.3811 68.7034C88.8777 68.7034 88.3752 68.8142 87.9937 69.0362L64.031 82.887C63.6796 83.0914 63.486 83.3573 63.4863 83.6359C63.4867 83.9169 63.6835 84.1851 64.0404 84.3912L69.3966 87.4837C70.1655 87.9273 71.412 87.928 72.1759 87.4837L96.1386 73.6329C96.4897 73.4289 96.6826 73.1627 96.6822 72.8837C96.6818 72.6024 96.4853 72.3343 96.1292 72.1286L90.7729 69.0361C90.3885 68.8144 89.8843 68.7034 89.3811 68.7034Z" fill="#373B42"/>
<path d="M91.8958 71.4303C93.2855 72.2327 93.2904 73.53 91.9098 74.3324C90.5315 75.1334 88.2917 75.1348 86.902 74.3324C85.5147 73.5315 85.5049 72.2313 86.8832 71.4303C88.2639 70.628 90.5085 70.6294 91.8958 71.4303Z" fill="#978050"/>
<path d="M89.5568 74.1705H88.3067C88.1037 74.1705 87.9395 74.006 87.9395 73.8032C87.9395 73.6004 88.1037 73.436 88.3067 73.436H89.1896V71.6876C89.1896 71.4847 89.3538 71.3203 89.5568 71.3203C89.7598 71.3203 89.924 71.4847 89.924 71.6876V73.8032C89.9241 74.006 89.7598 74.1705 89.5568 74.1705Z" fill="white"/>
<path d="M80.3707 74.9217C80.3132 74.9549 80.2851 75.0053 80.3148 75.0564L80.9544 76.1584C80.9791 76.1998 80.9656 76.2447 80.9201 76.2794L79.7138 77.2121C79.6008 77.2993 79.7097 77.4237 79.8982 77.4228L81.9059 77.4076C81.9819 77.4076 82.0519 77.428 82.0956 77.4635L83.2489 78.4139C83.3352 78.4843 83.5017 78.4851 83.5958 78.4308C83.6206 78.4165 83.6404 78.3984 83.6524 78.3766L84.2548 77.2645C84.2659 77.2438 84.2853 77.2254 84.311 77.2106C84.3366 77.1958 84.3685 77.1846 84.4043 77.1782L86.3262 76.8329C86.3634 76.8262 86.3944 76.815 86.419 76.8008C86.5124 76.7468 86.5115 76.6504 86.3903 76.6002L84.7532 75.929C84.692 75.9036 84.6572 75.863 84.6574 75.819L84.6902 74.6561C84.6938 74.5461 84.4794 74.4826 84.3285 74.5477L82.7129 75.2443C82.6528 75.2705 82.5754 75.2782 82.5038 75.2638L80.6036 74.8897C80.5153 74.8724 80.4283 74.8885 80.3707 74.9217Z" fill="white"/>
<path d="M68.1451 81.9806C68.0877 82.0137 68.0601 82.0639 68.0897 82.1151L68.7279 83.2179C68.7525 83.2593 68.7391 83.3042 68.6951 83.338L67.4873 84.2715C67.3742 84.3587 67.4832 84.4831 67.6716 84.4823L69.6808 84.4662C69.7568 84.4662 69.8268 84.4865 69.869 84.5229L71.0237 85.4725C71.1101 85.5428 71.2766 85.5437 71.37 85.4898C71.3945 85.4756 71.4141 85.4576 71.4258 85.4361L72.0282 84.324C72.0392 84.3033 72.0587 84.2849 72.0844 84.2701C72.11 84.2553 72.1419 84.2441 72.1777 84.2378L74.0996 83.8925C74.1371 83.8856 74.1684 83.8742 74.1932 83.8599C74.2873 83.8056 74.2861 83.7093 74.1637 83.6598L72.5282 82.9877C72.467 82.9623 72.4321 82.9217 72.4323 82.8777L72.4651 81.7148C72.4672 81.6057 72.2528 81.5422 72.1019 81.6074L70.4878 82.3031C70.4278 82.3293 70.3503 82.3369 70.2788 82.3225L68.3785 81.9485C68.2895 81.9314 68.2024 81.9475 68.1451 81.9806Z" fill="white"/>
<path d="M74.26 78.451C74.2024 78.4842 74.1744 78.5345 74.2041 78.5858L74.8437 79.6877C74.8683 79.7292 74.8549 79.7741 74.8094 79.8087L73.6031 80.7414C73.4887 80.8295 73.599 80.953 73.7875 80.9522L75.7952 80.937C75.8712 80.937 75.9412 80.9573 75.9848 80.9929L77.1382 81.9433C77.2245 82.0136 77.391 82.0145 77.4851 81.9602C77.5099 81.9459 77.5297 81.9278 77.5417 81.9061L78.1426 80.7948C78.1537 80.7741 78.1735 80.7554 78.1995 80.7404C78.2256 80.7254 78.2578 80.714 78.2936 80.7076L80.214 80.3632C80.2515 80.3563 80.2828 80.3449 80.3076 80.3306C80.4017 80.2763 80.4008 80.1799 80.2797 80.1296L78.6426 79.4584C78.5813 79.4331 78.5465 79.3924 78.5468 79.3484L78.5796 78.1855C78.5816 78.0764 78.3672 78.0129 78.2164 78.0781L76.6023 78.7738C76.5422 78.8 76.4647 78.8076 76.3932 78.7932L74.4929 78.4192C74.4045 78.4017 74.3175 78.4177 74.26 78.451Z" fill="white"/>
<path d="M93.3422 84.6644C92.6782 85.0477 92.6745 85.6696 93.3341 86.0529C93.9937 86.4362 95.0672 86.436 95.7312 86.0527C96.3951 85.6694 96.3983 85.0479 95.7387 84.6645C95.0791 84.2812 94.0061 84.281 93.3422 84.6644Z" fill="white"/>
<path d="M94.5328 86.4306C94.082 86.4306 93.632 86.3311 93.2899 86.1325C92.9428 85.9306 92.7516 85.6566 92.752 85.3611C92.7523 85.0638 92.9463 84.788 93.2981 84.585C93.9867 84.1875 95.1034 84.188 95.7869 84.5852C96.1344 84.7873 96.3256 85.0612 96.3252 85.3567C96.3245 85.6538 96.1309 85.9293 95.779 86.1323C95.4348 86.3311 94.9836 86.4306 94.5328 86.4306ZM93.3899 84.7439C93.0973 84.913 92.9359 85.1323 92.9356 85.3613C92.9352 85.5886 93.0941 85.8061 93.3824 85.9736C94.015 86.3415 95.0496 86.3417 95.6872 85.9735C95.9798 85.8045 96.1412 85.5855 96.1416 85.3566C96.1419 85.1293 95.9831 84.9118 95.6944 84.7441C95.0614 84.3756 94.0272 84.3761 93.3899 84.7439Z" fill="#DBDEE4"/>
<path d="M94.5375 85.7967C94.7963 85.7967 95.0469 85.7378 95.2248 85.6351C95.3677 85.5526 95.4497 85.4512 95.4498 85.357C95.4499 85.264 95.3696 85.1638 95.2292 85.0823C95.0528 84.9797 94.8033 84.9209 94.5448 84.9209C94.2861 84.9209 94.0358 84.9798 93.8581 85.0825C93.715 85.1651 93.633 85.2665 93.6328 85.3608C93.6327 85.4539 93.713 85.554 93.8532 85.6354C94.0295 85.738 94.2789 85.7967 94.5375 85.7967Z" fill="#FFBE2E"/>
<path d="M88.6923 89.1232C88.9703 89.1232 89.2393 89.0599 89.4304 88.9496C89.5839 88.8609 89.672 88.7521 89.6721 88.651C89.6722 88.551 89.5859 88.4435 89.4352 88.3559C89.2456 88.2458 88.9778 88.1826 88.7001 88.1826C88.4224 88.1826 88.1536 88.2459 87.9626 88.3561C87.809 88.4448 87.7209 88.5537 87.7207 88.655C87.7206 88.755 87.8068 88.8625 87.9574 88.95C88.1468 89.0601 88.4147 89.1232 88.6923 89.1232Z" fill="#373B42"/>
<path d="M63.7706 77.5811C63.4926 77.5811 63.2237 77.6443 63.0326 77.7546C62.8792 77.8432 62.7911 77.9521 62.791 78.0532C62.7909 78.1531 62.8772 78.2606 63.0279 78.3482C63.2173 78.4583 63.4852 78.5215 63.7628 78.5214C64.0404 78.5214 64.3092 78.4582 64.5001 78.3479C64.6537 78.2593 64.7418 78.1504 64.7419 78.0491C64.742 77.9492 64.6558 77.8417 64.5052 77.7542C64.316 77.6442 64.0482 77.5811 63.7706 77.5811Z" fill="#373B42"/>
</svg>
