<svg width="230" height="230" viewBox="0 0 230 230" fill="none" xmlns="http://www.w3.org/2000/svg">
<mask id="mask0_3191_18505" style="mask-type:alpha" maskUnits="userSpaceOnUse" x="0" y="0" width="230" height="230">
<rect width="230" height="230" fill="#D9D9D9"/>
</mask>
<g mask="url(#mask0_3191_18505)">
<path d="M189.877 174.88C189.9 174.872 189.923 174.856 189.947 174.841C189.954 174.841 189.954 174.833 189.962 174.833C190.016 174.794 190.07 174.756 190.117 174.717C190.04 174.779 189.962 174.833 189.877 174.88Z" fill="white"/>
<path d="M189.877 175.054C189.808 175.054 189.744 175.014 189.716 174.948C189.681 174.865 189.714 174.769 189.793 174.726C189.869 174.685 189.938 174.636 190.008 174.58C190.083 174.521 190.192 174.532 190.252 174.607C190.312 174.681 190.302 174.79 190.228 174.851C190.181 174.89 190.128 174.929 190.074 174.967C190.067 174.973 190.059 174.977 190.051 174.982C190.046 174.985 190.04 174.989 190.035 174.992C190.005 175.011 189.972 175.032 189.93 175.045C189.913 175.051 189.894 175.054 189.877 175.054Z" fill="#373B42"/>
<path d="M190.117 174.717C190.04 174.779 189.962 174.833 189.877 174.88C189.9 174.872 189.923 174.856 189.947 174.841C189.954 174.841 189.954 174.833 189.962 174.833C190.016 174.794 190.07 174.756 190.117 174.717Z" fill="white"/>
<path d="M189.877 175.054C189.808 175.054 189.744 175.014 189.716 174.948C189.681 174.865 189.714 174.769 189.793 174.726C189.869 174.685 189.938 174.636 190.008 174.58C190.083 174.521 190.192 174.532 190.252 174.607C190.312 174.681 190.302 174.79 190.228 174.851C190.181 174.89 190.128 174.929 190.074 174.967C190.067 174.973 190.059 174.977 190.051 174.982C190.046 174.985 190.04 174.989 190.035 174.992C190.005 175.011 189.972 175.032 189.93 175.045C189.913 175.051 189.894 175.054 189.877 175.054Z" fill="#373B42"/>
<path d="M189.877 174.88C189.9 174.872 189.923 174.856 189.947 174.841C189.954 174.841 189.954 174.833 189.962 174.833C190.016 174.794 190.07 174.756 190.117 174.717C190.04 174.779 189.962 174.833 189.877 174.88Z" fill="white"/>
<path d="M189.877 175.054C189.808 175.054 189.744 175.014 189.716 174.948C189.681 174.865 189.714 174.769 189.793 174.726C189.869 174.685 189.938 174.636 190.008 174.58C190.083 174.521 190.192 174.532 190.252 174.607C190.312 174.681 190.302 174.79 190.228 174.851C190.181 174.89 190.128 174.929 190.074 174.967C190.067 174.973 190.059 174.977 190.051 174.982C190.046 174.985 190.04 174.989 190.035 174.992C190.005 175.011 189.972 175.032 189.93 175.045C189.913 175.051 189.894 175.054 189.877 175.054Z" fill="#373B42"/>
<path d="M190.717 170.906C190.649 170.906 190.583 170.865 190.556 170.798C190.52 170.708 190.563 170.606 190.652 170.57L199.428 167.005C199.515 166.967 199.619 167.011 199.655 167.1C199.691 167.19 199.648 167.292 199.559 167.328L190.783 170.893C190.762 170.902 190.739 170.906 190.717 170.906Z" fill="#373B42"/>
<path d="M165.202 198.852C165.172 198.852 165.142 198.844 165.115 198.828L142.677 185.874C141.77 185.35 141.269 184.643 141.268 183.882C141.267 183.127 141.759 182.423 142.655 181.902L164.947 168.948C165.031 168.9 165.137 168.927 165.186 169.011C165.234 169.094 165.206 169.202 165.123 169.25L142.831 182.205C142.047 182.66 141.616 183.256 141.617 183.882C141.618 184.513 142.056 185.112 142.851 185.571L165.289 198.526C165.373 198.574 165.401 198.681 165.354 198.764C165.321 198.82 165.262 198.852 165.202 198.852Z" fill="#DBDEE4"/>
<path d="M62.4318 133.023C62.4025 133.023 62.3732 133.016 62.3458 133L25.4069 112.029C24.995 111.792 24.7693 111.464 24.7686 111.108C24.7678 110.751 24.9936 110.424 25.4028 110.186L37.6876 103.047C37.7708 102.998 37.8779 103.026 37.9263 103.11C37.9747 103.194 37.9467 103.301 37.8636 103.349L25.5787 110.488C25.2814 110.661 25.1177 110.881 25.1177 111.107C25.1184 111.334 25.2821 111.554 25.5802 111.726L62.5177 132.697C62.6016 132.744 62.6309 132.851 62.5839 132.935C62.5512 132.992 62.4925 133.023 62.4318 133.023Z" fill="#DBDEE4"/>
<path d="M112.323 29.0057C112.382 28.9721 112.441 28.9469 112.499 28.9219C112.566 28.8883 112.642 28.8547 112.709 28.8379C112.734 28.8211 112.751 28.8211 112.776 28.8127C112.851 28.7876 112.918 28.7707 113.002 28.7539C113.086 28.729 113.178 28.7203 113.27 28.7121C113.958 28.6365 114.771 28.8379 115.634 29.3333L186.072 70.0604C186.499 70.3038 186.902 70.6061 187.295 70.967C188.762 72.2681 189.944 74.2239 190.447 76.1545C190.623 76.8175 190.715 77.4806 190.715 78.1101L190.413 184.47C190.413 184.604 190.405 184.747 190.396 184.873C190.388 184.956 190.38 185.041 190.371 185.124C190.363 185.191 190.354 185.259 190.346 185.326C190.338 185.343 190.338 185.368 190.338 185.385C190.321 185.435 190.313 185.485 190.304 185.544C190.271 185.703 190.237 185.846 190.179 185.989V185.997C190.145 186.098 190.111 186.199 190.061 186.291C189.961 186.526 189.835 186.728 189.692 186.904C189.651 186.963 189.6 187.013 189.55 187.063C189.475 187.147 189.399 187.214 189.315 187.282C189.265 187.324 189.206 187.365 189.148 187.407L198.099 182.111C198.937 181.624 199.457 180.592 199.457 179.123L199.758 72.763C199.758 72.1335 199.666 71.4706 199.49 70.8074C198.987 68.8768 197.805 66.921 196.339 65.6201C195.945 65.2589 195.542 64.9569 195.115 64.7135L124.677 23.9862C123.386 23.2308 122.213 23.1636 121.366 23.6587L112.323 29.0057Z" fill="#212121"/>
<path d="M187.38 70.6469C188.837 71.9393 190.011 73.882 190.51 75.7997L199.493 70.4885C198.993 68.5708 197.819 66.6281 196.362 65.3359" fill="#FFBE2E"/>
<path d="M189.057 187.457C189.082 187.448 189.107 187.431 189.132 187.415C189.141 187.415 189.141 187.406 189.149 187.406C189.208 187.364 189.266 187.322 189.317 187.28C189.233 187.347 189.149 187.406 189.057 187.457Z" fill="#BEC4CD"/>
<path d="M189.317 187.28C189.233 187.347 189.149 187.406 189.057 187.457C189.082 187.448 189.107 187.431 189.132 187.415C189.141 187.415 189.141 187.406 189.149 187.406C189.208 187.364 189.266 187.322 189.317 187.28Z" fill="#BEC4CD"/>
<path d="M189.057 187.457C189.082 187.448 189.107 187.431 189.132 187.415C189.141 187.415 189.141 187.406 189.149 187.406C189.208 187.364 189.266 187.322 189.317 187.28C189.233 187.347 189.149 187.406 189.057 187.457Z" fill="#BEC4CD"/>
<path d="M110.665 138.361C110.657 141.316 112.735 144.917 115.308 146.411L185.746 187.139C187.037 187.886 188.21 187.953 189.057 187.457C189.082 187.449 189.107 187.432 189.132 187.415C189.141 187.415 189.141 187.407 189.149 187.407C189.208 187.365 189.266 187.323 189.317 187.281C189.401 187.214 189.476 187.147 189.551 187.063C189.602 187.013 189.652 186.962 189.694 186.904C189.836 186.727 189.962 186.526 190.063 186.291C190.113 186.198 190.146 186.098 190.18 185.997V185.989C190.23 185.846 190.272 185.703 190.306 185.544C190.314 185.485 190.322 185.435 190.339 185.384C190.339 185.367 190.339 185.342 190.348 185.325C190.356 185.258 190.364 185.191 190.373 185.124C190.381 185.04 190.39 184.956 190.398 184.872C190.406 184.746 190.415 184.604 190.415 184.469L190.716 78.1098C190.725 75.1551 188.646 71.5457 186.073 70.06L115.635 29.3329C114.772 28.8376 113.959 28.6361 113.272 28.7117C113.18 28.7199 113.087 28.7285 113.003 28.7535C112.92 28.7703 112.853 28.7872 112.777 28.8123C112.752 28.8207 112.735 28.8207 112.71 28.8375C112.643 28.8543 112.568 28.888 112.501 28.9215C111.562 29.358 110.975 30.4323 110.967 32.002L110.665 138.361Z" fill="#DBDEE4"/>
<path d="M184.011 78.0911C183.984 77.4898 183.234 76.1987 182.718 75.8741L117.653 38.2539L117.369 138.381C117.396 138.985 118.153 140.281 118.676 140.605L183.727 178.218L184.011 78.0911Z" fill="#BEC4CD"/>
<path d="M110.665 138.361C110.657 141.316 112.735 144.917 115.308 146.411L185.746 187.139C187.037 187.886 188.21 187.953 189.057 187.457C189.082 187.449 189.107 187.432 189.132 187.415C189.141 187.415 189.141 187.407 189.149 187.407C189.208 187.365 189.266 187.323 189.317 187.281C189.401 187.214 189.476 187.147 189.551 187.063C189.602 187.013 189.652 186.962 189.694 186.904C189.836 186.727 189.962 186.526 190.063 186.291C190.113 186.198 190.146 186.098 190.18 185.997V185.989C190.23 185.846 190.272 185.703 190.306 185.544C190.314 185.485 190.322 185.435 190.339 185.384C190.339 185.367 190.339 185.342 190.348 185.325C190.356 185.258 190.364 185.191 190.373 185.124C190.381 185.04 190.39 184.956 190.398 184.872C190.406 184.746 190.415 184.604 190.415 184.469L190.716 78.1098C190.725 75.1551 188.646 71.5457 186.073 70.06L115.635 29.3329C114.772 28.8376 113.959 28.6361 113.272 28.7117C113.18 28.7199 113.087 28.7285 113.003 28.7535C112.92 28.7703 112.853 28.7872 112.777 28.8123C112.752 28.8207 112.735 28.8207 112.71 28.8375C112.643 28.8543 112.568 28.888 112.501 28.9215C111.562 29.358 110.975 30.4323 110.967 32.002L110.665 138.361Z" fill="#373B42"/>
<path d="M187.834 187.956C187.168 187.956 186.425 187.733 185.659 187.29L115.221 146.563C112.604 145.042 110.482 141.363 110.491 138.361L110.793 32.0017C110.801 30.4225 111.397 29.2425 112.428 28.7635C112.507 28.7232 112.579 28.6935 112.643 28.6748C112.673 28.6598 112.698 28.6534 112.714 28.6492C112.805 28.6192 112.878 28.6004 112.97 28.5824C113.056 28.5558 113.163 28.5463 113.256 28.538C113.998 28.4578 114.848 28.6792 115.723 29.1815L186.161 69.9091C188.778 71.4197 190.9 75.099 190.891 78.1105L190.59 184.469C190.59 184.608 190.582 184.755 190.572 184.884L190.522 185.346C190.519 185.368 190.513 185.388 190.503 185.407C190.492 185.479 190.486 185.52 190.479 185.568C190.445 185.731 190.405 185.874 190.352 186.027C190.351 186.036 190.348 186.045 190.346 186.052C190.308 186.168 190.271 186.272 190.217 186.374C190.122 186.596 189.99 186.816 189.83 187.013C189.789 187.071 189.733 187.13 189.675 187.187C189.6 187.271 189.518 187.344 189.426 187.417C189.378 187.458 189.319 187.5 189.26 187.543C189.253 187.547 189.246 187.551 189.239 187.556C189.233 187.559 189.228 187.562 189.222 187.566C189.191 187.587 189.155 187.609 189.111 187.624C188.736 187.845 188.304 187.956 187.834 187.956ZM113.56 28.8714C113.468 28.8714 113.379 28.8761 113.291 28.8857C113.207 28.8933 113.127 28.8994 113.054 28.9212C112.962 28.9403 112.901 28.9557 112.833 28.9785C112.816 28.9891 112.772 29.002 112.753 29.0068C112.723 29.0146 112.667 29.0334 112.579 29.0778C111.672 29.5 111.149 30.5652 111.142 32.0034L110.84 138.362C110.831 141.253 112.875 144.797 115.396 146.261L185.834 186.988C187.029 187.679 188.141 187.793 188.969 187.307L189.033 187.272C189.04 187.268 189.046 187.264 189.053 187.261C189.054 187.26 189.056 187.26 189.056 187.259C189.114 187.219 189.162 187.183 189.205 187.148C189.284 187.084 189.352 187.023 189.422 186.947C189.472 186.896 189.516 186.854 189.552 186.803C189.7 186.619 189.813 186.432 189.903 186.222C189.951 186.131 189.981 186.045 190.009 185.96C190.01 185.949 190.013 185.939 190.016 185.931C190.067 185.785 190.105 185.651 190.135 185.508C190.141 185.459 190.15 185.408 190.165 185.357C190.166 185.336 190.169 185.311 190.178 185.284L190.223 184.867C190.232 184.738 190.24 184.6 190.24 184.47L190.542 78.11C190.551 75.21 188.507 71.6673 185.986 70.2118L115.548 29.4842C114.844 29.0804 114.163 28.8714 113.56 28.8714Z" fill="#373B42"/>
<path d="M187.828 186.728C187.37 186.728 186.832 186.556 186.272 186.232L115.833 145.505C113.594 144.203 111.706 140.933 111.714 138.364L112.015 32.0051C112.021 30.9217 112.359 30.1431 112.943 29.8717L113.007 29.8413L113.178 29.7977L113.196 29.7834C113.201 29.7826 113.256 29.7714 113.256 29.7714L113.302 29.7578C113.303 29.7585 113.344 29.757 113.365 29.7554C113.444 29.7468 113.501 29.7441 113.56 29.7441C114.01 29.7441 114.548 29.916 115.115 30.2414L185.549 70.9669C187.791 72.261 189.677 75.5304 189.67 78.1068L189.368 184.466C189.368 184.579 189.361 184.696 189.354 184.799L189.333 185.006L189.301 185.065L189.297 185.239C189.288 185.277 189.282 185.316 189.275 185.357C189.253 185.457 189.226 185.548 189.194 185.64L189.129 185.821L189.102 185.877C189.044 186.013 188.971 186.133 188.881 186.245L188.776 186.359H188.703L188.497 186.571C188.306 186.675 188.081 186.728 187.828 186.728Z" fill="#FFBE2E"/>
<path d="M187.828 186.902C187.34 186.902 186.772 186.722 186.185 186.383L115.746 145.655C113.458 144.326 111.532 140.987 111.539 138.364L111.841 32.0045C111.847 30.8495 112.221 30.0144 112.869 29.7133L112.932 29.6832L113.107 29.6359C113.128 29.6236 113.153 29.6131 113.171 29.6103L113.253 29.5902C113.272 29.5847 113.297 29.5823 113.308 29.5831L113.351 29.5813C113.432 29.5724 113.495 29.5693 113.56 29.5693C114.04 29.5693 114.608 29.7494 115.202 30.0897L185.637 70.8155C187.925 72.1367 189.851 75.4758 189.844 78.1068L189.542 184.466C189.542 184.583 189.535 184.703 189.527 184.81L189.506 185.023C189.503 185.046 189.497 185.068 189.486 185.088L189.474 185.11L189.471 185.244C189.459 185.31 189.453 185.345 189.448 185.382C189.421 185.502 189.392 185.6 189.358 185.697L189.259 185.953C189.198 186.094 189.118 186.227 189.016 186.354L188.905 186.477C188.872 186.513 188.825 186.534 188.776 186.534L188.622 186.692C188.61 186.705 188.596 186.716 188.58 186.724C188.364 186.842 188.111 186.902 187.828 186.902ZM113.264 29.9473C113.249 29.9562 113.233 29.9637 113.221 29.9667L113.018 30.0294C112.496 30.2719 112.195 30.9918 112.19 32.006L111.888 138.365C111.881 140.879 113.728 144.079 115.921 145.353L186.359 186.081C187.16 186.544 187.911 186.674 188.391 186.429L188.577 186.238C188.609 186.205 188.653 186.186 188.699 186.185L188.751 186.127C188.826 186.034 188.89 185.927 188.941 185.808L189.029 185.581C189.058 185.497 189.084 185.412 189.105 185.318C189.109 185.286 189.117 185.243 189.126 185.202L189.127 185.06C189.127 185.033 189.135 185.006 189.147 184.982L189.162 184.954L189.18 184.781C189.186 184.688 189.193 184.575 189.193 184.466L189.495 78.1063C189.502 75.5848 187.655 72.3847 185.462 71.1179L115.028 30.3923C114.488 30.0827 113.98 29.9186 113.56 29.9186C113.506 29.9186 113.455 29.921 113.384 29.9288C113.364 29.9306 113.345 29.9319 113.327 29.9325L113.264 29.9473Z" fill="#373B42"/>
<path d="M184.011 78.0911C183.984 77.4898 183.234 76.1987 182.718 75.8741L117.653 38.2539L117.369 138.381C117.396 138.985 118.153 140.281 118.676 140.605L183.727 178.218L184.011 78.0911Z" fill="#FFF7E4"/>
<path d="M183.727 178.392C183.697 178.392 183.666 178.384 183.639 178.369L118.588 140.756C118.016 140.402 117.224 139.053 117.194 138.389L117.479 38.2533C117.479 38.1908 117.512 38.1333 117.566 38.1022C117.621 38.0716 117.687 38.0711 117.741 38.1025L182.804 75.7228C183.371 76.0785 184.156 77.4221 184.186 78.083C184.186 78.0857 184.186 78.0885 184.186 78.0911L183.901 178.218C183.901 178.28 183.868 178.338 183.814 178.369C183.787 178.384 183.757 178.392 183.727 178.392ZM117.827 38.5558L117.544 138.381C117.568 138.92 118.301 140.167 118.768 140.457L183.553 177.916L183.836 78.0946C183.809 77.5483 183.086 76.3115 182.625 76.0219L117.827 38.5558Z" fill="#373B42"/>
<path d="M178.695 97.253C178.665 97.253 178.635 97.2455 178.608 97.2295L169.786 92.1282C169.702 92.0801 169.674 91.9734 169.721 91.8898C169.77 91.8059 169.878 91.7772 169.96 91.826L178.782 96.9274C178.866 96.9754 178.894 97.0825 178.846 97.1657C178.814 97.2216 178.755 97.253 178.695 97.253Z" fill="#373B42"/>
<path d="M162.224 87.7305C162.194 87.7305 162.164 87.723 162.137 87.707L137.707 73.5822C137.624 73.5341 137.596 73.4273 137.643 73.3438C137.692 73.2596 137.8 73.2316 137.882 73.28L162.312 87.4049C162.396 87.453 162.424 87.5597 162.376 87.6432C162.343 87.6992 162.285 87.7305 162.224 87.7305Z" fill="#373B42"/>
<path d="M129.16 68.613C129.13 68.613 129.1 68.6054 129.072 68.5894L122.326 64.6882C122.242 64.6401 122.214 64.533 122.262 64.4499C122.311 64.366 122.418 64.3373 122.5 64.3861L129.247 68.2873C129.331 68.3354 129.359 68.4425 129.311 68.5257C129.278 68.5816 129.22 68.613 129.16 68.613Z" fill="#373B42"/>
<path d="M178.696 104.334C178.666 104.334 178.636 104.327 178.609 104.311L160.971 94.1129C160.887 94.0648 160.859 93.9581 160.907 93.8746C160.955 93.7904 161.064 93.7624 161.146 93.8108L178.783 104.009C178.867 104.057 178.895 104.163 178.847 104.247C178.814 104.303 178.756 104.334 178.696 104.334Z" fill="#373B42"/>
<path d="M152.538 89.2115C152.508 89.2115 152.478 89.204 152.45 89.188L138.219 80.9592C138.135 80.9111 138.107 80.8043 138.155 80.7209C138.203 80.637 138.311 80.6083 138.394 80.6571L152.625 88.8858C152.709 88.9339 152.737 89.0406 152.689 89.1242C152.656 89.1801 152.598 89.2115 152.538 89.2115Z" fill="#373B42"/>
<path d="M132.344 77.5344C132.314 77.5344 132.284 77.5269 132.257 77.5109L122.326 71.7685C122.242 71.7205 122.214 71.6137 122.262 71.5302C122.311 71.446 122.418 71.4183 122.5 71.4664L132.431 77.2088C132.515 77.2569 132.543 77.3636 132.495 77.4471C132.463 77.5031 132.404 77.5344 132.344 77.5344Z" fill="#373B42"/>
<path d="M178.694 111.415C178.664 111.415 178.634 111.407 178.607 111.391L174.672 109.116C174.588 109.068 174.56 108.961 174.608 108.878C174.657 108.794 174.765 108.766 174.847 108.814L178.782 111.089C178.865 111.137 178.893 111.244 178.846 111.327C178.813 111.383 178.754 111.415 178.694 111.415Z" fill="#373B42"/>
<path d="M166.447 104.334C166.417 104.334 166.387 104.327 166.36 104.311L144.962 91.9385C144.878 91.8904 144.85 91.7837 144.898 91.7001C144.947 91.6159 145.055 91.5883 145.137 91.6363L166.534 104.008C166.618 104.057 166.646 104.163 166.598 104.247C166.566 104.303 166.507 104.334 166.447 104.334Z" fill="#373B42"/>
<path d="M138.306 88.0629C138.276 88.0629 138.246 88.0554 138.219 88.0394L122.326 78.8497C122.242 78.8017 122.214 78.695 122.262 78.6114C122.311 78.5272 122.418 78.4992 122.5 78.5476L138.394 87.7373C138.478 87.7854 138.506 87.8921 138.458 87.9756C138.425 88.0316 138.366 88.0629 138.306 88.0629Z" fill="#373B42"/>
<path d="M178.694 118.496C178.664 118.496 178.633 118.488 178.606 118.472L159.994 107.711C159.91 107.663 159.882 107.556 159.93 107.472C159.978 107.388 160.086 107.36 160.168 107.409L178.781 118.17C178.865 118.218 178.893 118.325 178.845 118.409C178.812 118.465 178.754 118.496 178.694 118.496Z" fill="#373B42"/>
<path d="M152.538 103.373C152.508 103.373 152.478 103.365 152.45 103.349L133.044 92.1282C132.96 92.0801 132.933 91.973 132.98 91.8898C133.029 91.8059 133.137 91.7772 133.219 91.826L152.625 103.047C152.709 103.095 152.737 103.202 152.689 103.285C152.656 103.341 152.598 103.373 152.538 103.373Z" fill="#373B42"/>
<path d="M126.06 88.0628C126.03 88.0628 126 88.0552 125.972 88.0392L122.326 85.9304C122.242 85.8823 122.214 85.7752 122.262 85.6921C122.311 85.6082 122.418 85.5795 122.5 85.6283L126.147 87.7371C126.231 87.7852 126.259 87.8923 126.211 87.9755C126.178 88.0314 126.12 88.0628 126.06 88.0628Z" fill="#373B42"/>
<path d="M178.694 125.577C178.664 125.577 178.634 125.569 178.607 125.553L167.311 119.022C167.227 118.974 167.199 118.867 167.247 118.784C167.295 118.7 167.403 118.672 167.486 118.72L178.781 125.251C178.865 125.299 178.893 125.406 178.845 125.489C178.813 125.545 178.754 125.577 178.694 125.577Z" fill="#373B42"/>
<path d="M161.058 115.379C161.028 115.379 160.998 115.371 160.971 115.356L141.355 104.014C141.271 103.966 141.243 103.859 141.291 103.775C141.339 103.691 141.448 103.663 141.529 103.712L161.146 115.053C161.229 115.101 161.257 115.208 161.21 115.292C161.177 115.348 161.118 115.379 161.058 115.379Z" fill="#373B42"/>
<path d="M136.553 101.211C136.523 101.211 136.493 101.204 136.466 101.188L122.326 93.0117C122.242 92.9636 122.214 92.8569 122.262 92.7733C122.311 92.6892 122.418 92.6615 122.5 92.7096L136.641 100.886C136.725 100.934 136.753 101.041 136.705 101.124C136.672 101.18 136.614 101.211 136.553 101.211Z" fill="#373B42"/>
<path d="M178.694 132.658C178.664 132.658 178.634 132.65 178.606 132.634L172.958 129.368C172.875 129.32 172.847 129.214 172.894 129.13C172.943 129.046 173.051 129.017 173.133 129.066L178.781 132.332C178.865 132.38 178.893 132.487 178.845 132.57C178.812 132.626 178.754 132.658 178.694 132.658Z" fill="#373B42"/>
<path d="M166.854 125.812C166.824 125.812 166.794 125.804 166.767 125.788L134.211 106.965C134.127 106.917 134.1 106.81 134.147 106.726C134.196 106.642 134.304 106.615 134.386 106.663L166.941 125.486C167.025 125.534 167.053 125.641 167.006 125.725C166.973 125.78 166.914 125.812 166.854 125.812Z" fill="#373B42"/>
<path d="M128.355 103.553C128.325 103.553 128.295 103.545 128.268 103.529L122.326 100.093C122.242 100.045 122.214 99.9377 122.262 99.8545C122.311 99.7703 122.418 99.7424 122.5 99.7908L128.443 103.227C128.527 103.275 128.555 103.382 128.507 103.465C128.474 103.522 128.416 103.553 128.355 103.553Z" fill="#373B42"/>
<path d="M178.694 139.739C178.664 139.739 178.634 139.731 178.606 139.715L164.639 131.639C164.555 131.591 164.527 131.484 164.575 131.401C164.624 131.317 164.731 131.289 164.814 131.337L178.781 139.413C178.865 139.461 178.893 139.568 178.845 139.651C178.812 139.707 178.754 139.739 178.694 139.739Z" fill="#373B42"/>
<path d="M158.058 127.808C158.028 127.808 157.998 127.8 157.97 127.784L138.638 116.606C138.554 116.558 138.526 116.451 138.574 116.368C138.622 116.284 138.73 116.256 138.813 116.304L158.145 127.482C158.229 127.53 158.257 127.637 158.209 127.721C158.176 127.776 158.118 127.808 158.058 127.808Z" fill="#373B42"/>
<path d="M132.648 113.115C132.617 113.115 132.587 113.107 132.56 113.091L122.326 107.173C122.242 107.125 122.214 107.018 122.262 106.935C122.311 106.851 122.418 106.822 122.5 106.871L132.735 112.789C132.819 112.837 132.847 112.944 132.799 113.027C132.766 113.083 132.707 113.115 132.648 113.115Z" fill="#373B42"/>
<path d="M178.693 146.819C178.663 146.819 178.633 146.811 178.606 146.795L155.661 133.529C155.577 133.48 155.549 133.374 155.597 133.29C155.645 133.206 155.753 133.178 155.835 133.226L178.78 146.493C178.864 146.541 178.892 146.648 178.844 146.731C178.811 146.787 178.753 146.819 178.693 146.819Z" fill="#373B42"/>
<path d="M147.771 128.94C147.741 128.94 147.711 128.932 147.684 128.916L130.189 118.801C130.105 118.753 130.077 118.646 130.125 118.563C130.174 118.478 130.281 118.45 130.363 118.499L147.858 128.614C147.942 128.662 147.97 128.769 147.922 128.853C147.89 128.909 147.831 128.94 147.771 128.94Z" fill="#373B42"/>
<path d="M126.479 116.629C126.449 116.629 126.419 116.622 126.392 116.606L122.326 114.255C122.242 114.206 122.214 114.1 122.262 114.016C122.311 113.932 122.418 113.904 122.5 113.952L126.567 116.303C126.65 116.351 126.678 116.458 126.631 116.542C126.598 116.598 126.539 116.629 126.479 116.629Z" fill="#373B42"/>
<path d="M178.695 153.901C178.665 153.901 178.635 153.893 178.607 153.877L173.451 150.895C173.367 150.847 173.339 150.74 173.386 150.657C173.436 150.573 173.543 150.545 173.625 150.593L178.782 153.575C178.866 153.623 178.894 153.73 178.846 153.813C178.813 153.869 178.755 153.901 178.695 153.901Z" fill="#373B42"/>
<path d="M167.828 147.617C167.798 147.617 167.768 147.609 167.741 147.593L140.528 131.859C140.444 131.811 140.416 131.704 140.464 131.621C140.512 131.536 140.621 131.508 140.702 131.557L167.916 147.291C167.999 147.339 168.027 147.446 167.98 147.529C167.947 147.585 167.888 147.617 167.828 147.617Z" fill="#373B42"/>
<path d="M133.24 127.62C133.21 127.62 133.18 127.612 133.153 127.596L122.326 121.336C122.242 121.288 122.214 121.181 122.262 121.097C122.311 121.013 122.418 120.985 122.5 121.034L133.328 127.294C133.411 127.342 133.439 127.449 133.392 127.532C133.359 127.588 133.3 127.62 133.24 127.62Z" fill="#373B42"/>
<path d="M178.695 160.98C178.665 160.98 178.635 160.973 178.607 160.957L165.418 153.331C165.335 153.282 165.307 153.176 165.354 153.092C165.403 153.008 165.511 152.98 165.593 153.028L178.782 160.655C178.866 160.703 178.894 160.809 178.846 160.893C178.813 160.949 178.755 160.98 178.695 160.98Z" fill="#373B42"/>
<path d="M158.059 149.05C158.029 149.05 157.999 149.043 157.971 149.027L144.569 141.277C144.485 141.229 144.457 141.123 144.505 141.039C144.553 140.955 144.661 140.927 144.743 140.975L158.146 148.724C158.23 148.773 158.258 148.879 158.21 148.963C158.177 149.019 158.119 149.05 158.059 149.05Z" fill="#373B42"/>
<path d="M138.267 137.606C138.237 137.606 138.207 137.599 138.18 137.583L122.326 128.416C122.242 128.367 122.214 128.261 122.262 128.177C122.311 128.093 122.418 128.065 122.5 128.113L138.355 137.281C138.439 137.329 138.467 137.435 138.419 137.519C138.386 137.575 138.327 137.606 138.267 137.606Z" fill="#373B42"/>
<path d="M178.694 168.062C178.664 168.062 178.634 168.054 178.606 168.038L169.788 162.939C169.704 162.891 169.676 162.784 169.723 162.701C169.772 162.617 169.88 162.588 169.962 162.637L178.781 167.736C178.865 167.784 178.893 167.891 178.845 167.974C178.812 168.03 178.754 168.062 178.694 168.062Z" fill="#373B42"/>
<path d="M163.646 159.361C163.616 159.361 163.586 159.354 163.559 159.338L149.52 151.22C149.436 151.172 149.408 151.066 149.456 150.982C149.504 150.898 149.612 150.87 149.695 150.918L163.734 159.036C163.817 159.084 163.845 159.19 163.798 159.274C163.765 159.33 163.706 159.361 163.646 159.361Z" fill="#373B42"/>
<path d="M142.835 147.329C142.805 147.329 142.775 147.321 142.748 147.305L122.326 135.497C122.242 135.449 122.214 135.342 122.262 135.259C122.311 135.175 122.418 135.147 122.5 135.195L142.922 147.003C143.006 147.051 143.034 147.158 142.987 147.241C142.954 147.297 142.895 147.329 142.835 147.329Z" fill="#373B42"/>
<path d="M189.147 187.582C189.09 187.582 189.034 187.554 189.001 187.502C188.95 187.424 188.97 187.319 189.046 187.265C189.106 187.221 189.158 187.185 189.203 187.147C189.282 187.084 189.35 187.023 189.42 186.946C189.47 186.896 189.514 186.853 189.55 186.803C189.698 186.619 189.811 186.432 189.901 186.222C189.949 186.13 189.979 186.044 190.007 185.958C190.009 185.945 190.013 185.933 190.017 185.923C190.072 185.788 190.103 185.649 190.133 185.508C190.14 185.458 190.148 185.408 190.163 185.357C190.164 185.336 190.167 185.311 190.176 185.283L190.221 184.866C190.23 184.738 190.238 184.6 190.238 184.469L190.54 78.1096C190.54 77.4975 190.452 76.8542 190.278 76.1988C189.779 74.283 188.621 72.3761 187.18 71.0972C186.78 70.7316 186.39 70.4424 185.985 70.2119L115.546 29.484C114.736 29.0189 113.958 28.8139 113.289 28.8855C113.205 28.8931 113.125 28.8992 113.052 28.921C112.96 28.9401 112.899 28.9555 112.831 28.9783C112.814 28.9889 112.77 29.0018 112.751 29.0066C112.721 29.0144 112.665 29.0332 112.577 29.0776C112.515 29.1045 112.462 29.1267 112.41 29.157C112.326 29.2038 112.22 29.1771 112.172 29.0936C112.124 29.0107 112.151 28.9043 112.234 28.8552L121.277 23.5081C122.222 22.9554 123.46 23.0717 124.765 23.8352L195.202 64.5621C195.629 64.8053 196.04 65.1095 196.457 65.491C197.945 66.8122 199.143 68.7836 199.659 70.7631C199.841 71.4465 199.933 72.1193 199.933 72.7629L199.631 179.123C199.631 180.606 199.118 181.721 198.186 182.261L189.236 187.557C189.209 187.574 189.178 187.582 189.147 187.582ZM190.349 186.033C190.348 186.039 190.346 186.046 190.344 186.052C190.306 186.168 190.269 186.272 190.215 186.374C190.174 186.469 190.127 186.563 190.073 186.656L198.01 181.96C198.83 181.484 199.282 180.476 199.282 179.122L199.584 72.7625C199.584 72.1497 199.495 71.5068 199.321 70.8521C198.822 68.9359 197.664 67.029 196.223 65.7504C195.824 65.3846 195.433 65.0956 195.028 64.8648L124.589 24.1369C123.397 23.4392 122.285 23.3239 121.454 23.8092L113.482 28.5228C114.17 28.5047 114.935 28.73 115.72 29.1816L186.158 69.9092C186.585 70.1524 186.996 70.4561 187.413 70.8378C188.902 72.1593 190.1 74.131 190.615 76.1103C190.797 76.794 190.889 77.4673 190.889 78.1101L190.588 184.47C190.588 184.608 190.579 184.755 190.57 184.885L190.519 185.347C190.517 185.368 190.51 185.389 190.5 185.407C190.49 185.479 190.483 185.52 190.477 185.568C190.444 185.724 190.41 185.878 190.349 186.033Z" fill="#373B42"/>
<path d="M169.677 63.9203L169.684 66.7629L168.944 67.1889L164.858 69.5495C164.299 69.8777 163.789 69.8987 163.433 69.6822C163.426 69.6752 163.426 69.6683 163.419 69.6683C163.412 69.6683 163.412 69.6613 163.405 69.6613C163.377 69.6404 163.349 69.6194 163.329 69.5985C163.301 69.5776 163.273 69.5496 163.252 69.5216C163.224 69.5007 163.203 69.4797 163.189 69.4588C163.105 69.361 163.042 69.2493 162.993 69.1096C162.986 69.0818 162.972 69.0468 162.965 69.0118C162.909 68.8442 162.882 68.6416 162.882 68.4182L162.861 63.6481L162.847 61.092C162.847 60.7428 162.882 60.3796 162.952 60.0095C163.35 57.8095 164.886 55.442 166.723 54.3734L178.714 47.4243L178.735 55.2464L169.663 60.5124L169.677 63.9203Z" fill="#FFBE2E"/>
<path d="M163.966 69.9983C163.738 69.9983 163.527 69.9431 163.342 69.8309C163.334 69.8261 163.326 69.8196 163.318 69.8121C163.312 69.8087 163.306 69.8053 163.301 69.8012C163.266 69.7753 163.232 69.7486 163.205 69.7227C163.185 69.7088 163.154 69.6788 163.127 69.6457C163.091 69.6164 163.063 69.586 163.042 69.5532C162.957 69.4563 162.885 69.3278 162.828 69.1672C162.828 69.1656 162.817 69.1267 162.816 69.1253C162.808 69.0997 162.799 69.0721 162.794 69.0448C162.738 68.8822 162.707 68.6639 162.707 68.418L162.672 61.0926C162.672 60.7308 162.708 60.3557 162.779 59.9768C163.198 57.6665 164.783 55.2995 166.634 54.2218L178.627 47.273C178.68 47.2416 178.747 47.2419 178.801 47.2727C178.855 47.3037 178.889 47.3613 178.889 47.4237L178.91 55.2456C178.91 55.308 178.877 55.3656 178.823 55.397L169.838 60.6121L169.852 63.9193C169.852 63.9193 169.852 63.9193 169.852 63.9196L169.858 66.7624C169.858 66.8248 169.825 66.8828 169.771 66.9141L164.945 69.7003C164.609 69.8982 164.273 69.9983 163.966 69.9983ZM163.544 69.5449C163.861 69.7239 164.306 69.6714 164.769 69.399L169.509 66.662L169.488 60.5127C169.488 60.4503 169.521 60.3923 169.575 60.361L178.561 55.1458L178.54 47.7267L166.81 54.5241C165.069 55.5372 163.518 57.8571 163.123 60.0404C163.055 60.3991 163.021 60.7524 163.021 61.0917L163.056 68.4174C163.056 68.6233 163.082 68.8096 163.131 68.9562L163.148 69.0183C163.149 69.0225 163.161 69.064 163.163 69.0681C163.2 69.17 163.252 69.2635 163.321 69.345C163.335 69.3552 163.382 69.404 163.393 69.4184C163.402 69.432 163.419 69.448 163.433 69.4593C163.461 69.4846 163.48 69.4996 163.498 69.5129C163.5 69.5136 163.501 69.5145 163.503 69.5152C163.518 69.5233 163.532 69.5332 163.544 69.5449Z" fill="#373B42"/>
<g opacity="0.1">
<path d="M100.154 201.853L138.755 179.387L100.22 157.106L61.6201 179.572L100.154 201.853Z" fill="black"/>
</g>
<path d="M100.087 195.427L138.387 173.137L100.153 151.03L61.8535 173.32L100.087 195.427Z" fill="white"/>
<path d="M100.087 195.602C100.057 195.602 100.027 195.595 100 195.579L61.766 173.472C61.7121 173.441 61.6787 173.383 61.6787 173.321C61.6787 173.259 61.7114 173.201 61.7653 173.17L100.066 150.879C100.12 150.848 100.186 150.848 100.241 150.879L138.474 172.987C138.528 173.018 138.562 173.075 138.562 173.137C138.562 173.2 138.529 173.257 138.475 173.289L100.175 195.579C100.148 195.595 100.117 195.602 100.087 195.602ZM62.2011 173.32L100.087 195.226L138.039 173.138L100.153 151.232L62.2011 173.32Z" fill="#373B42"/>
<path d="M100.085 195.428L138.385 173.137L138.509 129.129L100.21 151.42L100.085 195.428Z" fill="#212121"/>
<path d="M100.085 195.602C100.055 195.602 100.025 195.594 99.9974 195.578C99.9436 195.547 99.9102 195.489 99.9102 195.427L100.035 151.419C100.035 151.357 100.068 151.3 100.122 151.268L138.421 128.978C138.476 128.947 138.542 128.947 138.596 128.978C138.65 129.009 138.684 129.067 138.684 129.129L138.559 173.137C138.559 173.199 138.525 173.257 138.472 173.288L100.173 195.578C100.145 195.594 100.115 195.602 100.085 195.602ZM100.384 151.52L100.26 195.123L138.21 173.037L138.334 129.433L100.384 151.52Z" fill="#373B42"/>
<path d="M100.21 151.42L138.509 129.13L100.275 107.022L61.9756 129.313L100.21 151.42Z" fill="#FFF7E4"/>
<path d="M100.21 151.595C100.18 151.595 100.15 151.587 100.123 151.571L61.8891 129.464C61.8352 129.433 61.8018 129.376 61.8018 129.314C61.8018 129.251 61.8345 129.194 61.8883 129.162L100.188 106.872C100.242 106.84 100.309 106.84 100.363 106.872L138.597 128.979C138.651 129.01 138.685 129.068 138.685 129.13C138.685 129.192 138.652 129.25 138.598 129.281L100.298 151.571C100.271 151.587 100.24 151.595 100.21 151.595ZM62.3242 129.313L100.21 151.218L138.162 129.131L100.276 107.225L62.3242 129.313Z" fill="#373B42"/>
<path d="M76.582 137.766L85.4891 142.913L123.791 120.624L114.883 115.477L76.582 137.766Z" fill="#212121"/>
<path d="M85.4892 143.088C85.4592 143.088 85.4291 143.08 85.4019 143.064L76.4945 137.917C76.4407 137.886 76.4072 137.828 76.4072 137.766C76.4072 137.704 76.4399 137.646 76.4938 137.615L114.795 115.326C114.85 115.295 114.916 115.295 114.971 115.326L123.878 120.473C123.932 120.504 123.965 120.562 123.965 120.624C123.965 120.686 123.933 120.744 123.879 120.775L85.5772 143.064C85.5499 143.08 85.5192 143.088 85.4892 143.088ZM76.9297 137.765L85.4893 142.711L123.443 120.625L114.884 115.679L76.9297 137.765Z" fill="#373B42"/>
<path d="M61.8486 173.324L100.088 195.43L100.211 151.423L85.4884 142.913L76.5814 137.765L61.9715 129.316L61.8486 173.324Z" fill="#FFBE2E"/>
<path d="M100.087 195.605C100.057 195.605 100.027 195.597 99.9997 195.582L61.7601 173.475C61.7063 173.444 61.6729 173.386 61.6729 173.324L61.7956 129.317C61.7956 129.254 61.8291 129.197 61.8829 129.166C61.9375 129.135 62.0044 129.135 62.0575 129.166L100.297 151.272C100.351 151.303 100.384 151.361 100.384 151.423L100.262 195.431C100.262 195.493 100.228 195.551 100.174 195.582C100.147 195.597 100.117 195.605 100.087 195.605ZM62.0221 173.224L99.9132 195.128L100.035 151.524L62.1442 129.619L62.0221 173.224Z" fill="#373B42"/>
<path d="M86.3874 169.273C86.4792 169.326 86.5718 169.422 86.6419 169.547L89.1446 174.136C89.3452 174.502 89.1907 174.822 88.8935 174.65L87.8198 174.029L87.7928 183.539C87.7924 183.7 87.677 183.766 87.5364 183.685L85.1654 182.314C85.0216 182.231 84.9102 182.034 84.9107 181.872L84.9376 172.363L83.8639 171.742C83.5667 171.57 83.4144 171.073 83.6133 170.938L86.137 169.255C86.2044 169.209 86.2956 169.22 86.3874 169.273Z" fill="#373B42"/>
<path d="M93.7439 173.526C93.8354 173.579 93.9263 173.674 93.9932 173.798L96.4992 178.388C96.6998 178.755 96.5421 179.073 96.2449 178.901L95.1712 178.28L95.1443 187.789C95.1438 187.951 95.0316 188.019 94.8879 187.936L92.5169 186.565C92.3762 186.483 92.2616 186.284 92.2621 186.123L92.2891 176.613L91.2153 175.992C90.9182 175.821 90.7659 175.324 90.9711 175.192L93.4916 173.507C93.5605 173.463 93.6525 173.474 93.7439 173.526Z" fill="#373B42"/>
<path d="M85.4739 142.873L85.4734 154.598L81.0282 147.329L76.583 149.49L76.5835 137.766L85.4739 142.873Z" fill="#212121"/>
<path d="M85.473 154.771C85.413 154.771 85.3564 154.741 85.3244 154.688L80.9614 147.554L76.6591 149.647C76.6053 149.673 76.5412 149.669 76.49 149.638C76.4389 149.606 76.4082 149.55 76.4082 149.49L76.4089 137.765C76.4089 137.703 76.4424 137.645 76.4962 137.614C76.5495 137.583 76.6162 137.583 76.6708 137.614L85.5611 142.721C85.6149 142.752 85.6483 142.81 85.6483 142.873L85.6476 154.597C85.6476 154.675 85.5958 154.744 85.5201 154.765C85.5044 154.769 85.4887 154.771 85.473 154.771ZM81.0276 147.153C81.0862 147.153 81.1435 147.183 81.1762 147.237L85.2985 153.977L85.2992 142.974L76.7581 138.067L76.7574 149.211L80.9512 147.171C80.9757 147.159 81.0017 147.153 81.0276 147.153Z" fill="#373B42"/>
<path d="M58.2163 196.915C57.2936 196.915 56.3707 196.712 55.6662 196.305L33.7586 183.367C33.6755 183.318 33.6481 183.211 33.6972 183.128C33.745 183.045 33.852 183.017 33.936 183.067L55.8422 196.003C57.1538 196.76 59.2824 196.76 60.5845 196.003L77.8931 185.944C77.9763 185.895 78.0834 185.923 78.1318 186.008C78.1802 186.091 78.1522 186.198 78.069 186.246L60.7604 196.305C60.0599 196.712 59.1385 196.915 58.2163 196.915Z" fill="#DBDEE4"/>
<path d="M34.9439 181.106C36.1929 181.827 36.2 182.997 34.9592 183.718C33.7183 184.439 31.6986 184.439 30.4496 183.717C29.2006 182.996 29.1945 181.827 30.4355 181.106C31.6763 180.385 33.6949 180.385 34.9439 181.106Z" fill="white"/>
<path d="M32.7073 184.43C31.8588 184.43 31.0098 184.243 30.3618 183.868C29.6996 183.486 29.3346 182.967 29.334 182.408C29.3333 181.851 29.6927 181.335 30.3468 180.955C31.6345 180.208 33.7365 180.207 35.0311 180.955C35.6933 181.337 36.0589 181.856 36.0596 182.417C36.0603 182.973 35.7002 183.489 35.0467 183.869C34.4029 184.243 33.555 184.43 32.7073 184.43ZM32.6869 180.738C31.9019 180.738 31.1182 180.911 30.5227 181.257C29.9805 181.572 29.6825 181.981 29.6831 182.407C29.6839 182.837 29.9866 183.249 30.5364 183.566C31.7353 184.259 33.6799 184.259 34.8707 183.567C35.4129 183.252 35.711 182.844 35.7103 182.417C35.7096 181.986 35.4061 181.575 34.8564 181.257C34.2569 180.911 33.4712 180.738 32.6869 180.738Z" fill="#DBDEE4"/>
<path d="M32.7045 183.235C32.2176 183.235 31.7464 183.124 31.4116 182.93C31.1429 182.775 30.9885 182.584 30.9883 182.407C30.9881 182.232 31.1393 182.044 31.4033 181.89C31.7352 181.698 32.2046 181.587 32.6909 181.587C33.1774 181.587 33.6482 181.698 33.9827 181.891C34.2518 182.046 34.4062 182.237 34.4065 182.414C34.4067 182.59 34.2556 182.778 33.9918 182.931C33.66 183.124 33.1908 183.235 32.7045 183.235Z" fill="#FFBE2E"/>
<path d="M43.6997 189.493C43.1768 189.493 42.6707 189.374 42.3112 189.166C42.0225 188.999 41.8568 188.794 41.8564 188.604C41.8562 188.416 42.0186 188.214 42.3022 188.049C42.6587 187.842 43.1627 187.723 43.685 187.723C44.2074 187.723 44.7131 187.842 45.0724 188.05C45.3613 188.216 45.5272 188.421 45.5275 188.612C45.5279 188.8 45.3655 189.002 45.0822 189.167C44.7258 189.374 44.222 189.493 43.6997 189.493Z" fill="#373B42"/>
<path d="M165.225 201.288C163.976 200.566 163.968 199.397 165.209 198.675C166.45 197.954 168.47 197.955 169.719 198.676C170.968 199.397 170.974 200.566 169.733 201.287C168.492 202.008 166.474 202.009 165.225 201.288Z" fill="white"/>
<path d="M167.481 202C166.633 202 165.784 201.813 165.137 201.439C164.475 201.057 164.109 200.537 164.108 199.977C164.108 199.421 164.467 198.905 165.121 198.525C166.41 197.777 168.51 197.777 169.805 198.525C170.468 198.907 170.833 199.426 170.834 199.986C170.835 200.543 170.475 201.058 169.82 201.439C169.177 201.813 168.329 202 167.481 202ZM167.46 198.308C166.676 198.308 165.892 198.481 165.297 198.827C164.755 199.142 164.457 199.55 164.458 199.977C164.458 200.407 164.761 200.819 165.312 201.137C166.511 201.829 168.454 201.829 169.645 201.137C170.187 200.822 170.485 200.413 170.485 199.987C170.484 199.557 170.181 199.145 169.631 198.828C169.031 198.481 168.245 198.308 167.46 198.308Z" fill="#DBDEE4"/>
<path d="M167.465 199.158C167.951 199.158 168.423 199.269 168.758 199.462C169.026 199.618 169.181 199.808 169.181 199.985C169.181 200.161 169.03 200.349 168.766 200.502C168.434 200.695 167.965 200.806 167.478 200.806C166.992 200.806 166.521 200.695 166.186 200.502C165.917 200.347 165.763 200.156 165.763 199.978C165.762 199.803 165.914 199.615 166.177 199.462C166.509 199.269 166.978 199.158 167.465 199.158Z" fill="#FFBE2E"/>
<path d="M156.468 192.9C156.99 192.9 157.497 193.019 157.856 193.227C158.145 193.393 158.31 193.598 158.311 193.788C158.311 193.976 158.149 194.179 157.865 194.343C157.509 194.551 157.004 194.669 156.482 194.669C155.96 194.669 155.454 194.55 155.095 194.343C154.806 194.176 154.64 193.971 154.64 193.781C154.639 193.593 154.802 193.39 155.085 193.226C155.441 193.019 155.945 192.9 156.468 192.9Z" fill="#373B42"/>
<g opacity="0.1">
<path d="M57.2724 104.493C51.8618 107.611 43.0781 107.586 37.6529 104.431C32.2277 101.273 32.2205 96.1822 37.6274 93.0638C43.0381 89.9455 51.8217 89.9709 57.2469 93.1293C62.6721 96.2841 62.6794 101.374 57.2724 104.493Z" fill="black"/>
</g>
<path d="M58.6917 50.5234C58.7041 55.7457 55.0313 62.0918 50.4965 64.7154C48.2102 66.0272 46.149 66.1519 44.6497 65.29L36.7295 60.6802C38.216 61.5547 40.2898 61.4296 42.576 60.1056C47.1108 57.4945 50.7838 51.1359 50.7713 45.9262C50.7588 43.3278 49.8468 41.5162 48.3726 40.6543L56.293 45.264C57.7671 46.1137 58.6793 47.9376 58.6917 50.5234Z" fill="#212121"/>
<path d="M46.8035 66.0156C45.9858 66.0156 45.2294 65.825 44.5617 65.4413L36.674 60.8502C36.663 60.8437 36.6515 60.8372 36.6405 60.8308C36.558 60.782 36.53 60.6753 36.5784 60.5921C36.6268 60.5089 36.7326 60.4813 36.8171 60.5293L36.8498 60.5484C38.3414 61.4068 40.3425 61.197 42.4882 59.9547C46.9712 57.3732 50.6085 51.0805 50.5962 45.9266C50.5846 43.4891 49.7634 41.6701 48.2841 40.8049C48.2009 40.7561 48.173 40.6494 48.2214 40.5661C48.2691 40.4826 48.3755 40.455 48.4601 40.5031V40.5034C48.4609 40.5037 48.4615 40.5041 48.4622 40.5047L56.3806 45.1128C57.9711 46.0298 58.8536 47.9512 58.8659 50.5228C58.8659 50.5228 58.8659 50.5228 58.8659 50.5231C58.8782 55.7826 55.1625 62.2172 50.5833 64.8663C49.2527 65.6299 47.9664 66.0156 46.8035 66.0156ZM38.2801 61.3812L44.7369 65.1389C46.2408 66.0036 48.2555 65.799 50.4093 64.564C54.8909 61.9709 58.5283 55.6727 58.5166 50.5243C58.5051 48.0826 57.6839 46.2681 56.2053 45.4156L49.7335 41.6484C50.5151 42.6923 50.9373 44.1566 50.9455 45.9258C50.9577 51.1915 47.2421 57.6202 42.6629 60.2573C41.0942 61.1653 39.5882 61.5432 38.2801 61.3812Z" fill="#373B42"/>
<path d="M29.0963 67.601C29.1464 85.7155 49.5221 100.17 50.5963 100.932L42.6761 96.3218C41.6016 95.5596 21.2258 81.1182 21.1759 62.9909C21.1385 49.4364 30.6829 32.9211 42.4759 26.1123C48.4225 22.6896 53.8069 22.3644 57.6921 24.6258L65.6125 29.2233C61.7274 26.9746 56.3429 27.2869 50.3964 30.7224C38.6034 37.5308 29.0588 54.0462 29.0963 67.601Z" fill="#212121"/>
<path d="M50.5948 101.107C50.5648 101.107 50.5348 101.099 50.5068 101.083L42.5871 96.4733C40.3698 94.9018 21.0485 80.6917 21.0001 62.9916C20.9626 49.4035 30.5567 32.7919 42.3873 25.9616C48.2057 22.6121 53.6709 22.0853 57.7795 24.4752L65.6992 29.0728C65.7825 29.1212 65.8104 29.228 65.7619 29.3115C65.7135 29.3951 65.6051 29.4227 65.5239 29.375L65.5212 29.3736C61.5122 27.0537 56.1706 27.5874 50.4823 30.8741C38.7486 37.6484 29.2323 54.1243 29.2697 67.6013C29.3181 85.1234 48.5079 99.238 50.6958 100.79C50.7722 100.844 50.792 100.948 50.7415 101.027C50.7081 101.078 50.6522 101.107 50.5948 101.107ZM52.0735 23.3495C49.1633 23.3495 45.9264 24.3275 42.5619 26.2642C30.8282 33.0384 21.3117 49.5142 21.3493 62.9909C21.3977 80.5157 40.5867 94.6277 42.7747 96.1789L48.2105 99.3421C42.5046 94.7869 28.9615 82.4151 28.9205 67.6017C28.883 54.0132 38.4771 37.4016 50.3078 30.5717C55.0022 27.8589 59.475 26.992 63.1968 28.0239L57.6034 24.7771C55.9645 23.8234 54.0985 23.3495 52.0735 23.3495Z" fill="#373B42"/>
<path d="M47.8877 23.7898C51.6647 22.7388 55.031 23.0756 57.6912 24.6273L65.6144 29.2253C62.946 27.6816 59.5796 27.345 55.8029 28.396" fill="#FFBE2E"/>
<path d="M65.6154 29.3994C65.5854 29.3994 65.5554 29.3919 65.5281 29.3759C62.8505 27.8276 59.5038 27.5467 55.8508 28.564C55.7601 28.5909 55.6619 28.536 55.6353 28.4425C55.6094 28.3497 55.664 28.2536 55.7567 28.2277C58.4501 27.4785 60.9832 27.4187 63.2202 28.0367L57.605 24.7779C54.9383 23.2225 51.595 22.9391 47.9359 23.9574C47.8459 23.9851 47.7469 23.9294 47.7203 23.836C47.6944 23.7432 47.749 23.647 47.8418 23.6211C51.5929 22.5769 55.0303 22.8722 57.7803 24.4761L65.7028 29.0737C65.7867 29.1221 65.8147 29.2289 65.7669 29.3123C65.7341 29.3684 65.6754 29.3994 65.6154 29.3994Z" fill="#373B42"/>
<path d="M50.3985 30.7209C62.2032 23.9055 71.8058 29.3685 71.8443 42.924C71.8957 61.0438 51.6625 98.9327 50.5975 100.927C49.5252 100.167 29.1511 85.7223 29.0997 67.6026C29.0613 54.0471 38.6016 37.5319 50.3985 30.7209ZM50.4949 64.7151C55.0333 62.0948 58.7063 55.7422 58.6915 50.5271C58.6768 45.312 54.9798 43.2144 50.4414 45.8346C45.9108 48.4502 42.2379 54.8029 42.2527 60.0181C42.2674 65.2332 45.9643 67.3308 50.4949 64.7151Z" fill="#FFBE2E"/>
<path d="M50.5961 101.101C50.56 101.101 50.5253 101.09 50.4952 101.069C48.2929 99.5077 28.9744 85.3016 28.9239 67.603C28.8858 54.0131 38.4799 37.4002 50.3104 30.5696C56.0995 27.2269 61.5496 26.6908 65.663 29.0565C69.7421 31.4041 71.999 36.3286 72.0181 42.9236C72.068 60.5903 52.9321 96.9242 50.7503 101.009C50.7265 101.053 50.6848 101.085 50.6364 101.097C50.6228 101.1 50.6098 101.101 50.5961 101.101ZM50.3976 30.7206L50.4849 30.8717C38.7506 37.6466 29.2348 54.1239 29.273 67.6022C29.3221 84.7547 47.7056 98.6344 50.5354 100.669C53.1135 95.8275 71.718 60.2772 71.6689 42.9242C71.6505 36.4596 69.4557 31.642 65.4883 29.3593C61.4888 27.0571 56.1594 27.5955 50.4849 30.8718L50.3976 30.7206ZM46.8102 66.0186C45.9959 66.0186 45.2422 65.8283 44.5759 65.445C42.9717 64.5218 42.0845 62.5944 42.0769 60.0181C42.062 54.7575 45.7743 48.3266 50.3527 45.6834C52.615 44.377 54.7519 44.171 56.3669 45.1013C57.9703 46.024 58.8577 47.9508 58.8651 50.5265C58.8801 55.787 55.1644 62.22 50.5812 64.8658C49.2546 65.6319 47.971 66.0186 46.8102 66.0186ZM54.1311 44.8773C53.0297 44.8773 51.8027 45.2493 50.5273 45.9855C46.0457 48.5735 42.4111 54.8679 42.4261 60.0173C42.4329 62.4638 43.2582 64.2838 44.7505 65.1422C46.2523 66.007 48.2615 65.8017 50.4066 64.5638C54.893 61.9731 58.5309 55.6766 58.516 50.5273C58.5092 48.0816 57.6839 46.2622 56.1929 45.4042C55.5811 45.0522 54.8854 44.8773 54.1311 44.8773Z" fill="#373B42"/>
<path d="M41.8244 121.832C42.3531 121.832 42.8647 121.712 43.2282 121.502C43.5201 121.334 43.6876 121.127 43.6879 120.934C43.6881 120.744 43.524 120.54 43.2373 120.373C42.8769 120.164 42.3674 120.043 41.8393 120.043C41.3111 120.043 40.7998 120.164 40.4366 120.373C40.1445 120.542 39.9769 120.749 39.9766 120.942C39.9763 121.132 40.1404 121.337 40.4267 121.503C40.7871 121.712 41.2965 121.832 41.8244 121.832Z" fill="#373B42"/>
<path d="M169.833 64.4705L169.405 64.2192L166.977 62.7244C165.943 62.1232 164.647 62.8691 164.647 64.0653C164.647 64.6174 164.94 65.1279 165.417 65.4057L168.692 67.3962L169.473 67.8509C170.254 68.2988 170.878 69.385 170.878 70.281L170.858 81.3929C170.851 82.2889 170.226 82.6487 169.446 82.2006L127.964 58.0422C127.184 57.5873 126.559 56.5013 126.559 55.6053L126.58 44.4934C126.58 43.5974 127.211 43.2444 127.991 43.6923L131.997 46.053L131.99 43.6364C131.99 43.2766 132.024 42.9033 132.098 42.5299L127.652 39.9182C125.582 38.7168 123.905 39.6806 123.898 42.0564L123.871 54.9468C123.864 57.3294 125.534 60.2211 127.605 61.4226L169.785 85.9748C171.849 87.1695 173.532 86.2124 173.539 83.8298L173.566 70.9463C173.573 68.5637 171.903 65.6651 169.833 64.4705Z" fill="#212121"/>
<path d="M178.715 47.4243L166.723 54.3734C164.886 55.442 163.35 57.8095 162.952 60.0095C162.882 60.3796 162.847 60.7428 162.847 61.092L162.861 63.6481L162.882 68.4182C162.882 68.6417 162.91 68.8442 162.966 69.0118C162.973 69.0468 162.986 69.0818 162.993 69.1096C163.042 69.2493 163.105 69.3611 163.189 69.4588C163.203 69.4797 163.224 69.5007 163.252 69.5216C163.273 69.5496 163.301 69.5775 163.329 69.5985C163.35 69.6194 163.378 69.6404 163.406 69.6613L130.287 50.4413C129.931 50.2389 129.708 49.7987 129.708 49.1703L129.687 44.3303L129.68 41.844C129.68 41.4738 129.715 41.0897 129.791 40.7055C130.203 38.5126 131.733 36.1869 133.556 35.1254L145.547 28.1763L178.715 47.4243Z" fill="#212121"/>
<path d="M163.406 69.836C163.376 69.836 163.346 69.8285 163.318 69.8125L130.2 50.5925C129.771 50.3479 129.534 49.843 129.534 49.1704L129.506 41.8444C129.506 41.4472 129.545 41.0526 129.621 40.6713C130.05 38.3875 131.632 36.044 133.468 34.9747L145.461 28.0255C145.514 27.9941 145.582 27.9941 145.635 28.0255L178.803 47.2734C178.856 47.3048 178.89 47.3625 178.89 47.4245C178.89 47.4869 178.856 47.5442 178.803 47.5755L166.811 54.5243C165.07 55.5375 163.519 57.8574 163.124 60.0406C163.056 60.3994 163.022 60.7527 163.022 61.0919L163.057 68.4176C163.057 68.6236 163.083 68.8098 163.132 68.9565L163.149 69.0186C163.15 69.0227 163.163 69.0643 163.164 69.0683C163.201 69.1703 163.253 69.2634 163.322 69.3453C163.337 69.3555 163.383 69.4043 163.394 69.4186C163.404 69.4322 163.42 69.4482 163.434 69.4596C163.468 69.4899 163.49 69.5056 163.511 69.5213C163.585 69.5765 163.603 69.6802 163.552 69.7576C163.519 69.808 163.463 69.836 163.406 69.836ZM145.548 28.3783L133.644 35.2764C131.89 36.2984 130.376 38.5443 129.964 40.7381C129.891 41.0985 129.855 41.47 129.855 41.844L129.883 49.1697C129.883 49.7119 130.058 50.1092 130.375 50.2896L162.814 69.1158C162.807 69.093 162.8 69.069 162.795 69.0452C162.739 68.8826 162.708 68.6643 162.708 68.4184L162.673 61.093C162.673 60.7311 162.709 60.3561 162.78 59.9772C163.199 57.6668 164.784 55.2998 166.636 54.2222L178.368 47.4244L145.548 28.3783Z" fill="#373B42"/>
</g>
</svg>
