<svg width="266" height="209" viewBox="0 0 266 209" fill="none" xmlns="http://www.w3.org/2000/svg">
<path d="M80.4006 180.915L127.901 150.915M127.901 150.915L159.901 172.915M127.901 150.915L175.901 117.415" stroke="black" stroke-width="0.3"/>
<path d="M71.4006 110.915L116.945 144.137" stroke="#212121" stroke-width="0.3"/>
<path d="M46.5498 74.1148L46.7069 123.317C46.7152 124.797 47.236 125.839 48.0792 126.326L52.3283 128.807C52.2291 128.74 52.1299 128.674 52.0389 128.592L52.0306 128.583C51.9645 128.534 51.9066 128.476 51.8487 128.41L51.8405 128.401C51.766 128.319 51.6999 128.236 51.6338 128.137L51.6255 128.128C51.5511 128.029 51.4849 127.922 51.4353 127.806C51.3858 127.723 51.3444 127.633 51.3114 127.533C51.2701 127.442 51.237 127.343 51.2039 127.236C51.1709 127.136 51.146 127.021 51.1213 126.913C51.1047 126.847 51.0964 126.781 51.0882 126.715C51.0882 126.707 51.0799 126.69 51.0799 126.682C51.0716 126.624 51.0634 126.558 51.0551 126.5C51.0468 126.417 51.0386 126.335 51.0303 126.252C51.022 126.111 51.0138 125.971 51.0138 125.83L50.8567 76.6278C50.8484 73.6518 52.9316 70.0309 55.5274 68.5346L96.8279 44.7203C97.7289 44.1995 98.5722 44.0093 99.2831 44.1002C99.3823 44.1085 99.4815 44.1333 99.5724 44.158C99.5807 44.158 99.5889 44.158 99.5889 44.158C99.6799 44.1829 99.7709 44.2159 99.8617 44.2491C99.8783 44.2574 99.8866 44.2574 99.9031 44.2656C99.9858 44.2987 100.06 44.34 100.135 44.3812L95.8608 41.8846C95.0093 41.3887 93.8271 41.4548 92.5209 42.2071L51.2206 66.0216C48.6331 67.518 46.5416 71.1389 46.5498 74.1148Z" fill="#212121"/>
<path d="M52.328 128.955C52.3023 128.955 52.2762 128.949 52.2529 128.935L48.0038 126.455C47.0795 125.921 46.5659 124.807 46.5577 123.318L46.4007 74.1154V74.1151C46.3925 71.0989 48.5208 67.4103 51.146 65.8926L92.4464 42.0781C93.7574 41.3231 94.9958 41.2088 95.9352 41.7561L100.209 44.2527C100.28 44.2937 100.304 44.3838 100.263 44.4547C100.223 44.526 100.133 44.551 100.062 44.5115C99.993 44.4731 99.9244 44.4344 99.8476 44.4042C99.8225 44.3945 99.8109 44.3902 99.7952 44.3823C99.7278 44.3587 99.6463 44.3291 99.5649 44.3061C99.5532 44.3053 99.5405 44.3038 99.5335 44.3018C99.4485 44.2788 99.3584 44.2558 99.2706 44.2486C98.5597 44.1578 97.7396 44.3647 96.902 44.8492L55.6016 68.6637C53.0591 70.1289 50.9971 73.7015 51.0052 76.6277L51.1623 125.83C51.1623 125.968 51.1705 126.105 51.1792 126.243L51.2275 126.661C51.2322 126.676 51.2368 126.699 51.2368 126.715C51.2431 126.757 51.2507 126.817 51.2658 126.877L51.2787 126.933C51.2985 127.02 51.3188 127.11 51.345 127.189C51.377 127.293 51.4078 127.386 51.4467 127.472C51.4816 127.574 51.5188 127.656 51.563 127.73C51.6131 127.843 51.6706 127.941 51.7445 128.039C51.8196 128.147 51.8812 128.224 51.951 128.302C52.0173 128.377 52.068 128.425 52.1197 128.464C52.2221 128.557 52.3134 128.618 52.4105 128.683C52.4774 128.727 52.4966 128.817 52.4541 128.885C52.4263 128.93 52.3774 128.955 52.328 128.955ZM46.6986 74.1143L46.8557 123.317C46.8633 124.695 47.3239 125.718 48.1534 126.197L51.4322 128.111C51.3775 128.029 51.3333 127.946 51.2985 127.865C51.2525 127.791 51.206 127.689 51.1699 127.58C51.1321 127.499 51.0966 127.394 51.0611 127.28C51.0332 127.195 51.0099 127.096 50.9884 126.999L50.9762 126.947C50.9587 126.877 50.9488 126.805 50.9401 126.733C50.9349 126.718 50.9308 126.698 50.9308 126.682L50.8819 126.267C50.8726 126.117 50.8645 125.974 50.8645 125.83L50.7074 76.6285C50.6993 73.6073 52.8282 69.9186 55.4527 68.4055L96.7531 44.5913C97.5599 44.1251 98.3597 43.8948 99.0711 43.9329L95.7852 42.0134C94.9413 41.5225 93.8087 41.6368 92.5953 42.3365L51.2949 66.1506C48.7525 67.6205 46.6911 71.1931 46.6986 74.1143Z" fill="#383C43"/>
<path d="M52.328 128.955C52.3023 128.955 52.2762 128.949 52.2529 128.935L48.0038 126.455C47.0795 125.921 46.5659 124.807 46.5577 123.318L46.4007 74.1154V74.1151C46.3925 71.0989 48.5208 67.4103 51.146 65.8926L92.4464 42.0781C93.7574 41.3231 94.9958 41.2088 95.9352 41.7561L100.209 44.2527C100.28 44.2937 100.304 44.3838 100.263 44.4547C100.223 44.526 100.133 44.551 100.062 44.5115C99.993 44.4731 99.9244 44.4344 99.8476 44.4042C99.8225 44.3945 99.8109 44.3902 99.7952 44.3823C99.7278 44.3587 99.6463 44.3291 99.5649 44.3061C99.5532 44.3053 99.5405 44.3038 99.5335 44.3018C99.4485 44.2788 99.3584 44.2558 99.2706 44.2486C98.5597 44.1578 97.7396 44.3647 96.902 44.8492L55.6016 68.6637C53.0591 70.1289 50.9971 73.7015 51.0052 76.6277L51.1623 125.83C51.1623 125.968 51.1705 126.105 51.1792 126.243L51.2275 126.661C51.2322 126.676 51.2368 126.699 51.2368 126.715C51.2431 126.757 51.2507 126.817 51.2658 126.877L51.2787 126.933C51.2985 127.02 51.3188 127.11 51.345 127.189C51.377 127.293 51.4078 127.386 51.4467 127.472C51.4816 127.574 51.5188 127.656 51.563 127.73C51.6131 127.843 51.6706 127.941 51.7445 128.039C51.8196 128.147 51.8812 128.224 51.951 128.302C52.0173 128.377 52.068 128.425 52.1197 128.464C52.2221 128.557 52.3134 128.618 52.4105 128.683C52.4774 128.727 52.4966 128.817 52.4541 128.885C52.4263 128.93 52.3774 128.955 52.328 128.955ZM46.6986 74.1143L46.8557 123.317C46.8633 124.695 47.3239 125.718 48.1534 126.197L51.4322 128.111C51.3775 128.029 51.3333 127.946 51.2985 127.865C51.2525 127.791 51.206 127.689 51.1699 127.58C51.1321 127.499 51.0966 127.394 51.0611 127.28C51.0332 127.195 51.0099 127.096 50.9884 126.999L50.9762 126.947C50.9587 126.877 50.9488 126.805 50.9401 126.733C50.9349 126.718 50.9308 126.698 50.9308 126.682L50.8819 126.267C50.8726 126.117 50.8645 125.974 50.8645 125.83L50.7074 76.6285C50.6993 73.6073 52.8282 69.9186 55.4527 68.4055L96.7531 44.5913C97.5599 44.1251 98.3597 43.8948 99.0711 43.9329L95.7852 42.0134C94.9413 41.5225 93.8087 41.6368 92.5953 42.3365L51.2949 66.1506C48.7525 67.6205 46.6911 71.1931 46.6986 74.1143Z" fill="#383C43"/>
<path d="M50.8572 76.6283L51.0143 125.831C51.0143 125.971 51.0225 126.112 51.0308 126.252C51.0391 126.335 51.0474 126.418 51.0557 126.5C51.064 126.558 51.0722 126.624 51.0804 126.682C51.0804 126.691 51.0887 126.707 51.0887 126.715C51.097 126.782 51.1053 126.848 51.1218 126.914C51.1465 127.021 51.1714 127.137 51.2044 127.236C51.2375 127.344 51.2706 127.443 51.3119 127.534C51.345 127.633 51.3863 127.724 51.4359 127.807C51.4938 127.922 51.5599 128.03 51.626 128.129L51.6343 128.137C51.7004 128.236 51.7666 128.319 51.841 128.402L51.8492 128.41C51.9071 128.476 51.9649 128.534 52.0312 128.584L52.0395 128.592C52.1304 128.675 52.2296 128.741 52.3288 128.807L52.3371 128.815C53.1886 129.336 54.3873 129.278 55.7099 128.509L97.0103 104.703C99.6061 103.207 101.698 99.578 101.689 96.6019L101.532 47.4077C101.524 45.9114 100.995 44.8698 100.135 44.382C100.061 44.3407 99.9864 44.2994 99.9036 44.2664C99.8871 44.2581 99.8789 44.2581 99.8623 44.2498C99.7714 44.2168 99.6804 44.1836 99.5895 44.1588C99.5895 44.1588 99.5812 44.1588 99.5729 44.1588C99.4821 44.134 99.3828 44.1093 99.2836 44.101C98.5727 44.01 97.7294 44.2002 96.8284 44.721L55.5279 68.5353C52.9321 70.0314 50.8489 73.6523 50.8572 76.6283Z" fill="#FFF7E4"/>
<path d="M53.6016 129.3C53.1072 129.3 52.6512 129.181 52.2586 128.942C52.2487 128.935 52.2313 128.92 52.2231 128.912C52.144 128.862 52.0387 128.792 51.9393 128.702C51.8724 128.65 51.8072 128.588 51.7369 128.507C51.6438 128.405 51.5757 128.318 51.51 128.219C51.4327 128.107 51.3635 127.994 51.3024 127.873C51.253 127.791 51.2064 127.689 51.1703 127.58C51.1325 127.499 51.097 127.394 51.0615 127.279C51.0335 127.195 51.0103 127.096 50.9887 126.999L50.9765 126.947C50.9591 126.877 50.9492 126.805 50.9405 126.733C50.9352 126.718 50.9312 126.698 50.9312 126.682L50.8823 126.267C50.873 126.117 50.8649 125.974 50.8649 125.83L50.7078 76.6285V76.6282C50.6997 73.6073 52.8286 69.9187 55.4531 68.4054L96.7535 44.5913C97.6476 44.075 98.5287 43.854 99.3024 43.9526C99.4025 43.9607 99.506 43.986 99.5962 44.0101C99.6084 44.011 99.6212 44.0124 99.6282 44.0145C99.723 44.0404 99.8184 44.0747 99.9132 44.1093C99.9423 44.1201 99.9551 44.1247 99.9719 44.1334C100.047 44.1628 100.127 44.2067 100.207 44.2509C101.15 44.7861 101.673 45.9064 101.681 47.4062L101.838 96.6007C101.846 99.6234 99.7137 103.315 97.0845 104.832L55.7841 128.638C55.0267 129.078 54.2781 129.3 53.6016 129.3ZM51.0056 76.6273L51.1627 125.83C51.1627 125.967 51.1708 126.105 51.1796 126.243L51.2272 126.661C51.2324 126.676 51.2371 126.699 51.2371 126.715C51.2435 126.757 51.2511 126.817 51.2662 126.877L51.279 126.933C51.2988 127.02 51.3192 127.11 51.3453 127.188C51.3773 127.293 51.4082 127.386 51.4471 127.471C51.482 127.574 51.5192 127.656 51.5634 127.73C51.6239 127.849 51.6861 127.951 51.7496 128.046C51.8199 128.147 51.8816 128.224 51.9514 128.301C52.0177 128.377 52.0684 128.425 52.1201 128.464C52.2224 128.557 52.3137 128.618 52.4109 128.682C52.419 128.688 52.4348 128.702 52.4418 128.709C53.2608 129.205 54.4037 129.095 55.6346 128.38L96.9356 104.573C99.4828 103.105 101.548 99.529 101.54 96.6015L101.383 47.4075C101.375 46.019 100.906 44.9901 100.061 44.5105C99.9934 44.473 99.9248 44.4343 99.8479 44.404C99.8229 44.3944 99.8112 44.3901 99.7956 44.3822C99.7281 44.3586 99.6466 44.329 99.5652 44.306C99.5536 44.3051 99.5408 44.3037 99.5338 44.3017C99.4489 44.2787 99.3587 44.2557 99.2709 44.2485C98.5601 44.1577 97.74 44.3648 96.9024 44.849L55.602 68.6636C53.0595 70.1288 50.9981 73.7014 51.0056 76.6273Z" fill="#383C43"/>
<path d="M57.5273 74.8249C58.4038 74.3189 59.1119 74.7357 59.1148 75.7426C59.1178 76.7631 58.4143 77.9814 57.5377 78.4874C56.6384 79.0066 55.9303 78.6033 55.9275 77.5828C55.9246 76.5759 56.628 75.3441 57.5273 74.8249Z" fill="#383C43"/>
<path d="M56.8022 78.863C56.6254 78.863 56.4614 78.8217 56.3166 78.7382C55.971 78.5393 55.7803 78.1293 55.7786 77.5828C55.7757 76.5076 56.5109 75.2392 57.4526 74.6956C57.9232 74.4237 58.3734 74.385 58.7201 74.5854C59.0691 74.7863 59.2622 75.197 59.2634 75.742C59.2663 76.8172 58.541 78.0795 57.612 78.6157C57.3275 78.7801 57.0518 78.863 56.8022 78.863ZM58.232 74.7572C58.0418 74.7572 57.8272 74.8233 57.6015 74.9532C56.7574 75.4404 56.0734 76.6197 56.0763 77.5821C56.0775 78.0174 56.2159 78.3365 56.4648 78.4798C56.7178 78.6259 57.0727 78.5825 57.4629 78.358C58.2942 77.8782 58.9683 76.705 58.9654 75.7425C58.9642 75.3083 58.8247 74.989 58.5716 74.8433C58.4716 74.7858 58.357 74.7572 58.232 74.7572Z" fill="#383C43"/>
<path d="M63.3623 75.0746C63.1855 75.0746 63.0214 75.0333 62.876 74.9499C62.5304 74.751 62.3397 74.3406 62.3379 73.7944C62.335 72.7195 63.0702 71.4511 64.0125 70.9073C64.4826 70.6359 64.9328 70.597 65.2794 70.7968C65.6284 70.9977 65.8216 71.4084 65.8232 71.9538C65.8262 73.029 65.1008 74.2912 64.1718 74.8275C63.8875 74.9918 63.6118 75.0746 63.3623 75.0746ZM64.7921 70.969C64.6018 70.969 64.3872 71.035 64.1615 71.165C63.3175 71.6524 62.6329 72.8315 62.6358 73.7938C62.637 74.2292 62.7754 74.5479 63.0249 74.6916C63.2786 74.8373 63.6328 74.7946 64.0231 74.5698C64.8543 74.0898 65.5284 72.9167 65.5255 71.9543C65.5244 71.5201 65.3842 71.2004 65.1312 71.055C65.0311 70.9974 64.9171 70.969 64.7921 70.969Z" fill="#383C43"/>
<path d="M69.9216 71.2876C69.7448 71.2876 69.5808 71.2461 69.436 71.1625C69.0904 70.9639 68.8996 70.5536 68.898 70.0073C68.895 68.9321 69.6303 67.6638 70.572 67.1202C71.0414 66.8494 71.4921 66.8093 71.8395 67.01C72.1885 67.2106 72.3816 67.6213 72.3833 68.1663C72.3862 69.2413 71.6609 70.5041 70.7314 71.0404C70.4468 71.2047 70.1711 71.2876 69.9216 71.2876ZM71.3513 67.1819C71.1611 67.1819 70.9465 67.2479 70.7208 67.3779C69.8767 67.865 69.1927 69.0444 69.1956 70.0067C69.1968 70.4421 69.3347 70.7608 69.5841 70.9045C69.8371 71.0499 70.192 71.0078 70.5822 70.7827C71.414 70.3025 72.0882 69.1293 72.0853 68.1669C72.0842 67.733 71.944 67.4137 71.691 67.268C71.591 67.2104 71.4764 67.1819 71.3513 67.1819Z" fill="#383C43"/>
<path d="M87.9061 80.1805C87.446 79.1287 86.8264 78.2652 86.0667 77.6097L89.1911 72.5625C90.3365 73.4987 91.2581 74.7788 91.9101 76.3676L87.9061 80.1805Z" fill="#FFBE2E"/>
<path d="M92.4127 77.8408C92.8014 79.2315 93.0077 80.815 93.0126 82.5717C93.0137 82.9388 93.0034 83.3124 92.9891 83.6839L88.7969 85.5965C88.804 85.3999 88.8072 85.201 88.8067 85C88.8031 83.7677 88.6629 82.6494 88.4087 81.6494L92.4127 77.8408Z" fill="#FFBE2E"/>
<path d="M79.6694 104.207C80.8587 103.14 81.9751 101.917 82.9921 100.586L85.4827 103.07C83.9914 105.06 82.332 106.88 80.5613 108.437L79.6694 104.207Z" fill="#978050"/>
<path d="M84.2903 98.7463C85.2233 97.3103 86.0455 95.7851 86.7192 94.2275L90.3768 94.545C89.4006 96.8594 88.1805 99.1176 86.7771 101.232L84.2903 98.7463Z" fill="#978050"/>
<path d="M84.9861 76.8583C84.1162 76.3844 83.1214 76.1228 82.0356 76.0931L83.7382 70.6807C85.3647 70.6826 86.8399 71.0652 88.1105 71.8068L84.9861 76.8583Z" fill="#FFBE2E"/>
<path d="M76.2791 106.699C76.8952 106.343 77.4998 105.942 78.0965 105.501L78.9845 109.733C78.1103 110.404 77.2093 111.007 76.2928 111.536C67.0252 116.887 59.49 112.593 59.4598 101.943C59.4305 91.6088 66.4838 79.0846 75.3775 73.4641C75.6436 73.2973 75.9136 73.1327 76.1836 72.9767C76.4498 72.823 76.7198 72.6759 76.9823 72.5375C78.8383 71.5665 80.6156 70.9868 82.2682 70.7725L80.5657 76.1937C79.4424 76.3608 78.2437 76.7552 76.9961 77.388C76.7336 77.5132 76.4635 77.6647 76.1974 77.8185C75.9273 77.9744 75.6536 78.1411 75.3913 78.3145C68.825 82.5826 63.6442 91.8503 63.6659 99.515C63.6884 107.494 69.3351 110.708 76.2791 106.699Z" fill="#FFBE2E"/>
<path d="M92.8265 85.6133C92.6776 86.876 92.4215 88.1566 92.0939 89.4373C91.8377 90.4498 91.5339 91.4624 91.1766 92.475L87.5134 92.1593C87.7993 91.3433 88.0376 90.5154 88.2341 89.6934C88.4068 88.9667 88.5379 88.246 88.6333 87.5312L92.8265 85.6133Z" fill="#FFBE2E"/>
<path d="M69.7315 92.0808C70.3809 91.7059 70.9024 91.6102 71.2819 91.8099C71.6684 92.0057 71.8554 92.4151 71.8572 93.0301C71.8581 93.3417 71.809 93.6739 71.6956 94.0433C71.5823 94.4126 71.3976 94.8396 71.1417 95.3241C70.8858 95.8086 70.4589 96.515 69.861 97.4433C69.3558 98.2197 69.0356 98.733 68.8933 98.9877C68.7512 99.2423 68.6374 99.4804 68.5452 99.7061L71.8849 97.7779L71.8875 98.7045L67.3846 101.304C67.3768 101.079 67.4119 100.837 67.4826 100.582C67.5959 100.164 67.7732 99.7082 68.0291 99.2238C68.278 98.7352 68.6408 98.1314 69.1176 97.4044C69.8578 96.2789 70.3558 95.4411 70.6116 94.8828C70.8745 94.3203 71.0018 93.8608 71.0008 93.5C70.9997 93.1228 70.8775 92.8648 70.6413 92.7465C70.4051 92.6201 70.0979 92.6661 69.7124 92.8886C69.3129 93.1193 68.9922 93.4441 68.7502 93.8548C68.5083 94.2737 68.3881 94.7292 68.3824 95.2253L67.5258 95.6213C67.5808 94.8504 67.8004 94.1569 68.1847 93.5489C68.5689 92.941 69.0822 92.4558 69.7315 92.0808Z" fill="#383C43"/>
<path d="M76.2902 93.4036L77.2108 92.8721L77.2133 93.7496L76.2927 94.281L76.298 96.1588L75.4631 96.6409L75.4578 94.7631L72.5035 96.4687L72.501 95.5913L75.5979 88.7274L76.2758 88.3359L76.2902 93.4036ZM75.4553 93.8856L75.4453 90.3596L73.3215 95.1175L75.4553 93.8856Z" fill="#383C43"/>
<path d="M80.3004 85.8721L78.3537 95.1026L77.6829 95.49L79.6295 86.2594L80.3004 85.8721Z" fill="#383C43"/>
<path d="M85.1604 83.3047L85.1626 84.0509C84.7288 84.8352 84.3026 85.7876 83.877 86.9121C83.4584 88.0326 83.1326 89.1242 82.8998 90.1949C82.7376 90.9375 82.6326 91.7209 82.5847 92.5288L81.7284 93.0232C81.7338 92.4041 81.8387 91.5961 82.036 90.6116C82.2334 89.627 82.5236 88.6135 82.8924 87.5874C83.2683 86.5572 83.666 85.6459 84.0926 84.8493L80.7529 86.7775L80.7502 85.8509L85.1604 83.3047Z" fill="#383C43"/>
<path d="M160.868 193.815C159.791 193.193 159.785 192.185 160.854 191.563C161.924 190.941 163.666 190.941 164.743 191.563C165.819 192.185 165.825 193.193 164.755 193.815C163.685 194.436 161.944 194.437 160.868 193.815Z" fill="white"/>
<path d="M92.9586 125.915C92.5078 125.915 92.0715 126.018 91.7614 126.197C91.5125 126.34 91.3697 126.517 91.3694 126.681C91.3691 126.843 91.5092 127.017 91.7537 127.16C92.061 127.338 92.4956 127.441 92.9459 127.441C93.3964 127.441 93.8324 127.338 94.1421 127.159C94.3912 127.015 94.5343 126.839 94.5346 126.674C94.5347 126.512 94.3948 126.338 94.1505 126.196C93.8434 126.017 93.409 125.915 92.9586 125.915Z" fill="#212121"/>
<path d="M154.99 131.415C154.539 131.415 154.103 131.518 153.793 131.697C153.544 131.84 153.401 132.017 153.401 132.181C153.4 132.343 153.54 132.517 153.785 132.66C154.092 132.838 154.527 132.941 154.977 132.941C155.428 132.941 155.864 132.838 156.173 132.659C156.422 132.515 156.566 132.339 156.566 132.174C156.566 132.012 156.426 131.838 156.182 131.696C155.875 131.517 155.44 131.415 154.99 131.415Z" fill="#212121"/>
<path d="M152.99 167.415C152.539 167.415 152.103 167.518 151.793 167.697C151.544 167.84 151.401 168.017 151.401 168.181C151.4 168.343 151.54 168.517 151.785 168.66C152.092 168.838 152.527 168.941 152.977 168.941C153.428 168.941 153.864 168.838 154.173 168.659C154.422 168.515 154.566 168.339 154.566 168.174C154.566 168.012 154.426 167.838 154.182 167.696C153.875 167.517 153.44 167.415 152.99 167.415Z" fill="#212121"/>
<path d="M95.9899 170.415C95.5391 170.415 95.1027 170.518 94.7927 170.697C94.5438 170.84 94.4009 171.017 94.4006 171.181C94.4004 171.343 94.5405 171.517 94.7849 171.66C95.0923 171.838 95.5268 171.941 95.9772 171.941C96.4276 171.941 96.8636 171.838 97.1734 171.659C97.4225 171.515 97.5655 171.339 97.5658 171.174C97.566 171.012 97.426 170.838 97.1818 170.696C96.8747 170.517 96.4402 170.415 95.9899 170.415Z" fill="#212121"/>
<path d="M153.741 177.043C152.56 176.362 152.553 175.258 153.727 174.578C154.9 173.897 156.81 173.897 157.992 174.578C159.173 175.258 159.179 176.362 158.005 177.042C156.832 177.723 154.922 177.723 153.741 177.043Z" fill="white"/>
<path d="M85.4521 165.452C84.2708 164.771 84.264 163.667 85.4377 162.987C86.6114 162.306 88.5216 162.307 89.703 162.987C90.8843 163.668 90.89 164.771 89.7164 165.451C88.5427 166.132 86.6335 166.132 85.4521 165.452Z" fill="white"/>
<path d="M159.24 149.363L159.203 156.99C159.203 157.531 158.846 158.081 158.126 158.498L130.36 174.627C130.03 174.82 129.649 174.966 129.246 175.067C128.792 175.186 128.301 175.246 127.811 175.255C127.362 175.26 126.912 175.218 126.486 175.127C125.982 175.026 125.51 174.861 125.106 174.627L97.1151 158.471C96.3771 158.04 96.0149 157.49 96.0149 156.931L96.0424 149.312C96.0424 149.862 96.4183 150.417 97.1426 150.843L125.143 167C125.537 167.229 125.996 167.399 126.486 167.499C126.912 167.596 127.361 167.637 127.811 167.637C128.301 167.632 128.787 167.577 129.246 167.463C129.663 167.357 130.052 167.206 130.396 167.009L158.163 150.88C158.873 150.463 159.24 149.913 159.24 149.363Z" fill="#212121"/>
<path d="M129.246 167.463V175.067C128.793 175.187 128.302 175.246 127.812 175.255C127.362 175.26 126.913 175.219 126.487 175.127V167.5C126.913 167.596 127.362 167.637 127.812 167.637C128.302 167.632 128.788 167.577 129.246 167.463Z" fill="#FFBE2E"/>
<path d="M127.748 175.416C126.719 175.416 125.755 175.186 125.026 174.767L97.0352 158.61C96.2737 158.166 95.8545 157.57 95.8545 156.931L95.882 149.312C95.8827 149.224 95.9541 149.152 96.0424 149.152C96.1314 149.153 96.2029 149.224 96.2029 149.313C96.2029 149.816 96.5751 150.323 97.2238 150.706L125.223 166.861C125.911 167.263 126.834 167.494 127.81 167.477C128.756 167.472 129.646 167.257 130.316 166.87L158.082 150.742C158.721 150.366 159.075 149.88 159.08 149.373V149.364C159.08 149.364 159.08 149.363 159.08 149.363V149.363C159.08 149.274 159.152 149.203 159.24 149.203C159.24 149.203 159.24 149.203 159.241 149.203C159.329 149.203 159.401 149.275 159.401 149.363C159.401 149.363 159.401 149.364 159.401 149.364C159.401 149.368 159.401 149.372 159.401 149.376L159.364 156.991C159.364 157.62 158.953 158.205 158.206 158.637L130.441 174.766C129.746 175.17 128.813 175.401 127.813 175.416C127.791 175.416 127.77 175.416 127.748 175.416ZM96.1998 150.233L96.1754 156.932C96.1754 157.451 96.5383 157.948 97.1963 158.332L125.186 174.489C125.881 174.889 126.825 175.108 127.81 175.095C128.754 175.081 129.632 174.866 130.279 174.489L158.045 158.36C158.689 157.987 159.043 157.501 159.043 156.991L159.076 150.3C158.88 150.566 158.601 150.81 158.245 151.019L130.477 167.149C129.759 167.562 128.813 167.793 127.812 167.798C126.779 167.79 125.798 167.569 125.062 167.139L97.0623 150.983C96.6899 150.763 96.3991 150.509 96.1998 150.233Z" fill="#373B42"/>
<path d="M158.141 147.831C159.597 148.672 159.605 150.036 158.158 150.877L130.398 167.007C128.95 167.847 126.6 167.845 125.144 167.004L97.148 150.843C95.6914 150.003 95.679 148.641 97.126 147.801L124.887 131.671C126.333 130.83 128.689 130.83 130.145 131.671L158.141 147.831Z" fill="#FFF7E4"/>
<path d="M127.778 167.794C126.797 167.794 125.813 167.577 125.063 167.144L97.0676 150.983C96.3074 150.544 95.8881 149.952 95.8875 149.315C95.8862 148.684 96.2974 148.097 97.045 147.663L124.805 131.533C126.295 130.668 128.726 130.667 130.225 131.533L158.22 147.694C158.979 148.131 159.397 148.723 159.398 149.36C159.399 149.993 158.987 150.581 158.238 151.016L130.478 167.147C129.735 167.578 128.758 167.794 127.778 167.794ZM127.512 131.2C126.589 131.2 125.667 131.403 124.967 131.81L97.2066 147.94C96.5617 148.315 96.2076 148.803 96.2083 149.315C96.2089 149.832 96.5711 150.326 97.2279 150.705L125.223 166.866C126.635 167.68 128.919 167.681 130.316 166.869L158.077 150.739C158.723 150.364 159.078 149.874 159.077 149.36C159.076 148.843 158.715 148.35 158.06 147.971L130.064 131.81C129.359 131.403 128.435 131.2 127.512 131.2Z" fill="#373B42"/>
<g opacity="0.1">
<path d="M139.291 145.728C145.99 149.595 146.028 155.869 139.373 159.736C132.717 163.603 121.885 163.601 115.186 159.734C108.487 155.867 108.455 149.597 115.11 145.73C121.765 141.863 132.592 141.862 139.291 145.728Z" fill="#373B42"/>
<path d="M127.298 162.79C122.889 162.79 118.474 161.818 115.106 159.874C111.804 157.968 109.984 155.424 109.979 152.71C109.975 150.014 111.769 147.486 115.029 145.592C121.719 141.705 132.64 141.703 139.371 145.59C142.675 147.497 144.496 150.043 144.5 152.758C144.504 155.454 142.711 157.982 139.453 159.875C136.109 161.818 131.706 162.79 127.298 162.79ZM127.187 142.992C122.836 142.992 118.493 143.951 115.191 145.869C112.034 147.704 110.297 150.133 110.3 152.71C110.304 155.304 112.067 157.75 115.266 159.596C121.912 163.433 132.691 163.433 139.292 159.597C142.447 157.764 144.183 155.335 144.179 152.759C144.176 150.163 142.411 147.715 139.211 145.868C135.89 143.951 131.535 142.992 127.187 142.992Z" fill="#373B42"/>
</g>
<path d="M144.34 145.238L144.32 150.473C144.312 152.992 142.661 155.506 139.354 157.428C136.537 159.063 132.98 160.007 129.298 160.257C127.925 160.354 126.533 160.35 125.16 160.253C121.51 159.991 117.978 159.051 115.168 157.428C111.797 155.482 110.114 152.927 110.122 150.376L110.142 145.161C110.142 147.704 111.825 150.247 115.184 152.189C117.986 153.807 121.515 154.748 125.16 155.01C126.533 155.115 127.921 155.115 129.298 155.022C132.984 154.776 136.553 153.831 139.375 152.193C142.677 150.271 144.332 147.756 144.34 145.238Z" fill="#212121"/>
<path d="M126.196 155.066V160.306C126.967 160.332 127.74 160.331 128.51 160.298V155.062C127.739 155.093 126.967 155.095 126.196 155.066Z" fill="#FFBE2E"/>
<path d="M127.278 160.481C122.868 160.481 118.454 159.509 115.086 157.565C111.772 155.652 109.952 153.099 109.96 150.376L109.979 145.138C109.979 145.05 110.051 144.979 110.139 144.979H110.14C110.228 144.979 110.299 145.051 110.299 145.139V145.14C110.293 147.743 112.056 150.197 115.266 152.05C121.912 155.887 132.69 155.887 139.291 152.051C142.431 150.227 144.166 147.811 144.179 145.248V145.236C144.179 145.148 144.251 145.076 144.339 145.076H144.34C144.428 145.077 144.5 145.149 144.5 145.237V145.238C144.5 145.241 144.5 145.245 144.5 145.248L144.48 150.475C144.473 153.161 142.681 155.679 139.434 157.566C136.089 159.509 131.686 160.481 127.278 160.481ZM110.292 147.088L110.281 150.377C110.273 152.98 112.037 155.434 115.246 157.287C121.892 161.123 132.671 161.125 139.272 157.289C142.417 155.461 144.152 153.041 144.159 150.474L144.171 147.193C143.516 149.131 141.896 150.909 139.453 152.329C132.762 156.216 121.84 156.215 115.105 152.327C112.597 150.88 110.944 149.065 110.292 147.088Z" fill="#373B42"/>
<path d="M139.291 138.183C145.99 142.05 146.028 148.323 139.372 152.19C132.717 156.057 121.885 156.056 115.186 152.189C108.487 148.322 108.454 142.051 115.11 138.184C121.765 134.317 132.592 134.316 139.291 138.183Z" fill="#373B42"/>
<path d="M127.298 155.245C122.888 155.245 118.474 154.273 115.106 152.328C111.804 150.422 109.984 147.878 109.979 145.164C109.975 142.468 111.769 139.94 115.029 138.046C121.721 134.159 132.64 134.157 139.371 138.044C142.675 139.951 144.496 142.497 144.5 145.213C144.504 147.909 142.711 150.436 139.453 152.329C136.109 154.273 131.706 155.245 127.298 155.245ZM127.187 135.446C122.836 135.446 118.492 136.405 115.191 138.323C112.034 140.158 110.297 142.587 110.3 145.164C110.304 147.758 112.067 150.204 115.266 152.05C121.912 155.887 132.69 155.888 139.292 152.052C142.447 150.219 144.183 147.79 144.179 145.213C144.175 142.617 142.411 140.169 139.211 138.322C135.89 136.405 131.535 135.446 127.187 135.446Z" fill="#373B42"/>
<path d="M127.299 154.308C122.864 154.308 118.701 153.315 115.577 151.512C112.579 149.781 110.926 147.526 110.923 145.163C110.919 142.817 112.546 140.579 115.503 138.861C118.606 137.058 122.755 136.065 127.187 136.065C131.619 136.065 135.778 137.058 138.9 138.86C141.901 140.592 143.555 142.848 143.558 145.214C143.562 147.559 141.935 149.797 138.98 151.514C135.88 153.316 131.731 154.308 127.299 154.308Z" fill="#FFF7E4"/>
<path d="M127.298 154.468C122.836 154.468 118.645 153.468 115.497 151.651C112.447 149.89 110.765 147.586 110.762 145.163C110.758 142.758 112.414 140.471 115.422 138.722C118.549 136.906 122.727 135.905 127.187 135.905C131.646 135.905 135.834 136.905 138.98 138.721C142.032 140.483 143.715 142.789 143.718 145.213C143.722 147.619 142.068 149.906 139.061 151.653C135.936 153.468 131.759 154.468 127.298 154.468ZM127.187 136.226C122.782 136.226 118.662 137.211 115.584 139C112.678 140.688 111.079 142.877 111.083 145.163C111.086 147.466 112.711 149.671 115.657 151.373C118.758 153.162 122.891 154.147 127.298 154.147C131.703 154.147 135.823 153.163 138.899 151.375C141.803 149.688 143.401 147.5 143.397 145.214C143.394 142.909 141.768 140.701 138.82 138.999C135.721 137.211 131.59 136.226 127.187 136.226Z" fill="#373B42"/>
<path d="M141.646 94.4703C141.549 95.2636 141.203 95.8312 140.7 96.1264L139.399 96.883C139.902 96.5877 140.252 96.0203 140.345 95.2269C140.515 93.8291 139.939 92.1361 138.984 90.7983C138.462 90.0787 138.153 89.216 138.158 88.4871L138.185 80.402C138.19 79.7008 137.692 78.8381 137.078 78.483C136.769 78.3077 136.487 78.2892 136.289 78.4091L137.59 77.6527C137.788 77.5327 138.07 77.5512 138.379 77.7265C138.993 78.0863 139.491 78.9444 139.486 79.6455L139.454 87.7307C139.454 88.4595 139.763 89.3222 140.28 90.0418C141.235 91.3795 141.817 93.0724 141.646 94.4703Z" fill="#373B42"/>
<path d="M139.399 97.0422C139.343 97.0422 139.29 97.0137 139.26 96.9626C139.216 96.8865 139.241 96.7881 139.317 96.7436C139.794 96.4635 140.102 95.9177 140.185 95.2073C140.342 93.916 139.832 92.2624 138.853 90.8902C138.313 90.145 137.992 89.2453 137.997 88.4852L138.024 80.4004C138.029 79.7602 137.559 78.9455 136.998 78.6208C136.758 78.4848 136.535 78.4553 136.384 78.5383L136.37 78.5468C136.293 78.591 136.196 78.5659 136.151 78.4897C136.106 78.4142 136.13 78.3164 136.206 78.2707C136.212 78.2669 136.219 78.2632 136.225 78.2594L137.509 77.5127C137.76 77.3604 138.107 77.3874 138.458 77.5854C139.13 77.9796 139.652 78.8839 139.647 79.6451L139.614 87.7299C139.614 88.4243 139.912 89.2531 140.41 89.9469C141.437 91.3849 141.971 93.1249 141.805 94.4886C141.705 95.3043 141.342 95.9345 140.781 96.2635L139.48 97.0205C139.454 97.0354 139.426 97.0422 139.399 97.0422ZM136.912 78.2313C136.993 78.2586 137.075 78.2959 137.157 78.3425C137.818 78.7248 138.351 79.6486 138.345 80.4022L138.317 88.4867C138.313 89.1814 138.611 90.01 139.113 90.7031C140.137 92.1382 140.67 93.8786 140.503 95.2451C140.461 95.6099 140.364 95.9379 140.22 96.2186L140.619 95.9864C141.091 95.7098 141.398 95.1636 141.486 94.4498C141.643 93.1625 141.131 91.5086 140.149 90.134C139.614 89.3879 139.293 88.4889 139.293 87.7293L139.326 79.6435C139.33 78.9968 138.869 78.1983 138.298 77.8637C138.054 77.7252 137.824 77.6966 137.673 77.7887L136.912 78.2313Z" fill="#373B42"/>
<path d="M137.077 78.4831C137.693 78.8384 138.189 79.6977 138.187 80.4017L138.155 88.4843C138.153 89.2153 138.463 90.0759 138.98 90.7982C139.936 92.136 140.515 93.8265 140.346 95.2238C140.149 96.8427 138.914 97.5263 137.405 96.8519C137.275 96.7934 137.146 96.7271 137.018 96.6535C135.17 95.5868 133.675 92.9991 133.681 90.8747C133.685 89.5887 134.239 88.7695 135.086 88.557C135.606 88.4298 135.929 87.9349 135.931 87.2005L135.963 79.1178C135.965 78.414 136.464 78.1294 137.077 78.4831Z" fill="#FFF7E4"/>
<path d="M138.51 97.2698C138.141 97.2698 137.745 97.1793 137.341 96.9985C137.205 96.9377 137.071 96.8688 136.939 96.793C135.048 95.7013 133.515 93.0465 133.521 90.8746C133.525 89.5652 134.096 88.6404 135.048 88.4013C135.506 88.2894 135.769 87.852 135.771 87.2006L135.803 79.1176C135.804 78.719 135.948 78.4164 136.209 78.2662C136.472 78.1146 136.809 78.143 137.158 78.3446C137.827 78.7309 138.35 79.635 138.348 80.4023L138.316 88.4853C138.314 89.1768 138.612 90.0069 139.111 90.705C140.137 92.1401 140.671 93.879 140.506 95.2433C140.405 96.0709 140.034 96.7054 139.461 97.03C139.178 97.1899 138.856 97.2698 138.51 97.2698ZM136.581 78.4911C136.502 78.4911 136.431 78.5087 136.369 78.5441C136.211 78.635 136.124 78.839 136.124 79.1185L136.092 87.2014C136.09 88.0005 135.728 88.5654 135.125 88.7127C134.313 88.9167 133.845 89.7048 133.842 90.8755C133.836 92.9449 135.298 95.4746 137.099 96.5149C137.222 96.5854 137.346 96.6493 137.472 96.7057C138.161 97.0137 138.811 97.0288 139.303 96.7508C139.786 96.4776 140.099 95.9286 140.187 95.2044C140.343 93.9169 139.831 92.2642 138.851 90.8917C138.313 90.1409 137.993 89.2407 137.995 88.4842L138.027 80.4013C138.029 79.7492 137.567 78.9511 136.997 78.6221C136.847 78.5354 136.705 78.4911 136.581 78.4911Z" fill="#373B42"/>
<path d="M144.838 110.405C143.994 109.911 142.822 109.981 141.525 110.728L127.338 118.921C124.763 120.406 122.687 124.004 122.696 126.961L122.729 138.333C122.733 141.502 123.854 143.734 125.663 144.786L112.657 137.225C110.848 136.178 109.727 133.946 109.718 130.772L109.685 119.4C109.681 116.448 111.757 112.85 114.327 111.365L128.519 103.172C129.811 102.424 130.987 102.355 131.832 102.849L144.838 110.405Z" fill="#FFF7E4"/>
<path d="M125.663 144.946C125.635 144.946 125.608 144.939 125.582 144.925C125.581 144.924 125.581 144.924 125.58 144.923L112.575 137.364C110.637 136.242 109.566 133.901 109.557 130.772L109.524 119.4C109.52 116.4 111.638 112.733 114.246 111.225L128.438 103.032C129.743 102.277 130.977 102.163 131.912 102.71L144.91 110.261C144.913 110.262 144.915 110.264 144.918 110.266H144.919V110.266C144.995 110.311 145.021 110.409 144.977 110.486C144.932 110.562 144.834 110.587 144.757 110.543V110.543C144.757 110.543 144.756 110.542 144.755 110.542L144.751 110.539C143.921 110.059 142.804 110.175 141.606 110.867L127.418 119.059C124.893 120.516 122.847 124.06 122.856 126.96L122.889 138.332C122.893 141.336 123.907 143.58 125.744 144.647C125.82 144.692 125.846 144.79 125.801 144.866C125.772 144.918 125.718 144.946 125.663 144.946ZM130.605 102.691C129.993 102.691 129.31 102.899 128.599 103.31L114.407 111.503C111.887 112.96 109.841 116.502 109.845 119.4L109.878 130.771C109.886 133.781 110.901 136.024 112.736 137.086L124.203 143.752C123.142 142.473 122.571 140.611 122.568 138.333L122.536 126.961C122.526 123.959 124.644 120.289 127.257 118.782L141.445 110.589C142.24 110.131 143.007 109.909 143.698 109.928L131.751 102.988C131.412 102.789 131.025 102.691 130.605 102.691Z" fill="#373B42"/>
<path d="M141.526 110.728C144.098 109.244 146.19 110.436 146.198 113.391L146.231 124.762C146.249 131.145 141.759 138.923 136.201 142.132L132.822 144.082C127.263 147.291 122.745 144.713 122.726 138.33L122.694 126.959C122.686 124.004 124.765 120.404 127.336 118.919L141.526 110.728Z" fill="#FFBE2E"/>
<path d="M128.307 145.627C127.319 145.627 126.406 145.397 125.599 144.933C123.652 143.812 122.575 141.467 122.566 138.331L122.534 126.959C122.525 123.958 124.643 120.289 127.256 118.781L141.446 110.59C142.746 109.84 143.977 109.723 144.912 110.261C145.841 110.796 146.354 111.907 146.359 113.391L146.391 124.762C146.409 131.188 141.874 139.043 136.281 142.271L132.902 144.222C131.284 145.156 129.72 145.627 128.307 145.627ZM141.606 110.868L127.417 119.059C124.893 120.516 122.846 124.059 122.855 126.959L122.887 138.33C122.896 141.347 123.915 143.594 125.759 144.655C127.617 145.723 130.097 145.471 132.742 143.944L136.12 141.994C141.625 138.816 146.089 131.087 146.071 124.763L146.038 113.391C146.034 112.027 145.577 111.014 144.752 110.539C143.919 110.06 142.803 110.177 141.606 110.868Z" fill="#373B42"/>
<path d="M140.987 109.817L127.073 117.847C126.078 118.421 124.852 118.42 123.859 117.843L114.881 112.626C114.709 112.526 114.604 112.343 114.603 112.145L114.599 110.559L130.397 101.439L141.258 107.75L141.266 109.331C141.267 109.532 141.16 109.717 140.987 109.817Z" fill="#373B42"/>
<path d="M125.471 118.436C124.886 118.436 124.301 118.285 123.779 117.982L114.801 112.765C114.581 112.637 114.443 112.4 114.443 112.146L114.439 110.56C114.439 110.503 114.47 110.45 114.519 110.421L130.317 101.301C130.367 101.272 130.428 101.272 130.478 101.301L141.339 107.612C141.388 107.641 141.419 107.693 141.419 107.75L141.426 109.331C141.428 109.588 141.29 109.828 141.067 109.957L127.154 117.986C126.635 118.286 126.052 118.436 125.471 118.436ZM114.76 110.652L114.764 112.145C114.764 112.285 114.84 112.416 114.962 112.487L123.94 117.704C124.881 118.25 126.05 118.252 126.993 117.709L140.907 109.679C141.03 109.608 141.106 109.475 141.105 109.333L141.098 107.843L130.397 101.625L114.76 110.652Z" fill="#373B42"/>
<path d="M144.788 91.234C143.939 90.7403 142.767 90.8096 141.475 91.5569L127.283 99.7497C124.713 101.235 122.632 104.833 122.641 107.79L122.66 113.81C122.664 115.277 123.181 116.311 124.016 116.795L111.01 109.239C110.175 108.754 109.658 107.721 109.653 106.25L109.635 100.23C109.626 97.2771 111.706 93.6744 114.276 92.1936L128.469 84.0008C129.76 83.2535 130.932 83.1843 131.781 83.6778L144.788 91.234Z" fill="#FFF7E4"/>
<path d="M124.017 116.955C123.989 116.955 123.961 116.948 123.936 116.934C123.935 116.933 123.934 116.932 123.932 116.932L110.929 109.377C110.008 108.843 109.498 107.732 109.493 106.25L109.474 100.23C109.465 97.2278 111.583 93.5603 114.196 92.054L128.388 83.8616C129.689 83.108 130.922 82.9933 131.862 83.5386L144.866 91.0932C144.867 91.0938 144.868 91.0944 144.869 91.0947C144.945 91.1392 144.971 91.2376 144.927 91.3141C144.882 91.3908 144.784 91.4163 144.707 91.3724L144.705 91.3709C143.872 90.8876 142.753 91.0033 141.555 91.6955L127.363 99.8881C124.839 101.347 122.792 104.892 122.802 107.789L122.82 113.81C122.824 115.17 123.277 116.181 124.097 116.656H124.097C124.174 116.701 124.199 116.799 124.155 116.875C124.126 116.927 124.072 116.955 124.017 116.955ZM130.554 83.5208C129.942 83.5208 129.26 83.7286 128.549 84.1393L114.357 92.332C111.832 93.7868 109.786 97.3294 109.795 100.228L109.814 106.249C109.818 107.612 110.272 108.624 111.09 109.1L123.041 116.043C122.69 115.464 122.502 114.705 122.499 113.811L122.481 107.791C122.472 104.79 124.589 101.121 127.203 99.6106L141.395 91.418C142.188 90.9586 142.949 90.7392 143.648 90.7568L131.701 83.8163C131.361 83.6189 130.974 83.5208 130.554 83.5208Z" fill="#373B42"/>
<path d="M141.475 91.5575C144.046 90.073 146.139 91.2651 146.147 94.2197L146.164 100.241C146.172 103.199 144.094 106.795 141.522 108.28L127.332 116.471C124.76 117.955 122.668 116.767 122.66 113.809L122.643 107.788C122.634 104.833 124.713 101.233 127.285 99.7486L141.475 91.5575Z" fill="#FFBE2E"/>
<path d="M125.241 117.273C124.769 117.273 124.332 117.162 123.946 116.94C123.017 116.405 122.504 115.294 122.499 113.809L122.482 107.788C122.474 104.787 124.592 101.118 127.204 99.6099L141.394 91.4189C142.695 90.668 143.926 90.5522 144.861 91.0902C145.79 91.6248 146.303 92.7362 146.307 94.2197L146.324 100.24C146.332 103.242 144.214 106.911 141.602 108.419L127.412 116.61C126.649 117.05 125.91 117.273 125.241 117.273ZM141.554 91.6965L127.364 99.8876C124.841 101.345 122.794 104.888 122.803 107.788L122.82 113.808C122.824 115.173 123.28 116.187 124.106 116.662C124.937 117.141 126.055 117.023 127.252 116.332L141.441 108.141C143.965 106.684 146.011 103.14 146.003 100.241L145.986 94.2202C145.983 92.8563 145.526 91.8435 144.7 91.3682C143.868 90.8893 142.751 91.0061 141.554 91.6965Z" fill="#373B42"/>
<path d="M119.957 106.99C119.86 107.783 119.514 108.351 119.011 108.646L117.71 109.403C118.213 109.107 118.564 108.54 118.656 107.746C118.827 106.349 118.25 104.656 117.295 103.318C116.774 102.598 116.464 101.736 116.469 101.007L116.497 92.9216C116.501 92.2204 116.003 91.3577 115.389 91.0026C115.08 90.8272 114.799 90.8087 114.6 90.9287L115.901 90.1722C116.1 90.0523 116.381 90.0708 116.69 90.246C117.304 90.6059 117.802 91.4639 117.798 92.165L117.766 100.25C117.766 100.979 118.075 101.842 118.591 102.561C119.546 103.899 120.128 105.592 119.957 106.99Z" fill="#373B42"/>
<path d="M117.71 109.563C117.655 109.563 117.602 109.534 117.572 109.483C117.527 109.407 117.553 109.308 117.629 109.264C118.106 108.984 118.414 108.438 118.497 107.728C118.655 106.437 118.144 104.783 117.165 103.411C116.624 102.664 116.304 101.765 116.309 101.005L116.337 92.9207C116.34 92.2805 115.87 91.4658 115.309 91.1411C115.069 91.0051 114.846 90.9759 114.694 91.0593L114.681 91.0672C114.605 91.1114 114.508 91.0863 114.463 91.0102C114.417 90.9343 114.442 90.8366 114.518 90.7912C114.523 90.7874 114.529 90.784 114.535 90.7809L115.821 90.0332C116.073 89.8813 116.418 89.9073 116.77 90.1063C117.442 90.5005 117.963 91.4048 117.958 92.1656L117.926 100.251C117.926 100.944 118.224 101.773 118.722 102.467C119.749 103.906 120.283 105.646 120.116 107.009C120.017 107.825 119.654 108.455 119.093 108.784L117.791 109.541C117.765 109.556 117.738 109.563 117.71 109.563ZM115.224 90.7513C115.305 90.7789 115.386 90.8162 115.469 90.8629C116.13 91.2453 116.662 92.1687 116.657 92.9223L116.63 101.007C116.625 101.701 116.923 102.529 117.425 103.223C118.45 104.66 118.983 106.4 118.815 107.765C118.773 108.13 118.676 108.458 118.531 108.739L118.93 108.507C119.403 108.23 119.711 107.684 119.798 106.97C119.955 105.684 119.443 104.03 118.461 102.654C117.925 101.908 117.605 101.009 117.605 100.25L117.638 92.1638C117.641 91.5174 117.181 90.7189 116.609 90.384C116.365 90.2448 116.137 90.2176 115.984 90.309L115.224 90.7513Z" fill="#373B42"/>
<path d="M115.389 91.0036C116.005 91.359 116.501 92.2183 116.499 92.9222L116.467 101.005C116.465 101.736 116.775 102.596 117.293 103.319C118.248 104.656 118.827 106.347 118.658 107.744C118.462 109.363 117.226 110.047 115.718 109.372C115.587 109.314 115.458 109.248 115.331 109.174C113.483 108.107 111.987 105.52 111.993 103.395C111.997 102.109 112.551 101.29 113.398 101.077C113.918 100.95 114.241 100.455 114.243 99.7209L114.275 91.6383C114.277 90.9344 114.776 90.6499 115.389 91.0036Z" fill="#FFF7E4"/>
<path d="M116.822 109.79C116.453 109.79 116.057 109.7 115.652 109.519C115.516 109.458 115.382 109.39 115.251 109.313C113.36 108.222 111.827 105.567 111.833 103.395C111.836 102.086 112.407 101.161 113.36 100.922C113.817 100.81 114.081 100.372 114.083 99.7208L114.115 91.6381C114.116 91.2392 114.261 90.9368 114.522 90.7867C114.785 90.6353 115.12 90.6632 115.47 90.8651C116.139 91.2514 116.662 92.1554 116.66 92.9232L116.628 101.006C116.626 101.697 116.923 102.527 117.424 103.226C118.449 104.661 118.983 106.4 118.817 107.764C118.717 108.591 118.346 109.226 117.773 109.551C117.49 109.711 117.168 109.79 116.822 109.79ZM114.893 91.0118C114.815 91.0118 114.743 91.0294 114.682 91.0648C114.524 91.1557 114.437 91.3597 114.436 91.6392L114.404 99.7221C114.402 100.521 114.04 101.086 113.437 101.234C112.625 101.437 112.157 102.226 112.154 103.396C112.148 105.466 113.609 107.996 115.411 109.036C115.534 109.106 115.658 109.17 115.784 109.226C116.471 109.534 117.122 109.55 117.615 109.271C118.097 108.999 118.411 108.449 118.499 107.725C118.655 106.438 118.143 104.785 117.163 103.412C116.625 102.662 116.305 101.761 116.307 101.005L116.339 92.9219C116.341 92.2699 115.879 91.4717 115.309 91.143C115.309 91.1428 115.309 91.1427 115.309 91.1427C115.159 91.0559 115.016 91.0118 114.893 91.0118Z" fill="#373B42"/>
<path d="M142.89 102.128C142.894 103.009 142.276 104.079 141.51 104.517L127.322 112.71C126.557 113.153 125.934 112.798 125.934 111.921L125.915 105.897C125.915 105.02 126.529 103.95 127.295 103.507L141.487 95.3187C142.248 94.8757 142.871 95.2309 142.876 96.1075L142.89 102.128Z" fill="#212121"/>
<path d="M130.666 103.638C131.016 103.435 131.303 103.599 131.304 104.001C131.305 104.404 131.02 104.897 130.67 105.1L128.899 106.122C128.549 106.324 128.259 106.162 128.258 105.76C128.257 105.357 128.545 104.862 128.895 104.66L130.666 103.638Z" fill="white"/>
<path d="M135.665 103.979C135.739 103.936 135.804 103.933 135.851 103.97C135.899 104.007 135.922 104.078 135.914 104.168C135.813 105.087 135.167 106.107 134.413 106.543C133.655 106.98 133.006 106.707 132.903 105.906C132.891 105.828 132.914 105.73 132.964 105.636C133.008 105.547 133.073 105.475 133.147 105.433L135.665 103.979Z" fill="white"/>
<path d="M139.898 98.3086C140.248 98.1062 140.535 98.2695 140.536 98.6723C140.537 99.075 140.252 99.5682 139.902 99.7706L138.131 100.793C137.781 100.995 137.494 100.832 137.493 100.429C137.492 100.026 137.777 99.5329 138.127 99.3305L139.898 98.3086Z" fill="white"/>
<path d="M142.959 126.654C142.969 130.953 139.933 136.212 136.186 138.375L132.809 140.322C129.067 142.486 126.013 140.742 125.999 136.442L125.967 125.071C125.962 124.195 126.58 123.125 127.346 122.682L141.538 114.493C142.3 114.051 142.922 114.406 142.927 115.282L142.959 126.654Z" fill="#212121"/>
<path d="M135.913 127.902C135.858 127.902 135.804 127.873 135.774 127.822C135.73 127.745 135.756 127.647 135.833 127.603L139.628 125.413C139.703 125.369 139.802 125.394 139.848 125.472C139.891 125.549 139.865 125.647 139.789 125.691L135.993 127.881C135.968 127.895 135.941 127.902 135.913 127.902Z" fill="white"/>
<path d="M131.481 130.46C131.426 130.46 131.372 130.431 131.342 130.38C131.298 130.303 131.324 130.205 131.401 130.161L134.709 128.252C134.784 128.208 134.883 128.234 134.928 128.311C134.972 128.388 134.946 128.486 134.87 128.53L131.561 130.438C131.536 130.453 131.509 130.46 131.481 130.46Z" fill="white"/>
<path d="M138.656 128.587C138.601 128.587 138.547 128.558 138.517 128.507C138.473 128.43 138.5 128.332 138.576 128.288L139.628 127.681C139.703 127.637 139.802 127.662 139.848 127.739C139.891 127.816 139.865 127.914 139.789 127.958L138.737 128.566C138.711 128.58 138.684 128.587 138.656 128.587Z" fill="white"/>
<path d="M133.719 131.436C133.664 131.436 133.61 131.407 133.58 131.355C133.536 131.279 133.562 131.181 133.639 131.136L137.73 128.776C137.805 128.731 137.905 128.757 137.95 128.834C137.994 128.911 137.967 129.009 137.891 129.053L133.799 131.414C133.774 131.429 133.747 131.436 133.719 131.436Z" fill="white"/>
<path d="M129.196 134.046C129.141 134.046 129.087 134.017 129.057 133.966C129.013 133.889 129.04 133.791 129.116 133.747L132.394 131.856C132.469 131.811 132.567 131.837 132.613 131.914C132.657 131.991 132.631 132.089 132.554 132.133L129.276 134.024C129.251 134.039 129.224 134.046 129.196 134.046Z" fill="white"/>
<path d="M137.482 131.533C137.427 131.533 137.373 131.504 137.343 131.453C137.299 131.376 137.325 131.278 137.402 131.234L139.628 129.949C139.703 129.904 139.802 129.93 139.848 130.007C139.892 130.084 139.865 130.182 139.789 130.226L137.562 131.511C137.537 131.526 137.509 131.533 137.482 131.533Z" fill="white"/>
<path d="M132.914 134.168C132.858 134.168 132.805 134.139 132.774 134.088C132.731 134.011 132.757 133.913 132.833 133.869L136.458 131.778C136.533 131.733 136.632 131.759 136.678 131.836C136.721 131.913 136.695 132.011 136.619 132.055L132.994 134.147C132.969 134.161 132.941 134.168 132.914 134.168Z" fill="white"/>
<path d="M129.196 136.312C129.141 136.312 129.087 136.283 129.057 136.232C129.013 136.155 129.04 136.057 129.116 136.013L131.841 134.441C131.916 134.396 132.015 134.422 132.061 134.499C132.104 134.576 132.078 134.674 132.002 134.718L129.277 136.29C129.252 136.305 129.224 136.312 129.196 136.312Z" fill="white"/>
<path d="M138.826 133.024C138.771 133.024 138.716 132.995 138.687 132.943C138.643 132.867 138.669 132.768 138.746 132.724L138.866 132.655C138.942 132.612 139.041 132.637 139.085 132.714C139.129 132.791 139.103 132.889 139.026 132.933L138.906 133.003C138.88 133.017 138.853 133.024 138.826 133.024Z" fill="white"/>
<path d="M135.685 134.837C135.63 134.837 135.576 134.808 135.546 134.756C135.503 134.68 135.529 134.582 135.605 134.537L138.107 133.094C138.182 133.05 138.281 133.075 138.326 133.153C138.37 133.229 138.344 133.328 138.268 133.372L135.766 134.815C135.741 134.83 135.713 134.837 135.685 134.837Z" fill="white"/>
<path d="M129.196 138.58C129.141 138.58 129.087 138.551 129.057 138.499C129.013 138.423 129.04 138.325 129.116 138.28L134.646 135.09C134.72 135.046 134.819 135.072 134.865 135.149C134.909 135.225 134.883 135.324 134.806 135.368L129.277 138.558C129.252 138.573 129.224 138.58 129.196 138.58Z" fill="white"/>
<path d="M137.35 123.935C137.413 123.975 137.446 124.042 137.446 124.147C137.447 124.252 137.414 124.361 137.352 124.469C137.285 124.583 137.207 124.667 137.115 124.72C137.028 124.77 136.949 124.777 136.887 124.737C136.82 124.704 136.787 124.632 136.787 124.528C136.786 124.423 136.819 124.318 136.885 124.203C136.947 124.096 137.026 124.012 137.113 123.962C137.205 123.909 137.284 123.902 137.35 123.935Z" fill="white"/>
<path d="M136.974 123.493C136.945 123.477 136.924 123.446 136.924 123.389L136.818 121.349L136.817 120.72C136.816 120.63 136.841 120.534 136.899 120.439C136.953 120.346 137.019 120.274 137.102 120.226C137.181 120.181 137.251 120.173 137.305 120.204C137.355 120.238 137.385 120.302 137.385 120.392L137.387 121.021L137.293 123.176C137.289 123.235 137.273 123.288 137.244 123.338C137.215 123.393 137.169 123.433 137.111 123.467C137.053 123.5 137.007 123.512 136.974 123.493Z" fill="white"/>
<path d="M138.901 123.04C138.968 123.078 139.001 123.144 139.001 123.249C139.002 123.354 138.969 123.463 138.903 123.573C138.841 123.686 138.762 123.769 138.671 123.822C138.579 123.875 138.505 123.88 138.438 123.842C138.376 123.806 138.342 123.735 138.342 123.63C138.342 123.525 138.374 123.42 138.436 123.308C138.503 123.198 138.577 123.117 138.668 123.064C138.76 123.011 138.839 123.004 138.901 123.04Z" fill="white"/>
<path d="M138.53 122.595C138.496 122.581 138.48 122.548 138.475 122.493L138.37 120.454L138.368 119.825C138.368 119.734 138.397 119.636 138.45 119.543C138.508 119.448 138.574 119.376 138.657 119.328C138.736 119.283 138.803 119.278 138.857 119.309C138.911 119.339 138.94 119.404 138.94 119.494L138.942 120.123L138.849 122.278C138.845 122.337 138.828 122.39 138.799 122.44C138.766 122.497 138.725 122.535 138.667 122.569C138.604 122.605 138.559 122.617 138.53 122.595Z" fill="white"/>
<g opacity="0.1">
<path d="M84.6001 184.613C90.5001 188.021 90.5313 193.549 84.6668 196.958C78.8025 200.368 69.2663 200.366 63.3663 196.958C57.4635 193.549 57.4269 188.021 63.2913 184.612C69.1557 181.203 78.6973 181.204 84.6001 184.613Z" fill="black"/>
</g>
<path d="M58.9844 188.333C58.9795 190.574 60.4562 192.819 63.4195 194.527C65.7129 195.852 68.5539 196.659 71.5172 196.948C73.1602 197.114 74.8424 197.114 76.4854 196.958C79.4781 196.674 82.3435 195.862 84.6418 194.527C87.5464 192.839 88.9987 190.633 89.0036 188.421L89.0133 182.977C89.0084 185.193 87.5561 187.399 84.6515 189.087C82.3483 190.427 79.478 191.239 76.4853 191.518C74.8424 191.675 73.1601 191.675 71.5171 191.508C68.5587 191.22 65.7176 190.408 63.4291 189.087C60.4707 187.384 58.9939 185.144 58.9939 182.898L58.9844 188.333Z" fill="#212121"/>
<path d="M71.5173 191.508V196.948C73.1603 197.114 74.8425 197.114 76.4855 196.957V191.518C74.8425 191.674 73.1603 191.674 71.5173 191.508Z" fill="#FFBE2E"/>
<path d="M74.0448 197.233C70.1722 197.233 66.2945 196.379 63.3366 194.671C60.4178 192.985 58.8138 190.734 58.8201 188.331L58.8304 182.901C58.8304 182.898 58.8304 182.894 58.8304 182.89C58.8304 182.8 58.9041 182.727 58.9946 182.727C58.9946 182.727 58.9946 182.727 58.9953 182.727C59.0857 182.727 59.1588 182.8 59.1588 182.891V182.891C59.1588 182.891 59.1588 182.892 59.1588 182.892V182.9C59.1563 185.177 60.7019 187.323 63.5111 188.946C69.336 192.31 78.7839 192.31 84.5702 188.946C87.3249 187.344 88.8456 185.225 88.8513 182.978C88.8513 182.888 88.9251 182.815 89.0155 182.815C89.0155 182.815 89.0155 182.815 89.0162 182.815C89.1066 182.815 89.1798 182.888 89.1798 182.979L89.1701 188.42C89.163 190.788 87.5847 193.008 84.7261 194.67C81.7867 196.379 77.918 197.233 74.0448 197.233ZM59.1556 184.751L59.1485 188.332C59.1428 190.612 60.6885 192.762 63.5008 194.386C69.325 197.751 78.7736 197.752 84.5606 194.387C87.3146 192.785 88.8352 190.666 88.8417 188.419L88.8481 184.826C88.2459 186.487 86.8362 188.008 84.7357 189.23C78.8569 192.647 69.2628 192.647 63.3469 189.23C61.197 187.988 59.7604 186.44 59.1556 184.751Z" fill="#373B42"/>
<path d="M84.5857 176.787C90.4646 180.182 90.4957 185.69 84.6522 189.087C78.8088 192.485 69.3069 192.483 63.4279 189.088C57.5464 185.69 57.5099 180.183 63.3533 176.785C69.1967 173.388 78.7042 173.39 84.5857 176.787Z" fill="#FFF7E4"/>
<path d="M74.0548 191.792C70.1816 191.792 66.3045 190.938 63.3466 189.23C60.4374 187.549 58.8333 185.306 58.8301 182.912C58.8262 180.537 60.404 178.31 63.2709 176.644C69.1503 173.225 78.7482 173.226 84.6686 176.645C87.574 178.323 89.1761 180.564 89.1793 182.957C89.1831 185.333 87.6047 187.561 84.7353 189.229C81.7959 190.938 77.9279 191.792 74.0548 191.792ZM73.9534 174.404C70.1386 174.404 66.3303 175.245 63.4364 176.927C60.6741 178.533 59.1553 180.658 59.1585 182.912C59.1617 185.183 60.7075 187.326 63.5108 188.945C69.3357 192.31 78.7836 192.31 84.5699 188.945C87.3341 187.338 88.8542 185.212 88.851 182.957C88.8478 180.687 87.3041 178.546 84.5045 176.929C81.5901 175.246 77.7689 174.404 73.9534 174.404Z" fill="#373B42"/>
<path d="M67.501 177.353L69.7029 181.128C69.7392 181.184 69.7797 181.229 69.8282 181.257L75.1251 184.333C75.0767 184.305 75.0322 184.264 74.9999 184.208L72.7979 180.433L67.501 177.353Z" fill="#373B42"/>
<path d="M75.1249 184.498C75.0967 184.498 75.0685 184.491 75.0422 184.476L69.7452 181.4C69.6772 181.359 69.6182 181.3 69.565 181.217L67.3594 177.436C67.3216 177.371 67.3324 177.289 67.385 177.237C67.4376 177.184 67.5197 177.173 67.5838 177.211L72.8808 180.291C72.9052 180.305 72.9257 180.326 72.9398 180.35L75.1416 184.125C75.1576 184.154 75.1794 184.175 75.2083 184.192C75.2866 184.238 75.3122 184.338 75.2667 184.416C75.2358 184.469 75.1814 184.498 75.1249 184.498ZM67.9564 177.807L69.8446 181.045C69.8651 181.077 69.8888 181.103 69.9113 181.116L74.5913 183.834L72.6781 180.553L67.9564 177.807Z" fill="#373B42"/>
<path d="M54.565 170.644C54.5765 174.009 55.8423 176.374 57.9576 177.605L63.2572 180.687C61.1363 179.455 59.8705 177.091 59.859 173.726C59.8359 165.787 66.8461 155.282 75.5094 150.281C80.5028 147.396 84.9587 146.968 87.8425 148.645L82.5428 145.563C79.6648 143.886 75.2088 144.32 70.2155 147.199C61.5523 152.206 54.5419 162.706 54.565 170.644Z" fill="#212121"/>
<path d="M63.2565 180.852C63.2284 180.852 63.2001 180.845 63.1738 180.83L63.1719 180.828C63.1713 180.828 63.17 180.827 63.1687 180.827L57.8743 177.748C55.6135 176.431 54.4122 173.976 54.4007 170.645C54.3776 162.666 61.4351 152.085 70.1333 147.058C75.0204 144.24 79.5729 143.644 82.6251 145.422L87.9246 148.503C88.0029 148.549 88.0292 148.65 87.9836 148.728C87.938 148.807 87.8373 148.832 87.7592 148.787L87.754 148.784C84.7973 147.068 80.3643 147.666 75.5913 150.424C66.9842 155.393 59.9998 165.846 60.0229 173.726C60.0338 176.931 61.178 179.287 63.3317 180.542L63.3394 180.546C63.4177 180.592 63.4439 180.692 63.3984 180.77C63.3681 180.823 63.313 180.852 63.2565 180.852ZM54.729 170.644C54.7399 173.851 55.8848 176.209 58.0397 177.464L61.573 179.519C60.3461 178.123 59.7028 176.158 59.6945 173.727C59.6714 165.742 66.7289 155.16 75.4271 150.139C79.3349 147.881 83.0343 147.049 85.9255 147.721L82.4596 145.706C79.5119 143.989 75.0794 144.584 70.2975 147.342C61.6903 152.316 54.7072 162.77 54.729 170.644Z" fill="#373B42"/>
<path d="M54.5649 170.645C54.5765 174.009 55.8422 176.374 57.9575 177.606L63.2571 180.687C61.1362 179.456 59.8704 177.091 59.8589 173.726" fill="#212121"/>
<path d="M63.257 180.851C63.2288 180.851 63.2005 180.844 63.1742 180.829L63.1724 180.828C63.1717 180.827 63.1705 180.827 63.1691 180.826L57.8747 177.747C55.6139 176.431 54.4127 173.975 54.4011 170.645C54.4011 170.554 54.4742 170.481 54.5647 170.48H54.5653C54.6557 170.48 54.7296 170.554 54.7296 170.644C54.7404 173.851 55.8853 176.209 58.0403 177.464L61.5735 179.519C60.3466 178.123 59.7033 176.158 59.695 173.727C59.695 173.636 59.7681 173.562 59.8585 173.562H59.8592C59.9496 173.562 60.0234 173.635 60.0234 173.725C60.0343 176.93 61.1785 179.287 63.3322 180.541L63.3399 180.546C63.4182 180.591 63.4445 180.692 63.3989 180.77C63.3685 180.822 63.3134 180.851 63.257 180.851Z" fill="#373B42"/>
<path d="M75.5096 150.28C66.8457 155.284 59.8384 165.786 59.8609 173.726C59.8809 180.797 65.4619 183.458 72.7972 180.432L74.9996 184.207C75.1259 184.419 75.3652 184.423 75.6041 184.285C75.843 184.147 76.0815 183.867 76.2061 183.511L78.38 177.207C85.7085 171.764 91.2562 162.675 91.2362 155.604C91.2137 147.664 84.1698 145.278 75.5096 150.28Z" fill="#FFF7E4"/>
<path d="M75.2966 184.544C75.1144 184.544 74.9579 184.458 74.8586 184.292L72.7273 180.638C68.7656 182.24 65.2574 182.233 62.8324 180.616C60.7897 179.253 59.7058 176.871 59.6968 173.727C59.6744 165.743 66.7319 155.161 75.4275 150.138C80.2923 147.328 84.8383 146.727 87.8976 148.487C90.1475 149.782 91.3911 152.309 91.4007 155.604C91.4205 162.609 86.0049 171.73 78.5189 177.309L76.3614 183.564C76.2318 183.936 75.9791 184.258 75.686 184.428C75.5512 184.506 75.4178 184.544 75.2966 184.544ZM72.7972 180.268C72.8543 180.268 72.9088 180.298 72.9389 180.349L75.1414 184.125C75.2337 184.278 75.419 184.203 75.5217 184.143C75.7455 184.014 75.9482 183.751 76.0508 183.457L78.225 177.154C78.2359 177.123 78.2559 177.096 78.2821 177.076C85.713 171.556 91.0914 162.526 91.0722 155.605C91.0632 152.386 89.9087 150.023 87.7339 148.772C84.7772 147.071 80.3525 147.672 75.5917 150.423C66.9859 155.393 60.0028 165.847 60.0252 173.726C60.0335 176.756 61.0674 179.044 63.0146 180.343C65.3723 181.916 68.8235 181.893 72.7344 180.28C72.7548 180.272 72.776 180.268 72.7972 180.268Z" fill="#373B42"/>
<path d="M67.1137 169.062C68.293 168.381 69.2514 168.93 69.2553 170.286C69.2591 171.641 68.3069 173.291 67.1276 173.972C65.9484 174.653 64.9878 174.108 64.9839 172.753C64.98 171.397 65.9344 169.743 67.1137 169.062Z" fill="#373B42"/>
<path d="M75.5411 163.566C76.7204 162.885 77.6788 163.434 77.6827 164.789C77.6866 166.145 76.7344 167.795 75.5551 168.476C74.3759 169.157 73.4175 168.611 73.4136 167.255C73.4097 165.9 74.3619 164.247 75.5411 163.566Z" fill="#373B42"/>
<path d="M83.2575 158.842C84.4368 158.161 85.3974 158.708 85.4013 160.064C85.4051 161.42 84.4508 163.071 83.2714 163.752C82.0922 164.433 81.1338 163.886 81.1299 162.531C81.126 161.175 82.0782 159.523 83.2575 158.842Z" fill="#373B42"/>
<g opacity="0.1">
<path d="M158.469 116.132L210.139 145.954L222.349 138.858L170.696 109.027L158.469 116.132Z" fill="#010101"/>
</g>
<path d="M167.028 0.844807C167.802 0.397534 168.887 0.462395 170.075 1.15131L214.511 26.8122C215.227 27.2254 215.901 27.8123 216.49 28.5123C216.876 28.959 217.23 29.4602 217.532 29.9839C217.834 30.5075 218.091 31.0504 218.293 31.6106C218.614 32.4869 218.794 33.3799 218.787 34.2179L218.508 132.355C218.509 133.715 218.033 134.667 217.263 135.111L208.31 140.309C209.084 139.861 209.566 138.907 209.562 137.555L209.847 39.4146C209.854 38.5628 209.67 37.6644 209.338 36.7805C209.136 36.2205 208.874 35.6806 208.571 35.157C208.269 34.6334 207.919 34.1375 207.529 33.6854C206.943 32.9907 206.273 32.4091 205.565 31.9983L161.136 6.34787C159.933 5.65988 158.863 5.59418 158.072 6.05073L167.028 0.844807Z" fill="#212121"/>
<path d="M207.529 33.6857L216.49 28.5127C216.876 28.9594 217.229 29.4606 217.532 29.9843C217.834 30.5079 218.091 31.0508 218.293 31.611L209.338 36.7808C209.135 36.2208 208.873 35.6809 208.571 35.1573C208.269 34.6337 207.919 34.1377 207.529 33.6857Z" fill="#FFBE2E"/>
<path d="M208.311 140.452C208.263 140.452 208.215 140.426 208.188 140.381C208.149 140.313 208.172 140.226 208.24 140.187H208.24C208.242 140.186 208.243 140.185 208.244 140.185L208.246 140.183C209.008 139.74 209.426 138.806 209.422 137.553L209.703 39.4146C209.709 38.1137 209.264 36.6266 208.45 35.2272C207.66 33.8709 206.61 32.7687 205.494 32.1238L161.061 6.46972C159.949 5.83487 158.913 5.728 158.145 6.16921L158.142 6.17115C158.141 6.17115 158.141 6.17115 158.141 6.17115C158.075 6.21003 157.987 6.18751 157.947 6.11953C157.908 6.05155 157.931 5.96467 157.999 5.92528H157.999C158 5.92469 158 5.92444 158.001 5.92419L166.953 0.723748C167.817 0.225111 168.952 0.333324 170.148 1.02814L214.584 26.687C215.745 27.3602 216.836 28.5059 217.654 29.9128C218.485 31.3405 218.939 32.87 218.932 34.2197L218.651 132.357C218.651 133.721 218.183 134.743 217.333 135.234L208.395 140.425C208.391 140.428 208.386 140.43 208.383 140.433C208.36 140.446 208.336 140.452 208.311 140.452ZM159.198 5.61701C159.815 5.61701 160.497 5.82036 161.202 6.22335L205.636 31.8781C206.795 32.5471 207.881 33.6859 208.696 35.0845C209.535 36.5271 209.994 38.0652 209.987 39.4155L209.706 137.553C209.709 138.386 209.534 139.092 209.201 139.628L217.19 134.988C217.949 134.55 218.367 133.616 218.367 132.357L218.648 34.2187C218.655 32.9186 218.215 31.4404 217.409 30.0557C216.615 28.6908 215.561 27.582 214.442 26.9328L170.006 1.274C168.901 0.632488 167.869 0.524277 167.096 0.96961L159.092 5.61895C159.128 5.61752 159.163 5.61701 159.198 5.61701Z" fill="#383C43"/>
<path d="M214.118 51.1865C214.495 50.9761 214.837 50.9498 215.083 51.091L215.993 51.6127C215.742 51.4746 215.405 51.4978 215.028 51.7081C214.274 52.1433 213.665 53.2023 213.662 54.0749L213.663 61.6994C213.666 62.144 213.82 62.4496 214.069 62.5964L213.159 62.0747C212.91 61.928 212.756 61.6224 212.752 61.1778L212.752 53.5532C212.754 52.6807 213.364 51.6216 214.118 51.1865Z" fill="#383C43"/>
<path d="M214.069 62.7382C214.045 62.7382 214.02 62.7321 213.998 62.7193L213.088 62.1976C212.783 62.018 212.615 61.6565 212.61 61.1786L212.61 53.553C212.612 52.6201 213.244 51.5267 214.047 51.0634C214.047 51.0628 214.048 51.0625 214.048 51.0623C214.464 50.8306 214.857 50.7972 215.154 50.9676L216.063 51.4893C216.131 51.5282 216.155 51.6142 216.117 51.6821C216.078 51.7503 215.992 51.775 215.925 51.737C215.71 51.6193 215.417 51.6529 215.097 51.8316C214.387 52.2415 213.807 53.2483 213.804 54.0748L213.805 61.6991C213.808 62.0721 213.927 62.3476 214.141 62.4736C214.208 62.5132 214.231 62.5998 214.191 62.6672C214.165 62.7129 214.118 62.7382 214.069 62.7382ZM214.187 51.3101C213.477 51.721 212.897 52.7272 212.894 53.5536L212.894 61.1776C212.898 61.5506 213.017 61.8261 213.231 61.9521L213.583 62.1541C213.543 62.019 213.522 61.8669 213.52 61.7004L213.52 54.0744C213.523 53.1417 214.154 52.0485 214.957 51.5848C215.097 51.5065 215.235 51.451 215.369 51.4185L215.012 51.214C214.805 51.0956 214.513 51.1291 214.187 51.3101Z" fill="#212121"/>
<path d="M213.663 54.0757C213.663 53.2012 214.274 52.1423 215.029 51.7093C215.784 51.2763 216.396 51.6339 216.395 52.5085L216.394 60.1351C216.394 61.0097 215.783 62.0685 215.028 62.5016C214.273 62.9346 213.662 62.577 213.662 61.7024L213.663 54.0757Z" fill="#FFBE2E"/>
<path d="M214.422 62.8284C214.267 62.8284 214.123 62.7912 213.994 62.7166C213.689 62.5398 213.521 62.1797 213.521 61.7024L213.521 54.0759C213.521 53.1577 214.167 52.0407 214.96 51.5862C215.369 51.3517 215.763 51.3184 216.065 51.4944C216.37 51.6712 216.538 52.0313 216.538 52.5086L216.537 60.1351C216.537 61.0533 215.892 62.1702 215.099 62.6247C214.864 62.7601 214.633 62.8284 214.422 62.8284ZM215.635 51.6672C215.475 51.6672 215.293 51.7227 215.101 51.8326C214.386 52.2422 213.805 53.2484 213.805 54.0758L213.805 61.7023C213.805 62.0741 213.922 62.3469 214.136 62.4706C214.349 62.5941 214.64 62.5608 214.958 62.3782C215.672 61.9686 216.253 60.9624 216.253 60.135L216.254 52.5085C216.254 52.1366 216.136 51.8639 215.922 51.7401C215.838 51.6914 215.742 51.6672 215.635 51.6672Z" fill="#FFBE2E"/>
<path d="M212.692 94.2668C212.692 93.3187 213.354 92.1707 214.173 91.7014C214.991 91.2319 215.654 91.6196 215.654 92.5677L215.652 110.984C215.652 111.932 214.989 113.08 214.171 113.549C213.352 114.018 212.689 113.631 212.689 112.683L212.692 94.2668Z" fill="#FFBE2E"/>
<path d="M213.518 93.8112C213.518 94.2226 213.809 94.3871 214.164 94.1835C214.524 93.9772 214.81 93.4821 214.81 93.0707C214.81 92.6487 214.524 92.4814 214.164 92.6878C213.809 92.8914 213.518 93.3893 213.518 93.8112Z" fill="#383C43"/>
<path d="M205.257 140.009C207.63 141.379 209.557 140.281 209.565 137.554L209.846 39.4171C209.854 36.69 207.939 33.3738 205.566 32.0034L161.132 6.3477C158.759 4.97738 156.832 6.07553 156.824 8.8026L156.543 106.939C156.535 109.667 158.449 112.983 160.823 114.353L205.257 140.009Z" fill="#383C43"/>
<path d="M207.186 140.742C206.569 140.742 205.889 140.537 205.185 140.131L160.752 114.475C158.345 113.086 156.393 109.705 156.401 106.939L156.681 8.80198C156.685 7.43478 157.158 6.4111 158.012 5.91938C158.871 5.42462 160.004 5.53199 161.203 6.22437L205.637 31.8802C208.044 33.2696 209.995 36.6508 209.988 39.4171L209.707 137.554C209.703 138.921 209.23 139.945 208.376 140.436C208.021 140.641 207.619 140.742 207.186 140.742ZM159.204 5.89804C158.819 5.89804 158.465 5.98685 158.154 6.16583C157.391 6.60459 156.969 7.54105 156.966 8.80257L156.685 106.939C156.677 109.615 158.565 112.885 160.894 114.23L205.328 139.885C206.434 140.524 207.465 140.631 208.235 140.19C208.997 139.751 209.419 138.815 209.423 137.553L209.704 39.4165C209.711 36.7407 207.823 33.4702 205.495 32.126L161.061 6.47023C160.403 6.09009 159.77 5.89804 159.204 5.89804Z" fill="#383C43"/>
<path d="M158.494 6.7607C157.963 7.0672 157.654 7.81322 157.652 8.80316L157.371 106.941C157.367 108.116 157.77 109.465 158.507 110.742C159.242 112.015 160.211 113.043 161.237 113.637L205.67 139.291C206.541 139.796 207.352 139.908 207.893 139.596C208.424 139.289 208.733 138.543 208.735 137.553L209.016 39.4159C209.02 38.2403 208.618 36.8912 207.88 35.614C207.146 34.3417 206.176 33.3137 205.151 32.7195L160.717 7.06535C159.846 6.56081 159.035 6.44863 158.494 6.7607Z" fill="#FFF7E4"/>
<path d="M207.187 139.911C206.714 139.911 206.167 139.743 205.599 139.414L161.166 113.76C160.118 113.153 159.13 112.106 158.384 110.813C157.635 109.517 157.225 108.142 157.229 106.94L157.51 8.80286C157.512 7.76063 157.845 6.97143 158.423 6.6376C158.423 6.6376 158.423 6.6376 158.423 6.63735C159.009 6.29989 159.87 6.41063 160.788 6.94233L205.221 32.5964C206.268 33.2028 207.256 34.2492 208.004 35.5428C208.752 36.8406 209.162 38.2162 209.158 39.4163L208.878 137.553C208.875 138.596 208.542 139.385 207.964 139.719C207.741 139.847 207.478 139.911 207.187 139.911ZM158.565 6.88338C158.077 7.16534 157.796 7.86514 157.794 8.80337L157.513 106.941C157.509 108.093 157.906 109.418 158.63 110.671C159.352 111.922 160.303 112.931 161.308 113.514L205.741 139.168C206.569 139.647 207.327 139.758 207.822 139.473C208.31 139.191 208.591 138.491 208.593 137.553L208.874 39.4154C208.878 38.2647 208.481 36.9397 207.757 35.6848C207.034 34.4336 206.083 33.4241 205.079 32.8422L160.646 7.18811C159.819 6.70972 159.06 6.59788 158.565 6.88338Z" fill="#383C43"/>
<path d="M193.344 31.0729C192.684 30.6969 175.942 21.0906 175.166 20.6451C173.925 19.9322 172.915 18.1837 172.914 16.7512L172.917 14.1406C173.693 14.5861 194.709 26.6449 195.595 27.1526L195.595 29.7614C195.593 31.1957 194.585 31.7858 193.344 31.0729Z" fill="#212121"/>
<path d="M194.341 31.5191C194.01 31.5191 193.646 31.4109 193.273 31.1964C192.796 30.9247 184.104 25.9374 178.909 22.9569L175.095 20.7686C173.815 20.0335 172.773 18.2318 172.771 16.7519L172.774 14.1407C172.774 14.0902 172.801 14.0433 172.845 14.0181C172.889 13.9925 172.944 13.9929 172.987 14.0178C173.764 14.4632 194.78 26.5221 195.665 27.0299C195.709 27.0551 195.736 27.1024 195.736 27.1531L195.737 29.7618C195.736 30.511 195.475 31.0743 195.002 31.3479C194.804 31.4622 194.581 31.5191 194.341 31.5191ZM173.058 14.3861L173.056 16.752C173.057 18.1408 174.036 19.8324 175.237 20.5222L179.05 22.7105C184.247 25.6915 192.943 30.6811 193.414 30.9497V30.9499C193.967 31.2671 194.48 31.321 194.859 31.1017C195.241 30.8812 195.452 30.405 195.453 29.7614L195.452 27.2355C193.924 26.3584 175.365 15.7092 173.058 14.3861Z" fill="#383C43"/>
<path d="M178.198 20.3743C177.941 19.9288 177.799 19.4552 177.799 19.0417C177.799 18.6695 177.912 18.3988 178.117 18.2798C178.32 18.1628 178.605 18.1979 178.92 18.3785L193.006 26.459C193.364 26.6644 193.703 27.0235 193.961 27.471C194.22 27.9193 194.362 28.3957 194.362 28.8119C194.362 29.1798 194.25 29.4475 194.046 29.5653C193.842 29.6833 193.556 29.648 193.239 29.4662L179.153 21.3862C178.795 21.1806 178.456 20.8214 178.198 20.3743Z" fill="#FFBE2E"/>
<path d="M174.545 18.2787C174.288 17.8332 174.147 17.3601 174.146 16.9466C174.146 16.5745 174.26 16.3043 174.465 16.1853C174.667 16.0678 174.953 16.1033 175.27 16.2848C175.628 16.4901 175.967 16.8493 176.225 17.2968C176.484 17.7451 176.627 18.2214 176.626 18.6376C176.626 19.0052 176.514 19.2728 176.31 19.3911C176.107 19.509 175.82 19.4738 175.503 19.2921C175.144 19.086 174.804 18.7263 174.545 18.2787Z" fill="#FFBE2E"/>
<path d="M174.886 18.0799C174.733 17.815 174.649 17.5338 174.649 17.288C174.649 17.0667 174.716 16.9061 174.838 16.8354C174.959 16.7656 175.129 16.7866 175.317 16.8945C175.53 17.0166 175.731 17.2301 175.885 17.4961C176.039 17.7627 176.124 18.0458 176.124 18.2933C176.124 18.5118 176.057 18.6709 175.935 18.7412C175.815 18.8113 175.644 18.7904 175.456 18.6823C175.242 18.5598 175.04 18.3459 174.886 18.0799Z" fill="#212121"/>
<path d="M209.827 45.9275C209.778 45.9275 209.731 45.902 209.704 45.8565C209.665 45.7885 209.688 45.7017 209.756 45.6625L218.701 40.4988C218.767 40.4594 218.855 40.4822 218.895 40.5506C218.934 40.6186 218.91 40.7055 218.843 40.7446L209.898 45.9085C209.876 45.9215 209.852 45.9275 209.827 45.9275Z" fill="#383C43"/>
<path d="M209.581 131.935C209.532 131.935 209.485 131.909 209.458 131.864C209.419 131.796 209.442 131.709 209.51 131.67L218.454 126.506C218.52 126.467 218.608 126.49 218.648 126.558C218.687 126.626 218.664 126.713 218.596 126.752L209.652 131.916C209.63 131.929 209.606 131.935 209.581 131.935Z" fill="#383C43"/>
<path d="M182.022 62.6254C177.681 60.1191 173.797 60.1732 171.249 62.3061C173.776 67.3566 177.647 71.888 181.988 74.3943C186.329 76.9006 190.213 76.8465 192.761 74.7265C190.233 69.663 186.362 65.1316 182.022 62.6254Z" fill="#FFBE2E"/>
<path d="M182.06 49.0632C179.364 47.5065 177.169 48.7508 177.16 51.8554C177.152 54.9535 179.332 58.7298 182.028 60.2864C184.724 61.843 186.919 60.5925 186.927 57.4944C186.936 54.3898 184.756 50.6197 182.06 49.0632Z" fill="#978050"/>
<path d="M188.22 76.4432C186.288 76.4432 184.138 75.8005 181.915 74.5194C177.703 72.0825 173.769 67.6543 171.123 62.3704C169.113 58.3692 168.011 54.1375 168.019 50.4553C168.032 46.1572 169.503 42.9484 172.162 41.4192C174.839 39.8794 178.386 40.229 182.151 42.4039C189.834 46.8393 196.064 57.6342 196.039 66.4673C196.03 70.1634 194.897 73.1359 192.848 74.8374C191.561 75.9091 189.981 76.4432 188.22 76.4432ZM168.303 50.4559C168.296 54.0946 169.387 58.2807 171.377 62.243C173.999 67.479 177.892 71.8636 182.058 74.2732C186.198 76.6596 190.064 76.7853 192.666 74.619C194.649 72.9721 195.746 70.0767 195.754 66.4666C195.78 57.724 189.614 47.0399 182.009 42.6497C178.336 40.5275 174.889 40.1781 172.303 41.6652C169.736 43.1418 168.316 46.2638 168.303 50.4559Z" fill="#383C43"/>
<path d="M162.052 86.0185C162.048 88.0267 162.659 90.2372 163.683 92.2769C165.017 94.941 167.061 97.3355 169.353 98.6609C171.644 99.9817 173.697 99.9547 175.04 98.8361C176.073 97.9781 176.693 96.482 176.698 94.4738C176.711 89.8193 173.441 84.1631 169.402 81.8315C165.359 79.4952 162.066 81.3642 162.052 86.0185Z" fill="#FFBE2E"/>
<path d="M167.628 84.4105C167.829 84.527 168.008 84.792 168.053 85.052C168.186 85.8341 168.403 86.6275 168.69 87.4108C168.763 87.6114 168.716 87.7808 168.582 87.7947C168.374 87.8167 168.165 87.8379 167.957 87.8592C167.816 87.8731 167.77 88.0582 167.858 88.2672C168.478 89.7388 169.3 91.1613 170.264 92.4346C170.312 92.4977 170.366 92.5453 170.419 92.5759C170.518 92.633 170.615 92.6302 170.669 92.5559C170.793 92.3884 170.917 92.2205 171.04 92.0527C171.095 91.9793 171.191 91.9766 171.29 92.0338C171.336 92.0608 171.384 92.1013 171.428 92.1541C171.964 92.7956 172.544 93.3818 173.156 93.8911C173.383 94.0799 173.53 94.4148 173.494 94.6575C173.406 95.2271 173.319 95.7975 173.232 96.3683C173.167 96.7949 172.817 96.9185 172.428 96.6936C172.362 96.6555 172.295 96.6075 172.228 96.5492C168.806 93.5726 166.133 88.9438 165.275 84.5062C165.159 83.9067 165.467 83.5504 165.94 83.7374C166.479 83.9501 167.019 84.1631 167.558 84.3768C167.581 84.3859 167.605 84.3972 167.628 84.4105Z" fill="white"/>
<path d="M187.04 96.6953C187.035 98.7035 187.646 100.914 188.671 102.954C190.005 105.618 192.049 108.012 194.34 109.338C196.632 110.659 198.685 110.632 200.028 109.513C201.061 108.655 201.681 107.159 201.686 105.15C201.699 100.496 198.429 94.8398 194.39 92.5082C190.346 90.1719 187.053 92.041 187.04 96.6953Z" fill="#212121"/>
<path d="M194.04 99.2582C195.643 100.183 197.244 101.596 198.666 103.394C199.051 103.88 199.154 104.528 198.889 104.792C198.586 105.095 198.284 105.397 197.981 105.7C197.9 105.78 197.775 105.776 197.648 105.702C197.572 105.659 197.495 105.59 197.427 105.5C196.93 104.85 196.401 104.266 195.854 103.761C195.714 103.632 195.632 103.419 195.669 103.277C195.725 103.057 195.782 102.837 195.839 102.617C195.878 102.468 195.787 102.241 195.637 102.117C195.109 101.681 194.572 101.305 194.035 100.995C193.498 100.685 192.96 100.44 192.432 100.267C192.282 100.218 192.19 100.339 192.227 100.532C192.283 100.817 192.339 101.102 192.394 101.387C192.43 101.57 192.347 101.688 192.207 101.655C191.658 101.528 191.127 101.499 190.629 101.576C190.561 101.587 190.484 101.566 190.408 101.522C190.28 101.449 190.155 101.309 190.075 101.136C189.775 100.485 189.476 99.8354 189.176 99.1845C188.914 98.616 189.019 98.0881 189.405 98.0471C190.834 97.8952 192.438 98.3331 194.04 99.2582Z" fill="white"/>
<path d="M170.91 109.629C170.061 109.139 169.377 109.536 169.375 110.512C169.372 111.487 170.051 112.664 170.9 113.154L185.732 121.568C186.58 122.058 187.271 121.672 187.274 120.697C187.277 119.722 186.59 118.533 185.742 118.043L170.91 109.629Z" fill="#212121"/>
<g opacity="0.1">
<path d="M198.644 176.856L196.369 178.351C194.944 178.444 193.314 178.029 191.645 177.184L190.808 176.759C182.894 172.748 170.448 173.432 163.069 178.283C155.689 183.136 156.126 190.347 164.039 194.355L164.878 194.777C164.887 194.782 164.897 194.787 164.906 194.791C166.361 195.524 168.102 195.396 169.466 194.505L171.548 193.146C172.109 192.78 173.048 192.728 173.645 193.031L184.788 198.718C185.386 199.023 185.413 199.567 184.852 199.934L179.506 203.426C178.943 203.795 178.006 203.844 177.411 203.541L166.266 197.854C166.008 197.722 163.709 196.831 162.606 196.275L161.769 195.85C152.51 191.157 152.001 182.724 160.635 177.051C169.265 171.376 183.817 170.577 193.078 175.267L193.917 175.686C195.586 176.534 197.216 176.952 198.644 176.856Z" fill="#373B42"/>
</g>
<g opacity="0.1">
<path d="M189.439 185.004C188.941 185.329 188.966 185.81 189.493 186.079L199.352 191.109C199.879 191.378 200.709 191.334 201.207 191.008L205.934 187.92C206.43 187.595 206.407 187.113 205.88 186.845L196.021 181.814C195.494 181.545 194.663 181.591 194.167 181.915L189.439 185.004Z" fill="#373B42"/>
</g>
<path d="M201.873 167.178C200.27 166.368 198.833 166.234 197.72 166.672C197.278 166.845 196.799 166.944 196.295 166.977L194.141 168.393C194.647 168.36 195.127 168.261 195.571 168.088C196.681 167.65 198.121 167.782 199.721 168.595C203.644 170.584 206.988 175.86 206.969 180.168C206.961 181.996 206.315 183.328 205.253 184.024L207.403 182.61C208.465 181.914 209.11 180.582 209.118 178.754C209.137 174.447 205.793 169.165 201.873 167.178Z" fill="#373B42"/>
<path d="M205.254 184.128C205.22 184.128 205.186 184.112 205.166 184.081C205.134 184.033 205.148 183.968 205.196 183.936L205.206 183.93C206.269 183.228 206.857 181.892 206.864 180.168C206.883 175.931 203.59 170.674 199.674 168.688C198.148 167.913 196.743 167.739 195.609 168.186C195.168 168.358 194.676 168.463 194.148 168.497C194.092 168.5 194.057 168.471 194.042 168.426C194.027 168.381 194.044 168.332 194.084 168.305L196.237 166.89C196.252 166.88 196.27 166.874 196.288 166.873C196.792 166.84 197.262 166.739 197.682 166.574C198.869 166.108 200.335 166.284 201.92 167.085C201.92 167.085 201.92 167.085 201.92 167.085C205.898 169.1 209.242 174.444 209.223 178.755C209.215 180.557 208.59 181.957 207.46 182.697L205.321 184.105C205.318 184.107 205.315 184.109 205.311 184.111L205.311 184.111C205.311 184.111 205.311 184.111 205.311 184.111C205.293 184.123 205.273 184.128 205.254 184.128ZM196.938 167.735C197.808 167.735 198.765 167.992 199.769 168.502C203.747 170.519 207.092 175.862 207.073 180.169C207.068 181.441 206.755 182.512 206.174 183.293L207.346 182.522C208.414 181.822 209.006 180.484 209.014 178.754C209.032 174.513 205.741 169.255 201.826 167.272C200.295 166.498 198.888 166.324 197.759 166.769C197.326 166.938 196.845 167.043 196.329 167.08L194.558 168.244C194.905 168.193 195.232 168.109 195.533 167.991C195.967 167.82 196.438 167.735 196.938 167.735Z" fill="#212121"/>
<path d="M206.969 180.169C206.955 183.984 204.159 185.62 200.632 183.896C200.592 183.878 200.554 183.859 200.513 183.84C198.943 183.044 197.467 181.718 196.262 180.146C194.455 177.78 192.293 175.886 190.108 174.779L189.267 174.38C181.778 170.582 169.999 171.23 163.015 175.822C159.545 178.104 157.902 180.934 158.045 183.673L157.654 176.18C157.512 173.441 159.154 170.611 162.625 168.329C169.609 163.736 181.387 163.089 188.877 166.887L189.67 167.289C191.842 168.389 193.945 168.726 195.571 168.089C196.682 167.651 198.121 167.783 199.721 168.596C203.644 170.582 206.988 175.861 206.969 180.169Z" fill="#FFBE2E"/>
<path d="M203.284 184.688C202.451 184.688 201.537 184.455 200.586 183.99L200.469 183.934C198.933 183.155 197.45 181.868 196.179 180.209C194.382 177.857 192.209 175.961 190.06 174.872L189.222 174.474C181.76 170.69 170.029 171.334 163.073 175.91C159.751 178.094 158.003 180.849 158.149 183.667V183.668C158.149 183.668 158.149 183.668 158.149 183.668C158.152 183.725 158.108 183.775 158.05 183.778C157.989 183.784 157.943 183.736 157.94 183.679L157.55 176.185C157.399 173.289 159.181 170.468 162.567 168.242C169.581 163.63 181.404 162.981 188.924 166.794L189.718 167.195C191.924 168.313 193.989 168.596 195.533 167.992C196.722 167.522 198.187 167.699 199.769 168.503C203.747 170.517 207.092 175.86 207.073 180.169C207.066 182.011 206.416 183.427 205.242 184.157C204.672 184.511 204.009 184.688 203.284 184.688ZM177.723 171.803C181.902 171.803 186.021 172.617 189.315 174.287L190.153 174.684C192.331 175.789 194.53 177.705 196.345 180.082C197.597 181.716 199.055 182.983 200.561 183.746L200.676 183.802C202.389 184.638 203.971 184.701 205.132 183.979C206.242 183.288 206.858 181.935 206.864 180.168C206.864 180.168 206.864 180.168 206.864 180.168C206.883 175.929 203.59 170.672 199.674 168.689C198.148 167.914 196.743 167.739 195.609 168.186C194.01 168.813 191.885 168.527 189.623 167.382L188.83 166.98C181.37 163.197 169.639 163.842 162.682 168.417C159.361 170.601 157.612 173.356 157.759 176.175L158.064 182.028C158.53 179.725 160.219 177.536 162.958 175.735C166.899 173.143 172.36 171.803 177.723 171.803Z" fill="#373B42"/>
<path d="M170.406 188.723C170.391 188.722 170.377 188.72 170.36 188.719C170.348 188.717 170.335 188.715 170.323 188.711C170.35 188.717 170.379 188.72 170.406 188.723Z" fill="white"/>
<path d="M170.406 188.828C170.402 188.828 170.398 188.828 170.395 188.827L170.351 188.823C170.326 188.82 170.308 188.816 170.289 188.81C170.237 188.792 170.208 188.736 170.222 188.683C170.237 188.63 170.291 188.597 170.345 188.609C170.366 188.613 170.389 188.616 170.41 188.619C170.41 188.619 170.411 188.619 170.411 188.619L170.418 188.62C170.471 188.63 170.512 188.681 170.505 188.735C170.499 188.788 170.458 188.828 170.406 188.828Z" fill="#373B42"/>
<path d="M170.406 188.723C170.391 188.722 170.377 188.72 170.36 188.719C170.348 188.717 170.335 188.715 170.323 188.711C170.35 188.717 170.379 188.72 170.406 188.723Z" fill="white"/>
<path d="M170.406 188.828C170.402 188.828 170.398 188.828 170.395 188.827L170.351 188.823C170.326 188.82 170.308 188.816 170.289 188.81C170.237 188.792 170.208 188.736 170.222 188.683C170.237 188.63 170.291 188.597 170.345 188.609C170.366 188.613 170.389 188.616 170.41 188.619C170.41 188.619 170.411 188.619 170.411 188.619L170.418 188.62C170.471 188.63 170.512 188.681 170.505 188.735C170.499 188.788 170.458 188.828 170.406 188.828Z" fill="#373B42"/>
<path d="M188.493 193.745C188.624 196.255 187.836 198.07 186.453 198.979L181.982 201.917C183.363 201.01 184.153 199.195 184.022 196.685C183.76 191.631 179.87 185.673 175.336 183.374C173.055 182.219 171.045 182.211 169.645 183.132L174.116 180.192C175.516 179.271 177.528 179.279 179.808 180.436C184.343 182.733 188.231 188.691 188.493 193.745Z" fill="white"/>
<path d="M181.982 202.021C181.948 202.021 181.915 202.005 181.895 201.974C181.863 201.926 181.877 201.861 181.925 201.829C183.335 200.904 184.043 199.079 183.918 196.691C183.658 191.68 179.787 185.748 175.288 183.468C173.116 182.367 171.133 182.28 169.703 183.219L169.703 183.22C169.654 183.251 169.59 183.239 169.558 183.19C169.526 183.142 169.54 183.077 169.588 183.045C169.589 183.044 169.591 183.043 169.592 183.043L174.058 180.105C175.554 179.121 177.613 179.205 179.856 180.343C184.412 182.651 188.333 188.661 188.597 193.74C188.726 196.205 187.985 198.097 186.51 199.066L182.043 202.002C182.042 202.003 182.041 202.003 182.04 202.004C182.022 202.016 182.002 202.021 181.982 202.021ZM171.985 182.364C173.025 182.364 174.177 182.671 175.383 183.281C179.941 185.592 183.863 191.602 184.127 196.68C184.224 198.539 183.826 200.072 182.992 201.128L186.395 198.891C187.805 197.965 188.513 196.139 188.388 193.751C188.128 188.738 184.258 182.807 179.761 180.53C177.589 179.428 175.604 179.339 174.173 180.28L170.771 182.518C171.154 182.415 171.56 182.364 171.985 182.364Z" fill="#373B42"/>
<path d="M188.493 193.745C188.624 196.255 187.836 198.07 186.453 198.979L181.982 201.917C183.363 201.01 184.153 199.195 184.022 196.685C183.76 191.631 179.87 185.673 175.336 183.374C173.055 182.219 171.045 182.211 169.645 183.132L174.116 180.192C175.516 179.271 177.528 179.279 179.808 180.436C184.343 182.733 188.231 188.691 188.493 193.745Z" fill="#FFBE2E"/>
<path d="M181.982 202.021C181.948 202.021 181.915 202.005 181.895 201.974C181.863 201.926 181.877 201.861 181.925 201.829C183.335 200.904 184.043 199.079 183.918 196.691C183.658 191.68 179.787 185.748 175.288 183.468C173.116 182.367 171.133 182.28 169.703 183.219L169.703 183.22C169.654 183.251 169.59 183.239 169.558 183.19C169.526 183.142 169.54 183.077 169.588 183.045C169.589 183.044 169.591 183.043 169.592 183.043L174.058 180.105C175.554 179.121 177.613 179.205 179.856 180.343C184.412 182.651 188.333 188.661 188.597 193.74C188.726 196.205 187.985 198.097 186.51 199.066L182.043 202.002C182.042 202.003 182.041 202.003 182.04 202.004C182.022 202.016 182.002 202.021 181.982 202.021ZM171.985 182.364C173.025 182.364 174.177 182.671 175.383 183.281C179.941 185.592 183.863 191.602 184.127 196.68C184.224 198.539 183.826 200.072 182.992 201.128L186.395 198.891C187.805 197.965 188.513 196.139 188.388 193.751C188.128 188.738 184.258 182.807 179.761 180.53C177.589 179.428 175.604 179.339 174.173 180.28L170.771 182.518C171.154 182.415 171.56 182.364 171.985 182.364Z" fill="#373B42"/>
<path d="M175.336 183.376C179.87 185.673 183.759 191.632 184.022 196.686C184.285 201.738 180.823 203.972 176.289 201.674C171.756 199.378 167.866 193.419 167.603 188.366C167.34 183.313 170.804 181.079 175.336 183.376Z" fill="#978050"/>
<path d="M179.643 202.685C178.602 202.685 177.448 202.378 176.241 201.767C171.685 199.458 167.763 193.449 167.499 188.371C167.37 185.896 168.117 184.001 169.602 183.035C171.096 182.063 173.149 182.15 175.384 183.282C179.94 185.591 183.862 191.601 184.126 196.679C184.255 199.154 183.508 201.049 182.023 202.015C181.336 202.462 180.53 202.685 179.643 202.685ZM171.984 182.573C171.136 182.573 170.369 182.785 169.716 183.21C168.296 184.134 167.583 185.963 167.708 188.36C167.968 193.371 171.839 199.302 176.336 201.581C178.5 202.678 180.48 202.77 181.909 201.84C183.329 200.916 184.042 199.087 183.917 196.69C183.657 191.679 179.786 185.747 175.289 183.469C174.113 182.873 172.992 182.573 171.984 182.573Z" fill="#373B42"/>
<path d="M179.486 198.233C179.472 202.05 176.677 203.687 173.15 201.963C173.109 201.944 173.071 201.925 173.031 201.903C171.46 201.107 169.985 199.785 168.779 198.21C166.973 195.846 164.81 193.953 162.625 192.845L161.785 192.446C157.377 190.213 155.062 187.082 154.895 183.838L154.505 176.363C154.683 179.601 156.995 182.724 161.395 184.953L162.188 185.355C164.359 186.455 166.463 186.793 168.089 186.153C169.199 185.718 170.638 185.849 172.239 186.662C176.162 188.649 179.505 193.928 179.486 198.233Z" fill="#FFF7E4"/>
<path d="M175.802 202.754C174.969 202.754 174.054 202.521 173.104 202.057C173.064 202.038 173.025 202.019 172.982 201.996C171.447 201.218 169.965 199.931 168.697 198.274C166.899 195.922 164.726 194.027 162.578 192.939L161.74 192.541C157.435 190.359 154.968 187.271 154.79 183.844L154.401 176.369C154.398 176.311 154.442 176.262 154.5 176.259C154.569 176.255 154.607 176.3 154.61 176.358V176.358C154.794 179.702 157.22 182.722 161.442 184.86L162.235 185.262C164.443 186.381 166.508 186.663 168.05 186.056C169.242 185.589 170.707 185.767 172.286 186.569C176.265 188.584 179.61 193.925 179.591 198.233C179.584 200.076 178.934 201.493 177.759 202.223C177.19 202.578 176.526 202.754 175.802 202.754ZM154.701 178.112L154.999 183.833C155.172 187.182 157.599 190.208 161.832 192.354L162.67 192.751C164.848 193.855 167.046 195.771 168.862 198.147C170.112 199.779 171.57 201.046 173.078 201.811C173.119 201.832 173.155 201.85 173.194 201.868C174.906 202.705 176.488 202.768 177.649 202.046C178.76 201.355 179.375 200.001 179.382 198.233C179.382 198.233 179.382 198.233 179.382 198.232C179.401 193.994 176.108 188.739 172.192 186.756C170.667 185.981 169.261 185.806 168.127 186.25C166.529 186.88 164.403 186.594 162.141 185.449L161.347 185.047C157.799 183.249 155.498 180.831 154.701 178.112Z" fill="#373B42"/>
<path d="M159.964 167.414C152.185 172.778 152.788 180.58 161.414 184.951L162.206 185.354C163.783 186.152 165.321 186.545 166.667 186.459L166.686 186.448L168.821 185.044C167.976 185.097 167.055 184.964 166.099 184.658C165.529 184.478 164.944 184.236 164.356 183.937L163.562 183.537C156.835 180.128 155.816 174.273 160.746 169.794C165.826 165.512 172.458 163.883 180.164 164.537C183.331 164.824 186.362 165.597 188.896 166.886L189.689 167.286C191.268 168.086 192.811 168.479 194.16 168.392L196.313 166.975C194.962 167.066 193.419 166.674 191.839 165.869L191.045 165.471C187.759 163.807 183.769 162.873 179.634 162.642C171.841 162.03 165.338 163.683 159.964 167.414Z" fill="#373B42"/>
<path d="M166.301 186.575C165.047 186.575 163.624 186.188 162.158 185.447L161.366 185.044C157.119 182.892 154.654 179.844 154.426 176.463C154.203 173.162 156.149 169.918 159.904 167.328C165.349 163.548 171.992 161.937 179.642 162.538C183.936 162.777 187.896 163.759 191.092 165.378L191.886 165.775C193.467 166.58 194.995 166.961 196.306 166.871C196.354 166.869 196.397 166.896 196.412 166.942C196.427 166.987 196.41 167.036 196.371 167.062L194.218 168.48C194.203 168.49 194.185 168.496 194.167 168.497C192.818 168.583 191.254 168.196 189.641 167.379L188.85 166.979C186.421 165.744 183.415 164.936 180.155 164.641C172.235 163.969 165.729 165.73 160.814 169.874C158.57 171.912 157.507 174.331 157.825 176.681C158.183 179.333 160.237 181.734 163.609 183.443L164.403 183.843C164.983 184.139 165.564 184.379 166.13 184.558C167.085 184.863 167.988 184.991 168.814 184.939C168.862 184.936 168.905 184.965 168.92 185.01C168.935 185.055 168.918 185.105 168.878 185.131L166.744 186.535C166.742 186.536 166.721 186.548 166.72 186.549C166.706 186.557 166.69 186.562 166.674 186.563C166.552 186.571 166.428 186.575 166.301 186.575ZM176.579 162.624C170.249 162.624 164.692 164.259 160.024 167.499C160.024 167.5 160.024 167.5 160.023 167.5C156.331 170.046 154.417 173.224 154.634 176.449C154.857 179.754 157.282 182.74 161.461 184.858L162.253 185.26C163.821 186.054 165.336 186.434 166.634 186.356L168.453 185.16C168.452 185.16 168.451 185.16 168.449 185.16C167.702 185.16 166.903 185.025 166.067 184.757C165.49 184.575 164.899 184.33 164.309 184.029L163.515 183.63C160.079 181.889 157.985 179.431 157.618 176.709C157.291 174.288 158.377 171.805 160.676 169.717C165.638 165.533 172.196 163.756 180.173 164.433C183.46 164.73 186.492 165.546 188.944 166.792L189.735 167.192C191.305 167.987 192.824 168.366 194.126 168.29L195.945 167.092C195.939 167.092 195.933 167.092 195.927 167.092C194.671 167.092 193.251 166.705 191.792 165.962L190.998 165.564C187.827 163.959 183.896 162.984 179.628 162.746C178.593 162.665 177.576 162.624 176.579 162.624Z" fill="#212121"/>
<path d="M208.686 180.486C208.817 182.996 208.03 184.811 206.647 185.72L202.176 188.658C203.557 187.751 204.347 185.936 204.216 183.426C203.954 178.372 200.064 172.414 195.529 170.116C193.248 168.961 191.239 168.953 189.839 169.874L194.309 166.934C195.709 166.013 197.721 166.02 200.002 167.178C204.537 169.474 208.424 175.432 208.686 180.486Z" fill="white"/>
<path d="M202.176 188.762C202.142 188.762 202.108 188.746 202.088 188.715C202.056 188.667 202.07 188.602 202.118 188.57C203.528 187.644 204.236 185.82 204.111 183.432C203.851 178.421 199.98 172.489 195.482 170.209C193.309 169.109 191.325 169.021 189.896 169.961V169.961C189.847 169.993 189.782 169.979 189.751 169.931C189.719 169.883 189.733 169.818 189.781 169.786V169.786L194.252 166.846C195.748 165.862 197.807 165.947 200.049 167.084C204.605 169.392 208.526 175.402 208.79 180.481C208.919 182.947 208.178 184.838 206.704 185.807L202.238 188.742C202.236 188.743 202.234 188.744 202.233 188.745C202.215 188.757 202.195 188.762 202.176 188.762ZM192.178 169.105C193.218 169.105 194.371 169.412 195.576 170.022C200.134 172.333 204.057 178.343 204.32 183.421C204.417 185.28 204.019 186.813 203.185 187.869L206.589 185.632C207.999 184.706 208.706 182.88 208.581 180.492C208.322 175.479 204.452 169.548 199.954 167.271C197.782 166.168 195.797 166.08 194.367 167.021L190.964 169.258C191.347 169.156 191.753 169.105 192.178 169.105Z" fill="#373B42"/>
<path d="M206.718 175.692C206.425 175.861 206.424 176.136 206.714 176.305L217.933 182.827C218.549 183.185 218.853 183.649 218.847 184.117C218.845 184.587 218.535 185.051 217.919 185.407L203.504 193.736C203.212 193.905 203.207 194.179 203.497 194.347C203.787 194.516 204.262 194.516 204.555 194.347L218.973 186.02C220.79 184.97 220.799 183.268 218.991 182.216L207.772 175.694C207.482 175.525 207.01 175.523 206.718 175.692Z" fill="#373B42"/>
<path d="M204.025 194.58C203.816 194.58 203.607 194.533 203.444 194.438C203.272 194.338 203.177 194.199 203.177 194.045C203.178 193.89 203.275 193.749 203.451 193.647L217.866 185.317C218.429 184.992 218.74 184.566 218.743 184.117C218.748 183.67 218.442 183.245 217.88 182.918L206.661 176.396C206.488 176.295 206.393 176.154 206.393 176C206.393 175.845 206.49 175.704 206.665 175.602C206.665 175.602 206.665 175.602 206.665 175.602C206.99 175.415 207.499 175.415 207.825 175.604L219.043 182.127C219.949 182.653 220.446 183.359 220.446 184.114C220.444 184.873 219.94 185.582 219.025 186.111L204.607 194.439C204.444 194.533 204.234 194.58 204.025 194.58ZM206.77 175.783C206.663 175.845 206.602 175.924 206.602 176C206.602 176.076 206.662 176.154 206.767 176.215L217.986 182.738C218.615 183.104 218.958 183.594 218.952 184.119C218.949 184.645 218.6 185.135 217.971 185.498L203.556 193.828C203.448 193.89 203.386 193.969 203.386 194.046C203.386 194.121 203.444 194.196 203.55 194.258C203.806 194.407 204.243 194.407 204.502 194.257L218.92 185.93C219.768 185.44 220.236 184.795 220.237 184.114C220.238 183.436 219.776 182.795 218.938 182.307L207.719 175.785C207.462 175.635 207.027 175.635 206.77 175.783Z" fill="#373B42"/>
<path d="M208.686 180.486C208.817 182.996 208.03 184.811 206.647 185.72L202.176 188.658C203.557 187.751 204.347 185.936 204.216 183.426C203.954 178.372 200.064 172.414 195.529 170.116C193.248 168.961 191.239 168.953 189.839 169.874L194.309 166.934C195.709 166.013 197.721 166.02 200.002 167.178C204.537 169.474 208.424 175.432 208.686 180.486Z" fill="#FFBE2E"/>
<path d="M202.176 188.762C202.142 188.762 202.108 188.746 202.088 188.715C202.056 188.667 202.07 188.602 202.118 188.57C203.528 187.644 204.236 185.82 204.111 183.432C203.851 178.421 199.98 172.489 195.482 170.209C193.309 169.109 191.325 169.021 189.896 169.961V169.961C189.847 169.993 189.782 169.979 189.751 169.931C189.719 169.883 189.733 169.818 189.781 169.786V169.786L194.252 166.846C195.748 165.862 197.807 165.947 200.049 167.084C204.605 169.392 208.526 175.402 208.79 180.481C208.919 182.947 208.178 184.838 206.704 185.807L202.238 188.742C202.236 188.743 202.234 188.744 202.233 188.745C202.215 188.757 202.195 188.762 202.176 188.762ZM192.178 169.105C193.218 169.105 194.371 169.412 195.576 170.022C200.134 172.333 204.057 178.343 204.32 183.421C204.417 185.28 204.019 186.813 203.185 187.869L206.589 185.632C207.999 184.706 208.706 182.88 208.581 180.492C208.322 175.479 204.452 169.548 199.954 167.271C197.782 166.168 195.797 166.08 194.367 167.021L190.964 169.258C191.347 169.156 191.753 169.105 192.178 169.105Z" fill="#373B42"/>
<path d="M195.529 170.116C200.063 172.414 203.952 178.372 204.215 183.426C204.478 188.478 201.016 190.712 196.482 188.415C191.949 186.118 188.059 180.159 187.796 175.107C187.533 170.053 190.997 167.82 195.529 170.116Z" fill="#978050"/>
<path d="M199.836 189.426C198.795 189.426 197.641 189.119 196.435 188.508C191.878 186.2 187.957 180.19 187.692 175.112C187.564 172.637 188.31 170.742 189.795 169.776C191.29 168.804 193.342 168.891 195.577 170.023C200.133 172.332 204.055 178.342 204.319 183.421C204.448 185.895 203.702 187.79 202.217 188.756C201.529 189.204 200.723 189.426 199.836 189.426ZM192.177 169.315C191.33 169.315 190.562 169.526 189.909 169.951C188.49 170.875 187.776 172.704 187.901 175.102C188.162 180.113 192.032 186.043 196.529 188.322C198.694 189.419 200.674 189.511 202.103 188.581C203.522 187.657 204.235 185.828 204.11 183.432C203.85 178.42 199.979 172.489 195.482 170.21C194.307 169.614 193.185 169.315 192.177 169.315Z" fill="#373B42"/>
<path d="M194.576 174.502C193.025 174.263 191.967 175.333 192.068 177.281C192.195 179.692 194.05 182.537 196.215 183.636C197.978 184.527 199.397 183.987 199.798 182.456C199.891 182.104 199.93 181.702 199.906 181.253C199.779 178.84 197.924 175.994 195.759 174.898C195.342 174.689 194.943 174.558 194.576 174.502Z" fill="#FFBE2E"/>
<path d="M197.818 184.17C197.309 184.17 196.746 184.022 196.168 183.729C193.978 182.618 192.092 179.728 191.964 177.287C191.91 176.241 192.189 175.385 192.751 174.877C193.222 174.451 193.859 174.286 194.592 174.399C194.978 174.458 195.386 174.594 195.806 174.805C197.996 175.914 199.882 178.804 200.01 181.248C200.035 181.694 199.997 182.11 199.9 182.483C199.711 183.205 199.304 183.724 198.722 183.986C198.449 184.109 198.145 184.17 197.818 184.17ZM194.158 174.574C193.659 174.574 193.227 174.729 192.892 175.032C192.377 175.497 192.122 176.294 192.173 177.276C192.298 179.65 194.132 182.462 196.263 183.543C197.155 183.994 197.998 184.083 198.636 183.796C199.158 183.56 199.525 183.088 199.697 182.43C199.79 182.078 199.825 181.684 199.801 181.259C199.677 178.882 197.842 176.07 195.712 174.992C195.312 174.791 194.924 174.661 194.56 174.605C194.422 174.584 194.288 174.574 194.158 174.574Z" fill="#373B42"/>
<path d="M199.798 182.456C199.397 183.987 197.978 184.527 196.215 183.636C194.05 182.537 192.195 179.692 192.068 177.281C191.967 175.333 193.025 174.263 194.576 174.502C194.483 174.851 194.444 175.253 194.469 175.705C194.592 178.116 196.45 180.961 198.615 182.057C199.033 182.269 199.431 182.4 199.798 182.456Z" fill="#373B42"/>
<path d="M197.818 184.17C197.309 184.17 196.747 184.022 196.168 183.729C193.978 182.618 192.092 179.728 191.964 177.287C191.91 176.241 192.189 175.385 192.751 174.877C193.222 174.451 193.859 174.286 194.592 174.399C194.622 174.403 194.647 174.42 194.664 174.445C194.68 174.47 194.685 174.5 194.677 174.529C194.585 174.878 194.55 175.272 194.573 175.699C194.695 178.074 196.529 180.884 198.663 181.964C199.061 182.166 199.448 182.297 199.814 182.353C199.843 182.358 199.87 182.375 199.886 182.399C199.902 182.424 199.907 182.455 199.9 182.483C199.711 183.205 199.304 183.724 198.722 183.986C198.449 184.109 198.145 184.17 197.818 184.17ZM194.158 174.574C193.659 174.574 193.227 174.729 192.892 175.032C192.377 175.497 192.122 176.294 192.173 177.276C192.298 179.65 194.132 182.462 196.263 183.543C197.155 183.994 197.998 184.084 198.636 183.796C199.128 183.574 199.483 183.141 199.666 182.54C199.313 182.472 198.944 182.341 198.568 182.15C196.375 181.04 194.489 178.151 194.364 175.71C194.342 175.307 194.37 174.931 194.447 174.59C194.348 174.579 194.252 174.574 194.158 174.574Z" fill="#373B42"/>
<path d="M168.089 186.153C169.199 185.718 170.639 185.849 172.239 186.662C176.162 188.649 179.505 193.928 179.487 198.235C179.479 200.064 178.833 201.395 177.771 202.091L179.921 200.677C180.983 199.981 181.631 198.65 181.636 196.819C181.655 192.511 178.311 187.232 174.391 185.246C172.788 184.436 171.351 184.301 170.238 184.739C169.792 184.913 169.31 185.013 168.801 185.045L166.649 186.46C167.159 186.427 167.642 186.328 168.089 186.153Z" fill="#373B42"/>
<path d="M177.771 202.196C177.737 202.196 177.704 202.179 177.684 202.148C177.652 202.1 177.666 202.035 177.714 202.004L177.724 201.997C178.786 201.296 179.375 199.96 179.382 198.235C179.4 193.996 176.108 188.739 172.191 186.756C170.666 185.981 169.261 185.806 168.126 186.25C167.682 186.424 167.188 186.53 166.655 186.564C166.608 186.566 166.564 186.538 166.55 186.493C166.535 186.448 166.552 186.398 166.591 186.372L168.743 184.958C168.759 184.948 168.776 184.942 168.794 184.941C169.303 184.909 169.776 184.808 170.2 184.642C171.386 184.175 172.853 184.351 174.437 185.153C178.415 187.168 181.759 192.511 181.74 196.82C181.735 198.622 181.11 200.023 179.978 200.765L177.839 202.172C177.836 202.174 177.832 202.176 177.829 202.179C177.811 202.19 177.791 202.196 177.771 202.196ZM169.452 185.801C170.323 185.801 171.281 186.059 172.286 186.569C176.264 188.584 179.61 193.927 179.591 198.236C179.586 199.508 179.272 200.58 178.691 201.361L179.863 200.59C180.934 199.888 181.527 198.549 181.531 196.819C181.55 192.58 178.258 187.323 174.343 185.339C172.813 184.565 171.405 184.392 170.276 184.836C169.84 185.007 169.356 185.112 168.835 185.148L167.065 186.312C167.416 186.261 167.746 186.175 168.05 186.056C168.484 185.886 168.954 185.801 169.452 185.801Z" fill="#212121"/>
<path d="M172.408 190.955C174.216 191.871 175.767 194.248 175.872 196.264C175.977 198.279 174.596 199.17 172.788 198.253C170.98 197.337 169.428 194.961 169.323 192.946C169.219 190.93 170.6 190.039 172.408 190.955Z" fill="white"/>
<path d="M174.126 198.719C173.701 198.719 173.231 198.595 172.741 198.346C170.905 197.416 169.325 194.996 169.219 192.95C169.167 191.94 169.475 191.164 170.087 190.766C170.703 190.365 171.544 190.399 172.455 190.861C174.29 191.791 175.87 194.212 175.977 196.258C176.029 197.268 175.721 198.044 175.109 198.442C174.825 198.627 174.492 198.719 174.126 198.719ZM171.071 190.698C170.745 190.698 170.451 190.779 170.201 190.941C169.654 191.297 169.38 192.007 169.428 192.94C169.531 194.918 171.059 197.26 172.835 198.16C173.678 198.587 174.446 198.625 174.995 198.267C175.542 197.911 175.816 197.201 175.768 196.269C175.665 194.29 174.136 191.948 172.361 191.048C171.901 190.815 171.463 190.698 171.071 190.698Z" fill="#373B42"/>
<path d="M172.495 192.638C173.47 193.132 174.305 194.413 174.362 195.499C174.418 196.584 173.674 197.064 172.7 196.571C171.726 196.077 170.89 194.797 170.834 193.711C170.777 192.625 171.521 192.145 172.495 192.638Z" fill="#373B42"/>
<path d="M173.421 196.87C173.184 196.87 172.924 196.801 172.653 196.664C171.65 196.156 170.787 194.834 170.729 193.716C170.7 193.154 170.874 192.721 171.219 192.496C171.564 192.271 172.035 192.288 172.543 192.545C173.545 193.053 174.408 194.376 174.466 195.493C174.496 196.055 174.322 196.488 173.977 196.713C173.816 196.818 173.627 196.87 173.421 196.87ZM171.775 192.548C171.609 192.548 171.459 192.589 171.332 192.672C171.053 192.854 170.913 193.221 170.938 193.705C170.993 194.756 171.804 195.999 172.747 196.477C173.185 196.699 173.581 196.721 173.863 196.537C174.143 196.356 174.283 195.989 174.257 195.504C174.203 194.453 173.391 193.209 172.448 192.732C172.207 192.61 171.979 192.548 171.775 192.548Z" fill="#373B42"/>
</svg>
