<svg width="188" height="188" viewBox="0 0 188 188" fill="none" xmlns="http://www.w3.org/2000/svg">
<path d="M124.339 135.204C123.594 135.204 122.848 135.04 122.279 134.711L108.346 126.667C108.259 126.617 108.228 126.505 108.279 126.417C108.329 126.329 108.443 126.3 108.529 126.35L122.462 134.394C123.497 134.992 125.181 134.993 126.211 134.394L173.83 107.068C173.917 107.018 174.03 107.048 174.08 107.136C174.13 107.224 174.1 107.336 174.012 107.386L126.394 134.711C125.83 135.04 125.084 135.204 124.339 135.204Z" fill="#212121"/>
<path d="M14.3874 183.296C14.3244 183.296 14.2635 183.264 14.2292 183.205C14.1784 183.118 14.207 183.006 14.2944 182.955L40.4339 167.599C40.8971 167.329 41.1518 166.982 41.1511 166.622C41.1504 166.258 40.892 165.908 40.4225 165.637L26.4899 157.593C26.4026 157.542 26.3725 157.43 26.4226 157.343C26.4742 157.254 26.5866 157.225 26.6732 157.276L40.6059 165.32C41.1935 165.659 41.517 166.121 41.5178 166.621C41.5186 167.118 41.1993 167.578 40.6195 167.915L14.4807 183.271C14.4511 183.288 14.4189 183.296 14.3874 183.296Z" fill="#212121"/>
<g opacity="0.1">
<path d="M9.33602 167.944L0.18335 162.624L78.4035 117.226L87.5563 122.545L9.33602 167.944Z" fill="#383C43"/>
</g>
<g opacity="0.1">
<path d="M58.0386 164.213L39.5061 153.443L58.3119 142.586L76.8444 153.356L58.0386 164.213Z" fill="#383C43"/>
</g>
<g opacity="0.1">
<path d="M81.4293 150.35L62.8967 139.58L81.6997 128.724L100.232 139.494L81.4293 150.35Z" fill="#383C43"/>
</g>
<g opacity="0.1">
<path d="M104.817 136.821L86.2844 126.051L105.087 115.195L123.62 125.965L104.817 136.821Z" fill="#383C43"/>
</g>
<g opacity="0.1">
<path d="M128.207 123.262L109.674 112.492L128.48 101.635L147.013 112.405L128.207 123.262Z" fill="#383C43"/>
</g>
<g opacity="0.1">
<path d="M151.599 109.696L133.066 98.9262L151.869 88.0703L170.402 98.8402L151.599 109.696Z" fill="#383C43"/>
</g>
<path d="M81.5941 5.45825C81.5395 5.42704 81.4847 5.4036 81.4301 5.38027C81.3678 5.34906 81.2975 5.31774 81.235 5.30219C81.2117 5.28653 81.1961 5.28653 81.1727 5.27875C81.1024 5.25532 81.0399 5.23966 80.962 5.2241C80.8839 5.20089 80.7981 5.19289 80.7122 5.18522C80.0722 5.11491 79.3153 5.30219 78.5115 5.76271L12.927 43.6274C12.529 43.8537 12.1543 44.1347 11.7876 44.4702C10.4219 45.6798 9.32156 47.4982 8.85326 49.2932C8.68943 49.9096 8.60357 50.5262 8.60357 51.1114L8.88448 158.581C8.88448 158.706 8.89226 158.839 8.90014 158.956C8.90792 159.034 8.9158 159.112 8.92358 159.19C8.93135 159.252 8.93924 159.315 8.94701 159.377C8.95479 159.393 8.95479 159.416 8.95479 159.432C8.97045 159.479 8.97823 159.526 8.986 159.58C9.01711 159.728 9.04832 159.861 9.10297 159.994V160.001C9.13418 160.095 9.1655 160.189 9.21226 160.275C9.3059 160.493 9.42297 160.681 9.55571 160.844C9.5947 160.899 9.64146 160.946 9.68833 160.993C9.75864 161.071 9.82874 161.133 9.90682 161.196C9.9537 161.235 10.0082 161.274 10.0629 161.313L1.72853 156.388C0.948108 155.936 0.464154 154.976 0.464154 153.61L0.18335 46.1402C0.18335 45.555 0.269105 44.9386 0.433052 44.322C0.901237 42.527 2.00166 40.7087 3.36734 39.4992C3.73411 39.1635 4.10877 38.8826 4.50675 38.6564L70.0913 0.791511C71.293 0.089178 72.3856 0.0267534 73.1738 0.487054L81.5941 5.45825Z" fill="#212121"/>
<path d="M11.7877 44.4711C10.4221 45.6807 9.32175 47.4991 8.85346 49.2941L0.43335 44.3228C0.901535 42.5278 2.00197 40.7095 3.36764 39.5" fill="#FFBE2E"/>
<path d="M10.1485 161.36C10.1251 161.352 10.1017 161.337 10.0782 161.321C10.0704 161.321 10.0704 161.313 10.0626 161.313C10.008 161.274 9.95337 161.235 9.90649 161.196C9.98458 161.259 10.0626 161.313 10.1485 161.36Z" fill="#BEC4CD"/>
<path d="M9.90723 161.196C9.9852 161.259 10.0633 161.313 10.1491 161.36C10.1257 161.352 10.1023 161.337 10.0788 161.321C10.0711 161.321 10.0711 161.313 10.0632 161.313C10.0086 161.274 9.9541 161.235 9.90723 161.196Z" fill="#BEC4CD"/>
<path d="M10.1485 161.36C10.1251 161.352 10.1017 161.337 10.0782 161.321C10.0704 161.321 10.0704 161.313 10.0626 161.313C10.008 161.274 9.95337 161.235 9.90649 161.196C9.98458 161.259 10.0626 161.313 10.1485 161.36Z" fill="#BEC4CD"/>
<path d="M83.1385 115.715C83.1462 118.462 81.2108 121.81 78.8152 123.199L13.2307 161.064C12.0288 161.758 10.9364 161.821 10.1481 161.36C10.1247 161.353 10.1012 161.337 10.0778 161.321C10.07 161.321 10.07 161.314 10.0621 161.314C10.0076 161.275 9.95293 161.236 9.90606 161.197C9.82798 161.134 9.75788 161.072 9.68757 160.994C9.6407 160.947 9.59393 160.9 9.55494 160.845C9.42221 160.682 9.30514 160.494 9.2115 160.276C9.16474 160.19 9.13353 160.096 9.1022 160.002V159.995C9.05533 159.862 9.01634 159.729 8.98524 159.581C8.97746 159.527 8.96958 159.48 8.95402 159.433C8.95402 159.417 8.95403 159.394 8.94625 159.378C8.93847 159.316 8.93059 159.253 8.92281 159.191C8.91504 159.113 8.90715 159.035 8.89938 158.957C8.8916 158.84 8.88372 158.707 8.88372 158.582L8.60281 51.1124C8.59514 48.3654 10.5304 45.0097 12.9262 43.6283L78.5107 5.76371C79.3146 5.30319 80.0715 5.11592 80.7115 5.18623C80.7973 5.1939 80.8831 5.20189 80.9613 5.22511C81.0392 5.24077 81.1017 5.25632 81.172 5.27976C81.1953 5.28753 81.211 5.28754 81.2343 5.3032C81.2968 5.31886 81.3671 5.35007 81.4293 5.38128C82.3035 5.78715 82.8497 6.78584 82.8575 8.24526L83.1385 115.715Z" fill="#DBDEE4"/>
<path d="M14.8459 51.0949C14.8711 50.5359 15.5692 49.3356 16.0501 49.0337L76.6314 14.0576L76.8959 115.733C76.8707 116.295 76.1657 117.5 75.6796 117.801L15.1104 152.77L14.8459 51.0949Z" fill="#BEC4CD"/>
<path d="M83.1385 115.716C83.1462 118.463 81.2108 121.811 78.8152 123.2L13.2307 161.065C12.0288 161.759 10.9364 161.822 10.1481 161.361C10.1247 161.354 10.1012 161.338 10.0778 161.322C10.07 161.322 10.07 161.315 10.0621 161.315C10.0076 161.275 9.95293 161.237 9.90606 161.198C9.82798 161.135 9.75788 161.073 9.68757 160.995C9.6407 160.948 9.59393 160.901 9.55494 160.846C9.42221 160.683 9.30514 160.495 9.2115 160.277C9.16474 160.191 9.13353 160.097 9.1022 160.003V159.996C9.05533 159.863 9.01634 159.73 8.98524 159.582C8.97746 159.527 8.96958 159.481 8.95402 159.434C8.95402 159.418 8.95403 159.395 8.94625 159.379C8.93847 159.317 8.93059 159.254 8.92281 159.192C8.91504 159.114 8.90715 159.036 8.89938 158.958C8.8916 158.841 8.88372 158.708 8.88372 158.583L8.60281 51.1134C8.59514 48.3664 10.5304 45.0107 12.9262 43.6293L78.5107 5.76469C79.3146 5.30417 80.0715 5.1169 80.7115 5.18721C80.7973 5.19487 80.8831 5.20287 80.9613 5.22609C81.0392 5.24175 81.1017 5.2573 81.172 5.28073C81.1953 5.28851 81.211 5.28851 81.2343 5.30417C81.2968 5.31983 81.3671 5.35104 81.4293 5.38226C82.3035 5.78813 82.8497 6.78681 82.8575 8.24624L83.1385 115.716Z" fill="#383C43"/>
<path d="M11.2934 161.841C10.8432 161.841 10.4251 161.734 10.0559 161.519C10.0459 161.519 10.0165 161.5 9.98566 161.48C9.97492 161.475 9.96484 161.469 9.95564 161.462C9.89771 161.421 9.83967 161.379 9.78962 161.338C9.70584 161.271 9.62852 161.202 9.55131 161.116C9.5005 161.065 9.44891 161.012 9.40598 160.952C9.2635 160.776 9.13898 160.57 9.04381 160.348C8.99945 160.268 8.96364 160.165 8.92859 160.061C8.92575 160.052 8.92356 160.043 8.92214 160.033C8.87636 159.901 8.83693 159.767 8.80616 159.618C8.79827 159.564 8.79324 159.528 8.78042 159.491C8.77396 159.472 8.77111 159.452 8.77111 159.433L8.71745 158.975C8.70891 158.848 8.70102 158.711 8.70102 158.582L8.42043 51.1127C8.41255 48.3068 10.3932 44.8778 12.8354 43.4692L78.4195 5.60525C79.2391 5.13575 80.04 4.92668 80.7321 5.004C80.8303 5.01254 80.9226 5.02229 81.0142 5.04945C81.0836 5.06238 81.1523 5.0799 81.2303 5.10563C81.2504 5.111 81.2761 5.11779 81.3055 5.13247C81.3656 5.14999 81.4328 5.17792 81.5116 5.21723C82.4743 5.66384 83.0333 6.76799 83.0412 8.24428L83.3226 115.715C83.3304 118.513 81.3498 121.942 78.9076 123.358L13.3229 161.223C12.6111 161.634 11.9204 161.841 11.2934 161.841ZM10.1574 161.156C10.1653 161.16 10.1724 161.164 10.1796 161.169C10.1911 161.173 10.2304 161.196 10.2405 161.202C11.0035 161.648 12.0343 161.544 13.1394 160.906L78.7241 123.041C81.0647 121.683 82.9637 118.397 82.9559 115.716L82.6745 8.24604C82.6674 6.91825 82.1857 5.93446 81.3524 5.54754C81.2822 5.51249 81.2293 5.49102 81.1899 5.48128C81.1685 5.47591 81.1484 5.46693 81.1306 5.45445C81.0518 5.43298 80.996 5.41896 80.9259 5.40505C80.8507 5.38359 80.7805 5.37647 80.6961 5.36891C80.0791 5.302 79.3526 5.49234 78.6017 5.92296L13.0184 43.7868C10.677 45.1367 8.77889 48.4229 8.78666 51.1121L9.06724 158.582C9.06724 158.703 9.07513 158.831 9.08225 158.945L9.12594 159.336C9.13306 159.361 9.13591 159.384 9.13668 159.403C9.15026 159.451 9.15891 159.499 9.16679 159.555C9.19395 159.684 9.23119 159.809 9.27555 159.934C9.27916 159.944 9.28124 159.955 9.28343 159.966C9.30917 160.042 9.33501 160.118 9.37291 160.188C9.46381 160.397 9.56763 160.569 9.69784 160.73C9.73573 160.783 9.77439 160.821 9.81163 160.858C9.88752 160.942 9.9505 160.997 10.0206 161.053C10.0636 161.089 10.1102 161.122 10.1574 161.156Z" fill="#383C43"/>
<path d="M11.2942 160.574C11.0795 160.574 10.8894 160.53 10.7282 160.445L10.5191 160.235L10.4586 160.235L10.4156 160.19C10.3178 160.067 10.2559 159.965 10.2066 159.849L10.1707 159.773L10.122 159.631C10.0939 159.551 10.0699 159.471 10.0495 159.383C10.0453 159.357 10.0411 159.331 10.0362 159.305V159.182L10.0023 159.102L9.9756 158.849C9.97276 158.789 9.96574 158.682 9.96574 158.581L9.68483 51.1081C9.67848 48.7468 11.4102 45.7498 13.467 44.5636L79.0523 6.69856C79.5612 6.40714 80.0441 6.25195 80.4447 6.25195C80.4954 6.25195 80.5453 6.25436 80.5939 6.26006L80.6925 6.26959C80.7221 6.2766 80.7446 6.28153 80.7622 6.2858L80.7924 6.3066L80.9754 6.35161C81.4794 6.59518 81.7722 7.2836 81.7772 8.24976L82.0581 115.717C82.0644 118.072 80.3313 121.069 78.2738 122.262L12.6906 160.127C12.1847 160.419 11.7018 160.574 11.2942 160.574Z" fill="#FFF7E4"/>
<path d="M11.2938 160.757C11.0497 160.757 10.8307 160.706 10.6424 160.607C10.6267 160.598 10.6117 160.587 10.5987 160.574L10.4412 160.418C10.3983 160.414 10.3575 160.394 10.3267 160.363L10.2838 160.318C10.1678 160.174 10.0955 160.055 10.0382 159.921L9.94876 159.692C9.91864 159.606 9.8929 159.52 9.87077 159.425L9.83354 159.174C9.82642 159.157 9.82204 159.14 9.81996 159.122L9.7928 158.869C9.7928 158.865 9.79061 158.822 9.78995 158.819C9.78711 158.755 9.78207 158.666 9.78207 158.582L9.50148 51.1088C9.49502 48.6905 11.2688 45.6205 13.3753 44.4054L78.9608 6.54036C79.5721 6.19035 80.1411 6.02038 80.6157 6.07864L80.8054 6.10799C80.8269 6.11336 80.8477 6.12266 80.8663 6.13559L81.0195 6.17425C81.6258 6.46239 81.955 7.21389 81.9608 8.24894L82.2414 115.717C82.2479 118.129 80.4735 121.2 78.3655 122.421L12.7822 160.285C12.248 160.594 11.7333 160.757 11.2938 160.757ZM10.8372 160.295C11.2501 160.496 11.8994 160.372 12.5987 159.968L78.182 122.104C80.1898 120.94 81.8812 118.015 81.8747 115.718L81.5941 8.25025C81.5899 7.36087 81.335 6.72917 80.8963 6.51704L80.7489 6.48484C80.7274 6.47947 80.7066 6.47049 80.6888 6.45768L80.5764 6.443C80.5313 6.43764 80.4884 6.43545 80.4447 6.43545C80.076 6.43545 79.6266 6.58143 79.1434 6.85775L13.5585 44.7225C11.5515 45.8803 9.86158 48.8046 9.86793 51.108L10.1485 158.581C10.1485 158.659 10.1528 158.74 10.1564 158.799L10.205 159.111C10.2143 159.134 10.2194 159.158 10.2194 159.182L10.2309 159.355C10.2466 159.423 10.2681 159.497 10.2946 159.57L10.3726 159.771C10.4163 159.873 10.4663 159.957 10.5408 160.054C10.5809 160.059 10.6188 160.077 10.6481 160.106L10.8372 160.295Z" fill="#383C43"/>
<path d="M10.0624 161.496C10.0302 161.496 9.99869 161.488 9.96934 161.471L1.63553 156.547C0.762241 156.04 0.280584 154.997 0.280584 153.611L0 46.1412C0 45.5422 0.0858643 44.9144 0.256273 44.2752C0.737272 42.431 1.85456 40.5943 3.24532 39.3628C3.63323 39.0082 4.01697 38.7246 4.41638 38.4978L69.9997 0.633399C71.2186 -0.0795566 72.3796 -0.188636 73.2658 0.329599L81.6869 5.30102C81.7735 5.35216 81.8029 5.46387 81.7521 5.55082C81.7019 5.63811 81.5903 5.66823 81.5029 5.61774C81.4549 5.59058 81.4056 5.56977 81.3576 5.5494C81.2825 5.51184 81.2295 5.49037 81.1901 5.48073C81.1687 5.47537 81.1486 5.46639 81.1308 5.4539C81.052 5.43244 80.9962 5.41842 80.9261 5.40451C80.851 5.38304 80.7808 5.37592 80.6963 5.36837C80.0793 5.30145 79.3528 5.4918 78.6019 5.92242L13.0186 43.7863C12.6407 44.0017 12.2785 44.2698 11.9113 44.6062C10.5706 45.7937 9.49414 47.5628 9.03023 49.34C8.86847 49.947 8.78689 50.5428 8.78689 51.1119L9.06746 158.581C9.06746 158.703 9.07535 158.831 9.08247 158.944L9.12616 159.336C9.13328 159.36 9.13613 159.384 9.1369 159.403C9.15048 159.45 9.15913 159.499 9.16701 159.554C9.19636 159.695 9.22571 159.811 9.27226 159.924C9.2773 159.938 9.28157 159.951 9.28376 159.965C9.3095 160.042 9.33534 160.118 9.37323 160.188C9.46413 160.397 9.56796 160.569 9.69817 160.729C9.73607 160.783 9.77473 160.82 9.81196 160.858C9.88786 160.941 9.95083 160.997 10.0209 161.053C10.0675 161.091 10.1183 161.128 10.1691 161.164C10.2493 161.221 10.2693 161.331 10.2156 161.413C10.1813 161.467 10.1226 161.496 10.0624 161.496ZM72.0318 0.373845C71.4678 0.373845 70.8386 0.567469 70.1837 0.950012L4.59819 38.8155C4.22243 39.0295 3.86026 39.2973 3.49086 39.6352C2.15015 40.8223 1.07371 42.5914 0.610559 44.3686C0.448802 44.9777 0.366445 45.5736 0.366445 46.1409L0.647029 153.61C0.647029 154.861 1.06363 155.792 1.82017 156.23L9.14544 160.559C9.10897 160.49 9.07458 160.42 9.04381 160.347C8.99945 160.267 8.96364 160.164 8.92859 160.06C8.9264 160.053 8.92432 160.046 8.9229 160.039C8.87132 159.908 8.83988 159.78 8.80626 159.618C8.79838 159.564 8.79334 159.527 8.78053 159.491C8.77407 159.472 8.77122 159.452 8.77122 159.432L8.71756 158.975C8.70901 158.848 8.70113 158.71 8.70113 158.582L8.42055 51.1123C8.42055 50.5111 8.50641 49.8837 8.67605 49.2466C9.15782 47.4024 10.2751 45.5657 11.6659 44.3339C12.0517 43.9807 12.4353 43.6968 12.8362 43.4685L78.4195 5.60482C79.1245 5.20081 79.8153 4.99032 80.4366 4.98813L73.0805 0.645446C72.7697 0.464086 72.4162 0.373845 72.0318 0.373845Z" fill="#383C43"/>
<path d="M34.5512 35.2928L34.5212 42.1022C34.5212 42.3069 34.4962 42.4964 34.4464 42.6562C34.4364 42.6862 34.4265 42.7161 34.4164 42.746C34.3715 42.8707 34.3116 42.9755 34.2367 43.0654C34.2218 43.0904 34.2019 43.1102 34.1769 43.1303C34.157 43.1552 34.132 43.1802 34.107 43.2002C34.0871 43.2201 34.0571 43.2401 34.0321 43.2599C34.0271 43.2599 34.0271 43.265 34.0221 43.265C34.0171 43.265 34.0122 43.27 34.0071 43.2749C33.6729 43.4796 33.1989 43.4596 32.6799 43.1552L28.1892 40.5606L28.2091 34.7489L19.7573 29.8521L19.7773 22.582L30.9434 29.0457C32.9446 30.1983 34.5563 32.9974 34.5512 35.2928Z" fill="#383C43"/>
<path d="M33.4907 43.5873C33.203 43.5873 32.8951 43.4935 32.5874 43.3132L28.0981 40.7188C28.0408 40.6863 28.0064 40.6254 28.0064 40.5596L28.0257 34.8541L19.6661 30.0103C19.6089 29.9774 19.5745 29.9169 19.5745 29.8514L19.5945 22.5812C19.5945 22.5158 19.6296 22.4553 19.6862 22.4227C19.7434 22.3905 19.8135 22.3901 19.8694 22.423L31.0355 28.8868C33.0805 30.065 34.7397 32.9388 34.7347 35.2927C34.7347 35.293 34.7347 35.293 34.7347 35.293L34.7046 42.1026C34.7046 42.3291 34.6766 42.5342 34.6208 42.7106L34.59 42.8037C34.5378 42.9504 34.4683 43.0732 34.3767 43.1827C34.3631 43.2132 34.3194 43.2507 34.2901 43.2739C34.2915 43.2796 34.2564 43.3147 34.2214 43.3431C34.2178 43.3484 34.1935 43.3677 34.1684 43.3863C34.1627 43.3906 34.1555 43.3953 34.1483 43.3999C34.1275 43.4177 34.1026 43.4314 34.0761 43.4392C33.8958 43.539 33.6983 43.5873 33.4907 43.5873ZM34.0684 43.4419C34.0534 43.4459 34.0376 43.4481 34.0226 43.4481C34.039 43.4481 34.054 43.4459 34.0684 43.4419ZM34.1077 43.4216C34.0976 43.4277 34.0877 43.4337 34.0769 43.4394C34.0984 43.4323 34.117 43.4216 34.1299 43.4108C34.1227 43.4145 34.1156 43.4184 34.1077 43.4216ZM28.3736 40.4547L32.772 42.9964C33.2073 43.2519 33.6224 43.2963 33.9116 43.1184C33.9152 43.1167 33.918 43.1148 33.9215 43.1127C33.9244 43.111 33.9272 43.1088 33.9308 43.107C33.948 43.0935 33.9774 43.0706 33.9774 43.0706C34.0067 43.0455 34.0225 43.0302 34.0339 43.0155L34.2236 43.0846L34.0782 42.9733C34.1592 42.8723 34.207 42.7862 34.2436 42.6845L34.2722 42.5982C34.3151 42.4622 34.338 42.2897 34.338 42.1022L34.368 35.2919C34.3731 33.0551 32.7955 30.324 30.8521 29.2045L19.9601 22.8992L19.9408 29.7463L28.3011 34.5903C28.3584 34.6233 28.3928 34.6838 28.3928 34.7496L28.3736 40.4547Z" fill="#383C43"/>
<path d="M33.7825 36.5643C33.749 35.5151 32.6039 34.8849 31.6996 35.4182L27.1073 38.1262C25.125 39.27 23.517 42.0492 23.5239 44.3366L23.5344 54.9594C23.5413 57.2398 25.1562 58.1616 27.1456 57.018L67.6934 33.4448C69.6825 32.2943 71.2837 29.5148 71.2768 27.2344L71.2664 16.6116C71.2595 14.3242 69.6445 13.4025 67.6552 14.553L65.216 15.9758C65.3617 16.4956 65.4378 17.0154 65.4378 17.5144L65.4309 19.2888L67.3293 18.178C68.0779 17.7484 68.6878 18.088 68.6878 18.9475L68.6982 27.8651C68.6982 28.7246 68.0951 29.7713 67.3466 30.201L27.4714 53.3861C26.7227 53.8228 26.1197 53.4763 26.1129 52.6166L26.1094 43.699C26.1025 42.8395 26.7054 41.7998 27.4541 41.37L33.1399 37.7764C33.5536 37.5149 33.7982 37.0537 33.7825 36.5643Z" fill="#FFBE2E"/>
<path d="M65.437 17.3982L65.4299 19.2436L65.4082 24.2101C65.4082 24.794 65.1992 25.2047 64.8748 25.3921L34.031 43.2612C34.0526 43.2396 34.0885 43.2252 34.1029 43.2035C34.1319 43.1818 34.1534 43.1604 34.1751 43.1316C34.204 43.1099 34.2183 43.0955 34.2327 43.0666C34.312 42.9802 34.3697 42.872 34.4129 42.7495C34.4273 42.7207 34.4346 42.6917 34.4417 42.6557C34.4922 42.4971 34.5211 42.3097 34.5211 42.1079L34.5428 37.2063L34.55 35.2962C34.55 34.7989 34.4778 34.2726 34.3337 33.7465C33.8364 31.8579 32.5028 29.9478 30.9459 29.0468L19.7732 22.5811L50.6602 4.69043L61.8258 11.149C63.3755 12.0427 64.6946 13.9314 65.2065 15.7982C65.3577 16.3386 65.437 16.8792 65.437 17.3982Z" fill="#FFBE2E"/>
<path d="M34.0308 43.4433C33.9749 43.4433 33.9205 43.4179 33.8848 43.3707C33.8289 43.2967 33.8368 43.1928 33.9034 43.1284C33.9113 43.1206 33.9536 43.0887 33.9628 43.0822C34.0085 43.0443 34.0186 43.0343 34.0286 43.0207C34.0385 43.0071 34.0508 42.9949 34.0644 42.9849C34.0723 42.9691 34.0859 42.9541 34.098 42.9412C34.1559 42.8785 34.2025 42.7955 34.2397 42.6874C34.2533 42.6581 34.2569 42.6448 34.262 42.6191C34.3135 42.4545 34.3378 42.2841 34.3378 42.1065L34.3664 35.2945C34.3664 34.8053 34.2956 34.3003 34.1567 33.7939C33.6593 31.9035 32.3322 30.06 30.8541 29.2043L19.6815 22.7383C19.625 22.7058 19.5898 22.6453 19.5898 22.5798C19.5898 22.5143 19.6249 22.4541 19.6815 22.4212L50.5688 4.53058C50.6247 4.49762 50.6962 4.49762 50.752 4.53058L61.9175 10.989C63.4529 11.874 64.8458 13.787 65.3833 15.7486C65.54 16.3109 65.6202 16.8659 65.6202 17.3971C65.6202 17.3974 65.6202 17.3974 65.6202 17.3979L65.5916 24.2096C65.5916 24.8312 65.364 25.3201 64.9667 25.5495L34.1223 43.4187C34.0937 43.4355 34.0623 43.4433 34.0308 43.4433ZM20.139 22.5798L31.0374 28.8872C32.595 29.7884 33.9908 31.722 34.5111 33.6987C34.6579 34.2348 34.733 34.7727 34.733 35.2952L34.7044 42.1073C34.7044 42.321 34.6744 42.5293 34.6163 42.7089L64.7836 25.2324C65.0642 25.0698 65.2253 24.6969 65.2253 24.2088L65.2539 17.3964C65.2539 16.899 65.1787 16.3772 65.0298 15.8464C64.5158 13.9711 63.1917 12.1469 61.7343 11.3066L50.6605 4.90108L20.139 22.5798Z" fill="#383C43"/>
<path d="M36.1473 67.5543C36.1157 67.5543 36.0843 67.5465 36.0556 67.5297C35.9683 67.4792 35.9382 67.3672 35.9884 67.2796L39.1049 61.8811C39.1213 61.8532 39.1442 61.8303 39.1721 61.8142L43.6958 59.2027C43.7817 59.1515 43.8941 59.1815 43.9464 59.2696C43.9966 59.3573 43.9665 59.4692 43.8792 59.5197L39.3976 62.107L36.3062 67.4628C36.2718 67.5214 36.2103 67.5543 36.1473 67.5543Z" fill="#383C43"/>
<path d="M15.3751 98.2848C15.3121 98.2848 15.2505 98.2519 15.2162 98.1932C15.166 98.1054 15.1961 97.9935 15.2834 97.943L19.7685 95.3537L22.8599 89.9979C22.9115 89.9095 23.0238 89.8805 23.1105 89.931C23.1978 89.9815 23.2279 90.0935 23.1777 90.1811L20.0612 95.5795C20.0448 95.6075 20.0219 95.6304 19.994 95.6465L15.4666 98.2601C15.438 98.2769 15.4065 98.2848 15.3751 98.2848Z" fill="#383C43"/>
<path d="M15.3121 75.9832C15.2491 75.9832 15.1876 75.9502 15.1532 75.8915C15.103 75.8038 15.1331 75.6919 15.2204 75.6414L19.7477 73.0278C19.805 72.9948 19.873 72.9948 19.9303 73.027L23.0675 74.8146C23.1556 74.8648 23.1856 74.9767 23.1355 75.0644C23.0855 75.1525 22.973 75.1818 22.8857 75.1331L19.8401 73.3974L15.4036 75.9584C15.3752 75.9753 15.3436 75.9832 15.3121 75.9832Z" fill="#383C43"/>
<path d="M39.3264 84.4577C39.2949 84.4577 39.2641 84.4498 39.2355 84.4337L36.0983 82.646C36.0102 82.5959 35.9802 82.484 36.0303 82.3962C36.0797 82.3075 36.192 82.2771 36.2801 82.3276L39.3258 84.0633L43.7586 81.5044C43.8438 81.4533 43.9568 81.4833 44.0091 81.5714C44.0593 81.6591 44.0292 81.771 43.9419 81.8215L39.4182 84.433C39.3894 84.4494 39.3579 84.4577 39.3264 84.4577Z" fill="#383C43"/>
<path d="M25.3076 83.9658C26.1538 85.2137 27.7653 85.4662 29.6137 84.3991C31.4165 83.3582 32.9882 81.3204 33.8332 79.1631L37.5661 79.4835C35.9793 83.5526 33.0221 87.3826 29.6277 89.3422C26.1836 91.3306 23.181 90.8891 21.5928 88.5863L25.3076 83.9658Z" fill="#FFBE2E"/>
<path d="M29.5671 68.1748L29.5811 73.1179C26.8747 74.6803 24.677 78.4868 24.6859 81.5965C24.6887 82.5822 24.9151 83.3817 25.307 83.9663L21.5923 88.5866C20.8295 87.4863 20.3892 85.9707 20.3838 84.0801C20.3672 78.2369 24.4776 71.113 29.5671 68.1748Z" fill="#978050"/>
<path d="M29.5674 68.1749C34.6485 65.2414 38.7898 67.6012 38.8065 73.4445C38.8119 75.3828 38.3529 77.4603 37.5657 79.4841L33.8329 79.1636C34.2615 78.0767 34.5075 76.9615 34.5045 75.9281C34.4956 72.8185 32.2836 71.5579 29.5814 73.1179L29.5674 68.1749Z" fill="#383C43"/>
<path d="M43.844 55.5273L43.851 57.9749L38.8135 60.8833L38.8066 58.4357L43.844 55.5273Z" fill="#FFBE2E"/>
<path d="M44.543 82.9697L44.55 85.4173L39.5125 88.3255L39.5056 85.8779L44.543 82.9697Z" fill="#FFBE2E"/>
<path d="M20.3491 96.7031L20.3561 99.1507L15.3187 102.059L15.3118 99.6114L20.3491 96.7031Z" fill="#FFBE2E"/>
<path d="M19.8833 69.1367L19.8903 71.5843L14.8529 74.4925L14.8459 72.0449L19.8833 69.1367Z" fill="#FFBE2E"/>
<path d="M47.4002 55.8037C47.0216 55.8037 46.6536 55.6078 46.4489 55.2572C46.144 54.7321 46.3215 54.0593 46.8469 53.754L76.3434 36.5957C76.8667 36.2904 77.5409 36.4679 77.8465 36.9929C78.1514 37.5179 77.9739 38.1908 77.4486 38.496L47.952 55.6544C47.778 55.7557 47.5884 55.8037 47.4002 55.8037Z" fill="#978050"/>
<path d="M47.4002 64.36C47.0216 64.36 46.6536 64.1638 46.4489 63.8132C46.144 63.2881 46.3215 62.6153 46.8469 62.31L76.3434 45.1514C76.8667 44.846 77.5402 45.0235 77.8465 45.5486C78.1514 46.0736 77.9739 46.7465 77.4486 47.0517L47.952 64.2104C47.778 64.3117 47.5884 64.36 47.4002 64.36Z" fill="#978050"/>
<path d="M47.4002 72.9155C47.0216 72.9155 46.6536 72.7194 46.4489 72.3687C46.144 71.8437 46.3215 71.1708 46.8469 70.8656L76.3434 53.7069C76.8667 53.402 77.5402 53.5788 77.8465 54.1041C78.1514 54.6291 77.9739 55.302 77.4486 55.6072L47.952 72.7659C47.778 72.8672 47.5884 72.9155 47.4002 72.9155Z" fill="#978050"/>
<path d="M47.4002 81.4718C47.0216 81.4718 46.6536 81.2757 46.4489 80.925C46.144 80.4 46.3215 79.7271 46.8469 79.4219L76.3434 62.2637C76.8667 61.9583 77.5409 62.1358 77.8465 62.6609C78.1514 63.1859 77.9739 63.8588 77.4486 64.164L47.952 81.3224C47.778 81.4236 47.5884 81.4718 47.4002 81.4718Z" fill="#978050"/>
<path d="M14.8542 109.918C14.4756 109.918 14.1077 109.722 13.903 109.371C13.5981 108.846 13.7756 108.173 14.301 107.868L26.8192 100.586C27.3431 100.281 28.016 100.458 28.3223 100.983C28.6272 101.508 28.4497 102.181 27.9243 102.486L15.4061 109.768C15.2321 109.869 15.0424 109.918 14.8542 109.918Z" fill="#978050"/>
<path d="M33.9568 98.8064C33.5782 98.8064 33.2102 98.6102 33.0055 98.2596C32.7006 97.7345 32.8782 97.0617 33.4035 96.7564L76.3438 71.7771C76.8671 71.4722 77.5406 71.6493 77.847 72.1743C78.1518 72.6994 77.9743 73.3722 77.449 73.6775L34.5086 98.6568C34.3347 98.7581 34.145 98.8064 33.9568 98.8064Z" fill="#978050"/>
<path d="M14.854 119.447C14.4754 119.447 14.1074 119.251 13.9027 118.901C13.5978 118.376 13.7754 117.703 14.3007 117.397L57.1781 92.4551C57.7013 92.1499 58.3749 92.327 58.6812 92.8523C58.9861 93.3773 58.8086 94.0502 58.2832 94.3554L15.4059 119.298C15.2318 119.399 15.0422 119.447 14.854 119.447Z" fill="#978050"/>
<path d="M63.2835 91.2746C62.9049 91.2746 62.5369 91.0785 62.3322 90.7278C62.0273 90.2028 62.2048 89.5299 62.7302 89.2247L76.3436 81.3053C76.8669 81.0007 77.5404 81.1775 77.8467 81.7025C78.1516 82.2276 77.9741 82.9004 77.4487 83.2056L63.8353 91.125C63.6614 91.2263 63.4716 91.2746 63.2835 91.2746Z" fill="#978050"/>
<path d="M14.854 128.975C14.4754 128.975 14.1074 128.779 13.9027 128.428C13.5978 127.903 13.7754 127.231 14.3007 126.925L39.4997 112.266C40.023 111.962 40.6965 112.138 41.0028 112.664C41.3077 113.189 41.1302 113.862 40.6049 114.167L15.4059 128.826C15.2318 128.927 15.0422 128.975 14.854 128.975Z" fill="#978050"/>
<path d="M48.4331 109.441C48.0545 109.441 47.6865 109.245 47.4818 108.895C47.1769 108.369 47.3545 107.697 47.8798 107.391L76.3435 90.8336C76.8668 90.5291 77.5403 90.7058 77.8466 91.2309C78.1515 91.7559 77.974 92.4287 77.4487 92.734L48.985 109.292C48.8111 109.393 48.6214 109.441 48.4331 109.441Z" fill="#978050"/>
<path d="M14.8542 136.304C14.4756 136.304 14.1077 136.108 13.903 135.757C13.5981 135.232 13.7756 134.56 14.301 134.254L21.04 130.334C21.5633 130.029 22.2368 130.206 22.5431 130.731C22.848 131.256 22.6705 131.929 22.1451 132.234L15.4061 136.155C15.2321 136.256 15.0424 136.304 14.8542 136.304Z" fill="#978050"/>
<path d="M29.0051 130.271C28.6265 130.271 28.2585 130.075 28.0539 129.725C27.749 129.2 27.9265 128.527 28.4519 128.221L76.344 100.362C76.8673 100.057 77.5408 100.234 77.8471 100.76C78.152 101.285 77.9745 101.957 77.4491 102.263L29.557 130.122C29.3831 130.223 29.1934 130.271 29.0051 130.271Z" fill="#978050"/>
<path d="M14.854 147.299C14.4754 147.299 14.1074 147.102 13.9027 146.752C13.5978 146.227 13.7754 145.554 14.3007 145.249L57.1781 120.306C57.7013 120.002 58.3749 120.178 58.6812 120.703C58.9861 121.229 58.8086 121.901 58.2832 122.207L15.4059 147.149C15.2318 147.25 15.0422 147.299 14.854 147.299Z" fill="#978050"/>
<path d="M63.2835 119.125C62.9049 119.125 62.5369 118.929 62.3322 118.578C62.0273 118.053 62.2048 117.38 62.7302 117.075L76.3436 109.156C76.8669 108.851 77.5404 109.029 77.8467 109.553C78.1516 110.078 77.9741 110.751 77.4487 111.056L63.8353 118.975C63.6614 119.077 63.4716 119.125 63.2835 119.125Z" fill="#978050"/>
<path d="M64.2106 124.266C64.1477 124.266 64.0861 124.234 64.0525 124.175C64.0017 124.088 64.031 123.976 64.1183 123.925L76.8048 116.545C76.8921 116.493 77.0044 116.523 77.0552 116.611C77.1061 116.699 77.0767 116.811 76.9894 116.862L64.303 124.242C64.2736 124.258 64.2421 124.266 64.2106 124.266Z" fill="#383C43"/>
<path d="M151.66 107.684L133.128 96.9136L133.067 61.1611L151.599 71.931L151.66 107.684Z" fill="#FFBE2E"/>
<path d="M151.661 107.867C151.629 107.867 151.597 107.859 151.568 107.843L133.036 97.0726C132.98 97.0397 132.945 96.9795 132.945 96.9145L132.884 61.162C132.884 61.0965 132.919 61.0356 132.975 61.0027C133.032 60.9705 133.102 60.9702 133.159 61.0031L151.691 71.7727C151.747 71.8056 151.782 71.8657 151.782 71.9308L151.844 107.684C151.844 107.749 151.809 107.81 151.752 107.843C151.724 107.859 151.692 107.867 151.661 107.867ZM133.312 96.8085L151.477 107.365L151.416 72.0368L133.251 61.4805L133.312 96.8085Z" fill="#383C43"/>
<g opacity="0.99">
<path d="M151.599 71.9316L133.067 61.1617L151.87 50.3057L170.402 61.0757L151.599 71.9316Z" fill="#FFF7E4"/>
<path d="M151.599 72.1133C151.567 72.1133 151.535 72.1051 151.507 72.0886L132.974 61.3191C132.918 61.2861 132.884 61.2257 132.884 61.1602C132.884 61.095 132.919 61.0345 132.975 61.002L151.778 50.1458C151.835 50.1129 151.905 50.1129 151.962 50.1458L170.495 60.9158C170.551 60.9488 170.586 61.0092 170.586 61.0747C170.586 61.1399 170.551 61.2004 170.494 61.2329L151.691 72.0888C151.662 72.105 151.631 72.1133 151.599 72.1133ZM133.433 61.1607L151.599 71.7182L170.037 61.0738L151.87 50.516L133.433 61.1607Z" fill="#383C43"/>
</g>
<path d="M170.402 61.0752L170.463 96.8277L151.66 107.684L151.599 71.9311L170.402 61.0752Z" fill="#212121"/>
<path d="M151.661 107.867C151.629 107.867 151.598 107.858 151.569 107.842C151.512 107.809 151.477 107.749 151.477 107.684L151.416 71.931C151.416 71.8655 151.451 71.8046 151.507 71.7721L170.311 60.9162C170.368 60.8832 170.437 60.8837 170.494 60.9159C170.551 60.9488 170.586 61.009 170.586 61.0745L170.647 96.8269C170.647 96.8924 170.612 96.9533 170.555 96.9859L151.752 107.842C151.724 107.858 151.692 107.867 151.661 107.867ZM151.782 72.0362L151.843 107.366L170.28 96.7217L170.22 61.3919L151.782 72.0362Z" fill="#383C43"/>
<path d="M128.269 121.189L109.736 110.419L109.675 81.7393L128.208 92.5092L128.269 121.189Z" fill="#FFBE2E"/>
<path d="M128.269 121.372C128.237 121.372 128.205 121.364 128.176 121.347L109.643 110.578C109.587 110.545 109.552 110.485 109.552 110.42L109.491 81.7401C109.491 81.6746 109.527 81.6137 109.583 81.5809C109.64 81.5487 109.71 81.5483 109.767 81.5812L128.299 92.3512C128.355 92.3842 128.39 92.4443 128.39 92.5094L128.452 121.188C128.452 121.254 128.417 121.315 128.36 121.347C128.332 121.364 128.3 121.372 128.269 121.372ZM109.919 110.313L128.085 120.87L128.024 92.615L109.859 82.0584L109.919 110.313Z" fill="#383C43"/>
<g opacity="0.99">
<path d="M128.208 92.5093L109.675 81.7394L128.481 70.8818L147.013 81.6517L128.208 92.5093Z" fill="#FFF7E4"/>
<path d="M128.208 92.6923C128.176 92.6923 128.144 92.6841 128.116 92.6677L109.583 81.8976C109.527 81.8647 109.492 81.8042 109.492 81.7387C109.492 81.6736 109.527 81.6131 109.584 81.5806L128.39 70.723C128.447 70.69 128.517 70.69 128.574 70.723L147.106 81.493C147.163 81.5259 147.197 81.5864 147.197 81.6519C147.197 81.7171 147.162 81.7775 147.105 81.81L128.3 92.6677C128.271 92.6841 128.239 92.6923 128.208 92.6923ZM110.041 81.7395L128.208 92.2973L146.648 81.6511L128.481 71.0934L110.041 81.7395Z" fill="#383C43"/>
</g>
<path d="M147.013 81.6504L147.074 110.33L128.268 121.187L128.207 92.5079L147.013 81.6504Z" fill="#212121"/>
<path d="M128.269 121.372C128.237 121.372 128.206 121.364 128.177 121.348C128.121 121.315 128.085 121.254 128.085 121.189L128.024 92.5099C128.024 92.4444 128.059 92.3835 128.116 92.351L146.921 81.4933C146.979 81.4604 147.047 81.4608 147.105 81.493C147.161 81.526 147.196 81.5861 147.196 81.6516L147.258 110.331C147.258 110.397 147.223 110.457 147.166 110.49L128.36 121.347C128.332 121.364 128.3 121.372 128.269 121.372ZM128.39 92.615L128.451 120.872L146.891 110.226L146.83 81.9689L128.39 92.615Z" fill="#383C43"/>
<path d="M104.879 134.692L86.347 123.922L86.2856 102.316L104.818 113.086L104.879 134.692Z" fill="#FFBE2E"/>
<path d="M104.88 134.875C104.849 134.875 104.816 134.867 104.788 134.851L86.2555 124.081C86.1997 124.048 86.1647 123.988 86.1647 123.923L86.1038 102.316C86.1038 102.251 86.1388 102.19 86.1954 102.158C86.2527 102.125 86.3221 102.125 86.3794 102.158L104.912 112.928C104.968 112.961 105.003 113.021 105.003 113.086L105.063 134.692C105.063 134.757 105.028 134.818 104.972 134.851C104.943 134.867 104.912 134.875 104.88 134.875ZM86.5311 123.817L104.696 134.373L104.636 113.192L86.471 102.635L86.5311 123.817Z" fill="#383C43"/>
<g opacity="0.99">
<path d="M104.818 113.085L86.2856 102.315L105.089 91.459L123.621 102.229L104.818 113.085Z" fill="#FFF7E4"/>
<path d="M104.819 113.269C104.788 113.269 104.756 113.26 104.727 113.244L86.1947 102.474C86.1382 102.441 86.1038 102.381 86.1038 102.315C86.1038 102.25 86.1388 102.189 86.1954 102.157L104.998 91.3011C105.055 91.2681 105.125 91.2681 105.182 91.3011L123.714 102.071C123.771 102.104 123.805 102.165 123.805 102.23C123.805 102.295 123.77 102.356 123.714 102.388L104.911 113.244C104.882 113.26 104.851 113.269 104.819 113.269ZM86.6527 102.316L104.819 112.874L123.256 102.229L105.09 91.6714L86.6527 102.316Z" fill="#383C43"/>
</g>
<path d="M123.622 102.23L123.683 123.837L104.88 134.693L104.819 113.086L123.622 102.23Z" fill="#212121"/>
<path d="M104.879 134.875C104.847 134.875 104.816 134.867 104.787 134.851C104.731 134.818 104.695 134.758 104.695 134.692L104.635 113.086C104.635 113.021 104.67 112.96 104.726 112.927L123.529 102.071C123.586 102.039 123.655 102.039 123.712 102.071C123.769 102.104 123.804 102.164 123.804 102.23L123.865 123.836C123.865 123.901 123.83 123.962 123.774 123.995L104.97 134.851C104.942 134.867 104.91 134.875 104.879 134.875ZM105.001 113.192L105.061 134.375L123.499 123.731L123.438 102.547L105.001 113.192Z" fill="#383C43"/>
<path d="M81.4908 148.195L62.9583 137.425L62.897 123.958L81.4296 134.728L81.4908 148.195Z" fill="#FFBE2E"/>
<path d="M81.4897 148.379C81.4582 148.379 81.4259 148.37 81.3973 148.354L62.8651 137.584C62.8092 137.551 62.7742 137.491 62.7742 137.426L62.7126 123.959C62.7126 123.894 62.747 123.833 62.8043 123.8C62.8602 123.767 62.931 123.767 62.9883 123.8L81.5212 134.57C81.5771 134.603 81.6121 134.663 81.6121 134.728L81.673 148.195C81.673 148.26 81.6386 148.321 81.5813 148.354C81.5534 148.37 81.5211 148.379 81.4897 148.379ZM63.1399 137.32L81.3049 147.876L81.2462 134.834L63.0804 124.278L63.1399 137.32Z" fill="#383C43"/>
<g opacity="0.99">
<path d="M81.4296 134.728L62.897 123.958L81.7 113.103L100.233 123.872L81.4296 134.728Z" fill="#FFF7E4"/>
<path d="M81.4288 134.912C81.3973 134.912 81.365 134.904 81.3364 134.888L62.8035 124.118C62.747 124.085 62.7126 124.024 62.7126 123.959C62.7126 123.893 62.7477 123.833 62.8043 123.801L81.6071 112.945C81.6644 112.912 81.7338 112.912 81.7911 112.945L100.324 123.715C100.38 123.748 100.415 123.808 100.415 123.874C100.415 123.939 100.38 123.999 100.323 124.032L81.5204 134.888C81.4918 134.904 81.4603 134.912 81.4288 134.912ZM63.2617 123.96L81.4289 134.517L99.866 123.873L81.6987 113.315L63.2617 123.96Z" fill="#383C43"/>
</g>
<path d="M100.233 123.873L100.294 137.34L81.4909 148.196L81.4297 134.729L100.233 123.873Z" fill="#212121"/>
<path d="M81.491 148.379C81.4596 148.379 81.4281 148.371 81.3994 148.355C81.3429 148.322 81.3077 148.262 81.3077 148.197L81.2468 134.73C81.2468 134.665 81.2812 134.603 81.3385 134.571L100.141 123.715C100.199 123.682 100.267 123.683 100.324 123.715C100.381 123.747 100.416 123.807 100.416 123.873L100.477 137.34C100.477 137.405 100.443 137.466 100.385 137.499L81.5826 148.355C81.554 148.371 81.5225 148.379 81.491 148.379ZM81.6141 134.835L81.6728 147.879L100.11 137.234L100.051 124.19L81.6141 134.835Z" fill="#383C43"/>
<path d="M58.0989 161.701L39.5663 150.931L39.5051 143.771L58.0376 154.541L58.0989 161.701Z" fill="#FFBE2E"/>
<path d="M58.0981 161.884C58.0665 161.884 58.0343 161.876 58.0058 161.86L39.4735 151.09C39.4176 151.057 39.3834 150.997 39.3826 150.933L39.3211 143.773C39.3203 143.707 39.3554 143.646 39.412 143.613C39.4692 143.58 39.5393 143.58 39.5966 143.613L58.1289 154.383C58.1847 154.415 58.2191 154.475 58.2198 154.54L58.2813 161.7C58.282 161.765 58.2469 161.826 58.1904 161.86C58.1618 161.876 58.1296 161.884 58.0981 161.884ZM39.7484 150.825L57.912 161.381L57.8541 154.647L39.6905 144.091L39.7484 150.825Z" fill="#383C43"/>
<g opacity="0.99">
<path d="M58.0374 154.542L39.5049 143.772L58.3107 132.914L76.8432 143.684L58.0374 154.542Z" fill="#FFF7E4"/>
<path d="M58.0363 154.724C58.0047 154.724 57.9725 154.716 57.944 154.7L39.4117 143.93C39.3552 143.897 39.3208 143.836 39.3208 143.771C39.3208 143.705 39.3558 143.645 39.4125 143.613L58.2182 132.755C58.2755 132.722 58.3449 132.722 58.4022 132.755L76.9344 143.525C76.9909 143.558 77.0253 143.618 77.0253 143.684C77.0253 143.749 76.9903 143.809 76.9337 143.842L58.1279 154.699C58.0993 154.716 58.0678 154.724 58.0363 154.724ZM39.8698 143.771L58.0363 154.329L76.4762 143.683L58.3097 133.126L39.8698 143.771Z" fill="#383C43"/>
</g>
<path d="M76.8429 143.683L76.9042 150.843L58.0984 161.7L58.0371 154.54L76.8429 143.683Z" fill="#212121"/>
<path d="M58.099 161.884C58.0675 161.884 58.036 161.876 58.0081 161.86C57.9516 161.828 57.9165 161.768 57.9158 161.702L57.8543 154.542C57.8535 154.477 57.8886 154.415 57.9459 154.382L76.7516 143.525C76.8089 143.492 76.8784 143.492 76.9342 143.524C76.9907 143.557 77.0259 143.616 77.0265 143.682L77.0881 150.842C77.0887 150.908 77.0537 150.969 76.9964 151.002L58.1907 161.859C58.1621 161.876 58.1306 161.884 58.099 161.884ZM58.2215 154.646L58.2794 161.385L76.7207 150.738L76.6628 143.999L58.2215 154.646Z" fill="#383C43"/>
<path d="M129.73 5.82713L136.696 1.83731C141.177 -0.737981 147.343 -0.374713 154.141 3.53253C159.705 6.72385 164.837 11.7911 168.97 17.7496C169.637 18.7117 170.279 19.6937 170.891 20.6941C171.427 21.5648 171.936 22.4514 172.421 23.3462C172.983 24.375 173.514 25.422 174.011 26.4827C177.107 33.0502 178.934 40.0449 178.93 46.4908C178.925 54.4732 176.115 60.078 171.571 62.6782L164.67 66.636C169.173 64.0177 171.963 58.4304 171.962 50.4761C171.971 44.0622 170.153 37.0925 167.076 30.5562C166.585 29.4974 166.052 28.4459 165.494 27.4146C165.012 26.5126 164.502 25.6262 163.969 24.7598C163.362 23.7569 162.719 22.7748 162.057 21.8102C157.913 15.8222 152.761 10.7308 147.177 7.52672C140.379 3.61959 134.213 3.25632 129.73 5.82713Z" fill="#212121"/>
<path d="M162.056 21.8106L168.969 17.75C169.636 18.7121 170.278 19.6941 170.89 20.6945C171.426 21.5652 171.935 22.4518 172.42 23.3467C172.982 24.3755 173.513 25.4224 174.01 26.4831L167.075 30.5566C166.584 29.4978 166.051 28.4463 165.493 27.415C165.01 26.513 164.501 25.6266 163.968 24.7602C163.361 23.7572 162.718 22.7752 162.056 21.8106Z" fill="#FFBE2E"/>
<path d="M164.669 66.8189C164.606 66.8189 164.544 66.7859 164.51 66.7272C164.46 66.64 164.489 66.5279 164.576 66.4771C169.222 63.7764 171.779 58.0939 171.777 50.4759C171.786 43.3356 169.498 35.1768 165.332 27.5015C164.855 26.6093 164.344 25.7192 163.812 24.8553C159.245 17.3514 153.306 11.254 147.086 7.68518C140.579 3.94561 134.455 3.3379 129.837 5.97628L129.82 5.98592C129.731 6.0364 129.62 6.00596 129.57 5.91823C129.52 5.83018 129.55 5.71815 129.638 5.6681L136.605 1.67795C141.336 -1.04168 147.596 -0.440437 154.232 3.37328C160.475 6.95361 166.446 13.0707 171.046 20.5981C171.567 21.4435 172.083 22.3389 172.581 23.2587C176.796 31.0003 179.116 39.2511 179.113 46.4905C179.107 54.2853 176.461 60.0906 171.661 62.8368L164.76 66.7947C164.731 66.811 164.7 66.8189 164.669 66.8189ZM136.186 3.99347C139.596 3.99347 143.367 5.12588 147.268 7.36725C153.541 10.9662 159.527 17.109 164.125 24.664C164.659 25.5334 165.175 26.4296 165.655 27.3275C169.848 35.0547 172.153 43.2761 172.144 50.4762C172.145 56.8456 170.376 61.8933 167.105 65.0276L171.48 62.5188C176.16 59.8404 178.74 54.1481 178.746 46.4904C178.749 39.3111 176.445 31.1226 172.259 23.4336C171.764 22.5193 171.251 21.6299 170.734 20.7896C166.165 13.3136 160.24 7.24131 154.049 3.69098C147.532 -0.0539505 141.402 -0.656624 136.787 1.99566L132.411 4.50196C133.605 4.16278 134.869 3.99347 136.186 3.99347Z" fill="#383C43"/>
<path d="M147.163 64.9728C133.474 57.1155 122.374 37.8832 122.379 22.0157C122.384 6.15487 133.492 -0.330291 147.181 7.5269C160.869 15.3842 171.969 34.6164 171.964 50.4772C171.959 66.3448 160.851 72.8301 147.163 64.9728Z" fill="#FFF7E4"/>
<path d="M158.154 68.5038C154.746 68.5042 150.975 67.3728 147.072 65.1325C133.349 57.2563 122.19 37.9146 122.195 22.0164C122.198 14.2527 124.826 8.45662 129.596 5.69547C134.336 2.95295 140.614 3.54675 147.271 7.36856C160.993 15.2446 172.152 34.5835 172.147 50.4779C172.145 58.2451 169.516 64.0433 164.745 66.8051C162.784 67.9401 160.56 68.5038 158.154 68.5038ZM136.189 4.36385C133.846 4.36385 131.684 4.91068 129.78 6.01264C125.128 8.70577 122.564 14.389 122.562 22.0164C122.557 37.7976 133.633 56.9969 147.253 64.8146C153.793 68.5682 159.94 69.163 164.561 66.4882C169.214 63.7947 171.779 58.1089 171.781 50.478C171.786 34.7004 160.709 15.5043 147.089 7.68649C143.243 5.47907 139.532 4.36385 136.189 4.36385Z" fill="#383C43"/>
<path d="M128.273 25.3992C128.277 13.31 136.745 8.36736 147.179 14.3562C157.612 20.345 166.08 35.0087 166.076 47.0979C166.072 59.1936 157.599 64.133 147.165 58.1442C136.731 52.1554 128.269 37.495 128.273 25.3992Z" fill="#FFBE2E"/>
<path d="M155.546 60.8794C152.94 60.8794 150.057 60.0151 147.074 58.3029C136.602 52.2925 128.086 37.5317 128.09 25.3989C128.092 19.4658 130.103 15.0344 133.753 12.9218C137.38 10.8225 142.181 11.2762 147.27 14.1969C157.745 20.2095 166.264 34.9688 166.259 47.0977C166.258 53.0322 164.246 57.4647 160.595 59.5777C159.093 60.4474 157.389 60.8794 155.546 60.8794ZM128.456 25.3989C128.453 37.4146 136.887 52.0327 147.256 57.9851C152.229 60.8397 156.901 61.292 160.411 59.2607C163.944 57.2157 165.891 52.896 165.893 47.0978C165.897 35.0855 157.461 20.4691 147.088 14.5149C142.115 11.6614 137.446 11.2075 133.937 13.2393C130.405 15.2836 128.458 19.6018 128.456 25.3989Z" fill="#383C43"/>
<path d="M133.991 28.6835C133.994 20.2521 139.9 16.805 147.177 20.9817C154.453 25.1586 160.359 35.3854 160.356 43.8168C160.354 52.2528 154.444 55.6977 147.167 51.5209C139.89 47.3441 133.989 37.1195 133.991 28.6835Z" fill="#FFF7E4"/>
<path d="M153.012 53.4842C151.185 53.4845 149.164 52.879 147.076 51.6801C139.757 47.4791 133.805 37.1631 133.808 28.6835C133.809 24.5251 135.222 21.418 137.785 19.9342C140.332 18.4607 143.699 18.7749 147.268 20.8231C154.589 25.0251 160.543 35.3402 160.54 43.8168C160.538 47.9766 159.125 51.0848 156.561 52.5689C155.505 53.1807 154.307 53.4842 153.012 53.4842ZM141.333 19.3858C140.103 19.3858 138.967 19.6732 137.968 20.2512C135.523 21.6671 134.175 24.6615 134.175 28.6835C134.172 37.046 140.041 47.2197 147.258 51.3623C150.708 53.3425 153.947 53.6592 156.378 52.252C158.824 50.8358 160.172 47.8403 160.173 43.8169C160.176 35.4569 154.305 25.2846 147.086 21.1409C145.054 19.9749 143.096 19.3858 141.333 19.3858Z" fill="#383C43"/>
<path d="M139.955 32.1071C139.957 27.4903 143.19 25.6026 147.175 27.8898C151.16 30.1769 154.393 35.7769 154.392 40.3938C154.391 45.0131 151.155 46.8994 147.17 44.6124C143.185 42.3251 139.954 36.7264 139.955 32.1071Z" fill="#FFBE2E"/>
<path d="M150.371 45.7703C149.356 45.7703 148.236 45.435 147.079 44.7711C143.048 42.4577 139.771 36.7766 139.772 32.1068C139.773 29.7987 140.561 28.0719 141.991 27.2441C143.413 26.4206 145.287 26.5938 147.266 27.7305C151.298 30.0449 154.577 35.7253 154.575 40.3934C154.575 42.7021 153.787 44.4296 152.356 45.2575C151.764 45.5999 151.094 45.7703 150.371 45.7703ZM140.139 32.1068C140.137 36.6595 143.333 42.1982 147.261 44.4533C149.124 45.5219 150.868 45.6955 152.172 44.9404C153.484 44.1806 154.208 42.5659 154.209 40.3934C154.21 35.8424 151.014 30.3044 147.085 28.0483C145.222 26.9796 143.478 26.806 142.175 27.5612C140.862 28.321 140.139 29.9352 140.139 32.1068Z" fill="#383C43"/>
<path d="M147.398 38.6945C147.322 38.6617 147.25 38.6232 147.174 38.5794C146.061 37.938 145.162 36.3809 145.167 35.0979C145.167 35.0102 145.172 34.9224 145.183 34.8402C145.288 33.8259 146.022 33.3982 146.949 33.8094C147.026 33.8423 147.097 33.8807 147.174 33.9245C148.281 34.5605 149.18 36.1176 149.18 37.4006C149.18 37.4938 149.175 37.5815 149.164 37.6692C149.06 38.6781 148.32 39.1058 147.398 38.6945Z" fill="#383C43"/>
<path d="M148.062 39.0334C147.829 39.0334 147.579 38.9769 147.325 38.863C147.243 38.8275 147.166 38.7864 147.083 38.7391C145.92 38.0688 144.979 36.4354 144.985 35.0979C144.985 35.0024 144.99 34.906 145.002 34.8156C145.058 34.2708 145.295 33.8479 145.669 33.6314C146.04 33.4159 146.521 33.4199 147.024 33.6429C147.105 33.6776 147.183 33.7191 147.266 33.7667C148.422 34.4309 149.364 36.0615 149.364 37.4015C149.364 37.5028 149.358 37.5976 149.347 37.6925C149.29 38.2375 149.053 38.6587 148.679 38.8749C148.496 38.9807 148.287 39.0334 148.062 39.0334ZM146.285 33.8393C146.125 33.8393 145.978 33.8758 145.852 33.9485C145.583 34.1046 145.411 34.4281 145.367 34.8597C145.355 34.9406 145.351 35.0197 145.351 35.0988C145.345 36.3199 146.204 37.8102 147.266 38.4214C147.336 38.4618 147.401 38.497 147.471 38.5273C147.472 38.5276 147.473 38.5281 147.474 38.5281C147.864 38.702 148.226 38.7127 148.495 38.5574C148.766 38.4017 148.938 38.0796 148.982 37.6513C148.993 37.5675 148.998 37.487 148.998 37.4015C148.998 36.1786 148.139 34.6908 147.084 34.0845C147.013 34.0441 146.948 34.009 146.877 33.9786C146.668 33.8859 146.468 33.8393 146.285 33.8393Z" fill="#383C43"/>
<path d="M114.991 57.4071L113.616 56.6084L111.062 61.7686L112.436 62.5673L114.991 57.4071Z" fill="#383C43"/>
<path d="M112.437 62.7503C112.405 62.7503 112.373 62.7421 112.344 62.7256L110.97 61.9268C110.887 61.8782 110.856 61.7733 110.899 61.687L113.452 56.527C113.475 56.4815 113.515 56.4476 113.563 56.4329C113.611 56.4179 113.664 56.4239 113.709 56.4498L115.084 57.2486C115.167 57.2972 115.198 57.4021 115.155 57.4884L112.601 62.6484C112.579 62.6939 112.538 62.7278 112.49 62.7425C112.473 62.7477 112.455 62.7503 112.437 62.7503ZM111.303 61.6959L112.36 62.3101L114.751 57.4793L113.694 56.8651L111.303 61.6959Z" fill="#383C43"/>
<path d="M121.842 53.4501L120.468 52.6514L113.615 56.6077L114.99 57.4064L121.842 53.4501Z" fill="white"/>
<path d="M114.991 57.5895C114.96 57.5895 114.928 57.5813 114.899 57.5649L113.524 56.7661C113.467 56.7331 113.433 56.6727 113.433 56.6072C113.433 56.542 113.468 56.4815 113.525 56.449L120.378 52.4925C120.435 52.4595 120.504 52.4595 120.562 52.4925L121.936 53.2913C121.992 53.3243 122.027 53.3847 122.027 53.4502C122.027 53.5154 121.992 53.5758 121.935 53.6084L115.083 57.5649C115.054 57.5812 115.023 57.5895 114.991 57.5895ZM113.982 56.6078L114.991 57.1944L121.478 53.4495L120.469 52.8629L113.982 56.6078Z" fill="#383C43"/>
<path d="M114.99 57.4065L112.436 62.5667L119.289 58.6104L121.843 53.4502L114.99 57.4065Z" fill="#FFBE2E"/>
<path d="M112.437 62.7505C112.392 62.7505 112.346 62.7336 112.311 62.7008C112.253 62.6457 112.237 62.5583 112.273 62.486L114.827 57.326C114.843 57.2935 114.868 57.2667 114.9 57.2487L121.752 53.2922C121.822 53.2521 121.909 53.2614 121.969 53.3172C122.027 53.3723 122.043 53.4597 122.007 53.532L119.453 58.6925C119.437 58.725 119.412 58.7518 119.38 58.7698L112.528 62.7259C112.5 62.7423 112.468 62.7505 112.437 62.7505ZM115.131 57.5381L112.87 62.1056L119.149 58.4801L121.41 53.9124L115.131 57.5381Z" fill="#383C43"/>
<path d="M111.387 54.4798C111.672 54.3098 112.072 54.3371 112.511 54.5894C113.383 55.0883 114.084 56.3055 114.084 57.3089C114.079 57.8077 113.904 58.1532 113.624 58.3177L147.399 38.6947L149.165 37.6695C149.176 37.5817 149.181 37.4941 149.181 37.4009C149.181 36.1179 148.282 34.5606 147.174 33.9247C147.098 33.8808 147.026 33.8425 146.95 33.8096L145.184 34.8402L111.387 54.4798Z" fill="#212121"/>
<path d="M113.623 58.5009C113.56 58.5009 113.499 58.4684 113.464 58.4103C113.414 58.3231 113.442 58.211 113.53 58.1599C113.764 58.0218 113.895 57.719 113.9 57.3066C113.9 56.3643 113.235 55.2155 112.419 54.7481C112.06 54.5423 111.723 54.4991 111.489 54.631L111.478 54.6381C111.389 54.6883 111.278 54.6593 111.227 54.5726C111.176 54.4857 111.205 54.3737 111.291 54.3221C111.297 54.3189 111.302 54.3156 111.308 54.3124L146.856 33.6511C146.906 33.6217 146.967 33.6178 147.02 33.6411C147.103 33.6765 147.181 33.7181 147.264 33.7656C148.421 34.4298 149.363 36.0604 149.363 37.4004C149.363 37.5017 149.357 37.5965 149.345 37.6914C149.338 37.7483 149.305 37.7987 149.256 37.8277L113.715 58.4762C113.686 58.493 113.654 58.5009 113.623 58.5009ZM112.161 54.2406C112.304 54.281 112.452 54.3444 112.601 54.4303C113.535 54.9646 114.266 56.229 114.266 57.3088C114.264 57.4734 114.245 57.6259 114.21 57.7644L148.99 37.5576C148.994 37.5065 148.997 37.4546 148.997 37.4005C148.997 36.1776 148.138 34.6898 147.082 34.0835C147.039 34.0592 146.999 34.0367 146.957 34.0159L145.275 34.9982L112.161 54.2406Z" fill="#212121"/>
<path d="M112.509 54.5881C111.641 54.0868 110.932 54.487 110.929 55.4886C110.926 56.4903 111.631 57.707 112.499 58.2083C113.371 58.7115 114.08 58.3113 114.083 57.3097C114.086 56.3079 113.381 55.0913 112.509 54.5881Z" fill="white"/>
<path d="M113.21 58.6095C112.96 58.6095 112.688 58.528 112.408 58.3665C111.488 57.8361 110.743 56.5445 110.746 55.488C110.747 54.9379 110.944 54.5224 111.3 54.3177C111.658 54.1116 112.119 54.1512 112.601 54.4294C113.538 54.9702 114.269 56.2353 114.267 57.3097C114.265 57.8594 114.068 58.2745 113.713 58.4792C113.562 58.5662 113.392 58.6095 113.21 58.6095ZM111.804 54.5542C111.685 54.5542 111.577 54.5811 111.482 54.6355C111.244 54.7722 111.113 55.075 111.112 55.4887C111.109 56.4285 111.773 57.577 112.591 58.0495C112.957 58.2606 113.292 58.3001 113.53 58.1615C113.768 58.0252 113.899 57.7224 113.9 57.309C113.903 56.3696 113.238 55.22 112.418 54.7466C112.196 54.6191 111.988 54.5542 111.804 54.5542Z" fill="#383C43"/>
<path d="M112.508 55.389C112.023 55.1094 111.628 55.3326 111.626 55.8914C111.624 56.4501 112.018 57.1289 112.502 57.4085C112.988 57.6892 113.384 57.466 113.385 56.9073C113.387 56.3485 112.994 55.6697 112.508 55.389Z" fill="#FFBE2E"/>
<path d="M112.409 51.7821L111.035 50.9834L113.61 53.1823C113.876 53.0344 114.519 53.5839 114.984 53.9809L112.409 51.7821Z" fill="#383C43"/>
<path d="M114.984 54.1649C114.942 54.1649 114.9 54.1506 114.865 54.1209L114.808 54.0723C114.519 53.8261 113.839 53.2864 113.699 53.3432C113.631 53.3811 113.549 53.3722 113.491 53.3221L110.916 51.1232C110.844 51.0617 110.831 50.9553 110.886 50.878C110.941 50.8007 111.046 50.7781 111.128 50.8254L112.502 51.6242C112.511 51.6299 112.52 51.6364 112.528 51.6435L115.061 53.8066C115.075 53.8184 115.089 53.8303 115.103 53.8424C115.18 53.9082 115.189 54.0239 115.124 54.1008C115.087 54.1431 115.036 54.1649 114.984 54.1649Z" fill="#383C43"/>
<path d="M119.261 47.8251L117.887 47.0264L111.034 50.9827L112.409 51.7814L119.261 47.8251Z" fill="#383C43"/>
<path d="M112.409 51.9651C112.378 51.9651 112.346 51.9568 112.317 51.9404L110.943 51.1416C110.886 51.1086 110.852 51.0482 110.852 50.9827C110.852 50.9175 110.887 50.8571 110.943 50.8246L117.796 46.8685C117.853 46.8355 117.922 46.8355 117.98 46.8685L119.354 47.6673C119.41 47.7002 119.445 47.7607 119.445 47.8262C119.445 47.8914 119.41 47.9518 119.353 47.9843L112.501 51.9404C112.472 51.9568 112.441 51.9651 112.409 51.9651ZM111.401 50.9835L112.409 51.57L118.896 47.8254L117.887 47.2389L111.401 50.9835Z" fill="#383C43"/>
<path d="M112.409 51.7825L114.984 53.9812L121.836 50.0249L119.261 47.8262L112.409 51.7825Z" fill="#FFBE2E"/>
<path d="M114.985 54.1639C114.942 54.1639 114.899 54.1489 114.866 54.1199L112.29 51.921C112.245 51.8823 112.221 51.8244 112.227 51.7649C112.232 51.7059 112.266 51.6529 112.318 51.6232L119.17 47.6671C119.237 47.6281 119.322 47.6364 119.38 47.6864L121.956 49.8849C122.001 49.9236 122.025 49.9815 122.019 50.041C122.014 50.1 121.98 50.1531 121.928 50.1827L115.076 54.1392C115.048 54.1557 115.016 54.1639 114.985 54.1639ZM112.726 51.8108L115.005 53.7574L121.52 49.9952L119.241 48.049L112.726 51.8108Z" fill="#383C43"/>
<g opacity="0.1">
<path d="M176.58 161.762C186.906 167.723 186.96 177.393 176.697 183.358C166.433 189.322 149.744 189.319 139.418 183.358C129.088 177.394 129.024 167.724 139.287 161.759C149.55 155.795 166.249 155.797 176.58 161.762Z" fill="#010101"/>
</g>
<path d="M133.329 168.877C133.321 172.944 136.005 177.01 141.373 180.112C145.761 182.652 151.25 184.139 156.94 184.589C159.271 184.774 161.642 184.782 163.98 184.613C169.799 184.203 175.425 182.708 179.885 180.112C185.149 177.05 187.785 173.048 187.801 169.038L187.817 158.863C187.809 162.874 185.173 166.876 179.901 169.938C175.441 172.526 169.807 174.029 163.98 174.438C161.642 174.607 159.279 174.599 156.94 174.406C151.259 173.956 145.777 172.461 141.397 169.938C136.029 166.844 133.345 162.785 133.345 158.719L133.329 168.877Z" fill="#212121"/>
<path d="M156.941 174.406V184.589C159.272 184.774 161.643 184.782 163.981 184.613V174.438C161.643 174.607 159.28 174.599 156.941 174.406Z" fill="#FFBE2E"/>
<path d="M160.656 184.907C153.65 184.907 146.636 183.363 141.285 180.273C136.025 177.236 133.136 173.189 133.148 168.875L133.166 158.72C133.166 158.713 133.166 158.706 133.166 158.699C133.166 158.598 133.248 158.517 133.349 158.517C133.349 158.517 133.349 158.517 133.35 158.517C133.451 158.517 133.532 158.599 133.532 158.7C133.532 158.701 133.532 158.701 133.532 158.701V158.719C133.529 162.889 136.353 166.816 141.486 169.78C152.087 175.9 169.28 175.901 179.81 169.78C184.845 166.854 187.624 162.976 187.634 158.859C187.634 158.758 187.717 158.677 187.818 158.677C187.818 158.677 187.818 158.677 187.818 158.677C187.919 158.677 188.001 158.759 188.001 158.86L187.983 169.036C187.971 173.288 185.128 177.279 179.977 180.272C174.66 183.362 167.662 184.907 160.656 184.907ZM133.528 161.341L133.514 168.876C133.503 173.053 136.327 176.988 141.468 179.956C152.069 186.076 169.262 186.076 179.792 179.955C184.826 177.03 187.605 173.152 187.617 169.035L187.63 161.477C186.705 164.732 184.073 167.727 179.995 170.097C169.361 176.276 152.005 176.277 141.303 170.097C137.133 167.69 134.453 164.648 133.528 161.341Z" fill="#383C43"/>
<path d="M179.782 147.63C190.448 153.788 190.505 163.777 179.903 169.938C169.301 176.099 152.061 176.097 141.394 169.938C130.723 163.777 130.657 153.789 141.259 147.627C151.861 141.466 169.111 141.469 179.782 147.63Z" fill="#383C43"/>
<path d="M160.674 174.731C153.668 174.731 146.653 173.186 141.302 170.097C136.061 167.071 133.172 163.037 133.165 158.738C133.159 154.473 136.001 150.471 141.166 147.469C151.802 141.288 169.165 141.289 179.873 147.471C185.108 150.493 187.994 154.524 188.001 158.82C188.007 163.088 185.163 167.092 179.994 170.097C174.677 173.186 167.68 174.731 160.674 174.731ZM160.49 143.195C153.548 143.195 146.617 144.725 141.351 147.786C136.303 150.719 133.526 154.609 133.531 158.738C133.537 162.9 136.362 166.822 141.485 169.779C152.086 175.899 169.279 175.9 179.81 169.779C184.861 166.844 187.64 162.952 187.634 158.82C187.628 154.661 184.807 150.743 179.69 147.788C174.386 144.726 167.433 143.195 160.49 143.195Z" fill="#383C43"/>
<path d="M179.168 147.987C189.494 153.949 189.548 163.619 179.285 169.583C169.022 175.548 152.332 175.545 142.006 169.583C131.676 163.619 131.612 153.949 141.875 147.985C152.139 142.02 168.838 142.023 179.168 147.987Z" fill="#FFF7E4"/>
<path d="M160.67 174.229C153.887 174.229 147.096 172.733 141.915 169.742C136.839 166.811 134.04 162.905 134.035 158.741C134.029 154.61 136.781 150.733 141.783 147.826C152.082 141.843 168.892 141.843 179.26 147.829C184.33 150.756 187.125 154.659 187.131 158.82C187.137 162.954 184.383 166.832 179.377 169.741C174.23 172.733 167.454 174.229 160.67 174.229ZM160.493 143.7C153.774 143.7 147.065 145.181 141.968 148.143C137.083 150.982 134.396 154.745 134.401 158.741C134.407 162.768 137.14 166.562 142.098 169.425C152.359 175.349 169 175.349 179.193 169.424C184.081 166.584 186.77 162.818 186.765 158.821C186.759 154.796 184.028 151.005 179.077 148.146C173.943 145.182 167.213 143.7 160.493 143.7Z" fill="#383C43"/>
<path d="M150.883 164.421C152.07 165.106 152.089 166.218 150.903 166.907C149.724 167.592 147.791 167.592 146.604 166.907C145.417 166.222 145.411 165.102 146.59 164.417C147.776 163.728 149.695 163.735 150.883 164.421Z" fill="#DBDEE4"/>
<path d="M175.449 151.908C175.452 150.936 174.094 150.144 172.416 150.139C170.738 150.135 169.375 150.919 169.373 151.891C169.37 152.863 170.728 153.655 172.406 153.659C174.084 153.664 175.447 152.88 175.449 151.908Z" fill="#DBDEE4"/>
<path d="M170.453 158.116C173.104 159.647 173.463 162.011 171.515 163.76L172.591 164.381C173.234 164.753 173.235 165.348 172.595 165.72C171.961 166.088 170.931 166.092 170.287 165.72L169.211 165.099C166.192 166.229 162.112 166.028 159.467 164.5C158.829 164.132 158.823 163.53 159.456 163.161C160.09 162.793 161.133 162.793 161.771 163.161C163.537 164.181 166.399 164.183 168.164 163.161C169.932 162.134 169.919 160.473 168.152 159.453C166.379 158.429 163.508 158.425 161.747 159.449C158.715 161.211 153.773 161.213 150.718 159.449C148.073 157.922 147.712 155.552 149.653 153.807L148.577 153.186C147.933 152.814 147.933 152.215 148.567 151.847C149.206 151.475 150.237 151.475 150.881 151.847L151.956 152.468C154.969 151.334 159.052 151.534 161.704 153.065C162.342 153.433 162.345 154.034 161.712 154.402C161.078 154.77 160.041 154.77 159.404 154.402C157.637 153.382 154.76 153.382 152.998 154.406C151.243 155.426 151.255 157.09 153.022 158.111C154.795 159.134 157.669 159.136 159.425 158.116C162.459 156.352 167.398 156.352 170.453 158.116Z" fill="#FFBE2E"/>
<path d="M133.328 154.258C133.32 158.324 136.005 162.391 141.373 165.493C145.761 168.033 151.25 169.52 156.94 169.97C159.271 170.154 161.642 170.162 163.98 169.994C169.799 169.584 175.424 168.089 179.885 165.493C185.149 162.431 187.785 158.429 187.801 154.419L187.817 144.244C187.809 148.254 185.173 152.257 179.901 155.319C175.441 157.907 169.807 159.41 163.98 159.819C161.642 159.988 159.279 159.98 156.94 159.787C151.258 159.337 145.777 157.842 141.397 155.319C136.029 152.225 133.344 148.166 133.344 144.1L133.328 154.258Z" fill="#212121"/>
<path d="M156.941 159.788V169.971C159.272 170.155 161.643 170.163 163.981 169.995V159.82C161.643 159.989 159.28 159.981 156.941 159.788Z" fill="#FFBE2E"/>
<path d="M160.656 170.289C153.65 170.289 146.636 168.744 141.285 165.655C136.025 162.618 133.135 158.57 133.147 154.256L133.165 144.101C133.165 144.095 133.165 144.088 133.165 144.081C133.165 143.98 133.248 143.898 133.349 143.898C133.349 143.898 133.349 143.898 133.349 143.898C133.45 143.899 133.532 143.981 133.532 144.082C133.532 144.082 133.532 144.082 133.532 144.083V144.101C133.529 148.27 136.353 152.198 141.486 155.162C152.086 161.282 169.279 161.282 179.81 155.162C184.845 152.236 187.623 148.358 187.634 144.241C187.634 144.14 187.716 144.058 187.817 144.058C187.817 144.058 187.817 144.058 187.818 144.058C187.919 144.059 188.001 144.141 188.001 144.242L187.983 154.417C187.971 158.67 185.128 162.661 179.977 165.654C174.66 168.744 167.662 170.289 160.656 170.289ZM133.528 146.723L133.514 154.257C133.503 158.435 136.327 162.37 141.468 165.338C152.069 171.458 169.262 171.458 179.792 165.337C184.826 162.412 187.605 158.534 187.616 154.417L187.63 146.859C186.704 150.114 184.072 153.109 179.995 155.479C169.361 161.657 152.005 161.659 141.303 155.479C137.133 153.072 134.453 150.03 133.528 146.723Z" fill="#383C43"/>
<path d="M179.781 133.011C190.448 139.169 190.504 149.158 179.902 155.319C169.3 161.48 152.06 161.477 141.394 155.319C130.723 149.158 130.657 139.169 141.259 133.008C151.86 126.847 169.11 126.85 179.781 133.011Z" fill="#383C43"/>
<path d="M160.673 160.112C153.667 160.112 146.653 158.567 141.302 155.478C136.061 152.452 133.171 148.418 133.165 144.119C133.159 139.854 136.001 135.851 141.166 132.849C151.803 126.669 169.166 126.67 179.873 132.852C185.108 135.874 187.994 139.905 188.001 144.201C188.006 148.469 185.163 152.473 179.994 155.477C174.677 158.566 167.679 160.112 160.673 160.112ZM160.489 128.576C153.547 128.576 146.617 130.106 141.351 133.166C136.302 136.1 133.526 139.989 133.531 144.119C133.537 148.281 136.362 152.202 141.485 155.16C152.086 161.281 169.279 161.28 179.809 155.16C184.861 152.225 187.64 148.333 187.634 144.201C187.628 140.042 184.807 136.124 179.69 133.169C174.386 130.107 167.432 128.576 160.489 128.576Z" fill="#383C43"/>
<path d="M179.168 133.368C189.494 139.33 189.548 149 179.285 154.964C169.021 160.928 152.332 160.926 142.006 154.964C131.676 149 131.612 139.33 141.875 133.366C152.139 127.401 168.837 127.404 179.168 133.368Z" fill="#FFF7E4"/>
<path d="M160.67 159.61C153.887 159.61 147.096 158.114 141.915 155.123C136.839 152.193 134.04 148.285 134.034 144.122C134.029 139.991 136.781 136.114 141.783 133.207C152.081 127.223 168.892 127.224 179.26 133.21C184.329 136.136 187.125 140.04 187.131 144.201C187.137 148.335 184.383 152.213 179.377 155.122C174.23 158.114 167.454 159.61 160.67 159.61ZM160.493 129.081C153.774 129.081 147.065 130.562 141.968 133.524C137.082 136.363 134.395 140.126 134.401 144.121C134.407 148.149 137.14 151.943 142.098 154.806C152.359 160.729 169 160.73 179.192 154.805C184.081 151.965 186.77 148.199 186.765 144.202C186.759 140.177 184.028 136.386 179.076 133.527C173.943 130.563 167.213 129.081 160.493 129.081Z" fill="#383C43"/>
<path d="M150.882 149.802C152.069 150.487 152.089 151.599 150.903 152.288C149.723 152.973 147.791 152.973 146.604 152.288C145.417 151.603 145.41 150.483 146.59 149.798C147.776 149.109 149.695 149.116 150.882 149.802Z" fill="#FFBE2E"/>
<path d="M175.449 137.288C175.452 136.316 174.094 135.525 172.416 135.52C170.738 135.515 169.375 136.299 169.372 137.271C169.37 138.243 170.728 139.035 172.406 139.04C174.084 139.044 175.446 138.26 175.449 137.288Z" fill="#FFBE2E"/>
<path d="M170.452 143.498C173.104 145.029 173.462 147.393 171.515 149.142L172.59 149.763C173.234 150.135 173.234 150.73 172.595 151.102C171.961 151.47 170.931 151.473 170.287 151.102L169.211 150.481C166.192 151.611 162.112 151.409 159.467 149.882C158.829 149.514 158.822 148.911 159.456 148.543C160.089 148.175 161.133 148.175 161.77 148.543C163.537 149.563 166.399 149.565 168.163 148.543C169.931 147.516 169.919 145.855 168.152 144.835C166.379 143.811 163.508 143.807 161.746 144.831C158.715 146.593 153.773 146.595 150.718 144.831C148.073 143.304 147.711 140.934 149.653 139.189L148.577 138.568C147.933 138.196 147.933 137.597 148.567 137.229C149.206 136.857 150.237 136.857 150.881 137.229L151.956 137.85C154.969 136.716 159.052 136.916 161.704 138.447C162.342 138.815 162.345 139.416 161.712 139.784C161.078 140.152 160.041 140.152 159.404 139.784C157.637 138.764 154.76 138.764 152.998 139.787C151.243 140.808 151.255 142.472 153.022 143.492C154.795 144.516 157.669 144.518 159.425 143.498C162.459 141.734 167.398 141.734 170.452 143.498Z" fill="#FFBE2E"/>
<path d="M170.916 106.031C169.591 106.796 169.584 108.037 170.9 108.802C172.217 109.567 174.36 109.567 175.685 108.802C177.01 108.037 177.016 106.796 175.7 106.031C174.383 105.266 172.242 105.266 170.916 106.031Z" fill="white"/>
<path d="M173.289 109.556C172.39 109.556 171.491 109.357 170.808 108.96C170.115 108.557 169.734 108.011 169.735 107.421C169.735 106.828 170.123 106.277 170.825 105.872C172.199 105.078 174.428 105.08 175.792 105.872C176.486 106.276 176.867 106.822 176.866 107.412C176.865 108.005 176.478 108.555 175.776 108.96C175.089 109.357 174.189 109.556 173.289 109.556ZM171.008 106.189C170.424 106.527 170.102 106.964 170.101 107.422C170.101 107.875 170.417 108.309 170.993 108.644C172.256 109.378 174.321 109.378 175.593 108.643C176.178 108.306 176.499 107.868 176.5 107.412C176.5 106.958 176.184 106.524 175.608 106.189C174.345 105.455 172.281 105.456 171.008 106.189Z" fill="#212121"/>
<path d="M173.293 108.29C173.81 108.29 174.31 108.172 174.665 107.967C174.95 107.803 175.114 107.6 175.114 107.412C175.114 107.227 174.954 107.027 174.674 106.864C174.321 106.659 173.824 106.542 173.307 106.542C172.791 106.542 172.292 106.66 171.937 106.864C171.651 107.029 171.488 107.232 171.487 107.42C171.487 107.606 171.647 107.806 171.927 107.968C172.279 108.173 172.777 108.29 173.293 108.29Z" fill="#FFBE2E"/>
<path d="M161.628 114.93C162.183 114.93 162.72 114.804 163.101 114.584C163.407 114.407 163.583 114.19 163.583 113.988C163.584 113.788 163.411 113.573 163.111 113.399C162.732 113.179 162.198 113.053 161.643 113.053C161.089 113.053 160.552 113.179 160.171 113.399C159.865 113.576 159.689 113.794 159.688 113.996C159.688 114.195 159.86 114.41 160.161 114.584C160.539 114.804 161.074 114.93 161.628 114.93Z" fill="#383C43"/>
<path d="M17.3055 183.694C18.6307 182.929 18.6382 181.687 17.3217 180.922C16.0052 180.157 13.8624 180.158 12.5372 180.923C11.2121 181.688 11.2056 182.928 12.5222 183.693C13.8386 184.458 15.9803 184.459 17.3055 183.694Z" fill="white"/>
<path d="M14.9102 184.447C14.0112 184.447 13.1122 184.249 12.4293 183.852C11.7358 183.449 11.3542 182.902 11.355 182.312C11.3557 181.719 11.7429 181.169 12.4451 180.764C13.8194 179.97 16.0477 179.971 17.4134 180.764C18.1063 181.167 18.4877 181.714 18.4871 182.303C18.4856 182.897 18.0984 183.447 17.3962 183.852C16.7097 184.249 15.8093 184.447 14.9102 184.447ZM14.9324 180.53C14.0991 180.53 13.2646 180.714 12.6282 181.081C12.0442 181.419 11.7221 181.856 11.7213 182.313C11.7205 182.766 12.0377 183.2 12.6139 183.535C13.8779 184.27 15.9401 184.27 17.2127 183.535C17.7968 183.198 18.1196 182.76 18.1203 182.303C18.1211 181.849 17.8039 181.415 17.2284 181.081C16.5973 180.714 15.7656 180.53 14.9324 180.53Z" fill="#212121"/>
<path d="M14.9274 181.435C14.4108 181.435 13.9109 181.552 13.5557 181.757C13.2705 181.922 13.1068 182.124 13.1064 182.312C13.1062 182.498 13.2667 182.698 13.5468 182.86C13.899 183.065 14.397 183.183 14.9129 183.183C15.4291 183.183 15.9287 183.065 16.2835 182.86C16.569 182.695 16.7329 182.493 16.7331 182.305C16.7333 182.119 16.573 181.919 16.2932 181.756C15.9412 181.552 15.4434 181.435 14.9274 181.435Z" fill="#FFBE2E"/>
<path d="M26.5938 174.794C26.039 174.794 25.5021 174.92 25.1206 175.14C24.8143 175.317 24.6385 175.534 24.6382 175.736C24.638 175.936 24.8102 176.151 25.1111 176.325C25.4893 176.545 26.0241 176.671 26.5783 176.671C27.1325 176.671 27.6692 176.545 28.0503 176.325C28.3568 176.148 28.5328 175.931 28.5332 175.728C28.5334 175.529 28.3612 175.314 28.0607 175.14C27.6827 174.92 27.1481 174.794 26.5938 174.794Z" fill="#383C43"/>
<path d="M79.6918 169.878C79.6288 169.878 79.5679 169.846 79.5337 169.788C79.4828 169.701 79.5114 169.588 79.5988 169.537L105.738 154.181C106.202 153.911 106.456 153.565 106.456 153.204C106.455 152.84 106.196 152.49 105.727 152.219L91.7942 144.175C91.7069 144.125 91.6768 144.012 91.727 143.925C91.7778 143.837 91.8909 143.807 91.9775 143.858L105.91 151.902C106.498 152.241 106.822 152.703 106.823 153.203C106.823 153.7 106.504 154.16 105.924 154.497L79.7849 169.853C79.7555 169.87 79.7233 169.878 79.6918 169.878Z" fill="#212121"/>
<path d="M82.6093 170.279C83.9345 169.514 83.942 168.272 82.6254 167.507C81.3088 166.742 79.1661 166.742 77.841 167.508C76.5158 168.273 76.5093 169.513 77.8259 170.278C79.1426 171.043 81.2842 171.044 82.6093 170.279Z" fill="white"/>
<path d="M80.2155 171.031C79.3151 171.031 78.4168 170.833 77.7339 170.436C77.0403 170.033 76.6595 169.486 76.6602 168.896C76.6608 168.303 77.0481 167.753 77.7495 167.348C79.1239 166.554 81.3521 166.555 82.7178 167.348C83.4107 167.751 83.7921 168.297 83.7915 168.887C83.7908 169.481 83.4036 170.031 82.7013 170.436C82.015 170.833 81.1144 171.031 80.2155 171.031ZM80.237 167.114C79.4038 167.114 78.5693 167.298 77.9329 167.665C77.3488 168.003 77.0274 168.44 77.0267 168.897C77.0259 169.35 77.3423 169.784 77.9186 170.119C79.182 170.854 81.2463 170.853 82.5182 170.119C83.1023 169.782 83.4244 169.344 83.4251 168.887C83.4259 168.433 83.1095 167.999 82.5332 167.665C81.9019 167.298 81.0701 167.114 80.237 167.114Z" fill="#212121"/>
<path d="M80.2338 168.018C79.7172 168.018 79.2172 168.135 78.8621 168.34C78.5769 168.505 78.4132 168.707 78.4128 168.895C78.4126 169.081 78.5731 169.281 78.8532 169.443C79.2054 169.648 79.7034 169.766 80.2193 169.766C80.7355 169.766 81.2351 169.648 81.5899 169.443C81.8754 169.278 82.0393 169.076 82.0395 168.888C82.0397 168.702 81.8794 168.502 81.5996 168.339C81.2476 168.135 80.7498 168.018 80.2338 168.018Z" fill="#FFBE2E"/>
<path d="M91.8985 161.379C91.3437 161.379 90.8067 161.505 90.4253 161.725C90.119 161.902 89.9432 162.119 89.9429 162.321C89.9427 162.521 90.1149 162.736 90.4158 162.91C90.794 163.13 91.3288 163.256 91.883 163.256C92.4372 163.256 92.9738 163.13 93.355 162.91C93.6615 162.733 93.8375 162.515 93.8378 162.313C93.8381 162.114 93.6659 161.899 93.3654 161.725C92.9872 161.505 92.4527 161.379 91.8985 161.379Z" fill="#383C43"/>
<path d="M114.976 74.3047L105.763 90.2612L86.5922 101.33C85.9604 101.694 85.3551 102.333 84.9099 103.104L72.8066 124.068L48.1431 138.308L55.2436 142.434L79.9073 128.195L92.0106 107.23C92.4559 106.459 93.0611 105.821 93.6928 105.456L112.864 94.3876L122.076 78.4311L114.976 74.3047Z" fill="#FFF7E4"/>
<path d="M55.2592 147.908L48.1586 143.782L48.1431 138.308L55.2437 142.434L55.2592 147.908Z" fill="#978050"/>
<path d="M122.076 78.4307L125.456 80.3569L115.548 97.5181C115.102 98.2892 114.497 98.9284 113.865 99.293L94.6948 110.361L82.5909 131.325C82.1456 132.096 81.5404 132.734 80.9086 133.099L55.2587 147.908L55.2432 142.434L79.9069 128.194L92.0102 107.23C92.4554 106.459 93.0606 105.82 93.6924 105.456L112.864 94.3872L122.076 78.4307Z" fill="#978050"/>
<path d="M114.976 74.3047L105.763 90.2612L86.5922 101.33C85.9604 101.694 85.3551 102.333 84.9099 103.104L72.8066 124.068L48.1431 138.308L55.2436 142.434L79.9073 128.195L92.0106 107.23C92.4559 106.459 93.0611 105.821 93.6928 105.456L112.864 94.3876L122.076 78.4311L114.976 74.3047Z" stroke="#212121" stroke-width="0.408646" stroke-miterlimit="10" stroke-linecap="round" stroke-linejoin="round"/>
<path d="M55.2595 147.908L48.1588 143.782L48.1433 138.308L55.244 142.434L55.2595 147.908Z" stroke="#212121" stroke-width="0.408646" stroke-miterlimit="10" stroke-linecap="round" stroke-linejoin="round"/>
<path d="M122.076 78.4307L125.456 80.3569L115.548 97.5181C115.102 98.2892 114.497 98.9284 113.865 99.293L94.6951 110.361L82.5911 131.325C82.1458 132.096 81.5406 132.734 80.9088 133.099L55.2589 147.908L55.2434 142.434L79.9071 128.194L92.0104 107.23C92.4557 106.459 93.0609 105.82 93.6927 105.456L112.864 94.3872L122.076 78.4307Z" stroke="#182C4D" stroke-width="0.408646" stroke-miterlimit="10" stroke-linecap="round" stroke-linejoin="round"/>
<path d="M127.201 60.8545L131.372 63.2622L135.213 86.6604L131.043 84.2526L127.201 60.8545Z" fill="#978050"/>
<path d="M127.202 60.8545L131.043 84.2526L105.018 69.2271L127.202 60.8545Z" fill="#FFF7E4"/>
<path d="M127.201 60.8545L131.372 63.2622L135.213 86.6604L131.043 84.2526L127.201 60.8545Z" stroke="#182C4D" stroke-width="0.408646" stroke-miterlimit="10" stroke-linecap="round" stroke-linejoin="round"/>
<path d="M114.685 74.8083L105.018 69.2271L127.202 60.8545L131.043 84.2526L121.797 78.9145" stroke="#182C4D" stroke-width="0.408646" stroke-miterlimit="10" stroke-linecap="round" stroke-linejoin="round"/>
</svg>
