<svg width="252" height="252" viewBox="0 0 252 252" fill="none" xmlns="http://www.w3.org/2000/svg">
<rect width="252" height="252" rx="24" fill="white"/>
<mask id="mask0_4756_43823" style="mask-type:alpha" maskUnits="userSpaceOnUse" x="21" y="17" width="218" height="218">
<rect x="21" y="17" width="218" height="218" fill="#D9D9D9"/>
</mask>
<g mask="url(#mask0_4756_43823)">
<path opacity="0.1" d="M212.288 137.539C212.286 136.498 211.605 135.531 210.369 134.814L129.193 88.0847C126.727 86.6636 122.729 86.6632 120.281 88.0851L22.9337 144.653C21.7132 145.367 21.041 146.327 21.041 147.356C21.041 147.366 21.0434 147.376 21.0435 147.386L21 161.664C21 162.686 21.701 163.675 22.9224 164.378L104.145 211.13C104.22 211.172 104.302 211.217 104.361 211.24C105.544 211.865 107.056 212.182 108.57 212.182C109.862 212.182 111.156 211.951 112.25 211.484C112.513 211.379 112.764 211.255 113.016 211.106L210.353 154.545C210.353 154.545 210.353 154.544 210.354 154.544C211.571 153.846 212.247 152.89 212.257 151.849L212.292 137.557C212.292 137.554 212.292 137.55 212.292 137.547V137.547V137.546C212.292 137.543 212.289 137.542 212.288 137.539Z" fill="#373B42"/>
<path d="M32.9857 203.539C32.9089 203.539 32.834 203.499 32.793 203.428C32.7312 203.322 32.7669 203.185 32.8732 203.123L68.8425 182.219C68.9497 182.157 69.0857 182.193 69.1477 182.3C69.2095 182.406 69.1738 182.543 69.0675 182.605L33.0982 203.509C33.0625 203.529 33.0241 203.539 32.9857 203.539Z" fill="#DBDEE4"/>
<path d="M34.7594 205.64C36.3586 204.716 36.3677 203.219 34.779 202.295C33.1903 201.372 30.6045 201.372 29.0053 202.296C27.4062 203.219 27.3984 204.716 28.9871 205.639C30.5757 206.563 33.1603 206.563 34.7594 205.64Z" fill="white"/>
<path d="M31.8699 206.551C30.7837 206.551 29.6991 206.312 28.8744 205.833C28.0374 205.346 27.5762 204.685 27.5771 203.973C27.5789 203.256 28.0461 202.592 28.8936 202.103C30.5527 201.144 33.2432 201.145 34.8917 202.102C35.7287 202.589 36.189 203.249 36.1882 203.962C36.1873 204.679 35.7192 205.344 34.8709 205.833C34.0425 206.312 32.9554 206.551 31.8699 206.551ZM31.897 201.824C30.8909 201.824 29.8848 202.045 29.1168 202.489C28.4132 202.895 28.0244 203.422 28.0236 203.973C28.0236 204.52 28.4054 205.043 29.0994 205.446C30.6241 206.333 33.114 206.332 34.6476 205.447C35.352 205.04 35.7408 204.512 35.7418 203.961C35.7427 203.414 35.3607 202.891 34.6667 202.488C33.9048 202.045 32.9013 201.824 31.897 201.824Z" fill="#DBDEE4"/>
<path d="M31.8917 202.913C31.2683 202.913 30.6649 203.055 30.2364 203.303C29.8922 203.501 29.6946 203.745 29.6943 203.972C29.6941 204.196 29.8877 204.438 30.2257 204.634C30.6508 204.881 31.2517 205.023 31.8743 205.023C32.4972 205.023 33.1001 204.881 33.5283 204.634C33.8728 204.435 34.0705 204.19 34.0709 203.963C34.0711 203.739 33.8777 203.498 33.5399 203.302C33.1151 203.055 32.5143 202.913 31.8917 202.913Z" fill="#FFBE2E"/>
<path d="M45.9694 194.9C45.2998 194.9 44.6518 195.053 44.1915 195.319C43.8218 195.532 43.6098 195.794 43.6094 196.038C43.6091 196.278 43.817 196.538 44.18 196.749C44.6365 197.014 45.2818 197.166 45.9505 197.166C46.6194 197.166 47.2669 197.014 47.7269 196.748C48.0968 196.534 48.3092 196.272 48.3096 196.028C48.3098 195.787 48.1021 195.528 47.7394 195.318C47.2832 195.052 46.6382 194.9 45.9694 194.9Z" fill="#373B42"/>
<path d="M221.473 174.956C223.203 175.954 223.214 177.574 221.495 178.572C219.777 179.571 216.979 179.571 215.249 178.573C213.519 177.574 213.51 175.955 215.228 174.957C216.947 173.958 219.743 173.957 221.473 174.956Z" fill="white"/>
<path d="M218.375 179.54C217.204 179.54 216.032 179.282 215.137 178.766C214.225 178.24 213.723 177.527 213.722 176.759C213.721 175.996 214.216 175.287 215.116 174.764C216.893 173.731 219.795 173.73 221.585 174.762C222.497 175.288 223 176.001 223 176.77C223.001 177.533 222.507 178.242 221.607 178.765C220.718 179.282 219.547 179.54 218.375 179.54ZM218.347 174.428C217.257 174.428 216.168 174.669 215.34 175.15C214.584 175.589 214.167 176.161 214.168 176.759C214.169 177.361 214.592 177.937 215.36 178.38C217.027 179.341 219.728 179.34 221.382 178.379C222.139 177.94 222.555 177.368 222.554 176.771C222.553 176.168 222.129 175.592 221.361 175.149C220.529 174.669 219.437 174.428 218.347 174.428Z" fill="#DBDEE4"/>
<path d="M218.372 177.905C217.697 177.905 217.044 177.752 216.581 177.484C216.208 177.269 215.995 177.005 215.994 176.76C215.994 176.518 216.203 176.257 216.569 176.044C217.029 175.777 217.679 175.624 218.352 175.624C219.026 175.624 219.678 175.777 220.142 176.044C220.514 176.259 220.728 176.524 220.729 176.769C220.729 177.012 220.52 177.273 220.155 177.485C219.695 177.752 219.045 177.905 218.372 177.905Z" fill="#FFBE2E"/>
<path d="M199.63 188.178C199.251 188.178 198.884 188.092 198.623 187.941C198.414 187.82 198.293 187.672 198.293 187.534C198.293 187.397 198.411 187.251 198.616 187.131C198.875 186.981 199.24 186.895 199.619 186.895C199.998 186.895 200.365 186.981 200.626 187.131C200.835 187.252 200.956 187.401 200.956 187.539C200.956 187.675 200.838 187.822 200.633 187.941C200.375 188.092 200.009 188.178 199.63 188.178Z" fill="#373B42"/>
<path d="M199.631 188.401C199.213 188.401 198.805 188.304 198.511 188.134C198.227 187.97 198.07 187.757 198.07 187.533C198.07 187.312 198.225 187.101 198.504 186.938C199.085 186.6 200.15 186.598 200.738 186.938C201.022 187.103 201.179 187.316 201.179 187.539C201.181 187.759 201.027 187.971 200.746 188.134C200.454 188.304 200.048 188.401 199.631 188.401ZM199.62 187.118C199.279 187.118 198.954 187.193 198.729 187.324C198.569 187.417 198.517 187.505 198.517 187.533C198.517 187.562 198.57 187.653 198.735 187.748C199.186 188.008 200.075 188.008 200.521 187.748C200.682 187.655 200.733 187.568 200.733 187.54C200.733 187.51 200.68 187.42 200.515 187.324C200.287 187.193 199.961 187.118 199.62 187.118Z" fill="#373B42"/>
<path d="M212.76 132.19L212.725 146.492C212.716 147.402 212.127 148.311 210.932 148.996L113.595 205.556C113.361 205.695 113.118 205.816 112.859 205.92C110.546 206.908 107.323 206.83 105.157 205.686C105.071 205.651 104.984 205.599 104.906 205.556L23.7256 158.828C22.5215 158.135 21.915 157.217 21.915 156.307L21.9583 141.996C21.9583 142.914 22.5647 143.833 23.7688 144.526L104.941 191.253C105.01 191.297 105.079 191.332 105.157 191.366C107.323 192.51 110.537 192.605 112.859 191.635C113.136 191.522 113.396 191.392 113.638 191.253L210.975 134.685C211.573 134.347 212.023 133.939 212.309 133.515C212.457 133.298 212.569 133.082 212.647 132.865C212.725 132.632 212.76 132.415 212.76 132.19Z" fill="#212121"/>
<path d="M112.859 191.635V205.92C110.545 206.908 107.323 206.83 105.157 205.686V191.366C107.323 192.51 110.537 192.605 112.859 191.635Z" fill="#FFBE2E"/>
<path d="M113.594 205.779C113.517 205.779 113.442 205.74 113.401 205.668C113.34 205.562 113.375 205.425 113.482 205.363L210.819 148.802C210.926 148.741 211.062 148.776 211.124 148.883C211.186 148.99 211.15 149.127 211.044 149.189L113.707 205.749C113.671 205.77 113.632 205.779 113.594 205.779Z" fill="#373B42"/>
<path d="M109.262 206.825C107.747 206.825 106.236 206.508 105.052 205.884C104.993 205.861 104.911 205.815 104.836 205.773L23.6138 159.021C22.3924 158.318 21.6914 157.329 21.6914 156.307L21.7351 141.995C21.7351 141.872 21.8353 141.773 21.9582 141.773C22.082 141.773 22.1814 141.873 22.1814 141.996C22.1814 142.872 22.7846 143.702 23.8805 144.332L105.052 191.06C105.12 191.102 105.18 191.132 105.248 191.162C107.342 192.268 110.501 192.377 112.772 191.429C113.024 191.327 113.277 191.203 113.527 191.06L210.863 134.492C211.413 134.18 211.848 133.8 212.124 133.39C212.26 133.19 212.366 132.989 212.437 132.79C212.503 132.59 212.536 132.401 212.537 132.2V132.189C212.537 132.066 212.637 131.967 212.76 131.967C212.884 131.967 212.983 132.066 212.983 132.19V132.19V132.19C212.983 132.194 212.983 132.197 212.983 132.201L212.948 146.493C212.938 147.534 212.261 148.491 211.042 149.189L113.707 205.749C113.455 205.898 113.204 206.022 112.942 206.127C111.847 206.595 110.554 206.825 109.262 206.825ZM22.177 143.402L22.1377 156.308C22.1377 157.165 22.7567 158.013 23.8369 158.634L105.018 205.363C105.114 205.417 105.177 205.454 105.241 205.479C107.343 206.589 110.502 206.683 112.771 205.715C113.016 205.616 113.247 205.502 113.481 205.364L210.819 148.802C211.896 148.186 212.493 147.365 212.502 146.49L212.533 133.581C212.52 133.601 212.507 133.621 212.494 133.64C212.18 134.106 211.693 134.535 211.085 134.879L113.75 191.447C113.482 191.6 113.21 191.733 112.942 191.841C110.562 192.837 107.243 192.72 105.052 191.564C104.979 191.531 104.9 191.492 104.822 191.443L23.6572 144.719C23.0026 144.342 22.5022 143.894 22.177 143.402Z" fill="#373B42"/>
<path d="M212.757 132.187C212.757 132.416 212.722 132.635 212.643 132.863C212.573 133.083 212.459 133.302 212.31 133.513C212.02 133.943 211.572 134.346 210.976 134.689L113.637 191.256C111.241 192.651 107.353 192.651 104.94 191.256L23.7725 144.527C22.5615 143.833 21.9561 142.912 21.9561 141.999C21.9561 141.086 22.5528 140.182 23.7376 139.489L121.085 82.9216C123.472 81.5349 127.369 81.5349 129.773 82.9216L210.949 129.651C212.16 130.353 212.757 131.266 212.757 132.187Z" fill="#FFF7E4"/>
<path d="M109.295 192.519C107.679 192.519 106.062 192.163 104.828 191.449L23.6609 144.72C22.4177 144.008 21.7324 143.042 21.7324 141.999C21.7324 140.97 22.4045 140.011 23.6251 139.297L120.973 82.7287C123.421 81.3068 127.419 81.3072 129.884 82.7283L211.061 129.458C212.299 130.176 212.98 131.145 212.98 132.188C212.98 132.447 212.939 132.692 212.854 132.936C212.778 133.172 212.655 133.411 212.491 133.642C212.176 134.11 211.702 134.529 211.086 134.882L113.749 191.449C112.523 192.163 110.91 192.519 109.295 192.519ZM125.422 82.1018C123.89 82.1018 122.36 82.4396 121.198 83.1148L23.85 139.683C22.7725 140.312 22.1787 141.135 22.1787 141.999C22.1787 142.875 22.7837 143.703 23.8831 144.333L105.052 191.062C107.397 192.419 111.198 192.418 113.524 191.063L210.863 134.496C211.412 134.18 211.848 133.798 212.124 133.388C212.265 133.189 212.367 132.991 212.43 132.795C212.501 132.593 212.534 132.396 212.534 132.188C212.534 131.311 211.932 130.479 210.837 129.845L129.661 83.1155C128.49 82.4397 126.955 82.1018 125.422 82.1018Z" fill="#373B42"/>
<path d="M80.4355 110.147L80.604 160.211L159.885 113.763L159.717 63.6995L80.4355 110.147Z" fill="#FFBE2E"/>
<path d="M80.6045 160.434C80.5661 160.434 80.5277 160.425 80.4937 160.405C80.4248 160.366 80.3812 160.292 80.3812 160.212L80.2129 110.148C80.2129 110.068 80.2547 109.995 80.3235 109.955L159.605 63.5068C159.673 63.4663 159.759 63.4658 159.828 63.5055C159.897 63.5452 159.94 63.6188 159.94 63.6986L160.109 113.763C160.109 113.843 160.067 113.916 159.998 113.956L80.7168 160.404C80.6822 160.424 80.6438 160.434 80.6045 160.434ZM80.6595 110.275L80.8259 159.822L159.662 113.636L159.495 64.0882L80.6595 110.275Z" fill="#373B42"/>
<path d="M59.7454 76.8682L80.7272 107.43L80.6039 160.211L34.2393 133.443L34.3626 82.3507C34.704 82.7015 35.074 82.9956 35.4439 83.2043C36.0698 83.5649 36.6959 83.707 37.2367 83.5649L59.7454 76.8682Z" fill="#FFF7E4"/>
<path d="M80.6036 160.434C80.5652 160.434 80.5268 160.424 80.492 160.404L34.1272 133.637C34.0584 133.597 34.0156 133.523 34.0156 133.443L34.1395 82.3503C34.1395 82.2597 34.1953 82.1777 34.279 82.1437C34.3628 82.1096 34.4586 82.1302 34.5231 82.1951C34.8509 82.533 35.2075 82.815 35.5536 83.0098C36.1525 83.3545 36.7131 83.471 37.1795 83.3488L59.6819 76.6542C59.7752 76.6272 59.8746 76.6626 59.9295 76.7418L80.9106 107.304C80.9359 107.341 80.9498 107.385 80.9498 107.43L80.8268 160.211C80.8268 160.291 80.7841 160.365 80.7153 160.405C80.6803 160.424 80.6419 160.434 80.6036 160.434ZM34.4619 133.315L80.3812 159.825L80.5032 107.499L59.653 77.1286L37.2997 83.7788C36.7139 83.9348 36.0339 83.8015 35.3321 83.3978C35.0837 83.2574 34.83 83.0769 34.585 82.866L34.4619 133.315Z" fill="#373B42"/>
<path d="M101.689 34.8247L47.8672 66.4238L29.9262 76.8499L29.1417 77.304C29.0901 77.3142 29.0386 77.3349 28.9972 77.3452C28.9559 77.3659 28.9146 77.3865 28.8733 77.407C28.863 77.407 28.8423 77.4175 28.832 77.4175L29.9263 76.7773L47.8053 66.3925L101.307 34.9896C101.421 34.9176 101.555 34.8659 101.689 34.8247Z" fill="white"/>
<path d="M28.8725 77.6303C28.7714 77.6303 28.6632 77.568 28.6363 77.4708C28.6102 77.3736 28.632 77.276 28.7192 77.2249L29.8133 76.585L47.6924 66.1999L101.194 34.7972C101.303 34.728 101.441 34.6677 101.624 34.6115C101.731 34.5762 101.847 34.6312 101.893 34.7349C101.939 34.8381 101.9 34.9599 101.802 35.0174L47.9801 66.6167L29.2526 77.4974C29.2317 77.5101 29.2082 77.5188 29.1838 77.5235C29.162 77.5275 29.1401 77.5352 29.1193 77.5418L28.9711 77.6077C28.9406 77.6224 28.9066 77.6303 28.8725 77.6303Z" fill="#373B42"/>
<path d="M166.137 68.8364C166.04 68.9331 165.935 69.012 165.821 69.0734L139.354 84.6589L134.167 87.7128L111.702 100.937L106.428 104.053L106.419 104.062L86.4017 115.839C86.4368 115.804 86.4807 115.768 86.5158 115.733C87.604 114.671 87.2969 112.135 85.8489 110.038L80.3993 102.096L61.1546 74.0931L60.1805 72.68C59.3995 71.5657 58.478 70.6967 57.5654 70.1703L130.122 27.7051C131.026 28.2317 131.947 29.0917 132.728 30.2062L165.461 63.1499C166.927 65.2296 167.216 67.7835 166.137 68.8364Z" fill="#978050"/>
<path d="M86.4019 116.062C86.3348 116.062 86.2694 116.032 86.2258 115.976C86.157 115.888 86.1648 115.762 86.2433 115.682C86.2633 115.661 86.2868 115.64 86.3095 115.619L86.3566 115.576C87.3609 114.597 87.0496 112.17 85.6643 110.165L59.9964 72.807C59.2553 71.7499 58.3522 70.8819 57.4534 70.3642C57.3845 70.3241 57.3418 70.2509 57.3418 70.1715C57.3418 70.0917 57.3836 70.0181 57.4524 69.978L130.009 27.5125C130.079 27.4714 130.164 27.4714 130.234 27.5125C131.192 28.0709 132.142 28.9823 132.911 30.0782L165.619 62.9926C167.164 65.1805 167.456 67.8595 166.293 68.995C166.183 69.1058 166.059 69.1981 165.926 69.2701L106.56 104.234C106.55 104.242 106.54 104.25 106.532 104.254L86.5153 116.031C86.4796 116.052 86.4403 116.062 86.4019 116.062ZM57.9974 70.1758C58.8421 70.735 59.6721 71.5663 60.3635 72.5519L61.3381 73.9664L86.0323 109.911C87.2807 111.719 87.6965 113.804 87.1691 115.129L106.286 103.881C106.296 103.873 106.306 103.865 106.314 103.86L111.589 100.745L165.707 68.8811C165.81 68.8257 165.898 68.7591 165.979 68.6793C165.979 68.6784 165.979 68.6776 165.98 68.6767C166.977 67.705 166.656 65.233 165.278 63.2784L132.57 30.3635C131.844 29.3338 130.987 28.4955 130.121 27.9642L57.9974 70.1758Z" fill="#373B42"/>
<path d="M130.118 27.702L57.5601 70.1712C56.6517 69.6447 55.7329 69.4383 54.9485 69.655L53.9678 69.9438L29.9261 77.0667L29.1416 77.3041L29.9261 76.85L47.8671 66.4239L101.689 34.8248L127.496 27.1858C128.281 26.9691 129.199 27.1652 130.118 27.702Z" fill="#978050"/>
<path d="M29.1415 77.5274C29.0543 77.5274 28.9732 77.4764 28.9366 77.3932C28.8912 77.289 28.9313 77.1678 29.0298 77.1112L29.8144 76.657L47.7546 66.2309L101.576 34.6321L127.432 26.9719C128.266 26.7418 129.234 26.9275 130.231 27.5094C130.3 27.5495 130.342 27.6227 130.342 27.7021C130.342 27.7814 130.3 27.8546 130.231 27.8947L57.6725 70.3637C57.6037 70.4042 57.5173 70.4047 57.4485 70.3641C56.5531 69.8462 55.7091 69.6749 55.0083 69.8702L54.031 70.1578L29.2062 77.5177C29.1852 77.5244 29.1633 77.5274 29.1415 77.5274ZM128.159 27.3214C127.949 27.3214 127.748 27.3481 127.555 27.4012L101.753 35.0388L47.9805 66.6167L30.8886 76.5488L54.8861 69.4409C55.6794 69.2225 56.5992 69.3855 57.5583 69.9134L129.663 27.7102C129.135 27.4527 128.628 27.3214 128.159 27.3214Z" fill="#373B42"/>
<path d="M86.5154 115.736C86.4431 115.808 86.3606 115.87 86.2677 115.921C85.6277 116.334 84.7502 116.241 83.8625 115.736C83.1709 115.333 82.4895 114.703 81.9012 113.857L80.3734 111.627L57.5394 78.3674L33.0435 85.6554C32.4551 85.8101 31.7737 85.6554 31.0925 85.263C30.6898 85.0359 30.2873 84.7158 29.9157 84.3341C29.3479 83.7559 28.8318 83.0335 28.4396 82.2076C27.4486 80.0707 27.6344 78.0268 28.8318 77.418C28.8421 77.418 28.8628 77.4074 28.8731 77.4074C28.9144 77.387 28.9557 77.3664 28.9969 77.3457C29.0382 77.3354 29.0899 77.3147 29.1415 77.3044L29.9259 77.067L53.9676 69.9442L54.9484 69.6554C55.733 69.4387 56.6517 69.6451 57.56 70.1716C58.4787 70.6978 59.3974 71.565 60.1819 72.6799L61.1522 74.094L80.3939 102.1L85.8442 110.038C87.3 112.133 87.5994 114.672 86.5154 115.736Z" fill="#FFBE2E"/>
<path d="M85.346 116.404C84.8525 116.404 84.3059 116.245 83.7515 115.929C83.0017 115.493 82.299 114.82 81.7175 113.984L80.1892 111.753L57.447 78.6275L33.1068 85.8693C32.473 86.0367 31.7381 85.8928 30.9806 85.4565C30.5699 85.2246 30.1453 84.8903 29.7556 84.4896C29.148 83.8707 28.6231 83.1143 28.2378 82.3031C27.203 80.0721 27.4148 77.8874 28.7304 77.2187C28.7495 77.2087 28.7705 77.2017 28.7923 77.1977L28.9833 77.1166C29.0199 77.1049 29.0591 77.0926 29.0983 77.0848L29.8611 76.853L54.8856 69.4408C55.7086 69.2128 56.6728 69.399 57.6711 69.9778C58.6379 70.5319 59.5698 71.422 60.3641 72.551L86.0277 109.911C87.5595 112.116 87.8429 114.744 86.672 115.894C86.5857 115.98 86.4854 116.055 86.3764 116.116C86.0792 116.308 85.7287 116.404 85.346 116.404ZM57.5394 78.1442C57.6119 78.1442 57.6807 78.1795 57.7234 78.241L82.0846 113.731C82.6286 114.513 83.2825 115.14 83.9746 115.542C84.8055 116.018 85.5997 116.088 86.1463 115.734C86.2325 115.685 86.2997 115.635 86.3573 115.578C86.3581 115.577 86.3581 115.577 86.359 115.576C87.3624 114.591 87.0494 112.164 85.6607 110.164L59.998 72.806C59.2421 71.7319 58.3598 70.8872 57.4488 70.3645C56.5544 69.8466 55.7114 69.6749 55.0077 69.8698L54.0305 70.158L29.2056 77.5178C29.162 77.5274 29.1402 77.5352 29.1194 77.5418L28.9711 77.6076C28.9528 77.6163 28.9337 77.6229 28.9136 77.6264C27.8343 78.1965 27.7166 80.1189 28.6417 82.1136C29.0051 82.8786 29.5013 83.5931 30.0749 84.1776C30.4367 84.5486 30.8255 84.8567 31.2021 85.0686C31.8577 85.4465 32.4715 85.5747 32.9867 85.4396L57.4759 78.1534C57.4967 78.1472 57.5185 78.1442 57.5394 78.1442Z" fill="#373B42"/>
<path d="M114.456 145.307L109.384 143.306L109.313 102.351V102.298L114.368 93.0046L114.377 99.3582L114.456 145.307Z" fill="#373B42"/>
<path d="M136.935 132.038L114.452 145.306L114.378 99.3553L114.369 93.9281L125.352 73.7031L125.822 72.8459L126.283 73.1593L136.842 80.2911L136.852 85.9303L136.935 132.038Z" fill="#FFF7E4"/>
<path d="M114.451 145.53C114.413 145.53 114.376 145.52 114.341 145.501C114.271 145.461 114.228 145.387 114.228 145.307L114.146 93.9284C114.146 93.8909 114.155 93.8542 114.173 93.8215L125.626 72.7385C125.657 72.6831 125.709 72.6434 125.77 72.6286C125.831 72.6138 125.896 72.6252 125.948 72.6613L126.409 72.9747L136.967 80.1061C137.029 80.1475 137.066 80.2163 137.066 80.2905L137.158 132.037C137.158 132.117 137.116 132.19 137.048 132.23L114.565 145.499C114.53 145.519 114.491 145.53 114.451 145.53ZM114.592 93.9848L114.674 144.916L136.711 131.911L136.619 80.4098L125.9 73.169L125.549 73.8106L114.592 93.9848Z" fill="#373B42"/>
<path d="M132.234 109.887L132.293 134.772L120.336 141.825L120.277 116.941L132.234 109.887Z" fill="#FFF7E4"/>
<path d="M119.317 142.922C119.27 142.922 119.224 142.911 119.182 142.888C119.097 142.841 119.044 142.754 119.044 142.66L118.973 113.383C118.973 113.29 119.024 113.203 119.107 113.156L133.73 104.858C133.814 104.81 133.917 104.809 134.004 104.856C134.088 104.902 134.141 104.989 134.141 105.083L134.213 134.36C134.213 134.453 134.162 134.54 134.079 134.587L119.456 142.886C119.413 142.91 119.365 142.922 119.317 142.922ZM119.518 113.532L119.589 142.2L133.667 134.211L133.596 105.543L119.518 113.532Z" fill="#373B42"/>
<path d="M136.39 133.124L118.973 129.859L119.004 142.922L136.39 133.124Z" fill="#373B42"/>
<path d="M126.288 93.3821C128.327 92.2047 129.987 93.1505 129.994 95.4939C130 97.8392 128.351 100.693 126.312 101.87C124.273 103.048 122.613 102.104 122.606 99.7588C122.6 97.4155 124.249 94.5594 126.288 93.3821Z" fill="#FFBE2E"/>
<path d="M124.654 102.602C124.264 102.602 123.901 102.51 123.579 102.325C122.811 101.883 122.387 100.972 122.384 99.7593C122.377 97.3483 124.079 94.4008 126.177 93.1888C127.239 92.5746 128.25 92.4835 129.021 92.9277C129.789 93.3693 130.214 94.2807 130.217 95.493C130.224 97.9045 128.522 100.852 126.424 102.063C125.804 102.421 125.202 102.602 124.654 102.602ZM127.944 93.0973C127.475 93.0973 126.95 93.2582 126.4 93.5751C124.425 94.716 122.823 97.4896 122.83 99.758C122.833 100.805 123.178 101.579 123.801 101.938C124.429 102.3 125.283 102.207 126.201 101.677C128.176 100.537 129.778 97.7632 129.771 95.4948C129.767 94.4477 129.422 93.6735 128.798 93.3144C128.546 93.1697 128.258 93.0973 127.944 93.0973Z" fill="#373B42"/>
<path d="M126.312 102.094C126.189 102.094 126.089 101.994 126.089 101.871L126.065 93.3825C126.065 93.2596 126.165 93.1593 126.288 93.1589C126.289 93.1589 126.289 93.1589 126.289 93.1589C126.412 93.1589 126.512 93.2582 126.512 93.3817L126.535 101.87C126.535 101.993 126.436 102.093 126.313 102.094C126.312 102.094 126.312 102.094 126.312 102.094Z" fill="#373B42"/>
<path d="M122.607 99.9821C122.53 99.9821 122.455 99.942 122.413 99.8706C122.352 99.7637 122.389 99.6274 122.495 99.5659L129.882 95.3009C129.986 95.2391 130.124 95.2752 130.187 95.3825C130.248 95.4893 130.212 95.6256 130.105 95.6871L122.719 99.9521C122.684 99.9725 122.645 99.9821 122.607 99.9821Z" fill="#373B42"/>
<path d="M137.545 29.2302L137.505 53.8638L126.915 59.1398L126.955 34.5064L137.545 29.2302Z" fill="#FFF7E4"/>
<path d="M126.915 59.3628C126.874 59.3628 126.833 59.3515 126.797 59.3292C126.732 59.2887 126.691 59.2167 126.691 59.1392L126.731 34.5057C126.731 34.4211 126.78 34.344 126.855 34.3065L137.445 29.0303C137.514 28.9954 137.597 28.9993 137.662 29.0403C137.728 29.0808 137.768 29.1528 137.768 29.2303L137.729 53.8638C137.729 53.9483 137.681 54.0255 137.605 54.063L127.014 59.3391C126.982 59.3551 126.948 59.3628 126.915 59.3628ZM127.178 34.6443L127.139 58.7787L137.282 53.7252L137.321 29.5908L127.178 34.6443Z" fill="#373B42"/>
<path d="M126.955 34.5062L126.915 59.1397L116.256 49.9672L116.296 29.2302L126.955 34.5062Z" fill="#FFF7E4"/>
<path d="M126.915 59.3629C126.863 59.3629 126.81 59.3445 126.769 59.3088L116.11 50.1364C116.06 50.0941 116.032 50.0319 116.032 49.9668L116.072 29.2298C116.072 29.1527 116.112 29.0812 116.178 29.0406C116.243 29.0001 116.326 28.9965 116.395 29.0302L127.055 34.3059C127.13 34.3438 127.178 34.4214 127.178 34.5064L127.138 59.1398C127.138 59.227 127.087 59.3059 127.008 59.3426C126.978 59.3563 126.946 59.3629 126.915 59.3629ZM116.479 49.8653L126.693 58.654L126.732 34.6447L116.518 29.5895L116.479 49.8653Z" fill="#373B42"/>
<path d="M135.411 34.5062L126.332 39.7824L117.193 34.5064L126.272 29.2302L135.411 34.5062Z" fill="white"/>
<path d="M126.332 40.0054C126.294 40.0054 126.255 39.9954 126.221 39.9754L117.082 34.6991C117.013 34.6594 116.971 34.5858 116.971 34.5064C116.971 34.4266 117.013 34.353 117.081 34.3129L126.16 29.0367C126.23 28.9966 126.315 28.9966 126.385 29.0367L135.523 34.3129C135.592 34.3526 135.634 34.4262 135.634 34.5056C135.634 34.5854 135.593 34.659 135.524 34.6992L126.445 39.9755C126.41 39.9954 126.371 40.0054 126.332 40.0054ZM117.639 34.5056L126.332 39.5242L134.966 34.5064L126.273 29.4878L117.639 34.5056Z" fill="#373B42"/>
<path d="M141.817 29.8384L141.762 37.3478L126.937 45.9633L126.992 38.4539L141.817 29.8384Z" fill="#FFBE2E"/>
<path d="M126.937 46.1866C126.899 46.1866 126.859 46.1766 126.825 46.1565C126.756 46.1164 126.713 46.0419 126.714 45.9617L126.77 38.4523C126.771 38.3735 126.812 38.3007 126.88 38.261L141.705 29.6453C141.775 29.6052 141.861 29.6052 141.93 29.6453C141.999 29.6854 142.042 29.7599 142.041 29.8401L141.985 37.3495C141.984 37.4284 141.942 37.5012 141.875 37.5409L127.049 46.1565C127.015 46.1766 126.975 46.1866 126.937 46.1866ZM127.215 38.583L127.163 45.5737L141.54 37.2187L141.592 30.228L127.215 38.583Z" fill="#373B42"/>
<path d="M126.993 38.454L126.937 45.9634L112.015 37.348L112.07 29.8386L126.993 38.454Z" fill="#FFBE2E"/>
<path d="M126.937 46.1867C126.899 46.1867 126.86 46.1767 126.825 46.1566L111.903 37.541C111.833 37.5009 111.79 37.4263 111.791 37.3462L111.847 29.8368C111.848 29.7574 111.89 29.6842 111.959 29.645C112.027 29.6058 112.112 29.6053 112.182 29.6454L127.105 38.2611C127.174 38.3011 127.217 38.3757 127.216 38.4558L127.16 45.9652C127.159 46.0446 127.117 46.1178 127.048 46.157C127.014 46.1767 126.975 46.1867 126.937 46.1867ZM112.238 37.2197L126.716 45.5787L126.769 38.5823L112.291 30.2233L112.238 37.2197Z" fill="#373B42"/>
<path d="M141.817 29.8384L126.992 38.454L112.069 29.8386L126.895 21.2229L141.817 29.8384Z" fill="white"/>
<path d="M126.993 38.6774C126.954 38.6774 126.916 38.6673 126.881 38.6473L111.958 30.0316C111.889 29.9919 111.847 29.9183 111.847 29.8389C111.847 29.7591 111.888 29.6856 111.957 29.6453L126.783 21.0301C126.852 20.99 126.937 20.99 127.007 21.0301L141.93 29.6453C141.998 29.685 142.041 29.7586 142.041 29.838C142.041 29.9178 141.999 29.9914 141.931 30.0315L127.105 38.6471C127.07 38.6673 127.031 38.6774 126.993 38.6774ZM112.515 29.8381L126.993 38.1962L141.372 29.8391L126.895 21.4814L112.515 29.8381Z" fill="#373B42"/>
<path d="M117.185 29.8316L126.901 24.1855L136.705 29.8455L126.988 35.4917L117.185 29.8316Z" fill="white"/>
<path d="M126.988 35.715C126.949 35.715 126.911 35.7049 126.876 35.6849L117.073 30.0247C117.004 29.985 116.961 29.9114 116.961 29.832C116.961 29.7522 117.003 29.6786 117.072 29.6385L126.788 23.9927C126.858 23.9526 126.942 23.9526 127.012 23.9927L136.816 29.6525C136.884 29.6922 136.927 29.7658 136.927 29.8452C136.927 29.925 136.885 29.9987 136.816 30.0387L127.1 35.685C127.065 35.7049 127.026 35.715 126.988 35.715ZM117.63 29.8311L126.988 35.2337L136.259 29.8459L126.9 24.4436L117.63 29.8311Z" fill="#373B42"/>
<path d="M126.9 24.1858L126.987 35.4919L136.704 29.8457L126.9 24.1858Z" fill="#373B42"/>
<path d="M126.987 35.715C126.949 35.715 126.91 35.7054 126.876 35.6859C126.808 35.6462 126.765 35.573 126.764 35.4936L126.677 24.1874C126.676 24.1072 126.719 24.0331 126.788 23.993C126.856 23.9525 126.941 23.952 127.012 23.9926L136.815 29.6524C136.884 29.6921 136.927 29.7657 136.927 29.8451C136.927 29.9249 136.885 29.9986 136.816 30.0386L127.1 35.6849C127.065 35.705 127.025 35.715 126.987 35.715ZM127.126 24.574L127.208 35.1054L136.258 29.8458L127.126 24.574Z" fill="#373B42"/>
<path d="M71.8447 111.804L71.7617 139.207L71.7525 143.04L43.124 126.509L43.2162 95.2734L45.6395 96.6741L71.8447 111.804Z" fill="#373B42"/>
<path d="M71.8448 111.803L71.7618 139.206L45.5566 124.077L45.6396 96.6738L71.8448 111.803Z" fill="#FFBE2E"/>
<path d="M71.7531 143.264C71.7147 143.264 71.6764 143.254 71.6415 143.234L43.0129 126.706C42.9441 126.666 42.9014 126.592 42.9014 126.512L42.9903 95.2702C42.9903 95.1904 43.033 95.1168 43.1018 95.0771C43.1716 95.038 43.2552 95.0374 43.325 95.0775L71.9528 111.606C72.0216 111.646 72.0644 111.72 72.0644 111.8L71.9763 143.042C71.9763 143.121 71.9335 143.195 71.8647 143.235C71.8299 143.254 71.7915 143.264 71.7531 143.264ZM43.3478 126.384L71.5309 142.655L71.6181 111.928L43.4358 95.6564L43.3478 126.384Z" fill="#373B42"/>
<path d="M57.4839 135.026C57.361 135.026 57.2607 134.926 57.2607 134.803V103.687C57.2607 103.563 57.361 103.464 57.4839 103.464C57.6068 103.464 57.7071 103.563 57.7071 103.687V134.803C57.7071 134.926 57.6068 135.026 57.4839 135.026Z" fill="#373B42"/>
<path d="M142.196 82.9828L137.009 86.0368L136.851 85.9315L125.838 78.4899L114.544 99.2616L114.377 99.3583L109.313 102.351L109.27 102.377L109.313 102.298L114.368 93.0048L125.355 72.7857L125.82 71.9258L126.285 72.2415L136.843 79.3674L142.196 82.9828Z" fill="#373B42"/>
<path d="M199.53 155.844C199.407 155.844 199.307 155.744 199.307 155.621V141.34C199.307 141.217 199.407 141.117 199.53 141.117C199.653 141.117 199.753 141.217 199.753 141.34V155.621C199.753 155.744 199.653 155.844 199.53 155.844Z" fill="#373B42"/>
<path d="M31.644 163.422C31.5211 163.422 31.4209 163.322 31.4209 163.199V149.318C31.4209 149.195 31.5211 149.095 31.644 149.095C31.767 149.095 31.8672 149.195 31.8672 149.318V163.199C31.8672 163.322 31.767 163.422 31.644 163.422Z" fill="#373B42"/>
</g>
<rect x="0.0545121" y="0.0775084" width="10.4378" height="9.12201" transform="matrix(0.921472 0.388444 0.0540017 0.998541 104.248 148.589)" fill="#FFBE2E" stroke="#212121" stroke-width="0.111765"/>
<rect width="0.988206" height="9.23378" transform="matrix(0.921472 0.388444 0.0540017 0.998541 108.651 150.467)" fill="#212121"/>
<rect x="0.0518707" y="0.028667" width="10.4378" height="9.12201" transform="matrix(0.874206 -0.485556 0.0540017 0.998541 113.978 152.733)" fill="#212121" stroke="#212121" stroke-width="0.111765"/>
<rect width="2.04939" height="1.79379" rx="0.896894" transform="matrix(0.874206 -0.485556 0.0540017 0.998541 120.695 149.556)" fill="#FFBE2E"/>
<rect x="0.100347" y="-0.00542684" width="10.4378" height="10.4378" transform="matrix(0.874206 -0.485556 0.921472 0.388444 104.268 148.68)" fill="#FFEECC" stroke="#212121" stroke-width="0.111765"/>
<rect width="10.5141" height="0.995156" transform="matrix(0.874206 -0.485556 0.921472 0.388444 108.648 150.46)" fill="#212121"/>
<rect x="-0.0557474" y="0.100871" width="9.22883" height="8.06083" transform="matrix(-0.874206 0.485556 0.0540017 0.998541 163.925 125.198)" fill="#FFBE2E" stroke="#212121" stroke-width="0.135935"/>
<rect x="-0.0557474" y="0.100871" width="2.88925" height="1.23412" rx="0.611709" transform="matrix(-0.874206 0.485556 0.0540017 0.998541 163.33 126.811)" fill="#FFEECC" stroke="#212121" stroke-width="0.135935"/>
<rect width="0.877225" height="8.19677" transform="matrix(-0.874206 0.485556 0.0540017 0.998541 160.326 127.231)" fill="#212121"/>
<rect x="-0.05896" y="0.0414669" width="9.22883" height="8.06083" transform="matrix(-0.921472 -0.388444 0.0540017 0.998541 155.738 129.696)" fill="#212121" stroke="#212121" stroke-width="0.135935"/>
<rect x="-0.122048" y="0.00660044" width="9.22883" height="9.22883" transform="matrix(-0.921472 -0.388444 -0.874206 0.485556 163.808 125.15)" fill="#FFEECC" stroke="#212121" stroke-width="0.135935"/>
<rect width="9.33326" height="0.883394" transform="matrix(-0.921472 -0.388444 -0.874206 0.485556 160.332 127.226)" fill="#212121"/>
<rect x="0.0663007" y="0.0942702" width="8.31431" height="7.26037" transform="matrix(0.921472 0.388444 0.0540017 0.998541 147.778 118.468)" fill="#FFBE2E" stroke="#212121" stroke-width="0.135935"/>
<rect width="0.791559" height="7.39631" transform="matrix(0.921472 0.388444 0.0540017 0.998541 151.305 119.981)" fill="#212121"/>
<rect x="0.0630881" y="0.0348664" width="8.31431" height="7.26037" transform="matrix(0.874206 -0.485556 0.0540017 0.998541 155.571 121.806)" fill="#212121" stroke="#212121" stroke-width="0.135935"/>
<rect width="1.64158" height="1.43683" rx="0.718417" transform="matrix(0.874206 -0.485556 0.0540017 0.998541 160.953 119.252)" fill="#FFBE2E"/>
<rect x="0.122048" y="-0.00660044" width="8.31431" height="8.31431" transform="matrix(0.874206 -0.485556 0.921472 0.388444 147.8 118.568)" fill="#FFEECC" stroke="#212121" stroke-width="0.135935"/>
<rect width="8.42181" height="0.797125" transform="matrix(0.874206 -0.485556 0.921472 0.388444 151.305 119.976)" fill="#212121"/>
<g opacity="0.1">
<path d="M138.159 153.232L148.462 147.244L138.177 141.306L127.874 147.293L138.159 153.232Z" fill="black"/>
</g>
<path d="M137.437 151.898L147.739 145.91L147.773 134.09L137.47 140.077L137.437 151.898Z" fill="#212121"/>
<path d="M137.437 152.049C137.411 152.049 137.385 152.043 137.361 152.029C137.314 152.002 137.285 151.952 137.285 151.897L137.319 140.077C137.319 140.023 137.348 139.973 137.394 139.946L147.697 133.958C147.744 133.931 147.802 133.931 147.849 133.958C147.896 133.985 147.925 134.036 147.925 134.09L147.891 145.911C147.891 145.964 147.862 146.014 147.816 146.041L137.513 152.029C137.489 152.043 137.463 152.049 137.437 152.049ZM137.622 140.164L137.589 151.634L147.588 145.823L147.621 134.353L137.622 140.164Z" fill="#373B42"/>
<path d="M137.471 140.077L147.773 134.09L137.488 128.152L127.186 134.139L137.471 140.077Z" fill="#FFF7E4"/>
<path d="M137.471 140.229C137.445 140.229 137.419 140.222 137.395 140.208L127.11 134.27C127.063 134.243 127.034 134.193 127.034 134.139C127.034 134.085 127.063 134.035 127.109 134.008L137.412 128.02C137.46 127.993 137.517 127.993 137.564 128.02L147.849 133.958C147.896 133.985 147.925 134.035 147.925 134.089C147.925 134.144 147.897 134.194 147.85 134.221L137.547 140.208C137.523 140.222 137.497 140.229 137.471 140.229ZM127.488 134.139L137.471 139.902L147.471 134.09L137.489 128.327L127.488 134.139Z" fill="#373B42"/>
<path d="M131.115 136.409L133.511 137.792L143.814 131.805L141.418 130.423L131.115 136.409Z" fill="#212121"/>
<path d="M133.511 137.944C133.485 137.944 133.459 137.937 133.435 137.923L131.04 136.541C130.993 136.514 130.964 136.464 130.964 136.41C130.964 136.356 130.992 136.306 131.039 136.278L141.342 130.291C141.39 130.264 141.447 130.264 141.495 130.291L143.89 131.674C143.937 131.701 143.966 131.751 143.966 131.805C143.966 131.859 143.938 131.909 143.891 131.936L133.588 137.923C133.564 137.937 133.537 137.944 133.511 137.944ZM131.418 136.409L133.511 137.617L143.512 131.806L141.419 130.598L131.418 136.409Z" fill="#373B42"/>
<path d="M127.151 145.96L137.438 151.898L137.471 140.078L133.511 137.792L131.115 136.409L127.184 134.14L127.151 145.96Z" fill="#FFBE2E"/>
<path d="M137.438 152.05C137.412 152.05 137.386 152.043 137.363 152.029L127.076 146.091C127.029 146.064 127 146.014 127 145.96L127.033 134.139C127.033 134.085 127.062 134.035 127.109 134.008C127.156 133.982 127.213 133.981 127.26 134.009L137.547 139.946C137.594 139.973 137.623 140.024 137.623 140.078L137.59 151.899C137.59 151.953 137.561 152.003 137.514 152.03C137.49 152.043 137.464 152.05 137.438 152.05ZM127.303 145.873L137.287 151.636L137.32 140.165L127.336 134.402L127.303 145.873Z" fill="#373B42"/>
<path d="M131.109 139.463L133.505 140.849L133.511 137.792L131.115 136.409L131.109 139.463Z" fill="#212121"/>
<path d="M133.505 141.001C133.479 141.001 133.453 140.994 133.43 140.98L131.034 139.595C130.987 139.568 130.958 139.518 130.958 139.464L130.963 136.409C130.963 136.355 130.992 136.305 131.039 136.278C131.086 136.252 131.143 136.251 131.191 136.278L133.586 137.661C133.633 137.688 133.662 137.738 133.662 137.793L133.657 140.85C133.657 140.904 133.628 140.953 133.581 140.981C133.558 140.994 133.531 141.001 133.505 141.001ZM131.261 139.376L133.354 140.587L133.359 137.88L131.266 136.672L131.261 139.376Z" fill="#373B42"/>
<path d="M133.006 143.758C133.035 143.774 133.064 143.804 133.086 143.843L133.868 145.275C133.931 145.39 133.883 145.489 133.79 145.436L133.454 145.242L133.446 148.21C133.446 148.26 133.41 148.281 133.366 148.256L132.625 147.828C132.58 147.802 132.545 147.74 132.545 147.69L132.553 144.722L132.218 144.528C132.125 144.474 132.077 144.319 132.139 144.277L132.928 143.752C132.949 143.738 132.978 143.741 133.006 143.758Z" fill="#373B42"/>
<path d="M135.306 145.085C135.335 145.102 135.363 145.132 135.384 145.17L136.167 146.603C136.23 146.717 136.181 146.816 136.088 146.763L135.752 146.569L135.744 149.537C135.744 149.587 135.709 149.609 135.664 149.583L134.923 149.155C134.879 149.129 134.843 149.067 134.843 149.017L134.851 146.049L134.516 145.855C134.423 145.801 134.375 145.646 134.44 145.605L135.227 145.079C135.249 145.066 135.278 145.069 135.306 145.085Z" fill="#373B42"/>
<path d="M153.951 229.709C161.372 229.709 167.386 225.943 167.386 221.295C167.386 216.65 161.372 212.883 153.951 212.883C146.532 212.883 140.518 216.65 140.518 221.295C140.518 225.943 146.532 229.709 153.951 229.709Z" fill="#FEE5AC"/>
<path d="M167.317 161.178C167.317 161.5 167.505 165.346 167.004 168.391C166.505 171.436 163.193 170.625 160.817 169.687C158.443 168.749 155.686 167.257 155.686 167.257L167.317 161.178Z" fill="#F3AC7C"/>
<path d="M146.823 172.218H147.331L155.921 166.965L150.38 151.563L141.283 156.816L146.823 172.218Z" fill="#3C2C0B"/>
<path d="M147.329 172.218L156.428 166.965L150.888 151.563L141.79 156.816L147.329 172.218Z" fill="black"/>
<path d="M150.889 151.563H150.38L141.283 156.816H141.79L150.889 151.563Z" fill="#3C2C0B"/>
<path d="M147.628 170.503L155.215 166.122L150.595 153.277L143.008 157.658L147.628 170.503Z" fill="white"/>
<path d="M152.611 220.433C152.611 220.433 147.51 220.407 145.281 220.433C143.054 220.458 143.25 222.286 145.281 223.993C147.314 225.701 151.325 225.525 151.325 225.525C151.325 225.525 151.731 226.02 152.298 226.494C152.866 226.968 155.038 227.012 156.185 226.411C156.557 225.525 156.444 224.96 156.295 222.425C156.086 218.887 152.611 220.433 152.611 220.433Z" fill="black"/>
<path d="M162.179 214.806C162.179 214.806 157.078 214.781 154.851 214.806C152.622 214.832 152.818 216.659 154.851 218.368C156.883 220.075 160.893 219.899 160.893 219.899C160.893 219.899 161.299 220.393 161.867 220.868C162.434 221.342 164.606 221.387 165.754 220.786C166.125 219.899 166.013 219.334 165.863 216.799C165.654 213.261 162.179 214.806 162.179 214.806Z" fill="black"/>
<path d="M162.261 217.96C161.327 217.976 160.538 217.722 159.981 217.463C159.703 217.334 159.484 217.204 159.335 217.107C159.261 217.058 159.204 217.018 159.166 216.99C159.165 216.99 159.164 216.989 159.163 216.989C158.361 208.904 157.96 205.508 157.671 203.311C157.381 201.106 157.207 200.114 156.853 196.803C156.616 194.594 156.578 189.013 156.601 183.972C156.612 181.454 156.638 179.075 156.661 177.325C156.673 176.451 156.684 175.733 156.692 175.235C156.696 174.986 156.699 174.791 156.701 174.658C156.702 174.616 156.704 174.58 156.704 174.551C156.748 174.528 156.809 174.495 156.887 174.456C157.058 174.371 157.305 174.255 157.61 174.133C158.222 173.888 159.059 173.619 159.97 173.515C160.88 173.411 161.855 173.473 162.75 173.883C163.641 174.291 164.467 175.051 165.072 176.367C166.034 178.461 165.945 180.807 165.607 182.642C165.439 183.557 165.21 184.341 165.022 184.896C164.929 185.173 164.845 185.392 164.786 185.542C164.757 185.617 164.733 185.675 164.717 185.713C164.709 185.732 164.702 185.747 164.698 185.757C164.696 185.761 164.694 185.765 164.693 185.767C164.693 185.768 164.693 185.769 164.692 185.77V185.771L164.675 185.81L164.679 185.853L164.68 185.854C164.68 185.855 164.679 185.857 164.68 185.86C164.68 185.865 164.682 185.873 164.683 185.884C164.685 185.906 164.688 185.938 164.691 185.98C164.699 186.063 164.71 186.186 164.723 186.342C164.749 186.654 164.783 187.1 164.817 187.635C164.886 188.705 164.952 190.129 164.945 191.547C164.941 192.451 164.722 194.072 164.502 195.478C164.392 196.178 164.283 196.821 164.201 197.289C164.16 197.523 164.125 197.714 164.102 197.846C164.09 197.912 164.081 197.963 164.074 197.997C164.071 198.014 164.068 198.028 164.066 198.036C164.066 198.041 164.065 198.045 164.064 198.047V198.05L164.055 198.099L164.075 198.145V198.146C164.076 198.147 164.077 198.149 164.078 198.152C164.08 198.157 164.084 198.165 164.089 198.177C164.098 198.201 164.113 198.237 164.131 198.288C164.167 198.39 164.22 198.548 164.284 198.77C164.412 199.213 164.584 199.91 164.757 200.918C164.842 201.415 164.943 202.662 165.048 204.265C165.152 205.864 165.26 207.808 165.355 209.688C165.451 211.567 165.537 213.384 165.598 214.731C165.628 215.404 165.652 215.959 165.669 216.347C165.677 216.541 165.684 216.693 165.688 216.796C165.69 216.824 165.692 216.848 165.692 216.868C165.651 216.898 165.589 216.939 165.51 216.989C165.345 217.093 165.104 217.233 164.796 217.374C164.18 217.657 163.303 217.943 162.261 217.96Z" fill="white" stroke="black" stroke-width="0.32332"/>
<path d="M155.123 223.304C154.477 223.515 153.572 223.694 152.537 223.575C151.61 223.469 150.86 223.106 150.34 222.767C150.08 222.598 149.879 222.436 149.743 222.316C149.675 222.256 149.624 222.207 149.59 222.174C149.588 222.172 149.586 222.17 149.584 222.168C149.584 222.135 149.583 222.089 149.583 222.032C149.583 221.901 149.583 221.708 149.582 221.462C149.581 220.968 149.579 220.256 149.577 219.388C149.574 217.653 149.571 215.291 149.57 212.784C149.569 207.77 149.579 202.179 149.623 199.867C149.668 197.562 150.249 191.92 150.82 186.844C151.106 184.309 151.388 181.917 151.6 180.16C151.705 179.281 151.793 178.561 151.854 178.06C151.885 177.81 151.909 177.615 151.926 177.482C151.93 177.448 151.934 177.419 151.938 177.393C151.999 177.38 152.086 177.362 152.194 177.342C152.43 177.297 152.77 177.24 153.184 177.19C154.011 177.09 155.129 177.019 156.297 177.129C158.639 177.349 161.129 178.291 161.947 181.143C162.779 184.045 162.091 185.968 161.213 187.166C160.771 187.767 160.278 188.19 159.896 188.463C159.704 188.599 159.541 188.697 159.427 188.76C159.369 188.792 159.324 188.816 159.294 188.831C159.279 188.838 159.267 188.843 159.26 188.846L159.25 188.851L159.157 188.893L159.154 188.995V189.002C159.154 189.006 159.154 189.013 159.153 189.021C159.153 189.039 159.153 189.066 159.151 189.1C159.149 189.169 159.144 189.27 159.139 189.396C159.127 189.65 159.109 190.007 159.079 190.423C159.019 191.255 158.915 192.316 158.738 193.241C158.561 194.171 158.032 196.385 157.545 198.372C157.302 199.364 157.07 200.298 156.898 200.983C156.813 201.326 156.742 201.606 156.693 201.802C156.669 201.899 156.65 201.975 156.637 202.027L156.617 202.105V202.106L156.614 202.119L156.613 202.134H156.612C156.612 202.134 156.612 202.136 156.612 202.137C156.612 202.14 156.612 202.144 156.611 202.148C156.611 202.158 156.61 202.174 156.608 202.194C156.606 202.234 156.602 202.293 156.598 202.37C156.589 202.524 156.58 202.751 156.573 203.045C156.559 203.633 156.556 204.488 156.601 205.557C156.644 206.615 156.511 210.968 156.367 215.067C156.295 217.114 156.221 219.095 156.164 220.564C156.136 221.298 156.112 221.905 156.096 222.328C156.087 222.539 156.081 222.705 156.076 222.818C156.075 222.851 156.074 222.879 156.073 222.902C156.028 222.927 155.963 222.961 155.879 223.002C155.703 223.087 155.446 223.199 155.123 223.304Z" fill="white" stroke="black" stroke-width="0.32332"/>
<path d="M166.576 180.386C161.592 184.733 156.251 184.169 153.367 183.464C152.902 183.35 152.354 183.047 151.938 182.656C151.515 182.259 151.266 181.81 151.313 181.408C151.511 179.739 151.784 176.947 151.817 174.086C151.836 172.456 151.719 170.779 151.616 169.334C151.513 167.881 151.426 166.678 151.5 165.97C151.818 162.94 152.028 160.216 154.681 158.621C156.438 157.564 159.886 156.207 162.106 155.378C163.608 154.819 165.323 155.436 165.992 156.797C166.781 158.402 167.072 160.584 167.034 162.927C167.001 164.975 166.719 167.133 166.312 169.115L166.131 169.953C165.616 172.208 165.873 174.045 166.258 175.548H166.259C166.411 176.141 166.583 176.684 166.734 177.175C166.887 177.669 167.016 178.109 167.089 178.507C167.161 178.905 167.174 179.25 167.101 179.556C167.028 179.858 166.868 180.132 166.576 180.386Z" fill="#FFC23A" stroke="black" stroke-width="0.32332"/>
<path d="M160.55 159.071C159.896 159.341 159.031 159.325 158.332 159.015C157.605 158.691 156.967 158.317 156.511 158.023C156.283 157.877 156.1 157.75 155.976 157.66C155.94 157.634 155.909 157.611 155.883 157.592C155.892 157.569 155.902 157.542 155.913 157.513C155.961 157.388 156.026 157.209 156.095 156.994C156.232 156.565 156.389 155.984 156.46 155.389C156.542 154.695 156.604 153.97 156.646 153.421C156.666 153.146 156.682 152.915 156.692 152.752C156.695 152.706 156.698 152.665 156.7 152.631L161.513 152.095C161.506 152.2 161.496 152.344 161.486 152.52C161.465 152.901 161.44 153.43 161.422 154.014C161.386 155.177 161.381 156.575 161.506 157.478C161.562 157.886 161.48 158.215 161.311 158.475C161.14 158.736 160.875 158.937 160.55 159.071Z" fill="white" stroke="black" stroke-width="0.32332"/>
<path d="M157.335 155.786C155.873 155.853 154.621 155.144 154.015 153.846L153.902 153.578C153.759 153.197 153.674 152.568 153.668 151.799C153.662 151.032 153.735 150.135 153.901 149.223C154.236 147.391 154.942 145.521 156.117 144.499C157.423 143.364 159.023 143.073 160.61 143.635C161.247 143.86 161.994 144.232 162.624 144.72C163.256 145.209 163.761 145.807 163.935 146.481C164.268 147.772 163.821 149.359 163.354 150.607C162.401 153.161 160.203 155.655 157.335 155.786Z" fill="white" stroke="black" stroke-width="0.215547"/>
<path d="M143.148 167.8C142.795 167.804 142.427 167.732 141.97 167.473L141.769 167.351C140.475 166.514 139.24 165.365 138.128 164.428C137.257 163.694 136.139 162.779 135.239 162.047C134.789 161.682 134.393 161.363 134.11 161.134C133.969 161.02 133.855 160.929 133.777 160.866C133.738 160.834 133.708 160.81 133.688 160.793C133.677 160.785 133.669 160.779 133.664 160.775C133.662 160.773 133.659 160.771 133.658 160.77L133.656 160.768L133.634 160.75L133.605 160.741L133.602 160.739C133.598 160.738 133.592 160.736 133.585 160.734C133.57 160.729 133.549 160.721 133.521 160.71C133.464 160.69 133.382 160.659 133.282 160.619C133.082 160.537 132.808 160.418 132.517 160.261C131.925 159.944 131.29 159.496 131.006 158.95C130.73 158.42 130.847 157.887 131.049 157.467C131.149 157.259 131.268 157.084 131.362 156.961C131.409 156.9 131.45 156.852 131.479 156.82C131.493 156.804 131.504 156.792 131.512 156.784L131.521 156.774L131.637 156.657L131.518 156.542L131.515 156.541C131.513 156.539 131.51 156.535 131.506 156.532C131.498 156.525 131.488 156.515 131.474 156.501C131.445 156.475 131.403 156.436 131.351 156.388C131.245 156.292 131.094 156.157 130.914 156.004C130.555 155.699 130.076 155.317 129.603 155.018C129.385 154.881 129.261 154.744 129.203 154.634C129.146 154.526 129.159 154.458 129.181 154.423C129.205 154.384 129.272 154.333 129.419 154.323C129.565 154.312 129.771 154.345 130.03 154.453C131.118 154.901 132.112 155.459 133.746 156.53C134.547 157.055 135.038 157.578 135.457 158.074C135.873 158.566 136.233 159.054 136.753 159.47L137.086 159.724C137.949 160.355 139.379 161.241 140.649 162.003C141.378 162.44 142.058 162.839 142.556 163.127C142.804 163.272 143.007 163.389 143.148 163.47C143.219 163.511 143.274 163.543 143.312 163.564C143.33 163.575 143.345 163.583 143.354 163.588C143.359 163.591 143.363 163.593 143.365 163.594C143.366 163.595 143.368 163.596 143.368 163.596H143.369L143.431 163.631L143.497 163.61L150.25 161.5L151.828 165.995C151.818 165.997 151.806 165.999 151.795 166.002C151.666 166.037 151.477 166.087 151.242 166.149C150.772 166.272 150.114 166.441 149.362 166.623C147.858 166.986 145.986 167.401 144.5 167.609C144.241 167.645 144 167.693 143.781 167.731C143.559 167.769 143.354 167.798 143.148 167.8Z" fill="white" stroke="black" stroke-width="0.32332"/>
<path d="M146.196 161.704C146.196 161.704 148.596 161.099 151.059 159.969C153.029 159.066 156.078 158.97 156.858 162.159C157.383 164.305 155.991 166.817 153.216 167.685C150.443 168.551 146.543 168.638 146.543 168.638C146.543 168.638 144.549 165.344 146.196 161.704Z" fill="#FFC23A"/>
<path d="M157.745 142.974C154.987 144.128 153.18 143.07 153.254 145.174C153.319 146.955 155.949 147.578 155.949 147.578C155.949 147.578 155.949 149.574 157.622 151.401C158.07 154.384 160.855 156.265 160.855 156.265C160.855 156.265 164.593 151.132 164.617 148.46C164.639 145.888 163.928 145.65 163.082 144.578C162.133 142.185 159.78 142.121 157.745 142.974Z" fill="black"/>
<path d="M157.581 154C157.336 154.092 157.109 154.065 156.936 153.879C156.755 153.686 156.661 153.415 156.626 153.112C156.591 152.809 156.614 152.478 156.661 152.17C156.709 151.863 156.78 151.58 156.84 151.375C156.87 151.272 156.897 151.188 156.916 151.13C156.926 151.102 156.933 151.079 156.938 151.064C156.939 151.062 156.941 151.06 156.941 151.058H156.94C156.95 151.052 156.965 151.043 156.983 151.033C157.021 151.011 157.076 150.981 157.144 150.949C157.279 150.885 157.464 150.814 157.664 150.782C157.864 150.75 158.077 150.757 158.271 150.847C158.464 150.937 158.645 151.111 158.778 151.422C158.91 151.73 158.907 152.087 158.813 152.44C158.72 152.792 158.538 153.137 158.314 153.417C158.09 153.697 157.829 153.908 157.581 154Z" fill="white" stroke="black" stroke-width="0.107773"/>
<path d="M162.803 150.844C161.963 150.927 160.692 150.851 158.99 150.201C157.311 149.559 156.201 148.301 155.508 147.194C155.162 146.641 154.922 146.128 154.769 145.755C154.692 145.568 154.637 145.416 154.602 145.311C154.587 145.267 154.576 145.231 154.567 145.205C154.576 145.185 154.586 145.159 154.6 145.128C154.636 145.044 154.691 144.923 154.765 144.774C154.912 144.477 155.131 144.073 155.419 143.641C155.998 142.774 156.839 141.821 157.914 141.403C158.983 140.987 160.111 141.132 161.219 141.653C162.328 142.175 163.408 143.07 164.364 144.133C165.271 145.14 165.199 146.726 164.868 148.114C164.704 148.8 164.481 149.421 164.298 149.871C164.206 150.096 164.125 150.278 164.067 150.403C164.038 150.465 164.016 150.514 164 150.547V150.549C163.992 150.553 163.982 150.556 163.971 150.561C163.921 150.584 163.845 150.616 163.742 150.651C163.536 150.721 163.223 150.802 162.803 150.844Z" fill="#FFBE2E" stroke="black" stroke-width="0.32332"/>
<path d="M154.277 147.49C153.894 147.485 153.484 147.462 153.114 147.403C152.741 147.342 152.424 147.248 152.213 147.113C151.51 146.661 151.202 146.229 151.124 145.85C151.047 145.476 151.185 145.11 151.479 144.766C151.773 144.421 152.212 144.115 152.693 143.875C153.173 143.636 153.685 143.47 154.114 143.399C154.43 143.346 154.828 143.314 155.15 143.295C155.267 143.289 155.372 143.285 155.46 143.281C155.42 143.387 155.372 143.524 155.328 143.686C155.223 144.079 155.136 144.623 155.217 145.218C155.293 145.785 155.376 146.386 155.439 146.844C155.471 147.073 155.498 147.266 155.517 147.403C155.519 147.419 155.521 147.435 155.523 147.45C155.457 147.456 155.372 147.461 155.272 147.467C155.014 147.482 154.66 147.495 154.277 147.49Z" fill="#F9AE0C" stroke="black" stroke-width="0.32332"/>
<path d="M153.84 159.322C153.301 159.322 152.263 159.668 151.684 159.861C150.068 160.4 146.885 161.427 146.296 162.016C145.757 162.555 145.757 164.387 145.757 165.249C145.757 166.112 145.936 167.764 146.296 168.483C147.912 168.483 151.253 168.375 151.684 167.944" stroke="black" stroke-width="0.32332"/>
<path d="M190.726 201.257C195.282 196.835 196.795 191.005 194.105 188.234C191.416 185.463 185.543 186.8 180.987 191.222C176.432 195.643 174.919 201.473 177.608 204.244C180.298 207.015 186.17 205.678 190.726 201.257Z" fill="#FEE5AC"/>
<path d="M235.274 175.334C239.571 171.165 240.927 165.595 238.304 162.892C235.682 160.191 230.074 161.379 225.778 165.549C221.482 169.718 220.126 175.288 222.748 177.989C225.37 180.692 230.979 179.503 235.274 175.334Z" fill="#FEE5AC"/>
<path d="M237.509 165.022C237.509 169.43 234.417 174.791 230.596 176.992C226.78 179.193 223.683 177.412 223.683 173.004C223.683 168.597 226.774 163.235 230.596 161.034C234.411 158.828 237.509 160.615 237.509 165.022Z" fill="#130E0C"/>
<path d="M227.51 178.257C226.798 178.257 226.137 178.09 225.551 177.751C224.143 176.941 223.367 175.251 223.367 172.999C223.367 168.499 226.539 163 230.441 160.753C232.389 159.627 234.239 159.454 235.647 160.27C237.055 161.08 237.831 162.77 237.831 165.023C237.831 169.522 234.659 175.022 230.757 177.268C229.619 177.929 228.516 178.257 227.51 178.257ZM233.682 160.402C232.791 160.402 231.797 160.707 230.757 161.305C227.033 163.454 224.005 168.7 224.005 172.999C224.005 175.01 224.666 176.498 225.867 177.194C227.068 177.889 228.688 177.717 230.435 176.711C234.159 174.562 237.187 169.315 237.187 165.017C237.187 163.006 236.527 161.517 235.326 160.822C234.843 160.54 234.285 160.402 233.682 160.402Z" fill="#130E0C"/>
<path d="M228.574 175.194C228.085 175.194 227.637 175.079 227.235 174.849C226.275 174.291 225.746 173.153 225.746 171.631C225.746 168.637 227.855 164.988 230.447 163.494C231.763 162.735 233.016 162.62 233.975 163.178C234.935 163.735 235.464 164.873 235.464 166.396C235.464 169.384 233.355 173.039 230.763 174.533C229.999 174.975 229.252 175.199 228.574 175.199V175.194ZM232.625 163.465C232.062 163.465 231.424 163.66 230.763 164.045C228.35 165.436 225.545 166.338 226.384 171.631C226.585 172.895 226.798 173.855 227.551 174.291C228.304 174.728 229.332 174.613 230.441 173.975C232.855 172.579 234.82 169.177 234.82 166.39C234.82 165.108 234.406 164.166 233.648 163.729C233.349 163.557 233.004 163.471 232.625 163.471V163.465Z" fill="white"/>
<path d="M226.664 174.125C226.664 174.125 226.619 174.125 226.601 174.125H226.429L226.337 173.975C225.946 173.372 225.739 172.556 225.739 171.625C225.739 168.631 227.848 164.982 230.44 163.488C231.221 163.04 231.957 162.821 232.687 162.833H232.859L232.951 162.982C233.342 163.586 233.549 164.402 233.549 165.333C233.549 168.327 231.44 171.976 228.848 173.47C228.09 173.907 227.36 174.131 226.664 174.131V174.125Z" fill="white"/>
<path d="M207.11 162.391L201.352 165.919L196.657 181.486L201.973 187.514L202.421 187.859L224.672 175.136C224.672 175.136 226.752 170.194 225.424 166.683C224.097 163.178 207.11 162.385 207.11 162.385V162.391Z" fill="#FFBE2E"/>
<path d="M199.629 169.751L195.956 181.923L201.272 187.951L201.72 188.296L219.218 178.291C221.448 177.015 222.425 174.314 221.529 171.906L221.511 171.86C220.626 169.516 212.748 168.384 207.616 167.895C204.823 167.625 202.019 168.286 199.629 169.751Z" fill="white"/>
<path d="M202.391 188.25L201.77 187.773L196.294 181.572L201.075 165.718L207.023 162.074H207.12C208.879 162.16 224.354 162.982 225.716 166.585C227.072 170.171 225.049 175.067 224.958 175.274L224.917 175.372L224.825 175.423L202.391 188.255V188.25ZM197.012 181.411L202.213 187.307L202.443 187.485L224.412 174.923C224.687 174.217 226.285 169.89 225.118 166.809C224.101 164.114 211.93 162.953 207.189 162.724L201.621 166.137L197.012 181.417V181.411Z" fill="#130E0C"/>
<path d="M201.349 185.227C201.872 185.767 202.55 186.152 203.297 186.256C204.256 186.388 205.279 186.221 206.216 185.687L221.743 176.774C223.978 175.492 225.024 172.774 224.111 170.367C223.99 170.051 223.892 169.872 223.892 169.872L226.191 168.309C226.271 168.505 226.34 168.694 226.403 168.884C227.857 173.136 225.932 177.82 222.036 180.067L205.015 189.893C204.515 190.181 203.998 190.445 203.452 190.635C197.424 192.726 188.413 185.503 188.413 185.503L192.413 184.859L183.195 177.929C183.845 175.159 182.569 171.343 182.569 171.343L190.677 168.677L200.36 172.636C200.36 172.636 199.038 176.814 199.337 181.946C199.337 181.998 199.343 182.049 199.349 182.101C199.349 182.101 199.349 182.112 199.349 182.118C199.412 182.894 199.78 183.612 200.32 184.17L201.343 185.227H201.349Z" fill="#130E0C"/>
<path d="M201.039 191.341C195.264 191.341 188.546 186.014 188.219 185.755L187.656 185.302L191.621 184.664L182.84 178.061L182.886 177.86C183.507 175.211 182.282 171.487 182.271 171.447L182.168 171.142L190.695 168.338L200.763 172.458L200.677 172.74C200.666 172.78 199.378 176.929 199.666 181.928L199.677 182.078C199.729 182.75 200.045 183.411 200.562 183.945L201.585 185.003C202.079 185.514 202.706 185.847 203.344 185.939C204.286 186.072 205.228 185.888 206.062 185.411L221.589 176.498C223.698 175.285 224.657 172.699 223.818 170.481C223.715 170.205 223.623 170.044 223.617 170.033L223.474 169.774L226.347 167.821L226.496 168.188C226.577 168.384 226.651 168.585 226.715 168.78C228.197 173.119 226.301 177.98 222.204 180.348L205.182 190.175C204.573 190.525 204.062 190.772 203.568 190.939C202.763 191.215 201.913 191.335 201.045 191.335L201.039 191.341ZM189.213 185.704C191.299 187.232 198.43 192.042 203.355 190.335C203.809 190.18 204.286 189.95 204.861 189.623L221.882 179.796C225.715 177.584 227.49 173.038 226.106 168.993C226.083 168.93 226.065 168.872 226.042 168.809L224.307 169.987C224.341 170.062 224.376 170.154 224.416 170.257C225.364 172.768 224.29 175.693 221.905 177.055L206.378 185.968C205.418 186.52 204.338 186.732 203.252 186.577C202.47 186.468 201.717 186.072 201.12 185.451L200.097 184.394C199.476 183.75 199.097 182.951 199.034 182.141L199.022 181.963C198.769 177.595 199.689 173.86 199.976 172.826L190.672 169.016L182.978 171.544C183.259 172.492 184.029 175.429 183.558 177.791L193.212 185.049L189.213 185.692V185.704Z" fill="#130E0C"/>
<path d="M232.714 152.926L237.909 156.173C238.386 156.472 239.013 156.351 239.346 155.903C239.719 155.403 239.593 154.69 239.064 154.351L233.875 150.989C233.174 150.535 232.243 151.012 232.209 151.851V151.972C232.186 152.363 232.381 152.725 232.709 152.932L232.714 152.926Z" fill="#FFBE2E"/>
<path d="M238.473 156.65C238.221 156.65 237.962 156.581 237.738 156.437L232.543 153.19C232.118 152.926 231.865 152.443 231.882 151.943V151.823C231.911 151.311 232.192 150.875 232.646 150.639C233.1 150.409 233.623 150.432 234.049 150.708L239.238 154.07C239.56 154.282 239.789 154.616 239.853 154.995C239.922 155.374 239.83 155.771 239.6 156.081C239.33 156.443 238.904 156.644 238.473 156.644V156.65ZM233.296 151.127C233.175 151.127 233.06 151.156 232.945 151.214C232.698 151.34 232.549 151.581 232.537 151.857V151.978C232.52 152.254 232.658 152.512 232.888 152.656L238.083 155.903C238.416 156.11 238.858 156.029 239.094 155.713C239.22 155.541 239.272 155.334 239.232 155.127C239.192 154.92 239.077 154.742 238.899 154.627L233.71 151.265C233.583 151.185 233.439 151.145 233.296 151.145V151.127Z" fill="#130E0C"/>
<path d="M231.24 163.758L237.803 159.982C238.395 159.643 238.711 158.954 238.55 158.293C238.2 156.845 236.958 154.425 232.671 153.132C226.287 151.207 231.24 163.758 231.24 163.758Z" fill="white"/>
<path d="M231.08 164.223L230.942 163.878C230.81 163.539 227.707 155.592 229.85 153.264C230.482 152.581 231.459 152.431 232.764 152.822C237.257 154.178 238.516 156.781 238.861 158.212C239.05 158.999 238.683 159.838 237.964 160.252L231.08 164.217V164.223ZM231.482 153.253C230.982 153.253 230.597 153.402 230.321 153.701C228.844 155.304 230.494 160.867 231.407 163.298L237.648 159.706C238.119 159.436 238.367 158.885 238.24 158.373C237.924 157.074 236.769 154.707 232.58 153.443C232.166 153.322 231.804 153.259 231.482 153.259V153.253Z" fill="#130E0C"/>
<path d="M233.286 146.857C235.252 147.995 235.924 150.518 234.763 152.466C233.212 155.081 231.413 158.982 231.131 163.39C231.131 163.39 231.781 165.545 217.966 173.481C204.151 181.417 219.564 154.402 219.564 154.402L229.091 144.857L233.286 146.857Z" fill="#FFBE2E"/>
<path d="M213.995 175.268C213.392 175.268 212.909 175.09 212.553 174.734C209.484 171.671 218.271 156.023 219.282 154.247L219.334 154.178L229.022 144.472L233.442 146.581C234.47 147.179 235.206 148.139 235.505 149.288C235.803 150.432 235.637 151.621 235.033 152.638C233.556 155.121 231.741 159 231.448 163.378C231.511 163.959 230.792 166.482 218.121 173.762C216.374 174.768 215.007 175.268 213.995 175.268ZM219.822 154.604C217.127 159.339 210.708 171.987 213.007 174.28C213.708 174.981 215.369 174.607 217.805 173.205C230.729 165.781 230.815 163.534 230.815 163.442L230.798 163.384L230.81 163.367C231.097 158.845 232.97 154.856 234.487 152.305C235.005 151.437 235.148 150.426 234.89 149.449C234.631 148.472 234.01 147.65 233.137 147.145L229.16 145.248L219.822 154.604Z" fill="#130E0C"/>
<path d="M230.23 139.709C228.034 138.698 225.862 138.261 222.087 140.175C219.225 141.628 215.421 144.14 213.047 146.3C210.042 149.036 206.381 152.564 205.594 154.564C205.468 154.886 205.336 155.3 205.203 155.776C203.962 160.546 205.68 161.891 206.669 162.27C206.956 162.379 207.054 162.736 206.87 162.983L203.922 166.988C203.112 168.086 203.008 169.557 203.669 170.752C204.893 172.97 207.726 175.723 213.881 174.976C214.053 174.953 214.203 174.838 214.266 174.671L217.714 165.425C217.714 165.425 219.805 158.213 228.425 152.352C235.764 147.364 238.585 143.571 230.23 139.709Z" fill="#FFBE2E"/>
<path d="M228.46 152.322C228.948 151.989 228.615 150.501 228.149 150.139C225.385 148.024 221.799 146.168 220.11 145.386H220.099C219.317 145.019 218.403 145.088 217.685 145.564C215.984 146.691 214.329 147.932 213.076 149.07C210.071 151.805 206.41 155.334 205.623 157.333C205.497 157.655 205.451 159.437 207.33 159.908C209.318 160.408 212.795 161.431 217.495 166.068L217.742 165.407C217.742 165.407 219.834 158.195 228.454 152.334C228.454 152.334 228.465 152.334 228.465 152.328L228.46 152.322Z" fill="#FFBE2E"/>
<path d="M211.927 175.418C206.732 175.418 204.376 172.671 203.394 170.901C202.675 169.608 202.785 167.994 203.67 166.793L206.618 162.787C206.658 162.736 206.646 162.678 206.641 162.655C206.635 162.632 206.612 162.586 206.56 162.563C205.388 162.115 203.612 160.627 204.899 155.69C205.043 155.179 205.181 154.759 205.302 154.443C205.939 152.823 208.336 150.162 212.841 146.065C215.105 144.008 218.852 141.468 221.955 139.893C225.696 137.991 227.954 138.301 230.374 139.422C233.781 140.996 235.511 142.646 235.661 144.473C235.844 146.732 233.804 149.093 228.621 152.616C220.208 158.334 218.059 165.448 218.036 165.517L214.582 174.786C214.479 175.062 214.226 175.257 213.939 175.292C213.232 175.378 212.565 175.418 211.939 175.418H211.927ZM226.759 139.175C225.483 139.175 224.047 139.543 222.237 140.468C219.179 142.019 215.49 144.519 213.266 146.542C211.663 148.001 206.773 152.444 205.893 154.685C205.779 154.984 205.646 155.38 205.508 155.863C204.348 160.311 205.807 161.598 206.784 161.971C207.014 162.058 207.181 162.241 207.255 162.477C207.324 162.718 207.278 162.971 207.135 163.172L204.187 167.178C203.451 168.178 203.359 169.517 203.957 170.597C204.974 172.436 207.617 175.418 213.847 174.66C213.898 174.654 213.95 174.614 213.967 174.568L217.415 165.322C217.427 165.27 219.633 157.949 228.248 152.093C233.149 148.76 235.172 146.496 235.011 144.531C234.879 142.956 233.276 141.479 230.092 140.008C229.006 139.502 227.949 139.175 226.753 139.175H226.759Z" fill="#130E0C"/>
<path d="M202.846 186.158C202.283 185.986 201.765 185.664 201.352 185.233L200.329 184.176C199.789 183.618 199.421 182.9 199.358 182.124C199.358 182.124 199.358 182.113 199.358 182.107C199.358 182.055 199.352 182.004 199.346 181.952C199.047 176.826 200.369 172.642 200.369 172.642L190.686 168.683L182.578 171.349C182.578 171.349 183.848 175.165 183.204 177.935L192.421 184.865L188.422 185.509C188.422 185.509 195.473 191.158 201.277 191.014C202.225 189.566 202.788 187.888 202.846 186.158Z" fill="#FFBE2E"/>
<path d="M201.053 191.342C195.249 191.342 188.509 185.992 188.221 185.762L187.658 185.308L191.623 184.67L182.843 178.067L182.889 177.866C183.509 175.217 182.285 171.493 182.274 171.453L182.578 170.43L190.698 168.344L200.766 172.464L200.68 172.746C200.668 172.786 199.381 176.935 199.669 181.941L199.68 182.09C199.732 182.762 200.048 183.423 200.565 183.958L201.588 185.015C201.973 185.411 202.444 185.705 202.944 185.854L203.18 185.923L203.168 186.17C203.111 187.934 202.548 189.67 201.548 191.198L201.456 191.336H201.289C201.214 191.336 201.134 191.336 201.059 191.336L201.053 191.342ZM189.216 185.71C190.991 187.015 196.439 190.704 201.059 190.704H201.099C201.933 189.382 202.421 187.9 202.513 186.388C201.996 186.193 201.519 185.877 201.122 185.463L200.1 184.406C199.479 183.762 199.1 182.963 199.036 182.159L199.025 181.981C198.772 177.613 199.692 173.878 199.979 172.844L190.675 169.034L182.981 171.562C183.262 172.51 184.032 175.447 183.561 177.809L193.215 185.067L189.216 185.71Z" fill="#130E0C"/>
<path d="M224.982 163.965C224.746 163.965 224.505 163.902 224.287 163.781C223.844 163.528 223.58 163.074 223.58 162.563V162.511C223.58 162.017 223.844 161.551 224.275 161.299L228.068 159.092C228.51 158.833 229.033 158.833 229.476 159.092C229.918 159.35 230.177 159.799 230.177 160.31C230.177 160.822 229.912 161.264 229.493 161.517L225.7 163.781C225.476 163.913 225.229 163.982 224.982 163.982V163.965ZM228.775 159.534C228.642 159.534 228.51 159.569 228.39 159.638L224.597 161.844C224.361 161.982 224.218 162.235 224.218 162.505V162.557C224.218 162.833 224.361 163.086 224.603 163.218C224.844 163.356 225.131 163.35 225.367 163.212L229.16 160.948C229.389 160.81 229.533 160.563 229.533 160.293C229.533 160.023 229.389 159.77 229.148 159.632C229.027 159.563 228.895 159.529 228.769 159.529L228.775 159.534Z" fill="black"/>
<path d="M190.824 186.451L191.525 185.761L187.974 183.802C187.721 183.618 187.457 183.463 187.164 183.353C185.974 182.917 184.451 183.118 182.791 184.078C178.975 186.278 175.883 191.64 175.883 196.048C175.883 198.162 176.602 199.662 177.762 200.421L177.803 200.444C177.889 200.495 177.975 200.547 178.061 200.593L181.888 202.754C181.888 202.754 183.704 201.409 183.946 200.978C184.015 200.857 184.601 199.628 185.405 197.938C187.715 195.519 189.399 192.059 189.669 188.928C190.365 187.451 190.842 186.451 190.842 186.451H190.824Z" fill="white"/>
<path d="M181.894 203.139L177.883 200.875C177.796 200.829 177.699 200.777 177.607 200.72L177.377 200.576V200.564C176.193 199.685 175.544 198.093 175.544 196.053C175.544 191.554 178.716 186.054 182.618 183.807C184.221 182.882 185.801 182.601 187.094 183.009L187.129 182.98L187.318 183.089C187.577 183.181 187.87 183.342 188.157 183.555L192.048 185.692L191.088 186.646L189.968 189.02C189.68 192.134 188.037 195.617 185.658 198.128C184.307 200.967 184.233 201.099 184.21 201.145C183.945 201.61 182.376 202.788 182.066 203.018L181.899 203.145L181.894 203.139ZM178.009 200.208C178.078 200.248 178.135 200.277 178.193 200.306L181.853 202.374C182.669 201.76 183.531 201.041 183.652 200.823C183.687 200.765 183.916 200.294 185.1 197.8L185.158 197.714C187.474 195.283 189.077 191.904 189.335 188.899L189.364 188.79L190.6 186.221L190.99 185.83L187.818 184.083C187.548 183.888 187.313 183.756 187.071 183.664L187.048 183.652C185.911 183.233 184.451 183.48 182.945 184.353C179.222 186.503 176.193 191.749 176.193 196.048C176.193 197.967 176.808 199.421 177.923 200.151L178.009 200.208Z" fill="#130E0C"/>
<path d="M193.573 190.25C193.573 194.657 190.482 200.019 186.666 202.22C182.85 204.421 179.759 202.639 179.759 198.232C179.759 193.824 182.85 188.462 186.666 186.261C190.482 184.061 193.573 185.842 193.573 190.25Z" fill="#130E0C"/>
<path d="M183.574 203.49C182.861 203.49 182.2 203.323 181.614 202.984C180.206 202.174 179.431 200.484 179.431 198.232C179.431 193.732 182.603 188.233 186.504 185.986C188.453 184.859 190.303 184.687 191.711 185.503C193.119 186.313 193.895 188.003 193.895 190.255C193.895 194.755 190.722 200.254 186.821 202.501C185.683 203.156 184.574 203.49 183.574 203.49ZM189.746 185.635C188.855 185.635 187.861 185.94 186.821 186.537C183.097 188.687 180.068 193.933 180.068 198.232C180.068 200.243 180.729 201.731 181.93 202.427C183.131 203.122 184.752 202.95 186.499 201.944C190.222 199.795 193.251 194.548 193.251 190.25C193.251 188.238 192.59 186.75 191.389 186.055C190.906 185.773 190.349 185.635 189.746 185.635Z" fill="#130E0C"/>
<path d="M184.63 200.427C184.142 200.427 183.688 200.312 183.286 200.082C182.326 199.524 181.797 198.387 181.797 196.864C181.797 193.87 183.906 190.221 186.498 188.727C187.814 187.968 189.067 187.853 190.026 188.411C190.986 188.968 191.515 190.106 191.515 191.629C191.515 194.623 189.406 198.272 186.814 199.766C186.05 200.208 185.303 200.432 184.625 200.432L184.63 200.427ZM188.687 188.698C188.124 188.698 187.486 188.893 186.82 189.278C184.406 190.675 182.441 194.071 182.441 196.864C182.441 198.145 182.855 199.088 183.607 199.525C184.36 199.961 185.389 199.846 186.498 199.208C188.911 197.818 190.877 194.416 190.877 191.623C190.877 190.342 190.463 189.399 189.71 188.962C189.411 188.79 189.061 188.704 188.687 188.704V188.698Z" fill="white"/>
<path d="M188.56 188.704C188.02 188.727 187.422 188.928 186.819 189.273C184.405 190.669 182.44 194.065 182.44 196.858C182.44 197.588 182.578 198.226 182.848 198.714C183.388 198.685 183.986 198.49 184.589 198.145C187.002 196.749 188.968 193.353 188.968 190.56C188.968 189.83 188.83 189.192 188.56 188.704Z" fill="white"/>
<path d="M187.582 176.746C187.496 176.688 187.404 176.636 187.307 176.585L187.278 176.567C186.83 176.332 186.289 176.165 185.646 176.073C180.169 175.32 176.124 184.09 175.158 186.388C174.975 186.825 174.929 187.451 175.337 187.693L181.008 190.986L187.14 184.182C187.312 184.354 187.468 184.521 187.6 184.676C187.904 185.038 188.496 184.911 188.64 184.463C188.858 183.785 189.111 182.848 189.237 181.854L189.668 181.377L192.754 181.584L193.323 180.073L187.582 176.74V176.746Z" fill="white"/>
<path d="M189.811 179.969C189.915 180.078 190.024 180.188 190.11 180.291C190.265 180.475 190.495 180.532 190.702 180.486L189.817 179.969H189.811Z" fill="#FCEBCC"/>
<path d="M181.071 191.399L175.176 187.974C174.612 187.641 174.618 186.859 174.865 186.267C175.98 183.607 180.037 174.981 185.692 175.757C186.341 175.843 186.927 176.021 187.427 176.286C187.559 176.355 187.657 176.412 187.749 176.475L193.714 179.94L192.961 181.929L189.795 181.716L189.536 182.003C189.398 183.021 189.134 183.957 188.938 184.572C188.835 184.894 188.565 185.135 188.232 185.198C187.898 185.267 187.565 185.152 187.347 184.894C187.283 184.819 187.215 184.739 187.14 184.658L181.06 191.399H181.071ZM184.991 176.355C179.968 176.355 176.187 184.773 175.457 186.52C175.313 186.859 175.29 187.302 175.497 187.422L180.945 190.583L187.128 183.727L187.37 183.963C187.554 184.141 187.714 184.319 187.852 184.48C187.944 184.595 188.071 184.584 188.122 184.572C188.226 184.549 188.312 184.48 188.341 184.377C188.536 183.768 188.795 182.831 188.927 181.82L188.938 181.722L189.542 181.055L192.542 181.256L192.932 180.222L187.416 177.015C187.335 176.964 187.249 176.918 187.163 176.866C186.697 176.625 186.186 176.469 185.606 176.389C185.399 176.36 185.192 176.349 184.991 176.349V176.355Z" fill="#130E0C"/>
<path d="M181.007 190.991C180.599 190.75 180.651 190.123 180.829 189.686C181.795 187.382 185.834 178.619 191.317 179.371C196.218 180.044 195.063 185.411 194.311 187.767C194.167 188.215 193.575 188.342 193.27 187.98C191.799 186.244 187.869 183.204 182.237 190.905C182.237 190.905 181.852 191.491 181.002 190.991H181.007Z" fill="#FFBE2E"/>
<path d="M181.653 191.514C181.423 191.514 181.153 191.445 180.848 191.267C180.285 190.933 180.291 190.152 180.538 189.566C181.653 186.905 185.721 178.285 191.364 179.055C192.847 179.256 193.927 179.889 194.588 180.934C195.887 182.997 195.168 186.164 194.623 187.865C194.519 188.187 194.249 188.428 193.916 188.491C193.582 188.56 193.249 188.445 193.031 188.187C192.243 187.256 190.933 186.164 189.135 186.227C187.037 186.302 184.807 187.939 182.503 191.094C182.382 191.278 182.089 191.52 181.658 191.52L181.653 191.514ZM181.17 190.715C181.71 191.037 181.934 190.778 181.974 190.721C184.411 187.394 186.807 185.664 189.112 185.583C191.261 185.497 192.801 186.922 193.519 187.767C193.611 187.882 193.738 187.871 193.789 187.859C193.893 187.836 193.979 187.767 194.008 187.664C194.519 186.066 195.203 183.112 194.042 181.268C193.491 180.394 192.56 179.86 191.278 179.682C185.957 178.946 181.894 187.985 181.13 189.807C180.986 190.146 180.963 190.589 181.17 190.709V190.715Z" fill="#130E0C"/>
<path d="M188.096 141.605L188.044 141.634C187.274 142.076 187.28 143.197 188.056 143.628L192.141 145.915C192.492 146.11 192.923 146.11 193.273 145.909C194.038 145.467 194.038 144.357 193.273 143.915L189.234 141.599C188.877 141.398 188.446 141.398 188.09 141.599L188.096 141.605Z" fill="#130E0C"/>
<path d="M192.704 146.386C192.457 146.386 192.209 146.323 191.985 146.196L187.9 143.909C187.434 143.651 187.153 143.174 187.147 142.634C187.147 142.099 187.417 141.616 187.882 141.352L187.934 141.323C188.388 141.065 188.945 141.065 189.399 141.323L193.439 143.639C193.899 143.904 194.175 144.38 194.175 144.915C194.175 145.449 193.899 145.921 193.439 146.191C193.215 146.317 192.962 146.386 192.704 146.386ZM188.25 141.887L188.198 141.915C187.934 142.065 187.779 142.335 187.785 142.639C187.79 142.944 187.946 143.208 188.21 143.358L192.296 145.645C192.549 145.788 192.859 145.783 193.112 145.645C193.37 145.495 193.525 145.225 193.525 144.926C193.525 144.628 193.37 144.358 193.112 144.208L189.072 141.892C188.819 141.743 188.503 141.743 188.244 141.892L188.25 141.887Z" fill="#130E0C"/>
<path d="M199.721 156.897L201.071 158.54C202.197 159.914 202.646 161.718 202.289 163.453L200.542 172.027C200.267 173.372 199.433 174.538 198.244 175.228L196.807 176.061C194.319 177.504 191.377 177.946 188.572 177.303C186.498 176.826 184.705 175.521 183.613 173.688L183.291 173.154C182.498 171.815 182.246 170.223 182.59 168.706C183.01 166.861 183.717 165.097 184.688 163.471L187.429 158.856C188.578 156.925 190.256 155.368 192.262 154.362L193.848 153.569L199.715 156.897H199.721Z" fill="white"/>
<path d="M191.113 177.917C190.239 177.917 189.36 177.82 188.492 177.619C186.338 177.124 184.458 175.757 183.332 173.855L183.01 173.32C182.171 171.907 181.907 170.24 182.275 168.631C182.706 166.752 183.418 164.959 184.407 163.304L187.148 158.689C188.326 156.701 190.044 155.104 192.113 154.075L193.854 153.207L199.957 156.695L201.307 158.339C202.497 159.793 202.968 161.678 202.594 163.522L200.848 172.096C200.554 173.533 199.664 174.774 198.394 175.51L196.951 176.343C195.153 177.383 193.141 177.917 191.107 177.917H191.113ZM193.842 153.931L192.406 154.644C190.446 155.621 188.82 157.132 187.705 159.011L184.964 163.626C184.016 165.223 183.321 166.959 182.907 168.769C182.579 170.211 182.809 171.711 183.568 172.987L183.889 173.521C184.93 175.268 186.659 176.532 188.642 176.986C191.377 177.613 194.216 177.182 196.641 175.78L198.083 174.946C199.193 174.303 199.974 173.217 200.233 171.964L201.98 163.39C202.313 161.741 201.893 160.046 200.825 158.741L199.514 157.144L193.848 153.931H193.842Z" fill="#130E0C"/>
<path d="M200.597 172.01L202.344 163.436C202.7 161.701 202.252 159.891 201.126 158.523L199.775 156.88L199.258 156.586L198.597 157.362L190.84 175.245C190.84 175.245 191.184 177.452 193.494 177.32C194.667 177.073 195.805 176.653 196.862 176.044L198.304 175.211C199.494 174.521 200.327 173.361 200.603 172.01H200.597Z" fill="white"/>
<path d="M199.155 163.08C199.494 161.425 199.092 159.712 198.087 158.368L190.737 175.308C190.737 175.308 190.857 176.067 191.421 176.665C192.196 176.418 192.955 176.102 193.673 175.688L195.11 174.854C196.299 174.165 197.138 173.004 197.408 171.654L199.155 163.08Z" fill="white"/>
<path d="M193.334 177.636C191.398 177.636 190.651 176.119 190.524 175.291L190.507 175.199L198.351 157.149L199.184 156.167L200.023 156.667L201.374 158.31C202.563 159.764 203.034 161.649 202.661 163.494L200.914 172.067C200.621 173.504 199.73 174.745 198.46 175.481L197.024 176.314C195.966 176.923 194.805 177.366 193.564 177.624C193.489 177.624 193.415 177.63 193.34 177.63L193.334 177.636ZM191.174 175.274C191.26 175.648 191.708 177.084 193.478 176.992C194.604 176.751 195.702 176.337 196.702 175.757L198.138 174.923C199.247 174.28 200.029 173.194 200.288 171.941L202.035 163.367C202.368 161.718 201.948 160.023 200.879 158.718L199.569 157.121L199.334 156.988L198.874 157.529L191.174 175.274Z" fill="#130E0C"/>
<path d="M188.508 159.879L185.767 164.493C184.802 166.12 184.095 167.884 183.67 169.728C183.63 169.907 183.612 170.079 183.584 170.257C183.917 170.154 184.279 169.878 184.647 169.309C185.871 167.436 190.939 158.718 192.663 155.753C190.956 156.747 189.52 158.166 188.508 159.873V159.879Z" fill="white"/>
<path d="M183.113 170.757C182.774 170.757 182.481 170.625 182.268 170.499L182.125 170.407V170.24C182.096 169.671 182.148 169.114 182.268 168.585C182.699 166.706 183.418 164.913 184.4 163.258L187.141 158.644C188.325 156.655 190.038 155.058 192.106 154.029L192.761 153.702L193.445 154.885L193.353 155.046C193.284 155.167 186.216 167.367 184.751 169.608C184.17 170.493 183.59 170.757 183.102 170.757H183.113ZM182.762 170.033C183.113 170.194 183.607 170.2 184.228 169.258C185.59 167.166 191.876 156.339 192.715 154.885L192.52 154.546L192.405 154.604C190.446 155.581 188.819 157.092 187.705 158.971L184.963 163.586C184.015 165.183 183.32 166.913 182.906 168.729C182.808 169.148 182.762 169.591 182.768 170.039L182.762 170.033Z" fill="#130E0C"/>
<path d="M191.364 145.231C191.037 146.191 191.364 147.219 192.054 147.966C192.301 148.236 192.537 148.685 192.485 149.414C192.376 150.868 190.686 154.81 195.036 157.316C197.967 159.011 200.496 157.913 201.829 157.017C202.501 156.569 203.352 156.477 204.087 156.816C205.846 157.615 208.966 158.81 210.167 157.81C211.88 156.391 212.678 155.023 211.362 153.989C210.046 152.954 195.634 144.668 195.634 144.668C195.634 144.668 192.548 142.501 191.514 144.863C191.456 144.99 191.416 145.116 191.376 145.231H191.364Z" fill="#FFBE2E"/>
<path d="M195.007 157.305C197.938 159 200.466 157.903 201.799 157.006C202.472 156.558 203.322 156.466 204.058 156.805C205.816 157.604 208.937 158.799 210.138 157.799C210.666 157.362 211.103 156.931 211.425 156.512C211.339 156.408 211.235 156.299 211.109 156.202C209.793 155.161 195.38 146.881 195.38 146.881C195.38 146.881 192.501 144.869 191.375 146.869C191.513 147.266 191.737 147.639 192.036 147.955C192.283 148.225 192.519 148.674 192.467 149.403C192.438 149.783 192.306 150.334 192.197 150.978C192.237 151.168 192.26 151.374 192.243 151.627C192.22 151.897 192.145 152.259 192.065 152.679C192.111 154.231 192.708 155.966 195.018 157.299L195.007 157.305Z" fill="#FFBE2E"/>
<path d="M198.162 158.523C197.162 158.523 196.047 158.276 194.875 157.598C191.025 155.374 191.68 152.024 192.03 150.225C192.094 149.892 192.151 149.604 192.168 149.392C192.208 148.88 192.094 148.478 191.823 148.191C191.002 147.306 190.714 146.162 191.065 145.134C191.111 145.007 191.157 144.875 191.214 144.737C191.496 144.099 191.938 143.691 192.53 143.524C193.961 143.122 195.743 144.358 195.817 144.409C196.38 144.731 210.241 152.696 211.557 153.736C212.068 154.138 212.327 154.615 212.333 155.15C212.344 156 211.701 156.954 210.368 158.063C209.098 159.115 206.178 158.126 203.954 157.115C203.328 156.828 202.598 156.897 202.006 157.293C201.179 157.845 199.823 158.529 198.162 158.529V158.523ZM193.151 144.082C192.996 144.082 192.846 144.099 192.703 144.139C192.3 144.254 192.007 144.53 191.8 144.996C191.749 145.116 191.709 145.231 191.668 145.34C191.398 146.139 191.628 147.041 192.289 147.754C192.559 148.047 192.869 148.576 192.806 149.443C192.789 149.696 192.726 150.001 192.657 150.351C192.312 152.11 191.737 155.052 195.191 157.046C198.007 158.672 200.443 157.563 201.644 156.759C202.42 156.236 203.38 156.155 204.213 156.529C207.081 157.839 209.172 158.213 209.954 157.569C211.115 156.604 211.695 155.793 211.689 155.161C211.689 154.828 211.511 154.529 211.155 154.248C209.873 153.236 195.61 145.036 195.467 144.955C195.432 144.932 194.214 144.088 193.145 144.088L193.151 144.082Z" fill="#130E0C"/>
<path d="M195.364 148.541C195.364 148.541 198.128 144.857 201.622 145.92C205.116 146.984 205.639 150.621 203.834 152.77C202.03 154.92 197.95 155.402 197.95 155.402L195.358 148.535L195.364 148.541Z" fill="#3C2C0B"/>
<path d="M204.15 150.058C202.351 152.207 198.266 152.69 198.266 152.69L196.341 147.587C195.726 148.144 195.364 148.621 195.364 148.621L197.955 155.488C197.955 155.488 202.041 155.005 203.84 152.856C204.713 151.81 205.035 150.42 204.742 149.138C204.587 149.466 204.391 149.782 204.15 150.063V150.058Z" fill="#130E0C"/>
<path d="M197.742 155.753L195.001 148.489L195.104 148.346C195.225 148.191 198.046 144.49 201.713 145.61C203.379 146.116 204.54 147.219 204.983 148.714C205.414 150.162 205.069 151.794 204.08 152.972C202.218 155.19 198.161 155.696 197.989 155.719L197.736 155.747L197.742 155.753ZM195.731 148.599L198.167 155.052C199.064 154.908 202.149 154.293 203.598 152.569C204.448 151.552 204.747 150.15 204.379 148.903C204 147.622 202.988 146.674 201.535 146.231C198.661 145.352 196.259 147.966 195.731 148.599Z" fill="#130E0C"/>
<path d="M201.558 152.541C200.518 154.828 198.167 156 196.311 155.15C194.449 154.305 193.783 151.765 194.823 149.478C195.863 147.191 198.213 146.018 200.069 146.869C201.931 147.714 202.598 150.254 201.558 152.541Z" fill="white"/>
<path d="M197.581 155.747C197.098 155.747 196.621 155.649 196.173 155.448C194.156 154.535 193.415 151.799 194.524 149.351C195.058 148.179 195.932 147.242 196.989 146.714C198.069 146.179 199.207 146.127 200.196 146.576C201.184 147.024 201.897 147.915 202.207 149.081C202.506 150.225 202.379 151.5 201.845 152.673C200.983 154.569 199.259 155.747 197.581 155.747ZM198.782 146.92C198.288 146.92 197.776 147.047 197.276 147.294C196.351 147.754 195.581 148.581 195.11 149.621C194.145 151.742 194.742 154.098 196.437 154.868C198.133 155.638 200.299 154.54 201.259 152.414C201.73 151.374 201.845 150.253 201.581 149.254C201.328 148.277 200.736 147.535 199.926 147.168C199.564 147.001 199.173 146.92 198.776 146.92H198.782Z" fill="#130E0C"/>
<path d="M197.789 154.253C197.456 154.253 197.122 154.184 196.812 154.047C195.421 153.414 194.91 151.541 195.669 149.869C196.427 148.197 198.174 147.352 199.565 147.984C200.249 148.294 200.743 148.909 200.955 149.714C201.162 150.495 201.076 151.363 200.708 152.162C200.122 153.455 198.938 154.259 197.789 154.259V154.253ZM198.582 148.415C197.68 148.415 196.732 149.076 196.255 150.139C195.64 151.489 196.013 152.978 197.082 153.466C198.151 153.949 199.519 153.248 200.128 151.897C200.427 151.231 200.501 150.518 200.335 149.88C200.174 149.265 199.806 148.806 199.3 148.576C199.076 148.472 198.829 148.421 198.582 148.421V148.415Z" fill="#130E0C"/>
<path d="M197.961 153.276C196.731 152.719 196.289 151.041 196.978 149.524C197.249 148.926 197.662 148.449 198.128 148.116C197.254 148.294 196.415 148.961 195.961 149.966C195.272 151.478 195.714 153.156 196.944 153.719C197.685 154.058 198.547 153.903 199.266 153.397C198.823 153.489 198.375 153.46 197.961 153.276Z" fill="#130E0C"/>
<path d="M197.782 154.224C197.449 154.224 197.116 154.155 196.811 154.017C195.42 153.385 194.909 151.512 195.668 149.84C196.15 148.777 197.047 148.018 198.064 147.805L198.932 148.121L198.317 148.386C197.868 148.702 197.512 149.139 197.271 149.662C196.656 151.012 197.029 152.5 198.098 152.989C198.426 153.138 198.799 153.173 199.202 153.092L199.972 152.937L199.449 153.673C198.926 154.04 198.345 154.23 197.782 154.23V154.224ZM196.673 149.414C196.507 149.621 196.363 149.857 196.248 150.11C195.633 151.46 196.007 152.949 197.075 153.437C197.323 153.546 197.581 153.598 197.857 153.586C197.845 153.586 197.84 153.581 197.828 153.575C196.443 152.943 195.932 151.081 196.679 149.414H196.673Z" fill="#130E0C"/>
<path d="M194.256 134.784C194.767 137.031 193.877 139.146 192.273 139.514C190.67 139.876 188.952 138.353 188.446 136.1C187.935 133.853 188.826 131.739 190.429 131.371C192.032 131.009 193.75 132.537 194.256 134.784Z" fill="white"/>
<path d="M189.318 136.1C188.807 133.853 189.697 131.739 191.301 131.377C190.984 131.308 190.663 131.302 190.341 131.377C188.738 131.739 187.847 133.859 188.358 136.106C188.87 138.353 190.582 139.882 192.186 139.52C190.904 139.244 189.726 137.91 189.318 136.112V136.1Z" fill="#130E0C"/>
<path d="M191.801 139.881C190.198 139.881 188.623 138.336 188.135 136.169C187.589 133.756 188.589 131.457 190.359 131.06C191.238 130.865 192.163 131.147 192.968 131.859C193.738 132.549 194.312 133.56 194.571 134.709C194.829 135.859 194.755 137.02 194.352 137.974C193.939 138.962 193.22 139.623 192.341 139.818C192.157 139.858 191.979 139.876 191.795 139.876L191.801 139.881ZM190.91 131.641C190.772 131.641 190.635 131.658 190.502 131.687C189.071 132.009 188.29 133.957 188.761 136.031C189.232 138.1 190.772 139.525 192.203 139.198C192.876 139.042 193.427 138.525 193.761 137.726C194.111 136.893 194.174 135.87 193.945 134.853C193.715 133.83 193.215 132.94 192.542 132.336C192.025 131.876 191.462 131.641 190.91 131.641Z" fill="#130E0C"/>
<path d="M230.24 139.709C228.045 138.698 225.873 138.261 222.098 140.175C220.965 140.749 219.69 141.491 218.408 142.312C218.443 142.33 225.982 145.772 227.603 147.254C229.229 148.743 229.057 150.955 228.436 152.346C235.774 147.358 238.596 143.565 230.24 139.703V139.709Z" fill="#FFBE2E"/>
<path d="M230.569 141.939C228.373 140.928 226.201 140.491 222.426 142.405C221.966 142.64 221.478 142.905 220.978 143.186C223.34 144.33 226.73 146.048 227.753 146.99C228.994 148.128 229.184 149.68 228.937 150.967C229.029 151.208 229.098 151.455 229.138 151.702C232.396 149.444 234.666 147.427 235.31 145.536C234.666 144.318 233.155 143.129 230.569 141.933V141.939Z" fill="#FFBE2E"/>
<path d="M227.683 153.254L228.143 152.225C228.729 150.903 228.885 148.875 227.385 147.502C226.155 146.375 221.086 143.898 218.282 142.617L217.748 142.37L218.236 142.048C219.546 141.209 220.834 140.462 221.954 139.893C225.701 137.991 227.954 138.301 230.379 139.422C233.786 140.996 235.516 142.646 235.665 144.473C235.849 146.732 233.809 149.093 228.626 152.616L227.695 153.248L227.683 153.254ZM219.075 142.272C220.92 143.134 226.419 145.743 227.816 147.025C229.235 148.323 229.396 150.105 229.051 151.541C233.378 148.507 235.171 146.387 235.022 144.525C234.895 142.95 233.286 141.473 230.109 140.002C227.862 138.962 225.764 138.681 222.247 140.462C221.288 140.95 220.201 141.571 219.081 142.272H219.075Z" fill="#130E0C"/>
<path d="M193.608 143.806L193.019 144.064L191.095 139.661L191.685 139.404L193.608 143.806Z" fill="#130E0C"/>
<path d="M220.742 151.984C219.598 153.984 217.512 154.943 216.087 154.127C214.656 153.311 214.426 151.03 215.57 149.024C216.713 147.025 218.799 146.065 220.224 146.881C221.655 147.697 221.885 149.978 220.742 151.984Z" fill="white"/>
<path d="M220.375 146.996C220.019 146.789 219.616 146.697 219.203 146.708C220.179 147.72 220.231 149.685 219.237 151.432C218.381 152.932 216.996 153.846 215.755 153.869C215.898 154.018 216.059 154.144 216.243 154.248C217.674 155.064 219.754 154.104 220.898 152.104C222.041 150.105 221.806 147.818 220.381 147.002L220.375 146.996Z" fill="#130E0C"/>
<path d="M217.214 154.742C216.754 154.742 216.317 154.633 215.927 154.409C215.145 153.96 214.651 153.127 214.542 152.058C214.438 151.03 214.703 149.898 215.289 148.869C216.519 146.72 218.8 145.703 220.38 146.605C221.162 147.053 221.656 147.886 221.765 148.955C221.869 149.984 221.604 151.116 221.018 152.144C220.432 153.167 219.593 153.972 218.651 154.409C218.162 154.633 217.674 154.748 217.208 154.748L217.214 154.742ZM219.087 146.915C217.949 146.915 216.651 147.777 215.846 149.191C215.329 150.099 215.088 151.099 215.18 151.995C215.266 152.851 215.645 153.512 216.243 153.857C216.84 154.196 217.599 154.19 218.386 153.828C219.202 153.449 219.944 152.742 220.461 151.834C220.984 150.926 221.219 149.926 221.127 149.03C221.041 148.174 220.662 147.513 220.064 147.168C219.765 146.996 219.432 146.915 219.087 146.915Z" fill="#130E0C"/>
<path d="M215.575 153.851L211.559 155.413L211.325 154.813L215.342 153.251L215.575 153.851Z" fill="black"/>
<path d="M226.793 168.89L226.229 169.234C227.005 171.757 226.58 174.441 225.212 176.619L225.804 176.889C227.258 174.521 227.689 171.608 226.798 168.89H226.793Z" fill="black"/>
<path d="M231.516 163.395C231.752 159.85 232.987 156.649 234.234 154.23L233.66 153.931C232.378 156.413 231.108 159.723 230.878 163.384V163.453C230.884 163.528 230.821 164.976 224.224 169.337L224.5 169.924C231.114 165.562 231.568 163.861 231.516 163.395Z" fill="black"/>
<path d="M236.097 161.35L235.758 160.804L231.431 163.293C231.379 163.149 231.321 162.994 231.264 162.827L231 163.948L231.109 164.218L236.103 161.345L236.097 161.35Z" fill="black"/>
<path d="M189.175 185.434C186.939 185.514 184.606 187.152 182.244 190.301L182.457 191.071C182.503 191.025 182.537 190.985 182.566 190.945C184.871 187.79 187.106 186.152 189.198 186.077C190.996 186.014 192.306 187.106 193.094 188.037C193.105 188.054 193.123 188.06 193.134 188.072L193.444 187.462C192.674 186.606 191.203 185.353 189.175 185.434Z" fill="#130E0C"/>
<path d="M193.617 164.614C193.422 164.614 193.227 164.569 193.043 164.482L190.595 163.264C190.175 163.057 189.905 162.649 189.876 162.178C189.848 161.707 190.072 161.276 190.468 161.017L190.508 160.988C190.894 160.741 191.388 160.713 191.796 160.925L194.204 162.172C194.617 162.385 194.882 162.793 194.905 163.258C194.928 163.724 194.709 164.155 194.313 164.408C194.1 164.546 193.859 164.614 193.612 164.614H193.617ZM190.859 161.534L190.819 161.557C190.618 161.684 190.508 161.902 190.52 162.143C190.531 162.379 190.669 162.586 190.882 162.689L193.33 163.908C193.531 164.011 193.778 163.994 193.974 163.873C194.169 163.747 194.284 163.528 194.272 163.293C194.261 163.057 194.129 162.856 193.916 162.747L191.508 161.5C191.307 161.396 191.054 161.408 190.865 161.534H190.859Z" fill="#130E0C"/>
</svg>
