<svg width="124" height="124" viewBox="0 0 124 124" fill="none" xmlns="http://www.w3.org/2000/svg">
<circle cx="62" cy="62" r="60" fill="white" stroke="#978050" stroke-width="4"/>
<rect x="34" y="87" width="42" height="33" rx="4" transform="rotate(-90 34 87)" fill="#FFBE2E"/>
<g clip-path="url(#clip0_129_6428)">
<path fill-rule="evenodd" clip-rule="evenodd" d="M83.724 88.8973H40.3007C39.8775 88.8973 39.5352 88.555 39.5352 88.1317L39.5352 56.7157C39.5352 56.4773 39.6468 56.252 39.8371 56.1065L61.5383 39.5651C61.8128 39.3562 62.1923 39.3562 62.4657 39.5651L84.1878 56.1077C84.378 56.252 84.4896 56.4773 84.4896 56.7168V88.1329C84.4896 88.5549 84.1472 88.8973 83.724 88.8973ZM41.0662 87.3662H82.9585V57.0951L62.002 41.1366L41.0663 57.0951L41.0662 87.3662Z" fill="black"/>
<path fill-rule="evenodd" clip-rule="evenodd" d="M87.5227 59.9726C86.9988 59.9726 86.4705 59.8075 86.0233 59.4663L85.4819 59.0529C85.4414 59.0223 85.4043 58.9873 85.3704 58.949L62.0035 41.1367L38.6366 58.949C38.6038 58.9873 38.5666 59.0223 38.525 59.0529L37.9837 59.4663C37.4587 59.8666 36.808 60.0382 36.1518 59.9497C35.4945 59.8611 34.9127 59.5243 34.5124 58.9993C33.6845 57.9133 33.8934 56.3559 34.9783 55.5281L61.5387 35.2595C61.8132 35.0506 62.1938 35.0506 62.4672 35.2595C68.5664 39.9151 74.6668 44.5697 80.7672 49.2242L89.0275 55.528C90.1135 56.3559 90.3224 57.9133 89.4944 58.9993C89.0078 59.638 88.2696 59.9726 87.5227 59.9726ZM62.0035 36.831L35.9069 56.7453C35.4924 57.0614 35.4125 57.6563 35.7286 58.0708C36.0446 58.4853 36.6396 58.5651 37.0541 58.2491L37.4839 57.921C37.5178 57.8827 37.555 57.8477 37.5955 57.8171L61.5397 39.5652C61.8142 39.3563 62.1938 39.3563 62.4682 39.5652L86.4115 57.8171C86.453 57.8488 86.4902 57.8838 86.523 57.921L86.9529 58.2491C87.1519 58.4011 87.4002 58.4667 87.6517 58.4328C87.9032 58.3989 88.1252 58.271 88.2772 58.0719C88.4292 57.8728 88.4949 57.6246 88.461 57.373C88.427 57.1215 88.2991 56.8995 88.1001 56.7475L79.8397 50.4448C73.8936 45.9061 67.9475 41.3697 62.0035 36.831Z" fill="black"/>
<path fill-rule="evenodd" clip-rule="evenodd" d="M79.403 83.3865H44.625C44.2017 83.3865 43.8594 83.0442 43.8594 82.6209C43.8594 82.1977 44.2017 81.8553 44.625 81.8553L79.403 81.8554C79.8263 81.8554 80.1686 82.1977 80.1686 82.621C80.1686 83.0442 79.8252 83.3865 79.403 83.3865Z" fill="black"/>
<path fill-rule="evenodd" clip-rule="evenodd" d="M68.3293 78.7209H55.6977C54.0485 78.7209 52.3697 77.9466 51.3154 76.6987C50.4427 75.6663 50.0785 74.4141 50.2885 73.1729L52.5042 60.0983C52.5666 59.7297 52.8859 59.4607 53.2588 59.4607H70.766C71.14 59.4607 71.4582 59.7297 71.5206 60.0983L73.7363 73.1729C73.9463 74.4142 73.5821 75.6653 72.7094 76.6987C71.6573 77.9466 69.9785 78.7209 68.3293 78.7209ZM53.9063 60.9929L51.7977 73.4298C51.626 74.4404 52.0766 75.2289 52.4845 75.7112C53.2555 76.6233 54.4859 77.1898 55.6966 77.1898L68.3282 77.1898C69.5389 77.1898 70.7704 76.6233 71.5403 75.7112C71.9482 75.2289 72.3977 74.4404 72.2271 73.4299L70.1196 60.9929L53.9063 60.9929Z" fill="black"/>
<path fill-rule="evenodd" clip-rule="evenodd" d="M67.2225 63.3684C66.7993 63.3684 66.4569 63.0261 66.4569 62.6029V56.9935C66.4569 54.5438 64.4643 52.5511 62.0146 52.5511C59.5648 52.5511 57.5721 54.5438 57.5721 56.9935V62.6029C57.5721 63.0261 57.2299 63.3684 56.8066 63.3684C56.3833 63.3684 56.041 63.0261 56.041 62.6029V56.9935C56.041 53.6995 58.7204 51.02 62.0145 51.02C65.3086 51.02 67.988 53.6995 67.988 56.9935V62.6029C67.9881 63.0261 67.6447 63.3684 67.2225 63.3684Z" fill="black"/>
<path fill-rule="evenodd" clip-rule="evenodd" d="M56.8065 66.998C55.3836 66.998 54.2266 65.8409 54.2266 64.4181C54.2266 62.9952 55.3836 61.8381 56.8065 61.8381C58.2293 61.8381 59.3864 62.9952 59.3864 64.4181C59.3864 65.8409 58.2293 66.998 56.8065 66.998ZM56.8065 63.3682C56.2279 63.3682 55.7577 63.8385 55.7577 64.417C55.7577 64.9955 56.228 65.4658 56.8065 65.4658C57.385 65.4658 57.8553 64.9955 57.8553 64.417C57.8553 63.8385 57.385 63.3682 56.8065 63.3682Z" fill="black"/>
<path fill-rule="evenodd" clip-rule="evenodd" d="M67.2225 66.998C65.7997 66.998 64.6426 65.8409 64.6426 64.4181C64.6426 62.9952 65.7997 61.8381 67.2225 61.8381C68.6453 61.8381 69.8024 62.9952 69.8024 64.4181C69.8024 65.8409 68.6443 66.998 67.2225 66.998ZM67.2225 63.3682C66.6439 63.3682 66.1737 63.8385 66.1737 64.417C66.1737 64.9955 66.644 65.4658 67.2225 65.4658C67.801 65.4658 68.2713 64.9955 68.2713 64.417C68.2713 63.8385 67.8 63.3682 67.2225 63.3682Z" fill="black"/>
</g>
<defs>
<clipPath id="clip0_129_6428">
<rect width="56" height="56" fill="white" transform="translate(34 34)"/>
</clipPath>
</defs>
</svg>
