<svg width="101" height="100" viewBox="0 0 101 100" fill="none" xmlns="http://www.w3.org/2000/svg">
<path d="M9.97618 18.024C9.94257 18.024 9.90985 18.0066 9.89215 17.9754C9.86513 17.9289 9.88074 17.8692 9.92726 17.8422L24.4716 9.4005C24.5181 9.37349 24.5779 9.3888 24.6049 9.43592C24.6319 9.48244 24.6163 9.54217 24.5698 9.56918L10.0254 18.0108C10.0095 18.0198 9.99269 18.024 9.97618 18.024Z" fill="#DBDEE4"/>
<path d="M22.1485 9.57721C21.4435 9.9842 21.4396 10.6445 22.1398 11.0515C22.84 11.4585 23.98 11.4582 24.685 11.0512C25.39 10.6442 25.3933 9.9842 24.6931 9.57721C23.9926 9.17023 22.8532 9.17023 22.1485 9.57721Z" fill="white"/>
<path d="M23.412 11.452C22.9333 11.452 22.4555 11.3467 22.0923 11.1357C21.7238 10.9214 21.5212 10.6305 21.5215 10.3169C21.5218 10.0012 21.728 9.70852 22.1014 9.49273C22.8316 9.07073 24.0171 9.07073 24.7435 9.49303C25.1123 9.70763 25.3152 9.99846 25.3149 10.3121C25.3146 10.6278 25.1084 10.9202 24.7351 11.1357C24.3698 11.3464 23.8908 11.452 23.412 11.452ZM23.4241 9.36847C22.9808 9.36847 22.5377 9.46602 22.1992 9.66141C21.8886 9.84089 21.7172 10.0738 21.7169 10.3172C21.7166 10.5585 21.8846 10.789 22.1908 10.967C22.8628 11.3578 23.9613 11.3572 24.6378 10.9667C24.9484 10.7872 25.1198 10.5546 25.1201 10.3115C25.1204 10.0702 24.9518 9.83939 24.6453 9.66141C24.3092 9.46602 23.8668 9.36847 23.4241 9.36847Z" fill="#DBDEE4"/>
<path d="M23.4136 10.7792C23.6885 10.7792 23.9544 10.7165 24.1432 10.6076C24.2948 10.5199 24.3821 10.4125 24.3821 10.3122C24.3821 10.2135 24.2969 10.1069 24.148 10.0205C23.9607 9.91155 23.6957 9.84912 23.4214 9.84912C23.1467 9.84912 22.8811 9.91155 22.6923 10.0208C22.5405 10.1084 22.4534 10.2162 22.4531 10.3164C22.4528 10.4152 22.5384 10.5214 22.6872 10.6082C22.8745 10.7168 23.1392 10.7792 23.4136 10.7792Z" fill="#FFBE2E"/>
<path d="M17.9202 13.7637C18.2153 13.7637 18.501 13.6965 18.7039 13.5794C18.8669 13.4852 18.9602 13.3696 18.9605 13.2625C18.9605 13.1562 18.869 13.0422 18.709 12.9491C18.5079 12.8321 18.2234 12.7651 17.9286 12.7651C17.6339 12.7651 17.3485 12.8324 17.1456 12.9494C16.9826 13.0437 16.889 13.1592 16.8887 13.267C16.8884 13.3732 16.9802 13.4873 17.1399 13.58C17.341 13.6968 17.6252 13.7637 17.9202 13.7637Z" fill="#373B42"/>
<path d="M10.7793 29.8803C10.7625 29.8803 10.7457 29.8761 10.73 29.8671L1.83218 24.6954C1.6668 24.5994 1.56836 24.428 1.56836 24.2365C1.56836 24.045 1.6677 23.8734 1.83338 23.7776L10.7931 18.6045C10.8384 18.5774 10.8984 18.5934 10.9263 18.6402C10.953 18.6867 10.9368 18.7464 10.8906 18.7731L1.93093 23.9463C1.82618 24.0069 1.76345 24.1153 1.76345 24.2365C1.76345 24.3575 1.82588 24.4658 1.93033 24.5265L10.8288 29.6981C10.8753 29.7251 10.8909 29.7849 10.8639 29.8314C10.8456 29.8629 10.8129 29.8803 10.7793 29.8803Z" fill="#DBDEE4"/>
<path d="M91.8792 94.8594C91.8624 94.8594 91.8456 94.8552 91.83 94.8461L82.8496 89.6268C82.5324 89.4425 82.1377 89.4413 81.8189 89.6253L72.777 94.8458C72.7314 94.8726 72.6708 94.857 72.6437 94.8101C72.617 94.7636 72.6332 94.7039 72.6795 94.6772L81.7214 89.4563C82.1002 89.2378 82.5699 89.2387 82.9478 89.4581L91.9282 94.6775C91.9747 94.7045 91.9903 94.7642 91.9633 94.8107C91.9456 94.8422 91.9129 94.8594 91.8792 94.8594Z" fill="#DBDEE4"/>
<path d="M87.9872 68.0701C87.9536 68.0701 87.9209 68.0527 87.9026 68.0215C87.8759 67.975 87.8921 67.9153 87.9383 67.8883L98.2447 61.9455C98.3341 61.8939 98.3879 61.8015 98.3879 61.6985C98.3879 61.5953 98.3344 61.5025 98.245 61.4509L83.535 52.9261C83.4882 52.8991 83.4725 52.8394 83.4996 52.7929C83.5263 52.7457 83.5863 52.7304 83.6325 52.7574L98.3425 61.2822C98.4929 61.3693 98.583 61.525 98.583 61.6988C98.5827 61.8726 98.4926 62.0281 98.3422 62.1148L88.0358 68.0575C88.0208 68.0659 88.004 68.0701 87.9872 68.0701Z" fill="#DBDEE4"/>
<path d="M89.9276 68.122C90.629 67.7184 90.6332 67.0632 89.9363 66.6592C89.2393 66.2555 88.1048 66.2555 87.4034 66.6595C86.702 67.0632 86.6984 67.7181 87.3956 68.1217C88.0922 68.5257 89.2258 68.5257 89.9276 68.122Z" fill="white"/>
<path d="M88.6584 68.5204C88.1821 68.5204 87.7061 68.4156 87.3448 68.2061C86.9774 67.9933 86.7751 67.7046 86.7754 67.3927C86.7763 67.0794 86.981 66.7889 87.3526 66.5749C88.0801 66.1562 89.2596 66.1559 89.983 66.5749C90.3503 66.7874 90.5523 67.0764 90.5517 67.3879C90.5514 67.7016 90.3464 67.9921 89.9746 68.2064C89.6111 68.4156 89.1342 68.5204 88.6584 68.5204ZM88.6702 66.453C88.229 66.453 87.7871 66.55 87.4501 66.7441C87.1413 66.9218 86.9708 67.1526 86.9705 67.3933C86.9705 67.6323 87.138 67.8613 87.4423 68.0374C88.1116 68.4252 89.2041 68.4252 89.8773 68.0374C90.1864 67.8598 90.3569 67.6287 90.3569 67.3876C90.3572 67.1487 90.1898 66.9197 89.8854 66.7436C89.5514 66.5497 89.1108 66.453 88.6702 66.453Z" fill="#DBDEE4"/>
<path d="M88.6688 66.9291C88.3954 66.9291 88.1307 66.9913 87.9428 67.0996C87.7918 67.1864 87.7051 67.2932 87.7051 67.3926C87.7051 67.4907 87.79 67.596 87.9383 67.6819C88.1247 67.7899 88.3882 67.8518 88.6616 67.8518C88.9347 67.8518 89.1995 67.7896 89.387 67.6816C89.5383 67.5945 89.6251 67.4877 89.6251 67.3883C89.6251 67.2902 89.5404 67.1849 89.3921 67.099C89.2058 66.991 88.9422 66.9291 88.6688 66.9291Z" fill="#FFBE2E"/>
<path d="M94.1875 63.8321C93.8937 63.8321 93.6094 63.8987 93.4078 64.0149C93.2457 64.1082 93.1526 64.2229 93.1523 64.3294C93.1523 64.4348 93.2436 64.5479 93.4027 64.6404C93.6028 64.7565 93.8859 64.8228 94.1794 64.8228C94.4729 64.8228 94.7569 64.7562 94.9586 64.6401C95.1209 64.5467 95.214 64.4318 95.2143 64.3252C95.2143 64.2199 95.1233 64.1067 94.9643 64.0146C94.7638 63.8984 94.4808 63.8321 94.1875 63.8321Z" fill="#373B42"/>
<path d="M24.6617 95.7606C24.6281 95.7606 24.5954 95.7432 24.5777 95.712C24.5507 95.6655 24.5663 95.6057 24.6128 95.5787L39.1572 87.1371C39.2037 87.1101 39.2634 87.1254 39.2904 87.1725C39.3174 87.219 39.3018 87.2787 39.2553 87.3057L24.711 95.7474C24.6953 95.7564 24.6785 95.7606 24.6617 95.7606Z" fill="#DBDEE4"/>
<path d="M26.3448 95.8615C27.0498 95.4545 27.0538 94.7942 26.3535 94.3872C25.6533 93.9802 24.5134 93.9805 23.8084 94.3875C23.1033 94.7945 23.1 95.4545 23.8003 95.8615C24.5005 96.2684 25.6398 96.2684 26.3448 95.8615Z" fill="white"/>
<path d="M25.0709 96.2623C24.5927 96.2623 24.1143 96.157 23.7512 95.9457C23.3823 95.7311 23.1791 95.4403 23.1797 95.1266C23.18 94.8109 23.3862 94.5185 23.7596 94.303C24.4907 93.8807 25.6759 93.881 26.4026 94.3027C26.7711 94.517 26.9737 94.8079 26.9734 95.1215C26.9731 95.4373 26.7669 95.7299 26.3936 95.9457C26.0283 96.157 25.5493 96.2623 25.0709 96.2623ZM25.0826 94.1788C24.6393 94.1788 24.1954 94.2763 23.8568 94.472C23.5462 94.6515 23.3748 94.8841 23.3745 95.1272C23.3742 95.3685 23.5429 95.5993 23.8493 95.7773C24.5222 96.1684 25.6189 96.1681 26.2957 95.7776C26.6064 95.5981 26.7777 95.3652 26.778 95.1218C26.7783 94.8805 26.6103 94.65 26.3041 94.472C25.9683 94.2763 25.5256 94.1788 25.0826 94.1788Z" fill="#DBDEE4"/>
<path d="M25.0799 94.6595C24.8049 94.6595 24.539 94.7219 24.3502 94.8312C24.1987 94.9188 24.1113 95.0263 24.1113 95.1262C24.111 95.2249 24.1966 95.3312 24.3454 95.4179C24.5327 95.5269 24.7977 95.5893 25.0721 95.5893C25.3467 95.5893 25.6123 95.5269 25.8011 95.4176C25.953 95.33 26.04 95.2222 26.0403 95.122C26.0403 95.0233 25.9551 94.917 25.8062 94.8303C25.6192 94.7219 25.3545 94.6595 25.0799 94.6595Z" fill="#FFBE2E"/>
<path d="M30.5715 91.675C30.2765 91.675 29.9908 91.7422 29.7879 91.8593C29.6249 91.9532 29.5313 92.0688 29.5313 92.1762C29.531 92.2825 29.6228 92.3965 29.7828 92.4896C29.9839 92.6066 30.2684 92.6735 30.5631 92.6735C30.8579 92.6735 31.1433 92.6063 31.3462 92.4893C31.5092 92.395 31.6028 92.2795 31.6031 92.172C31.6034 92.0658 31.5116 91.9517 31.3519 91.859C31.1508 91.7419 30.8663 91.675 30.5715 91.675Z" fill="#373B42"/>
<path d="M11.5472 77.8805C11.5303 77.8805 11.5135 77.8763 11.4985 77.8676L1.34099 72.0104C1.145 71.8973 1.02764 71.6947 1.02734 71.4684C1.02704 71.2418 1.1438 71.0386 1.33979 70.9251L13.8087 63.6993C13.854 63.6723 13.9146 63.6876 13.9417 63.7347C13.9687 63.7813 13.9531 63.841 13.9062 63.868L1.43703 71.0935C1.30227 71.1718 1.22153 71.312 1.22183 71.4681C1.22213 71.6242 1.30287 71.7634 1.43823 71.8415L11.5958 77.6986C11.6423 77.7256 11.6582 77.7854 11.6315 77.8319C11.6135 77.8631 11.5808 77.8805 11.5472 77.8805Z" fill="#DBDEE4"/>
<path d="M9.59473 77.9331C8.88851 77.5267 8.8846 76.8673 9.58602 76.4609C10.2874 76.0545 11.4292 76.0548 12.1354 76.4612C12.8413 76.8676 12.8449 77.5267 12.1435 77.9331C11.4421 78.3392 10.301 78.3395 9.59473 77.9331Z" fill="white"/>
<path d="M10.8701 78.3331C10.3911 78.3331 9.91178 78.2278 9.54591 78.0174C9.17164 77.8019 8.96514 77.5095 8.96484 77.1941C8.96454 76.8807 9.16744 76.5905 9.5372 76.3762C10.2644 75.9545 11.4512 75.9548 12.1838 76.3762C12.5578 76.5914 12.764 76.8837 12.7646 77.1992C12.7649 77.5125 12.5617 77.8031 12.1919 78.0171C11.8282 78.2275 11.3497 78.3331 10.8701 78.3331ZM10.8584 76.2523C10.4145 76.2523 9.9715 76.3498 9.63475 76.5449C9.32831 76.7226 9.15963 76.9531 9.15993 77.1938C9.16023 77.4366 9.33191 77.6689 9.64345 77.8481C10.3218 78.2386 11.4209 78.2383 12.0944 77.8481C12.4011 77.6704 12.5701 77.4399 12.5695 77.1992C12.5692 76.9567 12.3978 76.7244 12.0863 76.5452C11.7471 76.3498 11.3023 76.2523 10.8584 76.2523Z" fill="#DBDEE4"/>
<path d="M10.8626 76.7324C11.1379 76.7324 11.4044 76.7948 11.5935 76.9038C11.7453 76.9911 11.8327 77.0986 11.8327 77.1985C11.833 77.2973 11.7474 77.4035 11.598 77.49C11.4104 77.5986 11.1451 77.661 10.8701 77.661C10.5952 77.661 10.329 77.5986 10.1399 77.4897C9.98773 77.402 9.90039 77.2946 9.90039 77.1946C9.90009 77.0959 9.98563 76.9899 10.1348 76.9035C10.3224 76.7948 10.5877 76.7324 10.8626 76.7324Z" fill="#FFBE2E"/>
<path d="M5.30711 73.6152C5.60275 73.6152 5.88878 73.6825 6.09197 73.7992C6.25524 73.8932 6.34889 74.0084 6.34889 74.1159C6.34889 74.2218 6.25704 74.3359 6.09677 74.4289C5.89508 74.5457 5.61025 74.6126 5.31491 74.6126C5.01958 74.6126 4.73355 74.5457 4.53066 74.4286C4.36738 74.3347 4.27344 74.2191 4.27344 74.1117C4.27344 74.0057 4.36498 73.8917 4.52525 73.7989C4.72694 73.6822 5.01178 73.6152 5.30711 73.6152Z" fill="#373B42"/>
<g opacity="0.1">
<path d="M78.9605 77.9094L46.9845 96.0881L27.9375 85.1817L59.9135 66.9985L78.9605 77.9094Z" fill="#373B42"/>
</g>
<g opacity="0.1">
<path d="M48.9238 34.1639L58.6921 28.4874L68.4604 34.1639L58.6921 39.8407L48.9238 34.1639Z" fill="#373B42"/>
</g>
<g opacity="0.1">
<path d="M39.731 39.8869C40.6677 39.3461 42.1846 39.3461 43.1127 39.8854L55.9102 47.2745C56.8409 47.8153 56.8361 48.6938 55.8991 49.2347L16.9722 71.7092C16.0355 72.2501 14.5186 72.2501 13.5879 71.7092L0.790314 64.3202C-0.13801 63.7808 -0.132906 62.902 0.803822 62.3612L39.731 39.8869Z" fill="#373B42"/>
</g>
<g opacity="0.1">
<path d="M99.2059 52.2374C100.143 52.7782 100.148 53.6567 99.2194 54.1964L86.4219 61.5855C85.4911 62.1263 83.9745 62.1263 83.0375 61.5855L58.0418 47.2338C57.1051 46.693 57.1 45.8145 58.0307 45.2736L70.8282 37.8842C71.7566 37.3449 73.2732 37.3449 74.2099 37.8857L99.2059 52.2374Z" fill="#373B42"/>
</g>
<path d="M48.9238 21.7352V33.0341L58.6921 38.7106V27.4117L48.9238 21.7352Z" fill="#FFBE2E"/>
<path d="M58.6917 38.8081C58.6749 38.8081 58.6578 38.8036 58.6425 38.7949L48.8745 33.1181C48.8448 33.1006 48.8262 33.0682 48.8262 33.0337V21.7348C48.8262 21.6999 48.8448 21.6678 48.8748 21.6501C48.9054 21.633 48.9423 21.6327 48.9726 21.6504L58.7406 27.3269C58.7703 27.3443 58.7889 27.3767 58.7889 27.4112V38.7105C58.7889 38.7453 58.7703 38.7774 58.7403 38.7951C58.7253 38.8039 58.7085 38.8081 58.6917 38.8081ZM49.021 32.9779L58.5941 38.5412V27.4677L49.021 21.9043V32.9779Z" fill="#373B42"/>
<path d="M68.4616 21.7354V33.0343L58.6934 38.7108V27.4118L68.4616 21.7354Z" fill="#FFBE2E"/>
<path d="M58.6929 38.8079C58.6761 38.8079 58.6593 38.8034 58.6443 38.795C58.6143 38.7776 58.5957 38.7452 58.5957 38.7104V27.4111C58.5957 27.3766 58.6143 27.3442 58.644 27.3268L68.412 21.6503C68.4426 21.6329 68.4792 21.6329 68.5098 21.65C68.5399 21.6674 68.5585 21.6995 68.5585 21.7346V33.0336C68.5585 33.0681 68.5399 33.1005 68.5101 33.1179L58.7422 38.7947C58.7269 38.8037 58.7098 38.8079 58.6929 38.8079ZM58.7905 27.4676V38.5411L68.3637 32.9778V21.9045L58.7905 27.4676Z" fill="#373B42"/>
<path d="M48.9238 21.7351L58.6921 16.0583L68.4604 21.7351L58.6921 27.4116L48.9238 21.7351Z" fill="#FFF7E4"/>
<path d="M58.6917 27.5094C58.6749 27.5094 58.6578 27.5049 58.6425 27.4961L48.8745 21.8197C48.8448 21.8022 48.8262 21.7698 48.8262 21.7353C48.8262 21.7005 48.8448 21.6684 48.8745 21.651L58.6425 15.9745C58.6731 15.9571 58.7103 15.9571 58.7406 15.9745L68.5086 21.651C68.5383 21.6684 68.5569 21.7005 68.5569 21.7353C68.5569 21.7698 68.5383 21.8022 68.5086 21.8197L58.7406 27.4961C58.7256 27.5049 58.7085 27.5094 58.6917 27.5094ZM49.1173 21.7353L58.6917 27.2993L68.2661 21.7353L58.6917 16.1714L49.1173 21.7353Z" fill="#373B42"/>
<path d="M78.8557 24.3977C79.4241 24.0694 79.8881 24.3323 79.8902 24.9857L79.9286 38.5711C79.9304 39.2245 79.4694 40.0229 78.901 40.3512L64.9914 48.3766C64.423 48.705 63.9601 48.4396 63.9583 47.7862L63.9199 34.2008C63.9181 33.5474 64.3776 32.7512 64.9464 32.4231L78.8557 24.3977Z" fill="#FFF7E4"/>
<path d="M64.53 48.6153C64.415 48.6153 64.3076 48.588 64.2125 48.5333C63.9868 48.4034 63.8619 48.1381 63.8607 47.7863L63.8223 34.2009C63.8205 33.5175 64.3025 32.6819 64.8971 32.3385L78.8066 24.3132C79.1152 24.1355 79.4093 24.1097 79.6362 24.2405C79.8616 24.3702 79.9862 24.6349 79.9874 24.9855L80.0258 38.5709C80.0276 39.2549 79.545 40.0914 78.9495 40.4353L65.0399 48.4607C64.8619 48.5634 64.6885 48.6153 64.53 48.6153ZM79.3178 24.3531C79.1929 24.3531 79.0524 24.3963 78.9042 24.4815L64.9946 32.5069C64.4541 32.8194 64.0153 33.579 64.0171 34.2003L64.0555 47.7857C64.0564 48.0648 64.1464 48.2701 64.3094 48.3641C64.4748 48.4586 64.699 48.4325 64.9421 48.292L78.8516 40.2667C79.3931 39.9536 79.8325 39.1931 79.8307 38.5712L79.7923 24.9858C79.7914 24.7075 79.7013 24.5029 79.5387 24.4092C79.4738 24.3717 79.3991 24.3531 79.3178 24.3531Z" fill="#373B42"/>
<path d="M76.6634 22.6252C76.4746 22.5172 76.215 22.5319 75.9287 22.6979L62.0188 30.7223C61.7316 30.888 61.4732 31.1731 61.2871 31.4991L64.2173 33.1903C64.4034 32.868 64.661 32.5862 64.9458 32.4223L78.8535 24.3978C79.1399 24.2319 79.4016 24.2171 79.5883 24.3252L76.6634 22.6252Z" fill="#212121"/>
<path d="M64.2167 33.2879C64.1999 33.2879 64.1831 33.2837 64.1681 33.2747L61.2381 31.5834C61.1916 31.5567 61.1757 31.4973 61.2024 31.4508C61.4053 31.0948 61.6775 30.8061 61.9696 30.638L75.8797 22.6138C76.1871 22.4355 76.4827 22.41 76.7117 22.5409C76.7117 22.5409 76.712 22.5412 76.7126 22.5412L79.6365 24.2412L79.6368 24.2415H79.6371C79.6837 24.2685 79.6993 24.3282 79.6725 24.3747C79.6446 24.4213 79.5846 24.4369 79.5393 24.4101C79.3763 24.3162 79.1437 24.3426 78.9018 24.4828L64.994 32.5072C64.7335 32.6576 64.4877 32.9178 64.3013 33.2399C64.283 33.2702 64.2503 33.2879 64.2167 33.2879ZM61.4212 31.464L64.1825 33.058C64.3791 32.745 64.63 32.4913 64.8965 32.3377L78.8042 24.3135C78.918 24.2475 79.0324 24.2025 79.1419 24.179L76.6145 22.7096C76.447 22.6147 76.221 22.6405 75.9776 22.7822L62.0671 30.8067C61.827 30.9447 61.6004 31.1764 61.4212 31.464Z" fill="#373B42"/>
<path d="M60.9941 32.5014L61.0314 46.085C61.0335 46.4109 61.1475 46.639 61.3324 46.7471L64.2593 48.4471C64.0748 48.339 63.9583 48.1109 63.9583 47.7871L63.919 34.2013C63.9178 33.8748 64.0324 33.5125 64.2182 33.1908L61.288 31.4995C61.1055 31.8189 60.9932 32.1775 60.9941 32.5014Z" fill="#FFF7E4"/>
<path d="M64.2592 48.5444C64.2424 48.5444 64.2256 48.5402 64.21 48.5312L61.2834 46.8313C61.0604 46.7007 60.9361 46.436 60.9337 46.0854L60.8965 32.5012C60.8956 32.1717 61.0045 31.7986 61.2035 31.4504C61.2161 31.4279 61.2374 31.4114 61.2627 31.4048C61.2885 31.3979 61.3152 31.4015 61.3368 31.4144L64.2667 33.1057C64.3133 33.1324 64.3292 33.1921 64.3024 33.2387C64.117 33.5595 64.0152 33.9011 64.0161 34.2003L64.0557 47.786C64.0557 48.0624 64.1455 48.2668 64.3082 48.362C64.3547 48.3893 64.3703 48.4487 64.3433 48.4952C64.3256 48.527 64.2928 48.5444 64.2592 48.5444ZM61.0916 32.5009L61.1288 46.0845C61.1306 46.363 61.2206 46.5683 61.3815 46.6626L63.9087 48.1306C63.8771 48.0285 63.8606 47.9133 63.8606 47.7866L63.821 34.2012C63.8204 33.8948 63.9141 33.5523 64.086 33.2266L61.3254 31.6332C61.1738 31.9265 61.091 32.2314 61.0916 32.5009Z" fill="#373B42"/>
<path d="M65.2656 43.3077L65.2755 46.795L81.5976 56.283L81.5877 52.7957L65.2656 43.3077Z" fill="#FFF7E4"/>
<path d="M81.5972 56.3803C81.5804 56.3803 81.5633 56.3758 81.548 56.3671L65.2262 46.8792C65.1965 46.8618 65.1779 46.8296 65.1779 46.7951L65.168 43.3078C65.168 43.273 65.1866 43.2406 65.2166 43.2232C65.2472 43.2058 65.2841 43.2058 65.3144 43.2232L81.6362 52.7111C81.6659 52.7285 81.6845 52.7607 81.6845 52.7952L81.6944 56.2825C81.6944 56.3173 81.6758 56.3497 81.6458 56.3671C81.6305 56.3758 81.6137 56.3803 81.5972 56.3803ZM65.3727 46.7387L81.499 56.1132L81.4894 52.8519L65.3631 43.4774L65.3727 46.7387Z" fill="#373B42"/>
<path d="M81.5879 52.7955L81.5978 56.2828L99.5088 45.9473L99.4989 42.46L81.5879 52.7955Z" fill="#FFBE2E"/>
<path d="M81.5974 56.3802C81.5806 56.3802 81.5638 56.3757 81.5488 56.3673C81.5187 56.3498 81.5001 56.3177 81.5001 56.2829L81.4902 52.7956C81.4902 52.7608 81.5088 52.7284 81.5389 52.711L99.4498 42.3755C99.4805 42.3581 99.5168 42.3581 99.5474 42.3752C99.5774 42.3926 99.596 42.4247 99.596 42.4595L99.6059 45.9468C99.6059 45.9816 99.5873 46.014 99.5573 46.0314L81.6463 56.367C81.6307 56.3757 81.6139 56.3802 81.5974 56.3802ZM81.6847 52.8514L81.6943 56.1139L99.4108 45.8907L99.4012 42.6282L81.6847 52.8514Z" fill="#373B42"/>
<path d="M65.2656 43.3076L81.5877 52.7955L99.4987 42.46L83.1769 32.972L65.2656 43.3076Z" fill="#FFBE2E"/>
<path d="M81.5873 52.893C81.5705 52.893 81.5534 52.8888 81.5381 52.8798L65.2163 43.3918C65.1863 43.3744 65.168 43.342 65.168 43.3072C65.168 43.2727 65.1866 43.2403 65.2166 43.2232L83.1276 32.8876C83.1582 32.8702 83.1951 32.8702 83.2254 32.8876L99.5472 42.3756C99.5772 42.393 99.5955 42.4254 99.5955 42.4602C99.5955 42.4947 99.5769 42.5271 99.5469 42.5442L81.6359 52.8798C81.6206 52.8888 81.6038 52.893 81.5873 52.893ZM65.46 43.3078L81.5873 52.6829L99.3038 42.4596L83.1765 33.0845L65.46 43.3078Z" fill="#373B42"/>
<path d="M65.2559 39.8207L65.2658 43.308L81.5878 52.796L81.5779 49.309L65.2559 39.8207Z" fill="#FFBE2E"/>
<path d="M81.5874 52.8933C81.5706 52.8933 81.5535 52.8891 81.5382 52.88L65.2164 43.3921C65.1867 43.3747 65.1681 43.3426 65.1681 43.3081L65.1582 39.8208C65.1582 39.786 65.1768 39.7535 65.2068 39.7361C65.2374 39.7187 65.2744 39.7187 65.3047 39.7361L81.6264 49.2241C81.6561 49.2415 81.6748 49.2736 81.6748 49.3081L81.6847 52.7954C81.6847 52.8302 81.666 52.8626 81.636 52.88C81.6207 52.8891 81.6039 52.8933 81.5874 52.8933ZM65.3629 43.2516L81.4893 52.6261L81.4797 49.3648L65.3533 39.9904L65.3629 43.2516Z" fill="#373B42"/>
<path d="M81.5781 49.3084L81.588 52.7954L99.499 42.4599L99.4891 38.9726L81.5781 49.3084Z" fill="#FFBE2E"/>
<path d="M81.5876 52.8932C81.5708 52.8932 81.554 52.889 81.539 52.8803C81.509 52.8629 81.4904 52.8308 81.4904 52.796L81.4805 49.3087C81.4805 49.2739 81.4991 49.2415 81.5291 49.224L99.4401 38.8885C99.4707 38.8711 99.507 38.8711 99.5376 38.8882C99.5676 38.9056 99.5862 38.9377 99.5862 38.9726L99.5961 42.4599C99.5961 42.4947 99.5775 42.5271 99.5475 42.5445L81.6365 52.88C81.6209 52.889 81.6041 52.8932 81.5876 52.8932ZM81.675 49.3648L81.6846 52.6273L99.4011 42.404L99.3915 39.1415L81.675 49.3648Z" fill="#373B42"/>
<path d="M65.2559 39.8206L81.5779 49.3088L99.4889 38.973L83.1671 29.485L65.2559 39.8206Z" fill="#FFF7E4"/>
<path d="M81.5775 49.4058C81.5607 49.4058 81.5436 49.4013 81.5283 49.3926L65.2065 39.9046C65.1765 39.8872 65.1582 39.8551 65.1582 39.82C65.1582 39.7855 65.1768 39.7531 65.2068 39.736L83.1178 29.4004C83.1484 29.383 83.1853 29.383 83.2157 29.4004L99.5374 38.8884C99.5674 38.9058 99.5857 38.9379 99.5857 38.973C99.5857 39.0078 99.5671 39.04 99.5371 39.0571L81.6261 49.3926C81.6108 49.4016 81.5943 49.4058 81.5775 49.4058ZM65.4502 39.8209L81.5775 49.196L99.294 38.9727L83.1667 29.5976L65.4502 39.8209Z" fill="#373B42"/>
<path d="M77.9083 15.8575C77.3384 15.5285 76.8759 15.792 76.8738 16.4454L76.832 33.1424L93.2786 42.5895L93.3204 25.8926C93.3222 25.2392 92.8627 24.4429 92.2927 24.1139L77.9083 15.8575Z" fill="#FFBE2E"/>
<path d="M93.2782 42.687C93.2614 42.687 93.2446 42.6828 93.2296 42.6741L76.783 33.227C76.753 33.2096 76.7344 33.1772 76.7344 33.1424L76.7764 16.4454C76.7776 16.0943 76.9022 15.8299 77.1276 15.7002C77.3542 15.5699 77.6489 15.5951 77.9568 15.7734L92.3412 24.0299C92.937 24.3739 93.4199 25.21 93.4181 25.8932L93.3764 42.5901C93.3764 42.6249 93.3578 42.657 93.3278 42.6741C93.3119 42.6825 93.295 42.687 93.2782 42.687ZM76.9292 33.0859L93.1813 42.4214L93.2227 25.8923C93.2245 25.271 92.7851 24.511 92.2437 24.1983L77.8596 15.9421L77.8593 15.9418C77.6138 15.8004 77.389 15.7737 77.2242 15.8689C77.0615 15.9625 76.9718 16.1672 76.9709 16.4454L76.9292 33.0859Z" fill="#373B42"/>
<path d="M96.2456 24.1916L96.2042 40.8888L93.2775 42.5888L93.319 25.8937C93.3199 25.5881 93.2175 25.2523 93.0527 24.9467L95.9794 23.2462C96.1438 23.5514 96.2465 23.8869 96.2456 24.1916Z" fill="#FFF7E4"/>
<path d="M93.2769 42.6864C93.2601 42.6864 93.2433 42.6819 93.2283 42.6732C93.1983 42.6558 93.1797 42.6237 93.1797 42.5885L93.2211 25.8934C93.2223 25.6188 93.1317 25.2988 92.9669 24.9927C92.9417 24.9465 92.9582 24.8885 93.0035 24.8621L95.9301 23.1616C95.953 23.1483 95.9812 23.145 96.0055 23.152C96.031 23.1592 96.0523 23.1763 96.0649 23.1997C96.245 23.5334 96.344 23.8858 96.3431 24.1916L96.3017 40.8889C96.3017 40.9234 96.2831 40.9555 96.2534 40.9729L93.3265 42.6729C93.3108 42.6822 93.2937 42.6864 93.2769 42.6864ZM93.1812 24.9843C93.334 25.2934 93.4168 25.6131 93.4156 25.894L93.3745 42.4193L96.106 40.8327L96.1474 24.1916C96.1483 23.944 96.0745 23.6598 95.9388 23.3822L93.1812 24.9843Z" fill="#373B42"/>
<path d="M80.1003 14.0857C80.287 13.9756 80.5487 13.9924 80.835 14.1563L95.2194 22.4148C95.5232 22.5895 95.7927 22.8981 95.9806 23.2459L93.0539 24.9465C92.866 24.5983 92.5968 24.2892 92.2928 24.1145L77.9084 15.8583C77.6221 15.6924 77.3625 15.6756 77.1758 15.7857L80.1003 14.0857Z" fill="#212121"/>
<path d="M93.0523 25.0442C93.0436 25.0442 93.0343 25.043 93.0256 25.0406C93.0004 25.0334 92.9791 25.0163 92.9665 24.9932C92.7789 24.6456 92.5153 24.3563 92.2422 24.1996L77.8582 15.9431C77.6135 15.8015 77.3905 15.7747 77.2279 15.8675L77.2228 15.8705C77.1759 15.8972 77.1165 15.8816 77.0895 15.8354C77.0625 15.7888 77.0778 15.7294 77.124 15.7021C77.1264 15.7006 77.1285 15.6994 77.1309 15.6982L80.0491 14.0018C80.2755 13.8695 80.5708 13.8944 80.8814 14.0724L95.2655 22.3306C95.5735 22.5074 95.8568 22.8163 96.0639 23.2001C96.0891 23.2464 96.0726 23.3043 96.0273 23.3307L93.1006 25.0313C93.0862 25.0397 93.0694 25.0442 93.0523 25.0442ZM77.6219 15.6382C77.7294 15.6625 77.8413 15.7078 77.9554 15.7738L92.3395 24.03C92.6234 24.1933 92.8869 24.4688 93.0889 24.8125L95.8469 23.2097C95.6632 22.8991 95.4201 22.6431 95.1692 22.499L80.7854 14.2407C80.5411 14.1009 80.3088 14.0754 80.1485 14.1696C80.1482 14.1699 80.1482 14.1699 80.1482 14.1699L77.6219 15.6382Z" fill="#373B42"/>
<path d="M98.84 36.0052C99.4085 35.6769 99.8725 35.9398 99.8746 36.5932L99.913 50.1786C99.9148 50.832 99.4538 51.6304 98.8854 51.9587L84.9758 59.9841C84.4073 60.3124 83.9445 60.0471 83.9427 59.3937L83.9043 45.8083C83.9025 45.1549 84.3623 44.3586 84.9308 44.0306L98.84 36.0052Z" fill="#FFF7E4"/>
<path d="M84.5144 60.2229C84.3994 60.2229 84.292 60.1956 84.1968 60.141C83.9711 60.011 83.8463 59.7457 83.8451 59.3943L83.8066 45.8089C83.8048 45.1254 84.2869 44.2899 84.8814 43.9465L98.791 35.9211C99.0995 35.7435 99.3934 35.7176 99.6206 35.8485C99.846 35.9782 99.9705 36.2426 99.9717 36.5934L100.01 50.1789C100.012 50.8632 99.5293 51.6997 98.9339 52.0433L85.0243 60.0687C84.8466 60.171 84.6728 60.2229 84.5144 60.2229ZM99.3021 35.9611C99.1773 35.9611 99.0368 36.0043 98.8885 36.0895L84.979 44.1149C84.4384 44.427 83.9996 45.1867 84.0014 45.8083L84.0398 59.3937C84.0407 59.6728 84.1308 59.8781 84.2938 59.9717C84.4582 60.066 84.683 60.0402 84.9265 59.8997L98.836 51.8743C99.3775 51.5616 99.8169 50.801 99.8151 50.1789L99.7766 36.5934C99.7757 36.3155 99.6857 36.1108 99.523 36.0172C99.4582 35.9797 99.3835 35.9611 99.3021 35.9611Z" fill="#373B42"/>
<path d="M96.6478 34.2326C96.459 34.1246 96.1994 34.1393 95.9131 34.3053L82.0032 42.3297C81.716 42.4954 81.4576 42.7806 81.2715 43.1065L84.2017 44.7978C84.3878 44.4754 84.6453 44.1936 84.9299 44.0294L98.8376 36.005C99.1239 35.839 99.3857 35.8243 99.5724 35.9323L96.6478 34.2326Z" fill="#212121"/>
<path d="M84.203 44.8955C84.1862 44.8955 84.1694 44.8913 84.1544 44.8823L81.2245 43.191C81.1779 43.1643 81.162 43.1049 81.1887 43.0584C81.3913 42.7024 81.6638 42.4137 81.9559 42.2453L95.866 34.2208C96.1728 34.0425 96.469 34.017 96.698 34.1476C96.698 34.1476 96.6983 34.1479 96.6989 34.1479L99.6229 35.8479L99.6232 35.8482H99.6235C99.67 35.8752 99.6856 35.9349 99.6589 35.9814C99.631 36.0279 99.5712 36.0436 99.5256 36.0168C99.3626 35.9229 99.1306 35.949 98.8881 36.0895L84.9804 44.1139C84.7196 44.2643 84.4734 44.5245 84.2877 44.8466C84.2693 44.8781 84.2366 44.8955 84.203 44.8955ZM81.4075 43.0719L84.1688 44.6659C84.3654 44.3529 84.6163 44.0992 84.8828 43.9456L98.7906 35.9214C98.9043 35.8551 99.0187 35.8103 99.1282 35.7866L96.6011 34.3175C96.4339 34.2226 96.2082 34.2484 95.9633 34.3901L82.0531 42.4146C81.8133 42.5526 81.587 42.784 81.4075 43.0719Z" fill="#373B42"/>
<path d="M80.9785 44.1091L81.016 57.6927C81.0181 58.0187 81.1322 58.2468 81.3171 58.3548L84.2437 60.0548C84.0588 59.9467 83.9427 59.7186 83.9427 59.3948L83.9034 45.8091C83.9025 45.4825 84.0168 45.1203 84.2026 44.7985L81.2724 43.1072C81.0899 43.4266 80.9776 43.7853 80.9785 44.1091Z" fill="#FFF7E4"/>
<path d="M84.2436 60.1521C84.2268 60.1521 84.21 60.1479 84.1944 60.1389L81.2677 58.4389C81.0447 58.3087 80.9205 58.0439 80.9181 57.6931L80.8809 44.1092C80.8797 43.7805 80.9886 43.4072 81.1876 43.0584C81.2002 43.0359 81.2215 43.0194 81.2467 43.0128C81.2725 43.0062 81.2993 43.0095 81.3209 43.0224L84.2508 44.7136C84.2733 44.7266 84.2895 44.7479 84.2961 44.7728C84.303 44.798 84.2994 44.8244 84.2865 44.8469C84.101 45.1678 83.9993 45.5093 84.0002 45.8089L84.0398 59.3946C84.0398 59.6707 84.1293 59.8751 84.2919 59.9702L84.2922 59.9705V59.9708C84.3387 59.9981 84.3544 60.0576 84.3273 60.1041C84.3099 60.1347 84.2772 60.1521 84.2436 60.1521ZM81.3104 43.2412C81.1582 43.5347 81.0754 43.8396 81.0763 44.1083V44.1086L81.1135 57.6922C81.1153 57.971 81.2053 58.1763 81.3662 58.2702L83.8933 59.7382C83.8618 59.6362 83.8453 59.5209 83.8453 59.3943L83.8057 45.8091C83.8048 45.5027 83.8987 45.16 84.0707 44.8346L81.3104 43.2412Z" fill="#373B42"/>
<path d="M37.4773 24.4679C36.9088 24.1395 36.4448 24.4024 36.4427 25.0558L36.4043 38.6412C36.4025 39.2946 36.8635 40.093 37.432 40.4214L51.3415 48.4467C51.91 48.7751 52.3728 48.5098 52.3746 47.8564L52.413 34.2709C52.4148 33.6175 51.9553 32.8216 51.3866 32.4932L37.4773 24.4679Z" fill="#FFF7E4"/>
<path d="M51.8024 48.6856C51.644 48.6856 51.4705 48.634 51.2925 48.5311L37.3829 40.506C36.7875 40.162 36.3045 39.3256 36.3066 38.6413L36.3451 25.0561C36.3463 24.7056 36.4708 24.4409 36.6962 24.3112C36.9234 24.1806 37.2176 24.2062 37.5258 24.3838L51.4354 32.4092C52.0302 32.7526 52.5123 33.5881 52.5102 34.2716L52.4717 47.857C52.4705 48.2087 52.3457 48.474 52.12 48.6037C52.0248 48.6583 51.9177 48.6856 51.8024 48.6856ZM37.015 24.4238C36.9336 24.4238 36.8589 24.4424 36.7938 24.4799C36.6311 24.5735 36.5411 24.7782 36.5402 25.0564L36.5017 38.6419C36.4999 39.2637 36.9393 40.0243 37.4808 40.3373L51.3903 48.3624C51.6344 48.5032 51.8586 48.5287 52.023 48.4347C52.186 48.3408 52.2763 48.1355 52.2769 47.8564L52.3154 34.271C52.3172 33.6497 51.8787 32.89 51.3378 32.5776L37.4283 24.5522C37.2803 24.467 37.1398 24.4238 37.015 24.4238Z" fill="#373B42"/>
<path d="M39.669 22.6955C39.8578 22.5875 40.1174 22.6022 40.4037 22.7682L54.3136 30.7926C54.6008 30.9583 54.8592 31.2434 55.0453 31.5694L52.1151 33.2607C51.929 32.9383 51.6715 32.6565 51.3866 32.4923L37.4789 24.4678C37.1925 24.3019 36.9308 24.2872 36.7441 24.3952L39.669 22.6955Z" fill="#212121"/>
<path d="M52.1154 33.3584C52.0818 33.3584 52.049 33.341 52.0307 33.3098C51.8447 32.9878 51.5985 32.7275 51.338 32.5775L37.4303 24.553C37.1881 24.4128 36.9557 24.3867 36.7928 24.4804C36.7472 24.5071 36.6865 24.4915 36.6595 24.445C36.6328 24.3984 36.6484 24.3387 36.6949 24.3117C36.6949 24.3114 36.6952 24.3114 36.6955 24.3114L39.6195 22.6114C39.6198 22.6114 39.6198 22.6111 39.6204 22.6111C39.8491 22.4803 40.1453 22.5061 40.4523 22.6841L54.3625 30.7085C54.6545 30.8769 54.9268 31.1656 55.1297 31.5213C55.1564 31.5678 55.1405 31.6272 55.0939 31.654L52.164 33.3452C52.149 33.3545 52.1322 33.3584 52.1154 33.3584ZM37.1905 24.2493C37.3006 24.273 37.4144 24.318 37.5281 24.384L51.4359 32.4085C51.7024 32.5619 51.9533 32.8158 52.1499 33.1288L54.9112 31.5348C54.7317 31.2473 54.5054 31.0156 54.2653 30.8775L40.3554 22.8527C40.1111 22.7114 39.8854 22.6849 39.7179 22.7801L37.1905 24.2493Z" fill="#373B42"/>
<path d="M55.3215 32.5824L55.2843 46.166C55.2822 46.492 55.1682 46.7201 54.9833 46.8281L52.0566 48.5281C52.2412 48.4201 52.3577 48.192 52.3577 47.8681L52.3973 34.2824C52.3982 33.9559 52.2838 33.5936 52.0981 33.2718L55.0283 31.5806C55.2102 31.9002 55.3227 32.2589 55.3215 32.5824Z" fill="#FFF7E4"/>
<path d="M52.0563 48.6257C52.0226 48.6257 51.9899 48.6083 51.9722 48.5774C51.9452 48.5309 51.9608 48.4714 52.0073 48.4441V48.4438L52.0076 48.4435C52.1703 48.3484 52.2598 48.144 52.2598 47.8679L52.2994 34.2821C52.3003 33.9826 52.1985 33.6411 52.013 33.3202C52.0001 33.2977 51.9968 33.2713 52.0034 33.2461C52.01 33.2212 52.0262 33.1999 52.0488 33.1869L54.9787 31.4957C55.0009 31.4825 55.027 31.4789 55.0528 31.4861C55.078 31.4927 55.0994 31.5092 55.112 31.5317C55.3112 31.8805 55.4199 32.2535 55.4187 32.5825L55.3815 46.1661C55.3791 46.5172 55.2551 46.782 55.0318 46.9122L52.1052 48.6122C52.0899 48.6215 52.0731 48.6257 52.0563 48.6257ZM52.2291 33.3085C52.4011 33.6339 52.4948 33.9766 52.4942 34.2827L52.4545 47.8685C52.4545 47.9948 52.438 48.1101 52.4065 48.2118L54.9337 46.7438C55.0949 46.6499 55.1846 46.4443 55.1864 46.1652L55.2236 32.5822V32.5819C55.2242 32.3129 55.1417 32.0083 54.9895 31.7148L52.2291 33.3085Z" fill="#373B42"/>
<path d="M51.0663 43.3779L51.0564 46.8652L34.7344 56.3532L34.7443 52.8659L51.0663 43.3779Z" fill="#FFF7E4"/>
<path d="M34.734 56.4509C34.7172 56.4509 34.7003 56.4464 34.6853 56.4377C34.6553 56.4203 34.6367 56.3879 34.6367 56.3531L34.6466 52.8658C34.6466 52.8313 34.6652 52.7992 34.6949 52.7818L51.017 43.2938C51.0476 43.2764 51.0845 43.2764 51.1149 43.2938C51.1449 43.3112 51.1635 43.3433 51.1635 43.3785L51.1536 46.8658C51.1536 46.9006 51.135 46.9324 51.1052 46.9498L34.7832 56.4377C34.7679 56.4464 34.7508 56.4509 34.734 56.4509ZM34.8414 52.9222L34.8318 56.1835L50.9588 46.809L50.9684 43.5474L34.8414 52.9222Z" fill="#373B42"/>
<path d="M51.0761 39.8906L51.0662 43.3779L34.7441 52.8659L34.754 49.3786L51.0761 39.8906Z" fill="#FFBE2E"/>
<path d="M34.7437 52.9636C34.7269 52.9636 34.7101 52.9594 34.6951 52.9504C34.6651 52.933 34.6465 52.9006 34.6465 52.8658L34.6564 49.3785C34.6564 49.344 34.675 49.3119 34.7047 49.2944L51.0268 39.8065C51.0574 39.7891 51.094 39.7891 51.1246 39.8065C51.1546 39.8239 51.1732 39.8563 51.1732 39.8912L51.1633 43.3784C51.1633 43.413 51.1447 43.4451 51.115 43.4625L34.7929 52.9504C34.7776 52.9591 34.7605 52.9636 34.7437 52.9636ZM34.8512 49.4349L34.8416 52.6962L50.9682 43.3217L50.9779 40.0604L34.8512 49.4349Z" fill="#373B42"/>
<path d="M51.0771 39.8907L34.755 49.3786L16.8438 39.0431L33.1658 29.5552L51.0771 39.8907Z" fill="#FFF7E4"/>
<path d="M34.7543 49.4759C34.7375 49.4759 34.7207 49.4714 34.7057 49.4627L16.7947 39.1272C16.7647 39.1098 16.7461 39.0777 16.7461 39.0432C16.7461 39.0083 16.7644 38.9762 16.7944 38.9585L33.1162 29.4706C33.1465 29.4532 33.1834 29.4532 33.214 29.4706L51.1256 39.8061C51.1556 39.8235 51.1742 39.8556 51.1742 39.8901C51.1742 39.925 51.1559 39.9571 51.1259 39.9748L34.8038 49.4627C34.7882 49.4717 34.7711 49.4759 34.7543 49.4759ZM17.0378 39.0426L34.7543 49.2658L50.8819 39.8907L33.1651 29.6675L17.0378 39.0426Z" fill="#373B42"/>
<path d="M38.4238 15.9278C38.9937 15.5988 39.4562 15.8624 39.4583 16.5158L39.5001 33.2127L23.0534 42.6598L23.0117 25.9629C23.0099 25.3095 23.4694 24.5135 24.0394 24.1843L38.4238 15.9278Z" fill="#FFBE2E"/>
<path d="M23.055 42.7574C23.0382 42.7574 23.0214 42.7529 23.0064 42.7442C22.9763 42.7268 22.9577 42.695 22.9577 42.6602L22.916 25.9632C22.9145 25.2795 23.3974 24.4436 23.9929 24.1003L38.3773 15.8438C38.6849 15.6661 38.9797 15.6397 39.2066 15.7706C39.432 15.9002 39.5565 16.165 39.5577 16.5158L39.5997 33.2127C39.5997 33.2479 39.5811 33.28 39.5511 33.2974L23.1045 42.7445C23.0886 42.7529 23.0718 42.7574 23.055 42.7574ZM38.8884 15.8831C38.7639 15.8831 38.6225 15.9266 38.4745 16.0119C38.4745 16.0122 38.4745 16.0122 38.4742 16.0122L24.0899 24.2687C23.5487 24.5811 23.1093 25.341 23.1108 25.9626L23.1522 42.4918L39.4044 33.1563L39.3626 16.5158C39.3617 16.2376 39.272 16.0323 39.1093 15.939C39.0439 15.9017 38.9698 15.8831 38.8884 15.8831Z" fill="#373B42"/>
<path d="M36.2318 14.1561C36.0451 14.0459 35.7834 14.0627 35.4971 14.2266L21.1127 22.4849C20.8087 22.6595 20.5394 22.9681 20.3516 23.3159L23.2782 25.0165C23.4661 24.6684 23.7353 24.3592 24.0393 24.1845L38.4237 15.9281C38.7101 15.7621 38.9697 15.7453 39.1564 15.8554L36.2318 14.1561Z" fill="#212121"/>
<path d="M23.28 25.1145C23.2629 25.1145 23.2461 25.11 23.2308 25.1013L20.3042 23.4007C20.2588 23.3743 20.2426 23.3164 20.2675 23.2702C20.4746 22.8863 20.758 22.5775 21.0656 22.4007L35.45 14.1424C35.7606 13.9641 36.0566 13.9392 36.2823 14.0719L39.2005 15.7682C39.2029 15.7694 39.205 15.7709 39.2074 15.7721C39.2539 15.7995 39.2692 15.8589 39.2419 15.9054C39.214 15.9513 39.1552 15.9672 39.1087 15.9405L39.1038 15.9375C38.9409 15.8451 38.7185 15.8718 38.4742 16.0132L24.0898 24.2696C23.8167 24.4266 23.5528 24.7156 23.3656 25.0635C23.3529 25.0866 23.3316 25.1037 23.3064 25.1109C23.298 25.1136 23.2887 25.1145 23.28 25.1145ZM20.4857 23.2804L23.2437 24.8831C23.4454 24.5395 23.7089 24.2639 23.9931 24.1004L38.3775 15.8442C38.4913 15.7782 38.6032 15.7328 38.7107 15.7085L36.1847 14.2402L36.1844 14.24C36.0241 14.1451 35.7915 14.1715 35.5475 14.3111L21.1634 22.5694C20.9125 22.714 20.6691 22.97 20.4857 23.2804Z" fill="#373B42"/>
<path d="M20.0859 24.2619L20.1274 40.9591L23.0543 42.6591L23.0129 25.964C23.012 25.6584 23.1143 25.3226 23.2791 25.017L20.3525 23.3165C20.1874 23.6217 20.085 23.957 20.0859 24.2619Z" fill="#373B42"/>
<path d="M23.0542 42.7565C23.0374 42.7565 23.0203 42.752 23.005 42.7433L20.078 41.0433C20.0483 41.0259 20.0297 40.9938 20.0297 40.9593L19.9883 24.2621C19.9874 23.9562 20.0864 23.6039 20.2665 23.2701C20.2791 23.247 20.3004 23.2296 20.3259 23.2224C20.3512 23.2152 20.3785 23.2188 20.4013 23.232L23.3279 24.9326C23.3732 24.959 23.3897 25.0166 23.3645 25.0631C23.2001 25.3696 23.1094 25.6892 23.1103 25.9635L23.1517 42.6587C23.1517 42.6935 23.1331 42.7259 23.1031 42.7433C23.0875 42.752 23.071 42.7565 23.0542 42.7565ZM20.2248 40.9029L22.9563 42.4894L22.9152 25.9639C22.9143 25.6832 22.9975 25.3633 23.1496 25.0544L20.3917 23.452C20.256 23.7296 20.1822 24.0139 20.1831 24.2615L20.2248 40.9029Z" fill="#373B42"/>
<path d="M34.7441 52.8658L34.7342 56.3528L18.4121 65.8407L18.422 62.3537L34.7441 52.8658Z" fill="#FFF7E4"/>
<path d="M18.4136 65.9383C18.3968 65.9383 18.38 65.9338 18.365 65.9251C18.335 65.9077 18.3164 65.8753 18.3164 65.8405L18.326 62.3532C18.326 62.3186 18.3446 62.2865 18.3743 62.2691L34.6964 52.7812C34.727 52.7638 34.7639 52.7638 34.7942 52.7812C34.8243 52.7986 34.8429 52.8307 34.8429 52.8658L34.833 56.3531C34.833 56.3876 34.8143 56.4197 34.7846 56.4372L18.4629 65.9251C18.4476 65.9338 18.4305 65.9383 18.4136 65.9383ZM18.5208 62.4099L18.5115 65.6712L34.6379 56.2967L34.6475 53.0351L18.5208 62.4099Z" fill="#373B42"/>
<path d="M18.4228 62.3537L18.4129 65.8406L0.501953 55.5051L0.511857 52.0178L18.4228 62.3537Z" fill="#FFBE2E"/>
<path d="M18.4128 65.9381C18.396 65.9381 18.3792 65.9336 18.3642 65.9249L0.452918 55.5893C0.422904 55.5719 0.404297 55.5398 0.404297 55.5047L0.414201 52.0174C0.414201 51.9826 0.43281 51.9505 0.462824 51.9331C0.493438 51.916 0.529753 51.9157 0.560367 51.9334L18.4714 62.2689C18.5014 62.2863 18.52 62.3184 18.52 62.3535L18.5104 65.8408C18.5104 65.8756 18.4918 65.9078 18.4618 65.9252C18.4464 65.9336 18.4296 65.9381 18.4128 65.9381ZM0.598784 55.4489L18.3156 65.6722L18.3246 62.4097L0.60809 52.1864L0.598784 55.4489Z" fill="#373B42"/>
<path d="M34.7448 52.8659L18.4227 62.3538L0.511719 52.018L16.8335 42.53L34.7448 52.8659Z" fill="#FFBE2E"/>
<path d="M18.4223 62.4508C18.4055 62.4508 18.3887 62.4466 18.3737 62.4376L0.462685 52.102C0.432672 52.0846 0.414062 52.0525 0.414062 52.018C0.414062 51.9832 0.432372 51.9511 0.462386 51.9334L16.7844 42.4454C16.8151 42.428 16.8517 42.428 16.8823 42.4454L34.7933 52.7809C34.8233 52.7984 34.8419 52.8305 34.8419 52.865C34.8419 52.8998 34.8236 52.9319 34.7936 52.9496L18.4715 62.4376C18.4562 62.4466 18.4391 62.4508 18.4223 62.4508ZM0.705796 52.0174L18.4223 62.2407L34.5499 52.8656L16.8334 42.6423L0.705796 52.0174Z" fill="#373B42"/>
<path d="M34.7538 49.3783L34.7439 52.8656L18.4219 62.3535L18.4318 58.8662L34.7538 49.3783Z" fill="#FFBE2E"/>
<path d="M18.4215 62.4508C18.4047 62.4508 18.3878 62.4466 18.3728 62.4376C18.3428 62.4202 18.3242 62.3878 18.3242 62.353L18.3341 58.8657C18.3341 58.8312 18.3527 58.799 18.3824 58.7816L34.7045 49.2937C34.7351 49.2763 34.772 49.2763 34.8023 49.2937C34.8324 49.3111 34.851 49.3435 34.851 49.3783L34.8411 52.8656C34.8411 52.9001 34.8225 52.9323 34.7927 52.9497L18.4707 62.4376C18.4554 62.4466 18.4383 62.4508 18.4215 62.4508ZM18.5289 58.9224L18.5193 62.1837L34.646 52.8092L34.6556 49.5479L18.5289 58.9224Z" fill="#373B42"/>
<path d="M18.4326 58.8662L18.4227 62.3535L0.511719 52.0176L0.521625 48.5306L18.4326 58.8662Z" fill="#FFBE2E"/>
<path d="M18.4223 62.4505C18.4055 62.4505 18.3887 62.4463 18.3737 62.4373L0.462685 52.1018C0.432672 52.0844 0.414062 52.052 0.414062 52.0172L0.423968 48.5299C0.423968 48.495 0.442575 48.4629 0.472589 48.4455C0.503203 48.4284 0.539521 48.4281 0.570135 48.4458L18.4811 58.7814C18.5111 58.7988 18.5297 58.8312 18.5297 58.866L18.5198 62.3533C18.5198 62.3881 18.5012 62.4202 18.4712 62.4376C18.4556 62.4463 18.4391 62.4505 18.4223 62.4505ZM0.608552 51.9613L18.3251 62.1846L18.3347 58.9221L0.618156 48.6988L0.608552 51.9613Z" fill="#373B42"/>
<path d="M34.7545 49.3782L18.4325 58.8661L0.521484 48.5306L16.8432 39.0424L34.7545 49.3782Z" fill="#FFBE2E"/>
<path d="M18.4321 58.9636C18.4152 58.9636 18.3984 58.9591 18.3834 58.9504L0.472449 48.6149C0.442435 48.5974 0.423828 48.5653 0.423828 48.5308C0.423828 48.496 0.442135 48.4639 0.472149 48.4462L16.7942 38.9582C16.8245 38.9408 16.8617 38.9408 16.8921 38.9582L34.803 49.2938C34.8331 49.3112 34.8517 49.3433 34.8517 49.3778C34.8517 49.4126 34.8334 49.4447 34.8033 49.4624L18.4813 58.9504C18.466 58.9591 18.4489 58.9636 18.4321 58.9636ZM0.715559 48.5299L18.4321 58.7532L34.5596 49.3781L16.8431 39.1548L0.715559 48.5299Z" fill="#373B42"/>
<path d="M34.7545 49.3782L18.4325 58.8661L0.521484 48.5306L16.8432 39.0424L34.7545 49.3782Z" fill="#FFF7E4"/>
<path d="M18.4321 58.9636C18.4152 58.9636 18.3984 58.9591 18.3834 58.9504L0.472449 48.6149C0.442435 48.5974 0.423828 48.5653 0.423828 48.5308C0.423828 48.496 0.442135 48.4639 0.472149 48.4462L16.7942 38.9582C16.8245 38.9408 16.8617 38.9408 16.8921 38.9582L34.803 49.2938C34.8331 49.3112 34.8517 49.3433 34.8517 49.3778C34.8517 49.4126 34.8334 49.4447 34.8033 49.4624L18.4813 58.9504C18.466 58.9591 18.4489 58.9636 18.4321 58.9636ZM0.715559 48.5299L18.4321 58.7532L34.5596 49.3781L16.8431 39.1548L0.715559 48.5299Z" fill="#373B42"/>
<path d="M22.1015 25.4155C22.6715 25.0865 23.134 25.35 23.1361 26.0034L23.1781 42.7004L6.73148 52.1475L6.68946 35.4505C6.68766 34.7971 7.14717 34.0012 7.71713 33.6719L22.1015 25.4155Z" fill="#FFBE2E"/>
<path d="M6.73302 52.2449C6.71621 52.2449 6.6994 52.2404 6.6844 52.2317C6.65438 52.2142 6.63577 52.1824 6.63577 52.1476L6.59376 35.4507C6.59195 34.7673 7.07458 33.9314 7.67005 33.5877L22.055 25.331C22.3636 25.153 22.6577 25.1272 22.8843 25.2577C23.1097 25.3874 23.2343 25.6521 23.2355 26.0033L23.2775 42.7002C23.2775 42.7353 23.2589 42.7674 23.2289 42.7848L6.78224 52.2317C6.76664 52.2404 6.74983 52.2449 6.73302 52.2449ZM22.5665 25.3709C22.4416 25.3709 22.3008 25.4144 22.1523 25.4996C22.1523 25.4999 22.1523 25.4999 22.152 25.4999L7.76759 33.7564C7.22645 34.0692 6.78704 34.8288 6.78914 35.4501L6.83056 51.9792L23.0827 42.6441L23.0407 26.0036C23.0398 25.725 22.95 25.52 22.7874 25.4267C22.7222 25.3892 22.6478 25.3709 22.5665 25.3709Z" fill="#373B42"/>
<path d="M3.76368 33.7493L3.8051 50.4466L6.73173 52.1465L6.69032 35.4514C6.68941 35.1459 6.79176 34.81 6.95654 34.5045L4.0299 32.8036C3.86542 33.1091 3.76278 33.4447 3.76368 33.7493Z" fill="#FFF7E4"/>
<path d="M6.73358 52.2437C6.71677 52.2437 6.69967 52.2392 6.68436 52.2305L3.75772 50.5305C3.72801 50.5131 3.7094 50.481 3.7094 50.4465L3.66798 33.7496C3.66678 33.4437 3.76552 33.0914 3.94591 32.7573C3.95851 32.7342 3.97982 32.7168 4.00533 32.7096C4.03055 32.7024 4.05786 32.706 4.08067 32.7192L7.00761 34.4198C7.05293 34.4462 7.06913 34.5041 7.04422 34.5503C6.87945 34.8565 6.78881 35.1764 6.78941 35.451L6.83083 52.1462C6.83083 52.181 6.81222 52.2134 6.78221 52.2308C6.7669 52.2395 6.75009 52.2437 6.73358 52.2437ZM3.90449 50.3901L6.63574 51.9766L6.59462 35.4513C6.59372 35.1704 6.67686 34.8505 6.82963 34.5416L4.07136 32.9392C3.9357 33.2171 3.86247 33.5013 3.86307 33.7487V33.749L3.90449 50.3901Z" fill="#373B42"/>
<path d="M19.9115 23.6437C19.7248 23.5336 19.4631 23.5504 19.1768 23.7143L4.7924 31.9728C4.48836 32.1475 4.21914 32.4561 4.03125 32.8039L6.95789 34.5048C7.14547 34.1563 7.415 33.8475 7.71903 33.6728L22.1034 25.4163C22.3897 25.2504 22.6494 25.2338 22.836 25.3437L19.9115 23.6437Z" fill="#212121"/>
<path d="M6.95623 34.6019C6.93912 34.6019 6.92231 34.5974 6.90701 34.5887L3.98007 32.8881C3.93475 32.8617 3.91824 32.8038 3.94345 32.7572C4.15085 32.3731 4.43478 32.0645 4.74152 31.888L19.1262 23.6298C19.4368 23.4515 19.7331 23.4272 19.9585 23.5595L22.8773 25.2565C22.8797 25.2577 22.8815 25.2589 22.8833 25.2598C22.9295 25.2871 22.9451 25.3466 22.9178 25.3931C22.8899 25.4393 22.8314 25.4546 22.7846 25.4282L22.7801 25.4255C22.6171 25.3324 22.3941 25.3592 22.1495 25.5008L7.7651 33.7576C7.49287 33.914 7.22905 34.203 7.04117 34.5512C7.02856 34.5743 7.00725 34.5914 6.98204 34.5989C6.97424 34.6007 6.96493 34.6019 6.95623 34.6019ZM4.16165 32.768L6.91991 34.3708C7.1216 34.0268 7.38512 33.751 7.66935 33.5883L22.0534 25.3318C22.1672 25.2658 22.2797 25.2205 22.3869 25.1965L19.8609 23.7279L19.8606 23.7276C19.7001 23.6337 19.468 23.6595 19.2237 23.7987L4.83936 32.057C4.58875 32.2008 4.34533 32.4571 4.16165 32.768Z" fill="#373B42"/>
<path d="M1.17065 45.5628C0.602193 45.2344 0.13818 45.4973 0.136079 46.1507L0.0976615 59.7362C0.0958607 60.3896 0.556872 61.1879 1.12533 61.5163L15.0349 69.5416C15.6033 69.87 16.0662 69.6047 16.068 68.9513L16.1064 55.3659C16.1082 54.7125 15.6487 53.9162 15.0799 53.5881L1.17065 45.5628Z" fill="#FFF7E4"/>
<path d="M15.4958 69.7805C15.337 69.7805 15.1638 69.7286 14.9856 69.626L1.0763 61.6006C0.480826 61.2566 -0.00209413 60.4202 6.82932e-06 59.7358L0.0384239 46.1507C0.0396244 45.8002 0.164181 45.5358 0.389584 45.4061C0.617688 45.2749 0.912123 45.3013 1.21916 45.4787L15.1284 53.5041C15.7233 53.8474 16.2056 54.683 16.2038 55.3667L16.1654 68.9519C16.1642 69.3036 16.0393 69.5686 15.8136 69.6986C15.7182 69.7532 15.6107 69.7805 15.4958 69.7805ZM0.708331 45.5186C0.626393 45.5186 0.55196 45.537 0.48683 45.5745C0.324156 45.6681 0.234414 45.8728 0.233514 46.1507L0.195096 59.7361C0.193296 60.3583 0.632697 61.1189 1.17414 61.4316L15.0834 69.457C15.3283 69.5984 15.5525 69.623 15.7167 69.529C15.8797 69.4351 15.97 69.2301 15.9706 68.951L16.009 55.3655C16.0108 54.7443 15.5723 53.9846 15.0312 53.6722L1.12192 45.6468C0.973652 45.5619 0.832588 45.5186 0.708331 45.5186Z" fill="#373B42"/>
<path d="M3.36204 43.7907C3.55082 43.6827 3.81044 43.6974 4.09677 43.8634L18.0066 51.8878C18.2939 52.0535 18.5523 52.3386 18.7384 52.6646L15.8081 54.3559C15.622 54.0335 15.3645 53.7517 15.08 53.5875L1.17224 45.5637C0.885604 45.3977 0.624185 45.383 0.4375 45.491L3.36204 43.7907Z" fill="#212121"/>
<path d="M15.8081 54.4536C15.7997 54.4536 15.791 54.4524 15.7829 54.4503C15.7577 54.4434 15.7364 54.4272 15.7235 54.4047C15.538 54.083 15.2922 53.8228 15.0314 53.6721L1.12333 45.6476C0.881115 45.5075 0.649708 45.4813 0.486434 45.5747C0.486134 45.5747 0.486134 45.575 0.486134 45.575C0.440213 45.6017 0.380185 45.5861 0.352873 45.5396C0.32616 45.493 0.341769 45.4333 0.38829 45.4063C0.38829 45.406 0.38859 45.406 0.38859 45.406L3.31283 43.7066C3.31313 43.7066 3.31313 43.7063 3.31373 43.7063C3.54243 43.5755 3.83807 43.6013 4.14571 43.7793L18.0553 51.8037C18.3473 51.9721 18.6198 52.2605 18.8227 52.6165C18.8494 52.663 18.8335 52.7225 18.787 52.7492L15.8568 54.4404C15.8421 54.4491 15.8252 54.4536 15.8081 54.4536ZM0.882915 45.3445C0.992465 45.3682 1.10682 45.4132 1.22057 45.4792L15.1286 53.5037C15.3954 53.6577 15.6461 53.9113 15.8421 54.224L18.6036 52.63C18.4241 52.3425 18.1972 52.1108 17.9574 51.9727L4.04786 43.9482C3.80355 43.8069 3.57725 43.7808 3.41037 43.8759L0.882915 45.3445Z" fill="#373B42"/>
<path d="M19.0305 53.6664L18.9933 67.25C18.9912 67.576 18.8771 67.8044 18.6923 67.9121L15.7656 69.6121C15.9505 69.504 16.0667 69.2759 16.0667 68.9521L16.106 55.3664C16.1069 55.0398 15.9925 54.6776 15.8067 54.3558L18.737 52.6646C18.9192 52.9842 19.0314 53.3426 19.0305 53.6664Z" fill="#FFF7E4"/>
<path d="M15.7672 69.7099C15.7336 69.7099 15.7009 69.6925 15.6832 69.6616C15.6561 69.615 15.6718 69.5556 15.7183 69.5283V69.528H15.7186C15.8816 69.4325 15.971 69.2282 15.971 68.9523L16.0103 55.3666C16.0115 55.0677 15.9098 54.7261 15.724 54.4047C15.7111 54.3822 15.7075 54.3558 15.7144 54.3305C15.721 54.3056 15.7372 54.2843 15.7597 54.2714L18.6899 52.5801C18.7115 52.5669 18.7383 52.5633 18.7641 52.5705C18.7893 52.5771 18.8106 52.5937 18.8232 52.6162C19.0219 52.9646 19.1308 53.3377 19.1296 53.6669L19.0924 67.2506C19.0906 67.6014 18.9664 67.8661 18.7434 67.9967L15.8164 69.6967C15.8008 69.7057 15.784 69.7099 15.7672 69.7099ZM15.9401 54.3927C16.1127 54.7186 16.2063 55.0614 16.2051 55.3672L16.1658 68.9526C16.1658 69.079 16.1493 69.1942 16.1178 69.296L18.6449 67.828C18.8061 67.7341 18.8958 67.5285 18.8973 67.2496L18.9345 53.6663V53.666C18.9355 53.3968 18.8532 53.0922 18.7007 52.7989L15.9401 54.3927Z" fill="#373B42"/>
<path d="M30.4788 65.7817L30.4287 84.8083L28.7539 85.782L28.8037 66.7551L30.4788 65.7817Z" fill="white"/>
<path d="M28.7535 85.8793C28.7367 85.8793 28.7199 85.8751 28.7049 85.8661C28.6749 85.8487 28.6562 85.8162 28.6562 85.7814L28.7067 66.7545C28.7067 66.72 28.7253 66.6879 28.755 66.6705L30.4295 65.6971C30.4601 65.6797 30.497 65.6797 30.5273 65.6971C30.5573 65.7145 30.5759 65.7467 30.5759 65.7818L30.5261 84.8087C30.5261 84.8432 30.5075 84.8753 30.4778 84.8927L28.8027 85.8661C28.7874 85.8751 28.7703 85.8793 28.7535 85.8793ZM28.9012 66.8112L28.8513 85.6124L30.331 84.7526L30.3805 65.9514L28.9012 66.8112Z" fill="#373B42"/>
<path d="M28.8044 66.7553L28.7545 85.7822L27.0684 84.8085L27.1185 65.7819L28.8044 66.7553Z" fill="#DBDEE4"/>
<path d="M28.7535 85.8794C28.7367 85.8794 28.7199 85.8752 28.7049 85.8662L27.0193 84.8929C26.9893 84.8755 26.9707 84.8433 26.9707 84.8082L27.0205 65.7813C27.0205 65.7465 27.0391 65.7144 27.0691 65.697C27.0998 65.6799 27.1361 65.6796 27.1667 65.6973L28.8526 66.6706C28.8826 66.688 28.9012 66.7205 28.9012 66.7553L28.8511 85.7822C28.8511 85.817 28.8325 85.8491 28.8024 85.8665C28.7871 85.8752 28.7703 85.8794 28.7535 85.8794ZM27.1655 84.7524L28.6566 85.6132L28.7064 66.8111L27.215 65.95L27.1655 84.7524Z" fill="#373B42"/>
<path d="M30.4801 67.3417L28.805 68.315L27.1191 67.3417L28.7942 66.3683L30.4801 67.3417Z" fill="white"/>
<path d="M28.8049 68.4123C28.7881 68.4123 28.7713 68.4078 28.7563 68.3991L27.0701 67.4258C27.0401 67.4084 27.0215 67.3762 27.0215 67.3417C27.0215 67.3069 27.0398 67.2748 27.0698 67.2571L28.7449 66.2837C28.7755 66.2663 28.8124 66.2663 28.8427 66.2837L30.5283 67.2571C30.5583 67.2745 30.5769 67.3066 30.5769 67.3411C30.5769 67.3759 30.5586 67.4081 30.5286 67.4258L28.8541 68.3991C28.8388 68.4078 28.8217 68.4123 28.8049 68.4123ZM27.3132 67.3411L28.8046 68.2019L30.2846 67.3414L28.7935 66.4806L27.3132 67.3411Z" fill="#373B42"/>
<path d="M46.1149 92.3474L28.7733 82.2694L28.7676 80.3323L46.1095 90.4103L46.1149 92.3474Z" fill="#BEC4CD"/>
<path d="M46.1148 92.4451C46.098 92.4451 46.0809 92.4406 46.0656 92.4319L28.7236 82.3539C28.6939 82.3365 28.6753 82.3044 28.6753 82.2699L28.6699 80.3328C28.6699 80.298 28.6885 80.2656 28.7185 80.2482C28.7492 80.2308 28.7861 80.2308 28.8164 80.2482L46.1583 90.3262C46.188 90.3436 46.2066 90.3757 46.2066 90.4102L46.212 92.3473C46.212 92.3821 46.1934 92.4145 46.1634 92.4319C46.1484 92.4409 46.1316 92.4451 46.1148 92.4451ZM28.8704 82.2135L46.017 92.178L46.0121 90.4666L28.8656 80.5021L28.8704 82.2135Z" fill="#373B42"/>
<path d="M46.1095 90.4107L28.7676 80.3327L30.4535 79.3594L47.7954 89.4374L46.1095 90.4107Z" fill="#373B42"/>
<path d="M46.1094 90.508C46.0926 90.508 46.0755 90.5035 46.0602 90.4948L28.7182 80.4168C28.6882 80.3994 28.6699 80.367 28.6699 80.3322C28.6699 80.2976 28.6885 80.2652 28.7185 80.2481L30.4047 79.2748C30.4353 79.2574 30.4722 79.2574 30.5026 79.2748L47.8445 89.3528C47.8745 89.3702 47.8928 89.4023 47.8928 89.4374C47.8928 89.4719 47.8742 89.5044 47.8442 89.5215L46.158 90.4948C46.143 90.5035 46.1262 90.508 46.1094 90.508ZM28.9623 80.3328L46.1094 90.2979L47.6008 89.4371L30.4536 79.472L28.9623 80.3328Z" fill="#373B42"/>
<path d="M48.4905 76.0879L48.4407 95.1148L46.7656 96.0881L46.8157 77.0612L48.4905 76.0879Z" fill="white"/>
<path d="M46.7652 96.1854C46.7484 96.1854 46.7316 96.1809 46.7166 96.1722C46.6866 96.1548 46.668 96.1227 46.668 96.0876L46.7178 77.0607C46.7178 77.0262 46.7364 76.994 46.7661 76.9766L48.4412 76.0033C48.4715 75.9859 48.5087 75.9859 48.539 76.0033C48.569 76.0207 48.5876 76.0531 48.5876 76.0879L48.5378 95.1145C48.5378 95.1493 48.5192 95.1812 48.4895 95.1986L46.8144 96.1719C46.7991 96.1812 46.782 96.1854 46.7652 96.1854ZM46.9126 77.1174L46.8631 95.9186L48.3427 95.0587L48.3923 76.2578L46.9126 77.1174Z" fill="#373B42"/>
<path d="M46.8141 77.0614L46.764 96.0883L45.0781 95.115L45.1282 76.0881L46.8141 77.0614Z" fill="#DBDEE4"/>
<path d="M46.7655 96.1855C46.7487 96.1855 46.7319 96.1809 46.7169 96.1722L45.031 95.1989C45.001 95.1815 44.9824 95.1491 44.9824 95.1143L45.0322 76.0877C45.0322 76.0528 45.0509 76.0207 45.0809 76.0033C45.1115 75.9862 45.1478 75.9859 45.1784 76.0036L46.8643 76.977C46.8943 76.9944 46.9129 77.0265 46.9129 77.0616L46.8631 96.0885C46.8631 96.1233 46.8445 96.1554 46.8145 96.1728C46.7989 96.1812 46.7823 96.1855 46.7655 96.1855ZM45.1769 95.0584L46.6683 95.9195L46.7178 77.1174L45.2264 76.2566L45.1769 95.0584Z" fill="#373B42"/>
<path d="M48.4895 77.6477L46.8148 78.621L45.1289 77.6477L46.8037 76.6743L48.4895 77.6477Z" fill="white"/>
<path d="M46.8144 78.7183C46.7976 78.7183 46.7807 78.7138 46.7657 78.7051L45.0799 77.7317C45.0499 77.7143 45.0312 77.6822 45.0312 77.6477C45.0312 77.6129 45.0496 77.5808 45.0796 77.5631L46.7546 76.5897C46.7853 76.5723 46.8222 76.5723 46.8525 76.5897L48.5387 77.5631C48.5687 77.5805 48.5873 77.6126 48.5873 77.6471C48.5873 77.6819 48.569 77.714 48.539 77.7317L46.8639 78.7051C46.8483 78.7138 46.8312 78.7183 46.8144 78.7183ZM45.323 77.6474L46.8144 78.5082L48.2946 77.648L46.8033 76.7872L45.323 77.6474Z" fill="#373B42"/>
<path d="M60.3675 49.6001L60.3173 68.627L58.6426 69.6003L58.6924 50.5734L60.3675 49.6001Z" fill="white"/>
<path d="M58.6422 69.6976C58.6254 69.6976 58.6085 69.6931 58.5935 69.6844C58.5635 69.667 58.5449 69.6348 58.5449 69.5997L58.5947 50.5731C58.5947 50.5383 58.6134 50.5065 58.6431 50.4891L60.3181 49.5157C60.3487 49.4983 60.3854 49.4983 60.416 49.5157C60.446 49.5331 60.4646 49.5656 60.4646 49.6004L60.4148 68.627C60.4148 68.6615 60.3962 68.6936 60.3665 68.711L58.6914 69.6844C58.6761 69.6934 58.659 69.6976 58.6422 69.6976ZM58.7895 50.6296L58.74 69.4305L60.2197 68.5706L60.2692 49.7697L58.7895 50.6296Z" fill="#373B42"/>
<path d="M58.6927 50.5732L58.6429 69.6001L56.957 68.6268L57.0068 49.5999L58.6927 50.5732Z" fill="#DBDEE4"/>
<path d="M58.6425 69.6977C58.6257 69.6977 58.6089 69.6932 58.5939 69.6845L56.908 68.7112C56.878 68.6938 56.8594 68.6613 56.8594 68.6265L56.9092 49.5999C56.9092 49.5651 56.9278 49.533 56.9578 49.5156C56.9884 49.4985 57.0247 49.4982 57.0554 49.5159L58.7412 50.4892C58.7712 50.5066 58.7899 50.5391 58.7899 50.5739L58.74 69.6005C58.74 69.6353 58.7214 69.6674 58.6914 69.6848C58.6758 69.6935 58.6593 69.6977 58.6425 69.6977ZM57.0539 68.5707L58.5452 69.4318L58.5948 50.6297L57.1034 49.7686L57.0539 68.5707Z" fill="#373B42"/>
<path d="M76.0019 76.166L58.66 66.088L58.6543 64.1506L75.9962 74.2286L76.0019 76.166Z" fill="#BEC4CD"/>
<path d="M76.0018 76.2638C75.985 76.2638 75.9679 76.2593 75.9526 76.2506L58.6107 66.1726C58.5809 66.1552 58.5623 66.1231 58.5623 66.0885L58.5566 64.1512C58.5566 64.116 58.5752 64.0839 58.6053 64.0665C58.6359 64.0491 58.6728 64.0491 58.7031 64.0665L76.0453 74.1445C76.0751 74.1619 76.0937 74.1941 76.0937 74.2286L76.0991 76.1659C76.0991 76.2008 76.0805 76.2332 76.0504 76.2506C76.0351 76.2593 76.0186 76.2638 76.0018 76.2638ZM58.7574 66.0321L75.904 75.9967L75.8992 74.2853L58.7523 64.3207L58.7574 66.0321Z" fill="#373B42"/>
<path d="M75.9962 74.2288L58.6543 64.1508L60.3405 63.1775L77.6824 73.2555L75.9962 74.2288Z" fill="#373B42"/>
<path d="M75.9964 74.3261C75.9796 74.3261 75.9625 74.3219 75.9472 74.3129L58.605 64.2349C58.575 64.2175 58.5566 64.1851 58.5566 64.1503C58.5566 64.1155 58.5752 64.0833 58.6053 64.0662L60.2911 63.0929C60.3217 63.0755 60.3587 63.0755 60.389 63.0929L77.7309 73.1709C77.7609 73.1883 77.7792 73.2207 77.7792 73.2555C77.7792 73.2901 77.7606 73.3225 77.7306 73.3396L76.045 74.3129C76.03 74.3216 76.0132 74.3261 75.9964 74.3261ZM58.8487 64.1509L75.9964 74.116L77.4875 73.2552L60.3404 63.2901L58.8487 64.1509Z" fill="#373B42"/>
<path d="M78.3769 59.9061L78.3271 78.933L76.6523 79.9064L76.7022 60.8795L78.3769 59.9061Z" fill="white"/>
<path d="M76.6519 80.0037C76.6351 80.0037 76.6183 79.9992 76.6033 79.9905C76.5733 79.9731 76.5547 79.9407 76.5547 79.9059L76.6045 60.8793C76.6045 60.8448 76.6231 60.8126 76.6528 60.7952L78.3279 59.8219C78.3585 59.8045 78.3954 59.8045 78.4257 59.8219C78.4558 59.8393 78.4744 59.8717 78.4744 59.9065L78.4245 78.9334C78.4245 78.9679 78.4059 79.0001 78.3762 79.0175L76.7012 79.9908C76.6858 79.9995 76.6687 80.0037 76.6519 80.0037ZM76.7993 60.9357L76.7498 79.7366L78.2295 78.8767L78.279 60.0755L76.7993 60.9357Z" fill="#373B42"/>
<path d="M76.7028 60.8795L76.653 79.9064L74.9668 78.933L75.0169 59.9061L76.7028 60.8795Z" fill="#DBDEE4"/>
<path d="M76.652 80.0037C76.6351 80.0037 76.6183 79.9992 76.6033 79.9905L74.9178 79.0171C74.8877 78.9997 74.8691 78.9673 74.8691 78.9325L74.919 59.9056C74.919 59.8708 74.9376 59.8387 74.9676 59.8213C74.9982 59.8041 75.0345 59.8038 75.0651 59.8216L76.7507 60.7949C76.7807 60.8123 76.7993 60.8447 76.7993 60.8795L76.7495 79.9061C76.7495 79.941 76.7309 79.9731 76.7009 79.9905C76.6856 79.9995 76.6688 80.0037 76.652 80.0037ZM75.0639 78.877L76.555 79.7378L76.6045 60.9357L75.1135 60.0749L75.0639 78.877Z" fill="#373B42"/>
<path d="M78.3782 61.4659L76.7035 62.4392L75.0176 61.4659L76.6923 60.4926L78.3782 61.4659Z" fill="white"/>
<path d="M76.7027 62.5365C76.6859 62.5365 76.6691 62.532 76.6541 62.5233L74.9685 61.55C74.9385 61.5326 74.9199 61.5005 74.9199 61.4659C74.9199 61.4311 74.9382 61.399 74.9682 61.3813L76.6433 60.408C76.6739 60.3905 76.7108 60.3905 76.7412 60.408L78.4267 61.3813C78.4567 61.3987 78.4753 61.4308 78.4753 61.4653C78.4753 61.5001 78.457 61.5323 78.427 61.55L76.752 62.5233C76.7366 62.5323 76.7195 62.5365 76.7027 62.5365ZM75.2117 61.4656L76.7027 62.3264L78.183 61.4659L76.6919 60.6051L75.2117 61.4656Z" fill="#373B42"/>
<path d="M26.0234 65.4404L26.0297 67.605L46.783 79.4899L46.7767 77.3253L26.0234 65.4404Z" fill="#BEC4CD"/>
<path d="M46.7829 79.5874C46.7661 79.5874 46.7493 79.5829 46.7346 79.5744L25.9816 67.6896C25.951 67.6722 25.9324 67.6404 25.9324 67.6056L25.9258 65.441C25.9258 65.4062 25.9441 65.3738 25.9741 65.3564C26.0047 65.3389 26.0419 65.3389 26.0717 65.3561L46.8252 77.2409C46.8559 77.2583 46.8745 77.2904 46.8745 77.3252L46.8805 79.4898C46.8805 79.5243 46.8622 79.5567 46.8321 79.5744C46.8168 79.5829 46.7994 79.5874 46.7829 79.5874ZM26.1272 67.5486L46.6848 79.3214L46.6791 77.3819L26.1209 65.6091L26.1272 67.5486Z" fill="#373B42"/>
<path d="M46.7754 77.3255L46.7817 79.4901L78.8027 61.2837L78.7964 59.1191L46.7754 77.3255Z" fill="#BEC4CD"/>
<path d="M46.7829 79.5874C46.7661 79.5874 46.749 79.5829 46.7343 79.5742C46.7043 79.5568 46.6857 79.5246 46.6857 79.4901L46.6797 77.3255C46.6797 77.2904 46.6983 77.258 46.7289 77.2406L78.7499 59.0343C78.7806 59.0172 78.8175 59.0172 78.8469 59.0346C78.8769 59.052 78.8955 59.0841 78.8955 59.1186L78.9015 61.2832C78.9015 61.3183 78.8829 61.3507 78.8523 61.3681L46.8313 79.5745C46.816 79.5832 46.7994 79.5874 46.7829 79.5874ZM46.8742 77.382L46.8799 79.3227L78.7064 61.2271L78.7007 59.2864L46.8742 77.382Z" fill="#373B42"/>
<path d="M58.0421 47.2338L26.0234 65.4422L46.7779 77.3265L78.7966 59.1181L58.0421 47.2338ZM29.1698 65.4461L58.0418 49.0314L75.6496 59.1142L46.7776 75.529L29.1698 65.4461Z" fill="#DBDEE4"/>
<path d="M46.7775 77.4239C46.7607 77.4239 46.7439 77.4194 46.7292 77.411L25.975 65.5267C25.9444 65.5093 25.9258 65.4772 25.9258 65.4421C25.9258 65.407 25.9447 65.3749 25.975 65.3575L57.9936 47.1493C58.0243 47.1322 58.0606 47.1325 58.0903 47.1496L78.8445 59.0339C78.8751 59.0513 78.8937 59.0837 78.8937 59.1185C78.8937 59.1533 78.8745 59.1857 78.8445 59.2031L46.8258 77.4113C46.8108 77.4197 46.7943 77.4239 46.7775 77.4239ZM26.2202 65.4427L46.7775 77.2144L78.5993 59.1179L58.042 47.3462L26.2202 65.4427ZM46.7775 75.6267C46.7607 75.6267 46.7439 75.6222 46.7292 75.6137L29.1213 65.5309C29.0907 65.5135 29.0721 65.4811 29.0721 65.4463C29.0721 65.4115 29.091 65.3791 29.1213 65.3617L57.9936 48.9469C58.0243 48.9298 58.0606 48.9301 58.0903 48.9472L75.6978 59.03C75.7284 59.0474 75.7471 59.0795 75.7471 59.1146C75.7471 59.1497 75.7281 59.1818 75.6978 59.1992L46.8258 75.6141C46.8108 75.6225 46.7943 75.6267 46.7775 75.6267ZM29.3666 65.4466L46.7775 75.4169L75.4526 59.1137L58.042 49.1434L29.3666 65.4466Z" fill="#373B42"/>
<path d="M75.6501 59.1145L74.6365 59.6913L58.0422 50.1857L30.1838 66.0272H30.1799L29.1699 65.4465L58.0422 49.0317L75.6501 59.1145Z" fill="#373B42"/>
<path d="M30.1837 66.1245C30.1666 66.1245 30.1459 66.12 30.1311 66.1115L29.1209 65.5308C29.0909 65.5134 29.0723 65.481 29.0723 65.4461C29.0723 65.411 29.0912 65.3789 29.1215 65.3615L57.9938 48.9467C58.0244 48.9296 58.0607 48.9299 58.0904 48.947L75.698 59.0298C75.7286 59.0472 75.7472 59.0793 75.7472 59.1145C75.7472 59.1493 75.7286 59.1817 75.698 59.1991L74.6844 59.7763C74.6538 59.7934 74.6175 59.7931 74.5878 59.776L58.0421 50.2979L30.232 66.1119C30.2173 66.12 30.2005 66.1245 30.1837 66.1245ZM29.3664 65.4467L30.1825 65.9159L57.9941 50.1007C58.0247 50.0836 58.061 50.0839 58.0907 50.101L74.6364 59.5791L75.4537 59.1142L58.0424 49.1436L29.3664 65.4467Z" fill="#373B42"/>
<g opacity="0.9">
<path d="M74.6363 59.6911L46.7779 75.529L30.1836 66.027L58.042 50.1854L74.6363 59.6911Z" fill="#FFBE2E"/>
</g>
<g opacity="0.1">
<path d="M55.8568 20.5886C54.2711 21.5041 54.2627 22.9891 55.8387 23.9052C57.4148 24.8212 59.9779 24.8206 61.5636 23.9052C63.1501 22.9891 63.1597 21.5041 61.5837 20.5883C60.0073 19.672 57.443 19.6726 55.8568 20.5886Z" fill="black"/>
</g>
<path d="M62.7433 21.6485C62.7445 22.2529 62.3453 22.8577 61.5472 23.3187C60.895 23.6963 60.079 23.9172 59.2329 23.9841C58.8865 24.0118 58.5339 24.013 58.1863 23.9877C57.3213 23.9268 56.4848 23.7047 55.8218 23.3187C55.0394 22.8634 54.6474 22.2686 54.645 21.6722L54.6426 20.1595C54.6438 20.7556 55.0358 21.3507 55.8194 21.806C56.4824 22.1908 57.3201 22.4141 58.1863 22.4751C58.5339 22.5003 58.8853 22.4991 59.2329 22.4703C60.0775 22.4033 60.8923 22.1812 61.5436 21.806C62.3417 21.3459 62.7409 20.7427 62.7409 20.1382L62.7433 21.6485Z" fill="#BEC4CD"/>
<path d="M59.2341 22.4707V23.9846C58.8877 24.0122 58.5351 24.0134 58.1875 23.9882V22.4755C58.5351 22.5004 58.8862 22.4992 59.2341 22.4707Z" fill="#DBDEE4"/>
<path d="M58.6825 24.1006C57.6278 24.1006 56.5749 23.8679 55.7744 23.403C54.9863 22.9447 54.5511 22.33 54.5496 21.6718L54.5469 20.1592C54.5469 20.1054 54.5904 20.0613 54.6438 20.0613C54.6441 20.0613 54.6441 20.0613 54.6441 20.0613C54.6978 20.0613 54.7417 20.1048 54.7417 20.1586C54.7432 20.7444 55.1438 21.2994 55.8699 21.7214C57.4165 22.6203 59.9409 22.6197 61.4969 21.7214C62.2379 21.2937 62.6452 20.7309 62.6446 20.1369C62.6446 20.1363 62.6446 20.1357 62.6446 20.1351C62.6446 20.0811 62.6881 20.0376 62.7418 20.0376C62.7421 20.0376 62.7421 20.0376 62.7421 20.0376C62.7958 20.0376 62.8397 20.0811 62.8397 20.1348C62.8397 20.1354 62.8397 20.1363 62.8397 20.1369L62.8424 21.6475C62.8439 22.315 62.4018 22.9384 61.5974 23.4027C60.7921 23.8683 59.7362 24.1006 58.6825 24.1006ZM54.7429 20.9053L54.7444 21.6718C54.7459 22.2577 55.1465 22.8127 55.8726 23.2347C57.4192 24.1336 59.9436 24.133 61.4996 23.2347C62.2412 22.8064 62.6488 22.243 62.6473 21.6484L62.6458 20.8855C62.4435 21.2628 62.0869 21.6064 61.5944 21.8906C59.9839 22.8208 57.3718 22.8202 55.7717 21.8906C55.2921 21.6115 54.9434 21.2748 54.7429 20.9053Z" fill="#373B42"/>
<path d="M55.8372 18.4899C54.2516 19.4053 54.2432 20.8904 55.8192 21.8064C57.3952 22.7224 59.9581 22.7218 61.544 21.8064C63.1306 20.8904 63.1402 19.4053 61.5641 18.4896C59.9881 17.5736 57.4237 17.5739 55.8372 18.4899Z" fill="#373B42"/>
<path d="M58.6798 22.5884C57.6251 22.5884 56.5722 22.356 55.7717 21.8908C54.9809 21.431 54.5457 20.8142 54.5469 20.1536C54.5478 19.4888 54.9893 18.8682 55.79 18.4056C57.4015 17.4755 60.0142 17.4755 61.6151 18.4053C62.4057 18.8648 62.8403 19.4813 62.8397 20.1416C62.8385 20.8067 62.3964 21.428 61.5947 21.8908C60.7894 22.356 59.7335 22.5884 58.6798 22.5884ZM55.8876 18.5746C55.1496 19.0008 54.7426 19.5618 54.742 20.1539C54.7411 20.7419 55.1417 21.299 55.8702 21.7222C57.4168 22.6211 59.9412 22.6205 61.4972 21.7222C62.2361 21.2954 62.6437 20.7341 62.6449 20.1413C62.6458 19.5537 62.2451 18.9969 61.517 18.574C59.9701 17.6751 57.4447 17.676 55.8876 18.5746Z" fill="#373B42"/>
<path d="M58.6782 22.3552C57.6212 22.3552 56.6304 22.1178 55.8891 21.6871C55.1738 21.2714 54.7807 20.727 54.7813 20.154C54.7822 19.5769 55.1819 19.0285 55.9068 18.6101C56.6535 18.1791 57.6476 17.9414 58.7055 17.9414C59.7629 17.9414 60.7537 18.1785 61.495 18.6095C62.2096 19.0249 62.6028 19.569 62.6019 20.1417C62.601 20.7192 62.2009 21.2681 61.4752 21.6871C60.7291 22.1178 59.7356 22.3552 58.6782 22.3552Z" fill="white"/>
<path d="M58.6798 22.4524C57.6056 22.4524 56.5977 22.2104 55.8417 21.771C55.0949 21.337 54.6846 20.7626 54.6855 20.1536C54.6864 19.5404 55.1033 18.9621 55.8594 18.5254C56.6208 18.0857 57.6323 17.8438 58.7071 17.8438C59.7816 17.8438 60.7894 18.0857 61.5458 18.5248C62.2916 18.9585 62.7019 19.5323 62.701 20.1416C62.7001 20.7551 62.2829 21.334 61.5257 21.771C60.7639 22.2104 59.7534 22.4524 58.6798 22.4524ZM58.7071 18.0388C57.6662 18.0388 56.689 18.2717 55.9569 18.6943C55.2636 19.095 54.8812 19.6134 54.8806 20.1542C54.8794 20.6909 55.2558 21.2053 55.9398 21.6027C56.6664 22.025 57.6395 22.2576 58.6798 22.2576C59.72 22.2576 60.6958 22.025 61.4281 21.6024C62.1226 21.2014 62.5053 20.6824 62.5059 20.1413C62.5068 19.6047 62.1307 19.0908 61.4473 18.6937C60.721 18.2711 59.7477 18.0388 58.7071 18.0388Z" fill="#373B42"/>
<path d="M58.6841 21.3963C58.0862 21.3963 57.5261 21.2622 57.1069 21.0185C56.7026 20.7835 56.4799 20.4755 56.4805 20.1517C56.4811 19.8254 56.7071 19.5154 57.1171 19.2786C57.5394 19.0349 58.1015 18.9004 58.6997 18.9004C59.2976 18.9004 59.8579 19.0346 60.2772 19.2783C60.6812 19.5133 60.9036 19.8209 60.9033 20.1448C60.903 20.4713 60.6767 20.7817 60.2661 21.0188C59.8438 21.2622 59.282 21.3963 58.6841 21.3963Z" fill="white"/>
<path d="M58.6856 21.4935C58.0706 21.4935 57.4932 21.3548 57.0595 21.1027C56.6234 20.8491 56.3839 20.5111 56.3848 20.1512C56.3851 19.7887 56.6285 19.4486 57.0697 19.1941C57.5064 18.9417 58.086 18.8027 58.7012 18.8027C59.3162 18.8027 59.8937 18.9414 60.328 19.1935C60.7632 19.4468 61.0027 19.7845 61.0024 20.1443C61.0021 20.5069 60.7584 20.8473 60.3163 21.1024C59.8793 21.3545 59.3003 21.4935 58.6856 21.4935ZM58.7012 18.9975C58.1193 18.9975 57.5745 19.1272 57.1672 19.3625C56.7888 19.581 56.5802 19.861 56.5799 20.1515C56.579 20.4391 56.7843 20.717 57.1579 20.934C57.5622 21.169 58.1049 21.2987 58.6859 21.2987C59.267 21.2987 59.8114 21.1693 60.219 20.934C60.5981 20.7149 60.8073 20.4346 60.8076 20.144C60.8079 19.8565 60.6026 19.5789 60.2301 19.3622C59.8252 19.1269 59.2823 18.9975 58.7012 18.9975Z" fill="#373B42"/>
<path d="M58.69 20.8411C58.5436 20.8411 58.4064 20.8083 58.3038 20.7486C58.2047 20.691 58.1501 20.6157 58.1504 20.5364C58.1504 20.4566 58.2059 20.3807 58.3062 20.3227C58.4097 20.263 58.5472 20.23 58.6936 20.23C58.8401 20.23 58.9773 20.263 59.0799 20.3224C59.179 20.38 59.2333 20.4554 59.2333 20.5346C59.2333 20.6145 59.1778 20.6907 59.0772 20.7486C58.974 20.8083 58.8365 20.8411 58.69 20.8411Z" fill="#373B42"/>
<path d="M60.9051 20.1446C60.9051 20.2428 60.8835 20.3406 60.8442 20.4343C60.7505 20.2188 60.559 20.0228 60.2781 19.8595C59.86 19.6155 59.2982 19.4807 58.7015 19.4807C58.1027 19.4807 57.5409 19.6158 57.1186 19.8595C56.831 20.0249 56.635 20.2275 56.5414 20.443C56.5021 20.3493 56.4805 20.2515 56.4805 20.1512C56.4826 19.8247 56.7071 19.5155 57.1186 19.2781C57.5412 19.0341 58.1027 18.8994 58.7015 18.8994C59.2982 18.8994 59.86 19.0344 60.2781 19.2781C60.683 19.5131 60.9051 19.8202 60.9051 20.1446Z" fill="#373B42"/>
<path d="M56.541 20.5404C56.5095 20.5491 56.4659 20.517 56.4512 20.4807C56.4059 20.372 56.3828 20.2613 56.3828 20.1514C56.3855 19.7876 56.6292 19.4479 57.0692 19.1937C57.5071 18.941 58.0867 18.8017 58.7011 18.8017C59.3161 18.8017 59.8932 18.941 60.3269 19.194C60.7624 19.447 61.0025 19.7846 61.0025 20.1448C61.0025 20.2529 60.9794 20.363 60.9335 20.4723C60.9182 20.5083 60.8834 20.532 60.8441 20.532H60.8438C60.805 20.532 60.7699 20.5089 60.7543 20.4732C60.6688 20.2751 60.492 20.0968 60.2288 19.9437C59.8248 19.7081 59.2821 19.5781 58.7011 19.5781C58.1203 19.5781 57.5756 19.7081 57.1668 19.9437C56.903 20.0959 56.7175 20.282 56.6307 20.4819C56.6148 20.5176 56.58 20.5404 56.541 20.5404ZM58.7011 18.9968C58.1203 18.9968 57.5756 19.1267 57.1668 19.3626C56.7889 19.5808 56.5797 19.8612 56.5776 20.1523C56.5776 20.1646 56.5779 20.1769 56.5788 20.1895C56.6956 20.0353 56.8618 19.8945 57.0692 19.775C57.5071 19.5223 58.0867 19.3834 58.7011 19.3834C59.3161 19.3834 59.8932 19.5226 60.3269 19.7756C60.5322 19.8951 60.6928 20.0308 60.8062 20.1808C60.8068 20.1688 60.8074 20.1568 60.8074 20.1451C60.8074 19.8576 60.6018 19.5794 60.2288 19.363C59.8248 19.1264 59.2821 18.9968 58.7011 18.9968Z" fill="#373B42"/>
<path d="M58.6931 20.638C58.5854 20.638 58.498 20.551 58.498 20.4432V13.2714C58.498 13.1637 58.5851 13.0767 58.6931 13.0767C58.8009 13.0767 58.8882 13.1637 58.8882 13.2714V20.4432C58.8882 20.551 58.8009 20.638 58.6931 20.638Z" fill="#BEC4CD"/>
<path d="M62.8571 5.23692L62.8327 10.8786C62.8309 11.49 62.4291 12.1005 61.6253 12.5675C60.0091 13.5066 57.382 13.5057 55.7549 12.5666C54.9355 12.0936 54.5255 11.4723 54.5273 10.8522L54.5517 5.21051C54.5499 5.83059 54.9596 6.45187 55.7792 6.92489C57.4063 7.86432 60.0334 7.86522 61.6496 6.92579C62.4531 6.45848 62.8553 5.8483 62.8571 5.23692Z" fill="#FFBE2E"/>
<path d="M58.6955 13.3658C57.6144 13.3658 56.5322 13.1275 55.7062 12.6506C54.8811 12.1739 54.4276 11.5352 54.4297 10.8512L54.454 5.20955C54.4543 5.15582 54.4978 5.1123 54.5516 5.1123C54.6053 5.1126 54.6491 5.15612 54.6491 5.20985C54.6491 5.21015 54.6491 5.21015 54.6491 5.21015C54.6476 5.82123 55.0663 6.40019 55.828 6.8399C57.4251 7.76192 60.0149 7.76251 61.6003 6.84079C62.3461 6.4074 62.7579 5.83774 62.7594 5.23626V5.23596C62.7597 5.18224 62.8032 5.13902 62.8569 5.13902C62.9107 5.13932 62.9545 5.18314 62.9545 5.23656V5.23686V5.23746C62.9545 5.23866 62.9545 5.24047 62.9545 5.24167L62.9302 10.8785C62.9287 11.552 62.4824 12.1817 61.6744 12.6514C60.8544 13.1278 59.7757 13.3658 58.6955 13.3658ZM54.6455 5.96559L54.6245 10.8521C54.6227 11.4629 55.0414 12.0419 55.8034 12.4819C57.4005 13.4036 59.9903 13.4042 61.5757 12.4828C62.3215 12.0494 62.7333 11.4797 62.7348 10.8779L62.7558 5.99471C62.5514 6.37498 62.1927 6.72224 61.6984 7.00947C60.0585 7.96211 57.3818 7.96211 55.7305 7.00857C55.2197 6.71444 54.852 6.35727 54.6455 5.96559Z" fill="#373B42"/>
<path d="M61.6314 3.52421C63.2585 4.46364 63.2687 5.98533 61.6506 6.92566C60.0344 7.86509 57.407 7.86389 55.7803 6.92476C54.1532 5.98533 54.1415 4.46274 55.7577 3.52331C57.3758 2.58298 60.0047 2.58478 61.6314 3.52421Z" fill="#FFF7E4"/>
<path d="M58.7206 7.72467C57.6395 7.72467 56.5572 7.48636 55.7313 7.00944C54.9092 6.53493 54.456 5.89834 54.4551 5.21673C54.4542 4.54082 54.8993 3.90963 55.7085 3.43931C57.3493 2.48608 60.0277 2.48638 61.68 3.44021C62.5015 3.91443 62.9544 4.55042 62.9553 5.23113C62.9565 5.90734 62.5102 6.53913 61.6995 7.01034C60.8795 7.48636 59.8008 7.72467 58.7206 7.72467ZM58.6885 2.91677C57.6434 2.91677 56.5993 3.14728 55.8066 3.60799C55.0599 4.04199 54.649 4.61315 54.6499 5.21642C54.6508 5.8254 55.0695 6.40226 55.8288 6.84046C57.4258 7.76249 60.0157 7.76309 61.601 6.84137C62.3493 6.40677 62.7608 5.8347 62.7602 5.23113C62.7593 4.62305 62.3409 4.04679 61.5824 3.60859C60.7829 3.14728 59.7348 2.91677 58.6885 2.91677Z" fill="#373B42"/>
<path d="M58.7188 6.96675C57.8325 6.96675 56.9684 6.76146 56.3477 6.40309C55.781 6.07594 55.4557 5.64345 55.4551 5.21635C55.4542 4.79466 55.7726 4.36726 56.3294 4.04371C56.9447 3.68595 57.8052 3.48096 58.6909 3.48096C59.5778 3.48096 60.4425 3.68655 61.0631 4.04491C61.6298 4.37206 61.9549 4.80396 61.9552 5.23016C61.9555 5.65245 61.6361 6.08044 61.0788 6.40429C60.4638 6.76206 59.6039 6.96675 58.7188 6.96675ZM58.6912 3.87113C57.8724 3.87113 57.0833 4.05692 56.5254 4.38107C56.0989 4.62898 55.8447 4.94112 55.8453 5.21605C55.8456 5.49608 56.1064 5.81362 56.5428 6.06544C57.1058 6.39049 57.8991 6.57687 58.7188 6.57687C59.5369 6.57687 60.3257 6.39139 60.8831 6.06754C61.3108 5.81903 61.5659 5.50628 61.5653 5.23076C61.565 4.95163 61.3045 4.63468 60.8681 4.38287C60.305 4.05782 59.5117 3.87113 58.6912 3.87113Z" fill="#212121"/>
<path d="M46.7775 75.6266C46.7607 75.6266 46.7439 75.6221 46.7291 75.6137L30.1352 66.1117C30.1045 66.0943 30.0859 66.0619 30.0859 66.0271C30.0859 65.9919 30.1048 65.9598 30.1352 65.9424L57.9936 50.1009C58.0242 50.0838 58.0605 50.0841 58.0902 50.1012L74.6842 59.6068C74.7148 59.6242 74.7334 59.6563 74.7334 59.6915C74.7334 59.7266 74.7145 59.7587 74.6842 59.7761L46.8258 75.614C46.8108 75.6224 46.7943 75.6266 46.7775 75.6266ZM30.3804 66.0277L46.7775 75.4171L74.439 59.6912L58.0419 50.2981L30.3804 66.0277Z" fill="#373B42"/>
<path d="M82.5953 94.155C82.0152 94.49 82.0122 95.0335 82.5884 95.3685L89.9601 99.6529C90.5364 99.9879 91.4749 99.9879 92.0547 99.6529L99.4747 95.3688C100.055 95.0338 100.058 94.4903 99.4816 94.1553L92.11 89.8708C91.5337 89.5359 90.5952 89.5359 90.0153 89.8708L82.5953 94.155Z" fill="#FFF7E4"/>
<path d="M91.0064 100C90.6094 100 90.2129 99.9124 89.9112 99.7374L82.5393 95.453C82.2304 95.2732 82.0602 95.0283 82.0605 94.7639C82.0614 94.4976 82.2337 94.2512 82.5465 94.0709L89.9665 89.7864C90.5727 89.4364 91.5563 89.4364 92.1593 89.7864L99.5309 94.0709C99.8398 94.2506 100.01 94.4952 100.01 94.76C100.009 95.0262 99.8368 95.2726 99.5237 95.453L92.1037 99.7374C91.8006 99.9124 91.4032 100 91.0064 100ZM82.644 94.2395C82.394 94.3839 82.2559 94.5703 82.2556 94.7639C82.2556 94.9563 82.3913 95.1411 82.6374 95.2843L90.0094 99.5688C90.5577 99.8878 91.4533 99.8878 92.0062 99.5688L99.4262 95.2843C99.6762 95.1396 99.8143 94.9536 99.8146 94.7597C99.8146 94.5673 99.6789 94.3827 99.4328 94.2395L92.0611 89.9551C91.5125 89.6363 90.6166 89.6366 90.064 89.9551L82.644 94.2395Z" fill="#DBDEE4"/>
<path d="M94.0066 93.0339C95.6583 93.9877 95.667 95.5334 94.0234 96.4885C92.3826 97.4423 89.7144 97.4423 88.0624 96.4885C86.4135 95.5364 86.4048 93.9907 88.0456 93.0369C89.6895 92.0815 92.3577 92.0816 94.0066 93.0339Z" fill="white"/>
<path d="M91.0467 97.2987C89.9497 97.2987 88.8512 97.0568 88.0135 96.573C87.1825 96.093 86.7239 95.4486 86.7227 94.7586C86.7215 94.0722 87.1738 93.4308 87.9964 92.9527C89.6631 91.9842 92.3811 91.9833 94.0556 92.9497C94.8882 93.4305 95.3474 94.0752 95.3483 94.7655C95.3495 95.4522 94.8963 96.0939 94.0727 96.573C93.2401 97.0568 92.1437 97.2987 91.0467 97.2987ZM91.0269 92.4176C89.9638 92.4176 88.902 92.652 88.0946 93.1214C87.3346 93.5632 86.9168 94.1443 86.9177 94.7583C86.9186 95.376 87.3421 95.9607 88.1111 96.4043C89.7336 97.3407 92.3634 97.341 93.9746 96.4043C94.7357 95.9619 95.1544 95.3799 95.1535 94.7658C95.1526 94.1478 94.7282 93.5629 93.9584 93.1184C93.1489 92.6511 92.0873 92.4176 91.0269 92.4176Z" fill="#373B42"/>
<path d="M88.3047 86.0421L88.3368 94.4774C88.338 94.8775 88.6012 95.2773 89.1274 95.5831C90.1841 96.1975 91.9027 96.1975 92.9664 95.5831C93.5007 95.2746 93.7675 94.8694 93.7663 94.4648L93.7342 86.0295C93.7354 86.4341 93.4686 86.8393 92.9343 87.1478C91.8703 87.7622 90.152 87.7622 89.0949 87.1478C88.5691 86.842 88.3059 86.4422 88.3047 86.0421Z" fill="white"/>
<path d="M89.0955 87.1478C89.6205 87.4531 90.309 87.6058 90.999 87.6079V96.0418C90.3195 96.0352 89.6442 95.8839 89.1274 95.5838C88.6012 95.2779 88.338 94.8782 88.3368 94.4781L88.3047 86.0424C88.3062 86.4422 88.5694 86.842 89.0955 87.1478Z" fill="#DBDEE4"/>
<path d="M91.0442 96.1392C90.3314 96.1392 89.6189 95.9822 89.078 95.6677C88.5384 95.354 88.2404 94.9314 88.2392 94.4779L88.207 86.0438C88.207 86.0435 88.207 86.0435 88.207 86.0435V86.0423C88.207 85.9885 88.2506 85.9444 88.3043 85.9441H88.3046C88.3583 85.9441 88.4015 85.9876 88.4021 86.0414V86.0432C88.4039 86.424 88.6674 86.7863 89.1441 87.0633C90.172 87.6609 91.8504 87.6606 92.8856 87.0633C93.3709 86.783 93.638 86.4159 93.6368 86.03V86.0297C93.6368 86.0297 93.6368 86.0297 93.6368 86.0294C93.6368 85.9756 93.6803 85.9318 93.7341 85.9318H93.7344C93.7881 85.9318 93.8316 85.9753 93.8319 86.0291L93.864 94.4644C93.8652 94.9233 93.5639 95.3507 93.0152 95.6677C92.4705 95.9822 91.7568 96.1392 91.0442 96.1392ZM88.4042 86.6603L88.4339 94.4773C88.4351 94.8588 88.6987 95.2214 89.1762 95.499C90.2041 96.0969 91.8825 96.0966 92.9174 95.4993C93.4027 95.2187 93.6698 94.8516 93.6686 94.4653L93.6389 86.6467C93.4955 86.8652 93.2737 87.0645 92.9828 87.2323C91.8945 87.8608 90.1285 87.8608 89.0456 87.2323C88.7629 87.0678 88.5462 86.8734 88.4042 86.6603Z" fill="#373B42"/>
<path d="M89.106 84.9227C88.0423 85.5371 88.0366 86.5324 89.0951 87.1477C90.1519 87.762 91.8705 87.762 92.9345 87.1477C93.9964 86.5345 94.0021 85.5389 92.9453 84.9245C91.8864 84.3096 90.1681 84.3096 89.106 84.9227Z" fill="white"/>
<path d="M91.0124 87.7035C90.2996 87.7035 89.5877 87.5462 89.0462 87.232C88.5045 86.9171 88.2067 86.4931 88.207 86.038C88.2079 85.5806 88.5099 85.1544 89.0573 84.8384C90.1456 84.2102 91.9116 84.2111 92.9945 84.8405C93.5351 85.1547 93.8328 85.5785 93.8322 86.0335C93.8313 86.491 93.5303 86.9165 92.9834 87.2323C92.4393 87.5462 91.7252 87.7035 91.0124 87.7035ZM91.025 84.5599C90.3479 84.5599 89.6711 84.709 89.1546 85.0071C88.6698 85.2871 88.4024 85.6533 88.4018 86.0383C88.4015 86.4207 88.665 86.7851 89.1444 87.0633C90.1723 87.6609 91.8507 87.6606 92.8859 87.0633C93.3697 86.7839 93.6368 86.418 93.6371 86.0329C93.6374 85.6506 93.3745 85.2868 92.8961 85.0092C92.3813 84.7096 91.703 84.5599 91.025 84.5599Z" fill="#373B42"/>
<path d="M92.7256 81.2451H89.3262V81.2314H92.7256V81.2451ZM92.7256 81.2305H89.3262V81.208H92.7256V81.2305ZM92.7256 80.2061H92.7236V80.207H92.7256V80.2295H92.7207V80.2305H92.7256V80.2529H92.7178V80.2539H92.7256V80.3691H92.6885V80.3701H92.7256V80.5322H92.6016L92.6006 80.5332H92.7256V80.625H92.5283L92.5273 80.626H92.7256V80.6484H92.5039L92.5029 80.6494H92.7256V80.6719H92.4795L92.4785 80.6729H92.7256V80.6953V80.6963V80.7881H92.3408L92.3389 80.7891H92.7256V80.8115H92.3047L92.3027 80.8125H92.7256V80.835H92.2686L92.2666 80.8359H92.7256V80.9512V80.9521V81.0439H91.7842C91.7829 81.0443 91.7816 81.0446 91.7803 81.0449H92.7256V81.0674H91.6982C91.6969 81.0677 91.6956 81.068 91.6943 81.0684H92.7256V81.1143H91.459C91.4567 81.1146 91.4544 81.1149 91.4521 81.1152H92.7256V81.207H89.3262V81.1152H90.5928C90.5905 81.1149 90.5882 81.1146 90.5859 81.1143H89.3262V81.0684H90.3516C90.3503 81.068 90.349 81.0677 90.3477 81.0674H89.3262V81.0449H90.2656C90.2643 81.0446 90.263 81.0443 90.2617 81.0439H89.3262V80.9521H90.0059L90.0039 80.9512H89.3262V80.8359H89.7812L89.7793 80.835H89.3262V80.8125H89.7451L89.7432 80.8115H89.3262V80.7891H89.709L89.707 80.7881H89.3262V80.6963H89.5938L89.5928 80.6953H89.3262V80.6729H89.5693L89.5684 80.6719H89.3262V80.6494H89.5449L89.5439 80.6484H89.3262V80.626H89.5215L89.5205 80.625H89.3262V80.5332H89.4492L89.4482 80.5322H89.3262V80.3701H89.3623V80.3691H89.3262V80.2539H89.334V80.2529H89.3262V80.2305H89.3311V80.2295H89.3262V80.207H89.3281V80.2061H89.3262V75.8916H92.7256V80.2061Z" fill="url(#paint0_linear_197_19436)"/>
<path d="M89.2188 80.2047L89.2401 85.7921C89.241 86.0583 89.4159 86.3239 89.7659 86.5274C90.4688 86.9359 91.6117 86.9359 92.3192 86.5274C92.6745 86.3221 92.8519 86.0529 92.8513 85.7836L92.83 80.1963C92.8309 80.4655 92.6532 80.7347 92.2979 80.94C91.5904 81.3485 90.4475 81.3485 89.7446 80.94C89.3946 80.7365 89.2194 80.4706 89.2188 80.2047Z" fill="white"/>
<path d="M90.9983 86.8308C90.5508 86.8248 90.1066 86.7249 89.7659 86.5268C89.4159 86.3233 89.241 86.0577 89.2401 85.7915L89.2188 80.2041C89.2197 80.4703 89.3946 80.7359 89.7446 80.9394C90.0907 81.1405 90.5433 81.2417 90.9983 81.2447V86.8308Z" fill="#DBDEE4"/>
<path d="M91.0405 86.9287C90.5602 86.9287 90.0809 86.8227 89.7166 86.6114C89.3471 86.3965 89.143 86.1054 89.1424 85.7917L89.1211 80.2047V80.2044C89.1211 80.1507 89.1646 80.1068 89.2183 80.1065H89.2186C89.2724 80.1065 89.3159 80.1501 89.3162 80.2038V80.2047C89.3174 80.446 89.4867 80.6768 89.7937 80.8551C90.4675 81.2474 91.5696 81.2474 92.2488 80.8551C92.561 80.6747 92.7326 80.4406 92.732 80.1963V80.196V80.1957C92.732 80.142 92.7756 80.0981 92.829 80.0981H92.8293C92.883 80.0981 92.9265 80.1417 92.9268 80.1954L92.9481 85.7827C92.949 86.1003 92.7428 86.3944 92.3674 86.6114C92.0009 86.823 91.5204 86.9287 91.0405 86.9287ZM89.318 80.7143L89.3375 85.7911C89.3384 86.0328 89.5077 86.2642 89.815 86.4427C90.4891 86.835 91.5909 86.8344 92.2701 86.4427C92.5823 86.2624 92.754 86.028 92.7534 85.7833L92.7338 80.7053C92.6378 80.8233 92.5075 80.9307 92.3461 81.0241C91.6128 81.4476 90.424 81.4476 89.6953 81.0241C89.5392 80.9328 89.4125 80.8284 89.318 80.7143Z" fill="#373B42"/>
<path d="M89.7517 79.4598C89.0443 79.8683 89.0404 80.5304 89.7445 80.9395C90.4474 81.348 91.5903 81.348 92.2978 80.9395C93.004 80.5316 93.0079 79.8695 92.305 79.461C91.6005 79.0523 90.4579 79.0523 89.7517 79.4598Z" fill="#FFBE2E"/>
<path d="M91.0192 81.3421C90.5389 81.3421 90.0596 81.2362 89.6953 81.0246C89.3243 80.8091 89.1208 80.517 89.1211 80.2022C89.1214 79.8859 89.3282 79.5923 89.7028 79.3762C90.4357 78.9533 91.6245 78.9542 92.3536 79.3777C92.7236 79.5929 92.9274 79.8843 92.9265 80.1992C92.9262 80.5155 92.72 80.8088 92.3458 81.0246C91.9796 81.2362 91.4994 81.3421 91.0192 81.3421ZM91.0276 79.2514C90.5837 79.2514 90.1392 79.3492 89.8003 79.5449C89.4885 79.725 89.3165 79.9585 89.3159 80.2025C89.3156 80.4447 89.4849 80.677 89.7934 80.8562C90.4672 81.2485 91.5693 81.2482 92.2485 80.8562C92.5601 80.6764 92.7317 80.4432 92.7317 80.1992C92.732 79.957 92.5631 79.7253 92.2554 79.5467C91.9178 79.3495 91.4727 79.2514 91.0276 79.2514Z" fill="#373B42"/>
<path d="M74.1105 95.2994C74.8155 94.8924 74.8194 94.2321 74.1192 93.8251C73.4189 93.4181 72.279 93.4184 71.574 93.8254C70.869 94.2324 70.8657 94.8924 71.5659 95.2994C72.2664 95.7064 73.4054 95.7064 74.1105 95.2994Z" fill="white"/>
<path d="M72.8365 95.7003C72.3584 95.7003 71.8799 95.5949 71.5168 95.3836C71.1479 95.169 70.9447 94.8782 70.9453 94.5645C70.9456 94.2488 71.1518 93.9565 71.5252 93.741C72.2563 93.3187 73.4416 93.319 74.1682 93.7407C74.5368 93.955 74.7397 94.2458 74.7394 94.5597C74.7385 94.8755 74.5326 95.1681 74.1592 95.3836C73.7936 95.5946 73.3146 95.7003 72.8365 95.7003ZM72.8482 93.6161C72.4049 93.6161 71.961 93.714 71.6224 93.9093C71.3118 94.0888 71.1404 94.3214 71.1401 94.5645C71.1398 94.8058 71.3085 95.0367 71.6149 95.2146C72.2878 95.6057 73.3848 95.6054 74.0613 95.2149C74.372 95.0355 74.5437 94.8026 74.5443 94.5591C74.5446 94.3178 74.3759 94.087 74.0697 93.9093C73.7339 93.714 73.2915 93.6161 72.8482 93.6161Z" fill="#DBDEE4"/>
<path d="M72.8474 94.0972C72.5725 94.0972 72.3066 94.1596 72.1178 94.2688C71.9662 94.3565 71.8789 94.4639 71.8789 94.5642C71.8789 94.6629 71.9641 94.7692 72.113 94.8559C72.3003 94.9649 72.5653 95.0273 72.8396 95.0273C73.1143 95.0273 73.3799 94.9649 73.5687 94.8556C73.7205 94.768 73.8076 94.6602 73.8079 94.56C73.8082 94.4612 73.7226 94.355 73.5738 94.2682C73.3865 94.1596 73.1218 94.0972 72.8474 94.0972Z" fill="#FFBE2E"/>
<path d="M78.1399 91.1127C77.8449 91.1127 77.5591 91.18 77.3562 91.297C77.1932 91.391 77.0999 91.5065 77.0996 91.614C77.0993 91.7202 77.1911 91.8343 77.3511 91.9273C77.5525 92.0444 77.8367 92.1113 78.1315 92.1113C78.4265 92.1113 78.7116 92.0441 78.9145 91.927C79.0775 91.8328 79.1712 91.7172 79.1715 91.6098C79.1715 91.5035 79.0799 91.3895 78.9202 91.2967C78.7191 91.1797 78.4349 91.1127 78.1399 91.1127Z" fill="#373B42"/>
<path d="M0.52776 18.0663C-0.0431011 18.3958 -0.0461012 18.931 0.521158 19.2605L7.77697 23.4774C8.34423 23.807 9.26776 23.807 9.83862 23.4774L17.1419 19.2605C17.7127 18.931 17.7157 18.3958 17.1485 18.0663L9.89264 13.8493C9.32538 13.5198 8.40186 13.5198 7.831 13.8493L0.52776 18.0663Z" fill="#FFF7E4"/>
<path d="M8.80602 23.8205C8.41495 23.8205 8.02477 23.7343 7.72763 23.5618L0.471816 19.3448C0.167176 19.1678 -0.000299735 18.9264 4.02711e-07 18.6653C0.00030054 18.4027 0.170179 18.1599 0.47872 17.9819L7.78226 13.765C8.37923 13.4201 9.34807 13.4201 9.94204 13.765L17.1976 17.9819C17.5022 18.1593 17.6697 18.4003 17.6694 18.6614C17.6691 18.924 17.4992 19.1669 17.1907 19.3448L9.88712 23.5615C9.58818 23.7343 9.1968 23.8205 8.80602 23.8205ZM8.86305 13.6984C8.50739 13.6984 8.15113 13.7767 7.8795 13.9334L0.575963 18.1503C0.330451 18.2923 0.19479 18.475 0.19479 18.6653C0.19449 18.8541 0.327751 19.0354 0.569962 19.1759L7.82578 23.3928C8.36482 23.7067 9.24573 23.7064 9.78927 23.3928L17.0925 19.1762C17.338 19.0342 17.4737 18.8514 17.4737 18.6611C17.474 18.4726 17.3407 18.2914 17.0985 18.1506L9.843 13.9337C9.57378 13.7767 9.21871 13.6984 8.86305 13.6984Z" fill="#DBDEE4"/>
<path d="M11.7587 16.9627C13.3846 17.9015 13.393 19.4229 11.7752 20.3629C10.1602 21.3017 7.53398 21.3017 5.90814 20.3629C4.28499 19.4256 4.27659 17.9045 5.89163 16.9657C7.50967 16.0256 10.1359 16.0256 11.7587 16.9627Z" fill="white"/>
<path d="M8.84564 21.1614C7.76544 21.1617 6.68405 20.9234 5.85927 20.4468C5.0402 19.9738 4.58879 19.3393 4.58789 18.6592C4.58669 17.9833 5.03239 17.3518 5.84216 16.8812C7.48331 15.9276 10.1593 15.9261 11.8071 16.8779C12.6274 17.3512 13.0797 17.9869 13.0809 18.667C13.0818 19.3435 12.6355 19.9756 11.8242 20.4471C11.0045 20.9234 9.92523 21.1614 8.84564 21.1614ZM8.82613 16.3571C7.78015 16.3571 6.73447 16.5879 5.94031 17.0498C5.19297 17.4841 4.78178 18.0556 4.78268 18.6592C4.78328 19.2667 5.20047 19.8417 5.95652 20.2784C7.55145 21.1995 10.1398 21.2004 11.7258 20.2784C12.4743 19.8435 12.8864 19.2712 12.8855 18.6673C12.8843 18.0595 12.4665 17.4841 11.7092 17.0465C10.9136 16.5867 9.86941 16.3571 8.82613 16.3571Z" fill="#373B42"/>
<path d="M6.14648 10.0805L6.178 18.3832C6.1792 18.777 6.43822 19.1705 6.95626 19.4715C7.99653 20.076 9.6881 20.0763 10.735 19.4715C11.2608 19.1678 11.5234 18.7692 11.5225 18.3706L11.491 10.0679C11.4922 10.4662 11.2293 10.8651 10.7038 11.1688C9.65659 11.7733 7.96532 11.7733 6.92504 11.1688C6.4067 10.8678 6.14768 10.4743 6.14648 10.0805Z" fill="white"/>
<path d="M6.92474 11.1684C7.44158 11.4689 8.11899 11.6192 8.7985 11.621V19.9222C8.12979 19.9156 7.46499 19.7668 6.95626 19.4711C6.43852 19.1701 6.1792 18.7766 6.178 18.3828L6.14648 10.0798C6.14768 10.4742 6.4067 10.8677 6.92474 11.1684Z" fill="#DBDEE4"/>
<path d="M8.84476 20.0202C8.14274 20.0202 7.44162 19.8653 6.90857 19.5559C6.37703 19.2467 6.0835 18.8305 6.0823 18.3835L6.05078 10.0812C6.05078 10.0812 6.05078 10.0812 6.05078 10.0809C6.05078 10.0271 6.0943 9.98331 6.14772 9.98331C6.20145 9.98331 6.24527 10.0268 6.24557 10.0806V10.0824C6.24737 10.4566 6.50639 10.8126 6.9752 11.0848C7.98697 11.6728 9.63862 11.6725 10.6564 11.0848C11.1339 10.809 11.3962 10.4485 11.395 10.0688C11.395 10.0688 11.395 10.0685 11.395 10.0682C11.395 10.0145 11.4385 9.9707 11.4923 9.9707C11.546 9.9707 11.5898 10.0142 11.5901 10.0679L11.6216 18.3709C11.6225 18.8235 11.3254 19.2446 10.7854 19.5562C10.2494 19.8653 9.54648 20.0202 8.84476 20.0202ZM6.24797 10.694L6.27738 18.3829C6.27858 18.7578 6.5373 19.1147 7.00702 19.3872C8.01818 19.9752 9.67013 19.9752 10.6882 19.3872C11.1654 19.1117 11.4277 18.7509 11.4268 18.3712L11.3974 10.6805C11.2558 10.8942 11.0388 11.089 10.7539 11.2532C9.68184 11.8724 7.94315 11.8724 6.87706 11.2532C6.60003 11.0923 6.38813 10.9023 6.24797 10.694Z" fill="#373B42"/>
<path d="M6.93522 8.97866C5.88804 9.58314 5.88264 10.5631 6.92471 11.1688C7.96499 11.7732 9.65656 11.7732 10.7034 11.1688C11.7488 10.5652 11.7542 9.58524 10.7139 8.98077C9.67217 8.37509 7.9806 8.37509 6.93522 8.97866Z" fill="white"/>
<path d="M8.81129 11.7175C8.10927 11.7175 7.40815 11.5626 6.87511 11.2532C6.34176 10.9428 6.04793 10.525 6.04883 10.0763C6.04913 9.62551 6.34657 9.20562 6.88621 8.89438C7.9574 8.2761 9.6967 8.27669 10.7631 8.89648C11.2958 9.20622 11.5891 9.62341 11.5882 10.0718C11.5873 10.5226 11.2904 10.9419 10.752 11.2532C10.2159 11.5626 9.51361 11.7175 8.81129 11.7175ZM6.98376 9.06275C6.50714 9.33798 6.24422 9.69814 6.24392 10.0766C6.24302 10.4527 6.50234 10.8105 6.97355 11.0842C7.98532 11.6721 9.63697 11.6718 10.6547 11.0842C11.1308 10.8093 11.3931 10.4497 11.3934 10.0712C11.3937 9.69544 11.1353 9.33798 10.6649 9.06456C9.65258 8.47659 8.00152 8.47598 6.98376 9.06275Z" fill="#373B42"/>
<path d="M10.5244 5.35352H7.125V5.33984H10.5244V5.35352ZM10.5244 5.33887H7.125V5.31641H10.5244V5.33887ZM10.5244 4.38477H10.5137V4.38574H10.5244V4.47754H10.4873V4.47852H10.5244V4.50098H10.4766V4.50195H10.5244V4.52441H10.4658V4.52539H10.5244V4.64062H10.4004L10.3994 4.6416H10.5244V4.6875H10.3643L10.3633 4.68848H10.5244V4.80371V4.80469V4.89648H10.1396L10.1377 4.89746H10.5244V4.91992H10.1035L10.1016 4.9209H10.5244V4.94336H10.0674L10.0654 4.94434H10.5244V4.9668H10.0312L10.0293 4.96777H10.5244V5.05957H9.8418L9.83984 5.06055H10.5244V5.08301H9.78613L9.78418 5.08398H10.5244V5.10645H9.72363C9.72266 5.10679 9.72167 5.10707 9.7207 5.10742H10.5244V5.22266H9.25781C9.25554 5.223 9.25325 5.22329 9.25098 5.22363H10.5244V5.31543H7.125V5.22363H8.3916C8.38932 5.22329 8.38704 5.223 8.38477 5.22266H7.125V5.10742H7.92285C7.92188 5.10707 7.92089 5.1068 7.91992 5.10645H7.125V5.08398H7.85938L7.85742 5.08301H7.125V5.06055H7.80469L7.80273 5.05957H7.125V4.96777H7.61621L7.61426 4.9668H7.125V4.94434H7.58008L7.57812 4.94336H7.125V4.9209H7.54395L7.54199 4.91992H7.125V4.89746H7.50781L7.50586 4.89648H7.125V4.80469H7.39258L7.3916 4.80371H7.125V4.68848H7.28418L7.2832 4.6875H7.125V4.6416H7.24805L7.24707 4.64062H7.125V4.52539H7.18262V4.52441H7.125V4.50195H7.17188V4.50098H7.125V4.47852H7.16113V4.47754H7.125V4.38574H7.13574V4.38477H7.125V0H10.5244V4.38477Z" fill="url(#paint1_linear_197_19436)"/>
<path d="M7.04688 4.33476L7.06788 9.83417C7.06878 10.0962 7.24107 10.3576 7.58532 10.5578C8.27714 10.96 9.40205 10.96 10.0984 10.5578C10.448 10.3558 10.6227 10.0908 10.6221 9.82577L10.6011 4.32635C10.6017 4.59138 10.427 4.8564 10.0774 5.05839C9.38104 5.46057 8.25613 5.46057 7.56431 5.05839C7.22005 4.8585 7.04748 4.59678 7.04688 4.33476Z" fill="white"/>
<path d="M8.79818 10.857C8.35757 10.851 7.92058 10.7525 7.58532 10.5578C7.24077 10.3576 7.06848 10.0958 7.06788 9.83413L7.04688 4.33472C7.04778 4.59674 7.22005 4.85815 7.56431 5.05835C7.90497 5.25644 8.35067 5.35578 8.79818 5.35879V10.857Z" fill="#DBDEE4"/>
<path d="M8.84038 10.9551C8.36737 10.9551 7.89525 10.8506 7.53629 10.6423C7.17222 10.4307 6.97113 10.1438 6.97053 9.83436L6.94922 4.33525C6.94922 4.28153 6.99274 4.23741 7.04616 4.23741C7.09989 4.23741 7.14341 4.28093 7.14401 4.33435V4.33525C7.14521 4.57206 7.31208 4.79897 7.61342 4.97395C8.27702 5.35962 9.36022 5.35962 10.0286 4.97395C10.3357 4.79686 10.5043 4.56666 10.5034 4.32655C10.5034 4.27283 10.547 4.229 10.6007 4.229C10.6544 4.229 10.6982 4.27253 10.6985 4.32625L10.7195 9.82566C10.7204 10.1387 10.5172 10.4286 10.1472 10.6423C9.78612 10.8506 9.3128 10.9551 8.84038 10.9551ZM7.14611 4.84068L7.16562 9.83347C7.16652 10.0709 7.33279 10.2981 7.63473 10.4734C8.29833 10.8593 9.38153 10.8587 10.0499 10.4734C10.3567 10.296 10.5254 10.0661 10.5248 9.82596L10.5058 4.83198C10.4119 4.94663 10.2843 5.05138 10.1265 5.14262C9.40464 5.55951 8.23291 5.55951 7.51558 5.14262C7.36251 5.05408 7.23855 4.95204 7.14611 4.84068Z" fill="#373B42"/>
<path d="M7.57133 3.60205C6.87502 4.00423 6.87142 4.65583 7.56443 5.05861C8.25625 5.46079 9.38116 5.46079 10.0775 5.05861C10.7726 4.65733 10.7762 4.00573 10.0844 3.60355C9.39137 3.20076 8.26645 3.20076 7.57133 3.60205Z" fill="#FFBE2E"/>
<path d="M8.82073 5.45566C8.34771 5.45566 7.8756 5.35121 7.51693 5.14291C7.15137 4.93042 6.95027 4.64259 6.95117 4.33224C6.95148 4.0201 7.15497 3.73107 7.52414 3.51797C8.24567 3.10138 9.4165 3.10228 10.135 3.51947C10.4997 3.73167 10.7005 4.0192 10.7002 4.32954C10.6999 4.64139 10.4964 4.93042 10.1278 5.14322C9.76676 5.35121 9.29344 5.45566 8.82073 5.45566ZM7.62168 3.68635C7.31524 3.86343 7.14596 4.09274 7.14596 4.33224C7.14566 4.57025 7.31194 4.79806 7.61508 4.97394C8.27868 5.35961 9.36188 5.35961 10.0303 4.97394C10.3361 4.79716 10.5048 4.56815 10.5051 4.32864C10.5054 4.09063 10.3391 3.86313 10.0369 3.68755C9.37268 3.30157 8.28949 3.30127 7.62168 3.68635Z" fill="#373B42"/>
<path d="M4.87532 26.7842C5.17036 26.7842 5.45609 26.717 5.65898 26.5999C5.82195 26.506 5.9153 26.3904 5.9156 26.283C5.9159 26.1767 5.82406 26.0627 5.66408 25.9696C5.46299 25.8526 5.17846 25.7856 4.88372 25.7856C4.58899 25.7856 4.30356 25.8529 4.10067 25.9699C3.93769 26.0642 3.84405 26.1797 3.84375 26.2872C3.84375 26.3934 3.93529 26.5075 4.09496 26.6002C4.29606 26.7173 4.58059 26.7842 4.87532 26.7842Z" fill="#373B42"/>
<defs>
<linearGradient id="paint0_linear_197_19436" x1="91.0259" y1="75.8916" x2="91.2107" y2="81.4513" gradientUnits="userSpaceOnUse">
<stop stop-color="#FFBE2E" stop-opacity="0"/>
<stop offset="1" stop-color="#FFBE2E"/>
</linearGradient>
<linearGradient id="paint1_linear_197_19436" x1="8.82469" y1="-6.84358e-08" x2="9.00955" y2="5.55972" gradientUnits="userSpaceOnUse">
<stop stop-color="#FFBE2E" stop-opacity="0"/>
<stop offset="1" stop-color="#FFBE2E"/>
</linearGradient>
</defs>
</svg>
