<svg width="188" height="188" viewBox="0 0 188 188" fill="none" xmlns="http://www.w3.org/2000/svg">
<path d="M74.0138 73.5135C74.2124 73.6279 74.2124 73.8145 74.0138 73.9289C73.8151 74.0432 73.4961 74.0432 73.2974 73.9289C73.0988 73.8145 73.0988 73.6279 73.2974 73.5135C73.4961 73.3991 73.8151 73.3991 74.0138 73.5135Z" fill="#16110D"/>
<path d="M75.8927 72.4239C76.0913 72.5383 76.0913 72.7249 75.8927 72.8393C75.694 72.9536 75.375 72.9536 75.1763 72.8393C74.9777 72.7249 74.9777 72.5383 75.1763 72.4239C75.375 72.3095 75.694 72.3095 75.8927 72.4239Z" fill="#16110D"/>
<path d="M77.7755 71.3404C77.9741 71.4548 77.9741 71.6414 77.7755 71.7558C77.5768 71.8701 77.2578 71.8701 77.0591 71.7558C76.8605 71.6414 76.8605 71.4548 77.0591 71.3404C77.2578 71.226 77.5768 71.226 77.7755 71.3404Z" fill="#16110D"/>
<path d="M79.6544 70.2569C79.853 70.3713 79.853 70.5579 79.6544 70.6723C79.4557 70.7866 79.1367 70.7866 78.938 70.6723C78.7394 70.5579 78.7394 70.3713 78.938 70.2569C79.1367 70.1425 79.4557 70.1425 79.6544 70.2569Z" fill="#16110D"/>
<path d="M81.5313 69.1672C81.73 69.2816 81.73 69.4682 81.5313 69.5826C81.3327 69.6969 81.0136 69.6969 80.815 69.5826C80.6164 69.4682 80.6164 69.2816 80.815 69.1672C81.0136 69.0528 81.3327 69.0528 81.5313 69.1672Z" fill="#16110D"/>
<path d="M83.4161 68.0838C83.6147 68.1982 83.6147 68.3848 83.4161 68.4992C83.2175 68.6135 82.8984 68.6135 82.6998 68.4992C82.5011 68.3848 82.5011 68.1982 82.6998 68.0838C82.8984 67.9695 83.2175 67.9695 83.4161 68.0838Z" fill="#16110D"/>
<path d="M85.295 67.0002C85.4936 67.1146 85.4936 67.3012 85.295 67.4156C85.0963 67.5299 84.7773 67.5299 84.5787 67.4156C84.38 67.3012 84.38 67.1146 84.5787 67.0002C84.7773 66.8858 85.0963 66.8858 85.295 67.0002Z" fill="#16110D"/>
<path d="M87.172 65.9107C87.3706 66.0251 87.3706 66.2117 87.172 66.3261C86.9733 66.4405 86.6543 66.4405 86.4556 66.3261C86.257 66.2117 86.257 66.0251 86.4556 65.9107C86.6543 65.7964 86.9733 65.7964 87.172 65.9107Z" fill="#16110D"/>
<path d="M89.0509 64.8271C89.2495 64.9415 89.2495 65.1281 89.0509 65.2425C88.8522 65.3568 88.5332 65.3568 88.3345 65.2425C88.1359 65.1281 88.1359 64.9415 88.3345 64.8271C88.5332 64.7127 88.8522 64.7127 89.0509 64.8271Z" fill="#16110D"/>
<path d="M90.9356 63.7437C91.1343 63.8581 91.1343 64.0447 90.9356 64.1591C90.737 64.2735 90.4179 64.2735 90.2193 64.1591C90.0207 64.0447 90.0207 63.8581 90.2193 63.7437C90.4179 63.6294 90.737 63.6294 90.9356 63.7437Z" fill="#16110D"/>
<path d="M92.8126 62.6601C93.0112 62.7745 93.0112 62.9611 92.8126 63.0755C92.6139 63.1898 92.2949 63.1898 92.0963 63.0755C91.8976 62.9611 91.8976 62.7745 92.0963 62.6601C92.2949 62.5457 92.6139 62.5457 92.8126 62.6601Z" fill="#16110D"/>
<path d="M70.2579 73.5135C70.4565 73.6279 70.4565 73.8145 70.2579 73.9289C70.0592 74.0432 69.7402 74.0432 69.5416 73.9289C69.3429 73.8145 69.3429 73.6279 69.5416 73.5135C69.7402 73.3991 70.0592 73.3991 70.2579 73.5135Z" fill="#16110D"/>
<path d="M72.1348 72.4239C72.3335 72.5383 72.3335 72.7249 72.1348 72.8393C71.9362 72.9536 71.6172 72.9536 71.4185 72.8393C71.2199 72.7249 71.2199 72.5383 71.4185 72.4239C71.6172 72.3095 71.9362 72.3095 72.1348 72.4239Z" fill="#16110D"/>
<path d="M74.0138 71.3404C74.2124 71.4548 74.2124 71.6414 74.0138 71.7558C73.8151 71.8701 73.4961 71.8701 73.2974 71.7558C73.0988 71.6414 73.0988 71.4548 73.2974 71.3404C73.4961 71.226 73.8151 71.226 74.0138 71.3404Z" fill="#16110D"/>
<path d="M75.8927 70.2569C76.0913 70.3713 76.0913 70.5579 75.8927 70.6723C75.694 70.7866 75.375 70.7866 75.1763 70.6723C74.9777 70.5579 74.9777 70.3713 75.1763 70.2569C75.375 70.1425 75.694 70.1425 75.8927 70.2569Z" fill="#16110D"/>
<path d="M77.7755 69.1672C77.9741 69.2816 77.9741 69.4682 77.7755 69.5826C77.5768 69.6969 77.2578 69.6969 77.0591 69.5826C76.8605 69.4682 76.8605 69.2816 77.0591 69.1672C77.2578 69.0528 77.5768 69.0528 77.7755 69.1672Z" fill="#16110D"/>
<path d="M79.6544 68.0838C79.853 68.1982 79.853 68.3848 79.6544 68.4992C79.4557 68.6135 79.1367 68.6135 78.938 68.4992C78.7394 68.3848 78.7394 68.1982 78.938 68.0838C79.1367 67.9695 79.4557 67.9695 79.6544 68.0838Z" fill="#16110D"/>
<path d="M81.5313 67.0002C81.73 67.1146 81.73 67.3012 81.5313 67.4156C81.3327 67.5299 81.0136 67.5299 80.815 67.4156C80.6164 67.3012 80.6164 67.1146 80.815 67.0002C81.0136 66.8858 81.3327 66.8858 81.5313 67.0002Z" fill="#16110D"/>
<path d="M83.4161 65.9107C83.6147 66.0251 83.6147 66.2117 83.4161 66.3261C83.2175 66.4405 82.8984 66.4405 82.6998 66.3261C82.5011 66.2117 82.5011 66.0251 82.6998 65.9107C82.8984 65.7964 83.2175 65.7964 83.4161 65.9107Z" fill="#16110D"/>
<path d="M85.295 64.8271C85.4936 64.9415 85.4936 65.1281 85.295 65.2425C85.0963 65.3568 84.7773 65.3568 84.5787 65.2425C84.38 65.1281 84.38 64.9415 84.5787 64.8271C84.7773 64.7127 85.0963 64.7127 85.295 64.8271Z" fill="#16110D"/>
<path d="M87.172 63.7437C87.3706 63.8581 87.3706 64.0447 87.172 64.1591C86.9733 64.2735 86.6543 64.2735 86.4556 64.1591C86.257 64.0447 86.257 63.8581 86.4556 63.7437C86.6543 63.6294 86.9733 63.6294 87.172 63.7437Z" fill="#16110D"/>
<path d="M89.0509 62.6601C89.2495 62.7745 89.2495 62.9611 89.0509 63.0755C88.8522 63.1898 88.5332 63.1898 88.3345 63.0755C88.1359 62.9611 88.1359 62.7745 88.3345 62.6601C88.5332 62.5457 88.8522 62.5457 89.0509 62.6601Z" fill="#16110D"/>
<path d="M90.9356 61.5705C91.1343 61.6849 91.1343 61.8715 90.9356 61.9859C90.737 62.1002 90.4179 62.1002 90.2193 61.9859C90.0207 61.8715 90.0207 61.6849 90.2193 61.5705C90.4179 61.4561 90.737 61.4561 90.9356 61.5705Z" fill="#16110D"/>
<path d="M92.8126 60.487C93.0112 60.6014 93.0112 60.788 92.8126 60.9024C92.6139 61.0168 92.2949 61.0168 92.0963 60.9024C91.8976 60.788 91.8976 60.6014 92.0963 60.487C92.2949 60.3727 92.6139 60.3727 92.8126 60.487Z" fill="#16110D"/>
<path d="M68.3751 72.4239C68.5737 72.5383 68.5737 72.7249 68.3751 72.8393C68.1764 72.9536 67.8574 72.9536 67.6588 72.8393C67.4601 72.7249 67.4601 72.5383 67.6588 72.4239C67.8574 72.3095 68.1764 72.3095 68.3751 72.4239Z" fill="#16110D"/>
<path d="M70.2579 71.3404C70.4565 71.4548 70.4565 71.6414 70.2579 71.7558C70.0592 71.8701 69.7402 71.8701 69.5416 71.7558C69.3429 71.6414 69.3429 71.4548 69.5416 71.3404C69.7402 71.226 70.0592 71.226 70.2579 71.3404Z" fill="#16110D"/>
<path d="M72.1348 70.2569C72.3335 70.3713 72.3335 70.5579 72.1348 70.6723C71.9362 70.7866 71.6172 70.7866 71.4185 70.6723C71.2199 70.5579 71.2199 70.3713 71.4185 70.2569C71.6172 70.1425 71.9362 70.1425 72.1348 70.2569Z" fill="#16110D"/>
<path d="M74.0138 69.1672C74.2124 69.2816 74.2124 69.4682 74.0138 69.5826C73.8151 69.6969 73.4961 69.6969 73.2974 69.5826C73.0988 69.4682 73.0988 69.2816 73.2974 69.1672C73.4961 69.0528 73.8151 69.0528 74.0138 69.1672Z" fill="#16110D"/>
<path d="M75.8927 68.0838C76.0913 68.1982 76.0913 68.3848 75.8927 68.4992C75.694 68.6135 75.375 68.6135 75.1763 68.4992C74.9777 68.3848 74.9777 68.1982 75.1763 68.0838C75.375 67.9695 75.694 67.9695 75.8927 68.0838Z" fill="#16110D"/>
<path d="M77.7755 67.0002C77.9741 67.1146 77.9741 67.3012 77.7755 67.4156C77.5768 67.5299 77.2578 67.5299 77.0591 67.4156C76.8605 67.3012 76.8605 67.1146 77.0591 67.0002C77.2578 66.8858 77.5768 66.8858 77.7755 67.0002Z" fill="#16110D"/>
<path d="M79.6544 65.9107C79.853 66.0251 79.853 66.2117 79.6544 66.3261C79.4557 66.4405 79.1367 66.4405 78.938 66.3261C78.7394 66.2117 78.7394 66.0251 78.938 65.9107C79.1367 65.7964 79.4557 65.7964 79.6544 65.9107Z" fill="#16110D"/>
<path d="M81.5313 64.8271C81.73 64.9415 81.73 65.1281 81.5313 65.2425C81.3327 65.3568 81.0136 65.3568 80.815 65.2425C80.6164 65.1281 80.6164 64.9415 80.815 64.8271C81.0136 64.7127 81.3327 64.7127 81.5313 64.8271Z" fill="#16110D"/>
<path d="M83.4161 63.7437C83.6147 63.8581 83.6147 64.0447 83.4161 64.1591C83.2175 64.2735 82.8984 64.2735 82.6998 64.1591C82.5011 64.0447 82.5011 63.8581 82.6998 63.7437C82.8984 63.6294 83.2175 63.6294 83.4161 63.7437Z" fill="#16110D"/>
<path d="M85.295 62.6601C85.4936 62.7745 85.4936 62.9611 85.295 63.0755C85.0963 63.1898 84.7773 63.1898 84.5787 63.0755C84.38 62.9611 84.38 62.7745 84.5787 62.6601C84.7773 62.5457 85.0963 62.5457 85.295 62.6601Z" fill="#16110D"/>
<path d="M87.172 61.5705C87.3706 61.6849 87.3706 61.8715 87.172 61.9859C86.9733 62.1002 86.6543 62.1002 86.4556 61.9859C86.257 61.8715 86.257 61.6849 86.4556 61.5705C86.6543 61.4561 86.9733 61.4561 87.172 61.5705Z" fill="#16110D"/>
<path d="M89.0509 60.487C89.2495 60.6014 89.2495 60.788 89.0509 60.9024C88.8522 61.0168 88.5332 61.0168 88.3345 60.9024C88.1359 60.788 88.1359 60.6014 88.3345 60.487C88.5332 60.3727 88.8522 60.3727 89.0509 60.487Z" fill="#16110D"/>
<path d="M90.9356 59.4035C91.1343 59.5179 91.1343 59.7045 90.9356 59.8189C90.737 59.9332 90.4179 59.9332 90.2193 59.8189C90.0207 59.7045 90.0207 59.5179 90.2193 59.4035C90.4179 59.2892 90.737 59.2892 90.9356 59.4035Z" fill="#16110D"/>
<path d="M66.4766 71.3283C66.6753 71.4427 66.6753 71.6293 66.4766 71.7437C66.278 71.8581 65.959 71.8581 65.7603 71.7437C65.5617 71.6293 65.5617 71.4427 65.7603 71.3283C65.959 71.214 66.278 71.214 66.4766 71.3283Z" fill="#16110D"/>
<path d="M68.3614 70.2448C68.5601 70.3592 68.5601 70.5458 68.3614 70.6602C68.1628 70.7746 67.8437 70.7746 67.6451 70.6602C67.4464 70.5458 67.4464 70.3592 67.6451 70.2448C67.8437 70.1305 68.1628 70.1305 68.3614 70.2448Z" fill="#16110D"/>
<path d="M70.2403 69.1552C70.439 69.2696 70.439 69.4562 70.2403 69.5706C70.0417 69.685 69.7226 69.685 69.524 69.5706C69.3253 69.4562 69.3253 69.2696 69.524 69.1552C69.7226 69.0409 70.0417 69.0409 70.2403 69.1552Z" fill="#16110D"/>
<path d="M72.1173 68.0717C72.3159 68.1861 72.3159 68.3727 72.1173 68.4871C71.9186 68.6015 71.5996 68.6015 71.4009 68.4871C71.2023 68.3727 71.2023 68.1861 71.4009 68.0717C71.5996 67.9574 71.9186 67.9574 72.1173 68.0717Z" fill="#16110D"/>
<path d="M73.9962 66.9882C74.1948 67.1026 74.1948 67.2892 73.9962 67.4036C73.7975 67.518 73.4785 67.518 73.2798 67.4036C73.0812 67.2892 73.0812 67.1026 73.2798 66.9882C73.4785 66.8739 73.7975 66.8739 73.9962 66.9882Z" fill="#16110D"/>
<path d="M75.8809 65.9046C76.0796 66.019 76.0796 66.2056 75.8809 66.32C75.6823 66.4344 75.3633 66.4344 75.1646 66.32C74.966 66.2056 74.966 66.019 75.1646 65.9046C75.3633 65.7903 75.6823 65.7903 75.8809 65.9046Z" fill="#16110D"/>
<path d="M77.7579 64.8151C77.9565 64.9295 77.9565 65.1161 77.7579 65.2305C77.5592 65.3449 77.2402 65.3449 77.0416 65.2305C76.8429 65.1161 76.8429 64.9295 77.0416 64.8151C77.2402 64.7008 77.5592 64.7008 77.7579 64.8151Z" fill="#16110D"/>
<path d="M79.6348 63.7317C79.8335 63.846 79.8335 64.0326 79.6348 64.147C79.4362 64.2614 79.1172 64.2614 78.9185 64.147C78.7199 64.0326 78.7199 63.846 78.9185 63.7317C79.1172 63.6173 79.4362 63.6173 79.6348 63.7317Z" fill="#16110D"/>
<path d="M81.5196 62.6482C81.7183 62.7625 81.7183 62.9491 81.5196 63.0635C81.321 63.1779 81.0019 63.1779 80.8033 63.0635C80.6046 62.9491 80.6046 62.7625 80.8033 62.6482C81.0019 62.5338 81.321 62.5338 81.5196 62.6482Z" fill="#16110D"/>
<path d="M83.3985 61.5586C83.5972 61.6729 83.5972 61.8595 83.3985 61.9739C83.1999 62.0883 82.8808 62.0883 82.6822 61.9739C82.4835 61.8595 82.4835 61.6729 82.6822 61.5586C82.8808 61.4442 83.1999 61.4442 83.3985 61.5586Z" fill="#16110D"/>
<path d="M85.2774 60.4751C85.4761 60.5894 85.4761 60.776 85.2774 60.8904C85.0788 61.0048 84.7597 61.0048 84.5611 60.8904C84.3624 60.776 84.3624 60.5894 84.5611 60.4751C84.7597 60.3607 85.0788 60.3607 85.2774 60.4751Z" fill="#16110D"/>
<path d="M87.1544 59.3914C87.353 59.5058 87.353 59.6924 87.1544 59.8068C86.9557 59.9212 86.6367 59.9212 86.438 59.8068C86.2394 59.6924 86.2394 59.5058 86.438 59.3914C86.6367 59.2771 86.9557 59.2771 87.1544 59.3914Z" fill="#16110D"/>
<path d="M89.0391 58.302C89.2378 58.4163 89.2378 58.6029 89.0391 58.7173C88.8405 58.8317 88.5215 58.8317 88.3228 58.7173C88.1242 58.6029 88.1242 58.4163 88.3228 58.302C88.5215 58.1876 88.8405 58.1876 89.0391 58.302Z" fill="#16110D"/>
<path d="M64.5997 70.2448C64.7983 70.3592 64.7983 70.5458 64.5997 70.6602C64.401 70.7746 64.082 70.7746 63.8834 70.6602C63.6847 70.5458 63.6847 70.3592 63.8834 70.2448C64.082 70.1305 64.401 70.1305 64.5997 70.2448Z" fill="#16110D"/>
<path d="M66.4766 69.1552C66.6753 69.2696 66.6753 69.4562 66.4766 69.5706C66.278 69.685 65.959 69.685 65.7603 69.5706C65.5617 69.4562 65.5617 69.2696 65.7603 69.1552C65.959 69.0409 66.278 69.0409 66.4766 69.1552Z" fill="#16110D"/>
<path d="M68.3614 68.0717C68.5601 68.1861 68.5601 68.3727 68.3614 68.4871C68.1628 68.6015 67.8437 68.6015 67.6451 68.4871C67.4464 68.3727 67.4464 68.1861 67.6451 68.0717C67.8437 67.9574 68.1628 67.9574 68.3614 68.0717Z" fill="#16110D"/>
<path d="M70.2403 66.9882C70.439 67.1026 70.439 67.2892 70.2403 67.4036C70.0417 67.518 69.7226 67.518 69.524 67.4036C69.3253 67.2892 69.3253 67.1026 69.524 66.9882C69.7226 66.8739 70.0417 66.8739 70.2403 66.9882Z" fill="#16110D"/>
<path d="M72.1173 65.9046C72.3159 66.019 72.3159 66.2056 72.1173 66.32C71.9186 66.4344 71.5996 66.4344 71.4009 66.32C71.2023 66.2056 71.2023 66.019 71.4009 65.9046C71.5996 65.7903 71.9186 65.7903 72.1173 65.9046Z" fill="#16110D"/>
<path d="M73.9962 64.8151C74.1948 64.9295 74.1948 65.1161 73.9962 65.2305C73.7975 65.3449 73.4785 65.3449 73.2798 65.2305C73.0812 65.1161 73.0812 64.9295 73.2798 64.8151C73.4785 64.7008 73.7975 64.7008 73.9962 64.8151Z" fill="#16110D"/>
<path d="M75.8809 63.7317C76.0796 63.846 76.0796 64.0326 75.8809 64.147C75.6823 64.2614 75.3633 64.2614 75.1646 64.147C74.966 64.0326 74.966 63.846 75.1646 63.7317C75.3633 63.6173 75.6823 63.6173 75.8809 63.7317Z" fill="#16110D"/>
<path d="M77.7579 62.6482C77.9565 62.7625 77.9565 62.9491 77.7579 63.0635C77.5592 63.1779 77.2402 63.1779 77.0416 63.0635C76.8429 62.9491 76.8429 62.7625 77.0416 62.6482C77.2402 62.5338 77.5592 62.5338 77.7579 62.6482Z" fill="#16110D"/>
<path d="M79.6348 61.5586C79.8335 61.6729 79.8335 61.8595 79.6348 61.9739C79.4362 62.0883 79.1172 62.0883 78.9185 61.9739C78.7199 61.8595 78.7199 61.6729 78.9185 61.5586C79.1172 61.4442 79.4362 61.4442 79.6348 61.5586Z" fill="#16110D"/>
<path d="M81.5196 60.4751C81.7183 60.5894 81.7183 60.776 81.5196 60.8904C81.321 61.0048 81.0019 61.0048 80.8033 60.8904C80.6046 60.776 80.6046 60.5894 80.8033 60.4751C81.0019 60.3607 81.321 60.3607 81.5196 60.4751Z" fill="#16110D"/>
<path d="M83.3985 59.3914C83.5972 59.5058 83.5972 59.6924 83.3985 59.8068C83.1999 59.9212 82.8808 59.9212 82.6822 59.8068C82.4835 59.6924 82.4835 59.5058 82.6822 59.3914C82.8808 59.2771 83.1999 59.2771 83.3985 59.3914Z" fill="#16110D"/>
<path d="M85.2774 58.302C85.4761 58.4163 85.4761 58.6029 85.2774 58.7173C85.0788 58.8317 84.7597 58.8317 84.5611 58.7173C84.3624 58.6029 84.3624 58.4163 84.5611 58.302C84.7597 58.1876 85.0788 58.1876 85.2774 58.302Z" fill="#16110D"/>
<path d="M87.1544 57.2183C87.353 57.3327 87.353 57.5193 87.1544 57.6337C86.9557 57.7481 86.6367 57.7481 86.438 57.6337C86.2394 57.5193 86.2394 57.3327 86.438 57.2183C86.6367 57.104 86.9557 57.104 87.1544 57.2183Z" fill="#16110D"/>
<path d="M62.7208 69.1552C62.9194 69.2696 62.9194 69.4562 62.7208 69.5706C62.5221 69.685 62.2031 69.685 62.0045 69.5706C61.8058 69.4562 61.8058 69.2696 62.0045 69.1552C62.2031 69.0409 62.5221 69.0409 62.7208 69.1552Z" fill="#16110D"/>
<path d="M64.5997 68.0717C64.7983 68.1861 64.7983 68.3727 64.5997 68.4871C64.401 68.6015 64.082 68.6015 63.8834 68.4871C63.6847 68.3727 63.6847 68.1861 63.8834 68.0717C64.082 67.9574 64.401 67.9574 64.5997 68.0717Z" fill="#16110D"/>
<path d="M66.4766 66.9882C66.6753 67.1026 66.6753 67.2892 66.4766 67.4036C66.278 67.518 65.959 67.518 65.7603 67.4036C65.5617 67.2892 65.5617 67.1026 65.7603 66.9882C65.959 66.8739 66.278 66.8739 66.4766 66.9882Z" fill="#16110D"/>
<path d="M68.3614 65.9046C68.5601 66.019 68.5601 66.2056 68.3614 66.32C68.1628 66.4344 67.8437 66.4344 67.6451 66.32C67.4464 66.2056 67.4464 66.019 67.6451 65.9046C67.8437 65.7903 68.1628 65.7903 68.3614 65.9046Z" fill="#16110D"/>
<path d="M70.2403 64.8151C70.439 64.9295 70.439 65.1161 70.2403 65.2305C70.0417 65.3449 69.7226 65.3449 69.524 65.2305C69.3253 65.1161 69.3253 64.9295 69.524 64.8151C69.7226 64.7008 70.0417 64.7008 70.2403 64.8151Z" fill="#16110D"/>
<path d="M72.1173 63.7317C72.3159 63.846 72.3159 64.0326 72.1173 64.147C71.9186 64.2614 71.5996 64.2614 71.4009 64.147C71.2023 64.0326 71.2023 63.846 71.4009 63.7317C71.5996 63.6173 71.9186 63.6173 72.1173 63.7317Z" fill="#16110D"/>
<path d="M73.9962 62.6482C74.1948 62.7625 74.1948 62.9491 73.9962 63.0635C73.7975 63.1779 73.4785 63.1779 73.2798 63.0635C73.0812 62.9491 73.0812 62.7625 73.2798 62.6482C73.4785 62.5338 73.7975 62.5338 73.9962 62.6482Z" fill="#16110D"/>
<path d="M75.8809 61.5586C76.0796 61.6729 76.0796 61.8595 75.8809 61.9739C75.6823 62.0883 75.3633 62.0883 75.1646 61.9739C74.966 61.8595 74.966 61.6729 75.1646 61.5586C75.3633 61.4442 75.6823 61.4442 75.8809 61.5586Z" fill="#16110D"/>
<path d="M77.7579 60.4751C77.9565 60.5894 77.9565 60.776 77.7579 60.8904C77.5592 61.0048 77.2402 61.0048 77.0416 60.8904C76.8429 60.776 76.8429 60.5894 77.0416 60.4751C77.2402 60.3607 77.5592 60.3607 77.7579 60.4751Z" fill="#16110D"/>
<path d="M79.6348 59.3914C79.8335 59.5058 79.8335 59.6924 79.6348 59.8068C79.4362 59.9212 79.1172 59.9212 78.9185 59.8068C78.7199 59.6924 78.7199 59.5058 78.9185 59.3914C79.1172 59.2771 79.4362 59.2771 79.6348 59.3914Z" fill="#16110D"/>
<path d="M81.5196 58.302C81.7183 58.4163 81.7183 58.6029 81.5196 58.7173C81.321 58.8317 81.0019 58.8317 80.8033 58.7173C80.6046 58.6029 80.6046 58.4163 80.8033 58.302C81.0019 58.1876 81.321 58.1876 81.5196 58.302Z" fill="#16110D"/>
<path d="M83.3985 57.2183C83.5972 57.3327 83.5972 57.5193 83.3985 57.6337C83.1999 57.7481 82.8808 57.7481 82.6822 57.6337C82.4835 57.5193 82.4835 57.3327 82.6822 57.2183C82.8808 57.104 83.1999 57.104 83.3985 57.2183Z" fill="#16110D"/>
<path d="M85.2774 56.135C85.4761 56.2493 85.4761 56.436 85.2774 56.5503C85.0788 56.6647 84.7597 56.6647 84.5611 56.5503C84.3624 56.436 84.3624 56.2493 84.5611 56.135C84.7597 56.0206 85.0788 56.0206 85.2774 56.135Z" fill="#16110D"/>
<path d="M60.836 68.0717C61.0347 68.1861 61.0347 68.3727 60.836 68.4871C60.6374 68.6015 60.3183 68.6015 60.1197 68.4871C59.921 68.3727 59.921 68.1861 60.1197 68.0717C60.3183 67.9574 60.6374 67.9574 60.836 68.0717Z" fill="#16110D"/>
<path d="M62.7208 66.9882C62.9194 67.1026 62.9194 67.2892 62.7208 67.4036C62.5221 67.518 62.2031 67.518 62.0045 67.4036C61.8058 67.2892 61.8058 67.1026 62.0045 66.9882C62.2031 66.8739 62.5221 66.8739 62.7208 66.9882Z" fill="#16110D"/>
<path d="M64.5997 65.9046C64.7983 66.019 64.7983 66.2056 64.5997 66.32C64.401 66.4344 64.082 66.4344 63.8834 66.32C63.6847 66.2056 63.6847 66.019 63.8834 65.9046C64.082 65.7903 64.401 65.7903 64.5997 65.9046Z" fill="#16110D"/>
<path d="M66.4766 64.8151C66.6753 64.9295 66.6753 65.1161 66.4766 65.2305C66.278 65.3449 65.959 65.3449 65.7603 65.2305C65.5617 65.1161 65.5617 64.9295 65.7603 64.8151C65.959 64.7008 66.278 64.7008 66.4766 64.8151Z" fill="#16110D"/>
<path d="M68.3614 63.7317C68.5601 63.846 68.5601 64.0326 68.3614 64.147C68.1628 64.2614 67.8437 64.2614 67.6451 64.147C67.4464 64.0326 67.4464 63.846 67.6451 63.7317C67.8437 63.6173 68.1628 63.6173 68.3614 63.7317Z" fill="#16110D"/>
<path d="M70.2403 62.6482C70.439 62.7625 70.439 62.9491 70.2403 63.0635C70.0417 63.1779 69.7226 63.1779 69.524 63.0635C69.3253 62.9491 69.3253 62.7625 69.524 62.6482C69.7226 62.5338 70.0417 62.5338 70.2403 62.6482Z" fill="#16110D"/>
<path d="M72.1173 61.5586C72.3159 61.6729 72.3159 61.8595 72.1173 61.9739C71.9186 62.0883 71.5996 62.0883 71.4009 61.9739C71.2023 61.8595 71.2023 61.6729 71.4009 61.5586C71.5996 61.4442 71.9186 61.4442 72.1173 61.5586Z" fill="#16110D"/>
<path d="M73.9962 60.4751C74.1948 60.5894 74.1948 60.776 73.9962 60.8904C73.7975 61.0048 73.4785 61.0048 73.2798 60.8904C73.0812 60.776 73.0812 60.5894 73.2798 60.4751C73.4785 60.3607 73.7975 60.3607 73.9962 60.4751Z" fill="#16110D"/>
<path d="M75.8809 59.3914C76.0796 59.5058 76.0796 59.6924 75.8809 59.8068C75.6823 59.9212 75.3633 59.9212 75.1646 59.8068C74.966 59.6924 74.966 59.5058 75.1646 59.3914C75.3633 59.2771 75.6823 59.2771 75.8809 59.3914Z" fill="#16110D"/>
<path d="M77.7579 58.302C77.9565 58.4163 77.9565 58.6029 77.7579 58.7173C77.5592 58.8317 77.2402 58.8317 77.0416 58.7173C76.8429 58.6029 76.8429 58.4163 77.0416 58.302C77.2402 58.1876 77.5592 58.1876 77.7579 58.302Z" fill="#16110D"/>
<path d="M79.6348 57.2183C79.8335 57.3327 79.8335 57.5193 79.6348 57.6337C79.4362 57.7481 79.1172 57.7481 78.9185 57.6337C78.7199 57.5193 78.7199 57.3327 78.9185 57.2183C79.1172 57.104 79.4362 57.104 79.6348 57.2183Z" fill="#16110D"/>
<path d="M81.5196 56.135C81.7183 56.2493 81.7183 56.436 81.5196 56.5503C81.321 56.6647 81.0019 56.6647 80.8033 56.5503C80.6046 56.436 80.6046 56.2493 80.8033 56.135C81.0019 56.0206 81.321 56.0206 81.5196 56.135Z" fill="#16110D"/>
<path d="M83.3985 55.0514C83.5972 55.1657 83.5972 55.3523 83.3985 55.4667C83.1999 55.5811 82.8808 55.5811 82.6822 55.4667C82.4835 55.3523 82.4835 55.1657 82.6822 55.0514C82.8808 54.937 83.1999 54.937 83.3985 55.0514Z" fill="#16110D"/>
<path d="M58.9591 66.9882C59.1577 67.1026 59.1577 67.2892 58.9591 67.4036C58.7604 67.518 58.4414 67.518 58.2427 67.4036C58.0441 67.2892 58.0441 67.1026 58.2427 66.9882C58.4414 66.8739 58.7604 66.8739 58.9591 66.9882Z" fill="#16110D"/>
<path d="M60.836 65.9046C61.0347 66.019 61.0347 66.2056 60.836 66.32C60.6374 66.4344 60.3183 66.4344 60.1197 66.32C59.921 66.2056 59.921 66.019 60.1197 65.9046C60.3183 65.7903 60.6374 65.7903 60.836 65.9046Z" fill="#16110D"/>
<path d="M62.7208 64.8151C62.9194 64.9295 62.9194 65.1161 62.7208 65.2305C62.5221 65.3449 62.2031 65.3449 62.0045 65.2305C61.8058 65.1161 61.8058 64.9295 62.0045 64.8151C62.2031 64.7008 62.5221 64.7008 62.7208 64.8151Z" fill="#16110D"/>
<path d="M64.5997 63.7317C64.7983 63.846 64.7983 64.0326 64.5997 64.147C64.401 64.2614 64.082 64.2614 63.8834 64.147C63.6847 64.0326 63.6847 63.846 63.8834 63.7317C64.082 63.6173 64.401 63.6173 64.5997 63.7317Z" fill="#16110D"/>
<path d="M66.4766 62.6482C66.6753 62.7625 66.6753 62.9491 66.4766 63.0635C66.278 63.1779 65.959 63.1779 65.7603 63.0635C65.5617 62.9491 65.5617 62.7625 65.7603 62.6482C65.959 62.5338 66.278 62.5338 66.4766 62.6482Z" fill="#16110D"/>
<path d="M68.3614 61.5586C68.5601 61.6729 68.5601 61.8595 68.3614 61.9739C68.1628 62.0883 67.8437 62.0883 67.6451 61.9739C67.4464 61.8595 67.4464 61.6729 67.6451 61.5586C67.8437 61.4442 68.1628 61.4442 68.3614 61.5586Z" fill="#16110D"/>
<path d="M70.2403 60.4751C70.439 60.5894 70.439 60.776 70.2403 60.8904C70.0417 61.0048 69.7226 61.0048 69.524 60.8904C69.3253 60.776 69.3253 60.5894 69.524 60.4751C69.7226 60.3607 70.0417 60.3607 70.2403 60.4751Z" fill="#16110D"/>
<path d="M72.1173 59.3914C72.3159 59.5058 72.3159 59.6924 72.1173 59.8068C71.9186 59.9212 71.5996 59.9212 71.4009 59.8068C71.2023 59.6924 71.2023 59.5058 71.4009 59.3914C71.5996 59.2771 71.9186 59.2771 72.1173 59.3914Z" fill="#16110D"/>
<path d="M73.9962 58.302C74.1948 58.4163 74.1948 58.6029 73.9962 58.7173C73.7975 58.8317 73.4785 58.8317 73.2798 58.7173C73.0812 58.6029 73.0812 58.4163 73.2798 58.302C73.4785 58.1876 73.7975 58.1876 73.9962 58.302Z" fill="#16110D"/>
<path d="M75.8809 57.2183C76.0796 57.3327 76.0796 57.5193 75.8809 57.6337C75.6823 57.7481 75.3633 57.7481 75.1646 57.6337C74.966 57.5193 74.966 57.3327 75.1646 57.2183C75.3633 57.104 75.6823 57.104 75.8809 57.2183Z" fill="#16110D"/>
<path d="M77.7579 56.135C77.9565 56.2493 77.9565 56.436 77.7579 56.5503C77.5592 56.6647 77.2402 56.6647 77.0416 56.5503C76.8429 56.436 76.8429 56.2493 77.0416 56.135C77.2402 56.0206 77.5592 56.0206 77.7579 56.135Z" fill="#16110D"/>
<path d="M79.6348 55.0514C79.8335 55.1657 79.8335 55.3523 79.6348 55.4667C79.4362 55.5811 79.1172 55.5811 78.9185 55.4667C78.7199 55.3523 78.7199 55.1657 78.9185 55.0514C79.1172 54.937 79.4362 54.937 79.6348 55.0514Z" fill="#16110D"/>
<path d="M81.5196 53.9619C81.7183 54.0763 81.7183 54.2629 81.5196 54.3772C81.321 54.4916 81.0019 54.4916 80.8033 54.3772C80.6046 54.2629 80.6046 54.0763 80.8033 53.9619C81.0019 53.8475 81.321 53.8475 81.5196 53.9619Z" fill="#16110D"/>
<path d="M57.0802 65.9046C57.2788 66.019 57.2788 66.2056 57.0802 66.32C56.8815 66.4344 56.5625 66.4344 56.3638 66.32C56.1652 66.2056 56.1652 66.019 56.3638 65.9046C56.5625 65.7903 56.8815 65.7903 57.0802 65.9046Z" fill="#16110D"/>
<path d="M58.9591 64.8151C59.1577 64.9295 59.1577 65.1161 58.9591 65.2305C58.7604 65.3449 58.4414 65.3449 58.2427 65.2305C58.0441 65.1161 58.0441 64.9295 58.2427 64.8151C58.4414 64.7008 58.7604 64.7008 58.9591 64.8151Z" fill="#16110D"/>
<path d="M60.836 63.7317C61.0347 63.846 61.0347 64.0326 60.836 64.147C60.6374 64.2614 60.3183 64.2614 60.1197 64.147C59.921 64.0326 59.921 63.846 60.1197 63.7317C60.3183 63.6173 60.6374 63.6173 60.836 63.7317Z" fill="#16110D"/>
<path d="M62.7208 62.6482C62.9194 62.7625 62.9194 62.9491 62.7208 63.0635C62.5221 63.1779 62.2031 63.1779 62.0045 63.0635C61.8058 62.9491 61.8058 62.7625 62.0045 62.6482C62.2031 62.5338 62.5221 62.5338 62.7208 62.6482Z" fill="#16110D"/>
<path d="M64.5997 61.5586C64.7983 61.6729 64.7983 61.8595 64.5997 61.9739C64.401 62.0883 64.082 62.0883 63.8834 61.9739C63.6847 61.8595 63.6847 61.6729 63.8834 61.5586C64.082 61.4442 64.401 61.4442 64.5997 61.5586Z" fill="#16110D"/>
<path d="M66.4766 60.4751C66.6753 60.5894 66.6753 60.776 66.4766 60.8904C66.278 61.0048 65.959 61.0048 65.7603 60.8904C65.5617 60.776 65.5617 60.5894 65.7603 60.4751C65.959 60.3607 66.278 60.3607 66.4766 60.4751Z" fill="#16110D"/>
<path d="M68.3614 59.3914C68.5601 59.5058 68.5601 59.6924 68.3614 59.8068C68.1628 59.9212 67.8437 59.9212 67.6451 59.8068C67.4464 59.6924 67.4464 59.5058 67.6451 59.3914C67.8437 59.2771 68.1628 59.2771 68.3614 59.3914Z" fill="#16110D"/>
<path d="M70.2403 58.302C70.439 58.4163 70.439 58.6029 70.2403 58.7173C70.0417 58.8317 69.7226 58.8317 69.524 58.7173C69.3253 58.6029 69.3253 58.4163 69.524 58.302C69.7226 58.1876 70.0417 58.1876 70.2403 58.302Z" fill="#16110D"/>
<path d="M72.1173 57.2183C72.3159 57.3327 72.3159 57.5193 72.1173 57.6337C71.9186 57.7481 71.5996 57.7481 71.4009 57.6337C71.2023 57.5193 71.2023 57.3327 71.4009 57.2183C71.5996 57.104 71.9186 57.104 72.1173 57.2183Z" fill="#16110D"/>
<path d="M73.9962 56.135C74.1948 56.2493 74.1948 56.436 73.9962 56.5503C73.7975 56.6647 73.4785 56.6647 73.2798 56.5503C73.0812 56.436 73.0812 56.2493 73.2798 56.135C73.4785 56.0206 73.7975 56.0206 73.9962 56.135Z" fill="#16110D"/>
<path d="M75.8809 55.0514C76.0796 55.1657 76.0796 55.3523 75.8809 55.4667C75.6823 55.5811 75.3633 55.5811 75.1646 55.4667C74.966 55.3523 74.966 55.1657 75.1646 55.0514C75.3633 54.937 75.6823 54.937 75.8809 55.0514Z" fill="#16110D"/>
<path d="M77.7579 53.9619C77.9565 54.0763 77.9565 54.2629 77.7579 54.3772C77.5592 54.4916 77.2402 54.4916 77.0416 54.3772C76.8429 54.2629 76.8429 54.0763 77.0416 53.9619C77.2402 53.8475 77.5592 53.8475 77.7579 53.9619Z" fill="#16110D"/>
<path d="M79.6348 52.8783C79.8335 52.9926 79.8335 53.1792 79.6348 53.2936C79.4362 53.408 79.1172 53.408 78.9185 53.2936C78.7199 53.1792 78.7199 52.9926 78.9185 52.8783C79.1172 52.7639 79.4362 52.7639 79.6348 52.8783Z" fill="#16110D"/>
<path d="M55.2032 64.8151C55.4019 64.9295 55.4019 65.1161 55.2032 65.2305C55.0046 65.3449 54.6855 65.3449 54.4869 65.2305C54.2882 65.1161 54.2882 64.9295 54.4869 64.8151C54.6855 64.7008 55.0046 64.7008 55.2032 64.8151Z" fill="#16110D"/>
<path d="M57.0802 63.7317C57.2788 63.846 57.2788 64.0326 57.0802 64.147C56.8815 64.2614 56.5625 64.2614 56.3638 64.147C56.1652 64.0326 56.1652 63.846 56.3638 63.7317C56.5625 63.6173 56.8815 63.6173 57.0802 63.7317Z" fill="#16110D"/>
<path d="M58.9591 62.6482C59.1577 62.7625 59.1577 62.9491 58.9591 63.0635C58.7604 63.1779 58.4414 63.1779 58.2427 63.0635C58.0441 62.9491 58.0441 62.7625 58.2427 62.6482C58.4414 62.5338 58.7604 62.5338 58.9591 62.6482Z" fill="#16110D"/>
<path d="M60.836 61.5586C61.0347 61.6729 61.0347 61.8595 60.836 61.9739C60.6374 62.0883 60.3183 62.0883 60.1197 61.9739C59.921 61.8595 59.921 61.6729 60.1197 61.5586C60.3183 61.4442 60.6374 61.4442 60.836 61.5586Z" fill="#16110D"/>
<path d="M62.7208 60.4751C62.9194 60.5894 62.9194 60.776 62.7208 60.8904C62.5221 61.0048 62.2031 61.0048 62.0045 60.8904C61.8058 60.776 61.8058 60.5894 62.0045 60.4751C62.2031 60.3607 62.5221 60.3607 62.7208 60.4751Z" fill="#16110D"/>
<path d="M64.5997 59.3914C64.7983 59.5058 64.7983 59.6924 64.5997 59.8068C64.401 59.9212 64.082 59.9212 63.8834 59.8068C63.6847 59.6924 63.6847 59.5058 63.8834 59.3914C64.082 59.2771 64.401 59.2771 64.5997 59.3914Z" fill="#16110D"/>
<path d="M66.4766 58.302C66.6753 58.4163 66.6753 58.6029 66.4766 58.7173C66.278 58.8317 65.959 58.8317 65.7603 58.7173C65.5617 58.6029 65.5617 58.4163 65.7603 58.302C65.959 58.1876 66.278 58.1876 66.4766 58.302Z" fill="#16110D"/>
<path d="M68.3614 57.2183C68.5601 57.3327 68.5601 57.5193 68.3614 57.6337C68.1628 57.7481 67.8437 57.7481 67.6451 57.6337C67.4464 57.5193 67.4464 57.3327 67.6451 57.2183C67.8437 57.104 68.1628 57.104 68.3614 57.2183Z" fill="#16110D"/>
<path d="M70.2403 56.135C70.439 56.2493 70.439 56.436 70.2403 56.5503C70.0417 56.6647 69.7226 56.6647 69.524 56.5503C69.3253 56.436 69.3253 56.2493 69.524 56.135C69.7226 56.0206 70.0417 56.0206 70.2403 56.135Z" fill="#16110D"/>
<path d="M72.1173 55.0514C72.3159 55.1657 72.3159 55.3523 72.1173 55.4667C71.9186 55.5811 71.5996 55.5811 71.4009 55.4667C71.2023 55.3523 71.2023 55.1657 71.4009 55.0514C71.5996 54.937 71.9186 54.937 72.1173 55.0514Z" fill="#16110D"/>
<path d="M74.002 53.9619C74.2007 54.0763 74.2007 54.2629 74.002 54.3772C73.8034 54.4916 73.4844 54.4916 73.2857 54.3772C73.0871 54.2629 73.0871 54.0763 73.2857 53.9619C73.4844 53.8475 73.8034 53.8475 74.002 53.9619Z" fill="#16110D"/>
<path d="M75.8809 52.8783C76.0796 52.9926 76.0796 53.1792 75.8809 53.2936C75.6823 53.408 75.3633 53.408 75.1646 53.2936C74.966 53.1792 74.966 52.9926 75.1646 52.8783C75.3633 52.7639 75.6823 52.7639 75.8809 52.8783Z" fill="#16110D"/>
<path d="M77.7579 51.7948C77.9565 51.9091 77.9565 52.0957 77.7579 52.2101C77.5592 52.3245 77.2402 52.3245 77.0416 52.2101C76.8429 52.0957 76.8429 51.9091 77.0416 51.7948C77.2402 51.6804 77.5592 51.6804 77.7579 51.7948Z" fill="#16110D"/>
<path d="M53.3184 63.7317C53.5171 63.846 53.5171 64.0326 53.3184 64.147C53.1198 64.2614 52.8008 64.2614 52.6021 64.147C52.4035 64.0326 52.4035 63.846 52.6021 63.7317C52.8008 63.6173 53.1198 63.6173 53.3184 63.7317Z" fill="#16110D"/>
<path d="M55.2032 62.6482C55.4019 62.7625 55.4019 62.9491 55.2032 63.0635C55.0046 63.1779 54.6855 63.1779 54.4869 63.0635C54.2882 62.9491 54.2882 62.7625 54.4869 62.6482C54.6855 62.5338 55.0046 62.5338 55.2032 62.6482Z" fill="#16110D"/>
<path d="M57.0802 61.5586C57.2788 61.6729 57.2788 61.8595 57.0802 61.9739C56.8815 62.0883 56.5625 62.0883 56.3638 61.9739C56.1652 61.8595 56.1652 61.6729 56.3638 61.5586C56.5625 61.4442 56.8815 61.4442 57.0802 61.5586Z" fill="#16110D"/>
<path d="M58.9591 60.4751C59.1577 60.5894 59.1577 60.776 58.9591 60.8904C58.7604 61.0048 58.4414 61.0048 58.2427 60.8904C58.0441 60.776 58.0441 60.5894 58.2427 60.4751C58.4414 60.3607 58.7604 60.3607 58.9591 60.4751Z" fill="#16110D"/>
<path d="M60.836 59.3914C61.0347 59.5058 61.0347 59.6924 60.836 59.8068C60.6374 59.9212 60.3183 59.9212 60.1197 59.8068C59.921 59.6924 59.921 59.5058 60.1197 59.3914C60.3183 59.2771 60.6374 59.2771 60.836 59.3914Z" fill="#16110D"/>
<path d="M62.7208 58.302C62.9194 58.4163 62.9194 58.6029 62.7208 58.7173C62.5221 58.8317 62.2031 58.8317 62.0045 58.7173C61.8058 58.6029 61.8058 58.4163 62.0045 58.302C62.2031 58.1876 62.5221 58.1876 62.7208 58.302Z" fill="#16110D"/>
<path d="M64.5997 57.2183C64.7983 57.3327 64.7983 57.5193 64.5997 57.6337C64.401 57.7481 64.082 57.7481 63.8834 57.6337C63.6847 57.5193 63.6847 57.3327 63.8834 57.2183C64.082 57.104 64.401 57.104 64.5997 57.2183Z" fill="#16110D"/>
<path d="M66.4766 56.135C66.6753 56.2493 66.6753 56.436 66.4766 56.5503C66.278 56.6647 65.959 56.6647 65.7603 56.5503C65.5617 56.436 65.5617 56.2493 65.7603 56.135C65.959 56.0206 66.278 56.0206 66.4766 56.135Z" fill="#16110D"/>
<path d="M68.3614 55.0514C68.5601 55.1657 68.5601 55.3523 68.3614 55.4667C68.1628 55.5811 67.8437 55.5811 67.6451 55.4667C67.4464 55.3523 67.4464 55.1657 67.6451 55.0514C67.8437 54.937 68.1628 54.937 68.3614 55.0514Z" fill="#16110D"/>
<path d="M70.2403 53.9619C70.439 54.0763 70.439 54.2629 70.2403 54.3772C70.0417 54.4916 69.7226 54.4916 69.524 54.3772C69.3253 54.2629 69.3253 54.0763 69.524 53.9619C69.7226 53.8475 70.0417 53.8475 70.2403 53.9619Z" fill="#16110D"/>
<path d="M72.1173 52.8783C72.3159 52.9926 72.3159 53.1792 72.1173 53.2936C71.9186 53.408 71.5996 53.408 71.4009 53.2936C71.2023 53.1792 71.2023 52.9926 71.4009 52.8783C71.5996 52.7639 71.9186 52.7639 72.1173 52.8783Z" fill="#16110D"/>
<path d="M74.002 51.7948C74.2007 51.9091 74.2007 52.0957 74.002 52.2101C73.8034 52.3245 73.4844 52.3245 73.2857 52.2101C73.0871 52.0957 73.0871 51.9091 73.2857 51.7948C73.4844 51.6804 73.8034 51.6804 74.002 51.7948Z" fill="#16110D"/>
<path d="M75.8809 50.7052C76.0796 50.8195 76.0796 51.0061 75.8809 51.1205C75.6823 51.2349 75.3633 51.2349 75.1646 51.1205C74.966 51.0061 74.966 50.8195 75.1646 50.7052C75.3633 50.5908 75.6823 50.5908 75.8809 50.7052Z" fill="#16110D"/>
<path d="M51.422 62.6361C51.6206 62.7504 51.6206 62.9371 51.422 63.0514C51.2233 63.1658 50.9043 63.1658 50.7056 63.0514C50.507 62.9371 50.507 62.7504 50.7056 62.6361C50.9043 62.5217 51.2233 62.5217 51.422 62.6361Z" fill="#16110D"/>
<path d="M53.3087 61.5465C53.5073 61.6608 53.5073 61.8475 53.3087 61.9618C53.11 62.0762 52.791 62.0762 52.5923 61.9618C52.3937 61.8475 52.3937 61.6608 52.5923 61.5465C52.791 61.4321 53.11 61.4321 53.3087 61.5465Z" fill="#16110D"/>
<path d="M55.1837 60.463C55.3823 60.5773 55.3823 60.764 55.1837 60.8783C54.985 60.9927 54.666 60.9927 54.4673 60.8783C54.2687 60.764 54.2687 60.5773 54.4673 60.463C54.666 60.3486 54.985 60.3486 55.1837 60.463Z" fill="#16110D"/>
<path d="M57.0626 59.3795C57.2612 59.4939 57.2612 59.6805 57.0626 59.7948C56.8639 59.9092 56.5449 59.9092 56.3463 59.7948C56.1476 59.6805 56.1476 59.4939 56.3463 59.3795C56.5449 59.2651 56.8639 59.2651 57.0626 59.3795Z" fill="#16110D"/>
<path d="M58.9473 58.2959C59.146 58.4102 59.146 58.5968 58.9473 58.7112C58.7487 58.8256 58.4297 58.8256 58.231 58.7112C58.0324 58.5968 58.0324 58.4102 58.231 58.2959C58.4297 58.1815 58.7487 58.1815 58.9473 58.2959Z" fill="#16110D"/>
<path d="M60.8243 57.2064C61.0229 57.3208 61.0229 57.5074 60.8243 57.6217C60.6257 57.7361 60.3066 57.7361 60.108 57.6217C59.9093 57.5074 59.9093 57.3208 60.108 57.2064C60.3066 57.092 60.6257 57.092 60.8243 57.2064Z" fill="#16110D"/>
<path d="M62.7032 56.1229C62.9019 56.2373 62.9019 56.4239 62.7032 56.5382C62.5046 56.6526 62.1855 56.6526 61.9869 56.5382C61.7882 56.4239 61.7882 56.2373 61.9869 56.1229C62.1855 56.0085 62.5046 56.0085 62.7032 56.1229Z" fill="#16110D"/>
<path d="M64.5802 55.0393C64.7788 55.1536 64.7788 55.3402 64.5802 55.4546C64.3815 55.569 64.0625 55.569 63.8638 55.4546C63.6652 55.3402 63.6652 55.1536 63.8638 55.0393C64.0625 54.9249 64.3815 54.9249 64.5802 55.0393Z" fill="#16110D"/>
<path d="M66.4649 53.9498C66.6636 54.0642 66.6636 54.2508 66.4649 54.3651C66.2663 54.4795 65.9472 54.4795 65.7486 54.3651C65.5499 54.2508 65.5499 54.0642 65.7486 53.9498C65.9472 53.8354 66.2663 53.8354 66.4649 53.9498Z" fill="#16110D"/>
<path d="M68.3438 52.8663C68.5425 52.9807 68.5425 53.1673 68.3438 53.2816C68.1452 53.396 67.8261 53.396 67.6275 53.2816C67.4289 53.1673 67.4289 52.9807 67.6275 52.8663C67.8261 52.7519 68.1452 52.7519 68.3438 52.8663Z" fill="#16110D"/>
<path d="M51.422 60.463C51.6206 60.5773 51.6206 60.764 51.422 60.8783C51.2233 60.9927 50.9043 60.9927 50.7056 60.8783C50.507 60.764 50.507 60.5773 50.7056 60.463C50.9043 60.3486 51.2233 60.3486 51.422 60.463Z" fill="#16110D"/>
<path d="M53.3087 59.3795C53.5073 59.4939 53.5073 59.6805 53.3087 59.7948C53.11 59.9092 52.791 59.9092 52.5923 59.7948C52.3937 59.6805 52.3937 59.4939 52.5923 59.3795C52.791 59.2651 53.11 59.2651 53.3087 59.3795Z" fill="#16110D"/>
<path d="M55.1837 58.2959C55.3823 58.4102 55.3823 58.5968 55.1837 58.7112C54.985 58.8256 54.666 58.8256 54.4673 58.7112C54.2687 58.5968 54.2687 58.4102 54.4673 58.2959C54.666 58.1815 54.985 58.1815 55.1837 58.2959Z" fill="#16110D"/>
<path d="M57.0626 57.2064C57.2612 57.3208 57.2612 57.5074 57.0626 57.6217C56.8639 57.7361 56.5449 57.7361 56.3463 57.6217C56.1476 57.5074 56.1476 57.3208 56.3463 57.2064C56.5449 57.092 56.8639 57.092 57.0626 57.2064Z" fill="#16110D"/>
<path d="M58.9473 56.1229C59.146 56.2373 59.146 56.4239 58.9473 56.5382C58.7487 56.6526 58.4297 56.6526 58.231 56.5382C58.0324 56.4239 58.0324 56.2373 58.231 56.1229C58.4297 56.0085 58.7487 56.0085 58.9473 56.1229Z" fill="#16110D"/>
<path d="M60.8243 55.0393C61.0229 55.1536 61.0229 55.3402 60.8243 55.4546C60.6257 55.569 60.3066 55.569 60.108 55.4546C59.9093 55.3402 59.9093 55.1536 60.108 55.0393C60.3066 54.9249 60.6257 54.9249 60.8243 55.0393Z" fill="#16110D"/>
<path d="M62.7032 53.9498C62.9019 54.0642 62.9019 54.2508 62.7032 54.3651C62.5046 54.4795 62.1855 54.4795 61.9869 54.3651C61.7882 54.2508 61.7882 54.0642 61.9869 53.9498C62.1855 53.8354 62.5046 53.8354 62.7032 53.9498Z" fill="#16110D"/>
<path d="M64.5802 52.8663C64.7788 52.9807 64.7788 53.1673 64.5802 53.2816C64.3815 53.396 64.0625 53.396 63.8638 53.2816C63.6652 53.1673 63.6652 52.9807 63.8638 52.8663C64.0625 52.7519 64.3815 52.7519 64.5802 52.8663Z" fill="#16110D"/>
<path d="M66.4649 51.7827C66.6636 51.8971 66.6636 52.0837 66.4649 52.198C66.2663 52.3124 65.9472 52.3124 65.7486 52.198C65.5499 52.0837 65.5499 51.8971 65.7486 51.7827C65.9472 51.6683 66.2663 51.6683 66.4649 51.7827Z" fill="#16110D"/>
<path d="M68.3438 50.6932C68.5425 50.8076 68.5425 50.9942 68.3438 51.1085C68.1452 51.2229 67.8261 51.2229 67.6275 51.1085C67.4289 50.9942 67.4289 50.8076 67.6275 50.6932C67.8261 50.5788 68.1452 50.5788 68.3438 50.6932Z" fill="#16110D"/>
<path d="M69.1919 44.4087L54.3596 35.8428L39.5273 44.4087V61.5284L54.3596 70.0943V53.0107L69.1919 44.4087Z" fill="#FFBE2E"/>
<path d="M69.4871 44.2342L54.3598 35.4998L39.2747 44.2101L39.2266 44.2342V44.5773V61.7031L54.0588 70.2629L54.3538 70.4375L54.6488 70.2629L69.3305 61.7873L69.481 61.7031V44.5773V44.2342H69.4871ZM54.3598 36.186L61.3305 40.2131L47.0942 48.4298L40.1235 44.4088L54.3598 36.192V36.186ZM54.0649 69.5767L39.8285 61.3599V44.9204L54.0649 53.1372V69.5767ZM60.3975 49.1402L54.3598 52.6255L47.3891 48.6044L61.6255 40.3877L68.5962 44.4088L60.3975 49.1402Z" fill="#16110D"/>
<path d="M48.4716 52.9867L45.7206 51.3976C45.4197 51.223 45.1066 51.2049 44.8538 51.3494C44.5709 51.5119 44.4023 51.8671 44.4023 52.3125C44.4023 53.059 44.8478 53.9077 45.4257 54.2388L48.1766 55.828C48.3452 55.9243 48.5137 55.9725 48.6702 55.9725C48.8027 55.9725 48.9291 55.9363 49.0434 55.8701C49.3264 55.7076 49.4949 55.3524 49.4949 54.907C49.4949 54.1606 49.0495 53.3118 48.4716 52.9867ZM48.7425 55.3585C48.6582 55.4066 48.5378 55.3524 48.4716 55.3103L45.7206 53.7211C45.3294 53.4924 44.9983 52.8483 44.9983 52.3125C44.9983 52.0477 45.0826 51.9032 45.1488 51.8671C45.233 51.8189 45.3595 51.8731 45.4197 51.9153L45.6123 52.0236C45.6785 52.6677 46.0638 53.3419 46.5453 53.6188L48.893 54.9732C48.8809 55.1959 48.8147 55.3163 48.7485 55.3585H48.7425ZM48.8508 54.612L46.6898 53.366C46.3527 53.1733 46.0638 52.7038 45.9494 52.2223L48.1706 53.5044C48.4896 53.691 48.7605 54.1545 48.8508 54.612Z" fill="#16110D"/>
<path d="M67.0494 56.5262C66.911 56.4479 66.7424 56.454 66.5678 56.5503L64.3767 57.8144C64.0517 58.001 63.7988 58.4826 63.7988 58.91V61.2576C63.7988 61.5044 63.8891 61.7031 64.0456 61.7933C64.1058 61.8295 64.1781 61.8475 64.2503 61.8475C64.3406 61.8475 64.4309 61.8234 64.5272 61.7693L66.7183 60.5052C67.0434 60.3185 67.2962 59.837 67.2962 59.4096V57.0619C67.2962 56.8091 67.2059 56.6165 67.0494 56.5262Z" fill="#FFBE2E"/>
<path d="M54.3597 52.9926L39.5274 44.4268L24.7012 52.9926V70.1124L39.5274 78.6782V61.5946L54.3597 52.9926Z" fill="#FFEECC"/>
<path d="M24.7012 70.1786L39.5274 78.7385V61.6609L24.7012 53.0529V70.1786Z" fill="#FFBE2E"/>
<path d="M54.6549 52.818L39.5276 44.0836L24.4485 52.794L24.4004 52.818V53.1612V70.2869L39.2327 78.8468L39.5276 79.0213L39.8226 78.8468L54.5044 70.3712L54.6549 70.2869V53.1612V52.818ZM39.5276 44.7699L46.4983 48.797L32.262 57.0137L25.2913 52.9926L39.5276 44.7759V44.7699ZM39.2327 78.1605L24.9963 69.9438V53.5043L39.2327 61.721V78.1605ZM45.5653 57.724L39.5276 61.2094L32.5569 57.1883L46.7933 48.9715L53.764 52.9986L45.5653 57.73V57.724Z" fill="#16110D"/>
<path d="M33.6396 61.5706L30.8886 59.9814C30.5876 59.8069 30.2746 59.7888 30.0218 59.9333C29.7389 60.0958 29.5703 60.451 29.5703 60.8964C29.5703 61.6428 30.0158 62.4916 30.5936 62.8227L33.3446 64.4119C33.5131 64.5082 33.6817 64.5563 33.8382 64.5563C33.9706 64.5563 34.097 64.5202 34.2114 64.454C34.4943 64.2915 34.6629 63.9363 34.6629 63.4909C34.6629 62.7444 34.2174 61.8957 33.6396 61.5706ZM33.9104 63.9423C33.8262 63.9905 33.7058 63.9363 33.6396 63.8942L30.8886 62.305C30.4973 62.0763 30.1663 61.4322 30.1663 60.8964C30.1663 60.6315 30.2505 60.4871 30.3167 60.451C30.401 60.4028 30.5274 60.457 30.5876 60.4991L30.7802 60.6075C30.8465 61.2516 31.2317 61.9258 31.7133 62.2027L34.0609 63.5571C34.0489 63.7798 33.9827 63.9002 33.9165 63.9423H33.9104Z" fill="#16110D"/>
<path d="M52.2174 65.1102C52.0789 65.0319 51.9104 65.038 51.7358 65.1343L49.5447 66.3984C49.2196 66.585 48.9668 67.0666 48.9668 67.4939V69.8416C48.9668 70.0884 49.0571 70.287 49.2136 70.3773C49.2738 70.4134 49.346 70.4315 49.4183 70.4315C49.5086 70.4315 49.5989 70.4074 49.6952 70.3533L51.8863 69.0891C52.2114 68.9025 52.4642 68.421 52.4642 67.9936V65.6459C52.4642 65.3931 52.3739 65.2005 52.2174 65.1102Z" fill="#FFBE2E"/>
<path d="M69.1859 27.0662L54.3596 18.5063L39.5273 27.0662V44.192L54.3596 52.7578V35.6742L69.1859 27.0662Z" fill="#FFEECC"/>
<path d="M39.5273 44.1921L54.3536 52.758V35.6744L39.5273 27.0724V44.1921Z" fill="#FFBE2E"/>
<path d="M69.4871 26.8978L54.3598 18.1633L39.2747 26.8737L39.2266 26.8978V27.2409V44.3666L54.0588 52.9265L54.3538 53.1011L54.6488 52.9265L69.3305 44.4509L69.481 44.3666V27.2409V26.8978H69.4871ZM54.3598 18.8496L61.3305 22.8767L47.0942 31.0934L40.1235 27.0723L54.3598 18.8556V18.8496ZM54.0588 52.2402L39.8225 44.0235V27.584L54.0588 35.8007V52.2402ZM60.3975 31.8037L54.3598 35.2891L47.3891 31.268L61.6255 23.0512L68.5962 27.0783L60.3975 31.8097V31.8037Z" fill="#16110D"/>
<path d="M48.4657 35.6502L45.7148 34.061C45.4138 33.8865 45.1008 33.8684 44.848 34.0129C44.565 34.1754 44.3965 34.5306 44.3965 34.976C44.3965 35.7224 44.8419 36.5712 45.4198 36.9023L48.1708 38.4914C48.3393 38.5878 48.5079 38.6359 48.6644 38.6359C48.7968 38.6359 48.9232 38.5998 49.0376 38.5396C49.3205 38.3771 49.4891 38.0219 49.4891 37.5765C49.4891 36.83 49.0436 35.9813 48.4657 35.6562V35.6502ZM48.7426 38.0219C48.6584 38.0701 48.538 38.0159 48.4718 37.9738L45.7208 36.3846C45.3295 36.1558 44.9984 35.5117 44.9984 34.976C44.9984 34.7111 45.0827 34.5667 45.1489 34.5305C45.2332 34.4824 45.3596 34.5366 45.4198 34.5787L45.6124 34.6871C45.6787 35.3312 46.0639 36.0053 46.5455 36.2823L48.8931 37.6367C48.8811 37.8594 48.8149 37.9798 48.7487 38.0219H48.7426Z" fill="#16110D"/>
<path d="M67.0494 39.1898C66.911 39.1115 66.7424 39.1175 66.5678 39.2139L64.3767 40.478C64.0517 40.6646 63.7988 41.1461 63.7988 41.5735V43.9212C63.7988 44.168 63.8891 44.3666 64.0456 44.4569C64.1058 44.493 64.1781 44.5111 64.2503 44.5111C64.3406 44.5111 64.4309 44.487 64.5272 44.4328L66.7183 43.1687C67.0434 42.9821 67.2962 42.5006 67.2962 42.0732V39.7255C67.2962 39.4727 67.2059 39.2801 67.0494 39.1898Z" fill="#FFBE2E"/>
<path d="M54.8047 70.1786L54.5098 70.3712V52.7338L54.582 52.6916L69.4865 44.0836V44.4267L54.8047 52.9023V70.1786Z" fill="#FFBE2E"/>
<path d="M98.1402 139.988L52.3672 113.556V63.1176L98.1402 89.5496V139.988Z" fill="#FFBE2E"/>
<path d="M141.907 11.349L52.3535 63.0513L98.1446 89.4893L187.698 37.7871L141.907 11.349Z" fill="#FFBE2E"/>
<path d="M52.3553 62.7444L52.0664 62.9912V117.276L58.2064 120.821L61.1259 118.961L90.8627 136.129L92.181 140.439L97.8394 143.708L98.4414 143.636V89.3751L52.9332 63.0815L52.3493 62.7444H52.3553ZM57.9415 119.973L52.6684 116.927V114.073L54.0589 114.874L59.001 117.727L57.9415 119.967V119.973ZM97.8454 143.016L92.6926 140.042L91.6332 136.581L97.8454 140.168V143.022V143.016ZM97.8454 139.464L97.4782 139.253L88.9123 134.311V132.584L83.0252 129.183V130.91L67.4826 121.935V120.207L61.5954 116.806V118.534L52.6623 113.375V63.6353L97.8394 89.7182V139.458L97.8454 139.464Z" fill="#16110D"/>
<path d="M141.884 12.7937L53.4141 63.894L98.6212 89.9529L187.073 38.8826L141.884 12.7937ZM98.1396 85.378L58.9461 63.2078L141.872 15.2918L180.915 37.8292L98.1457 85.3719L98.1396 85.378Z" fill="#FFEECC"/>
<path d="M187.692 37.426L97.9884 89.2186L97.8379 89.3029V143.708L98.0787 143.846L104.098 140.373L105.417 136.063L179.03 93.5648L181.859 95.479L187.999 91.9334V37.6066L187.698 37.426H187.692ZM181.275 94.245L179.638 93.2096L180.541 92.6919L180.607 92.8364L181.275 94.251V94.245Z" fill="#16110D"/>
<path d="M102.701 90.6632L102.551 90.7475V133.408L107.132 130.772L107.282 130.682L110.388 128.9L110.497 128.84L114.391 126.6L114.626 126.474L117.841 124.614L121.711 122.393L121.976 122.266L125.19 120.388L129.031 118.179L129.326 118.052L132.54 116.162L136.351 113.971L136.67 113.845L139.884 111.936L143.809 109.679L144.02 109.559L144.375 109.354L147.234 107.747V107.711L151.075 105.502L151.37 105.375L154.584 103.485L158.395 101.294L158.72 101.167L161.934 99.2592L165.714 97.0862L166.063 96.9597L169.278 95.0335L173.034 92.8724L173.413 92.746L176.628 90.8077L180.709 88.4661H180.763V88.436L183.827 86.6723L183.978 86.588V43.9271L102.677 90.6632H102.701ZM144.068 108.854L144.038 108.873V67.5962L146.65 66.0913V107.368L144.068 108.854ZM107.288 88.7249L109.901 87.22V128.49L107.288 129.959V88.7189V88.7249ZM110.503 86.8769L114.036 84.8483V126.01L110.503 126.04V86.8829V86.8769ZM114.638 125.776V84.4992L117.251 82.9943V124.271L114.638 125.776ZM117.841 82.6572L121.392 80.6165V121.791L117.859 121.821V82.6572H117.841ZM121.988 121.55V80.2734L124.601 78.7685V120.045L121.988 121.55ZM125.16 78.4495L128.736 76.3908V117.583L125.203 117.613V78.4495H125.154H125.16ZM129.338 117.324V76.0477L131.95 74.5428V115.819L129.338 117.324ZM132.48 74.2418L136.086 72.1711V113.381L132.552 113.411V74.2478H132.48V74.2418ZM136.688 113.098V71.8219L139.3 70.317V111.593L136.688 113.098ZM139.8 70.0341L143.436 67.9453V109.089L139.902 109.119V70.0341H139.8ZM147.252 65.7481L150.786 63.7195V104.912L147.252 104.942V65.7481ZM151.388 104.647V63.3704L154 61.8655V103.142L151.388 104.647ZM154.53 61.5706L158.136 59.4938V100.704L154.602 100.734V61.5706H154.524H154.53ZM158.738 100.427V59.1507L161.35 57.6458V98.9221L158.738 100.427ZM161.952 57.2966L165.486 55.268V96.4962L161.952 96.5263V57.3027V57.2966ZM166.088 96.2013V54.9249L168.7 53.42V94.6964L166.088 96.2013ZM169.302 53.0709L172.836 51.0423V92.2885L169.302 92.3186V53.0769V53.0709ZM173.438 91.9755V50.6992L176.05 49.1943V90.4706L173.438 91.9755ZM176.652 48.8512L180.185 46.8225V87.8822L176.652 87.9123V48.8512ZM180.787 87.6655V46.4734L183.4 44.9685V86.1907L180.787 87.6595V87.6655ZM106.686 89.0681V130.182L103.153 130.212V91.1027L106.686 89.0741V89.0681Z" fill="#FFBE2E"/>
<path d="M70.1484 57.2605L72.8091 55.7255L110.799 77.4141L108.15 78.943L70.1484 57.2605Z" fill="#FFEECC"/>
<path d="M63.5273 61.1732L66.188 59.6322L104.178 81.3208L101.529 82.8498L63.5273 61.1732Z" fill="#FFEECC"/>
<path d="M77.0879 53.3056L79.7486 51.7706L117.738 73.4592L115.09 74.9882L77.0879 53.3056Z" fill="#FFEECC"/>
<path d="M83.8848 49.2424L86.5394 47.7074L124.535 69.396L121.886 70.925L83.8848 49.2424Z" fill="#FFEECC"/>
<path d="M90.5488 45.2935L93.2095 43.7524L131.199 65.441L128.551 66.97L90.5488 45.2935Z" fill="#FFEECC"/>
<path d="M97.4883 41.3387L100.149 39.7977L138.139 61.4863L135.49 63.0153L97.4883 41.3387Z" fill="#FFEECC"/>
<path d="M104.279 37.2754L106.94 35.7344L144.93 57.423L142.287 58.952L104.279 37.2754Z" fill="#FFEECC"/>
<path d="M111.262 33.4349L113.922 31.8999L151.912 53.5885L149.269 55.1175L111.262 33.4349Z" fill="#FFEECC"/>
<path d="M118.057 29.3778L120.711 27.8368L158.707 49.5254L156.058 51.0544L118.057 29.3778Z" fill="#FFEECC"/>
<path d="M125.154 25.4229L127.815 23.8818L165.805 45.5704L163.156 47.0994L125.154 25.4229Z" fill="#FFEECC"/>
<path d="M132.096 21.468L134.756 19.927L172.746 41.6156L170.097 43.1446L132.096 21.468Z" fill="#FFEECC"/>
<path d="M138.885 17.4048L141.545 15.8638L179.535 37.5524L176.886 39.0813L138.885 17.4048Z" fill="#FFEECC"/>
<path d="M98.1459 89.8386L97.9954 89.7543L52.084 63.2501L52.3549 62.7504L141.908 11L142.059 11.0843L187.994 37.6066V37.9618L98.1459 89.8386ZM52.9568 63.0514L98.1459 89.1403L187.097 37.7812L141.908 11.6923L52.9568 63.0514Z" fill="#16110D"/>
<path d="M180.914 37.8354L180.463 37.5766L141.871 15.292L141.721 15.2078L127.888 23.2319L127.834 23.2018L123.969 25.4411L124.023 25.4712L120.989 27.2289L120.875 27.1627L117.01 29.402L117.125 29.4682L114.097 31.2259L114.007 31.1717L110.142 33.411L110.238 33.4652L93.5219 43.1567L93.5038 43.1447L89.6392 45.384L89.6633 45.396L58.9453 63.208L97.549 85.1855L98.0787 85.4865L98.2292 85.5708L180.908 37.8354H180.914ZM61.913 64.1711L63.7791 61.3961L101.046 83.2472L98.2292 84.8725L61.913 64.1711ZM93.5279 43.849L131.62 65.5978L128.971 67.1268L90.8672 45.39L93.5219 43.849H93.5279ZM114.103 31.9182L152.243 53.691L149.594 55.22L111.448 33.4592L114.103 31.9182ZM116.24 32.3937L117.727 29.8173H117.739L155.903 51.5782L152.851 53.3419L152.791 53.3058L152.809 53.2697L116.24 32.3877V32.3937ZM120.995 27.9211L159.147 49.7061L156.499 51.235L118.335 29.4622L120.989 27.9211H120.995ZM123.192 28.4328L124.685 25.8504L162.807 47.5992L159.749 49.3629H159.737L159.761 49.3148L123.192 28.4328ZM127.894 23.9241L166.064 45.7151L163.415 47.244L125.233 25.4652L127.888 23.9241H127.894ZM172.944 41.7421L170.296 43.2711L132.132 21.5043L134.792 19.9632L172.944 41.7421ZM137.11 20.5592L138.603 17.9768L176.58 39.6413L173.57 41.381L137.11 20.5652V20.5592ZM139.096 17.5674L141.757 16.0264L179.71 37.8354L177.188 39.2922L139.096 17.5614V17.5674ZM169.694 43.6142L166.684 45.3539L130.151 24.496L131.644 21.9136L169.694 43.6202V43.6142ZM138.536 61.6068L135.888 63.1358L97.8078 41.4111L100.468 39.87L138.536 61.6068ZM102.78 40.478L104.273 37.8956L142.172 59.512L139.162 61.2516L102.78 40.478ZM104.766 37.4803L107.427 35.9392L108.565 36.5894L108.547 36.6255L145.387 57.6579L142.78 59.1628L104.772 37.4803H104.766ZM109.39 36.3666L110.864 33.8143L148.998 55.5691L146.031 57.2847L109.396 36.3666H109.39ZM135.28 63.4849L132.27 65.2246L95.8153 44.4148L97.3082 41.8324L135.274 63.4909L135.28 63.4849ZM67.8724 60.5835L104.134 81.4715L101.648 82.9041L64.2907 60.9988L66.4457 59.7708L67.8664 60.5835H67.8724ZM68.4804 60.2343L69.8588 57.7723L107.746 79.3827L104.899 81.026L68.4804 60.2343ZM70.3464 57.357L73.0071 55.8159L110.997 77.5045L108.348 79.0335L70.3464 57.357ZM75.3186 56.4179L76.8115 53.8355L114.633 75.4097L111.623 77.1494L75.3186 56.4239V56.4179ZM77.3051 53.4201L79.9657 51.8791L117.925 73.5075L115.241 75.0606L77.3111 53.4262L77.3051 53.4201ZM82.0606 52.3426L83.5534 49.7602L121.531 71.4247L118.521 73.1644L82.0606 52.3487V52.3426ZM84.047 49.3509L86.7077 47.8099L88.0561 48.5804L88.044 48.5984L124.764 69.5647L122.139 71.0816L84.053 49.3569L84.047 49.3509ZM88.8747 48.3516L90.3556 45.7873L128.369 67.4699L125.384 69.1915L88.8747 48.3456V48.3516Z" fill="#16110D"/>
<path d="M61.7148 111.726L94.1785 92.8242V130.405L61.7148 111.726Z" fill="#FFEECC"/>
<path d="M56.6152 111.888L58.6499 110.654L94.1775 131.097V133.577L56.6152 111.888Z" fill="#FFEECC"/>
<path d="M55.7267 68.752V111.419V111.437L56.0277 111.593L94.7758 133.962V91.2954L55.7207 68.746L55.7267 68.752ZM58.3513 70.9612V109.487L57.1714 110.203L56.3287 110.715V69.7994L58.3452 70.9672L58.3513 70.9612ZM56.6176 111.238L57.4303 110.745L58.6522 110.004L94.1799 130.447V132.927L56.6236 111.244L56.6176 111.238ZM61.7162 111.07L94.1799 92.1742V129.755L61.7162 111.076V111.07Z" fill="#16110D"/>
<path d="M122.346 39.882V36.6434L137.744 45.6427L137.443 48.6525L122.346 39.882Z" fill="#FFBE2E"/>
<path d="M152.54 36.6434L137.443 45.3597L122.346 36.6434L137.443 27.927L152.54 36.6434Z" fill="#FFBE2E"/>
<path d="M147.469 36.6434L137.441 42.4342L127.412 36.6434L137.441 30.8525L147.469 36.6434Z" fill="#FFBE2E"/>
<path d="M137.442 28.9805L123.26 37.1671L138.261 45.9377L152.539 37.6968L137.442 28.9805ZM137.442 42.4343L128.882 37.1671L137.442 31.0572L147.32 36.5471L137.442 42.4343Z" fill="#FFEECC"/>
<path d="M152.839 36.4689L152.538 36.2944L137.441 27.578L122.344 36.2944L122.043 36.4689V40.1469L137.14 48.8753L137.441 49.0499L137.742 48.8753L152.839 40.2613V36.4689ZM137.14 48.1831L122.645 39.8038V37.1672L137.14 45.5344V48.1831ZM137.441 45.0107L122.946 36.6435L137.441 28.2763L151.936 36.6435L137.441 45.0107Z" fill="#16110D"/>
<path d="M147.62 36.9022L148.072 36.6434L137.742 30.678L137.441 30.5034L126.811 36.6434L137.441 42.7834L146.609 37.4922L147.62 36.9083V36.9022ZM137.742 31.3763L146.868 36.6434L145.303 37.5463L137.742 33.2724V31.3702V31.3763ZM130.188 37.9015L137.441 33.8022L144.695 37.9015L137.441 42.0911L130.188 37.9015Z" fill="#16110D"/>
<path d="M81.4844 103.365V92.8242L90.2971 98.0914V108.487L81.4844 103.365Z" fill="#FFBE2E"/>
<path d="M81.4844 92.8243L88.9667 88.3878L94.4084 91.524V95.6655L90.2971 98.0914L81.4844 92.8243Z" fill="#FFEECC"/>
<path d="M88.965 88.0387L81.4826 92.4751L81.1816 92.6557V103.539L89.9943 108.668L90.2953 108.842L90.5963 108.668L94.7137 106.302V91.3555L88.971 88.0447L88.965 88.0387ZM88.971 88.737L94.1117 91.6986V95.491L90.3013 97.7423L83.74 93.8175L82.0786 92.8243L88.977 88.737H88.971ZM81.7836 103.19V93.354L83.4631 94.3593L89.9943 98.266V107.97L81.7836 103.196V103.19Z" fill="#16110D"/>
<path d="M85.8242 114.248V107.289L91.6391 110.769V117.631L85.8242 114.248Z" fill="#FFBE2E"/>
<path d="M85.8242 107.289L90.7663 104.364L94.354 106.435V109.162L91.6391 110.769L85.8242 107.289Z" fill="#FFEECC"/>
<path d="M90.7597 104.129L85.8236 107.055L85.625 107.175V114.356L91.4399 117.739L91.6386 117.854L91.8372 117.739L94.5521 116.174V106.308L90.7597 104.123V104.129ZM90.7657 104.593L94.1608 106.549V109.053L91.6446 110.54L87.3105 107.952L86.2149 107.295L90.7657 104.599V104.593ZM86.0223 114.134V107.645L87.1299 108.307L91.4399 110.883V117.288L86.0223 114.134Z" fill="#16110D"/>
<path d="M84.3961 97.7303L74.3494 91.9274L64.3027 97.7303V109.33L74.3494 115.133V103.557L84.3961 97.7303Z" fill="#FFEECC"/>
<path d="M64.3027 109.294L74.3494 115.097V103.521L64.3027 97.6942V109.294Z" fill="#FFBE2E"/>
<path d="M84.6004 97.616L74.349 91.6987L64.1278 97.5979L64.0977 97.616V97.8447V109.444L74.1444 115.247L74.343 115.362L74.5417 115.247L84.486 109.505L84.5884 109.444V97.8447V97.61L84.6004 97.616ZM74.349 92.1622L79.0684 94.8891L69.425 100.457L64.7056 97.7304L74.349 92.1622ZM74.1504 114.784L64.507 109.216V98.0795L74.1504 103.648V114.784ZM78.4363 100.939L74.349 103.298L69.6236 100.572L79.267 95.0035L83.9864 97.7304L78.4303 100.939H78.4363Z" fill="#16110D"/>
<path d="M70.3606 103.545L68.4946 102.468C68.2899 102.347 68.0792 102.335 67.9047 102.438C67.712 102.552 67.5977 102.787 67.5977 103.088C67.5977 103.593 67.8986 104.165 68.2899 104.388L70.156 105.465C70.2704 105.532 70.3847 105.562 70.4931 105.562C70.5834 105.562 70.6677 105.538 70.7459 105.496C70.9385 105.381 71.0529 105.146 71.0529 104.845C71.0529 104.34 70.7519 103.768 70.3606 103.545ZM70.5473 105.152C70.4931 105.183 70.4088 105.152 70.3606 105.122L68.4946 104.045C68.2297 103.894 68.007 103.455 68.007 103.088C68.007 102.907 68.0612 102.811 68.1093 102.787C68.1695 102.751 68.2478 102.787 68.2959 102.817L68.4223 102.889C68.4705 103.329 68.7293 103.78 69.0544 103.973L70.6436 104.894C70.6375 105.044 70.5894 105.128 70.5412 105.152H70.5473Z" fill="#16110D"/>
<path d="M82.9454 105.941C82.849 105.887 82.7347 105.893 82.6203 105.959L81.1335 106.814C80.9168 106.94 80.7422 107.265 80.7422 107.554V109.143C80.7422 109.312 80.8024 109.444 80.9107 109.505C80.9529 109.529 81.001 109.541 81.0492 109.541C81.1094 109.541 81.1696 109.523 81.2358 109.487L82.7226 108.632C82.9393 108.505 83.1139 108.18 83.1139 107.891V106.302C83.1139 106.134 83.0537 106.001 82.9454 105.941Z" fill="#FFBE2E"/>
<path d="M16.832 119.419V121.243L49.7231 140.18V138.411L16.832 119.419Z" fill="#FFBE2E"/>
<path d="M49.7231 138.411L16.832 119.419L20.7628 117.149L53.6539 136.135L49.7231 138.411Z" fill="#FFBE2E"/>
<path d="M49.7234 138.411L17.4824 119.798L20.7631 117.902L53.0883 136.569L49.7234 138.411Z" fill="#FFEECC"/>
<path d="M53.8952 136.28V136.003L53.6544 135.864L20.8838 116.945L20.7634 116.873L16.8326 119.142L16.5918 119.281V121.381L49.4829 140.319L49.7236 140.457L49.9644 140.319L53.9012 138.05V136.274L53.8952 136.28ZM53.1729 136.135L52.2278 136.683L49.7236 138.128L38.0456 131.386L17.3141 119.419L20.7634 117.426L53.1729 136.141V136.135ZM17.0734 121.104V119.84L49.4829 138.555V139.765L17.0734 121.104Z" fill="#16110D"/>
<path d="M11.457 122.302V124.12L44.3481 143.058V141.288L11.457 122.302Z" fill="#FFBE2E"/>
<path d="M44.3481 141.288L11.457 122.302L15.3938 120.027L48.2849 139.019L44.3481 141.288Z" fill="#FFBE2E"/>
<path d="M44.3482 141.288L12.1133 122.675L15.394 120.785L47.7192 139.446L44.3482 141.288Z" fill="#FFEECC"/>
<path d="M48.5261 139.157V138.88L48.2853 138.742L15.5146 119.822L15.3942 119.75L11.4634 122.019L11.2227 122.158V124.259L44.1137 143.19L44.3545 143.329L44.5953 143.19L48.5321 140.921V139.145L48.5261 139.157ZM47.8037 139.019L46.8587 139.566L44.3545 141.011L32.6765 134.269L11.945 122.302L15.3942 120.31L47.8037 139.025V139.019ZM11.6982 123.982V122.718L44.1077 141.432V142.642L11.6982 123.982Z" fill="#16110D"/>
<path d="M6.08789 125.408V127.226L38.979 146.164V144.394L6.08789 125.408Z" fill="#FFBE2E"/>
<path d="M38.979 144.394L6.08789 125.408L10.0247 123.133L42.9158 142.125L38.979 144.394Z" fill="#FFBE2E"/>
<path d="M38.9791 144.394L6.74414 125.782L10.0248 123.891L42.344 142.552L38.9791 144.394Z" fill="#FFEECC"/>
<path d="M43.1569 142.263V141.986L42.9162 141.848L10.1455 122.928L10.0251 122.856L6.0943 125.125L5.85352 125.264V127.365L38.7446 146.296L38.9854 146.435L39.2261 146.296L43.163 144.027V142.251L43.1569 142.263ZM42.4346 142.125L41.4895 142.672L38.9854 144.117L27.3073 137.375L6.57587 125.408L10.0251 123.416L42.4346 142.131V142.125ZM6.32906 127.088V125.824L38.7386 144.539V145.748L6.32906 127.088Z" fill="#16110D"/>
<path d="M0.71875 128.521V130.344L33.6098 149.276V147.512L0.71875 128.521Z" fill="#FFBE2E"/>
<path d="M33.6098 147.512L0.71875 128.52L4.64954 126.251L37.5466 145.237L33.6098 147.512Z" fill="#FFBE2E"/>
<path d="M33.6099 147.512L1.375 128.9L4.64966 127.004L36.9749 145.67L33.6099 147.512Z" fill="#FFEECC"/>
<path d="M37.788 145.375V145.098L37.5472 144.96L4.77651 126.04L4.65611 125.968L0.725319 128.238H0.719299L0.478516 128.376V130.477L33.3696 149.408L33.6104 149.547L33.8511 149.408L37.788 147.139V145.363V145.375ZM37.0656 145.237L36.1205 145.785L33.6164 147.229L21.9384 140.487L1.20087 128.52L4.65009 126.528L37.0596 145.237H37.0656ZM0.960083 130.206V128.942L33.3696 147.657V148.867L0.960083 130.206Z" fill="#16110D"/>
<path d="M16.832 113.688V115.512L49.7231 134.444V132.68L16.832 113.688Z" fill="#FFBE2E"/>
<path d="M49.7231 132.68L16.832 113.688L20.7628 111.419L53.6539 130.405L49.7231 132.68Z" fill="#FFBE2E"/>
<path d="M49.7234 132.68L17.4824 114.067L20.7631 112.171L53.0883 130.832L49.7234 132.68Z" fill="#FFEECC"/>
<path d="M53.8952 130.543V130.266L53.6544 130.128L20.8838 111.208L20.7634 111.136L16.8326 113.405L16.5918 113.544V115.645L49.4829 134.576L49.7236 134.715L49.9644 134.576L53.9012 132.307V130.531L53.8952 130.543ZM53.1729 130.405L52.2278 130.952L49.7236 132.397L38.0456 125.655L17.3141 113.688L20.7634 111.696L53.1729 130.405ZM17.0734 115.368V114.104L49.4829 132.819V134.029L17.0734 115.368Z" fill="#16110D"/>
<path d="M11.457 116.566V118.389L44.3481 137.327V135.557L11.457 116.566Z" fill="#FFBE2E"/>
<path d="M44.3481 135.557L11.457 116.566L15.3938 114.296L48.2849 133.288L44.3481 135.557Z" fill="#FFBE2E"/>
<path d="M44.3482 135.557L12.1133 116.945L15.394 115.055L47.7192 133.715L44.3482 135.557Z" fill="#FFEECC"/>
<path d="M48.5261 133.426V133.15L48.2853 133.011L15.5146 114.092L15.3942 114.019L11.4634 116.289L11.2227 116.427V118.528L44.1137 137.46L44.3545 137.598L44.5953 137.46L48.5321 135.19V133.414L48.5261 133.426ZM47.8037 133.288L46.8587 133.836L44.3545 135.28L32.6765 128.539L11.945 116.572L15.3942 114.579L47.8037 133.288ZM11.6982 118.251V116.987L44.1077 135.702V136.912L11.6982 118.251Z" fill="#16110D"/>
<path d="M6.08789 119.672V121.496L38.979 140.433V138.664L6.08789 119.672Z" fill="#FFBE2E"/>
<path d="M38.979 138.664L6.08789 119.672L10.0247 117.402L42.9158 136.394L38.979 138.664Z" fill="#FFBE2E"/>
<path d="M38.9791 138.664L6.74414 120.051L10.0248 118.161L42.344 136.822L38.9791 138.664Z" fill="#FFEECC"/>
<path d="M43.1569 136.533V136.256L42.9162 136.117L10.1455 117.198L10.0251 117.125L6.0943 119.395L5.85352 119.533V121.634L38.7446 140.566L38.9854 140.704L39.2261 140.566L43.163 138.296V136.52L43.1569 136.533ZM42.4346 136.394L41.4895 136.942L38.9854 138.387L27.3073 131.645L6.57587 119.678L10.0251 117.685L42.4346 136.394ZM6.32906 121.357V120.093L38.7386 138.808V140.018L6.32906 121.357Z" fill="#16110D"/>
<path d="M0.71875 122.79V124.614L33.6098 143.545V141.776L0.71875 122.79Z" fill="#FFBE2E"/>
<path d="M33.6098 141.776L0.71875 122.79L4.64954 120.514L37.5466 139.506L33.6098 141.776Z" fill="#FFBE2E"/>
<path d="M33.6099 141.776L1.375 123.169L4.64966 121.273L36.9749 139.934L33.6099 141.776Z" fill="#FFEECC"/>
<path d="M37.788 139.645V139.368L37.5472 139.229L4.77651 120.31L4.65611 120.238L0.725319 122.507H0.719299L0.478516 122.645V124.746L33.3696 143.684L33.6104 143.822L33.8511 143.684L37.788 141.414V139.639V139.645ZM37.0656 139.506L36.1205 140.054L33.6164 141.499L21.9384 134.757L1.20087 122.79L4.65009 120.797L37.0596 139.506H37.0656ZM0.960083 124.469V123.205L33.3696 141.92V143.13L0.960083 124.469Z" fill="#16110D"/>
<path d="M24.707 142.402V138.411L29.6913 141.288V145.249L24.707 142.402Z" fill="#FFBE2E"/>
<path d="M33.1288 143.268L29.9324 141.426V141.15L24.4727 137.989V142.54L29.9324 145.664V145.11L33.1288 143.268ZM29.4509 144.834L24.9542 142.263V138.826L29.4509 141.426V144.828V144.834Z" fill="#16110D"/>
<path d="M4.21094 130.507V126.618L9.18914 129.532V133.408L4.21094 130.507Z" fill="#FFBE2E"/>
<path d="M12.6269 131.428L9.43047 129.586V129.387L3.9707 126.197V130.646L9.43047 133.824V133.264L12.6269 131.422V131.428ZM8.94891 132.987L4.45227 130.369V127.04L8.94891 129.67V132.993V132.987Z" fill="#16110D"/>
<path d="M14.2148 136.28V132.391L19.1991 135.299V139.181L14.2148 136.28Z" fill="#FFBE2E"/>
<path d="M22.6366 137.201L19.4402 135.359V135.16L13.9805 131.97V136.418L19.4402 139.597V139.037L22.6366 137.195V137.201ZM18.9587 138.76L14.462 136.141V132.812L18.9587 135.443V138.766V138.76Z" fill="#16110D"/>
<path d="M41.1761 109.595L26.3499 101.035L11.5176 109.595V126.721L26.3499 135.281V118.203L41.1761 109.595Z" fill="#FFEECC"/>
<path d="M11.5176 126.666L26.3499 135.226V118.149L11.5176 109.541V126.666Z" fill="#FFBE2E"/>
<path d="M41.4773 109.426L26.3501 100.692L11.265 109.402L11.2168 109.426V109.769V126.895L26.0491 135.455L26.344 135.63L26.639 135.455L41.3208 126.979L41.4713 126.895V109.769V109.426H41.4773ZM26.3501 101.378L33.3207 105.405L19.0844 113.622L12.1137 109.601L26.3501 101.384V101.378ZM26.0491 134.769L11.8127 126.552V110.113L26.0491 118.329V134.769ZM32.3877 114.332L26.3501 117.818L19.3794 113.797L33.6157 105.58L40.5864 109.601L32.3877 114.332Z" fill="#16110D"/>
<path d="M20.456 118.179L17.705 116.59C17.404 116.415 17.091 116.397 16.8382 116.542C16.5553 116.704 16.3867 117.059 16.3867 117.505C16.3867 118.251 16.8322 119.1 17.41 119.431L20.161 121.02C20.3296 121.116 20.4981 121.165 20.6546 121.165C20.787 121.165 20.9135 121.128 21.0278 121.062C21.3107 120.9 21.4793 120.545 21.4793 120.099C21.4793 119.353 21.0338 118.504 20.456 118.179ZM20.7329 120.551C20.6486 120.599 20.5282 120.545 20.462 120.502L17.711 118.913C17.3198 118.685 16.9887 118.04 16.9887 117.505C16.9887 117.24 17.073 117.095 17.1392 117.059C17.2234 117.011 17.3499 117.065 17.41 117.107L17.6027 117.216C17.6689 117.86 18.0541 118.534 18.5357 118.811L20.8834 120.165C20.8713 120.388 20.8051 120.508 20.7329 120.551Z" fill="#16110D"/>
<path d="M39.0338 121.718C38.8953 121.64 38.7268 121.646 38.5522 121.742L36.3611 123.007C36.036 123.193 35.7832 123.675 35.7832 124.102V126.45C35.7832 126.697 35.8735 126.895 36.03 126.985C36.0902 127.022 36.1624 127.04 36.2347 127.04C36.325 127.04 36.4153 127.016 36.5116 126.955L38.7027 125.691C39.0278 125.505 39.2806 125.023 39.2806 124.596V122.248C39.2806 121.995 39.1903 121.803 39.0338 121.712V121.718Z" fill="#FFBE2E"/>
<path d="M66.6027 155.29C66.6027 155.29 68.8523 156.789 70.1028 160.04C71.3522 163.29 75.6032 166.541 75.6032 166.541L92.5538 176.637L114.291 163.97L97.3337 153.871C97.3337 153.871 93.0942 150.629 91.8479 147.387C90.6016 144.144 88.3573 142.649 88.3573 142.649L71.525 132.923L49.8008 145.582L66.6027 155.29Z" fill="#FFBE2E"/>
<path d="M66.6007 156.208C66.6007 156.208 68.8503 157.708 70.1008 160.959C71.3513 164.209 75.6013 167.459 75.6013 167.459L92.5519 177.555L114.289 164.888L97.3317 154.789C97.3317 154.789 93.0923 151.548 91.846 148.305C90.5997 145.064 88.3553 143.567 88.3553 143.567L71.523 133.842L49.7988 146.501L66.6007 156.208Z" fill="#FFEECC"/>
<path d="M92.5528 176.965L75.4587 166.784C75.2556 166.631 71.103 163.429 69.8389 160.142C68.6711 157.107 66.5838 155.622 66.4519 155.531L49.2363 145.583L71.5251 132.596L71.6675 132.679L88.4987 142.404C88.6087 142.476 90.8488 143.997 92.1129 147.285C93.3163 150.414 97.4646 153.613 97.5055 153.646L114.85 163.973L92.5528 176.965ZM50.3664 145.58L66.7598 155.053C66.8551 155.116 69.1005 156.641 70.3678 159.938C71.5743 163.074 75.7342 166.282 75.775 166.315L92.5549 176.307L113.73 163.966L97.1871 154.114C96.984 153.961 92.8429 150.768 91.582 147.488C90.386 144.377 88.2201 142.899 88.1981 142.885L71.5251 133.251L50.3664 145.58Z" fill="black"/>
<path d="M68.0841 139.464L56.4465 146.183L55.1855 145.455L66.8232 138.735L68.0841 139.464Z" fill="black"/>
<path d="M72.5024 136.912L69.2327 138.8L67.9707 138.072L71.2414 136.184L72.5024 136.912Z" fill="black"/>
<path d="M63.347 144.762L58.6164 147.494L57.3555 146.765L62.0861 144.033L63.347 144.762Z" fill="black"/>
<path d="M74.7189 138.197L64.5129 144.089L63.252 143.36L73.4569 137.468L74.7189 138.197Z" fill="black"/>
<path d="M72.6087 142.004L64.5246 146.672L63.2637 145.943L71.3478 141.276L72.6087 142.004Z" fill="black"/>
<path d="M76.9731 139.484L73.805 141.313L72.543 140.585L75.7111 138.755L76.9731 139.484Z" fill="black"/>
<path d="M63.3638 147.367L60.9309 148.771L59.6699 148.043L62.1028 146.639L63.3638 147.367Z" fill="black"/>
<path d="M74.8283 143.348L63.1917 150.068L61.9297 149.339L73.5673 142.621L74.8283 143.348Z" fill="black"/>
<path d="M79.2515 140.797L75.9807 142.686L74.7188 141.957L77.9895 140.068L79.2515 140.797Z" fill="black"/>
<path d="M70.0942 148.647L65.3636 151.378L64.1016 150.65L68.8322 147.919L70.0942 148.647Z" fill="black"/>
<path d="M81.465 142.081L71.259 147.973L69.998 147.246L80.204 141.353L81.465 142.081Z" fill="black"/>
<path d="M79.354 145.888L71.2698 150.556L70.0078 149.828L78.0919 145.16L79.354 145.888Z" fill="black"/>
<path d="M83.7181 143.368L80.55 145.198L79.2891 144.47L82.4572 142.641L83.7181 143.368Z" fill="black"/>
<path d="M70.1089 151.252L67.675 152.657L66.4141 151.929L68.8469 150.524L70.1089 151.252Z" fill="black"/>
<path d="M91.9896 159.638L83.9055 164.305L82.6445 163.577L90.7287 158.91L91.9896 159.638Z" fill="black"/>
<path d="M82.7457 165.001L80.3128 166.407L79.0508 165.678L81.4837 164.274L82.7457 165.001Z" fill="black"/>
<path d="M94.2111 160.983L82.5734 167.702L81.3125 166.973L92.9501 160.255L94.2111 160.983Z" fill="black"/>
<path d="M89.4741 166.281L84.7434 169.013L83.4824 168.285L88.2131 165.553L89.4741 166.281Z" fill="black"/>
<path d="M90.2384 171.444C89.7891 171.704 89.2707 171.653 88.7554 171.355C88.2506 171.064 88.149 170.757 88.5983 170.498C89.0392 170.243 89.5786 170.297 90.0834 170.589C90.5986 170.886 90.6877 171.186 90.2384 171.444ZM88.7606 170.592C88.4108 170.794 88.5124 171.031 88.9156 171.264C89.3293 171.503 89.7273 171.554 90.0771 171.352C90.4269 171.15 90.3379 170.921 89.9242 170.682C89.521 170.447 89.1104 170.39 88.7606 170.592Z" fill="black"/>
<path d="M91.7204 170.588C91.2711 170.847 90.7526 170.796 90.2374 170.499C89.7326 170.207 89.632 169.901 90.0802 169.641C90.5212 169.387 91.0605 169.441 91.5653 169.732C92.0817 170.029 92.1707 170.329 91.7204 170.588ZM90.2426 169.735C89.8928 169.937 89.9944 170.174 90.3976 170.407C90.8113 170.646 91.2092 170.698 91.559 170.495C91.9088 170.293 91.8198 170.064 91.4061 169.825C91.0029 169.592 90.5924 169.533 90.2426 169.735Z" fill="black"/>
<path d="M93.2032 169.732C92.7539 169.992 92.2355 169.94 91.7202 169.643C91.2154 169.352 91.1138 169.045 91.5631 168.785C92.003 168.532 92.5423 168.584 93.0471 168.876C93.5634 169.174 93.6525 169.472 93.2032 169.732ZM91.7255 168.878C91.3746 169.081 91.4762 169.317 91.8794 169.551C92.2931 169.79 92.6911 169.841 93.0409 169.639C93.3896 169.437 93.3016 169.207 92.888 168.967C92.4858 168.735 92.0753 168.676 91.7255 168.878Z" fill="black"/>
<path d="M94.6895 168.875C94.2403 169.135 93.7218 169.084 93.2065 168.786C92.7017 168.495 92.6001 168.188 93.0494 167.929C93.4893 167.674 94.0287 167.728 94.5345 168.02C95.0498 168.317 95.1378 168.616 94.6895 168.875ZM93.2118 168.022C92.862 168.224 92.9636 168.461 93.3657 168.693C93.7794 168.932 94.1774 168.983 94.5272 168.781C94.8759 168.579 94.788 168.35 94.3743 168.111C93.9721 167.878 93.5605 167.821 93.2118 168.022Z" fill="black"/>
<path d="M96.172 168.019C95.7227 168.278 95.2042 168.227 94.689 167.93C94.1842 167.637 94.0826 167.332 94.5319 167.072C94.9717 166.818 95.5111 166.871 96.0159 167.163C96.5322 167.46 96.6213 167.759 96.172 168.019ZM94.6942 167.166C94.3444 167.368 94.446 167.605 94.8481 167.838C95.2618 168.077 95.6598 168.129 96.0096 167.926C96.3584 167.724 96.2704 167.495 95.8567 167.256C95.4545 167.022 95.043 166.963 94.6942 167.166Z" fill="black"/>
<path d="M97.6563 167.162C97.207 167.422 96.6886 167.37 96.1733 167.073C95.6685 166.782 95.5669 166.475 96.0162 166.215C96.4561 165.961 96.9954 166.014 97.5002 166.306C98.0166 166.604 98.1056 166.903 97.6563 167.162ZM96.1785 166.31C95.8287 166.512 95.9303 166.748 96.3325 166.982C96.7462 167.221 97.1442 167.272 97.494 167.07C97.8427 166.868 97.7548 166.638 97.3411 166.399C96.9389 166.166 96.5283 166.107 96.1785 166.31Z" fill="black"/>
<path d="M99.8021 165.922C99.3528 166.182 98.8354 166.13 98.3202 165.833C97.8143 165.541 97.7138 165.235 98.163 164.975C98.6029 164.722 99.1433 164.774 99.6471 165.066C100.162 165.364 100.251 165.663 99.8021 165.922ZM98.3243 165.069C97.9745 165.272 98.0761 165.508 98.4793 165.742C98.893 165.981 99.291 166.032 99.6408 165.83C99.9906 165.628 99.9016 165.398 99.4879 165.158C99.0847 164.926 98.6741 164.867 98.3243 165.069Z" fill="black"/>
<path d="M101.286 165.066C100.837 165.326 100.32 165.275 99.8045 164.977C99.2987 164.686 99.1982 164.379 99.6474 164.12C100.088 163.865 100.628 163.918 101.132 164.211C101.648 164.508 101.736 164.807 101.286 165.066ZM99.8087 164.213C99.46 164.415 99.5605 164.652 99.9637 164.885C100.377 165.124 100.775 165.175 101.125 164.973C101.475 164.771 101.386 164.542 100.972 164.302C100.569 164.069 100.159 164.011 99.8087 164.213Z" fill="black"/>
<path d="M102.769 164.21C102.319 164.469 101.802 164.418 101.287 164.121C100.782 163.829 100.68 163.523 101.13 163.263C101.57 163.009 102.11 163.062 102.615 163.354C103.129 163.651 103.217 163.95 102.769 164.21ZM101.291 163.356C100.942 163.558 101.043 163.795 101.446 164.027C101.86 164.266 102.257 164.317 102.607 164.115C102.957 163.913 102.868 163.684 102.454 163.445C102.051 163.213 101.641 163.154 101.291 163.356Z" fill="black"/>
<path d="M104.488 163.189C104.442 163.216 104.393 163.216 104.347 163.189L102.992 162.407L102.877 162.466C102.83 162.49 102.779 162.489 102.735 162.464L102.73 162.461C102.684 162.434 102.684 162.406 102.73 162.379L102.919 162.269C102.966 162.243 103.015 162.243 103.061 162.269L104.5 163.099C104.546 163.127 104.546 163.154 104.5 163.181L104.488 163.189Z" fill="black"/>
</svg>
