<svg width="190" height="180" viewBox="0 0 190 180" fill="none" xmlns="http://www.w3.org/2000/svg">
<path d="M38.1216 167.718C36.7562 167.718 35.3897 167.41 34.3255 166.795C33.1756 166.135 32.541 165.209 32.541 164.192C32.541 163.176 33.1738 162.253 34.3227 161.591C36.4481 160.368 39.778 160.37 41.9053 161.591C43.0562 162.257 43.6899 163.182 43.6889 164.199C43.6889 165.215 43.0562 166.138 41.9091 166.801C40.8469 167.412 39.4843 167.718 38.1216 167.718ZM38.1131 162.123C36.9944 162.123 35.8767 162.364 35.046 162.843C34.3736 163.229 33.9875 163.722 33.9875 164.192C33.9875 164.664 34.3746 165.157 35.0488 165.544C36.7146 166.507 39.5237 166.509 41.1858 165.548C41.8572 165.163 42.2425 164.67 42.2425 164.2C42.2435 163.727 41.8564 163.233 41.1812 162.842C40.3497 162.364 39.2309 162.123 38.1131 162.123Z" fill="#4C4F6B"/>
<path d="M119.199 35.0446C118.603 35.0446 117.958 34.8547 117.303 34.4776C115.176 33.2532 113.51 30.3737 113.51 27.922C113.509 26.598 113.993 25.588 114.873 25.0801C115.754 24.5724 116.875 24.656 118.026 25.3199C120.154 26.5472 121.819 29.4276 121.819 31.8774C121.819 33.2005 121.334 34.2087 120.454 34.7165C120.074 34.9356 119.651 35.0446 119.199 35.0446ZM116.13 26.2002C115.929 26.2002 115.748 26.2434 115.598 26.3309C115.189 26.5661 114.955 27.1463 114.956 27.9212C114.956 29.8397 116.362 32.2686 118.026 33.2269C118.7 33.6143 119.32 33.7018 119.731 33.4657C120.138 33.2305 120.373 32.6513 120.373 31.8774C120.373 29.9618 118.967 27.5308 117.303 26.5707C116.877 26.3252 116.473 26.2002 116.13 26.2002Z" fill="#4C4F6B"/>
<path d="M22.3525 49.1299C22.3346 49.1299 22.3167 49.129 22.2988 49.128C22.0032 49.1063 21.7498 48.9051 21.6622 48.622C21.2516 47.3074 20.5886 45.8421 19.7449 44.3855C18.9068 42.9306 17.967 41.6244 17.0243 40.6051C16.8218 40.3869 16.7747 40.0672 16.9047 39.8001C17.0347 39.533 17.3209 39.3873 17.6119 39.3948C18.4331 39.4606 19.2628 39.2649 20.0124 38.8352C20.7573 38.4093 21.3402 37.7905 21.6989 37.0447C21.827 36.7766 22.1068 36.6168 22.4034 36.6375C22.7 36.659 22.9533 36.8603 23.0409 37.1435C23.4524 38.4637 24.1144 39.9289 24.9563 41.3819C24.9563 41.3828 24.9563 41.3828 24.9563 41.3828C25.7963 42.8366 26.738 44.1419 27.6806 45.1576C27.8821 45.3758 27.9302 45.6946 27.8012 45.9617C27.6721 46.2288 27.3991 46.3858 27.0957 46.3688C26.2765 46.3095 25.4403 46.5023 24.6897 46.9312C23.9476 47.3573 23.3637 47.976 23.004 48.7218C22.8827 48.9729 22.6284 49.1299 22.3525 49.1299ZM19.0329 40.7378C19.7194 41.6096 20.3862 42.6017 20.9983 43.6634C21.6132 44.726 22.1396 45.7971 22.5521 46.8232C22.9543 46.3736 23.4307 45.9881 23.9703 45.6787C24.5099 45.3693 25.0834 45.1511 25.6729 45.0289C24.9854 44.158 24.3178 43.1678 23.7037 42.1061C23.0888 41.0443 22.5633 39.9723 22.1508 38.9444C21.7488 39.3939 21.2722 39.7795 20.7317 40.0879C20.1931 40.3974 19.6206 40.6155 19.0329 40.7378Z" fill="#4C4F6B"/>
<path d="M155.826 130.623C155.575 130.623 155.332 130.493 155.198 130.262C154.999 129.916 155.117 129.474 155.464 129.275L162.247 125.371C162.596 125.171 163.035 125.29 163.235 125.635C163.435 125.981 163.316 126.423 162.969 126.622L156.186 130.527C156.072 130.593 155.948 130.623 155.826 130.623Z" fill="#4C4F6B"/>
<path d="M162.612 134.532C162.361 134.532 162.118 134.402 161.985 134.171L155.199 122.446C154.999 122.1 155.117 121.659 155.463 121.459C155.812 121.258 156.252 121.378 156.451 121.723L163.237 133.448C163.437 133.792 163.319 134.234 162.972 134.434C162.859 134.5 162.734 134.532 162.612 134.532Z" fill="#4C4F6B"/>
<path d="M10.1737 102.02L0.722656 96.5695V93.4023L25.0848 79.3584L34.5339 84.8051V87.9742L10.1737 102.02Z" fill="white"/>
<path d="M10.1743 102.742C10.049 102.742 9.92472 102.71 9.81263 102.645L0.361619 97.1948C0.13745 97.0659 0 96.827 0 96.5693V93.4021C0 93.1444 0.13745 92.9056 0.361619 92.7768L24.7236 78.7329C24.9476 78.6032 25.2227 78.6032 25.4468 78.7329L34.896 84.1798C35.12 84.3086 35.2576 84.5474 35.2576 84.8051V87.9743C35.2576 88.2319 35.12 88.4708 34.896 88.5997L10.5359 102.645C10.4238 102.71 10.2995 102.742 10.1743 102.742ZM1.44647 96.1529L10.1743 101.186L33.8111 87.5577V85.2217L25.0852 80.1924L1.44647 93.8189V96.1529Z" fill="#4C4F6B"/>
<path d="M10.1737 102.02L0.722656 96.5695V93.4023L10.1737 98.8509V102.02Z" fill="#FFBE2E"/>
<path d="M10.1743 102.742C10.049 102.742 9.92472 102.71 9.81264 102.645L0.36162 97.1947C0.13745 97.0659 0 96.827 0 96.5693V93.4021C0 93.1444 0.13745 92.9056 0.36162 92.7767C0.585789 92.647 0.860796 92.647 1.08486 92.7767L10.5358 98.2254C10.7599 98.3543 10.8974 98.5931 10.8974 98.8508V102.02C10.8974 102.278 10.7599 102.516 10.5358 102.645C10.4238 102.71 10.2995 102.742 10.1743 102.742ZM1.44647 96.1529L9.45102 100.769V99.2676L1.44647 94.653V96.1529Z" fill="#4C4F6B"/>
<path d="M10.1738 98.8509L34.534 84.8051V87.9742L10.1738 102.02V98.8509Z" fill="#4C4F6B"/>
<path d="M10.1744 102.742C10.0491 102.742 9.92487 102.71 9.81279 102.645C9.58862 102.517 9.45117 102.278 9.45117 102.02V98.8508C9.45117 98.5931 9.58873 98.3543 9.81279 98.2255L34.1729 84.1797C34.397 84.0498 34.6721 84.0498 34.8961 84.1797C35.1202 84.3085 35.2577 84.5473 35.2577 84.805V87.9742C35.2577 88.2318 35.1202 88.4707 34.8961 88.5995L10.536 102.645C10.4239 102.71 10.2997 102.742 10.1744 102.742ZM10.8976 99.2676V100.769L33.8113 87.5577V86.0558L10.8976 99.2676Z" fill="#4C4F6B"/>
<path d="M66.5853 25.158C72.8024 23.6805 76.6429 17.4499 75.1634 11.2414C73.6839 5.03298 67.4446 1.19773 61.2276 2.67516C55.0106 4.15259 51.1701 10.3832 52.6496 16.5917C54.1291 22.8001 60.3683 26.6354 66.5853 25.158Z" fill="white"/>
<path d="M63.9063 26.1992C57.127 26.1992 51.6113 20.6913 51.6113 13.9213C51.6113 7.15136 57.1269 1.64337 63.9063 1.64337C70.6857 1.64337 76.2012 7.15125 76.2012 13.9213C76.2012 20.6913 70.6857 26.1992 63.9063 26.1992ZM63.9063 3.08795C57.9246 3.08795 53.0578 7.94792 53.0578 13.9214C53.0578 19.8948 57.9245 24.7548 63.9063 24.7548C69.888 24.7548 74.7548 19.8948 74.7548 13.9214C74.7548 7.94792 69.888 3.08795 63.9063 3.08795Z" fill="#4C4F6B"/>
<path d="M63.9056 2.3656C63.446 2.3656 62.9939 2.39956 62.5496 2.45209C67.26 3.24401 70.8554 7.30642 70.8554 12.2361C70.8554 17.7298 66.3955 22.1855 60.8921 22.1855C57.8787 22.1855 55.2118 20.822 53.3848 18.7116C55.2079 22.7008 59.2271 25.4769 63.9056 25.4769C70.2961 25.4769 75.4773 20.3029 75.4773 13.9213C75.4773 7.53968 70.2961 2.3656 63.9056 2.3656Z" fill="#FFBE2E"/>
<path d="M63.9062 26.1992C59.111 26.1992 54.7226 23.3779 52.7271 19.0117C52.5783 18.6844 52.6923 18.2979 52.9946 18.1042C53.295 17.9087 53.6961 17.9641 53.9326 18.2397C55.7068 20.2879 58.2428 21.4634 60.8927 21.4634C65.9874 21.4634 70.1328 17.3238 70.1328 12.2362C70.1328 7.72983 66.8933 3.9146 62.4306 3.16416C62.0755 3.10488 61.8184 2.79365 61.827 2.43441C61.8364 2.07517 62.1076 1.7771 62.4655 1.73474C62.9373 1.67922 63.4175 1.64349 63.9063 1.64349C70.6856 1.64349 76.2012 7.15138 76.2012 13.9215C76.2011 20.6913 70.6855 26.1992 63.9062 26.1992ZM56.7575 22.0558C58.7022 23.7607 61.2325 24.7547 63.9061 24.7547C69.8878 24.7547 74.7545 19.8947 74.7545 13.9213C74.7545 9.06136 71.5338 4.93955 67.1116 3.57029C69.8453 5.51225 71.579 8.68896 71.579 12.2361C71.579 18.1202 66.7847 22.9078 60.8925 22.9078C59.4594 22.9078 58.0563 22.6125 56.7575 22.0558Z" fill="#4C4F6B"/>
<path d="M97.4357 40.3504C86.9527 34.3036 77.4584 33.7112 70.5746 37.6251L70.5727 37.6214L70.5123 37.6552C70.5087 37.6552 70.5068 37.659 70.5068 37.659L64.2463 41.2663L64.2482 41.2702C57.3397 45.216 53.0625 53.7135 53.0625 65.8295C53.0625 90.0281 70.111 119.47 91.1432 131.594C101.641 137.648 111.147 138.237 118.036 134.304V134.306L124.361 130.659C131.253 126.706 135.515 118.21 135.515 106.113C135.514 81.9198 118.464 52.476 97.4357 40.3504Z" fill="#FFBE2E"/>
<path d="M108.181 137.533C102.829 137.533 96.9071 135.751 90.7842 132.22C69.5873 120.001 52.3418 90.2181 52.3418 65.8296C52.3418 53.8791 56.4184 44.9527 63.8231 40.6823C63.8438 40.6673 63.8645 40.6541 63.8871 40.641L70.1354 37.0402C70.1438 37.0355 70.1523 37.0308 70.1607 37.0262H70.1599C70.1835 37.013 70.2069 37.0017 70.2314 36.9904C77.6511 32.7793 87.4402 33.7498 97.7999 39.7251C118.996 51.9475 136.24 81.7292 136.24 106.113C136.24 118.085 132.151 127.024 124.724 131.285L118.401 134.932C115.353 136.67 111.905 137.533 108.181 137.533ZM64.6771 41.8532C64.6555 41.8692 64.6328 41.8834 64.6093 41.8974C57.6313 45.8829 53.7882 54.3822 53.7882 65.8298C53.7882 89.7583 70.7088 118.979 91.5073 130.968C101.425 136.687 110.721 137.646 117.68 133.678L124.002 130.033C130.962 126.041 134.794 117.546 134.794 106.113C134.794 82.1889 117.874 52.9678 97.0766 40.9759C87.1764 35.2638 77.8912 34.2953 70.9348 38.2524C70.9122 38.2656 70.8896 38.2769 70.866 38.2873L64.6771 41.8532Z" fill="#4C4F6B"/>
<path d="M85.2793 127.638C87.1967 129.087 89.1479 130.443 91.1481 131.594C101.646 137.648 111.152 138.237 118.041 134.304V134.306L124.366 130.659C131.257 126.706 135.519 118.21 135.519 106.113C135.519 103.777 135.314 101.381 135.009 98.9677L85.2793 127.638Z" fill="#4C4F6B"/>
<path d="M108.182 137.533C102.83 137.533 96.9083 135.75 90.7854 132.22C88.9726 131.176 87.0289 129.865 84.8422 128.215C84.6483 128.068 84.5419 127.835 84.5559 127.593C84.571 127.352 84.7065 127.135 84.9167 127.013L134.646 98.3423C134.857 98.219 135.113 98.2144 135.329 98.3206C135.547 98.4278 135.695 98.6376 135.725 98.8774C136.073 101.623 136.241 103.99 136.241 106.113C136.241 118.085 132.152 127.024 124.725 131.285L118.402 134.932C115.354 136.67 111.906 137.533 108.182 137.533ZM86.591 127.716C88.3765 129.027 89.9924 130.095 91.5076 130.967C101.427 136.687 110.722 137.65 117.681 133.678L124.003 130.033C130.963 126.041 134.795 117.546 134.795 106.113C134.795 104.333 134.672 102.372 134.42 100.14L86.591 127.716Z" fill="#4C4F6B"/>
<path d="M129.222 109.739C129.222 85.5479 112.171 56.1039 91.1432 43.9784C70.111 31.8529 53.0625 41.6348 53.0625 65.8295C53.0625 90.0281 70.111 119.47 91.1432 131.594C112.171 143.721 129.222 133.934 129.222 109.739Z" fill="white"/>
<path d="M108.183 137.537C102.832 137.537 96.911 135.752 90.7842 132.22C69.5873 120.001 52.3418 90.2181 52.3418 65.8296C52.3418 53.8791 56.4194 44.9462 63.8241 40.6777C71.2541 36.3923 81.0865 37.344 91.5074 43.3532C112.703 55.5756 129.948 85.3562 129.948 109.739C129.948 121.692 125.868 130.625 118.462 134.897C115.401 136.661 111.932 137.537 108.183 137.537ZM74.1093 39.4814C70.609 39.4814 67.3827 40.293 64.5472 41.9284C57.6097 45.9289 53.7883 54.4169 53.7883 65.8296C53.7883 89.7582 70.7089 118.979 91.5074 130.967C101.46 136.708 110.776 137.663 117.739 133.644C124.679 129.643 128.502 121.153 128.502 109.739C128.502 85.8159 111.582 56.5958 90.7843 44.6037C84.8824 41.2014 79.2048 39.4814 74.1093 39.4814Z" fill="#4C4F6B"/>
<path d="M91.148 56.4484C76.1013 47.7739 63.9063 54.7706 63.9063 72.0797C63.9044 89.3905 76.1032 110.452 91.148 119.124C106.193 127.798 118.388 120.804 118.388 103.495C118.39 86.1837 106.193 65.1226 91.148 56.4484ZM91.148 106.658C82.0851 101.437 74.7416 88.753 74.7434 78.3276C74.7434 67.9042 82.0851 63.6893 91.148 68.9142C100.209 74.1372 107.553 86.8195 107.553 97.2429C107.551 107.67 100.209 111.883 91.148 106.658ZM91.148 94.1902C88.0743 92.4185 85.5806 88.1151 85.5806 84.5774C85.5806 81.0377 88.0724 79.6082 91.148 81.3837C94.2218 83.1555 96.7153 87.4588 96.7133 90.9965C96.7152 94.5345 94.2218 95.9639 91.148 94.1902Z" fill="#FFBE2E"/>
<path d="M103.339 123.582C99.4741 123.582 95.2015 122.296 90.785 119.749C75.5623 110.975 63.1798 89.5899 63.1816 72.0796C63.1816 63.4542 66.1348 57.0003 71.4979 53.9082C76.8778 50.8049 83.9868 51.4857 91.5082 55.8228C106.73 64.5987 119.112 85.9843 119.11 103.495C119.11 112.12 116.157 118.573 110.793 121.665C108.572 122.946 106.057 123.582 103.339 123.582ZM78.9589 53.437C76.4907 53.437 74.2175 54.0078 72.221 55.1589C67.3251 57.982 64.628 63.9911 64.628 72.0795C64.6261 89.1299 76.6847 109.953 91.5081 118.499C98.5644 122.568 105.157 123.248 110.07 120.414C114.967 117.591 117.663 111.582 117.663 103.495C117.665 86.4441 105.607 65.6198 90.7849 57.0735C86.5943 54.6577 82.5677 53.437 78.9589 53.437ZM98.4901 109.631C96.1122 109.631 93.4895 108.844 90.785 107.284C81.5383 101.957 74.0169 88.9674 74.0188 78.3276C74.0188 73.0257 75.8486 69.0505 79.1708 67.135C82.5007 65.2128 86.8825 65.6218 91.5081 68.2888C100.753 73.618 108.274 86.606 108.274 97.2428C108.273 102.547 106.443 106.523 103.12 108.438C101.738 109.235 100.175 109.631 98.4901 109.631ZM83.8078 67.3879C82.3708 67.3879 81.0504 67.7189 79.8941 68.3857C77.038 70.0323 75.4654 73.5635 75.4654 78.3276C75.4635 88.5074 82.66 100.936 91.5082 106.033C95.664 108.428 99.5316 108.84 102.397 107.188C105.253 105.541 106.827 102.009 106.828 97.2428C106.828 87.0667 99.6315 74.6384 90.7851 69.5395C88.3064 68.1102 85.9296 67.3879 83.8078 67.3879ZM93.6393 95.678C92.7494 95.678 91.7785 95.3883 90.785 94.8156C87.4608 92.8991 84.856 88.402 84.856 84.5775C84.856 82.5989 85.5623 81.1027 86.844 80.3645C88.1275 79.6234 89.7868 79.7626 91.5082 80.7585C94.8335 82.675 97.4372 87.173 97.4353 90.9967C97.4362 92.9733 96.7309 94.4686 95.4493 95.2077C94.9049 95.5219 94.2937 95.678 93.6393 95.678ZM88.6557 81.3416C88.2517 81.3416 87.8845 81.4319 87.5662 81.6153C86.7516 82.0854 86.3024 83.1368 86.3024 84.5775C86.3024 87.8783 88.6379 91.9098 91.5081 93.5649C92.7663 94.2918 93.9095 94.4283 94.7259 93.9571C95.5414 93.487 95.9897 92.4356 95.9888 90.9968C95.9906 87.6959 93.6561 83.6645 90.7849 82.0093C90.0165 81.5664 89.2913 81.3416 88.6557 81.3416Z" fill="#4C4F6B"/>
<path d="M42.7279 123.845C48.5608 120.482 54.569 111.48 54.7197 108.787C49.126 112.011 43.536 115.235 37.9403 118.46C37.7896 121.155 36.5635 124.791 34.5332 128.569C40.1289 125.342 37.1322 127.069 42.7279 123.845Z" fill="#FFBE2E"/>
<path d="M34.5319 129.292C34.3482 129.292 34.1675 129.222 34.029 129.089C33.7964 128.863 33.7418 128.512 33.8943 128.228C35.8625 124.566 37.0736 120.992 37.2167 118.42C37.2309 118.176 37.3664 117.956 37.5774 117.835L54.3568 108.162C54.5885 108.027 54.8728 108.035 55.097 108.172C55.3239 108.311 55.4557 108.562 55.4407 108.828C55.2637 111.984 48.9702 121.079 43.0883 124.47L34.8936 129.196C34.7804 129.26 34.6561 129.292 34.5319 129.292ZM38.632 118.895C38.4361 121.112 37.6103 123.83 36.258 126.739L42.3649 123.22C47.2787 120.386 52.0344 113.721 53.5223 110.311L38.632 118.895Z" fill="#4C4F6B"/>
<path d="M34.5327 121.148C34.2822 121.148 34.0392 121.018 33.9055 120.787C33.7059 120.442 33.8245 120 34.1701 119.8L90.7819 87.1607C91.1293 86.9596 91.571 87.0818 91.7697 87.425C91.9694 87.77 91.8506 88.2121 91.5051 88.4114L34.8933 121.051C34.7795 121.117 34.6552 121.148 34.5327 121.148Z" fill="#4C4F6B"/>
<path d="M49.9656 119.694C55.7854 116.333 56.9663 110.104 54.8512 108.71C49.2708 111.928 43.6901 115.144 38.1113 118.36C40.2264 119.756 41.5467 121.93 41.7915 124.402C47.3741 121.184 44.3851 122.908 49.9656 119.694Z" fill="white"/>
<path d="M41.7905 125.124C41.6774 125.124 41.5635 125.098 41.4599 125.044C41.2413 124.932 41.0945 124.717 41.0709 124.473C40.8458 122.2 39.6527 120.244 37.7119 118.963C37.5028 118.825 37.3795 118.589 37.387 118.339C37.3946 118.089 37.532 117.86 37.7487 117.735L54.4884 108.085C54.7266 107.946 55.0205 107.957 55.2484 108.107C56.1299 108.687 56.5913 109.81 56.548 111.268C56.4662 114.032 54.5111 117.902 50.3262 120.319L42.1522 125.027C42.04 125.092 41.9156 125.124 41.7905 125.124ZM39.4173 118.44C40.8939 119.701 41.9137 121.382 42.3356 123.253L49.6027 119.069C53.3045 116.93 55.0327 113.589 55.1023 111.226C55.122 110.543 54.9911 109.971 54.7416 109.606L39.4173 118.44Z" fill="#4C4F6B"/>
<path d="M35.8127 111.528C41.6305 108.17 52.4356 107.489 54.854 108.71C49.2735 111.928 43.6929 115.144 38.1141 118.36C35.6959 117.142 31.9252 116.382 27.6367 116.239C33.219 113.019 30.2302 114.746 35.8127 111.528Z" fill="#FFBE2E"/>
<path d="M38.1127 119.083C38.0016 119.083 37.8895 119.057 37.7868 119.006C35.4843 117.845 31.775 117.099 27.6108 116.961C27.2887 116.95 27.0118 116.727 26.9337 116.414C26.8555 116.102 26.994 115.775 27.2737 115.614L35.4495 110.902C41.3164 107.518 52.3504 106.636 55.1784 108.066C55.4157 108.185 55.5682 108.425 55.5758 108.69C55.5833 108.956 55.4439 109.203 55.2141 109.336L38.4744 118.986C38.3623 119.051 38.2379 119.083 38.1127 119.083ZM30.0771 115.665C33.2846 115.957 36.0588 116.604 38.0825 117.543L52.9361 108.981C49.2342 108.552 41.0753 109.324 36.1728 112.153L30.0771 115.665Z" fill="#4C4F6B"/>
<path d="M42.726 107.557C48.5589 104.194 54.5672 106.267 54.7178 108.787C49.1241 112.011 43.5341 115.235 37.9384 118.46C37.7878 115.942 36.5616 113.719 34.5332 112.282C40.127 109.056 37.1322 110.783 42.726 107.557Z" fill="white"/>
<path d="M37.9369 119.182C37.8192 119.182 37.7014 119.153 37.5941 119.096C37.3738 118.977 37.2297 118.754 37.2146 118.503C37.0761 116.19 35.9753 114.19 34.1135 112.87C33.9119 112.728 33.7981 112.493 33.8094 112.248C33.8207 112.002 33.9562 111.78 34.1701 111.656L42.3629 106.932C46.5723 104.507 50.9193 104.745 53.3611 106.058C54.638 106.745 55.3754 107.698 55.4384 108.744C55.4545 109.018 55.315 109.276 55.0778 109.413L38.2984 119.086C38.1864 119.15 38.0622 119.182 37.9369 119.182ZM35.8048 112.382C37.2184 113.674 38.1676 115.389 38.5208 117.289L53.8839 108.434C53.6936 108.041 53.2681 107.649 52.6756 107.331C50.5869 106.207 46.8107 106.037 43.0863 108.182L35.8048 112.382Z" fill="#4C4F6B"/>
<path d="M94.2865 138.865L78.7032 129.879L63.1367 138.856V152.328L78.72 161.311L94.2865 152.339V138.865Z" fill="#FFBE2E"/>
<path d="M78.7187 162.033C78.5934 162.033 78.4692 162.001 78.3571 161.937L62.7737 152.954C62.5496 152.825 62.4121 152.586 62.4121 152.328V138.856C62.4121 138.598 62.5496 138.359 62.7737 138.23L78.3401 129.253C78.5643 129.125 78.8393 129.125 79.0634 129.253L94.6467 138.239C94.8709 138.369 95.0083 138.608 95.0083 138.865V152.339C95.0083 152.597 94.8709 152.836 94.6467 152.966L79.0803 161.937C78.9682 162.001 78.844 162.033 78.7187 162.033ZM63.8586 151.91L78.7187 160.477L93.5619 151.922V139.282L78.7018 130.712L63.8586 139.273V151.91Z" fill="#4C4F6B"/>
<path d="M78.7182 147.838L63.1367 138.856L78.7032 129.878L94.2865 138.865L78.7182 147.838Z" fill="white"/>
<path d="M78.7168 148.561C78.5915 148.561 78.4673 148.529 78.3552 148.465L62.7737 139.482C62.5496 139.352 62.4121 139.113 62.4121 138.856C62.4121 138.598 62.5496 138.359 62.7737 138.229L78.3401 129.252C78.5643 129.124 78.8393 129.124 79.0634 129.252L94.6467 138.239C94.8709 138.369 95.0083 138.607 95.0083 138.865C95.0083 139.123 94.8709 139.362 94.6467 139.491L79.0784 148.465C78.9663 148.529 78.8421 148.561 78.7168 148.561ZM64.5817 138.856L78.7167 147.005L92.8385 138.865L78.7015 130.712L64.5817 138.856Z" fill="#4C4F6B"/>
<path d="M78.7166 161.311L78.7148 147.838L94.2831 138.865V152.339L78.7166 161.311Z" fill="#4C4F6B"/>
<path d="M78.7173 162.033C78.592 162.033 78.4678 162.001 78.3557 161.937C78.1316 161.807 77.9941 161.568 77.9941 161.311L77.9922 147.838C77.9922 147.581 78.1296 147.342 78.3538 147.212L93.9221 138.239C94.1463 138.111 94.4212 138.111 94.6453 138.239C94.8695 138.369 95.0069 138.607 95.0069 138.865V152.339C95.0069 152.597 94.8695 152.836 94.6453 152.965L79.0789 161.937C78.9668 162.001 78.8426 162.033 78.7173 162.033ZM79.4387 148.256L79.4405 160.06L93.5605 151.922V140.116L79.4387 148.256Z" fill="#4C4F6B"/>
<path d="M109.857 135.867L94.2755 126.881L78.7109 135.856V161.314L94.2905 170.297L109.859 161.322L109.857 135.867Z" fill="#FFBE2E"/>
<path d="M94.2911 171.019C94.1658 171.019 94.0416 170.987 93.9295 170.923L78.3499 161.941C78.1257 161.811 77.9883 161.572 77.9883 161.314V135.856C77.9883 135.598 78.1257 135.359 78.3499 135.229L93.9144 126.255C94.1386 126.125 94.4135 126.125 94.6377 126.255L110.219 135.241C110.443 135.371 110.581 135.609 110.581 135.867L110.583 161.322C110.583 161.579 110.445 161.818 110.221 161.948L94.6526 170.923C94.5406 170.987 94.4164 171.019 94.2911 171.019ZM79.4348 160.897L94.2912 169.464L109.136 160.904L109.134 136.284L94.2763 127.715L79.4349 136.273L79.4348 160.897Z" fill="#4C4F6B"/>
<path d="M94.2925 144.838L78.7109 135.856L94.2755 126.881L109.857 135.867L94.2925 144.838Z" fill="white"/>
<path d="M94.293 145.561C94.1677 145.561 94.0435 145.529 93.9314 145.465L78.3499 136.482C78.1257 136.352 77.9883 136.113 77.9883 135.856C77.9883 135.598 78.1257 135.359 78.3499 135.229L93.9144 126.255C94.1386 126.125 94.4135 126.125 94.6377 126.255L110.219 135.241C110.443 135.371 110.581 135.609 110.581 135.867C110.581 136.125 110.443 136.363 110.219 136.493L94.6545 145.465C94.5425 145.529 94.4182 145.561 94.293 145.561ZM80.158 135.856L94.293 144.005L108.411 135.867L94.276 127.715L80.158 135.856Z" fill="#4C4F6B"/>
<path d="M94.2969 170.297L94.2989 144.838L109.863 135.867L109.865 161.322L94.2969 170.297Z" fill="#4C4F6B"/>
<path d="M94.2955 171.019C94.1702 171.019 94.046 170.987 93.9339 170.923C93.7097 170.794 93.5723 170.555 93.5723 170.297L93.5741 144.838C93.5741 144.581 93.7117 144.342 93.9358 144.212L109.5 135.241C109.724 135.113 109.999 135.113 110.224 135.241C110.448 135.371 110.585 135.609 110.585 135.867L110.587 161.322C110.587 161.579 110.449 161.818 110.225 161.948L94.657 170.923C94.545 170.987 94.4208 171.019 94.2955 171.019ZM95.0206 145.256L95.0187 169.046L109.141 160.904L109.139 137.118L95.0206 145.256Z" fill="#4C4F6B"/>
<path d="M125.453 137.368L109.869 128.382L94.3027 137.355L94.3047 170.295L109.886 179.278L125.453 170.306V137.368Z" fill="#FFBE2E"/>
<path d="M109.887 180C109.761 180 109.637 179.968 109.525 179.904L93.9436 170.921C93.7194 170.792 93.582 170.553 93.582 170.295L93.5801 137.355C93.5801 137.097 93.7175 136.858 93.9417 136.728L109.508 127.756C109.732 127.626 110.007 127.626 110.231 127.756L125.815 136.742C126.039 136.871 126.176 137.11 126.176 137.368V170.306C126.176 170.564 126.039 170.803 125.815 170.933L110.248 179.904C110.136 179.968 110.012 180 109.887 180ZM95.0283 169.878L109.887 178.445L124.73 169.889V137.785L109.87 129.215L95.0266 137.772L95.0283 169.878Z" fill="#4C4F6B"/>
<path d="M109.886 146.337L94.3027 137.355L109.869 128.382L125.453 137.368L109.886 146.337Z" fill="white"/>
<path d="M109.887 147.06C109.761 147.06 109.637 147.028 109.525 146.964L93.9417 137.981C93.7175 137.851 93.5801 137.612 93.5801 137.355C93.5801 137.097 93.7175 136.858 93.9417 136.728L109.508 127.756C109.732 127.626 110.007 127.626 110.231 127.756L125.815 136.742C126.039 136.871 126.176 137.11 126.176 137.368C126.176 137.626 126.038 137.864 125.815 137.994L110.248 146.964C110.136 147.028 110.012 147.06 109.887 147.06ZM95.7497 137.355L109.887 145.504L124.007 137.368L109.87 129.215L95.7497 137.355Z" fill="#4C4F6B"/>
<path d="M109.885 179.278V146.337L125.451 137.368V170.306L109.885 179.278Z" fill="#4C4F6B"/>
<path d="M109.883 180C109.758 180 109.634 179.968 109.522 179.904C109.298 179.774 109.16 179.535 109.16 179.278V146.337C109.16 146.08 109.298 145.841 109.522 145.711L125.088 136.742C125.312 136.614 125.587 136.614 125.812 136.742C126.036 136.872 126.173 137.11 126.173 137.368V170.307C126.173 170.564 126.036 170.803 125.812 170.933L110.245 179.904C110.133 179.968 110.009 180 109.883 180ZM110.607 146.755V178.027L124.726 169.889V138.619L110.607 146.755Z" fill="#4C4F6B"/>
<path d="M184.138 66.3469L154.989 49.54C153.618 48.7502 152.376 48.6653 151.461 49.1563L151.456 49.1451L148.052 51.1068C147.133 51.6353 146.564 52.7676 146.564 54.3813V72.3204C146.564 75.5497 148.841 79.4805 151.65 81.1L180.797 97.9031C182.17 98.6968 183.409 98.7777 184.323 98.2905L184.329 98.2999L184.389 98.2659C184.391 98.2641 184.393 98.2641 184.395 98.2623L187.73 96.34C188.651 95.8115 189.222 94.6775 189.222 93.0619V75.1246C189.222 71.8989 186.945 67.9642 184.138 66.3469Z" fill="#FFBE2E"/>
<path d="M183.058 99.3173C182.234 99.3173 181.34 99.0521 180.434 98.5284L151.287 81.7254C148.233 79.9639 145.84 75.8328 145.84 72.3204V54.3812C145.84 52.5521 146.497 51.1668 147.69 50.4803L151.093 48.5196C151.144 48.4895 151.198 48.4669 151.254 48.4509C152.419 47.896 153.863 48.0597 155.349 48.9145L184.499 65.7214C187.552 67.4809 189.944 71.6111 189.944 75.1245V93.0618C189.944 94.8937 189.286 96.2798 188.09 96.9662L184.755 98.8874C184.714 98.911 184.67 98.9308 184.625 98.9467C184.147 99.1941 183.618 99.3173 183.058 99.3173ZM151.699 49.8381L148.413 51.732C147.686 52.1495 147.286 53.0909 147.286 54.3812V72.3203C147.286 75.3145 149.405 78.9727 152.01 80.4744L181.158 97.2776C182.248 97.9086 183.25 98.0421 183.981 97.6537C184.012 97.6368 184.043 97.6228 184.075 97.6115L187.367 95.7147C188.096 95.2963 188.497 94.3539 188.497 93.0619V75.1246C188.497 72.1812 186.335 68.4477 183.776 66.9722L154.626 50.1653C153.534 49.5344 152.529 49.4017 151.802 49.7929C151.769 49.8107 151.734 49.8258 151.699 49.8381Z" fill="#4C4F6B"/>
<path d="M184.324 98.2903L184.33 98.2997L184.39 98.2658C184.392 98.264 184.394 98.264 184.396 98.2621L187.731 96.3399C188.652 95.8114 189.223 94.6774 189.223 93.0617V75.1245C189.223 73.6275 188.718 71.9837 187.912 70.4845L160.576 86.2439L180.799 97.903C182.172 98.6967 183.411 98.7775 184.324 98.2903Z" fill="#4C4F6B"/>
<path d="M183.059 99.3173C182.235 99.3173 181.341 99.0521 180.435 98.5284L160.213 86.8693C159.989 86.7404 159.852 86.5015 159.852 86.2439C159.852 85.9862 159.989 85.7473 160.213 85.6186L187.549 69.8593C187.719 69.7614 187.92 69.7371 188.108 69.7897C188.297 69.8434 188.455 69.9712 188.548 70.1433C189.449 71.8182 189.945 73.587 189.945 75.1246V93.0619C189.945 94.8938 189.287 96.28 188.091 96.9664L184.756 98.8875C184.715 98.9111 184.671 98.9309 184.626 98.9468C184.148 99.1941 183.619 99.3173 183.059 99.3173ZM162.021 86.2439L181.159 97.2776C182.253 97.9086 183.252 98.0412 183.982 97.6537C184.013 97.6368 184.044 97.6228 184.076 97.6115L187.368 95.7147C188.097 95.2963 188.498 94.3539 188.498 93.0619V75.1246C188.498 74.0177 188.185 72.7501 187.607 71.4938L162.021 86.2439Z" fill="#4C4F6B"/>
<path d="M180.797 68.2728L151.65 51.4659C148.841 49.8485 146.564 51.1537 146.564 54.3813V72.3204C146.564 75.5497 148.841 79.4805 151.65 81.1L180.797 97.9032C183.604 99.5244 185.881 98.2173 185.881 94.9878L185.883 77.0506C185.881 73.8249 183.604 69.8902 180.797 68.2728Z" fill="white"/>
<path d="M183.073 99.3248C182.248 99.3248 181.351 99.0577 180.434 98.5283L151.287 81.7253C148.233 79.9638 145.84 75.8327 145.84 72.3203V54.3812C145.84 52.5549 146.495 51.1706 147.686 50.4841C148.88 49.7948 150.415 49.9218 152.01 50.8406L181.158 67.6475C184.21 69.4069 186.603 73.5372 186.605 77.0506L186.603 94.9878C186.603 96.8169 185.946 98.2021 184.755 98.8876C184.249 99.1801 183.681 99.3248 183.073 99.3248ZM149.377 51.4923C149.017 51.4923 148.691 51.5722 148.409 51.7349C147.685 52.1524 147.286 53.0928 147.286 54.3812V72.3203C147.286 75.3145 149.405 78.9727 152.01 80.4745L181.158 97.2776C182.284 97.9274 183.304 98.0544 184.033 97.6368C184.757 97.2193 185.156 96.2789 185.156 94.9877L185.158 77.0504C185.156 74.0552 183.037 70.3981 180.435 68.8981L151.287 52.0913C150.597 51.6934 149.945 51.4923 149.377 51.4923Z" fill="#4C4F6B"/>
<path d="M170.417 82.5049C170.295 82.5049 170.171 82.4738 170.057 82.408L154.592 73.493C154.247 73.2936 154.128 72.8516 154.327 72.5066C154.525 72.1634 154.969 72.041 155.315 72.2423L170.78 81.1573C171.126 81.3567 171.244 81.7987 171.045 82.1438C170.911 82.375 170.668 82.5049 170.417 82.5049ZM177.493 81.9049C177.371 81.9049 177.247 81.8738 177.133 81.808L154.592 68.8153C154.246 68.6159 154.128 68.1739 154.327 67.8288C154.525 67.4837 154.969 67.3652 155.315 67.5646L177.856 80.5572C178.201 80.7566 178.32 81.1986 178.121 81.5438C177.987 81.775 177.744 81.9049 177.493 81.9049ZM177.492 77.2292C177.369 77.2292 177.245 77.1981 177.131 77.1323L154.592 64.134C154.247 63.9345 154.128 63.4926 154.327 63.1475C154.525 62.8023 154.969 62.682 155.315 62.8833L177.854 75.8815C178.2 76.0809 178.318 76.5228 178.119 76.868C177.985 77.0994 177.742 77.2292 177.492 77.2292Z" fill="#4C4F6B"/>
</svg>
