<svg width="178" height="178" viewBox="0 0 178 178" fill="none" xmlns="http://www.w3.org/2000/svg">
<path d="M118.369 119.813C118.311 119.813 118.254 119.784 118.221 119.731C118.171 119.649 118.196 119.542 118.278 119.492L176.481 83.7053C177.081 83.3564 177.409 82.9054 177.409 82.4331C177.409 81.9564 177.074 81.502 176.469 81.152L159.038 71.0851C158.955 71.0371 158.927 70.931 158.974 70.8484C159.022 70.7647 159.13 70.7373 159.211 70.7853L176.643 80.8522C177.359 81.2664 177.755 81.828 177.756 82.4331C177.757 83.0349 177.367 83.5925 176.659 84.0039L118.46 119.788C118.431 119.805 118.4 119.813 118.369 119.813Z" fill="#DBDEE4"/>
<path d="M44.7922 178C43.4022 178 42.0117 177.694 40.95 177.081L14.3776 161.739C14.295 161.691 14.2665 161.585 14.314 161.503C14.3625 161.419 14.4692 161.391 14.5512 161.439L41.1236 176.781C43.1499 177.951 46.4378 177.951 48.4502 176.781L74.8501 161.439C74.9327 161.391 75.0393 161.418 75.0873 161.502C75.1353 161.584 75.1074 161.691 75.0248 161.739L48.6249 177.081C47.5705 177.694 46.1822 178 44.7922 178Z" fill="#DBDEE4"/>
<path d="M120.311 177.918C119.666 177.918 119.023 177.751 118.449 177.417L85.6036 158.178C85.521 158.13 85.4931 158.024 85.5411 157.941C85.5891 157.858 85.6963 157.831 85.7783 157.879L118.623 177.118C119.664 177.722 120.957 177.722 121.998 177.117L140.863 166.153C140.946 166.105 141.053 166.132 141.101 166.216C141.149 166.299 141.121 166.405 141.038 166.453L122.173 177.417C121.598 177.751 120.954 177.918 120.311 177.918Z" fill="#DBDEE4"/>
<path d="M139.433 164.314C138.064 165.105 138.056 166.387 139.416 167.177C140.776 167.968 142.99 167.967 144.359 167.177C145.727 166.386 145.734 165.105 144.374 164.315C143.015 163.524 140.802 163.524 139.433 164.314Z" fill="#FFF7E4"/>
<path d="M141.882 167.941C140.957 167.941 140.031 167.736 139.328 167.328C138.617 166.914 138.226 166.354 138.227 165.751C138.227 165.144 138.625 164.58 139.345 164.164C140.76 163.347 143.055 163.348 144.46 164.165C145.171 164.579 145.563 165.138 145.562 165.742C145.561 166.349 145.164 166.912 144.444 167.328C143.737 167.736 142.809 167.941 141.882 167.941ZM141.905 163.895C141.042 163.895 140.178 164.085 139.518 164.465C138.91 164.817 138.574 165.274 138.574 165.752C138.573 166.226 138.903 166.68 139.503 167.028C140.813 167.79 142.951 167.789 144.27 167.027C144.879 166.676 145.214 166.219 145.215 165.741C145.215 165.267 144.886 164.814 144.285 164.465C143.631 164.085 142.769 163.895 141.905 163.895Z" fill="#DBDEE4"/>
<path d="M141.886 166.649C142.42 166.649 142.937 166.527 143.304 166.315C143.599 166.145 143.768 165.936 143.768 165.742C143.768 165.55 143.602 165.344 143.313 165.175C142.949 164.964 142.435 164.843 141.902 164.843C141.368 164.843 140.852 164.964 140.486 165.176C140.191 165.346 140.022 165.556 140.021 165.75C140.021 165.942 140.187 166.148 140.476 166.316C140.839 166.527 141.353 166.649 141.886 166.649Z" fill="#FFBE2E"/>
<g opacity="0.1">
<path d="M127.761 132.635C132.04 135.106 132.063 139.116 127.811 141.587L73.4233 173.194C69.1713 175.665 62.2477 175.665 57.9684 173.194L3.22441 141.588C-1.05491 139.117 -1.07779 135.107 3.17416 132.636L57.562 101.029C61.814 98.5581 68.7376 98.5581 73.0169 101.029L127.761 132.635Z" fill="black"/>
</g>
<path d="M130.226 131.106L76.0797 162.709C72.4686 164.82 66.5777 164.84 62.9214 162.736L14.8542 134.873C12.2825 133.386 9.97037 130.872 8.29459 127.962C6.61882 125.059 5.58611 121.812 5.59281 118.857V53.7215C5.58611 49.5516 8.51564 44.4729 12.1457 42.3818L56.6515 16.6848C57.0512 16.4537 57.5474 16.4548 57.9482 16.6836C62.7182 19.4044 67.1806 21.9482 72.2364 24.8253C72.6869 25.0815 72.9682 25.5627 72.9671 26.0807L72.8778 66.1977C72.8711 69.1529 73.8977 85.9548 75.5734 88.8642C77.262 91.7737 79.5613 94.2873 82.1264 95.7811L119.107 117.129L130.168 123.487C130.356 123.598 130.545 123.714 130.713 123.832L130.934 123.955L130.915 123.968C133.805 126.086 133.584 129.151 130.226 131.106Z" fill="#FFF7E4"/>
<path d="M69.4807 164.472C67.0775 164.472 64.6738 163.944 62.8356 162.887L14.7685 135.024C12.2475 133.566 9.89575 131.09 8.14518 128.05C6.38176 124.995 5.41381 121.731 5.41995 118.858V53.722C5.41381 49.4996 8.39247 44.3444 12.0594 42.2316L56.5651 16.5351C57.0156 16.2744 57.5789 16.2733 58.0349 16.5328C62.8049 19.2536 67.2673 21.7974 72.3225 24.6745C72.8288 24.9625 73.142 25.5017 73.1403 26.0812L73.0516 66.1982C73.0449 69.274 74.1005 85.9603 75.7238 88.7776C77.4615 91.7724 79.7664 94.2063 82.2136 95.6314L119.194 116.979L130.255 123.338C130.448 123.451 130.64 123.57 130.812 123.69L131.019 123.804C131.052 123.823 131.078 123.851 131.092 123.885C132.453 124.908 133.163 126.187 133.094 127.493C133.019 128.919 132.031 130.256 130.313 131.256L76.1659 162.86C74.3299 163.934 71.9061 164.472 69.4807 164.472ZM57.3009 16.6858C57.1066 16.6858 56.9118 16.7355 56.7387 16.8354L12.233 42.5325C8.66153 44.5906 5.76102 49.6102 5.76716 53.722V118.858C5.76102 121.671 6.71279 124.874 8.44606 127.876C10.1659 130.864 12.4731 133.296 14.9421 134.724L63.0092 162.586C66.6047 164.655 72.4286 164.644 75.9928 162.56L130.14 130.957C131.754 130.017 132.681 128.781 132.749 127.475C132.813 126.265 132.125 125.07 130.813 124.109C130.794 124.096 130.78 124.08 130.769 124.062L130.629 123.984C130.449 123.861 130.265 123.746 130.081 123.638L119.021 117.28L82.04 95.9318C79.5414 94.477 77.1913 91.9985 75.424 88.9518C73.693 85.9469 72.6988 68.9128 72.7049 66.1982L72.7937 26.0812C72.7954 25.6262 72.5486 25.2031 72.1506 24.9765C67.0954 22.0994 62.633 19.5556 57.863 16.8348C57.6899 16.7355 57.4951 16.6858 57.3009 16.6858Z" fill="#373B42"/>
<path d="M132.928 127.314L132.922 132.725C132.915 134.095 132.012 135.466 130.22 136.518L76.0797 168.115C72.4624 170.232 66.5777 170.245 62.9213 168.141L14.8346 140.434C10.9444 138.187 7.40475 134.323 4.86541 129.919C2.32607 125.522 0.747981 120.534 0.76082 116.066L0.864647 50.969C0.857948 46.8058 3.78079 41.7271 7.41145 39.636L51.8742 13.9624C52.27 13.7352 52.764 13.7352 53.1665 13.9624C54.5821 14.774 55.9525 15.5539 57.2973 16.3136L57.9465 16.6837C57.5569 16.4565 57.0634 16.4565 56.6671 16.6776L12.1457 42.3903C8.51504 44.4752 5.57937 49.5606 5.59891 53.7238V118.859C5.58607 121.808 6.61822 125.055 8.29399 127.965C9.97591 130.874 12.2752 133.388 14.8536 134.882L62.9208 162.731C66.5771 164.841 72.4613 164.822 76.0791 162.704L130.226 131.108C132.026 130.055 132.922 128.685 132.928 127.314Z" fill="#212121"/>
<path d="M69.483 169.878C67.0799 169.878 64.6745 169.349 62.8352 168.291L14.7479 140.584C10.9453 138.387 7.38276 134.631 4.71503 130.005C2.0406 125.374 0.574159 120.423 0.586998 116.065L0.691387 50.968C0.684688 46.7474 3.66 41.5961 7.32415 39.4849L51.7874 13.8113C52.2357 13.554 52.7962 13.554 53.2522 13.8102C54.6684 14.6224 56.0383 15.4022 57.383 16.1614L58.0099 16.5192C58.0183 16.5237 58.0261 16.5282 58.0345 16.5332C58.1171 16.5812 58.145 16.6872 58.0976 16.7699C58.0495 16.8525 57.9429 16.8804 57.8609 16.8341L57.8391 16.8212C57.5047 16.6365 57.09 16.6387 56.7522 16.8279L12.2326 42.5395C8.6516 44.5965 5.75332 49.6127 5.77341 53.7218V118.858C5.76113 121.662 6.71011 124.864 8.44561 127.877C10.1778 130.873 12.4849 133.307 14.9416 134.73L63.0088 162.579C66.5998 164.653 72.4243 164.642 75.9924 162.553L130.139 130.956C131.819 129.974 132.748 128.679 132.755 127.312C132.755 127.217 132.833 127.14 132.929 127.14H132.929C133.025 127.14 133.102 127.218 133.102 127.314L133.095 132.724C133.089 134.215 132.099 135.615 130.309 136.666L76.1677 168.263C74.3306 169.339 71.9079 169.878 69.483 169.878ZM52.5182 13.9654C52.325 13.9654 52.1319 14.0139 51.9605 14.1122L7.49776 39.7858C3.92962 41.8417 1.0319 46.8579 1.0386 50.9686L0.934211 116.066C0.92193 120.364 2.37163 125.253 5.01591 129.832C7.65294 134.406 11.1708 138.117 14.9215 140.284L63.0088 167.99C66.6059 170.061 72.4304 170.049 75.9924 167.964L130.133 136.367C131.813 135.381 132.742 134.087 132.748 132.724L132.753 128.813C132.32 129.731 131.489 130.57 130.314 131.257L76.1677 162.854C72.5052 164.998 66.5239 165.01 62.8357 162.88L14.7686 135.031C12.2599 133.578 9.90815 131.099 8.14529 128.051C6.37964 124.986 5.41448 121.721 5.42676 118.858V53.7229C5.40723 49.5033 8.38253 44.3515 12.0595 42.2392L56.5809 16.527C56.7238 16.4472 56.8773 16.3925 57.0336 16.3635C55.7463 15.6361 54.4345 14.8892 53.0808 14.1128C52.9067 14.0145 52.7119 13.9654 52.5182 13.9654Z" fill="#373B42"/>
<path d="M71.011 154.895C70.9512 154.895 70.8932 154.864 70.8614 154.809C70.8134 154.726 70.8413 154.62 70.9239 154.572L116.74 127.836C116.822 127.788 116.929 127.816 116.977 127.899C117.025 127.981 116.997 128.088 116.914 128.136L71.0986 154.872C71.0707 154.888 71.0411 154.895 71.011 154.895Z" fill="#373B42"/>
<path d="M53.1923 25.8345C54.5064 25.0759 55.5726 25.6838 55.5771 27.1898L55.5971 34.3724C55.6016 35.8785 54.5416 37.714 53.2281 38.4726L12.9576 61.7766C11.6469 62.533 10.5773 61.9273 10.5728 60.4212L10.5527 53.2386C10.5483 51.7325 11.6111 49.8954 12.9218 49.1385L53.1923 25.8345Z" fill="#FFBE2E"/>
<path d="M11.8916 62.2778C11.6348 62.2778 11.3953 62.217 11.1832 62.0953C10.6802 61.8056 10.4017 61.2117 10.4 60.4223L10.3799 53.2397C10.376 51.6801 11.4779 49.7737 12.8361 48.9894L53.106 25.6854C53.7988 25.2846 54.4608 25.2244 54.9677 25.5163C55.4706 25.8055 55.7492 26.4005 55.7514 27.1904L55.7715 34.373C55.7754 35.9327 54.6735 37.8395 53.3153 38.6238L13.0454 61.9278C12.6418 62.1601 12.2494 62.2778 11.8916 62.2778ZM53.2791 25.9858L13.0091 49.2898C11.7464 50.0188 10.7226 51.79 10.7265 53.2391L10.7466 60.4218C10.7489 61.0816 10.9649 61.5695 11.3568 61.795C11.7531 62.0233 12.2918 61.9619 12.8712 61.6275L53.1412 38.3235C54.4039 37.5945 55.4276 35.8227 55.4237 34.3736L55.4036 27.191C55.4014 26.53 55.1854 26.0422 54.7941 25.8172C54.4 25.5894 53.8618 25.6497 53.2791 25.9858Z" fill="#373B42"/>
<path d="M31.8593 63.5525C31.7996 63.5525 31.7416 63.5213 31.7086 63.466C31.6612 63.3834 31.6891 63.2768 31.7723 63.2293L66.757 42.9844C66.8379 42.9364 66.9445 42.9643 66.9942 43.048C67.0417 43.1306 67.0138 43.2372 66.9306 43.2847L31.9459 63.5297C31.9191 63.5447 31.8889 63.5525 31.8593 63.5525Z" fill="#373B42"/>
<path d="M31.8593 75.5185C31.7996 75.5185 31.7416 75.4879 31.7086 75.432C31.6612 75.3489 31.6891 75.2428 31.7723 75.1948L57.452 60.3244C57.5335 60.2764 57.6396 60.3037 57.6893 60.3874C57.7367 60.4706 57.7088 60.5767 57.6256 60.6247L31.9459 75.4951C31.9191 75.5107 31.8889 75.5185 31.8593 75.5185Z" fill="#373B42"/>
<path d="M31.8593 87.3846C31.7996 87.3846 31.7416 87.3533 31.7086 87.2981C31.6612 87.2155 31.6891 87.1088 31.7723 87.0614L66.757 66.8164C66.8379 66.7684 66.9445 66.7964 66.9942 66.8795C67.0417 66.9621 67.0138 67.0688 66.9306 67.1162L31.9459 87.3611C31.9191 87.3768 31.8889 87.3846 31.8593 87.3846Z" fill="#373B42"/>
<path d="M31.8593 99.3495C31.7996 99.3495 31.7416 99.3188 31.7086 99.2629C31.6612 99.1798 31.6891 99.0737 31.7723 99.0257L57.452 84.1553C57.5335 84.1073 57.6396 84.1352 57.6893 84.2184C57.7367 84.3015 57.7088 84.4076 57.6256 84.4556L31.9459 99.326C31.9191 99.3417 31.8889 99.3495 31.8593 99.3495Z" fill="#373B42"/>
<path d="M23.015 128.594C21.9248 129.223 21.9148 130.239 22.9977 130.868L32.9329 136.641C34.0114 137.268 35.7692 137.268 36.8594 136.639L46.8555 130.867C47.9457 130.238 47.9512 129.22 46.8728 128.593L36.9376 122.819C35.8546 122.19 34.1013 122.192 33.0116 122.822L23.015 128.594Z" fill="#FFBE2E"/>
<path d="M34.8884 137.282C34.1477 137.282 33.4075 137.119 32.8454 136.792L22.9102 131.018C22.3341 130.684 22.017 130.229 22.0176 129.737C22.0181 129.242 22.3419 128.782 22.9286 128.444L32.9241 122.673C34.079 122.005 35.8787 122.005 37.0242 122.67L46.9594 128.443C47.5343 128.778 47.8509 129.233 47.8497 129.725C47.8492 130.221 47.5265 130.68 46.9415 131.018L36.9455 136.789C36.3767 137.118 35.632 137.282 34.8884 137.282ZM34.9806 122.522C34.2995 122.522 33.6179 122.673 33.0971 122.973L23.1016 128.744C22.6266 129.018 22.3648 129.371 22.3642 129.737C22.3642 130.1 22.6199 130.447 23.0849 130.718L33.0201 136.491C34.05 137.091 35.7336 137.089 36.7719 136.488L46.7685 130.717C47.2418 130.444 47.5025 130.091 47.5031 129.724C47.5036 129.361 47.2491 129.013 46.7847 128.743L36.8495 122.969C36.3353 122.671 35.6582 122.522 34.9806 122.522Z" fill="#373B42"/>
<path d="M43.6771 141.115C42.5869 141.744 42.5769 142.76 43.6598 143.389L53.595 149.163C54.6735 149.79 56.4313 149.79 57.5215 149.16L67.5176 143.389C68.6078 142.759 68.6133 141.741 67.5349 141.114L57.5997 135.341C56.5167 134.712 54.7639 134.714 53.6737 135.344L43.6771 141.115Z" fill="#FFBE2E"/>
<path d="M55.5527 149.803C54.8113 149.803 54.0711 149.639 53.5084 149.313L43.5733 143.539C42.9972 143.204 42.6801 142.749 42.6807 142.258C42.6812 141.763 43.0056 141.303 43.5917 140.965L53.5872 135.194C54.7404 134.528 56.5418 134.526 57.6873 135.191L67.6225 140.965C68.1969 141.299 68.5134 141.754 68.5128 142.247C68.5123 142.743 68.1896 143.202 67.6046 143.539L57.6091 149.31C57.0414 149.638 56.2956 149.803 55.5527 149.803ZM55.6431 135.043C54.9626 135.043 54.281 135.193 53.7602 135.494L43.7647 141.265C43.2897 141.539 43.0279 141.892 43.0273 142.259C43.0273 142.621 43.283 142.969 43.748 143.239L53.6832 149.013C54.7125 149.611 56.3967 149.609 57.4355 149.01L67.431 143.239C67.9038 142.966 68.1651 142.613 68.1656 142.246C68.1662 141.883 67.9116 141.535 67.4472 141.265L57.512 135.492C56.9984 135.192 56.3213 135.043 55.6431 135.043Z" fill="#373B42"/>
<path d="M24.1002 64.4526C25.1904 63.8235 26.0746 64.322 26.0785 65.5746L26.1109 77.0656C26.1143 78.3132 25.2356 79.8355 24.1454 80.4646L14.1494 86.236C13.0597 86.8651 12.175 86.3611 12.1711 85.114L12.1387 73.6231C12.1353 72.3704 13.014 70.8537 14.1042 70.2241L24.1002 64.4526Z" fill="#FFBE2E"/>
<path d="M13.2641 86.682C13.0464 86.682 12.8432 86.6307 12.6635 86.5268C12.237 86.2812 12.0014 85.7799 11.9992 85.1146L11.9668 73.623C11.9629 72.2995 12.8633 70.7404 14.0183 70.0739L24.0149 64.303C24.601 63.9647 25.1614 63.9145 25.5902 64.1612C26.0155 64.4063 26.2516 64.9081 26.2539 65.5746L26.2863 77.0661C26.2896 78.3679 25.3691 79.9599 24.2342 80.6158L14.2371 86.3867C13.8966 86.5832 13.5661 86.682 13.2641 86.682ZM24.989 64.3532C24.7478 64.3532 24.4748 64.4375 24.1879 64.6028L14.1913 70.3742C13.1519 70.9748 12.309 72.4312 12.3135 73.6219L12.3458 85.1134C12.347 85.6493 12.5211 86.0445 12.836 86.2259C13.1536 86.4085 13.5896 86.3599 14.0635 86.0858L24.0601 80.3144C25.0989 79.7138 25.9424 78.2568 25.9385 77.0656L25.9061 65.5746C25.9039 65.0371 25.7308 64.6413 25.4171 64.461C25.2904 64.3895 25.1464 64.3532 24.989 64.3532Z" fill="#373B42"/>
<path d="M24.1002 88.2846C25.1904 87.6555 26.0746 88.1545 26.0785 89.4066L26.1109 100.898C26.1143 102.145 25.2356 103.667 24.1454 104.297L14.1494 110.067C13.0597 110.697 12.175 110.192 12.1711 108.945L12.1387 97.4544C12.1353 96.2018 13.014 94.6851 14.1042 94.0554L24.1002 88.2846Z" fill="#FFBE2E"/>
<path d="M13.2641 110.514C13.0464 110.514 12.8432 110.462 12.6635 110.358C12.237 110.113 12.0014 109.611 11.9992 108.946L11.9668 97.4551C11.9629 96.1316 12.8633 94.5725 14.0183 93.906L24.0149 88.1345C24.5999 87.7963 25.1587 87.7449 25.5902 87.9928C26.0155 88.2373 26.2516 88.7397 26.2539 89.4062L26.2863 100.898C26.2896 102.199 25.3691 103.792 24.2342 104.447L14.2371 110.218C13.8966 110.414 13.5661 110.514 13.2641 110.514ZM24.989 88.1853C24.7478 88.1853 24.4748 88.2691 24.1879 88.4349L14.1913 94.2057C13.1519 94.8064 12.309 96.2628 12.3135 97.4535L12.3458 108.945C12.347 109.481 12.5211 109.876 12.836 110.057C13.1536 110.24 13.5896 110.191 14.0635 109.917L24.0601 104.147C25.0989 103.546 25.9424 102.089 25.9385 100.898L25.9061 89.4067C25.9039 88.8691 25.7308 88.4734 25.4171 88.2931C25.2904 88.2205 25.1469 88.1853 24.989 88.1853Z" fill="#373B42"/>
<path d="M44.7014 118.506C44.6417 118.506 44.5836 118.475 44.5518 118.419C44.5038 118.336 44.5317 118.23 44.6143 118.182L74.9524 100.551C75.0351 100.503 75.1417 100.53 75.1897 100.614C75.2377 100.697 75.2098 100.803 75.1272 100.851L44.7891 118.482C44.7606 118.498 44.731 118.506 44.7014 118.506Z" fill="#373B42"/>
<path d="M51.9407 125.745C51.8809 125.745 51.8229 125.715 51.7911 125.659C51.7431 125.576 51.771 125.47 51.8536 125.422L72.2766 113.553C72.3598 113.505 72.4658 113.533 72.5138 113.616C72.5619 113.698 72.5339 113.805 72.4513 113.853L52.0277 125.723C52.0004 125.738 51.9703 125.745 51.9407 125.745Z" fill="#373B42"/>
<path d="M65.4915 131.507C65.4317 131.507 65.3737 131.477 65.3418 131.421C65.2938 131.338 65.3218 131.232 65.4044 131.184L95.7425 113.553C95.8251 113.505 95.9317 113.533 95.9797 113.616C96.0277 113.698 95.9998 113.805 95.9172 113.853L65.5791 131.483C65.5512 131.5 65.5216 131.507 65.4915 131.507Z" fill="#373B42"/>
<path d="M72.7327 138.75C72.6729 138.75 72.6149 138.719 72.5831 138.663C72.5351 138.581 72.563 138.474 72.6456 138.426L93.0686 126.558C93.1512 126.51 93.2578 126.537 93.3058 126.621C93.3538 126.703 93.3259 126.81 93.2433 126.858L72.8203 138.726C72.7924 138.742 72.7628 138.75 72.7327 138.75Z" fill="#373B42"/>
<path d="M97.4682 116.658L103.879 122.525L97.6898 125.211L95.8929 125.989C95.3141 126.236 94.7112 125.696 94.892 125.094L95.4815 123.158L97.4682 116.658Z" fill="#FFF7E4"/>
<path d="M95.5989 126.223C95.3795 126.223 95.1646 126.143 94.9921 125.989C94.7253 125.75 94.6225 125.388 94.7264 125.045L97.3025 116.607C97.3204 116.55 97.3656 116.506 97.4231 116.491C97.4801 116.474 97.5415 116.49 97.5856 116.53L103.996 122.397C104.04 122.436 104.06 122.495 104.05 122.553C104.04 122.612 104.002 122.661 103.948 122.684L95.9623 126.147C95.8445 126.198 95.7211 126.223 95.5989 126.223ZM97.5543 116.971L95.0591 125.145C94.9943 125.361 95.0557 125.58 95.2243 125.73C95.3929 125.881 95.6195 125.918 95.8255 125.829L103.565 122.472L97.5543 116.971Z" fill="#373B42"/>
<path d="M123.287 88.168C122.831 88.6681 122.701 89.4703 123.017 90.4572C123.641 92.4205 125.776 94.3631 127.774 94.7924C128.772 95.0067 129.552 94.8108 130.004 94.3134L104.564 122.084C104.111 122.581 103.332 122.777 102.333 122.563C100.337 122.13 98.2048 120.192 97.5768 118.228C97.2637 117.242 97.3904 116.439 97.847 115.938L123.287 88.168Z" fill="#978050"/>
<path d="M103.098 122.821C102.847 122.821 102.579 122.791 102.297 122.731C100.246 122.286 98.0548 120.289 97.4123 118.279C97.0896 117.264 97.1991 116.391 97.7193 115.82L123.159 88.0506C123.159 88.0501 123.16 88.05 123.16 88.05C123.225 87.9792 123.335 87.9741 123.405 88.0389C123.476 88.1036 123.481 88.2136 123.416 88.2839C122.98 88.7612 122.898 89.5137 123.184 90.403C123.79 92.3115 125.866 94.2039 127.811 94.6214C128.712 94.8162 129.442 94.6661 129.869 94.2039L129.875 94.1966C129.876 94.196 129.876 94.1961 129.876 94.1961L129.876 94.1955C129.943 94.1246 130.05 94.1201 130.122 94.1849C130.192 94.2491 130.197 94.3585 130.133 94.4294C130.13 94.4333 130.126 94.4372 130.122 94.4411L104.692 122.201C104.319 122.609 103.768 122.821 103.098 122.821ZM122.693 89.0721L97.975 116.054C97.5418 116.529 97.4592 117.282 97.7428 118.173C98.3512 120.078 100.427 121.97 102.37 122.391C103.273 122.585 104.008 122.434 104.435 121.965L129.153 94.9837C128.743 95.0792 128.264 95.073 127.738 94.9603C125.684 94.5193 123.493 92.522 122.853 90.5079C122.685 89.9854 122.632 89.4992 122.693 89.0721Z" fill="#373B42"/>
<path d="M122.547 102.454C122.095 102.951 121.316 103.147 120.317 102.933C118.32 102.503 116.185 100.561 115.561 98.5975C115.244 97.6111 115.374 96.809 115.831 96.3082L118.317 93.5947C117.86 94.0949 117.73 94.8971 118.046 95.884C118.671 97.8472 120.805 99.7898 122.803 100.219C123.802 100.433 124.581 100.238 125.033 99.7402L122.547 102.454Z" fill="#3C2C0B"/>
<path d="M121.08 103.193C120.829 103.193 120.56 103.164 120.278 103.103C118.225 102.662 116.034 100.665 115.393 98.6509C115.068 97.6388 115.178 96.7652 115.701 96.1925L118.186 93.4801C118.186 93.4795 118.187 93.4796 118.187 93.4796V93.479C118.253 93.4086 118.362 93.4036 118.432 93.4684C118.502 93.5331 118.507 93.6431 118.442 93.7135C118.006 94.1907 117.924 94.9432 118.209 95.8324C118.816 97.741 120.891 99.6334 122.837 100.05C123.737 100.244 124.468 100.095 124.895 99.6317L124.902 99.6233C124.968 99.553 125.076 99.548 125.147 99.6127C125.217 99.6769 125.222 99.7869 125.158 99.8572C125.155 99.86 125.152 99.8633 125.15 99.8661L122.672 102.571C122.301 102.982 121.749 103.193 121.08 103.193ZM117.721 94.5011L115.957 96.4264C115.521 96.9037 115.439 97.6562 115.724 98.5454C116.331 100.454 118.406 102.346 120.351 102.763C121.258 102.959 121.99 102.807 122.417 102.338L124.181 100.413C123.77 100.509 123.291 100.503 122.765 100.39C120.711 99.9493 118.52 97.952 117.88 95.9379C117.711 95.4138 117.66 94.9276 117.721 94.5011Z" fill="#3C2C0B"/>
<path d="M123.017 90.459C122.391 88.4952 123.512 87.2582 125.512 87.6892C127.517 88.1212 129.649 90.0599 130.275 92.0238C130.9 93.9876 129.78 95.2246 127.775 94.7925C125.775 94.361 123.642 92.4223 123.017 90.459Z" fill="#3C2C0B"/>
<path d="M128.538 95.0513C128.287 95.0513 128.02 95.0217 127.738 94.9614C125.685 94.5187 123.493 92.5225 122.852 90.5107C122.53 89.4975 122.637 88.6251 123.156 88.0546C123.67 87.4868 124.52 87.2954 125.549 87.5187C127.606 87.9613 129.8 89.9586 130.44 91.9699C130.763 92.9825 130.655 93.8545 130.137 94.425C129.761 94.838 129.208 95.0513 128.538 95.0513ZM123.183 90.4058C123.79 92.311 125.867 94.2028 127.812 94.622C128.716 94.818 129.451 94.6644 129.88 94.1922C130.311 93.7177 130.392 92.9658 130.109 92.0754C129.501 90.1702 127.423 88.2779 125.475 87.8581C124.573 87.6644 123.84 87.8162 123.412 88.2879C122.981 88.7629 122.899 89.5154 123.183 90.4058Z" fill="#3C2C0B"/>
<path d="M95.6412 123.185C96.6934 123.415 97.4665 124.229 97.6898 125.21L95.8929 125.988C95.3141 126.235 94.7112 125.695 94.892 125.093L95.4815 123.157C95.5329 123.161 95.587 123.172 95.6412 123.185Z" fill="#373B42"/>
<path d="M95.5989 126.222C95.3795 126.222 95.1646 126.142 94.9921 125.988C94.7253 125.749 94.6225 125.387 94.7264 125.044L95.3153 123.107C95.3393 123.029 95.4197 122.981 95.495 122.985C95.5548 122.989 95.6167 123.002 95.6787 123.015C96.7588 123.251 97.6157 124.098 97.8597 125.172C97.8781 125.254 97.8362 125.336 97.7592 125.37L95.9623 126.147C95.8445 126.197 95.7211 126.222 95.5989 126.222ZM95.6028 123.354L95.0585 125.144C94.9938 125.36 95.0552 125.579 95.2237 125.729C95.3923 125.88 95.619 125.917 95.825 125.828L97.4851 125.11C97.2311 124.233 96.5071 123.551 95.6039 123.354C95.6039 123.354 95.6039 123.354 95.6028 123.354Z" fill="#373B42"/>
<path d="M126.975 85.6797C126.617 86.0643 126.521 86.6884 126.764 87.4559C127.254 88.9793 128.902 90.4821 130.451 90.8153C131.226 90.9845 131.825 90.8298 132.177 90.4441L129.6 93.2637C129.247 93.6494 128.642 93.8029 127.874 93.6349C126.319 93.3005 124.671 91.7983 124.187 90.2755C123.943 89.5085 124.04 88.8839 124.393 88.4981L126.975 85.6797Z" fill="#FFF7E4"/>
<path d="M128.467 93.875C128.269 93.875 128.058 93.8516 127.837 93.803C126.234 93.4586 124.522 91.8989 124.022 90.327C123.767 89.5226 123.853 88.8315 124.265 88.3805L126.833 85.5782C126.839 85.5726 126.845 85.5665 126.85 85.5609C126.915 85.4911 127.024 85.4872 127.094 85.552C127.164 85.6167 127.168 85.7261 127.104 85.7965L127.091 85.811C126.774 86.1638 126.716 86.7281 126.93 87.4025C127.402 88.8695 128.998 90.3242 130.489 90.644C131.171 90.7936 131.725 90.6803 132.049 90.3259C132.115 90.255 132.225 90.2505 132.295 90.3147C132.365 90.3794 132.37 90.4894 132.306 90.5598L132.305 90.5609L129.728 93.3793C129.43 93.7064 128.993 93.875 128.467 93.875ZM126.462 86.4965L124.521 88.6144C124.196 88.9694 124.136 89.5404 124.353 90.2215C124.819 91.6879 126.415 93.1421 127.911 93.463C128.595 93.6126 129.148 93.4993 129.473 93.1449L131.41 91.0253C131.112 91.0755 130.777 91.0616 130.416 90.9829C128.818 90.6396 127.106 89.0805 126.6 87.5074C126.485 87.1429 126.439 86.8018 126.462 86.4965Z" fill="#373B42"/>
<path d="M130.453 90.8123C128.899 90.4808 127.25 88.9775 126.765 87.4552C126.279 85.9329 127.148 84.9711 128.698 85.3072C130.252 85.6432 131.905 87.142 132.386 88.6643C132.877 90.191 132.008 91.1484 130.453 90.8123Z" fill="#FFBE2E"/>
<path d="M131.048 91.0536C130.849 91.0536 130.639 91.0302 130.417 90.9816C128.815 90.6394 127.102 89.0814 126.6 87.5078C126.345 86.7073 126.431 86.0168 126.843 85.5635C127.253 85.113 127.924 84.9623 128.735 85.1376C130.345 85.4854 132.057 87.0439 132.552 88.612C132.809 89.4119 132.725 90.1024 132.314 90.5551C132.016 90.8839 131.578 91.0531 131.048 91.0536ZM128.108 85.4134C127.68 85.4134 127.331 85.544 127.101 85.7974C126.775 86.1552 126.714 86.7257 126.931 87.4023C127.399 88.8704 128.996 90.3235 130.49 90.6428L130.49 90.6433C131.177 90.7912 131.735 90.6785 132.057 90.3229C132.38 89.9651 132.44 89.3957 132.221 88.7175C131.76 87.2549 130.163 85.8013 128.662 85.4764C128.466 85.434 128.28 85.4134 128.108 85.4134Z" fill="#373B42"/>
<path d="M129.726 173.443C130.124 173.443 130.51 173.353 130.783 173.194C131.003 173.068 131.129 172.911 131.129 172.767C131.129 172.624 131.006 172.47 130.79 172.344C130.518 172.186 130.134 172.096 129.736 172.096C129.338 172.096 128.953 172.186 128.68 172.344C128.46 172.471 128.334 172.627 128.333 172.772C128.333 172.915 128.456 173.069 128.672 173.195C128.944 173.353 129.328 173.443 129.726 173.443Z" fill="#373B42"/>
<path d="M21.4461 70.822C21.5952 70.7361 21.7437 70.7154 21.8575 70.7802C22.0847 70.9097 22.0859 71.3334 21.8603 71.7291L17.4113 79.4298C17.2963 79.6291 17.1501 79.7798 16.9988 79.8674C16.852 79.9523 16.7013 79.9729 16.5896 79.9043L15.0969 79.0586C14.8698 78.9291 14.8686 78.5054 15.0942 78.109C15.2069 77.9137 15.3554 77.7624 15.5044 77.677C15.6535 77.591 15.802 77.5704 15.9159 77.6351L16.9943 78.2497L21.0358 71.2547C21.1486 71.0587 21.2971 70.908 21.4461 70.822Z" fill="#212121"/>
<path d="M21.4461 94.157C21.5952 94.071 21.7437 94.0504 21.8575 94.1151C22.0847 94.2446 22.0859 94.6683 21.8603 95.0641L17.4113 102.765C17.2963 102.964 17.1501 103.115 16.9988 103.202C16.852 103.287 16.7013 103.308 16.5896 103.239L15.0969 102.394C14.8698 102.264 14.8686 101.84 15.0942 101.444C15.2069 101.249 15.3554 101.097 15.5044 101.012C15.6535 100.926 15.802 100.905 15.9159 100.97L16.9943 101.585L21.0358 94.5896C21.1486 94.3937 21.2971 94.2424 21.4461 94.157Z" fill="#212121"/>
<path d="M37.4119 125.273C37.7602 125.28 37.9053 125.524 37.7334 125.823L34.1441 132.061C34.0547 132.215 33.9018 132.351 33.7276 132.45C33.5535 132.549 33.3553 132.61 33.1755 132.611L30.6144 132.605C30.2845 132.598 30.0981 132.413 30.2013 132.145C30.3314 131.803 30.8165 131.505 31.2123 131.506L33.1543 131.511L36.4048 125.864C36.569 125.582 36.9458 125.317 37.3019 125.277C37.3399 125.274 37.3767 125.272 37.4119 125.273Z" fill="#212121"/>
<path d="M59.0198 138.582C59.3682 138.59 59.5133 138.833 59.3414 139.133L55.752 145.371C55.6627 145.524 55.5098 145.661 55.335 145.76C55.1609 145.859 54.9627 145.919 54.783 145.92L52.2219 145.915C51.8919 145.908 51.7055 145.723 51.8088 145.455C51.9388 145.113 52.4239 144.815 52.8197 144.816L54.7618 144.821L58.0123 139.174C58.1764 138.892 58.5532 138.627 58.9093 138.587C58.9478 138.583 58.9847 138.582 59.0198 138.582Z" fill="#212121"/>
<path d="M14.5042 159.129C15.7473 159.847 15.7546 161.012 14.5192 161.729C13.2845 162.447 11.2743 162.446 10.0312 161.728C8.788 161.01 8.78186 159.847 10.0172 159.129C11.252 158.411 13.261 158.411 14.5042 159.129Z" fill="#FFF7E4"/>
<path d="M12.2786 162.437C11.434 162.437 10.5889 162.251 9.94356 161.879C9.28486 161.498 8.92146 160.982 8.9209 160.425C8.92034 159.871 9.27816 159.358 9.9296 158.979C11.2118 158.235 13.3018 158.235 14.5907 158.979C15.25 159.359 15.6134 159.876 15.614 160.433C15.6145 160.987 15.2567 161.5 14.6064 161.879C13.9666 162.25 13.1232 162.437 12.2786 162.437ZM12.2579 158.763C11.477 158.763 10.6972 158.935 10.1049 159.28C9.56453 159.593 9.26811 160 9.26867 160.424C9.26867 160.853 9.57067 161.262 10.1177 161.578C11.3118 162.268 13.2477 162.267 14.4322 161.579C14.9714 161.266 15.2684 160.859 15.2679 160.434C15.2673 160.006 14.9659 159.596 14.4182 159.28C13.8215 158.935 13.0394 158.763 12.2579 158.763Z" fill="#DBDEE4"/>
<path d="M12.2765 161.248C11.792 161.248 11.3231 161.137 10.9898 160.945C10.7224 160.791 10.5689 160.601 10.5684 160.425C10.5684 160.251 10.7185 160.063 10.9814 159.91C11.3119 159.718 11.7791 159.608 12.2631 159.608C12.7471 159.608 13.216 159.718 13.5487 159.911C13.8166 160.066 13.9701 160.255 13.9707 160.432C13.9707 160.607 13.8205 160.794 13.5582 160.946C13.2272 161.138 12.7605 161.248 12.2765 161.248Z" fill="#FFBE2E"/>
<path d="M23.2187 167.478C22.6984 167.478 22.1943 167.36 21.8365 167.153C21.549 166.988 21.3843 166.784 21.3838 166.595C21.3838 166.408 21.5451 166.206 21.8276 166.042C22.1826 165.836 22.6839 165.718 23.2041 165.718C23.7244 165.718 24.2274 165.836 24.5852 166.043C24.8727 166.208 25.0379 166.413 25.0385 166.603C25.0385 166.79 24.8771 166.991 24.5952 167.155C24.2402 167.36 23.7389 167.478 23.2187 167.478Z" fill="#373B42"/>
<path d="M102.056 75.535C101.996 75.535 101.938 75.5043 101.906 75.4485C101.858 75.3659 101.886 75.2592 101.969 75.2112L133.346 56.9709C133.428 56.9229 133.535 56.9502 133.583 57.0339C133.631 57.1165 133.603 57.2232 133.521 57.2712L102.144 75.5116C102.116 75.5272 102.085 75.535 102.056 75.535Z" fill="#DBDEE4"/>
<path d="M106.587 75.3624C107.843 74.6373 107.85 73.4611 106.602 72.736C105.355 72.0108 103.325 72.0114 102.07 72.7365C100.814 73.4616 100.808 74.6373 102.055 75.3624C103.303 76.0875 105.332 76.0875 106.587 75.3624Z" fill="#FFF7E4"/>
<path d="M104.318 76.0765C103.467 76.0765 102.615 75.8883 101.968 75.5127C101.311 75.1303 100.95 74.6122 100.951 74.0535C100.952 73.4919 101.318 72.9705 101.983 72.5865C103.286 71.834 105.396 71.8351 106.69 72.5859C107.347 72.9677 107.708 73.4858 107.707 74.0445C107.706 74.6072 107.339 75.1286 106.674 75.5127C106.023 75.8889 105.17 76.0765 104.318 76.0765ZM104.339 72.3643C103.55 72.3643 102.759 72.5379 102.156 72.8862C101.603 73.2061 101.298 73.6203 101.298 74.0535C101.297 74.4833 101.598 74.8947 102.143 75.2118C103.34 75.9079 105.295 75.9079 106.5 75.2123C107.054 74.8925 107.358 74.4777 107.359 74.0445C107.36 73.6147 107.06 73.2033 106.514 72.8862C105.916 72.5385 105.129 72.3643 104.339 72.3643Z" fill="#DBDEE4"/>
<path d="M104.336 73.2217C103.847 73.2217 103.373 73.3333 103.037 73.5276C102.767 73.6833 102.611 73.8753 102.611 74.0534C102.611 74.2293 102.763 74.419 103.028 74.5731C103.362 74.7668 103.834 74.8785 104.322 74.8785C104.811 74.8785 105.285 74.7668 105.621 74.5731C105.891 74.4168 106.047 74.2248 106.047 74.0467C106.047 73.8709 105.895 73.6817 105.63 73.527C105.296 73.3328 104.825 73.2217 104.336 73.2217Z" fill="#FFBE2E"/>
<path d="M115.389 66.9287C114.863 66.9287 114.354 67.0487 113.993 67.257C113.703 67.4244 113.537 67.6304 113.536 67.8219C113.536 68.0111 113.699 68.2143 113.984 68.3801C114.343 68.5883 114.849 68.7078 115.374 68.7078C115.9 68.7078 116.408 68.5883 116.769 68.3795C117.059 68.2121 117.226 68.0055 117.226 67.814C117.226 67.6248 117.063 67.4216 116.778 67.2564C116.42 67.0482 115.914 66.9287 115.389 66.9287Z" fill="#373B42"/>
<path d="M173.882 59.8691L173.872 63.9989L148.496 78.7498L148.506 74.6201L173.882 59.8691Z" fill="#978050"/>
<path d="M148.496 78.9222C148.467 78.9222 148.437 78.9144 148.41 78.8987C148.356 78.868 148.323 78.8105 148.323 78.7486L148.333 74.6183C148.333 74.5569 148.366 74.5 148.419 74.4687L173.794 59.7178C173.848 59.6865 173.914 59.6865 173.968 59.7178C174.022 59.7485 174.055 59.806 174.055 59.8679L174.045 63.9982C174.045 64.0596 174.011 64.1165 173.959 64.1478L148.584 78.8987C148.557 78.9144 148.526 78.9222 148.496 78.9222ZM148.68 74.7188L148.67 78.4472L173.698 63.8983L173.708 60.1699L148.68 74.7188Z" fill="#373B42"/>
<path d="M148.506 74.6194L148.496 78.7491L100.362 50.8817L100.372 46.752L148.506 74.6194Z" fill="#978050"/>
<path d="M148.496 78.923C148.467 78.923 148.436 78.9151 148.41 78.8995L100.276 51.0327C100.222 51.0014 100.189 50.9439 100.189 50.8819L100.199 46.7522C100.199 46.6903 100.232 46.6328 100.285 46.6021C100.34 46.5714 100.406 46.5714 100.459 46.6026L148.593 74.47C148.647 74.5013 148.68 74.5582 148.68 74.6208L148.67 78.751C148.67 78.813 148.636 78.8705 148.583 78.9012C148.556 78.9152 148.526 78.923 148.496 78.923ZM100.536 50.7826L148.324 78.4491L148.333 74.7196L100.545 47.0531L100.536 50.7826Z" fill="#373B42"/>
<path d="M173.882 59.8694L148.507 74.6203L100.373 46.7529L125.748 32.002L173.882 59.8694Z" fill="#FFF7E4"/>
<path d="M148.507 74.7931C148.477 74.7931 148.447 74.7853 148.42 74.7697L100.286 46.9023C100.232 46.8716 100.199 46.8141 100.199 46.7521C100.199 46.6907 100.232 46.6332 100.285 46.602L125.661 31.8516C125.715 31.8203 125.782 31.8203 125.835 31.8516L173.969 59.7184C174.023 59.7491 174.056 59.8066 174.056 59.8686C174.056 59.93 174.023 59.9875 173.97 60.0188L148.595 74.7697C148.567 74.7853 148.537 74.7931 148.507 74.7931ZM100.718 46.7521L148.506 74.4191L173.536 59.8692L125.748 32.2027L100.718 46.7521Z" fill="#373B42"/>
<path d="M139.456 39.6426L139.456 51.6923L124.305 60.5563L124.305 48.5066L139.456 39.6426Z" fill="#DBDEE4"/>
<path d="M124.305 60.7301C124.276 60.7301 124.246 60.7223 124.219 60.7073C124.165 60.6766 124.132 60.6185 124.132 60.5571L124.132 48.5074C124.132 48.4454 124.165 48.3885 124.218 48.3578L139.37 39.4932C139.423 39.462 139.49 39.462 139.543 39.4927C139.597 39.5234 139.631 39.5809 139.631 39.6428L139.63 51.6926C139.63 51.754 139.598 51.8109 139.544 51.8422L124.393 60.7067C124.366 60.7223 124.336 60.7301 124.305 60.7301ZM124.48 48.6062L124.479 60.254L139.283 51.5927L139.284 39.9448L124.48 48.6062Z" fill="#373B42"/>
<path d="M124.305 48.5061L124.305 60.5558L109.005 51.7773L109.005 39.7275L124.305 48.5061Z" fill="#FFBE2E"/>
<path d="M118.186 44.9911V50.3723L116.662 47.8827L115.138 48.6234V43.2422L118.186 44.9911Z" fill="#212121"/>
<path d="M124.306 60.7306C124.277 60.7306 124.247 60.7228 124.22 60.7077L108.921 51.9286C108.866 51.8979 108.833 51.8399 108.833 51.7779L108.834 39.7282C108.834 39.6662 108.867 39.6087 108.92 39.578C108.973 39.5467 109.04 39.5473 109.093 39.5774L124.393 48.356C124.447 48.3867 124.48 48.4442 124.48 48.5067L124.48 60.5564C124.48 60.6184 124.447 60.6759 124.393 60.7066C124.367 60.7228 124.336 60.7306 124.306 60.7306ZM109.18 51.678L124.133 60.2578L124.133 48.6083L109.181 40.0285L109.18 51.678Z" fill="#373B42"/>
<path d="M139.46 39.6385L124.306 48.508L118.187 44.9907L115.124 43.2412L109.005 39.7239L124.159 30.8633L130.278 34.3717L133.333 36.1217L139.46 39.6385Z" fill="#FFF7E4"/>
<path d="M133.332 36.1231L118.187 44.9921L115.123 43.2426L130.278 34.373L133.332 36.1231Z" fill="#212121"/>
<path d="M124.307 48.6818C124.277 48.6818 124.247 48.6739 124.22 48.6589L108.92 39.8747C108.866 39.844 108.833 39.7865 108.833 39.7251C108.833 39.6632 108.865 39.6057 108.919 39.575L124.074 30.7144C124.127 30.6825 124.194 30.6826 124.247 30.7138L139.548 39.489C139.602 39.5197 139.636 39.5766 139.636 39.6386C139.636 39.7006 139.603 39.7581 139.55 39.7893L124.395 48.6589C124.367 48.6739 124.338 48.6818 124.307 48.6818ZM109.352 39.7229L124.306 48.3077L139.116 39.6403L124.161 31.0644L109.352 39.7229Z" fill="#373B42"/>
<path d="M154.685 48.4219L154.684 60.4716L139.533 69.3356L139.534 57.2859L154.685 48.4219Z" fill="#212121"/>
<path d="M139.533 69.5075C139.503 69.5075 139.473 69.4997 139.447 69.4846C139.393 69.4539 139.359 69.3964 139.359 69.3344L139.36 57.2847C139.36 57.2233 139.392 57.1658 139.446 57.1351L154.597 48.2706C154.651 48.2393 154.717 48.2393 154.771 48.27C154.825 48.3007 154.858 48.3582 154.858 48.4202L154.858 60.4699C154.858 60.5319 154.825 60.5883 154.772 60.6195L139.621 69.484C139.593 69.4997 139.563 69.5075 139.533 69.5075ZM139.707 57.3835L139.707 69.0313L154.511 60.37L154.511 48.7222L139.707 57.3835Z" fill="#373B42"/>
<path d="M139.534 57.2844L139.533 69.3342L124.233 60.5556L124.234 48.5059L139.534 57.2844Z" fill="#FFBE2E"/>
<path d="M133.414 53.7694V59.1507L131.889 56.661L130.365 57.4012V52.0205L133.414 53.7694Z" fill="#212121"/>
<path d="M139.533 69.5079C139.503 69.5079 139.473 69.5001 139.447 69.485L124.147 60.7059C124.093 60.6752 124.06 60.6177 124.06 60.5552L124.06 48.5055C124.06 48.4435 124.094 48.386 124.147 48.3553C124.2 48.3241 124.267 48.3246 124.32 48.3548L139.619 57.1339C139.674 57.1646 139.707 57.2221 139.707 57.2846L139.706 69.3343C139.706 69.3963 139.673 69.4538 139.62 69.4845C139.593 69.5001 139.562 69.5079 139.533 69.5079ZM124.407 60.4547L139.359 69.0346L139.36 57.3845L124.407 48.8047L124.407 60.4547Z" fill="#373B42"/>
<path d="M154.686 48.4178L139.532 57.2873L133.414 53.77L130.35 52.0205L124.231 48.5032L139.386 39.6426L145.505 43.151L148.559 44.9005L154.686 48.4178Z" fill="#FFF7E4"/>
<path d="M148.562 44.8998L133.416 53.7694L130.353 52.0199L145.507 43.1504L148.562 44.8998Z" fill="#212121"/>
<path d="M139.533 57.4612C139.504 57.4612 139.474 57.4534 139.447 57.4383L124.146 48.6542C124.093 48.6235 124.06 48.566 124.06 48.5046C124.06 48.4426 124.092 48.3851 124.146 48.3539L139.3 39.4932C139.354 39.462 139.42 39.462 139.474 39.4927L154.774 48.2679C154.829 48.2986 154.862 48.3555 154.862 48.4175C154.862 48.4795 154.83 48.537 154.776 48.5682L139.622 57.4378C139.594 57.4534 139.564 57.4612 139.533 57.4612ZM124.578 48.5024L139.533 57.0872L154.342 48.4197L139.388 39.8432L124.578 48.5024Z" fill="#373B42"/>
<path d="M128.16 1.59794L128.047 41.6005C128.046 41.9617 127.808 42.3228 127.334 42.5986C126.378 43.154 124.826 43.154 123.864 42.5986C123.38 42.3189 123.138 41.9522 123.139 41.5865L123.252 1.58398C123.251 1.95018 123.493 2.31694 123.977 2.59605C124.939 3.15148 126.491 3.15148 127.447 2.59605C127.921 2.32029 128.159 1.9591 128.16 1.59794Z" fill="#FFBE2E"/>
<path d="M125.601 43.186C124.941 43.186 124.281 43.0409 123.777 42.7495C123.252 42.4464 122.964 42.0327 122.966 41.5862L123.079 1.58418C123.079 1.48817 123.157 1.41113 123.253 1.41113H123.253C123.349 1.41169 123.426 1.48929 123.426 1.58474C123.426 1.90237 123.652 2.20882 124.065 2.44662C124.976 2.97246 126.455 2.97302 127.361 2.44662C127.764 2.21161 127.987 1.91073 127.988 1.59757C127.989 1.50211 128.066 1.42452 128.162 1.42452H128.162C128.258 1.42508 128.335 1.50268 128.335 1.59813V1.59869V1.59926L128.221 41.6013C128.221 42.0423 127.937 42.4498 127.422 42.7495C126.92 43.0404 126.26 43.186 125.601 43.186ZM123.424 2.38635L123.312 41.5873C123.311 41.9049 123.538 42.2108 123.95 42.4492C124.862 42.975 126.34 42.9756 127.246 42.4492C127.65 42.2142 127.873 41.9133 127.873 41.6007L127.985 2.39861C127.864 2.52589 127.713 2.64255 127.534 2.74638C126.531 3.3286 124.897 3.32918 123.89 2.74695C123.704 2.63978 123.547 2.51865 123.424 2.38635Z" fill="#373B42"/>
<path d="M127.437 0.585517C128.399 1.14094 128.404 2.04025 127.448 2.59623C126.492 3.15166 124.94 3.15166 123.978 2.59623C123.016 2.04081 123.011 1.1415 123.967 0.585517C124.922 0.0300883 126.474 0.0300883 127.437 0.585517Z" fill="#373B42"/>
<path d="M125.714 3.18345C125.054 3.18345 124.394 3.03832 123.891 2.74693C123.368 2.44494 123.08 2.03352 123.079 1.58862C123.079 1.14595 123.363 0.73678 123.879 0.436458C124.88 -0.145207 126.516 -0.145765 127.523 0.436458C128.046 0.737896 128.334 1.14929 128.335 1.59475C128.335 2.03742 128.052 2.44661 127.535 2.74693C127.033 3.03776 126.374 3.18345 125.714 3.18345ZM125.699 0.341553C125.102 0.341553 124.506 0.473297 124.053 0.736777C123.648 0.971787 123.426 1.27434 123.426 1.58806C123.426 1.90457 123.653 2.20937 124.064 2.44718C124.975 2.97302 126.455 2.97358 127.36 2.44718C127.765 2.21161 127.988 1.90959 127.988 1.59532C127.987 1.2788 127.76 0.97402 127.349 0.736777C126.893 0.473297 126.295 0.341553 125.699 0.341553Z" fill="#373B42"/>
<path d="M173.882 38.0664L173.872 42.1967L148.496 56.9476L148.506 52.8173L173.882 38.0664Z" fill="#978050"/>
<path d="M148.496 57.1214C148.467 57.1214 148.437 57.1136 148.41 57.098C148.356 57.0673 148.323 57.0098 148.323 56.9473L148.333 52.817C148.333 52.7556 148.366 52.6987 148.419 52.6674L173.794 37.917C173.848 37.8857 173.914 37.8857 173.968 37.917C174.022 37.9477 174.055 38.0052 174.055 38.0672L174.045 42.1969C174.045 42.2583 174.011 42.3152 173.959 42.3465L148.584 57.0974C148.557 57.1136 148.526 57.1214 148.496 57.1214ZM148.68 52.9181L148.67 56.6464L173.698 42.0975L173.708 38.3697L148.68 52.9181Z" fill="#373B42"/>
<path d="M148.506 52.819L148.496 56.9493L100.362 29.0819L100.372 24.9521L148.506 52.819Z" fill="#978050"/>
<path d="M148.496 57.1218C148.467 57.1218 148.436 57.114 148.41 57.0983L100.276 29.2309C100.222 29.1996 100.189 29.1421 100.189 29.0802L100.199 24.9505C100.199 24.8885 100.232 24.831 100.285 24.8003C100.34 24.7696 100.406 24.7696 100.459 24.8009L148.593 52.6677C148.647 52.699 148.68 52.7559 148.68 52.8179L148.67 56.9482C148.67 57.0101 148.636 57.0676 148.583 57.0983C148.556 57.114 148.526 57.1218 148.496 57.1218ZM100.536 28.9814L148.324 56.6478L148.333 52.9184L100.545 25.2519L100.536 28.9814Z" fill="#373B42"/>
<path d="M173.882 38.0671L148.507 52.818L100.373 24.9511L125.748 10.2002L173.882 38.0671Z" fill="#FFF7E4"/>
<path d="M148.507 52.9914C148.477 52.9914 148.447 52.9836 148.42 52.9679L100.286 25.1011C100.232 25.0704 100.199 25.0129 100.199 24.9509C100.199 24.8895 100.232 24.832 100.285 24.8008L125.661 10.0498C125.715 10.0186 125.782 10.0186 125.835 10.0498L173.969 37.9172C174.023 37.9479 174.056 38.0054 174.056 38.0674C174.056 38.1294 174.023 38.1863 173.97 38.2175L148.595 52.9679C148.567 52.9836 148.537 52.9914 148.507 52.9914ZM100.718 24.9504L148.506 52.6168L173.536 38.0674L125.748 10.4004L100.718 24.9504Z" fill="#373B42"/>
<path d="M100.95 13.9583L100.837 53.9609C100.836 54.322 100.598 54.6832 100.124 54.959C99.1681 55.5144 97.6157 55.5144 96.6538 54.959C96.1699 54.6793 95.9282 54.3125 95.9287 53.9469L96.042 13.9443C96.0409 14.3105 96.2826 14.6773 96.7672 14.9564C97.729 15.5118 99.2814 15.5118 100.237 14.9564C100.712 14.6807 100.949 14.32 100.95 13.9583Z" fill="#FFBE2E"/>
<path d="M98.3912 55.545C97.7309 55.545 97.071 55.3993 96.567 55.1079C96.0422 54.8048 95.7542 54.3917 95.7559 53.9451L95.8692 13.9437V13.9426C95.8697 13.8471 95.9473 13.7695 96.0428 13.7695H96.0434C96.1388 13.7701 96.2164 13.8477 96.2164 13.9431V13.9437C96.2147 14.2608 96.4414 14.5667 96.8539 14.805C97.7649 15.3314 99.2431 15.332 100.15 14.805C100.554 14.5706 100.776 14.2697 100.777 13.9576V13.9565C100.777 13.8605 100.855 13.7835 100.951 13.7835H100.951C101.047 13.7841 101.124 13.8616 101.124 13.9571L101.011 53.9597C101.009 54.4018 100.725 54.8093 100.211 55.1079C99.7103 55.3993 99.0505 55.545 98.3912 55.545ZM96.2136 14.7453L96.1025 53.9463C96.1014 54.2639 96.3275 54.5692 96.74 54.8082C97.651 55.3346 99.1292 55.3351 100.036 54.8082C100.44 54.5743 100.662 54.2728 100.663 53.9591L100.774 14.7581C100.653 14.8849 100.502 15.0021 100.324 15.1059C99.3223 15.6887 97.6879 15.6881 96.6797 15.1059C96.4938 14.9982 96.3375 14.877 96.2136 14.7453Z" fill="#373B42"/>
<path d="M100.225 12.9459C101.186 13.5013 101.191 14.4006 100.236 14.9566C99.2801 15.512 97.7277 15.512 96.7659 14.9566C95.8041 14.4011 95.7985 13.5019 96.7547 12.9459C97.7104 12.3904 99.2628 12.3904 100.225 12.9459Z" fill="#373B42"/>
<path d="M98.5035 15.5431C97.8437 15.5431 97.1833 15.3973 96.6793 15.1065C96.1568 14.8051 95.8687 14.3931 95.8682 13.9482C95.8676 13.5056 96.1512 13.0964 96.6681 12.796C97.6695 12.2144 99.3051 12.2133 100.312 12.796C100.835 13.098 101.123 13.51 101.123 13.9549C101.124 14.3976 100.84 14.8067 100.323 15.1065C99.822 15.3973 99.1628 15.5431 98.5035 15.5431ZM98.4873 12.7012C97.8912 12.7012 97.295 12.8329 96.8423 13.0958C96.437 13.3308 96.2143 13.6334 96.2148 13.9476C96.2148 14.2636 96.442 14.569 96.8523 14.8062C97.7633 15.3326 99.2415 15.3332 100.148 14.8062C100.553 14.5712 100.776 14.2686 100.775 13.9549C100.775 13.6389 100.548 13.3336 100.138 13.0958C99.6819 12.8323 99.0841 12.7012 98.4873 12.7012Z" fill="#373B42"/>
<path d="M177.585 31.2659L177.471 71.2685C177.47 71.6297 177.232 71.9908 176.758 72.2666C175.802 72.822 174.25 72.822 173.288 72.2666C172.804 71.9869 172.562 71.6202 172.563 71.2545L172.677 31.252C172.676 31.6181 172.917 31.9849 173.402 32.264C174.364 32.8195 175.916 32.8195 176.872 32.264C177.346 31.9883 177.584 31.6271 177.585 31.2659Z" fill="#FFBE2E"/>
<path d="M175.026 72.853C174.366 72.853 173.706 72.7073 173.202 72.4165C172.678 72.114 172.39 71.7014 172.391 71.2537L172.504 31.2512C172.504 31.1552 172.582 31.0781 172.678 31.0781C172.678 31.0781 172.678 31.0781 172.678 31.0781C172.774 31.0787 172.851 31.1563 172.851 31.2517C172.851 31.5693 173.078 31.8753 173.49 32.1136C174.402 32.6406 175.88 32.64 176.785 32.1136C177.19 31.8797 177.412 31.5777 177.413 31.2646C177.413 31.1691 177.491 31.0915 177.587 31.0915H177.587C177.683 31.0921 177.76 31.1697 177.76 31.2651C177.76 31.2651 177.76 31.2657 177.76 31.2662L177.647 71.2683C177.645 71.7098 177.361 72.1173 176.847 72.4165C176.345 72.7073 175.686 72.853 175.026 72.853ZM172.848 32.0528L172.737 71.2543C172.737 71.5719 172.963 71.8784 173.376 72.1162C174.287 72.6426 175.766 72.6426 176.672 72.1162C177.076 71.8817 177.298 71.5803 177.299 71.2671L177.41 32.0656C177.289 32.1929 177.138 32.3096 176.96 32.4139C175.959 32.9962 174.323 32.9967 173.316 32.4139C173.129 32.3062 172.973 32.1845 172.848 32.0528Z" fill="#373B42"/>
<path d="M176.861 30.2535C177.822 30.8089 177.827 31.7082 176.872 32.2642C175.916 32.8196 174.364 32.8196 173.402 32.2642C172.439 31.7088 172.434 30.8095 173.391 30.2535C174.346 29.6981 175.899 29.6981 176.861 30.2535Z" fill="#373B42"/>
<path d="M175.139 32.8505C174.48 32.8505 173.819 32.7048 173.316 32.4139C172.793 32.1125 172.504 31.7011 172.504 31.2556C172.503 30.813 172.787 30.4038 173.304 30.1035C174.305 29.5218 175.941 29.5212 176.948 30.1035C177.47 30.4054 177.759 30.8169 177.76 31.2618C177.76 31.7044 177.476 32.1136 176.96 32.4139C176.459 32.7048 175.799 32.8505 175.139 32.8505ZM175.124 30.0086C174.526 30.0086 173.931 30.1403 173.478 30.4032C173.073 30.6388 172.85 30.9408 172.851 31.2551C172.851 31.5716 173.078 31.8764 173.489 32.1136C174.401 32.64 175.879 32.6406 176.785 32.1136C177.19 31.8786 177.412 31.5761 177.412 31.2623C177.412 30.9458 177.185 30.641 176.774 30.4032C176.318 30.1403 175.72 30.0086 175.124 30.0086Z" fill="#373B42"/>
<path d="M140.904 14.2031L140.903 32.3497L125.752 39.7277L125.753 23.0677L140.904 14.2031Z" fill="#DBDEE4"/>
<path d="M125.752 39.9014C125.72 39.9014 125.688 39.8925 125.66 39.8752C125.609 39.8439 125.578 39.7876 125.578 39.7284L125.579 23.0678C125.579 23.0058 125.611 22.9489 125.665 22.9182L140.816 14.0542C140.869 14.0224 140.936 14.0224 140.989 14.0536C141.044 14.0843 141.077 14.1424 141.077 14.2044L141.077 32.3504C141.077 32.4168 141.039 32.4777 140.979 32.5062L125.828 39.8847C125.804 39.8959 125.777 39.9014 125.752 39.9014ZM125.926 23.1672L125.925 39.451L140.729 32.2416L140.73 14.5064L125.926 23.1672Z" fill="#373B42"/>
<path d="M125.752 23.0682L125.752 39.7283L110.452 30.9497L110.453 14.2891L125.752 23.0682Z" fill="#FFBE2E"/>
<path d="M119.634 19.5512L119.634 24.9319L118.11 22.4428L116.586 23.183V17.8018L119.634 19.5512Z" fill="#212121"/>
<path d="M125.753 39.9005C125.723 39.9005 125.693 39.8927 125.667 39.8776L110.367 31.0985C110.313 31.0678 110.279 31.0097 110.279 30.9478V14.2877C110.279 14.2258 110.313 14.1683 110.366 14.1376C110.419 14.1063 110.486 14.1069 110.539 14.137L125.839 22.9156C125.893 22.9463 125.927 23.0038 125.927 23.0663L125.926 39.7269C125.926 39.7889 125.893 39.8464 125.84 39.8771C125.813 39.8927 125.782 39.9005 125.753 39.9005ZM110.627 30.8479L125.579 39.4277L125.58 23.1673L110.627 14.5875V30.8479Z" fill="#373B42"/>
<path d="M140.907 14.1996L125.752 23.0692L119.634 19.5518L116.571 17.8018L110.452 14.285L125.607 5.42383L131.725 8.93226L134.78 10.6823L140.907 14.1996Z" fill="#FFF7E4"/>
<path d="M134.78 10.6836L119.635 19.5532L116.571 17.8031L131.726 8.93359L134.78 10.6836Z" fill="#212121"/>
<path d="M125.753 23.2429C125.723 23.2429 125.693 23.2351 125.666 23.22L110.366 14.4358C110.312 14.4051 110.279 14.3476 110.279 14.2862C110.279 14.2243 110.312 14.1668 110.365 14.1361L125.52 5.27546C125.573 5.2442 125.64 5.24421 125.693 5.27492L140.994 14.0501C141.048 14.0808 141.081 14.1378 141.081 14.1997C141.081 14.2611 141.049 14.3192 140.995 14.3504L125.841 23.22C125.813 23.2351 125.783 23.2429 125.753 23.2429ZM110.798 14.284L125.752 22.8688L140.562 14.2014L125.607 5.62489L110.798 14.284Z" fill="#373B42"/>
<path d="M156.204 22.9814L156.203 39.6421L141.052 48.5066L141.052 31.846L156.204 22.9814Z" fill="#212121"/>
<path d="M141.053 48.6793C141.023 48.6793 140.993 48.6715 140.967 48.6565C140.912 48.6257 140.879 48.5683 140.879 48.5063L140.879 31.8457C140.879 31.7837 140.912 31.7268 140.965 31.6961L156.117 22.8315C156.17 22.7997 156.237 22.7997 156.29 22.831C156.344 22.8617 156.378 22.9192 156.378 22.9817L156.377 39.6423C156.377 39.7043 156.345 39.7612 156.291 39.7919L141.14 48.6559C141.113 48.6715 141.083 48.6793 141.053 48.6793ZM141.227 31.945L141.226 48.2032L156.03 39.5424L156.031 23.2837L141.227 31.945Z" fill="#373B42"/>
<path d="M141.052 31.8459L141.052 48.5066L125.752 39.7275L125.753 23.0674L141.052 31.8459Z" fill="#FFBE2E"/>
<path d="M134.934 28.3305L134.934 33.7117L133.41 31.2221L131.886 31.9623V26.5811L134.934 28.3305Z" fill="#212121"/>
<path d="M141.051 48.6793C141.022 48.6793 140.992 48.6714 140.965 48.6564L125.666 39.8778C125.612 39.8471 125.578 39.7896 125.578 39.7276L125.579 23.067C125.579 23.0051 125.612 22.9476 125.665 22.9169C125.718 22.8856 125.785 22.8861 125.838 22.9163L141.138 31.6954C141.192 31.7261 141.226 31.7836 141.226 31.8461L141.225 48.5068C141.225 48.5687 141.192 48.6262 141.138 48.6569C141.112 48.6714 141.081 48.6793 141.051 48.6793ZM125.925 39.6266L140.878 48.2065L140.878 31.9461L125.926 23.3662L125.925 39.6266Z" fill="#373B42"/>
<path d="M156.207 22.9793L141.052 31.8488L134.934 28.3315L131.871 26.5815L125.752 23.0647L140.906 14.2041L147.025 17.7125L150.08 19.462L156.207 22.9793Z" fill="#FFF7E4"/>
<path d="M150.079 19.4614L134.934 28.3309L131.87 26.5809L147.025 17.7119L150.079 19.4614Z" fill="#212121"/>
<path d="M141.052 32.0226C141.022 32.0226 140.992 32.0148 140.965 31.9997L125.665 23.2156C125.611 23.1849 125.578 23.1274 125.578 23.066C125.578 23.004 125.61 22.9465 125.664 22.9158L140.819 14.0552C140.873 14.0234 140.939 14.0234 140.992 14.0546L156.293 22.8298C156.347 22.8605 156.381 22.9175 156.381 22.9794C156.381 23.0414 156.348 23.0989 156.295 23.1302L141.14 31.9997C141.112 32.0148 141.082 32.0226 141.052 32.0226ZM126.097 23.0632L141.051 31.648L155.861 22.98L140.906 14.4041L126.097 23.0632Z" fill="#373B42"/>
<path d="M151.009 44.3323L150.896 84.3349C150.895 84.6961 150.657 85.0572 150.183 85.333C149.227 85.8884 147.675 85.8884 146.713 85.333C146.229 85.0533 145.987 84.6866 145.988 84.3209L146.102 44.3184C146.1 44.6846 146.342 45.0508 146.826 45.3304C147.788 45.8859 149.34 45.8859 150.296 45.3304C150.771 45.0541 151.008 44.6935 151.009 44.3323Z" fill="#FFBE2E"/>
<path d="M148.447 85.92C147.788 85.92 147.127 85.7743 146.623 85.4835C146.098 85.1804 145.81 84.7678 145.812 84.3207L145.925 44.3187C145.925 44.3181 145.925 44.3181 145.925 44.3176C145.926 44.2221 146.004 44.1445 146.099 44.1445C146.194 44.1451 146.273 44.2227 146.273 44.3181C146.272 44.6352 146.498 44.9416 146.91 45.1806C147.821 45.7064 149.299 45.707 150.206 45.1806C150.61 44.9461 150.832 44.6452 150.833 44.3332V44.3321C150.833 44.2361 150.911 44.159 151.007 44.159C151.007 44.159 151.007 44.159 151.007 44.159C151.103 44.1596 151.18 44.2372 151.18 44.3326L151.067 84.3346C151.066 84.7767 150.781 85.1842 150.267 85.4829C149.767 85.7743 149.107 85.92 148.447 85.92ZM146.27 45.1203L146.158 84.3212C146.158 84.6389 146.384 84.9448 146.797 85.1831C147.709 85.7101 149.187 85.7095 150.093 85.1831C150.497 84.9492 150.719 84.6478 150.72 84.3341L150.831 45.1331C150.71 45.2604 150.559 45.3771 150.381 45.4814C149.379 46.0637 147.745 46.0637 146.737 45.4814C146.551 45.3737 146.394 45.252 146.27 45.1203Z" fill="#373B42"/>
<path d="M150.282 43.3199C151.244 43.8753 151.249 44.7746 150.293 45.3306C149.338 45.8861 147.785 45.8861 146.823 45.3306C145.861 44.7752 145.856 43.8759 146.812 43.3199C147.768 42.7645 149.32 42.7645 150.282 43.3199Z" fill="#373B42"/>
<path d="M148.562 45.9181C147.902 45.9181 147.242 45.773 146.738 45.4816C146.215 45.1796 145.927 44.7676 145.927 44.3227C145.926 43.8801 146.21 43.4709 146.727 43.1711C147.728 42.5895 149.362 42.5883 150.371 43.1705C150.893 43.4725 151.181 43.884 151.182 44.3289C151.182 44.7715 150.898 45.1807 150.382 45.4816C149.881 45.7724 149.221 45.9181 148.562 45.9181ZM148.546 43.0762C147.949 43.0762 147.354 43.2079 146.901 43.4714C146.496 43.7064 146.273 44.009 146.273 44.3227C146.273 44.6387 146.501 44.944 146.911 45.1818C147.822 45.7077 149.3 45.7082 150.207 45.1818C150.612 44.9463 150.835 44.6443 150.834 44.33C150.833 44.014 150.607 43.7087 150.197 43.4714C149.741 43.2079 149.143 43.0762 148.546 43.0762Z" fill="#373B42"/>
<path d="M163.384 90.5918C162.858 90.5918 162.35 90.7342 161.988 90.982C161.698 91.1813 161.532 91.4252 161.531 91.6524C161.531 91.8768 161.694 92.1185 161.979 92.315C162.337 92.5623 162.844 92.7041 163.369 92.7041C163.894 92.7041 164.402 92.5618 164.763 92.3145C165.054 92.1152 165.221 91.8707 165.221 91.6429C165.221 91.4185 165.058 91.1768 164.773 90.9803C164.415 90.7336 163.909 90.5918 163.384 90.5918Z" fill="#373B42"/>
</svg>
