<svg width="416" height="416" viewBox="0 0 416 416" fill="none" xmlns="http://www.w3.org/2000/svg">
<g opacity="0.2" filter="url(#filter0_d_5226_85998)">
<rect x="15" y="15" width="386" height="386" rx="32" fill="#FFBE2E"/>
</g>
<g opacity="0.5" filter="url(#filter1_d_5226_85998)">
<rect x="38" y="38" width="340" height="340" rx="28.1865" fill="#FFBE2E"/>
</g>
<g filter="url(#filter2_d_5226_85998)">
<rect x="59" y="59" width="298" height="298" rx="32" fill="#FFBE2E"/>
<path d="M120.834 229.818C119.986 227.893 119.808 213.606 120.194 210.7C120.281 210.03 120.867 210.236 120.939 209.932C121.689 206.777 121.747 202.767 122.572 199.315C132.76 156.684 174.628 127.462 218.612 132.011C237.165 133.929 237.096 162.08 218.605 163.857C207.217 164.95 199.691 163.245 188.245 167.668C141.693 185.671 140.293 251.861 186.165 271.41C224.628 287.803 263.243 260.148 264.997 219.787C266.368 188.161 263.109 154.925 264.964 123.492C266.171 103.031 294.749 102.886 297 122.772V224.853C293.621 273.686 252.761 310.291 203.332 307.888C165.065 306.028 131.04 277.348 122.5 240.302C121.958 237.953 121.441 231.211 120.83 229.822L120.834 229.818Z" fill="white"/>
</g>
<defs>
<filter id="filter0_d_5226_85998" x="0" y="0" width="416" height="416" filterUnits="userSpaceOnUse" color-interpolation-filters="sRGB">
<feFlood flood-opacity="0" result="BackgroundImageFix"/>
<feColorMatrix in="SourceAlpha" type="matrix" values="0 0 0 0 0 0 0 0 0 0 0 0 0 0 0 0 0 0 127 0" result="hardAlpha"/>
<feOffset/>
<feGaussianBlur stdDeviation="7.5"/>
<feComposite in2="hardAlpha" operator="out"/>
<feColorMatrix type="matrix" values="0 0 0 0 0 0 0 0 0 0 0 0 0 0 0 0 0 0 0.1 0"/>
<feBlend mode="normal" in2="BackgroundImageFix" result="effect1_dropShadow_5226_85998"/>
<feBlend mode="normal" in="SourceGraphic" in2="effect1_dropShadow_5226_85998" result="shape"/>
</filter>
<filter id="filter1_d_5226_85998" x="24.7876" y="24.7876" width="366.425" height="366.425" filterUnits="userSpaceOnUse" color-interpolation-filters="sRGB">
<feFlood flood-opacity="0" result="BackgroundImageFix"/>
<feColorMatrix in="SourceAlpha" type="matrix" values="0 0 0 0 0 0 0 0 0 0 0 0 0 0 0 0 0 0 127 0" result="hardAlpha"/>
<feOffset/>
<feGaussianBlur stdDeviation="6.60622"/>
<feComposite in2="hardAlpha" operator="out"/>
<feColorMatrix type="matrix" values="0 0 0 0 0 0 0 0 0 0 0 0 0 0 0 0 0 0 0.1 0"/>
<feBlend mode="normal" in2="BackgroundImageFix" result="effect1_dropShadow_5226_85998"/>
<feBlend mode="normal" in="SourceGraphic" in2="effect1_dropShadow_5226_85998" result="shape"/>
</filter>
<filter id="filter2_d_5226_85998" x="44" y="44" width="328" height="328" filterUnits="userSpaceOnUse" color-interpolation-filters="sRGB">
<feFlood flood-opacity="0" result="BackgroundImageFix"/>
<feColorMatrix in="SourceAlpha" type="matrix" values="0 0 0 0 0 0 0 0 0 0 0 0 0 0 0 0 0 0 127 0" result="hardAlpha"/>
<feOffset/>
<feGaussianBlur stdDeviation="7.5"/>
<feComposite in2="hardAlpha" operator="out"/>
<feColorMatrix type="matrix" values="0 0 0 0 0 0 0 0 0 0 0 0 0 0 0 0 0 0 0.1 0"/>
<feBlend mode="normal" in2="BackgroundImageFix" result="effect1_dropShadow_5226_85998"/>
<feBlend mode="normal" in="SourceGraphic" in2="effect1_dropShadow_5226_85998" result="shape"/>
</filter>
</defs>
</svg>
