<svg width="80" height="80" viewBox="0 0 80 80" fill="none" xmlns="http://www.w3.org/2000/svg">
<g clip-path="url(#clip0_6798_14584)">
<rect x="23" y="3" width="22" height="22" fill="#FFBE2E"/>
<path d="M72 74H3V71H37.1858H72V74Z" fill="#FFBE2E"/>
<path d="M55.4785 53.3337C55.4785 55.8792 57.5391 58.061 60.2058 58.061C62.7512 58.061 64.9331 56.0004 64.9331 53.3337C64.9331 50.7883 62.8725 48.6064 60.2058 48.6064C57.5391 48.6064 55.4785 50.6671 55.4785 53.3337ZM62.3876 53.3337C62.3876 54.5458 61.4179 55.6368 60.0846 55.6368C58.8725 55.6368 57.7815 54.6671 57.7815 53.3337C57.7815 52.0004 58.7512 51.0307 60.0846 51.0307C61.4179 51.0307 62.3876 52.0004 62.3876 53.3337Z" fill="black"/>
<path d="M37.6594 63.1508H48.2048C48.9321 63.1508 49.417 62.666 49.417 61.9387C49.417 61.2114 48.9321 60.7266 48.2048 60.7266H37.6594C36.9321 60.7266 36.4473 61.2114 36.4473 61.9387C36.4473 62.666 37.0533 63.1508 37.6594 63.1508Z" fill="black"/>
<path d="M32.8117 63.1508H34.0239C34.7511 63.1508 35.236 62.666 35.236 61.9387C35.236 61.2114 34.7511 60.7266 34.0239 60.7266H32.8117C32.0845 60.7266 31.5996 61.2114 31.5996 61.9387C31.5996 62.666 32.2057 63.1508 32.8117 63.1508Z" fill="black"/>
<path d="M78.6285 16.2428C78.6285 12.4852 75.5982 9.45487 71.8406 9.45487H50.0224V6.06093C50.0224 4.12154 48.4467 2.66699 46.6285 2.66699H25.4164C23.477 2.66699 22.0224 4.24275 22.0224 6.06093V26.3034C22.0224 28.2428 23.5982 29.6973 25.4164 29.6973H32.2043V43.0306C32.2043 43.7579 32.6891 44.2427 33.4164 44.2427H38.5073C39.2346 44.2427 39.7194 43.7579 39.7194 43.0306V29.6973H46.5073C48.4467 29.6973 49.9012 28.1215 49.9012 26.3034V23.0306H60.9315L48.8103 40.2428C46.7497 43.1518 47.7194 47.2731 50.9921 48.97C50.7497 49.6973 50.6285 50.5458 50.6285 51.2731V52.1215H22.6285C22.2649 52.1215 21.9012 52.364 21.6588 52.6064L14.0224 63.1518C13.9012 63.3943 13.78 63.6367 13.78 63.8791V69.4549H2.26486C1.53758 69.4549 1.05273 69.9397 1.05273 70.667V76.2428C1.05273 76.97 1.53758 77.4549 2.26486 77.4549H74.3861C75.1133 77.4549 75.5982 76.97 75.5982 76.2428V70.667C75.5982 69.9397 75.1133 69.4549 74.3861 69.4549H69.6588V51.3943C69.6588 46.7882 66.3861 42.9094 62.0224 42.0609C72.2042 27.0306 74.6285 25.6973 74.5073 22.4246C77.0527 21.3337 78.6285 18.9094 78.6285 16.2428ZM37.2952 41.9397H34.6285V29.8185H37.2952V41.9397ZM47.477 26.3034C47.477 26.9094 46.9921 27.2731 46.5073 27.2731C39.2346 27.2731 32.6891 27.2731 25.5376 27.2731C24.9315 27.2731 24.5679 26.7882 24.5679 26.3034V6.06093C24.5679 5.45487 25.0527 5.09123 25.5376 5.09123H46.5073C47.1133 5.09123 47.477 5.57608 47.477 6.06093V9.33366H41.5376C37.78 9.33366 34.7497 12.364 34.7497 16.1215C34.7497 19.8791 37.78 22.9094 41.5376 22.9094H47.477V26.3034ZM50.6285 64.6064H28.8103V59.2731H50.6285V64.6064ZM16.2043 64.2428L23.2346 54.5458H50.6285V56.8488H27.5982C26.8709 56.8488 26.3861 57.3337 26.3861 58.0609V65.8185C26.3861 66.5458 26.8709 67.0306 27.5982 67.0306H50.6285V69.3337H16.2043V64.2428ZM73.174 74.9094H3.47698V71.7579H73.174V74.9094ZM67.2346 51.3943V69.3337H53.0527C53.0527 69.2124 53.0527 51.2731 53.0527 51.3943C53.0527 47.5155 56.2043 44.2427 60.2043 44.2427C64.2043 44.2427 67.2346 47.5155 67.2346 51.3943ZM59.5982 41.4549C59.477 41.5761 59.477 41.6973 59.477 41.9397C56.2043 42.1821 53.4164 44.1215 51.9618 46.7882C50.0224 45.6973 49.6588 43.3943 50.8709 41.6973L65.6588 20.6064C67.477 18.0609 71.477 18.9094 72.083 22.0609C72.5679 24.7276 70.5073 25.2124 59.5982 41.4549ZM73.9012 20.0003C71.9618 16.0003 66.2649 15.3943 63.7194 19.1518L62.7497 20.6064H41.6588C39.2346 20.6064 37.2952 18.667 37.2952 16.2428C37.2952 13.8185 39.2346 11.8791 41.6588 11.8791H71.8406C74.2649 11.8791 76.2043 13.8185 76.2043 16.2428C76.2043 17.8185 75.3558 19.2731 73.9012 20.0003Z" fill="black"/>
<path d="M64.2065 26.6667L59.2368 33.6971C58.8732 34.1819 58.9944 35.0304 59.4792 35.394C59.9641 35.7577 60.8126 35.6364 61.1762 35.1516L66.1459 28.1213C66.5096 27.6364 66.3883 26.788 65.9035 26.4243C65.2974 26.0607 64.5702 26.1819 64.2065 26.6667Z" fill="black"/>
</g>
<defs>
<clipPath id="clip0_6798_14584">
<rect width="80" height="80" fill="white"/>
</clipPath>
</defs>
</svg>
