<svg width="80" height="80" viewBox="0 0 80 80" fill="none" xmlns="http://www.w3.org/2000/svg">
<g clip-path="url(#clip0_6798_13140)">
<rect y="54" width="56" height="18" rx="9" fill="#FFBE2E"/>
<g clip-path="url(#clip1_6798_13140)">
<path fill-rule="evenodd" clip-rule="evenodd" d="M8.80202 63.3188C4.82501 63.3188 1.58933 66.5538 1.58933 70.5309C1.58933 74.5081 4.82501 77.7431 8.80202 77.7431H56.379C60.356 77.7431 63.5915 74.5081 63.5915 70.5309C63.5915 66.5538 60.356 63.3188 56.3788 63.3188H8.80202ZM56.379 79.4896H8.80202C3.86186 79.4896 -0.157227 75.4707 -0.157227 70.5309C-0.157227 65.5912 3.86186 61.5723 8.80202 61.5723H56.379C61.3192 61.5723 65.3382 65.5913 65.3382 70.5309C65.3382 75.4707 61.3192 79.4898 56.379 79.4896Z" fill="black"/>
<path fill-rule="evenodd" clip-rule="evenodd" d="M24.6587 66.3833C22.3712 66.3833 20.5104 68.2446 20.5104 70.5315C20.5104 72.8186 22.3712 74.6798 24.6587 74.6798C26.9463 74.6798 28.8073 72.8186 28.8073 70.5315C28.8073 68.2446 26.9462 66.3833 24.6587 66.3833ZM24.6587 76.4264C21.4082 76.4264 18.7637 73.7829 18.7637 70.5315C18.7637 67.2802 21.4081 64.6367 24.6587 64.6367C27.9095 64.6367 30.5539 67.2804 30.5539 70.5315C30.5539 73.7829 27.9093 76.4266 24.6587 76.4264Z" fill="black"/>
<path fill-rule="evenodd" clip-rule="evenodd" d="M24.6585 69.1489C23.8963 69.1489 23.2759 69.7695 23.2759 70.5317C23.2759 71.2941 23.8963 71.9145 24.6585 71.9145C25.421 71.9145 26.0413 71.2941 26.0413 70.5317C26.0413 69.7695 25.4209 69.1491 24.6585 69.1489ZM24.6585 73.6611C22.9332 73.6611 21.5293 72.2583 21.5293 70.5317C21.5293 68.8069 22.9332 67.4023 24.6585 67.4023C26.384 67.4023 27.7881 68.8069 27.7881 70.5317C27.7881 72.2583 26.384 73.6611 24.6585 73.6611Z" fill="black"/>
<path fill-rule="evenodd" clip-rule="evenodd" d="M40.5221 66.3833C38.2347 66.3833 36.3737 68.2446 36.3737 70.5315C36.3737 72.8186 38.2347 74.6798 40.5221 74.6798C42.8096 74.6798 44.6706 72.8186 44.6706 70.5315C44.6706 68.2446 42.8096 66.3833 40.5221 66.3833ZM40.5221 76.4264C37.2715 76.4264 34.627 73.7829 34.627 70.5315C34.627 67.2802 37.2715 64.6367 40.5221 64.6367C43.7728 64.6367 46.4172 67.2804 46.4172 70.5315C46.4172 73.7829 43.7726 76.4266 40.5221 76.4264Z" fill="black"/>
<path fill-rule="evenodd" clip-rule="evenodd" d="M40.522 69.1489C39.7594 69.1489 39.1391 69.7695 39.1391 70.5317C39.1391 71.2941 39.7594 71.9145 40.522 71.9145C41.2843 71.9145 41.9044 71.2941 41.9044 70.5317C41.9044 69.7695 41.2843 69.1491 40.522 69.1489ZM40.522 73.6611C38.7964 73.6611 37.3926 72.2583 37.3926 70.5317C37.3926 68.8069 38.7964 67.4023 40.522 67.4023C42.2475 67.4023 43.6513 68.8069 43.6513 70.5317C43.6513 72.2583 42.2475 73.6611 40.522 73.6611Z" fill="black"/>
<path fill-rule="evenodd" clip-rule="evenodd" d="M8.79461 66.3833C6.50695 66.3833 4.64616 68.2446 4.64616 70.5315C4.64616 72.8186 6.50695 74.6798 8.79461 74.6798C11.0821 74.6798 12.9429 72.8186 12.9429 70.5315C12.9431 68.2446 11.0821 66.3833 8.79461 66.3833ZM8.79461 76.4264C5.54417 76.4264 2.89941 73.7829 2.89941 70.5315C2.8996 67.2802 5.54398 64.6367 8.79461 64.6367C12.0451 64.6367 14.6896 67.2804 14.6896 70.5315C14.6896 73.7829 12.0451 76.4266 8.79461 76.4264Z" fill="black"/>
<path fill-rule="evenodd" clip-rule="evenodd" d="M8.79442 69.1489C8.03205 69.1489 7.4116 69.7695 7.4116 70.5317C7.4116 71.2941 8.03205 71.9145 8.79442 71.9145C9.55697 71.9145 10.177 71.2941 10.177 70.5317C10.1772 69.7695 9.55678 69.1491 8.79442 69.1489ZM8.79442 73.6611C7.06889 73.6611 5.66504 72.2583 5.66504 70.5317C5.66504 68.8069 7.06889 67.4023 8.79442 67.4023C10.5199 67.4023 11.9238 68.8069 11.9238 70.5317C11.9238 72.2583 10.5199 73.6611 8.79442 73.6611Z" fill="black"/>
<path fill-rule="evenodd" clip-rule="evenodd" d="M56.3864 66.3833C54.0989 66.3833 52.2378 68.2446 52.2378 70.5315C52.2378 72.8186 54.0989 74.6798 56.3864 74.6798C58.6739 74.6798 60.5349 72.8186 60.5349 70.5315C60.5349 68.2446 58.6737 66.3833 56.3864 66.3833ZM56.3864 76.4264C53.1356 76.4264 50.4912 73.7829 50.4912 70.5315C50.4912 67.2802 53.1356 64.6367 56.3864 64.6367C59.637 64.6367 62.2814 67.2804 62.2814 70.5315C62.2816 73.7829 59.6368 76.4266 56.3864 76.4264Z" fill="black"/>
<path fill-rule="evenodd" clip-rule="evenodd" d="M56.3862 69.1489C55.6237 69.1489 55.0034 69.7695 55.0034 70.5317C55.0036 71.2941 55.6237 71.9145 56.3862 71.9145C57.1486 71.9145 57.7688 71.2941 57.7688 70.5317C57.7688 69.7695 57.1486 69.1491 56.3862 69.1489ZM56.3862 73.6611C54.6607 73.6611 53.2568 72.2583 53.2568 70.5317C53.2568 68.8069 54.6607 67.4023 56.3862 67.4023C58.1117 67.4023 59.5154 68.8069 59.5154 70.5317C59.5154 72.2583 58.1117 73.6611 56.3862 73.6611Z" fill="black"/>
<path fill-rule="evenodd" clip-rule="evenodd" d="M39.4165 56.3857H54.4191C56.4443 56.3857 58.0922 55.0556 58.0922 53.4218V40.0475L50.1227 27.468C49.7892 26.9422 49.2377 26.653 48.5697 26.653H40.2898C39.8083 26.653 39.4165 27.0441 39.4165 27.5263V56.3857ZM54.4191 58.1322H38.543C38.0608 58.1322 37.6699 57.741 37.6699 57.259V27.5263C37.6699 26.0816 38.8449 24.9064 40.2898 24.9064L48.5699 24.9062C49.8388 24.9062 50.9426 25.4994 51.5981 26.5329L59.7033 39.3268C59.7919 39.4671 59.8387 39.6289 59.8387 39.7945V53.4218C59.8387 56.0199 57.4077 58.1322 54.4191 58.1322Z" fill="black"/>
<path fill-rule="evenodd" clip-rule="evenodd" d="M58.9652 40.6676H43.0959C42.6137 40.6676 42.2227 40.2765 42.2227 39.7943V29.2454C42.2227 28.7633 42.6137 28.3721 43.0959 28.3721H52.282C52.764 28.3721 53.1551 28.7633 53.1551 29.2454C53.1551 29.7276 52.764 30.1186 52.282 30.1186H43.9692V38.921H58.9652C59.4472 38.921 59.8383 39.3122 59.8383 39.7943C59.8383 40.2765 59.4472 40.6676 58.9652 40.6676Z" fill="black"/>
<path fill-rule="evenodd" clip-rule="evenodd" d="M45.6039 46.5202H43.0959C42.6137 46.5202 42.2227 46.1289 42.2227 45.6469C42.2227 45.1647 42.6137 44.7736 43.0959 44.7736L45.6039 44.7734C46.0864 44.7734 46.4774 45.1647 46.4774 45.6469C46.4776 46.1289 46.0864 46.5202 45.6039 46.5202Z" fill="black"/>
<path fill-rule="evenodd" clip-rule="evenodd" d="M58.9658 48.3456H56.2579C55.1553 48.3456 54.2578 47.5577 54.2578 46.59V44.705C54.2578 43.7371 55.1553 42.9492 56.2579 42.9492H58.9658C59.4479 42.9492 59.8391 43.3405 59.8391 43.8225C59.8391 44.3047 59.4479 44.696 58.9658 44.696L56.2579 44.6958C56.1262 44.6958 56.0418 44.7377 56.0046 44.765V46.528C56.0418 46.5553 56.1262 46.599 56.2579 46.599L58.9658 46.5988C59.4479 46.5988 59.8391 46.9901 59.8391 47.4723C59.8391 47.9543 59.4479 48.3456 58.9658 48.3456Z" fill="black"/>
<path fill-rule="evenodd" clip-rule="evenodd" d="M38.542 58.1325H10.8201C7.79924 58.1325 5.3418 55.6745 5.3418 52.6544V43.4117C5.3418 40.3897 7.79924 37.9336 10.8199 37.9336H38.542C39.0242 37.9336 39.4152 38.323 39.4152 38.8069C39.4152 39.2889 39.0242 39.6802 38.542 39.6802H10.8201C8.76239 39.6802 7.08836 41.354 7.08836 43.4117L7.08854 52.6542C7.08854 54.7121 8.76239 56.386 10.8199 56.386H38.542C39.0242 56.386 39.4152 56.777 39.4152 57.2593C39.4152 57.7413 39.0242 58.1325 38.542 58.1325Z" fill="black"/>
<path fill-rule="evenodd" clip-rule="evenodd" d="M29.2031 45.584H15.5568C13.8714 45.584 12.5 44.2123 12.5 42.5275L12.5002 38.8069C12.5002 38.3228 12.8912 37.9336 13.3735 37.9336C13.8559 37.9336 14.2467 38.323 14.2467 38.8069L14.2469 42.5275C14.2469 43.2497 14.8345 43.8375 15.5568 43.8375H29.2031C29.5515 43.8375 29.8798 43.7011 30.1282 43.4518C30.3764 43.2043 30.5132 42.875 30.5132 42.5275V38.8069C30.5132 38.3228 30.9042 37.9336 31.3864 37.9336C31.8687 37.9336 32.2595 38.323 32.2595 38.8069L32.2597 42.5275C32.2599 43.3425 31.9414 44.1086 31.3634 44.6871C30.7852 45.2657 30.018 45.5842 29.2031 45.584Z" fill="black"/>
<path fill-rule="evenodd" clip-rule="evenodd" d="M18.4907 63.3194C18.0082 63.3194 17.6172 62.9283 17.6172 62.4461L17.6174 57.259C17.6174 56.7768 18.0082 56.3857 18.4907 56.3857C18.9731 56.3857 19.3639 56.7768 19.3639 57.259V62.4461C19.3639 62.9283 18.9729 63.3194 18.4907 63.3194Z" fill="black"/>
<path fill-rule="evenodd" clip-rule="evenodd" d="M46.6897 63.3194C46.2075 63.3194 45.8164 62.9283 45.8164 62.4461V57.259C45.8164 56.7768 46.2073 56.3857 46.6897 56.3857C47.1719 56.3857 47.5632 56.7768 47.5632 57.259V62.4461C47.5632 62.9283 47.1719 63.3194 46.6897 63.3194Z" fill="black"/>
<path fill-rule="evenodd" clip-rule="evenodd" d="M33.2565 10.5614C32.8808 10.5614 32.5337 10.3158 32.4203 9.93745C32.2819 9.47516 32.5444 8.98943 33.0065 8.8512L50.4101 3.63847C50.8718 3.50024 51.3588 3.7623 51.4971 4.22441C51.6356 4.68651 51.373 5.17427 50.9111 5.3125L33.5075 10.5232C33.4239 10.5487 33.3396 10.5614 33.2565 10.5614ZM34.6857 15.4301C34.3208 15.4301 33.9805 15.1991 33.8578 14.8335C33.7044 14.3767 33.9506 13.8818 34.4079 13.7271L51.242 8.0761C51.6991 7.9233 52.1941 8.16893 52.3478 8.62569C52.5014 9.08392 52.2552 9.57906 51.7977 9.73187L34.964 15.3846C34.8717 15.4156 34.7779 15.4301 34.6857 15.4301ZM71.049 29.3231C70.748 29.3231 70.4551 29.1666 70.2931 28.8883L58.3366 8.32912C58.0943 7.91056 58.2354 7.3774 58.6525 7.13362C59.0692 6.89167 59.6039 7.03359 59.8464 7.4503L71.803 28.0095C72.0453 28.4262 71.904 28.961 71.4869 29.2031C71.3489 29.2849 71.1979 29.3231 71.049 29.3231ZM66.4046 31.4555C66.1022 31.4555 65.808 31.299 65.6465 31.0171L54.1023 10.9252C53.862 10.5068 54.0063 9.97381 54.4245 9.73371C54.8427 9.49343 55.3766 9.63719 55.6169 10.0556L67.1611 30.1473C67.4014 30.5658 67.2571 31.0988 66.8387 31.3391C66.7018 31.419 66.5523 31.4555 66.4046 31.4555ZM18.1148 39.6792C18.0155 39.6792 17.9145 39.6609 17.816 39.6264C17.3625 39.4609 17.1291 38.9587 17.2943 38.5056L25.7146 15.3883C25.8796 14.9354 26.3808 14.7025 26.8339 14.868C27.2873 15.0317 27.5208 15.5339 27.3556 15.9869L18.9353 39.1043C18.8061 39.459 18.4713 39.6792 18.1148 39.6792ZM23.904 39.6792C23.8047 39.6792 23.7038 39.6609 23.6052 39.6264C23.152 39.4609 22.9183 38.9587 23.0835 38.5056L30.8255 17.2515C30.9907 16.7984 31.4919 16.5636 31.9449 16.7292C32.3982 16.8947 32.6318 17.3969 32.4665 17.8499L24.7247 39.1043C24.5955 39.459 24.2607 39.6792 23.904 39.6792Z" fill="black"/>
<path fill-rule="evenodd" clip-rule="evenodd" d="M54.9752 2.25633C52.9451 2.25633 51.2934 3.9084 51.2934 5.93695C51.2936 7.96753 52.9451 9.6196 54.9752 9.6196C57.005 9.61942 58.6563 7.96753 58.6563 5.93695C58.6563 3.9084 57.005 2.25633 54.9752 2.25633ZM54.9752 11.3662C51.982 11.3662 49.5469 8.92994 49.5469 5.93695C49.5469 2.94395 51.982 0.509766 54.9752 0.509766C57.968 0.509766 60.4029 2.94414 60.4029 5.93695C60.4029 8.92994 57.968 11.3662 54.9752 11.3662Z" fill="black"/>
<path fill-rule="evenodd" clip-rule="evenodd" d="M30.3412 9.50437C28.3113 9.50437 26.6596 11.1564 26.6596 13.1868C26.6598 15.2154 28.3112 16.8675 30.3412 16.8675C32.371 16.8675 34.0224 15.2156 34.0224 13.1868C34.0224 11.1564 32.371 9.50437 30.3412 9.50437ZM30.3412 18.614C27.3482 18.614 24.9131 16.1798 24.9131 13.1868C24.9131 10.194 27.3482 7.75781 30.3412 7.75781C33.334 7.75781 35.7689 10.194 35.7689 13.1868C35.7689 16.1798 33.334 18.6142 30.3412 18.614Z" fill="black"/>
<path fill-rule="evenodd" clip-rule="evenodd" d="M69.9168 29.1528C68.2874 29.1528 66.9616 30.4793 66.9616 32.1076C66.9616 33.7377 68.2874 35.0641 69.9168 35.0641C71.5465 35.0641 72.8714 33.7379 72.8714 32.1076C72.8714 30.4792 71.5465 29.153 69.9168 29.1528ZM69.9168 36.8108C67.3242 36.8108 65.2148 34.7003 65.2148 32.1076C65.2148 29.5149 67.324 27.4062 69.9168 27.4062C72.5095 27.4062 74.6179 29.5149 74.6179 32.1076C74.6179 34.7003 72.5095 36.8108 69.9168 36.8108Z" fill="black"/>
<path fill-rule="evenodd" clip-rule="evenodd" d="M69.9282 50.2126C67.3895 50.2126 64.8507 49.2465 62.9179 47.3143C62.7231 47.1196 62.6315 46.8432 62.6712 46.5702C62.7109 46.2973 62.877 46.0609 63.1193 45.928L68.012 43.277L68.8951 35.8303C68.9517 35.3517 69.3851 35.0098 69.8651 35.0661C70.3442 35.1225 70.6865 35.5573 70.6295 36.0359L69.6933 43.9321C69.6598 44.2141 69.4914 44.4616 69.2422 44.5961L65.0607 46.8631C68.256 49.2375 72.8055 48.9754 75.7038 46.079C77.2466 44.5361 78.0963 42.4856 78.0963 40.3043C78.0963 38.1227 77.2466 36.0704 75.7038 34.5294C75.0269 33.8525 74.2446 33.3031 73.3768 32.8991C72.9402 32.6972 72.749 32.177 72.9527 31.7403C73.1567 31.3017 73.6769 31.1125 74.1135 31.3164C75.1671 31.8075 76.1168 32.4717 76.9392 33.294C78.8114 35.1661 79.8428 37.6551 79.8428 40.3043C79.843 42.9514 78.8112 45.4421 76.9392 47.3143C75.0051 49.2465 72.4668 50.2126 69.9282 50.2126Z" fill="black"/>
<path fill-rule="evenodd" clip-rule="evenodd" d="M29.9586 49.9136H14.7991C14.317 49.9136 13.9258 49.5225 13.9258 49.0403C13.926 48.558 14.317 48.167 14.7991 48.167H29.9586C30.4408 48.167 30.8317 48.5582 30.8317 49.0403C30.8318 49.5223 30.4408 49.9136 29.9586 49.9136Z" fill="black"/>
<path fill-rule="evenodd" clip-rule="evenodd" d="M29.9586 53.8012H14.7991C14.317 53.8012 13.9258 53.4102 13.9258 52.928C13.926 52.4457 14.317 52.0547 14.7991 52.0547H29.9586C30.4408 52.0547 30.8317 52.4459 30.8317 52.928C30.8318 53.41 30.4408 53.8012 29.9586 53.8012Z" fill="black"/>
</g>
</g>
<defs>
<clipPath id="clip0_6798_13140">
<rect width="80" height="80" fill="white"/>
</clipPath>
<clipPath id="clip1_6798_13140">
<rect width="80" height="80" fill="white" transform="translate(-0.157227)"/>
</clipPath>
</defs>
</svg>
