<svg width="188" height="188" viewBox="0 0 188 188" fill="none" xmlns="http://www.w3.org/2000/svg">
<mask id="mask0_2343_18099" style="mask-type:alpha" maskUnits="userSpaceOnUse" x="0" y="0" width="188" height="188">
<rect width="188" height="188" fill="#D9D9D9"/>
</mask>
<g mask="url(#mask0_2343_18099)">
<path d="M53.6449 175.247C53.5863 175.247 53.5291 175.216 53.4968 175.162C53.4483 175.08 53.4752 174.975 53.5567 174.926L87.2776 154.93C87.7139 154.677 87.9536 154.35 87.953 154.011C87.9523 153.669 87.7092 153.34 87.2675 153.084L74.1614 145.518C74.0793 145.47 74.051 145.365 74.0982 145.282C74.146 145.199 74.2524 145.172 74.3338 145.22L87.4399 152.786C87.9927 153.105 88.297 153.54 88.2977 154.01C88.2984 154.478 87.9981 154.91 87.4526 155.228L53.733 175.222C53.7055 175.239 53.6751 175.247 53.6449 175.247Z" fill="#DBDEE4"/>
<path d="M153.324 180.524C152.357 180.524 151.388 180.31 150.649 179.884L132.335 169.31C132.253 169.262 132.225 169.157 132.272 169.074C132.32 168.991 132.426 168.964 132.507 169.012L150.822 179.585C152.205 180.383 154.447 180.384 155.819 179.585L174.014 169.012C174.097 168.964 174.202 168.991 174.25 169.074C174.297 169.156 174.27 169.262 174.188 169.31L155.993 179.884C155.258 180.31 154.292 180.524 153.324 180.524Z" fill="#DBDEE4"/>
<path d="M61.7022 52.8066L13.9346 80.5661L13.9955 59.0813" fill="white"/>
<path d="M13.935 80.738C13.9054 80.738 13.8758 80.7303 13.8489 80.7148C13.7957 80.6842 13.7627 80.6269 13.7627 80.5654L13.824 59.0805C13.824 58.9853 13.9014 58.9085 13.9964 58.9085C13.9964 58.9085 13.9964 58.9085 13.9971 58.9085C14.092 58.9088 14.1687 58.9863 14.1687 59.0811L14.1081 80.2657L61.6159 52.657C61.698 52.6096 61.8037 52.6369 61.8515 52.7197C61.8993 52.8018 61.8717 52.9075 61.7896 52.9553L14.0219 80.7148C13.9949 80.7303 13.9647 80.738 13.935 80.738Z" fill="#373B42"/>
<path d="M13.9949 59.0803L13.934 80.5651L9.27637 77.8761L9.33728 56.3867" fill="#FFBE2E"/>
<path d="M13.9332 80.738C13.9035 80.738 13.8739 80.7302 13.847 80.7147L9.18969 78.0255C9.13652 77.9949 9.10352 77.9376 9.10352 77.8761L9.16412 56.3869C9.16412 56.2916 9.24154 56.2148 9.33648 56.2148C9.33648 56.2148 9.33648 56.2148 9.33719 56.2148C9.43213 56.2151 9.50893 56.2926 9.50893 56.3875L9.44832 77.777L13.7616 80.2677L13.8222 59.0805C13.8222 58.9852 13.8996 58.9084 13.9946 58.9084C13.9946 58.9084 13.9946 58.9084 13.9953 58.9084C14.0902 58.9087 14.1669 58.9862 14.1669 59.0811L14.1056 80.5659C14.1056 80.6275 14.0726 80.6844 14.0194 80.715C13.9924 80.7302 13.9628 80.738 13.9332 80.738Z" fill="#373B42"/>
<g opacity="0.1">
<path d="M43.9137 146.685C42.907 147.267 42.9018 148.208 43.9019 148.789L61.2199 158.867C62.2201 159.448 63.8452 159.448 64.8518 158.867L92.3119 143.013C93.3186 142.432 93.3238 141.49 92.3236 140.909L75.0057 130.831C74.0055 130.25 72.3805 130.25 71.3738 130.831L43.9137 146.685Z" fill="black"/>
</g>
<path d="M93.0707 138.162C93.0707 138.805 92.8447 139.257 92.475 139.47L65.4681 155.164C65.8379 154.952 66.057 154.5 66.0638 153.863C66.0638 152.569 65.1531 150.987 64.0301 150.343L49.1409 141.741C48.9903 141.652 48.8602 141.542 48.7574 141.426C48.5315 141.166 48.415 140.872 48.3534 140.68C48.2712 140.426 48.1959 140.002 48.4493 139.783L75.504 124.054C75.2028 124.266 75.2848 124.711 75.3671 124.985C75.4218 125.17 75.5314 125.464 75.7642 125.724C75.867 125.848 75.997 125.957 76.1545 126.046L91.0369 134.642C92.1668 135.286 93.0776 136.874 93.0707 138.162Z" fill="#FFF7E4"/>
<path d="M65.4687 155.336C65.4094 155.336 65.3515 155.305 65.3192 155.25C65.2721 155.167 65.2997 155.062 65.3819 155.014L65.3914 155.009C65.7085 154.822 65.8862 154.414 65.8923 153.861C65.8923 152.62 65.0191 151.108 63.9457 150.492L49.0554 141.89C48.8931 141.793 48.7463 141.672 48.6292 141.54C48.4393 141.321 48.2918 141.049 48.1902 140.732C48.0374 140.259 48.0905 139.865 48.337 139.652L75.4177 123.904C75.4979 123.858 75.5996 123.883 75.6494 123.96C75.6992 124.038 75.6796 124.141 75.6042 124.194C75.4043 124.335 75.4547 124.675 75.5329 124.935C75.6123 125.204 75.7335 125.431 75.8937 125.609C75.9907 125.725 76.1058 125.82 76.2405 125.896L91.1241 134.492C92.2997 135.162 93.2511 136.808 93.2437 138.162C93.2437 138.849 93.0012 139.367 92.5609 139.619L65.5649 155.307C65.5616 155.309 65.5582 155.311 65.5541 155.313C65.5273 155.328 65.4977 155.336 65.4687 155.336ZM75.1213 124.475L48.5368 139.931C48.3631 140.086 48.4782 140.502 48.5187 140.626C48.6056 140.9 48.7301 141.13 48.8883 141.313C48.9812 141.418 49.0998 141.515 49.2297 141.592L64.1174 150.194C65.2862 150.864 66.2369 152.51 66.2369 153.863C66.2343 154.131 66.1952 154.373 66.1232 154.584L92.3885 139.32C92.7178 139.131 92.8989 138.72 92.8989 138.161C92.8989 138.161 92.8989 138.16 92.8989 138.16C92.9049 136.939 92.0141 135.396 90.9524 134.791L76.0694 126.195C75.9004 126.1 75.7529 125.978 75.6331 125.834C75.4425 125.622 75.2964 125.351 75.2028 125.033C75.1355 124.81 75.1133 124.626 75.1213 124.475Z" fill="#373B42"/>
<path d="M91.0391 134.639C92.1689 135.282 93.0796 136.871 93.0728 138.158C93.0728 138.802 92.8468 139.254 92.4771 139.466L65.4702 155.161C65.84 154.949 66.0591 154.497 66.0659 153.86C66.0659 152.566 65.1552 150.984 64.0322 150.34" fill="#212121"/>
<path d="M65.4702 155.333C65.4109 155.333 65.353 155.302 65.3207 155.246C65.2736 155.164 65.3012 155.059 65.3834 155.011L65.3921 155.006C65.7099 154.819 65.8877 154.412 65.8937 153.858C65.8937 152.617 65.0204 151.105 63.9471 150.489C63.8643 150.442 63.836 150.337 63.8831 150.254C63.9303 150.171 64.0353 150.143 64.1181 150.19C65.2877 150.86 66.2384 152.507 66.2384 153.859C66.2358 154.128 66.1967 154.37 66.1246 154.581L92.39 139.317C92.7192 139.128 92.9004 138.716 92.9004 138.158C92.9064 136.936 92.0156 135.393 90.9539 134.788C90.871 134.741 90.8427 134.636 90.8899 134.553C90.937 134.47 91.0413 134.442 91.1249 134.488C92.3012 135.159 93.2526 136.805 93.2452 138.159C93.2452 138.845 93.0027 139.363 92.5624 139.615L65.5664 155.304C65.5631 155.306 65.5597 155.308 65.5556 155.31C65.5287 155.325 65.4992 155.333 65.4702 155.333Z" fill="#212121"/>
<path d="M50.4375 120.619C51.5672 121.271 52.4737 122.846 52.47 124.139L52.4425 133.821C52.4358 136.183 51.6301 137.947 50.1695 138.775L48.5411 139.708C48.1851 139.91 48.2655 140.398 48.3545 140.679C48.4354 140.956 48.6464 141.458 49.144 141.745L64.0295 150.339C65.151 150.986 66.0656 152.57 66.062 153.859C66.0583 155.157 65.1378 155.673 64.0163 155.025L49.1307 146.431C47.1284 145.275 45.3378 142.866 44.5772 140.291C43.8166 137.721 44.2475 135.539 45.6632 134.723L47.2957 133.802C47.983 133.41 48.3611 132.582 48.3643 131.466L48.3917 121.785C48.3955 120.492 49.316 119.972 50.4375 120.619Z" fill="#212121"/>
<path d="M64.9312 155.477C64.6208 155.477 64.2801 155.376 63.9306 155.174L49.045 146.58C47.0021 145.401 45.1841 142.952 44.4118 140.34C43.6301 137.696 44.0873 135.432 45.5773 134.573L47.2114 133.651C47.8409 133.293 48.1891 132.517 48.1925 131.465L48.2201 121.784C48.2221 121.098 48.4652 120.581 48.9055 120.327C49.3492 120.072 49.925 120.124 50.5242 120.47C51.6957 121.146 52.6465 122.792 52.6432 124.139L52.6156 133.821C52.6088 136.253 51.7705 138.065 50.2549 138.924L48.6275 139.857C48.3589 140.01 48.4619 140.447 48.5191 140.627C48.5939 140.88 48.7838 141.337 49.2309 141.596L64.1165 150.189C65.2888 150.866 66.2388 152.513 66.2348 153.859C66.2327 154.546 65.9904 155.064 65.5506 155.317C65.3648 155.424 65.1561 155.477 64.9312 155.477ZM49.5265 120.512C49.3608 120.512 49.21 120.55 49.0774 120.626C48.7481 120.815 48.5663 121.227 48.565 121.785L48.5374 131.466C48.534 132.646 48.1233 133.529 47.3819 133.951L45.7485 134.873C44.4026 135.648 44.0072 137.756 44.7426 140.242C45.4907 142.774 47.2473 145.144 49.2174 146.282L64.1031 154.876C64.594 155.158 65.0464 155.21 65.379 155.019C65.7069 154.83 65.8887 154.418 65.8901 153.859C65.8941 152.622 65.0209 151.11 63.9442 150.488L49.0585 141.894C48.5077 141.576 48.2774 141.027 48.1892 140.728C48.0169 140.181 48.1138 139.753 48.4565 139.558L50.0846 138.625C51.4877 137.829 52.2641 136.123 52.2709 133.82L52.2985 124.139C52.3018 122.902 51.4286 121.39 50.3519 120.768C50.057 120.598 49.7762 120.512 49.5265 120.512Z" fill="#373B42"/>
<path d="M77.1839 123.078C78.6402 122.247 79.4515 120.484 79.4579 118.121L79.4834 108.444C79.4834 107.147 78.5828 105.576 77.4522 104.925C76.8837 104.592 76.3727 104.567 76.0023 104.784L48.9898 120.478C49.3603 120.261 49.8777 120.293 50.4398 120.618C51.5703 121.27 52.4773 122.848 52.4709 124.138L52.4453 133.821C52.4389 136.025 51.7365 137.705 50.4589 138.586C50.4525 138.599 50.4462 138.605 50.4398 138.605L48.5427 139.704C48.5107 139.723 48.4787 139.742 48.4531 139.781L75.504 124.055L77.1839 123.078Z" fill="#FFF7E4"/>
<path d="M48.4526 139.952C48.4061 139.952 48.3603 139.933 48.3274 139.898C48.2722 139.839 48.2647 139.751 48.3091 139.684C48.3556 139.614 48.4128 139.579 48.4512 139.556L50.3339 138.466C50.3419 138.457 50.3507 138.45 50.3608 138.443C51.5875 137.596 52.2662 135.954 52.2723 133.819L52.2979 124.136C52.3046 122.899 51.432 121.388 50.3527 120.767C49.8706 120.486 49.4074 120.434 49.0822 120.622L49.0761 120.625C48.9925 120.673 48.8875 120.646 48.8405 120.563C48.7927 120.481 48.8203 120.376 48.9024 120.328C48.9024 120.328 48.9024 120.328 48.9024 120.327L48.9037 120.327C48.905 120.326 48.9064 120.325 48.9078 120.324L75.9151 104.634C76.3602 104.373 76.9372 104.422 77.5385 104.774C78.7249 105.458 79.6555 107.07 79.6555 108.443L79.6299 118.12C79.6232 120.548 78.7842 122.361 77.2692 123.226L48.5396 139.928C48.5125 139.944 48.4822 139.952 48.4526 139.952ZM49.8174 120.195C50.0463 120.238 50.2854 120.329 50.5251 120.468C51.6993 121.145 52.6494 122.791 52.6426 124.138L52.617 133.82C52.6123 135.463 52.2218 136.834 51.498 137.81L77.096 122.927C77.0967 122.927 77.0974 122.927 77.0974 122.926C78.5019 122.126 79.2782 120.419 79.285 118.119L79.3105 108.442C79.3105 107.203 78.4379 105.691 77.3654 105.073C76.8752 104.786 76.422 104.736 76.0894 104.931L49.8174 120.195Z" fill="#373B42"/>
<path d="M114.964 12.8129C114.956 9.75969 112.795 8.52826 110.138 10.0622L16.5249 64.1098C13.8677 65.6438 11.7209 69.3624 11.7295 72.4158L11.9086 135.59L115.144 75.987L114.964 12.8129Z" fill="#373B42"/>
<path d="M11.9081 135.762C11.8784 135.762 11.8488 135.754 11.8219 135.739C11.7687 135.708 11.7357 135.651 11.7357 135.59L11.5567 72.4159C11.5479 69.3125 13.7376 65.5191 16.4382 63.9604L110.051 9.91303C111.396 9.13571 112.671 9.01551 113.638 9.5727C114.6 10.1261 115.132 11.2766 115.136 12.8124L115.315 75.9866C115.315 76.0482 115.282 76.1055 115.229 76.136L11.9943 135.739C11.9674 135.754 11.9377 135.762 11.9081 135.762ZM112.295 9.5726C111.663 9.5726 110.958 9.78702 110.223 10.2113L16.6105 64.2586C14.0054 65.7628 11.8926 69.4216 11.9014 72.4152L12.0798 135.291L114.971 75.8875L114.792 12.813C114.787 11.4057 114.317 10.3607 113.466 9.87126C113.12 9.67192 112.724 9.5726 112.295 9.5726Z" fill="#373B42"/>
<path d="M13.8926 72.4085C13.8863 70.131 15.6213 67.1283 17.6058 65.9828L111.219 11.9353C111.797 11.6014 112.164 11.5654 112.295 11.5654C112.759 11.5654 112.798 12.5239 112.799 12.8176L112.975 77.2371L14.0609 134.349L13.8926 72.4085Z" fill="#FFF7E4"/>
<path d="M14.0605 134.521C14.0308 134.521 14.0012 134.513 13.9743 134.498C13.9211 134.468 13.8881 134.411 13.8881 134.349L13.7197 72.4084C13.7136 70.0778 15.4892 67.0051 17.5192 65.8332L111.132 11.7858C111.747 11.431 112.15 11.3926 112.295 11.3926C112.902 11.3926 112.97 12.3888 112.971 12.8169L113.147 77.2364C113.147 77.2981 113.114 77.3553 113.061 77.3859L14.1468 134.498C14.1197 134.513 14.0901 134.521 14.0605 134.521ZM14.0645 72.4077L14.2321 134.051L112.802 77.1374L112.626 12.8176C112.624 12.2806 112.511 11.7373 112.295 11.7373C112.203 11.7373 111.862 11.7622 111.305 12.084L17.6916 66.1314C15.7531 67.2505 14.0584 70.1834 14.0645 72.4077Z" fill="#373B42"/>
<path d="M11.9092 135.589L11.9357 144.936C11.9443 147.989 14.1052 149.22 16.7624 147.686L110.375 93.6389C113.032 92.1046 115.179 88.3861 115.171 85.3329L115.144 75.9863L11.9092 135.589Z" fill="#FFBE2E"/>
<path d="M14.6036 148.52C14.1148 148.52 13.6623 148.406 13.2617 148.175C12.3002 147.622 11.7683 146.471 11.7636 144.935L11.7373 135.589C11.7373 135.527 11.7703 135.47 11.8235 135.439L115.058 75.8366C115.112 75.8057 115.177 75.806 115.231 75.8363C115.284 75.867 115.317 75.9238 115.317 75.9854L115.343 85.3318C115.352 88.435 113.162 92.2285 110.462 93.7873L16.8491 147.835C16.0607 148.29 15.2958 148.52 14.6036 148.52ZM12.082 135.688L12.1083 144.935C12.1124 146.342 12.583 147.387 13.4333 147.877C14.2898 148.369 15.4425 148.249 16.6766 147.536L110.289 93.4891C112.894 91.9849 115.007 88.326 114.998 85.3325L114.973 76.2838L12.082 135.688Z" fill="#373B42"/>
<path d="M113.566 9.7244C112.69 9.21274 111.481 9.29016 110.139 10.0654L16.525 64.1099C15.7497 64.5596 15.0133 65.203 14.3698 65.9551C13.9123 66.4745 13.5093 67.0405 13.1604 67.6451C12.7262 68.3894 12.3773 69.1724 12.137 69.9632C11.8733 70.7928 11.726 71.6225 11.7338 72.413L11.9354 144.94C11.9431 146.452 12.4781 147.522 13.3386 148.026L7.77996 144.793C6.91942 144.289 6.38444 143.219 6.3767 141.707L6.17511 69.1801C6.16737 68.3971 6.30692 67.5753 6.5628 66.7534C6.81083 65.9629 7.15972 65.1798 7.58612 64.4432C7.94274 63.8386 8.34591 63.2572 8.80328 62.7376C9.44674 61.9778 10.1832 61.3345 10.9662 60.8848L104.581 6.83271C105.922 6.05743 107.131 5.9954 108.007 6.49942L113.566 9.7244Z" fill="#212121"/>
<path d="M13.3391 148.198C13.3094 148.198 13.2798 148.19 13.2522 148.175L7.69395 144.942C6.74122 144.384 6.21265 143.235 6.20522 141.708L6.00322 69.1806C5.99579 68.4033 6.12913 67.5687 6.39917 66.7022C6.64833 65.906 6.99771 65.1169 7.43746 64.357C7.82861 63.6948 8.24472 63.112 8.67499 62.6235C9.34362 61.8337 10.1071 61.1799 10.8814 60.7351L104.495 6.68335C105.838 5.90634 107.116 5.78747 108.094 6.34975L113.639 9.5672C113.644 9.56985 113.649 9.5726 113.654 9.57565C113.736 9.62343 113.763 9.72886 113.716 9.81137C113.668 9.89387 113.561 9.92107 113.481 9.8736L113.48 9.8733C113.479 9.87259 113.477 9.87197 113.476 9.87126L113.474 9.86953C112.619 9.37468 111.467 9.49783 110.226 10.2146L16.6122 64.259C15.881 64.6832 15.151 65.3084 14.5014 66.0672C14.0563 66.5731 13.6563 67.1327 13.311 67.7313C12.8753 68.4777 12.5366 69.2449 12.303 70.0131C12.0324 70.8635 11.8998 71.6698 11.9071 72.4112L12.1084 144.94C12.1158 146.34 12.5838 147.384 13.4261 147.877C13.5082 147.925 13.5358 148.03 13.488 148.112C13.4562 148.167 13.3984 148.198 13.3391 148.198ZM106.735 6.34537C106.103 6.34537 105.399 6.55878 104.668 6.98161L11.0532 61.0338C10.3133 61.459 9.58126 62.0866 8.93555 62.8491C8.51741 63.3238 8.11413 63.8887 7.735 64.5307C7.3088 65.2676 6.97011 66.0331 6.72767 66.8048C6.46843 67.637 6.3412 68.4359 6.34793 69.1786L6.54992 141.707C6.55665 143.107 7.0246 144.15 7.86762 144.644L12.3169 147.232C11.9601 146.635 11.7682 145.856 11.7635 144.941L11.5622 72.4132C11.5541 71.6365 11.6928 70.7942 11.9736 69.9109C12.214 69.1191 12.5641 68.3269 13.0125 67.5583C13.3687 66.9405 13.7821 66.3629 14.2413 65.8413C14.9139 65.0553 15.6748 64.4042 16.4397 63.9607L110.054 9.91638C110.87 9.44506 111.675 9.20406 112.364 9.22626L107.922 6.64852C107.57 6.44601 107.17 6.34537 106.735 6.34537Z" fill="#373B42"/>
<path d="M14.3696 65.9538C13.9121 66.4732 13.5091 67.0391 13.1602 67.6438C12.726 68.388 12.3772 69.171 12.1368 69.9619L6.5625 66.7522C6.81054 65.9616 7.15942 65.1785 7.58582 64.4419C7.94244 63.8374 8.34561 63.2559 8.80298 62.7363L14.3696 65.9538Z" fill="#FFBE2E"/>
<path d="M13.3379 148.199C13.3083 148.199 13.2786 148.192 13.251 148.176L7.6901 144.942C6.73809 144.384 6.20952 143.236 6.20137 141.708L6.00009 69.1804C5.99205 67.6712 6.50167 65.958 7.43422 64.3561C8.35466 62.7704 9.57742 61.4844 10.8769 60.7354L104.491 6.68326C105.835 5.90656 107.114 5.78738 108.091 6.34966L113.652 9.57658C113.653 9.57658 113.653 9.57689 113.653 9.57689C113.735 9.62466 113.762 9.73009 113.714 9.81219C113.667 9.895 113.56 9.9223 113.479 9.87483L113.469 9.86883C112.614 9.37734 111.463 9.50018 110.225 10.2159L16.6102 64.2601C15.3612 64.9846 14.189 66.2181 13.3084 67.733C12.3967 69.3018 11.8985 70.9639 11.9058 72.4132L12.1071 144.941C12.1145 146.34 12.5818 147.383 13.4227 147.877L13.4248 147.877C13.4248 147.878 13.4248 147.878 13.4248 147.878C13.5069 147.926 13.5345 148.031 13.4867 148.113C13.455 148.168 13.3972 148.199 13.3379 148.199ZM106.732 6.34518C106.1 6.34518 105.396 6.55858 104.664 6.98141L11.0493 61.0339C9.80101 61.7534 8.62337 62.995 7.73187 64.5295C6.82966 66.0788 6.33746 67.7301 6.3448 69.179L6.54608 141.706C6.55351 143.107 7.02147 144.151 7.86378 144.644L12.3157 147.233C11.9589 146.636 11.767 145.857 11.7623 144.942L11.561 72.4147C11.553 70.9055 12.068 69.181 13.0106 67.5601C13.9203 65.9939 15.1376 64.7164 16.4378 63.9619L110.052 9.91752C110.868 9.4462 111.648 9.2169 112.364 9.2277L107.919 6.64822C107.567 6.44582 107.166 6.34518 106.732 6.34518Z" fill="#373B42"/>
<path d="M58.1967 116.366C58.1967 117.263 57.5706 118.349 56.7901 118.799C56.0122 119.246 55.3807 118.89 55.3779 117.994C55.3752 117.097 56.004 116.011 56.7818 115.561C57.5595 115.111 58.1939 115.47 58.1967 116.366Z" fill="#373B42"/>
<path d="M64.8598 112.521C64.8598 113.417 64.2337 114.504 63.4532 114.953C62.6753 115.4 62.0438 115.044 62.041 114.148C62.0383 113.252 62.6671 112.165 63.4449 111.715C64.2226 111.266 64.857 111.624 64.8598 112.521Z" fill="#373B42"/>
<path d="M71.5229 108.671C71.5229 109.568 70.8968 110.654 70.1162 111.104C69.3384 111.551 68.7069 111.195 68.7041 110.298C68.7014 109.402 69.3302 108.315 70.108 107.866C70.8858 107.416 71.5201 107.775 71.5229 108.671Z" fill="#373B42"/>
<path d="M13.9955 59.2546C13.9362 59.2546 13.8783 59.2239 13.8467 59.1687C13.7989 59.0866 13.8265 58.9809 13.9086 58.9331L61.6764 31.1736C61.7302 31.1426 61.7955 31.1426 61.8494 31.1736C61.9026 31.2043 61.9356 31.2615 61.9356 31.323L61.8743 52.8079C61.8743 52.9031 61.7969 52.9799 61.7019 52.9799C61.7019 52.9799 61.7019 52.9799 61.7012 52.9799C61.6063 52.9796 61.5295 52.9022 61.5295 52.8073L61.5901 31.6227L14.0824 59.2314C14.0548 59.2473 14.0251 59.2546 13.9955 59.2546Z" fill="#373B42"/>
<path d="M14.9932 56.8874L62.7609 29.1279C62.1463 29.4851 61.7648 30.2439 61.7618 31.3219L13.9941 59.0814C13.9973 58.0035 14.3787 57.2446 14.9932 56.8874Z" fill="white"/>
<path d="M13.9956 59.2534C13.9659 59.2534 13.9363 59.2456 13.9094 59.2301C13.8562 59.1995 13.8232 59.1422 13.8232 59.0807C13.8259 57.9748 14.211 57.1429 14.908 56.7378L62.6737 28.9801C62.6744 28.9794 62.675 28.9791 62.6757 28.9783C62.7578 28.9309 62.8636 28.9582 62.9113 29.041C62.9591 29.1231 62.9315 29.2288 62.8494 29.2766C62.2623 29.6183 61.9384 30.3445 61.9357 31.3218C61.9357 31.3831 61.9027 31.4397 61.8502 31.4706L14.0825 59.2301C14.0556 59.2456 14.0252 59.2534 13.9956 59.2534ZM61.9021 29.8272L15.0818 57.0362C14.5579 57.3402 14.2435 57.9515 14.1802 58.7747L61.5924 31.2216C61.6051 30.6822 61.7115 30.2113 61.9021 29.8272Z" fill="#373B42"/>
<path d="M73.2773 37.9662L73.0635 111.457L25.2967 139.216L25.5035 65.7245C25.5242 60.5949 21.9114 54.3481 17.4506 51.7696C15.2028 50.4733 13.1689 50.3492 11.6934 51.2041L59.4671 23.4459C60.9357 22.5909 62.9697 22.7082 65.2174 24.0043C69.6783 26.583 73.2912 32.8366 73.2773 37.9662Z" fill="#FFF7E4"/>
<path d="M25.2966 139.386C25.267 139.386 25.2373 139.379 25.2104 139.363C25.1573 139.332 25.1243 139.275 25.1243 139.214L25.3317 65.7226C25.3518 60.6609 21.7773 54.4682 17.3643 51.9169C15.2427 50.6945 13.2612 50.4939 11.7799 51.3517C11.6984 51.3988 11.5921 51.3715 11.5449 51.289C11.4971 51.2069 11.5247 51.1012 11.6068 51.0534H11.6076C11.6076 51.0531 11.6083 51.0531 11.6089 51.0527L59.3806 23.2949C60.9703 22.3695 63.0745 22.5677 65.3037 23.8531C69.8095 26.4582 73.4637 32.7883 73.4502 37.9648C73.4502 37.9648 73.4502 37.9648 73.4502 37.9651L73.2361 111.457C73.2361 111.517 73.2031 111.574 73.1507 111.605L25.3836 139.363C25.3566 139.379 25.3263 139.386 25.2966 139.386ZM13.818 50.4824C14.9619 50.4824 16.2278 50.8634 17.5367 51.6182C22.0453 54.2246 25.6966 60.5521 25.6764 65.7235L25.4697 138.914L72.8913 111.357L73.1054 37.9641C73.1189 32.8974 69.5415 26.7015 65.1314 24.1517C63.0131 22.9302 61.0322 22.7326 59.5543 23.5929L13.212 50.5194C13.4099 50.4948 13.6119 50.4824 13.818 50.4824Z" fill="#373B42"/>
<path d="M9.33691 56.3881C9.35148 51.2575 12.9824 49.1884 17.4472 51.7662C21.9122 54.3441 25.5195 60.5922 25.505 65.7227L25.2967 139.213L20.6312 136.52L20.8395 63.0335C20.8456 60.8638 19.3204 58.2174 17.4282 57.1249C15.5401 56.0348 14.0008 56.9119 13.9947 59.0816" fill="#212121"/>
<path d="M25.2967 139.385C25.2671 139.385 25.2374 139.378 25.2105 139.362L20.5445 136.668C20.4913 136.638 20.4583 136.581 20.4583 136.519L20.667 63.033C20.6732 60.9195 19.1811 58.336 17.3415 57.2742C16.4804 56.7769 15.6791 56.6921 15.0853 57.0338C14.4961 57.3731 14.1695 58.1007 14.1669 59.0821C14.1669 59.1773 14.0894 59.2541 13.9945 59.2541C13.9945 59.2541 13.9945 59.2541 13.9938 59.2541C13.8989 59.2538 13.8221 59.1764 13.8221 59.0814C13.8254 57.9714 14.2126 57.1383 14.9135 56.7349C15.6178 56.3289 16.5429 56.4151 17.5139 56.9759C19.449 58.0927 21.0178 60.8105 21.0118 63.0337L20.803 136.42L25.1251 138.915L25.3325 65.7223C25.3472 60.6552 21.7713 54.4618 17.3611 51.9153C15.2496 50.6966 13.274 50.4936 11.7948 51.3439C10.3276 52.1883 9.51559 53.9796 9.50887 56.3884C9.50887 56.4836 9.43145 56.5604 9.33652 56.5604C9.33652 56.5604 9.33651 56.5604 9.3358 56.5604C9.24086 56.5601 9.16406 56.4827 9.16406 56.3878C9.1715 53.8508 10.0448 51.9533 11.623 51.0451C13.2121 50.1307 15.3115 50.3341 17.5334 51.617C22.0386 54.218 25.6921 60.5462 25.6772 65.723L25.4691 139.213C25.4691 139.275 25.4361 139.332 25.3829 139.363C25.356 139.378 25.3264 139.385 25.2967 139.385Z" fill="#373B42"/>
<path d="M24.6967 53.5462C24.6374 53.5462 24.5795 53.5155 24.5478 53.4603C24.5001 53.3782 24.5277 53.2724 24.6098 53.2246L65.6666 29.3694C65.7494 29.3212 65.8544 29.3488 65.9022 29.432C65.95 29.5141 65.9224 29.6199 65.8403 29.6676L24.7835 53.5229C24.7559 53.5388 24.7263 53.5462 24.6967 53.5462Z" fill="#373B42"/>
<path d="M43.4927 54.0425C43.4334 54.0425 43.3756 54.0115 43.3433 53.9563C43.2961 53.8741 43.3237 53.7685 43.4065 53.721L68.0284 39.4726C68.1085 39.4248 68.2156 39.4524 68.264 39.5356C68.3111 39.6177 68.2835 39.7234 68.2007 39.7709L43.5789 54.0193C43.5519 54.0352 43.5223 54.0425 43.4927 54.0425Z" fill="#373B42"/>
<path d="M43.4927 62.464C43.4334 62.464 43.3756 62.4333 43.3433 62.3781C43.2961 62.2956 43.3237 62.1903 43.4065 62.1425L61.4797 51.6768C61.5597 51.629 61.6669 51.6562 61.7153 51.7395C61.7625 51.822 61.7349 51.9273 61.652 51.9751L43.5789 62.4408C43.5519 62.4567 43.5223 62.464 43.4927 62.464Z" fill="#373B42"/>
<path d="M38.0305 54.626C38.7976 54.1831 39.4202 54.5342 39.4227 55.4158L39.4457 63.5032C39.4481 64.3811 38.8296 65.4524 38.0625 65.8954L31.0274 69.9571C30.2603 70.4 29.6377 70.0452 29.6352 69.1673L29.6123 61.0799C29.6098 60.1984 30.2284 59.1307 30.9954 58.6878L38.0305 54.626Z" fill="#FFBE2E"/>
<path d="M30.4014 70.3224C30.2398 70.3224 30.0883 70.2837 29.9536 70.2063C29.6371 70.0242 29.4627 69.6555 29.4614 69.1687L29.4385 61.0815C29.4358 60.1338 30.0808 59.0172 30.9077 58.5397L37.9424 54.4782C38.3707 54.2305 38.7821 54.1952 39.1019 54.3782C39.4171 54.56 39.5921 54.9287 39.5934 55.4161L39.6163 63.5039C39.619 64.4516 38.974 65.5683 38.1472 66.0457L31.1117 70.1075C30.8646 70.2504 30.6228 70.3224 30.4014 70.3224ZM38.1149 54.7766L31.0801 58.8381C30.3624 59.2529 29.7806 60.2588 29.7833 61.0806L29.8062 69.1681C29.8069 69.5267 29.9207 69.7893 30.1253 69.9074C30.3333 70.0273 30.6222 69.992 30.9393 69.8094L37.9748 65.7477C38.6925 65.3329 39.2743 64.327 39.2716 63.5051L39.2487 55.4173C39.2474 55.0577 39.1342 54.7948 38.9296 54.6774C38.7215 54.5578 38.4333 54.5931 38.1149 54.7766Z" fill="#373B42"/>
<path d="M36.1612 59.109C36.2659 59.0485 36.3708 59.0339 36.4507 59.0794C36.6106 59.1706 36.6115 59.4686 36.4527 59.7475L33.3216 65.1672C33.2406 65.3074 33.1375 65.4137 33.0313 65.475C32.9281 65.5346 32.8217 65.5493 32.7433 65.501L31.6928 64.9059C31.5329 64.8148 31.532 64.5167 31.6909 64.2378C31.7703 64.1002 31.8748 63.9939 31.9795 63.9335C32.0843 63.8731 32.1891 63.8584 32.269 63.904L33.0279 64.3365L35.8723 59.4132C35.9519 59.2757 36.0565 59.1695 36.1612 59.109Z" fill="#212121"/>
<path d="M43.4927 72.8268C43.4334 72.8268 43.3756 72.7958 43.3433 72.7406C43.2961 72.6585 43.3237 72.5528 43.4065 72.5053L68.0284 58.2569C68.1085 58.2087 68.2156 58.237 68.264 58.3198C68.3111 58.402 68.2835 58.5077 68.2007 58.5552L43.5789 72.8036C43.5519 72.8193 43.5223 72.8268 43.4927 72.8268Z" fill="#373B42"/>
<path d="M43.4927 81.2474C43.4334 81.2474 43.3756 81.2167 43.3433 81.1615C43.2961 81.079 43.3237 80.9737 43.4065 80.9259L61.4797 70.4602C61.5597 70.412 61.6669 70.4396 61.7153 70.5228C61.7625 70.6053 61.7349 70.7107 61.652 70.7584L43.5789 81.2242C43.5519 81.2399 43.5223 81.2474 43.4927 81.2474Z" fill="#373B42"/>
<path d="M38.0305 73.4092C38.7976 72.9663 39.4202 73.3174 39.4227 74.199L39.4457 82.2864C39.4481 83.1643 38.8296 84.2356 38.0625 84.6786L31.0274 88.7403C30.2603 89.1832 29.6377 88.8284 29.6352 87.9505L29.6123 79.8631C29.6098 78.9816 30.2284 77.9139 30.9954 77.471L38.0305 73.4092Z" fill="#FFBE2E"/>
<path d="M30.4014 89.1036C30.2398 89.1036 30.0883 89.0652 29.9536 88.9877C29.6371 88.8056 29.4627 88.4373 29.4614 87.9502L29.4385 79.8629C29.4358 78.9152 30.0808 77.7986 30.9077 77.3212L37.9424 73.2594C37.9424 73.2594 37.9424 73.2594 37.9424 73.2591C38.3707 73.0123 38.7821 72.976 39.1019 73.1598C39.4171 73.3416 39.5921 73.7102 39.5934 74.1976L39.6163 82.2856C39.619 83.2333 38.974 84.3499 38.1472 84.8273L31.1117 88.8888C30.8646 89.0318 30.6228 89.1036 30.4014 89.1036ZM38.1149 73.5576L31.0801 77.6194C30.3624 78.0342 29.7806 79.0401 29.7833 79.8619L29.8062 87.9494C29.8069 88.308 29.9207 88.5706 30.1253 88.6888C30.3333 88.8083 30.6216 88.7732 30.9393 88.5905L37.9748 84.529C38.6925 84.1142 39.2743 83.1083 39.2716 82.2865L39.2487 74.1987C39.2474 73.8391 39.1342 73.5762 38.9296 73.4587C38.7215 73.3392 38.4327 73.3746 38.1149 73.558V73.5576Z" fill="#373B42"/>
<path d="M36.1612 77.8932C36.2659 77.8326 36.3708 77.8181 36.4507 77.8636C36.6106 77.9548 36.6115 78.2528 36.4527 78.5316L33.3216 83.9514C33.2406 84.0916 33.1375 84.1979 33.0313 84.2592C32.9281 84.3188 32.8217 84.3334 32.7433 84.2852L31.6928 83.6901C31.5329 83.599 31.532 83.3009 31.6909 83.022C31.7703 82.8843 31.8748 82.7781 31.9795 82.7177C32.0843 82.6573 32.1891 82.6426 32.269 82.6882L33.0279 83.1207L35.8723 78.1975C35.9519 78.0598 36.0565 77.9536 36.1612 77.8932Z" fill="#212121"/>
<path d="M43.4927 91.6087C43.4334 91.6087 43.3756 91.5778 43.3433 91.5226C43.2961 91.4405 43.3237 91.3347 43.4065 91.2873L68.0284 77.0389C68.1085 76.9914 68.2156 77.0187 68.264 77.1018C68.3111 77.1839 68.2835 77.2897 68.2007 77.3371L43.5789 91.5855C43.5519 91.6013 43.5223 91.6087 43.4927 91.6087Z" fill="#373B42"/>
<path d="M43.4927 100.031C43.4334 100.031 43.3756 100 43.3433 99.945C43.2961 99.8625 43.3237 99.7572 43.4065 99.7094L61.4797 89.2434C61.5597 89.1952 61.6669 89.2228 61.7153 89.306C61.7625 89.3885 61.7349 89.4939 61.652 89.5416L43.5789 100.008C43.5519 100.023 43.5223 100.031 43.4927 100.031Z" fill="#373B42"/>
<path d="M38.0305 92.1954C38.7976 91.7524 39.4202 92.1036 39.4227 92.9851L39.4457 101.073C39.4481 101.95 38.8296 103.022 38.0625 103.465L31.0274 107.526C30.2603 107.969 29.6377 107.614 29.6352 106.736L29.6123 98.6491C29.6098 97.7677 30.2284 96.6999 30.9954 96.257L38.0305 92.1954Z" fill="#FFBE2E"/>
<path d="M30.4014 107.889C30.2398 107.889 30.0883 107.85 29.9536 107.773C29.6371 107.591 29.4627 107.222 29.4614 106.735L29.4385 98.6477C29.4358 97.7004 30.0808 96.5837 30.9077 96.1064L37.9424 92.0446C37.9424 92.0446 37.9424 92.0446 37.9424 92.0443C38.3707 91.7979 38.7821 91.7608 39.1019 91.945C39.4171 92.1268 39.5921 92.4954 39.5934 92.9828L39.6163 101.071C39.619 102.003 38.9598 103.143 38.1472 103.612L31.1117 107.674C30.8646 107.817 30.6228 107.889 30.4014 107.889ZM38.1149 92.3428L31.0801 96.4046C30.3624 96.8194 29.7806 97.825 29.7833 98.6467L29.8062 106.735C29.8069 107.093 29.9207 107.356 30.1253 107.474C30.3333 107.593 30.6216 107.559 30.9393 107.376L37.9748 103.314C38.6925 102.9 39.2743 101.894 39.2716 101.072L39.2487 92.9839C39.2474 92.6243 39.1342 92.3614 38.9296 92.2439C38.7215 92.1244 38.4327 92.1598 38.1149 92.3432V92.3428Z" fill="#373B42"/>
<path d="M36.1612 96.6764C36.2659 96.6158 36.3708 96.6013 36.4507 96.6468C36.6106 96.738 36.6115 97.036 36.4527 97.3148L33.3216 102.735C33.2406 102.875 33.1375 102.981 33.0313 103.042C32.9281 103.102 32.8217 103.117 32.7433 103.068L31.6928 102.473C31.5329 102.382 31.532 102.084 31.6909 101.805C31.7703 101.668 31.8748 101.561 31.9795 101.501C32.0843 101.44 32.1891 101.426 32.269 101.471L33.0279 101.904L35.8723 96.9806C35.9519 96.8431 36.0565 96.7369 36.1612 96.6764Z" fill="#212121"/>
<path d="M43.4927 110.395C43.4334 110.395 43.3756 110.364 43.3433 110.309C43.2961 110.227 43.3237 110.121 43.4065 110.074L68.0284 95.8251C68.1085 95.7774 68.2156 95.805 68.264 95.8881C68.3111 95.9702 68.2835 96.0759 68.2007 96.1234L43.5789 110.372C43.5519 110.388 43.5223 110.395 43.4927 110.395Z" fill="#373B42"/>
<path d="M43.4927 118.817C43.4334 118.817 43.3756 118.786 43.3433 118.731C43.2961 118.648 43.3237 118.543 43.4065 118.495L61.4797 108.029C61.5597 107.982 61.6669 108.009 61.7153 108.092C61.7625 108.174 61.7349 108.28 61.652 108.327L43.5789 118.793C43.5519 118.809 43.5223 118.817 43.4927 118.817Z" fill="#373B42"/>
<path d="M38.0305 110.978C38.7976 110.535 39.4202 110.886 39.4227 111.767L39.4457 119.855C39.4481 120.733 38.8296 121.804 38.0625 122.247L31.0274 126.309C30.2603 126.751 29.6377 126.397 29.6352 125.519L29.6123 117.431C29.6098 116.55 30.2284 115.482 30.9954 115.039L38.0305 110.978Z" fill="#FFBE2E"/>
<path d="M30.4014 126.674C30.2398 126.674 30.0883 126.635 29.9536 126.558C29.6371 126.376 29.4627 126.008 29.4614 125.52L29.4385 117.433C29.4358 116.485 30.0808 115.369 30.9077 114.892L37.9424 110.83C38.3707 110.582 38.7834 110.547 39.1012 110.73C39.417 110.912 39.5921 111.28 39.5934 111.768L39.6163 119.856C39.619 120.788 38.9598 121.928 38.1472 122.397L31.1117 126.459C30.8646 126.602 30.6228 126.674 30.4014 126.674ZM38.1149 111.128L31.0801 115.19C30.3624 115.604 29.7806 116.61 29.7833 117.432L29.8062 125.52C29.8069 125.878 29.9207 126.141 30.1253 126.259C30.3333 126.378 30.6216 126.344 30.9393 126.161L37.9748 122.099C38.6925 121.685 39.2743 120.679 39.2716 119.857L39.2487 111.769C39.2474 111.41 39.1342 111.147 38.9296 111.029C38.7215 110.909 38.4327 110.945 38.1149 111.128Z" fill="#373B42"/>
<path d="M36.1612 115.461C36.2659 115.4 36.3708 115.385 36.4507 115.431C36.6106 115.522 36.6115 115.82 36.4527 116.099L33.3216 121.519C33.2406 121.659 33.1375 121.765 33.0313 121.827C32.9281 121.886 32.8217 121.901 32.7433 121.852L31.6928 121.257C31.5329 121.166 31.532 120.868 31.6909 120.589C31.7703 120.452 31.8748 120.345 31.9795 120.285C32.0843 120.225 32.1891 120.21 32.269 120.255L33.0279 120.688L35.8723 115.765C35.9519 115.627 36.0565 115.521 36.1612 115.461Z" fill="#212121"/>
<path d="M152.036 146.498C151.976 146.498 151.918 146.467 151.887 146.412C151.839 146.33 151.867 146.224 151.949 146.176L153.737 145.137C153.82 145.089 153.925 145.117 153.973 145.2C154.02 145.282 153.993 145.387 153.911 145.435L152.122 146.474C152.095 146.49 152.065 146.498 152.036 146.498ZM155.612 144.419C155.553 144.419 155.495 144.389 155.463 144.333C155.416 144.251 155.443 144.145 155.525 144.098L157.314 143.058C157.396 143.011 157.501 143.038 157.549 143.121C157.597 143.203 157.569 143.309 157.487 143.357L155.699 144.396C155.671 144.412 155.642 144.419 155.612 144.419ZM159.189 142.34C159.13 142.34 159.072 142.31 159.04 142.254C158.992 142.172 159.02 142.067 159.102 142.019L160.89 140.979C160.972 140.931 161.078 140.959 161.126 141.042C161.174 141.124 161.146 141.23 161.064 141.278L159.276 142.317C159.248 142.333 159.218 142.34 159.189 142.34ZM162.765 140.262C162.706 140.262 162.648 140.231 162.617 140.176C162.569 140.094 162.596 139.988 162.679 139.94L164.467 138.901C164.55 138.853 164.655 138.88 164.703 138.964C164.75 139.046 164.723 139.151 164.641 139.199L162.852 140.239C162.825 140.254 162.795 140.262 162.765 140.262ZM166.342 138.183C166.283 138.183 166.225 138.153 166.193 138.097C166.146 138.015 166.173 137.91 166.255 137.862L167.498 137.14V136.706C167.498 136.611 167.575 136.534 167.67 136.534C167.765 136.534 167.842 136.611 167.842 136.706V137.239C167.842 137.301 167.809 137.357 167.757 137.388L166.429 138.16C166.401 138.176 166.372 138.183 166.342 138.183ZM167.67 134.81C167.575 134.81 167.498 134.733 167.498 134.638V132.569C167.498 132.474 167.575 132.397 167.67 132.397C167.765 132.397 167.842 132.474 167.842 132.569V134.638C167.842 134.733 167.765 134.81 167.67 134.81ZM167.67 130.673C167.575 130.673 167.498 130.596 167.498 130.501V128.433C167.498 128.337 167.575 128.26 167.67 128.26C167.765 128.26 167.842 128.337 167.842 128.433V130.501C167.842 130.596 167.765 130.673 167.67 130.673ZM167.67 126.536C167.575 126.536 167.498 126.459 167.498 126.364V124.296C167.498 124.2 167.575 124.123 167.67 124.123C167.765 124.123 167.842 124.2 167.842 124.296V126.364C167.842 126.459 167.765 126.536 167.67 126.536ZM167.67 122.4C167.575 122.4 167.498 122.323 167.498 122.227V120.159C167.498 120.064 167.575 119.987 167.67 119.987C167.765 119.987 167.842 120.064 167.842 120.159V122.227C167.842 122.323 167.765 122.4 167.67 122.4ZM167.67 118.263C167.575 118.263 167.498 118.186 167.498 118.09V116.022C167.498 115.927 167.575 115.85 167.67 115.85C167.765 115.85 167.842 115.927 167.842 116.022V118.09C167.842 118.186 167.765 118.263 167.67 118.263ZM167.67 114.126C167.575 114.126 167.498 114.049 167.498 113.954V111.885C167.498 111.79 167.575 111.713 167.67 111.713C167.765 111.713 167.842 111.79 167.842 111.885V113.954C167.842 114.049 167.765 114.126 167.67 114.126ZM167.67 109.989C167.575 109.989 167.498 109.912 167.498 109.817V107.748C167.498 107.653 167.575 107.576 167.67 107.576C167.765 107.576 167.842 107.653 167.842 107.748V109.817C167.842 109.912 167.765 109.989 167.67 109.989ZM167.67 105.852C167.575 105.852 167.498 105.775 167.498 105.68V103.612C167.498 103.516 167.575 103.439 167.67 103.439C167.765 103.439 167.842 103.516 167.842 103.612V105.68C167.842 105.775 167.765 105.852 167.67 105.852ZM167.67 101.715C167.575 101.715 167.498 101.638 167.498 101.543V99.4747C167.498 99.3794 167.575 99.3023 167.67 99.3023C167.765 99.3023 167.842 99.3794 167.842 99.4747V101.543C167.842 101.638 167.765 101.715 167.67 101.715ZM167.67 97.5786C167.575 97.5786 167.498 97.5015 167.498 97.4062V95.3378C167.498 95.2425 167.575 95.1654 167.67 95.1654C167.765 95.1654 167.842 95.2425 167.842 95.3378V97.4062C167.842 97.5015 167.765 97.5786 167.67 97.5786ZM167.67 93.4417C167.575 93.4417 167.498 93.3646 167.498 93.2694V91.2009C167.498 91.1057 167.575 91.0286 167.67 91.0286C167.765 91.0286 167.842 91.1057 167.842 91.2009V93.2694C167.842 93.3646 167.765 93.4417 167.67 93.4417ZM167.67 89.3049C167.575 89.3049 167.498 89.2277 167.498 89.1325V87.0641C167.498 86.9688 167.575 86.8917 167.67 86.8917C167.765 86.8917 167.842 86.9688 167.842 87.0641V89.1325C167.842 89.2277 167.765 89.3049 167.67 89.3049ZM167.67 85.168C167.575 85.168 167.498 85.0909 167.498 84.9956V82.9272C167.498 82.832 167.575 82.7549 167.67 82.7549C167.765 82.7549 167.842 82.832 167.842 82.9272V84.9956C167.842 85.0909 167.765 85.168 167.67 85.168ZM167.67 81.0311C167.575 81.0311 167.498 80.954 167.498 80.8588V78.7944C167.498 78.6992 167.575 78.6221 167.67 78.6221C167.765 78.6221 167.842 78.6992 167.842 78.7944V80.8588C167.842 80.954 167.765 81.0311 167.67 81.0311Z" fill="#373B42"/>
<path d="M169.726 69.8975L167.647 71.0973L167.67 78.797L175.848 69.8975H169.726Z" fill="#FFF7E4"/>
<path d="M167.669 78.9679C167.648 78.9679 167.627 78.9642 167.607 78.9561C167.541 78.9305 167.497 78.8669 167.497 78.7959L167.475 71.0961C167.475 71.0345 167.508 70.9773 167.561 70.9467L169.639 69.7469C169.666 69.7317 169.695 69.7236 169.725 69.7236H175.847C175.915 69.7236 175.977 69.7641 176.004 69.8266C176.032 69.8893 176.02 69.9623 175.974 70.0124L167.796 78.912C167.763 78.9484 167.716 78.9679 167.669 78.9679ZM167.819 71.1951L167.84 78.3545L175.454 70.0683H169.772L167.819 71.1951Z" fill="#373B42"/>
<path d="M182.706 64.252L174.391 76.847L160.985 69.1071L182.706 64.252Z" fill="#FFBE2E"/>
<path d="M174.391 77.0196C174.362 77.0196 174.332 77.0122 174.305 76.9964L160.899 69.2563C160.837 69.221 160.804 69.1513 160.814 69.0812C160.825 69.0108 160.878 68.9543 160.947 68.9388L182.668 64.0839C182.736 64.0695 182.807 64.0964 182.847 64.1543C182.887 64.2122 182.888 64.2887 182.849 64.3472L174.535 76.9423C174.502 76.9923 174.447 77.0196 174.391 77.0196ZM161.454 69.1788L174.337 76.6166L182.326 64.5135L161.454 69.1788Z" fill="#373B42"/>
<path d="M182.704 64.2529L169.376 73.9524L167.67 78.7941L166.004 72.009L182.704 64.2529Z" fill="#373B42"/>
<path d="M167.67 78.9682C167.667 78.9682 167.665 78.9682 167.661 78.9679C167.585 78.9642 167.521 78.911 167.502 78.8369L165.836 72.0519C165.817 71.9718 165.856 71.8893 165.931 71.8546L182.632 64.0984C182.713 64.0604 182.808 64.0909 182.853 64.167C182.898 64.2434 182.878 64.3417 182.806 64.394L169.52 74.0618L167.832 78.8531C167.808 78.9224 167.743 78.9682 167.67 78.9682ZM166.205 72.1074L167.7 78.1932L169.213 73.8968C169.225 73.8638 169.246 73.8351 169.274 73.8147L181.173 65.1558L166.205 72.1074Z" fill="#373B42"/>
<g opacity="0.1">
<path d="M130.577 181.99L106.476 167.984L130.535 154.093L154.637 168.099L130.577 181.99Z" fill="black"/>
</g>
<path d="M131.579 177.851L107.478 163.845L107.399 136.192L131.501 150.198L131.579 177.851Z" fill="#212121"/>
<path d="M131.577 178.023C131.548 178.023 131.517 178.015 131.49 177.999L107.39 163.993C107.337 163.962 107.304 163.906 107.304 163.844L107.226 136.192C107.226 136.131 107.259 136.073 107.312 136.043C107.366 136.012 107.431 136.012 107.485 136.043L131.586 150.049C131.639 150.08 131.672 150.136 131.672 150.198L131.75 177.85C131.75 177.912 131.717 177.969 131.664 177.999C131.637 178.015 131.607 178.023 131.577 178.023ZM107.649 163.745L131.404 177.55L131.327 150.297L107.571 136.492L107.649 163.745Z" fill="#373B42"/>
<path d="M131.501 150.2L107.399 136.194L131.459 122.303L155.56 136.309L131.501 150.2Z" fill="#FFF7E4"/>
<path d="M131.499 150.372C131.47 150.372 131.439 150.365 131.412 150.349L107.311 136.343C107.258 136.312 107.226 136.255 107.226 136.194C107.226 136.133 107.259 136.076 107.312 136.045L131.372 122.154C131.426 122.123 131.491 122.123 131.545 122.154L155.646 136.16C155.699 136.191 155.731 136.248 155.731 136.309C155.731 136.371 155.698 136.428 155.645 136.458L131.585 150.349C131.558 150.365 131.529 150.372 131.499 150.372ZM107.742 136.194L131.499 150.001L155.215 136.309L131.458 122.503L107.742 136.194Z" fill="#373B42"/>
<path d="M146.37 141.619L140.765 144.854L116.662 130.849L122.267 127.614L146.37 141.619Z" fill="#212121"/>
<path d="M140.765 145.025C140.735 145.025 140.705 145.018 140.678 145.002L116.576 130.997C116.523 130.966 116.49 130.909 116.49 130.848C116.49 130.786 116.523 130.73 116.576 130.699L122.181 127.465C122.235 127.434 122.3 127.434 122.354 127.465L146.457 141.47C146.51 141.501 146.542 141.557 146.542 141.619C146.542 141.68 146.509 141.737 146.456 141.768L140.851 145.002C140.824 145.018 140.794 145.025 140.765 145.025ZM117.007 130.849L140.765 144.654L146.026 141.618L122.267 127.813L117.007 130.849Z" fill="#373B42"/>
<path d="M155.641 163.963L131.577 177.854L131.5 150.202L140.765 144.855L146.37 141.62L155.563 136.312L155.641 163.963Z" fill="#FFBE2E"/>
<path d="M131.578 178.026C131.548 178.026 131.519 178.018 131.492 178.003C131.439 177.972 131.406 177.915 131.406 177.853L131.328 150.201C131.328 150.14 131.361 150.083 131.414 150.052L155.477 136.162C155.531 136.131 155.596 136.131 155.65 136.162C155.703 136.192 155.736 136.249 155.736 136.311L155.813 163.962C155.813 164.024 155.78 164.081 155.727 164.112L131.664 178.002C131.637 178.018 131.608 178.026 131.578 178.026ZM131.673 150.3L131.75 177.555L155.469 163.863L155.392 136.609L131.673 150.3Z" fill="#373B42"/>
<path d="M146.385 148.764L140.779 152.005L140.767 144.853L146.372 141.619L146.385 148.764Z" fill="#212121"/>
<path d="M140.778 152.177C140.748 152.177 140.719 152.17 140.692 152.155C140.639 152.124 140.606 152.067 140.606 152.005L140.593 144.854C140.593 144.792 140.626 144.735 140.679 144.705L146.284 141.47C146.338 141.439 146.403 141.44 146.457 141.47C146.51 141.501 146.543 141.558 146.543 141.619L146.556 148.764C146.556 148.826 146.523 148.883 146.469 148.914L140.864 152.154C140.838 152.17 140.808 152.177 140.778 152.177ZM140.937 144.953L140.95 151.707L146.211 148.665L146.199 141.918L140.937 144.953Z" fill="#373B42"/>
<path d="M140.199 161.416C140.141 161.449 140.083 161.51 140.039 161.588L138.464 164.472C138.338 164.702 138.435 164.903 138.622 164.795L139.298 164.405L139.315 170.38C139.315 170.482 139.388 170.523 139.476 170.472L140.968 169.61C141.059 169.558 141.129 169.434 141.128 169.333L141.111 163.358L141.787 162.968C141.974 162.86 142.07 162.547 141.945 162.462L140.357 161.405C140.314 161.376 140.257 161.383 140.199 161.416Z" fill="#212121"/>
<path d="M135.57 164.089C135.512 164.122 135.455 164.182 135.413 164.259L133.836 167.144C133.71 167.374 133.809 167.574 133.996 167.466L134.671 167.076L134.688 173.051C134.689 173.153 134.759 173.195 134.85 173.143L136.342 172.282C136.43 172.23 136.502 172.105 136.502 172.004L136.485 166.029L137.161 165.639C137.348 165.531 137.444 165.218 137.314 165.136L135.728 164.077C135.685 164.049 135.627 164.056 135.57 164.089Z" fill="#212121"/>
<path d="M131.629 144.854L112.166 133.543L112.103 111.213L131.565 122.523L131.629 144.854Z" fill="#212121"/>
<path d="M131.627 145.026C131.597 145.026 131.567 145.018 131.54 145.002L112.078 133.692C112.025 133.661 111.992 133.604 111.992 133.543L111.929 111.213C111.929 111.151 111.962 111.094 112.015 111.063C112.069 111.032 112.134 111.032 112.188 111.063L131.65 122.374C131.703 122.405 131.736 122.461 131.736 122.522L131.799 144.853C131.799 144.915 131.766 144.972 131.713 145.002C131.686 145.018 131.656 145.026 131.627 145.026ZM112.337 133.443L131.454 144.553L131.391 122.622L112.274 111.512L112.337 133.443Z" fill="#373B42"/>
<path d="M131.565 122.522L112.103 111.212L131.532 99.9941L150.995 111.305L131.565 122.522Z" fill="#FFF7E4"/>
<path d="M131.563 122.695C131.534 122.695 131.503 122.687 131.476 122.672L112.014 111.362C111.961 111.331 111.929 111.274 111.929 111.212C111.929 111.151 111.962 111.094 112.015 111.063L131.444 99.8455C131.498 99.8145 131.563 99.8145 131.617 99.8455L151.08 111.156C151.133 111.187 151.165 111.244 151.165 111.306C151.165 111.367 151.132 111.424 151.079 111.454L131.649 122.672C131.623 122.687 131.593 122.695 131.563 122.695ZM112.445 111.213L131.563 122.323L150.649 111.305L131.53 100.194L112.445 111.213Z" fill="#373B42"/>
<path d="M143.571 115.595L139.045 118.207L119.581 106.897L124.107 104.285L143.571 115.595Z" fill="#212121"/>
<path d="M139.045 118.379C139.015 118.379 138.985 118.372 138.958 118.356L119.494 107.047C119.44 107.016 119.408 106.959 119.408 106.897C119.408 106.836 119.441 106.779 119.494 106.748L124.021 104.137C124.075 104.106 124.14 104.106 124.194 104.137L143.658 115.446C143.711 115.477 143.743 115.534 143.743 115.596C143.743 115.657 143.71 115.714 143.657 115.744L139.131 118.356C139.104 118.372 139.074 118.379 139.045 118.379ZM119.925 106.898L139.045 118.008L143.227 115.595L124.107 104.485L119.925 106.898Z" fill="#373B42"/>
<path d="M151.059 133.638L131.627 144.855L131.564 122.525L139.046 118.207L143.572 115.595L150.997 111.308L151.059 133.638Z" fill="#FFBE2E"/>
<path d="M131.627 145.027C131.597 145.027 131.567 145.019 131.54 145.004C131.487 144.973 131.454 144.916 131.454 144.855L131.392 122.524C131.392 122.463 131.425 122.406 131.478 122.375L150.91 111.158C150.964 111.127 151.029 111.127 151.083 111.158C151.136 111.188 151.169 111.245 151.169 111.307L151.231 133.637C151.231 133.699 151.198 133.756 151.145 133.786L131.713 145.003C131.686 145.019 131.656 145.027 131.627 145.027ZM131.736 122.624L131.798 144.556L150.886 133.538L150.825 111.605L131.736 122.624Z" fill="#373B42"/>
<path d="M143.582 121.363L139.055 123.98L139.045 118.206L143.571 115.594L143.582 121.363Z" fill="#212121"/>
<path d="M139.055 124.153C139.025 124.153 138.995 124.145 138.968 124.13C138.915 124.099 138.882 124.043 138.882 123.981L138.872 118.206C138.872 118.145 138.905 118.087 138.958 118.057L143.484 115.445C143.538 115.414 143.603 115.414 143.657 115.445C143.71 115.476 143.743 115.532 143.743 115.594L143.754 121.363C143.754 121.425 143.721 121.482 143.667 121.513L139.141 124.13C139.114 124.145 139.084 124.153 139.055 124.153ZM139.217 118.305L139.226 123.682L143.409 121.264L143.399 115.892L139.217 118.305Z" fill="#373B42"/>
<path d="M138.588 131.582C138.541 131.609 138.494 131.658 138.459 131.721L137.187 134.05C137.085 134.236 137.163 134.398 137.314 134.311L137.86 133.996L137.873 138.821C137.874 138.903 137.932 138.937 138.004 138.895L139.209 138.2C139.282 138.157 139.338 138.057 139.338 137.975L139.324 133.15L139.87 132.835C140.021 132.748 140.098 132.496 139.997 132.427L138.715 131.573C138.681 131.55 138.635 131.555 138.588 131.582Z" fill="#212121"/>
<path d="M134.849 133.741C134.803 133.768 134.756 133.816 134.722 133.878L133.449 136.208C133.347 136.394 133.427 136.555 133.578 136.468L134.124 136.153L134.137 140.978C134.138 141.06 134.195 141.094 134.268 141.052L135.472 140.357C135.544 140.315 135.602 140.214 135.602 140.132L135.588 135.307L136.134 134.992C136.285 134.905 136.362 134.653 136.258 134.586L134.977 133.731C134.942 133.708 134.896 133.714 134.849 133.741Z" fill="#212121"/>
<path d="M54.431 176.811C55.6661 176.098 55.6731 174.941 54.4461 174.228C53.2191 173.515 51.222 173.515 49.9869 174.228C48.7519 174.941 48.746 176.098 49.9729 176.811C51.1999 177.524 53.196 177.524 54.431 176.811Z" fill="white"/>
<path d="M52.2002 177.515C51.3613 177.515 50.5236 177.33 49.8867 176.96C49.2403 176.584 48.8842 176.074 48.8848 175.524C48.8861 174.97 49.247 174.457 49.9015 174.079C51.1821 173.339 53.26 173.34 54.5339 174.079C55.1803 174.455 55.5358 174.965 55.5351 175.515C55.5344 176.069 55.1729 176.582 54.5177 176.96C53.8781 177.33 53.0384 177.515 52.2002 177.515ZM52.2211 173.864C51.4441 173.864 50.6671 174.035 50.0739 174.378C49.5306 174.692 49.2303 175.099 49.2296 175.524C49.2296 175.946 49.5245 176.35 50.0605 176.662C51.2381 177.347 53.1611 177.346 54.3454 176.662C54.8895 176.348 55.1898 175.94 55.1905 175.515C55.1912 175.093 54.8962 174.689 54.3603 174.377C53.7716 174.035 52.9967 173.864 52.2211 173.864Z" fill="#DBDEE4"/>
<path d="M52.2167 174.704C51.7352 174.704 51.2692 174.814 50.9382 175.005C50.6723 175.158 50.5198 175.347 50.5195 175.522C50.5193 175.695 50.6689 175.881 50.9299 176.033C51.2582 176.224 51.7222 176.333 52.2032 176.333C52.6842 176.333 53.1498 176.224 53.4807 176.033C53.7468 175.879 53.8994 175.69 53.8997 175.515C53.8999 175.342 53.7504 175.156 53.4897 175.004C53.1616 174.813 52.6977 174.704 52.2167 174.704Z" fill="#FFBE2E"/>
<path d="M63.0902 168.517C62.5732 168.517 62.0727 168.634 61.7172 168.84C61.4317 169.004 61.2679 169.207 61.2676 169.395C61.2674 169.581 61.4279 169.781 61.7083 169.944C62.0609 170.149 62.5593 170.266 63.0757 170.266C63.5924 170.266 64.0924 170.149 64.4476 169.944C64.7334 169.779 64.8974 169.576 64.8977 169.388C64.8979 169.202 64.7374 169.002 64.4573 168.839C64.105 168.634 63.6067 168.517 63.0902 168.517Z" fill="#373B42"/>
<path d="M173.631 166.996C172.396 167.709 172.389 168.866 173.616 169.579C174.843 170.292 176.84 170.291 178.075 169.578C179.31 168.865 179.316 167.709 178.089 166.996C176.862 166.283 174.866 166.283 173.631 166.996Z" fill="white"/>
<path d="M175.841 170.281C175.002 170.281 174.165 170.096 173.529 169.726C172.882 169.35 172.527 168.84 172.527 168.29C172.528 167.736 172.889 167.223 173.544 166.845C174.826 166.105 176.903 166.107 178.175 166.846C178.822 167.222 179.178 167.732 179.177 168.282C179.176 168.835 178.815 169.348 178.161 169.726C177.52 170.096 176.68 170.281 175.841 170.281ZM173.716 167.144C173.172 167.458 172.873 167.865 172.872 168.291C172.871 168.713 173.166 169.117 173.702 169.428C174.879 170.112 176.802 170.113 177.989 169.428C178.532 169.114 178.832 168.707 178.832 168.281C178.833 167.859 178.538 167.455 178.001 167.144C176.824 166.459 174.901 166.46 173.716 167.144Z" fill="#DBDEE4"/>
<path d="M175.847 169.102C176.329 169.102 176.795 168.992 177.126 168.801C177.391 168.648 177.544 168.459 177.544 168.284C177.544 168.111 177.395 167.925 177.134 167.773C176.806 167.582 176.342 167.473 175.861 167.473C175.38 167.473 174.914 167.582 174.583 167.773C174.317 167.927 174.164 168.115 174.164 168.291C174.164 168.464 174.313 168.65 174.574 168.802C174.902 168.992 175.366 169.102 175.847 169.102Z" fill="#FFBE2E"/>
<path d="M164.975 175.29C165.492 175.29 165.993 175.172 166.348 174.967C166.634 174.802 166.798 174.6 166.798 174.411C166.798 174.225 166.638 174.025 166.357 173.862C166.005 173.657 165.506 173.54 164.99 173.54C164.473 173.54 163.973 173.658 163.618 173.863C163.332 174.028 163.168 174.23 163.168 174.419C163.168 174.605 163.328 174.805 163.608 174.968C163.961 175.172 164.459 175.29 164.975 175.29Z" fill="#373B42"/>
<path d="M100.577 60.9248L105.661 73.1085L100.791 73.5418L98.5763 80.3318L93.4922 68.148L100.577 60.9248Z" fill="#978050"/>
<path d="M89.1275 66.3095L96.2298 65.3418L91.2313 83.3467L88.9853 79.1321L84.1289 84.3144L89.1275 66.3095Z" fill="#978050"/>
<path d="M90.717 36.4262C92.0049 35.6826 93.5069 36.0538 94.8515 35.2776C96.1924 34.5035 97.6892 32.4048 98.9752 31.6623C99.1789 31.5446 99.3773 31.4611 99.569 31.4222C101.024 31.1233 101.609 33.3365 102.823 33.6525C104.048 33.9704 106.335 32.4984 107.229 33.3843C108.11 34.2702 107.294 37.1935 107.769 38.5923C108.229 39.938 110.168 40.2375 110.173 42.0266C110.178 43.8115 108.247 46.3449 107.796 48.2171C107.33 50.1631 108.16 52.1319 107.288 54.0299C106.401 55.9484 104.113 57.1175 102.894 58.8465C101.686 60.5611 101.119 63.4388 99.6638 64.8287C99.473 65.0104 99.275 65.1557 99.0719 65.2729C97.7855 66.0156 96.2813 65.6456 94.9399 66.4201C93.5954 67.1964 92.0977 69.2995 90.8114 70.0422C90.6081 70.1595 90.4101 70.2429 90.2188 70.2817C88.7601 70.5786 88.1758 68.3612 86.965 68.0433C85.7401 67.7295 83.4496 69.2035 82.555 68.3136C81.6746 67.4277 82.4906 64.5044 82.0156 63.1015C81.555 61.7559 79.6163 61.4563 79.6113 59.6714C79.6062 57.8824 81.5369 55.3489 81.9883 53.4767C82.4538 51.5348 81.624 49.5618 82.5035 47.6598C83.3903 45.7413 85.6744 44.5743 86.8936 42.8493C88.102 41.1346 88.6721 38.255 90.1241 36.8712C90.3152 36.689 90.5135 36.5437 90.717 36.4262Z" fill="#FFBE2E"/>
<path d="M94.8578 38.6131C100.74 35.2169 105.526 37.9444 105.545 44.7036C105.564 51.4585 100.809 59.6946 94.9271 63.0907C89.0485 66.4847 84.2624 63.7572 84.2432 57.0023C84.2241 50.2432 88.9791 42.007 94.8578 38.6131Z" fill="#373B42"/>
<path d="M94.8777 42.6425C95.1022 42.5129 95.327 42.5174 95.4435 42.7187L96.9821 45.3939C97.0753 45.5534 97.2503 45.5999 97.4571 45.5175L100.872 44.116C101.389 43.9037 101.597 44.5131 101.224 45.1466L98.7598 49.3457C98.6142 49.5939 98.5472 49.8745 98.5799 50.0892L99.1753 53.6575C99.2471 54.0834 98.9259 54.6487 98.5589 54.8607C98.4621 54.9166 98.3621 54.9479 98.2653 54.9455L95.2068 54.862C95.114 54.8603 95.0133 54.8907 94.9126 54.9488C94.812 55.0069 94.7114 55.0926 94.6189 55.2014L91.5744 58.8086C91.4779 58.9225 91.378 59.0066 91.281 59.0625C90.913 59.275 90.5874 59.083 90.6566 58.5757L91.2299 54.3327C91.2648 54.0789 91.1964 53.8764 91.0463 53.799L88.5694 52.4529C88.1941 52.2513 88.3987 51.4032 88.915 51.019L92.3266 48.4794C92.5295 48.3253 92.7073 48.0751 92.7994 47.8087L94.3142 43.3706C94.4292 43.0357 94.6533 42.7721 94.8777 42.6425Z" fill="white"/>
</g>
</svg>
