<svg width="85" height="69" viewBox="0 0 85 69" fill="none" xmlns="http://www.w3.org/2000/svg">
<path d="M65.6252 37.3579C63.5301 37.3579 61.3742 35.9218 61.3095 33.2053C61.2097 29.5922 62.1993 26.0316 64.152 22.9783C63.3361 21.9315 62.3911 20.9901 61.3389 20.1761C58.2433 22.0899 54.6416 23.0453 50.9948 22.9199C48.2484 22.8325 46.8242 20.6873 46.8321 18.6119C46.8399 16.5366 48.2817 14.403 51.0242 14.3369C54.6718 14.2369 58.2667 15.2172 61.3487 17.1526C61.8768 16.7497 62.3786 16.3142 62.8513 15.8487C63.3245 15.3835 63.7681 14.8896 64.1795 14.3699C62.2471 11.3036 61.2828 7.73592 61.4095 4.12347C61.4958 1.40301 63.6616 -0.00581137 65.7566 1.80169e-05C67.8518 0.0058474 70.0077 1.43603 70.0724 4.15262C70.1723 7.76574 69.1827 11.3263 67.2299 14.3796C67.6371 14.9023 68.0767 15.3995 68.5462 15.8681C69.0163 16.3364 69.5149 16.7757 70.039 17.1837C73.1346 15.2699 76.7363 14.3146 80.3831 14.4399C83.1296 14.5254 84.5537 16.6707 84.5459 18.746C84.5381 20.8213 83.0962 22.9569 80.3537 23.0211C76.7059 23.122 73.1108 22.1415 70.0292 20.2053C68.9733 21.0143 68.0225 21.9496 67.1985 22.9899C69.1316 26.0559 70.0968 29.6237 69.9704 33.2364C69.884 35.9568 67.7183 37.3657 65.6232 37.3579M65.6664 25.3237C64.3745 27.7277 63.7344 30.4226 63.8087 33.1451C63.842 34.4178 64.8111 34.8745 65.6331 34.8765C66.455 34.8784 67.4261 34.4315 67.4672 33.1567C67.5611 30.4353 66.9406 27.7365 65.6664 25.3237ZM63.4398 18.6702C63.844 19.0083 64.2344 19.3678 64.6169 19.7429C64.9994 20.1179 65.3505 20.5065 65.69 20.9088C66.0312 20.5104 66.3922 20.1218 66.7709 19.7429C67.1494 19.3639 67.5438 19.0141 67.9478 18.6779C67.5438 18.3399 67.1515 17.983 66.7709 17.6073C66.3962 17.2323 66.0372 16.8417 65.6978 16.4414C65.3564 16.8391 64.9955 17.2277 64.615 17.6073C64.2344 17.9869 63.8421 18.3412 63.4379 18.6702M51.55 16.8105H51.085C49.8001 16.8417 49.3411 17.8016 49.3372 18.6158C49.3332 19.4299 49.7864 20.3918 51.0733 20.4327C53.8215 20.5296 56.5479 19.9169 58.9848 18.6547C56.6972 17.4475 54.1458 16.8143 51.5538 16.8105M72.4029 18.7013C74.8287 19.982 77.5489 20.6161 80.2968 20.5415C81.5837 20.5104 82.0427 19.5485 82.0467 18.7363C82.0506 17.924 81.5974 16.9583 80.3106 16.9175C77.5634 16.8251 74.8389 17.4397 72.4029 18.7013ZM65.7507 2.47953C64.9307 2.47953 63.9577 2.92646 63.9166 4.19926C63.8221 6.92066 64.4427 9.61972 65.7174 12.0322C67.009 9.62882 67.6491 6.93462 67.5751 4.21286C67.5418 2.93813 66.5727 2.48342 65.7507 2.47953Z" fill="#802BE7"/>
<path d="M0 50.1873H18.3968V44.9504C18.3968 42.3503 17.3604 40.3658 15.2875 38.9965C13.2147 37.6272 10.5716 36.9425 7.35837 36.9425C5.86353 36.9531 4.37237 37.0909 2.90137 37.3545C2.71385 36.3201 2.61019 35.2727 2.59142 34.222C2.59142 32.6143 2.92817 31.477 3.60169 30.8098C4.27521 30.1426 5.33715 29.7429 6.78751 29.6108C7.96453 29.5435 8.82834 29.5091 9.37892 29.5078C12.8002 29.5078 15.78 30.1238 18.3184 31.3558C20.7697 32.5086 22.8111 34.3695 24.1741 36.6938C25.5381 39.0255 26.2201 41.7804 26.2201 44.9581V57.7832H0V50.1873Z" fill="#802BE7"/>
<path d="M31.6088 61.6846C32.68 61.6846 33.4575 61.3938 33.9414 60.8122C34.4252 60.2305 34.6672 59.2207 34.6672 57.7827V37.7717C34.6672 36.0954 35.0301 34.855 35.7559 34.0505C36.4817 33.246 37.7078 32.8437 39.4341 32.8437C40.4636 32.8566 41.4902 32.9574 42.5022 33.145V57.7866C42.5022 61.4476 41.6731 64.2192 40.0148 66.1015C38.3565 67.9839 35.9868 68.9237 32.9056 68.9211C30.682 68.8898 28.4778 68.5087 26.375 67.792L27.8777 61.1192C29.4667 61.4961 30.7091 61.6846 31.605 61.6846M35.4931 27.3445C34.7801 26.6327 34.3382 25.6981 34.2425 24.6999C34.1467 23.7016 34.4032 22.7014 34.9681 21.8694C35.533 21.0372 36.3716 20.4248 37.3411 20.1362C38.3105 19.8475 39.351 19.9006 40.2854 20.2863C41.2198 20.6719 41.9905 21.3664 42.4663 22.2516C42.942 23.1367 43.0934 24.1577 42.8948 25.1409C42.6961 26.1242 42.1597 27.0089 41.3768 27.6445C40.5938 28.2801 39.6126 28.6273 38.6003 28.6271C38.0215 28.6349 37.4471 28.5252 36.9126 28.3046C36.3782 28.084 35.8951 27.7572 35.4931 27.3445Z" fill="#802BE7"/>
</svg>
