<svg width="36" height="36" viewBox="0 0 36 36" fill="none" xmlns="http://www.w3.org/2000/svg">
<rect width="36" height="36" rx="4" fill="#FFBE2E"/>
<rect x="2" y="2" width="30" height="30" rx="4" fill="white"/>
<g clip-path="url(#clip0_1268_1624)">
<rect x="8" y="5" width="15" height="15" rx="2" fill="#FFBE2E"/>
<path d="M29.8285 15.9319L28.7113 15.2148L27.3813 11.6002C27.0687 10.7551 26.2643 10.1929 25.3633 10.1895H21.5547V6.72522C21.5547 6.36061 21.2591 6.06506 20.8945 6.06506H5.66016C5.29555 6.06506 5 6.36061 5 6.72522V26.9123C5 27.2769 5.29555 27.5724 5.66016 27.5724H8.14844C8.51269 29.2009 10.1281 30.2258 11.7566 29.8615C12.8985 29.606 13.7902 28.7143 14.0457 27.5724H21.9208C22.2851 29.2009 23.9005 30.2258 25.529 29.8615C26.6709 29.606 27.5626 28.7143 27.818 27.5724H30.3398C30.7045 27.5724 31 27.2769 31 26.9123V18.0764C31.0018 17.2082 30.5599 16.3994 29.8285 15.9319ZM6.32031 7.38538H20.2308V21.206H6.32031V7.38538ZM11.0968 28.6119C10.157 28.6119 9.39512 27.8501 9.39512 26.9103C9.39512 25.9705 10.157 25.2086 11.0968 25.2086C12.0366 25.2086 12.7985 25.9705 12.7985 26.9103C12.7974 27.8496 12.0361 28.6108 11.0968 28.6119ZM24.8697 28.6119H24.8692C23.9294 28.6119 23.1675 27.8501 23.1675 26.9103C23.1675 25.9705 23.9294 25.2086 24.8692 25.2086C25.809 25.2086 26.5709 25.9705 26.5709 26.9103C26.5697 27.8494 25.8088 28.6105 24.8697 28.6119ZM29.6797 26.2547H27.9765C27.9251 26.255 27.874 26.2613 27.8241 26.2735C27.4708 24.6426 25.8623 23.6069 24.2314 23.9603C23.0803 24.2097 22.1791 25.1052 21.9223 26.2547H14.0457C13.6814 24.6262 12.066 23.6014 10.4375 23.9657C9.29559 24.2211 8.40387 25.1128 8.14844 26.2547H6.32031V22.5289H29.6797V26.2547ZM29.6797 21.206H21.5511V11.5098H25.3597C25.7083 11.5106 26.0197 11.7278 26.1407 12.0547L27.5469 15.8775C27.5964 16.0123 27.6886 16.1274 27.8094 16.2051L29.112 17.0419C29.4655 17.2666 29.6797 17.6564 29.6797 18.0753V21.206Z" fill="black"/>
<path d="M16.2634 12.2495C16.0553 11.9501 15.6439 11.8761 15.3445 12.0842L15.344 12.0847C14.1901 12.886 13.1598 13.8519 12.2859 14.9518C11.9018 14.5043 11.4446 14.1252 10.9336 13.8306C10.6177 13.6483 10.2138 13.7566 10.0315 14.0726C9.8492 14.3885 9.95756 14.7924 10.2735 14.9747C10.8674 15.3168 11.3604 15.8095 11.703 16.4032C11.8158 16.599 12.021 16.7236 12.2468 16.7332H12.2748C12.4909 16.7332 12.6932 16.6273 12.8166 16.4499C13.706 15.1691 14.8173 14.0578 16.0981 13.1684C16.3975 12.9603 16.4715 12.5489 16.2634 12.2495Z" fill="black"/>
</g>
<defs>
<clipPath id="clip0_1268_1624">
<rect width="26" height="26" fill="white" transform="translate(5 5)"/>
</clipPath>
</defs>
</svg>
