<svg width="96" height="96" viewBox="0 0 96 96" fill="none" xmlns="http://www.w3.org/2000/svg">
<mask id="mask0_5541_21438" style="mask-type:alpha" maskUnits="userSpaceOnUse" x="0" y="0" width="96" height="96">
<rect x="1" y="1" width="94" height="94" rx="47" fill="#FFBE2E" stroke="white" stroke-width="2"/>
</mask>
<g mask="url(#mask0_5541_21438)">
<rect x="16" y="34" width="29" height="37" rx="4" fill="white"/>
<path fill-rule="evenodd" clip-rule="evenodd" d="M57.756 34.7118C58.0565 34.4024 58.5495 34.3977 58.8594 34.7118L61.0098 36.8591C61.7235 37.5718 60.6389 38.6525 59.9252 37.9422L59.073 37.0912V43.8426C59.073 44.8507 57.54 44.8507 57.54 43.8426V37.0912C56.9719 37.6585 56.2864 38.622 55.6055 37.9422C55.3074 37.6444 55.3074 37.1592 55.6055 36.8591L57.756 34.7118ZM66.1837 51.7872L65.9419 49.0937C65.9114 48.3974 65.3831 48.3295 64.9066 48.3295V21.7642C64.9066 21.3422 64.5638 21 64.1413 21H34.2067C33.9908 21 33.7959 21.0891 33.655 21.2344L22.0109 32.8595C21.863 32.9978 21.7715 33.1947 21.7715 33.4151V63.3069C21.7715 63.7289 22.1142 64.0711 22.5368 64.0711H49.14C49.14 64.5587 49.2292 65.0463 49.8396 65.1002L52.6028 65.3487L52.8916 66.0473L51.1379 68.1431C50.8562 68.4431 50.8632 68.9143 51.1567 69.205L54.9457 72.9863C55.2227 73.2629 55.6711 73.2887 55.9787 73.0308L58.1103 71.2539L58.8099 71.5422L59.0517 74.2358C59.0517 74.6578 59.3945 75 59.817 75H65.1719C65.5687 75 65.8973 74.6929 65.9325 74.3014L66.1814 71.5422L66.881 71.2538L68.9797 73.005C69.2802 73.2863 69.7521 73.2793 70.0432 72.9863L73.8299 69.205C74.1069 68.9283 74.1327 68.4806 73.8745 68.1735L72.095 66.0449L72.3838 65.3463L75.0812 65.1048C75.5037 65.1048 75.8465 64.7626 75.8465 64.3406V58.9933C75.8465 58.5972 75.5389 58.269 75.1469 58.2338L72.3837 57.9853L72.095 57.2867L73.8486 55.191C74.1304 54.8909 74.1233 54.4197 73.8299 54.129L70.0432 50.3477C69.7661 50.0711 69.3178 50.0453 69.0102 50.3009L66.8786 52.0778L66.1789 51.7894L66.1837 51.7872ZM65.9489 53.3368C67.4232 53.9486 66.7753 54.1573 69.4586 51.9208L72.2569 54.7151L70.6088 56.6843C70.3976 56.9351 70.3764 57.2821 70.5314 57.5517C71.7122 59.7318 70.252 59.3216 74.3204 59.6873V63.642L71.7615 63.8717C71.4399 63.8999 71.1817 64.1226 71.0948 64.4156C70.3623 66.7997 69.6557 65.5057 72.2545 68.6165L69.4562 71.4108L67.4842 69.7651C67.2331 69.5542 66.8856 69.5331 66.6156 69.6878C64.4324 70.8669 64.8432 69.4088 64.477 73.4714H60.5166L60.2865 70.9162C60.2584 70.595 60.0353 70.3372 59.7419 70.2504C57.3544 69.519 58.6503 68.8134 55.535 71.4085L52.7367 68.6142L54.3847 66.645C54.596 66.3942 54.6171 66.0449 54.4622 65.7776C53.2814 63.5975 54.7415 64.0077 50.6731 63.642V59.6873L53.2297 59.4576C53.5513 59.4294 53.8095 59.2067 53.8964 58.9137C54.6312 56.5296 55.3355 57.8213 52.7367 54.7128L55.535 51.9185L57.5093 53.5642C57.7605 53.7751 58.108 53.7962 58.378 53.6415C60.5612 52.4624 60.1504 53.9205 60.5166 49.8579H64.477C64.7892 53.325 64.4817 52.7272 65.9489 53.3344L65.9489 53.3368ZM49.1399 62.5403H23.3071V34.1795H30.2515V49.6352C30.2515 50.247 30.9441 50.6104 31.4488 50.2658L37.508 46.1306L43.525 50.2377C44.0838 50.6456 44.7646 50.233 44.7646 49.6352V34.1795H51.709V53.5805C51.6362 53.7587 50.4858 54.401 51.1174 55.1582L52.8968 57.2868L52.6057 57.9854L49.9083 58.2268C49.4858 58.2268 49.143 58.5691 49.143 58.991V62.5402L49.1399 62.5403ZM53.2365 52.0501C55.8306 49.4597 55.0042 49.4878 58.1078 52.0759L58.8074 51.7875L59.0562 49.0283C59.0891 48.6345 59.4201 48.3274 59.8168 48.3297H63.3711L63.3735 23.6116L53.2391 33.7316V52.0493L53.2365 52.0501ZM62.4953 54.7225C68.6674 54.7225 71.7823 62.2103 67.4112 66.5751C63.04 70.94 55.5417 67.8292 55.5417 61.6662C55.5417 57.831 58.6548 54.7225 62.4953 54.7225ZM66.3289 57.838C68.4464 59.9525 68.4464 63.3799 66.3289 65.4921C62.9225 68.8936 57.0767 66.472 57.0767 61.6639C57.0767 56.8559 62.9246 54.4366 66.3289 57.8358V57.838ZM24.3891 32.6488L28.6899 28.3542H35.0002L30.6995 32.6488H24.3891ZM32.866 32.6488L43.0004 22.5313H53.8134L43.679 32.6513H32.866V32.6488ZM45.8461 32.6488L50.1469 28.3542H56.4572L52.1565 32.6488H45.8461ZM43.2309 34.1797V48.1867L37.9394 44.5742C37.667 44.389 37.3172 44.403 37.0637 44.5836L31.7839 48.1867V34.1797L43.2309 34.1797ZM57.9905 26.8233H51.6801L55.9809 22.5286H62.2913L57.9905 26.8233ZM40.8341 22.5286L36.5333 26.8233H30.223L34.5238 22.5286H40.8341Z" fill="black"/>
</g>
</svg>
