<svg width="208" height="114" viewBox="0 0 208 114" fill="none" xmlns="http://www.w3.org/2000/svg">
<g filter="url(#filter0_d_2805_7275)">
<rect x="10" y="10" width="188" height="94" rx="4" fill="white"/>
</g>
<g clip-path="url(#clip0_2805_7275)">
<path d="M115.333 43.5003C118.289 43.4886 121.244 43.4798 124.2 43.4744C125.573 43.4718 126.945 43.4683 128.318 43.4626C129.515 43.4576 130.713 43.4544 131.91 43.4533C132.543 43.4526 133.176 43.4511 133.809 43.4475C134.407 43.444 135.005 43.443 135.603 43.4438C135.923 43.4436 136.243 43.4409 136.562 43.4381C139.159 43.4472 141.644 43.9266 143.666 45.667C144.903 46.982 145.082 48.5973 145.07 50.328C144.993 52.7757 144.243 55.1951 142.532 57.0062C140.578 58.7549 138.181 59.5557 135.666 60.167C136.755 62.1933 137.85 64.2149 138.979 66.2191C139.106 66.4466 139.106 66.4466 139.237 66.6787C140.604 69.331 140.604 69.331 142.906 71.0628C143.047 71.0972 143.188 71.1316 143.333 71.167C143.34 71.4447 143.34 71.7226 143.333 72.0003C143.166 72.167 143.166 72.167 142.684 72.187C142.469 72.1867 142.253 72.1863 142.031 72.1859C141.853 72.1859 141.853 72.1859 141.671 72.186C141.277 72.1859 140.883 72.1846 140.489 72.1833C140.216 72.183 139.944 72.1827 139.671 72.1825C138.952 72.1819 138.234 72.1803 137.515 72.1784C136.782 72.1767 136.049 72.176 135.316 72.1751C133.878 72.1733 132.439 72.1705 131 72.167C131.047 71.682 131.047 71.682 131.166 71.167C131.359 71.0879 131.551 71.0089 131.75 70.9274C132.039 70.7985 132.039 70.7985 132.333 70.667C132.567 69.8674 132.513 69.3556 132.133 68.6147C132.076 68.511 132.019 68.4073 131.961 68.3004C131.902 68.1889 131.844 68.0774 131.784 67.9624C131.595 67.6019 131.402 67.2439 131.208 66.8857C131.077 66.6387 130.947 66.3915 130.817 66.1442C130.012 64.6198 129.191 63.1025 128.341 61.6024C127.833 60.7005 127.833 60.7005 127.833 60.3337C125.633 60.3887 123.433 60.4437 121.166 60.5003C120.948 61.7635 120.731 63.0268 120.516 64.2906C120.443 64.7204 120.369 65.1501 120.295 65.5797C120.188 66.1975 120.083 66.8157 119.978 67.4339C119.945 67.6256 119.911 67.8173 119.876 68.0148C119.846 68.1949 119.816 68.3751 119.785 68.5606C119.758 68.7183 119.731 68.8759 119.703 69.0384C119.661 69.5655 119.697 69.989 119.833 70.5003C120.086 70.6653 120.086 70.6653 120.344 70.8337C120.505 70.9437 120.667 71.0537 120.833 71.167C120.833 71.497 120.833 71.827 120.833 72.167C117.423 72.167 114.013 72.167 110.5 72.167C110.555 71.837 110.61 71.507 110.666 71.167C110.989 70.9418 111.294 70.8503 111.665 70.7249C112.291 70.3048 112.446 69.5707 112.606 68.8659C112.714 68.2872 112.813 67.7074 112.908 67.1263C112.946 66.9034 112.984 66.6804 113.022 66.4574C113.124 65.8547 113.225 65.2517 113.325 64.6486C113.43 64.0157 113.536 63.3832 113.643 62.7506C113.821 61.6884 113.999 60.626 114.175 59.5634C114.379 58.3373 114.585 57.1114 114.791 55.8857C114.991 54.7038 115.188 53.5217 115.386 52.3396C115.47 51.8377 115.554 51.336 115.638 50.8343C115.738 50.2428 115.837 49.6511 115.934 49.0593C115.987 48.7402 116.041 48.4212 116.095 48.1023C116.47 46.4327 116.47 46.4327 116.125 44.8545C115.814 44.6548 115.503 44.4847 115.166 44.3337C115.221 44.0587 115.276 43.7837 115.333 43.5003ZM123 48.8337C122.67 50.8687 122.34 52.9037 122 55.0003C124.151 55.0149 124.151 55.0149 126.302 55.0247C127.181 55.0277 128.059 55.0312 128.938 55.038C129.647 55.0435 130.356 55.0465 131.065 55.0478C131.334 55.0487 131.603 55.0505 131.873 55.0532C134.599 55.1036 134.599 55.1036 136.92 53.8213C137.577 52.9647 137.905 51.9313 137.833 50.8545C137.709 50.1879 137.528 49.7829 137 49.3337C135.578 48.6916 134.146 48.7697 132.619 48.7848C132.341 48.7858 132.063 48.7865 131.785 48.787C131.057 48.7889 130.33 48.7938 129.602 48.7993C128.727 48.8054 127.852 48.8076 126.976 48.8105C125.651 48.8154 124.325 48.825 123 48.8337Z" fill="black"/>
<path d="M30.5 42.8334C33.855 42.8334 37.21 42.8334 40.6667 42.8334C40.4573 43.4615 40.2233 43.5133 39.6667 43.8334C39.3977 44.3713 39.4334 44.7343 39.5 45.3334C40.1175 46.4691 40.9835 47.4894 41.7708 48.5105C42.0092 48.8214 42.2475 49.1324 42.4857 49.4434C42.6601 49.671 42.6601 49.671 42.8381 49.9031C43.2848 50.4881 43.7263 51.0769 44.1667 51.6667C44.9306 52.6894 45.7039 53.7047 46.4792 54.7188C47.4382 55.9738 48.3828 57.2383 49.3151 58.5132C50.0857 59.5646 50.8767 60.5994 51.6818 61.6246C51.7674 61.7349 51.8531 61.8453 51.9414 61.959C52.0173 62.0558 52.0932 62.1526 52.1715 62.2524C52.3333 62.5 52.3333 62.5 52.3333 62.8334C52.4433 62.8334 52.5533 62.8334 52.6667 62.8334C52.673 62.7032 52.6794 62.573 52.6859 62.4389C52.7812 60.8263 53.0012 59.2494 53.2522 57.6549C53.3253 57.1902 53.3971 56.7253 53.4686 56.2603C53.6718 54.9402 53.8774 53.6204 54.0835 52.3007C54.2102 51.4888 54.3355 50.6767 54.4601 49.8644C54.5075 49.5574 54.5554 49.2505 54.6038 48.9437C55.0428 46.6459 55.0428 46.6459 55 44.3334C54.618 43.84 54.618 43.84 54.1667 43.5C54.1117 43.28 54.0567 43.06 54 42.8334C56.86 42.8334 59.72 42.8334 62.6667 42.8334C62.6667 42.9984 62.6667 43.1634 62.6667 43.3334C62.3492 43.5468 62.0176 43.7046 61.6738 43.8718C60.6381 44.7689 60.6262 46.6013 60.44 47.8713C60.4039 48.11 60.3677 48.3486 60.3314 48.5871C60.2336 49.2319 60.1377 49.877 60.0422 50.5221C59.9417 51.1996 59.8397 51.8769 59.7379 52.5542C59.5673 53.6918 59.3978 54.8296 59.229 55.9674C59.0345 57.2793 58.8379 58.5908 58.6402 59.9022C58.4496 61.1678 58.2604 62.4336 58.0719 63.6996C57.9919 64.2363 57.9114 64.773 57.8304 65.3097C57.735 65.943 57.6408 66.5765 57.5477 67.2102C57.5135 67.4415 57.4788 67.6726 57.4436 67.9037C56.9626 70.1651 56.9626 70.1651 57.4792 72.2709C57.8226 72.5023 57.8226 72.5023 58.1667 72.6667C58.1667 72.8317 58.1667 72.9967 58.1667 73.1667C55.0317 73.1667 51.8967 73.1667 48.6667 73.1667C49.3333 72.5 49.3333 72.5 49.625 72.2709C49.9516 71.8463 49.8829 71.5239 49.8333 71C49.5857 70.5096 49.5857 70.5096 49.2188 70.0313C49.1519 69.9388 49.0851 69.8463 49.0163 69.751C48.7917 69.4427 48.5632 69.1378 48.3333 68.8334C48.2539 68.7278 48.1745 68.6222 48.0926 68.5135C47.5566 67.8035 47.0141 67.0985 46.4705 66.3943C45.9292 65.6919 45.3917 64.9866 44.8542 64.2813C44.7421 64.1344 44.6301 63.9875 44.5147 63.8361C43.6424 62.6907 42.7794 61.5387 41.9178 60.3853C41.1377 59.3439 40.341 58.3166 39.5379 57.293C38.6873 56.2041 37.8687 55.0927 37.0589 53.9733C36.9662 53.8459 36.8735 53.7185 36.778 53.5873C36.696 53.4737 36.6139 53.3601 36.5294 53.2431C36.4647 53.1629 36.4 53.0827 36.3333 53C36.2783 53 36.2233 53 36.1667 53C35.8141 55.3048 35.4634 57.6098 35.115 59.9151C34.9531 60.9856 34.7906 62.056 34.6267 63.1261C34.4686 64.159 34.3121 65.1921 34.1567 66.2254C34.0971 66.6195 34.037 67.0135 33.9762 67.4074C33.8912 67.9593 33.8083 68.5115 33.7259 69.0639C33.6876 69.3077 33.6876 69.3077 33.6485 69.5565C33.5221 70.4196 33.4714 71.1459 33.6667 72C33.8857 72.2929 33.8857 72.2929 34.1771 72.4688C34.3386 72.5891 34.5002 72.7094 34.6667 72.8334C34.6667 72.9434 34.6667 73.0534 34.6667 73.1667C31.8067 73.1667 28.9467 73.1667 26 73.1667C26.1667 72.6667 26.1667 72.6667 26.5521 72.448C27.2702 71.997 27.5799 71.5148 27.7819 70.7042C27.8887 70.1084 27.978 69.5121 28.0625 68.9128C28.097 68.6815 28.1317 68.4502 28.1666 68.219C28.261 67.5903 28.3522 66.9612 28.4429 66.3319C28.5389 65.669 28.6377 65.0066 28.7362 64.3441C28.8609 63.5048 28.9851 62.6655 29.1081 61.826C29.3967 59.8568 29.6928 57.8888 29.9936 55.9214C30.1333 55.0074 30.2722 54.0933 30.4113 53.1791C30.5238 52.4397 30.6365 51.7003 30.7499 50.961C30.8569 50.2627 30.9628 49.5642 31.0679 48.8656C31.1067 48.609 31.1458 48.3524 31.1854 48.0959C31.4888 46.2233 31.4888 46.2233 31.5 44.3334C31.1364 43.8741 30.8547 43.5941 30.3333 43.3334C30.3883 43.1684 30.4433 43.0034 30.5 42.8334Z" fill="black"/>
<path d="M81.3338 43.5C84.8538 43.5 88.3738 43.5 92.0004 43.5C91.8338 44.3333 91.8338 44.3333 91.574 44.5605C90.7042 45 90.7042 45 90.3338 45C89.8631 46.7059 89.5703 48.4313 89.2804 50.1745C89.2293 50.4786 89.1781 50.7827 89.1268 51.0868C89.0201 51.7204 88.914 52.3541 88.8083 52.9879C88.6733 53.7975 88.5373 54.6071 88.4009 55.4165C88.2954 56.043 88.1903 56.6696 88.0852 57.2962C88.0352 57.5947 87.9851 57.8931 87.9349 58.1916C87.8649 58.609 87.7952 59.0264 87.7256 59.4438C87.7052 59.5653 87.6848 59.6867 87.6637 59.8118C87.0937 62.8092 87.0937 62.8092 87.8338 65.6667C89.2414 67.3326 91.0665 67.8079 93.1671 68C96.189 68.1643 99.3285 67.7501 101.667 65.6667C103.493 63.7601 103.719 60.3482 104.129 57.8587C104.183 57.5334 104.238 57.2081 104.293 56.8828C104.407 56.2071 104.52 55.5313 104.631 54.8553C104.774 53.9915 104.92 53.1281 105.066 52.2648C105.179 51.5956 105.291 50.9263 105.402 50.2569C105.456 49.9384 105.509 49.6199 105.563 49.3014C105.638 48.8572 105.711 48.4127 105.784 47.9681C105.806 47.8386 105.828 47.7091 105.851 47.5758C105.983 46.7624 106.041 45.991 106 45.1667C105.761 44.8665 105.761 44.8665 105.417 44.7188C105.089 44.5501 105.089 44.5501 104.834 44.3333C104.834 44.0583 104.834 43.7833 104.834 43.5C108.189 43.5 111.544 43.5 115 43.5C114.667 44.5 114.667 44.5 114.36 44.6908C114.245 44.7275 114.13 44.7642 114.011 44.8021C113.601 44.9778 113.382 45.0765 113.168 45.4751C112.896 46.3903 112.695 47.2972 112.545 48.2402C112.521 48.3897 112.496 48.5393 112.47 48.6934C112.417 49.0157 112.365 49.3382 112.313 49.6607C112.229 50.1744 112.145 50.6878 112.06 51.2011C111.848 52.4772 111.64 53.7537 111.431 55.0303C111.255 56.1088 111.078 57.1871 110.899 58.2651C110.817 58.7651 110.736 59.2654 110.655 59.7657C109.986 63.8422 109.198 68.0721 105.834 70.8333C102.686 72.9421 98.9688 73.8487 95.2049 73.8672C95.0511 73.8681 94.8973 73.8691 94.7389 73.8701C94.4142 73.8716 94.0895 73.8727 93.7649 73.8734C93.2784 73.875 92.7922 73.8801 92.3058 73.8854C88.4672 73.9072 84.9799 73.3127 81.6984 71.1979C79.9187 69.4183 79.6228 67.3265 79.6204 64.9241C79.6407 63.0786 79.9228 61.3035 80.24 59.4896C80.2996 59.1344 80.3588 58.7792 80.4177 58.424C80.575 57.4808 80.7358 56.5382 80.898 55.5958C81.1819 53.9453 81.4627 52.2943 81.7418 50.643C81.8428 50.0501 81.9459 49.4577 82.0492 48.8652C82.1114 48.5013 82.1735 48.1374 82.2355 47.7734C82.2649 47.6082 82.2944 47.4429 82.3247 47.2727C82.4586 46.4756 82.5631 45.7934 82.3338 45C82.073 44.7428 82.073 44.7428 81.74 44.6042C81.551 44.5148 81.3619 44.4254 81.1671 44.3333C81.2221 44.0583 81.2771 43.7833 81.3338 43.5Z" fill="black"/>
<path d="M176 42.6667C176.33 42.6667 176.66 42.6667 177 42.6667C176.864 43.5321 176.727 44.3975 176.591 45.2628C176.545 45.5563 176.498 45.8498 176.452 46.1433C176.197 47.7634 175.941 49.3831 175.667 51.0001C175.337 51.0001 175.007 51.0001 174.667 51.0001C174.632 50.8145 174.598 50.6288 174.562 50.4376C174.403 49.8097 174.403 49.8097 173.923 49.6323C173.161 49.4614 172.439 49.4487 171.659 49.4469C171.41 49.4444 171.41 49.4444 171.156 49.4419C170.61 49.4367 170.063 49.4339 169.517 49.4311C169.137 49.428 168.757 49.4247 168.378 49.4213C167.38 49.4127 166.382 49.4061 165.384 49.3999C164.365 49.3933 163.346 49.3847 162.327 49.3764C160.329 49.3603 158.331 49.3462 156.333 49.3334C156.322 49.4593 156.311 49.5852 156.299 49.715C156.285 49.8801 156.27 50.0453 156.255 50.2154C156.24 50.3791 156.226 50.5429 156.211 50.7115C156.163 51.2029 156.095 51.6863 156.01 52.1726C155.981 52.3381 155.953 52.5037 155.923 52.6742C155.893 52.8402 155.864 53.0062 155.833 53.1772C155.789 53.4348 155.789 53.4348 155.743 53.6977C155.522 54.9559 155.522 54.9559 155.333 55.3334C156.775 55.3271 158.216 55.3172 159.658 55.3028C160.327 55.2962 160.997 55.2908 161.666 55.2882C162.312 55.2857 162.959 55.28 163.605 55.272C163.851 55.2696 164.097 55.2682 164.344 55.2681C164.689 55.2677 165.035 55.2632 165.38 55.2577C165.577 55.2563 165.773 55.2548 165.976 55.2532C166.605 55.1494 166.881 54.941 167.333 54.5001C167.552 54.1473 167.552 54.1473 167.667 53.8334C167.997 53.8334 168.327 53.8334 168.667 53.8334C168.302 56.5707 167.833 59.2844 167.333 62.0001C167.058 62.0001 166.783 62.0001 166.5 62.0001C166.458 61.9058 166.415 61.8114 166.372 61.7143C166.314 61.592 166.257 61.4698 166.198 61.3438C166.142 61.222 166.086 61.1002 166.028 60.9747C165.844 60.6117 165.844 60.6117 165.333 60.5001C164.983 60.4805 164.633 60.4706 164.282 60.4659C164.065 60.4625 163.848 60.4592 163.625 60.4558C163.388 60.453 163.151 60.4501 162.915 60.4473C162.672 60.4439 162.43 60.4404 162.188 60.4368C161.551 60.4277 160.914 60.4194 160.277 60.4114C159.627 60.403 158.977 60.3937 158.326 60.3845C157.051 60.3666 155.775 60.3497 154.5 60.3334C154.484 60.4795 154.467 60.6256 154.45 60.7761C154.204 62.8628 153.856 64.9298 153.5 67.0001C155.832 66.99 158.165 66.977 160.497 66.9608C161.58 66.9533 162.663 66.9468 163.747 66.9423C164.792 66.938 165.837 66.9313 166.881 66.9229C167.28 66.9201 167.679 66.9182 168.078 66.9171C168.636 66.9155 169.195 66.9109 169.753 66.9055C170.001 66.9058 170.001 66.9058 170.254 66.9062C171.377 66.8918 171.377 66.8918 172.333 66.3334C172.443 66.1581 172.553 65.9828 172.667 65.8022C172.832 65.5701 172.832 65.5701 173 65.3334C173.437 65.3041 173.437 65.3041 173.833 65.3334C173.748 66.9814 173.514 68.5841 173.236 70.2087C173.166 70.6202 173.097 71.032 173.028 71.4438C172.984 71.7063 172.94 71.9687 172.896 72.2312C172.875 72.3539 172.855 72.4767 172.834 72.6031C172.686 73.4614 172.686 73.4614 172.5 73.8334C172.225 73.8334 171.95 73.8334 171.667 73.8334C171.558 73.5404 171.449 73.2475 171.341 72.9545C171.107 72.5689 170.92 72.4969 170.5 72.3334C169.992 72.2816 169.992 72.2816 169.42 72.287C169.312 72.286 169.204 72.2851 169.092 72.2841C168.731 72.2812 168.369 72.2808 168.007 72.2803C167.747 72.2787 167.488 72.277 167.228 72.2752C166.524 72.2706 165.819 72.2681 165.115 72.266C164.379 72.2634 163.642 72.2589 162.906 72.2546C161.512 72.2468 160.118 72.2407 158.723 72.2352C157.136 72.2288 155.549 72.2206 153.962 72.2122C150.697 72.195 147.432 72.1801 144.167 72.1667C144.167 71.8917 144.167 71.6167 144.167 71.3334C144.302 71.2786 144.302 71.2786 144.441 71.2227C144.56 71.1699 144.679 71.117 144.802 71.0626C144.92 71.0123 145.038 70.962 145.159 70.9102C146.054 70.2701 146.13 69.1271 146.305 68.115C146.356 67.8048 146.356 67.8048 146.408 67.4884C146.446 67.2665 146.484 67.0447 146.522 66.8228C146.624 66.2225 146.725 65.6219 146.825 65.0212C146.93 64.3916 147.036 63.7622 147.143 63.1328C147.321 62.0761 147.499 61.0191 147.675 59.962C147.879 58.741 148.085 57.5204 148.291 56.2999C148.49 55.1241 148.688 53.9482 148.886 52.7721C148.97 52.2724 149.054 51.7727 149.139 51.273C149.238 50.6844 149.337 50.0956 149.434 49.5067C149.488 49.1883 149.542 48.8701 149.595 48.5518C149.627 48.3612 149.659 48.1705 149.691 47.9741C149.719 47.8092 149.746 47.6443 149.775 47.4743C149.836 46.9735 149.863 46.504 149.833 46.0001C149.461 45.5254 149.242 45.3584 148.667 45.1667C148.659 44.8891 148.66 44.6111 148.667 44.3334C148.968 44.0323 149.429 44.1453 149.835 44.1449C150.161 44.1439 150.161 44.1439 150.495 44.1428C150.738 44.1429 150.982 44.143 151.226 44.1431C151.48 44.1426 151.735 44.142 151.99 44.1414C152.54 44.14 153.09 44.1392 153.64 44.1386C154.51 44.1377 155.38 44.1349 156.25 44.1317C156.547 44.1307 156.845 44.1296 157.142 44.1286C157.291 44.1281 157.44 44.1275 157.594 44.127C159.62 44.12 161.645 44.1145 163.671 44.1124C165.036 44.111 166.401 44.1073 167.767 44.1009C168.489 44.0976 169.212 44.0955 169.935 44.0963C170.615 44.0971 171.295 44.0948 171.976 44.0902C172.225 44.089 172.475 44.089 172.724 44.0902C173.065 44.0917 173.406 44.0887 173.747 44.0855C173.938 44.0851 174.129 44.0847 174.325 44.0843C174.945 43.9816 175.22 43.7664 175.667 43.3334C175.885 42.9806 175.885 42.9806 176 42.6667Z" fill="black"/>
<path d="M63.1664 42.5C67.933 42.3805 72.983 42.4871 76.7661 45.7702C78.9268 47.9099 79.8245 50.9697 79.8734 53.9515C79.8893 58.6977 78.7695 63.7786 75.6664 67.5C75.5313 67.6641 75.3962 67.8283 75.2569 67.9974C72.5125 71.2162 68.6113 72.9652 64.4496 73.4551C62.5327 73.5957 60.5866 73.5242 58.6664 73.5C58.6664 73.17 58.6664 72.84 58.6664 72.5C58.4293 72.4381 58.4293 72.4381 58.1873 72.375C57.6664 72.1667 57.6664 72.1667 57.4646 71.8789C57.2997 71.4038 57.3247 71.0622 57.3748 70.5625C57.3894 70.4022 57.404 70.2419 57.4191 70.0768C57.5247 69.322 57.6769 68.5791 57.8331 67.8333C57.9311 67.83 58.0291 67.8267 58.13 67.8233C63.8485 67.656 63.8485 67.656 68.7185 64.875C71.2176 62.1689 72.177 58.4895 72.0577 54.8789C71.9481 53.1184 71.3146 51.4434 70.031 50.2096C68.0083 48.5703 65.4555 48.4609 62.9581 48.3958C62.6497 48.3862 62.6497 48.3862 62.3351 48.3763C61.8344 48.3608 61.3338 48.3465 60.8331 48.3333C60.8579 47.9895 60.8832 47.6458 60.9086 47.3021C60.9227 47.1107 60.9367 46.9192 60.9511 46.722C61.0374 45.7369 61.1056 44.9618 61.7185 44.1667C62.1706 43.8302 62.4443 43.7143 62.9998 43.6667C63.0548 43.2817 63.1098 42.8967 63.1664 42.5Z" fill="black"/>
<path d="M47.6665 42.4999C49.5915 42.4999 51.5165 42.4999 53.4999 42.4999C53.4999 42.8849 53.4999 43.2699 53.4999 43.6665C53.6271 43.6769 53.7542 43.6872 53.8853 43.6978C54.3332 43.8332 54.3332 43.8332 54.6178 44.1738C54.901 44.8216 54.8271 45.3409 54.7268 46.0195C54.7097 46.1511 54.6926 46.2826 54.6749 46.4182C54.6198 46.8348 54.5602 47.2506 54.4999 47.6665C54.4637 47.9258 54.4276 48.1851 54.3916 48.4444C54.2782 49.248 54.1572 50.0504 54.0357 50.8527C53.9917 51.1458 53.9477 51.4388 53.9038 51.7319C53.8127 52.3389 53.7212 52.9459 53.6294 53.5529C53.5118 54.3302 53.3951 55.1077 53.2786 55.8852C53.1883 56.4872 53.0978 57.0891 53.0071 57.691C52.9639 57.9779 52.9207 58.2649 52.8777 58.5518C52.8178 58.9505 52.7575 59.3492 52.6971 59.7478C52.6795 59.8654 52.6619 59.983 52.6438 60.1041C52.5633 60.6323 52.4766 61.1514 52.3332 61.6665C51.7665 61.4776 51.6868 61.3613 51.3501 60.8905C51.2574 60.7627 51.1647 60.6349 51.0692 60.5032C50.9707 60.3646 50.8722 60.226 50.7707 60.0832C50.1565 59.2235 49.5452 58.3728 48.8586 57.5689C48.758 57.4483 48.6574 57.3276 48.5538 57.2033C48.364 56.9774 48.1698 56.7551 47.9707 56.5373C47.5608 56.0404 47.3378 55.6841 47.3215 55.0274C47.4432 53.7721 47.6098 52.534 47.8254 51.2915C47.888 50.915 47.9505 50.5385 48.0129 50.162C48.1107 49.5773 48.2094 48.9928 48.3104 48.4086C48.4085 47.8388 48.5026 47.2684 48.5962 46.6978C48.6274 46.523 48.6587 46.3481 48.6908 46.168C48.8517 45.2265 48.8517 45.2265 48.626 44.3189C48.2873 43.9498 47.9441 43.728 47.4999 43.4999C47.5549 43.1699 47.6099 42.8399 47.6665 42.4999Z" fill="black"/>
<path d="M45.4998 65.8333C46.3909 66.7113 46.3909 66.7113 46.7686 67.1939C46.8419 67.2872 46.9152 67.3804 46.9907 67.4765C47.1035 67.6221 47.1035 67.6221 47.2185 67.7708C47.2975 67.8726 47.3766 67.9744 47.458 68.0793C47.6182 68.2866 47.7781 68.4941 47.9375 68.7019C48.149 68.9772 48.3624 69.251 48.5759 69.5247C48.6952 69.6815 48.8144 69.8383 48.9373 69.9999C49.0425 70.1374 49.1478 70.2749 49.2563 70.4166C49.5376 70.898 49.6232 71.2796 49.6664 71.8333C49.4002 72.2622 49.208 72.3226 48.7185 72.4478C48.5913 72.465 48.4641 72.4822 48.3331 72.4999C48.3331 72.8299 48.3331 73.1599 48.3331 73.4999C46.4081 73.4999 44.4831 73.4999 42.4998 73.4999C42.8331 72.4999 42.8331 72.4999 43.1397 72.2974C43.3723 72.2173 43.6049 72.1375 43.8376 72.0579C44.5053 71.6017 44.6233 70.8692 44.7832 70.1185C44.9017 69.4726 45.01 68.8254 45.1143 68.177C45.1521 67.9494 45.1899 67.7219 45.2279 67.4944C45.3199 66.9409 45.4104 66.3872 45.4998 65.8333Z" fill="black"/>
<path d="M180 39.3335C180.489 39.6329 180.745 39.8241 181 40.3335C181.085 41.1239 181.111 41.7867 180.74 42.5001C180.216 42.9297 179.837 43.0646 179.167 43.1668C178.497 43.0646 178.117 42.9297 177.594 42.5001C177.218 41.778 177.2 41.1317 177.333 40.3335C178.007 39.233 178.786 39.1903 180 39.3335ZM178 40.3335C177.763 40.8069 177.781 41.1426 177.833 41.6668C178.053 41.8868 178.273 42.1068 178.5 42.3335C178.555 41.6185 178.61 40.9035 178.667 40.1668C179.052 40.2218 179.437 40.2768 179.833 40.3335C179.83 40.5088 179.826 40.6841 179.823 40.8647C179.832 41.388 179.878 41.8283 180 42.3335C180.278 42.1683 180.278 42.1683 180.5 41.8335C180.641 40.978 180.641 40.978 180.299 40.228C179.399 39.4303 178.834 39.5673 178 40.3335ZM179 40.5001C179 40.6651 179 40.8301 179 41.0001C179.165 40.9451 179.33 40.8901 179.5 40.8335C179.445 40.7235 179.39 40.6135 179.333 40.5001C179.223 40.5001 179.113 40.5001 179 40.5001ZM179 41.5001C179 41.7751 179 42.0501 179 42.3335C178.835 42.3885 178.67 42.4435 178.5 42.5001C178.983 42.6131 178.983 42.6131 179.5 42.6668C179.61 42.5568 179.72 42.4468 179.833 42.3335C179.723 42.3335 179.613 42.3335 179.5 42.3335C179.445 42.0585 179.39 41.7835 179.333 41.5001C179.223 41.5001 179.113 41.5001 179 41.5001Z" fill="black"/>
</g>
<defs>
<filter id="filter0_d_2805_7275" x="0" y="0" width="208" height="114" filterUnits="userSpaceOnUse" color-interpolation-filters="sRGB">
<feFlood flood-opacity="0" result="BackgroundImageFix"/>
<feColorMatrix in="SourceAlpha" type="matrix" values="0 0 0 0 0 0 0 0 0 0 0 0 0 0 0 0 0 0 127 0" result="hardAlpha"/>
<feOffset/>
<feGaussianBlur stdDeviation="5"/>
<feComposite in2="hardAlpha" operator="out"/>
<feColorMatrix type="matrix" values="0 0 0 0 1 0 0 0 0 0.933333 0 0 0 0 0.8 0 0 0 0.4 0"/>
<feBlend mode="normal" in2="BackgroundImageFix" result="effect1_dropShadow_2805_7275"/>
<feBlend mode="normal" in="SourceGraphic" in2="effect1_dropShadow_2805_7275" result="shape"/>
</filter>
<clipPath id="clip0_2805_7275">
<rect width="155" height="53.3333" fill="white" transform="translate(26 30)"/>
</clipPath>
</defs>
</svg>
