<svg width="92" height="79" viewBox="0 0 92 79" fill="none" xmlns="http://www.w3.org/2000/svg">
<path d="M54.3195 39.9213C50.3256 36.3096 45.5506 33.7789 40.4166 32.488C45.9115 29.607 49.6694 23.8463 49.6694 17.2236C49.6694 7.72657 41.943 0 32.4458 0C22.9486 0 15.2222 7.72639 15.2222 17.2236C15.2222 23.8463 18.9799 29.6068 24.4747 32.4878C19.3406 33.7787 14.5654 36.3094 10.5713 39.9213C4.61127 45.3114 0.859824 52.6615 0.00839379 60.6178C-0.0361567 61.0333 0.0980471 61.4481 0.377316 61.7588C0.656586 62.0696 1.05478 62.2472 1.47267 62.2472H15.4301V75.4349C15.4301 77.3896 17.0204 78.98 18.9751 78.98H45.9157C47.8704 78.98 49.4606 77.3896 49.4606 75.4349V62.247H63.418C63.8359 62.247 64.2341 62.0696 64.5133 61.7586C64.7926 61.4479 64.9268 61.0331 64.8823 60.6175C64.031 52.6615 60.2797 45.3114 54.3195 39.9213ZM18.1679 17.2236C18.1679 9.35064 24.573 2.94549 32.446 2.94549C40.3189 2.94549 46.724 9.35046 46.724 17.2236C46.724 25.0941 40.3229 31.4976 32.4533 31.5015C32.4508 31.5015 32.4484 31.5015 32.4458 31.5015C32.4434 31.5015 32.441 31.5015 32.4386 31.5015C24.569 31.4974 18.1679 25.0941 18.1679 17.2236ZM46.5153 75.4349C46.5153 75.7656 46.2463 76.0345 45.9159 76.0345H18.9753C18.6447 76.0345 18.3757 75.7656 18.3757 75.4349V47.8948H25.7689V59.1048C25.7689 59.9181 26.4283 60.5775 27.2417 60.5775H37.6497C38.4631 60.5775 39.1225 59.9181 39.1225 59.1048V47.8948H46.5155V75.4349H46.5153ZM28.7144 47.8948H36.177V57.632H28.7144V47.8948ZM49.4608 59.3016V46.422C49.4608 45.6087 48.8014 44.9493 47.988 44.9493H16.903C16.0897 44.9493 15.4302 45.6087 15.4302 46.422V59.3017H3.15657C5.47706 45.0248 17.7848 34.4525 32.4346 34.447C32.4384 34.447 32.4421 34.4471 32.446 34.4471C32.4496 34.4471 32.4533 34.447 32.4572 34.447C47.1064 34.4525 59.4141 45.0246 61.7346 59.3016H49.4608ZM90.3666 17.2983L87.9407 16.3644C87.5714 15.0721 87.0561 13.8291 86.402 12.6529L87.4578 10.2755C87.7052 9.71883 87.5841 9.06714 87.1533 8.63636L83.5371 5.0204C83.1062 4.58944 82.4547 4.46849 81.898 4.71573L79.5197 5.77206C78.3437 5.11816 77.1009 4.60288 75.8095 4.23377L74.8754 1.80706C74.6567 1.23839 74.1103 0.863397 73.5009 0.863397H68.3872C67.7779 0.863397 67.2317 1.23858 67.0128 1.80706L66.0787 4.23377C64.7875 4.60288 63.5446 5.11816 62.3685 5.77206L59.9902 4.71592C59.4333 4.46849 58.7818 4.58963 58.351 5.0204L54.7349 8.63655C54.3041 9.06732 54.1829 9.71883 54.4304 10.2757L55.4865 12.6536C54.8324 13.8298 54.3172 15.0726 53.9482 16.3642L51.5217 17.2981C50.953 17.5168 50.578 18.0632 50.578 18.6726V23.7865C50.578 24.3958 50.9532 24.942 51.5217 25.1609L53.9477 26.0947C54.317 27.387 54.8322 28.63 55.4861 29.8062L54.4304 32.1835C54.1829 32.7402 54.3041 33.3919 54.7349 33.8227L58.351 37.4387C58.782 37.8694 59.4331 37.9906 59.9902 37.7433L62.3685 36.687C63.5446 37.3409 64.7873 37.8562 66.0787 38.2253L67.0128 40.652C67.2315 41.2207 67.7779 41.5957 68.3872 41.5957H73.5009C74.1103 41.5957 74.6565 41.2205 74.8754 40.652L75.8093 38.2258C77.1016 37.8565 78.3446 37.3413 79.5208 36.6872L81.898 37.743C82.4547 37.9904 83.1064 37.8693 83.5371 37.4385L87.1531 33.8223C87.5839 33.3916 87.705 32.74 87.4578 32.1832L86.4015 29.8049C87.0554 28.6287 87.5706 27.3861 87.9396 26.0947L90.3663 25.1606C90.9349 24.9419 91.3099 24.3955 91.3099 23.7861V18.6728C91.3103 18.0634 90.9351 17.5172 90.3666 17.2983ZM88.3648 22.7753L86.1776 23.6171C85.7244 23.7915 85.3864 24.1782 85.2739 24.6506C84.9132 26.1663 84.3149 27.6097 83.4952 28.9409C83.2406 29.3546 83.2062 29.8669 83.4031 30.3108L84.3553 32.4547L82.1693 34.6408L80.0265 33.689C79.5823 33.4917 79.0699 33.5261 78.6563 33.7811C77.3257 34.6005 75.882 35.1992 74.3649 35.5602C73.8925 35.6726 73.5057 36.0106 73.3314 36.4639L72.4897 38.6504H69.3984L68.5566 36.4631C68.3822 36.0099 67.9956 35.6719 67.5231 35.5594C66.0072 35.1988 64.5638 34.6003 63.2328 33.7807C62.8191 33.5261 62.307 33.4919 61.8629 33.6889L59.719 34.641L57.5329 32.4549L58.4847 30.3119C58.6818 29.868 58.6474 29.3555 58.3928 28.9418C57.5732 27.6112 56.9747 26.1674 56.6137 24.6503C56.5012 24.1779 56.1632 23.7911 55.71 23.6168L53.5235 22.7751V19.6838L55.7104 18.8419C56.1636 18.6676 56.5016 18.2808 56.6141 17.8084C56.9747 16.2924 57.5732 14.8488 58.393 13.518C58.6476 13.1043 58.682 12.5918 58.4848 12.1479L57.5329 10.0042L59.719 7.81807L61.8629 8.7702C62.3066 8.96736 62.8193 8.93294 63.2328 8.67834C64.564 7.85857 66.0076 7.26008 67.5233 6.89944C67.9956 6.78696 68.3824 6.44897 68.5568 5.99573L69.3986 3.80852H72.4899L73.3318 5.99573C73.5061 6.44897 73.8927 6.78696 74.3653 6.89944C75.8811 7.26008 77.3246 7.85857 78.6556 8.67815C79.0692 8.93275 79.5817 8.96699 80.0256 8.7702L82.1695 7.81807L84.3556 10.004L83.4039 12.147C83.2067 12.5909 83.2411 13.1036 83.4959 13.517C84.3155 14.8475 84.914 16.2913 85.275 17.8084C85.3875 18.2808 85.7255 18.6676 86.1787 18.8419L88.3648 19.6838V22.7753ZM70.9443 10.8385C65.2145 10.8385 60.5531 15.4999 60.5531 21.2296C60.5531 26.9593 65.2145 31.6206 70.9443 31.6206C76.674 31.6206 81.3354 26.9592 81.3354 21.2296C81.3354 15.4999 76.674 10.8385 70.9443 10.8385ZM70.9443 28.6753C66.8386 28.6753 63.4986 25.3353 63.4986 21.2298C63.4986 17.1242 66.8388 13.7842 70.9443 13.7842C75.0497 13.7842 78.3899 17.1243 78.3899 21.2298C78.3899 25.3353 75.0497 28.6753 70.9443 28.6753Z" fill="#FFBE2E"/>
</svg>
