<svg width="413" height="465" viewBox="0 0 413 465" fill="none" xmlns="http://www.w3.org/2000/svg">
<path opacity="0.2" d="M-24.9271 303.936C-27.0338 299.133 -27.4768 263.486 -26.5184 256.236C-26.3014 254.565 -24.8458 255.08 -24.6649 254.321C-22.8024 246.448 -22.6577 236.444 -20.6053 227.83C4.72009 121.467 108.797 48.5572 218.137 59.9068C264.258 64.6922 264.086 134.93 218.119 139.363C189.81 142.09 171.103 137.837 142.649 148.871C26.9261 193.79 23.4451 358.933 137.477 407.708C233.091 448.61 329.085 379.609 333.443 278.908C336.852 200.002 328.751 117.079 333.362 38.6523C336.364 -12.3983 407.403 -12.7594 413 36.8555V291.548C404.6 413.387 303.028 504.716 180.153 498.721C85.0271 494.08 0.443439 422.525 -20.7861 330.094C-22.1333 324.234 -23.4172 307.413 -24.9362 303.945L-24.9271 303.936Z" fill="#FFBE2E"/>
</svg>
