<svg width="96" height="96" viewBox="0 0 96 96" fill="none" xmlns="http://www.w3.org/2000/svg">
<mask id="mask0_5541_21456" style="mask-type:alpha" maskUnits="userSpaceOnUse" x="0" y="0" width="96" height="96">
<rect x="-1" y="1" width="94" height="94" rx="47" transform="matrix(-1 0 0 1 94 0)" fill="#FFBE2E" stroke="white" stroke-width="2"/>
</mask>
<g mask="url(#mask0_5541_21456)">
<rect x="15" y="33" width="29" height="37" rx="4" fill="white"/>
<path d="M49.751 64.5113C49.751 63.9144 49.2664 63.432 48.6667 63.432H47.0483V48.839C47.0483 48.2421 46.5637 47.7596 45.964 47.7596H33.313C32.7134 47.7596 32.2287 48.2421 32.2287 48.839V63.432H27.7653C27.0232 63.432 26.4207 62.8323 26.4207 62.0937V41.8726C26.8479 41.9598 27.2915 42.0061 27.7433 42.0061C30.0407 42.0061 32.0671 40.8286 33.2473 39.0515C34.4275 40.8314 36.4538 42.0061 38.7512 42.0061C41.0486 42.0061 43.075 40.8286 44.2552 39.0515C45.4354 40.8314 47.4617 42.0061 49.7592 42.0061C52.0566 42.0061 54.0829 40.8286 55.2631 39.0515C56.4433 40.8314 58.4696 42.0061 60.7671 42.0061C61.2189 42.0061 61.6625 41.9598 62.0897 41.8726V45.0861C62.0897 45.683 62.5743 46.1655 63.174 46.1655C63.7737 46.1655 64.2584 45.683 64.2584 45.0861V41.0058C66.1149 39.8447 67.3527 37.7895 67.3527 35.4483V33.9192C67.3527 33.7284 67.3034 33.5431 67.2076 33.3795L61.041 22.7498C60.4057 21.6542 59.2666 21 57.996 21H30.5091C29.2385 21 28.0994 21.6542 27.4641 22.7498L21.2975 33.3795C21.2016 33.5431 21.1523 33.7311 21.1523 33.9192V35.4483C21.1523 37.7869 22.39 39.8447 24.2466 41.0058V62.0942C24.2466 64.0239 25.8239 65.5939 27.7626 65.5939H48.6663C49.266 65.5939 49.7507 65.1115 49.7507 64.5145L49.751 64.5113ZM38.7461 39.8441C36.309 39.8441 34.3292 37.8708 34.3292 35.4477V35.0007H43.1653V35.4477C43.1653 37.8735 41.1828 39.8441 38.7484 39.8441H38.7461ZM43.1629 32.8393H34.6773L37.4375 23.1579H43.1605V32.8393H43.1629ZM45.3344 23.1579H51.0574L53.8176 32.8393H45.332V23.1579H45.3344ZM49.7512 39.8441C47.3142 39.8441 45.3344 37.8708 45.3344 35.4477V35.0007H54.1705V35.4477C54.1705 37.8735 52.188 39.8441 49.7536 39.8441H49.7512ZM60.7562 39.8441C58.3191 39.8441 56.3394 37.8708 56.3394 35.4477V35.0007H65.1755V35.4477C65.1755 37.8735 63.193 39.8441 60.7586 39.8441H60.7562ZM59.1543 23.8284L64.3817 32.8393H56.0762L53.316 23.1579H57.993C58.5023 23.1579 58.9049 23.3895 59.1568 23.8284L59.1543 23.8284ZM29.3457 23.8284C29.6004 23.3896 30.0029 23.1579 30.5095 23.1579H35.1865L32.4263 32.8393H24.1209L29.3483 23.8284L29.3457 23.8284ZM23.3243 35.0009H32.1604V35.4479C32.1604 37.8738 30.1779 39.8444 27.7435 39.8444C25.3064 39.8444 23.3267 37.8711 23.3267 35.4479V35.0009H23.3243ZM34.4008 49.9212H44.8828V63.4347H34.4008V49.9212ZM67.4767 60.532C69.2347 59.2074 70.3711 57.1087 70.3711 54.7509C70.3711 50.7551 67.1043 47.5033 63.0898 47.5033C59.0754 47.5033 55.8085 50.755 55.8085 54.7509C55.8085 57.1086 56.9449 59.2073 58.7029 60.532C53.0429 62.3745 48.9408 67.6785 48.9408 73.9206C48.9408 74.5175 49.4254 75 50.0251 75H76.1457C76.7454 75 77.2301 74.5176 77.2301 73.9206C77.2301 67.679 73.1282 62.3748 67.468 60.532H67.4767ZM57.9803 54.7509C57.9803 51.9463 60.2722 49.6649 63.0899 49.6649C65.9077 49.6649 68.1996 51.9462 68.1996 54.7509C68.1996 57.5556 65.9077 59.837 63.0899 59.837C60.2722 59.837 57.9803 57.5556 57.9803 54.7509ZM51.1647 72.8383C51.7151 66.7683 56.8548 61.9986 63.0929 61.9986C69.3309 61.9986 74.4701 66.7711 75.0211 72.8383H51.1647Z" fill="black"/>
</g>
</svg>
