<svg width="183" height="185" viewBox="0 0 183 185" fill="none" xmlns="http://www.w3.org/2000/svg">
<path d="M142.123 139.017V37.6554C142.123 31.1306 138.642 25.1015 132.992 21.8391L96.8349 1.45822C93.6624 -0.373382 90.1034 -0.193015 87.2903 1.34349C87.1281 1.43208 86.9681 1.52461 86.811 1.62213L79.5312 5.85353L82.2091 10.1403V110.941C82.2091 117.387 85.6074 123.356 91.1507 126.646L126.957 147.151L128.741 152.346L137.054 147.57C139.997 145.957 142.123 142.859 142.123 139.017Z" fill="#3C2C0B"/>
<path d="M128.661 152.553L126.839 147.247L91.0782 126.768C88.3354 125.14 86.053 122.816 84.4761 120.046C82.8991 117.277 82.0656 114.128 82.0656 110.941V10.1805L79.332 5.8046L86.7377 1.50004C86.8876 1.40694 87.0466 1.31441 87.2204 1.21962C90.2711 -0.446667 93.8906 -0.403315 96.903 1.33594L133.059 21.7162C138.736 24.9938 142.262 31.1011 142.262 37.6553V139.017C142.262 142.686 140.339 145.929 137.119 147.693L128.661 152.553ZM79.7257 5.90212L82.3478 10.0998V110.941C82.3478 117.305 85.7475 123.276 91.2204 126.525L127.071 147.055L128.817 152.138L136.981 147.447C140.112 145.732 141.98 142.581 141.98 139.017V37.6552C141.98 31.2014 138.508 25.1879 132.919 21.961L96.7633 1.58082C93.8356 -0.109347 90.3193 -0.151664 87.3557 1.46703C87.1866 1.55938 87.032 1.64928 86.8831 1.74172L79.7257 5.90212Z" fill="#212121"/>
<path d="M73.7461 14.7622V115.801C73.7461 122.247 77.1444 128.216 82.6877 131.506L118.933 152.262C125.433 156.12 133.66 151.435 133.66 143.877V42.5151C133.66 35.9903 130.179 29.9612 124.529 26.6988L88.3718 6.3179C81.8716 2.56498 73.7461 7.25623 73.7461 14.7622Z" fill="#EBE9EC"/>
<path d="M123.904 153.785C122.167 153.785 120.432 153.317 118.858 152.382L82.6142 131.627C79.8714 129.999 77.589 127.675 76.0122 124.905C74.435 122.135 73.6016 118.987 73.6016 115.799V14.7609C73.6016 11.1849 75.4505 7.98251 78.5475 6.19445C81.6444 4.40657 85.3421 4.40648 88.439 6.19454L124.595 26.5746C130.272 29.8525 133.798 35.9597 133.798 42.5138V143.876C133.798 147.477 131.93 150.69 128.8 152.472C127.263 153.348 125.583 153.785 123.904 153.785ZM83.4928 5.13613C81.8424 5.13613 80.1928 5.57021 78.6885 6.43886C75.6799 8.17586 73.8837 11.2869 73.8837 14.7609V115.799C73.8837 122.164 77.2834 128.135 82.7563 131.383L119 152.138C120.531 153.047 122.217 153.502 123.905 153.502C125.536 153.502 127.167 153.077 128.661 152.227C131.701 150.496 133.516 147.374 133.516 143.876V42.5138C133.516 36.0601 130.044 30.0465 124.455 26.8196L88.2992 6.43951C86.7942 5.57068 85.1432 5.13613 83.4928 5.13613Z" fill="#212121"/>
<path d="M123.892 152.231C122.402 152.231 120.975 151.833 119.653 151.048L83.3985 130.286C80.8926 128.797 78.8059 126.671 77.3635 124.137C75.9196 121.601 75.1562 118.718 75.1562 115.799V14.7608C75.1562 12.4613 76.0576 10.3308 77.6944 8.76203C79.2563 7.26492 81.3764 6.40625 83.5111 6.40625C84.9673 6.40625 86.3654 6.78711 87.6662 7.53811L123.828 27.9221C129.023 30.9236 132.249 36.5144 132.249 42.5137V143.876C132.249 146.177 131.347 148.309 129.709 149.877C128.147 151.373 126.027 152.231 123.892 152.231L123.892 152.231Z" fill="#FFF7E4"/>
<path d="M123.893 152.373H123.893C122.376 152.373 120.926 151.968 119.581 151.17L83.3288 130.41C80.8 128.907 78.6958 126.763 77.2413 124.209C75.7853 121.651 75.0156 118.744 75.0156 115.801V14.7622C75.0156 12.4238 75.9324 10.2573 77.5972 8.66159C79.1851 7.13947 81.3409 6.2666 83.5115 6.2666C84.9928 6.2666 86.4145 6.65376 87.7372 7.41736L123.898 27.8006C129.137 30.8281 132.391 36.4661 132.391 42.5151V143.877C132.391 146.218 131.473 148.385 129.807 149.98C128.219 151.501 126.063 152.373 123.893 152.373ZM83.5115 6.54872C81.4129 6.54872 79.3285 7.3931 77.7925 8.86528C76.1838 10.4072 75.2978 12.5014 75.2978 14.7622V115.801C75.2978 118.695 76.0548 121.554 77.4866 124.069C78.9168 126.581 80.9862 128.69 83.4711 130.166L119.723 150.927C121.026 151.7 122.428 152.091 123.893 152.091C125.991 152.091 128.076 151.248 129.612 149.777C131.222 148.235 132.109 146.14 132.109 143.877V42.5151C132.109 36.5665 128.909 31.0222 123.758 28.0456L87.5974 7.66243C86.3169 6.92318 84.9427 6.54872 83.5115 6.54872Z" fill="#212121"/>
<path d="M142.138 43.4431L133.594 48.3774L133.735 48.6218L142.279 43.6874L142.138 43.4431Z" fill="#212121"/>
<path d="M127.568 18.6399L119.023 23.5742L119.165 23.8185L127.709 18.8842L127.568 18.6399Z" fill="#212121"/>
<path d="M98.1288 2.11051L89.7109 6.97168L89.852 7.21599L98.2699 2.35483L98.1288 2.11051Z" fill="#212121"/>
<path d="M142.142 133.721L133.598 138.656L133.739 138.9L142.283 133.966L142.142 133.721Z" fill="#212121"/>
<path d="M138.635 75.354C138.649 75.2746 138.657 75.1934 138.657 75.1111V65.5743L139.256 63.9297L138.402 63.5722C138.175 63.5095 137.942 63.393 137.705 63.5274L136.978 63.9394C136.538 64.1887 136.266 64.6556 136.266 65.1614V76.2059C136.266 76.4513 136.398 76.6504 136.584 76.7579C136.586 76.7588 136.587 76.7598 136.589 76.7608L137.494 77.4504L138.781 76.595L138.635 75.354Z" fill="#978050"/>
<path d="M138.646 64.0921L137.919 64.5041C137.479 64.7535 137.207 65.2203 137.207 65.7262V76.7708C137.207 77.2641 137.743 77.5708 138.168 77.3206L138.906 76.8868C139.335 76.6345 139.599 76.1738 139.599 75.6761V64.6471C139.599 64.1583 139.071 63.8512 138.646 64.0921Z" fill="#FFF7E4"/>
<path d="M137.846 77.5508C137.713 77.5508 137.58 77.5161 137.459 77.4467C137.213 77.3062 137.066 77.0534 137.066 76.7706V65.7259C137.066 65.1704 137.367 64.6551 137.85 64.3812L138.577 63.9692C138.821 63.8309 139.111 63.8326 139.353 63.9739C139.595 64.115 139.74 64.3666 139.74 64.6469V75.6758C139.74 76.2213 139.448 76.7317 138.978 77.0081L138.24 77.4419C138.117 77.5145 137.981 77.5508 137.846 77.5508ZM138.716 64.2146L137.989 64.6266C137.594 64.8506 137.349 65.2718 137.349 65.7259V76.7705C137.349 76.9509 137.442 77.1122 137.599 77.2018C137.755 77.2914 137.942 77.2903 138.097 77.1988L138.835 76.765C139.219 76.5391 139.458 76.1217 139.458 75.6758V64.6469C139.458 64.4681 139.366 64.3076 139.211 64.2176C139.057 64.1275 138.872 64.1264 138.716 64.2146Z" fill="#212121"/>
<path d="M55.5469 49.4598L57.9698 48.154L57.9799 48.1671C58.4671 47.8115 59.145 47.7246 59.7422 48.0694L100.188 71.4205C101.773 72.336 102.75 74.0281 102.75 75.8593V102.039C102.75 102.751 102.309 103.308 101.731 103.54L101.734 103.55L99.2807 104.866L55.5469 49.4598Z" fill="#3C2C0B"/>
<path d="M99.2788 104.866L101.732 103.549L101.729 103.539C102.307 103.308 102.749 102.751 102.749 102.039V75.859C102.749 75.1842 102.615 74.5285 102.369 73.9233L82.4258 81.4548L99.2788 104.866Z" fill="#3C2C0B"/>
<path d="M99.2432 105.047L99.17 104.954L55.332 49.4158L58.0075 47.9739L58.01 47.9771C58.5636 47.6326 59.2425 47.6185 59.8127 47.9477L100.258 71.2988C101.882 72.2365 102.891 73.9842 102.891 75.8597V102.04C102.891 102.719 102.505 103.327 101.898 103.62L101.898 103.622L99.2432 105.047ZM55.7616 49.5048L99.3182 104.687L101.569 103.479L101.563 103.456L101.678 103.409C102.244 103.183 102.609 102.645 102.609 102.04V75.8598C102.609 74.0847 101.654 72.4306 100.117 71.5432L59.6717 48.192C59.1599 47.8964 58.5435 47.931 58.0631 48.2815L57.9528 48.3619L57.9318 48.3351L55.7616 49.5048Z" fill="#231F20"/>
<path d="M97.3299 72.9563L56.8845 49.6052C55.8011 48.9797 54.4485 49.7697 54.461 51.0206L54.5759 77.1246C54.5941 78.9312 55.562 80.595 57.1238 81.5035L97.4645 104.972C98.5416 105.598 99.8925 104.821 99.8925 103.575V77.3951C99.8926 75.5639 98.9157 73.8718 97.3299 72.9563Z" fill="#FFF7E4"/>
<path d="M98.2772 105.335C97.9736 105.335 97.6703 105.254 97.3939 105.094L57.0534 81.6256C55.457 80.697 54.4538 78.9729 54.4353 77.1261L54.3204 51.0214C54.314 50.3835 54.6395 49.8098 55.191 49.4876C55.7423 49.1653 56.402 49.1635 56.9555 49.4831L97.4008 72.8342C99.025 73.772 100.034 75.5197 100.034 77.3953V103.575C100.034 104.212 99.7047 104.781 99.1532 105.098C98.8787 105.256 98.5779 105.335 98.2772 105.335ZM56.0771 49.5274C55.8215 49.5274 55.566 49.5954 55.3333 49.7313C54.8703 50.0017 54.5972 50.4833 54.6025 51.0194L54.7174 77.1241C54.735 78.8711 55.6844 80.5029 57.1952 81.3817L97.5358 104.85C97.9976 105.118 98.5497 105.12 99.0126 104.854C99.4756 104.587 99.7519 104.109 99.7519 103.575V77.3953C99.7519 75.6202 98.797 73.966 97.2597 73.0786L56.8144 49.7274C56.5834 49.5941 56.3301 49.5274 56.0771 49.5274Z" fill="#231F20"/>
<path d="M72.0042 71.3974L71.7651 68.8246C71.3932 66.8899 70.1992 65.2123 68.4931 64.2274L67.4672 63.6229L67.4109 63.6848C67.414 65.0114 66.4781 65.5548 65.3307 64.8925C64.2489 64.268 63.3536 62.7871 63.255 61.5093C63.2458 61.3899 63.17 61.2834 63.0546 61.2508C61.4497 60.7986 59.685 61.2697 58.5238 62.5512L57.2089 64.0021C56.9428 64.2958 57.0135 64.7599 57.355 64.961L59.5534 66.2549L60.3422 65.794L60.676 71.1238L60.4302 76.0725C60.4053 76.5304 60.6352 76.9648 61.028 77.2016L67.5591 80.7147C67.9552 80.9537 68.4583 80.6565 68.4402 80.1941L68.2092 74.2622L68.4821 69.6314L68.9942 70.8858L71.0866 72.0065C71.5257 72.2418 72.0503 71.8936 72.0042 71.3974Z" fill="#FFBE2E"/>
<path d="M67.8598 80.9415C67.7315 80.9415 67.6033 80.9064 67.4868 80.836L60.9618 77.3265C60.5173 77.0586 60.2622 76.5766 60.29 76.0653L60.5353 71.1253L60.2163 66.0318L59.5537 66.419L57.284 65.0831C57.0845 64.9657 56.95 64.7672 56.9151 64.5383C56.8802 64.3093 56.9493 64.0796 57.1049 63.908L58.4197 62.4571C59.6036 61.1509 61.3942 60.6367 63.0933 61.1156C63.2601 61.1626 63.3818 61.3167 63.396 61.4989C63.4918 62.7397 64.3728 64.177 65.4017 64.7708C65.9104 65.0646 66.3827 65.1152 66.731 64.9136C67.0802 64.7114 67.2718 64.2753 67.2703 63.6856L67.2702 63.6307L67.4407 63.4438L68.5653 64.1064C70.3069 65.1119 71.5242 66.8224 71.904 68.7986L71.906 68.8123L72.1452 71.3851C72.1717 71.6707 72.0449 71.9359 71.8059 72.0945C71.5669 72.2532 71.2732 72.2671 71.0204 72.1316L68.8832 70.9868L68.5869 70.2607L68.3509 74.2642L68.5816 80.1892C68.5921 80.459 68.4596 80.7021 68.2272 80.8395C68.1121 80.9075 67.9859 80.9415 67.8598 80.9415ZM60.4693 65.5571L60.8179 71.1234L60.8175 71.1313L60.5718 76.0799C60.5496 76.4875 60.7526 76.8709 61.1016 77.0813L67.6266 80.5909C67.7735 80.6793 67.9423 80.6799 68.0838 80.5964C68.2255 80.5126 68.3063 80.3645 68.2999 80.2L68.0686 74.2613L68.069 74.2544L68.3786 69.0032L69.1062 70.7859L71.1537 71.8826C71.3136 71.9683 71.4991 71.9595 71.65 71.8592C71.8011 71.7591 71.8812 71.5914 71.8645 71.4109L71.626 68.845C71.26 66.9521 70.093 65.314 68.4233 64.3499L67.5489 63.8349C67.5177 64.455 67.2803 64.9215 66.8725 65.1575C66.4329 65.412 65.8605 65.3613 65.2607 65.015C64.1413 64.3688 63.2188 62.8664 63.1149 61.5205C63.1099 61.4558 63.0705 61.4021 63.0169 61.3869C61.4216 60.9375 59.7401 61.42 58.6289 62.6463L57.314 64.0972C57.2158 64.2057 57.172 64.3508 57.1941 64.4956C57.2161 64.6401 57.3011 64.7656 57.4273 64.8398L59.5543 66.0918L60.4693 65.5571Z" fill="#231F20"/>
<path d="M78.6742 70.1096L95.8899 80.0491C96.1513 80.2 96.3123 80.4789 96.3123 80.7807V83.0116C96.3123 83.7828 95.4737 84.2616 94.8096 83.8697L77.5952 73.7119C77.3377 73.56 77.1797 73.2833 77.1797 72.9843V70.9726C77.1796 70.2055 78.01 69.7261 78.6742 70.1096Z" fill="#3C2C0B"/>
<path d="M78.6742 77.1272L86.0251 81.2457C86.2866 81.3966 86.4475 81.6755 86.4475 81.9774V84.2083C86.4475 84.9795 85.609 85.4584 84.9449 85.0664L77.5952 80.7295C77.3377 80.5775 77.1797 80.3009 77.1797 80.0019V77.9901C77.1796 77.2231 78.01 76.7437 78.6742 77.1272Z" fill="#3C2C0B"/>
<path d="M149.12 77.3642L116.8 58.7632C115.213 57.8498 113.413 58.0521 112.095 58.965L109.047 60.7359L110.35 61.4482C110.258 61.8045 110.206 62.1812 110.206 62.576L109.881 91.9801L117.389 88.7627L146.669 105.989L147.378 108.704L150.692 106.794L150.692 106.793C151.496 106.344 152.075 105.494 152.075 104.442V82.4755C152.075 80.3657 150.948 78.4166 149.12 77.3642Z" fill="#3C2C0B"/>
<path d="M146.668 105.989L147.377 108.704L150.691 106.794L150.691 106.792C151.495 106.344 152.074 105.494 152.074 104.442V82.4753C152.074 81.5527 151.859 80.6609 151.463 79.8613L126.629 94.1993L146.668 105.989Z" fill="#3C2C0B"/>
<path d="M147.286 108.919L146.546 106.081L117.086 89.1148L109.442 92.3907L109.446 92.1719L110.063 62.5731C110.063 62.2204 110.104 61.866 110.186 61.5198L108.758 60.7397L112.018 58.8457C113.477 57.8372 115.335 57.7586 116.868 58.6408L149.188 77.242C151.055 78.3163 152.215 80.3216 152.215 82.4754V104.442C152.215 105.452 151.702 106.353 150.838 106.87V106.87L150.761 106.916L147.286 108.919ZM117.104 88.8001L117.165 88.8353L146.789 105.896L147.466 108.49L150.542 106.716L150.542 106.715L150.622 106.67C151.442 106.212 151.932 105.379 151.932 104.442V82.4755C151.932 80.4223 150.827 78.5107 149.047 77.4865L116.727 58.8854C115.289 58.0574 113.544 58.1323 112.174 59.0809L112.164 59.087L109.332 60.7323L110.513 61.3772L110.485 61.4837C110.392 61.8405 110.345 62.208 110.345 62.5761L109.733 91.9591L117.104 88.8001Z" fill="#231F20"/>
<path d="M112.984 60.963L145.304 79.5641C147.133 80.6165 148.26 82.5656 148.26 84.6753V106.642C148.26 108.714 146.018 110.01 144.223 108.976L115.648 92.5307C114.546 91.8967 113.211 91.8183 112.042 92.319L107.809 94.1331C107.138 94.4209 106.391 93.9282 106.391 93.1976V64.7759C106.391 61.392 110.051 59.2751 112.984 60.963Z" fill="#FFF7E4"/>
<path d="M145.563 109.482C145.077 109.482 144.592 109.354 144.149 109.099L115.556 92.6437C114.51 92.0415 113.223 91.966 112.113 92.4415L107.861 94.2636C107.503 94.4176 107.093 94.381 106.767 94.1659C106.441 93.9508 106.246 93.5892 106.246 93.1984V64.7769C106.246 63.1369 107.094 61.6675 108.514 60.8465C109.933 60.0254 111.63 60.0238 113.051 60.8419L145.371 79.4429C147.238 80.5171 148.397 82.5225 148.397 84.6764V106.643C148.397 107.667 147.868 108.584 146.982 109.097C146.538 109.353 146.05 109.482 145.563 109.482ZM113.63 91.8496C114.347 91.8496 115.063 92.0344 115.697 92.3992L144.29 108.855C145.088 109.315 146.042 109.314 146.84 108.852C147.639 108.391 148.115 107.565 148.115 106.643V84.6763C148.115 82.6231 147.01 80.7113 145.23 79.6872L112.91 61.0862C111.577 60.3189 109.986 60.3206 108.655 61.0905C107.323 61.8605 106.528 63.2386 106.528 64.7767V93.1982C106.528 93.4939 106.675 93.7676 106.922 93.9302C107.169 94.0929 107.479 94.1206 107.75 94.0041L112.002 92.182C112.521 91.9597 113.076 91.8496 113.63 91.8496Z" fill="#231F20"/>
<path d="M111.258 71.0056L113.507 69.7746C114.872 68.8331 116.833 68.8759 119.003 70.129C123.101 72.4947 126.463 78.3182 126.475 83.0701C126.481 85.7127 125.446 87.4859 123.82 88.133L121.541 89.3896L120.872 88.1935C120.281 88.0277 119.662 87.764 119.024 87.3961C114.915 85.0235 111.553 79.1999 111.553 74.4547C111.553 73.5771 111.668 72.7959 111.881 72.1193L111.258 71.0056Z" fill="#3C2C0B"/>
<path d="M119.026 87.3959C119.664 87.7638 120.283 88.0275 120.874 88.1933L121.543 89.3894L123.822 88.1328C125.448 87.4857 126.483 85.7124 126.477 83.0699C126.471 80.5459 125.519 77.7195 124.014 75.2695L113.488 81.3465C114.858 83.8862 116.836 86.1313 119.026 87.3959Z" fill="#3C2C0B"/>
<path d="M121.487 89.5815L120.778 88.3138C120.183 88.1411 119.57 87.8738 118.955 87.5189C114.796 85.1179 111.413 79.2575 111.413 74.4554C111.413 73.6076 111.519 72.8277 111.729 72.1361L111.066 70.9509L113.434 69.6549C114.894 68.6523 116.95 68.7804 119.075 70.0076C123.222 72.4017 126.605 78.2616 126.617 83.0704C126.623 85.6708 125.627 87.5623 123.882 88.2614L121.487 89.5815ZM111.452 71.0615L112.035 72.1043L112.017 72.1623C111.803 72.8409 111.695 73.6124 111.695 74.4553C111.695 79.1676 115.015 84.9183 119.096 87.2745C119.71 87.6288 120.32 87.8925 120.911 88.0582L120.968 88.074L121.597 89.199L123.769 88.0025C125.406 87.3511 126.341 85.5537 126.335 83.071C126.323 78.3518 123.003 72.6011 118.934 70.2518C116.904 69.0798 114.955 68.9483 113.588 69.8912L113.576 69.8988L111.452 71.0615Z" fill="#231F20"/>
<path d="M116.498 71.5229C112.4 69.1569 109.047 71.1036 109.047 75.8486C109.047 80.5937 112.409 86.4173 116.518 88.79C120.628 91.1624 123.981 89.2159 123.969 84.464C123.957 79.7121 120.595 73.8886 116.498 71.5229Z" fill="#FFF7E4"/>
<path d="M119.832 89.9444C118.79 89.9444 117.638 89.5977 116.448 88.9109C112.29 86.5098 108.906 80.6494 108.906 75.8473C108.906 73.4953 109.711 71.7353 111.173 70.8915C112.629 70.051 114.545 70.2312 116.569 71.3995C120.716 73.7937 124.099 79.6537 124.111 84.4624C124.116 86.8154 123.316 88.5766 121.857 89.4215C121.253 89.7708 120.57 89.9444 119.832 89.9444ZM113.196 70.6524C112.508 70.6524 111.873 70.8127 111.314 71.1357C109.943 71.9271 109.188 73.6004 109.188 75.8473C109.188 80.5596 112.508 86.3103 116.589 88.6666C118.529 89.7865 120.35 89.968 121.715 89.1774C123.083 88.3852 123.834 86.7109 123.828 84.4631C123.817 79.7439 120.497 73.9932 116.427 71.6438C115.287 70.9853 114.187 70.6524 113.196 70.6524Z" fill="#231F20"/>
<path d="M116.249 75.7437L115.3 77.8446L112.687 76.4048C112.587 76.3496 112.476 76.4584 112.529 76.5595L114.26 79.8409L113.723 82.629C113.701 82.7461 113.79 82.8547 113.909 82.8547L116.096 82.6381L118.424 85.4737C118.497 85.5592 118.637 85.4987 118.625 85.3864L118.291 82.2807L120.45 81.0696C120.517 81.0318 120.518 80.9349 120.451 80.8963L117.653 79.2798L116.407 75.7504C116.382 75.6777 116.281 75.6734 116.249 75.7437Z" fill="#FFBE2E"/>
<path d="M118.511 85.6554C118.438 85.6554 118.367 85.6242 118.317 85.5662L116.035 82.7863L113.91 82.9962C113.81 82.9962 113.718 82.9524 113.654 82.8761C113.591 82.7996 113.566 82.7002 113.585 82.6029L114.113 79.8633L112.405 76.6259C112.352 76.5248 112.371 76.4033 112.452 76.3233C112.533 76.2432 112.656 76.2266 112.755 76.2818L115.234 77.6477L116.121 75.686C116.159 75.6013 116.244 75.5496 116.336 75.5529C116.429 75.5567 116.51 75.6161 116.541 75.7038L117.769 79.1841L120.522 80.7745C120.597 80.8178 120.643 80.8982 120.642 80.9845C120.642 81.0708 120.595 81.1507 120.519 81.1929L118.442 82.3586L118.765 85.3718C118.777 85.4838 118.716 85.5892 118.613 85.634C118.58 85.6484 118.545 85.6554 118.511 85.6554ZM116.157 82.4905L118.476 85.3147L118.141 82.2035L120.318 80.9824L117.538 79.3762L117.52 79.3272L116.321 75.9282L115.366 78.0422L112.695 76.5704L114.409 79.8194L113.862 82.6562C113.858 82.6758 113.867 82.6897 113.872 82.6964C113.877 82.7024 113.888 82.7123 113.905 82.714L116.157 82.4905Z" fill="#231F20"/>
<path d="M134.923 92.1757L133.787 91.5648L133.858 93.5734L131.75 92.4395L131.679 90.4309L127.638 88.2571L127.57 86.3234L130.769 81.6177L133.008 82.8219L130.111 87.2785L131.662 88.1127L131.599 86.3288L133.641 87.4274L133.704 89.2112L134.84 89.8222L134.923 92.1757Z" fill="#151617"/>
<path d="M135.517 92.9362C135.482 91.9169 136.004 91.5512 136.703 91.9271C137.413 92.3089 137.972 93.2564 138.007 94.2757C138.042 95.265 137.532 95.6817 136.822 95.2998C136.123 94.9239 135.552 93.9256 135.517 92.9362Z" fill="#151617"/>
<path d="M144.385 88.9431L144.45 90.8018L142.057 97.9849L139.698 96.7159L141.989 89.963L139.979 88.8819L140.036 90.5008L138.191 89.508L138.051 85.5356L144.385 88.9431Z" fill="#151617"/>
<path d="M127.72 104.092L113.052 95.8678C112.68 95.6528 112.266 95.6613 111.925 95.8216L111.925 95.8211L111.912 95.8286C111.874 95.8468 111.837 95.8664 111.802 95.8883L110.094 96.8173L110.667 99.5028L111.223 99.3667V109.357C111.223 110.129 111.634 110.842 112.302 111.228L116.077 113.334L117.847 117.888C118.018 118.513 118.428 118.658 119.006 118.364L121.457 116.487L124.682 118.327L124.519 118.486L126.393 120.614L128.143 119.658L128.143 119.658C128.523 119.46 128.8 119.068 128.8 118.578V105.963C128.8 105.191 128.389 104.478 127.72 104.092Z" fill="#3C2C0B"/>
<path d="M116.079 113.334L117.849 117.888C118.02 118.513 118.43 118.658 119.007 118.364L121.459 116.487L124.684 118.327L124.521 118.485L126.395 120.614L128.145 119.658L128.144 119.658C128.524 119.46 128.802 119.068 128.802 118.577V105.963C128.802 105.624 128.722 105.295 128.576 105.001L113.254 111.758L116.079 113.334Z" fill="#3C2C0B"/>
<path d="M126.362 120.792L124.324 118.478L124.449 118.357L121.468 116.656L119.069 118.49C118.729 118.663 118.436 118.697 118.197 118.592C117.969 118.491 117.806 118.269 117.713 117.932L115.963 113.433L112.233 111.351C111.522 110.94 111.081 110.177 111.081 109.358V99.5466L110.559 99.6744L109.934 96.7438L111.734 95.7645C111.764 95.7456 111.804 95.7238 111.85 95.7018L112.006 95.6165L112.012 95.6348C112.381 95.5087 112.778 95.5468 113.123 95.7458L127.79 103.97C128.5 104.38 128.941 105.143 128.941 105.963V118.578C128.941 119.045 128.703 119.473 128.312 119.722L128.313 119.725L128.21 119.782L126.362 120.792ZM124.714 118.493L126.424 120.436L127.971 119.591L127.971 119.589L128.077 119.533C128.442 119.343 128.659 118.986 128.659 118.578V105.963C128.659 105.244 128.272 104.574 127.65 104.215L112.983 95.9911C112.672 95.8116 112.309 95.7967 111.985 95.9495L111.979 95.9526C111.936 95.9736 111.904 95.9908 111.876 96.0086L110.253 96.8911L110.774 99.3314L111.363 99.1871V109.358C111.363 110.076 111.75 110.746 112.372 111.106L116.19 113.236L116.208 113.283L117.983 117.851C118.053 118.106 118.163 118.268 118.312 118.334C118.466 118.402 118.674 118.372 118.93 118.244L121.446 116.319L124.915 118.298L124.714 118.493Z" fill="#212121"/>
<path d="M109.457 97.889V110.322C109.457 111.094 109.868 111.807 110.536 112.193L114.311 114.299L116.082 118.852C116.252 119.478 116.955 119.788 117.532 119.494L119.984 117.618L125.194 120.592C126.007 121.073 127.035 120.487 127.035 119.542V106.928C127.035 106.156 126.623 105.443 125.954 105.057L111.287 96.8327C110.474 96.3632 109.457 96.9501 109.457 97.889Z" fill="#FFF7E4"/>
<path d="M125.815 120.905C125.577 120.905 125.339 120.841 125.122 120.713L119.995 117.786L117.596 119.62C117.283 119.779 116.919 119.789 116.598 119.647C116.278 119.506 116.042 119.233 115.948 118.897L114.198 114.397L110.468 112.316C109.757 111.905 109.316 111.141 109.316 110.322V97.8887C109.316 97.3968 109.571 96.9562 109.997 96.7103C110.423 96.4644 110.931 96.4644 111.358 96.7103L126.024 104.933C126.735 105.344 127.176 106.108 127.176 106.928V119.542C127.176 120.037 126.92 120.479 126.489 120.724C126.278 120.845 126.046 120.905 125.815 120.905ZM119.973 117.448L125.264 120.469C125.604 120.671 126.009 120.674 126.35 120.479C126.691 120.285 126.894 119.935 126.894 119.542V106.928C126.894 106.209 126.507 105.538 125.884 105.179L111.218 96.9555C110.879 96.7595 110.476 96.7597 110.138 96.9545C109.8 97.1496 109.599 97.4987 109.599 97.8887V110.322C109.599 111.041 109.985 111.711 110.607 112.071L114.425 114.201L114.443 114.248L116.218 118.815C116.288 119.072 116.468 119.281 116.712 119.389C116.952 119.495 117.223 119.489 117.458 119.374L119.973 117.448Z" fill="#212121"/>
<path d="M114.223 104.224L115.399 103.58C116.113 103.088 117.14 103.11 118.275 103.766C120.419 105.003 122.179 108.051 122.185 110.537C122.188 111.919 121.647 112.847 120.796 113.186L119.603 113.843L119.253 113.218C118.944 113.131 118.62 112.993 118.286 112.8C116.136 111.559 114.377 108.512 114.377 106.029C114.377 105.57 114.437 105.161 114.549 104.807L114.223 104.224Z" fill="#3C2C0B"/>
<path d="M118.288 112.8C118.622 112.993 118.946 113.131 119.255 113.218L119.605 113.843L120.798 113.186C121.648 112.848 122.19 111.92 122.187 110.537C122.183 109.216 121.685 107.737 120.898 106.456L115.391 109.635C116.107 110.964 117.142 112.139 118.288 112.8Z" fill="#3C2C0B"/>
<path d="M119.55 114.034L119.159 113.337C118.851 113.245 118.534 113.105 118.217 112.922C116.022 111.655 114.237 108.563 114.237 106.029C114.237 105.59 114.291 105.184 114.397 104.823L114.031 104.169L115.327 103.46C116.113 102.922 117.213 102.988 118.347 103.643C120.535 104.907 122.321 107.999 122.327 110.536C122.33 111.924 121.795 112.936 120.857 113.313L119.55 114.034ZM114.416 104.279L114.703 104.791L114.684 104.849C114.575 105.197 114.519 105.594 114.519 106.029C114.519 108.473 116.241 111.456 118.358 112.678C118.674 112.86 118.989 112.996 119.292 113.081L119.349 113.097L119.659 113.652L120.745 113.054C121.574 112.724 122.048 111.807 122.045 110.537C122.039 108.089 120.317 105.106 118.206 103.887C117.167 103.288 116.174 103.218 115.481 103.696L115.469 103.703L114.416 104.279Z" fill="#231F20"/>
<path d="M116.965 104.494C114.821 103.256 113.066 104.275 113.066 106.758C113.066 109.24 114.826 112.288 116.976 113.529C119.126 114.77 120.88 113.752 120.874 111.266C120.868 108.779 119.109 105.732 116.965 104.494Z" fill="#FFF7E4"/>
<path d="M118.71 114.202C118.153 114.202 117.539 114.017 116.906 113.652C114.711 112.385 112.926 109.292 112.926 106.758C112.926 105.502 113.359 104.561 114.145 104.107C114.929 103.654 115.955 103.749 117.036 104.373C119.224 105.636 121.009 108.728 121.016 111.266C121.019 112.522 120.588 113.464 119.803 113.919C119.476 114.108 119.108 114.202 118.71 114.202ZM115.238 104.107C114.89 104.107 114.569 104.188 114.286 104.351C113.591 104.753 113.208 105.607 113.208 106.758C113.208 109.202 114.93 112.185 117.047 113.407C118.04 113.981 118.969 114.076 119.661 113.675C120.356 113.273 120.736 112.417 120.733 111.266C120.727 108.819 119.005 105.836 116.895 104.617C116.308 104.278 115.744 104.107 115.238 104.107Z" fill="#231F20"/>
<path d="M115.419 108.467L115.418 108.467L116.915 112.009C116.939 112.065 117.013 112.075 117.051 112.029L118.522 110.245H118.521C118.676 110.028 118.766 109.724 118.766 109.346C118.766 108.207 117.961 106.81 116.976 106.235C115.946 105.634 115.17 106.072 115.168 107.265C115.168 107.65 115.259 108.065 115.419 108.467ZM116.311 107.928C116.311 107.512 116.606 107.342 116.967 107.55C117.327 107.758 117.623 108.269 117.623 108.686C117.623 109.102 117.328 109.272 116.967 109.064C116.606 108.856 116.311 108.345 116.311 107.928Z" fill="#FFBE2E"/>
<path d="M116.99 112.2C116.98 112.2 116.969 112.199 116.958 112.197C116.88 112.186 116.816 112.136 116.786 112.064L115.276 108.489C115.108 108.065 115.027 107.665 115.027 107.265C115.028 106.638 115.237 106.173 115.614 105.957C115.993 105.74 116.502 105.795 117.048 106.114C118.073 106.712 118.907 108.162 118.907 109.346C118.907 109.746 118.818 110.072 118.644 110.317L118.631 110.335L117.16 112.119C117.118 112.171 117.056 112.2 116.99 112.2ZM116.128 106.109C115.989 106.109 115.863 106.139 115.754 106.202C115.468 106.366 115.31 106.743 115.309 107.265C115.309 107.629 115.384 107.995 115.539 108.385L115.551 108.417L117.006 111.862L118.41 110.16C118.554 109.957 118.625 109.686 118.625 109.346C118.625 108.251 117.854 106.911 116.906 106.358C116.623 106.192 116.357 106.109 116.128 106.109ZM117.259 109.295C117.145 109.295 117.022 109.259 116.897 109.187C116.489 108.951 116.17 108.399 116.17 107.929C116.17 107.675 116.264 107.481 116.434 107.383C116.603 107.285 116.818 107.301 117.038 107.428C117.445 107.663 117.764 108.216 117.764 108.686C117.764 108.94 117.671 109.134 117.501 109.232C117.428 109.274 117.346 109.295 117.259 109.295ZM116.676 107.602C116.638 107.602 116.603 107.611 116.575 107.627C116.497 107.672 116.453 107.782 116.453 107.929C116.453 108.295 116.721 108.759 117.038 108.942C117.165 109.016 117.282 109.032 117.36 108.987C117.437 108.942 117.482 108.833 117.482 108.686C117.482 108.32 117.214 107.855 116.897 107.672C116.817 107.626 116.741 107.602 116.676 107.602Z" fill="#212121"/>
<path d="M52.7188 117.58V148.689C52.7188 150.104 53.4735 151.411 54.6987 152.119L85.9257 170.148C88.9183 171.875 92.6053 171.875 95.5979 170.148L116.547 158.053C118.013 157.206 118.917 155.642 118.917 153.949L118.929 123.321L52.7188 117.58Z" fill="#FFBE2E"/>
<path d="M90.7623 171.58C89.0657 171.58 87.369 171.143 85.8557 170.269L54.6287 152.24C53.3639 151.51 52.5781 150.149 52.5781 148.689V117.426L52.7314 117.439L119.071 123.191L119.071 123.321L119.059 153.949C119.058 155.687 118.123 157.306 116.618 158.174L95.6688 170.269C94.1557 171.143 92.459 171.58 90.7623 171.58ZM52.8603 117.733V148.689C52.8603 150.049 53.592 151.316 54.7699 151.996L85.9969 170.025C88.9364 171.722 92.5886 171.722 95.5279 170.025L116.477 157.93C117.895 157.112 118.776 155.586 118.777 153.949L118.789 123.45L52.8603 117.733Z" fill="#212121"/>
<path d="M78.4083 102.735L52.9084 117.324C52.6565 117.468 52.6553 117.831 52.9061 117.977L87.9642 138.355C89.5987 139.305 91.6166 139.308 93.2539 138.362L118.741 123.648C118.992 123.503 118.992 123.14 118.741 122.995L83.6667 102.745C82.0406 101.806 80.0381 101.802 78.4083 102.735Z" fill="#FFF7E4"/>
<path d="M90.6162 139.209C89.6743 139.209 88.733 138.965 87.8937 138.477L52.8356 118.099C52.6737 118.005 52.5775 117.837 52.5781 117.65C52.5788 117.463 52.6762 117.295 52.8388 117.202L78.3386 102.613C80.0057 101.659 82.0745 101.663 83.7377 102.624L118.812 122.874C118.974 122.967 119.071 123.135 119.071 123.322C119.071 123.509 118.974 123.677 118.812 123.77L93.325 138.485C92.4891 138.968 91.5525 139.209 90.6162 139.209ZM78.4787 102.858L52.9789 117.447C52.9049 117.489 52.8605 117.566 52.8602 117.651C52.8599 117.736 52.9038 117.813 52.9774 117.855L88.0355 138.233C89.6219 139.155 91.5947 139.158 93.1838 138.241L118.671 123.526C118.745 123.483 118.789 123.407 118.789 123.322C118.789 123.237 118.745 123.16 118.671 123.118L83.5966 102.868C82.0199 101.958 80.0591 101.954 78.4787 102.858Z" fill="#212121"/>
<path d="M67.7689 119.979L78.4072 114.02C80.037 113.087 82.0396 113.091 83.6656 114.03L104.476 125.465L108.343 123.209L83.6656 109.328C82.0395 108.389 80.037 108.385 78.4072 109.318L63.4844 117.852L67.7689 119.979Z" fill="#3C2C0B"/>
<path d="M99.7123 143.341L111.705 136.417C112.951 135.698 114.509 136.597 114.509 138.036V149.068C114.509 150.638 113.671 152.088 112.312 152.873L100.319 159.797C99.0731 160.516 97.5156 159.617 97.5156 158.178V147.146C97.5156 145.577 98.353 144.126 99.7123 143.341Z" fill="white"/>
<path d="M99.3851 160.192C99.0399 160.193 98.6947 160.102 98.38 159.92C97.7508 159.557 97.375 158.906 97.375 158.179V147.147C97.375 145.532 98.2437 144.028 99.6422 143.22L111.635 136.296C112.264 135.933 113.016 135.933 113.645 136.296C114.275 136.659 114.65 137.31 114.65 138.037V149.069C114.65 150.684 113.782 152.188 112.383 152.996L100.39 159.92C100.076 160.102 99.7302 160.192 99.3851 160.192ZM112.64 136.306C112.343 136.306 112.047 136.384 111.776 136.54L99.7832 143.464C98.4718 144.222 97.6571 145.633 97.6571 147.147V158.179C97.6571 158.804 97.9801 159.363 98.5211 159.676C99.0623 159.988 99.7081 159.988 100.249 159.676L112.242 152.752C113.554 151.994 114.368 150.583 114.368 149.069V138.037C114.368 137.412 114.045 136.853 113.504 136.54C113.234 136.384 112.937 136.306 112.64 136.306Z" fill="#212121"/>
<path d="M112.796 135.614L114.077 136.354C115.617 137.243 116.565 138.885 116.565 140.662V141.649C116.565 141.954 116.402 142.236 116.138 142.389L114.077 143.578C113.508 143.907 112.796 143.496 112.796 142.838C112.796 141.061 111.848 139.419 110.309 138.53L109.027 137.79L112.796 135.614Z" fill="white"/>
<path d="M109.031 137.79L110.312 138.53C111.851 139.419 112.799 141.061 112.799 142.838V143.825C112.799 144.13 112.636 144.412 112.372 144.564L110.312 145.754C109.742 146.083 109.03 145.672 109.03 145.014C109.03 143.237 108.082 141.594 106.543 140.706L105.262 139.966L109.031 137.79Z" fill="#FFBE2E"/>
<path d="M105.261 139.968L106.542 140.708C108.081 141.596 109.03 143.238 109.03 145.016V146.002C109.03 146.307 108.867 146.589 108.603 146.742L106.542 147.931C105.973 148.26 105.261 147.849 105.261 147.192C105.261 145.414 104.313 143.772 102.774 142.883L101.492 142.144L105.261 139.968Z" fill="white"/>
<path d="M101.491 142.144L102.773 142.883C104.312 143.772 105.26 145.414 105.26 147.192V148.178C105.26 148.483 105.097 148.765 104.833 148.918L102.773 150.107C102.203 150.436 101.491 150.025 101.491 149.367C101.491 147.59 100.543 145.948 99.004 145.059L97.7227 144.319L101.491 142.144Z" fill="#FFBE2E"/>
<path d="M113.651 143.835C113.48 143.835 113.309 143.79 113.154 143.7C112.842 143.52 112.656 143.198 112.656 142.838C112.656 141.117 111.73 139.513 110.239 138.652L108.746 137.79L112.32 135.727C112.614 135.557 112.98 135.557 113.274 135.727L114.149 136.232C115.727 137.143 116.707 138.841 116.707 140.662V141.649C116.707 142.003 116.516 142.334 116.209 142.511L114.149 143.7C113.993 143.79 113.822 143.835 113.651 143.835ZM109.31 137.79L110.38 138.408C111.958 139.319 112.938 141.017 112.938 142.838C112.938 143.096 113.071 143.327 113.295 143.456C113.518 143.585 113.784 143.585 114.008 143.456L116.068 142.267C116.288 142.14 116.424 141.903 116.424 141.649V140.663C116.424 138.941 115.498 137.337 114.008 136.476L113.133 135.971C112.926 135.852 112.668 135.852 112.461 135.971L109.31 137.79Z" fill="#212121"/>
<path d="M109.882 146.011C109.711 146.011 109.54 145.966 109.384 145.876C109.072 145.696 108.886 145.374 108.886 145.014C108.886 143.292 107.96 141.688 106.47 140.828L104.977 139.966L109.027 137.627L110.379 138.408C111.957 139.318 112.937 141.016 112.937 142.838V143.824C112.937 144.179 112.746 144.509 112.439 144.686L110.379 145.876C110.223 145.966 110.052 146.011 109.882 146.011ZM105.541 139.966L106.611 140.583C108.188 141.494 109.168 143.192 109.168 145.014C109.168 145.272 109.302 145.502 109.525 145.631C109.748 145.76 110.015 145.76 110.238 145.631L112.298 144.442C112.518 144.315 112.655 144.078 112.655 143.824V142.838C112.655 141.117 111.729 139.513 110.238 138.652L109.027 137.953L105.541 139.966Z" fill="#212121"/>
<path d="M106.116 148.189C105.945 148.189 105.774 148.144 105.618 148.054C105.307 147.875 105.121 147.552 105.121 147.192C105.121 145.471 104.195 143.867 102.704 143.006L101.211 142.144L105.262 139.806L106.614 140.586C108.191 141.497 109.171 143.195 109.171 145.017V146.003C109.171 146.357 108.981 146.688 108.674 146.865L106.614 148.054C106.458 148.144 106.287 148.189 106.116 148.189ZM101.775 142.145L102.845 142.762C104.423 143.673 105.403 145.371 105.403 147.192C105.403 147.45 105.536 147.681 105.759 147.81C105.983 147.939 106.249 147.939 106.473 147.81L108.533 146.621C108.753 146.494 108.889 146.257 108.889 146.003V145.017C108.889 143.295 107.963 141.691 106.473 140.831L105.262 140.132L101.775 142.145Z" fill="#212121"/>
<path d="M102.346 150.364C102.175 150.364 102.004 150.319 101.848 150.229C101.537 150.049 101.35 149.727 101.35 149.367C101.35 147.646 100.424 146.042 98.9337 145.181L97.8812 144.574C97.7892 144.52 97.7343 144.425 97.7344 144.319C97.7344 144.213 97.7893 144.118 97.8812 144.065L101.491 141.98L102.843 142.761C104.421 143.672 105.401 145.37 105.401 147.191V148.178C105.401 148.532 105.211 148.862 104.904 149.04L102.843 150.229C102.688 150.319 102.517 150.364 102.346 150.364ZM101.491 142.306L98.0222 144.309C98.0202 144.31 98.0165 144.313 98.0165 144.319C98.0165 144.326 98.0203 144.328 98.0223 144.329L99.0747 144.937C100.652 145.848 101.633 147.545 101.633 149.367C101.633 149.625 101.766 149.856 101.989 149.985C102.212 150.114 102.479 150.114 102.702 149.985L104.763 148.795C104.982 148.668 105.119 148.432 105.119 148.178V147.191C105.119 145.47 104.193 143.866 102.702 143.005L101.491 142.306Z" fill="#212121"/>
<path d="M63.7227 157.292V141.446C63.7227 140.429 64.8232 139.794 65.7036 140.302L73.0805 144.561C73.7684 144.958 74.1922 145.692 74.1922 146.486V163.336L63.7227 157.292Z" fill="white"/>
<path d="M74.3336 163.58L63.582 157.373V141.391C63.582 140.874 63.8494 140.411 64.2972 140.152C64.7449 139.893 65.2796 139.893 65.7277 140.152L72.9851 144.342C73.8169 144.822 74.3336 145.717 74.3336 146.678V163.58ZM63.8641 157.21L74.0514 163.091V146.678C74.0514 145.818 73.5888 145.016 72.8441 144.586L65.5867 140.396C65.2272 140.189 64.7978 140.189 64.4383 140.396C64.0787 140.604 63.8641 140.976 63.8641 141.391V157.21Z" fill="#212121"/>
<path d="M78.0078 160.085V148.126C78.0078 147.177 79.0321 146.582 79.8567 147.051L82.2777 148.429C82.8742 148.769 83.2426 149.402 83.2426 150.089V162.074C83.2426 163.027 82.2097 163.622 81.385 163.144L78.9594 161.737C78.3703 161.395 78.0078 160.766 78.0078 160.085Z" fill="white"/>
<path d="M82.006 163.453C81.7684 163.453 81.5309 163.39 81.3146 163.264L78.8889 161.858C78.2587 161.492 77.8672 160.812 77.8672 160.084V148.125C77.8672 147.628 78.1234 147.183 78.5525 146.933C78.9817 146.684 79.4954 146.681 79.9268 146.927L82.3478 148.305C82.987 148.669 83.384 149.352 83.384 150.088V162.072C83.384 162.571 83.126 163.018 82.6938 163.267C82.4782 163.391 82.2421 163.453 82.006 163.453ZM79.245 147.027C79.0557 147.027 78.8665 147.077 78.6943 147.177C78.353 147.376 78.1492 147.73 78.1492 148.125V160.084C78.1492 160.712 78.4869 161.298 79.0305 161.614L81.4561 163.02C81.7991 163.219 82.2092 163.22 82.5529 163.022C82.8965 162.824 83.1018 162.469 83.1018 162.073V150.088C83.1018 149.453 82.7593 148.864 82.2081 148.551L79.7872 147.172C79.6172 147.076 79.431 147.027 79.245 147.027Z" fill="#212121"/>
<path d="M55.7188 148.036V135.08C55.7188 134.199 56.67 133.646 57.4357 134.082L59.9803 135.53C60.5819 135.873 60.9534 136.512 60.9534 137.204V150.127C60.9534 151.002 60.0123 151.556 59.2466 151.13L56.7089 149.72C56.0977 149.38 55.7188 148.736 55.7188 148.036Z" fill="white"/>
<path d="M59.8056 151.419C59.5908 151.419 59.3758 151.364 59.1786 151.254L56.6409 149.844C55.9853 149.479 55.5781 148.787 55.5781 148.037V135.081C55.5781 134.616 55.8179 134.199 56.2196 133.966C56.6212 133.732 57.1019 133.73 57.5059 133.96L60.0506 135.409C60.6947 135.775 61.0949 136.464 61.0949 137.205V150.127C61.0949 150.589 60.8573 151.005 60.459 151.239C60.2554 151.359 60.0306 151.419 59.8056 151.419ZM56.8678 134.072C56.6936 134.072 56.5197 134.118 56.3614 134.21C56.0476 134.392 55.8602 134.718 55.8602 135.081V148.037C55.8602 148.685 56.2118 149.282 56.7779 149.597L59.3156 151.008C59.6312 151.183 60.005 151.179 60.3161 150.996C60.6272 150.813 60.8128 150.488 60.8128 150.127V137.205C60.8128 136.565 60.4672 135.97 59.911 135.654L57.3663 134.205C57.21 134.116 57.0388 134.072 56.8678 134.072Z" fill="#212121"/>
<path d="M69.0985 142.18H68.8164V160.313H69.0985V142.18Z" fill="#212121"/>
<path d="M63.6811 136.716L62.4069 137.452C60.8764 138.336 59.9336 139.969 59.9336 141.736V142.717C59.9336 143.02 60.0955 143.301 60.3583 143.453L62.4068 144.635C62.9731 144.962 63.681 144.554 63.681 143.9C63.681 142.132 64.6238 140.499 66.1543 139.616L67.4284 138.88L63.6811 136.716Z" fill="white"/>
<path d="M67.4311 138.88L66.1569 139.616C64.6264 140.5 63.6836 142.133 63.6836 143.9V144.881C63.6836 145.184 63.8455 145.465 64.1083 145.617L66.1568 146.799C66.7231 147.126 67.431 146.718 67.431 146.064C67.431 144.296 68.3738 142.663 69.9043 141.78L71.1784 141.044L67.4311 138.88Z" fill="#FFBE2E"/>
<path d="M71.1772 141.046L69.903 141.782C68.3725 142.666 67.4297 144.299 67.4297 146.066V147.047C67.4297 147.35 67.5916 147.631 67.8544 147.782L69.9029 148.965C70.4692 149.292 71.1771 148.883 71.1771 148.229C71.1771 146.462 72.1199 144.829 73.6504 143.946L74.9245 143.21L71.1772 141.046Z" fill="white"/>
<path d="M74.9272 143.208L73.653 143.944C72.1225 144.828 71.1797 146.461 71.1797 148.228V149.209C71.1797 149.513 71.3416 149.793 71.6044 149.945L73.6529 151.127C74.2192 151.454 74.9271 151.046 74.9271 150.392C74.9271 148.625 75.8699 146.992 77.4004 146.108L78.6745 145.372L74.9272 143.208Z" fill="#FFBE2E"/>
<path d="M62.8321 144.893C62.662 144.893 62.492 144.848 62.3368 144.758L60.2883 143.576C59.9828 143.399 59.793 143.071 59.793 142.718V141.737C59.793 139.925 60.7677 138.237 62.3369 137.331L63.2069 136.829C63.4995 136.659 63.8634 136.659 64.1563 136.829L67.7112 138.881L66.2254 139.739C64.7433 140.594 63.8226 142.189 63.8226 143.901C63.8226 144.259 63.6374 144.579 63.3273 144.758C63.1724 144.848 63.0022 144.893 62.8321 144.893ZM63.6816 136.984C63.5662 136.984 63.4508 137.014 63.3479 137.073L62.478 137.575C60.9958 138.431 60.0751 140.026 60.0751 141.737V142.718C60.0751 142.97 60.2108 143.205 60.4293 143.331L62.4779 144.514C62.6995 144.642 62.9644 144.642 63.1863 144.514C63.4079 144.386 63.5404 144.157 63.5404 143.901C63.5404 142.089 64.5152 140.4 66.0844 139.495L67.1469 138.881L64.0152 137.073C63.9123 137.014 63.797 136.984 63.6816 136.984Z" fill="#212121"/>
<path d="M66.5821 147.055C66.4119 147.055 66.2419 147.011 66.0868 146.921L64.0382 145.738C63.7327 145.562 63.543 145.233 63.543 144.881V143.9C63.543 142.088 64.5177 140.4 66.0868 139.494L67.4315 138.717L71.4611 141.044L69.9754 141.902C68.4932 142.757 67.5726 144.352 67.5726 146.063C67.5726 146.421 67.3874 146.742 67.0772 146.921C66.9224 147.011 66.7522 147.055 66.5821 147.055ZM67.4316 139.043L66.228 139.738C64.7458 140.594 63.8252 142.188 63.8252 143.9V144.881C63.8252 145.133 63.9609 145.368 64.1793 145.494L66.228 146.677C66.4495 146.805 66.7145 146.805 66.9363 146.677C67.158 146.549 67.2905 146.32 67.2905 146.064C67.2905 144.252 68.2652 142.563 69.8344 141.657L70.8969 141.044L67.4316 139.043Z" fill="#212121"/>
<path d="M70.3282 149.221C70.158 149.221 69.988 149.176 69.8329 149.086L67.7844 147.903C67.4789 147.727 67.2891 147.398 67.2891 147.046V146.065C67.2891 144.253 68.2638 142.565 69.8329 141.659L71.1776 140.882L75.2073 143.209L73.7214 144.067C72.2393 144.922 71.3187 146.517 71.3187 148.228C71.3187 148.586 71.1335 148.907 70.8233 149.086C70.6684 149.176 70.4983 149.221 70.3282 149.221ZM71.1776 141.208L69.974 141.903C68.4918 142.759 67.5712 144.354 67.5712 146.065V147.046C67.5712 147.298 67.7069 147.533 67.9254 147.659L69.974 148.842C70.1955 148.97 70.4605 148.97 70.6823 148.842C70.904 148.714 71.0365 148.484 71.0365 148.228C71.0365 146.417 72.0112 144.728 73.5804 143.822L74.643 143.209L71.1776 141.208Z" fill="#212121"/>
<path d="M74.0743 151.385C73.9042 151.385 73.7342 151.34 73.579 151.25L71.5305 150.068C71.225 149.891 71.0352 149.563 71.0352 149.21V148.229C71.0352 146.417 72.0099 144.729 73.5791 143.823L74.9238 143.046L78.5142 145.119C78.6059 145.172 78.6606 145.267 78.6606 145.373C78.6606 145.479 78.6059 145.574 78.5142 145.626L77.4676 146.231C75.9855 147.086 75.0647 148.681 75.0647 150.392C75.0647 150.751 74.8796 151.071 74.5694 151.25C74.4145 151.34 74.2443 151.385 74.0743 151.385ZM74.9238 143.372L73.7202 144.067C72.238 144.923 71.3173 146.518 71.3173 148.229V149.21C71.3173 149.462 71.453 149.697 71.6715 149.823L73.7201 151.006C73.9419 151.134 74.2067 151.134 74.4284 151.006C74.6501 150.878 74.7826 150.649 74.7826 150.393C74.7826 148.581 75.7573 146.893 77.3266 145.987L78.3731 145.382C78.3751 145.381 78.3785 145.379 78.3785 145.373C78.3785 145.367 78.3751 145.365 78.3731 145.364L74.9238 143.372Z" fill="#212121"/>
<path d="M60.8711 132.145L61.2407 131.209C61.615 131.749 62.1425 132.276 62.6251 132.556C63.1136 132.839 63.3016 132.767 63.2975 132.497C63.2841 131.614 60.9228 130.883 60.8915 128.816C60.8764 127.822 61.4717 127.363 62.7109 128.082C63.253 128.397 63.8157 128.888 64.2315 129.445L63.8857 130.403C63.4823 129.885 63.0869 129.514 62.7235 129.303C62.2291 129.016 62.0536 129.135 62.0579 129.413C62.0708 130.264 64.4261 131 64.4572 133.051C64.4719 134.021 63.8768 134.496 62.6376 133.777C61.9526 133.379 61.2697 132.739 60.8711 132.145Z" fill="#151617"/>
<path d="M65.7879 131.213L64.5072 130.47L64.4883 129.222L68.2235 131.389L68.2424 132.637L66.9675 131.898L67.033 136.215L65.8534 135.531L65.7879 131.213Z" fill="#151617"/>
<path d="M68.4302 134.268C68.4049 132.598 69.3693 131.944 70.7038 132.719C72.0382 133.493 73.0398 135.287 73.0651 136.957C73.0904 138.627 72.1259 139.281 70.7915 138.506C69.457 137.732 68.4555 135.938 68.4302 134.268ZM71.8737 136.266C71.8591 135.304 71.3551 134.389 70.7235 134.022C70.092 133.656 69.6071 133.997 69.6217 134.959C69.6362 135.921 70.1401 136.836 70.7717 137.202C71.4032 137.569 71.8883 137.228 71.8737 136.266Z" fill="#151617"/>
<path d="M75.5295 139.679L74.886 139.306L74.9084 140.784L73.7289 140.1L73.6445 134.535L75.5509 135.641C76.6889 136.301 77.4156 137.503 77.4348 138.775C77.4472 139.594 77.1586 140.025 76.6454 140.058L77.5715 142.329L76.3086 141.596L75.5295 139.679ZM75.4983 136.839L74.843 136.459L74.8677 138.089L75.5231 138.469C76.0115 138.753 76.2512 138.592 76.2435 138.083C76.2356 137.567 75.9868 137.123 75.4983 136.839Z" fill="#151617"/>
<path d="M81.4649 143.383L81.4833 144.599L78.1351 142.657L78.0508 137.091L81.3215 138.989L81.3399 140.205L79.2369 138.985L79.2512 139.923L81.104 140.998L81.1217 142.175L79.269 141.1L79.2845 142.118L81.4649 143.383Z" fill="#151617"/>
<path d="M41.6508 77.5642L36.2062 78.9787L32.3266 75.2134L30.6719 90.4462L41.6508 90.0771V77.5642Z" fill="#536DFE"/>
<path d="M41.6508 77.5642L36.2062 78.9787L32.3266 75.2134L30.6719 90.4462L41.6508 90.0771V77.5642Z" fill="#A98539"/>
<path d="M32.3254 75.2134L27.8605 118.078L0.152344 134.075L4.91487 91.529L32.3254 75.2134Z" fill="#FFBE2E"/>
<path d="M41.6499 77.564V125.556L14.0002 141.52C13.974 141.535 13.9414 141.516 13.9414 141.486V93.5613L41.6499 77.564Z" fill="#FFBE2E"/>
<path d="M13.9411 93.5613L11.36 91.5288H4.91487L0.152344 134.075L7.01364 136.418L13.8785 141.507C13.9044 141.526 13.9411 141.508 13.9411 141.476V93.5613Z" fill="#A98539"/>
<path d="M13.943 93.5613L11.362 91.5288L7.01562 136.418L13.8805 141.507C13.9064 141.526 13.943 141.508 13.943 141.476V93.5613Z" fill="#FFBE2E"/>
<path d="M13.981 141.667C13.9497 141.667 13.9186 141.659 13.8908 141.643C13.8353 141.61 13.8008 141.551 13.8008 141.487V93.4808L13.8713 93.4401L41.4848 77.4976C41.5476 77.4611 41.6261 77.4612 41.6891 77.4974C41.7522 77.5339 41.7914 77.6017 41.7914 77.6746V125.638L41.7209 125.679L14.0712 141.643C14.0433 141.659 14.0121 141.667 13.981 141.667ZM14.0829 93.6437V141.31L41.5092 125.475V77.8091L14.0829 93.6437Z" fill="#231F20"/>
<path d="M13.9021 141.656C13.8643 141.656 13.8268 141.644 13.795 141.621L6.94772 136.545L0 134.172L0.0125987 134.059L4.78914 91.3882H11.4094L14.0827 93.4933V141.476C14.0827 141.545 14.0447 141.606 13.9835 141.637C13.9576 141.65 13.9298 141.656 13.9021 141.656ZM0.305536 133.978L7.08051 136.292L7.09818 136.305L13.8005 141.274V93.6302L11.3116 91.6702H5.04145L0.305536 133.978Z" fill="#231F20"/>
<path d="M11.2258 91.5054L6.88281 136.397L7.16363 136.424L11.5067 91.5326L11.2258 91.5054Z" fill="#231F20"/>
<path d="M4.98809 91.651L4.84375 91.4085L32.3471 75.0376L36.2473 78.823L41.6152 77.4283L41.6861 77.7014L36.1647 79.1359L32.3058 75.3906L4.98809 91.651Z" fill="#231F20"/>
<path d="M32.1887 75.1936L31.4531 83.3516L31.7341 83.3769L32.4696 75.2189L32.1887 75.1936Z" fill="#231F20"/>
<path d="M49.3792 101.463L45.2742 102.53L42.3492 99.6909L41.1016 111.176L49.3792 110.897V101.463Z" fill="#536DFE"/>
<path d="M49.3792 101.463L45.2742 102.53L42.3492 99.6909L41.1016 111.176L49.3792 110.897V101.463Z" fill="#A98539"/>
<path d="M42.3508 99.6909L38.9845 132.009L18.0938 144.07L21.6845 111.992L42.3508 99.6909Z" fill="#FFBE2E"/>
<path d="M49.3792 101.462V137.646L28.5326 149.682C28.5129 149.694 28.4883 149.679 28.4883 149.657V113.524L49.3792 101.462Z" fill="#FFBE2E"/>
<path d="M28.4898 113.524L26.5438 111.992H21.6845L18.0938 144.069L23.2669 145.836L28.4427 149.673C28.4621 149.688 28.4898 149.674 28.4898 149.65V113.524Z" fill="#A98539"/>
<path d="M28.4886 113.524L26.5426 111.992L23.2656 145.836L28.4415 149.673C28.4609 149.688 28.4886 149.674 28.4886 149.649V113.524Z" fill="#FFBE2E"/>
<path d="M28.5183 149.828C28.4888 149.828 28.4594 149.82 28.4331 149.805C28.3803 149.775 28.3477 149.718 28.3477 149.657V113.443L28.4182 113.402L49.2377 101.382C49.2958 101.349 49.368 101.348 49.4265 101.382C49.4847 101.416 49.5209 101.478 49.5209 101.546V137.728L49.4504 137.769L28.6036 149.805C28.5772 149.82 28.5478 149.828 28.5183 149.828ZM28.6297 113.606V149.464L49.2386 137.565V101.707L28.6297 113.606Z" fill="#231F20"/>
<path d="M28.4606 149.821C28.4247 149.821 28.3891 149.809 28.3589 149.787L23.2009 145.963L17.9414 144.167L17.9541 144.054L21.5588 111.851H26.5932L28.6313 113.456V149.65C28.6313 149.715 28.5952 149.773 28.5373 149.802C28.5128 149.815 28.4867 149.821 28.4606 149.821ZM18.247 143.973L23.3337 145.71L23.3514 145.723L28.3492 149.428V113.593L26.4955 112.133H21.8111L18.247 143.973Z" fill="#231F20"/>
<path d="M26.3917 111.98L23.1172 145.823L23.398 145.85L26.6724 112.007L26.3917 111.98Z" fill="#231F20"/>
<path d="M21.7537 112.112L21.6094 111.87L42.3685 99.5132L45.3142 102.372L49.3424 101.326L49.4134 101.599L45.2316 102.685L42.3272 99.8662L21.7537 112.112Z" fill="#231F20"/>
<path d="M42.2108 99.6691L41.6562 105.82L41.9372 105.845L42.4918 99.6944L42.2108 99.6691Z" fill="#231F20"/>
<path d="M27.7711 105.527C26.5486 105.527 25.3261 105.206 24.2118 104.562C21.983 103.275 20.6523 100.971 20.6523 98.3971V95.6162C20.6523 95.2008 20.9892 94.8639 21.4047 94.8639C21.8201 94.8639 22.157 95.2008 22.157 95.6162V98.3971C22.157 100.427 23.2064 102.244 24.9641 103.259C26.7216 104.274 28.8207 104.274 30.5784 103.259C33.1966 101.748 34.823 98.9305 34.823 95.9071V89.0316C34.823 88.6161 35.1599 88.2793 35.5754 88.2793C35.9908 88.2793 36.3277 88.6161 36.3277 89.0316V95.9071C36.3277 99.4663 34.413 102.783 31.3307 104.562C30.2162 105.206 28.9936 105.527 27.7711 105.527Z" fill="#212121"/>
<path d="M38.9833 125.531C37.9095 125.531 36.8358 125.248 35.857 124.683C33.8993 123.553 32.7305 121.528 32.7305 119.268V116.865C32.7305 116.45 33.0673 116.113 33.4828 116.113C33.8982 116.113 34.2351 116.45 34.2351 116.865V119.268C34.2351 120.984 35.1226 122.522 36.6092 123.38C38.0958 124.238 39.871 124.238 41.3575 123.38C43.5881 122.092 44.9737 119.692 44.9737 117.117V111.176C44.9737 110.761 45.3106 110.424 45.726 110.424C46.1415 110.424 46.4784 110.761 46.4784 111.176V117.117C46.4784 120.228 44.8045 123.127 42.1098 124.683C41.131 125.248 40.0572 125.531 38.9833 125.531Z" fill="#212121"/>
<path d="M117.602 182.231C117.602 180.941 118.515 179.359 119.632 178.714C120.193 178.391 120.702 178.363 121.071 178.579L121.072 178.576L121.952 179.083L121.573 179.255C121.631 179.438 121.662 179.65 121.662 179.887C121.662 181.176 120.748 182.758 119.632 183.403C119.485 183.488 119.343 183.551 119.205 183.597L119.163 184.093L118.218 183.554L118.218 183.553C117.839 183.346 117.602 182.887 117.602 182.231Z" fill="#151617"/>
<path d="M120.573 179.254C121.69 178.609 122.603 179.136 122.603 180.426C122.603 181.715 121.69 183.298 120.573 183.942C119.457 184.587 118.543 184.059 118.543 182.77C118.543 181.481 119.457 179.898 120.573 179.254Z" fill="#151617"/>
<path d="M120.576 179.994C121.34 179.553 121.965 179.914 121.965 180.796C121.965 181.678 121.34 182.76 120.576 183.201C119.812 183.643 119.188 183.282 119.188 182.4C119.188 181.518 119.813 180.435 120.576 179.994Z" fill="#151617"/>
<path d="M120.575 180.614C121.043 180.343 121.427 180.564 121.427 181.105C121.427 181.647 121.043 182.311 120.575 182.581C120.106 182.852 119.723 182.63 119.723 182.089C119.723 181.548 120.106 180.884 120.575 180.614Z" fill="white"/>
<path d="M128.227 176.323C128.227 175.034 129.14 173.451 130.257 172.807C130.818 172.483 131.327 172.455 131.696 172.671L131.697 172.668L132.577 173.176L132.198 173.348C132.256 173.531 132.287 173.742 132.287 173.979C132.287 175.268 131.373 176.851 130.257 177.495C130.11 177.58 129.968 177.644 129.83 177.689L129.788 178.185L128.843 177.646L128.844 177.645C128.464 177.438 128.227 176.98 128.227 176.323Z" fill="#151617"/>
<path d="M131.202 173.346C132.319 172.701 133.232 173.229 133.232 174.518C133.232 175.807 132.319 177.39 131.202 178.035C130.085 178.679 129.172 178.152 129.172 176.862C129.172 175.573 130.085 173.991 131.202 173.346Z" fill="#151617"/>
<path d="M131.201 174.087C131.965 173.646 132.59 174.007 132.59 174.889C132.59 175.771 131.965 176.854 131.201 177.295C130.437 177.736 129.812 177.375 129.812 176.493C129.812 175.611 130.438 174.528 131.201 174.087Z" fill="#151617"/>
<path d="M131.2 174.707C131.668 174.436 132.052 174.658 132.052 175.199C132.052 175.74 131.668 176.404 131.2 176.674C130.731 176.945 130.348 176.724 130.348 176.182C130.348 175.641 130.731 174.977 131.2 174.707Z" fill="white"/>
<path d="M102.449 176.54L102.776 176.71C102.819 176.674 102.865 176.64 102.916 176.611L124.175 164.337C124.874 163.934 125.735 163.936 126.433 164.343L137.294 170.754C137.364 170.794 137.425 170.842 137.478 170.894L137.758 170.622V171.642L137.754 171.648C137.728 171.933 137.573 172.209 137.288 172.372L116.022 184.562C115.327 184.961 114.473 184.96 113.779 184.559L102.916 178.229C102.605 178.05 102.449 177.735 102.449 177.42L102.449 176.54Z" fill="#151617"/>
<path d="M114.904 185.001C114.491 185.001 114.078 184.894 113.709 184.682L102.846 178.352C102.509 178.158 102.308 177.809 102.309 177.42V176.308L102.761 176.544C102.789 176.524 102.817 176.506 102.846 176.489L124.105 164.216C124.846 163.788 125.765 163.79 126.504 164.221L137.367 170.633C137.403 170.655 137.438 170.678 137.473 170.704L137.82 170.365L137.902 171.684L137.89 171.701C137.847 172.037 137.656 172.325 137.359 172.495L116.093 184.686C115.726 184.896 115.315 185.001 114.904 185.001ZM102.591 176.773V177.42C102.591 177.707 102.739 177.964 102.988 178.108L113.851 184.438C114.498 184.812 115.304 184.813 115.952 184.441L137.219 172.25C137.446 172.12 137.59 171.896 137.614 171.635L137.616 171.615L137.577 170.996L137.479 171.092L137.381 170.996C137.333 170.95 137.28 170.909 137.224 170.877L126.361 164.465C125.71 164.085 124.899 164.083 124.246 164.46L102.988 176.734C102.946 176.758 102.906 176.786 102.867 176.819L102.795 176.88L102.591 176.773Z" fill="#231F20"/>
<path d="M137.288 171.515L116.022 183.705C115.327 184.103 114.473 184.102 113.779 183.702L102.916 177.372C102.293 177.012 102.293 176.113 102.916 175.753L124.175 163.48C124.874 163.076 125.735 163.078 126.433 163.485L137.294 169.897C137.915 170.259 137.912 171.157 137.288 171.515Z" fill="white"/>
<path d="M114.904 184.143C114.491 184.143 114.078 184.037 113.709 183.824L102.846 177.494C102.51 177.3 102.309 176.952 102.309 176.563C102.309 176.174 102.51 175.826 102.846 175.632L124.105 163.358C124.845 162.931 125.765 162.933 126.504 163.364L137.367 169.776C137.702 169.971 137.901 170.32 137.9 170.709C137.898 171.097 137.696 171.444 137.359 171.638L116.093 183.828C115.726 184.038 115.315 184.143 114.904 184.143ZM125.3 163.321C124.935 163.321 124.571 163.415 124.246 163.603L102.987 175.876C102.739 176.02 102.591 176.276 102.591 176.563C102.591 176.85 102.739 177.107 102.987 177.25L113.851 183.58C114.498 183.954 115.304 183.955 115.952 183.583L137.219 171.393C137.467 171.25 137.616 170.994 137.617 170.708C137.619 170.421 137.471 170.164 137.224 170.019L126.361 163.607C126.034 163.416 125.667 163.321 125.3 163.321Z" fill="#231F20"/>
<path d="M124.675 165.799C124.847 165.799 124.987 165.66 124.987 165.487V156.333C124.987 155.934 125.193 155.576 125.538 155.375C125.883 155.174 126.297 155.173 126.643 155.37L132.052 158.452C132.366 158.631 132.659 158.845 132.924 159.09C133.051 159.206 133.248 159.199 133.365 159.072C133.482 158.945 133.474 158.748 133.347 158.631C133.048 158.355 132.716 158.113 132.361 157.91L126.952 154.828C126.41 154.519 125.764 154.522 125.225 154.836C124.685 155.149 124.363 155.709 124.363 156.333V165.487C124.363 165.659 124.503 165.799 124.675 165.799Z" fill="#151617"/>
<path d="M130.021 156.576C129.796 156.606 129.65 156.543 129.524 156.337C129.352 156.058 129.462 155.812 129.741 155.64L132.681 153.696L133.57 154.543L130.255 156.493C130.181 156.538 130.102 156.565 130.021 156.576Z" fill="#E7AD99"/>
<path d="M129.625 155.571C129.997 155.859 130.162 156.268 129.995 156.484C129.827 156.701 129.39 156.643 129.018 156.355C128.646 156.067 128.48 155.658 128.647 155.441C128.815 155.225 129.252 155.283 129.625 155.571Z" fill="#E7AD99"/>
<path d="M128.862 155.423C128.785 155.366 128.677 155.382 128.62 155.459L128.163 156.076C128.106 156.153 128.122 156.261 128.199 156.318C128.276 156.375 128.385 156.359 128.442 156.282L128.898 155.665C128.955 155.588 128.939 155.48 128.862 155.423Z" fill="#E7AD99"/>
<path d="M129.128 155.715C129.051 155.658 128.942 155.674 128.885 155.751L128.429 156.368C128.372 156.445 128.388 156.553 128.465 156.61C128.542 156.667 128.65 156.651 128.707 156.574L129.164 155.957C129.221 155.88 129.205 155.772 129.128 155.715Z" fill="#E7AD99"/>
<path d="M129.382 156.005C129.305 155.948 129.196 155.964 129.139 156.041L128.682 156.658C128.626 156.735 128.642 156.843 128.719 156.9C128.796 156.957 128.904 156.941 128.961 156.864L129.418 156.247C129.475 156.17 129.459 156.062 129.382 156.005Z" fill="#E7AD99"/>
<path d="M129.745 156.213C129.668 156.156 129.56 156.172 129.503 156.249L129.046 156.866C128.989 156.943 129.005 157.051 129.082 157.108C129.159 157.165 129.267 157.149 129.325 157.072L129.781 156.455C129.838 156.378 129.822 156.27 129.745 156.213Z" fill="#E7AD99"/>
<path d="M137.677 165.772L137.31 166.642L136.766 167.072C136.634 167.081 136.531 167.19 136.531 167.323C136.531 167.497 136.672 167.638 136.846 167.638H137.749C137.975 167.638 138.193 167.549 138.355 167.392L139.523 166.256C139.761 166.025 139.728 165.634 139.455 165.446L139.152 165.238L138.834 165.059L137.677 165.772Z" fill="#151617"/>
<path d="M138.121 165.85C137.803 165.85 137.487 165.717 137.263 165.457L134.334 162.186C133.983 161.903 133.893 161.406 134.123 161.019L136.242 157.453C136.587 156.873 137.367 156.713 137.917 157.141C138.372 157.495 140.215 157.558 140.215 157.558L136.505 161.448L138.856 165.055C139 165.222 138.985 165.481 138.811 165.615C138.607 165.773 138.363 165.85 138.121 165.85Z" fill="#FFBE2E"/>
<path d="M138.12 165.99C137.749 165.99 137.397 165.829 137.155 165.548L134.235 162.287C133.84 161.961 133.739 161.387 134.001 160.946L136.12 157.38C136.307 157.065 136.62 156.846 136.98 156.778C137.339 156.711 137.712 156.802 138.003 157.028C138.282 157.245 139.266 157.368 140.094 157.41C140.173 157.414 140.24 157.462 140.269 157.536C140.298 157.608 140.282 157.691 140.228 157.747L136.683 161.463L138.969 164.969C139.061 165.081 139.106 165.227 139.091 165.372C139.077 165.514 139.007 165.64 138.896 165.726C138.672 165.899 138.404 165.99 138.12 165.99ZM137.219 157.038C137.157 157.038 137.095 157.044 137.032 157.056C136.752 157.108 136.508 157.279 136.363 157.524L134.243 161.09C134.051 161.415 134.127 161.838 134.421 162.074L134.438 162.09L137.367 165.362C137.557 165.582 137.831 165.708 138.12 165.708C138.341 165.708 138.55 165.637 138.724 165.502C138.773 165.465 138.804 165.408 138.811 165.343C138.818 165.272 138.795 165.2 138.748 165.146L138.737 165.131L136.325 161.43L139.901 157.682C139.292 157.643 138.195 157.535 137.83 157.251C137.65 157.111 137.438 157.038 137.219 157.038Z" fill="#231F20"/>
<path d="M142.895 164.076L142.734 165.09L142.327 165.651C142.203 165.695 142.134 165.828 142.17 165.955C142.217 166.122 142.39 166.22 142.558 166.173L143.426 165.928C143.643 165.867 143.829 165.723 143.942 165.528L144.758 164.12C144.924 163.833 144.787 163.465 144.473 163.359L144.126 163.241L143.771 163.154L142.895 164.076Z" fill="#151617"/>
<path d="M130.846 156.182C130.599 156.2 130.351 156.079 130.219 155.85C130.034 155.531 130.143 155.122 130.463 154.937L135.667 151.915C135.986 151.731 136.395 151.84 136.58 152.159C136.764 152.479 136.655 152.887 136.335 153.072L131.131 156.094C131.041 156.146 130.944 156.175 130.846 156.182Z" fill="#FFBE2E"/>
<path d="M130.798 156.326C130.512 156.326 130.241 156.172 130.097 155.922C129.873 155.536 130.006 155.04 130.392 154.817L135.596 151.795C135.784 151.686 136.002 151.657 136.21 151.713C136.419 151.769 136.594 151.903 136.702 152.09C136.925 152.476 136.792 152.972 136.406 153.195L131.202 156.217C131.095 156.279 130.979 156.315 130.857 156.324C130.837 156.325 130.818 156.326 130.798 156.326ZM136 151.968C135.909 151.968 135.819 151.992 135.738 152.039L130.534 155.061C130.282 155.206 130.196 155.529 130.341 155.781C130.443 155.957 130.633 156.058 130.836 156.042C130.916 156.036 130.991 156.013 131.061 155.973L136.265 152.951C136.517 152.806 136.603 152.483 136.458 152.231C136.387 152.109 136.274 152.022 136.138 151.986C136.092 151.974 136.046 151.968 136 151.968Z" fill="#231F20"/>
<path d="M142.817 164.071C142.598 164.071 139.966 163.031 139.966 163.031C139.731 162.921 139.547 162.724 139.454 162.482L136.949 158.41C136.726 157.83 137.95 157.224 138.524 156.985C139.116 156.738 139.987 156.963 140.215 157.557L141.46 161.381L143.465 162.966C143.984 163.316 143.802 163.278 143.451 163.796C143.233 164.12 143.18 164.071 142.817 164.071Z" fill="#FFBE2E"/>
<path d="M143.011 164.216C142.988 164.216 142.965 164.215 142.94 164.215C142.903 164.214 142.863 164.213 142.817 164.213C142.59 164.213 140.538 163.41 139.915 163.163C139.642 163.036 139.436 162.818 139.328 162.546L136.822 158.473L136.818 158.461C136.544 157.747 137.882 157.101 138.47 156.856C138.839 156.702 139.311 156.711 139.701 156.878C140.013 157.012 140.243 157.235 140.347 157.508L141.582 161.298L143.55 162.853C143.77 163.001 143.905 163.103 143.927 163.247C143.948 163.379 143.868 163.481 143.758 163.621C143.705 163.688 143.64 163.771 143.569 163.876C143.366 164.177 143.254 164.216 143.011 164.216ZM142.82 163.931C142.866 163.931 142.908 163.932 142.945 163.933C143.182 163.937 143.187 163.937 143.335 163.718C143.412 163.604 143.481 163.517 143.536 163.447C143.583 163.386 143.637 163.318 143.647 163.289C143.62 163.241 143.446 163.123 143.387 163.084L143.379 163.077L141.34 161.466L140.081 157.602C140.007 157.408 139.831 157.241 139.589 157.137C139.267 156.999 138.88 156.991 138.579 157.116C137.739 157.466 136.955 157.98 137.077 158.349L139.582 162.42L139.587 162.432C139.667 162.641 139.823 162.809 140.027 162.904C141.253 163.388 142.652 163.914 142.82 163.931Z" fill="#231F20"/>
<path d="M132.329 158.278C132.102 158.278 131.966 158.197 131.867 157.976C131.733 157.677 131.875 157.447 132.174 157.313L135.343 155.772L137.051 153.449C137.246 153.185 137.617 153.128 137.881 153.323C138.146 153.517 138.202 153.888 138.008 154.153L136.114 156.728L132.572 158.226C132.493 158.261 132.41 158.278 132.329 158.278Z" fill="#E7AD99"/>
<path d="M140.215 157.558C138.854 158.344 136.835 159.145 136.22 157.698L135.979 156.814L133.283 158.01C133.199 158.048 133.111 158.065 133.025 158.065C132.783 158.065 132.571 157.812 132.465 157.577C132.323 157.258 132.466 156.884 132.785 156.741L135.491 155.541L135.594 155.401L134.726 152.216C134.726 151.208 135.816 150.579 136.688 151.083L137.927 151.725C138.998 152.343 139.319 153.385 139.658 154.723L140.215 157.558Z" fill="#FFBE2E"/>
<path d="M137.516 158.642C137.302 158.642 137.097 158.613 136.91 158.548C136.534 158.416 136.258 158.149 136.09 157.755L136.084 157.736L135.886 157.011L133.34 158.14C133.24 158.184 133.134 158.207 133.025 158.207C132.706 158.207 132.455 157.899 132.337 157.636C132.163 157.246 132.338 156.787 132.728 156.613L135.4 155.428L135.44 155.373L134.585 152.235V152.217C134.585 151.693 134.856 151.223 135.309 150.961C135.764 150.699 136.305 150.699 136.759 150.961L137.992 151.6C139.101 152.241 139.439 153.284 139.795 154.689L140.293 157.223C140.342 157.471 140.226 157.719 140.005 157.838C139.279 158.231 138.325 158.642 137.516 158.642ZM136.354 157.653C136.491 157.971 136.704 158.176 137.003 158.281C137.626 158.499 138.644 158.253 139.871 157.59V157.59C139.983 157.53 140.041 157.404 140.017 157.277L139.52 154.751C139.183 153.421 138.865 152.43 137.857 151.848L136.624 151.209C136.253 150.995 135.816 150.995 135.451 151.206C135.091 151.414 134.873 151.783 134.867 152.198L135.748 155.431L135.583 155.656L132.842 156.871C132.595 156.982 132.484 157.273 132.594 157.521C132.684 157.722 132.861 157.925 133.025 157.925C133.094 157.925 133.162 157.911 133.225 157.882L136.072 156.62L136.354 157.653Z" fill="#231F20"/>
<path d="M132.067 157.231C132.398 157.565 132.509 157.992 132.314 158.185C132.12 158.378 131.694 158.263 131.363 157.928C131.032 157.594 130.921 157.167 131.115 156.974C131.31 156.782 131.736 156.896 132.067 157.231Z" fill="#E7AD99"/>
<path d="M135.758 153.208L137.387 151.446L137.022 150.736L136.148 150.687L135.758 153.208Z" fill="#E7AD99"/>
<path d="M136.632 151.578L137.176 151.389C137.415 151.307 137.542 151.047 137.459 150.808L136.725 148.681L134.402 149.482L134.821 150.696C135.078 151.44 135.888 151.834 136.632 151.578Z" fill="#E7AD99"/>
<path d="M134.978 149.229C134.946 149.055 134.959 148.871 135.017 148.706C135.164 148.294 135.614 148.134 136.028 148.162C136.38 148.186 136.756 148.072 137.087 148.235C137.685 148.531 137.912 149.376 137.858 149.992C137.848 150.1 137.828 150.206 137.807 150.312C137.754 150.581 137.76 150.855 137.692 151.123C137.683 151.158 137.673 151.195 137.646 151.219C137.609 151.255 137.547 151.254 137.501 151.23C137.455 151.206 137.422 151.163 137.393 151.119C137.257 150.909 137.357 150.769 137.317 150.541C137.282 150.34 137.104 150.196 136.895 150.233C136.629 150.281 136.667 150.521 136.64 150.742C136.629 150.83 136.583 150.924 136.499 150.95C136.396 150.981 136.29 150.895 136.247 150.796C136.203 150.697 136.199 150.586 136.162 150.484C136.03 150.111 135.554 150.01 135.259 149.745C135.109 149.611 135.015 149.426 134.978 149.229Z" fill="#151617"/>
<g opacity="0.3">
<path d="M137.866 153.871C137.872 153.548 137.978 153.366 137.881 153.322C137.681 153.23 137.297 154.901 136.8 155.969C136.557 156.488 135.98 156.814 135.98 156.814L136.119 157.323C136.489 157.09 136.789 156.762 136.988 156.373L137.866 153.871Z" fill="#02126A"/>
</g>
<path d="M131.328 156.983C131.259 156.917 131.149 156.919 131.083 156.987L130.549 157.539C130.482 157.608 130.484 157.718 130.553 157.784C130.622 157.851 130.731 157.849 130.798 157.78L131.332 157.229C131.398 157.16 131.397 157.05 131.328 156.983Z" fill="#E7AD99"/>
<path d="M131.554 157.309C131.486 157.242 131.376 157.244 131.309 157.313L130.775 157.864C130.709 157.933 130.711 158.043 130.779 158.109C130.848 158.176 130.958 158.174 131.025 158.105L131.558 157.554C131.625 157.485 131.623 157.375 131.554 157.309Z" fill="#E7AD99"/>
<path d="M131.769 157.629C131.7 157.562 131.591 157.564 131.524 157.633L130.99 158.185C130.924 158.253 130.925 158.363 130.994 158.43C131.063 158.496 131.173 158.495 131.239 158.426L131.773 157.874C131.84 157.805 131.838 157.695 131.769 157.629Z" fill="#E7AD99"/>
<path d="M132.101 157.882C132.032 157.815 131.923 157.817 131.856 157.886L131.322 158.437C131.256 158.506 131.257 158.616 131.326 158.683C131.395 158.749 131.505 158.748 131.571 158.679L132.105 158.127C132.172 158.058 132.17 157.948 132.101 157.882Z" fill="#E7AD99"/>
<path d="M137.15 158.731L136.035 161.534L138.745 164.883L136.506 161.448L137.921 159.964L137.15 158.731Z" fill="#151617"/>
<path d="M134.771 171.688C134.943 171.688 135.083 171.548 135.083 171.376V162.593C135.083 161.093 134.45 159.649 133.347 158.631C133.221 158.515 133.024 158.523 132.907 158.649C132.79 158.776 132.798 158.973 132.925 159.09C133.9 159.989 134.459 161.266 134.459 162.593V171.376C134.459 171.548 134.599 171.688 134.771 171.688Z" fill="#151617"/>
<path d="M134.604 163.966C134.713 163.966 134.819 163.909 134.876 163.808C134.961 163.658 134.908 163.468 134.758 163.383L124.829 157.757C124.679 157.672 124.489 157.725 124.404 157.875C124.319 158.025 124.372 158.215 124.521 158.3L134.451 163.926C134.499 163.953 134.552 163.966 134.604 163.966Z" fill="#151617"/>
<path d="M134.604 167.201C134.713 167.201 134.819 167.144 134.876 167.043C134.961 166.893 134.908 166.703 134.758 166.618L124.829 160.992C124.679 160.907 124.489 160.96 124.404 161.11C124.319 161.26 124.372 161.45 124.521 161.535L134.451 167.161C134.499 167.188 134.552 167.201 134.604 167.201Z" fill="#151617"/>
<path d="M134.604 170.434C134.713 170.434 134.819 170.378 134.876 170.276C134.961 170.127 134.908 169.936 134.758 169.851L124.829 164.226C124.679 164.141 124.489 164.193 124.404 164.343C124.319 164.493 124.372 164.683 124.521 164.768L134.451 170.394C134.499 170.421 134.552 170.434 134.604 170.434Z" fill="#151617"/>
<path d="M116.816 164.323L124.3 160.002L131.804 164.335C131.815 164.341 131.815 164.357 131.804 164.363L124.3 168.696L116.816 164.375C116.796 164.363 116.796 164.334 116.816 164.323Z" fill="#FFF7E4"/>
<path d="M116.77 164.402V173.078L124.266 177.406C124.28 177.414 124.299 177.404 124.299 177.387V168.696L116.815 164.375C116.795 164.364 116.77 164.378 116.77 164.402Z" fill="#FFBE2E"/>
<path d="M117.117 165.129V165.95L119.014 167.045V166.224L117.117 165.129Z" fill="white"/>
<path d="M124.33 177.405L131.826 173.077V164.377C131.826 164.364 131.812 164.356 131.801 164.363L124.297 168.695V177.386C124.297 177.403 124.315 177.414 124.33 177.405Z" fill="#444444"/>
<path d="M124.319 177.55C124.291 177.55 124.263 177.543 124.238 177.528C124.188 177.499 124.156 177.445 124.156 177.387V168.614L131.731 164.241C131.78 164.213 131.84 164.213 131.889 164.241C131.937 164.269 131.968 164.321 131.968 164.377V173.159L124.401 177.528C124.376 177.542 124.347 177.55 124.319 177.55ZM124.438 168.777V177.181L131.685 172.996V164.593L124.438 168.777Z" fill="#231F20"/>
<path d="M119.781 174.817V166.088L121.287 166.957V175.686L119.781 174.817Z" fill="white"/>
<path d="M119.781 166.088L127.314 161.759L128.872 162.606L121.287 166.957L119.781 166.088Z" fill="#212121"/>
<path d="M124.296 168.859L124.226 168.818L116.742 164.497C116.689 164.467 116.656 164.41 116.656 164.349C116.656 164.288 116.689 164.231 116.742 164.2L124.296 159.839L124.367 159.88L131.871 164.212C131.92 164.24 131.95 164.293 131.95 164.349C131.95 164.405 131.92 164.457 131.871 164.485L124.296 168.859ZM117.049 164.349L124.296 168.533L131.543 164.349L124.296 160.165L117.049 164.349ZM116.883 164.445L116.883 164.445L116.883 164.445Z" fill="#231F20"/>
<path d="M124.277 177.55C124.249 177.55 124.221 177.543 124.195 177.528L116.629 173.16V164.402C116.629 164.341 116.662 164.284 116.715 164.253C116.767 164.223 116.833 164.223 116.886 164.253L124.44 168.615V177.387C124.44 177.445 124.409 177.499 124.359 177.529C124.334 177.543 124.305 177.55 124.277 177.55ZM124.336 177.284L124.337 177.284C124.337 177.284 124.336 177.284 124.336 177.284ZM116.911 172.997L124.158 177.181V168.778L116.911 164.593V172.997Z" fill="#231F20"/>
<path d="M133.57 150.061L134.778 150.759C134.926 150.844 135.107 150.844 135.255 150.76L137.796 149.3V148.934C137.796 147.666 136.426 146.873 135.327 147.504C134.867 147.768 134.584 148.258 134.584 148.788V149.234L133.57 149.819C133.477 149.873 133.477 150.008 133.57 150.061Z" fill="#FFBE2E"/>
<path d="M135.36 148.561C135.241 148.493 135.145 148.549 135.145 148.686C135.145 148.823 135.242 148.991 135.36 149.059C135.479 149.128 135.576 149.071 135.575 148.934C135.575 148.797 135.478 148.629 135.36 148.561Z" fill="#FFBE2E"/>
<path d="M135.017 150.965C134.91 150.965 134.803 150.937 134.708 150.882L133.5 150.185C133.412 150.134 133.359 150.043 133.359 149.941C133.359 149.84 133.412 149.749 133.5 149.698L134.443 149.154V148.789C134.443 148.21 134.755 147.671 135.257 147.383C135.817 147.061 136.485 147.062 137.045 147.386C137.604 147.71 137.938 148.289 137.938 148.935V149.383L135.326 150.883C135.231 150.938 135.124 150.965 135.017 150.965ZM133.643 149.941L134.849 150.638C134.953 150.698 135.081 150.698 135.185 150.638L137.656 149.22V148.935C137.656 148.391 137.374 147.903 136.903 147.63C136.432 147.358 135.869 147.357 135.397 147.628C134.983 147.866 134.725 148.311 134.725 148.789V149.317L133.643 149.941Z" fill="#231F20"/>
<path d="M135.457 149.23C135.402 149.23 135.345 149.214 135.29 149.182C135.127 149.088 135.004 148.875 135.004 148.687C135.004 148.569 135.053 148.474 135.138 148.425C135.223 148.376 135.329 148.381 135.431 148.44C135.593 148.534 135.716 148.746 135.717 148.935C135.717 149.052 135.668 149.148 135.583 149.197C135.545 149.219 135.502 149.23 135.457 149.23ZM135.286 148.682C135.286 148.683 135.286 148.685 135.286 148.687C135.286 148.773 135.357 148.895 135.431 148.938C135.432 148.939 135.433 148.939 135.434 148.94C135.435 148.939 135.435 148.937 135.435 148.936C135.434 148.849 135.364 148.727 135.289 148.684C135.288 148.683 135.287 148.683 135.286 148.682Z" fill="#231F20"/>
<path d="M137.389 151.445L137.637 152.192L136.762 152.423L135.629 154.964L135.759 153.207L137.389 151.445Z" fill="#151617"/>
<path d="M135.627 154.994L135.979 151.656L135.297 151.445L135.577 152.269L135.207 152.616L135.627 154.994Z" fill="#151617"/>
<path d="M107.808 169.611L115.292 165.291L122.796 169.623C122.807 169.63 122.807 169.645 122.796 169.652L115.292 173.985L107.808 169.664C107.788 169.652 107.788 169.623 107.808 169.611Z" fill="#FFF7E4"/>
<path d="M107.762 169.69V178.367L115.258 182.695C115.273 182.703 115.291 182.692 115.291 182.676V173.985L107.807 169.664C107.787 169.652 107.762 169.667 107.762 169.69Z" fill="#FFBE2E"/>
<path d="M108.109 170.417V171.239L110.006 172.334V171.512L108.109 170.417Z" fill="white"/>
<path d="M115.322 182.695L122.818 178.367V169.666C122.818 169.654 122.805 169.646 122.793 169.652L115.289 173.985V182.676C115.289 182.693 115.307 182.703 115.322 182.695Z" fill="#444444"/>
<path d="M115.311 182.839C115.283 182.839 115.255 182.832 115.23 182.818C115.18 182.789 115.148 182.734 115.148 182.676V173.904L122.723 169.53C122.772 169.502 122.832 169.502 122.881 169.53C122.93 169.558 122.96 169.611 122.96 169.667V178.449L115.393 182.817C115.368 182.832 115.34 182.839 115.311 182.839ZM115.43 174.067V182.47L122.678 178.286V169.883L115.43 174.067ZM122.865 169.775L122.864 169.775C122.864 169.775 122.865 169.775 122.865 169.775Z" fill="#231F20"/>
<path d="M110.773 180.106V171.376L112.279 172.246V180.975L110.773 180.106Z" fill="#212121"/>
<path d="M110.773 171.376L118.306 167.047L119.864 167.894L112.279 172.246L110.773 171.376Z" fill="#212121"/>
<path d="M115.288 174.148L115.218 174.107L107.734 169.787C107.681 169.756 107.648 169.699 107.648 169.638C107.648 169.577 107.681 169.52 107.734 169.49L115.288 165.128L115.359 165.169L122.863 169.502C122.912 169.53 122.942 169.582 122.942 169.638C122.942 169.694 122.912 169.747 122.864 169.775L115.288 174.148ZM108.041 169.638L115.288 173.822L122.535 169.638L115.288 165.454L108.041 169.638Z" fill="#231F20"/>
<path d="M115.269 182.839C115.241 182.839 115.213 182.831 115.187 182.817L107.621 178.448V169.69C107.621 169.629 107.654 169.573 107.707 169.542C107.759 169.511 107.825 169.511 107.878 169.542L115.432 173.903V182.676C115.432 182.734 115.401 182.788 115.351 182.817C115.326 182.831 115.297 182.839 115.269 182.839ZM115.328 182.572L115.329 182.573C115.329 182.572 115.328 182.572 115.328 182.572ZM107.903 178.285L115.15 182.47V174.066L107.903 169.882V178.285Z" fill="#231F20"/>
<path d="M112.621 157.949L120.104 153.628L127.609 157.961C127.62 157.967 127.62 157.983 127.609 157.99L120.104 162.322L112.621 158.002C112.6 157.99 112.6 157.961 112.621 157.949Z" fill="#FFF7E4"/>
<path d="M112.574 158.028V166.705L120.07 171.033C120.085 171.041 120.104 171.03 120.104 171.013V162.322L112.62 158.002C112.6 157.99 112.574 158.005 112.574 158.028Z" fill="#FFBE2E"/>
<path d="M112.922 158.756V159.578L114.818 160.673V159.851L112.922 158.756Z" fill="white"/>
<path d="M120.135 171.033L127.631 166.705V158.004C127.631 157.992 127.617 157.984 127.606 157.99L120.102 162.323V171.014C120.102 171.031 120.12 171.041 120.135 171.033Z" fill="#444444"/>
<path d="M120.124 171.177C120.096 171.177 120.068 171.17 120.043 171.156C119.992 171.126 119.961 171.072 119.961 171.014V162.242L127.536 157.868C127.585 157.84 127.645 157.84 127.694 157.868C127.742 157.896 127.772 157.949 127.772 158.005V166.787L120.206 171.155C120.18 171.17 120.152 171.177 120.124 171.177ZM120.243 162.404V170.808L127.49 166.624V158.22L120.243 162.404Z" fill="#231F20"/>
<path d="M115.586 168.444V159.714L117.092 160.584V169.313L115.586 168.444Z" fill="#212121"/>
<path d="M115.586 159.715L123.119 155.386L124.677 156.233L117.092 160.584L115.586 159.715Z" fill="#212121"/>
<path d="M120.105 162.486L120.034 162.445L112.551 158.125C112.498 158.094 112.465 158.037 112.465 157.976C112.465 157.915 112.498 157.858 112.551 157.828L120.105 153.466L120.175 153.507L127.68 157.84C127.728 157.868 127.759 157.92 127.759 157.976C127.759 158.032 127.728 158.085 127.68 158.113L120.105 162.486ZM112.858 157.976L120.105 162.16L127.352 157.976L120.105 153.792L112.858 157.976ZM112.692 158.072L112.692 158.072L112.692 158.072Z" fill="#231F20"/>
<path d="M120.082 171.177C120.054 171.177 120.025 171.169 120 171.155L112.434 166.786V158.028C112.434 157.967 112.467 157.91 112.519 157.88C112.572 157.849 112.638 157.849 112.691 157.88L120.245 162.241V171.014C120.245 171.072 120.214 171.126 120.163 171.155C120.138 171.169 120.11 171.177 120.082 171.177ZM120.141 170.91L120.141 170.911C120.141 170.91 120.141 170.91 120.141 170.91ZM112.716 166.623L119.963 170.807V162.404L112.716 158.22V166.623Z" fill="#231F20"/>
<path d="M52.5039 14.8675L55.1518 13.4406L55.1629 13.4548C55.6952 13.0661 56.4362 12.9711 57.0889 13.348L101.29 38.8678C103.024 39.8684 104.091 41.7176 104.091 43.7188V56.3249C104.091 57.1025 103.609 57.7114 102.977 57.9645L102.98 57.9755L100.299 59.4143L52.5039 14.8675Z" fill="#3C2C0B"/>
<path d="M89.793 49.6201L100.3 59.4132L102.981 57.9744L102.978 57.9634C103.61 57.7103 104.092 57.1013 104.092 56.3237V43.7177C104.092 42.4646 103.925 41.7158 103.371 40.9707L90.6588 47.3958L89.793 49.6201Z" fill="#3C2C0B"/>
<path d="M100.275 59.5862L100.201 59.5174L52.2617 14.8363L55.1876 13.2595L55.1907 13.2636C55.793 12.8834 56.5347 12.8661 57.1572 13.2255L101.359 38.7453C103.13 39.7679 104.23 41.6735 104.23 43.7185V56.3246C104.23 57.0661 103.807 57.7286 103.141 58.0453L103.142 58.0473L100.275 59.5862ZM52.7418 14.898L100.32 59.2421L102.814 57.9034L102.807 57.8794L102.923 57.8333C103.546 57.5839 103.948 56.9916 103.948 56.3246V43.7185C103.948 41.774 102.902 39.962 101.218 38.9896L57.0164 13.4698C56.4524 13.1442 55.7734 13.1818 55.2441 13.5685L55.1337 13.6491L55.1119 13.6209L52.7418 14.898Z" fill="#231F20"/>
<path d="M98.1705 40.5462L53.9689 15.0264C52.785 14.3428 51.3067 15.2062 51.3204 16.5732L51.446 29.0963C51.4658 31.0707 52.5236 32.889 54.2305 33.8819L98.3176 59.5296C99.4948 60.2144 100.971 59.3652 100.971 58.0033V45.3972C100.971 43.396 99.9036 41.5468 98.1705 40.5462Z" fill="#FFF7E4"/>
<path d="M99.2018 59.9132C98.8724 59.9132 98.543 59.8259 98.2432 59.6516L54.1561 34.004C52.4154 32.9913 51.3215 31.1114 51.3015 29.0977L51.1759 16.5747C51.169 15.8814 51.5223 15.2587 52.1211 14.9091C52.7198 14.5593 53.4358 14.5577 54.036 14.9043L98.2376 40.424C100.009 41.4465 101.109 43.3522 101.109 45.3973V58.0033C101.109 58.6939 100.751 59.3118 100.153 59.6561C99.8547 59.8275 99.5282 59.9132 99.2018 59.9132ZM53.0823 14.9282C52.8009 14.9282 52.5194 15.003 52.2632 15.1526C51.753 15.4507 51.452 15.9812 51.4579 16.572L51.5835 29.095C51.6026 31.0097 52.6428 32.7972 54.2978 33.76L98.3849 59.4076C98.8934 59.7035 99.5017 59.7051 100.012 59.4116C100.522 59.1182 100.827 58.5918 100.827 58.0033V45.3972C100.827 43.4527 99.7803 41.6406 98.0964 40.6682L53.8948 15.1485C53.6403 15.0016 53.3613 14.9282 53.0823 14.9282Z" fill="#231F20"/>
<path d="M94.0125 51.7503C93.441 51.7503 92.8184 51.5651 92.1819 51.1977C90.0568 49.9707 88.3281 46.9763 88.3281 44.5227C88.3281 43.2464 88.7833 42.2807 89.6096 41.8035C90.4358 41.3264 91.4998 41.415 92.6051 42.0532C94.7302 43.2801 96.459 46.2746 96.459 48.7283C96.459 50.0046 96.0039 50.9702 95.1775 51.4473C94.8269 51.6498 94.4335 51.7503 94.0125 51.7503ZM90.7772 42.3479C90.5021 42.3479 90.2511 42.4104 90.0328 42.5364C89.4793 42.856 89.1745 43.5614 89.1745 44.5227C89.1745 46.67 90.7455 49.3912 92.6051 50.4647C93.4377 50.9454 94.201 51.0339 94.7543 50.7145C95.3079 50.3949 95.6127 49.6896 95.6127 48.7284C95.6127 46.5811 94.0417 43.86 92.1819 42.7862C91.678 42.4952 91.1992 42.3479 90.7772 42.3479Z" fill="#212121"/>
<path d="M96.7391 53.1635C96.6089 53.1635 96.4804 53.1036 96.3976 52.9907L95.8164 52.1985C95.6781 52.01 95.7188 51.7452 95.9073 51.607C96.0959 51.4685 96.3606 51.5095 96.4988 51.6978L97.08 52.49C97.2183 52.6785 97.1776 52.9433 96.9891 53.0815C96.9137 53.1369 96.826 53.1635 96.7391 53.1635Z" fill="#212121"/>
<path d="M56.8398 28.1358L57.1564 27.3309C57.4771 27.7906 57.9291 28.2375 58.3424 28.4733C58.7609 28.7121 58.9218 28.6485 58.9182 28.417C58.9068 27.6611 56.884 27.054 56.8572 25.2834C56.8444 24.4322 57.3544 24.0346 58.4158 24.6402C58.8802 24.9051 59.3621 25.3219 59.7184 25.7952L59.4223 26.6185C59.0767 26.1783 58.738 25.8636 58.4267 25.6859C58.0031 25.4443 57.8528 25.5477 57.8565 25.786C57.8676 26.5147 59.8853 27.1257 59.912 28.8825C59.9246 29.7133 59.4147 30.1245 58.3533 29.519C57.7663 29.1842 57.1814 28.6413 56.8398 28.1358Z" fill="#191C3C"/>
<path d="M63.1431 30.6514L61.1325 29.5043C61.2197 29.9255 61.463 30.2803 61.8202 30.484C62.0906 30.6384 62.2677 30.6381 62.4533 30.5279L62.9743 31.5272C62.715 31.7709 62.3302 31.7539 61.8046 31.454C60.8196 30.8921 60.1694 29.7177 60.1527 28.6146C60.1358 27.5047 60.772 27.0844 61.6447 27.5823C62.4612 28.0481 63.1352 29.1212 63.1537 30.3402C63.1551 30.4355 63.1467 30.5522 63.1431 30.6514ZM61.1069 28.8147L62.2398 29.461C62.1829 29.0437 61.9649 28.6763 61.6638 28.5045C61.3627 28.3327 61.1571 28.4585 61.1069 28.8147Z" fill="#191C3C"/>
<path d="M66.115 31.8202L66.146 33.8699L65.2428 33.3547L65.2355 32.878C65.1032 33.1534 64.8304 33.1801 64.4273 32.9501C63.7638 32.5716 63.3888 31.8649 63.3791 31.2249C63.3688 30.5438 63.735 30.3342 64.5924 30.8233L65.1435 31.1378C65.1225 30.7545 64.9305 30.4357 64.5477 30.2173C64.2824 30.0659 63.9882 30.0197 63.8024 30.1094L63.4625 29.0446C63.7746 28.9459 64.2419 29.0639 64.6757 29.3114C65.5737 29.8237 66.0972 30.649 66.115 31.8202ZM65.1584 32.1319L65.1535 31.8118L64.7351 31.573C64.4237 31.3954 64.3138 31.4812 64.3172 31.706C64.3205 31.9239 64.4555 32.1561 64.6852 32.2871C64.8996 32.4095 65.0864 32.381 65.1584 32.1319Z" fill="#191C3C"/>
<path d="M68.5547 31.5239L68.5723 32.6883C68.4854 32.6252 68.424 32.5835 68.3526 32.5426C67.9596 32.3185 67.6932 32.4298 67.703 33.0768L67.7287 34.7723L66.7591 34.2192L66.7031 30.5283L67.6269 31.0552L67.6335 31.498C67.8275 31.2778 68.1464 31.291 68.5547 31.5239Z" fill="#191C3C"/>
<path d="M68.7816 33.5368C68.7647 32.4268 69.4111 32.0124 70.3399 32.5423C70.9676 32.9004 71.4529 33.5486 71.6516 34.2965L70.9091 34.3793C70.7712 33.9563 70.575 33.6958 70.3505 33.5677C70.0137 33.3755 69.753 33.5374 69.7615 34.0959C69.7701 34.6679 70.0403 35.1325 70.377 35.3247C70.6015 35.4527 70.7933 35.4134 70.9207 35.1419L71.6786 36.0806C71.4995 36.613 71.0254 36.7139 70.3977 36.3558C69.4689 35.8259 68.7986 34.6604 68.7816 33.5368Z" fill="#191C3C"/>
<path d="M74.9617 36.8081L74.9937 38.9191L74.0241 38.3659L73.9953 36.4661C73.9873 35.9349 73.8104 35.6112 73.5297 35.4512C73.2184 35.2736 72.9824 35.3954 72.9918 36.0084L73.0188 37.7924L72.0492 37.2393L71.9727 32.1865L72.9423 32.7397L72.9682 34.4421C73.1784 34.2987 73.4673 34.3286 73.7939 34.5148C74.4418 34.8844 74.9443 35.664 74.9617 36.8081Z" fill="#191C3C"/>
<path d="M75.4181 38.4581C75.4111 37.9951 75.6618 37.841 75.9884 38.0274C76.32 38.2166 76.5746 38.6589 76.5817 39.1219C76.5885 39.5714 76.3433 39.7487 76.0116 39.5595C75.685 39.3732 75.425 38.9076 75.4181 38.4581Z" fill="#191C3C"/>
<path d="M76.8634 39.2824C76.8564 38.8193 77.1071 38.6652 77.4336 38.8516C77.7654 39.0408 78.0199 39.4832 78.0269 39.9462C78.0338 40.3957 77.7885 40.573 77.4567 40.3838C77.1303 40.1975 76.8703 39.7318 76.8634 39.2824Z" fill="#191C3C"/>
<path d="M78.3048 40.1065C78.2978 39.6434 78.5485 39.4895 78.8751 39.6758C79.2068 39.865 79.4614 40.3074 79.4685 40.7703C79.4753 41.2198 79.2301 41.3972 78.8983 41.208C78.5717 41.0215 78.3117 40.5559 78.3048 40.1065Z" fill="#191C3C"/>
<path d="M178.602 134.828C177.952 134.828 177.301 134.657 176.708 134.316L158.956 124.097C156.316 122.577 154.666 119.74 154.65 116.694L154.543 96.0443C154.536 94.6626 155.246 93.4257 156.443 92.7358C157.641 92.0458 159.067 92.0513 160.259 92.7503L178.152 103.244C180.771 104.78 182.398 107.62 182.398 110.657V131.026C182.398 132.397 181.689 133.626 180.502 134.312C179.907 134.656 179.255 134.828 178.602 134.828Z" fill="#3C2C0B"/>
<path d="M171.585 125.725C170.286 125.725 168.86 125.298 167.395 124.452C162.374 121.553 158.289 114.478 158.289 108.68C158.289 105.77 159.304 103.581 161.147 102.517C162.989 101.454 165.392 101.669 167.912 103.124C168.16 103.267 168.244 103.583 168.102 103.831C167.959 104.078 167.642 104.163 167.395 104.02C165.208 102.757 163.173 102.542 161.664 103.413C160.155 104.285 159.323 106.155 159.323 108.68C159.323 114.149 163.176 120.822 167.912 123.556C170.099 124.819 172.134 125.034 173.644 124.163C175.153 123.291 175.984 121.421 175.984 118.896C175.984 118.611 176.216 118.379 176.501 118.379C176.787 118.379 177.018 118.611 177.018 118.896C177.018 121.806 176.003 123.995 174.161 125.059C173.39 125.504 172.52 125.725 171.585 125.725Z" fill="#FFBE2E"/>
<path d="M166.122 107.977L166.234 115.389L164.663 114.478L164.575 108.686L163.544 108.087L163.52 106.467L166.122 107.977Z" fill="white"/>
<path d="M171.394 116.021C171.414 117.344 170.687 118.119 169.013 117.148C168.243 116.701 167.422 115.973 166.852 115.17L167.391 113.919C167.849 114.583 168.408 115.118 168.939 115.426C169.471 115.734 169.824 115.656 169.816 115.158C169.809 114.703 169.575 114.273 168.726 113.78L167.218 112.906L167.43 108.736L170.969 110.789L170.994 112.409L168.756 111.111L168.701 112.149L169.074 112.366C170.716 113.319 171.374 114.708 171.394 116.021Z" fill="white"/>
<path d="M166.47 118.08L166.485 119.066L166.032 118.803L166.018 117.915C166.015 117.667 165.937 117.518 165.817 117.449C165.686 117.373 165.593 117.435 165.597 117.702L165.61 118.558L165.157 118.295L165.144 117.408C165.14 117.16 165.064 117.012 164.943 116.941C164.809 116.864 164.716 116.926 164.72 117.194L164.733 118.049L164.28 117.787L164.254 116.062L164.685 116.313L164.688 116.494C164.784 116.411 164.918 116.42 165.071 116.508C165.247 116.611 165.399 116.783 165.492 117.02C165.592 116.908 165.75 116.902 165.936 117.01C166.236 117.184 166.461 117.545 166.47 118.08Z" fill="white"/>
<path d="M166.688 116.967C166.685 116.785 166.792 116.709 166.959 116.806C167.126 116.903 167.238 117.097 167.24 117.278C167.243 117.469 167.136 117.545 166.969 117.448C166.802 117.352 166.69 117.148 166.688 116.967ZM166.745 117.508L167.198 117.771L167.224 119.495L166.772 119.232L166.745 117.508Z" fill="white"/>
<path d="M168.878 119.476L168.893 120.462L168.441 120.199L168.427 119.312C168.423 119.064 168.341 118.912 168.21 118.836C168.064 118.752 167.954 118.807 167.959 119.094L167.971 119.927L167.518 119.664L167.492 117.94L167.924 118.191L167.926 118.378C168.027 118.295 168.171 118.306 168.333 118.4C168.636 118.575 168.87 118.942 168.878 119.476Z" fill="white"/>
<path d="M169.09 120.248C169.087 120.032 169.204 119.961 169.356 120.05C169.511 120.14 169.63 120.347 169.633 120.564C169.636 120.774 169.522 120.855 169.367 120.766C169.215 120.677 169.093 120.458 169.09 120.248Z" fill="white"/>
</svg>
