<svg width="82" height="82" viewBox="0 0 82 82" fill="none" xmlns="http://www.w3.org/2000/svg">
<circle cx="41" cy="41" r="41" fill="#FFBE2E"/>
<rect x="19.2949" y="19.2939" width="43.4118" height="43.4118" rx="2.75407" fill="white"/>
<mask id="mask0_7699_15581" style="mask-type:luminance" maskUnits="userSpaceOnUse" x="4" y="4" width="72" height="72">
<path d="M4.91602 4.91317H75.0159V75.1357H4.91602V4.91317Z" fill="white"/>
</mask>
<g mask="url(#mask0_7699_15581)">
<path d="M34.457 68.9508C34.457 71.2232 32.6181 73.0654 30.3496 73.0654C28.0812 73.0654 26.2422 71.2232 26.2422 68.9508C26.2422 66.6785 28.0812 64.8362 30.3496 64.8362C32.6181 64.8362 34.457 66.6785 34.457 68.9508Z" stroke="black" stroke-width="1.94861" stroke-miterlimit="10"/>
<path d="M53.7148 68.9508C53.7148 71.2232 51.8758 73.0654 49.6074 73.0654C47.3389 73.0654 45.5 71.2232 45.5 68.9508C45.5 66.6785 47.3389 64.8362 49.6074 64.8362C51.8758 64.8362 53.7148 66.6785 53.7148 68.9508Z" stroke="black" stroke-width="1.94861" stroke-miterlimit="10"/>
<path d="M72.9746 68.9508C72.9746 71.2232 71.1356 73.0654 68.8672 73.0654C66.5987 73.0654 64.7598 71.2232 64.7598 68.9508C64.7598 66.6785 66.5987 64.8362 68.8672 64.8362C71.1356 64.8362 72.9746 66.6785 72.9746 68.9508Z" stroke="black" stroke-width="1.94861" stroke-miterlimit="10"/>
<path d="M15.1972 68.9508C15.1972 71.2232 13.3582 73.0654 11.0898 73.0654C8.82145 73.0654 6.98242 71.2232 6.98242 68.9508C6.98242 66.6785 8.82145 64.8362 11.0898 64.8362C13.3582 64.8362 15.1972 66.6785 15.1972 68.9508Z" stroke="black" stroke-width="1.94861" stroke-miterlimit="10"/>
<path d="M39.9648 46.4572V56.2773" stroke="black" stroke-width="1.94861" stroke-miterlimit="10"/>
<path d="M11.0781 64.8496V56.2775H68.8557V64.8496" stroke="black" stroke-width="1.94861" stroke-miterlimit="10"/>
<path d="M30.3359 64.8359V56.2767" stroke="black" stroke-width="1.94861" stroke-miterlimit="10"/>
<path d="M49.5957 56.2767V64.8359" stroke="black" stroke-width="1.94861" stroke-miterlimit="10"/>
<path d="M39.9648 34.2344C35.825 34.2344 32.457 30.8605 32.457 26.7134C32.457 22.5663 35.825 19.1925 39.9648 19.1925C44.1047 19.1925 47.4726 22.5663 47.4726 26.7134C47.4726 30.8605 44.1047 34.2344 39.9648 34.2344Z" stroke="black" stroke-width="1.94861" stroke-miterlimit="10"/>
<path d="M55.244 30.4297L59.2843 32.8984L54.2952 41.0906L50.248 38.6164C48.6612 39.9934 46.7978 41.0591 44.7537 41.7147V46.4561H35.1752V41.7147C33.1311 41.0591 31.2677 39.9934 29.6808 38.6164L25.6337 41.0906L20.6445 32.8984L24.6849 30.4297C24.3946 29.2378 24.2413 27.9925 24.2413 26.7128C24.2413 25.4332 24.3946 24.1878 24.6849 22.996L20.6445 20.5272L25.6337 12.335L29.6808 14.8079C31.2677 13.4309 33.1311 12.3652 35.1752 11.7096V6.96958H44.7537V11.7096C46.7978 12.3652 48.6612 13.4309 50.248 14.8079L54.2952 12.335L59.2843 20.5272L55.244 22.996C55.5343 24.1878 55.6876 25.4332 55.6876 26.7128C55.6876 27.9925 55.5343 29.2378 55.244 30.4297Z" stroke="black" stroke-width="1.94861" stroke-miterlimit="10"/>
</g>
</svg>
