<svg width="71" height="71" viewBox="0 0 71 71" fill="none" xmlns="http://www.w3.org/2000/svg">
<mask id="mask0_7067_14735" style="mask-type:luminance" maskUnits="userSpaceOnUse" x="0" y="0" width="71" height="71">
<path d="M0 0H70.0998V70.2226H0V0Z" fill="white"/>
</mask>
<g mask="url(#mask0_7067_14735)">
<path d="M29.541 64.0377C29.541 66.31 27.7021 68.1523 25.4336 68.1523C23.1652 68.1523 21.3262 66.31 21.3262 64.0377C21.3262 61.7653 23.1652 59.9231 25.4336 59.9231C27.7021 59.9231 29.541 61.7653 29.541 64.0377Z" stroke="black" stroke-width="1.94861" stroke-miterlimit="10"/>
<path d="M48.7988 64.0377C48.7988 66.31 46.9598 68.1523 44.6914 68.1523C42.4229 68.1523 40.584 66.31 40.584 64.0377C40.584 61.7653 42.4229 59.9231 44.6914 59.9231C46.9598 59.9231 48.7988 61.7653 48.7988 64.0377Z" stroke="black" stroke-width="1.94861" stroke-miterlimit="10"/>
<path d="M68.0586 64.0377C68.0586 66.31 66.2196 68.1523 63.9512 68.1523C61.6826 68.1523 59.8438 66.31 59.8438 64.0377C59.8438 61.7653 61.6826 59.9231 63.9512 59.9231C66.2196 59.9231 68.0586 61.7653 68.0586 64.0377Z" stroke="black" stroke-width="1.94861" stroke-miterlimit="10"/>
<path d="M10.2812 64.0377C10.2812 66.31 8.44221 68.1523 6.17382 68.1523C3.90543 68.1523 2.06641 66.31 2.06641 64.0377C2.06641 61.7653 3.90543 59.9231 6.17382 59.9231C8.44221 59.9231 10.2812 61.7653 10.2812 64.0377Z" stroke="black" stroke-width="1.94861" stroke-miterlimit="10"/>
<path d="M35.0488 41.544V51.3642" stroke="black" stroke-width="1.94861" stroke-miterlimit="10"/>
<path d="M6.16211 59.9364V51.3643H63.9397V59.9364" stroke="black" stroke-width="1.94861" stroke-miterlimit="10"/>
<path d="M25.4199 59.9228V51.3636" stroke="black" stroke-width="1.94861" stroke-miterlimit="10"/>
<path d="M44.6797 51.3636V59.9228" stroke="black" stroke-width="1.94861" stroke-miterlimit="10"/>
<path d="M35.0488 29.3212C30.909 29.3212 27.541 25.9474 27.541 21.8003C27.541 17.6531 30.909 14.2793 35.0488 14.2793C39.1887 14.2793 42.5566 17.6531 42.5566 21.8003C42.5566 25.9474 39.1887 29.3212 35.0488 29.3212Z" stroke="black" stroke-width="1.94861" stroke-miterlimit="10"/>
<path d="M50.328 25.5165L54.3683 27.9853L49.3792 36.1774L45.332 33.7032C43.7452 35.0802 41.8818 36.1459 39.8377 36.8015V41.5429H30.2592V36.8015C28.2151 36.1459 26.3517 35.0802 24.7648 33.7032L20.7177 36.1774L15.7285 27.9853L19.7688 25.5165C19.4786 24.3246 19.3252 23.0793 19.3252 21.7996C19.3252 20.52 19.4786 19.2747 19.7688 18.0828L15.7285 15.614L20.7177 7.42185L24.7648 9.89473C26.3517 8.51771 28.2151 7.45202 30.2592 6.79643V2.05641H39.8377V6.79643C41.8818 7.45202 43.7452 8.51771 45.332 9.89473L49.3792 7.42185L54.3683 15.614L50.328 18.0828C50.6183 19.2747 50.7716 20.52 50.7716 21.7996C50.7716 23.0793 50.6183 24.3246 50.328 25.5165Z" stroke="black" stroke-width="1.94861" stroke-miterlimit="10"/>
</g>
</svg>
