<svg width="230" height="230" viewBox="0 0 230 230" fill="none" xmlns="http://www.w3.org/2000/svg">
<mask id="mask0_3191_17968" style="mask-type:alpha" maskUnits="userSpaceOnUse" x="0" y="0" width="230" height="230">
<rect width="230" height="230" fill="#D9D9D9"/>
</mask>
<g mask="url(#mask0_3191_17968)">
<path d="M96.9936 153.18C96.9293 153.18 96.8664 153.147 96.8321 153.087C96.7802 152.998 96.8102 152.883 96.8993 152.831L120.133 139.329C122 138.245 125.046 138.244 126.923 139.329L150.309 152.831C150.399 152.882 150.429 152.997 150.378 153.086C150.325 153.176 150.21 153.206 150.122 153.155L126.736 139.653C124.961 138.629 122.083 138.628 120.322 139.653L97.0879 153.155C97.0579 153.172 97.0258 153.18 96.9936 153.18Z" fill="#DBDEE4"/>
<path d="M134.765 142.891C135.331 142.891 135.88 143.02 136.269 143.245C136.582 143.426 136.762 143.648 136.762 143.854C136.762 144.057 136.586 144.277 136.279 144.455C135.893 144.68 135.347 144.808 134.781 144.808C134.215 144.808 133.667 144.679 133.277 144.455C132.964 144.274 132.785 144.052 132.784 143.845C132.784 143.642 132.96 143.423 133.267 143.244C133.653 143.02 134.199 142.891 134.765 142.891Z" fill="#383C43"/>
<path d="M115.335 141.125C115.901 141.125 116.45 141.254 116.839 141.479C117.152 141.66 117.332 141.881 117.332 142.088C117.332 142.291 117.156 142.51 116.849 142.689C116.463 142.913 115.917 143.042 115.351 143.042C114.785 143.042 114.237 142.913 113.848 142.689C113.534 142.508 113.355 142.286 113.354 142.079C113.354 141.875 113.53 141.656 113.837 141.478C114.223 141.254 114.769 141.125 115.335 141.125Z" fill="#383C43"/>
<path d="M168.207 137.83C168.175 137.83 168.142 137.821 168.113 137.804L155.298 130.312C154.842 130.047 154.559 129.554 154.559 129.026V92.3654C154.559 92.262 154.643 92.1782 154.746 92.1782C154.849 92.1782 154.933 92.2619 154.933 92.3654V129.026C154.933 129.421 155.145 129.79 155.487 129.988L168.301 137.481C168.39 137.533 168.42 137.648 168.368 137.737C168.333 137.797 168.271 137.83 168.207 137.83Z" fill="#DBDEE4"/>
<g opacity="0.1">
<path d="M182.621 194.79L154.567 178.488L182.572 162.319L210.625 178.622L182.621 194.79Z" fill="#010101"/>
</g>
<path d="M182.67 190.129L154.835 173.953L182.622 157.911L210.456 174.086L182.67 190.129Z" fill="white"/>
<path d="M182.67 190.315C182.637 190.315 182.604 190.306 182.575 190.289L154.741 174.114C154.684 174.08 154.648 174.018 154.648 173.951C154.648 173.885 154.684 173.823 154.742 173.79L182.528 157.747C182.587 157.714 182.658 157.714 182.716 157.747L210.551 173.923C210.609 173.957 210.644 174.018 210.644 174.085C210.644 174.152 210.608 174.213 210.55 174.247L182.763 190.289C182.734 190.306 182.702 190.315 182.67 190.315ZM155.209 173.952L182.67 189.911L210.083 174.084L182.622 158.126L155.209 173.952Z" fill="#383C43"/>
<path d="M182.67 190.128L154.836 173.953L154.745 142.017L182.58 158.193L182.67 190.128Z" fill="white"/>
<path d="M182.67 190.315C182.638 190.315 182.605 190.307 182.576 190.29L154.742 174.114C154.685 174.081 154.649 174.019 154.649 173.953L154.559 142.017C154.559 141.95 154.594 141.888 154.652 141.855C154.711 141.821 154.782 141.821 154.84 141.855L182.674 158.031C182.731 158.064 182.767 158.126 182.767 158.192L182.858 190.128C182.858 190.195 182.822 190.257 182.764 190.29C182.735 190.307 182.703 190.315 182.67 190.315ZM155.024 173.845L182.483 189.803L182.393 158.3L154.934 142.343L155.024 173.845Z" fill="#383C43"/>
<path d="M182.58 158.192L154.745 142.017L182.532 125.974L210.366 142.15L182.58 158.192Z" fill="#FFF7E4"/>
<path d="M182.58 158.38C182.548 158.38 182.515 158.372 182.486 158.355L154.651 142.179C154.594 142.145 154.559 142.084 154.559 142.017C154.559 141.95 154.594 141.888 154.652 141.855L182.439 125.813C182.497 125.779 182.568 125.779 182.626 125.813L210.461 141.988C210.519 142.022 210.554 142.084 210.554 142.151C210.554 142.217 210.518 142.279 210.461 142.312L182.673 158.355C182.644 158.372 182.612 158.38 182.58 158.38ZM155.119 142.018L182.58 157.977L209.994 142.15L182.532 126.191L155.119 142.018Z" fill="#383C43"/>
<path d="M199.752 148.284L193.278 152.019L165.442 135.845L171.916 132.109L199.752 148.284Z" fill="#212121"/>
<path d="M193.277 152.206C193.245 152.206 193.212 152.198 193.183 152.181L165.347 136.007C165.289 135.973 165.254 135.911 165.254 135.845C165.254 135.778 165.29 135.716 165.347 135.683L171.821 131.948C171.88 131.914 171.951 131.914 172.009 131.948L199.845 148.122C199.903 148.156 199.938 148.218 199.938 148.285C199.938 148.351 199.902 148.413 199.845 148.446L193.371 152.181C193.342 152.198 193.31 152.206 193.277 152.206ZM165.815 135.846L193.277 151.803L199.378 148.284L171.915 132.326L165.815 135.846Z" fill="#383C43"/>
<path d="M210.458 174.088L182.667 190.13L182.578 158.195L193.278 152.019L199.751 148.284L210.369 142.153L210.458 174.088Z" fill="#FFBE2E"/>
<path d="M182.667 190.317C182.635 190.317 182.603 190.309 182.573 190.293C182.516 190.259 182.48 190.198 182.48 190.131L182.391 158.195C182.391 158.128 182.426 158.066 182.484 158.033L210.275 141.991C210.334 141.957 210.404 141.958 210.462 141.991C210.52 142.024 210.556 142.086 210.556 142.153L210.645 174.088C210.645 174.155 210.609 174.217 210.551 174.25L182.76 190.292C182.731 190.309 182.699 190.317 182.667 190.317ZM182.765 158.303L182.853 189.807L210.271 173.98L210.182 142.476L182.765 158.303Z" fill="#383C43"/>
<path d="M192.626 171.149C192.559 171.187 192.492 171.257 192.441 171.348L190.622 174.678C190.477 174.944 190.589 175.176 190.805 175.051L191.585 174.6L191.605 181.501C191.605 181.619 191.689 181.666 191.791 181.607L193.514 180.613C193.619 180.552 193.7 180.409 193.7 180.292L193.68 173.391L194.46 172.94C194.676 172.816 194.787 172.455 194.642 172.357L192.808 171.136C192.759 171.103 192.693 171.11 192.626 171.149Z" fill="#212121"/>
<path d="M187.279 174.236C187.212 174.274 187.146 174.343 187.097 174.432L185.276 177.764C185.13 178.03 185.245 178.26 185.461 178.136L186.241 177.685L186.261 184.586C186.261 184.703 186.343 184.753 186.447 184.692L188.171 183.698C188.273 183.639 188.356 183.494 188.356 183.377L188.336 176.476L189.116 176.025C189.332 175.901 189.443 175.54 189.294 175.445L187.462 174.222C187.412 174.189 187.345 174.197 187.279 174.236Z" fill="#212121"/>
<path d="M193.289 151.989L193.289 160.497L196.52 155.222L199.751 156.791L199.75 148.283L193.289 151.989Z" fill="#212121"/>
<path d="M193.289 160.685C193.273 160.685 193.256 160.683 193.239 160.678C193.158 160.656 193.102 160.582 193.102 160.498L193.102 151.99C193.102 151.923 193.137 151.861 193.196 151.828L199.657 148.122C199.714 148.089 199.787 148.089 199.844 148.122C199.901 148.155 199.937 148.217 199.937 148.284L199.938 156.792C199.938 156.857 199.905 156.917 199.85 156.951C199.795 156.986 199.729 156.989 199.669 156.961L196.591 155.466L193.449 160.596C193.414 160.652 193.353 160.685 193.289 160.685ZM193.476 152.099L193.477 159.835L196.36 155.126C196.411 155.043 196.516 155.014 196.602 155.055L199.564 156.493L199.563 148.607L193.476 152.099Z" fill="#383C43"/>
<g opacity="0.1">
<path d="M154.823 210.816L126.77 194.513L154.775 178.345L182.828 194.647L154.823 210.816Z" fill="#010101"/>
</g>
<path d="M154.872 206.154L127.037 189.978L154.824 173.936L182.658 190.111L154.872 206.154Z" fill="white"/>
<path d="M154.873 206.341C154.84 206.341 154.808 206.333 154.778 206.316L126.943 190.14C126.886 190.106 126.851 190.045 126.851 189.978C126.851 189.911 126.886 189.849 126.944 189.816L154.731 173.773C154.789 173.74 154.86 173.74 154.918 173.773L182.753 189.949C182.811 189.983 182.846 190.045 182.846 190.111C182.846 190.178 182.81 190.24 182.753 190.273L154.966 206.316C154.937 206.332 154.905 206.341 154.873 206.341ZM127.411 189.978L154.873 205.937L182.286 190.111L154.824 174.152L127.411 189.978Z" fill="#383C43"/>
<path d="M154.872 206.154L127.038 189.978L126.947 158.042L154.782 174.218L154.872 206.154Z" fill="#212121"/>
<path d="M154.873 206.341C154.841 206.341 154.808 206.332 154.779 206.315L126.944 190.14C126.887 190.106 126.851 190.045 126.851 189.978L126.761 158.043C126.761 157.976 126.797 157.914 126.854 157.88C126.913 157.847 126.984 157.847 127.042 157.88L154.877 174.056C154.934 174.09 154.97 174.151 154.97 174.218L155.06 206.153C155.06 206.22 155.025 206.282 154.967 206.315C154.938 206.332 154.906 206.341 154.873 206.341ZM127.226 189.87L154.686 205.828L154.596 174.326L127.136 158.368L127.226 189.87Z" fill="#383C43"/>
<path d="M154.782 174.219L126.947 158.043L154.734 142L182.569 158.176L154.782 174.219Z" fill="#FFF7E4"/>
<path d="M154.783 174.406C154.751 174.406 154.718 174.397 154.688 174.381L126.854 158.205C126.796 158.171 126.761 158.109 126.761 158.042C126.761 157.976 126.797 157.914 126.854 157.881L154.642 141.838C154.7 141.805 154.771 141.805 154.829 141.838L182.663 158.014C182.721 158.048 182.756 158.109 182.756 158.176C182.756 158.243 182.72 158.305 182.663 158.338L154.876 174.381C154.847 174.397 154.815 174.406 154.783 174.406ZM127.321 158.043L154.783 174.002L182.196 158.175L154.735 142.216L127.321 158.043Z" fill="#383C43"/>
<path d="M171.954 164.31L165.481 168.045L137.645 151.87L144.118 148.135L171.954 164.31Z" fill="#212121"/>
<path d="M165.48 168.232C165.448 168.232 165.415 168.224 165.386 168.207L137.55 152.032C137.492 151.999 137.457 151.937 137.457 151.87C137.457 151.803 137.493 151.742 137.551 151.708L144.024 147.973C144.083 147.94 144.154 147.94 144.212 147.973L172.048 164.148C172.105 164.181 172.14 164.243 172.14 164.31C172.14 164.377 172.105 164.438 172.047 164.472L165.574 168.207C165.545 168.224 165.513 168.232 165.48 168.232ZM138.018 151.871L165.48 167.829L171.58 164.309L144.118 148.352L138.018 151.871Z" fill="#383C43"/>
<path d="M182.661 190.114L154.871 206.156L154.781 174.22L165.481 168.045L171.954 164.309L182.572 158.178L182.661 190.114Z" fill="#FFBE2E"/>
<path d="M154.871 206.343C154.839 206.343 154.807 206.334 154.777 206.318C154.72 206.285 154.684 206.223 154.684 206.156L154.595 174.221C154.595 174.154 154.63 174.092 154.688 174.058L182.478 158.016C182.537 157.983 182.607 157.983 182.666 158.016C182.723 158.049 182.759 158.111 182.759 158.178L182.848 190.113C182.848 190.18 182.813 190.242 182.755 190.276L154.965 206.318C154.935 206.334 154.903 206.343 154.871 206.343ZM154.969 174.328L155.057 205.832L182.474 190.006L182.386 158.502L154.969 174.328Z" fill="#383C43"/>
<path d="M164.828 187.174C164.762 187.213 164.694 187.282 164.643 187.373L162.825 190.703C162.679 190.969 162.791 191.201 163.007 191.076L163.787 190.626L163.807 197.526C163.807 197.644 163.891 197.692 163.993 197.633L165.717 196.638C165.821 196.578 165.902 196.435 165.902 196.317L165.882 189.416L166.662 188.966C166.878 188.841 166.989 188.481 166.845 188.382L165.01 187.161C164.962 187.128 164.895 187.135 164.828 187.174Z" fill="#212121"/>
<path d="M159.483 190.261C159.416 190.299 159.35 190.368 159.301 190.457L157.48 193.789C157.335 194.055 157.449 194.285 157.665 194.161L158.445 193.71L158.465 200.611C158.465 200.728 158.547 200.778 158.651 200.717L160.374 199.722C160.477 199.663 160.56 199.519 160.56 199.402L160.54 192.501L161.32 192.05C161.536 191.926 161.647 191.565 161.498 191.469L159.666 190.247C159.616 190.214 159.549 190.222 159.483 190.261Z" fill="#212121"/>
<path d="M165.491 168.016L165.492 176.524L168.722 171.249L171.953 172.818L171.952 164.31L165.491 168.016Z" fill="#212121"/>
<path d="M165.491 176.711C165.474 176.711 165.457 176.709 165.44 176.704C165.359 176.682 165.304 176.608 165.304 176.524V168.016C165.304 167.949 165.339 167.887 165.398 167.854L171.859 164.148C171.916 164.115 171.989 164.115 172.046 164.148C172.104 164.182 172.139 164.243 172.139 164.31V172.818C172.139 172.882 172.106 172.942 172.052 172.977C171.997 173.011 171.929 173.015 171.87 172.987L168.793 171.492L165.65 176.622C165.616 176.679 165.554 176.711 165.491 176.711ZM165.678 168.125V175.861L168.563 171.152C168.613 171.069 168.718 171.04 168.804 171.081L171.765 172.519V164.633L165.678 168.125Z" fill="#383C43"/>
<g opacity="0.1">
<path d="M103.192 171.511L35.0924 210.817L19 201.464L87.0777 162.148L103.192 171.511Z" fill="#010101"/>
</g>
<path d="M91.912 19.5665C90.891 18.9771 89.4614 19.0625 87.8952 19.9705L29.3295 53.791C28.3861 54.3356 27.498 55.1092 26.7215 56.0317C26.2125 56.6204 25.7467 57.281 25.3483 57.9711C24.9499 58.6613 24.6117 59.3768 24.3453 60.115C23.9225 61.27 23.6844 62.447 23.6947 63.5515L24.0624 192.895C24.0606 194.687 24.6884 195.941 25.7024 196.527L37.503 203.377C36.482 202.787 35.8471 201.529 35.8518 199.748L35.477 70.4004C35.4679 69.2778 35.71 68.0937 36.1479 66.9286C36.4144 66.1906 36.7597 65.4791 37.1581 64.789C37.5565 64.0988 38.0182 63.4452 38.5313 62.8495C39.3037 61.934 40.1878 61.1674 41.12 60.6258L99.6773 26.8193C101.262 25.9125 102.673 25.826 103.715 26.4277L91.912 19.5665Z" fill="#212121"/>
<path d="M38.5327 62.8497L26.7229 56.0317C26.2138 56.6204 25.748 57.2811 25.3496 57.9712C24.9513 58.6613 24.6131 59.3769 24.3467 60.1151L36.1493 66.9288C36.4158 66.1908 36.7611 65.4792 37.1594 64.7891C37.5578 64.099 38.0195 63.4455 38.5327 62.8497Z" fill="#FFBE2E"/>
<path d="M37.5028 203.565C37.4707 203.565 37.4384 203.557 37.4092 203.54C37.4041 203.537 37.3982 203.534 37.3931 203.531L25.6124 196.688C24.4925 196.041 23.8756 194.694 23.8756 192.896L23.505 63.5531C23.4962 61.7746 24.0942 59.7585 25.1892 57.8773C26.2689 56.0232 27.706 54.5133 29.236 53.6259L87.8017 19.8079C89.3793 18.8916 90.8733 18.7502 92.0108 19.407L103.814 26.2622C103.903 26.3141 103.933 26.4285 103.882 26.5181C103.83 26.6073 103.713 26.6376 103.626 26.586C103.626 26.586 103.626 26.586 103.626 26.586L103.621 26.5835C102.609 26.002 101.243 26.1427 99.7776 26.9808L41.2163 60.7914C39.7449 61.6408 38.3617 63.0937 37.3201 64.882C36.2477 66.7256 35.6615 68.6854 35.6688 70.4002L36.0394 199.743C36.0336 201.4 36.5862 202.633 37.5964 203.216H37.5972C37.6864 203.268 37.7164 203.382 37.6652 203.472C37.63 203.531 37.5671 203.565 37.5028 203.565ZM90.4341 19.3744C89.6878 19.3744 88.8551 19.6288 87.9896 20.1317L29.423 53.9497C27.9486 54.805 26.5597 56.2666 25.5122 58.0656C24.4508 59.8902 23.8711 61.8387 23.8791 63.5518L24.2497 192.896C24.2497 194.555 24.8002 195.787 25.8002 196.364L36.3302 202.481C35.8916 201.774 35.6606 200.842 35.6649 199.743L35.2943 70.4015C35.2863 68.6215 35.8908 66.5944 36.9968 64.6939C38.0699 62.85 39.502 61.3489 41.029 60.4677L99.5911 26.6564C100.575 26.0939 101.53 25.8231 102.373 25.8588L91.8228 19.7309C91.4114 19.4928 90.9428 19.3744 90.4341 19.3744Z" fill="#383C43"/>
<path d="M96.0054 29.1276C95.9732 29.1276 95.9411 29.1196 95.9119 29.1023L84.0866 22.2755C83.9974 22.224 83.9668 22.1096 84.0179 22.02C84.0705 21.9297 84.1853 21.8998 84.2737 21.9517L96.099 28.7784C96.1882 28.8299 96.2189 28.9444 96.1678 29.0339C96.1326 29.094 96.0698 29.1276 96.0054 29.1276Z" fill="#383C43"/>
<path d="M29.85 85.9158C29.3526 85.6384 28.9017 85.6038 28.5783 85.79L27.3789 86.4775C27.7096 86.2956 28.1531 86.326 28.6504 86.6033C29.6439 87.1769 30.4471 88.5726 30.4505 89.7226L30.4499 99.7716C30.4451 100.358 30.242 100.76 29.9144 100.954L31.1138 100.266C31.4415 100.073 31.6446 99.6701 31.6492 99.0841L31.6499 89.035C31.6467 87.8852 30.8432 86.4893 29.85 85.9158Z" fill="#212121"/>
<path d="M29.9152 101.14C29.8509 101.14 29.788 101.107 29.7537 101.048C29.7018 100.958 29.7318 100.844 29.8203 100.792C30.1024 100.626 30.2596 100.263 30.2632 99.7698L30.2638 89.7223C30.2602 88.6331 29.4949 87.306 28.557 86.7646C28.1374 86.5311 27.75 86.4869 27.4701 86.6408C27.3786 86.6915 27.2669 86.659 27.2164 86.5688C27.166 86.4792 27.1974 86.3659 27.2866 86.3148L28.4862 85.6274C28.8781 85.4019 29.3941 85.4475 29.9417 85.7524C29.9423 85.7527 29.9431 85.7531 29.9439 85.7538C31.0024 86.3645 31.8343 87.8054 31.8379 89.0342L31.8373 99.0839C31.8329 99.7148 31.6092 100.191 31.2094 100.427L30.0083 101.116C29.9788 101.132 29.9467 101.14 29.9152 101.14ZM28.2017 86.2216C28.3765 86.2641 28.5577 86.3367 28.742 86.4395C29.8027 87.0517 30.6346 88.4928 30.6381 89.7216L30.6373 99.7714C30.6359 99.991 30.6074 100.192 30.5547 100.371L31.0211 100.104C31.301 99.9385 31.4589 99.5752 31.4626 99.0825L31.4633 89.035C31.4597 87.9465 30.695 86.6204 29.7579 86.0784C29.3303 85.8401 28.9451 85.7959 28.6724 85.952L28.2017 86.2216Z" fill="#383C43"/>
<path d="M30.4492 89.7226C30.4492 88.57 29.6433 87.1743 28.6484 86.6037C27.6533 86.0331 26.8475 86.5043 26.8477 87.657L26.8489 97.7088C26.8489 98.8615 27.6548 100.257 28.6497 100.828C29.6448 101.398 30.4505 100.927 30.4504 99.7744L30.4492 89.7226Z" fill="#FFBE2E"/>
<path d="M29.4483 101.259C29.1705 101.259 28.8671 101.169 28.5564 100.991C27.5111 100.391 26.6609 98.9193 26.6609 97.7095L26.6602 87.658C26.6602 87.029 26.8817 86.5542 27.2837 86.321C27.6836 86.0889 28.2011 86.1328 28.7406 86.4423C29.7859 87.0413 30.6361 88.5135 30.6361 89.7233L30.6369 99.7752C30.6369 100.404 30.4153 100.879 30.0133 101.112C29.8438 101.21 29.6529 101.259 29.4483 101.259ZM27.8503 86.5487C27.7107 86.5487 27.5828 86.5805 27.4717 86.6448C27.1895 86.8082 27.0345 87.1678 27.0345 87.658L27.0353 97.7095C27.0353 98.7998 27.8014 100.126 28.7422 100.666C29.1624 100.907 29.547 100.95 29.8254 100.788C30.1076 100.625 30.2626 100.265 30.2626 99.7753L30.2618 89.7234C30.2618 88.6332 29.4957 87.3068 28.555 86.7669C28.3021 86.6222 28.0623 86.5487 27.8503 86.5487Z" fill="#383C43"/>
<path d="M31.7278 142.694C31.7278 141.445 30.8542 139.932 29.7755 139.313C28.6968 138.694 27.8232 139.205 27.8232 140.455L27.8261 164.727C27.8261 165.976 28.6998 167.489 29.7785 168.108C30.8572 168.726 31.7307 168.216 31.7307 166.966L31.7278 142.694Z" fill="#FFBE2E"/>
<path d="M30.6373 142.094C30.6373 142.636 30.2543 142.853 29.7864 142.585C29.3123 142.313 28.9355 141.66 28.9355 141.118C28.9355 140.562 29.3123 140.341 29.7864 140.613C30.2542 140.882 30.6372 141.538 30.6373 142.094Z" fill="#212121"/>
<path d="M41.5272 202.98C38.3992 204.786 35.8593 203.339 35.8489 199.744L35.4785 70.4022C35.4682 66.8079 37.9915 62.4372 41.1194 60.6312L99.6823 26.8175C102.81 25.0114 105.35 26.4588 105.361 30.053L105.731 159.395C105.741 162.989 103.218 167.36 100.09 169.166L41.5272 202.98Z" fill="#383C43"/>
<path d="M38.9857 203.947C38.414 203.947 37.8847 203.813 37.4162 203.543C36.2905 202.896 35.6677 201.546 35.6626 199.744L35.292 70.4024C35.2818 66.757 37.8542 62.3008 41.0267 60.469L99.5896 26.6554C101.168 25.7431 102.66 25.6014 103.795 26.2534C104.921 26.9014 105.544 28.2505 105.549 30.0524L105.919 159.394C105.929 163.04 103.357 167.496 100.185 169.328L41.6217 203.141C40.6955 203.676 39.7979 203.947 38.9857 203.947ZM102.224 26.2247C101.478 26.2247 100.644 26.478 99.7765 26.9791L41.2136 60.7926C38.1449 62.5649 35.6559 66.8755 35.6662 70.4015L36.0368 199.744C36.0411 201.406 36.5975 202.641 37.6033 203.219C38.6143 203.802 39.9768 203.66 41.4345 202.817L99.9974 169.004C103.066 167.232 105.555 162.921 105.545 159.395L105.174 30.0529C105.17 28.3903 104.614 27.1564 103.608 26.5778C103.198 26.3421 102.731 26.2247 102.224 26.2247Z" fill="#383C43"/>
<path d="M103.16 27.3629C103.86 27.7669 104.267 28.7501 104.27 30.0548L104.641 159.398C104.646 160.947 104.115 162.725 103.143 164.409C102.175 166.085 100.897 167.44 99.5457 168.224L40.9838 202.035C39.8352 202.7 38.7663 202.848 38.054 202.437C37.3543 202.033 36.9469 201.049 36.9435 199.745L36.5733 70.4016C36.5684 68.8522 37.099 67.0741 38.0707 65.3909C39.0388 63.714 40.317 62.359 41.6685 61.5759L100.23 27.7644C101.379 27.0994 102.448 26.9515 103.16 27.3629Z" fill="#FFF7E4"/>
<path d="M38.9845 202.852C38.6008 202.852 38.2543 202.768 37.9603 202.598C37.1986 202.159 36.7593 201.118 36.7564 199.745L36.3858 70.402C36.3814 68.8179 36.9223 67.0051 37.9084 65.2971C38.8924 63.5928 40.1943 62.2138 41.5751 61.4137L100.136 27.6024C101.346 26.9014 102.484 26.7555 103.253 27.2007C104.015 27.6404 104.454 28.6806 104.457 30.0541L104.828 159.397C104.833 160.979 104.293 162.792 103.306 164.502C102.32 166.207 101.019 167.586 99.6392 168.385L41.0774 202.197C40.3288 202.631 39.608 202.852 38.9845 202.852ZM102.227 27.3198C101.673 27.3198 101.017 27.5252 100.324 27.9261L41.7623 61.7375C40.4377 62.505 39.184 63.8358 38.233 65.4842C37.2791 67.1358 36.7557 68.8819 36.76 70.4012L37.1307 199.744C37.1335 200.98 37.5042 201.903 38.1475 202.274C38.8003 202.652 39.8002 202.504 40.8902 201.873L99.4523 168.061C100.775 167.295 102.029 165.964 102.981 164.315C103.936 162.662 104.459 160.915 104.454 159.398L104.083 30.0549C104.08 28.8184 103.71 27.8962 103.066 27.5245C102.829 27.3874 102.544 27.3198 102.227 27.3198Z" fill="#212121"/>
<path d="M57.2279 59.4071C58.0977 58.9115 80.1632 46.2506 81.1867 45.6635C82.8223 44.7238 84.1527 42.4194 84.1548 40.5315L84.1512 37.0908C83.1277 37.6779 55.4285 53.5711 54.2622 54.2403L54.2617 57.6787C54.2636 59.5689 55.5924 60.3467 57.2279 59.4071Z" fill="#383C43"/>
<path d="M55.9151 59.9937C55.5986 59.9937 55.3048 59.9188 55.0438 59.7679C54.4196 59.4071 54.076 58.6648 54.0752 57.678V54.2394C54.0752 54.1725 54.1111 54.1104 54.1695 54.0771C54.8581 53.6824 64.7923 47.9821 73.027 43.2569L84.0591 36.9276C84.1161 36.8947 84.1886 36.8944 84.2456 36.9279C84.3033 36.9611 84.3391 37.0229 84.3391 37.0898L84.342 40.5306C84.3405 42.4813 82.967 44.8562 81.2798 45.8247C80.1877 46.4515 58.1819 59.078 57.3215 59.5686C56.8303 59.8512 56.3515 59.9937 55.9151 59.9937ZM54.4495 54.3479V57.678C54.4502 58.5256 54.728 59.1527 55.2309 59.444C55.7316 59.7328 56.4064 59.6614 57.1358 59.2441V59.2437C57.9881 58.758 80.0013 46.1275 81.0942 45.5003C82.6768 44.5914 83.9663 42.3618 83.9677 40.5307L83.9648 37.4129L73.2134 43.5818C65.2419 48.1557 55.6776 53.6433 54.4495 54.3479Z" fill="#212121"/>
<path d="M77.1897 45.3051C77.5288 44.7178 77.7157 44.0937 77.7157 43.5488C77.7157 43.0582 77.5668 42.7015 77.2961 42.5445C77.0292 42.3904 76.6535 42.4365 76.2378 42.6746L57.6732 53.3245C57.2018 53.5951 56.7548 54.0685 56.4143 54.6583C56.0733 55.2492 55.8854 55.877 55.8857 56.4255C55.8855 56.9105 56.0337 57.2633 56.3028 57.4186C56.5707 57.574 56.9484 57.5276 57.3664 57.288L75.9306 46.6386C76.4026 46.3677 76.8495 45.8943 77.1897 45.3051Z" fill="#FFBE2E"/>
<path d="M82.0036 42.5436C82.3426 41.9564 82.5293 41.3328 82.5293 40.7879C82.5296 40.2974 82.3804 39.9412 82.11 39.7845C81.843 39.6297 81.4659 39.6765 81.0485 39.9156C80.577 40.1862 80.1301 40.6596 79.7895 41.2494C79.4485 41.8403 79.2604 42.4679 79.2607 43.0165C79.2609 43.501 79.4089 43.8537 79.6778 44.0096C79.9457 44.165 80.3236 44.1187 80.7416 43.8792C81.2151 43.6075 81.6631 43.1334 82.0036 42.5436Z" fill="white"/>
<path d="M81.5554 42.282C81.757 41.9329 81.868 41.5622 81.868 41.2382C81.8681 40.9466 81.7794 40.7349 81.6187 40.6417C81.46 40.5497 81.2358 40.5775 80.9876 40.7197C80.7074 40.8805 80.4416 41.162 80.2392 41.5126C80.0365 41.8639 79.9246 42.2371 79.9248 42.5633C79.9248 42.8512 80.0129 43.061 80.1727 43.1536C80.332 43.246 80.5566 43.2185 80.8051 43.0761C81.0867 42.9145 81.353 42.6327 81.5554 42.282Z" fill="#FFBE2E"/>
<path d="M84.0551 31.8329C85.2565 31.1392 85.247 30.0131 84.0536 29.3196C82.8443 28.6168 80.9162 28.6171 79.7147 29.3107C78.4823 30.0224 78.4757 31.1392 79.6851 31.842C80.8785 32.5354 82.8225 32.5446 84.0551 31.8329Z" fill="#FFBE2E"/>
<path d="M35.5048 78.9835C35.4727 78.9835 35.4405 78.9755 35.4112 78.9583L23.6218 72.1523C23.5326 72.1008 23.5019 71.9864 23.5531 71.8968C23.605 71.8065 23.7212 71.7769 23.809 71.8285L35.5984 78.6344C35.6876 78.686 35.7183 78.8004 35.6672 78.8899C35.632 78.9498 35.5691 78.9835 35.5048 78.9835Z" fill="#383C43"/>
<path d="M35.8292 192.342C35.7971 192.342 35.7649 192.334 35.7357 192.317L23.947 185.511C23.8578 185.46 23.8271 185.345 23.8783 185.256C23.9302 185.165 24.0464 185.136 24.1342 185.187L35.9228 191.993C36.0121 192.045 36.0427 192.159 35.9915 192.248C35.9564 192.308 35.8935 192.342 35.8292 192.342Z" fill="#383C43"/>
<path d="M83.9749 103.936L52.2548 122.246C50.9324 123.01 49.279 122.058 49.2747 120.531L49.1729 84.1082C49.1688 82.6211 49.9605 81.2454 51.2484 80.5021L63.3239 73.5324L71.8894 68.59L82.9681 62.1925C84.2906 61.4289 85.9442 62.3805 85.9485 63.9076L86.0504 100.33C86.0545 101.817 85.2629 103.193 83.9749 103.936Z" fill="#978050"/>
<path d="M51.2607 122.703C50.8879 122.703 50.5158 122.605 50.1759 122.41C49.4961 122.018 49.0889 121.316 49.0867 120.531L48.9844 84.1085C48.9807 82.5587 49.8118 81.1147 51.1539 80.3402L82.8733 62.0306C83.5538 61.6384 84.3659 61.6373 85.045 62.0288C85.7256 62.4203 86.1327 63.1224 86.135 63.9071L86.2366 100.33C86.2411 101.879 85.4099 103.323 84.0677 104.098L52.3477 122.408C52.0071 122.604 51.6343 122.703 51.2607 122.703ZM83.961 62.1107C83.6518 62.1107 83.3425 62.1918 83.0604 62.3545L51.3411 80.664C50.1145 81.372 49.355 82.6915 49.3587 84.1077L49.461 120.53C49.4632 121.18 49.8001 121.761 50.3623 122.085C50.9259 122.41 51.5984 122.409 52.1606 122.084L83.8805 103.774C85.1071 103.066 85.8667 101.746 85.8622 100.331L85.7606 63.9077C85.7584 63.2583 85.4214 62.6772 84.8585 62.3529C84.5772 62.1915 84.2695 62.1107 83.961 62.1107Z" fill="#383C43"/>
<path d="M62.4612 98.8432C62.3729 98.8942 62.2839 98.9863 62.2165 99.1064L59.8097 103.513C59.6168 103.865 59.7654 104.171 60.0512 104.006L61.0837 103.41L61.1096 112.541C61.11 112.697 61.221 112.76 61.3562 112.682L63.6363 111.366C63.7746 111.286 63.8817 111.097 63.8812 110.941L63.8553 101.81L64.8878 101.214C65.1737 101.049 65.32 100.572 65.1288 100.442L62.7019 98.8262C62.6372 98.7822 62.5496 98.7922 62.4612 98.8432Z" fill="#FFF7E4"/>
<path d="M55.3854 102.929C55.2974 102.98 55.2099 103.071 55.1456 103.189L52.7358 107.597C52.5428 107.949 52.6946 108.254 52.9803 108.089L54.0128 107.493L54.0387 116.624C54.0391 116.78 54.147 116.845 54.2853 116.765L56.5654 115.449C56.7006 115.371 56.8108 115.18 56.8105 115.024L56.7846 105.893L57.8171 105.297C58.1029 105.132 58.2492 104.655 58.0519 104.528L55.6281 102.911C55.5618 102.868 55.4733 102.878 55.3854 102.929Z" fill="#FFF7E4"/>
<path d="M63.3379 73.5238L63.3384 87.0653L67.6131 80.0853L71.8879 82.1612L71.8873 68.5894L63.3379 73.5238Z" fill="#FFBE2E"/>
<path d="M63.3392 87.2531C63.3225 87.2531 63.3057 87.2509 63.2888 87.2461C63.2077 87.2234 63.1522 87.1496 63.1522 87.0659L63.1514 73.5246C63.1514 73.4577 63.1871 73.396 63.2449 73.3626L71.7946 68.4281C71.853 68.3944 71.9232 68.3944 71.9818 68.4281C72.0395 68.4613 72.0753 68.5231 72.0753 68.5901V82.162C72.0753 82.2263 72.0424 82.2863 71.9875 82.3207C71.9327 82.3554 71.8654 82.3587 71.8062 82.3305L67.6849 80.3283L63.4985 87.1635C63.4642 87.2202 63.4029 87.2531 63.3392 87.2531ZM63.5256 73.6328L63.5264 86.4021L67.4548 79.9884C67.5052 79.9057 67.6098 79.8773 67.696 79.9175L71.7011 81.8631V68.9143L63.5256 73.6328Z" fill="#383C43"/>
<path d="M90.1051 76.9029C93.9855 74.6626 97.1439 76.4624 97.1566 80.9213C97.1692 85.3847 94.0314 90.8196 90.151 93.06L78.7515 99.6808L78.7601 102.749L71.8887 101.733L78.7319 92.7982L78.7406 95.8714L90.1401 89.2506C92.1898 88.0673 93.8479 85.1953 93.8412 82.8354C93.8345 80.4802 92.1656 79.5291 90.1159 80.7124L86.0568 83.0107L86.046 79.2012L90.1051 76.9029Z" fill="#212121"/>
<path d="M78.7591 102.936C78.7503 102.936 78.7408 102.935 78.7321 102.934L71.8601 101.918C71.7943 101.908 71.7387 101.864 71.7139 101.803C71.689 101.741 71.6985 101.672 71.7387 101.619L78.5823 92.6843C78.6305 92.6207 78.7132 92.5944 78.7906 92.6207C78.8666 92.6462 78.9178 92.7172 78.9178 92.7975L78.9258 95.5464L90.0443 89.0881C92.0413 87.9357 93.6598 85.1308 93.6525 82.8355C93.6496 81.7697 93.2958 80.9803 92.6561 80.6122C92.0107 80.2413 91.1415 80.3356 90.2081 80.874L86.1474 83.1733C86.0896 83.2058 86.0187 83.2054 85.961 83.1721C85.904 83.1385 85.8681 83.0772 85.8681 83.0106L85.8579 79.2014C85.8579 79.1338 85.8937 79.0717 85.9528 79.038L90.0113 76.7397C91.9528 75.6188 93.7913 75.4415 95.1853 76.2441C96.5698 77.0409 97.3358 78.7017 97.3424 80.9203C97.3548 85.436 94.1699 90.9543 90.2429 93.2215L78.9374 99.7876L78.9462 102.749C78.9462 102.803 78.9228 102.855 78.8818 102.89C78.8475 102.92 78.8036 102.936 78.7591 102.936ZM72.2291 101.594L78.5712 102.532L78.5632 99.6807C78.5632 99.6141 78.5983 99.552 78.6561 99.5184L90.0552 92.8977C93.8798 90.6902 96.9807 85.3177 96.9682 80.9215C96.9623 78.8422 96.2628 77.2962 94.999 76.5689C93.7248 75.8364 92.0194 76.0122 90.1971 77.0644C90.1963 77.0648 90.1963 77.0652 90.1956 77.0656L86.2321 79.3101L86.2416 82.6899L90.0223 80.5491C91.0757 79.9417 92.0779 79.8473 92.8432 80.2882C93.6027 80.7256 94.023 81.6299 94.0267 82.8345C94.034 85.2494 92.3323 88.2 90.232 89.4121L78.8336 96.033C78.7752 96.0667 78.7035 96.0662 78.6465 96.0333C78.5881 96.0001 78.5522 95.9384 78.5522 95.8715L78.5449 93.3481L72.2291 101.594Z" fill="#212121"/>
<path d="M53.433 128.551C54.4488 127.964 55.2731 128.429 55.2764 129.596L55.3067 140.304C55.3101 141.467 54.4911 142.885 53.4754 143.472L44.1607 148.85C43.1451 149.436 42.3208 148.966 42.3174 147.804L42.2871 137.096C42.2838 135.929 43.1028 134.515 44.1184 133.929L53.433 128.551Z" fill="#FFBE2E"/>
<path d="M43.3353 149.291C43.1277 149.291 42.9347 149.241 42.7629 149.143C42.3572 148.909 42.1328 148.434 42.1306 147.805L42.1006 137.097C42.0969 135.855 42.9419 134.392 44.0253 133.767L53.3396 128.389C53.893 128.069 54.4237 128.021 54.8338 128.257C55.2387 128.49 55.4625 128.966 55.4639 129.596L55.4946 140.304C55.4975 141.526 54.6342 143.02 53.5691 143.634L44.2548 149.012C43.934 149.197 43.6211 149.291 43.3353 149.291ZM53.5268 128.713L44.2125 134.091C43.2512 134.646 42.4713 135.994 42.4749 137.095L42.5049 147.804C42.5063 148.294 42.6642 148.654 42.9494 148.818C43.2359 148.983 43.6328 148.938 44.0677 148.688L53.382 143.31C54.3433 142.755 55.1233 141.407 55.1203 140.305L55.0897 129.597C55.0882 129.106 54.931 128.745 54.6474 128.582C54.3587 128.416 53.9617 128.462 53.5268 128.713Z" fill="#383C43"/>
<path d="M47.9522 142.906C47.8477 142.906 47.7417 142.885 47.6408 142.838L45.2395 141.736C44.8638 141.564 44.6986 141.12 44.8711 140.744C45.0437 140.368 45.4888 140.203 45.8639 140.376L47.6519 141.196L51.3982 134.861C51.6087 134.505 52.0686 134.387 52.4231 134.597C52.779 134.808 52.8967 135.267 52.6862 135.622L48.5971 142.539C48.4588 142.773 48.2103 142.906 47.9522 142.906Z" fill="#212121"/>
<path d="M58.7281 127.458C58.6637 127.458 58.6002 127.425 58.5658 127.364C58.5145 127.275 58.5453 127.16 58.6352 127.109L98.6081 104.158C98.6973 104.107 98.8121 104.137 98.8632 104.227C98.9144 104.316 98.8836 104.431 98.7937 104.482L58.8208 127.434C58.7916 127.45 58.7595 127.458 58.7281 127.458Z" fill="#383C43"/>
<path d="M58.7281 133.619C58.6637 133.619 58.6002 133.585 58.5658 133.525C58.5145 133.436 58.5453 133.321 58.6352 133.27L98.6081 110.319C98.6973 110.268 98.8121 110.298 98.8632 110.388C98.9144 110.477 98.8836 110.592 98.7937 110.643L58.8208 133.594C58.7916 133.611 58.7595 133.619 58.7281 133.619Z" fill="#383C43"/>
<path d="M58.7281 139.781C58.663 139.781 58.6002 139.747 58.5658 139.686C58.5145 139.597 58.5453 139.482 58.6352 139.431L86.5262 123.456C86.6154 123.403 86.7302 123.434 86.7813 123.525C86.8325 123.615 86.8017 123.729 86.7119 123.78L58.8208 139.756C58.7916 139.773 58.7595 139.781 58.7281 139.781Z" fill="#383C43"/>
<path d="M53.433 149.369C54.4488 148.783 55.2731 149.248 55.2764 150.415L55.3067 161.123C55.3101 162.285 54.4911 163.704 53.4754 164.29L44.1607 169.668C43.1451 170.254 42.3208 169.785 42.3174 168.622L42.2871 157.914C42.2838 156.747 43.1028 155.333 44.1184 154.747L53.433 149.369Z" fill="#FFBE2E"/>
<path d="M43.3353 170.108C43.1277 170.108 42.9347 170.059 42.7629 169.961C42.3572 169.727 42.1328 169.252 42.1306 168.623L42.1006 157.915C42.0969 156.673 42.9419 155.211 44.0253 154.585L53.3396 149.207C53.893 148.887 54.4237 148.838 54.8338 149.075C55.2387 149.308 55.4625 149.784 55.4639 150.414L55.4946 161.122C55.4975 162.344 54.6342 163.838 53.5691 164.452L44.2548 169.83C43.934 170.015 43.6211 170.108 43.3353 170.108ZM53.5268 149.531L44.2125 154.909C43.2512 155.464 42.4713 156.812 42.4749 157.913L42.5049 168.622C42.5063 169.112 42.6642 169.472 42.9494 169.636C43.2359 169.801 43.6328 169.755 44.0677 169.506L53.382 164.128C54.3433 163.573 55.1233 162.225 55.1203 161.123L55.0897 150.415C55.0882 149.924 54.931 149.563 54.6474 149.399C54.3587 149.234 53.9617 149.281 53.5268 149.531Z" fill="#383C43"/>
<path d="M47.9522 163.725C47.8477 163.725 47.7417 163.703 47.6408 163.656L45.2395 162.554C44.8638 162.381 44.6986 161.937 44.8711 161.562C45.0437 161.186 45.4888 161.021 45.8639 161.194L47.6519 162.014L51.3982 155.679C51.6087 155.323 52.0686 155.206 52.4231 155.415C52.779 155.626 52.8967 156.085 52.6862 156.441L48.5971 163.357C48.4588 163.592 48.2103 163.725 47.9522 163.725Z" fill="#212121"/>
<path d="M58.7281 148.277C58.6637 148.277 58.6002 148.243 58.5658 148.183C58.5145 148.093 58.5453 147.979 58.6352 147.927L98.6081 124.976C98.6973 124.926 98.8121 124.955 98.8632 125.045C98.9144 125.135 98.8836 125.249 98.7937 125.301L58.8208 148.252C58.7916 148.269 58.7595 148.277 58.7281 148.277Z" fill="#383C43"/>
<path d="M58.7281 154.437C58.6637 154.437 58.6002 154.403 58.5658 154.343C58.5145 154.253 58.5453 154.139 58.6352 154.088L98.6081 131.136C98.6973 131.086 98.8121 131.116 98.8632 131.206C98.9144 131.295 98.8836 131.41 98.7937 131.461L58.8208 154.412C58.7916 154.429 58.7595 154.437 58.7281 154.437Z" fill="#383C43"/>
<path d="M58.7281 160.599C58.663 160.599 58.6002 160.565 58.5658 160.504C58.5145 160.415 58.5453 160.3 58.6352 160.249L86.5262 144.274C86.6154 144.222 86.7302 144.253 86.7813 144.343C86.8325 144.433 86.8017 144.547 86.7119 144.598L58.8208 160.574C58.7916 160.59 58.7595 160.599 58.7281 160.599Z" fill="#383C43"/>
<path d="M88.7429 167.134C88.7496 168.328 87.9075 169.78 86.873 170.376L57.2305 187.468C56.7067 187.766 56.2359 187.793 55.8911 187.594C55.858 187.574 55.8248 187.547 55.785 187.528C55.7452 187.494 55.6988 187.455 55.6657 187.408C55.6325 187.375 55.606 187.342 55.586 187.302C55.5529 187.256 55.5197 187.203 55.4933 187.143C55.4667 187.083 55.4402 187.017 55.4203 186.951C55.3937 186.864 55.3805 186.778 55.3673 186.679C55.3606 186.632 55.3541 186.593 55.3541 186.54C55.3474 186.493 55.3474 186.447 55.3474 186.394L55.3076 174.843C55.3076 173.65 56.143 172.198 57.1841 171.594L86.82 154.509C87.125 154.33 87.4168 154.25 87.6754 154.25C87.7351 154.25 87.7882 154.257 87.8412 154.264C87.8676 154.27 87.8941 154.27 87.9207 154.284C87.9274 154.284 87.9274 154.284 87.9274 154.284C87.987 154.297 88.04 154.317 88.0864 154.343C88.4644 154.516 88.703 154.953 88.7097 155.583L88.7429 167.134Z" fill="#FFBE2E"/>
<path d="M56.389 187.91C56.1748 187.91 55.9745 187.859 55.7969 187.756C55.7932 187.754 55.7516 187.727 55.7479 187.725C55.7326 187.714 55.7172 187.703 55.6997 187.694C55.6156 187.631 55.5579 187.58 55.5126 187.517C55.4826 187.491 55.4461 187.441 55.4183 187.385C55.3883 187.349 55.3503 187.284 55.3219 187.219C55.2919 187.153 55.2627 187.078 55.2408 187.004C55.2115 186.91 55.1954 186.814 55.1808 186.703C55.172 186.643 55.1661 186.598 55.1661 186.54C55.1602 186.511 55.1596 186.457 55.1596 186.394L55.1201 174.844C55.1201 173.571 55.9856 172.072 57.0901 171.432L86.7261 154.347C87.1092 154.123 87.5266 154.039 87.8563 154.077C87.9024 154.085 87.9353 154.091 87.9659 154.101C87.9667 154.101 87.9674 154.101 87.9674 154.101C88.047 154.119 88.1179 154.146 88.1794 154.182C88.6223 154.382 88.8891 154.896 88.8965 155.582L88.9293 167.133C88.9359 168.383 88.055 169.91 86.9659 170.539L57.3233 187.63C56.9972 187.816 56.6799 187.91 56.389 187.91ZM55.9035 187.382C55.9079 187.382 55.9328 187.398 55.9569 187.414C56.2822 187.604 56.6915 187.559 57.1367 187.306L86.7785 170.215C87.7639 169.646 88.5614 168.265 88.5547 167.136C88.5547 167.135 88.5547 167.135 88.5547 167.135L88.5219 155.584C88.516 155.051 88.3289 154.66 88.0079 154.514C87.9634 154.489 87.9268 154.476 87.8851 154.466C87.8558 154.466 87.8617 154.464 87.8361 154.451C87.7666 154.444 87.7227 154.438 87.6745 154.438C87.4362 154.438 87.1738 154.518 86.9143 154.671L57.2771 171.756C56.2939 172.326 55.4943 173.711 55.4943 174.843L55.5337 186.393C55.5337 186.438 55.5329 186.475 55.538 186.513C55.5403 186.578 55.5446 186.607 55.5497 186.639C55.5636 186.743 55.5753 186.82 55.5987 186.896C55.6163 186.956 55.6397 187.014 55.663 187.066C55.682 187.108 55.7061 187.15 55.7369 187.192C55.7625 187.237 55.7757 187.254 55.7969 187.275C55.84 187.331 55.8824 187.366 55.9029 187.383C55.9029 187.382 55.9029 187.382 55.9035 187.382Z" fill="#383C43"/>
<path d="M62.6875 178.331L63.5226 179.341L62.7267 179.801L62.0927 179.026C61.9065 178.805 61.7506 178.642 61.6349 178.53C61.5143 178.427 61.4038 178.369 61.3084 178.355C61.2181 178.333 61.1179 178.344 61.0227 178.37C60.9476 178.397 60.8324 178.457 60.6672 178.553L59.9363 178.975L59.9432 181.408L59.3124 181.772L59.2969 176.284L61.4144 175.062C61.8399 174.816 62.1654 174.68 62.3859 174.651C62.6065 174.621 62.7872 174.69 62.9181 174.868C63.0489 175.04 63.1198 175.276 63.1206 175.575C63.1217 175.966 63.0125 176.357 62.793 176.755C62.5735 177.147 62.2335 177.516 61.7781 177.848C61.9437 177.844 62.0741 177.861 62.1594 177.904C62.3454 177.993 62.5214 178.133 62.6875 178.331ZM61.2912 177.559C61.5816 177.391 61.8067 177.227 61.9718 177.062C62.1319 176.901 62.2566 176.719 62.3413 176.52C62.426 176.322 62.4705 176.129 62.47 175.951C62.4693 175.692 62.3836 175.528 62.218 175.457C62.0572 175.382 61.7968 175.452 61.4413 175.657L59.9295 176.53L59.9347 178.342L61.2912 177.559Z" fill="#212121"/>
<path d="M67.5742 171.507L67.576 172.157L64.7577 173.784L64.7625 175.464L67.4056 173.938L67.4074 174.582L64.7643 176.108L64.7696 177.977L67.6981 176.287L67.6999 176.931L64.1357 178.989L64.1201 173.501L67.5742 171.507Z" fill="#212121"/>
<path d="M71.9887 168.958L71.9906 169.608L70.4087 170.521L70.4224 175.359L69.7916 175.723L69.778 170.885L68.2011 171.796L68.1992 171.146L71.9887 168.958Z" fill="#212121"/>
<path d="M76.4041 166.408L76.413 169.578C76.4146 170.13 76.3608 170.605 76.2516 170.99C76.1474 171.373 75.9529 171.751 75.6682 172.122C75.3833 172.488 75.0132 172.806 74.5527 173.072C74.1072 173.329 73.7365 173.451 73.4556 173.44C73.1698 173.427 72.9638 173.286 72.8427 173.022C72.7216 172.752 72.6552 172.335 72.6535 171.748L72.6445 168.579L73.2803 168.212L73.2893 171.381C73.2907 171.859 73.3267 172.189 73.4074 172.367C73.4832 172.548 73.6188 172.649 73.8044 172.663C73.9949 172.674 74.2254 172.604 74.4957 172.448C74.9613 172.179 75.2913 171.867 75.4859 171.513C75.6855 171.156 75.7843 170.632 75.7823 169.942L75.7733 166.772L76.4041 166.408Z" fill="#212121"/>
<path d="M80.8553 167.843L81.6904 168.853L80.8995 169.31L80.2605 168.538C80.0743 168.317 79.9234 168.151 79.8028 168.042C79.6822 167.938 79.5767 167.878 79.4814 167.864C79.3861 167.844 79.2908 167.853 79.1907 167.882C79.1206 167.905 79.0054 167.966 78.8402 168.061L78.1093 168.483L78.1162 170.917L77.4804 171.284L77.4648 165.796L79.5824 164.573C80.0129 164.325 80.3334 164.192 80.5539 164.162C80.7795 164.13 80.9552 164.201 81.091 164.377C81.2219 164.549 81.2878 164.787 81.2887 165.086C81.2898 165.477 81.1806 165.869 80.9661 166.264C80.7465 166.655 80.4067 167.024 79.9463 167.359C80.1169 167.353 80.2422 167.373 80.3326 167.413C80.5134 167.505 80.6892 167.645 80.8553 167.843ZM79.4642 167.068C79.7545 166.9 79.9797 166.735 80.1396 166.574C80.3046 166.409 80.4295 166.228 80.5141 166.029C80.5988 165.831 80.6383 165.641 80.6379 165.462C80.6371 165.203 80.5565 165.037 80.3908 164.965C80.2252 164.894 79.9646 164.964 79.6142 165.166L78.1024 166.039L78.1075 167.851L79.4642 167.068Z" fill="#212121"/>
<path d="M86.036 160.849L86.0516 166.336L85.4008 166.712L82.8805 163.846L82.8927 168.16L82.287 168.51L82.2715 163.022L82.9173 162.649L85.4424 165.507L85.4302 161.198L86.036 160.849Z" fill="#212121"/>
<path d="M123.604 52.1767L123.763 102.283C123.771 103.783 124.299 104.838 125.153 105.333L129.46 107.846C129.359 107.779 129.259 107.712 129.167 107.628L129.158 107.62C129.091 107.57 129.033 107.511 128.974 107.444L128.966 107.435C128.89 107.352 128.823 107.268 128.756 107.167L128.748 107.159C128.672 107.059 128.605 106.95 128.555 106.832C128.505 106.748 128.463 106.656 128.429 106.556C128.388 106.464 128.354 106.363 128.321 106.254C128.287 106.154 128.262 106.036 128.237 105.927C128.22 105.86 128.212 105.793 128.203 105.726C128.203 105.718 128.195 105.701 128.195 105.693C128.186 105.634 128.178 105.567 128.17 105.509C128.161 105.425 128.153 105.341 128.145 105.257C128.136 105.115 128.128 104.972 128.128 104.83L127.969 54.7239C127.96 51.7078 130.072 48.0383 132.702 46.5218L174.558 22.3871C175.471 21.8593 176.326 21.6667 177.047 21.7588C177.147 21.7672 177.248 21.7923 177.34 21.8174C177.348 21.8174 177.356 21.8174 177.356 21.8174C177.449 21.8426 177.541 21.8761 177.633 21.9096C177.65 21.9179 177.658 21.9179 177.675 21.9264C177.759 21.9599 177.834 22.0017 177.91 22.0436L173.578 19.5134C172.715 19.0109 171.517 19.0778 170.193 19.8403L128.337 43.9749C125.715 45.4911 123.595 49.1607 123.604 52.1767Z" fill="#212121"/>
<path d="M129.458 108.033C129.426 108.033 129.394 108.025 129.365 108.007L125.059 105.494C124.11 104.946 123.583 103.806 123.575 102.284L123.416 52.1775V52.1772C123.408 49.1088 125.573 45.3563 128.244 43.8127L170.099 19.6779C171.44 18.9067 172.708 18.7897 173.672 19.3515L178.003 21.8818C178.091 21.9334 178.122 22.0467 178.072 22.1358C178.02 22.2257 177.907 22.256 177.818 22.2071C177.746 22.1669 177.679 22.1296 177.605 22.0997C177.599 22.0978 177.553 22.0788 177.549 22.0767C177.48 22.0529 177.403 22.0252 177.325 22.0028C177.312 22.0017 177.298 21.9999 177.289 21.9977C177.208 21.9754 177.119 21.9527 177.031 21.9451C176.308 21.8544 175.493 22.0635 174.651 22.5489L132.795 46.6841C130.229 48.1633 128.147 51.7696 128.155 54.7231L128.314 104.829C128.314 104.969 128.322 105.107 128.331 105.246L128.379 105.665C128.385 105.684 128.39 105.706 128.39 105.726C128.397 105.772 128.403 105.827 128.417 105.882C128.447 106.009 128.469 106.108 128.498 106.195C128.529 106.3 128.56 106.393 128.599 106.478C128.635 106.582 128.671 106.662 128.715 106.737C128.767 106.852 128.824 106.949 128.897 107.047C128.973 107.156 129.035 107.233 129.105 107.31C129.172 107.386 129.22 107.432 129.271 107.47C129.377 107.566 129.469 107.628 129.562 107.689C129.646 107.746 129.67 107.859 129.617 107.945C129.581 108.001 129.521 108.033 129.458 108.033ZM123.79 52.1761L123.95 102.282C123.957 103.665 124.417 104.691 125.246 105.171L128.447 107.039C128.423 106.994 128.401 106.95 128.382 106.906C128.335 106.83 128.287 106.724 128.251 106.614C128.214 106.535 128.177 106.426 128.141 106.308C128.11 106.216 128.084 106.104 128.06 105.997C128.037 105.903 128.028 105.834 128.019 105.765C128.016 105.753 128.007 105.727 128.007 105.693L127.958 105.275C127.948 105.123 127.94 104.977 127.94 104.83L127.781 54.7244C127.773 51.6514 129.938 47.8987 132.608 46.3597L174.464 22.2248C175.235 21.7796 175.997 21.5497 176.692 21.5497L173.483 19.6746C172.641 19.1845 171.505 19.3 170.287 20.0025L128.431 44.137C125.864 45.6204 123.783 49.2272 123.79 52.1761Z" fill="#383C43"/>
<path d="M127.969 54.7237L128.128 104.83C128.128 104.972 128.136 105.115 128.145 105.257C128.153 105.341 128.162 105.425 128.17 105.508C128.178 105.567 128.187 105.634 128.195 105.693C128.195 105.701 128.203 105.718 128.203 105.726C128.212 105.793 128.22 105.86 128.237 105.927C128.262 106.036 128.287 106.153 128.321 106.254C128.354 106.363 128.388 106.464 128.429 106.556C128.463 106.656 128.505 106.748 128.555 106.832C128.614 106.949 128.681 107.058 128.748 107.159L128.756 107.167C128.823 107.268 128.89 107.352 128.966 107.435L128.974 107.444C129.033 107.511 129.091 107.569 129.158 107.62L129.167 107.628C129.259 107.712 129.359 107.779 129.46 107.846L129.468 107.854C130.331 108.382 131.546 108.323 132.886 107.544L174.743 83.418C177.373 81.9015 179.493 78.2237 179.484 75.2075L179.325 25.1097C179.317 23.5934 178.781 22.5378 177.909 22.0433C177.834 22.0015 177.759 21.9597 177.675 21.9261C177.658 21.9177 177.65 21.9177 177.633 21.9093C177.541 21.8758 177.449 21.8422 177.356 21.8171C177.356 21.8171 177.348 21.8171 177.34 21.8171C177.248 21.792 177.147 21.7669 177.046 21.7585C176.326 21.6664 175.471 21.859 174.558 22.3868L132.702 46.5216C130.072 48.0381 127.96 51.7076 127.969 54.7237Z" fill="#FFF7E4"/>
<path d="M130.75 108.383C130.243 108.383 129.774 108.261 129.371 108.014C129.36 108.007 129.34 107.99 129.33 107.981C129.247 107.929 129.14 107.856 129.041 107.767C128.975 107.716 128.908 107.652 128.833 107.567C128.745 107.47 128.672 107.379 128.601 107.271C128.521 107.156 128.45 107.041 128.387 106.917C128.335 106.83 128.288 106.724 128.252 106.614C128.214 106.535 128.178 106.426 128.142 106.309C128.111 106.216 128.085 106.104 128.061 105.998C128.038 105.904 128.028 105.835 128.02 105.765C128.017 105.753 128.008 105.727 128.008 105.693L127.958 105.275C127.949 105.123 127.941 104.977 127.941 104.83L127.781 54.7246V54.7243C127.773 51.6516 129.938 47.899 132.609 46.3599L174.465 22.2251C175.377 21.6977 176.278 21.4708 177.07 21.5734C177.167 21.5814 177.272 21.6055 177.37 21.6318C177.384 21.6329 177.397 21.6347 177.406 21.637C177.499 21.6625 177.592 21.6958 177.685 21.7294C177.727 21.745 177.74 21.7498 177.758 21.7589C177.833 21.7881 177.913 21.8324 177.994 21.8766C178.968 22.4293 179.504 23.5758 179.512 25.1091L179.672 75.2071C179.68 78.2827 177.511 82.0389 174.836 83.5806L132.98 107.707C132.208 108.156 131.442 108.383 130.75 108.383ZM128.156 54.723L128.315 104.829C128.315 104.969 128.323 105.107 128.332 105.246L128.38 105.665C128.386 105.684 128.39 105.707 128.39 105.726C128.398 105.772 128.404 105.827 128.418 105.882C128.447 106.009 128.469 106.109 128.498 106.195C128.53 106.301 128.561 106.393 128.6 106.478C128.635 106.582 128.672 106.662 128.716 106.737C128.778 106.858 128.84 106.961 128.904 107.055C128.974 107.156 129.036 107.234 129.105 107.311C129.172 107.386 129.221 107.432 129.271 107.47C129.377 107.567 129.47 107.628 129.562 107.689C129.571 107.696 129.59 107.712 129.598 107.719C130.41 108.212 131.558 108.101 132.792 107.383L174.649 83.2559C177.22 81.7741 179.306 78.1638 179.298 75.2081L179.138 25.1108C179.131 23.7172 178.662 22.6858 177.817 22.2062C177.746 22.1671 177.68 22.1298 177.605 22.0999C177.6 22.098 177.554 22.079 177.55 22.0769C177.48 22.0531 177.404 22.0253 177.326 22.003C177.313 22.0019 177.299 22.0001 177.29 21.9979C177.209 21.9756 177.12 21.9529 177.032 21.9452C176.309 21.8546 175.494 22.0637 174.652 22.549L132.796 46.6842C130.23 48.1634 128.148 51.7698 128.156 54.723Z" fill="#383C43"/>
<path d="M134.728 52.8952C135.616 52.3823 136.334 52.8047 136.337 53.8253C136.34 54.8595 135.627 56.0942 134.738 56.6071C133.827 57.1332 133.109 56.7245 133.106 55.6904C133.104 54.6697 133.816 53.4214 134.728 52.8952Z" fill="#383C43"/>
<path d="M133.994 57.0246C133.808 57.0246 133.636 56.9811 133.484 56.8931C133.122 56.6851 132.921 56.2582 132.92 55.6909C132.918 54.589 133.671 53.29 134.636 52.7337C135.122 52.4523 135.592 52.4124 135.956 52.6215C136.321 52.832 136.523 53.2593 136.524 53.8251C136.528 54.926 135.785 56.2195 134.833 56.7692C134.539 56.9392 134.253 57.0246 133.994 57.0246ZM135.443 52.8638C135.257 52.8638 135.046 52.9289 134.823 53.0575C133.978 53.5451 133.292 54.7261 133.294 55.6902C133.296 56.1178 133.429 56.43 133.67 56.5689C133.916 56.7107 134.263 56.6661 134.646 56.4453C135.478 55.9643 136.154 54.7893 136.15 53.8262C136.149 53.3993 136.014 53.0868 135.769 52.9461C135.674 52.8909 135.564 52.8638 135.443 52.8638Z" fill="#212121"/>
<path d="M140.642 53.1857C140.457 53.1857 140.285 53.1418 140.132 53.0542C139.77 52.8459 139.57 52.419 139.568 51.852C139.565 50.7504 140.318 49.4514 141.283 48.8948C141.77 48.6134 142.24 48.5736 142.604 48.7826C142.969 48.9928 143.172 49.4204 143.173 49.9862C143.176 51.0878 142.433 52.381 141.482 52.9303C141.188 53.0998 140.902 53.1857 140.642 53.1857ZM142.091 49.0249C141.905 49.0249 141.693 49.09 141.47 49.2187C140.625 49.7066 139.94 50.8872 139.943 51.8514C139.944 52.279 140.077 52.5908 140.318 52.7297C140.565 52.8711 140.912 52.8277 141.294 52.6065C142.127 52.1259 142.802 50.9507 142.799 49.987C142.797 49.5605 142.662 49.248 142.417 49.1073C142.321 49.0519 142.212 49.0249 142.091 49.0249Z" fill="#383C43"/>
<path d="M147.289 49.3475C147.104 49.3475 146.931 49.3036 146.779 49.2159C146.418 49.008 146.217 48.581 146.216 48.0138C146.213 46.9125 146.966 45.6132 147.931 45.0561C148.419 44.774 148.888 44.7349 149.251 44.9443C149.616 45.1545 149.819 45.5821 149.82 46.1479C149.823 47.2491 149.08 48.5423 148.128 49.092C147.834 49.2616 147.549 49.3475 147.289 49.3475ZM148.118 45.3801C147.273 45.8684 146.587 47.0493 146.59 48.0131C146.592 48.4407 146.725 48.7529 146.966 48.8918C147.212 49.0329 147.558 48.9886 147.941 48.7682C148.774 48.2872 149.449 47.1125 149.446 46.1488C149.445 45.7223 149.309 45.4098 149.064 45.2687C148.82 45.1294 148.485 45.1686 148.118 45.3801Z" fill="#383C43"/>
<path d="M146.146 58.7501L135.139 73.2076L146.192 74.9339L146.179 70.5242L168.503 57.6358L168.482 50.2715L146.158 63.1599L146.146 58.7501Z" fill="#978050"/>
<path d="M160.155 70.7002L160.167 75.1101L137.844 87.9985L137.865 95.3626L160.188 82.4742L160.201 86.8785L171.208 72.421L160.155 70.7002Z" fill="#212121"/>
<path d="M183.859 211C182.792 211 181.724 210.765 180.909 210.294L168.349 203.041C168.26 202.989 168.229 202.875 168.281 202.785C168.333 202.695 168.448 202.665 168.536 202.717L181.096 209.97C182.622 210.851 185.098 210.852 186.614 209.97L206.694 198.301C206.784 198.248 206.898 198.278 206.95 198.369C207.002 198.458 206.972 198.573 206.883 198.624L186.803 210.294C185.992 210.764 184.926 211 183.859 211Z" fill="#DBDEE4"/>
<path d="M204.602 196.951C203.22 197.749 203.212 199.042 204.585 199.84C205.957 200.637 208.191 200.637 209.572 199.839C210.953 199.042 210.96 197.749 209.588 196.951C208.215 196.154 205.983 196.153 204.602 196.951Z" fill="white"/>
<path d="M207.075 200.622C206.138 200.622 205.202 200.415 204.491 200.002C203.769 199.583 203.372 199.014 203.373 198.401C203.374 197.783 203.777 197.211 204.508 196.789C205.938 195.963 208.258 195.963 209.682 196.789C210.404 197.209 210.801 197.778 210.8 198.391C210.799 199.008 210.396 199.58 209.665 200.001C208.95 200.415 208.012 200.622 207.075 200.622ZM207.097 196.538C206.228 196.538 205.359 196.73 204.695 197.113C204.085 197.466 203.748 197.923 203.747 198.401C203.747 198.875 204.078 199.329 204.679 199.678C205.997 200.444 208.151 200.444 209.478 199.678C210.089 199.325 210.425 198.868 210.426 198.39C210.426 197.916 210.095 197.463 209.494 197.113C208.834 196.73 207.967 196.538 207.097 196.538Z" fill="#DBDEE4"/>
<path d="M207.079 199.307C207.618 199.307 208.139 199.184 208.509 198.97C208.807 198.799 208.977 198.588 208.978 198.392C208.978 198.198 208.811 197.99 208.519 197.82C208.151 197.607 207.632 197.484 207.095 197.484C206.557 197.484 206.036 197.607 205.666 197.821C205.368 197.992 205.197 198.203 205.197 198.4C205.197 198.593 205.364 198.802 205.656 198.971C206.023 199.184 206.542 199.307 207.079 199.307Z" fill="#FFBE2E"/>
<path d="M194.92 206.228C195.498 206.228 196.058 206.097 196.455 205.867C196.775 205.683 196.958 205.456 196.958 205.246C196.959 205.038 196.779 204.814 196.465 204.632C196.071 204.403 195.514 204.271 194.936 204.271C194.358 204.271 193.799 204.403 193.402 204.632C193.082 204.817 192.899 205.044 192.898 205.254C192.898 205.462 193.078 205.686 193.391 205.868C193.785 206.097 194.342 206.228 194.92 206.228Z" fill="#383C43"/>
<path d="M90.0828 202.606C89.0587 202.606 88.0332 202.38 87.251 201.929L67.8767 190.743C67.7875 190.691 67.7568 190.577 67.8079 190.487C67.8598 190.397 67.9753 190.366 68.0638 190.419L87.438 201.605C88.8993 202.448 91.2692 202.448 92.7202 201.605L111.969 190.419C112.059 190.367 112.173 190.396 112.225 190.487C112.276 190.576 112.246 190.691 112.157 190.743L92.9088 201.929C92.1311 202.38 91.1077 202.606 90.0828 202.606Z" fill="#DBDEE4"/>
<path d="M111.21 188.308C109.857 189.089 109.849 190.356 111.194 191.138C112.538 191.919 114.727 191.919 116.08 191.137C117.433 190.356 117.44 189.089 116.095 188.308C114.751 187.527 112.564 187.526 111.21 188.308Z" fill="white"/>
<path d="M113.633 191.907C112.714 191.907 111.797 191.705 111.1 191.3C110.392 190.889 110.003 190.331 110.004 189.728C110.005 189.122 110.4 188.56 111.117 188.146C112.52 187.336 114.795 187.336 116.19 188.146C116.898 188.558 117.288 189.117 117.287 189.718C117.286 190.324 116.891 190.886 116.174 191.3C115.472 191.705 114.552 191.907 113.633 191.907ZM113.656 187.908C112.805 187.908 111.954 188.095 111.304 188.47C110.708 188.815 110.379 189.262 110.378 189.729C110.377 190.192 110.7 190.635 111.288 190.977C112.578 191.727 114.686 191.726 115.987 190.976C116.583 190.632 116.912 190.185 116.912 189.718C116.913 189.255 116.59 188.812 116.002 188.47C115.356 188.095 114.507 187.908 113.656 187.908Z" fill="#DBDEE4"/>
<path d="M113.636 190.615C114.164 190.615 114.674 190.495 115.037 190.286C115.328 190.117 115.495 189.911 115.496 189.719C115.496 189.529 115.332 189.325 115.046 189.159C114.686 188.95 114.178 188.83 113.651 188.83C113.124 188.83 112.614 188.95 112.251 189.159C111.96 189.328 111.792 189.534 111.792 189.727C111.792 189.916 111.956 190.12 112.241 190.287C112.601 190.495 113.109 190.615 113.636 190.615Z" fill="#FFBE2E"/>
<path d="M101.723 197.397C102.289 197.397 102.838 197.268 103.227 197.043C103.54 196.862 103.72 196.64 103.72 196.434C103.72 196.23 103.544 196.011 103.237 195.833C102.851 195.608 102.305 195.479 101.739 195.479C101.173 195.479 100.625 195.608 100.235 195.833C99.9223 196.014 99.7425 196.236 99.7422 196.442C99.742 196.646 99.9178 196.865 100.225 197.044C100.611 197.268 101.157 197.397 101.723 197.397Z" fill="#383C43"/>
</g>
</svg>
