<svg width="98" height="40" viewBox="0 0 98 40" fill="none" xmlns="http://www.w3.org/2000/svg">
<path d="M95.3202 6.31483V9.37341C95.3202 10.9911 94.0016 12.3232 92.3839 12.3232H77.3901L77.2814 9.25107C77.1862 6.49155 74.9568 4.34375 72.1973 4.34375C69.397 4.34375 67.1133 6.62749 67.1133 9.42779V9.49576C67.1133 12.2961 69.397 14.5798 72.1973 14.5798H74.6578H75.1472C74.9161 16.8228 73.0265 18.5763 70.7156 18.5763V20.8329C74.2636 20.8329 77.1726 18.0734 77.4037 14.5798H77.4581H92.3703C95.2386 14.5798 97.5631 12.2553 97.5631 9.38701V6.32843H95.3202V6.31483ZM74.6714 12.3096H72.2109C70.6476 12.3096 69.3834 11.0454 69.3834 9.48216V9.4142C69.3834 7.85092 70.6476 6.58671 72.2109 6.58671C73.747 6.58671 74.984 7.78295 75.0384 9.31904L75.1472 12.3096H74.6714Z" fill="#383C41"/>
<path d="M62.831 6.31494H60.5745V11.1543C60.5745 13.5196 58.6578 15.4363 56.2925 15.4363C53.9272 15.4363 52.0105 13.5196 52.0105 11.1543V6.31494H49.7539V11.1543C49.7539 14.7566 52.6901 17.6929 56.2925 17.6929C59.8948 17.6929 62.831 14.7566 62.831 11.1543V6.31494Z" fill="#383C41"/>
<path d="M56.5655 3.80288C57.2158 3.64933 57.6184 2.99771 57.4649 2.34744C57.3113 1.69718 56.6597 1.29451 56.0094 1.44805C55.3592 1.6016 54.9565 2.25322 55.1101 2.90349C55.2636 3.55376 55.9152 3.95643 56.5655 3.80288Z" fill="#383C41"/>
<path d="M92.5067 3.84106C93.1749 3.84106 93.7166 3.2994 93.7166 2.63122C93.7166 1.96305 93.1749 1.42139 92.5067 1.42139C91.8385 1.42139 91.2969 1.96305 91.2969 2.63122C91.2969 3.2994 91.8385 3.84106 92.5067 3.84106Z" fill="#383C41"/>
<path d="M32.1491 4.39795L28.805 10.1345C31.6325 12.6221 33.4948 16.0205 33.4948 20.0851C33.4948 27.6024 27.4049 33.6923 19.8876 33.6923C12.3703 33.6923 6.04919 27.6024 6.04919 20.0851C6.04919 19.0655 6.13075 18.1955 6.34825 17.244L0 20.9551C0 31.0824 8.46886 39.9998 19.8876 39.9998C30.8848 39.9998 39.8023 31.0824 39.8023 20.0851C39.8023 13.7096 36.8117 8.04106 32.1491 4.39795Z" fill="#383C41"/>
<path d="M22.4991 6.80421L25.8703 1.0133C25.8703 1.0133 22.9612 -0.658722 17.4014 0.292836L13.1602 7.70139C13.1466 7.71499 16.7081 5.36328 22.4991 6.80421Z" fill="#383C41"/>
<path d="M67.072 24.6802C64.6116 24.6802 62.6133 26.76 62.6133 29.3292C62.6133 31.8984 64.6116 33.9783 67.072 33.9783C69.5325 33.9783 71.5307 31.8984 71.5307 29.3292C71.5307 26.76 69.5325 24.6802 67.072 24.6802ZM67.072 31.7489C65.8486 31.7489 64.8562 30.6614 64.8562 29.3156C64.8562 27.9698 65.8486 26.8823 67.072 26.8823C68.2954 26.8823 69.2878 27.9698 69.2878 29.3156C69.2878 30.6614 68.2954 31.7489 67.072 31.7489Z" fill="#383C41"/>
<path d="M80.3103 24.6802C77.8498 24.6802 75.8516 26.76 75.8516 29.3292C75.8516 31.8984 77.8498 33.9783 80.3103 33.9783C82.7708 33.9783 84.769 31.8984 84.769 29.3292C84.769 26.76 82.7708 24.6802 80.3103 24.6802ZM80.3103 31.7489C79.0869 31.7489 78.0945 30.6614 78.0945 29.3156C78.0945 27.9698 79.0869 26.8823 80.3103 26.8823C81.5337 26.8823 82.5261 27.9698 82.5261 29.3156C82.5261 30.6614 81.5337 31.7489 80.3103 31.7489Z" fill="#383C41"/>
<path d="M94.0673 24.6801C92.3817 24.6801 91.4302 25.5909 91.4302 25.5909L91.2126 24.8976H89.4727V33.7743H91.702C91.702 33.7743 91.702 30.6885 91.702 28.799C91.702 26.9095 93.7275 26.8959 93.7275 26.8959C95.2636 26.8959 95.3315 28.5407 95.3315 28.5407V33.7879H97.5201V28.1057C97.2618 24.5306 94.0673 24.6801 94.0673 24.6801Z" fill="#383C41"/>
<path d="M54.3486 24.6801C52.663 24.6801 51.7114 25.5909 51.7114 25.5909L51.4939 24.8976H49.7539V33.7743H51.9833C51.9833 33.7743 51.9833 30.6885 51.9833 28.799C51.9833 26.9095 54.0087 26.8959 54.0087 26.8959C55.5448 26.8959 55.6128 28.5407 55.6128 28.5407V33.7879H57.8014V28.1057C57.5295 24.5306 54.3486 24.6801 54.3486 24.6801Z" fill="#383C41"/>
</svg>
