<svg width="174" height="34" viewBox="0 0 174 34" fill="none" xmlns="http://www.w3.org/2000/svg">
<path d="M17.2477 17.6345C17.2477 20.2336 16.4749 22.423 14.9238 24.1953C13.3051 26.0522 11.2018 26.9844 8.62709 26.9844C6.04559 26.9844 3.94906 26.0522 2.33035 24.1953C0.778596 22.423 0 20.2336 0 17.6345C0 15.0282 0.778596 12.8395 2.33035 11.0737C3.96707 9.23406 6.0704 8.31477 8.62709 8.31477C11.2018 8.31477 13.3051 9.23406 14.9238 11.0737C16.4749 12.8395 17.2477 15.0282 17.2477 17.6345ZM12.1214 17.6345C12.1214 16.4572 11.8397 15.4635 11.2755 14.6601C10.6444 13.7469 9.76117 13.2932 8.62709 13.2932C7.49267 13.2932 6.60974 13.7469 5.97796 14.6601C5.40803 15.4635 5.12596 16.4572 5.12596 17.6345C5.12596 18.8053 5.40803 19.8109 5.97796 20.6384C6.60974 21.5516 7.49267 22.006 8.62709 22.006C9.76117 22.006 10.6444 21.5516 11.2755 20.6384C11.8397 19.8109 12.1214 18.8053 12.1214 17.6345ZM35.7828 17.6345C35.7828 20.0624 35.0837 22.1837 33.6795 23.9985C32.1773 25.9849 30.2398 26.9844 27.8854 26.9844C26.2235 26.9844 24.8138 26.5001 23.661 25.5438C23.661 25.764 23.6855 26.2976 23.7348 27.1506C23.7837 28.008 23.8078 28.7071 23.8078 29.259C23.8078 32.3071 22.9004 33.8273 21.086 33.8273C20.3438 33.8273 19.7371 33.5636 19.2525 33.0422C18.7743 32.5155 18.5351 31.8827 18.5351 31.1357V11.3129C18.5351 10.5894 18.7804 9.96372 19.2708 9.43695C19.7612 8.91562 20.3686 8.65258 21.0921 8.65258C22.183 8.65258 22.9803 9.19702 23.4833 10.2832C24.5562 8.97102 26.0216 8.31477 27.8792 8.31477C30.2398 8.31477 32.1712 9.29523 33.6795 11.264C35.0776 13.0852 35.7828 15.2066 35.7828 17.6345ZM30.6565 17.6345C30.6565 16.4572 30.369 15.4635 29.8048 14.6601C29.1727 13.7469 28.2901 13.2932 27.1557 13.2932C26.0216 13.2932 25.1387 13.7469 24.5069 14.6601C23.9428 15.4635 23.661 16.4572 23.661 17.6345C23.661 18.8053 23.9428 19.8109 24.5069 20.6384C25.1387 21.5516 26.0216 22.006 27.1557 22.006C28.2901 22.006 29.1727 21.5516 29.8048 20.6384C30.369 19.8109 30.6565 18.8053 30.6565 17.6345ZM54.4341 17.0832C54.4341 17.9407 54.2315 18.5293 53.8268 18.861C53.4224 19.1855 52.7909 19.3511 51.9386 19.3511H42.6862C42.6862 20.3322 43.1463 21.086 44.066 21.6128C44.8078 22.0243 45.7152 22.2333 46.7882 22.2333C47.6225 22.2333 48.6216 21.9563 49.7928 21.4116C50.9639 20.8593 51.7177 20.5891 52.0432 20.5891C52.6376 20.5891 53.1403 20.8039 53.5573 21.2454C53.9678 21.6811 54.1768 22.2082 54.1768 22.8155C54.1768 24.2187 53.1284 25.3113 51.0308 26.0957C49.4308 26.684 47.806 26.9844 46.1448 26.9844C43.4716 26.9844 41.3132 26.0957 39.6639 24.3241C38.0142 22.5518 37.187 20.3261 37.187 17.6345C37.187 15.071 38.0452 12.8823 39.7618 11.056C41.4722 9.22794 43.6004 8.31477 46.1384 8.31477C48.499 8.31477 50.4731 9.17935 52.0555 10.9082C53.6368 12.6377 54.4341 14.6975 54.4341 17.0832ZM49.3085 15.7949C49.2837 15.0098 48.9221 14.2988 48.223 13.6545C47.5239 13.0112 46.7824 12.6927 45.9973 12.6927C45.1881 12.6927 44.4337 13.0112 43.7349 13.6545C43.0362 14.2988 42.6862 15.0098 42.6862 15.7949H49.3085ZM71.657 23.955C71.657 24.7037 71.4177 25.3348 70.9399 25.8622C70.4553 26.3839 69.8483 26.6476 69.1064 26.6476C67.3161 26.6476 66.4206 25.225 66.4206 22.3863C66.4206 21.8405 66.4576 20.9823 66.5311 19.799C66.6109 18.6214 66.648 17.7572 66.648 17.2114C66.648 14.2003 65.6729 12.6927 63.7293 12.6927C61.7854 12.6927 60.8168 14.2003 60.8168 17.2114C60.8168 17.7572 60.8474 18.6214 60.9025 19.799C60.964 20.9823 60.9946 21.8405 60.9946 22.3863C60.9946 25.225 60.1116 26.6476 58.3461 26.6476C57.6039 26.6476 56.9972 26.3839 56.5187 25.8622C56.0344 25.3348 55.7952 24.7037 55.7952 23.955V11.3075C55.7952 10.5642 56.0344 9.93381 56.5187 9.42472C56.9972 8.9095 57.6103 8.65258 58.3522 8.65258C59.5784 8.65258 60.4304 9.19702 60.9086 10.2832C61.7364 8.97102 63.2015 8.31477 65.2988 8.31477C67.2424 8.31477 68.7877 8.8293 69.9217 9.85327C71.0806 10.9517 71.657 12.4592 71.657 14.3787V23.955ZM87.7387 23.4102C87.7387 24.5688 86.9863 25.4881 85.477 26.1633C84.2756 26.7085 83.0066 26.9844 81.6697 26.9844C79.0878 26.9844 76.9913 26.0522 75.3726 24.1953C73.8215 22.423 73.0429 20.2336 73.0429 17.6345C73.0429 15.0282 73.8337 12.8276 75.4215 11.0247C77.0096 9.21639 79.0878 8.31477 81.6697 8.31477C83.1596 8.31477 84.4411 8.53533 85.5083 8.97102C86.9971 9.55964 87.7387 10.4789 87.7387 11.7299C87.7387 12.361 87.5436 12.9191 87.1504 13.4037C86.7586 13.8818 86.2553 14.1272 85.6425 14.1272C85.2248 14.1272 84.6243 13.9862 83.8396 13.7109C83.0552 13.4281 82.4302 13.2932 81.9704 13.2932C80.75 13.2932 79.7995 13.7286 79.1191 14.5989C78.487 15.384 78.1685 16.3896 78.1685 17.6345C78.1685 18.8053 78.4506 19.799 79.0212 20.602C79.652 21.5404 80.5414 22.006 81.6754 22.006C82.1788 22.006 82.8649 21.8588 83.7414 21.5577C84.6189 21.2644 85.2507 21.1111 85.6425 21.1111C86.2135 21.1111 86.7028 21.3558 87.1205 21.8343C87.5314 22.3186 87.7387 22.8393 87.7387 23.4102ZM106.372 23.955C106.372 24.7037 106.134 25.3348 105.655 25.8622C105.171 26.3839 104.558 26.6476 103.815 26.6476C102.699 26.6476 101.903 26.1015 101.424 25.0163C100.352 26.3288 98.8861 26.9844 97.0285 26.9844C94.6502 26.9844 92.7002 25.9849 91.1909 23.9985C89.8176 22.1837 89.126 20.0624 89.126 17.6345C89.126 15.2066 89.8176 13.0852 91.1909 11.264C92.7246 9.29523 94.6679 8.31477 97.0285 8.31477C98.8861 8.31477 100.352 8.97102 101.424 10.2832C101.903 9.19702 102.699 8.65258 103.815 8.65258C104.539 8.65258 105.146 8.91562 105.638 9.43695C106.127 9.96372 106.372 10.5833 106.372 11.3075V23.955ZM101.247 17.6345C101.247 16.4572 100.965 15.4635 100.401 14.6601C99.7446 13.7469 98.8616 13.2932 97.7524 13.2932C96.6176 13.2932 95.735 13.7469 95.1029 14.6601C94.5337 15.4635 94.2516 16.4572 94.2516 17.6345C94.2516 18.8053 94.5265 19.8109 95.072 20.6384C95.7228 21.5516 96.6176 22.006 97.7524 22.006C98.8861 22.006 99.7687 21.5516 100.401 20.6384C100.965 19.8109 101.247 18.8053 101.247 17.6345ZM119.451 10.9693C119.451 12.0667 118.918 12.8208 117.85 13.2314C116.863 13.5631 115.882 13.9009 114.902 14.2492C113.828 14.863 113.294 16.0032 113.294 17.6589V23.955C113.294 24.7037 113.049 25.3348 112.572 25.8622C112.087 26.3839 111.473 26.6476 110.732 26.6476C109.985 26.6476 109.37 26.3839 108.893 25.8622C108.408 25.3348 108.169 24.7037 108.169 23.955V11.3075C108.169 10.5642 108.408 9.93381 108.886 9.42472C109.37 8.9095 109.985 8.65258 110.726 8.65258C111.952 8.65258 112.804 9.19702 113.282 10.2832C114.381 8.97102 115.558 8.31477 116.827 8.31477C117.55 8.31477 118.169 8.57781 118.684 9.09914C119.193 9.62659 119.451 10.2519 119.451 10.9693ZM132.823 11.2025C132.823 12.3427 132.376 13.0601 131.488 13.3673C131.051 13.5202 130.137 13.5998 128.746 13.5998V23.955C128.746 24.7037 128.5 25.3348 128.023 25.8622C127.537 26.3839 126.925 26.6476 126.183 26.6476C125.46 26.6476 124.846 26.3839 124.355 25.8622C123.866 25.3348 123.62 24.7037 123.62 23.955V13.5998C122.565 13.5998 121.799 13.4649 121.315 13.2018C120.654 12.8338 120.327 12.1653 120.327 11.2025C120.327 10.2404 120.664 9.58411 121.345 9.23406C121.805 8.97645 122.565 8.84221 123.62 8.84221V6.64712C123.62 4.06596 124.472 2.77861 126.183 2.77861C127.888 2.77861 128.746 4.06596 128.746 6.64712V8.84221C130.137 8.84221 131.051 8.92174 131.488 9.07467C132.376 9.38122 132.823 10.0932 132.823 11.2025ZM174.003 8.08897C173.989 6.51517 171.081 5.8009 163.553 5.8009C145.889 5.8009 141.408 5.04643 136.612 0C138.629 3.0301 139.733 8.71341 158.403 8.43066C177.883 8.13057 165.999 13.4533 162.542 19.4669C168.777 13.9016 173.984 10.2334 174.003 8.11186V8.08897ZM149.182 24.25C149.182 25.7219 147.987 26.9168 146.514 26.9168C145.036 26.9168 143.841 25.7219 143.841 24.25C143.841 22.772 145.036 21.5767 146.514 21.5767C147.987 21.5767 149.182 22.772 149.182 24.25ZM161.346 24.25C161.346 25.7219 160.151 26.9168 158.679 26.9168C157.202 26.9168 156.006 25.7219 156.006 24.25C156.006 22.772 157.202 21.5767 158.679 21.5767C160.151 21.5767 161.346 22.772 161.346 24.25Z" fill="#04B6F0"/>
</svg>
