<svg width="200" height="80" viewBox="0 0 200 80" fill="none" xmlns="http://www.w3.org/2000/svg">
<rect width="200" height="80" rx="12" fill="white"/>
<mask id="mask0_3197_24311" style="mask-type:alpha" maskUnits="userSpaceOnUse" x="16" y="16" width="168" height="48">
<rect x="16" y="16" width="168" height="48" fill="#D9D9D9"/>
</mask>
<g mask="url(#mask0_3197_24311)">
</g>
<g clip-path="url(#clip0_3197_24311)">
<path d="M35.1661 40.752C35.1661 43.1993 34.4438 45.2608 32.9942 46.9296C31.4814 48.678 29.5158 49.5558 27.1095 49.5558C24.6969 49.5558 22.7376 48.678 21.2247 46.9296C19.7745 45.2608 19.0469 43.1993 19.0469 40.752C19.0469 38.2979 19.7745 36.2371 21.2247 34.5743C22.7544 32.8422 24.7201 31.9766 27.1095 31.9766C29.5158 31.9766 31.4814 32.8422 32.9942 34.5743C34.4438 36.2371 35.1661 38.2979 35.1661 40.752ZM30.3752 40.752C30.3752 39.6435 30.1119 38.7078 29.5847 37.9513C28.9948 37.0915 28.1693 36.6643 27.1095 36.6643C26.0493 36.6643 25.2241 37.0915 24.6337 37.9513C24.101 38.7078 23.8374 39.6435 23.8374 40.752C23.8374 41.8543 24.101 42.8012 24.6337 43.5804C25.2241 44.4403 26.0493 44.8681 27.1095 44.8681C28.1693 44.8681 28.9948 44.4403 29.5847 43.5804C30.1119 42.8012 30.3752 41.8543 30.3752 40.752ZM52.4884 40.752C52.4884 43.038 51.8351 45.0355 50.5227 46.7443C49.1188 48.6147 47.3081 49.5558 45.1077 49.5558C43.5546 49.5558 42.2371 49.0998 41.1597 48.1993C41.1597 48.4067 41.1826 48.9091 41.2287 49.7123C41.2744 50.5196 41.297 51.1779 41.297 51.6975C41.297 54.5676 40.4489 55.999 38.7532 55.999C38.0596 55.999 37.4926 55.7507 37.0397 55.2598C36.5928 54.7638 36.3692 54.168 36.3692 53.4646V34.7997C36.3692 34.1183 36.5985 33.5292 37.0569 33.0332C37.5151 32.5423 38.0827 32.2947 38.7589 32.2947C39.7784 32.2947 40.5236 32.8073 40.9936 33.83C41.9963 32.5945 43.3659 31.9766 45.102 31.9766C47.3081 31.9766 49.1131 32.8998 50.5227 34.7536C51.8293 36.4684 52.4884 38.4659 52.4884 40.752ZM47.6975 40.752C47.6975 39.6435 47.4288 38.7078 46.9016 37.9513C46.3108 37.0915 45.486 36.6643 44.4258 36.6643C43.3659 36.6643 42.5408 37.0915 41.9503 37.9513C41.4231 38.7078 41.1597 39.6435 41.1597 40.752C41.1597 41.8543 41.4231 42.8012 41.9503 43.5804C42.5408 44.4403 43.3659 44.8681 44.4258 44.8681C45.486 44.8681 46.3108 44.4403 46.9016 43.5804C47.4288 42.8012 47.6975 41.8543 47.6975 40.752ZM69.9193 40.2329C69.9193 41.0403 69.73 41.5945 69.3518 41.9069C68.9738 42.2124 68.3837 42.3683 67.5871 42.3683H58.9401C58.9401 43.2921 59.3701 44.0019 60.2296 44.4979C60.9229 44.8854 61.771 45.0822 62.7737 45.0822C63.5534 45.0822 64.4872 44.8214 65.5817 44.3084C66.6762 43.7884 67.3807 43.534 67.685 43.534C68.2405 43.534 68.7102 43.7363 69.0999 44.152C69.4836 44.5622 69.6789 45.0585 69.6789 45.6303C69.6789 46.9516 68.6991 47.9804 66.7388 48.719C65.2434 49.2729 63.7249 49.5558 62.1724 49.5558C59.6741 49.5558 57.6569 48.719 56.1156 47.0509C54.5738 45.382 53.8008 43.2863 53.8008 40.752C53.8008 38.3382 54.6027 36.2774 56.207 34.5577C57.8056 32.8364 59.7945 31.9766 62.1664 31.9766C64.3725 31.9766 66.2176 32.7907 67.6963 34.4185C69.1742 36.047 69.9193 37.9865 69.9193 40.2329ZM65.1291 39.0198C65.1059 38.2806 64.768 37.6111 64.1147 37.0044C63.4613 36.3987 62.7683 36.0989 62.0346 36.0989C61.2783 36.0989 60.5733 36.3987 59.9202 37.0044C59.2672 37.6111 58.9401 38.2806 58.9401 39.0198H65.1291ZM86.0152 46.7033C86.0152 47.4083 85.7919 48.0025 85.3454 48.4991C84.8925 48.9903 84.3249 49.2387 83.6317 49.2387C81.9585 49.2387 81.1216 47.8991 81.1216 45.2262C81.1216 44.7123 81.1562 43.9043 81.2248 42.79C81.2994 41.6812 81.3341 40.8675 81.3341 40.3536C81.3341 37.5183 80.4228 36.0989 78.6064 36.0989C76.7897 36.0989 75.8845 37.5183 75.8845 40.3536C75.8845 40.8675 75.913 41.6812 75.9645 42.79C76.022 43.9043 76.0506 44.7123 76.0506 45.2262C76.0506 47.8991 75.2254 49.2387 73.5754 49.2387C72.8817 49.2387 72.3148 48.9903 71.8676 48.4991C71.415 48.0025 71.1914 47.4083 71.1914 46.7033V34.7945C71.1914 34.0947 71.415 33.5011 71.8676 33.0217C72.3148 32.5366 72.8878 32.2947 73.5811 32.2947C74.7271 32.2947 75.5233 32.8073 75.9702 33.83C76.7439 32.5945 78.1132 31.9766 80.0731 31.9766C81.8896 31.9766 83.3337 32.4611 84.3939 33.4252C85.4769 34.4595 86.0152 35.879 86.0152 37.6863V46.7033ZM101.045 46.1903C101.045 47.2812 100.342 48.1469 98.9312 48.7827C97.8144 49.2958 96.6005 49.5595 95.373 49.5558C92.9597 49.5558 91.0007 48.678 89.4881 46.9296C88.038 45.2608 87.3104 43.1993 87.3104 40.752C87.3104 38.2979 88.0497 36.2259 89.5336 34.5283C91.0176 32.8256 92.9597 31.9766 95.373 31.9766C96.7652 31.9766 97.9628 32.1843 98.9605 32.5945C100.352 33.1488 101.045 34.0143 101.045 35.1923C101.045 35.7865 100.862 36.312 100.495 36.7683C100.129 37.2185 99.6582 37.4496 99.0861 37.4496C98.6956 37.4496 98.1339 37.3168 97.4011 37.0576C96.6676 36.7913 96.0838 36.6643 95.6542 36.6643C94.5133 36.6643 93.6249 37.0742 92.989 37.8937C92.3987 38.6329 92.1006 39.5798 92.1006 40.752C92.1006 41.8543 92.3642 42.79 92.8979 43.5462C93.4869 44.4297 94.3187 44.8681 95.3783 44.8681C95.8488 44.8681 96.4899 44.7295 97.3093 44.446C98.1294 44.1699 98.7197 44.0256 99.0861 44.0256C99.6192 44.0256 100.077 44.256 100.467 44.7065C100.851 45.1625 101.045 45.6528 101.045 46.1903ZM118.459 46.7033C118.459 47.4083 118.236 48.0025 117.789 48.4991C117.337 48.9903 116.764 49.2387 116.069 49.2387C115.027 49.2387 114.282 48.7244 113.835 47.7027C112.833 48.9385 111.463 49.5558 109.727 49.5558C107.504 49.5558 105.682 48.6147 104.271 46.7443C102.988 45.0355 102.342 43.038 102.342 40.752C102.342 38.4659 102.988 36.4684 104.271 34.7536C105.705 32.8998 107.52 31.9766 109.727 31.9766C111.463 31.9766 112.833 32.5945 113.835 33.83C114.282 32.8073 115.027 32.2947 116.069 32.2947C116.746 32.2947 117.314 32.5423 117.773 33.0332C118.23 33.5292 118.459 34.1126 118.459 34.7945V46.7033ZM113.669 40.752C113.669 39.6435 113.406 38.7078 112.878 37.9513C112.265 37.0915 111.44 36.6643 110.403 36.6643C109.343 36.6643 108.518 37.0915 107.927 37.9513C107.395 38.7078 107.132 39.6435 107.132 40.752C107.132 41.8543 107.388 42.8012 107.898 43.5804C108.506 44.4403 109.343 44.8681 110.403 44.8681C111.463 44.8681 112.288 44.4403 112.878 43.5804C113.406 42.8012 113.669 41.8543 113.669 40.752ZM130.682 34.4761C130.682 35.5094 130.184 36.2195 129.187 36.606C128.264 36.9183 127.347 37.2364 126.43 37.5644C125.427 38.1423 124.929 39.216 124.929 40.775V46.7033C124.929 47.4083 124.699 48.0025 124.253 48.4991C123.799 48.9903 123.227 49.2387 122.534 49.2387C121.835 49.2387 121.261 48.9903 120.815 48.4991C120.362 48.0025 120.138 47.4083 120.138 46.7033V34.7945C120.138 34.0947 120.362 33.5011 120.809 33.0217C121.261 32.5366 121.835 32.2947 122.528 32.2947C123.674 32.2947 124.47 32.8073 124.918 33.83C125.943 32.5945 127.044 31.9766 128.23 31.9766C128.905 31.9766 129.485 32.2243 129.966 32.7151C130.441 33.2118 130.682 33.8006 130.682 34.4761ZM143.18 34.6957C143.18 35.7692 142.761 36.4448 141.931 36.734C141.523 36.878 140.669 36.9529 139.368 36.9529V46.7033C139.368 47.4083 139.139 48.0025 138.693 48.4991C138.24 48.9903 137.667 49.2387 136.974 49.2387C136.298 49.2387 135.724 48.9903 135.265 48.4991C134.808 48.0025 134.579 47.4083 134.579 46.7033V36.9529C133.593 36.9529 132.877 36.8259 132.424 36.5782C131.806 36.2317 131.5 35.6022 131.5 34.6957C131.5 33.7897 131.816 33.1718 132.452 32.8422C132.882 32.5997 133.593 32.4732 134.579 32.4732V30.4063C134.579 27.976 135.374 26.7638 136.974 26.7638C138.567 26.7638 139.368 27.976 139.368 30.4063V32.4732C140.669 32.4732 141.523 32.5481 141.931 32.6921C142.761 32.9808 143.18 33.6511 143.18 34.6957ZM181.665 31.7641C181.652 30.2822 178.934 29.6096 171.898 29.6096C155.39 29.6096 151.202 28.8991 146.72 24.1475C148.606 27.0006 149.637 32.352 167.086 32.0857C185.291 31.8031 174.185 36.815 170.953 42.4774C176.781 37.2371 181.647 33.783 181.665 31.7856V31.7641ZM158.467 46.9811C158.467 48.3585 157.342 49.4918 155.975 49.4921C154.594 49.4921 153.477 48.367 153.477 46.9811C153.477 46.9804 153.477 46.9798 153.477 46.9791C153.477 45.5994 154.603 44.464 155.973 44.464C155.974 44.464 155.974 44.464 155.975 44.464C157.351 44.464 158.467 45.5894 158.467 46.9811ZM169.836 46.9811C169.835 48.3585 168.711 49.4918 167.343 49.4921C165.963 49.4921 164.846 48.367 164.846 46.9811C164.846 46.9804 164.846 46.9798 164.846 46.9791C164.846 45.5994 165.972 44.464 167.342 44.464C167.342 44.464 167.342 44.464 167.343 44.464C168.72 44.464 169.836 45.5894 169.836 46.9811Z" fill="black"/>
</g>
<defs>
<clipPath id="clip0_3197_24311">
<rect width="162.712" height="32" fill="white" transform="translate(19 24)"/>
</clipPath>
</defs>
</svg>
