<svg width="83" height="83" viewBox="0 0 83 83" fill="none" xmlns="http://www.w3.org/2000/svg">
<circle cx="41.006" cy="41.006" r="41.006" fill="#FFBE2E"/>
<rect x="19.2969" y="19.2969" width="43.4181" height="43.4181" rx="2.75407" fill="white"/>
<path d="M72.9696 57.9005L71.407 57.6477L71.4103 57.651C71.0712 56.4461 70.5858 55.2905 69.9641 54.2038L70.8883 52.9332C71.5865 52.119 71.5732 50.9208 70.855 50.1196L68.1886 47.4866L68.1919 47.4899C67.3807 46.7808 66.1672 46.7676 65.3393 47.4571L64.0527 48.3697H64.056C63.6005 48.117 63.1351 47.8871 62.6563 47.6803V29.5154C62.6563 29.0722 62.2906 28.7111 61.8417 28.7111H52.6657C52.2169 28.7111 51.8511 29.0722 51.8511 29.5154V47.0533C50.764 47.3783 49.7167 47.8216 48.7292 48.3731L47.6653 47.618V42.0467C47.6653 41.6035 47.3029 41.2423 46.8507 41.2423H37.6713C37.2225 41.2423 36.8601 41.6035 36.8601 42.0467V61.7748C36.8601 62.218 37.2225 62.5792 37.6713 62.5792H37.8209V63.6363C37.8907 64.7 38.7352 65.5569 39.8124 65.6488L41.375 65.9016V65.8983C41.7141 67.1032 42.1995 68.2588 42.8212 69.3455L41.897 70.6128C41.1988 71.427 41.2121 72.6252 41.9302 73.4264L44.5933 76.0594V76.0561C45.4045 76.7652 46.6181 76.7784 47.4426 76.0889L48.7293 75.1763C49.8298 75.7902 51.0001 76.2695 52.2203 76.6044L52.4763 78.1474H52.473C52.5661 79.2111 53.4338 80.0482 54.511 80.1139H58.2812C59.3584 80.0482 60.2263 79.2111 60.316 78.1474L60.572 76.6044C61.7921 76.2728 62.9624 75.7902 64.063 75.1763L65.3496 76.0889H65.3463C66.1741 76.7783 67.3876 76.7652 68.1989 76.0561L70.8653 73.4231L70.862 73.4264C71.5802 72.6253 71.5935 71.427 70.8953 70.6128L69.971 69.3422C70.5928 68.2588 71.0782 67.0999 71.4173 65.8983L72.9799 65.6455H72.9765C74.0537 65.5536 74.8982 64.7 74.9647 63.6363V59.9133C74.8982 58.8496 74.0501 57.9924 72.9696 57.9005ZM61.0273 30.3166L61.0307 47.0796C60.8777 47.0336 60.7248 46.9877 60.5719 46.945L60.3159 45.402V45.4053C60.2261 44.3416 59.3583 43.5011 58.2778 43.4354H54.5109C54.1419 43.4387 53.7828 43.547 53.4803 43.7506V30.3166L61.0273 30.3166ZM46.0364 42.8512V46.9616V46.9583C45.5011 46.9255 44.9758 47.1192 44.5902 47.4934L41.9271 50.1264V50.1231C41.2089 50.9242 41.1956 52.1225 41.8938 52.9368L42.8181 54.2073C42.1963 55.294 41.7076 56.4496 41.3718 57.6545L39.8092 57.9073V57.904C39.3172 57.9795 38.855 58.1864 38.4793 58.5081V42.8512L46.0364 42.8512ZM73.3389 63.6358C73.3389 63.7901 73.0996 64.0002 72.7106 64.0626L70.626 64.3975H70.6227C70.3002 64.45 70.0408 64.6897 69.9644 65.0049C69.6252 66.4035 69.0634 67.7396 68.302 68.9675C68.1291 69.2432 68.1424 69.5912 68.3353 69.8539L69.5687 71.5479C69.7981 71.8631 69.8214 72.1783 69.7084 72.2866L67.0453 74.9196C66.9322 75.0312 66.6197 75.0083 66.2939 74.7817L64.5817 73.5637C64.3157 73.3766 63.9599 73.3635 63.6806 73.5309C62.4372 74.2827 61.084 74.8376 59.6677 75.1724C59.3486 75.2479 59.1092 75.5073 59.056 75.8257L58.7169 77.8842C58.6537 78.2683 58.4442 78.5047 58.2847 78.5047H54.5111C54.3515 78.5047 54.142 78.2683 54.0789 77.8842L53.7398 75.8257H53.7364C53.6832 75.5073 53.4439 75.2479 53.1247 75.1724C51.7083 74.8375 50.3552 74.2827 49.1118 73.5309C48.8325 73.3635 48.4767 73.3766 48.2108 73.5637L46.4952 74.7817C46.1761 75.0083 45.8569 75.0312 45.7438 74.9196L43.0807 72.2866C42.9677 72.175 42.991 71.8631 43.2204 71.5479L44.4538 69.8539C44.6433 69.5912 44.6566 69.2433 44.4871 68.9675C43.7257 67.7396 43.1638 66.4034 42.8247 65.0015C42.7483 64.6896 42.4856 64.4499 42.1631 64.3974L40.0785 64.0625C39.6895 64.0002 39.4502 63.7933 39.4502 63.6357V59.9128C39.4502 59.7585 39.6895 59.5483 40.0785 59.486L42.1631 59.1511C42.4856 59.0986 42.7483 58.8622 42.8247 58.547C43.1639 57.1484 43.7257 55.809 44.4871 54.5844C44.6566 54.3086 44.6433 53.9573 44.4538 53.6947L43.2171 51.9974C42.9877 51.6822 42.9611 51.367 43.0774 51.2587L45.7405 48.6257C45.8536 48.5141 46.1727 48.537 46.4919 48.7636L48.2074 49.9816V49.9849C48.4767 50.172 48.8292 50.1851 49.1084 50.0177C50.3519 49.2659 51.7051 48.711 53.1214 48.3729C53.4405 48.2974 53.6832 48.0413 53.7364 47.7229L54.0756 45.6644C54.1387 45.2803 54.3482 45.0439 54.5078 45.0439H58.2747C58.4343 45.0439 58.6437 45.2803 58.7069 45.6644L59.046 47.7229C59.0992 48.0413 59.3419 48.2974 59.6611 48.3729C61.0775 48.7111 62.4306 49.2659 63.674 50.0177C63.9533 50.1851 64.3057 50.172 64.5717 49.9849L66.2873 48.7669C66.6064 48.5403 66.9256 48.5141 67.0386 48.629L69.7017 51.262C69.8148 51.3736 69.7915 51.6822 69.5621 52.0007L68.3286 53.6947C68.1391 53.9573 68.1258 54.3053 68.2954 54.5811C69.0601 55.809 69.622 57.1452 69.9611 58.5471C70.0375 58.8623 70.2968 59.0986 70.6194 59.1512L72.7039 59.486C73.0929 59.5484 73.3323 59.7553 73.3323 59.9128L73.3389 63.6358ZM56.3929 50.6742C51.8481 50.6742 47.7489 53.3795 46.01 57.5259C44.2678 61.6724 45.2287 66.4491 48.4437 69.6244C51.6587 72.799 56.4929 73.7478 60.6957 72.0308C64.8949 70.3105 67.6344 66.2658 67.6344 61.7747C67.6278 55.6485 62.6002 50.681 56.3929 50.6742ZM65.4864 62.5785H65.9718C65.8023 64.5352 65.0243 66.3902 63.7376 67.8905L63.3985 67.5556C63.2455 67.3947 63.0361 67.2995 62.8167 67.2963C62.5939 67.293 62.3811 67.3783 62.2249 67.5326C62.0686 67.6869 61.9822 67.897 61.9855 68.117C61.9921 68.3337 62.0852 68.5405 62.2481 68.6883L62.5873 69.0231V69.0264C61.0712 70.2937 59.1894 71.0652 57.2079 71.2294V70.7533C57.2145 70.5333 57.1347 70.3232 56.9785 70.1656C56.8255 70.0113 56.6161 69.9227 56.3933 69.9227C56.1739 69.9227 55.9644 70.0113 55.8082 70.1656C55.6552 70.3232 55.5721 70.5333 55.5821 70.7533V71.2294C53.5972 71.0652 51.7154 70.2937 50.196 69.0264L50.5385 68.6883C50.8543 68.3764 50.8543 67.8675 50.5385 67.5523C50.2193 67.2404 49.704 67.2404 49.3881 67.5523L49.0456 67.8905C47.7623 66.3901 46.981 64.5352 46.8147 62.5785H47.3035C47.7523 62.5785 48.118 62.2174 48.118 61.7741C48.118 61.3309 47.7523 60.9698 47.3035 60.9698H46.8181C46.9876 59.0131 47.7656 57.1581 49.0523 55.6578L49.3914 55.9927V55.996C49.7139 56.2751 50.2026 56.2586 50.5085 55.9566C50.8111 55.6578 50.8244 55.1752 50.5384 54.8568L50.1993 54.5219H50.196C51.7154 53.2514 53.5939 52.4831 55.5754 52.319V52.7983V52.795C55.592 53.2284 55.9511 53.5731 56.3899 53.5731C56.8288 53.5731 57.1912 53.2284 57.2045 52.795V52.3157V52.319C59.186 52.4831 61.0646 53.2514 62.5839 54.5219L62.2448 54.8568C61.9256 55.1719 61.9256 55.6841 62.2415 55.9993C62.5606 56.3145 63.0793 56.3145 63.3985 55.9993L63.7376 55.6644V55.6611C65.0243 57.1615 65.8056 59.0164 65.9718 60.9731H65.4864C65.0376 60.9731 64.6719 61.3342 64.6719 61.7774C64.6719 62.2207 65.0376 62.5818 65.4864 62.5818L65.4864 62.5785ZM57.2078 60.3296V55.0471C57.1945 54.6138 56.8321 54.2691 56.3933 54.2691C55.9544 54.2691 55.5953 54.6138 55.5787 55.0471V60.3296C55.0501 60.6218 54.7176 61.1734 54.7176 61.7742C54.7176 62.375 55.0501 62.9266 55.5787 63.2188V66.2293C55.5721 66.446 55.6552 66.6594 55.8081 66.8137C55.961 66.9713 56.1738 67.0599 56.3933 67.0599C56.616 67.0599 56.8255 66.9713 56.9784 66.8137C57.1314 66.6594 57.2145 66.446 57.2078 66.2293V63.2188C57.7398 62.9266 58.0689 62.375 58.0689 61.7742C58.0689 61.1734 57.7398 60.6218 57.2078 60.3296ZM56.4431 61.7742C56.4431 61.8169 56.3899 61.8399 56.36 61.807C56.3301 61.7775 56.3534 61.7282 56.3966 61.7282C56.4199 61.7282 56.4398 61.7512 56.4398 61.7742H56.4431ZM16.869 47.5881H7.68956C7.24072 47.5881 6.875 47.9459 6.875 48.3891V61.7743C6.875 62.2175 7.24072 62.5786 7.68956 62.5786H16.869C17.3178 62.5786 17.6802 62.2175 17.6802 61.7743V48.3891C17.6802 47.9459 17.3178 47.5881 16.869 47.5881ZM16.0544 60.9732L8.50066 60.97V49.1901H16.0511L16.0544 60.9732ZM31.8599 36.5604H22.6805C22.2316 36.5604 21.8659 36.9182 21.8659 37.3647V61.7742C21.8659 62.2174 22.2316 62.5786 22.6805 62.5786H31.8599C32.3088 62.5786 32.6745 62.2174 32.6745 61.7742V37.3647C32.6745 36.9182 32.3088 36.5604 31.8599 36.5604ZM31.0454 60.9699H23.4949V38.1656H31.0454V60.9699ZM11.26 38.1035C11.3897 38.2742 11.5825 38.3891 11.7953 38.4186C11.8352 38.4252 11.8751 38.4285 11.915 38.4285C12.0878 38.4285 12.2607 38.3727 12.4004 38.2676L27.7539 26.9735L42.4163 31.5533C42.6823 31.6354 42.9749 31.5796 43.1877 31.399L54.6643 21.8094V24.7379C54.6643 25.1844 55.0267 25.5422 55.4755 25.5422H59.033C59.4818 25.5422 59.8475 25.1844 59.8475 24.7379V14.5338C59.8475 14.0906 59.4818 13.7295 59.033 13.7295H48.696C48.2472 13.7295 47.8848 14.0906 47.8848 14.5338V18.0434C47.8848 18.4899 48.2472 18.8478 48.696 18.8478H50.1789L41.6775 25.9523L27.1819 21.425C26.9326 21.3495 26.6633 21.3954 26.4538 21.5497L9.30524 34.1634C8.94285 34.426 8.86638 34.9283 9.13236 35.2861L11.26 38.1035ZM27.0927 23.0836L41.6181 27.6207C41.8874 27.7061 42.1767 27.647 42.3928 27.4697L52.9289 18.6583C53.1882 18.4416 53.2846 18.0871 53.1683 17.7686C53.0486 17.4534 52.7427 17.2433 52.4036 17.2433H49.5111L49.5078 15.3392H58.2182V23.9371H56.2899V20.0762C56.2899 19.7643 56.1071 19.4786 55.8178 19.3473C55.5319 19.216 55.1928 19.262 54.9501 19.4622L42.4793 29.8823L27.8476 25.3221C27.5982 25.2433 27.3256 25.2893 27.1161 25.4436L12.0818 36.5007L10.9281 34.9741L27.0927 23.0836Z" fill="black"/>
</svg>
