<svg width="74" height="74" viewBox="0 0 74 74" fill="none" xmlns="http://www.w3.org/2000/svg">
<path d="M69.0164 48.0197L67.4538 47.7669L67.4572 47.7701C67.118 46.5653 66.6326 45.4096 66.0109 44.3229L66.9352 43.0524C67.6334 42.2382 67.6201 41.0399 66.9019 40.2388L64.2355 37.6058L64.2388 37.6091C63.4276 36.8999 62.2141 36.8868 61.3862 37.5762L60.0995 38.4889H60.1028C59.6474 38.2361 59.1819 38.0063 58.7032 37.7994V19.6346C58.7032 19.1914 58.3374 18.8302 57.8886 18.8302H48.7126C48.2637 18.8302 47.898 19.1914 47.898 19.6346V37.1725C46.8109 37.4975 45.7636 37.9407 44.7761 38.4922L43.7122 37.7371V32.1658C43.7122 31.7226 43.3498 31.3615 42.8976 31.3615H33.7182C33.2693 31.3615 32.9069 31.7226 32.9069 32.1658V51.8939C32.9069 52.3372 33.2693 52.6983 33.7182 52.6983H33.8678V53.7554C33.9376 54.8191 34.7821 55.676 35.8593 55.7679L37.4218 56.0207V56.0174C37.761 57.2223 38.2464 58.3779 38.8681 59.4647L37.9438 60.7319C37.2457 61.5461 37.2589 62.7444 37.9771 63.5455L40.6402 66.1785V66.1752C41.4514 66.8844 42.6649 66.8975 43.4895 66.208L44.7762 65.2954C45.8767 65.9093 47.047 66.3887 48.2672 66.7235L48.5232 68.2665H48.5198C48.6129 69.3302 49.4807 70.1674 50.5579 70.233H54.3281C55.4053 70.1674 56.2731 69.3302 56.3628 68.2665L56.6188 66.7235C57.839 66.3919 59.0093 65.9093 60.1098 65.2954L61.3965 66.208H61.3932C62.221 66.8975 63.4345 66.8844 64.2458 66.1752L66.9122 63.5422L66.9089 63.5455C67.627 62.7444 67.6403 61.5461 66.9422 60.7319L66.0179 59.4614C66.6396 58.3779 67.1251 57.219 67.4641 56.0174L69.0267 55.7646H69.0234C70.1006 55.6727 70.9451 54.8191 71.0116 53.7554V50.0324C70.9451 48.9687 70.097 48.1115 69.0164 48.0197ZM57.0742 20.4357L57.0775 37.1987C56.9246 37.1528 56.7717 37.1068 56.6187 37.0641L56.3627 35.5211V35.5244C56.273 34.4607 55.4052 33.6202 54.3247 33.5545H50.5578C50.1887 33.5578 49.8297 33.6661 49.5271 33.8697V20.4358L57.0742 20.4357ZM42.0833 32.9704V37.0807V37.0774C41.548 37.0446 41.0227 37.2383 40.637 37.6126L37.9739 40.2456V40.2423C37.2558 41.0433 37.2425 42.2417 37.9407 43.0559L38.8649 44.3264C38.2432 45.4131 37.7545 46.5688 37.4187 47.7737L35.8561 48.0265V48.0232C35.364 48.0987 34.9019 48.3055 34.5262 48.6272V32.9703L42.0833 32.9704ZM69.3858 53.755C69.3858 53.9093 69.1464 54.1194 68.7574 54.1818L66.6729 54.5166H66.6695C66.347 54.5692 66.0877 54.8088 66.0112 55.124C65.6721 56.5226 65.1102 57.8588 64.3489 59.0866C64.176 59.3624 64.1893 59.7104 64.3821 59.973L65.6156 61.6671C65.845 61.9822 65.8683 62.2974 65.7552 62.4058L63.0921 65.0388C62.9791 65.1504 62.6666 65.1274 62.3408 64.9009L60.6285 63.6829C60.3626 63.4957 60.0068 63.4826 59.7275 63.65C58.4841 64.4019 57.1309 64.9567 55.7146 65.2915C55.3954 65.3671 55.1561 65.6264 55.1029 65.9449L54.7637 68.0033C54.7006 68.3874 54.4911 68.6238 54.3315 68.6238H50.558C50.3984 68.6238 50.1889 68.3874 50.1257 68.0033L49.7866 65.9449H49.7833C49.7301 65.6264 49.4907 65.3671 49.1716 65.2915C47.7552 64.9567 46.4021 64.4018 45.1586 63.65C44.8794 63.4826 44.5236 63.4957 44.2576 63.6829L42.5421 64.9009C42.2229 65.1274 41.9038 65.1504 41.7907 65.0388L39.1276 62.4058C39.0146 62.2941 39.0378 61.9822 39.2673 61.6671L40.5007 59.973C40.6902 59.7104 40.7035 59.3624 40.534 59.0866C39.7726 57.8588 39.2107 56.5225 38.8716 55.1206C38.7951 54.8088 38.5325 54.5691 38.21 54.5166L36.1254 54.1817C35.7364 54.1193 35.497 53.9125 35.497 53.7549V50.0319C35.497 49.8776 35.7364 49.6675 36.1254 49.6051L38.21 49.2702C38.5325 49.2177 38.7951 48.9813 38.8716 48.6661C39.2107 47.2675 39.7726 45.9281 40.534 44.7035C40.7035 44.4278 40.6902 44.0765 40.5007 43.8138L39.2639 42.1165C39.0345 41.8013 39.0079 41.4862 39.1243 41.3778L41.7874 38.7448C41.9004 38.6332 42.2196 38.6562 42.5388 38.8827L44.2543 40.1007V40.104C44.5236 40.2911 44.876 40.3043 45.1553 40.1368C46.3987 39.385 47.752 38.8302 49.1682 38.4921C49.4874 38.4165 49.7301 38.1605 49.7833 37.842L50.1224 35.7835C50.1856 35.3994 50.3951 35.163 50.5546 35.163H54.3216C54.4812 35.163 54.6906 35.3994 54.7538 35.7835L55.0929 37.842C55.1461 38.1605 55.3888 38.4165 55.708 38.4921C57.1244 38.8302 58.4775 39.385 59.7209 40.1368C60.0002 40.3043 60.3526 40.2911 60.6186 40.104L62.3341 38.886C62.6533 38.6595 62.9725 38.6332 63.0855 38.7481L65.7486 41.3811C65.8616 41.4927 65.8384 41.8013 65.609 42.1198L64.3755 43.8138C64.186 44.0765 64.1727 44.4245 64.3423 44.7003C65.107 45.9281 65.6688 47.2643 66.0079 48.6662C66.0844 48.9814 66.3437 49.2178 66.6662 49.2703L68.7508 49.6052C69.1398 49.6676 69.3792 49.8744 69.3792 50.032L69.3858 53.755ZM52.4398 40.7934C47.895 40.7934 43.7957 43.4986 42.0569 47.6451C40.3147 51.7916 41.2756 56.5682 44.4906 59.7435C47.7056 62.9182 52.5397 63.867 56.7426 62.15C60.9418 60.4297 63.6813 56.3849 63.6813 51.8938C63.6746 45.7676 58.647 40.8001 52.4398 40.7934ZM61.5333 52.6977H62.0187C61.8491 54.6543 61.0711 56.5093 59.7845 58.0096L59.4454 57.6748C59.2924 57.5139 59.083 57.4187 58.8635 57.4154C58.6408 57.4121 58.428 57.4975 58.2717 57.6518C58.1155 57.8061 58.029 58.0162 58.0324 58.2362C58.039 58.4528 58.1321 58.6597 58.295 58.8074L58.6341 59.1423V59.1456C57.1181 60.4128 55.2363 61.1844 53.2547 61.3485V60.8725C53.2614 60.6525 53.1816 60.4424 53.0253 60.2848C52.8724 60.1305 52.6629 60.0418 52.4402 60.0418C52.2207 60.0418 52.0113 60.1305 51.855 60.2848C51.7021 60.4424 51.619 60.6525 51.6289 60.8725V61.3485C49.6441 61.1843 47.7623 60.4128 46.2429 59.1456L46.5854 58.8074C46.9012 58.4955 46.9012 57.9867 46.5854 57.6714C46.2662 57.3596 45.7508 57.3596 45.435 57.6714L45.0925 58.0096C43.8092 56.5092 43.0278 54.6543 42.8616 52.6976H43.3504C43.7992 52.6976 44.1649 52.3365 44.1649 51.8933C44.1649 51.4501 43.7992 51.0889 43.3504 51.0889H42.865C43.0345 49.1323 43.8125 47.2773 45.0992 45.777L45.4383 46.1118V46.1151C45.7608 46.3942 46.2495 46.3778 46.5554 46.0757C46.8579 45.777 46.8712 45.2944 46.5853 44.9759L46.2462 44.641H46.2429C47.7623 43.3705 49.6408 42.6022 51.6223 42.4381V42.9174V42.9141C51.6389 43.3475 51.998 43.6922 52.4368 43.6922C52.8757 43.6922 53.2381 43.3475 53.2514 42.9141V42.4348V42.4381C55.2329 42.6022 57.1114 43.3705 58.6308 44.641L58.2917 44.9759C57.9725 45.2911 57.9725 45.8032 58.2883 46.1184C58.6075 46.4336 59.1262 46.4336 59.4454 46.1184L59.7845 45.7836V45.7803C61.0711 47.2807 61.8525 49.1356 62.0187 51.0922H61.5333C61.0845 51.0922 60.7187 51.4534 60.7187 51.8966C60.7187 52.3398 61.0845 52.7009 61.5333 52.7009L61.5333 52.6977ZM53.2547 50.4488V45.1663C53.2414 44.7329 52.879 44.3882 52.4401 44.3882C52.0013 44.3882 51.6422 44.7329 51.6256 45.1663V50.4488C51.097 50.741 50.7645 51.2925 50.7645 51.8933C50.7645 52.4942 51.097 53.0457 51.6256 53.3379V56.3485C51.6189 56.5651 51.702 56.7785 51.855 56.9328C52.0079 57.0904 52.2207 57.1791 52.4401 57.1791C52.6629 57.1791 52.8723 57.0904 53.0253 56.9328C53.1782 56.7785 53.2613 56.5651 53.2547 56.3485V53.3379C53.7866 53.0457 54.1158 52.4942 54.1158 51.8933C54.1158 51.2925 53.7866 50.741 53.2547 50.4488ZM52.49 51.8933C52.49 51.936 52.4368 51.959 52.4069 51.9262C52.377 51.8966 52.4002 51.8474 52.4435 51.8474C52.4667 51.8474 52.4867 51.8704 52.4867 51.8933H52.49ZM12.9159 37.7072H3.73643C3.2876 37.7072 2.92188 38.065 2.92188 38.5083V51.8934C2.92188 52.3367 3.2876 52.6978 3.73643 52.6978H12.9159C13.3647 52.6978 13.7271 52.3367 13.7271 51.8934V38.5083C13.7271 38.065 13.3647 37.7072 12.9159 37.7072ZM12.1013 51.0924L4.54753 51.0891V39.3092H12.098L12.1013 51.0924ZM27.9068 26.6795H18.7274C18.2785 26.6795 17.9128 27.0374 17.9128 27.4839V51.8934C17.9128 52.3366 18.2785 52.6977 18.7274 52.6977H27.9068C28.3556 52.6977 28.7214 52.3366 28.7214 51.8934V27.4839C28.7214 27.0374 28.3556 26.6795 27.9068 26.6795ZM27.0922 51.089H19.5418V28.2848H27.0922V51.089ZM7.30687 28.2226C7.43653 28.3933 7.62937 28.5082 7.84215 28.5378C7.88205 28.5443 7.92195 28.5476 7.96184 28.5476C8.13472 28.5476 8.30761 28.4918 8.44725 28.3867L23.8008 17.0926L38.4632 21.6725C38.7292 21.7545 39.0218 21.6987 39.2345 21.5182L50.7112 11.9285V14.857C50.7112 15.3035 51.0736 15.6614 51.5224 15.6614H55.0799C55.5287 15.6614 55.8944 15.3035 55.8944 14.857V4.65298C55.8944 4.20977 55.5287 3.84863 55.0799 3.84863H44.7429C44.2941 3.84863 43.9317 4.20977 43.9317 4.65298V8.16258C43.9317 8.60907 44.2941 8.96692 44.7429 8.96692H46.2257L37.7244 16.0714L23.2288 11.5441C22.9794 11.4686 22.7101 11.5146 22.5007 11.6689L5.35212 24.2825C4.98972 24.5452 4.91326 25.0475 5.17923 25.4053L7.30687 28.2226ZM23.1396 13.2027L37.665 17.7399C37.9343 17.8252 38.2235 17.7661 38.4396 17.5888L48.9758 8.77745C49.2351 8.56077 49.3315 8.2062 49.2152 7.88774C49.0955 7.57257 48.7896 7.36245 48.4505 7.36245H45.558L45.5547 5.4583H54.2651V14.0562H52.3368V10.1953C52.3368 9.88342 52.1539 9.59779 51.8647 9.46647C51.5788 9.33515 51.2396 9.38111 50.997 9.58138L38.5262 20.0014L23.8944 15.4412C23.6451 15.3624 23.3725 15.4084 23.163 15.5627L8.12863 26.6198L6.97493 25.0932L23.1396 13.2027Z" fill="black"/>
</svg>
