<svg width="220" height="224" viewBox="0 0 220 224" fill="none" xmlns="http://www.w3.org/2000/svg">
<g opacity="0.2">
<path d="M219.387 182.144L147.365 224L0 138.992L72.0192 97.1387L219.387 182.144Z" fill="#9CB6C1"/>
</g>
<g opacity="0.2">
<path d="M206.719 138.313L160.897 164.944L91.625 125.024L137.449 98.3892L206.719 138.313Z" fill="#9CB6C1"/>
</g>
<path d="M142.286 72.7606C142.259 72.4719 142.22 72.197 142.17 71.9289C142.163 71.8854 142.154 71.8487 142.144 71.8029C142.094 71.5417 142.037 71.2943 141.963 71.0537C141.954 71.0193 141.941 70.9872 141.929 70.9506C141.867 70.7443 141.792 70.5542 141.716 70.3686C141.691 70.309 141.668 70.2517 141.645 70.1967C141.569 70.0341 141.489 69.8829 141.402 69.7385C141.368 69.679 141.338 69.6125 141.301 69.5575C141.278 69.5186 141.244 69.4796 141.219 69.4475C141.068 69.2184 140.905 69.0145 140.731 68.8381C140.676 68.7785 140.621 68.7189 140.564 68.6662C140.355 68.4692 140.135 68.2882 139.895 68.1484C140.628 68.5746 141.361 69.003 142.092 69.4269C142.335 69.5689 142.555 69.7454 142.768 69.9424C142.82 69.9974 142.875 70.0501 142.923 70.1051C143.107 70.2884 143.269 70.4969 143.425 70.7237C143.439 70.7466 143.462 70.7673 143.482 70.8016C143.492 70.8085 143.496 70.8223 143.503 70.836C143.537 70.8933 143.57 70.9597 143.604 71.0216C143.67 71.1407 143.741 71.253 143.801 71.3744C143.815 71.4088 143.831 71.4455 143.84 71.4752C143.87 71.5279 143.893 71.5921 143.913 71.6517C143.95 71.7319 143.984 71.8097 144.021 71.8968C144.062 72.0068 144.101 72.1305 144.138 72.2474C144.142 72.2726 144.154 72.2978 144.163 72.3207C144.165 72.3413 144.172 72.3597 144.181 72.3849C144.22 72.5315 144.262 72.6827 144.296 72.8408C144.317 72.9256 144.333 73.0149 144.353 73.1043C144.358 73.1341 144.362 73.1593 144.365 73.1868C144.372 73.2189 144.376 73.2578 144.385 73.2899C144.413 73.4388 144.436 73.5878 144.452 73.7413C144.468 73.8467 144.477 73.9543 144.486 74.0643C144.488 74.0803 144.491 74.0941 144.495 74.1124C144.495 74.1307 144.497 74.156 144.5 74.1858C144.514 74.3324 144.525 74.4767 144.53 74.6325C144.534 74.7814 144.539 74.9327 144.539 75.0885C144.539 75.0885 144.539 75.1022 144.539 75.1137L144.644 112.201L142.447 110.921L142.342 73.8375C142.342 73.5007 142.323 73.1708 142.296 72.8523C142.296 72.8133 142.291 72.7881 142.286 72.7606Z" fill="#978050"/>
<path d="M111.939 90.8698C111.943 90.6819 111.95 90.4987 111.964 90.3108C111.964 90.265 111.973 90.2168 111.973 90.1687C111.977 90.1527 111.978 90.1321 111.978 90.1137C111.989 89.9969 111.996 89.8708 112.007 89.7517C112.028 89.5592 112.044 89.3691 112.074 89.1835C112.078 89.1033 112.092 89.0254 112.104 88.9452C112.113 88.9086 112.12 88.8651 112.124 88.8215C112.133 88.7459 112.145 88.6863 112.152 88.6107C112.186 88.4137 112.22 88.2258 112.255 88.0311C112.28 87.9096 112.303 87.7882 112.328 87.6645C112.337 87.6347 112.342 87.6025 112.346 87.5682C112.358 87.5269 112.367 87.488 112.372 87.4491C112.417 87.2475 112.463 87.0504 112.514 86.8534C112.555 86.6861 112.598 86.5165 112.644 86.347C112.647 86.3401 112.649 86.3333 112.649 86.3218C112.658 86.3035 112.663 86.2828 112.665 86.2576C112.722 86.0698 112.775 85.8727 112.839 85.6803C112.894 85.4901 112.956 85.2976 113.018 85.112C113.027 85.0983 113.029 85.08 113.034 85.0685C113.034 85.0594 113.038 85.057 113.041 85.0525C113.093 84.8898 113.155 84.7249 113.212 84.5645C113.277 84.3881 113.343 84.2116 113.412 84.0352C113.432 83.9756 113.462 83.9138 113.485 83.8519C113.494 83.829 113.503 83.7969 113.517 83.7762C113.549 83.6892 113.584 83.609 113.616 83.5288C113.687 83.357 113.76 83.1921 113.831 83.0248C113.893 82.885 113.955 82.7544 114.019 82.6169C114.024 82.6009 114.03 82.5871 114.037 82.5757C114.046 82.5597 114.051 82.5413 114.06 82.5253C114.143 82.3466 114.232 82.1656 114.319 81.9823C114.411 81.8036 114.509 81.6157 114.606 81.4324C114.608 81.4209 114.617 81.4118 114.624 81.4026C114.633 81.3843 114.644 81.3659 114.651 81.3476C114.791 81.0864 114.938 80.8252 115.084 80.5686C115.116 80.5159 115.153 80.4609 115.185 80.4128C115.327 80.1791 115.474 79.95 115.621 79.7232C115.696 79.604 115.769 79.4757 115.845 79.3589C115.873 79.3199 115.905 79.2764 115.932 79.242C115.999 79.1458 116.063 79.0496 116.129 78.9556C116.225 78.825 116.317 78.6829 116.413 78.5523C116.51 78.4263 116.606 78.2957 116.702 78.172C116.725 78.1376 116.752 78.1056 116.778 78.0758C116.787 78.0712 116.791 78.0598 116.796 78.046C116.908 77.904 117.027 77.7619 117.146 77.6175C117.259 77.4824 117.366 77.3495 117.483 77.2143C117.502 77.1983 117.518 77.1776 117.536 77.1593C117.554 77.1386 117.575 77.118 117.596 77.0997C117.671 77.0126 117.747 76.9233 117.822 76.8362C117.937 76.7125 118.054 76.5911 118.171 76.4719C118.235 76.4101 118.297 76.3505 118.359 76.2932C118.388 76.2634 118.416 76.2359 118.441 76.2107C118.473 76.1763 118.507 76.142 118.537 76.1145C118.656 75.9976 118.78 75.8808 118.908 75.7731C119.03 75.6609 119.154 75.5509 119.277 75.4478C119.277 75.4478 119.28 75.4432 119.284 75.4432C119.291 75.4363 119.298 75.4317 119.309 75.4226C119.422 75.3263 119.536 75.2301 119.655 75.1408C119.777 75.0422 119.894 74.9552 120.013 74.8658C120.061 74.8292 120.118 74.7902 120.164 74.7582C120.194 74.7398 120.221 74.7191 120.251 74.7008C120.292 74.6687 120.333 74.6412 120.377 74.6115C120.494 74.5358 120.606 74.4511 120.723 74.3846C120.84 74.3067 120.957 74.2403 121.071 74.1693C121.099 74.1532 121.124 74.1326 121.149 74.1189L135.265 65.9737C135.352 65.921 135.439 65.8728 135.529 65.8247C135.639 65.7652 135.751 65.7033 135.866 65.6483C135.948 65.6117 136.035 65.5681 136.122 65.5269C136.138 65.5223 136.147 65.5154 136.161 65.5109C136.173 65.5063 136.186 65.4994 136.198 65.4948C136.312 65.4444 136.42 65.394 136.53 65.3528C136.642 65.3046 136.755 65.2657 136.864 65.2268C136.901 65.213 136.938 65.2061 136.974 65.1901C136.993 65.1809 137.018 65.1786 137.039 65.174C137.094 65.1534 137.151 65.1351 137.201 65.1145C137.32 65.0824 137.43 65.0526 137.54 65.0228C137.627 65.0022 137.715 64.9839 137.799 64.9655C137.82 64.9655 137.836 64.9564 137.857 64.9541C137.87 64.9495 137.886 64.9449 137.9 64.9449C138.024 64.9197 138.143 64.9037 138.262 64.8853C138.379 64.8716 138.498 64.8625 138.613 64.851C138.622 64.851 138.631 64.851 138.642 64.851C138.647 64.851 138.652 64.8464 138.652 64.8464C138.794 64.8395 138.929 64.8326 139.064 64.8349C139.156 64.8349 139.243 64.8441 139.332 64.8464C139.369 64.851 139.396 64.851 139.435 64.851C139.456 64.851 139.483 64.851 139.506 64.8555C139.683 64.8716 139.861 64.8923 140.033 64.9312C140.049 64.9358 140.063 64.9403 140.079 64.9449C140.175 64.9655 140.262 64.9954 140.354 65.0206C140.457 65.0526 140.567 65.0663 140.67 65.103C140.691 65.1145 140.709 65.1282 140.732 65.1374C140.982 65.2268 141.225 65.3367 141.454 65.4742C142.187 65.8981 142.922 66.3219 143.656 66.7458C143.424 66.6106 143.181 66.503 142.925 66.4113C142.796 66.3632 142.666 66.3242 142.524 66.2852C142.441 66.2646 142.366 66.2349 142.279 66.2234C142.065 66.1776 141.848 66.1432 141.623 66.1249C141.598 66.1203 141.564 66.1203 141.536 66.1203C141.307 66.1088 141.073 66.1088 140.835 66.1203C140.826 66.1203 140.824 66.1249 140.815 66.1249C140.565 66.1432 140.31 66.1822 140.047 66.2349C140.031 66.2349 140.013 66.2441 139.997 66.2441C139.747 66.2968 139.493 66.3677 139.236 66.4456C139.213 66.4525 139.188 66.4594 139.167 66.4731C138.897 66.5602 138.624 66.6679 138.345 66.7893C138.34 66.7939 138.333 66.7985 138.329 66.7985C138.04 66.9314 137.753 67.0803 137.456 67.2544L123.344 75.4019C123.039 75.5783 122.739 75.7754 122.441 75.9816C122.414 76 122.386 76.0206 122.357 76.0412C122.066 76.2497 121.777 76.4765 121.493 76.7125C121.488 76.7148 121.484 76.7171 121.481 76.7217C121.197 76.9646 120.913 77.2235 120.638 77.4915C120.608 77.519 120.581 77.5488 120.553 77.5763C120.292 77.8306 120.038 78.0987 119.788 78.3782C119.772 78.4034 119.751 78.4241 119.733 78.4401C119.47 78.7425 119.206 79.0542 118.954 79.3703C118.943 79.3841 118.931 79.4046 118.92 79.4207C118.714 79.6842 118.517 79.9592 118.322 80.2387C118.255 80.3281 118.189 80.4265 118.122 80.5182C118.017 80.6694 117.925 80.8252 117.825 80.9787C117.669 81.2239 117.511 81.4668 117.36 81.7165C117.192 82.0052 117.023 82.2916 116.867 82.5917C116.844 82.6261 116.83 82.6582 116.812 82.6925C116.608 83.0683 116.411 83.4601 116.232 83.8496C116.223 83.8656 116.214 83.8863 116.205 83.9023C116.035 84.2712 115.875 84.6424 115.726 85.0181C115.703 85.0685 115.687 85.1189 115.666 85.1693C115.513 85.5496 115.373 85.9323 115.24 86.3149C115.236 86.3355 115.231 86.3516 115.224 86.3676C115.094 86.764 114.97 87.1742 114.858 87.5774C114.848 87.6186 114.837 87.653 114.823 87.6919C114.722 88.0814 114.626 88.4641 114.548 88.8467C114.534 88.8856 114.528 88.9246 114.521 88.9612C114.441 89.3439 114.376 89.7174 114.321 90.0931C114.312 90.1412 114.305 90.1893 114.298 90.2374C114.246 90.6086 114.209 90.9821 114.179 91.3556C114.179 91.3968 114.17 91.438 114.17 91.4816C114.14 91.8825 114.127 92.2835 114.127 92.6753L114.23 129.758L112.035 128.482L111.932 91.3991C111.932 91.2204 111.932 91.0462 111.939 90.8698Z" fill="#978050"/>
<path d="M123.345 75.3957C118.242 78.3399 114.107 86.0887 114.125 92.6691L114.228 129.752L116.437 128.476L116.332 91.3928C116.322 86.217 119.473 80.1797 123.359 77.9344L137.466 69.7846C141.349 67.5392 144.527 69.9358 144.538 75.1093L144.644 112.197L146.855 110.916L146.749 73.8331C146.731 67.2528 142.561 64.2994 137.454 67.2482L123.345 75.3957Z" fill="#3C2C0B"/>
<mask id="mask0_18_240063" style="mask-type:luminance" maskUnits="userSpaceOnUse" x="148" y="18" width="8" height="54">
<path d="M155.447 18.3608C154.546 25.3742 153.643 32.3922 152.743 39.4032C152.287 42.9294 151.833 46.4555 151.382 49.9816C150.482 56.995 149.574 64.0061 148.674 71.0217C148.678 71.0034 148.745 70.9553 148.882 70.882L155.55 19.0276C155.451 18.81 155.417 18.5854 155.447 18.3608Z" fill="white"/>
</mask>
<g mask="url(#mask0_18_240063)">
<path d="M148.881 70.8821L155.548 19.0277V19.0254L148.881 70.8821Z" fill="#123468"/>
<path d="M148.881 70.8827L155.548 19.026C155.528 18.9893 155.516 18.9504 155.502 18.916L148.814 70.9171C148.835 70.9079 148.856 70.8941 148.881 70.8827Z" fill="#113365"/>
<path d="M148.814 70.916L155.502 18.9149C155.492 18.8897 155.486 18.8668 155.476 18.8462L148.779 70.932C148.788 70.932 148.8 70.9206 148.814 70.916Z" fill="#113163"/>
<path d="M148.781 70.9326L155.478 18.8468C155.478 18.8239 155.469 18.8033 155.467 18.7827L148.756 70.9533C148.765 70.9487 148.774 70.9418 148.781 70.9326Z" fill="#103060"/>
<path d="M148.755 70.9512L155.466 18.7806C155.461 18.76 155.452 18.7394 155.452 18.7188L148.734 70.9673C148.744 70.965 148.748 70.9603 148.755 70.9512Z" fill="#102F5E"/>
<path d="M148.734 70.9664L155.452 18.7179C155.447 18.7019 155.442 18.6813 155.442 18.6606L148.711 70.9756C148.722 70.9779 148.727 70.9733 148.734 70.9664Z" fill="#0F2E5B"/>
<path d="M148.713 70.9784L155.445 18.6636C155.445 18.6452 155.44 18.6246 155.44 18.604L148.697 70.9922C148.706 70.9899 148.709 70.983 148.713 70.9784Z" fill="#0F2C58"/>
<path d="M148.699 70.99L155.442 18.6018C155.437 18.5812 155.437 18.5582 155.437 18.5376L148.689 70.9992C148.694 70.9992 148.699 70.9946 148.699 70.99Z" fill="#0F2B56"/>
<path d="M148.687 70.9986L155.434 18.537C155.434 18.5141 155.434 18.4912 155.434 18.4683L148.68 71.0146C148.68 71.0078 148.684 71.0077 148.687 70.9986Z" fill="#0E2A53"/>
<path d="M148.68 71.015L155.435 18.4687C155.439 18.4412 155.439 18.4137 155.444 18.3862L148.676 71.0173C148.676 71.0173 148.676 71.015 148.68 71.015Z" fill="#0E2851"/>
<path d="M148.677 71.017L155.445 18.3859C155.445 18.3768 155.445 18.3721 155.445 18.3584L155.109 20.9704L154.772 23.5916L154.437 26.2173L154.101 28.8498L153.759 31.4824L153.425 34.1196L152.744 39.4031L152.403 42.0494L152.066 44.6935L151.385 49.9815L151.044 52.6256L150.707 55.265L150.368 57.9045L150.031 60.5394L149.69 63.1674L149.351 65.7908L149.016 68.4142L148.68 71.0239C148.673 71.0216 148.677 71.0216 148.677 71.017Z" fill="#0D274E"/>
</g>
<path d="M155.549 18.0161C153.363 35.0031 150.584 52.753 148.398 69.7468C159.644 76.2423 172.087 83.2625 183.328 89.7535C185.509 72.762 187.814 54.8952 189.995 37.9037C178.755 31.4104 166.792 24.5048 155.549 18.0161Z" fill="#3F3F3F"/>
<path d="M155.444 17.4576C155.444 17.4485 155.444 17.4462 155.444 17.4439C155.444 17.4232 155.444 17.4003 155.448 17.382C155.448 17.3637 155.448 17.343 155.453 17.3224C155.458 17.3064 155.458 17.2881 155.462 17.2674C155.467 17.2514 155.471 17.2285 155.478 17.2124C155.483 17.1918 155.483 17.1735 155.49 17.1529C155.494 17.13 155.506 17.1071 155.515 17.0887C155.524 17.0612 155.531 17.036 155.536 17.0154C155.547 16.9879 155.565 16.9605 155.572 16.9353C155.577 16.9307 155.577 16.9238 155.581 16.9192C155.593 16.8963 155.607 16.8733 155.618 16.8481C155.634 16.8183 155.655 16.7909 155.675 16.7611C155.691 16.7313 155.712 16.7015 155.737 16.6763C155.737 16.674 155.742 16.674 155.742 16.6694C155.762 16.6373 155.788 16.6098 155.817 16.5824C155.838 16.5503 155.868 16.5205 155.9 16.4908C155.909 16.4816 155.925 16.4701 155.934 16.4587C155.946 16.4541 155.955 16.4449 155.959 16.438C155.973 16.4289 155.985 16.4174 155.996 16.4059C156.028 16.3784 156.067 16.3463 156.104 16.3234C156.129 16.3051 156.161 16.2868 156.195 16.2662C156.2 16.2616 156.205 16.257 156.211 16.2547C156.216 16.2524 156.221 16.2502 156.221 16.2502C156.262 16.2227 156.303 16.1974 156.349 16.1768C156.39 16.1516 156.436 16.131 156.482 16.115C156.496 16.1104 156.498 16.1058 156.507 16.1058L156.899 15.95C156.935 15.9317 156.977 15.9179 157.02 15.9065C157.071 15.8905 157.121 15.8767 157.171 15.8652C157.217 15.8515 157.268 15.84 157.323 15.8308C157.327 15.8308 157.327 15.8286 157.327 15.8286C157.378 15.824 157.423 15.8148 157.469 15.8148C157.515 15.808 157.57 15.8057 157.621 15.8057C157.662 15.8057 157.703 15.8057 157.747 15.808C157.751 15.8103 157.756 15.8079 157.758 15.8102C157.763 15.8102 157.767 15.8102 157.767 15.8102C157.818 15.8148 157.868 15.8171 157.918 15.824C157.969 15.8331 158.015 15.84 158.065 15.8515C158.09 15.8583 158.115 15.8675 158.145 15.8767C158.154 15.8767 158.161 15.8812 158.17 15.8812C158.182 15.8858 158.2 15.8904 158.212 15.8927C158.267 15.911 158.317 15.9294 158.37 15.9523C158.42 15.9775 158.475 16.0027 158.523 16.0325L160.267 17.0406L162.015 18.0511L163.731 19.0386C165.459 20.0398 167.191 21.0365 168.923 22.0377L169.056 22.1156L169.306 22.2622C170.907 23.1856 172.516 24.1135 174.122 25.0392L174.355 25.1743L174.539 25.2798C176.667 26.5056 178.796 27.7336 180.92 28.9617L181.428 29.255L182.938 30.128C184.783 31.1911 186.618 32.2542 188.458 33.3196L188.469 33.3242L190.227 34.3391L190.781 34.6576C191.762 35.2236 192.742 35.7872 193.718 36.3554C193.714 36.3485 193.684 36.3531 193.638 36.3623C193.634 36.3645 193.634 36.3669 193.629 36.3692C193.482 36.4013 193.198 36.502 192.779 36.6693L192.392 36.8205C192.092 36.9442 191.766 37.0817 191.448 37.2169C191.427 37.2284 191.402 37.2398 191.377 37.2512C191.361 37.2581 191.347 37.2628 191.336 37.2696C190.905 37.4575 190.508 37.6453 190.217 37.7943C190.213 37.7988 190.206 37.7989 190.206 37.7989C190.197 37.8034 190.194 37.808 190.19 37.8103C190.119 37.8447 190.052 37.8768 189.997 37.9112L155.552 18.0235C155.547 18.0121 155.542 18.0029 155.54 17.996C155.536 17.9869 155.531 17.9823 155.531 17.9709C155.526 17.9617 155.522 17.9571 155.52 17.9479C155.515 17.9365 155.515 17.9319 155.51 17.9181C155.51 17.9136 155.506 17.9044 155.501 17.8952C155.497 17.8883 155.492 17.8769 155.492 17.8677C155.487 17.8586 155.483 17.8517 155.483 17.8426C155.478 17.8334 155.478 17.8265 155.478 17.8173C155.474 17.8059 155.474 17.8013 155.469 17.7921C155.465 17.7807 155.465 17.7715 155.46 17.7647C155.46 17.7532 155.455 17.7486 155.455 17.7371C155.451 17.7279 155.451 17.7211 155.451 17.7073C155.446 17.6982 155.446 17.6913 155.442 17.6822C155.442 17.6661 155.442 17.6523 155.442 17.6386C155.437 17.6226 155.437 17.6089 155.437 17.5951C155.432 17.5584 155.432 17.5149 155.437 17.4783C155.444 17.4714 155.444 17.4622 155.444 17.4576Z" fill="#978050"/>
<path d="M189.993 37.9043C190.023 37.8882 190.048 37.8699 190.08 37.8585C190.11 37.8424 190.14 37.8241 190.176 37.8057C190.197 37.7943 190.217 37.7852 190.243 37.7737C190.263 37.7623 190.284 37.7508 190.3 37.7393C190.325 37.7301 190.346 37.721 190.366 37.7072C190.382 37.698 190.408 37.6866 190.428 37.6774C190.428 37.6774 190.433 37.6728 190.442 37.6683C190.463 37.6591 190.488 37.6476 190.508 37.6362C190.543 37.6247 190.568 37.611 190.596 37.595C190.63 37.5812 190.662 37.5629 190.696 37.5491C190.733 37.5331 190.777 37.5125 190.813 37.4942C190.864 37.4712 190.909 37.4484 190.964 37.4277C190.976 37.4186 190.994 37.4117 191.006 37.4071C191.051 37.3819 191.102 37.3658 191.148 37.3406L191.152 37.3384C191.356 37.2513 191.565 37.1573 191.773 37.068C191.773 37.0634 191.785 37.0588 191.785 37.0588C191.798 37.0588 191.801 37.0542 191.81 37.0497C192.007 36.9672 192.197 36.887 192.385 36.8068L192.772 36.6556C193.377 36.4127 193.723 36.3027 193.716 36.3486C193.517 37.918 193.244 40.0122 193.045 41.5816L192.369 46.8354L191.693 52.1051C191.058 57.0289 190.428 61.9481 189.794 66.8696L189.656 67.9671L189.315 70.6088L189.235 71.2091C188.696 75.3974 188.158 79.5835 187.619 83.7718V83.7809L187.61 83.8405C187.39 85.5658 187.168 87.2888 186.946 89.0095C186.879 89.5319 186.487 90.0221 185.883 90.2696L185.495 90.4208C185.312 90.4919 185.129 90.5331 184.943 90.5491C184.932 90.5491 184.918 90.5583 184.906 90.5583C184.895 90.5583 184.886 90.5583 184.877 90.5583C184.79 90.5629 184.705 90.5628 184.622 90.5537C184.597 90.5491 184.572 90.5583 184.547 90.5537C184.542 90.5537 184.535 90.5491 184.535 90.5491C184.505 90.5491 184.48 90.54 184.448 90.5377C184.402 90.5285 184.352 90.5216 184.311 90.5124C184.286 90.5078 184.26 90.4964 184.24 90.4918C184.219 90.4872 184.203 90.4827 184.189 90.4758C184.173 90.4712 184.155 90.4666 184.139 90.4643C184.098 90.4483 184.052 90.43 184.008 90.4094C183.983 90.4002 183.963 90.3887 183.946 90.3796C183.935 90.375 183.926 90.3704 183.917 90.3658C183.912 90.3612 183.905 90.3566 183.905 90.3566C183.871 90.336 183.848 90.3223 183.818 90.3017C183.793 90.2856 183.768 90.2673 183.743 90.2513C183.726 90.2421 183.706 90.2237 183.683 90.2077C183.683 90.2077 183.678 90.2054 183.674 90.2009C183.658 90.1871 183.637 90.1711 183.619 90.1551C183.598 90.1344 183.582 90.1229 183.564 90.1C183.548 90.0817 183.527 90.068 183.509 90.0451C183.5 90.0313 183.493 90.0199 183.479 90.0038C183.474 89.9992 183.468 89.9924 183.468 89.9924C183.468 89.9878 183.458 89.9809 183.458 89.9763C183.429 89.9443 183.403 89.9099 183.378 89.8687C183.358 89.832 183.337 89.7907 183.316 89.7518L189.993 37.9043Z" fill="#978050"/>
<path d="M146.545 108.591C146.545 108.579 146.545 108.565 146.545 108.549C146.545 108.54 146.545 108.529 146.545 108.517C146.545 108.497 146.545 108.471 146.545 108.451C146.545 108.446 146.545 108.439 146.545 108.439C146.545 108.318 146.547 108.215 146.547 108.13L184.123 86.2422C184.21 86.2422 184.361 86.7875 184.448 86.8058C184.457 86.8104 183.688 86.886 183.706 86.8883C183.71 86.8883 183.715 86.8883 183.717 86.8929C183.729 86.8929 183.743 86.8974 183.749 86.8997C183.775 86.9089 183.804 86.9204 183.825 86.9295C183.85 86.9387 183.871 86.9455 183.896 86.957C183.917 86.9685 183.942 86.9754 183.967 86.9937C183.979 86.996 183.983 87.0028 183.997 87.0097C184.013 87.0143 184.022 87.0189 184.038 87.0257C184.063 87.0418 184.084 87.0556 184.109 87.0739C184.134 87.0922 184.16 87.1106 184.189 87.1312C184.21 87.1449 184.231 87.1678 184.256 87.1861C184.256 87.1861 184.26 87.1953 184.265 87.1953C184.265 87.1953 184.274 87.1976 184.274 87.2022C184.306 87.2297 184.336 87.2618 184.366 87.2916C184.402 87.3282 184.437 87.3626 184.471 87.4061C184.476 87.413 184.483 87.4199 184.483 87.4199C184.492 87.429 184.494 87.4382 184.499 87.4474C184.531 87.4817 184.561 87.523 184.586 87.5665C184.606 87.5986 184.622 87.6329 184.645 87.6673C184.657 87.697 184.677 87.7268 184.691 87.7566C184.7 87.7704 184.707 87.7864 184.716 87.8002C184.732 87.8254 184.742 87.8666 184.753 87.901C184.783 87.972 184.81 88.0476 184.833 88.1255C184.842 88.1416 184.854 88.1576 184.858 88.1759C184.863 88.1943 184.858 88.2126 184.868 88.2378C184.909 88.4165 184.943 88.6135 184.943 88.8129V89.3009C184.948 90.1005 186.423 89.9676 185.894 90.277C185.209 90.6665 182.682 91.8854 182.001 92.2772L180.333 93.2418L178.468 94.3186L176.594 95.4001L175.65 95.9431C174.681 96.5021 173.714 97.0612 172.745 97.6203L170.955 98.6559L169.07 99.7442L167.189 100.832L165.303 101.919L163.417 103.007L161.532 104.093L159.651 105.181L157.77 106.265L156.042 107.266C155.95 107.321 155.859 107.372 155.762 107.42L154.014 108.435L152.145 109.512L150.28 110.588L148.415 111.67L146.563 112.738C146.556 112.742 146.556 112.266 146.552 111.473V110.985C146.55 110.669 146.55 110.339 146.55 110.016C146.55 109.958 146.55 109.894 146.55 109.837C146.55 109.732 146.55 109.628 146.55 109.528C146.55 109.452 146.55 109.374 146.55 109.305C146.55 109.243 146.55 109.184 146.55 109.127C146.55 109.076 146.55 109.026 146.55 108.989C146.55 108.943 146.55 108.902 146.55 108.863C146.55 108.829 146.55 108.797 146.55 108.762C146.55 108.733 146.55 108.703 146.55 108.68C146.545 108.646 146.545 108.62 146.545 108.591Z" fill="#978050"/>
<path d="M112.018 88.0613C123.277 94.6003 135.294 101.591 146.55 108.13C158.582 101.185 171.731 93.3952 183.76 86.4505C172.501 79.9115 160.133 73.3243 148.876 66.7783C136.845 73.7275 124.046 81.1143 112.018 88.0613Z" fill="#3C2C0B"/>
<path d="M110.501 89.8526C110.501 89.7953 110.508 89.738 110.515 89.6785C110.515 89.667 110.519 89.6533 110.519 89.6395C110.524 89.6304 110.526 89.6212 110.526 89.6074C110.535 89.5776 110.535 89.5433 110.542 89.5112C110.554 89.4631 110.565 89.4104 110.576 89.36C110.586 89.3302 110.597 89.305 110.602 89.2775C110.606 89.266 110.606 89.2523 110.613 89.2431C110.618 89.2317 110.618 89.2248 110.622 89.2157C110.638 89.1698 110.654 89.1286 110.677 89.0827C110.693 89.0415 110.709 89.0048 110.73 88.9613C110.739 88.9498 110.741 88.9407 110.748 88.927C110.753 88.927 110.753 88.9155 110.753 88.9155C110.767 88.8949 110.778 88.8743 110.792 88.8491C110.81 88.817 110.831 88.7826 110.851 88.7482C110.87 88.7207 110.895 88.6932 110.911 88.6657C110.92 88.6543 110.927 88.6497 110.936 88.6359H110.941C110.95 88.6153 110.957 88.6062 110.973 88.5901C110.991 88.5672 111.012 88.5489 111.03 88.526C111.048 88.5076 111.067 88.4893 111.081 88.4687C111.101 88.4549 111.117 88.4366 111.133 88.4229C111.149 88.4068 111.165 88.3977 111.181 88.3862C111.195 88.3656 111.213 88.3564 111.227 88.3427C111.243 88.3312 111.262 88.3152 111.278 88.3084C111.294 88.2992 111.314 88.2808 111.333 88.274C111.362 88.251 111.383 88.2419 111.408 88.2282C111.433 88.2121 111.454 88.1984 111.475 88.1892C111.504 88.1755 111.536 88.1594 111.571 88.1503C111.582 88.1411 111.603 88.1388 111.617 88.1296C111.628 88.1296 111.646 88.125 111.656 88.1182C111.665 88.1136 111.674 88.109 111.69 88.1067C111.699 88.1067 111.706 88.1044 111.724 88.0998C111.734 88.0953 111.745 88.0907 111.756 88.0907C111.772 88.0907 111.779 88.0883 111.793 88.0838C111.8 88.0792 111.811 88.0792 111.827 88.0746C111.834 88.0746 111.846 88.0723 111.857 88.0723C111.869 88.0723 111.885 88.0723 111.894 88.0678C111.905 88.0678 111.919 88.0631 111.926 88.0631C111.935 88.0631 111.944 88.0631 111.958 88.0631C111.967 88.0631 111.974 88.0631 111.988 88.0631C111.999 88.0586 112.006 88.0586 112.018 88.0586C112.018 88.0586 112.022 88.0586 112.027 88.0586L146.56 108.127C146.56 108.127 146.56 108.127 146.56 108.132C146.56 108.136 146.56 108.141 146.56 108.148C146.56 108.152 146.56 108.159 146.56 108.168C146.56 108.173 146.56 108.18 146.56 108.189C146.56 108.194 146.56 108.203 146.56 108.21C146.56 108.214 146.56 108.221 146.56 108.23C146.56 108.239 146.56 108.246 146.56 108.256C146.56 108.267 146.56 108.272 146.56 108.281C146.56 108.294 146.56 108.297 146.56 108.306C146.56 108.315 146.56 108.327 146.56 108.336C146.56 108.345 146.56 108.356 146.56 108.365C146.56 108.375 146.56 108.386 146.56 108.395C146.557 108.409 146.557 108.416 146.557 108.43C146.557 108.462 146.557 108.51 146.557 108.551C146.557 108.56 146.557 108.567 146.557 108.576C146.557 108.576 146.557 108.576 146.557 108.581C146.557 108.931 146.557 109.39 146.557 109.878C146.557 109.898 146.557 109.914 146.557 109.933C146.557 109.983 146.557 110.045 146.557 110.095C146.557 110.155 146.557 110.212 146.56 110.267C146.56 110.322 146.56 110.389 146.56 110.446C146.56 110.505 146.56 110.567 146.56 110.622C146.56 110.684 146.56 110.744 146.56 110.806C146.56 110.865 146.56 110.918 146.56 110.982V111.47C146.56 111.617 146.564 111.745 146.564 111.862C146.564 111.908 146.564 111.949 146.564 111.979C146.564 112.013 146.564 112.041 146.564 112.07C146.564 112.132 146.564 112.178 146.564 112.242C146.564 112.242 146.564 112.254 146.564 112.263C146.564 112.299 146.564 112.343 146.564 112.384C146.564 112.405 146.564 112.425 146.564 112.442C146.564 112.508 146.564 112.558 146.564 112.6C146.569 112.616 146.569 112.636 146.569 112.655C146.569 112.71 146.571 112.735 146.571 112.735L144.832 111.72L143.696 111.064C141.764 109.937 139.826 108.815 137.89 107.69L137.821 107.651L136.061 106.624L134.297 105.602L133.25 104.993C132.549 104.585 131.843 104.175 131.142 103.767L130.76 103.547L130.601 103.46C128.883 102.463 127.174 101.467 125.455 100.461L121.92 98.4148C119.579 97.0515 117.239 95.6905 114.893 94.325L111.413 92.3019C111.282 92.2263 111.161 92.13 111.051 92.0132L111.048 92.0086C111.042 91.9995 111.037 91.9971 111.032 91.9834C110.996 91.9467 110.961 91.9124 110.925 91.862C110.895 91.8162 110.863 91.7658 110.828 91.7154C110.808 91.6787 110.792 91.6443 110.771 91.6076C110.767 91.5984 110.76 91.587 110.755 91.5733C110.755 91.5687 110.748 91.5641 110.744 91.5618C110.723 91.5068 110.7 91.4565 110.675 91.3992C110.654 91.3488 110.634 91.2937 110.618 91.2365C110.606 91.1952 110.592 91.154 110.581 91.1035C110.579 91.0944 110.572 91.083 110.572 91.0692C110.572 91.0646 110.57 91.0646 110.57 91.0601C110.556 91.0097 110.547 90.9432 110.533 90.8882C110.524 90.8309 110.521 90.7668 110.515 90.7049C110.508 90.6476 110.505 90.5926 110.505 90.5216C110.505 90.5216 110.505 90.517 110.505 90.5124L110.501 90.0198C110.487 89.9626 110.492 89.9099 110.501 89.8526Z" fill="#1A4789"/>
<path d="M155.531 17.9658L189.998 37.9038L183.757 86.4497L148.873 66.7775L155.531 17.9658Z" fill="#574114"/>
<path d="M153.425 34.1196L187.944 53.8812L185.124 75.8102L150.398 54.9672L153.425 34.1196Z" fill="#3C2C0B"/>
<path d="M102.88 133.339C102.88 133.339 102.506 138.157 100.44 140.771C98.3706 143.374 88.7636 149.446 89.4991 152.088C90.2345 154.725 97.1677 154.862 101.471 150.411C105.778 145.963 106.93 145.269 108.777 144.841C110.622 144.419 113.245 142.055 111.263 138.015C111.263 138.015 105.317 136.418 102.88 133.339Z" fill="black"/>
<path d="M115.212 142.248C115.212 142.248 114.501 147.273 112.157 149.869C109.816 152.469 99.3451 158.176 99.9362 160.992C100.532 163.808 107.786 164.413 112.593 160.037C117.4 155.668 118.653 155.017 120.623 154.696C122.58 154.366 125.49 152.064 123.684 147.706C123.684 147.706 117.562 145.637 115.212 142.248Z" fill="black"/>
<path d="M140.567 70.1055C140.567 70.1055 105.851 89.5623 103.748 95.6981C100.735 104.494 101.289 110.469 102.746 132.289L102.659 137.421C102.659 137.421 107.109 141.043 111.973 138.589C113.478 137.826 111.934 123.463 114.351 115.469C114.351 115.469 115.107 105.981 114.37 103.463C114.37 103.463 142.384 93.7414 148.932 87.7385C155.478 81.7401 140.567 70.1055 140.567 70.1055Z" fill="#231D21"/>
<path d="M170.11 76.2297C170.11 76.2297 175.632 88.7213 160.929 96.3075C145.333 104.361 128.825 114.108 128.825 114.108C128.825 114.108 129.249 123.951 128.023 129.922C126.371 137.971 123.927 148.464 123.927 148.464C123.927 148.464 117.239 151.177 113.469 147.495C113.469 147.495 113.112 108.827 117.658 104.466C122.204 100.102 144.93 82.8261 144.93 82.8261L140.567 70.103L170.11 76.2297Z" fill="#31282E"/>
<path d="M160.926 96.3068C145.33 104.36 128.822 114.107 128.822 114.107C128.822 114.107 129.246 123.95 128.02 129.921C126.368 137.97 125.186 148.092 125.186 148.092C125.186 148.092 122.748 148.865 121.119 148.94C123.431 138.559 124.455 115.445 125.518 111.195C126.833 105.925 143.291 100.287 154.988 94.1072C166.675 87.9256 167.213 75.6333 167.213 75.6265L170.105 76.2291C170.105 76.2291 175.627 88.7207 160.926 96.3068Z" fill="#231D21"/>
<path d="M101.569 131.576C100.112 109.757 100.735 104.494 103.748 95.6981C105.851 89.5623 140.568 70.1055 140.568 70.1055C140.568 70.1055 142.472 71.597 144.623 73.7828C135.254 78.3927 112.81 90.0458 108.621 97.9252C103.815 106.946 107.412 132.091 106.928 139.302C104.777 139.13 101.869 138.026 101.869 138.026L101.569 131.576Z" fill="#31282E"/>
<path d="M122.333 62.5112C123.067 62.5032 123.736 62.5499 124.223 62.5981C124.465 62.6222 124.662 62.646 124.798 62.6646C124.866 62.6738 124.919 62.6816 124.954 62.687C124.96 62.6879 124.965 62.6882 124.97 62.689C126.068 63.408 126.363 64.3058 126.308 65.0298C126.279 65.3991 126.16 65.7263 126.004 65.9663C125.844 66.2128 125.663 66.3424 125.527 66.3667C125.339 66.3998 125.178 66.4038 124.985 66.4136C124.794 66.4233 124.583 66.439 124.317 66.5005C123.855 66.6077 123.239 66.8501 122.263 67.4204L121.821 67.686C119.378 69.198 116.738 70.0686 115.158 70.147C114.378 70.1879 113.766 69.9733 113.453 69.5767C113.149 69.1907 113.083 68.5725 113.527 67.6948V67.6938C113.969 66.8141 114.587 66.2316 115.366 65.6479C116.138 65.0704 117.098 64.4726 118.153 63.6011H118.154C118.653 63.1863 119.325 62.9158 120.064 62.7485C120.803 62.5816 121.598 62.5193 122.333 62.5112Z" fill="white" stroke="black" stroke-width="0.336379"/>
<path d="M146.095 24.9028L146.317 24.9233C148.681 25.1902 150.177 27.3489 151.022 30.5864C151.866 33.8163 152.049 38.0751 151.822 42.4487C151.595 46.8205 150.96 51.3001 150.168 54.9692C149.772 56.8039 149.338 58.4351 148.896 59.7476C148.454 61.0629 148.009 62.0495 147.594 62.603C147.182 63.1532 146.53 63.6346 145.696 64.0552C144.863 64.4753 143.854 64.8317 142.733 65.1323C140.492 65.7337 137.818 66.1121 135.246 66.3491C132.675 66.5861 130.21 66.6812 128.387 66.7173C127.475 66.7353 126.724 66.7391 126.201 66.7378C125.94 66.7372 125.736 66.7355 125.597 66.7339C125.562 66.7335 125.531 66.7323 125.505 66.7319C125.877 65.0403 125.251 63.8213 124.521 63.0249C124.149 62.6184 123.75 62.3214 123.445 62.1265C123.316 62.0438 123.203 61.9802 123.115 61.9331C123.686 61.6964 124.924 61.2762 126.505 60.7651C128.289 60.1883 130.499 59.4993 132.654 58.8374C134.809 58.1755 136.908 57.5404 138.469 57.0708C139.249 56.8361 139.894 56.643 140.345 56.5083C140.57 56.4409 140.747 56.3879 140.867 56.3521C140.927 56.3342 140.973 56.3202 141.004 56.311C141.019 56.3064 141.031 56.3036 141.039 56.3013C141.043 56.3001 141.046 56.2989 141.048 56.2983L141.05 56.2974H141.051L141.125 56.2749L141.122 56.1978V56.1851C141.122 56.1765 141.121 56.1636 141.12 56.147C141.119 56.1134 141.117 56.0636 141.115 55.9985C141.111 55.8677 141.104 55.6747 141.096 55.4272C141.079 54.9319 141.055 54.2167 141.025 53.3394C140.967 51.5847 140.887 49.1793 140.803 46.5767C140.633 41.371 140.446 35.376 140.371 32.2192C140.302 29.0817 141.215 27.1965 142.422 26.1274C143.556 25.1232 144.962 24.8266 146.095 24.9028Z" fill="#E1A31A" stroke="black" stroke-width="0.2"/>
<mask id="path-34-inside-1_18_240063" fill="white">
<path d="M143.529 26.0206C144.493 23.8535 145.813 24.4044 145.813 24.4044C156.426 25.9178 163.293 28.8977 167.588 31.6231C167.712 31.5633 167.779 31.5318 167.779 31.5313C172.696 34.6243 174.309 37.4151 174.309 37.4151C175.999 42.4829 170.766 41.3031 168.228 51.2696C165.696 61.2385 168.904 70.7013 170.256 76.1085C171.612 81.5134 168.173 82.5308 166.626 82.6798C165.747 82.7637 164.858 82.8113 163.966 82.8292C154.431 83.1151 144.352 79.708 141.917 75.4776C141.907 75.4603 141.897 75.4432 141.887 75.4259C141.858 75.374 141.831 75.3217 141.804 75.2696C141.793 75.248 141.781 75.2268 141.771 75.2052C141.648 74.9566 141.553 74.7054 141.486 74.4522C141.478 74.4226 141.47 74.393 141.463 74.3634C141.451 74.3135 141.439 74.264 141.429 74.2139C141.424 74.1873 141.42 74.1605 141.415 74.1339C141.386 73.9639 141.37 73.7935 141.366 73.6221C141.366 73.5851 141.365 73.548 141.365 73.5108C141.366 73.4721 141.367 73.4334 141.369 73.3946C141.372 73.3491 141.375 73.3035 141.379 73.2579C141.383 73.2179 141.386 73.1778 141.391 73.1378C141.412 72.9737 141.446 72.8094 141.492 72.6446C141.499 72.6201 141.507 72.5959 141.515 72.5714C141.537 72.4998 141.56 72.4281 141.587 72.3565C141.591 72.3448 141.596 72.3331 141.601 72.3214C141.635 72.231 141.673 72.1403 141.716 72.0499C144.488 66.1782 142.808 57.4967 142.344 55.4171C142.279 55.1284 142.237 54.9677 142.236 54.96C138.295 50.946 137.656 47.3128 138.046 44.6602C138.334 42.697 139.185 41.2704 139.686 40.6241C140.866 39.1028 142.609 36.2293 142.559 34.5499C142.549 34.2225 142.544 33.9055 142.54 33.5987C142.539 33.4717 142.54 33.3463 142.539 33.2227C142.539 33.0271 142.538 32.8357 142.54 32.6485C142.541 32.5464 142.542 32.4455 142.544 32.3458C142.547 32.1589 142.551 31.9763 142.557 31.7979C142.559 31.7157 142.561 31.6343 142.564 31.5538C142.573 31.3013 142.586 31.0576 142.6 30.8223C142.606 30.7212 142.613 30.6216 142.62 30.5235C142.631 30.3769 142.64 30.2336 142.653 30.0938C142.659 30.0139 142.668 29.9352 142.675 29.8575C142.689 29.7122 142.703 29.5706 142.719 29.4327C142.724 29.3851 142.729 29.3378 142.735 29.2911L142.76 29.0919C142.771 29.005 142.784 28.9198 142.796 28.836C142.851 28.4551 142.913 28.1062 142.982 27.7862C142.991 27.7444 142.999 27.703 143.008 27.6622C143.032 27.557 143.056 27.4553 143.081 27.3565C143.093 27.3109 143.105 27.266 143.116 27.2218C143.141 27.1288 143.165 27.0384 143.191 26.9512C143.206 26.8986 143.224 26.8475 143.239 26.797C143.324 26.5288 143.411 26.2891 143.504 26.0753C143.512 26.0566 143.52 26.0379 143.529 26.0196V26.0206Z"/>
</mask>
<path d="M143.529 26.0206C144.493 23.8535 145.813 24.4044 145.813 24.4044C156.426 25.9178 163.293 28.8977 167.588 31.6231C167.712 31.5633 167.779 31.5318 167.779 31.5313C172.696 34.6243 174.309 37.4151 174.309 37.4151C175.999 42.4829 170.766 41.3031 168.228 51.2696C165.696 61.2385 168.904 70.7013 170.256 76.1085C171.612 81.5134 168.173 82.5308 166.626 82.6798C165.747 82.7637 164.858 82.8113 163.966 82.8292C154.431 83.1151 144.352 79.708 141.917 75.4776C141.907 75.4603 141.897 75.4432 141.887 75.4259C141.858 75.374 141.831 75.3217 141.804 75.2696C141.793 75.248 141.781 75.2268 141.771 75.2052C141.648 74.9566 141.553 74.7054 141.486 74.4522C141.478 74.4226 141.47 74.393 141.463 74.3634C141.451 74.3135 141.439 74.264 141.429 74.2139C141.424 74.1873 141.42 74.1605 141.415 74.1339C141.386 73.9639 141.37 73.7935 141.366 73.6221C141.366 73.5851 141.365 73.548 141.365 73.5108C141.366 73.4721 141.367 73.4334 141.369 73.3946C141.372 73.3491 141.375 73.3035 141.379 73.2579C141.383 73.2179 141.386 73.1778 141.391 73.1378C141.412 72.9737 141.446 72.8094 141.492 72.6446C141.499 72.6201 141.507 72.5959 141.515 72.5714C141.537 72.4998 141.56 72.4281 141.587 72.3565C141.591 72.3448 141.596 72.3331 141.601 72.3214C141.635 72.231 141.673 72.1403 141.716 72.0499C144.488 66.1782 142.808 57.4967 142.344 55.4171C142.279 55.1284 142.237 54.9677 142.236 54.96C138.295 50.946 137.656 47.3128 138.046 44.6602C138.334 42.697 139.185 41.2704 139.686 40.6241C140.866 39.1028 142.609 36.2293 142.559 34.5499C142.549 34.2225 142.544 33.9055 142.54 33.5987C142.539 33.4717 142.54 33.3463 142.539 33.2227C142.539 33.0271 142.538 32.8357 142.54 32.6485C142.541 32.5464 142.542 32.4455 142.544 32.3458C142.547 32.1589 142.551 31.9763 142.557 31.7979C142.559 31.7157 142.561 31.6343 142.564 31.5538C142.573 31.3013 142.586 31.0576 142.6 30.8223C142.606 30.7212 142.613 30.6216 142.62 30.5235C142.631 30.3769 142.64 30.2336 142.653 30.0938C142.659 30.0139 142.668 29.9352 142.675 29.8575C142.689 29.7122 142.703 29.5706 142.719 29.4327C142.724 29.3851 142.729 29.3378 142.735 29.2911L142.76 29.0919C142.771 29.005 142.784 28.9198 142.796 28.836C142.851 28.4551 142.913 28.1062 142.982 27.7862C142.991 27.7444 142.999 27.703 143.008 27.6622C143.032 27.557 143.056 27.4553 143.081 27.3565C143.093 27.3109 143.105 27.266 143.116 27.2218C143.141 27.1288 143.165 27.0384 143.191 26.9512C143.206 26.8986 143.224 26.8475 143.239 26.797C143.324 26.5288 143.411 26.2891 143.504 26.0753C143.512 26.0566 143.52 26.0379 143.529 26.0196V26.0206Z" fill="#FFBE2E"/>
<path d="M143.529 26.0206H143.329L143.711 26.1019L143.529 26.0206ZM145.813 24.4044L145.736 24.5889L145.759 24.5988L145.784 24.6024L145.813 24.4044ZM167.588 31.6231L167.481 31.792L167.575 31.8517L167.675 31.8031L167.588 31.6231ZM167.779 31.5313L167.886 31.362L167.768 31.2878L167.658 31.3728L167.779 31.5313ZM174.309 37.4151L174.498 37.3518L174.492 37.3326L174.482 37.315L174.309 37.4151ZM168.228 51.2696L168.034 51.2202L168.034 51.2204L168.228 51.2696ZM170.256 76.1085L170.062 76.157L170.062 76.1572L170.256 76.1085ZM166.626 82.6798L166.645 82.8789L166.645 82.8788L166.626 82.6798ZM163.966 82.8292L163.962 82.6292L163.96 82.6293L163.966 82.8292ZM141.917 75.4776L142.091 75.3779L142.09 75.3778L141.917 75.4776ZM141.887 75.4259L141.712 75.5235L141.712 75.5236L141.887 75.4259ZM141.804 75.2696L141.982 75.1784L141.982 75.1783L141.804 75.2696ZM141.771 75.2052L141.591 75.2936L141.591 75.2937L141.771 75.2052ZM141.486 74.4522L141.679 74.4005L141.679 74.4004L141.486 74.4522ZM141.463 74.3634L141.269 74.4103L141.269 74.4104L141.463 74.3634ZM141.429 74.2139L141.625 74.1754L141.625 74.1753L141.429 74.2139ZM141.415 74.1339L141.218 74.1679L141.218 74.168L141.415 74.1339ZM141.366 73.6221L141.566 73.6185L141.566 73.6183L141.366 73.6221ZM141.365 73.5108L141.165 73.5077L141.165 73.5079L141.365 73.5108ZM141.369 73.3946L141.569 73.4048L141.569 73.4046L141.369 73.3946ZM141.379 73.2579L141.18 73.2394L141.18 73.2396L141.379 73.2579ZM141.391 73.1378L141.589 73.1635L141.589 73.1632L141.391 73.1378ZM141.492 72.6446L141.3 72.5902L141.3 72.5904L141.492 72.6446ZM141.515 72.5714L141.706 72.6299L141.706 72.6297L141.515 72.5714ZM141.587 72.3565L141.4 72.2864L141.4 72.2866L141.587 72.3565ZM141.601 72.3214L141.787 72.3933L141.787 72.3931L141.601 72.3214ZM141.716 72.0499L141.535 71.9645L141.535 71.9646L141.716 72.0499ZM142.344 55.4171L142.539 55.3735L142.539 55.3735L142.344 55.4171ZM142.236 54.96L142.429 54.9107L142.416 54.8584L142.378 54.8199L142.236 54.96ZM138.046 44.6602L138.244 44.6893L138.244 44.6893L138.046 44.6602ZM139.686 40.6241L139.528 40.5015L139.528 40.5016L139.686 40.6241ZM142.559 34.5499L142.359 34.5557L142.359 34.5559L142.559 34.5499ZM142.54 33.5987L142.34 33.6009V33.6009L142.54 33.5987ZM142.539 33.2227L142.339 33.2234V33.2234L142.539 33.2227ZM142.54 32.6485L142.74 32.6504V32.6504L142.54 32.6485ZM142.544 32.3458L142.344 32.3424L142.344 32.3425L142.544 32.3458ZM142.557 31.7979L142.757 31.8041L142.757 31.8041L142.557 31.7979ZM142.564 31.5538L142.364 31.5463L142.364 31.5463L142.564 31.5538ZM142.6 30.8223L142.799 30.8343L142.799 30.8343L142.6 30.8223ZM142.62 30.5235L142.421 30.5095L142.421 30.5096L142.62 30.5235ZM142.653 30.0938L142.852 30.111L142.852 30.1109L142.653 30.0938ZM142.675 29.8575L142.476 29.8385L142.476 29.8385L142.675 29.8575ZM142.719 29.4327L142.918 29.4554L142.918 29.4553L142.719 29.4327ZM142.735 29.2911L142.536 29.2658L142.536 29.2672L142.735 29.2911ZM142.76 29.0919L142.562 29.0659L142.562 29.0666L142.76 29.0919ZM142.796 28.836L142.994 28.8646L142.994 28.8645L142.796 28.836ZM142.982 27.7862L142.786 27.7444L142.786 27.7445L142.982 27.7862ZM143.008 27.6622L143.203 27.7059L143.203 27.7058L143.008 27.6622ZM143.081 27.3565L142.887 27.3077L142.887 27.3078L143.081 27.3565ZM143.116 27.2218L143.31 27.273L143.31 27.273L143.116 27.2218ZM143.191 26.9512L142.999 26.8947L142.999 26.8947L143.191 26.9512ZM143.239 26.797L143.43 26.8569V26.8569L143.239 26.797ZM143.504 26.0753L143.688 26.1548L143.688 26.1546L143.504 26.0753ZM143.529 26.0196H143.729L143.346 25.9385L143.529 26.0196ZM143.529 26.0206L143.711 26.1019C144.176 25.0567 144.709 24.704 145.089 24.5916C145.283 24.5343 145.45 24.5356 145.566 24.5505C145.624 24.558 145.67 24.5688 145.699 24.5773C145.714 24.5815 145.725 24.585 145.731 24.5873C145.734 24.5884 145.736 24.5891 145.737 24.5894C145.737 24.5896 145.737 24.5896 145.737 24.5895C145.737 24.5895 145.737 24.5894 145.737 24.5893C145.736 24.5893 145.736 24.5892 145.736 24.5892C145.736 24.5891 145.736 24.5891 145.736 24.5891C145.736 24.589 145.736 24.5889 145.813 24.4044C145.89 24.2198 145.89 24.2197 145.889 24.2197C145.889 24.2196 145.889 24.2196 145.889 24.2195C145.889 24.2194 145.889 24.2193 145.888 24.2192C145.888 24.219 145.887 24.2187 145.886 24.2184C145.885 24.2178 145.883 24.2171 145.881 24.2163C145.877 24.2147 145.871 24.2126 145.864 24.2102C145.851 24.2054 145.832 24.1992 145.809 24.1926C145.763 24.1794 145.697 24.1641 145.617 24.1538C145.456 24.1331 145.232 24.1322 144.976 24.208C144.455 24.362 143.845 24.8174 143.346 25.9393L143.529 26.0206ZM145.813 24.4044L145.784 24.6024C156.373 26.1123 163.212 29.0834 167.481 31.792L167.588 31.6231L167.695 31.4543C163.374 28.712 156.479 25.7234 145.841 24.2064L145.813 24.4044ZM167.588 31.6231L167.675 31.8031C167.737 31.7734 167.784 31.7508 167.816 31.7355C167.832 31.7279 167.844 31.7221 167.853 31.7181C167.857 31.7161 167.86 31.7145 167.863 31.7133C167.864 31.7128 167.865 31.7121 167.866 31.7115C167.867 31.7112 167.868 31.7106 167.87 31.7098C167.87 31.7095 167.872 31.7086 167.874 31.7075C167.875 31.7069 167.877 31.7057 167.88 31.7041C167.88 31.704 167.89 31.6984 167.901 31.6899L167.779 31.5313L167.658 31.3728C167.669 31.3642 167.679 31.3586 167.679 31.3586C167.681 31.357 167.684 31.3558 167.685 31.3553C167.687 31.3542 167.688 31.3533 167.689 31.3531C167.689 31.3527 167.69 31.3525 167.69 31.3524C167.691 31.3522 167.691 31.3521 167.691 31.3521C167.691 31.352 167.691 31.3521 167.69 31.3526C167.688 31.3535 167.685 31.3548 167.681 31.3568C167.673 31.3608 167.66 31.3667 167.644 31.3744C167.611 31.39 167.563 31.413 167.501 31.4431L167.588 31.6231ZM167.779 31.5313L167.673 31.7006C170.116 33.2378 171.736 34.6978 172.742 35.77C173.245 36.3061 173.595 36.7455 173.819 37.0492C173.931 37.2011 174.011 37.3191 174.062 37.3984C174.088 37.438 174.107 37.468 174.119 37.4877C174.125 37.4975 174.129 37.5047 174.132 37.5094C174.134 37.5117 174.135 37.5133 174.135 37.5143C174.135 37.5148 174.136 37.5151 174.136 37.5152C174.136 37.5153 174.136 37.5153 174.136 37.5153C174.136 37.5153 174.136 37.5153 174.136 37.5153C174.136 37.5152 174.136 37.5152 174.309 37.4151C174.482 37.315 174.482 37.315 174.482 37.3149C174.482 37.3148 174.482 37.3147 174.482 37.3146C174.482 37.3145 174.481 37.3142 174.481 37.314C174.481 37.3134 174.481 37.3127 174.48 37.3119C174.479 37.3101 174.478 37.3077 174.476 37.3047C174.472 37.2985 174.467 37.2897 174.46 37.2784C174.446 37.2557 174.425 37.2226 174.397 37.1799C174.342 37.0945 174.257 36.9703 174.141 36.8122C173.909 36.4961 173.548 36.0444 173.034 35.4962C172.005 34.3998 170.359 32.9178 167.886 31.362L167.779 31.5313ZM174.309 37.4151L174.119 37.4784C174.532 38.7163 174.513 39.5427 174.242 40.2443C173.966 40.9611 173.419 41.5718 172.705 42.3722C171.28 43.9689 169.314 46.1938 168.034 51.2202L168.228 51.2696L168.422 51.319C169.68 46.379 171.6 44.2104 173.003 42.6385C173.703 41.8545 174.307 41.187 174.615 40.3883C174.93 39.5744 174.931 38.6478 174.498 37.3518L174.309 37.4151ZM168.228 51.2696L168.034 51.2204C165.487 61.2497 168.715 70.7709 170.062 76.157L170.256 76.1085L170.45 76.06C169.093 70.6317 165.905 61.2274 168.422 51.3188L168.228 51.2696ZM170.256 76.1085L170.062 76.1572C170.729 78.8165 170.207 80.3448 169.383 81.2288C168.548 82.1252 167.36 82.4082 166.607 82.4807L166.626 82.6798L166.645 82.8788C167.439 82.8024 168.744 82.5022 169.676 81.5014C170.62 80.4883 171.139 78.8053 170.45 76.0598L170.256 76.1085ZM166.626 82.6798L166.607 82.4807C165.733 82.5641 164.85 82.6114 163.962 82.6292L163.966 82.8292L163.97 83.0291C164.866 83.0111 165.76 82.9634 166.645 82.8789L166.626 82.6798ZM163.966 82.8292L163.96 82.6293C159.216 82.7715 154.336 81.9948 150.342 80.6574C148.346 79.9887 146.575 79.1815 145.156 78.2823C143.734 77.3816 142.677 76.3966 142.091 75.3779L141.917 75.4776L141.744 75.5774C142.375 76.6738 143.491 77.7011 144.942 78.6202C146.395 79.5406 148.196 80.3605 150.215 81.0367C154.254 82.3889 159.181 83.1728 163.972 83.0291L163.966 82.8292ZM141.917 75.4776L142.09 75.3778C142.074 75.3496 142.072 75.3475 142.061 75.3281L141.887 75.4259L141.712 75.5236C141.721 75.539 141.74 75.5709 141.744 75.5774L141.917 75.4776ZM141.887 75.4259L142.061 75.3282C142.034 75.2795 142.008 75.2298 141.982 75.1784L141.804 75.2696L141.626 75.3609C141.653 75.4136 141.682 75.4684 141.712 75.5235L141.887 75.4259ZM141.804 75.2696L141.982 75.1783C141.968 75.1512 141.96 75.137 141.95 75.1166L141.771 75.2052L141.591 75.2937C141.603 75.3165 141.618 75.3448 141.626 75.3609L141.804 75.2696ZM141.771 75.2052L141.95 75.1167C141.833 74.8795 141.743 74.6405 141.679 74.4005L141.486 74.4522L141.292 74.504C141.364 74.7702 141.463 75.0337 141.591 75.2936L141.771 75.2052ZM141.486 74.4522L141.679 74.4004C141.671 74.3731 141.664 74.3454 141.657 74.3163L141.463 74.3634L141.269 74.4104C141.276 74.4406 141.284 74.4721 141.292 74.5041L141.486 74.4522ZM141.463 74.3634L141.657 74.3164C141.645 74.2645 141.634 74.2201 141.625 74.1754L141.429 74.2139L141.233 74.2525C141.244 74.3078 141.257 74.3625 141.269 74.4103L141.463 74.3634ZM141.429 74.2139L141.625 74.1753C141.62 74.1507 141.618 74.1353 141.612 74.0997L141.415 74.1339L141.218 74.168C141.221 74.1857 141.227 74.224 141.233 74.2526L141.429 74.2139ZM141.415 74.1339L141.612 74.0998C141.585 73.9398 141.569 73.7795 141.566 73.6185L141.366 73.6221L141.166 73.6258C141.17 73.8075 141.187 73.9881 141.218 74.1679L141.415 74.1339ZM141.366 73.6221L141.566 73.6183C141.566 73.5801 141.565 73.5468 141.565 73.5137L141.365 73.5108L141.165 73.5079C141.165 73.5492 141.166 73.59 141.166 73.626L141.366 73.6221ZM141.365 73.5108L141.565 73.5139C141.566 73.4777 141.567 73.4414 141.569 73.4048L141.369 73.3946L141.17 73.3845C141.167 73.4254 141.166 73.4665 141.165 73.5077L141.365 73.5108ZM141.369 73.3946L141.569 73.4046C141.571 73.362 141.574 73.3193 141.578 73.2761L141.379 73.2579L141.18 73.2396C141.176 73.2878 141.172 73.3361 141.17 73.3846L141.369 73.3946ZM141.379 73.2579L141.578 73.2763C141.582 73.2306 141.585 73.1987 141.589 73.1635L141.391 73.1378L141.192 73.1121C141.187 73.1569 141.183 73.2053 141.18 73.2394L141.379 73.2579ZM141.391 73.1378L141.589 73.1632C141.609 73.0095 141.641 72.8548 141.685 72.6988L141.492 72.6446L141.3 72.5904C141.251 72.764 141.215 72.9379 141.192 73.1123L141.391 73.1378ZM141.492 72.6446L141.685 72.6991C141.691 72.6769 141.697 72.6607 141.706 72.6299L141.515 72.5714L141.324 72.5128C141.318 72.5311 141.308 72.5634 141.3 72.5902L141.492 72.6446ZM141.515 72.5714L141.706 72.6297C141.727 72.5612 141.749 72.4935 141.774 72.4264L141.587 72.3565L141.4 72.2866C141.371 72.3628 141.346 72.4384 141.324 72.5131L141.515 72.5714ZM141.587 72.3565L141.774 72.4266C141.779 72.415 141.781 72.4107 141.787 72.3933L141.601 72.3214L141.414 72.2494C141.412 72.2555 141.404 72.2745 141.4 72.2864L141.587 72.3565ZM141.601 72.3214L141.787 72.3931C141.821 72.3063 141.857 72.2203 141.897 72.1352L141.716 72.0499L141.535 71.9646C141.49 72.0603 141.45 72.1557 141.414 72.2496L141.601 72.3214ZM141.716 72.0499L141.897 72.1353C143.304 69.156 143.575 65.4792 143.443 62.3031C143.311 59.1226 142.772 56.4197 142.539 55.3735L142.344 55.4171L142.149 55.4606C142.379 56.4941 142.913 59.1717 143.044 62.3198C143.175 65.4723 142.901 69.0721 141.535 71.9645L141.716 72.0499ZM142.344 55.4171L142.539 55.3735C142.507 55.2278 142.48 55.1142 142.461 55.0359C142.451 54.9967 142.443 54.9663 142.438 54.9451C142.435 54.9345 142.433 54.9262 142.432 54.9203C142.431 54.9174 142.43 54.915 142.43 54.9133C142.43 54.9124 142.43 54.9118 142.429 54.9113C142.429 54.9107 142.429 54.9106 142.429 54.9107L142.236 54.96L142.042 55.0094C142.044 55.0164 142.085 55.1748 142.149 55.4607L142.344 55.4171ZM142.236 54.96L142.378 54.8199C138.478 50.8466 137.864 47.2746 138.244 44.6893L138.046 44.6602L137.848 44.6311C137.448 47.351 138.113 51.0455 142.093 55.1001L142.236 54.96ZM138.046 44.6602L138.244 44.6893C138.526 42.7667 139.359 41.3714 139.844 40.7466L139.686 40.6241L139.528 40.5016C139.01 41.1693 138.142 42.6274 137.848 44.6312L138.046 44.6602ZM139.686 40.6241L139.844 40.7467C140.44 39.9774 141.178 38.8684 141.761 37.738C142.34 36.6171 142.786 35.439 142.759 34.5439L142.559 34.5499L142.359 34.5559C142.382 35.3402 141.982 36.4385 141.406 37.5546C140.835 38.6611 140.111 39.7495 139.528 40.5015L139.686 40.6241ZM142.559 34.5499L142.759 34.5441C142.749 34.2182 142.744 33.9024 142.74 33.5965L142.54 33.5987L142.34 33.6009C142.344 33.9087 142.349 34.2269 142.359 34.5557L142.559 34.5499ZM142.54 33.5987L142.74 33.5965C142.739 33.4701 142.74 33.3487 142.739 33.2221L142.539 33.2227L142.339 33.2234C142.34 33.344 142.339 33.4732 142.34 33.6009L142.54 33.5987ZM142.539 33.2227L142.739 33.2221C142.739 33.0267 142.738 32.8363 142.74 32.6504L142.54 32.6485L142.34 32.6466C142.338 32.8351 142.339 33.0275 142.339 33.2234L142.539 33.2227ZM142.54 32.6485L142.74 32.6504C142.741 32.5487 142.742 32.4483 142.744 32.3491L142.544 32.3458L142.344 32.3425C142.342 32.4426 142.341 32.544 142.34 32.6466L142.54 32.6485ZM142.544 32.3458L142.744 32.3491C142.747 32.1629 142.751 31.9813 142.757 31.8041L142.557 31.7979L142.357 31.7918C142.351 31.9713 142.347 32.1548 142.344 32.3424L142.544 32.3458ZM142.557 31.7979L142.757 31.8041C142.759 31.7166 142.76 31.6421 142.764 31.5613L142.564 31.5538L142.364 31.5463C142.361 31.6264 142.359 31.7147 142.357 31.7918L142.557 31.7979ZM142.564 31.5538L142.764 31.5613C142.773 31.3106 142.785 31.0684 142.799 30.8343L142.6 30.8223L142.4 30.8104C142.386 31.0468 142.373 31.292 142.364 31.5463L142.564 31.5538ZM142.6 30.8223L142.799 30.8343C142.805 30.7344 142.813 30.6373 142.82 30.5375L142.62 30.5235L142.421 30.5096C142.414 30.606 142.406 30.7079 142.4 30.8104L142.6 30.8223ZM142.62 30.5235L142.82 30.5375C142.83 30.3904 142.84 30.2489 142.852 30.111L142.653 30.0938L142.453 30.0767C142.441 30.2184 142.431 30.3634 142.421 30.5095L142.62 30.5235ZM142.653 30.0938L142.852 30.1109C142.859 30.0322 142.866 29.9566 142.874 29.8765L142.675 29.8575L142.476 29.8385C142.469 29.9138 142.46 29.9957 142.453 30.0767L142.653 30.0938ZM142.675 29.8575L142.874 29.8765C142.888 29.7318 142.902 29.5916 142.918 29.4554L142.719 29.4327L142.52 29.41C142.504 29.5496 142.49 29.6925 142.476 29.8385L142.675 29.8575ZM142.719 29.4327L142.918 29.4553C142.924 29.4014 142.927 29.3627 142.933 29.315L142.735 29.2911L142.536 29.2672C142.53 29.3129 142.525 29.3688 142.52 29.4101L142.719 29.4327ZM142.735 29.2911L142.933 29.3164L142.958 29.1172L142.76 29.0919L142.562 29.0666L142.536 29.2658L142.735 29.2911ZM142.76 29.0919L142.958 29.1178C142.969 29.0327 142.982 28.9495 142.994 28.8646L142.796 28.836L142.598 28.8074C142.586 28.8901 142.573 28.9773 142.562 29.0659L142.76 29.0919ZM142.796 28.836L142.994 28.8645C143.048 28.4878 143.11 28.1432 143.177 27.828L142.982 27.7862L142.786 27.7445C142.717 28.0691 142.654 28.4225 142.598 28.8075L142.796 28.836ZM142.982 27.7862L143.177 27.828C143.187 27.7823 143.194 27.7459 143.203 27.7059L143.008 27.6622L142.813 27.6185C142.804 27.66 142.794 27.7066 142.786 27.7444L142.982 27.7862ZM143.008 27.6622L143.203 27.7058C143.226 27.6031 143.251 27.5033 143.275 27.4053L143.081 27.3565L142.887 27.3078C142.862 27.4073 142.837 27.5109 142.813 27.6185L143.008 27.6622ZM143.081 27.3565L143.275 27.4053C143.286 27.3612 143.298 27.3177 143.31 27.273L143.116 27.2218L142.923 27.1705C142.911 27.2144 142.899 27.2606 142.887 27.3077L143.081 27.3565ZM143.116 27.2218L143.31 27.273C143.334 27.1794 143.358 27.0918 143.382 27.0078L143.191 26.9512L142.999 26.8947C142.972 26.985 142.948 27.0781 142.923 27.1706L143.116 27.2218ZM143.191 26.9512L143.382 27.0078C143.398 26.9565 143.412 26.9146 143.43 26.8569L143.239 26.797L143.049 26.7371C143.035 26.7805 143.015 26.8407 142.999 26.8947L143.191 26.9512ZM143.239 26.797L143.43 26.8569C143.513 26.5941 143.598 26.3611 143.688 26.1548L143.504 26.0753L143.321 25.9958C143.225 26.2172 143.134 26.4636 143.049 26.7371L143.239 26.797ZM143.504 26.0753L143.688 26.1546C143.695 26.1367 143.703 26.1187 143.711 26.1007L143.529 26.0196L143.346 25.9385C143.337 25.9571 143.329 25.9764 143.32 25.996L143.504 26.0753ZM143.529 26.0196H143.329V26.0206H143.529H143.729V26.0196H143.529Z" fill="black" mask="url(#path-34-inside-1_18_240063)"/>
<path d="M149.839 6.33885C149.839 6.33885 151.312 17.9758 152.018 29.0767C152.119 30.6713 150.403 33.4781 147.456 32.7174C147.456 32.7174 139.038 19.5659 145.77 6.5061C147.903 2.36591 155.606 -3.44689 164.386 2.64999L149.839 6.33885Z" fill="#212121"/>
<mask id="path-37-inside-2_18_240063" fill="white">
<path d="M148.832 5.1003C158.506 -0.0503147 165.148 9.9048 162.504 17.6628C162.023 19.0724 161.365 20.2928 160.593 21.3444C160.195 25.7654 161.473 27.5034 162.783 28.8171C162.902 28.9343 162.993 29.054 163.064 29.1745C164.739 31.9033 156.556 36.0875 156.51 36.111C147.865 38.4756 149.125 32.7537 149.629 31.363C150.19 29.8313 150.211 28.3333 149.97 26.988C149.479 26.9975 149.036 26.9686 148.658 26.9011C144.2 26.1015 144.595 18.4136 144.909 16.489C145.226 14.5921 146.445 13.5771 146.449 12.8142C146.511 5.95267 148.803 5.11076 148.832 5.1003Z"/>
</mask>
<path d="M148.832 5.1003C158.506 -0.0503147 165.148 9.9048 162.504 17.6628C162.023 19.0724 161.365 20.2928 160.593 21.3444C160.195 25.7654 161.473 27.5034 162.783 28.8171C162.902 28.9343 162.993 29.054 163.064 29.1745C164.739 31.9033 156.556 36.0875 156.51 36.111C147.865 38.4756 149.125 32.7537 149.629 31.363C150.19 29.8313 150.211 28.3333 149.97 26.988C149.479 26.9975 149.036 26.9686 148.658 26.9011C144.2 26.1015 144.595 18.4136 144.909 16.489C145.226 14.5921 146.445 13.5771 146.449 12.8142C146.511 5.95267 148.803 5.11076 148.832 5.1003Z" fill="white"/>
<path d="M148.832 5.1003L148.946 5.41699L148.969 5.40873L148.99 5.39721L148.832 5.1003ZM162.504 17.6628L162.822 17.7714L162.822 17.7713L162.504 17.6628ZM160.593 21.3444L160.322 21.1453L160.266 21.2209L160.258 21.3143L160.593 21.3444ZM162.783 28.8171L162.545 29.0546L162.546 29.0559L162.783 28.8171ZM163.064 29.1745L162.773 29.3442L162.777 29.3505L163.064 29.1745ZM156.51 36.111L156.599 36.4355L156.632 36.4264L156.663 36.4106L156.51 36.111ZM149.629 31.363L149.313 31.2473L149.313 31.2484L149.629 31.363ZM149.97 26.988L150.301 26.9288L150.25 26.6461L149.963 26.6517L149.97 26.988ZM148.658 26.9011L148.599 27.2322L148.599 27.2322L148.658 26.9011ZM144.909 16.489L144.578 16.4336L144.577 16.4348L144.909 16.489ZM146.449 12.8142L146.113 12.8111L146.113 12.8121L146.449 12.8142ZM148.832 5.1003L148.99 5.39721C151.353 4.13901 153.507 3.81503 155.365 4.13092C157.223 4.44699 158.812 5.40816 160.037 6.76614C162.495 9.49071 163.468 13.7914 162.186 17.5543L162.504 17.6628L162.822 17.7713C164.184 13.7762 163.158 9.22033 160.537 6.3155C159.223 4.85878 157.503 3.81203 155.478 3.46769C153.452 3.12317 151.148 3.48628 148.674 4.80338L148.832 5.1003ZM162.504 17.6628L162.186 17.5542C161.716 18.9307 161.074 20.1207 160.322 21.1453L160.593 21.3444L160.864 21.5435C161.656 20.465 162.33 19.2141 162.822 17.7714L162.504 17.6628ZM160.593 21.3444L160.258 21.3143C160.056 23.5601 160.277 25.1534 160.733 26.3645C161.19 27.5789 161.874 28.3815 162.545 29.0546L162.783 28.8171L163.022 28.5796C162.383 27.939 161.772 27.2157 161.363 26.1274C160.952 25.0359 160.732 23.5497 160.928 21.3746L160.593 21.3444ZM162.783 28.8171L162.546 29.0559C162.645 29.1535 162.718 29.2502 162.773 29.3442L163.064 29.1745L163.354 29.0048C163.268 28.8578 163.158 28.7151 163.02 28.5783L162.783 28.8171ZM163.064 29.1745L162.777 29.3505C163.091 29.862 162.98 30.4798 162.475 31.216C161.974 31.9471 161.142 32.7005 160.23 33.3887C158.412 34.7605 156.376 35.8016 156.357 35.8115L156.51 36.111L156.663 36.4106C156.69 36.3969 158.768 35.3342 160.635 33.9257C161.565 33.2239 162.467 32.4181 163.03 31.5965C163.59 30.78 163.874 29.8515 163.35 28.9986L163.064 29.1745ZM156.51 36.111L156.421 35.7866C154.285 36.3709 152.802 36.4433 151.785 36.2329C150.784 36.0256 150.235 35.5453 149.935 34.9861C149.626 34.4109 149.56 33.7122 149.611 33.0501C149.662 32.3915 149.827 31.8032 149.945 31.4776L149.629 31.363L149.313 31.2484C149.179 31.6181 148.997 32.2666 148.941 32.9981C148.884 33.7261 148.949 34.5709 149.342 35.3044C149.745 36.0539 150.47 36.6476 151.649 36.8917C152.812 37.1325 154.413 37.0335 156.599 36.4355L156.51 36.111ZM149.629 31.363L149.945 31.4786C150.53 29.8804 150.55 28.3205 150.301 26.9288L149.97 26.988L149.639 27.0472C149.871 28.3462 149.85 29.7822 149.313 31.2473L149.629 31.363ZM149.97 26.988L149.963 26.6517C149.488 26.6609 149.068 26.6327 148.718 26.57L148.658 26.9011L148.599 27.2322C149.004 27.3046 149.469 27.3341 149.976 27.3243L149.97 26.988ZM148.658 26.9011L148.718 26.57C146.715 26.2107 145.74 24.2975 145.325 22.0556C144.915 19.8406 145.089 17.4778 145.241 16.5431L144.909 16.489L144.577 16.4348C144.416 17.4247 144.235 19.8682 144.663 22.1782C145.086 24.4613 146.143 26.7918 148.599 27.2322L148.658 26.9011ZM144.909 16.489L145.241 16.5443C145.389 15.657 145.748 14.9716 146.086 14.3969C146.251 14.1176 146.425 13.8408 146.55 13.5978C146.676 13.355 146.784 13.0896 146.786 12.8162L146.449 12.8142L146.113 12.8121C146.112 12.9202 146.067 13.0677 145.952 13.2891C145.838 13.5103 145.687 13.7488 145.506 14.0558C145.155 14.6536 144.746 15.424 144.578 16.4336L144.909 16.489ZM146.449 12.8142L146.786 12.8172C146.816 9.4201 147.399 7.55429 147.948 6.54939C148.493 5.55268 149.008 5.39462 148.946 5.41699L148.832 5.1003L148.719 4.7836C148.627 4.81644 147.982 5.08457 147.358 6.2268C146.738 7.36085 146.144 9.34674 146.113 12.8111L146.449 12.8142Z" fill="black" mask="url(#path-37-inside-2_18_240063)"/>
<path d="M149.281 7.86918C149.281 7.86918 169.093 15.0933 154.265 40.6241C154.265 40.6241 164.591 41.6116 169.183 32.7149C171.387 28.435 170.505 19.8063 169.833 11.5831C169.833 11.5831 167.526 -1.07338 156.936 0.83519C156.936 0.83519 149.925 3.52507 149.281 7.86918Z" fill="#212121"/>
<path d="M149.281 7.86904C149.281 7.86904 145.814 7.22292 144.135 13.597C144.135 13.597 144.673 -4.40952 161.731 1.02062C161.731 1.02062 151.572 1.52701 149.281 7.86904Z" fill="#212121"/>
<path d="M158.574 18.9909C158.574 18.9909 159.777 15.1669 161.978 16.3285C162.675 16.6951 163.426 17.4856 162.375 19.4538C161.328 21.4265 159.158 23.2227 157.426 23.012L158.574 18.9909Z" fill="white"/>
<path d="M181.245 95.7277C181.22 95.4435 181.183 95.1641 181.133 94.8937C181.124 94.857 181.117 94.8135 181.108 94.7722C181.053 94.5133 180.996 94.259 180.924 94.0207C180.913 93.9841 180.904 93.9543 180.892 93.913C180.821 93.7137 180.75 93.5167 180.675 93.3334C180.65 93.2715 180.624 93.2165 180.599 93.1615C180.524 92.9988 180.441 92.8477 180.356 92.7033C180.327 92.6415 180.294 92.575 180.26 92.5246C180.23 92.4834 180.205 92.4444 180.178 92.4032C180.026 92.1832 179.861 91.9724 179.685 91.7846C179.63 91.7296 179.577 91.6723 179.518 91.6218C179.305 91.4248 179.085 91.2415 178.842 91.104C179.58 91.5302 180.315 91.9587 181.05 92.3848C181.293 92.5269 181.518 92.7056 181.726 92.9072C181.784 92.9576 181.834 93.0126 181.889 93.0653C182.068 93.2532 182.23 93.4617 182.386 93.6862C182.407 93.716 182.432 93.732 182.448 93.7664C182.453 93.7756 182.46 93.7916 182.464 93.7985C182.505 93.8581 182.531 93.9245 182.57 93.9864C182.636 94.1032 182.707 94.2201 182.767 94.3461C182.783 94.3759 182.796 94.4079 182.808 94.4377C182.833 94.4927 182.858 94.5592 182.883 94.6165C182.918 94.6989 182.955 94.7745 182.984 94.8616C183.03 94.9739 183.064 95.0953 183.106 95.2121C183.11 95.2373 183.122 95.2625 183.131 95.2923C183.14 95.3129 183.145 95.3267 183.147 95.3473C183.193 95.4963 183.229 95.6521 183.268 95.8102C183.284 95.8949 183.3 95.9866 183.319 96.0736C183.328 96.1034 183.335 96.1286 183.339 96.1607C183.349 96.1905 183.351 96.2272 183.36 96.257C183.385 96.4082 183.406 96.5571 183.426 96.7152C183.438 96.816 183.447 96.9237 183.459 97.036C183.459 97.0497 183.463 97.0658 183.463 97.0772C183.468 97.1116 183.472 97.1367 183.472 97.1597C183.484 97.3063 183.493 97.4529 183.502 97.6065C183.507 97.7577 183.514 97.902 183.514 98.0624C183.514 98.0716 183.514 98.0784 183.514 98.0876L183.614 135.313L181.41 134.027L181.303 96.8068C181.303 96.4654 181.287 96.1355 181.261 95.8147C181.254 95.7849 181.25 95.7597 181.245 95.7277Z" fill="#978050"/>
<path d="M150.781 113.908C150.786 113.725 150.795 113.532 150.806 113.349C150.811 113.303 150.815 113.257 150.818 113.202C150.822 113.186 150.822 113.166 150.822 113.152C150.831 113.031 150.838 112.907 150.852 112.785C150.868 112.593 150.889 112.405 150.914 112.215C150.925 112.135 150.935 112.061 150.946 111.981C150.955 111.94 150.957 111.899 150.967 111.855C150.976 111.784 150.983 111.709 150.996 111.642C151.026 111.45 151.054 111.257 151.102 111.063C151.118 110.936 151.143 110.817 151.173 110.696C151.177 110.659 151.184 110.629 151.189 110.595C151.198 110.554 151.205 110.513 151.214 110.474C151.26 110.274 151.306 110.077 151.356 109.878C151.397 109.711 151.443 109.541 151.484 109.374C151.489 109.362 151.489 109.358 151.494 109.349C151.498 109.328 151.505 109.312 151.51 109.287C151.565 109.09 151.617 108.895 151.677 108.703C151.739 108.51 151.803 108.322 151.865 108.132C151.869 108.121 151.874 108.107 151.876 108.091C151.876 108.082 151.881 108.079 151.885 108.07C151.94 107.917 151.993 107.745 152.057 107.582C152.117 107.403 152.186 107.227 152.254 107.048C152.279 106.993 152.305 106.927 152.33 106.87C152.339 106.844 152.35 106.815 152.362 106.787C152.396 106.705 152.424 106.624 152.458 106.544C152.529 106.37 152.6 106.207 152.678 106.036C152.735 105.898 152.8 105.765 152.861 105.63C152.871 105.619 152.873 105.596 152.882 105.584C152.891 105.568 152.893 105.55 152.903 105.538C152.99 105.355 153.075 105.176 153.166 104.995C153.258 104.808 153.354 104.624 153.45 104.441C153.459 104.429 153.462 104.42 153.466 104.409C153.475 104.397 153.487 104.379 153.496 104.358C153.638 104.095 153.785 103.834 153.934 103.577C153.966 103.52 154.005 103.469 154.035 103.414C154.177 103.176 154.323 102.952 154.47 102.725C154.545 102.603 154.619 102.477 154.699 102.354C154.729 102.317 154.759 102.278 154.781 102.237C154.848 102.136 154.919 102.049 154.981 101.948C155.077 101.815 155.169 101.678 155.269 101.547C155.361 101.421 155.462 101.297 155.56 101.167C155.581 101.132 155.606 101.1 155.627 101.066C155.638 101.057 155.643 101.05 155.652 101.045C155.764 100.892 155.886 100.745 156.003 100.608C156.115 100.47 156.227 100.34 156.339 100.207C156.36 100.191 156.374 100.17 156.394 100.147C156.415 100.127 156.431 100.111 156.454 100.085C156.534 100.003 156.608 99.9135 156.683 99.8264C156.805 99.705 156.917 99.5813 157.038 99.4598C157.098 99.398 157.164 99.3384 157.222 99.2766C157.251 99.2514 157.279 99.2215 157.309 99.194C157.338 99.1643 157.371 99.1322 157.4 99.1024C157.522 98.9856 157.645 98.8687 157.771 98.7519C157.897 98.6465 158.019 98.5342 158.143 98.4311C158.147 98.4311 158.147 98.4265 158.147 98.4265C158.159 98.4174 158.168 98.4173 158.177 98.4059C158.289 98.3097 158.406 98.2134 158.523 98.1263C158.644 98.0255 158.766 97.9339 158.883 97.8469C158.933 97.8102 158.983 97.7804 159.036 97.746C159.061 97.7208 159.096 97.7002 159.123 97.6796C159.165 97.6498 159.206 97.6177 159.249 97.5879C159.362 97.5078 159.478 97.4321 159.595 97.3588C159.712 97.2832 159.829 97.2122 159.946 97.1503C159.976 97.1297 160.001 97.1183 160.026 97.0953L174.197 88.9181C174.28 88.8677 174.369 88.8195 174.456 88.7714C174.573 88.7073 174.681 88.6523 174.793 88.595C174.878 88.5584 174.965 88.5148 175.052 88.4736C175.063 88.469 175.077 88.4598 175.091 88.4575C175.107 88.4483 175.12 88.4415 175.132 88.4392C175.244 88.3933 175.354 88.3407 175.462 88.2948C175.579 88.2513 175.686 88.2124 175.799 88.1688C175.835 88.1574 175.87 88.1436 175.904 88.1321C175.925 88.1276 175.95 88.1207 175.975 88.1115C176.03 88.0955 176.087 88.0772 176.138 88.0612C176.255 88.0245 176.362 87.9901 176.479 87.9649C176.566 87.942 176.651 87.9283 176.738 87.9099C176.754 87.9008 176.775 87.8985 176.795 87.8985C176.811 87.8939 176.825 87.8893 176.837 87.8847C176.963 87.8618 177.077 87.8389 177.199 87.8229C177.32 87.8114 177.441 87.8022 177.554 87.7908C177.565 87.7862 177.57 87.7862 177.583 87.7862C177.588 87.7862 177.595 87.7862 177.595 87.7862C177.737 87.7793 177.874 87.7725 178.007 87.7725C178.099 87.7725 178.186 87.7816 178.278 87.7862C178.312 87.7862 178.344 87.7862 178.374 87.7908C178.404 87.7908 178.429 87.7907 178.45 87.7953C178.628 87.8114 178.809 87.8343 178.974 87.8664C178.99 87.8709 179.006 87.8824 179.025 87.8824C179.121 87.8985 179.208 87.9374 179.295 87.9557C179.403 87.9878 179.513 88.0084 179.616 88.0451C179.636 88.052 179.652 88.0611 179.673 88.0749C179.927 88.1642 180.177 88.2742 180.408 88.4094C181.139 88.8401 181.877 89.264 182.61 89.6948C182.381 89.5596 182.136 89.4496 181.884 89.3579C181.751 89.3121 181.614 89.2709 181.478 89.2319C181.396 89.209 181.316 89.1861 181.233 89.1678C181.02 89.1243 180.803 89.0899 180.573 89.0715C180.544 89.067 180.516 89.067 180.486 89.067C180.257 89.0555 180.019 89.051 179.781 89.067C179.772 89.067 179.769 89.0715 179.76 89.0715C179.51 89.0899 179.254 89.1288 178.988 89.1815C178.972 89.1861 178.958 89.1907 178.942 89.193C178.697 89.2434 178.433 89.3144 178.175 89.3969C178.154 89.3992 178.129 89.4106 178.108 89.4152C177.833 89.5091 177.563 89.6168 177.281 89.7429C177.272 89.7474 177.27 89.7498 177.27 89.7498C176.979 89.8781 176.685 90.0315 176.394 90.2057L162.228 98.383C161.919 98.5594 161.618 98.7542 161.318 98.9627C161.293 98.9879 161.263 98.9993 161.236 99.0245C160.945 99.2376 160.652 99.4575 160.367 99.6958C160.363 99.7004 160.358 99.705 160.358 99.705C160.07 99.9502 159.788 100.209 159.508 100.482C159.478 100.512 159.449 100.537 159.426 100.562C159.162 100.821 158.903 101.096 158.654 101.371C158.638 101.391 158.617 101.412 158.599 101.433C158.333 101.737 158.074 102.051 157.82 102.372C157.808 102.383 157.799 102.402 157.785 102.413C157.581 102.684 157.38 102.952 157.185 103.231C157.118 103.327 157.052 103.424 156.986 103.52C156.88 103.666 156.784 103.825 156.685 103.978C156.532 104.228 156.369 104.471 156.218 104.725C156.051 105.014 155.884 105.305 155.721 105.605C155.705 105.635 155.686 105.664 155.666 105.692C155.462 106.077 155.274 106.469 155.086 106.86C155.075 106.876 155.07 106.895 155.061 106.915C154.889 107.282 154.731 107.658 154.578 108.033C154.557 108.084 154.536 108.134 154.52 108.18C154.367 108.567 154.22 108.952 154.094 109.337C154.09 109.358 154.085 109.367 154.078 109.392C153.941 109.784 153.819 110.194 153.707 110.602C153.695 110.639 153.682 110.682 153.672 110.719C153.572 111.106 153.475 111.491 153.393 111.871C153.384 111.917 153.377 111.958 153.372 111.993C153.292 112.375 153.226 112.756 153.168 113.131C153.164 113.182 153.157 113.232 153.152 113.278C153.097 113.654 153.056 114.025 153.031 114.401C153.026 114.442 153.022 114.481 153.017 114.527C152.987 114.928 152.976 115.331 152.976 115.73L153.081 152.95L150.877 151.674L150.77 114.449C150.772 114.259 150.776 114.082 150.781 113.908Z" fill="#978050"/>
<path d="M162.235 98.376C157.112 101.329 152.96 109.108 152.981 115.718L153.086 152.939L155.302 151.662L155.196 114.437C155.185 109.239 158.347 103.171 162.244 100.921L176.406 92.7397C180.308 90.4943 183.495 92.8954 183.513 98.0896L183.614 135.315L185.834 134.029L185.729 96.8134C185.713 90.2079 181.522 87.2408 176.403 90.201L162.235 98.376Z" fill="#3C2C0B"/>
<mask id="path-45-inside-3_18_240063" fill="white">
<path d="M144.316 69.6357C146.902 70.6645 146.366 73.1689 145.599 73.4668C144.838 73.7577 144.396 73.4822 142.272 75.4434C140.152 77.4068 135.99 80.0836 134.418 80.4756C132.851 80.8651 132.456 80.1591 133.006 78.1982C133.556 76.2302 135.909 74.0281 137.639 71.9111C139.363 69.7921 144.282 69.6368 144.316 69.6357Z"/>
</mask>
<path d="M144.316 69.6357C146.902 70.6645 146.366 73.1689 145.599 73.4668C144.838 73.7577 144.396 73.4822 142.272 75.4434C140.152 77.4068 135.99 80.0836 134.418 80.4756C132.851 80.8651 132.456 80.1591 133.006 78.1982C133.556 76.2302 135.909 74.0281 137.639 71.9111C139.363 69.7921 144.282 69.6368 144.316 69.6357Z" fill="white"/>
<path d="M144.316 69.6357L144.44 69.3232L144.375 69.2974L144.305 69.2995L144.316 69.6357ZM145.599 73.4668L145.719 73.781L145.721 73.7804L145.599 73.4668ZM142.272 75.4434L142.044 75.1962L142.043 75.1966L142.272 75.4434ZM134.418 80.4756L134.499 80.802L134.5 80.802L134.418 80.4756ZM133.006 78.1982L133.33 78.289L133.33 78.2888L133.006 78.1982ZM137.639 71.9111L137.899 72.124L137.9 72.1234L137.639 71.9111ZM144.316 69.6357L144.191 69.9483C145.375 70.4191 145.803 71.201 145.881 71.8648C145.921 72.206 145.87 72.5224 145.774 72.7617C145.672 73.015 145.544 73.1271 145.477 73.1532L145.599 73.4668L145.721 73.7804C146.037 73.6575 146.264 73.3449 146.398 73.0127C146.537 72.6666 146.602 72.2366 146.549 71.786C146.441 70.8659 145.843 69.8811 144.44 69.3232L144.316 69.6357ZM145.599 73.4668L145.479 73.1526C145.312 73.2163 145.168 73.2478 144.975 73.2964C144.784 73.3442 144.57 73.4041 144.308 73.5221C143.789 73.7564 143.116 74.2054 142.044 75.1962L142.272 75.4434L142.5 75.6905C143.551 74.7201 144.161 74.3264 144.585 74.1353C144.794 74.0408 144.966 73.9923 145.139 73.9488C145.309 73.9059 145.505 73.8628 145.719 73.781L145.599 73.4668ZM142.272 75.4434L142.043 75.1966C141.003 76.1602 139.45 77.3083 137.958 78.2656C137.213 78.7435 136.488 79.1709 135.855 79.5019C135.215 79.8362 134.689 80.0613 134.337 80.1492L134.418 80.4756L134.5 80.802C134.933 80.6939 135.517 80.4373 136.166 80.0981C136.822 79.7557 137.564 79.3176 138.321 78.8319C139.833 77.862 141.421 76.6899 142.5 75.6901L142.272 75.4434ZM134.418 80.4756L134.337 80.1491C133.965 80.2416 133.698 80.2591 133.515 80.2281C133.346 80.1995 133.26 80.1332 133.206 80.044C133.142 79.9389 133.096 79.7563 133.11 79.4519C133.125 79.1517 133.196 78.7672 133.33 78.289L133.006 78.1982L132.682 78.1074C132.541 78.6097 132.456 79.0488 132.438 79.4203C132.421 79.7876 132.468 80.1248 132.631 80.3926C132.803 80.6763 133.075 80.836 133.403 80.8915C133.717 80.9446 134.088 80.9043 134.499 80.802L134.418 80.4756ZM133.006 78.1982L133.33 78.2888C133.584 77.3788 134.268 76.3835 135.14 75.3243C135.572 74.7991 136.041 74.2685 136.515 73.7325C136.986 73.1984 137.462 72.659 137.899 72.124L137.639 71.9111L137.378 71.6983C136.951 72.2217 136.484 72.7515 136.01 73.2871C135.539 73.821 135.061 74.3608 134.62 74.8968C133.745 75.9598 132.978 77.0497 132.682 78.1077L133.006 78.1982ZM137.639 71.9111L137.9 72.1234C138.285 71.6502 138.863 71.2702 139.541 70.9693C140.217 70.6695 140.969 70.4574 141.68 70.3084C143.102 70.0104 144.318 69.9722 144.326 69.972L144.316 69.6357L144.305 69.2995C144.28 69.3003 143.019 69.3403 141.542 69.65C140.803 69.8048 140.001 70.029 139.268 70.3544C138.538 70.6785 137.855 71.1126 137.378 71.6988L137.639 71.9111Z" fill="black" mask="url(#path-45-inside-3_18_240063)"/>
<mask id="path-47-inside-4_18_240063" fill="white">
<path d="M164.519 41.8877C165.144 35.6008 169.106 34.728 171.434 35.2871C180.946 37.5713 172.055 68.9216 168.128 73.0088C164.212 77.0802 145.605 73.8114 145.5 73.7929C145.91 72.7136 145.848 71.8529 145.581 71.1826C145.571 71.1837 145.56 71.1854 145.55 71.1865C145.003 69.8252 143.623 69.2399 143.609 69.2344C143.61 69.234 143.611 69.2327 143.612 69.2324C143.611 69.2318 143.61 69.2316 143.609 69.2314C145.495 68.603 162.229 65.7907 162.314 65.7763C162.314 65.7763 163.884 48.1747 164.519 41.8877Z"/>
</mask>
<path d="M164.519 41.8877C165.144 35.6008 169.106 34.728 171.434 35.2871C180.946 37.5713 172.055 68.9216 168.128 73.0088C164.212 77.0802 145.605 73.8114 145.5 73.7929C145.91 72.7136 145.848 71.8529 145.581 71.1826C145.571 71.1837 145.56 71.1854 145.55 71.1865C145.003 69.8252 143.623 69.2399 143.609 69.2344C143.61 69.234 143.611 69.2327 143.612 69.2324C143.611 69.2318 143.61 69.2316 143.609 69.2314C145.495 68.603 162.229 65.7907 162.314 65.7763C162.314 65.7763 163.884 48.1747 164.519 41.8877Z" fill="#E1A31A"/>
<path d="M164.519 41.8877L164.718 41.9078L164.718 41.9075L164.519 41.8877ZM171.434 35.2871L171.387 35.4816L171.387 35.4816L171.434 35.2871ZM168.128 73.0088L168.272 73.1474L168.272 73.1473L168.128 73.0088ZM145.5 73.7929L145.313 73.722L145.227 73.948L145.465 73.9899L145.5 73.7929ZM145.581 71.1826L145.767 71.1087L145.711 70.9682L145.561 70.9836L145.581 71.1826ZM145.55 71.1865L145.364 71.2611L145.42 71.4009L145.57 71.3855L145.55 71.1865ZM143.609 69.2344L143.546 69.0446L143.043 69.2124L143.532 69.4186L143.609 69.2344ZM143.612 69.2324L143.675 69.4222L144.186 69.2526L143.688 69.0475L143.612 69.2324ZM143.609 69.2314L143.546 69.0417L143.03 69.2136L143.535 69.4169L143.609 69.2314ZM162.314 65.7763L162.348 65.9736L162.5 65.948L162.514 65.7941L162.314 65.7763ZM164.519 41.8877L164.718 41.9075C165.026 38.8053 166.153 37.077 167.451 36.185C168.754 35.2894 170.266 35.2124 171.387 35.4816L171.434 35.2871L171.48 35.0926C170.273 34.8028 168.64 34.8826 167.224 35.8553C165.804 36.8316 164.636 38.6832 164.32 41.8679L164.519 41.8877ZM171.434 35.2871L171.387 35.4816C173.634 36.0212 174.843 38.2864 175.284 41.5964C175.723 44.8908 175.385 49.128 174.624 53.437C173.863 57.743 172.684 62.106 171.45 65.6459C170.833 67.4158 170.204 68.9774 169.607 70.2217C169.008 71.4716 168.451 72.3837 167.984 72.8702L168.128 73.0088L168.272 73.1473C168.787 72.612 169.366 71.6504 169.968 70.3946C170.573 69.1332 171.208 67.5571 171.828 65.7775C173.068 62.2183 174.253 57.8346 175.018 53.5066C175.781 49.1817 176.128 44.8976 175.681 41.5436C175.236 38.2052 173.989 35.6951 171.48 35.0926L171.434 35.2871ZM168.128 73.0088L167.984 72.8701C167.525 73.3472 166.839 73.728 165.971 74.0228C165.105 74.3169 164.072 74.5209 162.932 74.6528C160.652 74.9167 157.969 74.8899 155.397 74.7349C150.254 74.425 145.585 73.6048 145.535 73.596L145.5 73.7929L145.465 73.9899C145.52 73.9996 150.207 74.8229 155.373 75.1342C157.955 75.2898 160.664 75.3179 162.978 75.0502C164.135 74.9163 165.198 74.7078 166.1 74.4015C167 74.0958 167.752 73.6882 168.272 73.1474L168.128 73.0088ZM145.5 73.7929L145.687 73.8639C146.113 72.7415 146.053 71.8289 145.767 71.1087L145.581 71.1826L145.395 71.2565C145.642 71.8768 145.706 72.6858 145.313 73.722L145.5 73.7929ZM145.581 71.1826L145.561 70.9836C145.552 70.9846 145.543 70.9857 145.538 70.9864C145.533 70.9872 145.531 70.9874 145.529 70.9875L145.55 71.1865L145.57 71.3855C145.579 71.3845 145.588 71.3834 145.592 71.3827C145.598 71.3819 145.6 71.3817 145.601 71.3815L145.581 71.1826ZM145.55 71.1865L145.735 71.1119C145.156 69.6698 143.706 69.0579 143.687 69.0501L143.609 69.2344L143.532 69.4186C143.529 69.4174 143.861 69.5574 144.258 69.861C144.656 70.1649 145.108 70.6249 145.364 71.2611L145.55 71.1865ZM143.609 69.2344L143.673 69.4241C143.686 69.4196 143.697 69.4143 143.706 69.4096C143.714 69.4049 143.721 69.4003 143.726 69.3968C143.731 69.3933 143.735 69.3903 143.737 69.3885C143.738 69.3876 143.739 69.3868 143.74 69.3864C143.74 69.3861 143.74 69.3859 143.74 69.3858C143.74 69.3857 143.741 69.3856 143.741 69.3856C143.741 69.3853 143.739 69.3866 143.738 69.388C143.736 69.3897 143.732 69.3925 143.727 69.3958C143.723 69.3992 143.716 69.4036 143.708 69.4082C143.699 69.4128 143.688 69.4179 143.675 69.4222L143.612 69.2324L143.549 69.0426C143.536 69.047 143.525 69.0522 143.516 69.057C143.508 69.0617 143.501 69.0663 143.496 69.0698C143.491 69.0733 143.487 69.0763 143.485 69.0781C143.484 69.0791 143.483 69.0798 143.482 69.0803C143.482 69.0808 143.481 69.0812 143.481 69.0812C143.481 69.0816 143.482 69.0803 143.484 69.0788C143.486 69.0773 143.489 69.0744 143.494 69.0711C143.499 69.0678 143.505 69.0634 143.514 69.0588C143.522 69.0542 143.533 69.049 143.546 69.0446L143.609 69.2344ZM143.612 69.2324L143.688 69.0475C143.68 69.0439 143.672 69.0415 143.667 69.04C143.665 69.0395 143.663 69.0387 143.664 69.0391C143.665 69.0392 143.666 69.0397 143.669 69.0405C143.67 69.0409 143.672 69.0415 143.674 69.0423C143.677 69.0431 143.68 69.0443 143.684 69.0459L143.609 69.2314L143.535 69.4169C143.539 69.4186 143.542 69.4198 143.544 69.4206C143.547 69.4214 143.549 69.4221 143.55 69.4225C143.553 69.4233 143.555 69.4238 143.555 69.424C143.557 69.4245 143.555 69.4238 143.554 69.4235C143.549 69.4222 143.543 69.4203 143.536 69.4173L143.612 69.2324ZM143.609 69.2314L143.673 69.4212C144.128 69.2693 145.511 68.9784 147.353 68.6249C149.187 68.2729 151.457 67.8622 153.672 67.4705C158.101 66.6873 162.305 65.9807 162.348 65.9736L162.314 65.7763L162.281 65.5791C162.239 65.5863 158.033 66.2931 153.602 67.0766C151.387 67.4684 149.115 67.8795 147.278 68.232C145.449 68.583 144.033 68.8793 143.546 69.0417L143.609 69.2314ZM162.314 65.7763C162.514 65.7941 162.514 65.794 162.514 65.7939C162.514 65.7938 162.514 65.7936 162.514 65.7933C162.514 65.7928 162.514 65.792 162.514 65.7909C162.514 65.7888 162.514 65.7856 162.515 65.7813C162.516 65.7729 162.517 65.7602 162.518 65.7434C162.521 65.7099 162.526 65.6601 162.531 65.5949C162.543 65.4645 162.56 65.2723 162.582 65.0256C162.626 64.532 162.69 63.8199 162.769 62.9458C162.926 61.1974 163.142 58.8008 163.378 56.2078C163.849 51.0212 164.4 45.0501 164.718 41.9078L164.519 41.8877L164.32 41.8676C164.002 45.0123 163.451 50.9855 162.979 56.1715C162.743 58.7648 162.527 61.1615 162.37 62.91C162.292 63.7842 162.228 64.4963 162.184 64.9899C162.162 65.2367 162.145 65.4289 162.133 65.5593C162.127 65.6246 162.123 65.6744 162.12 65.7079C162.118 65.7246 162.117 65.7373 162.116 65.7458C162.116 65.75 162.116 65.7532 162.116 65.7554C162.115 65.7564 162.115 65.7572 162.115 65.7578C162.115 65.758 162.115 65.7582 162.115 65.7584C162.115 65.7585 162.115 65.7586 162.314 65.7763Z" fill="black" mask="url(#path-47-inside-4_18_240063)"/>
<path d="M128.442 210.672L125.106 208.732L124.889 131.216L128.227 133.156L128.442 210.672Z" fill="#3C2C0B"/>
<path d="M128.227 133.156L124.889 131.216L169.95 105.199L173.288 107.14L128.227 133.156Z" fill="#978050"/>
<path d="M173.289 107.141L173.512 184.656L128.444 210.673L128.229 133.157L173.289 107.141Z" fill="#FFF7E4"/>
<path d="M39.3082 160.002L35.9699 158.061L35.75 80.5454L39.0905 82.4837L39.3082 160.002Z" fill="#DFE5F3"/>
<path d="M39.0905 82.4835L35.75 80.5452L80.8133 54.5264L84.1515 56.467L39.0905 82.4835Z" fill="#AEB6BC"/>
<path d="M84.1489 56.4678L84.3688 133.986L39.3056 160.002L39.0879 82.4843L84.1489 56.4678Z" fill="#CAD3DA"/>
<path d="M187.989 112.497L187.982 117.088L130.643 150.407L130.656 145.82L187.989 112.497Z" fill="#3C2C0B"/>
<path d="M130.656 145.819L130.643 150.406L19.7578 86.4656L19.7739 81.874L130.656 145.819Z" fill="#978050"/>
<path d="M187.991 112.497L130.658 145.82L19.7754 81.875L77.1126 48.5518L187.991 112.497Z" fill="#FFF7E4"/>
<path d="M137.618 87.4349L113.393 101.514L94.6055 90.6655L118.828 76.5884L137.618 87.4349Z" fill="#E2E6ED"/>
<path d="M117.95 95.644L117.37 95.9809L111.67 92.6884L112.25 92.3516L117.95 95.644Z" fill="#A5AAB4"/>
<path d="M115.663 96.9716L115.077 97.313L106.615 92.4281L107.202 92.0845L115.663 96.9716Z" fill="#A5AAB4"/>
<path d="M116.806 96.3073L116.226 96.6464L108.818 92.3733L109.403 92.0342L116.806 96.3073Z" fill="#A5AAB4"/>
<path d="M109.728 89.5632L104.827 92.4135L100.467 89.8932L105.365 87.043L109.728 89.5632Z" fill="#A5AAB4"/>
<path d="M113.378 98.2975L112.792 98.6388L105.389 94.3658L105.975 94.0244L113.378 98.2975Z" fill="#A5AAB4"/>
<path d="M114.528 97.6331L113.939 97.9767L108.238 94.6843L108.822 94.3452L114.528 97.6331Z" fill="#A5AAB4"/>
<path d="M119.096 94.9751L118.507 95.3189L110.053 90.4317L110.637 90.0903L119.096 94.9751Z" fill="#A5AAB4"/>
<path d="M125.938 90.3291L125.36 90.6659L119.662 87.378L120.242 87.0366L125.938 90.3291Z" fill="#A5AAB4"/>
<path d="M123.657 91.6568L123.071 92.0005L114.609 87.1133L115.194 86.772L123.657 91.6568Z" fill="#A5AAB4"/>
<path d="M124.795 90.9949L124.213 91.3272L116.811 87.0563L117.393 86.7173L124.795 90.9949Z" fill="#A5AAB4"/>
<path d="M121.368 92.982L120.784 93.3235L113.379 89.0503L113.965 88.709L121.368 92.982Z" fill="#A5AAB4"/>
<path d="M122.513 92.3223L121.924 92.6591L116.229 89.3712L116.813 89.0298L122.513 92.3223Z" fill="#A5AAB4"/>
<path d="M127.084 89.6599L126.498 90.0013L118.041 85.121L118.628 84.7773L127.084 89.6599Z" fill="#A5AAB4"/>
<path d="M96.2122 82.0166L96.1893 90.0518L72.8008 103.643L72.8237 95.6102L96.2122 82.0166Z" fill="#133B7B"/>
<path d="M72.8237 95.6104L72.8008 103.643L54.2695 92.948L54.2925 84.9082L72.8237 95.6104Z" fill="#0D2955"/>
<path d="M96.2127 82.0168L72.8242 95.6105L54.293 84.9083L77.6815 71.3169L96.2127 82.0168Z" fill="#154189"/>
<path d="M55.1816 87.1631L72.7986 97.2512L72.8216 102.429L55.2389 92.2175L55.1816 87.1631Z" fill="#184C9F"/>
<path d="M72.8008 97.2506L96.2122 83.8608V88.7067L72.8237 102.429L72.8008 97.2506Z" fill="#154189"/>
<path d="M93.1143 74.9004L93.0913 82.9379L69.7051 96.5293L69.728 88.4941L93.1143 74.9004Z" fill="#212121"/>
<path d="M69.7299 88.4944L69.7069 96.5296L51.1758 85.8297L51.1986 77.7944L69.7299 88.4944Z" fill="#212121"/>
<path d="M93.1167 74.9003L69.7305 88.494L51.1992 77.794L74.5878 64.2026L93.1167 74.9003Z" fill="#FFBE2E"/>
<path d="M52.0859 80.0488L69.7029 90.1347L69.7259 95.3151L52.1432 85.1032L52.0859 80.0488Z" fill="#FFBE2E"/>
<path d="M69.7051 90.1346L93.1143 76.7471V81.593L69.728 95.3149L69.7051 90.1346Z" fill="#978050"/>
<path d="M160.102 113.89L143.175 123.476C142.38 123.928 141.085 123.914 140.295 123.444L131.338 118.14L133.785 116.754L133.794 116.092L135.453 117.068L135.691 116.933L135.712 115.542L135.689 117.207L139.307 119.336L139.538 119.203L139.536 119.471L144.309 122.282L146.547 121.006L146.554 120.415L147.06 120.713L147.812 120.282L149.301 119.437L151.897 117.959L151.906 117.212L152.548 117.59L154.784 116.314L154.793 115.737L155.288 116.028L157.527 114.749L157.55 113.083L155.235 111.72L154.786 111.974L154.793 111.459L152.477 110.096L152.03 110.35L152.035 109.837L149.723 108.473L149.274 108.737L149.283 108.221L146.969 106.856L146.52 107.112L146.527 106.599L144.215 105.238L143.768 105.495L143.775 104.977L141.458 103.614L141.012 103.868L141.019 103.353L138.704 101.992L138.258 102.246L138.265 101.733L135.948 100.367L135.501 100.622L135.508 100.108L133.192 98.7427L130.956 100.019L130.946 100.596L130.394 100.269L131.684 99.5355L131.705 97.8675L129.391 96.502L127.15 97.7759L127.141 98.351L126.653 98.06L124.412 99.3385L124.403 99.9158L123.908 99.6203L121.669 100.899L121.663 101.476L121.168 101.183L118.931 102.459L118.922 103.055L118.411 102.752L116.175 104.029L116.152 105.694L121.055 108.581L121.349 108.414L121.367 107.085L121.346 108.753L124.632 110.689L122.212 112.059L122.203 112.726L111.247 106.237C110.85 106.004 110.653 105.694 110.658 105.394C110.649 105.949 110.642 106.505 110.635 107.06C110.628 107.365 110.825 107.672 111.224 107.908L140.278 125.11C141.067 125.577 142.363 125.593 143.159 125.142L160.084 115.553C160.478 115.329 160.679 115.031 160.682 114.728C160.688 114.174 160.698 113.619 160.704 113.063C160.695 113.367 160.494 113.663 160.102 113.89Z" fill="#D2D0D0"/>
<path d="M135.504 100.106L133.263 101.38L130.951 100.017L133.187 98.7407L135.504 100.106Z" fill="#A8AAAA"/>
<path d="M132.347 101.418L130.108 102.697L124.41 99.34L126.651 98.0615L132.347 101.418Z" fill="#A8AAAA"/>
<path d="M138.26 101.731L136.019 103.005L133.707 101.641L135.943 100.365L138.26 101.731Z" fill="#A8AAAA"/>
<path d="M128.15 102.124L125.912 103.398L121.666 100.901L123.904 99.6221L128.15 102.124Z" fill="#A8AAAA"/>
<path d="M141.014 103.351L138.775 104.627L136.461 103.264L138.699 101.99L141.014 103.351Z" fill="#A8AAAA"/>
<path d="M130.766 103.662L128.525 104.938L126.209 103.577L128.45 102.301L130.766 103.662Z" fill="#A8AAAA"/>
<path d="M137.731 104.592L135.494 105.866L133.176 104.503L135.417 103.229L137.731 104.592Z" fill="#A8AAAA"/>
<path d="M126.864 104.544L124.626 105.818L118.93 102.462L121.166 101.186L126.864 104.544Z" fill="#A8AAAA"/>
<path d="M143.77 104.975L141.531 106.251L139.215 104.888L141.456 103.612L143.77 104.975Z" fill="#A8AAAA"/>
<path d="M133.363 105.199L131.125 106.473L128.811 105.109L131.049 103.835L133.363 105.199Z" fill="#A8AAAA"/>
<path d="M123.309 105.642L121.073 106.918L116.17 104.031L118.406 102.755L123.309 105.642Z" fill="#A8AAAA"/>
<path d="M140.365 106.143L138.125 107.421L135.811 106.056L138.051 104.782L140.365 106.143Z" fill="#A8AAAA"/>
<path d="M129.498 106.095L127.257 107.369L124.943 106.005L127.182 104.731L129.498 106.095Z" fill="#A8AAAA"/>
<path d="M135.967 106.729L133.729 108.008L131.412 106.644L133.653 105.368L135.967 106.729Z" fill="#A8AAAA"/>
<path d="M132.071 107.61L129.83 108.886L127.516 107.523L129.754 106.247L132.071 107.61Z" fill="#A8AAAA"/>
<path d="M149.28 108.222L147.041 109.498L144.725 108.133L146.968 106.856L149.28 108.222Z" fill="#A8AAAA"/>
<path d="M127.22 107.944L124.981 109.22L121.361 107.09L123.602 105.813L127.22 107.944Z" fill="#A8AAAA"/>
<path d="M138.576 108.264L136.336 109.538L134.021 108.177L136.262 106.898L138.576 108.264Z" fill="#A8AAAA"/>
<path d="M134.676 109.145L132.437 110.419L130.123 109.056L132.359 107.782L134.676 109.145Z" fill="#A8AAAA"/>
<path d="M152.037 109.846L149.798 111.12L147.486 109.757L149.725 108.483L152.037 109.846Z" fill="#A8AAAA"/>
<path d="M141.176 109.798L138.937 111.074L136.621 109.709L138.86 108.437L141.176 109.798Z" fill="#A8AAAA"/>
<path d="M148.267 110.799L146.034 112.076L143.715 110.712L145.956 109.436L148.267 110.799Z" fill="#A8AAAA"/>
<path d="M137.248 110.661L135.007 111.937L132.695 110.574L134.934 109.3L137.248 110.661Z" fill="#A8AAAA"/>
<path d="M154.793 111.468L152.552 112.742L150.238 111.377L152.477 110.105L154.793 111.468Z" fill="#A8AAAA"/>
<path d="M157.547 113.086L155.307 114.362L152.99 112.999L155.231 111.723L157.547 113.086Z" fill="#A8AAAA"/>
<path d="M143.777 111.335L141.539 112.609L139.225 111.245L141.463 109.969L143.777 111.335Z" fill="#A8AAAA"/>
<path d="M150.904 112.352L148.666 113.626L146.352 112.263L148.59 110.987L150.904 112.352Z" fill="#A8AAAA"/>
<path d="M139.94 112.247L137.704 113.523L135.385 112.16L137.626 110.884L139.94 112.247Z" fill="#A8AAAA"/>
<path d="M146.383 112.865L144.146 114.144L141.83 112.776L144.071 111.504L146.383 112.865Z" fill="#A8AAAA"/>
<path d="M142.52 113.764L140.277 115.038L137.965 113.675L140.203 112.401L142.52 113.764Z" fill="#A8AAAA"/>
<path d="M148.989 114.4L146.748 115.674L144.434 114.311L146.672 113.037L148.989 114.4Z" fill="#A8AAAA"/>
<path d="M154.807 114.65L152.568 115.927L148.982 113.816L151.221 112.542L154.807 114.65Z" fill="#A8AAAA"/>
<path d="M145.117 115.296L142.879 116.57L140.564 115.207L142.803 113.933L145.117 115.296Z" fill="#A8AAAA"/>
<path d="M133.807 115.088L130.49 116.969L122.207 112.066L125.527 110.185L133.807 115.088Z" fill="#A8AAAA"/>
<path d="M141.567 116.398L139.326 117.67L135.711 115.544L137.952 114.268L141.567 116.398Z" fill="#A8AAAA"/>
<path d="M151.919 116.296L149.323 117.776L147.833 118.623L147.082 119.05L143.178 116.751L145.419 115.473L146.619 116.181L149.213 114.703L151.919 116.296Z" fill="#A8AAAA"/>
<path d="M160.108 112.221C160.898 112.686 160.894 113.438 160.101 113.889L143.174 123.476C142.379 123.927 141.084 123.913 140.294 123.444L111.241 106.241C110.451 105.774 110.458 105.025 111.253 104.573L128.178 94.9845C128.973 94.5331 130.267 94.5492 131.058 95.0166L160.108 112.221ZM130.487 116.969L133.805 115.087L125.525 110.184L122.205 112.065L130.487 116.969ZM125.307 109.414L135.475 115.404L137.714 114.127L127.543 108.141L125.307 109.414ZM147.834 118.623L149.323 117.775L151.917 116.295L149.211 114.703L146.615 116.18L145.417 115.472L143.176 116.749L147.08 119.047L147.834 118.623ZM132.343 101.418L126.647 98.0616L124.406 99.3401L130.105 102.697L132.343 101.418ZM126.86 104.543L121.16 101.185L118.924 102.461L124.622 105.817L126.86 104.543ZM116.17 104.03L121.07 106.917L123.309 105.643L118.403 102.756L116.17 104.03ZM139.556 117.807L144.328 120.618L146.567 119.345L141.792 116.531L139.556 117.807ZM128.148 102.124L123.902 99.6219L121.664 100.9L125.909 103.398L128.148 102.124ZM121.359 107.089L124.977 109.22L127.215 107.944L123.598 105.813L121.359 107.089ZM135.711 115.543L139.327 117.672L141.567 116.398L137.952 114.27L135.711 115.543ZM148.982 113.816L152.567 115.928L154.806 114.652L151.218 112.542L148.982 113.816ZM144.434 114.311L146.75 115.674L148.991 114.4L146.675 113.037L144.434 114.311ZM134.673 109.144L132.357 107.781L130.118 109.055L132.435 110.418L134.673 109.144ZM143.769 104.974L141.453 103.611L139.214 104.887L141.529 106.25L143.769 104.974ZM139.938 112.246L137.624 110.883L135.384 112.159L137.7 113.523L139.938 112.246ZM148.585 110.986L146.349 112.262L148.663 113.623L150.902 112.349L148.585 110.986ZM135.503 100.105L133.186 98.7398L130.95 100.016L133.262 101.377L135.503 100.105ZM135.413 103.228L133.173 104.504L135.491 105.868L137.727 104.594L135.413 103.228ZM129.495 106.095L127.179 104.731L124.94 106.007L127.254 107.371L129.495 106.095ZM145.953 109.435L143.712 110.711L146.031 112.075L148.265 110.798L145.953 109.435ZM143.318 107.884L141.079 109.16L143.394 110.523L145.632 109.247L143.318 107.884ZM140.683 106.333L138.442 107.607L140.759 108.97L142.997 107.694L140.683 106.333ZM157.546 113.09L155.232 111.726L152.994 113L155.308 114.366L157.546 113.09ZM154.792 111.467L152.476 110.104L150.237 111.378L152.551 112.744L154.792 111.467ZM126.205 103.576L128.521 104.94L130.762 103.664L128.446 102.303L126.205 103.576ZM136.621 109.708L138.937 111.073L141.178 109.797L138.862 108.434L136.621 109.708ZM128.812 105.109L131.126 106.473L133.365 105.199L131.049 103.838L128.812 105.109ZM139.226 111.245L141.54 112.608L143.778 111.335L141.464 109.969L139.226 111.245ZM149.28 108.221L146.966 106.855L144.725 108.131L147.041 109.495L149.28 108.221ZM141.829 112.776L144.145 114.141L146.384 112.863L144.069 111.502L141.829 112.776ZM138.259 101.73L135.943 100.364L133.706 101.638L136.018 103.001L138.259 101.73ZM131.413 106.644L133.727 108.008L135.965 106.729L133.651 105.366L131.413 106.644ZM134.018 108.177L136.332 109.538L138.573 108.264L136.259 106.899L134.018 108.177ZM135.095 103.04L132.781 101.679L130.542 102.953L132.854 104.314L135.095 103.04ZM152.034 109.845L149.722 108.482L147.483 109.758L149.795 111.119L152.034 109.845ZM142.516 113.763L140.202 112.4L137.963 113.676L140.278 115.039L142.516 113.763ZM138.05 104.782L135.81 106.056L138.124 107.419L140.365 106.143L138.05 104.782ZM137.249 110.661L134.934 109.3L132.696 110.574L135.008 111.937L137.249 110.661ZM145.117 115.296L142.802 113.933L140.564 115.207L142.878 116.57L145.117 115.296ZM141.013 103.35L138.699 101.989L136.46 103.263L138.775 104.624L141.013 103.35ZM129.385 96.5013L127.144 97.7752L129.458 99.1408L131.697 97.8669L129.385 96.5013ZM146.523 106.599L144.211 105.238L141.971 106.512L144.285 107.872L146.523 106.599ZM132.07 107.609L129.754 106.246L127.516 107.52L129.83 108.885L132.07 107.609Z" fill="#E6E7EC"/>
<path d="M131.701 97.8675L129.463 99.1414L127.148 97.7759L129.387 96.502L131.701 97.8675Z" fill="#A8AAAA"/>
<path d="M135.096 103.041L132.855 104.315L130.543 102.954L132.781 101.678L135.096 103.041Z" fill="#A8AAAA"/>
<path d="M146.527 106.6L144.289 107.873L141.975 106.51L144.215 105.236L146.527 106.6Z" fill="#A8AAAA"/>
<path d="M142.998 107.695L140.76 108.971L138.443 107.607L140.684 106.333L142.998 107.695Z" fill="#A8AAAA"/>
<path d="M145.633 109.248L143.394 110.524L141.078 109.16L143.319 107.884L145.633 109.248Z" fill="#A8AAAA"/>
<path d="M137.716 114.127L135.475 115.403L125.307 109.414L127.545 108.14L137.716 114.127Z" fill="#A8AAAA"/>
<path d="M146.57 119.342L144.331 120.619L139.557 117.807L141.795 116.529L146.57 119.342Z" fill="#A8AAAA"/>
<path d="M137.805 102.037L108.752 84.8328C108.356 84.5991 107.991 84.574 107.726 84.7229C107.242 84.9978 106.759 85.2728 106.275 85.5477C106.539 85.3965 106.903 85.4217 107.302 85.6577L108.814 86.5535C108.773 86.5627 108.732 86.5742 108.697 86.5948C108.441 86.7414 108.134 86.9155 107.833 87.0851C107.636 87.195 107.442 87.3074 107.245 87.4173C107.089 87.5067 106.988 87.6969 106.986 87.9695L111.492 103.779C111.483 104.324 111.864 105.002 112.34 105.282C112.567 105.153 112.796 105.023 113.025 104.895L112.34 105.282C112.34 105.282 142.08 123.588 141.819 123.74C142.059 123.602 142.302 123.465 142.543 123.33C142.786 123.192 143.028 123.055 143.269 122.919C143.53 122.771 143.698 122.452 143.702 121.996L139.218 104.549C139.23 103.634 138.595 102.507 137.805 102.037Z" fill="#D2D0D0"/>
<path d="M137.765 105.369C137.776 104.454 137.142 103.327 136.354 102.86L107.299 85.6575C106.509 85.1878 105.853 85.552 105.842 86.4639L110.326 103.916C110.314 104.828 110.947 105.957 111.737 106.425L140.792 123.629C141.582 124.097 142.237 123.733 142.249 122.816L137.765 105.369Z" fill="#F2F2F2"/>
<path d="M137.762 105.369C137.774 104.455 137.139 103.328 136.351 102.86L110.32 103.917C110.309 104.828 110.941 105.958 111.732 106.425L140.787 123.63C141.577 124.097 142.232 123.733 142.244 122.817L137.762 105.369Z" fill="#D5DFE6"/>
<path d="M135.037 105.573L132.615 104.175C132.143 103.902 131.756 103.233 131.756 102.686C131.756 102.14 132.143 101.916 132.615 102.191L135.037 103.588C135.509 103.861 135.896 104.53 135.896 105.078C135.896 105.621 135.509 105.845 135.037 105.573Z" fill="#292C36"/>
<path d="M134.939 105.697L132.517 104.299C132.045 104.027 131.658 103.356 131.658 102.81C131.658 102.265 132.045 102.04 132.517 102.315L134.939 103.713C135.411 103.986 135.798 104.655 135.798 105.202C135.798 105.748 135.411 105.97 134.939 105.697Z" fill="#212227"/>
</svg>
