<svg width="36" height="36" viewBox="0 0 36 36" fill="none" xmlns="http://www.w3.org/2000/svg">
<rect width="36" height="36" rx="4" fill="#FFBE2E"/>
<rect x="3" y="3" width="30" height="30" rx="2" fill="white"/>
<rect x="9" y="15" width="22" height="14" rx="2" fill="#FFBE2E"/>
<path d="M17.25 20.75V19C17.25 18.7594 17.0531 18.5625 16.8125 18.5625H10.6875C10.4469 18.5625 10.25 18.7594 10.25 19V20.75C10.25 20.9906 10.4469 21.1875 10.6875 21.1875H16.8125C17.0531 21.1875 17.25 20.9906 17.25 20.75ZM16.375 20.3125H11.125V19.4375H16.375V20.3125Z" fill="black"/>
<path d="M10.6875 17.6875H15.0625C15.3031 17.6875 15.5 17.4906 15.5 17.25C15.5 17.0094 15.3031 16.8125 15.0625 16.8125H10.6875C10.4469 16.8125 10.25 17.0094 10.25 17.25C10.25 17.4906 10.4469 17.6875 10.6875 17.6875Z" fill="black"/>
<path d="M30.5938 22.3775C30.27 22.1369 29.8806 22.0406 29.5 22.0713V7.1875C29.5 5.98 28.52 5 27.3125 5H10.6875C9.48 5 8.5 5.98 8.5 7.1875V23.375H5.4375C5.19687 23.375 5 23.5719 5 23.8125C5 24.0531 5.19687 24.25 5.4375 24.25H12V29.5H5.4375C5.19687 29.5 5 29.6969 5 29.9375C5 30.1781 5.19687 30.375 5.4375 30.375H12.4375C12.6781 30.375 12.875 30.1781 12.875 29.9375V29.5H20.7981C24.7969 29.5 28.5025 27.6975 31.0006 24.5212C31.4513 23.8169 31.2719 22.8763 30.5938 22.3775ZM17.25 5.875H20.75V10.7881L19.2231 9.87375C19.1531 9.83 19.0744 9.8125 19 9.8125C18.9256 9.8125 18.8425 9.83438 18.7769 9.87375L17.25 10.7881V5.875ZM12.4375 23.375H9.375V7.1875C9.375 6.46563 9.96562 5.875 10.6875 5.875H16.375V11.5625C16.375 11.72 16.4581 11.8644 16.5981 11.9431C16.7338 12.0219 16.9044 12.0175 17.04 11.9388L19.0044 10.7619L20.9688 11.9388C21.0387 11.9825 21.1175 12 21.1919 12C21.2662 12 21.3406 11.9825 21.4062 11.9431C21.5419 11.8644 21.6294 11.72 21.6294 11.5625V5.875H27.3169C28.0387 5.875 28.6294 6.46563 28.6294 7.1875V22.395C28.5331 22.465 28.4456 22.5438 28.3669 22.64C27.4963 23.6594 26.2275 24.25 24.8888 24.25C25.0375 23.9919 25.1338 23.6944 25.1338 23.375C25.1338 22.4081 24.3506 21.625 23.3838 21.625H18.7812C17.6831 21.625 16.6462 22.0537 15.8675 22.8325C15.0887 23.6112 14.0081 24.1275 12.8794 24.2281V23.8125C12.8794 23.5719 12.6825 23.375 12.4419 23.375H12.4375ZM30.2875 24.0181C27.9819 26.945 24.5256 28.625 20.7981 28.625H12.875V25.1031C14.2356 25.0025 15.5044 24.425 16.48 23.4494C17.0925 22.8369 17.9062 22.5 18.7725 22.5H23.375C23.8563 22.5 24.25 22.8937 24.25 23.375C24.25 23.8563 23.8563 24.25 23.375 24.25H19.875C19.6344 24.25 19.4375 24.4469 19.4375 24.6875C19.4375 24.9281 19.6344 25.125 19.875 25.125H24.8713C26.4725 25.125 27.9906 24.425 29.0275 23.2044C29.29 22.8981 29.7494 22.8413 30.0775 23.0819C30.3881 23.3138 30.4713 23.7294 30.2875 24.0138V24.0181Z" fill="black"/>
</svg>
