<svg width="124" height="124" viewBox="0 0 124 124" fill="none" xmlns="http://www.w3.org/2000/svg">
<circle cx="62" cy="62" r="60" fill="white" stroke="#978050" stroke-width="4"/>
<rect x="31" y="89" width="48" height="27" rx="4" transform="rotate(-90 31 89)" fill="#FFBE2E"/>
<g clip-path="url(#clip0_129_10959)">
<g clip-path="url(#clip1_129_10959)">
<path d="M81.145 67.2101C79.6229 65.8957 77.6771 65.1719 75.6661 65.1719C73.6436 65.1719 71.6894 65.903 70.1636 67.2306C68.6378 68.558 67.6433 70.3923 67.3636 72.3953C67.1501 73.9232 67.6678 75.4113 68.7837 76.4781C69.6754 77.3306 70.8191 77.7866 72.0148 77.7866C72.3047 77.7866 72.5977 77.7598 72.8908 77.7054C74.7942 77.3517 76.686 77.3299 78.5137 77.6405C80.0213 77.8968 81.511 77.432 82.6014 76.3656C83.6858 75.3049 84.1809 73.8353 83.9597 72.3335C83.6667 70.3439 82.6671 68.5244 81.145 67.2101ZM81.3777 75.1145C80.6926 75.7848 79.7555 76.0768 78.807 75.9153C76.7757 75.5702 74.6776 75.5936 72.5711 75.9848C71.6291 76.1597 70.6892 75.8787 69.993 75.2131C69.2888 74.5399 68.9621 73.6011 69.0967 72.6374C69.5519 69.379 72.3761 66.9219 75.6661 66.9219C77.2573 66.9219 78.7969 67.4946 80.0012 68.5346C81.2056 69.5745 81.9966 71.0143 82.2284 72.5885C82.367 73.5294 82.0569 74.4502 81.3777 75.1145Z" fill="black"/>
<path d="M75.6641 63.6406C77.3528 63.6406 78.7266 62.0705 78.7266 60.1406C78.7266 58.2108 77.3528 56.6406 75.6641 56.6406C73.9754 56.6406 72.6016 58.2108 72.6016 60.1406C72.6016 62.0705 73.9754 63.6406 75.6641 63.6406ZM75.6641 58.3906C76.3755 58.3906 76.9766 59.192 76.9766 60.1406C76.9766 61.0892 76.3755 61.8906 75.6641 61.8906C74.9526 61.8906 74.3516 61.0892 74.3516 60.1406C74.3516 59.192 74.9526 58.3906 75.6641 58.3906Z" fill="black"/>
<path d="M84.6473 59.7423C83.9124 59.318 83.0373 59.2572 82.1837 59.5712C81.3863 59.8645 80.6978 60.458 80.2451 61.2421C79.2802 62.9133 79.6849 64.9601 81.1473 65.8045C81.5723 66.0499 82.0442 66.1737 82.5317 66.1737C82.8871 66.1737 83.2508 66.1079 83.6108 65.9754C84.4082 65.6821 85.0967 65.0887 85.5495 64.3046C86.0022 63.5205 86.1718 62.6275 86.0271 61.7902C85.8722 60.8939 85.3822 60.1666 84.6473 59.7423ZM84.0339 63.4296C83.7891 63.8536 83.4147 64.1829 83.0067 64.333C82.649 64.4646 82.2994 64.4489 82.0223 64.289C81.4062 63.9332 81.2863 62.9385 81.7606 62.1171C82.0054 61.693 82.3798 61.3637 82.7879 61.2136C82.9483 61.1546 83.1072 61.1252 83.2586 61.1252C83.4447 61.1252 83.6195 61.1696 83.7723 61.2579C84.0494 61.4178 84.2378 61.7128 84.3027 62.0883C84.3767 62.5166 84.2788 63.0055 84.0339 63.4296Z" fill="black"/>
<path d="M70.1824 65.8204C70.9173 65.3961 71.4073 64.6687 71.5623 63.7724C71.707 62.9351 71.5374 62.0421 71.0846 61.258C70.1197 59.5866 68.1449 58.9135 66.6824 59.7582C65.22 60.6025 64.8153 62.6491 65.7802 64.3205C66.4625 65.5023 67.6497 66.1848 68.8036 66.1848C69.2817 66.1848 69.754 66.0676 70.1824 65.8204ZM67.2958 63.4455C66.8215 62.624 66.9413 61.6294 67.5574 61.2737C68.1734 60.9176 69.0948 61.3114 69.5691 62.133C69.8139 62.5571 69.9119 63.0459 69.8378 63.4743C69.7729 63.8498 69.5846 64.1448 69.3074 64.3047C68.6912 64.6605 67.77 64.2669 67.2958 63.4455Z" fill="black"/>
<path d="M55.875 66.2656C56.3582 66.2656 56.75 65.8739 56.75 65.3906C56.75 64.9074 56.3582 64.5156 55.875 64.5156C55.3918 64.5156 55 64.9074 55 65.3906C55 65.8739 55.3918 66.2656 55.875 66.2656Z" fill="black"/>
<path d="M53.1406 65.8281C53.6239 65.8281 54.0156 65.4364 54.0156 64.9531C54.0156 64.4699 53.6239 64.0781 53.1406 64.0781C52.6574 64.0781 52.2656 64.4699 52.2656 64.9531C52.2656 65.4364 52.6574 65.8281 53.1406 65.8281Z" fill="black"/>
<path d="M51.3906 68.0156C51.8739 68.0156 52.2656 67.6239 52.2656 67.1406C52.2656 66.6574 51.8739 66.2656 51.3906 66.2656C50.9074 66.2656 50.5156 66.6574 50.5156 67.1406C50.5156 67.6239 50.9074 68.0156 51.3906 68.0156Z" fill="black"/>
<path d="M48.1094 69.2188C48.5926 69.2188 48.9844 68.827 48.9844 68.3438C48.9844 67.8605 48.5926 67.4688 48.1094 67.4688C47.6261 67.4688 47.2344 67.8605 47.2344 68.3438C47.2344 68.827 47.6261 69.2188 48.1094 69.2188Z" fill="black"/>
<path d="M57.0781 68.4531C57.5614 68.4531 57.9531 68.0614 57.9531 67.5781C57.9531 67.0949 57.5614 66.7031 57.0781 66.7031C56.5949 66.7031 56.2031 67.0949 56.2031 67.5781C56.2031 68.0614 56.5949 68.4531 57.0781 68.4531Z" fill="black"/>
<path d="M60.4688 69.5469C60.952 69.5469 61.3438 69.1551 61.3438 68.6719C61.3438 68.1886 60.952 67.7969 60.4688 67.7969C59.9855 67.7969 59.5938 68.1886 59.5938 68.6719C59.5938 69.1551 59.9855 69.5469 60.4688 69.5469Z" fill="black"/>
<path d="M54.3438 69.5469C54.827 69.5469 55.2188 69.1551 55.2188 68.6719C55.2188 68.1886 54.827 67.7969 54.3438 67.7969C53.8605 67.7969 53.4688 68.1886 53.4688 68.6719C53.4688 69.1551 53.8605 69.5469 54.3438 69.5469Z" fill="black"/>
<path d="M81.9786 47.2182H81.7835V46.2693C81.7835 44.7812 80.5728 43.5705 79.0847 43.5705H78.3638V39.5071H85.4961C86.0807 39.5071 86.591 39.1323 86.766 38.5745C86.941 38.0168 86.7362 37.4175 86.2561 37.0834L82.6756 34.5927C82.2211 34.2765 81.6881 34.1094 81.1344 34.1094H71.3334C70.348 34.1094 69.5464 34.911 69.5464 35.8963V37.7201C69.5464 38.7055 70.348 39.5071 71.3334 39.5071H72.9661V43.5705H72.2453C70.7571 43.5705 69.5464 44.7812 69.5464 46.2693V47.2182H69.3513C68.2018 47.2182 67.11 47.4671 66.1238 47.9106L62.4375 41.8486V36.7344C62.4375 35.287 61.2599 34.1094 59.8125 34.1094H41.6562C40.2088 34.1094 39.0312 35.287 39.0312 36.7344V41.8486L34.2367 49.7329C34.2344 49.7367 34.2329 49.7408 34.2306 49.7447C34.2144 49.7722 34.1995 49.8005 34.1863 49.8299C34.1849 49.8331 34.1832 49.8362 34.1818 49.8394C34.1675 49.8721 34.1555 49.9059 34.1453 49.9406C34.1434 49.9472 34.142 49.9538 34.1402 49.9604C34.133 49.9874 34.127 50.0149 34.1223 50.0429C34.1206 50.0529 34.1191 50.0628 34.1177 50.0728C34.1143 50.0992 34.1122 50.1259 34.1111 50.1529C34.1108 50.1616 34.1099 50.1702 34.1098 50.179C34.1098 50.1818 34.1094 50.1846 34.1094 50.1875V86.3567C34.1094 88.3053 35.6947 89.8906 37.6433 89.8906H42.4219H64.9531H66.4844H86.3768C88.3067 89.8906 89.8768 88.3205 89.8768 86.3906V55.1164C89.8768 50.7614 86.3337 47.2182 81.9786 47.2182ZM71.2964 37.7201V35.8963C71.2964 35.8759 71.313 35.8594 71.3334 35.8594H81.1344C81.3291 35.8594 81.5165 35.9181 81.6763 36.0293L84.16 37.7571H77.4888H73.8411H71.3334C71.313 37.7571 71.2964 37.7405 71.2964 37.7201ZM74.7161 39.5071H76.6138V43.5705H74.7161V39.5071ZM71.2964 46.2693C71.2964 45.7462 71.722 45.3205 72.2453 45.3205H73.8411H77.4888H79.0847C79.6078 45.3205 80.0335 45.7462 80.0335 46.2693V47.2182H71.2964V46.2693ZM40.7812 36.7344C40.7812 36.2519 41.1738 35.8594 41.6562 35.8594H43.5703V37.8281C43.5703 38.3113 43.962 38.7031 44.4453 38.7031C44.9286 38.7031 45.3203 38.3113 45.3203 37.8281V35.8594H47.763V37.8281C47.763 38.3113 48.1548 38.7031 48.638 38.7031C49.1213 38.7031 49.513 38.3113 49.513 37.8281V35.8594H51.9557V37.8281C51.9557 38.3113 52.3474 38.7031 52.8307 38.7031C53.314 38.7031 53.7057 38.3113 53.7057 37.8281V35.8594H56.1484V37.8281C56.1484 38.3113 56.5402 38.7031 57.0234 38.7031C57.5067 38.7031 57.8984 38.3113 57.8984 37.8281V35.8594H59.8125C60.295 35.8594 60.6875 36.2519 60.6875 36.7344V41.2188H40.7812V36.7344ZM40.3982 42.9688H61.0705L64.6161 48.7993C64.4024 48.9599 64.1977 49.1316 64.0016 49.3125H36.5406L40.3982 42.9688ZM35.8594 86.3567V51.0625H62.5761C61.8638 52.2484 61.4531 53.6352 61.4531 55.1164V65.098C60.9722 64.9341 60.4575 64.8438 59.9219 64.8438C59.8442 64.8438 59.7665 64.8457 59.6887 64.8495C58.9274 62.5212 56.7526 60.9062 54.2344 60.9062C52.1205 60.9062 50.2146 62.0477 49.2112 63.8648C49.1355 63.8612 49.0598 63.8594 48.9844 63.8594C46.3609 63.8594 44.2266 65.9937 44.2266 68.6172C44.2266 69.4854 44.4617 70.299 44.8699 71.0002C44.6454 71.2907 44.479 71.632 44.3904 72.0098L41.8213 82.9607C40.6625 83.2331 39.7969 84.2749 39.7969 85.5156V87.2656C39.7969 87.5724 39.8503 87.8668 39.9474 88.1406H37.6433C36.6597 88.1406 35.8594 87.3404 35.8594 86.3567ZM46.0941 72.4095C46.1874 72.012 46.5377 71.7344 46.946 71.7344H62.1295C62.5372 71.7344 62.8965 72.0233 62.9841 72.4215L65.2866 82.8906H43.6353L46.0941 72.4095ZM62.1295 69.9844H46.946C46.7393 69.9844 46.5383 70.01 46.3445 70.0551C46.1105 69.6276 45.9766 69.1379 45.9766 68.6172C45.9766 66.9587 47.3259 65.6094 48.9844 65.6094C49.1761 65.6094 49.3706 65.6283 49.5623 65.6655C49.9717 65.7457 50.3807 65.5241 50.5387 65.1379C51.1557 63.6304 52.6064 62.6562 54.2344 62.6562C56.1853 62.6562 57.8396 64.05 58.1679 65.9703C58.2086 66.2082 58.3458 66.4188 58.547 66.5521C58.7482 66.6855 58.9958 66.7297 59.2306 66.6746C59.4588 66.621 59.6914 66.5938 59.9219 66.5938C61.5804 66.5938 62.9297 67.9431 62.9297 69.6016C62.9297 69.7716 62.9148 69.9381 62.8875 70.1004C62.6456 70.0262 62.3913 69.9844 62.1295 69.9844ZM41.5469 87.2656V85.5156C41.5469 85.0332 41.9394 84.6406 42.4219 84.6406H42.5312H66.375H66.4844C66.9668 84.6406 67.3594 85.0332 67.3594 85.5156V87.2656C67.3594 87.7481 66.9668 88.1406 66.4844 88.1406H62.9971H42.4219C41.9394 88.1406 41.5469 87.7481 41.5469 87.2656ZM88.1268 86.3906C88.1268 87.3556 87.3417 88.1406 86.3768 88.1406H68.9589C69.056 87.8668 69.1094 87.5724 69.1094 87.2656V85.5156C69.1094 84.2783 68.2485 83.2388 67.0944 82.9629L64.6933 72.0456C64.6313 71.7641 64.5227 71.5017 64.379 71.2636C64.5728 70.7459 64.6797 70.1861 64.6797 69.6016C64.6797 68.2494 64.1118 67.0282 63.2031 66.1612V55.1164C63.2031 51.7263 65.9612 48.9682 69.3513 48.9682H70.4214H80.9085H81.9786C85.3688 48.9682 88.1268 51.7263 88.1268 55.1164V86.3906Z" fill="black"/>
</g>
</g>
<defs>
<clipPath id="clip0_129_10959">
<rect width="56" height="56" fill="white" transform="translate(34 34)"/>
</clipPath>
<clipPath id="clip1_129_10959">
<rect width="56" height="56" fill="white" transform="translate(34 34)"/>
</clipPath>
</defs>
</svg>
