<svg width="379" height="345" viewBox="0 0 379 345" fill="none" xmlns="http://www.w3.org/2000/svg">
<g filter="url(#filter0_f_6582_23479)">
<path d="M326.754 165.091C329.269 169.432 329.269 174.787 326.754 179.128L264.115 287.238C261.612 291.559 256.996 294.219 252.002 294.219L126.639 294.219C121.645 294.219 117.029 291.559 114.525 287.238L51.8869 179.128C49.3717 174.787 49.3717 169.432 51.8869 165.091L114.525 56.9812C117.029 52.6601 121.645 49.9998 126.639 49.9998L252.002 49.9998C256.996 49.9998 261.612 52.6601 264.115 56.9812L326.754 165.091Z" fill="#FFBE2E"/>
<path d="M326.321 165.342C328.746 169.528 328.746 174.691 326.321 178.877L263.683 286.987C261.268 291.154 256.817 293.719 252.002 293.719L126.639 293.719C121.823 293.719 117.372 291.154 114.958 286.987L52.3193 178.877C49.8942 174.691 49.8942 169.528 52.3193 165.342L114.958 57.2314C117.372 53.0649 121.823 50.5001 126.639 50.5L252.002 50.5C256.817 50.5001 261.268 53.0649 263.683 57.2314L326.321 165.342Z" stroke="#FFBE2E"/>
</g>
<path d="M334.322 165.343C336.747 169.528 336.747 174.691 334.322 178.876L267.683 293.914C265.269 298.081 260.817 300.647 256.001 300.647L122.64 300.647C117.824 300.647 113.372 298.081 110.958 293.914L44.3184 178.876C41.8939 174.691 41.8939 169.528 44.3184 165.343L110.958 50.3047C113.372 46.1373 117.824 43.5713 122.64 43.5713L256.001 43.5713C260.817 43.5713 265.269 46.1373 267.683 50.3047L334.322 165.343Z" fill="#3C2C0B" stroke="#FFBE2E"/>
<path d="M326.321 165.342C328.746 169.528 328.746 174.691 326.321 178.877L263.683 286.987C261.268 291.154 256.817 293.719 252.002 293.719L126.639 293.719C121.823 293.719 117.372 291.154 114.958 286.987L52.3193 178.877C49.8942 174.691 49.8942 169.528 52.3193 165.342L114.958 57.2314C117.372 53.0649 121.823 50.5001 126.639 50.5L252.002 50.5C256.817 50.5001 261.268 53.0649 263.683 57.2314L326.321 165.342Z" fill="#3C2C0B" stroke="#FFBE2E"/>
<g clip-path="url(#clip0_6582_23479)">
<mask id="mask0_6582_23479" style="mask-type:luminance" maskUnits="userSpaceOnUse" x="93" y="141" width="62" height="62">
<path d="M154.942 202.554H93.8203V141.637H154.942V202.554Z" fill="white"/>
</mask>
<g mask="url(#mask0_6582_23479)">
<path fill-rule="evenodd" clipPath="evenodd" d="M93.8203 173.049C93.8203 189.375 107.819 202.063 124.097 202.063C141.136 202.063 154.942 188.435 154.942 171.793C154.942 162.058 150.192 153.518 143.162 147.802L138.031 156.593C142.276 160.174 145.189 165.7 145.189 171.918C145.189 183.221 135.751 192.516 124.097 192.516C112.505 192.516 103.067 183.223 103.067 171.604C103.067 170.223 103.194 168.841 103.447 167.521L93.8203 173.049ZM133.597 142.653C130.684 141.585 128.087 141.146 125.491 141.146C123.527 141.146 121.817 141.397 120.551 141.648L113.964 152.951C116.371 151.569 119.474 150.816 122.831 150.816C124.794 150.816 126.567 151.067 128.404 151.569L133.597 142.653Z" fill="#FFBE2E"/>
</g>
<path fill-rule="evenodd" clipPath="evenodd" d="M180.924 161.236C178.561 161.236 176.416 162.003 174.772 163.411L174.292 161.739H170.17V182.56H175.419V171.242C175.419 168.82 177.055 166.364 180.184 166.364C182.632 166.364 184.092 168.072 184.092 170.935V182.56H189.344V170.548C189.344 164.805 186.117 161.236 180.924 161.236ZM247.641 171.666C247.641 175.008 245.441 177.434 242.412 177.434C239.379 177.434 237.178 175.008 237.178 171.666C237.178 168.325 239.379 165.901 242.41 165.901C245.441 165.901 247.641 168.325 247.641 171.666ZM242.412 160.775C236.489 160.775 231.851 165.559 231.851 171.666C231.851 177.775 236.489 182.56 242.41 182.56C248.33 182.56 252.97 177.775 252.97 171.666C252.97 165.559 248.332 160.775 242.412 160.775ZM216.315 171.666C216.315 175.008 214.114 177.434 211.085 177.434C208.052 177.434 205.852 175.008 205.852 171.666C205.852 168.325 208.052 165.901 211.083 165.901C214.114 165.901 216.315 168.325 216.315 171.666ZM211.085 160.775C205.162 160.775 200.525 165.559 200.525 171.666C200.525 177.775 205.162 182.56 211.083 182.56C217.004 182.56 221.642 177.775 221.642 171.666C221.642 165.559 217.006 160.775 211.085 160.775ZM274.903 161.236C272.54 161.236 270.398 162.003 268.751 163.411L268.273 161.739H264.149V182.56H269.401V171.242C269.401 168.82 271.036 166.364 274.165 166.364C276.613 166.364 278.074 168.072 278.074 170.935V182.56H283.325V170.548C283.325 164.805 280.098 161.236 274.903 161.236Z" fill="#FFBE2E"/>
</g>
<defs>
<filter id="filter0_f_6582_23479" x="0" y="0" width="378.641" height="344.219" filterUnits="userSpaceOnUse" color-interpolation-filters="sRGB">
<feFlood flood-opacity="0" result="BackgroundImageFix"/>
<feBlend mode="normal" in="SourceGraphic" in2="BackgroundImageFix" result="shape"/>
<feGaussianBlur stdDeviation="25" result="effect1_foregroundBlur_6582_23479"/>
</filter>
<clipPath id="clip0_6582_23479">
<rect width="190" height="61" fill="white" transform="translate(93.8203 141.109)"/>
</clipPath>
</defs>
</svg>
