<svg width="100" height="100" viewBox="0 0 100 100" fill="none" xmlns="http://www.w3.org/2000/svg">
<path opacity="0.21" d="M59.7301 35.4677C59.945 35.3437 59.9455 35.0336 59.7309 34.9088L45.3848 26.5728C45.0876 26.4 44.7178 26.3995 44.4202 26.5715L28.9488 35.5041C28.7336 35.6283 28.7331 35.9384 28.948 36.0632L43.2933 44.3995C43.5905 44.5723 43.9603 44.5728 44.2581 44.4007L59.7301 35.4677Z" fill="black"/>
<path d="M43.7258 26.5203L29.3887 18.1887L29.4376 35.6034L43.7749 43.9356L43.7258 26.5203Z" fill="#FFBE2E"/>
<path d="M40.3892 36.7421C39.574 36.2714 38.9108 36.6477 38.9082 37.5842L40.2577 38.3633L40.2529 40.2656C40.2519 40.5794 40.4739 40.964 40.7473 41.1221C41.0204 41.2794 41.2436 41.1527 41.2446 40.8384V40.7779C41.2454 40.6981 41.1881 40.5999 41.1188 40.5599C41.0478 40.5186 40.9921 40.5522 40.9921 40.6323L40.9915 40.6919C40.9912 40.8471 40.8807 40.908 40.7481 40.8312C40.6143 40.7539 40.5054 40.5666 40.5059 40.4117L40.5111 38.5097L41.8614 39.2888C41.8637 38.3521 41.2041 37.2122 40.3892 36.7421Z" fill="#11303F"/>
<path d="M35.3749 33.4771L35.3711 34.6896C35.3692 35.3077 35.773 36.0517 36.2958 36.4251L36.2913 37.8894L35.7111 37.5535C35.6418 37.514 35.5839 37.5466 35.5839 37.6261C35.5839 37.7079 35.6409 37.8047 35.71 37.8447L37.1233 38.6609C37.1934 38.7011 37.251 38.6699 37.251 38.5887C37.251 38.5097 37.1944 38.4103 37.1252 38.3703L36.5443 38.0358L36.5486 36.5711C37.072 36.8016 37.4784 36.5256 37.4798 35.9067L37.4833 34.6952L35.3749 33.4771Z" fill="#11303F"/>
<path d="M31.1691 31.0676L30.4666 31.3628L30.8329 31.574L30.8236 34.7753L30.5842 34.6372C30.5146 34.5978 30.4574 34.6279 30.457 34.709C30.457 34.7892 30.5135 34.8881 30.5838 34.9281L33.5003 36.6124C33.5696 36.652 33.6269 36.6193 33.6275 36.54C33.628 36.4587 33.5706 36.3617 33.5013 36.3216L33.268 36.187L33.2776 32.9864L33.6371 33.1936L32.939 32.0891L32.2389 32.3859L32.6046 32.5974L32.595 35.7982L31.4985 35.1654L31.5081 31.9641L31.8652 32.1705L31.1691 31.0676Z" fill="#11303F"/>
<path d="M59.1199 17.6324L44.782 9.30127L29.3887 18.1889L43.7258 26.5205L59.1199 17.6324Z" fill="#FFECC0"/>
<path d="M43.7246 26.5204L43.7737 43.9357L59.1677 35.0486L59.1187 17.6323L43.7246 26.5204Z" fill="#212121"/>
<path d="M45.9355 36.9955L45.9453 40.2934L46.333 40.0697L46.3242 36.7715L45.9355 36.9955Z" fill="#2B3C4D"/>
<path d="M47.3477 36.1793L47.3574 39.4773L47.4819 39.4046L47.4726 36.1069L47.3477 36.1793Z" fill="#2B3C4D"/>
<path d="M47.7637 35.9385L47.7738 39.2364L48.0229 39.093L48.0133 35.7952L47.7637 35.9385Z" fill="#2B3C4D"/>
<path d="M48.4766 35.5295L48.4862 38.8264L48.8409 38.6221L48.8311 35.3242L48.4766 35.5295Z" fill="#2B3C4D"/>
<path d="M49.4746 34.9529L49.4844 38.2503L49.7391 38.1035L49.73 34.8062L49.4746 34.9529Z" fill="#2B3C4D"/>
<path d="M50.0156 34.6406L50.0241 37.9389L50.1547 37.8635L50.1451 34.5657L50.0156 34.6406Z" fill="#2B3C4D"/>
<path d="M50.3477 34.4484L50.3566 37.7457L50.6139 37.5972L50.6038 34.2993L50.3477 34.4484Z" fill="#2B3C4D"/>
<path d="M45.6152 37.1817L45.624 40.479L45.7866 40.3854L45.7776 37.0881L45.6152 37.1817Z" fill="#2B3C4D"/>
<path d="M45.2793 37.3739L45.2879 40.6721L45.451 40.5776L45.4423 37.2798L45.2793 37.3739Z" fill="#2B3C4D"/>
<path d="M51.1367 33.9929L51.1463 37.2902L51.2334 37.2396L51.2246 33.9424L51.1367 33.9929Z" fill="#2B3C4D"/>
<path d="M51.6655 37.6369L44.8444 41.5752L44.832 37.2735L51.6537 33.3345L51.6655 37.6369ZM46.6935 39.8612L47.1507 39.5972L47.1412 36.2995L46.6839 36.5631L46.6935 39.8612ZM45.9449 40.2933L46.3326 40.0696L46.3238 36.7714L45.9349 36.9956L45.9449 40.2933ZM48.4851 38.8263L48.8398 38.622L48.8301 35.3241L48.4754 35.5296L48.4851 38.8263ZM50.358 37.7455L50.6151 37.597L50.605 34.2993L50.3487 34.4483L50.358 37.7455ZM49.4826 38.2503L49.7375 38.1036L49.7282 34.8064L49.4728 34.9531L49.4826 38.2503ZM47.775 39.2364L48.0243 39.0931L48.0145 35.7952L47.7649 35.9386L47.775 39.2364ZM45.2892 40.672L45.4524 40.5776L45.4437 37.2797L45.2805 37.3738L45.2892 40.672ZM45.6223 40.479L45.785 40.3854L45.7759 37.0882L45.6135 37.1818L45.6223 40.479ZM50.0229 37.9388L50.1533 37.8634L50.1439 34.5656L50.0143 34.6404L50.0229 37.9388ZM47.359 39.4774L47.4835 39.4046L47.474 36.107L47.3491 36.1794L47.359 39.4774ZM51.1457 37.2903L51.2327 37.2397L51.2239 33.9425L51.1361 33.9931L51.1457 37.2903ZM50.8234 37.4768L50.9005 37.4312L50.8914 34.134L50.8135 34.1793L50.8234 37.4768Z" fill="#E4E8E9"/>
<path d="M50.8145 34.1793L50.8244 37.4769L50.9015 37.4314L50.8924 34.134L50.8145 34.1793Z" fill="#2B3C4D"/>
<path d="M46.6855 36.5631L46.6951 39.8613L47.1523 39.5973L47.143 36.2996L46.6855 36.5631Z" fill="#2B3C4D"/>
<path d="M51.6263 21.9552L37.2891 13.6236L37.3897 13.5684L51.7262 21.8997L51.6263 21.9552Z" fill="#6F6F6F"/>
<path opacity="0.21" d="M89.564 38.6483C89.7789 38.5243 89.7795 38.2142 89.5648 38.0894L75.2189 29.7535C74.9216 29.5807 74.5519 29.5802 74.2541 29.7522L58.7827 38.685C58.5677 38.8091 58.567 39.1191 58.7819 39.2439L73.1272 47.5803C73.4246 47.7528 73.7942 47.7534 74.092 47.5816L89.564 38.6483Z" fill="black"/>
<path d="M73.5638 29.7013L59.2266 21.3696L59.2757 38.7844L73.6128 47.1167L73.5638 29.7013Z" fill="#FFBE2E"/>
<path d="M70.225 39.9231C69.4098 39.4523 68.7465 39.8286 68.7441 40.7653L70.0935 41.5443L70.0887 43.4466C70.0877 43.7604 70.3096 44.1452 70.5831 44.3031C70.8562 44.4604 71.0794 44.3337 71.0805 44.0194V43.959C71.0812 43.8791 71.0239 43.7809 70.9546 43.7409C70.8837 43.6996 70.8279 43.7332 70.8279 43.8134L70.8274 43.8729C70.8269 44.0281 70.7165 44.089 70.584 44.0122C70.4501 43.935 70.3413 43.7476 70.3416 43.5927L70.3469 41.6909L71.6972 42.4699C71.6994 41.533 71.0397 40.3932 70.225 39.9231Z" fill="#11303F"/>
<path d="M65.2127 36.6582L65.209 37.8707C65.2069 38.4888 65.6108 39.2328 66.1335 39.6063L66.1292 41.0705L65.5488 40.7347C65.4796 40.6951 65.4216 40.7278 65.4216 40.8073C65.4216 40.8891 65.4788 40.9859 65.5477 41.0259L66.961 41.8421C67.0311 41.8822 67.0887 41.851 67.0887 41.7699C67.0887 41.6907 67.0321 41.5913 66.963 41.5515L66.3821 41.2171L66.3865 39.7524C66.9097 39.983 67.3163 39.7069 67.3175 39.0882L67.3209 37.8766L65.2127 36.6582Z" fill="#11303F"/>
<path d="M61.003 34.2483L60.3006 34.5435L60.667 34.7545L60.6577 37.9558L60.4184 37.8177C60.3486 37.7783 60.2915 37.8084 60.291 37.8895C60.291 37.9697 60.3477 38.0686 60.4177 38.1086L63.3345 39.7929C63.4036 39.8326 63.461 39.7998 63.4615 39.7205C63.4622 39.6392 63.4046 39.5422 63.3354 39.5021L63.1021 39.3675L63.1117 36.1669L63.4714 36.3741L62.7733 35.2696L62.0732 35.5664L62.4389 35.7779L62.4292 38.9787L61.3327 38.3459L61.3424 35.1446L61.6994 35.351L61.003 34.2483Z" fill="#11303F"/>
<path d="M88.9578 20.8131L74.6197 12.4819L59.2266 21.3696L73.5638 29.7012L88.9578 20.8131Z" fill="#FFECC0"/>
<path d="M73.5664 29.7014L73.6154 47.1168L89.0093 38.2295L88.9603 20.8132L73.5664 29.7014Z" fill="#212121"/>
<path d="M75.7754 40.1763L75.7851 43.4742L76.173 43.2503L76.164 39.9521L75.7754 40.1763Z" fill="#2B3C4D"/>
<path d="M77.1895 39.3604L77.1992 42.6584L77.3239 42.5856L77.3144 39.2881L77.1895 39.3604Z" fill="#2B3C4D"/>
<path d="M77.6055 39.1192L77.6154 42.4171L77.8648 42.2737L77.8551 38.9758L77.6055 39.1192Z" fill="#2B3C4D"/>
<path d="M78.3145 38.7103L78.3241 42.0072L78.6788 41.8028L78.6692 38.5049L78.3145 38.7103Z" fill="#2B3C4D"/>
<path d="M79.3125 38.134L79.3223 41.4314L79.5771 41.2845L79.5679 37.9873L79.3125 38.134Z" fill="#2B3C4D"/>
<path d="M79.8555 37.8214L79.8641 41.1196L79.9947 41.0444L79.9851 37.7463L79.8555 37.8214Z" fill="#2B3C4D"/>
<path d="M80.1895 37.6289L80.1987 40.9262L80.4559 40.7778L80.4459 37.48L80.1895 37.6289Z" fill="#2B3C4D"/>
<path d="M75.4531 40.3626L75.4618 43.6599L75.6245 43.5661L75.6154 40.269L75.4531 40.3626Z" fill="#2B3C4D"/>
<path d="M75.1191 40.5547L75.1276 43.8527L75.291 43.7583L75.2822 40.4604L75.1191 40.5547Z" fill="#2B3C4D"/>
<path d="M80.9766 37.1738L80.9863 40.4712L81.0732 40.4207L81.0646 37.1233L80.9766 37.1738Z" fill="#2B3C4D"/>
<path d="M81.5075 40.8175L74.6863 44.7559L74.6738 40.4541L81.4956 36.5151L81.5075 40.8175ZM76.5355 43.0419L76.9925 42.7779L76.9832 39.4802L76.5257 39.7437L76.5355 43.0419ZM75.7867 43.4741L76.1745 43.2504L76.1656 39.9522L75.7769 40.1762L75.7867 43.4741ZM78.3269 42.0072L78.6816 41.8028L78.672 38.505L78.3173 38.7104L78.3269 42.0072ZM80.1999 40.9262L80.4571 40.7778L80.447 37.4801L80.1906 37.6291L80.1999 40.9262ZM79.3244 41.4311L79.5793 41.2844L79.5698 37.9872L79.3145 38.1339L79.3244 41.4311ZM77.6166 42.4171L77.8661 42.2737L77.8563 38.9759L77.6067 39.1192L77.6166 42.4171ZM75.1308 43.8527L75.2942 43.7582L75.2854 40.4604L75.1222 40.5545L75.1308 43.8527ZM75.4639 43.6598L75.6267 43.5662L75.6175 40.269L75.4551 40.3626L75.4639 43.6598ZM79.8649 41.1194L79.9953 41.0441L79.9857 37.7462L79.8561 37.8211L79.8649 41.1194ZM77.2008 42.6582L77.3254 42.5854L77.3158 39.2879L77.191 39.3602L77.2008 42.6582ZM80.9876 40.4711L81.0745 40.4205L81.0659 37.1233L80.9779 37.1739L80.9876 40.4711ZM80.6651 40.6577L80.7422 40.6122L80.7331 37.315L80.6553 37.3601L80.6651 40.6577Z" fill="#E4E8E9"/>
<path d="M80.6523 37.3601L80.6619 40.6578L80.7392 40.6122L80.7301 37.3149L80.6523 37.3601Z" fill="#2B3C4D"/>
<path d="M76.5234 39.7439L76.5332 43.0419L76.9902 42.7779L76.981 39.4802L76.5234 39.7439Z" fill="#2B3C4D"/>
<path d="M81.4624 25.136L67.125 16.8044L67.2256 16.749L81.5621 25.0805L81.4624 25.136Z" fill="#6F6F6F"/>
<path opacity="0.21" d="M70.6577 54.8969C70.8728 54.7729 70.8732 54.4626 70.6585 54.338L56.3126 46.0019C56.0152 45.8292 55.6456 45.8288 55.3478 46.0006L39.8764 54.9332C39.6614 55.0574 39.6609 55.3675 39.8756 55.4921L54.2209 63.8287C54.5182 64.0012 54.8879 64.0018 55.1857 63.83L70.6577 54.8969Z" fill="black"/>
<path d="M54.648 45.9495L40.3105 37.6179L40.3598 55.0326L54.6969 63.3648L54.648 45.9495Z" fill="#FFBE2E"/>
<path d="M51.309 56.1713C50.4937 55.7006 49.8305 56.0771 49.8281 57.0136L51.1775 57.7925L51.1727 59.6949C51.1717 60.0089 51.3936 60.3932 51.6671 60.5514C51.9402 60.7087 52.1636 60.582 52.1644 60.2678V60.2074C52.1653 60.1276 52.1077 60.0293 52.0386 59.9892C51.9676 59.9481 51.9119 59.9815 51.9119 60.0617L51.9112 60.1212C51.9109 60.2766 51.8005 60.3374 51.6679 60.2606C51.5339 60.1833 51.4251 59.9961 51.4255 59.841L51.4307 57.939L52.781 58.7181C52.7836 57.7813 52.124 56.6414 51.309 56.1713Z" fill="#11303F"/>
<path d="M46.2968 52.9062L46.293 54.1188C46.2909 54.7367 46.6947 55.4809 47.2175 55.8545L47.2132 57.3187L46.6328 56.9827C46.5635 56.943 46.5056 56.9758 46.5056 57.0553C46.5056 57.1371 46.5626 57.2337 46.6317 57.2737L48.045 58.0899C48.1153 58.1301 48.1727 58.0991 48.1727 58.0178C48.1727 57.9387 48.1161 57.8394 48.0469 57.7994L47.4661 57.465L47.4703 56.0003C47.9937 56.2308 48.4002 55.955 48.4015 55.3361L48.4049 54.1245L46.2968 52.9062Z" fill="#11303F"/>
<path d="M42.089 50.4966L41.3867 50.7918L41.753 51.0028L41.7437 54.2041L41.5042 54.0661C41.4346 54.0268 41.3773 54.0567 41.377 54.138C41.377 54.2181 41.4334 54.3172 41.5037 54.357L44.4203 56.0414C44.4895 56.0811 44.547 56.0484 44.5475 55.9689C44.5481 55.8878 44.4905 55.7908 44.4212 55.7505L44.1881 55.6159L44.1977 52.4152L44.5574 52.6226L43.8593 51.5181L43.1591 51.8149L43.5249 52.0264L43.5151 55.2271L42.4186 54.5943L42.4282 51.3931L42.7853 51.5997L42.089 50.4966Z" fill="#11303F"/>
<path d="M70.0419 37.0616L55.7038 28.7305L40.3105 37.6181L54.648 45.9497L70.0419 37.0616Z" fill="#FFECC0"/>
<path d="M54.6504 45.9496L54.6994 63.3649L70.0931 54.4779L70.0443 37.0615L54.6504 45.9496Z" fill="#212121"/>
<path d="M56.8574 56.4246L56.8672 59.7225L57.255 59.4988L57.2461 56.2004L56.8574 56.4246Z" fill="#2B3C4D"/>
<path d="M58.2734 55.6085L58.2832 58.9063L58.4078 58.8337L58.3984 55.5361L58.2734 55.6085Z" fill="#2B3C4D"/>
<path d="M58.6895 55.3673L58.6994 58.6653L58.9487 58.522L58.9387 55.2241L58.6895 55.3673Z" fill="#2B3C4D"/>
<path d="M59.4004 54.9586L59.4102 58.2555L59.7649 58.0512L59.7551 54.7532L59.4004 54.9586Z" fill="#2B3C4D"/>
<path d="M60.3965 54.3821L60.4062 57.6795L60.661 57.5324L60.6519 54.2354L60.3965 54.3821Z" fill="#2B3C4D"/>
<path d="M60.9375 54.0697L60.9463 57.3677L61.0769 57.2925L61.0673 53.9946L60.9375 54.0697Z" fill="#2B3C4D"/>
<path d="M61.2734 53.8775L61.2826 57.1745L61.5397 57.0264L61.5298 53.7285L61.2734 53.8775Z" fill="#2B3C4D"/>
<path d="M56.5371 56.6112L56.5457 59.9084L56.7085 59.8146L56.6994 56.5176L56.5371 56.6112Z" fill="#2B3C4D"/>
<path d="M56.2051 56.8031L56.2136 60.1014L56.3769 60.0067L56.3681 56.709L56.2051 56.8031Z" fill="#2B3C4D"/>
<path d="M62.0586 53.4219L62.0684 56.7193L62.1552 56.6687L62.1464 53.3713L62.0586 53.4219Z" fill="#2B3C4D"/>
<path d="M62.5892 57.066L55.7682 61.0043L55.7559 56.7024L62.5774 52.7634L62.5892 57.066ZM57.6172 59.2902L58.0743 59.0262L58.0651 55.7286L57.6076 55.9922L57.6172 59.2902ZM56.8685 59.7224L57.2564 59.4987L57.2474 56.2005L56.8588 56.4245L56.8685 59.7224ZM59.4088 58.2554L59.7635 58.0511L59.7539 54.7533L59.3992 54.9585L59.4088 58.2554ZM61.2816 57.1743L61.5388 57.026L61.5287 53.7283L61.2724 53.8772L61.2816 57.1743ZM60.4062 57.6794L60.661 57.5325L60.6519 54.2355L60.3963 54.3822L60.4062 57.6794ZM58.6987 58.6654L58.948 58.522L58.9382 55.2241L58.6888 55.3675L58.6987 58.6654ZM56.2127 60.1011L56.376 60.0064L56.3672 56.7087L56.204 56.8028L56.2127 60.1011ZM56.5458 59.9081L56.7085 59.8144L56.6994 56.5173L56.537 56.6109L56.5458 59.9081ZM60.9467 57.3676L61.0771 57.2924L61.0675 53.9945L60.9378 54.0695L60.9467 57.3676ZM58.2827 58.9063L58.4073 58.8337L58.3977 55.5362L58.2729 55.6085L58.2827 58.9063ZM62.0695 56.7194L62.1564 56.669L62.1476 53.3716L62.0597 53.4222L62.0695 56.7194ZM61.7469 56.9061L61.8241 56.8605L61.8149 53.5631L61.7372 53.6084L61.7469 56.9061Z" fill="#E4E8E9"/>
<path d="M61.7383 53.6083L61.7479 56.9061L61.8252 56.8604L61.816 53.563L61.7383 53.6083Z" fill="#2B3C4D"/>
<path d="M57.6074 55.9922L57.617 59.2902L58.0742 59.0262L58.0649 55.7285L57.6074 55.9922Z" fill="#2B3C4D"/>
<path d="M62.5523 41.3845L48.2148 33.0528L48.3155 32.9976L62.6519 41.3289L62.5523 41.3845Z" fill="#6F6F6F"/>
<path opacity="0.21" d="M97.7124 59.9328C97.9274 59.8088 97.9279 59.4984 97.7132 59.3739L83.3673 51.0378C83.0699 50.8652 82.7002 50.8647 82.4025 51.0364L66.9311 59.9691C66.7161 60.0933 66.7156 60.4034 66.9303 60.528L81.2757 68.8645C81.573 69.0371 81.9426 69.0376 82.2404 68.8659L97.7124 59.9328Z" fill="black"/>
<path d="M81.7124 50.9854L67.375 42.6538L67.4243 60.0686L81.7614 68.4007L81.7124 50.9854Z" fill="#FFBE2E"/>
<path d="M78.3754 61.2072C77.5603 60.7365 76.8969 61.1128 76.8945 62.0495L78.2439 62.8284L78.239 64.7309C78.2381 65.0448 78.46 65.4291 78.7335 65.5874C79.0066 65.7446 79.2298 65.6179 79.2308 65.3037V65.2434C79.2317 65.1634 79.1741 65.0651 79.105 65.0251C79.0341 64.984 78.9783 65.0174 78.9783 65.0976L78.9778 65.1571C78.9773 65.3123 78.8671 65.3733 78.7344 65.2965C78.6005 65.219 78.4917 65.032 78.492 64.8769L78.4973 62.975L79.8476 63.754C79.85 62.8174 79.1904 61.6775 78.3754 61.2072Z" fill="#11303F"/>
<path d="M73.3632 57.9421L73.3594 59.1547C73.3573 59.7726 73.7612 60.5168 74.2839 60.8904L74.2796 62.3546L73.6992 62.0186C73.63 61.9789 73.572 62.0115 73.572 62.0912C73.572 62.173 73.6292 62.2696 73.6981 62.3096L75.1114 63.1258C75.1815 63.166 75.2393 63.1349 75.2393 63.0537C75.2393 62.9746 75.1826 62.8753 75.1134 62.8353L74.5325 62.5008L74.5369 61.0362C75.0602 61.2666 75.4667 60.9909 75.4679 60.372L75.4713 59.1604L73.3632 57.9421Z" fill="#11303F"/>
<path d="M69.1554 55.5325L68.4531 55.8277L68.8194 56.0387L68.8101 59.2399L68.5706 59.102C68.5008 59.0627 68.4437 59.0926 68.4434 59.1739C68.4434 59.254 68.5 59.3529 68.5701 59.3929L71.4867 61.0773C71.5559 61.117 71.6134 61.0842 71.6139 61.0048C71.6145 60.9235 71.5569 60.8267 71.4876 60.7864L71.2545 60.6518L71.2643 57.4511L71.6238 57.6585L70.9257 56.5538L70.2255 56.8506L70.5913 57.0623L70.5815 60.263L69.485 59.6302L69.4948 56.429L69.8517 56.6355L69.1554 55.5325Z" fill="#11303F"/>
<path d="M97.1063 42.0974L82.7683 33.7661L67.375 42.6538L81.7124 50.9854L97.1063 42.0974Z" fill="#FFECC0"/>
<path d="M81.7109 50.9854L81.7599 68.4007L97.1537 59.5135L97.1049 42.0974L81.7109 50.9854Z" fill="#212121"/>
<path d="M83.9238 61.4606L83.9336 64.7586L84.3214 64.5348L84.3125 61.2366L83.9238 61.4606Z" fill="#2B3C4D"/>
<path d="M85.3379 60.6446L85.3477 63.9425L85.4723 63.8698L85.4629 60.5723L85.3379 60.6446Z" fill="#2B3C4D"/>
<path d="M85.7539 60.4036L85.7638 63.7015L86.0131 63.5583L86.0034 60.2603L85.7539 60.4036Z" fill="#2B3C4D"/>
<path d="M86.4648 59.9946L86.4746 63.2917L86.8293 63.0872L86.8197 59.7893L86.4648 59.9946Z" fill="#2B3C4D"/>
<path d="M87.459 59.4182L87.4686 62.7154L87.7235 62.5685L87.7142 59.2715L87.459 59.4182Z" fill="#2B3C4D"/>
<path d="M88.002 59.1058L88.0108 62.4038L88.1413 62.3286L88.1317 59.0308L88.002 59.1058Z" fill="#2B3C4D"/>
<path d="M88.3359 58.9132L88.3451 62.2104L88.6023 62.0621L88.5923 58.7644L88.3359 58.9132Z" fill="#2B3C4D"/>
<path d="M83.5996 61.6467L83.6082 64.9442L83.7711 64.8503L83.7619 61.5532L83.5996 61.6467Z" fill="#2B3C4D"/>
<path d="M83.2695 61.839L83.2782 65.1373L83.4415 65.0426L83.4327 61.7449L83.2695 61.839Z" fill="#2B3C4D"/>
<path d="M89.123 58.4582L89.1328 61.7554L89.2197 61.705L89.211 58.4075L89.123 58.4582Z" fill="#2B3C4D"/>
<path d="M89.6537 62.1017L82.8326 66.0401L82.8203 61.7383L89.642 57.7993L89.6537 62.1017ZM84.6818 64.3262L85.1388 64.0622L85.1295 60.7647L84.6721 61.0281L84.6818 64.3262ZM83.933 64.7584L84.3208 64.5347L84.3119 61.2365L83.9232 61.4606L83.933 64.7584ZM86.4732 63.2915L86.828 63.0872L86.8184 59.7893L86.4635 59.9946L86.4732 63.2915ZM88.3461 62.2103L88.6034 62.062L88.5933 58.7643L88.337 58.9133L88.3461 62.2103ZM87.4707 62.7153L87.7256 62.5684L87.7163 59.2714L87.4609 59.4181L87.4707 62.7153ZM85.7631 63.7013L86.0124 63.5579L86.0027 60.26L85.7531 60.4034L85.7631 63.7013ZM83.2771 65.1372L83.4405 65.0424L83.4317 61.7447L83.2685 61.8388L83.2771 65.1372ZM83.6103 64.9442L83.7731 64.8503L83.7639 61.5534L83.6015 61.6468L83.6103 64.9442ZM88.0112 62.4036L88.1416 62.3284L88.132 59.0306L88.0024 59.1056L88.0112 62.4036ZM85.3471 63.9424L85.4718 63.8697L85.4622 60.5722L85.3374 60.6445L85.3471 63.9424ZM89.134 61.7553L89.2208 61.7049L89.2122 58.4075L89.1242 58.4581L89.134 61.7553ZM88.8114 61.9419L88.8885 61.8964L88.8794 58.599L88.8016 58.6443L88.8114 61.9419Z" fill="#E4E8E9"/>
<path d="M88.8008 58.6442L88.8104 61.9417L88.8877 61.8963L88.8785 58.5989L88.8008 58.6442Z" fill="#2B3C4D"/>
<path d="M84.6719 61.028L84.6816 64.3264L85.1386 64.0622L85.1293 60.7646L84.6719 61.028Z" fill="#2B3C4D"/>
<path d="M89.6109 46.4202L75.2734 38.0884L75.3742 38.0332L89.7105 46.3647L89.6109 46.4202Z" fill="#6F6F6F"/>
<path opacity="0.21" d="M74.935 30.5885C75.15 30.4643 75.1505 30.1542 74.9359 30.0294L60.5899 21.6933C60.2926 21.5207 59.923 21.5202 59.6252 21.692L44.1538 30.6248C43.9388 30.7489 43.9381 31.059 44.153 31.1838L58.4983 39.5203C58.7956 39.6929 59.1652 39.6934 59.4629 39.5215L74.935 30.5885Z" fill="black"/>
<path d="M58.9271 21.6411L44.5898 13.3093L44.6388 30.7241L58.9759 39.0562L58.9271 21.6411Z" fill="#FFBE2E"/>
<path d="M55.5881 31.8625C54.773 31.3917 54.1098 31.7682 54.1074 32.7046L55.4567 33.4836L55.4519 35.3859C55.451 35.6999 55.6729 36.0844 55.9464 36.2425C56.2195 36.3997 56.4427 36.273 56.4437 35.9586V35.8983C56.4445 35.8184 56.387 35.72 56.3179 35.68C56.2469 35.6389 56.191 35.6724 56.191 35.7525L56.1905 35.8122C56.1901 35.9674 56.0798 36.0284 55.9472 35.9516C55.8132 35.8741 55.7043 35.6869 55.7048 35.532L55.7099 33.63L57.0603 34.4091C57.0629 33.4724 56.4032 32.3327 55.5881 31.8625Z" fill="#11303F"/>
<path d="M50.574 28.5977L50.5703 29.8102C50.5682 30.4281 50.9721 31.1723 51.4948 31.5459L51.4903 33.0101L50.91 32.6743C50.8409 32.6346 50.7828 32.6672 50.7828 32.7469C50.7828 32.8287 50.8399 32.9253 50.9091 32.9653L52.3224 33.7815C52.3925 33.8215 52.4501 33.7905 52.4501 33.7093C52.4501 33.6303 52.3934 33.5309 52.3241 33.4908L51.7433 33.1564L51.7476 31.6917C52.271 31.9222 52.6776 31.6464 52.6789 31.0275L52.6821 29.8159L50.574 28.5977Z" fill="#11303F"/>
<path d="M46.3665 26.188L45.6641 26.4832L46.0303 26.6942L46.021 29.8955L45.7817 29.7575C45.7119 29.718 45.6548 29.7481 45.6543 29.8294C45.6543 29.9095 45.7108 30.0086 45.7812 30.0486L48.6976 31.733C48.7669 31.7726 48.8243 31.74 48.8248 31.6605C48.8253 31.5794 48.7678 31.4822 48.6986 31.4419L48.4653 31.3074L48.475 28.1068L48.8346 28.314L48.1366 27.2095L47.4363 27.5063L47.802 27.7178L47.7924 30.9185L46.6959 30.2856L46.7055 27.0843L47.0627 27.2911L46.3665 26.188Z" fill="#11303F"/>
<path d="M74.321 12.7529L59.9831 4.42163L44.5898 13.3093L58.9271 21.6411L74.321 12.7529Z" fill="#FFECC0"/>
<path d="M58.9277 21.6408L58.9765 39.0559L74.3705 30.1689L74.3217 12.7527L58.9277 21.6408Z" fill="#212121"/>
<path d="M61.1387 32.1158L61.1484 35.4136L61.5361 35.1899L61.5273 31.8916L61.1387 32.1158Z" fill="#2B3C4D"/>
<path d="M62.5527 31.2999L62.5625 34.5979L62.6871 34.5251L62.6777 31.2275L62.5527 31.2999Z" fill="#2B3C4D"/>
<path d="M62.9668 31.0589L62.9769 34.3568L63.2262 34.2134L63.2164 30.9155L62.9668 31.0589Z" fill="#2B3C4D"/>
<path d="M63.6777 30.6499L63.6872 33.9468L64.0421 33.7424L64.0323 30.4446L63.6777 30.6499Z" fill="#2B3C4D"/>
<path d="M64.6738 30.0736L64.6836 33.3709L64.9383 33.224L64.9292 29.9268L64.6738 30.0736Z" fill="#2B3C4D"/>
<path d="M65.2168 29.7609L65.2254 33.0591L65.3558 32.9839L65.3464 29.686L65.2168 29.7609Z" fill="#2B3C4D"/>
<path d="M65.5527 29.5686L65.5617 32.8659L65.819 32.7175L65.8089 29.4197L65.5527 29.5686Z" fill="#2B3C4D"/>
<path d="M60.8164 32.3023L60.825 35.5996L60.9878 35.5058L60.9788 32.2087L60.8164 32.3023Z" fill="#2B3C4D"/>
<path d="M60.4824 32.4942L60.4909 35.7924L60.6541 35.6978L60.6455 32.4001L60.4824 32.4942Z" fill="#2B3C4D"/>
<path d="M66.3398 29.1136L66.3493 32.4109L66.4363 32.3604L66.4275 29.063L66.3398 29.1136Z" fill="#2B3C4D"/>
<path d="M66.8687 32.7572L60.0475 36.6957L60.0352 32.3938L66.8568 28.4548L66.8687 32.7572ZM61.8967 34.9816L62.3536 34.7176L62.3445 31.4199L61.8871 31.6834L61.8967 34.9816ZM61.148 35.4138L61.5357 35.1901L61.5269 31.8917L61.1381 32.1159L61.148 35.4138ZM63.6881 33.9468L64.043 33.7425L64.0332 30.4447L63.6785 30.6499L63.6881 33.9468ZM65.5611 32.8659L65.8182 32.7175L65.8081 29.4198L65.5518 29.5688L65.5611 32.8659ZM64.6857 33.3708L64.9406 33.2239L64.9313 29.9267L64.6759 30.0734L64.6857 33.3708ZM62.9781 34.3568L63.2276 34.2134L63.2177 30.9156L62.968 31.0589L62.9781 34.3568ZM60.4921 35.7925L60.6555 35.6979L60.6469 32.4002L60.4836 32.4943L60.4921 35.7925ZM60.8253 35.5995L60.9881 35.5058L60.979 32.2087L60.8166 32.3023L60.8253 35.5995ZM65.2262 33.0591L65.3566 32.9839L65.3472 29.6861L65.2176 29.761L65.2262 33.0591ZM62.5621 34.5979L62.6868 34.5251L62.6772 31.2276L62.5522 31.2999L62.5621 34.5979ZM66.3488 32.4108L66.4358 32.3602L66.427 29.0629L66.3392 29.1134L66.3488 32.4108ZM66.0265 32.5975L66.1037 32.5519L66.0945 29.2545L66.0166 29.2998L66.0265 32.5975Z" fill="#E4E8E9"/>
<path d="M66.0156 29.2999L66.0255 32.5976L66.1027 32.5519L66.0935 29.2546L66.0156 29.2999Z" fill="#2B3C4D"/>
<path d="M61.8848 31.6835L61.8944 34.9816L62.3513 34.7176L62.3424 31.4199L61.8848 31.6835Z" fill="#2B3C4D"/>
<path d="M66.8312 17.0757L52.4941 8.74408L52.5948 8.68872L66.9311 17.0202L66.8312 17.0757Z" fill="#6F6F6F"/>
<path d="M3.3194 49.4816C3.3194 49.4816 3.24403 49.2506 3.3578 49.1779C3.4714 49.1051 3.73653 48.9744 4.36631 49.1147C4.59064 49.1653 4.79096 49.3003 4.846 49.3384C4.92569 49.393 5.09065 49.5525 5.05097 49.6642C5.02249 49.7467 4.95465 49.8242 4.73656 49.8987C4.27591 50.0576 3.69429 49.8863 3.59316 49.7901C3.49156 49.6931 3.3194 49.4816 3.3194 49.4816Z" fill="#CADEE0"/>
<path d="M4.46071 50.1491L4.52791 49.1486L3.36884 49.1448L3.3418 49.6882L4.46071 50.1491Z" fill="#E8C5AC"/>
<path d="M3.29203 49.3347C3.29203 49.3347 3.34147 49.6952 4.06262 49.8363C4.44583 49.9115 4.61672 49.8895 4.81672 49.8215C4.96889 49.7699 5.05081 49.6595 5.05081 49.6595L4.99769 49.9731C4.99769 49.9731 4.81112 50.2205 4.25302 50.1842C3.42708 50.1317 3.27539 49.6018 3.27539 49.6018L3.29203 49.3347Z" fill="#F5F5F5"/>
<path d="M3.99206 48.9367C4.09078 48.6162 3.77557 48.2619 3.51972 48.1658C3.43012 48.1309 3.52868 47.2977 3.15283 47.187C3.15283 47.187 3.08899 47.396 2.98882 47.7667C2.98082 47.7963 2.84482 48.0934 2.94466 48.3771C3.20931 49.1274 3.22595 49.2576 3.4818 49.3538C3.73765 49.4511 3.89333 49.2567 3.99206 48.9367Z" fill="#E8C5AC"/>
<path d="M3.43982 48.4784C3.43982 48.4784 3.4043 47.9639 3.96592 47.2766C4.52786 46.589 4.87187 45.5599 5.38564 46.6261C5.89974 47.6926 5.10532 49.3296 3.85216 49.56C3.22494 49.6754 3.43982 48.4784 3.43982 48.4784Z" fill="#E8C5AC"/>
<mask id="mask0_154_16481" style="mask-type:luminance" maskUnits="userSpaceOnUse" x="9" y="59" width="11" height="7">
<path d="M14.3099 59.2637C15.9122 60.8695 17.7183 62.1774 19.5824 62.99L16.4482 65.3186C13.8291 64.1768 11.3253 62.0578 9.33984 59.5088C9.48337 59.656 9.61617 59.788 9.81362 59.9781C9.8085 59.9919 9.8053 60.0058 9.79954 60.0194C9.94498 59.9111 10.0903 59.8029 10.2362 59.6949C10.5325 59.9765 10.8028 60.2227 11.2015 60.5732C11.3634 60.4528 11.5255 60.3317 11.6878 60.2115C11.9212 60.4104 12.1046 60.5616 12.3212 60.7338C12.9828 60.2424 13.6477 59.7547 14.3099 59.2637Z" fill="white"/>
</mask>
<g mask="url(#mask0_154_16481)">
<path d="M7.62109 56.9711L10.7553 54.6426C11.91 56.6196 13.3946 58.4657 15.0621 59.9808L11.9275 62.3091C10.2602 60.7938 8.77585 58.9482 7.62109 56.9711Z" fill="#FFBE2E"/>
<path d="M11.9277 62.3089L15.0624 59.9807C16.4685 61.2587 18.0052 62.3019 19.5837 62.9899L16.4495 65.3185C14.871 64.6301 13.3343 63.5871 11.9277 62.3089Z" fill="#FFBE2E"/>
</g>
<mask id="mask1_154_16481" style="mask-type:luminance" maskUnits="userSpaceOnUse" x="16" y="62" width="11" height="5">
<path d="M19.5873 62.9899C22.3847 64.2095 24.7796 64.0816 26.3851 62.8899L23.2511 65.2184C21.6458 66.4103 19.2503 66.538 16.4531 65.3185C17.3933 64.6199 18.6473 63.6885 19.5873 62.9899Z" fill="white"/>
</mask>
<g mask="url(#mask1_154_16481)">
<path d="M16.4531 65.3185L19.5873 62.99C22.3855 64.2098 24.7809 64.0817 26.3866 62.8892L23.2524 65.2176C21.6467 66.4104 19.251 66.5382 16.4531 65.3185Z" fill="#FFBE2E"/>
</g>
<mask id="mask2_154_16481" style="mask-type:luminance" maskUnits="userSpaceOnUse" x="5" y="41" width="10" height="20">
<path d="M9.80134 60.0194C9.8071 60.0058 9.8103 59.9919 9.81542 59.9781C9.61797 59.788 9.48517 59.656 9.34164 59.5088C7.11181 56.646 5.53624 53.2401 5.18711 50.0663C4.85862 47.0849 5.67433 44.8695 7.25998 43.692L10.3943 41.3638C8.80867 42.5409 7.99312 44.7564 8.32129 47.7377C8.76019 51.7259 11.1351 56.0801 14.3116 59.2635C13.6493 59.7546 12.9845 60.2423 12.3229 60.7337C12.1062 60.5615 11.9228 60.4103 11.6894 60.2114C11.5272 60.3316 11.3651 60.4527 11.2031 60.573C10.8044 60.2226 10.534 59.9764 10.2378 59.6948C10.0922 59.8029 9.94694 59.9111 9.80134 60.0194Z" fill="white"/>
</mask>
<g mask="url(#mask2_154_16481)">
<path d="M7.25902 43.6928L10.3932 41.3643C8.80818 42.5417 7.99312 44.7568 8.32129 47.7376C8.57186 50.0154 9.45413 52.4123 10.7561 54.6423L7.62191 56.9708C6.31963 54.7408 5.43752 52.3436 5.18711 50.0661C4.85878 47.0857 5.67352 44.8701 7.25902 43.6928Z" fill="#FFBE2E"/>
<path d="M7.62109 56.9711L10.7553 54.6426C11.91 56.6196 13.3946 58.4657 15.0621 59.9808L11.9275 62.3091C10.2602 60.7938 8.77585 58.9482 7.62109 56.9711Z" fill="#FFBE2E"/>
</g>
<mask id="mask3_154_16481" style="mask-type:luminance" maskUnits="userSpaceOnUse" x="7" y="40" width="11" height="4">
<path d="M7.25977 43.693L10.3939 41.3646C11.9996 40.1716 14.3954 40.0437 17.193 41.2636L14.0587 43.5918C11.2609 42.3723 8.86526 42.5003 7.25977 43.693Z" fill="white"/>
</mask>
<g mask="url(#mask3_154_16481)">
<path d="M7.25977 43.693L10.3939 41.3646C11.9996 40.1716 14.3954 40.0437 17.193 41.2636L14.0587 43.5918C11.2609 42.3723 8.86526 42.5003 7.25977 43.693Z" fill="#B0CEEA"/>
</g>
<mask id="mask4_154_16481" style="mask-type:luminance" maskUnits="userSpaceOnUse" x="4" y="36" width="13" height="5">
<path d="M4.92188 40.5494L8.05605 38.2213C10.1308 36.68 13.2265 36.5147 16.8419 38.0907L13.7074 40.4191C10.0923 38.8431 6.9965 39.0082 4.92188 40.5494Z" fill="white"/>
</mask>
<g mask="url(#mask4_154_16481)">
<path d="M4.92188 40.5494L8.05605 38.2213C10.1308 36.68 13.2265 36.5147 16.8419 38.0907L13.7074 40.4191C10.0923 38.8431 6.9965 39.0082 4.92188 40.5494Z" fill="#FFBE2E"/>
</g>
<mask id="mask5_154_16481" style="mask-type:luminance" maskUnits="userSpaceOnUse" x="14" y="41" width="15" height="25">
<path d="M26.3841 62.8892C25.3393 63.6652 24.2944 64.4412 23.2499 65.2176C24.8346 64.0402 25.65 61.8246 25.3217 58.8439C24.6612 52.8442 19.6191 46.0161 14.0586 43.5919L17.1929 41.2637C22.7533 43.6876 27.7957 50.5158 28.4562 56.5155C28.7842 59.4963 27.969 61.7118 26.3841 62.8892Z" fill="white"/>
</mask>
<g mask="url(#mask5_154_16481)">
<path d="M14.0605 43.5919L17.1949 41.2637C18.7732 41.9514 20.31 42.9948 21.7168 44.2729L18.5823 46.6014C17.1755 45.3232 15.6388 44.2801 14.0605 43.5919Z" fill="#B0CEEA"/>
<path d="M18.582 46.6015L21.7165 44.2729C23.3838 45.7882 24.8682 47.634 26.0226 49.6107L22.8879 51.9394C21.7337 49.9626 20.249 48.1169 18.582 46.6015Z" fill="#DFEBF7"/>
<path d="M22.8867 51.9396L26.0214 49.6108C27.3237 51.8412 28.2058 54.2382 28.4567 56.5157C28.7847 59.4964 27.9694 61.712 26.3846 62.8893L23.2504 65.2177C24.8351 64.0404 25.6505 61.8248 25.3222 58.8441C25.0714 56.5666 24.189 54.1694 22.8867 51.9396Z" fill="#B0CEEA"/>
</g>
<mask id="mask6_154_16481" style="mask-type:luminance" maskUnits="userSpaceOnUse" x="13" y="38" width="19" height="31">
<path d="M28.7234 66.0329L25.5893 68.3615C27.6375 66.8396 28.6906 63.9776 28.2668 60.1262C27.4133 52.3742 20.897 43.5509 13.7129 40.419L16.8474 38.0906C24.0313 41.2224 30.5478 50.0457 31.4011 57.7976C31.825 61.6489 30.7718 64.5116 28.7234 66.0329Z" fill="white"/>
</mask>
<g mask="url(#mask6_154_16481)">
<path d="M13.7129 40.419L16.8474 38.0906C18.8868 38.9797 20.8722 40.3274 22.6898 41.979L19.5556 44.3073C17.738 42.656 15.7526 41.3084 13.7129 40.419Z" fill="#FFBE2E"/>
<path d="M19.5566 44.3072L22.6908 41.979C24.8456 43.9371 26.7637 46.322 28.2555 48.8765L25.1215 51.2051C23.6294 48.6507 21.7111 46.2657 19.5566 44.3072Z" fill="#FFBE2E"/>
<path d="M25.1191 51.2053L28.2532 48.8767C29.9359 51.7584 31.076 54.8551 31.3998 57.7978C31.8235 61.649 30.7705 64.5116 28.7221 66.0331L25.588 68.3617C27.6362 66.8398 28.6893 63.9778 28.2655 60.1263C27.9415 57.1837 26.8014 54.0865 25.1191 51.2053Z" fill="#FFBE2E"/>
</g>
<g opacity="0.71">
<path d="M15.2338 41.8779C20.7943 44.302 25.8364 51.1302 26.4969 57.1301C27.1575 63.1296 23.1861 66.0283 17.6259 63.6044C12.0655 61.1805 7.0233 54.3522 6.3628 48.3524C5.7023 42.3527 9.67363 39.454 15.2338 41.8779Z" fill="#FFF7E4"/>
</g>
<path d="M13.7103 40.4191C20.8943 43.551 27.4107 52.3743 28.2642 60.1263C29.1173 67.878 23.9852 71.6242 16.8009 68.4923C9.61702 65.3602 3.1005 56.5359 2.24703 48.7838C1.39356 41.0317 6.52669 37.2873 13.7103 40.4191ZM16.4516 65.3186C22.0118 67.7423 25.9831 64.8437 25.3226 58.844C24.6621 52.8443 19.6201 46.0162 14.0596 43.592C8.49939 41.1679 4.52806 44.0665 5.18873 50.0664C5.84923 56.0663 10.8911 62.8942 16.4516 65.3186Z" fill="#C38600"/>
<path opacity="0.43" d="M18.0493 61.4427C13.2032 59.33 8.80805 53.3784 8.23267 48.1495C8.11618 47.0912 8.16738 46.1462 8.35955 45.3257C7.12479 46.3889 6.50509 48.2475 6.7755 50.7023C7.3512 55.9319 11.7459 61.8833 16.5921 63.9959C20.4577 65.6811 23.4397 64.4124 24.197 61.1768C22.8018 62.3784 20.6204 62.5637 18.0493 61.4427Z" fill="#CACACA"/>
<path d="M31.6294 59.6839L38.236 64.1257C37.9513 63.9341 37.3979 64.1617 36.7607 64.7929L30.1543 60.3513C30.7914 59.7201 31.3449 59.4925 31.6294 59.6839Z" fill="#C38600"/>
<mask id="mask7_154_16481" style="mask-type:luminance" maskUnits="userSpaceOnUse" x="30" y="59" width="9" height="6">
<path d="M31.6313 59.6839L38.2379 64.1257C37.9533 63.9341 37.3998 64.1617 36.7627 64.7929L30.1562 60.3513C30.7934 59.7201 31.3468 59.4925 31.6313 59.6839Z" fill="white"/>
</mask>
<g mask="url(#mask7_154_16481)">
<path d="M36.7627 64.7929L30.1562 60.3513C30.7932 59.7202 31.3467 59.4925 31.6313 59.6839L38.2379 64.1256C37.9531 63.934 37.3997 64.1615 36.7627 64.7929Z" fill="#C38600"/>
</g>
<mask id="mask8_154_16481" style="mask-type:luminance" maskUnits="userSpaceOnUse" x="28" y="60" width="9" height="9">
<path d="M35.2794 68.5269C33.0769 67.0462 30.8751 65.5658 28.6728 64.0854C28.5419 63.9973 28.4675 63.8201 28.4688 63.5531C28.4713 62.7065 29.2278 61.2729 30.1584 60.3511L36.7649 64.7927C35.8348 65.7141 35.0781 67.1478 35.0752 67.9947C35.0741 68.2619 35.1482 68.4389 35.2794 68.5269Z" fill="white"/>
</mask>
<g mask="url(#mask8_154_16481)">
<path d="M35.2771 68.5269L29.0537 64.3442C28.9226 64.256 28.9164 64.0704 28.8495 63.8118C28.6845 63.1737 28.8522 61.6266 30.1559 60.3511L36.7624 64.7927C35.8323 65.7141 35.0756 67.1478 35.0727 67.9947C35.0718 68.2619 35.1459 68.4389 35.2771 68.5269Z" fill="#C38600"/>
</g>
<path d="M36.7619 64.793C37.692 63.8712 38.4441 63.8104 38.4409 64.6571C38.438 65.5047 37.682 66.9383 36.7514 67.86C35.8213 68.7814 35.0691 68.8424 35.0723 67.9948C35.0752 67.1479 35.8317 65.7143 36.7619 64.793Z" fill="#534C42"/>
<path d="M38.0297 61.1834C37.5072 60.8322 36.4904 61.2498 35.3203 62.4095C33.6114 64.102 32.2218 66.7351 32.2168 68.2905C32.2146 68.7812 32.3512 69.1067 32.5919 69.2681L53.9042 83.3183L53.9351 83.2798C53.6946 83.1177 53.4844 82.8854 53.5189 82.3959C53.6205 80.9613 54.8374 78.2305 56.5461 76.5381C57.7159 75.3787 58.7329 74.9609 59.2554 75.3125L38.0297 61.1834Z" fill="#DE9F13"/>
<path d="M56.5476 76.538C58.2563 74.8456 59.1716 74.7395 59.874 76.1271C60.7516 77.8609 60.9676 80.0527 59.7938 81.7924C58.2387 84.0981 53.3079 84.2466 53.4442 82.4191C53.5605 80.8687 54.8391 78.2304 56.5476 76.538Z" fill="#FFBE2E"/>
<path d="M54.55 79.2233C55.2993 77.9264 55.6863 77.6196 55.6863 77.6196L34.3773 63.4612C34.3773 63.4612 33.4811 64.7044 33.1643 65.3195C33.0778 65.4872 54.55 79.2233 54.55 79.2233Z" fill="#FFBE2E"/>
<g opacity="0.17">
<path d="M50.8903 91.3375C52.4328 91.8017 52.7393 93.0717 51.575 94.1733C50.4108 95.2749 48.2153 95.7919 46.6731 95.3279L10.2407 84.2368C8.69841 83.7728 8.39184 82.5027 9.55619 81.401C10.7202 80.2994 12.9158 79.7824 14.4581 80.2464L50.8903 91.3375Z" fill="black"/>
</g>
</svg>
