<svg width="104" height="100" viewBox="0 0 104 100" fill="none" xmlns="http://www.w3.org/2000/svg">
<path d="M103.351 33.0264L102.741 35.7281L93.5938 76.1937C93.3959 77.0723 92.8377 77.8294 92.0565 78.2807L90.8555 78.974L55.6885 99.2785C54.4979 99.9655 52.6978 100.04 51.6674 99.445L0.850521 70.1066C0.39291 69.8416 0.164627 69.4908 0.15625 69.1212V65.4697C0.164627 65.8394 0.393957 66.1891 0.850521 66.4541L2.14795 67.2038L51.6674 95.7946C52.6978 96.3894 54.4979 96.315 55.6885 95.6271L90.8555 75.3236L99.9752 34.9763C100.25 33.7605 99.637 32.2934 98.6066 31.6986L48.5206 2.78115L47.7908 2.36019C47.2557 2.05128 46.7111 2.03766 46.2755 2.26804L49.5668 0.366384L49.5772 0.360102C50.0254 0.0878386 50.6003 0.0836505 51.1658 0.411413L101.982 29.7499C103.012 30.3446 103.625 31.8117 103.35 33.0275L103.351 33.0264Z" fill="#FFBE2E"/>
<path d="M53.4147 100C52.7309 100 52.0775 99.8618 51.5906 99.5801L0.773714 70.2416C0.285735 69.9589 0.0113776 69.5631 0.00195312 69.1254V65.4708C0.00195312 65.3859 0.0710758 65.3158 0.155896 65.3147C0.241764 65.3147 0.310877 65.3817 0.312971 65.4666C0.320301 65.7943 0.533925 66.0896 0.929753 66.319L2.22718 67.0677L51.7466 95.6574C52.732 96.226 54.4661 96.1517 55.6117 95.4898L90.72 75.2199L99.8251 34.9385C100.085 33.7867 99.5036 32.3918 98.5298 31.8295L47.714 2.49107C47.2417 2.21776 46.7569 2.18634 46.3495 2.40101C46.2741 2.4408 46.182 2.41253 46.1401 2.33818C46.0992 2.26383 46.1254 2.17063 46.1987 2.1277L49.4983 0.221856C50.0135 -0.0901994 50.6502 -0.0723974 51.245 0.271073L102.061 29.6095C103.144 30.2347 103.792 31.7813 103.504 33.0568L102.893 35.7585L93.7463 76.2241C93.539 77.1425 92.9515 77.9404 92.1347 78.4116L55.7667 99.4094C55.0954 99.7968 54.2336 99.9958 53.4137 99.9958L53.4147 100ZM0.312971 66.2226V69.1222C0.320301 69.4479 0.533925 69.7432 0.929753 69.9725L51.7466 99.311C52.732 99.8806 54.4661 99.8063 55.6117 99.1445L91.9798 78.1467C92.7211 77.7184 93.2552 76.9938 93.4426 76.1602L102.59 35.6946L103.2 32.9929C103.46 31.841 102.879 30.4462 101.905 29.8839L51.089 0.545431C50.5958 0.260602 50.0743 0.240706 49.6586 0.493073L49.6481 0.499356L47.1108 1.96539C47.3642 1.99471 47.6218 2.08162 47.87 2.22508L48.5999 2.64605L98.6858 31.5635C99.7686 32.1887 100.417 33.7343 100.129 35.0108L91.009 75.3581C90.9996 75.4 90.9724 75.4366 90.9347 75.4586L55.7677 95.7621C54.5363 96.4731 52.6629 96.5475 51.5916 95.9297L2.0722 67.3389L0.774762 66.5891C0.589414 66.4813 0.434443 66.3577 0.314019 66.2216L0.312971 66.2226Z" fill="#212121"/>
<path d="M99.9782 35.9765L99.3677 38.6782L96.4335 51.6557L90.8574 76.3249L88.0531 77.9438L66.1066 62.0352L39.6855 42.8826L41.5212 34.7587L44.3056 22.4398L48.5226 3.78247L98.6085 32.7C99.6389 33.2947 100.252 34.7618 99.9772 35.9776L99.9782 35.9765Z" fill="white"/>
<path d="M88.0535 78.0987C88.021 78.0987 87.9896 78.0883 87.9624 78.0694L66.0159 62.1609C66.0159 62.1609 66.0117 62.1577 66.0085 62.1556L39.5938 43.0082C39.5435 42.9716 39.5194 42.9087 39.5331 42.848L48.3711 3.74787C48.3816 3.6997 48.4151 3.65886 48.4601 3.64001C48.5052 3.62012 48.5575 3.62326 48.6005 3.64734L98.6864 32.5648C99.7692 33.19 100.417 34.7356 100.129 36.0121L91.0096 76.3594C91.0002 76.4013 90.973 76.4379 90.9353 76.4599L88.131 78.0788C88.1069 78.0925 88.0797 78.0998 88.0535 78.0998V78.0987ZM66.2033 61.9127L88.0619 77.7584L90.7196 76.2243L96.28 51.6222L99.8247 35.944C100.084 34.7922 99.5032 33.3973 98.5293 32.835L48.6256 4.02328L39.8566 42.8166L66.1949 61.9075C66.1949 61.9075 66.2002 61.9106 66.2023 61.9127H66.2033Z" fill="#263994"/>
<path d="M90.8555 76.324L88.0511 77.9429L87.693 78.1492L55.6885 96.6275C54.4979 97.3144 52.6978 97.3888 51.6674 96.795L2.14795 68.2043L0.850509 67.4545C0.393944 67.1895 0.164627 66.8398 0.15625 66.4701V66.4241C0.165674 65.9748 0.498662 65.5026 1.13953 65.1329L36.3065 44.8284L66.1026 62.0312L90.8534 76.3219L90.8555 76.324Z" fill="#FFF7E4"/>
<path d="M53.4117 97.3489C52.729 97.3489 52.0756 97.2107 51.5886 96.93L2.0692 68.3393L0.771761 67.5895C0.283781 67.3068 0.00942449 66.9109 0 66.4743V66.4251C0.0104717 65.9004 0.397923 65.3821 1.06078 64.9988L36.2278 44.6943C36.2801 44.6639 36.344 44.6671 36.3932 44.7006L66.1809 61.8982C66.1809 61.8982 66.1871 61.9024 66.1903 61.9044L90.9327 76.1899C90.9809 76.2182 91.0102 76.2695 91.0102 76.325C91.0102 76.3805 90.9809 76.4318 90.9327 76.4601L55.7658 96.7636C55.0945 97.151 54.2317 97.35 53.4117 97.35V97.3489ZM36.3052 45.0095L1.21577 65.269C0.649254 65.5957 0.319395 66.0188 0.311018 66.4282V66.4711C0.318348 66.7958 0.531971 67.0911 0.9278 67.3204L2.22523 68.0691L51.7446 96.6588C52.7311 97.2274 54.4641 97.1531 55.6097 96.4913L90.5432 76.3229L66.0259 62.1673C66.0259 62.1673 66.0196 62.1631 66.0165 62.161L36.3052 45.0074V45.0095Z" fill="#212121"/>
<path d="M48.5919 79.0504C48.5281 79.1112 48.4495 79.1688 48.3584 79.2222L39.2617 84.4737C38.713 84.79 37.8826 84.8256 37.4072 84.5502L22.1269 75.7288C22.0903 75.7079 22.0578 75.6849 22.0275 75.6618C21.6641 75.3812 21.7541 74.9508 22.261 74.6586L31.3577 69.4071C31.9054 69.0909 32.7358 69.0552 33.2112 69.3307L48.4914 78.153C48.8883 78.3813 48.9124 78.752 48.5919 79.0515V79.0504Z" fill="#E0E7F7"/>
<path d="M38.2156 84.8928C37.8867 84.8928 37.5716 84.8247 37.3307 84.6854L22.0505 75.8641C22.0096 75.8411 21.9698 75.8139 21.9321 75.7835C21.7394 75.6348 21.64 75.4358 21.6536 75.2243C21.6714 74.9594 21.8599 74.7102 22.1845 74.5227L31.2812 69.2712C31.8823 68.9235 32.7651 68.89 33.2907 69.1947L48.571 78.0171C48.8014 78.1501 48.9417 78.3396 48.9668 78.5501C48.9909 78.7627 48.8966 78.9805 48.7008 79.1637C48.6275 79.2329 48.5396 79.2978 48.439 79.3564L39.3423 84.608C39.0156 84.7965 38.6061 84.8928 38.2166 84.8928H38.2156ZM32.409 69.3005C32.0697 69.3005 31.7106 69.3822 31.4352 69.5403L22.3384 74.7918C22.1101 74.9238 21.973 75.0892 21.9625 75.2442C21.9531 75.3782 22.0442 75.4777 22.1217 75.5374C22.1489 75.5584 22.1761 75.5772 22.2033 75.5929L37.4836 84.4142C37.9077 84.6593 38.6857 84.6237 39.1831 84.3378L48.2788 79.0863C48.3584 79.0402 48.4275 78.9899 48.483 78.9365C48.6055 78.8213 48.6652 78.6967 48.6527 78.5836C48.6359 78.4423 48.5123 78.3428 48.4108 78.2852L33.1305 69.4628C32.941 69.3529 32.6802 69.2994 32.4059 69.2994L32.409 69.3005Z" fill="#212121"/>
<path d="M48.5938 79.0504C48.5299 79.1111 48.4514 79.1687 48.3603 79.2221L39.2635 84.4737C38.7148 84.7899 37.8844 84.8255 37.409 84.5501L22.1288 75.7288C22.0921 75.7078 22.0597 75.6848 22.0293 75.6618C22.0932 75.601 22.1717 75.5434 22.2628 75.49L31.3595 70.2385C31.9072 69.9212 32.7376 69.8867 33.213 70.1621L48.4933 78.9834C48.5299 79.0043 48.5634 79.0274 48.5938 79.0504Z" fill="#FFBE2E"/>
<path d="M38.2167 84.8925C37.8879 84.8925 37.5727 84.8244 37.3319 84.6852L22.0516 75.8638C22.0108 75.8408 21.971 75.8136 21.9333 75.7832L21.793 75.6722L21.9228 75.5486C21.9961 75.4795 22.0841 75.4146 22.1857 75.356L31.2824 70.1044C31.8824 69.7568 32.7652 69.7233 33.2919 70.028L48.5721 78.8493C48.6161 78.8744 48.6559 78.9017 48.6915 78.9299L48.8318 79.0409L48.702 79.1645C48.6287 79.2336 48.5407 79.2985 48.4391 79.3582L39.3424 84.6098C39.0157 84.7983 38.6063 84.8946 38.2167 84.8946V84.8925ZM22.3019 75.6481L37.4879 84.415C37.912 84.66 38.69 84.6244 39.1874 84.3385L48.2831 79.087C48.2967 79.0797 48.3093 79.0713 48.3219 79.064L33.1359 70.2971C32.7107 70.051 31.9337 70.0866 31.4384 70.3735L22.3417 75.6251C22.3281 75.6324 22.3155 75.6408 22.3019 75.6492V75.6481Z" fill="#212121"/>
<path d="M25.3616 60.638C25.0684 60.638 24.7752 60.572 24.5469 60.4401L22.1196 59.0379C21.8725 58.8955 21.7363 58.6965 21.7363 58.4777C21.7363 58.2588 21.8725 58.0599 22.1196 57.9174L24.5469 56.5153C25.0035 56.2514 25.7197 56.2514 26.1763 56.5153L28.6036 57.9174C28.8508 58.0599 28.9869 58.2588 28.9869 58.4777C28.9869 58.6965 28.8508 58.8955 28.6036 59.0379L26.1763 60.4401C25.948 60.572 25.6548 60.638 25.3616 60.638ZM25.3616 56.6315C25.1218 56.6315 24.881 56.6828 24.7029 56.7865L22.2756 58.1887C22.1311 58.2724 22.0484 58.3782 22.0484 58.4787C22.0484 58.5793 22.1311 58.6861 22.2756 58.7688L24.7029 60.1709C25.06 60.3772 25.6632 60.3772 26.0203 60.1709L28.4476 58.7688C28.5921 58.685 28.6748 58.5793 28.6748 58.4787C28.6748 58.3782 28.5921 58.2714 28.4476 58.1887L26.0203 56.7865C25.8412 56.6839 25.6014 56.6315 25.3616 56.6315Z" fill="#212121"/>
<path d="M30.6018 63.6644C30.3086 63.6644 30.0154 63.5984 29.7872 63.4664L27.3598 62.0643C27.1127 61.9219 26.9766 61.7229 26.9766 61.5041C26.9766 61.2852 27.1127 61.0862 27.3598 60.9438L29.7872 59.5417C30.2437 59.2778 30.96 59.2778 31.4165 59.5417L33.8439 60.9438C34.091 61.0862 34.2271 61.2852 34.2271 61.5041C34.2271 61.7229 34.091 61.9219 33.8439 62.0643L31.4165 63.4664C31.1883 63.5984 30.8951 63.6644 30.6018 63.6644ZM30.6018 59.6579C30.362 59.6579 30.1212 59.7092 29.9432 59.8129L27.5159 61.215C27.3713 61.2988 27.2886 61.4046 27.2886 61.5051C27.2886 61.6056 27.3713 61.7124 27.5159 61.7952L29.9432 63.1973C30.3003 63.4036 30.9034 63.4036 31.2605 63.1973L33.6878 61.7952C33.8324 61.7114 33.9151 61.6056 33.9151 61.5051C33.9151 61.4046 33.8324 61.2978 33.6878 61.215L31.2605 59.8129C31.0814 59.7103 30.8417 59.6579 30.6018 59.6579Z" fill="#212121"/>
<path d="M56.7812 78.7792C56.488 78.7792 56.1948 78.7132 55.9665 78.5813L32.6001 65.0907C32.3529 64.9482 32.2168 64.7493 32.2168 64.5304C32.2168 64.3116 32.3529 64.1126 32.6001 63.9702L35.0274 62.568C35.484 62.3041 36.2002 62.3041 36.6568 62.568L60.0232 76.0587C60.2704 76.2011 60.4065 76.4 60.4065 76.6189C60.4065 76.8378 60.2704 77.0367 60.0232 77.1791L57.5959 78.5813C57.3676 78.7132 57.0744 78.7792 56.7812 78.7792ZM35.8421 62.6832C35.6023 62.6832 35.3614 62.7345 35.1834 62.8382L32.7561 64.2404C32.6116 64.3241 32.5289 64.4299 32.5289 64.5304C32.5289 64.6309 32.6116 64.7378 32.7561 64.8205L56.1225 78.3111C56.4796 78.5174 57.0828 78.5174 57.4399 78.3111L59.8672 76.909C60.0117 76.8252 60.0945 76.7194 60.0945 76.6189C60.0945 76.5184 60.0117 76.4116 59.8672 76.3288L36.5008 62.8382C36.3217 62.7356 36.0819 62.6832 35.8421 62.6832Z" fill="#212121"/>
<path d="M62.0452 81.8182C61.752 81.8182 61.4588 81.7522 61.2305 81.6203L58.8032 80.2181C58.5561 80.0757 58.4199 79.8767 58.4199 79.6579C58.4199 79.439 58.5561 79.24 58.8032 79.0976L61.2305 77.6955C61.6871 77.4316 62.4033 77.4316 62.8599 77.6955L65.2883 79.0976C65.5354 79.24 65.6715 79.439 65.6715 79.6579C65.6715 79.8767 65.5354 80.0757 65.2883 80.2181L62.861 81.6203C62.6327 81.7522 62.3395 81.8182 62.0463 81.8182H62.0452ZM62.0452 77.8117C61.8054 77.8117 61.5646 77.863 61.3866 77.9667L58.9592 79.3688C58.8147 79.4526 58.732 79.5584 58.732 79.6589C58.732 79.7594 58.8147 79.8662 58.9592 79.949L61.3866 81.3511C61.7436 81.5574 62.3468 81.5574 62.7039 81.3511L65.1312 79.949C65.2757 79.8652 65.3584 79.7594 65.3584 79.6589C65.3584 79.5584 65.2757 79.4516 65.1312 79.3688L62.7028 77.9667C62.5238 77.8641 62.284 77.8117 62.0442 77.8117H62.0452Z" fill="#212121"/>
<path d="M67.2855 84.8443C66.9922 84.8443 66.699 84.7783 66.4708 84.6464L64.0434 83.2442C63.7963 83.1018 63.6602 82.9028 63.6602 82.684C63.6602 82.4651 63.7963 82.2662 64.0434 82.1238L66.4708 80.7216C66.9273 80.4577 67.6436 80.4577 68.1001 80.7216L70.5275 82.1238C70.7746 82.2662 70.9107 82.4651 70.9107 82.684C70.9107 82.9028 70.7746 83.1018 70.5275 83.2442L68.1001 84.6464C67.8718 84.7783 67.5787 84.8443 67.2855 84.8443ZM67.2855 80.8368C67.0457 80.8368 66.8048 80.8881 66.6268 80.9918L64.1994 82.3939C64.0549 82.4777 63.9722 82.5835 63.9722 82.684C63.9722 82.7845 64.0549 82.8913 64.1994 82.9741L66.6268 84.3762C66.9839 84.5825 67.587 84.5825 67.9441 84.3762L70.3715 82.9741C70.516 82.8903 70.5987 82.7845 70.5987 82.684C70.5987 82.5835 70.516 82.4766 70.3715 82.3939L67.9441 80.9918C67.765 80.8891 67.5253 80.8368 67.2855 80.8368Z" fill="#212121"/>
<path d="M30.5393 57.6487C30.2461 57.6487 29.9529 57.5828 29.7247 57.4508L27.2973 56.0487C27.0502 55.9062 26.9141 55.7073 26.9141 55.4884C26.9141 55.2696 27.0502 55.0706 27.2973 54.9282L29.7247 53.526C30.1812 53.2622 30.8975 53.2622 31.354 53.526L33.7814 54.9282C34.0285 55.0706 34.1646 55.2696 34.1646 55.4884C34.1646 55.7073 34.0285 55.9062 33.7814 56.0487L31.354 57.4508C31.1258 57.5828 30.8326 57.6487 30.5393 57.6487ZM30.5393 53.6423C30.2995 53.6423 30.0587 53.6936 29.8807 53.7973L27.4534 55.1994C27.3088 55.2832 27.2261 55.3889 27.2261 55.4895C27.2261 55.59 27.3088 55.6968 27.4534 55.7795L29.8807 57.1817C30.2378 57.388 30.8409 57.388 31.198 57.1817L33.6254 55.7795C33.7699 55.6958 33.8526 55.59 33.8526 55.4895C33.8526 55.3889 33.7699 55.2821 33.6254 55.1994L31.198 53.7973C31.019 53.6946 30.7792 53.6423 30.5393 53.6423Z" fill="#212121"/>
<path d="M35.7815 60.6739C35.4883 60.6739 35.1951 60.6079 34.9668 60.476L32.5395 59.0738C32.2924 58.9314 32.1562 58.7324 32.1562 58.5136C32.1562 58.2947 32.2924 58.0958 32.5395 57.9533L34.9668 56.5512C35.4234 56.2873 36.1397 56.2873 36.5962 56.5512L39.0236 57.9533C39.2707 58.0958 39.4068 58.2947 39.4068 58.5136C39.4068 58.7324 39.2707 58.9314 39.0236 59.0738L36.5962 60.476C36.368 60.6079 36.0747 60.6739 35.7815 60.6739ZM35.7815 56.6674C35.5417 56.6674 35.3009 56.7187 35.1229 56.8224L32.6955 58.2246C32.551 58.3083 32.4683 58.4141 32.4683 58.5146C32.4683 58.6151 32.551 58.722 32.6955 58.8047L35.1229 60.2068C35.4799 60.4131 36.0831 60.4131 36.4402 60.2068L38.8675 58.8047C39.012 58.7209 39.0948 58.6151 39.0948 58.5146C39.0948 58.4141 39.012 58.3073 38.8675 58.2246L36.4402 56.8224C36.2611 56.7198 36.0213 56.6674 35.7815 56.6674Z" fill="#212121"/>
<path d="M41.0198 63.6993C40.7266 63.6993 40.4334 63.6333 40.2051 63.5014L37.7778 62.0992C37.5307 61.9568 37.3945 61.7578 37.3945 61.539C37.3945 61.3201 37.5307 61.1211 37.7778 60.9787L40.2051 59.5766C40.6617 59.3127 41.3779 59.3127 41.8345 59.5766L44.2629 60.9787C44.51 61.1211 44.6462 61.3201 44.6462 61.539C44.6462 61.7578 44.51 61.9568 44.2629 62.0992L41.8356 63.5014C41.6073 63.6333 41.3141 63.6993 41.0209 63.6993H41.0198ZM41.0198 59.6928C40.78 59.6928 40.5392 59.7441 40.3611 59.8478L37.9338 61.2499C37.7893 61.3337 37.7066 61.4395 37.7066 61.54C37.7066 61.6405 37.7893 61.7474 37.9338 61.8301L40.3611 63.2322C40.7182 63.4385 41.3214 63.4385 41.6785 63.2322L44.1058 61.8301C44.2503 61.7463 44.3331 61.6405 44.3331 61.54C44.3331 61.4395 44.2503 61.3327 44.1058 61.2499L41.6785 59.8478C41.4994 59.7452 41.2596 59.6928 41.0198 59.6928Z" fill="#212121"/>
<path d="M46.262 66.7256C45.9688 66.7256 45.6756 66.6597 45.4473 66.5277L43.02 65.1256C42.7729 64.9831 42.6367 64.7842 42.6367 64.5653C42.6367 64.3465 42.7729 64.1475 43.02 64.0051L45.4473 62.6029C45.9039 62.3391 46.6201 62.3391 47.0767 62.6029L49.504 64.0051C49.7512 64.1475 49.8873 64.3465 49.8873 64.5653C49.8873 64.7842 49.7512 64.9831 49.504 65.1256L47.0767 66.5277C46.8484 66.6597 46.5552 66.7256 46.262 66.7256ZM46.262 62.7192C46.0222 62.7192 45.7814 62.7705 45.6033 62.8742L43.176 64.2763C43.0315 64.3601 42.9488 64.4659 42.9488 64.5664C42.9488 64.6669 43.0315 64.7737 43.176 64.8564L45.6033 66.2586C45.9604 66.4649 46.5636 66.4649 46.9207 66.2586L49.348 64.8564C49.4925 64.7727 49.5752 64.6669 49.5752 64.5664C49.5752 64.4659 49.4925 64.359 49.348 64.2763L46.9207 62.8742C46.7416 62.7715 46.5018 62.7192 46.262 62.7192Z" fill="#212121"/>
<path d="M51.5022 69.7508C51.209 69.7508 50.9158 69.6848 50.6875 69.5529L48.2602 68.1507C48.0131 68.0083 47.877 67.8093 47.877 67.5905C47.877 67.3716 48.0131 67.1727 48.2602 67.0302L50.6875 65.6281C51.1441 65.3642 51.8604 65.3642 52.3169 65.6281L54.7443 67.0302C54.9914 67.1727 55.1275 67.3716 55.1275 67.5905C55.1275 67.8093 54.9914 68.0083 54.7443 68.1507L52.3169 69.5529C52.0887 69.6848 51.7954 69.7508 51.5022 69.7508ZM51.5022 65.7443C51.2624 65.7443 51.0216 65.7956 50.8436 65.8993L48.4162 67.3015C48.2717 67.3852 48.189 67.491 48.189 67.5915C48.189 67.6921 48.2717 67.7989 48.4162 67.8816L50.8436 69.2837C51.2007 69.49 51.8038 69.49 52.1609 69.2837L54.5882 67.8816C54.7327 67.7978 54.8155 67.6921 54.8155 67.5915C54.8155 67.491 54.7327 67.3842 54.5882 67.3015L52.1609 65.8993C51.9818 65.7967 51.742 65.7443 51.5022 65.7443Z" fill="#212121"/>
<path d="M56.7425 72.7771C56.4493 72.7771 56.1561 72.7112 55.9278 72.5792L53.5004 71.1771C53.2533 71.0347 53.1172 70.8357 53.1172 70.6168C53.1172 70.398 53.2533 70.199 53.5004 70.0566L55.9278 68.6545C56.3843 68.3906 57.1006 68.3906 57.5572 68.6545L59.9845 70.0566C60.2316 70.199 60.3678 70.398 60.3678 70.6168C60.3678 70.8357 60.2316 71.0347 59.9845 71.1771L57.5572 72.5792C57.3289 72.7112 57.0357 72.7771 56.7425 72.7771ZM56.7425 68.7707C56.5027 68.7707 56.2618 68.822 56.0838 68.9257L53.6565 70.3278C53.512 70.4116 53.4292 70.5174 53.4292 70.6179C53.4292 70.7184 53.512 70.8252 53.6565 70.908L56.0838 72.3101C56.4409 72.5164 57.044 72.5164 57.4011 72.3101L59.8285 70.908C59.973 70.8242 60.0557 70.7184 60.0557 70.6179C60.0557 70.5174 59.973 70.4106 59.8285 70.3278L57.4011 68.9257C57.2221 68.823 56.9823 68.7707 56.7425 68.7707Z" fill="#212121"/>
<path d="M61.9827 75.8023C61.6895 75.8023 61.3963 75.7363 61.168 75.6044L58.7407 74.2022C58.4936 74.0598 58.3574 73.8608 58.3574 73.642C58.3574 73.4231 58.4936 73.2242 58.7407 73.0818L61.168 71.6796C61.6246 71.4157 62.3408 71.4157 62.7974 71.6796L65.2247 73.0818C65.4719 73.2242 65.608 73.4231 65.608 73.642C65.608 73.8608 65.4719 74.0598 65.2247 74.2022L62.7974 75.6044C62.5691 75.7363 62.2759 75.8023 61.9827 75.8023ZM61.9827 71.7958C61.7429 71.7958 61.5021 71.8471 61.3241 71.9508L58.8967 73.353C58.7522 73.4367 58.6695 73.5425 58.6695 73.643C58.6695 73.7436 58.7522 73.8504 58.8967 73.9331L61.3241 75.3353C61.6811 75.5415 62.2843 75.5415 62.6414 75.3353L65.0687 73.9331C65.2132 73.8493 65.296 73.7436 65.296 73.643C65.296 73.5425 65.2132 73.4357 65.0687 73.353L62.6414 71.9508C62.4623 71.8482 62.2225 71.7958 61.9827 71.7958Z" fill="#212121"/>
<path d="M35.719 54.658C35.4258 54.658 35.1326 54.592 34.9043 54.4601L32.477 53.0579C32.2299 52.9155 32.0938 52.7166 32.0938 52.4977C32.0938 52.2789 32.2299 52.0799 32.477 51.9375L34.9043 50.5353C35.3609 50.2714 36.0772 50.2714 36.5337 50.5353L38.9611 51.9375C39.2082 52.0799 39.3443 52.2789 39.3443 52.4977C39.3443 52.7166 39.2082 52.9155 38.9611 53.0579L36.5337 54.4601C36.3054 54.592 36.0122 54.658 35.719 54.658ZM35.719 50.6516C35.4792 50.6516 35.2384 50.7029 35.0604 50.8065L32.633 52.2087C32.4885 52.2925 32.4058 52.3982 32.4058 52.4988C32.4058 52.5993 32.4885 52.7061 32.633 52.7888L35.0604 54.191C35.4174 54.3973 36.0206 54.3973 36.3777 54.191L38.805 52.7888C38.9495 52.705 39.0323 52.5993 39.0323 52.4988C39.0323 52.3982 38.9495 52.2914 38.805 52.2087L36.3777 50.8065C36.1986 50.7039 35.9588 50.6516 35.719 50.6516Z" fill="#212121"/>
<path d="M40.9593 57.6832C40.6661 57.6832 40.3729 57.6172 40.1446 57.4852L37.7173 56.0831C37.4701 55.9407 37.334 55.7417 37.334 55.5229C37.334 55.304 37.4701 55.105 37.7173 54.9626L40.1446 53.5605C40.6012 53.2966 41.3174 53.2966 41.774 53.5605L44.2013 54.9626C44.4484 55.105 44.5846 55.304 44.5846 55.5229C44.5846 55.7417 44.4484 55.9407 44.2013 56.0831L41.774 57.4852C41.5457 57.6172 41.2525 57.6832 40.9593 57.6832ZM40.9593 53.6767C40.7195 53.6767 40.4786 53.728 40.3006 53.8317L37.8733 55.2338C37.7288 55.3176 37.646 55.4234 37.646 55.5239C37.646 55.6244 37.7288 55.7312 37.8733 55.814L40.3006 57.2161C40.6577 57.4224 41.2609 57.4224 41.6179 57.2161L44.0453 55.814C44.1898 55.7302 44.2725 55.6244 44.2725 55.5239C44.2725 55.4234 44.1898 55.3166 44.0453 55.2338L41.6179 53.8317C41.4389 53.7291 41.1991 53.6767 40.9593 53.6767Z" fill="#212121"/>
<path d="M46.2015 60.7095C45.9083 60.7095 45.615 60.6435 45.3868 60.5116L42.9594 59.1094C42.7123 58.967 42.5762 58.7681 42.5762 58.5492C42.5762 58.3304 42.7123 58.1314 42.9594 57.989L45.3868 56.5868C45.8433 56.3229 46.5596 56.3229 47.0162 56.5868L49.4435 57.989C49.6906 58.1314 49.8267 58.3304 49.8267 58.5492C49.8267 58.7681 49.6906 58.967 49.4435 59.1094L47.0162 60.5116C46.7879 60.6435 46.4947 60.7095 46.2015 60.7095ZM46.2015 56.7031C45.9617 56.7031 45.7208 56.7544 45.5428 56.858L43.1155 58.2602C42.971 58.344 42.8882 58.4497 42.8882 58.5503C42.8882 58.6508 42.971 58.7576 43.1155 58.8403L45.5428 60.2425C45.8999 60.4488 46.503 60.4488 46.8601 60.2425L49.2875 58.8403C49.432 58.7566 49.5147 58.6508 49.5147 58.5503C49.5147 58.4497 49.432 58.3429 49.2875 58.2602L46.8601 56.858C46.6811 56.7554 46.4413 56.7031 46.2015 56.7031Z" fill="#212121"/>
<path d="M51.4417 63.7349C51.1485 63.7349 50.8553 63.6689 50.627 63.537L48.1997 62.1348C47.9525 61.9924 47.8164 61.7935 47.8164 61.5746C47.8164 61.3558 47.9525 61.1568 48.1997 61.0144L50.627 59.6122C51.0836 59.3483 51.7998 59.3483 52.2564 59.6122L54.6837 61.0144C54.9308 61.1568 55.067 61.3558 55.067 61.5746C55.067 61.7935 54.9308 61.9924 54.6837 62.1348L52.2564 63.537C52.0281 63.6689 51.7349 63.7349 51.4417 63.7349ZM51.4417 59.7285C51.2019 59.7285 50.961 59.7798 50.783 59.8834L48.3557 61.2856C48.2112 61.3694 48.1285 61.4751 48.1285 61.5757C48.1285 61.6762 48.2112 61.783 48.3557 61.8657L50.783 63.2679C51.1401 63.4742 51.7433 63.4742 52.1004 63.2679L54.5277 61.8657C54.6722 61.7819 54.7549 61.6762 54.7549 61.5757C54.7549 61.4751 54.6722 61.3683 54.5277 61.2856L52.1004 59.8834C51.9213 59.7808 51.6815 59.7285 51.4417 59.7285Z" fill="#212121"/>
<path d="M56.6819 66.761C56.3887 66.761 56.0955 66.6951 55.8672 66.5631L53.4399 65.161C53.1928 65.0186 53.0566 64.8196 53.0566 64.6007C53.0566 64.3819 53.1928 64.1829 53.4399 64.0405L55.8672 62.6383C56.3238 62.3745 57.0401 62.3745 57.4966 62.6383L59.924 64.0405C60.1711 64.1829 60.3072 64.3819 60.3072 64.6007C60.3072 64.8196 60.1711 65.0186 59.924 65.161L57.4966 66.5631C57.2683 66.6951 56.9751 66.761 56.6819 66.761ZM56.6819 62.7535C56.4421 62.7535 56.2013 62.8048 56.0233 62.9085L53.5959 64.3107C53.4514 64.3944 53.3687 64.5002 53.3687 64.6007C53.3687 64.7013 53.4514 64.8081 53.5959 64.8908L56.0233 66.293C56.3804 66.4992 56.9835 66.4992 57.3406 66.293L59.7679 64.8908C59.9124 64.807 59.9952 64.7013 59.9952 64.6007C59.9952 64.5002 59.9124 64.3934 59.7679 64.3107L57.3406 62.9085C57.1615 62.8059 56.9217 62.7535 56.6819 62.7535Z" fill="#212121"/>
<path d="M61.9222 69.7864C61.629 69.7864 61.3357 69.7205 61.1075 69.5885L58.6801 68.1864C58.433 68.0439 58.2969 67.845 58.2969 67.6261C58.2969 67.4073 58.433 67.2083 58.6801 67.0659L61.1075 65.6637C61.564 65.3998 62.2803 65.3998 62.7369 65.6637L65.1642 67.0659C65.4113 67.2083 65.5474 67.4073 65.5474 67.6261C65.5474 67.845 65.4113 68.0439 65.1642 68.1864L62.7369 69.5885C62.5086 69.7205 62.2154 69.7864 61.9222 69.7864ZM61.9222 65.78C61.6824 65.78 61.4415 65.8313 61.2635 65.9349L58.8362 67.3371C58.6917 67.4209 58.6089 67.5266 58.6089 67.6272C58.6089 67.7277 58.6917 67.8345 58.8362 67.9172L61.2635 69.3194C61.6206 69.5257 62.2238 69.5257 62.5808 69.3194L65.0082 67.9172C65.1527 67.8335 65.2354 67.7277 65.2354 67.6272C65.2354 67.5266 65.1527 67.4198 65.0082 67.3371L62.5808 65.9349C62.4018 65.8323 62.162 65.78 61.9222 65.78Z" fill="#212121"/>
<path d="M67.1624 72.8116C66.8692 72.8116 66.576 72.7456 66.3477 72.6137L63.9204 71.2115C63.6732 71.0691 63.5371 70.8701 63.5371 70.6513C63.5371 70.4324 63.6732 70.2334 63.9204 70.091L66.3477 68.6889C66.8043 68.425 67.5205 68.425 67.9771 68.6889L70.4044 70.091C70.6515 70.2334 70.7877 70.4324 70.7877 70.6513C70.7877 70.8701 70.6515 71.0691 70.4044 71.2115L67.9771 72.6137C67.7488 72.7456 67.4556 72.8116 67.1624 72.8116ZM67.1624 68.8051C66.9226 68.8051 66.6817 68.8564 66.5037 68.9601L64.0764 70.3622C63.9319 70.446 63.8492 70.5518 63.8492 70.6523C63.8492 70.7528 63.9319 70.8597 64.0764 70.9424L66.5037 72.3445C66.8608 72.5508 67.464 72.5508 67.8211 72.3445L70.2484 70.9424C70.3929 70.8586 70.4756 70.7528 70.4756 70.6523C70.4756 70.5518 70.3929 70.445 70.2484 70.3622L67.8211 68.9601C67.642 68.8575 67.4022 68.8051 67.1624 68.8051Z" fill="#212121"/>
<path d="M72.4026 75.8379C72.1094 75.8379 71.8162 75.772 71.5879 75.64L69.1606 74.2379C68.9135 74.0955 68.7773 73.8965 68.7773 73.6776C68.7773 73.4588 68.9135 73.2598 69.1606 73.1174L71.5879 71.7152C72.0445 71.4514 72.7608 71.4514 73.2173 71.7152L75.6446 73.1174C75.8918 73.2598 76.0279 73.4588 76.0279 73.6776C76.0279 73.8965 75.8918 74.0955 75.6446 74.2379L73.2173 75.64C72.989 75.772 72.6958 75.8379 72.4026 75.8379ZM72.4026 71.8315C72.1628 71.8315 71.922 71.8828 71.7439 71.9865L69.3166 73.3886C69.1721 73.4724 69.0894 73.5782 69.0894 73.6787C69.0894 73.7792 69.1721 73.886 69.3166 73.9688L71.7439 75.3709C72.101 75.5772 72.7042 75.5772 73.0613 75.3709L75.4886 73.9688C75.6331 73.885 75.7159 73.7792 75.7159 73.6787C75.7159 73.5782 75.6331 73.4713 75.4886 73.3886L73.0613 71.9865C72.8822 71.8838 72.6424 71.8315 72.4026 71.8315Z" fill="#212121"/>
<path d="M72.464 81.8539C72.1708 81.8539 71.8776 81.788 71.6493 81.656L63.9809 77.2286C63.7338 77.0862 63.5977 76.8872 63.5977 76.6684C63.5977 76.4495 63.7338 76.2505 63.9809 76.1081L66.4083 74.706C66.8648 74.4421 67.5811 74.4421 68.0377 74.706L71.8054 76.8809C72.1624 77.0872 72.7656 77.0872 73.1227 76.8809L76.8286 74.7416C77.2852 74.4777 78.0014 74.4777 78.458 74.7416L80.8853 76.1437C81.1325 76.2861 81.2686 76.4851 81.2686 76.704C81.2686 76.9228 81.1325 77.1218 80.8853 77.2642L73.2777 81.656C73.0494 81.788 72.7562 81.8539 72.463 81.8539H72.464ZM67.223 74.8212C66.9832 74.8212 66.7423 74.8725 66.5643 74.9761L64.137 76.3783C63.9925 76.4621 63.9097 76.5678 63.9097 76.6684C63.9097 76.7689 63.9925 76.8757 64.137 76.9584L71.8054 81.3858C72.1624 81.5921 72.7656 81.5921 73.1227 81.3858L80.7303 76.994C80.8749 76.9103 80.9576 76.8045 80.9576 76.704C80.9576 76.6034 80.8749 76.4966 80.7303 76.4139L78.303 75.0117C77.9459 74.8055 77.3428 74.8055 76.9857 75.0117L73.2798 77.1511C72.8232 77.415 72.108 77.415 71.6504 77.1511L67.8827 74.9761C67.7036 74.8735 67.4638 74.8212 67.224 74.8212H67.223Z" fill="#212121"/>
<path d="M99.9763 35.9769L99.3658 38.6785L96.4316 51.6561L90.8554 76.3252L66.1047 62.0356L36.3086 44.8327L38.1443 36.7088L40.9287 24.39L45.4284 4.48544C45.5488 3.95139 45.8221 3.55346 46.1771 3.32832L46.2766 3.26968C46.7122 3.0393 47.2567 3.05292 47.7918 3.36183L48.5217 3.78279L98.6076 32.7003C99.638 33.2951 100.251 34.7621 99.9763 35.9779V35.9769Z" fill="#FFF7E4"/>
<path d="M90.8577 76.4802C90.8305 76.4802 90.8043 76.4729 90.7802 76.4593L66.0294 62.1697C66.0294 62.1697 66.0231 62.1655 66.02 62.1634L36.2323 44.9658C36.1737 44.9312 36.1433 44.8632 36.158 44.7961L45.2777 4.44885C45.4023 3.8949 45.6924 3.44986 46.0945 3.19435L46.1992 3.13361C46.7029 2.86763 47.3103 2.90219 47.8705 3.22576L48.6004 3.64673L98.6863 32.5642C99.7691 33.1894 100.417 34.736 100.129 36.0115L91.0095 76.3588C90.9991 76.4069 90.9656 76.4467 90.9205 76.4666C90.9006 76.475 90.8797 76.4792 90.8577 76.4792V76.4802ZM66.1928 61.9047L90.7519 76.0844L96.281 51.6216L99.8256 35.9434C100.085 34.7915 99.5042 33.3967 98.5303 32.8344L47.7145 3.49593C47.2422 3.22262 46.7574 3.19121 46.35 3.40588L46.2558 3.46033C45.9291 3.66767 45.6872 4.04465 45.5814 4.51692L36.4868 44.7532L66.1833 61.8985C66.1833 61.8985 66.1896 61.9026 66.1928 61.9047Z" fill="#212121"/>
<path d="M91.3358 32.4887C91.3358 32.4887 90.4237 40.5099 88.8362 46.8139C88.1932 49.3679 87.0257 57.1923 87.0257 57.1923C84.1501 71.128 87.0016 68.9248 72.7632 76.6424L49.9832 88.1822C49.9832 88.1822 31.3175 77.2393 22.4218 73.2559C17.0258 70.839 9.69141 64.7403 9.69141 64.7403L32.684 53.4246C39.9179 49.2485 45.0783 42.2409 46.9202 34.0929L52.2692 10.4312L91.3347 32.4887H91.3358Z" fill="#E0E6F9"/>
<path d="M91.1201 31.9225L88.1084 45.499C84.8643 60.1237 75.6314 72.7148 62.6581 80.2052L49.8178 87.6191L9.69141 64.4673L26.0492 55.3423C36.9575 48.341 44.8395 38.0023 47.6198 24.2918L51.1152 8.82617L91.1201 31.9235V31.9225Z" fill="#FFF7E4"/>
<path d="M49.8165 87.7741C49.7893 87.7741 49.7631 87.7668 49.739 87.7532L9.61267 64.6014C9.5645 64.5731 9.53414 64.5218 9.53518 64.4653C9.53518 64.4087 9.5666 64.3574 9.61477 64.3302L25.9725 55.2052C31.5361 51.6343 36.1761 47.2708 39.7543 42.2413C43.5262 36.9405 46.1211 30.89 47.4656 24.2593L50.9621 8.7906C50.9726 8.74243 51.0061 8.70264 51.0511 8.68274C51.0961 8.66284 51.1485 8.66598 51.1914 8.69007L91.1963 31.7874C91.2549 31.8209 91.2853 31.89 91.2706 31.956L88.259 45.5325C86.6401 52.8323 83.5771 59.5897 79.156 65.6192C74.7349 71.6488 69.21 76.6009 62.7343 80.3392L49.894 87.7532C49.8699 87.7668 49.8427 87.7741 49.8165 87.7741ZM10.0054 64.4684L49.8165 87.438L62.5794 80.0691C69.0163 76.3527 74.5097 71.4289 78.9057 65.4339C83.3017 59.4399 86.3458 52.7202 87.9564 45.4634L90.9429 31.9989L51.2197 9.06495L47.7703 24.3243C46.4174 30.9947 43.8058 37.084 40.0077 42.4214C36.4065 47.4834 31.7372 51.8741 26.1317 55.4711L10.0054 64.4674V64.4684Z" fill="#212121"/>
<path d="M39.7113 76.6603C38.9353 76.2122 38.7353 75.6226 38.8243 75.3566C38.8411 75.3064 38.9311 75.2728 39.0254 75.2823C39.1196 75.2917 39.1824 75.3399 39.1657 75.3891C39.0756 75.6582 39.3646 76.3577 40.4369 76.7535C41.0401 76.9766 41.9878 77.1368 43.4371 76.9871C43.3617 76.3242 44.0392 75.3786 45.3869 74.3021C46.3587 73.5251 47.9514 73.3115 49.1001 73.4455C49.9557 73.545 50.5358 73.8246 50.6499 74.1943C50.7641 74.5629 50.4908 75.3273 47.3817 76.3085C45.9764 76.7514 44.8005 77.0059 43.8193 77.1316C43.8476 77.2122 43.8926 77.2865 43.9523 77.3536C44.1659 77.5913 44.5806 77.7284 45.1858 77.7588C45.2738 77.763 45.3565 77.7672 45.4361 77.7693C45.5052 77.7065 45.5984 77.6478 45.7146 77.5944C46.1367 77.4017 46.8205 77.318 47.0278 77.3672C47.1796 77.4038 47.3011 77.5263 47.2393 77.652C47.1618 77.808 46.8163 77.9787 45.6602 77.9609C45.6214 78.0384 45.6267 78.1222 45.6759 78.2164C45.8455 78.54 46.5388 78.6657 46.8288 78.7044C46.943 78.7201 47.0529 78.7306 47.1545 78.7369C47.1618 78.7034 47.1744 78.6719 47.1911 78.6437C47.2875 78.4835 47.6079 78.4353 47.8603 78.4719C48.1242 78.5096 48.2718 78.6269 48.2195 78.7557C48.1765 78.8625 47.9263 78.9254 47.5137 78.9316C47.5367 78.9934 47.5807 79.0552 47.6519 79.1055C47.7441 79.1704 47.8655 79.1997 48.0216 79.1976C48.1064 79.1955 48.1954 79.1945 48.2854 79.1934C48.3881 79.1924 48.5294 79.1903 48.6739 79.1861C48.6865 79.1631 48.6991 79.1421 48.7127 79.1243C48.7996 79.0039 49.0164 78.8835 49.2614 78.8898C49.342 78.8918 49.5399 78.9128 49.6258 79.0667C49.6687 79.1432 49.6237 79.1987 49.5787 79.2322C49.475 79.3086 49.2656 79.3432 48.9661 79.361C48.9525 79.4406 48.9661 79.5243 49.0373 79.5819C49.1054 79.6364 49.2216 79.6636 49.3954 79.6667C49.8688 79.6751 50.0049 79.65 50.2112 79.6102C50.3264 79.5882 50.4562 79.5641 50.6604 79.539C51.1233 79.4835 51.3704 79.5568 51.495 79.627C51.6971 79.7411 51.6992 79.916 51.6322 80.0406C51.5798 80.1359 51.627 80.2039 51.7809 80.2553C52.0626 80.3485 52.5233 80.3296 52.6217 80.2814C52.6919 80.2469 52.8019 80.249 52.8668 80.2867C52.9317 80.3244 52.9275 80.383 52.8574 80.4176C52.6092 80.539 51.9746 80.5359 51.5987 80.4123C51.3128 80.3181 51.2039 80.1631 51.2992 79.9893C51.3379 79.9181 51.3474 79.8144 51.2447 79.7558C51.2447 79.7558 51.2437 79.7558 51.2426 79.7558C51.1285 79.6908 50.9054 79.7013 50.7379 79.7212C50.5546 79.7432 50.4353 79.7662 50.3295 79.7861C50.1033 79.8291 49.9253 79.8626 49.386 79.8531C49.0247 79.8469 48.8404 79.7579 48.7493 79.6856C48.6352 79.5945 48.6059 79.4814 48.6163 79.3756C48.5158 79.3777 48.409 79.3798 48.2959 79.3809C48.2069 79.3819 48.12 79.383 48.0362 79.3851C47.766 79.3903 47.5388 79.3338 47.3765 79.2207C47.2561 79.1358 47.187 79.0311 47.1597 78.9274C46.4529 78.8877 45.5691 78.7013 45.3419 78.2698C45.2832 78.1588 45.2727 78.0531 45.3083 77.9557C45.2581 77.9536 45.2068 77.9515 45.1534 77.9484C44.4277 77.9107 43.9041 77.7347 43.6381 77.4384C43.5669 77.3588 43.5135 77.2708 43.479 77.1755C41.926 77.3337 40.8987 77.1546 40.239 76.9117C40.039 76.8373 39.8631 76.7546 39.7102 76.6666L39.7113 76.6603ZM50.0059 73.9C49.7808 73.7702 49.4436 73.6728 49.0279 73.6246C47.9943 73.5052 46.5576 73.699 45.6769 74.4037C44.4046 75.4215 43.7366 76.3305 43.7816 76.9462C44.7177 76.8237 45.8466 76.5766 47.2037 76.1483C50.2457 75.188 50.3871 74.4812 50.3075 74.2225C50.2698 74.1011 50.1661 73.9922 50.0059 73.9ZM47.8613 78.673C47.8373 78.6594 47.8006 78.652 47.7734 78.6479C47.6959 78.6363 47.5587 78.6405 47.5242 78.6981C47.5158 78.7117 47.5095 78.7274 47.5042 78.7442C47.7022 78.7411 47.8393 78.7233 47.8833 78.7055C47.8844 78.6918 47.8749 78.6814 47.8603 78.673H47.8613ZM46.8833 77.5368C46.7377 77.5316 46.1764 77.5975 45.8592 77.7766C46.7178 77.7735 46.8718 77.6468 46.8959 77.6164C46.9241 77.5808 46.9 77.5494 46.8833 77.5368ZM49.2562 79.0741C49.2562 79.0741 49.2509 79.072 49.2499 79.0709C49.2237 79.0667 49.1211 79.0992 49.0572 79.1641C49.1755 79.1547 49.2666 79.14 49.2949 79.1201C49.2949 79.1191 49.2949 79.117 49.2928 79.1149C49.2792 79.0908 49.2645 79.0782 49.2562 79.0741Z" fill="#212121"/>
<path d="M68.6914 38.3939L81.3715 45.7272C81.6826 44.6507 81.9611 43.5606 82.2061 42.46L84.1361 33.7602L71.3962 26.3923L69.0789 36.6462C68.9595 37.2357 68.8296 37.818 68.6914 38.3939Z" fill="#FFBE2E"/>
<path d="M81.3722 45.883C81.345 45.883 81.3177 45.8757 81.2947 45.8621L68.6146 38.5288C68.5549 38.4942 68.5256 38.4251 68.5413 38.3581C68.6816 37.7706 68.8115 37.1842 68.9277 36.6156L71.2461 26.3586C71.2566 26.3105 71.2901 26.2696 71.3351 26.2508C71.3802 26.2309 71.4325 26.234 71.4755 26.2591L84.2153 33.627C84.2739 33.6605 84.3043 33.7296 84.2896 33.7956L82.3597 42.4954C82.1178 43.5855 81.8361 44.6882 81.523 45.772C81.5094 45.8181 81.4759 45.8558 81.4319 45.8736C81.413 45.8809 81.3931 45.8851 81.3732 45.8851L81.3722 45.883ZM68.8691 38.3162L81.2769 45.4924C81.567 44.4756 81.8277 43.4452 82.0539 42.4253L83.9587 33.8364L71.5006 26.6319L69.2293 36.6795C69.1214 37.2125 68.9999 37.7633 68.8691 38.3162Z" fill="#212121"/>
<path d="M62.4639 52.3933L46.6904 43.283C44.5898 46.5574 42.3845 49.6864 39.5645 52.3378L55.1327 61.3267C57.9275 58.6595 60.3905 55.6824 62.4639 52.3933Z" fill="#FFBE2E"/>
<path d="M55.1332 61.4827C55.107 61.4827 55.0798 61.4753 55.0557 61.4617L39.4875 52.4728C39.4446 52.4477 39.4163 52.4048 39.4111 52.3556C39.4058 52.3063 39.4236 52.2582 39.4592 52.2247C42.3662 49.4916 44.5903 46.2715 46.5611 43.1991C46.6061 43.129 46.6983 43.107 46.7705 43.1489L62.544 52.2592C62.5806 52.2802 62.6068 52.3158 62.6173 52.3566C62.6278 52.3974 62.6204 52.4414 62.5974 52.477C60.5565 55.7149 58.081 58.7307 55.2421 61.4397C55.2128 61.468 55.174 61.4827 55.1342 61.4827H55.1332ZM39.8236 52.3074L55.1102 61.1329C57.8558 58.4993 60.2559 55.5787 62.2466 52.4467L46.7423 43.4923C44.8155 46.4904 42.6416 49.6204 39.8236 52.3074Z" fill="#212121"/>
<path d="M84.5525 81.8979C84.4991 81.8979 84.4467 81.8696 84.4174 81.8204C84.3745 81.746 84.3996 81.6508 84.474 81.6078L87.9736 79.5878C88.0479 79.5449 88.1432 79.57 88.1862 79.6444C88.2291 79.7187 88.204 79.814 88.1296 79.857L84.63 81.8769C84.6059 81.8916 84.5787 81.8979 84.5525 81.8979Z" fill="#212121"/>
<path d="M79.451 84.8437C79.3975 84.8437 79.3452 84.8154 79.3159 84.7662C79.2729 84.6918 79.2981 84.5966 79.3724 84.5536L82.872 82.5336C82.9464 82.4907 83.0417 82.5158 83.0846 82.5902C83.1275 82.6645 83.1024 82.7598 83.0281 82.8028L79.5284 84.8227C79.5044 84.8374 79.4771 84.8437 79.451 84.8437Z" fill="#212121"/>
<path d="M32.9881 70.178C32.9619 70.178 32.9347 70.1718 32.9106 70.1571L22.7384 64.294C22.6641 64.2511 22.6379 64.1558 22.6808 64.0815C22.7238 64.0071 22.8191 63.9809 22.8934 64.0239L33.0656 69.8869C33.1399 69.9299 33.1661 70.0252 33.1232 70.0995C33.0939 70.1498 33.0415 70.177 32.9881 70.177V70.178Z" fill="#212121"/>
<path d="M34.7843 68.8628C34.7581 68.8628 34.7309 68.8565 34.7068 68.8418L24.7326 63.1138C24.6582 63.0709 24.632 62.9756 24.675 62.9013C24.7179 62.8269 24.8132 62.8007 24.8876 62.8437L34.8618 68.5717C34.9362 68.6146 34.9623 68.7099 34.9194 68.7842C34.8911 68.8345 34.8377 68.8628 34.7843 68.8628Z" fill="#212121"/>
<path d="M38.0156 65.1654C37.9895 65.1654 37.9622 65.1591 37.9382 65.1444L29.5587 60.3275C29.4844 60.2845 29.4582 60.1892 29.5012 60.1149C29.5441 60.0405 29.6394 60.0144 29.7137 60.0573L38.0931 64.8743C38.1675 64.9172 38.1937 65.0125 38.1507 65.0868C38.1225 65.1371 38.0691 65.1654 38.0156 65.1654Z" fill="#212121"/>
<path d="M49.3311 71.6986C49.3049 71.6986 49.2777 71.6923 49.2536 71.6777L39.515 66.0554C39.4406 66.0125 39.4155 65.9172 39.4584 65.8429C39.5014 65.7685 39.5967 65.7434 39.671 65.7863L49.4097 71.4086C49.484 71.4515 49.5091 71.5468 49.4662 71.6211C49.4369 71.6714 49.3845 71.6986 49.3311 71.6986Z" fill="#212121"/>
<path d="M35.1635 60.739C35.1373 60.739 35.1101 60.7327 35.086 60.7181L31.8314 58.8384C31.7571 58.7955 31.7319 58.7002 31.7748 58.6258C31.8178 58.5515 31.9131 58.5264 31.9874 58.5693L35.242 60.4489C35.3164 60.4919 35.3415 60.5872 35.2986 60.6615C35.2692 60.7118 35.2169 60.739 35.1635 60.739Z" fill="#212121"/>
<path d="M47.6309 67.936C47.6047 67.936 47.5775 67.9297 47.5534 67.915L37.088 61.898C37.0137 61.8551 36.9875 61.7598 37.0304 61.6855C37.0734 61.6111 37.1687 61.5849 37.243 61.6279L47.7084 67.6449C47.7827 67.6878 47.8089 67.7831 47.766 67.8574C47.7377 67.9077 47.6843 67.936 47.6309 67.936Z" fill="#212121"/>
<path d="M49.7753 66.3727C49.7492 66.3727 49.7219 66.3664 49.6968 66.3517L42.2494 62.0259C42.175 61.983 42.1499 61.8877 42.1928 61.8133C42.2358 61.739 42.331 61.7139 42.4054 61.7568L49.8528 66.0826C49.9272 66.1256 49.9523 66.2208 49.9094 66.2952C49.8801 66.3444 49.8288 66.3727 49.7743 66.3727H49.7753Z" fill="#212121"/>
<path d="M40.3942 60.9566C40.368 60.9566 40.3408 60.9503 40.3167 60.9357L33.9877 57.2664C33.9133 57.2235 33.8882 57.1282 33.9311 57.0538C33.974 56.9795 34.0693 56.9543 34.1437 56.9973L40.4728 60.6665C40.5471 60.7095 40.5722 60.8048 40.5293 60.8791C40.5 60.9294 40.4487 60.9566 40.3942 60.9566Z" fill="#212121"/>
<path d="M48.1334 62.6249C48.1072 62.6249 48.08 62.6186 48.0559 62.604L36.0209 55.6236C35.9465 55.5806 35.9214 55.4853 35.9643 55.411C36.0072 55.3366 36.1025 55.3115 36.1769 55.3544L48.2119 62.3349C48.2863 62.3778 48.3114 62.4731 48.2685 62.5474C48.2392 62.5977 48.1879 62.6249 48.1334 62.6249Z" fill="#212121"/>
<path d="M60.4978 75.3648C60.4716 75.3648 60.4444 75.3585 60.4203 75.3438L49.5392 69.087C49.4649 69.0441 49.4387 68.9488 49.4816 68.8744C49.5245 68.8001 49.6198 68.7739 49.6942 68.8168L60.5753 75.0736C60.6496 75.1166 60.6758 75.2119 60.6329 75.2862C60.6046 75.3365 60.5512 75.3648 60.4978 75.3648Z" fill="#212121"/>
<path d="M62.6279 73.798C62.6017 73.798 62.5745 73.7917 62.5504 73.7771L52.4369 67.9339C52.3625 67.8909 52.3374 67.7956 52.3803 67.7213C52.4233 67.6469 52.5185 67.6218 52.5929 67.6647L62.7064 73.5079C62.7808 73.5509 62.8059 73.6462 62.763 73.7205C62.7336 73.7708 62.6813 73.798 62.6279 73.798Z" fill="#212121"/>
<path d="M64.6442 72.1582C64.618 72.1582 64.5908 72.1519 64.5667 72.1373L50.3724 63.9422C50.2981 63.8992 50.2729 63.8039 50.3159 63.7296C50.3588 63.6552 50.4541 63.6301 50.5284 63.673L64.7228 71.8682C64.7971 71.9111 64.8222 72.0064 64.7793 72.0807C64.75 72.131 64.6987 72.1582 64.6442 72.1582Z" fill="#212121"/>
<path d="M65.4632 66.1097C65.437 66.1097 65.4098 66.1034 65.3857 66.0887L57.4252 61.4927C57.3508 61.4498 57.3257 61.3545 57.3686 61.2801C57.4115 61.2058 57.5068 61.1806 57.5812 61.2236L65.5417 65.8196C65.6161 65.8625 65.6412 65.9578 65.5983 66.0322C65.569 66.0824 65.5166 66.1097 65.4632 66.1097Z" fill="#212121"/>
<path d="M63.4976 62.2122C63.4714 62.2122 63.4442 62.2059 63.4201 62.1913L59.0912 59.6917C59.0168 59.6487 58.9917 59.5535 59.0346 59.4791C59.0776 59.4048 59.1728 59.3796 59.2472 59.4226L63.5762 61.9221C63.6505 61.9651 63.6756 62.0604 63.6327 62.1347C63.6034 62.185 63.551 62.2122 63.4976 62.2122Z" fill="#212121"/>
<path d="M70.5229 66.2691C70.4967 66.2691 70.4695 66.2628 70.4454 66.2482L64.3802 62.7454C64.3059 62.7025 64.2807 62.6072 64.3237 62.5328C64.3666 62.4585 64.4619 62.4333 64.5363 62.4763L70.6014 65.979C70.6758 66.022 70.7009 66.1173 70.658 66.1916C70.6287 66.2419 70.5763 66.2691 70.5229 66.2691Z" fill="#212121"/>
<path d="M66.5996 61.2027C66.5734 61.2027 66.5462 61.1965 66.5221 61.1818L60.7103 57.8267C60.636 57.7838 60.6108 57.6885 60.6538 57.6141C60.6967 57.5398 60.792 57.5146 60.8663 57.5576L66.6781 60.9127C66.7525 60.9556 66.7776 61.0509 66.7347 61.1253C66.7053 61.1755 66.653 61.2027 66.5996 61.2027Z" fill="#212121"/>
<path d="M69.3698 62.8029C69.3436 62.8029 69.3164 62.7966 69.2923 62.7819L67.2943 61.628C67.2199 61.585 67.1948 61.4897 67.2377 61.4154C67.2807 61.341 67.376 61.3159 67.4503 61.3588L69.4483 62.5128C69.5227 62.5557 69.5478 62.651 69.5049 62.7254C69.4755 62.7757 69.4242 62.8029 69.3698 62.8029Z" fill="#212121"/>
<path d="M72.0867 64.3715C72.0605 64.3715 72.0333 64.3652 72.0092 64.3506L70.1107 63.2542C70.0363 63.2112 70.0112 63.116 70.0541 63.0416C70.0971 62.9673 70.1924 62.9421 70.2667 62.9851L72.1652 64.0814C72.2396 64.1244 72.2647 64.2197 72.2218 64.294C72.1925 64.3443 72.1411 64.3715 72.0867 64.3715Z" fill="#212121"/>
<path d="M73.543 62.4112C73.5168 62.4112 73.4896 62.4049 73.4655 62.3902L65.7123 57.9136C65.6379 57.8707 65.6128 57.7754 65.6557 57.701C65.6986 57.6267 65.7939 57.6015 65.8683 57.6445L73.6215 62.1211C73.6959 62.164 73.721 62.2593 73.678 62.3337C73.6487 62.384 73.5964 62.4112 73.543 62.4112Z" fill="#212121"/>
<path d="M64.5825 57.2392C64.5563 57.2392 64.5291 57.2329 64.505 57.2183L62.1908 55.8821C62.1164 55.8392 62.0913 55.7439 62.1342 55.6695C62.1772 55.5952 62.2724 55.5701 62.3468 55.613L64.661 56.9492C64.7354 56.9921 64.7605 57.0874 64.7176 57.1617C64.6883 57.212 64.6359 57.2392 64.5825 57.2392Z" fill="#212121"/>
<path d="M70.3864 57.7869C70.3602 57.7869 70.333 57.7806 70.3089 57.766L63.5662 53.8758C63.4919 53.8328 63.4657 53.7375 63.5097 53.6632C63.5526 53.5888 63.6479 53.5637 63.7223 53.6066L70.465 57.4969C70.5393 57.5398 70.5644 57.6351 70.5215 57.7094C70.4922 57.7597 70.4398 57.7869 70.3864 57.7869Z" fill="#212121"/>
<path d="M74.901 60.3955C74.8749 60.3955 74.8476 60.3892 74.8235 60.3745L71.5365 58.4771C71.4621 58.4341 71.437 58.3389 71.4799 58.2645C71.5229 58.1902 71.6182 58.165 71.6925 58.208L74.9796 60.1054C75.0539 60.1484 75.0791 60.2436 75.0361 60.318C75.0068 60.3683 74.9544 60.3955 74.901 60.3955Z" fill="#212121"/>
<path d="M76.5581 57.634C76.532 57.634 76.5047 57.6277 76.4807 57.613L70.7181 54.2862C70.6438 54.2432 70.6186 54.1479 70.6616 54.0736C70.7045 53.9992 70.7998 53.9741 70.8742 54.017L76.6367 57.3439C76.711 57.3868 76.7362 57.4821 76.6932 57.5565C76.6639 57.6067 76.6116 57.634 76.5581 57.634Z" fill="#212121"/>
<path d="M77.6951 55.4894C77.669 55.4894 77.6417 55.4831 77.6177 55.4685L68.1869 50.0232C68.1125 49.9803 68.0874 49.885 68.1303 49.8106C68.1733 49.7363 68.2685 49.7112 68.3429 49.7541L77.7737 55.1994C77.848 55.2423 77.8732 55.3376 77.8302 55.4119C77.8009 55.4622 77.7485 55.4894 77.6951 55.4894Z" fill="#212121"/>
<path d="M78.7382 53.2894C78.712 53.2894 78.6847 53.2831 78.6607 53.2685L76.0365 51.7532C75.9621 51.7103 75.937 51.615 75.9799 51.5406C76.0229 51.4663 76.1181 51.4411 76.1925 51.4841L78.8167 52.9993C78.891 53.0423 78.9162 53.1376 78.8732 53.2119C78.8439 53.2622 78.7916 53.2894 78.7382 53.2894Z" fill="#212121"/>
<path d="M68.6406 53.0622C68.6144 53.0622 68.5872 53.0559 68.5631 53.0413L60.2162 48.2222C60.1418 48.1793 60.1167 48.084 60.1596 48.0096C60.2026 47.9353 60.2978 47.9101 60.3722 47.9531L68.7192 52.7721C68.7935 52.8151 68.8186 52.9104 68.7757 52.9847C68.7464 53.035 68.6951 53.0622 68.6406 53.0622Z" fill="#212121"/>
<path d="M57.9407 46.9194C57.9114 46.9194 57.881 46.9121 57.8538 46.8964L47.9602 41.1674C47.8774 41.1192 47.8481 41.0124 47.8963 40.9296C47.9445 40.8469 48.0513 40.8176 48.134 40.8658L58.0276 46.5948C58.1103 46.643 58.1397 46.7498 58.0915 46.8325C58.059 46.888 58.0004 46.9194 57.9407 46.9194Z" fill="#212121"/>
<path d="M64.2725 44.956C64.2431 44.956 64.2128 44.9487 64.1855 44.933L50.1535 36.8321C50.0708 36.784 50.0415 36.6771 50.0896 36.5944C50.1378 36.5106 50.2446 36.4824 50.3274 36.5305L64.3594 44.6314C64.4421 44.6796 64.4714 44.7864 64.4233 44.8691C64.3908 44.9246 64.3322 44.956 64.2725 44.956Z" fill="#212121"/>
<path d="M66.5854 49.0933C66.5561 49.0933 66.5257 49.086 66.4985 49.0702L58.7202 44.579C58.6364 44.5308 58.6081 44.424 58.6563 44.3412C58.7044 44.2575 58.8113 44.2292 58.894 44.2774L66.6723 48.7687C66.7551 48.8168 66.7844 48.9236 66.7362 49.0064C66.7038 49.0619 66.6451 49.0933 66.5854 49.0933Z" fill="#212121"/>
<path d="M57.1459 43.6428C57.1166 43.6428 57.0862 43.6355 57.059 43.6198L49.1047 39.0279C49.022 38.9798 48.9926 38.8729 49.0408 38.7902C49.089 38.7065 49.1958 38.6782 49.2785 38.7263L57.2328 43.3182C57.3155 43.3663 57.3448 43.4731 57.2967 43.5559C57.2642 43.6114 57.2056 43.6428 57.1459 43.6428Z" fill="#212121"/>
<path d="M74.4008 50.8044C74.3715 50.8044 74.3411 50.7971 74.3139 50.7814L67.1262 46.6314C67.0435 46.5833 67.0141 46.4765 67.0623 46.3937C67.1105 46.31 67.2173 46.2817 67.3 46.3299L74.4877 50.4798C74.5705 50.528 74.5998 50.6348 74.5516 50.7175C74.5192 50.773 74.4605 50.8044 74.4008 50.8044Z" fill="#212121"/>
<path d="M79.6807 51.0536C79.6514 51.0536 79.621 51.0463 79.5938 51.0306L74.8312 48.2797C74.7485 48.2315 74.7192 48.1247 74.7674 48.0419C74.8156 47.9592 74.9224 47.9299 75.0051 47.9781L79.7676 50.729C79.8503 50.7771 79.8796 50.884 79.8315 50.9667C79.799 51.0222 79.7404 51.0536 79.6807 51.0536Z" fill="#212121"/>
<path d="M80.5233 48.7466C80.4939 48.7466 80.4636 48.7393 80.4363 48.7236L71.7805 43.7181C71.6978 43.67 71.6684 43.5632 71.7166 43.4804C71.7648 43.3977 71.8716 43.3684 71.9543 43.4165L80.6102 48.422C80.6929 48.4702 80.7222 48.577 80.6741 48.6597C80.6416 48.7152 80.583 48.7466 80.5233 48.7466Z" fill="#212121"/>
<path d="M72.4077 46.8535C72.3784 46.8535 72.348 46.8461 72.3208 46.8304L61.5695 40.6239C61.4868 40.5757 61.4575 40.4689 61.5057 40.3862C61.5538 40.3024 61.6606 40.2741 61.7434 40.3223L72.4946 46.5288C72.5774 46.577 72.6067 46.6838 72.5585 46.7666C72.526 46.8221 72.4674 46.8535 72.4077 46.8535Z" fill="#212121"/>
<path d="M59.2412 39.251C59.2119 39.251 59.1815 39.2437 59.1543 39.228L51.1047 34.5807C51.022 34.5325 50.9926 34.4257 51.0408 34.343C51.089 34.2592 51.1958 34.2309 51.2785 34.2791L59.3281 38.9264C59.4108 38.9746 59.4401 39.0814 59.392 39.1641C59.3595 39.2196 59.3009 39.251 59.2412 39.251Z" fill="#212121"/>
<path d="M69.0459 42.1109C69.0165 42.1109 68.9862 42.1036 68.959 42.0879L51.9582 32.2728C51.8755 32.2246 51.8462 32.1178 51.8943 32.0351C51.9425 31.9513 52.0493 31.9231 52.132 31.9712L69.1328 41.7863C69.2155 41.8345 69.2448 41.9413 69.1967 42.024C69.1642 42.0795 69.1055 42.1109 69.0459 42.1109Z" fill="#212121"/>
<g style="mix-blend-mode:multiply" opacity="0.5">
<path d="M62.113 12.9185L72.2401 21.5848C73.4161 22.5912 74.0413 24.2268 73.747 25.5274L70.4149 40.2694C68.6662 48.0038 56.652 49.1295 54.2415 47.7388C51.8319 46.3472 43.041 33.2094 44.7887 25.475L48.1208 10.733C48.415 9.43247 49.5501 8.81359 50.856 9.24084L62.1109 12.9195L62.113 12.9185Z" fill="#E0E7F7"/>
</g>
<path d="M66.5601 24.1971C66.3203 23.3792 65.825 22.5844 65.1443 22.0022L55.0172 13.3359L43.7623 9.65719C43.0156 9.4132 42.3266 9.51163 41.8166 9.88233L39.7265 11.1483L40.9936 11.296L37.695 25.8914C36.8395 29.6769 38.5086 34.7557 40.7171 39.1181C43.0219 43.6712 45.9163 47.4452 47.1467 48.1552C48.5269 48.9521 53.0559 48.9228 57.0037 47.2997L56.5712 47.7698L58.8048 46.4158C60.9704 45.153 62.7306 43.2963 63.3202 40.6858L66.6523 25.9438C66.7758 25.3971 66.735 24.7908 66.5612 24.1971H66.5601Z" fill="#E9A91C"/>
<path d="M50.1286 48.84C48.7672 48.84 47.6562 48.6515 47.0583 48.306C45.7713 47.5625 42.8529 43.7257 40.5606 39.1967C38.9972 36.1096 36.5248 30.2717 37.5238 25.8526L40.7805 11.4457L39.7051 11.3211C39.6307 11.3127 39.571 11.2583 39.5553 11.185C39.5396 11.1127 39.5721 11.0373 39.6349 10.9996L41.7251 9.73256C41.7251 9.73256 41.7292 9.73046 41.7313 9.72942C42.302 9.32312 43.0413 9.23934 43.8152 9.49171L55.0701 13.1704C55.0921 13.1777 55.112 13.1893 55.1288 13.2039L65.2559 21.8703C65.946 22.4609 66.4675 23.2693 66.7251 24.1489C66.9136 24.7898 66.946 25.4243 66.8193 25.9835L63.4873 40.7255C62.9427 43.1361 61.4013 45.0985 58.9069 46.5572C58.9028 46.5603 58.8975 46.5635 58.8933 46.5666L56.6597 47.9206C56.5854 47.9656 56.4901 47.9489 56.4346 47.8819C56.3958 47.8347 56.3864 47.7729 56.4032 47.7185C54.7508 48.3164 52.9004 48.7007 51.1202 48.8096C50.7778 48.8306 50.4459 48.8411 50.1275 48.8411L50.1286 48.84ZM40.2486 11.0331L41.0119 11.1221C41.0611 11.1274 41.1051 11.1546 41.1334 11.1944C41.1617 11.2342 41.1722 11.2855 41.1617 11.3337L37.8631 25.9291C36.8882 30.2423 39.3291 35.9944 40.8706 39.0396C41.9272 41.1266 43.2068 43.2345 44.4739 44.9749C45.6038 46.5268 46.6342 47.6588 47.2321 48.0044C48.5201 48.7479 52.9412 48.7803 56.9362 47.1384C57.0116 47.1069 57.0985 47.1331 57.1456 47.2001C57.1488 47.2043 57.1509 47.2085 57.154 47.2127L58.6965 46.2776C58.7027 46.2734 58.708 46.2692 58.7153 46.265C61.1332 44.8555 62.6244 42.9654 63.149 40.647L66.4811 25.905C66.5942 25.4034 66.5638 24.8295 66.3921 24.2452C66.1533 23.4305 65.6696 22.6797 65.0297 22.1331L54.9288 13.4887L43.7063 9.82052C43.033 9.60062 42.3984 9.67182 41.9177 10.0216C41.9083 10.0289 41.8978 10.0341 41.8874 10.0394L40.2486 11.0331Z" fill="#212121"/>
<path d="M52.8962 14.6233L63.0233 23.2897C64.1993 24.296 64.8245 25.9317 64.5302 27.2322L61.1981 41.9742C59.4494 49.7086 47.4352 50.8343 45.0247 49.4437C42.6151 48.052 33.8242 34.9142 35.5719 27.1799L38.904 12.4379C39.1982 11.1373 40.3334 10.5184 41.6392 10.9457L52.8941 14.6244L52.8962 14.6233Z" fill="#FFF7E4"/>
<path d="M48.0502 50.1298C46.6397 50.1298 45.5161 49.9277 44.9391 49.5947C43.4008 48.7067 40.4122 44.3149 38.5859 40.7702C36.9597 37.6151 34.3847 31.6494 35.4036 27.1414L38.7357 12.3994C38.8865 11.7344 39.2572 11.2045 39.7808 10.9071C40.3242 10.5993 41.0038 10.5532 41.695 10.7794L52.9499 14.4581C52.9719 14.4654 52.9918 14.4769 53.0085 14.4916L63.1357 23.1579C64.3661 24.2103 65.0091 25.9015 64.6991 27.2712L61.367 42.0132C60.5513 45.6207 57.6066 47.5914 55.2798 48.6093C52.7939 49.6973 50.1131 50.1298 48.0481 50.1298H48.0502ZM40.8405 10.9867C40.5169 10.9867 40.2143 11.0621 39.9514 11.2108C39.5074 11.4632 39.2038 11.9009 39.0739 12.4768L35.7418 27.2188C34.747 31.6201 37.2895 37.4989 38.8938 40.6121C41.1284 44.9484 43.9129 48.602 45.1119 49.2941C46.4397 50.0607 51.1174 50.0523 55.1416 48.292C57.3951 47.3066 60.2455 45.4039 61.0288 41.9378L64.3609 27.1958C64.6384 25.9675 64.0289 24.381 62.9106 23.4239L52.8096 14.7796L41.5871 11.1113C41.3327 11.0286 41.0813 10.9867 40.8415 10.9867H40.8405Z" fill="#FFF7E4"/>
<path d="M63.0235 23.2908L52.8963 14.6245L41.6414 10.9458C40.3345 10.5186 39.1994 11.1385 38.9062 12.438L35.5741 27.18C33.8253 34.9144 42.6163 48.0532 45.0269 49.4438C47.4364 50.8355 59.4516 49.7098 61.2003 41.9744L64.5324 27.2324C64.8267 25.9318 64.2005 24.2961 63.0256 23.2898L63.0235 23.2908ZM60.483 41.5618C59.5385 45.7389 55.3854 47.5861 52.9947 48.315C49.5506 49.3653 46.1285 49.2543 45.1902 48.7129C44.252 48.1715 41.5754 44.7609 39.347 40.435C37.7993 37.4318 35.3437 31.7687 36.2883 27.5915L39.6204 12.8496C39.8382 11.8841 40.6686 11.4306 41.6393 11.7479L52.7267 15.3711L62.703 23.9087C63.5764 24.6553 64.0329 25.8522 63.8151 26.8177L60.483 41.5597V41.5618Z" fill="#FFBE2E"/>
<path d="M48.0502 50.1298C46.6397 50.1298 45.5161 49.9277 44.9391 49.5947C43.4008 48.7067 40.4122 44.3149 38.5859 40.7702C36.9597 37.6151 34.3847 31.6494 35.4036 27.1414L38.7357 12.3994C38.8865 11.7344 39.2572 11.2045 39.7808 10.9071C40.3242 10.5993 41.0038 10.5532 41.695 10.7794L52.9499 14.4581C52.9719 14.4654 52.9918 14.4769 53.0085 14.4916L63.1357 23.1579C64.3661 24.2103 65.0091 25.9015 64.6991 27.2712L61.367 42.0132C60.5513 45.6207 57.6066 47.5914 55.2798 48.6093C52.7939 49.6973 50.1131 50.1298 48.0492 50.1298H48.0502ZM40.8405 10.9867C40.5169 10.9867 40.2143 11.0621 39.9514 11.2108C39.5074 11.4632 39.2038 11.9009 39.0739 12.4768L35.7418 27.2188C34.747 31.6201 37.2895 37.4989 38.8938 40.6121C41.1284 44.9484 43.9129 48.602 45.1119 49.2941C46.4397 50.0607 51.1174 50.0523 55.1416 48.292C57.3951 47.3066 60.2455 45.4029 61.0288 41.9378L64.3609 27.1958C64.6384 25.9675 64.0289 24.381 62.9106 23.4239L52.8096 14.7796L41.5871 11.1113C41.3327 11.0286 41.0813 10.9867 40.8415 10.9867H40.8405ZM47.7727 49.29C46.5549 49.29 45.5737 49.135 45.1035 48.8638C44.5914 48.5685 43.6605 47.5339 42.6123 46.0961C41.4154 44.4531 40.2007 42.4719 39.1922 40.5157C37.6341 37.4915 35.1617 31.7855 36.1178 27.5539L39.4498 12.8119C39.564 12.3051 39.8457 11.903 40.2415 11.6779C40.652 11.4454 41.1672 11.4119 41.6918 11.5836L52.7792 15.2068C52.8012 15.2141 52.8211 15.2257 52.8379 15.2403L62.8142 23.7779C63.7347 24.5653 64.2153 25.8313 63.9828 26.8576L60.6508 41.5996C59.6874 45.8626 55.4704 47.7412 53.0431 48.4815C51.4776 48.959 49.7414 49.2439 48.1549 49.2847C48.024 49.2879 47.8963 49.29 47.7706 49.29H47.7727ZM41.0426 11.8245C40.8133 11.8245 40.5986 11.8768 40.4143 11.9815C40.1001 12.1595 39.8844 12.4737 39.7902 12.8894L36.4581 27.6314C35.5261 31.7552 37.965 37.3743 39.5022 40.3566C41.7159 44.6531 44.3579 48.0323 45.2773 48.5632C46.1873 49.0889 49.5445 49.1852 52.9436 48.1496C55.2987 47.4312 59.3889 45.6154 60.3136 41.5242L63.6457 26.7822C63.8499 25.8764 63.4163 24.7507 62.5901 24.0438L52.6399 15.5283L41.585 11.9156C41.3997 11.8548 41.2164 11.8245 41.0426 11.8245Z" fill="#212121"/>
<path d="M50.824 23.7956C46.807 21.4772 42.7995 22.9222 41.8728 27.025C40.945 31.1278 43.4498 36.3333 47.4668 38.6517C51.4837 40.9701 55.4912 39.5251 56.4179 35.4223C57.3457 31.3195 54.8409 26.114 50.824 23.7956Z" fill="#FFBE2E"/>
<path d="M51.2642 39.9284C50.0097 39.9284 48.6704 39.5483 47.3782 38.8017C43.3068 36.4508 40.7601 31.15 41.7015 26.9855C42.1319 25.0817 43.2367 23.6534 44.8127 22.9633C46.5908 22.1852 48.8128 22.4334 50.9093 23.6439C54.9806 25.9948 57.5274 31.2956 56.586 35.4602C56.1556 37.3639 55.0508 38.7922 53.4748 39.4823C52.7921 39.7808 52.0444 39.9284 51.2632 39.9284H51.2642ZM47.0253 22.867C46.2923 22.867 45.5918 23.0052 44.953 23.2837C43.4807 23.9277 42.4471 25.2702 42.0419 27.0629C41.1319 31.0903 43.6042 36.2215 47.5531 38.5011C49.5521 39.6551 51.6601 39.897 53.3366 39.164C54.8089 38.52 55.8425 37.1775 56.2477 35.3837C57.1577 31.3563 54.6853 26.2263 50.7365 23.9455C49.4987 23.2303 48.218 22.8659 47.0253 22.8659V22.867Z" fill="#212121"/>
<path d="M47.4625 33.7022C47.139 33.7022 46.8311 33.5189 46.6834 33.2121L45.0331 29.7816C44.8258 29.3512 45.0069 28.835 45.4373 28.6276C45.8677 28.4213 46.384 28.6014 46.5913 29.0318L47.9034 31.7587L52.6795 30.0361C53.1288 29.8738 53.6241 30.1062 53.7864 30.5555C53.9487 31.0047 53.7152 31.5 53.267 31.6623L47.7568 33.6498C47.6605 33.6844 47.561 33.7011 47.4636 33.7011L47.4625 33.7022Z" fill="#212121"/>
<path d="M47.4613 33.8759C47.0644 33.8759 46.6968 33.6445 46.5251 33.2874L44.8748 29.8569C44.7543 29.6066 44.7386 29.325 44.8308 29.0632C44.9229 28.8014 45.1104 28.5909 45.3606 28.4705C45.8769 28.2223 46.4989 28.4401 46.7471 28.9564L47.9911 31.5418L52.6196 29.8726C53.1589 29.6789 53.7547 29.9585 53.9495 30.4967C54.1443 31.035 53.8636 31.6319 53.3254 31.8266L47.8152 33.8142C47.7011 33.855 47.5827 33.8759 47.4623 33.8759H47.4613ZM45.8099 28.7165C45.7094 28.7165 45.6078 28.7385 45.5114 28.7846C45.3449 28.8642 45.2203 29.0045 45.1596 29.1783C45.0989 29.3522 45.1093 29.5396 45.1889 29.7061L46.8392 33.1366C46.9534 33.3743 47.1984 33.5283 47.4613 33.5283C47.5408 33.5283 47.6194 33.5147 47.6958 33.4874L53.206 31.4999C53.5641 31.3711 53.7505 30.9742 53.6217 30.6161C53.4929 30.258 53.0961 30.0716 52.7379 30.2014L47.9618 31.924C47.878 31.9544 47.7848 31.9167 47.7461 31.8361L46.434 29.1092C46.3157 28.8621 46.0675 28.7186 45.8109 28.7186L45.8099 28.7165Z" fill="#212121"/>
<path d="M53.4013 80.5637C53.3689 80.5815 53.3249 80.5784 53.2767 80.5501C53.1783 80.4936 53.0977 80.3543 53.0977 80.2402C53.0977 80.1888 53.1144 80.1522 53.1416 80.1312L54.4454 79.0537L55.0035 79.9134L53.4003 80.5627L53.4013 80.5637Z" fill="#212121"/>
<path d="M53.3561 80.7303C53.3037 80.7303 53.2503 80.7156 53.198 80.6853C53.0514 80.6005 52.9414 80.4099 52.9414 80.2402C52.9414 80.147 52.9749 80.0675 53.0367 80.0161C53.0388 80.0151 53.0398 80.013 53.0419 80.012L54.3457 78.9355C54.3802 78.9072 54.4242 78.8946 54.4682 78.902C54.5122 78.9082 54.5509 78.9334 54.575 78.9711L55.1331 79.8308C55.1583 79.8695 55.1645 79.9177 55.1509 79.9627C55.1373 80.0067 55.1038 80.0434 55.0609 80.0601L53.4639 80.7073C53.4304 80.724 53.3927 80.7324 53.355 80.7324L53.3561 80.7303ZM53.2545 80.2402C53.2576 80.3052 53.3048 80.3858 53.354 80.4151L54.7708 79.8402L54.4106 79.2852L53.2545 80.2402Z" fill="#212121"/>
<path d="M55.4976 80.1756C55.3772 80.229 55.218 80.2133 55.0442 80.1128C54.6662 79.895 54.3594 79.3641 54.3594 78.9274C54.3594 78.7483 54.4117 78.6132 54.4986 78.5305L59.125 73.7471L61.8843 78.5818L55.4966 80.1746L55.4976 80.1756Z" fill="#CA9218"/>
<path d="M55.3496 80.361C55.2282 80.361 55.0973 80.3222 54.9674 80.2469C54.5402 79.9997 54.2051 79.4196 54.2051 78.9264C54.2051 78.7096 54.27 78.5326 54.3936 78.4164L59.0147 73.6382C59.0482 73.6026 59.0974 73.5858 59.1456 73.5921C59.1938 73.5984 59.2367 73.6267 59.2618 73.6696L62.0211 78.5044C62.0452 78.5463 62.0484 78.5976 62.0295 78.6426C62.0107 78.6876 61.9709 78.7211 61.9237 78.7326L55.5486 80.3222C55.4868 80.3474 55.4208 80.3599 55.3507 80.3599L55.3496 80.361ZM59.0933 74.0047L54.6114 78.6384C54.5475 78.6991 54.515 78.7997 54.515 78.9264C54.515 79.3065 54.7925 79.7871 55.1213 79.9777C55.2439 80.0479 55.3549 80.0678 55.4334 80.0332C55.4418 80.029 55.4502 80.0269 55.4585 80.0249L61.6462 78.4813L59.0912 74.0047H59.0933Z" fill="#212121"/>
<path d="M64.0636 77.3521L62.2216 78.4339L62.2195 78.4307C61.8541 78.6862 61.3284 78.6779 60.7409 78.3386C59.6383 77.7019 58.7461 76.1552 58.7461 74.8819C58.7461 74.2127 58.9943 73.7551 59.3891 73.5614V73.5593L61.2624 72.4587C60.9294 72.6786 60.7315 73.1226 60.7315 73.7321C60.7315 75.0044 61.6248 76.5521 62.7274 77.1888C63.2468 77.4883 63.7118 77.5239 64.0657 77.3521H64.0636Z" fill="#FFBE2E"/>
<path d="M61.6287 78.7638C61.3282 78.7638 60.9973 78.6664 60.6622 78.4727C59.5197 77.813 58.5898 76.2024 58.5898 74.882C58.5898 74.194 58.8464 73.6683 59.2935 73.4348C59.2977 73.4317 59.303 73.4285 59.3082 73.4254L61.1826 72.3248C61.2559 72.2819 61.3491 72.3049 61.3931 72.3772C61.4381 72.4484 61.4172 72.5426 61.347 72.5897C61.0496 72.7866 60.8852 73.1929 60.8852 73.7332C60.8852 74.9542 61.746 76.4443 62.8036 77.0548C63.2508 77.3135 63.6738 77.369 63.9953 77.213C64.0707 77.1763 64.1607 77.2056 64.2005 77.2789C64.2403 77.3522 64.2142 77.4444 64.1419 77.4863L62.2999 78.568C62.2926 78.5722 62.2853 78.5753 62.278 78.5785C62.0884 78.702 61.8675 78.7638 61.6287 78.7638ZM59.4883 73.6809C59.4789 73.6893 59.4684 73.6955 59.4569 73.7018C59.0988 73.8767 58.9019 74.2966 58.9019 74.882C58.9019 76.103 59.7616 77.5931 60.8193 78.2036C61.325 78.4957 61.8036 78.5324 62.1314 78.3031C62.1439 78.2936 62.1586 78.2874 62.1732 78.2821L63.3534 77.5889C63.1272 77.5512 62.8895 77.4622 62.6497 77.324C61.5062 76.6642 60.5763 75.0527 60.5763 73.7332C60.5763 73.4484 60.6172 73.1918 60.6967 72.973L59.4904 73.6809H59.4883Z" fill="#212121"/>
<path d="M88.7809 62.8425L65.0805 76.7551C65.0805 76.7551 65.0773 76.7572 65.0752 76.7583L64.9548 76.8284C64.9548 76.8284 64.9496 76.8316 64.9475 76.8326C64.5935 77.0054 64.1275 76.9698 63.6092 76.6703C62.5065 76.0336 61.6133 74.4859 61.6133 73.2125C61.6133 72.6094 61.807 72.1664 62.1358 71.9455L62.2468 71.8806L86.0332 57.926L88.7809 62.8425Z" fill="#FFBE2E"/>
<path d="M64.4832 77.0911C64.1858 77.0911 63.8612 76.9948 63.5324 76.8052C62.3889 76.1455 61.459 74.5339 61.459 73.2135C61.459 72.5694 61.6684 72.0741 62.0496 71.8176L62.169 71.7474L85.9564 57.7929C85.992 57.7719 86.036 57.7657 86.0758 57.7772C86.1166 57.7877 86.1501 57.8149 86.171 57.8515L88.9188 62.768C88.9596 62.8423 88.9345 62.9355 88.8612 62.9785L65.1607 76.8911C65.1597 76.8911 65.1576 76.8932 65.1555 76.8942L65.0351 76.9644C65.0277 76.9686 65.0214 76.9728 65.0152 76.9749C64.8539 77.0534 64.6748 77.0932 64.4853 77.0932L64.4832 77.0911ZM85.9763 58.1406L62.2161 72.0804C61.9313 72.2721 61.771 72.6763 61.771 73.2135C61.771 74.4355 62.6318 75.9256 63.6895 76.5361C64.1345 76.7927 64.5555 76.8492 64.8769 76.6953L64.9974 76.6241C64.9984 76.6241 65.0005 76.622 65.0016 76.622L88.5712 62.7868L85.9752 58.1416L85.9763 58.1406Z" fill="#212121"/>
<path d="M84.7374 58.9358C84.7374 60.5851 85.8955 62.5915 87.3239 63.4166C88.0579 63.8407 88.7198 63.869 89.191 63.5737C89.2109 63.5611 89.2308 63.5486 89.2507 63.535L101.3 55.6048L98.4029 50.7773L85.6275 57.1954C85.0819 57.4289 84.7363 58.0363 84.7363 58.9358H84.7374Z" fill="#FFBE2E"/>
<path d="M88.4776 63.9267C88.0965 63.9267 87.6786 63.801 87.2451 63.5508C85.7759 62.7026 84.5801 60.6323 84.5801 58.9359C84.5801 58.0887 84.8785 57.4426 85.4063 57.1337L85.4157 57.1285C85.4586 57.1034 85.5026 57.0814 85.5477 57.0615L85.5571 57.0562L98.4613 50.5732L101.511 55.652L89.3363 63.6649C89.3206 63.6764 89.3017 63.689 89.2818 63.7016L89.2735 63.7068C89.0379 63.8544 88.7687 63.9277 88.4787 63.9277L88.4776 63.9267ZM85.8472 57.2583L85.8524 57.2678L85.6869 57.339C85.1812 57.5547 84.8911 58.1369 84.8911 58.9359C84.8911 60.5328 86.0168 62.4827 87.4001 63.2816C88.0567 63.6607 88.6609 63.7183 89.1028 63.444L89.107 63.4419C89.1248 63.4303 89.1426 63.4199 89.1593 63.4073L101.089 55.5557L98.3419 50.9806L85.8472 57.2583Z" fill="#212121"/>
<path d="M64.0655 77.507C64.0069 77.507 63.9514 77.4746 63.9252 77.418C63.8886 77.3405 63.921 77.2474 63.9985 77.2107C64.0373 77.1929 64.0739 77.1709 64.1085 77.1468C64.1786 77.0976 64.276 77.1144 64.3252 77.1856C64.3745 77.2557 64.3577 77.3531 64.2865 77.4023C64.2383 77.4358 64.186 77.4662 64.1326 77.4924C64.1106 77.5029 64.0886 77.5081 64.0655 77.5081V77.507Z" fill="#212121"/>
<path d="M61.2618 72.6158C61.2126 72.6158 61.1634 72.5917 61.133 72.5487C61.0838 72.4775 61.1026 72.3812 61.1728 72.332C61.2105 72.3058 61.2503 72.2828 61.2943 72.2608C61.3718 72.222 61.465 72.2534 61.5027 72.3299C61.5414 72.4063 61.51 72.5006 61.4335 72.5383C61.4021 72.554 61.3749 72.5697 61.3498 72.5875C61.3226 72.6063 61.2922 72.6147 61.2618 72.6147V72.6158Z" fill="#212121"/>
<path d="M64.9495 76.9877C64.8908 76.9877 64.8353 76.9552 64.8081 76.8987C64.7725 76.8233 64.8018 76.7343 64.8741 76.6955C64.8783 76.6924 64.8835 76.6903 64.8877 76.6882C64.9212 76.6725 64.9536 76.6537 64.9851 76.6306C64.9882 76.6285 64.9924 76.6254 64.9966 76.6233C65.0008 76.6201 65.006 76.617 65.0102 76.616C65.0877 76.5772 65.1809 76.6086 65.2186 76.6861C65.2553 76.7594 65.228 76.8484 65.1589 76.8893C65.117 76.9186 65.072 76.9448 65.028 76.9668C65.0228 76.9699 65.0175 76.973 65.0123 76.9751C64.9913 76.9846 64.9694 76.9887 64.9484 76.9887L64.9495 76.9877Z" fill="#212121"/>
<path d="M62.1384 72.1016C62.0892 72.1016 62.041 72.0786 62.0106 72.0356C61.9614 71.9655 61.9782 71.8681 62.0483 71.8189C62.0892 71.7895 62.1342 71.7634 62.1813 71.7403C62.2588 71.7026 62.352 71.7351 62.3897 71.8126C62.4274 71.8901 62.395 71.9833 62.3175 72.021C62.2861 72.0367 62.2557 72.0545 62.2285 72.0733C62.2012 72.0922 62.1698 72.1016 62.1384 72.1016Z" fill="#212121"/>
<path d="M83.8706 60.6793L94.5569 54.589C95.159 54.2465 95.8103 54.2287 95.9852 54.567L96.4575 55.4832C96.6313 55.8215 96.2397 56.343 95.6114 56.6341L84.4528 61.8081C84.2685 61.893 84.0507 61.8197 83.9606 61.6458L83.7177 61.1746C83.6276 61.0008 83.6946 60.7798 83.8706 60.6793Z" fill="#CA9218"/>
<path d="M84.2897 61.9996C84.098 61.9996 83.9148 61.8959 83.8226 61.7168L83.5797 61.2456C83.4498 60.9943 83.5441 60.6864 83.7944 60.544L94.4807 54.4537C94.9247 54.2003 95.4116 54.106 95.7509 54.2065C95.9237 54.2579 96.0525 54.3573 96.1237 54.4956L96.596 55.4118C96.6672 55.5501 96.6734 55.7134 96.6159 55.8831C96.5007 56.2181 96.1415 56.5595 95.6776 56.7742L84.519 61.9482C84.4446 61.9828 84.3672 61.9996 84.2907 61.9996H84.2897ZM95.4514 54.4778C95.2106 54.4778 94.9121 54.5657 94.6336 54.7238L83.9472 60.8142C83.8446 60.8728 83.8038 61.0016 83.8551 61.1021L84.098 61.5734C84.1504 61.6739 84.2792 61.7158 84.386 61.6655L95.5446 56.4915C95.9279 56.3134 96.2326 56.0349 96.3195 55.7815C96.3499 55.6914 96.3499 55.615 96.3174 55.5532L95.8452 54.6369C95.8137 54.5751 95.7509 54.5301 95.6609 54.5029C95.5991 54.484 95.5279 54.4757 95.4514 54.4757V54.4778Z" fill="#212121"/>
<path d="M97.7637 52.0967C97.7637 50.8244 98.6569 50.3081 99.7596 50.9448C100.862 51.5815 101.755 53.1282 101.755 54.4015C101.755 55.6738 100.862 56.1901 99.7596 55.5534C98.6569 54.9167 97.7637 53.3701 97.7637 52.0967Z" fill="#CA9218"/>
<path d="M97.7656 52.0967C97.7656 50.8244 98.6589 50.3081 99.7615 50.9448C100.864 51.5815 101.757 53.1282 101.757 54.4015C101.757 55.6738 100.864 56.1901 99.7615 55.5534C98.6589 54.9167 97.7656 53.3701 97.7656 52.0967Z" fill="#CA9218"/>
<path d="M100.652 55.9828C100.352 55.9828 100.022 55.8843 99.6828 55.6885C98.5393 55.0288 97.6094 53.4172 97.6094 52.0967C97.6094 51.4234 97.845 50.9166 98.2712 50.6705C98.6984 50.4234 99.2545 50.4736 99.8377 50.8098C100.981 51.4695 101.911 53.0811 101.911 54.4015C101.911 55.0749 101.676 55.5817 101.248 55.8288C101.069 55.9325 100.868 55.9838 100.651 55.9838L100.652 55.9828ZM98.8702 50.8276C98.7068 50.8276 98.5581 50.8653 98.4272 50.9406C98.1005 51.1291 97.9204 51.5407 97.9204 52.0978C97.9204 53.3188 98.7812 54.8089 99.8377 55.4194C100.32 55.6979 100.767 55.7482 101.093 55.5587C101.42 55.3702 101.6 54.9586 101.6 54.4015C101.6 53.1805 100.739 51.6904 99.6828 51.0799C99.3927 50.9124 99.1152 50.8276 98.8702 50.8276Z" fill="#212121"/>
<path d="M64.9495 76.8327L64.1966 77.2746L64.0647 77.351C63.7107 77.5249 63.2458 77.4893 62.7264 77.1887C61.6237 76.552 60.7305 75.0054 60.7305 73.732C60.7305 73.1226 60.9284 72.6786 61.2614 72.4587L61.364 72.399L62.1368 71.9456C61.8091 72.1665 61.6143 72.6095 61.6143 73.2126C61.6143 74.4849 62.5075 76.0337 63.6102 76.6704C64.1285 76.9688 64.5945 77.0044 64.9485 76.8327H64.9495Z" fill="#CA9218"/>
<path d="M63.5995 77.6109C63.301 77.6109 62.9775 77.5145 62.6476 77.3239C61.5041 76.6642 60.5742 75.0526 60.5742 73.7332C60.5742 73.084 60.7878 72.5855 61.1753 72.33L62.0581 71.8117C62.1303 71.7687 62.2235 71.7918 62.2685 71.863C62.3136 71.9342 62.2937 72.0284 62.2235 72.0745C61.9313 72.2714 61.7701 72.6756 61.7701 73.2128C61.7701 74.4348 62.6309 75.9249 63.6885 76.5354C64.1356 76.793 64.5587 76.8485 64.8802 76.6925C64.9556 76.6558 65.0456 76.6852 65.0854 76.7585C65.1252 76.8318 65.099 76.9239 65.0268 76.9658L64.1482 77.481C64.1419 77.4852 64.1367 77.4883 64.1304 77.4915C63.9681 77.5711 63.788 77.6098 63.5984 77.6098L63.5995 77.6109ZM61.5795 72.4536L61.3407 72.5939C61.0507 72.7855 60.8863 73.1918 60.8863 73.7332C60.8863 74.9542 61.747 76.4443 62.8047 77.0548C63.2476 77.3103 63.6676 77.3679 63.988 77.2171L64.2383 77.0705C64.0121 77.0328 63.7744 76.9438 63.5346 76.8056C62.3911 76.1459 61.4612 74.5343 61.4612 73.2138C61.4612 72.929 61.502 72.6735 61.5805 72.4546L61.5795 72.4536Z" fill="#212121"/>
<path d="M67.1624 75.5343L66.4095 75.9762L66.2775 76.0527C65.9236 76.2265 65.4586 76.1909 64.9393 75.8904C63.8366 75.2537 62.9434 73.707 62.9434 72.4337C62.9434 71.8242 63.1413 71.3802 63.4743 71.1603L63.5769 71.1006L64.3497 70.6472C64.0219 70.8682 63.8272 71.3111 63.8272 71.9143C63.8272 73.1866 64.7204 74.7354 65.8231 75.372C66.3414 75.6705 66.8074 75.7061 67.1613 75.5343H67.1624Z" fill="#CA9218"/>
<path d="M65.8124 76.3135C65.5139 76.3135 65.1903 76.2172 64.8605 76.0266C63.717 75.3669 62.7871 73.7553 62.7871 72.4358C62.7871 71.7866 63.0007 71.2881 63.3882 71.0326L64.2709 70.5143C64.3432 70.4714 64.4364 70.4944 64.4814 70.5656C64.5265 70.6368 64.5066 70.7311 64.4364 70.7771C64.1442 70.974 63.983 71.3782 63.983 71.9154C63.983 73.1374 64.8438 74.6276 65.9014 75.2381C66.3485 75.4957 66.7716 75.5512 67.0931 75.3951C67.1685 75.3585 67.2585 75.3878 67.2983 75.4611C67.3381 75.5344 67.3119 75.6265 67.2396 75.6684L66.3611 76.1836C66.3548 76.1878 66.3496 76.191 66.3433 76.1941C66.181 76.2737 66.0009 76.3124 65.8113 76.3124L65.8124 76.3135ZM63.7924 71.1562L63.5536 71.2965C63.2636 71.4882 63.0992 71.8945 63.0992 72.4358C63.0992 73.6568 63.9599 75.147 65.0176 75.7574C65.4605 76.013 65.8804 76.0705 66.2009 75.9198L66.4512 75.7732C66.225 75.7355 65.9872 75.6464 65.7474 75.5082C64.6039 74.8485 63.6741 73.2369 63.6741 71.9164C63.6741 71.6316 63.7149 71.3761 63.7934 71.1573L63.7924 71.1562Z" fill="#212121"/>
<path d="M69.3714 74.2372L68.6185 74.6791L68.4865 74.7556C68.1326 74.9294 67.6676 74.8938 67.1482 74.5933C66.0456 73.9566 65.1523 72.4099 65.1523 71.1366C65.1523 70.5271 65.3503 70.0831 65.6833 69.8632L65.7859 69.8035L66.5587 69.3501C66.2309 69.571 66.0361 70.014 66.0361 70.6172C66.0361 71.8895 66.9294 73.4382 68.032 74.0749C68.5504 74.3734 69.0164 74.409 69.3703 74.2372H69.3714Z" fill="#CA9218"/>
<path d="M68.0213 75.0152C67.7229 75.0152 67.3993 74.9188 67.0695 74.7282C65.926 74.0685 64.9961 72.4569 64.9961 71.1375C64.9961 70.4883 65.2097 69.9898 65.5972 69.7343L66.4799 69.2159C66.5522 69.173 66.6454 69.1961 66.6904 69.2673C66.7354 69.3385 66.7155 69.4327 66.6454 69.4788C66.3532 69.6757 66.1919 70.0799 66.1919 70.6171C66.1919 71.8391 67.0527 73.3292 68.1104 73.9397C68.5575 74.1973 68.9806 74.2528 69.3021 74.0968C69.3774 74.0601 69.4675 74.0895 69.5073 74.1628C69.5471 74.2361 69.5209 74.3282 69.4486 74.3701L68.5701 74.8853C68.5638 74.8895 68.5585 74.8926 68.5523 74.8958C68.39 74.9754 68.2099 75.0141 68.0203 75.0141L68.0213 75.0152ZM66.0014 69.8579L65.7626 69.9982C65.4726 70.1898 65.3081 70.5961 65.3081 71.1375C65.3081 72.3585 66.1689 73.8486 67.2266 74.4591C67.6695 74.7146 68.0894 74.7722 68.4099 74.6214L68.6601 74.4748C68.4339 74.4371 68.1962 74.3481 67.9564 74.2099C66.8129 73.5502 65.883 71.9386 65.883 70.6181C65.883 70.3333 65.9239 70.0778 66.0024 69.8589L66.0014 69.8579Z" fill="#212121"/>
</svg>
