<svg width="104" height="100" viewBox="0 0 104 100" fill="none" xmlns="http://www.w3.org/2000/svg">
<path d="M53.7914 2.26997C53.3867 2.03514 52.832 2.06516 52.2125 2.4249L5.78614 29.2332C5.14148 29.603 4.56692 30.2526 4.16216 30.9921C3.80242 31.6567 3.57253 32.3913 3.5776 33.0559L3.6725 70.463C3.6725 71.1576 3.92234 71.6524 4.31716 71.8822L0.87926 69.8834C0.484572 69.6536 0.234742 69.1638 0.234742 68.4642L0.134766 31.0571C0.134766 30.3875 0.359656 29.6579 0.7244 28.9933C1.12916 28.2538 1.70379 27.6042 2.34838 27.2294L48.7746 0.421099C49.3941 0.0663592 49.9489 0.0363467 50.3535 0.271172L53.7914 2.26997Z" fill="#978050"/>
<path d="M4.31563 72.0018C4.29507 72.0018 4.27457 71.9967 4.2554 71.9857V71.9855L0.817498 69.987C0.363549 69.7227 0.113648 69.1819 0.113648 68.4645L0.0136719 31.0575C0.0136719 30.3996 0.228492 29.6463 0.618525 28.936C1.0524 28.142 1.64509 27.4994 2.28676 27.1263L48.7132 0.317794C49.3488 -0.0460468 49.9518 -0.0994745 50.4118 0.167865L53.8501 2.16659C53.9071 2.19973 53.9263 2.2731 53.8931 2.33007C53.86 2.38731 53.7857 2.40621 53.7302 2.37349H53.7297L53.7278 2.37231C53.3439 2.15068 52.8254 2.20578 52.2711 2.52856L5.84471 29.3367C5.24174 29.6826 4.68087 30.2909 4.26568 31.0499C3.89344 31.7371 3.69126 32.4494 3.69592 33.0551L3.79075 70.463C3.79075 71.083 4.00418 71.5624 4.37594 71.7792C4.43291 71.8123 4.45209 71.8854 4.41888 71.9424C4.39692 71.9806 4.35676 72.0018 4.31563 72.0018ZM49.7646 0.239494C49.4811 0.239494 49.164 0.335231 48.8324 0.524828L2.40688 27.3331C1.80252 27.6843 1.24165 28.2945 0.828269 29.0508C0.456994 29.7266 0.252878 30.4391 0.252878 31.0572L0.35285 68.4642C0.35285 69.0933 0.560652 69.5606 0.93804 69.7804L3.74538 71.4124C3.61929 71.149 3.55155 70.826 3.55155 70.4632L3.45672 33.0562C3.45158 32.4114 3.66452 31.658 4.05545 30.9354C4.4921 30.1379 5.08479 29.4969 5.72556 29.1296L52.1511 2.32152C52.478 2.13144 52.7974 2.02493 53.0935 2.00326L50.2918 0.374694C50.1363 0.284376 49.9584 0.239494 49.7646 0.239494Z" fill="#373B42"/>
<path d="M5.68708 29.1565L5.67729 29.1613C5.04228 29.5228 4.47558 30.1675 4.07499 30.8953C3.71837 31.5497 3.49369 32.2775 3.49855 32.932V32.9564L0.103516 30.9929V30.9587C0.103516 30.2993 0.323335 29.5813 0.684813 28.9219C1.08047 28.1942 1.64711 27.5543 2.28704 27.1831L5.68708 29.1565Z" fill="#978050"/>
<g opacity="0.1">
<path d="M5.48582 79.7857C4.26299 80.4917 4.25653 81.6389 5.47137 82.3449L34.8757 99.4328C36.0905 100.139 38.0711 100.139 39.294 99.4328L85.7241 72.6264C86.9503 71.9185 86.9534 70.7731 85.7385 70.0671L56.3342 52.9792C55.1194 52.2732 53.1421 52.2713 51.916 52.9792L5.48582 79.7857Z" fill="black"/>
</g>
<path d="M5.88426 71.7304C4.66143 72.4365 4.65497 73.5837 5.86981 74.2897L35.2741 91.3776C36.489 92.0836 38.4696 92.0836 39.6924 91.3776L86.1226 64.5712C87.3486 63.8633 87.3518 62.7179 86.137 62.0119L56.7327 44.924C55.5178 44.218 53.5406 44.2161 52.3144 44.924L5.88426 71.7304Z" fill="#FFF7E4"/>
<path d="M37.4813 92.0247C36.6593 92.0247 35.8387 91.8436 35.2147 91.4811L5.81049 74.3931C5.18654 74.0304 4.84326 73.5408 4.84375 73.0144C4.84465 72.4846 5.19307 71.9918 5.82501 71.6271L52.2552 44.8207C53.5106 44.0959 55.5459 44.0959 56.7938 44.8207L86.1981 61.9085C86.8225 62.2717 87.1663 62.7615 87.1653 63.2877C87.1648 63.8168 86.816 64.3095 86.1831 64.6747L39.753 91.4811C39.1253 91.8436 38.3028 92.0247 37.4813 92.0247ZM5.88476 71.7305L5.94458 71.834C5.38975 72.1544 5.08386 72.5738 5.08288 73.0147C5.0824 73.4523 5.38364 73.8684 5.93103 74.1862L35.3353 91.2742C36.5159 91.9606 38.4444 91.961 39.6334 91.2742L86.0636 64.4678C86.6194 64.1467 86.9258 63.7276 86.9262 63.2872C86.9271 62.85 86.6254 62.4337 86.0775 62.1153L56.6733 45.0275C55.4926 44.3408 53.5637 44.3412 52.3747 45.0275L5.94451 71.8339L5.88476 71.7305Z" fill="#373B42"/>
<path d="M40.1842 56.5583C39.9022 56.721 39.9032 56.9841 40.1808 57.1455L42.8929 58.7215C43.173 58.8843 43.6247 58.8844 43.9067 58.7215L47.089 56.8842C47.371 56.7215 47.3724 56.4598 47.0922 56.297L44.3802 54.7209C44.1026 54.5595 43.6484 54.5581 43.3664 54.7209L40.1842 56.5583Z" fill="#FFBE2E"/>
<path d="M43.3997 58.9629C43.1956 58.9629 42.992 58.9169 42.8332 58.8249L40.1211 57.2488C39.9484 57.1482 39.8535 57.0074 39.8535 56.8521C39.854 56.6965 39.9502 56.5553 40.1249 56.4546L43.3073 54.6173C43.6258 54.4332 44.1241 54.4332 44.4407 54.6173L47.1528 56.1933C47.3261 56.2942 47.4214 56.4347 47.4214 56.5896C47.4214 56.7452 47.3242 56.8864 47.1491 56.9876L43.9671 58.8249C43.8079 58.9169 43.6038 58.9629 43.3997 58.9629ZM43.8747 54.7189C43.7117 54.7189 43.5488 54.7542 43.4268 54.8242L40.2444 56.6616C40.1482 56.7172 40.0926 56.7868 40.0926 56.8526C40.0926 56.9179 40.1468 56.9871 40.2416 57.042L42.9537 58.618C43.1947 58.7581 43.6047 58.7581 43.8476 58.618L47.0296 56.7807C47.1267 56.7246 47.1823 56.6548 47.1823 56.5894C47.1823 56.5245 47.1276 56.4556 47.0324 56.4002L44.3203 54.8242C44.1997 54.7542 44.0372 54.7189 43.8747 54.7189Z" fill="#373B42"/>
<path d="M45.9674 53.2194C45.6854 53.3822 45.6864 53.6453 45.964 53.8066L48.676 55.3826C48.9562 55.5454 49.4079 55.5454 49.6899 55.3826L52.8721 53.5453C53.1541 53.3826 53.1555 53.1209 52.8754 52.9581L50.1634 51.382C49.8857 51.2207 49.4316 51.2193 49.1496 51.382L45.9674 53.2194Z" fill="#FFBE2E"/>
<path d="M49.1824 55.624C48.9783 55.624 48.7747 55.5781 48.6159 55.486L45.9038 53.91C45.7315 53.8096 45.6362 53.6687 45.6367 53.5137C45.6367 53.3581 45.7329 53.2167 45.9076 53.1158L49.09 51.2787C49.4086 51.0946 49.9069 51.0946 50.2235 51.2787L52.9356 52.8547C53.1089 52.9556 53.2041 53.0961 53.2041 53.2508C53.2041 53.4063 53.1075 53.5476 52.9319 53.6489L49.7499 55.4861C49.5906 55.578 49.3865 55.624 49.1824 55.624ZM46.0271 53.3227C45.9309 53.3785 45.8758 53.4481 45.8758 53.5139C45.8753 53.5793 45.9295 53.6482 46.0243 53.7031L48.7364 55.2792C48.9774 55.4193 49.3875 55.4193 49.6304 55.2792L52.8123 53.442C52.9094 53.386 52.965 53.3162 52.965 53.2506C52.965 53.1859 52.9104 53.117 52.8151 53.0617L50.103 51.4856C49.862 51.3455 49.4533 51.346 49.2095 51.4856L46.0271 53.3227Z" fill="#373B42"/>
<path d="M57.024 52.9452C56.7421 53.108 56.743 53.3711 57.0207 53.5324L59.7327 55.1084C60.0128 55.2712 60.4645 55.2712 60.7465 55.1084L63.9288 53.2712C64.2107 53.1084 64.2122 52.8468 63.932 52.6839L61.22 51.1079C60.9424 50.9465 60.4882 50.9451 60.2062 51.1079L57.024 52.9452Z" fill="#FFBE2E"/>
<path d="M60.2376 55.3499C60.0335 55.3499 59.8299 55.3039 59.6711 55.2119L56.959 53.6359C56.7862 53.5355 56.6909 53.3947 56.6914 53.2394C56.6914 53.0839 56.7881 52.9426 56.9628 52.8417L60.1452 51.0044C60.4641 50.8197 60.9615 50.8206 61.2786 51.0044L63.9907 52.5804C64.164 52.6813 64.2593 52.8219 64.2593 52.9767C64.2593 53.1323 64.1621 53.2735 63.987 53.3746L60.8046 55.2119C60.6453 55.3039 60.4412 55.3499 60.2376 55.3499ZM60.7121 51.106C60.5496 51.106 60.3862 51.141 60.2647 51.2113L57.0823 53.0486C56.9861 53.1044 56.9305 53.174 56.9305 53.2399C56.9305 53.3051 56.9847 53.3742 57.0795 53.4291L59.7916 55.0051C60.0326 55.1457 60.4422 55.1453 60.685 55.0051L63.8674 53.1678C63.9645 53.1117 64.0201 53.0419 64.0201 52.9765C64.0201 52.9116 63.9655 52.8427 63.8702 52.7873L61.1581 51.2113C61.0376 51.141 60.8751 51.106 60.7121 51.106Z" fill="#373B42"/>
<path d="M51.7506 49.8808C51.4686 50.0435 51.4696 50.3066 51.7472 50.4679L54.4593 52.044C54.7394 52.2068 55.1911 52.2068 55.4731 52.044L58.6553 50.2067C58.9373 50.0439 58.9387 49.7823 58.6586 49.6194L55.9466 48.0434C55.669 47.8821 55.2148 47.8806 54.9328 48.0434L51.7506 49.8808Z" fill="#FFBE2E"/>
<path d="M54.9657 52.2856C54.7615 52.2856 54.5579 52.2396 54.3992 52.1476L51.6871 50.5715C51.5147 50.4709 51.4194 50.3303 51.4199 50.175C51.4199 50.0195 51.5161 49.8782 51.6908 49.7774L54.8732 47.94C55.1917 47.756 55.69 47.756 56.0067 47.94L58.7188 49.5161C58.892 49.617 58.9873 49.7576 58.9873 49.9124C58.9873 50.0679 58.8902 50.2092 58.715 50.3102L55.5331 52.1476C55.3739 52.2396 55.1698 52.2856 54.9657 52.2856ZM51.8104 49.9842C51.7142 50.04 51.6591 50.1096 51.6591 50.1755C51.6586 50.2408 51.7128 50.3098 51.8076 50.3646L54.5197 51.9407C54.7607 52.0808 55.1707 52.0808 55.4136 51.9407L58.5956 50.1033C58.6927 50.0473 58.7483 49.9775 58.7483 49.9121C58.7483 49.8472 58.6937 49.7783 58.5984 49.7229L55.8863 48.1469C55.6453 48.0067 55.2366 48.007 54.9928 48.1469L51.8104 49.9842Z" fill="#373B42"/>
<path d="M51.2408 56.2838C50.9589 56.4466 50.9598 56.7097 51.2375 56.871L53.9495 58.4471C54.2296 58.6099 54.6813 58.6099 54.9633 58.4471L58.1456 56.6098C58.4276 56.447 58.429 56.1854 58.1488 56.0225L55.4368 54.4465C55.1592 54.2852 54.705 54.2837 54.423 54.4465L51.2408 56.2838Z" fill="#FFBE2E"/>
<path d="M54.4564 58.6886C54.2523 58.6886 54.0486 58.6427 53.8899 58.5506L51.1778 56.9746C51.005 56.8742 50.9097 56.7333 50.9102 56.5783C50.9102 56.4225 51.0068 56.2815 51.1815 56.1806L54.3639 54.3433C54.6829 54.1585 55.1803 54.1595 55.4974 54.3433L58.2095 55.9193C58.3827 56.0202 58.478 56.1607 58.478 56.3154C58.478 56.4709 58.3814 56.6122 58.2057 56.7135L55.0238 58.5507C54.8645 58.6427 54.6605 58.6886 54.4564 58.6886ZM54.9309 54.4449C54.7684 54.4449 54.6049 54.4799 54.4835 54.5502L51.3011 56.3876C51.2049 56.4434 51.1493 56.513 51.1493 56.5786C51.1493 56.644 51.2035 56.7129 51.2982 56.7678L54.0103 58.3438C54.2513 58.484 54.6614 58.484 54.9043 58.3438L58.0862 56.5067C58.1834 56.4507 58.2389 56.3808 58.2389 56.3152C58.2389 56.2506 58.1843 56.1816 58.089 56.1263L55.3769 54.5503C55.2564 54.4799 55.0939 54.4449 54.9309 54.4449Z" fill="#373B42"/>
<path d="M50.731 62.687C50.449 62.8499 50.4501 63.1129 50.7278 63.2743L53.4398 64.8503C53.7174 65.0117 54.1716 65.0131 54.4536 64.8503L57.6358 63.0131C57.9178 62.8503 57.9168 62.5872 57.6391 62.4259L54.9271 60.8498C54.6495 60.6885 54.1953 60.687 53.9133 60.8498L50.731 62.687Z" fill="#FFBE2E"/>
<path d="M53.9461 65.0919C53.742 65.0919 53.5384 65.0459 53.3801 64.9539L50.668 63.3779C50.4952 63.2775 50.3999 63.1367 50.4004 62.9814C50.4004 62.8259 50.497 62.6846 50.6718 62.5837L53.8537 60.7464C54.1727 60.5622 54.6705 60.5626 54.9877 60.7464L57.6998 62.3224C57.8726 62.4231 57.9674 62.5639 57.9674 62.7192C57.9669 62.8748 57.8708 63.016 57.696 63.1167L54.5137 64.954C54.3544 65.0459 54.1502 65.0919 53.9461 65.0919ZM54.4211 60.848C54.2581 60.848 54.0951 60.8833 53.9732 60.9533L50.7913 62.7906C50.695 62.8464 50.6395 62.916 50.6395 62.9819C50.6395 63.0471 50.6936 63.1162 50.7885 63.1711L53.5006 64.7471C53.742 64.8877 54.1507 64.8872 54.394 64.7471L57.5764 62.9098C57.6726 62.8542 57.7282 62.7846 57.7282 62.7187C57.7282 62.6534 57.674 62.5842 57.5792 62.5293L54.8671 60.9533C54.7466 60.883 54.5841 60.848 54.4211 60.848Z" fill="#373B42"/>
<path d="M45.4576 59.6227C45.1756 59.7855 45.1767 60.0486 45.4543 60.2099L48.1663 61.7859C48.4464 61.9487 48.8982 61.9488 49.1802 61.7859L52.3624 59.9487C52.6444 59.7859 52.6458 59.5242 52.3657 59.3614L49.6536 57.7854C49.376 57.624 48.9219 57.6226 48.6399 57.7854L45.4576 59.6227Z" fill="#FFBE2E"/>
<path d="M48.6732 62.0274C48.469 62.0274 48.2654 61.9814 48.1067 61.8894L45.3946 60.3134C45.2218 60.213 45.1265 60.0722 45.127 59.9169C45.127 59.7613 45.2236 59.6201 45.3983 59.5192L48.5807 57.6819C48.8997 57.4972 49.3971 57.4981 49.7142 57.6819L52.4263 59.2579C52.5995 59.359 52.6953 59.4998 52.6948 59.6544C52.6943 59.8097 52.5977 59.951 52.4225 60.0521L49.2406 61.8894C49.0814 61.9814 48.8773 62.0274 48.6732 62.0274ZM49.1477 57.7835C48.9852 57.7835 48.8217 57.8185 48.7003 57.8888L45.5178 59.7261C45.4216 59.7819 45.366 59.8515 45.366 59.9174C45.366 59.9826 45.4202 60.0517 45.515 60.1066L48.2271 61.6826C48.4681 61.8227 48.8781 61.8227 49.121 61.6826L52.303 59.8453C52.4001 59.7892 52.4557 59.7197 52.4557 59.654C52.4557 59.5891 52.4011 59.5202 52.3057 59.4648L49.5936 57.8888C49.4732 57.8185 49.3107 57.7835 49.1477 57.7835Z" fill="#373B42"/>
<path d="M17.0504 69.9147C16.771 70.076 16.7695 70.3406 17.0471 70.5019L19.7591 72.0779C20.0392 72.2407 20.4935 72.2392 20.7729 72.0779L23.9577 70.2392C24.2397 70.0764 24.2411 69.8148 23.9609 69.6519L21.2489 68.0759C20.9713 67.9146 20.5171 67.9131 20.2351 68.0759L17.0504 69.9147Z" fill="#FFBE2E"/>
<path d="M20.2655 72.3193C20.0614 72.3193 19.8578 72.2733 19.699 72.1813L16.9874 70.6052C16.8155 70.505 16.7207 70.3645 16.7207 70.2091C16.7207 70.0553 16.8192 69.91 16.9911 69.811L20.1758 67.9723C20.4944 67.7882 20.9927 67.7882 21.3093 67.9723L24.0214 69.5483C24.1947 69.6494 24.2904 69.7902 24.2899 69.9448C24.2894 70.1001 24.1928 70.2414 24.0177 70.3425L20.8329 72.1812C20.6737 72.2732 20.4696 72.3193 20.2655 72.3193ZM17.1107 70.018C17.0149 70.0733 16.9598 70.1431 16.9598 70.2094C16.9598 70.275 17.0135 70.3439 17.1079 70.3983L19.8195 71.9744C20.061 72.1154 20.471 72.1145 20.7134 71.9744L23.8982 70.1356C23.9953 70.0796 24.0509 70.01 24.0509 69.9444C24.0509 69.8795 23.9963 69.8106 23.9009 69.7552L21.1888 68.1792C20.9478 68.039 20.5392 68.0393 20.2954 68.1792L17.1107 70.018Z" fill="#373B42"/>
<path d="M11.2711 73.2533C10.9917 73.4146 10.9902 73.6792 11.2678 73.8405L13.9798 75.4165C14.2599 75.5794 14.7142 75.5779 14.9937 75.4165L18.1784 73.5778C18.4604 73.415 18.4618 73.1534 18.1817 72.9906L15.4696 71.4145C15.192 71.2532 14.7378 71.2517 14.4558 71.4145L11.2711 73.2533Z" fill="#FFBE2E"/>
<path d="M14.4862 75.6581C14.2821 75.6581 14.0785 75.6118 13.9197 75.5199L11.2081 73.9438C11.0358 73.8436 10.941 73.7031 10.9414 73.5475C10.9414 73.3938 11.0399 73.2488 11.2118 73.1498L14.3965 71.3111C14.7151 71.1271 15.2134 71.1271 15.53 71.3111L18.2421 72.8872C18.4154 72.988 18.5106 73.1287 18.5106 73.2832C18.5106 73.4388 18.4139 73.58 18.2384 73.6814L15.0536 75.5199C14.8944 75.6121 14.6903 75.6581 14.4862 75.6581ZM14.964 71.4127C14.801 71.4127 14.638 71.4479 14.5161 71.518L11.3314 73.3567C11.3314 73.3567 11.3314 73.3567 11.3314 73.357C11.2356 73.4121 11.1805 73.4819 11.1805 73.548C11.1805 73.6134 11.2342 73.6823 11.3286 73.7369L14.0402 75.313C14.2812 75.4535 14.6903 75.4535 14.9341 75.313L18.1189 73.4744C18.216 73.4184 18.2716 73.3485 18.2716 73.283C18.2716 73.2183 18.217 73.1494 18.1216 73.0941L15.4096 71.518C15.2891 71.448 15.1265 71.4127 14.964 71.4127Z" fill="#373B42"/>
<path d="M22.3238 72.9791C22.0444 73.1405 22.0429 73.405 22.3205 73.5663L25.0325 75.1424C25.3127 75.3052 25.767 75.3037 26.0464 75.1424L29.2311 73.3037C29.5131 73.1409 29.5146 72.8792 29.2344 72.7164L26.5224 71.1403C26.2447 70.979 25.7906 70.9776 25.5086 71.1403L22.3238 72.9791Z" fill="#FFBE2E"/>
<path d="M25.539 75.3838C25.3348 75.384 25.1312 75.3378 24.9725 75.2458L22.2609 73.6698C22.0913 73.571 21.9937 73.4267 21.9941 73.2735C21.9941 73.1196 22.0927 72.9746 22.2645 72.8756L25.4493 71.0369C25.7682 70.8521 26.2657 70.8531 26.5828 71.0369L29.2949 72.6129C29.4681 72.714 29.5639 72.8548 29.5634 73.0094C29.5629 73.1647 29.4662 73.306 29.2911 73.4071L26.1064 75.2458C25.9471 75.3377 25.7431 75.3838 25.539 75.3838ZM26.0163 71.1384C25.8538 71.1384 25.6903 71.1734 25.5688 71.2437L22.3841 73.0824C22.3841 73.0824 22.3841 73.0824 22.3841 73.0826C22.2884 73.1377 22.2333 73.2075 22.2333 73.2737C22.2333 73.3393 22.287 73.4082 22.3813 73.4629L25.0929 75.0389C25.3344 75.1797 25.7445 75.179 25.9869 75.0389L29.1716 73.2002C29.2687 73.1441 29.3243 73.0746 29.3243 73.0089C29.3243 72.944 29.2697 72.8751 29.1744 72.8197L26.4623 71.2437C26.3418 71.1734 26.1793 71.1384 26.0163 71.1384Z" fill="#373B42"/>
<path d="M16.5426 76.318C16.2632 76.4793 16.2616 76.7439 16.5393 76.9052L19.2513 78.4812C19.5314 78.644 19.9856 78.6426 20.2651 78.4812L23.4499 76.6425C23.7319 76.4797 23.7333 76.2181 23.4531 76.0552L20.7411 74.4792C20.4635 74.3179 20.0093 74.3164 19.7273 74.4792L16.5426 76.318Z" fill="#FFBE2E"/>
<path d="M19.7576 78.7227C19.5535 78.7227 19.3499 78.6764 19.1912 78.5845L16.4795 77.0084C16.3072 76.9082 16.2124 76.7677 16.2129 76.6121C16.2129 76.4585 16.3114 76.3135 16.4833 76.2145L19.668 74.3757C19.987 74.1913 20.4844 74.1917 20.8015 74.3757L23.5136 75.9518C23.6869 76.0526 23.7821 76.1932 23.7821 76.3479C23.7821 76.5034 23.6854 76.6446 23.5099 76.746L20.3251 78.5847C20.1659 78.6767 19.9618 78.7227 19.7576 78.7227ZM20.235 74.4773C20.0725 74.4773 19.909 74.5123 19.7876 74.5826L16.6029 76.4214C16.6029 76.4214 16.6029 76.4213 16.6029 76.4216C16.5071 76.4767 16.452 76.5465 16.452 76.6125C16.452 76.6779 16.5057 76.7468 16.6001 76.8014L19.3117 78.3775C19.5531 78.5185 19.9632 78.5178 20.2056 78.3777L23.3904 76.539C23.4875 76.4829 23.5431 76.4131 23.5431 76.3475C23.5431 76.2828 23.4885 76.2139 23.3931 76.1586L20.681 74.5826C20.5605 74.5124 20.398 74.4773 20.235 74.4773Z" fill="#373B42"/>
<path d="M22.8336 66.5758C22.5541 66.7371 22.5527 67.0017 22.8303 67.163L25.5423 68.7391C25.8225 68.9018 26.2767 68.9004 26.5562 68.7391L29.7409 66.9003C30.0228 66.7376 30.0243 66.4759 29.7442 66.3131L27.0322 64.737C26.7545 64.5757 26.3004 64.5742 26.0184 64.737L22.8336 66.5758Z" fill="#FFBE2E"/>
<path d="M26.0468 68.9808C25.8427 68.9808 25.6391 68.9345 25.4808 68.8423L22.7687 67.2666C22.5968 67.1664 22.502 67.0258 22.502 66.8708C22.502 66.7169 22.6005 66.5716 22.7723 66.4726L25.9571 64.6339C26.2756 64.4498 26.774 64.4498 27.0906 64.6339L29.8027 66.2099C29.9759 66.3108 30.0712 66.4514 30.0712 66.606C30.0712 66.7615 29.9745 66.9028 29.7989 67.0042L26.6142 68.8427C26.4551 68.9348 26.251 68.9808 26.0468 68.9808ZM22.8921 66.6795C22.7963 66.7349 22.7412 66.8047 22.7412 66.871C22.7412 66.9363 22.7949 67.0053 22.8893 67.0597L25.6014 68.6357C25.8433 68.7767 26.2519 68.7763 26.4948 68.6357L29.6796 66.7972C29.7767 66.7411 29.8323 66.6713 29.8323 66.6057C29.8323 66.541 29.7777 66.4721 29.6823 66.4168L26.9702 64.8408C26.7287 64.7006 26.3201 64.7011 26.0768 64.8408L22.8921 66.6795Z" fill="#373B42"/>
<path d="M21.814 79.3823C21.5346 79.5437 21.5332 79.8082 21.8108 79.9696L24.5228 81.5457C24.8004 81.707 25.2571 81.707 25.5366 81.5457L28.7213 79.7069C29.0033 79.5442 29.0023 79.281 28.7247 79.1197L26.0126 77.5437C25.735 77.3824 25.2808 77.3808 24.9988 77.5437L21.814 79.3823Z" fill="#FFBE2E"/>
<path d="M25.0297 81.7869C24.8256 81.7869 24.6219 81.741 24.4632 81.649L21.7511 80.0729C21.5792 79.9727 21.4844 79.8319 21.4844 79.6766C21.4849 79.523 21.5834 79.378 21.7548 79.279L24.9395 77.4402C25.2585 77.256 25.7564 77.2565 26.0735 77.4402L28.7856 79.0163C28.9584 79.117 29.0532 79.2577 29.0532 79.4128C29.0527 79.5683 28.9565 79.7096 28.7818 79.8105L25.5971 81.649C25.4379 81.7409 25.2338 81.7869 25.0297 81.7869ZM21.8744 79.4858C21.7787 79.5412 21.724 79.6107 21.7236 79.6771C21.7236 79.7424 21.7778 79.8114 21.8716 79.866L24.5837 81.442C24.8247 81.5821 25.2348 81.5823 25.4777 81.4418L28.6624 79.6036C28.7586 79.5478 28.8142 79.4782 28.8142 79.4123C28.8142 79.3471 28.76 79.278 28.6652 79.2231L25.9531 77.6471C25.7121 77.5065 25.303 77.5069 25.0592 77.6471L21.8744 79.4858Z" fill="#373B42"/>
<path d="M27.5972 76.0437C27.3178 76.205 27.3164 76.4696 27.594 76.631L30.306 78.207C30.5836 78.3683 31.0404 78.3683 31.3198 78.207L34.5045 76.3683C34.7865 76.2055 34.7855 75.9424 34.5079 75.7811L31.7958 74.2051C31.5182 74.0437 31.064 74.0422 30.782 74.2051L27.5972 76.0437Z" fill="#FFBE2E"/>
<path d="M30.8109 78.4483C30.6073 78.4483 30.4032 78.4023 30.2444 78.3103L27.5323 76.7343C27.3628 76.6355 27.2656 76.4912 27.2656 76.338C27.2661 76.1841 27.3646 76.0391 27.536 75.9401L30.7208 74.1014C31.0397 73.9171 31.5376 73.9176 31.8547 74.1014L34.5668 75.6774C34.7396 75.7781 34.8344 75.9188 34.8344 76.0742C34.834 76.2297 34.7378 76.371 34.5631 76.4717L31.3783 78.3104C31.2191 78.4022 31.015 78.4483 30.8109 78.4483ZM27.6556 76.1469C27.5599 76.2023 27.5052 76.2721 27.5048 76.3382C27.5048 76.4038 27.5589 76.4727 27.6528 76.5274L30.3649 78.1034C30.6063 78.2442 31.0164 78.2436 31.2588 78.1034L34.4436 76.2647C34.5398 76.2091 34.5954 76.1395 34.5954 76.0737C34.5954 76.0083 34.5412 75.9392 34.4464 75.8843L31.7343 74.3083C31.4933 74.1677 31.0842 74.1681 30.8404 74.3083L27.6556 76.1469Z" fill="#373B42"/>
<path d="M33.3785 72.7048C33.0991 72.8661 33.0976 73.1307 33.3752 73.2921L36.0873 74.8681C36.3649 75.0294 36.8215 75.0294 37.101 74.8681L51.8515 66.3519C52.1334 66.1891 52.1324 65.926 51.8548 65.7647L49.1428 64.1887C48.8652 64.0274 48.4109 64.0259 48.1289 64.1887L33.3785 72.7048Z" fill="#FFBE2E"/>
<path d="M36.5941 75.1095C36.39 75.1095 36.1864 75.0635 36.0276 74.9715L33.3155 73.3955C33.1437 73.2953 33.0488 73.1545 33.0488 72.9992C33.0493 72.8455 33.1478 72.7005 33.3192 72.6015L48.0697 64.0853C48.3883 63.901 48.8861 63.9015 49.2037 64.0853L51.9158 65.6613C52.0886 65.762 52.1834 65.9028 52.1834 66.0578C52.1829 66.2134 52.0868 66.3546 51.9121 66.4553L37.1616 74.9715C37.0023 75.0635 36.7982 75.1095 36.5941 75.1095ZM33.4388 72.8084C33.3431 72.8638 33.2884 72.9333 33.288 72.9997C33.288 73.0651 33.3422 73.134 33.436 73.1886L36.1481 74.7646C36.3891 74.9047 36.7992 74.905 37.042 74.7644L51.7925 66.2484C51.8887 66.1929 51.9443 66.1232 51.9443 66.0575C51.9443 65.9923 51.8901 65.9232 51.7953 65.8683L49.0832 64.2922C48.8422 64.1517 48.433 64.1521 48.1892 64.2922L33.4388 72.8084Z" fill="#373B42"/>
<path d="M33.8903 66.3016C33.6108 66.463 33.6093 66.7275 33.8869 66.8888L36.599 68.4649C36.8791 68.6277 37.3333 68.6263 37.6128 68.4649L40.7976 66.6262C41.0795 66.4634 41.0809 66.2017 40.8008 66.0389L38.0888 64.4628C37.8112 64.3015 37.357 64.3001 37.075 64.4628L33.8903 66.3016Z" fill="#FFBE2E"/>
<path d="M37.1054 68.7064C36.9013 68.7066 36.6976 68.6604 36.5389 68.5684L33.8273 66.9923C33.6577 66.8935 33.5601 66.7492 33.5605 66.5961C33.5605 66.4422 33.6591 66.2972 33.8309 66.1981L37.0157 64.3594C37.3342 64.1746 37.8316 64.1756 38.1492 64.3594L40.8613 65.9354C41.0345 66.0365 41.1303 66.1773 41.1298 66.3319C41.1293 66.4872 41.0326 66.6285 40.8575 66.7296L37.6728 68.5683C37.5135 68.6604 37.3094 68.7064 37.1054 68.7064ZM37.5827 64.4609C37.4202 64.4609 37.2567 64.496 37.1352 64.5663L33.9505 66.405C33.9505 66.405 33.9505 66.405 33.9505 66.4052C33.8548 66.4603 33.7997 66.5301 33.7997 66.5962C33.7997 66.6618 33.8534 66.7307 33.9477 66.7854L36.6593 68.3614C36.9012 68.5022 37.3114 68.5015 37.5533 68.3614L40.738 66.5227C40.8351 66.4666 40.8907 66.3971 40.8907 66.3314C40.8907 66.2665 40.8361 66.1976 40.7408 66.1423L38.0287 64.5663C37.9082 64.496 37.7456 64.4609 37.5827 64.4609Z" fill="#373B42"/>
<path d="M28.107 69.6403C27.8276 69.8016 27.8261 70.0662 28.1037 70.2275L30.8157 71.8035C31.0959 71.9664 31.5501 71.9649 31.8296 71.8035L35.0143 69.9648C35.2963 69.802 35.2977 69.5404 35.0176 69.3775L32.3056 67.8015C32.0279 67.6401 31.5738 67.6387 31.2918 67.8015L28.107 69.6403Z" fill="#FFBE2E"/>
<path d="M31.3222 72.0452C31.118 72.0452 30.9144 71.999 30.7557 71.907L28.0441 70.3309C27.8717 70.2307 27.7769 70.0902 27.7773 69.9346C27.7773 69.781 27.8759 69.636 28.0477 69.537L31.2325 67.6982C31.5514 67.5135 32.0489 67.5145 32.366 67.6982L35.0781 69.2743C35.2513 69.3752 35.3466 69.5157 35.3466 69.6704C35.3466 69.8259 35.2499 69.9672 35.0743 70.0685L31.8896 71.907C31.7303 71.9992 31.5263 72.0452 31.3222 72.0452ZM31.7995 67.7999C31.637 67.7999 31.4735 67.8349 31.352 67.9052L28.1673 69.7439C28.1673 69.7439 28.1673 69.7439 28.1673 69.7441C28.0716 69.7992 28.0165 69.8691 28.0165 69.9351C28.0165 70.0005 28.0702 70.0694 28.1645 70.124L30.8761 71.7001C31.1171 71.8406 31.5263 71.8406 31.7701 71.7001L34.9548 69.8616C35.0519 69.8055 35.1075 69.7357 35.1075 69.6701C35.1075 69.6054 35.0529 69.5365 34.9576 69.4812L32.2455 67.9051C32.125 67.8349 31.9624 67.7999 31.7995 67.7999Z" fill="#373B42"/>
<path d="M39.6744 62.9613C39.3924 63.1241 39.3935 63.3872 39.6711 63.5485L42.3831 65.1246C42.6632 65.2874 43.115 65.2874 43.397 65.1246L46.5792 63.2873C46.8611 63.1245 46.8626 62.8629 46.5825 62.7L43.8704 61.124C43.5928 60.9627 43.1386 60.9612 42.8566 61.124L39.6744 62.9613Z" fill="#FFBE2E"/>
<path d="M42.89 65.3661C42.6858 65.3661 42.4822 65.3201 42.3235 65.2282L39.6114 63.6521C39.4386 63.5517 39.3438 63.4109 39.3438 63.2558C39.3438 63.1003 39.4404 62.9588 39.6151 62.8579L42.7975 61.0208C43.116 60.836 43.6134 60.837 43.931 61.0208L46.6431 62.5968C46.8163 62.6977 46.9116 62.8383 46.9116 62.9931C46.9116 63.1486 46.8145 63.2899 46.6393 63.391L43.4574 65.2281C43.2981 65.3201 43.094 65.3661 42.89 65.3661ZM39.7346 63.0648C39.6384 63.1206 39.5828 63.1904 39.5828 63.256C39.5828 63.3214 39.637 63.3903 39.7318 63.4452L42.4439 65.0213C42.6849 65.1614 43.0949 65.1614 43.3378 65.0213L46.5197 63.1841C46.6169 63.1281 46.6725 63.0582 46.6725 62.9929C46.6725 62.928 46.6179 62.8591 46.5225 62.8037L43.8104 61.2277C43.5699 61.0875 43.1603 61.0871 42.917 61.2277L39.7346 63.0648Z" fill="#373B42"/>
<path d="M34.4029 59.8968C34.1209 60.0596 34.122 60.3227 34.3996 60.484L37.1116 62.06C37.3917 62.2228 37.8435 62.2229 38.1255 62.06L41.3077 60.2228C41.5896 60.06 41.5911 59.7983 41.311 59.6355L38.5989 58.0595C38.3213 57.8982 37.8671 57.8967 37.5851 58.0595L34.4029 59.8968Z" fill="#FFBE2E"/>
<path d="M37.6165 62.3017C37.4124 62.3017 37.2088 62.2557 37.05 62.1637L34.3379 60.5877C34.1651 60.487 34.0703 60.3463 34.0703 60.1912C34.0708 60.0356 34.1669 59.8944 34.3417 59.7935L37.524 57.9564C37.8426 57.7723 38.3409 57.7723 38.6575 57.9564L41.3696 59.5324C41.5429 59.6333 41.6382 59.7739 41.6382 59.9285C41.6382 60.0841 41.5415 60.2253 41.3659 60.3267L38.1839 62.1638C38.0247 62.2556 37.8206 62.3017 37.6165 62.3017ZM34.4612 60.0003C34.365 60.0561 34.3094 60.1258 34.3094 60.1916C34.3094 60.2568 34.3636 60.3259 34.4584 60.3808L37.1705 61.9568C37.4115 62.097 37.8215 62.097 38.0644 61.9568L41.2464 60.1197C41.3435 60.0636 41.3991 59.9938 41.3991 59.9282C41.3991 59.8636 41.3444 59.7946 41.2492 59.7393L38.5371 58.1633C38.2961 58.0232 37.8874 58.0236 37.6436 58.1633L34.4612 60.0003Z" fill="#373B42"/>
<path d="M28.6149 63.2372C28.3354 63.3985 28.3339 63.6631 28.6115 63.8244L31.3236 65.4004C31.6037 65.5632 32.0579 65.5618 32.3374 65.4004L35.5221 63.5617C35.8041 63.3989 35.8055 63.1373 35.5254 62.9744L32.8134 61.3984C32.5357 61.2371 32.0816 61.2356 31.7996 61.3984L28.6149 63.2372Z" fill="#FFBE2E"/>
<path d="M31.8305 65.6423C31.6264 65.6423 31.4227 65.596 31.264 65.504L28.5519 63.928C28.38 63.8278 28.2852 63.6872 28.2852 63.5319C28.2852 63.378 28.3837 63.2327 28.5556 63.1337L31.7403 61.295C32.0588 61.111 32.5572 61.111 32.8738 61.295L35.5859 62.871C35.7591 62.9719 35.8544 63.1125 35.8544 63.2673C35.8544 63.4229 35.7573 63.5641 35.5821 63.6653L32.3974 65.504C32.2381 65.5962 32.0341 65.6423 31.8305 65.6423ZM28.6751 63.3406C28.5794 63.396 28.5243 63.4658 28.5243 63.5321C28.5243 63.5977 28.578 63.6666 28.6723 63.721L31.3844 65.2971C31.6263 65.4381 32.036 65.4376 32.2779 65.2971L35.4626 63.4583C35.5597 63.4023 35.6153 63.3324 35.6153 63.2671C35.6153 63.2022 35.5607 63.1332 35.4654 63.0779L32.7533 61.5019C32.5123 61.3618 32.1036 61.362 31.8599 61.5019L28.6751 63.3406Z" fill="#373B42"/>
<path d="M62.2954 56.0095C62.0135 56.1723 62.0146 56.4354 62.2922 56.5968L65.0042 58.1728C65.2818 58.3342 65.736 58.3356 66.018 58.1728L69.2002 56.3356C69.4822 56.1728 69.4812 55.9097 69.2036 55.7484L66.4915 54.1723C66.2139 54.011 65.7597 54.0095 65.4777 54.1723L62.2954 56.0095Z" fill="#FFBE2E"/>
<path d="M65.5106 58.4144C65.3064 58.4144 65.1028 58.3684 64.9446 58.2765L62.2325 56.7004C62.0597 56.6 61.9644 56.4592 61.9648 56.3039C61.9648 56.1484 62.0615 56.0071 62.2362 55.9063L65.4182 54.0689C65.7371 53.8847 66.235 53.8852 66.5521 54.0689L69.2642 55.645C69.437 55.7456 69.5319 55.8864 69.5319 56.0417C69.5314 56.1973 69.4351 56.3385 69.2605 56.4392L66.0781 58.2765C65.9187 58.3684 65.7146 58.4144 65.5106 58.4144ZM65.9855 54.1705C65.8225 54.1705 65.6595 54.2058 65.5376 54.2758L62.3556 56.1131C62.2594 56.1689 62.2038 56.2385 62.2038 56.3044C62.2038 56.3696 62.258 56.4387 62.3528 56.4936L65.0649 58.0696C65.3063 58.2102 65.715 58.2098 65.9583 58.0696L69.1407 56.2323C69.2369 56.1767 69.2925 56.1071 69.2925 56.0413C69.2925 55.9759 69.2383 55.9068 69.1436 55.8519L66.4315 54.2759C66.3111 54.2055 66.1485 54.1705 65.9855 54.1705Z" fill="#373B42"/>
<path d="M56.5122 59.3484C56.2303 59.5112 56.2314 59.7743 56.509 59.9357L59.221 61.5117C59.4986 61.673 59.9528 61.6745 60.2348 61.5117L63.417 59.6745C63.699 59.5117 63.698 59.2486 63.4204 59.0873L60.7083 57.5112C60.4307 57.3499 59.9765 57.3484 59.6945 57.5112L56.5122 59.3484Z" fill="#FFBE2E"/>
<path d="M59.7279 61.7534C59.5237 61.7534 59.3201 61.7071 59.1614 61.6151L56.4493 60.0391C56.2765 59.9387 56.1812 59.7979 56.1816 59.6426C56.1816 59.487 56.2783 59.3458 56.453 59.2449L59.635 57.4078C59.9539 57.2235 60.4518 57.224 60.7689 57.4078L63.481 58.9838C63.6538 59.0845 63.7487 59.2252 63.7487 59.3803C63.7482 59.5359 63.6519 59.6771 63.4773 59.778L60.2949 61.6151C60.1355 61.7074 59.9315 61.7534 59.7279 61.7534ZM60.2024 57.5094C60.0394 57.5094 59.8764 57.5447 59.7545 57.6147L56.5725 59.4519C56.4763 59.5077 56.4207 59.5773 56.4207 59.6431C56.4207 59.7083 56.4749 59.7774 56.5697 59.8323L59.2818 61.4084C59.5223 61.5489 59.9319 61.5494 60.1752 61.4084L63.3576 59.5712C63.4538 59.5154 63.5094 59.4458 63.5094 59.38C63.5094 59.3148 63.4552 59.2457 63.3604 59.1908L60.6483 57.6147C60.5279 57.5444 60.3654 57.5094 60.2024 57.5094Z" fill="#373B42"/>
<path d="M5.76972 29.2302C4.54689 29.9362 3.5566 31.6514 3.56056 33.0565L3.65699 70.4636C3.66095 71.8688 4.65778 72.4367 5.88054 71.7307L52.3107 44.9243C53.5368 44.2164 54.5238 42.5031 54.5198 41.0979L54.4234 3.69079C54.4194 2.28566 53.4259 1.71575 52.1998 2.42371L5.76972 29.2302Z" fill="#373B42"/>
<path d="M4.8874 72.1547C4.65529 72.1547 4.4395 72.1001 4.24851 71.99C3.7922 71.7275 3.54 71.1856 3.53764 70.464L3.44142 33.0566C3.43725 31.6144 4.45492 29.8513 5.71026 29.1267L52.1404 2.32008C52.7737 1.95436 53.3748 1.89927 53.833 2.16292C54.2893 2.42561 54.5415 2.96807 54.5433 3.69061L54.64 41.0976C54.6437 42.5401 53.6256 44.3031 52.3707 45.0278L5.9405 71.8341C5.57159 72.0472 5.21338 72.1547 4.8874 72.1547ZM53.1945 2.23803C52.9106 2.23803 52.5926 2.33515 52.26 2.5269L5.82983 29.3335C4.64077 30.0202 3.67631 31.6899 3.68048 33.0558L3.7767 70.4632C3.77858 71.0958 3.98874 71.5645 4.36801 71.7829C4.74956 72.0026 5.26611 71.9475 5.82094 71.6271L52.2511 44.8207C53.4401 44.1342 54.4046 42.4643 54.4008 41.098L54.3041 3.69096C54.3023 3.05742 54.0926 2.58832 53.7138 2.37017C53.5603 2.28193 53.3851 2.23803 53.1945 2.23803Z" fill="#373B42"/>
<path d="M12.5586 66.057L47.611 45.6868C48.4959 46.1977 49.211 47.4369 49.208 48.4545L14.1556 68.8248C14.1585 67.8072 13.4435 66.568 12.5586 66.057Z" fill="#FFF7E4"/>
<path d="M14.1562 68.9445C14.1357 68.9445 14.1151 68.9392 14.0964 68.9284C14.0595 68.9071 14.0367 68.8675 14.0367 68.8247C14.0395 67.8467 13.3496 66.6516 12.4992 66.1605C12.4623 66.1393 12.4395 66.0998 12.4395 66.0573C12.4395 66.0146 12.4619 65.9751 12.4988 65.9536L47.5514 45.5835C47.5888 45.562 47.6341 45.562 47.6715 45.5835C48.5883 46.1124 49.3313 47.4005 49.3285 48.4548C49.3285 48.4973 49.3057 48.5365 49.2692 48.5581L14.2166 68.9284C14.1979 68.9392 14.1768 68.9445 14.1562 68.9445ZM12.7888 66.0617C13.5687 66.604 14.1894 67.6781 14.2674 68.622L49.0884 48.3864C49.0608 47.4444 48.4145 46.3244 47.6107 45.8256L12.7888 66.0617Z" fill="#373B42"/>
<path d="M12.5561 66.0571C13.441 66.568 14.156 67.8073 14.1531 68.8249L12.5508 67.8998L12.5561 66.0571Z" fill="#FFF7E4"/>
<path d="M14.1517 68.9444C14.1311 68.9444 14.1106 68.9391 14.0919 68.9283L12.4894 68.0031C12.4525 67.9819 12.4297 67.9422 12.4297 67.8995L12.4348 66.0568C12.4348 66.0141 12.4577 65.9746 12.4946 65.9533C12.532 65.9323 12.5768 65.9321 12.6141 65.9535C13.5309 66.4827 14.274 67.7708 14.2712 68.8252C14.2712 68.8679 14.2483 68.9073 14.2114 68.9286C14.1928 68.9391 14.1723 68.9444 14.1517 68.9444ZM12.6689 67.8308L14.0224 68.6122C13.9421 67.751 13.3807 66.7786 12.6736 66.2756L12.6689 67.8308Z" fill="#373B42"/>
<path d="M4.88799 69.0358C4.67526 69.0358 4.65768 68.5963 4.65719 68.4619L4.56055 33.0534C4.55764 32.0052 5.35646 30.6228 6.26992 30.0953L52.7001 3.28893C52.9666 3.13519 53.1354 3.11865 53.1954 3.11865C53.4121 3.11865 53.4243 3.59733 53.4248 3.69328L53.5209 39.102C53.5238 40.1504 52.725 41.5326 51.8115 42.0599L5.38133 68.8662C5.11635 69.0192 4.94802 69.0358 4.88799 69.0358Z" fill="#FFBE2E"/>
<path d="M4.88842 69.1553C4.66422 69.1553 4.53951 68.9092 4.53812 68.4622L4.44141 33.0535C4.43863 31.9683 5.26525 30.5375 6.21052 29.9918L52.6407 3.18539C52.9213 3.02309 53.1087 2.99878 53.1955 2.99878C53.5079 2.99878 53.5439 3.48378 53.5448 3.69235L53.6406 39.1015C53.6438 40.1867 52.8171 41.6175 51.8714 42.1629L5.4413 68.9693C5.16214 69.1312 4.97484 69.1553 4.88842 69.1553ZM53.1956 3.23791C53.1564 3.23791 53.0083 3.2491 52.7604 3.39229L6.33016 30.1987C5.44887 30.7077 4.67777 32.0413 4.68062 33.053L4.77733 68.4615C4.77823 68.7641 4.84923 68.9161 4.88848 68.9161C4.92774 68.9161 5.0753 68.9051 5.32187 68.7624L51.752 41.9561C52.6338 41.4472 53.4049 40.1136 53.4016 39.1022L53.3059 3.69325C53.3044 3.41959 53.2386 3.23791 53.1956 3.23791Z" fill="#373B42"/>
<path d="M53.5238 39.1024C53.5238 40.1516 52.7251 41.5364 51.8117 42.0589L5.38263 68.8672C5.11495 69.0158 4.94932 69.0371 4.88985 69.0371C4.67747 69.0371 4.65628 68.5953 4.65628 68.4636L4.57124 36.7873L4.55859 33.0534C4.55859 32.7179 4.63925 32.3525 4.77945 31.9915C5.01726 31.367 5.43356 30.751 5.90932 30.3475C6.02826 30.2498 6.14714 30.1649 6.27032 30.0926L52.7037 3.28866C52.9672 3.13568 53.1328 3.11865 53.1922 3.11865C53.4131 3.11865 53.4216 3.59872 53.4216 3.69217L53.4386 8.573L53.5238 39.1024Z" fill="#FFF7E4"/>
<path d="M4.89014 69.1564C4.57159 69.1564 4.53706 68.6716 4.53706 68.4633L4.43945 33.0537C4.43945 32.7148 4.51886 32.3326 4.6683 31.948C4.91633 31.2967 5.35159 30.6639 5.83215 30.2561C5.96339 30.1487 6.08622 30.0619 6.21044 29.9892L52.6443 3.1849C52.9231 3.02309 53.1077 2.99878 53.1926 2.99878C53.4145 2.99878 53.5415 3.25146 53.5415 3.69186L53.5584 8.5722L53.6434 39.102V39.1022C53.6434 40.1923 52.8153 41.6224 51.8714 42.1623L5.44267 68.9705C5.14046 69.1385 4.95551 69.1564 4.89014 69.1564ZM53.1927 3.23791C53.1544 3.23791 53.0101 3.2491 52.7645 3.3918L6.33049 30.1959C6.21794 30.2617 6.10491 30.3416 5.98583 30.4399C5.53563 30.8213 5.12601 31.4177 4.89153 32.0339C4.75237 32.3921 4.67859 32.7443 4.67859 33.0532L4.69123 36.7868L4.77627 68.4632C4.77627 68.7406 4.844 68.9174 4.89021 68.9174C4.90612 68.9174 5.05368 68.9129 5.32498 68.7626L51.7523 41.9553C52.6323 41.4516 53.4043 40.1189 53.4043 39.1026L53.3025 3.69249C53.3024 3.41473 53.2375 3.23791 53.1927 3.23791Z" fill="#373B42"/>
<path d="M4.30196 72.0018C4.2814 72.0018 4.2609 71.9967 4.24173 71.9857V71.9855L0.803826 69.987C0.349877 69.7227 0.0999763 69.1819 0.0999763 68.4645L0 31.0575C0 30.3996 0.214821 29.6463 0.604853 28.936C1.03872 28.142 1.63141 27.4994 2.27308 27.1263L48.6995 0.317794C49.3352 -0.0460468 49.9381 -0.0994745 50.3981 0.167865L53.8365 2.16659C53.8934 2.19973 53.9126 2.2731 53.8795 2.33007C53.8463 2.38731 53.7721 2.40621 53.7165 2.37349H53.716L53.7141 2.37231C53.3302 2.15068 52.8118 2.20578 52.2574 2.52856L5.83104 29.3367C5.22807 29.6826 4.66719 30.2909 4.25201 31.0499C3.87976 31.7371 3.67759 32.4494 3.68225 33.0551L3.77708 70.463C3.77708 71.083 3.99051 71.5624 4.36227 71.7792C4.41924 71.8123 4.43841 71.8854 4.4052 71.9424C4.38325 71.9806 4.34309 72.0018 4.30196 72.0018ZM49.7509 0.239494C49.4675 0.239494 49.1503 0.335231 48.8187 0.524828L2.39321 27.3331C1.78884 27.6843 1.22797 28.2945 0.814597 29.0508C0.443323 29.7266 0.239206 30.4391 0.239206 31.0572L0.339178 68.4642C0.339178 69.0933 0.54698 69.5606 0.924369 69.7804L3.73171 71.4124C3.60561 71.149 3.53788 70.826 3.53788 70.4632L3.44305 33.0562C3.4379 32.4114 3.65084 31.658 4.04178 30.9354C4.47843 30.1379 5.07112 29.4969 5.71189 29.1296L52.1374 2.32152C52.4643 2.13144 52.7838 2.02493 53.0799 2.00326L50.2781 0.374694C50.1227 0.284376 49.9447 0.239494 49.7509 0.239494Z" fill="#373B42"/>
<path d="M49.3613 4.18367C49.3407 4.18367 49.3201 4.17853 49.301 4.16755L45.858 2.16862C45.8011 2.13548 45.7819 2.06211 45.8151 2.00514C45.8478 1.94748 45.9206 1.9283 45.9786 1.96172L49.4216 3.96066C49.4785 3.9938 49.4977 4.06716 49.4646 4.12413C49.4425 4.16241 49.4023 4.18367 49.3613 4.18367Z" fill="#373B42"/>
<path d="M3.56983 36.9769C3.54926 36.9769 3.5287 36.9718 3.50959 36.9606L0.0670352 34.9518C0.0100657 34.9187 -0.00910805 34.8453 0.024101 34.7884C0.0568237 34.7311 0.129631 34.7115 0.187573 34.7454L3.63013 36.7541C3.6871 36.7872 3.70627 36.8606 3.67307 36.9176C3.65111 36.9556 3.61089 36.9769 3.56983 36.9769Z" fill="#373B42"/>
<path d="M3.64914 67.8443C3.62857 67.8443 3.60801 67.8392 3.58939 67.8282L0.151489 65.8344C0.0940333 65.8012 0.0748582 65.7282 0.108067 65.6709C0.14079 65.6133 0.214569 65.5941 0.271052 65.6275L3.70895 67.6213C3.76641 67.6544 3.78552 67.7275 3.75238 67.7848C3.73042 67.823 3.69027 67.8443 3.64914 67.8443Z" fill="#373B42"/>
<path d="M87.0579 67.65C87.0631 68.1146 86.7582 68.5793 86.1386 68.9342L39.7074 95.7425C39.5124 95.8575 39.2976 95.9474 39.0728 96.0224C38.5581 96.1972 37.9734 96.2772 37.3888 96.2672H37.3838C36.8242 96.2572 36.2745 96.1623 35.7948 95.9824C35.6149 95.9125 35.4451 95.8324 35.2902 95.7425L5.88835 78.6582C5.28371 78.3034 4.97899 77.8436 4.97899 77.3789L4.95898 73.0216C4.96399 73.4763 5.2687 73.9362 5.86834 74.2909L35.2702 91.3753C35.4301 91.4702 35.605 91.5502 35.7948 91.6201C36.2745 91.8001 36.8293 91.895 37.3838 91.905V91.9C37.9685 91.91 38.5581 91.8301 39.0728 91.6501C39.2926 91.5751 39.5024 91.4852 39.6924 91.3753L86.1236 64.567C86.7331 64.2171 87.0431 63.7424 87.0431 63.2827L87.0579 67.65Z" fill="#978050"/>
<path d="M7.55316 79.7421C7.4873 79.7421 7.43359 79.6886 7.43359 79.6225V75.2702C7.43359 75.2041 7.4873 75.1506 7.55316 75.1506C7.61902 75.1506 7.67273 75.2041 7.67273 75.2702V79.6225C7.67273 79.6886 7.61902 79.7421 7.55316 79.7421Z" fill="#373B42"/>
<path d="M41.5961 94.7727C41.5303 94.7727 41.4766 94.7192 41.4766 94.6532V90.2758C41.4766 90.2098 41.5303 90.1562 41.5961 90.1562C41.662 90.1562 41.7157 90.2098 41.7157 90.2758V94.6532C41.7157 94.7193 41.662 94.7727 41.5961 94.7727Z" fill="#373B42"/>
<path d="M83.6762 70.4778C83.6103 70.4778 83.5566 70.4243 83.5566 70.3582V65.9809C83.5566 65.9148 83.6103 65.8613 83.6762 65.8613C83.7421 65.8613 83.7958 65.9148 83.7958 65.9809V70.3582C83.7958 70.4244 83.7421 70.4778 83.6762 70.4778Z" fill="#373B42"/>
<path d="M39.0748 91.6501V96.0224C38.5602 96.1972 37.9754 96.2772 37.3908 96.2672H37.3858C36.8262 96.2572 36.2765 96.1623 35.7969 95.9824V91.6201C36.2765 91.8001 36.8313 91.895 37.3858 91.905V91.9C37.9705 91.91 38.5602 91.8301 39.0748 91.6501Z" fill="#978050"/>
<path d="M37.4948 96.3878C37.4598 96.3878 37.4243 96.3876 37.3888 96.3869C36.5635 96.3705 35.7995 96.1784 35.232 95.8458L5.8305 78.7615C5.20557 78.3949 4.86188 77.904 4.86188 77.3788L4.8418 73.022C4.84131 72.9561 4.8946 72.9024 4.96046 72.902C4.96095 72.902 4.96095 72.902 4.96137 72.902C5.02674 72.902 5.07996 72.9545 5.08093 73.0201C5.08093 73.0203 5.08093 73.0208 5.08093 73.0211C5.08608 73.4522 5.38822 73.8664 5.93138 74.1877L35.3329 91.2718C35.869 91.5835 36.5869 91.7652 37.357 91.7846C37.3668 91.7818 37.3626 91.7822 37.3883 91.7804C38.2453 91.7989 39.0412 91.615 39.6347 91.2718L86.0664 64.4633C86.6128 64.1497 86.9257 63.7196 86.9257 63.2826C86.9257 63.2168 86.9789 63.1631 87.0452 63.1631C87.1111 63.1631 87.1648 63.2163 87.1648 63.2822L87.1798 67.6494C87.1854 68.18 86.8374 68.6729 86.2004 69.0377L39.7697 95.8459C39.1677 96.1967 38.3635 96.3878 37.4948 96.3878ZM5.0842 73.7483L5.10101 77.3784C5.10101 77.8158 5.40316 78.2333 5.95104 78.5549L35.3525 95.6391C35.8854 95.9518 36.6084 96.1323 37.3883 96.1477C38.2664 96.1632 39.0603 95.9827 39.6497 95.6394L86.0814 68.8306C86.6404 68.5102 86.9454 68.0916 86.9407 67.6514C86.9407 67.6509 86.9407 67.6507 86.9407 67.6505L86.928 64.0111C86.7609 64.2591 86.5091 64.4849 86.1854 64.6706L39.7543 91.4788C39.1313 91.8394 38.2971 92.0311 37.4159 92.0201C37.4056 92.0231 37.3949 92.024 37.3836 92.0245C36.5617 92.0086 35.7906 91.8146 35.2124 91.4788L5.81042 74.3943C5.49334 74.2064 5.24858 73.9872 5.0842 73.7483Z" fill="#373B42"/>
<path d="M43.467 74.556C42.6527 75.0261 42.6485 75.7875 43.4575 76.2576L50.7159 80.4758C51.5248 80.9459 52.8392 80.9459 53.6535 80.4758L67.252 72.6246C68.0707 72.152 68.0749 71.3906 67.266 70.9205L60.0076 66.7024C59.1986 66.2323 57.8842 66.2323 57.0655 66.7049L43.467 74.556Z" fill="#FFBE2E"/>
<path d="M52.183 80.9455C51.6291 80.9455 51.0762 80.8236 50.6558 80.5794L43.3976 76.361C42.9693 76.1121 42.734 75.7742 42.7344 75.4097C42.7349 75.0428 42.974 74.7031 43.4074 74.4528L57.0061 66.6016C57.8538 66.1117 59.2269 66.1105 60.068 66.599L67.3263 70.8171C67.7541 71.0658 67.9895 71.4035 67.989 71.7677C67.9885 72.1353 67.748 72.4764 67.3123 72.7282L53.7135 80.5794C53.2908 80.8236 52.7365 80.9455 52.183 80.9455ZM43.527 74.6596C43.1706 74.8656 42.974 75.132 42.9735 75.4099C42.973 75.6858 43.1664 75.9501 43.5181 76.1542L50.7763 80.3725C51.5502 80.8229 52.8145 80.8225 53.594 80.3725L67.1927 72.5213C67.5519 72.3139 67.7494 72.0461 67.7499 71.7675C67.7504 71.492 67.557 71.2278 67.2058 71.024L59.9475 66.8059C59.1736 66.3557 57.9079 66.3569 57.1256 66.8085L43.527 74.6596Z" fill="#373B42"/>
<path d="M10.8756 78.1984C10.9794 78.2583 11.0643 78.4053 11.064 78.5266L11.061 79.8225C11.0607 79.9438 10.9753 79.9905 10.8714 79.9306L10.7216 79.8441L10.7207 80.201C10.7204 80.3223 10.635 80.371 10.5311 80.311L9.63718 79.7949C9.53332 79.7349 9.44842 79.5879 9.44877 79.4666L9.4496 79.1097L9.29974 79.0232C9.19588 78.9633 9.11098 78.8183 9.11133 78.697L9.11431 77.4011C9.11466 77.2798 9.20005 77.2311 9.30391 77.291L10.8756 78.1984Z" fill="#373B42"/>
<path d="M32.0781 15.2441L42.2215 21.1606L49.257 17.0987L39.1136 11.1821L32.0781 15.2441Z" fill="#FFBE2E"/>
<path d="M42.2217 21.2802C42.2007 21.2802 42.1801 21.2749 42.1615 21.2639L32.0183 15.3472C31.9814 15.3258 31.959 15.2863 31.959 15.2438C31.959 15.201 31.9818 15.1618 32.0188 15.1405L39.0543 11.0787C39.0916 11.0569 39.1369 11.0572 39.1743 11.0789L49.3174 16.9953C49.3543 17.0168 49.3768 17.0562 49.3768 17.0988C49.3768 17.1415 49.3539 17.1807 49.317 17.202L42.2816 21.2641C42.2628 21.2749 42.2423 21.2802 42.2217 21.2802ZM32.3168 15.2445L42.2222 21.0224L49.019 17.0981L39.1136 11.3204L32.3168 15.2445Z" fill="#373B42"/>
<path d="M10.9746 27.4282L21.118 33.3447L28.1506 29.2845L18.0071 23.3679L10.9746 27.4282Z" fill="#FFF7E4"/>
<path d="M21.1187 33.4644C21.0977 33.4644 21.0771 33.459 21.0584 33.448L10.9148 27.5313C10.8779 27.5099 10.8555 27.4704 10.8555 27.4279C10.8555 27.3852 10.8783 27.3459 10.9153 27.3247L17.948 23.2645C17.9858 23.2427 18.0311 23.243 18.068 23.2647L28.2112 29.1811C28.2481 29.2026 28.2705 29.242 28.2705 29.2845C28.2705 29.3273 28.2476 29.3665 28.2107 29.3878L21.1786 33.4482C21.1597 33.459 21.1392 33.4644 21.1187 33.4644ZM11.2132 27.4286L21.1191 33.2066L27.9126 29.2839L18.0072 23.5062L11.2132 27.4286Z" fill="#373B42"/>
<path d="M21.1175 33.346L14.083 37.407L4.79297 31.9867C5.03078 31.3622 5.44708 30.7462 5.92284 30.3427L10.9735 27.4287L21.1175 33.346Z" fill="#FFBE2E"/>
<path d="M14.0832 37.5266C14.0622 37.5266 14.0417 37.5212 14.023 37.5102L4.73313 32.09C4.68269 32.0606 4.66073 31.9989 4.68178 31.9443C4.92981 31.2926 5.36507 30.6599 5.84563 30.2518L10.9144 27.3253C10.9518 27.3035 10.9971 27.3038 11.0344 27.3255L21.1781 33.2429C21.215 33.2643 21.2374 33.3038 21.2374 33.3463C21.2374 33.389 21.2145 33.4283 21.1776 33.4496L14.1431 37.5104C14.1243 37.5211 14.1038 37.5266 14.0832 37.5266ZM4.94238 31.9351L14.0838 37.2687L20.8797 33.3456L10.9737 27.567L5.98291 30.4462C5.57099 30.7984 5.18152 31.3534 4.94238 31.9351Z" fill="#373B42"/>
<path d="M18.0078 23.3678L28.1513 29.2844L35.1868 25.2225L25.0433 19.3059L18.0078 23.3678Z" fill="#FFBE2E"/>
<path d="M28.1514 29.404C28.1304 29.404 28.1098 29.3986 28.0911 29.3877L17.948 23.4712C17.9111 23.4498 17.8887 23.4103 17.8887 23.3678C17.8887 23.3251 17.9115 23.2858 17.9484 23.2646L24.9839 19.2027C25.0217 19.181 25.067 19.1812 25.1039 19.2029L35.2471 25.1193C35.284 25.1408 35.3064 25.1803 35.3064 25.2228C35.3064 25.2655 35.2835 25.3048 35.2467 25.326L28.2112 29.3879C28.1924 29.3986 28.1719 29.404 28.1514 29.404ZM18.2464 23.3684L28.1518 29.1462L34.9486 25.2221L25.0432 19.4443L18.2464 23.3684Z" fill="#373B42"/>
<path d="M25.041 19.3061L35.1845 25.2226L42.22 21.1607L32.0765 15.2441L25.041 19.3061Z" fill="#FFF7E4"/>
<path d="M35.1846 25.3419C35.1636 25.3419 35.143 25.3366 35.1243 25.3256L24.9812 19.4092C24.9443 19.3877 24.9219 19.3483 24.9219 19.3058C24.9219 19.263 24.9447 19.2238 24.9817 19.2025L32.0171 15.1404C32.0549 15.1187 32.1003 15.119 32.1372 15.1407L42.2803 21.0574C42.3172 21.0788 42.3397 21.1183 42.3397 21.1608C42.3397 21.2035 42.3168 21.2428 42.2799 21.264L35.2445 25.3259C35.2257 25.3366 35.2051 25.3419 35.1846 25.3419ZM25.2796 19.3064L35.185 25.0841L41.9818 21.16L32.0764 15.3821L25.2796 19.3064Z" fill="#373B42"/>
<path d="M39.1113 11.1821L49.2547 17.0986L56.2874 13.0383L46.1439 7.12183L39.1113 11.1821Z" fill="#FFF7E4"/>
<path d="M49.2549 17.218C49.2339 17.218 49.2133 17.2127 49.1947 17.2017L39.0515 11.2853C39.0146 11.2638 38.9922 11.2244 38.9922 11.1818C38.9922 11.1391 39.015 11.0999 39.0519 11.0786L46.0846 7.01813C46.1225 6.99639 46.1678 6.99666 46.2047 7.01834L56.3478 12.935C56.3847 12.9565 56.4071 12.996 56.4071 13.0385C56.4071 13.0812 56.3843 13.1205 56.3474 13.1417L49.3147 17.2019C49.296 17.2127 49.2755 17.218 49.2549 17.218ZM39.35 11.1825L49.2554 16.9603L56.0494 13.0379L46.144 7.2599L39.35 11.1825Z" fill="#373B42"/>
<path d="M46.1445 7.12174L56.2879 13.0382L63.3234 8.9763L53.18 3.05981L46.1445 7.12174Z" fill="#FFBE2E"/>
<path d="M56.2881 13.1579C56.2671 13.1579 56.2466 13.1526 56.2279 13.1416L46.0847 7.22491C46.0478 7.20344 46.0254 7.16398 46.0254 7.12146C46.0254 7.07873 46.0482 7.03948 46.0851 7.01822L53.1206 2.95637C53.1584 2.93462 53.2038 2.9349 53.2406 2.95657L63.3838 8.87299C63.4207 8.89446 63.4431 8.93392 63.4431 8.97644C63.4431 9.01917 63.4203 9.05842 63.3834 9.07968L56.3479 13.1417C56.3292 13.1526 56.3087 13.1579 56.2881 13.1579ZM46.3832 7.12216L56.2886 12.9001L63.0854 8.97582L53.18 3.19807L46.3832 7.12216Z" fill="#373B42"/>
<path d="M35.1761 25.2632L35.1835 26.7498C35.1898 28.9829 33.6207 31.7009 31.6772 32.8229C29.7338 33.9449 28.1544 33.0448 28.1481 30.8117L28.1406 29.3251L35.1761 25.2632Z" fill="#FFBE2E"/>
<path d="M30.0989 33.4266C29.7426 33.4266 29.4129 33.3433 29.1214 33.1756C28.4204 32.7721 28.0323 31.9329 28.029 30.8119L28.0215 29.3258C28.0215 29.2829 28.0439 29.2431 28.0813 29.2217L35.1168 25.1596C35.1541 25.1381 35.1994 25.1383 35.2358 25.1594C35.2732 25.1807 35.2961 25.2199 35.2961 25.2624L35.3036 26.7489C35.3101 29.0162 33.7105 31.7871 31.7378 32.9262C31.162 33.2587 30.6043 33.4266 30.0989 33.4266ZM28.2612 29.394L28.2682 30.811C28.271 31.8432 28.6166 32.6091 29.2406 32.9682C29.8697 33.3302 30.7141 33.2412 31.6183 32.7193C33.5252 31.6183 35.0711 28.9405 35.0645 26.7499L35.058 25.4695L28.2612 29.394Z" fill="#373B42"/>
<path d="M28.14 29.3252L28.1475 30.8118C28.1538 33.0449 26.5846 35.7629 24.6412 36.8849C22.7007 38.0053 21.1212 37.1051 21.1149 34.8721L21.1074 33.3855L28.14 29.3252Z" fill="#FFF7E4"/>
<path d="M23.0652 37.4875C22.7093 37.4875 22.3796 37.4042 22.0877 37.2363C21.3866 36.8327 20.999 35.9932 20.9957 34.8721L20.9883 33.3859C20.9883 33.3429 21.0107 33.3033 21.048 33.2818L28.0802 29.2216C28.1176 29.2001 28.1629 29.2004 28.1993 29.2214C28.2367 29.2427 28.2595 29.2819 28.2595 29.3244L28.267 30.8109C28.2735 33.0782 26.6739 35.8491 24.7012 36.9882C24.1267 37.3201 23.5696 37.4875 23.0652 37.4875ZM21.2278 33.4542L21.2348 34.8713C21.2376 35.9037 21.5828 36.6698 22.2072 37.0292C22.8349 37.3909 23.6779 37.3027 24.5817 36.7815C26.4886 35.6804 28.0345 33.0027 28.028 30.812L28.0214 29.5316L21.2278 33.4542Z" fill="#373B42"/>
<path d="M21.1077 33.3855L21.1152 34.8721C21.1215 37.1052 19.5494 39.8249 17.6089 40.9452C15.6655 42.0672 14.086 41.1671 14.0797 38.934L14.0723 37.4474L21.1077 33.3855Z" fill="#FFBE2E"/>
<path d="M16.0301 41.549C15.6742 41.549 15.344 41.4656 15.0526 41.2979C14.3516 40.8944 13.9634 40.0549 13.9601 38.9341L13.9531 37.4477C13.9531 37.405 13.9756 37.365 14.0129 37.3438L21.0484 33.2819C21.0858 33.2604 21.1311 33.2607 21.1675 33.2817C21.2049 33.303 21.2277 33.3422 21.2277 33.3847L21.2351 34.8712C21.2412 37.1387 19.6416 39.9096 17.6689 41.0485C17.0931 41.381 16.5354 41.549 16.0301 41.549ZM14.1927 37.5161L14.1993 38.9333C14.2021 39.9654 14.5477 40.7314 15.1716 41.0906C15.8007 41.4527 16.6447 41.3638 17.5494 40.8416C19.4558 39.7408 21.0022 37.0631 20.9961 34.8722L20.9896 33.5918L14.1927 37.5161Z" fill="#373B42"/>
<path d="M42.2112 21.2012L42.2187 22.6878C42.225 24.9209 40.6558 27.6389 38.7124 28.7609C36.769 29.8829 35.1895 28.9828 35.1832 26.7497L35.1758 25.2631L42.2112 21.2012Z" fill="#FFF7E4"/>
<path d="M37.1321 29.3649C36.7762 29.3649 36.4461 29.2815 36.1546 29.1139C35.4536 28.7104 35.0655 27.8708 35.0622 26.75L35.0547 25.2638C35.0547 25.2208 35.0771 25.1812 35.1145 25.1597L42.15 21.0978C42.1873 21.0764 42.2326 21.0766 42.269 21.0976C42.3064 21.1189 42.3293 21.1581 42.3293 21.2006L42.3368 22.6871C42.3433 24.9544 40.7437 27.7253 38.7709 28.8644C38.1951 29.197 37.6374 29.3649 37.1321 29.3649ZM35.2943 25.332L35.3013 26.749C35.3041 27.7814 35.6497 28.5474 36.2737 28.9065C36.9033 29.2684 37.7468 29.1794 38.6514 28.6576C40.5584 27.5565 42.1042 24.8787 42.0976 22.6881L42.0911 21.4078L35.2943 25.332Z" fill="#373B42"/>
<path d="M56.2796 13.0791L56.287 14.5657C56.2933 16.7988 54.7242 19.5168 52.7808 20.6388C50.8403 21.7592 49.2579 20.8607 49.2516 18.6277L49.2441 17.141L56.2796 13.0791Z" fill="#FFF7E4"/>
<path d="M51.2038 21.2419C50.8474 21.2419 50.5172 21.1585 50.2253 20.9904C49.5239 20.5869 49.1358 19.7478 49.1325 18.6279L49.125 17.1415C49.125 17.0986 49.1474 17.0588 49.1847 17.0374L56.2202 12.9755C56.2576 12.9541 56.3029 12.9543 56.3393 12.9753C56.3767 12.9966 56.3995 13.0358 56.3995 13.0783L56.407 14.5648C56.4135 16.8321 54.8139 19.603 52.8411 20.7421C52.2662 21.0742 51.7086 21.2419 51.2038 21.2419ZM49.3645 17.2097L49.3716 18.6267C49.3743 19.6581 49.72 20.4239 50.3444 20.7833C50.973 21.1449 51.8175 21.0574 52.7217 20.5352C54.6286 19.4342 56.1745 16.7564 56.168 14.5658L56.1614 13.2854L49.3645 17.2097Z" fill="#373B42"/>
<path d="M49.2435 17.1409L49.251 18.6275C49.2573 20.8606 47.6881 23.5786 45.7476 24.6989C43.8041 25.8209 42.2247 24.9208 42.2184 22.6878L42.2109 21.2011L49.2435 17.1409Z" fill="#FFBE2E"/>
<path d="M44.1692 25.3027C43.8129 25.3027 43.4832 25.2194 43.1917 25.0517C42.4907 24.6482 42.1026 23.8089 42.0993 22.6882L42.0918 21.2019C42.0918 21.1589 42.1142 21.1192 42.1515 21.0978L49.1842 17.0373C49.2216 17.0158 49.2669 17.016 49.3033 17.0371C49.3407 17.0583 49.3635 17.0976 49.3635 17.14L49.371 18.6266C49.3776 20.8941 47.7794 23.6643 45.808 24.8022C45.2322 25.1349 44.6741 25.3027 44.1692 25.3027ZM42.3314 21.2701L42.3384 22.6871C42.3412 23.7193 42.6869 24.4855 43.3108 24.8444C43.9399 25.2064 44.7839 25.1172 45.6885 24.5955C47.5936 23.4956 49.1385 20.8185 49.132 18.6276L49.1254 17.3473L42.3314 21.2701Z" fill="#373B42"/>
<path d="M63.3148 9.01709L63.3222 10.5037C63.3285 12.7368 61.7593 15.4548 59.8159 16.5768C57.8725 17.6988 56.293 16.7987 56.2867 14.5656L56.2793 13.079L63.3148 9.01709Z" fill="#FFBE2E"/>
<path d="M58.2376 17.1806C57.8817 17.1806 57.5515 17.0972 57.2601 16.9293C56.5591 16.5258 56.1709 15.6866 56.1677 14.5657L56.1602 13.0795C56.1602 13.0365 56.1826 12.9968 56.2199 12.9754L63.2554 8.91351C63.2927 8.89204 63.338 8.89225 63.3744 8.9133C63.4118 8.93456 63.4347 8.97381 63.4347 9.01626L63.4422 10.5028C63.4487 12.7701 61.8491 15.541 59.8763 16.6801C59.3006 17.0128 58.743 17.1806 58.2376 17.1806ZM56.3998 13.1478L56.4068 14.5648C56.4096 15.597 56.7552 16.3632 57.3792 16.7221C58.0087 17.0838 58.8522 16.9951 59.7569 16.4734C61.6638 15.3723 63.2097 12.6945 63.2031 10.5039L63.1966 9.22351L56.3998 13.1478Z" fill="#373B42"/>
<path d="M4.57668 33.0012C4.5179 32.7346 4.78983 31.9868 4.78983 31.9868L14.072 37.4473L4.59579 41.9083L4.57668 33.0012Z" fill="#FFBE2E"/>
<path d="M4.59514 42.0277C4.5727 42.0277 4.55074 42.0214 4.53115 42.0093C4.49662 41.9873 4.47557 41.9492 4.47557 41.9084L4.45688 33.0132C4.40318 32.7128 4.64835 32.0247 4.67684 31.946C4.68899 31.9125 4.71561 31.8864 4.74875 31.8743C4.78189 31.8621 4.81926 31.8658 4.85011 31.8838L14.1325 37.3442C14.1708 37.3667 14.1932 37.4084 14.1914 37.4526C14.189 37.497 14.1629 37.5365 14.1227 37.5554L4.64606 42.0163C4.62966 42.024 4.61237 42.0277 4.59514 42.0277ZM4.85476 32.1641C4.76229 32.446 4.66142 32.8313 4.69317 32.9756C4.69504 32.984 4.69594 32.9924 4.69594 33.001L4.71415 41.7199L13.8158 37.4355L4.85476 32.1641Z" fill="#373B42"/>
<path d="M10.3438 53.6089L25.1776 45.0454L23.7874 53.2496C23.6845 53.9115 23.2267 54.6066 22.6953 54.9134L12.8758 60.5822C12.3444 60.889 11.8842 60.7237 11.7778 60.1828L10.3438 53.6089ZM22.1629 52.7489L22.1516 48.7452C22.1509 48.5023 22.0637 48.3373 21.9284 48.2578C21.7891 48.183 21.5996 48.1928 21.3902 48.3137C20.9715 48.5554 20.6344 49.1392 20.6358 49.6203L20.6471 53.6239C20.6485 54.105 20.9877 54.2983 21.4065 54.0566C21.8252 53.8149 22.1643 53.2299 22.1629 52.7489ZM14.908 56.9371L14.8967 52.9335C14.896 52.6906 14.8108 52.5243 14.6735 52.446C14.5382 52.3689 14.3487 52.3787 14.1393 52.4996C13.7207 52.7413 13.3815 53.3263 13.3829 53.8073L13.3942 57.811C13.3956 58.292 13.7368 58.4842 14.1556 58.2425C14.5743 58.0008 14.9094 57.4181 14.908 56.9371ZM18.5335 54.8442L18.5221 50.8405C18.5214 50.5976 18.4363 50.4314 18.299 50.3531C18.1636 50.276 17.9722 50.2869 17.7648 50.4067C17.3461 50.6484 17.009 51.2322 17.0104 51.7133L17.0217 55.7169C17.0231 56.198 17.3623 56.3913 17.7811 56.1496C18.1998 55.9079 18.5349 55.3251 18.5335 54.8442Z" fill="#FFBE2E"/>
<path d="M25.5247 42.8437C25.8549 42.6531 26.1255 42.8074 26.1266 43.1867L26.1283 43.7996C26.1294 44.1789 25.8605 44.6446 25.5304 44.8351L9.67391 53.989C9.34175 54.1808 9.07316 54.0254 9.07205 53.6461L9.07032 53.0332C9.0692 52.6538 9.33612 52.1893 9.66821 51.9976L25.5247 42.8437Z" fill="#373B42"/>
<path d="M20.2089 40.3907C20.5095 40.2171 20.7959 40.257 20.9184 40.5264L22.751 44.5087C22.9155 44.8629 22.7312 45.4875 22.3395 45.8994C22.2431 46.0013 22.1431 46.0809 22.0448 46.1377C21.7439 46.3114 21.4582 46.2711 21.3342 46.0024L19.5036 42.0191C19.339 41.6649 19.5234 41.0402 19.915 40.6284C20.011 40.5268 20.1108 40.4473 20.2089 40.3907Z" fill="#FFBE2E"/>
<path d="M15.0218 43.3853C15.12 43.3286 15.2198 43.2929 15.316 43.2836C15.7087 43.2426 15.8959 43.6527 15.734 44.1954L13.93 50.2771C13.8093 50.687 13.5241 51.0568 13.2236 51.2303C13.1254 51.287 13.0256 51.3227 12.9294 51.3321C12.5367 51.373 12.3494 50.9629 12.5114 50.4202L14.3154 44.3385C14.4361 43.9287 14.7213 43.5588 15.0218 43.3853Z" fill="#FFBE2E"/>
<path d="M22.2236 45.3996C22.3102 45.2497 22.3578 45.0905 22.3578 44.9514C22.3579 44.8262 22.3198 44.7353 22.2508 44.6953C22.1826 44.6557 22.0864 44.6677 21.9798 44.7288C21.8594 44.7978 21.7453 44.9187 21.6584 45.0693C21.5714 45.2201 21.5234 45.3803 21.5234 45.5203C21.5234 45.644 21.5613 45.7341 21.6299 45.7738C21.6983 45.8135 21.7947 45.8017 21.9015 45.7405C22.0223 45.6713 22.1366 45.5502 22.2236 45.3996Z" fill="#373B42"/>
<path d="M13.5556 50.4692C13.6422 50.3193 13.6899 50.1601 13.6899 50.021C13.6899 49.8958 13.6518 49.8049 13.5828 49.7648C13.5146 49.7253 13.4184 49.7373 13.3118 49.7983C13.1915 49.8674 13.0774 49.9883 12.9905 50.1388C12.9034 50.2897 12.8554 50.4499 12.8555 50.5899C12.8555 50.7136 12.8933 50.8036 12.9619 50.8434C13.0303 50.8831 13.1268 50.8713 13.2335 50.8102C13.3543 50.7408 13.4687 50.6197 13.5556 50.4692Z" fill="#373B42"/>
<path d="M29.9164 37.0826C29.8752 37.0826 29.8351 37.0614 29.8131 37.0231C29.78 36.9661 29.7991 36.8928 29.8561 36.8596L49.9892 25.1596C50.0466 25.1265 50.1194 25.1454 50.1526 25.203C50.1858 25.26 50.1667 25.3334 50.1097 25.3665L29.9766 37.0665C29.9575 37.0775 29.9369 37.0826 29.9164 37.0826Z" fill="#212121"/>
<path d="M29.9164 40.4936C29.8752 40.4936 29.8351 40.4724 29.8131 40.4341C29.78 40.3771 29.7991 40.3037 29.8561 40.2706L49.9892 28.5706C50.0466 28.5377 50.1194 28.5566 50.1526 28.614C50.1858 28.671 50.1667 28.7443 50.1097 28.7775L29.9766 40.4775C29.9575 40.4885 29.9369 40.4936 29.9164 40.4936Z" fill="#212121"/>
<path d="M29.9164 43.9042C29.8752 43.9042 29.8351 43.8829 29.8131 43.8446C29.78 43.7876 29.7991 43.7143 29.8561 43.6811L49.9892 31.9811C50.0466 31.948 50.1194 31.9669 50.1526 32.0246C50.1858 32.0815 50.1667 32.1549 50.1097 32.188L29.9766 43.888C29.9575 43.899 29.9369 43.9042 29.9164 43.9042Z" fill="#212121"/>
<path d="M46.9201 36.1648C47.1707 36.0202 47.374 36.136 47.3749 36.424L47.389 41.406C47.3898 41.6939 47.1878 42.0439 46.9372 42.1886L33.0461 50.3644C32.7984 50.5074 32.595 50.3916 32.5942 50.1036L32.5801 45.1215C32.5792 44.8336 32.7813 44.4837 33.029 44.3406L46.9201 36.1648Z" fill="#FFBE2E"/>
<g opacity="0.1">
<path d="M102.235 85.9815L78.1152 99.9998H78.1119L68.1035 94.2205L92.2231 80.2021H92.2264L102.235 85.9815Z" fill="black"/>
</g>
<path d="M74.3526 61.9808L74.268 91.8338L69.252 92.4279L71.2261 61.7126L74.3526 61.9808Z" fill="#FFBE2E"/>
<path d="M69.2522 92.5474C69.2218 92.5474 69.1924 92.5357 69.17 92.5147C69.1443 92.4902 69.1307 92.4556 69.1331 92.4201L71.1073 61.7049C71.1092 61.6729 71.1241 61.643 71.1483 61.622C71.1727 61.6012 71.2048 61.5905 71.2366 61.5935L74.363 61.8618C74.4251 61.8672 74.4723 61.919 74.4723 61.9812L74.3878 91.8341C74.3878 91.8945 74.3425 91.9454 74.2822 91.9524L69.2663 92.5465C69.2615 92.5472 69.2568 92.5474 69.2522 92.5474ZM71.338 61.8422L69.3806 92.2922L74.1491 91.7276L74.2327 62.0907L71.338 61.8422Z" fill="#373B42"/>
<path d="M77.4707 65.3179L101.591 51.3008L103.382 84.19L79.2621 98.2072L77.4707 65.3179Z" fill="#FFBE2E"/>
<path d="M79.2629 98.3269C79.2433 98.3269 79.2236 98.3222 79.2059 98.3126C79.1695 98.2928 79.1456 98.2555 79.1433 98.2139L77.3517 65.3245C77.3494 65.2797 77.3723 65.2372 77.4111 65.2145L101.531 51.1973C101.568 51.1763 101.612 51.1759 101.648 51.1955C101.685 51.2153 101.709 51.2526 101.711 51.2943L103.503 84.1836C103.505 84.2284 103.482 84.2709 103.443 84.2936L79.3231 98.3108C79.3045 98.3215 79.2834 98.3269 79.2629 98.3269ZM77.5946 65.3846L79.3717 98.0058L103.26 84.1235L101.483 51.5023L77.5946 65.3846Z" fill="#373B42"/>
<path d="M74.3522 61.981L77.47 65.3179L79.2614 98.2072L74.2676 91.8339L74.3522 61.981Z" fill="#FFBE2E"/>
<path d="M79.2621 98.3268C79.2261 98.3268 79.1911 98.3104 79.1677 98.281L74.1737 91.9075C74.1573 91.8863 74.1484 91.8604 74.1484 91.8335L74.233 61.9806C74.233 61.9316 74.2634 61.8875 74.3086 61.8695C74.3563 61.8522 74.4072 61.8638 74.4399 61.8991L77.5579 65.2361C77.577 65.2567 77.5882 65.2833 77.5901 65.3113L79.3816 98.2006C79.3844 98.2527 79.3532 98.3008 79.3041 98.319C79.2906 98.3242 79.2761 98.3268 79.2621 98.3268ZM74.3876 91.7927L79.122 97.8348L77.3533 65.3679L74.4712 62.2831L74.3876 91.7927Z" fill="#373B42"/>
<path d="M79.2603 98.2085L69.252 92.4286L74.2675 91.8354L79.2603 98.2085Z" fill="#373B42"/>
<path d="M79.2611 98.3281C79.2405 98.3281 79.22 98.3229 79.2013 98.312L69.1927 92.5321C69.1479 92.5064 69.125 92.4551 69.1352 92.4046C69.1455 92.3542 69.1871 92.3159 69.2385 92.3101L74.254 91.7167C74.2942 91.7116 74.3362 91.7291 74.3624 91.7615L79.3555 98.1347C79.3905 98.1798 79.3891 98.2435 79.3513 98.287C79.3279 98.3138 79.2947 98.3281 79.2611 98.3281ZM69.6237 92.505L78.7861 97.7961L74.2152 91.9619L69.6237 92.505Z" fill="#373B42"/>
<path d="M71.2246 61.7114L74.3504 61.9814L77.4685 65.3162L95.3405 54.9305V47.6951L71.2246 61.7114Z" fill="#D59914"/>
<path d="M77.4689 65.4359C77.4366 65.4359 77.4049 65.4228 77.3815 65.398L74.2949 62.0965L71.2148 61.8306C71.163 61.8261 71.12 61.7885 71.1083 61.7376C71.0971 61.6867 71.12 61.6344 71.1648 61.608L95.2808 47.5917C95.3182 47.5703 95.3635 47.5705 95.4008 47.5915C95.4377 47.613 95.4606 47.6525 95.4606 47.6952V54.9305C95.4606 54.973 95.4378 55.0125 95.4013 55.034L77.5292 65.4197C77.5099 65.4305 77.4894 65.4359 77.4689 65.4359ZM71.6117 61.6249L74.3612 61.8623C74.3906 61.8649 74.4181 61.8782 74.4382 61.8997L77.4912 65.165L95.2214 54.8617V47.9031L71.6117 61.6249Z" fill="#373B42"/>
<path d="M101.59 51.3001L97.1367 53.8858V50.2695L101.59 51.3001Z" fill="#D59914"/>
<path d="M97.1371 54.0053C97.1166 54.0053 97.096 53.9999 97.0773 53.9894C97.0404 53.9679 97.0176 53.9284 97.0176 53.8857V50.2695C97.0176 50.2331 97.0344 50.1985 97.0629 50.1758C97.0909 50.1534 97.1282 50.1447 97.1642 50.1529L101.617 51.1835C101.665 51.1947 101.701 51.2337 101.708 51.2823C101.716 51.3308 101.692 51.3787 101.65 51.4035L97.1974 53.9893C97.1787 53.9999 97.1576 54.0053 97.1371 54.0053ZM97.2567 50.4199V53.6782L101.269 51.3483L97.2567 50.4199Z" fill="#373B42"/>
<path d="M95.3418 47.6951V54.9305L97.1366 53.8875V50.2694L95.3418 47.6951Z" fill="#373B42"/>
<path d="M95.3422 55.05C95.3217 55.05 95.3011 55.0447 95.2825 55.0342C95.2456 55.0127 95.2227 54.9732 95.2227 54.9305V47.6952C95.2227 47.6429 95.2568 47.5969 95.3062 47.5812C95.3562 47.5656 95.4099 47.5836 95.4402 47.6267L97.2351 50.2011C97.2491 50.2212 97.2565 50.245 97.2565 50.2695V53.8876C97.2565 53.9301 97.2336 53.9696 97.1972 53.9911L95.4024 55.034C95.3838 55.0447 95.3627 55.05 95.3422 55.05ZM95.4617 48.0758V54.7226L97.0174 53.8187V50.307L95.4617 48.0758Z" fill="#373B42"/>
<path d="M97.1153 58.1369C97.6949 57.8024 98.2568 58.1136 98.3685 58.8312C98.4803 59.5488 98.0996 60.4011 97.52 60.7357C96.9404 61.0704 96.3813 60.7607 96.2696 60.0431C96.1579 59.3254 96.5358 58.4715 97.1153 58.1369Z" fill="#FFBE2E"/>
<path d="M97.0575 60.9902C96.9347 60.9902 96.8156 60.9638 96.7044 60.9108C96.4153 60.7723 96.214 60.4629 96.1515 60.0615C96.0328 59.2992 96.4387 58.3895 97.0556 58.0333C97.3555 57.8603 97.6665 57.8351 97.9323 57.9623C98.2218 58.1013 98.4241 58.4111 98.4866 58.8126C98.6048 59.5731 98.1979 60.4822 97.5796 60.839C97.4059 60.9396 97.2279 60.9902 97.0575 60.9902ZM97.5773 58.1221C97.4484 58.1221 97.3111 58.1618 97.1752 58.2403C96.6362 58.5516 96.2831 59.3518 96.3878 60.0246C96.4377 60.3471 96.5909 60.5914 96.8076 60.6951C96.9987 60.7868 97.2308 60.7649 97.46 60.6323C98.0004 60.3203 98.3549 59.5207 98.2502 58.8496C98.2003 58.5271 98.0466 58.2824 97.829 58.1783C97.7506 58.1408 97.666 58.1221 97.5773 58.1221Z" fill="#373B42"/>
<path d="M83.6329 65.8638C84.2125 65.5291 84.7743 65.8404 84.8861 66.558C84.9979 67.2756 84.6171 68.128 84.0376 68.4626C83.458 68.7972 82.8989 68.4875 82.7871 67.7699C82.6754 67.0522 83.0534 66.1984 83.6329 65.8638Z" fill="#FFBE2E"/>
<path d="M83.5756 68.717C83.4527 68.717 83.3337 68.6906 83.2225 68.6376C82.9334 68.4993 82.7316 68.1897 82.669 67.7881C82.5504 67.0261 82.9563 66.1163 83.5732 65.7601C83.8731 65.5871 84.1836 65.5619 84.4493 65.6891C84.7394 65.8279 84.9421 66.1377 85.0047 66.5394C85.1228 67.3 84.716 68.2091 84.0977 68.5658C83.9239 68.6664 83.746 68.717 83.5756 68.717ZM84.0953 65.8489C83.9659 65.8489 83.8287 65.8886 83.6927 65.9671C83.1537 66.2784 82.8006 67.0786 82.9053 67.7512C82.9557 68.0737 83.1089 68.3182 83.3256 68.4219C83.5166 68.5132 83.7483 68.4915 83.978 68.3591C84.5184 68.0471 84.8729 67.2475 84.7682 66.5764C84.7178 66.2539 84.5641 66.0092 84.346 65.9051C84.2682 65.8676 84.1836 65.8489 84.0953 65.8489Z" fill="#373B42"/>
<path d="M88.2179 77.1168C87.5057 77.1168 86.8364 76.9533 86.2339 76.6238C84.7506 75.8132 83.8749 74.1169 83.7689 71.8478L83.4867 67.7597C83.4774 67.5619 83.6301 67.3939 83.8281 67.3846C84.0047 67.375 84.1943 67.5275 84.2032 67.726L84.4852 71.8142C84.5796 73.8239 85.3226 75.3084 86.5775 75.9945C87.7932 76.6586 89.3709 76.4991 91.0219 75.5461C94.6148 73.4736 97.3764 68.3414 97.1784 64.1053L96.8963 60.0172C96.8869 59.8194 97.0397 59.6514 97.2377 59.6421C97.4184 59.6344 97.6034 59.7852 97.6127 59.9835L97.8948 64.0718C98.1045 68.5486 95.1822 73.9749 91.3805 76.1676C90.2878 76.7982 89.2113 77.1168 88.2179 77.1168Z" fill="#373B42"/>
</svg>
