<svg width="99" height="88" viewBox="0 0 99 88" fill="none" xmlns="http://www.w3.org/2000/svg">
<path d="M16.8112 49.824L9.65185 30.6935C9.22475 29.4842 8.3465 28.4869 7.20089 27.9104C6.05529 27.3338 4.73109 27.2227 3.50541 27.6002C2.27973 27.9777 1.24754 28.8147 0.624849 29.9358C0.00215397 31.057 -0.162795 32.3756 0.164518 33.6156L6.98293 61.3276C7.91578 65.1526 10.2747 68.4768 13.5773 70.6201L25.8504 78.6269L27.7986 86.6921C27.8735 87.0097 28.0541 87.2925 28.3106 87.4942C28.5672 87.696 28.8846 87.8046 29.2109 87.8025C29.3274 87.8169 29.4452 87.8169 29.5616 87.8025L44.8933 84.0427C45.0803 83.997 45.2564 83.9149 45.4116 83.801C45.5668 83.6871 45.6979 83.5437 45.7975 83.379C45.897 83.2142 45.9631 83.0314 45.9918 82.8411C46.0205 82.6508 46.0113 82.4566 45.9648 82.2699L42.4094 67.698C41.9907 65.982 41.2273 64.3692 40.1657 62.9576C39.104 61.5459 37.7663 60.365 36.2339 59.4866L20.1035 50.3987C19.1082 49.8248 17.9421 49.6212 16.8112 49.824ZM39.5944 68.3993L42.8088 81.5101L30.3116 84.5784L28.5486 77.3704C28.4598 77.0095 28.2369 76.696 27.9252 76.4937L15.1358 68.1752C12.4578 66.4333 10.5426 63.738 9.77848 60.636L2.96007 32.9241C2.83355 32.3946 2.92119 31.8367 3.20393 31.3715C3.48667 30.9064 3.94163 30.5717 4.46986 30.4402C4.62922 30.401 4.79277 30.3814 4.95689 30.3818C5.3794 30.377 5.79312 30.5025 6.14172 30.7413C6.49032 30.9801 6.75684 31.3205 6.905 31.7162L14.1812 51.1974C13.9818 51.3891 13.7993 51.5977 13.6357 51.8208C13.2341 52.3803 12.9531 53.0172 12.8108 53.6911C12.6684 54.365 12.6677 55.0611 12.8088 55.7353C12.9499 56.4095 13.2296 57.0469 13.6302 57.6072C14.0308 58.1675 14.5435 58.6383 15.1358 58.9899L27.2044 66.0323L28.6752 63.5095L16.6359 56.4671C16.3958 56.3226 16.188 56.1304 16.0253 55.9023C15.8627 55.6743 15.7486 55.4152 15.6901 55.1412C15.6317 54.8673 15.6301 54.5842 15.6856 54.3096C15.741 54.035 15.8523 53.7747 16.0125 53.5449C16.3036 53.1369 16.7363 52.852 17.2262 52.7458C17.716 52.6395 18.2278 52.7195 18.6619 52.9702L34.7923 62.0971C35.9779 62.7675 37.015 63.6718 37.8405 64.7551C38.666 65.8385 39.2627 67.0783 39.5944 68.3993ZM56.0463 67.698L52.4812 82.2309C52.4347 82.4177 52.4255 82.6118 52.4542 82.8021C52.4829 82.9925 52.5489 83.1753 52.6485 83.34C52.7481 83.5047 52.8792 83.6482 53.0344 83.7621C53.1895 83.876 53.3657 83.9581 53.5527 84.0037L68.8649 87.7343C69.2395 87.8213 69.6331 87.7621 69.9656 87.5688C70.1306 87.4693 70.2741 87.338 70.3878 87.1824C70.5016 87.0269 70.5832 86.8503 70.6279 86.6629L72.576 78.5977L84.8687 70.5909C88.1712 68.4475 90.5302 65.1234 91.463 61.2984L98.2815 33.5864C98.6088 32.3464 98.4438 31.0278 97.8211 29.9066C97.1984 28.7854 96.1662 27.9485 94.9406 27.571C93.7149 27.1935 92.3907 27.3046 91.2451 27.8811C90.0995 28.4577 89.2212 29.4549 88.7941 30.6642L81.6445 49.824C80.5136 49.6263 79.3492 49.8295 78.3522 50.3987L62.2218 59.4866C60.6894 60.365 59.3517 61.5459 58.29 62.9576C57.2284 64.3692 56.465 65.982 56.0463 67.698ZM79.8133 52.941C80.2479 52.6925 80.7591 52.6138 81.2483 52.7199C81.7375 52.826 82.1701 53.1095 82.4627 53.5157C82.6229 53.7455 82.7342 54.0058 82.7896 54.2804C82.8451 54.555 82.8435 54.838 82.7851 55.112C82.7266 55.386 82.6125 55.645 82.4498 55.8731C82.2872 56.1012 82.0794 56.2934 81.8393 56.4378L69.761 63.5095L71.2318 66.0323L83.3199 58.9899C83.9173 58.6394 84.4348 58.1679 84.8391 57.6056C85.2435 57.0433 85.5259 56.4027 85.668 55.7249C85.8102 55.0471 85.8091 54.347 85.6647 53.6696C85.5203 52.9922 85.2359 52.3525 84.8297 51.7916C84.6661 51.5685 84.4836 51.3599 84.2842 51.1682L91.5604 31.687C91.7668 31.2302 92.1329 30.8646 92.5899 30.6589C93.0469 30.4531 93.5634 30.4215 94.0421 30.5699C94.5208 30.7183 94.9288 31.0365 95.1893 31.4647C95.4498 31.8929 95.5449 32.4015 95.4567 32.8948L88.6383 60.6068C87.8905 63.7133 85.9892 66.4191 83.3199 68.1752L70.5305 76.4937C70.2188 76.696 69.9959 77.0095 69.9071 77.3704L68.1441 84.5784L55.6469 81.5101L58.8613 68.3993C59.1894 67.073 59.7845 65.8275 60.6102 64.7389C61.4358 63.6503 62.4747 62.7415 63.6634 62.0679L79.8133 52.941ZM70.6572 0.000875039H27.7986C26.6368 0.00344808 25.5234 0.46608 24.702 1.28754C23.8805 2.10901 23.4179 3.22242 23.4153 4.38414V11.9818C23.4153 12.3693 23.5692 12.7409 23.8432 13.0149C24.1172 13.2889 24.4889 13.4429 24.8764 13.4429H25.8504V46.22C25.8504 47.1241 26.2096 47.9913 26.849 48.6306C27.4883 49.27 28.3555 49.6292 29.2596 49.6292H69.2935C70.1976 49.6292 71.0648 49.27 71.7041 48.6306C72.3435 47.9913 72.7027 47.1241 72.7027 46.22V13.4429H73.6767C74.0642 13.4429 74.4359 13.2889 74.7099 13.0149C74.9839 12.7409 75.1378 12.3693 75.1378 11.9818V4.38414C75.1366 3.80061 75.0192 3.22316 74.7924 2.68552C74.5656 2.14787 74.234 1.66079 73.8168 1.25274C73.3997 0.844676 72.9055 0.523809 72.363 0.308871C71.8204 0.093932 71.2406 -0.0107709 70.6572 0.000875039ZM26.2595 4.38414C26.2595 3.99663 26.4135 3.625 26.6875 3.35099C26.9615 3.07699 27.3331 2.92305 27.7206 2.92305H70.6572C71.0447 2.92305 71.4163 3.07699 71.6903 3.35099C71.9643 3.625 72.1182 3.99663 72.1182 4.38414V10.5207H26.2985L26.2595 4.38414ZM43.6952 13.4429H54.7215V23.0374C54.7215 23.0374 54.7215 23.1153 54.7215 23.1445L50.9422 20.2223C50.4549 19.8432 49.855 19.6374 49.2376 19.6374C48.6202 19.6374 48.0203 19.8432 47.533 20.2223L43.7536 23.1445C43.7536 23.1445 43.7536 23.0763 43.7536 23.0374L43.6952 13.4429ZM69.7318 46.22C69.7318 46.3491 69.6805 46.473 69.5891 46.5643C69.4978 46.6557 69.3739 46.707 69.2448 46.707H29.2109C29.0818 46.707 28.9579 46.6557 28.8666 46.5643C28.7752 46.473 28.7239 46.3491 28.7239 46.22V13.4429H40.812V23.0374C40.8007 23.6161 40.9528 24.1863 41.2509 24.6825C41.5489 25.1787 41.9809 25.5808 42.4971 25.8427C42.8771 26.0256 43.2929 26.1221 43.7147 26.1251C44.3321 26.1253 44.9319 25.9196 45.4193 25.5407L49.2279 22.6185L53.0364 25.5407C53.4465 25.8593 53.9377 26.0565 54.4543 26.1099C54.9709 26.1633 55.492 26.0707 55.9586 25.8427C56.4748 25.5808 56.9068 25.1787 57.2049 24.6825C57.5029 24.1863 57.655 23.6161 57.6437 23.0374V13.4429H69.7318V46.22ZM38.3671 36.4112H32.1429V33.489H38.3671V36.4112ZM32.1429 39.5379H44.5816V42.4601H32.1429V39.5379Z" fill="black"/>
</svg>
