<svg width="230" height="230" viewBox="0 0 230 230" fill="none" xmlns="http://www.w3.org/2000/svg">
<mask id="mask0_3191_17695" style="mask-type:alpha" maskUnits="userSpaceOnUse" x="0" y="0" width="230" height="230">
<rect width="230" height="230" fill="#D9D9D9"/>
</mask>
<g mask="url(#mask0_3191_17695)">
<path d="M72.3715 199.93C72.3096 199.93 72.2491 199.898 72.215 199.841C72.1637 199.754 72.1921 199.642 72.2783 199.591L107.929 178.451C108.39 178.183 108.643 177.838 108.643 177.479C108.642 177.117 108.385 176.769 107.918 176.5L94.062 168.5C93.9752 168.45 93.9453 168.339 93.9951 168.251C94.0456 168.163 94.1582 168.135 94.2442 168.185L108.1 176.184C108.685 176.521 109.006 176.981 109.007 177.479C109.008 177.973 108.69 178.43 108.114 178.766L72.4647 199.904C72.4356 199.922 72.4035 199.93 72.3715 199.93Z" fill="#DBDEE4"/>
<path d="M177.754 205.51C176.731 205.51 175.707 205.284 174.926 204.833L155.564 193.654C155.477 193.604 155.447 193.493 155.497 193.406C155.548 193.318 155.66 193.289 155.746 193.339L175.108 204.518C176.57 205.361 178.94 205.362 180.391 204.518L199.627 193.339C199.715 193.289 199.826 193.318 199.877 193.405C199.927 193.492 199.898 193.604 199.811 193.654L180.575 204.833C179.798 205.284 178.777 205.51 177.754 205.51Z" fill="#DBDEE4"/>
<path d="M80.8904 70.4839L30.3896 99.8317L30.4541 77.1176" fill="white"/>
<path d="M30.3902 100.014C30.3589 100.014 30.3275 100.006 30.2991 99.9895C30.2429 99.9571 30.208 99.8966 30.208 99.8315L30.2728 77.1174C30.2728 77.0167 30.3547 76.9355 30.4551 76.9355C30.4551 76.9355 30.455 76.9355 30.4558 76.9355C30.5562 76.9358 30.6373 77.0178 30.6373 77.118L30.5732 99.5147L80.7993 70.3263C80.8861 70.2762 80.9978 70.305 81.0483 70.3926C81.0988 70.4794 81.0697 70.5912 80.9829 70.6417L30.4821 99.9895C30.4535 100.006 30.4216 100.014 30.3902 100.014Z" fill="#373B42"/>
<path d="M30.4533 77.1182L30.3889 99.8323L25.4648 96.9894L25.5292 74.2705" fill="#FFBE2E"/>
<path d="M30.3882 100.015C30.3569 100.015 30.3255 100.007 30.2971 99.9906L25.3733 97.1475C25.3171 97.1151 25.2822 97.0546 25.2822 96.9895L25.3463 74.2708C25.3463 74.1701 25.4281 74.0889 25.5285 74.0889C25.5285 74.0889 25.5285 74.0889 25.5293 74.0889C25.6296 74.0892 25.7108 74.171 25.7108 74.2714L25.6468 96.8848L30.2068 99.5179L30.2709 77.1184C30.2709 77.0177 30.3528 76.9365 30.4531 76.9365C30.4531 76.9365 30.4531 76.9365 30.4539 76.9365C30.5543 76.9369 30.6353 77.0188 30.6353 77.1191L30.5705 99.8332C30.5705 99.8984 30.5356 99.9585 30.4794 99.9909C30.4509 100.007 30.4195 100.015 30.3882 100.015Z" fill="#373B42"/>
<g opacity="0.1">
<path d="M62.0831 169.736C61.0188 170.35 61.0133 171.345 62.0706 171.96L80.3795 182.614C81.4369 183.229 83.155 183.229 84.2192 182.614L113.251 165.853C114.315 165.239 114.32 164.243 113.263 163.629L94.9541 152.975C93.8967 152.36 92.1787 152.36 91.1143 152.974L62.0831 169.736Z" fill="black"/>
</g>
<path d="M114.054 160.722C114.054 161.403 113.815 161.88 113.424 162.105L84.8718 178.698C85.2627 178.473 85.4943 177.995 85.5016 177.322C85.5016 175.954 84.5387 174.281 83.3515 173.601L67.6104 164.507C67.4511 164.412 67.3136 164.297 67.2049 164.174C66.966 163.898 66.8429 163.587 66.7778 163.384C66.6909 163.117 66.6113 162.668 66.8791 162.436L95.4819 145.807C95.1634 146.032 95.2501 146.502 95.3371 146.792C95.395 146.987 95.5108 147.298 95.757 147.573C95.8657 147.704 96.0031 147.82 96.1696 147.914L111.903 157.001C113.098 157.682 114.061 159.361 114.054 160.722Z" fill="#FFF7E4"/>
<path d="M84.8714 178.879C84.8087 178.879 84.7475 178.846 84.7134 178.788C84.6635 178.701 84.6927 178.59 84.7796 178.539L84.7897 178.534C85.1249 178.336 85.3128 177.905 85.3193 177.32C85.3193 176.008 84.396 174.41 83.2613 173.759L67.519 164.664C67.3474 164.562 67.1922 164.434 67.0684 164.294C66.8677 164.062 66.7117 163.775 66.6042 163.439C66.4427 162.94 66.4989 162.524 66.7594 162.298L95.3897 145.649C95.4745 145.6 95.5819 145.626 95.6346 145.708C95.6873 145.79 95.6666 145.899 95.5869 145.956C95.3755 146.105 95.4288 146.464 95.5114 146.739C95.5954 147.023 95.7236 147.263 95.893 147.452C95.9955 147.574 96.1172 147.675 96.2595 147.755L111.995 156.843C113.238 157.551 114.243 159.292 114.236 160.723C114.236 161.449 113.979 161.996 113.514 162.263L84.9732 178.849C84.9696 178.851 84.9661 178.853 84.9617 178.855C84.9333 178.871 84.9021 178.879 84.8714 178.879ZM95.0763 146.253L66.9707 162.593C66.7871 162.756 66.9088 163.197 66.9515 163.328C67.0434 163.617 67.1751 163.861 67.3424 164.054C67.4406 164.165 67.5659 164.268 67.7032 164.349L83.4428 173.443C84.6785 174.151 85.6836 175.892 85.6836 177.322C85.6808 177.606 85.6395 177.862 85.5633 178.084L113.332 161.947C113.68 161.747 113.871 161.312 113.871 160.722C113.871 160.721 113.871 160.721 113.871 160.721C113.877 159.43 112.936 157.798 111.813 157.159L96.0786 148.071C95.9 147.97 95.744 147.842 95.6174 147.69C95.4159 147.465 95.2615 147.179 95.1625 146.843C95.0913 146.606 95.0678 146.412 95.0763 146.253Z" fill="#373B42"/>
<path d="M111.905 157C113.099 157.681 114.062 159.36 114.055 160.721C114.055 161.402 113.816 161.879 113.425 162.104L84.8728 178.696C85.2637 178.472 85.4954 177.994 85.5026 177.321C85.5026 175.953 84.5397 174.28 83.3525 173.6" fill="#212121"/>
<path d="M84.8728 178.878C84.8101 178.878 84.749 178.845 84.7148 178.787C84.665 178.7 84.6942 178.589 84.7811 178.538L84.7903 178.533C85.1263 178.335 85.3142 177.905 85.3206 177.319C85.3206 176.007 84.3974 174.409 83.2626 173.758C83.1751 173.707 83.1451 173.596 83.195 173.509C83.2449 173.421 83.3559 173.392 83.4434 173.441C84.6799 174.15 85.685 175.891 85.685 177.321C85.6822 177.605 85.6409 177.861 85.5647 178.083L113.333 161.946C113.681 161.746 113.872 161.311 113.872 160.72C113.879 159.428 112.937 157.797 111.815 157.158C111.727 157.108 111.697 156.997 111.747 156.91C111.797 156.822 111.907 156.792 111.995 156.841C113.239 157.55 114.245 159.29 114.237 160.721C114.237 161.447 113.981 161.995 113.515 162.261L84.9746 178.847C84.971 178.85 84.9675 178.852 84.9632 178.854C84.9347 178.87 84.9035 178.878 84.8728 178.878Z" fill="#212121"/>
<path d="M68.9806 142.177C70.1749 142.866 71.1332 144.531 71.1294 145.898L71.1003 156.134C71.0932 158.631 70.2414 160.496 68.6973 161.371L66.9757 162.357C66.5993 162.572 66.6843 163.087 66.7784 163.385C66.8639 163.677 67.0869 164.208 67.613 164.512L83.3503 173.597C84.536 174.281 85.5029 175.956 85.499 177.318C85.4952 178.691 84.522 179.236 83.3363 178.551L67.599 169.466C65.4821 168.244 63.5891 165.697 62.785 162.975C61.9809 160.257 62.4364 157.95 63.9331 157.087L65.659 156.114C66.3857 155.699 66.7854 154.824 66.7887 153.645L66.8177 143.409C66.8217 142.042 67.7949 141.492 68.9806 142.177Z" fill="#212121"/>
<path d="M84.3036 179.03C83.9755 179.03 83.6152 178.923 83.2457 178.709L67.5084 169.624C65.3486 168.377 63.4266 165.788 62.6101 163.026C61.7837 160.231 62.267 157.838 63.8423 156.929L65.5699 155.955C66.2355 155.576 66.6035 154.755 66.6071 153.644L66.6363 143.409C66.6384 142.683 66.8954 142.136 67.3609 141.868C67.83 141.599 68.4387 141.653 69.0723 142.019C70.3108 142.734 71.316 144.475 71.3125 145.899L71.2833 156.134C71.2762 158.706 70.3899 160.622 68.7875 161.53L67.067 162.516C66.7831 162.678 66.8919 163.139 66.9525 163.33C67.0315 163.597 67.2322 164.081 67.7049 164.354L83.4423 173.439C84.6816 174.155 85.686 175.896 85.6817 177.319C85.6796 178.046 85.4234 178.593 84.9585 178.861C84.762 178.974 84.5414 179.03 84.3036 179.03ZM68.0174 142.064C67.8423 142.064 67.6828 142.104 67.5426 142.184C67.1946 142.384 67.0023 142.82 67.0009 143.41L66.9717 153.645C66.9682 154.893 66.534 155.825 65.7502 156.272L64.0233 157.246C62.6003 158.066 62.1824 160.295 62.9598 162.923C63.7507 165.599 65.6078 168.106 67.6907 169.308L83.4281 178.394C83.947 178.693 84.4254 178.747 84.777 178.545C85.1237 178.345 85.3159 177.91 85.3173 177.319C85.3216 176.011 84.3984 174.412 83.2601 173.755L67.5227 164.67C66.9404 164.334 66.6969 163.753 66.6037 163.437C66.4214 162.858 66.524 162.406 66.8862 162.199L68.6075 161.214C70.0909 160.372 70.9117 158.568 70.9188 156.134L70.948 145.898C70.9516 144.59 70.0283 142.992 68.89 142.335C68.5783 142.155 68.2815 142.064 68.0174 142.064Z" fill="#373B42"/>
<path d="M97.2565 144.777C98.7962 143.899 99.6538 142.035 99.6606 139.537L99.6876 129.306C99.6876 127.935 98.7354 126.274 97.5402 125.585C96.9391 125.234 96.3989 125.207 96.0073 125.437L67.4493 142.029C67.8409 141.799 68.3879 141.833 68.9821 142.177C70.1774 142.866 71.1363 144.534 71.1295 145.898L71.1025 156.135C71.0957 158.465 70.353 160.241 69.0024 161.173C68.9956 161.186 68.9889 161.193 68.9821 161.193L66.9765 162.355C66.9427 162.375 66.9089 162.395 66.8818 162.436L95.4805 145.81L97.2565 144.777Z" fill="#FFF7E4"/>
<path d="M66.8814 162.617C66.8323 162.617 66.7838 162.598 66.749 162.56C66.6906 162.498 66.6828 162.405 66.7297 162.334C66.7788 162.26 66.8394 162.224 66.88 162.199L68.8703 161.046C68.8788 161.037 68.8881 161.029 68.8987 161.022C70.1957 160.127 70.9132 158.391 70.9197 156.134L70.9467 145.897C70.9538 144.589 70.0313 142.991 68.8902 142.334C68.3805 142.038 67.8909 141.983 67.547 142.181L67.5405 142.185C67.4522 142.235 67.3412 142.206 67.2915 142.119C67.2409 142.033 67.2701 141.921 67.3569 141.87C67.3569 141.87 67.3569 141.87 67.3569 141.87L67.3583 141.869C67.3597 141.868 67.3611 141.868 67.3626 141.867L95.9153 125.278C96.3858 125.003 96.9958 125.055 97.6315 125.427C98.8858 126.15 99.8696 127.854 99.8696 129.305L99.8426 139.536C99.8355 142.103 98.9485 144.02 97.3468 144.934L66.9733 162.593C66.9447 162.609 66.9127 162.617 66.8814 162.617ZM68.3243 141.73C68.5663 141.775 68.8191 141.872 69.0724 142.019C70.3139 142.734 71.3183 144.474 71.3111 145.898L71.2841 156.135C71.2792 157.871 70.8663 159.321 70.101 160.353L97.1637 144.619C97.1645 144.619 97.1651 144.618 97.1651 144.618C98.65 143.772 99.4708 141.967 99.4779 139.536L99.5049 129.305C99.5049 127.994 98.5824 126.396 97.4485 125.743C96.9303 125.44 96.4511 125.387 96.0995 125.593L68.3243 141.73Z" fill="#373B42"/>
<path d="M137.2 28.2029C137.191 24.975 134.907 23.6731 132.097 25.2948L33.1284 82.4349C30.3192 84.0566 28.0495 87.988 28.0586 91.216L28.2479 158.005L137.39 94.9916L137.2 28.2029Z" fill="#373B42"/>
<path d="M28.2475 158.186C28.2162 158.186 28.1849 158.178 28.1564 158.162C28.1002 158.13 28.0653 158.07 28.0653 158.004L27.876 91.2159C27.8667 87.935 30.1817 83.9246 33.0369 82.2767L132.006 25.1368C133.428 24.315 134.775 24.188 135.798 24.777C136.815 25.3621 137.377 26.5784 137.382 28.202L137.571 94.9909C137.571 95.0561 137.537 95.1166 137.48 95.1489L28.3386 158.162C28.3102 158.178 28.2789 158.186 28.2475 158.186ZM134.378 24.7769C133.71 24.7769 132.964 25.0036 132.188 25.4521L33.219 82.5919C30.4649 84.1822 28.2312 88.0503 28.2404 91.2152L28.4291 157.689L137.207 94.8861L137.018 28.2027C137.013 26.7149 136.516 25.6101 135.617 25.0927C135.25 24.8819 134.832 24.7769 134.378 24.7769Z" fill="#373B42"/>
<path d="M30.3447 91.2082C30.3381 88.8003 32.1724 85.6258 34.2704 84.4148L133.24 27.2748C133.851 26.9218 134.239 26.8838 134.378 26.8838C134.868 26.8838 134.909 27.8971 134.91 28.2076L135.096 96.3131L30.5227 156.693L30.3447 91.2082Z" fill="#FFF7E4"/>
<path d="M30.5224 156.875C30.491 156.875 30.4597 156.867 30.4312 156.851C30.375 156.819 30.3401 156.759 30.3401 156.693L30.1621 91.2087C30.1557 88.7447 32.0328 85.4962 34.179 84.2572L133.148 27.1174C133.798 26.7423 134.224 26.7017 134.377 26.7017C135.019 26.7017 135.091 27.7549 135.092 28.2075L135.278 96.3129C135.278 96.3781 135.243 96.4386 135.187 96.4709L30.6136 156.851C30.5849 156.867 30.5537 156.875 30.5224 156.875ZM30.5266 91.2079L30.7038 156.378L134.914 96.2083L134.727 28.2083C134.726 27.6405 134.606 27.0661 134.377 27.0661C134.28 27.0661 133.92 27.0925 133.331 27.4327L34.3612 84.5725C32.3119 85.7556 30.5202 88.8564 30.5266 91.2079Z" fill="#373B42"/>
<path d="M28.248 158.004L28.276 167.885C28.2852 171.113 30.5698 172.415 33.379 170.793L132.348 113.653C135.157 112.031 137.427 108.1 137.418 104.872L137.39 94.9907L28.248 158.004Z" fill="#FFBE2E"/>
<path d="M31.0967 171.675C30.5799 171.675 30.1016 171.554 29.678 171.31C28.6615 170.725 28.0991 169.509 28.0942 167.885L28.0664 158.004C28.0664 157.938 28.1013 157.878 28.1575 157.845L137.299 94.8326C137.356 94.7998 137.424 94.8002 137.481 94.8323C137.538 94.8647 137.572 94.9248 137.572 94.9899L137.6 104.871C137.61 108.152 135.295 112.162 132.439 113.81L33.4707 170.95C32.6371 171.432 31.8285 171.675 31.0967 171.675ZM28.4308 158.108L28.4586 167.884C28.4629 169.372 28.9605 170.477 29.8595 170.994C30.7649 171.515 31.9836 171.388 33.2884 170.635L132.257 113.495C135.011 111.905 137.245 108.037 137.236 104.872L137.209 95.3053L28.4308 158.108Z" fill="#373B42"/>
<path d="M135.721 24.9373C134.794 24.3963 133.516 24.4782 132.098 25.2978L33.127 82.4345C32.3073 82.91 31.5287 83.5902 30.8484 84.3854C30.3648 84.9345 29.9387 85.5328 29.5698 86.1721C29.1109 86.9589 28.742 87.7867 28.4879 88.6228C28.2092 89.4998 28.0534 90.377 28.0616 91.2128L28.2747 167.89C28.2829 169.488 28.8485 170.619 29.7583 171.152L23.8816 167.734C22.9718 167.201 22.4062 166.07 22.398 164.472L22.1849 87.7949C22.1767 86.9671 22.3242 86.0982 22.5948 85.2293C22.857 84.3936 23.2258 83.5656 23.6766 82.7869C24.0537 82.1478 24.4799 81.5331 24.9634 80.9837C25.6437 80.1804 26.4223 79.5004 27.2502 79.0249L126.221 21.8801C127.639 21.0605 128.918 20.9949 129.844 21.5278L135.721 24.9373Z" fill="#212121"/>
<path d="M29.7588 171.334C29.7275 171.334 29.6962 171.326 29.667 171.31L23.7907 167.892C22.7835 167.301 22.2247 166.087 22.2168 164.473L22.0032 87.7956C21.9954 86.9738 22.1364 86.0915 22.4218 85.1754C22.6853 84.3337 23.0546 83.4994 23.5195 82.696C23.9331 81.9959 24.373 81.3798 24.8279 80.8633C25.5348 80.0284 26.3419 79.3371 27.1606 78.8669L126.131 21.7225C127.55 20.901 128.902 20.7753 129.936 21.3698L135.797 24.7713C135.803 24.7741 135.808 24.777 135.813 24.7802C135.9 24.8307 135.929 24.9422 135.879 25.0294C135.828 25.1167 135.715 25.1454 135.63 25.0952L135.629 25.0949C135.628 25.0942 135.627 25.0935 135.625 25.0928L135.623 25.0909C134.72 24.5678 133.501 24.698 132.19 25.4558L33.2192 82.5924C32.4462 83.0408 31.6745 83.7019 30.9876 84.5041C30.5171 85.039 30.0942 85.6305 29.7291 86.2634C29.2685 87.0525 28.9105 87.8636 28.6635 88.6758C28.3774 89.5748 28.2372 90.4273 28.2449 91.2111L28.4577 167.89C28.4656 169.37 28.9603 170.473 29.8508 170.995C29.9376 171.046 29.9668 171.157 29.9163 171.244C29.8827 171.302 29.8215 171.334 29.7588 171.334ZM128.499 21.3651C127.831 21.3651 127.086 21.5907 126.313 22.0378L27.3421 79.1827C26.5599 79.6322 25.786 80.2957 25.1034 81.1019C24.6613 81.6037 24.2349 82.201 23.8341 82.8796C23.3835 83.6588 23.0254 84.4681 22.7691 85.2838C22.4951 86.1637 22.3606 87.0083 22.3677 87.7935L22.5812 164.472C22.5883 165.952 23.0831 167.055 23.9743 167.577L28.6782 170.313C28.3009 169.681 28.098 168.858 28.0931 167.891L27.8803 91.2132C27.8718 90.3921 28.0183 89.5016 28.3152 88.5677C28.5694 87.7306 28.9395 86.8931 29.4136 86.0805C29.7902 85.4274 30.2272 84.8167 30.7127 84.2653C31.4238 83.4342 32.2282 82.7459 33.0369 82.2771L132.008 25.1405C132.87 24.6422 133.721 24.3874 134.45 24.4109L129.753 21.6856C129.381 21.4715 128.958 21.3651 128.499 21.3651Z" fill="#373B42"/>
<path d="M30.8475 84.3844C30.3639 84.9336 29.9378 85.5319 29.5689 86.1712C29.1099 86.958 28.7411 87.7858 28.4869 88.6219L22.5938 85.2285C22.856 84.3927 23.2248 83.5648 23.6756 82.7861C24.0526 82.1469 24.4789 81.5322 24.9624 80.9829L30.8475 84.3844Z" fill="#FFBE2E"/>
<path d="M29.7578 171.335C29.7264 171.335 29.6951 171.327 29.6659 171.311L23.7868 167.892C22.7803 167.302 22.2215 166.088 22.2129 164.473L22.0001 87.7954C21.9916 86.1999 22.5304 84.3886 23.5163 82.6951C24.4894 81.0186 25.7821 79.659 27.1559 78.8672L126.127 21.7224C127.548 20.9012 128.899 20.7752 129.932 21.3697L135.811 24.7812C135.812 24.7812 135.812 24.7815 135.812 24.7815C135.899 24.8321 135.928 24.9435 135.878 25.0303C135.827 25.1179 135.714 25.1467 135.629 25.0965L135.618 25.0902C134.714 24.5706 133.498 24.7005 132.188 25.4571L33.2173 82.5936C31.8968 83.3595 30.6575 84.6637 29.7265 86.2652C28.7627 87.9238 28.236 89.681 28.2437 91.2132L28.4565 167.891C28.4644 169.37 28.9584 170.473 29.8475 170.995L29.8496 170.995C29.8496 170.996 29.8496 170.996 29.8496 170.996C29.9364 171.047 29.9656 171.158 29.9151 171.245C29.8816 171.303 29.8204 171.335 29.7578 171.335ZM128.496 21.3649C127.827 21.3649 127.083 21.5905 126.309 22.0376L27.3383 79.1828C26.0185 79.9434 24.7735 81.2561 23.831 82.8783C22.8771 84.5163 22.3568 86.2621 22.3645 87.7939L22.5773 164.471C22.5852 165.952 23.0799 167.055 23.9704 167.577L28.6771 170.314C28.2998 169.682 28.0969 168.859 28.092 167.892L27.8792 91.2147C27.8707 89.6192 28.4152 87.7961 29.4117 86.0824C30.3734 84.4266 31.6604 83.076 33.035 82.2783L132.006 25.1417C132.868 24.6434 133.693 24.401 134.45 24.4124L129.75 21.6853C129.378 21.4713 128.955 21.3649 128.496 21.3649Z" fill="#373B42"/>
<path d="M77.1832 137.681C77.1832 138.629 76.5213 139.778 75.6961 140.253C74.8737 140.726 74.206 140.349 74.2031 139.402C74.2002 138.454 74.865 137.305 75.6873 136.83C76.5096 136.355 77.1803 136.734 77.1832 137.681Z" fill="#373B42"/>
<path d="M84.2281 133.615C84.2281 134.563 83.5662 135.712 82.741 136.187C81.9187 136.659 81.251 136.283 81.2481 135.335C81.2451 134.388 81.9099 133.239 82.7323 132.764C83.5545 132.288 84.2252 132.667 84.2281 133.615Z" fill="#373B42"/>
<path d="M91.272 129.547C91.272 130.494 90.6102 131.643 89.7849 132.118C88.9626 132.591 88.2949 132.215 88.292 131.267C88.2891 130.319 88.9539 129.171 89.7762 128.695C90.5985 128.22 91.2691 128.599 91.272 129.547Z" fill="#373B42"/>
<path d="M30.4536 77.3016C30.3909 77.3016 30.3297 77.2692 30.2962 77.2108C30.2457 77.124 30.2749 77.0123 30.3617 76.9617L80.8626 47.6139C80.9196 47.5812 80.9886 47.5812 81.0456 47.6139C81.1018 47.6463 81.1367 47.7068 81.1367 47.7719L81.0719 70.4861C81.0719 70.5867 80.99 70.6679 80.8897 70.6679C80.8897 70.6679 80.8896 70.6679 80.8889 70.6679C80.7885 70.6676 80.7073 70.5858 80.7073 70.4854L80.7714 48.0887L30.5454 77.2771C30.5163 77.2939 30.4849 77.3016 30.4536 77.3016Z" fill="#373B42"/>
<path d="M31.5084 74.799L82.0092 45.4512C81.3595 45.8287 80.9562 46.631 80.9529 47.7706L30.4521 77.1185C30.4555 75.9789 30.8587 75.1766 31.5084 74.799Z" fill="white"/>
<path d="M30.4537 77.3004C30.4224 77.3004 30.391 77.2922 30.3626 77.2759C30.3064 77.2435 30.2715 77.1829 30.2715 77.1179C30.2743 75.9487 30.6815 75.0692 31.4183 74.641L81.917 45.295C81.9178 45.2942 81.9184 45.2939 81.9192 45.2931C82.006 45.243 82.1178 45.2718 82.1683 45.3594C82.2188 45.4462 82.1896 45.558 82.1028 45.6085C81.4821 45.9698 81.1397 46.7375 81.1368 47.7707C81.1368 47.8355 81.1019 47.8953 81.0465 47.928L30.5456 77.2759C30.5171 77.2922 30.485 77.3004 30.4537 77.3004ZM81.1013 46.1905L31.602 74.9564C31.0482 75.2778 30.7158 75.9241 30.6488 76.7944L80.7739 47.6647C80.7873 47.0945 80.8998 46.5966 81.1013 46.1905Z" fill="#373B42"/>
<path d="M93.1272 54.7941L92.9011 132.49L42.4012 161.837L42.6199 84.1407C42.6418 78.7176 38.8223 72.1134 34.1061 69.3873C31.7298 68.0169 29.5795 67.8856 28.0195 68.7895L78.5268 39.4431C80.0794 38.5391 82.2298 38.6632 84.6061 40.0334C89.3222 42.7596 93.1418 49.371 93.1272 54.7941Z" fill="#FFF7E4"/>
<path d="M42.4012 162.019C42.3699 162.019 42.3385 162.01 42.3101 161.994C42.2539 161.962 42.219 161.901 42.219 161.836L42.4382 84.1401C42.4596 78.7888 38.6805 72.2417 34.0151 69.5444C31.7721 68.2522 29.6771 68.04 28.1111 68.9469C28.0249 68.9967 27.9125 68.9679 27.8627 68.8806C27.8121 68.7938 27.8413 68.6821 27.9281 68.6315H27.9289C27.9289 68.6312 27.9296 68.6312 27.9303 68.6308L78.4354 39.2848C80.116 38.3064 82.3406 38.516 84.6974 39.8749C89.461 42.629 93.3242 49.3214 93.31 54.7941C93.31 54.7941 93.31 54.7941 93.31 54.7944L93.0837 132.491C93.0837 132.555 93.0488 132.615 92.9933 132.648L42.4932 161.994C42.4646 162.01 42.4325 162.019 42.4012 162.019ZM30.2658 68.0278C31.4752 68.0278 32.8134 68.4307 34.1973 69.2287C38.9638 71.9842 42.8241 78.6738 42.8027 84.141L42.5842 161.519L92.7191 132.385L92.9455 54.7933C92.9597 49.4367 89.1777 42.8863 84.5152 40.1906C82.2758 38.8993 80.1815 38.6903 78.619 39.5998L29.6251 68.067C29.8344 68.041 30.0479 68.0278 30.2658 68.0278Z" fill="#373B42"/>
<path d="M25.5283 74.2711C25.5437 68.8471 29.3824 66.6595 34.1027 69.3849C38.8231 72.1102 42.6368 78.7158 42.6215 84.1399L42.4013 161.835L37.4688 158.988L37.689 81.2968C37.6955 79.003 36.083 76.2052 34.0826 75.0502C32.0864 73.8977 30.4591 74.825 30.4526 77.1188" fill="#212121"/>
<path d="M42.4014 162.017C42.3701 162.017 42.3388 162.009 42.3103 161.992L37.3773 159.145C37.3211 159.112 37.2862 159.052 37.2862 158.987L37.5069 81.2961C37.5133 79.0616 35.9359 76.3304 33.9911 75.2078C33.0806 74.682 32.2335 74.5924 31.6057 74.9536C30.9828 75.3123 30.6375 76.0816 30.6347 77.1191C30.6347 77.2198 30.5529 77.301 30.4525 77.301C30.4525 77.301 30.4525 77.301 30.4518 77.301C30.3514 77.3007 30.2702 77.2188 30.2702 77.1184C30.2738 75.9449 30.6831 75.0641 31.4241 74.6377C32.1687 74.2084 33.1468 74.2995 34.1733 74.8925C36.2191 76.0731 37.8776 78.9464 37.8713 81.2969L37.6506 158.882L42.22 161.52L42.4392 84.1393C42.4548 78.7823 38.6743 72.2344 34.0117 69.5422C31.7794 68.2538 29.6908 68.0392 28.1269 68.9382C26.5759 69.8309 25.7173 71.7247 25.7102 74.2713C25.7102 74.372 25.6284 74.4532 25.528 74.4532C25.528 74.4532 25.528 74.4532 25.5273 74.4532C25.4269 74.4529 25.3457 74.371 25.3457 74.2707C25.3536 71.5885 26.2768 69.5824 27.9454 68.6222C29.6254 67.6556 31.8449 67.8706 34.1939 69.2269C38.9569 71.9767 42.8194 78.667 42.8037 84.14L42.5836 161.835C42.5836 161.901 42.5487 161.961 42.4925 161.993C42.4641 162.009 42.4328 162.017 42.4014 162.017Z" fill="#373B42"/>
<path d="M41.768 71.2668C41.7054 71.2668 41.6442 71.2344 41.6107 71.176C41.5602 71.0892 41.5894 70.9774 41.6762 70.9268L85.0821 45.7067C85.1697 45.6557 85.2807 45.6849 85.3312 45.7729C85.3817 45.8597 85.3526 45.9715 85.2658 46.022L41.8599 71.2422C41.8307 71.259 41.7994 71.2668 41.768 71.2668Z" fill="#373B42"/>
<path d="M61.6383 71.7915C61.5756 71.7915 61.5145 71.7588 61.4803 71.7004C61.4305 71.6135 61.4597 71.5018 61.5472 71.4517L87.5778 56.388C87.6626 56.3375 87.7758 56.3667 87.8269 56.4546C87.8768 56.5414 87.8476 56.6531 87.76 56.7033L61.7294 71.767C61.7009 71.7838 61.6695 71.7915 61.6383 71.7915Z" fill="#373B42"/>
<path d="M61.6383 80.6944C61.5756 80.6944 61.5145 80.662 61.4803 80.6036C61.4305 80.5164 61.4597 80.405 61.5472 80.3545L80.6545 69.29C80.7391 69.2395 80.8524 69.2682 80.9035 69.3562C80.9534 69.4434 80.9242 69.5548 80.8367 69.6053L61.7294 80.6698C61.7009 80.6866 61.6695 80.6944 61.6383 80.6944Z" fill="#373B42"/>
<path d="M55.8637 72.4085C56.6747 71.9402 57.3329 72.3114 57.3356 73.2434L57.3599 81.7935C57.3625 82.7217 56.7086 83.8543 55.8975 84.3227L48.4599 88.6168C47.6489 89.085 46.9907 88.7099 46.9881 87.7817L46.9639 79.2316C46.9612 78.2997 47.6152 77.1709 48.4261 76.7026L55.8637 72.4085Z" fill="#FFBE2E"/>
<path d="M47.7983 89.0021C47.6275 89.0021 47.4672 88.9611 47.3249 88.8793C46.9903 88.6867 46.8059 88.297 46.8045 87.7823L46.7803 79.2324C46.7775 78.2304 47.4594 77.0499 48.3335 76.5452L55.7708 72.2513C56.2235 71.9894 56.6585 71.952 56.9966 72.1456C57.3298 72.3378 57.5148 72.7275 57.5162 73.2428L57.5405 81.7934C57.5433 82.7954 56.8614 83.9759 55.9872 84.4806L48.5492 88.7748C48.288 88.9259 48.0324 89.0021 47.7983 89.0021ZM55.9531 72.5667L48.5158 76.8606C47.757 77.2991 47.142 78.3626 47.1448 79.2314L47.169 87.7817C47.1698 88.1608 47.2901 88.4384 47.5064 88.5633C47.7263 88.6901 48.0318 88.6527 48.367 88.4597L55.805 84.1655C56.5638 83.727 57.1789 82.6636 57.1761 81.7947L57.1518 73.2441C57.1504 72.864 57.0308 72.586 56.8144 72.4619C56.5944 72.3354 56.2898 72.3728 55.9531 72.5667Z" fill="#373B42"/>
<path d="M53.8877 77.1478C53.9984 77.0839 54.1092 77.0685 54.1937 77.1166C54.3628 77.213 54.3637 77.528 54.1958 77.8228L50.8855 83.5527C50.7999 83.701 50.6909 83.8133 50.5786 83.8781C50.4695 83.9411 50.3571 83.9566 50.2742 83.9056L49.1636 83.2764C48.9945 83.1802 48.9935 82.865 49.1615 82.5701C49.2455 82.4246 49.356 82.3123 49.4667 82.2484C49.5774 82.1846 49.6882 82.1691 49.7728 82.2172L50.5751 82.6744L53.5822 77.4695C53.6664 77.3241 53.777 77.2118 53.8877 77.1478Z" fill="#212121"/>
<path d="M61.6383 91.65C61.5756 91.65 61.5145 91.6173 61.4803 91.5589C61.4305 91.4721 61.4597 91.3604 61.5472 91.3102L87.5778 76.2465C87.6626 76.1956 87.7758 76.2255 87.8269 76.3131C87.8768 76.4 87.8476 76.5117 87.76 76.5618L61.7294 91.6255C61.7009 91.6422 61.6695 91.65 61.6383 91.65Z" fill="#373B42"/>
<path d="M61.6383 100.553C61.5756 100.553 61.5145 100.521 61.4803 100.463C61.4305 100.375 61.4597 100.264 61.5472 100.214L80.6545 89.149C80.7391 89.0981 80.8524 89.1273 80.9035 89.2153C80.9534 89.3025 80.9242 89.4139 80.8367 89.4644L61.7294 100.529C61.7009 100.546 61.6695 100.553 61.6383 100.553Z" fill="#373B42"/>
<path d="M55.8637 92.2664C56.6747 91.7981 57.3329 92.1693 57.3356 93.1013L57.3599 101.651C57.3625 102.58 56.7086 103.712 55.8975 104.181L48.4599 108.475C47.6489 108.943 46.9907 108.568 46.9881 107.64L46.9639 99.0895C46.9612 98.1576 47.6152 97.0288 48.4261 96.5606L55.8637 92.2664Z" fill="#FFBE2E"/>
<path d="M47.7983 108.859C47.6275 108.859 47.4672 108.819 47.3249 108.737C46.9903 108.544 46.8059 108.155 46.8045 107.64L46.7803 99.09C46.7775 98.0881 47.4594 96.9076 48.3335 96.4028L55.7708 92.1086C55.7708 92.1086 55.7708 92.1086 55.7708 92.1083C56.2235 91.8474 56.6585 91.809 56.9966 92.0033C57.3298 92.1955 57.5148 92.5853 57.5162 93.1006L57.5405 101.651C57.5433 102.653 56.8614 103.834 55.9872 104.338L48.5492 108.632C48.288 108.784 48.0324 108.859 47.7983 108.859ZM55.9531 92.4239L48.5158 96.7181C47.757 97.1566 47.142 98.2201 47.1448 99.0889L47.169 107.639C47.1698 108.018 47.2901 108.296 47.5064 108.421C47.7263 108.547 48.0311 108.51 48.367 108.317L55.805 104.023C56.5638 103.585 57.1789 102.521 57.1761 101.652L57.1518 93.1016C57.1504 92.7215 57.0308 92.4435 56.8144 92.3194C56.5944 92.193 56.2891 92.2304 55.9531 92.4244V92.4239Z" fill="#373B42"/>
<path d="M53.8877 97.0067C53.9984 96.9428 54.1092 96.9274 54.1937 96.9755C54.3628 97.0719 54.3637 97.387 54.1958 97.6817L50.8855 103.412C50.7999 103.56 50.6909 103.672 50.5786 103.737C50.4695 103.8 50.3571 103.816 50.2742 103.764L49.1636 103.135C48.9945 103.039 48.9935 102.724 49.1615 102.429C49.2455 102.283 49.356 102.171 49.4667 102.107C49.5774 102.043 49.6882 102.028 49.7728 102.076L50.5751 102.533L53.5822 97.3285C53.6664 97.1829 53.777 97.0706 53.8877 97.0067Z" fill="#212121"/>
<path d="M61.6383 111.508C61.5756 111.508 61.5145 111.475 61.4803 111.417C61.4305 111.33 61.4597 111.218 61.5472 111.168L87.5778 96.1047C87.6626 96.0545 87.7758 96.0833 87.8269 96.1712C87.8768 96.258 87.8476 96.3698 87.76 96.42L61.7294 111.484C61.7009 111.5 61.6695 111.508 61.6383 111.508Z" fill="#373B42"/>
<path d="M61.6383 120.412C61.5756 120.412 61.5145 120.379 61.4803 120.321C61.4305 120.234 61.4597 120.122 61.5472 120.072L80.6545 109.007C80.7391 108.956 80.8524 108.985 80.9035 109.073C80.9534 109.16 80.9242 109.272 80.8367 109.322L61.7294 120.387C61.7009 120.404 61.6695 120.412 61.6383 120.412Z" fill="#373B42"/>
<path d="M55.8637 112.125C56.6747 111.657 57.3329 112.028 57.3356 112.96L57.3599 121.51C57.3625 122.439 56.7086 123.571 55.8975 124.039L48.4599 128.333C47.6489 128.802 46.9907 128.427 46.9881 127.498L46.9639 118.948C46.9612 118.016 47.6152 116.888 48.4261 116.419L55.8637 112.125Z" fill="#FFBE2E"/>
<path d="M47.7983 128.718C47.6275 128.718 47.4672 128.678 47.3249 128.596C46.9903 128.403 46.8059 128.014 46.8045 127.499L46.7803 118.949C46.7775 117.947 47.4594 116.766 48.3335 116.262L55.7708 111.968C55.7708 111.968 55.7708 111.968 55.7708 111.967C56.2235 111.707 56.6585 111.668 56.9966 111.862C57.3298 112.054 57.5148 112.444 57.5162 112.959L57.5405 121.51C57.5433 122.496 56.8464 123.701 55.9872 124.197L48.5492 128.491C48.288 128.642 48.0324 128.718 47.7983 128.718ZM55.9531 112.283L48.5158 116.577C47.757 117.016 47.142 118.079 47.1448 118.947L47.169 127.498C47.1698 127.877 47.2901 128.155 47.5064 128.28C47.7263 128.406 48.0311 128.369 48.367 128.176L55.805 123.882C56.5638 123.444 57.1789 122.38 57.1761 121.511L57.1518 112.961C57.1504 112.58 57.0308 112.302 56.8144 112.178C56.5944 112.052 56.2891 112.089 55.9531 112.283V112.283Z" fill="#373B42"/>
<path d="M53.8877 116.865C53.9984 116.801 54.1092 116.786 54.1937 116.834C54.3628 116.93 54.3637 117.245 54.1958 117.54L50.8855 123.27C50.7999 123.418 50.6909 123.531 50.5786 123.595C50.4695 123.658 50.3571 123.674 50.2742 123.623L49.1636 122.994C48.9945 122.897 48.9935 122.582 49.1615 122.287C49.2455 122.142 49.356 122.03 49.4667 121.966C49.5774 121.902 49.6882 121.886 49.7728 121.934L50.5751 122.392L53.5822 117.187C53.6664 117.041 53.777 116.929 53.8877 116.865Z" fill="#212121"/>
<path d="M61.6383 131.367C61.5756 131.367 61.5145 131.334 61.4803 131.276C61.4305 131.189 61.4597 131.078 61.5472 131.027L87.5778 115.964C87.6626 115.913 87.7758 115.942 87.8269 116.03C87.8768 116.117 87.8476 116.229 87.76 116.279L61.7294 131.343C61.7009 131.359 61.6695 131.367 61.6383 131.367Z" fill="#373B42"/>
<path d="M61.6383 140.271C61.5756 140.271 61.5145 140.238 61.4803 140.18C61.4305 140.093 61.4597 139.981 61.5472 139.931L80.6545 128.866C80.7391 128.816 80.8524 128.845 80.9035 128.932C80.9534 129.019 80.9242 129.131 80.8367 129.181L61.7294 140.246C61.7009 140.263 61.6695 140.271 61.6383 140.271Z" fill="#373B42"/>
<path d="M55.8637 131.984C56.6747 131.515 57.3329 131.887 57.3356 132.819L57.3599 141.369C57.3625 142.297 56.7086 143.43 55.8975 143.898L48.4599 148.192C47.6489 148.66 46.9907 148.285 46.9881 147.357L46.9639 138.807C46.9612 137.875 47.6152 136.746 48.4261 136.278L55.8637 131.984Z" fill="#FFBE2E"/>
<path d="M47.7983 148.577C47.6275 148.577 47.4672 148.537 47.3249 148.455C46.9903 148.262 46.8059 147.873 46.8045 147.358L46.7803 138.807C46.7775 137.806 47.4594 136.625 48.3335 136.121L55.7708 131.827C56.2235 131.565 56.6599 131.527 56.9959 131.721C57.3297 131.913 57.5148 132.303 57.5162 132.818L57.5405 141.369C57.5433 142.355 56.8464 143.56 55.9872 144.056L48.5492 148.35C48.288 148.501 48.0324 148.577 47.7983 148.577ZM55.9531 132.142L48.5158 136.436C47.757 136.874 47.142 137.937 47.1448 138.806L47.169 147.357C47.1698 147.736 47.2901 148.014 47.5064 148.139C47.7263 148.265 48.0311 148.228 48.367 148.035L55.805 143.741C56.5638 143.302 57.1789 142.239 57.1761 141.37L57.1518 132.82C57.1504 132.439 57.0308 132.161 56.8144 132.037C56.5944 131.911 56.2891 131.948 55.9531 132.142Z" fill="#373B42"/>
<path d="M53.8877 136.723C53.9984 136.659 54.1092 136.644 54.1937 136.692C54.3628 136.788 54.3637 137.103 54.1958 137.398L50.8855 143.128C50.7999 143.276 50.6909 143.388 50.5786 143.453C50.4695 143.516 50.3571 143.532 50.2742 143.481L49.1636 142.852C48.9945 142.755 48.9935 142.44 49.1615 142.145C49.2455 142 49.356 141.887 49.4667 141.824C49.5774 141.76 49.6882 141.744 49.7728 141.792L50.5751 142.25L53.5822 137.045C53.6664 136.899 53.777 136.787 53.8877 136.723Z" fill="#212121"/>
<path d="M176.393 169.537C176.33 169.537 176.269 169.504 176.236 169.446C176.185 169.359 176.214 169.247 176.301 169.197L178.192 168.098C178.279 168.048 178.39 168.077 178.441 168.164C178.491 168.251 178.462 168.363 178.375 168.413L176.485 169.512C176.456 169.529 176.424 169.537 176.393 169.537ZM180.174 167.339C180.112 167.339 180.05 167.307 180.017 167.248C179.966 167.162 179.996 167.05 180.082 166.999L181.973 165.9C182.06 165.85 182.172 165.879 182.222 165.967C182.273 166.053 182.243 166.165 182.157 166.216L180.266 167.315C180.237 167.331 180.206 167.339 180.174 167.339ZM183.956 165.141C183.893 165.141 183.832 165.109 183.798 165.051C183.748 164.964 183.777 164.852 183.864 164.801L185.754 163.703C185.841 163.652 185.953 163.681 186.004 163.769C186.054 163.856 186.025 163.967 185.938 164.018L184.047 165.117C184.018 165.133 183.987 165.141 183.956 165.141ZM187.737 162.944C187.674 162.944 187.613 162.911 187.58 162.853C187.529 162.766 187.558 162.654 187.645 162.604L189.536 161.505C189.623 161.454 189.734 161.483 189.785 161.571C189.835 161.658 189.806 161.77 189.719 161.821L187.829 162.919C187.8 162.936 187.768 162.944 187.737 162.944ZM191.518 160.746C191.456 160.746 191.394 160.714 191.361 160.656C191.31 160.569 191.34 160.457 191.426 160.407L192.74 159.643V159.185C192.74 159.084 192.822 159.003 192.922 159.003C193.022 159.003 193.104 159.084 193.104 159.185V159.748C193.104 159.813 193.069 159.873 193.014 159.906L191.61 160.722C191.581 160.739 191.55 160.746 191.518 160.746ZM192.922 157.18C192.822 157.18 192.74 157.099 192.74 156.998V154.811C192.74 154.711 192.822 154.629 192.922 154.629C193.022 154.629 193.104 154.711 193.104 154.811V156.998C193.104 157.099 193.022 157.18 192.922 157.18ZM192.922 152.807C192.822 152.807 192.74 152.725 192.74 152.625V150.438C192.74 150.337 192.822 150.256 192.922 150.256C193.022 150.256 193.104 150.337 193.104 150.438V152.625C193.104 152.725 193.022 152.807 192.922 152.807ZM192.922 148.433C192.822 148.433 192.74 148.352 192.74 148.251V146.064C192.74 145.964 192.822 145.882 192.922 145.882C193.022 145.882 193.104 145.964 193.104 146.064V148.251C193.104 148.352 193.022 148.433 192.922 148.433ZM192.922 144.06C192.822 144.06 192.74 143.978 192.74 143.878V141.691C192.74 141.59 192.822 141.509 192.922 141.509C193.022 141.509 193.104 141.59 193.104 141.691V143.878C193.104 143.978 193.022 144.06 192.922 144.06ZM192.922 139.686C192.822 139.686 192.74 139.605 192.74 139.504V137.317C192.74 137.217 192.822 137.135 192.922 137.135C193.022 137.135 193.104 137.217 193.104 137.317V139.504C193.104 139.605 193.022 139.686 192.922 139.686ZM192.922 135.313C192.822 135.313 192.74 135.231 192.74 135.131V132.944C192.74 132.843 192.822 132.762 192.922 132.762C193.022 132.762 193.104 132.843 193.104 132.944V135.131C193.104 135.231 193.022 135.313 192.922 135.313ZM192.922 130.939C192.822 130.939 192.74 130.858 192.74 130.757V128.57C192.74 128.469 192.822 128.388 192.922 128.388C193.022 128.388 193.104 128.469 193.104 128.57V130.757C193.104 130.858 193.022 130.939 192.922 130.939ZM192.922 126.566C192.822 126.566 192.74 126.484 192.74 126.383V124.197C192.74 124.096 192.822 124.014 192.922 124.014C193.022 124.014 193.104 124.096 193.104 124.197V126.383C193.104 126.484 193.022 126.566 192.922 126.566ZM192.922 122.192C192.822 122.192 192.74 122.111 192.74 122.01V119.823C192.74 119.722 192.822 119.641 192.922 119.641C193.022 119.641 193.104 119.722 193.104 119.823V122.01C193.104 122.111 193.022 122.192 192.922 122.192ZM192.922 117.818C192.822 117.818 192.74 117.737 192.74 117.636V115.449C192.74 115.349 192.822 115.267 192.922 115.267C193.022 115.267 193.104 115.349 193.104 115.449V117.636C193.104 117.737 193.022 117.818 192.922 117.818ZM192.922 113.445C192.822 113.445 192.74 113.363 192.74 113.263V111.076C192.74 110.975 192.822 110.894 192.922 110.894C193.022 110.894 193.104 110.975 193.104 111.076V113.263C193.104 113.363 193.022 113.445 192.922 113.445ZM192.922 109.071C192.822 109.071 192.74 108.99 192.74 108.889V106.702C192.74 106.602 192.822 106.52 192.922 106.52C193.022 106.52 193.104 106.602 193.104 106.702V108.889C193.104 108.99 193.022 109.071 192.922 109.071ZM192.922 104.698C192.822 104.698 192.74 104.616 192.74 104.516V102.329C192.74 102.228 192.822 102.147 192.922 102.147C193.022 102.147 193.104 102.228 193.104 102.329V104.516C193.104 104.616 193.022 104.698 192.922 104.698ZM192.922 100.324C192.822 100.324 192.74 100.243 192.74 100.142V97.9596C192.74 97.8589 192.822 97.7773 192.922 97.7773C193.022 97.7773 193.104 97.8589 193.104 97.9596V100.142C193.104 100.243 193.022 100.324 192.922 100.324Z" fill="#373B42"/>
<path d="M195.095 88.5513L192.897 89.8198L192.922 97.9601L201.567 88.5513H195.095Z" fill="#FFF7E4"/>
<path d="M192.921 98.1414C192.898 98.1414 192.876 98.1375 192.854 98.1289C192.785 98.1018 192.738 98.0345 192.738 97.9595L192.715 89.8192C192.715 89.754 192.75 89.6935 192.806 89.6612L195.003 88.3927C195.031 88.3767 195.063 88.3682 195.094 88.3682H201.566C201.638 88.3682 201.704 88.4109 201.732 88.477C201.762 88.5433 201.749 88.6205 201.7 88.6735L193.055 98.0823C193.019 98.1207 192.97 98.1414 192.921 98.1414ZM193.079 89.9239L193.101 97.4929L201.151 88.7326H195.144L193.079 89.9239Z" fill="#373B42"/>
<path d="M208.818 82.5859L200.028 95.9017L185.854 87.7188L208.818 82.5859Z" fill="#FFBE2E"/>
<path d="M200.028 96.0837C199.996 96.0837 199.965 96.0759 199.936 96.0592L185.763 87.8762C185.698 87.8389 185.663 87.7652 185.674 87.6911C185.685 87.6167 185.741 87.5569 185.814 87.5406L208.777 82.4079C208.85 82.3926 208.925 82.421 208.968 82.4823C209.01 82.5435 209.01 82.6243 208.97 82.6863L200.18 96.002C200.145 96.0549 200.087 96.0837 200.028 96.0837ZM186.35 87.7943L199.97 95.6577L208.416 82.862L186.35 87.7943Z" fill="#373B42"/>
<path d="M208.816 82.5869L194.725 92.8414L192.922 97.9601L191.16 90.7867L208.816 82.5869Z" fill="#373B42"/>
<path d="M192.922 98.1427C192.919 98.1427 192.916 98.1427 192.913 98.1424C192.832 98.1385 192.764 98.0822 192.745 98.0039L190.983 90.8307C190.962 90.7459 191.004 90.6588 191.083 90.6221L208.74 82.422C208.826 82.3819 208.926 82.4142 208.974 82.4946C209.021 82.5754 208.999 82.6793 208.924 82.7346L194.878 92.9555L193.093 98.021C193.068 98.0943 192.999 98.1427 192.922 98.1427ZM191.373 90.8894L192.953 97.3234L194.553 92.7811C194.565 92.7462 194.587 92.7159 194.617 92.6943L207.197 83.54L191.373 90.8894Z" fill="#373B42"/>
<g opacity="0.1">
<path d="M153.707 207.06L128.227 192.252L153.663 177.566L179.143 192.374L153.707 207.06Z" fill="black"/>
</g>
<path d="M154.765 202.683L129.285 187.876L129.202 158.642L154.682 173.449L154.765 202.683Z" fill="#212121"/>
<path d="M154.765 202.865C154.733 202.865 154.701 202.857 154.673 202.841L129.193 188.033C129.138 188 129.103 187.941 129.103 187.876L129.02 158.642C129.02 158.576 129.054 158.516 129.111 158.484C129.168 158.451 129.237 158.451 129.294 158.484L154.774 173.291C154.829 173.324 154.864 173.383 154.864 173.448L154.947 202.683C154.947 202.748 154.912 202.809 154.856 202.841C154.827 202.857 154.796 202.865 154.765 202.865ZM129.467 187.77L154.582 202.366L154.5 173.553L129.385 158.958L129.467 187.77Z" fill="#373B42"/>
<path d="M154.682 173.45L129.202 158.642L154.639 143.957L180.119 158.764L154.682 173.45Z" fill="#FFF7E4"/>
<path d="M154.682 173.631C154.651 173.631 154.619 173.623 154.59 173.607L129.11 158.8C129.054 158.767 129.02 158.707 129.02 158.641C129.02 158.577 129.054 158.517 129.111 158.484L154.548 143.798C154.605 143.766 154.674 143.766 154.731 143.798L180.21 158.606C180.266 158.639 180.301 158.699 180.301 158.764C180.301 158.829 180.266 158.889 180.209 158.921L154.773 173.607C154.745 173.623 154.713 173.631 154.682 173.631ZM129.565 158.642L154.682 173.238L179.755 158.763L154.639 144.167L129.565 158.642Z" fill="#373B42"/>
<path d="M170.403 164.379L164.478 167.798L138.996 152.992L144.922 149.572L170.403 164.379Z" fill="#212121"/>
<path d="M164.478 167.98C164.446 167.98 164.414 167.971 164.386 167.955L138.905 153.149C138.849 153.116 138.814 153.056 138.814 152.991C138.814 152.926 138.849 152.866 138.906 152.834L144.831 149.414C144.888 149.381 144.957 149.381 145.014 149.414L170.496 164.22C170.552 164.253 170.586 164.313 170.586 164.378C170.586 164.443 170.551 164.503 170.495 164.536L164.569 167.955C164.54 167.971 164.509 167.98 164.478 167.98ZM139.36 152.992L164.478 167.587L170.04 164.377L144.922 149.782L139.36 152.992Z" fill="#373B42"/>
<path d="M180.204 188.001L154.764 202.686L154.683 173.452L164.477 167.799L170.403 164.379L180.123 158.767L180.204 188.001Z" fill="#FFBE2E"/>
<path d="M154.765 202.868C154.734 202.868 154.702 202.86 154.674 202.844C154.618 202.811 154.583 202.751 154.583 202.686L154.501 173.452C154.501 173.387 154.536 173.326 154.592 173.294L180.032 158.609C180.089 158.576 180.157 158.577 180.214 158.609C180.27 158.641 180.305 158.701 180.305 158.766L180.387 188C180.387 188.065 180.352 188.126 180.296 188.158L154.856 202.844C154.828 202.86 154.796 202.868 154.765 202.868ZM154.865 173.556L154.947 202.371L180.023 187.895L179.942 159.081L154.865 173.556Z" fill="#373B42"/>
<path d="M170.419 171.933L164.493 175.359L164.479 167.799L170.405 164.379L170.419 171.933Z" fill="#212121"/>
<path d="M164.492 175.541C164.46 175.541 164.429 175.533 164.401 175.517C164.344 175.484 164.309 175.425 164.309 175.359L164.296 167.799C164.296 167.734 164.331 167.673 164.387 167.641L170.313 164.222C170.37 164.189 170.438 164.189 170.495 164.221C170.551 164.254 170.586 164.314 170.586 164.379L170.6 171.933C170.6 171.998 170.565 172.058 170.509 172.091L164.583 175.517C164.555 175.533 164.523 175.541 164.492 175.541ZM164.66 167.904L164.673 175.044L170.236 171.828L170.223 164.695L164.66 167.904Z" fill="#373B42"/>
<path d="M163.88 185.309C163.819 185.344 163.757 185.408 163.711 185.491L162.046 188.539C161.912 188.783 162.015 188.995 162.213 188.881L162.927 188.468L162.945 194.786C162.945 194.893 163.022 194.937 163.115 194.883L164.693 193.972C164.788 193.917 164.863 193.786 164.862 193.678L164.844 187.361L165.559 186.949C165.756 186.835 165.858 186.505 165.725 186.415L164.046 185.297C164.002 185.267 163.941 185.274 163.88 185.309Z" fill="#212121"/>
<path d="M158.985 188.134C158.924 188.169 158.863 188.232 158.819 188.314L157.152 191.364C157.018 191.607 157.123 191.818 157.321 191.704L158.035 191.292L158.053 197.609C158.053 197.716 158.128 197.761 158.223 197.706L159.801 196.795C159.894 196.741 159.971 196.609 159.97 196.502L159.952 190.185L160.667 189.772C160.864 189.658 160.966 189.328 160.829 189.241L159.152 188.122C159.107 188.092 159.045 188.099 158.985 188.134Z" fill="#212121"/>
<path d="M154.817 167.798L134.241 155.84L134.174 132.232L154.75 144.19L154.817 167.798Z" fill="#212121"/>
<path d="M154.816 167.979C154.785 167.979 154.753 167.971 154.724 167.954L134.149 155.997C134.093 155.964 134.058 155.904 134.058 155.839L133.991 132.231C133.991 132.166 134.026 132.106 134.082 132.073C134.139 132.041 134.208 132.041 134.265 132.073L154.841 144.031C154.897 144.064 154.931 144.123 154.931 144.188L154.998 167.796C154.998 167.862 154.963 167.922 154.907 167.954C154.879 167.971 154.847 167.979 154.816 167.979ZM134.423 155.734L154.633 167.48L154.567 144.294L134.356 132.548L134.423 155.734Z" fill="#373B42"/>
<path d="M154.75 144.19L134.174 132.232L154.715 120.373L175.291 132.33L154.75 144.19Z" fill="#FFF7E4"/>
<path d="M154.749 144.372C154.718 144.372 154.686 144.364 154.657 144.347L134.082 132.39C134.025 132.357 133.991 132.297 133.991 132.232C133.991 132.167 134.026 132.107 134.082 132.075L154.623 120.215C154.68 120.182 154.749 120.182 154.806 120.215L175.383 132.173C175.439 132.206 175.473 132.266 175.473 132.331C175.473 132.396 175.438 132.456 175.382 132.488L154.84 144.347C154.812 144.364 154.78 144.372 154.749 144.372ZM134.537 132.233L154.749 143.979L174.927 132.33L154.714 120.583L134.537 132.233Z" fill="#373B42"/>
<path d="M167.445 136.864L162.659 139.626L142.082 127.669L146.867 124.908L167.445 136.864Z" fill="#212121"/>
<path d="M162.66 139.808C162.628 139.808 162.596 139.8 162.568 139.783L141.99 127.827C141.934 127.794 141.899 127.734 141.899 127.669C141.899 127.604 141.934 127.544 141.991 127.511L146.776 124.75C146.833 124.717 146.902 124.717 146.959 124.75L167.536 136.707C167.593 136.74 167.627 136.8 167.627 136.865C167.627 136.93 167.592 136.99 167.536 137.022L162.751 139.783C162.722 139.8 162.691 139.808 162.66 139.808ZM142.445 127.67L162.66 139.415L167.081 136.864L146.867 125.118L142.445 127.67Z" fill="#373B42"/>
<path d="M175.36 155.94L154.816 167.799L154.75 144.191L162.66 139.626L167.445 136.865L175.294 132.333L175.36 155.94Z" fill="#FFBE2E"/>
<path d="M154.816 167.98C154.784 167.98 154.753 167.972 154.725 167.956C154.668 167.923 154.634 167.863 154.634 167.798L154.567 144.19C154.567 144.125 154.602 144.065 154.658 144.032L175.203 132.173C175.26 132.141 175.328 132.141 175.385 132.173C175.441 132.205 175.476 132.266 175.476 132.331L175.542 155.939C175.542 156.004 175.507 156.064 175.451 156.097L154.907 167.955C154.878 167.972 154.847 167.98 154.816 167.98ZM154.932 144.295L154.997 167.483L175.177 155.834L175.113 132.646L154.932 144.295Z" fill="#373B42"/>
<path d="M167.456 142.964L162.67 145.73L162.659 139.625L167.445 136.864L167.456 142.964Z" fill="#212121"/>
<path d="M162.669 145.912C162.638 145.912 162.607 145.904 162.578 145.888C162.522 145.855 162.487 145.796 162.487 145.73L162.477 139.625C162.477 139.56 162.511 139.5 162.568 139.467L167.353 136.706C167.41 136.673 167.478 136.674 167.535 136.706C167.591 136.739 167.626 136.798 167.626 136.863L167.637 142.963C167.637 143.028 167.602 143.089 167.546 143.121L162.761 145.888C162.732 145.904 162.701 145.912 162.669 145.912ZM162.841 139.73L162.851 145.415L167.273 142.859L167.262 137.179L162.841 139.73Z" fill="#373B42"/>
<path d="M162.176 153.766C162.127 153.794 162.077 153.846 162.04 153.913L160.695 156.375C160.587 156.571 160.67 156.742 160.83 156.65L161.407 156.317L161.421 161.419C161.422 161.505 161.484 161.541 161.559 161.497L162.833 160.762C162.91 160.717 162.97 160.611 162.97 160.525L162.955 155.423L163.532 155.09C163.692 154.998 163.773 154.732 163.667 154.659L162.311 153.756C162.275 153.732 162.226 153.737 162.176 153.766Z" fill="#212121"/>
<path d="M158.223 156.048C158.174 156.077 158.125 156.127 158.089 156.194L156.743 158.656C156.635 158.853 156.72 159.023 156.879 158.931L157.456 158.598L157.47 163.7C157.471 163.786 157.531 163.823 157.608 163.778L158.882 163.043C158.957 162.999 159.019 162.892 159.019 162.806L159.004 157.704L159.581 157.371C159.741 157.279 159.823 157.012 159.712 156.942L158.358 156.038C158.321 156.014 158.272 156.02 158.223 156.048Z" fill="#212121"/>
<path d="M73.2024 201.584C74.5082 200.83 74.5156 199.607 73.2183 198.853C71.9211 198.099 69.8098 198.1 68.504 198.854C67.1983 199.607 67.192 200.83 68.4892 201.584C69.7864 202.338 71.8968 202.338 73.2024 201.584Z" fill="white"/>
<path d="M70.844 202.328C69.9571 202.328 69.0715 202.133 68.3981 201.741C67.7147 201.344 67.3382 200.805 67.3389 200.223C67.3403 199.638 67.7218 199.095 68.4137 198.696C69.7676 197.913 71.9644 197.914 73.3112 198.696C73.9946 199.093 74.3705 199.633 74.3697 200.214C74.369 200.8 73.9868 201.342 73.2941 201.742C72.6179 202.132 71.7302 202.328 70.844 202.328ZM70.8661 198.469C70.0446 198.469 69.2232 198.65 68.5961 199.011C68.0216 199.343 67.7042 199.774 67.7034 200.223C67.7034 200.67 68.0152 201.097 68.5818 201.426C69.8269 202.15 71.8599 202.149 73.112 201.426C73.6872 201.094 74.0046 200.664 74.0054 200.214C74.0062 199.768 73.6943 199.34 73.1277 199.011C72.5054 198.65 71.6861 198.469 70.8661 198.469Z" fill="#DBDEE4"/>
<path d="M70.8626 199.357C70.3535 199.357 69.861 199.473 69.511 199.675C69.2299 199.837 69.0687 200.036 69.0684 200.222C69.0681 200.405 69.2262 200.602 69.5023 200.762C69.8493 200.964 70.3399 201.079 70.8484 201.079C71.3569 201.079 71.8492 200.964 72.199 200.762C72.4802 200.599 72.6417 200.4 72.6419 200.214C72.6421 200.031 72.4841 199.834 72.2084 199.674C71.8616 199.472 71.3711 199.357 70.8626 199.357Z" fill="#FFBE2E"/>
<path d="M82.3576 192.814C81.811 192.814 81.2819 192.939 80.906 193.156C80.6042 193.33 80.431 193.544 80.4307 193.743C80.4304 193.94 80.6002 194.151 80.8966 194.324C81.2694 194.54 81.7963 194.664 82.3423 194.664C82.8885 194.664 83.4172 194.54 83.7927 194.323C84.0948 194.149 84.2681 193.934 84.2685 193.735C84.2687 193.539 84.0991 193.327 83.8029 193.155C83.4304 192.939 82.9036 192.814 82.3576 192.814Z" fill="#373B42"/>
<path d="M199.223 191.207C197.918 191.961 197.91 193.184 199.207 193.938C200.505 194.692 202.616 194.692 203.922 193.938C205.227 193.184 205.234 191.962 203.937 191.208C202.639 190.454 200.529 190.454 199.223 191.207Z" fill="white"/>
<path d="M201.56 194.682C200.673 194.682 199.788 194.486 199.115 194.095C198.432 193.698 198.056 193.159 198.057 192.577C198.057 191.991 198.439 191.449 199.132 191.049C200.487 190.267 202.682 190.269 204.028 191.05C204.712 191.447 205.087 191.987 205.087 192.568C205.086 193.153 204.705 193.696 204.013 194.095C203.335 194.486 202.447 194.682 201.56 194.682ZM199.314 191.365C198.739 191.697 198.422 192.127 198.421 192.577C198.42 193.024 198.732 193.451 199.299 193.78C200.543 194.503 202.576 194.504 203.83 193.78C204.405 193.448 204.722 193.017 204.722 192.568C204.723 192.121 204.411 191.694 203.844 191.365C202.6 190.641 200.567 190.642 199.314 191.365Z" fill="#DBDEE4"/>
<path d="M201.566 193.434C202.075 193.434 202.567 193.318 202.917 193.116C203.198 192.954 203.359 192.754 203.36 192.569C203.36 192.386 203.202 192.189 202.926 192.029C202.579 191.827 202.088 191.711 201.58 191.711C201.071 191.711 200.579 191.827 200.229 192.029C199.948 192.192 199.786 192.391 199.786 192.577C199.786 192.759 199.944 192.956 200.22 193.117C200.567 193.318 201.057 193.434 201.566 193.434Z" fill="#FFBE2E"/>
<path d="M190.072 199.976C190.619 199.976 191.148 199.852 191.524 199.635C191.825 199.461 191.999 199.247 191.999 199.048C191.999 198.851 191.829 198.64 191.533 198.467C191.16 198.251 190.633 198.126 190.087 198.126C189.541 198.126 189.013 198.251 188.637 198.468C188.335 198.642 188.161 198.856 188.161 199.056C188.161 199.252 188.331 199.464 188.627 199.636C188.999 199.852 189.526 199.976 190.072 199.976Z" fill="#373B42"/>
<path d="M121.989 79.0688L127.364 91.9497L122.215 92.4077L119.874 99.5862L114.499 86.7054L121.989 79.0688Z" fill="#978050"/>
<path d="M109.884 84.7604L117.393 83.7373L112.108 102.772L109.734 98.3167L104.6 103.795L109.884 84.7604Z" fill="#978050"/>
<path d="M111.565 53.1673C112.927 52.3811 114.515 52.7735 115.936 51.9529C117.354 51.1345 118.936 48.9157 120.296 48.1307C120.511 48.0064 120.721 47.9181 120.924 47.8769C122.462 47.561 123.08 49.9008 124.364 50.2348C125.659 50.5709 128.077 49.0147 129.022 49.9513C129.953 50.8879 129.09 53.9784 129.593 55.4573C130.08 56.8799 132.129 57.1966 132.134 59.088C132.14 60.9751 130.099 63.6535 129.621 65.6327C129.129 67.6901 130.007 69.7715 129.084 71.7782C128.147 73.8064 125.728 75.0424 124.439 76.8703C123.162 78.6831 122.563 81.7254 121.024 83.1948C120.822 83.387 120.613 83.5405 120.398 83.6645C119.038 84.4497 117.448 84.0585 116.03 84.8773C114.608 85.698 113.025 87.9214 111.665 88.7066C111.45 88.8306 111.241 88.9188 111.039 88.9599C109.496 89.2737 108.879 86.9295 107.599 86.5934C106.304 86.2616 103.882 87.82 102.936 86.8792C102.006 85.9426 102.868 82.8519 102.366 81.3688C101.879 79.9462 99.8295 79.6295 99.8242 77.7424C99.8188 75.851 101.86 73.1726 102.337 71.1933C102.829 69.1403 101.952 67.0544 102.882 65.0436C103.819 63.0153 106.234 61.7815 107.523 59.9578C108.801 58.1451 109.403 55.1006 110.939 53.6377C111.141 53.4451 111.35 53.2914 111.565 53.1673Z" fill="#FFBE2E"/>
<path d="M115.943 55.4789C122.161 51.8884 127.221 54.772 127.242 61.9178C127.262 69.0593 122.235 77.7667 116.016 81.3571C109.801 84.9453 104.741 82.0617 104.721 74.9203C104.701 67.7744 109.728 59.067 115.943 55.4789Z" fill="#373B42"/>
<path d="M115.963 59.7393C116.201 59.6024 116.439 59.6071 116.562 59.8199L118.188 62.6482C118.287 62.8167 118.472 62.8659 118.69 62.7788L122.301 61.2971C122.847 61.0727 123.068 61.717 122.673 62.3867L120.068 66.8261C119.914 67.0884 119.843 67.3851 119.878 67.6121L120.507 71.3846C120.583 71.8348 120.243 72.4325 119.855 72.6566C119.753 72.7157 119.647 72.7488 119.545 72.7463L116.311 72.658C116.213 72.6562 116.107 72.6884 116 72.7498C115.894 72.8111 115.788 72.9018 115.69 73.0168L112.471 76.8304C112.369 76.9508 112.264 77.0398 112.161 77.0989C111.772 77.3235 111.428 77.1205 111.501 76.5842L112.107 72.0984C112.144 71.8301 112.072 71.616 111.913 71.5341L109.294 70.111C108.898 69.8979 109.114 69.0013 109.66 68.5951L113.266 65.9102C113.481 65.7472 113.669 65.4827 113.766 65.2011L115.368 60.5091C115.489 60.155 115.726 59.8763 115.963 59.7393Z" fill="white"/>
</g>
</svg>
