<svg width="105" height="105" viewBox="0 0 105 105" fill="none" xmlns="http://www.w3.org/2000/svg">
<path d="M71.001 12.5C82.3227 12.5001 91.501 21.6785 91.501 33C91.501 44.3215 82.3225 53.4999 71.001 53.5C67.0611 53.5 63.3861 52.3902 60.2637 50.4648L59.501 49.9951V81.6055C59.501 83.3358 58.5771 84.8132 57.2754 85.9844L57.2744 85.9854C55.977 87.1596 54.1836 88.1478 52.0928 88.9434H52.0918C47.9002 90.5415 42.2088 91.5 36 91.5C29.7911 91.5 24.1001 90.5416 19.9082 88.9434C17.8174 88.1478 16.0238 87.1595 14.7266 85.9854L14.7246 85.9844L14.4854 85.7607C13.3114 84.6271 12.5 83.2276 12.5 81.6055V40.3945C12.5 38.6644 13.4231 37.1877 14.7246 36.0166L14.7266 36.0156C16.0239 34.8413 17.8173 33.8533 19.9082 33.0576V33.0566C24.0998 31.4584 29.7911 30.5 36 30.5C41.1787 30.5 45.9978 31.171 49.8896 32.3232L50.4961 32.5029L50.5303 31.8711C51.1175 21.0728 60.0569 12.5 71.001 12.5ZM55.7305 73.415C54.6755 74.0919 53.4461 74.6904 52.0928 75.2041L52.0918 75.2051C47.9006 76.807 42.2093 77.7617 36 77.7617C29.791 77.7617 24.1006 76.8069 19.9092 75.2051H19.9082C18.558 74.6911 17.3244 74.0918 16.2695 73.415L15.5 72.9209V81.6055C15.5 82.1893 15.8047 82.9189 16.7344 83.7568V83.7578C17.5441 84.4906 18.7396 85.2128 20.291 85.8643L20.9775 86.1387C24.7472 87.5797 30.0604 88.5 36 88.5C41.5683 88.5 46.5864 87.6917 50.2979 86.4033L51.0225 86.1387C52.9111 85.419 54.3394 84.5943 55.2646 83.7568C56.1948 82.9187 56.5 82.1893 56.5 81.6055L56.501 73.8359V72.9209L55.7305 73.415ZM55.7305 59.6768C54.6757 60.3535 53.4419 60.9526 52.0908 61.4707C47.8993 63.0687 42.2084 64.0273 36 64.0273C29.7911 64.0273 24.1001 63.0689 19.9082 61.4707H19.9092C18.5582 60.9526 17.3244 60.3535 16.2695 59.6768L15.5 59.1836V67.8672C15.5 68.418 15.7676 69.0945 16.5684 69.8682L16.7354 70.0244C17.5456 70.7574 18.7412 71.4767 20.292 72.127L20.9775 72.4014C24.7472 73.8423 30.0605 74.7617 36 74.7617C41.5683 74.7617 46.5864 73.9534 50.2979 72.665L51.0225 72.4014C52.9099 71.6822 54.3389 70.8619 55.2646 70.0244C56.1957 69.1856 56.5 68.4548 56.5 67.8672L56.501 60.0977V59.1826L55.7305 59.6768ZM71.001 15.5C61.3343 15.5 53.5011 23.3334 53.501 33C53.501 42.6667 61.3342 50.5 71.001 50.5C80.6676 50.4999 88.501 42.6667 88.501 33C88.5009 23.3334 80.6676 15.5001 71.001 15.5ZM36.001 33.5C30.433 33.5 25.4146 34.3093 21.7031 35.5977L20.9785 35.8613C19.0903 36.5809 17.6617 37.4049 16.7363 38.2422C15.8058 39.0805 15.501 39.8105 15.501 40.3945C15.501 40.9421 15.7688 41.6183 16.5693 42.3916L16.7363 42.5479C17.6618 43.385 19.0904 44.2092 20.9785 44.9287V44.9277C24.7481 46.3687 30.0615 47.2891 36.001 47.2891C41.9397 47.289 47.2522 46.3684 51.0215 44.9277L51.0225 44.9287C51.7892 44.6372 52.4763 44.3278 53.082 44.0088L53.543 43.7656L53.2812 43.3154C51.9998 41.1149 51.1115 38.6512 50.7227 36.0283L50.6777 35.7295L50.3936 35.6299L49.6807 35.3916C46.0423 34.2267 41.2681 33.5 36.001 33.5ZM71.001 22.5C75.5054 22.5001 79.8919 24.7423 83.2256 28.9912L83.5449 29.4082L84.9551 31.3027C85.345 31.8272 85.5 32.4479 85.5 33C85.5 33.5521 85.345 34.1728 84.9551 34.6973L83.5449 36.5918C80.1746 41.1111 75.6503 43.4999 71.001 43.5C66.3515 43.5 61.8262 41.1112 58.4561 36.5918H58.457L57.0469 34.6973C56.6568 34.1727 56.501 33.5521 56.501 33C56.501 32.4479 56.6568 31.8273 57.0469 31.3027L58.4561 29.4072C61.8264 24.8882 66.3517 22.5 71.001 22.5ZM77.3779 27.542L76.6895 28.2451C77.4989 29.3937 77.9736 30.7974 77.9736 32.3086C77.9736 36.1787 74.8675 39.3436 71.001 39.3438C67.1344 39.3438 64.0283 36.1789 64.0283 32.3086C64.0283 30.7974 64.5025 29.3932 65.3086 28.2441L64.6191 27.543C63.2797 28.4481 62.0091 29.6601 60.8613 31.2012L59.7441 32.7012L59.5215 33L59.7441 33.2988L60.8613 34.7988C63.7569 38.6823 67.4404 40.5 71.001 40.5C74.4502 40.4999 78.0144 38.7943 80.8662 35.1572L81.1396 34.7988L82.2568 33.2988L82.4795 33L82.2568 32.7012L81.1396 31.2012C79.9918 29.6601 78.7216 28.4473 77.3779 27.542ZM71.001 28.2695C68.8256 28.2695 67.0283 30.0606 67.0283 32.3086C67.0283 34.5573 68.8262 36.3438 71.001 36.3438C73.1756 36.3436 74.9736 34.5572 74.9736 32.3086C74.9736 30.0607 73.1763 28.2697 71.001 28.2695ZM56.501 47.4902L56.3574 47.3447C56.0906 47.0741 55.832 46.7966 55.5859 46.5127L55.3184 46.2041L54.9629 46.4043C54.0935 46.8941 53.1283 47.3374 52.0928 47.7324C47.9012 49.3307 42.2099 50.289 36.001 50.2891C29.7921 50.2891 24.1011 49.3306 19.9092 47.7324H19.9102C18.5584 47.214 17.3247 46.6196 16.2705 45.9434L15.5 45.4492V46.3633L15.501 54.1328V54.1523L15.502 54.1709L15.5137 54.3271L15.5146 54.3408L15.5166 54.3535C15.5788 54.8319 15.8433 55.3911 16.4531 56.0146L16.7363 56.2861C17.6617 57.1233 19.0904 57.9474 20.9785 58.667C24.7477 60.1039 30.0611 61.0273 36.001 61.0273C41.9409 61.0273 47.2545 60.1038 51.0234 58.667C52.9116 57.9475 54.3403 57.1234 55.2656 56.2861C56.0787 55.5527 56.4143 54.9002 56.4854 54.3535L56.4873 54.3408L56.4883 54.3271L56.5 54.1709L56.501 54.1523V47.4902Z" fill="#FFBE2E" stroke="#FFBE2E"/>
</svg>
