<svg width="188" height="188" viewBox="0 0 188 188" fill="none" xmlns="http://www.w3.org/2000/svg">
<mask id="mask0_2336_15779" style="mask-type:alpha" maskUnits="userSpaceOnUse" x="0" y="0" width="188" height="188">
<rect width="188" height="188" fill="#D9D9D9"/>
</mask>
<g mask="url(#mask0_2336_15779)">
<path d="M101.23 129.12L106.263 113.8L112.755 117.547L126.504 109.557C131.668 106.556 131.643 101.689 126.443 98.687C123.844 97.1869 120.443 96.4367 117.047 96.4367C113.651 96.4367 110.259 97.1869 107.677 98.687L105.471 99.9689L103.474 98.8088L107.72 96.3417C107.754 96.3216 107.775 96.2846 107.775 96.2443L107.789 91.1662C107.789 91.1256 107.768 91.0882 107.733 91.068C107.715 91.0581 107.696 91.0528 107.676 91.0528C107.657 91.0528 107.638 91.0581 107.62 91.068L100.366 95.2837L98.7188 94.3329L99.4248 93.9227C104.271 91.1065 110.636 89.6982 117.009 89.6982C123.382 89.6982 129.763 91.1065 134.641 93.9227C144.4 99.5565 144.451 108.69 134.759 114.323L121.01 122.313L127.665 126.156L101.23 129.12Z" fill="#9C9C9C"/>
<path d="M109.872 84.7766L109.848 92.8775L98.1875 99.6543L98.21 91.5535L109.872 84.7766Z" fill="white"/>
<path d="M98.3902 91.6581L98.3682 99.3422L109.669 92.7749L109.691 85.0908L98.3902 91.6581ZM98.1875 99.835L98.0979 99.8108C98.0422 99.7792 98.0078 99.719 98.0078 99.6553L98.0309 91.554C98.0309 91.4903 98.0653 91.4312 98.1199 91.3985L109.781 84.6217C109.837 84.5896 109.905 84.5896 109.962 84.6217C110.017 84.6538 110.052 84.7135 110.052 84.7782L110.029 92.8785C110.029 92.9427 109.995 93.0018 109.94 93.0339L98.2781 99.8108L98.1875 99.835Z" fill="#32353D"/>
<path d="M98.2114 91.5535L98.1888 99.6543L85.0254 92.0541L85.0485 83.9539L98.2114 91.5535Z" fill="white"/>
<path d="M85.2056 91.9515L98.0097 99.3445L98.0323 91.6581L85.2281 84.2658L85.2056 91.9515ZM98.1888 99.835L98.0993 99.8108L84.9358 92.2111C84.8801 92.179 84.8457 92.1194 84.8457 92.0546L84.8694 83.9543C84.8694 83.8901 84.9031 83.8305 84.9589 83.7989C85.0152 83.7674 85.0822 83.7668 85.1385 83.7989L98.302 91.3985C98.3577 91.4306 98.3915 91.4903 98.3915 91.5551L98.3685 99.6553C98.3685 99.7201 98.3347 99.7792 98.2789 99.8113L98.1888 99.835Z" fill="#32353D"/>
<path d="M130.359 96.6406L130.344 101.719C130.35 99.7393 129.044 97.7566 126.427 96.2459C121.23 93.2454 112.825 93.2454 107.661 96.2463L107.676 91.1678C112.839 88.167 121.244 88.167 126.442 91.1678C129.058 92.6781 130.364 94.6611 130.359 96.6406Z" fill="#978050"/>
<path d="M117.033 93.8856C120.451 93.8856 123.874 94.6394 126.485 96.1468C128.457 97.2857 129.747 98.7163 130.237 100.275L130.247 96.6386C130.253 94.6132 128.882 92.7047 126.387 91.2636C121.246 88.2959 112.92 88.2843 107.79 91.2315L107.776 96.0501C110.348 94.6072 113.688 93.8856 117.033 93.8856ZM130.346 101.83H130.345C130.283 101.83 130.233 101.779 130.233 101.717C130.238 99.6914 128.867 97.7828 126.372 96.3421C121.212 93.3635 112.845 93.3631 107.72 96.3421C107.684 96.3625 107.641 96.3625 107.606 96.3421C107.571 96.3223 107.55 96.2845 107.55 96.2443L107.564 91.1658C107.564 91.1256 107.585 91.0888 107.62 91.0683C112.809 88.0534 121.277 88.0537 126.5 91.0683C129.068 92.5511 130.479 94.5296 130.473 96.639L130.458 101.717C130.458 101.78 130.408 101.83 130.346 101.83Z" fill="#32353D"/>
<path d="M141.993 96.6759L141.98 101.755C141.967 105.419 139.56 109.083 134.745 111.883L120.993 119.872L121.006 114.793L134.758 106.804C139.573 104.004 141.985 100.344 141.993 96.6759Z" fill="#978050"/>
<path d="M121.119 114.859L121.106 119.677L134.688 111.787C139.304 109.102 141.854 105.541 141.867 101.756L141.875 98.645C141.145 101.763 138.701 104.642 134.815 106.903L121.119 114.859ZM120.993 119.986L120.936 119.971C120.902 119.951 120.88 119.914 120.88 119.873L120.893 114.794C120.893 114.754 120.915 114.717 120.949 114.696L134.701 106.707C139.322 104.021 141.871 100.459 141.881 96.6776V96.6772C141.881 96.6147 141.931 96.5646 141.993 96.5646H141.994C142.056 96.5649 142.106 96.6151 142.106 96.6776L142.093 101.757C142.079 105.625 139.49 109.256 134.802 111.982L121.05 119.971L120.993 119.986Z" fill="#32353D"/>
<path d="M127.665 118.634L127.65 123.713L101.215 126.677L101.229 121.598L127.665 118.634Z" fill="#978050"/>
<path d="M101.341 121.702L101.328 126.553L127.537 123.614L127.551 118.763L101.341 121.702ZM101.214 126.792L101.139 126.763C101.115 126.742 101.102 126.711 101.102 126.679L101.116 121.601C101.116 121.543 101.159 121.495 101.216 121.489L127.651 118.525C127.686 118.521 127.716 118.532 127.74 118.553C127.763 118.574 127.777 118.605 127.777 118.637L127.762 123.716C127.762 123.773 127.719 123.821 127.662 123.827L101.227 126.791L101.214 126.792Z" fill="#32353D"/>
<path d="M134.641 86.4032C144.399 92.037 144.45 101.171 134.758 106.804L121.009 114.794L127.664 118.636L101.229 121.601L106.262 106.28L112.754 110.028L126.503 102.038C131.667 99.0371 131.642 94.1701 126.442 91.1678C121.245 88.167 112.84 88.167 107.676 91.1678L100.365 95.4163L92.1133 90.652L99.424 86.4035C109.116 80.7708 124.885 80.7708 134.641 86.4032Z" fill="#212121"/>
<path d="M106.326 106.446L101.391 121.468L127.31 118.562L120.952 114.891C120.917 114.871 120.895 114.834 120.895 114.793C120.895 114.753 120.916 114.716 120.951 114.696L134.701 106.705C139.336 104.012 141.885 100.437 141.88 96.64C141.875 92.8148 139.283 89.2138 134.584 86.4999C124.874 80.8944 109.127 80.8944 99.4802 86.5003L92.3379 90.651L100.365 95.2853L107.618 91.0693C112.807 88.0544 121.276 88.0547 126.498 91.0693C129.057 92.5468 130.468 94.5186 130.471 96.6206C130.474 98.7084 129.085 100.667 126.559 102.135L112.81 110.125C112.775 110.145 112.732 110.145 112.697 110.125L106.326 106.446ZM101.228 121.713C101.194 121.713 101.162 121.698 101.141 121.671C101.117 121.642 101.109 121.601 101.121 121.565L106.155 106.244C106.166 106.212 106.19 106.187 106.222 106.174L106.318 106.182L112.753 109.897L126.446 101.939C128.899 100.514 130.248 98.6251 130.246 96.6206C130.243 94.6026 128.872 92.7004 126.385 91.2646C121.226 88.286 112.858 88.2856 107.732 91.2646L100.421 95.5134C100.386 95.5335 100.343 95.5335 100.308 95.5134L92.0561 90.7491C92.0212 90.7287 92 90.6916 92 90.6517C92 90.6111 92.0208 90.574 92.0558 90.5536L99.3669 86.3051C109.075 80.6631 124.924 80.6628 134.696 86.3051C139.469 89.0602 142.1 92.7308 142.106 96.6396C142.111 100.521 139.521 104.165 134.814 106.9L121.233 114.793L127.72 118.538C127.763 118.563 127.784 118.611 127.775 118.659C127.764 118.707 127.725 118.742 127.676 118.748L101.241 121.712L101.228 121.713Z" fill="#32353D"/>
<path d="M106.326 106.446L101.391 121.468L127.31 118.562L120.952 114.891C120.917 114.871 120.895 114.834 120.895 114.793C120.895 114.753 120.916 114.716 120.951 114.696L134.701 106.705C139.336 104.012 141.885 100.437 141.88 96.64C141.875 92.8148 139.283 89.2138 134.584 86.4999C124.874 80.8944 109.127 80.8944 99.4802 86.5003L92.3379 90.651L100.365 95.2853L107.618 91.0693C112.807 88.0544 121.276 88.0547 126.498 91.0693C129.057 92.5468 130.468 94.5186 130.471 96.6206C130.474 98.7084 129.085 100.667 126.559 102.135L112.81 110.125C112.775 110.145 112.732 110.145 112.697 110.125L106.326 106.446ZM101.228 121.713C101.194 121.713 101.162 121.698 101.141 121.671C101.117 121.642 101.109 121.601 101.121 121.565L106.155 106.244C106.166 106.212 106.19 106.187 106.222 106.174L106.318 106.182L112.753 109.897L126.446 101.939C128.899 100.514 130.248 98.6251 130.246 96.6206C130.243 94.6026 128.872 92.7004 126.385 91.2646C121.226 88.286 112.858 88.2856 107.732 91.2646L100.421 95.5134C100.386 95.5335 100.343 95.5335 100.308 95.5134L92.0561 90.7491C92.0212 90.7287 92 90.6916 92 90.6517C92 90.6111 92.0208 90.574 92.0558 90.5536L99.3669 86.3051C109.075 80.6631 124.924 80.6628 134.696 86.3051C139.469 89.0602 142.1 92.7308 142.106 96.6396C142.111 100.521 139.521 104.165 134.814 106.9L121.233 114.793L127.72 118.538C127.763 118.563 127.784 118.611 127.775 118.659C127.764 118.707 127.725 118.742 127.676 118.748L101.241 121.712L101.228 121.713Z" fill="#32353D"/>
<path d="M151.185 142C151.121 142 151.06 141.968 151.025 141.912C150.974 141.827 151.004 141.718 151.092 141.668L182.336 124.078C183.171 123.61 183.631 122.999 183.63 122.356C183.629 121.709 183.161 121.093 182.314 120.621L158.4 107.332C158.312 107.283 158.282 107.174 158.332 107.089C158.384 107.004 158.498 106.975 158.586 107.024L182.499 120.313C183.466 120.85 183.999 121.576 184 122.356C184.002 123.131 183.476 123.851 182.522 124.385L151.278 141.975L151.185 142Z" fill="#DEDFE6"/>
<path d="M47.5916 154.537L47.4998 154.512L10.7497 132.713C10.0373 132.301 9.64314 131.742 9.64258 131.137C9.64202 130.537 10.0295 129.981 10.7351 129.571L27.9402 119.572C28.0264 119.523 28.1356 119.551 28.1857 119.637C28.2359 119.724 28.2066 119.834 28.121 119.884L10.9164 129.882C10.3257 130.225 10.0013 130.671 10.0019 131.137C10.003 131.607 10.333 132.056 10.9322 132.402L47.6834 154.203C47.769 154.253 47.7972 154.364 47.7465 154.449C47.7127 154.506 47.653 154.537 47.5916 154.537Z" fill="#DEDFE6"/>
<path d="M56.8557 133.305L2.15625 101.517L56.7616 69.99L84.8607 86.3195L84.8444 92.0444C84.8444 92.1091 84.8788 92.1688 84.9345 92.2009L88.2204 94.0982L85.0477 95.9419L98.2106 103.541L106.354 98.8094L111.461 101.778L56.8557 133.305Z" fill="#9C9C9C"/>
<path d="M98.2127 103.551L85.0498 95.9512L88.2225 94.1075L98.1001 99.8098L98.1896 99.834L98.2797 99.8104C98.2814 99.8093 98.2831 99.8087 98.2848 99.8076L103.171 96.9682L106.356 98.8187L98.2127 103.551Z" fill="#CFCECD"/>
<path d="M98.3682 99.3408L98.3828 94.1864L102.81 96.7594L98.3682 99.3408Z" fill="#E7E7E6"/>
<path d="M98.2842 99.8086C98.3366 99.7759 98.3687 99.7179 98.3687 99.6554L98.3844 94.1879L98.3698 99.3423L102.812 96.7609L103.17 96.9692L98.2842 99.8086Z" fill="#2D2F36"/>
<path d="M98.0122 99.3438L85.208 91.9508L85.2238 86.5379L98.0279 93.9787L98.0122 99.3438Z" fill="#E7E7E6"/>
<path d="M98.1888 99.835L98.0993 99.8108L88.2217 94.1084L84.9358 92.2111C84.8801 92.179 84.8457 92.1194 84.8457 92.0546L84.862 86.3297L85.2213 86.5386L85.2056 91.9515L98.0097 99.3445L98.0255 93.9794L98.3842 94.1878L98.3684 99.6553C98.3684 99.7178 98.3363 99.7758 98.284 99.8085C98.2823 99.8096 98.2806 99.8102 98.2789 99.8113L98.1888 99.835Z" fill="#2D2F36"/>
<path d="M56.6309 127.241L2.35742 95.7013L56.5375 64.4199L110.811 95.9604L56.6309 127.241Z" fill="white"/>
<path d="M2.71666 95.7008L56.6304 127.033L110.452 95.9593L56.5375 64.6277L2.71666 95.7008ZM56.6304 127.421L56.5397 127.397L2.2675 95.8556C2.21186 95.8235 2.17773 95.7644 2.17773 95.7002C2.17773 95.636 2.21226 95.5763 2.26795 95.5448L56.4479 64.2639C56.5037 64.2313 56.5724 64.2313 56.6281 64.2639L110.902 95.8038C110.957 95.8365 110.991 95.8956 110.991 95.9598C110.991 96.024 110.957 96.0831 110.901 96.1152L56.7205 127.397L56.6304 127.421Z" fill="#32353D"/>
<path d="M56.6306 127.241L2.35704 95.7013L2.18066 33.4307L56.4543 64.9712L56.6306 127.241Z" fill="#212121"/>
<path d="M2.53735 95.5966L56.4495 126.928L56.2732 65.0749L2.36075 33.7439L2.53735 95.5966ZM56.6297 127.421L56.539 127.397L2.26682 95.8556C2.21157 95.8235 2.17705 95.7644 2.17705 95.7008L2 33.4308C2 33.3666 2.03475 33.3069 2.09016 33.2748C2.14625 33.2421 2.21445 33.2421 2.27053 33.2748L56.5441 64.8153C56.5987 64.8473 56.6337 64.9065 56.6337 64.9707L56.8093 127.24C56.8093 127.305 56.7756 127.365 56.7198 127.397L56.6297 127.421Z" fill="#32353D"/>
<path d="M56.4543 64.9707L2.18066 33.4302L56.3608 2.14993L110.634 33.6898L56.4543 64.9707Z" fill="white"/>
<path d="M2.53893 33.4293L56.4534 64.7614L110.275 33.6878L56.3611 2.35624L2.53893 33.4293ZM56.4534 65.1494L56.3628 65.1252L2.08909 33.5847C2.03407 33.5526 2 33.4929 2 33.4287C2 33.3645 2.03475 33.3054 2.09016 33.2733L56.2704 1.99245C56.3267 1.96035 56.3949 1.96035 56.4518 1.99245L110.725 33.5323C110.78 33.565 110.814 33.6247 110.814 33.6889C110.814 33.7525 110.779 33.8122 110.724 33.8443L56.5435 65.1252L56.4534 65.1494Z" fill="#32353D"/>
<path d="M89.9366 45.6485L77.3143 52.9316L23.0381 21.394L35.6604 14.1108L89.9366 45.6485Z" fill="#212121"/>
<path d="M23.3973 21.394L77.3148 52.7233L89.5773 45.6474L35.6614 14.3182L23.3973 21.394ZM77.3148 53.1113L77.2236 53.0871L22.9479 21.5489C22.8922 21.5168 22.8584 21.4571 22.8584 21.3929C22.8584 21.3293 22.8928 21.2696 22.9479 21.2375L35.5713 13.9544C35.6271 13.9223 35.6952 13.9223 35.7515 13.9544L90.0272 45.4926C90.0824 45.5247 90.1168 45.5844 90.1168 45.6486C90.1168 45.7122 90.0818 45.7719 90.0266 45.804L77.4049 53.0871L77.3148 53.1113Z" fill="#32353D"/>
<path d="M110.814 95.9644L56.6262 127.244L56.4521 64.9752L77.3149 52.9336L89.9372 45.6504L110.64 33.6955L110.814 95.9644Z" fill="#FFBE2E"/>
<path d="M56.6329 65.0774L56.8063 126.932L110.635 95.8598L110.462 34.0049L56.6329 65.0774ZM56.6267 127.423L56.5371 127.399C56.4814 127.367 56.447 127.307 56.447 127.243L56.2725 64.9743C56.2725 64.9096 56.3074 64.8498 56.3626 64.8177L110.551 33.538C110.608 33.5059 110.675 33.5065 110.731 33.538C110.786 33.5696 110.821 33.6292 110.821 33.6934L110.995 95.9629C110.995 96.0277 110.96 96.0874 110.905 96.1189L56.7168 127.399L56.6267 127.423Z" fill="#32353D"/>
<path d="M77.335 52.8762L77.3361 69.4658L83.6348 59.18L89.9341 62.239L89.9336 45.6494L77.335 52.8762Z" fill="#212121"/>
<path d="M77.5161 52.9785L77.5172 68.8253L83.4831 59.0841C83.5316 59.0047 83.6318 58.9776 83.7152 59.0159L89.7554 61.9493L89.7549 45.9584L77.5161 52.9785ZM77.337 69.6436L77.2886 69.6368C77.2103 69.6154 77.1568 69.5444 77.1568 69.4639L77.1562 52.8743C77.1562 52.8096 77.1912 52.7499 77.2469 52.7183L89.8461 45.4915C89.9007 45.46 89.97 45.46 90.0252 45.4921C90.0809 45.5242 90.1153 45.5833 90.1153 45.6475L90.1158 62.2371C90.1158 62.2985 90.0837 62.3565 90.0314 62.3897C89.979 62.4229 89.9142 62.4258 89.8568 62.3987L83.7039 59.4112L77.4902 69.5574C77.457 69.612 77.3984 69.6436 77.337 69.6436Z" fill="#32353D"/>
<path d="M72.8161 89.2615C72.7136 89.3206 72.6099 89.4282 72.5311 89.5679L69.7323 94.6925C69.5076 95.1024 69.6805 95.4589 70.0133 95.2674L71.2139 94.5736L71.2438 102.949C71.2443 103.129 71.3738 103.203 71.531 103.113L74.1828 101.581C74.3433 101.488 74.4683 101.268 74.4677 101.088L74.4373 92.7124L75.6385 92.0192C75.9708 91.8272 76.1414 91.2725 75.919 91.121L73.0959 89.2418C73.021 89.1905 72.9191 89.2024 72.8161 89.2615Z" fill="#212121"/>
<path d="M64.5862 94.0119C64.4837 94.071 64.3824 94.1774 64.3075 94.3148L61.5047 99.4422C61.2806 99.8516 61.4563 100.206 61.7891 100.014L62.9897 99.3211L63.0201 107.696C63.0207 107.877 63.1457 107.952 63.3068 107.86L65.9586 106.329C66.1163 106.238 66.2441 106.015 66.2435 105.835L66.2137 97.46L67.4143 96.7662C67.7471 96.5741 67.9172 96.0194 67.688 95.8724L64.8689 93.991C64.7912 93.9409 64.6887 93.9527 64.5862 94.0119Z" fill="#212121"/>
<path d="M75.4379 104.557C75.7279 104.389 75.9673 104.525 75.9684 104.86L75.9774 108.039C75.978 108.379 75.7409 108.784 75.4503 108.952L63.8237 115.63C63.5286 115.8 63.2943 115.667 63.2938 115.328L63.2842 112.148C63.2831 111.814 63.5162 111.406 63.8113 111.235L75.4379 104.557Z" fill="#212121"/>
<path d="M47.6066 157.054C46.3175 156.31 46.3096 155.103 47.5902 154.358C48.8714 153.614 50.9561 153.614 52.2452 154.358C53.5348 155.103 53.541 156.309 52.2598 157.054C50.9792 157.798 48.8956 157.798 47.6066 157.054Z" fill="white"/>
<path d="M49.916 153.979C49.1056 153.979 48.2964 154.158 47.682 154.515C47.1228 154.84 46.8148 155.262 46.8153 155.702C46.8159 156.147 47.1296 156.571 47.6978 156.9C48.9344 157.614 50.942 157.614 52.1708 156.9C52.73 156.574 53.0381 156.152 53.0381 155.712C53.0369 155.268 52.7238 154.843 52.1567 154.515C51.5373 154.158 50.7264 153.979 49.916 153.979ZM49.9368 157.79C49.0623 157.79 48.1855 157.597 47.5176 157.211C46.8339 156.816 46.4566 156.281 46.4561 155.703C46.4549 155.129 46.826 154.596 47.5007 154.203C48.8303 153.432 50.9995 153.431 52.3364 154.204C53.02 154.598 53.3968 155.134 53.3979 155.711C53.3985 156.286 53.0268 156.818 52.3516 157.211C51.6871 157.596 50.812 157.79 49.9368 157.79Z" fill="#DEDFE6"/>
<path d="M49.9181 154.856C50.421 154.856 50.907 154.97 51.2522 155.17C51.5299 155.33 51.6898 155.527 51.6898 155.71C51.6903 155.89 51.5338 156.085 51.2612 156.243C50.9183 156.442 50.434 156.557 49.9316 156.557C49.4299 156.557 48.9439 156.442 48.5987 156.242C48.3211 156.082 48.1617 155.885 48.1611 155.702C48.1611 155.522 48.3166 155.327 48.5897 155.169C48.9315 154.97 49.4158 154.856 49.9181 154.856Z" fill="#FFBE2E"/>
<path d="M38.5687 148.395C39.1088 148.395 39.6308 148.518 40.0019 148.732C40.2998 148.905 40.471 149.116 40.4716 149.312C40.4716 149.506 40.3038 149.715 40.0109 149.885C39.6432 150.099 39.1229 150.222 38.5839 150.222C38.0444 150.222 37.5224 150.099 37.1513 149.884C36.8534 149.713 36.6822 149.501 36.6816 149.304C36.6816 149.11 36.8489 148.901 37.1417 148.732C37.5095 148.518 38.0298 148.395 38.5687 148.395Z" fill="#32353D"/>
<path d="M148.679 157.044C149.995 156.284 150.003 155.051 148.695 154.292C147.388 153.532 145.26 153.532 143.944 154.292C142.629 155.052 142.622 156.283 143.929 157.043C145.237 157.803 147.364 157.803 148.679 157.044Z" fill="white"/>
<path d="M146.323 153.9C145.495 153.9 144.666 154.083 144.033 154.448C143.453 154.783 143.132 155.219 143.132 155.673C143.132 156.124 143.446 156.555 144.019 156.888C145.274 157.618 147.324 157.618 148.588 156.888C149.169 156.552 149.489 156.117 149.49 155.662C149.49 155.211 149.176 154.78 148.603 154.448C147.975 154.083 147.149 153.9 146.323 153.9ZM146.3 157.79C145.408 157.79 144.516 157.593 143.837 157.199C143.15 156.799 142.771 156.257 142.771 155.673C142.773 155.084 143.157 154.538 143.853 154.136C145.217 153.35 147.429 153.349 148.785 154.136C149.472 154.536 149.851 155.079 149.849 155.663C149.848 156.252 149.464 156.797 148.767 157.199C148.086 157.593 147.192 157.79 146.3 157.79Z" fill="#DEDFE6"/>
<path d="M146.319 154.798C145.806 154.798 145.309 154.915 144.957 155.118C144.674 155.282 144.511 155.483 144.511 155.67C144.51 155.854 144.67 156.053 144.948 156.214C145.297 156.417 145.792 156.534 146.304 156.534C146.817 156.534 147.313 156.417 147.665 156.214C147.949 156.05 148.111 155.849 148.111 155.662C148.112 155.478 147.953 155.279 147.675 155.118C147.325 154.915 146.831 154.798 146.319 154.798Z" fill="#FFBE2E"/>
<path d="M157.903 148.205C157.352 148.205 156.819 148.33 156.44 148.549C156.136 148.725 155.961 148.94 155.961 149.141C155.96 149.339 156.132 149.552 156.431 149.726C156.806 149.944 157.337 150.069 157.887 150.069C158.438 150.069 158.97 149.944 159.349 149.725C159.653 149.55 159.828 149.333 159.829 149.133C159.829 148.935 159.657 148.721 159.359 148.548C158.984 148.33 158.453 148.205 157.903 148.205Z" fill="#32353D"/>
<path d="M96.8047 124.771C96.807 124.766 96.8095 124.76 96.8125 124.754C96.8319 124.721 96.8668 124.702 96.9027 124.702C96.9089 124.702 96.9153 124.703 96.9215 124.704L96.8047 124.771Z" fill="#C5C6CD"/>
<path d="M120.618 184.346C119.494 184.346 118.369 184.097 117.508 183.6L85.2749 164.99C83.5532 163.996 83.5438 162.387 85.2546 161.393L140.652 129.14C141.507 128.643 142.629 128.395 143.753 128.395C144.876 128.395 146.001 128.643 146.862 129.14L179.095 147.751C180.817 148.744 180.826 150.353 179.116 151.347L123.718 183.6C122.863 184.097 121.741 184.346 120.618 184.346Z" fill="#9C9C9C"/>
<path d="M182.209 136.858C183.801 137.777 183.809 139.268 182.227 140.187L124.795 173.563C123.213 174.483 120.639 174.483 119.047 173.563L86.0191 154.495C84.4266 153.575 84.4185 152.084 86.0004 151.165L143.432 117.789C145.015 116.87 147.588 116.87 149.181 117.789L182.209 136.858Z" fill="#32353D"/>
<path d="M146.304 117.202C145.281 117.202 144.26 117.428 143.485 117.878L86.0534 151.255C85.3234 151.678 84.9222 152.236 84.9229 152.825C84.9238 153.417 85.3314 153.979 86.0714 154.406L119.099 173.475C120.661 174.376 123.194 174.377 124.745 173.475L182.176 140.099C182.906 139.675 183.308 139.118 183.307 138.529C183.306 137.936 182.898 137.375 182.158 136.947L149.13 117.878C148.35 117.428 147.326 117.202 146.304 117.202ZM121.926 174.354C120.866 174.354 119.806 174.12 118.997 173.653L85.9686 154.584C85.163 154.119 84.7184 153.494 84.7178 152.825C84.7168 152.16 85.154 151.539 85.9499 151.077L143.382 117.701C144.99 116.767 147.615 116.767 149.233 117.701L182.261 136.769C183.067 137.235 183.511 137.86 183.512 138.529C183.513 139.194 183.075 139.814 182.28 140.277L124.848 173.653C124.044 174.12 122.985 174.354 121.926 174.354Z" fill="#32353D"/>
<path d="M121.926 173.544C121.007 173.544 120.117 173.334 119.484 172.969L86.4565 153.9C85.9238 153.593 85.6168 153.201 85.6143 152.827C85.6123 152.458 85.9139 152.069 86.4427 151.762L143.875 118.387C144.504 118.02 145.39 117.811 146.305 117.811C147.219 117.811 148.11 118.02 148.748 118.387L181.774 137.454C182.307 137.763 182.614 138.155 182.616 138.527C182.618 138.897 182.317 139.285 181.788 139.592L124.356 172.968C123.727 173.334 122.841 173.544 121.926 173.544Z" fill="#FFF7E4"/>
<path d="M146.302 117.913C145.405 117.913 144.538 118.118 143.923 118.475L86.4918 151.851C85.9961 152.139 85.7126 152.494 85.7142 152.827C85.7161 153.163 86.0045 153.522 86.5053 153.812L119.533 172.879C120.151 173.237 121.022 173.441 121.924 173.441C122.821 173.441 123.688 173.237 124.302 172.879L181.734 139.503C182.23 139.216 182.513 138.86 182.511 138.528C182.509 138.193 182.221 137.834 181.72 137.543L148.694 118.475C148.071 118.118 147.2 117.913 146.302 117.913ZM121.924 173.646C120.987 173.646 120.078 173.432 119.43 173.058L86.4028 153.989C85.8373 153.662 85.5117 153.239 85.5088 152.828C85.5075 152.42 85.828 151.999 86.3883 151.673L143.82 118.297C144.465 117.923 145.37 117.708 146.302 117.708C147.234 117.708 148.143 117.923 148.797 118.297L181.823 137.365C182.388 137.694 182.714 138.117 182.717 138.527C182.719 138.935 182.398 139.355 181.837 139.681L124.405 173.057C123.761 173.432 122.856 173.646 121.924 173.646Z" fill="#32353D"/>
<path d="M171.311 131.412L168.848 132.844C168.213 133.213 167.178 133.212 166.539 132.843L154.276 125.763C153.636 125.394 153.633 124.795 154.269 124.426L156.731 122.995L171.311 131.412Z" fill="#32353D"/>
<path d="M156.731 123.112L154.32 124.514C154.047 124.672 153.897 124.877 153.897 125.091C153.897 125.306 154.05 125.512 154.327 125.673L166.59 132.752C167.202 133.105 168.192 133.106 168.797 132.753L171.107 131.411L156.731 123.112ZM167.697 133.22C167.26 133.22 166.822 133.123 166.488 132.93L154.225 125.85C153.881 125.652 153.692 125.382 153.691 125.091C153.691 124.801 153.878 124.533 154.217 124.336L156.68 122.904C156.712 122.886 156.751 122.886 156.783 122.904L171.363 131.323C171.395 131.341 171.414 131.375 171.414 131.411C171.414 131.448 171.395 131.482 171.364 131.5L168.9 132.931C168.57 133.124 168.134 133.22 167.697 133.22Z" fill="#32353D"/>
<path d="M165.313 129.09C165.815 129.38 165.819 129.851 165.32 130.141C164.82 130.432 164.007 130.43 163.506 130.141L155.69 125.59C155.187 125.3 155.183 124.829 155.682 124.538C156.182 124.248 156.995 124.249 157.498 124.54L165.313 129.09Z" fill="#FFBE2E"/>
<path d="M168.245 130.611C168.831 130.949 168.833 131.499 168.252 131.837C167.668 132.176 166.721 132.174 166.136 131.837C165.548 131.497 165.542 130.949 166.126 130.609C166.708 130.271 167.657 130.271 168.245 130.611Z" fill="white"/>
<path d="M167.604 130.983C167.833 131.116 167.835 131.331 167.606 131.464C167.378 131.597 167.007 131.597 166.777 131.464C166.546 131.331 166.544 131.116 166.773 130.983C167.001 130.85 167.373 130.85 167.604 130.983Z" fill="#FFBE2E"/>
<path d="M183.41 138.534L183.388 145.422C183.388 146.023 182.989 146.62 182.204 147.076L124.771 180.06C124.267 180.35 123.661 180.552 123.016 180.657C122.302 180.776 121.542 180.78 120.823 180.661C120.165 180.561 119.542 180.359 119.024 180.06L85.9959 160.991C85.1977 160.526 84.7939 159.921 84.7939 159.315L84.8203 152.818C84.8203 153.059 84.8817 153.305 85.0177 153.542C85.2019 153.889 85.5397 154.218 86.0222 154.498L86.1363 154.56L86.1582 154.577L90.2377 156.933L119.047 173.563C119.09 173.594 119.139 173.616 119.187 173.638C119.669 173.893 120.231 174.068 120.823 174.165C121.183 174.222 121.556 174.252 121.924 174.252C122.293 174.252 122.661 174.226 123.016 174.169C123.609 174.072 124.17 173.901 124.653 173.642C124.701 173.616 124.749 173.594 124.797 173.563L182.064 140.281L182.085 140.267L182.23 140.184C182.691 139.916 183.02 139.596 183.208 139.254C183.344 139.021 183.41 138.78 183.41 138.534Z" fill="#212121"/>
<path d="M123.017 174.169V180.657C122.302 180.776 121.543 180.78 120.823 180.661V174.165C121.183 174.222 121.556 174.252 121.925 174.252C122.293 174.252 122.662 174.226 123.017 174.169Z" fill="#FFBE2E"/>
<path d="M129.538 177.426C129.482 177.426 129.436 177.38 129.436 177.323V170.809C129.436 170.752 129.482 170.706 129.538 170.706C129.595 170.706 129.641 170.752 129.641 170.809V177.323C129.641 177.38 129.595 177.426 129.538 177.426Z" fill="#32353D"/>
<path d="M109.943 170.84C110.356 171.078 110.688 171.654 110.686 172.128C110.685 172.601 110.351 172.793 109.939 172.555C109.527 172.317 109.194 171.74 109.195 171.268C109.197 170.793 109.532 170.602 109.943 170.84Z" fill="#FFBE2E"/>
<path d="M112.581 172.362C112.994 172.6 113.327 173.178 113.326 173.652C113.325 174.124 112.989 174.315 112.577 174.077C112.165 173.84 111.832 173.262 111.833 172.79C111.835 172.315 112.17 172.124 112.581 172.362Z" fill="#FFBE2E"/>
<path d="M115.218 173.884C115.631 174.122 115.964 174.7 115.963 175.174C115.961 175.647 115.626 175.838 115.213 175.599C114.802 175.362 114.468 174.785 114.47 174.312C114.471 173.838 114.807 173.647 115.218 173.884Z" fill="#FFBE2E"/>
<path d="M106.17 168.783C106.542 168.998 106.842 169.518 106.841 169.944C106.84 170.371 106.537 170.543 106.165 170.329L99.1754 166.28C98.8054 166.066 98.5046 165.546 98.5059 165.118C98.5071 164.693 98.8096 164.52 99.1799 164.734L106.17 168.783Z" fill="#FFBE2E"/>
<path d="M91.1432 160.044C91.5559 160.282 91.8893 160.859 91.888 161.333C91.8864 161.806 91.5511 161.997 91.1384 161.759C90.7272 161.521 90.3939 160.944 90.3955 160.472C90.3968 159.997 90.7321 159.806 91.1432 160.044Z" fill="#FFBE2E"/>
<path d="M93.7802 161.566C94.193 161.804 94.5263 162.382 94.5247 162.856C94.5234 163.328 94.1885 163.519 93.7751 163.281C93.3643 163.044 93.0309 162.467 93.0322 161.994C93.0338 161.52 93.3691 161.328 93.7802 161.566Z" fill="#FFBE2E"/>
<path d="M88.2813 162.415C88.225 162.415 88.1787 162.369 88.1787 162.312V155.805C88.1787 155.748 88.225 155.702 88.2813 155.702C88.3378 155.702 88.3841 155.748 88.3841 155.805V162.312C88.3841 162.369 88.3378 162.415 88.2813 162.415Z" fill="#32353D"/>
<path d="M153.55 159.531C154.121 159.201 154.588 159.467 154.59 160.124C154.592 160.781 154.128 161.582 153.556 161.912L142.056 168.522C141.484 168.852 141.02 168.587 141.018 167.93C141.016 167.274 141.478 166.472 142.049 166.141L153.55 159.531Z" fill="#FFBE2E"/>
<path d="M142.498 166.512C142.772 166.353 142.994 166.48 142.995 166.795C142.996 167.111 142.775 167.493 142.501 167.651C142.227 167.809 142.002 167.685 142.001 167.369C142 167.054 142.223 166.67 142.498 166.512Z" fill="#32353D"/>
<path d="M174.349 148.196L174.322 148.192L174.27 148.174C174.112 148.135 173.914 148.17 173.704 148.293L167.01 152.157C166.465 152.469 166.027 153.228 166.027 153.855C166.027 153.912 166.031 153.96 166.04 154.009C166.045 154.057 166.053 154.101 166.071 154.14C166.079 154.18 166.092 154.219 166.106 154.25L166.15 154.32L166.193 154.381L166.272 154.452L166.316 154.482L165.477 154.014C165.301 153.912 165.191 153.694 165.191 153.387C165.187 152.759 165.626 152 166.17 151.688L172.864 147.824C173.136 147.666 173.386 147.653 173.562 147.753L174.349 148.196Z" fill="#32353D"/>
<path d="M173.308 147.792C173.189 147.792 173.056 147.833 172.918 147.913L166.223 151.778C165.708 152.073 165.292 152.794 165.296 153.386C165.296 153.643 165.381 153.839 165.53 153.925L165.975 154.173L165.972 154.163C165.958 154.134 165.946 154.083 165.94 154.018C165.931 153.973 165.926 153.919 165.926 153.855C165.926 153.185 166.38 152.4 166.96 152.068L173.655 148.204C173.75 148.148 173.847 148.107 173.939 148.083L173.513 147.843C173.454 147.809 173.384 147.792 173.308 147.792ZM166.318 154.585L166.273 154.574L166.247 154.56L165.429 154.103C165.214 153.979 165.091 153.718 165.091 153.387C165.086 152.729 165.548 151.927 166.121 151.6L172.815 147.735C173.106 147.566 173.398 147.539 173.615 147.665L174.401 148.107C174.45 148.134 174.467 148.195 174.441 148.244C174.418 148.289 174.365 148.309 174.319 148.294L174.25 148.263C174.109 148.239 173.935 148.277 173.758 148.381L167.063 152.246C166.549 152.541 166.131 153.262 166.131 153.855C166.131 153.905 166.135 153.948 166.143 153.99C166.148 154.041 166.155 154.073 166.167 154.099C166.18 154.151 166.191 154.184 166.202 154.209L166.237 154.262L166.268 154.309L166.332 154.367L166.331 154.372L166.369 154.393C166.417 154.42 166.435 154.481 166.409 154.53C166.39 154.565 166.355 154.585 166.318 154.585Z" fill="#32353D"/>
<path d="M174.69 148.855C174.69 149.474 174.252 150.237 173.707 150.553L167.013 154.418C166.741 154.576 166.496 154.589 166.316 154.484L166.272 154.453L166.193 154.383L166.149 154.321L166.105 154.251C166.092 154.221 166.079 154.181 166.07 154.141C166.053 154.102 166.044 154.058 166.04 154.01C166.031 153.962 166.026 153.913 166.026 153.856C166.026 153.229 166.465 152.47 167.009 152.159L173.703 148.294C173.914 148.171 174.111 148.136 174.269 148.175L174.322 148.193L174.366 148.206L174.383 148.215C174.572 148.311 174.686 148.535 174.69 148.855Z" fill="#FFBE2E"/>
<path d="M174.164 148.256C174.041 148.256 173.899 148.298 173.755 148.381L167.06 152.246C166.547 152.54 166.129 153.262 166.129 153.855C166.129 153.905 166.133 153.948 166.141 153.99C166.146 154.041 166.153 154.073 166.165 154.099C166.178 154.151 166.189 154.184 166.2 154.209L166.234 154.262L166.266 154.308L166.33 154.367L166.368 154.394C166.522 154.484 166.733 154.461 166.962 154.328L173.657 150.463C174.17 150.165 174.588 149.443 174.588 148.855C174.584 148.581 174.495 148.386 174.337 148.305L174.33 148.301L174.309 148.29L174.248 148.263C174.221 148.259 174.193 148.256 174.164 148.256ZM166.577 154.653C166.464 154.653 166.358 154.626 166.265 154.571L166.2 154.524C166.177 154.511 166.14 154.478 166.114 154.447L166.062 154.374L166.02 154.307C165.995 154.255 165.98 154.208 165.97 154.163C165.955 154.134 165.943 154.082 165.938 154.018C165.929 153.973 165.924 153.919 165.924 153.855C165.924 153.185 166.378 152.4 166.958 152.068L173.652 148.204C173.879 148.071 174.103 148.027 174.294 148.074C174.298 148.072 174.328 148.074 174.36 148.092L174.417 148.116L174.43 148.122L174.43 148.122C174.66 148.239 174.789 148.499 174.793 148.853V148.854C174.793 149.508 174.329 150.31 173.76 150.641L167.065 154.505C166.895 154.604 166.729 154.653 166.577 154.653Z" fill="#32353D"/>
<path d="M178.943 149.052C178.886 149.052 178.84 149.006 178.84 148.949V142.099C178.84 142.042 178.886 141.997 178.943 141.997C178.999 141.997 179.045 142.042 179.045 142.099V148.949C179.045 149.006 178.999 149.052 178.943 149.052Z" fill="#32353D"/>
<path d="M84.92 153.578L84.8965 159.316C84.8965 159.906 85.3057 160.47 86.0476 160.902L119.076 179.971C119.568 180.255 120.178 180.458 120.839 180.56C121.54 180.675 122.288 180.674 123 180.555C123.641 180.451 124.236 180.249 124.72 179.971L182.153 146.987C182.883 146.562 183.285 146.006 183.285 145.422L183.305 139.292L183.297 139.306C183.097 139.668 182.746 140.003 182.281 140.273L182.117 140.369L124.849 173.653C124.818 173.672 124.783 173.691 124.748 173.708L124.702 173.733C124.231 173.986 123.669 174.166 123.033 174.27C122.349 174.38 121.57 174.387 120.807 174.266C120.184 174.164 119.622 173.984 119.139 173.729C119.087 173.705 119.035 173.681 118.987 173.647L86.1071 154.666L86.0721 154.64L85.974 154.589C85.4844 154.304 85.1231 153.959 84.927 153.59L84.92 153.578ZM121.901 180.851C121.531 180.851 121.163 180.821 120.806 180.763C120.122 180.658 119.487 180.446 118.973 180.149L85.9444 161.079C85.136 160.609 84.6914 159.982 84.6914 159.315L84.7178 152.818C84.7181 152.761 84.7637 152.715 84.8203 152.715H84.8209C84.8775 152.716 84.9232 152.761 84.9232 152.818C84.9232 153.052 84.9849 153.278 85.107 153.491C85.2864 153.829 85.6207 154.146 86.074 154.409L86.2225 154.497L119.098 173.475C119.143 173.505 119.184 173.524 119.224 173.542C119.699 173.791 120.239 173.965 120.84 174.063C121.58 174.18 122.338 174.174 123 174.068C123.614 173.967 124.153 173.794 124.605 173.552L124.654 173.526C124.684 173.511 124.713 173.495 124.742 173.477L182.179 140.095C182.61 139.844 182.935 139.536 183.119 139.204C183.243 138.992 183.306 138.77 183.308 138.543V138.534C183.308 138.477 183.354 138.432 183.41 138.432C183.467 138.432 183.513 138.478 183.513 138.534V138.535V138.543L183.491 145.422C183.491 146.083 183.052 146.702 182.255 147.165L124.822 180.149C124.317 180.439 123.699 180.65 123.033 180.758C122.661 180.82 122.28 180.851 121.901 180.851Z" fill="#32353D"/>
<path d="M106.656 162.149C107.852 162.837 109.774 162.827 110.949 162.142C112.134 161.451 112.128 160.346 110.931 159.658C109.736 158.97 107.825 158.97 106.639 159.662C105.464 160.346 105.461 161.461 106.656 162.149Z" fill="#3C2C0B"/>
<path d="M151.892 149.437C152.524 149.801 152.527 150.394 151.9 150.758L148.228 152.893L119.757 136.455L123.429 134.321C124.057 133.956 125.079 133.956 125.713 134.322L151.892 149.437Z" fill="#FFBE2E"/>
<path d="M148.228 152.893L130.477 163.258C129.847 163.625 128.825 163.625 128.193 163.26L102.014 148.145C101.38 147.779 101.377 147.187 102.007 146.821L119.757 136.455L148.228 152.893Z" fill="#978050"/>
<path d="M131.186 134.148C131.76 134.479 131.764 135.015 131.193 135.347L127.82 137.307C127.251 137.638 126.324 137.639 125.749 137.307C125.174 136.975 125.171 136.437 125.74 136.106L129.112 134.146C129.683 133.814 130.611 133.816 131.186 134.148Z" fill="#3C2C0B"/>
<path d="M141.293 139.984C141.868 140.316 141.873 140.853 141.303 141.185L137.93 143.145C137.361 143.475 136.431 143.475 135.856 143.144C135.281 142.812 135.278 142.273 135.847 141.942L139.219 139.982C139.791 139.65 140.718 139.652 141.293 139.984Z" fill="#3C2C0B"/>
<path d="M136.238 137.065C136.813 137.397 136.819 137.934 136.247 138.266L132.875 140.226C132.306 140.557 131.376 140.557 130.801 140.224C130.227 139.892 130.226 139.355 130.795 139.025L134.168 137.065C134.738 136.733 135.663 136.733 136.238 137.065Z" fill="#3C2C0B"/>
<path d="M146.348 142.903C146.923 143.235 146.926 143.77 146.355 144.102L142.982 146.062C142.413 146.392 141.486 146.394 140.911 146.062C140.336 145.73 140.333 145.192 140.902 144.861L144.275 142.901C144.846 142.569 145.773 142.571 146.348 142.903Z" fill="#3C2C0B"/>
<path d="M151.4 145.819C151.975 146.151 151.981 146.688 151.41 147.02L148.037 148.98C147.468 149.31 146.538 149.31 145.963 148.979C145.389 148.647 145.388 148.109 145.957 147.779L149.33 145.819C149.9 145.487 150.826 145.487 151.4 145.819Z" fill="#3C2C0B"/>
<path d="M122.994 144.828C123.311 145.011 123.315 145.307 123 145.49L121.295 146.482C120.979 146.665 120.466 146.665 120.148 146.482L118.432 145.49C118.115 145.307 118.116 145.011 118.431 144.828L120.136 143.837C120.451 143.654 120.96 143.654 121.277 143.837L122.994 144.828Z" fill="#FFF7E4"/>
<path d="M127.329 142.309C127.646 142.492 127.65 142.788 127.335 142.971L125.627 143.964C125.312 144.147 124.801 144.146 124.484 143.962L122.767 142.971C122.45 142.788 122.449 142.494 122.763 142.311L124.472 141.318C124.787 141.135 125.295 141.135 125.612 141.318L127.329 142.309Z" fill="#FFF7E4"/>
<path d="M127.415 147.381C127.732 147.564 127.734 147.858 127.419 148.042L125.714 149.033C125.399 149.216 124.887 149.217 124.57 149.034L122.851 148.042C122.536 147.86 122.535 147.563 122.85 147.379L124.555 146.388C124.87 146.205 125.382 146.207 125.696 146.388L127.415 147.381Z" fill="#FFF7E4"/>
<path d="M131.922 155.002C132.239 155.185 132.238 155.481 131.925 155.663L130.217 156.656C129.902 156.839 129.393 156.839 129.076 156.656L127.357 155.663C127.04 155.48 127.038 155.185 127.353 155.002L129.062 154.009C129.374 153.828 129.885 153.826 130.202 154.009L131.922 155.002Z" fill="#FFF7E4"/>
<path d="M123.083 149.9C123.4 150.083 123.399 150.379 123.086 150.561L121.378 151.553C121.063 151.736 120.554 151.736 120.238 151.553L118.518 150.561C118.204 150.379 118.199 150.083 118.514 149.9L120.223 148.907C120.535 148.725 121.049 148.725 121.363 148.907L123.083 149.9Z" fill="#FFF7E4"/>
<path d="M118.745 152.418C119.062 152.601 119.064 152.896 118.749 153.079L117.04 154.072C116.726 154.255 116.217 154.255 115.899 154.072L114.18 153.079C113.866 152.897 113.862 152.601 114.176 152.418L115.885 151.425C116.2 151.242 116.711 151.244 117.026 151.425L118.745 152.418Z" fill="#FFBE2E"/>
<path d="M127.5 152.45C127.817 152.633 127.819 152.93 127.507 153.112L125.798 154.105C125.483 154.288 124.972 154.286 124.655 154.103L122.938 153.112C122.621 152.929 122.619 152.634 122.934 152.451L124.643 151.459C124.955 151.277 125.466 151.275 125.784 151.459L127.5 152.45Z" fill="#FFF7E4"/>
<path d="M123.165 154.97C123.482 155.152 123.486 155.449 123.172 155.632L121.463 156.624C121.148 156.807 120.637 156.806 120.32 156.623L118.603 155.632C118.286 155.449 118.285 155.154 118.6 154.971L120.307 153.978C120.623 153.795 121.131 153.795 121.448 153.978L123.165 154.97Z" fill="#FFF7E4"/>
<path d="M114.324 149.866C114.641 150.049 114.645 150.345 114.331 150.528L112.623 151.521C112.308 151.704 111.796 151.702 111.479 151.519L109.763 150.528C109.445 150.345 109.443 150.051 109.759 149.867L111.467 148.875C111.782 148.691 112.291 148.691 112.607 148.875L114.324 149.866Z" fill="#FFF7E4"/>
<path d="M109.906 147.315C110.223 147.498 110.225 147.792 109.91 147.976L108.202 148.968C107.887 149.151 107.378 149.151 107.061 148.968L105.342 147.976C105.027 147.794 105.023 147.498 105.338 147.315L107.046 146.322C107.361 146.139 107.872 146.14 108.187 146.322L109.906 147.315Z" fill="#BEC3CD"/>
<path d="M114.243 144.796C114.56 144.979 114.559 145.275 114.247 145.457L112.538 146.45C112.223 146.633 111.715 146.633 111.398 146.45L109.679 145.457C109.364 145.275 109.36 144.979 109.675 144.796L111.383 143.803C111.695 143.622 112.209 143.622 112.524 143.803L114.243 144.796Z" fill="#FFF7E4"/>
<path d="M118.577 142.278C118.894 142.461 118.895 142.756 118.58 142.939L116.875 143.93C116.56 144.113 116.048 144.115 115.731 143.932L114.012 142.939C113.698 142.758 113.696 142.46 114.011 142.277L115.717 141.286C116.032 141.103 116.543 141.104 116.857 141.286L118.577 142.278Z" fill="#FFF7E4"/>
<path d="M122.911 139.757C123.228 139.94 123.229 140.235 122.915 140.418L121.206 141.411C120.891 141.594 120.383 141.594 120.065 141.411L118.346 140.418C118.032 140.236 118.028 139.94 118.343 139.757L120.051 138.764C120.366 138.581 120.877 138.583 121.191 138.764L122.911 139.757Z" fill="#FFF7E4"/>
<path d="M140.59 149.964C140.906 150.147 140.908 150.442 140.593 150.625L138.885 151.617C138.57 151.801 138.061 151.801 137.744 151.618L136.025 150.625C135.708 150.442 135.706 150.147 136.021 149.964L137.73 148.971C138.044 148.788 138.553 148.788 138.87 148.971L140.59 149.964Z" fill="#FFF7E4"/>
<path d="M136.253 152.484C136.57 152.667 136.572 152.962 136.257 153.145L134.551 154.136C134.236 154.319 133.725 154.321 133.408 154.138L131.689 153.145C131.372 152.962 131.373 152.666 131.688 152.483L133.393 151.492C133.708 151.309 134.217 151.309 134.534 151.492L136.253 152.484Z" fill="#FFF7E4"/>
<path d="M145.007 152.515C145.324 152.698 145.328 152.994 145.013 153.177L143.305 154.17C142.99 154.353 142.479 154.352 142.162 154.168L140.445 153.177C140.128 152.994 140.124 152.698 140.439 152.515L142.147 151.523C142.462 151.34 142.973 151.341 143.29 151.524L145.007 152.515Z" fill="#FFF7E4"/>
<path d="M140.672 155.035C140.989 155.217 140.993 155.514 140.678 155.696L138.973 156.688C138.658 156.871 138.144 156.871 137.827 156.688L136.11 155.696C135.793 155.514 135.791 155.216 136.106 155.033L137.812 154.042C138.127 153.858 138.638 153.86 138.955 154.043L140.672 155.035Z" fill="#FFF7E4"/>
<path d="M136.169 147.412C136.486 147.595 136.49 147.891 136.175 148.074L134.467 149.067C134.152 149.25 133.641 149.248 133.324 149.065L131.607 148.074C131.29 147.891 131.289 147.596 131.603 147.413L133.312 146.42C133.626 146.237 134.135 146.237 134.452 146.42L136.169 147.412Z" fill="#FFF7E4"/>
<path d="M131.751 144.862C132.068 145.045 132.069 145.34 131.755 145.523L130.046 146.515C129.731 146.698 129.222 146.698 128.905 146.515L127.186 145.523C126.872 145.341 126.867 145.045 127.183 144.862L128.891 143.869C129.205 143.686 129.717 143.687 130.031 143.869L131.751 144.862Z" fill="#FFF7E4"/>
<path d="M131.833 149.932C132.15 150.115 132.154 150.411 131.839 150.594L130.134 151.585C129.818 151.768 129.305 151.768 128.987 151.585L127.271 150.594C126.954 150.411 126.955 150.115 127.27 149.932L128.975 148.941C129.29 148.758 129.799 148.758 130.116 148.941L131.833 149.932Z" fill="#FFF7E4"/>
<path d="M118.661 147.346C118.978 147.529 118.98 147.827 118.668 148.008L116.959 149.001C116.644 149.184 116.133 149.183 115.816 149L114.099 148.008C113.782 147.825 113.781 147.531 114.095 147.348L115.804 146.355C116.116 146.174 116.627 146.172 116.945 146.355L118.661 147.346Z" fill="#FFF7E4"/>
<path d="M136.339 157.553C136.656 157.736 136.658 158.034 136.345 158.216L134.638 159.208C134.322 159.391 133.811 159.39 133.494 159.207L131.777 158.216C131.46 158.033 131.456 157.736 131.771 157.553L133.479 156.561C133.792 156.379 134.306 156.379 134.622 156.562L136.339 157.553Z" fill="#FFF7E4"/>
<path d="M132.002 160.072C132.32 160.255 132.324 160.551 132.009 160.734L130.3 161.727C129.986 161.91 129.474 161.908 129.157 161.725L127.44 160.734C127.123 160.551 127.119 160.255 127.434 160.072L129.143 159.079C129.457 158.896 129.969 158.898 130.286 159.081L132.002 160.072Z" fill="#FFF7E4"/>
<path d="M127.585 157.522C127.902 157.705 127.904 157.999 127.589 158.183L125.881 159.175C125.566 159.358 125.057 159.358 124.74 159.175L123.021 158.183C122.704 157.999 122.702 157.705 123.017 157.522L124.725 156.529C125.04 156.346 125.549 156.346 125.866 156.529L127.585 157.522Z" fill="#FFF7E4"/>
<path d="M112.014 148.128L108.322 151.506L111.886 153.053L112.921 153.501C113.254 153.643 113.601 153.332 113.497 152.986L113.158 151.871L112.014 148.128Z" fill="white"/>
<path d="M108.508 151.475L112.962 153.407C113.081 153.458 113.208 153.436 113.304 153.35C113.401 153.265 113.436 153.139 113.399 153.015L111.963 148.314L108.508 151.475ZM113.09 153.639C113.02 153.639 112.948 153.625 112.88 153.595L108.281 151.601C108.25 151.587 108.227 151.558 108.221 151.524C108.215 151.489 108.227 151.454 108.253 151.431L111.944 148.052C111.97 148.029 112.007 148.02 112.04 148.029C112.075 148.038 112.101 148.064 112.112 148.098L113.596 152.956C113.655 153.156 113.596 153.365 113.441 153.503C113.342 153.592 113.217 153.639 113.09 153.639Z" fill="#32353D"/>
<path d="M97.1467 131.723C97.4096 132.011 97.4845 132.473 97.3023 133.041C96.9429 134.171 95.7136 135.29 94.5635 135.537C93.9884 135.66 93.54 135.548 93.2793 135.261L107.928 151.251C108.188 151.538 108.637 151.65 109.212 151.526C110.362 151.278 111.589 150.161 111.95 149.031C112.131 148.463 112.058 148.001 111.795 147.712L97.1467 131.723Z" fill="#978050"/>
<path d="M93.7764 135.654L108.003 151.183C108.248 151.453 108.669 151.54 109.189 151.428C110.307 151.186 111.501 150.097 111.852 149.001C112.014 148.488 111.966 148.056 111.718 147.783L97.4914 132.254C97.5252 132.498 97.4949 132.775 97.3988 133.074C97.0301 134.234 95.7675 135.385 94.5839 135.639C94.2843 135.703 94.0123 135.707 93.7764 135.654ZM108.771 151.681C108.384 151.681 108.066 151.558 107.851 151.322L93.2081 135.337L93.2026 135.332C93.1647 135.29 93.1672 135.225 93.2087 135.187C93.2518 135.149 93.3154 135.152 93.3543 135.193L93.3588 135.199C93.6041 135.464 94.0239 135.549 94.5405 135.438C95.6598 135.198 96.8543 134.109 97.2027 133.011C97.367 132.5 97.3197 132.068 97.0697 131.793C97.0317 131.752 97.0346 131.687 97.0764 131.648C97.1185 131.61 97.1825 131.613 97.2214 131.655L97.222 131.655L111.869 147.645C112.17 147.974 112.233 148.477 112.047 149.063C111.677 150.222 110.414 151.373 109.232 151.629C109.07 151.663 108.916 151.681 108.771 151.681Z" fill="#32353D"/>
<path d="M97.575 139.95C97.835 140.237 98.2838 140.349 98.8589 140.226C100.009 139.979 101.238 138.86 101.597 137.73C101.78 137.162 101.705 136.7 101.442 136.412L100.011 134.849C100.274 135.138 100.348 135.599 100.166 136.167C99.8068 137.298 98.5776 138.416 97.4274 138.664C96.8524 138.787 96.4039 138.674 96.1436 138.388L97.575 139.95Z" fill="#3C2C0B"/>
<path d="M96.6404 138.777L97.6498 139.878V139.879C97.8944 140.148 98.3145 140.235 98.8362 140.123C99.9555 139.883 101.15 138.794 101.499 137.696C101.663 137.185 101.615 136.753 101.365 136.479L100.356 135.377C100.39 135.621 100.359 135.898 100.263 136.197C99.8945 137.357 98.6318 138.507 97.4482 138.762C97.1486 138.826 96.8764 138.83 96.6404 138.777ZM98.4177 140.376C98.0313 140.376 97.7131 140.254 97.498 140.017L96.0718 138.46L96.0669 138.454C96.0287 138.413 96.0316 138.348 96.0734 138.31C96.1161 138.272 96.1801 138.274 96.2187 138.316L96.2232 138.321C96.4678 138.586 96.8866 138.672 97.4048 138.561C98.5244 138.321 99.719 137.232 100.067 136.134C100.231 135.623 100.185 135.191 99.9343 134.917V134.917V134.916C99.8961 134.875 99.899 134.81 99.9408 134.771C99.9822 134.733 100.047 134.736 100.086 134.778L101.517 136.34C101.819 136.672 101.882 137.175 101.695 137.759C101.326 138.919 100.063 140.07 98.8796 140.324C98.7173 140.359 98.5624 140.376 98.4177 140.376Z" fill="#32353D"/>
<path d="M97.3021 133.042C97.6621 131.912 97.017 131.199 95.8655 131.447C94.7112 131.696 93.4836 132.813 93.1232 133.943C92.7632 135.074 93.4083 135.786 94.5624 135.537C95.7141 135.289 96.9417 134.173 97.3021 133.042Z" fill="#32353D"/>
<path d="M96.3037 131.501C96.1739 131.501 96.035 131.517 95.8881 131.548C94.7669 131.79 93.5711 132.879 93.222 133.975C93.0593 134.486 93.1056 134.918 93.3531 135.191C93.5997 135.462 94.0233 135.549 94.5415 135.437C95.6605 135.196 96.8553 134.108 97.2048 133.011C97.3677 132.5 97.3211 132.068 97.0736 131.795C96.8968 131.601 96.631 131.501 96.3037 131.501ZM94.1233 135.69C93.7366 135.69 93.4177 135.567 93.2011 135.329C92.9021 135 92.8401 134.497 93.0262 133.912C93.3949 132.754 94.6595 131.603 95.8447 131.348C96.4371 131.219 96.928 131.329 97.2257 131.657C97.5243 131.986 97.5866 132.49 97.4005 133.073C97.0309 134.233 95.7682 135.383 94.5849 135.638C94.4229 135.673 94.2683 135.69 94.1233 135.69Z" fill="#32353D"/>
<path d="M113.065 151.887C112.459 152.019 112.014 152.488 111.885 153.053L112.92 153.501C113.253 153.643 113.6 153.332 113.496 152.986L113.156 151.871C113.127 151.873 113.096 151.88 113.065 151.887Z" fill="#3C2C0B"/>
<path d="M112.007 152.994L112.962 153.407C113.081 153.458 113.208 153.436 113.304 153.35C113.401 153.265 113.436 153.139 113.399 153.015L113.086 151.988C112.569 152.101 112.154 152.492 112.007 152.994ZM113.09 153.639C113.02 153.639 112.948 153.625 112.88 153.595L111.845 153.148C111.8 153.128 111.775 153.079 111.786 153.03C111.927 152.411 112.421 151.922 113.043 151.787L113.066 151.887L113.046 151.786C113.081 151.778 113.116 151.771 113.15 151.769C113.206 151.765 113.242 151.796 113.256 151.841L113.596 152.956C113.655 153.156 113.596 153.365 113.441 153.503C113.342 153.592 113.217 153.639 113.09 153.639Z" fill="#3C2C0B"/>
<path d="M95.0226 130.291C95.229 130.512 95.2846 130.872 95.1442 131.314C94.8622 132.191 93.9136 133.056 93.0213 133.248C92.5758 133.345 92.2305 133.256 92.0273 133.034L93.5115 134.658C93.7147 134.88 94.0628 134.968 94.5054 134.871C95.4007 134.679 96.3496 133.814 96.6283 132.937C96.7688 132.495 96.7132 132.136 96.51 131.914L95.0226 130.291Z" fill="white"/>
<path d="M92.4773 133.374L93.5873 134.589C93.7734 134.792 94.093 134.857 94.4832 134.772C95.3444 134.586 96.2624 133.75 96.5308 132.907C96.6546 132.515 96.6205 132.187 96.4341 131.984L95.3222 130.77C95.3344 130.944 95.3077 131.138 95.2421 131.345C94.9509 132.252 93.9644 133.151 93.0431 133.349C92.837 133.393 92.6467 133.402 92.4773 133.374ZM94.1643 135.014C93.8606 135.014 93.6088 134.916 93.4359 134.728L91.9527 133.105L91.9514 133.104C91.9135 133.062 91.9164 132.997 91.9582 132.959C92 132.921 92.0649 132.923 92.1032 132.965C92.2896 133.168 92.6072 133.233 92.9991 133.148C93.857 132.963 94.7754 132.127 95.0461 131.282C95.1692 130.896 95.1367 130.571 94.9538 130.368L94.9467 130.361C94.9088 130.319 94.9114 130.254 94.9525 130.216C94.9953 130.177 95.0592 130.18 95.0978 130.221L95.1058 130.23L96.5855 131.845C96.8237 132.105 96.8738 132.504 96.7266 132.969C96.4383 133.875 95.4514 134.773 94.5269 134.973C94.3999 135 94.2784 135.014 94.1643 135.014Z" fill="#32353D"/>
<path d="M93.0209 133.246C93.9162 133.056 94.8651 132.19 95.1448 131.314C95.4245 130.437 94.9246 129.883 94.0316 130.077C93.1367 130.271 92.1848 131.133 91.9081 132.01C91.6255 132.889 92.1254 133.44 93.0209 133.246Z" fill="#FFBE2E"/>
<path d="M94.3715 130.14C94.2722 130.14 94.1661 130.152 94.0536 130.177C93.1899 130.363 92.2712 131.199 92.0053 132.04C91.8806 132.43 91.914 132.757 92.0998 132.962C92.285 133.166 92.6039 133.231 92.9989 133.146L92.9993 133.145C93.8588 132.962 94.7772 132.126 95.0466 131.282C95.1707 130.893 95.1363 130.566 94.9498 130.36C94.8174 130.215 94.6178 130.14 94.3715 130.14ZM92.6784 133.388C92.3724 133.388 92.1194 133.29 91.9475 133.1C91.7102 132.839 91.6614 132.44 91.8099 131.978C92.095 131.075 93.0819 130.176 94.0102 129.976C94.4786 129.874 94.8659 129.962 95.1016 130.222C95.3397 130.484 95.3899 130.883 95.2427 131.344C94.953 132.251 93.9662 133.149 93.0423 133.346C92.9147 133.374 92.7929 133.388 92.6784 133.388Z" fill="#32353D"/>
<path d="M147.69 126.02C150.489 127.636 150.506 130.259 147.721 131.878C146.726 132.456 145.51 132.826 144.222 132.991C141.918 133.288 139.409 132.915 137.612 131.878C135.812 130.838 135.16 129.384 135.67 128.048C135.946 127.305 136.584 126.597 137.576 126.021C140.361 124.402 144.887 124.402 147.69 126.02Z" fill="#FFBE2E"/>
<path d="M145.726 127.162C146.578 127.654 146.584 128.452 145.736 128.945C145.433 129.121 145.062 129.234 144.671 129.284C143.969 129.375 143.205 129.261 142.658 128.945C142.11 128.629 141.911 128.186 142.067 127.78C142.151 127.553 142.345 127.338 142.647 127.162C143.495 126.669 144.873 126.669 145.726 127.162Z" fill="#3C2C0B"/>
<path d="M142.647 128.947C144.539 130.04 145.065 131.626 144.222 132.99C141.917 133.287 139.404 132.914 137.607 131.877C135.807 130.837 135.16 129.383 135.667 128.048C138.017 127.554 140.753 127.854 142.647 128.947Z" fill="#3C2C0B"/>
<path d="M152.366 130.578L167.188 139.135L152.366 130.578Z" fill="white"/>
<path d="M167.19 139.237L167.139 139.223L152.317 130.666C152.268 130.638 152.251 130.575 152.279 130.526C152.307 130.476 152.372 130.46 152.42 130.488L167.241 139.045C167.29 139.074 167.307 139.137 167.279 139.186C167.26 139.219 167.225 139.237 167.19 139.237Z" fill="#32353D"/>
<path d="M149.951 132.993L164.773 141.55L149.951 132.993Z" fill="white"/>
<path d="M164.774 141.654L164.723 141.64L149.901 133.083C149.852 133.055 149.835 132.992 149.863 132.943C149.892 132.893 149.955 132.877 150.004 132.905L164.825 141.462C164.874 141.491 164.891 141.554 164.863 141.603C164.844 141.636 164.809 141.654 164.774 141.654Z" fill="#32353D"/>
<path d="M147.536 135.409L156.924 140.829L147.536 135.409Z" fill="white"/>
<path d="M156.924 140.932L156.873 140.917L147.485 135.497C147.436 135.469 147.419 135.406 147.447 135.357C147.476 135.308 147.539 135.291 147.588 135.32L156.975 140.74C157.024 140.768 157.041 140.831 157.013 140.88C156.994 140.913 156.959 140.932 156.924 140.932Z" fill="#32353D"/>
<path d="M166.778 176.271C166.36 176.271 165.942 176.179 165.623 175.994L151.784 168.07C151.735 168.042 151.718 167.98 151.746 167.93C151.774 167.881 151.837 167.864 151.886 167.892L165.725 175.816C166.307 176.152 167.25 176.152 167.827 175.816L180.762 168.274C180.811 168.245 180.874 168.262 180.902 168.311C180.931 168.36 180.914 168.423 180.866 168.451L167.931 175.994C167.613 176.178 167.196 176.271 166.778 176.271Z" fill="#DEDFE6"/>
<path d="M180.265 167.203C179.522 167.632 179.518 168.328 180.256 168.757C180.994 169.185 182.195 169.185 182.937 168.756C183.68 168.328 183.684 167.632 182.946 167.203C182.208 166.775 181.007 166.774 180.265 167.203Z" fill="white"/>
<path d="M181.606 166.982C181.139 166.982 180.671 167.085 180.315 167.29C179.988 167.48 179.807 167.725 179.806 167.981C179.806 168.236 179.983 168.479 180.306 168.666C181.014 169.078 182.171 169.078 182.885 168.666C183.212 168.477 183.392 168.232 183.393 167.976C183.393 167.722 183.216 167.479 182.893 167.291C182.538 167.085 182.072 166.982 181.606 166.982ZM181.593 169.178C181.089 169.178 180.586 169.066 180.202 168.844C179.814 168.618 179.6 168.311 179.601 167.981C179.602 167.648 179.819 167.34 180.212 167.113C180.982 166.668 182.231 166.668 182.996 167.113C183.385 167.339 183.599 167.645 183.598 167.976C183.598 168.309 183.381 168.617 182.987 168.844C182.602 169.066 182.098 169.178 181.593 169.178Z" fill="#DEDFE6"/>
<path d="M181.596 168.47C181.886 168.47 182.166 168.404 182.365 168.289C182.525 168.196 182.617 168.083 182.617 167.978C182.617 167.874 182.527 167.762 182.37 167.67C182.172 167.556 181.893 167.49 181.604 167.49C181.315 167.49 181.035 167.556 180.836 167.671C180.676 167.763 180.584 167.877 180.584 167.982C180.584 168.086 180.674 168.198 180.831 168.289C181.028 168.404 181.307 168.47 181.596 168.47Z" fill="#FFBE2E"/>
<path d="M175.058 172.19C175.369 172.19 175.67 172.12 175.883 171.996C176.055 171.897 176.154 171.775 176.154 171.662C176.154 171.55 176.058 171.43 175.889 171.332C175.677 171.209 175.377 171.138 175.067 171.138C174.756 171.138 174.455 171.209 174.241 171.332C174.069 171.431 173.971 171.553 173.971 171.667C173.971 171.779 174.067 171.899 174.236 171.997C174.447 172.12 174.747 172.19 175.058 172.19Z" fill="#32353D"/>
<path d="M83.1867 183.57C83.151 183.57 83.117 183.552 83.0977 183.519C83.0697 183.47 83.0858 183.407 83.135 183.378L99.5435 173.833C99.5924 173.805 99.6554 173.821 99.6837 173.87C99.7123 173.92 99.6959 173.982 99.647 174.011L83.2385 183.556L83.1867 183.57Z" fill="#DEDFE6"/>
<path d="M83.3349 184.813C84.0775 184.384 84.0817 183.689 83.3436 183.26C82.6059 182.831 81.4049 182.831 80.6621 183.26C79.9192 183.689 79.9157 184.384 80.6537 184.813C81.3915 185.242 82.5917 185.242 83.3349 184.813Z" fill="white"/>
<path d="M82.0052 183.041C81.5382 183.041 81.0704 183.144 80.7139 183.35C80.3864 183.539 80.2061 183.784 80.2054 184.04C80.2051 184.294 80.3825 184.537 80.7056 184.725C81.4128 185.136 82.5697 185.137 83.2836 184.725C83.6112 184.536 83.7919 184.291 83.7922 184.034C83.7925 183.78 83.6147 183.537 83.2923 183.35C82.9384 183.144 82.472 183.041 82.0052 183.041ZM81.9927 185.236C81.4887 185.236 80.9849 185.125 80.6021 184.903C80.2134 184.677 79.9997 184.37 80 184.04C80.0003 183.707 80.2176 183.399 80.6108 183.172C81.3813 182.727 82.6305 182.727 83.3955 183.172C83.7842 183.398 83.9979 183.704 83.9976 184.034C83.9966 184.367 83.78 184.676 83.3862 184.903C83.0014 185.125 82.4964 185.236 81.9927 185.236Z" fill="#DEDFE6"/>
<path d="M82.0011 183.548C81.7115 183.548 81.4315 183.613 81.2322 183.728C81.0724 183.82 80.9808 183.934 80.9805 184.039C80.9805 184.144 81.0702 184.256 81.2273 184.347C81.4244 184.462 81.7037 184.528 81.993 184.527C82.282 184.527 82.562 184.462 82.7613 184.347C82.9214 184.254 83.013 184.141 83.0133 184.035C83.0133 183.931 82.9233 183.819 82.7665 183.728C82.5694 183.613 82.2904 183.548 82.0011 183.548Z" fill="#FFBE2E"/>
<path d="M88.5405 179.826C88.2293 179.826 87.9284 179.897 87.7147 180.02C87.543 180.119 87.4443 180.241 87.4443 180.354C87.444 180.466 87.5408 180.586 87.7092 180.684C87.9214 180.807 88.221 180.878 88.5318 180.878C88.8426 180.878 89.1432 180.807 89.3566 180.684C89.5286 180.585 89.6273 180.463 89.6273 180.35C89.6276 180.238 89.5309 180.117 89.3628 180.02C89.1509 179.896 88.851 179.826 88.5405 179.826Z" fill="#32353D"/>
</g>
</svg>
