<svg width="230" height="230" viewBox="0 0 230 230" fill="none" xmlns="http://www.w3.org/2000/svg">
<mask id="mask0_3191_18256" style="mask-type:alpha" maskUnits="userSpaceOnUse" x="0" y="0" width="230" height="230">
<rect width="230" height="230" fill="#D9D9D9"/>
</mask>
<g mask="url(#mask0_3191_18256)">
<path d="M102.279 17.7017C105.136 15.9783 107.469 17.2968 107.478 20.5797L107.628 72.5473C107.637 75.841 105.32 79.8448 102.463 81.4942L27.0924 125.007C24.2356 126.657 21.9026 125.338 21.8932 122.044L21.7432 70.0768C21.7339 66.794 24.0518 62.7902 26.909 61.2149L102.279 17.7017Z" fill="white"/>
<path d="M24.7685 125.91C24.241 125.91 23.7521 125.786 23.3198 125.538C22.2826 124.941 21.7091 123.701 21.7038 122.045L21.5537 70.077C21.5448 66.7044 23.9059 62.6542 26.8175 61.0484L102.183 17.5379C103.627 16.6676 105 16.513 106.049 17.1026C107.089 17.6877 107.664 18.9224 107.669 20.5792L107.819 72.5466C107.829 75.891 105.469 79.9787 102.558 81.6585L27.1881 125.172C26.3383 125.662 25.5152 125.91 24.7685 125.91ZM104.653 17.1308C103.961 17.1308 103.185 17.3774 102.378 17.8645C102.377 17.8653 102.375 17.8659 102.375 17.8664L27.0048 61.3794C24.1987 62.9273 21.9253 66.8278 21.9342 70.0764L22.0843 122.044C22.0887 123.558 22.5947 124.682 23.51 125.208C24.4327 125.739 25.6706 125.608 26.9982 124.843L102.368 81.3295C105.173 79.7099 107.448 75.7703 107.439 72.5477L107.289 20.58C107.284 19.0665 106.778 17.9492 105.863 17.4343C105.503 17.2314 105.095 17.1308 104.653 17.1308Z" fill="#383C43"/>
<path d="M102.279 17.7017C105.136 15.9783 107.469 17.2968 107.478 20.5797L107.628 72.5473C107.637 75.841 105.32 79.8448 102.463 81.4942L27.0924 125.007C24.2356 126.657 21.9026 125.338 21.8932 122.044L21.7432 70.0768C21.7339 66.794 24.0518 62.7902 26.909 61.2149L102.279 17.7017Z" fill="white"/>
<path d="M24.7685 125.91C24.241 125.91 23.7521 125.786 23.3198 125.538C22.2826 124.941 21.7091 123.701 21.7038 122.045L21.5537 70.077C21.5448 66.7044 23.9059 62.6542 26.8175 61.0484L102.183 17.5379C103.627 16.6676 105 16.513 106.049 17.1026C107.089 17.6877 107.664 18.9224 107.669 20.5792L107.819 72.5466C107.829 75.891 105.469 79.9787 102.558 81.6585L27.1881 125.172C26.3383 125.662 25.5152 125.91 24.7685 125.91ZM104.653 17.1308C103.961 17.1308 103.185 17.3774 102.378 17.8645C102.377 17.8653 102.375 17.8659 102.375 17.8664L27.0048 61.3794C24.1987 62.9273 21.9253 66.8278 21.9342 70.0764L22.0843 122.044C22.0887 123.558 22.5947 124.682 23.51 125.208C24.4327 125.739 25.6706 125.608 26.9982 124.843L102.368 81.3295C105.173 79.7099 107.448 75.7703 107.439 72.5477L107.289 20.58C107.284 19.0665 106.778 17.9492 105.863 17.4343C105.503 17.2314 105.095 17.1308 104.653 17.1308Z" fill="#383C43"/>
<path d="M105.974 17.2636C105.022 16.7134 103.714 16.8027 102.272 17.7092L26.9079 61.2183C24.0534 62.7946 21.7343 66.7934 21.7492 70.0791L21.8978 122.041C21.8978 123.676 22.4776 124.821 23.3993 125.371L18.8398 122.639C17.918 122.103 17.3383 120.944 17.3383 119.309L17.1896 67.3467C17.1747 64.0613 18.6397 59.6442 21.4941 57.9939L97.7274 14.9027C99.1546 14.0705 100.463 13.9961 101.414 14.5459L105.974 17.2636Z" fill="#212121"/>
<path d="M23.3999 125.561C23.3665 125.561 23.333 125.552 23.3026 125.534C23.3026 125.534 23.3025 125.534 23.3019 125.534L18.7423 122.802C17.7304 122.214 17.1487 120.941 17.1487 119.309L17.0001 67.3469C16.9845 63.9754 18.5217 59.4935 21.3999 57.8293L97.6347 14.7372C99.0745 13.897 100.451 13.7703 101.51 14.3813L106.072 17.1001C106.161 17.1536 106.191 17.2699 106.138 17.3598C106.084 17.4508 105.968 17.4798 105.879 17.4281C104.938 16.8842 103.693 17.0414 102.374 17.8702L27.004 61.383C24.1957 62.9339 21.9252 66.8336 21.9401 70.0784L22.0886 122.04C22.0886 123.54 22.5886 124.665 23.4973 125.207L23.4981 125.207C23.588 125.261 23.617 125.378 23.5635 125.468C23.5277 125.528 23.4646 125.561 23.3999 125.561ZM100.039 14.381C99.3605 14.381 98.6056 14.6113 97.824 15.0672L21.5886 58.1596C18.8359 59.751 17.3656 64.0805 17.3805 67.3458L17.5291 119.308C17.5291 120.801 18.0417 121.955 18.9362 122.474L22.2765 124.475C21.9043 123.833 21.7081 123.006 21.7081 122.04L21.5596 70.0793C21.544 66.7108 23.9028 62.661 26.8167 61.0518L102.178 17.5447C103.06 16.9895 103.927 16.7038 104.705 16.7286L101.317 14.7093C100.938 14.4898 100.506 14.381 100.039 14.381Z" fill="#383C43"/>
<path d="M102.46 17.7135C105.316 15.99 107.649 17.3086 107.659 20.5914L107.809 72.559C107.818 75.8527 105.5 79.8565 102.643 81.5059L27.2731 125.019C24.4162 126.668 22.0833 125.35 22.0739 122.056L21.9239 70.0885C21.9146 66.8057 24.2324 62.8019 27.0896 61.2266L102.46 17.7135Z" fill="#FFF7E4"/>
<path d="M24.7685 125.91C24.241 125.91 23.7521 125.786 23.3198 125.538C22.2826 124.941 21.7091 123.701 21.7038 122.045L21.5537 70.077C21.5448 66.7044 23.9059 62.6542 26.8175 61.0484L102.183 17.5379C103.627 16.6676 105 16.513 106.049 17.1026C107.089 17.6877 107.664 18.9224 107.669 20.5792L107.819 72.5466C107.829 75.891 105.469 79.9787 102.558 81.6585L27.1881 125.172C26.3383 125.662 25.5152 125.91 24.7685 125.91ZM104.653 17.1308C103.961 17.1308 103.185 17.3774 102.378 17.8645C102.377 17.8653 102.375 17.8659 102.375 17.8664L27.0048 61.3794C24.1987 62.9273 21.9253 66.8278 21.9342 70.0764L22.0843 122.044C22.0887 123.558 22.5947 124.682 23.51 125.208C24.4327 125.739 25.6706 125.608 26.9982 124.843L102.368 81.3295C105.173 79.7099 107.448 75.7703 107.439 72.5477L107.289 20.58C107.284 19.0665 106.778 17.9492 105.863 17.4343C105.503 17.2314 105.095 17.1308 104.653 17.1308Z" fill="#383C43"/>
<path d="M53.8365 45.6689L54.066 109.42L43.8516 115.317L43.6221 51.5694L53.8365 45.6689Z" fill="#FFBE2E"/>
<path d="M43.8513 115.507C43.8186 115.507 43.786 115.499 43.7563 115.482C43.6975 115.448 43.6612 115.385 43.6612 115.318L43.4316 51.5698C43.4316 51.5015 43.4673 51.4383 43.5267 51.4045L53.7415 45.504C53.8009 45.4698 53.8722 45.4703 53.9317 45.5037C53.9905 45.5375 54.0268 45.6002 54.0268 45.6679L54.2564 109.419C54.2564 109.487 54.22 109.55 54.1613 109.584L43.9465 115.482C43.9167 115.499 43.8841 115.507 43.8513 115.507ZM43.8127 51.6787L44.04 114.988L53.8752 109.31L53.6479 45.9972L43.8127 51.6787Z" fill="#212121"/>
<path d="M17.2305 81.5972L17.2638 93.3343L21.8173 95.9725L21.7841 84.2353L17.2305 81.5972Z" fill="#212121"/>
<path d="M21.8172 96.1625C21.7845 96.1625 21.751 96.1539 21.7221 96.1368L17.1685 93.4987C17.1098 93.4649 17.0735 93.4025 17.0735 93.3345L17.04 81.5974C17.04 81.5294 17.0764 81.4666 17.1351 81.4324C17.193 81.3982 17.2673 81.3982 17.3254 81.4324L21.8789 84.0707C21.9376 84.1044 21.974 84.1669 21.974 84.2348L22.0074 95.972C22.0074 96.0399 21.9711 96.1027 21.9124 96.1369C21.8833 96.1539 21.8499 96.1625 21.8172 96.1625ZM17.4539 93.2241L21.6262 95.6416L21.5935 84.345L17.4211 81.9275L17.4539 93.2241Z" fill="#383C43"/>
<path d="M107.519 34.6729L107.552 46.41L21.8174 95.973L21.7842 84.2359L107.519 34.6729Z" fill="#FFBE2E"/>
<path d="M21.8173 96.1632C21.7847 96.1632 21.7519 96.1547 21.7222 96.138C21.6635 96.1042 21.6272 96.0414 21.6272 95.9734L21.5938 84.2363C21.5938 84.1683 21.6302 84.1052 21.6888 84.0713L107.424 34.5084C107.484 34.4742 107.555 34.4747 107.615 34.5081C107.673 34.5419 107.71 34.6046 107.71 34.6727L107.742 46.4099C107.742 46.4778 107.706 46.541 107.647 46.5748L21.9125 96.1376C21.8828 96.1547 21.8501 96.1632 21.8173 96.1632ZM21.9741 84.3455L22.0068 95.6439L107.362 46.3006L107.33 35.0022L21.9741 84.3455Z" fill="#383C43"/>
<path d="M38.2998 48.4944L43.6372 51.5476L53.8516 45.6502L48.6229 42.6592L38.2998 48.4944Z" fill="#212121"/>
<path d="M43.637 51.7381C43.6044 51.7381 43.5716 51.7295 43.5426 51.7128L38.2052 48.6597C38.1458 48.6259 38.1094 48.5627 38.1094 48.4944C38.1094 48.4261 38.1465 48.3629 38.2059 48.3291L48.5292 42.4937C48.5879 42.4606 48.6599 42.4614 48.7172 42.4944L53.9461 45.4855C54.0055 45.5192 54.0419 45.582 54.0419 45.6501C54.0419 45.7181 54.0056 45.7812 53.9469 45.815L43.7321 51.7126C43.7024 51.7296 43.6696 51.7381 43.637 51.7381ZM38.6845 48.4959L43.6363 51.3283L53.47 45.6511L48.6223 42.878L38.6845 48.4959Z" fill="#383C43"/>
<path d="M64.6686 63.6115C64.3471 64.2114 58.3184 75.6478 50.4394 80.1979C42.5676 84.7411 36.5031 80.2908 36.1816 80.055C36.4959 79.4549 42.5247 68.0259 50.3894 63.4827C58.2684 58.9327 64.3471 63.3757 64.6686 63.6115Z" fill="#FFBE2E"/>
<path d="M43.29 82.4214C39.2572 82.4218 36.5053 80.528 36.07 80.2085C35.9942 80.1528 35.9704 80.0503 36.0136 79.9671C36.6592 78.7346 42.5411 67.7972 50.2946 63.318C58.068 58.8284 64.1172 62.971 64.7813 63.458C64.8579 63.5141 64.8816 63.6178 64.837 63.7014L64.6691 63.6115L64.8191 63.7344C63.7381 65.7579 57.9691 76.0692 50.5352 80.3624C47.8687 81.9014 45.4036 82.4214 43.29 82.4214ZM36.4288 79.9968C37.524 80.752 43.1733 84.1714 50.345 80.0332C57.5591 75.8666 63.2077 65.9231 64.4225 63.6693C63.3251 62.9137 57.6713 59.4969 50.4847 63.647C43.0708 67.9306 37.2007 78.5555 36.4288 79.9968Z" fill="#383C43"/>
<path d="M64.6686 76.2277C64.3471 76.8276 58.3184 88.264 50.4394 92.8141C42.5676 97.3573 36.5031 92.907 36.1816 92.6713C36.4959 92.0711 42.5247 80.6421 50.3894 76.099C58.2684 71.5489 64.3471 75.9919 64.6686 76.2277Z" fill="#FFBE2E"/>
<path d="M43.29 95.0377C39.2572 95.0381 36.5053 93.1443 36.07 92.8248C35.9942 92.769 35.9704 92.6665 36.0136 92.5834C36.6592 91.3509 42.5403 80.4139 50.2946 75.9347C58.0659 71.4453 64.1172 75.5873 64.7813 76.0743C64.8579 76.1304 64.8816 76.2341 64.837 76.3177L64.6691 76.2278L64.8191 76.3507C63.7381 78.3742 57.9691 88.6855 50.5352 92.9787C47.8687 94.5177 45.4036 95.0377 43.29 95.0377ZM36.4288 92.6131C37.524 93.3679 43.1733 96.7877 50.345 92.6495C57.5591 88.483 63.2077 78.5394 64.4225 76.2856C63.3251 75.5308 57.6735 72.1124 50.4847 76.2637C43.07 80.5472 37.2007 91.1721 36.4288 92.6131Z" fill="#383C43"/>
<path d="M60.9901 64.9108C60.9883 64.9152 60.9865 64.9196 60.9847 64.9241C60.701 65.6207 60.3431 66.2856 59.9258 66.9115L52.4549 78.118C51.9281 78.9063 51.1059 79.4499 50.1716 79.6266L49.1183 79.8237C48.0446 80.0241 46.9403 79.7184 46.1248 78.9912C47.1985 67.1669 40.6816 65.8213 40.5049 65.7874C40.8991 65.4952 41.4057 65.4122 41.8504 65.1723C43.8326 64.1034 50.1996 62.0201 55.3227 58.1355C56.6023 57.1653 58.204 56.6337 59.5801 57.4594C60.9799 58.2988 62.7715 60.5194 60.9901 64.9108Z" fill="#FFBE2E"/>
<path d="M48.4603 80.0749C47.5576 80.0749 46.687 79.7469 45.9982 79.1329C45.9529 79.0928 45.9299 79.0337 45.9351 78.9739C46.9893 67.3698 40.7352 66.025 40.4684 65.9738C40.3949 65.9593 40.3362 65.9024 40.319 65.8289C40.3027 65.7554 40.3309 65.6789 40.3919 65.6339C40.643 65.4478 40.9298 65.3416 41.2076 65.2386C41.4023 65.1666 41.5866 65.0986 41.7597 65.0046C42.2976 64.7148 43.1349 64.3589 44.1958 63.9083C47.0933 62.6769 51.4722 60.8161 55.2078 57.9837C56.7859 56.7878 58.4137 56.5383 59.6782 57.2961C60.5474 57.8172 63.2236 59.9116 61.1664 64.9819C61.1649 64.9859 61.1634 64.9897 61.1612 64.9937C60.8752 65.6951 60.5141 66.3716 60.0839 67.0167L52.6135 78.223C52.0615 79.0488 51.1841 79.6283 50.2064 79.8129L49.1536 80.0101C48.9225 80.0534 48.6899 80.0749 48.4603 80.0749ZM46.3228 78.9112C47.0896 79.5576 48.0903 79.8213 49.0836 79.6366L50.1364 79.4394C51.0138 79.2737 51.8013 78.7532 52.2969 78.0122L59.7673 66.8059C60.1863 66.1781 60.5362 65.5207 60.8089 64.852L60.9902 64.9107L60.8142 64.8394C62.7577 60.0488 60.286 58.1042 59.4821 57.6224C57.8885 56.6655 56.1224 57.768 55.4382 58.287C51.664 61.1481 47.2591 63.0199 44.3445 64.2584C43.2932 64.7053 42.4626 65.0582 41.9411 65.3398C41.7435 65.446 41.5385 65.5221 41.3401 65.5958C41.222 65.6396 41.106 65.6824 40.9961 65.7299C42.519 66.2598 47.2159 68.7342 46.3228 78.9112Z" fill="#383C43"/>
<path d="M46.1252 78.991C43.6754 76.8061 38.7656 71.9202 39.1361 68.1519C39.2312 67.1836 39.7511 66.3409 40.5054 65.7871C40.682 65.8212 47.199 67.1666 46.1252 78.991Z" fill="#383C43"/>
<path d="M46.1252 79.1812C46.0791 79.1812 46.0338 79.1645 45.9988 79.1329C43.2061 76.6417 38.576 71.9003 38.9468 68.1335C39.0433 67.1487 39.5708 66.2375 40.3926 65.6334C40.4357 65.6023 40.4876 65.5914 40.542 65.6C40.8221 65.6542 47.3993 67.0655 46.3147 79.008C46.3081 79.0797 46.262 79.1413 46.1952 79.1678C46.1727 79.1768 46.1489 79.1812 46.1252 79.1812ZM40.55 65.9917C39.8538 66.5311 39.4088 67.3209 39.3256 68.1707C38.9727 71.7521 43.6407 76.478 45.9675 78.5936C46.8086 67.8977 41.3219 66.1792 40.55 65.9917Z" fill="#212121"/>
<path d="M60.5657 90.7612C60.5657 90.7612 60.1343 93.5372 54.9697 93.5372C54.9697 93.5372 50.2773 98.4708 46.1625 99.6193C46.1481 99.6233 46.1335 99.6273 46.1191 99.6312C44.0813 100.187 42.111 98.5116 42.2841 96.4065C42.5142 93.6081 43.4696 88.9847 46.9644 84.5296C47.892 83.3438 49.0031 82.1681 50.3282 81.0435L53.8416 78.9912C53.8416 78.9912 61.2644 87.0844 60.5657 90.7612Z" fill="#FFBE2E"/>
<path d="M45.315 99.9247C44.5676 99.9251 43.8581 99.667 43.2696 99.1777C42.4464 98.4938 42.0074 97.4519 42.095 96.3905C42.3446 93.3522 43.3669 88.808 46.8157 84.412C47.7993 83.1545 48.9397 81.9725 50.2057 80.8982L53.7466 78.8269C53.8238 78.7816 53.9227 78.7964 53.9829 78.8625C54.2882 79.1957 61.4584 87.0647 60.7533 90.7936C60.7266 90.9574 60.1976 93.6981 55.0512 93.7267C54.4814 94.3162 50.1366 98.7071 46.2146 99.8022C45.9123 99.8846 45.6107 99.9247 45.315 99.9247ZM53.8046 79.2332L50.425 81.2072C49.2058 82.2459 48.0832 83.4093 47.1151 84.6467C43.7243 88.9685 42.7198 93.4354 42.4739 96.4217C42.3967 97.3596 42.7852 98.2805 43.5126 98.8853C44.2392 99.4878 45.1709 99.6921 46.0698 99.4473C50.13 98.3144 54.786 93.4547 54.8329 93.4057C54.8685 93.3682 54.9183 93.3467 54.9703 93.3467C59.8901 93.3467 60.3604 90.8377 60.3782 90.7308C60.379 90.7293 60.379 90.7267 60.3797 90.7252C61.0091 87.4154 54.6932 80.2247 53.8046 79.2332Z" fill="#383C43"/>
<path d="M46.1625 99.6195C46.1481 99.6235 46.1335 99.6275 46.1191 99.6314C44.0813 100.187 42.111 98.5118 42.2841 96.4067C42.5142 93.6083 43.4696 88.9849 46.9644 84.5298C47.491 87.3262 48.789 95.7358 46.1625 99.6195Z" fill="#383C43"/>
<path d="M45.3164 99.9276C44.5743 99.9276 43.861 99.6694 43.2696 99.178C42.4464 98.4941 42.0074 97.4521 42.095 96.3908C42.3446 93.3525 43.3669 88.8083 46.8157 84.4122C46.8617 84.354 46.9383 84.3268 47.0103 84.3449C47.0824 84.3624 47.1381 84.421 47.1523 84.4943C47.7719 87.7875 48.9331 95.8633 46.3209 99.7259C46.2956 99.7634 46.2578 99.7906 46.214 99.8028C46.2132 99.8028 46.1909 99.8088 46.1909 99.8088C45.899 99.8886 45.6055 99.9276 45.3164 99.9276ZM46.8551 84.9847C43.6722 89.2002 42.7132 93.5134 42.4739 96.422C42.3967 97.36 42.7852 98.2809 43.5126 98.8856C44.2318 99.4826 45.1568 99.6884 46.0446 99.4544C48.4695 95.7693 47.3774 87.9197 46.8551 84.9847Z" fill="#383C43"/>
<path d="M54.7402 74.153C56.3826 73.2047 57.7138 73.9667 57.7193 75.8506C57.7247 77.7345 56.4021 80.0286 54.7597 80.9769L46.7544 85.616C45.115 86.5625 43.7808 85.8023 43.7754 83.9183C43.7701 82.0344 45.0957 79.7386 46.735 78.7921L54.7402 74.153Z" fill="#212121"/>
<path d="M45.4213 86.2147C45.1048 86.2147 44.8113 86.1401 44.5505 85.9904C43.9302 85.633 43.5869 84.8975 43.584 83.9187C43.5788 81.9766 44.9487 79.6029 46.639 78.6274L54.6442 73.9883C55.5009 73.4928 56.3173 73.4178 56.9414 73.7773C57.5617 74.1343 57.905 74.8702 57.908 75.8501C57.914 77.7915 56.544 80.1652 54.8538 81.1414L46.8486 85.7805C46.3492 86.0691 45.8633 86.2147 45.4213 86.2147ZM54.8344 74.3175L46.8292 78.9565C45.2445 79.8714 43.9591 82.097 43.9644 83.9179C43.9666 84.7548 44.2423 85.3738 44.7408 85.6605C45.2407 85.9495 45.9235 85.8744 46.6583 85.4513L54.6635 80.8123C56.2482 79.8966 57.5336 77.6711 57.5276 75.8513C57.5254 75.0128 57.2498 74.3932 56.7519 74.1068C56.252 73.8186 55.57 73.8929 54.8344 74.3175Z" fill="#383C43"/>
<g opacity="0.1">
<path d="M205.136 134.51C208.331 136.355 208.348 139.34 205.174 141.185L90.9427 207.569C87.7683 209.414 82.6133 209.414 79.418 207.569L19.5969 173.031C16.4017 171.186 16.3849 168.2 19.5593 166.356L133.79 99.972C136.965 98.1272 142.12 98.1272 145.315 99.972L205.136 134.51Z" fill="#010101"/>
</g>
<path d="M21.5547 162.949C21.5547 164.153 22.3604 165.374 23.9634 166.296L83.792 200.832C84.7555 201.389 85.8935 201.779 87.1061 201.995C87.8869 202.145 88.7092 202.219 89.5232 202.219C90.3372 202.219 91.1429 202.153 91.9319 202.012C93.1695 201.796 94.3324 201.405 95.3042 200.832L209.537 134.45C211.124 133.537 211.913 132.341 211.913 131.145L211.946 117.207C211.946 118.411 211.157 119.616 209.579 120.521L95.3457 186.911C94.3572 187.493 93.186 187.883 91.9318 188.091C91.1428 188.232 90.3371 188.29 89.5231 188.29C88.7091 188.29 87.895 188.216 87.106 188.066C85.9017 187.85 84.7721 187.46 83.8168 186.912L24.0048 152.375C22.3935 151.436 21.596 150.232 21.596 149.003L21.5547 162.949Z" fill="#212121"/>
<path d="M87.1064 188.066V201.996C87.8872 202.145 88.7095 202.22 89.5235 202.22C90.3375 202.22 91.1432 202.154 91.9322 202.012V188.092C91.1432 188.233 90.3375 188.291 89.5235 188.291C88.7095 188.291 87.8956 188.216 87.1064 188.066Z" fill="#FFBE2E"/>
<path d="M89.5737 202.41C89.5559 202.41 89.5388 202.41 89.5217 202.41C87.3308 202.402 85.2616 201.902 83.6947 201.002L23.8687 166.463C22.2535 165.537 21.3643 164.287 21.3643 162.945L21.4014 149.003C21.4014 148.898 21.4869 148.813 21.5915 148.813C21.697 148.813 21.7818 148.898 21.7818 149.004C21.7818 150.199 22.6042 151.337 24.0968 152.207L83.9146 186.745C85.4175 187.613 87.4094 188.095 89.523 188.103C89.5394 188.103 89.5558 188.103 89.572 188.103C91.7326 188.103 93.7473 187.621 95.2489 186.746L209.48 120.361C210.944 119.523 211.752 118.41 211.758 117.224V117.209C211.758 117.104 211.844 117.019 211.948 117.019C212.054 117.019 212.139 117.104 212.139 117.209C212.139 117.217 212.139 117.224 212.139 117.231L212.101 131.144C212.101 132.465 211.225 133.698 209.634 134.616L95.4034 201.001C93.8472 201.91 91.7781 202.41 89.5737 202.41ZM21.7781 150.479L21.7447 162.945C21.7447 164.145 22.5663 165.277 24.0582 166.134L83.8849 200.672C85.3946 201.539 87.3975 202.022 89.5232 202.029C89.5395 202.029 89.5566 202.029 89.5736 202.029C91.7118 202.029 93.7119 201.548 95.2119 200.673L209.443 134.288C210.912 133.44 211.721 132.323 211.721 131.144L211.755 118.701C211.353 119.451 210.646 120.132 209.671 120.691L95.4407 187.075C93.8819 187.984 91.7987 188.483 89.5714 188.483C89.555 188.483 89.5386 188.483 89.5216 188.483C87.3425 188.475 85.2838 187.975 83.7243 187.075L23.9058 152.536C22.9045 151.952 22.1823 151.248 21.7781 150.479Z" fill="#383C43"/>
<path d="M27.7567 168.678C27.6519 168.678 27.5664 168.593 27.5664 168.488V154.541C27.5664 154.436 27.6519 154.351 27.7567 154.351C27.8614 154.351 27.9469 154.436 27.9469 154.541V168.488C27.9469 168.593 27.8614 168.678 27.7567 168.678Z" fill="#383C43"/>
<path d="M182.681 142.557C182.689 143.138 182.889 143.555 183.219 143.746L184.44 144.456C184.11 144.256 183.91 143.848 183.901 143.267C183.901 142.095 184.726 140.671 185.742 140.081L194.632 134.949C195.152 134.654 195.612 134.628 195.951 134.819L194.73 134.109C194.392 133.918 193.932 133.944 193.411 134.239L184.521 139.371C183.505 139.961 182.681 141.385 182.681 142.557Z" fill="#212121"/>
<path d="M184.44 144.646C184.407 144.646 184.375 144.638 184.344 144.62L183.123 143.911C182.726 143.68 182.501 143.2 182.491 142.56C182.491 142.559 182.491 142.558 182.491 142.557C182.491 141.33 183.359 139.827 184.426 139.207L193.316 134.076C193.876 133.757 194.411 133.71 194.824 133.944L196.047 134.655C196.137 134.708 196.168 134.823 196.116 134.914C196.064 135.005 195.948 135.036 195.858 134.985C195.566 134.82 195.164 134.867 194.726 135.115L185.837 140.246C184.875 140.805 184.092 142.16 184.092 143.267C184.1 143.758 184.258 144.123 184.539 144.293C184.628 144.347 184.657 144.463 184.603 144.553C184.568 144.613 184.505 144.646 184.44 144.646ZM182.872 142.555C182.88 143.056 183.037 143.421 183.314 143.581L183.796 143.861C183.744 143.684 183.715 143.486 183.712 143.27C183.712 142.019 184.562 140.548 185.646 139.917L194.537 134.785C194.734 134.674 194.926 134.596 195.112 134.551L194.635 134.274C194.344 134.11 193.943 134.157 193.505 134.405L184.617 139.536C183.655 140.095 182.872 141.449 182.872 142.555Z" fill="#383C43"/>
<path d="M185.745 140.082C184.725 140.671 183.902 142.097 183.905 143.268C183.909 144.44 184.737 144.912 185.757 144.323L194.648 139.189C195.668 138.6 196.491 137.174 196.488 136.003C196.484 134.831 195.656 134.359 194.636 134.948L185.745 140.082Z" fill="#FFBE2E"/>
<path d="M184.928 144.768C184.72 144.768 184.525 144.719 184.352 144.619C183.943 144.384 183.717 143.905 183.716 143.269C183.712 142.039 184.579 140.536 185.65 139.918L194.541 134.784C195.098 134.462 195.631 134.416 196.042 134.652C196.451 134.888 196.677 135.367 196.678 136.003C196.682 137.233 195.814 138.736 194.744 139.354L185.853 144.488C185.53 144.674 185.216 144.768 184.928 144.768ZM185.84 140.247C184.875 140.805 184.092 142.16 184.096 143.268C184.098 143.762 184.256 144.125 184.542 144.289C184.83 144.455 185.228 144.41 185.662 144.159L194.553 139.024C195.518 138.467 196.301 137.112 196.298 136.004C196.296 135.51 196.138 135.147 195.852 134.982C195.564 134.816 195.166 134.862 194.731 135.112L185.84 140.247Z" fill="#383C43"/>
<path d="M209.541 113.851C212.737 115.695 212.753 118.681 209.579 120.526L95.348 186.91C92.1736 188.754 87.0186 188.755 83.8233 186.91L24.0022 152.372C20.8069 150.527 20.7902 147.541 23.9646 145.697L138.196 79.3128C141.37 77.468 146.525 77.468 149.72 79.3128L209.541 113.851Z" fill="#383C43"/>
<path d="M89.5937 188.478C87.4718 188.478 85.3485 188.01 83.7281 187.075L23.9073 152.537C22.2951 151.606 21.4066 150.359 21.4043 149.023C21.4028 147.697 22.278 146.457 23.8687 145.532L138.099 79.1484C141.319 77.2777 146.576 77.2769 149.815 79.1484L209.636 113.686C211.249 114.617 212.137 115.865 212.139 117.2C212.141 118.526 211.266 119.766 209.674 120.691L95.4436 187.075C93.8337 188.01 91.7148 188.478 89.5937 188.478ZM143.95 78.1201C141.897 78.1201 139.848 78.5721 138.291 79.4775L24.0603 145.861C22.5914 146.715 21.7831 147.838 21.7846 149.023C21.7861 150.217 22.6078 151.348 24.0974 152.208L83.9182 186.745C87.0535 188.555 92.139 188.556 95.252 186.745L209.483 120.361C210.952 119.508 211.76 118.385 211.758 117.2C211.757 116.006 210.936 114.875 209.446 114.015L149.625 79.4773C148.057 78.5725 146.002 78.1201 143.95 78.1201Z" fill="#383C43"/>
<path d="M210.834 117.202C210.834 118.027 210.172 118.89 209.02 119.559L94.7879 185.943C93.4198 186.739 91.5757 187.178 89.5904 187.178C87.6126 187.178 85.7612 186.739 84.3782 185.943L24.5594 151.405C23.3846 150.729 22.708 149.858 22.708 149.018C22.708 148.193 23.3698 147.33 24.5223 146.661L138.754 80.2769C140.122 79.4813 141.966 79.0425 143.952 79.0425C145.929 79.0425 147.781 79.4813 149.164 80.2769L208.983 114.815C210.157 115.492 210.834 116.361 210.834 117.202Z" fill="#FFF7E4"/>
<path d="M89.5894 187.367C87.579 187.367 85.6941 186.92 84.2825 186.108L24.4632 151.569C23.2261 150.857 22.5166 149.927 22.5166 149.018C22.5166 148.12 23.2127 147.201 24.4252 146.497L138.657 80.1121C140.055 79.2997 141.935 78.8521 143.951 78.8521C145.961 78.8521 147.846 79.2993 149.258 80.1117L209.077 114.65C210.314 115.362 211.024 116.293 211.024 117.202C211.024 118.099 210.327 119.018 209.115 119.723L94.8828 186.107C93.4855 186.92 91.6058 187.367 89.5894 187.367ZM143.951 79.2327C142.001 79.2327 140.189 79.6617 138.849 80.4415L24.617 146.826C23.5241 147.46 22.897 148.259 22.897 149.018C22.897 149.788 23.5374 150.597 24.6533 151.24L84.4727 185.778C85.827 186.558 87.6443 186.987 89.5893 186.987C91.5396 186.987 93.3516 186.558 94.6912 185.778L208.923 119.394C210.016 118.759 210.643 117.96 210.643 117.202C210.643 116.432 210.003 115.623 208.887 114.98L149.068 80.4414C147.713 79.6621 145.896 79.2327 143.951 79.2327Z" fill="#383C43"/>
<path d="M159.03 92.9342C159.912 93.4505 182.382 106.504 183.424 107.11C185.09 108.077 187.808 108.077 189.479 107.115L192.521 105.354C191.479 104.749 163.274 88.3619 162.086 87.6719L159.044 89.4274C157.373 90.3945 157.363 91.9671 159.03 92.9342Z" fill="#383C43"/>
<path d="M186.454 108.024C185.321 108.024 184.189 107.774 183.329 107.275L180.147 105.426C173.489 101.558 159.635 93.5089 158.934 93.0991C158.07 92.5977 157.595 91.9182 157.596 91.1868C157.596 90.4513 158.077 89.7681 158.949 89.2632L161.991 87.5076C162.05 87.4734 162.122 87.4734 162.182 87.5076C162.983 87.973 176.078 95.5812 184.837 100.67L192.618 105.19C192.676 105.224 192.712 105.287 192.712 105.354C192.712 105.422 192.675 105.485 192.617 105.519L189.575 107.279C188.713 107.776 187.583 108.024 186.454 108.024ZM162.086 87.8922L159.14 89.5924C158.39 90.0266 157.977 90.5928 157.976 91.1871C157.975 91.7774 158.384 92.3395 159.126 92.77V92.7703C159.82 93.1764 173.678 101.228 180.338 105.097L183.52 106.946C185.134 107.883 187.765 107.883 189.385 106.95L192.143 105.354L184.646 100.998C176.131 96.0515 163.518 88.7235 162.086 87.8922Z" fill="#383C43"/>
<path d="M181.698 103.392C182.39 103.392 183.038 103.238 183.52 102.96C183.954 102.71 184.194 102.396 184.194 102.076C184.194 101.761 183.961 101.453 183.539 101.206L164.636 90.2225C164.156 89.9436 163.509 89.79 162.813 89.79C162.116 89.79 161.465 89.9446 160.98 90.225C160.551 90.4725 160.314 90.7837 160.314 91.101C160.314 91.4174 160.548 91.7278 160.973 91.9752L179.875 102.959C180.356 103.238 181.003 103.392 181.698 103.392Z" fill="#FFBE2E"/>
<path d="M186.601 106.239C187.293 106.239 187.941 106.086 188.423 105.808C188.857 105.557 189.095 105.243 189.096 104.924C189.097 104.609 188.863 104.299 188.438 104.052C187.958 103.773 187.311 103.62 186.615 103.62C185.918 103.62 185.267 103.774 184.782 104.054C184.353 104.302 184.117 104.613 184.116 104.93C184.116 105.247 184.35 105.557 184.775 105.805C185.257 106.085 185.905 106.239 186.601 106.239Z" fill="white"/>
<path d="M186.603 105.709C187.015 105.709 187.399 105.618 187.686 105.452C187.944 105.303 188.086 105.117 188.086 104.927C188.087 104.74 187.948 104.555 187.695 104.408C187.41 104.243 187.025 104.151 186.612 104.151C186.197 104.151 185.81 104.243 185.522 104.41C185.267 104.557 185.126 104.742 185.126 104.931C185.126 105.119 185.265 105.303 185.518 105.45C185.804 105.617 186.189 105.709 186.603 105.709Z" fill="#212121"/>
<path d="M78.0711 189.88C77.4122 189.499 76.8801 189.813 76.8779 190.57C76.8758 191.337 77.4044 192.252 78.0633 192.633C78.7392 193.023 79.2713 192.72 79.2736 191.953C79.2756 191.196 78.7469 190.27 78.0711 189.88Z" fill="#FFBE2E"/>
<path d="M73.1395 187.033C72.4807 186.653 71.9486 186.966 71.9463 187.723C71.9442 188.49 72.4728 189.405 73.1316 189.786C73.8075 190.176 74.3397 189.873 74.3419 189.106C74.3441 188.349 73.8154 187.423 73.1395 187.033Z" fill="#FFBE2E"/>
<path d="M68.2088 184.186C67.5499 183.806 67.0178 184.119 67.0156 184.876C67.0135 185.643 67.5421 186.558 68.201 186.939C68.8769 187.329 69.409 187.026 69.4113 186.259C69.4134 185.502 68.8846 184.576 68.2088 184.186Z" fill="#FFBE2E"/>
<path d="M37.2986 166.342C36.6398 165.961 36.1076 166.275 36.1055 167.031C36.1033 167.798 36.632 168.714 37.2908 169.094C37.9667 169.485 38.4988 169.182 38.5011 168.415C38.5031 167.658 37.9745 166.732 37.2986 166.342Z" fill="#FFBE2E"/>
<path d="M32.366 163.495C31.7072 163.115 31.175 163.428 31.1729 164.185C31.1707 164.952 31.6994 165.867 32.3582 166.248C33.0341 166.638 33.5662 166.335 33.5685 165.568C33.5706 164.811 33.042 163.885 32.366 163.495Z" fill="#FFBE2E"/>
<path d="M46.2235 174.279C45.549 173.89 45.0027 172.944 45.0049 172.169C45.007 171.394 45.5569 171.08 46.2314 171.47L59.292 179.01C59.9665 179.4 60.511 180.345 60.5087 181.12C60.5065 181.895 59.9585 182.209 59.284 181.82L46.2235 174.279Z" fill="#FFBE2E"/>
<path d="M102.76 196.696C102.655 196.696 102.569 196.611 102.569 196.506V182.601C102.569 182.496 102.655 182.411 102.76 182.411C102.864 182.411 102.95 182.496 102.95 182.601V196.506C102.95 196.611 102.864 196.696 102.76 196.696Z" fill="#383C43"/>
<path d="M202.874 138.516C202.769 138.516 202.684 138.431 202.684 138.326V124.422C202.684 124.316 202.769 124.231 202.874 124.231C202.979 124.231 203.064 124.316 203.064 124.422V138.326C203.064 138.431 202.979 138.516 202.874 138.516Z" fill="#383C43"/>
<path d="M129.749 171.604C128.644 172.242 127.751 173.788 127.755 175.058C127.759 176.328 128.657 176.84 129.762 176.202L151.232 163.804C152.337 163.165 153.23 161.62 153.226 160.35C153.222 159.079 152.324 158.568 151.219 159.206L129.749 171.604Z" fill="#FFBE2E"/>
<path d="M129.775 172.875C130.254 172.598 130.642 172.826 130.643 173.377C130.645 173.935 130.26 174.602 129.78 174.879C129.288 175.163 128.901 174.942 128.899 174.384C128.898 173.833 129.283 173.159 129.775 172.875Z" fill="#383C43"/>
<path d="M47.8701 153.236C47.8701 154.022 48.3913 154.818 49.4337 155.415L80.6794 173.347C81.2195 173.659 81.8356 173.887 82.4988 174.038C83.721 174.313 85.0761 174.313 86.2891 174.038C86.9523 173.887 87.5776 173.659 88.1178 173.347L99.2611 166.875C100.285 166.278 100.796 165.51 100.796 164.733L100.815 159.323C100.815 159.37 100.815 159.427 100.796 159.475C100.796 159.522 100.796 159.569 100.787 159.617C100.758 159.787 100.701 159.948 100.626 160.119C100.626 160.119 100.626 160.119 100.616 160.128C100.588 160.195 100.55 160.261 100.512 160.327C100.502 160.346 100.493 160.365 100.484 160.375C100.436 160.45 100.389 160.517 100.332 160.583C100.332 160.593 100.322 160.602 100.313 160.602C100.266 160.678 100.199 160.744 100.133 160.81C99.9054 161.047 99.6213 161.265 99.2801 161.464L88.1368 167.946C87.5966 168.258 86.9618 168.486 86.2891 168.637C85.0667 168.903 83.7118 168.903 82.4988 168.618C81.8448 168.476 81.229 168.249 80.6983 167.946L49.4432 150.004C48.4103 149.408 47.8891 148.621 47.8891 147.834L47.8701 153.236Z" fill="#212121"/>
<path d="M84.3979 174.436C83.7419 174.436 83.0851 174.366 82.4581 174.225C81.7537 174.064 81.1237 173.824 80.5851 173.512L49.3397 155.58C48.2854 154.977 47.6807 154.122 47.6807 153.236C47.6807 153.236 47.6807 153.236 47.6807 153.235L47.6992 147.834C47.6992 147.729 47.7847 147.645 47.8893 147.645C47.9948 147.645 48.0796 147.73 48.0796 147.835C48.0796 148.584 48.5982 149.296 49.5387 149.84L80.7931 167.781C81.2961 168.069 81.9001 168.294 82.5398 168.433C83.7189 168.709 85.0339 168.715 86.2494 168.452C86.9381 168.297 87.5421 168.071 88.0422 167.782L99.1849 161.3C99.5096 161.111 99.7822 160.902 99.9962 160.679C100.059 160.616 100.116 160.559 100.152 160.502C100.163 160.485 100.175 160.47 100.19 160.457C100.24 160.4 100.282 160.341 100.323 160.274L100.513 160.328L100.35 160.229C100.383 160.171 100.417 160.113 100.441 160.054C100.447 160.04 100.455 160.027 100.464 160.015C100.536 159.849 100.578 159.716 100.6 159.586C100.607 159.546 100.606 159.51 100.606 159.475C100.606 159.45 100.611 159.426 100.62 159.403C100.624 159.393 100.626 159.365 100.626 159.342V159.323C100.626 159.218 100.711 159.133 100.816 159.133C100.921 159.133 101.006 159.219 101.006 159.323C101.006 159.332 101.006 159.341 101.006 159.351L100.987 164.735C100.987 165.608 100.408 166.427 99.3574 167.04L88.2146 173.512C87.6796 173.822 87.0459 174.061 86.3319 174.224C85.7092 174.366 85.0547 174.436 84.3979 174.436ZM48.0609 153.236C48.0609 153.982 48.5959 154.716 49.5282 155.251L80.7745 173.182C81.2812 173.475 81.8756 173.701 82.542 173.854C83.7411 174.123 85.0568 174.123 86.247 173.854C86.9238 173.699 87.5212 173.473 88.0234 173.183L99.1654 166.711C100.094 166.17 100.606 165.467 100.606 164.734L100.621 160.507C100.593 160.56 100.54 160.634 100.478 160.707L100.477 160.706C100.472 160.712 100.467 160.718 100.462 160.723C100.405 160.808 100.336 160.878 100.268 160.945C100.033 161.191 99.7316 161.422 99.3765 161.629L88.2331 168.111C87.6989 168.42 87.0593 168.659 86.3311 168.823C85.0614 169.1 83.6862 169.093 82.4566 168.804C81.7724 168.656 81.1483 168.422 80.6044 168.111L49.3492 150.17C48.7846 149.844 48.3544 149.457 48.0751 149.033L48.0609 153.236Z" fill="#383C43"/>
<path d="M82.498 168.619V174.039C83.7202 174.314 85.0753 174.314 86.2883 174.039V168.638C85.066 168.903 83.7109 168.903 82.498 168.619Z" fill="#FFBE2E"/>
<path d="M84.3979 174.436C83.7419 174.436 83.0851 174.366 82.4581 174.225C81.7537 174.064 81.1237 173.824 80.5851 173.512L49.3397 155.58C48.2854 154.977 47.6807 154.122 47.6807 153.236C47.6807 153.236 47.6807 153.236 47.6807 153.235L47.6992 147.834C47.6992 147.729 47.7847 147.645 47.8893 147.645C47.9948 147.645 48.0796 147.73 48.0796 147.835C48.0796 148.584 48.5982 149.296 49.5387 149.84L80.7931 167.781C81.2961 168.069 81.9001 168.294 82.5398 168.433C83.7189 168.709 85.0339 168.715 86.2494 168.452C86.9381 168.297 87.5421 168.071 88.0422 167.782L99.1849 161.3C99.5096 161.111 99.7822 160.902 99.9962 160.679C100.059 160.616 100.116 160.559 100.152 160.502C100.163 160.485 100.175 160.47 100.19 160.457C100.24 160.4 100.282 160.341 100.323 160.274L100.513 160.328L100.35 160.229C100.383 160.171 100.417 160.113 100.441 160.054C100.447 160.04 100.455 160.027 100.464 160.015C100.536 159.849 100.578 159.716 100.6 159.586C100.607 159.546 100.606 159.51 100.606 159.475C100.606 159.45 100.611 159.426 100.62 159.403C100.624 159.393 100.626 159.365 100.626 159.342V159.323C100.626 159.218 100.711 159.133 100.816 159.133C100.921 159.133 101.006 159.219 101.006 159.323C101.006 159.332 101.006 159.341 101.006 159.351L100.987 164.735C100.987 165.608 100.408 166.427 99.3574 167.04L88.2146 173.512C87.6796 173.822 87.0459 174.061 86.3319 174.224C85.7092 174.366 85.0547 174.436 84.3979 174.436ZM48.0609 153.236C48.0609 153.982 48.5959 154.716 49.5282 155.251L80.7745 173.182C81.2812 173.475 81.8756 173.701 82.542 173.854C83.7411 174.123 85.0568 174.123 86.247 173.854C86.9238 173.699 87.5212 173.473 88.0234 173.183L99.1654 166.711C100.094 166.17 100.606 165.467 100.606 164.734L100.621 160.507C100.593 160.56 100.54 160.634 100.478 160.707L100.477 160.706C100.472 160.712 100.467 160.718 100.462 160.723C100.405 160.808 100.336 160.878 100.268 160.945C100.033 161.191 99.7316 161.422 99.3765 161.629L88.2331 168.111C87.6989 168.42 87.0593 168.659 86.3311 168.823C85.0614 169.1 83.6862 169.093 82.4566 168.804C81.7724 168.656 81.1483 168.422 80.6044 168.111L49.3492 150.17C48.7846 149.844 48.3544 149.457 48.0751 149.033L48.0609 153.236Z" fill="#383C43"/>
<path d="M47.8877 147.835C47.8877 148.622 48.4089 149.408 49.4418 150.005L80.6969 167.946C82.7533 169.131 86.0885 169.131 88.1354 167.946L99.2787 161.465C99.6199 161.266 99.904 161.048 100.131 160.811C100.198 160.745 100.264 160.678 100.312 160.603C100.321 160.603 100.331 160.593 100.331 160.584C100.387 160.517 100.435 160.451 100.482 160.375C100.492 160.366 100.501 160.347 100.511 160.328C100.549 160.261 100.586 160.195 100.615 160.129C100.624 160.119 100.624 160.119 100.624 160.119C100.7 159.958 100.757 159.788 100.785 159.617C100.795 159.57 100.795 159.522 100.795 159.475C100.871 158.641 100.349 157.788 99.2503 157.153L68.0044 139.222C65.9483 138.028 62.6128 138.028 60.5567 139.222L49.4133 145.693C48.3994 146.291 47.8877 147.067 47.8877 147.835Z" fill="#FFF7E4"/>
<path d="M84.4207 169.021C83.0388 169.021 81.657 168.718 80.6027 168.111L49.3483 150.17C48.2837 149.555 47.6982 148.725 47.6982 147.835C47.6982 146.963 48.2733 146.144 49.3178 145.529L60.4621 139.057C62.5699 137.834 65.9948 137.834 68.101 139.057L99.3458 156.988C100.474 157.64 101.071 158.553 100.985 159.492C100.985 159.534 100.985 159.593 100.974 159.652C100.944 159.829 100.884 160.014 100.798 160.2C100.792 160.212 100.785 160.223 100.777 160.233C100.749 160.295 100.714 160.356 100.679 160.418C100.666 160.444 100.649 160.477 100.621 160.507C100.592 160.56 100.539 160.633 100.477 160.707L100.476 160.706C100.471 160.712 100.466 160.717 100.461 160.723C100.404 160.808 100.335 160.877 100.267 160.945C100.032 161.191 99.7307 161.422 99.3756 161.629L88.2321 168.111C87.1823 168.718 85.802 169.021 84.4207 169.021ZM64.2817 138.514C62.9674 138.514 61.6538 138.805 60.6539 139.386L49.5105 145.858C48.5877 146.401 48.0787 147.103 48.0787 147.835C48.0787 148.584 48.5974 149.296 49.5379 149.84L80.7923 167.781C82.7968 168.935 86.0471 168.935 88.0412 167.781L99.184 161.3C99.5086 161.111 99.7813 160.902 99.9953 160.679C100.058 160.616 100.115 160.559 100.151 160.502C100.162 160.485 100.174 160.47 100.189 160.457C100.239 160.399 100.281 160.34 100.322 160.274L100.512 160.328L100.349 160.229C100.382 160.171 100.416 160.113 100.44 160.054C100.447 160.039 100.455 160.025 100.465 160.012C100.531 159.867 100.576 159.724 100.599 159.586C100.606 159.546 100.605 159.51 100.605 159.475C100.678 158.672 100.15 157.892 99.1564 157.318L67.911 139.387C66.9103 138.805 65.5952 138.514 64.2817 138.514Z" fill="#383C43"/>
<path d="M47.8899 205.468C47.8579 205.468 47.8253 205.46 47.7955 205.443L18.0753 188.525C17.3828 188.125 17.0018 187.583 17.001 186.997C17.0002 186.415 17.3754 185.876 18.0582 185.478L30.8978 178.017C30.9884 177.964 31.1051 177.995 31.1578 178.086C31.2105 178.177 31.18 178.293 31.0895 178.346L18.2498 185.807C17.6888 186.133 17.3805 186.556 17.3813 186.997C17.3821 187.441 17.6955 187.867 18.2647 188.195L47.9841 205.112C48.0755 205.164 48.1068 205.281 48.0547 205.372C48.0198 205.433 47.956 205.468 47.8899 205.468Z" fill="#DBDEE4"/>
<path d="M47.2046 207.369C45.8291 206.575 45.8213 205.287 47.1879 204.492C48.5544 203.698 50.7786 203.699 52.154 204.493C53.5295 205.287 53.5362 206.575 52.1696 207.369C50.8031 208.163 48.5801 208.163 47.2046 207.369Z" fill="white"/>
<path d="M49.6892 208.151C48.756 208.151 47.8222 207.945 47.109 207.533C46.3802 207.112 45.9782 206.541 45.9775 205.925C45.9769 205.313 46.3728 204.746 47.092 204.328C48.5096 203.505 50.8223 203.504 52.2488 204.328C52.9769 204.749 53.3788 205.319 53.3796 205.935C53.3804 206.547 52.9843 207.115 52.2652 207.533C51.5562 207.945 50.6231 208.151 49.6892 208.151ZM47.2992 207.204C48.6194 207.966 50.7605 207.967 52.0733 207.204C52.6714 206.857 52.9998 206.406 52.9991 205.936C52.9984 205.461 52.6648 205.007 52.0586 204.657C50.7376 203.894 48.5942 203.894 47.2836 204.657C46.6855 205.004 46.3571 205.454 46.3578 205.925C46.3586 206.4 46.6929 206.854 47.2992 207.204Z" fill="#DBDEE4"/>
<path d="M49.6712 205.024C50.2074 205.024 50.7263 205.146 51.095 205.359C51.391 205.53 51.561 205.74 51.5613 205.935C51.5615 206.128 51.395 206.335 51.1042 206.504C50.7386 206.716 50.2218 206.838 49.6862 206.838C49.1504 206.838 48.632 206.716 48.2635 206.504C47.9673 206.332 47.7972 206.122 47.7969 205.927C47.7966 205.734 47.9631 205.527 48.2535 205.358C48.6189 205.146 49.1355 205.024 49.6712 205.024Z" fill="#FFBE2E"/>
<path d="M37.5623 198.183C38.1075 198.183 38.6353 198.307 39.0101 198.524C39.3112 198.697 39.484 198.911 39.4843 199.109C39.4845 199.305 39.3151 199.516 39.0195 199.688C38.6477 199.904 38.1222 200.028 37.5775 200.028C37.0327 200.028 36.5054 199.904 36.1308 199.688C35.8295 199.514 35.6566 199.3 35.6563 199.102C35.656 198.906 35.8253 198.695 36.1207 198.523C36.4922 198.307 37.0176 198.183 37.5623 198.183Z" fill="#383C43"/>
<path d="M185.67 176.982C184.597 176.982 183.522 176.745 182.702 176.272L162.377 164.537C162.287 164.484 162.255 164.368 162.307 164.277C162.361 164.186 162.477 164.155 162.567 164.208L182.892 175.943C184.427 176.828 186.916 176.828 188.439 175.943L208.632 164.208C208.723 164.155 208.84 164.185 208.892 164.277C208.945 164.367 208.915 164.484 208.824 164.537L188.631 176.272C187.816 176.745 186.744 176.982 185.67 176.982Z" fill="#DBDEE4"/>
<path d="M205.499 163.383C204.123 164.177 204.115 165.465 205.482 166.259C206.848 167.053 209.072 167.053 210.448 166.259C211.823 165.465 211.83 164.177 210.463 163.383C209.097 162.589 206.874 162.588 205.499 163.383Z" fill="white"/>
<path d="M207.961 167.041C207.027 167.041 206.095 166.835 205.386 166.424C204.667 166.005 204.271 165.438 204.271 164.826C204.272 164.21 204.674 163.639 205.403 163.218C206.83 162.395 209.144 162.396 210.559 163.219C211.279 163.637 211.675 164.205 211.674 164.817C211.673 165.432 211.272 166.003 210.543 166.423C209.829 166.835 208.895 167.041 207.961 167.041ZM205.593 163.547C204.987 163.898 204.653 164.352 204.652 164.827C204.651 165.297 204.98 165.748 205.578 166.095C206.888 166.857 209.032 166.857 210.352 166.094C210.959 165.744 211.293 165.29 211.294 164.816C211.295 164.345 210.965 163.895 210.367 163.548C209.056 162.784 206.913 162.785 205.593 163.547Z" fill="#DBDEE4"/>
<path d="M207.964 165.728C208.5 165.728 209.019 165.606 209.388 165.394C209.684 165.223 209.854 165.013 209.854 164.818C209.855 164.625 209.688 164.417 209.397 164.248C209.032 164.036 208.515 163.914 207.979 163.914C207.443 163.914 206.925 164.036 206.557 164.249C206.26 164.42 206.09 164.63 206.09 164.825C206.09 165.018 206.256 165.226 206.547 165.394C206.912 165.607 207.429 165.728 207.964 165.728Z" fill="#FFBE2E"/>
<path d="M195.857 172.62C196.433 172.62 196.991 172.489 197.387 172.261C197.705 172.077 197.887 171.852 197.887 171.642C197.888 171.435 197.709 171.212 197.397 171.031C197.004 170.803 196.449 170.672 195.874 170.672C195.298 170.672 194.741 170.803 194.346 171.031C194.028 171.215 193.845 171.441 193.845 171.651C193.845 171.858 194.023 172.08 194.335 172.262C194.727 172.49 195.282 172.62 195.857 172.62Z" fill="#383C43"/>
<path d="M131.939 206.439C131.874 206.439 131.811 206.405 131.775 206.345C131.722 206.254 131.753 206.137 131.843 206.085L159.968 189.662C160.713 189.229 161.123 188.665 161.122 188.072C161.121 187.476 160.705 186.908 159.95 186.472L143.603 177.077C143.513 177.024 143.482 176.908 143.533 176.817C143.586 176.725 143.702 176.695 143.793 176.747L160.14 186.142C161.017 186.649 161.501 187.334 161.502 188.072C161.503 188.805 161.026 189.487 160.16 189.99L132.035 206.413C132.005 206.431 131.972 206.439 131.939 206.439Z" fill="#DBDEE4"/>
<path d="M133.74 208.218C135.116 207.424 135.124 206.135 133.757 205.341C132.391 204.547 130.166 204.547 128.791 205.341C127.415 206.135 127.409 207.423 128.775 208.217C130.142 209.011 132.365 209.012 133.74 208.218Z" fill="white"/>
<path d="M131.255 209C130.321 209 129.388 208.794 128.68 208.382C127.96 207.963 127.564 207.396 127.564 206.784C127.565 206.168 127.967 205.598 128.696 205.177C130.122 204.353 132.435 204.353 133.853 205.177C134.572 205.595 134.968 206.163 134.967 206.775C134.966 207.391 134.564 207.962 133.835 208.382C133.122 208.794 132.188 209 131.255 209ZM131.278 204.934C130.413 204.934 129.547 205.125 128.886 205.506C128.28 205.856 127.946 206.31 127.945 206.784C127.944 207.255 128.273 207.706 128.871 208.053C130.181 208.815 132.323 208.816 133.645 208.053C134.251 207.703 134.586 207.249 134.587 206.774C134.587 206.303 134.258 205.853 133.661 205.506C133.006 205.125 132.142 204.934 131.278 204.934Z" fill="#DBDEE4"/>
<path d="M131.275 205.873C130.739 205.873 130.22 205.995 129.851 206.207C129.555 206.378 129.385 206.588 129.385 206.783C129.385 206.976 129.551 207.184 129.842 207.353C130.207 207.565 130.724 207.687 131.26 207.687C131.796 207.687 132.314 207.565 132.683 207.352C132.979 207.181 133.149 206.971 133.149 206.776C133.149 206.583 132.983 206.375 132.693 206.207C132.327 205.994 131.811 205.872 131.275 205.873Z" fill="#FFBE2E"/>
<path d="M143.382 198.98C142.806 198.98 142.249 199.112 141.853 199.34C141.535 199.524 141.353 199.749 141.353 199.959C141.352 200.166 141.531 200.389 141.843 200.57C142.236 200.798 142.791 200.929 143.366 200.929C143.942 200.929 144.498 200.798 144.894 200.57C145.212 200.386 145.395 200.16 145.395 199.95C145.396 199.743 145.217 199.521 144.905 199.339C144.513 199.111 143.958 198.98 143.382 198.98Z" fill="#383C43"/>
<path d="M55.6785 146.024L60.4038 143.48L60.9194 143.774L56.1941 146.318L55.6785 146.024ZM58.3785 142.7L58.8518 142.445L62.7399 144.663L62.2666 144.918L58.3785 142.7ZM61.2531 146.792L61.6911 146.556L63.0847 147.351C63.4005 147.531 63.7221 147.626 64.0495 147.635C64.3815 147.641 64.6841 147.571 64.9572 147.424C65.2209 147.282 65.3515 147.119 65.3491 146.935C65.3514 146.748 65.1946 146.565 64.8787 146.385L63.4852 145.59L63.9372 145.346L65.3308 146.141C65.642 146.319 65.8503 146.503 65.9555 146.694C66.0655 146.882 66.0773 147.063 65.9909 147.239C65.9092 147.416 65.7389 147.575 65.4799 147.715C65.2115 147.859 64.9156 147.951 64.5924 147.992C64.2738 148.034 63.9465 148.022 63.6105 147.956C63.2792 147.887 62.958 147.764 62.6467 147.586L61.2531 146.792ZM58.7502 147.776L63.6097 145.16L64.1184 145.45L59.2588 148.066L58.7502 147.776ZM61.6488 149.429L62.0972 147.195L62.7544 147.389L62.3038 149.803L61.6488 149.429ZM62.5524 149.945L69.3769 148.45L69.7601 148.668L66.8446 152.393L66.2942 152.079L68.8955 148.801L69.0975 148.917L63.0959 150.255L62.5524 149.945ZM64.7156 149.777L65.1747 149.53L67.6831 150.961L67.224 151.208L64.7156 149.777ZM67.6642 152.861L72.5237 150.245L72.8861 150.451L72.4179 150.866L68.1728 153.151L67.6642 152.861ZM70.9809 154.753L72.1172 150.78L72.8861 150.451L71.7428 154.42L70.9809 154.753ZM70.9809 154.753L71.4139 154.35L75.6871 152.049L76.2028 152.343L71.3432 154.96L70.9809 154.753ZM73.7215 156.395C73.3499 156.183 73.1 155.962 72.9718 155.732C72.8484 155.5 72.8139 155.256 72.8685 155L73.5771 155.012C73.5089 155.229 73.5252 155.429 73.6258 155.612C73.7311 155.797 73.9325 155.975 74.2297 156.144C74.5363 156.319 74.8555 156.423 75.1872 156.455C75.5189 156.488 75.8096 156.437 76.0592 156.303C76.2522 156.199 76.3658 156.089 76.4 155.973C76.4389 155.854 76.424 155.733 76.3553 155.61C76.296 155.488 76.211 155.361 76.1004 155.23C75.9897 155.099 75.8814 154.967 75.7755 154.833C75.6789 154.7 75.6104 154.564 75.57 154.426C75.5295 154.288 75.5453 154.151 75.6171 154.014C75.6936 153.88 75.8566 153.746 76.1062 153.612C76.3699 153.47 76.6586 153.384 76.9724 153.354C77.2862 153.324 77.6017 153.345 77.9189 153.416C78.2408 153.485 78.5411 153.599 78.8198 153.758C79.1311 153.936 79.3463 154.126 79.4654 154.33C79.5891 154.536 79.6287 154.742 79.5841 154.946L78.8826 154.937C78.9129 154.756 78.8868 154.59 78.8045 154.438C78.7221 154.287 78.5625 154.144 78.3256 154.009C78.0469 153.85 77.758 153.758 77.4589 153.734C77.1598 153.709 76.8926 153.76 76.6571 153.887C76.4735 153.986 76.367 154.09 76.3376 154.198C76.3128 154.309 76.3348 154.426 76.4034 154.549C76.4721 154.672 76.5594 154.797 76.6654 154.926C76.7808 155.054 76.8891 155.186 76.9904 155.322C77.0916 155.459 77.1577 155.595 77.1888 155.733C77.2245 155.874 77.2017 156.015 77.1205 156.156C77.0439 156.295 76.8761 156.435 76.6172 156.574C76.1981 156.8 75.7291 156.895 75.2103 156.86C74.7009 156.825 74.2046 156.67 73.7215 156.395ZM76.3264 157.802L81.186 155.186L81.6946 155.476L76.8351 158.093L76.3264 157.802ZM78.8576 156.811L79.3308 156.556L81.902 158.022L81.4287 158.277L78.8576 156.811ZM81.0472 155.632L81.5204 155.377L84.21 156.911L83.7368 157.166L81.0472 155.632ZM80.2799 160.058L85.1394 157.441L85.6481 157.732L80.7885 160.348L80.2799 160.058ZM80.6143 160.248L81.0876 159.994L83.9096 161.603L83.4363 161.858L80.6143 160.248ZM82.8746 159.032L83.3337 158.784L85.9327 160.267L85.4736 160.514L82.8746 159.032ZM85.0006 157.887L85.4739 157.632L88.2541 159.218L87.7808 159.473L85.0006 157.887ZM86.886 161.414L87.324 161.178L88.7175 161.973C89.0334 162.153 89.355 162.248 89.6823 162.257C90.0144 162.264 90.317 162.194 90.5901 162.047C90.8538 161.905 90.9844 161.742 90.982 161.557C90.9843 161.371 90.8275 161.187 90.5116 161.007L89.118 160.212L89.5701 159.969L90.9637 160.764C91.2749 160.941 91.4831 161.125 91.5884 161.316C91.6983 161.504 91.7102 161.686 91.6238 161.861C91.5421 162.039 91.3718 162.198 91.1128 162.337C90.8444 162.481 90.5485 162.574 90.2253 162.614C89.9067 162.657 89.5794 162.645 89.2434 162.579C88.9121 162.51 88.5908 162.386 88.2796 162.209L86.886 161.414ZM84.383 162.398L89.2426 159.782L89.7512 160.072L84.8917 162.688L84.383 162.398ZM87.2817 164.052L87.7301 161.817L88.3873 162.012L87.9367 164.426L87.2817 164.052Z" fill="black"/>
<path d="M180.775 121.261C180.775 121.809 180.411 122.363 179.678 122.788L118.397 158.142C116.948 158.98 114.607 158.98 113.171 158.142L83.3313 140.819C82.6165 140.401 82.259 139.859 82.2529 139.311L82.2344 132.284C82.2344 132.826 82.5918 133.374 83.3128 133.787L113.146 151.116C114.588 151.953 116.93 151.947 118.378 151.116L179.659 115.756C179.751 115.7 179.838 115.651 179.911 115.596C180.072 115.485 180.207 115.362 180.318 115.239C180.392 115.165 180.454 115.085 180.503 114.998C180.583 114.887 180.639 114.771 180.682 114.653C180.725 114.518 180.75 114.382 180.75 114.247L180.775 121.261Z" fill="#212121"/>
<path d="M118.397 158.142C116.949 158.98 114.607 158.98 113.171 158.142L113.146 151.116C114.588 151.953 116.93 151.947 118.378 151.116L118.397 158.142Z" fill="#FFBE2E"/>
<path d="M115.779 159C114.79 159 113.803 158.782 113.053 158.344L83.2131 141.021C82.4495 140.574 82.0256 139.967 82.0192 139.313L82 132.29C82 132.288 82 132.286 82 132.284C82 132.284 82 132.284 82 132.284C82 132.155 82.1042 132.05 82.2339 132.05C82.3627 132.05 82.4678 132.154 82.4678 132.283V132.29C82.4705 132.771 82.8113 133.231 83.4287 133.583L113.264 150.914C114.632 151.708 116.874 151.709 118.262 150.913L179.542 115.552C179.644 115.493 179.711 115.453 179.771 115.409C179.914 115.309 180.036 115.202 180.143 115.082C180.214 115.012 180.262 114.95 180.3 114.882C180.372 114.78 180.42 114.686 180.462 114.573C180.498 114.463 180.516 114.353 180.516 114.247C180.516 114.118 180.62 114.013 180.75 114.013C180.879 114.013 180.984 114.117 180.984 114.246L181.009 121.26V121.261C181.009 121.923 180.577 122.537 179.794 122.991L118.513 158.345C117.758 158.782 116.768 159 115.779 159ZM82.4705 133.415L82.487 139.309C82.4916 139.791 82.8331 140.256 83.4489 140.617L113.288 157.94C114.658 158.739 116.896 158.74 118.279 157.939L179.561 122.585C180.193 122.22 180.541 121.75 180.541 121.262L180.52 115.365C180.508 115.378 180.496 115.391 180.483 115.404C180.361 115.541 180.21 115.673 180.045 115.788C179.98 115.837 179.898 115.886 179.809 115.938L118.495 151.319C116.979 152.189 114.528 152.188 113.028 151.318L83.1949 133.988C82.9044 133.822 82.6605 133.628 82.4705 133.415Z" fill="#383C43"/>
<path d="M180.75 114.247C180.75 114.382 180.725 114.518 180.682 114.653C180.639 114.77 180.583 114.887 180.503 114.998C180.454 115.084 180.392 115.164 180.318 115.238C180.207 115.361 180.072 115.485 179.912 115.596C179.838 115.651 179.751 115.7 179.659 115.756L118.378 151.116C116.93 151.947 114.588 151.953 113.146 151.116L83.3129 133.787C82.5919 133.374 82.2344 132.826 82.2344 132.284C82.2283 131.736 82.5982 131.182 83.3253 130.763L144.606 95.4031C146.061 94.5655 148.396 94.5655 149.838 95.4031L179.678 112.732C180.398 113.151 180.756 113.699 180.75 114.247Z" fill="#FFBE2E"/>
<path d="M115.756 151.971C114.765 151.971 113.778 151.753 113.028 151.318L83.1949 133.988C82.4358 133.554 82.0001 132.933 82.0001 132.284C81.9937 131.635 82.434 131.007 83.2078 130.56L144.489 95.2004C146.028 94.3134 148.43 94.3144 149.956 95.2013L179.795 112.53C180.568 112.979 180.99 113.589 180.984 114.248C180.984 114.403 180.957 114.559 180.904 114.726C180.845 114.888 180.777 115.018 180.693 115.134C180.649 115.216 180.574 115.314 180.483 115.404C180.361 115.541 180.21 115.673 180.045 115.788C179.98 115.837 179.898 115.886 179.809 115.938L118.495 151.319C117.737 151.754 116.745 151.971 115.756 151.971ZM147.227 95.0078C146.321 95.0078 145.414 95.207 144.723 95.6061L83.4416 130.966C82.8177 131.325 82.4634 131.804 82.4678 132.281C82.4678 132.768 82.8095 133.229 83.4288 133.584L113.264 150.914C114.632 151.709 116.874 151.71 118.262 150.913L179.542 115.553C179.644 115.493 179.711 115.453 179.771 115.408C179.914 115.31 180.037 115.202 180.143 115.082C180.214 115.012 180.262 114.95 180.3 114.882C180.372 114.78 180.42 114.686 180.462 114.573C180.497 114.463 180.516 114.353 180.516 114.247C180.516 114.246 180.516 114.245 180.516 114.244C180.521 113.761 180.182 113.295 179.56 112.934L149.72 95.605C149.035 95.2069 148.132 95.0078 147.227 95.0078Z" fill="#383C43"/>
<path d="M166.849 117.447C166.849 117.447 121.288 143.718 121.281 143.712C118.62 142.172 114.313 142.166 111.633 143.698L96.1377 134.699C96.2755 134.64 96.4064 134.568 96.5309 134.496C99.2118 132.95 99.225 130.442 96.5638 128.902C96.5376 128.889 96.5178 128.876 96.4916 128.863L141.66 102.801C141.666 102.801 141.666 102.808 141.673 102.808C144.347 104.347 148.673 104.347 151.334 102.808C151.334 102.808 166.901 111.86 166.895 111.86C164.22 113.399 164.201 115.901 166.849 117.447Z" fill="#FFF7E4"/>
<path d="M121.22 143.932C121.183 143.932 121.161 143.919 121.139 143.9C118.551 142.419 114.345 142.419 111.749 143.901C111.678 143.943 111.588 143.942 111.515 143.9L96.02 134.901C95.9442 134.857 95.8985 134.773 95.9049 134.684C95.9103 134.596 95.9652 134.518 96.0464 134.483C96.1753 134.43 96.2967 134.361 96.4128 134.294C97.6405 133.586 98.3165 132.66 98.3165 131.685C98.3175 130.72 97.6533 129.804 96.4466 129.106C96.3745 129.064 96.2931 128.967 96.2941 128.883C96.2941 128.8 96.3023 128.703 96.3745 128.661L141.543 102.599C141.611 102.559 141.699 102.559 141.773 102.597C141.778 102.6 141.784 102.602 141.789 102.605C144.396 104.105 148.624 104.105 151.217 102.605C151.288 102.563 151.379 102.564 151.452 102.606L164.581 110.243C167.167 111.747 167.167 111.747 167.12 111.921C167.104 111.981 167.065 112.032 167.011 112.063C165.788 112.767 165.112 113.691 165.109 114.664C165.106 115.627 165.766 116.544 166.966 117.245C167.038 117.287 167.082 117.364 167.082 117.448C167.082 117.531 167.038 117.608 166.965 117.65L123.357 142.788C121.762 143.708 121.371 143.932 121.22 143.932ZM116.446 142.327C118.191 142.327 119.934 142.699 121.281 143.444C123.637 142.093 162.354 119.769 166.395 117.439C165.257 116.677 164.639 115.702 164.642 114.663C164.645 113.613 165.28 112.631 166.44 111.866C164.307 110.623 152.63 103.832 151.332 103.077C148.637 104.565 144.363 104.562 141.662 103.07L96.9518 128.869C98.1457 129.644 98.7852 130.631 98.7842 131.686C98.7842 132.835 98.0251 133.905 96.6476 134.699C96.6404 134.703 96.633 134.707 96.6257 134.712L111.635 143.429C112.981 142.695 114.714 142.327 116.446 142.327Z" fill="#383C43"/>
<path d="M134.051 127.21C135.116 127.284 136.012 127.144 136.738 126.807L131.456 123.74C130.63 124.069 129.663 124.315 128.554 124.496C127.729 124.628 126.905 124.628 126.096 124.488C125.273 124.357 124.549 124.101 123.884 123.715C122.694 123.024 122.173 122.227 122.278 121.314C122.352 120.714 122.882 120.048 123.88 119.34L123.087 118.88L124.071 118.313L124.864 118.773C125.932 118.271 126.984 117.992 128.022 117.934C129.358 117.868 130.621 118.09 131.812 118.617L130.356 119.768C129.605 119.447 128.896 119.266 128.242 119.25C127.574 119.225 126.92 119.341 126.266 119.587L131.052 122.367C132.105 122.005 132.831 121.783 133.215 121.692C133.955 121.528 134.651 121.437 135.305 121.437C135.958 121.437 136.611 121.52 137.221 121.676C137.846 121.84 138.427 122.062 138.951 122.367C140.098 123.033 140.69 123.806 140.714 124.677C140.766 125.549 140.221 126.339 139.109 127.046L140.78 128.016L139.796 128.584L138.14 127.621C137.2 128.049 136.317 128.328 135.549 128.477C134.753 128.625 133.858 128.633 132.892 128.501C131.913 128.378 130.963 128.09 130.042 127.621L131.412 126.47C132.433 126.914 133.312 127.16 134.051 127.21ZM137.722 126.24C138.278 125.82 138.55 125.351 138.497 124.825C138.428 124.307 138.048 123.838 137.34 123.427C136.745 123.082 136.107 122.876 135.453 122.843C134.786 122.802 133.861 122.958 132.666 123.304L137.722 126.24ZM125.268 120.146C124.711 120.582 124.453 121.026 124.507 121.486C124.547 121.939 124.858 122.333 125.438 122.67C126.005 122.999 126.629 123.18 127.325 123.221C128.021 123.263 128.86 123.123 129.856 122.81L125.268 120.146Z" fill="#FFBE2E"/>
<path d="M148.973 112.543C150.601 113.483 150.609 115.009 148.988 115.95C147.371 116.889 144.734 116.889 143.106 115.95C141.478 115.011 141.47 113.485 143.087 112.546C144.709 111.604 147.345 111.604 148.973 112.543Z" fill="#FFBE2E"/>
<path d="M117.734 129.298C119.362 130.237 119.37 131.763 117.749 132.704C116.131 133.644 113.495 133.644 111.867 132.705C110.239 131.765 110.231 130.239 111.848 129.3C113.47 128.359 116.106 128.359 117.734 129.298Z" fill="#FFBE2E"/>
<path d="M180.775 108.993C180.775 109.542 180.411 110.096 179.678 110.521L118.397 145.875C116.948 146.712 114.607 146.712 113.171 145.875L83.3313 128.552C82.6165 128.133 82.259 127.591 82.2529 127.043L82.2344 120.017C82.2344 120.559 82.5918 121.107 83.3128 121.519L113.146 138.848C114.588 139.686 116.93 139.68 118.378 138.848L179.659 103.488C179.751 103.433 179.838 103.384 179.911 103.328C180.072 103.217 180.207 103.094 180.318 102.971C180.392 102.897 180.454 102.817 180.503 102.731C180.583 102.62 180.639 102.503 180.682 102.386C180.725 102.25 180.75 102.115 180.75 101.979L180.775 108.993Z" fill="#212121"/>
<path d="M118.397 145.874C116.949 146.711 114.607 146.711 113.171 145.874L113.146 138.848C114.588 139.685 116.93 139.679 118.378 138.848L118.397 145.874Z" fill="#FFBE2E"/>
<path d="M115.779 146.732C114.79 146.732 113.803 146.514 113.053 146.076L83.2131 128.753C82.4495 128.305 82.0256 127.698 82.0192 127.045L82 120.022C82 120.02 82 120.019 82 120.017C82 120.016 82 120.016 82 120.016C82 119.887 82.1042 119.782 82.2339 119.782C82.3627 119.782 82.4678 119.886 82.4678 120.015V120.022C82.4705 120.503 82.8113 120.963 83.4287 121.315L113.264 138.646C114.632 139.44 116.876 139.439 118.262 138.645L179.542 103.284C179.644 103.225 179.711 103.185 179.771 103.141C179.914 103.041 180.036 102.934 180.143 102.814C180.212 102.745 180.262 102.68 180.301 102.613C180.372 102.512 180.421 102.417 180.461 102.304C180.498 102.194 180.516 102.085 180.516 101.979C180.516 101.85 180.62 101.745 180.75 101.745C180.879 101.745 180.984 101.849 180.984 101.978L181.009 108.992V108.993C181.009 109.655 180.577 110.269 179.794 110.723L118.513 146.077C117.758 146.514 116.768 146.732 115.779 146.732ZM82.4705 121.147L82.487 127.041C82.4916 127.523 82.8331 127.988 83.4498 128.349L113.288 145.672C114.658 146.47 116.896 146.473 118.279 145.671L179.561 110.317C180.193 109.952 180.541 109.482 180.541 108.994L180.52 103.097C180.508 103.11 180.496 103.123 180.483 103.136C180.361 103.273 180.21 103.405 180.045 103.52C179.98 103.569 179.898 103.618 179.809 103.67L118.495 139.051C116.981 139.919 114.527 139.921 113.029 139.05L83.195 121.72C82.9044 121.554 82.6605 121.36 82.4705 121.147Z" fill="#383C43"/>
<path d="M180.75 101.978C180.75 102.114 180.725 102.249 180.682 102.385C180.639 102.502 180.583 102.619 180.503 102.73C180.454 102.816 180.392 102.896 180.318 102.97C180.207 103.093 180.072 103.216 179.912 103.327C179.838 103.382 179.751 103.432 179.659 103.487L118.378 138.847C116.93 139.679 114.588 139.685 113.146 138.847L83.3129 121.518C82.5919 121.106 82.2344 120.558 82.2344 120.016C82.2283 119.468 82.5982 118.913 83.3253 118.495L144.606 83.1345C146.061 82.297 148.396 82.297 149.838 83.1345L179.678 100.464C180.398 100.882 180.756 101.43 180.75 101.978Z" fill="#FFBE2E"/>
<path d="M115.756 139.703C114.766 139.703 113.778 139.485 113.029 139.05L83.1949 121.72C82.4358 121.286 82.0001 120.665 82.0001 120.016C81.9937 119.367 82.434 118.739 83.2078 118.292L144.489 82.9324C146.028 82.0453 148.43 82.0463 149.956 82.9333L179.795 100.262C180.568 100.711 180.99 101.321 180.984 101.98C180.984 102.134 180.956 102.293 180.904 102.457C180.845 102.619 180.777 102.749 180.693 102.866C180.647 102.95 180.572 103.047 180.483 103.136C180.361 103.273 180.21 103.405 180.045 103.52C179.98 103.569 179.898 103.618 179.809 103.67L118.495 139.05C117.738 139.485 116.746 139.703 115.756 139.703ZM147.226 82.7399C146.321 82.7399 145.414 82.939 144.723 83.3381L83.4415 118.698C82.8176 119.057 82.4632 119.536 82.4677 120.013C82.4677 120.5 82.8094 120.961 83.4287 121.316L113.264 138.646C114.634 139.442 116.877 139.439 118.262 138.645L179.542 103.285C179.644 103.225 179.711 103.185 179.771 103.141C179.914 103.042 180.036 102.934 180.143 102.814C180.212 102.746 180.262 102.681 180.3 102.613C180.372 102.512 180.421 102.418 180.461 102.304C180.498 102.194 180.516 102.085 180.516 101.979C180.516 101.978 180.516 101.977 180.516 101.976C180.521 101.493 180.182 101.027 179.56 100.666L149.72 83.3371C149.035 82.9389 148.132 82.7399 147.226 82.7399Z" fill="#383C43"/>
<path d="M166.849 105.179C166.849 105.179 121.288 131.451 121.281 131.444C118.62 129.905 114.313 129.898 111.633 131.431L96.1377 122.431C96.2755 122.373 96.4064 122.3 96.5309 122.228C99.2118 120.683 99.225 118.174 96.5638 116.635C96.5376 116.622 96.5178 116.609 96.4916 116.596L141.66 90.5337C141.666 90.5337 141.666 90.5402 141.673 90.5402C144.347 92.0796 148.673 92.0796 151.334 90.5402C151.334 90.5402 166.901 99.5921 166.895 99.5921C164.22 101.131 164.201 103.633 166.849 105.179Z" fill="#FFF7E4"/>
<path d="M111.633 131.665C111.593 131.665 111.552 131.654 111.515 131.633L96.02 122.633C95.9442 122.589 95.8985 122.505 95.9049 122.417C95.9103 122.328 95.9652 122.25 96.0464 122.216C96.1753 122.162 96.2967 122.093 96.4128 122.026C97.6405 121.319 98.3165 120.392 98.3165 119.417C98.3175 118.451 97.6533 117.535 96.4466 116.837C96.3745 116.795 96.2931 116.698 96.2941 116.614C96.2941 116.531 96.3023 116.434 96.3745 116.392L141.543 90.331C141.611 90.2917 141.699 90.2917 141.773 90.3291C141.778 90.3319 141.784 90.3346 141.789 90.3374C144.395 91.8381 148.624 91.8363 151.217 90.3374C151.288 90.2953 151.379 90.2963 151.452 90.3382L164.581 97.9739C167.167 99.4784 167.167 99.4784 167.12 99.6528C167.104 99.7121 167.065 99.7632 167.011 99.7943C165.788 100.499 165.112 101.422 165.109 102.395C165.106 103.359 165.766 104.276 166.966 104.977C167.038 105.019 167.082 105.096 167.082 105.18C167.082 105.263 167.037 105.34 166.965 105.382L123.357 130.52C121.399 131.647 121.243 131.734 121.134 131.629C118.544 130.149 114.344 130.149 111.749 131.634C111.713 131.655 111.673 131.665 111.633 131.665ZM116.448 130.06C118.192 130.06 119.934 130.431 121.281 131.175C123.632 129.829 162.353 107.501 166.395 105.171C165.257 104.409 164.639 103.434 164.642 102.393C164.645 101.345 165.28 100.363 166.44 99.5971C164.307 98.3539 152.629 91.564 151.332 90.8094C148.637 92.2965 144.363 92.2937 141.661 90.8022L96.9535 116.599C98.1374 117.364 98.7849 118.356 98.7841 119.418C98.7841 120.567 98.025 121.637 96.6475 122.431C96.6402 122.435 96.6329 122.439 96.6256 122.444L111.635 131.161C112.981 130.427 114.715 130.06 116.448 130.06Z" fill="#383C43"/>
<path d="M134.051 114.942C135.116 115.016 136.012 114.876 136.738 114.539L131.456 111.472C130.63 111.801 129.663 112.047 128.554 112.228C127.729 112.36 126.905 112.36 126.096 112.22C125.273 112.088 124.549 111.833 123.884 111.447C122.694 110.756 122.173 109.959 122.278 109.046C122.352 108.446 122.882 107.779 123.88 107.072L123.087 106.612L124.071 106.044L124.864 106.505C125.932 106.003 126.984 105.724 128.022 105.666C129.358 105.6 130.621 105.822 131.812 106.349L130.356 107.5C129.605 107.179 128.896 106.998 128.242 106.982C127.574 106.957 126.92 107.072 126.266 107.319L131.052 110.098C132.105 109.737 132.831 109.515 133.215 109.424C133.955 109.26 134.651 109.169 135.305 109.169C135.958 109.169 136.611 109.252 137.221 109.408C137.846 109.572 138.427 109.794 138.951 110.099C140.098 110.765 140.69 111.538 140.714 112.409C140.766 113.281 140.221 114.071 139.109 114.778L140.78 115.748L139.796 116.315L138.14 115.353C137.2 115.781 136.317 116.06 135.549 116.208C134.753 116.357 133.858 116.365 132.892 116.233C131.913 116.11 130.963 115.822 130.042 115.353L131.412 114.202C132.433 114.646 133.312 114.892 134.051 114.942ZM137.722 113.971C138.278 113.552 138.55 113.083 138.497 112.557C138.428 112.039 138.048 111.57 137.34 111.159C136.745 110.813 136.107 110.608 135.453 110.575C134.786 110.534 133.861 110.69 132.666 111.036L137.722 113.971ZM125.268 107.878C124.711 108.314 124.453 108.758 124.507 109.218C124.547 109.67 124.858 110.065 125.438 110.402C126.005 110.731 126.629 110.912 127.325 110.953C128.021 110.995 128.86 110.855 129.856 110.542L125.268 107.878Z" fill="#FFBE2E"/>
<path d="M148.973 100.275C150.601 101.215 150.609 102.74 148.988 103.682C147.371 104.621 144.734 104.621 143.106 103.682C141.478 102.743 141.47 101.217 143.087 100.278C144.709 99.3362 147.345 99.3362 148.973 100.275Z" fill="#FFBE2E"/>
<path d="M117.734 117.03C119.362 117.969 119.37 119.495 117.749 120.436C116.131 121.376 113.495 121.376 111.867 120.437C110.239 119.497 110.231 117.971 111.848 117.032C113.47 116.091 116.106 116.09 117.734 117.03Z" fill="#FFBE2E"/>
<path d="M180.775 96.7253C180.775 97.2734 180.411 97.8277 179.678 98.2526L118.397 133.606C116.948 134.444 114.607 134.444 113.171 133.606L83.3313 116.284C82.6165 115.865 82.259 115.323 82.2529 114.775L82.2344 107.749C82.2344 108.291 82.5918 108.839 83.3128 109.251L113.146 126.58C114.588 127.418 116.93 127.412 118.378 126.58L179.659 91.2201C179.751 91.1648 179.838 91.1155 179.911 91.0599C180.072 90.9492 180.207 90.826 180.318 90.7029C180.392 90.6289 180.454 90.549 180.503 90.4626C180.583 90.3518 180.639 90.2349 180.682 90.1177C180.725 89.9822 180.75 89.8468 180.75 89.7114L180.775 96.7253Z" fill="#212121"/>
<path d="M118.397 133.606C116.949 134.443 114.607 134.443 113.171 133.606L113.146 126.58C114.588 127.417 116.93 127.411 118.378 126.58L118.397 133.606Z" fill="#FFBE2E"/>
<path d="M115.779 134.464C114.79 134.464 113.803 134.246 113.053 133.808L83.2131 116.485C82.4495 116.038 82.0256 115.43 82.0192 114.777L82 107.754C82 107.752 82 107.751 82 107.749C82 107.748 82 107.748 82 107.748C82 107.619 82.1042 107.514 82.2339 107.514C82.3627 107.514 82.4678 107.618 82.4678 107.747V107.753C82.4705 108.228 82.8203 108.699 83.4287 109.048L113.264 126.378C114.632 127.173 116.876 127.171 118.262 126.377L179.542 91.0169C179.653 90.9511 179.717 90.9127 179.773 90.8716C179.916 90.772 180.038 90.6633 180.143 90.5463C180.212 90.4778 180.262 90.413 180.301 90.3453C180.372 90.2449 180.42 90.1507 180.462 90.0365C180.498 89.9259 180.516 89.8173 180.516 89.7104C180.516 89.5816 180.62 89.4766 180.75 89.4766C180.879 89.4766 180.984 89.5808 180.984 89.7095L181.009 96.724V96.725C181.009 97.3872 180.577 98.0011 179.794 98.4552L118.513 133.809C117.758 134.246 116.768 134.464 115.779 134.464ZM82.4705 108.879L82.487 114.773C82.4916 115.255 82.8331 115.72 83.4498 116.081L113.288 133.404C114.658 134.202 116.896 134.205 118.279 133.404L179.561 98.0495C180.193 97.6842 180.541 97.2138 180.541 96.726L180.52 90.8295C180.508 90.8423 180.496 90.8552 180.483 90.868C180.363 91.0022 180.213 91.1347 180.045 91.2516C179.984 91.2973 179.908 91.3438 179.826 91.3923L118.495 126.783C116.981 127.652 114.527 127.653 113.029 126.782L83.195 109.453C82.9044 109.286 82.6605 109.091 82.4705 108.879Z" fill="#383C43"/>
<path d="M180.75 89.7112C180.75 89.8468 180.725 89.9822 180.682 90.1175C180.639 90.2347 180.583 90.3517 180.503 90.4624C180.454 90.5488 180.392 90.6288 180.318 90.7027C180.207 90.8259 180.072 90.949 179.912 91.0597C179.838 91.1152 179.751 91.1645 179.659 91.2199L118.378 126.58C116.93 127.411 114.588 127.417 113.146 126.58L83.3129 109.251C82.5919 108.838 82.2344 108.29 82.2344 107.748C82.2283 107.2 82.5982 106.646 83.3253 106.227L144.606 70.8674C146.061 70.0299 148.396 70.0299 149.838 70.8674L179.678 88.1964C180.398 88.6151 180.756 89.1632 180.75 89.7112Z" fill="#FFBE2E"/>
<path d="M115.756 127.435C114.766 127.435 113.778 127.218 113.029 126.782L83.1949 109.453C82.4358 109.018 82.0001 108.397 82.0001 107.748C81.9937 107.099 82.434 106.47 83.2078 106.024L144.489 70.6648C146.028 69.7787 148.43 69.7778 149.956 70.6658L179.795 87.9943C180.567 88.4428 180.99 89.0521 180.984 89.7117C180.984 89.8678 180.957 90.0241 180.904 90.1894C180.844 90.352 180.777 90.4836 180.693 90.5987C180.647 90.6827 180.572 90.7795 180.483 90.8682C180.363 91.0025 180.213 91.135 180.045 91.2518C179.984 91.2975 179.908 91.344 179.826 91.3925L118.495 126.783C117.738 127.218 116.746 127.435 115.756 127.435ZM147.226 70.472C146.321 70.472 145.414 70.6712 144.723 71.0703L83.4415 106.43C82.8176 106.789 82.4632 107.268 82.4677 107.745C82.4677 108.224 82.8184 108.698 83.4287 109.048L113.264 126.378C114.634 127.174 116.877 127.171 118.262 126.377L179.542 91.0168C179.653 90.9511 179.717 90.9136 179.773 90.8716C179.916 90.772 180.038 90.6633 180.143 90.5463C180.212 90.4778 180.262 90.413 180.3 90.3453C180.372 90.2449 180.42 90.1507 180.462 90.0365C180.498 89.9259 180.516 89.8173 180.516 89.7104C180.516 89.7094 180.516 89.7086 180.516 89.7076C180.521 89.2244 180.182 88.7585 179.56 88.3977L149.72 71.0694C149.035 70.6712 148.132 70.472 147.226 70.472Z" fill="#383C43"/>
<path d="M166.849 92.9106C166.849 92.9106 121.288 119.182 121.281 119.175C118.62 117.636 114.313 117.63 111.633 119.162L96.1377 110.163C96.2755 110.104 96.4064 110.032 96.5309 109.96C99.2118 108.414 99.225 105.905 96.5638 104.366C96.5376 104.353 96.5178 104.34 96.4916 104.327L141.66 78.2651C141.666 78.2651 141.666 78.2717 141.673 78.2717C144.347 79.811 148.673 79.811 151.334 78.2717C151.334 78.2717 166.901 87.3235 166.895 87.3235C164.22 88.8629 164.201 91.3649 166.849 92.9106Z" fill="#FFF7E4"/>
<path d="M111.633 119.396C111.592 119.396 111.551 119.385 111.515 119.365L96.0197 110.365C95.9439 110.321 95.899 110.237 95.9036 110.149C95.9091 110.061 95.964 109.983 96.0452 109.948C96.174 109.893 96.2963 109.826 96.4123 109.758C97.6401 109.051 98.3161 108.124 98.3161 107.149C98.317 106.183 97.6529 105.267 96.4462 104.569C96.374 104.527 96.2927 104.43 96.2937 104.346C96.2937 104.263 96.3019 104.166 96.374 104.124L141.542 78.0629C141.611 78.0236 141.699 78.0236 141.773 78.0611C141.778 78.0639 141.784 78.0665 141.789 78.0693C144.395 79.5692 148.624 79.5692 151.217 78.0693C151.288 78.0272 151.379 78.0282 151.452 78.0703L164.581 85.7059C167.167 87.2104 167.167 87.2104 167.119 87.3848C167.104 87.4442 167.065 87.4954 167.011 87.5265C165.788 88.2308 165.112 89.1543 165.109 90.1271C165.106 91.0909 165.766 92.008 166.966 92.7095C167.038 92.7516 167.082 92.8283 167.082 92.9123C167.082 92.9954 167.037 93.0722 166.965 93.1141L123.357 118.251C121.375 119.394 121.251 119.461 121.139 119.364C118.552 117.883 114.346 117.881 111.748 119.365C111.713 119.386 111.673 119.396 111.633 119.396ZM116.448 117.791C118.191 117.791 119.933 118.163 121.281 118.907C123.637 117.557 162.353 95.2332 166.394 92.903C165.257 92.1412 164.639 91.1655 164.641 90.125C164.645 89.0764 165.28 88.0944 166.44 87.3288C164.307 86.0856 152.629 79.2958 151.332 78.5412C148.636 80.0283 144.362 80.0255 141.661 78.5338L96.9532 104.33C98.1371 105.096 98.7847 106.088 98.7838 107.149C98.7838 108.298 98.0247 109.369 96.6472 110.163C96.64 110.166 96.6326 110.171 96.6253 110.176L111.635 118.893C112.981 118.159 114.715 117.791 116.448 117.791Z" fill="#383C43"/>
<path d="M148.973 88.0077C150.601 88.947 150.609 90.4728 148.988 91.4144C147.371 92.3537 144.734 92.3537 143.106 91.4146C141.478 90.4753 141.47 88.9494 143.087 88.0102C144.709 87.0686 147.345 87.0686 148.973 88.0077Z" fill="#212121"/>
<path d="M119.093 105.704C120.721 106.643 120.73 108.169 119.108 109.111C117.491 110.05 114.854 110.05 113.227 109.111C111.599 108.172 111.59 106.646 113.207 105.707C114.829 104.765 117.465 104.765 119.093 105.704Z" fill="#212121"/>
<path d="M138.2 94.6085C141.918 96.7538 141.938 100.24 138.234 102.391C134.54 104.536 128.519 104.536 124.801 102.391C121.083 100.246 121.064 96.7596 124.758 94.6142C128.461 92.4629 134.482 92.4629 138.2 94.6085Z" fill="#212121"/>
</g>
</svg>
