<svg width="72" height="72" viewBox="0 0 72 72" fill="none" xmlns="http://www.w3.org/2000/svg">
<path d="M17.1657 31.378H34.8247C35.2914 31.378 35.6698 30.9997 35.6698 30.533V12.8701C35.6698 12.4033 35.2915 12.0251 34.8247 12.0251H17.1657C16.699 12.0251 16.3205 12.4033 16.3205 12.8701V30.5331C16.3205 30.9999 16.6988 31.378 17.1657 31.378ZM24.4526 13.7149H27.5338V17.3704H24.4526V13.7149ZM18.0107 13.7149H22.7623V18.2154C22.7623 18.6821 23.1406 19.0604 23.6074 19.0604H28.379C28.8457 19.0604 29.2241 18.6821 29.2241 18.2154V13.7149H33.9795V29.6878H18.0107V13.7149ZM25.9355 27.3878C25.9355 27.8545 25.5572 28.2328 25.0903 28.2328H20.4264C19.9596 28.2328 19.5812 27.8545 19.5812 27.3878C19.5812 26.921 19.9595 26.5428 20.4264 26.5428H25.0903C25.5571 26.5428 25.9355 26.921 25.9355 27.3878ZM28.375 24.7449C28.375 25.2116 27.9968 25.5899 27.5299 25.5899H20.4264C19.9596 25.5899 19.5812 25.2116 19.5812 24.7449C19.5812 24.2781 19.9595 23.8999 20.4264 23.8999H27.5299C27.9966 23.8999 28.375 24.2781 28.375 24.7449ZM16.3205 34.9974C16.3205 34.5307 16.6988 34.1524 17.1657 34.1524H45.4518C45.9186 34.1524 46.297 34.5307 46.297 34.9974C46.297 35.4641 45.9187 35.8424 45.4518 35.8424H17.1657C16.699 35.8424 16.3205 35.4641 16.3205 34.9974ZM16.3205 40.1197C16.3205 39.6529 16.6988 39.2747 17.1657 39.2747H37.8303C38.297 39.2747 38.6754 39.6529 38.6754 40.1197C38.6754 40.5864 38.2971 40.9647 37.8303 40.9647H17.1657C16.699 40.9647 16.3205 40.5864 16.3205 40.1197ZM52.3402 45.238C52.3402 45.7047 51.9619 46.083 51.4951 46.083H17.1657C16.699 46.083 16.3205 45.7047 16.3205 45.238C16.3205 44.7713 16.6988 44.393 17.1657 44.393H51.4951C51.9618 44.393 52.3402 44.7713 52.3402 45.238ZM60.0176 1.40576C56.2104 1.40576 52.8673 3.42739 51.0036 6.45237H10.8318C10.3651 6.45237 9.98664 6.83065 9.98664 7.29739V12.0251H7.7185C4.23677 12.0251 1.4043 14.8575 1.4043 18.3393V49.8065C1.4043 53.2882 4.23691 56.1207 7.7185 56.1207H28.16C27.8557 58.8632 26.7297 61.4644 24.932 63.5591H18.5051C17.2655 63.5591 16.2568 64.5676 16.2568 65.8074V68.3466C16.2568 69.5862 17.2655 70.5948 18.5051 70.5948H49.183C50.4227 70.5948 51.4312 69.5864 51.4312 68.3466V65.8074C51.4312 64.5676 50.4227 63.5591 49.183 63.5591H42.7524C40.9537 61.4601 39.8284 58.8587 39.527 56.1207H59.9656C63.4473 56.1207 66.2798 53.2882 66.2798 49.8065V20.5012C68.8959 18.5733 70.5969 15.4726 70.5969 11.9812C70.5969 6.14989 65.8509 1.40576 60.0174 1.40576H60.0176ZM11.6768 8.1424H50.1628C49.6969 9.33335 49.4383 10.6272 49.4383 11.981C49.4383 16.7603 52.6247 20.8076 56.9841 22.115V48.8576H11.6768V8.1424ZM3.09447 18.3391C3.09447 15.7894 5.16883 13.7151 7.7185 13.7151H9.98664V48.8577H3.09447V18.3391ZM49.1832 65.2489C49.4909 65.2489 49.7412 65.4994 49.7412 65.8071V68.3464C49.7412 68.654 49.491 68.9044 49.1832 68.9044H18.5053C18.1976 68.9044 17.9471 68.654 17.9471 68.3464V65.8071C17.9471 65.4994 18.1975 65.2489 18.5053 65.2489H49.1832ZM40.6101 63.5588H27.0754C28.6297 61.3723 29.5954 58.803 29.86 56.1204H37.827C38.0891 58.7997 39.0543 61.3691 40.61 63.5588H40.6101ZM59.9659 54.4304H7.7185C5.42125 54.4304 3.51072 52.7461 3.15466 50.5477H64.5297C64.1738 52.7461 62.2631 54.4304 59.9659 54.4304ZM64.5899 48.8577H58.6744V22.4722C59.1147 22.5283 59.5624 22.5605 60.0178 22.5605C61.6545 22.5605 63.2053 22.1868 64.5901 21.5203V48.8576L64.5899 48.8577ZM60.0176 20.8705C55.1162 20.8705 51.1285 16.8828 51.1285 11.9812C51.1285 7.07956 55.116 3.09593 60.0176 3.09593C64.9193 3.09593 68.907 7.08181 68.907 11.9812C68.907 16.8806 64.9193 20.8705 60.0176 20.8705ZM65.4324 7.93779C65.7701 8.2601 65.7824 8.79504 65.4601 9.13268L58.9029 16.0009C58.7429 16.1686 58.5217 16.2624 58.2916 16.2624C58.2711 16.2624 58.2503 16.2617 58.2296 16.2601C57.9777 16.2416 57.7474 16.1113 57.6016 15.9052L54.4963 11.5125C54.2268 11.1314 54.3176 10.604 54.6985 10.3346C55.0797 10.0653 55.6071 10.1557 55.8764 10.5368L58.3891 14.0914L64.2375 7.9655C64.5598 7.62814 65.0946 7.61548 65.4323 7.93779H65.4324Z" fill="black"/>
</svg>
