<svg width="72" height="72" viewBox="0 0 72 72" fill="none" xmlns="http://www.w3.org/2000/svg">
<path d="M8.96227 25.0678V16.5234C8.96227 16.058 9.34055 15.6797 9.80602 15.6797H15.2201C15.6855 15.6797 16.0638 16.058 16.0638 16.5234C16.0638 16.9889 15.6855 17.3672 15.2201 17.3672H10.6498V24.2255H17.5066V20.6508C17.5066 20.1853 17.8849 19.807 18.3504 19.807C18.8159 19.807 19.1941 20.1853 19.1941 20.6508V25.0692C19.1941 25.5347 18.8159 25.913 18.3504 25.913H9.80602C9.33914 25.9116 8.96227 25.5347 8.96227 25.0678ZM17.8202 16.4123L13.9685 20.4427L13.2063 19.6805C12.8773 19.3514 12.3429 19.3514 12.0124 19.6805C11.6834 20.0095 11.6834 20.5439 12.0124 20.873L13.3849 22.2455C13.5438 22.4044 13.7576 22.493 13.9812 22.493H13.991C14.2174 22.4902 14.434 22.3959 14.5915 22.2328L19.0409 17.5781C19.3629 17.2406 19.3502 16.7077 19.0141 16.3856C18.6766 16.0636 18.1423 16.0748 17.8202 16.4123ZM23.3018 19.2994H39.8773C40.3427 19.2994 40.721 18.9211 40.721 18.4556C40.721 17.9902 40.3427 17.6119 39.8773 17.6119H23.3018C22.8363 17.6119 22.458 17.9902 22.458 18.4556C22.458 18.9211 22.8363 19.2994 23.3018 19.2994ZM23.3018 23.9808H44.0454C44.5109 23.9808 44.8891 23.6025 44.8891 23.137C44.8891 22.6716 44.5109 22.2933 44.0454 22.2933H23.3018C22.8363 22.2933 22.458 22.6716 22.458 23.137C22.458 23.6025 22.8363 23.9808 23.3018 23.9808ZM9.80602 41.6995H18.3504C18.8159 41.6995 19.1941 41.3213 19.1941 40.8558V36.4373C19.1941 35.9719 18.8159 35.5936 18.3504 35.5936C17.8849 35.5936 17.5066 35.9719 17.5066 36.4373V40.012H10.6498V33.1537H15.2201C15.6855 33.1537 16.0638 32.7755 16.0638 32.31C16.0638 31.8445 15.6855 31.4662 15.2201 31.4662H9.80602C9.34055 31.4662 8.96227 31.8445 8.96227 32.31V40.8558C8.96227 41.3213 9.33914 41.6995 9.80602 41.6995ZM17.8202 32.1989L13.9685 36.2292L13.2063 35.467C12.8773 35.138 12.3429 35.138 12.0138 35.467C11.6848 35.7961 11.6848 36.3305 12.0138 36.6595L13.3863 38.032C13.5438 38.1909 13.759 38.2795 13.9826 38.2795H13.9924C14.2188 38.2767 14.4354 38.1825 14.5929 38.0194L19.0409 33.3647C19.3629 33.0272 19.3502 32.4942 19.0141 32.1722C18.6766 31.8502 18.1423 31.8628 17.8202 32.1989ZM18.3504 51.3816C17.8849 51.3816 17.5066 51.7598 17.5066 52.2253V55.8H10.6498V48.9417H15.2201C15.6855 48.9417 16.0638 48.5634 16.0638 48.098C16.0638 47.6325 15.6855 47.2542 15.2201 47.2542H9.80602C9.34055 47.2542 8.96227 47.6325 8.96227 48.098V56.6437C8.96227 57.1092 9.34055 57.4875 9.80602 57.4875H18.3504C18.8159 57.4875 19.1941 57.1092 19.1941 56.6437V52.2253C19.1941 51.7584 18.8159 51.3816 18.3504 51.3816ZM17.8202 47.9869L13.9685 52.0172L13.2063 51.255C12.8773 50.9259 12.3429 50.9259 12.0138 51.255C11.6848 51.5841 11.6848 52.1184 12.0138 52.4475L13.3863 53.82C13.5438 53.9789 13.759 54.0675 13.9826 54.0675H13.9924C14.2188 54.0647 14.4354 53.9705 14.5929 53.8073L19.0409 49.1527C19.3629 48.8152 19.3502 48.2822 19.0141 47.9602C18.6766 47.6381 18.1423 47.6508 17.8202 47.9869ZM69.753 66.0066C69.5351 67.2877 68.7869 68.4295 67.6985 69.1383C66.9363 69.6347 66.0462 69.8934 65.149 69.8934C64.7651 69.8934 64.3812 69.847 64.0043 69.7514C62.8568 69.4603 61.9273 68.7516 61.3859 67.7545L55.3798 56.6789C54.6049 56.9391 53.7991 57.1373 52.9695 57.2625V64.6453C52.9695 65.1108 52.5912 65.4891 52.1257 65.4891H3.0293C2.56383 65.4891 2.18555 65.1108 2.18555 64.6453V12.4594H2.18695C2.18695 12.24 2.27133 12.0234 2.43164 11.8631L11.9379 2.35688C12.0996 2.19516 12.3148 2.11219 12.5341 2.11219V2.10938H52.1257C52.5912 2.10938 52.9695 2.48766 52.9695 2.95312V28.748C55.7257 29.1642 58.302 30.3736 60.424 32.2791C63.2899 34.8539 64.9816 38.3892 65.187 42.2353C65.4049 46.312 63.9002 50.0892 61.3085 52.8581L68.9866 62.8045C69.6785 63.7017 69.9513 64.8394 69.753 66.0066ZM59.2962 33.5348C56.7663 31.2623 53.501 30.112 50.1063 30.292C43.0948 30.6675 37.6976 36.6764 38.073 43.688C38.2545 47.0841 39.7493 50.2059 42.2791 52.4798C44.809 54.7537 48.0743 55.9055 51.469 55.7227C58.4805 55.3472 63.8777 49.3383 63.5023 42.3267C63.3195 38.9292 61.826 35.8073 59.2962 33.5348ZM5.06555 11.6156H11.6904V4.99078L5.06555 11.6156ZM51.282 63.8002V57.4172C51.1104 57.4228 50.9388 57.427 50.7687 57.427C48.2557 57.427 45.8285 56.7788 43.6784 55.5553H23.3018C22.8363 55.5553 22.458 55.177 22.458 54.7116C22.458 54.2461 22.8363 53.8678 23.3018 53.8678H41.306C41.254 53.8228 41.2005 53.7792 41.1499 53.7342C40.1979 52.8792 39.3766 51.9173 38.6946 50.8739H23.3018C22.8363 50.8739 22.458 50.4956 22.458 50.0302C22.458 49.5647 22.8363 49.1864 23.3018 49.1864H37.7496C36.9565 47.513 36.4896 45.6834 36.387 43.778C36.3124 42.3984 36.4376 41.0527 36.7329 39.7687H23.3018C22.8363 39.7687 22.458 39.3905 22.458 38.925C22.458 38.4595 22.8363 38.0812 23.3018 38.0812H37.2335C37.6202 37.0209 38.1293 36.0169 38.7424 35.0873H23.3018C22.8363 35.0873 22.458 34.7091 22.458 34.2436C22.458 33.7781 22.8363 33.3998 23.3018 33.3998H39.8773C39.9293 33.3998 39.9799 33.4055 40.0291 33.4139C42.4985 30.645 46.0254 28.8211 50.0149 28.6073C50.4396 28.5848 50.8615 28.5806 51.282 28.5947V3.79688H13.3779V12.4594C13.3779 12.9248 12.9996 13.3031 12.5341 13.3031H3.87164V63.8016H51.282V63.8002ZM67.6507 63.8353L60.0795 54.0253C59.1359 54.8227 58.0868 55.5019 56.9548 56.0391L62.8695 66.9459C63.183 67.5239 63.7329 67.9373 64.4191 68.1117C65.2123 68.3128 66.094 68.1666 66.7788 67.7208C67.4637 67.275 67.953 66.5283 68.0909 65.7211C68.2076 65.0264 68.0515 64.3556 67.6507 63.8353ZM50.1949 31.9711C56.2798 31.6448 61.4955 36.3305 61.8218 42.4153C62.148 48.5002 57.4624 53.7159 51.3776 54.0422C51.1779 54.0534 50.9782 54.0577 50.7799 54.0577C44.9538 54.0577 40.0657 49.4817 39.7507 43.5966C39.5932 40.6491 40.5916 37.8155 42.5646 35.6203C44.5376 33.4252 47.2474 32.1286 50.1949 31.9711ZM50.2863 33.6558C47.7888 33.7894 45.4924 34.8877 43.8218 36.7481C42.1498 38.6086 41.3032 41.0091 41.4368 43.5066C41.7124 48.6633 46.1337 52.6303 51.2876 52.3561C56.4429 52.0805 60.4141 47.6606 60.1371 42.5053C59.8615 37.35 55.4374 33.3802 50.2863 33.6558ZM48.8548 47.0559C49.0109 47.2036 49.219 47.2852 49.4327 47.2852H49.458C49.6816 47.2781 49.894 47.1825 50.0473 47.0194L56.6201 40.0317C56.9393 39.6928 56.9224 39.1584 56.5835 38.8392C56.2432 38.52 55.7102 38.5355 55.391 38.8758L49.3962 45.2489L46.0268 42.0792C45.6865 41.76 45.1535 41.7755 44.8343 42.1158C44.5151 42.4547 44.532 42.9891 44.8709 43.3083L48.8548 47.0559Z" fill="black"/>
</svg>
