<svg width="72" height="72" viewBox="0 0 72 72" fill="none" xmlns="http://www.w3.org/2000/svg">
<path d="M16.0371 18.8726L26.6189 8.3999" stroke="black" stroke-width="2" stroke-miterlimit="10" stroke-linecap="round" stroke-linejoin="round"/>
<path d="M68.9456 57.8181V65.7817C68.9456 67.9636 67.2001 69.8181 64.9092 69.8181H7.09105C4.90923 69.8181 3.05469 68.0726 3.05469 65.7817V57.8181C3.05469 55.6363 4.80014 53.7817 7.09105 53.7817H22.0365C23.4547 53.7817 24.8729 54.5454 25.5274 55.8545L25.8547 56.3999C26.5092 57.709 27.9274 58.4726 29.3456 58.4726H42.7638C44.182 58.4726 45.6001 57.709 46.2547 56.3999L46.582 55.8545C47.2365 54.5454 48.6547 53.7817 50.0729 53.7817H64.9092C67.091 53.7817 68.9456 55.6363 68.9456 57.8181Z" stroke="black" stroke-width="2" stroke-miterlimit="10" stroke-linecap="round" stroke-linejoin="round"/>
<path d="M62.0735 53.7819V12.4365C62.0735 10.1456 60.2189 8.29102 57.928 8.29102H26.6189V14.7274C26.6189 17.0183 24.7644 18.8728 22.4735 18.8728H16.0371V53.7819" stroke="black" stroke-width="2" stroke-miterlimit="10" stroke-linecap="round" stroke-linejoin="round"/>
<path d="M53.5641 8.39982V6.3271C53.5641 4.03619 51.7096 2.18164 49.4186 2.18164H14.0732C11.7823 2.18164 9.92773 4.03619 9.92773 6.3271V53.7816" stroke="black" stroke-width="2" stroke-miterlimit="10" stroke-linecap="round" stroke-linejoin="round"/>
<path d="M24.5449 28.4727H53.6722" stroke="black" stroke-width="2" stroke-miterlimit="10" stroke-linecap="round" stroke-linejoin="round"/>
<path d="M24.5449 34.3638H53.6722" stroke="black" stroke-width="2" stroke-miterlimit="10" stroke-linecap="round" stroke-linejoin="round"/>
<path d="M24.5449 40.2544H53.6722" stroke="black" stroke-width="2" stroke-miterlimit="10" stroke-linecap="round" stroke-linejoin="round"/>
<path d="M24.5449 46.1455H47.1267" stroke="black" stroke-width="2" stroke-miterlimit="10" stroke-linecap="round" stroke-linejoin="round"/>
</svg>
