<svg width="72" height="72" viewBox="0 0 72 72" fill="none" xmlns="http://www.w3.org/2000/svg">
<g clip-path="url(#clip0_18_224243)">
<path d="M64.4743 36.9571V19.2258C64.4743 19.0017 64.3852 18.7865 64.2266 18.6282L56.9318 11.3373C56.7733 11.179 56.5584 11.09 56.3344 11.09H50.2555V6.66914C50.2555 6.20241 49.8772 5.82413 49.4103 5.82413H44.3517V1.40752C44.3517 0.940781 43.9735 0.5625 43.5066 0.5625H8.12506C7.65833 0.5625 7.27991 0.940781 7.27991 1.40752V31.9733C5.63375 32.4484 4.42578 33.9677 4.42578 35.7646V67.491C4.42578 69.667 6.19625 71.4372 8.37214 71.4372H63.629C65.8051 71.4372 67.5754 69.6669 67.5754 67.491V40.8151C67.5754 38.9272 66.2452 37.3455 64.4741 36.957L64.4743 36.9571ZM57.1796 13.9746L61.5883 18.381H57.1796V13.9746ZM56.3344 20.071H62.784V36.865H39.2615C38.6304 36.865 38.1094 36.6493 37.6663 36.2032L34.4357 32.9767C33.6721 32.208 32.7327 31.8184 31.6438 31.8184H29.0927V12.7801H55.4892V19.2258C55.4892 19.6926 55.8675 20.071 56.3344 20.071ZM48.5653 11.0901H28.2477C27.7809 11.0901 27.4025 11.4684 27.4025 11.9351V31.8185H14.8738V7.5143H48.5653V11.0901ZM42.6617 2.25267V5.82427H14.0286C13.5619 5.82427 13.1835 6.20255 13.1835 6.66928V31.8184H8.97008V2.25253H42.6616L42.6617 2.25267ZM65.8854 67.4911C65.8854 68.7352 64.8733 69.7473 63.6292 69.7473H8.37228C7.12817 69.7473 6.11609 68.7352 6.11609 67.4911V35.7647C6.11609 34.5206 7.12817 33.5085 8.37228 33.5085H31.6438C32.2749 33.5085 32.7959 33.7243 33.239 34.1703L36.4696 37.3968C37.2332 38.1655 38.1725 38.5552 39.2615 38.5552H63.6292C64.8733 38.5552 65.8854 39.5691 65.8854 40.8154V67.4913V67.4911ZM33.5931 23.3317H58.3515C58.8183 23.3317 59.1967 23.7099 59.1967 24.1767C59.1967 24.6434 58.8184 25.0217 58.3515 25.0217H33.5931C33.1264 25.0217 32.7479 24.6434 32.7479 24.1767C32.7479 23.7099 33.1262 23.3317 33.5931 23.3317ZM59.1965 28.3344C59.1965 28.8011 58.8183 29.1794 58.3514 29.1794H33.593C33.1262 29.1794 32.7478 28.8011 32.7478 28.3344C32.7478 27.8677 33.1261 27.4894 33.593 27.4894H58.3514C58.8181 27.4894 59.1965 27.8677 59.1965 28.3344ZM59.1965 32.488C59.1965 32.9548 58.8183 33.333 58.3514 33.333H39.1856C38.7189 33.333 38.3405 32.9548 38.3405 32.488C38.3405 32.0213 38.7187 31.643 39.1856 31.643H58.3514C58.8181 31.643 59.1965 32.0213 59.1965 32.488ZM36.0007 43.207C29.965 43.207 25.0545 48.1174 25.0545 54.1531C25.0545 60.1889 29.965 65.0992 36.0007 65.0992C42.0365 65.0992 46.947 60.1889 46.947 54.1531C46.947 48.1174 42.0365 43.207 36.0007 43.207ZM36.0007 63.4092C30.8969 63.4092 26.7448 59.257 26.7448 54.1531C26.7448 49.0493 30.8969 44.8972 36.0007 44.8972C41.1046 44.8972 45.2567 49.0494 45.2567 54.1531C45.2567 59.2568 41.1046 63.4092 36.0007 63.4092ZM40.736 50.5979C41.066 50.9279 41.066 51.463 40.736 51.793L34.8205 57.7086C34.661 57.868 34.4456 57.9561 34.223 57.9561C34.1864 57.9561 34.1495 57.9537 34.1127 57.9489C33.8523 57.9146 33.6226 57.7612 33.4911 57.5336L31.1313 53.4478C30.8979 53.0436 31.0363 52.5268 31.4404 52.2934C31.8451 52.0598 32.3616 52.1985 32.5949 52.6025L34.4041 55.7347L39.541 50.5979C39.8709 50.2678 40.4061 50.2678 40.736 50.5979Z" fill="black"/>
</g>
<defs>
<clipPath id="clip0_18_224243">
<rect width="72" height="72" fill="white"/>
</clipPath>
</defs>
</svg>
