<svg width="124" height="124" viewBox="0 0 124 124" fill="none" xmlns="http://www.w3.org/2000/svg">
<circle cx="62" cy="62" r="61.5" fill="#FFBE2E" stroke="#3C2C0B"/>
<rect x="25" y="28" width="40" height="70" rx="2" fill="white"/>
<path d="M34.2512 30.5703C34.2512 30.0531 34.6715 29.6328 35.1887 29.6328H61.123C61.6402 29.6328 62.0605 30.0531 62.0605 30.5703C62.0605 31.0875 61.6402 31.5078 61.123 31.5078H35.1887C34.6699 31.5078 34.2512 31.0875 34.2512 30.5703ZM35.1887 36.8766H61.123C61.6402 36.8766 62.0605 36.4562 62.0605 35.9391C62.0605 35.4219 61.6402 35.0016 61.123 35.0016H35.1887C34.6715 35.0016 34.2512 35.4219 34.2512 35.9391C34.2512 36.4562 34.6699 36.8766 35.1887 36.8766ZM35.1887 42.2453H61.123C61.6402 42.2453 62.0605 41.825 62.0605 41.3078C62.0605 40.7906 61.6402 40.3703 61.123 40.3703H35.1887C34.6715 40.3703 34.2512 40.7906 34.2512 41.3078C34.2512 41.825 34.6699 42.2453 35.1887 42.2453ZM55.3559 73.1188C47.6012 73.1188 41.2934 66.8094 41.2934 59.0563C41.2934 51.3031 47.6027 44.9938 55.3559 44.9938C63.109 44.9938 69.4184 51.3031 69.4184 59.0563C69.4184 66.8094 63.1105 73.1188 55.3559 73.1188ZM67.5434 59.0547C67.5434 52.3344 62.0762 46.8672 55.3559 46.8672C48.6355 46.8672 43.1684 52.3344 43.1684 59.0547C43.1684 65.775 48.6355 71.2422 55.3559 71.2422C62.0762 71.2422 67.5434 65.7766 67.5434 59.0547ZM61.2996 54.1844L53.548 61.9359L49.4121 57.8C49.0465 57.4344 48.4527 57.4344 48.0871 57.8C47.7215 58.1656 47.7215 58.7594 48.0871 59.1266L52.8855 63.925C53.0605 64.1 53.2996 64.2 53.548 64.2C53.7965 64.2 54.0355 64.1016 54.2105 63.925L62.6262 55.5094C62.9918 55.1438 62.9918 54.55 62.6262 54.1828C62.259 53.8187 61.6652 53.8187 61.2996 54.1844ZM63.5402 90.8906V86.1687C63.5402 83.0672 66.0637 80.5453 69.1637 80.5453H75.5371C75.8809 77.7062 75.9027 75.1219 75.5981 72.6812C72.5762 71.2125 70.6527 68.1859 70.6527 64.8266C70.6527 60.0156 74.598 56.1031 79.448 56.1031C80.0371 56.1031 80.6121 56.1625 81.1699 56.2719V41.9734H66.3559C65.8387 41.9734 65.4184 41.5531 65.4184 41.0359V26.2188H33.7793C32.1246 26.2188 30.7793 27.5641 30.7793 29.2188V92.5859C30.7793 94.2406 32.1246 95.5859 33.7793 95.5859H63.5418V93.8156C63.5418 93.2984 63.9621 92.8781 64.4793 92.8781H94.1668C94.684 92.8781 95.1043 93.2984 95.1043 93.8156V98.7188C95.1043 99.2359 94.684 99.6562 94.1668 99.6562H64.4793C63.9621 99.6562 63.5418 99.2359 63.5418 98.7188V97.4625H33.7793C31.0902 97.4625 28.9043 95.275 28.9043 92.5875V29.2188C28.9043 26.5297 31.0918 24.3438 33.7793 24.3438H66.3574C66.6059 24.3438 66.8449 24.4422 67.0199 24.6188L82.7715 40.3703C82.948 40.5469 83.0465 40.7844 83.0465 41.0328V56.8656C86.1074 58.2328 88.2449 61.2844 88.2449 64.8234C88.2449 68.1734 86.3434 71.1875 83.3543 72.6531C83.1199 75.5031 83.1277 78.0953 83.3715 80.5437H89.4777C92.5777 80.5437 95.1012 83.0672 95.1012 86.1672V90.8891C95.1012 91.4063 94.6809 91.8266 94.1637 91.8266H64.4762C63.9605 91.8281 63.5402 91.4078 63.5402 90.8906ZM65.4152 97.7812H93.2277V94.7547H65.4152V97.7812ZM67.2949 40.0969H79.8465L67.2949 27.5453V40.0969ZM77.4293 80.5453H81.4887C81.2355 77.8766 81.2496 75.0547 81.5356 71.9406C81.5668 71.5938 81.7887 71.2922 82.1121 71.1594C84.6996 70.0922 86.3715 67.6062 86.3715 64.825C86.3715 61.0484 83.2668 57.9766 79.4512 57.9766C75.6355 57.9766 72.5309 61.0484 72.5309 64.825C72.5309 67.6062 74.2137 70.0969 76.8184 71.1719C77.1246 71.2984 77.3418 71.5766 77.3887 71.9047C77.7762 74.5969 77.7902 77.4312 77.4293 80.5453ZM65.4152 89.9531H93.2277V86.1687C93.2277 84.1016 91.5465 82.4203 89.4793 82.4203H69.1637C67.0965 82.4203 65.4152 84.1016 65.4152 86.1687V89.9531ZM34.1871 79.6969H39.5574C39.9699 79.6969 40.3199 79.9641 40.4449 80.3359C41.6684 80.2406 42.5137 79.9359 42.9121 79.4406C43.5184 78.6859 43.2184 77.3172 42.9527 76.1094C42.6871 74.9016 42.4371 73.7594 43.0762 72.9656C43.423 72.5328 43.9449 72.3141 44.6246 72.3141C47.2902 72.3141 49.4574 74.4828 49.4574 77.1469V80.5031L51.7762 80.4469C52.9027 80.4188 53.9293 80.8219 54.7371 81.6109C55.5449 82.4 55.9715 83.4141 55.9715 84.5422V87.9531C55.9715 90 54.7855 92.4391 52.5199 93.1391C50.8277 93.6625 49.198 93.875 47.6418 93.875C45.0199 93.875 42.6027 93.2703 40.4215 92.5234C40.2809 92.8625 39.9465 93.1016 39.5559 93.1016H34.1871C33.6699 93.1016 33.2496 92.6813 33.2496 92.1641V80.6344C33.2496 80.1172 33.6684 79.6969 34.1871 79.6969ZM40.4949 82.2109V90.5625C43.934 91.8 47.6996 92.6672 51.9684 91.3484C53.3012 90.9359 54.098 89.2984 54.098 87.9531V84.5422C54.098 83.9125 53.8793 83.3922 53.4277 82.9531C52.9777 82.5141 52.4496 82.3078 51.823 82.3219L48.5434 82.4016C48.2855 82.4094 48.0465 82.3109 47.8652 82.1359C47.684 81.9594 47.5824 81.7172 47.5824 81.4656V77.1484C47.5824 75.5172 46.2559 74.1906 44.6246 74.1906C44.5934 74.1906 44.5668 74.1922 44.5465 74.1938C44.5199 74.5047 44.6777 75.2188 44.784 75.7094C45.1215 77.2484 45.5418 79.1641 44.373 80.6172C43.6137 81.5578 42.3387 82.0828 40.4949 82.2109ZM35.1246 91.2266H38.6199V81.5719H35.1246V91.2266Z" fill="black"/>
</svg>
