<svg width="230" height="230" viewBox="0 0 230 230" fill="none" xmlns="http://www.w3.org/2000/svg">
<mask id="mask0_3191_17455" style="mask-type:alpha" maskUnits="userSpaceOnUse" x="0" y="0" width="230" height="230">
<rect width="230" height="230" fill="#D9D9D9"/>
</mask>
<g mask="url(#mask0_3191_17455)">
<path d="M59.026 109.914C58.9939 109.914 58.961 109.906 58.9317 109.889L41.1348 99.4831C40.5237 99.1274 40.1436 98.4673 40.1436 97.7604V67.4918C40.1436 67.3884 40.2276 67.3047 40.3307 67.3047C40.4337 67.3047 40.5178 67.3884 40.5178 67.4918V97.7604C40.5178 98.3346 40.8262 98.8709 41.3233 99.1596L59.1203 109.565C59.2094 109.618 59.2394 109.732 59.1875 109.821C59.1524 109.881 59.0904 109.914 59.026 109.914Z" fill="#DBDEE4"/>
<path d="M161.811 111.104C161.779 111.104 161.746 111.096 161.717 111.079L135.487 95.8927C134.817 95.5064 134.448 94.9816 134.447 94.4142C134.446 93.8502 134.811 93.3284 135.471 92.9442L151.417 83.6776C151.506 83.6261 151.621 83.6557 151.673 83.7456C151.725 83.8347 151.695 83.9495 151.605 84.0015L135.66 93.2681C135.119 93.582 134.822 93.9892 134.822 94.4136C134.822 94.8419 135.125 95.2521 135.674 95.5689L161.904 110.755C161.994 110.807 162.024 110.921 161.973 111.011C161.938 111.071 161.875 111.104 161.811 111.104Z" fill="#FFF7E4"/>
<path d="M161.765 113.006C160.425 112.232 160.417 110.976 161.749 110.202C163.081 109.427 165.249 109.428 166.59 110.202C167.931 110.976 167.937 112.231 166.605 113.005C165.273 113.78 163.106 113.78 161.765 113.006Z" fill="white"/>
<path d="M164.188 113.771C163.278 113.771 162.367 113.57 161.672 113.169C160.961 112.758 160.569 112.201 160.568 111.6C160.568 111.003 160.954 110.449 161.655 110.041C163.037 109.239 165.294 109.238 166.684 110.041C167.395 110.451 167.787 111.008 167.788 111.609C167.788 112.206 167.402 112.76 166.7 113.168C166.009 113.57 165.099 113.771 164.188 113.771ZM164.166 109.808C163.324 109.808 162.483 109.993 161.844 110.365C161.262 110.703 160.942 111.141 160.943 111.599C160.943 112.061 161.269 112.504 161.859 112.845C163.147 113.589 165.234 113.588 166.511 112.845C167.094 112.507 167.414 112.068 167.414 111.61C167.413 111.148 167.088 110.706 166.497 110.365C165.853 109.993 165.009 109.808 164.166 109.808Z" fill="#DBDEE4"/>
<path d="M164.17 110.72C164.693 110.72 165.198 110.839 165.558 111.047C165.846 111.213 166.012 111.418 166.012 111.608C166.013 111.796 165.85 111.998 165.567 112.163C165.21 112.37 164.707 112.489 164.185 112.489C163.662 112.489 163.157 112.37 162.798 112.163C162.509 111.996 162.343 111.791 162.343 111.601C162.343 111.413 162.505 111.21 162.788 111.046C163.144 110.839 163.648 110.72 164.17 110.72Z" fill="#FFBE2E"/>
<path d="M151.835 104.161C152.397 104.161 152.94 104.288 153.326 104.511C153.636 104.69 153.814 104.91 153.814 105.114C153.814 105.316 153.64 105.533 153.336 105.71C152.953 105.933 152.412 106.06 151.851 106.06C151.29 106.06 150.747 105.933 150.362 105.71C150.051 105.531 149.873 105.311 149.873 105.106C149.873 104.904 150.047 104.687 150.351 104.51C150.734 104.288 151.275 104.161 151.835 104.161Z" fill="#373B42"/>
<g opacity="0.1">
<path d="M23.4963 150.115C21.0325 151.538 21.0136 153.849 23.4673 155.275L117.206 209.75C119.654 211.172 123.65 211.172 126.114 209.75L195.976 169.415C198.44 167.992 198.447 165.681 195.999 164.258L102.261 106.325C99.8069 104.899 95.8226 104.899 93.3588 106.321L23.4963 150.115Z" fill="black"/>
</g>
<path d="M195.745 159.204C195.754 160.152 195.135 161.084 193.89 161.809L124.028 202.145C123.855 202.244 123.674 202.335 123.492 202.417C121.192 203.473 117.91 203.473 115.635 202.409C115.453 202.326 115.288 202.236 115.124 202.145L21.3835 147.661C20.1714 146.951 19.5531 146.028 19.5531 145.105L19.5283 134.312C19.5366 135.235 20.1386 136.167 21.3671 136.876L115.099 191.344C115.272 191.443 115.445 191.534 115.635 191.616C117.919 192.671 121.2 192.671 123.493 191.608C123.674 191.525 123.847 191.443 124.012 191.344L193.874 151.008C195.111 150.299 195.729 149.359 195.729 148.419L195.745 159.204Z" fill="#212121"/>
<path d="M123.492 191.608V202.418C121.191 203.473 117.91 203.473 115.634 202.409V191.616C117.918 192.672 121.199 192.672 123.492 191.608Z" fill="#FFBE2E"/>
<path d="M119.57 203.391C117.923 203.391 116.278 203.028 115.029 202.303L21.2868 147.825C20.0492 147.101 19.3671 146.134 19.3671 145.1L19.3408 134.31C19.3408 134.207 19.4234 134.123 19.5265 134.123C19.5273 134.123 19.5279 134.123 19.5279 134.123C19.6302 134.123 19.7143 134.205 19.7151 134.308C19.7238 135.211 20.3422 136.065 21.4571 136.712L115.191 191.18C117.588 192.573 121.503 192.572 123.918 191.18L193.778 150.844C194.912 150.194 195.537 149.332 195.537 148.415C195.537 148.312 195.62 148.228 195.724 148.228C195.827 148.228 195.911 148.312 195.911 148.415L195.929 159.203C195.939 160.252 195.248 161.233 193.982 161.967L124.123 202.303C122.865 203.028 121.216 203.391 119.57 203.391ZM19.7179 135.599L19.7413 145.1C19.7413 145.995 20.3568 146.848 21.4752 147.502L115.217 201.979C117.612 203.37 121.523 203.37 123.935 201.979L193.795 161.643C194.939 160.98 195.563 160.114 195.554 159.207C195.554 159.207 195.554 159.206 195.554 159.205L195.539 149.717C195.214 150.263 194.681 150.758 193.964 151.168L124.105 191.504C121.586 192.956 117.504 192.956 115.002 191.504L21.2684 137.035C20.5659 136.627 20.0411 136.138 19.7179 135.599Z" fill="#373B42"/>
<path d="M21.3899 131.71C18.9261 133.133 18.9072 135.444 21.3608 136.87L115.1 191.345C117.548 192.767 121.543 192.767 124.007 191.345L193.87 151.01C196.334 149.587 196.341 147.276 193.893 145.853L100.154 91.3784C97.7004 89.9525 93.7161 89.9526 91.2522 91.3751L21.3899 131.71Z" fill="#373B42"/>
<path d="M119.547 192.597C117.9 192.597 116.255 192.234 115.005 191.507L21.2656 137.032C20.0251 136.311 19.3423 135.34 19.3438 134.299C19.3452 133.252 20.0383 132.275 21.2956 131.549L91.1581 91.2138C93.6713 89.7624 97.7474 89.7646 100.247 91.2171L193.987 145.692C195.228 146.414 195.911 147.385 195.909 148.427C195.908 149.473 195.216 150.448 193.963 151.172L124.1 191.507C122.843 192.234 121.194 192.597 119.547 192.597ZM21.4828 131.872C20.346 132.529 19.7196 133.391 19.7181 134.3C19.7167 135.201 20.3329 136.057 21.4543 136.708L115.194 191.183C117.588 192.576 121.501 192.576 123.913 191.183L193.775 150.848C194.909 150.194 195.534 149.333 195.535 148.426C195.536 147.524 194.92 146.668 193.798 146.016L100.059 91.541C97.6634 90.1484 93.754 90.1473 91.3453 91.5377L21.4828 131.872Z" fill="#373B42"/>
<path d="M119.55 191.176C118.101 191.176 116.707 190.847 115.723 190.276L21.9846 135.801C21.2116 135.352 20.7695 134.806 20.7695 134.302C20.7703 133.791 21.2228 133.237 22.0103 132.782L91.8727 92.4465C92.8639 91.8745 94.2616 91.5459 95.7062 91.5459C97.1524 91.5459 98.5477 91.8748 99.5341 92.4481L193.273 146.923C194.046 147.372 194.489 147.92 194.488 148.425C194.487 148.934 194.037 149.486 193.253 149.939L123.391 190.274C122.399 190.847 120.998 191.176 119.55 191.176Z" fill="#FFF7E4"/>
<path d="M119.548 186.116C118.827 186.116 118.365 185.956 118.26 185.9L30.9883 135.182L95.904 97.7027C96.0077 97.6461 96.475 97.48 97.2077 97.48C97.9307 97.48 98.3927 97.6424 98.4973 97.6996L185.77 148.417L120.86 185.893C120.755 185.95 120.285 186.116 119.548 186.116Z" fill="white"/>
<path d="M119.548 186.303C118.783 186.303 118.296 186.13 118.172 186.064L30.8936 135.344C30.8358 135.31 30.8008 135.249 30.8008 135.182C30.8008 135.115 30.8366 135.053 30.8943 135.02L95.8102 97.5403C95.9388 97.4698 96.4337 97.2925 97.2078 97.2925C97.9747 97.2925 98.4629 97.4675 98.5872 97.5352L185.865 148.255C185.922 148.288 185.957 148.35 185.957 148.417C185.957 148.484 185.921 148.545 185.864 148.579L120.953 186.054C120.822 186.125 120.325 186.303 119.548 186.303ZM31.3614 135.182L118.355 185.737C118.426 185.775 118.853 185.929 119.548 185.929C120.255 185.929 120.692 185.77 120.77 185.728L185.397 148.416L98.403 97.8612C98.3313 97.8221 97.9044 97.6668 97.2078 97.6668C96.5032 97.6668 96.0704 97.8243 95.9937 97.8663L31.3614 135.182Z" fill="#373B42"/>
<path d="M47.3705 120.092L47.3616 121.873C47.3616 122.521 46.9029 122.791 46.3361 122.467L41.8472 119.876V119.903L36.0811 123.231L36.0991 115.675C36.108 112.509 38.3479 111.24 41.1006 112.833L44.2131 114.632C45.9582 115.639 47.3795 118.086 47.3705 120.092Z" fill="#373B42"/>
<path d="M36.0817 123.418C36.0495 123.418 36.0166 123.41 35.9881 123.393C35.9296 123.36 35.8945 123.298 35.8945 123.231L35.9128 115.675C35.9172 114.081 36.469 112.887 37.4669 112.313C38.4735 111.735 39.798 111.862 41.195 112.67L44.3069 114.47C46.1089 115.509 47.5672 118.032 47.5584 120.092V120.093L47.5489 121.874C47.5489 122.256 47.4092 122.549 47.1548 122.696C46.9005 122.843 46.5773 122.819 46.244 122.629L41.8712 120.105L36.1752 123.393C36.146 123.41 36.1138 123.418 36.0817 123.418ZM38.8602 112.33C38.418 112.33 38.0108 112.432 37.6534 112.638C36.7762 113.142 36.2914 114.221 36.2871 115.675L36.2695 122.907L41.7089 119.767C41.7213 119.751 41.7367 119.737 41.7543 119.727C41.8106 119.694 41.8822 119.679 41.9414 119.714L46.4305 122.305C46.6425 122.426 46.8332 122.451 46.967 122.373C47.0993 122.296 47.1746 122.114 47.1746 121.873L47.1841 120.091C47.1922 118.15 45.8179 115.773 44.1198 114.794L41.0079 112.994C40.2455 112.553 39.5137 112.33 38.8602 112.33Z" fill="#373B42"/>
<path d="M188.293 165.228C188.19 165.228 188.105 165.144 188.105 165.041V154.231C188.105 154.127 188.19 154.043 188.293 154.043C188.396 154.043 188.48 154.127 188.48 154.231V165.041C188.48 165.144 188.396 165.228 188.293 165.228Z" fill="#373B42"/>
<path d="M28.5397 152.012C28.4366 152.012 28.3525 151.928 28.3525 151.824V141.042C28.3525 140.939 28.4366 140.855 28.5397 140.855C28.6427 140.855 28.7268 140.939 28.7268 141.042V151.824C28.7268 151.928 28.6427 152.012 28.5397 152.012Z" fill="#373B42"/>
<path d="M72.7579 137.93C73.8083 138.537 73.818 139.515 72.7746 140.122L63.2012 145.685C62.162 146.289 60.4682 146.289 59.4179 145.683L49.786 140.122C48.7357 139.516 48.7302 138.535 49.7696 137.931L59.343 132.367C60.3864 131.761 62.0758 131.763 63.1261 132.37L72.7579 137.93Z" fill="#FFBE2E"/>
<path d="M61.3156 146.322C60.5955 146.322 59.8741 146.163 59.3237 145.845L49.6919 140.284C49.1217 139.955 48.8074 139.507 48.8066 139.021C48.8059 138.54 49.1136 138.095 49.6743 137.769L59.2482 132.206C60.3571 131.562 62.0999 131.562 63.219 132.208L72.8507 137.769C73.4223 138.099 73.7374 138.547 73.7382 139.033C73.739 139.513 73.4298 139.958 72.8683 140.284L63.295 145.848C62.7505 146.164 62.0334 146.322 61.3156 146.322ZM61.2278 132.1C60.578 132.1 59.9288 132.243 59.4368 132.529L49.8629 138.093C49.4221 138.349 49.1801 138.678 49.1809 139.021C49.1809 139.367 49.4294 139.701 49.879 139.96L59.5108 145.521C60.5064 146.096 62.1197 146.097 63.1066 145.524L72.6798 139.96C73.1213 139.704 73.3648 139.375 73.3641 139.033C73.3633 138.687 73.1148 138.353 72.6638 138.093L63.0321 132.531C62.5334 132.244 61.8799 132.1 61.2278 132.1Z" fill="#373B42"/>
<path d="M68.9468 129.786C68.8824 129.786 68.8196 129.752 68.7845 129.692C68.7333 129.603 68.7641 129.488 68.8532 129.437L106.16 107.898C106.247 107.846 106.362 107.876 106.416 107.966C106.467 108.056 106.436 108.17 106.347 108.222L69.0403 129.761C69.0111 129.778 68.979 129.786 68.9468 129.786Z" fill="#373B42"/>
<path d="M77.4469 134.732C77.3825 134.732 77.3197 134.698 77.2845 134.638C77.2333 134.549 77.2641 134.434 77.3532 134.383L102.467 119.884C102.554 119.832 102.669 119.862 102.723 119.952C102.774 120.042 102.743 120.156 102.654 120.207L77.5404 134.706C77.5111 134.724 77.479 134.732 77.4469 134.732Z" fill="#373B42"/>
<path d="M92.1769 149.213C93.2273 149.819 93.237 150.798 92.1936 151.404L82.6201 156.968C81.5809 157.571 79.8871 157.571 78.8368 156.965L69.205 151.404C68.1546 150.798 68.1492 149.817 69.1885 149.213L78.762 143.649C79.8054 143.043 81.4948 143.045 82.545 143.652L92.1769 149.213Z" fill="#FFBE2E"/>
<path d="M80.7352 157.604C80.0152 157.604 79.2937 157.445 78.7433 157.127L69.1115 151.566C68.5413 151.236 68.2263 150.788 68.2256 150.302C68.2248 149.821 68.5333 149.376 69.094 149.051L78.6679 143.487C79.7754 142.843 81.5196 142.843 82.6388 143.49L92.2705 149.051C92.8422 149.38 93.1572 149.829 93.158 150.314C93.1588 150.795 92.8496 151.239 92.2881 151.566L82.7142 157.129C82.1695 157.446 81.453 157.604 80.7352 157.604ZM80.6469 143.381C79.997 143.381 79.3486 143.525 78.8566 143.811L69.2827 149.375C68.8419 149.63 68.5999 149.96 68.5999 150.302C68.6007 150.648 68.8484 150.982 69.2988 151.242L78.9305 156.803C79.9254 157.378 81.5394 157.379 82.5255 156.806L92.0995 151.242C92.541 150.985 92.7837 150.656 92.7837 150.315C92.7829 149.969 92.5344 149.635 92.0834 149.374L82.4517 143.813C81.9531 143.526 81.2989 143.381 80.6469 143.381Z" fill="#373B42"/>
<path d="M88.3647 141.068C88.3004 141.068 88.2376 141.035 88.2025 140.975C88.1513 140.885 88.182 140.771 88.2712 140.719L125.579 119.18C125.666 119.127 125.781 119.158 125.834 119.248C125.886 119.338 125.855 119.452 125.766 119.504L88.4583 141.043C88.4291 141.06 88.3969 141.068 88.3647 141.068Z" fill="#373B42"/>
<path d="M96.8648 146.013C96.8005 146.013 96.7377 145.98 96.7025 145.92C96.6513 145.83 96.682 145.716 96.7712 145.664L121.885 131.165C121.972 131.113 122.087 131.144 122.141 131.233C122.192 131.323 122.161 131.437 122.072 131.489L96.9583 145.988C96.9292 146.005 96.897 146.013 96.8648 146.013Z" fill="#373B42"/>
<path d="M111.595 160.494C112.645 161.101 112.655 162.079 111.612 162.686L102.038 168.249C100.999 168.853 99.305 168.853 98.2548 168.247L88.6229 162.686C87.5725 162.08 87.5672 161.098 88.6064 160.495L98.18 154.931C99.2234 154.325 100.913 154.327 101.963 154.934L111.595 160.494Z" fill="#FFBE2E"/>
<path d="M100.152 168.885C99.4325 168.885 98.7116 168.726 98.1612 168.408L88.5288 162.847C87.9586 162.517 87.6443 162.069 87.6436 161.583C87.6428 161.102 87.9513 160.657 88.512 160.332L98.0853 154.768C99.1949 154.123 100.939 154.124 102.056 154.771L111.689 160.331C112.26 160.661 112.575 161.11 112.576 161.595C112.577 162.075 112.267 162.52 111.706 162.847L102.132 168.41C101.587 168.726 100.87 168.884 100.152 168.885ZM100.065 154.662C99.4149 154.662 98.7665 154.806 98.2738 155.092L88.7006 160.655C88.2598 160.911 88.0178 161.241 88.0178 161.583C88.0186 161.929 88.2663 162.263 88.716 162.523L98.3483 168.084C99.3432 168.658 100.956 168.66 101.943 168.086L111.517 162.523C111.959 162.266 112.202 161.937 112.202 161.595C112.201 161.25 111.952 160.915 111.501 160.655L101.869 155.095C101.37 154.807 100.717 154.662 100.065 154.662Z" fill="#373B42"/>
<path d="M107.783 152.35C107.718 152.35 107.656 152.316 107.62 152.256C107.569 152.166 107.6 152.052 107.689 152.001L144.996 130.462C145.084 130.409 145.198 130.44 145.252 130.53C145.303 130.619 145.272 130.734 145.183 130.785L107.876 152.324C107.847 152.342 107.815 152.35 107.783 152.35Z" fill="#373B42"/>
<path d="M116.282 157.295C116.217 157.295 116.155 157.262 116.119 157.202C116.068 157.112 116.099 156.998 116.188 156.946L141.301 142.447C141.389 142.395 141.503 142.426 141.557 142.516C141.608 142.605 141.577 142.72 141.488 142.771L116.375 157.27C116.346 157.287 116.314 157.295 116.282 157.295Z" fill="#373B42"/>
<path d="M131.011 171.776C132.061 172.382 132.071 173.361 131.028 173.967L121.454 179.53C120.415 180.134 118.721 180.134 117.671 179.528L108.039 173.967C106.989 173.361 106.983 172.38 108.022 171.776L117.596 166.212C118.639 165.606 120.329 165.608 121.379 166.215L131.011 171.776Z" fill="#FFBE2E"/>
<path d="M119.569 180.167C118.848 180.167 118.127 180.008 117.577 179.69L107.945 174.129C107.375 173.8 107.06 173.351 107.06 172.866C107.059 172.385 107.367 171.94 107.927 171.614L117.501 166.05C118.611 165.407 120.353 165.407 121.472 166.053L131.104 171.614C131.675 171.944 131.99 172.393 131.991 172.878C131.992 173.358 131.683 173.803 131.121 174.129L121.548 179.693C121.004 180.009 120.286 180.167 119.569 180.167ZM119.48 165.945C118.83 165.945 118.182 166.088 117.69 166.374L108.116 171.938C107.675 172.194 107.433 172.523 107.434 172.866C107.434 173.212 107.682 173.546 108.132 173.806L117.764 179.366C118.759 179.941 120.372 179.942 121.36 179.369L130.933 173.805C131.374 173.549 131.618 173.22 131.617 172.878C131.616 172.532 131.368 172.199 130.917 171.938L121.285 166.377C120.786 166.089 120.133 165.945 119.48 165.945Z" fill="#373B42"/>
<path d="M127.201 163.631C127.136 163.631 127.073 163.598 127.038 163.538C126.987 163.448 127.018 163.334 127.107 163.282L164.414 141.743C164.501 141.691 164.617 141.721 164.67 141.811C164.721 141.901 164.69 142.015 164.601 142.067L127.294 163.606C127.265 163.623 127.233 163.631 127.201 163.631Z" fill="#373B42"/>
<path d="M135.697 168.577C135.632 168.577 135.57 168.544 135.535 168.484C135.483 168.394 135.514 168.28 135.603 168.228L160.717 153.729C160.804 153.677 160.92 153.707 160.973 153.797C161.024 153.887 160.993 154.001 160.904 154.053L135.79 168.552C135.761 168.569 135.729 168.577 135.697 168.577Z" fill="#373B42"/>
<path d="M64.2253 134.548C64.6072 134.556 64.766 134.823 64.5773 135.151L60.6453 141.985C60.5473 142.153 60.3796 142.303 60.1888 142.411C59.998 142.52 59.7808 142.586 59.5837 142.587L56.7778 142.582C56.4164 142.574 56.2121 142.371 56.3251 142.078C56.4677 141.703 56.9988 141.377 57.4326 141.378L59.56 141.383L63.121 135.196C63.3008 134.887 63.7137 134.597 64.1037 134.554C64.1464 134.549 64.187 134.547 64.2253 134.548Z" fill="#212121"/>
<path d="M84.4411 146.288C84.823 146.297 84.9818 146.564 84.7931 146.891L80.8611 153.725C80.7631 153.893 80.5954 154.043 80.4046 154.151C80.2138 154.26 79.9966 154.326 79.7995 154.328L76.9936 154.322C76.6322 154.314 76.428 154.111 76.5409 153.818C76.6835 153.443 77.2146 153.117 77.6484 153.118L79.7759 153.123L83.3369 146.936C83.5166 146.628 83.9295 146.338 84.3196 146.294C84.3623 146.289 84.4028 146.287 84.4411 146.288Z" fill="#212121"/>
<path d="M103.859 157.57C104.241 157.578 104.4 157.845 104.211 158.172L100.279 165.006C100.181 165.174 100.013 165.324 99.8225 165.433C99.6318 165.541 99.4146 165.608 99.2175 165.609L96.4116 165.603C96.0502 165.595 95.8459 165.392 95.9589 165.099C96.1015 164.724 96.6326 164.398 97.0664 164.399L99.1938 164.404L102.755 158.218C102.935 157.909 103.347 157.619 103.738 157.575C103.78 157.571 103.821 157.569 103.859 157.57Z" fill="#212121"/>
<path d="M123.565 168.852C123.947 168.86 124.106 169.127 123.917 169.455L119.985 176.288C119.887 176.456 119.719 176.606 119.529 176.715C119.338 176.823 119.121 176.89 118.924 176.891L116.118 176.885C115.756 176.877 115.552 176.674 115.665 176.382C115.808 176.006 116.339 175.68 116.772 175.681L118.9 175.686L122.461 169.5C122.641 169.191 123.054 168.901 123.444 168.857C123.486 168.853 123.527 168.851 123.565 168.852Z" fill="#212121"/>
<path d="M162.872 143.671L169.988 150.184L163.118 153.166L161.123 154.029C160.481 154.304 159.811 153.705 160.012 153.036L160.666 150.887L162.872 143.671Z" fill="white"/>
<path d="M160.794 154.284C160.552 154.284 160.314 154.195 160.125 154.026C159.829 153.762 159.717 153.362 159.831 152.982L162.691 143.616C162.71 143.555 162.759 143.507 162.821 143.49C162.881 143.473 162.949 143.489 162.996 143.533L170.113 150.046C170.16 150.088 170.182 150.152 170.171 150.215C170.161 150.277 170.12 150.33 170.061 150.355L161.196 154.201C161.065 154.257 160.929 154.284 160.794 154.284ZM162.962 144.009L160.189 153.091C160.116 153.333 160.185 153.578 160.374 153.747C160.563 153.916 160.817 153.956 161.047 153.857L169.647 150.127L162.962 144.009Z" fill="#373B42"/>
<path d="M191.533 112.044C191.026 112.599 190.881 113.49 191.233 114.585C191.926 116.765 194.296 118.921 196.513 119.397C197.622 119.636 198.487 119.418 198.989 118.866L170.747 149.694C170.245 150.247 169.38 150.464 168.271 150.226C166.055 149.745 163.688 147.594 162.991 145.413C162.644 144.319 162.784 143.428 163.291 142.872L191.533 112.044Z" fill="#978050"/>
<path d="M169.121 150.509C168.842 150.509 168.545 150.476 168.232 150.409C165.957 149.916 163.526 147.7 162.813 145.47C162.457 144.345 162.577 143.378 163.153 142.746L191.394 111.919C191.394 111.919 191.394 111.919 191.395 111.918V111.918C191.466 111.842 191.584 111.837 191.66 111.906C191.736 111.976 191.741 112.094 191.671 112.17V112.171C191.187 112.702 191.095 113.54 191.412 114.528C192.086 116.648 194.392 118.751 196.553 119.215C197.555 119.43 198.368 119.264 198.843 118.749L198.851 118.74C198.922 118.664 199.039 118.659 199.116 118.728C199.192 118.797 199.197 118.916 199.128 118.992C199.125 118.996 199.121 118.999 199.118 119.003L170.886 149.821C170.473 150.275 169.862 150.509 169.121 150.509ZM190.882 113.032L163.43 142.999C162.948 143.527 162.855 144.365 163.17 145.357C163.846 147.473 166.153 149.575 168.311 150.043C169.319 150.26 170.134 150.091 170.609 149.569L198.061 119.603C197.602 119.713 197.065 119.708 196.474 119.581C194.196 119.092 191.765 116.876 191.055 114.642C190.866 114.055 190.81 113.509 190.882 113.032Z" fill="#373B42"/>
<path d="M190.709 127.902C190.207 128.455 189.342 128.672 188.233 128.434C186.016 127.958 183.646 125.801 182.953 123.622C182.602 122.526 182.746 121.636 183.253 121.08L186.012 118.068C185.505 118.624 185.361 119.514 185.713 120.609C186.405 122.789 188.775 124.946 190.993 125.422C192.101 125.66 192.966 125.443 193.468 124.89L190.709 127.902Z" fill="#373B42"/>
<path d="M189.082 128.717C188.804 128.717 188.507 128.684 188.195 128.617C185.916 128.128 183.486 125.912 182.776 123.678C182.416 122.556 182.536 121.589 183.116 120.954L185.875 117.942C185.875 117.942 185.875 117.942 185.875 117.942V117.941C185.947 117.865 186.065 117.861 186.14 117.93C186.216 117.999 186.221 118.118 186.152 118.194V118.194L186.151 118.195C185.666 118.726 185.575 119.563 185.892 120.552C186.566 122.672 188.872 124.774 191.033 125.238C192.032 125.454 192.847 125.288 193.323 124.772L193.331 124.763C193.403 124.687 193.519 124.683 193.596 124.752C193.672 124.821 193.677 124.939 193.607 125.015C193.604 125.019 193.602 125.022 193.599 125.026L190.848 128.028C190.435 128.482 189.824 128.717 189.082 128.717ZM185.362 119.056L183.392 121.207C182.907 121.738 182.815 122.575 183.133 123.564C183.806 125.684 186.112 127.787 188.274 128.251C189.277 128.466 190.095 128.298 190.571 127.776C190.571 127.776 190.571 127.776 190.571 127.775L192.54 125.626C192.081 125.737 191.545 125.731 190.954 125.604C188.676 125.115 186.245 122.9 185.535 120.666C185.347 120.078 185.29 119.533 185.362 119.056Z" fill="#373B42"/>
<path d="M191.234 114.587C190.539 112.408 191.783 111.034 194.003 111.513C196.228 111.992 198.596 114.145 199.29 116.325C199.984 118.504 198.741 119.878 196.515 119.398C194.295 118.92 191.928 116.767 191.234 114.587Z" fill="#373B42"/>
<path d="M197.363 119.681C197.084 119.681 196.788 119.648 196.476 119.581C194.198 119.089 191.766 116.875 191.056 114.644C190.698 113.521 190.817 112.555 191.391 111.923C191.962 111.294 192.903 111.082 194.043 111.33C196.324 111.821 198.758 114.036 199.469 116.268C199.826 117.39 199.707 118.356 199.133 118.987C198.718 119.445 198.106 119.681 197.363 119.681ZM193.16 111.604C192.526 111.604 192.01 111.798 191.668 112.175C191.188 112.703 191.097 113.54 191.413 114.531C192.087 116.648 194.394 118.749 196.555 119.215C197.562 119.433 198.379 119.262 198.856 118.736C199.337 118.207 199.427 117.371 199.112 116.381C198.437 114.264 196.128 112.162 193.964 111.696C193.679 111.634 193.41 111.604 193.16 111.604Z" fill="#373B42"/>
<path d="M160.844 150.918C162.012 151.173 162.87 152.077 163.118 153.166L161.123 154.03C160.481 154.304 159.811 153.705 160.012 153.037L160.666 150.887C160.724 150.892 160.784 150.905 160.844 150.918Z" fill="#373B42"/>
<path d="M160.794 154.285C160.552 154.285 160.314 154.196 160.125 154.027C159.829 153.763 159.717 153.363 159.831 152.983L160.484 150.833C160.51 150.75 160.598 150.695 160.677 150.701C160.744 150.706 160.813 150.72 160.882 150.736C162.078 150.997 163.027 151.935 163.299 153.125C163.318 153.213 163.273 153.303 163.19 153.339L161.196 154.202C161.065 154.257 160.929 154.285 160.794 154.285ZM160.795 151.1L160.189 153.091C160.116 153.333 160.185 153.579 160.374 153.747C160.562 153.916 160.815 153.958 161.047 153.858L162.895 153.059C162.613 152.08 161.807 151.321 160.802 151.101C160.799 151.101 160.797 151.1 160.795 151.1Z" fill="#373B42"/>
<path d="M195.627 109.281C195.229 109.708 195.122 110.401 195.392 111.252C195.936 112.944 197.765 114.612 199.485 114.981C200.345 115.169 201.01 114.997 201.401 114.57L198.54 117.7C198.148 118.128 197.477 118.298 196.624 118.112C194.898 117.741 193.068 116.073 192.531 114.383C192.26 113.531 192.367 112.838 192.759 112.41L195.627 109.281Z" fill="white"/>
<path d="M197.282 118.375C197.063 118.375 196.829 118.348 196.584 118.295C194.806 117.912 192.907 116.183 192.353 114.439C192.07 113.548 192.165 112.782 192.621 112.284L195.474 109.171C195.48 109.165 195.485 109.159 195.491 109.153C195.561 109.078 195.679 109.073 195.754 109.143C195.83 109.213 195.835 109.331 195.765 109.407L195.752 109.422C195.397 109.816 195.333 110.444 195.572 111.196C196.095 112.826 197.869 114.443 199.526 114.798C200.284 114.965 200.902 114.839 201.264 114.443C201.264 114.443 201.264 114.443 201.264 114.443C201.336 114.367 201.454 114.362 201.529 114.431C201.605 114.501 201.61 114.62 201.54 114.696L198.679 117.826C198.348 118.188 197.865 118.375 197.282 118.375ZM195.064 110.173L192.898 112.536C192.536 112.932 192.469 113.568 192.71 114.326C193.228 115.955 195.001 117.572 196.664 117.929C197.426 118.096 198.042 117.968 198.402 117.574L200.565 115.209C200.231 115.267 199.855 115.254 199.446 115.164C197.674 114.784 195.776 113.054 195.215 111.31C195.085 110.899 195.035 110.516 195.064 110.173Z" fill="#373B42"/>
<path d="M199.489 114.98C197.763 114.611 195.933 112.942 195.394 111.253C194.855 109.563 195.819 108.495 197.54 108.868C199.266 109.242 201.101 110.905 201.634 112.595C202.179 114.29 201.215 115.353 199.489 114.98Z" fill="#212121"/>
<path d="M200.148 115.241C199.929 115.241 199.695 115.215 199.45 115.162C197.672 114.783 195.772 113.054 195.216 111.309C194.933 110.423 195.029 109.658 195.485 109.156C195.938 108.658 196.681 108.489 197.58 108.685C199.365 109.071 201.264 110.8 201.813 112.539C202.098 113.425 202.004 114.189 201.55 114.691C201.221 115.054 200.735 115.241 200.148 115.241ZM196.885 108.98C196.407 108.98 196.019 109.126 195.762 109.408C195.4 109.807 195.332 110.442 195.573 111.195C196.093 112.827 197.867 114.442 199.528 114.796C199.528 114.796 199.528 114.796 199.528 114.796C200.294 114.96 200.913 114.834 201.272 114.439C201.634 114.041 201.699 113.406 201.457 112.652C200.943 111.027 199.168 109.411 197.501 109.051C197.283 109.004 197.077 108.98 196.885 108.98Z" fill="#373B42"/>
<path d="M206.783 84.5054L206.773 89.0238L179.01 105.162L179.02 100.644L206.783 84.5054Z" fill="#212121"/>
<path d="M179.009 105.35C178.977 105.35 178.945 105.341 178.916 105.324C178.858 105.291 178.822 105.229 178.822 105.162L178.833 100.643C178.833 100.577 178.868 100.515 178.925 100.482L206.688 84.3431C206.747 84.3095 206.818 84.3095 206.876 84.3431C206.934 84.3764 206.97 84.4385 206.97 84.5053L206.959 89.024C206.959 89.0906 206.924 89.152 206.867 89.1856L179.104 105.324C179.074 105.341 179.041 105.35 179.009 105.35ZM179.207 100.752L179.197 104.837L206.585 88.916L206.594 84.8308L179.207 100.752Z" fill="#373B42"/>
<path d="M179.021 100.644L179.01 105.162L126.348 74.6732L126.358 70.1548L179.021 100.644Z" fill="#212121"/>
<path d="M179.01 105.35C178.978 105.35 178.945 105.341 178.917 105.325L126.254 74.8355C126.195 74.8019 126.16 74.7401 126.16 74.6733L126.171 70.1549C126.171 70.088 126.207 70.0263 126.265 69.993C126.323 69.9602 126.395 69.9597 126.452 69.9934L179.114 100.482C179.172 100.516 179.207 100.577 179.207 100.644L179.197 105.163C179.197 105.23 179.161 105.292 179.104 105.325C179.074 105.341 179.042 105.35 179.01 105.35ZM126.534 74.5659L178.824 104.839L178.833 100.752L126.545 70.4796L126.534 74.5659Z" fill="#373B42"/>
<path d="M206.783 84.5055L179.02 100.644L126.357 70.1552L154.12 54.0166L206.783 84.5055Z" fill="#FFF7E4"/>
<path d="M179.02 100.831C178.988 100.831 178.955 100.822 178.927 100.805L126.264 70.3168C126.207 70.2835 126.171 70.2218 126.171 70.1549C126.171 70.0883 126.206 70.0266 126.264 69.9929L154.026 53.8543C154.085 53.8207 154.157 53.8207 154.214 53.8543L206.876 84.3429C206.934 84.3762 206.97 84.4379 206.97 84.5048C206.97 84.5714 206.935 84.6331 206.877 84.6667L179.114 100.805C179.085 100.822 179.052 100.831 179.02 100.831ZM126.731 70.1544L179.02 100.427L206.41 84.505L154.121 54.2324L126.731 70.1544Z" fill="#373B42"/>
<path d="M169.119 62.375L169.119 75.5586L152.542 85.2565L152.543 72.0731L169.119 62.375Z" fill="#DBDEE4"/>
<path d="M152.542 85.4448C152.509 85.4448 152.477 85.4364 152.449 85.4199C152.39 85.3866 152.354 85.3244 152.354 85.2576L152.355 72.074C152.355 72.0074 152.39 71.946 152.448 71.9124L169.025 62.2145C169.083 62.1806 169.154 62.1806 169.212 62.2138C169.271 62.247 169.307 62.3092 169.307 62.376L169.306 75.5592C169.306 75.6258 169.271 75.6872 169.213 75.7208L152.636 85.419C152.607 85.4364 152.574 85.4448 152.542 85.4448ZM152.729 72.1815L152.729 84.9313L168.931 75.4521L168.932 62.7027L152.729 72.1815Z" fill="#373B42"/>
<path d="M152.544 72.0734L152.543 85.2568L135.804 75.6523L135.804 62.4688L152.544 72.0734Z" fill="#FFBE2E"/>
<path d="M145.849 68.2261L145.849 74.1136L144.181 71.3899L142.514 72.2L142.514 66.3125L145.849 68.2261Z" fill="#212121"/>
<path d="M152.543 85.4437C152.51 85.4437 152.478 85.4353 152.45 85.4188L135.711 75.8142C135.652 75.7809 135.616 75.7188 135.616 75.6518L135.617 62.4683C135.617 62.4014 135.653 62.3397 135.711 62.3064C135.768 62.2728 135.84 62.2731 135.897 62.3061L152.636 71.9107C152.695 71.944 152.731 72.0061 152.731 72.0729L152.73 85.2566C152.73 85.3235 152.694 85.3852 152.636 85.4185C152.608 85.4353 152.575 85.4437 152.543 85.4437ZM135.99 75.5434L152.355 84.9334L152.356 72.1815L135.991 62.7914L135.99 75.5434Z" fill="#373B42"/>
<path d="M169.123 62.372L152.543 72.0759L145.849 68.2277L142.497 66.3134L135.803 62.4652L152.383 52.771L159.077 56.6095L162.42 58.5239L169.123 62.372Z" fill="white"/>
<path d="M162.421 58.5238L145.85 68.2276L142.498 66.3133L159.078 56.6094L162.421 58.5238Z" fill="#212121"/>
<path d="M152.544 72.2634C152.512 72.2634 152.48 72.255 152.45 72.2385L135.71 62.628C135.652 62.5947 135.616 62.533 135.616 62.4664C135.616 62.3995 135.651 62.3378 135.709 62.3041L152.29 52.6095C152.348 52.5756 152.42 52.5756 152.477 52.6088L169.217 62.2101C169.275 62.2434 169.311 62.3048 169.311 62.3717C169.311 62.4382 169.276 62.5003 169.218 62.5339L152.638 72.2376C152.609 72.255 152.577 72.2634 152.544 72.2634ZM136.176 62.4643L152.543 71.8599L168.751 62.374L152.385 52.9875L136.176 62.4643Z" fill="#373B42"/>
<path d="M185.779 71.9795L185.779 85.1629L169.202 94.861L169.203 81.6776L185.779 71.9795Z" fill="#212121"/>
<path d="M169.202 95.0486C169.17 95.0486 169.137 95.0402 169.109 95.0238C169.05 94.9905 169.015 94.9283 169.015 94.8615L169.015 81.6783C169.015 81.6117 169.05 81.5503 169.108 81.5167L185.685 71.8185C185.743 71.7846 185.814 71.7846 185.872 71.8178C185.931 71.851 185.967 71.9132 185.967 71.98L185.966 85.1637C185.966 85.2302 185.931 85.2916 185.873 85.3252L169.296 95.0231C169.267 95.0401 169.235 95.0486 169.202 95.0486ZM169.39 81.7857L169.389 94.5351L185.592 85.0562L185.592 72.3063L169.39 81.7857Z" fill="#373B42"/>
<path d="M169.204 81.6779L169.203 94.8613L152.464 85.2567L152.465 72.0732L169.204 81.6779Z" fill="#FFBE2E"/>
<path d="M162.509 77.8316L162.509 83.719L160.841 80.9954L159.174 81.8053L159.174 75.918L162.509 77.8316Z" fill="#212121"/>
<path d="M169.203 95.0487C169.171 95.0487 169.138 95.0403 169.11 95.0239L152.371 85.4192C152.312 85.3859 152.276 85.3238 152.276 85.257L152.277 72.0738C152.277 72.0068 152.313 71.9451 152.371 71.9118C152.428 71.8782 152.5 71.8786 152.557 71.9115L169.296 81.5162C169.355 81.5494 169.391 81.6116 169.391 81.6785L169.39 94.8617C169.39 94.9286 169.354 94.9904 169.296 95.0236C169.268 95.0402 169.235 95.0487 169.203 95.0487ZM152.651 85.1484L169.016 94.5385L169.016 81.7869L152.651 72.3968L152.651 85.1484Z" fill="#373B42"/>
<path d="M185.784 71.9761L169.204 81.6799L162.51 77.8318L159.158 75.9174L152.464 72.0693L169.044 62.375L175.738 66.2135L179.081 68.128L185.784 71.9761Z" fill="white"/>
<path d="M179.08 68.1284L162.509 77.8322L159.157 75.9178L175.738 66.2139L179.08 68.1284Z" fill="#212121"/>
<path d="M169.204 81.8679C169.172 81.8679 169.14 81.8595 169.111 81.8431L152.37 72.2326C152.312 72.1993 152.276 72.1376 152.276 72.071C152.276 72.0041 152.311 71.9424 152.369 71.9087L168.95 62.2145C169.007 62.1806 169.079 62.1806 169.137 62.2138L185.877 71.8147C185.935 71.848 185.971 71.9094 185.971 71.9763C185.971 72.0429 185.936 72.1049 185.878 72.1386L169.298 81.8423C169.269 81.8595 169.237 81.8679 169.204 81.8679ZM152.836 72.0689L169.203 81.4644L185.411 71.9785L169.045 62.5925L152.836 72.0689Z" fill="#373B42"/>
<path d="M156.76 20.7526L156.636 64.5185C156.635 64.9139 156.375 65.3087 155.855 65.6107C154.809 66.2186 153.111 66.2186 152.059 65.6107C151.529 65.3048 151.264 64.9037 151.266 64.5032L151.39 20.7373C151.388 21.1378 151.653 21.5389 152.183 21.8448C153.235 22.4526 154.933 22.4527 155.979 21.8448C156.499 21.5427 156.759 21.1479 156.76 20.7526Z" fill="#FFBE2E"/>
<path d="M153.959 66.2505C153.238 66.2505 152.516 66.0915 151.965 65.7732C151.391 65.4424 151.077 64.991 151.078 64.5031L151.202 20.7383C151.202 20.738 151.202 20.7376 151.202 20.7372C151.203 20.6342 151.286 20.5508 151.39 20.5508H151.39C151.493 20.5511 151.577 20.6352 151.577 20.7382V20.7386C151.575 21.0865 151.824 21.422 152.276 21.6833C153.274 22.259 154.893 22.2605 155.885 21.6833C156.327 21.4264 156.571 21.0957 156.572 20.7521C156.573 20.649 156.657 20.5656 156.76 20.5656H156.76C156.863 20.5659 156.947 20.6501 156.947 20.7531V20.7534L156.823 64.5192C156.822 65.0009 156.511 65.4462 155.949 65.7729C155.401 66.0912 154.68 66.2505 153.959 66.2505ZM151.574 21.6086L151.452 64.5042C151.451 64.8525 151.699 65.1881 152.152 65.4494C153.15 66.0254 154.769 66.0261 155.76 65.4494C156.203 65.1925 156.447 64.8617 156.448 64.5189L156.57 21.6222C156.437 21.7629 156.27 21.8922 156.073 22.0074C154.977 22.6434 153.191 22.644 152.089 22.0074C151.883 21.8886 151.71 21.7544 151.574 21.6086Z" fill="#373B42"/>
<path d="M156.752 20.7502C156.755 19.8912 155.555 19.1915 154.072 19.1874C152.589 19.1832 151.386 19.8762 151.383 20.7352C151.381 21.5942 152.581 22.2939 154.063 22.298C155.546 22.3022 156.75 21.6092 156.752 20.7502Z" fill="#373B42"/>
<path d="M154.082 22.4843C153.362 22.4843 152.639 22.3253 152.089 22.007C151.518 21.6773 151.203 21.2278 151.202 20.7416C151.201 20.2585 151.512 19.8115 152.076 19.4836C153.17 18.8472 154.958 18.8461 156.06 19.4832C156.631 19.8129 156.946 20.2625 156.946 20.7486C156.947 21.2322 156.636 21.6788 156.073 22.007C155.525 22.325 154.804 22.4843 154.082 22.4843ZM154.065 19.375C153.413 19.375 152.76 19.519 152.264 19.8074C151.82 20.0651 151.576 20.3969 151.576 20.7409C151.577 21.0881 151.825 21.4229 152.276 21.6831C153.274 22.2587 154.892 22.2603 155.884 21.6831C156.328 21.4251 156.572 21.0935 156.572 20.7493C156.571 20.402 156.323 20.0676 155.872 19.807C155.373 19.519 154.719 19.375 154.065 19.375Z" fill="#373B42"/>
<path d="M206.783 60.6519L206.773 65.1703L179.01 81.309L179.02 76.7905L206.783 60.6519Z" fill="#212121"/>
<path d="M179.009 81.4971C178.977 81.4971 178.945 81.4887 178.916 81.4719C178.858 81.4386 178.822 81.3764 178.822 81.3096L178.833 76.7912C178.833 76.7247 178.868 76.6633 178.925 76.6297L206.688 60.491C206.747 60.4574 206.818 60.4574 206.876 60.491C206.934 60.5243 206.97 60.5865 206.97 60.6533L206.959 65.172C206.959 65.2386 206.924 65.2999 206.867 65.3336L179.104 81.4719C179.074 81.4888 179.041 81.4971 179.009 81.4971ZM179.207 76.8995L179.197 80.9844L206.585 65.0639L206.594 60.9787L179.207 76.8995Z" fill="#373B42"/>
<path d="M179.021 76.7912L179.01 81.3097L126.348 50.8207L126.358 46.3022L179.021 76.7912Z" fill="#212121"/>
<path d="M179.01 81.4962C178.978 81.4962 178.945 81.4878 178.917 81.471L126.254 50.9824C126.195 50.9488 126.16 50.887 126.16 50.8202L126.171 46.3015C126.171 46.2345 126.207 46.1728 126.265 46.1395C126.323 46.1066 126.395 46.1063 126.452 46.1399L179.114 76.6289C179.172 76.6625 179.207 76.7244 179.207 76.7912L179.197 81.3095C179.197 81.3764 179.161 81.4381 179.104 81.4714C179.074 81.4879 179.042 81.4962 179.01 81.4962ZM126.534 50.7127L178.824 80.985L178.833 76.8986L126.545 46.626L126.534 50.7127Z" fill="#373B42"/>
<path d="M206.783 60.652L179.02 76.7906L126.357 46.3017L154.12 30.1631L206.783 60.652Z" fill="#FFF7E4"/>
<path d="M179.02 76.9781C178.988 76.9781 178.955 76.9697 178.927 76.9529L126.264 46.4639C126.207 46.4306 126.171 46.3689 126.171 46.302C126.171 46.2354 126.206 46.1737 126.264 46.1401L154.026 30.0018C154.085 29.9682 154.157 29.9682 154.214 30.0018L206.876 60.4904C206.934 60.5237 206.97 60.5854 206.97 60.6523C206.97 60.7188 206.935 60.7806 206.877 60.8142L179.114 76.9528C179.085 76.9697 179.052 76.9781 179.02 76.9781ZM126.731 46.3017L179.02 76.5746L206.41 60.6526L154.121 30.38L126.731 46.3017Z" fill="#373B42"/>
<path d="M126.991 34.2755L126.867 78.0414C126.866 78.4368 126.606 78.8316 126.086 79.1336C125.041 79.7416 123.343 79.7416 122.29 79.1336C121.76 78.8277 121.496 78.4266 121.497 78.0262L121.621 34.2603C121.62 34.6607 121.885 35.0618 122.414 35.3677C123.467 35.9755 125.165 35.9756 126.211 35.3677C126.73 35.0657 126.99 34.6709 126.991 34.2755Z" fill="#FFBE2E"/>
<path d="M124.19 79.7725C123.47 79.7725 122.747 79.6134 122.196 79.2952C121.622 78.9644 121.308 78.513 121.31 78.025L121.434 34.2603C121.434 34.26 121.434 34.2595 121.434 34.2592C121.435 34.1561 121.518 34.0728 121.621 34.0728H121.622C121.725 34.0731 121.808 34.1572 121.808 34.2602V34.2605C121.807 34.6085 122.055 34.944 122.508 35.2053C123.506 35.7809 125.124 35.7825 126.116 35.2053C126.558 34.9487 126.802 34.618 126.804 34.2744C126.805 34.1713 126.888 34.0879 126.991 34.0879H126.992C127.095 34.0882 127.178 34.1724 127.178 34.2754V34.2757L127.054 78.0412C127.053 78.5229 126.742 78.968 126.18 79.2948C125.633 79.6131 124.912 79.7725 124.19 79.7725ZM121.806 35.1305L121.684 78.0261C121.682 78.3745 121.931 78.71 122.383 78.9713C123.382 79.5474 125 79.5481 125.992 78.9713C126.435 78.7144 126.679 78.3836 126.68 78.0407L126.802 35.144C126.669 35.2847 126.502 35.4145 126.304 35.5292C125.208 36.1656 123.421 36.1663 122.32 35.5292C122.114 35.4105 121.942 35.2763 121.806 35.1305Z" fill="#373B42"/>
<path d="M126.985 34.2727C126.987 33.4137 125.787 32.714 124.305 32.7098C122.822 32.7057 121.618 33.3987 121.616 34.2577C121.613 35.1166 122.813 35.8164 124.296 35.8205C125.778 35.8247 126.982 35.1317 126.985 34.2727Z" fill="#373B42"/>
<path d="M124.314 36.0068C123.593 36.0068 122.871 35.8478 122.32 35.5295C121.749 35.1998 121.434 34.7503 121.434 34.2641C121.433 33.781 121.744 33.334 122.307 33.0061C123.402 32.3701 125.189 32.3694 126.291 33.0061C126.862 33.3357 127.177 33.7849 127.178 34.2711C127.179 34.7547 126.868 35.2013 126.304 35.5295C125.756 35.8475 125.035 36.0068 124.314 36.0068ZM124.297 32.8975C123.644 32.8975 122.991 33.0415 122.496 33.3299C122.051 33.5875 121.807 33.9194 121.808 34.2634C121.808 34.6106 122.056 34.9454 122.508 35.2056C123.505 35.7812 125.124 35.7828 126.116 35.2056C126.559 34.9476 126.804 34.616 126.804 34.2718C126.803 33.9245 126.554 33.5901 126.104 33.3299C125.605 33.0419 124.95 32.8975 124.297 32.8975Z" fill="#373B42"/>
<path d="M210.836 53.2111L210.712 96.977C210.711 97.3724 210.451 97.7672 209.931 98.0692C208.886 98.6771 207.187 98.6771 206.135 98.0692C205.605 97.7633 205.341 97.3622 205.342 96.9617L205.466 53.1958C205.465 53.5962 205.729 53.9974 206.259 54.3033C207.311 54.9111 209.01 54.9112 210.055 54.3033C210.575 54.0012 210.835 53.6064 210.836 53.2111Z" fill="#FFBE2E"/>
<path d="M208.036 98.7083C207.315 98.7083 206.593 98.5493 206.042 98.231C205.468 97.9003 205.154 97.4488 205.155 96.9609L205.279 53.1951C205.279 53.0917 205.363 53.0083 205.466 53.0083C205.466 53.0083 205.466 53.0083 205.467 53.0083C205.57 53.0086 205.653 53.0924 205.653 53.1958C205.652 53.5441 205.901 53.8796 206.353 54.141C207.351 54.7177 208.97 54.7177 209.962 54.141C210.404 53.8841 210.648 53.5533 210.65 53.21C210.65 53.1069 210.734 53.0236 210.837 53.0236H210.838C210.941 53.0239 211.024 53.1081 211.024 53.2111V53.2115L210.9 96.9769C210.898 97.459 210.588 97.9042 210.026 98.2309C209.478 98.549 208.758 98.7083 208.036 98.7083ZM205.651 54.0653L205.53 96.962C205.528 97.3104 205.777 97.6459 206.229 97.9072C207.228 98.4833 208.846 98.484 209.837 97.9072C210.28 97.6503 210.524 97.3195 210.525 96.9759L210.647 54.0797C210.514 54.2204 210.348 54.3498 210.15 54.465C209.055 55.1017 207.268 55.1017 206.166 54.465C205.959 54.3461 205.787 54.2116 205.651 54.0653Z" fill="#373B42"/>
<path d="M210.826 53.2073C210.829 52.3483 209.629 51.6486 208.146 51.6444C206.664 51.6403 205.46 52.3332 205.457 53.1922C205.455 54.0512 206.655 54.7509 208.138 54.7551C209.62 54.7592 210.824 54.0662 210.826 53.2073Z" fill="#373B42"/>
<path d="M208.16 54.9419C207.438 54.9419 206.716 54.7828 206.165 54.4646C205.594 54.1349 205.279 53.6857 205.278 53.1995C205.278 52.7159 205.588 52.2694 206.152 51.9411C207.248 51.3051 209.034 51.3045 210.137 51.9411C210.707 52.2708 211.022 52.72 211.023 53.2062C211.024 53.6898 210.713 54.1363 210.15 54.4646C209.602 54.783 208.881 54.9419 208.16 54.9419ZM208.142 51.8325C207.489 51.8325 206.836 51.9765 206.34 52.2649C205.897 52.5229 205.653 52.8545 205.653 53.1988C205.653 53.546 205.902 53.8804 206.352 54.1407C207.351 54.7174 208.97 54.7174 209.961 54.1407C210.405 53.8826 210.649 53.5511 210.649 53.2068C210.648 52.8596 210.4 52.5251 209.949 52.2649C209.45 51.977 208.796 51.8325 208.142 51.8325Z" fill="#373B42"/>
<path d="M170.704 34.5425L170.704 54.396L154.127 62.4685L154.128 44.2405L170.704 34.5425Z" fill="#DBDEE4"/>
<path d="M154.127 62.6558C154.092 62.6558 154.058 62.6463 154.027 62.6273C153.972 62.5933 153.939 62.533 153.939 62.4687L153.94 44.2405C153.94 44.1739 153.975 44.1125 154.033 44.0789L170.61 34.381C170.668 34.3471 170.739 34.3471 170.797 34.3803C170.856 34.4135 170.891 34.4757 170.891 34.5425L170.891 54.3962C170.891 54.4678 170.85 54.5332 170.785 54.5643L154.208 62.6367C154.183 62.6496 154.154 62.6558 154.127 62.6558ZM154.314 44.348L154.314 62.1695L170.516 54.2794L170.517 34.8691L154.314 44.348Z" fill="#373B42"/>
<path d="M154.125 44.2403L154.124 62.4683L137.385 52.8638L137.385 34.6357L154.125 44.2403Z" fill="#FFBE2E"/>
<path d="M147.432 40.3941L147.432 46.2816L145.764 43.5579L144.097 44.368L144.097 38.4805L147.432 40.3941Z" fill="#212121"/>
<path d="M154.127 62.6558C154.094 62.6558 154.062 62.6474 154.034 62.6309L137.295 53.0262C137.236 52.993 137.2 52.9308 137.2 52.864L137.201 34.6358C137.201 34.5689 137.237 34.5071 137.295 34.4739C137.352 34.4402 137.424 34.4406 137.481 34.4735L154.22 44.0782C154.279 44.1115 154.315 44.1736 154.315 44.2404L154.314 62.4686C154.314 62.5356 154.278 62.5973 154.22 62.6305C154.192 62.6474 154.159 62.6558 154.127 62.6558ZM137.574 52.7555L153.939 62.1456L153.94 44.349L137.575 34.9589L137.574 52.7555Z" fill="#373B42"/>
<path d="M170.705 34.539L154.125 44.2429L147.431 40.3948L144.079 38.4804L137.385 34.6322L153.965 24.938L160.659 28.7765L164.001 30.6909L170.705 34.539Z" fill="#FFF7E4"/>
<path d="M164.004 30.6908L147.433 40.3947L144.081 38.4803L160.661 28.7764L164.004 30.6908Z" fill="#212121"/>
<path d="M154.127 44.4298C154.095 44.4298 154.063 44.4214 154.034 44.4049L137.294 34.7944C137.236 34.7611 137.2 34.6994 137.2 34.6328C137.2 34.5659 137.235 34.5042 137.293 34.4706L153.873 24.776C153.931 24.7421 154.002 24.7421 154.06 24.7753L170.8 34.3766C170.858 34.4099 170.894 34.4713 170.894 34.5382C170.894 34.6047 170.859 34.6668 170.801 34.7004L154.221 44.4041C154.192 44.4214 154.16 44.4298 154.127 44.4298ZM137.76 34.6307L154.127 44.0263L170.334 34.5404L153.968 25.1539L137.76 34.6307Z" fill="#373B42"/>
<path d="M187.442 44.1475L187.442 62.3755L170.865 72.0736L170.866 53.8456L187.442 44.1475Z" fill="#212121"/>
<path d="M170.865 72.2608C170.833 72.2608 170.801 72.2524 170.772 72.2359C170.714 72.2026 170.678 72.1405 170.678 72.0737L170.679 53.8454C170.679 53.7789 170.714 53.7175 170.771 53.6839L187.348 43.986C187.406 43.9521 187.478 43.9521 187.535 43.9852C187.594 44.0185 187.63 44.0807 187.63 44.1475L187.629 62.3754C187.629 62.442 187.594 62.5033 187.536 62.537L170.959 72.2352C170.93 72.2524 170.898 72.2608 170.865 72.2608ZM171.053 53.9529L171.052 71.7473L187.255 62.2681L187.256 44.474L171.053 53.9529Z" fill="#373B42"/>
<path d="M170.867 53.8459L170.866 72.0739L154.127 62.4692L154.128 44.2412L170.867 53.8459Z" fill="#FFBE2E"/>
<path d="M164.172 49.9991L164.172 55.8866L162.505 53.1629L160.837 53.9729L160.837 48.0854L164.172 49.9991Z" fill="#212121"/>
<path d="M170.866 72.2607C170.834 72.2607 170.802 72.2523 170.773 72.2359L154.034 62.6312C153.975 62.5979 153.939 62.5358 153.939 62.469L153.94 44.2407C153.94 44.1738 153.976 44.1121 154.034 44.0788C154.091 44.0452 154.163 44.0456 154.22 44.0785L170.959 53.6832C171.018 53.7164 171.054 53.7786 171.054 53.8454L171.053 72.0736C171.053 72.1405 171.017 72.2022 170.959 72.2355C170.931 72.2523 170.898 72.2607 170.866 72.2607ZM154.314 62.3605L170.679 71.7506L170.68 53.954L154.315 44.5639L154.314 62.3605Z" fill="#373B42"/>
<path d="M187.445 44.144L170.864 53.8479L164.17 49.9997L160.818 48.0853L154.124 44.2372L170.704 34.543L177.399 38.3814L180.741 40.2959L187.445 44.144Z" fill="#FFF7E4"/>
<path d="M180.743 40.2963L164.172 50.0001L160.82 48.0857L177.401 38.3818L180.743 40.2963Z" fill="#212121"/>
<path d="M170.864 54.0348C170.832 54.0348 170.8 54.0264 170.771 54.0099L154.03 44.3994C153.972 44.3661 153.937 44.3044 153.937 44.2378C153.937 44.1709 153.972 44.1092 154.029 44.0756L170.61 34.381C170.668 34.3471 170.739 34.3471 170.797 34.3803L187.537 43.9816C187.595 44.0149 187.631 44.0762 187.631 44.1432C187.631 44.2097 187.596 44.2718 187.538 44.3054L170.959 54.0091C170.929 54.0264 170.897 54.0348 170.864 54.0348ZM154.496 44.2357L170.864 53.6312L187.071 44.1454L170.705 34.7589L154.496 44.2357Z" fill="#373B42"/>
<path d="M181.758 67.5074L181.634 111.273C181.633 111.669 181.373 112.064 180.853 112.366C179.807 112.973 178.109 112.973 177.057 112.366C176.527 112.06 176.262 111.659 176.264 111.258L176.388 67.4922C176.387 67.8926 176.651 68.2937 177.181 68.5996C178.233 69.2074 179.932 69.2076 180.977 68.5996C181.497 68.2976 181.757 67.9028 181.758 67.5074Z" fill="#FFBE2E"/>
<path d="M178.959 113.004C178.238 113.004 177.516 112.845 176.965 112.527C176.391 112.196 176.077 111.745 176.078 111.257L176.202 67.4915C176.202 67.3881 176.286 67.3047 176.389 67.3047C176.389 67.3047 176.389 67.3047 176.39 67.3047C176.493 67.305 176.576 67.3887 176.576 67.4921C176.575 67.8405 176.824 68.176 177.276 68.4374C178.274 69.0134 179.893 69.0137 180.885 68.437C181.327 68.1801 181.571 67.8493 181.572 67.5061C181.573 67.403 181.657 67.3196 181.76 67.3196H181.76C181.863 67.32 181.947 67.404 181.947 67.5071V67.5074L181.822 111.273C181.822 111.755 181.511 112.2 180.949 112.527C180.401 112.845 179.68 113.004 178.959 113.004ZM176.574 68.3617L176.452 111.258C176.451 111.606 176.7 111.942 177.152 112.203C178.151 112.779 179.769 112.78 180.76 112.203C181.203 111.946 181.447 111.615 181.448 111.273L181.57 68.3755C181.437 68.5162 181.271 68.6456 181.073 68.7607C179.977 69.3974 178.189 69.3978 177.088 68.761C176.882 68.6424 176.71 68.5079 176.574 68.3617Z" fill="#373B42"/>
<path d="M181.749 67.5027C181.752 66.6437 180.552 65.944 179.069 65.9398C177.587 65.9357 176.383 66.6286 176.38 67.4876C176.378 68.3466 177.578 69.0463 179.06 69.0505C180.543 69.0546 181.747 68.3617 181.749 67.5027Z" fill="#373B42"/>
<path d="M179.081 69.2386C178.36 69.2386 177.638 69.0796 177.087 68.7613C176.516 68.4316 176.201 67.9821 176.2 67.4959C176.199 67.0127 176.51 66.5657 177.074 66.2375C178.17 65.6015 179.956 65.6008 181.058 66.2375C181.629 66.5672 181.944 67.0164 181.945 67.5029C181.946 67.9865 181.635 68.4331 181.072 68.761C180.523 69.0792 179.803 69.2386 179.081 69.2386ZM179.064 66.1289C178.411 66.1289 177.758 66.2729 177.262 66.5613C176.819 66.8193 176.574 67.1512 176.574 67.4956C176.575 67.8424 176.824 68.1773 177.274 68.4375C178.273 69.0135 179.892 69.0139 180.883 68.4371C181.327 68.1795 181.571 67.8476 181.571 67.5033C181.57 67.1561 181.322 66.8216 180.871 66.5614C180.372 66.2732 179.718 66.1289 179.064 66.1289Z" fill="#373B42"/>
<path d="M65.8162 21.1434C65.3154 20.8492 64.6161 20.889 63.845 21.3342L24.9872 43.7714C23.4612 44.6536 22.2212 46.7918 22.2212 48.5482L22.3007 76.8509C22.3087 77.7253 22.6107 78.3373 23.1114 78.6234L20.0768 76.8586C19.584 76.5726 19.274 75.9606 19.266 75.0861L19.1865 46.7834C19.1865 45.0266 20.4265 42.8887 21.9524 42.0064L60.8102 19.5691C61.5811 19.1242 62.2806 19.0844 62.7813 19.3786L65.8162 21.1434Z" fill="#212121"/>
<path d="M23.1119 78.8097C23.0804 78.8097 23.0483 78.8016 23.0191 78.7853C23.0124 78.7813 23.0051 78.7772 22.9986 78.7732L19.9833 77.0199C19.4094 76.6862 19.0878 75.9998 19.0797 75.0875L19 46.783C19 44.9709 20.283 42.7552 21.8596 41.8436L60.7175 19.4067C61.523 18.9403 62.2906 18.8726 62.8768 19.2162L65.8995 20.9743C65.9039 20.9768 65.9076 20.979 65.9119 20.9816C66.0004 21.0339 66.0303 21.1482 65.9784 21.237C65.9257 21.3262 65.8117 21.3555 65.7226 21.3046L65.7218 21.3038L65.7137 21.2991C65.251 21.0319 64.6201 21.1013 63.9388 21.4954L25.0812 43.9326C23.6075 44.7849 22.4087 46.8551 22.4087 48.5474L22.4885 76.8499C22.4958 77.6193 22.7442 78.1873 23.1895 78.4508L23.2063 78.4607C23.2955 78.5125 23.3255 78.6267 23.2743 78.7161C23.239 78.7761 23.1762 78.8097 23.1119 78.8097ZM62.0509 19.3749C61.7036 19.3749 61.3133 19.4945 60.9046 19.7306L22.0469 42.1675C20.5731 43.0195 19.3743 45.0897 19.3743 46.7827L19.4541 75.0852C19.4614 75.859 19.7157 76.4314 20.1719 76.696L22.3108 77.9401C22.1851 77.632 22.1179 77.2654 22.1142 76.852L22.0346 48.5476C22.0346 46.7358 23.3176 44.5206 24.8942 43.6086L63.7521 21.1717C64.1227 20.9575 64.4853 20.8274 64.8251 20.7827L62.6876 19.5397C62.5005 19.4298 62.2855 19.3749 62.0509 19.3749Z" fill="#373B42"/>
<path d="M63.8461 21.3341C65.3736 20.4522 66.6208 21.1572 66.6258 22.9123L66.7061 51.2162C66.7111 52.9713 65.4718 55.1119 63.9444 55.9938L62.6657 56.7321L62.6798 61.706L57.6623 59.6209L25.0836 78.4301C23.5562 79.3119 22.3089 78.6069 22.3039 76.8519L22.2236 48.548C22.2187 46.7928 23.4579 44.6522 24.9853 43.7704L63.8461 21.3341Z" fill="#FFF7E4"/>
<path d="M23.8397 78.9987C23.5422 78.9987 23.2666 78.9285 23.0216 78.7878C22.4405 78.4534 22.1189 77.7658 22.1159 76.8521L22.0361 48.5485C22.0311 46.7363 23.3117 44.5203 24.8915 43.6083L63.7523 21.172C64.5556 20.7085 65.3218 20.6391 65.9066 20.9761C66.4877 21.3106 66.8093 21.9981 66.8123 22.9118L66.8927 51.2158C66.8978 53.0279 65.6171 55.2439 64.0374 56.1555L62.8524 56.8397L62.8664 61.7057C62.8664 61.7682 62.8356 61.8267 62.783 61.8614C62.7318 61.8965 62.6639 61.9027 62.6076 61.879L57.6755 59.8293L25.1767 78.5919C24.7088 78.8623 24.2534 78.9987 23.8397 78.9987ZM63.9395 21.4959L25.0787 43.9321C23.6028 44.7844 22.4054 46.8547 22.4105 48.5477L22.4901 76.8514C22.4923 77.6258 22.7475 78.1982 23.208 78.4632C23.6758 78.7315 24.3067 78.6621 24.9895 78.268L57.5681 59.4591C57.6185 59.4299 57.6807 59.4266 57.7333 59.4481L62.4913 61.4255L62.4782 56.7325C62.4782 56.6656 62.514 56.6034 62.5717 56.5702L63.8503 55.8319C65.3262 54.9799 66.5236 52.9097 66.5185 51.2168L66.4381 22.9128C66.4359 22.1383 66.1807 21.5659 65.7202 21.3009C65.2523 21.031 64.6208 21.1027 63.9395 21.4959Z" fill="#373B42"/>
<path d="M32.8223 49.666L32.8619 63.5101C32.8698 64.7995 33.7794 65.3139 34.9028 64.673L54.0789 53.5977C55.2024 52.949 56.1121 51.3747 56.1041 50.0853L56.0646 36.249C56.0646 34.9674 55.1548 34.4453 54.0316 35.0939L34.8475 46.1692C33.724 46.818 32.8223 48.3844 32.8223 49.666Z" fill="#FFBE2E"/>
<path d="M49.4202 42.3346C49.6686 42.1912 49.9172 42.1564 50.1069 42.2645C50.4862 42.4807 50.4882 43.1875 50.1114 43.8488L42.685 56.7032C42.493 57.0359 42.2485 57.2878 41.9965 57.4333C41.7519 57.5746 41.4995 57.6094 41.3135 57.4951L38.822 56.0835C38.4426 55.8674 38.4406 55.1603 38.8175 54.499C39.0059 54.1726 39.2539 53.9207 39.5023 53.7772C39.7507 53.6338 39.9993 53.5991 40.1889 53.7071L41.9888 54.7331L48.7354 43.0563C48.9239 42.73 49.1719 42.4779 49.4202 42.3346Z" fill="#212121"/>
<path d="M204.531 207.947C204.499 207.947 204.466 207.939 204.437 207.922L167.509 186.277C167.42 186.224 167.39 186.11 167.441 186.02C167.493 185.932 167.61 185.902 167.697 185.954L204.625 207.598C204.714 207.651 204.744 207.765 204.693 207.855C204.658 207.914 204.595 207.947 204.531 207.947Z" fill="#DBDEE4"/>
<path d="M205.002 210.237C203.661 209.463 203.653 208.207 204.985 207.432C206.317 206.658 208.486 206.659 209.826 207.433C211.167 208.207 211.174 209.462 209.842 210.236C208.51 211.011 206.343 211.011 205.002 210.237Z" fill="white"/>
<path d="M207.425 211C206.515 211 205.604 210.799 204.909 210.398C204.198 209.988 203.806 209.43 203.805 208.829C203.804 208.232 204.19 207.678 204.892 207.27C206.275 206.467 208.531 206.467 209.921 207.27C210.632 207.68 211.023 208.237 211.025 208.838C211.026 209.436 210.639 209.989 209.937 210.398C209.246 210.799 208.336 211 207.425 211ZM207.404 207.037C206.561 207.037 205.719 207.222 205.08 207.594C204.499 207.932 204.179 208.37 204.179 208.828C204.18 209.291 204.506 209.733 205.096 210.074C206.384 210.817 208.472 210.817 209.748 210.074C210.33 209.736 210.651 209.297 210.651 208.839C210.65 208.377 210.324 207.935 209.734 207.594C209.09 207.222 208.246 207.037 207.404 207.037Z" fill="#DBDEE4"/>
<path d="M207.407 207.95C207.93 207.95 208.436 208.069 208.795 208.276C209.084 208.443 209.25 208.647 209.25 208.838C209.25 209.026 209.088 209.228 208.804 209.393C208.448 209.6 207.944 209.718 207.422 209.718C206.9 209.718 206.394 209.6 206.035 209.392C205.746 209.225 205.58 209.021 205.58 208.83C205.58 208.642 205.742 208.44 206.025 208.275C206.382 208.068 206.885 207.95 207.407 207.95Z" fill="#FFBE2E"/>
<path d="M195.602 201.232C196.163 201.232 196.707 201.36 197.093 201.583C197.403 201.762 197.58 201.981 197.581 202.186C197.581 202.387 197.407 202.605 197.102 202.782C196.719 203.004 196.178 203.132 195.618 203.132C195.057 203.132 194.514 203.004 194.128 202.781C193.818 202.602 193.64 202.382 193.64 202.178C193.639 201.976 193.814 201.759 194.118 201.582C194.5 201.359 195.041 201.232 195.602 201.232Z" fill="#373B42"/>
<path d="M67.8251 206.722C66.7418 206.722 65.6577 206.483 64.8309 206.006L30.8934 186.277C30.8043 186.225 30.7743 186.111 30.8262 186.021C30.8774 185.931 30.9914 185.901 31.082 185.953L65.0188 205.682C66.5678 206.576 69.0832 206.577 70.6234 205.682L91.0088 193.835C91.0987 193.783 91.2127 193.812 91.2646 193.903C91.3165 193.992 91.2865 194.107 91.1974 194.159L70.812 206.006C69.9896 206.483 68.9077 206.722 67.8251 206.722Z" fill="#DBDEE4"/>
<path d="M33.3162 184.807C34.657 185.581 34.6647 186.837 33.3326 187.611C32.0004 188.385 29.8323 188.385 28.4914 187.61C27.1506 186.836 27.1441 185.581 28.4762 184.807C29.8083 184.033 31.9754 184.032 33.3162 184.807Z" fill="white"/>
<path d="M30.916 188.374C30.0052 188.374 29.0936 188.174 28.3977 187.772C27.6872 187.362 27.2954 186.805 27.2939 186.204C27.2932 185.606 27.6799 185.053 28.3817 184.644C29.7655 183.841 32.0207 183.841 33.4102 184.644C34.1216 185.055 34.5133 185.612 34.514 186.213C34.5148 186.811 34.1289 187.364 33.4271 187.772C32.7362 188.174 31.8268 188.374 30.916 188.374ZM30.8933 184.411C30.0505 184.411 29.2092 184.597 28.5702 184.968C27.9882 185.306 27.6681 185.745 27.6681 186.203C27.6688 186.665 27.9949 187.107 28.5848 187.448C29.8728 188.192 31.9605 188.191 33.2383 187.449C33.8201 187.11 34.1404 186.672 34.1396 186.214C34.1388 185.752 33.8136 185.309 33.2229 184.968C32.5797 184.597 31.7361 184.411 30.8933 184.411Z" fill="#DBDEE4"/>
<path d="M30.9138 187.094C30.3911 187.094 29.8852 186.975 29.5258 186.767C29.2372 186.601 29.0715 186.396 29.0713 186.206C29.0711 186.018 29.2334 185.816 29.5169 185.651C29.8733 185.444 30.377 185.325 30.8991 185.325C31.4213 185.325 31.9268 185.444 32.286 185.651C32.5749 185.818 32.7407 186.023 32.741 186.214C32.7412 186.401 32.579 186.604 32.2958 186.768C31.9396 186.975 31.4359 187.094 30.9138 187.094Z" fill="#FFBE2E"/>
<path d="M42.7161 193.811C42.1547 193.811 41.6114 193.683 41.2254 193.46C40.9155 193.281 40.7376 193.061 40.7373 192.857C40.7371 192.655 40.9114 192.438 41.2158 192.261C41.5986 192.039 42.1397 191.911 42.7004 191.911C43.2613 191.911 43.8042 192.039 44.1898 192.262C44.5 192.441 44.6781 192.661 44.6784 192.865C44.6786 193.067 44.5044 193.284 44.2003 193.461C43.8178 193.683 43.2769 193.811 42.7161 193.811Z" fill="#373B42"/>
<path d="M88.8758 100.145L86.0688 98.513C83.4638 97.0009 79.3692 97.0009 76.7419 98.513L74.0921 100.04C74.444 100.833 74.6536 101.664 74.646 102.435V103.775L78.5011 101.552C80.0506 100.661 82.7678 100.661 84.3098 101.552L87.1168 103.184C87.6258 103.483 87.7904 103.76 87.7904 103.842C87.7904 103.932 87.6183 104.224 87.0944 104.524L48.8886 126.583C47.3391 127.482 44.6219 127.482 43.0799 126.583L40.2803 124.952C39.7638 124.66 39.5991 124.375 39.5991 124.293C39.5991 124.203 39.7713 123.911 40.2952 123.612L44.993 120.867C45.8328 120.377 46.113 119.296 45.6175 118.459C45.126 117.629 44.0564 117.352 43.2234 117.838L38.5437 120.573C36.9793 121.471 36.0885 122.826 36.0811 124.285C36.0811 125.745 36.9643 127.092 38.5138 127.991L41.3209 129.623C42.6233 130.379 44.3001 130.76 45.9769 130.76C47.6536 130.76 49.3378 130.379 50.6478 129.623L88.846 107.57C90.4104 106.665 91.3087 105.31 91.3087 103.85C91.3085 102.398 90.4251 101.043 88.8758 100.145Z" fill="#212121"/>
<path d="M76.7671 103.003V104.785C76.7671 105.107 76.6549 105.346 76.4603 105.451L47.0573 122.533C47.252 122.421 47.3643 122.196 47.3643 121.874V120.093C47.3643 119.292 47.1472 118.431 46.7655 117.615C46.2041 116.372 45.2684 115.242 44.2204 114.636L41.0988 112.832C39.714 112.031 38.4639 111.956 37.5508 112.48L66.9537 95.398C67.867 94.8665 69.1171 94.9415 70.5018 95.7424L73.6233 97.5464C74.7012 98.1602 75.6518 99.3353 76.2132 100.608C76.5651 101.401 76.7745 102.232 76.7671 103.003Z" fill="#FFBE2E"/>
<path d="M47.057 122.72C46.9927 122.72 46.9298 122.687 46.8948 122.627C46.8436 122.537 46.8736 122.423 46.9628 122.371L46.9664 122.369C47.1404 122.267 47.177 122.044 47.177 121.874V120.093C47.177 119.336 46.976 118.507 46.5952 117.694C46.0331 116.449 45.1105 115.367 44.1266 114.798L41.0052 112.994C39.7274 112.256 38.5337 112.131 37.6434 112.643C37.5535 112.694 37.4409 112.663 37.3882 112.574C37.337 112.485 37.367 112.37 37.4563 112.318L66.8594 95.2364C67.8704 94.6493 69.1964 94.7707 70.5956 95.5811L73.717 97.3848C74.7864 97.994 75.7836 99.171 76.3844 100.533C76.7645 101.391 76.9619 102.245 76.9538 103.005V104.785C76.9538 105.175 76.8062 105.478 76.5481 105.616L47.1516 122.695C47.1508 122.695 47.1508 122.695 47.1508 122.695C47.1214 122.712 47.0892 122.72 47.057 122.72ZM38.8589 111.958C39.5797 111.958 40.3743 112.197 41.1922 112.67L44.3136 114.474C45.3626 115.081 46.3428 116.227 46.9349 117.538C47.3377 118.397 47.5511 119.282 47.5511 120.093V121.875C47.5511 121.93 47.5483 121.983 47.5424 122.035L76.3651 105.29C76.5032 105.215 76.5793 105.033 76.5793 104.785V103.004C76.5793 103.003 76.5793 103.002 76.5793 103.002C76.5866 102.295 76.4009 101.494 76.042 100.685C75.4726 99.3929 74.5332 98.281 73.5303 97.7094L70.4082 95.9049C69.1305 95.1666 67.9374 95.0423 67.0478 95.5598L38.8217 111.958C38.834 111.958 38.8464 111.958 38.8589 111.958Z" fill="#373B42"/>
</g>
</svg>
