<svg width="240" height="240" viewBox="0 0 240 240" fill="none" xmlns="http://www.w3.org/2000/svg">
<mask id="mask0_4756_47640" style="mask-type:alpha" maskUnits="userSpaceOnUse" x="0" y="0" width="240" height="240">
<rect width="240" height="240" fill="#D9D9D9"/>
</mask>
<g mask="url(#mask0_4756_47640)">
<mask id="mask1_4756_47640" style="mask-type:alpha" maskUnits="userSpaceOnUse" x="5" y="0" width="230" height="230">
<rect x="5" width="230" height="230" fill="#D9D9D9"/>
</mask>
<g mask="url(#mask1_4756_47640)">
<path d="M184.827 143.973C184.764 143.973 184.704 143.94 184.67 143.881C184.62 143.791 184.648 143.677 184.735 143.625L216.432 124.434C216.891 124.16 217.142 123.806 217.142 123.438C217.141 123.066 216.885 122.709 216.421 122.432L202.639 114.223C202.553 114.171 202.523 114.057 202.573 113.968C202.623 113.877 202.736 113.848 202.821 113.899L216.602 122.109C217.183 122.455 217.504 122.927 217.505 123.437C217.505 123.944 217.19 124.413 216.615 124.758L184.919 143.948C184.89 143.965 184.858 143.973 184.827 143.973Z" fill="#DBDEE4"/>
<path d="M204.448 112.221C205.759 113.002 205.766 114.269 204.464 115.05C203.162 115.83 201.042 115.83 199.731 115.049C198.421 114.269 198.414 113.002 199.717 112.222C201.019 111.441 203.137 111.44 204.448 112.221Z" fill="white"/>
<path d="M202.102 115.819C201.212 115.819 200.321 115.616 199.642 115.211C198.947 114.797 198.564 114.236 198.563 113.631C198.563 113.029 198.94 112.471 199.626 112.059C200.977 111.25 203.181 111.249 204.539 112.059C205.234 112.472 205.617 113.034 205.618 113.64C205.619 114.242 205.241 114.8 204.556 115.211C203.88 115.616 202.992 115.819 202.102 115.819ZM202.08 111.821C201.256 111.821 200.433 112.008 199.809 112.383C199.239 112.725 198.925 113.168 198.926 113.63C198.927 114.096 199.245 114.543 199.823 114.887C201.082 115.637 203.124 115.638 204.373 114.887C204.942 114.546 205.256 114.103 205.255 113.641C205.255 113.174 204.935 112.727 204.358 112.383C203.728 112.008 202.903 111.821 202.08 111.821Z" fill="#DBDEE4"/>
<path d="M202.097 114.528C201.586 114.528 201.092 114.408 200.74 114.199C200.458 114.031 200.296 113.824 200.296 113.632C200.296 113.443 200.454 113.239 200.731 113.073C201.08 112.864 201.572 112.744 202.083 112.744C202.593 112.744 203.087 112.864 203.439 113.073C203.721 113.241 203.883 113.448 203.883 113.64C203.883 113.83 203.725 114.034 203.448 114.2C203.1 114.408 202.608 114.528 202.097 114.528Z" fill="#FFBE2E"/>
<path d="M206.055 132.012C205.506 132.012 204.975 131.883 204.597 131.658C204.294 131.477 204.12 131.256 204.12 131.05C204.12 130.846 204.29 130.627 204.588 130.449C204.962 130.224 205.491 130.096 206.039 130.096C206.587 130.096 207.118 130.224 207.495 130.449C207.798 130.63 207.972 130.852 207.973 131.058C207.973 131.262 207.802 131.481 207.505 131.659C207.131 131.883 206.603 132.012 206.055 132.012Z" fill="#383C43"/>
<path d="M81.384 130.052C81.3529 130.052 81.321 130.044 81.2927 130.027L68.8815 122.539C68.4397 122.274 68.165 121.782 68.165 121.254V71.2115C68.165 71.1081 68.2465 71.0244 68.3462 71.0244C68.4461 71.0244 68.5275 71.108 68.5275 71.2115V121.254C68.5275 121.649 68.7328 122.018 69.0642 122.216L81.4754 129.704C81.5618 129.756 81.5908 129.87 81.5405 129.959C81.5065 130.019 81.4463 130.052 81.384 130.052Z" fill="#DBDEE4"/>
<g opacity="0.1">
<path d="M214.2 179.499L152.825 215.829C150.195 217.393 145.938 217.393 143.329 215.822L73.162 173.673L52.4805 161.246C49.8714 159.675 49.8991 157.133 52.5291 155.569L113.904 119.233C116.541 117.669 120.79 117.684 123.393 119.247L131.552 124.153L214.241 173.823C216.85 175.394 216.837 177.928 214.2 179.499Z" fill="#010101"/>
</g>
<path d="M218.884 165.791C218.89 166.827 218.224 167.859 216.905 168.649L155.521 204.983C154.914 205.345 154.222 205.617 153.479 205.808C151.619 206.295 149.457 206.255 147.652 205.682C147.069 205.503 146.52 205.264 146.03 204.972L55.1881 150.405C53.8838 149.625 53.247 148.6 53.2402 147.583V153.927C53.247 154.944 53.8951 155.966 55.1953 156.753L146.044 211.324C146.527 211.613 147.065 211.855 147.648 212.034C149.453 212.606 151.603 212.65 153.475 212.16C154.214 211.976 154.921 211.693 155.528 211.331L216.905 174.994C218.231 174.207 218.89 173.171 218.898 172.144L218.884 165.791Z" fill="#212121"/>
<path d="M143.67 210.027C143.571 210.027 143.489 209.943 143.489 209.84V203.496C143.489 203.392 143.571 203.309 143.67 203.309C143.77 203.309 143.852 203.392 143.852 203.496V209.84C143.852 209.943 143.77 210.027 143.67 210.027Z" fill="#383C43"/>
<path d="M63.3746 161.794C63.2747 161.794 63.1934 161.711 63.1934 161.607V155.265C63.1934 155.162 63.2748 155.078 63.3746 155.078C63.4744 155.078 63.5559 155.162 63.5559 155.265V161.607C63.5559 161.71 63.4744 161.794 63.3746 161.794Z" fill="#383C43"/>
<path d="M153.514 205.771C151.653 206.257 149.491 206.217 147.686 205.645L147.682 211.996C149.487 212.568 151.637 212.612 153.509 212.122L153.514 205.771Z" fill="#FFBE2E"/>
<path d="M150.808 212.65C149.715 212.65 148.626 212.491 147.63 212.175C147.049 211.996 146.496 211.751 145.989 211.448L55.1394 156.877C53.8275 156.083 53.1018 155.022 53.0947 153.89V147.545C53.0947 147.442 53.1754 147.359 53.2753 147.358H53.2759C53.3758 147.358 53.4565 147.441 53.4572 147.544C53.4636 148.548 54.1235 149.493 55.3143 150.205L146.157 204.773C146.63 205.055 147.163 205.288 147.739 205.466C149.496 206.022 151.639 206.069 153.471 205.59C154.222 205.396 154.893 205.124 155.466 204.783L216.851 168.45C218.068 167.72 218.738 166.768 218.738 165.768V165.755C218.738 165.755 218.738 165.755 218.738 165.755V165.754C218.738 165.651 218.819 165.567 218.919 165.567H218.919C219.019 165.567 219.1 165.65 219.101 165.753C219.101 165.753 219.101 165.753 219.101 165.753L219.116 172.106C219.105 173.258 218.365 174.327 217.031 175.118L155.654 211.456C155.042 211.821 154.316 212.114 153.554 212.304C152.671 212.535 151.738 212.65 150.808 212.65ZM53.4572 148.899V153.889C53.4636 154.883 54.1255 155.83 55.3228 156.554L146.171 211.125C146.653 211.413 147.18 211.646 147.735 211.817C149.492 212.374 151.634 212.42 153.467 211.941C154.197 211.759 154.89 211.479 155.473 211.132L216.851 174.794C218.068 174.072 218.744 173.117 218.753 172.105L218.742 167.115C218.4 167.735 217.821 168.301 217.032 168.774L155.646 205.107C155.045 205.466 154.343 205.75 153.559 205.953C151.665 206.447 149.449 206.4 147.634 205.824C147.031 205.638 146.473 205.393 145.975 205.096L55.1322 150.529C54.3628 150.069 53.7949 149.512 53.4572 148.899Z" fill="#383C43"/>
<path d="M213.423 177.23C213.323 177.23 213.242 177.146 213.242 177.043L213.238 170.706C213.238 170.603 213.319 170.52 213.419 170.52C213.519 170.52 213.601 170.603 213.601 170.706L213.604 177.043C213.604 177.146 213.524 177.23 213.423 177.23Z" fill="#383C43"/>
<path d="M134.288 113.264L63.3732 155.268L55.2128 150.362C52.6063 148.79 52.6313 146.247 55.2627 144.683L116.635 108.349C119.275 106.785 123.521 106.794 126.128 108.358L134.288 113.264Z" fill="#FFBE2E"/>
<path d="M63.3724 155.455C63.3405 155.455 63.3093 155.447 63.281 155.43L55.1199 150.524C53.808 149.732 53.0873 148.67 53.0908 147.533C53.0944 146.386 53.8335 145.316 55.1709 144.521L116.544 108.187C119.224 106.599 123.563 106.604 126.218 108.196L134.379 113.102C134.435 113.136 134.469 113.197 134.469 113.264C134.469 113.331 134.434 113.393 134.377 113.426L63.4622 155.43C63.4347 155.447 63.4035 155.455 63.3724 155.455ZM121.38 107.367C119.697 107.367 118.011 107.749 116.723 108.511L55.3514 144.845C54.1308 145.571 53.4568 146.526 53.4532 147.534C53.4504 148.533 54.1067 149.479 55.3025 150.201L63.3729 155.052L133.925 113.262L126.035 108.519C124.756 107.752 123.069 107.367 121.38 107.367Z" fill="#383C43"/>
<path d="M134.288 113.267L216.971 162.932C219.586 164.505 219.569 167.044 216.933 168.609L155.557 204.945C152.928 206.506 148.673 206.504 146.059 204.932L63.375 155.266L134.288 113.267Z" fill="#FFF7E4"/>
<path d="M150.815 206.296C149.057 206.296 147.3 205.895 145.967 205.093L63.2833 155.427C63.2274 155.394 63.1934 155.332 63.1934 155.265C63.1934 155.199 63.228 155.137 63.2847 155.104L134.198 113.104C134.254 113.071 134.323 113.071 134.379 113.105L217.062 162.771C218.38 163.563 219.105 164.626 219.102 165.764C219.099 166.909 218.361 167.977 217.024 168.771L155.647 205.106C154.312 205.9 152.562 206.296 150.815 206.296ZM63.7364 155.267L146.15 204.77C148.709 206.309 152.888 206.314 155.466 204.782L216.843 168.447C218.063 167.722 218.737 166.768 218.739 165.762C218.742 164.764 218.082 163.816 216.879 163.093L134.287 113.482L63.7364 155.267Z" fill="#383C43"/>
<path d="M77.7785 136.78C76.8979 137.303 76.8922 138.143 77.7656 138.668C78.6317 139.189 80.0454 139.195 80.9259 138.672C81.8064 138.149 81.8046 137.305 80.9384 136.784C80.065 136.259 78.6588 136.257 77.7785 136.78Z" fill="#212121"/>
<path d="M71.1545 140.715C70.2815 141.234 70.2683 142.079 71.1418 142.604C72.0078 143.125 73.4291 143.126 74.302 142.608C75.1825 142.085 75.1807 141.24 74.3145 140.719C73.441 140.194 72.0348 140.192 71.1545 140.715Z" fill="#212121"/>
<path d="M64.5262 144.649C63.6513 145.168 63.6455 146.011 64.5211 146.537C65.3893 147.06 66.8065 147.066 67.6814 146.546C68.564 146.022 68.5621 145.175 67.694 144.653C66.8183 144.126 65.4089 144.125 64.5262 144.649Z" fill="#212121"/>
<path d="M88.915 103.93L133.396 130.6L177.97 104.29L133.695 77.2549L88.915 103.93Z" fill="#383C43"/>
<path d="M133.395 130.788C133.364 130.788 133.332 130.779 133.304 130.763L88.8234 104.092C88.7674 104.058 88.7334 103.997 88.7334 103.93C88.7334 103.863 88.768 103.802 88.824 103.768L133.603 77.0935C133.661 77.0595 133.73 77.0603 133.786 77.0942L178.062 104.13C178.118 104.164 178.152 104.225 178.151 104.292C178.15 104.359 178.116 104.42 178.06 104.453L133.485 130.763C133.458 130.779 133.426 130.788 133.395 130.788ZM89.2764 103.931L133.396 130.385L177.609 104.288L133.693 77.4719L89.2764 103.931Z" fill="#383C43"/>
<path d="M88.921 103.932L75.8037 91.0086L120.583 64.334L133.701 77.2579L88.921 103.932Z" fill="#FFF7E4"/>
<path d="M88.9211 104.12C88.8758 104.12 88.8305 104.103 88.7957 104.068L75.678 91.1441C75.6369 91.1036 75.6164 91.0452 75.6235 90.9867C75.6298 90.9283 75.663 90.8763 75.7126 90.8471L120.493 64.1727C120.562 64.1314 120.65 64.1412 120.709 64.1993L133.826 77.1234C133.867 77.1639 133.887 77.2224 133.88 77.2808C133.874 77.3392 133.841 77.3912 133.791 77.4204L89.0117 104.095C88.9834 104.112 88.9522 104.12 88.9211 104.12ZM76.1036 91.0462L88.948 103.701L133.4 77.2213L120.556 64.5663L76.1036 91.0462Z" fill="#383C43"/>
<path d="M177.973 104.291L190.928 91.5272L146.657 64.4756L133.702 77.2395L177.973 104.291Z" fill="#FFF7E4"/>
<path d="M177.972 104.478C177.941 104.478 177.909 104.47 177.88 104.452L133.609 77.4004C133.561 77.3704 133.528 77.3186 133.522 77.2605C133.515 77.2024 133.535 77.1444 133.576 77.1042L146.531 64.3404C146.59 64.2812 146.68 64.2718 146.748 64.3144L191.019 91.3659C191.068 91.3959 191.101 91.4477 191.107 91.5058C191.114 91.5639 191.094 91.6219 191.053 91.6621L178.098 104.426C178.063 104.461 178.018 104.478 177.972 104.478ZM134 77.2043L177.947 104.058L190.629 91.5621L146.682 64.7086L134 77.2043Z" fill="#383C43"/>
<path d="M133.699 77.2412L133.399 130.601L177.97 104.293L133.699 77.2412Z" fill="#FFBE2E"/>
<path d="M133.4 130.788C133.368 130.788 133.337 130.78 133.309 130.763C133.253 130.729 133.218 130.667 133.219 130.6L133.519 77.2405C133.52 77.1736 133.554 77.1119 133.611 77.0787C133.668 77.0458 133.737 77.047 133.792 77.0805L178.063 104.132C178.119 104.166 178.153 104.228 178.152 104.295C178.152 104.361 178.117 104.423 178.061 104.456L133.49 130.763C133.462 130.78 133.431 130.788 133.4 130.788ZM133.879 77.5684L133.583 130.277L177.611 104.29L133.879 77.5684Z" fill="#383C43"/>
<path d="M167.655 93.168L167.551 131.721L133.461 152.161L133.565 113.608L167.655 93.168Z" fill="#FFF7E4"/>
<path d="M133.461 152.349C133.43 152.349 133.399 152.341 133.371 152.324C133.315 152.291 133.28 152.228 133.28 152.162L133.384 113.609C133.384 113.542 133.419 113.481 133.474 113.447L167.564 93.0067C167.621 92.973 167.69 92.973 167.746 93.0067C167.802 93.0399 167.837 93.102 167.837 93.1689L167.733 131.722C167.733 131.788 167.698 131.85 167.643 131.883L133.553 152.324C133.525 152.341 133.493 152.349 133.461 152.349ZM133.747 113.717L133.643 151.837L167.37 131.614L167.474 93.4938L133.747 113.717Z" fill="#383C43"/>
<path d="M133.565 113.608L133.461 152.161L99.1436 131.718L99.2474 93.165L133.565 113.608Z" fill="#FFBE2E"/>
<path d="M133.461 152.348C133.43 152.348 133.399 152.34 133.371 152.323L99.0525 131.88C98.9966 131.847 98.9619 131.785 98.9619 131.718L99.066 93.1651C99.066 93.0983 99.1006 93.0366 99.1566 93.0032C99.2132 92.9704 99.2812 92.9701 99.3379 93.0036L133.656 113.446C133.712 113.479 133.746 113.542 133.746 113.608L133.642 152.161C133.642 152.228 133.608 152.29 133.552 152.323C133.523 152.34 133.492 152.348 133.461 152.348ZM99.3244 131.611L133.281 151.838L133.384 113.716L99.4278 93.4887L99.3244 131.611Z" fill="#383C43"/>
<path d="M167.656 93.1675L133.566 113.608L99.248 93.1651L133.338 72.7246L167.656 93.1675Z" fill="#FFF7E4"/>
<path d="M133.566 113.795C133.534 113.795 133.503 113.787 133.475 113.77L99.157 93.3275C99.1011 93.2943 99.0664 93.2326 99.0664 93.1661C99.0664 93.0993 99.1004 93.0375 99.1564 93.0039L133.246 72.5633C133.303 72.5297 133.372 72.5297 133.428 72.5633L167.746 93.006C167.802 93.0392 167.837 93.1009 167.837 93.1674C167.837 93.2343 167.803 93.296 167.747 93.3296L133.657 113.77C133.629 113.787 133.597 113.795 133.566 113.795ZM99.6095 93.1653L133.566 113.392L167.294 93.1683L133.338 72.9414L99.6095 93.1653Z" fill="#383C43"/>
<path d="M113.707 101.807L119.61 105.299L153.685 84.8379L147.782 81.3457L113.707 101.807Z" fill="#212121"/>
<path d="M119.61 105.486C119.579 105.486 119.548 105.477 119.52 105.461L113.617 101.968C113.56 101.935 113.525 101.874 113.525 101.807C113.525 101.74 113.559 101.678 113.615 101.644L147.69 81.1833C147.747 81.1497 147.816 81.1501 147.872 81.183L153.775 84.6754C153.832 84.7086 153.866 84.77 153.866 84.8369C153.866 84.9037 153.832 84.9657 153.776 84.9994L119.701 105.46C119.673 105.477 119.641 105.486 119.61 105.486ZM114.069 101.805L119.609 105.083L153.323 84.8386L147.782 81.561L114.069 101.805Z" fill="#383C43"/>
<path d="M153.332 101.652L147.429 105.144L113.354 84.6828L119.257 81.1904L153.332 101.652Z" fill="#212121"/>
<path d="M147.428 105.331C147.397 105.331 147.365 105.323 147.337 105.306L113.262 84.8451C113.206 84.8114 113.172 84.7494 113.172 84.6825C113.172 84.616 113.207 84.5543 113.263 84.5211L119.166 81.0286C119.221 80.9958 119.29 80.9954 119.347 81.029L153.423 101.49C153.479 101.524 153.513 101.586 153.513 101.653C153.513 101.72 153.478 101.781 153.421 101.814L147.518 105.306C147.491 105.323 147.46 105.331 147.428 105.331ZM113.716 84.6844L147.429 104.928L152.969 101.651L119.255 81.4068L113.716 84.6844Z" fill="#383C43"/>
<path d="M113.688 140.429L119.602 143.931L119.62 105.299L113.705 101.806L113.688 140.429Z" fill="#212121"/>
<path d="M119.602 144.119C119.571 144.119 119.539 144.11 119.512 144.094L113.597 140.591C113.541 140.558 113.506 140.496 113.506 140.429L113.524 101.806C113.524 101.739 113.558 101.678 113.614 101.644C113.669 101.611 113.74 101.611 113.795 101.644L119.709 105.137C119.766 105.17 119.801 105.233 119.801 105.299L119.783 143.932C119.783 143.999 119.748 144.061 119.692 144.094C119.665 144.11 119.633 144.119 119.602 144.119ZM113.868 140.321L119.42 143.609L119.438 105.408L113.886 102.129L113.868 140.321Z" fill="#383C43"/>
<path d="M153.523 140.225L147.609 143.727L147.591 105.095L153.505 101.602L153.523 140.225Z" fill="#212121"/>
<path d="M147.608 143.915C147.577 143.915 147.545 143.906 147.517 143.889C147.461 143.856 147.427 143.794 147.427 143.727L147.409 105.095C147.409 105.028 147.444 104.966 147.501 104.933L153.415 101.44C153.47 101.407 153.54 101.407 153.596 101.44C153.652 101.474 153.686 101.535 153.686 101.602L153.704 140.225C153.704 140.292 153.669 140.354 153.613 140.387L147.698 143.889C147.67 143.906 147.639 143.915 147.608 143.915ZM147.772 105.204L147.789 143.405L153.341 140.117L153.324 101.925L147.772 105.204Z" fill="#383C43"/>
<path d="M88.918 103.928L89.0033 156.066L133.484 182.736L133.399 130.598L88.918 103.928Z" fill="#FFBE2E"/>
<path d="M133.484 182.924C133.453 182.924 133.421 182.915 133.393 182.899L88.9123 156.228C88.8571 156.194 88.8223 156.133 88.8223 156.066L88.7373 103.928C88.7373 103.862 88.772 103.8 88.8279 103.766C88.8845 103.733 88.9532 103.733 89.0098 103.766L133.49 130.437C133.546 130.47 133.58 130.532 133.58 130.598L133.665 182.736C133.665 182.803 133.631 182.865 133.575 182.899C133.546 182.915 133.515 182.924 133.484 182.924ZM89.1849 155.958L133.302 182.411L133.218 130.706L89.1006 104.254L89.1849 155.958Z" fill="#383C43"/>
<path d="M133.399 130.598L133.484 182.737L178.055 156.186L177.971 104.291L133.399 130.598Z" fill="#212121"/>
<path d="M133.484 182.924C133.453 182.924 133.422 182.916 133.394 182.9C133.338 182.866 133.303 182.805 133.303 182.738L133.219 130.599C133.219 130.532 133.253 130.469 133.31 130.436L177.881 104.129C177.936 104.096 178.007 104.096 178.062 104.13C178.118 104.163 178.152 104.224 178.152 104.291L178.237 156.186C178.237 156.253 178.202 156.315 178.146 156.348L133.575 182.899C133.546 182.916 133.515 182.924 133.484 182.924ZM133.581 130.707L133.665 182.414L177.874 156.079L177.791 104.613L133.581 130.707Z" fill="#383C43"/>
<path d="M88.9252 103.931L79.5029 122.906L123.977 149.576L133.399 130.601L88.9252 103.931Z" fill="#FFF7E4"/>
<path d="M123.976 149.765C123.944 149.765 123.913 149.756 123.885 149.739L79.4112 123.069C79.3284 123.019 79.2973 122.91 79.3412 122.822L88.7632 103.846C88.7859 103.8 88.8263 103.767 88.8736 103.752C88.9217 103.737 88.9721 103.744 89.016 103.77L133.49 130.44C133.573 130.49 133.604 130.599 133.56 130.687L124.138 149.663C124.115 149.709 124.074 149.743 124.027 149.757C124.01 149.762 123.993 149.765 123.976 149.765ZM79.7426 122.834L123.902 149.317L133.159 130.675L88.999 104.192L79.7426 122.834Z" fill="#383C43"/>
<path d="M177.971 104.28L187.393 123.256L142.822 149.575L133.399 130.599L177.971 104.28Z" fill="#FFF7E4"/>
<path d="M142.823 149.763C142.806 149.763 142.788 149.761 142.771 149.755C142.724 149.741 142.684 149.707 142.661 149.661L133.239 130.686C133.195 130.597 133.226 130.488 133.31 130.438L177.881 104.119C177.924 104.094 177.975 104.088 178.023 104.102C178.07 104.117 178.11 104.151 178.133 104.196L187.555 123.172C187.599 123.261 187.568 123.369 187.484 123.419L142.913 149.738C142.885 149.755 142.854 149.763 142.823 149.763ZM133.64 130.674L142.898 149.316L187.154 123.183L177.896 104.541L133.64 130.674Z" fill="#383C43"/>
<path d="M93.9973 145.198C94.0663 145.239 94.1359 145.314 94.1885 145.41L96.0696 148.964C96.2203 149.248 96.1042 149.495 95.8808 149.362L95.0738 148.881L95.0536 155.497C95.0533 155.623 94.9666 155.674 94.8609 155.611L93.0789 154.549C92.9708 154.485 92.887 154.332 92.8873 154.207L92.9076 147.591L92.1006 147.11C91.8772 146.977 91.7628 146.592 91.9123 146.487L93.809 145.184C93.8597 145.149 93.9282 145.157 93.9973 145.198Z" fill="#383C43"/>
<path d="M94.9473 155.826C94.8892 155.826 94.8291 155.808 94.7711 155.774L92.9884 154.712C92.8234 154.613 92.7052 154.401 92.7066 154.206L92.7264 147.699L92.0106 147.273C91.7925 147.143 91.6715 146.872 91.6644 146.672C91.6594 146.523 91.7111 146.403 91.8109 146.333L93.7091 145.03C93.816 144.955 93.9541 144.958 94.0878 145.036C94.0886 145.036 94.0886 145.037 94.0892 145.037C94.1883 145.097 94.2804 145.197 94.3469 145.32L96.2288 148.875C96.3542 149.11 96.3477 149.361 96.2126 149.497C96.1283 149.581 95.974 149.634 95.7906 149.524L95.2546 149.205L95.2355 155.499C95.2347 155.627 95.1809 155.732 95.0875 155.787C95.045 155.813 94.9969 155.826 94.9473 155.826ZM93.8818 145.35L92.0133 146.644C92.0091 146.678 92.0693 146.876 92.1917 146.949L92.9982 147.43C93.0541 147.463 93.0888 147.525 93.0888 147.592L93.069 154.208C93.069 154.267 93.12 154.358 93.1702 154.389L94.873 155.403L94.8928 148.881C94.8928 148.815 94.9275 148.753 94.9834 148.72C95.04 148.687 95.108 148.687 95.1645 148.72L95.9554 149.191C95.9526 149.159 95.9412 149.112 95.9107 149.054L94.0296 145.501C93.9964 145.44 93.9503 145.387 93.9072 145.361C93.8903 145.351 93.8818 145.35 93.8818 145.35Z" fill="#383C43"/>
<path d="M99.5261 148.492C99.5949 148.533 99.6632 148.607 99.7135 148.702L101.597 152.257C101.748 152.541 101.629 152.787 101.406 152.654L100.599 152.173L100.579 158.789C100.578 158.915 100.494 158.967 100.386 158.903L98.6037 157.841C98.498 157.778 98.4118 157.624 98.4122 157.499L98.4324 150.882L97.6254 150.402C97.402 150.269 97.2877 149.884 97.4418 149.782L99.3362 148.478C99.3883 148.443 99.4574 148.451 99.5261 148.492Z" fill="#383C43"/>
<path d="M100.473 159.117C100.414 159.117 100.354 159.1 100.295 159.065L98.5127 158.003C98.352 157.908 98.2303 157.691 98.2303 157.499L98.2508 150.99L97.5344 150.564C97.3142 150.433 97.1938 150.161 97.1896 149.96C97.1861 149.814 97.2428 149.692 97.3439 149.624L99.2349 148.322C99.3475 148.247 99.4855 148.252 99.6166 148.331C99.7171 148.391 99.8078 148.491 99.8721 148.613L101.755 152.167C101.88 152.402 101.873 152.651 101.738 152.787C101.654 152.874 101.498 152.924 101.314 152.816L100.778 152.496L100.759 158.79C100.759 158.919 100.705 159.024 100.611 159.08C100.569 159.105 100.521 159.117 100.473 159.117ZM99.4085 148.643L97.5422 149.937C97.5351 149.973 97.5946 150.168 97.7156 150.24L98.5227 150.721C98.5787 150.754 98.6133 150.816 98.6133 150.883L98.5928 157.499C98.5928 157.557 98.6444 157.65 98.6933 157.679L100.397 158.693L100.416 152.172C100.416 152.106 100.451 152.044 100.507 152.011C100.564 151.978 100.632 151.978 100.688 152.011L101.481 152.483C101.479 152.452 101.468 152.405 101.437 152.347L99.5535 148.792C99.5217 148.731 99.477 148.68 99.4346 148.654C99.4346 148.654 99.434 148.654 99.434 148.654C99.4169 148.644 99.4085 148.643 99.4085 148.643Z" fill="#383C43"/>
<path d="M202.608 173.211C202.608 174.154 202.005 175.108 200.798 175.823L159.905 200.317C159.28 200.692 158.567 200.964 157.8 201.146C156.385 201.475 154.817 201.475 153.413 201.146C152.646 200.964 151.922 200.692 151.297 200.317L138.401 192.561C137.217 191.845 136.625 190.925 136.625 189.994L136.603 183.51C136.603 183.567 136.603 183.635 136.625 183.692C136.625 183.749 136.625 183.805 136.635 183.862C136.668 184.067 136.734 184.26 136.822 184.464C136.822 184.464 136.822 184.464 136.833 184.476C136.866 184.555 136.909 184.634 136.953 184.714C136.964 184.737 136.975 184.759 136.986 184.771C137.041 184.862 137.096 184.941 137.162 185.021C137.162 185.032 137.173 185.043 137.183 185.043C137.238 185.134 137.315 185.214 137.392 185.293C137.655 185.577 137.984 185.838 138.379 186.077L151.275 193.844C151.9 194.219 152.635 194.491 153.413 194.673C154.828 194.991 156.396 194.991 157.799 194.65C158.556 194.48 159.269 194.208 159.883 193.844L200.787 169.339C201.982 168.624 202.586 167.681 202.586 166.738L202.608 173.211Z" fill="#212121"/>
<path d="M158.833 194.93C158.242 194.93 157.653 194.865 157.093 194.733C156.452 194.582 155.881 194.358 155.399 194.069L145.417 188.066C144.467 187.491 143.943 186.722 143.943 185.901L143.926 180.906C143.926 180.898 143.926 180.889 143.926 180.882C143.926 180.768 144.015 180.675 144.126 180.675C144.237 180.675 144.326 180.767 144.326 180.881V180.9C144.326 180.919 144.327 180.939 144.33 180.947C144.335 180.966 144.344 181.003 144.344 181.023C144.344 181.053 144.342 181.083 144.348 181.113C144.369 181.241 144.405 181.363 144.469 181.513C144.477 181.524 144.484 181.537 144.488 181.547C144.512 181.602 144.542 181.657 144.572 181.712C144.629 181.808 144.666 181.862 144.709 181.914C144.723 181.927 144.736 181.942 144.746 181.96C144.775 182.009 144.825 182.06 144.876 182.113C145.073 182.325 145.315 182.517 145.602 182.69L155.583 188.702C156.029 188.969 156.566 189.177 157.182 189.321C158.264 189.564 159.439 189.558 160.487 189.304C161.06 189.175 161.598 188.967 162.046 188.701L193.705 169.734C194.539 169.235 194.998 168.584 194.998 167.9C194.998 167.786 195.087 167.693 195.198 167.693C195.309 167.693 195.399 167.785 195.399 167.899L195.416 172.909C195.416 172.91 195.416 172.91 195.416 172.91C195.416 173.744 194.869 174.546 193.915 175.111L162.264 194.07C161.778 194.36 161.211 194.584 160.578 194.734C160.014 194.865 159.423 194.93 158.833 194.93ZM144.33 182.085L144.344 185.9C144.344 186.57 144.797 187.211 145.619 187.709L155.601 193.712C156.048 193.98 156.58 194.188 157.182 194.33C158.245 194.58 159.419 194.58 160.489 194.33C161.082 194.19 161.612 193.982 162.062 193.711L193.714 174.753C194.541 174.263 195.015 173.591 195.015 172.911L195.002 169.11C194.75 169.475 194.381 169.808 193.906 170.092L162.247 189.059C161.755 189.35 161.193 189.568 160.575 189.706C159.474 189.973 158.236 189.98 157.095 189.724C156.438 189.571 155.862 189.347 155.382 189.059L145.4 183.047C145.081 182.854 144.809 182.638 144.592 182.405C144.535 182.345 144.47 182.278 144.419 182.199C144.415 182.194 144.411 182.189 144.407 182.184L144.406 182.185C144.38 182.153 144.355 182.119 144.33 182.085Z" fill="#383C43"/>
<path d="M157.802 194.649V201.145C156.388 201.474 154.82 201.474 153.416 201.145V194.672C154.831 194.99 156.399 194.99 157.802 194.649Z" fill="#FFBE2E"/>
<path d="M155.608 201.661C154.844 201.661 154.083 201.576 153.36 201.406C152.531 201.21 151.794 200.921 151.172 200.548L138.276 192.792C137.047 192.05 136.371 191.056 136.371 189.995L136.349 183.542C136.349 183.531 136.349 183.52 136.349 183.51C136.349 183.363 136.464 183.243 136.608 183.243C136.75 183.243 136.865 183.362 136.866 183.509V183.535C136.866 183.558 136.867 183.584 136.87 183.595C136.877 183.62 136.888 183.667 136.888 183.693C136.888 183.731 136.886 183.771 136.894 183.81C136.921 183.974 136.968 184.132 137.05 184.326C137.06 184.341 137.069 184.357 137.075 184.37C137.106 184.442 137.144 184.512 137.184 184.583C137.257 184.707 137.305 184.776 137.36 184.844C137.379 184.861 137.395 184.881 137.409 184.903C137.446 184.967 137.51 185.032 137.577 185.102C137.831 185.375 138.144 185.623 138.514 185.847L151.41 193.614C151.985 193.958 152.68 194.227 153.475 194.414C154.873 194.727 156.391 194.72 157.745 194.391C158.485 194.225 159.18 193.956 159.76 193.613L200.662 169.109C201.739 168.464 202.332 167.622 202.332 166.739C202.332 166.592 202.447 166.472 202.591 166.472C202.733 166.472 202.85 166.591 202.85 166.738L202.872 173.211C202.872 173.211 202.872 173.211 202.872 173.212C202.872 174.288 202.165 175.325 200.933 176.055L160.041 200.549C159.413 200.924 158.68 201.213 157.862 201.407C157.134 201.576 156.37 201.661 155.608 201.661ZM136.871 185.066L136.889 189.994C136.889 190.859 137.474 191.688 138.536 192.331L151.432 200.087C152.01 200.432 152.697 200.702 153.476 200.886C154.848 201.208 156.365 201.208 157.748 200.886C158.514 200.704 159.199 200.435 159.78 200.086L200.673 175.592C201.742 174.959 202.354 174.092 202.354 173.212L202.337 168.302C202.011 168.773 201.534 169.204 200.922 169.57L160.018 194.075C159.384 194.451 158.658 194.732 157.859 194.911C156.437 195.256 154.837 195.265 153.363 194.934C152.514 194.736 151.77 194.447 151.149 194.075L138.253 186.307C137.841 186.058 137.49 185.78 137.21 185.478C137.136 185.401 137.052 185.315 136.985 185.212C136.98 185.205 136.975 185.2 136.97 185.194L136.969 185.194C136.935 185.152 136.903 185.109 136.871 185.066Z" fill="#383C43"/>
<path d="M202.59 166.738C202.59 167.68 201.986 168.623 200.791 169.338L159.887 193.843C157.507 195.263 153.648 195.263 151.279 193.843L138.383 186.076C137.988 185.837 137.659 185.576 137.396 185.292C137.319 185.213 137.242 185.134 137.187 185.043C137.177 185.043 137.165 185.031 137.165 185.02C137.1 184.94 137.045 184.861 136.99 184.77C136.979 184.759 136.968 184.736 136.957 184.713C136.913 184.634 136.87 184.554 136.837 184.475C136.826 184.463 136.826 184.463 136.826 184.463C136.738 184.27 136.672 184.066 136.639 183.861C136.629 183.805 136.629 183.748 136.629 183.691C136.541 182.692 137.144 181.67 138.416 180.909L179.309 156.415C181.689 154.984 185.549 154.984 187.928 156.415L200.824 164.171C201.997 164.887 202.59 165.818 202.59 166.738Z" fill="#FFF7E4"/>
<path d="M155.577 195.17C153.972 195.17 152.368 194.804 151.147 194.073L138.251 186.305C137.839 186.056 137.488 185.778 137.208 185.476C137.134 185.399 137.05 185.312 136.984 185.21C136.978 185.203 136.973 185.198 136.968 185.191L136.967 185.192C136.894 185.103 136.832 185.012 136.769 184.91C136.765 184.903 136.729 184.839 136.725 184.831C136.688 184.766 136.648 184.691 136.613 184.614C136.604 184.601 136.596 184.587 136.59 184.576C136.488 184.351 136.418 184.125 136.383 183.903C136.371 183.838 136.369 183.764 136.369 183.69C136.27 182.572 136.967 181.465 138.286 180.677L179.178 156.183C181.627 154.711 185.611 154.711 188.058 156.184L200.954 163.94C202.175 164.685 202.848 165.678 202.848 166.736C202.848 167.818 202.163 168.824 200.921 169.568L160.016 194.073C158.791 194.804 157.183 195.17 155.577 195.17ZM137.359 184.842C137.377 184.858 137.393 184.878 137.407 184.901C137.444 184.964 137.508 185.03 137.575 185.1C137.829 185.372 138.142 185.621 138.512 185.844L151.408 193.612C153.703 194.988 157.448 194.988 159.757 193.611L200.66 169.106C201.737 168.462 202.33 167.62 202.33 166.736C202.33 165.874 201.749 165.045 200.692 164.4L187.797 156.645C185.492 155.26 181.743 155.26 179.439 156.645L138.546 181.139C137.409 181.819 136.804 182.74 136.886 183.666C136.887 183.729 136.885 183.769 136.893 183.808C136.92 183.98 136.971 184.15 137.046 184.321C137.057 184.337 137.067 184.353 137.074 184.368C137.104 184.439 137.142 184.51 137.182 184.581C137.255 184.705 137.303 184.774 137.359 184.842Z" fill="#383C43"/>
<path d="M39.0993 77.9429L36.6705 76.4867L36.6592 72.3779L39.088 73.8341L39.0993 77.9429Z" fill="#383C43"/>
<path d="M39.0995 78.1312C39.0683 78.1312 39.0364 78.1228 39.0081 78.106L36.5798 76.6498C36.5246 76.6162 36.4898 76.5549 36.4898 76.4884L36.4785 72.3798C36.4785 72.313 36.5132 72.2509 36.5691 72.2176C36.6257 72.184 36.6945 72.184 36.7511 72.2176L39.1802 73.6738C39.2354 73.7075 39.2702 73.7687 39.2702 73.8352L39.2808 77.9438C39.2808 78.0107 39.2462 78.0727 39.1902 78.106C39.1618 78.1228 39.1306 78.1312 39.0995 78.1312ZM36.8523 76.3802L38.9175 77.6187L38.9077 73.9433L36.8418 72.7048L36.8523 76.3802Z" fill="#383C43"/>
<path d="M70.6719 27.1203C70.2709 26.8773 69.711 26.9102 69.1001 27.2779L37.9833 45.8123C36.7552 46.5411 35.7688 48.3138 35.7752 49.7581L35.8389 73.1379C35.8389 73.8601 36.087 74.3657 36.4879 74.6087L34.0584 73.1507C33.6574 72.9078 33.4093 72.4024 33.4093 71.6801L33.3457 48.307C33.3394 46.8559 34.3321 45.0832 35.5538 44.3546L66.6706 25.8202C67.2814 25.4525 67.8415 25.4197 68.2424 25.6627L70.6719 27.1203Z" fill="#212121"/>
<path d="M36.4894 74.7961C36.4583 74.7961 36.4271 74.7881 36.3981 74.7709L33.9682 73.3133C33.4917 73.0244 33.2297 72.4447 33.2297 71.6806L33.166 48.3079C33.1597 46.7994 34.1905 44.9535 35.4642 44.1931L66.5813 25.6588C67.2228 25.2727 67.8628 25.2143 68.3357 25.5021L70.7585 26.9554C70.7599 26.9566 70.762 26.9577 70.7642 26.9591H70.7649C70.7649 26.9594 70.7649 26.9594 70.7649 26.9594C70.8513 27.0116 70.8804 27.126 70.83 27.2151C70.7784 27.3043 70.6686 27.3338 70.5822 27.2827V27.2824C70.5815 27.2821 70.5808 27.2816 70.5808 27.2816L70.5773 27.2797C70.2205 27.0668 69.7178 27.1242 69.1931 27.44L38.0754 45.9748C36.9015 46.6713 35.9514 48.3682 35.9578 49.758L36.0215 73.138C36.0215 73.7633 36.2197 74.2283 36.5801 74.4474H36.5809C36.5809 74.4477 36.5809 74.4477 36.5816 74.4481C36.6673 74.5004 36.6963 74.6146 36.6461 74.7034C36.612 74.7629 36.5517 74.7961 36.4894 74.7961ZM67.6612 25.6953C67.3879 25.6953 67.0792 25.7921 66.7635 25.9821L35.6455 44.5167C34.4724 45.2172 33.5223 46.9174 33.5287 48.3068L33.5923 71.6802C33.5923 72.3066 33.7905 72.7716 34.1516 72.9903L35.7857 73.9706C35.7022 73.728 35.659 73.4483 35.659 73.1382L35.5953 49.7589C35.5889 48.2497 36.6197 46.4066 37.8941 45.6506L69.0113 27.1169C69.2754 26.9577 69.5395 26.8542 69.7915 26.8079L68.1525 25.8251C68.0102 25.738 67.8431 25.6953 67.6612 25.6953Z" fill="#212121"/>
<path d="M69.0992 27.2772C70.3221 26.5488 71.3167 27.1384 71.3207 28.5882L71.3849 51.964C71.3889 53.4138 70.4008 55.1845 69.178 55.9129L43.0908 71.4528L39.1003 77.9454L39.089 73.8367L38.0611 74.4489C36.8382 75.1774 35.8436 74.5878 35.8396 73.1379L35.7754 49.7622C35.7714 48.3123 36.7595 46.5417 37.9824 45.8132L69.0992 27.2772Z" fill="#FFF7E4"/>
<path d="M39.0996 78.1313C39.0826 78.1313 39.0656 78.1288 39.0494 78.124C38.9722 78.101 38.9184 78.028 38.9184 77.9447L38.9085 74.1589L38.1517 74.6097C37.501 74.9972 36.8794 75.0542 36.4009 74.7704C35.9244 74.4873 35.6603 73.9074 35.6582 73.1378L35.5938 49.7619C35.5902 48.2516 36.6211 46.4071 37.8919 45.6507L69.0084 27.1146C69.659 26.7264 70.28 26.6694 70.7586 26.9539C71.2358 27.237 71.4998 27.8169 71.502 28.5865L71.5664 51.9628C71.57 53.473 70.5391 55.3171 69.2682 56.0736L43.2195 71.5905L39.2525 78.0443C39.2185 78.0995 39.1605 78.1313 39.0996 78.1313ZM39.089 73.6486C39.1201 73.6486 39.1513 73.657 39.1796 73.6735C39.2355 73.7067 39.2702 73.7684 39.2702 73.8353L39.2794 77.3029L42.9377 71.3517C42.9533 71.3261 42.9745 71.3049 43 71.29L69.0868 55.7499C70.2578 55.053 71.2072 53.3542 71.2037 51.9634L71.1392 28.5875C71.1371 27.9567 70.9381 27.4917 70.5778 27.278C70.2174 27.0625 69.7247 27.1195 69.1895 27.438L38.073 45.9741C36.902 46.6709 35.9526 48.3697 35.9561 49.761L36.0206 73.1366C36.0228 73.7674 36.2217 74.2323 36.5813 74.446C36.9445 74.6615 37.4372 74.6042 37.9704 74.2861L38.9984 73.6739C39.0267 73.657 39.0579 73.6486 39.089 73.6486Z" fill="#383C43"/>
<path d="M55.9778 45.8696C56.4816 45.5695 56.8893 45.8092 56.8909 46.4064C56.8925 47.0037 56.4876 47.7322 55.9838 48.0323L42.8438 55.8596C42.34 56.1597 41.9284 55.9177 41.9268 55.3204C41.9251 54.7231 42.3341 53.997 42.8379 53.6968L55.9778 45.8696Z" fill="#FFF7E4"/>
<path d="M48.252 56.1596C48.7558 55.8595 49.1635 56.0992 49.1651 56.6965C49.1667 57.2938 48.7618 58.0222 48.2581 58.3223L42.8438 61.5476C42.34 61.8477 41.9284 61.6056 41.9268 61.0084C41.9251 60.4111 42.3341 59.6849 42.8379 59.3849L48.252 56.1596Z" fill="#212121"/>
<path d="M42.434 61.8646C42.3151 61.8646 42.2038 61.8354 42.1041 61.7759C41.8733 61.6389 41.7459 61.3668 41.7451 61.0092C41.743 60.3433 42.1826 59.5588 42.747 59.2232L48.161 55.998C48.4647 55.8165 48.7592 55.7942 48.9879 55.9309C49.218 56.0671 49.3447 56.3392 49.3454 56.6964C49.3476 57.3644 48.9093 58.1501 48.3479 58.4847L42.9339 61.7098C42.7611 61.8127 42.5912 61.8646 42.434 61.8646ZM48.3423 56.3216L42.9283 59.5471C42.4815 59.813 42.1056 60.4821 42.1077 61.0081C42.1085 61.2236 42.1728 61.385 42.2855 61.4518C42.3994 61.5187 42.5694 61.4952 42.7528 61.3861L48.1668 58.161C48.6114 57.8962 48.9852 57.226 48.9831 56.6974C48.9824 56.482 48.9187 56.3209 48.8075 56.2548C48.6948 56.1888 48.5256 56.2121 48.3423 56.3216Z" fill="#383C43"/>
<path d="M88.5483 36.7475C88.1474 36.5045 87.5874 36.5374 86.9701 36.905L55.8598 55.4395C54.638 56.1682 53.6453 57.9344 53.6453 59.3853L53.709 82.7651C53.7153 83.4873 53.9571 83.9929 54.358 84.2291L51.9284 82.7714C51.5339 82.5351 51.2858 82.0296 51.2794 81.3073L51.2158 57.9276C51.2158 56.4765 52.2085 54.7104 53.4303 53.9815L84.5407 35.4471C85.158 35.0795 85.7179 35.0466 86.1188 35.2896L88.5483 36.7475Z" fill="#212121"/>
<path d="M54.3596 84.4145C54.3292 84.4145 54.298 84.4065 54.2697 84.3901C54.2647 84.3868 54.2598 84.3839 54.2541 84.3806L51.8384 82.9316C51.3683 82.6499 51.1063 82.0729 51.0992 81.3073L51.0361 57.9262C51.0361 56.4192 52.0698 54.5762 53.3407 53.818L84.4514 35.2836C85.1084 34.8924 85.7329 34.8362 86.2121 35.127L88.632 36.5792C88.6348 36.581 88.6377 36.5829 88.6413 36.5846C88.7269 36.6369 88.756 36.7512 88.7057 36.84C88.6541 36.9291 88.5443 36.9587 88.4579 36.9076L88.4502 36.9028C88.0891 36.6888 87.597 36.7473 87.0618 37.0653L55.9519 55.5997C54.7809 56.2981 53.8279 57.9956 53.8279 59.3835L53.8916 82.7632C53.8973 83.387 54.0913 83.8465 54.4388 84.0587L54.4509 84.0657C54.5373 84.1176 54.5663 84.2316 54.5167 84.3211C54.4828 84.3809 54.4219 84.4145 54.3596 84.4145ZM85.5348 35.3181C85.2629 35.3181 84.9557 35.4152 84.6328 35.6077L53.522 54.1417C52.351 54.8407 51.3987 56.5384 51.3987 57.926L51.4618 81.3053C51.4675 81.9324 51.6657 82.3956 52.0211 82.6081L53.6572 83.5899C53.5758 83.3503 53.5319 83.0735 53.5291 82.7656L53.4654 59.3841C53.4654 57.8767 54.4997 56.0341 55.7706 55.2762L86.8806 36.7418C87.1496 36.5815 87.413 36.4774 87.6636 36.4307L86.0289 35.4499C85.8838 35.3619 85.7174 35.3181 85.5348 35.3181Z" fill="#212121"/>
<path d="M86.9712 36.9047C88.194 36.1762 89.1926 36.7586 89.1966 38.2085L89.2609 61.5891C89.2648 63.039 88.2727 64.8071 87.0498 65.5356L86.026 66.1455L86.0373 70.2543L82.0201 68.5318L55.9372 84.0692C54.7143 84.7976 53.7157 84.2153 53.7117 82.7654L53.6475 59.3848C53.6435 57.9349 54.6357 56.1667 55.8585 55.4382L86.9712 36.9047Z" fill="#FFF7E4"/>
<path d="M54.9407 84.573C54.6978 84.573 54.4713 84.5135 54.2709 84.394C53.7951 84.1117 53.5324 83.5339 53.5303 82.7672L53.4658 59.3868C53.4616 57.8802 54.4938 56.0368 55.7676 55.2777L86.8804 36.7442C87.5332 36.3563 88.1584 36.2975 88.637 36.5828C89.1128 36.8651 89.3754 37.4429 89.3776 38.2096L89.442 61.59C89.4462 63.0966 88.414 64.9401 87.1403 65.6991L86.2072 66.2546L86.2185 70.2555C86.2185 70.318 86.1888 70.3764 86.1378 70.4111C86.0882 70.4458 86.0225 70.4516 85.9679 70.4286L82.0336 68.7416L56.0275 84.2326C55.648 84.4586 55.2784 84.573 54.9407 84.573ZM87.0618 37.0679L55.9489 55.6015C54.7757 56.3009 53.8241 57.9985 53.8284 59.3858L53.8929 82.7665C53.8943 83.394 54.0926 83.8571 54.4515 84.0701C54.814 84.2852 55.3096 84.2278 55.8463 83.909L81.9296 68.3716C81.9785 68.3424 82.0394 68.3387 82.0896 68.3606L85.8555 69.9753L85.8448 66.1472C85.8448 66.0804 85.8795 66.0184 85.9354 65.9851L86.9592 65.3755C88.1324 64.6761 89.084 62.9784 89.0797 61.5911L89.0152 38.2104C89.0138 37.5829 88.8155 37.1198 88.4566 36.9068C88.0927 36.6906 87.5971 36.7486 87.0618 37.0679Z" fill="#383C43"/>
<path d="M62.1338 60.3088L62.1655 71.7448C62.1719 72.8099 62.9002 73.2347 63.7995 72.7054L79.1523 63.5565C80.0518 63.0207 80.78 61.7202 80.7738 60.6551L80.742 49.2256C80.742 48.1669 80.0137 47.7357 79.1144 48.2715L63.7553 57.4203C62.8558 57.9562 62.1338 59.2501 62.1338 60.3088Z" fill="#FFBE2E"/>
<path d="M69.4821 66.2679C69.3808 66.2679 69.2782 66.246 69.1805 66.1996L65.7941 64.5959C65.4302 64.4235 65.2702 63.9797 65.4373 63.6043C65.6044 63.2285 66.0356 63.0641 66.3988 63.2365L69.1911 64.559L74.6257 55.0762C74.8296 54.7209 75.2757 54.6032 75.6183 54.8129C75.963 55.0233 76.0771 55.482 75.8732 55.8374L70.1066 65.9006C69.9727 66.135 69.732 66.2679 69.4821 66.2679Z" fill="#212121"/>
<g opacity="0.1">
<path d="M55.0671 216.785L74.8722 204.909L55.101 193.132L35.2959 205.007L55.0671 216.785Z" fill="#010101"/>
</g>
<path d="M53.1094 212.692L72.9145 200.817L72.979 177.372L53.1738 189.247L53.1094 212.692Z" fill="#212121"/>
<path d="M53.1089 212.88C53.0777 212.88 53.0466 212.871 53.0183 212.855C52.9624 212.821 52.9277 212.759 52.9277 212.692L52.9922 189.247C52.9922 189.181 53.0269 189.12 53.0821 189.086L72.8876 177.211C72.9442 177.177 73.013 177.177 73.0696 177.211C73.1255 177.244 73.1602 177.306 73.1602 177.373L73.0957 200.818C73.0957 200.884 73.0611 200.946 73.0058 200.979L53.2003 212.855C53.172 212.871 53.1401 212.88 53.1089 212.88ZM53.3546 189.356L53.2909 212.367L72.7331 200.71L72.7968 177.698L53.3546 189.356Z" fill="#383C43"/>
<path d="M53.1755 189.249L72.9806 177.374L53.2095 165.597L33.4043 177.472L53.1755 189.249Z" fill="#FFF7E4"/>
<path d="M53.1753 189.436C53.1442 189.436 53.113 189.428 53.0847 189.411L33.3133 177.633C33.2573 177.6 33.2227 177.538 33.2227 177.472C33.2227 177.405 33.2567 177.343 33.3126 177.31L53.1181 165.434C53.1747 165.401 53.2435 165.401 53.3 165.434L73.0715 177.212C73.1275 177.245 73.1621 177.307 73.1621 177.373C73.1621 177.44 73.1281 177.502 73.0722 177.536L53.2667 189.411C53.2383 189.428 53.2064 189.436 53.1753 189.436ZM33.7656 177.471L53.1753 189.033L72.6191 177.374L53.2093 165.813L33.7656 177.471Z" fill="#383C43"/>
<path d="M40.9561 181.974L45.562 184.716L65.3682 172.842L60.7622 170.1L40.9561 181.974Z" fill="#212121"/>
<path d="M45.5618 184.903C45.5307 184.903 45.4995 184.895 45.4712 184.878L40.865 182.136C40.8091 182.103 40.7744 182.041 40.7744 181.975C40.7744 181.908 40.8084 181.846 40.8644 181.812L60.6705 169.938C60.7271 169.905 60.7959 169.905 60.8524 169.938L65.4587 172.68C65.5147 172.713 65.5493 172.775 65.5493 172.842C65.5493 172.908 65.5153 172.97 65.4594 173.004L45.6531 184.878C45.6247 184.895 45.5929 184.903 45.5618 184.903ZM41.3174 181.973L45.5618 184.5L65.0062 172.843L60.7617 170.316L41.3174 181.973Z" fill="#383C43"/>
<path d="M33.3379 200.915L53.1119 212.693L53.1754 189.248L45.5622 184.714L40.9563 181.972L33.4014 177.471L33.3379 200.915Z" fill="#FFBE2E"/>
<path d="M53.1121 212.881C53.081 212.881 53.0498 212.873 53.0215 212.856L33.2478 201.079C33.1919 201.046 33.1572 200.983 33.1572 200.917L33.2209 177.472C33.2209 177.405 33.2557 177.343 33.3115 177.31C33.3681 177.277 33.4361 177.277 33.4928 177.31L53.2665 189.088C53.3224 189.121 53.3571 189.183 53.3571 189.25L53.2934 212.694C53.2934 212.761 53.2587 212.823 53.2028 212.856C53.1744 212.873 53.1433 212.881 53.1121 212.881ZM33.5197 200.809L52.9315 212.371L52.9946 189.357L33.5828 177.795L33.5197 200.809Z" fill="#383C43"/>
<path d="M40.9443 188.03L45.5503 190.778L45.5608 184.715L40.9549 181.973L40.9443 188.03Z" fill="#212121"/>
<path d="M45.553 190.966C45.5219 190.966 45.4907 190.958 45.4624 190.941L40.8562 188.194C40.8003 188.161 40.7656 188.098 40.7656 188.032L40.7763 181.974C40.7763 181.907 40.8109 181.845 40.8669 181.812C40.9235 181.779 40.9915 181.779 41.0481 181.812L45.6543 184.554C45.7103 184.588 45.7449 184.65 45.7449 184.717L45.7343 190.78C45.7343 190.846 45.6995 190.908 45.6437 190.941C45.6153 190.958 45.5841 190.966 45.553 190.966ZM41.128 187.924L45.3724 190.456L45.3823 184.824L41.1379 182.298L41.128 187.924Z" fill="#383C43"/>
<path d="M46.0269 198.756C46.0743 198.785 46.1222 198.836 46.1585 198.902L47.4527 201.347C47.5564 201.542 47.4764 201.713 47.3228 201.621L46.7676 201.29L46.7537 206.356C46.7535 206.442 46.6938 206.478 46.6211 206.434L45.3951 205.704C45.3207 205.66 45.263 205.555 45.2633 205.468L45.2771 200.402L44.7219 200.072C44.5683 199.98 44.4895 199.715 44.5924 199.643L45.8974 198.747C45.9322 198.722 45.9794 198.728 46.0269 198.756Z" fill="#383C43"/>
<path d="M49.8304 201.026C49.8777 201.054 49.9248 201.105 49.9593 201.17L51.2551 203.616C51.3588 203.811 51.2773 203.981 51.1236 203.889L50.5684 203.558L50.5545 208.624C50.5543 208.711 50.4963 208.747 50.4219 208.702L49.1958 207.972C49.123 207.929 49.0638 207.823 49.064 207.737L49.0779 202.67L48.5226 202.34C48.369 202.248 48.2902 201.984 48.3963 201.913L49.6997 201.016C49.7355 200.992 49.7831 200.998 49.8304 201.026Z" fill="#383C43"/>
<g opacity="0.1">
<path d="M42.4391 155.372L67.3476 140.436L42.4817 125.624L17.5732 140.559L42.4391 155.372Z" fill="#010101"/>
</g>
<path d="M39.9766 150.228L64.8851 135.293L64.9662 105.807L40.0576 120.742L39.9766 150.228Z" fill="#212121"/>
<path d="M39.9759 150.462C39.9367 150.462 39.8976 150.452 39.862 150.431C39.7916 150.389 39.748 150.311 39.748 150.227L39.8291 120.74C39.8291 120.657 39.8728 120.58 39.9422 120.537L64.8512 105.602C64.9224 105.56 65.0089 105.56 65.0801 105.602C65.1504 105.644 65.194 105.722 65.194 105.806L65.1129 135.292C65.1129 135.376 65.0694 135.453 64.9998 135.495L40.0908 150.431C40.0552 150.452 40.0152 150.462 39.9759 150.462ZM40.2849 120.876L40.2048 149.818L64.6569 135.156L64.737 106.215L40.2849 120.876Z" fill="#383C43"/>
<path d="M40.0602 120.743L64.9687 105.807L40.1029 90.9951L15.1943 105.93L40.0602 120.743Z" fill="#FFF7E4"/>
<path d="M40.0599 120.976C40.0208 120.976 39.9816 120.965 39.946 120.944L15.0798 106.132C15.0094 106.09 14.9658 106.012 14.9658 105.929C14.9658 105.845 15.0086 105.767 15.079 105.725L39.9879 90.7895C40.0591 90.7472 40.1456 90.7472 40.2168 90.7895L65.083 105.602C65.1534 105.644 65.1969 105.721 65.1969 105.805C65.1969 105.889 65.1542 105.967 65.0838 106.009L40.1748 120.944C40.1391 120.965 40.099 120.976 40.0599 120.976ZM15.6487 105.928L40.0599 120.469L64.514 105.806L40.1027 91.2651L15.6487 105.928Z" fill="#383C43"/>
<path d="M24.6924 111.591L30.4852 115.04L55.3951 100.106L49.6022 96.6572L24.6924 111.591Z" fill="#212121"/>
<path d="M30.4848 115.275C30.4457 115.275 30.4065 115.264 30.3709 115.243L24.5778 111.794C24.5074 111.753 24.4639 111.675 24.4639 111.591C24.4639 111.507 24.5066 111.43 24.577 111.387L49.4868 96.4536C49.558 96.4113 49.6444 96.4113 49.7156 96.4536L55.5089 99.902C55.5792 99.9438 55.6228 100.021 55.6228 100.105C55.6228 100.189 55.58 100.267 55.5097 100.309L30.5997 115.243C30.564 115.264 30.524 115.275 30.4848 115.275ZM25.1467 111.59L30.4848 114.768L54.9397 100.106L49.6015 96.929L25.1467 111.59Z" fill="#383C43"/>
<path d="M15.1113 135.416L39.9807 150.228L40.0606 120.741L30.4856 115.039L24.6928 111.591L15.1912 105.93L15.1113 135.416Z" fill="#FFBE2E"/>
<path d="M39.9806 150.465C39.9415 150.465 39.9023 150.454 39.8667 150.433L14.9977 135.621C14.9274 135.579 14.8838 135.501 14.8838 135.417L14.9639 105.931C14.9639 105.847 15.0076 105.769 15.0778 105.727C15.149 105.686 15.2346 105.686 15.3059 105.728L40.1748 120.54C40.2452 120.582 40.2887 120.66 40.2887 120.744L40.2086 150.23C40.2086 150.314 40.1651 150.391 40.0947 150.433C40.059 150.454 40.0198 150.465 39.9806 150.465ZM15.3397 135.282L39.7535 149.823L39.8328 120.879L15.419 106.338L15.3397 135.282Z" fill="#383C43"/>
<path d="M24.6768 119.209L30.4696 122.664L30.4828 115.039L24.69 111.59L24.6768 119.209Z" fill="#212121"/>
<path d="M30.4731 122.902C30.434 122.902 30.3948 122.891 30.3592 122.87L24.5661 119.415C24.4957 119.373 24.4521 119.295 24.4521 119.211L24.4655 111.592C24.4655 111.508 24.5091 111.431 24.5795 111.389C24.6507 111.347 24.7362 111.347 24.8074 111.389L30.6006 114.838C30.671 114.88 30.7145 114.958 30.7145 115.042L30.7011 122.667C30.7011 122.751 30.6574 122.828 30.5872 122.871C30.5515 122.891 30.5122 122.902 30.4731 122.902ZM24.9079 119.076L30.2461 122.26L30.2585 115.177L24.9204 111.999L24.9079 119.076Z" fill="#383C43"/>
<path d="M31.0696 132.7C31.1293 132.736 31.1895 132.8 31.2351 132.884L32.8628 135.959C32.9933 136.204 32.8927 136.418 32.6995 136.303L32.0012 135.887L31.9837 142.259C31.9835 142.367 31.9084 142.411 31.817 142.357L30.275 141.438C30.1815 141.382 30.109 141.25 30.1092 141.142L30.1267 134.77L29.4284 134.354C29.2352 134.239 29.1361 133.906 29.2655 133.816L30.9068 132.688C30.9505 132.658 31.01 132.665 31.0696 132.7Z" fill="#383C43"/>
<path d="M35.8531 135.55C35.9126 135.586 35.9718 135.649 36.0152 135.732L37.6449 138.808C37.7754 139.053 37.6728 139.266 37.4796 139.151L36.7813 138.735L36.7638 145.106C36.7635 145.215 36.6906 145.26 36.597 145.205L35.0549 144.286C34.9635 144.232 34.8889 144.098 34.8892 143.99L34.9066 137.618L34.2084 137.202C34.0151 137.087 33.9161 136.754 34.0495 136.666L35.6887 135.537C35.7337 135.507 35.7935 135.515 35.8531 135.55Z" fill="#383C43"/>
<path d="M194.721 210.445C193.781 210.445 192.84 210.231 192.122 209.804L177.783 201.163C177.697 201.111 177.668 200.996 177.718 200.907C177.768 200.818 177.88 200.786 177.966 200.84L192.304 209.48C193.639 210.275 195.804 210.276 197.129 209.48L214.753 198.91C214.84 198.858 214.95 198.888 215 198.978C215.051 199.067 215.022 199.182 214.935 199.234L197.312 209.804C196.599 210.231 195.66 210.445 194.721 210.445Z" fill="#DBDEE4"/>
<path d="M213.22 197.314C211.91 198.095 211.902 199.361 213.204 200.142C214.506 200.923 216.625 200.923 217.935 200.142C219.245 199.361 219.252 198.095 217.95 197.314C216.648 196.533 214.53 196.533 213.22 197.314Z" fill="white"/>
<path d="M215.565 200.911C214.675 200.911 213.788 200.709 213.112 200.304C212.427 199.893 212.05 199.335 212.051 198.733C212.052 198.128 212.434 197.566 213.129 197.152C214.487 196.343 216.69 196.342 218.04 197.152C218.726 197.564 219.103 198.122 219.102 198.724C219.102 199.329 218.719 199.89 218.025 200.304C217.345 200.709 216.455 200.911 215.565 200.911ZM215.587 196.914C214.764 196.914 213.939 197.101 213.31 197.476C212.733 197.82 212.414 198.267 212.413 198.734C212.413 199.197 212.726 199.639 213.295 199.98C214.544 200.73 216.585 200.73 217.844 199.98C218.421 199.636 218.739 199.189 218.74 198.723C218.741 198.261 218.428 197.818 217.858 197.476C217.233 197.101 216.411 196.914 215.587 196.914Z" fill="#DBDEE4"/>
<path d="M215.568 199.62C216.079 199.62 216.573 199.5 216.924 199.291C217.206 199.123 217.368 198.916 217.368 198.724C217.369 198.535 217.21 198.331 216.933 198.165C216.585 197.956 216.092 197.836 215.582 197.836C215.072 197.836 214.578 197.956 214.227 198.165C213.944 198.333 213.783 198.54 213.782 198.732C213.782 198.922 213.941 199.125 214.217 199.291C214.565 199.5 215.058 199.62 215.568 199.62Z" fill="#FFBE2E"/>
<path d="M187.981 207.733C188.53 207.733 189.061 207.604 189.438 207.38C189.741 207.199 189.915 206.977 189.915 206.771C189.915 206.568 189.745 206.349 189.447 206.17C189.073 205.946 188.544 205.817 187.996 205.817C187.448 205.817 186.918 205.946 186.541 206.171C186.238 206.351 186.064 206.573 186.063 206.78C186.063 206.983 186.233 207.202 186.531 207.38C186.904 207.605 187.433 207.733 187.981 207.733Z" fill="#383C43"/>
<path d="M112.048 215.67C112.017 215.67 111.986 215.662 111.957 215.644L98.1762 207.435C97.5949 207.089 97.2742 206.617 97.2734 206.107C97.2727 205.6 97.5885 205.131 98.1627 204.787L111.854 196.577C111.94 196.525 112.052 196.555 112.102 196.645C112.152 196.734 112.123 196.849 112.037 196.901L98.3454 205.11C97.8874 205.384 97.636 205.738 97.636 206.107C97.6368 206.478 97.8931 206.835 98.3575 207.112L112.139 215.321C112.225 215.372 112.255 215.487 112.205 215.576C112.171 215.636 112.11 215.67 112.048 215.67Z" fill="#DBDEE4"/>
<path d="M70.2667 212.322C69.5296 212.322 68.7912 212.155 68.2277 211.819L65.7497 210.343C65.6633 210.291 65.6336 210.177 65.6831 210.088C65.7334 209.997 65.8453 209.967 65.9309 210.019L68.4089 211.495C69.4362 212.106 71.1 212.106 72.1174 211.495L104.662 192.485C104.749 192.435 104.86 192.465 104.91 192.556C104.958 192.646 104.928 192.76 104.841 192.811L72.2979 211.82C71.7393 212.155 71.0037 212.322 70.2667 212.322Z" fill="#DBDEE4"/>
<path d="M108.989 216.202C107.678 215.421 107.671 214.154 108.973 213.374C110.275 212.593 112.395 212.593 113.705 213.374C115.016 214.155 115.023 215.421 113.72 216.202C112.418 216.982 110.299 216.983 108.989 216.202Z" fill="white"/>
<path d="M111.357 216.971C110.468 216.971 109.577 216.768 108.898 216.364C108.204 215.95 107.821 215.389 107.819 214.783C107.819 214.181 108.196 213.623 108.881 213.212C110.232 212.402 112.436 212.402 113.796 213.212C114.49 213.625 114.873 214.187 114.874 214.792C114.875 215.394 114.498 215.952 113.812 216.363C113.136 216.768 112.247 216.97 111.357 216.971ZM111.335 212.973C110.511 212.973 109.688 213.16 109.064 213.535C108.495 213.876 108.181 214.319 108.182 214.782C108.182 215.249 108.502 215.696 109.08 216.04C110.339 216.789 112.379 216.79 113.629 216.04C114.199 215.698 114.512 215.256 114.511 214.793C114.511 214.326 114.192 213.88 113.614 213.536C112.985 213.16 112.159 212.973 111.335 212.973Z" fill="#DBDEE4"/>
<path d="M111.338 213.895C111.849 213.895 112.343 214.015 112.695 214.224C112.977 214.392 113.139 214.598 113.139 214.79C113.139 214.98 112.981 215.184 112.704 215.35C112.355 215.559 111.863 215.678 111.352 215.678C110.842 215.678 110.348 215.558 109.996 215.349C109.714 215.181 109.552 214.975 109.552 214.782C109.552 214.593 109.71 214.389 109.987 214.223C110.335 214.014 110.828 213.895 111.338 213.895Z" fill="#FFBE2E"/>
<path d="M103.223 200.722C103.772 200.722 104.303 200.851 104.68 201.075C104.983 201.256 105.157 201.478 105.157 201.684C105.157 201.887 104.987 202.106 104.69 202.285C104.315 202.509 103.786 202.638 103.238 202.638C102.69 202.638 102.159 202.509 101.782 202.284C101.479 202.104 101.305 201.882 101.305 201.675C101.304 201.472 101.475 201.253 101.772 201.074C102.146 200.85 102.675 200.722 103.223 200.722Z" fill="#383C43"/>
<path d="M85.9621 202.394C86.511 202.394 87.042 202.522 87.4193 202.747C87.7223 202.928 87.8962 203.149 87.8965 203.356C87.8967 203.559 87.7263 203.778 87.4288 203.957C87.0547 204.181 86.5257 204.31 85.9776 204.31C85.4293 204.31 84.8986 204.181 84.5216 203.956C84.2184 203.776 84.0443 203.554 84.0439 203.347C84.0437 203.144 84.2141 202.925 84.5114 202.746C84.8853 202.522 85.414 202.394 85.9621 202.394Z" fill="#383C43"/>
<path d="M149.523 185.719L148.767 185.299L151.23 183.99C151.788 183.693 152.077 183.389 152.096 183.079C152.107 182.764 151.876 182.476 151.405 182.214C150.949 181.962 150.431 181.835 149.851 181.835C149.263 181.83 148.69 181.975 148.131 182.272L145.669 183.582L144.888 183.149L147.351 181.84C147.901 181.547 148.474 181.352 149.072 181.256C149.661 181.154 150.233 181.146 150.788 181.231C151.351 181.311 151.856 181.475 152.304 181.723C152.767 181.98 153.067 182.262 153.203 182.569C153.348 182.872 153.321 183.183 153.122 183.5C152.915 183.814 152.536 184.117 151.986 184.409L149.523 185.719ZM152.701 188.109L144.309 183.457L145.208 182.979L153.6 187.631L152.701 188.109ZM157.824 185.385L150.768 184.924L151.362 184.304L158.982 184.769L157.824 185.385ZM160.326 184.055L151.933 179.403L152.832 178.925L161.225 183.577L160.326 184.055ZM160.917 183.741L160.1 183.288L165.087 180.636L165.904 181.089L160.917 183.741ZM157.013 181.577L156.221 181.137L160.814 178.695L161.607 179.135L157.013 181.577ZM153.342 179.542L152.524 179.089L157.438 176.476L158.255 176.929L153.342 179.542ZM169.823 179.138C169.166 179.487 168.477 179.721 167.757 179.839C167.029 179.952 166.261 179.981 165.452 179.925L165.47 179.253C166.156 179.321 166.785 179.309 167.358 179.216C167.939 179.119 168.492 178.931 169.018 178.652C169.56 178.364 169.877 178.062 169.97 177.748C170.062 177.434 169.893 177.157 169.462 176.918C169.129 176.734 168.778 176.624 168.411 176.59C168.035 176.551 167.655 176.563 167.27 176.627C166.886 176.681 166.489 176.759 166.079 176.862C165.67 176.965 165.256 177.066 164.839 177.164C164.421 177.254 163.996 177.317 163.562 177.353C163.129 177.389 162.696 177.372 162.264 177.302C161.839 177.227 161.412 177.07 160.981 176.831C160.525 176.579 160.246 176.303 160.142 176.005C160.039 175.707 160.094 175.408 160.309 175.108C160.516 174.804 160.866 174.521 161.359 174.259C161.909 173.966 162.503 173.765 163.141 173.656C163.788 173.541 164.434 173.507 165.079 173.553L165.073 174.218C164.501 174.187 163.978 174.209 163.503 174.284C163.029 174.36 162.582 174.509 162.163 174.732C161.671 174.994 161.391 175.266 161.323 175.55C161.255 175.833 161.424 176.087 161.831 176.313C162.148 176.489 162.478 176.591 162.821 176.621C163.172 176.646 163.54 176.627 163.925 176.564C164.309 176.501 164.702 176.42 165.104 176.321C165.505 176.214 165.918 176.113 166.344 176.019C166.77 175.926 167.2 175.865 167.633 175.838C168.074 175.806 168.52 175.83 168.968 175.909C169.409 175.984 169.853 176.145 170.3 176.393C171.024 176.795 171.339 177.241 171.244 177.733C171.15 178.215 170.676 178.684 169.823 179.138ZM173.263 177.176L168.343 170.678L169.02 170.318L180.849 173.143L179.876 173.66L169.467 171.14L169.824 170.95L174.223 176.665L173.263 177.176ZM172.668 175.121L171.875 174.682L176.308 172.324L177.101 172.764L172.668 175.121ZM182.297 172.373L173.905 167.721L174.803 167.243L183.196 171.895L182.297 172.373ZM182.888 172.058L182.071 171.605L186.738 169.124L187.555 169.577L182.888 172.058ZM189.116 168.747L180.723 164.095L181.622 163.617L190.014 168.269L189.116 168.747ZM189.707 168.433L188.889 167.98L193.877 165.328L194.694 165.781L189.707 168.433ZM185.803 166.269L185.01 165.83L189.604 163.387L190.396 163.827L185.803 166.269ZM182.132 164.234L181.314 163.781L186.228 161.168L187.045 161.621L182.132 164.234Z" fill="black"/>
</g>
</g>
</svg>
