<svg width="182" height="182" viewBox="0 0 182 182" fill="none" xmlns="http://www.w3.org/2000/svg">
<path d="M73.9311 127.192C73.8702 127.192 73.8106 127.16 73.778 127.103C73.7288 127.019 73.7573 126.91 73.8417 126.861L95.8655 114.062C97.6352 113.034 100.523 113.034 102.302 114.062L124.47 126.861C124.555 126.91 124.584 127.018 124.535 127.103C124.485 127.188 124.376 127.216 124.293 127.168L102.125 114.369C100.442 113.398 97.7142 113.397 96.0443 114.369L74.0205 127.168C73.9921 127.184 73.9617 127.192 73.9311 127.192Z" fill="#DBDEE4"/>
<path d="M109.736 117.438C110.273 117.438 110.793 117.561 111.162 117.774C111.458 117.945 111.629 118.156 111.629 118.351C111.629 118.544 111.462 118.752 111.171 118.921C110.805 119.134 110.287 119.256 109.751 119.256C109.214 119.256 108.695 119.134 108.326 118.921C108.029 118.749 107.859 118.539 107.858 118.343C107.858 118.15 108.025 117.942 108.316 117.773C108.682 117.56 109.199 117.438 109.736 117.438Z" fill="#383C43"/>
<path d="M91.3176 115.765C91.8547 115.765 92.3745 115.887 92.7438 116.1C93.0404 116.271 93.2105 116.482 93.2109 116.677C93.2111 116.87 93.0443 117.078 92.7531 117.247C92.3869 117.46 91.8692 117.582 91.3328 117.582C90.7962 117.582 90.2768 117.46 89.9078 117.247C89.611 117.075 89.4406 116.865 89.4404 116.669C89.4401 116.476 89.6069 116.268 89.8979 116.099C90.2636 115.887 90.7812 115.765 91.3176 115.765Z" fill="#383C43"/>
<path d="M141.436 112.64C141.405 112.64 141.374 112.632 141.346 112.616L129.199 105.514C128.767 105.262 128.498 104.795 128.498 104.295V69.5437C128.498 69.4456 128.578 69.3662 128.675 69.3662C128.773 69.3662 128.853 69.4455 128.853 69.5437V104.295C128.853 104.669 129.054 105.019 129.378 105.207L141.525 112.31C141.609 112.359 141.638 112.468 141.589 112.552C141.555 112.609 141.497 112.64 141.436 112.64Z" fill="#DBDEE4"/>
<g opacity="0.1">
<path d="M155.099 166.635L128.507 151.181L155.053 135.854L181.645 151.308L155.099 166.635Z" fill="#010101"/>
</g>
<path d="M155.146 162.216L128.761 146.883L155.1 131.676L181.485 147.009L155.146 162.216Z" fill="white"/>
<path d="M155.146 162.392C155.115 162.392 155.084 162.384 155.056 162.368L128.672 147.035C128.617 147.003 128.584 146.944 128.584 146.881C128.584 146.818 128.618 146.759 128.673 146.728L155.012 131.521C155.067 131.489 155.135 131.489 155.19 131.521L181.575 146.854C181.63 146.886 181.663 146.944 181.663 147.008C181.663 147.071 181.629 147.129 181.574 147.161L155.234 162.368C155.207 162.384 155.176 162.392 155.146 162.392ZM129.115 146.882L155.146 162.01L181.132 147.007L155.101 131.88L129.115 146.882Z" fill="#383C43"/>
<path d="M155.145 162.215L128.761 146.882L128.675 116.609L155.06 131.943L155.145 162.215Z" fill="white"/>
<path d="M155.146 162.392C155.115 162.392 155.084 162.384 155.056 162.368L128.672 147.035C128.618 147.003 128.584 146.945 128.584 146.882L128.498 116.609C128.498 116.546 128.532 116.487 128.587 116.456C128.642 116.424 128.709 116.424 128.765 116.456L155.149 131.789C155.203 131.821 155.237 131.879 155.237 131.942L155.323 162.214C155.323 162.278 155.289 162.337 155.234 162.368C155.207 162.384 155.176 162.392 155.146 162.392ZM128.939 146.779L154.968 161.906L154.883 132.045L128.854 116.918L128.939 146.779Z" fill="#383C43"/>
<path d="M155.06 131.943L128.675 116.609L155.014 101.402L181.399 116.736L155.06 131.943Z" fill="#FFF7E4"/>
<path d="M155.06 132.121C155.029 132.121 154.998 132.113 154.97 132.097L128.586 116.763C128.531 116.731 128.498 116.673 128.498 116.609C128.498 116.546 128.532 116.488 128.587 116.456L154.926 101.25C154.981 101.218 155.049 101.218 155.104 101.25L181.489 116.583C181.544 116.614 181.577 116.673 181.577 116.736C181.577 116.799 181.543 116.858 181.489 116.889L155.148 132.097C155.121 132.113 155.09 132.121 155.06 132.121ZM129.03 116.61L155.06 131.738L181.046 116.736L155.015 101.608L129.03 116.61Z" fill="#383C43"/>
<path d="M171.338 122.551L165.202 126.092L138.815 110.759L144.952 107.219L171.338 122.551Z" fill="#212121"/>
<path d="M165.201 126.269C165.17 126.269 165.139 126.261 165.111 126.245L138.725 110.913C138.67 110.881 138.637 110.822 138.637 110.759C138.637 110.696 138.671 110.637 138.725 110.606L144.862 107.065C144.917 107.033 144.985 107.033 145.04 107.065L171.426 122.397C171.481 122.429 171.514 122.488 171.514 122.551C171.514 122.614 171.48 122.673 171.426 122.704L165.289 126.245C165.262 126.261 165.231 126.269 165.201 126.269ZM139.168 110.76L165.201 125.886L170.983 122.55L144.951 107.424L139.168 110.76Z" fill="#383C43"/>
<path d="M181.486 147.01L155.143 162.217L155.059 131.945L165.201 126.091L171.337 122.55L181.402 116.738L181.486 147.01Z" fill="#FFBE2E"/>
<path d="M155.143 162.394C155.112 162.394 155.082 162.386 155.054 162.37C154.999 162.339 154.965 162.28 154.965 162.217L154.881 131.945C154.881 131.881 154.915 131.822 154.97 131.791L181.313 116.584C181.368 116.552 181.435 116.553 181.49 116.584C181.545 116.616 181.579 116.674 181.579 116.738L181.664 147.01C181.664 147.073 181.63 147.132 181.575 147.163L155.231 162.37C155.204 162.386 155.173 162.394 155.143 162.394ZM155.236 132.047L155.319 161.91L181.309 146.908L181.225 117.045L155.236 132.047Z" fill="#383C43"/>
<path d="M164.584 144.224C164.521 144.26 164.457 144.326 164.409 144.412L162.684 147.569C162.546 147.821 162.653 148.041 162.857 147.922L163.597 147.495L163.616 154.037C163.616 154.148 163.695 154.194 163.792 154.138L165.426 153.195C165.525 153.137 165.602 153.002 165.601 152.89L165.583 146.349L166.322 145.922C166.527 145.804 166.632 145.462 166.495 145.369L164.756 144.211C164.71 144.18 164.647 144.187 164.584 144.224Z" fill="#212121"/>
<path d="M159.515 147.15C159.452 147.187 159.389 147.252 159.343 147.337L157.617 150.495C157.478 150.747 157.587 150.966 157.792 150.847L158.531 150.42L158.55 156.962C158.55 157.073 158.628 157.12 158.727 157.063L160.36 156.119C160.457 156.064 160.536 155.927 160.536 155.815L160.517 149.274L161.257 148.847C161.462 148.729 161.566 148.387 161.425 148.296L159.689 147.138C159.641 147.107 159.578 147.114 159.515 147.15Z" fill="#212121"/>
<path d="M165.212 126.062L165.212 134.127L168.275 129.127L171.337 130.614L171.337 122.549L165.212 126.062Z" fill="#212121"/>
<path d="M165.212 134.306C165.196 134.306 165.18 134.304 165.164 134.299C165.088 134.278 165.035 134.208 165.035 134.128L165.034 126.063C165.034 126 165.068 125.941 165.124 125.91L171.248 122.397C171.302 122.365 171.371 122.365 171.425 122.397C171.48 122.428 171.514 122.487 171.514 122.55L171.515 130.615C171.515 130.676 171.483 130.733 171.431 130.766C171.379 130.799 171.316 130.802 171.259 130.775L168.342 129.358L165.363 134.221C165.331 134.274 165.273 134.306 165.212 134.306ZM165.389 126.166L165.39 133.499L168.123 129.035C168.171 128.957 168.271 128.93 168.352 128.968L171.16 130.332L171.159 122.857L165.389 126.166Z" fill="#383C43"/>
<g opacity="0.1">
<path d="M128.748 181.826L102.156 166.372L128.703 151.046L155.295 166.5L128.748 181.826Z" fill="#010101"/>
</g>
<path d="M128.795 177.407L102.41 162.073L128.75 146.866L155.135 162.199L128.795 177.407Z" fill="white"/>
<path d="M128.796 177.584C128.765 177.584 128.734 177.576 128.707 177.56L102.321 162.227C102.267 162.195 102.233 162.136 102.233 162.073C102.233 162.01 102.267 161.951 102.322 161.92L128.661 146.712C128.717 146.68 128.784 146.68 128.839 146.712L155.225 162.046C155.279 162.078 155.313 162.136 155.313 162.2C155.313 162.263 155.279 162.321 155.224 162.353L128.885 177.56C128.857 177.576 128.827 177.584 128.796 177.584ZM102.765 162.073L128.796 177.201L154.781 162.199L128.75 147.071L102.765 162.073Z" fill="#383C43"/>
<path d="M128.796 177.406L102.411 162.073L102.325 131.801L128.71 147.134L128.796 177.406Z" fill="#212121"/>
<path d="M128.797 177.584C128.766 177.584 128.735 177.576 128.708 177.56L102.322 162.226C102.268 162.194 102.234 162.136 102.234 162.073L102.148 131.801C102.148 131.737 102.182 131.679 102.237 131.647C102.292 131.615 102.36 131.615 102.415 131.647L128.8 146.98C128.854 147.012 128.888 147.07 128.888 147.133L128.974 177.406C128.974 177.469 128.94 177.528 128.886 177.56C128.858 177.576 128.827 177.584 128.797 177.584ZM102.589 161.971L128.619 177.097L128.534 147.236L102.504 132.109L102.589 161.971Z" fill="#383C43"/>
<path d="M128.71 147.134L102.325 131.801L128.665 116.594L155.05 131.927L128.71 147.134Z" fill="#FFF7E4"/>
<path d="M128.711 147.311C128.681 147.311 128.649 147.303 128.622 147.287L102.236 131.954C102.182 131.922 102.148 131.864 102.148 131.8C102.148 131.737 102.182 131.679 102.237 131.647L128.577 116.44C128.633 116.408 128.7 116.408 128.755 116.44L155.14 131.773C155.194 131.805 155.228 131.864 155.228 131.927C155.228 131.99 155.194 132.049 155.139 132.08L128.8 147.287C128.772 147.303 128.741 147.311 128.711 147.311ZM102.68 131.801L128.711 146.929L154.696 131.926L128.666 116.798L102.68 131.801Z" fill="#383C43"/>
<path d="M144.987 137.741L138.851 141.282L112.465 125.95L118.601 122.409L144.987 137.741Z" fill="#212121"/>
<path d="M138.851 141.459C138.821 141.459 138.789 141.451 138.762 141.435L112.375 126.103C112.32 126.071 112.287 126.012 112.287 125.949C112.287 125.886 112.321 125.827 112.376 125.796L118.512 122.255C118.568 122.223 118.635 122.223 118.69 122.255L145.076 137.587C145.131 137.619 145.164 137.678 145.164 137.741C145.164 137.804 145.13 137.863 145.075 137.894L138.94 141.435C138.912 141.451 138.882 141.459 138.851 141.459ZM112.819 125.95L138.851 141.076L144.633 137.74L118.601 122.614L112.819 125.95Z" fill="#383C43"/>
<path d="M155.138 162.201L128.795 177.407L128.71 147.135L138.852 141.281L144.989 137.741L155.053 131.929L155.138 162.201Z" fill="#FFBE2E"/>
<path d="M128.794 177.584C128.764 177.584 128.733 177.576 128.705 177.561C128.651 177.529 128.617 177.471 128.617 177.407L128.532 147.135C128.532 147.072 128.566 147.013 128.621 146.981L154.964 131.775C155.019 131.743 155.086 131.743 155.141 131.774C155.196 131.806 155.23 131.865 155.23 131.928L155.314 162.2C155.314 162.263 155.28 162.322 155.226 162.354L128.883 177.56C128.855 177.576 128.825 177.584 128.794 177.584ZM128.887 147.237L128.971 177.1L154.96 162.098L154.876 132.235L128.887 147.237Z" fill="#383C43"/>
<path d="M138.233 159.415C138.17 159.451 138.106 159.517 138.058 159.604L136.334 162.76C136.196 163.012 136.302 163.232 136.507 163.114L137.247 162.687L137.265 169.228C137.265 169.34 137.345 169.385 137.442 169.329L139.075 168.386C139.174 168.329 139.251 168.193 139.251 168.082L139.232 161.54L139.972 161.113C140.177 160.995 140.281 160.653 140.144 160.56L138.406 159.403C138.36 159.371 138.297 159.378 138.233 159.415Z" fill="#212121"/>
<path d="M133.166 162.341C133.103 162.377 133.04 162.443 132.994 162.527L131.268 165.685C131.13 165.937 131.238 166.156 131.443 166.038L132.183 165.611L132.201 172.152C132.202 172.263 132.279 172.31 132.378 172.253L134.011 171.31C134.108 171.254 134.187 171.117 134.187 171.006L134.168 164.464L134.908 164.037C135.113 163.919 135.218 163.577 135.076 163.487L133.34 162.328C133.292 162.297 133.229 162.304 133.166 162.341Z" fill="#212121"/>
<path d="M138.861 141.253L138.862 149.318L141.924 144.318L144.986 145.805L144.986 137.74L138.861 141.253Z" fill="#212121"/>
<path d="M138.861 149.496C138.845 149.496 138.829 149.494 138.813 149.49C138.736 149.468 138.684 149.398 138.684 149.319V141.254C138.684 141.191 138.718 141.132 138.773 141.1L144.898 137.587C144.952 137.556 145.02 137.555 145.074 137.587C145.129 137.619 145.163 137.677 145.163 137.741V145.806C145.163 145.867 145.132 145.924 145.08 145.956C145.028 145.989 144.964 145.992 144.908 145.965L141.991 144.548L139.012 149.411C138.98 149.465 138.921 149.496 138.861 149.496ZM139.038 141.357V148.69L141.773 144.226C141.82 144.148 141.92 144.121 142.001 144.159L144.808 145.522V138.047L139.038 141.357Z" fill="#383C43"/>
<g opacity="0.1">
<path d="M79.8068 144.569L15.2542 181.827L0 172.962L64.5321 135.693L79.8068 144.569Z" fill="#010101"/>
</g>
<path d="M69.115 0.536771C68.1471 -0.0219907 66.792 0.0589909 65.3073 0.91967L9.79191 32.9788C8.89763 33.495 8.0558 34.2282 7.3197 35.1027C6.83718 35.6607 6.39563 36.287 6.018 36.9412C5.64037 37.5954 5.31981 38.2736 5.06728 38.9734C4.66648 40.0682 4.44081 41.1839 4.45049 42.2309L4.79906 164.837C4.79738 166.536 5.39247 167.726 6.35372 168.28L17.5397 174.774C16.5718 174.215 15.97 173.022 15.9745 171.334L15.6192 48.7231C15.6106 47.659 15.84 46.5365 16.2552 45.4321C16.5078 44.7326 16.8351 44.0581 17.2127 43.4039C17.5904 42.7497 18.028 42.1301 18.5144 41.5654C19.2466 40.6976 20.0847 39.971 20.9683 39.4576L76.4758 7.41178C77.9778 6.55226 79.3158 6.47022 80.3037 7.04057L69.115 0.536771Z" fill="#212121"/>
<path d="M18.5155 41.5654L7.32078 35.1025C6.83826 35.6606 6.39671 36.2868 6.01908 36.941C5.64144 37.5952 5.32089 38.2735 5.06836 38.9732L16.2562 45.4321C16.5089 44.7325 16.8362 44.058 17.2138 43.4038C17.5914 42.7497 18.0291 42.1301 18.5155 41.5654Z" fill="#FFBE2E"/>
<path d="M17.5394 174.953C17.5089 174.953 17.4784 174.945 17.4507 174.929C17.4458 174.926 17.4403 174.923 17.4354 174.92L6.26828 168.434C5.20667 167.82 4.6219 166.544 4.6219 164.839L4.2706 42.2327C4.26228 40.5468 4.82915 38.6357 5.86706 36.8525C6.89054 35.0949 8.2528 33.6637 9.7031 32.8225L65.2186 0.765815C66.714 -0.102762 68.1303 -0.23682 69.2085 0.385759L80.3971 6.88397C80.4817 6.93315 80.5101 7.04162 80.4616 7.1265C80.4117 7.21106 80.3015 7.23981 80.2191 7.19095C80.2191 7.19095 80.2191 7.19095 80.2183 7.19095L80.2142 7.18852C79.2552 6.63734 77.9601 6.77067 76.5708 7.56511L21.0595 39.6148C19.6647 40.42 18.3536 41.7972 17.3662 43.4924C16.3497 45.2399 15.794 47.0977 15.8009 48.7232L16.1522 171.33C16.1467 172.9 16.6706 174.069 17.6281 174.622H17.6289C17.7134 174.671 17.7419 174.779 17.6933 174.864C17.6599 174.921 17.6003 174.953 17.5394 174.953ZM67.7139 0.354904C67.0064 0.354904 66.2172 0.59606 65.3967 1.07279L9.88044 33.1295C8.4828 33.9402 7.16624 35.3257 6.17329 37.031C5.16719 38.7606 4.61769 40.6076 4.62527 42.2314L4.97658 164.839C4.97658 166.412 5.49838 167.579 6.44625 168.127L16.4278 173.925C16.0121 173.254 15.7931 172.371 15.7972 171.33L15.4459 48.7244C15.4384 47.0371 16.0113 45.1156 17.0598 43.3141C18.0769 41.5662 19.4345 40.1433 20.8819 39.308L76.394 7.25761C77.3267 6.72443 78.2323 6.4677 79.0312 6.5016L69.0302 0.692837C68.6403 0.467163 68.1961 0.354904 67.7139 0.354904Z" fill="#383C43"/>
<path d="M72.995 9.60064C72.9645 9.60064 72.9341 9.59306 72.9064 9.57674L61.697 3.10548C61.6125 3.05662 61.5834 2.94815 61.6318 2.86327C61.6817 2.77766 61.7905 2.74933 61.8744 2.79851L73.0837 9.26966C73.1683 9.31852 73.1973 9.42699 73.1489 9.51187C73.1156 9.56884 73.056 9.60064 72.995 9.60064Z" fill="#383C43"/>
<path d="M10.2847 63.4306C9.81328 63.1676 9.38584 63.1348 9.07929 63.3113L7.94238 63.963C8.25588 63.7905 8.67627 63.8194 9.14763 64.0822C10.0894 64.6259 10.8508 65.949 10.854 67.039L10.8534 76.5647C10.8489 77.1201 10.6564 77.5019 10.3458 77.6854L11.4827 77.0337C11.7934 76.8503 11.9859 76.4685 11.9903 75.913L11.9909 66.3873C11.9879 65.2974 11.2263 63.9742 10.2847 63.4306Z" fill="#212121"/>
<path d="M10.3467 77.8628C10.2857 77.8628 10.2261 77.8313 10.1936 77.7747C10.1444 77.6902 10.1728 77.5821 10.2566 77.5325C10.5241 77.3749 10.6731 77.0305 10.6765 76.5635L10.6771 67.0392C10.6736 66.0068 9.94819 64.7488 9.05918 64.2356C8.66143 64.0143 8.29422 63.9724 8.02885 64.1182C7.94218 64.1663 7.83624 64.1355 7.78843 64.05C7.74062 63.9651 7.77042 63.8577 7.85498 63.8093L8.9921 63.1576C9.36352 62.9438 9.85267 62.9871 10.3717 63.2761C10.3724 63.2764 10.3731 63.2768 10.3738 63.2774C11.3772 63.8563 12.1658 65.2222 12.1692 66.387L12.1686 75.9133C12.1645 76.5113 11.9524 76.9631 11.5734 77.1866L10.4349 77.8393C10.4069 77.8551 10.3765 77.8628 10.3467 77.8628ZM8.7224 63.7209C8.88805 63.7611 9.05981 63.83 9.23452 63.9274C10.24 64.5078 11.0285 65.8738 11.0319 67.0386L11.0312 76.5649C11.0298 76.7731 11.0027 76.9637 10.9528 77.1332L11.3949 76.8799C11.6603 76.7233 11.8099 76.379 11.8134 75.9119L11.8141 66.3877C11.8107 65.3559 11.0858 64.0989 10.1976 63.5852C9.79223 63.3593 9.42701 63.3174 9.16859 63.4653L8.7224 63.7209Z" fill="#383C43"/>
<path d="M10.8524 67.0387C10.8524 65.9462 10.0885 64.6232 9.14541 64.0823C8.20217 63.5414 7.43837 63.9881 7.43848 65.0808L7.43964 74.609C7.43964 75.7017 8.20354 77.0245 9.14667 77.5655C10.0899 78.1065 10.8537 77.6597 10.8536 76.5671L10.8524 67.0387Z" fill="#FFBE2E"/>
<path d="M9.90365 77.9742C9.64038 77.9742 9.35279 77.889 9.05824 77.7198C8.0674 77.1516 7.26148 75.7565 7.26148 74.6097L7.26074 65.0817C7.26074 64.4854 7.47073 64.0353 7.85184 63.8143C8.23084 63.5943 8.72147 63.6359 9.23284 63.9293C10.2237 64.4971 11.0296 65.8926 11.0296 67.0394L11.0303 76.5678C11.0303 77.164 10.8204 77.6141 10.4392 77.8347C10.2785 77.9281 10.0976 77.9742 9.90365 77.9742ZM8.3889 64.0302C8.25653 64.0302 8.13532 64.0603 8.03001 64.1213C7.76253 64.2762 7.61563 64.6171 7.61563 65.0817L7.61637 74.6097C7.61637 75.6432 8.34257 76.9004 9.23431 77.4122C9.63269 77.6402 9.99727 77.6814 10.2612 77.528C10.5286 77.3731 10.6756 77.0322 10.6756 76.5679L10.6748 67.0395C10.6748 66.0061 9.94862 64.7488 9.05687 64.237C8.81719 64.0998 8.58983 64.0302 8.3889 64.0302Z" fill="#383C43"/>
<path d="M12.0645 117.252C12.0645 116.068 11.2364 114.633 10.2139 114.047C9.19131 113.461 8.36328 113.945 8.36328 115.129L8.36602 138.137C8.36602 139.321 9.19416 140.755 10.2167 141.342C11.2392 141.928 12.0673 141.444 12.0673 140.26L12.0645 117.252Z" fill="#FFBE2E"/>
<path d="M11.0311 116.684C11.0311 117.198 10.6681 117.403 10.2245 117.149C9.77507 116.891 9.41797 116.272 9.41797 115.758C9.41797 115.231 9.77507 115.022 10.2245 115.28C10.668 115.534 11.031 116.157 11.0311 116.684Z" fill="#212121"/>
<path d="M21.3537 174.398C18.3887 176.11 15.981 174.738 15.9712 171.331L15.6201 48.7255C15.6104 45.3184 18.0022 41.1754 20.9672 39.4634L76.48 7.4108C79.4452 5.69881 81.8527 7.07076 81.8625 10.4778L82.2136 133.083C82.2234 136.491 79.8316 140.633 76.8665 142.345L21.3537 174.398Z" fill="#383C43"/>
<path d="M18.9447 175.315C18.4027 175.315 17.9011 175.188 17.457 174.933C16.3899 174.319 15.7995 173.04 15.7947 171.332L15.4434 48.7261C15.4337 45.2705 17.8721 41.0464 20.8794 39.31L76.3922 7.25754C77.8882 6.39276 79.3031 6.25839 80.3786 6.87644C81.4457 7.49069 82.036 8.76955 82.0409 10.4775L82.3922 133.083C82.4019 136.539 79.9635 140.763 76.9562 142.499L21.4434 174.552C20.5654 175.059 19.7146 175.315 18.9447 175.315ZM78.8893 6.84927C78.1819 6.84927 77.392 7.08937 76.5694 7.56431L21.0566 39.6168C18.1477 41.2967 15.7883 45.3829 15.7981 48.7252L16.1494 171.331C16.1535 172.907 16.6809 174.077 17.6343 174.625C18.5926 175.178 19.8842 175.043 21.266 174.245L76.7788 142.192C79.6877 140.512 82.0471 136.426 82.0373 133.084L81.686 10.4781C81.6818 8.90203 81.1545 7.73238 80.201 7.18394C79.8131 6.96047 79.3703 6.84927 78.8893 6.84927Z" fill="#383C43"/>
<path d="M79.7771 7.9281C80.4404 8.31111 80.8266 9.24308 80.8296 10.4798L81.1807 133.086C81.1854 134.555 80.6824 136.241 79.7613 137.836C78.8436 139.426 77.632 140.71 76.3509 141.452L20.8391 173.503C19.7503 174.133 18.737 174.273 18.0619 173.884C17.3985 173.501 17.0124 172.569 17.0092 171.332L16.6582 48.7253C16.6536 47.2566 17.1566 45.571 18.0777 43.9755C18.9953 42.386 20.207 41.1016 21.4881 40.3593L76.9999 8.30869C78.0887 7.67831 79.1017 7.53815 79.7771 7.9281Z" fill="#FFF7E4"/>
<path d="M18.9439 174.277C18.5801 174.277 18.2517 174.198 17.973 174.037C17.251 173.62 16.8345 172.634 16.8318 171.332L16.4805 48.7257C16.4764 47.2241 16.9891 45.5057 17.9238 43.8867C18.8565 42.2712 20.0906 40.964 21.3995 40.2056L76.9108 8.15519C78.0576 7.4907 79.1358 7.35243 79.8655 7.7744C80.5874 8.1912 81.0039 9.1772 81.0067 10.4792L81.358 133.086C81.3628 134.585 80.8507 136.304 79.9153 137.925C78.9812 139.541 77.7471 140.848 76.4396 141.606L20.9277 173.656C20.2182 174.068 19.5349 174.277 18.9439 174.277ZM78.8927 7.88729C78.3674 7.88729 77.7459 8.082 77.0884 8.46205L21.577 40.5124C20.3214 41.24 19.133 42.5015 18.2316 44.064C17.3273 45.6296 16.8312 47.2848 16.8353 48.7249L17.1866 171.331C17.1893 172.503 17.5406 173.378 18.1505 173.73C18.7693 174.088 19.7171 173.948 20.7503 173.35L76.2623 141.299C77.5166 140.572 78.7049 139.311 79.6078 137.748C80.5128 136.18 81.0081 134.525 81.0033 133.087L80.652 10.48C80.6493 9.30788 80.2979 8.43372 79.6881 8.08137C79.4631 7.95142 79.1935 7.88729 78.8927 7.88729Z" fill="#212121"/>
<path d="M36.2365 38.3034C37.061 37.8336 57.9773 25.8321 58.9475 25.2756C60.4979 24.3849 61.759 22.2005 61.761 20.4109L61.7576 17.1494C60.7874 17.706 34.5309 32.7714 33.4252 33.4057L33.4248 36.665C33.4266 38.4568 34.6862 39.1941 36.2365 38.3034Z" fill="#383C43"/>
<path d="M34.9922 38.859C34.6921 38.859 34.4136 38.788 34.1662 38.6449C33.5745 38.3029 33.2488 37.5993 33.248 36.6638V33.4043C33.248 33.341 33.2821 33.2821 33.3375 33.2505C33.9901 32.8763 43.407 27.4729 51.2128 22.9938L61.6704 16.9942C61.7244 16.963 61.793 16.9627 61.8471 16.9945C61.9018 17.026 61.9357 17.0845 61.9357 17.1479L61.9385 20.4095C61.9371 22.2586 60.6351 24.5099 59.0358 25.4279C58.0006 26.0221 37.1408 37.9909 36.3252 38.4559C35.8597 38.7239 35.4058 38.859 34.9922 38.859ZM33.6028 33.5072V36.6638C33.6036 37.4673 33.8668 38.0618 34.3436 38.3379C34.8182 38.6116 35.4578 38.544 36.1493 38.1483V38.148C36.9572 37.6876 57.8239 25.7149 58.8598 25.1204C60.36 24.2588 61.5823 22.1454 61.5837 20.4096L61.581 17.4542L51.3895 23.3018C43.8332 27.6375 34.767 32.8393 33.6028 33.5072Z" fill="#212121"/>
<path d="M55.1593 24.935C55.4807 24.3783 55.6579 23.7867 55.6579 23.2701C55.6579 22.8051 55.5167 22.467 55.2601 22.3182C55.0071 22.1721 54.6509 22.2158 54.2569 22.4415L36.6592 32.5367C36.2123 32.7932 35.7887 33.2419 35.4659 33.801C35.1426 34.3611 34.9645 34.9562 34.9648 35.4762C34.9646 35.9359 35.1051 36.2704 35.3602 36.4176C35.6142 36.5649 35.9721 36.5209 36.3684 36.2937L53.9657 26.1991C54.4132 25.9422 54.8368 25.4935 55.1593 24.935Z" fill="#FFBE2E"/>
<path d="M59.7221 22.3176C60.0434 21.7609 60.2204 21.1698 60.2204 20.6533C60.2206 20.1884 60.0792 19.8508 59.8229 19.7022C59.5698 19.5555 59.2124 19.5998 58.8167 19.8264C58.3697 20.083 57.9461 20.5317 57.6233 21.0908C57.3 21.6509 57.1218 22.2459 57.1221 22.7659C57.1222 23.2251 57.2625 23.5595 57.5174 23.7072C57.7714 23.8546 58.1295 23.8106 58.5258 23.5836C58.9746 23.3261 59.3993 22.8767 59.7221 22.3176Z" fill="white"/>
<path d="M59.2977 22.0702C59.4887 21.7394 59.5939 21.3879 59.5939 21.0809C59.594 20.8044 59.51 20.6037 59.3576 20.5154C59.2072 20.4282 58.9947 20.4545 58.7594 20.5893C58.4937 20.7418 58.2419 21.0086 58.05 21.341C57.8578 21.674 57.7517 22.0277 57.752 22.3369C57.752 22.6098 57.8355 22.8086 57.9869 22.8965C58.1379 22.9841 58.3508 22.958 58.5864 22.823C58.8534 22.6699 59.1058 22.4027 59.2977 22.0702Z" fill="#FFBE2E"/>
<path d="M61.6673 12.1642C62.8062 11.5067 62.7971 10.4392 61.6659 9.78186C60.5195 9.11569 58.6919 9.11589 57.553 9.77344C56.3847 10.448 56.3785 11.5067 57.5249 12.1729C58.6561 12.8302 60.4989 12.8388 61.6673 12.1642Z" fill="#FFBE2E"/>
<path d="M15.6447 56.859C15.6143 56.859 15.5837 56.8514 15.556 56.8351L4.38057 50.3837C4.29601 50.3348 4.26695 50.2263 4.31549 50.1415C4.36467 50.0558 4.47482 50.0278 4.55801 50.0767L15.7335 56.5281C15.818 56.577 15.8471 56.6855 15.7986 56.7704C15.7653 56.8271 15.7057 56.859 15.6447 56.859Z" fill="#383C43"/>
<path d="M15.9525 164.314C15.9221 164.314 15.8916 164.306 15.8639 164.29L4.68917 157.839C4.6046 157.79 4.57554 157.681 4.62409 157.597C4.67327 157.511 4.78342 157.483 4.86661 157.532L16.0413 163.983C16.1259 164.032 16.1549 164.14 16.1064 164.225C16.0731 164.282 16.0135 164.314 15.9525 164.314Z" fill="#383C43"/>
<path d="M61.5911 80.513L31.523 97.8696C30.2694 98.5932 28.7021 97.6911 28.6981 96.2437L28.6016 61.7179C28.5977 60.3083 29.3482 59.0042 30.569 58.2996L42.0156 51.6929L50.135 47.0079L60.6367 40.9437C61.8903 40.2198 63.4578 41.1218 63.4619 42.5694L63.5584 77.0948C63.5623 78.5044 62.8119 79.8083 61.5911 80.513Z" fill="#978050"/>
<path d="M30.5806 98.3023C30.2272 98.3023 29.8745 98.2099 29.5523 98.0244C28.9079 97.6533 28.522 96.9878 28.5199 96.244L28.4229 61.7181C28.4194 60.2491 29.2072 58.8803 30.4794 58.1461L60.5467 40.7902C61.1918 40.4184 61.9617 40.4174 62.6054 40.7885C63.2505 41.1596 63.6365 41.8251 63.6386 42.5689L63.7349 77.0944C63.7391 78.5635 62.9512 79.9323 61.679 80.6665L31.6111 98.0231C31.2882 98.2091 30.9348 98.3023 30.5806 98.3023ZM61.5778 40.8661C61.2847 40.8661 60.9916 40.9429 60.7241 41.0972L30.6569 58.4531C29.4942 59.1242 28.7742 60.3749 28.7776 61.7174L28.8746 96.2432C28.8767 96.8589 29.1961 97.4097 29.729 97.7167C30.2632 98.0244 30.9008 98.024 31.4336 97.7157L61.5016 80.3594C62.6643 79.6883 63.3843 78.4375 63.38 77.0954L63.2837 42.5695C63.2816 41.9539 62.9622 41.403 62.4286 41.0957C62.1619 40.9426 61.8702 40.8661 61.5778 40.8661Z" fill="#383C43"/>
<path d="M41.1975 75.6851C41.1138 75.7334 41.0294 75.8207 40.9655 75.9346L38.684 80.1115C38.5012 80.4451 38.6421 80.7358 38.913 80.5795L39.8917 80.0144L39.9162 88.6699C39.9167 88.8171 40.0219 88.8773 40.15 88.8032L42.3113 87.5554C42.4424 87.4797 42.544 87.3004 42.5436 87.1531L42.519 78.4975L43.4977 77.9324C43.7687 77.7761 43.9074 77.3238 43.7262 77.2005L41.4256 75.669C41.3643 75.6273 41.2812 75.6367 41.1975 75.6851Z" fill="#FFF7E4"/>
<path d="M34.4899 79.5583C34.4065 79.6065 34.3237 79.6929 34.2627 79.8052L31.9783 83.9838C31.7954 84.3174 31.9393 84.6065 32.2101 84.4501L33.1889 83.885L33.2134 92.5406C33.2138 92.6879 33.3161 92.7496 33.4472 92.6739L35.6085 91.4261C35.7367 91.3521 35.8411 91.171 35.8408 91.0237L35.8163 82.3682L36.795 81.8031C37.066 81.6467 37.2047 81.1944 37.0176 81.0745L34.72 79.5412C34.6572 79.5003 34.5733 79.5102 34.4899 79.5583Z" fill="#FFF7E4"/>
<path d="M42.0283 51.6843L42.0288 64.5205L46.0809 57.9041L50.133 59.8718L50.1325 47.0068L42.0283 51.6843Z" fill="#FFBE2E"/>
<path d="M42.0296 64.6986C42.0137 64.6986 41.9978 64.6965 41.9818 64.692C41.905 64.6705 41.8523 64.6004 41.8523 64.5211L41.8516 51.6851C41.8516 51.6217 41.8855 51.5632 41.9402 51.5316L50.0446 46.854C50.1 46.8221 50.1666 46.8221 50.222 46.854C50.2768 46.8855 50.3107 46.944 50.3107 47.0075V59.8727C50.3107 59.9336 50.2795 59.9905 50.2275 60.023C50.1755 60.056 50.1118 60.0591 50.0557 60.0324L46.149 58.1345L42.1806 64.6136C42.1481 64.6674 42.09 64.6986 42.0296 64.6986ZM42.2063 51.7877L42.2071 63.8919L45.9309 57.8122C45.9787 57.7339 46.0778 57.7069 46.1595 57.745L49.956 59.5893V47.3149L42.2063 51.7877Z" fill="#383C43"/>
<path d="M67.4015 54.8869C71.0798 52.7633 74.0737 54.4694 74.0857 58.696C74.0977 62.9269 71.1233 68.0788 67.445 70.2025L56.6392 76.4785L56.6474 79.3873L50.1338 78.4237L56.6206 69.9543L56.6288 72.8675L67.4347 66.5915C69.3776 65.4698 70.9493 62.7474 70.943 60.5104C70.9367 58.2779 69.3546 57.3763 67.4117 58.498L63.564 60.6766L63.5538 57.0655L67.4015 54.8869Z" fill="#212121"/>
<path d="M56.6463 79.5646C56.638 79.5646 56.6289 79.5639 56.6207 79.5625L50.1066 78.599C50.0443 78.59 49.9916 78.5485 49.968 78.4902C49.9444 78.432 49.9535 78.3659 49.9916 78.316L56.4788 69.8467C56.5245 69.7864 56.6028 69.7615 56.6762 69.7864C56.7483 69.8106 56.7968 69.8779 56.7968 69.954L56.8044 72.5597L67.3438 66.4378C69.2368 65.3454 70.771 62.6866 70.7641 60.5109C70.7613 59.5005 70.4259 58.7522 69.8196 58.4033C69.2077 58.0517 68.3838 58.1411 67.499 58.6514L63.6498 60.831C63.595 60.8619 63.5279 60.8614 63.4731 60.8299C63.4191 60.798 63.3851 60.7399 63.3851 60.6768L63.3754 57.066C63.3754 57.0019 63.4094 56.943 63.4654 56.9111L67.3125 54.7325C69.1529 53.67 70.8956 53.5019 72.217 54.2628C73.5295 55.018 74.2555 56.5924 74.2618 58.6954C74.2736 62.9759 71.2545 68.2067 67.5321 70.3559L56.8153 76.5801L56.8237 79.3867C56.8237 79.4383 56.8015 79.4875 56.7627 79.5212C56.7302 79.5493 56.6886 79.5646 56.6463 79.5646ZM50.4564 78.2924L56.4682 79.1814L56.4607 76.4787C56.4607 76.4156 56.4939 76.3567 56.5487 76.3248L67.3541 70.049C70.9795 67.9564 73.9189 62.8638 73.9071 58.6965C73.9015 56.7255 73.2384 55.26 72.0404 54.5706C70.8326 53.8763 69.2161 54.0429 67.4886 55.0403C67.4879 55.0407 67.4878 55.0411 67.4872 55.0414L63.7302 57.169L63.7391 60.3728L67.3229 58.3435C68.3215 57.7677 69.2714 57.6783 69.9969 58.0962C70.7169 58.5109 71.1153 59.3681 71.1187 60.5099C71.1257 62.799 69.5126 65.596 67.5218 66.7449L56.717 73.021C56.6616 73.0529 56.5937 73.0525 56.5396 73.0213C56.4843 72.9898 56.4502 72.9313 56.4502 72.8679L56.4433 70.4759L50.4564 78.2924Z" fill="#212121"/>
<path d="M32.6396 103.845C33.6025 103.289 34.3839 103.73 34.387 104.836L34.4158 114.986C34.4189 116.088 33.6426 117.433 32.6798 117.989L23.8502 123.086C22.8875 123.642 22.1061 123.197 22.103 122.095L22.0742 111.945C22.0711 110.839 22.8474 109.498 23.8101 108.943L32.6396 103.845Z" fill="#FFBE2E"/>
<path d="M23.0679 123.504C22.871 123.504 22.6881 123.458 22.5253 123.364C22.1407 123.143 21.928 122.693 21.9259 122.096L21.8975 111.945C21.894 110.769 22.695 109.382 23.7219 108.789L32.5511 103.692C33.0757 103.388 33.5787 103.342 33.9675 103.567C34.3514 103.787 34.5634 104.238 34.5648 104.836L34.5939 114.986C34.5966 116.144 33.7783 117.56 32.7687 118.142L23.9395 123.24C23.6354 123.416 23.3388 123.504 23.0679 123.504ZM32.7286 103.999L23.8994 109.096C22.9881 109.622 22.2489 110.9 22.2522 111.944L22.2807 122.095C22.2821 122.559 22.4317 122.901 22.702 123.056C22.9736 123.213 23.3499 123.17 23.7622 122.933L32.5914 117.835C33.5026 117.309 34.2419 116.031 34.2391 114.987L34.21 104.836C34.2087 104.371 34.0597 104.029 33.7908 103.874C33.5171 103.717 33.1408 103.761 32.7286 103.999Z" fill="#383C43"/>
<path d="M27.4444 117.453C27.3453 117.453 27.2449 117.432 27.1492 117.388L24.873 116.343C24.5169 116.18 24.3603 115.759 24.5238 115.403C24.6874 115.047 25.1093 114.89 25.4648 115.054L27.1598 115.832L30.711 109.826C30.9105 109.489 31.3464 109.377 31.6824 109.576C32.0198 109.776 32.1314 110.211 31.9319 110.548L28.0557 117.104C27.9246 117.327 27.689 117.453 27.4444 117.453Z" fill="#212121"/>
<path d="M37.6588 102.81C37.5978 102.81 37.5375 102.778 37.5049 102.72C37.4564 102.636 37.4855 102.527 37.5707 102.478L75.4618 80.7225C75.5463 80.6744 75.6551 80.7031 75.7035 80.788C75.7521 80.8729 75.7229 80.9813 75.6377 81.0302L37.7467 102.786C37.719 102.802 37.6886 102.81 37.6588 102.81Z" fill="#383C43"/>
<path d="M37.6588 108.648C37.5978 108.648 37.5375 108.617 37.5049 108.559C37.4564 108.474 37.4855 108.366 37.5707 108.317L75.4618 86.5615C75.5463 86.5133 75.6551 86.5417 75.7035 86.627C75.7521 86.7118 75.7229 86.8203 75.6377 86.8692L37.7467 108.625C37.719 108.641 37.6886 108.648 37.6588 108.648Z" fill="#383C43"/>
<path d="M37.6588 114.49C37.597 114.49 37.5375 114.458 37.5049 114.401C37.4564 114.316 37.4855 114.207 37.5707 114.159L64.0091 99.0153C64.0937 98.9657 64.2025 98.9952 64.2509 99.0811C64.2995 99.166 64.2703 99.2745 64.1851 99.3229L37.7467 114.466C37.719 114.482 37.6886 114.49 37.6588 114.49Z" fill="#383C43"/>
<path d="M32.6396 123.579C33.6025 123.023 34.3839 123.464 34.387 124.57L34.4158 134.721C34.4189 135.822 33.6426 137.167 32.6798 137.723L23.8502 142.821C22.8875 143.377 22.1061 142.931 22.103 141.829L22.0742 131.679C22.0711 130.573 22.8474 129.233 23.8101 128.677L32.6396 123.579Z" fill="#FFBE2E"/>
<path d="M23.0679 143.239C22.871 143.239 22.6881 143.192 22.5253 143.098C22.1407 142.877 21.928 142.427 21.9259 141.83L21.8975 131.68C21.894 130.503 22.695 129.117 23.7219 128.524L32.5511 123.426C33.0757 123.122 33.5787 123.076 33.9675 123.301C34.3514 123.522 34.5634 123.972 34.5648 124.57L34.5939 134.72C34.5966 135.878 33.7783 137.294 32.7687 137.877L23.9395 142.974C23.6354 143.15 23.3388 143.239 23.0679 143.239ZM32.7286 123.733L23.8994 128.83C22.9881 129.357 22.2489 130.635 22.2522 131.679L22.2807 141.829C22.2821 142.294 22.4317 142.635 22.702 142.791C22.9736 142.948 23.3499 142.904 23.7622 142.667L32.5914 137.57C33.5026 137.044 34.2419 135.766 34.2391 134.721L34.21 124.571C34.2087 124.105 34.0597 123.763 33.7908 123.608C33.5171 123.452 33.1408 123.496 32.7286 123.733Z" fill="#383C43"/>
<path d="M27.4444 137.187C27.3453 137.187 27.2449 137.166 27.1492 137.122L24.873 136.077C24.5169 135.914 24.3603 135.493 24.5238 135.137C24.6874 134.78 25.1093 134.624 25.4648 134.788L27.1598 135.566L30.711 129.56C30.9105 129.223 31.3464 129.112 31.6824 129.31C32.0198 129.51 32.1314 129.945 31.9319 130.282L28.0557 136.838C27.9246 137.061 27.689 137.187 27.4444 137.187Z" fill="#212121"/>
<path d="M37.6588 122.543C37.5978 122.543 37.5375 122.511 37.5049 122.454C37.4564 122.369 37.4855 122.261 37.5707 122.212L75.4618 100.456C75.5463 100.408 75.6551 100.436 75.7035 100.521C75.7521 100.606 75.7229 100.715 75.6377 100.764L37.7467 122.519C37.719 122.535 37.6886 122.543 37.6588 122.543Z" fill="#383C43"/>
<path d="M37.6588 128.383C37.5978 128.383 37.5375 128.351 37.5049 128.294C37.4564 128.209 37.4855 128.1 37.5707 128.052L75.4618 106.296C75.5463 106.248 75.6551 106.276 75.7035 106.361C75.7521 106.446 75.7229 106.555 75.6377 106.604L37.7467 128.359C37.719 128.375 37.6886 128.383 37.6588 128.383Z" fill="#383C43"/>
<path d="M37.6588 134.223C37.597 134.223 37.5375 134.191 37.5049 134.134C37.4564 134.049 37.4855 133.94 37.5707 133.892L64.0091 118.748C64.0937 118.699 64.2025 118.729 64.2509 118.814C64.2995 118.899 64.2703 119.008 64.1851 119.056L37.7467 134.199C37.719 134.215 37.6886 134.223 37.6588 134.223Z" fill="#383C43"/>
<path d="M66.1109 140.419C66.1172 141.55 65.319 142.926 64.3384 143.492L36.2398 159.693C35.7432 159.976 35.2969 160.001 34.9701 159.813C34.9387 159.794 34.9072 159.769 34.8695 159.75C34.8318 159.719 34.7878 159.681 34.7564 159.637C34.7249 159.605 34.6999 159.574 34.6809 159.536C34.6495 159.492 34.618 159.442 34.593 159.386C34.5678 159.329 34.5426 159.266 34.5238 159.203C34.4986 159.121 34.4861 159.04 34.4735 158.945C34.4672 158.902 34.461 158.864 34.461 158.814C34.4547 158.769 34.4547 158.726 34.4547 158.675L34.417 147.726C34.417 146.595 35.2089 145.218 36.1957 144.646L64.2881 128.451C64.5773 128.282 64.8538 128.206 65.099 128.206C65.1555 128.206 65.2059 128.212 65.2561 128.219C65.2812 128.225 65.3063 128.225 65.3315 128.238C65.3378 128.238 65.3378 128.238 65.3378 128.238C65.3944 128.25 65.4446 128.269 65.4886 128.294C65.8469 128.458 66.0731 128.872 66.0794 129.47L66.1109 140.419Z" fill="#FFBE2E"/>
<path d="M35.4421 160.113C35.239 160.113 35.0492 160.065 34.8808 159.968C34.8773 159.966 34.8378 159.94 34.8344 159.938C34.8198 159.928 34.8053 159.917 34.7886 159.909C34.7089 159.849 34.6543 159.801 34.6113 159.74C34.5829 159.716 34.5482 159.669 34.5219 159.616C34.4935 159.582 34.4575 159.52 34.4305 159.458C34.4021 159.396 34.3744 159.325 34.3536 159.255C34.3259 159.165 34.3107 159.075 34.2968 158.97C34.2884 158.913 34.2829 158.87 34.2829 158.814C34.2773 158.787 34.2766 158.736 34.2766 158.676L34.2393 147.728C34.2393 146.521 35.0597 145.101 36.1067 144.494L64.1992 128.298C64.5623 128.086 64.9579 128.007 65.2705 128.043C65.3142 128.05 65.3453 128.055 65.3744 128.065C65.3751 128.065 65.3758 128.065 65.3758 128.066C65.4513 128.082 65.5185 128.108 65.5767 128.142C65.9966 128.332 66.2495 128.818 66.2565 129.469L66.2876 140.419C66.2938 141.603 65.4589 143.051 64.4264 143.647L36.3277 159.848C36.0185 160.024 35.7178 160.113 35.4421 160.113ZM34.9819 159.613C34.986 159.613 35.0096 159.628 35.0324 159.643C35.3408 159.824 35.7288 159.78 36.1508 159.54L64.2488 143.339C65.1828 142.8 65.9389 141.491 65.9325 140.421C65.9325 140.421 65.9325 140.421 65.9325 140.42L65.9014 129.471C65.8958 128.966 65.7184 128.595 65.4142 128.457C65.372 128.433 65.3373 128.421 65.2977 128.411C65.27 128.411 65.2756 128.409 65.2513 128.397C65.1855 128.39 65.1439 128.384 65.0982 128.384C64.8723 128.384 64.6236 128.461 64.3776 128.605L36.2839 144.801C35.3519 145.341 34.5939 146.654 34.5939 147.727L34.6313 158.675C34.6313 158.718 34.6306 158.753 34.6354 158.789C34.6375 158.85 34.6416 158.878 34.6465 158.909C34.6596 159.007 34.6707 159.08 34.6929 159.152C34.7096 159.209 34.7318 159.264 34.7539 159.314C34.7719 159.353 34.7948 159.393 34.8239 159.432C34.8481 159.476 34.8607 159.492 34.8808 159.512C34.9216 159.565 34.9619 159.598 34.9813 159.614C34.9813 159.613 34.9813 159.613 34.9819 159.613Z" fill="#383C43"/>
<path d="M41.4122 151.033L42.2039 151.991L41.4494 152.426L40.8484 151.692C40.6719 151.483 40.5242 151.328 40.4145 151.222C40.3002 151.124 40.1954 151.069 40.105 151.056C40.0194 151.035 39.9244 151.046 39.8342 151.07C39.763 151.095 39.6538 151.153 39.4972 151.243L38.8044 151.643L38.8109 153.95L38.213 154.295L38.1982 149.093L40.2055 147.934C40.6088 147.701 40.9174 147.572 41.1264 147.544C41.3355 147.516 41.5068 147.581 41.6308 147.75C41.7549 147.913 41.8221 148.137 41.8228 148.42C41.8239 148.791 41.7204 149.162 41.5123 149.539C41.3042 149.91 40.9819 150.26 40.5503 150.575C40.7072 150.572 40.8308 150.588 40.9117 150.628C41.088 150.713 41.2548 150.846 41.4122 151.033ZM40.0887 150.301C40.364 150.142 40.5773 149.986 40.7338 149.83C40.8856 149.677 41.0038 149.505 41.0841 149.317C41.1644 149.128 41.2066 148.946 41.2061 148.777C41.2054 148.531 41.1242 148.376 40.9672 148.308C40.8148 148.238 40.568 148.304 40.231 148.499L38.798 149.326L38.8028 151.043L40.0887 150.301Z" fill="#212121"/>
<path d="M46.0447 144.563L46.0464 145.18L43.3749 146.722L43.3794 148.314L45.8849 146.868L45.8866 147.478L43.3812 148.925L43.3861 150.697L46.1621 149.094L46.1638 149.705L42.7852 151.656L42.7705 146.454L46.0447 144.563Z" fill="#212121"/>
<path d="M50.2289 142.147L50.2306 142.764L48.7312 143.629L48.7441 148.215L48.1462 148.56L48.1332 143.975L46.6385 144.838L46.6367 144.221L50.2289 142.147Z" fill="#212121"/>
<path d="M54.4143 139.73L54.4228 142.735C54.4243 143.258 54.3733 143.708 54.2698 144.074C54.171 144.437 53.9867 144.795 53.7167 145.147C53.4467 145.494 53.0959 145.795 52.6594 146.047C52.2371 146.291 51.8857 146.406 51.6194 146.396C51.3485 146.383 51.1532 146.25 51.0385 146C50.9237 145.744 50.8607 145.349 50.8591 144.793L50.8506 141.788L51.4533 141.44L51.4618 144.445C51.4631 144.897 51.4972 145.211 51.5737 145.379C51.6456 145.551 51.7741 145.646 51.95 145.659C52.1306 145.67 52.3491 145.603 52.6053 145.456C53.0467 145.201 53.3595 144.905 53.5439 144.57C53.7332 144.231 53.8268 143.734 53.8249 143.08L53.8164 140.076L54.4143 139.73Z" fill="#212121"/>
<path d="M58.6338 141.091L59.4254 142.048L58.6757 142.481L58.07 141.75C57.8935 141.54 57.7505 141.382 57.6361 141.279C57.5217 141.181 57.4218 141.124 57.3315 141.111C57.2411 141.092 57.1507 141.101 57.0559 141.128C56.9894 141.15 56.8802 141.208 56.7236 141.298L56.0308 141.698L56.0373 144.004L55.4347 144.352L55.4199 139.151L57.4272 137.992C57.8352 137.756 58.1391 137.63 58.3481 137.602C58.562 137.571 58.7285 137.639 58.8573 137.805C58.9813 137.968 59.0438 138.194 59.0446 138.478C59.0457 138.849 58.9421 139.22 58.7388 139.594C58.5307 139.965 58.2086 140.315 57.7722 140.632C57.9338 140.627 58.0526 140.645 58.1383 140.683C58.3097 140.77 58.4764 140.903 58.6338 141.091ZM57.3151 140.356C57.5903 140.197 57.8038 140.041 57.9554 139.888C58.1118 139.732 58.2302 139.56 58.3104 139.371C58.3906 139.183 58.4281 139.003 58.4277 138.834C58.427 138.589 58.3505 138.431 58.1935 138.363C58.0365 138.295 57.7894 138.362 57.4573 138.553L56.0243 139.381L56.0291 141.098L57.3151 140.356Z" fill="#212121"/>
<path d="M63.545 134.461L63.5598 139.663L62.9429 140.019L60.5539 137.302L60.5654 141.391L59.9913 141.723L59.9766 136.521L60.5887 136.168L62.9824 138.876L62.9708 134.792L63.545 134.461Z" fill="#212121"/>
<path d="M99.1553 31.4495L99.3062 78.9462C99.3141 80.3676 99.8145 81.3682 100.624 81.8368L104.706 84.2193C104.611 84.1558 104.516 84.0923 104.429 84.0128L104.421 84.0049C104.357 83.9573 104.302 83.9018 104.246 83.8382L104.238 83.8302C104.167 83.7508 104.103 83.6714 104.04 83.576L104.032 83.5681C103.96 83.4729 103.897 83.3696 103.849 83.2585C103.801 83.179 103.762 83.0918 103.73 82.9964C103.69 82.9092 103.658 82.8138 103.627 82.7106C103.595 82.6152 103.571 82.5041 103.547 82.4008C103.531 82.3373 103.523 82.2738 103.515 82.2102C103.515 82.2023 103.508 82.1864 103.508 82.1784C103.5 82.123 103.492 82.0594 103.484 82.0037C103.476 81.9244 103.468 81.8449 103.46 81.7654C103.452 81.6304 103.444 81.4954 103.444 81.3604L103.293 33.864C103.285 31.005 105.286 27.5266 107.78 26.0891L147.456 3.21135C148.322 2.71104 149.132 2.52843 149.815 2.61573C149.91 2.62374 150.005 2.64754 150.093 2.67134C150.101 2.67134 150.109 2.67134 150.109 2.67134C150.196 2.69524 150.283 2.72694 150.371 2.75874C150.387 2.76664 150.395 2.76664 150.411 2.77464C150.49 2.80645 150.561 2.84604 150.633 2.88574L146.527 0.487363C145.709 0.0109513 144.573 0.0744504 143.319 0.797176L103.643 23.6748C101.157 25.1121 99.1473 28.5905 99.1553 31.4495Z" fill="#212121"/>
<path d="M104.705 84.3961C104.675 84.3961 104.644 84.3881 104.617 84.3718L100.535 81.9893C99.6358 81.4696 99.1363 80.389 99.1286 78.9466L98.9776 31.4496V31.4493C98.97 28.5407 101.022 24.9836 103.554 23.5205L143.23 0.642611C144.5 -0.088434 145.702 -0.199325 146.616 0.333216L150.721 2.73181C150.805 2.78067 150.834 2.88809 150.786 2.97254C150.738 3.05774 150.631 3.08648 150.546 3.04015C150.478 3.00203 150.414 2.96664 150.344 2.93832C150.339 2.93653 150.295 2.91852 150.291 2.91652C150.225 2.89398 150.153 2.86765 150.079 2.84649C150.067 2.84543 150.054 2.84375 150.045 2.84164C149.968 2.82048 149.884 2.79899 149.8 2.79173C149.115 2.7058 148.342 2.90399 147.544 3.36407L107.868 26.2423C105.436 27.6444 103.462 31.0629 103.47 33.8626L103.621 81.359C103.621 81.4914 103.628 81.6223 103.637 81.754L103.682 82.1514C103.688 82.1691 103.692 82.1906 103.692 82.2093C103.699 82.2525 103.705 82.3049 103.718 82.3572C103.746 82.4775 103.767 82.5716 103.795 82.6538C103.824 82.7536 103.854 82.8412 103.891 82.9216C103.924 83.0203 103.959 83.0965 104.001 83.1672C104.05 83.2768 104.104 83.3689 104.173 83.461C104.245 83.565 104.304 83.6381 104.37 83.7111C104.434 83.7829 104.479 83.8266 104.527 83.8623C104.628 83.9537 104.716 84.0119 104.803 84.0701C104.883 84.1235 104.906 84.2308 104.856 84.3124C104.822 84.366 104.764 84.3961 104.705 84.3961ZM99.3323 31.4482L99.4834 78.9449C99.4903 80.2559 99.9268 81.2281 100.713 81.6827L103.747 83.4535C103.723 83.4116 103.703 83.3696 103.685 83.3277C103.64 83.2557 103.595 83.1555 103.561 83.0509C103.525 82.9757 103.491 82.8728 103.457 82.7613C103.427 82.6737 103.402 82.5673 103.38 82.4664C103.358 82.3774 103.349 82.3119 103.341 82.2461C103.338 82.2346 103.33 82.2097 103.33 82.1779L103.283 81.7819C103.274 81.6371 103.266 81.4988 103.266 81.3599L103.115 33.8639C103.107 30.9509 105.16 27.3937 107.691 25.9348L147.367 3.05689C148.097 2.63493 148.82 2.41694 149.479 2.41694L146.437 0.639555C145.639 0.174938 144.562 0.28446 143.407 0.95032L103.731 23.8279C101.298 25.234 99.3254 28.653 99.3323 31.4482Z" fill="#383C43"/>
<path d="M103.293 33.8631L103.444 81.3596C103.444 81.4946 103.452 81.6296 103.46 81.7646C103.468 81.844 103.476 81.9235 103.484 82.0028C103.492 82.0584 103.5 82.122 103.507 82.1775C103.507 82.1855 103.515 82.2014 103.515 82.2093C103.523 82.2729 103.531 82.3364 103.547 82.3999C103.571 82.5032 103.595 82.6143 103.627 82.7097C103.658 82.8128 103.69 82.9082 103.73 82.9955C103.762 83.0909 103.801 83.1781 103.849 83.2576C103.904 83.3687 103.968 83.472 104.032 83.5672L104.039 83.5751C104.103 83.6705 104.166 83.7499 104.238 83.8293L104.246 83.8373C104.301 83.9009 104.357 83.9564 104.421 84.004L104.428 84.0119C104.516 84.0914 104.611 84.155 104.706 84.2185L104.714 84.2264C105.532 84.7268 106.684 84.6713 107.955 83.9326L147.631 61.0629C150.124 59.6254 152.134 56.1391 152.126 53.28L151.975 5.79144C151.967 4.35409 151.458 3.35346 150.633 2.88474C150.561 2.84514 150.49 2.80544 150.41 2.77364C150.394 2.76564 150.386 2.76564 150.37 2.75774C150.283 2.72594 150.196 2.69413 150.108 2.67033C150.108 2.67033 150.1 2.67033 150.093 2.67033C150.005 2.64653 149.91 2.62273 149.815 2.61473C149.131 2.52743 148.321 2.71003 147.456 3.21035L107.78 26.0881C105.286 27.5257 103.285 31.0041 103.293 33.8631Z" fill="#FFF7E4"/>
<path d="M105.929 84.7286C105.448 84.7286 105.004 84.6125 104.622 84.3786C104.611 84.372 104.593 84.3561 104.584 84.3475C104.505 84.298 104.403 84.229 104.309 84.1441C104.247 84.0963 104.183 84.0353 104.112 83.955C104.029 83.8625 103.96 83.7769 103.892 83.674C103.816 83.5655 103.749 83.4561 103.69 83.3383C103.641 83.2561 103.595 83.156 103.562 83.0514C103.526 82.9762 103.491 82.8734 103.457 82.7618C103.428 82.6742 103.403 82.5679 103.38 82.467C103.359 82.378 103.349 82.3125 103.341 82.2467C103.338 82.2352 103.33 82.2102 103.33 82.1784L103.283 81.7825C103.274 81.6377 103.266 81.4994 103.266 81.3605L103.115 33.8645V33.8641C103.108 30.9514 105.16 27.3944 107.691 25.9354L147.367 3.05756C148.232 2.55767 149.086 2.34252 149.837 2.43982C149.929 2.44741 150.029 2.47026 150.121 2.49522C150.134 2.49627 150.147 2.49796 150.156 2.50006C150.244 2.52428 150.332 2.55588 150.42 2.58768C150.46 2.60253 150.472 2.60705 150.489 2.61569C150.56 2.64339 150.636 2.6853 150.713 2.72721C151.636 3.25112 152.144 4.33789 152.152 5.79135L152.303 53.2801C152.311 56.1956 150.255 59.7561 147.719 61.2176L108.043 84.0875C107.311 84.5131 106.586 84.7286 105.929 84.7286ZM103.47 33.8629L103.621 81.3596C103.621 81.4919 103.629 81.6228 103.637 81.7546L103.683 82.152C103.688 82.1697 103.693 82.1912 103.693 82.2098C103.699 82.2531 103.706 82.3054 103.719 82.3578C103.747 82.478 103.767 82.5722 103.795 82.6543C103.825 82.7542 103.854 82.8418 103.891 82.9221C103.925 83.0209 103.959 83.097 104.001 83.1678C104.06 83.2828 104.119 83.3799 104.179 83.4692C104.246 83.5655 104.304 83.6386 104.37 83.7117C104.434 83.7834 104.48 83.8271 104.528 83.8628C104.628 83.9542 104.716 84.0125 104.803 84.0707C104.812 84.0766 104.83 84.0922 104.837 84.0991C105.607 84.5659 106.695 84.4612 107.865 83.7801L147.542 60.9098C149.979 59.5052 151.956 56.0829 151.949 53.2811L151.797 5.79303C151.791 4.47195 151.346 3.49427 150.545 3.03966C150.478 3.00259 150.415 2.96721 150.344 2.93888C150.34 2.93709 150.296 2.91908 150.292 2.91708C150.226 2.89454 150.153 2.86822 150.08 2.84705C150.067 2.846 150.054 2.84431 150.046 2.84221C149.969 2.82104 149.884 2.79956 149.801 2.79229C149.116 2.70636 148.343 2.90455 147.545 3.36464L107.869 26.2428C105.436 27.645 103.463 31.0635 103.47 33.8629Z" fill="#383C43"/>
<path d="M109.7 32.13C110.542 31.6438 111.222 32.0441 111.225 33.0116C111.228 33.9919 110.552 35.1623 109.71 35.6485C108.846 36.1472 108.166 35.7598 108.163 34.7795C108.16 33.812 108.836 32.6287 109.7 32.13Z" fill="#383C43"/>
<path d="M109.004 36.0442C108.828 36.0442 108.665 36.0031 108.521 35.9196C108.178 35.7224 107.988 35.3177 107.986 34.78C107.984 33.7355 108.699 32.5041 109.613 31.9768C110.074 31.7101 110.519 31.6723 110.864 31.8705C111.21 32.07 111.402 32.475 111.403 33.0114C111.407 34.055 110.703 35.2811 109.8 35.8021C109.521 35.9633 109.25 36.0442 109.004 36.0442ZM110.378 32.1001C110.202 32.1001 110.001 32.1619 109.79 32.2838C108.989 32.746 108.339 33.8654 108.341 34.7794C108.342 35.1847 108.469 35.4806 108.697 35.6123C108.931 35.7467 109.26 35.7044 109.622 35.4952C110.412 35.0392 111.052 33.9253 111.048 33.0124C111.048 32.6077 110.919 32.3115 110.687 32.1782C110.597 32.1258 110.493 32.1001 110.378 32.1001Z" fill="#212121"/>
<path d="M115.307 32.4056C115.132 32.4056 114.968 32.364 114.823 32.2809C114.48 32.0834 114.29 31.6787 114.289 31.1413C114.286 30.0971 115 28.8658 115.915 28.3382C116.376 28.0714 116.821 28.0336 117.166 28.2318C117.513 28.431 117.705 28.8364 117.706 29.3727C117.709 30.4169 117.005 31.6427 116.103 32.1635C115.824 32.3242 115.554 32.4056 115.307 32.4056ZM116.68 28.4615C116.504 28.4615 116.303 28.5232 116.092 28.6451C115.291 29.1077 114.641 30.2268 114.644 31.1407C114.645 31.546 114.771 31.8416 115 31.9733C115.233 32.1073 115.563 32.0662 115.925 31.8565C116.714 31.4009 117.354 30.287 117.351 29.3734C117.35 28.9692 117.222 28.6729 116.989 28.5395C116.899 28.4871 116.795 28.4615 116.68 28.4615Z" fill="#383C43"/>
<path d="M121.607 28.7665C121.432 28.7665 121.268 28.7249 121.124 28.6418C120.781 28.4447 120.591 28.04 120.59 27.5023C120.587 26.4584 121.301 25.2267 122.215 24.6987C122.678 24.4312 123.122 24.3941 123.467 24.5926C123.813 24.7919 124.005 25.1972 124.007 25.7335C124.009 26.7775 123.305 28.0032 122.403 28.5243C122.124 28.6851 121.854 28.7665 121.607 28.7665ZM122.393 25.0058C121.592 25.4686 120.942 26.588 120.945 27.5017C120.946 27.907 121.072 28.2029 121.301 28.3345C121.534 28.4683 121.862 28.4264 122.225 28.2174C123.014 27.7615 123.655 26.6479 123.652 25.7344C123.651 25.3301 123.522 25.0339 123.29 24.9001C123.059 24.7681 122.741 24.8053 122.393 25.0058Z" fill="#383C43"/>
<path d="M120.524 37.6797L110.09 51.3842L120.567 53.0205L120.556 48.8405L141.716 36.6233L141.697 29.6426L120.536 41.8597L120.524 37.6797Z" fill="#978050"/>
<path d="M133.803 49.0078L133.815 53.188L112.654 65.4052L112.674 72.3858L133.835 60.1686L133.847 64.3435L144.281 50.639L133.803 49.0078Z" fill="#212121"/>
<path d="M156.273 182.001C155.261 182.001 154.249 181.778 153.476 181.332L141.571 174.456C141.486 174.407 141.457 174.299 141.506 174.214C141.556 174.128 141.665 174.1 141.748 174.149L153.654 181.025C155.1 181.86 157.447 181.86 158.884 181.025L177.919 169.963C178.003 169.913 178.112 169.942 178.161 170.027C178.211 170.112 178.182 170.221 178.098 170.27L159.063 181.332C158.295 181.777 157.285 182.001 156.273 182.001Z" fill="#DBDEE4"/>
<path d="M175.935 168.683C174.626 169.439 174.618 170.665 175.919 171.421C177.22 172.177 179.337 172.177 180.647 171.421C181.956 170.665 181.962 169.439 180.661 168.683C179.361 167.927 177.244 167.927 175.935 168.683Z" fill="white"/>
<path d="M178.279 172.163C177.391 172.163 176.504 171.967 175.83 171.575C175.146 171.178 174.77 170.639 174.771 170.057C174.772 169.472 175.154 168.93 175.847 168.53C177.202 167.746 179.401 167.747 180.751 168.53C181.435 168.928 181.811 169.467 181.811 170.048C181.809 170.633 181.427 171.175 180.735 171.575C180.057 171.967 179.168 172.163 178.279 172.163ZM178.301 168.292C177.477 168.292 176.653 168.474 176.024 168.837C175.445 169.171 175.126 169.605 175.125 170.058C175.125 170.507 175.438 170.937 176.009 171.268C177.257 171.994 179.299 171.995 180.558 171.268C181.136 170.934 181.455 170.501 181.456 170.048C181.456 169.598 181.143 169.168 180.572 168.837C179.947 168.474 179.125 168.292 178.301 168.292Z" fill="#DBDEE4"/>
<path d="M178.284 170.917C178.795 170.917 179.289 170.801 179.64 170.598C179.921 170.435 180.083 170.235 180.083 170.05C180.084 169.866 179.925 169.669 179.648 169.508C179.3 169.305 178.808 169.189 178.298 169.189C177.788 169.189 177.295 169.306 176.944 169.508C176.662 169.671 176.5 169.871 176.5 170.057C176.5 170.241 176.658 170.438 176.935 170.599C177.282 170.801 177.774 170.917 178.284 170.917Z" fill="#FFBE2E"/>
<path d="M166.758 177.478C167.306 177.478 167.837 177.353 168.214 177.136C168.516 176.961 168.69 176.746 168.69 176.547C168.691 176.35 168.52 176.137 168.223 175.965C167.849 175.748 167.321 175.623 166.773 175.623C166.226 175.623 165.696 175.748 165.319 175.965C165.016 176.14 164.842 176.355 164.842 176.555C164.842 176.752 165.012 176.964 165.309 177.136C165.682 177.354 166.21 177.478 166.758 177.478Z" fill="#383C43"/>
<path d="M67.3804 174.043C66.4096 174.043 65.4375 173.83 64.696 173.402L46.3308 162.798C46.2462 162.749 46.2172 162.641 46.2656 162.556C46.3148 162.471 46.4243 162.442 46.5081 162.491L64.8734 173.095C66.2585 173.894 68.505 173.894 69.8804 173.095L88.1264 162.491C88.2116 162.442 88.3198 162.47 88.369 162.556C88.4181 162.64 88.3897 162.749 88.3053 162.798L70.0592 173.402C69.322 173.829 68.3519 174.043 67.3804 174.043Z" fill="#DBDEE4"/>
<path d="M87.4083 160.49C86.1254 161.231 86.1181 162.432 87.3926 163.173C88.6671 163.913 90.7415 163.913 92.0243 163.172C93.3072 162.432 93.3134 161.231 92.0388 160.49C90.7644 159.75 88.6911 159.749 87.4083 160.49Z" fill="white"/>
<path d="M89.7049 163.902C88.8339 163.902 87.9643 163.71 87.3033 163.327C86.6326 162.936 86.2639 162.407 86.2646 161.836C86.2654 161.262 86.6402 160.729 87.3199 160.337C88.6497 159.569 90.806 159.569 92.1288 160.337C92.7996 160.727 93.1689 161.257 93.1682 161.827C93.1675 162.402 92.7933 162.934 92.1135 163.326C91.4483 163.71 90.5759 163.902 89.7049 163.902ZM89.7264 160.11C88.9199 160.11 88.1133 160.288 87.4973 160.644C86.9319 160.97 86.6201 161.394 86.6193 161.837C86.6186 162.276 86.9249 162.696 87.482 163.02C88.705 163.731 90.7034 163.73 91.9361 163.019C92.5015 162.693 92.8127 162.269 92.8133 161.827C92.8139 161.388 92.5077 160.968 91.9499 160.644C91.3382 160.288 90.533 160.11 89.7264 160.11Z" fill="#DBDEE4"/>
<path d="M89.707 162.677C90.2071 162.677 90.6911 162.564 91.0349 162.365C91.311 162.206 91.4695 162.01 91.4698 161.828C91.47 161.648 91.3147 161.455 91.0435 161.297C90.7026 161.099 90.2206 160.985 89.7211 160.985C89.2214 160.985 88.7378 161.099 88.3942 161.297C88.1179 161.457 87.9593 161.653 87.959 161.835C87.9588 162.015 88.114 162.208 88.3848 162.366C88.7256 162.564 89.2075 162.677 89.707 162.677Z" fill="#FFBE2E"/>
<path d="M78.4144 169.106C78.9515 169.106 79.4713 168.984 79.8406 168.771C80.1372 168.6 80.3073 168.389 80.3076 168.194C80.308 168.001 80.141 167.793 79.8499 167.624C79.4837 167.411 78.966 167.289 78.4296 167.289C77.8929 167.289 77.3736 167.411 77.0046 167.624C76.7078 167.796 76.5374 168.006 76.5371 168.202C76.5369 168.395 76.7036 168.603 76.9946 168.772C77.3604 168.985 77.8779 169.106 78.4144 169.106Z" fill="#383C43"/>
</svg>
