<svg width="240" height="240" viewBox="0 0 240 240" fill="none" xmlns="http://www.w3.org/2000/svg">
<mask id="mask0_4756_47393" style="mask-type:alpha" maskUnits="userSpaceOnUse" x="0" y="0" width="240" height="240">
<rect width="240" height="240" fill="#D9D9D9"/>
</mask>
<g mask="url(#mask0_4756_47393)">
<mask id="mask1_4756_47393" style="mask-type:alpha" maskUnits="userSpaceOnUse" x="17" y="17" width="206" height="206">
<rect x="17" y="17" width="206" height="206" fill="#D9D9D9"/>
</mask>
<g mask="url(#mask1_4756_47393)">
<path d="M75.7805 214.915C75.7163 214.915 75.6536 214.881 75.6182 214.819C75.5651 214.727 75.5946 214.607 75.6839 214.553L112.633 191.946C113.111 191.659 113.374 191.291 113.373 190.907C113.373 190.52 113.106 190.148 112.622 189.859L98.2614 181.305C98.1715 181.251 98.1404 181.132 98.1921 181.039C98.2445 180.945 98.3611 180.914 98.4503 180.968L112.811 189.522C113.417 189.883 113.75 190.374 113.751 190.906C113.752 191.435 113.423 191.923 112.825 192.282L75.8771 214.888C75.8469 214.906 75.8137 214.915 75.7805 214.915Z" fill="#DBDEE4"/>
<path d="M185.003 220.881C183.943 220.881 182.881 220.64 182.072 220.158L162.004 208.203C161.915 208.15 161.883 208.031 161.935 207.937C161.988 207.843 162.104 207.812 162.193 207.866L182.261 219.82C183.776 220.722 186.233 220.723 187.737 219.82L207.674 207.866C207.765 207.812 207.88 207.843 207.932 207.937C207.985 208.03 207.954 208.149 207.864 208.203L187.927 220.158C187.122 220.64 186.064 220.881 185.003 220.881Z" fill="#DBDEE4"/>
<path d="M84.6097 76.4912L32.2686 107.875L32.3353 83.5851" fill="white"/>
<path d="M32.2689 108.069C32.2365 108.069 32.204 108.061 32.1745 108.043C32.1162 108.008 32.0801 107.944 32.0801 107.874L32.1473 83.5843C32.1473 83.4766 32.2321 83.3898 32.3361 83.3898C32.3361 83.3898 32.3361 83.3898 32.3369 83.3898C32.4409 83.3901 32.525 83.4778 32.525 83.585L32.4586 107.535L84.515 76.3222C84.6049 76.2685 84.7208 76.2994 84.7732 76.393C84.8255 76.4858 84.7953 76.6054 84.7053 76.6594L32.3641 108.043C32.3346 108.061 32.3014 108.069 32.2689 108.069Z" fill="#373B42"/>
<path d="M32.3343 83.5843L32.2676 107.874L27.1641 104.834L27.2308 80.5391" fill="#FFBE2E"/>
<path d="M32.2667 108.068C32.2342 108.068 32.2017 108.06 32.1722 108.042L27.069 105.002C27.0108 104.967 26.9746 104.903 26.9746 104.833L27.041 80.5383C27.041 80.4306 27.1258 80.3438 27.2299 80.3438C27.2299 80.3438 27.2299 80.3438 27.2307 80.3438C27.3347 80.3441 27.4188 80.4316 27.4188 80.5389L27.3524 104.721L32.0787 107.537L32.1451 83.5835C32.1451 83.4758 32.2299 83.389 32.334 83.389C32.334 83.389 32.334 83.389 32.3347 83.389C32.4388 83.3893 32.5228 83.477 32.5228 83.5842L32.4556 107.874C32.4556 107.944 32.4195 108.008 32.3612 108.043C32.3316 108.06 32.2991 108.068 32.2667 108.068Z" fill="#373B42"/>
<g opacity="0.1">
<path d="M65.1182 182.626C64.0151 183.283 64.0094 184.347 65.1053 185.004L84.0813 196.398C85.1772 197.055 86.958 197.055 88.061 196.398L118.15 178.474C119.253 177.817 119.259 176.752 118.163 176.095L99.1871 164.702C98.0911 164.045 96.3105 164.045 95.2074 164.702L65.1182 182.626Z" fill="black"/>
</g>
<path d="M118.982 172.989C118.982 173.717 118.734 174.227 118.329 174.468L88.7363 192.211C89.1415 191.971 89.3816 191.46 89.389 190.74C89.389 189.277 88.3911 187.489 87.1606 186.761L70.8458 177.036C70.6808 176.935 70.5382 176.811 70.4256 176.68C70.178 176.385 70.0505 176.053 69.9829 175.836C69.8929 175.549 69.8104 175.069 70.088 174.821L99.7331 157.039C99.403 157.279 99.4929 157.782 99.583 158.092C99.643 158.301 99.7631 158.634 100.018 158.928C100.131 159.067 100.273 159.191 100.446 159.292L116.753 169.01C117.991 169.737 118.989 171.533 118.982 172.989Z" fill="#FFF7E4"/>
<path d="M88.7357 192.404C88.6707 192.404 88.6073 192.369 88.572 192.307C88.5203 192.214 88.5505 192.095 88.6406 192.041L88.651 192.035C88.9984 191.823 89.1932 191.363 89.1999 190.737C89.1999 189.334 88.243 187.625 87.0669 186.928L70.7509 177.203C70.5731 177.094 70.4123 176.957 70.2839 176.807C70.0759 176.56 69.9143 176.253 69.8029 175.893C69.6354 175.359 69.6937 174.914 69.9637 174.673L99.6373 156.869C99.7252 156.817 99.8366 156.845 99.8911 156.932C99.9457 157.02 99.9243 157.137 99.8417 157.197C99.6226 157.357 99.6779 157.741 99.7635 158.035C99.8505 158.339 99.9833 158.595 100.159 158.797C100.265 158.928 100.391 159.035 100.539 159.121L116.847 168.84C118.136 169.597 119.178 171.458 119.17 172.988C119.17 173.765 118.904 174.35 118.422 174.635L88.8412 192.372C88.8375 192.374 88.8338 192.376 88.8293 192.379C88.7999 192.396 88.7675 192.404 88.7357 192.404ZM99.3125 157.515L70.1827 174.989C69.9924 175.163 70.1185 175.634 70.1628 175.774C70.258 176.083 70.3945 176.344 70.5679 176.55C70.6697 176.67 70.7996 176.779 70.9419 176.867L87.255 186.591C88.5358 187.348 89.5775 189.209 89.5775 190.739C89.5746 191.043 89.5317 191.316 89.4528 191.554L118.233 174.298C118.594 174.084 118.792 173.619 118.792 172.987C118.792 172.987 118.792 172.986 118.792 172.986C118.799 171.606 117.823 169.861 116.659 169.178L100.351 159.459C100.166 159.351 100.005 159.214 99.8733 159.051C99.6645 158.811 99.5044 158.505 99.4018 158.146C99.328 157.893 99.3037 157.685 99.3125 157.515Z" fill="#373B42"/>
<path d="M116.756 169.007C117.994 169.735 118.992 171.531 118.984 172.986C118.984 173.714 118.737 174.225 118.331 174.465L88.7388 192.208C89.1439 191.968 89.384 191.457 89.3915 190.737C89.3915 189.274 88.3935 187.486 87.1631 186.758" fill="#212121"/>
<path d="M88.7386 192.402C88.6736 192.402 88.6102 192.367 88.5748 192.304C88.5231 192.211 88.5534 192.092 88.6434 192.038L88.6531 192.033C89.0013 191.821 89.1961 191.361 89.2026 190.734C89.2026 189.331 88.2458 187.622 87.0697 186.926C86.9789 186.872 86.9479 186.753 86.9996 186.66C87.0513 186.566 87.1663 186.535 87.2571 186.588C88.5387 187.346 89.5804 189.207 89.5804 190.736C89.5775 191.04 89.5346 191.314 89.4557 191.551L118.236 174.295C118.597 174.081 118.795 173.616 118.795 172.984C118.802 171.603 117.826 169.858 116.662 169.175C116.571 169.121 116.54 169.002 116.592 168.909C116.644 168.815 116.758 168.783 116.85 168.836C118.139 169.594 119.181 171.455 119.173 172.985C119.173 173.761 118.907 174.347 118.425 174.632L88.844 192.369C88.8403 192.371 88.8367 192.373 88.8322 192.376C88.8027 192.393 88.7704 192.402 88.7386 192.402Z" fill="#212121"/>
<path d="M72.2675 153.157C73.5054 153.894 74.4986 155.674 74.4946 157.136L74.4645 168.082C74.4571 170.752 73.5743 172.747 71.9739 173.682L70.1896 174.737C69.7995 174.966 69.8876 175.517 69.9851 175.836C70.0737 176.148 70.3049 176.716 70.8501 177.041L87.1609 186.756C88.3898 187.488 89.392 189.279 89.388 190.736C89.3839 192.204 88.3753 192.786 87.1464 192.054L70.8356 182.339C68.6416 181.032 66.6796 178.308 65.8462 175.397C65.0127 172.491 65.4849 170.024 67.0361 169.101L68.8249 168.06C69.5781 167.617 69.9924 166.681 69.9958 165.42L70.0259 154.474C70.03 153.012 71.0387 152.425 72.2675 153.157Z" fill="#212121"/>
<path d="M88.1487 192.565C87.8086 192.565 87.4353 192.45 87.0523 192.222L70.7414 182.506C68.503 181.173 66.511 178.404 65.6647 175.451C64.8081 172.462 65.3091 169.903 66.9418 168.931L68.7323 167.889C69.4221 167.484 69.8036 166.606 69.8073 165.418L69.8376 154.473C69.8398 153.697 70.1061 153.112 70.5886 152.825C71.0748 152.537 71.7057 152.596 72.3623 152.987C73.646 153.751 74.6878 155.613 74.6841 157.135L74.6539 168.081C74.6465 170.831 73.7279 172.88 72.0672 173.851L70.284 174.905C69.9897 175.078 70.1025 175.572 70.1653 175.776C70.2472 176.062 70.4552 176.579 70.9451 176.871L87.256 186.586C88.5405 187.352 89.5815 189.213 89.5771 190.736C89.5748 191.512 89.3093 192.098 88.8274 192.384C88.6238 192.505 88.3952 192.565 88.1487 192.565ZM71.269 153.034C71.0875 153.034 70.9222 153.077 70.7769 153.163C70.4162 153.377 70.2169 153.843 70.2155 154.473L70.1852 165.419C70.1816 166.753 69.7315 167.751 68.9192 168.228L67.1293 169.27C65.6545 170.147 65.2213 172.53 66.0271 175.341C66.8468 178.203 68.7716 180.883 70.9304 182.169L87.2413 191.884C87.7791 192.204 88.2749 192.262 88.6394 192.046C88.9987 191.833 89.1979 191.367 89.1993 190.735C89.2038 189.337 88.2469 187.627 87.0671 186.924L70.7563 177.209C70.1528 176.849 69.9004 176.228 69.8037 175.89C69.6149 175.271 69.7211 174.788 70.0966 174.567L71.8806 173.513C73.4181 172.613 74.2688 170.684 74.2762 168.08L74.3064 157.135C74.3101 155.736 73.3532 154.027 72.1734 153.324C71.8503 153.132 71.5427 153.034 71.269 153.034Z" fill="#373B42"/>
<path d="M101.572 155.936C103.168 154.998 104.057 153.005 104.064 150.333L104.092 139.392C104.092 137.926 103.105 136.15 101.866 135.413C101.243 135.038 100.684 135.009 100.278 135.255L70.6789 152.997C71.0849 152.752 71.6518 152.788 72.2677 153.156C73.5065 153.893 74.5003 155.676 74.4933 157.135L74.4653 168.083C74.4582 170.574 73.6885 172.473 72.2886 173.47C72.2816 173.484 72.2747 173.491 72.2677 173.491L70.1889 174.733C70.1539 174.755 70.1188 174.777 70.0908 174.82L99.7316 157.041L101.572 155.936Z" fill="#FFF7E4"/>
<path d="M70.0902 175.013C70.0393 175.013 69.989 174.992 69.953 174.952C69.8925 174.886 69.8843 174.786 69.933 174.71C69.9839 174.631 70.0466 174.592 70.0887 174.566L72.1516 173.333C72.1604 173.323 72.17 173.315 72.181 173.307C73.5252 172.35 74.2689 170.494 74.2756 168.08L74.3037 157.133C74.311 155.734 73.3549 154.025 72.1722 153.323C71.6439 153.006 71.1364 152.947 70.7801 153.159L70.7733 153.164C70.6818 153.217 70.5667 153.186 70.5152 153.093C70.4628 153 70.4931 152.881 70.583 152.827C70.583 152.827 70.583 152.827 70.583 152.826L70.5845 152.826C70.5859 152.825 70.5874 152.824 70.589 152.823L100.182 135.084C100.67 134.789 101.302 134.845 101.961 135.243C103.261 136.016 104.281 137.838 104.281 139.39L104.253 150.331C104.245 153.076 103.326 155.126 101.666 156.103L70.1855 174.987C70.1558 175.004 70.1226 175.013 70.0902 175.013ZM71.5857 152.677C71.8365 152.725 72.0985 152.829 72.3611 152.986C73.6478 153.75 74.6888 155.612 74.6813 157.134L74.6533 168.081C74.6482 169.938 74.2203 171.488 73.4271 172.591L101.476 155.766C101.477 155.766 101.478 155.765 101.478 155.765C103.017 154.86 103.867 152.93 103.875 150.33L103.903 139.39C103.903 137.988 102.946 136.279 101.771 135.58C101.234 135.256 100.738 135.2 100.373 135.421L71.5857 152.677Z" fill="#373B42"/>
<path d="M142.972 31.2758C142.962 27.8239 140.594 26.4317 137.683 28.1659L35.1071 89.2698C32.1955 91.004 29.8431 95.2081 29.8526 98.6601L30.0488 170.082L143.168 102.698L142.972 31.2758Z" fill="#373B42"/>
<path d="M30.0482 170.276C30.0157 170.276 29.9832 170.267 29.9538 170.25C29.8955 170.215 29.8593 170.151 29.8593 170.081L29.6631 98.6596C29.6535 95.1511 32.0528 90.8625 35.0121 89.1003L137.587 27.9967C139.062 27.1179 140.458 26.982 141.518 27.6119C142.572 28.2376 143.155 29.5382 143.16 31.2745L143.356 102.696C143.356 102.766 143.32 102.831 143.262 102.865L30.1426 170.249C30.1131 170.267 30.0807 170.276 30.0482 170.276ZM140.046 27.6118C139.354 27.6118 138.581 27.8542 137.776 28.3339L35.2008 89.4373C32.3464 91.1379 30.0312 95.2744 30.0408 98.6588L30.2364 169.744L142.978 102.584L142.782 31.2752C142.778 29.6842 142.262 28.5028 141.33 27.9494C140.95 27.7241 140.517 27.6118 140.046 27.6118Z" fill="#373B42"/>
<path d="M32.2237 98.6517C32.2167 96.0768 34.1179 92.6821 36.2924 91.3871L138.868 30.2834C139.502 29.9059 139.904 29.8652 140.048 29.8652C140.556 29.8652 140.599 30.9488 140.6 31.2809L140.793 104.111L32.408 168.679L32.2237 98.6517Z" fill="#FFF7E4"/>
<path d="M32.4076 168.874C32.3751 168.874 32.3426 168.865 32.3131 168.848C32.2549 168.813 32.2187 168.749 32.2187 168.679L32.0342 98.6517C32.0275 96.0168 33.9731 92.543 36.1975 91.218L138.774 30.1144C139.447 29.7133 139.888 29.6699 140.047 29.6699C140.712 29.6699 140.787 30.7962 140.788 31.2802L140.981 104.11C140.981 104.18 140.945 104.244 140.887 104.279L32.5021 168.847C32.4724 168.865 32.44 168.874 32.4076 168.874ZM32.4119 98.6509L32.5956 168.342L140.603 103.998L140.41 31.281C140.409 30.6739 140.284 30.0596 140.047 30.0596C139.947 30.0596 139.573 30.0878 138.962 30.4516L36.3863 91.5552C34.2623 92.8204 32.4053 96.1363 32.4119 98.6509Z" fill="#373B42"/>
<path d="M30.0508 170.08L30.0798 180.647C30.0893 184.099 32.4571 185.491 35.3687 183.757L137.944 122.653C140.856 120.919 143.208 116.715 143.199 113.263L143.17 102.696L30.0508 170.08Z" fill="#FFBE2E"/>
<path d="M33.0031 184.7C32.4674 184.7 31.9716 184.57 31.5326 184.31C30.4791 183.684 29.8962 182.383 29.8911 180.647L29.8623 170.08C29.8623 170.011 29.8985 169.946 29.9567 169.911L143.076 102.527C143.135 102.492 143.206 102.492 143.265 102.527C143.323 102.561 143.359 102.626 143.359 102.695L143.388 113.262C143.397 116.77 140.998 121.059 138.039 122.821L35.4635 183.925C34.5996 184.44 33.7615 184.7 33.0031 184.7ZM30.24 170.192L30.2688 180.646C30.2733 182.237 30.7889 183.419 31.7207 183.972C32.6592 184.529 33.9222 184.394 35.2746 183.588L137.85 122.484C140.704 120.784 143.019 116.647 143.01 113.263L142.982 103.033L30.24 170.192Z" fill="#373B42"/>
<path d="M141.439 27.7825C140.479 27.2041 139.154 27.2916 137.684 28.1681L35.1068 89.2683C34.2573 89.7768 33.4503 90.5042 32.7452 91.3545C32.244 91.9417 31.8023 92.5816 31.42 93.2652C30.9443 94.1065 30.562 94.9918 30.2986 95.8859C30.0098 96.8238 29.8484 97.7618 29.8568 98.6555L30.0777 180.651C30.0862 182.36 30.6724 183.57 31.6153 184.14L25.5245 180.485C24.5815 179.915 23.9953 178.706 23.9868 176.996L23.766 95.0005C23.7575 94.1153 23.9104 93.1861 24.1908 92.257C24.4626 91.3633 24.8448 90.4779 25.3121 89.6452C25.7028 88.9617 26.1446 88.3043 26.6458 87.7169C27.3508 86.8579 28.1578 86.1306 29.0158 85.6222L131.593 24.5133C133.063 23.6368 134.388 23.5667 135.348 24.1365L141.439 27.7825Z" fill="#212121"/>
<path d="M31.6157 184.335C31.5832 184.335 31.5508 184.326 31.5205 184.309L25.4301 180.654C24.3861 180.022 23.807 178.724 23.7988 176.998L23.5775 95.0014C23.5693 94.1226 23.7154 93.1791 24.0113 92.1994C24.2843 91.2993 24.6672 90.4072 25.149 89.5481C25.5776 88.7994 26.0336 88.1406 26.505 87.5882C27.2377 86.6954 28.0743 85.9562 28.9228 85.4534L131.5 24.3448C132.971 23.4664 134.372 23.332 135.443 23.9677L141.519 27.6052C141.525 27.6082 141.53 27.6113 141.535 27.6147C141.625 27.6687 141.655 27.7879 141.603 27.8812C141.55 27.9745 141.433 28.0053 141.345 27.9516L141.345 27.9512C141.343 27.9504 141.341 27.9497 141.34 27.9489L141.338 27.947C140.402 27.3875 139.139 27.5268 137.779 28.3371L35.2022 89.4373C34.401 89.9168 33.6011 90.6237 32.8892 91.4815C32.4016 92.0535 31.9633 92.6861 31.5849 93.3629C31.1075 94.2067 30.7364 95.0741 30.4805 95.9426C30.1839 96.904 30.0386 97.8156 30.0466 98.6538L30.2672 180.651C30.2753 182.235 30.7881 183.414 31.711 183.972C31.801 184.026 31.8312 184.145 31.7789 184.238C31.7441 184.3 31.6807 184.335 31.6157 184.335ZM133.954 23.9627C133.262 23.9627 132.49 24.204 131.689 24.682L29.1109 85.791C28.3002 86.2717 27.4981 86.9812 26.7906 87.8433C26.3324 88.38 25.8905 89.0187 25.4751 89.7444C25.008 90.5776 24.6369 91.443 24.3713 92.3154C24.0872 93.2563 23.9478 94.1595 23.9552 94.9991L24.1765 176.996C24.1839 178.579 24.6966 179.759 25.6204 180.317L30.4956 183.243C30.1047 182.567 29.8944 181.687 29.8892 180.653L29.6687 98.6561C29.6599 97.778 29.8118 96.8257 30.1195 95.827C30.3829 94.9319 30.7665 94.0363 31.2579 93.1674C31.6482 92.4689 32.1011 91.8158 32.6043 91.2262C33.3413 90.3375 34.1751 89.6014 35.0132 89.1001L137.591 28C138.484 27.4671 139.367 27.1946 140.122 27.2197L135.254 24.3054C134.868 24.0765 134.43 23.9627 133.954 23.9627Z" fill="#373B42"/>
<path d="M32.744 91.3533C32.2428 91.9405 31.8011 92.5804 31.4188 93.264C30.9431 94.1053 30.5608 94.9906 30.2974 95.8847L24.1895 92.256C24.4612 91.3622 24.8435 90.4768 25.3107 89.6441C25.7015 88.9606 26.1433 88.3033 26.6444 87.7158L32.744 91.3533Z" fill="#FFBE2E"/>
<path d="M31.6147 184.336C31.5822 184.336 31.5497 184.328 31.5195 184.31L25.4261 180.654C24.383 180.023 23.8038 178.725 23.7949 176.998L23.5743 95.0012C23.5655 93.295 24.1239 91.3581 25.1458 89.5471C26.1543 87.7543 27.4942 86.3004 28.918 85.4536L131.496 24.3447C132.968 23.4666 134.369 23.3319 135.44 23.9676L141.533 27.6158C141.534 27.6158 141.534 27.6161 141.534 27.6161C141.624 27.6701 141.654 27.7893 141.602 27.8822C141.549 27.9758 141.432 28.0066 141.344 27.953L141.332 27.9462C140.396 27.3905 139.135 27.5294 137.778 28.3385L35.2003 89.4386C33.8317 90.2576 32.5472 91.6522 31.5823 93.3649C30.5834 95.1385 30.0374 97.0176 30.0455 98.6561L30.266 180.652C30.2742 182.235 30.7862 183.414 31.7077 183.972L31.7099 183.973C31.7099 183.973 31.7099 183.973 31.7099 183.973C31.7999 184.027 31.8301 184.146 31.7777 184.239C31.743 184.301 31.6796 184.336 31.6147 184.336ZM133.951 23.9625C133.258 23.9625 132.487 24.2038 131.685 24.6818L29.107 85.7912C27.7392 86.6045 26.4488 88.0083 25.4719 89.743C24.4833 91.4947 23.944 93.3616 23.952 94.9996L24.1726 176.996C24.1807 178.579 24.6935 179.759 25.6164 180.317L30.4946 183.244C30.1036 182.569 29.8933 181.688 29.8882 180.654L29.6677 98.6577C29.6588 96.9515 30.2232 95.0019 31.2561 93.1693C32.2528 91.3987 33.5867 89.9544 35.0114 89.1014L137.589 28.0012C138.482 27.4684 139.338 27.2092 140.122 27.2214L135.251 24.3051C134.865 24.0763 134.427 23.9625 133.951 23.9625Z" fill="#373B42"/>
<path d="M80.7683 148.347C80.7683 149.361 80.0823 150.589 79.227 151.098C78.3747 151.603 77.6827 151.201 77.6797 150.187C77.6767 149.174 78.3657 147.945 79.218 147.437C80.0702 146.929 80.7653 147.334 80.7683 148.347Z" fill="#373B42"/>
<path d="M88.0691 144.001C88.0691 145.014 87.3831 146.243 86.5278 146.751C85.6755 147.256 84.9835 146.854 84.9805 145.84C84.9775 144.827 85.6665 143.598 86.5188 143.09C87.371 142.582 88.0661 142.987 88.0691 144.001Z" fill="#373B42"/>
<path d="M95.3709 139.649C95.3709 140.663 94.6849 141.891 93.8296 142.399C92.9773 142.905 92.2853 142.502 92.2822 141.489C92.2792 140.476 92.9682 139.247 93.8205 138.739C94.6728 138.23 95.3679 138.636 95.3709 139.649Z" fill="#373B42"/>
<path d="M32.3333 83.7792C32.2683 83.7792 32.2049 83.7446 32.1702 83.6821C32.1178 83.5893 32.1481 83.4698 32.2381 83.4158L84.5793 52.0321C84.6384 51.9971 84.7099 51.9971 84.769 52.0321C84.8272 52.0668 84.8634 52.1315 84.8634 52.2011L84.7962 76.4909C84.7962 76.5986 84.7114 76.6854 84.6073 76.6854C84.6073 76.6854 84.6073 76.6854 84.6066 76.6854C84.5025 76.685 84.4184 76.5975 84.4184 76.4902L84.4848 52.5399L32.4285 83.753C32.3982 83.7709 32.3657 83.7792 32.3333 83.7792Z" fill="#373B42"/>
<path d="M33.4268 81.1024L85.7679 49.7188C85.0945 50.1225 84.6765 50.9805 84.6732 52.1991L32.332 83.5828C32.3355 82.3641 32.7534 81.5062 33.4268 81.1024Z" fill="white"/>
<path d="M32.3334 83.7783C32.3009 83.7783 32.2684 83.7695 32.239 83.752C32.1807 83.7174 32.1445 83.6526 32.1445 83.5831C32.1474 82.3328 32.5695 81.3923 33.3331 80.9344L85.6722 49.5527C85.6729 49.5519 85.6736 49.5515 85.6744 49.5507C85.7644 49.497 85.8802 49.5279 85.9326 49.6215C85.9849 49.7144 85.9547 49.8339 85.8647 49.8879C85.2213 50.2743 84.8665 51.0953 84.8635 52.2001C84.8635 52.2694 84.8273 52.3334 84.7699 52.3684L32.4286 83.752C32.3991 83.7695 32.3659 83.7783 32.3334 83.7783ZM84.8267 50.5104L33.5235 81.2717C32.9495 81.6153 32.6051 82.3065 32.5356 83.2372L84.4874 52.0868C84.5013 51.477 84.6178 50.9446 84.8267 50.5104Z" fill="#373B42"/>
<path d="M97.2928 59.7097L97.0585 142.796L44.7182 174.178L44.9449 91.092C44.9676 85.2927 41.0089 78.2304 36.1209 75.3152C33.658 73.8498 31.4294 73.7094 29.8125 74.6759L82.1604 43.2938C83.7695 42.3271 85.9983 42.4598 88.4612 43.9251C93.3492 46.8404 97.308 53.9104 97.2928 59.7097Z" fill="#FFF7E4"/>
<path d="M44.7181 174.371C44.6856 174.371 44.6531 174.363 44.6236 174.345C44.5654 174.311 44.5292 174.246 44.5292 174.176L44.7565 91.0906C44.7786 85.3681 40.8617 78.3669 36.0263 75.4825C33.7016 74.1006 31.5303 73.8737 29.9072 74.8435C29.8179 74.8968 29.7014 74.8659 29.6497 74.7727C29.5973 74.6798 29.6276 74.5603 29.7175 74.5063H29.7183C29.7183 74.5059 29.7191 74.5059 29.7198 74.5055L82.0654 43.1238C83.8073 42.0775 86.1129 42.3016 88.5556 43.7549C93.4929 46.7 97.4968 53.8566 97.4821 59.7089C97.4821 59.7089 97.4821 59.7089 97.4821 59.7093L97.2475 142.795C97.2475 142.864 97.2113 142.928 97.1539 142.963L44.8134 174.345C44.7838 174.363 44.7505 174.371 44.7181 174.371ZM32.1404 73.8607C33.3938 73.8607 34.7809 74.2915 36.2152 75.1449C41.1554 78.0915 45.1564 85.2451 45.1342 91.0917L44.9077 173.837L96.8697 142.682L97.1043 59.7081C97.119 53.98 93.1992 46.9751 88.3668 44.0924C86.0457 42.7115 83.8751 42.4881 82.2557 43.4606L31.4764 73.9026C31.6933 73.8747 31.9146 73.8607 32.1404 73.8607Z" fill="#373B42"/>
<path d="M27.2295 80.5376C27.2455 74.7373 31.224 72.398 36.1163 75.3124C41.0088 78.2268 44.9615 85.2906 44.9456 91.0909L44.7174 174.176L39.6051 171.131L39.8334 88.0507C39.8401 85.5977 38.1689 82.6058 36.0955 81.3707C34.0266 80.1382 32.3399 81.1299 32.3332 83.5828" fill="#212121"/>
<path d="M44.7173 174.37C44.6848 174.37 44.6524 174.361 44.6229 174.344L39.5101 171.299C39.4518 171.264 39.4157 171.199 39.4157 171.13L39.6444 88.0496C39.6511 85.6601 38.0161 82.7394 36.0004 81.539C35.0568 80.9767 34.1789 80.8809 33.5282 81.2672C32.8826 81.6508 32.5247 82.4734 32.5218 83.5828C32.5218 83.6905 32.437 83.7774 32.333 83.7774C32.333 83.7774 32.333 83.7774 32.3322 83.7774C32.2282 83.777 32.144 83.6895 32.144 83.5822C32.1477 82.3272 32.5719 81.3853 33.34 80.9293C34.1117 80.4703 35.1254 80.5677 36.1893 81.2018C38.3097 82.4643 40.0287 85.5369 40.0221 88.0504L39.7934 171.018L44.5292 173.839L44.7565 91.09C44.7727 85.3614 40.8544 78.3593 36.0219 75.4804C33.7082 74.1026 31.5435 73.8731 29.9226 74.8345C28.315 75.789 27.4252 77.8143 27.4179 80.5375C27.4179 80.6452 27.333 80.732 27.229 80.732C27.229 80.732 27.229 80.732 27.2282 80.732C27.1242 80.7317 27.04 80.6441 27.04 80.5368C27.0482 77.6686 28.0051 75.5234 29.7344 74.4966C31.4757 73.4629 33.7761 73.6927 36.2107 75.1432C41.1473 78.0838 45.1505 85.2382 45.1342 91.0908L44.9062 174.176C44.9062 174.245 44.87 174.31 44.8117 174.344C44.7823 174.361 44.7498 174.37 44.7173 174.37Z" fill="#373B42"/>
<path d="M44.0618 77.3267C43.9968 77.3267 43.9334 77.2921 43.8987 77.2297C43.8464 77.1368 43.8766 77.0173 43.9666 76.9632L88.9544 49.9936C89.0451 49.9391 89.1602 49.9703 89.2125 50.0644C89.2649 50.1572 89.2346 50.2767 89.1447 50.3307L44.157 77.3005C44.1267 77.3185 44.0943 77.3267 44.0618 77.3267Z" fill="#373B42"/>
<path d="M64.6577 77.8862C64.5927 77.8862 64.5293 77.8512 64.4939 77.7888C64.4422 77.6958 64.4725 77.5764 64.5632 77.5227L91.5425 61.4141C91.6303 61.3601 91.7476 61.3913 91.8006 61.4853C91.8523 61.5781 91.8221 61.6977 91.7313 61.7513L64.7521 77.8599C64.7225 77.8779 64.69 77.8862 64.6577 77.8862Z" fill="#373B42"/>
<path d="M64.6577 87.4076C64.5927 87.4076 64.5293 87.3729 64.4939 87.3105C64.4422 87.2173 64.4725 87.0982 64.5632 87.0442L84.3668 75.2121C84.4545 75.1581 84.5719 75.1888 84.625 75.2829C84.6766 75.3762 84.6464 75.4953 84.5556 75.5493L64.7521 87.3814C64.7225 87.3993 64.69 87.4076 64.6577 87.4076Z" fill="#373B42"/>
<path d="M58.6734 78.5455C59.514 78.0448 60.1962 78.4418 60.199 79.4384L60.2241 88.5817C60.2268 89.5742 59.549 90.7854 58.7084 91.2862L50.9998 95.8782C50.1592 96.3789 49.477 95.9778 49.4743 94.9852L49.4492 85.842C49.4464 84.8455 50.1243 83.6383 50.9647 83.1376L58.6734 78.5455Z" fill="#FFBE2E"/>
<path d="M50.3139 96.2922C50.1369 96.2922 49.9708 96.2484 49.8232 96.1609C49.4764 95.955 49.2854 95.5382 49.2839 94.9878L49.2588 85.8448C49.2559 84.7733 49.9627 83.5109 50.8686 82.9712L58.5769 78.3794C59.0462 78.0994 59.497 78.0594 59.8475 78.2663C60.1928 78.4719 60.3846 78.8887 60.386 79.4397L60.4111 88.5835C60.414 89.6549 59.7073 90.9173 58.8013 91.4571L51.0922 96.0492C50.8214 96.2107 50.5566 96.2922 50.3139 96.2922ZM58.7659 78.7167L51.0576 83.3085C50.2712 83.7774 49.6337 84.9146 49.6366 85.8438L49.6617 94.9871C49.6625 95.3925 49.7872 95.6894 50.0114 95.823C50.2393 95.9585 50.5559 95.9186 50.9033 95.7122L58.6124 91.1201C59.3989 90.6512 60.0363 89.514 60.0334 88.5848L60.0083 79.4411C60.0068 79.0346 59.8828 78.7373 59.6586 78.6046C59.4306 78.4694 59.1148 78.5093 58.7659 78.7167Z" fill="#373B42"/>
<path d="M56.624 83.6163C56.7388 83.5479 56.8536 83.5314 56.9412 83.5829C57.1165 83.686 57.1174 84.0228 56.9434 84.3382L53.5125 90.4655C53.4238 90.624 53.3108 90.7441 53.1944 90.8135C53.0813 90.8808 52.9648 90.8974 52.8789 90.8428L51.7278 90.1701C51.5525 90.0671 51.5515 89.73 51.7257 89.4147C51.8127 89.2591 51.9272 89.139 52.042 89.0707C52.1567 89.0024 52.2716 88.9859 52.3592 89.0373L53.1907 89.5263L56.3075 83.9603C56.3947 83.8048 56.5093 83.6847 56.624 83.6163Z" fill="#212121"/>
<path d="M64.6577 99.1236C64.5927 99.1236 64.5293 99.0886 64.4939 99.0262C64.4422 98.9334 64.4725 98.8138 64.5632 98.7602L91.5425 82.6516C91.6303 82.5971 91.7476 82.6291 91.8006 82.7227C91.8523 82.8157 91.8221 82.9351 91.7313 82.9888L64.7521 99.0974C64.7225 99.1152 64.69 99.1236 64.6577 99.1236Z" fill="#373B42"/>
<path d="M64.6577 108.643C64.5927 108.643 64.5293 108.609 64.4939 108.546C64.4422 108.453 64.4725 108.334 64.5632 108.28L84.3668 96.4477C84.4545 96.3932 84.5719 96.4244 84.625 96.5185C84.6766 96.6118 84.6464 96.7308 84.5556 96.7848L64.7521 108.617C64.7225 108.635 64.69 108.643 64.6577 108.643Z" fill="#373B42"/>
<path d="M58.6734 99.7819C59.514 99.2811 60.1962 99.6781 60.199 100.675L60.2241 109.818C60.2268 110.811 59.549 112.022 58.7084 112.523L50.9998 117.115C50.1592 117.615 49.477 117.214 49.4743 116.222L49.4492 107.078C49.4464 106.082 50.1243 104.875 50.9647 104.374L58.6734 99.7819Z" fill="#FFBE2E"/>
<path d="M50.3139 117.524C50.1369 117.524 49.9708 117.481 49.8232 117.394C49.4764 117.188 49.2854 116.771 49.2839 116.22L49.2588 107.077C49.2559 106.006 49.9627 104.744 50.8686 104.204L58.5769 99.6117C58.5769 99.6117 58.5769 99.6117 58.5769 99.6114C59.0462 99.3323 59.497 99.2913 59.8475 99.4991C60.1928 99.7047 60.3846 100.121 60.386 100.672L60.4111 109.816C60.414 110.888 59.7073 112.15 58.8013 112.69L51.0922 117.282C50.8214 117.443 50.5566 117.524 50.3139 117.524ZM58.7659 99.9489L51.0576 104.541C50.2712 105.01 49.6337 106.147 49.6366 107.076L49.6617 116.22C49.6625 116.625 49.7872 116.922 50.0114 117.056C50.2393 117.191 50.5552 117.151 50.9033 116.944L58.6124 112.353C59.3989 111.884 60.0363 110.746 60.0334 109.817L60.0083 100.674C60.0068 100.267 59.8828 99.9699 59.6586 99.8371C59.4306 99.702 59.1141 99.742 58.7659 99.9494V99.9489Z" fill="#373B42"/>
<path d="M56.625 104.85C56.7397 104.781 56.8546 104.765 56.9422 104.816C57.1175 104.919 57.1184 105.256 56.9443 105.572L53.5135 111.699C53.4248 111.857 53.3118 111.978 53.1954 112.047C53.0823 112.114 52.9658 112.131 52.8798 112.076L51.7288 111.403C51.5535 111.301 51.5525 110.963 51.7266 110.648C51.8137 110.493 51.9282 110.372 52.0429 110.304C52.1577 110.236 52.2725 110.219 52.3602 110.271L53.1917 110.76L56.3085 105.194C56.3956 105.038 56.5103 104.918 56.625 104.85Z" fill="#212121"/>
<path d="M64.6577 120.36C64.5927 120.36 64.5293 120.325 64.4939 120.262C64.4422 120.169 64.4725 120.05 64.5632 119.996L91.5425 103.888C91.6303 103.834 91.7476 103.865 91.8006 103.959C91.8523 104.052 91.8221 104.171 91.7313 104.225L64.7521 120.333C64.7225 120.351 64.69 120.36 64.6577 120.36Z" fill="#373B42"/>
<path d="M64.6577 129.882C64.5927 129.882 64.5293 129.847 64.4939 129.785C64.4422 129.691 64.4725 129.572 64.5632 129.518L84.3668 117.686C84.4545 117.631 84.5719 117.663 84.625 117.757C84.6766 117.85 84.6464 117.969 84.5556 118.023L64.7521 129.856C64.7225 129.873 64.69 129.882 64.6577 129.882Z" fill="#373B42"/>
<path d="M58.6734 121.022C59.514 120.521 60.1962 120.918 60.199 121.915L60.2241 131.058C60.2268 132.051 59.549 133.262 58.7084 133.763L50.9998 138.355C50.1592 138.855 49.477 138.454 49.4743 137.462L49.4492 128.318C49.4464 127.322 50.1243 126.115 50.9647 125.614L58.6734 121.022Z" fill="#FFBE2E"/>
<path d="M50.3139 138.765C50.1369 138.765 49.9708 138.721 49.8232 138.634C49.4764 138.428 49.2854 138.011 49.2839 137.461L49.2588 128.317C49.2559 127.246 49.9627 125.984 50.8686 125.444L58.5769 120.852C58.5769 120.852 58.5769 120.852 58.5769 120.852C59.0462 120.573 59.497 120.531 59.8475 120.739C60.1928 120.945 60.3846 121.362 60.386 121.913L60.4111 131.056C60.414 132.11 59.6918 133.399 58.8013 133.93L51.0922 138.522C50.8214 138.684 50.5566 138.765 50.3139 138.765ZM58.7659 121.189L51.0576 125.781C50.2712 126.25 49.6337 127.387 49.6366 128.316L49.6617 137.46C49.6625 137.865 49.7872 138.162 50.0114 138.296C50.2393 138.431 50.5552 138.391 50.9033 138.185L58.6124 133.593C59.3989 133.124 60.0363 131.987 60.0334 131.058L60.0083 121.914C60.0068 121.507 59.8828 121.21 59.6586 121.077C59.4306 120.942 59.1141 120.982 58.7659 121.19V121.189Z" fill="#373B42"/>
<path d="M56.625 126.088C56.7397 126.02 56.8546 126.003 56.9422 126.055C57.1175 126.158 57.1184 126.495 56.9443 126.81L53.5135 132.937C53.4248 133.096 53.3118 133.216 53.1954 133.285C53.0823 133.353 52.9658 133.369 52.8798 133.315L51.7288 132.642C51.5535 132.539 51.5525 132.202 51.7266 131.886C51.8137 131.731 51.9282 131.611 52.0429 131.542C52.1577 131.474 52.2725 131.457 52.3602 131.509L53.1917 131.998L56.3085 126.432C56.3956 126.277 56.5103 126.156 56.625 126.088Z" fill="#212121"/>
<path d="M64.6577 141.598C64.5927 141.598 64.5293 141.563 64.4939 141.501C64.4422 141.408 64.4725 141.288 64.5632 141.235L91.5425 125.126C91.6303 125.072 91.7476 125.103 91.8006 125.197C91.8523 125.29 91.8221 125.41 91.7313 125.463L64.7521 141.572C64.7225 141.59 64.69 141.598 64.6577 141.598Z" fill="#373B42"/>
<path d="M64.6577 151.118C64.5927 151.118 64.5293 151.083 64.4939 151.021C64.4422 150.927 64.4725 150.808 64.5632 150.754L84.3668 138.922C84.4545 138.868 84.5719 138.899 84.625 138.993C84.6766 139.086 84.6464 139.205 84.5556 139.259L64.7521 151.091C64.7225 151.109 64.69 151.118 64.6577 151.118Z" fill="#373B42"/>
<path d="M58.6734 142.257C59.514 141.757 60.1962 142.154 60.199 143.15L60.2241 152.294C60.2268 153.286 59.549 154.497 58.7084 154.998L50.9998 159.59C50.1592 160.091 49.477 159.69 49.4743 158.697L49.4492 149.554C49.4464 148.557 50.1243 147.35 50.9647 146.849L58.6734 142.257Z" fill="#FFBE2E"/>
<path d="M50.3139 160.002C50.1369 160.002 49.9708 159.959 49.8232 159.871C49.4764 159.665 49.2854 159.249 49.2839 158.698L49.2588 149.555C49.2559 148.483 49.9627 147.221 50.8686 146.681L58.5769 142.089C59.0462 141.809 59.4984 141.769 59.8467 141.976C60.1927 142.182 60.3846 142.599 60.386 143.15L60.4111 152.294C60.414 153.348 59.6918 154.636 58.8013 155.167L51.0922 159.759C50.8214 159.921 50.5566 160.002 50.3139 160.002ZM58.7659 142.427L51.0576 147.019C50.2712 147.487 49.6337 148.624 49.6366 149.553L49.6617 158.697C49.6625 159.103 49.7872 159.399 50.0114 159.533C50.2393 159.668 50.5552 159.629 50.9033 159.422L58.6124 154.83C59.3989 154.361 60.0363 153.224 60.0334 152.295L60.0083 143.151C60.0068 142.745 59.8828 142.448 59.6586 142.314C59.4306 142.179 59.1141 142.219 58.7659 142.427Z" fill="#373B42"/>
<path d="M56.624 147.323C56.7388 147.255 56.8536 147.238 56.9412 147.29C57.1165 147.393 57.1174 147.73 56.9434 148.045L53.5125 154.172C53.4238 154.331 53.3108 154.451 53.1944 154.52C53.0813 154.588 52.9648 154.604 52.8789 154.55L51.7278 153.877C51.5525 153.774 51.5515 153.437 51.7257 153.122C51.8127 152.966 51.9272 152.846 52.042 152.778C52.1567 152.709 52.2716 152.693 52.3592 152.744L53.1907 153.233L56.3075 147.667C56.3947 147.512 56.5093 147.392 56.624 147.323Z" fill="#212121"/>
<path d="M183.592 182.415C183.527 182.415 183.464 182.38 183.429 182.318C183.377 182.225 183.407 182.105 183.497 182.051L185.456 180.876C185.547 180.823 185.662 180.854 185.715 180.947C185.767 181.04 185.737 181.16 185.647 181.214L183.687 182.389C183.657 182.406 183.625 182.415 183.592 182.415ZM187.511 180.065C187.446 180.065 187.383 180.03 187.348 179.968C187.296 179.875 187.326 179.756 187.416 179.701L189.375 178.526C189.466 178.473 189.581 178.504 189.634 178.597C189.686 178.69 189.656 178.81 189.566 178.864L187.606 180.039C187.576 180.057 187.544 180.065 187.511 180.065ZM191.43 177.715C191.365 177.715 191.302 177.68 191.267 177.618C191.215 177.525 191.245 177.405 191.335 177.351L193.295 176.176C193.385 176.122 193.5 176.153 193.553 176.247C193.605 176.34 193.575 176.459 193.485 176.513L191.525 177.688C191.495 177.706 191.463 177.715 191.43 177.715ZM195.349 175.365C195.284 175.365 195.221 175.33 195.186 175.268C195.134 175.175 195.164 175.055 195.254 175.001L197.214 173.826C197.304 173.772 197.419 173.803 197.472 173.897C197.524 173.99 197.494 174.11 197.404 174.164L195.444 175.339C195.414 175.356 195.382 175.365 195.349 175.365ZM199.269 173.015C199.204 173.015 199.14 172.98 199.105 172.918C199.053 172.825 199.083 172.705 199.173 172.651L200.535 171.835V171.345C200.535 171.237 200.619 171.15 200.723 171.15C200.827 171.15 200.912 171.237 200.912 171.345V171.948C200.912 172.017 200.876 172.081 200.819 172.116L199.364 172.989C199.333 173.007 199.301 173.015 199.269 173.015ZM200.723 169.202C200.619 169.202 200.534 169.114 200.534 169.007V166.668C200.534 166.561 200.619 166.473 200.723 166.473C200.827 166.473 200.912 166.561 200.912 166.668V169.007C200.912 169.114 200.827 169.202 200.723 169.202ZM200.723 164.525C200.619 164.525 200.534 164.437 200.534 164.33V161.991C200.534 161.884 200.619 161.796 200.723 161.796C200.827 161.796 200.912 161.884 200.912 161.991V164.33C200.912 164.437 200.827 164.525 200.723 164.525ZM200.723 159.848C200.619 159.848 200.534 159.76 200.534 159.653V157.314C200.534 157.207 200.619 157.119 200.723 157.119C200.827 157.119 200.912 157.207 200.912 157.314V159.653C200.912 159.76 200.827 159.848 200.723 159.848ZM200.723 155.171C200.619 155.171 200.534 155.084 200.534 154.976V152.637C200.534 152.53 200.619 152.443 200.723 152.443C200.827 152.443 200.912 152.53 200.912 152.637V154.976C200.912 155.084 200.827 155.171 200.723 155.171ZM200.723 150.494C200.619 150.494 200.534 150.407 200.534 150.299V147.96C200.534 147.853 200.619 147.766 200.723 147.766C200.827 147.766 200.912 147.853 200.912 147.96V150.299C200.912 150.407 200.827 150.494 200.723 150.494ZM200.723 145.817C200.619 145.817 200.534 145.73 200.534 145.622V143.284C200.534 143.176 200.619 143.089 200.723 143.089C200.827 143.089 200.912 143.176 200.912 143.284V145.622C200.912 145.73 200.827 145.817 200.723 145.817ZM200.723 141.14C200.619 141.14 200.534 141.053 200.534 140.945V138.607C200.534 138.499 200.619 138.412 200.723 138.412C200.827 138.412 200.912 138.499 200.912 138.607V140.945C200.912 141.053 200.827 141.14 200.723 141.14ZM200.723 136.463C200.619 136.463 200.534 136.376 200.534 136.268V133.93C200.534 133.822 200.619 133.735 200.723 133.735C200.827 133.735 200.912 133.822 200.912 133.93V136.268C200.912 136.376 200.827 136.463 200.723 136.463ZM200.723 131.786C200.619 131.786 200.534 131.699 200.534 131.591V129.253C200.534 129.145 200.619 129.058 200.723 129.058C200.827 129.058 200.912 129.145 200.912 129.253V131.591C200.912 131.699 200.827 131.786 200.723 131.786ZM200.723 127.109C200.619 127.109 200.534 127.022 200.534 126.914V124.576C200.534 124.468 200.619 124.381 200.723 124.381C200.827 124.381 200.912 124.468 200.912 124.576V126.914C200.912 127.022 200.827 127.109 200.723 127.109ZM200.723 122.432C200.619 122.432 200.534 122.345 200.534 122.237V119.899C200.534 119.791 200.619 119.704 200.723 119.704C200.827 119.704 200.912 119.791 200.912 119.899V122.237C200.912 122.345 200.827 122.432 200.723 122.432ZM200.723 117.755C200.619 117.755 200.534 117.668 200.534 117.56V115.222C200.534 115.114 200.619 115.027 200.723 115.027C200.827 115.027 200.912 115.114 200.912 115.222V117.56C200.912 117.668 200.827 117.755 200.723 117.755ZM200.723 113.078C200.619 113.078 200.534 112.991 200.534 112.883V110.545C200.534 110.437 200.619 110.35 200.723 110.35C200.827 110.35 200.912 110.437 200.912 110.545V112.883C200.912 112.991 200.827 113.078 200.723 113.078ZM200.723 108.401C200.619 108.401 200.534 108.314 200.534 108.206V105.873C200.534 105.765 200.619 105.678 200.723 105.678C200.827 105.678 200.912 105.765 200.912 105.873V108.206C200.912 108.314 200.827 108.401 200.723 108.401Z" fill="#9C9C9C"/>
<path d="M202.975 95.8154L200.697 97.1719L200.722 105.877L209.683 95.8154H202.975Z" fill="#FFF7E4"/>
<path d="M200.721 106.07C200.698 106.07 200.675 106.066 200.652 106.057C200.58 106.028 200.532 105.956 200.532 105.876L200.508 97.1708C200.508 97.1012 200.544 97.0364 200.602 97.0019L202.88 95.6454C202.909 95.6282 202.941 95.6191 202.974 95.6191H209.681C209.757 95.6191 209.824 95.6649 209.854 95.7356C209.884 95.8064 209.871 95.889 209.821 95.9456L200.861 106.007C200.824 106.048 200.773 106.07 200.721 106.07ZM200.886 97.2828L200.908 105.377L209.251 96.0088H203.025L200.886 97.2828Z" fill="#373B42"/>
<path d="M217.197 89.4375L208.086 103.677L193.396 94.9265L217.197 89.4375Z" fill="#FFBE2E"/>
<path d="M208.086 103.873C208.053 103.873 208.021 103.865 207.991 103.847L193.301 95.0962C193.234 95.0562 193.197 94.9774 193.209 94.8982C193.221 94.8186 193.279 94.7547 193.355 94.7372L217.155 89.2485C217.23 89.2321 217.307 89.2625 217.352 89.3281C217.395 89.3935 217.396 89.48 217.354 89.5462L208.244 103.786C208.207 103.842 208.147 103.873 208.086 103.873ZM193.91 95.0085L208.026 103.417L216.78 89.7341L193.91 95.0085Z" fill="#373B42"/>
<path d="M217.195 89.4355L202.59 100.401L200.722 105.875L198.896 98.2042L217.195 89.4355Z" fill="#373B42"/>
<path d="M200.721 106.07C200.718 106.07 200.715 106.07 200.712 106.07C200.628 106.065 200.557 106.005 200.537 105.921L198.711 98.2506C198.69 98.16 198.734 98.0668 198.815 98.0276L217.115 89.2587C217.205 89.2157 217.309 89.2503 217.358 89.3363C217.407 89.4227 217.385 89.5338 217.307 89.5929L202.749 100.523L200.899 105.94C200.872 106.018 200.801 106.07 200.721 106.07ZM199.116 98.3134L200.754 105.194L202.412 100.336C202.425 100.299 202.448 100.267 202.479 100.244L215.517 90.4542L199.116 98.3134Z" fill="#373B42"/>
<g opacity="0.1">
<path d="M160.081 222.538L133.672 206.704L160.035 190.999L186.444 206.834L160.081 222.538Z" fill="black"/>
</g>
<path d="M161.177 217.864L134.768 202.029L134.683 170.767L161.091 186.601L161.177 217.864Z" fill="#212121"/>
<path d="M161.176 218.057C161.143 218.057 161.11 218.048 161.08 218.031L134.672 202.196C134.615 202.161 134.578 202.097 134.578 202.028L134.492 170.766C134.492 170.696 134.528 170.631 134.587 170.597C134.646 170.562 134.717 170.562 134.776 170.597L161.185 186.431C161.243 186.466 161.279 186.53 161.279 186.599L161.364 217.862C161.364 217.932 161.328 217.996 161.27 218.031C161.24 218.048 161.208 218.057 161.176 218.057ZM134.956 201.915L160.986 217.523L160.901 186.712L134.871 171.104L134.956 201.915Z" fill="#373B42"/>
<path d="M161.091 186.602L134.683 170.767L161.046 155.062L187.455 170.897L161.091 186.602Z" fill="#FFF7E4"/>
<path d="M161.09 186.797C161.057 186.797 161.024 186.788 160.995 186.771L134.586 170.936C134.528 170.901 134.492 170.837 134.492 170.767C134.492 170.698 134.528 170.633 134.587 170.599L160.951 154.894C161.01 154.859 161.081 154.859 161.14 154.894L187.548 170.729C187.607 170.764 187.642 170.828 187.642 170.898C187.642 170.967 187.606 171.031 187.548 171.066L161.184 186.771C161.155 186.788 161.122 186.797 161.09 186.797ZM135.058 170.768L161.09 186.377L187.076 170.897L161.045 155.288L135.058 170.768Z" fill="#373B42"/>
<path d="M177.385 176.901L171.243 180.557L144.833 164.724L150.975 161.067L177.385 176.901Z" fill="#212121"/>
<path d="M171.243 180.751C171.211 180.751 171.177 180.742 171.148 180.724L144.738 164.891C144.68 164.856 144.645 164.792 144.645 164.722C144.645 164.653 144.681 164.589 144.739 164.554L150.88 160.897C150.939 160.862 151.011 160.862 151.07 160.897L177.48 176.731C177.539 176.766 177.574 176.83 177.574 176.9C177.574 176.969 177.538 177.033 177.48 177.068L171.338 180.724C171.308 180.742 171.276 180.751 171.243 180.751ZM145.21 164.723L171.243 180.33L177.008 176.899L150.975 161.291L145.21 164.723Z" fill="#373B42"/>
<path d="M187.544 202.162L161.177 217.866L161.092 186.604L171.243 180.559L177.385 176.902L187.459 170.9L187.544 202.162Z" fill="#FFBE2E"/>
<path d="M161.177 218.061C161.145 218.061 161.112 218.053 161.083 218.036C161.024 218.001 160.988 217.937 160.988 217.867L160.903 186.605C160.903 186.535 160.939 186.47 160.998 186.436L187.365 170.732C187.424 170.697 187.494 170.698 187.554 170.732C187.612 170.767 187.648 170.831 187.648 170.9L187.733 202.162C187.733 202.232 187.697 202.297 187.638 202.331L161.271 218.035C161.242 218.053 161.209 218.061 161.177 218.061ZM161.281 186.717L161.365 217.53L187.355 202.05L187.271 171.237L161.281 186.717Z" fill="#373B42"/>
<path d="M177.402 184.978L171.26 188.642L171.246 180.557L177.388 176.9L177.402 184.978Z" fill="#212121"/>
<path d="M171.259 188.836C171.226 188.836 171.194 188.827 171.164 188.81C171.106 188.775 171.07 188.711 171.07 188.642L171.056 180.557C171.056 180.487 171.092 180.422 171.15 180.388L177.292 176.731C177.351 176.696 177.422 176.697 177.481 176.731C177.539 176.766 177.575 176.83 177.575 176.9L177.589 184.977C177.589 185.047 177.553 185.112 177.495 185.146L171.353 188.81C171.324 188.827 171.291 188.836 171.259 188.836ZM171.433 180.669L171.447 188.304L177.212 184.865L177.198 177.237L171.433 180.669Z" fill="#373B42"/>
<path d="M170.622 199.279C170.558 199.317 170.495 199.385 170.446 199.474L168.721 202.734C168.582 202.994 168.689 203.221 168.894 203.099L169.634 202.658L169.653 209.413C169.653 209.528 169.732 209.575 169.829 209.517L171.464 208.544C171.563 208.484 171.64 208.344 171.64 208.229L171.621 201.474L172.362 201.033C172.567 200.911 172.672 200.558 172.535 200.462L170.794 199.267C170.748 199.234 170.685 199.241 170.622 199.279Z" fill="#212121"/>
<path d="M165.548 202.301C165.485 202.338 165.422 202.406 165.376 202.493L163.648 205.755C163.51 206.015 163.618 206.241 163.823 206.119L164.564 205.678L164.582 212.433C164.582 212.548 164.66 212.596 164.759 212.537L166.394 211.563C166.491 211.505 166.57 211.364 166.569 211.249L166.551 204.494L167.291 204.053C167.496 203.931 167.601 203.578 167.46 203.484L165.722 202.287C165.674 202.256 165.611 202.263 165.548 202.301Z" fill="#212121"/>
<path d="M161.228 180.554L139.901 167.767L139.832 142.521L161.158 155.309L161.228 180.554Z" fill="#212121"/>
<path d="M161.225 180.748C161.193 180.748 161.16 180.739 161.13 180.722L139.805 167.934C139.747 167.899 139.711 167.835 139.711 167.766L139.642 142.52C139.642 142.451 139.678 142.386 139.736 142.351C139.795 142.316 139.867 142.316 139.926 142.351L161.251 155.138C161.309 155.173 161.345 155.237 161.345 155.307L161.414 180.553C161.414 180.622 161.378 180.687 161.32 180.722C161.29 180.739 161.258 180.748 161.225 180.748ZM140.089 167.653L161.036 180.214L160.967 155.419L140.02 142.859L140.089 167.653Z" fill="#373B42"/>
<path d="M161.158 155.306L139.832 142.519L161.122 129.837L182.448 142.624L161.158 155.306Z" fill="#FFF7E4"/>
<path d="M161.156 155.501C161.124 155.501 161.09 155.492 161.061 155.474L139.735 142.687C139.677 142.652 139.642 142.588 139.642 142.518C139.642 142.449 139.678 142.385 139.736 142.35L161.025 129.668C161.084 129.633 161.156 129.633 161.215 129.668L182.541 142.455C182.6 142.49 182.635 142.555 182.635 142.624C182.635 142.693 182.599 142.758 182.541 142.792L161.25 155.474C161.221 155.492 161.188 155.501 161.156 155.501ZM140.208 142.519L161.156 155.08L182.069 142.623L161.12 130.062L140.208 142.519Z" fill="#373B42"/>
<path d="M174.314 147.477L169.355 150.429L148.027 137.643L152.987 134.69L174.314 147.477Z" fill="#212121"/>
<path d="M169.355 150.624C169.322 150.624 169.289 150.615 169.259 150.597L147.932 137.811C147.873 137.776 147.838 137.712 147.838 137.642C147.838 137.573 147.874 137.509 147.932 137.474L152.892 134.521C152.951 134.486 153.023 134.486 153.082 134.521L174.409 147.308C174.467 147.343 174.503 147.407 174.503 147.476C174.503 147.546 174.467 147.61 174.408 147.645L169.449 150.597C169.419 150.615 169.387 150.624 169.355 150.624ZM148.404 137.643L169.355 150.204L173.937 147.475L152.987 134.915L148.404 137.643Z" fill="#373B42"/>
<path d="M182.519 167.874L161.227 180.556L161.158 155.31L169.356 150.428L174.316 147.476L182.451 142.629L182.519 167.874Z" fill="#FFBE2E"/>
<path d="M161.226 180.749C161.194 180.749 161.161 180.741 161.132 180.723C161.074 180.689 161.037 180.625 161.037 180.555L160.969 155.309C160.969 155.24 161.005 155.175 161.063 155.14L182.356 142.459C182.415 142.424 182.486 142.424 182.545 142.458C182.603 142.493 182.64 142.557 182.64 142.627L182.708 167.873C182.708 167.942 182.671 168.007 182.613 168.042L161.321 180.723C161.291 180.741 161.259 180.749 161.226 180.749ZM161.347 155.421L161.414 180.218L182.33 167.761L182.263 142.964L161.347 155.421Z" fill="#373B42"/>
<path d="M174.329 153.998L169.369 156.956L169.357 150.427L174.317 147.475L174.329 153.998Z" fill="#212121"/>
<path d="M169.368 157.151C169.335 157.151 169.303 157.143 169.273 157.125C169.215 157.09 169.179 157.026 169.179 156.957L169.168 150.428C169.168 150.358 169.204 150.294 169.262 150.259L174.222 147.306C174.281 147.271 174.352 147.272 174.411 147.306C174.469 147.341 174.505 147.405 174.505 147.475L174.517 153.998C174.517 154.067 174.481 154.132 174.422 154.167L169.462 157.125C169.433 157.143 169.4 157.151 169.368 157.151ZM169.546 150.54L169.556 156.619L174.139 153.886L174.128 147.812L169.546 150.54Z" fill="#373B42"/>
<path d="M168.858 165.55C168.807 165.581 168.755 165.636 168.717 165.707L167.323 168.34C167.211 168.55 167.297 168.733 167.463 168.635L168.061 168.279L168.076 173.734C168.076 173.827 168.14 173.865 168.218 173.818L169.538 173.031C169.618 172.984 169.681 172.871 169.68 172.778L169.665 167.323L170.263 166.967C170.429 166.868 170.513 166.583 170.403 166.505L168.997 165.54C168.96 165.514 168.909 165.52 168.858 165.55Z" fill="#212121"/>
<path d="M164.76 167.99C164.709 168.02 164.658 168.075 164.621 168.145L163.226 170.779C163.114 170.989 163.202 171.171 163.367 171.073L163.965 170.717L163.98 176.172C163.98 176.265 164.043 176.304 164.123 176.256L165.443 175.47C165.521 175.423 165.585 175.309 165.585 175.216L165.57 169.761L166.168 169.405C166.333 169.306 166.418 169.021 166.304 168.945L164.9 167.979C164.862 167.953 164.811 167.959 164.76 167.99Z" fill="#212121"/>
<path d="M76.6399 216.683C77.9933 215.877 78.001 214.569 76.6564 213.763C75.3119 212.956 73.1237 212.957 71.7703 213.763C70.417 214.569 70.4105 215.876 71.755 216.682C73.0995 217.489 75.2867 217.489 76.6399 216.683Z" fill="white"/>
<path d="M74.1954 217.479C73.2761 217.479 72.3583 217.27 71.6604 216.852C70.952 216.427 70.5618 215.85 70.5625 215.228C70.564 214.602 70.9594 214.022 71.6765 213.595C73.0798 212.758 75.3566 212.759 76.7525 213.595C77.4608 214.02 77.8503 214.597 77.8496 215.219C77.8488 215.845 77.4527 216.425 76.7348 216.852C76.0339 217.27 75.1139 217.479 74.1954 217.479ZM74.2183 213.352C73.3669 213.352 72.5155 213.545 71.8655 213.932C71.2702 214.287 70.9411 214.748 70.9403 215.228C70.9403 215.706 71.2634 216.162 71.8508 216.515C73.1412 217.289 75.2483 217.288 76.546 216.515C77.1421 216.16 77.4712 215.699 77.472 215.218C77.4728 214.741 77.1495 214.284 76.5623 213.932C75.9173 213.545 75.0681 213.352 74.2183 213.352Z" fill="#DBDEE4"/>
<path d="M74.2151 214.303C73.6875 214.303 73.177 214.427 72.8142 214.643C72.5229 214.816 72.3558 215.029 72.3555 215.227C72.3552 215.423 72.5191 215.634 72.8052 215.805C73.1649 216.021 73.6733 216.145 74.2004 216.145C74.7274 216.145 75.2376 216.021 75.6002 215.805C75.8917 215.631 76.059 215.418 76.0592 215.22C76.0594 215.024 75.8957 214.813 75.61 214.642C75.2505 214.426 74.7422 214.303 74.2151 214.303Z" fill="#FFBE2E"/>
<path d="M86.13 207.307C85.5634 207.307 85.015 207.44 84.6255 207.672C84.3126 207.858 84.1331 208.087 84.1328 208.3C84.1326 208.51 84.3085 208.736 84.6158 208.92C85.0021 209.152 85.5482 209.285 86.1141 209.285C86.6802 209.285 87.2281 209.152 87.6173 208.92C87.9304 208.733 88.1101 208.504 88.1105 208.291C88.1107 208.081 87.9349 207.855 87.628 207.671C87.2419 207.439 86.6959 207.307 86.13 207.307Z" fill="#373B42"/>
<path d="M207.255 205.586C205.902 206.392 205.894 207.7 207.239 208.506C208.583 209.312 210.772 209.312 212.125 208.506C213.478 207.7 213.485 206.392 212.14 205.586C210.796 204.78 208.609 204.78 207.255 205.586Z" fill="white"/>
<path d="M209.677 209.301C208.758 209.301 207.84 209.092 207.143 208.674C206.435 208.249 206.045 207.672 206.046 207.05C206.047 206.424 206.442 205.844 207.16 205.417C208.565 204.58 210.84 204.582 212.234 205.417C212.943 205.842 213.333 206.419 213.332 207.041C213.332 207.666 212.936 208.246 212.219 208.673C211.517 209.092 210.597 209.301 209.677 209.301ZM207.349 205.754C206.753 206.109 206.424 206.57 206.424 207.051C206.423 207.528 206.746 207.985 207.333 208.337C208.623 209.11 210.73 209.111 212.03 208.336C212.625 207.981 212.954 207.521 212.954 207.04C212.955 206.563 212.632 206.106 212.044 205.754C210.754 204.98 208.647 204.981 207.349 205.754Z" fill="#DBDEE4"/>
<path d="M209.683 207.967C210.211 207.967 210.721 207.843 211.084 207.627C211.375 207.453 211.542 207.24 211.543 207.042C211.543 206.846 211.379 206.636 211.093 206.464C210.733 206.249 210.225 206.125 209.698 206.125C209.171 206.125 208.661 206.249 208.298 206.465C208.007 206.638 207.839 206.852 207.839 207.05C207.839 207.246 208.002 207.456 208.288 207.628C208.648 207.843 209.156 207.967 209.683 207.967Z" fill="#FFBE2E"/>
<path d="M197.77 214.963C198.336 214.963 198.884 214.83 199.274 214.598C199.587 214.412 199.766 214.183 199.767 213.97C199.767 213.76 199.591 213.534 199.284 213.35C198.897 213.118 198.351 212.985 197.785 212.985C197.219 212.985 196.671 213.118 196.282 213.35C195.969 213.537 195.789 213.766 195.789 213.979C195.789 214.189 195.965 214.415 196.272 214.599C196.658 214.831 197.204 214.963 197.77 214.963Z" fill="#373B42"/>
<path d="M127.205 85.6699L132.776 99.4443L127.44 99.9341L125.013 107.611L119.442 93.8362L127.205 85.6699Z" fill="#978050"/>
<path d="M114.659 91.7552L122.441 90.6611L116.964 111.017L114.503 106.252L109.182 112.111L114.659 91.7552Z" fill="#978050"/>
<path d="M116.403 57.9718C117.815 57.1311 119.46 57.5508 120.934 56.6732C122.403 55.798 124.043 53.4253 125.452 52.5859C125.675 52.4529 125.893 52.3585 126.103 52.3145C127.697 51.9766 128.338 54.4787 129.668 54.836C131.01 55.1954 133.516 53.5312 134.497 54.5327C135.461 55.5343 134.567 58.8392 135.088 60.4207C135.592 61.942 137.716 62.2807 137.722 64.3033C137.728 66.3213 135.612 69.1855 135.118 71.302C134.607 73.5021 135.517 75.7279 134.561 77.8737C133.589 80.0427 131.082 81.3644 129.747 83.3192C128.422 85.2577 127.802 88.511 126.207 90.0824C125.998 90.2878 125.781 90.452 125.558 90.5846C124.149 91.4242 122.5 91.006 121.031 91.8815C119.557 92.7592 117.916 95.1368 116.507 95.9765C116.284 96.1091 116.067 96.2035 115.858 96.2473C114.259 96.5829 113.619 94.0761 112.292 93.7167C110.95 93.3618 108.44 95.0283 107.46 94.0223C106.495 93.0207 107.389 89.7157 106.869 88.1297C106.364 86.6084 104.24 86.2697 104.234 84.2517C104.229 82.2291 106.344 79.365 106.839 77.2483C107.349 75.0528 106.44 72.8223 107.404 70.672C108.375 68.503 110.878 67.1836 112.214 65.2335C113.538 63.2949 114.163 60.0393 115.754 58.4748C115.963 58.2689 116.18 58.1046 116.403 57.9718Z" fill="#FFBE2E"/>
<path d="M120.939 60.4444C127.385 56.6049 132.629 59.6885 132.65 67.33C132.671 74.9669 127.461 84.2783 121.015 88.1178C114.574 91.9548 109.33 88.8713 109.309 81.2344C109.288 73.5929 114.498 64.2815 120.939 60.4444Z" fill="#373B42"/>
<path d="M120.961 65.0007C121.207 64.8542 121.453 64.8592 121.581 65.0868L123.267 68.1113C123.369 68.2915 123.561 68.3442 123.787 68.251L127.529 66.6665C128.095 66.4265 128.324 67.1155 127.915 67.8317L125.215 72.579C125.055 72.8595 124.982 73.1768 125.018 73.4196L125.67 77.4537C125.749 77.9352 125.397 78.5743 124.995 78.814C124.889 78.8772 124.779 78.9126 124.673 78.9099L121.322 78.8155C121.22 78.8135 121.11 78.848 120.999 78.9136C120.889 78.9792 120.779 79.0762 120.678 79.1992L117.341 83.2773C117.236 83.4061 117.126 83.5012 117.02 83.5644C116.617 83.8046 116.26 83.5876 116.336 83.014L116.964 78.2171C117.002 77.9301 116.927 77.7012 116.763 77.6136L114.049 76.0918C113.638 75.8639 113.862 74.9052 114.427 74.4708L118.166 71.5995C118.388 71.4253 118.583 71.1425 118.684 70.8413L120.344 65.8238C120.47 65.4452 120.715 65.1472 120.961 65.0007Z" fill="white"/>
</g>
</g>
</svg>
