<svg width="240" height="240" viewBox="0 0 240 240" fill="none" xmlns="http://www.w3.org/2000/svg">
<mask id="mask0_4756_47041" style="mask-type:alpha" maskUnits="userSpaceOnUse" x="0" y="0" width="240" height="240">
<rect width="240" height="240" fill="#D9D9D9"/>
</mask>
<g mask="url(#mask0_4756_47041)">
<mask id="mask1_4756_47041" style="mask-type:alpha" maskUnits="userSpaceOnUse" x="13" y="13" width="214" height="214">
<rect x="13" y="13" width="214" height="214" fill="#D9D9D9"/>
</mask>
<g mask="url(#mask1_4756_47041)">
<path d="M56.6874 203.873C56.6185 203.873 56.5515 203.836 56.5146 203.771C56.4588 203.673 56.4914 203.546 56.5866 203.488L91.3592 182.565C91.8959 182.244 92.1897 181.827 92.1897 181.395C92.189 180.959 91.8884 180.54 91.3454 180.216L79.308 172.207C79.2146 172.145 79.1883 172.018 79.2484 171.922C79.3086 171.826 79.4332 171.798 79.5253 171.861L91.554 179.864C92.2179 180.26 92.5893 180.805 92.5899 181.395C92.5905 181.981 92.2248 182.523 91.5608 182.922L56.7883 203.844C56.7563 203.864 56.7219 203.873 56.6874 203.873Z" fill="#DBDEE4"/>
<path d="M50.3513 207.119C48.7166 206.146 48.7072 204.567 50.3306 203.594C51.9541 202.621 54.5966 202.621 56.2313 203.594C57.866 204.567 57.8742 206.145 56.2507 207.119C54.6273 208.092 51.986 208.093 50.3513 207.119Z" fill="white"/>
<path d="M53.3042 208.05C52.2 208.05 51.0952 207.799 50.2515 207.298C49.3935 206.787 48.9206 206.095 48.9199 205.35C48.918 204.609 49.3847 203.922 50.2302 203.414C51.9082 202.409 54.6439 202.409 56.3319 203.414C57.19 203.924 57.6622 204.616 57.6635 205.36C57.6641 206.101 57.1994 206.788 56.352 207.296C55.5133 207.798 54.4091 208.05 53.3042 208.05ZM50.4513 206.939C52.0284 207.878 54.5857 207.877 56.1503 206.938C56.8687 206.508 57.2639 205.948 57.2633 205.361C57.2626 204.77 56.8606 204.205 56.1315 203.771C54.555 202.833 51.9971 202.832 50.4319 203.772C49.7141 204.202 49.3195 204.762 49.3202 205.349C49.3208 205.94 49.7229 206.505 50.4513 206.939Z" fill="#DBDEE4"/>
<path d="M53.2823 204.244C53.9192 204.244 54.5362 204.393 54.974 204.654C55.326 204.864 55.5277 205.121 55.5283 205.36C55.5283 205.597 55.331 205.851 54.9852 206.058C54.5512 206.319 53.9368 206.468 53.3005 206.468C52.6641 206.468 52.0478 206.319 51.61 206.058C51.258 205.849 51.0557 205.591 51.0557 205.352C51.055 205.115 51.253 204.861 51.5981 204.654C52.0321 204.393 52.6459 204.244 53.2823 204.244Z" fill="#FFBE2E"/>
<path d="M66.2282 197.14C65.8699 197.14 65.5229 197.224 65.2767 197.37C65.0788 197.488 64.9655 197.633 64.9648 197.767C64.9648 197.9 65.0757 198.043 65.2699 198.159C65.5141 198.306 65.8592 198.39 66.2175 198.39C66.5758 198.39 66.9221 198.306 67.1683 198.159C67.3662 198.042 67.4802 197.897 67.4802 197.762C67.4802 197.629 67.3693 197.486 67.1752 197.37C66.9315 197.224 66.5864 197.14 66.2282 197.14Z" fill="#373B42"/>
<path d="M66.2171 198.595C65.8244 198.595 65.4424 198.502 65.1687 198.337C64.9069 198.179 64.7628 197.976 64.7647 197.764C64.7647 197.552 64.9106 197.348 65.1762 197.19C65.7267 196.862 66.7282 196.861 67.2756 197.189C67.5368 197.346 67.6809 197.548 67.6809 197.76C67.679 197.974 67.533 198.179 67.2687 198.336C66.9925 198.501 66.6092 198.595 66.2171 198.595ZM66.2272 197.345C65.9027 197.345 65.592 197.419 65.3753 197.548C65.2212 197.64 65.1643 197.73 65.1643 197.766C65.1643 197.791 65.2018 197.879 65.3697 197.981C65.7987 198.238 66.6349 198.238 67.0671 197.98C67.2211 197.888 67.2787 197.797 67.2787 197.761C67.2787 197.727 67.223 197.638 67.0733 197.549C66.8591 197.419 66.551 197.345 66.2272 197.345Z" fill="#373B42"/>
<g opacity="0.1">
<path d="M88.0609 166.884L56.8722 185.463L15.5996 160.717L56.8015 136.173L98.0735 160.919L88.0609 166.884Z" fill="black"/>
</g>
<path d="M57.0891 181.212L13.4502 155.046L57.0145 129.096L100.653 155.261L57.0891 181.212Z" fill="white"/>
<path d="M57.0883 181.418C57.0539 181.418 57.0188 181.409 56.9875 181.39L13.3486 155.224C13.2866 155.187 13.249 155.119 13.249 155.045C13.249 154.972 13.2872 154.904 13.3492 154.867L56.9136 128.916C56.9762 128.879 57.052 128.879 57.1147 128.916L100.754 155.082C100.816 155.119 100.853 155.187 100.853 155.261C100.853 155.335 100.815 155.403 100.753 155.439L57.1885 181.391C57.1572 181.409 57.1228 181.418 57.0883 181.418ZM13.8484 155.046L57.0877 180.973L100.252 155.26L57.0132 129.334L13.8484 155.046Z" fill="#373B42"/>
<path d="M57.089 181.213L13.4501 155.047L13.3086 103.389L56.9474 129.554L57.089 181.213Z" fill="#FFBE2E"/>
<path d="M57.0883 181.42C57.0539 181.42 57.0188 181.411 56.9875 181.392L13.3486 155.226C13.2878 155.19 13.249 155.122 13.249 155.048L13.1074 103.389C13.1074 103.316 13.1456 103.247 13.2077 103.21C13.2703 103.173 13.3461 103.173 13.4087 103.21L57.0469 129.376C57.1077 129.413 57.1465 129.481 57.1465 129.554L57.2887 181.214C57.2887 181.287 57.2505 181.356 57.1885 181.393C57.1572 181.411 57.1228 181.42 57.0883 181.42ZM13.6492 154.928L56.8872 180.854L56.7457 129.673L13.5083 103.748L13.6492 154.928Z" fill="#373B42"/>
<path d="M56.9474 129.554L13.3086 103.389L56.8723 77.4375L100.511 103.604L56.9474 129.554Z" fill="#373B42"/>
<path d="M56.9461 129.761C56.9116 129.761 56.8766 129.752 56.8452 129.733L13.207 103.568C13.145 103.531 13.1074 103.462 13.1074 103.389C13.1074 103.315 13.1456 103.247 13.2076 103.21L56.7707 77.2591C56.8333 77.2222 56.9091 77.2222 56.9718 77.2591L100.611 103.425C100.673 103.462 100.71 103.53 100.71 103.604C100.71 103.677 100.672 103.745 100.61 103.782L57.0457 129.733C57.015 129.752 56.9805 129.761 56.9461 129.761ZM13.7075 103.39L56.9461 129.316L100.111 103.604L56.8715 77.6772L13.7075 103.39Z" fill="#373B42"/>
<path d="M100.655 155.266L57.0846 181.215L56.9443 129.557L73.7193 119.567L83.8684 113.525L100.515 103.607L100.655 155.266Z" fill="#212121"/>
<path d="M57.0843 181.421C57.0498 181.421 57.0153 181.412 56.984 181.394C56.922 181.357 56.8838 181.289 56.8838 181.215L56.7441 129.556C56.7441 129.482 56.7824 129.414 56.8444 129.377L100.415 103.427C100.478 103.39 100.553 103.39 100.615 103.426C100.677 103.463 100.716 103.531 100.716 103.605L100.855 155.264C100.855 155.338 100.817 155.406 100.755 155.443L57.1845 181.393C57.1531 181.411 57.1187 181.421 57.0843 181.421ZM57.145 129.675L57.284 180.857L100.455 155.146L100.316 103.963L57.145 129.675Z" fill="#373B42"/>
<path d="M56.9807 123.812L13.3418 97.6465L56.9061 71.6953L100.545 97.8611L56.9807 123.812Z" fill="white"/>
<path d="M56.9819 124.019C56.9475 124.019 56.9124 124.01 56.8811 123.992L13.2422 97.8258C13.1802 97.7889 13.1426 97.7204 13.1426 97.6468C13.1426 97.5731 13.1808 97.5052 13.2428 97.4684L56.8072 71.5179C56.8698 71.481 56.9456 71.481 57.0082 71.5179L100.647 97.6836C100.709 97.7204 100.747 97.7889 100.747 97.8626C100.747 97.9363 100.708 98.0041 100.646 98.041L57.0821 123.992C57.0508 124.01 57.0164 124.019 56.9819 124.019ZM13.742 97.6474L56.9819 123.574L100.147 97.8613L56.9067 71.9353L13.742 97.6474Z" fill="#373B42"/>
<path d="M56.9806 123.814L13.3418 97.6487L13.2002 45.9893L56.8391 72.155L56.9806 123.814Z" fill="#FFBE2E"/>
<path d="M56.9819 124.019C56.9474 124.019 56.9123 124.01 56.881 123.991L13.2421 97.8255C13.1814 97.7887 13.1425 97.7208 13.1425 97.6471L13.001 45.9884C13.001 45.9147 13.0392 45.8462 13.1012 45.8094C13.1638 45.7719 13.2396 45.7719 13.3023 45.8094L56.9405 71.9751C57.0013 72.0119 57.0401 72.0798 57.0401 72.1535L57.1823 123.813C57.1823 123.887 57.1441 123.955 57.0821 123.992C57.0507 124.01 57.0163 124.019 56.9819 124.019ZM13.5428 97.5276L56.7808 123.453L56.6393 72.2717L13.4018 46.347L13.5428 97.5276Z" fill="#373B42"/>
<path d="M56.8391 72.1524L13.2002 45.9867L56.7639 20.0361L100.403 46.2019L56.8391 72.1524Z" fill="#FFF7E4"/>
<path d="M56.8387 72.3593C56.8042 72.3593 56.7692 72.3503 56.7379 72.3315L13.0996 46.1658C13.0376 46.1289 13 46.0604 13 45.9868C13 45.9131 13.0382 45.8452 13.1002 45.8084L56.6646 19.8572C56.7272 19.8197 56.803 19.8197 56.8656 19.8572L100.504 46.023C100.566 46.0598 100.603 46.1283 100.603 46.202C100.603 46.2756 100.565 46.3435 100.503 46.3803L56.9389 72.3309C56.9076 72.3503 56.8731 72.3593 56.8387 72.3593ZM13.6 45.9881L56.8387 71.9141L100.003 46.202L56.7648 20.2753L13.6 45.9881Z" fill="#373B42"/>
<path d="M100.549 97.8658L56.9792 123.816L56.8389 72.1569L73.6138 62.1676L83.7622 56.1253L100.409 46.207L100.549 97.8658Z" fill="#212121"/>
<path d="M56.9778 124.022C56.9433 124.022 56.9089 124.012 56.8776 123.994C56.8156 123.957 56.7773 123.889 56.7773 123.815L56.6377 72.1566C56.6377 72.083 56.6759 72.0144 56.7379 71.9776L100.309 46.0277C100.371 45.9909 100.446 45.9909 100.509 46.0271C100.571 46.0639 100.609 46.1317 100.609 46.2054L100.749 97.8642C100.749 97.9379 100.711 98.0064 100.649 98.0432L57.0786 123.992C57.0467 124.012 57.0122 124.022 56.9778 124.022ZM57.0385 72.2755L57.1776 123.458L100.349 97.7466L100.21 46.5634L57.0385 72.2755Z" fill="#373B42"/>
<path d="M64.7568 76.8451L74.7336 70.9023L74.7662 82.7303L64.7894 88.673L64.7568 76.8451ZM72.7826 81.5638L72.7632 74.4236L66.7404 78.0115L66.7598 85.1517L72.7826 81.5638Z" fill="#373B42"/>
<path d="M70.7482 78.0273L70.7551 80.3712L68.7778 81.5486L68.7715 79.2048L70.7482 78.0273Z" fill="#373B42"/>
<path d="M88.5681 67.4111L88.5744 69.755L86.5971 70.9324L86.5908 68.5886L88.5681 67.4111Z" fill="#373B42"/>
<path d="M82.5791 66.2288L92.5553 60.2861L92.5878 72.114L82.6117 78.0567L82.5791 66.2288ZM90.6049 70.9476L90.5854 63.8074L84.5633 67.3946L84.5827 74.5348L90.6049 70.9476Z" fill="#373B42"/>
<path d="M82.6898 89.7119L82.6967 92.0558L80.7162 93.2358L80.71 90.8919L82.6898 89.7119Z" fill="#373B42"/>
<path d="M84.6805 93.2233L86.6578 92.0459L86.6704 96.7369L85.682 97.3262L84.6937 97.9149L78.7598 101.45L78.7529 99.102L84.6874 95.5672L84.6805 93.2233Z" fill="#373B42"/>
<path d="M80.724 95.5796L78.7467 96.7571L78.753 99.1009L76.7763 100.279L76.7568 93.2468L78.7335 92.0693L78.7404 94.4132L80.7171 93.2358L80.724 95.5796Z" fill="#373B42"/>
<path d="M80.702 88.5508L80.7082 90.8946L78.7309 92.0721L78.7246 89.7282L80.702 88.5508Z" fill="#373B42"/>
<path d="M72.7062 86.2623L72.7124 88.6062L78.7108 85.0332L78.717 87.3809L78.7233 89.7248L76.7466 90.9022L76.7397 88.5584L70.742 92.1314L70.7357 89.7843L68.7553 90.9636L68.749 88.6198L70.7289 87.4404L72.7062 86.2623Z" fill="#373B42"/>
<path d="M64.8154 97.9037L74.7922 91.9609L74.8248 103.793L64.848 109.735L64.8154 97.9037ZM72.8412 102.622L72.8218 95.4822L66.799 99.0701L66.8184 106.21L72.8412 102.622Z" fill="#373B42"/>
<path d="M70.8064 99.085L70.8127 101.429L68.8353 102.607L68.8291 100.262L70.8064 99.085Z" fill="#373B42"/>
<path d="M68.757 90.9648L68.7639 93.3126L66.7865 94.49L66.7803 92.1423L68.757 90.9648Z" fill="#373B42"/>
<path d="M80.6444 67.3799L80.6507 69.7237L78.674 70.9018L78.6803 73.3L80.6576 72.1219L80.6764 79.074L78.6997 80.2521L78.7059 82.6897L76.7292 83.8677L76.7161 79.0856L78.6928 77.9082L78.6865 75.6438L76.7098 76.8213L76.6904 69.7354L78.6671 68.558L80.6444 67.3799Z" fill="#373B42"/>
<path d="M80.6844 81.5137L80.6906 83.8575L78.714 85.035L78.707 82.6911L80.6844 81.5137Z" fill="#373B42"/>
<path d="M82.6767 85.0264L82.683 87.3702L80.7032 88.5502L80.6963 86.2064L82.6767 85.0264Z" fill="#373B42"/>
<path d="M84.674 90.8799L84.6802 93.2237L82.7035 94.4012L82.6973 92.0573L84.674 90.8799Z" fill="#373B42"/>
<path d="M92.5486 74.4492L92.5611 79.126L90.6301 80.2762L90.6364 82.635L90.6427 84.9788L88.6202 86.1834L88.6265 88.5273L90.6032 87.3499L90.6101 89.6937L86.656 92.0492L86.6498 89.7054L86.6429 87.3615L82.6889 89.7163L82.6826 87.3725L88.6597 83.8124L88.6465 79.1357L90.5775 77.9847L90.5713 75.6266L92.5486 74.4492Z" fill="#373B42"/>
<path d="M86.6191 77.9814L86.6253 80.3253L86.6322 82.6731L84.6549 83.8505L84.6487 81.5027L82.6713 82.6808L82.665 80.3369L84.6424 79.1589L86.6191 77.9814Z" fill="#373B42"/>
<path d="M92.6199 83.7988L92.6262 86.1427L90.6495 87.3208L90.6426 84.9769L92.6199 83.7988Z" fill="#373B42"/>
<path d="M92.5871 88.5127L92.5939 90.8572L90.6166 92.0346L90.6104 89.6908L92.5871 88.5127Z" fill="#373B42"/>
<path d="M90.6163 92.0342L90.6226 94.3819L88.6459 95.5594L88.6396 93.2116L90.6163 92.0342Z" fill="#373B42"/>
<path d="M66.7722 89.7988L66.7785 92.1427L64.8012 93.3208L64.7949 90.9769L66.7722 89.7988Z" fill="#373B42"/>
<path d="M62.5329 86.8677C62.4227 86.8677 62.3325 86.7759 62.3325 86.6615L62.3018 75.4915C62.3018 75.4178 62.3399 75.3493 62.402 75.3125L71.8226 69.7006C71.9159 69.6438 72.0393 69.6767 72.0963 69.7763C72.1508 69.8751 72.1182 70.0011 72.023 70.058L62.7026 75.6104L62.7333 86.6609C62.7333 86.7746 62.6443 86.8677 62.5341 86.8677C62.5329 86.8677 62.5329 86.8677 62.5329 86.8677Z" fill="#373B42"/>
<path d="M85.4665 100.347C85.3976 100.347 85.3306 100.31 85.293 100.244C85.2385 100.145 85.2711 100.019 85.3663 99.962L94.6842 94.4116L94.6535 83.365C94.6535 83.2513 94.7424 83.1582 94.8527 83.1582H94.8533C94.9635 83.1582 95.0537 83.25 95.0537 83.3643L95.0844 94.5305C95.0844 94.6042 95.0462 94.6727 94.9842 94.7095L85.5667 100.32C85.5354 100.338 85.5009 100.347 85.4665 100.347Z" fill="#373B42"/>
<path d="M94.8104 67.6399C94.7002 67.6399 94.61 67.5481 94.61 67.4337L94.5799 56.621L85.4612 62.0532C85.3672 62.1101 85.2433 62.0765 85.1875 61.9776C85.133 61.8788 85.1656 61.7527 85.2608 61.6959L94.6789 56.0853C94.7416 56.0485 94.8167 56.0485 94.8793 56.0847C94.9414 56.1215 94.9795 56.1894 94.9795 56.2637L95.0102 67.4331C95.0102 67.5468 94.9213 67.6399 94.8111 67.6399H94.8104Z" fill="#373B42"/>
<path d="M62.6051 113.966C62.5707 113.966 62.5362 113.957 62.5049 113.939C62.4429 113.902 62.4047 113.834 62.4047 113.76L62.374 102.594C62.374 102.48 62.463 102.387 62.5732 102.387C62.6834 102.387 62.7742 102.478 62.7742 102.593L62.8037 113.402L71.9255 107.968C72.0182 107.911 72.1422 107.944 72.1992 108.044C72.2537 108.143 72.2211 108.269 72.1259 108.326L62.7047 113.938C62.674 113.957 62.6396 113.966 62.6051 113.966Z" fill="#373B42"/>
<path d="M94.3927 76.7185C94.8499 76.4458 95.2195 76.6668 95.2214 77.2058C95.2226 77.748 94.8556 78.4039 94.3983 78.6766L62.971 97.3972C62.5163 97.6679 62.1468 97.4508 62.1455 96.908C62.1443 96.369 62.5113 95.7099 62.9654 95.4391L94.3927 76.7185Z" fill="#FFBE2E"/>
<path d="M128.904 76.5984L94.7662 55.4189L61.54 75.2116L61.6484 114.604L128.904 76.5984Z" fill="url(#paint0_linear_4756_47041)"/>
<path opacity="0.1" d="M190.018 176.211L179.155 169.699C178.213 169.134 177.05 169.133 176.107 169.695L110.674 208.683C108.651 209.889 108.647 212.901 110.667 214.112L120.34 219.913C122.005 220.911 124.059 220.914 125.727 219.921L190.01 181.641C192.035 180.435 192.038 177.423 190.018 176.211Z" fill="black"/>
<path d="M177.375 24.9026C176.366 24.3016 174.953 24.3882 173.404 25.3149L115.506 59.8118C114.574 60.3669 113.696 61.1566 112.928 62.0975C112.425 62.6979 111.964 63.3719 111.571 64.0756C111.177 64.7794 110.842 65.5096 110.579 66.2624C110.161 67.4405 109.926 68.6412 109.936 69.7676L110.3 201.698C110.298 203.526 110.919 204.806 111.921 205.403L123.587 212.39C122.578 211.789 121.95 210.505 121.955 208.688L121.584 76.7539C121.576 75.6088 121.815 74.401 122.248 73.2126C122.511 72.4598 122.853 71.734 123.246 71.0303C123.64 70.3266 124.097 69.6597 124.604 69.0522C125.367 68.1184 126.242 67.3365 127.163 66.7839L185.053 32.3013C186.619 31.3765 188.015 31.288 189.045 31.9019L177.375 24.9026Z" fill="#212121"/>
<path d="M124.603 69.0517L112.928 62.0977C112.425 62.698 111.964 63.372 111.571 64.0758C111.177 64.7795 110.842 65.5097 110.579 66.2626L122.247 73.2128C122.511 72.4599 122.852 71.7342 123.245 71.0305C123.64 70.3261 124.096 69.6598 124.603 69.0517Z" fill="#FFBE2E"/>
<path d="M123.586 212.597C123.552 212.597 123.517 212.588 123.486 212.569C123.48 212.567 123.476 212.563 123.47 212.56L111.824 205.581C110.712 204.918 110.099 203.539 110.099 201.698L109.734 69.7685C109.724 67.9513 110.316 65.8925 111.401 63.9712C112.468 62.0784 113.891 60.5365 115.407 59.6292L173.305 25.1349C174.866 24.1979 176.351 24.0525 177.481 24.7258L189.146 31.7167C189.146 31.7167 189.147 31.7174 189.148 31.718H189.149C189.244 31.7755 189.276 31.9015 189.222 32.0004C189.165 32.0986 189.041 32.1323 188.948 32.0754H188.947L188.945 32.0734C187.95 31.4828 186.604 31.6256 185.159 32.478L127.266 66.9652C125.815 67.8299 124.448 69.3091 123.419 71.1321C122.36 73.0113 121.782 75.0075 121.789 76.7523L122.155 208.684C122.149 210.361 122.689 211.61 123.676 212.205L123.687 212.213C123.783 212.27 123.815 212.396 123.76 212.495C123.722 212.56 123.655 212.597 123.586 212.597ZM175.914 24.722C175.178 24.722 174.358 24.9805 173.505 25.4923L115.607 59.9866C114.15 60.8584 112.78 62.3473 111.746 64.1793C110.697 66.0379 110.125 68.0218 110.134 69.7672L110.499 201.698C110.499 203.386 111.041 204.637 112.025 205.224L122.383 211.431C121.968 210.714 121.75 209.78 121.754 208.684L121.388 76.7542C121.379 74.9371 121.978 72.8665 123.073 70.9246C124.137 69.0402 125.554 67.5074 127.065 66.6085L184.959 32.12C185.881 31.5765 186.773 31.3018 187.579 31.3018C187.606 31.3018 187.632 31.3025 187.658 31.3025L177.28 25.0832C176.875 24.8422 176.414 24.722 175.914 24.722Z" fill="#373B42"/>
<path d="M181.422 34.669C181.388 34.669 181.353 34.66 181.322 34.6412L169.632 27.6781C169.537 27.6213 169.504 27.4952 169.559 27.3964C169.615 27.2968 169.738 27.2639 169.833 27.3208L181.522 34.2839C181.618 34.3407 181.651 34.4667 181.596 34.5656C181.558 34.6315 181.49 34.669 181.422 34.669Z" fill="#373B42"/>
<path d="M116.019 92.581C115.527 92.298 115.081 92.2624 114.762 92.4524L113.576 93.1536C113.903 92.9681 114.342 92.9991 114.833 93.2822C115.815 93.867 116.609 95.2907 116.613 96.4636L116.612 106.713C116.607 107.311 116.407 107.722 116.083 107.919L117.268 107.218C117.592 107.021 117.793 106.61 117.798 106.012L117.798 95.7624C117.795 94.5901 117.001 93.1665 116.019 92.581Z" fill="#373B42"/>
<path d="M116.083 108.125C116.014 108.125 115.947 108.088 115.91 108.022C115.854 107.924 115.886 107.798 115.982 107.741C116.255 107.574 116.409 107.208 116.413 106.711L116.413 96.4628C116.409 95.3571 115.657 94.009 114.733 93.4597C114.324 93.2245 113.946 93.1786 113.672 93.3344C113.578 93.3887 113.456 93.3538 113.402 93.2542C113.348 93.1554 113.381 93.0306 113.477 92.9738L114.663 92.272C115.053 92.0387 115.57 92.0846 116.117 92.3993C116.117 92.3993 116.119 92.3999 116.119 92.4012C117.17 93.0268 117.996 94.5027 117.999 95.7616L117.998 106.011C117.993 106.661 117.77 107.152 117.37 107.396L116.183 108.098C116.151 108.116 116.116 108.125 116.083 108.125ZM114.429 92.8865C114.592 92.9311 114.76 93.0029 114.931 93.1004C115.983 93.7279 116.81 95.2039 116.813 96.4621L116.813 106.713C116.811 106.924 116.786 107.118 116.74 107.292L117.169 107.039C117.44 106.873 117.594 106.507 117.598 106.01L117.598 95.7622C117.595 94.6572 116.842 93.3098 115.92 92.7599C115.501 92.5188 115.125 92.4755 114.862 92.6313L114.429 92.8865Z" fill="#373B42"/>
<path d="M116.611 96.4639C116.611 95.2884 115.815 93.8648 114.831 93.2825C113.847 92.7002 113.051 93.181 113.051 94.3565L113.052 104.61C113.052 105.785 113.849 107.209 114.833 107.791C115.816 108.373 116.613 107.892 116.613 106.717L116.611 96.4639Z" fill="#FFBE2E"/>
<path d="M115.622 108.245C115.345 108.245 115.043 108.153 114.733 107.97C113.679 107.346 112.852 105.87 112.852 104.61L112.851 94.3566C112.851 93.7091 113.072 93.2206 113.474 92.9802C113.874 92.7417 114.391 92.7844 114.931 93.1036C115.985 93.7272 116.811 95.2032 116.812 96.464L116.813 106.717C116.813 107.364 116.59 107.853 116.189 108.093C116.019 108.195 115.827 108.245 115.622 108.245ZM114.042 93.2413C113.907 93.2413 113.783 93.2729 113.675 93.3375C113.402 93.501 113.251 93.8629 113.251 94.3566L113.253 104.61C113.253 105.717 114.006 107.064 114.931 107.611C115.343 107.854 115.716 107.898 115.988 107.735C116.262 107.572 116.412 107.21 116.412 106.716L116.412 96.4633C116.411 95.3557 115.657 94.009 114.732 93.4616C114.484 93.3149 114.25 93.2413 114.042 93.2413Z" fill="#373B42"/>
<path d="M117.878 150.494C117.878 149.22 117.014 147.677 115.947 147.046C114.881 146.414 114.018 146.936 114.018 148.21L114.02 172.967C114.02 174.242 114.884 175.785 115.95 176.416C117.017 177.047 117.88 176.526 117.88 175.251L117.878 150.494Z" fill="#FFBE2E"/>
<path d="M116.8 149.881C116.8 150.434 116.422 150.655 115.959 150.381C115.491 150.104 115.118 149.439 115.118 148.885C115.118 148.318 115.491 148.093 115.959 148.37C116.422 148.644 116.8 149.314 116.8 149.881Z" fill="#373B42"/>
<path d="M127.566 211.984C124.473 213.826 121.962 212.35 121.952 208.684L121.586 76.7545C121.576 73.0885 124.07 68.6302 127.163 66.7878L185.058 32.298C188.15 30.4556 190.661 31.9322 190.671 35.5982L191.038 167.528C191.048 171.194 188.554 175.652 185.461 177.494L127.566 211.984Z" fill="#373B42"/>
<path d="M125.052 212.986C124.484 212.986 123.957 212.849 123.493 212.573C122.375 211.909 121.757 210.528 121.752 208.684L121.386 76.7544C121.376 73.0309 123.922 68.4788 127.063 66.6087L184.958 32.1182C186.523 31.1857 188.005 31.0403 189.13 31.7078C190.248 32.3722 190.866 33.7525 190.871 35.5968L191.238 167.526C191.248 171.25 188.702 175.801 185.561 177.672L127.666 212.162C126.747 212.71 125.858 212.986 125.052 212.986ZM187.569 31.7091C186.834 31.7091 186.012 31.967 185.157 32.4762L127.263 66.9667C124.232 68.7716 121.776 73.162 121.786 76.7538L122.152 208.683C122.157 210.373 122.704 211.627 123.693 212.214C124.689 212.806 126.029 212.66 127.465 211.805L185.36 177.315C188.39 175.51 190.847 171.119 190.837 167.527L190.47 35.5981C190.465 33.9083 189.918 32.6539 188.93 32.0665C188.526 31.828 188.067 31.7091 187.569 31.7091Z" fill="#373B42"/>
<path d="M188.495 32.8566C189.187 33.2689 189.59 34.2719 189.593 35.6025L189.96 167.533C189.965 169.114 189.44 170.927 188.479 172.644C187.522 174.355 186.258 175.736 184.922 176.535L127.028 211.023C125.892 211.701 124.836 211.852 124.132 211.433C123.44 211.02 123.038 210.017 123.034 208.687L122.668 76.7562C122.663 75.1755 123.188 73.3622 124.148 71.6451C125.105 69.9346 126.369 68.5529 127.705 67.7542L185.599 33.2663C186.734 32.5878 187.791 32.4372 188.495 32.8566Z" fill="#FFF7E4"/>
<path d="M125.05 211.872C124.669 211.872 124.323 211.785 124.031 211.611C123.273 211.16 122.836 210.094 122.833 208.687L122.467 76.7564C122.462 75.1382 122.997 73.2861 123.974 71.542C124.948 69.801 126.237 68.3922 127.605 67.5754L185.499 33.0869C186.7 32.3696 187.828 32.2203 188.595 32.6778C189.353 33.1295 189.79 34.1952 189.793 35.602L190.159 167.533C190.164 169.151 189.629 171.003 188.652 172.747C187.678 174.489 186.389 175.897 185.022 176.714L127.127 211.202C126.385 211.645 125.67 211.872 125.05 211.872ZM187.571 32.8278C187.027 32.8278 186.381 33.0365 185.699 33.4443L127.804 67.9328C126.498 68.7141 125.261 70.0692 124.321 71.7487C123.379 73.4315 122.863 75.2093 122.867 76.7557L123.233 208.686C123.236 209.943 123.599 210.878 124.231 211.254C124.871 211.634 125.853 211.486 126.927 210.844L184.821 176.356C186.128 175.575 187.366 174.22 188.305 172.54C189.247 170.857 189.763 169.08 189.758 167.533L189.393 35.6027C189.39 34.347 189.026 33.4113 188.395 33.0352C188.162 32.8963 187.883 32.8278 187.571 32.8278Z" fill="#373B42"/>
<path d="M143.09 65.541C143.95 65.0357 165.763 52.1215 166.776 51.5224C168.393 50.5641 169.708 48.2137 169.71 46.288L169.706 42.7783C168.695 43.3774 141.311 59.588 140.158 60.2711L140.157 63.7781C140.159 65.7065 141.473 66.4994 143.09 65.541Z" fill="#373B42"/>
<path d="M141.791 66.1562C141.476 66.1562 141.183 66.0793 140.922 65.9235C140.3 65.5526 139.958 64.7913 139.957 63.778V60.2703C139.957 60.1967 139.995 60.1282 140.058 60.0913C141.211 59.4089 168.595 43.1976 169.607 42.5986C169.668 42.5624 169.745 42.5618 169.806 42.5992C169.868 42.6361 169.906 42.7039 169.906 42.7782L169.909 46.2879C169.907 48.2822 168.546 50.7107 166.875 51.7013C166.649 51.8351 144.076 65.1985 143.19 65.72C142.701 66.0101 142.224 66.1562 141.791 66.1562ZM140.357 60.3905V63.778C140.358 64.6369 140.63 65.2721 141.123 65.5655C141.61 65.857 142.274 65.7852 142.989 65.3613L142.99 65.3607C143.865 64.8456 166.449 51.4765 166.676 51.3427C168.236 50.4179 169.507 48.1497 169.509 46.2873L169.505 43.1337C166.408 44.969 142.397 59.184 140.357 60.3905Z" fill="#373B42"/>
<path d="M162.823 51.1567C163.158 50.5576 163.343 49.9211 163.343 49.3654C163.343 48.8652 163.195 48.5014 162.928 48.3411C162.664 48.1841 162.293 48.2312 161.881 48.4736L143.529 59.3366C143.063 59.6126 142.62 60.0953 142.284 60.697C141.947 61.2999 141.761 61.9403 141.762 62.4999C141.762 62.9943 141.908 63.3542 142.174 63.5126C142.439 63.6709 142.812 63.6237 143.225 63.3794L161.578 52.517C162.045 52.2411 162.486 51.7577 162.823 51.1567Z" fill="white"/>
<path d="M167.581 48.3413C167.917 47.7423 168.101 47.1064 168.101 46.5506C168.101 46.0505 167.954 45.6873 167.687 45.527C167.423 45.3693 167.05 45.4165 166.638 45.6608C166.172 45.9367 165.729 46.4195 165.393 47.0211C165.056 47.624 164.87 48.2638 164.87 48.8234C164.87 49.3178 165.017 49.6771 165.282 49.8361C165.547 49.9944 165.92 49.9472 166.334 49.7029C166.802 49.4264 167.245 48.943 167.581 48.3413Z" fill="white"/>
<path d="M167.137 48.0711C167.336 47.715 167.446 47.337 167.446 47.0067C167.446 46.7095 167.358 46.4936 167.2 46.398C167.043 46.3043 166.821 46.3327 166.576 46.4775C166.298 46.6416 166.036 46.9286 165.836 47.2866C165.636 47.6446 165.525 48.0252 165.525 48.358C165.525 48.6514 165.612 48.8653 165.77 48.9603C165.927 49.0546 166.15 49.0262 166.395 48.8814C166.673 48.7167 166.937 48.4291 167.137 48.0711Z" fill="#FFBE2E"/>
<path d="M169.607 37.4147C170.794 36.7071 170.785 35.5588 169.606 34.8511C168.41 34.1345 166.504 34.1345 165.316 34.8421C164.098 35.5678 164.091 36.7071 165.287 37.4238C166.466 38.1314 168.388 38.1404 169.607 37.4147Z" fill="#FFBE2E"/>
<path d="M121.61 85.5237C121.575 85.5237 121.541 85.5146 121.51 85.4959L109.855 78.5541C109.76 78.4972 109.726 78.3712 109.782 78.2723C109.837 78.1728 109.961 78.1399 110.055 78.1967L121.71 85.1385C121.805 85.1954 121.838 85.3214 121.783 85.4203C121.746 85.4868 121.678 85.5237 121.61 85.5237Z" fill="#373B42"/>
<path d="M121.931 201.149C121.897 201.149 121.863 201.14 121.831 201.121L110.177 194.179C110.082 194.122 110.049 193.996 110.104 193.897C110.16 193.798 110.283 193.765 110.378 193.822L122.032 200.764C122.127 200.82 122.16 200.946 122.105 201.045C122.068 201.112 122 201.149 121.931 201.149Z" fill="#373B42"/>
<path d="M133.974 106.827L150.29 97.1074L150.343 116.451L134.027 126.17L133.974 106.827ZM147.099 114.544L147.067 102.867L137.218 108.734L137.25 120.411L147.099 114.544Z" fill="#212121"/>
<path d="M143.768 108.758L143.779 112.591L140.546 114.517L140.535 110.684L143.768 108.758Z" fill="#212121"/>
<path d="M172.914 91.3975L172.924 95.2302L169.691 97.1566L169.681 93.3232L172.914 91.3975Z" fill="#212121"/>
<path d="M163.118 89.4644L179.433 79.7451L179.487 99.0886L163.171 108.808L163.118 89.4644ZM176.243 97.1816L176.211 85.5043L166.362 91.3714L166.394 103.049L176.243 97.1816Z" fill="#212121"/>
<path d="M163.299 127.872L163.309 131.705L160.071 133.634L160.061 129.801L163.299 127.872Z" fill="#212121"/>
<path d="M166.553 133.61L169.786 131.684L169.807 139.356L168.191 140.319L166.574 141.282L156.869 147.063L156.858 143.224L166.563 137.443L166.553 133.61Z" fill="#212121"/>
<path d="M160.084 137.467L156.851 139.393L156.861 143.226L153.628 145.153L153.597 133.652L156.83 131.727L156.84 135.56L160.074 133.634L160.084 137.467Z" fill="#212121"/>
<path d="M160.05 125.965L160.06 129.798L156.827 131.724L156.816 127.891L160.05 125.965Z" fill="#212121"/>
<path d="M146.974 122.228L146.985 126.061L156.794 120.218L156.804 124.057L156.815 127.89L153.582 129.816L153.571 125.983L143.762 131.826L143.752 127.987L140.514 129.916L140.503 126.083L143.741 124.154L146.974 122.228Z" fill="#212121"/>
<path d="M134.068 141.264L150.384 131.545L150.437 150.894L134.122 160.614L134.068 141.264ZM147.194 148.981L147.162 137.304L137.313 143.171L137.345 154.849L147.194 148.981Z" fill="#212121"/>
<path d="M143.863 143.197L143.874 147.031L140.641 148.957L140.63 145.124L143.863 143.197Z" fill="#212121"/>
<path d="M140.514 129.919L140.525 133.758L137.292 135.684L137.281 131.845L140.514 129.919Z" fill="#212121"/>
<path d="M159.954 91.3486L159.965 95.1821L156.732 97.1078L156.743 101.03L159.976 99.104L160.007 110.473L156.774 112.399L156.785 116.386L153.552 118.312L153.53 110.492L156.763 108.566L156.753 104.863L153.52 106.789L153.488 95.2008L156.721 93.275L159.954 91.3486Z" fill="#212121"/>
<path d="M160.019 114.461L160.03 118.294L156.797 120.22L156.786 116.387L160.019 114.461Z" fill="#212121"/>
<path d="M163.278 120.205L163.288 124.038L160.05 125.967L160.039 122.134L163.278 120.205Z" fill="#212121"/>
<path d="M166.543 129.778L166.553 133.612L163.32 135.537L163.31 131.704L166.543 129.778Z" fill="#212121"/>
<path d="M179.421 102.9L179.443 110.549L176.284 112.431L176.295 116.288L176.305 120.12L172.998 122.091L173.008 125.924L176.241 123.998L176.251 127.832L169.785 131.683L169.775 127.851L169.765 124.017L163.298 127.869L163.287 124.036L173.062 118.213L173.041 110.565L176.199 108.683L176.188 104.827L179.421 102.9Z" fill="#212121"/>
<path d="M169.724 108.681L169.735 112.514L169.745 116.353L166.512 118.279L166.502 114.44L163.268 116.366L163.258 112.533L166.491 110.607L169.724 108.681Z" fill="#212121"/>
<path d="M179.54 118.196L179.55 122.03L176.317 123.955L176.307 120.122L179.54 118.196Z" fill="#212121"/>
<path d="M179.483 125.906L179.494 129.74L176.261 131.665L176.25 127.833L179.483 125.906Z" fill="#212121"/>
<path d="M176.263 131.666L176.274 135.505L173.041 137.432L173.03 133.592L176.263 131.666Z" fill="#212121"/>
<path d="M137.271 128.013L137.282 131.846L134.049 133.772L134.038 129.939L137.271 128.013Z" fill="#212121"/>
<path d="M130.334 123.086C130.223 123.086 130.133 122.994 130.133 122.88L130.083 104.613C130.083 104.539 130.121 104.471 130.183 104.434L145.59 95.2556C145.684 95.1981 145.807 95.2317 145.864 95.3312C145.918 95.4301 145.886 95.5561 145.791 95.613L130.483 104.732L130.533 122.879C130.533 122.993 130.444 123.086 130.334 123.086Z" fill="#373B42"/>
<path d="M167.841 145.132C167.772 145.132 167.705 145.096 167.667 145.029C167.613 144.93 167.645 144.804 167.74 144.747L183.043 135.632L182.993 117.49C182.993 117.376 183.082 117.283 183.192 117.283C183.302 117.283 183.393 117.375 183.393 117.489L183.443 135.75C183.443 135.824 183.405 135.893 183.343 135.929L167.94 145.105C167.909 145.123 167.875 145.132 167.841 145.132Z" fill="#373B42"/>
<path d="M183.121 91.6388C183.011 91.6388 182.921 91.547 182.921 91.4326L182.871 73.5224L167.768 82.5192C167.673 82.5754 167.551 82.5431 167.494 82.4436C167.44 82.3447 167.472 82.2187 167.567 82.1618L182.97 72.9867C183.033 72.9499 183.108 72.9499 183.171 72.986C183.233 73.0229 183.271 73.0907 183.271 73.165L183.321 91.432C183.321 91.5457 183.232 91.6388 183.122 91.6388H183.121Z" fill="#373B42"/>
<path d="M130.455 167.405C130.42 167.405 130.386 167.395 130.354 167.377C130.292 167.341 130.254 167.273 130.254 167.198L130.204 148.937C130.204 148.824 130.293 148.73 130.403 148.73C130.514 148.73 130.604 148.822 130.604 148.937L130.654 166.841L145.761 157.841C145.855 157.783 145.979 157.817 146.035 157.917C146.09 158.015 146.057 158.141 145.962 158.198L130.555 167.377C130.524 167.395 130.489 167.405 130.455 167.405Z" fill="#373B42"/>
<path d="M149.376 72.218C150.047 71.8186 150.59 72.1379 150.592 72.9327C150.594 73.7282 150.055 74.6982 149.384 75.0976L131.888 85.5199C131.218 85.9193 130.67 85.5975 130.667 84.802C130.665 84.0065 131.209 83.0397 131.88 82.6403L149.376 72.218Z" fill="#3C2C0B"/>
<path d="M159.397 74.5578C160.068 74.1585 160.611 74.4777 160.613 75.2726C160.616 76.0681 160.076 77.038 159.406 77.4374L131.888 93.9511C131.218 94.3505 130.67 94.0287 130.667 93.2332C130.665 92.4376 131.209 91.4709 131.88 91.0715L159.397 74.5578Z" fill="#3C2C0B"/>
<path d="M130.67 176.476C130.601 176.476 130.534 176.44 130.496 176.373C130.442 176.274 130.474 176.148 130.569 176.091L142.756 168.833C142.849 168.775 142.973 168.809 143.03 168.908C143.084 169.007 143.052 169.133 142.956 169.19L130.77 176.449C130.738 176.468 130.704 176.476 130.67 176.476Z" fill="#373B42"/>
<path d="M149.486 165.269C149.417 165.269 149.35 165.233 149.313 165.166C149.258 165.067 149.291 164.941 149.386 164.884L170.528 152.292C170.621 152.236 170.746 152.269 170.802 152.368C170.856 152.467 170.824 152.593 170.729 152.65L149.587 165.242C149.555 165.26 149.52 165.269 149.486 165.269Z" fill="#373B42"/>
<path d="M176.566 149.141C176.497 149.141 176.43 149.105 176.393 149.038C176.338 148.939 176.371 148.813 176.466 148.756L183.142 144.78C183.235 144.723 183.359 144.756 183.416 144.856C183.47 144.955 183.438 145.081 183.342 145.137L176.666 149.114C176.635 149.132 176.601 149.141 176.566 149.141Z" fill="#373B42"/>
<path d="M130.67 184.456C130.601 184.456 130.534 184.42 130.496 184.353C130.442 184.254 130.474 184.128 130.569 184.071L151.6 171.545C151.693 171.488 151.817 171.521 151.873 171.621C151.928 171.72 151.895 171.846 151.8 171.903L130.77 184.428C130.738 184.447 130.704 184.456 130.67 184.456Z" fill="#373B42"/>
<path d="M159.302 167.403C159.234 167.403 159.167 167.366 159.129 167.3C159.074 167.201 159.107 167.075 159.202 167.018L168.382 161.55C168.476 161.494 168.599 161.526 168.656 161.626C168.711 161.725 168.678 161.851 168.583 161.908L159.403 167.375C159.371 167.394 159.337 167.403 159.302 167.403Z" fill="#373B42"/>
<path d="M174.631 158.273C174.562 158.273 174.495 158.236 174.457 158.17C174.403 158.071 174.435 157.945 174.53 157.888L183.141 152.76C183.234 152.702 183.358 152.736 183.415 152.835C183.469 152.934 183.437 153.06 183.342 153.117L174.731 158.245C174.699 158.264 174.665 158.273 174.631 158.273Z" fill="#373B42"/>
<path d="M130.67 192.435C130.601 192.435 130.534 192.398 130.496 192.332C130.442 192.233 130.474 192.107 130.569 192.05L164.995 171.546C165.088 171.489 165.212 171.522 165.269 171.622C165.323 171.721 165.291 171.847 165.195 171.904L130.77 192.407C130.738 192.426 130.704 192.435 130.67 192.435Z" fill="#373B42"/>
<path d="M29.3576 144.397C29.4516 144.453 29.5449 144.553 29.6138 144.684L32.1861 149.539C32.3922 149.926 32.2299 150.262 31.9249 150.081L30.8226 149.424L30.795 159.482C30.7944 159.653 30.6792 159.724 30.532 159.637L28.0981 158.186C27.954 158.101 27.8362 157.89 27.8362 157.719L27.8638 147.661L26.7615 147.005C26.4564 146.823 26.2999 146.298 26.5109 146.158L29.0983 144.377C29.1691 144.329 29.2637 144.34 29.3576 144.397Z" fill="#373B42"/>
<path d="M21.7951 139.698C21.8891 139.755 21.9824 139.855 22.0513 139.985L24.6236 144.84C24.8297 145.228 24.6675 145.564 24.3625 145.383L23.2601 144.726L23.2325 154.783C23.2319 154.954 23.1167 155.026 22.9695 154.938L20.5356 153.488C20.3909 153.402 20.2738 153.192 20.2738 153.02L20.3013 142.963L19.199 142.307C18.894 142.125 18.7374 141.6 18.9484 141.46L21.5358 139.678C21.6066 139.631 21.7012 139.642 21.7951 139.698Z" fill="#373B42"/>
<path d="M33.1811 161.552C33.1441 161.552 33.1084 161.541 33.0746 161.52L17.5178 151.488C17.4239 151.427 17.3957 151.3 17.4546 151.203C17.5134 151.106 17.6369 151.078 17.7308 151.138L33.2876 161.17C33.3815 161.23 33.4097 161.358 33.3508 161.454C33.3132 161.517 33.2475 161.552 33.1811 161.552Z" fill="#373B42"/>
<path d="M29.5078 55.7863L39.5435 61.7606L82.95 35.7377L72.9143 29.7627L29.5078 55.7863Z" fill="#212121"/>
<path d="M39.5437 61.9664C39.5093 61.9664 39.4748 61.9573 39.4435 61.9386L29.4078 55.9642C29.3458 55.9274 29.3076 55.8595 29.3076 55.7859C29.3076 55.7122 29.3452 55.6437 29.4072 55.6069L72.8131 29.5833C72.8757 29.5465 72.9515 29.5465 73.0141 29.5833L83.0498 35.5577C83.1118 35.5945 83.15 35.6623 83.15 35.736C83.15 35.8097 83.1124 35.8782 83.0504 35.915L39.6445 61.938C39.6132 61.9567 39.5782 61.9664 39.5437 61.9664ZM29.9083 55.7846L39.5443 61.5205L82.5506 35.7373L72.9146 30.0008L29.9083 55.7846Z" fill="#373B42"/>
<path d="M39.5429 61.7618L39.5423 75.3707L34.5342 66.9329L29.5254 69.4422L29.526 55.834L39.5429 61.7618Z" fill="#212121"/>
<path d="M39.5429 75.5768C39.4746 75.5768 39.4088 75.5406 39.3725 75.4779L34.4589 67.2004L29.6143 69.6283C29.551 69.6587 29.479 69.6554 29.4201 69.6173C29.3613 69.5792 29.3262 69.5132 29.3262 69.4422L29.3268 55.8333C29.3268 55.7596 29.365 55.6911 29.427 55.6549C29.4878 55.6174 29.5654 55.6181 29.6262 55.6543L39.6431 61.5821C39.7057 61.6189 39.7439 61.6874 39.7439 61.7611L39.7433 75.37C39.7433 75.4624 39.6838 75.5438 39.5967 75.569C39.5786 75.5749 39.561 75.5768 39.5429 75.5768ZM34.5348 66.7267C34.6018 66.7267 34.6675 66.7623 34.7051 66.8256L39.3431 74.6378L39.3437 61.8813L29.7277 56.19L29.727 69.1119L34.4477 66.7468C34.4752 66.7332 34.5047 66.7267 34.5348 66.7267Z" fill="#373B42"/>
<path d="M176.007 200.493C175.063 200.493 174.119 200.278 173.402 199.849L163.789 194.085C163.694 194.028 163.662 193.901 163.717 193.803C163.772 193.703 163.894 193.671 163.991 193.728L173.603 199.491C174.925 200.284 177.085 200.284 178.416 199.491L212.917 179.304C213.013 179.246 213.135 179.282 213.191 179.381C213.244 179.48 213.211 179.607 213.115 179.663L178.615 199.849C177.894 200.279 176.95 200.493 176.007 200.493Z" fill="#DBDEE4"/>
<path d="M216.949 176.653C218.584 177.627 218.594 179.205 216.97 180.179C215.347 181.152 212.704 181.152 211.069 180.179C209.435 179.205 209.427 177.628 211.05 176.654C212.673 175.681 215.315 175.68 216.949 176.653Z" fill="white"/>
<path d="M214.023 181.11C212.919 181.11 211.813 180.859 210.969 180.357C210.111 179.847 209.639 179.155 209.638 178.41C209.637 177.67 210.103 176.982 210.95 176.475C212.628 175.47 215.364 175.469 217.05 176.473C217.908 176.984 218.381 177.676 218.382 178.421C218.383 179.162 217.917 179.848 217.07 180.356C216.232 180.859 215.129 181.11 214.023 181.11ZM213.998 176.127C212.965 176.127 211.934 176.362 211.152 176.833C210.433 177.263 210.037 177.823 210.038 178.41C210.039 179.001 210.441 179.565 211.17 180C212.746 180.938 215.304 180.939 216.869 179.999C217.588 179.569 217.983 179.008 217.982 178.422C217.981 177.83 217.578 177.265 216.849 176.831C216.062 176.362 215.029 176.127 213.998 176.127Z" fill="#DBDEE4"/>
<path d="M214.02 179.528C213.383 179.528 212.766 179.379 212.329 179.118C211.977 178.909 211.775 178.651 211.774 178.412C211.774 178.176 211.972 177.922 212.317 177.714C212.751 177.454 213.366 177.305 214.002 177.305C214.639 177.305 215.255 177.454 215.693 177.714C216.045 177.924 216.247 178.182 216.247 178.421C216.248 178.657 216.05 178.911 215.705 179.118C215.271 179.379 214.657 179.528 214.02 179.528Z" fill="#FFBE2E"/>
<path d="M202.332 186.334C202.69 186.334 203.037 186.25 203.284 186.104C203.481 185.986 203.595 185.841 203.595 185.707C203.595 185.574 203.485 185.431 203.29 185.315C203.046 185.168 202.701 185.084 202.343 185.084C201.984 185.084 201.638 185.168 201.392 185.315C201.194 185.432 201.08 185.577 201.08 185.712C201.08 185.845 201.191 185.988 201.385 186.104C201.629 186.25 201.974 186.334 202.332 186.334Z" fill="#373B42"/>
<path d="M202.332 186.542C201.941 186.542 201.558 186.449 201.284 186.284C201.023 186.127 200.879 185.924 200.879 185.713C200.879 185.499 201.025 185.295 201.291 185.137C201.843 184.807 202.842 184.81 203.39 185.137C203.652 185.295 203.796 185.498 203.795 185.709C203.795 185.921 203.649 186.126 203.384 186.284C203.108 186.448 202.724 186.542 202.332 186.542ZM202.343 185.291C202.019 185.291 201.709 185.366 201.492 185.495C201.338 185.587 201.28 185.678 201.28 185.713C201.28 185.748 201.336 185.837 201.486 185.928C201.917 186.185 202.751 186.185 203.184 185.927C203.338 185.835 203.395 185.745 203.395 185.709C203.395 185.673 203.34 185.585 203.19 185.494C202.975 185.366 202.666 185.292 202.343 185.291Z" fill="#373B42"/>
</g>
</g>
<defs>
<linearGradient id="paint0_linear_4756_47041" x1="128.903" y1="85.0113" x2="61.54" y2="85.0113" gradientUnits="userSpaceOnUse">
<stop offset="0.0334" stop-color="#FFBE2E"/>
<stop offset="1" stop-color="#212121"/>
</linearGradient>
</defs>
</svg>
