<svg width="13" height="24" viewBox="0 0 13 24" fill="none" xmlns="http://www.w3.org/2000/svg">
<path d="M11.9319 1.96846C12.0372 1.85707 12.1194 1.72605 12.1741 1.58287C12.2287 1.43968 12.2546 1.28714 12.2502 1.13396C12.2459 0.980773 12.2114 0.829941 12.1488 0.690074C12.0862 0.550207 11.9966 0.424045 11.8852 0.318791C11.7738 0.213536 11.6428 0.131251 11.4996 0.0766327C11.3565 0.0220146 11.2039 -0.00386673 11.0507 0.000466669C10.8975 0.00480007 10.7467 0.0392632 10.6068 0.101888C10.467 0.164514 10.3408 0.254074 10.2356 0.365457L0.3189 10.8655C0.114107 11.0821 0 11.3689 0 11.667C0 11.9651 0.114107 12.2518 0.3189 12.4685L10.2356 22.9696C10.3401 23.0834 10.4663 23.1754 10.6066 23.24C10.747 23.3047 10.8989 23.3408 11.0533 23.3463C11.2078 23.3518 11.3618 23.3265 11.5064 23.272C11.651 23.2174 11.7834 23.1347 11.8957 23.0286C12.0081 22.9225 12.0983 22.7951 12.161 22.6539C12.2237 22.5126 12.2578 22.3603 12.2611 22.2058C12.2645 22.0512 12.2371 21.8976 12.1806 21.7537C12.1241 21.6099 12.0395 21.4787 11.9319 21.3678L2.77123 11.667L11.9319 1.96846Z" fill="white"/>
</svg>
