<svg width="200" height="80" viewBox="0 0 200 80" fill="none" xmlns="http://www.w3.org/2000/svg">
<rect width="200" height="80" rx="12" fill="white"/>
<mask id="mask0_3197_24334" style="mask-type:alpha" maskUnits="userSpaceOnUse" x="16" y="16" width="168" height="48">
<rect x="16" y="16" width="168" height="48" fill="#D9D9D9"/>
</mask>
<g mask="url(#mask0_3197_24334)">
</g>
<g clip-path="url(#clip0_3197_24334)">
<path d="M99.8945 50.0279L97.1215 26.9166C96.3754 20.693 91.0872 16 84.8197 16H58.343C52.0755 16 46.7873 20.693 46.0413 26.9166L43.271 50.0279C42.8486 53.5442 43.9539 57.0798 46.3046 59.7266C48.6525 62.3762 52.0317 63.893 55.5727 63.893H87.5928C91.1311 63.893 94.5103 62.3762 96.8609 59.7266C99.2088 57.0798 100.317 53.5442 99.8945 50.0279ZM92.2995 55.7083C91.0405 57.1264 89.3043 57.9054 87.4117 57.9054H55.751C53.8557 57.9054 52.1194 57.1264 50.8632 55.7083C49.6042 54.2903 49.0392 52.4745 49.2641 50.5929L52.0015 27.7422C52.3937 24.4617 55.1832 21.9877 58.4883 21.9877H84.6716C87.9768 21.9877 90.7663 24.4645 91.1585 27.7422L93.8986 50.5929C94.1235 52.4745 93.553 54.2903 92.2995 55.7083Z" fill="black"/>
<path d="M87.4892 42.9315C87.0531 42.2623 86.3839 41.8042 85.6021 41.6396C84.8204 41.4751 84.0223 41.6259 83.3557 42.0593C75.3823 47.257 67.6255 47.257 59.6383 42.0593C58.969 41.6232 58.1708 41.4751 57.3919 41.6396C56.6101 41.8042 55.9409 42.2623 55.5075 42.9315C55.0714 43.6008 54.9233 44.399 55.0879 45.1779C55.2525 45.9596 55.7105 46.6289 56.3797 47.0623C61.3717 50.3126 66.4598 51.9583 71.5038 51.9583C76.548 51.9583 81.6332 50.3098 86.617 47.0595C87.2863 46.6234 87.7443 45.9542 87.9089 45.1724C88.0734 44.3907 87.9226 43.5953 87.4892 42.926V42.9315Z" fill="black"/>
<path d="M147.521 30.4306L144.687 31.407C144.997 32.4054 145.378 33.8344 145.378 34.6683C145.378 35.5734 144.808 36.1192 143.714 36.1192C142.619 36.1192 141.928 35.8587 141.928 34.383V31.8376H138.93V34.383C138.93 35.8587 138.263 36.1192 137.073 36.1192C135.883 36.1192 135.241 35.8587 135.241 34.383V31.8376H132.218V34.3611C132.218 35.8614 131.409 36.122 129.673 36.122C127.937 36.122 127.27 35.7654 127.27 33.8125V22.8877H124.105V33.9771C124.105 35.7846 123.485 36.1192 121.702 36.1192C120.298 36.1192 119.467 35.834 119.467 34.0484V25.861H116.491V27.5533C110.849 28.7163 108.827 31.0751 108.827 34.0264C108.827 36.9778 110.684 38.6427 113.397 38.6427C115.421 38.6427 116.441 37.6196 116.897 36.2372C117.303 38.6893 118.726 40.1156 121.51 40.1156H121.516C123.633 40.1156 124.823 39.1638 125.323 37.7128C125.943 39.3311 127.347 40.1156 129.486 40.1156C131.461 40.1156 132.748 39.4024 133.247 37.9268C133.746 39.4271 134.936 40.1156 136.626 40.1156C138.316 40.1156 139.481 39.4024 139.959 37.9021C140.458 39.4024 141.673 40.1156 143.623 40.1156C146.574 40.1156 148.382 38.1874 148.382 34.6902C148.382 33.4038 148.025 31.6429 147.526 30.4306H147.521ZM116.485 33.9524C116.011 34.3336 115.106 34.6189 113.773 34.6189C112.557 34.6189 111.345 34.287 111.345 33.4779C111.345 32.5947 112.607 31.717 116.485 31.0724V33.9524Z" fill="black"/>
<path d="M117.958 25.2491C118.998 25.2491 119.851 24.4948 119.851 23.4361C119.851 22.317 118.954 21.623 117.958 21.623C116.963 21.623 116.044 22.3362 116.044 23.4361C116.044 24.536 116.979 25.2491 117.958 25.2491Z" fill="black"/>
<path d="M113.682 25.2491C114.722 25.2491 115.575 24.4948 115.575 23.4361C115.575 22.317 114.678 21.623 113.682 21.623C112.686 21.623 111.768 22.3362 111.768 23.4361C111.768 24.536 112.703 25.2491 113.682 25.2491Z" fill="black"/>
<path d="M108.83 57.1562L109.299 54.6108C110.215 55.2609 111.844 55.8533 113.207 55.8533C114.387 55.8533 115.081 55.4666 115.081 54.8138C115.081 53.0419 108.934 54.6904 108.934 50.3951C108.934 48.1569 110.786 46.6895 113.778 46.6895C115.385 46.6895 116.872 47.1365 117.931 47.6879L117.421 50.1701C116.422 49.6408 115.16 49.1525 113.94 49.1525C112.821 49.1525 112.127 49.5804 112.127 50.1921C112.127 52.0435 118.274 50.4554 118.274 54.4682C118.274 56.668 116.178 58.2149 113.081 58.2149C111.23 58.2149 109.743 57.6664 108.827 57.1562H108.83Z" fill="black"/>
<path d="M128.577 47.06H131.794V57.9107H128.577V56.1196C127.702 57.4225 126.459 58.1768 124.852 58.1768C122.123 58.1768 119.498 56.2431 119.498 52.4771C119.498 48.7112 122.002 46.7363 124.852 46.7363C126.44 46.7363 127.683 47.326 128.577 48.5082V47.0627V47.06ZM128.577 52.4332C127.987 50.4172 126.805 49.3996 125.461 49.3996C124.016 49.3996 122.896 50.4776 122.896 52.4332C122.896 54.3889 124.037 55.508 125.483 55.508C126.928 55.508 128.048 54.2655 128.577 52.4332Z" fill="black"/>
<path d="M134.153 57.9109V43.5986H137.371V57.9109H134.153Z" fill="black"/>
<path d="M139.731 57.9109V43.5986H142.949V57.9109H139.731Z" fill="black"/>
<path d="M153.859 47.06H157.077V57.9107H153.859V56.1196C152.984 57.4225 151.742 58.1768 150.134 58.1768C147.405 58.1768 144.78 56.2431 144.78 52.4771C144.78 48.7112 147.285 46.7363 150.134 46.7363C151.722 46.7363 152.965 47.326 153.859 48.5082V47.0627V47.06ZM153.859 52.4332C153.269 50.4172 152.087 49.3996 150.743 49.3996C149.298 49.3996 148.179 50.4776 148.179 52.4332C148.179 54.3889 149.32 55.508 150.765 55.508C152.211 55.508 153.33 54.2655 153.859 52.4332Z" fill="black"/>
</g>
<defs>
<clipPath id="clip0_3197_24334">
<rect width="114.103" height="48" fill="white" transform="translate(43 16)"/>
</clipPath>
</defs>
</svg>
