<svg width="105" height="44" viewBox="0 0 105 44" fill="none" xmlns="http://www.w3.org/2000/svg">
<path d="M104.705 31.2601L102.154 10.0268C101.475 4.30563 96.6094 0 90.8439 0H66.5142C60.7488 0 55.8976 4.32037 55.2045 10.0268L52.6536 31.2601C52.2702 34.4893 53.2877 37.7332 55.4405 40.1662C57.5933 42.5992 60.7045 44 63.9633 44H93.3801C96.6241 44 99.7354 42.5992 101.903 40.1662C104.07 37.748 105.088 34.4893 104.705 31.2601ZM97.73 36.4799C96.5799 37.7775 94.9726 38.5 93.2327 38.5H64.1402C62.4003 38.5 60.8078 37.7775 59.6429 36.4799C58.4927 35.1823 57.9619 33.5013 58.1683 31.7761L60.6898 10.7788C61.0437 7.77078 63.6094 5.48526 66.6469 5.48526H90.7112C93.7488 5.48526 96.3145 7.75603 96.6683 10.7788L99.1898 31.7761C99.3962 33.5161 98.8801 35.1823 97.73 36.4799Z" fill="#004956"/>
<path d="M93.3058 24.7425C92.9077 24.1232 92.2884 23.7103 91.5659 23.5629C90.8433 23.4154 90.1208 23.5481 89.5015 23.9462C82.1731 28.7237 75.0511 28.7237 67.708 23.9462C67.0887 23.5481 66.3661 23.4154 65.6436 23.5629C64.9211 23.7103 64.3165 24.1379 63.9184 24.7572C63.5203 25.3765 63.3876 26.0991 63.535 26.8216C63.6825 27.5441 64.1101 28.1487 64.7294 28.5468C69.3152 31.5253 73.9895 33.0441 78.6195 33.0441C83.2495 33.0441 87.9238 31.5253 92.5096 28.5468C93.1289 28.1487 93.5417 27.5294 93.6892 26.8068C93.8366 26.0843 93.7039 25.3618 93.3058 24.7425Z" fill="#004956"/>
<path d="M43.3947 13.2556L40.7995 14.155C41.0797 15.0693 41.4336 16.3816 41.4336 17.1483C41.4336 17.9741 40.9027 18.4754 39.9 18.4754C38.8679 18.4754 38.2633 18.2395 38.2633 16.8829V14.5384H35.5059V16.8829C35.5059 18.2395 34.8866 18.4754 33.7955 18.4754C32.7191 18.4754 32.1145 18.2395 32.1145 16.8829V14.5384H29.3424V16.8534C29.3424 18.2248 28.6051 18.4754 26.9979 18.4754C25.3612 18.4754 24.7861 18.151 24.7861 16.3521V6.31055H21.8813V16.4996C21.8813 18.1658 21.3062 18.4607 19.6695 18.4607C18.3719 18.4607 17.6199 18.1953 17.6199 16.5585V9.03843H14.892V10.5867C9.70166 11.6631 7.84375 13.8159 7.84375 16.529C7.84375 19.1095 9.55421 20.7757 12.0462 20.7757C13.9041 20.7757 14.8478 19.832 15.2606 18.5639C15.6293 20.8199 16.9416 22.1323 19.4925 22.1323C21.4389 22.1323 22.5301 21.2623 22.9872 19.9205C23.5622 21.4097 24.8451 22.1323 26.821 22.1323C28.6346 22.1323 29.8143 21.4835 30.2714 20.1269C30.7285 21.4982 31.8196 22.1323 33.3826 22.1323C34.9456 22.1323 36.0073 21.4835 36.4496 20.0974C36.9068 21.4687 38.0274 22.1323 39.8116 22.1323C42.5247 22.1323 44.1909 20.3628 44.1909 17.1483C44.1909 15.9835 43.8518 14.3762 43.3947 13.2556ZM14.8773 16.4848C14.4349 16.8387 13.6092 17.1041 12.3853 17.1041C11.2647 17.1041 10.1588 16.7945 10.1588 16.0572C10.1588 15.2462 11.3236 14.4352 14.8773 13.8454V16.4848Z" fill="#004956"/>
<path d="M16.2352 8.49308C17.1936 8.49308 17.9751 7.80006 17.9751 6.82687C17.9751 5.7947 17.1494 5.16064 16.2352 5.16064C15.2767 5.16064 14.4805 5.80944 14.4805 6.82687C14.4805 7.85904 15.3357 8.49308 16.2352 8.49308Z" fill="#004956"/>
<path d="M12.3096 8.49308C13.268 8.49308 14.0495 7.80006 14.0495 6.82687C14.0495 5.7947 13.2238 5.16064 12.3096 5.16064C11.3511 5.16064 10.5549 5.80944 10.5549 6.82687C10.5401 7.85904 11.4101 8.49308 12.3096 8.49308Z" fill="#004956"/>
<path d="M0 37.8216L0.427613 35.4771C1.2681 36.0816 2.77212 36.6124 4.02547 36.6124C5.11662 36.6124 5.75067 36.2586 5.75067 35.654C5.75067 34.032 0.103217 35.536 0.103217 31.599C0.103217 29.5347 1.79893 28.1929 4.5563 28.1929C6.03083 28.1929 7.40214 28.6057 8.37533 29.1071L7.90349 31.3926C6.98928 30.906 5.8244 30.4637 4.70375 30.4637C3.67158 30.4637 3.03753 30.8618 3.03753 31.4221C3.03753 33.1178 8.68499 31.658 8.68499 35.3443C8.68499 37.3645 6.75335 38.78 3.92225 38.78C2.2118 38.7947 0.840482 38.2787 0 37.8216Z" fill="#004956"/>
<path d="M18.1505 28.5323H21.0996V38.5001H18.1505V36.8487C17.3395 38.043 16.2042 38.7361 14.7296 38.7361C12.2229 38.7361 9.80469 36.9519 9.80469 33.5015C9.80469 30.0511 12.105 28.2227 14.7296 28.2227C16.1894 28.2227 17.3248 28.7682 18.1505 29.8446V28.5323ZM18.1505 33.472C17.605 31.6141 16.5285 30.6851 15.2899 30.6851C13.9629 30.6851 12.9307 31.6731 12.9307 33.472C12.9307 35.2562 13.9776 36.3031 15.3047 36.3031C16.6023 36.3031 17.6639 35.1529 18.1505 33.472Z" fill="#004956"/>
<path d="M23.2656 38.5V25.3472H26.2147V38.5H23.2656Z" fill="#004956"/>
<path d="M28.3984 38.5V25.3472H31.3475V38.5H28.3984Z" fill="#004956"/>
<path d="M41.3732 28.5323H44.3223V38.5001H41.3732V36.8487C40.5622 38.043 39.4268 38.7361 37.9523 38.7361C35.4456 38.7361 33.0273 36.9519 33.0273 33.5015C33.0273 30.0511 35.3276 28.2227 37.9523 28.2227C39.4121 28.2227 40.5475 28.7682 41.3732 29.8446V28.5323ZM41.3732 33.472C40.8276 31.6141 39.7512 30.6851 38.5126 30.6851C37.1855 30.6851 36.1534 31.6731 36.1534 33.472C36.1534 35.2562 37.2003 36.3031 38.5273 36.3031C39.8249 36.3031 40.8866 35.1529 41.3732 33.472Z" fill="#004956"/>
</svg>
