<svg width="104" height="104" viewBox="0 0 104 104" fill="none" xmlns="http://www.w3.org/2000/svg">
<circle cx="51.7227" cy="51.7222" r="50.3611" fill="white" stroke="white" stroke-width="2.72222"/>
<rect x="15.4268" y="31.7592" width="39.9259" height="39.9259" rx="4.74644" fill="#FFBE2E"/>
<path d="M79.7945 49.5362L77.1432 47.8345L73.9869 39.2563C73.245 37.2506 71.336 35.9163 69.1976 35.9083H60.159V27.6868C60.159 26.8215 59.4576 26.1201 58.5923 26.1201H22.4378C21.5725 26.1201 20.8711 26.8215 20.8711 27.6868V75.5952C20.8711 76.4605 21.5725 77.1619 22.4378 77.1619H28.343C29.2075 81.0265 33.0413 83.4588 36.9061 82.5942C39.616 81.988 41.7322 79.8718 42.3384 77.1619H61.0279C61.8924 81.0265 65.7262 83.4588 69.591 82.5942C72.3009 81.988 74.4171 79.8718 75.0233 77.1619H81.0081C81.8734 77.1619 82.5748 76.4605 82.5748 75.5952V54.6255C82.579 52.5653 81.5304 50.6458 79.7945 49.5362ZM24.0045 29.2535H57.0172V62.0529H24.0045V29.2535ZM35.3401 79.6288C33.1098 79.6288 31.3017 77.8207 31.3017 75.5903C31.3017 73.36 33.1098 71.5519 35.3401 71.5519C37.5705 71.5519 39.3786 73.36 39.3786 75.5903C39.3759 77.8196 37.5694 79.6261 35.3401 79.6288ZM68.0262 79.6288H68.025C65.7946 79.6288 63.9866 77.8207 63.9866 75.5903C63.9866 73.36 65.7946 71.5519 68.025 71.5519C70.2554 71.5519 72.0635 73.36 72.0635 75.5903C72.0608 77.8191 70.255 79.6254 68.0262 79.6288ZM79.4414 74.0345H75.3993C75.2775 74.0352 75.1561 74.0502 75.0378 74.0791C74.1992 70.2086 70.3818 67.7508 66.5113 68.5895C63.7796 69.1813 61.6409 71.3066 61.0315 74.0345H42.3384C41.474 70.1698 37.6402 67.7376 33.7754 68.6021C31.0655 69.2083 28.9492 71.3246 28.343 74.0345H24.0045V65.1923H79.4414V74.0345ZM79.4414 62.0529H60.1506V39.0417H69.1892C70.0164 39.0435 70.7554 39.5591 71.0427 40.3349L74.3798 49.4072C74.4974 49.7272 74.7161 50.0002 75.0028 50.1846L78.094 52.1706C78.9332 52.7038 79.4414 53.629 79.4414 54.6231V62.0529Z" fill="#212121"/>
<path d="M47.6022 40.7974C47.1083 40.0869 46.132 39.9113 45.4215 40.4052L45.4203 40.4064C42.6818 42.3079 40.2367 44.6003 38.1629 47.2106C37.2513 46.1485 36.1662 45.2488 34.9535 44.5497C34.2038 44.117 33.2452 44.3742 32.8126 45.1239C32.3799 45.8737 32.6371 46.8322 33.3868 47.2649C34.7963 48.0768 35.9665 49.2461 36.7793 50.655C37.0471 51.1198 37.5341 51.4154 38.0701 51.4383H38.1363C38.6493 51.4382 39.1295 51.1869 39.4222 50.7658C41.5329 47.7263 44.1703 45.0889 47.2099 42.9782C47.9205 42.4843 48.0961 41.508 47.6022 40.7974Z" fill="#212121"/>
</svg>
