<svg width="73" height="73" viewBox="0 0 73 73" fill="none" xmlns="http://www.w3.org/2000/svg">
<g clip-path="url(#clip0_978_23176)">
<path d="M50.6308 5.8871H50.1598C45.4502 5.8871 40.976 4.00323 37.6792 0.706452L37.326 0.353226C36.855 -0.117742 36.1485 -0.117742 35.6776 0.353226L35.3243 0.706452C32.0276 4.00323 27.5534 5.8871 22.8437 5.8871H22.3727C21.6663 5.8871 21.1953 6.35806 21.1953 7.06452V20.7226C21.1953 25.079 23.3147 29.0823 26.9647 31.5548L35.7953 37.4419C36.1485 37.6774 36.7372 37.6774 37.0905 37.4419L45.9211 31.5548C49.6889 29.2 51.8082 25.079 51.8082 20.7226V7.06452C51.8082 6.35806 51.3372 5.8871 50.6308 5.8871ZM49.4534 20.8403C49.4534 24.3726 47.6873 27.6694 44.7437 29.671L36.5018 35.0871L28.2598 29.5532C25.3163 27.5516 23.5502 24.2548 23.5502 20.7226V8.24193C28.3776 8.12419 32.9695 6.12258 36.5018 2.82581C40.034 6.12258 44.626 8.00645 49.4534 8.24193V20.8403Z" fill="black"/>
<path d="M43.9175 12.1274L32.9675 23.0774L29.082 19.192L27.4336 20.8403L32.1433 25.55C32.6142 26.021 33.3207 26.021 33.7917 25.55L45.5659 13.7758L43.9175 12.1274Z" fill="black"/>
<path d="M71.8209 40.0322H38.8532C38.1467 40.0322 37.6758 40.5032 37.6758 41.2096V71.8226C37.6758 72.529 38.1467 73 38.8532 73H71.8209C72.5274 73 72.9984 72.529 72.9984 71.8226V41.2096C72.9984 40.5032 72.5274 40.0322 71.8209 40.0322ZM40.0306 47.0967H42.3855V65.9355H40.0306V47.0967ZM70.6435 70.6451H40.0306V68.2903H70.6435V70.6451ZM61.2242 58.8709V65.9355H58.8693V58.8709H56.5145V65.9355H54.1597V58.8709H51.8048V65.9355H49.45V58.8709H47.0951V65.9355H44.7403V47.0967H65.9338V65.9355H63.579V58.8709H61.2242ZM70.6435 65.9355H68.2887V47.0967H70.6435V65.9355ZM70.6435 44.7419H40.0306V42.3871H70.6435V44.7419Z" fill="black"/>
<path d="M60.0493 49.4517H50.6299C48.6283 49.4517 47.0977 50.9823 47.0977 52.9839C47.0977 54.9855 48.6283 56.5162 50.6299 56.5162H60.0493C62.0509 56.5162 63.5815 54.9855 63.5815 52.9839C63.5815 50.9823 62.0509 49.4517 60.0493 49.4517ZM60.0493 54.1613H50.6299C49.9235 54.1613 49.4525 53.6904 49.4525 52.9839C49.4525 52.2775 49.9235 51.8065 50.6299 51.8065H60.0493C60.7557 51.8065 61.2267 52.2775 61.2267 52.9839C61.2267 53.6904 60.7557 54.1613 60.0493 54.1613Z" fill="black"/>
<path d="M34.1452 40.0322H1.17742C0.470968 40.0322 0 40.5032 0 41.2096V71.8226C0 72.529 0.470968 73 1.17742 73H34.1452C34.8516 73 35.3226 72.529 35.3226 71.8226V41.2096C35.3226 40.5032 34.8516 40.0322 34.1452 40.0322ZM2.35484 47.0967H4.70968V65.9355H2.35484V47.0967ZM32.9677 70.6451H2.35484V68.2903H32.9677V70.6451ZM23.5484 58.8709V65.9355H21.1936V58.8709H18.8387V65.9355H16.4839V58.8709H14.129V65.9355H11.7742V58.8709H9.41936V65.9355H7.06452V47.0967H28.2581V65.9355H25.9032V58.8709H23.5484ZM32.9677 65.9355H30.6129V47.0967H32.9677V65.9355ZM32.9677 44.7419H2.35484V42.3871H32.9677V44.7419Z" fill="black"/>
<path d="M22.3696 49.4517H12.9502C10.9486 49.4517 9.41797 50.9823 9.41797 52.9839C9.41797 54.9855 10.9486 56.5162 12.9502 56.5162H22.3696C24.3712 56.5162 25.9018 54.9855 25.9018 52.9839C25.9018 50.9823 24.3712 49.4517 22.3696 49.4517ZM22.3696 54.1613H12.9502C12.2438 54.1613 11.7728 53.6904 11.7728 52.9839C11.7728 52.2775 12.2438 51.8065 12.9502 51.8065H22.3696C23.076 51.8065 23.547 52.2775 23.547 52.9839C23.547 53.6904 23.076 54.1613 22.3696 54.1613Z" fill="black"/>
</g>
<defs>
<clipPath id="clip0_978_23176">
<rect width="73" height="73" fill="white"/>
</clipPath>
</defs>
</svg>
