<svg width="123" height="123" viewBox="0 0 123 123" fill="none" xmlns="http://www.w3.org/2000/svg">
<circle cx="61.5" cy="61.5" r="61.0845" fill="#FFBE2E" stroke="#FFBE2E" stroke-width="0.831081"/>
<g clip-path="url(#clip0_7707_16841)">
<circle cx="61" cy="65" r="28" fill="white"/>
<path d="M36.0552 57.2764L38.3831 57.6141C38.7593 59.1823 39.3738 60.6821 40.2048 62.0602L38.7951 63.9576C38.6747 64.1194 38.6162 64.3196 38.6304 64.5214C38.6446 64.7233 38.7305 64.9131 38.8723 65.0561L42.2418 68.4599C42.398 68.6166 42.6094 68.7044 42.8295 68.704C43.0497 68.7036 43.2607 68.6151 43.4164 68.4579C43.5721 68.3007 43.6597 68.0875 43.6601 67.8651C43.6604 67.6428 43.5735 67.4293 43.4184 67.2716L40.5591 64.3832L41.881 62.6047C41.9841 62.4662 42.0422 62.2988 42.0473 62.1255C42.0524 61.9522 42.0043 61.7816 41.9095 61.6371C40.9263 60.1374 40.2388 58.4602 39.8847 56.6974C39.8507 56.5277 39.7655 56.3727 39.6408 56.2538C39.5161 56.1348 39.3581 56.0577 39.1884 56.0331L37.0059 55.7163V51.9461L39.1883 51.6292C39.358 51.6046 39.5161 51.5275 39.6408 51.4086C39.7654 51.2897 39.8507 51.1347 39.8847 50.9649C40.2388 49.2021 40.9263 47.5249 41.9095 46.0252C42.0043 45.8807 42.0525 45.7101 42.0474 45.5369C42.0423 45.3636 41.9842 45.1962 41.8811 45.0576L40.5591 43.2792L43.199 40.6128L44.9598 41.9481C45.097 42.0525 45.2629 42.1113 45.4346 42.1164C45.6064 42.1216 45.7754 42.0728 45.9185 41.9768C47.4029 40.9832 49.0632 40.2887 50.8084 39.9313C50.9765 39.8966 51.13 39.8104 51.2478 39.6844C51.3656 39.5584 51.442 39.3987 51.4665 39.2271L51.7794 37.0235H55.5138L55.8266 39.2271C55.8511 39.3986 55.9275 39.5583 56.0453 39.6844C56.1631 39.8104 56.3166 39.8966 56.4847 39.9312C58.2299 40.2886 59.8903 40.9832 61.3746 41.9768C61.5179 42.0724 61.6869 42.121 61.8585 42.1158C62.0301 42.1107 62.196 42.0521 62.3334 41.9481L64.0941 40.6128L66.734 43.2792L65.4121 45.0576C65.309 45.1962 65.2509 45.3636 65.2458 45.5369C65.2407 45.7101 65.2888 45.8807 65.3836 46.0252C66.3668 47.5249 67.0543 49.2022 67.4084 50.9649C67.4425 51.1347 67.5276 51.2897 67.6523 51.4086C67.777 51.5275 67.935 51.6046 68.1048 51.6293L70.2872 51.9461V55.7163L68.1048 56.0332C67.935 56.0578 67.777 56.1349 67.6523 56.2538C67.5276 56.3728 67.4425 56.5277 67.4084 56.6975C67.0543 58.4603 66.3668 60.1375 65.3836 61.6372C65.2888 61.7817 65.2407 61.9523 65.2457 62.1256C65.2508 62.2988 65.3089 62.4662 65.412 62.6048L66.734 64.3832L64.0941 67.0496L62.3334 65.7143C62.1959 65.6099 62.0298 65.5512 61.858 65.5462C61.6861 65.5412 61.5169 65.5902 61.3738 65.6864C60.3568 66.3654 59.2558 66.9065 58.0992 67.2957C57.89 67.3667 57.7172 67.5187 57.6189 67.7183C57.5207 67.9179 57.5049 68.1488 57.5752 68.3602C57.6454 68.5715 57.7959 68.746 57.9935 68.8453C58.1912 68.9446 58.4198 68.9605 58.629 68.8895C59.7355 68.5159 60.7973 68.0188 61.7947 67.4074L63.6724 68.8317C63.8327 68.9531 64.031 69.0121 64.2308 68.9978C64.4307 68.9835 64.6187 68.8968 64.7604 68.7537L68.4209 65.0561C68.5627 64.9131 68.6485 64.7233 68.6627 64.5214C68.6769 64.3196 68.6184 64.1194 68.4981 63.9576L67.0883 62.0602C67.9193 60.6821 68.5338 59.1823 68.91 57.6141L71.2379 57.2764C71.436 57.2477 71.6172 57.1478 71.7483 56.995C71.8793 56.8422 71.9514 56.6468 71.9513 56.4447V51.2177C71.9514 51.0156 71.8793 50.8202 71.7482 50.6674C71.6172 50.5146 71.436 50.4147 71.2379 50.3859L68.91 50.0482C68.5338 48.4801 67.9193 46.9802 67.0883 45.6022L68.4981 43.7047C68.6184 43.543 68.6769 43.3428 68.6627 43.1409C68.6485 42.9391 68.5626 42.7492 68.4209 42.6062L64.7604 38.9087C64.6188 38.7655 64.4307 38.6787 64.2308 38.6644C64.0309 38.6501 63.8326 38.7091 63.6724 38.8307L61.7938 40.255C60.4297 39.4151 58.9449 38.794 57.3924 38.4138L57.0584 36.0637C57.0298 35.8636 56.9307 35.6806 56.7794 35.5482C56.6281 35.4158 56.4347 35.3429 56.2345 35.3428H51.0586C50.8585 35.3429 50.665 35.4159 50.5137 35.5482C50.3624 35.6806 50.2634 35.8636 50.2347 36.0637L49.9008 38.4138C48.3482 38.794 46.8634 39.4151 45.4993 40.255L43.6207 38.8307C43.4605 38.709 43.2622 38.6499 43.0623 38.6642C42.8624 38.6785 42.6743 38.7654 42.5327 38.9087L38.8723 42.6063C38.7305 42.7492 38.6446 42.9391 38.6304 43.1409C38.6162 43.3428 38.6747 43.543 38.7951 43.7047L40.2048 45.6022C39.3738 46.9802 38.7593 48.4801 38.3831 50.0482L36.0552 50.3859C35.8571 50.4147 35.6759 50.5146 35.5449 50.6674C35.4138 50.8202 35.3417 51.0156 35.3418 51.2177V56.4447C35.3417 56.6468 35.4138 56.8422 35.5449 56.995C35.6759 57.1477 35.8571 57.2477 36.0552 57.2764Z" fill="#212121"/>
<path d="M45.565 57.8488C44.7703 56.1573 44.5077 54.265 44.812 52.4215C45.1163 50.578 45.9731 48.8699 47.2694 47.5226C48.5657 46.1752 50.2406 45.252 52.0731 44.8746C53.9055 44.4972 55.8095 44.6834 57.5339 45.4086C59.2582 46.1339 60.7219 47.364 61.7318 48.9369C62.7417 50.5098 63.2504 52.3514 63.1907 54.2188C63.1311 56.0862 62.5059 57.8917 61.3976 59.3971C60.2894 60.9025 58.7502 62.0371 56.9831 62.6511C56.8792 62.6869 56.7835 62.7427 56.7012 62.8155C56.619 62.8882 56.5519 62.9764 56.5038 63.075C56.4067 63.2742 56.3927 63.5038 56.4651 63.7133C56.5375 63.9227 56.6902 64.0949 56.8897 64.1919C57.0892 64.2889 57.3191 64.3028 57.5288 64.2305C59.6151 63.5062 61.4325 62.1673 62.7412 60.3905C64.0499 58.6137 64.7885 56.4825 64.8595 54.278C64.9306 52.0735 64.3307 49.8993 63.139 48.0422C61.9473 46.1851 60.2199 44.7323 58.1846 43.8756C56.1492 43.0189 53.9016 42.7984 51.7382 43.2432C49.5748 43.6881 47.5973 44.7774 46.0665 46.3674C44.5357 47.9574 43.5236 49.9735 43.1636 52.1497C42.8037 54.3258 43.1128 56.5598 44.0503 58.5569C44.0967 58.6565 44.1623 58.746 44.2433 58.8202C44.3244 58.8944 44.4194 58.9519 44.5227 58.9894C44.6261 59.027 44.7358 59.0438 44.8457 59.0389C44.9556 59.034 45.0634 59.0075 45.163 58.9609C45.2626 58.9144 45.352 58.8486 45.4262 58.7675C45.5003 58.6864 45.5577 58.5914 45.595 58.4881C45.6324 58.3848 45.6489 58.2752 45.6438 58.1655C45.6386 58.0558 45.6118 57.9481 45.565 57.8488Z" fill="#212121"/>
<path d="M81.277 60.6476L78.9491 60.3099C78.5729 58.7418 77.9584 57.242 77.1274 55.8639L78.5371 53.9665C78.6575 53.8047 78.7159 53.6045 78.7018 53.4027C78.6876 53.2009 78.6017 53.011 78.4599 52.868L75.0903 49.4643C75.0132 49.3855 74.9215 49.3229 74.8204 49.2801C74.7192 49.2373 74.6107 49.2151 74.5011 49.2148C74.3914 49.2145 74.2828 49.2361 74.1814 49.2783C74.0801 49.3205 73.988 49.3826 73.9104 49.4609C73.8329 49.5392 73.7715 49.6322 73.7296 49.7346C73.6878 49.837 73.6665 49.9467 73.6668 50.0575C73.6671 50.1682 73.6891 50.2778 73.7315 50.38C73.7739 50.4821 73.8358 50.5748 73.9138 50.6526L76.7731 53.541L75.4511 55.3194C75.348 55.4579 75.29 55.6254 75.2849 55.7986C75.2798 55.9719 75.3279 56.1425 75.4227 56.287C76.4059 57.7866 77.0934 59.4638 77.4475 61.2266C77.4815 61.3964 77.5667 61.5513 77.6914 61.6703C77.816 61.7892 77.9741 61.8663 78.1438 61.8909L80.3262 62.2078V65.9779L78.1438 66.2948C77.9741 66.3194 77.816 66.3965 77.6914 66.5154C77.5667 66.6344 77.4815 66.7893 77.4475 66.9591C77.0934 68.7219 76.4059 70.3991 75.4226 71.8987C75.3279 72.0432 75.2797 72.2138 75.2848 72.3871C75.2899 72.5603 75.348 72.7277 75.4511 72.8663L76.7731 74.6447L74.1332 77.311L72.3724 75.9758C72.235 75.8718 72.0691 75.8133 71.8975 75.8081C71.7259 75.803 71.5569 75.8515 71.4136 75.9471C69.9293 76.9406 68.2689 77.6352 66.5238 77.9926C66.3556 78.0272 66.2022 78.1134 66.0844 78.2394C65.9666 78.3655 65.8902 78.5252 65.8656 78.6967L65.5528 80.9002H61.8184L61.5056 78.6967C61.481 78.5252 61.4046 78.3655 61.2868 78.2394C61.169 78.1134 61.0156 78.0272 60.8474 77.9926C59.1023 77.6352 57.4419 76.9406 55.9576 75.9471C55.8143 75.8514 55.6453 75.8029 55.4737 75.808C55.302 75.8131 55.1362 75.8717 54.9988 75.9758L53.2381 77.311L50.5981 74.6446L51.9201 72.8662C52.0232 72.7277 52.0813 72.5603 52.0864 72.387C52.0915 72.2137 52.0433 72.0432 51.9486 71.8987C50.9653 70.399 50.2778 68.7218 49.9238 66.959C49.8897 66.7893 49.8045 66.6343 49.6799 66.5154C49.5552 66.3964 49.3972 66.3193 49.2274 66.2947L47.0449 65.9779V62.2077L49.2274 61.8909C49.3971 61.8663 49.5551 61.7892 49.6798 61.6702C49.8045 61.5513 49.8897 61.3963 49.9237 61.2266C50.2778 59.4638 50.9653 57.7866 51.9485 56.2869C52.0433 56.1424 52.0914 55.9718 52.0864 55.7986C52.0813 55.6253 52.0232 55.4579 51.9201 55.3194L50.5981 53.541L53.2381 50.8746L54.9988 52.2098C55.1362 52.3144 55.3023 52.3733 55.4742 52.3783C55.6461 52.3833 55.8154 52.3342 55.9584 52.2378C56.9749 51.556 58.0773 51.0152 59.2362 50.6296C59.3402 50.5953 59.4364 50.5406 59.5194 50.4687C59.6025 50.3968 59.6706 50.309 59.72 50.2104C59.7694 50.1118 59.7991 50.0044 59.8073 49.8942C59.8155 49.7841 59.8022 49.6733 59.768 49.5684C59.7338 49.4634 59.6794 49.3663 59.6081 49.2826C59.5367 49.1989 59.4496 49.1303 59.3519 49.0806C59.2542 49.0309 59.1478 49.0011 59.0387 48.993C58.9296 48.985 58.82 48.9987 58.7162 49.0334C57.6038 49.4031 56.5373 49.9007 55.5375 50.5164L53.6598 49.0925C53.4996 48.9708 53.3013 48.9116 53.1013 48.9259C52.9014 48.9403 52.7133 49.0271 52.5718 49.1705L48.9113 52.868C48.7695 53.011 48.6837 53.2009 48.6695 53.4027C48.6553 53.6045 48.7138 53.8048 48.8341 53.9665L50.2439 55.8639C49.4129 57.242 48.7984 58.7418 48.4222 60.3099L46.0943 60.6476C45.8962 60.6764 45.715 60.7763 45.5839 60.9291C45.4529 61.0819 45.3808 61.2772 45.3809 61.4794V66.7062C45.3808 66.9084 45.4529 67.1038 45.5839 67.2565C45.715 67.4093 45.8962 67.5093 46.0943 67.538L48.4222 67.8757C48.7984 69.4439 49.4129 70.9437 50.2439 72.3217L48.8341 74.2191C48.7138 74.3809 48.6553 74.5811 48.6695 74.7829C48.6837 74.9848 48.7695 75.1746 48.9113 75.3176L52.5718 79.0151C52.7134 79.1583 52.9015 79.245 53.1014 79.2594C53.3012 79.2737 53.4995 79.2147 53.6598 79.0931L55.5383 77.6688C56.9024 78.5087 58.3872 79.1298 59.9398 79.51L60.2737 81.86C60.3024 82.0601 60.4015 82.2431 60.5528 82.3755C60.7041 82.5079 60.8975 82.5808 61.0977 82.581H66.2735C66.4737 82.5808 66.6672 82.5079 66.8185 82.3755C66.9698 82.2431 67.0688 82.0601 67.0975 81.86L67.4314 79.51C68.984 79.1298 70.4688 78.5087 71.8329 77.6688L73.7115 79.0931C73.8718 79.2145 74.07 79.2735 74.2699 79.2592C74.4697 79.2449 74.6578 79.1582 74.7995 79.0151L78.4599 75.3176C78.6017 75.1746 78.6876 74.9848 78.7018 74.7829C78.7159 74.5811 78.6575 74.3809 78.5371 74.2191L77.1274 72.3217C77.9584 70.9437 78.5729 69.4439 78.9491 67.8757L81.277 67.538C81.4751 67.5093 81.6563 67.4093 81.7873 67.2565C81.9184 67.1038 81.9905 66.9084 81.9904 66.7062V61.4794C81.9905 61.2772 81.9184 61.0819 81.7873 60.9291C81.6563 60.7763 81.4751 60.6764 81.277 60.6476Z" fill="#212121"/>
<path d="M72.3569 60.0749C73.1516 61.7664 73.4141 63.6587 73.1098 65.5022C72.8055 67.3457 71.9487 69.0538 70.6524 70.4011C69.3561 71.7484 67.6813 72.6717 65.8488 73.0491C64.0163 73.4265 62.1123 73.2403 60.388 72.515C58.6636 71.7898 57.2 70.5596 56.1901 68.9867C55.1802 67.4139 54.6715 65.5723 54.7311 63.7048C54.7908 61.8374 55.416 60.0319 56.5242 58.5265C57.6324 57.0211 59.1716 55.8866 60.9388 55.2726C61.1485 55.2003 61.3209 55.0478 61.4181 54.8486C61.5152 54.6494 61.5291 54.4198 61.4567 54.2104C61.3844 54.0009 61.2316 53.8288 61.0322 53.7318C60.8327 53.6348 60.6028 53.6209 60.393 53.6931C58.3067 54.4175 56.4894 55.7564 55.1806 57.5331C53.8719 59.3099 53.1333 61.4411 53.0623 63.6456C52.9913 65.8501 53.5912 68.0243 54.7828 69.8814C55.9745 71.7385 57.7019 73.1913 59.7373 74.048C61.7726 74.9048 64.0202 75.1253 66.1836 74.6804C68.347 74.2356 70.3246 73.1463 71.8553 71.5563C73.3861 69.9662 74.3983 67.9502 74.7582 65.774C75.1182 63.5979 74.809 61.3639 73.8716 59.3667C73.8252 59.2672 73.7596 59.1777 73.6785 59.1035C73.5974 59.0293 73.5025 58.9718 73.3991 58.9342C73.2958 58.8967 73.186 58.8799 73.0761 58.8848C72.9663 58.8897 72.8584 58.9162 72.7588 58.9628C72.6592 59.0093 72.5698 59.0751 72.4957 59.1562C72.4216 59.2373 72.3642 59.3323 72.3268 59.4356C72.2895 59.5389 72.2729 59.6485 72.2781 59.7582C72.2833 59.8679 72.31 59.9755 72.3569 60.0749Z" fill="#212121"/>
<path d="M75.1289 40.4567H75.9709V46.3088C75.9709 46.5325 76.0569 46.747 76.21 46.9052C76.3632 47.0634 76.5708 47.1523 76.7874 47.1523C77.0039 47.1523 77.2116 47.0634 77.3647 46.9052C77.5178 46.747 77.6038 46.5325 77.6038 46.3088V39.6132C77.6038 39.4379 77.5509 39.2671 77.4526 39.1242C77.3543 38.9814 77.2155 38.8738 77.0553 38.8162L78.4458 37.3791L79.8364 38.8162C79.6762 38.8738 79.5373 38.9814 79.439 39.1242C79.3407 39.2671 79.2879 39.4379 79.2878 39.6132V46.3088C79.2878 46.5325 79.3738 46.747 79.527 46.9052C79.6801 47.0634 79.8878 47.1523 80.1043 47.1523C80.3208 47.1523 80.5285 47.0634 80.6816 46.9052C80.8348 46.747 80.9208 46.5325 80.9208 46.3088V40.4567H81.7628C81.9242 40.4567 82.0821 40.4072 82.2163 40.3146C82.3506 40.2219 82.4552 40.0901 82.517 39.936C82.5788 39.7819 82.595 39.6123 82.5635 39.4487C82.532 39.285 82.4542 39.1347 82.34 39.0168L79.0231 35.5899C78.9473 35.5116 78.8573 35.4494 78.7583 35.407C78.6592 35.3646 78.5531 35.3428 78.4458 35.3428C78.3386 35.3428 78.2324 35.3646 78.1334 35.407C78.0343 35.4494 77.9444 35.5116 77.8686 35.5899L74.5517 39.0168C74.4375 39.1347 74.3597 39.285 74.3282 39.4486C74.2967 39.6122 74.3128 39.7818 74.3746 39.936C74.4364 40.0901 74.5411 40.2218 74.6753 40.3145C74.8096 40.4072 74.9674 40.4567 75.1289 40.4567Z" fill="#212121"/>
<path d="M40.0524 71.0186C39.9766 70.9403 39.8866 70.8781 39.7876 70.8357C39.6885 70.7933 39.5824 70.7715 39.4751 70.7715C39.3679 70.7715 39.2618 70.7933 39.1627 70.8357C39.0637 70.8781 38.9737 70.9403 38.8979 71.0186L35.581 74.4455C35.4668 74.5634 35.389 74.7137 35.3575 74.8773C35.326 75.041 35.3421 75.2106 35.4039 75.3647C35.4657 75.5188 35.5704 75.6506 35.7046 75.7433C35.8389 75.836 35.9967 75.8854 36.1582 75.8854H37.0002V81.7375C37.0002 81.9612 37.0862 82.1757 37.2394 82.3339C37.3925 82.4921 37.6001 82.581 37.8167 82.581C38.0332 82.581 38.2409 82.4921 38.394 82.3339C38.5471 82.1757 38.6332 81.9612 38.6332 81.7375V75.0419C38.6331 74.8666 38.5803 74.6958 38.482 74.553C38.3837 74.4101 38.2448 74.3025 38.0846 74.2449L39.4751 72.8078L40.8657 74.2449C40.7055 74.3025 40.5666 74.4101 40.4683 74.5529C40.37 74.6958 40.3172 74.8666 40.3171 75.0419V81.7375C40.3171 81.9612 40.4032 82.1757 40.5563 82.3339C40.7094 82.4921 40.9171 82.581 41.1336 82.581C41.3501 82.581 41.5578 82.4921 41.7109 82.3339C41.8641 82.1757 41.9501 81.9612 41.9501 81.7375V75.8854H42.7921C42.9535 75.8854 43.1114 75.8359 43.2456 75.7433C43.3799 75.6506 43.4845 75.5188 43.5463 75.3647C43.6081 75.2106 43.6243 75.041 43.5928 74.8774C43.5613 74.7137 43.4835 74.5635 43.3693 74.4455L40.0524 71.0186Z" fill="#212121"/>
</g>
<defs>
<clipPath id="clip0_7707_16841">
<rect width="62" height="63" fill="white" transform="translate(28 28)"/>
</clipPath>
</defs>
</svg>
