<svg width="94" height="94" viewBox="0 0 94 94" fill="none" xmlns="http://www.w3.org/2000/svg">
<path d="M15.7591 34.7702H55.2015C56.0066 34.7702 56.6599 34.117 56.6599 33.3118C56.6599 32.5067 56.0066 31.8535 55.2015 31.8535H15.7591C14.954 31.8535 14.3008 32.5067 14.3008 33.3118C14.3008 34.117 14.954 34.7702 15.7591 34.7702Z" fill="#FFBE2E"/>
<path d="M15.7591 50.0524H54.9442C55.7493 50.0524 56.4026 49.3992 56.4026 48.5941C56.4026 47.789 55.7493 47.1357 54.9442 47.1357H15.7591C14.954 47.1357 14.3008 47.789 14.3008 48.5941C14.3008 49.3992 14.954 50.0524 15.7591 50.0524Z" fill="#FFBE2E"/>
<path d="M15.7591 19.488H41.8173C42.6224 19.488 43.2757 18.8347 43.2757 18.0296C43.2757 17.2245 42.6224 16.5713 41.8173 16.5713H15.7591C14.954 16.5713 14.3008 17.2245 14.3008 18.0296C14.3008 18.8347 14.954 19.488 15.7591 19.488Z" fill="#FFBE2E"/>
<path d="M43.2776 77.7017H15.7591C14.954 77.7017 14.3008 78.3549 14.3008 79.16C14.3008 79.9651 14.954 80.6183 15.7591 80.6183H43.2776C44.0827 80.6183 44.7359 79.9651 44.7359 79.16C44.7359 78.3549 44.0827 77.7017 43.2776 77.7017Z" fill="#FFBE2E"/>
<path d="M88.5396 52.5228C87.2616 52.5228 69.8882 52.5228 70.7197 52.5228V18.9583C70.7197 18.7009 70.5328 18.1653 70.2915 17.9253C64.8773 12.5278 58.2208 5.87092 52.7943 0.429145C52.5998 0.23462 52.0899 0 51.7613 0H7.29167C3.27081 0 0 3.27176 0 7.29167V86.0417C0 90.0616 3.27081 93.3333 7.29167 93.3333C15.0221 93.3337 -20.9526 93.332 88.5396 93.3371C91.18 93.3371 93.3286 91.1895 93.3286 88.5482V57.3117C93.3286 54.6704 91.18 52.5228 88.5396 52.5228ZM72.0755 60.2569L69.5595 61.5861V55.4395H76.7315V61.5861L74.2183 60.2588C73.5196 59.8887 72.7128 59.9156 72.0755 60.2569ZM65.7342 17.5038H57.588C55.1755 17.5038 53.213 15.5404 53.213 13.1288V4.98264C60.986 12.7598 56.5497 8.32692 65.7342 17.5038ZM2.91667 86.0417V7.29167C2.91667 4.8801 4.87915 2.91667 7.29167 2.91667H50.2964V13.1288C50.2964 17.1487 53.5672 20.4205 57.588 20.4205H67.803V52.5228H57.7513C55.1109 52.5228 52.9624 54.6704 52.9624 57.3117V62.4159H15.7692C14.9641 62.4159 14.3108 63.0691 14.3108 63.8742C14.3108 64.6794 14.9641 65.3326 15.7692 65.3326H52.9624V88.5482C52.9624 89.2109 53.0981 89.8423 53.3426 90.4167H7.29167C4.87915 90.4167 2.91667 88.4532 2.91667 86.0417ZM90.4119 88.5482C90.4119 89.5812 89.5717 90.4205 88.5396 90.4205C85.3871 90.4201 99.9508 90.4219 57.7323 90.4167C56.7098 90.4059 55.879 89.5745 55.879 88.5482V63.8977C55.879 63.8894 55.8838 63.8825 55.8838 63.8742C55.8838 63.8659 55.879 63.859 55.879 63.8507V57.3117C55.879 56.2788 56.7193 55.4395 57.7513 55.4395H66.6428V62.6248C66.6428 64.36 68.4913 65.4562 70.0038 64.649L73.1455 62.9894L76.2843 64.6471C77.8084 65.4575 79.6482 64.3539 79.6482 62.6248V55.4395H88.5396C89.5717 55.4395 90.4119 56.2788 90.4119 57.3117V88.5482Z" fill="#FFBE2E"/>
<path d="M79.0359 77.0122H67.2591C66.454 77.0122 65.8008 77.6654 65.8008 78.4705C65.8008 79.2757 66.454 79.9289 67.2591 79.9289H79.0359C79.841 79.9289 80.4942 79.2757 80.4942 78.4705C80.4942 77.6654 79.841 77.0122 79.0359 77.0122Z" fill="#FFBE2E"/>
<path d="M79.0359 82.4756H67.2591C66.454 82.4756 65.8008 83.1288 65.8008 83.9339C65.8008 84.739 66.454 85.3923 67.2591 85.3923H79.0359C79.841 85.3923 80.4942 84.739 80.4942 83.9339C80.4942 83.1288 79.841 82.4756 79.0359 82.4756Z" fill="#FFBE2E"/>
</svg>
