<svg width="200" height="80" viewBox="0 0 200 80" fill="none" xmlns="http://www.w3.org/2000/svg">
<rect width="200" height="80" rx="12" fill="white"/>
<mask id="mask0_3197_24326" style="mask-type:alpha" maskUnits="userSpaceOnUse" x="16" y="16" width="168" height="48">
<rect x="16" y="16" width="168" height="48" fill="#D9D9D9"/>
</mask>
<g mask="url(#mask0_3197_24326)">
</g>
<g clip-path="url(#clip0_3197_24326)">
<path d="M33.8397 17.6438C34.1702 17.6438 34.3527 17.8082 34.7004 17.9725C32.8039 18.7942 31.0455 20.9305 30.5377 25.5319L27.0061 26.518C27.8173 23.2312 29.5434 17.6438 33.8397 17.6438ZM35.83 19.2872C36.2642 20.2732 36.7155 21.4235 36.9055 23.2312C36.9228 23.3956 36.9228 23.3956 36.9401 23.5599L32.2863 24.8746C32.915 21.4235 34.412 19.9445 35.83 19.2872ZM40.4372 22.2452L38.3582 22.9026C38.3409 22.7382 38.3236 22.5739 38.3064 22.4096C38.1509 20.9305 37.8648 19.7802 37.4306 18.7942C38.6219 19.1228 39.7688 20.6019 40.4372 22.2452ZM51.4542 24.8746C51.437 24.7103 51.2544 24.5459 51.0892 24.5459C50.7587 24.5459 47.2541 24.2173 47.2541 24.2173C47.2541 24.2173 44.5164 21.7522 44.1687 21.5879C43.8036 21.2592 43.3252 21.4235 43.1599 21.4235C43.1599 21.4235 42.6815 21.5879 41.8898 21.9166C40.8218 19.6159 39.1101 17.4795 36.6315 17.4795H36.4663C35.7017 16.4935 34.6757 16.1648 33.8495 16.1648C27.8835 16.0005 25.8517 23.3956 25.2575 27.1753C23.9701 27.504 22.7 27.997 21.2647 28.49C19.9773 28.8187 19.9945 28.983 19.9502 30.1333C19.8713 30.955 19.2956 56.9201 19.2956 56.9201L46.087 61.8501L59.9696 58.7278C59.9696 58.7278 51.4888 25.2033 51.4542 24.8746Z" fill="black"/>
<path d="M50.9297 24.5462C50.7645 24.5462 47.2598 24.2175 47.2598 24.2175C47.2598 24.2175 44.5221 21.7525 44.1744 21.5882C43.9919 21.4238 43.9919 21.4238 43.8266 21.4238L46.0928 61.8504L59.9753 58.728C59.9753 58.728 51.4945 25.2035 51.46 24.8749C51.4427 24.7105 51.0949 24.5462 50.9297 24.5462Z" fill="black"/>
<path d="M38.2044 32.434L36.9395 37.6927C36.9395 37.6927 35.3659 36.871 33.383 36.871C30.574 36.871 30.5814 38.5144 30.6333 39.0074C30.8751 41.3081 37.2579 42.2941 37.8451 47.8815C38.3115 52.3186 35.796 55.1123 31.9955 55.1123C27.534 55.1123 24.927 52.3186 24.927 52.3186L25.6691 48.3745C25.6691 48.3745 28.1897 50.3465 30.1726 50.3465C31.4946 50.3465 31.8867 49.3605 31.8003 48.5388C31.4721 45.4165 26.3324 45.2521 25.7969 40.1577C25.3478 35.885 28.0556 31.7766 34.1695 31.7766C36.9614 31.6123 38.2044 32.434 38.2044 32.434Z" fill="white"/>
<path d="M74.9161 42.128C73.3425 41.3063 72.6125 40.649 72.5261 39.8273C72.4052 38.677 73.3276 38.0196 74.98 38.0196C76.7976 38.0196 78.5364 38.8413 78.5364 38.8413L79.4438 34.8973C79.4438 34.8973 78.1835 33.9112 74.7134 33.9112C69.7562 33.9112 66.745 36.7049 67.1595 40.649C67.4013 42.9497 69.2265 44.5931 71.3303 45.7434C73.0863 46.7294 73.8164 47.3868 73.92 48.3728C74.0236 49.3588 73.3011 50.3448 71.6487 50.3448C69.3353 50.3448 66.901 49.1945 66.901 49.1945L65.9936 53.1385C65.9936 53.1385 68.1147 54.4532 71.5847 54.4532C76.542 54.4532 79.9182 51.9882 79.4518 47.5511C79.1927 45.0861 77.1851 43.2784 74.9161 42.128ZM94.0293 33.7469C91.5507 33.7469 89.6887 34.8973 88.3915 36.7049L89.3652 25.5301H83.747L81.2821 53.9602H86.9003L87.6989 44.2644C87.9799 40.649 89.721 38.3483 91.5386 38.3483C92.8605 38.3483 93.4426 39.17 93.5808 40.4847C93.6672 41.3063 93.7535 42.128 93.6746 42.9497L92.701 54.1245H98.3192L99.2583 42.621C99.3026 41.4707 99.3124 39.9917 99.2088 39.0056C98.8633 35.7189 97.0037 33.7469 94.0293 33.7469ZM110.115 50.0161C108.132 50.0161 107.299 48.3728 107.091 46.4007C106.763 43.2784 107.863 38.0196 110.837 38.0196C112.82 38.0196 113.654 39.663 113.827 41.3063C114.207 44.9217 113.09 50.0161 110.115 50.0161ZM111.214 33.7469C104.439 33.7469 100.617 39.8273 101.325 46.5651C101.774 50.8378 104.781 54.2889 109.903 54.2889C116.513 54.2889 120.353 48.3728 119.627 41.4707C119.213 37.5266 116.502 33.7469 111.214 33.7469ZM129.466 50.1805C127.979 50.1805 127.066 49.3588 127.066 49.3588L127.505 44.1001C127.803 40.649 129.379 38.3483 131.362 38.3483C133.014 38.3483 133.848 39.9917 134.003 41.4707C134.218 45.0861 132.605 50.1805 129.466 50.1805ZM133.191 33.7469C129.391 33.7469 127.588 37.0336 127.588 37.0336L127.608 34.0756H122.651C122.693 36.0476 122.525 39.17 122.271 41.4707L120.447 61.8483H126.065L126.689 53.6315H126.854C126.854 53.6315 128.08 54.2889 130.228 54.2889C136.838 54.2889 140.426 47.5511 139.718 40.8133C139.338 37.198 137.322 33.7469 133.191 33.7469ZM146.077 25.8588C144.26 25.8588 143.093 27.3378 143.283 29.1455C143.456 30.7889 144.568 31.9392 146.221 31.9392C148.038 31.9392 149.405 30.7889 149.18 28.6525C149.007 27.0091 147.73 25.8588 146.077 25.8588ZM141.265 53.9602H146.883L148.611 34.2399H142.992L141.265 53.9602ZM162.821 34.2399H158.856L158.917 33.2539C159.04 31.2819 160.024 29.6385 161.842 29.6385C162.833 29.6385 163.694 29.9672 163.694 29.9672L164.385 25.5301C164.385 25.5301 163.341 25.0371 161.358 25.0371C159.375 25.0371 157.444 25.5301 156.095 26.8448C154.285 28.4882 153.701 30.7889 153.447 33.0896L153.385 34.0756H150.741L150.364 38.3483H153.008L151.675 53.9602H157.293L158.626 38.3483H162.427L162.821 34.2399ZM176.206 34.2399C176.206 34.2399 173.651 42.9497 172.5 47.7154C172.179 46.2364 169.761 34.2399 169.761 34.2399H163.813L169.018 52.3168C169.052 52.6455 169.087 52.9742 168.956 53.3028C168.433 54.6175 167.397 55.7679 166.327 56.5896C165.422 57.4112 164.152 57.9042 163.36 58.2329L165.348 62.9987C166.488 62.8343 168.697 61.8483 170.49 60.0406C172.727 57.7399 174.808 53.9602 176.604 49.0301L181.841 34.4042L176.206 34.2399Z" fill="black"/>
</g>
<defs>
<clipPath id="clip0_3197_24326">
<rect width="165.241" height="47.2589" fill="white" transform="matrix(1 0 0.104528 0.994522 14.998 16)"/>
</clipPath>
</defs>
</svg>
