<svg width="141" height="40" viewBox="0 0 141 40" fill="none" xmlns="http://www.w3.org/2000/svg">
<path d="M30.4104 7.576C30.3831 7.37731 30.2095 7.26708 30.0654 7.25508C29.9225 7.24308 27.1216 7.20052 27.1216 7.20052C27.1216 7.20052 24.7791 4.92574 24.5477 4.69433C24.3163 4.46292 23.8644 4.53278 23.6887 4.58517C23.6865 4.58627 23.2488 4.72162 22.512 4.94975C22.3887 4.55025 22.2074 4.05905 21.9487 3.56567C21.1148 1.9742 19.8934 1.13262 18.4176 1.13045C18.4154 1.13045 18.4143 1.13045 18.4121 1.13045C18.3095 1.13045 18.208 1.14027 18.1054 1.149C18.0618 1.0966 18.0181 1.0453 17.9723 0.995089C17.3293 0.30742 16.5052 -0.027684 15.5174 0.00178762C13.6115 0.0563648 11.7134 1.4328 10.1743 3.87786C9.09148 5.59812 8.26734 7.75941 8.03377 9.43272C5.84521 10.1106 4.31487 10.5843 4.28103 10.5952C3.17639 10.9423 3.14146 10.9761 2.99738 12.0175C2.89041 12.8045 0 35.155 0 35.155L24.2224 39.3443L34.7209 36.7344C34.7209 36.7344 30.4376 7.77469 30.4104 7.576ZM21.2993 5.32524C20.7415 5.4977 20.1073 5.69418 19.4196 5.90704C19.4054 4.94211 19.2908 3.59951 18.8411 2.4392C20.2874 2.71318 20.9991 4.3494 21.2993 5.32524ZM18.1523 6.29999C16.8829 6.69292 15.4977 7.1219 14.1082 7.552C14.499 6.05548 15.2401 4.56553 16.1505 3.5886C16.4889 3.22511 16.9626 2.82015 17.5236 2.58874C18.0508 3.68902 18.1654 5.24665 18.1523 6.29999ZM15.5555 1.27016C16.0031 1.26033 16.3797 1.35858 16.7017 1.57033C16.1865 1.83776 15.6887 2.22199 15.2216 2.723C14.011 4.02194 13.0832 6.03802 12.7132 7.98315C11.5594 8.34007 10.4308 8.69049 9.39161 9.01141C10.0477 5.94961 12.6138 1.3553 15.5555 1.27016Z" fill="#95BF47"/>
<path d="M30.0696 7.25619C29.9266 7.24419 27.1257 7.20164 27.1257 7.20164C27.1257 7.20164 24.7833 4.92684 24.5519 4.69544C24.4656 4.6092 24.3489 4.56445 24.2266 4.5459L24.2277 39.3432L34.7251 36.7344C34.7251 36.7344 30.4418 7.7758 30.4146 7.57711C30.3872 7.37842 30.2126 7.26819 30.0696 7.25619Z" fill="#5E8E3E"/>
<path d="M18.4083 12.6539L17.1891 17.2154C17.1891 17.2154 15.829 16.5966 14.2168 16.6981C11.8525 16.8476 11.8274 18.3387 11.8515 18.7131C11.9803 20.7531 17.3473 21.1985 17.6486 25.9773C17.8855 29.7366 15.6544 32.3082 12.4398 32.5112C8.58117 32.7547 6.45703 30.4788 6.45703 30.4788L7.27461 27.0011C7.27461 27.0011 9.41291 28.6145 11.1244 28.5064C12.2422 28.4354 12.6417 27.5262 12.6013 26.8832C12.4332 24.2221 8.06268 24.3792 7.78655 20.0065C7.55402 16.327 9.97074 12.5983 15.3029 12.2621C17.3572 12.13 18.4083 12.6539 18.4083 12.6539Z" fill="white"/>
<path d="M48.5497 22.2055C47.3425 21.5505 46.7221 20.9984 46.7221 20.2394C46.7221 19.2737 47.5839 18.6533 48.9297 18.6533C50.4962 18.6533 51.895 19.3083 51.895 19.3083L52.9982 15.9283C52.9982 15.9283 51.9838 15.1348 48.9979 15.1348C44.8427 15.1348 41.9629 17.5144 41.9629 20.8597C41.9629 22.7565 43.3075 24.2051 45.1014 25.239C46.55 26.0662 47.0675 26.653 47.0675 27.5148C47.0675 28.4112 46.3433 29.1355 44.9986 29.1355C42.9946 29.1355 41.1021 28.1005 41.1021 28.1005L39.9297 31.4805C39.9297 31.4805 41.6781 32.653 44.6197 32.653C48.8961 32.653 51.9654 30.5494 51.9654 26.7558C51.9643 24.7226 50.4129 23.274 48.5497 22.2055Z" fill="black"/>
<path d="M65.582 15.1014C63.4783 15.1014 61.823 16.1018 60.5476 17.6186L60.4783 17.5839L62.3058 8.03174H57.5465L52.9258 32.3435H57.6851L59.2712 24.0332C59.8915 20.8946 61.5122 18.9643 63.0301 18.9643C64.0986 18.9643 64.5133 19.6885 64.5133 20.7235C64.5133 21.3786 64.444 22.1721 64.3065 22.8271L62.5137 32.3447H67.2732L69.1348 22.5164C69.342 21.4814 69.4804 20.2407 69.4804 19.4125C69.4784 16.7221 68.0647 15.1014 65.582 15.1014Z" fill="black"/>
<path d="M80.24 15.1016C74.5148 15.1016 70.7227 20.2745 70.7227 26.033C70.7227 29.7227 72.9981 32.6881 77.2748 32.6881C82.8958 32.6881 86.6892 27.6538 86.6892 21.7566C86.6892 18.343 84.6886 15.1016 80.24 15.1016ZM77.8951 29.0341C76.2741 29.0341 75.5843 27.6548 75.5843 25.9302C75.5843 23.2062 76.9987 18.7577 79.585 18.7577C81.2748 18.7577 81.8256 20.2062 81.8256 21.6202C81.8256 24.5509 80.4132 29.0341 77.8951 29.0341Z" fill="black"/>
<path d="M98.8616 15.1016C95.6491 15.1016 93.8262 17.9294 93.8262 17.9294H93.758L94.0341 15.3776H89.8268C89.6203 17.1023 89.24 19.7223 88.8616 21.6884L85.5508 39.1027H90.3101L91.6196 32.0677H91.7239C91.7239 32.0677 92.7003 32.6881 94.5173 32.6881C100.104 32.6881 103.759 26.9641 103.759 21.1698C103.759 17.9641 102.344 15.1016 98.8616 15.1016ZM94.3095 29.1023C93.0741 29.1023 92.3429 28.4126 92.3429 28.4126L93.1364 23.9641C93.6885 20.9987 95.24 19.0326 96.8957 19.0326C98.3442 19.0326 98.7921 20.3773 98.7921 21.6538C98.7921 24.723 96.9646 29.1023 94.3095 29.1023Z" fill="black"/>
<path d="M110.552 8.27295C109.035 8.27295 107.828 9.4801 107.828 11.0315C107.828 12.4455 108.725 13.4112 110.069 13.4112H110.138C111.622 13.4112 112.897 12.4108 112.932 10.6526C112.932 9.27328 112.001 8.27295 110.552 8.27295Z" fill="black"/>
<path d="M103.898 32.3436H108.656L111.899 15.4814H107.105L103.898 32.3436Z" fill="black"/>
<path d="M124.005 15.4468H120.694L120.866 14.6532C121.142 13.0325 122.108 11.5839 123.694 11.5839C124.54 11.5839 125.211 11.8253 125.211 11.8253L126.142 8.10107C126.142 8.10107 125.314 7.6875 123.555 7.6875C121.865 7.6875 120.177 8.17032 118.9 9.27353C117.279 10.6529 116.52 12.6525 116.141 14.6532L116.004 15.4468H113.796L113.106 19.0336H115.314L112.797 32.3447H117.556L120.074 19.0336H123.35L124.005 15.4468Z" fill="black"/>
<path d="M135.452 15.4816C135.452 15.4816 132.477 22.9767 131.141 27.068H131.072C130.982 25.7504 129.9 15.4816 129.9 15.4816H124.899L127.762 30.9644C127.832 31.3087 127.797 31.5166 127.659 31.758C127.106 32.8266 126.176 33.8616 125.072 34.6205C124.176 35.2755 123.176 35.6891 122.383 35.9651L123.693 40.0001C124.659 39.7934 126.658 38.9998 128.348 37.4137C130.521 35.3794 132.521 32.2409 134.589 27.9644L140.418 15.4805H135.452V15.4816Z" fill="black"/>
</svg>
