<svg width="56" height="57" viewBox="0 0 56 57" fill="none" xmlns="http://www.w3.org/2000/svg">
<path d="M31.3906 20.2251H40.4305" stroke="black" stroke-width="2" strokeMiterlimit="10" stroke-linecap="round" stroke-linejoin="round"/>
<path d="M31.3906 24.7163H35.9105" stroke="black" stroke-width="2" strokeMiterlimit="10" stroke-linecap="round" stroke-linejoin="round"/>
<path d="M31.3906 37.3623H40.4305" stroke="black" stroke-width="2" strokeMiterlimit="10" stroke-linecap="round" stroke-linejoin="round"/>
<path d="M31.3906 41.8535H35.9105" stroke="black" stroke-width="2" strokeMiterlimit="10" stroke-linecap="round" stroke-linejoin="round"/>
<mask id="mask0_3521_3989" style="mask-type:luminance" maskUnits="userSpaceOnUse" x="0" y="0" width="56" height="57">
<path d="M0 0H56V57H0V0Z" fill="white"/>
</mask>
<g mask="url(#mask0_3521_3989)">
<path d="M12.2295 47.3589V51.3682C12.2295 51.9374 12.6911 52.3989 13.2604 52.3989H42.7403C43.3096 52.3989 43.7711 51.9374 43.7711 51.3682V12.2369C43.7711 11.6676 43.3096 11.2061 42.7403 11.2061H13.2604C12.6911 11.2061 12.2295 11.6676 12.2295 12.2369V44.0777" stroke="black" stroke-width="2" strokeMiterlimit="10" stroke-linecap="round" stroke-linejoin="round"/>
<path d="M28.0008 7.55151C27.1306 7.55151 26.4253 6.84604 26.4253 5.97596C26.4253 5.10577 27.1306 4.40031 28.0008 4.40031C28.871 4.40031 29.5764 5.10577 29.5764 5.97596C29.5764 6.84604 28.871 7.55151 28.0008 7.55151ZM36.3239 6.14429H33.3815C32.936 6.14429 32.5455 5.83727 32.4511 5.40196C32.0065 3.35293 30.183 1.81807 28.0008 1.81807C25.8187 1.81807 23.9952 3.35293 23.5506 5.40196C23.4562 5.83727 23.0655 6.14429 22.6201 6.14429H19.6777C19.1502 6.14429 18.7227 6.57195 18.7227 7.09946V11.2061H37.279V7.09946C37.279 6.57195 36.8515 6.14429 36.3239 6.14429Z" stroke="black" stroke-width="2" strokeMiterlimit="10" stroke-linecap="round" stroke-linejoin="round"/>
<path d="M47.5541 18.3789V9.23505C47.5541 8.30525 46.8003 7.55144 45.8704 7.55144H37.2783" stroke="black" stroke-width="2" strokeMiterlimit="10" stroke-linecap="round" stroke-linejoin="round"/>
<path d="M18.7221 7.5516H10.1298C9.19999 7.5516 8.44629 8.30541 8.44629 9.23521V54.4985C8.44629 55.4283 9.19999 56.1821 10.1298 56.1821H45.8706C46.8005 56.1821 47.5542 55.4283 47.5542 54.4985V21.6603V15" stroke="black" stroke-width="2" strokeMiterlimit="10" stroke-linecap="round" stroke-linejoin="round"/>
<path d="M26.1008 27.8818H16.5871C16.2257 27.8818 15.9326 27.5888 15.9326 27.2274V17.7137C15.9326 17.3523 16.2257 17.0593 16.5871 17.0593H26.1008C26.4623 17.0593 26.7552 17.3523 26.7552 17.7137V27.2274C26.7552 27.5888 26.4623 27.8818 26.1008 27.8818Z" stroke="black" stroke-width="2" strokeMiterlimit="10" stroke-linecap="round" stroke-linejoin="round"/>
<path d="M19.3379 17.0595V21.3022C19.3379 21.5587 19.6133 21.7213 19.8377 21.5971L21.1808 20.8555C21.282 20.7993 21.4051 20.7993 21.5066 20.8555L22.8494 21.5971C23.074 21.7213 23.3494 21.5587 23.3494 21.3022V17.0595" stroke="black" stroke-width="2" strokeMiterlimit="10" stroke-linecap="round" stroke-linejoin="round"/>
<path d="M26.1008 45.019H16.5871C16.2257 45.019 15.9326 44.726 15.9326 44.3647V34.851C15.9326 34.4895 16.2257 34.1965 16.5871 34.1965H26.1008C26.4623 34.1965 26.7552 34.4895 26.7552 34.851V44.3647C26.7552 44.726 26.4623 45.019 26.1008 45.019Z" stroke="black" stroke-width="2" strokeMiterlimit="10" stroke-linecap="round" stroke-linejoin="round"/>
<path d="M19.3379 34.1967V38.4394C19.3379 38.696 19.6133 38.8585 19.8377 38.7343L21.1808 37.9926C21.282 37.9365 21.4051 37.9365 21.5066 37.9926L22.8494 38.7343C23.074 38.8585 23.3494 38.696 23.3494 38.4394V34.1967" stroke="black" stroke-width="2" strokeMiterlimit="10" stroke-linecap="round" stroke-linejoin="round"/>
</g>
</svg>
