<svg width="182" height="182" viewBox="0 0 182 182" fill="none" xmlns="http://www.w3.org/2000/svg">
<path d="M161.371 178.813C161.313 178.813 161.255 178.784 161.221 178.73C161.17 178.647 161.195 178.538 161.278 178.486L179.388 167.271C179.639 167.115 179.786 166.846 179.782 166.551C179.777 166.256 179.621 165.992 179.366 165.844L155.435 152.029C155.351 151.98 155.322 151.872 155.371 151.788C155.42 151.702 155.529 151.674 155.612 151.723L179.543 165.538C179.907 165.748 180.128 166.125 180.135 166.546C180.141 166.966 179.932 167.35 179.574 167.572L161.465 178.787C161.436 178.805 161.403 178.813 161.371 178.813Z" fill="#212121"/>
<path d="M160.896 177.576C160.398 177.576 159.915 177.69 159.572 177.888C159.297 178.046 159.139 178.242 159.139 178.423C159.139 178.602 159.294 178.795 159.564 178.952C159.904 179.15 160.384 179.263 160.882 179.263C161.381 179.263 161.863 179.149 162.205 178.952C162.481 178.793 162.639 178.597 162.639 178.416C162.64 178.236 162.485 178.044 162.215 177.887C161.875 177.689 161.394 177.576 160.896 177.576Z" fill="#FFBE2E"/>
<path d="M163.19 179.755C164.469 179.017 164.476 177.819 163.205 177.081C161.935 176.343 159.866 176.343 158.587 177.081C157.308 177.819 157.302 179.017 158.573 179.755C159.844 180.493 161.911 180.493 163.19 179.755Z" fill="white"/>
<path d="M160.879 180.483C160.011 180.483 159.144 180.291 158.484 179.909C157.815 179.519 157.446 178.992 157.448 178.423C157.448 177.85 157.822 177.32 158.499 176.929C159.825 176.163 161.976 176.163 163.294 176.929C163.963 177.317 164.331 177.845 164.331 178.414C164.33 178.986 163.956 179.518 163.278 179.909C162.616 180.291 161.747 180.483 160.879 180.483ZM160.9 176.703C160.096 176.703 159.291 176.88 158.676 177.235C158.112 177.561 157.802 177.983 157.802 178.423C157.801 178.861 158.106 179.28 158.662 179.603C159.882 180.312 161.874 180.312 163.102 179.603C163.665 179.277 163.976 178.855 163.977 178.414C163.978 177.976 163.672 177.558 163.116 177.235C162.507 176.88 161.704 176.703 160.9 176.703Z" fill="#212121"/>
<path d="M172.156 171.169C171.62 171.169 171.102 171.291 170.734 171.503C170.438 171.674 170.269 171.884 170.268 172.078C170.268 172.271 170.434 172.478 170.725 172.647C171.09 172.859 171.606 172.981 172.141 172.98C172.676 172.98 173.194 172.859 173.562 172.646C173.857 172.476 174.027 172.266 174.028 172.071C174.028 171.878 173.862 171.671 173.571 171.503C173.207 171.291 172.691 171.169 172.156 171.169Z" fill="#3C2C0B"/>
<path d="M160.882 177.575C161.38 177.575 161.863 177.689 162.206 177.887C162.481 178.046 162.639 178.241 162.639 178.422C162.639 178.601 162.484 178.794 162.214 178.951C161.874 179.149 161.394 179.262 160.896 179.262C160.398 179.262 159.916 179.149 159.573 178.951C159.298 178.792 159.139 178.597 159.139 178.415C159.139 178.236 159.294 178.043 159.564 177.886C159.903 177.688 160.384 177.575 160.882 177.575Z" fill="#FFBE2E"/>
<path d="M82.1188 91.6129C82.0581 91.6129 81.9987 91.5815 81.9662 91.5252C81.9171 91.4406 81.9455 91.3324 82.0297 91.2834L115.22 71.9575C115.604 71.7344 115.832 71.3361 115.832 70.8919C115.831 70.4481 115.601 70.0506 115.217 69.8285L91.3833 56.0684C91.2991 56.0197 91.27 55.9115 91.3184 55.827C91.3682 55.742 91.4766 55.713 91.5602 55.7624L115.394 69.5225C115.888 69.8082 116.185 70.32 116.185 70.8916C116.186 71.4633 115.892 71.9758 115.398 72.2632L82.2078 91.5888C82.1796 91.6053 82.1492 91.6129 82.1188 91.6129Z" fill="#212121"/>
<path d="M95.3345 55.5317C96.6134 56.1972 96.6206 57.277 95.3501 57.9425C94.0795 58.608 92.0115 58.6077 90.7326 57.9422C89.4537 57.2767 89.4475 56.1975 90.7181 55.5319C91.9887 54.8664 94.0557 54.8662 95.3345 55.5317Z" fill="white"/>
<path d="M93.0455 58.6151C92.1793 58.6154 91.3124 58.443 90.6513 58.099C89.9695 57.7444 89.5938 57.2591 89.593 56.7331C89.5923 56.2102 89.9626 55.7283 90.636 55.3753C91.9512 54.6873 94.0954 54.687 95.4162 55.375C96.0986 55.7301 96.4751 56.2153 96.4758 56.7413C96.4766 57.2642 96.1062 57.7464 95.4328 58.0993C94.7758 58.443 93.9111 58.6151 93.0455 58.6151ZM93.0241 55.2082C92.2179 55.2082 91.4124 55.3685 90.8005 55.6889C90.2492 55.9773 89.946 56.3479 89.9466 56.7326C89.9466 57.1205 90.2554 57.4942 90.8143 57.7853C92.0459 58.4257 94.045 58.4267 95.2684 57.7857C95.8196 57.4973 96.1222 57.1263 96.1222 56.7419C96.1215 56.3537 95.8128 55.9796 95.2532 55.6885C94.6378 55.368 93.8303 55.2082 93.0241 55.2082Z" fill="#212121"/>
<path d="M93.0411 57.497C92.5425 57.497 92.06 57.3947 91.7172 57.2163C91.442 57.073 91.284 56.8971 91.2837 56.7336C91.2835 56.572 91.4383 56.3981 91.7086 56.2565C92.0485 56.0785 92.5291 55.9763 93.0271 55.9763C93.5252 55.9763 94.0073 56.0786 94.3498 56.2568C94.6253 56.4002 94.7835 56.5763 94.7837 56.7401C94.7839 56.9017 94.6292 57.0755 94.3591 57.2169C94.0195 57.3951 93.5391 57.497 93.0411 57.497Z" fill="#FFBE2E"/>
<path d="M103.051 63.3936C102.515 63.3936 101.997 63.2837 101.629 63.0921C101.333 62.9383 101.164 62.7494 101.163 62.5737C101.163 62.4002 101.329 62.2134 101.62 62.0613C101.985 61.8702 102.501 61.7605 103.036 61.7605C103.571 61.7605 104.089 61.8703 104.456 62.0618C104.752 62.2158 104.922 62.4049 104.922 62.5807C104.923 62.7542 104.756 62.9409 104.466 63.0929C104.102 63.284 103.586 63.3936 103.051 63.3936Z" fill="#3C2C0B"/>
<path d="M128.389 149.911C128.358 149.911 128.328 149.904 128.3 149.888L61.9064 111.406C61.8214 111.357 61.7931 111.249 61.8421 111.165C61.8905 111.079 61.9996 111.051 62.0832 111.1L128.477 149.582C128.562 149.631 128.59 149.739 128.541 149.823C128.509 149.88 128.449 149.911 128.389 149.911Z" fill="#212121"/>
<path d="M89.1963 125.909C89.7318 125.909 90.25 126.031 90.6182 126.244C90.9138 126.414 91.0835 126.624 91.0838 126.819C91.0841 127.011 90.9177 127.218 90.6274 127.387C90.2623 127.599 89.7462 127.721 89.2114 127.721C88.6764 127.721 88.1586 127.599 87.7907 127.387C87.4948 127.216 87.325 127.006 87.3247 126.811C87.3245 126.618 87.4907 126.411 87.7808 126.243C88.1454 126.031 88.6614 125.909 89.1963 125.909Z" fill="#3C2C0B"/>
<path d="M113.969 178.629C113.938 178.629 113.908 178.621 113.88 178.605L92.5821 166.305C91.854 165.885 91.4181 165.132 91.4168 164.291C91.4154 163.449 91.8491 162.695 92.5758 162.272L113.721 149.981C113.805 149.932 113.914 149.96 113.963 150.045C114.012 150.129 113.983 150.238 113.899 150.287L92.7541 162.578C92.1372 162.936 91.7697 163.576 91.7703 164.29C91.7717 165.003 92.1413 165.642 92.7588 165.999L114.057 178.299C114.141 178.348 114.17 178.456 114.122 178.54C114.089 178.597 114.03 178.629 113.969 178.629Z" fill="#212121"/>
<path d="M113.615 180.632C112.336 179.894 112.329 178.696 113.599 177.958C114.869 177.22 116.937 177.22 118.215 177.958C119.493 178.697 119.5 179.894 118.23 180.632C116.959 181.37 114.893 181.371 113.615 180.632Z" fill="white"/>
<path d="M115.924 181.359C115.057 181.359 114.188 181.168 113.526 180.785C112.848 180.394 112.475 179.863 112.474 179.29C112.473 178.721 112.841 178.193 113.51 177.805C114.827 177.039 116.978 177.039 118.303 177.805C118.98 178.196 119.354 178.726 119.355 179.299C119.355 179.868 118.987 180.396 118.318 180.784C117.659 181.167 116.793 181.359 115.924 181.359ZM115.903 177.579C115.099 177.579 114.297 177.756 113.688 178.111C113.133 178.433 112.827 178.852 112.827 179.289C112.828 179.731 113.139 180.153 113.703 180.479C114.93 181.188 116.921 181.188 118.14 180.479C118.696 180.156 119.002 179.737 119.001 179.3C119 178.859 118.69 178.436 118.126 178.111C117.512 177.756 116.707 177.579 115.903 177.579Z" fill="#212121"/>
<path d="M115.907 178.451C116.406 178.451 116.888 178.565 117.231 178.763C117.506 178.921 117.664 179.117 117.664 179.298C117.664 179.477 117.509 179.67 117.239 179.827C116.899 180.025 116.419 180.138 115.921 180.138C115.423 180.138 114.941 180.025 114.599 179.827C114.323 179.668 114.165 179.472 114.165 179.291C114.165 179.111 114.319 178.919 114.59 178.762C114.929 178.564 115.409 178.451 115.907 178.451Z" fill="#FFBE2E"/>
<path d="M104.652 172.044C105.187 172.044 105.706 172.166 106.073 172.378C106.369 172.549 106.539 172.759 106.539 172.953C106.539 173.146 106.373 173.353 106.083 173.522C105.718 173.734 105.202 173.856 104.667 173.856C104.132 173.856 103.615 173.734 103.247 173.521C102.951 173.351 102.781 173.141 102.781 172.946C102.781 172.753 102.947 172.546 103.237 172.378C103.602 172.165 104.118 172.044 104.652 172.044Z" fill="#3C2C0B"/>
<path d="M87.1876 102.011C88.3646 102.69 88.3644 103.795 87.1949 104.474L14.6683 146.622C13.4989 147.302 11.5988 147.302 10.4218 146.622L0.886816 141.117C-0.290178 140.437 -0.296391 139.337 0.87302 138.657L73.3997 96.5094C74.5691 95.8298 76.4755 95.8261 77.6526 96.5056L87.1876 102.011Z" fill="#E2C27B"/>
<path d="M90.6864 95.7097L90.6646 99.9884C90.6646 100.432 90.374 100.867 89.7928 101.209L17.2643 143.365C17.0827 143.474 16.8793 143.561 16.6686 143.633C15.7242 143.953 14.5402 143.953 13.603 143.626C13.3923 143.561 13.1962 143.466 13.0146 143.365L3.47636 137.858C2.88797 137.517 2.59009 137.066 2.59009 136.616L2.60462 132.344C2.60462 132.788 2.89524 133.238 3.49817 133.579L13.022 139.079C13.2036 139.18 13.3924 139.267 13.6031 139.34C14.5403 139.667 15.7243 139.674 16.6687 139.355C16.8867 139.282 17.0901 139.187 17.2717 139.079L89.8002 96.93C90.3813 96.6033 90.6718 96.153 90.6864 95.7097Z" fill="#212121"/>
<path d="M16.6684 139.354V143.633C15.724 143.953 14.5399 143.953 13.6028 143.626V139.34C14.5399 139.667 15.7241 139.674 16.6684 139.354Z" fill="#FFBE2E"/>
<path d="M15.1383 144.046C14.337 144.046 13.5358 143.869 12.9251 143.514L3.39039 138.01C2.75839 137.646 2.41016 137.151 2.41016 136.614L2.43017 132.344C2.43091 132.247 2.50959 132.168 2.60703 132.168C2.60703 132.168 2.60702 132.168 2.60776 132.168C2.70519 132.169 2.78388 132.248 2.78388 132.345C2.78388 132.747 3.06849 133.13 3.58589 133.424L13.113 138.929C14.2445 139.581 16.0695 139.582 17.1829 138.929L89.7115 96.7784C90.2075 96.4966 90.4962 96.1057 90.5059 95.705C90.508 95.6089 90.5867 95.5322 90.6828 95.5322C90.6834 95.5322 90.6841 95.5322 90.6855 95.5322C90.7822 95.5336 90.8602 95.6127 90.8596 95.7097L90.8396 99.9894C90.8396 100.512 90.4991 101.001 89.8809 101.364L17.3515 143.514C16.7416 143.869 15.9396 144.046 15.1383 144.046ZM2.77977 133.228L2.76387 136.615C2.76387 137.019 3.04911 137.405 3.56724 137.703L13.1026 143.208C14.2258 143.861 16.0516 143.861 17.1734 143.208L89.7019 101.058C90.2075 100.762 90.4859 100.382 90.4859 99.9888L90.5018 96.5896C90.3443 96.7754 90.137 96.9436 89.8877 97.0852L17.3613 139.235C16.1525 139.944 14.1672 139.945 12.9362 139.235L3.41051 133.73C3.15076 133.584 2.93935 133.414 2.77977 133.228Z" fill="#212121"/>
<path d="M89.7945 94.472C90.9715 95.1517 90.9713 96.256 89.8019 96.9355L17.2752 139.083C16.1058 139.763 14.2057 139.763 13.0287 139.083L3.49375 133.578C2.31676 132.899 2.31054 131.798 3.47995 131.119L76.0066 88.9708C77.176 88.2912 79.0824 88.2875 80.2595 88.967L89.7945 94.472Z" fill="#FFF7E4"/>
<path d="M15.1544 139.766C14.3531 139.766 13.5518 139.59 12.9397 139.237L3.40508 133.731C2.77718 133.369 2.43043 132.877 2.42969 132.345C2.42895 131.816 2.77023 131.327 3.39054 130.966L75.917 88.8181C77.1368 88.1087 79.1235 88.1076 80.3476 88.8143L89.8823 94.319C90.5082 94.6806 90.8534 95.1724 90.8542 95.7044C90.8549 96.2353 90.5129 96.7267 89.8906 97.0887L17.3642 139.237C16.7556 139.59 15.9557 139.766 15.1544 139.766ZM78.1358 88.6341C77.396 88.6341 76.6568 88.7974 76.0953 89.1242L3.56887 131.272C3.0619 131.566 2.78277 131.947 2.7835 132.344C2.78424 132.744 3.06738 133.129 3.58204 133.426L13.1167 138.931C14.2426 139.58 16.0684 139.581 17.186 138.931L89.7125 96.7827C90.2216 96.487 90.5013 96.1043 90.5007 95.7047C90.5007 95.3044 90.2182 94.921 89.7056 94.625L80.171 89.1203C79.6092 88.7961 78.8722 88.6341 78.1358 88.6341Z" fill="#3C2C0B"/>
<path d="M83.2814 3.44935C82.451 2.96229 81.3012 3.03412 80.0315 3.76082L17.2923 39.9895C16.7094 40.3249 16.1584 40.7721 15.6473 41.2991C14.3617 42.6167 13.3556 44.4293 12.9483 46.194C12.8126 46.761 12.7407 47.3279 12.7407 47.8709L12.8845 131.127C12.8845 132.572 13.4035 133.578 14.2179 134.057L9.11548 131.103C8.30094 130.624 7.78997 129.61 7.78196 128.164L7.63818 44.9005C7.63818 44.3656 7.70212 43.8066 7.83779 43.2397C8.24501 41.475 9.24315 39.6703 10.5368 38.3447C11.0398 37.8177 11.6067 37.3626 12.1896 37.0272L74.929 0.806535C76.1987 0.0719402 77.3485 0.00800268 78.1791 0.479159L83.2814 3.44935Z" fill="#212121"/>
<path d="M15.6469 41.2992C14.3613 42.6168 13.3552 44.4294 12.948 46.1942L7.8374 43.2397C8.24462 41.475 9.24276 39.6703 10.5365 38.3447L15.6469 41.2992Z" fill="#FFBE2E"/>
<path d="M14.2177 134.235C14.1873 134.235 14.1569 134.227 14.1293 134.211L9.02668 131.256C8.11692 130.721 7.61269 129.624 7.60511 128.166L7.46069 44.9015C7.46069 44.3399 7.5298 43.7673 7.66515 43.1991C8.08101 41.3973 9.08188 39.5826 10.4102 38.2215C10.9269 37.68 11.512 37.2136 12.1005 36.8745L74.8402 0.654025C76.1181 -0.0854149 77.336 -0.202229 78.2658 0.325913L83.3698 3.29758C83.3698 3.29758 83.3698 3.29758 83.3705 3.29758C83.4541 3.34698 83.4824 3.45547 83.4334 3.53932C83.3837 3.62358 83.2759 3.65223 83.1917 3.60283H83.1911C83.1911 3.60251 83.1911 3.60252 83.1911 3.60252L83.1794 3.59598C82.376 3.13146 81.2901 3.24544 80.1192 3.91483L17.3803 40.1432C16.8325 40.4585 16.2916 40.8892 15.7742 41.4229C14.508 42.7205 13.5161 44.5189 13.1204 46.2344C12.9856 46.797 12.9173 47.3472 12.9173 47.8715L13.061 131.127C13.061 132.446 13.5038 133.433 14.3078 133.906C14.3913 133.955 14.4196 134.063 14.3707 134.147C14.3379 134.203 14.2785 134.235 14.2177 134.235ZM76.9837 0.353509C76.3834 0.353509 75.7133 0.557329 75.0171 0.960018L12.2774 37.1808C11.7172 37.5034 11.1597 37.9482 10.6644 38.467C9.39757 39.7649 8.40564 41.5637 8.00906 43.2799C7.87992 43.8225 7.8143 44.3675 7.8143 44.9011L7.95871 128.164C7.96566 129.492 8.40838 130.482 9.20491 130.951L13.2079 133.269C12.8805 132.703 12.7071 131.976 12.7071 131.127L12.5635 47.8717C12.5635 47.3194 12.6353 46.7413 12.7762 46.1531C13.1851 44.3788 14.2116 42.5179 15.5207 41.1761C16.0609 40.619 16.6273 40.1682 17.2034 39.8367L79.9431 3.60831C80.6988 3.17518 81.4483 2.96725 82.0886 2.9604L78.0898 0.632115C77.7614 0.446096 77.3885 0.353509 76.9837 0.353509Z" fill="#212121"/>
<path d="M12.7646 57.1185C12.7342 57.1185 12.7039 57.1109 12.6763 57.0947L7.5736 54.1403C7.4886 54.0912 7.46026 53.9831 7.50871 53.8986C7.55843 53.814 7.66693 53.7857 7.75046 53.8343L12.8531 56.7887C12.9381 56.8378 12.9665 56.9459 12.918 57.0304C12.8848 57.0867 12.8254 57.1185 12.7646 57.1185Z" fill="#3C2C0B"/>
<path d="M12.8765 127.521C12.8461 127.521 12.8158 127.514 12.7874 127.497L7.68476 124.535C7.60049 124.486 7.57216 124.377 7.62124 124.293C7.66959 124.208 7.77808 124.18 7.86298 124.229L12.9656 127.191C13.0499 127.24 13.0782 127.349 13.0292 127.433C12.9967 127.49 12.9373 127.521 12.8765 127.521Z" fill="#3C2C0B"/>
<path d="M84.6145 6.37343C84.6063 3.47844 82.5499 2.31325 80.0304 3.7679L17.2932 39.989C14.7678 41.447 12.7306 44.9756 12.7388 47.8707L12.7645 56.9272L84.6402 15.43L84.6145 6.37343Z" fill="#FFBE2E"/>
<path d="M12.7651 57.1041C12.7347 57.1041 12.7043 57.0961 12.6767 57.0806C12.6222 57.0492 12.5884 56.9908 12.5884 56.9275L12.5628 47.8712C12.5544 44.9233 14.6371 41.3186 17.2054 39.8361L79.9423 3.61505C81.225 2.87487 82.4402 2.7609 83.3644 3.29283C84.281 3.82024 84.7873 4.91444 84.7915 6.37331L84.8177 15.4297C84.8177 15.4929 84.7839 15.5515 84.7294 15.583L12.8535 57.0802C12.8259 57.0961 12.7955 57.1041 12.7651 57.1041ZM82.0801 3.31664C81.4819 3.31664 80.8147 3.51972 80.119 3.92104L17.3822 40.1422C14.9113 41.5687 12.9081 45.0353 12.9164 47.8705L12.9412 56.6215L84.4641 15.3281L84.4378 6.37405C84.4343 5.04674 83.9902 4.06135 83.1875 3.59925C82.8594 3.4106 82.4857 3.31664 82.0801 3.31664Z" fill="#3C2C0B"/>
<path d="M12.7651 56.9271L12.887 131.13C12.8952 134.032 14.9456 135.201 17.4711 133.743L80.2083 97.5214C82.7278 96.0666 84.7708 92.5348 84.7626 89.6329L84.6407 15.4299L12.7651 56.9271Z" fill="#FFF7E4"/>
<path d="M15.4185 134.549C14.9522 134.549 14.5205 134.44 14.1385 134.22C13.2219 133.692 12.7141 132.595 12.7099 131.13L12.5884 56.9272C12.5884 56.864 12.6222 56.8052 12.6768 56.7738L84.5526 15.2767C84.6078 15.2449 84.6741 15.2453 84.7294 15.2764C84.784 15.3082 84.8178 15.3661 84.8178 15.4294L84.9393 89.6323C84.9477 92.5836 82.865 96.1911 80.2967 97.6742L17.5598 133.895C16.8076 134.33 16.0788 134.549 15.4185 134.549ZM12.9421 57.0287L13.0636 131.13C13.0678 132.463 13.5119 133.451 14.3153 133.913C15.1242 134.379 16.2135 134.264 17.383 133.589L80.1199 97.3681C82.5908 95.9414 84.594 92.4716 84.5857 89.6329L84.4648 15.7356L12.9421 57.0287Z" fill="#3C2C0B"/>
<path d="M19.9295 44.1851C20.7732 43.6979 21.4519 44.0846 21.4547 45.054C21.4574 46.0153 20.7832 47.1914 19.9394 47.6786C19.0957 48.1656 18.4171 47.7706 18.4143 46.8094C18.4116 45.84 19.0858 44.6723 19.9295 44.1851Z" fill="#212121"/>
<path d="M26.2767 40.5192C27.1132 40.0362 27.7991 40.4187 27.8018 41.3882C27.8046 42.3495 27.1232 43.5298 26.2866 44.0128C25.4429 44.4999 24.7642 44.1048 24.7615 43.1436C24.7587 42.1741 25.433 41.0063 26.2767 40.5192Z" fill="#212121"/>
<path d="M32.6241 36.8508C33.4626 36.3667 34.1428 36.7544 34.1456 37.7262C34.1483 38.6897 33.4725 39.8687 32.634 40.3529C31.7882 40.8412 31.108 40.4451 31.1052 39.4815C31.1026 38.5097 31.7784 37.3392 32.6241 36.8508Z" fill="#212121"/>
<path d="M76.9377 68.0504C76.6448 68.0504 76.4072 67.8127 76.4072 67.5199V27.7797C76.4072 27.4868 76.6449 27.2493 76.9377 27.2493C77.2306 27.2493 77.4681 27.4869 77.4681 27.7797V67.5199C77.4683 67.8127 77.2306 68.0504 76.9377 68.0504Z" fill="#978050"/>
<path d="M68.8879 72.6314C68.5949 72.6314 68.3574 72.3938 68.3574 72.101V32.3608C68.3574 32.0679 68.5951 31.8303 68.8879 31.8303C69.1807 31.8303 69.4183 32.068 69.4183 32.3608V72.101C69.4184 72.3938 69.1808 72.6314 68.8879 72.6314Z" fill="#978050"/>
<path d="M60.8386 77.2113C60.5456 77.2113 60.3081 76.9737 60.3081 76.6809V36.9406C60.3081 36.6478 60.5457 36.4102 60.8386 36.4102C61.1315 36.4102 61.369 36.6478 61.369 36.9406V76.6809C61.369 76.9737 61.1314 77.2113 60.8386 77.2113Z" fill="#978050"/>
<path d="M52.7888 81.9726C52.4958 81.9726 52.2583 81.735 52.2583 81.4422V41.7016C52.2583 41.4088 52.4959 41.1711 52.7888 41.1711C53.0816 41.1711 53.3192 41.4088 53.3192 41.7016V81.4422C53.3193 81.735 53.0817 81.9726 52.7888 81.9726Z" fill="#978050"/>
<path d="M44.7387 86.63C44.4458 86.63 44.2083 86.3923 44.2083 86.0995V46.3588C44.2083 46.0659 44.4459 45.8284 44.7387 45.8284C45.0316 45.8284 45.2692 46.066 45.2692 46.3588V86.0994C45.2693 86.3923 45.0316 86.63 44.7387 86.63Z" fill="#978050"/>
<path d="M36.6892 91.2799C36.3962 91.2799 36.1587 91.0423 36.1587 90.7495V51.0092C36.1587 50.7164 36.3963 50.4788 36.6892 50.4788C36.9821 50.4788 37.2196 50.7164 37.2196 51.0092V90.7495C37.2196 91.0423 36.982 91.2799 36.6892 91.2799Z" fill="#978050"/>
<path d="M28.6396 95.938C28.3468 95.938 28.1091 95.7004 28.1091 95.4076V55.6674C28.1091 55.3745 28.3468 55.137 28.6396 55.137C28.9325 55.137 29.1701 55.3746 29.1701 55.6674V95.4076C29.1702 95.7004 28.9325 95.938 28.6396 95.938Z" fill="#978050"/>
<path d="M20.5903 100.569C20.2973 100.569 20.0598 100.332 20.0598 100.039V60.2983C20.0598 60.0055 20.2974 59.7678 20.5903 59.7678C20.8831 59.7678 21.1207 60.0055 21.1207 60.2983V100.039C21.1207 100.332 20.8831 100.569 20.5903 100.569Z" fill="#978050"/>
<path d="M76.9171 34.1017C77.7846 33.6009 78.4872 34.0012 78.4901 34.991L78.5154 42.0148C78.5183 43.0046 77.8202 44.2135 76.9527 44.7145C76.0913 45.2118 75.3888 44.8114 75.386 43.8217L75.3606 36.7978C75.3578 35.8079 76.0557 34.599 76.9171 34.1017Z" fill="#3C2C0B"/>
<path d="M68.8671 56.6943C69.7346 56.1934 70.4372 56.5938 70.44 57.5835L70.4654 64.6073C70.4682 65.5971 69.7702 66.8061 68.9027 67.307C68.0413 67.8043 67.3388 67.4039 67.336 66.4142L67.3106 59.3904C67.3077 58.4005 68.0057 57.1915 68.8671 56.6943Z" fill="#FFBE2E"/>
<path d="M60.8173 50.1594C61.6848 49.6585 62.3874 50.0589 62.3902 51.0486L62.4156 58.0725C62.4184 59.0623 61.7204 60.2712 60.8529 60.7721C59.9914 61.2695 59.289 60.869 59.2861 59.8793L59.2608 52.8554C59.2579 51.8655 59.9558 50.6566 60.8173 50.1594Z" fill="#3C2C0B"/>
<path d="M36.6683 64.4006C37.5359 63.8997 38.2384 64.3001 38.2413 65.2898L38.2667 72.3136C38.2695 73.3034 37.5715 74.5123 36.7039 75.0133C35.8425 75.5106 35.1401 75.1102 35.1372 74.1205L35.1118 67.0967C35.109 66.1069 35.8069 64.8979 36.6683 64.4006Z" fill="#FFBE2E"/>
<path d="M52.7679 66.4465C53.6355 65.9456 54.338 66.3459 54.3409 67.3357L54.3663 74.3595C54.3691 75.3494 53.6711 76.5583 52.8035 77.0591C51.9421 77.5564 51.2397 77.1561 51.2368 76.1663L51.2114 69.1425C51.2086 68.1527 51.9065 66.9438 52.7679 66.4465Z" fill="#FFBE2E"/>
<path d="M20.569 64.0744C21.4365 63.5735 22.1391 63.9739 22.1419 64.9636L22.1673 71.9876C22.1701 72.9774 21.4721 74.1863 20.6046 74.6871C19.7432 75.1845 19.0407 74.7842 19.0378 73.7943L19.0125 66.7705C19.0096 65.7807 19.7076 64.5717 20.569 64.0744Z" fill="#FFBE2E"/>
<path d="M28.6188 83.1545C29.4863 82.6536 30.1889 83.054 30.1917 84.0437L30.2171 91.0676C30.2199 92.0575 29.5219 93.2664 28.6544 93.7672C27.793 94.2645 27.0905 93.8641 27.0876 92.8744L27.0623 85.8506C27.0594 84.8608 27.7574 83.6517 28.6188 83.1545Z" fill="#3C2C0B"/>
<path d="M44.7181 50.1594C45.5857 49.6585 46.2882 50.0589 46.2911 51.0486L46.3165 58.0725C46.3193 59.0623 45.6213 60.2712 44.7537 60.7721C43.8923 61.2695 43.1899 60.869 43.187 59.8793L43.1616 52.8554C43.1588 51.8655 43.8567 50.6566 44.7181 50.1594Z" fill="#3C2C0B"/>
<path d="M61.0133 94.7171L57.5372 96.722C57.5291 93.7955 55.4515 92.6234 52.9051 94.0947L52.897 90.1012C57.3674 87.5223 60.9972 89.5999 61.0133 94.7171Z" fill="#FFBE2E"/>
<path d="M57.5369 96.7222C57.545 99.6487 55.4835 103.206 52.9371 104.677C50.3907 106.148 48.3131 104.968 48.305 102.041C48.2968 99.115 50.3583 95.5662 52.9048 94.0948C55.4512 92.6234 57.5289 93.7958 57.5369 96.7222Z" fill="white"/>
<path d="M61.0132 94.7176C61.0294 99.8429 57.4158 106.092 52.9453 108.663C48.4828 111.241 44.8369 109.172 44.8208 104.047C44.8127 98.9294 48.4263 92.6804 52.8968 90.1016L52.9049 94.0951C50.3584 95.5664 48.297 99.1152 48.3051 102.042C48.3132 104.968 50.3908 106.148 52.9373 104.677C55.4838 103.206 57.5452 99.6489 57.5371 96.7225L61.0132 94.7176Z" fill="#978050"/>
<path d="M73.244 78.3792C73.2841 78.356 73.3207 78.3434 73.3609 78.3203L73.3723 82.3068C73.3322 82.3322 73.2956 82.3492 73.2555 82.3724C70.7111 83.8382 68.6478 87.3955 68.6561 90.317C68.6644 93.2428 70.7411 94.4195 73.2855 92.9536C73.3256 92.9305 73.3622 92.9011 73.4023 92.8779L73.4137 96.8668C73.3736 96.89 73.337 96.9193 73.2969 96.9425C68.8285 99.5166 65.1917 97.4486 65.177 92.3213C65.1624 87.2021 68.7756 80.9533 73.244 78.3792Z" fill="#978050"/>
<path d="M81.3615 82.9938C81.3803 88.0774 77.8339 94.2513 73.4134 96.8679L73.4009 92.8869C75.8983 91.3793 77.8963 87.878 77.8901 84.9999C77.8776 82.1217 75.8672 80.9379 73.3697 82.3085L73.3635 78.3214C73.3198 78.3464 73.2823 78.3588 73.2449 78.3773C77.7153 75.8044 81.3491 77.879 81.3615 82.9938Z" fill="#FFBE2E"/>
<path d="M19.0122 109.776C18.9514 109.776 18.892 109.744 18.8588 109.688C18.8105 109.603 18.8395 109.495 18.9238 109.446L40.9738 96.7155C41.0567 96.6668 41.1652 96.6947 41.2155 96.7801C41.2639 96.8646 41.2349 96.9728 41.1506 97.0215L19.1007 109.752C19.073 109.769 19.0425 109.776 19.0122 109.776Z" fill="#3C2C0B"/>
<path d="M19.0122 114.203C18.9514 114.203 18.892 114.171 18.8588 114.114C18.8105 114.03 18.8395 113.922 18.9238 113.873L40.9738 101.142C41.0567 101.093 41.1652 101.121 41.2155 101.207C41.2639 101.291 41.2349 101.399 41.1506 101.448L19.1006 114.179C19.073 114.195 19.0425 114.203 19.0122 114.203Z" fill="#3C2C0B"/>
<path d="M19.0122 118.631C18.9514 118.631 18.892 118.599 18.8588 118.542C18.8105 118.458 18.8395 118.35 18.9238 118.301L40.8128 105.664C40.895 105.615 41.0049 105.643 41.0546 105.728C41.1029 105.813 41.074 105.921 40.9897 105.97L19.1007 118.607C19.073 118.623 19.0425 118.631 19.0122 118.631Z" fill="#3C2C0B"/>
<path d="M19.0122 123.059C18.9514 123.059 18.892 123.027 18.8588 122.97C18.8105 122.886 18.8395 122.778 18.9238 122.729L40.8128 110.091C40.895 110.042 41.0049 110.071 41.0546 110.156C41.1029 110.241 41.074 110.349 40.9897 110.397L19.1007 123.035C19.073 123.051 19.0425 123.059 19.0122 123.059Z" fill="#3C2C0B"/>
<path d="M19.0122 127.487C18.9514 127.487 18.892 127.455 18.8588 127.398C18.8105 127.314 18.8395 127.205 18.9238 127.157L40.8128 114.519C40.895 114.47 41.0049 114.498 41.0546 114.584C41.1029 114.668 41.074 114.776 40.9897 114.825L19.1007 127.463C19.073 127.479 19.0425 127.487 19.0122 127.487Z" fill="#3C2C0B"/>
<path d="M94.7619 153.743C93.8742 154.256 93.8743 155.089 94.7563 155.601L138.604 180.876C139.486 181.388 140.919 181.388 141.807 180.876L180.261 158.883C181.149 158.37 181.153 157.54 180.272 157.028L136.424 129.369C135.542 128.857 134.104 128.854 133.216 129.366L94.7619 153.743Z" fill="#F5F4F4"/>
<path d="M94.2253 147.204L94.2418 152.815C94.2418 153.15 94.461 153.478 94.8993 153.736L138.748 179.016C138.885 179.098 139.039 179.164 139.198 179.219C139.91 179.46 140.803 179.46 141.51 179.213C141.669 179.164 141.817 179.093 141.954 179.016L180.41 157.022C180.854 156.765 181.079 156.425 181.079 156.085L181.068 150.479C181.068 150.813 180.849 151.153 180.394 151.411L141.948 173.399C141.811 173.476 141.669 173.542 141.51 173.596C140.803 173.843 139.91 173.848 139.198 173.607C139.033 173.552 138.88 173.481 138.743 173.399L94.8938 148.124C94.4555 147.878 94.2363 147.538 94.2253 147.204Z" fill="#212121"/>
<path d="M139.198 173.608V179.219C139.91 179.46 140.803 179.46 141.51 179.214V173.597C140.803 173.844 139.91 173.849 139.198 173.608Z" fill="#FFBE2E"/>
<path d="M140.289 179.472C139.685 179.472 139.081 179.334 138.621 179.06L95.3791 153.432C94.905 153.145 94.6441 152.758 94.6441 152.341L94.6292 146.652C94.6292 146.554 94.7054 146.473 94.8015 146.472C94.9022 146.473 94.9759 146.549 94.9779 146.647C94.984 146.937 95.1911 147.223 95.5453 147.43L138.789 173.059C139.605 173.551 140.945 173.551 141.774 173.059L179.69 150.76C180.056 150.547 180.265 150.26 180.265 149.973C180.265 149.874 180.343 149.794 180.44 149.794C180.536 149.794 180.614 149.873 180.614 149.973L180.629 155.655C180.629 156.081 180.363 156.474 179.878 156.761L141.955 179.06C141.496 179.335 140.892 179.472 140.289 179.472ZM94.9799 147.437L94.9929 152.341C94.9929 152.626 95.1926 152.903 95.5549 153.122L138.796 178.749C139.62 179.242 140.96 179.241 141.78 178.749L179.705 156.45C180.07 156.233 180.28 155.943 180.28 155.655L180.267 150.758C180.156 150.874 180.021 150.979 179.862 151.071L141.947 173.37C141.021 173.919 139.525 173.919 138.613 173.369L95.3715 147.741C95.2198 147.652 95.0883 147.55 94.9799 147.437Z" fill="#3C2C0B"/>
<path d="M94.8982 146.271C94.0104 146.783 94.0105 147.616 94.8926 148.129L138.74 173.403C139.622 173.915 141.055 173.915 141.943 173.403L180.397 151.41C181.285 150.897 181.29 150.067 180.408 149.555L136.56 124.281C135.678 123.768 134.24 123.765 133.353 124.278L94.8982 146.271Z" fill="#FFF7E4"/>
<path d="M140.34 173.961C139.728 173.961 139.117 173.826 138.652 173.556L94.8044 148.282C94.3202 148.001 94.0542 147.617 94.0549 147.2C94.0557 146.783 94.3236 146.398 94.81 146.118C94.81 146.118 94.8107 146.118 94.8107 146.118L133.265 124.125C134.198 123.585 135.717 123.586 136.65 124.128L180.496 149.402C180.979 149.682 181.244 150.065 181.243 150.48C181.242 150.897 180.974 151.282 180.486 151.563L142.031 173.557C141.564 173.826 140.952 173.961 140.34 173.961ZM94.9868 146.424C94.6145 146.639 94.4093 146.915 94.4086 147.201C94.4086 147.486 94.6117 147.761 94.982 147.976L138.829 173.25C139.661 173.733 141.018 173.733 141.855 173.25L180.31 151.257C180.683 151.041 180.889 150.765 180.889 150.479C180.89 150.196 180.688 149.922 180.319 149.708L136.472 124.434C135.638 123.949 134.277 123.947 133.441 124.431L94.9868 146.424Z" fill="#3C2C0B"/>
<g opacity="0.1">
<path d="M125.203 140.691C118.593 144.507 118.558 150.697 125.128 154.515C131.698 158.333 142.382 158.331 148.992 154.515C155.605 150.697 155.646 144.507 149.076 140.689C142.506 136.871 131.816 136.873 125.203 140.691Z" fill="#212121"/>
</g>
<path d="M154.941 144.767C154.946 147.287 153.283 149.807 149.956 151.729C147.237 153.303 143.835 154.224 140.309 154.503C138.865 154.618 137.395 154.623 135.946 154.518C132.34 154.264 128.854 153.338 126.09 151.729C122.828 149.832 121.194 147.352 121.184 144.866L121.174 138.561C121.179 141.047 122.813 143.527 126.08 145.424C128.844 147.028 132.335 147.959 135.946 148.213C137.395 148.318 138.86 148.313 140.309 148.193C143.83 147.914 147.227 146.988 149.941 145.424C153.268 143.507 154.931 140.992 154.931 138.472L154.941 144.767Z" fill="#212121"/>
<path d="M139.935 148.676V154.986C138.491 155.101 137.022 155.106 135.572 155.001V148.696C137.022 148.801 138.486 148.796 139.935 148.676Z" fill="#FFBE2E"/>
<path d="M137.633 155.246C133.279 155.246 128.932 154.286 125.628 152.366C122.416 150.499 120.643 148.007 120.635 145.348L120.624 139.043C120.624 139.043 120.624 139.043 120.624 139.043C120.624 138.945 120.703 138.866 120.8 138.865C120.801 138.865 120.801 138.865 120.801 138.865C120.899 138.865 120.978 138.944 120.978 139.042C120.985 141.57 122.696 143.954 125.795 145.755C132.302 149.537 142.928 149.537 149.481 145.755C152.642 143.93 154.381 141.515 154.379 138.954V138.944C154.379 138.944 154.379 138.944 154.379 138.944C154.379 138.846 154.458 138.767 154.555 138.766C154.556 138.766 154.556 138.766 154.556 138.766C154.653 138.766 154.732 138.845 154.732 138.943C154.732 138.947 154.732 138.951 154.732 138.955L154.744 145.249C154.751 147.945 152.949 150.474 149.669 152.367C146.344 154.286 141.986 155.246 137.633 155.246ZM120.981 141.072L120.989 145.348C120.996 147.875 122.707 150.259 125.806 152.06C132.314 155.842 142.94 155.843 149.492 152.06C152.657 150.233 154.397 147.814 154.39 145.249L154.382 140.989C153.711 142.902 152.092 144.656 149.658 146.061C143.008 149.9 132.224 149.9 125.617 146.061C123.239 144.679 121.649 142.954 120.981 141.072Z" fill="#3C2C0B"/>
<path d="M125.78 132.083C119.17 135.899 119.135 142.089 125.705 145.908C132.275 149.726 142.959 149.724 149.569 145.908C156.182 142.09 156.223 135.9 149.653 132.081C143.083 128.263 132.393 128.265 125.78 132.083Z" fill="#3C2C0B"/>
<path d="M137.622 148.94C133.268 148.94 128.921 147.98 125.617 146.061C122.393 144.187 120.62 141.686 120.624 139.017C120.628 136.332 122.428 133.815 125.692 131.93C132.346 128.088 143.135 128.089 149.743 131.928C152.964 133.8 154.736 136.3 154.732 138.967C154.728 141.654 152.927 144.173 149.658 146.06C146.333 147.98 141.974 148.94 137.622 148.94ZM125.869 132.236C122.719 134.055 120.981 136.464 120.978 139.018C120.974 141.555 122.685 143.947 125.795 145.755C132.302 149.537 142.928 149.537 149.481 145.755C152.636 143.933 154.375 141.522 154.379 138.966C154.382 136.431 152.672 134.04 149.565 132.235C143.055 128.451 132.425 128.452 125.869 132.236Z" fill="#3C2C0B"/>
<path d="M137.622 148.194C133.215 148.194 129.086 147.205 125.996 145.409C123.015 143.676 121.375 141.407 121.378 139.019C121.382 136.613 123.048 134.328 126.07 132.583C129.183 130.786 133.326 129.796 137.736 129.796C142.144 129.796 146.274 130.785 149.364 132.58C152.343 134.312 153.982 136.58 153.978 138.967C153.975 141.374 152.307 143.661 149.281 145.408C146.17 147.204 142.029 148.194 137.622 148.194Z" fill="#FFF7E4"/>
<path d="M137.621 148.37C133.184 148.37 129.023 147.373 125.906 145.562C122.868 143.796 121.197 141.472 121.201 139.018C121.204 136.547 122.901 134.207 125.98 132.43C129.12 130.617 133.295 129.619 137.736 129.619C142.174 129.619 146.335 130.617 149.452 132.427C152.488 134.192 154.158 136.514 154.154 138.967C154.151 141.44 152.451 143.782 149.369 145.561C146.231 147.372 142.058 148.37 137.621 148.37ZM137.736 129.973C133.356 129.973 129.244 130.954 126.157 132.736C123.192 134.448 121.558 136.679 121.555 139.019C121.551 141.341 123.16 143.556 126.085 145.256C129.148 147.036 133.245 148.017 137.621 148.017C141.998 148.017 146.107 147.036 149.192 145.255C152.161 143.541 153.797 141.308 153.801 138.966C153.804 136.645 152.197 134.432 149.274 132.733C146.211 130.953 142.113 129.973 137.736 129.973Z" fill="#3C2C0B"/>
<path d="M137.649 143.72C135.385 143.72 133.264 143.212 131.677 142.29C130.146 141.4 129.304 140.234 129.305 139.008C129.307 137.772 130.163 136.598 131.715 135.702C133.314 134.779 135.442 134.271 137.707 134.271C139.971 134.271 142.092 134.779 143.68 135.701C145.21 136.59 146.051 137.755 146.05 138.981C146.048 140.217 145.191 141.392 143.637 142.289C142.039 143.212 139.912 143.72 137.649 143.72Z" fill="white"/>
<path d="M137.649 143.897C135.355 143.897 133.202 143.38 131.588 142.443C130 141.519 129.127 140.299 129.129 139.007C129.131 137.706 130.018 136.478 131.627 135.549C133.253 134.61 135.412 134.094 137.707 134.094C140.002 134.094 142.155 134.61 143.769 135.548C145.356 136.47 146.229 137.689 146.227 138.981C146.225 140.283 145.337 141.512 143.726 142.442C142.101 143.38 139.943 143.897 137.649 143.897ZM137.707 134.447C135.473 134.447 133.376 134.947 131.803 135.855C130.309 136.719 129.485 137.838 129.482 139.008C129.48 140.168 130.291 141.279 131.766 142.137C133.327 143.044 135.416 143.543 137.649 143.543C139.882 143.543 141.977 143.043 143.549 142.136C145.046 141.272 145.872 140.151 145.873 138.98C145.875 137.82 145.065 136.71 143.591 135.854C142.03 134.947 139.941 134.447 137.707 134.447Z" fill="#3C2C0B"/>
<path d="M148.201 143.105C145.664 144.683 141.929 145.591 137.799 145.591C133.668 145.591 129.919 144.688 127.361 143.105C125.053 141.679 124.099 139.933 124.555 138.229L129.817 121.327C129.817 120.2 130.599 119.12 132.029 118.288C133.542 117.41 135.561 116.928 137.717 116.928C139.879 116.928 141.909 117.415 143.426 118.288C144.872 119.125 145.674 120.206 145.679 121.342H145.684L150.956 138.264C151.407 139.959 150.474 141.689 148.201 143.105Z" fill="url(#paint0_linear_2671_77268)"/>
<path d="M157.265 103.041L154.404 101.378L159.784 106.072L162.645 107.735L157.265 103.041Z" fill="#3C2C0B"/>
<path d="M162.645 107.912C162.615 107.912 162.585 107.904 162.556 107.888L159.695 106.225L154.288 101.511C154.219 101.451 154.207 101.349 154.26 101.275C154.314 101.201 154.414 101.18 154.493 101.225L157.354 102.888C157.364 102.894 157.373 102.9 157.381 102.908L162.762 107.602C162.831 107.662 162.842 107.764 162.789 107.838C162.755 107.886 162.701 107.912 162.645 107.912ZM155.912 102.459L159.9 105.939L161.145 106.66L157.161 103.185L155.912 102.459Z" fill="#3C2C0B"/>
<path d="M147.252 95.1938L144.391 93.5312L144.429 107.137L147.29 108.8L147.252 95.1938Z" fill="white"/>
<path d="M147.29 108.977C147.26 108.977 147.229 108.969 147.201 108.953L144.34 107.29C144.286 107.259 144.252 107.201 144.252 107.138L144.214 93.5317C144.214 93.4685 144.247 93.4098 144.302 93.3784C144.357 93.3465 144.424 93.3465 144.479 93.3784L147.341 95.041C147.395 95.0728 147.428 95.1309 147.428 95.1937L147.467 108.8C147.467 108.863 147.433 108.922 147.379 108.953C147.351 108.969 147.321 108.977 147.29 108.977ZM144.606 107.035L147.113 108.492L147.075 95.2959L144.568 93.8391L144.606 107.035Z" fill="#3C2C0B"/>
<path d="M161.484 90.7092L158.623 89.0466L144.391 93.5313L147.252 95.1939L161.484 90.7092Z" fill="#3C2C0B"/>
<path d="M147.252 95.3711C147.221 95.3711 147.19 95.3632 147.163 95.3473L144.301 93.6846C144.241 93.6495 144.207 93.5817 144.215 93.5119C144.223 93.4425 144.27 93.3841 144.337 93.3631L158.57 88.8786C158.617 88.8634 158.668 88.8686 158.712 88.8942L161.573 90.5566C161.634 90.5917 161.668 90.6595 161.66 90.7289C161.652 90.7986 161.605 90.857 161.538 90.8781L147.305 95.3629C147.288 95.3684 147.27 95.3711 147.252 95.3711ZM144.826 93.5799L147.273 95.0023L161.049 90.6612L158.602 89.2392L144.826 93.5799Z" fill="#3C2C0B"/>
<path d="M147.251 95.1946L147.29 108.801L157.265 103.042L162.645 107.736L164.735 105.6L161.484 90.71L147.251 95.1946Z" fill="#FFBE2E"/>
<path d="M147.29 108.977C147.26 108.977 147.23 108.969 147.202 108.954C147.147 108.922 147.114 108.864 147.114 108.8L147.075 95.1945C147.075 95.1171 147.125 95.0487 147.199 95.0256L161.431 90.5408C161.477 90.5252 161.53 90.5311 161.573 90.5563C161.616 90.5812 161.647 90.623 161.657 90.6716L164.908 105.562C164.921 105.62 164.904 105.681 164.862 105.723L162.772 107.859C162.706 107.926 162.6 107.93 162.529 107.869L157.244 103.258L147.379 108.953C147.351 108.969 147.321 108.977 147.29 108.977ZM147.429 95.3237L147.466 108.495L157.177 102.888C157.242 102.851 157.324 102.858 157.381 102.908L162.636 107.492L164.542 105.544L161.353 90.9363L147.429 95.3237Z" fill="#3C2C0B"/>
<path d="M118.243 103.041L121.104 101.378L115.724 106.072L112.863 107.735L118.243 103.041Z" fill="#3C2C0B"/>
<path d="M112.863 107.912C112.808 107.912 112.754 107.886 112.719 107.838C112.666 107.764 112.678 107.662 112.747 107.602L118.127 102.908C118.136 102.9 118.145 102.894 118.154 102.888L121.015 101.225C121.095 101.18 121.194 101.201 121.247 101.275C121.301 101.349 121.289 101.451 121.22 101.511L115.839 106.205L112.952 107.888C112.924 107.904 112.893 107.912 112.863 107.912ZM118.347 103.185L114.372 106.654L115.634 105.919L119.599 102.457L118.347 103.185Z" fill="#3C2C0B"/>
<path d="M128.257 95.1938L131.118 93.5312L131.079 107.137L128.218 108.8L128.257 95.1938Z" fill="white"/>
<path d="M128.218 108.977C128.188 108.977 128.157 108.969 128.13 108.953C128.075 108.922 128.041 108.863 128.041 108.8L128.08 95.1937C128.08 95.1308 128.114 95.0727 128.168 95.041L131.028 93.3784C131.083 93.3465 131.15 93.3465 131.206 93.3784C131.26 93.4097 131.294 93.4685 131.294 93.5317L131.256 107.138C131.256 107.201 131.222 107.259 131.168 107.29L128.307 108.953C128.28 108.969 128.248 108.977 128.218 108.977ZM128.434 95.2958L128.395 108.492L130.902 107.035L130.94 93.8389L128.434 95.2958Z" fill="#3C2C0B"/>
<path d="M114.024 90.7092L116.885 89.0466L131.117 93.5313L128.256 95.1939L114.024 90.7092Z" fill="#3C2C0B"/>
<path d="M128.257 95.3709C128.239 95.3709 128.221 95.3682 128.203 95.3626L113.971 90.8778C113.904 90.8568 113.856 90.7984 113.849 90.7285C113.84 90.6591 113.875 90.5914 113.935 90.5562L116.796 88.8939C116.84 88.869 116.892 88.8634 116.938 88.8783L131.17 93.3627C131.237 93.3838 131.285 93.4421 131.293 93.5116C131.301 93.5813 131.266 93.649 131.206 93.6843L128.346 95.347C128.318 95.3629 128.288 95.3709 128.257 95.3709ZM114.459 90.6609L128.235 95.002L130.682 93.5797L116.907 89.2389L114.459 90.6609Z" fill="#3C2C0B"/>
<path d="M128.257 95.1939L128.218 108.8L118.244 103.041L112.863 107.735L110.773 105.6L114.024 90.7092L128.257 95.1939Z" fill="#FFBE2E"/>
<path d="M128.218 108.977C128.188 108.977 128.157 108.969 128.129 108.953L118.264 103.258L112.979 107.869C112.909 107.931 112.802 107.926 112.736 107.859L110.646 105.723C110.605 105.681 110.587 105.62 110.6 105.562L113.851 90.6717C113.862 90.623 113.892 90.5812 113.936 90.5563C113.978 90.5315 114.03 90.5256 114.077 90.5408L128.31 95.0256C128.384 95.0488 128.433 95.1172 128.433 95.1945L128.395 108.8C128.395 108.864 128.361 108.922 128.306 108.954C128.279 108.969 128.248 108.977 128.218 108.977ZM118.243 102.864C118.274 102.864 118.304 102.872 118.332 102.888L128.042 108.494L128.079 95.3236L114.155 90.9362L110.966 105.544L112.872 107.492L118.127 102.908C118.16 102.879 118.202 102.864 118.243 102.864Z" fill="#3C2C0B"/>
<path d="M128.48 97.2969L128.589 120.711C128.593 122.07 129.487 123.427 131.274 124.466C134.863 126.551 140.699 126.551 144.311 124.466C146.125 123.418 147.032 122.042 147.028 120.668L146.919 97.2539C146.923 98.6281 146.016 100.004 144.202 101.051C140.59 103.137 134.754 103.137 131.165 101.051C129.378 100.013 128.484 98.6556 128.48 97.2969Z" fill="#3C2C0B"/>
<path d="M137.784 126.202C135.391 126.202 133.001 125.674 131.185 124.619C129.401 123.582 128.417 122.195 128.412 120.712L128.304 97.3071C128.304 97.3044 128.304 97.3016 128.304 97.2992V97.2978C128.304 97.2001 128.382 97.1207 128.48 97.1203H128.481C128.578 97.1203 128.657 97.1991 128.657 97.2965V97.3065C128.666 98.6545 129.588 99.93 131.254 100.898C134.787 102.952 140.556 102.952 144.114 100.898C145.812 99.9176 146.746 98.6238 146.742 97.255V97.2546C146.742 97.2546 146.742 97.2546 146.742 97.2543C146.742 97.1569 146.821 97.0775 146.919 97.0771H146.919C147.017 97.0771 147.095 97.1559 147.096 97.2533L147.205 120.668C147.209 122.169 146.213 123.572 144.399 124.619C142.572 125.674 140.177 126.202 137.784 126.202ZM128.664 98.8158L128.766 120.711C128.77 122.063 129.692 123.342 131.363 124.313C134.896 126.367 140.666 126.366 144.222 124.313C145.922 123.332 146.855 122.038 146.851 120.669L146.749 98.7637C146.314 99.6816 145.478 100.52 144.291 101.204C140.637 103.315 134.708 103.315 131.076 101.204C129.92 100.532 129.1 99.7128 128.664 98.8158Z" fill="#3C2C0B"/>
<path d="M157.657 86.6759C157.657 101.558 152.857 114.365 145.946 120.119C145.855 120.195 145.758 120.271 145.667 120.347C145.373 120.586 145.038 120.809 144.673 121.022C140.832 123.24 134.626 123.24 130.805 121.022C130.186 120.662 129.669 120.266 129.247 119.845C122.514 113.964 117.851 101.32 117.851 86.6759C117.851 71.7075 123.96 60.0626 129.405 52.6595C132.443 48.5335 135.275 45.7199 136.734 44.3766C137.316 43.8404 138.208 43.8406 138.79 44.3771C140.247 45.7212 143.077 48.5369 146.109 52.6697C151.558 60.0727 157.657 71.7125 157.657 86.6759Z" fill="#FFF7E4"/>
<path d="M137.731 122.856C135.188 122.856 132.647 122.296 130.716 121.175C130.098 120.816 129.562 120.41 129.122 119.97C122.171 113.9 117.674 100.828 117.674 86.6765C117.674 71.4975 123.976 59.743 129.263 52.5553C132.323 48.3982 135.183 45.5654 136.615 44.2467C137.268 43.6443 138.256 43.644 138.909 44.2478C140.341 45.5672 143.198 48.4027 146.251 52.5653C151.535 59.7441 157.834 71.4896 157.834 86.6765C157.834 101.119 153.212 114.3 146.059 120.255L145.78 120.484C145.492 120.717 145.159 120.943 144.762 121.175C142.82 122.296 140.274 122.856 137.731 122.856ZM137.761 44.1494C137.436 44.1494 137.112 44.2685 136.853 44.5069C135.431 45.8172 132.591 48.6318 129.547 52.765C124.293 59.91 118.028 71.5937 118.028 86.6766C118.028 100.731 122.477 113.698 129.363 119.712C129.791 120.139 130.303 120.526 130.894 120.87C134.657 123.054 140.799 123.054 144.584 120.87C144.965 120.647 145.283 120.431 145.556 120.211L145.833 119.984C152.908 114.093 157.48 101.019 157.48 86.6766C157.48 71.5854 151.218 59.911 145.966 52.775C142.93 48.636 140.092 45.8186 138.669 44.5075C138.41 44.2689 138.086 44.1494 137.761 44.1494Z" fill="#3C2C0B"/>
<path d="M137.705 84.4263C132.982 84.4263 128.267 83.3853 124.684 81.3029C121.167 79.2586 119.242 76.5325 119.264 73.6268C119.265 73.5298 119.343 73.4513 119.441 73.4513C119.441 73.4513 119.441 73.4513 119.442 73.4513C119.54 73.452 119.618 73.5318 119.618 73.6295C119.596 76.4026 121.459 79.0192 124.862 80.9968C131.931 85.1048 143.469 85.1048 150.583 80.9968C154.003 79.0219 155.888 76.4049 155.891 73.628C155.891 73.5303 155.97 73.4512 156.067 73.4512C156.166 73.4512 156.244 73.5306 156.244 73.628C156.242 76.5368 154.294 79.2623 150.76 81.3028C147.154 83.385 142.427 84.426 137.705 84.4263Z" fill="#3C2C0B"/>
<path d="M137.716 70.9386C134.031 70.9386 130.352 70.1263 127.556 68.5017C124.805 66.9029 123.299 64.7677 123.316 62.4895C123.317 62.3925 123.395 62.3141 123.493 62.3141C123.602 62.3054 123.67 62.3935 123.67 62.4923C123.654 64.6378 125.097 66.6635 127.734 68.1957C133.228 71.3884 142.195 71.3884 147.725 68.1957C150.376 66.665 151.837 64.6389 151.839 62.4909C151.839 62.3932 151.918 62.3141 152.015 62.3141C152.113 62.3141 152.192 62.3935 152.192 62.4909C152.191 64.7704 150.667 66.9052 147.902 68.5017C145.088 70.1259 141.4 70.9382 137.716 70.9386Z" fill="#3C2C0B"/>
<path d="M146.109 52.6697C143.902 54.6741 140.974 55.8917 137.762 55.8917C134.545 55.8917 131.612 54.6689 129.405 52.6595C132.443 48.5335 135.276 45.7199 136.734 44.3766C137.316 43.8404 138.208 43.8406 138.79 44.3771C140.248 45.7213 143.078 48.5369 146.109 52.6697Z" fill="#3C2C0B"/>
<path d="M137.761 56.0689C134.618 56.0689 131.607 54.9047 129.286 52.7908C129.219 52.7297 129.208 52.6282 129.262 52.5549C132.323 48.3982 135.182 45.5654 136.614 44.2467C137.268 43.6443 138.255 43.644 138.909 44.2478C140.341 45.5672 143.197 48.4027 146.25 52.5653C146.304 52.6385 146.294 52.7401 146.227 52.8008C143.907 54.9084 140.9 56.0689 137.761 56.0689ZM129.642 52.6358C131.882 54.6228 134.759 55.7152 137.761 55.7152C140.759 55.7152 143.632 54.6262 145.87 52.6455C142.871 48.5775 140.076 45.8051 138.669 44.5075C138.151 44.0303 137.371 44.0303 136.853 44.5069C135.446 45.8034 132.649 48.5734 129.642 52.6358Z" fill="#3C2C0B"/>
<path d="M144.507 104.577L147.367 102.914L161.579 114.851L158.718 116.514L144.507 104.577Z" fill="#3C2C0B"/>
<path d="M158.718 116.691C158.677 116.691 158.637 116.676 158.604 116.649L144.393 104.712C144.349 104.675 144.326 104.619 144.331 104.561C144.336 104.504 144.368 104.453 144.418 104.424L147.279 102.761C147.343 102.724 147.424 102.731 147.482 102.778L161.693 114.716C161.737 114.753 161.76 114.809 161.755 114.866C161.75 114.924 161.718 114.975 161.668 115.004L158.807 116.667C158.779 116.683 158.748 116.691 158.718 116.691ZM144.813 104.603L158.737 116.299L161.272 114.824L147.349 103.129L144.813 104.603Z" fill="#3C2C0B"/>
<path d="M158.718 116.513L161.579 114.851L164.735 133.441L161.874 135.103L158.718 116.513Z" fill="#212121"/>
<path d="M161.875 135.28C161.849 135.28 161.823 135.275 161.799 135.264C161.747 135.239 161.71 135.19 161.7 135.133L158.544 116.543C158.531 116.47 158.565 116.398 158.629 116.361L161.49 114.698C161.54 114.668 161.6 114.666 161.654 114.691C161.707 114.715 161.743 114.764 161.753 114.821L164.91 133.411C164.922 133.484 164.888 133.557 164.825 133.594L161.964 135.257C161.936 135.272 161.906 135.28 161.875 135.28ZM158.913 116.605L162.007 134.822L164.541 133.35L161.447 115.132L158.913 116.605Z" fill="#3C2C0B"/>
<path d="M144.506 104.577L158.717 116.514L161.874 135.105L159.779 134.823L154.442 123.942L144.468 118.183L144.506 104.577Z" fill="#FFBE2E"/>
<path d="M161.874 135.281C161.867 135.281 161.858 135.28 161.851 135.279L159.755 134.998C159.696 134.99 159.646 134.954 159.619 134.901L154.307 124.068L144.379 118.336C144.325 118.304 144.291 118.246 144.291 118.182L144.329 104.577C144.329 104.508 144.369 104.445 144.432 104.417C144.494 104.388 144.568 104.397 144.62 104.442L158.831 116.379C158.863 116.406 158.884 116.443 158.891 116.484L162.048 135.074C162.058 135.13 162.041 135.187 162.001 135.227C161.968 135.262 161.922 135.281 161.874 135.281ZM159.896 134.66L161.659 134.897L158.554 116.608L144.682 104.955L144.644 118.081L154.531 123.788C154.561 123.806 154.585 123.832 154.601 123.864L159.896 134.66Z" fill="#3C2C0B"/>
<path d="M131.001 104.577L128.14 102.914L113.929 114.851L116.79 116.514L131.001 104.577Z" fill="#3C2C0B"/>
<path d="M116.79 116.691C116.76 116.691 116.729 116.683 116.701 116.667L113.84 115.004C113.79 114.975 113.758 114.924 113.753 114.866C113.748 114.809 113.771 114.753 113.815 114.716L128.027 102.779C128.085 102.731 128.165 102.724 128.23 102.761L131.09 104.424C131.14 104.453 131.173 104.504 131.177 104.561C131.182 104.619 131.159 104.675 131.115 104.712L116.904 116.649C116.871 116.676 116.831 116.691 116.79 116.691ZM114.236 114.824L116.771 116.299L130.694 104.603L128.159 103.129L114.236 114.824Z" fill="#3C2C0B"/>
<path d="M116.79 116.514L113.929 114.851L110.773 133.441L113.634 135.104L116.79 116.514Z" fill="#212121"/>
<path d="M113.634 135.281C113.603 135.281 113.572 135.273 113.545 135.257L110.683 133.594C110.62 133.557 110.586 133.485 110.598 133.412L113.755 114.821C113.764 114.764 113.801 114.716 113.853 114.691C113.907 114.666 113.967 114.669 114.018 114.698L116.879 116.361C116.943 116.398 116.976 116.471 116.964 116.543L113.808 135.133C113.798 135.19 113.762 135.239 113.709 135.264C113.685 135.275 113.659 135.281 113.634 135.281ZM110.967 133.35L113.502 134.823L116.595 116.605L114.061 115.132L110.967 133.35Z" fill="#3C2C0B"/>
<path d="M131.001 104.577L116.79 116.514L113.634 135.105L115.729 134.823L121.065 123.942L131.04 118.183L131.001 104.577Z" fill="#FFBE2E"/>
<path d="M113.634 135.281C113.586 135.281 113.54 135.262 113.507 135.227C113.468 135.187 113.45 135.13 113.46 135.074L116.616 116.484C116.623 116.443 116.644 116.406 116.676 116.379L130.887 104.442C130.94 104.397 131.013 104.388 131.076 104.417C131.138 104.446 131.178 104.508 131.178 104.577L131.217 118.182C131.217 118.246 131.183 118.304 131.128 118.336L121.201 124.068L115.888 134.901C115.862 134.954 115.811 134.991 115.753 134.998L113.658 135.279C113.65 135.28 113.642 135.281 113.634 135.281ZM116.954 116.608L113.849 134.897L115.612 134.66L120.906 123.864C120.922 123.832 120.946 123.806 120.977 123.789L130.863 118.081L130.826 104.956L116.954 116.608Z" fill="#3C2C0B"/>
<path d="M151.594 81.9257C154.609 80.185 155.947 75.6295 154.577 71.7471C153.208 67.8698 149.651 66.1406 146.636 67.8813C143.621 69.6221 142.283 74.1776 143.652 78.0549C145.022 81.9373 148.579 83.6665 151.594 81.9257Z" fill="#FFBE2E"/>
<path d="M149.137 82.7783C148.56 82.7783 147.98 82.6754 147.417 82.4671C145.666 81.8203 144.233 80.2335 143.485 78.1139C142.092 74.1669 143.465 69.5077 146.548 67.7286C147.885 66.9567 149.399 66.8182 150.813 67.34C152.564 67.9869 153.996 69.5719 154.744 71.6887C156.138 75.6382 154.765 80.2995 151.682 82.0789C150.878 82.5434 150.009 82.7783 149.137 82.7783ZM149.094 67.3831C148.283 67.3831 147.474 67.6021 146.724 68.0345C143.782 69.7331 142.479 74.2016 143.818 77.9964C144.531 80.0161 145.888 81.5248 147.54 82.1354C148.851 82.6204 150.26 82.4912 151.505 81.7728C154.447 80.0742 155.751 75.6032 154.411 71.806C153.698 69.789 152.342 68.2821 150.691 67.6718C150.168 67.4788 149.63 67.3831 149.094 67.3831Z" fill="#3C2C0B"/>
<path d="M149.599 81.1537C148.903 81.5596 148.173 81.7515 147.455 81.757L149.172 81.7461C149.89 81.7405 150.62 81.5431 151.316 81.1428C153.998 79.596 155.188 75.5483 153.971 72.0983C153.066 69.5478 151.102 68.045 149.056 68.0614L147.373 68.0778C149.407 68.0778 151.355 69.5807 152.249 72.1147C153.466 75.5646 152.276 79.6069 149.599 81.1537Z" fill="#3C2C0B"/>
<path d="M147.455 81.9337C147.357 81.9337 147.278 81.8552 147.278 81.7582C147.277 81.6604 147.356 81.5807 147.453 81.58C148.167 81.5745 148.86 81.3796 149.51 81.0007C149.51 81.0004 149.511 81.0004 149.511 81.0004C152.115 79.4956 153.268 75.5357 152.082 72.1731C151.241 69.7926 149.393 68.2543 147.372 68.2543C147.275 68.2543 147.196 68.1756 147.196 68.0782C147.195 67.9812 147.274 67.9017 147.371 67.9007L149.054 67.8845C149.066 67.8845 149.078 67.8845 149.09 67.8845C151.262 67.8845 153.24 69.5113 154.137 72.0392C155.38 75.5579 154.154 79.7105 151.404 81.2958C150.692 81.7057 149.941 81.9168 149.173 81.9226L147.457 81.9337H147.456C147.455 81.9337 147.455 81.9337 147.455 81.9337ZM149.688 81.3065C149.518 81.4056 149.345 81.4934 149.169 81.569H149.17C149.877 81.5635 150.569 81.3683 151.228 80.9891C153.837 79.485 154.992 75.5231 153.804 72.1569C152.958 69.7727 151.11 68.2382 149.09 68.2382C149.08 68.2382 149.07 68.2382 149.061 68.2382C150.528 68.8392 151.763 70.2083 152.415 72.0557C153.656 75.5707 152.432 79.7208 149.688 81.3065Z" fill="#3C2C0B"/>
<path d="M140.467 78.9159C141.75 82.5579 144.558 84.7078 147.476 84.6859L149.144 84.6695C146.242 84.6695 143.467 82.525 142.183 78.8994C140.445 73.9795 142.139 68.204 145.968 65.9936C146.966 65.4178 148.003 65.1435 149.034 65.1326L147.312 65.1489C146.286 65.1545 145.244 65.4341 144.251 66.0101C140.423 68.2149 138.728 73.9961 140.467 78.9159Z" fill="#3C2C0B"/>
<path d="M147.432 84.8627C144.358 84.863 141.562 82.5565 140.3 78.9749C138.536 73.9841 140.269 68.0995 144.163 65.8566C145.165 65.2757 146.224 64.9779 147.312 64.972L149.032 64.9558H149.032H149.033C149.033 64.9558 149.034 64.9558 149.034 64.9558C149.131 64.9558 149.21 65.0339 149.211 65.131C149.212 65.2287 149.134 65.3085 149.036 65.3095H149.036H149.032C148.001 65.3209 146.999 65.6028 146.056 66.1467C142.305 68.313 140.642 74.0073 142.35 78.8402C143.565 82.2737 146.232 84.4924 149.143 84.4924C149.241 84.4924 149.32 84.5712 149.32 84.6682C149.321 84.7656 149.242 84.8451 149.145 84.8461L147.479 84.8627C147.463 84.8627 147.448 84.8627 147.432 84.8627ZM146.946 65.3394C146.05 65.4026 145.175 65.6786 144.34 66.1628C140.586 68.3249 138.924 74.0192 140.633 78.8568C140.633 78.8571 140.633 78.8571 140.633 78.8571C141.801 82.1693 144.316 84.3448 147.111 84.5003C144.888 83.7304 142.995 81.722 142.017 78.9583C140.255 73.972 141.987 68.0877 145.88 65.8406C146.228 65.6396 146.583 65.4725 146.946 65.3394Z" fill="#3C2C0B"/>
<path d="M156.044 70.8999C157.782 75.8219 156.084 81.6051 152.26 83.813C148.432 86.0228 143.921 83.8243 142.184 78.9023C140.446 73.9803 142.142 68.2036 145.97 65.9937C149.794 63.7858 154.307 65.9779 156.044 70.8999ZM151.317 81.1425C153.996 79.5958 155.185 75.5484 153.968 72.0988C152.752 68.6538 149.591 67.1173 146.912 68.664C144.233 70.2107 143.044 74.2582 144.26 77.7032C145.478 81.1527 148.638 82.6891 151.317 81.1425Z" fill="#212121"/>
<path d="M149.144 84.8471C148.417 84.8471 147.687 84.7172 146.979 84.4554C144.77 83.6389 142.962 81.6367 142.017 78.961C140.257 73.973 141.99 68.087 145.882 65.8406C147.566 64.8684 149.473 64.6936 151.253 65.3515C153.46 66.1674 155.268 68.1685 156.211 70.8411C157.973 75.8316 156.24 81.7193 152.348 83.9661C151.335 84.5511 150.242 84.8471 149.144 84.8471ZM149.088 65.3138C148.051 65.3138 147.017 65.5936 146.059 66.1466C142.308 68.3125 140.644 74.0083 142.35 78.8436C143.26 81.4195 144.991 83.344 147.102 84.1235C148.781 84.7446 150.58 84.5791 152.172 83.6601C155.923 81.4942 157.585 75.7964 155.878 70.9585C154.969 68.3855 153.239 66.4627 151.13 65.6835C150.462 65.4364 149.774 65.3138 149.088 65.3138ZM149.135 81.9196C148.619 81.9196 148.102 81.8278 147.6 81.642C146.038 81.0652 144.76 79.6509 144.094 77.7619C142.853 74.2466 144.078 70.0965 146.824 68.5111C148.017 67.8214 149.37 67.6985 150.631 68.1647C152.192 68.7415 153.469 70.1541 154.134 72.0402C155.376 75.5579 154.152 79.7099 151.406 81.2954C150.688 81.7099 149.913 81.9196 149.135 81.9196ZM149.096 68.2411C148.379 68.2411 147.664 68.4344 147.001 68.8171C144.395 70.3216 143.24 74.2814 144.427 77.6445C145.059 79.4336 146.26 80.7698 147.722 81.3104C148.885 81.74 150.129 81.625 151.229 80.9895C153.835 79.4848 154.989 75.5229 153.801 72.1578C153.171 70.3714 151.971 69.0368 150.508 68.4967C150.046 68.3256 149.57 68.2411 149.096 68.2411Z" fill="#212121"/>
<path d="M30.3517 162.915C23.0811 167.11 23.0428 173.915 30.2694 178.112C37.496 182.309 49.2473 182.308 56.5177 178.112C63.7916 173.915 63.8367 167.111 56.6101 162.914C49.3835 158.716 37.6255 158.718 30.3517 162.915Z" fill="#F5F4F4"/>
<path d="M62.9953 167.366C63.001 170.228 61.1109 173.09 57.3309 175.273C54.2413 177.06 50.3763 178.106 46.3701 178.422C44.729 178.553 43.0596 178.558 41.413 178.439C37.316 178.151 33.355 177.099 30.2143 175.272C26.5079 173.118 24.6518 170.301 24.6404 167.479L24.6292 160.32C24.6348 163.142 26.4909 165.958 30.2031 168.113C33.3437 169.934 37.3105 170.991 41.4131 171.28C43.0597 171.398 44.7234 171.393 46.3702 171.257C50.3708 170.94 54.2301 169.888 57.3141 168.113C61.0942 165.935 62.9842 163.079 62.9842 160.218L62.9953 167.366Z" fill="#212121"/>
<path d="M45.9957 171.813V178.978C44.3546 179.108 42.6853 179.114 41.0386 178.995V171.835C42.6853 171.954 44.3489 171.949 45.9957 171.813Z" fill="#FFBE2E"/>
<path d="M43.3791 179.249C38.4374 179.249 33.5025 178.161 29.7516 175.983C26.1099 173.868 24.0991 171.044 24.0901 168.034L24.0776 160.874V160.874C24.0776 160.776 24.1564 160.697 24.2538 160.696C24.2544 160.696 24.2544 160.696 24.2544 160.696C24.3518 160.696 24.4312 160.775 24.4312 160.873C24.4396 163.752 26.3875 166.467 29.9166 168.516C37.3189 172.815 49.4031 172.815 56.8538 168.516C60.4527 166.44 62.4317 163.691 62.4297 160.774V160.762C62.4297 160.761 62.4297 160.761 62.4297 160.761C62.4297 160.663 62.5085 160.584 62.6058 160.584C62.6066 160.584 62.6066 160.584 62.6066 160.584C62.704 160.584 62.7834 160.663 62.7834 160.76C62.7834 160.765 62.7834 160.77 62.7834 160.775L62.7966 167.92C62.8049 170.974 60.7615 173.837 57.0432 175.983C53.2696 178.16 48.321 179.249 43.3791 179.249ZM24.4348 163.033L24.4438 168.033C24.4521 170.913 26.4008 173.627 29.9298 175.677C37.3321 179.976 49.4157 179.975 56.8663 175.677C60.4701 173.597 62.4505 170.843 62.4429 167.921L62.4339 162.939C61.7038 165.159 59.8484 167.197 57.0308 168.822C49.4807 173.178 37.2388 173.178 29.7386 168.822C26.9845 167.222 25.1629 165.217 24.4348 163.033Z" fill="#3C2C0B"/>
<path d="M29.9132 152.971C22.4029 157.305 22.3632 164.334 29.8283 168.669C37.2933 173.005 49.4321 173.003 56.9424 168.669C64.4561 164.334 64.5027 157.305 57.0378 152.969C49.5727 148.634 37.4269 148.636 29.9132 152.971Z" fill="#3C2C0B"/>
<path d="M43.3666 172.089C38.4241 172.089 33.4893 171 29.7385 168.822C26.0836 166.699 24.0735 163.866 24.0776 160.845C24.0818 157.804 26.123 154.953 29.8241 152.818C37.3777 148.459 49.6242 148.459 57.1267 152.816C60.7788 154.937 62.7883 157.769 62.7834 160.788C62.7793 163.831 60.736 166.684 57.0308 168.822C53.2563 170.999 48.3077 172.089 43.3666 172.089ZM43.4965 149.897C38.6162 149.897 33.729 150.973 30.001 153.124C26.4138 155.194 24.4355 157.936 24.4312 160.845C24.4271 163.735 26.3751 166.459 29.9166 168.516C37.3189 172.815 49.4031 172.815 56.8538 168.516C60.4451 166.443 62.4255 163.699 62.4297 160.788C62.4338 157.899 60.4873 155.177 56.9485 153.122C53.2474 150.972 48.3754 149.897 43.4965 149.897Z" fill="#3C2C0B"/>
<path d="M30.3444 153.222C23.0738 157.417 23.0355 164.222 30.2621 168.419C37.4887 172.616 49.24 172.614 56.5105 168.419C63.7844 164.222 63.8294 157.417 56.6029 153.22C49.3762 149.023 37.6183 149.025 30.3444 153.222Z" fill="#FFBE2E"/>
<path d="M43.3697 171.735C38.584 171.735 33.8053 170.681 30.1733 168.572C26.6331 166.515 24.6858 163.771 24.6899 160.845C24.6941 157.899 26.6718 155.137 30.2562 153.069C37.5694 148.848 49.4278 148.849 56.6925 153.067C60.2299 155.122 62.1759 157.864 62.1717 160.789C62.1675 163.737 60.1884 166.501 56.5992 168.572C52.9451 170.68 48.154 171.735 43.3697 171.735ZM43.4947 150.252C38.7705 150.252 34.0415 151.293 30.4329 153.375C26.9618 155.378 25.0477 158.031 25.0436 160.845C25.0401 163.64 26.9245 166.276 30.3514 168.265C37.5153 172.427 49.2101 172.427 56.4223 168.266C59.8976 166.26 61.8137 163.605 61.8179 160.789C61.8221 157.995 59.9384 155.361 56.5142 153.373C52.932 151.292 48.2161 150.252 43.4947 150.252Z" fill="#3C2C0B"/>
<path d="M50.2618 164.787C49.426 165.269 49.4123 166.051 50.2473 166.536C51.0778 167.019 52.4386 167.019 53.2744 166.536C54.1102 166.054 54.1148 165.266 53.2843 164.784C52.4492 164.299 51.0976 164.304 50.2618 164.787Z" fill="#DBDEE4"/>
<path d="M33.5892 155.104C32.7538 155.586 32.7448 156.37 33.5793 156.855C34.4093 157.337 35.7694 157.337 36.6048 156.855C37.4402 156.373 37.4446 155.586 36.6147 155.104C35.78 154.619 34.4246 154.622 33.5892 155.104Z" fill="#DBDEE4"/>
<path d="M62.9953 157.08C63.001 159.942 61.1109 162.803 57.3309 164.986C54.2413 166.773 50.3763 167.82 46.3701 168.136C44.729 168.266 43.0596 168.272 41.413 168.153C37.316 167.865 33.355 166.813 30.2143 164.986C26.5079 162.832 24.6518 160.015 24.6404 157.193L24.6292 150.033C24.6348 152.855 26.4909 155.672 30.2031 157.826C33.3437 159.647 37.3105 160.705 41.4131 160.994C43.0597 161.112 44.7234 161.107 46.3702 160.971C50.3708 160.654 54.2301 159.602 57.3141 157.826C61.0942 155.649 62.9842 152.793 62.9842 149.932L62.9953 157.08Z" fill="#212121"/>
<path d="M45.9957 161.526V168.691C44.3546 168.822 42.6853 168.827 41.0386 168.708V161.549C42.6853 161.667 44.3489 161.662 45.9957 161.526Z" fill="#FFBE2E"/>
<path d="M43.3791 168.963C38.4367 168.963 33.5018 167.874 29.7516 165.696C26.1099 163.581 24.0991 160.758 24.0901 157.747L24.0776 150.587V150.587C24.0776 150.489 24.1564 150.41 24.2538 150.409C24.2544 150.409 24.2544 150.409 24.2544 150.409C24.3518 150.409 24.4312 150.488 24.4312 150.586C24.4396 153.465 26.3875 156.18 29.9166 158.229C37.3189 162.529 49.4031 162.529 56.8538 158.229C60.4527 156.153 62.4317 153.404 62.4297 150.488V150.475C62.4297 150.474 62.4297 150.474 62.4297 150.474C62.4297 150.376 62.5085 150.297 62.6058 150.297C62.6066 150.297 62.6066 150.297 62.6066 150.297C62.704 150.297 62.7834 150.376 62.7834 150.473C62.7834 150.478 62.7834 150.483 62.7834 150.488L62.7966 157.634C62.8049 160.687 60.7615 163.551 57.0432 165.696C53.2689 167.874 48.3202 168.963 43.3791 168.963ZM24.4348 152.746L24.4438 157.746C24.4521 160.626 26.4008 163.34 29.9298 165.39C37.3308 169.689 49.4157 169.688 56.8663 165.39C60.4701 163.31 62.4505 160.556 62.4429 157.635L62.4339 152.652C61.7038 154.872 59.8484 156.91 57.0308 158.535C49.4807 162.891 37.2388 162.891 29.7386 158.535C26.9845 156.935 25.1629 154.931 24.4348 152.746Z" fill="#3C2C0B"/>
<path d="M29.9132 142.684C22.4029 147.018 22.3632 154.047 29.8283 158.382C37.2933 162.718 49.4321 162.716 56.9424 158.383C64.4561 154.047 64.5027 147.018 57.0378 142.682C49.5727 138.347 37.4269 138.349 29.9132 142.684Z" fill="#3C2C0B"/>
<path d="M43.3666 161.802C38.4241 161.803 33.4893 160.714 29.7385 158.536C26.0836 156.413 24.0735 153.58 24.0776 150.559C24.0818 147.518 26.123 144.667 29.8241 142.532C37.3777 138.173 49.6242 138.173 57.1267 142.53C60.7788 144.651 62.7883 147.482 62.7834 150.502C62.7793 153.545 60.736 156.398 57.0308 158.536C53.2563 160.713 48.3077 161.802 43.3666 161.802ZM30.001 142.838C26.4138 144.908 24.4355 147.65 24.4312 150.559C24.4271 153.449 26.3751 156.173 29.9166 158.23C37.3189 162.529 49.4031 162.529 56.8538 158.23C60.4451 156.157 62.4255 153.413 62.4297 150.501C62.4338 147.613 60.4873 144.891 56.9485 142.836C49.5442 138.535 37.455 138.536 30.001 142.838Z" fill="#3C2C0B"/>
<path d="M30.3444 142.935C23.0738 147.13 23.0355 153.935 30.2621 158.132C37.4887 162.329 49.24 162.327 56.5105 158.132C63.7844 153.935 63.8294 147.13 56.6029 142.933C49.3762 138.736 37.6183 138.738 30.3444 142.935Z" fill="#FFBE2E"/>
<path d="M43.369 161.448C38.5834 161.448 33.8054 160.394 30.1733 158.285C26.6331 156.228 24.6858 153.484 24.6899 150.558C24.6941 147.612 26.6711 144.85 30.2562 142.781C37.5694 138.562 49.4278 138.562 56.6925 142.78C60.2299 144.834 62.1759 147.577 62.1717 150.502C62.1675 153.45 60.1884 156.214 56.5992 158.285C52.9451 160.393 48.1533 161.448 43.369 161.448ZM30.433 143.088C26.9619 145.091 25.0478 147.744 25.0437 150.558C25.0402 153.353 26.9246 155.989 30.3515 157.979C37.5154 162.14 49.2116 162.139 56.4225 157.979C59.8977 155.973 61.8138 153.318 61.8181 150.502C61.8222 147.708 59.9385 145.074 56.5143 143.086C49.349 138.924 37.6481 138.925 30.433 143.088Z" fill="#3C2C0B"/>
<path d="M53.0187 145.286C53.5004 145.564 53.503 146.01 53.0244 146.289L52.2237 146.754C53.6983 148.067 53.4534 149.839 51.4768 150.987C51.0011 151.264 50.2246 151.264 49.7458 150.987C49.2669 150.711 49.2644 150.261 49.7401 149.985C51.0549 149.221 51.0478 147.971 49.7185 147.204C48.3952 146.44 46.2373 146.44 44.9226 147.204C43.6019 147.971 43.6089 149.221 44.9323 149.985C47.2221 151.306 47.2341 153.452 44.9622 154.772C42.9856 155.921 39.9245 156.07 37.6551 155.219L36.8515 155.686C36.3729 155.964 35.6022 155.964 35.1205 155.686C34.6416 155.409 34.6361 154.961 35.1148 154.683L35.9184 154.216C34.4497 152.903 34.6977 151.133 36.6712 149.986C37.1439 149.712 37.9234 149.71 38.4022 149.986C38.8811 150.263 38.8806 150.714 38.4079 150.989C37.0903 151.755 37.0972 152.998 38.4205 153.768C39.7558 154.539 41.9077 154.536 43.2254 153.77C44.543 153.004 44.5421 151.758 43.2128 150.991C40.923 149.669 40.9109 147.523 43.1858 146.201C45.1564 145.056 48.2205 144.905 50.4869 145.751L51.2875 145.286C51.7663 145.008 52.54 145.01 53.0187 145.286Z" fill="#212121"/>
<line x1="25.0895" y1="148.868" x2="62.4123" y2="152.423" stroke="#3C2C0B" stroke-width="0.888639"/>
<defs>
<linearGradient id="paint0_linear_2671_77268" x1="137.755" y1="116.928" x2="137.755" y2="145.591" gradientUnits="userSpaceOnUse">
<stop offset="0.0334" stop-color="#FFBE2E"/>
<stop offset="0.1595" stop-color="#FFBE2E"/>
<stop offset="0.3921" stop-color="#FFBE2E"/>
<stop offset="0.7026" stop-color="#EED498"/>
<stop offset="1" stop-color="white"/>
</linearGradient>
</defs>
</svg>
