<svg width="56" height="56" viewBox="0 0 56 56" fill="none" xmlns="http://www.w3.org/2000/svg">
<g clip-path="url(#clip0_3521_3908)">
<path d="M16.8184 6.26891C22.99 0.0978632 33.01 0.0978632 39.1817 6.26891" stroke="black" stroke-width="2" strokeMiterlimit="10" stroke-linecap="round" stroke-linejoin="round"/>
<path d="M26.7598 16.2098C27.4442 15.5251 28.5566 15.5251 29.241 16.2098" stroke="black" stroke-width="2" strokeMiterlimit="10" stroke-linecap="round" stroke-linejoin="round"/>
<path d="M21.7891 11.2393C25.2175 7.8115 30.7829 7.8115 34.2113 11.2393" stroke="black" stroke-width="2" strokeMiterlimit="10" stroke-linecap="round" stroke-linejoin="round"/>
<path d="M24.4859 26.2427H3.39844V47.3302H24.4859V26.2427Z" stroke="black" stroke-width="2" strokeMiterlimit="10" stroke-linecap="round" stroke-linejoin="round"/>
<path d="M52.6022 26.2427H31.5146V47.3302H52.6022V26.2427Z" stroke="black" stroke-width="2" strokeMiterlimit="10" stroke-linecap="round" stroke-linejoin="round"/>
<path d="M5.15527 47.3301H50.8449" stroke="black" stroke-width="2" strokeMiterlimit="10" stroke-linecap="round" stroke-linejoin="round"/>
<path d="M5.15527 54.3594H50.8449" stroke="black" stroke-width="2" strokeMiterlimit="10" stroke-linecap="round" stroke-linejoin="round"/>
<path d="M17.456 26.2427H10.4268V33.2719H17.456V26.2427Z" stroke="black" stroke-width="2" strokeMiterlimit="10" stroke-linecap="round" stroke-linejoin="round"/>
<path d="M45.5731 26.2427H38.5439V33.2719H45.5731V26.2427Z" stroke="black" stroke-width="2" strokeMiterlimit="10" stroke-linecap="round" stroke-linejoin="round"/>
<path d="M5.15517 54.3592C7.0962 54.3592 8.66972 52.7857 8.66972 50.8446C8.66972 48.9036 7.0962 47.3301 5.15517 47.3301C3.21414 47.3301 1.64062 48.9036 1.64062 50.8446C1.64062 52.7857 3.21414 54.3592 5.15517 54.3592Z" stroke="black" stroke-width="2" strokeMiterlimit="10" stroke-linecap="round" stroke-linejoin="round"/>
<path d="M50.8446 54.3592C52.7857 54.3592 54.3592 52.7857 54.3592 50.8446C54.3592 48.9036 52.7857 47.3301 50.8446 47.3301C48.9036 47.3301 47.3301 48.9036 47.3301 50.8446C47.3301 52.7857 48.9036 54.3592 50.8446 54.3592Z" stroke="black" stroke-width="2" strokeMiterlimit="10" stroke-linecap="round" stroke-linejoin="round"/>
</g>
<defs>
<clipPath id="clip0_3521_3908">
<rect width="56" height="56" fill="white"/>
</clipPath>
</defs>
</svg>
