<svg width="80" height="121" viewBox="0 0 80 121" fill="none" xmlns="http://www.w3.org/2000/svg">
<rect width="80" height="68" fill="url(#paint0_linear_5667_19661)"/>
<path d="M72 104.5H8C5.79086 104.5 4 102.71 4 100.5V81.4236C4 79.2144 5.79086 77.4236 8 77.4236H11.1385C12.4979 77.4236 13.6 76.3215 13.6 74.962C13.6 73.6026 14.7021 72.5005 16.0615 72.5005H63.9385C65.2979 72.5005 66.4 73.6026 66.4 74.962C66.4 76.3215 67.5021 77.4236 68.8615 77.4236H72C74.2091 77.4236 76 79.2144 76 81.4236V100.5C76 102.71 74.2091 104.5 72 104.5Z" fill="#FFBE2E"/>
<path fill-rule="evenodd" clip-rule="evenodd" d="M39.5136 45.2651C40.0874 45.2651 40.5624 44.7954 40.5624 44.2163V37.4989H43.8346V44.2162C43.8346 44.7952 44.3098 45.265 44.8834 45.265H48.4693L42.2029 54.8877L35.9275 45.265L39.5136 45.2651ZM41.3245 57.3811C41.7255 58.0131 42.664 58.0157 43.0816 57.3811L51.2843 44.7883C51.7283 44.1011 51.2357 43.1683 50.4058 43.1683H45.9323V36.4501C45.9323 35.8719 45.4663 35.4021 44.8835 35.4021H39.5136C38.9309 35.4021 38.4648 35.8719 38.4648 36.4501V43.1683H34.0003C33.1735 43.1683 32.6586 44.0863 33.1218 44.7883L41.3245 57.3811ZM68.0128 76.0943L54.7719 89.6679C54.5426 89.9031 54.4703 90.0896 53.9739 90.2595C53.4271 90.4335 52.8085 90.5347 52.1362 90.5589L35.5872 91.268C34.6045 91.305 33.6488 91.7416 33.2384 92.0112L32.073 92.784L29.0877 94.4247L22.0773 84.8896C25.3584 82.0685 29.0071 79.4821 33.9557 79.4642L48.8373 79.405C50.0331 79.405 51.9362 81.4927 50.5227 82.9605C50.1013 83.3979 49.5546 83.6373 49.2498 83.6408L41.4415 83.7117C40.8587 83.717 40.3927 84.1904 40.4015 84.7695C40.4059 85.3547 40.8803 85.8111 41.4592 85.8085L49.2765 85.7376C50.7843 85.7219 52.4869 84.4491 52.9699 82.8501C53.7231 82.7362 54.476 82.4135 55.229 81.8899L67.1163 73.7731C67.5018 73.7122 68.0397 73.7211 68.3176 74.1523C68.5775 74.5496 68.5864 75.2991 68.0128 76.0943ZM27.8594 97.6528C28.2179 97.3893 28.2986 96.8835 28.0298 96.5259L19.3429 84.7095C19.085 84.3583 18.577 84.2731 18.2223 84.5383L11.8394 89.2314C11.4696 89.4976 11.4087 90.0151 11.66 90.3583L20.3559 102.175C20.6227 102.538 21.1274 102.604 21.4765 102.346L27.8594 97.6528ZM28.209 63.7183V78.4456C29.9392 77.7805 31.8307 77.3744 33.9464 77.3672L48.8011 77.308C50.672 77.3043 52.4442 78.8791 52.9787 80.7056C53.3104 80.6053 53.66 80.425 54.0367 80.1642L56.1882 78.6967V63.7183C56.1882 62.8531 55.48 62.1485 54.6194 62.1485H47.824V69.1715C47.824 70.189 46.9903 71.0165 45.9773 71.0165H38.429C37.4071 71.0165 36.5823 70.189 36.5823 69.1715V62.1485H29.7869C28.9173 62.1487 28.209 62.8531 28.209 63.7183ZM38.6799 62.1487H45.7261V68.9197H38.6799V62.1487ZM70.0746 73.0032C69.3304 71.8728 67.9858 71.4111 66.4618 71.7671C66.3362 71.7967 66.2197 71.8487 66.1122 71.9213L58.2859 77.2653V63.7186C58.2859 61.697 56.6363 60.052 54.6194 60.052H29.7869C27.7608 60.052 26.1203 61.6971 26.1203 63.7186V79.4151C24.184 80.4613 22.4538 81.8069 20.8221 83.209C19.8125 82.1368 18.1712 81.9731 16.9762 82.8487L10.5933 87.5418C9.30594 88.4919 9.02658 90.3091 9.97474 91.6002L18.6616 103.417C19.6123 104.711 21.4387 104.979 22.7227 104.036L29.1056 99.3423C30.1007 98.608 30.4952 97.3503 30.1725 96.2208L33.1219 94.6018L34.377 93.777C34.8074 93.5304 35.2824 93.3771 35.6589 93.3637L52.2258 92.6546C53.1864 92.616 53.8431 92.4912 54.6731 92.2376C55.3813 91.9803 55.9192 91.6021 56.3227 91.0829L69.5727 77.5058C69.5995 77.4727 69.6264 77.4368 69.6623 77.4C70.7202 75.9687 70.8904 74.2429 70.0746 73.0032Z" fill="black"/>
<defs>
<linearGradient id="paint0_linear_5667_19661" x1="40" y1="-28.5" x2="15.8932" y2="58.5406" gradientUnits="userSpaceOnUse">
<stop stop-color="#FFBE2E" stop-opacity="0.75"/>
<stop offset="1" stop-color="white"/>
</linearGradient>
</defs>
</svg>
