<svg width="105" height="105" viewBox="0 0 105 105" fill="none" xmlns="http://www.w3.org/2000/svg">
<path d="M66.7364 19.4987C66.458 19.4987 66.1909 19.3881 65.994 19.1912C65.7971 18.9943 65.6864 18.7272 65.6864 18.4487V8.90423C65.6885 8.58848 65.5739 8.28309 65.3646 8.04667C65.1553 7.81025 64.8661 7.65945 64.5524 7.62323L27.2985 3.15023C27.1166 3.12767 26.932 3.1444 26.7572 3.19927C26.5824 3.25414 26.4213 3.34587 26.285 3.46829C26.1487 3.59071 26.0402 3.74095 25.9668 3.90888C25.8935 4.0768 25.8571 4.25851 25.8599 4.44173V13.4192C25.8599 13.6977 25.7493 13.9648 25.5524 14.1617C25.3555 14.3586 25.0884 14.4692 24.8099 14.4692C24.5315 14.4692 24.2644 14.3586 24.0675 14.1617C23.8706 13.9648 23.7599 13.6977 23.7599 13.4192V4.45223C23.7549 3.96931 23.8531 3.4909 24.0479 3.04898C24.2427 2.60707 24.5296 2.21185 24.8894 1.88977C25.2493 1.56769 25.6738 1.32618 26.1345 1.18139C26.5952 1.03661 27.0815 0.991889 27.561 1.05023L64.8044 5.53373C65.6267 5.63602 66.3833 6.03488 66.9324 6.65545C67.4814 7.27602 67.7851 8.07564 67.7864 8.90423V18.4487C67.7864 18.7272 67.6758 18.9943 67.4789 19.1912C67.282 19.3881 67.0149 19.4987 66.7364 19.4987Z" fill="#FFBE2E"/>
<path d="M63.5897 89.9322H18.7967C18.5182 89.9322 18.2511 89.8216 18.0542 89.6247C17.8573 89.4277 17.7467 89.1607 17.7467 88.8822V14.0802C17.739 13.7201 17.8093 13.3626 17.9528 13.0322C18.0962 12.7019 18.3093 12.4064 18.5776 12.166C18.8458 11.9257 19.1628 11.7462 19.5069 11.6398C19.851 11.5334 20.2141 11.5027 20.5712 11.5497L71.6432 18.1962C72.2472 18.2752 72.8019 18.5713 73.2038 19.0292C73.6056 19.487 73.8272 20.0755 73.8271 20.6847V74.1822C73.8271 74.4607 73.7165 74.7277 73.5196 74.9247C73.3227 75.1216 73.0556 75.2322 72.7771 75.2322C72.4987 75.2322 72.2316 75.1216 72.0347 74.9247C71.8378 74.7277 71.7271 74.4607 71.7271 74.1822V20.7267C71.7258 20.6272 71.6892 20.5314 71.6238 20.4564C71.5584 20.3814 71.4685 20.3321 71.3702 20.3172L20.2982 13.6497C20.2419 13.6407 20.1844 13.6445 20.1298 13.6609C20.0753 13.6772 20.0251 13.7057 19.9832 13.7442C19.9384 13.7832 19.9029 13.8318 19.8793 13.8863C19.8557 13.9407 19.8445 13.9998 19.8467 14.0592V87.8322H63.5897C63.8681 87.8322 64.1352 87.9428 64.3321 88.1397C64.529 88.3366 64.6397 88.6037 64.6397 88.8822C64.6397 89.1607 64.529 89.4277 64.3321 89.6247C64.1352 89.8216 63.8681 89.9322 63.5897 89.9322Z" fill="#FFBE2E"/>
<path d="M34.0095 36.005H29.085C28.7132 36.0064 28.3448 35.9344 28.0009 35.793C27.657 35.6517 27.3444 35.4439 27.081 35.1815C26.8176 34.9191 26.6086 34.6072 26.466 34.2638C26.3234 33.9205 26.25 33.5523 26.25 33.1805V28.9805C26.2486 28.6078 26.321 28.2386 26.463 27.894C26.605 27.5494 26.8137 27.2363 27.0773 26.9728C27.3408 26.7093 27.6539 26.5005 27.9985 26.3585C28.3431 26.2165 28.7123 26.1441 29.085 26.1455H34.0095C34.7568 26.1483 35.4725 26.4471 36 26.9765C36.5274 27.5059 36.8235 28.2227 36.8235 28.97V33.17C36.8249 33.5409 36.7532 33.9085 36.6125 34.2517C36.4719 34.5949 36.265 34.9071 36.0037 35.1703C35.7424 35.4336 35.4318 35.6428 35.0896 35.786C34.7475 35.9292 34.3804 36.0037 34.0095 36.005ZM29.085 28.2455C28.8947 28.2483 28.7131 28.3258 28.5795 28.4614C28.4459 28.597 28.371 28.7797 28.371 28.97V33.17C28.371 33.3604 28.4459 33.5431 28.5795 33.6786C28.7131 33.8142 28.8947 33.8918 29.085 33.8945H34.0095C34.1042 33.8945 34.1979 33.8757 34.2852 33.8392C34.3725 33.8027 34.4517 33.7491 34.5181 33.6817C34.5846 33.6143 34.637 33.5343 34.6722 33.4465C34.7075 33.3586 34.7249 33.2647 34.7235 33.17V28.97C34.7249 28.8754 34.7075 28.7814 34.6722 28.6936C34.637 28.6057 34.5846 28.5258 34.5181 28.4584C34.4517 28.3909 34.3725 28.3374 34.2852 28.3009C34.1979 28.2643 34.1042 28.2455 34.0095 28.2455H29.085Z" fill="#FFBE2E"/>
<path d="M48.2378 36.0043H43.3133C42.5678 35.9987 41.8548 35.6987 41.3296 35.1696C40.8044 34.6405 40.5097 33.9253 40.5098 33.1798V28.9798C40.5097 28.2343 40.8044 27.519 41.3296 26.9899C41.8548 26.4608 42.5678 26.1608 43.3133 26.1553H48.2378C48.985 26.1581 49.7008 26.4569 50.2282 26.9863C50.7556 27.5157 51.0518 28.2325 51.0518 28.9798V33.1798C51.0518 33.9271 50.7556 34.6439 50.2282 35.1733C49.7008 35.7027 48.985 36.0015 48.2378 36.0043ZM43.3133 28.2448C43.2195 28.2461 43.1269 28.266 43.0408 28.3031C42.9547 28.3403 42.8768 28.394 42.8114 28.4613C42.7461 28.5286 42.6947 28.6081 42.6601 28.6952C42.6255 28.7824 42.6084 28.8755 42.6098 28.9693V33.1693C42.6084 33.263 42.6255 33.3562 42.6601 33.4433C42.6947 33.5305 42.7461 33.61 42.8114 33.6772C42.8768 33.7445 42.9547 33.7983 43.0408 33.8354C43.1269 33.8726 43.2195 33.8924 43.3133 33.8938H48.2378C48.3324 33.8938 48.4261 33.875 48.5134 33.8384C48.6008 33.8019 48.6799 33.7484 48.7464 33.6809C48.8128 33.6135 48.8652 33.5336 48.9005 33.4457C48.9357 33.3579 48.9532 33.2639 48.9518 33.1693V28.9693C48.9532 28.8746 48.9357 28.7807 48.9005 28.6928C48.8652 28.605 48.8128 28.525 48.7464 28.4576C48.6799 28.3902 48.6008 28.3366 48.5134 28.3001C48.4261 28.2636 48.3324 28.2448 48.2378 28.2448H43.3133Z" fill="#FFBE2E"/>
<path d="M62.4768 36.0043H57.5523C56.805 36.0015 56.0893 35.7027 55.5618 35.1733C55.0344 34.6439 54.7383 33.9271 54.7383 33.1798V28.9798C54.7383 28.2325 55.0344 27.5157 55.5618 26.9863C56.0893 26.4569 56.805 26.1581 57.5523 26.1553H62.4768C63.2232 26.1608 63.9373 26.4605 64.4642 26.9893C64.991 27.5181 65.288 28.2333 65.2908 28.9798V33.1798C65.288 33.9262 64.991 34.6415 64.4642 35.1703C63.9373 35.6991 63.2232 35.9987 62.4768 36.0043ZM57.5523 28.2448C57.4576 28.2448 57.3639 28.2636 57.2766 28.3001C57.1893 28.3366 57.1101 28.3902 57.0437 28.4576C56.9772 28.525 56.9248 28.605 56.8896 28.6928C56.8543 28.7807 56.8369 28.8746 56.8383 28.9693V33.1693C56.8369 33.2639 56.8543 33.3579 56.8896 33.4457C56.9248 33.5336 56.9772 33.6135 57.0437 33.6809C57.1101 33.7484 57.1893 33.8019 57.2766 33.8384C57.3639 33.875 57.4576 33.8938 57.5523 33.8938H62.4768C62.6671 33.891 62.8487 33.8135 62.9823 33.6779C63.1159 33.5423 63.1908 33.3596 63.1908 33.1693V28.9693C63.1908 28.7789 63.1159 28.5962 62.9823 28.4607C62.8487 28.3251 62.6671 28.2475 62.4768 28.2448H57.5523Z" fill="#FFBE2E"/>
<path d="M34.0095 49.9486H29.085C28.7132 49.95 28.3448 49.878 28.0009 49.7366C27.657 49.5953 27.3444 49.3875 27.081 49.1251C26.8176 48.8626 26.6086 48.5508 26.466 48.2074C26.3234 47.8641 26.25 47.4959 26.25 47.1241V42.9241C26.25 42.1768 26.5461 41.46 27.0736 40.9306C27.601 40.4012 28.3167 40.1024 29.064 40.0996H33.9885C34.7358 40.1024 35.4515 40.4012 35.9789 40.9306C36.5064 41.46 36.8025 42.1768 36.8025 42.9241V47.1241C36.8025 47.8678 36.5093 48.5815 35.9864 49.1103C35.4635 49.6391 34.7531 49.9403 34.0095 49.9486ZM29.085 42.1891C28.8947 42.1919 28.7131 42.2694 28.5795 42.405C28.4459 42.5406 28.371 42.7233 28.371 42.9136V47.1136C28.371 47.304 28.4459 47.4867 28.5795 47.6222C28.7131 47.7578 28.8947 47.8354 29.085 47.8381H34.0095C34.1042 47.8381 34.1979 47.8193 34.2852 47.7828C34.3725 47.7462 34.4517 47.6927 34.5181 47.6253C34.5846 47.5579 34.6369 47.4779 34.6722 47.3901C34.7075 47.3022 34.7249 47.2083 34.7235 47.1136V42.9136C34.7249 42.819 34.7075 42.725 34.6722 42.6372C34.6369 42.5493 34.5846 42.4694 34.5181 42.4019C34.4517 42.3345 34.3725 42.281 34.2852 42.2444C34.1979 42.2079 34.1042 42.1891 34.0095 42.1891H29.085Z" fill="#FFBE2E"/>
<path d="M48.2378 49.9486H43.3133C42.5678 49.9431 41.8548 49.643 41.3296 49.1139C40.8044 48.5848 40.5097 47.8696 40.5098 47.1241V42.9241C40.5097 42.1786 40.8044 41.4634 41.3296 40.9343C41.8548 40.4052 42.5678 40.1052 43.3133 40.0996H48.2378C48.985 40.1024 49.7008 40.4012 50.2282 40.9306C50.7556 41.46 51.0518 42.1768 51.0518 42.9241V47.1241C51.0518 47.8714 50.7556 48.5882 50.2282 49.1176C49.7008 49.647 48.985 49.9458 48.2378 49.9486ZM43.3133 42.1891C43.2195 42.1905 43.1269 42.2103 43.0408 42.2475C42.9547 42.2846 42.8768 42.3384 42.8114 42.4056C42.7461 42.4729 42.6947 42.5524 42.6601 42.6396C42.6255 42.7267 42.6084 42.8198 42.6098 42.9136V47.1136C42.6084 47.2074 42.6255 47.3005 42.6601 47.3877C42.6947 47.4748 42.7461 47.5543 42.8114 47.6216C42.8768 47.6889 42.9547 47.7426 43.0408 47.7798C43.1269 47.8169 43.2195 47.8367 43.3133 47.8381H48.2378C48.3324 47.8381 48.4261 47.8193 48.5134 47.7828C48.6008 47.7462 48.6799 47.6927 48.7464 47.6253C48.8128 47.5579 48.8652 47.4779 48.9005 47.3901C48.9357 47.3022 48.9532 47.2083 48.9518 47.1136V42.9136C48.9532 42.819 48.9357 42.725 48.9005 42.6372C48.8652 42.5493 48.8128 42.4694 48.7464 42.4019C48.6799 42.3345 48.6008 42.281 48.5134 42.2444C48.4261 42.2079 48.3324 42.1891 48.2378 42.1891H43.3133Z" fill="#FFBE2E"/>
<path d="M62.4768 49.9486H57.5523C56.805 49.9458 56.0893 49.647 55.5618 49.1176C55.0344 48.5882 54.7383 47.8714 54.7383 47.1241V42.9241C54.7383 42.1768 55.0344 41.46 55.5618 40.9306C56.0893 40.4012 56.805 40.1024 57.5523 40.0996H62.4768C63.2232 40.1051 63.9373 40.4048 64.4642 40.9336C64.991 41.4624 65.288 42.1777 65.2908 42.9241V47.1241C65.288 47.8706 64.991 48.5858 64.4642 49.1146C63.9373 49.6434 63.2232 49.9431 62.4768 49.9486ZM57.5523 42.1891C57.4576 42.1891 57.3639 42.2079 57.2766 42.2444C57.1893 42.281 57.1101 42.3345 57.0437 42.4019C56.9772 42.4694 56.9248 42.5493 56.8896 42.6372C56.8543 42.725 56.8369 42.819 56.8383 42.9136V47.1136C56.8369 47.2083 56.8543 47.3022 56.8896 47.3901C56.9248 47.4779 56.9772 47.5579 57.0437 47.6253C57.1101 47.6927 57.1893 47.7462 57.2766 47.7828C57.3639 47.8193 57.4576 47.8381 57.5523 47.8381H62.4768C62.6671 47.8354 62.8487 47.7578 62.9823 47.6222C63.1159 47.4867 63.1908 47.304 63.1908 47.1136V42.9136C63.1908 42.7233 63.1159 42.5406 62.9823 42.405C62.8487 42.2694 62.6671 42.1919 62.4768 42.1891H57.5523Z" fill="#FFBE2E"/>
<path d="M34.0095 63.892H29.085C28.7132 63.8933 28.3448 63.8213 28.0009 63.68C27.657 63.5387 27.3444 63.3308 27.081 63.0684C26.8176 62.806 26.6086 62.4942 26.466 62.1508C26.3234 61.8074 26.25 61.4393 26.25 61.0675V56.8675C26.25 56.1202 26.5461 55.4033 27.0736 54.8739C27.601 54.3446 28.3167 54.0457 29.064 54.043H33.9885C34.7358 54.0457 35.4515 54.3446 35.9789 54.8739C36.5064 55.4033 36.8025 56.1202 36.8025 56.8675V61.0675C36.8025 61.8111 36.5093 62.5248 35.9864 63.0536C35.4635 63.5824 34.7531 63.8837 34.0095 63.892ZM29.085 56.1325C28.8947 56.1352 28.7131 56.2128 28.5795 56.3483C28.4459 56.4839 28.371 56.6666 28.371 56.857V61.057C28.371 61.2473 28.4459 61.43 28.5795 61.5656C28.7131 61.7012 28.8947 61.7787 29.085 61.7815H34.0095C34.1042 61.7815 34.1979 61.7627 34.2852 61.7261C34.3725 61.6896 34.4517 61.6361 34.5181 61.5686C34.5846 61.5012 34.6369 61.4213 34.6722 61.3334C34.7075 61.2456 34.7249 61.1516 34.7235 61.057V56.857C34.7249 56.7623 34.7075 56.6683 34.6722 56.5805C34.6369 56.4927 34.5846 56.4127 34.5181 56.3453C34.4517 56.2779 34.3725 56.2243 34.2852 56.1878C34.1979 56.1513 34.1042 56.1325 34.0095 56.1325H29.085Z" fill="#FFBE2E"/>
<path d="M48.2378 63.892H43.3133C42.5678 63.8864 41.8548 63.5864 41.3296 63.0573C40.8044 62.5282 40.5097 61.8129 40.5098 61.0675V56.8675C40.5097 56.122 40.8044 55.4067 41.3296 54.8776C41.8548 54.3485 42.5678 54.0485 43.3133 54.043H48.2378C48.985 54.0457 49.7008 54.3446 50.2282 54.8739C50.7556 55.4033 51.0518 56.1202 51.0518 56.8675V61.0675C51.0518 61.8148 50.7556 62.5316 50.2282 63.061C49.7008 63.5904 48.985 63.8892 48.2378 63.892ZM43.3133 56.1325C43.2195 56.1338 43.1269 56.1537 43.0408 56.1908C42.9547 56.228 42.8768 56.2817 42.8114 56.349C42.7461 56.4163 42.6947 56.4958 42.6601 56.5829C42.6255 56.6701 42.6084 56.7632 42.6098 56.857V61.057C42.6084 61.1507 42.6255 61.2439 42.6601 61.331C42.6947 61.4182 42.7461 61.4977 42.8114 61.5649C42.8768 61.6322 42.9547 61.686 43.0408 61.7231C43.1269 61.7603 43.2195 61.7801 43.3133 61.7815H48.2378C48.3324 61.7815 48.4261 61.7627 48.5134 61.7261C48.6008 61.6896 48.6799 61.6361 48.7464 61.5686C48.8128 61.5012 48.8652 61.4213 48.9005 61.3334C48.9357 61.2456 48.9532 61.1516 48.9518 61.057V56.857C48.9532 56.7623 48.9357 56.6683 48.9005 56.5805C48.8652 56.4927 48.8128 56.4127 48.7464 56.3453C48.6799 56.2779 48.6008 56.2243 48.5134 56.1878C48.4261 56.1513 48.3324 56.1325 48.2378 56.1325H43.3133Z" fill="#FFBE2E"/>
<path d="M62.4768 63.892H57.5523C56.805 63.8892 56.0893 63.5904 55.5618 63.061C55.0344 62.5316 54.7383 61.8148 54.7383 61.0675V56.8675C54.7383 56.1202 55.0344 55.4033 55.5618 54.8739C56.0893 54.3446 56.805 54.0457 57.5523 54.043H62.4768C63.2232 54.0485 63.9373 54.3482 64.4642 54.877C64.991 55.4058 65.288 56.121 65.2908 56.8675V61.0675C65.288 61.8139 64.991 62.5292 64.4642 63.058C63.9373 63.5868 63.2232 63.8864 62.4768 63.892ZM57.5523 56.1325C57.4576 56.1325 57.3639 56.1513 57.2766 56.1878C57.1893 56.2243 57.1101 56.2779 57.0437 56.3453C56.9772 56.4127 56.9248 56.4927 56.8896 56.5805C56.8543 56.6683 56.8369 56.7623 56.8383 56.857V61.057C56.8369 61.1516 56.8543 61.2456 56.8896 61.3334C56.9248 61.4213 56.9772 61.5012 57.0437 61.5686C57.1101 61.6361 57.1893 61.6896 57.2766 61.7261C57.3639 61.7627 57.4576 61.7815 57.5523 61.7815H62.4768C62.6671 61.7787 62.8487 61.7012 62.9823 61.5656C63.1159 61.43 63.1908 61.2473 63.1908 61.057V56.857C63.1908 56.6666 63.1159 56.4839 62.9823 56.3483C62.8487 56.2128 62.6671 56.1352 62.4768 56.1325H57.5523Z" fill="#FFBE2E"/>
<path d="M55.4198 89.9215H36.1418C35.8633 89.9215 35.5963 89.8109 35.3993 89.6139C35.2024 89.417 35.0918 89.15 35.0918 88.8715V71.0215C35.0918 70.3382 35.3625 69.6828 35.8446 69.1987C36.3268 68.7146 36.9811 68.4413 37.6643 68.4385H53.8973C54.5805 68.4413 55.2348 68.7146 55.717 69.1987C56.1991 69.6828 56.4698 70.3382 56.4698 71.0215V88.8715C56.4698 89.15 56.3592 89.417 56.1623 89.6139C55.9653 89.8109 55.6983 89.9215 55.4198 89.9215ZM37.1918 87.8215H54.3698V71.0215C54.3698 70.8952 54.3204 70.7739 54.2321 70.6836C54.1437 70.5933 54.0236 70.5412 53.8973 70.5385H37.6643C37.538 70.5412 37.4179 70.5933 37.3295 70.6836C37.2412 70.7739 37.1918 70.8952 37.1918 71.0215V87.8215Z" fill="#FFBE2E"/>
<path d="M63.5882 89.9213H11.6867C11.4082 89.9213 11.1412 89.8107 10.9443 89.6138C10.7473 89.4168 10.6367 89.1498 10.6367 88.8713C10.6367 88.5928 10.7473 88.3257 10.9443 88.1288C11.1412 87.9319 11.4082 87.8213 11.6867 87.8213H63.5882C63.8667 87.8213 64.1338 87.9319 64.3307 88.1288C64.5276 88.3257 64.6382 88.5928 64.6382 88.8713C64.6382 89.1498 64.5276 89.4168 64.3307 89.6138C64.1338 89.8107 63.8667 89.9213 63.5882 89.9213Z" fill="#FFBE2E"/>
<path d="M78.4344 103.95C75.2739 103.958 72.1821 103.028 69.5502 101.279C66.9184 99.5289 64.8649 97.0375 63.6497 94.12C62.4344 91.2026 62.1122 87.9901 62.7236 84.8894C63.3351 81.7886 64.8528 78.939 67.0847 76.7013C69.3165 74.4636 72.1621 72.9384 75.2612 72.3188C78.3603 71.6991 81.5736 72.0129 84.4943 73.2204C87.415 74.428 89.9117 76.4749 91.6684 79.1022C93.4251 81.7294 94.3629 84.8188 94.3629 87.9792C94.3657 92.2085 92.6897 96.2659 89.7032 99.2603C86.7166 102.255 82.6636 103.941 78.4344 103.95ZM78.4344 74.1087C75.6893 74.1004 73.0034 74.9068 70.7169 76.4259C68.4304 77.9449 66.6461 80.1083 65.5898 82.6421C64.5335 85.1758 64.2529 87.966 64.7833 90.6594C65.3137 93.3528 66.6315 95.8282 68.5696 97.7722C70.5077 99.7162 72.9791 101.041 75.6709 101.58C78.3626 102.119 81.1537 101.846 83.6906 100.798C86.2276 99.7493 88.3964 97.9715 89.9223 95.6896C91.4483 93.4077 92.2629 90.7243 92.2629 87.9792C92.2657 84.307 90.811 80.7837 88.2182 78.1831C85.6255 75.5825 82.1066 74.1171 78.4344 74.1087Z" fill="#FFBE2E"/>
<path d="M84.2624 95.3076H72.5969C72.3184 95.3076 72.0513 95.197 71.8544 95.0001C71.6575 94.8032 71.5469 94.5361 71.5469 94.2576V87.2121C71.5469 86.9336 71.6575 86.6666 71.8544 86.4696C72.0513 86.2727 72.3184 86.1621 72.5969 86.1621C72.8754 86.1621 73.1424 86.2727 73.3393 86.4696C73.5363 86.6666 73.6469 86.9336 73.6469 87.2121V93.2076H83.2124V87.2121C83.2124 86.9336 83.323 86.6666 83.5199 86.4696C83.7168 86.2727 83.9839 86.1621 84.2624 86.1621C84.5409 86.1621 84.8079 86.2727 85.0048 86.4696C85.2018 86.6666 85.3124 86.9336 85.3124 87.2121V94.2576C85.3124 94.5361 85.2018 94.8032 85.0048 95.0001C84.8079 95.197 84.5409 95.3076 84.2624 95.3076Z" fill="#FFBE2E"/>
<path d="M73.8241 88.6199C72.9358 88.6199 72.0838 88.267 71.4557 87.6388C70.8275 87.0107 70.4746 86.1587 70.4746 85.2704V82.2989C70.4774 81.8625 70.6519 81.4448 70.9605 81.1363C71.269 80.8277 71.6867 80.6531 72.1231 80.6504H76.1341C76.4126 80.6504 76.6797 80.761 76.8766 80.9579C77.0735 81.1548 77.1841 81.4219 77.1841 81.7004V85.2704C77.1813 86.1597 76.8261 87.0116 76.1963 87.6395C75.5665 88.2673 74.7134 88.6199 73.8241 88.6199ZM72.5746 82.7504V85.2704C72.6033 85.5834 72.7479 85.8743 72.98 86.0862C73.2121 86.298 73.5151 86.4155 73.8294 86.4155C74.1436 86.4155 74.4466 86.298 74.6787 86.0862C74.9109 85.8743 75.0554 85.5834 75.0841 85.2704V82.7504H72.5746Z" fill="#FFBE2E"/>
<path d="M78.4354 88.6199C77.5471 88.6199 76.6951 88.267 76.067 87.6388C75.4388 87.0107 75.0859 86.1587 75.0859 85.2704V81.7004C75.0859 81.4219 75.1966 81.1548 75.3935 80.9579C75.5904 80.761 75.8575 80.6504 76.1359 80.6504H80.7349C81.0134 80.6504 81.2805 80.761 81.4774 80.9579C81.6743 81.1548 81.7849 81.4219 81.7849 81.7004V85.2704C81.7849 86.1587 81.432 87.0107 80.8039 87.6388C80.1757 88.267 79.3238 88.6199 78.4354 88.6199ZM77.1859 82.7504V85.2704C77.1859 85.6018 77.3176 85.9196 77.5519 86.1539C77.7862 86.3883 78.104 86.5199 78.4354 86.5199C78.7668 86.5199 79.0846 86.3883 79.319 86.1539C79.5533 85.9196 79.6849 85.6018 79.6849 85.2704V82.7504H77.1859Z" fill="#FFBE2E"/>
<path d="M83.035 88.6199C82.1467 88.6199 81.2947 88.267 80.6666 87.6388C80.0384 87.0107 79.6855 86.1587 79.6855 85.2704V81.7004C79.6855 81.4219 79.7962 81.1548 79.9931 80.9579C80.19 80.761 80.4571 80.6504 80.7355 80.6504H84.736C85.1733 80.6504 85.5926 80.8241 85.9017 81.1332C86.2109 81.4424 86.3845 81.8617 86.3845 82.2989V85.2704C86.3845 85.7103 86.2979 86.1458 86.1296 86.5522C85.9613 86.9586 85.7145 87.3278 85.4035 87.6388C85.0925 87.9499 84.7232 88.1966 84.3168 88.3649C83.9105 88.5333 83.4749 88.6199 83.035 88.6199ZM81.7855 82.7504V85.2704C81.7855 85.6018 81.9172 85.9196 82.1515 86.1539C82.3858 86.3883 82.7037 86.5199 83.035 86.5199C83.3664 86.5199 83.6842 86.3883 83.9186 86.1539C84.1529 85.9196 84.2845 85.6018 84.2845 85.2704V82.7504H81.7855Z" fill="#FFBE2E"/>
<path d="M85.4171 95.308H71.3996C71.1211 95.308 70.8541 95.1974 70.6571 95.0005C70.4602 94.8036 70.3496 94.5365 70.3496 94.258C70.3496 93.9795 70.4602 93.7125 70.6571 93.5156C70.8541 93.3186 71.1211 93.208 71.3996 93.208H85.4171C85.6956 93.208 85.9627 93.3186 86.1596 93.5156C86.3565 93.7125 86.4671 93.9795 86.4671 94.258C86.4671 94.5365 86.3565 94.8036 86.1596 95.0005C85.9627 95.1974 85.6956 95.308 85.4171 95.308Z" fill="#FFBE2E"/>
</svg>
