<svg width="124" height="124" viewBox="0 0 124 124" fill="none" xmlns="http://www.w3.org/2000/svg">
<circle cx="62" cy="62" r="60" fill="white" stroke="#978050" stroke-width="4"/>
<rect x="26" y="73" width="40" height="40" rx="20" transform="rotate(-90 26 73)" fill="#FFBE2E"/>
<path d="M33.1603 59.1297C33.6216 62.7818 35.0736 66.2418 37.3621 69.1419C37.3765 69.1604 37.393 69.1774 37.4074 69.1952L37.4117 69.2002C39.7636 72.1814 42.9059 74.4567 46.4878 75.7723L45.0149 80.4269C44.6041 81.6499 44.6258 82.9751 45.0766 84.1842C45.5274 85.3934 46.3804 86.4147 47.4952 87.0801C48.4357 87.6772 49.5279 87.998 50.6451 88.005C52.1243 87.995 53.5433 87.4241 54.6105 86.4098L56.8846 84.3109C57.4489 84.7069 58.1019 84.961 58.7874 85.0514C59.4729 85.1418 60.1704 85.0658 60.8196 84.8299C61.4689 84.594 62.0504 84.2053 62.5142 83.6973C62.978 83.1893 63.3101 82.5773 63.4819 81.9139H72.5422C72.71 82.5612 73.0304 83.16 73.4772 83.6608C73.924 84.1617 74.4844 84.5505 75.1125 84.7952C75.7405 85.04 76.4182 85.1337 77.0899 85.0686C77.7616 85.0036 78.4081 84.7817 78.9764 84.4212L81.1319 86.4091C82.0787 87.2819 83.2904 87.8203 84.5783 87.9403C85.8662 88.0603 87.1581 87.7552 88.2527 87.0727C89.3474 86.3901 90.1834 85.3682 90.6306 84.1662C91.0778 82.9643 91.1111 81.6496 90.7254 80.4269L85.9265 65.272C85.6989 64.5485 85.2431 63.9163 84.626 63.4682C84.0089 63.02 83.263 62.7794 82.4978 62.7818H73.4799C74.133 60.7636 74.465 58.657 74.4642 56.5377C74.4639 54.8147 74.2467 53.0983 73.8176 51.4285C72.8022 47.5103 70.6385 43.9773 67.5989 41.2747C67.5809 41.2584 67.5623 41.2441 67.5429 41.2292L67.5213 41.2114C64.8246 38.8316 61.5471 37.1903 58.0132 36.4499C54.4792 35.7095 50.8113 35.8957 47.3723 36.9901H47.3666C47.3486 36.9958 47.3292 36.9994 47.3112 37.0058C47.2761 37.0168 47.2416 37.0296 47.2078 37.0442C43.0681 38.3991 39.4656 41.0128 36.9133 44.5131C34.3609 48.0133 32.9888 52.2217 32.9922 56.5392C32.9934 57.3673 33.0431 58.1948 33.1409 59.0173C33.146 59.055 33.1524 59.0927 33.1603 59.1297ZM35.9862 52.2908C36.9425 53.6234 38.3529 55.5744 41.5956 56.0866C41.6617 56.9826 41.7558 57.8955 41.8779 58.8252C39.6404 58.7119 37.4139 58.4411 35.2152 58.0148C35.175 57.5167 35.1477 57.0187 35.1477 56.5363C35.1464 54.9857 35.3432 53.4411 35.7333 51.9393C35.8173 52.056 35.9021 52.1734 35.9862 52.2908ZM48.3545 69.8747C47.3003 68.6245 46.4453 67.222 45.8189 65.716C47.0619 65.7525 48.2951 65.9464 49.4883 66.293L48.3545 69.8747ZM42.822 63.669C41.99 63.8012 41.2052 64.1396 40.5407 64.6527C39.8761 65.1659 39.3534 65.8371 39.0212 66.604C38.907 66.8258 38.7779 67.0397 38.6346 67.2443C37.1183 65.1592 36.064 62.7805 35.5407 60.2638C37.7441 60.665 39.9721 60.9195 42.2099 61.0258C42.378 61.9401 42.5806 62.8238 42.8206 63.669H42.822ZM39.9926 68.9177C40.3713 68.537 40.6842 68.0971 40.9187 67.6157C41.4159 66.7021 41.8528 65.8989 43.5053 65.7196C44.3852 68.1539 45.7885 70.3701 47.618 72.2148L47.1273 73.7452C44.396 72.7185 41.9502 71.0639 39.9911 68.9177H39.9926ZM59.3469 82.952C59.0315 82.9519 58.7201 82.8824 58.4352 82.7485C58.1502 82.6146 57.8989 82.4197 57.6994 82.1779C57.3841 81.8041 57.2135 81.3315 57.218 80.8445C57.2184 80.4283 57.3434 80.0216 57.5771 79.6758C57.8109 79.3299 58.1429 79.0604 58.5312 78.9013C58.9196 78.7422 59.3469 78.7006 59.7591 78.7818C60.1713 78.8631 60.5499 79.0635 60.8471 79.3577C61.1443 79.652 61.3468 80.0268 61.429 80.435C61.5112 80.8431 61.4694 81.2662 61.3089 81.6508C61.1483 82.0355 60.8763 82.3643 60.5271 82.5959C60.1779 82.8275 59.7672 82.9514 59.3469 82.952ZM74.5555 80.8445C74.5657 80.293 74.7942 79.7674 75.1917 79.3809C75.5892 78.9944 76.1241 78.7779 76.6812 78.7779C77.2382 78.7779 77.7731 78.9944 78.1706 79.3809C78.5681 79.7674 78.7966 80.293 78.8068 80.8445C78.8087 81.3809 78.6 81.897 78.2249 82.2839C78.0301 82.4964 77.7922 82.6658 77.5267 82.7809C77.2612 82.8961 76.9742 82.9543 76.6844 82.952C76.1201 82.9514 75.579 82.7292 75.1799 82.3341C74.7808 81.939 74.5562 81.4033 74.5555 80.8445ZM83.8723 65.9124L88.6676 81.0622C88.9121 81.8356 88.8914 82.6673 88.6088 83.4278C88.3262 84.1884 87.7975 84.835 87.1051 85.267C86.4127 85.6989 85.5955 85.892 84.7808 85.8161C83.966 85.7402 83.1994 85.3996 82.6005 84.8474L80.4493 82.8609C80.5238 82.7224 80.5905 82.5798 80.6491 82.434C80.6541 82.4212 80.6613 82.4098 80.6663 82.397C80.7508 82.1787 80.8167 81.9538 80.8632 81.7246C80.8754 81.6684 80.8855 81.6122 80.8955 81.5553C80.938 81.3204 80.9605 81.0824 80.9631 80.8438C80.9617 79.7206 80.5106 78.6438 79.7087 77.8495C78.9067 77.0553 77.8193 76.6084 76.6851 76.6069C76.4639 76.6087 76.2431 76.6272 76.0248 76.6624C75.9867 76.6688 75.9486 76.673 75.9106 76.6801C75.7079 76.7166 75.5084 76.768 75.3135 76.8338C75.2754 76.8466 75.2416 76.8601 75.2014 76.8744C75.0058 76.9446 74.8156 77.0288 74.6323 77.1263L74.6022 77.1448C74.4269 77.2422 74.2589 77.3518 74.0992 77.4728C74.0719 77.4934 74.0439 77.5126 74.0173 77.5339C73.8608 77.6576 73.7134 77.7922 73.5761 77.9366C73.5481 77.9651 73.5215 77.995 73.4949 78.0249C73.3581 78.1743 73.2321 78.3332 73.1177 78.5001C73.107 78.5165 73.0976 78.5343 73.0868 78.5507C72.979 78.7143 72.883 78.8852 72.7994 79.0622C72.7858 79.0907 72.7714 79.117 72.7585 79.1462C72.677 79.3309 72.6091 79.5211 72.5551 79.7154C72.5494 79.736 72.5393 79.7538 72.5343 79.7744H63.4812C63.4761 79.7545 63.4668 79.7367 63.461 79.7175C63.4075 79.5217 63.3396 79.33 63.2577 79.1441C63.2448 79.1149 63.2297 79.0878 63.2168 79.0594C63.1342 78.884 63.0398 78.7143 62.9344 78.5514C62.9229 78.5336 62.9128 78.5151 62.9013 78.4973C62.7875 78.3309 62.6622 78.1726 62.5263 78.0234C62.499 77.9936 62.4717 77.963 62.4436 77.9331C62.3069 77.7899 62.1604 77.6561 62.0054 77.5325C61.9773 77.5105 61.9486 77.4905 61.9199 77.4692C61.762 77.3493 61.5958 77.2404 61.4227 77.1433C61.4112 77.1376 61.4011 77.1298 61.3896 77.1241C61.2071 77.0265 61.0176 76.9423 60.8227 76.8722C60.7853 76.8587 60.7509 76.8445 60.7099 76.8317C60.5155 76.7659 60.3164 76.7145 60.1143 76.678C60.0762 76.6709 60.0381 76.6666 60 76.6602C59.7821 76.6251 59.5619 76.6066 59.3411 76.6047C58.7222 76.5998 58.1097 76.729 57.5466 76.9832C56.9834 77.2374 56.4832 77.6105 56.0809 78.0763C55.6787 78.5421 55.3842 79.0894 55.2181 79.6798C55.052 80.2702 55.0182 80.8894 55.1192 81.4941C55.1278 81.5461 55.1357 81.5966 55.1458 81.6478C55.185 81.8567 55.24 82.0625 55.3103 82.2632C55.3197 82.2889 55.3319 82.313 55.342 82.3387C55.3858 82.4539 55.4303 82.5692 55.4857 82.6802L53.1412 84.8438C52.5424 85.3963 51.7758 85.7371 50.961 85.8131C50.1462 85.8892 49.3288 85.6962 48.6363 85.2643C47.9438 84.8324 47.415 84.1858 47.1323 83.4252C46.8496 82.6646 46.8289 81.8328 47.0734 81.0594L49.8576 72.2653L49.8627 72.249L51.8694 65.9124C51.9613 65.6232 52.144 65.3706 52.391 65.1914C52.638 65.0122 52.9363 64.9158 53.2425 64.9163H60.6574C60.6616 66.528 61.3106 68.0724 62.4623 69.2112C63.614 70.3501 65.1745 70.9906 66.8021 70.9925H68.9389C70.5664 70.9906 72.1269 70.3501 73.2784 69.2112C74.43 68.0723 75.0788 66.5279 75.0828 64.9163H82.5007C82.8068 64.9153 83.1052 65.0116 83.352 65.1908C83.5989 65.3701 83.7812 65.623 83.8723 65.9124ZM72.928 64.9163C72.9244 65.9621 72.5027 66.9639 71.7551 67.7025C71.0076 68.4412 69.995 68.8567 68.9389 68.858H66.8021C65.7459 68.8568 64.7331 68.4415 63.9854 67.7028C63.2377 66.9641 62.8158 65.9622 62.8122 64.9163H72.928ZM61.7345 62.7818H53.2403C52.8549 62.7815 52.472 62.842 52.1058 62.9611C51.3722 63.202 50.7374 63.6721 50.2966 64.3008C48.5911 63.7882 46.8166 63.5365 45.0343 63.5545C44.795 62.7718 44.5852 61.9486 44.4121 61.0934C44.6147 61.0934 44.8137 61.0998 45.0199 61.0998C54.5839 61.1956 63.9703 58.5403 72.04 53.4562C72.216 54.4747 72.3059 55.5059 72.3087 56.5392C72.3118 58.668 71.9398 60.781 71.2094 62.7832L61.7345 62.7818ZM71.5148 51.2406C61.8365 57.7053 51.3873 59.0109 44.0615 58.8992C43.9307 57.9562 43.8303 57.0313 43.7604 56.1243C47.6698 55.6975 51.4232 53.1802 56.3802 47.7138C57.6653 46.3267 59.2168 45.2072 60.944 44.421C62.6712 43.6347 64.5394 43.1974 66.4392 43.1346C68.8232 45.3462 70.5742 48.1428 71.5148 51.2406ZM64.0121 41.2406C60.4479 41.8477 57.1939 43.6254 54.7743 46.2872C50.2564 51.2677 46.9355 53.5815 43.6296 53.9892C43.3422 43.6533 47.3659 39.6632 48.1562 38.9837C50.8012 38.1604 53.599 37.9358 56.3434 38.3264C59.0877 38.717 61.7085 39.7129 64.0121 41.2406ZM44.1204 40.7966C42.6999 43.3986 41.3232 47.5743 41.4734 53.8931C39.4515 53.4256 38.5491 52.1791 37.7422 51.0564C37.3966 50.5269 36.9837 50.0436 36.5136 49.6184C38.0288 45.9465 40.6955 42.8539 44.1204 40.7966Z" fill="black"/>
<path d="M69.9758 75.005H67.0086C66.739 75.005 66.4805 75.1104 66.2899 75.2979C66.0993 75.4854 65.9922 75.7398 65.9922 76.005C65.9922 76.2702 66.0993 76.5246 66.2899 76.7121C66.4805 76.8996 66.739 77.005 67.0086 77.005H69.9758C70.2454 77.005 70.5039 76.8996 70.6945 76.7121C70.8851 76.5246 70.9922 76.2702 70.9922 76.005C70.9922 75.7398 70.8851 75.4854 70.6945 75.2979C70.5039 75.1104 70.2454 75.005 69.9758 75.005Z" fill="black"/>
<path d="M60.0059 69.8773H58.4785V68.1323C58.4785 67.8333 58.3746 67.5466 58.1896 67.3352C58.0046 67.1238 57.7538 67.005 57.4922 67.005C57.2306 67.005 56.9797 67.1238 56.7948 67.3352C56.6098 67.5466 56.5059 67.8333 56.5059 68.1323V69.8773H54.9785C54.7169 69.8773 54.466 69.9961 54.2811 70.2075C54.0961 70.4189 53.9922 70.7057 53.9922 71.0046C53.9922 71.3036 54.0961 71.5903 54.2811 71.8017C54.466 72.0132 54.7169 72.1319 54.9785 72.1319H56.5059V73.8777C56.5059 74.1767 56.6098 74.4634 56.7948 74.6748C56.9797 74.8862 57.2306 75.005 57.4922 75.005C57.7538 75.005 58.0046 74.8862 58.1896 74.6748C58.3746 74.4634 58.4785 74.1767 58.4785 73.8777V72.1319H60.0059C60.2675 72.1319 60.5183 72.0132 60.7033 71.8017C60.8883 71.5903 60.9922 71.3036 60.9922 71.0046C60.9922 70.7057 60.8883 70.4189 60.7033 70.2075C60.5183 69.9961 60.2675 69.8773 60.0059 69.8773Z" fill="black"/>
<path d="M79.8927 71.005H82.0917C82.3305 71.005 82.5596 70.847 82.7284 70.5657C82.8973 70.2844 82.9922 69.9028 82.9922 69.505C82.9922 69.1072 82.8973 68.7256 82.7284 68.4443C82.5596 68.163 82.3305 68.005 82.0917 68.005H79.8927C79.6539 68.005 79.4248 68.163 79.2559 68.4443C79.0871 68.7256 78.9922 69.1072 78.9922 69.505C78.9922 69.9028 79.0871 70.2844 79.2559 70.5657C79.4248 70.847 79.6539 71.005 79.8927 71.005Z" fill="black"/>
<path d="M73.9922 72.505C73.9922 72.9028 74.1108 73.2844 74.3219 73.5657C74.533 73.847 74.8193 74.005 75.1178 74.005H77.8666C78.1651 74.005 78.4514 73.847 78.6625 73.5657C78.8736 73.2844 78.9922 72.9028 78.9922 72.505C78.9922 72.1072 78.8736 71.7257 78.6625 71.4443C78.4514 71.163 78.1651 71.005 77.8666 71.005H75.1178C74.8193 71.005 74.533 71.163 74.3219 71.4443C74.1108 71.7257 73.9922 72.1072 73.9922 72.505Z" fill="black"/>
</svg>
