<svg width="90" height="84" viewBox="0 0 90 84" fill="none" xmlns="http://www.w3.org/2000/svg">
<path fill-rule="evenodd" clip-rule="evenodd" d="M77.632 29.345C77.632 29.8946 77.1872 30.3404 76.6399 30.3404C76.0927 30.3404 75.6479 29.8946 75.6479 29.345C75.6479 28.7978 76.0927 28.3507 76.6399 28.3507C77.1874 28.3507 77.632 28.7976 77.632 29.345ZM72.9454 29.345C72.9454 31.3839 74.5987 33.0431 76.6399 33.0431C78.6811 33.0431 80.3344 31.3839 80.3344 29.345C80.3344 27.3085 78.6811 25.6492 76.6399 25.6492C74.5987 25.6492 72.9454 27.3085 72.9454 29.345ZM86.4465 51.5286L84.2913 49.1978C84.3824 47.3664 84.4395 45.5658 84.4622 43.7905L85.6481 45.0243C86.1953 45.5887 86.4463 46.2171 86.4463 47.0016V51.5286H86.4465ZM81.623 48.3494C82.3301 31.8913 80.6879 17.7892 76.6399 5.41931C74.3137 12.5303 72.7856 20.217 72.0331 28.5926L72.0105 28.8755C71.4859 34.9852 71.3605 41.4599 71.657 48.3496H81.623V48.3494ZM76.6399 61.7867C74.8041 58.6953 74.5189 54.5173 76.0013 51.0506H77.2899C78.7609 54.5173 78.4873 58.6942 76.6399 61.7867ZM66.8333 47.0014C66.8333 46.2169 67.0956 45.5885 67.6316 45.0241L68.8174 43.7903C68.8516 45.5659 68.9086 47.3664 68.9886 49.1976L66.8333 51.5284V47.0014ZM56.947 35.9997C56.947 36.6669 56.3995 37.2108 55.7382 37.2108H33.411C32.7497 37.2108 32.2022 36.6669 32.2022 35.9997V23.8304C34.403 23.5066 36.3415 22.4131 37.7212 20.7403C41.3038 25.0029 47.8449 25.0029 51.4277 20.7403C52.819 22.4131 54.746 23.5066 56.9468 23.8304L56.947 35.9997ZM48.406 67.9556C48.7368 69.8668 49.1131 71.7232 49.5121 73.4713C49.6822 74.2023 50.3966 74.65 51.1314 74.4839C51.8612 74.3163 52.3173 73.591 52.1464 72.8646C51.8043 71.3776 51.4851 69.8074 51.1885 68.1917C53.53 66.1801 57.0786 66.4417 59.068 68.8485C60.1285 70.1279 60.5617 71.7974 60.2538 73.4268C60.0018 74.746 61.6514 75.5877 62.5687 74.6023C63.4238 73.6821 64.5983 73.1758 65.8526 73.1758C68.2928 73.1758 70.2769 75.0811 70.3683 77.5146C70.3796 78.0335 70.699 78.4941 71.1665 78.7018C72.74 79.3893 74.3364 80.0176 75.99 80.5934H13.1706C14.8126 80.0176 16.409 79.3893 17.9827 78.7018C18.4615 78.4943 18.7696 78.0335 18.7923 77.5146C18.9573 73.4566 23.8932 71.7226 26.5919 74.6023C27.5106 75.5826 29.1497 74.7592 28.8954 73.4268C28.249 70.0424 30.8488 66.8449 34.3461 66.8449C35.6803 66.8449 36.9575 67.3296 37.9609 68.1917C37.6759 69.8074 37.3451 71.3778 37.003 72.8646C36.8117 73.7155 37.4634 74.5204 38.3258 74.5204C38.9416 74.5204 39.4888 74.0962 39.6371 73.4713C41.9786 63.5515 42.7999 51.8535 43.3089 39.9133H45.8405C46.3079 50.6117 46.935 59.538 48.406 67.9556ZM25.885 18.7812C27.128 20.4244 29.0436 21.3298 31.1533 21.2271C33.4339 21.1187 35.3951 19.8507 36.4216 17.8244L38.4741 6.16838H31.9515L25.885 18.7812ZM41.2222 6.16838L39.124 18.0468C40.2188 20.0002 42.3169 21.2407 44.5748 21.2407C46.8325 21.2407 48.9308 20 50.0254 18.0468L47.9386 6.16838H41.2222ZM63.2642 18.7812L57.1977 6.16838H50.6751L52.7276 17.8244C53.7539 19.8507 55.7153 21.1187 58.0072 21.2271C60.1056 21.3274 62.0212 20.4221 63.2642 18.7812ZM22.3159 47.0014C22.3159 46.2169 22.0651 45.5885 21.5176 45.0241L20.3318 43.7903C20.2975 45.5659 20.252 47.3664 20.1608 49.1976L22.3161 51.5284V47.0014H22.3159ZM17.4924 48.3494C17.7889 41.4597 17.6749 34.985 17.1389 28.8753L17.1161 28.5924C16.3748 20.2167 14.8354 12.5301 12.5093 5.4191C8.46111 17.7892 6.83046 31.8913 7.52619 48.3492H17.4924V48.3494ZM12.5093 61.7867C14.3566 58.6953 14.6303 54.5173 13.1592 51.0506H11.8707C10.3883 54.5173 10.6619 58.6942 12.5093 61.7867ZM2.70249 47.0014C2.70249 46.2169 2.96478 45.5885 3.5007 45.0241L4.68657 43.7903C4.7208 45.5659 4.77771 47.3664 4.85772 49.1976L2.70249 51.5284V47.0014ZM87.5984 43.1506L84.4853 39.9112C84.3713 25.1328 82.2047 12.2895 77.9058 0.871763C77.4732 -0.289117 75.8205 -0.292057 75.3743 0.871763C72.3523 8.90405 70.3912 17.6434 69.4447 27.2618H59.6495V23.8386C62.2721 23.4566 64.5643 21.9434 65.9782 19.5863C66.2176 19.1974 66.229 18.7163 66.0351 18.3081L59.2616 4.23218C59.0335 3.76346 58.5661 3.46694 58.0415 3.46694H31.1075C30.5829 3.46694 30.1155 3.76346 29.8874 4.23218L23.1141 18.3081C22.9202 18.7163 22.9429 19.1974 23.171 19.5863C24.5849 21.9434 26.8771 23.4566 29.4997 23.8386V27.2618H19.7045C18.758 17.6434 16.7966 8.90405 13.775 0.871763C13.3424 -0.289537 11.6888 -0.291007 11.2434 0.871763C6.95583 12.2895 4.78926 25.1326 4.67523 39.9112L1.55085 43.1506C0.52458 44.2202 0 45.5167 0 47.0014V54.9789C0 56.2047 1.51851 56.7925 2.34906 55.8958L6.83046 51.0506H8.98569C7.41216 55.7931 8.34708 61.3625 11.4943 64.9703C12.0267 65.5887 12.9916 65.5887 13.524 64.9703C16.6713 61.3623 17.6062 55.7943 16.0327 51.0506H18.1992L22.6693 55.8958C23.4944 56.7878 25.0183 56.2164 25.0183 54.9789V47.0014C25.0183 45.5167 24.4938 44.2202 23.4675 43.1506L20.3545 39.9112C20.3202 36.4949 20.1833 33.1811 19.9439 29.9631H29.4997V35.9999C29.4997 38.1575 31.2558 39.9135 33.411 39.9135H40.6062C40.1843 49.5023 39.6371 57.6463 38.4625 65.2454C33.4337 62.3619 27.1036 65.4092 26.2042 71.0895C21.8885 69.1959 16.91 71.8539 16.1696 76.539C12.0874 78.27 7.7427 79.6098 2.9421 80.6235C1.36353 80.9534 1.62477 83.2951 3.21573 83.2951H85.9335C87.5396 83.2951 87.7941 80.9548 86.2071 80.6235C81.4065 79.6096 77.0732 78.2698 72.9796 76.539C72.2392 71.8543 67.2611 69.1957 62.945 71.0895C62.0476 65.4218 55.7342 62.3577 50.6982 65.2454C49.5237 57.6463 48.9649 49.5023 48.5543 39.9135H55.7382C57.8934 39.9135 59.6495 38.1575 59.6495 35.9999V29.9631H69.2166C68.9657 33.1811 68.829 36.4947 68.8061 39.9112L65.693 43.1506C64.6554 44.2202 64.1309 45.5167 64.1309 47.0014V54.9789C64.1309 56.2047 65.6494 56.7925 66.4799 55.8958L70.9613 51.0506H73.1165C71.543 55.7943 72.4779 61.3625 75.6252 64.9703C76.1575 65.5887 77.1227 65.5887 77.6551 64.9703C80.8023 61.3623 81.7373 55.7931 80.1751 51.0506H82.3303L86.8004 55.8958C87.6254 56.7878 89.1494 56.2164 89.1494 54.9789V47.0014C89.1492 45.5167 88.6246 44.2202 87.5984 43.1506ZM12.5093 30.3404C11.962 30.3404 11.5172 29.8946 11.5172 29.345C11.5172 28.7978 11.962 28.3507 12.5093 28.3507C13.0565 28.3507 13.5013 28.7978 13.5013 29.345C13.5013 29.8946 13.0565 30.3404 12.5093 30.3404ZM12.5093 25.6492C14.5505 25.6492 16.2038 27.3085 16.2038 29.345C16.2038 31.3839 14.5503 33.0431 12.5093 33.0431C10.4681 33.0431 8.81475 31.3839 8.81475 29.345C8.81454 27.3085 10.4681 25.6492 12.5093 25.6492Z" fill="#FFBE2E"/>
</svg>
