<svg width="230" height="230" viewBox="0 0 230 230" fill="none" xmlns="http://www.w3.org/2000/svg">
<mask id="mask0_3191_17062" style="mask-type:alpha" maskUnits="userSpaceOnUse" x="0" y="0" width="230" height="230">
<rect width="230" height="230" fill="#D9D9D9"/>
</mask>
<g mask="url(#mask0_3191_17062)">
<path d="M169.1 135.985C169.042 135.985 168.986 135.955 168.955 135.901C168.908 135.821 168.934 135.718 169.015 135.67L198.503 118.367C198.93 118.119 199.163 117.8 199.163 117.468C199.163 117.133 198.924 116.812 198.492 116.562L185.672 109.16C185.591 109.113 185.564 109.01 185.61 108.93C185.656 108.848 185.761 108.822 185.84 108.868L198.661 116.27C199.202 116.582 199.5 117.008 199.501 117.468C199.501 117.925 199.208 118.348 198.673 118.659L169.186 135.962C169.159 135.977 169.129 135.985 169.1 135.985Z" fill="#DBDEE4"/>
<path d="M187.354 107.355C188.574 108.059 188.581 109.201 187.369 109.905C186.158 110.609 184.186 110.609 182.966 109.905C181.747 109.201 181.741 108.059 182.953 107.355C184.164 106.651 186.135 106.651 187.354 107.355Z" fill="white"/>
<path d="M185.172 110.599C184.344 110.599 183.515 110.416 182.883 110.051C182.237 109.678 181.88 109.172 181.88 108.626C181.879 108.083 182.23 107.58 182.869 107.209C184.125 106.48 186.176 106.479 187.439 107.209C188.085 107.582 188.442 108.088 188.443 108.634C188.444 109.177 188.092 109.68 187.455 110.051C186.826 110.416 186 110.599 185.172 110.599ZM185.151 106.994C184.385 106.994 183.619 107.163 183.038 107.501C182.508 107.809 182.216 108.208 182.217 108.626C182.218 109.046 182.514 109.448 183.052 109.759C184.223 110.435 186.123 110.436 187.285 109.759C187.814 109.452 188.106 109.052 188.105 108.635C188.105 108.214 187.808 107.811 187.27 107.501C186.685 107.163 185.917 106.994 185.151 106.994Z" fill="#DBDEE4"/>
<path d="M185.167 109.434C184.692 109.434 184.231 109.326 183.905 109.137C183.642 108.986 183.492 108.8 183.491 108.627C183.491 108.456 183.639 108.272 183.896 108.122C184.221 107.934 184.679 107.826 185.154 107.826C185.629 107.826 186.088 107.934 186.415 108.122C186.677 108.274 186.828 108.46 186.829 108.634C186.829 108.805 186.681 108.988 186.424 109.138C186.1 109.326 185.642 109.434 185.167 109.434Z" fill="#FFBE2E"/>
<path d="M188.849 125.2C188.339 125.2 187.845 125.083 187.494 124.881C187.212 124.718 187.05 124.518 187.05 124.332C187.05 124.149 187.208 123.951 187.485 123.79C187.833 123.588 188.325 123.472 188.835 123.472C189.345 123.472 189.839 123.588 190.19 123.791C190.472 123.954 190.634 124.154 190.634 124.34C190.634 124.524 190.476 124.721 190.199 124.882C189.851 125.084 189.359 125.2 188.849 125.2Z" fill="#383C43"/>
<path d="M72.8661 123.432C72.8372 123.432 72.8075 123.424 72.7812 123.409L61.2349 116.658C60.8239 116.419 60.5684 115.975 60.5684 115.499V70.3772C60.5684 70.284 60.6441 70.2085 60.7369 70.2085C60.8298 70.2085 60.9056 70.2839 60.9056 70.3772V115.499C60.9056 115.855 61.0966 116.187 61.4049 116.366L72.9511 123.118C73.0315 123.165 73.0585 123.268 73.0117 123.348C72.98 123.402 72.9241 123.432 72.8661 123.432Z" fill="#DBDEE4"/>
<g opacity="0.1">
<path d="M196.426 168.017L139.328 200.774C136.882 202.184 132.922 202.184 130.495 200.767L65.2173 162.764L45.9771 151.558C43.5498 150.142 43.5756 147.85 46.0223 146.44L103.12 113.677C105.573 112.267 109.527 112.279 111.948 113.689L119.538 118.113L196.465 162.898C198.892 164.315 198.88 166.6 196.426 168.017Z" fill="#010101"/>
</g>
<path d="M200.784 155.656C200.789 156.59 200.17 157.52 198.943 158.233L141.836 190.993C141.271 191.32 140.628 191.565 139.937 191.738C138.206 192.177 136.195 192.14 134.516 191.624C133.974 191.462 133.463 191.247 133.007 190.983L48.4957 141.782C47.2823 141.079 46.6899 140.155 46.6836 139.238V144.958C46.6899 145.875 47.2928 146.797 48.5024 147.506L133.02 196.711C133.47 196.971 133.97 197.189 134.512 197.351C136.191 197.867 138.192 197.906 139.933 197.465C140.62 197.299 141.278 197.044 141.843 196.718L198.943 163.953C200.177 163.244 200.789 162.31 200.797 161.384L200.784 155.656Z" fill="#212121"/>
<path d="M130.812 195.541C130.719 195.541 130.644 195.466 130.644 195.373V189.653C130.644 189.559 130.719 189.484 130.812 189.484C130.905 189.484 130.981 189.559 130.981 189.653V195.373C130.981 195.466 130.905 195.541 130.812 195.541Z" fill="#383C43"/>
<path d="M56.1119 152.052C56.019 152.052 55.9434 151.976 55.9434 151.883V146.165C55.9434 146.071 56.0191 145.996 56.1119 145.996C56.2048 145.996 56.2806 146.071 56.2806 146.165V151.883C56.2806 151.976 56.2048 152.052 56.1119 152.052Z" fill="#383C43"/>
<path d="M139.969 191.704C138.238 192.143 136.227 192.106 134.548 191.59L134.544 197.317C136.223 197.833 138.224 197.872 139.966 197.431L139.969 191.704Z" fill="#FFBE2E"/>
<path d="M137.453 197.906C136.436 197.906 135.423 197.763 134.496 197.478C133.955 197.317 133.441 197.096 132.97 196.823L48.451 147.618C47.2305 146.902 46.5554 145.946 46.5488 144.925V139.204C46.5488 139.111 46.6239 139.036 46.7168 139.035H46.7174C46.8103 139.035 46.8854 139.11 46.8861 139.203C46.892 140.108 47.5059 140.96 48.6137 141.602L133.126 190.804C133.566 191.058 134.061 191.268 134.597 191.428C136.232 191.931 138.225 191.972 139.93 191.54C140.629 191.366 141.253 191.121 141.786 190.813L198.893 158.052C200.025 157.395 200.649 156.536 200.649 155.634V155.623C200.649 155.623 200.649 155.623 200.649 155.623V155.622C200.649 155.529 200.724 155.453 200.817 155.453H200.818C200.91 155.453 200.986 155.528 200.986 155.621C200.986 155.621 200.986 155.621 200.986 155.621L201 161.349C200.99 162.388 200.302 163.352 199.061 164.065L141.961 196.83C141.392 197.159 140.716 197.423 140.007 197.595C139.186 197.803 138.318 197.906 137.453 197.906ZM46.8861 140.424V144.924C46.892 145.82 47.5078 146.674 48.6216 147.326L133.139 196.531C133.588 196.791 134.077 197.001 134.593 197.155C136.228 197.657 138.221 197.699 139.926 197.267C140.605 197.103 141.25 196.851 141.793 196.538L198.893 163.773C200.026 163.122 200.654 162.261 200.663 161.348L200.652 156.849C200.334 157.408 199.795 157.918 199.062 158.345L141.954 191.106C141.395 191.429 140.741 191.685 140.012 191.868C138.25 192.314 136.189 192.271 134.5 191.751C133.939 191.584 133.42 191.363 132.957 191.095L48.4443 141.894C47.7285 141.479 47.2002 140.977 46.8861 140.424Z" fill="#383C43"/>
<path d="M195.703 165.97C195.61 165.97 195.535 165.894 195.535 165.801L195.531 160.088C195.531 159.995 195.606 159.919 195.7 159.919C195.793 159.919 195.869 159.995 195.869 160.088L195.872 165.801C195.872 165.894 195.797 165.97 195.703 165.97Z" fill="#383C43"/>
<path d="M122.084 108.293L56.1108 146.167L48.519 141.744C46.0942 140.326 46.1174 138.033 48.5655 136.623L105.661 103.862C108.117 102.452 112.067 102.46 114.492 103.869L122.084 108.293Z" fill="#FFBE2E"/>
<path d="M56.11 146.335C56.0804 146.335 56.0513 146.328 56.025 146.312L48.4326 141.889C47.2121 141.175 46.5416 140.218 46.5449 139.193C46.5482 138.158 47.2358 137.194 48.4801 136.477L105.576 103.715C108.069 102.283 112.106 102.288 114.576 103.723L122.168 108.147C122.22 108.177 122.252 108.233 122.252 108.293C122.252 108.353 122.219 108.409 122.167 108.439L56.1936 146.313C56.1679 146.328 56.1389 146.335 56.11 146.335ZM110.075 102.976C108.509 102.976 106.941 103.32 105.743 104.008L48.6479 136.769C47.5124 137.423 46.8854 138.284 46.8821 139.193C46.8795 140.093 47.49 140.947 48.6025 141.597L56.1105 145.972L121.746 108.291L114.406 104.014C113.216 103.323 111.647 102.976 110.075 102.976Z" fill="#383C43"/>
<path d="M122.083 108.295L199.005 153.077C201.437 154.495 201.421 156.784 198.969 158.196L141.871 190.958C139.425 192.366 135.466 192.364 133.034 190.947L56.1123 146.165L122.083 108.295Z" fill="#FFF7E4"/>
<path d="M137.459 192.177C135.823 192.177 134.189 191.816 132.949 191.093L56.027 146.311C55.975 146.281 55.9434 146.225 55.9434 146.165C55.9434 146.105 55.9756 146.049 56.0283 146.019L121.999 108.149C122.052 108.119 122.116 108.119 122.168 108.15L199.089 152.932C200.316 153.647 200.99 154.605 200.987 155.631C200.984 156.663 200.298 157.626 199.054 158.343L141.954 191.105C140.712 191.82 139.084 192.177 137.459 192.177ZM56.4486 146.166L133.119 190.802C135.499 192.189 139.387 192.194 141.786 190.812L198.886 158.05C200.021 157.396 200.648 156.537 200.65 155.63C200.652 154.73 200.038 153.875 198.919 153.223L122.082 108.49L56.4486 146.166Z" fill="#383C43"/>
<path d="M69.5124 129.499C68.6932 129.97 68.6879 130.728 69.5005 131.201C70.3062 131.671 71.6214 131.677 72.4406 131.205C73.2597 130.734 73.258 129.972 72.4522 129.502C71.6397 129.029 70.3315 129.027 69.5124 129.499Z" fill="#212121"/>
<path d="M63.3506 133.045C62.5385 133.513 62.5261 134.275 63.3388 134.748C64.1445 135.218 65.4667 135.22 66.2788 134.752C67.0979 134.281 67.0962 133.519 66.2904 133.049C65.4778 132.576 64.1696 132.574 63.3506 133.045Z" fill="#212121"/>
<path d="M57.1834 136.592C56.3695 137.061 56.3641 137.82 57.1787 138.295C57.9864 138.766 59.3048 138.772 60.1187 138.303C60.9398 137.83 60.938 137.067 60.1304 136.596C59.3158 136.121 58.0046 136.12 57.1834 136.592Z" fill="#212121"/>
<path d="M79.8721 99.8795L121.253 123.927L162.721 100.205L121.531 75.8276L79.8721 99.8795Z" fill="#383C43"/>
<path d="M121.253 124.096C121.224 124.096 121.194 124.089 121.168 124.073L79.7868 100.026C79.7348 99.9952 79.7031 99.9395 79.7031 99.8793C79.7031 99.8193 79.7354 99.7636 79.7874 99.7337L121.446 75.6818C121.5 75.6512 121.564 75.6519 121.616 75.6825L162.807 100.059C162.859 100.09 162.89 100.146 162.89 100.206C162.889 100.266 162.857 100.321 162.805 100.351L121.336 124.074C121.311 124.089 121.282 124.096 121.253 124.096ZM80.2083 99.88L121.253 123.733L162.386 100.202L121.529 76.023L80.2083 99.88Z" fill="#383C43"/>
<path d="M79.878 99.8789L67.6748 88.2259L109.334 64.1743L121.537 75.8273L79.878 99.8789Z" fill="#FFF7E4"/>
<path d="M79.8781 100.048C79.836 100.048 79.7938 100.032 79.7615 100.001L67.5579 88.3478C67.5197 88.3113 67.5005 88.2587 67.5071 88.2059C67.5131 88.1533 67.544 88.1064 67.5901 88.0801L109.25 64.0286C109.314 63.9913 109.396 64.0002 109.45 64.0526L121.653 75.7058C121.692 75.7424 121.711 75.7951 121.704 75.8478C121.698 75.9004 121.667 75.9473 121.621 75.9736L79.9624 100.025C79.936 100.04 79.907 100.048 79.8781 100.048ZM67.9538 88.2596L79.9031 99.6702L121.258 75.7941L109.309 64.3835L67.9538 88.2596Z" fill="#383C43"/>
<path d="M162.724 100.205L174.776 88.6957L133.59 64.3042L121.538 75.813L162.724 100.205Z" fill="#FFF7E4"/>
<path d="M162.723 100.373C162.694 100.373 162.664 100.365 162.638 100.349L121.452 75.9577C121.406 75.9307 121.376 75.8839 121.37 75.8316C121.364 75.7792 121.383 75.7269 121.421 75.6906L133.473 64.1819C133.528 64.1286 133.611 64.1201 133.675 64.1585L174.861 88.55C174.907 88.577 174.937 88.6237 174.943 88.6761C174.949 88.7284 174.93 88.7808 174.892 88.817L162.84 100.326C162.808 100.357 162.765 100.373 162.723 100.373ZM121.815 75.7809L162.7 99.9942L174.498 88.7268L133.613 64.514L121.815 75.7809Z" fill="#383C43"/>
<path d="M121.536 75.812L121.257 123.925L162.721 100.204L121.536 75.812Z" fill="#FFBE2E"/>
<path d="M121.258 124.094C121.228 124.094 121.199 124.087 121.173 124.071C121.121 124.041 121.088 123.985 121.089 123.925L121.368 75.812C121.369 75.7518 121.401 75.6961 121.454 75.6662C121.506 75.6366 121.571 75.6376 121.622 75.6678L162.808 100.06C162.86 100.09 162.892 100.146 162.891 100.206C162.89 100.266 162.858 100.321 162.806 100.351L121.341 124.072C121.315 124.087 121.286 124.094 121.258 124.094ZM121.703 76.1077L121.428 123.634L162.387 100.202L121.703 76.1077Z" fill="#383C43"/>
<path d="M153.125 90.1748L153.028 124.937L121.313 143.367L121.41 108.605L153.125 90.1748Z" fill="#FFF7E4"/>
<path d="M121.314 143.536C121.285 143.536 121.256 143.528 121.23 143.513C121.178 143.483 121.146 143.427 121.146 143.367L121.242 108.605C121.242 108.545 121.275 108.489 121.326 108.459L153.04 90.0286C153.093 89.9983 153.157 89.9983 153.21 90.0286C153.262 90.0585 153.294 90.1146 153.294 90.1749L153.197 124.937C153.197 124.997 153.165 125.052 153.113 125.082L121.399 143.513C121.373 143.528 121.343 143.536 121.314 143.536ZM121.58 108.702L121.483 143.074L152.86 124.839L152.956 90.4678L121.58 108.702Z" fill="#383C43"/>
<path d="M121.411 108.605L121.314 143.367L89.3877 124.934L89.4843 90.1724L121.411 108.605Z" fill="#FFBE2E"/>
<path d="M121.314 143.536C121.285 143.536 121.256 143.528 121.23 143.513L89.303 125.08C89.251 125.05 89.2188 124.994 89.2188 124.934L89.3156 90.1722C89.3156 90.1119 89.3478 90.0562 89.3998 90.0262C89.4525 89.9966 89.5157 89.9963 89.5685 90.0265L121.495 108.459C121.547 108.489 121.579 108.545 121.579 108.605L121.482 143.367C121.482 143.428 121.45 143.483 121.398 143.513C121.372 143.528 121.343 143.536 121.314 143.536ZM89.556 124.837L121.146 143.075L121.242 108.702L89.6522 90.4639L89.556 124.837Z" fill="#383C43"/>
<path d="M153.125 90.1749L121.411 108.605L89.4844 90.1727L121.199 71.7422L153.125 90.1749Z" fill="#FFF7E4"/>
<path d="M121.41 108.774C121.381 108.774 121.353 108.766 121.326 108.751L89.3997 90.3184C89.3477 90.2885 89.3154 90.2328 89.3154 90.1728C89.3154 90.1126 89.3471 90.0569 89.3991 90.0266L121.113 71.596C121.166 71.5657 121.23 71.5657 121.283 71.596L153.209 90.0285C153.261 90.0584 153.293 90.1141 153.293 90.174C153.293 90.2343 153.262 90.29 153.21 90.3203L121.495 108.751C121.469 108.766 121.439 108.774 121.41 108.774ZM89.8206 90.1721L121.41 108.41L152.788 90.1748L121.198 71.9369L89.8206 90.1721Z" fill="#383C43"/>
<path d="M102.936 97.9642L108.427 101.113L140.128 82.664L134.636 79.5151L102.936 97.9642Z" fill="#212121"/>
<path d="M108.427 101.281C108.398 101.281 108.369 101.274 108.343 101.259L102.852 98.1099C102.799 98.08 102.767 98.0246 102.767 97.9644C102.767 97.9041 102.798 97.8482 102.85 97.8178L134.551 79.3688C134.603 79.3385 134.668 79.3389 134.719 79.3685L140.211 82.5176C140.264 82.5475 140.296 82.6029 140.296 82.6631C140.296 82.7234 140.265 82.7793 140.213 82.8097L108.512 101.259C108.486 101.274 108.456 101.281 108.427 101.281ZM103.273 97.9628L108.427 100.918L139.79 82.6647L134.636 79.7094L103.273 97.9628Z" fill="#383C43"/>
<path d="M139.8 97.8241L134.308 100.973L102.607 82.5239L108.099 79.375L139.8 97.8241Z" fill="#212121"/>
<path d="M134.308 101.142C134.279 101.142 134.249 101.134 134.223 101.119L102.522 82.67C102.47 82.6396 102.438 82.5837 102.438 82.5234C102.438 82.4635 102.471 82.4078 102.523 82.3779L108.015 79.2288C108.066 79.1992 108.131 79.1989 108.183 79.2291L139.884 97.6785C139.937 97.7088 139.968 97.7647 139.968 97.825C139.968 97.8853 139.936 97.9406 139.883 97.9705L134.391 101.119C134.366 101.134 134.337 101.142 134.308 101.142ZM102.944 82.5251L134.308 100.779L139.462 97.8235L108.098 79.5698L102.944 82.5251Z" fill="#383C43"/>
<path d="M102.919 132.788L108.421 135.946L108.438 101.113L102.936 97.9629L102.919 132.788Z" fill="#212121"/>
<path d="M108.421 136.115C108.392 136.115 108.363 136.107 108.337 136.093L102.835 132.934C102.782 132.904 102.75 132.848 102.75 132.788L102.767 97.963C102.767 97.9028 102.799 97.8474 102.851 97.8171C102.902 97.7867 102.967 97.7871 103.019 97.8168L108.521 100.967C108.574 100.996 108.606 101.052 108.606 101.113L108.59 135.947C108.59 136.007 108.558 136.062 108.505 136.092C108.48 136.107 108.45 136.115 108.421 136.115ZM103.087 132.691L108.252 135.655L108.269 101.211L103.104 98.2539L103.087 132.691Z" fill="#383C43"/>
<path d="M139.978 132.605L134.476 135.763L134.459 100.929L139.961 97.7793L139.978 132.605Z" fill="#212121"/>
<path d="M134.475 135.931C134.446 135.931 134.416 135.924 134.391 135.909C134.339 135.879 134.306 135.823 134.306 135.763L134.29 100.929C134.29 100.869 134.322 100.813 134.375 100.783L139.877 97.6331C139.929 97.6035 139.994 97.6032 140.045 97.6334C140.097 97.6638 140.13 97.719 140.13 97.7793L140.146 132.604C140.146 132.665 140.114 132.721 140.061 132.751L134.559 135.909C134.533 135.924 134.504 135.931 134.475 135.931ZM134.627 101.027L134.644 135.472L139.809 132.507L139.792 98.0704L134.627 101.027Z" fill="#383C43"/>
<path d="M79.876 99.8774L79.9554 146.889L121.336 170.937L121.257 123.925L79.876 99.8774Z" fill="#FFBE2E"/>
<path d="M121.337 171.105C121.308 171.105 121.278 171.098 121.252 171.083L79.8708 147.034C79.8194 147.004 79.7871 146.949 79.7871 146.889L79.708 99.8778C79.708 99.8176 79.7402 99.7616 79.7923 99.7313C79.8449 99.7017 79.9089 99.7014 79.9616 99.7316L121.342 123.779C121.394 123.81 121.426 123.865 121.426 123.925L121.505 170.936C121.505 170.997 121.473 171.053 121.421 171.083C121.395 171.098 121.366 171.105 121.337 171.105ZM80.1244 146.791L121.167 170.643L121.089 124.023L80.0459 100.171L80.1244 146.791Z" fill="#383C43"/>
<path d="M121.257 123.925L121.336 170.937L162.801 146.997L162.722 100.205L121.257 123.925Z" fill="#212121"/>
<path d="M121.336 171.105C121.307 171.105 121.278 171.098 121.252 171.083C121.199 171.053 121.167 170.997 121.167 170.937L121.089 123.925C121.089 123.865 121.121 123.809 121.174 123.779L162.639 100.058C162.69 100.029 162.756 100.028 162.807 100.059C162.859 100.089 162.891 100.144 162.891 100.204L162.97 146.997C162.97 147.057 162.937 147.113 162.885 147.143L121.42 171.083C121.394 171.098 121.365 171.105 121.336 171.105ZM121.426 124.023L121.504 170.645L162.632 146.9L162.555 100.495L121.426 124.023Z" fill="#383C43"/>
<path d="M79.8819 99.8789L71.1162 116.988L112.491 141.036L121.256 123.927L79.8819 99.8789Z" fill="#FFF7E4"/>
<path d="M112.49 141.206C112.46 141.206 112.431 141.198 112.405 141.183L71.0309 117.135C70.9539 117.09 70.9249 116.992 70.9658 116.912L79.7312 99.8027C79.7523 99.7613 79.7899 99.7306 79.8339 99.7177C79.8787 99.7039 79.9255 99.7101 79.9664 99.7335L121.341 123.781C121.418 123.827 121.447 123.924 121.406 124.004L112.64 141.114C112.619 141.155 112.582 141.186 112.538 141.199C112.522 141.203 112.506 141.206 112.49 141.206ZM71.3393 116.923L112.421 140.802L121.033 123.993L79.9506 100.115L71.3393 116.923Z" fill="#383C43"/>
<path d="M162.722 100.194L171.488 117.304L130.023 141.035L121.257 123.925L162.722 100.194Z" fill="#FFF7E4"/>
<path d="M130.024 141.204C130.008 141.204 129.991 141.202 129.975 141.197C129.931 141.184 129.894 141.153 129.873 141.112L121.107 124.003C121.066 123.923 121.096 123.824 121.174 123.78L162.639 100.049C162.679 100.026 162.727 100.02 162.771 100.033C162.815 100.046 162.852 100.077 162.873 100.118L171.639 117.228C171.68 117.308 171.651 117.406 171.572 117.451L130.107 141.182C130.081 141.196 130.053 141.204 130.024 141.204ZM121.481 123.992L130.093 140.801L171.265 117.238L162.653 100.429L121.481 123.992Z" fill="#383C43"/>
<path d="M84.5993 137.088C84.6634 137.125 84.7282 137.192 84.7771 137.279L86.5271 140.483C86.6673 140.739 86.5593 140.962 86.3515 140.842L85.6008 140.409L85.5819 146.374C85.5816 146.487 85.501 146.533 85.4027 146.476L83.7448 145.519C83.6443 145.461 83.5663 145.324 83.5666 145.211L83.5854 139.245L82.8347 138.812C82.6269 138.692 82.5205 138.345 82.6595 138.25L84.4241 137.075C84.4712 137.043 84.535 137.051 84.5993 137.088Z" fill="#383C43"/>
<path d="M85.4832 146.67C85.4291 146.67 85.3731 146.654 85.3192 146.623L83.6607 145.666C83.5073 145.577 83.3973 145.385 83.3986 145.21L83.417 139.343L82.7511 138.958C82.5482 138.841 82.4356 138.597 82.429 138.416C82.4244 138.282 82.4725 138.174 82.5653 138.111L84.3312 136.935C84.4307 136.868 84.5591 136.871 84.6836 136.941C84.6843 136.942 84.6843 136.942 84.6849 136.942C84.777 136.996 84.8627 137.087 84.9246 137.197L86.6753 140.403C86.792 140.615 86.786 140.841 86.6602 140.963C86.5818 141.04 86.4383 141.087 86.2676 140.988L85.769 140.7L85.7512 146.375C85.7505 146.491 85.7005 146.585 85.6136 146.635C85.574 146.658 85.5293 146.67 85.4832 146.67ZM84.4919 137.224L82.7536 138.391C82.7497 138.421 82.8057 138.6 82.9196 138.666L83.6699 139.099C83.7219 139.129 83.7541 139.185 83.7541 139.246L83.7357 145.211C83.7357 145.265 83.7832 145.347 83.8299 145.374L85.414 146.288L85.4324 140.408C85.4324 140.348 85.4647 140.293 85.5167 140.263C85.5693 140.233 85.6326 140.233 85.6853 140.263L86.421 140.687C86.4184 140.658 86.4078 140.616 86.3795 140.564L84.6294 137.36C84.5985 137.305 84.5556 137.257 84.5155 137.234C84.4998 137.225 84.4919 137.224 84.4919 137.224Z" fill="#383C43"/>
<path d="M89.7441 140.058C89.8081 140.095 89.8716 140.161 89.9184 140.247L91.6705 143.453C91.8108 143.708 91.7006 143.93 91.4928 143.81L90.742 143.377L90.7232 149.342C90.7229 149.455 90.6444 149.503 90.5438 149.445L88.886 148.487C88.7877 148.431 88.7075 148.292 88.7078 148.179L88.7266 142.213L87.9759 141.78C87.768 141.66 87.6616 141.313 87.8051 141.221L89.5674 140.045C89.6159 140.014 89.6802 140.021 89.7441 140.058Z" fill="#383C43"/>
<path d="M90.6246 149.638C90.5706 149.638 90.514 149.622 90.4592 149.59L88.8014 148.633C88.6518 148.547 88.5386 148.352 88.5386 148.179L88.5577 142.31L87.8912 141.925C87.6864 141.807 87.5744 141.562 87.5705 141.381C87.5672 141.249 87.6199 141.139 87.714 141.078L89.4732 139.904C89.578 139.837 89.7064 139.841 89.8283 139.912C89.9218 139.966 90.0062 140.057 90.066 140.166L91.8181 143.371C91.934 143.583 91.9274 143.808 91.8023 143.93C91.7239 144.008 91.579 144.054 91.4078 143.956L90.9092 143.668L90.8914 149.343C90.8907 149.459 90.8406 149.554 90.7537 149.604C90.7142 149.627 90.6701 149.638 90.6246 149.638ZM89.6347 140.194L87.8985 141.361C87.8919 141.393 87.9472 141.569 88.0598 141.634L88.8107 142.067C88.8627 142.097 88.895 142.153 88.895 142.214L88.8759 148.179C88.8759 148.231 88.9239 148.315 88.9694 148.341L90.554 149.256L90.5725 143.376C90.5725 143.316 90.6047 143.26 90.6567 143.23C90.7094 143.201 90.7727 143.2 90.8254 143.231L91.5631 143.656C91.5605 143.628 91.5506 143.586 91.5223 143.533L89.7697 140.328C89.74 140.273 89.6985 140.227 89.659 140.204C89.659 140.204 89.6584 140.204 89.6584 140.203C89.6425 140.195 89.6347 140.194 89.6347 140.194Z" fill="#383C43"/>
<path d="M177.547 162.546C177.547 163.141 177.154 163.743 176.368 164.195L149.726 179.661C149.319 179.898 148.854 180.07 148.354 180.185C147.433 180.393 146.411 180.393 145.496 180.185C144.996 180.07 144.525 179.898 144.117 179.661L135.716 174.764C134.944 174.312 134.558 173.731 134.558 173.143L134.544 169.049C134.544 169.085 134.544 169.128 134.558 169.164C134.558 169.2 134.558 169.235 134.565 169.271C134.587 169.4 134.63 169.522 134.687 169.651C134.687 169.651 134.687 169.651 134.694 169.659C134.715 169.709 134.744 169.759 134.772 169.809C134.78 169.823 134.787 169.838 134.794 169.845C134.83 169.902 134.865 169.953 134.908 170.003C134.908 170.01 134.915 170.017 134.922 170.017C134.958 170.075 135.008 170.125 135.058 170.175C135.23 170.354 135.444 170.519 135.701 170.67L144.103 175.574C144.51 175.811 144.989 175.983 145.496 176.098C146.418 176.299 147.439 176.298 148.354 176.083C148.847 175.976 149.311 175.804 149.711 175.574L176.36 160.101C177.139 159.649 177.532 159.054 177.532 158.458L177.547 162.546Z" fill="#212121"/>
<path d="M146.925 180.51C146.428 180.51 145.932 180.456 145.461 180.349C144.921 180.225 144.441 180.043 144.035 179.807L135.633 174.909C134.833 174.441 134.392 173.813 134.392 173.143L134.378 169.069C134.378 169.062 134.378 169.055 134.378 169.049C134.378 168.956 134.453 168.88 134.547 168.88C134.639 168.88 134.715 168.955 134.715 169.048V169.064C134.715 169.079 134.716 169.095 134.718 169.102C134.722 169.118 134.73 169.147 134.73 169.164C134.73 169.188 134.728 169.213 134.733 169.238C134.751 169.341 134.782 169.441 134.835 169.563C134.841 169.573 134.847 169.583 134.851 169.591C134.871 169.637 134.896 169.681 134.922 169.726C134.97 169.804 135.001 169.848 135.037 169.891C135.049 169.901 135.06 169.914 135.069 169.928C135.093 169.968 135.135 170.01 135.178 170.053C135.343 170.226 135.547 170.383 135.789 170.524L144.19 175.428C144.565 175.646 145.018 175.816 145.536 175.933C146.446 176.131 147.436 176.127 148.318 175.919C148.8 175.814 149.253 175.644 149.63 175.428L176.278 159.955C176.98 159.548 177.366 159.016 177.366 158.458C177.366 158.365 177.441 158.29 177.535 158.29C177.628 158.29 177.704 158.365 177.704 158.458L177.718 162.545C177.718 162.545 177.718 162.545 177.718 162.545C177.718 163.225 177.258 163.88 176.455 164.341L149.813 179.807C149.404 180.044 148.927 180.227 148.394 180.349C147.92 180.456 147.422 180.51 146.925 180.51ZM134.718 170.031L134.73 173.142C134.73 173.689 135.111 174.212 135.803 174.618L144.205 179.516C144.581 179.734 145.029 179.904 145.536 180.02C146.431 180.224 147.419 180.224 148.32 180.02C148.819 179.905 149.265 179.735 149.644 179.515L176.286 164.049C176.982 163.649 177.381 163.101 177.381 162.546L177.37 159.446C177.158 159.743 176.847 160.015 176.448 160.246L149.799 175.72C149.385 175.957 148.912 176.135 148.392 176.248C147.465 176.465 146.423 176.471 145.463 176.262C144.91 176.137 144.425 175.955 144.021 175.72L135.619 170.815C135.35 170.657 135.121 170.482 134.939 170.291C134.891 170.242 134.836 170.188 134.793 170.123C134.789 170.119 134.786 170.115 134.783 170.111L134.782 170.112C134.76 170.085 134.739 170.058 134.718 170.031Z" fill="#383C43"/>
<path d="M148.355 176.083V180.185C147.433 180.393 146.412 180.393 145.497 180.185V176.098C146.419 176.299 147.44 176.299 148.355 176.083Z" fill="#FFBE2E"/>
<path d="M146.925 180.51C146.428 180.51 145.932 180.456 145.461 180.349C144.921 180.225 144.441 180.043 144.035 179.807L135.633 174.909C134.833 174.441 134.392 173.813 134.392 173.143L134.378 169.069C134.378 169.062 134.378 169.055 134.378 169.049C134.378 168.956 134.453 168.88 134.547 168.88C134.639 168.88 134.715 168.955 134.715 169.048V169.064C134.715 169.079 134.716 169.095 134.718 169.102C134.722 169.118 134.73 169.147 134.73 169.164C134.73 169.188 134.728 169.213 134.733 169.238C134.751 169.341 134.782 169.441 134.835 169.563C134.841 169.573 134.847 169.583 134.851 169.591C134.871 169.637 134.896 169.681 134.922 169.726C134.97 169.804 135.001 169.848 135.037 169.891C135.049 169.901 135.06 169.914 135.069 169.928C135.093 169.968 135.135 170.01 135.178 170.053C135.343 170.226 135.547 170.383 135.789 170.524L144.19 175.428C144.565 175.646 145.018 175.816 145.536 175.933C146.446 176.131 147.436 176.127 148.318 175.919C148.8 175.814 149.253 175.644 149.63 175.428L176.278 159.955C176.98 159.548 177.366 159.016 177.366 158.458C177.366 158.365 177.441 158.29 177.535 158.29C177.628 158.29 177.704 158.365 177.704 158.458L177.718 162.545C177.718 162.545 177.718 162.545 177.718 162.545C177.718 163.225 177.258 163.88 176.455 164.341L149.813 179.807C149.404 180.044 148.927 180.227 148.394 180.349C147.92 180.456 147.422 180.51 146.925 180.51ZM134.718 170.031L134.73 173.142C134.73 173.689 135.111 174.212 135.803 174.618L144.205 179.516C144.581 179.734 145.029 179.904 145.536 180.02C146.431 180.224 147.419 180.224 148.32 180.02C148.819 179.905 149.265 179.735 149.644 179.515L176.286 164.049C176.982 163.649 177.381 163.101 177.381 162.546L177.37 159.446C177.158 159.743 176.847 160.015 176.448 160.246L149.799 175.72C149.385 175.957 148.912 176.135 148.392 176.248C147.465 176.465 146.423 176.471 145.463 176.262C144.91 176.137 144.425 175.955 144.021 175.72L135.619 170.815C135.35 170.657 135.121 170.482 134.939 170.291C134.891 170.242 134.836 170.188 134.793 170.123C134.789 170.119 134.786 170.115 134.783 170.111L134.782 170.112C134.76 170.085 134.739 170.058 134.718 170.031Z" fill="#383C43"/>
<path d="M177.534 158.459C177.534 159.054 177.141 159.649 176.362 160.101L149.713 175.575C148.163 176.471 145.648 176.471 144.105 175.575L135.703 170.67C135.446 170.52 135.232 170.355 135.06 170.175C135.01 170.125 134.96 170.075 134.924 170.018C134.917 170.018 134.91 170.01 134.91 170.003C134.867 169.953 134.832 169.903 134.796 169.846C134.789 169.838 134.781 169.824 134.774 169.81C134.746 169.759 134.717 169.709 134.696 169.659C134.689 169.652 134.689 169.652 134.689 169.652C134.632 169.53 134.589 169.401 134.567 169.272C134.56 169.236 134.56 169.2 134.56 169.164C134.503 168.533 134.896 167.888 135.725 167.407L162.367 151.941C163.917 151.037 166.432 151.037 167.982 151.941L176.384 156.838C177.148 157.29 177.534 157.878 177.534 158.459Z" fill="#FFF7E4"/>
<path d="M146.905 176.412C145.859 176.412 144.814 176.181 144.019 175.72L135.617 170.815C135.349 170.657 135.12 170.482 134.938 170.291C134.89 170.242 134.835 170.188 134.791 170.123C134.788 170.119 134.785 170.115 134.782 170.111L134.781 170.112C134.733 170.055 134.693 169.998 134.652 169.933C134.649 169.929 134.625 169.889 134.623 169.884C134.599 169.842 134.573 169.795 134.55 169.747C134.544 169.738 134.539 169.73 134.535 169.723C134.468 169.581 134.423 169.438 134.4 169.298C134.392 169.257 134.391 169.21 134.391 169.163C134.326 168.458 134.781 167.759 135.64 167.261L162.281 151.794C163.877 150.865 166.472 150.865 168.067 151.795L176.469 156.692C177.264 157.163 177.702 157.79 177.702 158.458C177.702 159.141 177.256 159.776 176.447 160.246L149.797 175.72C148.999 176.181 147.951 176.412 146.905 176.412ZM135.036 169.891C135.048 169.901 135.058 169.914 135.067 169.928C135.092 169.968 135.133 170.01 135.177 170.053C135.342 170.226 135.546 170.382 135.787 170.524L144.189 175.428C145.684 176.297 148.124 176.297 149.628 175.428L176.277 159.955C176.978 159.548 177.365 159.016 177.365 158.458C177.365 157.914 176.986 157.39 176.298 156.983L167.897 152.086C166.395 151.211 163.953 151.211 162.451 152.086L135.809 167.553C135.069 167.982 134.674 168.564 134.728 169.148C134.728 169.188 134.727 169.213 134.732 169.238C134.75 169.347 134.784 169.454 134.832 169.562C134.839 169.572 134.846 169.582 134.85 169.591C134.87 169.636 134.895 169.681 134.921 169.726C134.969 169.804 135 169.848 135.036 169.891Z" fill="#383C43"/>
<path d="M33.5279 76.4484L31.2683 75.1354L31.2578 71.4307L33.5174 72.7437L33.5279 76.4484Z" fill="#383C43"/>
<path d="M33.5282 76.6176C33.4991 76.6176 33.4695 76.61 33.4432 76.5948L31.184 75.2818C31.1327 75.2515 31.1004 75.1962 31.1004 75.1363L31.0898 71.4317C31.0898 71.3714 31.1221 71.3155 31.1741 71.2854C31.2268 71.2551 31.2907 71.2551 31.3434 71.2854L33.6033 72.5985C33.6546 72.6288 33.6869 72.684 33.6869 72.744L33.6968 76.4486C33.6968 76.5089 33.6646 76.5648 33.6126 76.5948C33.5861 76.61 33.5571 76.6176 33.5282 76.6176ZM31.4376 75.0387L33.3589 76.1554L33.3497 72.8414L31.4278 71.7247L31.4376 75.0387Z" fill="#383C43"/>
<path d="M62.8998 30.6228C62.5268 30.4037 62.0059 30.4333 61.4375 30.7648L32.4892 47.4767C31.3467 48.1339 30.4291 49.7323 30.435 51.0346L30.4942 72.1153C30.4942 72.7666 30.7251 73.2224 31.0981 73.4415L28.8378 72.1269C28.4648 71.9079 28.234 71.4521 28.234 70.8009L28.1748 49.7262C28.1689 48.4178 29.0924 46.8194 30.229 46.1624L59.1774 29.4505C59.7456 29.119 60.2667 29.0894 60.6396 29.3085L62.8998 30.6228Z" fill="#212121"/>
<path d="M31.0996 73.6098C31.0707 73.6098 31.0417 73.6026 31.0146 73.5871L28.7541 72.2728C28.3108 72.0123 28.0671 71.4896 28.0671 70.8007L28.0078 49.7263C28.0019 48.3661 28.9609 46.7018 30.1459 46.0161L59.0945 29.3043C59.6913 28.9562 60.2867 28.9035 60.7266 29.1631L62.9805 30.4735C62.9818 30.4745 62.9838 30.4755 62.9858 30.4768H62.9866C62.9866 30.4771 62.9866 30.4771 62.9866 30.4771C63.0669 30.5241 63.094 30.6272 63.0471 30.7076C62.9991 30.788 62.897 30.8146 62.8166 30.7686V30.7683C62.8159 30.768 62.8153 30.7676 62.8153 30.7676L62.812 30.7659C62.48 30.5739 62.0124 30.6256 61.5243 30.9104L32.5751 47.6226C31.483 48.2506 30.5991 49.7806 30.605 51.0338L30.6643 72.1147C30.6643 72.6786 30.8487 73.0978 31.184 73.2954H31.1847C31.1847 73.2957 31.1847 73.2957 31.1854 73.296C31.2651 73.3432 31.2921 73.4462 31.2454 73.5262C31.2136 73.5799 31.1576 73.6098 31.0996 73.6098ZM60.0991 29.3372C59.8448 29.3372 59.5576 29.4245 59.2639 29.5958L30.3145 46.3079C29.2232 46.9395 28.3393 48.4725 28.3452 49.7253L28.4044 70.8003C28.4044 71.3651 28.5888 71.7844 28.9248 71.9816L30.445 72.8655C30.3673 72.6468 30.3271 72.3945 30.3271 72.1149L30.2678 51.0346C30.2619 49.6738 31.2208 48.012 32.4064 47.3303L61.3551 30.619C61.6008 30.4755 61.8465 30.3822 62.0809 30.3404L60.5561 29.4543C60.4238 29.3758 60.2683 29.3372 60.0991 29.3372Z" fill="#212121"/>
<path d="M61.4371 30.7631C62.5747 30.1063 63.5001 30.6379 63.5038 31.9452L63.5635 53.0223C63.5672 54.3296 62.648 55.9261 61.5104 56.583L37.2412 70.5948L33.5287 76.4489L33.5182 72.7442L32.562 73.2963C31.4242 73.9531 30.499 73.4215 30.4953 72.1142L30.4356 51.0371C30.4319 49.7298 31.3511 48.1333 32.4887 47.4764L61.4371 30.7631Z" fill="#FFF7E4"/>
<path d="M33.5282 76.6175C33.5123 76.6175 33.4965 76.6152 33.4814 76.6109C33.4096 76.5902 33.3596 76.5243 33.3596 76.4492L33.3504 73.0357L32.6463 73.4421C32.041 73.7916 31.4627 73.8429 31.0175 73.5871C30.5742 73.3318 30.3285 72.8089 30.3266 72.115L30.2666 51.0377C30.2633 49.6759 31.2224 48.0128 32.4046 47.3308L61.3526 30.6174C61.9579 30.2673 62.5356 30.216 62.9809 30.4724C63.4248 30.7277 63.6704 31.2506 63.6724 31.9445L63.7324 53.0221C63.7357 54.3839 62.7766 56.0467 61.5944 56.7287L37.3609 70.7198L33.6704 76.539C33.6388 76.5888 33.5848 76.6175 33.5282 76.6175ZM33.5183 72.5756C33.5472 72.5756 33.5762 72.5832 33.6025 72.598C33.6546 72.6279 33.6868 72.6836 33.6868 72.7439L33.6954 75.8706L37.0987 70.5045C37.1132 70.4815 37.133 70.4624 37.1567 70.4488L61.4256 56.4369C62.515 55.8085 63.3983 54.2768 63.395 53.0228L63.335 31.9454C63.333 31.3766 63.1479 30.9574 62.8127 30.7647C62.4775 30.5704 62.019 30.6218 61.5211 30.909L32.5731 47.6224C31.4837 48.2507 30.6004 49.7824 30.6037 51.0369L30.6637 72.1139C30.6657 72.6827 30.8508 73.1019 31.1853 73.2946C31.5233 73.4889 31.9816 73.4372 32.4776 73.1503L33.434 72.5984C33.4603 72.5832 33.4893 72.5756 33.5183 72.5756Z" fill="#383C43"/>
<path d="M49.231 47.5273C49.6997 47.2567 50.079 47.4728 50.0805 48.0113C50.082 48.5499 49.7053 49.2067 49.2366 49.4773L37.0123 56.5349C36.5437 56.8055 36.1607 56.5873 36.1592 56.0488C36.1577 55.5102 36.5382 54.8555 37.0068 54.5848L49.231 47.5273Z" fill="#FFF7E4"/>
<path d="M42.0437 56.8061C42.5123 56.5355 42.8916 56.7516 42.8931 57.2902C42.8946 57.8287 42.5179 58.4856 42.0493 58.7561L37.0123 61.6642C36.5437 61.9348 36.1607 61.7166 36.1592 61.178C36.1577 60.6395 36.5382 59.9847 37.0068 59.7142L42.0437 56.8061Z" fill="#212121"/>
<path d="M36.6311 61.9497C36.5205 61.9497 36.417 61.9234 36.3242 61.8697C36.1095 61.7462 35.9909 61.5008 35.9902 61.1784C35.9882 60.578 36.3972 59.8706 36.9223 59.568L41.959 56.66C42.2416 56.4963 42.5156 56.4762 42.7283 56.5994C42.9424 56.7223 43.0602 56.9676 43.0609 57.2897C43.0629 57.892 42.6552 58.6004 42.1329 58.9021L37.0961 61.8101C36.9354 61.9029 36.7773 61.9497 36.6311 61.9497ZM42.1277 56.9518L37.0909 59.8601C36.6753 60.0998 36.3256 60.7031 36.3276 61.1774C36.3283 61.3717 36.3881 61.5173 36.4929 61.5775C36.5989 61.6378 36.7571 61.6167 36.9277 61.5183L41.9644 58.6103C42.378 58.3715 42.7258 57.7672 42.7239 57.2906C42.7232 57.0963 42.6639 56.9511 42.5605 56.8915C42.4556 56.832 42.2982 56.853 42.1277 56.9518Z" fill="#383C43"/>
<path d="M79.5307 39.3027C79.1577 39.0836 78.6368 39.1132 78.0625 39.4447L49.1201 56.1566C47.9835 56.8137 47.06 58.4063 47.06 59.7145L47.1192 80.7952C47.1251 81.4465 47.3501 81.9023 47.723 82.1153L45.4628 80.8009C45.0957 80.5879 44.8649 80.132 44.859 79.4808L44.7998 58.4001C44.7998 57.0916 45.7233 55.4993 46.86 54.842L75.8023 38.1301C76.3766 37.7987 76.8975 37.7691 77.2705 37.9882L79.5307 39.3027Z" fill="#212121"/>
<path d="M47.7247 82.2833C47.6964 82.2833 47.6673 82.2761 47.641 82.2613C47.6364 82.2583 47.6318 82.2557 47.6265 82.2527L45.3792 80.9462C44.9418 80.6922 44.6981 80.1719 44.6915 79.4816L44.6328 58.3997C44.6328 57.0408 45.5945 55.379 46.7768 54.6954L75.7194 37.9836C76.3306 37.6308 76.9116 37.5802 77.3575 37.8423L79.6087 39.1517C79.6113 39.1533 79.614 39.155 79.6173 39.1566C79.697 39.2038 79.724 39.3068 79.6773 39.3869C79.6292 39.4673 79.5271 39.4939 79.4468 39.4478L79.4396 39.4435C79.1036 39.2505 78.6459 39.3033 78.148 39.5901L49.206 56.3019C48.1166 56.9316 47.23 58.4622 47.23 59.7137L47.2893 80.7943C47.2946 81.3568 47.4751 81.7711 47.7984 81.9625L47.8096 81.9688C47.89 82.0155 47.917 82.1183 47.8708 82.199C47.8393 82.253 47.7827 82.2833 47.7247 82.2833ZM76.7274 38.0146C76.4744 38.0146 76.1886 38.1022 75.8882 38.2758L46.9454 54.9873C45.856 55.6176 44.9701 57.1483 44.9701 58.3995L45.0288 79.4798C45.0341 80.0453 45.2185 80.4629 45.5491 80.6545L47.0713 81.5398C46.9955 81.3237 46.9546 81.0741 46.952 80.7965L46.8928 59.7142C46.8928 58.355 47.855 56.6936 49.0373 56.0102L77.9794 39.2984C78.2296 39.1538 78.4747 39.06 78.7078 39.0178L77.187 38.1335C77.0521 38.0542 76.8972 38.0146 76.7274 38.0146Z" fill="#212121"/>
<path d="M78.064 39.4446C79.2016 38.7878 80.1306 39.3129 80.1343 40.6202L80.1941 61.7017C80.1978 63.0091 79.2748 64.6033 78.1371 65.2602L77.1847 65.8102L77.1952 69.5149L73.458 67.9618L49.1926 81.9713C48.055 82.6281 47.126 82.103 47.1223 80.7957L47.0625 59.7142C47.0588 58.4069 47.9818 56.8126 49.1195 56.1557L78.064 39.4446Z" fill="#FFF7E4"/>
<path d="M48.2656 82.4248C48.0397 82.4248 47.829 82.3711 47.6425 82.2634C47.1999 82.0089 46.9555 81.4879 46.9535 80.7966L46.8936 59.7152C46.8897 58.3568 47.8499 56.6946 49.0349 56.0102L77.9796 39.2992C78.5869 38.9494 79.1685 38.8964 79.6137 39.1536C80.0564 39.4082 80.3007 39.9292 80.3027 40.6205L80.3627 61.7018C80.3666 63.0603 79.4063 64.7224 78.2213 65.4068L77.3533 65.9077L77.3638 69.5152C77.3638 69.5716 77.3362 69.6242 77.2887 69.6555C77.2426 69.6868 77.1814 69.692 77.1306 69.6713L73.4705 68.1501L49.2767 82.1179C48.9237 82.3217 48.5799 82.4248 48.2656 82.4248ZM78.1483 39.5911L49.2036 56.3021C48.1122 56.9328 47.2269 58.4635 47.2309 59.7143L47.2909 80.796C47.2922 81.3617 47.4766 81.7794 47.8106 81.9713C48.1478 82.1653 48.6089 82.1136 49.1082 81.8261L73.3738 67.8165C73.4192 67.7902 73.4759 67.7869 73.5227 67.8066L77.026 69.2626L77.0161 65.8109C77.0161 65.7507 77.0484 65.6947 77.1004 65.6647L78.0529 65.115C79.1443 64.4844 80.0295 62.9537 80.0255 61.7028L79.9656 40.6212C79.9643 40.0554 79.7798 39.6378 79.4459 39.4458C79.1073 39.2508 78.6463 39.3032 78.1483 39.5911Z" fill="#383C43"/>
<path d="M54.957 60.5473L54.9866 70.8587C54.9925 71.8191 55.67 72.2022 56.5067 71.7249L70.7895 63.4757C71.6264 62.9925 72.3038 61.8199 72.298 60.8596L72.2685 50.554C72.2685 49.5993 71.5909 49.2105 70.7543 49.6936L56.4655 57.9429C55.6287 58.426 54.957 59.5927 54.957 60.5473Z" fill="#FFBE2E"/>
<path d="M61.7932 65.9204C61.699 65.9204 61.6035 65.9006 61.5127 65.8588L58.3623 64.4127C58.0238 64.2573 57.8749 63.8572 58.0304 63.5186C58.1858 63.1798 58.5869 63.0316 58.9249 63.187L61.5226 64.3795L66.5784 55.8292C66.7681 55.5088 67.1831 55.4026 67.5018 55.5917C67.8225 55.7814 67.9287 56.195 67.739 56.5155L62.3742 65.5891C62.2497 65.8005 62.0258 65.9204 61.7932 65.9204Z" fill="#212121"/>
<g opacity="0.1">
<path d="M48.3826 201.637L66.8076 190.929L48.4141 180.31L29.9893 191.017L48.3826 201.637Z" fill="#010101"/>
</g>
<path d="M46.5615 197.947L64.9865 187.239L65.0465 166.1L46.6215 176.807L46.5615 197.947Z" fill="#212121"/>
<path d="M46.5611 198.115C46.5321 198.115 46.5032 198.107 46.4769 198.092C46.4248 198.062 46.3926 198.006 46.3926 197.946L46.4525 176.806C46.4525 176.746 46.4849 176.691 46.5362 176.661L64.9615 165.953C65.0142 165.923 65.0781 165.923 65.1308 165.953C65.1828 165.983 65.2151 166.039 65.2151 166.1L65.1551 187.239C65.1551 187.299 65.1229 187.354 65.0714 187.385L46.6461 198.092C46.6198 198.107 46.5902 198.115 46.5611 198.115ZM46.7897 176.904L46.7304 197.653L64.8178 187.142L64.877 166.393L46.7897 176.904Z" fill="#383C43"/>
<path d="M46.6228 176.807L65.0478 166.1L46.6545 155.48L28.2295 166.188L46.6228 176.807Z" fill="#FFF7E4"/>
<path d="M46.6228 176.975C46.5938 176.975 46.5648 176.968 46.5385 176.953L28.1448 166.333C28.0928 166.303 28.0605 166.247 28.0605 166.188C28.0605 166.127 28.0922 166.072 28.1442 166.041L46.5695 155.334C46.6222 155.303 46.6861 155.303 46.7388 155.334L65.1324 165.953C65.1845 165.983 65.2167 166.039 65.2167 166.099C65.2167 166.159 65.1851 166.215 65.133 166.245L46.7078 176.953C46.6813 176.968 46.6517 176.975 46.6228 176.975ZM28.5656 166.187L46.6228 176.612L64.7115 166.1L46.6544 155.675L28.5656 166.187Z" fill="#383C43"/>
<path d="M35.2549 170.248L39.5399 172.72L57.9658 162.014L53.6808 159.541L35.2549 170.248Z" fill="#212121"/>
<path d="M39.5397 172.889C39.5108 172.889 39.4817 172.881 39.4554 172.866L35.1702 170.394C35.1182 170.364 35.0859 170.308 35.0859 170.248C35.0859 170.188 35.1176 170.132 35.1696 170.102L53.5955 159.395C53.6482 159.365 53.7121 159.365 53.7648 159.395L58.0501 161.868C58.1021 161.898 58.1343 161.953 58.1343 162.013C58.1343 162.073 58.1027 162.129 58.0507 162.159L39.6247 172.866C39.5982 172.881 39.5686 172.889 39.5397 172.889ZM35.591 170.247L39.5397 172.525L57.629 162.014L53.6804 159.736L35.591 170.247Z" fill="#383C43"/>
<path d="M28.168 187.328L46.5639 197.947L46.6231 176.808L39.5404 172.72L35.2554 170.248L28.227 166.189L28.168 187.328Z" fill="#FFBE2E"/>
<path d="M46.5642 198.117C46.5353 198.117 46.5063 198.109 46.4799 198.094L28.0843 187.475C28.0322 187.445 28 187.389 28 187.329L28.0593 166.189C28.0593 166.129 28.0916 166.073 28.1435 166.043C28.1962 166.014 28.2595 166.013 28.3122 166.044L46.7079 176.663C46.7599 176.693 46.7922 176.749 46.7922 176.809L46.7329 197.948C46.7329 198.009 46.7007 198.064 46.6486 198.094C46.6222 198.109 46.5933 198.117 46.5642 198.117ZM28.3372 187.232L46.3963 197.657L46.4549 176.906L28.3959 166.481L28.3372 187.232Z" fill="#383C43"/>
<path d="M35.2441 175.709L39.5291 178.187L39.5389 172.72L35.254 170.247L35.2441 175.709Z" fill="#212121"/>
<path d="M39.5319 178.356C39.5029 178.356 39.4739 178.349 39.4476 178.333L35.1624 175.856C35.1104 175.826 35.0781 175.77 35.0781 175.71L35.088 170.248C35.088 170.187 35.1203 170.132 35.1723 170.102C35.225 170.072 35.2882 170.072 35.3409 170.102L39.6262 172.575C39.6782 172.605 39.7104 172.661 39.7104 172.721L39.7005 178.188C39.7005 178.248 39.6682 178.303 39.6163 178.334C39.5898 178.349 39.5608 178.356 39.5319 178.356ZM35.4153 175.613L39.3639 177.896L39.3731 172.818L35.4245 170.54L35.4153 175.613Z" fill="#383C43"/>
<path d="M39.9725 185.382C40.0166 185.407 40.0612 185.453 40.0949 185.513L41.2989 187.718C41.3954 187.894 41.321 188.047 41.1781 187.965L40.6616 187.667L40.6487 192.234C40.6485 192.312 40.5929 192.344 40.5254 192.305L39.3847 191.646C39.3155 191.606 39.2619 191.512 39.2621 191.434L39.275 186.866L38.7585 186.568C38.6155 186.485 38.5423 186.247 38.638 186.181L39.8521 185.373C39.8844 185.351 39.9284 185.356 39.9725 185.382Z" fill="#383C43"/>
<path d="M43.5112 187.426C43.5553 187.452 43.599 187.497 43.6312 187.557L44.8367 189.762C44.9332 189.938 44.8573 190.09 44.7143 190.008L44.1978 189.71L44.1849 194.278C44.1847 194.355 44.1308 194.388 44.0615 194.348L42.9209 193.689C42.8532 193.65 42.798 193.555 42.7982 193.477L42.8111 188.909L42.2946 188.611C42.1517 188.528 42.0784 188.29 42.1771 188.226L43.3896 187.417C43.423 187.396 43.4672 187.401 43.5112 187.426Z" fill="#383C43"/>
<path d="M178.305 195.92C177.43 195.92 176.555 195.727 175.887 195.341L162.547 187.55C162.467 187.503 162.44 187.399 162.487 187.319C162.534 187.238 162.638 187.21 162.717 187.258L176.056 195.049C177.299 195.766 179.312 195.767 180.545 195.049L196.941 185.519C197.022 185.472 197.124 185.499 197.171 185.58C197.218 185.66 197.191 185.764 197.11 185.811L180.715 195.341C180.052 195.727 179.179 195.92 178.305 195.92Z" fill="#DBDEE4"/>
<path d="M195.514 184.079C194.295 184.783 194.289 185.925 195.5 186.629C196.711 187.333 198.682 187.333 199.901 186.629C201.12 185.925 201.126 184.783 199.915 184.079C198.704 183.375 196.733 183.375 195.514 184.079Z" fill="white"/>
<path d="M197.696 187.322C196.868 187.322 196.042 187.14 195.414 186.775C194.777 186.404 194.426 185.901 194.427 185.358C194.427 184.812 194.784 184.306 195.43 183.933C196.693 183.203 198.742 183.203 199.999 183.933C200.637 184.304 200.988 184.807 200.987 185.35C200.986 185.895 200.63 186.402 199.985 186.774C199.352 187.14 198.524 187.322 197.696 187.322ZM197.717 183.718C196.951 183.718 196.183 183.887 195.599 184.224C195.061 184.535 194.765 184.938 194.764 185.359C194.763 185.776 195.054 186.175 195.584 186.483C196.747 187.159 198.645 187.159 199.816 186.483C200.353 186.172 200.649 185.77 200.65 185.349C200.65 184.932 200.359 184.533 199.829 184.225C199.248 183.887 198.483 183.718 197.717 183.718Z" fill="#DBDEE4"/>
<path d="M197.699 186.158C198.175 186.158 198.634 186.05 198.961 185.861C199.223 185.71 199.374 185.524 199.374 185.351C199.375 185.18 199.227 184.996 198.969 184.846C198.645 184.658 198.187 184.55 197.713 184.55C197.238 184.55 196.778 184.658 196.452 184.846C196.189 184.998 196.038 185.184 196.038 185.358C196.038 185.529 196.185 185.712 196.443 185.862C196.767 186.05 197.225 186.158 197.699 186.158Z" fill="#FFBE2E"/>
<path d="M172.035 193.474C172.545 193.474 173.039 193.358 173.39 193.155C173.672 192.992 173.834 192.792 173.834 192.607C173.834 192.423 173.676 192.226 173.399 192.065C173.051 191.862 172.559 191.746 172.049 191.747C171.539 191.747 171.046 191.863 170.695 192.065C170.413 192.228 170.251 192.428 170.251 192.614C170.251 192.798 170.409 192.995 170.686 193.156C171.033 193.358 171.525 193.474 172.035 193.474Z" fill="#383C43"/>
<path d="M101.393 200.631C101.364 200.631 101.335 200.624 101.309 200.609L88.4883 193.207C87.9475 192.895 87.6491 192.469 87.6484 192.009C87.6477 191.552 87.9415 191.129 88.4758 190.819L101.213 183.416C101.293 183.37 101.397 183.397 101.443 183.478C101.49 183.558 101.463 183.661 101.383 183.708L88.6457 191.11C88.2196 191.358 87.9858 191.677 87.9858 192.009C87.9865 192.344 88.2249 192.665 88.6569 192.915L101.478 200.317C101.558 200.364 101.586 200.467 101.54 200.547C101.508 200.601 101.451 200.631 101.393 200.631Z" fill="#DBDEE4"/>
<path d="M62.5237 197.613C61.838 197.613 61.1511 197.462 60.6268 197.159L58.3215 195.828C58.2412 195.782 58.2135 195.679 58.2596 195.598C58.3063 195.517 58.4104 195.49 58.4901 195.536L60.7954 196.867C61.7512 197.418 63.299 197.418 64.2454 196.867L94.5226 179.727C94.6029 179.681 94.7064 179.708 94.7525 179.79C94.7979 179.871 94.7696 179.974 94.6886 180.02L64.4134 197.16C63.8937 197.462 63.2094 197.613 62.5237 197.613Z" fill="#DBDEE4"/>
<path d="M98.547 201.11C97.3275 200.406 97.3206 199.264 98.5321 198.56C99.7436 197.856 101.715 197.856 102.935 198.56C104.154 199.264 104.16 200.406 102.949 201.11C101.737 201.814 99.7663 201.814 98.547 201.11Z" fill="white"/>
<path d="M100.75 201.804C99.9229 201.804 99.0944 201.621 98.4628 201.256C97.8166 200.884 97.4603 200.377 97.459 199.831C97.4583 199.288 97.8094 198.785 98.447 198.414C99.7037 197.684 101.754 197.684 103.019 198.414C103.665 198.787 104.021 199.293 104.022 199.839C104.023 200.382 103.672 200.885 103.034 201.256C102.406 201.621 101.578 201.803 100.75 201.804ZM100.73 198.199C99.9632 198.199 99.1978 198.368 98.6168 198.706C98.0873 199.014 97.7955 199.413 97.7961 199.83C97.7968 200.251 98.0938 200.654 98.6314 200.964C99.8031 201.64 101.701 201.641 102.864 200.964C103.394 200.656 103.685 200.257 103.685 199.84C103.684 199.419 103.387 199.017 102.85 198.706C102.265 198.368 101.497 198.199 100.73 198.199Z" fill="#DBDEE4"/>
<path d="M100.732 199.031C101.207 199.031 101.667 199.139 101.994 199.328C102.257 199.479 102.407 199.665 102.408 199.838C102.408 200.009 102.26 200.193 102.002 200.343C101.678 200.531 101.22 200.639 100.745 200.639C100.27 200.639 99.8106 200.531 99.484 200.343C99.2214 200.191 99.0706 200.005 99.0703 199.831C99.0701 199.66 99.2177 199.477 99.4751 199.327C99.799 199.139 100.257 199.031 100.732 199.031Z" fill="#FFBE2E"/>
<path d="M93.1829 187.152C93.6935 187.152 94.1875 187.269 94.5386 187.471C94.8205 187.634 94.9822 187.834 94.9825 188.02C94.9827 188.203 94.8242 188.401 94.5474 188.562C94.1993 188.764 93.7072 188.88 93.1973 188.88C92.6872 188.88 92.1935 188.764 91.8428 188.561C91.5607 188.398 91.3987 188.198 91.3984 188.012C91.3982 187.829 91.5567 187.631 91.8333 187.47C92.181 187.268 92.673 187.152 93.1829 187.152Z" fill="#383C43"/>
<path d="M77.1253 188.66C77.6359 188.66 78.1299 188.776 78.481 188.979C78.7628 189.141 78.9246 189.341 78.9249 189.527C78.9251 189.711 78.7665 189.908 78.4898 190.069C78.1417 190.271 77.6496 190.387 77.1397 190.387C76.6296 190.387 76.1359 190.271 75.7852 190.069C75.5031 189.906 75.3411 189.706 75.3408 189.52C75.3406 189.336 75.4991 189.139 75.7757 188.978C76.1235 188.776 76.6154 188.66 77.1253 188.66Z" fill="#383C43"/>
<path d="M150.841 170.394C150.23 170.719 149.59 170.936 148.92 171.046C148.242 171.151 147.528 171.178 146.775 171.126L146.792 170.501C147.43 170.564 148.016 170.553 148.549 170.467C149.089 170.377 149.604 170.202 150.093 169.942C150.597 169.674 150.892 169.393 150.978 169.101C151.064 168.809 150.907 168.552 150.506 168.329C150.196 168.157 149.87 168.055 149.528 168.024C149.178 167.987 148.825 167.999 148.467 168.058C148.109 168.108 147.74 168.181 147.359 168.277C146.978 168.373 146.593 168.466 146.205 168.558C145.816 168.641 145.421 168.7 145.017 168.733C144.614 168.767 144.211 168.751 143.809 168.686C143.414 168.616 143.017 168.47 142.616 168.248C142.192 168.013 141.932 167.757 141.835 167.48C141.739 167.202 141.791 166.924 141.991 166.645C142.184 166.362 142.509 166.099 142.967 165.855C143.479 165.583 144.032 165.396 144.625 165.294C145.227 165.188 145.828 165.156 146.428 165.198L146.423 165.817C145.891 165.788 145.404 165.808 144.962 165.879C144.521 165.949 144.105 166.088 143.716 166.295C143.258 166.539 142.997 166.792 142.934 167.056C142.871 167.319 143.028 167.556 143.407 167.766C143.702 167.929 144.009 168.025 144.328 168.052C144.654 168.076 144.997 168.058 145.354 168C145.712 167.941 146.078 167.865 146.451 167.774C146.825 167.674 147.209 167.58 147.605 167.493C148.001 167.406 148.401 167.349 148.804 167.324C149.215 167.294 149.629 167.317 150.046 167.39C150.456 167.46 150.869 167.61 151.285 167.841C151.959 168.214 152.252 168.629 152.164 169.087C152.076 169.536 151.636 169.972 150.841 170.394ZM154.895 168.116L147.087 163.788L147.923 163.343L155.731 167.671L154.895 168.116ZM160.061 165.368L152.254 161.04L153.09 160.596L160.898 164.924L160.061 165.368ZM151.79 165.798L151.03 165.376L155.876 162.799L156.636 163.221L151.79 165.798ZM162.916 163.85L155.109 159.523L155.945 159.078L163.752 163.406L162.916 163.85ZM163.175 160.311L162.438 159.902L164.763 158.666C165.084 158.495 165.306 158.307 165.43 158.102C165.561 157.892 165.582 157.684 165.492 157.477C165.403 157.262 165.192 157.062 164.859 156.877C164.526 156.693 164.166 156.576 163.779 156.527C163.391 156.47 163.004 156.475 162.615 156.542C162.227 156.6 161.873 156.715 161.552 156.885L159.226 158.122L158.5 157.719L160.883 156.452C161.356 156.201 161.879 156.03 162.45 155.94C163.013 155.846 163.576 155.838 164.137 155.917C164.707 155.992 165.23 156.162 165.707 156.426C166.176 156.686 166.477 156.974 166.611 157.289C166.745 157.595 166.724 157.903 166.546 158.211C166.361 158.514 166.032 158.792 165.558 159.044L163.175 160.311ZM165.769 162.333L157.961 158.006L158.798 157.561L166.605 161.889L165.769 162.333Z" fill="black"/>
</g>
</svg>
