<svg width="96" height="96" viewBox="0 0 96 96" fill="none" xmlns="http://www.w3.org/2000/svg">
<mask id="mask0_5541_21447" style="mask-type:alpha" maskUnits="userSpaceOnUse" x="0" y="0" width="96" height="96">
<rect x="-1" y="1" width="94" height="94" rx="47" transform="matrix(-1 0 0 1 94 0)" fill="#FFBE2E" stroke="white" stroke-width="2"/>
</mask>
<g mask="url(#mask0_5541_21447)">
<rect x="20" y="36" width="40" height="40" rx="20" fill="white"/>
<mask id="path-3-outside-1_5541_21447" maskUnits="userSpaceOnUse" x="18.1504" y="17" width="62" height="62" fill="black">
<rect fill="white" x="18.1504" y="17" width="62" height="62"/>
<path fill-rule="evenodd" clip-rule="evenodd" d="M27.2542 43.9102C25.5544 42.4154 23.8019 42.1023 19.767 42.7971C19.543 42.8366 19.319 42.726 19.2109 42.5234C19.1055 42.3234 19.1398 42.076 19.2979 41.9129C22.5842 38.5233 24.9955 36.4943 30.5192 36.9153C34.7067 29.7754 41.8303 21.8884 50.4475 19.0777C54.1606 17.8671 58.1478 17.5882 62.2982 18.6961C62.4801 18.7461 62.6224 18.8882 62.6725 19.0698C63.7819 23.2173 63.5026 27.1987 62.2903 30.9041C59.4732 39.512 51.575 46.6229 44.4278 50.8046C44.8495 56.3205 42.8177 58.7287 39.4233 62.0103C39.26 62.1682 39.0122 62.205 38.8093 62.0971C38.609 61.9892 38.4983 61.7655 38.5352 61.5418C39.2309 57.5128 38.9174 55.7627 37.4205 54.0651C37.1385 54.1572 36.8618 54.244 36.593 54.3204C36.4085 54.373 36.2109 54.323 36.0739 54.1861L35.7023 53.8151L27.8751 61.6314C27.6695 61.8366 27.3348 61.8366 27.1293 61.6314C26.9237 61.4261 26.9237 61.0919 27.1293 60.8866L34.9565 53.0703L33.0511 51.1676L32.3712 51.9334C32.3106 52.0018 32.2316 52.0545 32.1446 52.0834L29.9072 52.8282C29.7175 52.8914 29.5093 52.8414 29.367 52.7019L24.5206 57.5389C24.315 57.7441 23.9804 57.7441 23.7748 57.5389C23.5692 57.3336 23.5692 56.9994 23.7748 56.7941L28.6211 51.9571C28.4788 51.815 28.4314 51.6071 28.4947 51.4176L29.2405 49.186C29.2695 49.0991 29.3222 49.0202 29.3907 48.9597L30.1576 48.2807L28.2496 46.3754L20.4224 54.1917C20.2168 54.397 19.8822 54.397 19.6766 54.1917C19.471 53.9864 19.471 53.6522 19.6766 53.4469L27.5038 45.6306L27.1322 45.2596C26.9978 45.1253 26.9451 44.9254 26.9978 44.7411C27.0742 44.4727 27.1612 44.1964 27.2534 43.9148L27.2542 43.9102ZM61.5422 29.747C62.4488 26.5548 62.6174 23.1574 61.7319 19.6361C58.2032 18.7518 54.8033 18.9203 51.6069 19.8255L61.5444 29.7472L61.5422 29.747ZM33.753 50.3791L36.5992 53.2214C44.2206 50.9081 57.2756 42.2818 61.1865 30.8814L50.4712 20.181C39.0549 24.0863 30.4161 37.1232 28.1 44.7341L30.9462 47.5763L36.0983 43.0024C36.3064 42.8182 36.6253 42.8261 36.8203 43.0235L38.3119 44.513C38.5095 44.7104 38.5174 45.0261 38.333 45.234L33.753 50.3791ZM51.7288 29.623C54.6092 32.4994 54.6092 37.1678 51.7288 40.0445C48.8484 42.9209 44.1735 42.9209 41.2928 40.0445C38.4124 37.1682 38.4124 32.4997 41.2928 29.623C44.1732 26.7467 48.8481 26.7467 51.7288 29.623ZM50.983 30.3678C48.5137 27.9019 44.508 27.9019 42.0386 30.3678C39.5693 32.8337 39.5693 36.8338 42.0386 39.2998C44.5079 41.7656 48.5163 41.7656 50.983 39.2998C53.4523 36.8339 53.4523 32.8338 50.983 30.3678ZM46.5109 29.5704C49.4203 29.5704 51.7815 31.9284 51.7815 34.8337C51.7815 37.7391 49.4203 40.097 46.5109 40.097C43.6015 40.097 41.2402 37.7391 41.2402 34.8337C41.2402 31.9284 43.6015 29.5704 46.5109 29.5704ZM46.5109 30.6231C44.1839 30.6231 42.2944 32.51 42.2944 34.8337C42.2944 37.1575 44.1839 39.0444 46.5109 39.0444C48.8379 39.0444 50.7274 37.1575 50.7274 34.8337C50.7274 32.51 48.8379 30.6231 46.5109 30.6231ZM37.2136 44.9022L36.4257 44.1153L30.1931 49.647L29.5949 51.4392L29.8795 51.7234L31.6742 51.126L37.2136 44.9022ZM43.4067 51.3813C41.6752 52.3367 40.0071 53.113 38.4839 53.6867C39.7541 55.2525 40.1942 56.942 39.8094 60.1421C42.1891 57.7052 43.607 55.5289 43.4067 51.3813ZM29.9374 37.9309C25.7842 37.7309 23.6021 39.1467 21.1644 41.523C24.3689 41.1388 26.0608 41.5783 27.6288 42.8467C28.2033 41.3283 28.9808 39.6599 29.9374 37.9309ZM27.874 48.2311C28.0795 48.0258 28.4142 48.0258 28.6198 48.2311C28.8253 48.4364 28.8253 48.7706 28.6198 48.9759L22.6561 54.9313C22.4505 55.1366 22.1158 55.1366 21.9103 54.9313C21.7047 54.726 21.7047 54.3918 21.9103 54.1865L27.874 48.2311ZM32.3461 52.697C32.5517 52.4917 32.8863 52.4917 33.0919 52.697C33.2975 52.9023 33.2975 53.2365 33.0919 53.4418L27.1282 59.3972C26.9227 59.6025 26.588 59.6025 26.3824 59.3972C26.1768 59.1919 26.1768 58.8577 26.3824 58.6524L32.3461 52.697ZM63.949 47.4732C72.3848 47.4732 79.2337 54.3126 79.2337 62.7366C79.2337 71.1606 72.3848 78 63.949 78C55.5133 78 48.6643 71.1606 48.6643 62.7366C48.6643 54.3126 55.5133 47.4732 63.949 47.4732ZM63.949 48.5259C56.0955 48.5259 49.7181 54.8944 49.7181 62.7369C49.7181 70.5794 56.0956 76.948 63.949 76.948C71.8025 76.948 78.1799 70.5794 78.1799 62.7369C78.1799 54.8944 71.8025 48.5259 63.949 48.5259ZM54.9891 59.5786C54.9891 59.5444 54.9917 59.5102 54.9996 59.476L56.0538 54.2127C56.1039 53.9653 56.3199 53.789 56.5703 53.789H71.3281C71.5784 53.789 71.7945 53.9653 71.8446 54.2127L72.8987 59.476C72.9067 59.5102 72.9093 59.5444 72.9093 59.5786V62.2102C72.9093 63.0708 72.4955 63.834 71.8552 64.3156V71.6845C71.8552 71.974 71.618 72.2108 71.3281 72.2108H56.5703C56.2804 72.2108 56.0432 71.974 56.0432 71.6845V64.3156C55.4028 63.834 54.9891 63.0708 54.9891 62.2102L54.9891 59.5786ZM59.116 62.7366H56.1328C56.3489 63.3498 56.9366 63.7893 57.6244 63.7893C58.3122 63.7893 58.8973 63.3498 59.116 62.7366ZM71.7656 62.7366H68.7824C68.9985 63.3498 69.5861 63.7893 70.2739 63.7893C70.9617 63.7893 71.5468 63.3498 71.7656 62.7366ZM63.3325 62.7366H60.3493C60.5654 63.3498 61.1531 63.7893 61.8409 63.7893C62.5287 63.7893 63.1138 63.3498 63.3325 62.7366ZM71.7393 59.0522L70.896 54.8416H57.0024L56.1591 59.0522H71.7393ZM67.5491 62.7366H64.5659C64.782 63.3498 65.3697 63.7893 66.0575 63.7893C66.7453 63.7893 67.3304 63.3498 67.5491 62.7366ZM62.3681 71.1579H65.5305V66.9472H62.3681V71.1579ZM70.8011 64.7893C70.6298 64.8235 70.4532 64.8419 70.274 64.8419C69.4123 64.8419 68.648 64.4288 68.1658 63.7893C67.6835 64.4288 66.9192 64.8419 66.0575 64.8419C65.1958 64.8419 64.4315 64.4288 63.9493 63.7893C63.467 64.4288 62.7027 64.8419 61.841 64.8419C60.9793 64.8419 60.215 64.4288 59.7327 63.7893C59.2505 64.4288 58.4862 64.8419 57.6245 64.8419C57.4453 64.8419 57.2687 64.8235 57.0974 64.7893V71.1579H61.3139V66.4209C61.3139 66.1315 61.5511 65.8946 61.841 65.8946H66.0575C66.3474 65.8946 66.5846 66.1315 66.5846 66.4209V71.1579H70.8011V64.7893ZM71.8552 61.6839V60.1049H56.043V61.6839H71.8552Z"/>
</mask>
<path fill-rule="evenodd" clip-rule="evenodd" d="M27.2542 43.9102C25.5544 42.4154 23.8019 42.1023 19.767 42.7971C19.543 42.8366 19.319 42.726 19.2109 42.5234C19.1055 42.3234 19.1398 42.076 19.2979 41.9129C22.5842 38.5233 24.9955 36.4943 30.5192 36.9153C34.7067 29.7754 41.8303 21.8884 50.4475 19.0777C54.1606 17.8671 58.1478 17.5882 62.2982 18.6961C62.4801 18.7461 62.6224 18.8882 62.6725 19.0698C63.7819 23.2173 63.5026 27.1987 62.2903 30.9041C59.4732 39.512 51.575 46.6229 44.4278 50.8046C44.8495 56.3205 42.8177 58.7287 39.4233 62.0103C39.26 62.1682 39.0122 62.205 38.8093 62.0971C38.609 61.9892 38.4983 61.7655 38.5352 61.5418C39.2309 57.5128 38.9174 55.7627 37.4205 54.0651C37.1385 54.1572 36.8618 54.244 36.593 54.3204C36.4085 54.373 36.2109 54.323 36.0739 54.1861L35.7023 53.8151L27.8751 61.6314C27.6695 61.8366 27.3348 61.8366 27.1293 61.6314C26.9237 61.4261 26.9237 61.0919 27.1293 60.8866L34.9565 53.0703L33.0511 51.1676L32.3712 51.9334C32.3106 52.0018 32.2316 52.0545 32.1446 52.0834L29.9072 52.8282C29.7175 52.8914 29.5093 52.8414 29.367 52.7019L24.5206 57.5389C24.315 57.7441 23.9804 57.7441 23.7748 57.5389C23.5692 57.3336 23.5692 56.9994 23.7748 56.7941L28.6211 51.9571C28.4788 51.815 28.4314 51.6071 28.4947 51.4176L29.2405 49.186C29.2695 49.0991 29.3222 49.0202 29.3907 48.9597L30.1576 48.2807L28.2496 46.3754L20.4224 54.1917C20.2168 54.397 19.8822 54.397 19.6766 54.1917C19.471 53.9864 19.471 53.6522 19.6766 53.4469L27.5038 45.6306L27.1322 45.2596C26.9978 45.1253 26.9451 44.9254 26.9978 44.7411C27.0742 44.4727 27.1612 44.1964 27.2534 43.9148L27.2542 43.9102ZM61.5422 29.747C62.4488 26.5548 62.6174 23.1574 61.7319 19.6361C58.2032 18.7518 54.8033 18.9203 51.6069 19.8255L61.5444 29.7472L61.5422 29.747ZM33.753 50.3791L36.5992 53.2214C44.2206 50.9081 57.2756 42.2818 61.1865 30.8814L50.4712 20.181C39.0549 24.0863 30.4161 37.1232 28.1 44.7341L30.9462 47.5763L36.0983 43.0024C36.3064 42.8182 36.6253 42.8261 36.8203 43.0235L38.3119 44.513C38.5095 44.7104 38.5174 45.0261 38.333 45.234L33.753 50.3791ZM51.7288 29.623C54.6092 32.4994 54.6092 37.1678 51.7288 40.0445C48.8484 42.9209 44.1735 42.9209 41.2928 40.0445C38.4124 37.1682 38.4124 32.4997 41.2928 29.623C44.1732 26.7467 48.8481 26.7467 51.7288 29.623ZM50.983 30.3678C48.5137 27.9019 44.508 27.9019 42.0386 30.3678C39.5693 32.8337 39.5693 36.8338 42.0386 39.2998C44.5079 41.7656 48.5163 41.7656 50.983 39.2998C53.4523 36.8339 53.4523 32.8338 50.983 30.3678ZM46.5109 29.5704C49.4203 29.5704 51.7815 31.9284 51.7815 34.8337C51.7815 37.7391 49.4203 40.097 46.5109 40.097C43.6015 40.097 41.2402 37.7391 41.2402 34.8337C41.2402 31.9284 43.6015 29.5704 46.5109 29.5704ZM46.5109 30.6231C44.1839 30.6231 42.2944 32.51 42.2944 34.8337C42.2944 37.1575 44.1839 39.0444 46.5109 39.0444C48.8379 39.0444 50.7274 37.1575 50.7274 34.8337C50.7274 32.51 48.8379 30.6231 46.5109 30.6231ZM37.2136 44.9022L36.4257 44.1153L30.1931 49.647L29.5949 51.4392L29.8795 51.7234L31.6742 51.126L37.2136 44.9022ZM43.4067 51.3813C41.6752 52.3367 40.0071 53.113 38.4839 53.6867C39.7541 55.2525 40.1942 56.942 39.8094 60.1421C42.1891 57.7052 43.607 55.5289 43.4067 51.3813ZM29.9374 37.9309C25.7842 37.7309 23.6021 39.1467 21.1644 41.523C24.3689 41.1388 26.0608 41.5783 27.6288 42.8467C28.2033 41.3283 28.9808 39.6599 29.9374 37.9309ZM27.874 48.2311C28.0795 48.0258 28.4142 48.0258 28.6198 48.2311C28.8253 48.4364 28.8253 48.7706 28.6198 48.9759L22.6561 54.9313C22.4505 55.1366 22.1158 55.1366 21.9103 54.9313C21.7047 54.726 21.7047 54.3918 21.9103 54.1865L27.874 48.2311ZM32.3461 52.697C32.5517 52.4917 32.8863 52.4917 33.0919 52.697C33.2975 52.9023 33.2975 53.2365 33.0919 53.4418L27.1282 59.3972C26.9227 59.6025 26.588 59.6025 26.3824 59.3972C26.1768 59.1919 26.1768 58.8577 26.3824 58.6524L32.3461 52.697ZM63.949 47.4732C72.3848 47.4732 79.2337 54.3126 79.2337 62.7366C79.2337 71.1606 72.3848 78 63.949 78C55.5133 78 48.6643 71.1606 48.6643 62.7366C48.6643 54.3126 55.5133 47.4732 63.949 47.4732ZM63.949 48.5259C56.0955 48.5259 49.7181 54.8944 49.7181 62.7369C49.7181 70.5794 56.0956 76.948 63.949 76.948C71.8025 76.948 78.1799 70.5794 78.1799 62.7369C78.1799 54.8944 71.8025 48.5259 63.949 48.5259ZM54.9891 59.5786C54.9891 59.5444 54.9917 59.5102 54.9996 59.476L56.0538 54.2127C56.1039 53.9653 56.3199 53.789 56.5703 53.789H71.3281C71.5784 53.789 71.7945 53.9653 71.8446 54.2127L72.8987 59.476C72.9067 59.5102 72.9093 59.5444 72.9093 59.5786V62.2102C72.9093 63.0708 72.4955 63.834 71.8552 64.3156V71.6845C71.8552 71.974 71.618 72.2108 71.3281 72.2108H56.5703C56.2804 72.2108 56.0432 71.974 56.0432 71.6845V64.3156C55.4028 63.834 54.9891 63.0708 54.9891 62.2102L54.9891 59.5786ZM59.116 62.7366H56.1328C56.3489 63.3498 56.9366 63.7893 57.6244 63.7893C58.3122 63.7893 58.8973 63.3498 59.116 62.7366ZM71.7656 62.7366H68.7824C68.9985 63.3498 69.5861 63.7893 70.2739 63.7893C70.9617 63.7893 71.5468 63.3498 71.7656 62.7366ZM63.3325 62.7366H60.3493C60.5654 63.3498 61.1531 63.7893 61.8409 63.7893C62.5287 63.7893 63.1138 63.3498 63.3325 62.7366ZM71.7393 59.0522L70.896 54.8416H57.0024L56.1591 59.0522H71.7393ZM67.5491 62.7366H64.5659C64.782 63.3498 65.3697 63.7893 66.0575 63.7893C66.7453 63.7893 67.3304 63.3498 67.5491 62.7366ZM62.3681 71.1579H65.5305V66.9472H62.3681V71.1579ZM70.8011 64.7893C70.6298 64.8235 70.4532 64.8419 70.274 64.8419C69.4123 64.8419 68.648 64.4288 68.1658 63.7893C67.6835 64.4288 66.9192 64.8419 66.0575 64.8419C65.1958 64.8419 64.4315 64.4288 63.9493 63.7893C63.467 64.4288 62.7027 64.8419 61.841 64.8419C60.9793 64.8419 60.215 64.4288 59.7327 63.7893C59.2505 64.4288 58.4862 64.8419 57.6245 64.8419C57.4453 64.8419 57.2687 64.8235 57.0974 64.7893V71.1579H61.3139V66.4209C61.3139 66.1315 61.5511 65.8946 61.841 65.8946H66.0575C66.3474 65.8946 66.5846 66.1315 66.5846 66.4209V71.1579H70.8011V64.7893ZM71.8552 61.6839V60.1049H56.043V61.6839H71.8552Z" fill="black"/>
<path fill-rule="evenodd" clip-rule="evenodd" d="M27.2542 43.9102C25.5544 42.4154 23.8019 42.1023 19.767 42.7971C19.543 42.8366 19.319 42.726 19.2109 42.5234C19.1055 42.3234 19.1398 42.076 19.2979 41.9129C22.5842 38.5233 24.9955 36.4943 30.5192 36.9153C34.7067 29.7754 41.8303 21.8884 50.4475 19.0777C54.1606 17.8671 58.1478 17.5882 62.2982 18.6961C62.4801 18.7461 62.6224 18.8882 62.6725 19.0698C63.7819 23.2173 63.5026 27.1987 62.2903 30.9041C59.4732 39.512 51.575 46.6229 44.4278 50.8046C44.8495 56.3205 42.8177 58.7287 39.4233 62.0103C39.26 62.1682 39.0122 62.205 38.8093 62.0971C38.609 61.9892 38.4983 61.7655 38.5352 61.5418C39.2309 57.5128 38.9174 55.7627 37.4205 54.0651C37.1385 54.1572 36.8618 54.244 36.593 54.3204C36.4085 54.373 36.2109 54.323 36.0739 54.1861L35.7023 53.8151L27.8751 61.6314C27.6695 61.8366 27.3348 61.8366 27.1293 61.6314C26.9237 61.4261 26.9237 61.0919 27.1293 60.8866L34.9565 53.0703L33.0511 51.1676L32.3712 51.9334C32.3106 52.0018 32.2316 52.0545 32.1446 52.0834L29.9072 52.8282C29.7175 52.8914 29.5093 52.8414 29.367 52.7019L24.5206 57.5389C24.315 57.7441 23.9804 57.7441 23.7748 57.5389C23.5692 57.3336 23.5692 56.9994 23.7748 56.7941L28.6211 51.9571C28.4788 51.815 28.4314 51.6071 28.4947 51.4176L29.2405 49.186C29.2695 49.0991 29.3222 49.0202 29.3907 48.9597L30.1576 48.2807L28.2496 46.3754L20.4224 54.1917C20.2168 54.397 19.8822 54.397 19.6766 54.1917C19.471 53.9864 19.471 53.6522 19.6766 53.4469L27.5038 45.6306L27.1322 45.2596C26.9978 45.1253 26.9451 44.9254 26.9978 44.7411C27.0742 44.4727 27.1612 44.1964 27.2534 43.9148L27.2542 43.9102ZM61.5422 29.747C62.4488 26.5548 62.6174 23.1574 61.7319 19.6361C58.2032 18.7518 54.8033 18.9203 51.6069 19.8255L61.5444 29.7472L61.5422 29.747ZM33.753 50.3791L36.5992 53.2214C44.2206 50.9081 57.2756 42.2818 61.1865 30.8814L50.4712 20.181C39.0549 24.0863 30.4161 37.1232 28.1 44.7341L30.9462 47.5763L36.0983 43.0024C36.3064 42.8182 36.6253 42.8261 36.8203 43.0235L38.3119 44.513C38.5095 44.7104 38.5174 45.0261 38.333 45.234L33.753 50.3791ZM51.7288 29.623C54.6092 32.4994 54.6092 37.1678 51.7288 40.0445C48.8484 42.9209 44.1735 42.9209 41.2928 40.0445C38.4124 37.1682 38.4124 32.4997 41.2928 29.623C44.1732 26.7467 48.8481 26.7467 51.7288 29.623ZM50.983 30.3678C48.5137 27.9019 44.508 27.9019 42.0386 30.3678C39.5693 32.8337 39.5693 36.8338 42.0386 39.2998C44.5079 41.7656 48.5163 41.7656 50.983 39.2998C53.4523 36.8339 53.4523 32.8338 50.983 30.3678ZM46.5109 29.5704C49.4203 29.5704 51.7815 31.9284 51.7815 34.8337C51.7815 37.7391 49.4203 40.097 46.5109 40.097C43.6015 40.097 41.2402 37.7391 41.2402 34.8337C41.2402 31.9284 43.6015 29.5704 46.5109 29.5704ZM46.5109 30.6231C44.1839 30.6231 42.2944 32.51 42.2944 34.8337C42.2944 37.1575 44.1839 39.0444 46.5109 39.0444C48.8379 39.0444 50.7274 37.1575 50.7274 34.8337C50.7274 32.51 48.8379 30.6231 46.5109 30.6231ZM37.2136 44.9022L36.4257 44.1153L30.1931 49.647L29.5949 51.4392L29.8795 51.7234L31.6742 51.126L37.2136 44.9022ZM43.4067 51.3813C41.6752 52.3367 40.0071 53.113 38.4839 53.6867C39.7541 55.2525 40.1942 56.942 39.8094 60.1421C42.1891 57.7052 43.607 55.5289 43.4067 51.3813ZM29.9374 37.9309C25.7842 37.7309 23.6021 39.1467 21.1644 41.523C24.3689 41.1388 26.0608 41.5783 27.6288 42.8467C28.2033 41.3283 28.9808 39.6599 29.9374 37.9309ZM27.874 48.2311C28.0795 48.0258 28.4142 48.0258 28.6198 48.2311C28.8253 48.4364 28.8253 48.7706 28.6198 48.9759L22.6561 54.9313C22.4505 55.1366 22.1158 55.1366 21.9103 54.9313C21.7047 54.726 21.7047 54.3918 21.9103 54.1865L27.874 48.2311ZM32.3461 52.697C32.5517 52.4917 32.8863 52.4917 33.0919 52.697C33.2975 52.9023 33.2975 53.2365 33.0919 53.4418L27.1282 59.3972C26.9227 59.6025 26.588 59.6025 26.3824 59.3972C26.1768 59.1919 26.1768 58.8577 26.3824 58.6524L32.3461 52.697ZM63.949 47.4732C72.3848 47.4732 79.2337 54.3126 79.2337 62.7366C79.2337 71.1606 72.3848 78 63.949 78C55.5133 78 48.6643 71.1606 48.6643 62.7366C48.6643 54.3126 55.5133 47.4732 63.949 47.4732ZM63.949 48.5259C56.0955 48.5259 49.7181 54.8944 49.7181 62.7369C49.7181 70.5794 56.0956 76.948 63.949 76.948C71.8025 76.948 78.1799 70.5794 78.1799 62.7369C78.1799 54.8944 71.8025 48.5259 63.949 48.5259ZM54.9891 59.5786C54.9891 59.5444 54.9917 59.5102 54.9996 59.476L56.0538 54.2127C56.1039 53.9653 56.3199 53.789 56.5703 53.789H71.3281C71.5784 53.789 71.7945 53.9653 71.8446 54.2127L72.8987 59.476C72.9067 59.5102 72.9093 59.5444 72.9093 59.5786V62.2102C72.9093 63.0708 72.4955 63.834 71.8552 64.3156V71.6845C71.8552 71.974 71.618 72.2108 71.3281 72.2108H56.5703C56.2804 72.2108 56.0432 71.974 56.0432 71.6845V64.3156C55.4028 63.834 54.9891 63.0708 54.9891 62.2102L54.9891 59.5786ZM59.116 62.7366H56.1328C56.3489 63.3498 56.9366 63.7893 57.6244 63.7893C58.3122 63.7893 58.8973 63.3498 59.116 62.7366ZM71.7656 62.7366H68.7824C68.9985 63.3498 69.5861 63.7893 70.2739 63.7893C70.9617 63.7893 71.5468 63.3498 71.7656 62.7366ZM63.3325 62.7366H60.3493C60.5654 63.3498 61.1531 63.7893 61.8409 63.7893C62.5287 63.7893 63.1138 63.3498 63.3325 62.7366ZM71.7393 59.0522L70.896 54.8416H57.0024L56.1591 59.0522H71.7393ZM67.5491 62.7366H64.5659C64.782 63.3498 65.3697 63.7893 66.0575 63.7893C66.7453 63.7893 67.3304 63.3498 67.5491 62.7366ZM62.3681 71.1579H65.5305V66.9472H62.3681V71.1579ZM70.8011 64.7893C70.6298 64.8235 70.4532 64.8419 70.274 64.8419C69.4123 64.8419 68.648 64.4288 68.1658 63.7893C67.6835 64.4288 66.9192 64.8419 66.0575 64.8419C65.1958 64.8419 64.4315 64.4288 63.9493 63.7893C63.467 64.4288 62.7027 64.8419 61.841 64.8419C60.9793 64.8419 60.215 64.4288 59.7327 63.7893C59.2505 64.4288 58.4862 64.8419 57.6245 64.8419C57.4453 64.8419 57.2687 64.8235 57.0974 64.7893V71.1579H61.3139V66.4209C61.3139 66.1315 61.5511 65.8946 61.841 65.8946H66.0575C66.3474 65.8946 66.5846 66.1315 66.5846 66.4209V71.1579H70.8011V64.7893ZM71.8552 61.6839V60.1049H56.043V61.6839H71.8552Z" stroke="black" stroke-width="0.6" mask="url(#path-3-outside-1_5541_21447)"/>
</g>
</svg>
