<svg width="120" height="120" viewBox="0 0 120 120" fill="none" xmlns="http://www.w3.org/2000/svg">
<path d="M55.0125 17.0475L24.3037 34.7772C23.5786 35.1958 23.1318 35.9697 23.1318 36.8069V44.16L70.6872 16.7039L118.243 44.16V36.8069C118.243 35.9695 117.796 35.1958 117.071 34.7772L71.8591 8.67417C71.1339 8.25558 70.2405 8.25558 69.5153 8.67417L62.1166 12.9459" stroke="#212121" stroke-width="3.51562" stroke-miterlimit="10" stroke-linecap="round" stroke-linejoin="round"/>
<path d="M102.298 53.5874H39.0762" stroke="#212121" stroke-width="3.51562" stroke-miterlimit="10" stroke-linecap="round" stroke-linejoin="round"/>
<path d="M54.8817 81.533H39.0762V97.3385H54.8817V81.533Z" stroke="#212121" stroke-width="3.51562" stroke-miterlimit="10" stroke-linecap="round" stroke-linejoin="round"/>
<path d="M54.881 97.3386H70.6865V81.5331H54.881V97.3386Z" stroke="#212121" stroke-width="3.51562" stroke-miterlimit="10" stroke-linecap="round" stroke-linejoin="round"/>
<path d="M54.8817 65.7274H39.0762V81.533H54.8817V65.7274Z" stroke="#212121" stroke-width="3.51562" stroke-miterlimit="10" stroke-linecap="round" stroke-linejoin="round"/>
<path d="M54.8809 65.7274H69.5145C70.1616 65.7274 70.6864 66.2522 70.6864 66.8993V81.533H54.8809V65.7274Z" stroke="#212121" stroke-width="3.51562" stroke-miterlimit="10" stroke-linecap="round" stroke-linejoin="round"/>
<path d="M46.9785 65.7274V72.5454" stroke="#212121" stroke-width="3.51562" stroke-miterlimit="10" stroke-linejoin="round"/>
<path d="M62.7842 65.7274V72.5454" stroke="#212121" stroke-width="3.51562" stroke-miterlimit="10" stroke-linejoin="round"/>
<path d="M46.9785 81.533V88.3509" stroke="#212121" stroke-width="3.51562" stroke-miterlimit="10" stroke-linejoin="round"/>
<path d="M62.7842 81.533V88.3509" stroke="#212121" stroke-width="3.51562" stroke-miterlimit="10" stroke-linejoin="round"/>
<path d="M87.6641 81.533H102.298V97.3385H86.4922V82.7048C86.4922 82.0577 87.017 81.533 87.6641 81.533Z" stroke="#212121" stroke-width="3.51562" stroke-miterlimit="10" stroke-linecap="round" stroke-linejoin="round"/>
<path d="M94.3955 81.533V88.3509" stroke="#212121" stroke-width="3.51562" stroke-miterlimit="10" stroke-linejoin="round"/>
<path d="M1.75781 76.1193H7.46437V104.744H44.4124" stroke="#212121" stroke-width="3.51562" stroke-miterlimit="10" stroke-linecap="round" stroke-linejoin="round"/>
<path d="M15.3672 88.9385V95.7564" stroke="#212121" stroke-width="3.51562" stroke-miterlimit="10" stroke-linejoin="round"/>
<path d="M31.1729 88.9385V95.7564" stroke="#212121" stroke-width="3.51562" stroke-miterlimit="10" stroke-linejoin="round"/>
<path d="M15.3676 111.64C17.2717 111.64 18.8152 110.096 18.8152 108.192C18.8152 106.288 17.2717 104.744 15.3676 104.744C13.4635 104.744 11.9199 106.288 11.9199 108.192C11.9199 110.096 13.4635 111.64 15.3676 111.64Z" stroke="#212121" stroke-width="3.51562" stroke-miterlimit="10" stroke-linecap="round" stroke-linejoin="round"/>
<path d="M35.0199 111.64C36.924 111.64 38.4676 110.096 38.4676 108.192C38.4676 106.288 36.924 104.744 35.0199 104.744C33.1158 104.744 31.5723 106.288 31.5723 108.192C31.5723 110.096 33.1158 111.64 35.0199 111.64Z" stroke="#212121" stroke-width="3.51562" stroke-miterlimit="10" stroke-linecap="round" stroke-linejoin="round"/>
<path d="M83.2036 46.4542H40.248C39.6009 46.4542 39.0762 46.979 39.0762 47.6261V97.3384H102.298V47.6261C102.298 46.979 101.774 46.4542 101.126 46.4542H91.4067" stroke="#212121" stroke-width="3.51562" stroke-miterlimit="10" stroke-linecap="round" stroke-linejoin="round"/>
<path d="M23.2704 88.9385H7.46484V104.744H23.2704V88.9385Z" stroke="#212121" stroke-width="3.51562" stroke-miterlimit="10" stroke-linecap="round" stroke-linejoin="round"/>
<path d="M23.2706 104.744H39.0762V88.9387H23.2706V104.744Z" stroke="#212121" stroke-width="3.51562" stroke-miterlimit="10" stroke-linecap="round" stroke-linejoin="round"/>
<path d="M39.0762 97.3384H117.071C117.718 97.3384 118.243 96.8137 118.243 96.1666V44.1599" stroke="#212121" stroke-width="3.51562" stroke-miterlimit="10" stroke-linecap="round" stroke-linejoin="round"/>
<path d="M23.1318 75V88.9385" stroke="#212121" stroke-width="3.51562" stroke-miterlimit="10" stroke-linecap="round" stroke-linejoin="round"/>
<path d="M23.1318 44.1599V66.7968V74.9999" stroke="#212121" stroke-width="3.51562" stroke-miterlimit="10" stroke-linecap="round" stroke-linejoin="round"/>
</svg>
