<svg width="105" height="105" viewBox="0 0 105 105" fill="none" xmlns="http://www.w3.org/2000/svg">
<path d="M13.2082 49.1457L17.1506 49.7176C17.7877 52.3734 18.8284 54.9134 20.2358 57.2473L17.8483 60.4606C17.6444 60.7346 17.5454 61.0737 17.5694 61.4155C17.5935 61.7573 17.7389 62.0789 17.979 62.321L23.6855 68.0855C23.9501 68.3509 24.308 68.4995 24.6808 68.4989C25.0537 68.4982 25.4111 68.3484 25.6747 68.0821C25.9384 67.8158 26.0868 67.4548 26.0874 67.0782C26.088 66.7016 25.9408 66.3401 25.678 66.0729L20.8357 61.1813L23.0745 58.1694C23.2491 57.9348 23.3475 57.6513 23.3561 57.3578C23.3647 57.0644 23.2832 56.7755 23.1227 56.5308C21.4575 53.991 20.2932 51.1505 19.6936 48.1651C19.636 47.8776 19.4917 47.6152 19.2806 47.4138C19.0695 47.2123 18.8018 47.0818 18.5144 47.04L14.8182 46.5035V40.1185L18.5142 39.5819C18.8017 39.5402 19.0694 39.4097 19.2805 39.2083C19.4917 39.0069 19.636 38.7444 19.6936 38.4569C20.2933 35.4715 21.4576 32.6311 23.1228 30.0913C23.2833 29.8465 23.3648 29.5576 23.3562 29.2642C23.3476 28.9708 23.2492 28.6873 23.0746 28.4526L20.8358 25.4408L25.3066 20.9251L28.2885 23.1864C28.5209 23.3632 28.8019 23.4628 29.0927 23.4715C29.3835 23.4803 29.6699 23.3976 29.9122 23.235C32.426 21.5524 35.2379 20.3761 38.1934 19.7708C38.4782 19.7122 38.7381 19.5662 38.9376 19.3528C39.1371 19.1393 39.2664 18.8688 39.308 18.5783L39.8378 14.8465H46.1622L46.692 18.5783C46.7336 18.8688 46.8629 19.1392 47.0624 19.3527C47.2619 19.5661 47.5218 19.7122 47.8066 19.7708C50.7621 20.3761 53.5741 21.5524 56.0878 23.235C56.3304 23.397 56.6167 23.4792 56.9073 23.4705C57.198 23.4618 57.4789 23.3626 57.7116 23.1864L60.6934 20.9251L65.1643 25.4408L62.9254 28.4526C62.7508 28.6873 62.6525 28.9708 62.6438 29.2642C62.6352 29.5576 62.7168 29.8465 62.8773 30.0913C64.5424 32.6311 65.7067 35.4715 66.3064 38.4569C66.364 38.7444 66.5083 39.0068 66.7194 39.2083C66.9305 39.4097 67.1982 39.5402 67.4856 39.582L71.1817 40.1185V46.5036L67.4856 47.0402C67.1982 47.0819 66.9305 47.2125 66.7194 47.4139C66.5083 47.6153 66.364 47.8778 66.3064 48.1652C65.7067 51.1506 64.5424 53.9911 62.8772 56.5309C62.7167 56.7756 62.6352 57.0645 62.6438 57.3579C62.6524 57.6514 62.7508 57.9349 62.9254 58.1695L65.1642 61.1814L60.6934 65.697L57.7115 63.4357C57.4788 63.2589 57.1975 63.1594 56.9064 63.1509C56.6153 63.1424 56.3288 63.2254 56.0864 63.3884C54.3641 64.5383 52.4996 65.4547 50.5408 66.1139C50.1865 66.234 49.8939 66.4915 49.7274 66.8295C49.561 67.1676 49.5343 67.5586 49.6533 67.9165C49.7722 68.2745 50.0271 68.57 50.3618 68.7381C50.6965 68.9062 51.0837 68.9332 51.438 68.813C53.312 68.1803 55.1101 67.3384 56.7992 66.303L59.9793 68.7151C60.2507 68.9208 60.5865 69.0207 60.925 68.9964C61.2635 68.9722 61.5819 68.8254 61.8219 68.583L68.021 62.321C68.2611 62.0789 68.4066 61.7573 68.4306 61.4155C68.4546 61.0737 68.3556 60.7346 68.1518 60.4606L65.7642 57.2473C67.1716 54.9134 68.2123 52.3734 68.8494 49.7176L72.7918 49.1457C73.1273 49.097 73.4342 48.9278 73.6561 48.669C73.878 48.4103 74.0001 48.0794 74 47.7371V38.885C74.0001 38.5426 73.878 38.2117 73.6561 37.953C73.4342 37.6943 73.1273 37.525 72.7918 37.4763L68.8494 36.9044C68.2123 34.2486 67.1716 31.7086 65.7642 29.3748L68.1517 26.1614C68.3555 25.8874 68.4546 25.5484 68.4305 25.2065C68.4065 24.8647 68.2611 24.5432 68.021 24.301L61.8218 18.039C61.5819 17.7965 61.2635 17.6496 60.925 17.6254C60.5864 17.6011 60.2506 17.7011 59.9793 17.907L56.7978 20.3191C54.4876 18.8968 51.9731 17.8449 49.3437 17.2009L48.7782 13.221C48.7296 12.8821 48.5619 12.5722 48.3057 12.348C48.0494 12.1237 47.7218 12.0002 47.3828 12H38.6172C38.2782 12.0002 37.9506 12.1238 37.6944 12.348C37.4382 12.5722 37.2704 12.8821 37.2219 13.221L36.6563 17.2009C34.027 17.8449 31.5124 18.8968 29.2023 20.3191L26.0207 17.907C25.7495 17.7009 25.4136 17.6008 25.075 17.625C24.7364 17.6493 24.4179 17.7963 24.1782 18.039L17.979 24.3011C17.7389 24.5432 17.5935 24.8647 17.5694 25.2066C17.5454 25.5484 17.6444 25.8875 17.8483 26.1614L20.2358 29.3748C18.8284 31.7086 17.7877 34.2486 17.1506 36.9044L13.2082 37.4763C12.8727 37.525 12.5658 37.6942 12.3439 37.953C12.122 38.2117 11.9999 38.5426 12 38.885V47.7371C11.9999 48.0794 12.122 48.4103 12.3439 48.669C12.5658 48.9278 12.8727 49.097 13.2082 49.1457Z" fill="#212121"/>
<path d="M29.3141 50.1149C27.9682 47.2503 27.5237 44.0455 28.039 40.9235C28.5543 37.8014 30.0054 34.9087 32.2007 32.6269C34.396 30.3452 37.2325 28.7816 40.3359 28.1424C43.4393 27.5033 46.6638 27.8186 49.5841 29.0469C52.5043 30.2751 54.9831 32.3585 56.6934 35.0222C58.4037 37.6859 59.2652 40.8048 59.1642 43.9673C59.0631 47.1299 58.0044 50.1876 56.1275 52.7371C54.2507 55.2865 51.644 57.2079 48.6513 58.2478C48.4754 58.3084 48.3132 58.403 48.1739 58.5262C48.0346 58.6494 47.921 58.7988 47.8396 58.9658C47.6751 59.3032 47.6515 59.692 47.7741 60.0467C47.8966 60.4014 48.1553 60.6929 48.4931 60.8572C48.8309 61.0215 49.2203 61.045 49.5755 60.9226C53.1087 59.6959 56.1865 57.4285 58.4029 54.4194C60.6193 51.4103 61.8702 47.801 61.9904 44.0676C62.1107 40.3342 61.0948 36.652 59.0766 33.5069C57.0585 30.3618 54.133 27.9015 50.686 26.4506C47.239 24.9997 43.4326 24.6263 39.7688 25.3796C36.1049 26.133 32.7559 27.9778 30.1634 30.6706C27.571 33.3634 25.8569 36.7777 25.2473 40.4632C24.6377 44.1486 25.1613 47.932 26.7489 51.3142C26.8275 51.4828 26.9386 51.6343 27.0759 51.76C27.2132 51.8857 27.374 51.9831 27.549 52.0466C27.7241 52.1102 27.91 52.1386 28.096 52.1303C28.2821 52.1221 28.4647 52.0772 28.6334 51.9983C28.8021 51.9195 28.9535 51.8082 29.0791 51.6708C29.2046 51.5334 29.3018 51.3726 29.365 51.1976C29.4282 51.0227 29.4563 50.837 29.4476 50.6512C29.4388 50.4654 29.3935 50.2831 29.3141 50.1149Z" fill="#212121"/>
<path d="M89.7918 54.8548L85.8494 54.2829C85.2123 51.6271 84.1716 49.0871 82.7642 46.7533L85.1517 43.54C85.3555 43.2661 85.4546 42.927 85.4305 42.5852C85.4065 42.2434 85.2611 41.9218 85.021 41.6797L79.3144 35.9153C79.1838 35.7819 79.0285 35.6759 78.8572 35.6034C78.6859 35.5309 78.5022 35.4933 78.3165 35.4928C78.1308 35.4922 77.9468 35.5288 77.7751 35.6003C77.6035 35.6718 77.4475 35.7769 77.3162 35.9096C77.1849 36.0422 77.0808 36.1997 77.01 36.3731C76.9392 36.5465 76.903 36.7323 76.9036 36.9199C76.9041 37.1075 76.9413 37.2931 77.0131 37.466C77.0849 37.639 77.1899 37.7959 77.322 37.9278L82.1643 42.8194L79.9255 45.8312C79.7509 46.0658 79.6525 46.3494 79.6439 46.6428C79.6353 46.9362 79.7168 47.2251 79.8773 47.4698C81.5425 50.0096 82.7068 52.85 83.3064 55.8354C83.364 56.1228 83.5083 56.3853 83.7194 56.5867C83.9305 56.7881 84.1982 56.9187 84.4856 56.9604L88.1817 57.497V63.8819L84.4856 64.4185C84.1982 64.4603 83.9305 64.5908 83.7194 64.7922C83.5083 64.9936 83.364 65.2561 83.3064 65.5436C82.7067 68.5289 81.5424 71.3693 79.8772 73.9091C79.7167 74.1538 79.6352 74.4427 79.6438 74.7361C79.6524 75.0295 79.7508 75.3131 79.9254 75.5477L82.1642 78.5595L77.6934 83.0751L74.7115 80.8138C74.4788 80.6377 74.1979 80.5386 73.9073 80.5299C73.6166 80.5212 73.3304 80.6033 73.0878 80.7651C70.574 82.4478 67.7621 83.6241 64.8065 84.2293C64.5218 84.288 64.2619 84.434 64.0624 84.6474C63.8629 84.8609 63.7335 85.1313 63.6919 85.4218L63.1622 89.1536H56.8378L56.308 85.4218C56.2664 85.1313 56.1371 84.8609 55.9376 84.6474C55.7381 84.434 55.4782 84.288 55.1934 84.2293C52.2379 83.6241 49.4259 82.4478 46.9122 80.7651C46.6696 80.6032 46.3833 80.5209 46.0927 80.5296C45.802 80.5383 45.5211 80.6376 45.2884 80.8138L42.3066 83.0751L37.8357 78.5594L40.0746 75.5476C40.2492 75.313 40.3475 75.0294 40.3562 74.736C40.3648 74.4426 40.2832 74.1537 40.1227 73.909C38.4576 71.3692 37.2933 68.5288 36.6936 65.5435C36.636 65.256 36.4917 64.9935 36.2806 64.7921C36.0695 64.5907 35.8018 64.4601 35.5144 64.4184L31.8182 63.8819V57.4969L35.5142 56.9604C35.8017 56.9186 36.0693 56.7881 36.2805 56.5867C36.4916 56.3852 36.6359 56.1228 36.6935 55.8353C37.2931 52.85 38.4575 50.0095 40.1227 47.4698C40.2832 47.2251 40.3647 46.9361 40.3561 46.6427C40.3475 46.3493 40.2491 46.0658 40.0745 45.8311L37.8356 42.8193L42.3066 38.3038L45.2885 40.565C45.5211 40.7421 45.8024 40.8418 46.0936 40.8503C46.3848 40.8588 46.6713 40.7756 46.9136 40.6123C48.635 39.4578 50.502 38.5418 52.4647 37.8889C52.6407 37.8308 52.8038 37.7381 52.9444 37.6163C53.085 37.4945 53.2004 37.3458 53.284 37.1789C53.3677 37.012 53.4179 36.83 53.4319 36.6434C53.4458 36.4568 53.4232 36.2693 53.3653 36.0916C53.3074 35.9139 53.2153 35.7494 53.0944 35.6076C52.9735 35.4659 52.8261 35.3496 52.6607 35.2654C52.4952 35.1813 52.3149 35.1309 52.1302 35.1172C51.9454 35.1035 51.7598 35.1268 51.584 35.1856C49.7002 35.8117 47.894 36.6543 46.2008 37.6971L43.0207 35.2857C42.7495 35.0795 42.4136 34.9793 42.075 35.0036C41.7364 35.0278 41.4179 35.1749 41.1782 35.4177L34.979 41.6797C34.7389 41.9218 34.5935 42.2434 34.5694 42.5852C34.5454 42.927 34.6444 43.2661 34.8483 43.54L37.2358 46.7533C35.8284 49.0871 34.7877 51.6271 34.1506 54.2829L30.2082 54.8548C29.8727 54.9035 29.5658 55.0727 29.3439 55.3315C29.122 55.5902 28.9999 55.9211 29 56.2634V65.1154C28.9999 65.4577 29.122 65.7886 29.3439 66.0473C29.5658 66.3061 29.8727 66.4753 30.2082 66.524L34.1506 67.0959C34.7877 69.7517 35.8284 72.2917 37.2358 74.6255L34.8483 77.8388C34.6444 78.1127 34.5454 78.4518 34.5694 78.7936C34.5935 79.1354 34.7389 79.457 34.979 79.6991L41.1782 85.9611C41.418 86.2036 41.7365 86.3504 42.075 86.3747C42.4136 86.399 42.7494 86.299 43.0207 86.0931L46.2022 83.681C48.5124 85.1033 51.0269 86.1552 53.6563 86.7992L54.2218 90.779C54.2704 91.1179 54.4381 91.4278 54.6943 91.6521C54.9506 91.8763 55.2782 91.9998 55.6172 92H64.3828C64.7218 91.9998 65.0494 91.8762 65.3056 91.652C65.5618 91.4278 65.7296 91.1179 65.7781 90.779L66.3437 86.7992C68.9731 86.1552 71.4876 85.1033 73.7978 83.681L76.9793 86.0931C77.2507 86.2988 77.5865 86.3987 77.9249 86.3744C78.2634 86.3502 78.5819 86.2034 78.8218 85.9611L85.021 79.6991C85.2611 79.457 85.4065 79.1354 85.4306 78.7936C85.4546 78.4518 85.3556 78.1127 85.1517 77.8388L82.7642 74.6255C84.1716 72.2917 85.2123 69.7517 85.8494 67.0959L89.7918 66.524C90.1273 66.4753 90.4342 66.3061 90.6561 66.0474C90.878 65.7886 91.0001 65.4577 91 65.1154V56.2634C91.0001 55.9211 90.878 55.5902 90.6561 55.3315C90.4342 55.0727 90.1273 54.9035 89.7918 54.8548Z" fill="#212121"/>
<path d="M74.6859 53.8851C76.0318 56.7497 76.4764 59.9545 75.961 63.0765C75.4457 66.1986 73.9947 69.0913 71.7993 71.3731C69.604 73.6548 66.7675 75.2184 63.6641 75.8576C60.5607 76.4967 57.3362 76.1813 54.4159 74.9531C51.4957 73.7249 49.0169 71.6415 47.3066 68.9778C45.5963 66.3141 44.7348 63.1952 44.8359 60.0326C44.9369 56.8701 45.9957 53.8124 47.8725 51.2629C49.7493 48.7135 52.3561 46.7921 55.3488 45.7522C55.704 45.6298 55.996 45.3715 56.1605 45.0342C56.325 44.6968 56.3485 44.308 56.226 43.9533C56.1034 43.5986 55.8448 43.3071 55.5069 43.1428C55.1691 42.9785 54.7797 42.955 54.4245 43.0774C50.8913 44.3041 47.8135 46.5715 45.5971 49.5806C43.3807 52.5896 42.1298 56.199 42.0096 59.9324C41.8893 63.6658 42.9052 67.3479 44.9234 70.493C46.9415 73.6381 49.867 76.0984 53.314 77.5494C56.7609 79.0003 60.5674 79.3737 64.2312 78.6204C67.895 77.867 71.244 76.0222 73.8365 73.3294C76.429 70.6366 78.1431 67.2223 78.7527 63.5369C79.3623 59.8515 78.8387 56.0681 77.2511 52.6859C77.1725 52.5172 77.0614 52.3658 76.9241 52.2401C76.7868 52.1144 76.6261 52.017 76.451 51.9534C76.276 51.8899 76.0901 51.8614 75.904 51.8697C75.7179 51.878 75.5353 51.9229 75.3666 52.0017C75.198 52.0806 75.0465 52.1919 74.921 52.3293C74.7954 52.4667 74.6982 52.6275 74.635 52.8024C74.5718 52.9774 74.5437 53.1631 74.5525 53.3488C74.5612 53.5346 74.6066 53.7169 74.6859 53.8851Z" fill="#212121"/>
<path d="M79.3826 20.6607H80.8086V30.5714C80.8086 30.9503 80.9543 31.3137 81.2136 31.5816C81.4729 31.8495 81.8246 32 82.1913 32C82.558 32 82.9097 31.8495 83.1691 31.5816C83.4284 31.3137 83.574 30.9503 83.574 30.5714V19.2321C83.574 18.9353 83.4845 18.646 83.318 18.4041C83.1515 18.1622 82.9163 17.9799 82.645 17.8824L85 15.4486L87.355 17.8824C87.0837 17.9799 86.8485 18.1622 86.682 18.4041C86.5155 18.646 86.426 18.9353 86.426 19.2321V30.5714C86.426 30.9503 86.5716 31.3137 86.8309 31.5816C87.0903 31.8495 87.442 32 87.8087 32C88.1754 32 88.5271 31.8495 88.7864 31.5816C89.0457 31.3137 89.1914 30.9503 89.1914 30.5714V20.6607H90.6174C90.8908 20.6607 91.1582 20.5769 91.3855 20.4199C91.6129 20.263 91.7901 20.0399 91.8948 19.7788C91.9994 19.5178 92.0268 19.2306 91.9734 18.9535C91.9201 18.6764 91.7884 18.4219 91.595 18.2221L85.9776 12.4185C85.8493 12.2858 85.6969 12.1806 85.5291 12.1088C85.3614 12.037 85.1816 12 85 12C84.8184 12 84.6386 12.037 84.4709 12.1088C84.3031 12.1806 84.1507 12.2858 84.0224 12.4185L78.405 18.2221C78.2116 18.4218 78.0799 18.6764 78.0266 18.9535C77.9732 19.2306 78.0006 19.5178 78.1052 19.7788C78.2099 20.0398 78.3871 20.2629 78.6145 20.4199C78.8418 20.5769 79.1092 20.6607 79.3826 20.6607Z" fill="#212121"/>
<path d="M19.9777 72.4185C19.8493 72.2858 19.6969 72.1806 19.5291 72.1088C19.3614 72.037 19.1816 72 19 72C18.8184 72 18.6386 72.037 18.4709 72.1088C18.3032 72.1806 18.1507 72.2858 18.0224 72.4185L12.4051 78.2221C12.2117 78.4218 12.08 78.6764 12.0266 78.9535C11.9732 79.2306 12.0006 79.5178 12.1052 79.7788C12.2099 80.0399 12.3871 80.263 12.6145 80.42C12.8419 80.5769 13.1092 80.6607 13.3827 80.6607H14.8086V90.5714C14.8086 90.9503 14.9543 91.3137 15.2136 91.5816C15.4729 91.8495 15.8246 92 16.1913 92C16.5581 92 16.9098 91.8495 17.1691 91.5816C17.4284 91.3137 17.5741 90.9503 17.5741 90.5714V79.2321C17.574 78.9353 17.4845 78.646 17.318 78.4041C17.1515 78.1622 16.9164 77.9799 16.6451 77.8824L19 75.4486L21.355 77.8824C21.0837 77.9799 20.8485 78.1622 20.682 78.4041C20.5156 78.646 20.4261 78.9353 20.426 79.2321V90.5714C20.426 90.9503 20.5716 91.3137 20.831 91.5816C21.0903 91.8495 21.442 92 21.8087 92C22.1754 92 22.5271 91.8495 22.7864 91.5816C23.0458 91.3137 23.1914 90.9503 23.1914 90.5714V80.6607H24.6174C24.8908 80.6607 25.1582 80.5769 25.3855 80.4199C25.6129 80.263 25.7901 80.0399 25.8948 79.7788C25.9994 79.5178 26.0268 79.2306 25.9734 78.9535C25.9201 78.6764 25.7884 78.4219 25.595 78.2221L19.9777 72.4185Z" fill="#212121"/>
</svg>
