<svg width="123" height="123" viewBox="0 0 123 123" fill="none" xmlns="http://www.w3.org/2000/svg">
<circle cx="61.5" cy="61.5" r="61.0845" fill="#FFBE2E" stroke="#FFBE2E" stroke-width="0.831081"/>
<rect x="47" y="43" width="42" height="53" rx="2" fill="white"/>
<path d="M62.0032 31C61.7287 31 61.4651 31.1004 61.2702 31.2831C61.0753 31.4658 60.9655 31.7154 60.9682 31.9727V36.5996C60.9655 36.8595 61.0753 37.1066 61.2702 37.2893C61.4651 37.472 61.7287 37.5749 62.0032 37.5723C62.2777 37.5723 62.5413 37.4694 62.7335 37.2867C62.9284 37.104 63.0355 36.857 63.0327 36.5996V31.9727C63.0355 31.7154 62.9284 31.4684 62.7335 31.2856C62.5413 31.1029 62.2778 31 62.0032 31ZM40.8124 39.2294C40.5379 39.232 40.2716 39.335 40.0794 39.5177C39.6786 39.8959 39.6786 40.5058 40.0794 40.8815L43.5742 44.1574C43.7664 44.3401 44.0299 44.4431 44.3072 44.4431C44.5818 44.4431 44.8453 44.3401 45.0403 44.1574C45.2324 43.9773 45.3422 43.7303 45.3422 43.4729C45.3422 43.2155 45.2324 42.9685 45.0403 42.7858L41.5455 39.5177C41.3505 39.335 41.087 39.232 40.8124 39.2294ZM83.1286 39.2346C82.8761 39.2475 82.6372 39.3504 82.4588 39.5177L78.9723 42.7858C78.7773 42.9685 78.6675 43.2155 78.6675 43.4729C78.6675 43.7303 78.7773 43.9773 78.9723 44.16C79.3758 44.5357 80.0265 44.5357 80.43 44.16L83.9248 40.8841V40.8815C84.3229 40.5032 84.3229 39.8959 83.9248 39.5177C83.7162 39.3195 83.4251 39.2166 83.1286 39.2346ZM62.0032 39.2783C49.7647 39.2783 39.8187 48.5968 39.8187 60.0661C39.8214 65.519 42.1028 70.6348 45.9846 74.4333C48.9633 77.349 52.2934 82.0402 52.2934 85.738V89.5877C52.2934 91.4637 53.9378 93 55.9391 93H68.0708C70.0722 93 71.7111 91.4637 71.7111 89.5877V85.738C71.7111 82.0375 75.0384 77.3491 78.0198 74.4333C81.8989 70.6351 84.1803 65.5194 84.1858 60.0661C84.1858 48.5968 74.2447 39.2783 62.009 39.2783H62.0032ZM60.9655 41.2393V45.7709C60.7843 45.7529 60.6223 45.6628 60.4384 45.6628L60.4411 45.668H60.4329C57.8001 45.668 55.6478 47.6932 55.6478 50.1611C55.6478 52.6263 57.8001 54.6438 60.4329 54.6438V54.6413H60.4411C60.6223 54.6413 60.787 54.5538 60.9682 54.5358V59.106H54.8406C54.4892 59.106 54.1626 59.2733 53.9731 59.5512C53.7809 59.8291 53.7562 60.1765 53.9017 60.4776C54.0665 60.8121 54.1543 61.1775 54.1543 61.5455C54.1543 62.966 52.9463 64.0906 51.431 64.0906C49.9183 64.0906 48.7131 62.9635 48.7131 61.5455C48.7131 61.1775 48.801 60.8121 48.9657 60.4776C49.1139 60.1765 49.0865 59.8291 48.897 59.5512C48.7076 59.2733 48.3809 59.106 48.0268 59.106H41.913C42.4318 49.4562 50.6706 41.7334 60.9651 41.2446L60.9655 41.2393ZM63.0327 41.2393C73.3329 41.7256 81.569 49.4483 82.0876 59.1007H77.2532C77.2724 58.9309 77.3685 58.7713 77.3685 58.5989C77.3685 56.1336 75.2079 54.1135 72.5779 54.1135H72.5752C69.9451 54.1161 67.7928 56.1336 67.7928 58.5989C67.7928 58.7713 67.8862 58.9283 67.9081 59.1007L63.0325 59.1058V53.3467C63.0325 53.0173 62.854 52.7111 62.5575 52.5335C62.261 52.3559 61.8904 52.3302 61.5693 52.4666C61.2124 52.621 60.8253 52.7033 60.4327 52.7033C58.9201 52.7033 57.7148 51.5762 57.7148 50.1557C57.7148 48.7352 58.9172 47.6029 60.4327 47.6029C60.8253 47.6029 61.2124 47.6853 61.5693 47.8397V47.8423C61.8905 47.9787 62.2611 47.9529 62.5575 47.7754C62.854 47.5978 63.0325 47.2916 63.0325 46.9622L63.0327 41.2393ZM72.5781 56.0538C74.0934 56.0538 75.3014 57.1784 75.3014 58.5989C75.3014 58.9669 75.2136 59.3298 75.0488 59.6643L75.0516 59.6694C74.9033 59.9679 74.9281 60.3179 75.1202 60.5958C75.3097 60.8737 75.6363 61.0436 75.9878 61.0436H82.0851C81.8298 65.6241 79.8147 69.883 76.5286 73.0998C74.6947 74.8935 72.6962 77.2481 71.3263 79.8214H63.0326V74.3581C63.2138 74.3761 63.384 74.4662 63.5679 74.4662C66.1979 74.4662 68.3503 72.4487 68.353 69.9808C68.353 67.513 66.2007 65.4904 63.5679 65.4904C63.384 65.4904 63.2165 65.5778 63.0326 65.5984V61.041H69.1766C69.528 61.041 69.8574 60.8737 70.0469 60.5958C70.2363 60.3179 70.261 59.9679 70.1155 59.6694C69.9508 59.3349 69.8629 58.9721 69.8629 58.6041C69.8629 57.1862 71.0653 56.059 72.5808 56.059L72.5781 56.0538ZM32.035 59.0853L32.0378 59.0904C31.7605 59.0879 31.497 59.1908 31.302 59.3735C31.1071 59.5562 30.9973 59.8032 31.0001 60.0632C31.0001 60.3205 31.1099 60.565 31.3048 60.7451C31.4997 60.9278 31.7632 61.0282 32.0378 61.0282H36.9738C37.2484 61.0282 37.5119 60.9278 37.7068 60.7451C37.9018 60.565 38.0116 60.3205 38.0116 60.0632C38.0116 59.8033 37.9045 59.5562 37.7096 59.3735C37.5147 59.1908 37.2484 59.0879 36.9738 59.0904L32.035 59.0853ZM87.0262 59.0853L87.0289 59.0904C86.4579 59.093 85.9967 59.5279 85.9995 60.0632C85.9995 60.5933 86.4607 61.0256 87.0289 61.0282H91.9733H91.9705C92.5388 61.0256 92.9972 60.5933 93 60.0632C93.0027 59.5279 92.5415 59.093 91.9705 59.0904L87.0262 59.0853ZM41.9129 61.0384H46.7583C46.7364 61.2083 46.643 61.3601 46.643 61.5325L46.6485 61.5351V61.5428C46.6485 64.0081 48.8008 66.0256 51.4336 66.0256C54.0663 66.0256 56.2241 64.0106 56.2241 61.5428H56.2214V61.5402V61.5377V61.5351C56.2214 61.3652 56.1281 61.2108 56.1088 61.041H60.968V66.7847C60.968 67.1141 61.1465 67.4229 61.443 67.6005C61.7395 67.7781 62.1128 67.8012 62.4313 67.6648C62.7854 67.5104 63.1752 67.4281 63.5678 67.4281C65.0832 67.4281 66.2857 68.5604 66.2857 69.9809C66.2857 71.3987 65.0833 72.5285 63.5678 72.5285C63.1753 72.5285 62.7854 72.4461 62.4313 72.2917C62.1128 72.1528 61.7394 72.1759 61.443 72.3561C61.1465 72.5336 60.968 72.8399 60.968 73.1718V79.8215H52.6828C51.3129 77.2482 49.3115 74.8935 47.4777 73.1C44.1916 69.8833 42.171 65.6242 41.9157 61.0437L41.9129 61.0384ZM44.2436 75.6836C43.9911 75.6991 43.7522 75.7994 43.5738 75.9667L40.079 79.2348C39.8841 79.4175 39.7743 79.6646 39.7743 79.922C39.7743 80.1793 39.8841 80.4263 40.079 80.6091C40.2739 80.7918 40.5374 80.8947 40.812 80.8947C41.0865 80.8947 41.3501 80.7918 41.545 80.6091L45.0398 77.3332C45.4406 76.9549 45.4406 76.345 45.0398 75.9667C44.8284 75.7711 44.5401 75.6682 44.2436 75.6836ZM79.6387 75.6888C79.3861 75.7017 79.15 75.802 78.9716 75.9667C78.5707 76.345 78.5707 76.9549 78.9716 77.3332L82.4581 80.6091C82.653 80.7918 82.9165 80.8947 83.1911 80.8947C83.4656 80.8947 83.7292 80.7918 83.9241 80.6091C84.119 80.4263 84.2288 80.1793 84.2288 79.922C84.2288 79.6646 84.119 79.4176 83.9241 79.2348L80.4293 75.9667C80.2207 75.7737 79.9324 75.6708 79.6387 75.6888ZM53.5635 81.7541H70.4391C69.9806 82.9662 69.6951 84.204 69.6539 85.4392L54.354 85.4444C54.3128 84.2092 54.0273 82.9714 53.5661 81.7593L53.5635 81.7541ZM54.3569 87.3743H69.6456V89.5848C69.6456 90.4135 68.951 91.0568 68.067 91.0568L55.9381 91.062C55.0542 91.062 54.3596 90.4186 54.3596 89.59L54.3569 87.3743Z" fill="black"/>
</svg>
