<svg width="265" height="156" viewBox="0 0 265 156" fill="none" xmlns="http://www.w3.org/2000/svg">
<path d="M138.795 34.5923C143.807 34.8171 148.708 35.2688 153.467 35.9302L153.286 37.2417C158.233 37.9292 163.023 38.8449 167.621 39.9673L167.935 38.6812V38.6802C172.865 39.8837 177.579 41.3245 182.034 42.9761L181.574 44.2173C186.315 45.9753 190.753 47.9741 194.835 50.1802L195.464 49.0151C200.01 51.4718 204.13 54.1867 207.751 57.1196L206.918 58.1489C210.888 61.3634 214.228 64.8292 216.855 68.4849L217.928 67.7124C220.933 71.8934 223.048 76.3388 224.14 80.9722L222.853 81.2759C223.393 83.5668 223.671 85.9031 223.671 88.2759C223.671 90.6487 223.393 92.985 222.853 95.2759L224.14 95.5786C223.048 100.212 220.933 104.658 217.928 108.839L216.855 108.068C214.228 111.723 210.887 115.189 206.918 118.404L207.751 119.432C204.13 122.365 200.01 125.079 195.464 127.536L194.835 126.373C190.753 128.579 186.315 130.576 181.574 132.334L182.034 133.575C177.579 135.226 172.865 136.667 167.934 137.871L167.621 136.585C163.023 137.708 158.233 138.623 153.286 139.31L153.467 140.621C148.708 141.282 143.807 141.735 138.795 141.959L138.737 140.637C136.324 140.745 133.884 140.8 131.422 140.8C128.96 140.8 126.521 140.745 124.108 140.637L124.048 141.959C119.036 141.735 114.136 141.282 109.376 140.621L109.559 139.31C104.612 138.623 99.8218 137.708 95.2241 136.585L94.9106 137.871C89.9796 136.667 85.2652 135.227 80.8101 133.575L81.271 132.334C76.5295 130.576 72.0914 128.579 68.0093 126.373L67.3794 127.536C62.8335 125.079 58.7137 122.365 55.0923 119.432H55.0933L55.9263 118.404C51.9572 115.189 48.6167 111.723 45.9897 108.068L44.9155 108.839C41.911 104.658 39.7953 100.212 38.7036 95.5786L39.9917 95.2759C39.5194 93.2715 39.2467 91.2325 39.186 89.1646L39.1733 88.2759C39.1734 85.9031 39.4519 83.5668 39.9917 81.2759L38.7036 80.9722C39.7954 76.3389 41.9111 71.8933 44.9155 67.7124L45.9897 68.4849C48.6167 64.8292 51.9572 61.3633 55.9263 58.1489L55.0933 57.1196C58.7145 54.1869 62.8338 51.4727 67.3794 49.0161L68.0093 50.1802C72.0915 47.9741 76.5294 45.9753 81.271 44.2173L80.8101 42.9761C85.2649 41.3244 89.979 39.8838 94.9097 38.6802L94.9106 38.6812L95.2241 39.9673C99.8218 38.8449 104.612 37.9292 109.559 37.2417L109.376 35.9302C114.136 35.2688 119.037 34.8171 124.048 34.5923L124.108 35.9146C126.521 35.8063 128.96 35.7515 131.422 35.7515C133.884 35.7515 136.324 35.8063 138.737 35.9146L138.795 34.5923Z" stroke="#978050" stroke-width="2.6483" stroke-dasharray="15.01 15.01"/>
<path opacity="0.2" d="M249.536 88.7662C249.737 51.6986 197.85 21.3683 133.644 21.0216C69.4377 20.6749 17.2262 50.443 17.026 87.5106C16.8258 124.578 68.7128 154.909 132.919 155.255C197.125 155.602 249.336 125.834 249.536 88.7662Z" fill="#E5E5E5"/>
<path d="M156.43 131.376L198.815 106.904C200.032 106.202 200.646 105.283 200.657 104.362C200.668 103.424 200.657 100.012 200.657 100.012L105.151 47.6902C102.695 46.2719 98.7124 46.2719 96.256 47.6902L52.0295 70.372C52.0295 70.372 52.0295 73.8 52.0295 74.7294C52.0295 75.6589 52.6436 76.5883 53.8718 77.2974L147.535 131.376C149.991 132.794 153.974 132.794 156.43 131.376Z" fill="#212121"/>
<path d="M156.43 127.018L198.815 102.546C201.271 101.128 201.271 98.8287 198.815 97.4104L105.151 43.3322C102.695 41.914 98.7123 41.914 96.2559 43.3322L53.8718 67.8035C51.4154 69.2217 51.4154 71.5211 53.8718 72.9394L147.535 127.018C149.991 128.436 153.974 128.436 156.43 127.018Z" fill="#FFBE2E"/>
<g opacity="0.1">
<path d="M155.541 126.544L197.995 102.033C199.96 100.898 199.96 99.0587 197.995 97.924L104.262 43.8055C102.297 42.6709 99.1109 42.6709 97.1458 43.8055L54.6919 68.3172C52.7267 69.4518 52.7267 71.2913 54.6919 72.4259L148.425 126.544C150.39 127.679 153.576 127.679 155.541 126.544Z" fill="white"/>
</g>
<path d="M103.78 45.0088L195.913 98.2031C197.612 99.1841 197.612 100.775 195.913 101.756L155.061 125.342C153.362 126.324 150.606 126.324 148.907 125.342L56.7749 72.1481C55.0757 71.1671 55.0757 69.5764 56.7749 68.5952L97.6266 45.0088C99.3259 44.0277 102.081 44.0277 103.78 45.0088Z" fill="#FFF7E4"/>
<path d="M79.9371 57.3935C80.4094 57.6662 80.4094 58.1083 79.9371 58.381C79.4647 58.6537 78.699 58.6537 78.2268 58.381C77.7544 58.1084 77.7545 57.6662 78.2268 57.3935C78.699 57.1208 79.4647 57.1208 79.9371 57.3935Z" fill="#3C2C0B"/>
<path opacity="0.5" d="M116.197 55.0108L74.0998 79.3161C73.9241 79.4176 73.6172 79.4048 73.4143 79.2877L61.3292 72.3101C61.1264 72.193 61.1043 72.0157 61.28 71.9144L103.377 47.609C103.552 47.5075 103.859 47.5203 104.062 47.6374L116.147 54.615C116.35 54.7322 116.372 54.9093 116.197 55.0108ZM161.444 118.27L119.446 94.0221C119.243 93.905 118.936 93.8922 118.761 93.9937L109.141 99.5478C108.965 99.6492 108.987 99.8264 109.19 99.9435L151.188 124.192C151.391 124.309 151.698 124.322 151.874 124.22L161.493 118.666C161.669 118.565 161.647 118.388 161.444 118.27ZM149.479 73.8598L141.667 69.3495C141.464 69.2323 141.157 69.2196 140.982 69.321L98.885 93.6264C98.7093 93.7278 98.7313 93.905 98.9343 94.0221L106.746 98.5324C106.949 98.6495 107.256 98.6623 107.432 98.5608L149.528 74.2555C149.704 74.154 149.682 73.9769 149.479 73.8598ZM151.215 75.2562L121.131 92.6258C120.942 92.7348 120.942 92.9115 121.131 93.0205L133.551 100.192C133.74 100.301 134.046 100.301 134.235 100.192L164.319 82.8223C164.508 82.7133 164.508 82.5365 164.319 82.4275L151.898 75.2562C151.71 75.1472 151.403 75.1472 151.215 75.2562ZM135.944 101.574L148.365 108.745C148.554 108.854 148.86 108.854 149.049 108.745L179.133 91.3753C179.321 91.2663 179.321 91.0895 179.133 90.9805L166.712 83.8092C166.523 83.7002 166.217 83.7002 166.028 83.8092L135.944 101.179C135.755 101.288 135.755 101.465 135.944 101.574ZM180.842 92.3622L150.758 109.732C150.569 109.841 150.569 110.018 150.758 110.127L163.18 117.298C163.368 117.407 163.675 117.407 163.863 117.298L193.947 99.9288C194.136 99.8198 194.136 99.643 193.947 99.534L181.526 92.3622C181.337 92.2531 181.031 92.2531 180.842 92.3622ZM117.002 80.7681L96.3703 68.856C96.1674 68.7389 95.8604 68.7261 95.6848 68.8276L75.8092 80.3031C75.6335 80.4045 75.6555 80.5817 75.8584 80.6988L96.4901 92.6109C96.6929 92.728 96.9999 92.7408 97.1755 92.6393L117.051 81.1638C117.227 81.0624 117.205 80.8852 117.002 80.7681ZM139.223 67.9382L118.591 56.0262C118.389 55.909 118.082 55.8963 117.906 55.9977L98.0304 67.4732C97.8547 67.5747 97.8767 67.7519 98.0796 67.869L118.711 79.7811C118.914 79.8982 119.221 79.911 119.397 79.8095L139.272 68.334C139.448 68.2325 139.426 68.0554 139.223 67.9382Z" fill="#978050"/>
<path d="M162.596 65.043L154.947 110.725C154.911 110.934 154.803 111.063 154.667 111.118C154.529 111.174 154.342 111.161 154.136 111.042L98.384 78.8545C98.1778 78.7354 98.0025 78.5363 97.8879 78.3096C97.7731 78.0823 97.7236 77.8358 97.759 77.624L105.396 32.0186L162.596 65.043Z" fill="#FFF7E4" stroke="black" stroke-width="0.206255"/>
<path d="M106.422 27.1636C106.56 27.1078 106.748 27.1207 106.955 27.2397L162.706 59.4272C162.912 59.5464 163.088 59.7453 163.203 59.9722C163.317 60.1995 163.366 60.446 163.331 60.6577L162.632 64.8267L105.432 31.8022L106.143 27.5571C106.178 27.348 106.287 27.2185 106.422 27.1636Z" fill="#FFBE2E" stroke="black" stroke-width="0.206255"/>
<path d="M109.033 31.1599C108.953 31.6368 108.522 31.8115 108.069 31.55C107.615 31.2884 107.313 30.6898 107.393 30.2128C107.473 29.7357 107.905 29.5612 108.358 29.8227C108.811 30.0842 109.113 30.6828 109.033 31.1599Z" fill="#3C2C0B"/>
<path d="M111.493 32.5803C111.413 33.0572 110.981 33.2319 110.528 32.9704C110.075 32.7089 109.772 32.1102 109.852 31.6332C109.932 31.1561 110.364 30.9816 110.817 31.2431C111.27 31.5047 111.572 32.1033 111.493 32.5803Z" fill="#3C2C0B"/>
<path d="M113.953 34.0007C113.873 34.4776 113.441 34.6523 112.988 34.3908C112.535 34.1292 112.232 33.5306 112.312 33.0536C112.392 32.5766 112.824 32.402 113.277 32.6635C113.73 32.925 114.032 33.5237 113.953 34.0007Z" fill="#3C2C0B"/>
<path d="M113.829 61.5729L116.489 45.6893C116.553 45.3079 116.899 45.1683 117.261 45.3774L148.744 63.5541C149.106 63.7633 149.348 64.242 149.284 64.6234L146.624 80.5069C146.56 80.8883 146.215 81.0279 145.853 80.8189L114.37 62.6421C114.007 62.433 113.765 61.9543 113.829 61.5729Z" fill="#978050"/>
<path opacity="0.6" d="M134.642 61.3351L132.591 60.151C132.251 59.9548 132.024 59.5057 132.084 59.1479C132.144 58.7901 132.468 58.6591 132.808 58.8553L134.859 60.0394C135.199 60.2357 135.426 60.6847 135.366 61.0425C135.306 61.4002 134.982 61.5312 134.642 61.3351Z" fill="#FFF7E4"/>
<path opacity="0.6" d="M134.208 63.9254L132.157 62.7413C131.817 62.5451 131.59 62.0961 131.65 61.7382C131.71 61.3804 132.034 61.2494 132.374 61.4457L134.425 62.6298C134.765 62.826 134.992 63.275 134.932 63.6328C134.872 63.9906 134.548 64.1216 134.208 63.9254Z" fill="#FFF7E4"/>
<path opacity="0.6" d="M133.774 66.5148L131.723 65.3307C131.384 65.1344 131.157 64.6854 131.217 64.3276C131.277 63.9699 131.601 63.8388 131.94 64.035L133.991 65.2191C134.331 65.4153 134.558 65.8644 134.498 66.2222C134.438 66.5799 134.114 66.711 133.774 66.5148Z" fill="#FFF7E4"/>
<path opacity="0.6" d="M133.341 69.1051L131.29 67.921C130.95 67.7248 130.723 67.2757 130.783 66.9179C130.843 66.5601 131.167 66.4291 131.507 66.6253L133.558 67.8095C133.897 68.0057 134.124 68.4547 134.064 68.8125C134.004 69.1704 133.68 69.3013 133.341 69.1051Z" fill="#FFF7E4"/>
<path d="M144.888 67.2508L137.1 62.7542C136.76 62.5581 136.533 62.1093 136.593 61.7517C136.653 61.3941 136.977 61.2632 137.317 61.4593L145.105 65.9559C145.445 66.152 145.672 66.6008 145.612 66.9584C145.552 67.3159 145.228 67.4468 144.888 67.2508Z" fill="#FFF7E4"/>
<path d="M142.223 68.5519L136.666 65.3435C136.326 65.1474 136.099 64.6986 136.159 64.341C136.219 63.9834 136.543 63.8525 136.883 64.0486L142.44 67.257C142.779 67.4531 143.006 67.9019 142.946 68.2595C142.886 68.617 142.562 68.7479 142.223 68.5519Z" fill="#FFF7E4"/>
<path d="M142.961 71.8187L136.232 67.9338C135.893 67.7377 135.666 67.289 135.726 66.9313C135.786 66.5738 136.109 66.4428 136.449 66.6389L143.178 70.5238C143.517 70.7199 143.744 71.1687 143.684 71.5263C143.624 71.8839 143.3 72.0148 142.961 71.8187Z" fill="#FFF7E4"/>
<path d="M140.279 73.1106L135.799 70.5238C135.459 70.3276 135.232 69.8787 135.292 69.5209C135.352 69.1631 135.676 69.0322 136.016 69.2284L140.496 71.8151C140.836 72.0113 141.063 72.4603 141.003 72.818C140.943 73.1758 140.619 73.3068 140.279 73.1106Z" fill="#FFF7E4"/>
<path d="M127.553 67.4069L116.895 61.2534C116.668 61.1227 116.517 60.8234 116.557 60.5851L118.436 49.3631C118.476 49.1247 118.692 49.0375 118.918 49.1682L129.577 55.3217C129.803 55.4524 129.954 55.7517 129.914 55.99L128.035 67.212C127.995 67.4503 127.779 67.5376 127.553 67.4069Z" fill="#FFF7E4"/>
<g opacity="0.5">
<path d="M124.44 62.2073C124.226 62.0837 124.022 62.1664 123.984 62.3917C123.947 62.617 124.09 62.9003 124.304 63.0239C124.518 63.1475 124.722 63.0648 124.76 62.8395C124.798 62.6143 124.655 62.3309 124.44 62.2073ZM124.338 62.8198C124.231 62.758 124.159 62.6163 124.178 62.5037C124.197 62.3904 124.299 62.349 124.406 62.4108C124.513 62.4726 124.586 62.6147 124.567 62.7279C124.548 62.8406 124.445 62.8816 124.338 62.8198Z" fill="#212121"/>
<path d="M120.725 60.0618C120.511 59.9382 120.307 60.0209 120.269 60.2462C120.232 60.4715 120.375 60.7548 120.589 60.8784C120.803 61.002 121.007 60.9193 121.045 60.694C121.083 60.4686 120.939 60.1853 120.725 60.0618ZM120.623 60.6743C120.516 60.6125 120.444 60.4704 120.463 60.3579C120.481 60.2446 120.584 60.2036 120.691 60.2654C120.798 60.3272 120.87 60.4688 120.851 60.5821C120.832 60.6947 120.73 60.7361 120.623 60.6743Z" fill="#212121"/>
<path d="M124.707 60.6112L120.139 57.9735C120.111 57.9572 120.09 57.9223 120.089 57.89L120.017 54.1297C120.016 54.1101 120.024 54.0941 120.037 54.086C120.049 54.0777 120.067 54.0781 120.084 54.0871L126.429 57.3485L126.608 57.0287C126.819 56.6524 127.264 56.5749 127.716 56.8358L128.158 57.091C128.191 57.1098 128.213 57.153 128.207 57.1873C128.201 57.2217 128.17 57.2343 128.138 57.2155L127.695 56.9602C127.295 56.7293 126.901 56.7979 126.715 57.1311L126.517 57.4839C126.517 57.4846 126.516 57.4853 126.516 57.486L124.771 60.6001C124.759 60.6216 124.733 60.6262 124.707 60.6112ZM120.208 57.8772L124.685 60.4618L126.37 57.4537L120.138 54.2504L120.208 57.8772Z" fill="#212121"/>
<path d="M124.629 61.0916L120.702 58.8247C120.67 58.8058 120.648 58.7627 120.654 58.7283C120.66 58.6939 120.691 58.6813 120.723 58.7002L124.591 60.933L124.661 60.515C124.666 60.4807 124.697 60.4681 124.73 60.4869C124.763 60.5058 124.785 60.5489 124.779 60.5833L124.698 61.0635C124.693 61.0979 124.662 61.1105 124.629 61.0916Z" fill="#212121"/>
<path d="M125.101 62.5964L119.997 59.6494C119.964 59.6305 119.942 59.5874 119.948 59.553C119.954 59.5186 119.985 59.506 120.017 59.5249L125.063 62.4378L125.124 62.0709C125.183 61.7221 124.961 61.2827 124.629 61.0915C124.597 61.0726 124.575 61.0295 124.581 60.9951C124.586 60.9607 124.618 60.9481 124.65 60.9669C125.047 61.1958 125.312 61.7216 125.242 62.139L125.171 62.5681C125.165 62.6026 125.134 62.6152 125.101 62.5964Z" fill="#212121"/>
<path d="M127.406 56.93L128.37 57.4865C128.429 57.5206 128.486 57.4978 128.496 57.4356L128.507 57.368C128.518 57.3058 128.478 57.2276 128.419 57.1935L127.455 56.6369C127.396 56.6028 127.34 56.6256 127.329 56.6878L127.318 56.7555C127.307 56.8178 127.347 56.8958 127.406 56.93Z" fill="#212121"/>
<path d="M124.14 60.286C124.138 60.2848 124.136 60.2836 124.134 60.2821C124.102 60.2599 124.084 60.2157 124.093 60.1835L125.069 56.707C125.078 56.6748 125.111 56.6665 125.143 56.6889C125.175 56.7111 125.193 56.7553 125.184 56.7875L124.208 60.264C124.2 60.2942 124.17 60.3032 124.14 60.286Z" fill="#212121"/>
<path d="M123.299 59.799C123.298 59.7984 123.297 59.7978 123.296 59.7971C123.264 59.7766 123.244 59.7329 123.251 59.6995L124.035 56.1774C124.042 56.1441 124.075 56.1345 124.107 56.1543C124.139 56.1749 124.159 56.2185 124.152 56.2519L123.368 59.7741C123.361 59.8063 123.33 59.817 123.299 59.799Z" fill="#212121"/>
<path d="M122.457 59.314C122.424 59.2952 122.403 59.2521 122.408 59.2177L123.005 55.6531C123.011 55.6188 123.042 55.6061 123.075 55.625C123.107 55.6438 123.129 55.687 123.124 55.7214L122.527 59.286C122.521 59.3203 122.49 59.3329 122.457 59.314Z" fill="#212121"/>
<path d="M121.616 58.8281C121.584 58.81 121.563 58.7692 121.567 58.7351L121.983 55.1304C121.987 55.0951 122.017 55.0804 122.049 55.0974C122.082 55.1146 122.106 55.1569 122.102 55.1922L121.686 58.7968C121.682 58.8321 121.652 58.8469 121.619 58.8299C121.618 58.8293 121.617 58.8288 121.616 58.8281Z" fill="#212121"/>
<path d="M120.774 58.3418C120.744 58.3245 120.722 58.2858 120.724 58.252L120.965 54.6108C120.967 54.5747 120.996 54.5578 121.029 54.5729C121.062 54.5878 121.087 54.6297 121.085 54.6658L120.844 58.3071C120.842 58.3431 120.813 58.3601 120.78 58.3448C120.778 58.3439 120.776 58.3429 120.774 58.3418Z" fill="#212121"/>
<path d="M125.985 58.3362L120.08 54.9272C120.047 54.9084 120.026 54.8652 120.031 54.8308C120.037 54.7964 120.068 54.7839 120.101 54.8027L126.006 58.2117C126.038 58.2306 126.06 58.2737 126.054 58.3081C126.048 58.3425 126.017 58.3551 125.985 58.3362Z" fill="#212121"/>
<path d="M125.548 59.1146L120.099 55.9686C120.067 55.9498 120.045 55.9067 120.05 55.8723C120.056 55.838 120.087 55.8254 120.12 55.8442L125.569 58.9902C125.602 59.009 125.623 59.0521 125.618 59.0865C125.612 59.1208 125.581 59.1334 125.548 59.1146Z" fill="#212121"/>
<path d="M125.112 59.8929L120.12 57.0106C120.087 56.9918 120.065 56.9486 120.071 56.9142C120.077 56.8799 120.108 56.8674 120.141 56.8862L125.133 59.7685C125.166 59.7873 125.187 59.8304 125.182 59.8648C125.176 59.8992 125.145 59.9117 125.112 59.8929Z" fill="#212121"/>
</g>
<path d="M144.624 88.1559L113.141 69.9792C112.779 69.77 112.537 69.2913 112.601 68.9099L113.237 65.1117C113.301 64.7303 113.646 64.5907 114.008 64.7998L145.491 82.9765C145.853 83.1857 146.095 83.6644 146.031 84.0458L145.395 87.844C145.332 88.2255 144.986 88.3651 144.624 88.1559Z" fill="#978050"/>
<path d="M116.321 70.8699L113.86 69.4492C113.634 69.3185 113.482 69.0191 113.522 68.7807L113.956 66.1898C113.996 65.9513 114.212 65.8641 114.439 65.9948L116.899 67.4155C117.126 67.5463 117.277 67.8456 117.237 68.0841L116.803 70.6749C116.763 70.9133 116.547 71.0006 116.321 70.8699Z" fill="#3C2C0B"/>
<path d="M144.196 86.9642L141.735 85.5436C141.509 85.4128 141.357 85.1134 141.397 84.8749L141.831 82.2841C141.871 82.0456 142.087 81.9583 142.314 82.0891L144.774 83.5098C145.001 83.6405 145.152 83.9399 145.112 84.1783L144.678 86.7691C144.638 87.0077 144.422 87.095 144.196 86.9642Z" fill="#3C2C0B"/>
<path d="M116.006 68.9832L114.694 68.2257C114.603 68.1734 114.543 68.0537 114.559 67.9583C114.575 67.8629 114.661 67.8279 114.752 67.8803L116.064 68.6378C116.155 68.6902 116.215 68.8098 116.199 68.9052C116.183 69.0006 116.097 69.0355 116.006 68.9832Z" fill="white"/>
<path d="M143.799 85.0292L142.65 84.3663C142.56 84.314 142.499 84.1943 142.515 84.0989C142.531 84.0035 142.618 83.9686 142.708 84.0209L143.856 84.6838C143.947 84.7361 144.007 84.8559 143.992 84.9512C143.976 85.0467 143.889 85.0815 143.799 85.0292Z" fill="white"/>
<path d="M142.989 85.0353L143.191 83.8264C143.207 83.7311 143.293 83.6961 143.384 83.7484C143.475 83.8008 143.535 83.9205 143.519 84.0158L143.317 85.2247C143.301 85.32 143.214 85.355 143.124 85.3027C143.033 85.2504 142.973 85.1306 142.989 85.0353Z" fill="white"/>
<path d="M128.868 75.5833L128.925 75.2412L130.092 75.9146L130.041 76.2152L129.53 76.4003C129.587 76.4448 129.642 76.4945 129.695 76.5494C129.747 76.6043 129.791 76.6644 129.827 76.7297C129.863 76.7951 129.89 76.8652 129.906 76.9401C129.923 77.015 129.924 77.0948 129.91 77.1793C129.895 77.2658 129.867 77.3369 129.826 77.3927C129.785 77.4485 129.733 77.4878 129.671 77.5104C129.608 77.5329 129.536 77.5366 129.453 77.5213C129.371 77.5059 129.282 77.4708 129.187 77.4159C129.031 77.3259 128.904 77.2203 128.804 77.099C128.705 76.9777 128.626 76.8488 128.568 76.7122L128.873 76.6007C128.92 76.7057 128.973 76.7954 129.032 76.8699C129.09 76.9445 129.164 77.0073 129.252 77.0585C129.324 77.1001 129.386 77.1142 129.438 77.1006C129.49 77.087 129.522 77.0458 129.533 76.9768C129.546 76.901 129.526 76.8264 129.475 76.7531C129.423 76.6798 129.343 76.6119 129.235 76.5495L129.077 76.4585L129.061 76.1711L129.545 75.974L128.868 75.5833Z" fill="#FFF7E4"/>
<path d="M141.158 97.0431L113.282 80.9491C111.924 80.1648 111.017 78.3696 111.256 76.9393C111.496 75.509 112.791 74.9853 114.149 75.7696L142.025 91.8636C143.383 92.6479 144.29 94.4431 144.051 95.8734C143.811 97.3037 142.516 97.8274 141.158 97.0431Z" fill="#3C2C0B"/>
<g opacity="0.5">
<path d="M123.272 84.1425C123.229 84.2003 123.175 84.242 123.111 84.2677C123.048 84.2934 122.976 84.3011 122.895 84.2907C122.815 84.2803 122.73 84.2494 122.642 84.1984C122.553 84.1472 122.474 84.0837 122.406 84.008C122.337 83.9323 122.28 83.8508 122.235 83.7638C122.19 83.6766 122.159 83.5867 122.142 83.494C122.124 83.4012 122.123 83.3116 122.137 83.2253L122.138 83.2218C122.152 83.1355 122.181 83.0634 122.224 83.0057C122.268 82.948 122.321 82.9062 122.385 82.8805C122.448 82.8548 122.521 82.8471 122.601 82.8575C122.681 82.8679 122.766 82.8988 122.854 82.9498C122.943 83.001 123.022 83.0644 123.091 83.1402C123.159 83.2159 123.216 83.2974 123.261 83.3844C123.306 83.4716 123.337 83.5615 123.354 83.6542C123.372 83.747 123.373 83.8366 123.359 83.9229L123.358 83.9264C123.344 84.0127 123.315 84.0848 123.272 84.1425ZM123.094 83.7739C123.103 83.722 123.103 83.6682 123.093 83.6124C123.084 83.5566 123.067 83.5024 123.041 83.4499C123.016 83.3973 122.984 83.3487 122.944 83.3039C122.905 83.2592 122.86 83.2222 122.81 83.1931C122.759 83.1635 122.71 83.1463 122.665 83.1415C122.62 83.1368 122.579 83.143 122.543 83.1602C122.507 83.1774 122.477 83.2038 122.452 83.2395C122.428 83.2752 122.411 83.319 122.403 83.3708L122.402 83.3742C122.393 83.4261 122.394 83.4799 122.403 83.5357C122.412 83.5915 122.429 83.6457 122.455 83.6982C122.48 83.7508 122.512 83.7992 122.551 83.8437C122.59 83.8882 122.635 83.9252 122.686 83.9549C122.736 83.9839 122.784 84.0011 122.83 84.006C122.876 84.0111 122.917 84.005 122.953 83.9878C122.989 83.9706 123.019 83.9442 123.044 83.9085C123.068 83.8728 123.085 83.829 123.094 83.7772L123.094 83.7739Z" fill="white"/>
<path d="M124.179 85.0637L123.997 84.5348L123.799 84.4202L123.734 84.8071L123.481 84.6613L123.684 83.4521L124.209 83.7552C124.346 83.8341 124.446 83.9307 124.51 84.0448C124.574 84.1589 124.596 84.2787 124.575 84.4042L124.575 84.4077C124.558 84.5055 124.522 84.5721 124.466 84.6076C124.411 84.643 124.344 84.6539 124.266 84.6405L124.474 85.2343L124.179 85.0637ZM124.317 84.2704C124.327 84.2128 124.316 84.1596 124.286 84.1105C124.256 84.0615 124.21 84.019 124.147 83.983L123.896 83.8381L123.838 84.1852L124.094 84.3329C124.157 84.3689 124.207 84.381 124.246 84.3692C124.284 84.3574 124.308 84.3256 124.316 84.2738L124.317 84.2704Z" fill="white"/>
<path d="M125.742 85.5633C125.7 85.6199 125.648 85.6598 125.584 85.6826C125.521 85.7055 125.45 85.7108 125.37 85.6986C125.289 85.6864 125.205 85.6545 125.115 85.6027L124.667 85.3442L124.869 84.1353L125.317 84.3938C125.407 84.4455 125.487 84.5083 125.557 84.5821C125.626 84.6558 125.684 84.7354 125.729 84.8208C125.774 84.9062 125.805 84.9939 125.822 85.084C125.84 85.1741 125.841 85.2618 125.827 85.3471L125.826 85.3505C125.812 85.4358 125.784 85.5067 125.742 85.5633ZM125.562 85.1982C125.571 85.1453 125.571 85.0913 125.561 85.0366C125.552 84.9819 125.535 84.9299 125.51 84.8802C125.485 84.8307 125.453 84.7846 125.414 84.7421C125.374 84.6996 125.328 84.6636 125.277 84.6339L125.082 84.5212L124.96 85.25L125.155 85.3627C125.206 85.3924 125.255 85.4109 125.3 85.4182C125.346 85.4256 125.386 85.4218 125.422 85.4069C125.457 85.3921 125.487 85.3676 125.511 85.3337C125.536 85.2997 125.552 85.2557 125.562 85.2016L125.562 85.1982Z" fill="white"/>
<path d="M125.949 86.0856L126.151 84.8765L127.016 85.3756L126.976 85.6122L126.361 85.257L126.32 85.5023L126.861 85.8149L126.822 86.0515L126.28 85.7389L126.238 85.9928L126.861 86.3527L126.822 86.5894L125.949 86.0856Z" fill="white"/>
<path d="M127.745 87.1227L127.564 86.5938L127.365 86.4792L127.301 86.8661L127.048 86.7202L127.25 85.5112L127.775 85.8143C127.912 85.8932 128.013 85.9897 128.077 86.1038C128.141 86.2179 128.163 86.3378 128.142 86.4633L128.141 86.4668C128.125 86.5646 128.089 86.6312 128.033 86.6667C127.977 86.7021 127.91 86.713 127.832 86.6995L128.04 87.2933L127.745 87.1227ZM127.883 86.3294C127.893 86.2718 127.883 86.2185 127.853 86.1695C127.822 86.1205 127.776 86.078 127.714 86.042L127.463 85.8971L127.405 86.2442L127.661 86.392C127.723 86.428 127.773 86.4401 127.812 86.4282C127.851 86.4164 127.874 86.3846 127.883 86.3327L127.883 86.3294Z" fill="white"/>
<path d="M129.531 88.1535L129.104 87.0639L128.975 87.8325L128.726 87.6885L128.928 86.4795L129.161 86.614L129.575 87.6692L129.699 86.9247L129.949 87.0686L129.746 88.2778L129.531 88.1535Z" fill="white"/>
<path d="M131.205 88.7226C131.162 88.7804 131.108 88.8221 131.045 88.8478C130.981 88.8735 130.909 88.8812 130.829 88.8707C130.748 88.8603 130.664 88.8295 130.575 88.7785C130.486 88.7273 130.408 88.6638 130.339 88.5881C130.27 88.5123 130.213 88.4309 130.169 88.3438C130.124 88.2567 130.093 88.1668 130.075 88.074C130.058 87.9813 130.056 87.8917 130.071 87.8053L130.071 87.8019C130.086 87.7155 130.114 87.6435 130.158 87.5858C130.201 87.5281 130.254 87.4863 130.318 87.4606C130.382 87.4348 130.454 87.4272 130.534 87.4376C130.615 87.448 130.699 87.4788 130.788 87.5299C130.876 87.581 130.955 87.6445 131.024 87.7203C131.093 87.796 131.15 87.8775 131.194 87.9645C131.239 88.0516 131.27 88.1415 131.288 88.2343C131.305 88.3271 131.307 88.4167 131.292 88.503L131.292 88.5065C131.277 88.5927 131.248 88.6648 131.205 88.7226ZM131.028 88.3539C131.036 88.3021 131.036 88.2483 131.027 88.1925C131.017 88.1367 131 88.0825 130.975 88.0299C130.949 87.9774 130.917 87.9287 130.878 87.8839C130.839 87.8391 130.794 87.8023 130.743 87.7732C130.692 87.7436 130.644 87.7263 130.598 87.7216C130.553 87.7169 130.512 87.7231 130.476 87.7403C130.441 87.7575 130.41 87.7839 130.386 87.8196C130.361 87.8553 130.345 87.899 130.336 87.9508L130.335 87.9543C130.327 88.0061 130.327 88.06 130.336 88.1158C130.345 88.1716 130.363 88.2258 130.388 88.2783C130.413 88.3309 130.446 88.3794 130.484 88.4237C130.523 88.4682 130.568 88.5053 130.619 88.5349C130.67 88.564 130.718 88.5811 130.764 88.5861C130.81 88.5911 130.851 88.5851 130.886 88.5679C130.922 88.5508 130.953 88.5243 130.977 88.4887C131.002 88.453 131.018 88.4092 131.027 88.3574L131.028 88.3539Z" fill="white"/>
<path d="M132.675 89.9777L132.455 89.8508L132.328 88.91L131.936 89.5514L131.717 89.4245L131.529 87.9805L131.799 88.1368L131.9 89.0928L132.295 88.4194L132.512 88.5444L132.632 89.5153L133.007 88.834L133.271 88.9865L132.675 89.9777Z" fill="white"/>
</g>
<path d="M92.5635 0.029012C92.8663 -0.084865 93.132 0.157013 93.132 0.398008C93.1232 9.70238 92.5538 14.9592 92.5538 24.4976C91.3347 27.182 89.879 29.1497 88.2264 30.6248C86.5253 32.1688 84.6168 33.2016 82.5423 34.0076C79.789 35.0696 76.7496 35.729 73.524 36.6436C68.5963 38.0401 65.0564 39.1021 61.8502 40.646C60.9754 41.0592 60.1191 41.5217 59.2637 42.0232C56.7831 43.5018 54.623 45.7776 51.6596 48.8143C51.5678 48.9087 51.1952 48.8355 51.0911 48.7463V24.268C54.1693 20.9771 56.6869 18.9511 59.2637 17.4275C60.1094 16.9164 60.9551 16.4635 61.8502 16.0503C64.9187 14.6044 68.3412 13.5821 73.0914 12.2642C76.4839 11.3205 79.6707 10.6902 82.5423 9.58939C86.6331 8.04366 90.0847 5.58515 92.5635 0.029012Z" fill="#FFBE2E"/>
<path d="M93.1314 0.396973C93.1216 10.1825 93.1216 15.08 93.1216 24.8655C91.9017 27.55 90.4469 29.5177 88.7943 30.9928C87.0932 32.5368 85.1847 33.5696 83.1102 34.3756C80.3559 35.4375 77.3175 36.097 74.0918 37.0115C69.1651 38.4081 65.6243 39.47 62.4181 41.014C61.5433 41.4271 60.687 41.8897 59.8316 42.3911C57.2742 43.9156 54.7469 45.9116 51.6589 48.8132V24.335C54.7371 21.345 57.2548 19.3191 59.8316 17.7945C60.6773 17.2834 61.523 16.8306 62.4181 16.4174C65.4866 14.9715 68.9091 13.9492 73.6593 12.6312C77.0526 11.6867 80.2385 11.0573 83.1102 9.95646C87.2009 8.4125 90.6534 5.95399 93.1314 0.396973Z" fill="#FFBE2E"/>
<path d="M93.132 0.396973C93.1223 10.1825 93.1223 15.08 93.1223 24.8655C91.4212 27.6974 90.0935 29.606 88.795 30.9928C87.0939 32.5368 85.1853 33.5696 83.1108 34.3756V9.95646C87.2016 8.4125 90.6541 5.95399 93.132 0.396973Z" fill="#D29B21" fill-opacity="0.933333"/>
<path d="M69.8211 34.8543C68.6983 34.6327 67.6637 34.148 66.788 33.4153C65.1584 32.0532 64.2615 29.9761 64.2615 27.3719C64.2615 22.0806 67.8508 16.6728 72.262 15.8933C74.4133 15.5137 76.4507 16.0593 77.9956 17.3516C79.6243 18.7137 80.5212 20.7909 80.5212 23.395C80.5212 28.6872 76.9336 34.0942 72.5233 34.8737C71.5911 35.0379 70.6801 35.0238 69.8211 34.8543ZM74.9597 16.6622C74.1908 16.5104 73.369 16.5006 72.5233 16.6498C68.4431 17.371 64.9942 22.4911 64.9942 27.4134C64.9942 29.7633 65.7789 31.6472 67.2028 32.8548C68.5455 33.9927 70.3429 34.457 72.262 34.1171C76.3404 33.395 79.7885 28.2759 79.7885 23.3536C79.7885 21.0036 79.0046 19.1198 77.5798 17.9113C76.8303 17.2748 75.937 16.8546 74.9597 16.6622Z" fill="black"/>
<path d="M57.1289 34.895C57.1289 35.2606 57.1289 35.4443 57.1289 35.81C56.0559 36.7929 55.299 37.5975 54.0193 39.3064C54.0193 38.909 54.0193 38.7103 54.0193 38.3129C55.1904 36.7735 55.9481 35.961 57.1289 34.895Z" fill="black"/>
<path d="M57.1289 37.5117C57.1289 37.8773 57.1289 38.0611 57.1289 38.4267C56.0559 39.3999 55.299 40.2045 54.0193 41.9134C54.0193 41.5195 54.0193 41.3234 54.0193 40.9296C55.1904 39.3796 55.9481 38.5671 57.1289 37.5117Z" fill="black"/>
<path d="M62.4181 16.4175V41.014C61.5432 41.4272 60.6869 41.8897 59.8315 42.3912V17.7946C60.6772 17.2826 61.5229 16.8306 62.4181 16.4175Z" fill="black"/>
<path d="M210.28 57.6084C208.258 58.7754 204.971 58.7692 202.937 57.5951C200.903 56.421 200.892 54.5222 202.914 53.3552C204.935 52.1882 208.223 52.1943 210.257 53.3684C212.292 54.5425 212.301 56.4413 210.28 57.6084Z" fill="#F2B42C"/>
<path d="M210.752 15.3099L210.747 15.3178C209.168 14.661 207.115 14.8914 204.864 16.1917C199.893 19.0616 195.865 26.0099 195.865 31.7134C195.865 39.4756 204.864 48.3051 204.864 48.3051L207.968 49.9143L213.906 16.9518L210.752 15.3099Z" fill="#212121"/>
<path d="M207.966 17.8011C212.937 14.9313 216.965 17.2282 216.965 22.9318C216.965 30.694 207.966 49.9145 207.966 49.9145C207.966 49.9145 198.967 41.085 198.967 33.3228C198.967 27.6193 202.995 20.671 207.966 17.8011Z" fill="#FFBE2E"/>
<path d="M202.754 31.1346C202.754 34.4388 205.088 35.7692 207.968 34.1069C210.846 32.4447 213.181 28.4184 213.181 25.1151C213.181 21.8109 210.846 20.4805 207.968 22.1428C205.088 23.805 202.754 27.8313 202.754 31.1346Z" fill="white"/>
<path d="M199.234 33.6067C199.234 27.9667 203.217 21.097 208.131 18.2598C212.416 15.7862 215.991 17.1969 216.837 21.3362C216.141 16.8305 212.44 15.2177 207.966 17.8016C202.995 20.6715 198.967 27.6197 198.967 33.3233C198.967 41.0855 207.966 49.9149 207.966 49.9149C207.966 49.9149 207.976 49.8946 207.988 49.8681C206.885 48.747 199.234 40.728 199.234 33.6067Z" fill="#212121"/>
<path d="M228.982 22.9322L228.963 22.9428C228.622 22.7504 228.199 22.7212 227.835 22.9313L224.4 24.914C224.105 22.3867 223.011 20.4649 221.231 19.4365C219.727 18.567 217.911 18.446 215.97 19.0277L216.398 14.2829L215.163 13.5096C215.074 13.4416 214.986 13.3745 214.88 13.333L214.865 13.3233L214.865 13.3295C214.728 13.2774 214.583 13.2412 214.428 13.2412C213.745 13.2412 213.193 13.7938 213.193 14.4762V20.3051C207.936 23.5493 203.865 30.6803 203.847 36.7793L199.876 39.0719C199.328 39.3888 199.14 40.0897 199.457 40.6379C199.543 40.7889 199.663 40.9045 199.797 40.9981L199.796 41.0051L201.247 41.9144L204.25 39.8284C204.754 41.5718 205.719 42.9163 207.103 43.7152C208 44.2334 209.006 44.4912 210.084 44.4912C211.07 44.4912 212.117 44.2572 213.192 43.83V49.5115C213.192 49.9317 213.415 50.2839 213.735 50.5072L213.733 50.5328L215.178 51.4403L215.269 50.4039C215.508 50.1788 215.661 49.8646 215.661 49.5106V45.9327L215.98 42.2904C220.395 39.1425 223.804 33.303 224.388 27.9234L227.382 25.8365L228.977 24.9149C229.181 24.7966 229.316 24.6174 229.413 24.4206L230.315 23.792L228.982 22.9322ZM218.737 28.1847C218.189 28.5016 218.001 29.2025 218.318 29.7498C218.407 29.9043 218.531 30.0217 218.669 30.1153L218.666 30.1241L219.986 30.9698L220.771 29.711L220.72 29.6854L221.687 29.1275C221.655 29.274 221.639 29.4197 221.603 29.5662C221.587 29.6315 221.567 29.696 221.55 29.7613C221.429 30.2327 221.286 30.705 221.122 31.1755C221.1 31.2382 221.08 31.3009 221.058 31.3626C220.874 31.8747 220.663 32.3831 220.432 32.8863C220.405 32.9455 220.377 33.0037 220.348 33.0629C219.857 34.1036 219.275 35.1135 218.616 36.0599C218.597 36.0881 218.577 36.1155 218.558 36.1437C217.872 37.1183 217.109 38.024 216.289 38.8203C216.085 39.0189 215.875 39.2096 215.664 39.3941V39.2308L216.452 37.5941L215.083 36.7043L215.072 36.7175C214.882 36.5983 214.671 36.5118 214.43 36.5118C213.748 36.5118 213.195 37.0644 213.195 37.7468V41.1199C212.054 41.7228 210.977 42.0327 210.031 42.0185C209.823 42.015 209.62 41.9973 209.425 41.9638C209.034 41.8967 208.671 41.7678 208.341 41.5781C208.116 41.4483 207.914 41.2805 207.725 41.096C207.684 41.0563 207.644 41.0166 207.605 40.9742C207.421 40.7765 207.252 40.5593 207.106 40.3104C207.104 40.3077 207.103 40.3051 207.102 40.3024C206.954 40.0464 206.83 39.7595 206.723 39.4532C206.71 39.4179 206.697 39.3826 206.685 39.3464C206.58 39.026 206.494 38.6834 206.434 38.3144C206.416 38.1997 206.403 38.0796 206.389 37.9605L210.122 35.8047C210.136 35.7968 210.143 35.7836 210.156 35.7747L210.453 35.931L211.535 34.7437L210.034 33.7576L210.011 33.7858C209.686 33.6402 209.308 33.6287 208.976 33.8194L206.424 35.2927C206.461 34.9926 206.507 34.6907 206.564 34.3879C206.567 34.3702 206.571 34.3526 206.574 34.3349V34.3358C206.905 32.6232 207.545 30.8727 208.419 29.2228C208.759 28.5819 209.131 27.9587 209.534 27.3584C210.583 25.7986 211.83 24.4029 213.195 23.3162V26.2426C213.195 26.7228 213.478 27.128 213.878 27.3328L213.869 27.3416L215.144 28.1547L215.979 27.0018L215.54 26.7643C215.615 26.6045 215.664 26.4315 215.664 26.2435V21.7696C215.678 21.7634 215.693 21.7537 215.707 21.7475C216.311 21.4765 216.892 21.2947 217.442 21.2029C217.717 21.1579 217.983 21.1349 218.241 21.1349C218.662 21.1349 219.048 21.2197 219.413 21.3433C219.613 21.4103 219.815 21.473 219.996 21.5781C221.293 22.3267 222.01 24.0013 222.018 26.292L218.737 28.1847Z" fill="#3C2C0B"/>
<path d="M211.316 45.2814C210.238 45.2814 209.231 45.0246 208.334 44.5064C206.233 43.2935 205.076 40.8456 205.076 37.6129C205.076 31.3664 209.338 24.0129 214.779 20.8711C217.616 19.2336 220.343 19.0032 222.46 20.2276C224.561 21.4406 225.719 23.8893 225.719 27.1212C225.719 33.3676 221.456 40.7211 216.014 43.8628C214.379 44.8056 212.782 45.2814 211.316 45.2814ZM219.469 21.9234C218.44 21.9234 217.262 22.2889 216.013 23.0101C211.344 25.7061 207.545 32.2571 207.545 37.6129C207.545 39.9257 208.264 41.6153 209.568 42.3683C210.888 43.1293 212.738 42.9015 214.778 41.7239C219.448 39.0279 223.249 32.4778 223.249 27.1212C223.249 24.8083 222.529 23.1196 221.224 22.3666C220.712 22.0699 220.121 21.9234 219.469 21.9234Z" fill="#978050"/>
<path d="M215.658 28.2673C214.976 28.2673 214.423 27.7147 214.423 27.0323V15.2677C214.423 14.5862 214.976 14.0327 215.658 14.0327C216.341 14.0327 216.893 14.5853 216.893 15.2677V27.0323C216.892 27.7147 216.34 28.2673 215.658 28.2673Z" fill="#978050"/>
<path d="M215.658 51.5364C214.976 51.5364 214.423 50.9838 214.423 50.3014V38.5368C214.423 37.8553 214.976 37.3018 215.658 37.3018C216.341 37.3018 216.893 37.8544 216.893 38.5368V50.3014C216.892 50.9838 216.34 51.5364 215.658 51.5364Z" fill="#978050"/>
<path d="M219.547 30.5404C219.23 29.9922 219.418 29.2913 219.966 28.9744L229.064 23.7219C229.612 23.4059 230.313 23.5931 230.629 24.1413C230.946 24.6895 230.758 25.3904 230.209 25.7073L221.112 30.9607C220.564 31.2758 219.863 31.0886 219.547 30.5404Z" fill="#978050"/>
<path d="M200.688 41.4291C200.371 40.8809 200.559 40.18 201.107 39.8631L210.205 34.6106C210.753 34.2946 211.454 34.4817 211.77 35.0299C212.087 35.5781 211.899 36.279 211.351 36.596L202.253 41.8484C201.705 42.1653 201.004 41.9773 200.688 41.4291Z" fill="#978050"/>
<path d="M83.3546 45.5386C81.3331 46.7056 78.0457 46.6994 76.0118 45.5253C73.9779 44.3512 73.9673 42.4524 75.9888 41.2854C78.0104 40.1183 81.2978 40.1245 83.3317 41.2986C85.3656 42.4736 85.3753 44.3715 83.3546 45.5386Z" fill="#F2B42C"/>
<path d="M85.3485 120.07C85.3815 113.954 76.8205 108.95 66.227 108.893C55.6334 108.835 47.0189 113.747 46.9858 119.863C46.9528 125.979 55.5138 130.983 66.1074 131.041C76.7009 131.098 85.3155 126.186 85.3485 120.07Z" fill="#FEE5AC"/>
<path d="M68.0666 128.507C79.6635 128.507 89.0646 119.106 89.0646 107.509C89.0646 95.9119 79.6635 86.5107 68.0666 86.5107C56.4697 86.5107 47.0686 95.9119 47.0686 107.509C47.0686 119.106 56.4697 128.507 68.0666 128.507Z" fill="#FFBE2E"/>
<path d="M68.0665 126.714C78.6732 126.714 87.2716 118.116 87.2716 107.509C87.2716 96.9022 78.6732 88.3037 68.0665 88.3037C57.4598 88.3037 48.8613 96.9022 48.8613 107.509C48.8613 118.116 57.4598 126.714 68.0665 126.714Z" fill="#978050"/>
<path d="M50.3096 111.909C50.3056 111.908 50.3076 111.909 50.3076 111.909H50.3096Z" fill="#869741"/>
<path d="M62.6452 89.0815C64.2079 88.6221 65.8523 88.3557 67.553 88.311L67.6205 88.4071L67.0707 88.837V89.2831L66.9395 89.6759L66.3888 90.0107L65.898 90.4473L65.5632 91.2167L65.0724 91.9434L64.7614 92.9107L64.6539 93.1066L64.3306 93.1218L64.2231 93.0163L64.1261 92.8194L63.8873 92.7889L63.7199 92.8945L63.4089 92.9697L63.2653 92.6225L63.1578 92.3505L63.194 92.1089V91.8216L63.0266 91.4745L62.9191 91.1273V90.7041L62.7279 90.3721C62.7279 90.3721 62.6918 90.7041 62.6918 89.8585C62.6908 89.0368 62.142 89.8471 62.6452 89.0815ZM86.8446 108.45L86.3662 108.754L85.6805 108.499L85.786 108.099L85.8393 107.51L85.6729 107.406L85.5359 107.618C85.5359 107.618 85.281 108.132 85.281 107.733C85.281 107.335 85.281 107.335 85.281 107.335L85.3989 107.085L85.1821 106.68L84.9129 106.138L84.9034 105.582L85.0404 105.53L85.105 105.277L85.2962 105.532L85.4693 105.323L85.8231 106.468L86.1418 106.824L86.3843 107.137L86.6012 107.387L86.8922 107.653L87.0919 107.382L87.2698 107.604C87.2698 107.572 87.2707 107.541 87.2707 107.51C87.2707 100.62 83.6422 94.579 78.1923 91.1901L77.9088 91.3784L77.73 91.7693L77.5084 91.8778L77.2582 92.0851L76.9872 91.8302C76.9872 91.8302 77.2668 91.6571 76.9235 91.7047C76.5801 91.7513 76.5801 91.7513 76.5801 91.7513L75.823 92.0062L75.7431 91.9586L75.7317 91.5354L75.4407 91.4964L75.1097 91.7142L74.9299 91.7836L74.9974 91.6276L75.0868 91.5639L75.0897 91.4326H74.9537L74.85 91.4602L74.7986 91.3984L74.85 91.3128L74.7673 91.1692L74.752 91.0208L74.8348 90.9057L74.9927 90.7241L75.0402 90.5871C75.0402 90.5871 74.987 90.5985 75.0069 90.4673C75.0269 90.336 75.0269 90.336 75.0269 90.336L75.123 90.277L75.1876 90.1382L75.1915 90.0031L75.1315 89.9517L75.0269 89.9689L74.9527 90.1001L74.8329 90.1448L74.7425 90.1172L74.7045 90.0678L74.597 90.1077L74.5732 90.1686L74.4676 90.219L74.382 90.2637C74.382 90.2637 74.4039 90.2998 74.382 90.4273C74.3602 90.5547 74.3602 90.5547 74.3602 90.5547L74.2784 90.7307L74.2936 90.9105L74.3383 91.0664L74.2746 91.1302L74.2308 91.2776C74.2308 91.2776 74.2907 91.3775 74.3421 91.3176C74.3935 91.2576 74.3935 91.2576 74.3935 91.2576L74.4695 91.2938L74.402 91.3975L74.3459 91.4013L74.3221 91.5049L74.4372 91.5249L74.3897 91.621C74.3897 91.621 74.3611 91.5258 74.2898 91.6371C74.2184 91.7484 74.2185 91.7484 74.2185 91.7484L74.1386 91.717L74.1186 91.6571L74.0862 91.5715C74.0862 91.5715 74.0663 91.5316 74.0025 91.5801C73.9388 91.6286 73.9388 91.6286 73.9388 91.6286L73.8665 91.621L73.8028 91.6409L73.7724 91.7104L73.663 91.7361L73.5432 91.7085C73.5432 91.7085 73.5955 91.7218 73.546 91.6638C73.4956 91.6058 73.4956 91.6058 73.4956 91.6058L73.3482 91.6371L73.2778 91.7208L73.2521 91.7579L73.1171 91.8169L73.1047 91.854L73.1009 91.9329L73.0571 92.0528L72.9287 92.1688L72.8422 92.2801L72.7822 92.34L72.6748 92.3724L72.5911 92.361L72.3989 92.4722L72.2915 92.5635L72.1878 92.5474L72.0756 92.5217L71.9795 92.6358L72.047 92.6995L71.9995 92.8156L71.9396 92.8793L71.7722 92.9953L71.697 92.9716L71.5705 92.9744L71.5163 92.9906L71.4317 93.0667L71.4374 93.1456L71.4364 93.2103L71.3327 93.2141L71.2728 93.1703L71.1929 93.1304L71.0892 93.1342L71.0693 93.0847L71.0835 93.061L71.1216 93.0191L71.1102 92.9611L71.056 92.9345L70.9827 92.9126L70.9323 92.8679L70.9199 92.8146L70.8771 92.7718V92.8146L70.8543 92.8783L70.8296 92.9402L70.8581 93.0372L70.8638 93.1019L70.9085 93.1304L70.8943 93.1827L70.88 93.2521L70.8838 93.2959L70.8562 93.3301L70.8515 93.372L70.8134 93.4091L70.7516 93.3844L70.6241 93.3349L70.5395 93.3644L70.51 93.371L70.4976 93.3159L70.51 93.2788L70.4292 93.2293L70.3445 93.2208L70.2855 93.2274L70.2313 93.2569H70.1229L70.0287 93.2331L69.9755 93.236L69.8937 93.2635L69.8642 93.3016L69.8937 93.3739C69.8937 93.3739 69.8804 93.3824 69.9251 93.4072C69.9698 93.4319 69.9698 93.4319 69.9698 93.4319L69.9165 93.469L69.9041 93.528L69.9336 93.5489L69.8908 93.6411L69.9469 93.6688L70.0192 93.6697L70.0734 93.6526L70.1048 93.6735L70.161 93.6802L70.2504 93.7496L70.276 93.7971L70.3207 93.8085C70.3207 93.8085 70.316 93.8038 70.3341 93.8599C70.3521 93.916 70.3521 93.916 70.3521 93.916L70.4082 93.9236L70.4843 93.8951L70.4729 93.9398L70.4387 93.9731L70.4415 94.0302L70.4796 94.0711L70.5547 94.0996L70.5709 94.1443L70.5281 94.1852L70.4938 94.2537L70.5024 94.3269L70.5405 94.3754L70.5823 94.4173L70.5871 94.4781L70.6422 94.4915L70.7069 94.5409L70.7316 94.6104L70.6898 94.657L70.6346 94.7568L70.6727 94.8339L70.6546 94.8928L70.6061 94.9956L70.5909 95.1183L70.5214 95.1791L70.4777 95.3408L70.4634 95.4692L70.3626 95.6185L70.3169 95.7412L70.276 95.8002L70.1923 95.8116L70.1581 95.7888C70.1581 95.7888 70.1429 95.7802 70.0934 95.7935C70.044 95.8069 70.044 95.8069 70.044 95.8069L69.9812 95.7707L69.9412 95.6927L69.9003 95.6794L69.8642 95.7203L69.8128 95.7336L69.712 95.6433H69.6036L69.5247 95.6271L69.3896 95.6281L69.2973 95.5986L69.2498 95.5577L69.2051 95.5196L69.1062 95.5063L69.0244 95.5082L68.9169 95.493L68.8532 95.4388L68.7704 95.3941L68.6943 95.4074L68.6002 95.4103L68.5887 95.3608C68.5887 95.3608 68.6715 95.337 68.5612 95.2942C68.4508 95.2524 68.4508 95.2524 68.4508 95.2524L68.3662 95.2562L68.311 95.2942L68.2616 95.3446L68.2663 95.395C68.2663 95.395 68.2663 95.4083 68.2349 95.4131C68.2035 95.4179 68.2035 95.4179 68.2035 95.4179L68.1189 95.395L67.9876 95.4492L67.9325 95.5225L67.9505 95.63L68.0067 95.668L68.0143 95.7384L68.0466 95.7603L67.9952 95.7964L67.9229 95.9629L67.8868 96.1112V96.2082V96.3414L67.8687 96.4384L67.8259 96.6477L67.7537 96.8617L67.6719 96.9301L67.5406 97.1213L67.4179 97.2745L67.3228 97.4865L67.377 97.6958L67.4854 97.7148L67.5511 97.7538L67.5492 97.808L67.4864 97.8841L67.4008 98.0011L67.4027 98.1343L67.3466 98.2199L67.3494 98.3064L67.261 98.4272L67.2952 98.47L67.3656 98.4244L67.4987 98.3768L67.5435 98.4035L67.5863 98.4434L67.7413 98.4681L67.7888 98.3939L67.8687 98.3654L67.8878 98.3939L67.8963 98.452L68.0666 98.5328L68.0789 98.5965L68.0666 98.6859L68.0903 98.7801L68.0932 98.8524L68.1351 98.9142L68.1598 98.9465L68.1674 99.0369L68.2273 99.0816L68.3091 99.094L68.3833 99.0512L68.467 99.0302L68.5317 98.9522L68.6135 98.8733L68.6943 98.8952L68.7894 98.9132L68.9397 98.8961L69.149 98.9028L69.2659 98.9789L69.3715 98.9608L69.4514 98.9637L69.498 98.9665L69.5389 98.9047L69.5703 98.8676L69.6102 98.7392L69.8081 98.6517L69.8737 98.685L69.9165 98.7173L69.9812 98.724L69.9926 98.6812C69.9926 98.6812 69.9897 98.6869 69.9897 98.6279C69.9897 98.5699 69.9897 98.5699 69.9897 98.5699L70.0021 98.5138L70.0677 98.4111L70.1191 98.3445L70.179 98.3159L70.2275 98.3017L70.3217 98.2931L70.3284 98.2189L70.4273 98.1856L70.4292 98.1267L70.355 98.0525L70.2855 98.0059V97.79L70.3512 97.7044L70.4691 97.6026L70.7611 97.3268L70.7801 97.2107L70.8087 97.1442L70.8829 97.1261L71.035 97.1242C71.035 97.1242 71.0598 97.1603 71.1254 97.0985C71.191 97.0367 71.191 97.0367 71.191 97.0367L71.3223 97.0224L71.405 96.9863L71.4526 96.9197L71.6076 96.8702L71.6571 96.8141L71.6542 96.6866L71.6789 96.5735L71.6561 96.486L71.7122 96.3566L71.7712 96.292L71.834 96.2196L71.9072 96.2149L71.9377 96.1787C71.9377 96.1787 71.9243 96.1607 71.9757 96.1787C72.0271 96.1968 72.0271 96.1968 72.0271 96.1968L72.1012 96.2415L72.2297 96.2986L72.3305 96.311L72.418 96.3785L72.5397 96.446L72.6386 96.4888L72.8013 96.4441L72.8441 96.3785L72.9116 96.3918L72.9487 96.4318C72.9487 96.4318 72.9554 96.4765 72.9886 96.4679C73.0219 96.4593 73.0219 96.4593 73.0219 96.4593L73.0762 96.4432L73.1323 96.3405L73.177 96.2777L73.2521 96.1892L73.2873 96.1302L73.3824 96.1084L73.4043 96.0989L73.449 96.0532L73.5936 96.0304L73.6288 96.0475L73.663 96.1131L73.7058 96.1635C73.7058 96.1635 73.6183 96.1997 73.6991 96.2577C73.78 96.3167 73.78 96.3167 73.78 96.3167L73.8361 96.3119L73.8837 96.3756L73.8428 96.5088L73.8779 96.6229L73.9388 96.6724L73.9074 96.7561L73.8722 96.8008L73.8237 96.8141L73.7705 96.8113L73.7286 96.8769L73.7515 96.9197L73.8104 96.9539L73.8865 96.9786L73.9464 96.8607L73.9759 96.8883L74.0073 96.953L74.0682 97.0186L74.052 97.1289L74.0682 97.1984C74.0682 97.1984 74.1271 97.1755 74.1804 97.1965C74.2346 97.2164 74.2346 97.2164 74.2346 97.2164L74.1985 97.2821L74.2394 97.3429L74.2841 97.4048L74.3202 97.3991L74.3221 97.5465L74.4077 97.6292L74.5342 97.6625L74.5361 97.73L74.6312 97.7576L74.695 97.8318L74.7692 97.985L74.8395 98.0411L74.9251 98.082L74.8576 98.1799L74.9147 98.1904L74.9965 98.2008L75.0526 98.2503L75.0393 98.3673L75.1201 98.4301L75.1059 98.5043L75.2114 98.5395L75.2666 98.5566L75.2913 98.6869L75.3113 98.86L75.2618 98.9456L75.3046 99.054L75.2704 99.1234L75.2228 99.1396L75.1896 99.2775L75.1334 99.2975L75.0336 99.2994L74.9736 99.3489L74.8795 99.3375L74.8072 99.3042L74.695 99.3669C74.695 99.3669 74.7149 99.3917 74.5751 99.3489C74.4353 99.3061 74.4353 99.3061 74.4353 99.3061C74.4353 99.3061 74.5143 99.2452 74.3878 99.2043C74.2613 99.1634 74.2613 99.1634 74.2613 99.1634L74.2185 99.1976C74.2185 99.1976 74.2517 99.0939 74.1528 99.171C74.0539 99.2471 74.0539 99.2471 74.0539 99.2471L74.0663 99.3907L74.0748 99.5106L74.2299 99.5581L74.325 99.6684L74.4277 99.7559L74.5209 99.853L74.5789 99.8977L74.6398 100.034L74.734 100.085L74.8405 100.097L74.8776 99.9861L74.9641 99.8615L74.9118 99.755L74.9261 99.6295L74.9955 99.521L75.0554 99.4554L75.102 99.5086V99.561L75.1648 99.5942L75.2343 99.6304L75.2504 99.5515L75.2609 99.4716L75.3379 99.425L75.3788 99.4592L75.4264 99.4392L75.4397 99.3831C75.4397 99.3831 75.3493 99.3803 75.4311 99.2718C75.512 99.1634 75.512 99.1634 75.512 99.1634L75.5719 99.1491L75.5928 99.1872L75.6176 99.2034L75.6737 99.1491L75.6623 99.0588L75.7374 98.9304L75.7241 98.8562L75.6366 98.8334L75.5396 98.7677L75.5262 98.6783L75.5129 98.6165L75.6613 98.4187L75.6927 98.3787L75.7612 98.3816L75.7393 98.4367L75.7621 98.4871L75.8677 98.5147L75.8658 98.5452L75.9124 98.5642L75.9457 98.5328L75.9619 98.6545L75.9847 98.7782L76.0655 98.8229L76.1283 98.7373L76.1407 98.5994L76.1093 98.4586L75.9913 98.2417L75.8268 98.1362L75.7888 98.0306L75.6604 97.9878L75.532 97.9355L75.4625 97.8252L75.4578 97.769L75.5586 97.7852L75.5709 97.7291L75.5881 97.6216L75.512 97.5655L75.3636 97.5589L75.3075 97.5417L75.2305 97.5484L75.1857 97.4989L74.9698 97.1166L74.9565 96.9454L74.9118 96.8217L74.9327 96.7199L74.8262 96.5383L74.6893 96.4841L74.6217 96.3623L74.5723 96.2967L74.5932 96.1673L74.5837 96.0599L74.6874 96.0551L74.7121 96.0275L74.6997 95.9039L74.6493 95.8906V95.8211L74.6759 95.7717L74.753 95.7736L74.8005 95.7803L74.8681 95.6813L74.9128 95.6889L74.967 95.6728L74.9965 95.7041L74.9879 95.7764C74.9879 95.7764 74.8681 95.8126 74.9584 95.8554C75.0488 95.8982 75.0488 95.8982 75.0488 95.8982L75.0802 95.9324L75.0697 96.038L75.0174 96.0941L75.0887 96.1892L75.1391 96.1997L75.1772 96.1246L75.2038 96.1883L75.1981 96.2425L75.2171 96.2938L75.2809 96.3062L75.3189 96.3014L75.3389 96.1607L75.4226 96.3005L75.4739 96.3928L75.4197 96.4536L75.3769 96.5116L75.3712 96.5754L75.3978 96.6229L75.55 96.6914L75.628 96.797L75.6052 96.8636L75.6347 96.9378L75.6661 96.9806L75.6765 97.0424L75.7583 97.0481C75.7583 97.0481 75.8297 96.9796 75.8068 97.0719C75.784 97.1641 75.8059 97.1308 75.784 97.1641C75.7631 97.1974 75.7631 97.1974 75.7631 97.1974L75.8002 97.2317L75.9352 97.2697L75.9913 97.2336L76.1293 97.2716C76.1293 97.2716 76.1863 97.2687 76.2168 97.3553C76.2472 97.4418 76.2482 97.4418 76.2482 97.4418L76.388 97.594C76.388 97.594 76.4707 97.536 76.4802 97.673C76.4897 97.809 76.4897 97.809 76.4897 97.809L76.5002 97.8889L76.5887 97.925L76.6257 97.9288C76.6257 97.9288 76.5687 98.0477 76.5287 98.0706C76.4888 98.0934 76.4888 98.0934 76.4888 98.0934L76.5069 98.1685L76.485 98.3692L76.4422 98.4653L76.407 98.6127L76.4698 98.6488L76.4878 98.7183H76.5753L76.5915 98.7991L76.5868 98.8352L76.5126 98.8438L76.504 98.801L76.4545 98.8666C76.4545 98.8666 76.4213 98.8581 76.446 98.9323C76.4707 99.0065 76.4688 98.9931 76.4688 98.9931L76.543 99.0721L76.6695 99.1016L76.699 99.1805L76.7998 99.2889L76.8017 99.3365C76.8017 99.3365 76.698 99.2528 76.7542 99.4288C76.8103 99.6047 76.8084 99.5942 76.8084 99.5942L76.8236 99.6694L76.9472 99.7074L76.9625 99.6513L77.1089 99.7074L77.2402 99.7712L77.3239 99.7645L77.36 99.8178L77.4523 99.8273L77.5036 99.7978L77.5017 99.9347L77.4951 100.01L77.5902 100.067L77.653 100.072L77.7262 100.209L77.8242 100.182L77.7728 100.067L77.7186 99.9975L77.7167 99.911L77.7433 99.8891L77.7975 100.006L77.9193 100.065L77.9735 99.9909L78.0049 99.9642L77.9935 99.8558L77.8479 99.8377L77.8261 99.8063L77.8042 99.6818L77.7452 99.6114L77.6891 99.5372L77.6939 99.4744L77.613 99.4154L77.5369 99.1158L77.4618 99.0454L77.4218 98.9247L77.3886 98.7963L77.418 98.6973H77.4542C77.4542 98.6973 77.4742 98.6897 77.4856 98.7268C77.497 98.7639 77.497 98.7639 77.497 98.7639L77.5864 98.8628L77.6197 98.9066L77.73 98.9047L77.788 98.8562L77.8299 98.8153L77.8822 98.7354L77.9678 98.6973L77.9878 98.6165L78.0734 98.5784H78.1885L78.2417 98.6488L78.3111 98.6888L78.3758 98.7478L78.5128 98.7135L78.5242 98.7905C78.5242 98.7905 78.3787 98.763 78.5004 98.8514C78.6222 98.9389 78.6222 98.9389 78.6222 98.9389L78.7021 98.937L78.704 98.9637L78.6773 99.0512L78.6478 99.0845L78.5936 99.1254L78.5556 99.0749L78.4757 99.094L78.4614 99.1482L78.4576 99.2642L78.4681 99.3527L78.4529 99.424L78.4072 99.443L78.3663 99.4516L78.2921 99.5134L78.3302 99.5581L78.3597 99.6009L78.4481 99.6399L78.508 99.6323L78.5375 99.6551L78.5936 99.6057L78.5556 99.5124L78.6231 99.4211L78.6754 99.4164L78.7268 99.4468L78.684 99.5553L78.6345 99.6542L78.6887 99.7236L78.6231 99.7778L78.5537 99.8073L78.4843 99.7693L78.431 99.794L78.3758 99.7864L78.333 99.7455L78.2883 99.8063L78.2769 99.8853C78.2769 99.8853 78.236 99.9833 78.2836 99.9975C78.3311 100.012 78.3311 100.012 78.3311 100.012L78.3777 100.021L78.4072 99.9462L78.4529 99.9129L78.4843 99.9823L78.4957 100.095C78.4957 100.095 78.5023 100.155 78.5432 100.139C78.5832 100.123 78.5832 100.123 78.5832 100.123L78.665 100.12L78.7591 100.199L78.7182 100.269L78.6754 100.293L78.5718 100.246L78.5118 100.27L78.4947 100.356L78.4995 100.426L78.5442 100.464L78.6184 100.429L78.6364 100.454L78.6279 100.548L78.704 100.58L78.6431 100.621C78.6431 100.621 78.6735 100.647 78.6317 100.685C78.5889 100.723 78.5889 100.723 78.5889 100.723L78.5242 100.745L78.5052 100.832L78.4481 100.916L78.5651 100.91L78.6098 100.832L78.6497 100.799L78.6973 100.7L78.8209 100.682C78.8209 100.682 78.9731 100.662 78.918 100.707C78.8628 100.752 78.8628 100.752 78.8628 100.752L78.7962 100.758L78.7468 100.831L78.7829 100.882L78.8866 100.866L78.8657 100.958C78.8657 100.958 78.879 100.896 78.8057 100.985C78.7334 101.073 78.7334 101.06 78.7334 101.06L78.7268 101.126L78.7315 101.182L78.7924 101.224L78.9227 101.159L78.9065 101.107L78.956 101.022L78.9655 100.895L79.0597 100.857L79.0616 100.952L79.1358 101.013L79.17 100.993L79.2375 100.944V101.041L79.1881 101.118L79.2214 101.224L79.3269 101.29L79.4211 101.325L79.4801 101.363L79.5676 101.352L79.6246 101.26L79.6827 101.174L79.6665 101.034L79.7531 100.959L79.8491 100.98L79.9033 101.052L80.1364 101.168L80.1402 101.269L80.2286 101.411L80.4673 101.522L80.5606 101.477L80.6338 101.519L80.7555 101.569L80.8088 101.416L80.8611 101.356L80.9733 101.264L81.0304 101.389L81.1322 101.428L81.2368 101.458L81.2758 101.385L81.35 101.301L81.4004 101.321L81.4755 101.355L81.4546 101.436L81.35 101.466L81.3234 101.57L81.3262 101.648L81.2368 101.8L81.2092 101.923L81.3167 102.132L81.2159 102.215L81.2235 102.289L81.2663 102.373L81.1702 102.454L81.0238 102.765L80.9848 102.945L80.8849 103.082L80.6471 103.753L80.4978 103.872L80.3694 103.875C80.3694 103.875 80.3903 103.8 80.1506 103.851C79.9109 103.902 79.9109 103.902 79.9109 103.902L79.7673 103.603L79.6208 103.556L79.5077 103.472L79.2889 103.495L79.1672 103.586L78.9883 103.656L78.8828 103.758L78.7449 103.746L78.664 103.599L78.4881 103.566L78.0933 103.278L77.5636 103.169L77.3391 102.802L76.9035 102.642L76.6647 102.241L76.2596 102.34L75.8867 102.402L75.8991 102.833L75.8496 103.235L75.5624 103.296L75.3408 103.033L75.1458 102.713L74.7425 102.688L74.4876 102.306L74.5352 101.983L74.2042 101.838L73.8751 101.792L73.3035 101.516L73.0495 101.025L73.2787 100.62L73.4404 100.445L73.37 100.063L73.6345 99.5914L73.4109 99.4716L73.255 99.5676L73.196 99.3707C73.196 99.3707 73.3272 99.1967 72.885 99.3403C72.4427 99.4839 72.4427 99.4839 72.4427 99.4839L72.0794 99.3375L71.5572 99.1843L70.5005 99.2433L69.751 99.4506L69.3601 99.6532L68.9121 99.5305L68.6268 99.2794L68.4318 99.4126L68.2806 99.2195H68.0694L67.9077 99.541L67.668 99.8511L67.1611 100.115L66.6171 100.464L66.3812 101.114L66.4497 101.516L66.0787 102.019L65.5651 102.274L64.9621 102.486L64.7043 102.893L64.2364 103.108L64.0376 103.782L63.5307 104.197L63.2206 104.857L62.8725 105.273L62.921 105.603L63.2196 105.704L63.0437 106.045L62.9733 106.3L63.0113 106.776L62.8087 107.342L62.648 107.672L62.5871 107.899L62.2476 108.351L62.4188 108.887L62.2476 109.28L62.1724 109.662L62.3475 109.988L62.5405 109.931L62.6395 110.309L62.8516 110.832L62.9742 110.889L62.9105 111.7L63.3414 112.43L63.7523 112.991L64.1308 113.698L64.5379 114.092L64.9688 113.985L65.1552 113.776L65.879 113.826L66.1767 114.177L66.5353 114.284L66.6951 114.038L66.8586 114.141L67.279 113.85L67.6367 113.878L68.4765 113.775L68.8807 113.902L68.954 114.443L68.9283 114.859L69.2212 114.986L69.363 114.911L69.8861 114.949L70.1971 115.231L70.2637 115.722L70.1495 116.439L69.9669 116.651L69.9384 116.995L69.6825 117.312L69.5513 117.946L70.1372 119.621L70.3883 120.112L70.0849 120.399L70.4273 121.294L70.2389 121.766L70.451 122.696L70.2275 123.382L69.8899 123.52L69.478 123.893L69.3715 124.66L69.1594 125.342L69.0653 125.905L69.207 126.424L69.2441 126.679C72.8916 126.46 76.2643 125.222 79.0825 123.247L79.073 122.65L79.3089 122.498L79.1301 122.088L79.5971 121.249L79.9366 120.566L80.2667 120.344L80.5311 120.118L80.7489 119.587L81.4033 119.155L82.0871 118.632L82.7615 118.104L83.3084 117.388L83.6432 116.935L84.0483 116.129L84.3926 115.586L84.5344 115.2L84.775 115.059L84.8901 114.825L84.7141 114.733L84.8273 114.338L84.9262 114.275L84.6723 114.205L84.6038 114.107L84.5267 114.309L84.3774 114.379L84.1539 114.428L83.9932 114.433L83.6821 114.336L83.3112 114.36L83.0963 114.634L82.7852 114.383L82.5703 114.551L82.2231 114.455L82.2307 114.173L82.1271 114.024H81.9121L81.9739 113.852L82.1175 113.805L82.2317 113.699L82.187 113.569L82.2441 113.265L82.0605 113.182L81.8874 113.03L81.8997 112.814L81.758 112.569L81.719 112.382L81.5317 112.21L81.3005 112.096L81.1208 111.785L81.1436 111.266L81.0371 111.091L81.1198 110.666L80.9049 110.505L80.7251 110.541L80.3903 108.818L80.4084 107.067L79.8634 105.899L79.6237 104.608L79.8938 104.47L80.4883 105.318L80.6813 105.761C80.6813 105.761 80.942 106.334 81.0723 107.289C81.2026 108.244 81.2026 108.244 81.2026 108.244L81.6705 109.636L82.4942 111.068L82.2222 112.192L82.4942 113.365L83.5842 113.233L84.8378 112.828L85.418 112.536V112.089L86.2854 112.136L86.6734 111.882L86.8123 111.718C87.091 110.473 87.2479 109.183 87.2717 107.859L86.8446 108.45ZM58.835 90.6651V90.7288L59.1697 90.9038L59.4732 90.9675C59.4732 90.9675 59.6025 91.1872 59.7918 90.7916C59.982 90.3959 59.982 90.3959 59.982 90.3959L60.2131 90.1743L60.5584 90.0573L60.351 90.7117L60.5432 91.0046L60.7334 91.2548L60.3349 91.6533L60.4947 91.9719L60.7819 92.0357L60.8266 92.2249L61.2318 92.3619L61.2974 92.536L61.1966 92.7528L61.2289 92.9288L61.5438 93.041L61.2984 93.4557L61.3726 93.7106C61.3726 93.7106 61.0444 93.5879 60.818 93.8323C60.5917 94.0768 60.5917 94.0768 60.5917 94.0768L60.3938 94.0587L59.8755 94.3507L59.7461 94.5238L59.1564 94.4915L59.0937 94.2984L58.4231 94.2356L58.0855 94.4354L57.8496 94.6351L57.1638 94.7464L57.004 95.0498L56.8129 95.2894L56.3506 95.6404H56.8129L57.2275 95.2894L57.5148 95.0184L57.7859 94.8748L58.0408 94.811L58.2481 94.7787L58.6419 94.7892L58.8388 94.8424L58.5839 95.2096L58.1806 95.4664L58.1482 95.7536L58.4022 96.0684L58.7608 96.2482L58.8597 96.1778L59.1659 95.9752L59.281 95.5948H59.632C59.632 95.5948 59.2791 95.843 59.3971 95.98C59.515 96.1169 59.515 96.1169 59.515 96.1169L59.4085 96.4089L59.048 96.4945L58.9443 96.6962L58.4516 96.7761L58.133 96.7304L58.0008 96.9568L57.6422 97.2069H57.3341L57.3502 96.9682L57.7649 96.777L57.8543 96.5469C57.8543 96.5469 57.8353 96.2691 57.6327 96.4812C57.4301 96.6933 57.4539 96.6372 57.4539 96.6372L57.1809 96.7646L56.7567 96.8969L56.5056 96.8579C56.5056 96.8579 56.4257 96.7466 56.187 97.1128C55.9473 97.4799 55.9473 97.4799 55.9473 97.4799L55.9882 97.6559L55.7799 97.7025L55.9473 97.9174L56.1918 97.8337L56.227 98.0449L56.1071 98.1485L55.8998 98.2047L55.7647 98.2123L55.6135 98.1248L55.5498 98.0924L55.1427 98.1324L55.0466 98.3235L55.2777 98.4586L55.078 98.5699L54.7908 98.5861L54.767 98.9694L54.4322 99.1292L54.3761 99.3203L54.2401 99.0968L54.1202 99.0007L54.1763 99.2242L54.3095 99.4031L54.1916 99.5962L54.0318 99.7892L53.8663 99.9966C53.8663 99.9966 53.7483 100.053 53.8425 99.832C53.9367 99.6104 54.008 99.7521 53.9367 99.6104C53.8663 99.4687 53.8663 99.4687 53.8663 99.4687C53.8663 99.4687 53.9309 98.8257 53.8063 99.4478C53.7407 99.7769 53.6599 99.7731 53.6237 99.7474C53.6361 99.7655 53.6542 99.794 53.6818 99.8463C53.7131 99.9062 53.7331 99.9481 53.7464 99.9785C53.7892 99.9776 53.8501 100.01 53.8615 100.19C53.8805 100.476 53.8805 100.476 53.8805 100.476L53.6494 100.587L53.6589 100.793L53.5381 100.938L53.4107 100.882L53.3783 101.042L53.2423 101.185L53.0987 101.193L52.9637 101.313L52.8838 101.488L52.684 101.52L52.5794 101.613L52.4215 101.879L51.983 102.142C51.983 102.142 51.8318 101.975 51.7434 102.373C51.6559 102.772 51.6559 102.741 51.6559 102.741L51.5446 102.948L51.6083 103.259L51.6559 103.586L51.5845 103.754L51.7044 103.889L51.6568 104.112L51.6806 104.439L51.8004 104.591L51.6806 104.845L51.5056 105.037L51.4923 105.246L51.3382 105.308L51.2022 105.196L51.1147 104.926L50.9948 104.782V104.598L50.9825 104.435C50.9825 104.435 50.8512 104.318 50.8835 104.167C50.9149 104.016 50.9149 104.016 50.9149 104.016L51.03 103.691L51.0348 103.394L50.9121 103.37L50.7161 103.138L50.6362 102.995L50.5164 103.082L50.524 103.178L50.5164 103.298L50.3728 103.322L50.271 103.125L50.2292 102.987L50.0161 102.908L49.998 102.987L49.8278 102.937L49.7032 103.019L49.5691 102.975L49.6252 102.772C49.6252 102.772 49.4797 102.677 49.4797 102.781C49.4797 102.884 49.4797 102.884 49.4797 102.884L49.4226 102.89C50.7228 97.6235 54.1944 93.2131 58.835 90.6651ZM60.3967 125.12C55.3339 122.911 51.4067 118.585 49.7374 113.259L49.7412 113.226L49.7888 113.169L49.9505 113.1L49.9695 113.02L49.9029 112.954L49.8972 112.852L49.9096 112.834L49.9781 112.807L50.0361 112.761L50.0142 112.633L50.0408 112.513L50.1398 112.456L50.2501 112.399L50.3395 112.342C50.3395 112.342 50.3395 112.342 50.3271 112.261C50.3148 112.18 50.3509 112.162 50.3509 112.162L50.5392 111.941L50.4945 111.908L50.4194 111.965C50.4194 111.965 50.4194 111.965 50.3414 111.923C50.3214 111.912 50.3129 111.908 50.3091 111.907C50.3129 111.907 50.3176 111.901 50.2815 111.859C50.2092 111.775 50.3148 111.901 50.29 111.784C50.2663 111.667 50.2986 111.679 50.2986 111.679L50.3709 111.715L50.4251 111.697L50.4194 111.583L50.5116 111.523C50.5116 111.523 50.5116 111.523 50.4784 111.38C50.4451 111.236 50.4279 111.212 50.4279 111.212L50.4013 111.092L50.4375 111.035L50.4974 111.036L50.5021 110.933L50.4289 110.859L50.4165 110.766L50.4784 110.687L50.465 110.503L50.3785 110.332L50.175 110.084L50.1835 109.899L50.1864 109.734L50.1103 109.692L50.0665 109.591L49.959 109.565L49.863 109.578L49.7764 109.856L49.6813 109.865L49.6147 109.873L49.5586 109.912L49.6271 109.986C49.6271 109.986 49.6271 109.986 49.5938 110.022C49.5605 110.059 49.6861 110.129 49.6861 110.129L49.7165 110.211L49.6927 110.265L49.6385 110.354L49.5786 110.375L49.3931 110.367C49.3931 110.367 49.3931 110.367 49.3332 110.316C49.2733 110.266 49.3598 110.191 49.3598 110.191L49.2371 110.195L49.24 110.301L49.1668 110.328L49.0973 110.283L49.1002 110.199L49.1202 110.138L49.163 110.153L49.201 110.068L49.2324 109.99L49.1515 110.014L49.0707 109.972L49.0203 109.888L49.0089 109.884C48.9851 109.696 48.9651 109.506 48.948 109.316C48.9566 109.323 48.9737 109.339 49.0146 109.378C49.0897 109.446 49.0146 109.449 49.0146 109.449L49.0355 109.524C49.0355 109.524 49.0355 109.524 49.1192 109.515C49.2029 109.507 49.2029 109.503 49.2029 109.503L49.278 109.53L49.3047 109.629H49.4064L49.5377 109.527L49.5795 109.446L49.7175 109.425L49.7745 109.383C49.7745 109.383 49.7745 109.383 49.804 109.305C49.8335 109.227 49.8402 109.24 49.8402 109.24L49.9267 109.263L50.0399 109.271L50.0247 109.338L50.058 109.371L50.1778 109.35L50.3633 109.407L50.447 109.562L50.5877 109.753L50.6353 109.903C50.6353 109.903 50.6353 109.903 50.6115 110.013C50.5877 110.123 50.6867 110.07 50.6867 110.07L50.7618 110.001L50.738 109.894L50.6724 109.813L50.6933 109.75L50.7142 109.693L50.8426 109.638L50.8873 109.48L51.0281 109.391L51.127 109.378L51.1185 109.316L51.088 109.175L51.1394 108.84L51.2526 108.744L51.3543 108.637H51.4114L51.517 108.704L51.5579 108.67L51.5284 108.535L51.6387 108.481L51.7319 108.546L51.8993 108.552L52.0011 108.429L52.0553 108.33L52.2018 108.297L52.2199 108.198L52.2912 108.007L52.4957 108.054L52.5965 108.204L52.5575 108.366L52.4586 108.485L52.3093 108.495L52.3245 108.633L52.411 108.693L52.4586 108.564L52.5337 108.69L52.588 108.561L52.7468 108.546L52.8362 108.51L52.8448 108.429L52.7848 108.301V108.202C52.7848 108.202 52.7848 108.202 52.8657 108.097C52.9465 107.993 52.9646 108.113 52.9646 108.113C52.9646 108.113 52.9646 108.113 53.0217 108.241C53.0787 108.369 52.9646 108.307 52.9646 108.307L52.9893 108.411L53.2062 108.472L53.5172 108.594L53.4373 108.778L53.5172 108.901L53.8425 108.868L54.0089 108.809L54.338 109.094H54.5073L54.6586 108.877L54.4759 108.653L54.631 108.522L54.883 108.485H55.0742L55.3976 108.653L55.0742 108.892L55.1912 109.047L55.3852 109.047L55.6363 109.024L55.8275 109.275L55.7191 109.415L55.5764 109.658L56.0215 109.877L56.342 110.604L56.6293 110.747L57.18 111.011L57.5623 111.561L57.5148 112.351L57.2 113.387V113.961C57.2 113.961 57.2 113.387 57.5585 114.703L57.7735 115.038L58.3242 115.349L58.0607 115.756L57.8933 116.258L58.0607 116.758H58.5972L58.6828 117.262L58.7788 117.932L58.9225 118.172L59.3058 118.339L59.2335 119.176L59.4969 120.516L59.0537 121.329L59.2981 121.412L59.7271 121.832L59.6168 122.333L59.0537 122.691L59.3058 123.003L59.904 123.386L60.3111 123.793C60.3111 123.793 60.3111 123.793 60.3938 124.822C60.4034 124.946 60.4034 125.042 60.3967 125.12Z" fill="#FFBE2E"/>
<path d="M68.0665 88.3042C57.4595 88.3042 48.8613 96.9024 48.8613 107.509C48.8613 118.116 57.4595 126.714 68.0665 126.714C78.6734 126.714 87.2716 118.116 87.2716 107.509C87.2706 96.9024 78.6725 88.3042 68.0665 88.3042ZM57.3235 117.882C50.2043 110.846 49.7202 99.7938 56.2402 93.1958C62.7611 86.5998 73.817 86.9536 80.9361 93.99C88.0544 101.026 88.5404 112.079 82.0195 118.675C75.4995 125.273 64.4417 124.916 57.3235 117.882Z" fill="#978050"/>
<path d="M87.4416 101.021C89.3106 101.425 91.15 101.947 92.902 103.003C93.7675 103.536 94.6511 104.21 95.2865 105.278C95.9266 106.346 96.0588 107.853 95.6764 109.049C94.8765 111.435 93.3367 112.975 91.8586 114.38C91.1025 115.075 90.3226 115.722 89.5265 116.317C89.1289 116.617 88.7304 116.93 88.3252 117.203L87.7174 117.628L87.4121 117.841C87.3122 117.916 87.1648 117.895 87.3141 118.463L84.2173 112.353C84.5711 112.812 84.6291 112.683 84.7347 112.649L85.0448 112.535L85.6668 112.308C86.0891 112.162 86.4829 111.99 86.888 111.826C87.7022 111.501 88.4831 111.137 89.2307 110.746C90.7011 109.971 92.1525 109.027 92.8031 107.946C93.1132 107.418 93.2244 106.93 93.077 106.31C92.9049 105.696 92.4265 105.028 91.8225 104.446C90.5765 103.303 88.9339 102.372 87.2571 101.718L87.4416 101.021Z" fill="#212121"/>
<path d="M81.438 123.678L88.5182 119.59V111.466L81.438 115.553V123.678Z" fill="#FFBE2E"/>
<path d="M88.5182 111.466L81.438 115.553L85.2587 113.51L88.5182 111.466Z" fill="#212121"/>
<path d="M81.4374 123.678L74.3572 119.59V111.466L81.4374 115.553V123.678Z" fill="#212121"/>
<path d="M81.4374 115.553L74.3572 111.466L81.4374 107.378L88.5175 111.466L81.4374 115.553Z" fill="white"/>
<path d="M84.6284 116.923L85.7665 116.266V113.055L84.6284 113.712V116.923Z" fill="black"/>
<path d="M84.6288 113.712L77.5486 109.625L78.6861 108.967L85.7663 113.055L84.6288 113.712Z" fill="#212121"/>
<path d="M74.3572 111.466L81.4374 115.553L77.6176 113.51L74.3572 111.466Z" fill="#87623F"/>
<path d="M78.3663 113.781L85.4465 109.694L84.3089 109.037L77.2288 113.125L78.3663 113.781Z" fill="#212121"/>
<path d="M77.8407 113.477L84.9209 109.389L84.8429 109.344L77.7627 113.431L77.8407 113.477Z" fill="white"/>
<path d="M78.3675 113.781V113.913L77.6734 113.542L77.2288 113.264V113.124L78.3675 113.781Z" fill="#AE835B"/>
<path d="M85.2587 113.511L84.6284 113.848V113.713L85.7672 113.055V113.192L85.2587 113.511Z" fill="#212121"/>
<path d="M78.3149 118.448C78.6401 119.857 77.6757 121.232 76.2433 121.431C72.6471 121.933 69.1137 122.175 65.5099 122.226C61.0462 122.259 56.5455 121.941 52.1399 120.924C49.9409 120.412 47.7714 119.694 45.7131 118.704C44.6783 118.225 43.691 117.632 42.7399 116.992C41.7878 116.331 40.8129 115.533 40.1624 114.375C39.8418 113.795 39.6449 113.115 39.6193 112.432C39.586 111.741 39.7762 111.086 40.0263 110.51C40.5457 109.348 41.3703 108.488 42.2149 107.729C43.9412 106.232 45.871 105.143 47.895 104.224L48.2022 104.875C46.3409 105.904 44.5271 107.141 43.0738 108.628C42.3614 109.372 41.7194 110.202 41.4236 111.071C41.0983 111.943 41.2162 112.763 41.6851 113.474C42.6838 114.895 44.7515 115.834 46.6281 116.612C48.5617 117.364 50.6 117.871 52.6754 118.187C56.8327 118.815 61.1004 118.791 65.3301 118.431C68.9006 118.11 72.532 117.554 75.9903 116.77C77.0052 116.54 78.0162 117.155 78.2502 118.169L78.3149 118.448Z" fill="#212121"/>
<rect x="83.5537" y="115.988" width="84.7457" height="21.1864" rx="10.5932" fill="white"/>
<rect x="83.5537" y="115.988" width="84.7457" height="21.1864" rx="10.5932" stroke="black" stroke-width="0.882767"/>
<g clip-path="url(#clip0_2671_86733)">
<path d="M106.914 119.616C107.009 119.616 107.061 119.663 107.161 119.711C106.617 119.946 106.113 120.559 105.967 121.878L104.954 122.161C105.187 121.219 105.682 119.616 106.914 119.616ZM107.485 120.088C107.609 120.37 107.739 120.7 107.793 121.219C107.798 121.266 107.798 121.266 107.803 121.313L106.468 121.69C106.649 120.7 107.078 120.276 107.485 120.088ZM108.806 120.936L108.21 121.124C108.205 121.077 108.2 121.03 108.195 120.983C108.15 120.559 108.068 120.229 107.944 119.946C108.285 120.04 108.614 120.465 108.806 120.936ZM111.965 121.69C111.96 121.643 111.908 121.596 111.86 121.596C111.766 121.596 110.761 121.501 110.761 121.501C110.761 121.501 109.976 120.794 109.876 120.747C109.771 120.653 109.634 120.7 109.587 120.7C109.587 120.7 109.449 120.747 109.222 120.842C108.916 120.182 108.425 119.569 107.714 119.569H107.667C107.448 119.286 107.154 119.192 106.917 119.192C105.206 119.145 104.623 121.266 104.453 122.35C104.084 122.444 103.719 122.585 103.308 122.727C102.939 122.821 102.944 122.868 102.931 123.198C102.908 123.433 102.743 130.879 102.743 130.879L110.426 132.293L114.407 131.398C114.407 131.398 111.975 121.784 111.965 121.69Z" fill="black"/>
<path d="M111.815 121.596C111.767 121.596 110.762 121.502 110.762 121.502C110.762 121.502 109.977 120.795 109.878 120.748C109.825 120.701 109.825 120.701 109.778 120.701L110.428 132.294L114.409 131.398C114.409 131.398 111.977 121.785 111.967 121.69C111.962 121.643 111.862 121.596 111.815 121.596Z" fill="black"/>
<path d="M108.166 123.857L107.803 125.365C107.803 125.365 107.352 125.13 106.783 125.13C105.977 125.13 105.98 125.601 105.994 125.742C106.064 126.402 107.894 126.685 108.063 128.287C108.196 129.56 107.475 130.361 106.385 130.361C105.106 130.361 104.358 129.56 104.358 129.56L104.571 128.429C104.571 128.429 105.294 128.994 105.862 128.994C106.241 128.994 106.354 128.711 106.329 128.476C106.235 127.58 104.761 127.533 104.608 126.072C104.479 124.847 105.255 123.669 107.009 123.669C107.809 123.622 108.166 123.857 108.166 123.857Z" fill="white"/>
<path d="M118.692 126.638C118.241 126.402 118.032 126.214 118.007 125.978C117.972 125.648 118.237 125.46 118.711 125.46C119.232 125.46 119.73 125.695 119.73 125.695L119.991 124.564C119.991 124.564 119.629 124.282 118.634 124.282C117.213 124.282 116.349 125.083 116.468 126.214C116.537 126.874 117.061 127.345 117.664 127.675C118.168 127.957 118.377 128.146 118.407 128.429C118.436 128.711 118.229 128.994 117.755 128.994C117.092 128.994 116.394 128.664 116.394 128.664L116.134 129.795C116.134 129.795 116.742 130.172 117.737 130.172C119.159 130.172 120.127 129.465 119.993 128.193C119.919 127.486 119.343 126.968 118.692 126.638ZM124.173 124.234C123.462 124.234 122.929 124.564 122.557 125.083L122.836 121.878H121.225L120.518 130.031H122.129L122.358 127.251C122.438 126.214 122.938 125.554 123.459 125.554C123.838 125.554 124.005 125.79 124.045 126.167C124.069 126.402 124.094 126.638 124.072 126.874L123.792 130.078H125.403L125.673 126.779C125.685 126.449 125.688 126.025 125.659 125.743C125.559 124.8 125.026 124.234 124.173 124.234ZM128.786 128.9C128.218 128.9 127.978 128.429 127.919 127.863C127.825 126.968 128.14 125.46 128.993 125.46C129.562 125.46 129.801 125.931 129.85 126.402C129.959 127.439 129.639 128.9 128.786 128.9ZM129.101 124.234C127.159 124.234 126.062 125.978 126.265 127.91C126.394 129.136 127.256 130.125 128.725 130.125C130.621 130.125 131.722 128.429 131.514 126.449C131.395 125.318 130.618 124.234 129.101 124.234ZM134.335 128.947C133.909 128.947 133.647 128.711 133.647 128.711L133.773 127.203C133.858 126.214 134.31 125.554 134.879 125.554C135.353 125.554 135.592 126.025 135.636 126.449C135.698 127.486 135.236 128.947 134.335 128.947ZM135.404 124.234C134.314 124.234 133.797 125.177 133.797 125.177L133.802 124.329H132.381C132.393 124.894 132.345 125.79 132.272 126.449L131.749 132.293H133.36L133.539 129.937H133.586C133.586 129.937 133.938 130.125 134.554 130.125C136.449 130.125 137.478 128.193 137.275 126.261C137.166 125.224 136.588 124.234 135.404 124.234ZM139.099 121.972C138.578 121.972 138.243 122.397 138.298 122.915C138.347 123.386 138.666 123.716 139.14 123.716C139.661 123.716 140.053 123.386 139.989 122.774C139.939 122.302 139.573 121.972 139.099 121.972ZM137.719 130.031H139.33L139.825 124.376H138.214L137.719 130.031ZM143.9 124.376H142.763L142.781 124.093C142.816 123.528 143.098 123.056 143.62 123.056C143.904 123.056 144.151 123.151 144.151 123.151L144.349 121.878C144.349 121.878 144.05 121.737 143.481 121.737C142.912 121.737 142.359 121.878 141.972 122.255C141.453 122.726 141.285 123.386 141.212 124.046L141.195 124.329H140.436L140.328 125.554H141.086L140.704 130.031H142.315L142.697 125.554H143.787L143.9 124.376ZM147.739 124.376C147.739 124.376 147.006 126.874 146.676 128.24C146.584 127.816 145.891 124.376 145.891 124.376H144.185L145.677 129.56C145.687 129.654 145.697 129.748 145.66 129.842C145.51 130.219 145.213 130.549 144.906 130.785C144.646 131.021 144.282 131.162 144.055 131.256L144.625 132.623C144.952 132.576 145.585 132.293 146.1 131.775C146.741 131.115 147.338 130.031 147.853 128.617L149.355 124.423L147.739 124.376Z" fill="black"/>
</g>
<rect x="178.828" y="80.1743" width="84.7457" height="21.1864" rx="10.5932" fill="white"/>
<rect x="178.828" y="80.1743" width="84.7457" height="21.1864" rx="10.5932" stroke="black" stroke-width="0.882767"/>
<path d="M203.609 83.3311L197.692 86.7465V93.5685L199.381 94.5449L199.369 87.7215L203.597 85.281L207.825 87.7215V94.542L209.514 93.5685V86.7405L203.609 83.3311Z" fill="black"/>
<path d="M204.446 94.5436L203.602 95.0341L202.754 94.5481V87.7217L201.066 88.6967L201.069 95.5201L203.601 96.9826L206.135 95.5201V88.6967L204.446 87.7217V94.5436Z" fill="black"/>
<path d="M213.383 86.7876L215.706 92.6554H215.725L217.991 86.7876H218.875V93.5112H218.264V87.6523H218.244C218.213 87.7586 218.178 87.865 218.141 87.9713C218.11 88.0588 218.073 88.1557 218.033 88.262C217.992 88.3693 217.955 88.4692 217.925 88.5632L215.978 93.5112H215.424L213.457 88.5646C213.42 88.4772 213.382 88.3818 213.344 88.2784C213.306 88.175 213.272 88.0762 213.24 87.9817C213.202 87.8684 213.164 87.7586 213.126 87.6523H213.107V93.5112H212.527V86.7876H213.383Z" fill="black"/>
<path d="M220.652 93.5423C220.469 93.4919 220.299 93.4057 220.15 93.2888C220.007 93.1749 219.893 93.03 219.815 92.8652C219.734 92.6962 219.693 92.4988 219.693 92.2731C219.693 91.9847 219.746 91.7496 219.853 91.5676C219.958 91.3878 220.107 91.2375 220.285 91.1306C220.467 91.0212 220.679 90.9382 220.921 90.8815C221.176 90.8229 221.435 90.779 221.696 90.7503C221.935 90.7254 222.137 90.6986 222.303 90.6697C222.469 90.6409 222.604 90.6046 222.707 90.5609C222.811 90.5171 222.886 90.4589 222.933 90.3864C222.979 90.3138 223.003 90.2148 223.003 90.0896V89.9956C223.003 89.6635 222.902 89.4174 222.701 89.2573C222.501 89.0972 222.212 89.0172 221.836 89.0172C220.97 89.0172 220.515 89.3781 220.472 90.1H219.897C219.929 89.6297 220.103 89.2533 220.419 88.9709C220.736 88.6886 221.207 88.5474 221.835 88.5474C222.368 88.5474 222.788 88.6652 223.095 88.9008C223.402 89.1365 223.556 89.5208 223.556 90.0538V92.6967C223.556 92.8408 223.583 92.9457 223.637 93.0114C223.69 93.077 223.77 93.1133 223.877 93.1202C223.91 93.1202 223.943 93.1172 223.975 93.1113C224.009 93.1053 224.048 93.0949 224.093 93.083H224.121V93.5065C224.07 93.528 224.016 93.5454 223.962 93.5587C223.884 93.576 223.805 93.5841 223.726 93.5826C223.513 93.5826 223.344 93.5274 223.217 93.417C223.091 93.3067 223.022 93.1327 223.01 92.895V92.7921H222.985C222.908 92.8951 222.825 92.9927 222.736 93.0844C222.631 93.1908 222.512 93.2825 222.382 93.3574C222.232 93.4439 222.07 93.5101 221.902 93.5543C221.72 93.605 221.513 93.6298 221.282 93.6288C221.068 93.6305 220.856 93.6019 220.651 93.5438M222.085 93.0307C222.289 92.9462 222.46 92.8379 222.599 92.7056C222.728 92.5835 222.832 92.4364 222.903 92.2731C222.975 92.1098 223.012 91.9337 223.013 91.7555V90.88C222.856 90.9675 222.666 91.0352 222.443 91.0829C222.221 91.1306 221.99 91.1699 221.751 91.2007C221.545 91.2325 221.353 91.2653 221.177 91.2991C221.001 91.3329 220.849 91.3876 220.721 91.4632C220.594 91.5368 220.489 91.6422 220.415 91.769C220.339 91.8972 220.302 92.0653 220.302 92.2731C220.302 92.4421 220.331 92.5833 220.391 92.6967C220.447 92.805 220.528 92.8986 220.627 92.9696C220.73 93.0411 220.847 93.0909 220.97 93.1158C221.106 93.1443 221.245 93.1583 221.384 93.1575C221.648 93.1575 221.882 93.1153 222.085 93.0307Z" fill="black"/>
<path d="M225.119 94.8535C224.793 94.612 224.608 94.3093 224.564 93.9456H225.127C225.178 94.2278 225.33 94.4301 225.584 94.5524C225.837 94.6746 226.14 94.7357 226.492 94.7357C227.012 94.7357 227.396 94.612 227.644 94.3645C227.891 94.117 228.015 93.7766 228.015 93.3433V92.5726H227.987C227.805 92.8479 227.595 93.0576 227.356 93.2017C227.118 93.3458 226.814 93.4178 226.444 93.4178C226.124 93.4178 225.836 93.3582 225.579 93.2389C225.326 93.1229 225.101 92.953 224.92 92.741C224.738 92.5283 224.599 92.2729 224.501 91.9747C224.404 91.6766 224.355 91.3491 224.355 90.9923C224.355 90.5977 224.411 90.2484 224.524 89.9443C224.636 89.6401 224.787 89.3847 224.975 89.178C225.159 88.9745 225.386 88.8141 225.639 88.7084C225.893 88.6018 226.167 88.5476 226.442 88.5489C226.818 88.5489 227.128 88.6259 227.373 88.7799C227.617 88.934 227.821 89.1422 227.984 89.4046H228.012V88.6502H228.589V93.3239C228.589 93.8626 228.439 94.2984 228.137 94.6314C227.768 95.02 227.226 95.2143 226.511 95.2143C225.909 95.2143 225.445 95.0935 225.119 94.852M227.668 92.3922C227.925 92.0344 228.054 91.5643 228.054 90.9819C228.054 90.6936 228.023 90.4303 227.96 90.1917C227.897 89.9532 227.8 89.748 227.668 89.576C227.538 89.4051 227.369 89.268 227.174 89.1765C226.977 89.0821 226.746 89.0349 226.483 89.0349C226 89.0349 225.625 89.2133 225.359 89.5701C225.092 89.9269 224.959 90.4034 224.959 90.9997C224.957 91.2582 224.988 91.5158 225.053 91.766C225.116 92.0006 225.209 92.2043 225.335 92.3773C225.457 92.5471 225.618 92.6855 225.804 92.7813C225.992 92.8787 226.215 92.9274 226.472 92.9274C227.011 92.9274 227.409 92.7485 227.666 92.3907" fill="black"/>
<path d="M230.612 93.4436C230.337 93.3211 230.095 93.138 229.902 92.9081C229.711 92.6794 229.565 92.4095 229.465 92.0982C229.364 91.787 229.314 91.45 229.314 91.087C229.314 90.7231 229.367 90.386 229.474 90.0758C229.58 89.7656 229.729 89.4961 229.92 89.2674C230.109 89.0394 230.347 88.8561 230.616 88.7305C230.888 88.6022 231.194 88.5381 231.533 88.5381C231.922 88.5381 232.25 88.6117 232.516 88.7588C232.777 88.901 233 89.1041 233.165 89.3509C233.331 89.5985 233.449 89.8824 233.518 90.2026C233.588 90.5271 233.622 90.8581 233.621 91.1899H229.915C229.919 91.4497 229.958 91.7077 230.033 91.9566C230.098 92.1789 230.203 92.3875 230.343 92.5725C230.479 92.7494 230.655 92.8915 230.856 92.9872C231.063 93.0876 231.305 93.1378 231.581 93.1378C231.989 93.1378 232.304 93.0389 232.527 92.841C232.749 92.6431 232.907 92.3781 233.001 92.046H233.566C233.46 92.5293 233.24 92.9151 232.907 93.2034C232.574 93.4918 232.132 93.636 231.581 93.636C231.217 93.636 230.894 93.5718 230.612 93.4436ZM232.907 90.0564C232.844 89.8466 232.753 89.6647 232.634 89.5105C232.514 89.356 232.359 89.2318 232.182 89.1481C232 89.0606 231.784 89.0169 231.533 89.0169C231.283 89.0169 231.064 89.0606 230.879 89.1481C230.692 89.2321 230.527 89.3558 230.394 89.5105C230.258 89.6713 230.152 89.8545 230.079 90.0519C229.998 90.2699 229.946 90.4976 229.924 90.7291H233.01C233.006 90.5013 232.971 90.2751 232.907 90.0564Z" fill="black"/>
<path d="M234.926 88.6498V89.3926H234.945C235.112 89.1446 235.332 88.9372 235.59 88.7855C235.856 88.6255 236.184 88.5454 236.573 88.5454C237.024 88.5454 237.396 88.6757 237.688 88.9362C237.98 89.1967 238.126 89.5715 238.125 90.0608V93.515H237.542V90.1174C237.542 89.7475 237.443 89.4761 237.245 89.3031C237.047 89.1301 236.776 89.0441 236.431 89.0451C236.232 89.0439 236.034 89.0793 235.848 89.1495C235.671 89.2148 235.509 89.3118 235.367 89.4358C235.23 89.5573 235.119 89.7061 235.042 89.8728C234.963 90.0469 234.923 90.2363 234.924 90.4277V93.515H234.343V88.6498H234.926Z" fill="black"/>
<path d="M239.629 93.3485C239.46 93.2134 239.375 92.9892 239.375 92.6761V89.1304H238.642V88.6503H239.375V87.1548H239.958V88.6503H240.862V89.1304H239.958V92.5822C239.958 92.7581 239.997 92.8789 240.076 92.9445C240.155 93.0101 240.272 93.0429 240.428 93.0429C240.499 93.0425 240.57 93.0345 240.64 93.019C240.699 93.0071 240.758 92.9897 240.814 92.9668H240.842V93.4648C240.669 93.523 240.488 93.5517 240.306 93.5498C240.023 93.5498 239.798 93.4822 239.629 93.3471" fill="black"/>
<path d="M242.587 93.4431C242.313 93.3186 242.071 93.1353 241.877 92.9062C241.682 92.6775 241.533 92.408 241.429 92.0978C241.326 91.7876 241.274 91.4505 241.274 91.0866C241.274 90.7226 241.326 90.3856 241.429 90.0753C241.533 89.7651 241.682 89.4952 241.877 89.2655C242.071 89.0364 242.313 88.8531 242.587 88.7285C242.866 88.6003 243.181 88.5361 243.532 88.5361C243.883 88.5361 244.197 88.6003 244.473 88.7285C244.745 88.854 244.986 89.0372 245.179 89.2655C245.374 89.4942 245.521 89.7641 245.62 90.0753C245.72 90.3866 245.77 90.7236 245.771 91.0866C245.771 91.4505 245.721 91.7876 245.62 92.0978C245.52 92.408 245.373 92.6775 245.179 92.9062C244.986 93.1345 244.745 93.3177 244.473 93.4431C244.198 93.5714 243.884 93.6355 243.532 93.6355C243.18 93.6355 242.865 93.5714 242.587 93.4431ZM244.248 92.9867C244.453 92.8822 244.63 92.7309 244.766 92.5452C244.904 92.3573 245.007 92.1376 245.076 91.886C245.214 91.362 245.214 90.8111 245.076 90.2871C245.007 90.0356 244.904 89.8158 244.766 89.6279C244.63 89.4421 244.453 89.2908 244.248 89.1864C244.041 89.079 243.803 89.0258 243.534 89.0268C243.264 89.0278 243.024 89.081 242.813 89.1864C242.61 89.2926 242.433 89.4435 242.296 89.6279C242.155 89.8158 242.05 90.0356 241.981 90.2871C241.843 90.8112 241.843 91.3619 241.981 91.886C242.05 92.1366 242.155 92.3563 242.296 92.5452C242.433 92.7295 242.61 92.8804 242.813 92.9867C243.017 93.0931 243.257 93.1463 243.534 93.1463C243.81 93.1463 244.048 93.0931 244.248 92.9867Z" fill="black"/>
<path d="M246.515 89.4594C246.154 89.4594 245.903 89.2087 245.903 88.8342C245.903 88.4597 246.16 88.2061 246.515 88.2061C246.87 88.2061 247.128 88.4597 247.128 88.8342C247.128 89.2087 246.872 89.4594 246.515 89.4594ZM246.515 88.2777C246.224 88.2777 245.991 88.4776 245.991 88.8327C245.991 89.1878 246.223 89.3848 246.515 89.3848C246.808 89.3848 247.042 89.1848 247.042 88.8327C247.042 88.4806 246.808 88.2777 246.515 88.2777ZM246.696 89.1684L246.488 88.8715H246.421V89.158H246.302V88.4627H246.512C246.657 88.4627 246.754 88.5358 246.754 88.6656C246.754 88.7656 246.7 88.8297 246.614 88.8566L246.813 89.1401L246.696 89.1684ZM246.514 88.5731H246.421V88.7775H246.508C246.585 88.7775 246.634 88.7447 246.634 88.6746C246.634 88.6044 246.591 88.5716 246.514 88.5716" fill="black"/>
<rect x="111.933" y="18.6855" width="84.7457" height="21.1864" rx="10.5932" fill="white"/>
<rect x="111.933" y="18.6855" width="84.7457" height="21.1864" rx="10.5932" stroke="black" stroke-width="0.882767"/>
<g clip-path="url(#clip1_2671_86733)">
<path d="M144.766 27.4077V30.838C144.766 30.8936 144.744 30.9466 144.705 30.9852C144.665 31.0238 144.612 31.045 144.556 31.044L143.474 31.0251C143.418 31.0241 143.365 31.0011 143.325 30.9611C143.286 30.9211 143.264 30.8674 143.264 30.8118V25.2322C143.264 25.1766 143.286 25.1236 143.325 25.085C143.365 25.0464 143.418 25.0252 143.474 25.0262L144.476 25.0437C144.531 25.0446 144.584 25.0677 144.624 25.1077C144.663 25.1477 144.685 25.2014 144.685 25.257V26.0427C144.685 26.0427 145.043 24.9281 146.106 24.9467C146.106 24.9467 147.158 24.8379 147.585 26.0125C147.585 26.0125 147.943 24.9787 149.029 24.9977C149.029 24.9977 150.644 24.9298 150.644 26.6013L150.657 27.5221V30.9524C150.657 31.008 150.635 31.0609 150.595 31.0996C150.556 31.1382 150.503 31.1594 150.447 31.1584L149.364 31.1395C149.309 31.1385 149.255 31.1155 149.216 31.0755C149.177 31.0355 149.155 30.9818 149.155 30.9262L149.145 27.1837C149.175 26.3368 148.49 26.3865 148.49 26.3865C147.627 26.3869 147.71 27.4706 147.71 27.4706V30.901C147.71 30.9566 147.688 31.0095 147.649 31.0481C147.61 31.0868 147.556 31.1079 147.501 31.107L146.418 31.0881C146.362 31.0871 146.309 31.064 146.27 31.024C146.231 30.984 146.208 30.9304 146.208 30.8748V27.2171C146.208 27.2171 146.272 26.34 145.501 26.3266C145.502 26.3266 144.739 26.2131 144.766 27.4077ZM172.675 27.8846V31.3148C172.675 31.3704 172.653 31.4233 172.614 31.462C172.574 31.5006 172.521 31.5218 172.465 31.5208L171.339 31.523C171.284 31.522 171.23 31.499 171.191 31.459C171.152 31.419 171.13 31.3653 171.13 31.3097V27.6521C171.13 27.6521 171.193 26.775 170.423 26.7616C170.423 26.7616 169.687 26.7125 169.687 28.0894V31.2729C169.687 31.3285 169.665 31.3815 169.626 31.4201C169.586 31.4587 169.533 31.4799 169.478 31.4789L168.395 31.46C168.339 31.459 168.286 31.436 168.247 31.396C168.207 31.356 168.185 31.3023 168.185 31.2467V25.6672C168.185 25.6116 168.207 25.5587 168.247 25.52C168.286 25.4814 168.339 25.4602 168.395 25.4612L169.397 25.4787C169.452 25.4796 169.506 25.5027 169.545 25.5427C169.584 25.5827 169.606 25.6364 169.606 25.692V26.4777C169.606 26.4777 169.965 25.3631 171.027 25.3817C171.027 25.3817 172.166 25.2288 172.55 26.4265C172.55 26.4264 172.675 26.6743 172.675 27.8846ZM164.857 25.2509C163.473 25.2267 162.35 26.3742 162.35 28.3386C162.35 30.0681 163.217 31.4852 164.857 31.5138C166.406 31.5409 167.365 30.1556 167.365 28.4261C167.365 26.4964 166.242 25.275 164.857 25.2509ZM165.731 28.4669C165.731 29.2065 165.639 29.5977 165.639 29.5977C165.507 30.3772 164.94 30.3684 164.856 30.3628C164.766 30.3648 164.194 30.3467 164.075 29.5705C164.075 29.5705 163.983 29.176 163.983 28.4364V28.3132C163.983 27.5737 164.075 27.1824 164.075 27.1824C164.194 26.4103 164.766 26.4121 164.856 26.4172C164.94 26.4145 165.507 26.4254 165.639 27.2097C165.639 27.2097 165.731 27.6042 165.731 28.3437V28.4669ZM161.722 26.3324V25.5318C161.722 25.4762 161.7 25.4225 161.661 25.3825C161.621 25.3425 161.568 25.3195 161.512 25.3185L157.934 25.256C157.878 25.255 157.825 25.2762 157.785 25.3148C157.746 25.3535 157.724 25.4064 157.724 25.462V26.2564C157.724 26.312 157.746 26.3657 157.785 26.4057C157.825 26.4457 157.878 26.4687 157.934 26.4697L159.8 26.5023L157.591 29.6696C157.591 29.6696 157.504 29.7981 157.506 29.9417V30.9168C157.506 30.9168 157.492 31.251 157.871 31.0635C157.871 31.0635 158.545 30.6684 159.674 30.6881C159.674 30.6881 160.789 30.6937 161.532 31.1625C161.532 31.1625 161.841 31.3082 161.841 30.9996V30.1508C161.841 30.1508 161.869 29.9267 161.575 29.7813C161.575 29.7813 160.719 29.2964 159.597 29.3539L161.722 26.3324ZM142.428 30.0091L142.089 29.4871C141.982 29.2926 141.989 29.077 141.989 29.077V26.6967C142.036 24.6406 139.756 24.7781 139.756 24.7781C137.729 24.7427 137.429 26.315 137.429 26.315C137.345 26.6307 137.591 26.6426 137.591 26.6426L138.581 26.7604C138.581 26.7604 138.75 26.802 138.811 26.602C138.811 26.602 138.942 25.916 139.671 25.9288C140.465 25.9426 140.456 26.6237 140.456 26.6237V27.194C138.872 27.2193 138.138 27.6463 138.138 27.6463C137.16 28.1839 137.221 29.2866 137.221 29.2866C137.221 31.0815 138.931 31.0342 138.931 31.0342C140.025 31.0533 140.672 30.2635 140.672 30.2635C140.865 30.6059 141.219 30.9355 141.219 30.9355C141.396 31.1309 141.581 30.9727 141.581 30.9727L142.382 30.3011C142.559 30.1731 142.428 30.0091 142.428 30.0091ZM139.465 29.9351C138.951 29.9262 138.759 29.4115 138.845 28.9105C138.93 28.4095 139.374 28.0223 140.457 28.0528V28.3583C140.495 29.6936 139.893 29.9426 139.465 29.9351ZM156.816 30.2602L156.477 29.7383C156.37 29.5437 156.377 29.3281 156.377 29.3281V26.9478C156.423 24.8918 154.143 25.0292 154.143 25.0292C152.117 24.9938 151.817 26.5661 151.817 26.5661C151.733 26.8818 151.979 26.8938 151.979 26.8938L152.969 27.0115C152.969 27.0115 153.138 27.0531 153.199 26.8531C153.199 26.8531 153.33 26.1672 154.059 26.1799C154.853 26.1938 154.844 26.8748 154.844 26.8748V27.4451C153.26 27.4704 152.526 27.8975 152.526 27.8975C151.548 28.435 151.609 29.5377 151.609 29.5377C151.609 31.3326 153.319 31.2854 153.319 31.2854C154.413 31.3044 155.06 30.5146 155.06 30.5146C155.253 30.8571 155.607 31.1866 155.607 31.1866C155.784 31.382 155.969 31.2238 155.969 31.2238L156.77 30.5522C156.947 30.4243 156.816 30.2602 156.816 30.2602ZM153.853 30.1863C153.339 30.1773 153.147 29.6627 153.233 29.1616C153.318 28.6606 153.762 28.2735 154.844 28.3039V28.6094C154.883 29.9448 154.281 30.1938 153.853 30.1863Z" fill="black"/>
<path d="M159.545 34.8144C159.545 34.8144 159.454 34.9705 159.566 35.0077C159.566 35.0077 159.691 35.059 159.848 34.9162C159.848 34.9162 160.992 33.9369 161.02 32.118C161.02 32.118 161.028 31.8909 160.937 31.8272C160.937 31.8272 160.578 31.5039 159.29 31.5779C159.29 31.5779 158.167 31.6341 157.554 32.1678C157.554 32.1678 157.499 32.2151 157.499 32.277C157.499 32.277 157.485 32.4106 157.822 32.3585C157.822 32.3585 158.945 32.2195 159.614 32.3139C159.614 32.3139 159.958 32.3613 160.055 32.4803C160.055 32.4803 160.213 32.614 160.131 33.0466C160.131 33.0467 159.903 34.1454 159.545 34.8144Z" fill="black"/>
<path d="M159.317 33.0643C159.317 33.0643 159.485 33.2845 159.215 33.4672C159.215 33.4672 156.325 35.7287 151.472 35.644C151.472 35.644 146.477 35.8033 142.306 31.9403C142.306 31.9403 142.16 31.8094 142.251 31.6916C142.251 31.6916 142.332 31.5832 142.542 31.7063C142.542 31.7063 146.466 34.22 151.618 34.3099C151.618 34.3099 155.2 34.5111 158.874 33.0037C158.874 33.0037 159.167 32.8571 159.317 33.0643Z" fill="black"/>
</g>
<rect x="0.441384" y="57.2007" width="84.7457" height="21.1864" rx="10.5932" fill="white"/>
<rect x="0.441384" y="57.2007" width="84.7457" height="21.1864" rx="10.5932" stroke="black" stroke-width="0.882767"/>
<g clip-path="url(#clip2_2671_86733)">
<path d="M29.5387 67.2891C30.4229 67.2891 31.0165 67.6888 31.3798 68.1855V61.1116C31.3798 60.9783 31.2224 60.8935 31.1134 60.9783L22.38 67.3618H22.6102C23.5186 67.3618 23.9789 67.9432 23.9789 68.5731C23.9789 69.2029 23.7245 69.4331 23.3733 69.5905C23.3127 69.6148 23.3127 69.6996 23.3733 69.7238C23.773 69.8934 24.0637 70.3173 24.0637 70.8261C24.0637 71.5528 23.5913 72.1221 22.6828 72.1221H20.1997C20.1513 72.1221 20.1028 72.0858 20.1028 72.0252V69.0212L13.5982 73.7816C13.4892 73.8785 13.5377 74.0481 13.683 74.0481H31.2224C31.3072 74.0481 31.3677 73.9875 31.3677 73.9027V71.4923C30.8953 71.9283 30.2776 72.2069 29.5266 72.2069C28.1215 72.2069 26.9829 71.2379 26.9829 69.748C26.995 68.246 28.1457 67.2891 29.5387 67.2891ZM26.0623 72.0373C26.0623 72.0858 26.026 72.1221 25.9775 72.1221H25.1417C25.0933 72.1221 25.057 72.0858 25.057 72.0373V67.4466C25.057 67.3981 25.0933 67.3618 25.1417 67.3618H25.9775C26.026 67.3618 26.0623 67.3981 26.0623 67.4466V72.0373Z" fill="black"/>
<path d="M21.218 69.2507H22.3929C22.7321 69.2507 22.9501 69.0569 22.9501 68.754C22.9501 68.4512 22.7321 68.2574 22.3929 68.2574H21.1695C21.1453 68.2574 21.1211 68.2816 21.1211 68.3059V69.1659C21.1211 69.2143 21.1695 69.2507 21.218 69.2507ZM21.218 71.2372H22.4414C22.8169 71.2372 23.047 71.0312 23.047 70.6921C23.047 70.3529 22.829 70.147 22.4414 70.147H21.218C21.1695 70.147 21.1211 70.1833 21.1211 70.2439V71.1403C21.1211 71.1887 21.1695 71.2372 21.218 71.2372ZM30.6175 68.7298C30.3874 68.427 29.9998 68.1847 29.5395 68.1847C28.6674 68.1847 28.0375 68.8509 28.0375 69.7473C28.0375 70.6436 28.6674 71.3098 29.5395 71.3098C30.4116 71.3098 30.3147 71.1403 30.5206 70.9707C30.5328 70.9586 30.5449 70.9343 30.5449 70.9101V70.4498C30.5449 70.4135 30.5085 70.3772 30.4722 70.3772H29.3941C29.3336 70.3772 29.2973 70.3287 29.2973 70.2803V69.6019C29.2973 69.5414 29.3457 69.505 29.3941 69.505H31.3928V68.427L30.7508 68.7783C30.7023 68.7904 30.6418 68.7661 30.6175 68.7298ZM32.1316 69.7473C32.1316 68.2816 33.1855 67.2884 34.5421 67.2884C35.8987 67.2884 35.9956 67.7366 36.3348 68.2816C36.359 68.318 36.3469 68.3785 36.2985 68.3907L35.7534 68.6814C35.717 68.7056 35.6686 68.6935 35.6565 68.6571C35.4263 68.2937 35.0024 68.0273 34.5421 68.0273C33.6336 68.0273 32.9553 68.7419 32.9553 69.7473C32.9553 70.7527 33.6336 71.4673 34.5421 71.4673C35.4506 71.4673 35.4263 71.2008 35.6565 70.8374C35.6807 70.8011 35.717 70.789 35.7534 70.8132L36.2985 71.0918C36.3469 71.116 36.359 71.1645 36.3348 71.2129C35.9835 71.758 35.4142 72.2183 34.5421 72.2183C33.1855 72.2062 32.1316 71.2008 32.1316 69.7473ZM36.8072 69.7473C36.8072 68.5602 37.4855 67.6397 38.503 67.3732C40.2351 66.9129 41.8219 68.536 41.4464 70.3408C41.2163 71.4552 40.332 72.2183 39.1571 72.2183C37.7762 72.2062 36.8072 71.1645 36.8072 69.7473ZM40.6712 69.7473C40.6712 68.7661 40.0655 68.0273 39.145 68.0273C38.2244 68.0273 37.6188 68.7661 37.6188 69.7473C37.6188 70.7284 38.2123 71.4673 39.145 71.4673C40.0777 71.4673 40.6712 70.7163 40.6712 69.7473ZM46.4369 72.0608V68.4391L44.9955 72.0851C44.9955 72.0972 44.9712 72.1093 44.9591 72.1093H44.6563C44.6442 72.1093 44.62 72.0972 44.62 72.0851L43.1664 68.4391V72.0608C43.1664 72.0972 43.1422 72.1214 43.1059 72.1214H42.3791C42.3428 72.1214 42.3185 72.0972 42.3185 72.0608V67.4095C42.3185 67.3732 42.3428 67.3489 42.3791 67.3489H43.4208C43.4692 67.3489 43.5056 67.3732 43.5298 67.4216L44.8017 70.6921L46.0614 67.4216C46.0735 67.3732 46.122 67.3489 46.1704 67.3489H47.2121C47.2484 67.3489 47.2727 67.3732 47.2727 67.4095V72.0608C47.2727 72.0972 47.2484 72.1214 47.2121 72.1214H46.4853C46.4732 72.1214 46.4369 72.0972 46.4369 72.0608ZM54.6736 72.0366V67.4459C54.6736 67.3974 54.7099 67.3611 54.7584 67.3611H57.8472C57.8956 67.3611 57.9319 67.3974 57.9319 67.4459V68.003C57.9319 68.0515 57.8956 68.0878 57.8472 68.0878H55.5942C55.5457 68.0878 55.5094 68.1242 55.5094 68.1726V69.2264C55.5094 69.2749 55.5457 69.3112 55.5942 69.3112H57.7987C57.8472 69.3112 57.8835 69.3476 57.8835 69.396V69.9532C57.8835 70.0017 57.8472 70.038 57.7987 70.038H55.5942C55.5457 70.038 55.5094 70.0743 55.5094 70.1228V71.2735C55.5094 71.322 55.5457 71.3583 55.5942 71.3583H57.8472C57.8956 71.3583 57.9319 71.3946 57.9319 71.4431V72.0003C57.9319 72.0487 57.8956 72.0851 57.8472 72.0851H54.7584C54.7099 72.1214 54.6736 72.0851 54.6736 72.0366ZM61.808 72.0729L60.8027 70.3772C60.7906 70.3529 60.7542 70.3408 60.73 70.3408H60.0275C59.979 70.3408 59.9427 70.3772 59.9427 70.4256V72.0366C59.9427 72.0851 59.9063 72.1214 59.8579 72.1214H59.2038C59.1553 72.1214 59.119 72.0851 59.119 72.0366V67.4459C59.119 67.3974 59.1553 67.3611 59.2038 67.3611H61.2145C62.1593 67.3611 62.7771 67.9667 62.7771 68.8509C62.7771 69.7352 62.2926 70.0864 61.7596 70.2197C61.699 70.2318 61.6748 70.2924 61.699 70.3529C61.8928 70.6679 62.4985 71.6369 62.7286 71.9882C62.765 72.0487 62.7286 72.1214 62.6559 72.1214H61.8928C61.8565 72.1214 61.8323 72.1093 61.808 72.0729ZM61.9171 68.8388C61.9171 68.3785 61.5779 68.0878 61.1055 68.0878H60.0396C59.9911 68.0878 59.9548 68.1242 59.9548 68.1726V69.5171C59.9548 69.5656 59.9911 69.6019 60.0396 69.6019H61.1055C61.5779 69.6019 61.9171 69.3112 61.9171 68.8388ZM68.4217 72.0366V67.4459C68.4217 67.3974 68.458 67.3611 68.5064 67.3611H71.6073C71.6558 67.3611 71.6921 67.3974 71.6921 67.4459V68.0152C71.6921 68.0636 71.6558 68.0999 71.6073 68.0999H69.3422C69.2938 68.0999 69.2574 68.1363 69.2574 68.1847V69.2507C69.2574 69.2991 69.2938 69.3355 69.3422 69.3355H71.5468C71.5952 69.3355 71.6316 69.3718 71.6316 69.4202V69.9895C71.6316 70.038 71.5952 70.0743 71.5468 70.0743H69.3422C69.2938 70.0743 69.2574 70.1107 69.2574 70.1591V71.322C69.2574 71.3704 69.2938 71.4067 69.3422 71.4067H71.6073C71.6558 71.4067 71.6921 71.4431 71.6921 71.4915V72.0608C71.6921 72.1093 71.6558 72.1456 71.6073 72.1456H68.5064C68.458 72.1214 68.4217 72.0851 68.4217 72.0366ZM63.3827 69.7231C63.3827 68.2574 64.4365 67.2642 65.7932 67.2642C67.1498 67.2642 67.2467 67.7123 67.5859 68.2574C67.6101 68.2937 67.5859 68.3543 67.5495 68.3664L67.0044 68.6571C66.9681 68.6814 66.9197 68.6692 66.9076 68.6329C66.6774 68.2695 66.2535 68.003 65.7932 68.003C64.8847 68.003 64.2064 68.7177 64.2064 69.7231C64.2064 70.7284 64.8847 71.4431 65.7932 71.4431C66.7016 71.4431 66.6774 71.1766 66.9076 70.8132C66.9318 70.7769 66.9681 70.7648 67.0044 70.789L67.5495 71.0676C67.598 71.0918 67.6101 71.1403 67.5859 71.1887C67.2346 71.7338 66.6653 72.1941 65.7932 72.1941C64.4365 72.182 63.3827 71.1887 63.3827 69.7231ZM52.6144 72.0608V68.4391L51.173 72.0851C51.173 72.0972 51.1488 72.1093 51.1367 72.1093H50.8338C50.8217 72.1093 50.7975 72.0972 50.7975 72.0851L49.344 68.4391V72.0608C49.344 72.0972 49.3197 72.1214 49.2834 72.1214H48.5566C48.5203 72.1214 48.4961 72.0972 48.4961 72.0608V67.4095C48.4961 67.3732 48.5203 67.3489 48.5566 67.3489H49.5983C49.6468 67.3489 49.6831 67.3732 49.7074 67.4216L50.9792 70.6921L52.2389 67.4216C52.251 67.3732 52.2995 67.3489 52.3479 67.3489H53.3896C53.426 67.3489 53.4502 67.3732 53.4502 67.4095V72.0608C53.4502 72.0972 53.426 72.1214 53.3896 72.1214H52.6629C52.6386 72.1214 52.6144 72.0972 52.6144 72.0608Z" fill="black"/>
</g>
<defs>
<clipPath id="clip0_2671_86733">
<rect width="47.3853" height="13.5522" fill="white" transform="matrix(1 0 0.104528 0.994522 101.511 119.145)"/>
</clipPath>
<clipPath id="clip1_2671_86733">
<rect width="36.853" height="11.0854" fill="white" transform="matrix(0.999848 0.0174524 0 1 136.495 24.5439)"/>
</clipPath>
<clipPath id="clip2_2671_86733">
<rect width="58.2626" height="13.203" fill="white" transform="translate(13.5139 60.8691)"/>
</clipPath>
</defs>
</svg>
