<svg width="130" height="100" viewBox="0 0 130 100" fill="none" xmlns="http://www.w3.org/2000/svg">
<circle cx="98" cy="75" r="23.5" fill="#3C2C0B" stroke="#FFBE2E"/>
<g clip-path="url(#clip0_4278_8488)">
<path d="M102.211 59.1769L84.6309 64.7983L86.237 69.8212L103.817 64.1998L102.211 59.1769Z" stroke="#FFBE2E" stroke-width="1.125" strokeMiterlimit="22.9256"/>
<path d="M84.4463 68.5483L104.538 62.1239" stroke="#FFBE2E" stroke-width="1.125" strokeMiterlimit="22.9256"/>
<path d="M103.817 64.1997L105.526 65.2521L112.069 85.6757C112.216 86.1361 111.96 86.6334 111.499 86.7806L107.448 88.0759L106.611 88.3436L93.0819 92.6697C92.6214 92.8169 92.1243 92.5607 91.977 92.1002L87.1408 76.9757L86.8732 76.1385L85.5169 71.8969L86.2372 69.8211" stroke="#FFBE2E" stroke-width="1.125" strokeMiterlimit="22.9256"/>
<path d="M97.2802 76.0592C97.3596 74.5861 98.0456 73.3843 99.1615 73.0275C100.787 72.5077 102.711 73.9779 103.456 76.3103C104.202 78.6428 103.489 80.9562 101.863 81.476C101.563 81.572 101.253 81.5999 100.942 81.5674" stroke="#FFBE2E" stroke-width="1.125" strokeMiterlimit="22.9256"/>
<path d="M100.309 82.7651C101.521 81.5625 101.105 79.1783 99.3792 77.4398C97.6538 75.7014 95.2728 75.2669 94.0611 76.4695C92.8494 77.6721 93.2659 80.0563 94.9914 81.7948C96.7168 83.5333 99.0978 83.9677 100.309 82.7651Z" stroke="#FFBE2E" stroke-width="1.125" strokeMiterlimit="22.9256"/>
<path d="M98.1201 81.5107L98.9573 81.2431" stroke="#FFBE2E" stroke-width="1.125" strokeMiterlimit="22.9256"/>
<path d="M99.5537 75.2578L100.391 74.9901" stroke="#FFBE2E" stroke-width="1.125" strokeMiterlimit="22.9256"/>
<path d="M86.2041 74.0454L106.296 67.6209M111.114 82.6897L91.0225 89.1142" stroke="#FFBE2E" stroke-width="1.125" strokeMiterlimit="22.9256"/>
<path d="M88.2119 80.3242L93.3891 78.6688M103.156 75.5455L108.298 73.9014M109.101 76.4128L103.752 78.1233M94.4052 81.1121L89.015 82.8357" stroke="#FFBE2E" stroke-width="1.125" strokeMiterlimit="22.9256"/>
<path d="M90.2762 72.7433C89.2024 71.9824 88.1448 70.3363 88.7331 69.0228M91.1957 68.2354C92.0352 68.5166 92.7907 69.1399 93.2816 69.8741" stroke="#FFBE2E" stroke-width="0.75" strokeMiterlimit="22.9256"/>
<path d="M96.7098 68.9155C96.6375 68.0055 96.8655 67.0105 97.3841 66.2565M99.9008 65.4517C101.109 66.2063 101.229 68.127 100.808 69.3756" stroke="#FFBE2E" stroke-width="0.75" strokeMiterlimit="22.9256"/>
<path d="M92.3412 72.0833C92.095 71.0253 92.9877 69.7588 94.4544 69.1586C95.6567 68.6667 97.8266 68.627 98.1953 70.2114" stroke="#FFBE2E" stroke-width="0.75" strokeMiterlimit="22.9256"/>
<path d="M106.258 67.6333C105.753 66.7476 104.376 66.3155 102.927 66.6556C102.144 66.8393 101.481 67.2158 101.027 67.6835" stroke="#FFBE2E" stroke-width="0.75" strokeMiterlimit="22.9256"/>
<path d="M88.9608 71.2541C87.5781 71.4485 86.334 72.7274 86.2039 74.0456" stroke="#FFBE2E" stroke-width="0.75" strokeMiterlimit="22.9256"/>
<path d="M107.003 84.0045C108.077 84.7654 109.134 86.4115 108.546 87.7249M105.246 88.78C104.512 88.5377 103.796 87.9889 103.309 87.3569" stroke="#FFBE2E" stroke-width="0.75" strokeMiterlimit="22.9256"/>
<path d="M100.57 87.8318C100.642 88.7418 100.414 89.7368 99.8958 90.4908M97.3791 91.2956C96.1705 90.5409 96.0505 88.6203 96.4723 87.3716" stroke="#FFBE2E" stroke-width="0.75" strokeMiterlimit="22.9256"/>
<path d="M104.94 84.6644C105.186 85.7224 104.293 86.9889 102.827 87.5891C101.624 88.081 99.4544 88.1207 99.0857 86.5363" stroke="#FFBE2E" stroke-width="0.75" strokeMiterlimit="22.9256"/>
<path d="M91.0225 89.1147C91.5273 90.0004 92.9048 90.4325 94.3536 90.0924C95.1364 89.9087 95.8002 89.5322 96.2543 89.0645" stroke="#FFBE2E" stroke-width="0.75" strokeMiterlimit="22.9256"/>
<path d="M108.32 85.4935C109.702 85.2991 110.946 84.0202 111.077 82.702" stroke="#FFBE2E" stroke-width="0.75" strokeMiterlimit="22.9256"/>
</g>
<circle cx="32" cy="75" r="23.5" fill="#3C2C0B" stroke="#FFBE2E"/>
<g clip-path="url(#clip1_4278_8488)">
<path d="M34.2755 61.543C35.273 61.7411 36.2477 61.0894 36.4461 60.0902C36.6442 59.0928 35.9925 58.1181 34.995 57.92C33.9976 57.7219 33.0211 58.3733 32.823 59.3707C32.6246 60.3699 33.2781 61.345 34.2755 61.543Z" stroke="#FFBE2E" stroke-width="1.2" strokeMiterlimit="10" stroke-linecap="round" stroke-linejoin="round"/>
<path d="M28.963 60.4878L39.5872 62.5977C45.9732 63.8659 46.0877 68.1188 43.3213 67.5694L23.6107 63.6551C20.8443 63.1057 22.5769 59.2196 28.963 60.4878Z" stroke="#FFBE2E" stroke-width="1.2" strokeMiterlimit="10" stroke-linecap="round" stroke-linejoin="round"/>
<path d="M42.2007 67.3467L41.6192 70.2748M24.1519 66.8059L24.7334 63.8779" stroke="#FFBE2E" stroke-width="1.2" strokeMiterlimit="10" stroke-linecap="round" stroke-linejoin="round"/>
<path d="M23.0796 66.5931L42.6894 70.4874C43.6104 70.6702 44.2151 71.5724 44.0322 72.4934L40.8167 88.6851C40.6338 89.6061 39.7299 90.2105 38.809 90.0276L19.1992 86.1333C18.2782 85.9504 17.6755 85.0468 17.8584 84.1259L21.0739 67.9341C21.2568 67.0132 22.1587 66.4102 23.0796 66.5931Z" stroke="#FFBE2E" stroke-width="1.2" strokeMiterlimit="10" stroke-linecap="round" stroke-linejoin="round"/>
<path d="M32.0957 76.0166L32.0992 76.0173" stroke="#FFBE2E" stroke-width="1.2" strokeMiterlimit="10" stroke-linecap="round" stroke-linejoin="round"/>
<path d="M29.3785 76.7341L29.375 76.7334" stroke="#FFBE2E" stroke-width="1.2" strokeMiterlimit="10" stroke-linecap="round" stroke-linejoin="round"/>
<path d="M24.6379 87.2134C27.0498 87.6924 29.3933 86.1239 29.8719 83.7138C30.3509 81.3019 28.7845 78.957 26.3726 78.478C23.9607 77.9991 21.6173 79.5675 21.1383 81.9794C20.6596 84.3895 22.226 86.7344 24.6379 87.2134Z" stroke="#FFBE2E" stroke-width="1.2" strokeMiterlimit="10" stroke-linecap="round" stroke-linejoin="round"/>
<path d="M25.3425 83.6742L25.3408 83.6738" stroke="#FFBE2E" stroke-width="1.2" strokeMiterlimit="10" stroke-linecap="round" stroke-linejoin="round"/>
<path d="M23.6597 81.7614L23.6562 81.7607" stroke="#FFBE2E" stroke-width="1.2" strokeMiterlimit="10" stroke-linecap="round" stroke-linejoin="round"/>
<path d="M33.3713 88.9478C35.7763 89.4254 38.1277 87.8531 38.6053 85.4482C39.0832 83.0415 37.511 80.69 35.106 80.2124C32.7011 79.7348 30.3497 81.3071 29.8717 83.7138C29.3941 86.1187 30.9664 88.4702 33.3713 88.9478Z" stroke="#FFBE2E" stroke-width="1.2" strokeMiterlimit="10" stroke-linecap="round" stroke-linejoin="round"/>
<path d="M26.6811 78.552C26.5793 78.0098 26.5785 77.4407 26.6924 76.8673C27.1714 74.4554 29.5145 72.8887 31.9264 73.3677C34.3383 73.8467 35.9049 76.1898 35.4259 78.6017C35.3121 79.1751 35.0922 79.7004 34.7926 80.1629" stroke="#FFBE2E" stroke-width="1.2" strokeMiterlimit="10" stroke-linecap="round" stroke-linejoin="round"/>
<path d="M34.1494 85.04L34.1528 85.0407" stroke="#FFBE2E" stroke-width="1.2" strokeMiterlimit="10" stroke-linecap="round" stroke-linejoin="round"/>
<path d="M36.4111 84.0298L36.4146 84.0305" stroke="#FFBE2E" stroke-width="1.2" strokeMiterlimit="10" stroke-linecap="round" stroke-linejoin="round"/>
<path d="M26.21 81.3105L26.2135 81.3112" stroke="#FFBE2E" stroke-width="1.2" strokeMiterlimit="10" stroke-linecap="round" stroke-linejoin="round"/>
</g>
<circle cx="65" cy="24" r="23.5" fill="#3C2C0B" stroke="#FFBE2E"/>
<g clip-path="url(#clip2_4278_8488)">
<mask id="mask0_4278_8488" style="mask-type:luminance" maskUnits="userSpaceOnUse" x="44" y="3" width="42" height="42">
<path d="M44.9868 13.4401L75.8609 3.89083L85.3165 34.4619L54.4424 44.0112L44.9868 13.4401Z" fill="white"/>
</mask>
<g mask="url(#mask0_4278_8488)">
<path d="M72.0671 29.1511C71.778 29.4207 71.3815 29.5433 70.9906 29.484L69.0905 29.1958C68.6997 29.1366 68.3032 29.2592 68.0141 29.5288L66.6086 30.8394C66.3195 31.109 65.923 31.2316 65.5321 31.1723L63.6322 30.8841C63.2414 30.8248 62.8449 30.9475 62.5557 31.2171L61.1505 32.5275C60.8614 32.7971 60.4649 32.9198 60.074 32.8604L58.1742 32.5723C57.7833 32.513 57.3868 32.6357 57.0977 32.9053L55.6923 34.2157C55.4031 34.4854 55.0066 34.608 54.6158 34.5486L52.5154 34.2301C52.1521 35.7264 52.6563 37.3023 53.8254 38.3089L55.0261 39.3427L56.8822 39.6243C57.2446 39.6793 57.6122 39.5656 57.8803 39.3156L59.1833 38.1006C59.4514 37.8506 59.819 37.7369 60.1814 37.7919L61.9428 38.0591C62.3051 38.1141 62.6728 38.0004 62.9409 37.7503L64.2437 36.5354C64.5118 36.2854 64.8794 36.1717 65.2418 36.2267L66.4495 36.4099L67.0032 36.4939C67.3656 36.5489 67.7332 36.4352 68.0013 36.1852L68.5341 35.6883L69.3044 34.9702C69.5724 34.7202 69.94 34.6065 70.3024 34.6615L72.0641 34.9286C72.4264 34.9836 72.794 34.8699 73.0621 34.6199L74.4354 33.3394L74.8428 31.8083C75.2394 30.3173 74.7658 28.732 73.6211 27.7021L72.0671 29.1511Z" stroke="#FFBE2E" stroke-width="1.2" strokeMiterlimit="10" stroke-linecap="round" stroke-linejoin="round"/>
<path d="M69.7466 24.3037L67.874 22.662" stroke="#FFBE2E" stroke-width="1.2" strokeMiterlimit="10" stroke-linecap="round" stroke-linejoin="round"/>
<path d="M54.4167 26.8137L52.5279 34.1783C52.1402 35.6899 52.6431 37.2906 53.8257 38.3088L56.4672 40.5833C57.6961 41.6414 59.3829 41.993 60.9321 41.5138L70.787 38.4657C72.3362 37.9865 73.53 36.744 73.9468 35.1769L74.8429 31.8082C75.2441 30.3001 74.7555 28.695 73.5821 27.6663L71.4038 25.7565L68.5 23" stroke="#FFBE2E" stroke-width="1.2" strokeMiterlimit="10" stroke-linecap="round" stroke-linejoin="round"/>
<path d="M55.3097 24.1452L56.8831 29.2325C57.0345 29.7219 57.554 29.9959 58.0434 29.8446C58.5328 29.6932 58.8068 29.1737 58.6554 28.6843L58.1562 27.0704C58.0076 26.5899 58.2547 26.0651 58.7296 25.8995C59.2282 25.7257 59.7673 26.0009 59.922 26.501L59.9422 26.5664C60.0936 27.0558 60.613 27.3298 61.1025 27.1785C61.5919 27.0271 61.8659 26.5076 61.7145 26.0182L60.6266 22.5007" stroke="#FFBE2E" stroke-width="1.2" strokeMiterlimit="10" stroke-linecap="round" stroke-linejoin="round"/>
<path d="M61.3052 24.6938L68.0499 22.6077C68.6556 22.4204 68.9947 21.7775 68.8074 21.1718C68.62 20.566 67.9771 20.2269 67.3714 20.4142L53.8822 24.5864C53.2765 24.7738 52.9373 25.4167 53.1246 26.0224C53.312 26.6281 53.9549 26.9673 54.5606 26.7799L55.9883 26.3383" stroke="#FFBE2E" stroke-width="1.2" strokeMiterlimit="10" stroke-linecap="round" stroke-linejoin="round"/>
<path d="M60.6575 12.0754C60.4791 11.4987 60.8021 10.8866 61.3787 10.7083L61.3787 10.7083C61.9554 10.5299 62.5675 10.8528 62.7458 11.4294L63.9587 15.351C64.1371 15.9276 63.8142 16.5397 63.2376 16.718L63.2375 16.7181C62.6609 16.8964 62.0488 16.5735 61.8704 15.9969" stroke="#FFBE2E" stroke-width="1.2" strokeMiterlimit="10" stroke-linecap="round" stroke-linejoin="round"/>
<path d="M58.2709 11.7569C58.0925 11.1803 58.4154 10.5681 58.9921 10.3898C59.5688 10.2114 60.1808 10.5343 60.3592 11.111L62.1687 16.9613C62.3471 17.538 62.0242 18.15 61.4475 18.3284C60.8708 18.5068 60.2587 18.1839 60.0804 17.6072" stroke="#FFBE2E" stroke-width="1.2" strokeMiterlimit="10" stroke-linecap="round" stroke-linejoin="round"/>
<path d="M54.3923 14.0134C54.2139 13.4368 53.6018 13.1139 53.0252 13.2923C52.4485 13.4706 52.1256 14.0827 52.304 14.6593L53.5169 18.5809C53.6952 19.1575 54.3073 19.4804 54.884 19.3021C55.4606 19.1237 55.7836 18.5116 55.6052 17.935" stroke="#FFBE2E" stroke-width="1.2" strokeMiterlimit="10" stroke-linecap="round" stroke-linejoin="round"/>
<path d="M55.1847 16.575L55.9036 18.8992C56.082 19.4759 56.694 19.7988 57.2707 19.6204C57.8474 19.442 58.1703 18.83 57.9919 18.2533" stroke="#FFBE2E" stroke-width="1.2" strokeMiterlimit="10" stroke-linecap="round" stroke-linejoin="round"/>
<path d="M56.1825 12.4028C56.0041 11.8262 55.3921 11.5033 54.8154 11.6817C54.2387 11.86 53.9158 12.4721 54.0941 13.0488L54.5352 14.4746" stroke="#FFBE2E" stroke-width="1.2" strokeMiterlimit="10" stroke-linecap="round" stroke-linejoin="round"/>
<path d="M58.2151 18.9749L55.9593 11.6816C55.7809 11.1048 56.1039 10.4928 56.6805 10.3144C57.2572 10.136 57.8693 10.4589 58.0476 11.0356L60.3035 18.329C60.4818 18.9057 60.159 19.5177 59.5822 19.6961C59.0056 19.8744 58.3935 19.5516 58.2151 18.9749Z" stroke="#FFBE2E" stroke-width="1.2" strokeMiterlimit="10" stroke-linecap="round" stroke-linejoin="round"/>
<path d="M63.7061 14.5352L75.9075 10.7613C76.5397 10.5657 76.8937 9.89466 76.6982 9.26246C76.5026 8.63026 75.8316 8.27625 75.1994 8.47178L62.9979 12.2457" stroke="#FFBE2E" stroke-width="1.2" strokeMiterlimit="10" stroke-linecap="round" stroke-linejoin="round"/>
</g>
</g>
<g opacity="0.5">
<circle cx="70.5" cy="91.5" r="2.5" fill="#978050"/>
<circle cx="31.5" cy="34.5" r="2.5" fill="#212121"/>
<circle cx="63.5" cy="61.5" r="1.5" fill="#978050"/>
<rect x="97.0244" y="25" width="2.37135" height="2.37135" transform="rotate(25.5971 97.0244 25)" fill="#CBC0A8"/>
<circle cx="99.5" cy="43.5" r="1.5" fill="#FFBE2E"/>
<rect x="124" y="80.4785" width="3.6884" height="3.6884" transform="rotate(-42.2204 124 80.4785)" fill="#FFBE2E"/>
<rect y="77.4785" width="3.6884" height="3.6884" transform="rotate(-42.2204 0 77.4785)" fill="#FFBE2E"/>
</g>
<defs>
<clipPath id="clip0_4278_8488">
<rect width="30" height="30" fill="white" transform="translate(79 66.1372) rotate(-17.7322)"/>
</clipPath>
<clipPath id="clip1_4278_8488">
<rect width="32" height="32" fill="white" transform="translate(19.4229 54.1899) rotate(11.2322)"/>
</clipPath>
<clipPath id="clip2_4278_8488">
<rect width="32.2278" height="32" fill="white" transform="translate(44.9863 13.4424) rotate(-17.1867)"/>
</clipPath>
</defs>
</svg>
