<svg width="188" height="188" viewBox="0 0 188 188" fill="none" xmlns="http://www.w3.org/2000/svg">
<g clip-path="url(#clip0_6225_140154)">
<g clip-path="url(#clip1_6225_140154)">
<path d="M0.160156 114.743L97.9982 58.7454L188.16 111.88L90.2168 167.816L0.160156 114.743Z" fill="#FFF7E4"/>
<path d="M0.160156 114.743L90.2168 167.816V169.986L0.160156 116.912V114.743Z" fill="#3C2C0B"/>
<path d="M188.16 111.88V114.049L90.2168 169.986V167.816L188.16 111.88Z" fill="#978050"/>
<g filter="url(#filter0_f_6225_140154)">
<path d="M108.292 140.696C108.292 138.368 104.744 136.471 100.361 136.471C98.5873 136.471 96.9625 136.787 95.6363 137.306C93.8447 136.972 91.9213 136.796 89.9276 136.796C86.0809 136.796 82.5327 137.455 79.652 138.579C77.7023 137.279 74.6986 136.445 71.3261 136.445C65.433 136.445 60.6641 138.983 60.6641 142.118C60.6641 145.254 65.4418 147.792 71.3261 147.792C71.8179 147.792 72.2922 147.766 72.7665 147.73C74.2332 152.069 81.3558 155.363 89.9364 155.363C99.5709 155.363 107.387 151.208 107.387 146.079C107.387 145.113 107.106 144.182 106.597 143.304C107.668 142.584 108.31 141.679 108.31 140.687L108.292 140.696Z" fill="black" fill-opacity="0.1"/>
</g>
<g filter="url(#filter1_f_6225_140154)">
<path d="M119.543 99.4262C119.543 94.2445 111.639 90.0376 101.899 90.0376C100.256 90.0376 98.6755 90.1606 97.1649 90.3801L81.8129 81.4658L70.4746 87.9737L85.1327 96.4928C84.5619 97.415 84.2545 98.3986 84.2545 99.4174C84.2545 104.599 92.1588 108.806 101.899 108.806C103.269 108.806 104.604 108.718 105.895 108.56L123.75 118.941L135.079 112.372L118.428 102.711C119.148 101.683 119.552 100.577 119.552 99.4174L119.543 99.4262Z" fill="black" fill-opacity="0.1"/>
</g>
<g filter="url(#filter2_f_6225_140154)">
<path d="M53.8474 107.77L40.6736 100.181L45.3108 97.529L43.0888 96.1765L25.7344 106.101L27.9476 107.48L36.089 102.816L49.219 110.422L41.1127 115.05L43.3259 116.438L60.6891 106.478L58.4671 105.126L53.8474 107.77Z" fill="black" fill-opacity="0.2"/>
</g>
<path d="M158.969 54.398C152.777 36.5342 130.197 23.2461 99.5371 19.3291V25.8458C130.197 29.7628 152.786 43.0509 158.969 60.9146L160.339 64.8756L161.753 65.0425V58.5258L160.339 58.3589L158.969 54.398Z" fill="white"/>
<path d="M99.5358 74.5717V73.184L99.0352 73.1226L99.5358 74.5717Z" fill="#D14A4A"/>
<path d="M158.969 60.9148C152.777 43.0422 130.188 29.763 99.5371 25.8459V74.5717C130.197 78.4888 152.786 91.7768 158.969 109.641L160.339 113.602L161.753 113.768V65.0426L160.339 64.8758L158.969 60.9148Z" fill="#FFBE2E"/>
<path d="M104.322 52.8171C107.633 53.3617 110.839 54.0204 113.93 54.7844V44.8689C110.839 44.1048 107.633 43.4461 104.322 42.9016V52.8171Z" fill="white"/>
<path d="M128.229 59.4041C131.742 60.8444 135.026 62.4516 138.047 64.2081V54.2926C135.026 52.5361 131.742 50.9289 128.229 49.4885V59.4041Z" fill="white"/>
<path d="M116.275 55.3904C119.551 56.2774 122.687 57.2786 125.664 58.4028V48.4873C122.678 47.3719 119.551 46.3619 116.275 45.4749V55.3904Z" fill="white"/>
<path d="M104.322 67.0889C107.633 67.6334 110.839 68.2921 113.93 69.0562V59.1406C110.839 58.3766 107.633 57.7179 104.322 57.1733V67.0889Z" fill="white"/>
<path d="M128.229 73.6758C131.742 75.1161 135.026 76.7233 138.047 78.4799V68.5643C135.026 66.8078 131.742 65.2006 128.229 63.7603V73.6758Z" fill="white"/>
<path d="M116.275 69.6624C119.551 70.5494 122.687 71.5506 125.664 72.6748V62.7593C122.678 61.6439 119.551 60.6339 116.275 59.7468V69.6624Z" fill="white"/>
<path d="M104.322 32.7666C118.831 35.1466 131.32 39.7048 140.823 45.8614V43.4901C131.311 37.3335 118.831 32.7841 104.322 30.3953V32.7666Z" fill="white"/>
<path d="M104.322 38.4838C118.831 40.8639 131.32 45.4221 140.823 51.5787V49.2074C131.311 43.0508 118.831 38.5014 104.322 36.1125V38.4838Z" fill="white"/>
<path d="M99.1758 17.8535L99.5359 19.329C130.196 23.246 152.785 36.5341 158.968 54.3979L160.338 58.3588L160.522 58.3324L162.147 58.5169L160.276 53.1244C153.979 34.9444 130.688 21.4895 99.1758 17.8535Z" fill="#978050"/>
<path d="M160.338 113.601L162.156 113.768V58.5255L160.338 58.3586V113.601Z" fill="#3C2C0B"/>
<path d="M99.0352 73.1223L99.5358 74.5715V19.329L99.0352 17.8799V73.1223Z" fill="#289999"/>
<path d="M112.174 46.2916C111.761 45.9403 110.479 46.8186 110.005 47.1699C109.294 47.082 108.38 46.5551 106.58 47.6617C106.439 47.7495 106.457 48.1623 106.799 48.0745C107.678 47.8725 108.222 47.9954 109.083 48.0569C108.933 48.2238 108.784 48.3906 108.652 48.5663C108.178 49.1108 108.178 49.3216 107.844 49.831C107.335 49.6729 106.509 49.91 106.053 50.1472C105.912 50.2174 105.956 50.437 106.097 50.4721C106.316 50.5336 106.545 50.5863 106.764 50.6478C107.66 50.9025 107.783 51.8246 108.011 52.2111C108.082 52.3252 108.284 52.3516 108.345 52.2111C108.573 51.7192 108.529 50.9815 108.38 50.4282C108.995 49.9627 109.636 49.3743 110.11 48.8385C110.646 49.708 110.734 50.4282 110.883 51.2625C110.91 51.4382 111.164 51.447 111.243 51.3065C111.753 50.437 111.735 48.9527 111.05 48.0218C111.603 47.4948 112.526 46.5726 112.183 46.2828L112.174 46.2916Z" fill="#212121"/>
<path d="M121.508 48.8209C121.508 48.8209 120.34 48.5223 119.945 48.6102C119.541 48.7068 119.356 49.304 119.295 50.0769C119.242 50.6829 119.225 51.3855 119.225 51.3855L123.133 52.4306C123.133 52.4306 123.08 51.1132 123.045 50.3842C123.01 49.6553 122.79 49.0932 121.499 48.8209H121.508Z" fill="#212121"/>
<path d="M123.117 52.009C122.52 51.7807 120.535 51.1659 119.288 50.9463C118.041 50.7268 118.163 53.1244 118.163 53.1244L123.749 54.6175C123.749 54.6175 124.013 52.3428 123.117 52.009Z" fill="#212121"/>
<path d="M118.488 52.6238C118.488 52.6238 118.233 54.4593 119.103 54.4506C119.893 54.4418 119.823 52.7467 119.823 52.7467L118.488 52.6238Z" fill="#212121"/>
<path d="M121.843 53.5286C121.843 53.5286 121.589 55.3641 122.458 55.3553C123.249 55.3466 123.178 53.6515 123.178 53.6515L121.843 53.5286Z" fill="#212121"/>
<path d="M121.237 49.3918C120.781 49.3128 120.394 49.2689 120.201 49.5148C119.815 49.989 119.911 50.999 119.911 50.999L122.353 51.6665C122.353 51.6665 122.669 50.5863 122.318 49.91C122.151 49.5851 121.676 49.4709 121.237 49.3918Z" fill="white"/>
<path d="M130.072 55.1707L130.52 57.5332C130.52 57.5332 132.558 58.4026 133.287 58.7188C133.831 58.9559 135.658 59.8869 135.658 59.8869L136.852 58.1128C136.852 58.1128 135.017 56.9974 132.312 55.9435C131.618 55.6713 130.871 55.4078 130.081 55.1707H130.072Z" fill="#212121"/>
<path d="M132.435 54.4504L131.398 55.882L135.254 57.7263C135.254 57.7263 135.351 56.0137 135.008 55.557C134.622 55.0389 132.444 54.4504 132.444 54.4504H132.435Z" fill="#212121"/>
<path d="M132.744 54.9949L132.164 55.7677L133.762 56.4352C133.762 56.4352 134.307 55.2583 132.744 54.9861V54.9949Z" fill="white"/>
<path d="M112.025 63.3386C111.77 63.3649 111.542 63.4703 111.331 63.6109C111.401 63.4001 112.148 61.4767 110.198 60.7302C109.46 60.4491 108.468 60.818 108.125 62.4955C108.037 62.917 107.888 63.2771 107.625 63.3737C107.625 63.3737 107.958 62.1178 106.904 61.8104C106.061 61.5733 105.227 62.6536 105.543 63.4879C105.798 64.1554 106.5 64.6296 107.247 64.4891C107.431 64.454 107.607 64.3749 107.774 64.2871C108.178 64.8141 108.863 65.1829 109.522 65.0863C109.75 65.0512 109.961 64.9634 110.163 64.8492C110.558 66.0524 113.175 66.1051 113.052 64.3574C113.008 63.7338 112.683 63.2771 112.025 63.3474V63.3386ZM107.291 63.2244C107.185 63.523 106.43 63.7514 106.246 63.5055C105.815 62.9434 106.158 62.4252 106.483 62.3023C107.264 62.0212 107.51 62.6184 107.291 63.2244ZM108.714 64.656C108.45 64.5594 108.204 64.3574 107.967 64.1642C108.125 64.05 108.389 63.8568 108.784 62.8819C109.364 61.4679 110.707 61.3537 110.83 63.1629C110.918 64.5594 109.32 64.8668 108.714 64.656ZM110.83 64.454C111.12 64.3222 111.19 63.8743 111.524 63.848C113.992 63.6372 111.665 66.553 110.83 64.454Z" fill="#212121"/>
<path d="M123.89 66.878C123.873 65.5342 123.425 64.4189 122.344 64.3574C121.738 64.3222 121.255 64.6209 120.737 64.8931C120.272 65.139 119.797 65.5342 119.235 65.464C118.015 65.3147 118.331 64.3047 118.41 63.6284C117.69 64.0412 117.409 65.5606 118.269 66.1139C118.77 66.4388 119.367 66.4301 119.92 66.2544C120.412 66.1051 120.825 65.7362 121.317 65.6045C122.283 65.341 123.073 65.8855 123.381 66.7462C123.284 66.7462 123.179 66.7375 123.082 66.7375C121.106 66.7989 119.894 68.8892 118.058 66.8955C117.734 67.9055 118.48 68.775 119.235 69.0385C119.815 69.2405 120.421 69.1527 120.983 68.9419C121.923 68.5906 123.706 67.0097 124.382 68.9419C124.452 69.1527 124.601 69.1175 124.716 68.898C125.234 67.9319 124.812 67.1502 123.89 66.8516V66.878Z" fill="#212121"/>
<path d="M129.687 69.8376C129.626 69.8815 129.679 69.9694 129.749 69.9606C132.155 69.4336 134.175 69.2843 136.178 70.9969C136.388 71.1814 136.336 70.9091 136.178 70.6895C134.728 68.6783 131.681 68.3885 129.696 69.8464L129.687 69.8376Z" fill="#212121"/>
<path d="M129.984 72.5075C129.923 72.5515 129.975 72.6393 130.046 72.6305C132.452 72.1035 134.472 71.9542 136.474 73.6668C136.685 73.8513 136.633 73.579 136.474 73.3595C135.025 71.3482 131.978 71.0584 129.993 72.5163L129.984 72.5075Z" fill="#212121"/>
<path d="M131.111 70.2417C130.549 70.2417 130.549 71.12 131.111 71.12C131.673 71.12 131.673 70.2417 131.111 70.2417Z" fill="#212121"/>
<path d="M132.867 72.8413C132.305 72.8413 132.305 73.7196 132.867 73.7196C133.429 73.7196 133.429 72.8413 132.867 72.8413Z" fill="#212121"/>
<path d="M133.181 70.2417C132.619 70.2417 132.619 71.12 133.181 71.12C133.743 71.12 133.743 70.2417 133.181 70.2417Z" fill="#212121"/>
<path d="M135.14 70.8477C134.578 70.8477 134.578 71.7259 135.14 71.7259C135.702 71.7259 135.702 70.8477 135.14 70.8477Z" fill="#212121"/>
<path d="M134.718 73.0696C134.156 73.0696 134.156 73.9478 134.718 73.9478C135.281 73.9478 135.281 73.0696 134.718 73.0696Z" fill="#212121"/>
<path d="M73.0127 88.4216C73.0127 88.5709 73.2235 88.6938 73.4869 88.6938C73.7504 88.6938 73.9612 88.5709 73.9612 88.4216L75.6826 79.112L74.5672 78.4182C74.5672 78.5763 73.0039 88.4304 73.0039 88.4304L73.0127 88.4216Z" fill="#978050"/>
<path d="M83.2002 94.2884C83.2002 94.4377 83.411 94.5606 83.6744 94.5606C83.9379 94.5606 84.1487 94.4377 84.1487 94.2884L84.5351 84.1006L83.4198 83.4067C83.4198 83.5648 83.1914 94.2884 83.1914 94.2884H83.2002Z" fill="#978050"/>
<path d="M90.9902 89.9058C90.9902 90.0551 91.201 90.178 91.4645 90.178C91.728 90.178 91.9388 90.0551 91.9388 89.9058L92.3252 79.718L91.2098 79.0242C91.2098 79.1823 90.9902 89.9058 90.9902 89.9058Z" fill="#978050"/>
<path d="M80.96 84.0302C80.96 84.1795 81.1707 84.3025 81.4342 84.3025C81.6977 84.3025 81.9085 84.1795 81.9085 84.0302L83.6299 74.7207L82.5145 74.0269C82.5145 74.1849 80.9512 84.039 80.9512 84.039L80.96 84.0302Z" fill="#978050"/>
<path d="M74.3477 77.8211L82.9985 72.8326V61.301L74.3477 66.2983V77.8211Z" fill="#DC9F18"/>
<path d="M73.5742 78.4183L74.3471 78.8222V66.2983L73.5742 65.8943V78.4183Z" fill="#3C2C0B"/>
<path d="M73.5742 65.8943L74.3471 66.2983L82.9979 61.301L82.2163 60.897L73.5742 65.8943Z" fill="#3C2C0B"/>
<path d="M74.3477 77.821L84.2808 83.5561L92.9228 78.5675L82.9985 72.8325L74.3477 77.821Z" fill="#FFBE2E"/>
<path d="M73.5742 78.4182L84.2802 84.5923V83.556L73.5742 77.3643V78.4182Z" fill="#3C2C0B"/>
<path d="M84.2793 84.5922L92.9214 79.6125V78.5674L84.2793 83.5559V84.5922Z" fill="#978050"/>
<path d="M102.276 98.3811C99.6146 98.3811 97.4629 99.5931 97.4629 101.086C97.4629 102.579 99.6146 103.791 102.276 103.791C104.937 103.791 107.089 102.579 107.089 101.086C107.089 99.5931 104.937 98.3811 102.276 98.3811Z" fill="#3C2C0B"/>
<path d="M107.089 100.287H97.4629V101.095H107.089V100.287Z" fill="#3C2C0B"/>
<path d="M102.276 97.7048C99.6146 97.7048 97.4629 98.9168 97.4629 100.41C97.4629 101.903 99.6146 103.115 102.276 103.115C104.937 103.115 107.089 101.903 107.089 100.41C107.089 98.9168 104.937 97.7048 102.276 97.7048Z" fill="#FFF7E4"/>
<path d="M102.283 98.2932C100.272 98.2932 98.6387 99.2154 98.6387 100.348C98.6387 101.481 100.272 102.403 102.283 102.403C104.295 102.403 105.928 101.481 105.928 100.348C105.928 99.2154 104.295 98.2932 102.283 98.2932Z" fill="#978050"/>
<path d="M102.793 75.9062H101.766V100.067H102.793V75.9062Z" fill="white"/>
<path d="M102.276 99.8301C101.995 99.8301 101.758 99.9618 101.758 100.12C101.758 100.278 101.986 100.41 102.276 100.41C102.566 100.41 102.794 100.278 102.794 100.12C102.794 99.9618 102.566 99.8301 102.276 99.8301Z" fill="white"/>
<path d="M102.275 89.528C111.394 89.528 118.786 85.3679 118.786 80.2361C118.786 75.1042 111.394 70.9441 102.275 70.9441C93.156 70.9441 85.7637 75.1042 85.7637 80.2361C85.7637 85.3679 93.156 89.528 102.275 89.528Z" fill="#FFBE2E"/>
<path d="M118.785 78.6465H116.01V80.5787H118.785V78.6465Z" fill="#FFBE2E"/>
<path d="M88.539 78.6465H85.7637V80.5787H88.539V78.6465Z" fill="#FFBE2E"/>
<path d="M102.275 69.7761C93.1498 69.7761 85.7637 73.9391 85.7637 79.0681C85.7637 84.1971 93.1586 88.3601 102.275 88.3601C111.391 88.3601 118.786 84.1971 118.786 79.0681C118.786 73.9391 111.391 69.7761 102.275 69.7761Z" fill="#BF8300"/>
<path d="M110.576 109.807C110.576 109.948 110.787 110.071 111.042 110.071C111.296 110.071 111.507 109.956 111.507 109.807L113.176 100.779L112.096 100.102C112.096 100.26 110.576 109.807 110.576 109.807Z" fill="#978050"/>
<path d="M120.631 105.618L122.414 116.473C122.414 116.614 122.625 116.737 122.879 116.737C123.134 116.737 123.345 116.622 123.345 116.473C123.345 116.473 121.711 105.1 121.711 104.942L120.631 105.618Z" fill="#978050"/>
<path d="M128.141 101.244L129.923 112.099C129.923 112.24 130.134 112.363 130.389 112.363C130.644 112.363 130.854 112.249 130.854 112.099C130.854 112.099 129.221 100.726 129.221 100.568L128.141 101.244Z" fill="#978050"/>
<path d="M118.287 105.548C118.287 105.688 118.498 105.811 118.753 105.811C119.007 105.811 119.218 105.697 119.218 105.548L120.887 96.519L119.806 95.8428C119.806 96.0009 118.287 105.548 118.287 105.548Z" fill="#978050"/>
<path d="M111.119 99.0836L121.5 105.082L129.888 100.243L119.507 94.2444L111.119 99.0836Z" fill="#FFBE2E"/>
<path d="M111.119 100.102L121.5 106.092V105.082L111.119 99.0835V100.102Z" fill="#3C2C0B"/>
<path d="M121.502 105.082V106.092L129.889 101.262V100.243V89.0627L121.502 93.9107V105.082Z" fill="#FFBE2E"/>
<path d="M120.746 105.662L121.501 106.057V93.9106L120.746 93.5154V105.662Z" fill="#3C2C0B"/>
<path d="M120.746 93.5155L121.501 93.9107L129.889 89.0627L129.133 88.6763L120.746 93.5155Z" fill="#3C2C0B"/>
<path d="M102.197 80.728L110.391 85.453L115.617 82.4318L107.432 77.7068L102.197 80.728Z" fill="white"/>
<path d="M95.5137 75.5903L101.635 79.1297L110.839 73.8162L104.735 70.2681L95.5137 75.5903Z" fill="white"/>
<path d="M95.5137 75.5903L101.635 79.1297V77.5049L95.5137 73.9568V75.5903Z" fill="#EFD3D3"/>
<path d="M110.25 73.5175L102.232 78.1986V77.1535L101.635 77.5048V79.1296L110.839 73.8161V65.7976L110.25 66.1401V73.5175Z" fill="#CCA3A3"/>
<path d="M95.5137 73.9568L101.635 77.5049L102.232 77.1536L96.0758 73.6143L95.5137 73.9568Z" fill="#DBB4B4"/>
<path d="M104.736 62.9609L110.252 66.1841L110.858 65.8416L105.298 62.6184L104.736 62.9609Z" fill="#DBB4B4"/>
<path d="M104.736 70.268L110.252 73.5176V66.1402L104.736 62.9609V70.268Z" fill="#EFD3D3"/>
<path d="M102.594 71.3308L107.907 74.3871L109.804 66.6848L104.482 63.646L102.594 71.3308Z" fill="#D14A4A"/>
<path d="M104.375 66.3598L108.696 68.7925L109.179 67.0185L104.823 64.5769L104.375 66.3598Z" fill="white"/>
<path d="M103.172 71.0673L107.528 73.5176L108.556 69.3722L104.199 66.9307L103.172 71.0673Z" fill="#978050"/>
<path d="M107.906 74.3871H108.266L110.146 66.6848H109.803L107.906 74.3871Z" fill="#978050"/>
<path d="M104.482 63.646L109.805 66.6848H110.147L104.816 63.646H104.482Z" fill="#EA6565"/>
<path d="M101.635 71.9631L106.957 75.0194L108.845 67.3171L103.523 64.2871L101.635 71.9631Z" fill="#54BEC6"/>
<path d="M103.418 66.9921L107.748 69.4249L108.222 67.6596L103.875 65.218L103.418 66.9921Z" fill="white"/>
<path d="M102.225 71.6996L106.572 74.1587L107.6 70.0133L103.252 67.5718L102.225 71.6996Z" fill="#3C2C0B"/>
<path d="M106.959 75.0195H107.31L109.19 67.3171H108.847L106.959 75.0195Z" fill="#3C2C0B"/>
<path d="M103.523 64.2871L108.846 67.3171H109.188L103.866 64.2871H103.523Z" fill="#6BDADD"/>
<path d="M100.51 73.9128L104.304 76.1084L106.201 68.4061L102.407 66.228L100.51 73.9128Z" fill="#D14A4A"/>
<path d="M102.566 67.6419L105.526 69.3194L105.675 68.7485L102.733 67.0798L102.566 67.6419Z" fill="white"/>
<path d="M102.258 68.6343L105.218 70.303L105.358 69.7322L102.425 68.0635L102.258 68.6343Z" fill="white"/>
<path d="M101.152 73.535L103.919 75.1071L104.946 70.9705L102.189 69.4072L101.152 73.535Z" fill="#978050"/>
<path d="M104.305 76.1083H104.665L106.544 68.406H106.202L104.305 76.1083Z" fill="#978050"/>
<path d="M102.408 66.228L106.202 68.4061H106.545L102.742 66.228H102.408Z" fill="#E05555"/>
<path d="M98.6211 75.2038L102.415 77.4082L104.303 69.6971L100.509 67.519L98.6211 75.2038Z" fill="#D14A4A"/>
<path d="M100.678 68.9329L103.629 70.6104L103.778 70.0395L100.836 68.3708L100.678 68.9329Z" fill="white"/>
<path d="M100.369 69.9254L103.32 71.5941L103.469 71.0232L100.527 69.3545L100.369 69.9254Z" fill="white"/>
<path d="M99.2637 74.8348L102.03 76.4069L103.058 72.2615L100.291 70.707L99.2637 74.8348Z" fill="#978050"/>
<path d="M102.416 77.4081H102.767L104.647 69.697H104.304L102.416 77.4081Z" fill="#978050"/>
<path d="M100.51 67.519L104.304 69.6971H104.646L100.844 67.519H100.51Z" fill="#EA6565"/>
<path d="M42.2559 114.804L43.4239 115.481L59.5839 106.154L58.407 105.477L42.2559 114.804Z" fill="#3C2C0B"/>
<path d="M42.2559 114.181L43.4239 114.857L59.5839 105.53L58.407 104.854L42.2559 114.181Z" fill="#978050"/>
<path d="M43.4238 115.481L59.5838 106.154V105.53L43.4238 114.857V115.481Z" fill="#3C2C0B"/>
<path d="M42.2559 114.804L43.4239 115.481V114.857L42.2559 114.181V114.804Z" fill="#978050"/>
<path d="M26.8594 105.829L28.0275 106.505L44.1874 97.1777L43.0105 96.5015L26.8594 105.829Z" fill="#352222"/>
<path d="M26.8594 105.196L28.0275 105.873L44.1874 96.5454L43.0105 95.8691L26.8594 105.196Z" fill="#978050"/>
<path d="M28.0293 106.505L44.1893 97.1778V96.5454L28.0293 105.873V106.505Z" fill="#3C2C0B"/>
<path d="M26.8594 105.829L28.0275 106.505V105.873L26.8594 105.196V105.829Z" fill="#978050"/>
<path d="M35.457 100.252L52.0912 109.851V108.077L35.457 98.4775V100.252Z" fill="#615130"/>
<path d="M52.0918 109.851L52.9086 109.429V107.655L52.0918 108.077V109.851Z" fill="#3C2C0B"/>
<path d="M35.457 98.4775L52.0912 108.077L52.908 107.655L36.2738 98.0559L35.457 98.4775Z" fill="#978050"/>
<path d="M36.8998 48.8735L36.0742 74.4923L36.8998 98.4688L51.5579 107.752L52.2869 107.348C52.2869 107.348 51.4613 88.7289 51.4613 82.5372C51.4613 76.3455 52.2869 57.7527 52.2869 57.7527L36.8998 48.8647V48.8735Z" fill="#3C2C0B"/>
<path d="M51.4521 58.2209C51.4508 58.2553 51.4497 58.3044 51.4473 58.3674C51.4421 58.5022 51.4345 58.7007 51.4248 58.9553C51.4054 59.4648 51.3781 60.1999 51.3447 61.0999C51.278 62.8996 51.1885 65.3617 51.0996 68.009C50.9218 73.3032 50.7441 79.3428 50.7441 82.3176C50.7441 85.5471 50.9218 91.9097 51.0996 97.4631C51.1885 100.24 51.278 102.815 51.3447 104.697C51.3781 105.637 51.4054 106.404 51.4248 106.936C51.4345 107.202 51.4421 107.409 51.4473 107.55C51.4477 107.562 51.4478 107.573 51.4482 107.583L36.2656 98.8137C36.2643 98.7778 36.2633 98.7247 36.2607 98.6555C36.2555 98.5157 36.247 98.3094 36.2373 98.0452C36.2179 97.5168 36.1906 96.7552 36.1572 95.8225C36.0905 93.9567 36.002 91.4058 35.9131 88.6653C35.7352 83.1834 35.5566 76.9448 35.5566 73.9124C35.5567 70.8798 35.7352 64.723 35.9131 59.3225C36.002 56.6226 36.0905 54.1119 36.1572 52.2766C36.1906 51.3592 36.2179 50.6105 36.2373 50.0911C36.247 49.8314 36.2555 49.6289 36.2607 49.4915C36.2613 49.476 36.2612 49.4613 36.2617 49.4475L51.4521 58.2209Z" fill="#FFF7E4" stroke="black" stroke-width="0.2"/>
<path d="M35.457 49.787L52.0912 59.3952V57.6211L35.457 48.0129V49.787Z" fill="#978050"/>
<path d="M52.0918 59.3951L52.9086 58.9735V57.1995L52.0918 57.621V59.3951Z" fill="#3C2C0B"/>
<path d="M35.457 48.0129L52.0912 57.621L52.908 57.1995L36.2738 47.5913L35.457 48.0129Z" fill="#978050"/>
<path d="M37.0137 79.0417L49.845 86.4454V85.3212L37.0137 77.9175V79.0417Z" fill="#6D6D6D"/>
<path d="M37.0137 81.3693L49.845 88.773V87.6488L37.0137 80.2451V81.3693Z" fill="#6D6D6D"/>
<path d="M37.0137 82.6074L37.365 98.1175L50.1875 105.521L49.845 90.0111L37.0137 82.6074Z" fill="#6D6D6D"/>
<path d="M37.1797 58.3149L50.011 65.7274V64.6032L37.1797 57.1995V58.3149Z" fill="#6D6D6D"/>
<path d="M37.1797 60.651L50.011 68.0547V66.9306L37.1797 59.5269V60.651Z" fill="#6D6D6D"/>
<path d="M43.5994 69.0824C42.0098 68.1602 40.7188 69.1351 40.7188 71.2605C40.7188 73.3859 42.0098 75.8538 43.5994 76.7672C45.1891 77.6893 46.4801 76.7145 46.4801 74.5891C46.4801 72.4637 45.1891 69.9958 43.5994 69.0824Z" fill="#6D6D6D"/>
<path d="M39.7702 70.1009C39.7702 68.0809 40.5167 66.7196 41.6673 66.2893C39.6033 65.6569 38.0488 67.1851 38.0488 70.1009C38.0488 73.4295 40.0688 77.2939 42.5631 78.7342C43.5379 79.2963 44.4513 79.4017 45.1891 79.1294C44.8992 79.0416 44.6006 78.9099 44.2845 78.7254C41.7902 77.2851 39.7702 73.4207 39.7702 70.0921V70.1009Z" fill="#6D6D6D"/>
<path d="M44.294 66.6847C43.3191 66.1226 42.4057 66.0172 41.668 66.2895C41.9578 66.3773 42.2564 66.509 42.5726 66.6935C45.0668 68.1338 47.0868 71.9981 47.0868 75.3267C47.0868 77.3467 46.3403 78.708 45.1898 79.1384C47.2537 79.7707 48.8082 78.2426 48.8082 75.3267C48.8082 71.9981 46.7882 68.1338 44.294 66.6935V66.6847Z" fill="#6D6D6D"/>
<path d="M43.3279 72.2266C43.3279 72.2266 42.3706 69.7411 42.4057 68.696C42.4497 67.6333 42.801 67.5191 42.9503 67.5191L41.8437 67.3786C41.8437 67.3786 40.9918 67.2117 40.9303 69.1527C40.8951 70.4525 42.4497 72.9555 42.4497 72.9555H41.6153C41.6153 72.9555 42.4145 74.0885 43.2225 74.7033C43.811 75.1424 44.7068 75.5201 44.7068 75.5201C44.7068 75.5201 44.9088 72.4022 44.1184 70.7775C43.7231 71.401 43.3104 72.2266 43.3104 72.2266H43.3279Z" fill="#212121"/>
<path d="M89.4272 142.03C86.8627 142.03 84.7812 143.198 84.7812 144.647C84.7812 146.097 86.8627 147.265 89.4272 147.265C91.9918 147.265 94.0732 146.097 94.0732 144.647C94.0732 143.198 91.9918 142.03 89.4272 142.03Z" fill="#3C2C0B"/>
<path d="M94.0732 143.866H84.7812V144.639H94.0732V143.866Z" fill="#EFD3D3"/>
<path d="M89.4272 141.372C86.8627 141.372 84.7812 142.54 84.7812 143.989C84.7812 145.438 86.8627 146.606 89.4272 146.606C91.9918 146.606 94.0732 145.438 94.0732 143.989C94.0732 142.54 91.9918 141.372 89.4272 141.372Z" fill="#FFF7E4"/>
<path d="M89.4339 141.934C87.4842 141.934 85.9121 142.821 85.9121 143.919C85.9121 145.017 87.493 145.904 89.4339 145.904C91.3749 145.904 92.9557 145.017 92.9557 143.919C92.9557 142.821 91.3749 141.934 89.4339 141.934Z" fill="#978050"/>
<path d="M89.9182 120.32H88.9258V143.655H89.9182V120.32Z" fill="white"/>
<path d="M89.4264 143.427C89.1541 143.427 88.9258 143.55 88.9258 143.708C88.9258 143.866 89.1453 143.989 89.4264 143.989C89.7074 143.989 89.927 143.866 89.927 143.708C89.927 143.55 89.7074 143.427 89.4264 143.427Z" fill="white"/>
<path d="M89.4277 115.525C80.6188 115.525 73.4785 119.547 73.4785 124.5C73.4785 129.454 80.6188 133.476 89.4277 133.476C98.2366 133.476 105.377 129.454 105.377 124.5C105.377 119.547 98.2366 115.525 89.4277 115.525Z" fill="#978050"/>
<path d="M105.368 122.972H102.689V124.834H105.368V122.972Z" fill="#978050"/>
<path d="M76.1572 122.972H73.4785V124.834H76.1572V122.972Z" fill="#978050"/>
<path d="M89.4277 114.4C80.6188 114.4 73.4785 118.423 73.4785 123.376C73.4785 128.33 80.6188 132.352 89.4277 132.352C98.2366 132.352 105.377 128.33 105.377 123.376C105.377 118.423 98.2366 114.4 89.4277 114.4Z" fill="#FFBE2E"/>
<path d="M81.909 118.44C81.224 118.44 80.6443 118.194 80.5214 117.861C80.4423 117.948 80.3984 118.054 80.3984 118.159C80.3984 118.59 81.0835 118.932 81.9178 118.932C82.638 118.932 83.2352 118.677 83.3933 118.335L83.4372 118.15C83.4372 118.045 83.3845 117.94 83.3055 117.852C83.1825 118.186 82.6116 118.44 81.909 118.44Z" fill="#978050"/>
<path d="M83.4374 118.142L83.5164 117.799H83.2617C83.3671 117.904 83.4286 118.019 83.4374 118.142Z" fill="#978050"/>
<path d="M80.3018 117.782L80.3984 118.212C80.3984 118.212 80.3896 118.168 80.3896 118.151C80.3896 118.019 80.4598 117.896 80.574 117.782H80.293H80.3018Z" fill="#978050"/>
<path d="M81.909 116.851C81.0131 116.851 80.293 117.237 80.293 117.711C80.293 118.186 81.0131 118.572 81.909 118.572C82.8048 118.572 83.525 118.186 83.525 117.711C83.525 117.237 82.8048 116.851 81.909 116.851Z" fill="white"/>
<path d="M83.3926 118.335C83.4189 118.273 83.4365 118.221 83.4365 118.159L83.3926 118.344V118.335Z" fill="#89AADB"/>
<path d="M81.9091 116.991C81.1275 116.991 80.4863 117.316 80.4863 117.711C80.4863 117.764 80.4951 117.808 80.5127 117.852C80.5302 117.826 80.5566 117.808 80.5742 117.782C80.8288 117.536 81.3295 117.369 81.9091 117.369C82.4888 117.369 83.0069 117.545 83.2616 117.79C83.2792 117.808 83.288 117.817 83.2968 117.834C83.3143 117.79 83.3231 117.747 83.3231 117.703C83.3231 117.299 82.6908 116.982 81.9003 116.982L81.9091 116.991Z" fill="#978050"/>
<path d="M80.584 117.79L83.2715 117.808C83.0168 117.562 82.5162 117.386 81.9189 117.386C81.3217 117.386 80.8387 117.553 80.584 117.799V117.79Z" fill="#3C2C0B"/>
<path d="M80.583 117.79C80.583 117.79 80.539 117.834 80.5215 117.861C80.6532 118.194 81.2241 118.44 81.9091 118.44C82.5942 118.44 83.1826 118.185 83.3056 117.852C83.2968 117.834 83.2792 117.825 83.2704 117.808L80.583 117.79Z" fill="#3C2C0B"/>
<path d="M81.9094 118.976C81.3561 118.976 80.9082 119.204 80.9082 119.485C80.9082 119.767 81.3561 119.995 81.9094 119.995C82.4627 119.995 82.9106 119.767 82.9106 119.485C82.9106 119.204 82.4627 118.976 81.9094 118.976Z" fill="#A0A0A0"/>
<path d="M81.9188 118.932C81.1196 118.932 80.4697 118.616 80.4082 118.221L80.7068 119.521C80.7683 119.845 81.2865 120.1 81.9188 120.1C82.5511 120.1 83.0605 119.845 83.1308 119.521L83.4031 118.335C83.245 118.677 82.6478 118.932 81.9276 118.932H81.9188Z" fill="#978050"/>
<path d="M95.5223 118.8C94.8373 118.8 94.2576 118.554 94.1347 118.221C94.0556 118.309 94.0117 118.414 94.0117 118.519C94.0117 118.95 94.6968 119.292 95.5311 119.292C96.2513 119.292 96.8485 119.037 97.0066 118.695L97.0505 118.511C97.0505 118.405 96.9978 118.3 96.9188 118.212C96.7958 118.546 96.2249 118.8 95.5223 118.8Z" fill="#978050"/>
<path d="M97.0604 118.51L97.1395 118.168H96.8848C96.9902 118.273 97.0516 118.388 97.0604 118.51Z" fill="#978050"/>
<path d="M93.915 118.15L94.0116 118.581C94.0116 118.581 94.0029 118.537 94.0029 118.519C94.0029 118.388 94.0731 118.265 94.1873 118.15H93.9062H93.915Z" fill="#978050"/>
<path d="M95.5222 117.211C94.6264 117.211 93.9062 117.597 93.9062 118.071C93.9062 118.546 94.6264 118.932 95.5222 118.932C96.4181 118.932 97.1382 118.546 97.1382 118.071C97.1382 117.597 96.4181 117.211 95.5222 117.211Z" fill="white"/>
<path d="M97.0137 118.695C97.04 118.633 97.0576 118.581 97.0576 118.519L97.0137 118.704V118.695Z" fill="#89AADB"/>
<path d="M95.5224 117.351C94.7407 117.351 94.0996 117.676 94.0996 118.071C94.0996 118.124 94.1084 118.168 94.126 118.212C94.1435 118.186 94.1699 118.168 94.1874 118.142C94.4421 117.896 94.9427 117.729 95.5224 117.729C96.102 117.729 96.6202 117.905 96.8749 118.151C96.8925 118.168 96.9013 118.177 96.91 118.194C96.9276 118.151 96.9364 118.107 96.9364 118.063C96.9364 117.667 96.304 117.343 95.5136 117.343L95.5224 117.351Z" fill="#978050"/>
<path d="M94.1953 118.151L96.8828 118.168C96.6281 117.922 96.1275 117.747 95.5303 117.747C94.933 117.747 94.45 117.913 94.1953 118.159V118.151Z" fill="#3C2C0B"/>
<path d="M94.1962 118.15C94.1962 118.15 94.1523 118.194 94.1348 118.221C94.2665 118.554 94.8374 118.8 95.5224 118.8C96.2075 118.8 96.7959 118.546 96.9188 118.212C96.9101 118.194 96.8925 118.186 96.8837 118.168L94.1962 118.15Z" fill="#3C2C0B"/>
<path d="M95.5207 119.336C94.9674 119.336 94.5195 119.565 94.5195 119.846C94.5195 120.127 94.9674 120.355 95.5207 120.355C96.074 120.355 96.522 120.127 96.522 119.846C96.522 119.565 96.074 119.336 95.5207 119.336Z" fill="#A0A0A0"/>
<path d="M95.5321 119.292C94.7329 119.292 94.083 118.976 94.0215 118.581L94.3201 119.881C94.3816 120.206 94.8997 120.46 95.5321 120.46C96.1644 120.46 96.6738 120.206 96.7441 119.881L97.0163 118.695C96.8583 119.038 96.261 119.292 95.5409 119.292H95.5321Z" fill="#978050"/>
<path d="M79.9785 125.045L84.9758 127.934L91.8965 123.991L86.8992 121.11L79.9785 125.045Z" fill="white"/>
<path d="M81.0312 124.948L85.0625 127.32L89.3659 124.869L85.3435 122.507L81.0312 124.948Z" fill="#CDCDCD"/>
<path d="M86.002 122.103L90.0332 124.474L90.9641 123.956L86.9329 121.585L86.002 122.103Z" fill="#CDCDCD"/>
<path d="M81.0586 121.356L86.0559 124.246L92.9853 120.302L87.9881 117.422L81.0586 121.356Z" fill="white"/>
<path d="M87.5039 118.256L91.5351 120.627L92.0006 120.364L87.9694 118.001L87.5039 118.256Z" fill="#CDCDCD"/>
<path d="M86.6719 118.739L90.6943 121.102L91.1598 120.838L87.1374 118.476L86.6719 118.739Z" fill="#CDCDCD"/>
<path d="M85.7852 119.24L89.8164 121.602L90.2818 121.347L86.2506 118.985L85.7852 119.24Z" fill="#CDCDCD"/>
<path d="M84.9492 119.714L88.9804 122.085L89.4459 121.822L85.4147 119.459L84.9492 119.714Z" fill="#CDCDCD"/>
<path d="M82.209 121.277L86.2314 123.648L88.6203 122.322L84.5891 119.951L82.209 121.277Z" fill="#CDCDCD"/>
<path d="M91.5439 114.216C90.7622 114.216 90.1211 114.857 90.1211 115.639V119.415H92.9666V115.639C92.9666 114.857 92.3255 114.216 91.5439 114.216Z" fill="#3C2C0B" fill-opacity="0.5"/>
<path d="M91.5439 118.669C90.7622 118.669 90.1211 118.967 90.1211 119.336C90.1211 119.705 90.7622 120.004 91.5439 120.004C92.3255 120.004 92.9666 119.705 92.9666 119.336C92.9666 118.967 92.3255 118.669 91.5439 118.669Z" fill="#3C2C0B"/>
<path d="M90.9033 114.506C90.9033 114.672 91.1931 114.804 91.5444 114.804C91.8958 114.804 92.1856 114.672 92.1856 114.506V114.119H90.8945V114.506H90.9033Z" fill="#978050"/>
<path d="M91.5433 113.733H90.7266V114.119C90.7266 114.33 91.0954 114.506 91.5433 114.506C91.9913 114.506 92.3601 114.33 92.3601 114.119V113.733H91.5433Z" fill="#978050"/>
<path d="M91.5433 113.355C91.0954 113.355 90.7266 113.531 90.7266 113.742C90.7266 113.952 91.0954 114.128 91.5433 114.128C91.9913 114.128 92.3601 113.952 92.3601 113.742C92.3601 113.531 91.9913 113.355 91.5433 113.355Z" fill="#D14A4A"/>
<path d="M91.6659 116.552C91.6659 116.552 91.499 116.552 91.4814 116.552C91.4726 116.552 91.4551 116.552 91.4463 116.552C90.7173 116.552 90.1289 116.271 90.1289 115.937V118.282C90.1289 118.282 90.1289 118.291 90.1289 118.3C90.1289 118.642 90.7173 118.915 91.4463 118.915C91.4551 118.915 91.4814 118.915 91.4814 118.915C91.4814 118.915 91.6483 118.915 91.6659 118.915C92.3948 118.915 92.9832 118.642 92.9832 118.3C92.9832 118.3 92.9832 118.291 92.9832 118.282V117.018V115.937C92.9832 116.28 92.3948 116.552 91.6659 116.552Z" fill="white"/>
</g>
</g>
<defs>
<filter id="filter0_f_6225_140154" x="58.6641" y="134.445" width="51.6465" height="22.9177" filterUnits="userSpaceOnUse" color-interpolation-filters="sRGB">
<feFlood flood-opacity="0" result="BackgroundImageFix"/>
<feBlend mode="normal" in="SourceGraphic" in2="BackgroundImageFix" result="shape"/>
<feGaussianBlur stdDeviation="1" result="effect1_foregroundBlur_6225_140154"/>
</filter>
<filter id="filter1_f_6225_140154" x="68.4746" y="79.4658" width="68.6055" height="41.4753" filterUnits="userSpaceOnUse" color-interpolation-filters="sRGB">
<feFlood flood-opacity="0" result="BackgroundImageFix"/>
<feBlend mode="normal" in="SourceGraphic" in2="BackgroundImageFix" result="shape"/>
<feGaussianBlur stdDeviation="1" result="effect1_foregroundBlur_6225_140154"/>
</filter>
<filter id="filter2_f_6225_140154" x="24.7344" y="95.1765" width="36.9551" height="22.2615" filterUnits="userSpaceOnUse" color-interpolation-filters="sRGB">
<feFlood flood-opacity="0" result="BackgroundImageFix"/>
<feBlend mode="normal" in="SourceGraphic" in2="BackgroundImageFix" result="shape"/>
<feGaussianBlur stdDeviation="0.5" result="effect1_foregroundBlur_6225_140154"/>
</filter>
<clipPath id="clip0_6225_140154">
<rect width="188" height="188" fill="white"/>
</clipPath>
<clipPath id="clip1_6225_140154">
<rect width="188" height="152.132" fill="white" transform="translate(0.160156 17.8535)"/>
</clipPath>
</defs>
</svg>
