<svg width="125" height="140" viewBox="0 0 125 140" fill="none" xmlns="http://www.w3.org/2000/svg">
<path d="M103.332 78.1929H110.61V136.281C110.61 137.036 109.998 137.649 109.243 137.649H59.6484" stroke="#212121" stroke-width="3.5" strokeMiterlimit="10" stroke-linecap="round" stroke-linejoin="round"/>
<path d="M59.6484 78.1929H93.488H105.134" stroke="#212121" stroke-width="4.10156" strokeMiterlimit="10" stroke-linecap="round" stroke-linejoin="round"/>
<path d="M101.432 129.155H90.0586C89.681 129.155 89.375 128.849 89.375 128.471V121.345C89.375 120.967 89.681 120.661 90.0586 120.661H101.432C101.81 120.661 102.116 120.967 102.116 121.345V128.471C102.116 128.849 101.81 129.155 101.432 129.155Z" stroke="#212121" stroke-width="3.5" strokeMiterlimit="10" stroke-linecap="round" stroke-linejoin="round"/>
<path d="M59.6484 78.1927L71.1875 66.6536C71.9567 65.8844 72.9998 65.4524 74.0879 65.4524H121.7C122.309 65.4524 122.615 66.1888 122.184 66.6194L110.61 78.1929" stroke="#212121" stroke-width="3.5" strokeMiterlimit="10" stroke-linecap="round" stroke-linejoin="round"/>
<path d="M59.6475 78.1927L48.1084 66.6536C47.3392 65.8844 46.2961 65.4524 45.2081 65.4524H5.12348C4.51454 65.4524 4.20938 66.1888 4.64005 66.6194L16.2136 78.1929" stroke="#212121" stroke-width="3.5" strokeMiterlimit="10" stroke-linecap="round" stroke-linejoin="round"/>
<path d="M27.213 95.6147L15.7484 107.079C15.4585 107.369 14.9887 107.369 14.6989 107.079L8.70434 101.085C8.12465 100.505 7.18512 100.505 6.60543 101.085L2.18477 105.506C1.60508 106.085 1.60508 107.025 2.18477 107.604L14.1739 119.594C14.7536 120.173 15.6931 120.173 16.2728 119.594L33.7321 102.134C34.3118 101.555 34.3118 100.615 33.7321 100.035L29.3114 95.6147C28.7323 95.0353 27.7927 95.0353 27.213 95.6147Z" stroke="#212121" stroke-width="3.5" strokeMiterlimit="10" stroke-linecap="round" stroke-linejoin="round"/>
<path d="M63.8952 59.0823C66.2406 59.0823 68.142 57.1809 68.142 54.8355C68.142 52.4901 66.2406 50.5887 63.8952 50.5887C61.5498 50.5887 59.6484 52.4901 59.6484 54.8355C59.6484 57.1809 61.5498 59.0823 63.8952 59.0823Z" stroke="#212121" stroke-width="3.5" strokeMiterlimit="10" stroke-linecap="round" stroke-linejoin="round"/>
<path d="M71.0205 10.2435H56.7676C56.0126 10.2435 55.4004 9.63129 55.4004 8.87633V3.11719C55.4004 2.36223 56.0126 1.75 56.7676 1.75H71.0205C71.7755 1.75 72.3877 2.36223 72.3877 3.11719V8.87633C72.3877 9.63156 71.7757 10.2435 71.0205 10.2435Z" stroke="#212121" stroke-width="3.5" strokeMiterlimit="10" stroke-linecap="round" stroke-linejoin="round"/>
<path d="M63.8945 1.75V10.2435" stroke="#212121" stroke-width="3.5" strokeMiterlimit="10" stroke-linecap="round" stroke-linejoin="round"/>
<path d="M63.8945 39.9714V35.7246" stroke="#212121" stroke-width="3.5" strokeMiterlimit="10" stroke-linecap="round" stroke-linejoin="round"/>
<path d="M66.8975 51.8322L77.4078 41.3218" stroke="#212121" stroke-width="3.5" strokeMiterlimit="10" stroke-linecap="round" stroke-linejoin="round"/>
<path d="M78.7578 54.8353H83.0048" stroke="#212121" stroke-width="3.5" strokeMiterlimit="10" stroke-linecap="round" stroke-linejoin="round"/>
<path d="M53.3838 44.3249L50.3809 41.3218" stroke="#212121" stroke-width="3.5" strokeMiterlimit="10" stroke-linecap="round" stroke-linejoin="round"/>
<path d="M49.0302 54.8353H44.7832" stroke="#212121" stroke-width="3.5" strokeMiterlimit="10" stroke-linecap="round" stroke-linejoin="round"/>
<path d="M89.3841 65.4523C90.7472 62.1839 91.4997 58.5975 91.4997 54.8353C91.4997 39.5898 79.1409 27.231 63.8954 27.231C48.6498 27.231 36.291 39.5898 36.291 54.8353C36.291 58.5975 37.0438 62.1839 38.4066 65.4523" stroke="#212121" stroke-width="3.5" strokeMiterlimit="10" stroke-linecap="round" stroke-linejoin="round"/>
<path d="M28.051 50.5222C27.8826 51.9364 27.7959 53.3758 27.7959 54.8354C27.7959 58.5304 28.3512 62.0957 29.3827 65.4524" stroke="#212121" stroke-width="4.10156" strokeMiterlimit="10" stroke-linecap="round" stroke-linejoin="round"/>
<path d="M98.4062 65.4525C99.4376 62.0957 99.993 58.5304 99.993 54.8354C99.993 34.8991 83.8315 18.7373 63.8949 18.7373C48.7366 18.7373 35.7606 28.0804 30.4114 41.3219C29.2058 44.1273 26.9313 52.6094 27.8883 57.668" stroke="#212121" stroke-width="3.5" strokeMiterlimit="10" stroke-linecap="round" stroke-linejoin="round"/>
<path d="M41.5486 26.4835L36.3331 21.2679C35.799 20.7339 34.9336 20.7339 34.3996 21.2679L30.3273 25.3403C29.7933 25.8743 29.7933 26.7397 30.3273 27.2737L35.5428 32.4893" stroke="#212121" stroke-width="3.5" strokeMiterlimit="10" stroke-linecap="round" stroke-linejoin="round"/>
<path d="M92.247 32.4893L97.4625 27.2737C97.9966 26.7397 97.9966 25.8743 97.4625 25.3403L93.3902 21.2679C92.8562 20.7339 91.9908 20.7339 91.4568 21.2679L86.2412 26.4835" stroke="#212121" stroke-width="3.5" strokeMiterlimit="10" stroke-linecap="round" stroke-linejoin="round"/>
<path d="M59.6484 10.2437V18.9849" stroke="#212121" stroke-width="3.5" strokeMiterlimit="10" stroke-linecap="round" stroke-linejoin="round"/>
<path d="M68.1416 18.9849V10.2437" stroke="#212121" stroke-width="3.5" strokeMiterlimit="10" stroke-linecap="round" stroke-linejoin="round"/>
<path d="M16.2139 106.613V78.1929H59.6475V137.649H17.5811C16.8261 137.649 16.2139 137.036 16.2139 136.281V133.128V123.02" stroke="#212121" stroke-width="3.5" strokeMiterlimit="10" stroke-linecap="round" stroke-linejoin="round"/>
<path d="M16.2727 119.593C16.2535 119.612 16.2338 119.631 16.2139 119.649V123.285" stroke="#212121" stroke-width="4.10156" strokeMiterlimit="10" stroke-linecap="round" stroke-linejoin="round"/>
</svg>
