<svg width="50" height="59" viewBox="0 0 50 59" fill="none" xmlns="http://www.w3.org/2000/svg">
<g clip-path="url(#clip0_7067_15188)">
<path d="M7.37631 48.7337C3.18731 45.3117 0.945312 40.3557 0.945312 34.4557V6.43069C7.61231 2.94969 15.5773 1.17969 24.7813 1.17969C33.9853 1.17969 41.9503 2.94969 48.6173 6.48969V34.5147C48.6173 40.4147 46.3753 45.3707 42.1863 48.7927C38.3513 51.8607 26.1973 57.2297 24.7813 57.8197C23.3653 57.2297 11.2113 51.8607 7.37631 48.7337Z" fill="#330000"/>
<path d="M47.318 6.136C44.25 5.841 41.064 5.664 37.819 5.664C25.783 5.664 12.921 8.26 2.301 17.995V34.692C2.301 40.12 4.307 44.663 8.142 47.79C11.505 50.504 21.889 55.224 24.839 56.522C27.73 55.224 38.055 50.622 41.536 47.79C45.371 44.604 47.377 40.179 47.377 34.692V6.136M4.484 32.922V19.352H8.791V33.099C8.791 34.338 9.086 36.108 11.092 36.108C11.8 36.108 12.508 35.931 13.157 35.577V19.411H17.464V38.114C15.517 39.353 13.275 39.943 10.974 39.825C6.667 39.825 4.484 37.524 4.484 32.922ZM23.954 48.616H19.647V20.473C21.417 19.411 23.423 18.88 25.488 18.939C30.621 18.939 33.453 22.833 33.453 29.146C33.453 35.459 30.68 39.766 25.901 39.766C25.252 39.766 24.603 39.707 23.954 39.53V48.616ZM23.954 35.99C24.426 36.167 24.898 36.226 25.37 36.226C27.848 36.226 29.028 33.925 29.028 29.205C29.028 24.367 27.966 22.361 25.488 22.361C24.957 22.361 24.426 22.479 23.954 22.656V35.99ZM34.397 24.603C34.456 21.476 37.052 18.939 40.179 18.998C41.89 18.88 43.542 19.411 44.899 20.414V24.19C43.896 23.128 42.48 22.479 41.064 22.42C39.825 22.42 38.586 22.951 38.527 24.485C38.468 26.078 39.766 26.668 41.359 27.612C44.958 29.736 45.666 31.624 45.548 34.161C45.489 36.934 43.542 39.943 39.294 39.943C37.642 39.943 35.99 39.471 34.574 38.586V34.633C35.695 35.636 37.17 36.285 38.704 36.403C40.297 36.403 41.3 35.518 41.3 33.984C41.241 32.627 40.474 31.919 38.586 30.798C35.046 28.556 34.397 26.845 34.397 24.603ZM6.667 49.501C2.301 45.961 0 40.828 0 34.692V5.487C6.903 1.829 15.222 0 24.78 0C34.338 0 42.657 1.829 49.56 5.487V34.692C49.56 40.828 47.259 45.961 42.893 49.56C38.881 52.805 26.255 58.41 24.78 59C23.305 58.351 10.679 52.805 6.667 49.501ZM40.592 55.637V58.174H41.064V57.112H41.123C41.182 57.171 41.831 58.174 41.831 58.174H42.362C42.362 58.174 41.654 57.171 41.595 57.053C41.949 56.994 42.185 56.699 42.185 56.404C42.185 55.932 41.772 55.578 41.359 55.637H40.592ZM41.3 55.991C41.713 55.991 41.772 56.168 41.772 56.345C41.772 56.581 41.654 56.758 41.182 56.758H41.123V55.991H41.3ZM43.07 56.935C43.07 58.469 41.241 59.236 40.12 58.115C38.999 56.994 39.825 55.165 41.359 55.165C42.303 55.224 43.07 55.991 43.07 56.935ZM41.359 54.811C39.53 54.811 38.586 57.053 39.884 58.351C41.182 59.649 43.424 58.764 43.424 56.876C43.424 55.755 42.48 54.811 41.359 54.811Z" fill="#FFBE00"/>
</g>
<defs>
<clipPath id="clip0_7067_15188">
<rect width="49.56" height="59" fill="white"/>
</clipPath>
</defs>
</svg>
