<svg width="64" height="64" viewBox="0 0 64 64" fill="none" xmlns="http://www.w3.org/2000/svg">
<path d="M46.9212 63.0626H4.01712C2.31625 63.0626 0.9375 61.6837 0.9375 59.9829C0.9375 58.2821 2.31637 56.9033 4.01712 56.9033H59.572C61.2729 56.9033 62.6516 58.2822 62.6516 59.9829C62.6516 61.6838 61.2727 63.0626 59.572 63.0626H51.3181" stroke="#212121" stroke-width="1.875" strokeMiterlimit="10" stroke-linecap="round" stroke-linejoin="round"/>
<path d="M53.9824 32.7802V56.9039H9.60742V30.1827C9.60742 29.0014 10.5662 28.0439 11.7474 28.0439H34.8949" stroke="#212121" stroke-width="1.875" strokeMiterlimit="10" stroke-linecap="round" stroke-linejoin="round"/>
<path d="M42.8923 16.355V2.66625C42.8923 1.71125 42.1185 0.9375 41.1635 0.9375H22.426C21.471 0.9375 20.6973 1.71125 20.6973 2.66625V21.4019C20.6973 22.3569 21.471 23.1319 22.426 23.1319H31.276H35.3573" stroke="#212121" stroke-width="1.875" strokeMiterlimit="10" stroke-linecap="round" stroke-linejoin="round"/>
<path d="M34.1797 0.9375H29.4102V7.64388H34.1797V0.9375Z" stroke="#212121" stroke-width="1.875" strokeMiterlimit="10" stroke-linecap="round" stroke-linejoin="round"/>
<path d="M45.3746 37.2105C51.2148 37.2105 55.9493 32.4761 55.9493 26.6358C55.9493 20.7955 51.2148 16.061 45.3746 16.061C39.5343 16.061 34.7998 20.7955 34.7998 26.6358C34.7998 32.4761 39.5343 37.2105 45.3746 37.2105Z" stroke="#212121" stroke-width="1.875" strokeMiterlimit="10" stroke-linecap="round" stroke-linejoin="round"/>
<path d="M40.0029 26.1583L43.9026 30.0579L50.7476 23.2129" stroke="#212121" stroke-width="1.875" strokeMiterlimit="10" stroke-linecap="round" stroke-linejoin="round"/>
<path d="M50.6116 35.8238V53.5338H12.9766V31.4126H35.9378" stroke="#212121" stroke-width="1.875" strokeMiterlimit="10" stroke-linecap="round" stroke-linejoin="round"/>
<path d="M22.7725 38.834H16.9932V48.1517H22.7725V38.834Z" stroke="#212121" stroke-width="1.875" strokeMiterlimit="10" stroke-linecap="round" stroke-linejoin="round"/>
<path d="M34.6837 38.834H28.9043V48.1517H34.6837V38.834Z" stroke="#212121" stroke-width="1.875" strokeMiterlimit="10" stroke-linecap="round" stroke-linejoin="round"/>
<path d="M46.5958 43.4927H40.8164V48.1515H46.5958V43.4927Z" stroke="#212121" stroke-width="1.875" strokeMiterlimit="10" stroke-linecap="round" stroke-linejoin="round"/>
<path d="M22.7725 43.4927H28.9048" stroke="#212121" stroke-width="1.875" strokeMiterlimit="10" stroke-linecap="round" stroke-linejoin="round"/>
<path d="M34.6846 43.4927H40.8169" stroke="#212121" stroke-width="1.875" strokeMiterlimit="10" stroke-linecap="round" stroke-linejoin="round"/>
</svg>
