<svg width="64" height="64" viewBox="0 0 64 64" fill="none" xmlns="http://www.w3.org/2000/svg">
<rect y="27" width="49" height="37" rx="2" fill="white"/>
<g clip-path="url(#clip0_18_224347)">
<path d="M27.1176 18.9048C26.1207 17.874 25.7355 15.7216 26.0754 14.6341C26.3473 13.4673 28.1031 13.8412 27.8652 15.0193C27.65 15.7103 27.8992 17.081 28.5223 17.738C29.2812 18.6783 27.9105 19.8111 27.1176 18.9048ZM27.4688 24.6482C26.5398 25.1127 24.4668 29.3154 26.6418 29.5533C27.1629 29.5533 27.582 29.1115 27.5594 28.5904C27.4461 27.6841 28.0805 26.4494 28.6695 26.0302C29.5645 25.2373 28.3977 23.8779 27.4688 24.6482ZM23.7531 20.4341C22.7789 19.8564 20.5812 19.7431 19.3578 20.4681C18.4969 20.8759 18.8254 22.224 19.7656 22.2013C20.3094 22.1334 20.7965 21.7595 21.3629 21.7709C22.0426 21.7255 22.609 21.9068 22.9602 22.0767C24.059 22.5865 24.8293 20.9666 23.7531 20.4341ZM60.8867 25.6224V58.9158C60.8867 59.8787 60.0711 60.6376 59.0176 60.6376H37.7887C37.0297 60.6376 36.282 60.4677 35.6363 60.1619L32.1133 58.4853C32.034 58.474 31.9434 58.474 31.8641 58.4853L28.341 60.1732C27.6953 60.4791 26.959 60.649 26.2 60.649H4.98242C3.94023 60.649 3.11328 59.89 3.11328 58.9271V25.6224C3.11328 24.6709 3.95156 23.8892 4.98242 23.8892H6.95352V20.6041C6.95352 20.1962 7.22539 19.8337 7.62187 19.7205C9.26445 19.2787 11.0316 18.8935 12.7648 18.9162C11.7113 16.8318 12.8895 14.0791 15.1098 13.3767C14.2035 10.7599 16.3898 7.87124 19.1652 8.07515C19.3918 5.77554 21.816 4.06499 24.059 4.6314C25.5996 2.8982 28.6922 2.94351 30.1082 4.82398C30.3914 4.22359 31.0258 3.84976 31.6828 3.86109L35.8176 3.9064C36.7691 3.9064 37.5508 4.68804 37.5508 5.65093L37.5168 8.95874C38.2871 9.20796 39.0348 9.52515 39.7598 9.91031L42.1047 7.6107C42.7844 6.94234 43.8945 6.94234 44.5629 7.62203L47.4516 10.5787C48.1312 11.2244 48.1086 12.4025 47.4289 13.0482L45.084 15.3478C45.4578 16.0728 45.7637 16.8318 45.9902 17.6021L49.2754 17.6361C50.023 17.6248 50.7367 18.1685 50.9293 18.8935C52.7871 18.8482 54.6223 19.222 56.3781 19.7091C56.7746 19.8224 57.0465 20.1849 57.0465 20.5927V23.8779H59.0176C60.0484 23.8892 60.8867 24.6595 60.8867 25.6224ZM8.77734 55.5287H25.9395L26.3359 55.3361C20.7852 53.1611 14.566 52.5834 8.77734 54.0107V55.5287ZM26.1434 57.3525H7.85977C7.35 57.3525 6.94219 56.9447 6.94219 56.4349C6.94219 55.4494 6.94219 27.5595 6.94219 25.713H4.98242C4.97109 25.713 4.95977 25.713 4.94844 25.713V58.7912C4.98242 58.8025 26.1773 58.7912 26.2113 58.7912C27.2535 58.8818 29.3605 57.5677 30.2895 57.1939C29.7117 56.8654 29.134 56.5595 28.5336 56.2877M31.0824 55.54L31.0711 38.6611C30.7313 38.5931 30.4254 38.4459 30.1648 38.2193C30.1309 38.2193 30.0855 38.208 30.0402 38.208C28.1031 41.6291 22.8469 40.4962 22.4957 36.5541C20.1281 36.9505 17.7945 34.9001 17.8852 32.4873C14.9285 32.4533 12.9801 29.0095 14.4867 26.472C12.493 25.4412 11.802 22.5978 13.0934 20.7287C11.6434 20.706 10.1707 20.9552 8.77734 21.3064V52.1189C16.2992 50.4084 24.3648 51.813 31.0824 55.54ZM31.6262 35.0701C31.5582 27.1857 31.5016 17.9646 31.4336 10.0802C31.2977 8.09781 28.307 8.57359 28.7375 10.5787C28.8621 11.1337 28.409 11.6775 27.8426 11.6775C27.4121 11.6775 27.0383 11.383 26.9477 10.9412C26.5625 9.27593 27.6047 7.49742 29.1906 7.10093C28.9867 5.09585 26.2 4.48413 25.1465 6.18335C24.9086 6.55718 24.4328 6.70445 24.025 6.5232C23.2207 6.17202 22.2125 6.3646 21.5895 7.01031C20.2754 8.27906 21.1137 10.8505 23.0961 11.0318C24.2969 11.1791 24.093 12.9576 22.9035 12.8556C21.3062 12.8216 19.6184 11.1677 19.3465 9.92163C18.0098 9.64976 16.707 10.7373 16.7297 12.108C16.7297 13.5919 18.259 14.6908 19.777 14.6455C20.9664 14.6681 20.9891 16.424 19.7996 16.4693C18.4289 16.5033 17.0922 15.9595 16.1406 14.9853C13.909 15.2232 13.5125 18.3951 15.5742 19.222C16.2992 19.5052 16.2992 20.6154 15.5742 20.8986C13.7051 21.6576 13.875 24.5009 15.8008 25.0334C16.3445 24.6709 17.1941 24.2517 18.293 24.1611C19.3918 24.0705 20.2754 24.3537 20.8305 24.5916C21.918 25.1013 21.193 26.7326 20.0941 26.2681C18.4516 25.4412 15.6988 26.438 15.7781 28.4431C15.7555 29.8931 17.3301 31.0373 18.7008 30.5162C19.4031 30.2556 20.1281 31.0033 19.8563 31.6943C19.743 31.9888 19.6977 32.272 19.6977 32.5212C19.6523 34.0732 21.4195 35.206 22.8129 34.5376C23.1187 33.5634 25.577 31.0712 26.4379 32.8158C26.6078 33.2916 26.3586 33.8127 25.8715 33.9826C25.6109 34.0732 25.3617 34.2091 25.1465 34.3904C23.4813 35.7158 24.4441 38.4119 26.4945 38.3892C27.4688 38.3892 28.3297 37.7662 28.6129 36.8373C28.7602 36.3388 29.3492 36.0556 29.8363 36.2595C30.0516 36.3502 30.2555 36.3728 30.4934 36.3502C31.1391 36.3275 31.6602 35.7158 31.6262 35.0701ZM32.9062 36.8712L35.3871 36.8939L35.4324 32.997C35.4324 32.5779 35.727 32.2154 36.1348 32.1134C37.2336 31.8529 38.2645 31.4337 39.216 30.8787C39.5785 30.6634 40.043 30.7201 40.3375 31.0259L43.0676 33.8127L45.8996 31.0486L43.1695 28.2505C42.875 27.9447 42.8297 27.4916 43.0449 27.1291C43.6227 26.1888 44.0645 25.158 44.3477 24.0705C44.4496 23.6627 44.8234 23.3794 45.2426 23.3908L49.1395 23.4361C49.1395 23.4248 49.1734 19.8111 49.1734 19.7998V19.4826L45.2766 19.4373C44.8574 19.4373 44.4949 19.1427 44.393 18.7349C44.1437 17.6587 43.7246 16.6279 43.1469 15.6537C42.9316 15.2912 42.9996 14.838 43.2941 14.5435L46.0809 11.8134L43.3168 8.9814L40.5301 11.7115C40.2242 12.006 39.7711 12.0513 39.4086 11.8361C38.457 11.247 37.4375 10.8052 36.3613 10.5334C35.9535 10.4314 35.6703 10.0576 35.6703 9.63843L35.7156 5.73023L31.7508 5.68492L31.7281 7.40679C32.657 7.95054 33.2574 8.97007 33.2574 10.0576L33.2914 14.0111C43.2375 14.0904 43.3621 28.3298 33.4047 28.5564L33.45 35.0701C33.45 35.7271 33.2574 36.3502 32.9062 36.8712ZM33.3934 26.7439C40.9039 26.7099 40.8246 15.8009 33.3141 15.8576L33.3934 26.7439ZM32.9176 55.54C39.6352 51.813 47.6895 50.4084 55.2227 52.1189V21.3064C53.852 20.9666 52.4473 20.706 50.9973 20.7287L50.9633 23.5267C50.9973 24.4669 50.1137 25.2826 49.1961 25.2599L45.9109 25.2259C45.6617 26.0076 45.3445 26.7552 44.9594 27.4689L47.259 29.8252C47.9273 30.4709 47.916 31.649 47.2363 32.2834L44.2797 35.172C43.634 35.863 42.4445 35.8291 41.8102 35.138L39.5105 32.7931C38.7969 33.1669 38.0379 33.4728 37.2449 33.6994L37.2109 36.9845C37.2336 37.9134 36.4066 38.7291 35.4777 38.7064C35.4438 38.7064 32.9742 38.6837 32.9402 38.6837L32.9176 55.54ZM40.1223 54.4865C39.2953 54.7244 38.4684 55.0189 37.6527 55.3361L38.0492 55.5287H55.2227V54.0107C50.2723 52.7873 45.0047 53.0365 40.1223 54.4865ZM59.0629 25.7244C59.0516 25.7244 59.0402 25.7244 59.0289 25.7244H57.0578C57.0691 27.4576 57.0465 55.5626 57.0578 56.4462C57.0578 56.956 56.65 57.3638 56.1402 57.3638H37.8566C37.4715 57.3638 35.8516 56.5029 35.4777 56.3103C34.8773 56.5935 34.2883 56.888 33.7219 57.2166C34.6621 57.5904 36.7352 58.9044 37.8 58.8138C37.8113 58.8138 59.0629 58.8252 59.0629 58.8138V25.7244Z" fill="black"/>
</g>
<defs>
<clipPath id="clip0_18_224347">
<rect width="58" height="58" fill="white" transform="translate(3 3)"/>
</clipPath>
</defs>
</svg>
