<svg width="64" height="64" viewBox="0 0 64 64" fill="none" xmlns="http://www.w3.org/2000/svg">
<g clip-path="url(#clip0_18_224304)">
<path d="M22.0003 52.1988C20.0782 55.244 17.5936 57.8391 14.4163 60.1193C11.4269 57.965 8.93811 55.3648 7.01605 52.3846C3.16056 46.3614 2.52779 40.2886 2.56392 36.7397C7.50946 35.9996 11.7892 32.8326 14.376 29.8804C15.592 31.3947 17.4253 33.1919 20.0411 34.6401C22.6393 36.1111 24.998 36.6231 26.4359 36.7996C26.4039 40.8915 25.5492 46.6143 22.0003 52.1988Z" fill="white"/>
<circle cx="36" cy="13" r="12" fill="white"/>
<path d="M48.8258 23.905C51.1339 21.3636 52.5615 17.9262 52.5615 14.1378C52.5625 6.34323 46.5496 0 39.1576 0C31.7667 0 25.7538 6.34323 25.7538 14.1378C25.7538 17.9355 27.1876 21.3801 29.506 23.9226C25.9747 25.5886 23.0462 28.3437 21.0838 31.8472C20.0578 30.8594 19.3331 29.9283 18.8975 29.2924C18.7096 29.0178 18.402 28.8516 18.0707 28.8434C17.7486 28.864 17.4234 28.9889 17.2232 29.2521C14.9202 32.2963 10.3628 36.0114 5.09931 36.4625C4.58318 36.5068 4.17854 36.927 4.15583 37.4452C3.99789 41.0498 4.40667 48.1414 8.90938 55.1742C11.0792 58.5383 13.9127 61.4452 17.3316 63.8163C17.5071 63.9381 17.7135 64 17.92 64C17.9623 64 18.0046 63.9969 18.0459 63.9917C18.2895 64.0206 18.5476 63.9628 18.7592 63.8163C22.3927 61.2975 25.2108 58.4052 27.3744 54.977C28.066 53.889 28.6544 52.7959 29.1674 51.7099H58.8387C59.4085 51.7099 59.8709 51.2485 59.8709 50.6777V41.7404C59.8709 34.0335 55.4787 27.0276 48.8258 23.905ZM39.1576 2.06452C45.411 2.06452 50.498 7.48077 50.498 14.1378C50.498 20.7948 45.411 26.2111 39.1576 26.2111C32.9052 26.2111 27.8183 20.7948 27.8183 14.1378C27.8183 7.48077 32.9052 2.06452 39.1576 2.06452ZM36.3602 27.9618C37.2634 28.1652 38.1987 28.2766 39.1576 28.2766C40.1176 28.2766 41.0529 28.1652 41.9561 27.9618V38.8067L39.1576 42.5775L36.3602 38.8067V27.9618ZM25.6299 53.8725C23.7078 56.9177 21.2232 59.5128 18.0459 61.793C15.0565 59.6387 12.5677 57.0384 10.6456 54.0583C6.79015 48.0351 6.15738 41.9623 6.19351 38.4134C11.1391 37.6733 15.4188 34.5063 18.0056 31.5541C19.2216 33.0684 21.0549 34.8655 23.6707 36.3138C26.2689 37.7848 28.6276 38.2968 30.0655 38.4733C30.0335 42.5652 29.1788 48.288 25.6299 53.8725ZM57.8064 49.6454H50.4051V45.9664H48.3406V49.6444H30.049C31.8142 45.0405 32.194 40.6937 32.1249 37.5019C32.1125 36.9569 31.68 36.5151 31.1349 36.4924C30.176 36.4532 27.6273 36.1806 24.6843 34.5135C24.6812 34.5115 24.6782 34.5105 24.6751 34.5084C23.9432 34.1037 23.2867 33.665 22.69 33.217C24.5749 29.663 27.5385 26.9223 31.1422 25.4431C32.1022 26.2028 33.1592 26.8294 34.2936 27.2981V39.1463C34.2936 39.3683 34.3649 39.584 34.497 39.7615L38.3267 44.9239C38.5218 45.1861 38.8294 45.3409 39.1556 45.3409C39.4818 45.3409 39.7894 45.1871 39.9845 44.9239L43.8152 39.7615C43.9473 39.584 44.0185 39.3683 44.0185 39.1463V27.2991C45.1561 26.8294 46.2152 26.2008 47.1772 25.439C53.5442 28.0258 57.8064 34.5363 57.8064 41.7404V49.6454Z" fill="black"/>
<path d="M18.1315 39.7769C14.5217 39.7769 11.5859 42.758 11.5859 46.4225C11.5859 50.086 14.5227 53.0672 18.1315 53.0672C21.7403 53.0672 24.677 50.086 24.677 46.4225C24.677 42.758 21.7403 39.7769 18.1315 39.7769ZM18.1315 51.0016C15.6603 51.0016 13.6505 48.9474 13.6505 46.4215C13.6505 43.8956 15.6603 41.8403 18.1315 41.8403C20.6027 41.8403 22.6125 43.8945 22.6125 46.4215C22.6125 48.9474 20.6017 51.0016 18.1315 51.0016Z" fill="black"/>
</g>
<defs>
<clipPath id="clip0_18_224304">
<rect width="64" height="64" fill="white"/>
</clipPath>
</defs>
</svg>
