<svg width="64" height="64" viewBox="0 0 64 64" fill="none" xmlns="http://www.w3.org/2000/svg">
<g clip-path="url(#clip0_18_224336)">
<path d="M29.5245 4.46353C29.6741 4.00287 30.3259 4.00287 30.4755 4.46353L32.1329 9.56434C32.1998 9.77035 32.3918 9.90983 32.6084 9.90983H37.9717C38.4561 9.90983 38.6575 10.5296 38.2656 10.8143L33.9266 13.9668C33.7514 14.0941 33.678 14.3198 33.745 14.5258L35.4023 19.6266C35.552 20.0873 35.0248 20.4704 34.6329 20.1857L30.2939 17.0332C30.1186 16.9059 29.8814 16.9059 29.7061 17.0332L25.3671 20.1857C24.9752 20.4704 24.448 20.0873 24.5977 19.6266L26.255 14.5258C26.322 14.3198 26.2486 14.0941 26.0734 13.9668L21.7344 10.8143C21.3425 10.5296 21.5439 9.90983 22.0283 9.90983H27.3916C27.6082 9.90983 27.8002 9.77035 27.8671 9.56434L29.5245 4.46353Z" fill="white"/>
<rect x="1" y="42" width="17" height="17" rx="2" fill="white"/>
<ellipse cx="9.5" cy="37.5" rx="4.5" ry="5.5" fill="white"/>
<path d="M63 55.8941H60.9344V49.9424C60.9344 45.3844 58.7368 44.8653 55.9544 44.2078C55.7373 44.1565 55.5126 44.1034 55.28 44.0465L52.375 43.335C52.6452 43.1336 52.8975 42.9091 53.129 42.6641C54.2245 41.5033 55.458 39.2801 55.1133 35.282C54.7859 31.484 51.7371 29.7593 49.0407 29.7593H48.9933C46.2896 29.7593 43.2407 31.4843 42.9134 35.282C42.5686 39.2801 43.8021 41.5033 44.8976 42.6641C45.1292 42.9092 45.3816 43.1337 45.652 43.335L43.7578 43.7989C42.852 42.3523 41.264 41.9748 39.4275 41.5409C39.2025 41.4876 38.9696 41.4326 38.7286 41.3736L35.6426 40.618C35.9446 40.3988 36.2254 40.1519 36.4815 39.8805C37.6116 38.683 38.884 36.3884 38.528 32.2585C38.1905 28.346 35.0494 26.5686 32.271 26.5686H32.222C29.4364 26.5686 26.2948 28.346 25.9575 32.2585C25.6016 36.3885 26.874 38.6835 28.0041 39.8806C28.26 40.152 28.5407 40.3989 28.8424 40.6181L25.7569 41.3736C25.5159 41.4328 25.2828 41.4878 25.0578 41.5409C23.2215 41.9748 21.6328 42.3523 20.7278 43.7989L18.834 43.335C19.1042 43.1336 19.3564 42.9092 19.5879 42.6643C20.6834 41.5033 21.9169 39.2803 21.5723 35.282C21.2449 31.484 18.196 29.7593 15.4998 29.7593H15.4522C12.7486 29.7593 9.69975 31.4843 9.37225 35.282C9.02762 39.2803 10.2611 41.5033 11.3566 42.6643C11.5881 42.9092 11.8404 43.1337 12.1108 43.335L9.20487 44.0465C8.97225 44.1034 8.7475 44.1565 8.5305 44.2078C5.74813 44.8653 3.5505 45.3844 3.5505 49.9424V55.8941H1C0.734784 55.8941 0.48043 55.9995 0.292893 56.187C0.105357 56.3746 0 56.6289 0 56.8941C0 57.1593 0.105357 57.4137 0.292893 57.6012C0.48043 57.7888 0.734784 57.8941 1 57.8941H63C63.2652 57.8941 63.5196 57.7888 63.7071 57.6012C63.8946 57.4137 64 57.1593 64 56.8941C64 56.6289 63.8946 56.3746 63.7071 56.187C63.5196 55.9995 63.2652 55.8941 63 55.8941ZM44.9056 35.4539C45.1257 32.8996 47.1135 31.7593 48.9992 31.7593H49.034C50.9124 31.7593 52.9001 32.8999 53.1203 35.4539C53.3396 37.9976 52.826 40.0708 51.6741 41.2914C51.3412 41.6563 50.9339 41.9456 50.4797 42.1397C50.0254 42.3338 49.5348 42.4281 49.041 42.4164C49.0316 42.4164 49.0224 42.4164 49.013 42.4164C49.0036 42.4164 48.9943 42.4164 48.9849 42.4164C48.491 42.4284 48.0003 42.3342 47.546 42.1401C47.0917 41.946 46.6844 41.6566 46.3517 41.2914C45.2 40.0708 44.6862 37.9976 44.9056 35.4539ZM47.5181 44.937C48.4986 44.6839 49.5273 44.6839 50.5078 44.937L54.8044 45.9891C55.0419 46.0474 55.2724 46.1016 55.4944 46.1541C58.1367 46.7791 58.9342 46.9666 58.9342 49.9424V55.8941H44.5601V47.4483C44.5647 46.8608 44.5202 46.274 44.4271 45.694L47.5181 44.937ZM27.95 32.4308C28.18 29.761 30.2575 28.569 32.228 28.569H32.2645C34.227 28.569 36.3049 29.7611 36.535 32.4308C36.7632 35.0773 36.2275 37.2356 35.0266 38.5083C34.6784 38.8905 34.2521 39.1933 33.7766 39.3963C33.3011 39.5993 32.7875 39.6978 32.2706 39.6849C32.2519 39.6849 32.2331 39.6849 32.2145 39.6849C31.6978 39.6968 31.1845 39.598 30.7091 39.395C30.2337 39.1921 29.8073 38.8897 29.4585 38.5083C28.2574 37.2358 27.7216 35.0773 27.95 32.4308ZM25.5173 43.4878C25.7474 43.4335 25.9858 43.3771 26.232 43.3168L30.6847 42.2265C31.7064 41.9625 32.7784 41.9625 33.8 42.2265L38.2526 43.3168C38.499 43.3771 38.7373 43.4334 38.9673 43.4878C41.7271 44.1399 42.5601 44.3368 42.5601 47.4488V55.8946H21.925V47.4483C21.925 44.3363 22.7575 44.1394 25.5173 43.4878ZM11.3645 35.4539C11.5848 32.8996 13.5725 31.7593 15.4583 31.7593H15.493C17.3714 31.7593 19.3591 32.8999 19.5793 35.4539C19.7986 37.9976 19.2849 40.0708 18.1329 41.2914C17.8001 41.6564 17.3929 41.9457 16.9386 42.1397C16.4844 42.3337 15.9938 42.4278 15.5 42.4158C15.4906 42.4158 15.4814 42.4158 15.4719 42.4158C15.4624 42.4158 15.4532 42.4158 15.4439 42.4158C14.9501 42.4276 14.4595 42.3334 14.0053 42.1394C13.551 41.9455 13.1437 41.6563 12.8108 41.2915C11.6589 40.0708 11.1451 37.9976 11.3645 35.4539ZM5.55 49.9424C5.55 46.9674 6.3475 46.7786 8.98987 46.1541C9.21187 46.1019 9.442 46.0474 9.67988 45.9891L13.9766 44.937C14.9571 44.6839 15.9857 44.6839 16.9661 44.937L20.0571 45.694C19.964 46.274 19.9194 46.8608 19.924 47.4483V55.8941H5.55V49.9424ZM41.311 12.5745C41.2552 12.4027 41.1539 12.2492 41.0179 12.1304C40.8819 12.0116 40.7162 11.9318 40.5385 11.8995L35.645 11.0128L33.2889 6.63263C33.2033 6.47357 33.0762 6.34066 32.9212 6.24801C32.7661 6.15537 32.5889 6.10645 32.4082 6.10645C32.2276 6.10645 32.0504 6.15537 31.8953 6.24801C31.7403 6.34066 31.6132 6.47357 31.5276 6.63263L29.1715 11.0128L24.2781 11.9003C24.1004 11.9325 23.9348 12.0123 23.7987 12.1311C23.6627 12.2499 23.5614 12.4034 23.5056 12.5752C23.4498 12.7469 23.4415 12.9306 23.4817 13.1067C23.5219 13.2828 23.6091 13.4447 23.7339 13.5753L27.1714 17.1695L26.5031 22.0974C26.4788 22.2764 26.5035 22.4586 26.5745 22.6248C26.6454 22.7909 26.7601 22.9347 26.9062 23.0409C27.0524 23.1471 27.2246 23.2117 27.4045 23.2279C27.5844 23.244 27.7654 23.2112 27.9281 23.1328L32.4085 20.9744L36.8889 23.1328C37.0516 23.2112 37.2326 23.244 37.4125 23.2279C37.5924 23.2117 37.7646 23.1471 37.9108 23.0409C38.0569 22.9347 38.1716 22.7909 38.2425 22.6248C38.3135 22.4586 38.3382 22.2764 38.3139 22.0974L37.6456 17.1695L41.0831 13.5753C41.208 13.4446 41.2951 13.2826 41.3352 13.1063C41.3754 12.9301 41.367 12.7463 41.311 12.5745ZM35.8671 16.1346C35.7632 16.2432 35.6851 16.3739 35.6387 16.5168C35.5922 16.6597 35.5786 16.8113 35.5988 16.9603L36.0819 20.5236L32.8421 18.9628C32.7068 18.8976 32.5584 18.8637 32.4082 18.8637C32.2579 18.8637 32.1096 18.8976 31.9743 18.9628L28.7346 20.5235L29.2178 16.9601C29.238 16.8112 29.2243 16.6596 29.1779 16.5167C29.1314 16.3738 29.0534 16.2431 28.9495 16.1345L26.464 13.5356L30.0025 12.894C30.1504 12.8672 30.2903 12.8074 30.4118 12.719C30.5334 12.6307 30.6334 12.5161 30.7046 12.3838L32.4082 9.21688L34.1125 12.3839C34.1837 12.5162 34.2838 12.6308 34.4053 12.7192C34.5269 12.8075 34.6668 12.8673 34.8146 12.8941L38.353 13.5358L35.8671 16.1346ZM56.2616 17.7596C56.2058 17.5878 56.1045 17.4343 55.9685 17.3155C55.8324 17.1966 55.6667 17.1169 55.489 17.0846L51.7125 16.4003L49.8939 13.0198C49.8083 12.8607 49.6812 12.7278 49.5262 12.6352C49.3711 12.5426 49.1939 12.4937 49.0133 12.4937C48.8327 12.4937 48.6555 12.5426 48.5004 12.6352C48.3454 12.7278 48.2183 12.8607 48.1328 13.0198L46.3138 16.4003L42.5375 17.0846C42.3598 17.1169 42.1941 17.1967 42.0581 17.3155C41.9221 17.4343 41.8208 17.5878 41.765 17.7595C41.7092 17.9313 41.7009 18.115 41.7411 18.2911C41.7813 18.4672 41.8684 18.6291 41.9933 18.7596L44.6463 21.5339L44.1299 25.3378C44.1056 25.5168 44.1303 25.699 44.2013 25.8651C44.2722 26.0312 44.3869 26.175 44.533 26.2812C44.6792 26.3873 44.8514 26.4519 45.0313 26.4681C45.2112 26.4843 45.3921 26.4514 45.5549 26.373L49.0125 24.7069L52.4706 26.3728C52.6334 26.4512 52.8143 26.484 52.9942 26.4679C53.1741 26.4517 53.3463 26.3871 53.4925 26.2809C53.6386 26.1747 53.7533 26.031 53.8242 25.8649C53.8952 25.6987 53.9199 25.5165 53.8956 25.3375L53.3799 21.534L56.0329 18.7598C56.1578 18.6292 56.245 18.4673 56.2853 18.2912C56.3256 18.1151 56.3174 17.9315 56.2616 17.7596ZM51.6019 20.5003C51.4981 20.6088 51.4201 20.7393 51.3736 20.8822C51.3272 21.025 51.3135 21.1764 51.3336 21.3253L51.6642 23.7641L49.4469 22.6959C49.3115 22.6307 49.1632 22.5968 49.0129 22.5968C48.8627 22.5968 48.7144 22.6307 48.579 22.6959L46.3616 23.7641L46.6922 21.3253C46.7124 21.1764 46.6987 21.025 46.6522 20.8822C46.6058 20.7393 46.5278 20.6088 46.424 20.5003L44.7228 18.7215L47.1446 18.2824C47.2925 18.2555 47.4324 18.1957 47.5539 18.1074C47.6755 18.0191 47.7756 17.9045 47.8467 17.7721L49.013 15.6045L50.1791 17.7721C50.2503 17.9045 50.3504 18.0191 50.4719 18.1074C50.5935 18.1957 50.7334 18.2555 50.8812 18.2824L53.3031 18.7215L51.6019 20.5003ZM22.7206 17.76C22.6648 17.5882 22.5635 17.4347 22.4274 17.3158C22.2914 17.197 22.1256 17.1172 21.9479 17.085L18.171 16.4003L16.3525 13.0194C16.2669 12.8603 16.1399 12.7274 15.9848 12.6348C15.8297 12.5421 15.6525 12.4932 15.4719 12.4932C15.2913 12.4932 15.114 12.5421 14.9589 12.6348C14.8039 12.7274 14.6768 12.8603 14.5913 13.0194L12.7727 16.4003L8.99588 17.085C8.81816 17.1173 8.6525 17.197 8.51649 17.3159C8.38047 17.4347 8.27917 17.5881 8.22336 17.7599C8.16755 17.9317 8.1593 18.1154 8.19949 18.2915C8.23968 18.4675 8.32681 18.6295 8.45162 18.76L11.1046 21.534L10.5889 25.3378C10.5646 25.5168 10.5893 25.699 10.6603 25.8651C10.7312 26.0312 10.8459 26.175 10.992 26.2812C11.1382 26.3873 11.3104 26.4519 11.4903 26.4681C11.6702 26.4843 11.8511 26.4514 12.0139 26.373L15.472 24.7071L18.93 26.3728C19.0927 26.4512 19.2737 26.484 19.4536 26.4679C19.6335 26.4517 19.8057 26.3871 19.9518 26.2809C20.098 26.1747 20.2126 26.031 20.2836 25.8649C20.3546 25.6987 20.3793 25.5165 20.355 25.3375L19.8393 21.534L22.4923 18.7598C22.6171 18.6292 22.7043 18.4673 22.7445 18.2912C22.7847 18.115 22.7765 17.9313 22.7206 17.7595V17.76ZM18.0609 20.5003C17.9571 20.6088 17.8791 20.7393 17.8326 20.8822C17.7862 21.025 17.7725 21.1764 17.7926 21.3253L18.1232 23.7641L15.9059 22.6959C15.7705 22.6307 15.6222 22.5968 15.4719 22.5968C15.3217 22.5968 15.1734 22.6307 15.038 22.6959L12.8205 23.7641L13.1512 21.3253C13.1713 21.1764 13.1576 21.025 13.1112 20.8821C13.0647 20.7393 12.9867 20.6088 12.8829 20.5003L11.1818 18.7215L13.6036 18.2824C13.7515 18.2555 13.8914 18.1957 14.0129 18.1074C14.1345 18.0191 14.2346 17.9045 14.3057 17.7721L15.4719 15.6045L16.638 17.7721C16.7092 17.9045 16.8093 18.0191 16.9309 18.1074C17.0525 18.1958 17.1924 18.2556 17.3403 18.2824L19.7621 18.7215L18.0609 20.5003Z" fill="black"/>
</g>
<defs>
<clipPath id="clip0_18_224336">
<rect width="64" height="64" fill="white"/>
</clipPath>
</defs>
</svg>
