<svg width="64" height="64" viewBox="0 0 64 64" fill="none" xmlns="http://www.w3.org/2000/svg">
<g clip-path="url(#clip0_18_224315)">
<rect x="8" y="17" width="37" height="41" rx="2" fill="white"/>
<path d="M48.7029 1.875H23.2479V1.87625C23.0604 1.87625 22.8754 1.94625 22.7329 2.08L12.2291 12C12.0766 12.145 11.9966 12.3425 11.9966 12.545H11.9941V52.2962C11.9941 54.1175 13.4754 55.6 15.2979 55.6H32.4054L30.9866 59.405C30.8879 59.67 30.9466 59.9675 31.1379 60.1763C31.3304 60.3838 31.6229 60.4662 31.8941 60.3887L34.2479 59.7188L35.4591 61.7588C35.5954 61.9875 35.8404 62.1263 36.1041 62.1263C36.1241 62.1263 36.1441 62.125 36.1641 62.1237C36.4491 62.1012 36.6966 61.9175 36.8016 61.6512L39.2316 55.4888C39.2554 55.4775 39.2791 55.4688 39.3029 55.4562L40.5091 54.82L41.3116 55.3587C41.3179 55.3625 41.3254 55.3662 41.3316 55.3713L43.8079 61.6512C43.9129 61.9175 44.1604 62.1012 44.4454 62.1237C44.4654 62.125 44.4854 62.1263 44.5054 62.1263C44.7679 62.1263 45.0141 61.9875 45.1504 61.7588L46.3616 59.7188L48.7154 60.3887C48.9866 60.4662 49.2804 60.3838 49.4716 60.1763C49.6641 59.9688 49.7216 59.67 49.6229 59.405L48.2041 55.6H48.7054C50.5266 55.6 52.0091 54.1187 52.0091 52.2962V5.17875C52.0066 3.35625 50.5241 1.875 48.7029 1.875ZM22.4979 4.365V8.24125C22.4979 10.2013 20.9041 11.795 18.9441 11.795H14.6304L22.4979 4.365ZM35.9666 59.6763L35.2416 58.4562C35.0679 58.1637 34.7191 58.025 34.3916 58.1175L32.9091 58.5387L34.6641 53.8325C34.9166 54.0363 35.2416 54.155 35.5929 54.1413L36.9554 54.0913L37.4441 54.925C37.5179 55.05 37.6091 55.1575 37.7104 55.2513L35.9666 59.6763ZM39.8629 53.4637L38.6891 54.0825L38.2191 53.2812C37.9641 52.8462 37.5179 52.59 37.0166 52.59C36.9991 52.59 36.9804 52.59 36.9629 52.5913L35.6366 52.64L35.5604 51.7137C35.5179 51.1925 35.2066 50.7575 34.7279 50.5475L33.5129 50.0163L33.8466 49.1488C34.0341 48.6613 33.9429 48.1325 33.6029 47.7363L32.7379 46.73L33.4154 46.0925C33.7954 45.735 33.9429 45.2188 33.8079 44.7137L33.4654 43.4325L34.3516 43.1525C34.8504 42.995 35.2054 42.595 35.3041 42.0812L35.5516 40.7788L36.4716 40.9113C36.9891 40.985 37.4829 40.7787 37.7941 40.3587L38.5829 39.2925L39.3541 39.81C39.7879 40.1012 40.3229 40.13 40.7854 39.8862L41.9591 39.2675L42.4291 40.0687C42.6929 40.52 43.1616 40.7763 43.6854 40.7588L45.0116 40.71L45.0879 41.6362C45.1304 42.1575 45.4416 42.5938 45.9204 42.8025L47.1354 43.3338L46.8016 44.2012C46.6141 44.6887 46.7054 45.2175 47.0454 45.6138L47.9104 46.62L47.2341 47.2562C46.8529 47.615 46.7066 48.13 46.8416 48.635L47.1841 49.9162L46.2979 50.1963C45.7991 50.3538 45.4441 50.7538 45.3466 51.2675L45.0991 52.5713L44.1791 52.4388C43.6616 52.3638 43.1679 52.5713 42.8566 52.9912L42.0679 54.0575L41.2966 53.5387C40.8591 53.2487 40.3241 53.22 39.8629 53.4637ZM46.2141 58.1175C45.8866 58.0238 45.5379 58.1637 45.3641 58.4562L44.6391 59.6763L42.9216 55.3213C43.0291 55.2412 43.1279 55.1437 43.2116 55.03L44.0216 53.9338L44.9779 54.0713C45.3304 54.1213 45.6704 54.035 45.9466 53.8525L47.6954 58.54L46.2141 58.1175ZM50.5066 52.2962C50.5066 53.29 49.6979 54.1 48.7029 54.1H47.6416L46.7741 51.7738L46.8054 51.6087L47.7266 51.3175C48.4404 51.0925 48.8491 50.3488 48.6554 49.625L48.3041 48.3075L49.0079 47.645C49.5541 47.1313 49.5991 46.285 49.1104 45.7163L48.2216 44.6825L48.5679 43.7812C48.8366 43.0825 48.5104 42.2987 47.8241 41.9987L46.5754 41.4525L46.4966 40.4888C46.4354 39.7425 45.8016 39.1787 45.0529 39.2062L43.6904 39.2562L43.2016 38.4225C42.8229 37.7762 42.0066 37.545 41.3441 37.8937L40.1379 38.53L39.3354 37.9912C38.7141 37.5737 37.8779 37.7188 37.4329 38.32L36.6216 39.4162L35.6654 39.2788C34.9241 39.1725 34.2341 39.665 34.0941 40.4012L33.8391 41.74L32.9179 42.0312C32.2041 42.2562 31.7954 43 31.9891 43.7238L32.3404 45.0412L31.6366 45.7038C31.0916 46.2175 31.0466 47.0638 31.5341 47.6325L32.4229 48.6662L32.0766 49.5687C31.8079 50.2675 32.1354 51.05 32.8216 51.35L33.8266 51.7887L32.9654 54.0988H15.2979C14.3041 54.0988 13.4941 53.29 13.4941 52.295V13.295H18.9441C21.7304 13.295 23.9979 11.0275 23.9979 8.24125V3.375H48.7029C49.6966 3.375 50.5066 4.18375 50.5066 5.17875V52.2962ZM45.0566 5.27125H28.0629C27.6491 5.27125 27.3129 5.6075 27.3129 6.02125V10.325C27.3129 10.7387 27.6491 11.075 28.0629 11.075H45.0579C45.4716 11.075 45.8079 10.7387 45.8079 10.325V6.02125C45.8066 5.6075 45.4716 5.27125 45.0566 5.27125ZM44.3066 9.575H28.8129V6.77125H44.3079V9.575H44.3066ZM30.0679 17.9275C30.0679 17.5138 30.4041 17.1775 30.8179 17.1775H40.7904C41.2041 17.1775 41.5404 17.5138 41.5404 17.9275C41.5404 18.3412 41.2041 18.6775 40.7904 18.6775H30.8179C30.4041 18.6775 30.0679 18.3425 30.0679 17.9275ZM44.8891 21.8075C44.8891 22.2213 44.5529 22.5575 44.1391 22.5575H30.8179C30.4041 22.5575 30.0679 22.2213 30.0679 21.8075C30.0679 21.3938 30.4041 21.0575 30.8179 21.0575H44.1391C44.5541 21.0575 44.8891 21.3925 44.8891 21.8075ZM18.0804 20.0075C17.8104 19.6938 17.8466 19.22 18.1604 18.95C18.4741 18.68 18.9479 18.7163 19.2179 19.03L20.4604 20.4775L23.0691 17.4387C23.3391 17.125 23.8129 17.0887 24.1266 17.3587C24.4404 17.6287 24.4766 18.1025 24.2066 18.4163L21.0291 22.1187C20.8866 22.285 20.6791 22.38 20.4604 22.38C20.2416 22.38 20.0341 22.285 19.8916 22.1187L18.0804 20.0075ZM30.0679 26.905C30.0679 26.4913 30.4041 26.155 30.8179 26.155H40.7904C41.2041 26.155 41.5404 26.4913 41.5404 26.905C41.5404 27.3188 41.2041 27.655 40.7904 27.655H30.8179C30.4041 27.655 30.0679 27.3188 30.0679 26.905ZM44.8891 30.7838C44.8891 31.1975 44.5529 31.5338 44.1391 31.5338H30.8179C30.4041 31.5338 30.0679 31.1975 30.0679 30.7838C30.0679 30.37 30.4041 30.0338 30.8179 30.0338H44.1391C44.5541 30.0338 44.8891 30.37 44.8891 30.7838ZM18.0804 27.8388C17.8104 27.525 17.8466 27.0513 18.1604 26.7812C18.4741 26.5112 18.9479 26.5475 19.2179 26.8612L20.4604 28.3088L23.0691 25.27C23.3391 24.9563 23.8129 24.92 24.1266 25.19C24.4404 25.46 24.4766 25.9338 24.2066 26.2475L21.0291 29.95C20.8866 30.1163 20.6791 30.2113 20.4604 30.2113C20.2416 30.2113 20.0341 30.1163 19.8916 29.95L18.0804 27.8388ZM41.5404 35.8825C41.5404 36.2962 41.2041 36.6325 40.7904 36.6325H30.8179C30.4041 36.6325 30.0679 36.2962 30.0679 35.8825C30.0679 35.4688 30.4041 35.1325 30.8179 35.1325H40.7904C41.2041 35.1325 41.5404 35.4675 41.5404 35.8825ZM18.0804 36.2762C17.8104 35.9625 17.8466 35.4888 18.1604 35.2188C18.4741 34.9487 18.9479 34.985 19.2179 35.2988L20.4604 36.7463L23.0691 33.7075C23.3391 33.3938 23.8129 33.3575 24.1266 33.6275C24.4404 33.8975 24.4766 34.3713 24.2066 34.685L21.0291 38.3875C20.8866 38.5537 20.6791 38.6488 20.4604 38.6488C20.2416 38.6488 20.0341 38.5537 19.8916 38.3875L18.0804 36.2762ZM45.5504 46.675C45.5504 43.7925 43.2054 41.4487 40.3241 41.4487C37.4429 41.4487 35.0979 43.7938 35.0979 46.675C35.0979 49.5562 37.4429 51.9012 40.3241 51.9012C43.2054 51.9012 45.5504 49.5562 45.5504 46.675ZM40.3229 50.4012C38.2679 50.4012 36.5966 48.73 36.5966 46.675C36.5966 44.62 38.2679 42.9487 40.3229 42.9487C42.3779 42.9487 44.0491 44.62 44.0491 46.675C44.0491 48.73 42.3779 50.4012 40.3229 50.4012ZM42.6916 44.9738C42.9841 45.2663 42.9841 45.7412 42.6916 46.035L40.3504 48.375C40.2091 48.5163 40.0191 48.595 39.8204 48.595C39.6216 48.595 39.4304 48.5163 39.2904 48.375L37.9554 47.04C37.6629 46.7475 37.6629 46.2725 37.9554 45.98C38.2479 45.6875 38.7229 45.6875 39.0154 45.98L39.8191 46.7837L41.6291 44.9738C41.9229 44.6813 42.3979 44.6813 42.6916 44.9738ZM16.3129 44.6213C16.3129 44.2075 16.6491 43.8713 17.0629 43.8713H27.0354C27.4491 43.8713 27.7854 44.2075 27.7854 44.6213C27.7854 45.035 27.4491 45.3713 27.0354 45.3713H17.0629C16.6479 45.3713 16.3129 45.035 16.3129 44.6213ZM29.7716 48.635C29.7716 49.0487 29.4354 49.385 29.0216 49.385H17.0629C16.6491 49.385 16.3129 49.0487 16.3129 48.635C16.3129 48.2212 16.6491 47.885 17.0629 47.885H29.0216C29.4354 47.885 29.7716 48.22 29.7716 48.635Z" fill="black"/>
</g>
<defs>
<clipPath id="clip0_18_224315">
<rect width="64" height="64" fill="white"/>
</clipPath>
</defs>
</svg>
