<svg width="64" height="64" viewBox="0 0 64 64" fill="none" xmlns="http://www.w3.org/2000/svg">
<g clip-path="url(#clip0_18_224325)">
<rect x="39" y="41" width="18" height="18" rx="2" fill="white"/>
<rect width="18" height="18" rx="9" fill="white"/>
<path d="M12.1713 7.11875C11.9138 7.245 11.75 7.50625 11.75 7.7925V9.3H5.76125C5.3475 9.3 5.01125 9.63625 5.01125 10.05V13.0112C5.01125 13.425 5.3475 13.7612 5.76125 13.7612H11.75V15.2688C11.75 15.555 11.9138 15.8162 12.1713 15.9425C12.2762 15.9938 12.3888 16.0187 12.5 16.0187C12.6637 16.0187 12.8263 15.965 12.9613 15.86L17.7612 12.1225C17.9438 11.98 18.05 11.7625 18.05 11.5312C18.05 11.3 17.9438 11.0812 17.7612 10.94L12.9613 7.2025C12.735 7.025 12.4288 6.9925 12.1713 7.11875ZM13.25 10.05V9.3275L16.0788 11.5312L13.25 13.7338V13.0112C13.25 12.5975 12.9137 12.2612 12.5 12.2612H6.51125V10.8H12.5C12.9137 10.8 13.25 10.4637 13.25 10.05ZM61.375 44.29H41.4675C41.0537 44.29 40.7175 44.6263 40.7175 45.04V52.9712H35.03C34.67 50.72 32.7137 48.9938 30.3625 48.9938C28.0112 48.9938 26.055 50.72 25.695 52.9712H16.1C10.635 52.9712 6.18875 48.525 6.18875 43.06C6.18875 37.7013 10.465 33.325 15.785 33.1575C16.1488 35.405 18.1025 37.1275 20.4513 37.1275C22.8025 37.1275 24.7587 35.4013 25.1187 33.15H36.2412C36.6012 35.4013 38.5575 37.1275 40.9087 37.1275C43.26 37.1275 45.2162 35.4013 45.5762 33.15H46.505C52.7962 33.15 57.9162 28.0312 57.9162 21.7388C57.9162 15.4463 52.7975 10.3275 46.505 10.3275H35.03C34.67 8.07625 32.7137 6.35 30.3625 6.35C28.0112 6.35 26.055 8.07625 25.695 10.3275H21.1087C20.515 5.57 16.4475 1.875 11.53 1.875C6.20625 1.875 1.875 6.20625 1.875 11.53C1.875 16.8538 6.20625 21.185 11.53 21.185C16.7537 21.185 21.0187 17.0138 21.1775 11.8275H25.6938C26.0538 14.0788 28.01 15.805 30.3612 15.805C32.7125 15.805 34.6688 14.0788 35.0288 11.8275H46.5037C51.9688 11.8275 56.415 16.2738 56.415 21.7388C56.415 27.2038 51.9688 31.65 46.5037 31.65H45.575C45.215 29.3988 43.2588 27.6725 40.9075 27.6725C38.5563 27.6725 36.6 29.3988 36.24 31.65H25.1175C24.7575 29.3988 22.8013 27.6725 20.45 27.6725C18.0963 27.6725 16.14 29.4013 15.7812 31.655C9.6375 31.8225 4.68875 36.875 4.68875 43.0612C4.68875 49.3525 9.8075 54.4725 16.1 54.4725H25.695C26.055 56.7238 28.0112 58.45 30.3625 58.45C32.7137 58.45 34.67 56.7238 35.03 54.4725H40.7175V61.375C40.7175 61.7887 41.0537 62.125 41.4675 62.125H61.375C61.7887 62.125 62.125 61.7887 62.125 61.375V45.04C62.125 44.625 61.7887 44.29 61.375 44.29ZM11.53 19.6863C7.03375 19.6863 3.375 16.0275 3.375 11.53C3.375 7.03375 7.03375 3.375 11.53 3.375C16.0262 3.375 19.685 7.03375 19.685 11.53C19.6862 16.0275 16.0275 19.6863 11.53 19.6863ZM30.3625 14.3062C28.5825 14.3062 27.135 12.8587 27.135 11.0787C27.135 9.29875 28.5825 7.85125 30.3625 7.85125C32.1425 7.85125 33.59 9.29875 33.59 11.0787C33.59 12.8587 32.1425 14.3062 30.3625 14.3062ZM40.91 29.1725C42.69 29.1725 44.1375 30.62 44.1375 32.4C44.1375 34.18 42.69 35.6275 40.91 35.6275C39.13 35.6275 37.6825 34.18 37.6825 32.4C37.6812 30.62 39.13 29.1725 40.91 29.1725ZM20.4513 29.1725C22.2313 29.1725 23.6787 30.62 23.6787 32.4C23.6787 34.18 22.2313 35.6275 20.4513 35.6275C18.6712 35.6275 17.2237 34.18 17.2237 32.4C17.2237 30.62 18.6712 29.1725 20.4513 29.1725ZM30.3625 56.9487C28.5825 56.9487 27.135 55.5012 27.135 53.7212C27.135 51.9412 28.5825 50.4938 30.3625 50.4938C32.1425 50.4938 33.59 51.9412 33.59 53.7212C33.59 55.5012 32.1425 56.9487 30.3625 56.9487ZM48.8037 45.79H54.0387V50.255L51.8688 48.6425C51.6038 48.445 51.24 48.445 50.9738 48.6425L48.8037 50.255V45.79ZM60.625 60.625H42.2175V45.79H47.3037V51.7463C47.3037 52.03 47.4638 52.2887 47.7163 52.4162C47.97 52.5437 48.2725 52.5175 48.5 52.3488L51.42 50.18L54.34 52.3488C54.4712 52.4463 54.6287 52.4963 54.7875 52.4963C54.9025 52.4963 55.0175 52.47 55.125 52.4162C55.3787 52.2887 55.5375 52.03 55.5375 51.7463V45.79H60.625V60.625Z" fill="black"/>
</g>
<defs>
<clipPath id="clip0_18_224325">
<rect width="64" height="64" fill="white"/>
</clipPath>
</defs>
</svg>
