<svg width="64" height="64" viewBox="0 0 64 64" fill="none" xmlns="http://www.w3.org/2000/svg">
<g clip-path="url(#clip0_18_224365)">
<ellipse cx="27" cy="32.5" rx="25" ry="24.5" fill="white"/>
<path d="M55.7489 43.8118C61.5768 30.2371 53.9348 13.6332 39.8233 9.25177C39.5729 9.17427 39.3022 9.19812 39.0693 9.31818C38.8363 9.43824 38.6598 9.64493 38.5777 9.89379C38.4956 10.1426 38.5144 10.4138 38.6302 10.6489C38.7459 10.884 38.9493 11.0643 39.1966 11.151C52.143 15.1784 59.1971 30.3182 53.9918 42.8331C52.8277 42.4696 51.5701 42.5505 50.4622 43.0604C49.3543 43.5703 48.4748 44.4728 47.9938 45.5935C47.5127 46.7142 47.4643 47.9735 47.8578 49.1278C48.2514 50.2822 49.0589 51.2496 50.1244 51.843C51.1899 52.4365 52.4375 52.6138 53.6261 52.3408C54.8147 52.0677 55.8599 51.3636 56.5595 50.3647C57.2591 49.3657 57.5635 48.1428 57.4138 46.9325C57.2641 45.7221 56.6709 44.6102 55.7489 43.8118ZM52.5282 50.466C51.7539 50.4578 51.0141 50.1444 50.4695 49.594C49.9248 49.0435 49.6193 48.3004 49.6194 47.5261C49.6194 46.7518 49.9249 46.0087 50.4695 45.4583C51.0142 44.9078 51.754 44.5945 52.5283 44.5863C53.3026 44.5945 54.0423 44.9079 54.587 45.4583C55.1316 46.0088 55.4371 46.7518 55.4371 47.5262C55.4371 48.3005 55.1316 49.0436 54.5869 49.594C54.0423 50.1444 53.3025 50.4578 52.5282 50.466Z" fill="black"/>
<path d="M7.47066 41.3205C7.62363 41.32 7.77446 41.2845 7.9116 41.2167C8.04875 41.1489 8.16859 41.0507 8.26197 40.9295C8.35534 40.8084 8.41978 40.6674 8.45036 40.5176C8.48093 40.3677 8.47684 40.2128 8.43839 40.0647C4.78199 27.0069 13.6246 12.8344 26.9816 10.4134C28.6727 15.7317 36.5516 14.567 36.6102 8.9392C36.6139 7.67563 36.1318 6.45898 35.2637 5.5408C34.3956 4.62263 33.2079 4.07316 31.9461 4.00599C30.6843 3.93883 29.445 4.35911 28.4843 5.17995C27.5236 6.00078 26.9151 7.15938 26.7846 8.4162C25.6782 8.62069 24.5868 8.89972 23.5179 9.25139C17.2348 11.3367 11.9804 15.7343 8.82087 21.5518C5.66133 27.3692 4.83336 34.1709 6.50497 40.5765C6.56144 40.7896 6.68673 40.9781 6.86136 41.1126C7.036 41.2472 7.2502 41.3203 7.47066 41.3205ZM31.671 5.99952C32.4454 6.00762 33.1853 6.32092 33.73 6.87137C34.2747 7.42183 34.5803 8.16499 34.5803 8.93941C34.5802 9.71383 34.2747 10.457 33.7299 11.0074C33.1852 11.5579 32.4453 11.8711 31.6709 11.8792C30.8959 11.8721 30.155 11.5592 29.6095 11.0086C29.064 10.458 28.758 9.71434 28.758 8.9393C28.758 8.16426 29.0641 7.42058 29.6096 6.87003C30.1551 6.31947 30.896 6.00666 31.671 5.99952Z" fill="black"/>
<path d="M46.6832 52.7223C42.4137 56.1182 37.119 57.966 31.6637 57.964C26.2084 57.962 20.915 56.1104 16.6481 52.7114C15.8924 52.1138 15.1776 51.4661 14.5087 50.7728C15.0354 50.1736 15.4089 49.4555 15.5971 48.6801C15.7852 47.9048 15.7824 47.0953 15.5888 46.3213C15.3953 45.5473 15.0168 44.8318 14.4858 44.2363C13.9549 43.6408 13.2873 43.183 12.5405 42.9023C11.7937 42.6215 10.9899 42.5262 10.1981 42.6245C9.40638 42.7228 8.65029 43.0117 7.99478 43.4665C7.33928 43.9214 6.80394 44.5285 6.43472 45.2358C6.0655 45.943 5.87344 46.7293 5.87501 47.5272C5.88082 48.3553 6.09428 49.1688 6.49584 49.8931C6.8974 50.6174 7.47423 51.2294 8.17353 51.673C8.87282 52.1167 9.67224 52.3778 10.4986 52.4326C11.3249 52.4873 12.1518 52.3339 12.9035 51.9864C17.3986 56.681 23.4898 59.5205 29.9755 59.9449C36.4612 60.3693 42.8705 58.3477 47.939 54.2789C48.1393 54.1104 48.2657 53.8701 48.2909 53.6096C48.3161 53.349 48.2381 53.089 48.0738 52.8853C47.9094 52.6815 47.6717 52.5504 47.4117 52.5199C47.1517 52.4894 46.8902 52.5621 46.6832 52.7223ZM7.87495 47.5272C7.88317 46.7529 8.19652 46.0131 8.74696 45.4685C9.29741 44.9238 10.0405 44.6184 10.8148 44.6184C11.5892 44.6184 12.3322 44.9239 12.8827 45.4685C13.4331 46.0132 13.7464 46.753 13.7546 47.5273C13.7464 48.3016 13.433 49.0414 12.8826 49.586C12.3322 50.1306 11.5891 50.4361 10.8147 50.4361C10.0404 50.4361 9.29733 50.1306 8.7469 49.5859C8.19647 49.0413 7.88314 48.3015 7.87495 47.5272Z" fill="black"/>
<path d="M44.4199 40.1593C52.2314 24.2515 32.4938 9.80405 19.7106 22.04C17.0931 24.6582 15.4991 28.1268 15.217 31.8183C14.9349 35.5098 15.9833 39.1804 18.1727 42.166C20.362 45.1515 23.5476 47.2549 27.1532 48.0955C30.7588 48.9361 34.5461 48.4585 37.8301 46.7491L44.1999 47.659C44.3535 47.681 44.51 47.667 44.6571 47.618C44.8043 47.569 44.938 47.4864 45.0476 47.3767C45.1573 47.2671 45.2399 47.1333 45.2889 46.9862C45.3379 46.8391 45.3519 46.6825 45.3298 46.529L44.4199 40.1593ZM43.1599 45.4891L37.7901 44.7291C23.8321 52.033 10.1305 35.2576 21.1307 23.4595C32.9053 12.4436 49.7051 26.144 42.3996 40.1192L43.1599 45.4891Z" fill="black"/>
<path d="M30.6709 34.4999C30.277 34.494 29.9012 34.3333 29.6248 34.0527C29.3483 33.772 29.1934 33.3939 29.1934 33C29.1934 32.606 29.3483 32.2279 29.6248 31.9472C29.9012 31.6666 30.277 31.5059 30.6709 31.5C31.0648 31.5059 31.4406 31.6666 31.717 31.9472C31.9935 32.2279 32.1484 32.606 32.1484 33C32.1484 33.3939 31.9935 33.772 31.717 34.0527C31.4406 34.3333 31.0648 34.494 30.6709 34.4999Z" fill="black"/>
<path d="M37.6709 34.4999C37.277 34.494 36.9012 34.3333 36.6248 34.0527C36.3483 33.772 36.1934 33.3939 36.1934 33C36.1934 32.606 36.3483 32.2279 36.6248 31.9472C36.9012 31.6666 37.277 31.5059 37.6709 31.5C38.0648 31.5059 38.4406 31.6666 38.717 31.9472C38.9935 32.2279 39.1484 32.606 39.1484 33C39.1484 33.3939 38.9935 33.772 38.717 34.0527C38.4406 34.3333 38.0648 34.494 37.6709 34.4999Z" fill="black"/>
<path d="M23.6709 34.4999C23.277 34.494 22.9012 34.3333 22.6248 34.0527C22.3483 33.772 22.1934 33.3939 22.1934 33C22.1934 32.606 22.3483 32.2279 22.6248 31.9472C22.9012 31.6666 23.277 31.5059 23.6709 31.5C24.0648 31.5059 24.4406 31.6666 24.717 31.9472C24.9935 32.2279 25.1484 32.606 25.1484 33C25.1484 33.3939 24.9935 33.772 24.717 34.0527C24.4406 34.3333 24.0648 34.494 23.6709 34.4999Z" fill="black"/>
</g>
<defs>
<clipPath id="clip0_18_224365">
<rect width="64" height="64" fill="white"/>
</clipPath>
</defs>
</svg>
