<svg width="64" height="68" viewBox="0 0 64 68" fill="none" xmlns="http://www.w3.org/2000/svg">
<g clip-path="url(#clip0_18_240915)">
<rect x="5" y="8" width="36" height="44" rx="2" fill="white"/>
<path d="M41.491 11.9992C41.3053 11.9992 41.1273 11.9254 40.996 11.7941C40.8647 11.6629 40.791 11.4848 40.791 11.2992V4.93615C40.7924 4.72565 40.716 4.52206 40.5764 4.36445C40.4369 4.20683 40.2441 4.1063 40.035 4.08215L15.199 1.10015C15.0777 1.08512 14.9547 1.09626 14.8381 1.13284C14.7216 1.16942 14.6142 1.23058 14.5233 1.31219C14.4324 1.3938 14.3601 1.49397 14.3112 1.60592C14.2623 1.71787 14.238 1.83901 14.24 1.96115V7.94615C14.24 8.1318 14.1662 8.30985 14.0349 8.44112C13.9037 8.5724 13.7256 8.64615 13.54 8.64615C13.3543 8.64615 13.1763 8.5724 13.045 8.44112C12.9137 8.30985 12.84 8.1318 12.84 7.94615V1.96815C12.8366 1.64621 12.9021 1.32726 13.0319 1.03265C13.1618 0.738045 13.353 0.474566 13.5929 0.259847C13.8329 0.0451275 14.1158 -0.11588 14.423 -0.212404C14.7301 -0.308928 15.0544 -0.338741 15.374 -0.299849L40.203 2.68915C40.7511 2.75735 41.2556 3.02325 41.6216 3.43697C41.9876 3.85068 42.1901 4.38376 42.191 4.93615V11.2992C42.191 11.4848 42.1172 11.6629 41.9859 11.7941C41.8547 11.9254 41.6766 11.9992 41.491 11.9992Z" fill="black"/>
<path d="M39.3925 58.9548H9.53045C9.3448 58.9548 9.16675 58.881 9.03548 58.7498C8.9042 58.6185 8.83045 58.4404 8.83045 58.2548V8.38679C8.82537 8.14673 8.87224 7.90841 8.96785 7.68816C9.06346 7.46791 9.20555 7.27092 9.38439 7.1107C9.56322 6.95048 9.77458 6.83081 10.004 6.75988C10.2334 6.68896 10.4754 6.66846 10.7135 6.69979L44.7615 11.1308C45.1642 11.1835 45.534 11.3808 45.8019 11.6861C46.0698 11.9914 46.2175 12.3836 46.2174 12.7898V48.4548C46.2174 48.6404 46.1437 48.8185 46.0124 48.9498C45.8811 49.081 45.7031 49.1548 45.5174 49.1548C45.3318 49.1548 45.1537 49.081 45.0225 48.9498C44.8912 48.8185 44.8174 48.6404 44.8174 48.4548V12.8178C44.8165 12.7515 44.7921 12.6876 44.7485 12.6376C44.7049 12.5876 44.645 12.5547 44.5795 12.5448L10.5315 8.09979C10.494 8.09379 10.4556 8.09635 10.4192 8.10725C10.3829 8.11816 10.3494 8.13715 10.3215 8.16279C10.2916 8.18881 10.268 8.22117 10.2522 8.2575C10.2365 8.29383 10.229 8.33322 10.2305 8.37279V57.5548H39.3925C39.5781 57.5548 39.7561 57.6285 39.8874 57.7598C40.0187 57.8911 40.0925 58.0691 40.0925 58.2548C40.0925 58.4404 40.0187 58.6185 39.8874 58.7498C39.7561 58.881 39.5781 58.9548 39.3925 58.9548Z" fill="black"/>
<path d="M19.673 23.0037H16.39C16.1421 23.0046 15.8965 22.9566 15.6673 22.8624C15.438 22.7681 15.2296 22.6296 15.054 22.4546C14.8784 22.2797 14.7391 22.0718 14.644 21.8429C14.5489 21.614 14.5 21.3685 14.5 21.1207V18.3207C14.4991 18.0722 14.5473 17.826 14.642 17.5963C14.7366 17.3666 14.8758 17.1579 15.0515 16.9822C15.2272 16.8065 15.4359 16.6673 15.6656 16.5727C15.8954 16.478 16.1416 16.4298 16.39 16.4307H19.673C20.1712 16.4325 20.6484 16.6317 21 16.9847C21.3516 17.3376 21.549 17.8155 21.549 18.3137V21.1137C21.5499 21.361 21.5021 21.606 21.4084 21.8348C21.3146 22.0636 21.1767 22.2717 21.0024 22.4472C20.8282 22.6227 20.6212 22.7622 20.3931 22.8577C20.165 22.9531 19.9203 23.0028 19.673 23.0037ZM16.39 17.8307C16.2631 17.8325 16.1421 17.8842 16.053 17.9746C15.9639 18.065 15.914 18.1868 15.914 18.3137V21.1137C15.914 21.2406 15.9639 21.3624 16.053 21.4528C16.1421 21.5431 16.2631 21.5948 16.39 21.5967H19.673C19.7361 21.5967 19.7986 21.5841 19.8568 21.5598C19.915 21.5354 19.9678 21.4997 20.0121 21.4548C20.0564 21.4098 20.0913 21.3565 20.1148 21.298C20.1383 21.2394 20.1499 21.1768 20.149 21.1137V18.3137C20.1499 18.2506 20.1383 18.1879 20.1148 18.1294C20.0913 18.0708 20.0564 18.0175 20.0121 17.9726C19.9678 17.9276 19.915 17.8919 19.8568 17.8676C19.7986 17.8432 19.7361 17.8307 19.673 17.8307H16.39Z" fill="black"/>
<path d="M29.1579 23.0035H25.8749C25.3779 22.9998 24.9025 22.7998 24.5524 22.4471C24.2023 22.0943 24.0058 21.6175 24.0059 21.1205V18.3205C24.0058 17.8235 24.2023 17.3467 24.5524 16.9939C24.9025 16.6412 25.3779 16.4412 25.8749 16.4375H29.1579C29.656 16.4394 30.1332 16.6386 30.4848 16.9915C30.8364 17.3444 31.0339 17.8223 31.0339 18.3205V21.1205C31.0339 21.6187 30.8364 22.0966 30.4848 22.4495C30.1332 22.8024 29.656 23.0016 29.1579 23.0035ZM25.8749 17.8305C25.8123 17.8314 25.7506 17.8446 25.6932 17.8694C25.6358 17.8942 25.5839 17.93 25.5403 17.9749C25.4968 18.0197 25.4625 18.0727 25.4394 18.1308C25.4163 18.1889 25.4049 18.251 25.4059 18.3135V21.1135C25.4049 21.176 25.4163 21.2381 25.4394 21.2962C25.4625 21.3543 25.4968 21.4073 25.5403 21.4521C25.5839 21.497 25.6358 21.5328 25.6932 21.5576C25.7506 21.5824 25.8123 21.5956 25.8749 21.5965H29.1579C29.221 21.5965 29.2834 21.584 29.3416 21.5596C29.3999 21.5353 29.4526 21.4996 29.4969 21.4546C29.5412 21.4097 29.5761 21.3564 29.5997 21.2978C29.6232 21.2392 29.6348 21.1766 29.6339 21.1135V18.3135C29.6348 18.2504 29.6232 18.1878 29.5997 18.1292C29.5761 18.0706 29.5412 18.0173 29.4969 17.9724C29.4526 17.9274 29.3999 17.8917 29.3416 17.8674C29.2834 17.843 29.221 17.8305 29.1579 17.8305H25.8749Z" fill="black"/>
<path d="M38.6512 23.0035H35.3682C34.87 23.0016 34.3928 22.8024 34.0412 22.4495C33.6896 22.0966 33.4922 21.6187 33.4922 21.1205V18.3205C33.4922 17.8223 33.6896 17.3444 34.0412 16.9915C34.3928 16.6386 34.87 16.4394 35.3682 16.4375H38.6512C39.1488 16.4412 39.6249 16.641 39.9761 16.9935C40.3273 17.346 40.5254 17.8229 40.5272 18.3205V21.1205C40.5254 21.6181 40.3273 22.095 39.9761 22.4475C39.6249 22.8 39.1488 22.9998 38.6512 23.0035ZM35.3682 17.8305C35.3051 17.8305 35.2426 17.843 35.1844 17.8674C35.1262 17.8917 35.0734 17.9274 35.0291 17.9724C34.9848 18.0173 34.9499 18.0706 34.9264 18.1292C34.9029 18.1878 34.8913 18.2504 34.8922 18.3135V21.1135C34.8913 21.1766 34.9029 21.2392 34.9264 21.2978C34.9499 21.3564 34.9848 21.4097 35.0291 21.4546C35.0734 21.4996 35.1262 21.5353 35.1844 21.5596C35.2426 21.584 35.3051 21.5965 35.3682 21.5965H38.6512C38.7781 21.5947 38.8991 21.543 38.9882 21.4526C39.0773 21.3622 39.1272 21.2404 39.1272 21.1135V18.3135C39.1272 18.1866 39.0773 18.0648 38.9882 17.9744C38.8991 17.884 38.7781 17.8323 38.6512 17.8305H35.3682Z" fill="black"/>
<path d="M19.673 32.2994H16.39C16.1421 32.3003 15.8965 32.2523 15.6673 32.1581C15.438 32.0639 15.2296 31.9253 15.054 31.7504C14.8784 31.5754 14.7391 31.3675 14.644 31.1386C14.5489 30.9097 14.5 30.6643 14.5 30.4164V27.6164C14.5 27.1182 14.6974 26.6403 15.049 26.2874C15.4007 25.9345 15.8778 25.7353 16.376 25.7334H19.659C20.1572 25.7353 20.6343 25.9345 20.986 26.2874C21.3376 26.6403 21.535 27.1182 21.535 27.6164V30.4164C21.535 30.9122 21.3395 31.388 20.9909 31.7405C20.6423 32.093 20.1688 32.2939 19.673 32.2994ZM16.39 27.1264C16.2631 27.1282 16.1421 27.1799 16.053 27.2703C15.9639 27.3607 15.914 27.4825 15.914 27.6094V30.4094C15.914 30.5363 15.9639 30.6581 16.053 30.7485C16.1421 30.8389 16.2631 30.8906 16.39 30.8924H19.673C19.7361 30.8924 19.7986 30.8799 19.8568 30.8555C19.915 30.8312 19.9678 30.7955 20.0121 30.7505C20.0564 30.7056 20.0913 30.6523 20.1148 30.5937C20.1383 30.5351 20.1499 30.4725 20.149 30.4094V27.6094C20.1499 27.5463 20.1383 27.4837 20.1148 27.4251C20.0913 27.3665 20.0564 27.3132 20.0121 27.2683C19.9678 27.2233 19.915 27.1876 19.8568 27.1633C19.7986 27.1389 19.7361 27.1264 19.673 27.1264H16.39Z" fill="black"/>
<path d="M29.1579 32.2994H25.8749C25.3779 32.2957 24.9025 32.0957 24.5524 31.743C24.2023 31.3902 24.0058 30.9134 24.0059 30.4164V27.6164C24.0058 27.1194 24.2023 26.6426 24.5524 26.2898C24.9025 25.9371 25.3779 25.7371 25.8749 25.7334H29.1579C29.656 25.7353 30.1332 25.9345 30.4848 26.2874C30.8364 26.6403 31.0339 27.1182 31.0339 27.6164V30.4164C31.0339 30.9146 30.8364 31.3925 30.4848 31.7454C30.1332 32.0983 29.656 32.2975 29.1579 32.2994ZM25.8749 27.1264C25.8123 27.1273 25.7506 27.1405 25.6932 27.1653C25.6358 27.1901 25.5839 27.2259 25.5403 27.2708C25.4968 27.3156 25.4625 27.3686 25.4394 27.4267C25.4163 27.4848 25.4049 27.5469 25.4059 27.6094V30.4094C25.4049 30.4719 25.4163 30.534 25.4394 30.5921C25.4625 30.6502 25.4968 30.7032 25.5403 30.748C25.5839 30.7929 25.6358 30.8287 25.6932 30.8535C25.7506 30.8783 25.8123 30.8915 25.8749 30.8924H29.1579C29.221 30.8924 29.2834 30.8799 29.3416 30.8555C29.3999 30.8311 29.4526 30.7955 29.4969 30.7505C29.5412 30.7056 29.5761 30.6523 29.5997 30.5937C29.6232 30.5351 29.6348 30.4725 29.6339 30.4094V27.6094C29.6348 27.5463 29.6232 27.4837 29.5997 27.4251C29.5761 27.3665 29.5412 27.3132 29.4969 27.2683C29.4526 27.2233 29.3999 27.1876 29.3416 27.1633C29.2834 27.1389 29.221 27.1264 29.1579 27.1264H25.8749Z" fill="black"/>
<path d="M38.6512 32.2994H35.3682C34.87 32.2975 34.3928 32.0983 34.0412 31.7454C33.6896 31.3925 33.4922 30.9146 33.4922 30.4164V27.6164C33.4922 27.1182 33.6896 26.6403 34.0412 26.2874C34.3928 25.9345 34.87 25.7353 35.3682 25.7334H38.6512C39.1488 25.7371 39.6249 25.9369 39.9761 26.2894C40.3273 26.6419 40.5254 27.1188 40.5272 27.6164V30.4164C40.5254 30.914 40.3273 31.3909 39.9761 31.7434C39.6249 32.0959 39.1488 32.2957 38.6512 32.2994ZM35.3682 27.1264C35.3051 27.1264 35.2426 27.1389 35.1844 27.1633C35.1262 27.1876 35.0734 27.2233 35.0291 27.2683C34.9848 27.3132 34.9499 27.3665 34.9264 27.4251C34.9029 27.4837 34.8913 27.5463 34.8922 27.6094V30.4094C34.8913 30.4725 34.9029 30.5351 34.9264 30.5937C34.9499 30.6523 34.9848 30.7056 35.0291 30.7505C35.0734 30.7955 35.1262 30.8311 35.1844 30.8555C35.2426 30.8799 35.3051 30.8924 35.3682 30.8924H38.6512C38.7781 30.8906 38.8991 30.8389 38.9882 30.7485C39.0773 30.6581 39.1272 30.5363 39.1272 30.4094V27.6094C39.1272 27.4825 39.0773 27.3607 38.9882 27.2703C38.8991 27.1799 38.7781 27.1282 38.6512 27.1264H35.3682Z" fill="black"/>
<path d="M19.673 41.5953H16.39C16.1421 41.5962 15.8965 41.5482 15.6673 41.454C15.438 41.3598 15.2296 41.2212 15.054 41.0463C14.8784 40.8713 14.7391 40.6634 14.644 40.4345C14.5489 40.2056 14.5 39.9602 14.5 39.7123V36.9123C14.5 36.4141 14.6974 35.9362 15.049 35.5833C15.4007 35.2304 15.8778 35.0311 16.376 35.0293H19.659C20.1572 35.0311 20.6343 35.2304 20.986 35.5833C21.3376 35.9362 21.535 36.4141 21.535 36.9123V39.7123C21.535 40.2081 21.3395 40.6839 20.9909 41.0364C20.6423 41.3889 20.1688 41.5898 19.673 41.5953ZM16.39 36.4223C16.2631 36.4241 16.1421 36.4758 16.053 36.5662C15.9639 36.6566 15.914 36.7784 15.914 36.9053V39.7053C15.914 39.8322 15.9639 39.954 16.053 40.0444C16.1421 40.1348 16.2631 40.1865 16.39 40.1883H19.673C19.7361 40.1883 19.7986 40.1758 19.8568 40.1514C19.915 40.127 19.9678 40.0914 20.0121 40.0464C20.0564 40.0015 20.0913 39.9482 20.1148 39.8896C20.1383 39.831 20.1499 39.7684 20.149 39.7053V36.9053C20.1499 36.8422 20.1383 36.7795 20.1148 36.721C20.0913 36.6624 20.0564 36.6091 20.0121 36.5642C19.9678 36.5192 19.915 36.4835 19.8568 36.4592C19.7986 36.4348 19.7361 36.4223 19.673 36.4223H16.39Z" fill="black"/>
<path d="M29.1579 41.5953H25.8749C25.3779 41.5916 24.9025 41.3916 24.5524 41.0389C24.2023 40.6861 24.0058 40.2093 24.0059 39.7123V36.9123C24.0058 36.4153 24.2023 35.9385 24.5524 35.5857C24.9025 35.233 25.3779 35.033 25.8749 35.0293H29.1579C29.656 35.0311 30.1332 35.2304 30.4848 35.5833C30.8364 35.9362 31.0339 36.4141 31.0339 36.9123V39.7123C31.0339 40.2105 30.8364 40.6884 30.4848 41.0413C30.1332 41.3942 29.656 41.5934 29.1579 41.5953ZM25.8749 36.4223C25.8123 36.4232 25.7506 36.4364 25.6932 36.4612C25.6358 36.486 25.5839 36.5218 25.5403 36.5666C25.4968 36.6115 25.4625 36.6645 25.4394 36.7226C25.4163 36.7807 25.4049 36.8428 25.4059 36.9053V39.7053C25.4049 39.7678 25.4163 39.8299 25.4394 39.888C25.4625 39.9461 25.4968 39.9991 25.5403 40.0439C25.5839 40.0888 25.6358 40.1246 25.6932 40.1494C25.7506 40.1742 25.8123 40.1874 25.8749 40.1883H29.1579C29.221 40.1883 29.2834 40.1758 29.3416 40.1514C29.3999 40.127 29.4526 40.0914 29.4969 40.0464C29.5412 40.0015 29.5761 39.9482 29.5997 39.8896C29.6232 39.831 29.6348 39.7684 29.6339 39.7053V36.9053C29.6348 36.8422 29.6232 36.7795 29.5997 36.721C29.5761 36.6624 29.5412 36.6091 29.4969 36.5642C29.4526 36.5192 29.3999 36.4835 29.3416 36.4592C29.2834 36.4348 29.221 36.4223 29.1579 36.4223H25.8749Z" fill="black"/>
<path d="M38.6512 41.5953H35.3682C34.87 41.5934 34.3928 41.3942 34.0412 41.0413C33.6896 40.6884 33.4922 40.2105 33.4922 39.7123V36.9123C33.4922 36.4141 33.6896 35.9362 34.0412 35.5833C34.3928 35.2304 34.87 35.0311 35.3682 35.0293H38.6512C39.1488 35.033 39.6249 35.2328 39.9761 35.5853C40.3273 35.9378 40.5254 36.4147 40.5272 36.9123V39.7123C40.5254 40.2099 40.3273 40.6868 39.9761 41.0393C39.6249 41.3918 39.1488 41.5916 38.6512 41.5953ZM35.3682 36.4223C35.3051 36.4223 35.2426 36.4348 35.1844 36.4592C35.1262 36.4835 35.0734 36.5192 35.0291 36.5642C34.9848 36.6091 34.9499 36.6624 34.9264 36.721C34.9029 36.7795 34.8913 36.8422 34.8922 36.9053V39.7053C34.8913 39.7684 34.9029 39.831 34.9264 39.8896C34.9499 39.9482 34.9848 40.0015 35.0291 40.0464C35.0734 40.0914 35.1262 40.127 35.1844 40.1514C35.2426 40.1758 35.3051 40.1883 35.3682 40.1883H38.6512C38.7781 40.1865 38.8991 40.1348 38.9882 40.0444C39.0773 39.954 39.1272 39.8322 39.1272 39.7053V36.9053C39.1272 36.7784 39.0773 36.6566 38.9882 36.5662C38.8991 36.4758 38.7781 36.4241 38.6512 36.4223H35.3682Z" fill="black"/>
<path d="M33.9465 58.948H21.0945C20.9089 58.948 20.7308 58.8742 20.5996 58.743C20.4683 58.6117 20.3945 58.4336 20.3945 58.248V46.348C20.3945 45.8925 20.575 45.4555 20.8964 45.1328C21.2178 44.8101 21.654 44.6278 22.1095 44.626H32.9315C33.387 44.6278 33.8232 44.8101 34.1446 45.1328C34.4661 45.4555 34.6465 45.8925 34.6465 46.348V58.248C34.6465 58.4336 34.5728 58.6117 34.4415 58.743C34.3102 58.8742 34.1322 58.948 33.9465 58.948ZM21.7945 57.548H33.2465V46.348C33.2466 46.2638 33.2136 46.1829 33.1547 46.1227C33.0958 46.0625 33.0157 46.0278 32.9315 46.026H22.1095C22.0254 46.0278 21.9452 46.0625 21.8864 46.1227C21.8275 46.1829 21.7945 46.2638 21.7945 46.348V57.548Z" fill="black"/>
<path d="M39.3928 58.9479H4.7918C4.60615 58.9479 4.4281 58.8741 4.29682 58.7428C4.16555 58.6116 4.0918 58.4335 4.0918 58.2479C4.0918 58.0622 4.16555 57.8842 4.29682 57.7529C4.4281 57.6216 4.60615 57.5479 4.7918 57.5479H39.3928C39.5784 57.5479 39.7565 57.6216 39.8878 57.7529C40.019 57.8842 40.0928 58.0622 40.0928 58.2479C40.0928 58.4335 40.019 58.6116 39.8878 58.7428C39.7565 58.8741 39.5784 58.9479 39.3928 58.9479Z" fill="black"/>
<path d="M49.2902 68.2998C47.1833 68.3054 45.122 67.6856 43.3675 66.5191C41.6129 65.3526 40.2439 63.6917 39.4338 61.7467C38.6236 59.8017 38.4088 57.6601 38.8164 55.5929C39.2241 53.5258 40.2359 51.626 41.7238 50.1342C43.2117 48.6424 45.1087 47.6256 47.1748 47.2125C49.2409 46.7994 51.3831 47.0086 53.3302 47.8136C55.2773 48.6186 56.9418 49.9833 58.1129 51.7348C59.2841 53.4863 59.9092 55.5459 59.9092 57.6528C59.9111 60.4723 58.7938 63.1772 56.8028 65.1735C54.8117 67.1698 52.1097 68.2943 49.2902 68.2998ZM49.2902 48.4058C47.4602 48.4003 45.6696 48.9379 44.1453 49.9506C42.6209 50.9633 41.4314 52.4055 40.7272 54.0947C40.023 55.7839 39.8359 57.644 40.1895 59.4396C40.5431 61.2352 41.4216 62.8855 42.7137 64.1815C44.0058 65.4775 45.6534 66.361 47.4479 66.72C49.2424 67.0791 51.1031 66.8976 52.7944 66.1986C54.4857 65.4995 55.9316 64.3143 56.9489 62.7931C57.9662 61.2718 58.5092 59.4829 58.5092 57.6528C58.5111 55.2046 57.5413 52.8558 55.8128 51.122C54.0843 49.3883 51.7384 48.4114 49.2902 48.4058Z" fill="black"/>
<path d="M53.1762 62.5384H45.3992C45.2136 62.5384 45.0355 62.4647 44.9042 62.3334C44.773 62.2021 44.6992 62.0241 44.6992 61.8384V57.1414C44.6992 56.9558 44.773 56.7777 44.9042 56.6464C45.0355 56.5152 45.2136 56.4414 45.3992 56.4414C45.5849 56.4414 45.7629 56.5152 45.8942 56.6464C46.0255 56.7777 46.0992 56.9558 46.0992 57.1414V61.1384H52.4762V57.1414C52.4762 56.9558 52.55 56.7777 52.6812 56.6464C52.8125 56.5152 52.9906 56.4414 53.1762 56.4414C53.3619 56.4414 53.5399 56.5152 53.6712 56.6464C53.8025 56.7777 53.8762 56.9558 53.8762 57.1414V61.8384C53.8762 62.0241 53.8025 62.2021 53.6712 62.3334C53.5399 62.4647 53.3619 62.5384 53.1762 62.5384Z" fill="black"/>
<path d="M46.2174 58.0796C45.6251 58.0796 45.0572 57.8443 44.6384 57.4256C44.2196 57.0068 43.9844 56.4388 43.9844 55.8466V53.8656C43.9862 53.5747 44.1026 53.2962 44.3083 53.0905C44.514 52.8848 44.7925 52.7684 45.0834 52.7666H47.7574C47.943 52.7666 48.1211 52.8404 48.2523 52.9716C48.3836 53.1029 48.4574 53.281 48.4574 53.4666V55.8466C48.4555 56.4395 48.2187 57.0074 47.7988 57.426C47.3789 57.8446 46.8102 58.0796 46.2174 58.0796ZM45.3844 54.1666V55.8466C45.4035 56.0553 45.4999 56.2492 45.6546 56.3905C45.8094 56.5317 46.0114 56.61 46.2209 56.61C46.4304 56.61 46.6324 56.5317 46.7871 56.3905C46.9419 56.2492 47.0383 56.0553 47.0574 55.8466V54.1666H45.3844Z" fill="black"/>
<path d="M49.2896 58.0796C48.6974 58.0796 48.1294 57.8443 47.7107 57.4256C47.2919 57.0068 47.0566 56.4388 47.0566 55.8466V53.4666C47.0566 53.281 47.1304 53.1029 47.2617 52.9716C47.3929 52.8404 47.571 52.7666 47.7566 52.7666H50.8226C51.0083 52.7666 51.1863 52.8404 51.3176 52.9716C51.4489 53.1029 51.5226 53.281 51.5226 53.4666V55.8466C51.5226 56.4388 51.2874 57.0068 50.8686 57.4256C50.4498 57.8443 49.8819 58.0796 49.2896 58.0796ZM48.4566 54.1666V55.8466C48.4566 56.0675 48.5444 56.2794 48.7006 56.4356C48.8568 56.5918 49.0687 56.6796 49.2896 56.6796C49.5106 56.6796 49.7224 56.5918 49.8787 56.4356C50.0349 56.2794 50.1226 56.0675 50.1226 55.8466V54.1666H48.4566Z" fill="black"/>
<path d="M52.356 58.0796C51.7638 58.0796 51.1958 57.8443 50.7771 57.4256C50.3583 57.0068 50.123 56.4388 50.123 55.8466V53.4666C50.123 53.281 50.1968 53.1029 50.3281 52.9716C50.4593 52.8404 50.6374 52.7666 50.823 52.7666H53.49C53.7815 52.7666 54.0611 52.8824 54.2672 53.0885C54.4733 53.2946 54.589 53.5741 54.589 53.8656V55.8466C54.589 56.1398 54.5313 56.4302 54.4191 56.7011C54.3069 56.9721 54.1424 57.2182 53.935 57.4256C53.7277 57.6329 53.4815 57.7974 53.2106 57.9096C52.9397 58.0218 52.6493 58.0796 52.356 58.0796ZM51.523 54.1666V55.8466C51.523 56.0675 51.6108 56.2794 51.767 56.4356C51.9232 56.5918 52.1351 56.6796 52.356 56.6796C52.577 56.6796 52.7888 56.5918 52.9451 56.4356C53.1013 56.2794 53.189 56.0675 53.189 55.8466V54.1666H51.523Z" fill="black"/>
<path d="M53.9454 62.5387H44.6004C44.4147 62.5387 44.2367 62.4649 44.1054 62.3336C43.9741 62.2024 43.9004 62.0243 43.9004 61.8387C43.9004 61.653 43.9741 61.475 44.1054 61.3437C44.2367 61.2124 44.4147 61.1387 44.6004 61.1387H53.9454C54.131 61.1387 54.3091 61.2124 54.4404 61.3437C54.5716 61.475 54.6454 61.653 54.6454 61.8387C54.6454 62.0243 54.5716 62.2024 54.4404 62.3336C54.3091 62.4649 54.131 62.5387 53.9454 62.5387Z" fill="black"/>
</g>
<defs>
<clipPath id="clip0_18_240915">
<rect width="64" height="68" fill="white"/>
</clipPath>
</defs>
</svg>
