<svg width="64" height="64" viewBox="0 0 64 64" fill="none" xmlns="http://www.w3.org/2000/svg">
<g clip-path="url(#clip0_18_240874)">
<path d="M0 25.679C0 11.4969 11.4969 0 25.679 0C40.2157 0 52 11.7843 52 26.321V29.2857C52 29.6802 51.6802 30 51.2857 30H0.73171C0.327599 30 0 29.6724 0 29.2683V25.679Z" fill="white"/>
<path d="M4 52.9977V41.0023C4 40.4491 4.44913 40.001 5.00231 40.0023L16.0023 40.0277C16.5537 40.029 17 40.4764 17 41.0277V52.9723C17 53.5236 16.5537 53.971 16.0023 53.9723L5.00231 53.9977C4.44913 53.999 4 53.5509 4 52.9977Z" fill="white"/>
<path d="M32 30.9596C31.45 30.9596 31 30.5096 31 29.9596V3.38965C31 2.83965 31.45 2.38965 32 2.38965C32.55 2.38965 33 2.83965 33 3.38965V29.9596C33 30.5096 32.55 30.9596 32 30.9596Z" fill="black"/>
<path d="M31.999 21.6196C22.769 21.6196 14.079 19.2696 8.14898 15.1796C7.69898 14.8696 7.57898 14.2396 7.89898 13.7896C8.20898 13.3396 8.83898 13.2196 9.28898 13.5396C14.889 17.4096 23.169 19.6296 31.999 19.6296C40.839 19.6296 49.109 17.4096 54.709 13.5396C55.159 13.2296 55.789 13.3396 56.099 13.7896C56.409 14.2396 56.299 14.8696 55.849 15.1796C49.919 19.2696 41.229 21.6196 31.999 21.6196Z" fill="black"/>
<path d="M49.1092 31.0596H14.8892C14.6092 31.0596 14.3492 30.9496 14.1592 30.7396C13.9692 30.5396 13.8692 30.2696 13.8892 29.9896C14.9292 14.2496 22.7192 2.38965 31.9992 2.38965C41.2792 2.38965 49.0692 14.2596 50.1092 29.9996C50.1292 30.2796 50.0292 30.5496 49.8392 30.7496C49.6492 30.9396 49.3892 31.0596 49.1092 31.0596ZM15.9692 29.0596H48.0392C46.8092 14.9196 40.0192 4.38965 31.9992 4.38965C23.9792 4.38965 17.1892 14.9196 15.9692 29.0596Z" fill="black"/>
<path d="M61.9691 31.0599H2.0291C1.7391 31.0599 1.4691 30.9399 1.2791 30.7299C1.0891 30.5199 0.999102 30.2299 1.0291 29.9499C2.8491 14.2299 16.1691 2.37988 31.9991 2.37988C47.8291 2.37988 61.1491 14.2299 62.9691 29.9399C62.9991 30.2199 62.9091 30.5099 62.7191 30.7199C62.5291 30.9399 62.2591 31.0599 61.9691 31.0599ZM3.1691 29.0599H60.8291C58.6391 14.9099 46.4391 4.37988 31.9991 4.37988C17.5591 4.37988 5.3591 14.9099 3.1691 29.0599Z" fill="black"/>
<path d="M61.3298 53.7399H22.7598C22.2098 53.7399 21.7598 53.2899 21.7598 52.7399V34.4199C21.7598 33.8699 22.2098 33.4199 22.7598 33.4199H61.3298C61.8798 33.4199 62.3298 33.8699 62.3298 34.4199V52.7399C62.3298 53.2899 61.8798 53.7399 61.3298 53.7399ZM23.7598 51.7399H60.3298V35.4199H23.7598V51.7399Z" fill="black"/>
<path d="M18.5783 53.5003H7.48828C6.93828 53.5003 6.48828 53.0503 6.48828 52.5003V43.8703C6.48828 43.6203 6.57828 43.3803 6.74828 43.2003L10.9283 38.6103C11.1183 38.4003 11.3883 38.2803 11.6683 38.2803H18.5783C19.1283 38.2803 19.5783 38.7303 19.5783 39.2803V52.5003C19.5783 53.0503 19.1283 53.5003 18.5783 53.5003ZM8.48828 51.5003H17.5783V40.2803H12.1083L8.48828 44.2603V51.5003Z" fill="black"/>
<path d="M13.2783 44.9396H13.2683L7.47828 44.8696C6.92828 44.8596 6.48828 44.4096 6.48828 43.8596C6.49828 43.3096 6.93828 42.8696 7.48828 42.8696H7.49828L12.2583 42.9296L12.1983 39.3296C12.1883 38.7796 12.6283 38.3196 13.1783 38.3096C13.7083 38.3096 14.1883 38.7396 14.1983 39.2896L14.2783 43.9196C14.2783 44.1896 14.1783 44.4496 13.9883 44.6396C13.7983 44.8296 13.5383 44.9396 13.2783 44.9396Z" fill="black"/>
<path d="M13.0485 61.6195C11.0785 61.6195 9.47852 60.0195 9.47852 58.0495C9.47852 56.0795 11.0785 54.4795 13.0485 54.4795C15.0185 54.4795 16.6185 56.0795 16.6185 58.0495C16.6185 60.0095 15.0085 61.6195 13.0485 61.6195ZM13.0485 56.4695C12.1785 56.4695 11.4785 57.1795 11.4785 58.0395C11.4785 58.9095 12.1885 59.6095 13.0485 59.6095C13.9185 59.6095 14.6185 58.8995 14.6185 58.0395C14.6185 57.1795 13.9085 56.4695 13.0485 56.4695Z" fill="black"/>
<path d="M27.0485 61.6195C25.0785 61.6195 23.4785 60.0195 23.4785 58.0495C23.4785 56.0795 25.0785 54.4795 27.0485 54.4795C29.0185 54.4795 30.6185 56.0795 30.6185 58.0495C30.6185 60.0095 29.0085 61.6195 27.0485 61.6195ZM27.0485 56.4695C26.1785 56.4695 25.4785 57.1795 25.4785 58.0395C25.4785 58.9095 26.1885 59.6095 27.0485 59.6095C27.9185 59.6095 28.6185 58.8995 28.6185 58.0395C28.6185 57.1795 27.9085 56.4695 27.0485 56.4695Z" fill="black"/>
<path d="M34.0485 61.6195C32.0785 61.6195 30.4785 60.0195 30.4785 58.0495C30.4785 56.0795 32.0785 54.4795 34.0485 54.4795C36.0185 54.4795 37.6185 56.0795 37.6185 58.0495C37.6185 60.0095 36.0085 61.6195 34.0485 61.6195ZM34.0485 56.4695C33.1785 56.4695 32.4785 57.1795 32.4785 58.0395C32.4785 58.9095 33.1885 59.6095 34.0485 59.6095C34.9185 59.6095 35.6185 58.8995 35.6185 58.0395C35.6185 57.1795 34.9085 56.4695 34.0485 56.4695Z" fill="black"/>
<path d="M44.0485 61.6195C42.0785 61.6195 40.4785 60.0195 40.4785 58.0495C40.4785 56.0795 42.0785 54.4795 44.0485 54.4795C46.0185 54.4795 47.6185 56.0795 47.6185 58.0495C47.6185 60.0095 46.0085 61.6195 44.0485 61.6195ZM44.0485 56.4695C43.1785 56.4695 42.4785 57.1795 42.4785 58.0395C42.4785 58.9095 43.1885 59.6095 44.0485 59.6095C44.9185 59.6095 45.6185 58.8995 45.6185 58.0395C45.6185 57.1795 44.9085 56.4695 44.0485 56.4695Z" fill="black"/>
<path d="M51.0485 61.6195C49.0785 61.6195 47.4785 60.0195 47.4785 58.0495C47.4785 56.0795 49.0785 54.4795 51.0485 54.4795C53.0185 54.4795 54.6185 56.0795 54.6185 58.0495C54.6185 60.0095 53.0085 61.6195 51.0485 61.6195ZM51.0485 56.4695C50.1785 56.4695 49.4785 57.1795 49.4785 58.0395C49.4785 58.9095 50.1885 59.6095 51.0485 59.6095C51.9185 59.6095 52.6185 58.8995 52.6185 58.0395C52.6185 57.1795 51.9085 56.4695 51.0485 56.4695Z" fill="black"/>
<path d="M58.0485 61.6195C56.0785 61.6195 54.4785 60.0195 54.4785 58.0495C54.4785 56.0795 56.0785 54.4795 58.0485 54.4795C60.0185 54.4795 61.6185 56.0795 61.6185 58.0495C61.6185 60.0095 60.0085 61.6195 58.0485 61.6195ZM58.0485 56.4695C57.1785 56.4695 56.4785 57.1795 56.4785 58.0395C56.4785 58.9095 57.1885 59.6095 58.0485 59.6095C58.9185 59.6095 59.6185 58.8995 59.6185 58.0395C59.6185 57.1795 58.9085 56.4695 58.0485 56.4695Z" fill="black"/>
<path d="M34.719 44.8698C34.549 44.8698 34.369 44.8298 34.219 44.7398L28.459 41.4098C28.149 41.2298 27.959 40.8998 27.959 40.5398C27.959 40.1798 28.149 39.8498 28.459 39.6698L34.219 36.3498C34.529 36.1698 34.909 36.1698 35.219 36.3498C35.529 36.5298 35.719 36.8598 35.719 37.2198V37.8598H43.229C43.779 37.8598 44.229 38.3098 44.229 38.8598V42.2198C44.229 42.4898 44.119 42.7398 43.939 42.9298C43.759 43.1198 43.499 43.2198 43.229 43.2198H35.719V43.8598C35.719 44.2198 35.529 44.5498 35.219 44.7298C35.059 44.8298 34.889 44.8698 34.719 44.8698ZM30.959 40.5498L33.719 42.1498C33.739 41.9198 33.839 41.6998 34.009 41.5298C34.199 41.3398 34.449 41.2398 34.719 41.2398H42.229V39.8798H34.719C34.449 39.8798 34.199 39.7698 34.009 39.5898C33.839 39.4198 33.739 39.1998 33.719 38.9698L30.959 40.5498Z" fill="black"/>
<path d="M47.4495 50.9302C47.2795 50.9302 47.0995 50.8902 46.9495 50.8002C46.6395 50.6202 46.4495 50.2902 46.4495 49.9302V49.2902H38.9395C38.3895 49.2902 37.9395 48.8402 37.9395 48.2902V44.9302C37.9395 44.3802 38.3895 43.9302 38.9395 43.9302H46.4495V43.2902C46.4495 42.9302 46.6395 42.6002 46.9495 42.4202C47.2595 42.2402 47.6395 42.2402 47.9495 42.4202L53.7095 45.7402C54.0195 45.9202 54.2095 46.2502 54.2095 46.6102C54.2095 46.9702 54.0195 47.3002 53.7095 47.4802L47.9495 50.8102C47.7895 50.8802 47.6195 50.9302 47.4495 50.9302ZM39.9395 47.2902H47.4495C47.9695 47.2902 48.3995 47.6902 48.4495 48.2002L51.2095 46.6002L48.4495 45.0102C48.4095 45.5202 47.9795 45.9202 47.4495 45.9202H39.9395V47.2902Z" fill="black"/>
</g>
<defs>
<clipPath id="clip0_18_240874">
<rect width="64" height="64" fill="white"/>
</clipPath>
</defs>
</svg>
