<svg width="618" height="618" viewBox="0 0 618 618" fill="none" xmlns="http://www.w3.org/2000/svg">
<circle cx="309" cy="309" r="308.5" fill="#FFBE2E" stroke="#978050"/>
<path d="M221.834 330.818C220.986 328.893 220.808 314.606 221.194 311.7C221.281 311.03 221.867 311.236 221.939 310.932C222.689 307.777 222.747 303.767 223.572 300.315C233.76 257.684 275.628 228.462 319.612 233.011C338.165 234.929 338.096 263.08 319.605 264.857C308.217 265.95 300.691 264.245 289.245 268.668C242.693 286.671 241.293 352.861 287.165 372.41C325.628 388.803 364.243 361.148 365.997 320.787C367.368 289.161 364.109 255.925 365.964 224.492C367.171 204.031 395.749 203.886 398 223.772V325.853C394.621 374.686 353.761 411.291 304.332 408.888C266.065 407.028 232.04 378.348 223.5 341.302C222.958 338.953 222.441 332.211 221.83 330.822L221.834 330.818Z" fill="white"/>
</svg>
