<svg width="154" height="40" viewBox="0 0 154 40" fill="none" xmlns="http://www.w3.org/2000/svg">
<path fill-rule="evenodd" clip-rule="evenodd" d="M64.8567 0C61.2536 0 58.9073 1.17895 56.8125 5.13684L47.2599 23.2421V7.15789C47.2599 2.35789 44.9975 0 40.8078 0C36.6181 0 34.8584 1.43158 32.7635 5.47368L23.7138 23.2421V7.32632C23.7138 2.18947 21.6189 0 16.5075 0H6.11698C2.17865 0 0 1.85263 0 5.22105C0 8.58947 2.09485 10.6105 5.94939 10.6105H10.2229V30.9053C10.2229 36.6316 14.0774 40 19.6078 40C25.1383 40 27.6521 37.8105 30.4173 32.6737L36.4505 21.3053V30.9053C36.4505 36.5474 40.1374 40 45.7516 40C51.3658 40 53.4607 38.0632 56.6449 32.6737L70.5547 9.09474C73.5713 3.9579 71.4764 0 64.7729 0C64.7729 0 64.7729 0 64.8567 0Z" fill="#873EFF"/>
<path fill-rule="evenodd" clip-rule="evenodd" d="M91.0034 0C79.6074 0 70.9766 8.50526 70.9766 20.0421C70.9766 31.5789 79.6912 40 91.0034 40C102.316 40 110.946 31.4947 111.03 20.0421C111.03 8.50526 102.316 0 91.0034 0ZM91.0034 27.7053C86.7299 27.7053 83.7971 24.5053 83.7971 20.0421C83.7971 15.5789 86.7299 12.2947 91.0034 12.2947C95.2769 12.2947 98.2097 15.5789 98.2097 20.0421C98.2097 24.5053 95.3607 27.7053 91.0034 27.7053Z" fill="#873EFF"/>
<path fill-rule="evenodd" clip-rule="evenodd" d="M133.82 0C122.508 0 113.793 8.50526 113.793 20.0421C113.793 31.5789 122.508 40 133.82 40C145.132 40 153.847 31.4947 153.847 20.0421C153.847 8.58947 145.132 0 133.82 0ZM133.82 27.7053C129.462 27.7053 126.697 24.5053 126.697 20.0421C126.697 15.5789 129.546 12.2947 133.82 12.2947C138.093 12.2947 141.026 15.5789 141.026 20.0421C141.026 24.5053 138.177 27.7053 133.82 27.7053Z" fill="#873EFF"/>
</svg>
