<svg width="200" height="80" viewBox="0 0 200 80" fill="none" xmlns="http://www.w3.org/2000/svg">
<rect width="200" height="80" rx="12" fill="white"/>
<mask id="mask0_3197_24347" style="mask-type:alpha" maskUnits="userSpaceOnUse" x="16" y="16" width="168" height="48">
<rect x="16" y="16" width="168" height="48" fill="#D9D9D9"/>
</mask>
<g mask="url(#mask0_3197_24347)">
<path d="M94.7984 32.3263C96.4069 32.3263 97.2387 33.8301 97.2387 36.8764C97.2497 37.0362 97.2552 37.2235 97.2552 37.4163C97.2552 38.6006 97.0018 39.7299 96.5391 40.7435L96.5611 40.6939C96.1976 41.2723 95.5641 41.6524 94.8424 41.6524C94.8094 41.6524 94.7818 41.6524 94.7488 41.6524C94.7323 41.6524 94.7157 41.6524 94.6992 41.6524C94.0051 41.6524 93.4047 41.2668 93.0907 40.7049L93.0852 40.6939C92.6996 39.7574 92.4737 38.6667 92.4737 37.5264C92.4737 37.2785 92.4848 37.0307 92.5068 36.7828V36.8158C92.5068 33.8081 93.267 32.3263 94.7984 32.3263ZM64.264 32.2877C63.3551 32.3979 62.5949 32.9543 62.2038 33.7255L62.1983 33.742C61.3334 34.9374 60.8211 36.4357 60.8211 38.0553C60.8211 38.0883 60.8211 38.1214 60.8211 38.1544C60.8322 38.9091 60.9809 39.6197 61.2508 40.2752L61.2343 40.2367C61.5703 41.1346 62.0386 41.6028 62.5839 41.7185C62.6445 41.724 62.7161 41.7295 62.7822 41.7295C63.4433 41.7295 64.0327 41.4431 64.4403 40.9914C65.3382 40.1045 65.9607 38.9366 66.1755 37.6366L66.181 37.6036C66.2747 37.0968 66.3353 36.5128 66.3408 35.9124V35.9069C66.3298 35.1522 66.181 34.4361 65.9111 33.7806L65.9276 33.8191C65.5806 32.9212 65.1289 32.453 64.578 32.3373C64.4844 32.3153 64.3797 32.2987 64.2695 32.2987L64.264 32.2877ZM49.903 32.2877C48.9941 32.3979 48.2284 32.9543 47.8373 33.7255L47.8318 33.742C46.9669 34.9374 46.4546 36.4357 46.4546 38.0553C46.4546 38.0883 46.4546 38.1214 46.4546 38.1544C46.4657 38.9091 46.6144 39.6197 46.8843 40.2752L46.8678 40.2367C47.2038 41.1346 47.672 41.6028 48.2174 41.7185C48.278 41.724 48.3496 41.7295 48.4157 41.7295C49.0767 41.7295 49.6662 41.4431 50.0738 40.9914C50.9717 40.1045 51.5942 38.9366 51.809 37.6366L51.8145 37.6036C51.9137 37.1133 51.9743 36.5514 51.9743 35.9785C51.9743 35.951 51.9743 35.9289 51.9743 35.9014C51.9633 35.1467 51.8145 34.4361 51.5446 33.7806L51.5611 33.8191C51.2141 32.9212 50.7624 32.453 50.2115 32.3373C50.1179 32.3153 50.0132 32.2987 49.903 32.2987V32.2877ZM154.842 32.2106C154.92 32.2051 155.008 32.1996 155.101 32.1996C155.801 32.1996 156.456 32.3869 157.018 32.7119L157.002 32.7009C157.393 33.0314 157.641 33.5217 157.641 34.067C157.641 34.1386 157.635 34.2047 157.63 34.2708V34.2598C157.63 35.3358 156.701 35.8867 154.842 35.9124V32.1941V32.2106ZM140.884 29.2304V44.8419H149.433V41.5092H145.109V38.6392H148.838V35.4111H145.114V32.5521H149.405V29.2304H140.884ZM173.93 29.2029V44.8143H182.479V41.4816H178.133V38.6282H181.857V35.4001H178.133V32.5301H182.452V29.1974L173.93 29.2029ZM150.645 29.2029V44.8143H154.859V37.7082H154.942L158.346 44.8088H162.791L159.42 37.7853C160.913 37.1353 161.949 35.681 161.971 33.9844C161.971 33.9458 161.971 33.8907 161.971 33.8467C161.971 32.4695 161.293 31.2466 160.257 30.5029L160.246 30.4919C159.04 29.6821 157.558 29.1974 155.961 29.1974C155.817 29.1974 155.68 29.2029 155.537 29.2084H155.559L150.645 29.2029ZM123.146 29.2029L121.146 44.8143H125.14L126.214 34.067L128.946 44.8143H131.789L134.372 34.0946L135.513 44.8143H139.672L137.567 29.2029H132.125L131.304 32.7064C131.095 33.6043 130.891 34.5242 130.709 35.4662L130.252 37.8955C129.817 35.4662 129.216 32.5797 128.462 29.2084L123.146 29.2029ZM104.064 29.2029L102.064 44.8143H106.058L107.132 34.067L109.853 44.8143H112.696L115.307 34.0946L116.436 44.8143H120.595L118.497 29.2029H113.043L112.217 32.7064C112.007 33.6043 111.804 34.5242 111.616 35.4662L111.153 37.89C110.621 34.9814 110.028 32.0857 109.374 29.2029H104.064ZM170.239 28.7897C170.145 28.7842 170.03 28.7842 169.92 28.7842C165.634 28.7842 162.158 32.2602 162.158 36.5459C162.158 36.6395 162.158 36.7332 162.163 36.8268V36.8158C162.158 36.9315 162.152 37.0637 162.152 37.1959C162.152 39.3994 163.017 41.4045 164.427 42.8863L164.422 42.8808C165.865 44.3186 167.848 45.2055 170.046 45.2055C170.156 45.2055 170.267 45.2055 170.377 45.1999H170.36C171.214 45.1889 172.035 45.0622 172.806 44.8254L172.745 44.8419V41.1181C172.123 41.3219 171.407 41.4486 170.669 41.4706H170.658C170.619 41.4706 170.57 41.4706 170.52 41.4706C169.424 41.4706 168.438 41.0024 167.749 40.2532C167.061 39.3498 166.647 38.2095 166.647 36.9645C166.647 35.7416 167.05 34.6124 167.733 33.7034L167.722 33.72C168.355 32.9543 169.308 32.4695 170.371 32.4695C170.404 32.4695 170.432 32.4695 170.465 32.4695H170.459C171.275 32.475 172.062 32.5962 172.806 32.8221L172.745 32.8055V29.1037C172.018 28.9054 171.187 28.7953 170.327 28.7953C170.3 28.7953 170.272 28.7953 170.239 28.7953V28.7897ZM84.646 28.7897C84.5523 28.7842 84.4366 28.7842 84.3265 28.7842C80.0408 28.7842 76.5648 32.2602 76.5648 36.5459C76.5648 36.6395 76.5648 36.7332 76.5703 36.8268V36.8158C76.5648 36.9315 76.5593 37.0637 76.5593 37.1959C76.5593 39.3994 77.4242 41.4045 78.8344 42.8863L78.8289 42.8808C80.2666 44.3186 82.2552 45.2055 84.4477 45.2055C84.5578 45.2055 84.668 45.2055 84.7837 45.1999H84.7672C85.621 45.1889 86.4418 45.0622 87.213 44.8254L87.1524 44.8419V41.1181C86.5299 41.3219 85.8138 41.4486 85.0756 41.4706H85.0646C85.0261 41.4706 84.9765 41.4706 84.9269 41.4706C83.8307 41.4706 82.8446 41.0024 82.1561 40.2532C81.4675 39.3498 81.0543 38.2095 81.0543 36.9645C81.0543 35.7416 81.4565 34.6124 82.1395 33.7034L82.1285 33.72C82.762 32.9543 83.715 32.4695 84.7782 32.4695C84.8112 32.4695 84.8388 32.4695 84.8718 32.4695C85.6926 32.475 86.4693 32.5962 87.213 32.8221L87.1524 32.8055V29.1037C86.4253 28.9054 85.5935 28.7953 84.7286 28.7953C84.7011 28.7953 84.6735 28.7953 84.6405 28.7953H84.646V28.7897ZM94.7543 28.7732C94.6607 28.7677 94.556 28.7677 94.4458 28.7677C92.6004 28.7677 90.9423 29.5775 89.8075 30.8665L89.802 30.872C88.6893 32.3373 88.0173 34.1882 88.0173 36.1988C88.0173 36.4027 88.0228 36.601 88.0393 36.7993V36.7717C88.0283 36.9645 88.0173 37.1849 88.0173 37.4107C88.0173 39.515 88.6838 41.4596 89.8241 43.0461L89.802 43.0185C90.9478 44.3626 92.6445 45.211 94.5395 45.211C94.6772 45.211 94.8149 45.2055 94.9526 45.1999H94.9361C95.0352 45.2055 95.1564 45.211 95.2721 45.211C97.1506 45.211 98.8252 44.3626 99.9489 43.0351L99.9544 43.024C101.067 41.4926 101.739 39.5811 101.739 37.5044C101.739 37.3061 101.734 37.1023 101.723 36.904V36.9315C101.734 36.7552 101.739 36.5514 101.739 36.3476C101.739 34.2874 101.062 32.3814 99.9104 30.85L99.9269 30.872C98.737 29.572 97.0349 28.7622 95.1454 28.7622C95.0077 28.7622 94.87 28.7677 94.7378 28.7732H94.7543ZM64.1594 28.4537C64.6001 28.4537 65.0297 28.5033 65.4374 28.5969L65.3988 28.5914C66.9853 28.8944 68.2964 29.8805 69.04 31.2246L69.051 31.2521C69.7506 32.4695 70.1583 33.9238 70.1583 35.4827C70.1583 35.5819 70.1583 35.681 70.1528 35.7802V35.7637C70.1528 35.7967 70.1528 35.8353 70.1528 35.8793C70.1528 38.2315 69.4862 40.435 68.3349 42.3024L68.3625 42.2473C67.3599 44.2635 65.3382 45.6406 62.986 45.6957C62.5398 45.6847 62.1102 45.6351 61.697 45.536L61.7356 45.5415C60.1491 45.2385 58.8325 44.258 58.0889 42.9194L58.0779 42.8918C57.3838 41.6524 56.9706 40.1761 56.9706 38.6006C56.9706 38.5125 56.9706 38.4243 56.9761 38.3362V38.3472C56.9761 38.3142 56.9761 38.2756 56.9761 38.2315C56.9761 35.8849 57.6427 33.6924 58.7995 31.8305L58.7719 31.8801C59.78 29.8694 61.7962 28.5033 64.1429 28.4482L64.1594 28.4537ZM49.7929 28.4537C50.2336 28.4537 50.6632 28.5033 51.0709 28.5969L51.0323 28.5914C52.6188 28.9054 53.9243 29.886 54.6735 31.2246L54.69 31.2521C55.3896 32.4695 55.8028 33.9348 55.8028 35.4937C55.8028 35.5874 55.8028 35.681 55.7973 35.7747V35.7637C55.7973 35.7912 55.7973 35.8298 55.7973 35.8628C55.7973 38.2205 55.1307 40.4295 53.9739 42.2969L54.0015 42.2418C52.9989 44.258 50.9772 45.6351 48.625 45.6902H48.6195C48.1733 45.6792 47.7492 45.6296 47.336 45.5305L47.3746 45.536C45.7881 45.233 44.4715 44.2525 43.7279 42.9139L43.7113 42.8863C43.0228 41.6524 42.6151 40.1816 42.6151 38.6171C42.6151 38.518 42.6151 38.4243 42.6206 38.3252V38.3417C42.6206 38.2976 42.6206 38.2536 42.6206 38.204C42.6206 35.8683 43.2817 33.6814 44.433 31.8305L44.4054 31.8801C45.4135 29.8694 47.4297 28.5033 49.7763 28.4482H49.7819L49.7929 28.4537ZM40.8799 25.9693H41.0892C41.563 25.9803 41.9927 26.1511 42.3287 26.432C42.7308 26.7405 42.9952 27.2033 43.0338 27.7376V27.7431C43.0393 27.7927 43.0393 27.8478 43.0393 27.9084C43.0393 28.2499 42.9512 28.5749 42.8024 28.8558L42.8079 28.8448C41.7062 31.2576 40.9185 34.0505 40.599 36.9866L40.588 37.1078C40.1638 39.3663 39.9214 41.9719 39.9214 44.6271C39.9214 45.0567 39.9269 45.4809 39.9379 45.9051V45.8445C39.9489 45.9326 39.9545 46.0373 39.9545 46.1419C39.9545 46.5826 39.8498 47.0013 39.6625 47.3648L39.668 47.3483C39.4422 47.811 38.9904 48.1361 38.4616 48.1746C38.4561 48.1746 38.4506 48.1746 38.4451 48.1746C37.718 48.1746 37.0734 47.8441 36.6438 47.3263L36.6383 47.3208C34.253 44.6326 32.4903 41.3439 31.6034 37.7137L31.5703 37.5595C30.0793 40.4901 28.9813 42.6899 28.2762 44.1588C26.9265 46.7534 25.7752 48.0755 24.8167 48.1416C24.1943 48.1911 23.671 47.6678 23.2082 46.5716C21.5832 41.6083 20.2611 35.7196 19.4844 29.6656L19.4348 29.1698C19.4183 29.0762 19.4073 28.966 19.4073 28.8503C19.4073 28.3931 19.556 27.9745 19.8094 27.6329L19.8039 27.6384C20.1399 27.2088 20.6632 26.9333 21.2472 26.9333C21.3463 26.9113 21.462 26.9003 21.5777 26.9003C22.4976 26.9003 23.2413 27.6439 23.2413 28.5639C23.2413 28.5694 23.2413 28.5694 23.2413 28.5749C23.9519 33.3674 24.7396 37.4273 25.5604 40.749L30.5733 31.186C30.8597 30.4589 31.5042 29.93 32.2864 29.8143H32.2975C33.3055 29.7427 33.9335 30.3872 34.1814 31.7424C34.7158 34.7225 35.4649 37.3501 36.451 39.8621L36.3518 39.5756C36.5887 34.9649 37.6849 30.6627 39.4752 26.7515L39.3871 26.9719C39.6625 26.3935 40.2244 25.9914 40.8854 25.9583L40.8799 25.9693ZM22.2001 22.901C19.3302 22.901 17 25.2312 17 28.1012C17 28.1122 17 28.1232 17 28.1287V45.536C17 48.417 19.3357 50.7582 22.2167 50.7582H43.838L53.704 56.2668L51.4565 50.7582H67.8171C70.6981 50.7582 73.0448 48.4225 73.0448 45.536V28.1232C73.0448 25.2422 70.7091 22.8955 67.8226 22.8955L22.2001 22.901Z" fill="black"/>
</g>
</svg>
