<svg width="64" height="64" viewBox="0 0 64 64" fill="none" xmlns="http://www.w3.org/2000/svg">
<g clip-path="url(#clip0_5400_19666)">
<path d="M10 30.5C10 29.9477 10.4477 29.5 11 29.5H22.9375L27.028 29.6145C27.5692 29.6297 28 30.0727 28 30.6141V35.1875V41.5C28 42.0523 27.5523 42.5 27 42.5H11C10.4477 42.5 10 42.0523 10 41.5V30.5Z" fill="#978050"/>
<path d="M12 15C12 14.4477 12.4477 14 13 14H22.0625H25C25.5523 14 26 14.4477 26 15V18.7501V24.5001C26 25.0524 25.5523 25.5001 25 25.5001H13C12.4477 25.5001 12 25.0524 12 24.5001V15Z" fill="#978050"/>
<path d="M48.9684 20.0865C47.5231 20.0865 46.3503 18.9147 46.3503 17.4684C46.3503 16.0222 47.5231 14.8504 48.9684 14.8504C50.4146 14.8504 51.5865 16.0222 51.5865 17.4684C51.5865 18.9147 50.4146 20.0865 48.9684 20.0865ZM55.3486 18.3579C54.8632 17.8645 54.8632 17.0723 55.3486 16.5789L56.5124 15.3962C56.9121 14.9892 56.9914 14.3658 56.7064 13.8724L55.9521 12.5652C55.6671 12.0716 55.087 11.829 54.5348 11.9715L52.929 12.3883C52.2586 12.5615 51.573 12.1654 51.388 11.4988L50.946 9.89916C50.7935 9.34973 50.2936 8.96911 49.7235 8.96911H48.2142C47.644 8.96911 47.1433 9.34973 46.9918 9.89916L46.5488 11.4988C46.3647 12.1654 45.6782 12.5615 45.0079 12.3883L43.402 11.9715C42.8499 11.829 42.2707 12.0716 41.9856 12.5652L41.2305 13.8724C40.9454 14.3658 41.0248 14.9892 41.4253 15.3962L42.5882 16.5789C43.0745 17.0723 43.0745 17.8645 42.5882 18.3579L41.4253 19.5407C41.0248 19.9477 40.9454 20.5711 41.2305 21.0645L41.9856 22.3717C42.2707 22.8653 42.8499 23.1079 43.402 22.9653L45.0079 22.5486C45.6782 22.3754 46.3647 22.7715 46.5488 23.4381L46.9918 25.0377C47.1433 25.5871 47.644 25.9678 48.2142 25.9678H49.7235C50.2936 25.9678 50.7935 25.5871 50.946 25.0377L51.388 23.4381C51.573 22.7715 52.2586 22.3754 52.929 22.5486L54.5348 22.9653C55.087 23.1079 55.6671 22.8653 55.9521 22.3717L56.7064 21.0645C56.9914 20.5711 56.9121 19.9477 56.5124 19.5407L55.3486 18.3579Z" stroke="white" stroke-width="1.5" stroke-miterlimit="10" stroke-linecap="round" stroke-linejoin="round"/>
<path d="M36.3226 20.3335C35.8135 18.0994 35.8913 15.7025 36.668 13.3709C38.9312 6.57742 46.2729 2.90503 53.0663 5.16823C55.3979 5.945 57.3626 7.32027 58.8454 9.06661" stroke="white" stroke-width="1.5" stroke-miterlimit="10" stroke-linecap="round" stroke-linejoin="round"/>
<path d="M61.6162 14.6046C62.1253 16.8386 62.0475 19.2356 61.2708 21.5672C59.0079 28.3598 51.6659 32.0331 44.8724 29.7699C42.541 28.9931 40.5761 27.6178 39.0938 25.8706" stroke="white" stroke-width="1.5" stroke-miterlimit="10" stroke-linecap="round" stroke-linejoin="round"/>
<path d="M55.7637 9.06531L58.8452 9.06738L58.8503 5.98475" stroke="white" stroke-width="1.5" stroke-miterlimit="10" stroke-linecap="round" stroke-linejoin="round"/>
<path d="M42.1726 25.8721L39.091 25.87L39.0859 28.9526" stroke="white" stroke-width="1.5" stroke-miterlimit="10" stroke-linecap="round" stroke-linejoin="round"/>
<path d="M45.357 59.8745H8.28372C4.06261 59.8745 0.640625 56.4525 0.640625 52.2314V52.2242C0.640625 48.0029 4.06261 44.5811 8.28372 44.5811H45.3569C49.5781 44.5811 53 48.003 53 52.2242V52.2314C53.0001 56.4525 49.5781 59.8745 45.357 59.8745Z" stroke="white" stroke-width="1.5" stroke-miterlimit="10" stroke-linecap="round" stroke-linejoin="round"/>
<path d="M10.7594 54.9683C9.24735 54.9683 8.02148 53.7426 8.02148 52.2304V52.2252C8.02148 50.7132 9.24725 49.4873 10.7594 49.4873C12.2714 49.4873 13.4973 50.7131 13.4973 52.2252V52.2304C13.4972 53.7426 12.2714 54.9683 10.7594 54.9683Z" stroke="white" stroke-width="1.5" stroke-miterlimit="10" stroke-linecap="round" stroke-linejoin="round"/>
<path d="M21.4645 54.9683C19.9524 54.9683 18.7266 53.7426 18.7266 52.2304V52.2252C18.7266 50.7132 19.9523 49.4873 21.4645 49.4873C22.9765 49.4873 24.2024 50.7131 24.2024 52.2252V52.2304C24.2024 53.7426 22.9766 54.9683 21.4645 54.9683Z" stroke="white" stroke-width="1.5" stroke-miterlimit="10" stroke-linecap="round" stroke-linejoin="round"/>
<path d="M32.1715 54.9683C30.6595 54.9683 29.4336 53.7426 29.4336 52.2304V52.2252C29.4336 50.7132 30.6594 49.4873 32.1715 49.4873C33.6835 49.4873 34.9094 50.7131 34.9094 52.2252V52.2304C34.9093 53.7426 33.6835 54.9683 32.1715 54.9683Z" stroke="white" stroke-width="1.5" stroke-miterlimit="10" stroke-linecap="round" stroke-linejoin="round"/>
<path d="M42.8824 54.9683C41.3704 54.9683 40.1445 53.7426 40.1445 52.2304V52.2252C40.1445 50.7132 41.3703 49.4873 42.8824 49.4873C44.3945 49.4873 45.6204 50.7131 45.6204 52.2252V52.2304C45.6204 53.7426 44.3946 54.9683 42.8824 54.9683Z" stroke="white" stroke-width="1.5" stroke-miterlimit="10" stroke-linecap="round" stroke-linejoin="round"/>
<path d="M27.603 12.2642H10.7227V27.4596H27.603V12.2642Z" stroke="white" stroke-width="1.5" stroke-miterlimit="10" stroke-linecap="round" stroke-linejoin="round"/>
<path d="M22.8143 36.1579L19.163 34.5537L15.5117 36.1579V27.459H22.8143V36.1579Z" stroke="white" stroke-width="1.5" stroke-miterlimit="10" stroke-linecap="round" stroke-linejoin="round"/>
<path d="M30.4733 27.459H7.85547V44.5809H30.4733V27.459Z" stroke="white" stroke-width="1.5" stroke-miterlimit="10" stroke-linecap="round" stroke-linejoin="round"/>
<path d="M16.2188 21.5625H22.1099" stroke="white" stroke-width="1.5" stroke-miterlimit="10" stroke-linecap="round" stroke-linejoin="round"/>
</g>
<defs>
<clipPath id="clip0_5400_19666">
<rect width="64" height="64" fill="white"/>
</clipPath>
</defs>
</svg>
