<svg width="13" height="11" viewBox="0 0 13 11" fill="none" xmlns="http://www.w3.org/2000/svg">
<path d="M0 5.0109C0 5.35403 0.23777 5.59857 0.581185 5.59857L9.27698 5.59857L10.6901 5.5456L8.51775 7.52636L7.03873 9.0251C6.93308 9.13103 6.88012 9.28936 6.88012 9.44768C6.88012 9.77166 7.13085 10.0156 7.45483 10.0156C7.61315 10.0156 7.75176 9.95646 7.88388 9.83082L12.2747 5.447C12.4066 5.32136 12.4728 5.16951 12.4728 5.01118C12.4728 4.8461 12.4066 4.69425 12.2747 4.56889L7.88388 0.184508C7.75147 0.0591441 7.61315 -0.00029933 7.45454 -0.00029933C7.13113 -0.00029933 6.88012 0.243951 6.88012 0.574124C6.88012 0.72597 6.93308 0.884295 7.03873 0.98994L8.51775 2.49544L10.6833 4.46972L9.27698 4.41676L0.581185 4.41676C0.23777 4.41676 0 4.66721 0 5.0109Z" fill="#FFBE2E"/>
</svg>
